G04 PROTEUS GERBER X2 FILE*
%TF.GenerationSoftware,Labcenter,Proteus,8.15-SP1-Build34318*%
%TF.CreationDate,2023-08-09T10:16:53+00:00*%
%TF.FileFunction,Legend,Top*%
%TF.FilePolarity,Positive*%
%TF.Part,Single*%
%TF.SameCoordinates,{0049c899-80f1-4e30-9ba5-08a3a9b55963}*%
%FSLAX45Y45*%
%MOMM*%
G01*
%TA.AperFunction,Profile*%
%ADD27C,0.203200*%
%TA.AperFunction,Material*%
%ADD31C,0.203200*%
%ADD32C,0.063500*%
%ADD33C,0.250000*%
%ADD34C,0.200000*%
%ADD35C,0.120000*%
%TA.AperFunction,NonMaterial*%
%ADD36C,0.203200*%
%TD.AperFunction*%
D27*
X-619760Y-63500D02*
X+7683500Y-63500D01*
X+7683500Y+9080500D01*
X-619760Y+9080500D01*
X-619760Y-63500D01*
D31*
X+2667000Y+8255000D02*
X+4445000Y+8255000D01*
X+4445000Y+11557000D01*
X+2667000Y+11557000D01*
X+2667000Y+8255000D01*
X+3175000Y+11303000D02*
X+3937000Y+11303000D01*
X+3937000Y+12573000D01*
X+3175000Y+12573000D01*
X+3175000Y+11303000D01*
X+2921000Y+9017000D02*
X+4191000Y+9017000D01*
X+4191000Y+11049000D01*
X+2921000Y+11049000D01*
X+2921000Y+9017000D01*
D32*
X+3489960Y+9540240D02*
X+3489960Y+9591040D01*
X+3489960Y+9616440D02*
X+3489960Y+9667240D01*
X+3489960Y+9697720D02*
X+3489960Y+9733280D01*
X+3489960Y+9834880D02*
X+3489960Y+9865360D01*
X+3489960Y+9961880D02*
X+3489960Y+9992360D01*
X+3489960Y+10033000D02*
X+3489960Y+10104120D01*
X+3489960Y+10165080D02*
X+3489960Y+10241280D01*
X+3489960Y+10292080D02*
X+3489960Y+10363200D01*
X+3495040Y+9540240D02*
X+3495040Y+9591040D01*
X+3495040Y+9616440D02*
X+3495040Y+9667240D01*
X+3495040Y+9697720D02*
X+3495040Y+9733280D01*
X+3495040Y+9824720D02*
X+3495040Y+9875520D01*
X+3495040Y+9961880D02*
X+3495040Y+9992360D01*
X+3495040Y+10033000D02*
X+3495040Y+10119360D01*
X+3495040Y+10165080D02*
X+3495040Y+10251440D01*
X+3495040Y+10292080D02*
X+3495040Y+10363200D01*
X+3500120Y+9540240D02*
X+3500120Y+9591040D01*
X+3500120Y+9616440D02*
X+3500120Y+9667240D01*
X+3500120Y+9697720D02*
X+3500120Y+9733280D01*
X+3500120Y+9814560D02*
X+3500120Y+9880600D01*
X+3500120Y+9956800D02*
X+3500120Y+9992360D01*
X+3500120Y+10033000D02*
X+3500120Y+10124440D01*
X+3500120Y+10165080D02*
X+3500120Y+10256520D01*
X+3500120Y+10292080D02*
X+3500120Y+10363200D01*
X+3505200Y+9540240D02*
X+3505200Y+9591040D01*
X+3505200Y+9616440D02*
X+3505200Y+9667240D01*
X+3505200Y+9697720D02*
X+3505200Y+9733280D01*
X+3505200Y+9814560D02*
X+3505200Y+9885680D01*
X+3505200Y+9951720D02*
X+3505200Y+9992360D01*
X+3505200Y+10033000D02*
X+3505200Y+10129520D01*
X+3505200Y+10165080D02*
X+3505200Y+10256520D01*
X+3505200Y+10287000D02*
X+3505200Y+10363200D01*
X+3510280Y+9540240D02*
X+3510280Y+9596120D01*
X+3510280Y+9611360D02*
X+3510280Y+9667240D01*
X+3510280Y+9697720D02*
X+3510280Y+9733280D01*
X+3510280Y+9809480D02*
X+3510280Y+9845040D01*
X+3510280Y+9855200D02*
X+3510280Y+9890760D01*
X+3510280Y+9946640D02*
X+3510280Y+9992360D01*
X+3510280Y+10033000D02*
X+3510280Y+10129520D01*
X+3510280Y+10165080D02*
X+3510280Y+10261600D01*
X+3510280Y+10287000D02*
X+3510280Y+10363200D01*
X+3515360Y+9540240D02*
X+3515360Y+9596120D01*
X+3515360Y+9611360D02*
X+3515360Y+9667240D01*
X+3515360Y+9697720D02*
X+3515360Y+9733280D01*
X+3515360Y+9809480D02*
X+3515360Y+9845040D01*
X+3515360Y+9855200D02*
X+3515360Y+9890760D01*
X+3515360Y+9936480D02*
X+3515360Y+9992360D01*
X+3515360Y+10033000D02*
X+3515360Y+10068560D01*
X+3515360Y+10088880D02*
X+3515360Y+10134600D01*
X+3515360Y+10165080D02*
X+3515360Y+10200640D01*
X+3515360Y+10220960D02*
X+3515360Y+10261600D01*
X+3515360Y+10287000D02*
X+3515360Y+10317480D01*
X+3520440Y+9540240D02*
X+3520440Y+9596120D01*
X+3520440Y+9611360D02*
X+3520440Y+9667240D01*
X+3520440Y+9697720D02*
X+3520440Y+9733280D01*
X+3520440Y+9809480D02*
X+3520440Y+9839960D01*
X+3520440Y+9860280D02*
X+3520440Y+9890760D01*
X+3520440Y+9926320D02*
X+3520440Y+9992360D01*
X+3520440Y+10033000D02*
X+3520440Y+10068560D01*
X+3520440Y+10099040D02*
X+3520440Y+10134600D01*
X+3520440Y+10165080D02*
X+3520440Y+10200640D01*
X+3520440Y+10226040D02*
X+3520440Y+10261600D01*
X+3520440Y+10287000D02*
X+3520440Y+10317480D01*
X+3525520Y+9540240D02*
X+3525520Y+9596120D01*
X+3525520Y+9611360D02*
X+3525520Y+9667240D01*
X+3525520Y+9697720D02*
X+3525520Y+9733280D01*
X+3525520Y+9804400D02*
X+3525520Y+9839960D01*
X+3525520Y+9860280D02*
X+3525520Y+9895840D01*
X+3525520Y+9921240D02*
X+3525520Y+9992360D01*
X+3525520Y+10033000D02*
X+3525520Y+10068560D01*
X+3525520Y+10099040D02*
X+3525520Y+10134600D01*
X+3525520Y+10165080D02*
X+3525520Y+10200640D01*
X+3525520Y+10226040D02*
X+3525520Y+10261600D01*
X+3525520Y+10287000D02*
X+3525520Y+10317480D01*
X+3530600Y+9540240D02*
X+3530600Y+9570720D01*
X+3530600Y+9575800D02*
X+3530600Y+9596120D01*
X+3530600Y+9611360D02*
X+3530600Y+9631680D01*
X+3530600Y+9636760D02*
X+3530600Y+9667240D01*
X+3530600Y+9697720D02*
X+3530600Y+9733280D01*
X+3530600Y+9804400D02*
X+3530600Y+9839960D01*
X+3530600Y+9860280D02*
X+3530600Y+9895840D01*
X+3530600Y+9921240D02*
X+3530600Y+9992360D01*
X+3530600Y+10033000D02*
X+3530600Y+10068560D01*
X+3530600Y+10104120D02*
X+3530600Y+10139680D01*
X+3530600Y+10165080D02*
X+3530600Y+10200640D01*
X+3530600Y+10226040D02*
X+3530600Y+10261600D01*
X+3530600Y+10287000D02*
X+3530600Y+10317480D01*
X+3530600Y+10322560D02*
X+3530600Y+10347960D01*
X+3535680Y+9540240D02*
X+3535680Y+9570720D01*
X+3535680Y+9575800D02*
X+3535680Y+9601200D01*
X+3535680Y+9611360D02*
X+3535680Y+9631680D01*
X+3535680Y+9636760D02*
X+3535680Y+9667240D01*
X+3535680Y+9697720D02*
X+3535680Y+9733280D01*
X+3535680Y+9804400D02*
X+3535680Y+9839960D01*
X+3535680Y+9860280D02*
X+3535680Y+9895840D01*
X+3535680Y+9921240D02*
X+3535680Y+9951720D01*
X+3535680Y+9956800D02*
X+3535680Y+9992360D01*
X+3535680Y+10033000D02*
X+3535680Y+10068560D01*
X+3535680Y+10104120D02*
X+3535680Y+10139680D01*
X+3535680Y+10165080D02*
X+3535680Y+10200640D01*
X+3535680Y+10220960D02*
X+3535680Y+10261600D01*
X+3535680Y+10287000D02*
X+3535680Y+10353040D01*
X+3540760Y+9540240D02*
X+3540760Y+9570720D01*
X+3540760Y+9575800D02*
X+3540760Y+9601200D01*
X+3540760Y+9606280D02*
X+3540760Y+9631680D01*
X+3540760Y+9636760D02*
X+3540760Y+9667240D01*
X+3540760Y+9697720D02*
X+3540760Y+9733280D01*
X+3540760Y+9804400D02*
X+3540760Y+9839960D01*
X+3540760Y+9860280D02*
X+3540760Y+9895840D01*
X+3540760Y+9921240D02*
X+3540760Y+9941560D01*
X+3540760Y+9956800D02*
X+3540760Y+9992360D01*
X+3540760Y+10033000D02*
X+3540760Y+10068560D01*
X+3540760Y+10104120D02*
X+3540760Y+10139680D01*
X+3540760Y+10165080D02*
X+3540760Y+10261600D01*
X+3540760Y+10281920D02*
X+3540760Y+10358120D01*
X+3545840Y+9540240D02*
X+3545840Y+9570720D01*
X+3545840Y+9575800D02*
X+3545840Y+9601200D01*
X+3545840Y+9606280D02*
X+3545840Y+9631680D01*
X+3545840Y+9636760D02*
X+3545840Y+9667240D01*
X+3545840Y+9697720D02*
X+3545840Y+9733280D01*
X+3545840Y+9804400D02*
X+3545840Y+9839960D01*
X+3545840Y+9860280D02*
X+3545840Y+9895840D01*
X+3545840Y+9921240D02*
X+3545840Y+9931400D01*
X+3545840Y+9956800D02*
X+3545840Y+9992360D01*
X+3545840Y+10033000D02*
X+3545840Y+10068560D01*
X+3545840Y+10104120D02*
X+3545840Y+10139680D01*
X+3545840Y+10165080D02*
X+3545840Y+10256520D01*
X+3545840Y+10281920D02*
X+3545840Y+10363200D01*
X+3550920Y+9540240D02*
X+3550920Y+9570720D01*
X+3550920Y+9575800D02*
X+3550920Y+9601200D01*
X+3550920Y+9606280D02*
X+3550920Y+9631680D01*
X+3550920Y+9636760D02*
X+3550920Y+9667240D01*
X+3550920Y+9697720D02*
X+3550920Y+9733280D01*
X+3550920Y+9804400D02*
X+3550920Y+9839960D01*
X+3550920Y+9860280D02*
X+3550920Y+9895840D01*
X+3550920Y+9956800D02*
X+3550920Y+9992360D01*
X+3550920Y+10033000D02*
X+3550920Y+10068560D01*
X+3550920Y+10104120D02*
X+3550920Y+10139680D01*
X+3550920Y+10165080D02*
X+3550920Y+10251440D01*
X+3550920Y+10281920D02*
X+3550920Y+10317480D01*
X+3550920Y+10327640D02*
X+3550920Y+10368280D01*
X+3556000Y+9540240D02*
X+3556000Y+9570720D01*
X+3556000Y+9580880D02*
X+3556000Y+9601200D01*
X+3556000Y+9606280D02*
X+3556000Y+9626600D01*
X+3556000Y+9636760D02*
X+3556000Y+9667240D01*
X+3556000Y+9697720D02*
X+3556000Y+9733280D01*
X+3556000Y+9804400D02*
X+3556000Y+9839960D01*
X+3556000Y+9860280D02*
X+3556000Y+9895840D01*
X+3556000Y+9956800D02*
X+3556000Y+9992360D01*
X+3556000Y+10033000D02*
X+3556000Y+10068560D01*
X+3556000Y+10104120D02*
X+3556000Y+10139680D01*
X+3556000Y+10165080D02*
X+3556000Y+10246360D01*
X+3556000Y+10307320D02*
X+3556000Y+10312400D01*
X+3556000Y+10332720D02*
X+3556000Y+10368280D01*
X+3561080Y+9540240D02*
X+3561080Y+9570720D01*
X+3561080Y+9580880D02*
X+3561080Y+9601200D01*
X+3561080Y+9606280D02*
X+3561080Y+9626600D01*
X+3561080Y+9636760D02*
X+3561080Y+9667240D01*
X+3561080Y+9697720D02*
X+3561080Y+9733280D01*
X+3561080Y+9804400D02*
X+3561080Y+9839960D01*
X+3561080Y+9860280D02*
X+3561080Y+9895840D01*
X+3561080Y+9956800D02*
X+3561080Y+9992360D01*
X+3561080Y+10033000D02*
X+3561080Y+10068560D01*
X+3561080Y+10104120D02*
X+3561080Y+10139680D01*
X+3561080Y+10165080D02*
X+3561080Y+10236200D01*
X+3561080Y+10332720D02*
X+3561080Y+10368280D01*
X+3566160Y+9540240D02*
X+3566160Y+9570720D01*
X+3566160Y+9580880D02*
X+3566160Y+9626600D01*
X+3566160Y+9636760D02*
X+3566160Y+9667240D01*
X+3566160Y+9697720D02*
X+3566160Y+9733280D01*
X+3566160Y+9804400D02*
X+3566160Y+9839960D01*
X+3566160Y+9860280D02*
X+3566160Y+9895840D01*
X+3566160Y+9956800D02*
X+3566160Y+9992360D01*
X+3566160Y+10033000D02*
X+3566160Y+10068560D01*
X+3566160Y+10104120D02*
X+3566160Y+10139680D01*
X+3566160Y+10165080D02*
X+3566160Y+10200640D01*
X+3566160Y+10332720D02*
X+3566160Y+10368280D01*
X+3571240Y+9540240D02*
X+3571240Y+9570720D01*
X+3571240Y+9580880D02*
X+3571240Y+9626600D01*
X+3571240Y+9636760D02*
X+3571240Y+9667240D01*
X+3571240Y+9697720D02*
X+3571240Y+9733280D01*
X+3571240Y+9804400D02*
X+3571240Y+9839960D01*
X+3571240Y+9860280D02*
X+3571240Y+9895840D01*
X+3571240Y+9956800D02*
X+3571240Y+9992360D01*
X+3571240Y+10033000D02*
X+3571240Y+10068560D01*
X+3571240Y+10099040D02*
X+3571240Y+10139680D01*
X+3571240Y+10165080D02*
X+3571240Y+10200640D01*
X+3571240Y+10332720D02*
X+3571240Y+10368280D01*
X+3576320Y+9540240D02*
X+3576320Y+9570720D01*
X+3576320Y+9585960D02*
X+3576320Y+9621520D01*
X+3576320Y+9636760D02*
X+3576320Y+9667240D01*
X+3576320Y+9697720D02*
X+3576320Y+9733280D01*
X+3576320Y+9809480D02*
X+3576320Y+9839960D01*
X+3576320Y+9860280D02*
X+3576320Y+9890760D01*
X+3576320Y+9956800D02*
X+3576320Y+9992360D01*
X+3576320Y+10033000D02*
X+3576320Y+10068560D01*
X+3576320Y+10099040D02*
X+3576320Y+10134600D01*
X+3576320Y+10165080D02*
X+3576320Y+10200640D01*
X+3576320Y+10287000D02*
X+3576320Y+10312400D01*
X+3576320Y+10332720D02*
X+3576320Y+10368280D01*
X+3581400Y+9540240D02*
X+3581400Y+9570720D01*
X+3581400Y+9585960D02*
X+3581400Y+9621520D01*
X+3581400Y+9636760D02*
X+3581400Y+9667240D01*
X+3581400Y+9697720D02*
X+3581400Y+9784080D01*
X+3581400Y+9809480D02*
X+3581400Y+9845040D01*
X+3581400Y+9855200D02*
X+3581400Y+9890760D01*
X+3581400Y+9956800D02*
X+3581400Y+9992360D01*
X+3581400Y+10033000D02*
X+3581400Y+10068560D01*
X+3581400Y+10093960D02*
X+3581400Y+10134600D01*
X+3581400Y+10165080D02*
X+3581400Y+10200640D01*
X+3581400Y+10276840D02*
X+3581400Y+10312400D01*
X+3581400Y+10332720D02*
X+3581400Y+10363200D01*
X+3586480Y+9540240D02*
X+3586480Y+9570720D01*
X+3586480Y+9585960D02*
X+3586480Y+9621520D01*
X+3586480Y+9636760D02*
X+3586480Y+9667240D01*
X+3586480Y+9697720D02*
X+3586480Y+9784080D01*
X+3586480Y+9809480D02*
X+3586480Y+9845040D01*
X+3586480Y+9855200D02*
X+3586480Y+9890760D01*
X+3586480Y+9956800D02*
X+3586480Y+9992360D01*
X+3586480Y+10033000D02*
X+3586480Y+10129520D01*
X+3586480Y+10165080D02*
X+3586480Y+10200640D01*
X+3586480Y+10281920D02*
X+3586480Y+10317480D01*
X+3586480Y+10327640D02*
X+3586480Y+10363200D01*
X+3591560Y+9540240D02*
X+3591560Y+9570720D01*
X+3591560Y+9585960D02*
X+3591560Y+9621520D01*
X+3591560Y+9636760D02*
X+3591560Y+9667240D01*
X+3591560Y+9697720D02*
X+3591560Y+9784080D01*
X+3591560Y+9814560D02*
X+3591560Y+9885680D01*
X+3591560Y+9956800D02*
X+3591560Y+9992360D01*
X+3591560Y+10033000D02*
X+3591560Y+10129520D01*
X+3591560Y+10165080D02*
X+3591560Y+10200640D01*
X+3591560Y+10281920D02*
X+3591560Y+10363200D01*
X+3596640Y+9540240D02*
X+3596640Y+9570720D01*
X+3596640Y+9585960D02*
X+3596640Y+9621520D01*
X+3596640Y+9636760D02*
X+3596640Y+9667240D01*
X+3596640Y+9697720D02*
X+3596640Y+9784080D01*
X+3596640Y+9819640D02*
X+3596640Y+9885680D01*
X+3596640Y+9956800D02*
X+3596640Y+9992360D01*
X+3596640Y+10033000D02*
X+3596640Y+10124440D01*
X+3596640Y+10165080D02*
X+3596640Y+10200640D01*
X+3596640Y+10287000D02*
X+3596640Y+10358120D01*
X+3601720Y+9540240D02*
X+3601720Y+9570720D01*
X+3601720Y+9591040D02*
X+3601720Y+9616440D01*
X+3601720Y+9636760D02*
X+3601720Y+9667240D01*
X+3601720Y+9697720D02*
X+3601720Y+9784080D01*
X+3601720Y+9824720D02*
X+3601720Y+9875520D01*
X+3601720Y+9956800D02*
X+3601720Y+9992360D01*
X+3601720Y+10033000D02*
X+3601720Y+10119360D01*
X+3601720Y+10165080D02*
X+3601720Y+10200640D01*
X+3601720Y+10292080D02*
X+3601720Y+10353040D01*
X+3606800Y+9540240D02*
X+3606800Y+9570720D01*
X+3606800Y+9591040D02*
X+3606800Y+9616440D01*
X+3606800Y+9636760D02*
X+3606800Y+9667240D01*
X+3606800Y+9697720D02*
X+3606800Y+9784080D01*
X+3606800Y+9829800D02*
X+3606800Y+9865360D01*
X+3606800Y+9956800D02*
X+3606800Y+9992360D01*
X+3606800Y+10033000D02*
X+3606800Y+10104120D01*
X+3606800Y+10165080D02*
X+3606800Y+10200640D01*
X+3606800Y+10302240D02*
X+3606800Y+10342880D01*
D31*
X+2626360Y+10223500D02*
X+2534920Y+10223500D01*
X+2534920Y+10287000D01*
X+2565400Y+10318750D01*
X+2595880Y+10318750D01*
X+2626360Y+10287000D01*
X+2626360Y+10223500D01*
X+2626360Y+10350500D02*
X+2534920Y+10350500D01*
X+2534920Y+10429875D01*
X+2550160Y+10445750D01*
X+2565400Y+10445750D01*
X+2580640Y+10429875D01*
X+2580640Y+10350500D01*
X+2565400Y+10509250D02*
X+2534920Y+10541000D01*
X+2626360Y+10541000D01*
X+6004951Y+3155576D02*
X+1694428Y+7466099D01*
X+437192Y+6208863D01*
X+4747715Y+1898340D01*
X+6004951Y+3155576D01*
X+5555938Y+2706563D02*
X+5286530Y+2975971D01*
X+4927320Y+2616760D01*
X+5196728Y+2347353D01*
X+5555938Y+2706563D01*
X+2143441Y+6478271D02*
X+1425021Y+7196691D01*
X+706600Y+6478271D01*
X+1425021Y+5759851D01*
X+2143441Y+6478271D01*
X+3885611Y+3909917D02*
X+3777848Y+4017680D01*
X+3831729Y+3963798D02*
X+3939492Y+4071562D01*
X+3813769Y+4125443D02*
X+3706006Y+4233206D01*
X+3688045Y+4215246D01*
X+3688045Y+4179324D01*
X+3759887Y+4107482D01*
X+3795808Y+4107482D01*
X+3831729Y+4143403D01*
X+3831729Y+4179324D01*
X+3759887Y+4251167D01*
X+3670085Y+4269127D02*
X+3562322Y+4376890D01*
X+3544361Y+4358930D01*
X+3544361Y+4323008D01*
X+3616203Y+4251166D01*
X+3652124Y+4251166D01*
X+3688045Y+4287087D01*
X+3688045Y+4323008D01*
X+3616203Y+4394851D01*
X+3562322Y+4448732D02*
X+3490480Y+4376890D01*
X+3508440Y+4394850D02*
X+3472519Y+4394850D01*
X+3400677Y+4466692D01*
X+3400677Y+4502614D01*
X+3454559Y+4556495D01*
X+3256993Y+4610376D02*
X+3328835Y+4538534D01*
X+3364756Y+4538534D01*
X+3364756Y+4574455D01*
X+3292914Y+4646298D01*
X+3292914Y+4682219D01*
X+3328835Y+4682219D01*
X+3418638Y+4592416D01*
X+3203112Y+4664258D02*
X+3239033Y+4700179D01*
X+3239033Y+4736100D01*
X+3167191Y+4807942D01*
X+3131270Y+4807942D01*
X+3095349Y+4772021D02*
X+3167191Y+4843863D01*
X+3203112Y+4843863D01*
X+3292914Y+4754060D01*
X+2843901Y+5095311D02*
X+2951664Y+4987548D01*
X+2807980Y+4987548D01*
X+2915743Y+5095311D01*
X+2772059Y+5203074D02*
X+2754098Y+5221035D01*
X+2772059Y+5238995D01*
X+2790019Y+5221035D01*
X+2772059Y+5203074D01*
X+2592454Y+5274916D02*
X+2520612Y+5274916D01*
X+2628375Y+5382679D01*
X+3883239Y+2690524D02*
X+2446398Y+4127365D01*
X+1907583Y+3588550D01*
X+3344424Y+2151709D01*
X+3883239Y+2690524D01*
X+3057953Y+2359152D02*
X+3079955Y+2358703D01*
X+3113631Y+2325027D01*
X+3114529Y+2281024D01*
X+3092976Y+2259471D01*
X+3048973Y+2260369D01*
X+3015297Y+2294045D01*
X+3014848Y+2316047D01*
X+3046278Y+2392379D02*
X+2981621Y+2327722D01*
X+2914269Y+2395073D02*
X+2978926Y+2459731D01*
X+3013949Y+2360050D02*
X+2946598Y+2427402D01*
X+2956476Y+2482181D02*
X+2913371Y+2439076D01*
X+2869368Y+2439974D01*
X+2846917Y+2462425D01*
X+2846019Y+2506428D01*
X+2889124Y+2549533D01*
X+2934924Y+2460629D02*
X+2867572Y+2527981D01*
X+2866673Y+2571984D02*
X+2802016Y+2507327D01*
X+2799321Y+2639336D01*
X+2734664Y+2574678D01*
X+2776871Y+2661786D02*
X+2712214Y+2597129D01*
X+2709519Y+2729138D01*
X+2644862Y+2664480D01*
X+2619716Y+2818941D02*
X+2687068Y+2751589D01*
X+2622411Y+2686932D01*
X+2555059Y+2754283D01*
X+2654739Y+2719260D02*
X+2609838Y+2764162D01*
X+2532609Y+2776734D02*
X+2597266Y+2841391D01*
X+2529914Y+2908743D01*
X+2496687Y+2920418D02*
X+2496238Y+2942420D01*
X+2451337Y+2987321D01*
X+2429335Y+2987770D01*
X+2418559Y+2976994D01*
X+2419008Y+2954992D01*
X+2463909Y+2910091D01*
X+2464358Y+2888089D01*
X+2453582Y+2877313D01*
X+2431580Y+2877762D01*
X+2386679Y+2922663D01*
X+2386230Y+2944665D01*
X+2262303Y+3090145D02*
X+2218299Y+3091043D01*
X+2282957Y+3155701D01*
X+2194501Y+3179499D02*
X+2138375Y+3235625D01*
X+2093474Y+3280526D02*
X+2093923Y+3258524D01*
X+2083147Y+3247748D01*
X+2061145Y+3248197D01*
X+2027469Y+3281873D01*
X+2027020Y+3303875D01*
X+2037796Y+3314651D01*
X+2059798Y+3314202D01*
X+2093474Y+3280526D01*
X+2115475Y+3280077D01*
X+2126252Y+3290853D01*
X+2125803Y+3312855D01*
X+2092127Y+3346531D01*
X+2070125Y+3346980D01*
X+2059349Y+3336204D01*
X+2059798Y+3314202D01*
X+1991004Y+4517396D02*
X+554163Y+5954237D01*
X+15348Y+5415422D01*
X+1452189Y+3978581D01*
X+1991004Y+4517396D01*
X+864881Y+4379101D02*
X+797529Y+4446452D01*
X+831205Y+4412777D02*
X+895862Y+4477434D01*
X+839735Y+4533561D02*
X+775078Y+4468904D01*
X+718951Y+4525030D01*
X+718502Y+4547032D01*
X+729278Y+4557808D01*
X+751280Y+4557359D01*
X+807406Y+4501232D01*
X+751280Y+4557359D02*
X+750831Y+4579361D01*
X+772383Y+4600913D01*
X+674050Y+4569931D02*
X+629149Y+4614832D01*
X+651600Y+4592382D02*
X+716257Y+4657039D01*
X+738708Y+4634589D02*
X+693807Y+4679490D01*
X+660130Y+4713166D02*
X+595473Y+4648509D01*
X+594126Y+4714513D01*
X+528121Y+4715860D01*
X+592778Y+4780518D01*
X+559552Y+4792192D02*
X+559103Y+4814194D01*
X+514202Y+4859095D01*
X+492200Y+4859544D01*
X+481424Y+4848768D01*
X+481873Y+4826766D01*
X+526774Y+4781865D01*
X+527223Y+4759863D01*
X+516447Y+4749087D01*
X+494445Y+4749536D01*
X+449544Y+4794437D01*
X+449095Y+4816439D01*
X+2059406Y+7158535D02*
X+3496247Y+5721694D01*
X+4035062Y+6260509D01*
X+2598221Y+7697350D01*
X+2059406Y+7158535D01*
X+3926400Y+6555960D02*
X+3993752Y+6488608D01*
X+3929095Y+6423951D01*
X+3861743Y+6491302D01*
X+3961423Y+6456279D02*
X+3916522Y+6501181D01*
X+3903949Y+6578411D02*
X+3839292Y+6513754D01*
X+3794390Y+6558655D01*
X+3793492Y+6602658D01*
X+3815045Y+6624211D01*
X+3859048Y+6623313D01*
X+3903949Y+6578411D01*
X+3747693Y+6691562D02*
X+3725243Y+6714013D01*
X+3746795Y+6735565D01*
X+3791697Y+6690664D01*
X+3792595Y+6646661D01*
X+3771042Y+6625108D01*
X+3727039Y+6626006D01*
X+3693363Y+6659682D01*
X+3692914Y+6681684D01*
X+3656992Y+6825368D02*
X+3724344Y+6758016D01*
X+3659687Y+6693359D01*
X+3592335Y+6760710D01*
X+3692015Y+6725687D02*
X+3647114Y+6770589D01*
X+3533963Y+6926845D02*
X+3533514Y+6948847D01*
X+3488613Y+6993748D01*
X+3466611Y+6994197D01*
X+3455835Y+6983421D01*
X+3456284Y+6961419D01*
X+3501185Y+6916518D01*
X+3501634Y+6894516D01*
X+3490858Y+6883740D01*
X+3468856Y+6884189D01*
X+3423955Y+6929090D01*
X+3423506Y+6951092D01*
X+3390280Y+6962766D02*
X+3454937Y+7027423D01*
X+3388933Y+7028770D01*
X+3387585Y+7094775D01*
X+3322928Y+7030117D01*
X+3289251Y+7063794D02*
X+3244350Y+7108695D01*
X+3266801Y+7086245D02*
X+3331458Y+7150902D01*
X+3353909Y+7128452D02*
X+3309008Y+7173353D01*
X+3210675Y+7142371D02*
X+3143323Y+7209722D01*
X+3176999Y+7176047D02*
X+3241656Y+7240704D01*
X+3107401Y+7353407D02*
X+3129403Y+7352958D01*
X+3163079Y+7319282D01*
X+3163977Y+7275279D01*
X+3142424Y+7253726D01*
X+3098421Y+7254624D01*
X+3064745Y+7288300D01*
X+3064296Y+7310302D01*
X+3095726Y+7386634D02*
X+3031069Y+7321977D01*
X+2963717Y+7389328D02*
X+3028374Y+7453986D01*
X+3063397Y+7354305D02*
X+2996046Y+7421657D01*
X+2938572Y+7543788D02*
X+3005924Y+7476436D01*
X+2941267Y+7411779D01*
X+2873915Y+7479130D01*
X+2973595Y+7444107D02*
X+2928694Y+7489009D01*
X+2905345Y+7555463D02*
X+2904896Y+7577465D01*
X+2859995Y+7622366D01*
X+2837993Y+7622815D01*
X+2827217Y+7612039D01*
X+2827666Y+7590037D01*
X+2872567Y+7545136D01*
X+2873016Y+7523134D01*
X+2862240Y+7512358D01*
X+2840238Y+7512807D01*
X+2795337Y+7557708D01*
X+2794888Y+7579710D01*
D33*
X+1231673Y+7542312D02*
X+1231630Y+7543351D01*
X+1231278Y+7545430D01*
X+1230541Y+7547509D01*
X+1229337Y+7549588D01*
X+1227496Y+7551638D01*
X+1225417Y+7553141D01*
X+1223338Y+7554098D01*
X+1221259Y+7554637D01*
X+1219180Y+7554812D01*
X+1219173Y+7554812D01*
X+1206673Y+7542312D02*
X+1206716Y+7543351D01*
X+1207068Y+7545430D01*
X+1207805Y+7547509D01*
X+1209009Y+7549588D01*
X+1210850Y+7551638D01*
X+1212929Y+7553141D01*
X+1215008Y+7554098D01*
X+1217087Y+7554637D01*
X+1219166Y+7554812D01*
X+1219173Y+7554812D01*
X+1206673Y+7542312D02*
X+1206716Y+7541273D01*
X+1207068Y+7539194D01*
X+1207805Y+7537115D01*
X+1209009Y+7535036D01*
X+1210850Y+7532986D01*
X+1212929Y+7531483D01*
X+1215008Y+7530526D01*
X+1217087Y+7529987D01*
X+1219166Y+7529812D01*
X+1219173Y+7529812D01*
X+1231673Y+7542312D02*
X+1231630Y+7541273D01*
X+1231278Y+7539194D01*
X+1230541Y+7537115D01*
X+1229337Y+7535036D01*
X+1227496Y+7532986D01*
X+1225417Y+7531483D01*
X+1223338Y+7530526D01*
X+1221259Y+7529987D01*
X+1219180Y+7529812D01*
X+1219173Y+7529812D01*
D34*
X-27103Y+7568828D02*
X+326451Y+7922382D01*
X+1061842Y+7186991D01*
X+708288Y+6833437D01*
D31*
X+5036820Y+8244840D02*
X+5290820Y+8244840D01*
X+5290820Y+9006840D01*
X+5036820Y+9006840D01*
X+5036820Y+8244840D01*
X+4909820Y+8244840D01*
X+4909820Y+9006840D01*
X+5036820Y+9006840D01*
X+5036820Y+8244840D02*
X+4909820Y+8371840D01*
X+5036820Y+8371840D02*
X+4909820Y+8498840D01*
X+5036820Y+8498840D02*
X+4909820Y+8625840D01*
X+5036820Y+8625840D02*
X+4909820Y+8752840D01*
X+5036820Y+8752840D02*
X+4909820Y+8879840D01*
X+5036820Y+8879840D02*
X+4909820Y+9006840D01*
X+4777740Y+8387715D02*
X+4777740Y+8467090D01*
X+4792980Y+8467090D01*
X+4869180Y+8387715D01*
X+4823460Y+8530590D02*
X+4808220Y+8514715D01*
X+4792980Y+8514715D01*
X+4777740Y+8530590D01*
X+4777740Y+8578215D01*
X+4792980Y+8594090D01*
X+4808220Y+8594090D01*
X+4823460Y+8578215D01*
X+4823460Y+8530590D01*
X+4838700Y+8514715D01*
X+4853940Y+8514715D01*
X+4869180Y+8530590D01*
X+4869180Y+8578215D01*
X+4853940Y+8594090D01*
X+4838700Y+8594090D01*
X+4823460Y+8578215D01*
X+4853940Y+8625840D02*
X+4792980Y+8625840D01*
X+4777740Y+8641715D01*
X+4777740Y+8705215D01*
X+4792980Y+8721090D01*
X+4853940Y+8721090D01*
X+4869180Y+8705215D01*
X+4869180Y+8641715D01*
X+4853940Y+8625840D01*
X+4869180Y+8625840D02*
X+4777740Y+8721090D01*
X+4777740Y+8848090D02*
X+4777740Y+8768715D01*
X+4808220Y+8768715D01*
X+4808220Y+8832215D01*
X+4823460Y+8848090D01*
X+4853940Y+8848090D01*
X+4869180Y+8832215D01*
X+4869180Y+8784590D01*
X+4853940Y+8768715D01*
X+6134100Y+8237220D02*
X+6388100Y+8237220D01*
X+6388100Y+8999220D01*
X+6134100Y+8999220D01*
X+6134100Y+8237220D01*
X+6007100Y+8237220D01*
X+6007100Y+8999220D01*
X+6134100Y+8999220D01*
X+6134100Y+8237220D02*
X+6007100Y+8364220D01*
X+6134100Y+8364220D02*
X+6007100Y+8491220D01*
X+6134100Y+8491220D02*
X+6007100Y+8618220D01*
X+6134100Y+8618220D02*
X+6007100Y+8745220D01*
X+6134100Y+8745220D02*
X+6007100Y+8872220D01*
X+6134100Y+8872220D02*
X+6007100Y+8999220D01*
X+5953760Y+8194040D02*
X+5862320Y+8194040D01*
X+5953760Y+8289290D01*
X+5862320Y+8289290D01*
X+5953760Y+8416290D02*
X+5953760Y+8321040D01*
X+5862320Y+8321040D01*
X+5862320Y+8416290D01*
X+5908040Y+8321040D02*
X+5908040Y+8384540D01*
X+5862320Y+8448040D02*
X+5953760Y+8543290D01*
X+5953760Y+8448040D02*
X+5862320Y+8543290D01*
X+5862320Y+8575040D02*
X+5862320Y+8670290D01*
X+5862320Y+8622665D02*
X+5953760Y+8622665D01*
X+5862320Y+8717915D02*
X+5862320Y+8781415D01*
X+5862320Y+8749665D02*
X+5953760Y+8749665D01*
X+5953760Y+8717915D02*
X+5953760Y+8781415D01*
X+5892800Y+8829040D02*
X+5862320Y+8860790D01*
X+5862320Y+8892540D01*
X+5892800Y+8924290D01*
X+5923280Y+8924290D01*
X+5953760Y+8892540D01*
X+5953760Y+8860790D01*
X+5923280Y+8829040D01*
X+5892800Y+8829040D01*
X+5953760Y+8956040D02*
X+5862320Y+8956040D01*
X+5953760Y+9051290D01*
X+5862320Y+9051290D01*
X-317518Y+3076108D02*
X-63518Y+3076108D01*
X-63518Y+3838108D01*
X-317518Y+3838108D01*
X-317518Y+3076108D01*
X+99042Y+3203108D02*
X-22878Y+3203108D01*
X-22878Y+3298358D01*
X-2558Y+3317408D01*
X+17762Y+3317408D01*
X+38082Y+3298358D01*
X+38082Y+3203108D01*
X-22878Y+3355508D02*
X+99042Y+3355508D01*
X+38082Y+3412658D01*
X+99042Y+3469808D01*
X-22878Y+3469808D01*
X+99042Y+3507908D02*
X-22878Y+3507908D01*
X-22878Y+3603158D01*
X-2558Y+3622208D01*
X+17762Y+3622208D01*
X+38082Y+3603158D01*
X+38082Y+3507908D01*
X+38082Y+3603158D02*
X+58402Y+3622208D01*
X+99042Y+3622208D01*
X-358158Y+3124367D02*
X-449598Y+3124367D01*
X-449598Y+3203742D01*
X-434358Y+3219617D01*
X-419118Y+3219617D01*
X-403878Y+3203742D01*
X-388638Y+3219617D01*
X-373398Y+3219617D01*
X-358158Y+3203742D01*
X-358158Y+3124367D01*
X-403878Y+3124367D02*
X-403878Y+3203742D01*
X-449598Y+3251367D02*
X-373398Y+3251367D01*
X-358158Y+3267242D01*
X-358158Y+3330742D01*
X-373398Y+3346617D01*
X-449598Y+3346617D01*
X-358158Y+3378367D02*
X-449598Y+3378367D01*
X-449598Y+3441867D01*
X-419118Y+3473617D01*
X-388638Y+3473617D01*
X-358158Y+3441867D01*
X-358158Y+3378367D01*
X-358158Y+3505367D02*
X-449598Y+3505367D01*
X-449598Y+3568867D01*
X-419118Y+3600617D01*
X-388638Y+3600617D01*
X-358158Y+3568867D01*
X-358158Y+3505367D01*
X-449598Y+3727617D02*
X-358158Y+3632367D01*
X-449598Y+3632367D02*
X-403878Y+3679992D01*
X+5053530Y+4340125D02*
X+5771950Y+3621705D01*
X+5951556Y+3801310D01*
X+5233135Y+4519730D01*
X+5053530Y+4340125D01*
X+4938583Y+4225178D02*
X+5024793Y+4311388D01*
X+5092145Y+4244036D01*
X+5091247Y+4216198D01*
X+5076879Y+4201829D01*
X+5049040Y+4200931D01*
X+4981688Y+4268283D01*
X+5049040Y+4200931D02*
X+5048142Y+4173092D01*
X+5019405Y+4144356D01*
X+5128964Y+4092270D02*
X+5155905Y+4065329D01*
X+5127168Y+4036593D01*
X+5073287Y+4090474D01*
X+5075083Y+4146152D01*
X+5103819Y+4174888D01*
X+5159497Y+4176685D01*
X+5199908Y+4136273D01*
X+5199010Y+4108435D01*
X+5154109Y+4009652D02*
X+5240319Y+4095862D01*
X+5307671Y+4028510D01*
X+5306773Y+4000672D01*
X+5292405Y+3986303D01*
X+5264566Y+3985405D01*
X+5263668Y+3957566D01*
X+5249300Y+3943198D01*
X+5221461Y+3942300D01*
X+5154109Y+4009652D01*
X+5197214Y+4052757D02*
X+5264566Y+3985405D01*
X+5455845Y+3880336D02*
X+5369635Y+3794126D01*
X+5450457Y+3713304D01*
X+5558220Y+3605541D02*
X+5477398Y+3686363D01*
X+5563608Y+3772573D01*
X+5644431Y+3691751D01*
X+5520503Y+3729468D02*
X+5574385Y+3675587D01*
X+5585161Y+3578600D02*
X+5671371Y+3664810D01*
X+5725253Y+3610929D01*
X+5723457Y+3555251D01*
X+5694720Y+3526514D01*
X+5639042Y+3524718D01*
X+5585161Y+3578600D01*
X+5417098Y+140434D02*
X+6179098Y+140434D01*
X+6179098Y+394434D01*
X+5417098Y+394434D01*
X+5417098Y+140434D01*
X+5544098Y-22126D02*
X+5544098Y+99794D01*
X+5639348Y+99794D01*
X+5658398Y+79474D01*
X+5658398Y+59154D01*
X+5639348Y+38834D01*
X+5544098Y+38834D01*
X+5696498Y+99794D02*
X+5696498Y-22126D01*
X+5753648Y+38834D01*
X+5810798Y-22126D01*
X+5810798Y+99794D01*
X+5848898Y-22126D02*
X+5848898Y+99794D01*
X+5944148Y+99794D01*
X+5963198Y+79474D01*
X+5963198Y+59154D01*
X+5944148Y+38834D01*
X+5848898Y+38834D01*
X+5944148Y+38834D02*
X+5963198Y+18514D01*
X+5963198Y-22126D01*
X+5400294Y+478180D02*
X+5400294Y+569620D01*
X+5479669Y+569620D01*
X+5495544Y+554380D01*
X+5495544Y+539140D01*
X+5479669Y+523900D01*
X+5495544Y+508660D01*
X+5495544Y+493420D01*
X+5479669Y+478180D01*
X+5400294Y+478180D01*
X+5400294Y+523900D02*
X+5479669Y+523900D01*
X+5527294Y+478180D02*
X+5527294Y+539140D01*
X+5559044Y+569620D01*
X+5590794Y+569620D01*
X+5622544Y+539140D01*
X+5622544Y+478180D01*
X+5527294Y+508660D02*
X+5622544Y+508660D01*
X+5654294Y+569620D02*
X+5749544Y+569620D01*
X+5701919Y+569620D02*
X+5701919Y+478180D01*
X+5781294Y+569620D02*
X+5876544Y+569620D01*
X+5828919Y+569620D02*
X+5828919Y+478180D01*
X+6003544Y+478180D02*
X+5908294Y+478180D01*
X+5908294Y+569620D01*
X+6003544Y+569620D01*
X+5908294Y+523900D02*
X+5971794Y+523900D01*
X+6035294Y+478180D02*
X+6035294Y+569620D01*
X+6114669Y+569620D01*
X+6130544Y+554380D01*
X+6130544Y+539140D01*
X+6114669Y+523900D01*
X+6035294Y+523900D01*
X+6114669Y+523900D02*
X+6130544Y+508660D01*
X+6130544Y+478180D01*
X+6257544Y+569620D02*
X+6162294Y+478180D01*
X+6162294Y+569620D02*
X+6209919Y+523900D01*
X+3334986Y-41234D02*
X+5112986Y-41234D01*
X+5112986Y+1482766D01*
X+3334986Y+1482766D01*
X+3334986Y-41234D01*
X+3747736Y+771566D02*
X+3779486Y+796966D01*
X+3874736Y+796966D01*
X+3906486Y+771566D01*
X+3906486Y+746166D01*
X+3874736Y+720766D01*
X+3779486Y+720766D01*
X+3747736Y+695366D01*
X+3747736Y+644566D01*
X+3906486Y+644566D01*
X+4033486Y+720766D02*
X+4001736Y+746166D01*
X+4001736Y+771566D01*
X+4033486Y+796966D01*
X+4128736Y+796966D01*
X+4160486Y+771566D01*
X+4160486Y+746166D01*
X+4128736Y+720766D01*
X+4033486Y+720766D01*
X+4001736Y+695366D01*
X+4001736Y+669966D01*
X+4033486Y+644566D01*
X+4128736Y+644566D01*
X+4160486Y+669966D01*
X+4160486Y+695366D01*
X+4128736Y+720766D01*
X+4223986Y+669966D02*
X+4223986Y+771566D01*
X+4255736Y+796966D01*
X+4382736Y+796966D01*
X+4414486Y+771566D01*
X+4414486Y+669966D01*
X+4382736Y+644566D01*
X+4255736Y+644566D01*
X+4223986Y+669966D01*
X+4223986Y+644566D02*
X+4414486Y+796966D01*
X+4541486Y+720766D02*
X+4509736Y+746166D01*
X+4509736Y+771566D01*
X+4541486Y+796966D01*
X+4636736Y+796966D01*
X+4668486Y+771566D01*
X+4668486Y+746166D01*
X+4636736Y+720766D01*
X+4541486Y+720766D01*
X+4509736Y+695366D01*
X+4509736Y+669966D01*
X+4541486Y+644566D01*
X+4636736Y+644566D01*
X+4668486Y+669966D01*
X+4668486Y+695366D01*
X+4636736Y+720766D01*
X+196937Y-17432D02*
X+1974937Y-17432D01*
X+1974937Y+1633568D01*
X+196937Y+1633568D01*
X+196937Y-17432D01*
X+999577Y+261968D02*
X+999577Y+363568D01*
X+999577Y+312768D02*
X+1121497Y+312768D01*
X+1121497Y+261968D02*
X+1121497Y+363568D01*
X+1121497Y+439768D02*
X+999577Y+439768D01*
X+1121497Y+592168D01*
X+999577Y+592168D01*
X+1121497Y+642968D02*
X+1040217Y+642968D01*
X+999577Y+693768D01*
X+999577Y+744568D01*
X+1040217Y+795368D01*
X+1121497Y+795368D01*
X+1080857Y+642968D02*
X+1080857Y+795368D01*
X+1019897Y+871568D02*
X+999577Y+896968D01*
X+999577Y+973168D01*
X+1019897Y+998568D01*
X+1040217Y+998568D01*
X+1060537Y+973168D01*
X+1060537Y+896968D01*
X+1080857Y+871568D01*
X+1121497Y+871568D01*
X+1121497Y+998568D01*
X+1040217Y+1100168D02*
X+999577Y+1150968D01*
X+1121497Y+1150968D01*
X+1040217Y+1404968D02*
X+1060537Y+1379568D01*
X+1060537Y+1303368D01*
X+1040217Y+1277968D01*
X+1019897Y+1277968D01*
X+999577Y+1303368D01*
X+999577Y+1379568D01*
X+1019897Y+1404968D01*
X+1101177Y+1404968D01*
X+1121497Y+1379568D01*
X+1121497Y+1303368D01*
X+4958476Y+5259010D02*
X+7625476Y+5259010D01*
X+7625476Y+7926010D01*
X+4958476Y+7926010D01*
X+4958476Y+5259010D01*
X+5466476Y+6986210D02*
X+5618876Y+6986210D01*
X+5542676Y+6986210D02*
X+5542676Y+6833810D01*
X+5695076Y+6986210D02*
X+5796676Y+6986210D01*
X+5745876Y+6986210D02*
X+5745876Y+6833810D01*
X+5695076Y+6833810D02*
X+5796676Y+6833810D01*
X+5872876Y+6833810D02*
X+5872876Y+6986210D01*
X+6025276Y+6833810D01*
X+6025276Y+6986210D01*
X+6228476Y+6986210D02*
X+6076076Y+6833810D01*
X+6076076Y+6986210D02*
X+6152276Y+6910010D01*
X+6482476Y+6833810D02*
X+6482476Y+6986210D01*
X+6609476Y+6986210D01*
X+6634876Y+6960810D01*
X+6634876Y+6935410D01*
X+6609476Y+6910010D01*
X+6482476Y+6910010D01*
X+6609476Y+6910010D02*
X+6634876Y+6884610D01*
X+6634876Y+6833810D01*
X+6685676Y+6986210D02*
X+6838076Y+6986210D01*
X+6761876Y+6986210D02*
X+6761876Y+6833810D01*
X+7041276Y+6859210D02*
X+7015876Y+6833810D01*
X+6939676Y+6833810D01*
X+6888876Y+6884610D01*
X+6888876Y+6935410D01*
X+6939676Y+6986210D01*
X+7015876Y+6986210D01*
X+7041276Y+6960810D01*
X+5720476Y+6198810D02*
X+5720476Y+6351210D01*
X+5822076Y+6351210D01*
X+5872876Y+6300410D01*
X+5872876Y+6249610D01*
X+5822076Y+6198810D01*
X+5720476Y+6198810D01*
X+5923676Y+6224210D02*
X+5949076Y+6198810D01*
X+6050676Y+6198810D01*
X+6076076Y+6224210D01*
X+6076076Y+6249610D01*
X+6050676Y+6275010D01*
X+5949076Y+6275010D01*
X+5923676Y+6300410D01*
X+5923676Y+6325810D01*
X+5949076Y+6351210D01*
X+6050676Y+6351210D01*
X+6076076Y+6325810D01*
X+6177676Y+6300410D02*
X+6228476Y+6351210D01*
X+6228476Y+6198810D01*
X+6355476Y+6325810D02*
X+6380876Y+6351210D01*
X+6457076Y+6351210D01*
X+6482476Y+6325810D01*
X+6482476Y+6300410D01*
X+6457076Y+6275010D01*
X+6482476Y+6249610D01*
X+6482476Y+6224210D01*
X+6457076Y+6198810D01*
X+6380876Y+6198810D01*
X+6355476Y+6224210D01*
X+6406276Y+6275010D02*
X+6457076Y+6275010D01*
X+6533276Y+6224210D02*
X+6533276Y+6325810D01*
X+6558676Y+6351210D01*
X+6660276Y+6351210D01*
X+6685676Y+6325810D01*
X+6685676Y+6224210D01*
X+6660276Y+6198810D01*
X+6558676Y+6198810D01*
X+6533276Y+6224210D01*
X+6533276Y+6198810D02*
X+6685676Y+6351210D01*
X+6761876Y+6351210D02*
X+6888876Y+6351210D01*
X+6888876Y+6325810D01*
X+6761876Y+6198810D01*
X+7353300Y+3868420D02*
X+7607300Y+3868420D01*
X+7607300Y+5138420D01*
X+7353300Y+5138420D01*
X+7353300Y+3868420D01*
X+7769860Y+3995420D02*
X+7647940Y+3995420D01*
X+7769860Y+4109720D01*
X+7647940Y+4109720D01*
X+7729220Y+4147820D02*
X+7729220Y+4262120D01*
X+7708900Y+4262120D01*
X+7688580Y+4243070D01*
X+7688580Y+4166870D01*
X+7708900Y+4147820D01*
X+7749540Y+4147820D01*
X+7769860Y+4166870D01*
X+7769860Y+4243070D01*
X+7688580Y+4300220D02*
X+7769860Y+4414520D01*
X+7769860Y+4300220D02*
X+7688580Y+4414520D01*
X+7647940Y+4471670D02*
X+7749540Y+4471670D01*
X+7769860Y+4490720D01*
X+7769860Y+4547870D01*
X+7749540Y+4566920D01*
X+7688580Y+4452620D02*
X+7688580Y+4547870D01*
X+7688580Y+4662170D02*
X+7769860Y+4662170D01*
X+7647940Y+4662170D02*
X+7647940Y+4662170D01*
X+7708900Y+4757420D02*
X+7688580Y+4776470D01*
X+7688580Y+4852670D01*
X+7708900Y+4871720D01*
X+7749540Y+4871720D01*
X+7769860Y+4852670D01*
X+7769860Y+4776470D01*
X+7749540Y+4757420D01*
X+7708900Y+4757420D01*
X+7769860Y+4909820D02*
X+7688580Y+4909820D01*
X+7708900Y+4909820D02*
X+7688580Y+4928870D01*
X+7688580Y+5005070D01*
X+7708900Y+5024120D01*
X+7769860Y+5024120D01*
X+7312660Y+4058920D02*
X+7221220Y+4058920D01*
X+7312660Y+4154170D01*
X+7221220Y+4154170D01*
X+7312660Y+4281170D02*
X+7312660Y+4185920D01*
X+7221220Y+4185920D01*
X+7221220Y+4281170D01*
X+7266940Y+4185920D02*
X+7266940Y+4249420D01*
X+7221220Y+4312920D02*
X+7312660Y+4408170D01*
X+7312660Y+4312920D02*
X+7221220Y+4408170D01*
X+7221220Y+4439920D02*
X+7221220Y+4535170D01*
X+7221220Y+4487545D02*
X+7312660Y+4487545D01*
X+7221220Y+4582795D02*
X+7221220Y+4646295D01*
X+7221220Y+4614545D02*
X+7312660Y+4614545D01*
X+7312660Y+4582795D02*
X+7312660Y+4646295D01*
X+7251700Y+4693920D02*
X+7221220Y+4725670D01*
X+7221220Y+4757420D01*
X+7251700Y+4789170D01*
X+7282180Y+4789170D01*
X+7312660Y+4757420D01*
X+7312660Y+4725670D01*
X+7282180Y+4693920D01*
X+7251700Y+4693920D01*
X+7312660Y+4820920D02*
X+7221220Y+4820920D01*
X+7312660Y+4916170D01*
X+7221220Y+4916170D01*
X+7386320Y+2278380D02*
X+7640320Y+2278380D01*
X+7640320Y+2786380D01*
X+7386320Y+2786380D01*
X+7386320Y+2278380D01*
X+7345680Y+2151380D02*
X+7254240Y+2151380D01*
X+7254240Y+2230755D01*
X+7269480Y+2246630D01*
X+7284720Y+2246630D01*
X+7299960Y+2230755D01*
X+7315200Y+2246630D01*
X+7330440Y+2246630D01*
X+7345680Y+2230755D01*
X+7345680Y+2151380D01*
X+7299960Y+2151380D02*
X+7299960Y+2230755D01*
X+7254240Y+2278380D02*
X+7330440Y+2278380D01*
X+7345680Y+2294255D01*
X+7345680Y+2357755D01*
X+7330440Y+2373630D01*
X+7254240Y+2373630D01*
X+7254240Y+2405380D02*
X+7254240Y+2500630D01*
X+7254240Y+2453005D02*
X+7345680Y+2453005D01*
X+7254240Y+2532380D02*
X+7254240Y+2627630D01*
X+7254240Y+2580005D02*
X+7345680Y+2580005D01*
X+7284720Y+2659380D02*
X+7254240Y+2691130D01*
X+7254240Y+2722880D01*
X+7284720Y+2754630D01*
X+7315200Y+2754630D01*
X+7345680Y+2722880D01*
X+7345680Y+2691130D01*
X+7315200Y+2659380D01*
X+7284720Y+2659380D01*
X+7345680Y+2786380D02*
X+7254240Y+2786380D01*
X+7345680Y+2881630D01*
X+7254240Y+2881630D01*
D33*
X+2410804Y+8861278D02*
X+2410761Y+8862317D01*
X+2410409Y+8864396D01*
X+2409672Y+8866475D01*
X+2408468Y+8868554D01*
X+2406627Y+8870604D01*
X+2404548Y+8872107D01*
X+2402469Y+8873064D01*
X+2400390Y+8873603D01*
X+2398311Y+8873778D01*
X+2398304Y+8873778D01*
X+2385804Y+8861278D02*
X+2385847Y+8862317D01*
X+2386199Y+8864396D01*
X+2386936Y+8866475D01*
X+2388140Y+8868554D01*
X+2389981Y+8870604D01*
X+2392060Y+8872107D01*
X+2394139Y+8873064D01*
X+2396218Y+8873603D01*
X+2398297Y+8873778D01*
X+2398304Y+8873778D01*
X+2385804Y+8861278D02*
X+2385847Y+8860239D01*
X+2386199Y+8858160D01*
X+2386936Y+8856081D01*
X+2388140Y+8854002D01*
X+2389981Y+8851952D01*
X+2392060Y+8850449D01*
X+2394139Y+8849492D01*
X+2396218Y+8848953D01*
X+2398297Y+8848778D01*
X+2398304Y+8848778D01*
X+2410804Y+8861278D02*
X+2410761Y+8860239D01*
X+2410409Y+8858160D01*
X+2409672Y+8856081D01*
X+2408468Y+8854002D01*
X+2406627Y+8851952D01*
X+2404548Y+8850449D01*
X+2402469Y+8849492D01*
X+2400390Y+8848953D01*
X+2398311Y+8848778D01*
X+2398304Y+8848778D01*
D34*
X+2380804Y+8796278D02*
X+2380804Y+8426278D01*
X+2075804Y+8796278D02*
X+2075804Y+8426278D01*
D31*
X+2514743Y+8458778D02*
X+2514743Y+8363528D01*
X+2453783Y+8427028D01*
X+2545223Y+8427028D01*
X+2453783Y+8506403D02*
X+2453783Y+8585778D01*
X+2469023Y+8585778D01*
X+2545223Y+8506403D01*
X+2453783Y+8617528D02*
X+2529983Y+8617528D01*
X+2545223Y+8633403D01*
X+2545223Y+8696903D01*
X+2529983Y+8712778D01*
X+2453783Y+8712778D01*
X+2545223Y+8744528D02*
X+2453783Y+8744528D01*
X+2453783Y+8839778D01*
X+2499503Y+8744528D02*
X+2499503Y+8808028D01*
D34*
X+2927467Y+8568972D02*
X+2927467Y+8678972D01*
X+2747467Y+8568972D02*
X+2747467Y+8678972D01*
D31*
X+2646026Y+8338222D02*
X+2615546Y+8369972D01*
X+2706986Y+8369972D01*
X+2691746Y+8433472D02*
X+2630786Y+8433472D01*
X+2615546Y+8449347D01*
X+2615546Y+8512847D01*
X+2630786Y+8528722D01*
X+2691746Y+8528722D01*
X+2706986Y+8512847D01*
X+2706986Y+8449347D01*
X+2691746Y+8433472D01*
X+2706986Y+8433472D02*
X+2615546Y+8528722D01*
X+2691746Y+8560472D02*
X+2630786Y+8560472D01*
X+2615546Y+8576347D01*
X+2615546Y+8639847D01*
X+2630786Y+8655722D01*
X+2691746Y+8655722D01*
X+2706986Y+8639847D01*
X+2706986Y+8576347D01*
X+2691746Y+8560472D01*
X+2706986Y+8560472D02*
X+2615546Y+8655722D01*
X+2706986Y+8687472D02*
X+2615546Y+8687472D01*
X+2706986Y+8782722D01*
X+2615546Y+8782722D01*
X+2706986Y+8814472D02*
X+2615546Y+8814472D01*
X+2615546Y+8909722D01*
X+2661266Y+8814472D02*
X+2661266Y+8877972D01*
D35*
X+3055660Y+642620D02*
X+3054650Y+667827D01*
X+3046448Y+718242D01*
X+3029346Y+768657D01*
X+3001600Y+819072D01*
X+2959270Y+869412D01*
X+2908855Y+908957D01*
X+2858440Y+934772D01*
X+2808025Y+950332D01*
X+2757610Y+957164D01*
X+2740660Y+957620D01*
X+2425660Y+642620D02*
X+2426670Y+667827D01*
X+2434872Y+718242D01*
X+2451974Y+768657D01*
X+2479720Y+819072D01*
X+2522050Y+869412D01*
X+2572465Y+908957D01*
X+2622880Y+934772D01*
X+2673295Y+950332D01*
X+2723710Y+957164D01*
X+2740660Y+957620D01*
X+2425660Y+642620D02*
X+2426670Y+617413D01*
X+2434872Y+566998D01*
X+2451974Y+516583D01*
X+2479720Y+466168D01*
X+2522050Y+415828D01*
X+2572465Y+376283D01*
X+2622880Y+350468D01*
X+2673295Y+334908D01*
X+2723710Y+328076D01*
X+2740660Y+327620D01*
X+3055660Y+642620D02*
X+3054650Y+617413D01*
X+3046448Y+566998D01*
X+3029346Y+516583D01*
X+3001600Y+466168D01*
X+2959270Y+415828D01*
X+2908855Y+376283D01*
X+2858440Y+350468D01*
X+2808025Y+334908D01*
X+2757610Y+328076D01*
X+2740660Y+327620D01*
D34*
X+2505660Y+397620D02*
X+2505625Y+398451D01*
X+2505344Y+400115D01*
X+2504754Y+401779D01*
X+2503790Y+403443D01*
X+2502315Y+405084D01*
X+2500651Y+406285D01*
X+2498987Y+407050D01*
X+2497323Y+407481D01*
X+2495660Y+407620D01*
X+2485660Y+397620D02*
X+2485695Y+398451D01*
X+2485976Y+400115D01*
X+2486566Y+401779D01*
X+2487530Y+403443D01*
X+2489005Y+405084D01*
X+2490669Y+406285D01*
X+2492333Y+407050D01*
X+2493997Y+407481D01*
X+2495660Y+407620D01*
X+2485660Y+397620D02*
X+2485695Y+396789D01*
X+2485976Y+395125D01*
X+2486566Y+393461D01*
X+2487530Y+391797D01*
X+2489005Y+390156D01*
X+2490669Y+388955D01*
X+2492333Y+388190D01*
X+2493997Y+387759D01*
X+2495660Y+387620D01*
X+2505660Y+397620D02*
X+2505625Y+396789D01*
X+2505344Y+395125D01*
X+2504754Y+393461D01*
X+2503790Y+391797D01*
X+2502315Y+390156D01*
X+2500651Y+388955D01*
X+2498987Y+388190D01*
X+2497323Y+387759D01*
X+2495660Y+387620D01*
D31*
X+2328220Y+356870D02*
X+2297740Y+388620D01*
X+2389180Y+388620D01*
X+2373940Y+452120D02*
X+2312980Y+452120D01*
X+2297740Y+467995D01*
X+2297740Y+531495D01*
X+2312980Y+547370D01*
X+2373940Y+547370D01*
X+2389180Y+531495D01*
X+2389180Y+467995D01*
X+2373940Y+452120D01*
X+2389180Y+452120D02*
X+2297740Y+547370D01*
X+2373940Y+579120D02*
X+2312980Y+579120D01*
X+2297740Y+594995D01*
X+2297740Y+658495D01*
X+2312980Y+674370D01*
X+2373940Y+674370D01*
X+2389180Y+658495D01*
X+2389180Y+594995D01*
X+2373940Y+579120D01*
X+2389180Y+579120D02*
X+2297740Y+674370D01*
X+2297740Y+706120D02*
X+2373940Y+706120D01*
X+2389180Y+721995D01*
X+2389180Y+785495D01*
X+2373940Y+801370D01*
X+2297740Y+801370D01*
X+2389180Y+833120D02*
X+2297740Y+833120D01*
X+2297740Y+928370D01*
X+2343460Y+833120D02*
X+2343460Y+896620D01*
D36*
X+6649720Y+3954780D02*
X+6687820Y+3954780D01*
X+6687820Y+3919220D01*
X+6611620Y+3919220D01*
X+6573520Y+3954780D01*
X+6573520Y+3990340D01*
X+6611620Y+4025900D01*
X+6668770Y+4025900D01*
X+6687820Y+4008120D01*
X+6725920Y+3919220D02*
X+6725920Y+4025900D01*
X+6840220Y+3919220D01*
X+6840220Y+4025900D01*
X+6878320Y+3919220D02*
X+6878320Y+4025900D01*
X+6954520Y+4025900D01*
X+6992620Y+3990340D01*
X+6992620Y+3954780D01*
X+6954520Y+3919220D01*
X+6878320Y+3919220D01*
X+7049770Y+3972560D02*
X+7145020Y+3972560D01*
X+7221220Y+4025900D02*
X+7278370Y+3972560D01*
X+7221220Y+3919220D01*
X+5923280Y+3614420D02*
X+5961380Y+3614420D01*
X+5961380Y+3578860D01*
X+5885180Y+3578860D01*
X+5847080Y+3614420D01*
X+5847080Y+3649980D01*
X+5885180Y+3685540D01*
X+5942330Y+3685540D01*
X+5961380Y+3667760D01*
X+5999480Y+3578860D02*
X+5999480Y+3685540D01*
X+6113780Y+3578860D01*
X+6113780Y+3685540D01*
X+6151880Y+3578860D02*
X+6151880Y+3685540D01*
X+6228080Y+3685540D01*
X+6266180Y+3649980D01*
X+6266180Y+3614420D01*
X+6228080Y+3578860D01*
X+6151880Y+3578860D01*
X+3192780Y+2052320D02*
X+3230880Y+2052320D01*
X+3230880Y+2016760D01*
X+3154680Y+2016760D01*
X+3116580Y+2052320D01*
X+3116580Y+2087880D01*
X+3154680Y+2123440D01*
X+3211830Y+2123440D01*
X+3230880Y+2105660D01*
X+3268980Y+2016760D02*
X+3268980Y+2123440D01*
X+3383280Y+2016760D01*
X+3383280Y+2123440D01*
X+3421380Y+2016760D02*
X+3421380Y+2123440D01*
X+3497580Y+2123440D01*
X+3535680Y+2087880D01*
X+3535680Y+2052320D01*
X+3497580Y+2016760D01*
X+3421380Y+2016760D01*
X+1638300Y+3702253D02*
X+1676400Y+3702253D01*
X+1676400Y+3666693D01*
X+1600200Y+3666693D01*
X+1562100Y+3702253D01*
X+1562100Y+3737813D01*
X+1600200Y+3773373D01*
X+1657350Y+3773373D01*
X+1676400Y+3755593D01*
X+1714500Y+3666693D02*
X+1714500Y+3773373D01*
X+1828800Y+3666693D01*
X+1828800Y+3773373D01*
X+1866900Y+3666693D02*
X+1866900Y+3773373D01*
X+1943100Y+3773373D01*
X+1981200Y+3737813D01*
X+1981200Y+3702253D01*
X+1943100Y+3666693D01*
X+1866900Y+3666693D01*
X+3799840Y+2385060D02*
X+3780790Y+2367280D01*
X+3723640Y+2367280D01*
X+3685540Y+2402840D01*
X+3685540Y+2438400D01*
X+3723640Y+2473960D01*
X+3780790Y+2473960D01*
X+3799840Y+2456180D01*
X+3952240Y+2367280D02*
X+3952240Y+2420620D01*
X+3933190Y+2438400D01*
X+3856990Y+2438400D01*
X+3837940Y+2420620D01*
X+3837940Y+2473960D02*
X+3837940Y+2367280D01*
X+4028440Y+2420620D02*
X+4009390Y+2438400D01*
X+4009390Y+2456180D01*
X+4028440Y+2473960D01*
X+4085590Y+2473960D01*
X+4104640Y+2456180D01*
X+4104640Y+2438400D01*
X+4085590Y+2420620D01*
X+4028440Y+2420620D01*
X+4009390Y+2402840D01*
X+4009390Y+2385060D01*
X+4028440Y+2367280D01*
X+4085590Y+2367280D01*
X+4104640Y+2385060D01*
X+4104640Y+2402840D01*
X+4085590Y+2420620D01*
X+2090420Y+4130040D02*
X+2071370Y+4112260D01*
X+2014220Y+4112260D01*
X+1976120Y+4147820D01*
X+1976120Y+4183380D01*
X+2014220Y+4218940D01*
X+2071370Y+4218940D01*
X+2090420Y+4201160D01*
X+2242820Y+4112260D02*
X+2242820Y+4165600D01*
X+2223770Y+4183380D01*
X+2147570Y+4183380D01*
X+2128520Y+4165600D01*
X+2128520Y+4218940D02*
X+2128520Y+4112260D01*
X+2319020Y+4183380D02*
X+2357120Y+4218940D01*
X+2357120Y+4112260D01*
X-127000Y+5778500D02*
X-88900Y+5778500D01*
X-88900Y+5742940D01*
X-165100Y+5742940D01*
X-203200Y+5778500D01*
X-203200Y+5814060D01*
X-165100Y+5849620D01*
X-107950Y+5849620D01*
X-88900Y+5831840D01*
X-50800Y+5742940D02*
X-50800Y+5849620D01*
X+63500Y+5742940D01*
X+63500Y+5849620D01*
X+101600Y+5742940D02*
X+101600Y+5849620D01*
X+177800Y+5849620D01*
X+215900Y+5814060D01*
X+215900Y+5778500D01*
X+177800Y+5742940D01*
X+101600Y+5742940D01*
X-101600Y+5067300D02*
X-63500Y+5102860D01*
X-63500Y+4996180D01*
X+303530Y+4683760D02*
X+322580Y+4701540D01*
X+379730Y+4701540D01*
X+398780Y+4683760D01*
X+398780Y+4665980D01*
X+379730Y+4648200D01*
X+322580Y+4648200D01*
X+303530Y+4630420D01*
X+303530Y+4594860D01*
X+398780Y+4594860D01*
X+679450Y+4320540D02*
X+698500Y+4338320D01*
X+755650Y+4338320D01*
X+774700Y+4320540D01*
X+774700Y+4302760D01*
X+755650Y+4284980D01*
X+774700Y+4267200D01*
X+774700Y+4249420D01*
X+755650Y+4231640D01*
X+698500Y+4231640D01*
X+679450Y+4249420D01*
X+717550Y+4284980D02*
X+755650Y+4284980D01*
X+1132840Y+3919220D02*
X+1018540Y+3919220D01*
X+1094740Y+3990340D01*
X+1094740Y+3883660D01*
X+2753360Y+7777480D02*
X+2639060Y+7777480D01*
X+2715260Y+7848600D01*
X+2715260Y+7741920D01*
X+3252470Y+7373620D02*
X+3271520Y+7391400D01*
X+3328670Y+7391400D01*
X+3347720Y+7373620D01*
X+3347720Y+7355840D01*
X+3328670Y+7338060D01*
X+3347720Y+7320280D01*
X+3347720Y+7302500D01*
X+3328670Y+7284720D01*
X+3271520Y+7284720D01*
X+3252470Y+7302500D01*
X+3290570Y+7338060D02*
X+3328670Y+7338060D01*
X+3602990Y+6995160D02*
X+3622040Y+7012940D01*
X+3679190Y+7012940D01*
X+3698240Y+6995160D01*
X+3698240Y+6977380D01*
X+3679190Y+6959600D01*
X+3622040Y+6959600D01*
X+3602990Y+6941820D01*
X+3602990Y+6906260D01*
X+3698240Y+6906260D01*
X+3987800Y+6634480D02*
X+4025900Y+6670040D01*
X+4025900Y+6563360D01*
X+4071620Y+6085840D02*
X+4109720Y+6085840D01*
X+4109720Y+6050280D01*
X+4033520Y+6050280D01*
X+3995420Y+6085840D01*
X+3995420Y+6121400D01*
X+4033520Y+6156960D01*
X+4090670Y+6156960D01*
X+4109720Y+6139180D01*
X+4147820Y+6050280D02*
X+4147820Y+6156960D01*
X+4262120Y+6050280D01*
X+4262120Y+6156960D01*
X+4300220Y+6050280D02*
X+4300220Y+6156960D01*
X+4376420Y+6156960D01*
X+4414520Y+6121400D01*
X+4414520Y+6085840D01*
X+4376420Y+6050280D01*
X+4300220Y+6050280D01*
X+7246620Y+1678940D02*
X+7284720Y+1678940D01*
X+7284720Y+1643380D01*
X+7208520Y+1643380D01*
X+7170420Y+1678940D01*
X+7170420Y+1714500D01*
X+7208520Y+1750060D01*
X+7265670Y+1750060D01*
X+7284720Y+1732280D01*
X+7322820Y+1643380D02*
X+7322820Y+1750060D01*
X+7437120Y+1643380D01*
X+7437120Y+1750060D01*
X+7475220Y+1643380D02*
X+7475220Y+1750060D01*
X+7551420Y+1750060D01*
X+7589520Y+1714500D01*
X+7589520Y+1678940D01*
X+7551420Y+1643380D01*
X+7475220Y+1643380D01*
X+4213860Y+5552440D02*
X+4251960Y+5552440D01*
X+4251960Y+5516880D01*
X+4175760Y+5516880D01*
X+4137660Y+5552440D01*
X+4137660Y+5588000D01*
X+4175760Y+5623560D01*
X+4232910Y+5623560D01*
X+4251960Y+5605780D01*
X+4290060Y+5516880D02*
X+4290060Y+5623560D01*
X+4404360Y+5516880D01*
X+4404360Y+5623560D01*
X+4442460Y+5516880D02*
X+4442460Y+5623560D01*
X+4518660Y+5623560D01*
X+4556760Y+5588000D01*
X+4556760Y+5552440D01*
X+4518660Y+5516880D01*
X+4442460Y+5516880D01*
D31*
X-180340Y+2255520D02*
X+581660Y+2255520D01*
X+581660Y+2509520D01*
X-180340Y+2509520D01*
X-180340Y+2255520D01*
X-53340Y+2092960D02*
X-53340Y+2214880D01*
X+41910Y+2214880D01*
X+60960Y+2194560D01*
X+60960Y+2174240D01*
X+41910Y+2153920D01*
X-53340Y+2153920D01*
X+99060Y+2214880D02*
X+99060Y+2092960D01*
X+156210Y+2153920D01*
X+213360Y+2092960D01*
X+213360Y+2214880D01*
X+251460Y+2092960D02*
X+251460Y+2214880D01*
X+346710Y+2214880D01*
X+365760Y+2194560D01*
X+365760Y+2174240D01*
X+346710Y+2153920D01*
X+251460Y+2153920D01*
X+346710Y+2153920D02*
X+365760Y+2133600D01*
X+365760Y+2092960D01*
X-370840Y+2641600D02*
X-275590Y+2641600D01*
X-323215Y+2641600D02*
X-323215Y+2550160D01*
X-243840Y+2641600D02*
X-148590Y+2550160D01*
X-243840Y+2550160D02*
X-148590Y+2641600D01*
X-116840Y+2534920D02*
X-21590Y+2534920D01*
X+10160Y+2550160D02*
X+10160Y+2641600D01*
X+57785Y+2595880D01*
X+105410Y+2641600D01*
X+105410Y+2550160D01*
X+137160Y+2611120D02*
X+168910Y+2641600D01*
X+200660Y+2641600D01*
X+232410Y+2611120D01*
X+232410Y+2580640D01*
X+200660Y+2550160D01*
X+168910Y+2550160D01*
X+137160Y+2580640D01*
X+137160Y+2611120D01*
X+264160Y+2550160D02*
X+264160Y+2641600D01*
X+327660Y+2641600D01*
X+359410Y+2611120D01*
X+359410Y+2580640D01*
X+327660Y+2550160D01*
X+264160Y+2550160D01*
X+391160Y+2641600D02*
X+391160Y+2565400D01*
X+407035Y+2550160D01*
X+470535Y+2550160D01*
X+486410Y+2565400D01*
X+486410Y+2641600D01*
X+518160Y+2641600D02*
X+518160Y+2550160D01*
X+613410Y+2550160D01*
X+740410Y+2550160D02*
X+645160Y+2550160D01*
X+645160Y+2641600D01*
X+740410Y+2641600D01*
X+645160Y+2595880D02*
X+708660Y+2595880D01*
D36*
X+165100Y+3472180D02*
X+107950Y+3418840D01*
X+165100Y+3365500D01*
X+260350Y+3418840D02*
X+355600Y+3418840D01*
X+469900Y+3401060D02*
X+508000Y+3401060D01*
X+508000Y+3365500D01*
X+431800Y+3365500D01*
X+393700Y+3401060D01*
X+393700Y+3436620D01*
X+431800Y+3472180D01*
X+488950Y+3472180D01*
X+508000Y+3454400D01*
X+546100Y+3365500D02*
X+546100Y+3472180D01*
X+660400Y+3365500D01*
X+660400Y+3472180D01*
X+698500Y+3365500D02*
X+698500Y+3472180D01*
X+774700Y+3472180D01*
X+812800Y+3436620D01*
X+812800Y+3401060D01*
X+774700Y+3365500D01*
X+698500Y+3365500D01*
X-518160Y+2357120D02*
X-480060Y+2357120D01*
X-480060Y+2321560D01*
X-556260Y+2321560D01*
X-594360Y+2357120D01*
X-594360Y+2392680D01*
X-556260Y+2428240D01*
X-499110Y+2428240D01*
X-480060Y+2410460D01*
X-441960Y+2321560D02*
X-441960Y+2428240D01*
X-327660Y+2321560D01*
X-327660Y+2428240D01*
X-289560Y+2321560D02*
X-289560Y+2428240D01*
X-213360Y+2428240D01*
X-175260Y+2392680D01*
X-175260Y+2357120D01*
X-213360Y+2321560D01*
X-289560Y+2321560D01*
X+637540Y+2324100D02*
X+637540Y+2430780D01*
X+732790Y+2430780D01*
X+751840Y+2413000D01*
X+751840Y+2395220D01*
X+732790Y+2377440D01*
X+637540Y+2377440D01*
X+789940Y+2324100D02*
X+789940Y+2430780D01*
X+885190Y+2430780D01*
X+904240Y+2413000D01*
X+904240Y+2395220D01*
X+885190Y+2377440D01*
X+789940Y+2377440D01*
X+942340Y+2324100D02*
X+942340Y+2430780D01*
X+999490Y+2377440D01*
X+1056640Y+2430780D01*
X+1056640Y+2324100D01*
M02*
