G04 PROTEUS GERBER X2 FILE*
%TF.GenerationSoftware,Labcenter,Proteus,8.15-SP1-Build34318*%
%TF.CreationDate,2023-08-09T10:16:53+00:00*%
%TF.FileFunction,Legend,Bot*%
%TF.FilePolarity,Positive*%
%TF.Part,Single*%
%TF.SameCoordinates,{0049c899-80f1-4e30-9ba5-08a3a9b55963}*%
%FSLAX45Y45*%
%MOMM*%
G01*
%TA.AperFunction,Profile*%
%ADD27C,0.203200*%
%TA.AperFunction,Material*%
%ADD31C,0.203200*%
%ADD33C,0.250000*%
%ADD34C,0.200000*%
%TD.AperFunction*%
D27*
X-619760Y-63500D02*
X+7683500Y-63500D01*
X+7683500Y+9080500D01*
X-619760Y+9080500D01*
X-619760Y-63500D01*
D31*
X+4439664Y+3833806D02*
X+4073270Y+4200200D01*
X+4261855Y+4388786D01*
X+4628249Y+4022391D01*
X+4439664Y+3833806D01*
X+4568980Y+4078069D02*
X+4383987Y+3893076D01*
X+4583348Y+3876912D02*
X+4533059Y+3927201D01*
X+4166665Y+4293595D02*
X+4116375Y+4343885D01*
X+4248386Y+4502836D02*
X+4249284Y+4458832D01*
X+4313942Y+4523490D01*
X+4358843Y+4478588D02*
X+4294186Y+4413931D01*
X+4426195Y+4411236D01*
X+4361537Y+4346579D01*
X+4494445Y+4299882D02*
X+4427093Y+4367234D01*
X+4428889Y+4279227D01*
X+4493547Y+4343885D01*
X+4527672Y+4288207D02*
X+4484567Y+4245102D01*
X+4485016Y+4223100D01*
X+4529917Y+4178199D01*
X+4551919Y+4177750D01*
X+4595024Y+4220855D01*
X+4594575Y+4242857D01*
X+4549674Y+4287758D01*
X+4527672Y+4288207D01*
X+4538448Y+4298983D02*
X+4541142Y+4166974D01*
X+4617474Y+4198405D02*
X+4574369Y+4155300D01*
X+4574818Y+4133298D01*
X+4619719Y+4088397D01*
X+4641721Y+4087948D01*
X+4684826Y+4131053D01*
X+4684377Y+4153055D01*
X+4639476Y+4197956D01*
X+4617474Y+4198405D01*
X+4628250Y+4209181D02*
X+4630944Y+4077172D01*
X+4697399Y+4053823D02*
X+4698297Y+4009819D01*
X+4762955Y+4074477D01*
X+5161430Y+3522158D02*
X+5527824Y+3155764D01*
X+5339239Y+2967178D01*
X+4972845Y+3333573D01*
X+5161430Y+3522158D01*
X+5032114Y+3277895D02*
X+5217107Y+3462888D01*
X+5017746Y+3479052D02*
X+5068035Y+3428763D01*
X+5434429Y+3062369D02*
X+5484719Y+3012079D01*
X+4837242Y+3325491D02*
X+4838140Y+3281487D01*
X+4902798Y+3346145D01*
X+4947699Y+3301243D02*
X+4883042Y+3236586D01*
X+5015051Y+3233891D01*
X+4950393Y+3169234D01*
X+5083301Y+3122537D02*
X+5015949Y+3189889D01*
X+5017745Y+3101882D01*
X+5082403Y+3166540D01*
X+5116528Y+3110862D02*
X+5073423Y+3067757D01*
X+5073872Y+3045755D01*
X+5118773Y+3000854D01*
X+5140775Y+3000405D01*
X+5183880Y+3043510D01*
X+5183431Y+3065512D01*
X+5138530Y+3110413D01*
X+5116528Y+3110862D01*
X+5127304Y+3121638D02*
X+5129998Y+2989629D01*
X+5206330Y+3021060D02*
X+5163225Y+2977955D01*
X+5163674Y+2955953D01*
X+5208575Y+2911052D01*
X+5230577Y+2910603D01*
X+5273682Y+2953708D01*
X+5273233Y+2975710D01*
X+5228332Y+3020611D01*
X+5206330Y+3021060D01*
X+5217106Y+3031836D02*
X+5219800Y+2899827D01*
X+5286255Y+2876478D02*
X+5287153Y+2832474D01*
X+5351811Y+2897132D01*
X+5960060Y+6849620D02*
X+6910060Y+6849620D01*
X+6910060Y+7389620D01*
X+5960060Y+7389620D01*
X+5960060Y+6849620D01*
X+6710060Y+7389620D02*
X+6710060Y+6849620D01*
X+6910060Y+7119620D02*
X+7060060Y+7119620D01*
X+5960060Y+7119620D02*
X+5810060Y+7119620D01*
X+6784310Y+7491220D02*
X+6752560Y+7521700D01*
X+6752560Y+7430260D01*
X+6689060Y+7430260D02*
X+6689060Y+7521700D01*
X+6593810Y+7430260D01*
X+6593810Y+7521700D01*
X+6466810Y+7521700D02*
X+6546185Y+7521700D01*
X+6546185Y+7491220D01*
X+6482685Y+7491220D01*
X+6466810Y+7475980D01*
X+6466810Y+7445500D01*
X+6482685Y+7430260D01*
X+6530310Y+7430260D01*
X+6546185Y+7445500D01*
X+6339810Y+7460740D02*
X+6435060Y+7460740D01*
X+6371560Y+7521700D01*
X+6371560Y+7430260D01*
X+6308060Y+7445500D02*
X+6308060Y+7506460D01*
X+6292185Y+7521700D01*
X+6228685Y+7521700D01*
X+6212810Y+7506460D01*
X+6212810Y+7445500D01*
X+6228685Y+7430260D01*
X+6292185Y+7430260D01*
X+6308060Y+7445500D01*
X+6308060Y+7430260D02*
X+6212810Y+7521700D01*
X+6085810Y+7506460D02*
X+6101685Y+7521700D01*
X+6149310Y+7521700D01*
X+6165185Y+7506460D01*
X+6165185Y+7445500D01*
X+6149310Y+7430260D01*
X+6101685Y+7430260D01*
X+6085810Y+7445500D01*
X+6085810Y+7460740D01*
X+6101685Y+7475980D01*
X+6165185Y+7475980D01*
X+5998160Y+6006340D02*
X+6948160Y+6006340D01*
X+6948160Y+6546340D01*
X+5998160Y+6546340D01*
X+5998160Y+6006340D01*
X+6748160Y+6546340D02*
X+6748160Y+6006340D01*
X+6948160Y+6276340D02*
X+7098160Y+6276340D01*
X+5998160Y+6276340D02*
X+5848160Y+6276340D01*
X+6822410Y+6647940D02*
X+6790660Y+6678420D01*
X+6790660Y+6586980D01*
X+6727160Y+6586980D02*
X+6727160Y+6678420D01*
X+6631910Y+6586980D01*
X+6631910Y+6678420D01*
X+6504910Y+6678420D02*
X+6584285Y+6678420D01*
X+6584285Y+6647940D01*
X+6520785Y+6647940D01*
X+6504910Y+6632700D01*
X+6504910Y+6602220D01*
X+6520785Y+6586980D01*
X+6568410Y+6586980D01*
X+6584285Y+6602220D01*
X+6377910Y+6617460D02*
X+6473160Y+6617460D01*
X+6409660Y+6678420D01*
X+6409660Y+6586980D01*
X+6346160Y+6602220D02*
X+6346160Y+6663180D01*
X+6330285Y+6678420D01*
X+6266785Y+6678420D01*
X+6250910Y+6663180D01*
X+6250910Y+6602220D01*
X+6266785Y+6586980D01*
X+6330285Y+6586980D01*
X+6346160Y+6602220D01*
X+6346160Y+6586980D02*
X+6250910Y+6678420D01*
X+6123910Y+6663180D02*
X+6139785Y+6678420D01*
X+6187410Y+6678420D01*
X+6203285Y+6663180D01*
X+6203285Y+6602220D01*
X+6187410Y+6586980D01*
X+6139785Y+6586980D01*
X+6123910Y+6602220D01*
X+6123910Y+6617460D01*
X+6139785Y+6632700D01*
X+6203285Y+6632700D01*
D33*
X+6715900Y+4801220D02*
X+6715857Y+4802259D01*
X+6715505Y+4804338D01*
X+6714768Y+4806417D01*
X+6713564Y+4808496D01*
X+6711723Y+4810546D01*
X+6709644Y+4812049D01*
X+6707565Y+4813006D01*
X+6705486Y+4813545D01*
X+6703407Y+4813720D01*
X+6703400Y+4813720D01*
X+6690900Y+4801220D02*
X+6690943Y+4802259D01*
X+6691295Y+4804338D01*
X+6692032Y+4806417D01*
X+6693236Y+4808496D01*
X+6695077Y+4810546D01*
X+6697156Y+4812049D01*
X+6699235Y+4813006D01*
X+6701314Y+4813545D01*
X+6703393Y+4813720D01*
X+6703400Y+4813720D01*
X+6690900Y+4801220D02*
X+6690943Y+4800181D01*
X+6691295Y+4798102D01*
X+6692032Y+4796023D01*
X+6693236Y+4793944D01*
X+6695077Y+4791894D01*
X+6697156Y+4790391D01*
X+6699235Y+4789434D01*
X+6701314Y+4788895D01*
X+6703393Y+4788720D01*
X+6703400Y+4788720D01*
X+6715900Y+4801220D02*
X+6715857Y+4800181D01*
X+6715505Y+4798102D01*
X+6714768Y+4796023D01*
X+6713564Y+4793944D01*
X+6711723Y+4791894D01*
X+6709644Y+4790391D01*
X+6707565Y+4789434D01*
X+6705486Y+4788895D01*
X+6703407Y+4788720D01*
X+6703400Y+4788720D01*
D34*
X+6720900Y+4736220D02*
X+6653400Y+4736220D01*
X+6653400Y+3976220D01*
X+6720900Y+3976220D01*
X+7045900Y+4736220D02*
X+7113400Y+4736220D01*
X+7113400Y+3976220D01*
X+7045900Y+3976220D01*
D31*
X+6536720Y+4664095D02*
X+6521480Y+4648220D01*
X+6521480Y+4600595D01*
X+6536720Y+4584720D01*
X+6551960Y+4584720D01*
X+6567200Y+4600595D01*
X+6582440Y+4584720D01*
X+6597680Y+4584720D01*
X+6612920Y+4600595D01*
X+6612920Y+4648220D01*
X+6597680Y+4664095D01*
X+6567200Y+4632345D02*
X+6567200Y+4600595D01*
X+6536720Y+4537095D02*
X+6521480Y+4521220D01*
X+6521480Y+4473595D01*
X+6536720Y+4457720D01*
X+6551960Y+4457720D01*
X+6567200Y+4473595D01*
X+6582440Y+4457720D01*
X+6597680Y+4457720D01*
X+6612920Y+4473595D01*
X+6612920Y+4521220D01*
X+6597680Y+4537095D01*
X+6567200Y+4505345D02*
X+6567200Y+4473595D01*
X+6597680Y+4425970D02*
X+6536720Y+4425970D01*
X+6521480Y+4410095D01*
X+6521480Y+4346595D01*
X+6536720Y+4330720D01*
X+6597680Y+4330720D01*
X+6612920Y+4346595D01*
X+6612920Y+4410095D01*
X+6597680Y+4425970D01*
X+6612920Y+4425970D02*
X+6521480Y+4330720D01*
X+6521480Y+4298970D02*
X+6597680Y+4298970D01*
X+6612920Y+4283095D01*
X+6612920Y+4219595D01*
X+6597680Y+4203720D01*
X+6521480Y+4203720D01*
X+6612920Y+4171970D02*
X+6521480Y+4171970D01*
X+6521480Y+4076720D01*
X+6567200Y+4171970D02*
X+6567200Y+4108470D01*
D33*
X+161625Y+7424178D02*
X+161582Y+7425217D01*
X+161230Y+7427296D01*
X+160493Y+7429375D01*
X+159289Y+7431454D01*
X+157448Y+7433504D01*
X+155369Y+7435007D01*
X+153290Y+7435964D01*
X+151211Y+7436503D01*
X+149132Y+7436678D01*
X+149125Y+7436678D01*
X+136625Y+7424178D02*
X+136668Y+7425217D01*
X+137020Y+7427296D01*
X+137757Y+7429375D01*
X+138961Y+7431454D01*
X+140802Y+7433504D01*
X+142881Y+7435007D01*
X+144960Y+7435964D01*
X+147039Y+7436503D01*
X+149118Y+7436678D01*
X+149125Y+7436678D01*
X+136625Y+7424178D02*
X+136668Y+7423139D01*
X+137020Y+7421060D01*
X+137757Y+7418981D01*
X+138961Y+7416902D01*
X+140802Y+7414852D01*
X+142881Y+7413349D01*
X+144960Y+7412392D01*
X+147039Y+7411853D01*
X+149118Y+7411678D01*
X+149125Y+7411678D01*
X+161625Y+7424178D02*
X+161582Y+7423139D01*
X+161230Y+7421060D01*
X+160493Y+7418981D01*
X+159289Y+7416902D01*
X+157448Y+7414852D01*
X+155369Y+7413349D01*
X+153290Y+7412392D01*
X+151211Y+7411853D01*
X+149132Y+7411678D01*
X+149125Y+7411678D01*
D34*
X+207461Y+7390590D02*
X+469090Y+7128961D01*
X+423129Y+7606258D02*
X+684758Y+7344629D01*
D31*
X+148446Y+7303292D02*
X+81094Y+7370644D01*
X+82890Y+7282637D01*
X+147548Y+7347295D01*
X+139017Y+7226510D02*
X+195143Y+7170384D01*
X+205920Y+7181160D01*
X+203675Y+7291168D01*
X+217594Y+7147934D02*
X+271475Y+7201815D01*
X+293477Y+7201366D01*
X+338378Y+7156465D01*
X+338827Y+7134463D01*
X+284945Y+7080582D01*
X+372054Y+7122788D02*
X+307397Y+7058131D01*
X+374748Y+6990779D01*
X+339725Y+7090459D02*
X+384627Y+7045558D01*
D34*
X+3145960Y+569420D02*
X+3145960Y+679420D01*
X+3325960Y+569420D02*
X+3325960Y+679420D01*
D31*
X+3396920Y+846670D02*
X+3366440Y+814920D01*
X+3457880Y+814920D01*
X+3442640Y+751420D02*
X+3381680Y+751420D01*
X+3366440Y+735545D01*
X+3366440Y+672045D01*
X+3381680Y+656170D01*
X+3442640Y+656170D01*
X+3457880Y+672045D01*
X+3457880Y+735545D01*
X+3442640Y+751420D01*
X+3457880Y+751420D02*
X+3366440Y+656170D01*
X+3366440Y+624420D02*
X+3442640Y+624420D01*
X+3457880Y+608545D01*
X+3457880Y+545045D01*
X+3442640Y+529170D01*
X+3366440Y+529170D01*
X+3457880Y+497420D02*
X+3366440Y+497420D01*
X+3366440Y+402170D01*
X+3412160Y+497420D02*
X+3412160Y+433920D01*
D34*
X+172683Y+7149104D02*
X+250465Y+7071323D01*
X+45404Y+7021825D02*
X+123185Y+6944043D01*
D31*
X-189490Y+7113262D02*
X-188592Y+7069258D01*
X-123934Y+7133916D01*
X-89809Y+7078238D02*
X-132914Y+7035133D01*
X-132465Y+7013131D01*
X-87564Y+6968230D01*
X-65562Y+6967781D01*
X-22457Y+7010886D01*
X-22906Y+7032888D01*
X-67807Y+7077789D01*
X-89809Y+7078238D01*
X-79033Y+7089014D02*
X-76339Y+6957005D01*
X-7Y+6988436D02*
X-43112Y+6945331D01*
X-42663Y+6923329D01*
X+2238Y+6878428D01*
X+24240Y+6877979D01*
X+67345Y+6921084D01*
X+66896Y+6943086D01*
X+21995Y+6987987D01*
X-7Y+6988436D01*
X+10769Y+6999212D02*
X+13463Y+6867203D01*
X+100572Y+6909409D02*
X+35915Y+6844752D01*
X+167924Y+6842057D01*
X+103266Y+6777400D01*
X+190374Y+6819607D02*
X+125717Y+6754950D01*
X+193068Y+6687598D01*
X+158045Y+6787278D02*
X+202947Y+6742377D01*
D34*
X+5490380Y+8464300D02*
X+5490380Y+8574300D01*
X+5670380Y+8464300D02*
X+5670380Y+8574300D01*
D31*
X+5726100Y+8820925D02*
X+5710860Y+8805050D01*
X+5710860Y+8757425D01*
X+5726100Y+8741550D01*
X+5741340Y+8741550D01*
X+5756580Y+8757425D01*
X+5771820Y+8741550D01*
X+5787060Y+8741550D01*
X+5802300Y+8757425D01*
X+5802300Y+8805050D01*
X+5787060Y+8820925D01*
X+5756580Y+8789175D02*
X+5756580Y+8757425D01*
X+5726100Y+8693925D02*
X+5710860Y+8678050D01*
X+5710860Y+8630425D01*
X+5726100Y+8614550D01*
X+5741340Y+8614550D01*
X+5756580Y+8630425D01*
X+5771820Y+8614550D01*
X+5787060Y+8614550D01*
X+5802300Y+8630425D01*
X+5802300Y+8678050D01*
X+5787060Y+8693925D01*
X+5756580Y+8662175D02*
X+5756580Y+8630425D01*
X+5787060Y+8582800D02*
X+5726100Y+8582800D01*
X+5710860Y+8566925D01*
X+5710860Y+8503425D01*
X+5726100Y+8487550D01*
X+5787060Y+8487550D01*
X+5802300Y+8503425D01*
X+5802300Y+8566925D01*
X+5787060Y+8582800D01*
X+5802300Y+8582800D02*
X+5710860Y+8487550D01*
X+5802300Y+8455800D02*
X+5710860Y+8455800D01*
X+5802300Y+8360550D01*
X+5710860Y+8360550D01*
X+5802300Y+8328800D02*
X+5710860Y+8328800D01*
X+5710860Y+8233550D01*
X+5756580Y+8328800D02*
X+5756580Y+8265300D01*
D34*
X+6610520Y+8652260D02*
X+6610520Y+8762260D01*
X+6790520Y+8652260D02*
X+6790520Y+8762260D01*
D31*
X+6861480Y+8993010D02*
X+6831000Y+8961260D01*
X+6922440Y+8961260D01*
X+6907200Y+8897760D02*
X+6846240Y+8897760D01*
X+6831000Y+8881885D01*
X+6831000Y+8818385D01*
X+6846240Y+8802510D01*
X+6907200Y+8802510D01*
X+6922440Y+8818385D01*
X+6922440Y+8881885D01*
X+6907200Y+8897760D01*
X+6922440Y+8897760D02*
X+6831000Y+8802510D01*
X+6907200Y+8770760D02*
X+6846240Y+8770760D01*
X+6831000Y+8754885D01*
X+6831000Y+8691385D01*
X+6846240Y+8675510D01*
X+6907200Y+8675510D01*
X+6922440Y+8691385D01*
X+6922440Y+8754885D01*
X+6907200Y+8770760D01*
X+6922440Y+8770760D02*
X+6831000Y+8675510D01*
X+6922440Y+8643760D02*
X+6831000Y+8643760D01*
X+6922440Y+8548510D01*
X+6831000Y+8548510D01*
X+6922440Y+8516760D02*
X+6831000Y+8516760D01*
X+6831000Y+8421510D01*
X+6876720Y+8516760D02*
X+6876720Y+8453260D01*
D34*
X+4563280Y+8601180D02*
X+4563280Y+8711180D01*
X+4743280Y+8601180D02*
X+4743280Y+8711180D01*
D31*
X+4814240Y+8941930D02*
X+4783760Y+8910180D01*
X+4875200Y+8910180D01*
X+4859960Y+8846680D02*
X+4799000Y+8846680D01*
X+4783760Y+8830805D01*
X+4783760Y+8767305D01*
X+4799000Y+8751430D01*
X+4859960Y+8751430D01*
X+4875200Y+8767305D01*
X+4875200Y+8830805D01*
X+4859960Y+8846680D01*
X+4875200Y+8846680D02*
X+4783760Y+8751430D01*
X+4859960Y+8719680D02*
X+4799000Y+8719680D01*
X+4783760Y+8703805D01*
X+4783760Y+8640305D01*
X+4799000Y+8624430D01*
X+4859960Y+8624430D01*
X+4875200Y+8640305D01*
X+4875200Y+8703805D01*
X+4859960Y+8719680D01*
X+4875200Y+8719680D02*
X+4783760Y+8624430D01*
X+4875200Y+8592680D02*
X+4783760Y+8592680D01*
X+4875200Y+8497430D01*
X+4783760Y+8497430D01*
X+4875200Y+8465680D02*
X+4783760Y+8465680D01*
X+4783760Y+8370430D01*
X+4829480Y+8465680D02*
X+4829480Y+8402180D01*
D34*
X+4731280Y+8010060D02*
X+4621280Y+8010060D01*
X+4731280Y+8190060D02*
X+4621280Y+8190060D01*
D31*
X+4977905Y+8306740D02*
X+4962030Y+8321980D01*
X+4914405Y+8321980D01*
X+4898530Y+8306740D01*
X+4898530Y+8291500D01*
X+4914405Y+8276260D01*
X+4898530Y+8261020D01*
X+4898530Y+8245780D01*
X+4914405Y+8230540D01*
X+4962030Y+8230540D01*
X+4977905Y+8245780D01*
X+4946155Y+8276260D02*
X+4914405Y+8276260D01*
X+4850905Y+8306740D02*
X+4835030Y+8321980D01*
X+4787405Y+8321980D01*
X+4771530Y+8306740D01*
X+4771530Y+8291500D01*
X+4787405Y+8276260D01*
X+4771530Y+8261020D01*
X+4771530Y+8245780D01*
X+4787405Y+8230540D01*
X+4835030Y+8230540D01*
X+4850905Y+8245780D01*
X+4819155Y+8276260D02*
X+4787405Y+8276260D01*
X+4739780Y+8245780D02*
X+4739780Y+8306740D01*
X+4723905Y+8321980D01*
X+4660405Y+8321980D01*
X+4644530Y+8306740D01*
X+4644530Y+8245780D01*
X+4660405Y+8230540D01*
X+4723905Y+8230540D01*
X+4739780Y+8245780D01*
X+4739780Y+8230540D02*
X+4644530Y+8321980D01*
X+4612780Y+8230540D02*
X+4612780Y+8321980D01*
X+4517530Y+8230540D01*
X+4517530Y+8321980D01*
X+4485780Y+8230540D02*
X+4485780Y+8321980D01*
X+4390530Y+8321980D01*
X+4485780Y+8276260D02*
X+4422280Y+8276260D01*
M02*
