<?xml version="1.0" encoding="UTF-8" standalone="no"?>
<!DOCTYPE svg PUBLIC "-//W3C//DTD SVG 1.1//EN"
 "http://www.w3.org/Graphics/SVG/1.1/DTD/svg11.dtd">
<!-- Generated by graphviz version 7.0.5 (20221223.1930)
 -->
<!-- Title: RestoreBrightness Pages: 1 -->
<svg width="1861pt" height="1000pt"
 viewBox="0.00 0.00 1861.00 1000.00" xmlns="http://www.w3.org/2000/svg" xmlns:xlink="http://www.w3.org/1999/xlink">
<g id="graph0" class="graph" transform="scale(1 1) rotate(0) translate(4 996)">
<title>RestoreBrightness</title>
<!-- Node1 -->
<g id="node1" class="node">
<title>Node1</title>
<g id="a_node1"><a xlink:title=" ">
<polygon fill="#999999" stroke="#666666" points="1853,-430 1756,-430 1756,-411 1853,-411 1853,-430"/>
<text text-anchor="middle" x="1804.5" y="-418" font-family="Helvetica,sans-Serif" font-size="10.00">RestoreBrightness</text>
</a>
</g>
</g>
<!-- Node2 -->
<g id="node2" class="node">
<title>Node2</title>
<g id="a_node2"><a xlink:href="TransmitterCode_2src_2main_8cpp.html#a804fdbdd5eab4c596bbe8a23eecbe4d5" target="_top" xlink:title=" ">
<polygon fill="white" stroke="#666666" points="776,-769 675,-769 675,-750 776,-750 776,-769"/>
<text text-anchor="middle" x="725.5" y="-757" font-family="Helvetica,sans-Serif" font-size="10.00">ButtonWasPressed</text>
</a>
</g>
</g>
<!-- Node1&#45;&gt;Node2 -->
<g id="edge1" class="edge">
<title>Node1&#45;&gt;Node2</title>
<path fill="none" stroke="#63b8ff" d="M1800.88,-441.58C1792.54,-505.17 1764.49,-693.13 1720,-732.5 1655.47,-789.61 1614.17,-759.5 1528,-759.5 1528,-759.5 1528,-759.5 954,-759.5 892.78,-759.5 822.29,-759.5 776.21,-759.5"/>
<polygon fill="#63b8ff" stroke="#63b8ff" points="1804.33,-442.16 1802.13,-431.8 1797.39,-441.27 1804.33,-442.16"/>
</g>
<!-- Node28 -->
<g id="node23" class="node">
<title>Node28</title>
<g id="a_node23"><a xlink:href="TransmitterCode_2src_2main_8cpp.html#a6ae37c6938b8c10b83d1bc74e8643bd9" target="_top" xlink:title=" ">
<polygon fill="white" stroke="#666666" points="622.5,-619 509.5,-619 509.5,-600 622.5,-600 622.5,-619"/>
<text text-anchor="middle" x="566" y="-607" font-family="Helvetica,sans-Serif" font-size="10.00">CheckPowerOffButton</text>
</a>
</g>
</g>
<!-- Node1&#45;&gt;Node28 -->
<g id="edge31" class="edge">
<title>Node1&#45;&gt;Node28</title>
<path fill="none" stroke="#63b8ff" d="M1794.44,-440.86C1765.41,-502.6 1668.39,-683.5 1528,-683.5 1528,-683.5 1528,-683.5 840.5,-683.5 765.5,-683.5 746.22,-674.02 675,-650.5 658.2,-644.95 655.42,-640.09 639,-633.5 626.28,-628.4 612.01,-623.48 599.56,-619.44"/>
<polygon fill="#63b8ff" stroke="#63b8ff" points="1797.57,-442.41 1798.56,-431.86 1791.21,-439.49 1797.57,-442.41"/>
</g>
<!-- Node29 -->
<g id="node24" class="node">
<title>Node29</title>
<g id="a_node24"><a xlink:href="ModelMatch_8h.html#af8fe429ceb65bf9d257a2a0f1c63eccb" target="_top" xlink:title=" ">
<polygon fill="white" stroke="#666666" points="1443,-731 1341,-731 1341,-712 1443,-712 1443,-731"/>
<text text-anchor="middle" x="1392" y="-719" font-family="Helvetica,sans-Serif" font-size="10.00">CompareModelsIDs</text>
</a>
</g>
</g>
<!-- Node1&#45;&gt;Node29 -->
<g id="edge35" class="edge">
<title>Node1&#45;&gt;Node29</title>
<path fill="none" stroke="#63b8ff" d="M1800.25,-441.63C1790.74,-500.58 1760.99,-664.65 1720,-697.5 1636.49,-764.43 1499.28,-746 1432.28,-731.49"/>
<polygon fill="#63b8ff" stroke="#63b8ff" points="1803.68,-442.37 1801.78,-431.94 1796.77,-441.28 1803.68,-442.37"/>
</g>
<!-- Node32 -->
<g id="node29" class="node">
<title>Node32</title>
<g id="a_node29"><a xlink:href="TransmitterCode_2src_2main_8cpp.html#aa98d7fb495cbdc40cb17343ffafbfe15" target="_top" xlink:title=" ">
<polygon fill="white" stroke="#666666" points="1554.5,-354 1499.5,-354 1499.5,-335 1554.5,-335 1554.5,-354"/>
<text text-anchor="middle" x="1527" y="-342" font-family="Helvetica,sans-Serif" font-size="10.00">GetBank</text>
</a>
</g>
</g>
<!-- Node1&#45;&gt;Node32 -->
<g id="edge43" class="edge">
<title>Node1&#45;&gt;Node32</title>
<path fill="none" stroke="#63b8ff" d="M1784.14,-403.47C1768.12,-390.43 1744.15,-373.24 1720,-364.5 1663.91,-344.2 1592.99,-342.46 1554.99,-343.28"/>
<polygon fill="#63b8ff" stroke="#63b8ff" points="1781.53,-405.85 1791.44,-409.6 1786.03,-400.49 1781.53,-405.85"/>
</g>
<!-- Node128 -->
<g id="node30" class="node">
<title>Node128</title>
<g id="a_node30"><a xlink:href="TransmitterCode_2src_2main_8cpp.html#a17123a117a96a9416dec48d9345f8a5b" target="_top" xlink:title=" ">
<polygon fill="white" stroke="#666666" points="1698,-188 1633,-188 1633,-169 1698,-169 1698,-188"/>
<text text-anchor="middle" x="1665.5" y="-176" font-family="Helvetica,sans-Serif" font-size="10.00">MoveaTrim</text>
</a>
</g>
</g>
<!-- Node1&#45;&gt;Node128 -->
<g id="edge45" class="edge">
<title>Node1&#45;&gt;Node128</title>
<path fill="none" stroke="#63b8ff" d="M1792.46,-401C1764.71,-351.97 1692.75,-224.86 1672.11,-188.41"/>
<polygon fill="#63b8ff" stroke="#63b8ff" points="1789.24,-402.42 1797.21,-409.4 1795.33,-398.97 1789.24,-402.42"/>
</g>
<!-- Node143 -->
<g id="node40" class="node">
<title>Node143</title>
<g id="a_node40"><a xlink:href="TransmitterCode_2src_2main_8cpp.html#a0fe6abb9c2e7e3bbe06b5696b7338e2c" target="_top" xlink:title=" ">
<polygon fill="white" stroke="#666666" points="1720,-316 1611,-316 1611,-297 1720,-297 1720,-316"/>
<text text-anchor="middle" x="1665.5" y="-304" font-family="Helvetica,sans-Serif" font-size="10.00">ReadDualRateSwitch</text>
</a>
</g>
</g>
<!-- Node1&#45;&gt;Node143 -->
<g id="edge56" class="edge">
<title>Node1&#45;&gt;Node143</title>
<path fill="none" stroke="#63b8ff" d="M1789.73,-401.66C1774.49,-381.85 1748.3,-350.8 1720,-330.5 1712.22,-324.92 1702.95,-320.2 1694.32,-316.47"/>
<polygon fill="#63b8ff" stroke="#63b8ff" points="1786.76,-403.53 1795.57,-409.42 1792.36,-399.32 1786.76,-403.53"/>
</g>
<!-- Node67 -->
<g id="node41" class="node">
<title>Node67</title>
<g id="a_node41"><a xlink:href="TransmitterCode_2src_2main_8cpp.html#a17699f358cf9f7c3155a9c5daf8ff13c" target="_top" xlink:title=" ">
<polygon fill="white" stroke="#666666" points="1412.5,-430 1371.5,-430 1371.5,-411 1412.5,-411 1412.5,-430"/>
<text text-anchor="middle" x="1392" y="-418" font-family="Helvetica,sans-Serif" font-size="10.00">setup</text>
</a>
</g>
</g>
<!-- Node1&#45;&gt;Node67 -->
<g id="edge58" class="edge">
<title>Node1&#45;&gt;Node67</title>
<path fill="none" stroke="#63b8ff" d="M1744.31,-420.5C1650.41,-420.5 1471.85,-420.5 1412.63,-420.5"/>
<polygon fill="#63b8ff" stroke="#63b8ff" points="1744.09,-424 1754.09,-420.5 1744.09,-417 1744.09,-424"/>
</g>
<!-- Node148 -->
<g id="node42" class="node">
<title>Node148</title>
<g id="a_node42"><a xlink:href="TransmitterCode_2src_2main_8cpp.html#a030ff9af8fc6b06c659a3c56ab7d2ff2" target="_top" xlink:title=" ">
<polygon fill="white" stroke="#666666" points="1699,-392 1632,-392 1632,-373 1699,-373 1699,-392"/>
<text text-anchor="middle" x="1665.5" y="-380" font-family="Helvetica,sans-Serif" font-size="10.00">SoundBank</text>
</a>
</g>
</g>
<!-- Node1&#45;&gt;Node148 -->
<g id="edge59" class="edge">
<title>Node1&#45;&gt;Node148</title>
<path fill="none" stroke="#63b8ff" d="M1756.48,-407.46C1737.7,-402.25 1716.53,-396.38 1699.44,-391.64"/>
<polygon fill="#63b8ff" stroke="#63b8ff" points="1755.47,-410.81 1766.05,-410.11 1757.35,-404.07 1755.47,-410.81"/>
</g>
<!-- Node91 -->
<g id="node43" class="node">
<title>Node91</title>
<g id="a_node43"><a xlink:href="BuddyWireless_8h.html#a1edeacb3cc2ed18a8ba2c736d1f3542e" target="_top" xlink:title=" ">
<polygon fill="white" stroke="#666666" points="1711.5,-468 1619.5,-468 1619.5,-449 1711.5,-449 1711.5,-468"/>
<text text-anchor="middle" x="1665.5" y="-456" font-family="Helvetica,sans-Serif" font-size="10.00">StartBuddyListen</text>
</a>
</g>
</g>
<!-- Node1&#45;&gt;Node91 -->
<g id="edge61" class="edge">
<title>Node1&#45;&gt;Node91</title>
<path fill="none" stroke="#63b8ff" d="M1756.49,-433.54C1738.73,-438.47 1718.82,-443.99 1702.25,-448.58"/>
<polygon fill="#63b8ff" stroke="#63b8ff" points="1757.35,-436.93 1766.05,-430.89 1755.47,-430.19 1757.35,-436.93"/>
</g>
<!-- Node3 -->
<g id="node3" class="node">
<title>Node3</title>
<g id="a_node3"><a xlink:href="Utilities_8h.html#afb7c85cac4aa89fd998ed81c330374d2" target="_top" xlink:title=" ">
<polygon fill="white" stroke="#666666" points="639,-771 493,-771 493,-752 639,-752 639,-771"/>
<text text-anchor="middle" x="566" y="-759" font-family="Helvetica,sans-Serif" font-size="10.00">CheckForNextionButtonPress</text>
</a>
</g>
</g>
<!-- Node2&#45;&gt;Node3 -->
<g id="edge2" class="edge">
<title>Node2&#45;&gt;Node3</title>
<path fill="none" stroke="#63b8ff" d="M663.32,-760.28C655.43,-760.38 647.29,-760.48 639.24,-760.58"/>
<polygon fill="#63b8ff" stroke="#63b8ff" points="663.2,-763.78 673.15,-760.15 663.11,-756.78 663.2,-763.78"/>
</g>
<!-- Node14 -->
<g id="node14" class="node">
<title>Node14</title>
<g id="a_node14"><a xlink:href="ModelExchange_8h.html#ab7c9edf843c732d7fe296564f39bc0dc" target="_top" xlink:title="RECEIVE A MODEL FILE.">
<polygon fill="white" stroke="#666666" points="287,-622 193,-622 193,-603 287,-603 287,-622"/>
<text text-anchor="middle" x="240" y="-610" font-family="Helvetica,sans-Serif" font-size="10.00">ReceiveModelFile</text>
</a>
</g>
</g>
<!-- Node2&#45;&gt;Node14 -->
<g id="edge30" class="edge">
<title>Node2&#45;&gt;Node14</title>
<path fill="none" stroke="#63b8ff" d="M684.13,-746.03C611.07,-721.84 451.87,-669.96 316,-631.5 305.01,-628.39 293.06,-625.25 281.98,-622.44"/>
<polygon fill="#63b8ff" stroke="#63b8ff" points="682.66,-749.23 693.25,-749.06 684.86,-742.59 682.66,-749.23"/>
</g>
<!-- Node4 -->
<g id="node4" class="node">
<title>Node4</title>
<g id="a_node4"><a xlink:href="TransmitterCode_2src_2main_8cpp.html#a5c0f1fd26cdd6ecde365f521060158ba" target="_top" xlink:title=" ">
<polygon fill="white" stroke="#666666" points="453,-733 356,-733 356,-714 453,-714 453,-733"/>
<text text-anchor="middle" x="404.5" y="-721" font-family="Helvetica,sans-Serif" font-size="10.00">CheckModelName</text>
</a>
</g>
</g>
<!-- Node3&#45;&gt;Node4 -->
<g id="edge3" class="edge">
<title>Node3&#45;&gt;Node4</title>
<path fill="none" stroke="#63b8ff" d="M512.07,-748.89C491.04,-743.88 467.2,-738.2 447.4,-733.48"/>
<polygon fill="#63b8ff" stroke="#63b8ff" points="511.08,-752.25 521.62,-751.17 512.7,-745.44 511.08,-752.25"/>
</g>
<!-- Node6 -->
<g id="node6" class="node">
<title>Node6</title>
<g id="a_node6"><a xlink:href="TransmitterCode_2src_2main_8cpp.html#a558ea014e230b7caa54ce5a37ad29b22" target="_top" xlink:title=" ">
<polygon fill="white" stroke="#666666" points="290.5,-506 189.5,-506 189.5,-487 290.5,-487 290.5,-506"/>
<text text-anchor="middle" x="240" y="-494" font-family="Helvetica,sans-Serif" font-size="10.00">ManageTransmitter</text>
</a>
</g>
</g>
<!-- Node3&#45;&gt;Node6 -->
<g id="edge21" class="edge">
<title>Node3&#45;&gt;Node6</title>
<path fill="none" stroke="#63b8ff" d="M546.54,-744.46C509.08,-709.71 421.77,-627.82 352,-555.5 335.39,-538.29 336.48,-527.86 316,-515.5 308.3,-510.85 299.49,-507.33 290.68,-504.67"/>
<polygon fill="#63b8ff" stroke="#63b8ff" points="543.73,-746.63 553.44,-750.86 548.48,-741.49 543.73,-746.63"/>
</g>
<!-- Node8 -->
<g id="node8" class="node">
<title>Node8</title>
<g id="a_node8"><a xlink:href="TransmitterCode_2src_2main_8cpp.html#a641d6dab68ec7b2a8a32492aac55bc1c" target="_top" xlink:title=" ">
<polygon fill="white" stroke="#666666" points="457,-807 352,-807 352,-788 457,-788 457,-807"/>
<text text-anchor="middle" x="404.5" y="-795" font-family="Helvetica,sans-Serif" font-size="10.00">GetBackupFilename</text>
</a>
</g>
</g>
<!-- Node3&#45;&gt;Node8 -->
<g id="edge7" class="edge">
<title>Node3&#45;&gt;Node8</title>
<path fill="none" stroke="#63b8ff" d="M510,-773.91C490.28,-778.37 468.32,-783.32 449.64,-787.54"/>
<polygon fill="#63b8ff" stroke="#63b8ff" points="510.53,-777.38 519.52,-771.77 508.99,-770.55 510.53,-777.38"/>
</g>
<!-- Node10 -->
<g id="node10" class="node">
<title>Node10</title>
<g id="a_node10"><a xlink:href="TransmitterCode_2src_2main_8cpp.html#a6506bf72e0dd9e9ce480156b47625bff" target="_top" xlink:title=" ">
<polygon fill="white" stroke="#666666" points="447.5,-770 361.5,-770 361.5,-751 447.5,-751 447.5,-770"/>
<text text-anchor="middle" x="404.5" y="-758" font-family="Helvetica,sans-Serif" font-size="10.00">GetConfirmation</text>
</a>
</g>
</g>
<!-- Node3&#45;&gt;Node10 -->
<g id="edge10" class="edge">
<title>Node3&#45;&gt;Node10</title>
<path fill="none" stroke="#63b8ff" d="M481.55,-760.98C469.89,-760.9 458.35,-760.83 447.9,-760.77"/>
<polygon fill="#63b8ff" stroke="#63b8ff" points="481.18,-764.47 491.2,-761.04 481.23,-757.47 481.18,-764.47"/>
</g>
<!-- Node19 -->
<g id="node19" class="node">
<title>Node19</title>
<g id="a_node19"><a xlink:href="TransmitterCode_2src_2main_8cpp.html#a6f5b0f1e4ca75768c16c4dd93f92a8de" target="_top" xlink:title=" ">
<polygon fill="white" stroke="#666666" points="430.5,-883 378.5,-883 378.5,-864 430.5,-864 430.5,-883"/>
<text text-anchor="middle" x="404.5" y="-871" font-family="Helvetica,sans-Serif" font-size="10.00">MsgBox</text>
</a>
</g>
</g>
<!-- Node3&#45;&gt;Node19 -->
<g id="edge22" class="edge">
<title>Node3&#45;&gt;Node19</title>
<path fill="none" stroke="#63b8ff" d="M541.74,-777.83C508.07,-801.47 446.8,-844.5 419.4,-863.74"/>
<polygon fill="#63b8ff" stroke="#63b8ff" points="543.43,-780.92 549.61,-772.31 539.41,-775.19 543.43,-780.92"/>
</g>
<!-- Node5 -->
<g id="node5" class="node">
<title>Node5</title>
<g id="a_node5"><a xlink:href="TransmitterCode_2src_2main_8cpp.html#ae267eaa80a4b3eb49ba10a97469eb7e9" target="_top" xlink:title=" ">
<polygon fill="white" stroke="#666666" points="274.5,-659 205.5,-659 205.5,-640 274.5,-640 274.5,-659"/>
<text text-anchor="middle" x="240" y="-647" font-family="Helvetica,sans-Serif" font-size="10.00">DoMFName</text>
</a>
</g>
</g>
<!-- Node4&#45;&gt;Node5 -->
<g id="edge4" class="edge">
<title>Node4&#45;&gt;Node5</title>
<path fill="none" stroke="#63b8ff" d="M368.59,-708.83C362.9,-705.99 357.18,-702.85 352,-699.5 334.26,-688.04 334.73,-678.24 316,-668.5 303.25,-661.87 288.05,-657.46 274.69,-654.58"/>
<polygon fill="#63b8ff" stroke="#63b8ff" points="366.76,-711.83 377.3,-712.94 369.75,-705.51 366.76,-711.83"/>
</g>
<!-- Node4&#45;&gt;Node6 -->
<g id="edge5" class="edge">
<title>Node4&#45;&gt;Node6</title>
<path fill="none" stroke="#63b8ff" d="M384.89,-705.63C373.81,-694.03 360.34,-678.02 352,-661.5 321.88,-601.84 363.11,-562.91 316,-515.5 309.18,-508.64 300.27,-504.14 290.97,-501.2"/>
<polygon fill="#63b8ff" stroke="#63b8ff" points="382.17,-707.87 391.7,-712.51 387.15,-702.94 382.17,-707.87"/>
</g>
<!-- Node7 -->
<g id="node7" class="node">
<title>Node7</title>
<g id="a_node7"><a xlink:href="TransmitterCode_2src_2main_8cpp.html#ad3cb30894c94eb016e98bdcaa899ac86" target="_top" xlink:title=" ">
<polygon fill="white" stroke="#666666" points="81.5,-544 46.5,-544 46.5,-525 81.5,-525 81.5,-544"/>
<text text-anchor="middle" x="64" y="-532" font-family="Helvetica,sans-Serif" font-size="10.00">loop</text>
</a>
</g>
</g>
<!-- Node6&#45;&gt;Node7 -->
<g id="edge6" class="edge">
<title>Node6&#45;&gt;Node7</title>
<path fill="none" stroke="#63b8ff" d="M182.22,-508.9C147.22,-516.54 104.77,-525.82 81.77,-530.84"/>
<polygon fill="#63b8ff" stroke="#63b8ff" points="182.78,-512.36 191.8,-506.81 181.29,-505.52 182.78,-512.36"/>
</g>
<!-- Node8&#45;&gt;Node2 -->
<g id="edge8" class="edge">
<title>Node8&#45;&gt;Node2</title>
<path fill="none" stroke="#63b8ff" d="M468.53,-795.78C515.71,-793.8 581.7,-789.56 639,-780.5 655.91,-777.83 674.39,-773.47 689.83,-769.42"/>
<polygon fill="#63b8ff" stroke="#63b8ff" points="468.63,-792.27 458.77,-796.17 468.9,-799.27 468.63,-792.27"/>
</g>
<!-- Node9 -->
<g id="node9" class="node">
<title>Node9</title>
<g id="a_node9"><a xlink:href="TransmitterCode_2src_2main_8cpp.html#a9d94366336f1e5fd43edb9c24bec5821" target="_top" xlink:title=" ">
<polygon fill="white" stroke="#666666" points="274,-807 206,-807 206,-788 274,-788 274,-807"/>
<text text-anchor="middle" x="240" y="-795" font-family="Helvetica,sans-Serif" font-size="10.00">RenameFile</text>
</a>
</g>
</g>
<!-- Node8&#45;&gt;Node9 -->
<g id="edge9" class="edge">
<title>Node8&#45;&gt;Node9</title>
<path fill="none" stroke="#63b8ff" d="M340.14,-797.5C317.73,-797.5 293.43,-797.5 274.49,-797.5"/>
<polygon fill="#63b8ff" stroke="#63b8ff" points="340.12,-801 350.12,-797.5 340.12,-794 340.12,-801"/>
</g>
<!-- Node10&#45;&gt;Node2 -->
<g id="edge11" class="edge">
<title>Node10&#45;&gt;Node2</title>
<path fill="none" stroke="#63b8ff" d="M459.29,-748.37C470.38,-746.34 482.02,-744.56 493,-743.5 557.59,-737.28 574.39,-737.51 639,-743.5 652.38,-744.74 666.79,-747.05 679.9,-749.54"/>
<polygon fill="#63b8ff" stroke="#63b8ff" points="458.63,-744.93 449.47,-750.26 459.95,-751.8 458.63,-744.93"/>
</g>
<!-- Node10&#45;&gt;Node9 -->
<g id="edge16" class="edge">
<title>Node10&#45;&gt;Node9</title>
<path fill="none" stroke="#63b8ff" d="M350.08,-772.66C325.11,-778.35 296.15,-784.94 274.35,-789.91"/>
<polygon fill="#63b8ff" stroke="#63b8ff" points="350.78,-776.09 359.75,-770.46 349.23,-769.27 350.78,-776.09"/>
</g>
<!-- Node11 -->
<g id="node11" class="node">
<title>Node11</title>
<g id="a_node11"><a xlink:href="TransmitterCode_2src_2main_8cpp.html#ac45477c637c975e13189e2988c8813b3" target="_top" xlink:title=" ">
<polygon fill="white" stroke="#666666" points="280,-844 200,-844 200,-825 280,-825 280,-844"/>
<text text-anchor="middle" x="240" y="-832" font-family="Helvetica,sans-Serif" font-size="10.00">DeleteModelID</text>
</a>
</g>
</g>
<!-- Node10&#45;&gt;Node11 -->
<g id="edge12" class="edge">
<title>Node10&#45;&gt;Node11</title>
<path fill="none" stroke="#63b8ff" d="M359.5,-775.17C356.9,-776.51 354.38,-777.96 352,-779.5 332.76,-792 335.94,-805.15 316,-816.5 305.18,-822.66 292.32,-826.72 280.33,-829.39"/>
<polygon fill="#63b8ff" stroke="#63b8ff" points="360.75,-778.45 368.39,-771.11 357.84,-772.08 360.75,-778.45"/>
</g>
<!-- Node12 -->
<g id="node12" class="node">
<title>Node12</title>
<g id="a_node12"><a xlink:href="TransmitterCode_2src_2main_8cpp.html#a53d438145d004c3b053f245f494f4284" target="_top" xlink:title=" ">
<polygon fill="white" stroke="#666666" points="266,-733 214,-733 214,-714 266,-714 266,-733"/>
<text text-anchor="middle" x="240" y="-721" font-family="Helvetica,sans-Serif" font-size="10.00">DelLOG</text>
</a>
</g>
</g>
<!-- Node10&#45;&gt;Node12 -->
<g id="edge13" class="edge">
<title>Node10&#45;&gt;Node12</title>
<path fill="none" stroke="#63b8ff" d="M350.3,-748.39C322.09,-741.96 288.72,-734.37 266.35,-729.27"/>
<polygon fill="#63b8ff" stroke="#63b8ff" points="349.23,-751.73 359.75,-750.54 350.78,-744.91 349.23,-751.73"/>
</g>
<!-- Node13 -->
<g id="node13" class="node">
<title>Node13</title>
<g id="a_node13"><a xlink:href="TransmitterCode_2src_2main_8cpp.html#ae9f91b9da28f2e1e2fb126961f03c31c" target="_top" xlink:title=" ">
<polygon fill="white" stroke="#666666" points="280.5,-543 199.5,-543 199.5,-524 280.5,-524 280.5,-543"/>
<text text-anchor="middle" x="240" y="-531" font-family="Helvetica,sans-Serif" font-size="10.00">ModelViewEnd</text>
</a>
</g>
</g>
<!-- Node10&#45;&gt;Node13 -->
<g id="edge14" class="edge">
<title>Node10&#45;&gt;Node13</title>
<path fill="none" stroke="#63b8ff" d="M353.13,-743.68C352.74,-743.3 352.37,-742.9 352,-742.5 306.52,-692.35 352.15,-651.74 316,-594.5 301.75,-571.94 276.27,-553.87 259.01,-543.42"/>
<polygon fill="#63b8ff" stroke="#63b8ff" points="350.98,-746.45 361.09,-749.64 355.18,-740.85 350.98,-746.45"/>
</g>
<!-- Node10&#45;&gt;Node14 -->
<g id="edge15" class="edge">
<title>Node10&#45;&gt;Node14</title>
<path fill="none" stroke="#63b8ff" d="M353.85,-744.27C353.21,-743.7 352.6,-743.11 352,-742.5 315.74,-705.41 353.85,-666.95 316,-631.5 308.16,-624.15 297.89,-619.54 287.48,-616.68"/>
<polygon fill="#63b8ff" stroke="#63b8ff" points="351.58,-746.95 361.8,-749.74 355.55,-741.19 351.58,-746.95"/>
</g>
<!-- Node15 -->
<g id="node15" class="node">
<title>Node15</title>
<g id="a_node15"><a xlink:href="TransmitterCode_2src_2main_8cpp.html#a75875d66db3193e4034c3768c175f8ef" target="_top" xlink:title=" ">
<polygon fill="white" stroke="#666666" points="273.5,-918 206.5,-918 206.5,-899 273.5,-899 273.5,-918"/>
<text text-anchor="middle" x="240" y="-906" font-family="Helvetica,sans-Serif" font-size="10.00">ResetClock</text>
</a>
</g>
</g>
<!-- Node10&#45;&gt;Node15 -->
<g id="edge17" class="edge">
<title>Node10&#45;&gt;Node15</title>
<path fill="none" stroke="#63b8ff" d="M355.18,-776.54C354.07,-777.47 353,-778.46 352,-779.5 316.06,-816.9 354.08,-855.29 316,-890.5 304.69,-900.96 288.41,-905.65 273.9,-907.65"/>
<polygon fill="#63b8ff" stroke="#63b8ff" points="356.86,-779.63 363.3,-771.22 353.02,-773.77 356.86,-779.63"/>
</g>
<!-- Node16 -->
<g id="node16" class="node">
<title>Node16</title>
<g id="a_node16"><a xlink:href="TransmitterCode_2src_2main_8cpp.html#a5c7f22bae35d5d6df9d54fe79dbb8401" target="_top" xlink:title=" ">
<polygon fill="white" stroke="#666666" points="304,-696 176,-696 176,-677 304,-677 304,-696"/>
<text text-anchor="middle" x="240" y="-684" font-family="Helvetica,sans-Serif" font-size="10.00">ResetTransmitterSettings</text>
</a>
</g>
</g>
<!-- Node10&#45;&gt;Node16 -->
<g id="edge18" class="edge">
<title>Node10&#45;&gt;Node16</title>
<path fill="none" stroke="#63b8ff" d="M357.8,-745.85C355.8,-744.8 353.86,-743.68 352,-742.5 332.65,-730.16 335.87,-716.97 316,-705.5 309.6,-701.81 302.49,-698.82 295.27,-696.41"/>
<polygon fill="#63b8ff" stroke="#63b8ff" points="356.21,-748.97 366.75,-749.96 359.13,-742.61 356.21,-748.97"/>
</g>
<!-- Node17 -->
<g id="node17" class="node">
<title>Node17</title>
<g id="a_node17"><a xlink:href="TransmitterCode_2src_2main_8cpp.html#a3838aa0b33bb22d3b9934da05d2716d8" target="_top" xlink:title=" ">
<polygon fill="white" stroke="#666666" points="278,-881 202,-881 202,-862 278,-862 278,-881"/>
<text text-anchor="middle" x="240" y="-869" font-family="Helvetica,sans-Serif" font-size="10.00">StoreModelID</text>
</a>
</g>
</g>
<!-- Node10&#45;&gt;Node17 -->
<g id="edge19" class="edge">
<title>Node10&#45;&gt;Node17</title>
<path fill="none" stroke="#63b8ff" d="M355.98,-776.28C354.59,-777.29 353.26,-778.36 352,-779.5 324.89,-804.05 344.51,-830.59 316,-853.5 305.35,-862.05 291.28,-866.65 278.21,-869.08"/>
<polygon fill="#63b8ff" stroke="#63b8ff" points="357.68,-779.34 364.52,-771.25 354.13,-773.31 357.68,-779.34"/>
</g>
<!-- Node18 -->
<g id="node18" class="node">
<title>Node18</title>
<g id="a_node18"><a xlink:href="TransmitterCode_2src_2main_8cpp.html#a3c55ef7c23759a89a86f6519569c4f7a" target="_top" xlink:title=" ">
<polygon fill="white" stroke="#666666" points="289.5,-770 190.5,-770 190.5,-751 289.5,-751 289.5,-770"/>
<text text-anchor="middle" x="240" y="-758" font-family="Helvetica,sans-Serif" font-size="10.00">TXModuleViewEnd</text>
</a>
</g>
</g>
<!-- Node10&#45;&gt;Node18 -->
<g id="edge20" class="edge">
<title>Node10&#45;&gt;Node18</title>
<path fill="none" stroke="#63b8ff" d="M349.86,-760.5C330.55,-760.5 308.87,-760.5 289.97,-760.5"/>
<polygon fill="#63b8ff" stroke="#63b8ff" points="349.72,-764 359.72,-760.5 349.72,-757 349.72,-764"/>
</g>
<!-- Node19&#45;&gt;Node2 -->
<g id="edge23" class="edge">
<title>Node19&#45;&gt;Node2</title>
<path fill="none" stroke="#63b8ff" d="M441.83,-864.21C488.28,-851.9 570.85,-828.55 639,-801.5 662.98,-791.98 689.48,-778.47 706.53,-769.36"/>
<polygon fill="#63b8ff" stroke="#63b8ff" points="441.08,-860.79 432.29,-866.71 442.85,-867.56 441.08,-860.79"/>
</g>
<!-- Node19&#45;&gt;Node11 -->
<g id="edge24" class="edge">
<title>Node19&#45;&gt;Node11</title>
<path fill="none" stroke="#63b8ff" d="M366.96,-864.73C341.22,-858.55 306.8,-850.29 280.44,-843.97"/>
<polygon fill="#63b8ff" stroke="#63b8ff" points="366.1,-868.12 376.64,-867.05 367.73,-861.32 366.1,-868.12"/>
</g>
<!-- Node19&#45;&gt;Node15 -->
<g id="edge25" class="edge">
<title>Node19&#45;&gt;Node15</title>
<path fill="none" stroke="#63b8ff" d="M367.19,-881.32C339.21,-887.35 300.85,-895.61 273.79,-901.44"/>
<polygon fill="#63b8ff" stroke="#63b8ff" points="367.59,-884.81 376.63,-879.29 366.12,-877.97 367.59,-884.81"/>
</g>
<!-- Node19&#45;&gt;Node17 -->
<g id="edge27" class="edge">
<title>Node19&#45;&gt;Node17</title>
<path fill="none" stroke="#63b8ff" d="M366.67,-873.05C340.26,-872.72 304.8,-872.29 278.28,-871.96"/>
<polygon fill="#63b8ff" stroke="#63b8ff" points="366.55,-876.55 376.6,-873.17 366.64,-869.55 366.55,-876.55"/>
</g>
<!-- Node20 -->
<g id="node20" class="node">
<title>Node20</title>
<g id="a_node20"><a xlink:href="ModelExchange_8h.html#ac36bdea2efcd030a336293af16f5dc09" target="_top" xlink:title=" ">
<polygon fill="white" stroke="#666666" points="282.5,-992 197.5,-992 197.5,-973 282.5,-973 282.5,-992"/>
<text text-anchor="middle" x="240" y="-980" font-family="Helvetica,sans-Serif" font-size="10.00">ShowRemoteID</text>
</a>
</g>
</g>
<!-- Node19&#45;&gt;Node20 -->
<g id="edge26" class="edge">
<title>Node19&#45;&gt;Node20</title>
<path fill="none" stroke="#63b8ff" d="M390.56,-892.36C375.23,-913.24 347.71,-946.34 316,-964.5 305.89,-970.29 293.99,-974.23 282.69,-976.9"/>
<polygon fill="#63b8ff" stroke="#63b8ff" points="393.25,-894.62 396.2,-884.44 387.55,-890.56 393.25,-894.62"/>
</g>
<!-- Node21 -->
<g id="node21" class="node">
<title>Node21</title>
<g id="a_node21"><a xlink:href="TransmitterCode_2src_2main_8cpp.html#a7d321cdde32c31b15ca1080fda6743c8" target="_top" xlink:title=" ">
<polygon fill="white" stroke="#666666" points="316,-955 164,-955 164,-936 316,-936 316,-955"/>
<text text-anchor="middle" x="240" y="-943" font-family="Helvetica,sans-Serif" font-size="10.00">WarnUserOfVersionsMismatch</text>
</a>
</g>
</g>
<!-- Node19&#45;&gt;Node21 -->
<g id="edge28" class="edge">
<title>Node19&#45;&gt;Node21</title>
<path fill="none" stroke="#63b8ff" d="M381.46,-889.85C364.38,-901.82 339.7,-917.64 316,-927.5 308.46,-930.64 300.25,-933.3 292.13,-935.54"/>
<polygon fill="#63b8ff" stroke="#63b8ff" points="383.26,-892.87 389.35,-884.2 379.18,-887.18 383.26,-892.87"/>
</g>
<!-- Node22 -->
<g id="node22" class="node">
<title>Node22</title>
<g id="a_node22"><a xlink:href="TransmitterCode_2src_2main_8cpp.html#ad496cd10d726d7c5757d01a922c2aa25" target="_top" xlink:title=" ">
<polygon fill="#fff0f0" stroke="red" points="128,-955 0,-955 0,-936 128,-936 128,-955"/>
<text text-anchor="middle" x="64" y="-943" font-family="Helvetica,sans-Serif" font-size="10.00">CompareVersionNumbers</text>
</a>
</g>
</g>
<!-- Node21&#45;&gt;Node22 -->
<g id="edge29" class="edge">
<title>Node21&#45;&gt;Node22</title>
<path fill="none" stroke="#63b8ff" d="M152.34,-945.5C144.28,-945.5 136.22,-945.5 128.43,-945.5"/>
<polygon fill="#63b8ff" stroke="#63b8ff" points="152.18,-949 162.18,-945.5 152.18,-942 152.18,-949"/>
</g>
<!-- Node28&#45;&gt;Node6 -->
<g id="edge34" class="edge">
<title>Node28&#45;&gt;Node6</title>
<path fill="none" stroke="#63b8ff" d="M536.61,-594.29C515.14,-583.18 484.73,-568.23 457,-557.5 396.02,-533.91 379.04,-532.87 316,-515.5 304.86,-512.43 292.74,-509.28 281.56,-506.45"/>
<polygon fill="#63b8ff" stroke="#63b8ff" points="534.85,-597.32 545.33,-598.86 538.09,-591.12 534.85,-597.32"/>
</g>
<!-- Node28&#45;&gt;Node8 -->
<g id="edge32" class="edge">
<title>Node28&#45;&gt;Node8</title>
<path fill="none" stroke="#63b8ff" d="M557.45,-629.58C543.17,-664.9 508.93,-738.31 457,-779.5 452.99,-782.68 448.38,-785.32 443.61,-787.5"/>
<polygon fill="#63b8ff" stroke="#63b8ff" points="560.59,-631.16 560.97,-620.57 554.07,-628.61 560.59,-631.16"/>
</g>
<!-- Node28&#45;&gt;Node10 -->
<g id="edge33" class="edge">
<title>Node28&#45;&gt;Node10</title>
<path fill="none" stroke="#63b8ff" d="M551.56,-628.53C528.11,-661.27 480.05,-726.31 457,-742.5 452.51,-745.66 447.4,-748.31 442.2,-750.52"/>
<polygon fill="#63b8ff" stroke="#63b8ff" points="554.16,-630.91 557.11,-620.73 548.46,-626.85 554.16,-630.91"/>
</g>
<!-- Node30 -->
<g id="node25" class="node">
<title>Node30</title>
<g id="a_node25"><a xlink:href="transceiver_8h.html#a494cb4acb30856d1f53f08df1b80c41b" target="_top" xlink:title=" ">
<polygon fill="white" stroke="#666666" points="1305,-731 1186,-731 1186,-712 1305,-712 1305,-731"/>
<text text-anchor="middle" x="1245.5" y="-719" font-family="Helvetica,sans-Serif" font-size="10.00">GetModelsMacAddress</text>
</a>
</g>
</g>
<!-- Node29&#45;&gt;Node30 -->
<g id="edge36" class="edge">
<title>Node29&#45;&gt;Node30</title>
<path fill="none" stroke="#63b8ff" d="M1329.42,-721.5C1321.48,-721.5 1313.37,-721.5 1305.49,-721.5"/>
<polygon fill="#63b8ff" stroke="#63b8ff" points="1329.35,-725 1339.35,-721.5 1329.35,-718 1329.35,-725"/>
</g>
<!-- Node24 -->
<g id="node26" class="node">
<title>Node24</title>
<g id="a_node26"><a xlink:href="transceiver_8h.html#a694f4f5a0147f4dc29b0bc1a8951547d" target="_top" xlink:title=" ">
<polygon fill="white" stroke="#666666" points="1141.5,-731 1047.5,-731 1047.5,-712 1141.5,-712 1141.5,-731"/>
<text text-anchor="middle" x="1094.5" y="-719" font-family="Helvetica,sans-Serif" font-size="10.00">ParseAckPayload</text>
</a>
</g>
</g>
<!-- Node30&#45;&gt;Node24 -->
<g id="edge37" class="edge">
<title>Node30&#45;&gt;Node24</title>
<path fill="none" stroke="#63b8ff" d="M1174.16,-721.5C1163.09,-721.5 1151.9,-721.5 1141.56,-721.5"/>
<polygon fill="#63b8ff" stroke="#63b8ff" points="1174.1,-725 1184.1,-721.5 1174.1,-718 1174.1,-725"/>
</g>
<!-- Node25 -->
<g id="node27" class="node">
<title>Node25</title>
<g id="a_node27"><a xlink:href="transceiver_8h.html#a1c11bb6771548de7d96723045b922620" target="_top" xlink:title=" ">
<polygon fill="white" stroke="#666666" points="1003,-731 907,-731 907,-712 1003,-712 1003,-731"/>
<text text-anchor="middle" x="955" y="-719" font-family="Helvetica,sans-Serif" font-size="10.00">SuccessfulPacket</text>
</a>
</g>
</g>
<!-- Node24&#45;&gt;Node25 -->
<g id="edge38" class="edge">
<title>Node24&#45;&gt;Node25</title>
<path fill="none" stroke="#63b8ff" d="M1036.11,-721.5C1025.16,-721.5 1013.81,-721.5 1003.22,-721.5"/>
<polygon fill="#63b8ff" stroke="#63b8ff" points="1035.82,-725 1045.82,-721.5 1035.82,-718 1035.82,-725"/>
</g>
<!-- Node26 -->
<g id="node28" class="node">
<title>Node26</title>
<g id="a_node28"><a xlink:href="transceiver_8h.html#a049bfb836e7aa4a3a48a1a4bd225fafc" target="_top" xlink:title=" ">
<polygon fill="#fff0f0" stroke="red" points="871,-731 812,-731 812,-712 871,-712 871,-731"/>
<text text-anchor="middle" x="841.5" y="-719" font-family="Helvetica,sans-Serif" font-size="10.00">SendData</text>
</a>
</g>
</g>
<!-- Node25&#45;&gt;Node26 -->
<g id="edge39" class="edge">
<title>Node25&#45;&gt;Node26</title>
<path fill="none" stroke="#63b8ff" d="M895.39,-721.5C887.07,-721.5 878.83,-721.5 871.43,-721.5"/>
<polygon fill="#63b8ff" stroke="#63b8ff" points="895.2,-725 905.2,-721.5 895.2,-718 895.2,-725"/>
</g>
<!-- Node26&#45;&gt;Node2 -->
<g id="edge40" class="edge">
<title>Node26&#45;&gt;Node2</title>
<path fill="none" stroke="#63b8ff" d="M800.97,-734.68C786.36,-739.55 770.07,-744.98 756.45,-749.52"/>
<polygon fill="#63b8ff" stroke="#63b8ff" points="801.92,-738.05 810.3,-731.57 799.7,-731.41 801.92,-738.05"/>
</g>
<!-- Node26&#45;&gt;Node7 -->
<g id="edge41" class="edge">
<title>Node26&#45;&gt;Node7</title>
<path fill="none" stroke="#63b8ff" d="M800.35,-718.51C766.47,-715.32 716.93,-709.08 675,-697.5 658.29,-692.89 655.4,-688.12 639,-682.5 498.26,-634.23 460.15,-631.36 316,-594.5 228.1,-572.03 122.21,-547.56 81.79,-538.32"/>
<polygon fill="#63b8ff" stroke="#63b8ff" points="799.87,-721.98 810.14,-719.38 800.49,-715.01 799.87,-721.98"/>
</g>
<!-- Node26&#45;&gt;Node19 -->
<g id="edge42" class="edge">
<title>Node26&#45;&gt;Node19</title>
<path fill="none" stroke="#63b8ff" d="M823.21,-739.49C810.87,-751.61 793.43,-767.37 776,-778.5 719.97,-814.27 702.87,-820.08 639,-838.5 565.15,-859.8 474.22,-868.67 430.85,-871.9"/>
<polygon fill="#63b8ff" stroke="#63b8ff" points="825.59,-742.05 830.15,-732.49 820.63,-737.12 825.59,-742.05"/>
</g>
<!-- Node32&#45;&gt;Node6 -->
<g id="edge44" class="edge">
<title>Node32&#45;&gt;Node6</title>
<path fill="none" stroke="#63b8ff" d="M1487.63,-344.5C1433.77,-344.5 1332.66,-344.5 1246.5,-344.5 1246.5,-344.5 1246.5,-344.5 565,-344.5 430.79,-344.5 292.4,-452.71 252.43,-486.53"/>
<polygon fill="#63b8ff" stroke="#63b8ff" points="1487.51,-348 1497.51,-344.5 1487.5,-341 1487.51,-348"/>
</g>
<!-- Node129 -->
<g id="node31" class="node">
<title>Node129</title>
<g id="a_node31"><a xlink:href="TransmitterCode_2src_2main_8cpp.html#a71f72bed656884a7e88b70f73f8d81a4" target="_top" xlink:title=" ">
<polygon fill="white" stroke="#666666" points="1568.5,-132 1485.5,-132 1485.5,-113 1568.5,-113 1568.5,-132"/>
<text text-anchor="middle" x="1527" y="-120" font-family="Helvetica,sans-Serif" font-size="10.00">AileronLeftTrim</text>
</a>
</g>
</g>
<!-- Node128&#45;&gt;Node129 -->
<g id="edge46" class="edge">
<title>Node128&#45;&gt;Node129</title>
<path fill="none" stroke="#63b8ff" d="M1631.37,-164.1C1614.54,-156.87 1593.75,-148.07 1575,-140.5 1568.36,-137.82 1561.15,-135.01 1554.41,-132.43"/>
<polygon fill="#63b8ff" stroke="#63b8ff" points="1629.83,-167.25 1640.4,-167.99 1632.6,-160.82 1629.83,-167.25"/>
</g>
<!-- Node130 -->
<g id="node32" class="node">
<title>Node130</title>
<g id="a_node32"><a xlink:href="TransmitterCode_2src_2main_8cpp.html#ae734c00c145b79aa75e175155f8dd4a7" target="_top" xlink:title=" ">
<polygon fill="white" stroke="#666666" points="1571.5,-56 1482.5,-56 1482.5,-37 1571.5,-37 1571.5,-56"/>
<text text-anchor="middle" x="1527" y="-44" font-family="Helvetica,sans-Serif" font-size="10.00">AileronRightTrim</text>
</a>
</g>
</g>
<!-- Node128&#45;&gt;Node130 -->
<g id="edge47" class="edge">
<title>Node128&#45;&gt;Node130</title>
<path fill="none" stroke="#63b8ff" d="M1652.15,-159.23C1636.46,-135.9 1607.47,-96.51 1575,-70.5 1568.14,-65 1559.81,-60.25 1552.08,-56.46"/>
<polygon fill="#63b8ff" stroke="#63b8ff" points="1649.14,-161.02 1657.56,-167.45 1654.99,-157.17 1649.14,-161.02"/>
</g>
<!-- Node131 -->
<g id="node33" class="node">
<title>Node131</title>
<g id="a_node33"><a xlink:href="Trims_8h.html#add643409678258cabdb0aa1ae76d802a" target="_top" xlink:title=" ">
<polygon fill="white" stroke="#666666" points="1150,-150 1039,-150 1039,-131 1150,-131 1150,-150"/>
<text text-anchor="middle" x="1094.5" y="-138" font-family="Helvetica,sans-Serif" font-size="10.00">CheckHardwareTrims</text>
</a>
</g>
</g>
<!-- Node128&#45;&gt;Node131 -->
<g id="edge48" class="edge">
<title>Node128&#45;&gt;Node131</title>
<path fill="none" stroke="#63b8ff" d="M1649.58,-160.06C1633.44,-141.71 1605.83,-114.71 1575,-103.5 1412.38,-44.37 1198.8,-105.23 1123.35,-130.55"/>
<polygon fill="#63b8ff" stroke="#63b8ff" points="1646.83,-162.22 1655.96,-167.59 1652.17,-157.69 1646.83,-162.22"/>
</g>
<!-- Node132 -->
<g id="node34" class="node">
<title>Node132</title>
<g id="a_node34"><a xlink:href="TransmitterCode_2src_2main_8cpp.html#a84a0468d2a49718c86cfad2b845abd62" target="_top" xlink:title=" ">
<polygon fill="white" stroke="#666666" points="1575,-19 1479,-19 1479,0 1575,0 1575,-19"/>
<text text-anchor="middle" x="1527" y="-7" font-family="Helvetica,sans-Serif" font-size="10.00">ElevatorDownTrim</text>
</a>
</g>
</g>
<!-- Node128&#45;&gt;Node132 -->
<g id="edge50" class="edge">
<title>Node128&#45;&gt;Node132</title>
<path fill="none" stroke="#63b8ff" d="M1657.5,-158.19C1645.47,-126.14 1617.96,-63.74 1575,-27.5 1571.13,-24.23 1566.6,-21.52 1561.9,-19.28"/>
<polygon fill="#63b8ff" stroke="#63b8ff" points="1654.15,-159.23 1660.84,-167.45 1660.74,-156.86 1654.15,-159.23"/>
</g>
<!-- Node133 -->
<g id="node35" class="node">
<title>Node133</title>
<g id="a_node35"><a xlink:href="TransmitterCode_2src_2main_8cpp.html#a01241a41f1b1e25cbe93e068dd3d063b" target="_top" xlink:title=" ">
<polygon fill="white" stroke="#666666" points="1569,-317 1485,-317 1485,-298 1569,-298 1569,-317"/>
<text text-anchor="middle" x="1527" y="-305" font-family="Helvetica,sans-Serif" font-size="10.00">ElevatorUpTrim</text>
</a>
</g>
</g>
<!-- Node128&#45;&gt;Node133 -->
<g id="edge51" class="edge">
<title>Node128&#45;&gt;Node133</title>
<path fill="none" stroke="#63b8ff" d="M1653.39,-197.85C1638.44,-222.3 1609.7,-264.25 1575,-289.5 1570.62,-292.69 1565.6,-295.39 1560.52,-297.65"/>
<polygon fill="#63b8ff" stroke="#63b8ff" points="1656.22,-199.93 1658.32,-189.55 1650.2,-196.36 1656.22,-199.93"/>
</g>
<!-- Node134 -->
<g id="node36" class="node">
<title>Node134</title>
<g id="a_node36"><a xlink:href="TransmitterCode_2src_2main_8cpp.html#ae96314eac241d2716e7ebda1fc658ec4" target="_top" xlink:title=" ">
<polygon fill="white" stroke="#666666" points="1569,-280 1485,-280 1485,-261 1569,-261 1569,-280"/>
<text text-anchor="middle" x="1527" y="-268" font-family="Helvetica,sans-Serif" font-size="10.00">RudderLeftTrim</text>
</a>
</g>
</g>
<!-- Node128&#45;&gt;Node134 -->
<g id="edge52" class="edge">
<title>Node128&#45;&gt;Node134</title>
<path fill="none" stroke="#63b8ff" d="M1646.86,-196.08C1629.7,-212.42 1602.28,-236.58 1575,-252.5 1569.72,-255.58 1563.81,-258.33 1558.01,-260.68"/>
<polygon fill="#63b8ff" stroke="#63b8ff" points="1649.02,-198.86 1653.76,-189.38 1644.15,-193.84 1649.02,-198.86"/>
</g>
<!-- Node135 -->
<g id="node37" class="node">
<title>Node135</title>
<g id="a_node37"><a xlink:href="TransmitterCode_2src_2main_8cpp.html#a77a49849e3aa20dc1aadce0fe00de798" target="_top" xlink:title=" ">
<polygon fill="white" stroke="#666666" points="1571.5,-243 1482.5,-243 1482.5,-224 1571.5,-224 1571.5,-243"/>
<text text-anchor="middle" x="1527" y="-231" font-family="Helvetica,sans-Serif" font-size="10.00">RudderRightTrim</text>
</a>
</g>
</g>
<!-- Node128&#45;&gt;Node135 -->
<g id="edge53" class="edge">
<title>Node128&#45;&gt;Node135</title>
<path fill="none" stroke="#63b8ff" d="M1629.29,-192.69C1605.22,-202.38 1573.93,-214.99 1552.54,-223.61"/>
<polygon fill="#63b8ff" stroke="#63b8ff" points="1630.41,-196.01 1638.38,-189.03 1627.79,-189.52 1630.41,-196.01"/>
</g>
<!-- Node136 -->
<g id="node38" class="node">
<title>Node136</title>
<g id="a_node38"><a xlink:href="TransmitterCode_2src_2main_8cpp.html#a4f13231fd2e430935dbee50a83078018" target="_top" xlink:title=" ">
<polygon fill="white" stroke="#666666" points="1574,-206 1480,-206 1480,-187 1574,-187 1574,-206"/>
<text text-anchor="middle" x="1527" y="-194" font-family="Helvetica,sans-Serif" font-size="10.00">ThrottleDownTrim</text>
</a>
</g>
</g>
<!-- Node128&#45;&gt;Node136 -->
<g id="edge54" class="edge">
<title>Node128&#45;&gt;Node136</title>
<path fill="none" stroke="#63b8ff" d="M1621.79,-184.13C1606.77,-186.11 1589.82,-188.35 1574.5,-190.37"/>
<polygon fill="#63b8ff" stroke="#63b8ff" points="1621.88,-187.65 1631.34,-182.87 1620.97,-180.71 1621.88,-187.65"/>
</g>
<!-- Node137 -->
<g id="node39" class="node">
<title>Node137</title>
<g id="a_node39"><a xlink:href="TransmitterCode_2src_2main_8cpp.html#abe827a1e4c23eb79d1771da1e9393178" target="_top" xlink:title=" ">
<polygon fill="white" stroke="#666666" points="1568,-169 1486,-169 1486,-150 1568,-150 1568,-169"/>
<text text-anchor="middle" x="1527" y="-157" font-family="Helvetica,sans-Serif" font-size="10.00">ThrottleUpTrim</text>
</a>
</g>
</g>
<!-- Node128&#45;&gt;Node137 -->
<g id="edge55" class="edge">
<title>Node128&#45;&gt;Node137</title>
<path fill="none" stroke="#63b8ff" d="M1621.52,-172.52C1604.5,-170.15 1585.05,-167.44 1568.31,-165.11"/>
<polygon fill="#63b8ff" stroke="#63b8ff" points="1620.95,-175.97 1631.34,-173.88 1621.92,-169.04 1620.95,-175.97"/>
</g>
<!-- Node131&#45;&gt;Node6 -->
<g id="edge49" class="edge">
<title>Node131&#45;&gt;Node6</title>
<path fill="none" stroke="#63b8ff" d="M1072.14,-157.32C1030.5,-188.36 934.5,-251.5 842.5,-251.5 842.5,-251.5 842.5,-251.5 565,-251.5 464.03,-251.5 431.25,-267.94 352,-330.5 294.86,-375.61 256.77,-458.42 244.93,-486.72"/>
<polygon fill="#63b8ff" stroke="#63b8ff" points="1074.25,-160.11 1080.09,-151.27 1070.01,-154.54 1074.25,-160.11"/>
</g>
<!-- Node143&#45;&gt;Node32 -->
<g id="edge57" class="edge">
<title>Node143&#45;&gt;Node32</title>
<path fill="none" stroke="#63b8ff" d="M1617.7,-319.53C1596.78,-325.35 1572.87,-332.01 1555,-336.98"/>
<polygon fill="#63b8ff" stroke="#63b8ff" points="1618.48,-322.94 1627.18,-316.89 1616.61,-316.2 1618.48,-322.94"/>
</g>
<!-- Node148&#45;&gt;Node32 -->
<g id="edge60" class="edge">
<title>Node148&#45;&gt;Node32</title>
<path fill="none" stroke="#63b8ff" d="M1620.88,-370.36C1599.21,-364.32 1573.72,-357.23 1554.93,-352"/>
<polygon fill="#63b8ff" stroke="#63b8ff" points="1619.77,-373.68 1630.35,-372.99 1621.65,-366.94 1619.77,-373.68"/>
</g>
<!-- Node91&#45;&gt;Node14 -->
<g id="edge75" class="edge">
<title>Node91&#45;&gt;Node14</title>
<path fill="none" stroke="#63b8ff" d="M1624.05,-445.05C1580.08,-431.19 1507.45,-410.52 1443,-402.5 1398.01,-396.9 1386.13,-398.23 1341,-402.5 1327.44,-403.78 494.5,-563.78 287.28,-603.6"/>
<polygon fill="#63b8ff" stroke="#63b8ff" points="1622.82,-448.33 1633.41,-448.04 1624.95,-441.66 1622.82,-448.33"/>
</g>
<!-- Node70 -->
<g id="node44" class="node">
<title>Node70</title>
<g id="a_node44"><a xlink:href="TransmitterCode_2src_2main_8cpp.html#a2d16d1f4802d4029bc8933a18d213beb" target="_top" xlink:title=" ">
<polygon fill="white" stroke="#666666" points="1568,-543 1486,-543 1486,-524 1568,-524 1568,-543"/>
<text text-anchor="middle" x="1527" y="-531" font-family="Helvetica,sans-Serif" font-size="10.00">GotoFrontView</text>
</a>
</g>
</g>
<!-- Node91&#45;&gt;Node70 -->
<g id="edge62" class="edge">
<title>Node91&#45;&gt;Node70</title>
<path fill="none" stroke="#63b8ff" d="M1636.31,-473.99C1609.11,-488.94 1568.76,-511.1 1545.77,-523.74"/>
<polygon fill="#63b8ff" stroke="#63b8ff" points="1637.97,-477.07 1645.05,-469.19 1634.6,-470.94 1637.97,-477.07"/>
</g>
<!-- Node92 -->
<g id="node50" class="node">
<title>Node92</title>
<g id="a_node50"><a xlink:href="TransmitterCode_2src_2main_8cpp.html#aa65533089f2afae4789e1f1882ec78ad" target="_top" xlink:title=" ">
<polygon fill="white" stroke="#666666" points="1573,-468 1481,-468 1481,-449 1573,-449 1573,-468"/>
<text text-anchor="middle" x="1527" y="-456" font-family="Helvetica,sans-Serif" font-size="10.00">RationaliseBuddy</text>
</a>
</g>
</g>
<!-- Node91&#45;&gt;Node92 -->
<g id="edge72" class="edge">
<title>Node91&#45;&gt;Node92</title>
<path fill="none" stroke="#63b8ff" d="M1607.75,-458.5C1596.24,-458.5 1584.29,-458.5 1573.25,-458.5"/>
<polygon fill="#63b8ff" stroke="#63b8ff" points="1607.53,-462 1617.53,-458.5 1607.53,-455 1607.53,-462"/>
</g>
<!-- Node70&#45;&gt;Node13 -->
<g id="edge69" class="edge">
<title>Node70&#45;&gt;Node13</title>
<path fill="none" stroke="#63b8ff" d="M1474.59,-521.41C1464.17,-519.23 1453.27,-517.13 1443,-515.5 1356.3,-501.73 1334.28,-495.5 1246.5,-495.5 1246.5,-495.5 1246.5,-495.5 565,-495.5 462.06,-495.5 341.98,-514.65 280.98,-525.76"/>
<polygon fill="#63b8ff" stroke="#63b8ff" points="1473.65,-524.79 1484.16,-523.48 1475.13,-517.95 1473.65,-524.79"/>
</g>
<!-- Node70&#45;&gt;Node28 -->
<g id="edge63" class="edge">
<title>Node70&#45;&gt;Node28</title>
<path fill="none" stroke="#63b8ff" d="M1514.92,-552.91C1501.17,-574.96 1475.51,-610.02 1443,-626.5 1364.74,-666.18 1334.24,-645.5 1246.5,-645.5 1246.5,-645.5 1246.5,-645.5 840.5,-645.5 760.28,-645.5 667.95,-630.09 613.7,-619.43"/>
<polygon fill="#63b8ff" stroke="#63b8ff" points="1517.78,-554.95 1519.92,-544.57 1511.78,-551.35 1517.78,-554.95"/>
</g>
<!-- Node70&#45;&gt;Node29 -->
<g id="edge64" class="edge">
<title>Node70&#45;&gt;Node29</title>
<path fill="none" stroke="#63b8ff" d="M1514,-552.95C1498.34,-578.04 1469.77,-622.82 1443,-659.5 1429.14,-678.49 1411.64,-699.6 1401.44,-711.64"/>
<polygon fill="#63b8ff" stroke="#63b8ff" points="1516.96,-554.82 1519.26,-544.48 1511.01,-551.13 1516.96,-554.82"/>
</g>
<!-- Node70&#45;&gt;Node67 -->
<g id="edge70" class="edge">
<title>Node70&#45;&gt;Node67</title>
<path fill="none" stroke="#63b8ff" d="M1510.49,-515C1488.78,-489.24 1451.05,-445.07 1443,-439.5 1433.84,-433.16 1422.28,-428.59 1412.58,-425.52"/>
<polygon fill="#63b8ff" stroke="#63b8ff" points="1507.6,-516.99 1516.71,-522.39 1512.95,-512.49 1507.6,-516.99"/>
</g>
<!-- Node42 -->
<g id="node45" class="node">
<title>Node42</title>
<g id="a_node45"><a xlink:href="TransmitterCode_2src_2main_8cpp.html#a16c65917a148c7f6c17babf11e977b69" target="_top" xlink:title=" ">
<polygon fill="white" stroke="#666666" points="1433,-467 1351,-467 1351,-448 1433,-448 1433,-467"/>
<text text-anchor="middle" x="1392" y="-455" font-family="Helvetica,sans-Serif" font-size="10.00">EndBuddyView</text>
</a>
</g>
</g>
<!-- Node70&#45;&gt;Node42 -->
<g id="edge65" class="edge">
<title>Node70&#45;&gt;Node42</title>
<path fill="none" stroke="#63b8ff" d="M1501.97,-517.44C1485.62,-506.77 1463.35,-492.71 1443,-481.5 1434.06,-476.57 1423.95,-471.61 1415.17,-467.49"/>
<polygon fill="#63b8ff" stroke="#63b8ff" points="1499.77,-520.18 1510.04,-522.76 1503.62,-514.34 1499.77,-520.18"/>
</g>
<!-- Node71 -->
<g id="node46" class="node">
<title>Node71</title>
<g id="a_node46"><a xlink:href="TransmitterCode_2src_2main_8cpp.html#a2149418bb038e4a09266523c3bde2fce" target="_top" xlink:title=" ">
<polygon fill="white" stroke="#666666" points="1434.5,-580 1349.5,-580 1349.5,-561 1434.5,-561 1434.5,-580"/>
<text text-anchor="middle" x="1392" y="-568" font-family="Helvetica,sans-Serif" font-size="10.00">EndModelSetup</text>
</a>
</g>
</g>
<!-- Node70&#45;&gt;Node71 -->
<g id="edge66" class="edge">
<title>Node70&#45;&gt;Node71</title>
<path fill="none" stroke="#63b8ff" d="M1479.7,-546.38C1462.99,-551.03 1444.41,-556.2 1428.74,-560.56"/>
<polygon fill="#63b8ff" stroke="#63b8ff" points="1480.2,-549.87 1488.9,-543.82 1478.33,-543.13 1480.2,-549.87"/>
</g>
<!-- Node72 -->
<g id="node47" class="node">
<title>Node72</title>
<g id="a_node47"><a xlink:href="BuddyWireless_8h.html#ab0ba1642fb6c43525579b989c7b60dad" target="_top" xlink:title=" ">
<polygon fill="white" stroke="#666666" points="1440,-543 1344,-543 1344,-524 1440,-524 1440,-543"/>
<text text-anchor="middle" x="1392" y="-531" font-family="Helvetica,sans-Serif" font-size="10.00">LoadCorrectModel</text>
</a>
</g>
</g>
<!-- Node70&#45;&gt;Node72 -->
<g id="edge67" class="edge">
<title>Node70&#45;&gt;Node72</title>
<path fill="none" stroke="#63b8ff" d="M1474.29,-533.5C1463.04,-533.5 1451.2,-533.5 1440.14,-533.5"/>
<polygon fill="#63b8ff" stroke="#63b8ff" points="1474.22,-537 1484.22,-533.5 1474.22,-530 1474.22,-537"/>
</g>
<!-- Node75 -->
<g id="node49" class="node">
<title>Node75</title>
<g id="a_node49"><a xlink:href="TransmitterCode_2src_2main_8cpp.html#a789aa2c47bd0fb1851c64e6b2e0c3f85" target="_top" xlink:title=" ">
<polygon fill="white" stroke="#666666" points="1440.5,-617 1343.5,-617 1343.5,-598 1440.5,-598 1440.5,-617"/>
<text text-anchor="middle" x="1392" y="-605" font-family="Helvetica,sans-Serif" font-size="10.00">ShowScreenAgain</text>
</a>
</g>
</g>
<!-- Node70&#45;&gt;Node75 -->
<g id="edge71" class="edge">
<title>Node70&#45;&gt;Node75</title>
<path fill="none" stroke="#63b8ff" d="M1504.24,-550.38C1488.01,-562.41 1464.95,-578.36 1443,-589.5 1437.16,-592.46 1430.71,-595.17 1424.44,-597.53"/>
<polygon fill="#63b8ff" stroke="#63b8ff" points="1506.31,-553.2 1512.18,-544.38 1502.09,-547.62 1506.31,-553.2"/>
</g>
<!-- Node73 -->
<g id="node48" class="node">
<title>Node73</title>
<g id="a_node48"><a xlink:href="BuddyWireless_8h.html#af63784896d400ae2d75d57852e143ca1" target="_top" xlink:title=" ">
<polygon fill="#fff0f0" stroke="red" points="1293,-543 1198,-543 1198,-524 1293,-524 1293,-543"/>
<text text-anchor="middle" x="1245.5" y="-531" font-family="Helvetica,sans-Serif" font-size="10.00">GetSpecialPacket</text>
</a>
</g>
</g>
<!-- Node72&#45;&gt;Node73 -->
<g id="edge68" class="edge">
<title>Node72&#45;&gt;Node73</title>
<path fill="none" stroke="#63b8ff" d="M1332.47,-533.5C1319.48,-533.5 1305.88,-533.5 1293.43,-533.5"/>
<polygon fill="#63b8ff" stroke="#63b8ff" points="1332.17,-537 1342.17,-533.5 1332.17,-530 1332.17,-537"/>
</g>
<!-- Node92&#45;&gt;Node67 -->
<g id="edge74" class="edge">
<title>Node92&#45;&gt;Node67</title>
<path fill="none" stroke="#63b8ff" d="M1480.13,-445.4C1457.18,-438.84 1430.58,-431.24 1412.87,-426.18"/>
<polygon fill="#63b8ff" stroke="#63b8ff" points="1479.02,-448.72 1489.6,-448.1 1480.95,-441.99 1479.02,-448.72"/>
</g>
<!-- Node92&#45;&gt;Node42 -->
<g id="edge73" class="edge">
<title>Node92&#45;&gt;Node42</title>
<path fill="none" stroke="#63b8ff" d="M1469.21,-458.07C1457.13,-457.98 1444.61,-457.89 1433.3,-457.8"/>
<polygon fill="#63b8ff" stroke="#63b8ff" points="1469.06,-461.57 1479.09,-458.15 1469.11,-454.57 1469.06,-461.57"/>
</g>
</g>
</svg>
