<?xml version="1.0" encoding="UTF-8" standalone="no"?>
<!DOCTYPE svg PUBLIC "-//W3C//DTD SVG 1.1//EN"
 "http://www.w3.org/Graphics/SVG/1.1/DTD/svg11.dtd">
<!-- Generated by graphviz version 7.0.5 (20221223.1930)
 -->
<!-- Title: CheckGapsLength Pages: 1 -->
<svg width="824pt" height="131pt"
 viewBox="0.00 0.00 824.00 130.50" xmlns="http://www.w3.org/2000/svg" xmlns:xlink="http://www.w3.org/1999/xlink">
<g id="graph0" class="graph" transform="scale(1 1) rotate(0) translate(4 126.5)">
<title>CheckGapsLength</title>
<!-- Node1 -->
<g id="node1" class="node">
<title>Node1</title>
<g id="a_node1"><a xlink:title=" ">
<polygon fill="#999999" stroke="#666666" points="98,-28.5 0,-28.5 0,-9.5 98,-9.5 98,-28.5"/>
<text text-anchor="middle" x="49" y="-16.5" font-family="Helvetica,sans-Serif" font-size="10.00">CheckGapsLength</text>
</a>
</g>
</g>
<!-- Node2 -->
<g id="node2" class="node">
<title>Node2</title>
<g id="a_node2"><a xlink:href="TransmitterCode_2src_2main_8cpp.html#a1fadc7cdd854f8b3628b622da5417d8b" target="_top" xlink:title=" ">
<polygon fill="white" stroke="#666666" points="204,-28.5 134,-28.5 134,-9.5 204,-9.5 204,-28.5"/>
<text text-anchor="middle" x="169" y="-16.5" font-family="Helvetica,sans-Serif" font-size="10.00">LogThisGap</text>
</a>
</g>
</g>
<!-- Node1&#45;&gt;Node2 -->
<g id="edge1" class="edge">
<title>Node1&#45;&gt;Node2</title>
<path fill="none" stroke="#63b8ff" d="M98.34,-19C106.29,-19 114.51,-19 122.4,-19"/>
<polygon fill="#63b8ff" stroke="#63b8ff" points="122.12,-22.5 132.12,-19 122.12,-15.5 122.12,-22.5"/>
</g>
<!-- Node3 -->
<g id="node3" class="node">
<title>Node3</title>
<g id="a_node3"><a xlink:href="TransmitterCode_2src_2main_8cpp.html#add8d8f400f1c1c4a5add52736cdf94ca" target="_top" xlink:title=" ">
<polygon fill="white" stroke="#666666" points="292,-66.5 240,-66.5 240,-47.5 292,-47.5 292,-66.5"/>
<text text-anchor="middle" x="266" y="-54.5" font-family="Helvetica,sans-Serif" font-size="10.00">LogText</text>
</a>
</g>
</g>
<!-- Node2&#45;&gt;Node3 -->
<g id="edge2" class="edge">
<title>Node2&#45;&gt;Node3</title>
<path fill="none" stroke="#63b8ff" d="M194.96,-28.98C205.54,-33.22 218.07,-38.23 229.58,-42.83"/>
<polygon fill="#63b8ff" stroke="#63b8ff" points="228.22,-46.06 238.8,-46.52 230.82,-39.56 228.22,-46.06"/>
</g>
<!-- Node9 -->
<g id="node9" class="node">
<title>Node9</title>
<g id="a_node9"><a xlink:href="Utilities_8h.html#a590a9174319918d7e3d7baca323fcf26" target="_top" xlink:title=" ">
<polygon fill="white" stroke="#666666" points="789,-47.5 760,-47.5 760,-28.5 789,-28.5 789,-47.5"/>
<text text-anchor="middle" x="774.5" y="-35.5" font-family="Helvetica,sans-Serif" font-size="10.00">Str</text>
</a>
</g>
</g>
<!-- Node2&#45;&gt;Node9 -->
<g id="edge15" class="edge">
<title>Node2&#45;&gt;Node9</title>
<path fill="none" stroke="#63b8ff" d="M204.22,-13.81C244.32,-8.18 312.82,0 372,0 372,0 372,0 509,0 592.98,0 614.26,-4.62 697,-19 714.45,-22.03 733.8,-26.85 748.68,-30.88"/>
<polygon fill="#63b8ff" stroke="#63b8ff" points="747.5,-34.19 758.07,-33.49 749.37,-27.44 747.5,-34.19"/>
</g>
<!-- Node4 -->
<g id="node4" class="node">
<title>Node4</title>
<g id="a_node4"><a xlink:href="TransmitterCode_2src_2main_8cpp.html#a6f003363493fc53b69f9efc1f447a6a1" target="_top" xlink:title=" ">
<polygon fill="white" stroke="#666666" points="410,-122.5 336,-122.5 336,-103.5 410,-103.5 410,-122.5"/>
<text text-anchor="middle" x="373" y="-110.5" font-family="Helvetica,sans-Serif" font-size="10.00">CloseLogFile</text>
</a>
</g>
</g>
<!-- Node3&#45;&gt;Node4 -->
<g id="edge3" class="edge">
<title>Node3&#45;&gt;Node4</title>
<path fill="none" stroke="#63b8ff" d="M281.71,-66.71C293.87,-74.54 311.71,-85.59 328,-94 330.91,-95.5 333.97,-96.99 337.06,-98.44"/>
<polygon fill="#63b8ff" stroke="#63b8ff" points="335.58,-101.61 346.13,-102.52 338.45,-95.22 335.58,-101.61"/>
</g>
<!-- Node5 -->
<g id="node5" class="node">
<title>Node5</title>
<g id="a_node5"><a xlink:href="TransmitterCode_2src_2main_8cpp.html#a99a51dbad5d686ca711e982f82cbcada" target="_top" xlink:title=" ">
<polygon fill="white" stroke="#666666" points="418,-85.5 328,-85.5 328,-66.5 418,-66.5 418,-85.5"/>
<text text-anchor="middle" x="373" y="-73.5" font-family="Helvetica,sans-Serif" font-size="10.00">LogFilePreamble</text>
</a>
</g>
</g>
<!-- Node3&#45;&gt;Node5 -->
<g id="edge4" class="edge">
<title>Node3&#45;&gt;Node5</title>
<path fill="none" stroke="#63b8ff" d="M292.42,-61.6C299.76,-62.93 308.08,-64.43 316.5,-65.96"/>
<polygon fill="#63b8ff" stroke="#63b8ff" points="315.6,-69.35 326.06,-67.69 316.85,-62.46 315.6,-69.35"/>
</g>
<!-- Node12 -->
<g id="node12" class="node">
<title>Node12</title>
<g id="a_node12"><a xlink:href="TransmitterCode_2src_2main_8cpp.html#a99154e537ca6e0ce5d538fddf0c2aab3" target="_top" xlink:title=" ">
<polygon fill="white" stroke="#666666" points="549.5,-47.5 466.5,-47.5 466.5,-28.5 549.5,-28.5 549.5,-47.5"/>
<text text-anchor="middle" x="508" y="-35.5" font-family="Helvetica,sans-Serif" font-size="10.00">WriteToLogFile</text>
</a>
</g>
</g>
<!-- Node3&#45;&gt;Node12 -->
<g id="edge14" class="edge">
<title>Node3&#45;&gt;Node12</title>
<path fill="none" stroke="#63b8ff" d="M292.23,-55C330.64,-51.96 404.61,-46.11 454.89,-42.13"/>
<polygon fill="#63b8ff" stroke="#63b8ff" points="454.98,-45.63 464.67,-41.35 454.42,-38.65 454.98,-45.63"/>
</g>
<!-- Node6 -->
<g id="node6" class="node">
<title>Node6</title>
<g id="a_node6"><a xlink:href="TransmitterCode_2src_2main_8cpp.html#ac45f2f949ccfa372a8cbab3ef0b8caa8" target="_top" xlink:title=" ">
<polygon fill="white" stroke="#666666" points="562,-84.5 454,-84.5 454,-65.5 562,-65.5 562,-84.5"/>
<text text-anchor="middle" x="508" y="-72.5" font-family="Helvetica,sans-Serif" font-size="10.00">CheckLogFileIsOpen</text>
</a>
</g>
</g>
<!-- Node5&#45;&gt;Node6 -->
<g id="edge5" class="edge">
<title>Node5&#45;&gt;Node6</title>
<path fill="none" stroke="#63b8ff" d="M418.29,-75.67C425.99,-75.61 434.14,-75.55 442.26,-75.49"/>
<polygon fill="#63b8ff" stroke="#63b8ff" points="442.18,-78.99 452.15,-75.41 442.13,-71.99 442.18,-78.99"/>
</g>
<!-- Node11 -->
<g id="node11" class="node">
<title>Node11</title>
<g id="a_node11"><a xlink:href="TransmitterCode_2src_2main_8cpp.html#a5d42b1fba153cc76dc96778cfb6f1a40" target="_top" xlink:title=" ">
<polygon fill="white" stroke="#666666" points="695,-121.5 600,-121.5 600,-102.5 695,-102.5 695,-121.5"/>
<text text-anchor="middle" x="647.5" y="-109.5" font-family="Helvetica,sans-Serif" font-size="10.00">CreateTimeStamp</text>
</a>
</g>
</g>
<!-- Node5&#45;&gt;Node11 -->
<g id="edge10" class="edge">
<title>Node5&#45;&gt;Node11</title>
<path fill="none" stroke="#63b8ff" d="M416.6,-85.97C428.64,-88.54 441.79,-91.11 454,-93 498.81,-99.95 549.91,-104.86 588.19,-107.94"/>
<polygon fill="#63b8ff" stroke="#63b8ff" points="587.89,-111.42 598.13,-108.72 588.43,-104.45 587.89,-111.42"/>
</g>
<!-- Node5&#45;&gt;Node12 -->
<g id="edge13" class="edge">
<title>Node5&#45;&gt;Node12</title>
<path fill="none" stroke="#63b8ff" d="M408.94,-66.02C424.98,-61.43 444.2,-55.94 461.36,-51.04"/>
<polygon fill="#63b8ff" stroke="#63b8ff" points="462.18,-54.45 470.83,-48.33 460.26,-47.72 462.18,-54.45"/>
</g>
<!-- Node7 -->
<g id="node7" class="node">
<title>Node7</title>
<g id="a_node7"><a xlink:href="TransmitterCode_2src_2main_8cpp.html#a05c7b4e0b98f9b97eebf9617442de6a5" target="_top" xlink:title=" ">
<polygon fill="white" stroke="#666666" points="697,-47.5 598,-47.5 598,-28.5 697,-28.5 697,-47.5"/>
<text text-anchor="middle" x="647.5" y="-35.5" font-family="Helvetica,sans-Serif" font-size="10.00">MakeLogFileName</text>
</a>
</g>
</g>
<!-- Node6&#45;&gt;Node7 -->
<g id="edge6" class="edge">
<title>Node6&#45;&gt;Node7</title>
<path fill="none" stroke="#63b8ff" d="M545.85,-65.08C562.03,-60.73 581.24,-55.56 598.53,-50.91"/>
<polygon fill="#63b8ff" stroke="#63b8ff" points="599.34,-54.31 608.09,-48.34 597.52,-47.55 599.34,-54.31"/>
</g>
<!-- Node10 -->
<g id="node10" class="node">
<title>Node10</title>
<g id="a_node10"><a xlink:href="TransmitterCode_2src_2main_8cpp.html#ad2d22d4683c318454ab9a1dd15e1f647" target="_top" xlink:title=" ">
<polygon fill="white" stroke="#666666" points="688,-84.5 607,-84.5 607,-65.5 688,-65.5 688,-84.5"/>
<text text-anchor="middle" x="647.5" y="-72.5" font-family="Helvetica,sans-Serif" font-size="10.00">OpenLogFileW</text>
</a>
</g>
</g>
<!-- Node6&#45;&gt;Node10 -->
<g id="edge9" class="edge">
<title>Node6&#45;&gt;Node10</title>
<path fill="none" stroke="#63b8ff" d="M562.16,-75C573.04,-75 584.47,-75 595.27,-75"/>
<polygon fill="#63b8ff" stroke="#63b8ff" points="595.19,-78.5 605.19,-75 595.19,-71.5 595.19,-78.5"/>
</g>
<!-- Node8 -->
<g id="node8" class="node">
<title>Node8</title>
<g id="a_node8"><a xlink:href="Utilities_8h.html#ae310e7fc6397929ae886869c05cbc334" target="_top" xlink:title=" ">
<polygon fill="white" stroke="#666666" points="816,-102.5 733,-102.5 733,-83.5 816,-83.5 816,-102.5"/>
<text text-anchor="middle" x="774.5" y="-90.5" font-family="Helvetica,sans-Serif" font-size="10.00">MayBeAddZero</text>
</a>
</g>
</g>
<!-- Node7&#45;&gt;Node8 -->
<g id="edge7" class="edge">
<title>Node7&#45;&gt;Node8</title>
<path fill="none" stroke="#63b8ff" d="M676.63,-47.93C683.36,-50.44 690.47,-53.22 697,-56 712.79,-62.73 730.03,-70.99 744.14,-77.99"/>
<polygon fill="#63b8ff" stroke="#63b8ff" points="742.38,-81.02 752.89,-82.38 745.52,-74.77 742.38,-81.02"/>
</g>
<!-- Node7&#45;&gt;Node9 -->
<g id="edge8" class="edge">
<title>Node7&#45;&gt;Node9</title>
<path fill="none" stroke="#63b8ff" d="M697.19,-38C714.75,-38 733.85,-38 748.55,-38"/>
<polygon fill="#63b8ff" stroke="#63b8ff" points="748.21,-41.5 758.21,-38 748.21,-34.5 748.21,-41.5"/>
</g>
<!-- Node11&#45;&gt;Node8 -->
<g id="edge11" class="edge">
<title>Node11&#45;&gt;Node8</title>
<path fill="none" stroke="#63b8ff" d="M695.4,-104.87C703.97,-103.57 712.97,-102.2 721.67,-100.88"/>
<polygon fill="#63b8ff" stroke="#63b8ff" points="722.04,-104.36 731.4,-99.4 720.99,-97.44 722.04,-104.36"/>
</g>
<!-- Node11&#45;&gt;Node9 -->
<g id="edge12" class="edge">
<title>Node11&#45;&gt;Node9</title>
<path fill="none" stroke="#63b8ff" d="M677.51,-102C684.06,-99.37 690.88,-96.33 697,-93 717.04,-82.1 737.94,-66.75 752.83,-55.04"/>
<polygon fill="#63b8ff" stroke="#63b8ff" points="754.88,-57.88 760.49,-48.9 750.5,-52.42 754.88,-57.88"/>
</g>
</g>
</svg>
