<?xml version="1.0" encoding="UTF-8" standalone="no"?>
<!DOCTYPE svg PUBLIC "-//W3C//DTD SVG 1.1//EN"
 "http://www.w3.org/Graphics/SVG/1.1/DTD/svg11.dtd">
<!-- Generated by graphviz version 7.0.5 (20221223.1930)
 -->
<!-- Title: GetOtherValue Pages: 1 -->
<svg width="1170pt" height="1226pt"
 viewBox="0.00 0.00 1170.00 1226.00" xmlns="http://www.w3.org/2000/svg" xmlns:xlink="http://www.w3.org/1999/xlink">
<g id="graph0" class="graph" transform="scale(1 1) rotate(0) translate(4 1222)">
<title>GetOtherValue</title>
<!-- Node1 -->
<g id="node1" class="node">
<title>Node1</title>
<g id="a_node1"><a xlink:title=" ">
<polygon fill="#999999" stroke="#666666" points="81,-228 0,-228 0,-209 81,-209 81,-228"/>
<text text-anchor="middle" x="40.5" y="-216" font-family="Helvetica,sans-Serif" font-size="10.00">GetOtherValue</text>
</a>
</g>
</g>
<!-- Node2 -->
<g id="node2" class="node">
<title>Node2</title>
<g id="a_node2"><a xlink:href="Nextion_8h.html#ad7b8aa834c87265667a5687b1787a1cc" target="_top" xlink:title=" ">
<polygon fill="white" stroke="#666666" points="174.5,-247 118.5,-247 118.5,-228 174.5,-228 174.5,-247"/>
<text text-anchor="middle" x="146.5" y="-235" font-family="Helvetica,sans-Serif" font-size="10.00">EndSend</text>
</a>
</g>
</g>
<!-- Node1&#45;&gt;Node2 -->
<g id="edge1" class="edge">
<title>Node1&#45;&gt;Node2</title>
<path fill="none" stroke="#63b8ff" d="M81.41,-225.79C89.74,-227.31 98.51,-228.92 106.8,-230.43"/>
<polygon fill="#63b8ff" stroke="#63b8ff" points="106.14,-233.87 116.61,-232.22 107.4,-226.98 106.14,-233.87"/>
</g>
<!-- Node163 -->
<g id="node50" class="node">
<title>Node163</title>
<g id="a_node50"><a xlink:href="Nextion_8h.html#a6fe457db5d6bc71ccb447dee824abf6a" target="_top" xlink:title=" ">
<polygon fill="white" stroke="#666666" points="176,-210 117,-210 117,-191 176,-191 176,-210"/>
<text text-anchor="middle" x="146.5" y="-198" font-family="Helvetica,sans-Serif" font-size="10.00">GetTextIn</text>
</a>
</g>
</g>
<!-- Node1&#45;&gt;Node163 -->
<g id="edge70" class="edge">
<title>Node1&#45;&gt;Node163</title>
<path fill="none" stroke="#63b8ff" d="M81.41,-211.59C89.26,-210.23 97.5,-208.81 105.36,-207.45"/>
<polygon fill="#63b8ff" stroke="#63b8ff" points="105.76,-210.93 115.02,-205.78 104.57,-204.03 105.76,-210.93"/>
</g>
<!-- Node3 -->
<g id="node3" class="node">
<title>Node3</title>
<g id="a_node3"><a xlink:href="Utilities_8h.html#a3b1d8aa403e2724e55c71da3d9d13e7e" target="_top" xlink:title=" ">
<polygon fill="white" stroke="#666666" points="289,-247 212,-247 212,-228 289,-228 289,-247"/>
<text text-anchor="middle" x="250.5" y="-235" font-family="Helvetica,sans-Serif" font-size="10.00">DelayWithDog</text>
</a>
</g>
</g>
<!-- Node2&#45;&gt;Node3 -->
<g id="edge2" class="edge">
<title>Node2&#45;&gt;Node3</title>
<path fill="none" stroke="#63b8ff" d="M174.83,-237.5C182.71,-237.5 191.56,-237.5 200.33,-237.5"/>
<polygon fill="#63b8ff" stroke="#63b8ff" points="200.22,-241 210.22,-237.5 200.22,-234 200.22,-241"/>
</g>
<!-- Node4 -->
<g id="node4" class="node">
<title>Node4</title>
<g id="a_node4"><a xlink:href="Utilities_8h.html#ada95a00a341e4a80176eda743a94ab2e" target="_top" xlink:title=" ">
<polygon fill="white" stroke="#666666" points="395,-284 325,-284 325,-265 395,-265 395,-284"/>
<text text-anchor="middle" x="360" y="-272" font-family="Helvetica,sans-Serif" font-size="10.00">KickTheDog</text>
</a>
</g>
</g>
<!-- Node3&#45;&gt;Node4 -->
<g id="edge3" class="edge">
<title>Node3&#45;&gt;Node4</title>
<path fill="none" stroke="#63b8ff" d="M280.31,-247.42C292.36,-251.56 306.56,-256.45 319.55,-260.92"/>
<polygon fill="#63b8ff" stroke="#63b8ff" points="318.09,-264.12 328.68,-264.06 320.36,-257.5 318.09,-264.12"/>
</g>
<!-- Node5 -->
<g id="node5" class="node">
<title>Node5</title>
<g id="a_node5"><a xlink:href="transceiver_8h.html#a049bfb836e7aa4a3a48a1a4bd225fafc" target="_top" xlink:title=" ">
<polygon fill="white" stroke="#666666" points="389.5,-247 330.5,-247 330.5,-228 389.5,-228 389.5,-247"/>
<text text-anchor="middle" x="360" y="-235" font-family="Helvetica,sans-Serif" font-size="10.00">SendData</text>
</a>
</g>
</g>
<!-- Node3&#45;&gt;Node5 -->
<g id="edge4" class="edge">
<title>Node3&#45;&gt;Node5</title>
<path fill="none" stroke="#63b8ff" d="M289.4,-237.5C298.94,-237.5 309.21,-237.5 318.86,-237.5"/>
<polygon fill="#63b8ff" stroke="#63b8ff" points="318.71,-241 328.71,-237.5 318.71,-234 318.71,-241"/>
</g>
<!-- Node6 -->
<g id="node6" class="node">
<title>Node6</title>
<g id="a_node6"><a xlink:href="transceiver_8h.html#a1ddd5e8d5bd649dd98ce3710fbff651b" target="_top" xlink:title=" ">
<polygon fill="white" stroke="#666666" points="533.5,-284 472.5,-284 472.5,-265 533.5,-265 533.5,-284"/>
<text text-anchor="middle" x="503" y="-272" font-family="Helvetica,sans-Serif" font-size="10.00">Compress</text>
</a>
</g>
</g>
<!-- Node5&#45;&gt;Node6 -->
<g id="edge5" class="edge">
<title>Node5&#45;&gt;Node6</title>
<path fill="none" stroke="#63b8ff" d="M389.87,-245.08C410.41,-250.47 438.3,-257.78 461.12,-263.77"/>
<polygon fill="#63b8ff" stroke="#63b8ff" points="460.17,-267.14 470.73,-266.29 461.95,-260.37 460.17,-267.14"/>
</g>
<!-- Node7 -->
<g id="node7" class="node">
<title>Node7</title>
<g id="a_node7"><a xlink:href="transceiver_8h.html#a4144c213e5448a7e02d4172881f08219" target="_top" xlink:title=" ">
<polygon fill="white" stroke="#666666" points="575,-247 431,-247 431,-228 575,-228 575,-247"/>
<text text-anchor="middle" x="503" y="-235" font-family="Helvetica,sans-Serif" font-size="10.00">EncodeTheChangedChannels</text>
</a>
</g>
</g>
<!-- Node5&#45;&gt;Node7 -->
<g id="edge6" class="edge">
<title>Node5&#45;&gt;Node7</title>
<path fill="none" stroke="#63b8ff" d="M389.87,-237.5C398.63,-237.5 408.72,-237.5 419.19,-237.5"/>
<polygon fill="#63b8ff" stroke="#63b8ff" points="419.13,-241 429.13,-237.5 419.13,-234 419.13,-241"/>
</g>
<!-- Node8 -->
<g id="node8" class="node">
<title>Node8</title>
<g id="a_node8"><a xlink:href="transceiver_8h.html#a5fbd3c8613a4163425c94965704ce5f8" target="_top" xlink:title=" ">
<polygon fill="white" stroke="#666666" points="540,-377 466,-377 466,-358 540,-358 540,-377"/>
<text text-anchor="middle" x="503" y="-365" font-family="Helvetica,sans-Serif" font-size="10.00">FailedPacket</text>
</a>
</g>
</g>
<!-- Node5&#45;&gt;Node8 -->
<g id="edge7" class="edge">
<title>Node5&#45;&gt;Node8</title>
<path fill="none" stroke="#63b8ff" d="M382.14,-247.34C386.55,-249.76 391.06,-252.52 395,-255.5 397.55,-257.43 455.39,-318.33 484.94,-349.5"/>
<polygon fill="#63b8ff" stroke="#63b8ff" points="482.33,-351.83 491.75,-356.68 487.41,-347.01 482.33,-351.83"/>
</g>
<!-- Node48 -->
<g id="node20" class="node">
<title>Node48</title>
<g id="a_node20"><a xlink:href="common_8h.html#a6e2d4126d864c50e7c23c988c2bfdd1a" target="_top" xlink:title=" ">
<polygon fill="white" stroke="#666666" points="1011.5,-114 964.5,-114 964.5,-95 1011.5,-95 1011.5,-114"/>
<text text-anchor="middle" x="988" y="-102" font-family="Helvetica,sans-Serif" font-size="10.00">Radio1</text>
</a>
</g>
</g>
<!-- Node5&#45;&gt;Node48 -->
<g id="edge26" class="edge">
<title>Node5&#45;&gt;Node48</title>
<path fill="none" stroke="#63b8ff" d="M362.91,-227.77C368.42,-202.59 386.84,-135.15 431,-104.5 601.48,13.82 692,-43.29 897,-75.5 916.29,-78.53 937.08,-85.01 953.82,-91.07"/>
<polygon fill="#63b8ff" stroke="#63b8ff" points="952.17,-94.19 962.76,-94.42 954.62,-87.63 952.17,-94.19"/>
</g>
<!-- Node51 -->
<g id="node22" class="node">
<title>Node51</title>
<g id="a_node22"><a xlink:href="transceiver_8h.html#a07c27b4e208198453c70876517926052" target="_top" xlink:title=" ">
<polygon fill="white" stroke="#666666" points="534,-133 472,-133 472,-114 534,-114 534,-133"/>
<text text-anchor="middle" x="503" y="-121" font-family="Helvetica,sans-Serif" font-size="10.00">FlushFifos</text>
</a>
</g>
</g>
<!-- Node5&#45;&gt;Node51 -->
<g id="edge24" class="edge">
<title>Node5&#45;&gt;Node51</title>
<path fill="none" stroke="#63b8ff" d="M366.13,-227.57C376.14,-209.13 400.02,-169.52 431,-147.5 439.8,-141.25 450.36,-136.52 460.61,-133"/>
<polygon fill="#63b8ff" stroke="#63b8ff" points="461.54,-136.37 470.06,-130.07 459.47,-129.68 461.54,-136.37"/>
</g>
<!-- Node52 -->
<g id="node23" class="node">
<title>Node52</title>
<g id="a_node23"><a xlink:href="transceiver_8h.html#a65249d0ac8676541d13ced58b1ce7624" target="_top" xlink:title=" ">
<polygon fill="white" stroke="#666666" points="562.5,-834 443.5,-834 443.5,-815 562.5,-815 562.5,-834"/>
<text text-anchor="middle" x="503" y="-822" font-family="Helvetica,sans-Serif" font-size="10.00">SendExtraParamemters</text>
</a>
</g>
</g>
<!-- Node5&#45;&gt;Node52 -->
<g id="edge27" class="edge">
<title>Node5&#45;&gt;Node52</title>
<path fill="none" stroke="#63b8ff" d="M386.5,-247.5C389.76,-249.71 392.74,-252.35 395,-255.5 453.27,-336.72 412.98,-379.18 431,-477.5 453.74,-601.53 485.6,-749.5 497.39,-803.48"/>
<polygon fill="#63b8ff" stroke="#63b8ff" points="493.94,-804.09 499.49,-813.11 500.77,-802.6 493.94,-804.09"/>
</g>
<!-- Node56 -->
<g id="node27" class="node">
<title>Node56</title>
<g id="a_node27"><a xlink:href="BuddyWireless_8h.html#a41c327908c92572d0d3eebbb19160d86" target="_top" xlink:title=" ">
<polygon fill="white" stroke="#666666" points="723,-171 621,-171 621,-152 723,-152 723,-171"/>
<text text-anchor="middle" x="672" y="-159" font-family="Helvetica,sans-Serif" font-size="10.00">SendSpecialPacket</text>
</a>
</g>
</g>
<!-- Node5&#45;&gt;Node56 -->
<g id="edge32" class="edge">
<title>Node5&#45;&gt;Node56</title>
<path fill="none" stroke="#63b8ff" d="M389.89,-229.44C402.49,-225.98 417.45,-221.95 431,-218.5 494.34,-202.39 567.45,-185.23 616.18,-174"/>
<polygon fill="#63b8ff" stroke="#63b8ff" points="616.67,-177.48 625.63,-171.82 615.1,-170.65 616.67,-177.48"/>
</g>
<!-- Node60 -->
<g id="node31" class="node">
<title>Node60</title>
<g id="a_node31"><a xlink:href="BuddyPPM_8h.html#a784a1eca0361b3991bca899167cc1cdb" target="_top" xlink:title=" ">
<polygon fill="white" stroke="#666666" points="540.5,-19 465.5,-19 465.5,0 540.5,0 540.5,-19"/>
<text text-anchor="middle" x="503" y="-7" font-family="Helvetica,sans-Serif" font-size="10.00">SendViaPPM</text>
</a>
</g>
</g>
<!-- Node5&#45;&gt;Node60 -->
<g id="edge40" class="edge">
<title>Node5&#45;&gt;Node60</title>
<path fill="none" stroke="#63b8ff" d="M361.42,-227.85C363.35,-195.58 373.94,-90.29 431,-33.5 437.56,-26.97 445.95,-22.22 454.65,-18.76"/>
<polygon fill="#63b8ff" stroke="#63b8ff" points="455.53,-22.16 463.88,-15.63 453.28,-15.53 455.53,-22.16"/>
</g>
<!-- Node61 -->
<g id="node32" class="node">
<title>Node61</title>
<g id="a_node32"><a xlink:href="transceiver_8h.html#a1c11bb6771548de7d96723045b922620" target="_top" xlink:title=" ">
<polygon fill="white" stroke="#666666" points="551,-469 455,-469 455,-450 551,-450 551,-469"/>
<text text-anchor="middle" x="503" y="-457" font-family="Helvetica,sans-Serif" font-size="10.00">SuccessfulPacket</text>
</a>
</g>
</g>
<!-- Node5&#45;&gt;Node61 -->
<g id="edge41" class="edge">
<title>Node5&#45;&gt;Node61</title>
<path fill="none" stroke="#63b8ff" d="M385.51,-247.28C389.07,-249.55 392.41,-252.27 395,-255.5 432.56,-302.23 401.34,-333.4 431,-385.5 443.74,-407.88 464.74,-428.59 480.61,-442.37"/>
<polygon fill="#63b8ff" stroke="#63b8ff" points="478.19,-444.91 488.1,-448.68 482.7,-439.56 478.19,-444.91"/>
</g>
<!-- Node9 -->
<g id="node9" class="node">
<title>Node9</title>
<g id="a_node9"><a xlink:href="transceiver_8h.html#afc091b5942e21a03f6dc8635d5e519ba" target="_top" xlink:title=" ">
<polygon fill="white" stroke="#666666" points="733,-404 611,-404 611,-385 733,-385 733,-404"/>
<text text-anchor="middle" x="672" y="-392" font-family="Helvetica,sans-Serif" font-size="10.00">RecordsPacketSuccess</text>
</a>
</g>
</g>
<!-- Node8&#45;&gt;Node9 -->
<g id="edge8" class="edge">
<title>Node8&#45;&gt;Node9</title>
<path fill="none" stroke="#63b8ff" d="M540.24,-373.36C557.56,-376.16 578.93,-379.61 599.33,-382.91"/>
<polygon fill="#63b8ff" stroke="#63b8ff" points="598.61,-386.34 609.04,-384.48 599.73,-379.43 598.61,-386.34"/>
</g>
<!-- Node10 -->
<g id="node10" class="node">
<title>Node10</title>
<g id="a_node10"><a xlink:href="TransmitterCode_2src_2main_8cpp.html#a7d34cec6e8edc20c8b50424e15dcc7c7" target="_top" xlink:title=" ">
<polygon fill="white" stroke="#666666" points="703.5,-750 640.5,-750 640.5,-731 703.5,-731 703.5,-750"/>
<text text-anchor="middle" x="672" y="-738" font-family="Helvetica,sans-Serif" font-size="10.00">RedLedOn</text>
</a>
</g>
</g>
<!-- Node8&#45;&gt;Node10 -->
<g id="edge9" class="edge">
<title>Node8&#45;&gt;Node10</title>
<path fill="none" stroke="#63b8ff" d="M516.86,-377.5C532.68,-390.44 559.35,-414.43 575,-440.5 632.21,-535.81 659.09,-668.91 667.74,-719.69"/>
<polygon fill="#63b8ff" stroke="#63b8ff" points="664.24,-719.96 669.31,-729.26 671.15,-718.83 664.24,-719.96"/>
</g>
<!-- Node44 -->
<g id="node18" class="node">
<title>Node44</title>
<g id="a_node18"><a xlink:href="transceiver_8h.html#ad0236abcfc887ad708d9504c4ab2a7c3" target="_top" xlink:title=" ">
<polygon fill="white" stroke="#666666" points="716,-284 628,-284 628,-265 716,-265 716,-284"/>
<text text-anchor="middle" x="672" y="-272" font-family="Helvetica,sans-Serif" font-size="10.00">TryToReconnect</text>
</a>
</g>
</g>
<!-- Node8&#45;&gt;Node44 -->
<g id="edge20" class="edge">
<title>Node8&#45;&gt;Node44</title>
<path fill="none" stroke="#63b8ff" d="M521.87,-357.55C551,-341.33 608.92,-309.07 643.37,-289.88"/>
<polygon fill="#63b8ff" stroke="#63b8ff" points="644.9,-293.04 651.93,-285.12 641.49,-286.92 644.9,-293.04"/>
</g>
<!-- Node11 -->
<g id="node11" class="node">
<title>Node11</title>
<g id="a_node11"><a xlink:href="TransmitterCode_2src_2main_8cpp.html#afeaea883a32e6ebe461d419fab1b9f59" target="_top" xlink:title=" ">
<polygon fill="white" stroke="#666666" points="888.5,-656 777.5,-656 777.5,-637 888.5,-637 888.5,-656"/>
<text text-anchor="middle" x="833" y="-644" font-family="Helvetica,sans-Serif" font-size="10.00">ClearMostParameters</text>
</a>
</g>
</g>
<!-- Node10&#45;&gt;Node11 -->
<g id="edge10" class="edge">
<title>Node10&#45;&gt;Node11</title>
<path fill="none" stroke="#63b8ff" d="M682.72,-730.61C699.08,-714.49 733.82,-682.55 769,-664.5 771.89,-663.02 774.93,-661.64 778.03,-660.36"/>
<polygon fill="#63b8ff" stroke="#63b8ff" points="779.18,-663.67 787.35,-656.93 776.76,-657.1 779.18,-663.67"/>
</g>
<!-- Node12 -->
<g id="node12" class="node">
<title>Node12</title>
<g id="a_node12"><a xlink:href="Utilities_8h.html#a549a702bb9b539c6b3a4f20cce65adcc" target="_top" xlink:title=" ">
<polygon fill="#fff0f0" stroke="red" points="882,-807 784,-807 784,-788 882,-788 882,-807"/>
<text text-anchor="middle" x="833" y="-795" font-family="Helvetica,sans-Serif" font-size="10.00">GetLEDBrightness</text>
</a>
</g>
</g>
<!-- Node10&#45;&gt;Node12 -->
<g id="edge11" class="edge">
<title>Node10&#45;&gt;Node12</title>
<path fill="none" stroke="#63b8ff" d="M700.7,-750.43C726.49,-759.68 765.18,-773.55 793.89,-783.84"/>
<polygon fill="#63b8ff" stroke="#63b8ff" points="792.34,-787 802.93,-787.08 794.7,-780.41 792.34,-787"/>
</g>
<!-- Node22 -->
<g id="node13" class="node">
<title>Node22</title>
<g id="a_node13"><a xlink:href="TransmitterCode_2src_2main_8cpp.html#a2d5ec5fd5ed62d5b7b071fabe2225405" target="_top" xlink:title=" ">
<polygon fill="#fff0f0" stroke="red" points="881,-693 785,-693 785,-674 881,-674 881,-693"/>
<text text-anchor="middle" x="833" y="-681" font-family="Helvetica,sans-Serif" font-size="10.00">LogDisConnection</text>
</a>
</g>
</g>
<!-- Node10&#45;&gt;Node22 -->
<g id="edge12" class="edge">
<title>Node10&#45;&gt;Node22</title>
<path fill="none" stroke="#63b8ff" d="M700.7,-730.57C726.49,-721.32 765.18,-707.45 793.89,-697.16"/>
<polygon fill="#63b8ff" stroke="#63b8ff" points="794.7,-700.59 802.93,-693.92 792.34,-694 794.7,-700.59"/>
</g>
<!-- Node38 -->
<g id="node14" class="node">
<title>Node38</title>
<g id="a_node14"><a xlink:href="Utilities_8h.html#aa490b4664b0a4498d53b30b82287d5df" target="_top" xlink:title=" ">
<polygon fill="#fff0f0" stroke="red" points="1019.5,-1039 956.5,-1039 956.5,-1020 1019.5,-1020 1019.5,-1039"/>
<text text-anchor="middle" x="988" y="-1027" font-family="Helvetica,sans-Serif" font-size="10.00">PlaySound</text>
</a>
</g>
</g>
<!-- Node10&#45;&gt;Node38 -->
<g id="edge13" class="edge">
<title>Node10&#45;&gt;Node38</title>
<path fill="none" stroke="#63b8ff" d="M677.16,-750.24C687.25,-774.01 713.63,-836.96 733,-890.5 750.64,-939.27 729.08,-968.39 769,-1001.5 818.38,-1042.46 896.93,-1041.69 945.04,-1036.34"/>
<polygon fill="#63b8ff" stroke="#63b8ff" points="945.29,-1039.84 954.78,-1035.13 944.43,-1032.89 945.29,-1039.84"/>
</g>
<!-- Node39 -->
<g id="node15" class="node">
<title>Node39</title>
<g id="a_node15"><a xlink:href="Nextion_8h.html#aecac2f0c289f02ef3c92b85be82eacac" target="_top" xlink:title=" ">
<polygon fill="#fff0f0" stroke="red" points="1162,-750 1079,-750 1079,-731 1162,-731 1162,-750"/>
<text text-anchor="middle" x="1120.5" y="-738" font-family="Helvetica,sans-Serif" font-size="10.00">SendCommand</text>
</a>
</g>
</g>
<!-- Node10&#45;&gt;Node39 -->
<g id="edge16" class="edge">
<title>Node10&#45;&gt;Node39</title>
<path fill="none" stroke="#63b8ff" d="M703.68,-742.51C722.52,-743.64 747.14,-744.93 769,-745.5 874.96,-748.26 998.98,-744.95 1067.44,-742.55"/>
<polygon fill="#63b8ff" stroke="#63b8ff" points="1067.37,-746.06 1077.24,-742.2 1067.12,-739.06 1067.37,-746.06"/>
</g>
<!-- Node42 -->
<g id="node16" class="node">
<title>Node42</title>
<g id="a_node16"><a xlink:href="Nextion_8h.html#afe513398f72d5e48f691830a1ef6eb42" target="_top" xlink:title=" ">
<polygon fill="#fff0f0" stroke="red" points="1017,-731 959,-731 959,-712 1017,-712 1017,-731"/>
<text text-anchor="middle" x="988" y="-719" font-family="Helvetica,sans-Serif" font-size="10.00">SendText</text>
</a>
</g>
</g>
<!-- Node10&#45;&gt;Node42 -->
<g id="edge17" class="edge">
<title>Node10&#45;&gt;Node42</title>
<path fill="none" stroke="#63b8ff" d="M703.97,-738.63C761.36,-735.15 884.13,-727.72 947.44,-723.89"/>
<polygon fill="#63b8ff" stroke="#63b8ff" points="947.26,-727.41 957.03,-723.31 946.84,-720.42 947.26,-727.41"/>
</g>
<!-- Node43 -->
<g id="node17" class="node">
<title>Node43</title>
<g id="a_node17"><a xlink:href="TransmitterCode_2src_2main_8cpp.html#a083c423be6ce1635de5961d0fc72ff06" target="_top" xlink:title=" ">
<polygon fill="white" stroke="#666666" points="882.5,-881 783.5,-881 783.5,-862 882.5,-862 882.5,-881"/>
<text text-anchor="middle" x="833" y="-869" font-family="Helvetica,sans-Serif" font-size="10.00">SetUKFrequencies</text>
</a>
</g>
</g>
<!-- Node10&#45;&gt;Node43 -->
<g id="edge19" class="edge">
<title>Node10&#45;&gt;Node43</title>
<path fill="none" stroke="#63b8ff" d="M678.56,-750.35C691.47,-772.33 725.72,-825.61 769,-853.5 770.86,-854.7 772.81,-855.82 774.81,-856.87"/>
<polygon fill="#63b8ff" stroke="#63b8ff" points="773.28,-860.02 783.83,-860.91 776.14,-853.63 773.28,-860.02"/>
</g>
<!-- Node38&#45;&gt;Node39 -->
<g id="edge14" class="edge">
<title>Node38&#45;&gt;Node39</title>
<path fill="none" stroke="#63b8ff" d="M997.69,-1019.59C1009.3,-1005.94 1029.92,-980.25 1043,-955.5 1078.58,-888.17 1103.85,-800.75 1114.24,-761.36"/>
<polygon fill="#63b8ff" stroke="#63b8ff" points="1117.6,-762.37 1116.71,-751.81 1110.82,-760.62 1117.6,-762.37"/>
</g>
<!-- Node39&#45;&gt;Node3 -->
<g id="edge15" class="edge">
<title>Node39&#45;&gt;Node3</title>
<path fill="none" stroke="#63b8ff" d="M1118.65,-730.84C1113.65,-675.69 1086.8,-400.55 1043,-329.5 985.6,-236.38 943.39,-199.5 834,-199.5 502,-199.5 502,-199.5 502,-199.5 422.88,-199.5 402.84,-204.34 325,-218.5 315.78,-220.18 306.01,-222.39 296.71,-224.71"/>
<polygon fill="#63b8ff" stroke="#63b8ff" points="295.94,-221.29 287.14,-227.18 297.69,-228.07 295.94,-221.29"/>
</g>
<!-- Node42&#45;&gt;Node39 -->
<g id="edge18" class="edge">
<title>Node42&#45;&gt;Node39</title>
<path fill="none" stroke="#63b8ff" d="M1017.32,-725.62C1032.01,-727.76 1050.44,-730.44 1067.58,-732.94"/>
<polygon fill="#63b8ff" stroke="#63b8ff" points="1066.71,-736.35 1077.11,-734.33 1067.72,-729.42 1066.71,-736.35"/>
</g>
<!-- Node45 -->
<g id="node19" class="node">
<title>Node45</title>
<g id="a_node19"><a xlink:href="transceiver_8h.html#a52aa3e80bccf5e75346c93fdae63122d" target="_top" xlink:title=" ">
<polygon fill="#fff0f0" stroke="red" points="883.5,-284 782.5,-284 782.5,-265 883.5,-265 883.5,-284"/>
<text text-anchor="middle" x="833" y="-272" font-family="Helvetica,sans-Serif" font-size="10.00">HopToNextChannel</text>
</a>
</g>
</g>
<!-- Node44&#45;&gt;Node45 -->
<g id="edge21" class="edge">
<title>Node44&#45;&gt;Node45</title>
<path fill="none" stroke="#63b8ff" d="M716.45,-274.5C733.2,-274.5 752.65,-274.5 770.77,-274.5"/>
<polygon fill="#63b8ff" stroke="#63b8ff" points="770.63,-278 780.63,-274.5 770.63,-271 770.63,-278"/>
</g>
<!-- Node49 -->
<g id="node21" class="node">
<title>Node49</title>
<g id="a_node21"><a xlink:href="transceiver_8h.html#ad0e30213b21808d00110752679788a8c" target="_top" xlink:title=" ">
<polygon fill="#fff0f0" stroke="red" points="870,-247 796,-247 796,-228 870,-228 870,-247"/>
<text text-anchor="middle" x="833" y="-235" font-family="Helvetica,sans-Serif" font-size="10.00">TryOtherPipe</text>
</a>
</g>
</g>
<!-- Node44&#45;&gt;Node49 -->
<g id="edge23" class="edge">
<title>Node44&#45;&gt;Node49</title>
<path fill="none" stroke="#63b8ff" d="M715.61,-264.58C736.92,-259.63 762.76,-253.61 784.69,-248.51"/>
<polygon fill="#63b8ff" stroke="#63b8ff" points="785.33,-251.95 794.27,-246.28 783.74,-245.14 785.33,-251.95"/>
</g>
<!-- Node45&#45;&gt;Node48 -->
<g id="edge22" class="edge">
<title>Node45&#45;&gt;Node48</title>
<path fill="none" stroke="#63b8ff" d="M881.02,-264.64C886.73,-262.23 892.23,-259.23 897,-255.5 941.36,-220.85 968.52,-157.75 980.23,-125.18"/>
<polygon fill="#63b8ff" stroke="#63b8ff" points="983.53,-126.34 983.48,-115.75 976.92,-124.06 983.53,-126.34"/>
</g>
<!-- Node51&#45;&gt;Node48 -->
<g id="edge25" class="edge">
<title>Node51&#45;&gt;Node48</title>
<path fill="none" stroke="#63b8ff" d="M534.21,-122.31C619.61,-118.95 862.39,-109.4 952.65,-105.85"/>
<polygon fill="#63b8ff" stroke="#63b8ff" points="952.73,-109.35 962.59,-105.46 952.46,-102.36 952.73,-109.35"/>
</g>
<!-- Node53 -->
<g id="node24" class="node">
<title>Node53</title>
<g id="a_node24"><a xlink:href="transceiver_8h.html#adac102739147db6397bbcbb371aec4fd" target="_top" xlink:title=" ">
<polygon fill="white" stroke="#666666" points="716.5,-1162 627.5,-1162 627.5,-1143 716.5,-1143 716.5,-1162"/>
<text text-anchor="middle" x="672" y="-1150" font-family="Helvetica,sans-Serif" font-size="10.00">LoadParameters</text>
</a>
</g>
</g>
<!-- Node52&#45;&gt;Node53 -->
<g id="edge28" class="edge">
<title>Node52&#45;&gt;Node53</title>
<path fill="none" stroke="#63b8ff" d="M505.27,-834.43C510.78,-874.12 535.88,-1023.61 611,-1115.5 618.13,-1124.22 627.89,-1131.45 637.46,-1137.14"/>
<polygon fill="#63b8ff" stroke="#63b8ff" points="635.48,-1140.04 645.93,-1141.78 638.84,-1133.9 635.48,-1140.04"/>
</g>
<!-- Node53&#45;&gt;Node43 -->
<g id="edge31" class="edge">
<title>Node53&#45;&gt;Node43</title>
<path fill="none" stroke="#63b8ff" d="M698.91,-1142.61C711.16,-1136.61 724.85,-1127.72 733,-1115.5 789.21,-1031.26 702.35,-966.75 769,-890.5 770.47,-888.82 772.07,-887.29 773.79,-885.89"/>
<polygon fill="#63b8ff" stroke="#63b8ff" points="775.33,-889.06 781.91,-880.76 771.59,-883.15 775.33,-889.06"/>
</g>
<!-- Node54 -->
<g id="node25" class="node">
<title>Node54</title>
<g id="a_node25"><a xlink:href="TransmitterCode_2src_2main_8cpp.html#a5aa4888b924a4f1d95e9cedc3004f2b6" target="_top" xlink:title=" ">
<polygon fill="white" stroke="#666666" points="874.5,-1218 791.5,-1218 791.5,-1199 874.5,-1199 874.5,-1218"/>
<text text-anchor="middle" x="833" y="-1206" font-family="Helvetica,sans-Serif" font-size="10.00">MakeTwobytes</text>
</a>
</g>
</g>
<!-- Node53&#45;&gt;Node54 -->
<g id="edge29" class="edge">
<title>Node53&#45;&gt;Node54</title>
<path fill="none" stroke="#63b8ff" d="M696.04,-1162.36C715.34,-1170.44 743.71,-1181.91 769,-1190.5 773.79,-1192.13 778.83,-1193.74 783.87,-1195.28"/>
<polygon fill="#63b8ff" stroke="#63b8ff" points="782.8,-1198.61 793.38,-1198.11 784.79,-1191.9 782.8,-1198.61"/>
</g>
<!-- Node55 -->
<g id="node26" class="node">
<title>Node55</title>
<g id="a_node26"><a xlink:href="TransmitterCode_2src_2main_8cpp.html#a60a8ba3819508aedbe1d59640b0a79b0" target="_top" xlink:title=" ">
<polygon fill="white" stroke="#666666" points="885,-1181 781,-1181 781,-1162 885,-1162 885,-1181"/>
<text text-anchor="middle" x="833" y="-1169" font-family="Helvetica,sans-Serif" font-size="10.00">SetTestFrequencies</text>
</a>
</g>
</g>
<!-- Node53&#45;&gt;Node55 -->
<g id="edge30" class="edge">
<title>Node53&#45;&gt;Node55</title>
<path fill="none" stroke="#63b8ff" d="M716.87,-1157.74C733.08,-1159.68 751.78,-1161.91 769.34,-1164.01"/>
<polygon fill="#63b8ff" stroke="#63b8ff" points="768.83,-1167.48 779.17,-1165.19 769.66,-1160.53 768.83,-1167.48"/>
</g>
<!-- Node56&#45;&gt;Node48 -->
<g id="edge39" class="edge">
<title>Node56&#45;&gt;Node48</title>
<path fill="none" stroke="#63b8ff" d="M723.41,-159.62C769.2,-157.08 838.34,-151.18 897,-137.5 916.41,-132.97 937.36,-125.46 954.16,-118.74"/>
<polygon fill="#63b8ff" stroke="#63b8ff" points="955.21,-122.09 963.14,-115.06 952.56,-115.62 955.21,-122.09"/>
</g>
<!-- Node57 -->
<g id="node28" class="node">
<title>Node57</title>
<g id="a_node28"><a xlink:href="BuddyWireless_8h.html#af59c2527be7a67d6b09dd467f3123d55" target="_top" xlink:title=" ">
<polygon fill="white" stroke="#666666" points="868.5,-19 797.5,-19 797.5,0 868.5,0 868.5,-19"/>
<text text-anchor="middle" x="833" y="-7" font-family="Helvetica,sans-Serif" font-size="10.00">GetPupilAck</text>
</a>
</g>
</g>
<!-- Node56&#45;&gt;Node57 -->
<g id="edge33" class="edge">
<title>Node56&#45;&gt;Node57</title>
<path fill="none" stroke="#63b8ff" d="M683.43,-151.53C709.94,-126.18 780.16,-59.06 813.68,-27.01"/>
<polygon fill="#63b8ff" stroke="#63b8ff" points="815.83,-29.8 820.64,-20.36 810.99,-24.74 815.83,-29.8"/>
</g>
<!-- Node59 -->
<g id="node30" class="node">
<title>Node59</title>
<g id="a_node30"><a xlink:href="BuddyWireless_8h.html#a89fc05df708fec875356b62d21b2ce7b" target="_top" xlink:title=" ">
<polygon fill="white" stroke="#666666" points="871.5,-395 794.5,-395 794.5,-376 871.5,-376 871.5,-395"/>
<text text-anchor="middle" x="833" y="-383" font-family="Helvetica,sans-Serif" font-size="10.00">PupilDetected</text>
</a>
</g>
</g>
<!-- Node56&#45;&gt;Node59 -->
<g id="edge36" class="edge">
<title>Node56&#45;&gt;Node59</title>
<path fill="none" stroke="#63b8ff" d="M680.56,-171.44C692.92,-188.07 717.63,-222.93 733,-255.5 755.13,-302.4 731.95,-330.21 769,-366.5 773.18,-370.59 778.2,-373.81 783.57,-376.33"/>
<polygon fill="#63b8ff" stroke="#63b8ff" points="782.18,-379.55 792.77,-379.85 784.68,-373.01 782.18,-379.55"/>
</g>
<!-- Node57&#45;&gt;Node48 -->
<g id="edge35" class="edge">
<title>Node57&#45;&gt;Node48</title>
<path fill="none" stroke="#63b8ff" d="M865.61,-19.41C875.92,-23.2 887.23,-27.96 897,-33.5 923.83,-48.72 951.16,-71.53 968.55,-87.17"/>
<polygon fill="#63b8ff" stroke="#63b8ff" points="965.83,-89.42 975.57,-93.59 970.55,-84.26 965.83,-89.42"/>
</g>
<!-- Node58 -->
<g id="node29" class="node">
<title>Node58</title>
<g id="a_node29"><a xlink:href="transceiver_8h.html#a6feccc8c0583de3235616d42076f1371" target="_top" xlink:title=" ">
<polygon fill="white" stroke="#666666" points="1023.5,-19 952.5,-19 952.5,0 1023.5,0 1023.5,-19"/>
<text text-anchor="middle" x="988" y="-7" font-family="Helvetica,sans-Serif" font-size="10.00">Decompress</text>
</a>
</g>
</g>
<!-- Node57&#45;&gt;Node58 -->
<g id="edge34" class="edge">
<title>Node57&#45;&gt;Node58</title>
<path fill="none" stroke="#63b8ff" d="M868.72,-9.5C890.06,-9.5 917.67,-9.5 940.84,-9.5"/>
<polygon fill="#63b8ff" stroke="#63b8ff" points="940.64,-13 950.64,-9.5 940.64,-6 940.64,-13"/>
</g>
<!-- Node59&#45;&gt;Node39 -->
<g id="edge37" class="edge">
<title>Node59&#45;&gt;Node39</title>
<path fill="none" stroke="#63b8ff" d="M871.98,-391.69C880.76,-394.34 889.66,-398.12 897,-403.5 1015.74,-490.58 1089.41,-661.61 1112.04,-720.23"/>
<polygon fill="#63b8ff" stroke="#63b8ff" points="1108.64,-721.14 1115.45,-729.26 1115.19,-718.67 1108.64,-721.14"/>
</g>
<!-- Node59&#45;&gt;Node42 -->
<g id="edge38" class="edge">
<title>Node59&#45;&gt;Node42</title>
<path fill="none" stroke="#63b8ff" d="M871.79,-389.55C881.08,-392.22 890.28,-396.54 897,-403.5 943.13,-451.27 915.1,-484.56 933,-548.5 948.57,-604.11 969.57,-668.91 980.21,-701.14"/>
<polygon fill="#63b8ff" stroke="#63b8ff" points="976.81,-701.98 983.28,-710.37 983.45,-699.78 976.81,-701.98"/>
</g>
<!-- Node61&#45;&gt;Node9 -->
<g id="edge68" class="edge">
<title>Node61&#45;&gt;Node9</title>
<path fill="none" stroke="#63b8ff" d="M529.36,-449.63C557.44,-438.7 602.93,-420.99 634.76,-408.61"/>
<polygon fill="#63b8ff" stroke="#63b8ff" points="635.94,-411.9 643.99,-405.01 633.4,-405.38 635.94,-411.9"/>
</g>
<!-- Node61&#45;&gt;Node48 -->
<g id="edge67" class="edge">
<title>Node61&#45;&gt;Node48</title>
<path fill="none" stroke="#63b8ff" d="M517.56,-449.71C534.1,-436.95 561.52,-413 575,-385.5 623.07,-287.47 532.03,-217.89 611,-142.5 705.37,-52.4 880.01,-79.35 953.27,-95.87"/>
<polygon fill="#63b8ff" stroke="#63b8ff" points="952.12,-99.19 962.66,-98.07 953.72,-92.38 952.12,-99.19"/>
</g>
<!-- Node62 -->
<g id="node33" class="node">
<title>Node62</title>
<g id="a_node33"><a xlink:href="transceiver_8h.html#a953f1d5046e183549ed95b08f6d675e3" target="_top" xlink:title=" ">
<polygon fill="white" stroke="#666666" points="721,-1106 623,-1106 623,-1087 721,-1087 721,-1106"/>
<text text-anchor="middle" x="672" y="-1094" font-family="Helvetica,sans-Serif" font-size="10.00">CheckGapsLength</text>
</a>
</g>
</g>
<!-- Node61&#45;&gt;Node62 -->
<g id="edge42" class="edge">
<title>Node61&#45;&gt;Node62</title>
<path fill="none" stroke="#63b8ff" d="M506.2,-469.41C515.3,-510.6 550.72,-672.48 575,-806.5 593.29,-907.45 565.2,-942.7 611,-1034.5 619.86,-1052.25 635.61,-1068.23 648.75,-1079.52"/>
<polygon fill="#63b8ff" stroke="#63b8ff" points="646.19,-1081.95 656.14,-1085.59 650.64,-1076.54 646.19,-1081.95"/>
</g>
<!-- Node64 -->
<g id="node35" class="node">
<title>Node64</title>
<g id="a_node35"><a xlink:href="TransmitterCode_2src_2main_8cpp.html#a62e53eb9359c32b666e3386d62c57037" target="_top" xlink:title=" ">
<polygon fill="white" stroke="#666666" points="708,-918 636,-918 636,-899 708,-899 708,-918"/>
<text text-anchor="middle" x="672" y="-906" font-family="Helvetica,sans-Serif" font-size="10.00">GreenLedOn</text>
</a>
</g>
</g>
<!-- Node61&#45;&gt;Node64 -->
<g id="edge44" class="edge">
<title>Node61&#45;&gt;Node64</title>
<path fill="none" stroke="#63b8ff" d="M507.38,-469.36C520.33,-507.04 568.23,-645.59 611,-758.5 628.73,-805.3 650.89,-859.72 662.69,-888.41"/>
<polygon fill="#63b8ff" stroke="#63b8ff" points="659.32,-889.41 666.37,-897.32 665.79,-886.74 659.32,-889.41"/>
</g>
<!-- Node75 -->
<g id="node39" class="node">
<title>Node75</title>
<g id="a_node39"><a xlink:href="Utilities_8h.html#a793b7bcd77531c95fe72ed4356d421c8" target="_top" xlink:title=" ">
<polygon fill="white" stroke="#666666" points="1043,-946 933,-946 933,-927 1043,-927 1043,-946"/>
<text text-anchor="middle" x="988" y="-934" font-family="Helvetica,sans-Serif" font-size="10.00">StartInactvityTimeout</text>
</a>
</g>
</g>
<!-- Node61&#45;&gt;Node75 -->
<g id="edge69" class="edge">
<title>Node61&#45;&gt;Node75</title>
<path fill="none" stroke="#63b8ff" d="M505.98,-469.27C519.3,-534.82 595.73,-908.57 611,-927.5 693.43,-1029.69 772.07,-1041.9 897,-1001.5 925.73,-992.21 953.01,-969.94 969.85,-954.06"/>
<polygon fill="#63b8ff" stroke="#63b8ff" points="971.86,-956.99 976.57,-947.5 966.97,-951.98 971.86,-956.99"/>
</g>
<!-- Node77 -->
<g id="node41" class="node">
<title>Node77</title>
<g id="a_node41"><a xlink:href="transceiver_8h.html#a48843be835158d95950827d4276c3bce" target="_top" xlink:title=" ">
<polygon fill="#fff0f0" stroke="red" points="719,-469 625,-469 625,-450 719,-450 719,-469"/>
<text text-anchor="middle" x="672" y="-457" font-family="Helvetica,sans-Serif" font-size="10.00">ParseAckPayload</text>
</a>
</g>
</g>
<!-- Node61&#45;&gt;Node77 -->
<g id="edge55" class="edge">
<title>Node61&#45;&gt;Node77</title>
<path fill="none" stroke="#63b8ff" d="M551.41,-459.5C570.68,-459.5 593.14,-459.5 613.35,-459.5"/>
<polygon fill="#63b8ff" stroke="#63b8ff" points="613.11,-463 623.11,-459.5 613.11,-456 613.11,-463"/>
</g>
<!-- Node63 -->
<g id="node34" class="node">
<title>Node63</title>
<g id="a_node34"><a xlink:href="TransmitterCode_2src_2main_8cpp.html#a1fadc7cdd854f8b3628b622da5417d8b" target="_top" xlink:title=" ">
<polygon fill="#fff0f0" stroke="red" points="868,-1144 798,-1144 798,-1125 868,-1125 868,-1144"/>
<text text-anchor="middle" x="833" y="-1132" font-family="Helvetica,sans-Serif" font-size="10.00">LogThisGap</text>
</a>
</g>
</g>
<!-- Node62&#45;&gt;Node63 -->
<g id="edge43" class="edge">
<title>Node62&#45;&gt;Node63</title>
<path fill="none" stroke="#63b8ff" d="M714.78,-1106.48C736.89,-1111.77 764.08,-1118.27 786.71,-1123.67"/>
<polygon fill="#63b8ff" stroke="#63b8ff" points="785.72,-1127.04 796.26,-1125.96 787.35,-1120.23 785.72,-1127.04"/>
</g>
<!-- Node64&#45;&gt;Node12 -->
<g id="edge46" class="edge">
<title>Node64&#45;&gt;Node12</title>
<path fill="none" stroke="#63b8ff" d="M680.59,-898.61C695.5,-879.85 730.53,-838.97 769,-816.5 772.01,-814.74 775.2,-813.13 778.48,-811.66"/>
<polygon fill="#63b8ff" stroke="#63b8ff" points="779.75,-814.92 787.76,-807.98 777.17,-808.42 779.75,-814.92"/>
</g>
<!-- Node64&#45;&gt;Node38 -->
<g id="edge48" class="edge">
<title>Node64&#45;&gt;Node38</title>
<path fill="none" stroke="#63b8ff" d="M675.16,-918.29C682.31,-948.07 708.32,-1037.71 769,-1072.5 831.47,-1108.32 918.76,-1069.03 961.45,-1045.13"/>
<polygon fill="#63b8ff" stroke="#63b8ff" points="963.08,-1048.23 969.99,-1040.2 959.58,-1042.17 963.08,-1048.23"/>
</g>
<!-- Node65 -->
<g id="node36" class="node">
<title>Node65</title>
<g id="a_node36"><a xlink:href="Utilities_8h.html#a82b1900a80d1622896601c57d6edaeda" target="_top" xlink:title=" ">
<polygon fill="white" stroke="#666666" points="882,-955 784,-955 784,-936 882,-936 882,-955"/>
<text text-anchor="middle" x="833" y="-943" font-family="Helvetica,sans-Serif" font-size="10.00">ClearSuccessRate</text>
</a>
</g>
</g>
<!-- Node64&#45;&gt;Node65 -->
<g id="edge45" class="edge">
<title>Node64&#45;&gt;Node65</title>
<path fill="none" stroke="#63b8ff" d="M708.29,-916.71C728.81,-921.49 755.09,-927.6 778.15,-932.97"/>
<polygon fill="#63b8ff" stroke="#63b8ff" points="777.16,-936.33 787.7,-935.19 778.75,-929.52 777.16,-936.33"/>
</g>
<!-- Node66 -->
<g id="node37" class="node">
<title>Node66</title>
<g id="a_node37"><a xlink:href="TransmitterCode_2src_2main_8cpp.html#aaa3e86084c43b049d52d7d62c58a00b9" target="_top" xlink:title=" ">
<polygon fill="#fff0f0" stroke="red" points="874,-844 792,-844 792,-825 874,-825 874,-844"/>
<text text-anchor="middle" x="833" y="-832" font-family="Helvetica,sans-Serif" font-size="10.00">LogConnection</text>
</a>
</g>
</g>
<!-- Node64&#45;&gt;Node66 -->
<g id="edge47" class="edge">
<title>Node64&#45;&gt;Node66</title>
<path fill="none" stroke="#63b8ff" d="M687.74,-898.63C706.13,-886.67 738.83,-866.49 769,-853.5 773.55,-851.54 778.37,-849.7 783.23,-847.99"/>
<polygon fill="#63b8ff" stroke="#63b8ff" points="784.02,-851.42 792.42,-844.96 781.83,-844.77 784.02,-851.42"/>
</g>
<!-- Node68 -->
<g id="node38" class="node">
<title>Node68</title>
<g id="a_node38"><a xlink:href="TransmitterCode_2src_2main_8cpp.html#a5d3a46c21927cf7a3031a1e68e0b7b48" target="_top" xlink:title="SHOW COMMS.">
<polygon fill="#fff0f0" stroke="red" points="870.5,-918 795.5,-918 795.5,-899 870.5,-899 870.5,-918"/>
<text text-anchor="middle" x="833" y="-906" font-family="Helvetica,sans-Serif" font-size="10.00">ShowComms</text>
</a>
</g>
</g>
<!-- Node64&#45;&gt;Node68 -->
<g id="edge49" class="edge">
<title>Node64&#45;&gt;Node68</title>
<path fill="none" stroke="#63b8ff" d="M708.29,-908.5C730.46,-908.5 759.36,-908.5 783.65,-908.5"/>
<polygon fill="#63b8ff" stroke="#63b8ff" points="783.64,-912 793.64,-908.5 783.64,-905 783.64,-912"/>
</g>
<!-- Node76 -->
<g id="node40" class="node">
<title>Node76</title>
<g id="a_node40"><a xlink:href="TransmitterCode_2src_2main_8cpp.html#a6da9a1fd0b003151f79eabc702ba80ff" target="_top" xlink:title=" ">
<polygon fill="white" stroke="#666666" points="876.5,-992 789.5,-992 789.5,-973 876.5,-973 876.5,-992"/>
<text text-anchor="middle" x="833" y="-980" font-family="Helvetica,sans-Serif" font-size="10.00">ZeroDataScreen</text>
</a>
</g>
</g>
<!-- Node64&#45;&gt;Node76 -->
<g id="edge54" class="edge">
<title>Node64&#45;&gt;Node76</title>
<path fill="none" stroke="#63b8ff" d="M687.36,-918.43C705.63,-930.68 738.47,-951.48 769,-964.5 772.78,-966.11 776.75,-967.63 780.77,-969.04"/>
<polygon fill="#63b8ff" stroke="#63b8ff" points="779.45,-972.29 790.05,-972.08 781.63,-965.64 779.45,-972.29"/>
</g>
<!-- Node68&#45;&gt;Node38 -->
<g id="edge50" class="edge">
<title>Node68&#45;&gt;Node38</title>
<path fill="none" stroke="#63b8ff" d="M870.82,-915.89C879.82,-918.67 889.12,-922.44 897,-927.5 930.96,-949.28 959.67,-987.42 975.02,-1010.38"/>
<polygon fill="#63b8ff" stroke="#63b8ff" points="971.9,-1012 980.28,-1018.48 977.77,-1008.18 971.9,-1012"/>
</g>
<!-- Node68&#45;&gt;Node39 -->
<g id="edge51" class="edge">
<title>Node68&#45;&gt;Node39</title>
<path fill="none" stroke="#63b8ff" d="M870.69,-900.12C879.5,-897.54 888.75,-894.34 897,-890.5 977.59,-852.98 1061.67,-788.05 1099.25,-757.42"/>
<polygon fill="#63b8ff" stroke="#63b8ff" points="1101.11,-760.43 1106.61,-751.37 1096.66,-755.02 1101.11,-760.43"/>
</g>
<!-- Node68&#45;&gt;Node42 -->
<g id="edge52" class="edge">
<title>Node68&#45;&gt;Node42</title>
<path fill="none" stroke="#63b8ff" d="M870.71,-903.27C880.01,-900.61 889.48,-896.58 897,-890.5 922.29,-870.05 961.5,-782.12 978.58,-741.82"/>
<polygon fill="#63b8ff" stroke="#63b8ff" points="981.73,-743.36 982.37,-732.78 975.27,-740.65 981.73,-743.36"/>
</g>
<!-- Node68&#45;&gt;Node75 -->
<g id="edge53" class="edge">
<title>Node68&#45;&gt;Node75</title>
<path fill="none" stroke="#63b8ff" d="M870.65,-915.21C885.88,-917.99 904.03,-921.32 921.41,-924.5"/>
<polygon fill="#63b8ff" stroke="#63b8ff" points="920.73,-927.93 931.2,-926.29 921.99,-921.05 920.73,-927.93"/>
</g>
<!-- Node77&#45;&gt;Node45 -->
<g id="edge65" class="edge">
<title>Node77&#45;&gt;Node45</title>
<path fill="none" stroke="#63b8ff" d="M690.96,-449.59C704.37,-441.32 722.18,-428.35 733,-412.5 764.39,-366.51 729.37,-331.61 769,-292.5 770.19,-291.33 771.45,-290.23 772.77,-289.2"/>
<polygon fill="#63b8ff" stroke="#63b8ff" points="774.23,-292.41 780.91,-284.19 770.56,-286.45 774.23,-292.41"/>
</g>
<!-- Node78 -->
<g id="node42" class="node">
<title>Node78</title>
<g id="a_node42"><a xlink:href="transceiver_8h.html#a75fa77e7bbb1cfe8fe6e1a216fbdc17e" target="_top" xlink:title=" ">
<polygon fill="white" stroke="#666666" points="865.5,-321 800.5,-321 800.5,-302 865.5,-302 865.5,-321"/>
<text text-anchor="middle" x="833" y="-309" font-family="Helvetica,sans-Serif" font-size="10.00">GetAltitude</text>
</a>
</g>
</g>
<!-- Node77&#45;&gt;Node78 -->
<g id="edge56" class="edge">
<title>Node77&#45;&gt;Node78</title>
<path fill="none" stroke="#63b8ff" d="M689.9,-449.57C703.09,-441.11 721.11,-427.89 733,-412.5 757.58,-380.68 738.77,-356.01 769,-329.5 774.8,-324.41 781.96,-320.75 789.34,-318.13"/>
<polygon fill="#63b8ff" stroke="#63b8ff" points="790.1,-321.55 798.73,-315.4 788.15,-314.83 790.1,-321.55"/>
</g>
<!-- Node79 -->
<g id="node43" class="node">
<title>Node79</title>
<g id="a_node43"><a xlink:href="transceiver_8h.html#ab5736b017daadeb2c1d7dc73489d31a6" target="_top" xlink:title=" ">
<polygon fill="white" stroke="#666666" points="1041.5,-358 934.5,-358 934.5,-339 1041.5,-339 1041.5,-358"/>
<text text-anchor="middle" x="988" y="-346" font-family="Helvetica,sans-Serif" font-size="10.00">GetFromAckPayload</text>
</a>
</g>
</g>
<!-- Node77&#45;&gt;Node79 -->
<g id="edge59" class="edge">
<title>Node77&#45;&gt;Node79</title>
<path fill="none" stroke="#63b8ff" d="M685.4,-469.48C702.83,-482.81 736.15,-505.76 769,-514.5 823.97,-529.13 848.12,-543.6 897,-514.5 950.65,-482.56 974.29,-406.26 982.87,-369.28"/>
<polygon fill="#63b8ff" stroke="#63b8ff" points="986.22,-370.37 984.91,-359.85 979.38,-368.89 986.22,-370.37"/>
</g>
<!-- Node80 -->
<g id="node44" class="node">
<title>Node80</title>
<g id="a_node44"><a xlink:href="transceiver_8h.html#a160b9119423c34869b16a4ebdc421d35" target="_top" xlink:title=" ">
<polygon fill="white" stroke="#666666" points="896.5,-469 769.5,-469 769.5,-450 896.5,-450 896.5,-469"/>
<text text-anchor="middle" x="833" y="-457" font-family="Helvetica,sans-Serif" font-size="10.00">GetDateFromAckPayload</text>
</a>
</g>
</g>
<!-- Node77&#45;&gt;Node80 -->
<g id="edge58" class="edge">
<title>Node77&#45;&gt;Node80</title>
<path fill="none" stroke="#63b8ff" d="M719.42,-459.5C731.47,-459.5 744.76,-459.5 757.85,-459.5"/>
<polygon fill="#63b8ff" stroke="#63b8ff" points="757.75,-463 767.75,-459.5 757.75,-456 757.75,-463"/>
</g>
<!-- Node81 -->
<g id="node45" class="node">
<title>Node81</title>
<g id="a_node45"><a xlink:href="transceiver_8h.html#a494cb4acb30856d1f53f08df1b80c41b" target="_top" xlink:title=" ">
<polygon fill="#fff0f0" stroke="red" points="892.5,-432 773.5,-432 773.5,-413 892.5,-413 892.5,-432"/>
<text text-anchor="middle" x="833" y="-420" font-family="Helvetica,sans-Serif" font-size="10.00">GetModelsMacAddress</text>
</a>
</g>
</g>
<!-- Node77&#45;&gt;Node81 -->
<g id="edge60" class="edge">
<title>Node77&#45;&gt;Node81</title>
<path fill="none" stroke="#63b8ff" d="M715.61,-449.58C734.86,-445.11 757.81,-439.76 778.23,-435.01"/>
<polygon fill="#63b8ff" stroke="#63b8ff" points="778.85,-438.46 787.8,-432.79 777.27,-431.64 778.85,-438.46"/>
</g>
<!-- Node112 -->
<g id="node46" class="node">
<title>Node112</title>
<g id="a_node46"><a xlink:href="TransmitterCode_2src_2main_8cpp.html#a4f813935d8fe58355228cbbf25e12f96" target="_top" xlink:title=" ">
<polygon fill="#fff0f0" stroke="red" points="889.5,-619 776.5,-619 776.5,-600 889.5,-600 889.5,-619"/>
<text text-anchor="middle" x="833" y="-607" font-family="Helvetica,sans-Serif" font-size="10.00">GetRXVersionNumber</text>
</a>
</g>
</g>
<!-- Node77&#45;&gt;Node112 -->
<g id="edge61" class="edge">
<title>Node77&#45;&gt;Node112</title>
<path fill="none" stroke="#63b8ff" d="M677.46,-469.41C688.96,-493.82 722.04,-557.28 769,-590.5 771.2,-592.06 773.54,-593.49 775.96,-594.81"/>
<polygon fill="#63b8ff" stroke="#63b8ff" points="774.37,-597.93 784.92,-598.96 777.31,-591.58 774.37,-597.93"/>
</g>
<!-- Node219 -->
<g id="node47" class="node">
<title>Node219</title>
<g id="a_node47"><a xlink:href="transceiver_8h.html#a19f6fc09d690832e74fd3c679207f07f" target="_top" xlink:title=" ">
<polygon fill="white" stroke="#666666" points="876.5,-358 789.5,-358 789.5,-339 876.5,-339 876.5,-358"/>
<text text-anchor="middle" x="833" y="-346" font-family="Helvetica,sans-Serif" font-size="10.00">GetTemperature</text>
</a>
</g>
</g>
<!-- Node77&#45;&gt;Node219 -->
<g id="edge62" class="edge">
<title>Node77&#45;&gt;Node219</title>
<path fill="none" stroke="#63b8ff" d="M687.62,-449.57C700.29,-440.63 718.78,-426.73 733,-412.5 751.35,-394.14 747.46,-381 769,-366.5 772.02,-364.47 775.27,-362.66 778.64,-361.06"/>
<polygon fill="#63b8ff" stroke="#63b8ff" points="779.69,-364.41 787.63,-357.4 777.05,-357.93 779.69,-364.41"/>
</g>
<!-- Node220 -->
<g id="node48" class="node">
<title>Node220</title>
<g id="a_node48"><a xlink:href="transceiver_8h.html#a86523345ecdd52f3d93dccd6fcf4370a" target="_top" xlink:title=" ">
<polygon fill="white" stroke="#666666" points="897,-582 769,-582 769,-563 897,-563 897,-582"/>
<text text-anchor="middle" x="833" y="-570" font-family="Helvetica,sans-Serif" font-size="10.00">GetTimeFromAckPayload</text>
</a>
</g>
</g>
<!-- Node77&#45;&gt;Node220 -->
<g id="edge64" class="edge">
<title>Node77&#45;&gt;Node220</title>
<path fill="none" stroke="#63b8ff" d="M681.29,-469.37C696.84,-487.33 732.12,-525.6 769,-548.5 775,-552.23 781.68,-555.53 788.38,-558.41"/>
<polygon fill="#63b8ff" stroke="#63b8ff" points="786.83,-561.56 797.42,-562.01 789.42,-555.06 786.83,-561.56"/>
</g>
<!-- Node124 -->
<g id="node49" class="node">
<title>Node124</title>
<g id="a_node49"><a xlink:href="Utilities_8h.html#a7a48851f0d38e4a0dd727a30d9515cf1" target="_top" xlink:title=" ">
<polygon fill="white" stroke="#666666" points="870.5,-506 795.5,-506 795.5,-487 870.5,-487 870.5,-506"/>
<text text-anchor="middle" x="833" y="-494" font-family="Helvetica,sans-Serif" font-size="10.00">ReadTheRTC</text>
</a>
</g>
</g>
<!-- Node77&#45;&gt;Node124 -->
<g id="edge66" class="edge">
<title>Node77&#45;&gt;Node124</title>
<path fill="none" stroke="#63b8ff" d="M715.61,-469.42C736.76,-474.34 762.39,-480.3 784.2,-485.38"/>
<polygon fill="#63b8ff" stroke="#63b8ff" points="783.21,-488.74 793.75,-487.6 784.8,-481.92 783.21,-488.74"/>
</g>
<!-- Node78&#45;&gt;Node79 -->
<g id="edge57" class="edge">
<title>Node78&#45;&gt;Node79</title>
<path fill="none" stroke="#63b8ff" d="M865.7,-319.17C885.63,-323.99 911.83,-330.32 934.78,-335.87"/>
<polygon fill="#63b8ff" stroke="#63b8ff" points="933.73,-339.22 944.27,-338.17 935.37,-332.41 933.73,-339.22"/>
</g>
<!-- Node219&#45;&gt;Node79 -->
<g id="edge63" class="edge">
<title>Node219&#45;&gt;Node79</title>
<path fill="none" stroke="#63b8ff" d="M876.62,-348.5C890.99,-348.5 907.36,-348.5 923.02,-348.5"/>
<polygon fill="#63b8ff" stroke="#63b8ff" points="922.74,-352 932.74,-348.5 922.74,-345 922.74,-352"/>
</g>
</g>
</svg>
