<?xml version="1.0" encoding="UTF-8" standalone="no"?>
<!DOCTYPE svg PUBLIC "-//W3C//DTD SVG 1.1//EN"
 "http://www.w3.org/Graphics/SVG/1.1/DTD/svg11.dtd">
<!-- Generated by graphviz version 7.0.5 (20221223.1930)
 -->
<!-- Title: PlayPong Pages: 1 -->
<svg width="1170pt" height="1203pt"
 viewBox="0.00 0.00 1170.00 1203.22" xmlns="http://www.w3.org/2000/svg" xmlns:xlink="http://www.w3.org/1999/xlink">
<g id="graph0" class="graph" transform="scale(1 1) rotate(0) translate(4 1199.22)">
<title>PlayPong</title>
<!-- Node1 -->
<g id="node1" class="node">
<title>Node1</title>
<g id="a_node1"><a xlink:title=" ">
<polygon fill="#999999" stroke="#666666" points="58,-151 0,-151 0,-132 58,-132 58,-151"/>
<text text-anchor="middle" x="29" y="-139" font-family="Helvetica,sans-Serif" font-size="10.00">PlayPong</text>
</a>
</g>
</g>
<!-- Node2 -->
<g id="node2" class="node">
<title>Node2</title>
<g id="a_node2"><a xlink:href="Utilities_8h.html#a3b1d8aa403e2724e55c71da3d9d13e7e" target="_top" xlink:title=" ">
<polygon fill="white" stroke="#666666" points="171,-1021 94,-1021 94,-1002 171,-1002 171,-1021"/>
<text text-anchor="middle" x="132.5" y="-1009" font-family="Helvetica,sans-Serif" font-size="10.00">DelayWithDog</text>
</a>
</g>
</g>
<!-- Node1&#45;&gt;Node2 -->
<g id="edge1" class="edge">
<title>Node1&#45;&gt;Node2</title>
<path fill="none" stroke="#63b8ff" d="M31.14,-151.27C41.18,-237.36 114.56,-866.29 129.03,-990.3"/>
<polygon fill="#63b8ff" stroke="#63b8ff" points="125.53,-990.49 130.16,-1000.02 132.48,-989.68 125.53,-990.49"/>
</g>
<!-- Node36 -->
<g id="node12" class="node">
<title>Node36</title>
<g id="a_node12"><a xlink:href="Utilities_8h.html#aa490b4664b0a4498d53b30b82287d5df" target="_top" xlink:title=" ">
<polygon fill="white" stroke="#666666" points="900.5,-415 837.5,-415 837.5,-396 900.5,-396 900.5,-415"/>
<text text-anchor="middle" x="869" y="-403" font-family="Helvetica,sans-Serif" font-size="10.00">PlaySound</text>
</a>
</g>
</g>
<!-- Node1&#45;&gt;Node36 -->
<g id="edge78" class="edge">
<title>Node1&#45;&gt;Node36</title>
<path fill="none" stroke="#63b8ff" d="M58.18,-140.24C180.92,-135.34 667.7,-122.3 778,-217.5 826.63,-259.48 780.53,-302.66 814,-357.5 821.4,-369.63 832.83,-380.43 843.27,-388.69"/>
<polygon fill="#63b8ff" stroke="#63b8ff" points="841.12,-391.46 851.23,-394.63 845.31,-385.85 841.12,-391.46"/>
</g>
<!-- Node68 -->
<g id="node40" class="node">
<title>Node68</title>
<g id="a_node40"><a xlink:href="Nextion_8h.html#a1e20efc1e419b252b50d36f9924503fc" target="_top" xlink:title=" ">
<polygon fill="white" stroke="#666666" points="901,-312 837,-312 837,-293 901,-293 901,-312"/>
<text text-anchor="middle" x="869" y="-300" font-family="Helvetica,sans-Serif" font-size="10.00">SendValue</text>
</a>
</g>
</g>
<!-- Node1&#45;&gt;Node68 -->
<g id="edge79" class="edge">
<title>Node1&#45;&gt;Node68</title>
<path fill="none" stroke="#63b8ff" d="M45.69,-131.63C58.29,-124.15 76.67,-114.22 94,-108.5 156.86,-87.74 174.8,-84.5 241,-84.5 241,-84.5 241,-84.5 386,-84.5 474.19,-84.5 707.94,-92.94 778,-146.5 802.09,-164.91 841.33,-244.96 858.94,-282.69"/>
<polygon fill="#63b8ff" stroke="#63b8ff" points="855.67,-283.94 863.04,-291.55 862.02,-281 855.67,-283.94"/>
</g>
<!-- Node73 -->
<g id="node41" class="node">
<title>Node73</title>
<g id="a_node41"><a xlink:href="Utilities_8h.html#a793b7bcd77531c95fe72ed4356d421c8" target="_top" xlink:title=" ">
<polygon fill="white" stroke="#666666" points="924,-349 814,-349 814,-330 924,-330 924,-349"/>
<text text-anchor="middle" x="869" y="-337" font-family="Helvetica,sans-Serif" font-size="10.00">StartInactvityTimeout</text>
</a>
</g>
</g>
<!-- Node1&#45;&gt;Node73 -->
<g id="edge80" class="edge">
<title>Node1&#45;&gt;Node73</title>
<path fill="none" stroke="#63b8ff" d="M34.82,-151.43C43.74,-168.52 64.63,-202.93 94,-216.5 369.96,-344.03 530.23,-41.36 778,-217.5 817.52,-245.6 779.75,-286.17 814,-320.5 815.03,-321.53 816.11,-322.5 817.25,-323.42"/>
<polygon fill="#63b8ff" stroke="#63b8ff" points="815.15,-326.24 825.46,-328.69 818.93,-320.34 815.15,-326.24"/>
</g>
<!-- Node135 -->
<g id="node46" class="node">
<title>Node135</title>
<g id="a_node46"><a xlink:href="Utilities_8h.html#acbef1d41e1bd646b60a6e8afd9c66880" target="_top" xlink:title=" ">
<polygon fill="white" stroke="#666666" points="271,-199 213,-199 213,-180 271,-180 271,-199"/>
<text text-anchor="middle" x="242" y="-187" font-family="Helvetica,sans-Serif" font-size="10.00">DrawLine</text>
</a>
</g>
</g>
<!-- Node1&#45;&gt;Node135 -->
<g id="edge69" class="edge">
<title>Node1&#45;&gt;Node135</title>
<path fill="none" stroke="#63b8ff" d="M58.46,-147.97C95.37,-156.37 159.95,-171.06 201.57,-180.53"/>
<polygon fill="#63b8ff" stroke="#63b8ff" points="200.66,-183.91 211.18,-182.72 202.21,-177.09 200.66,-183.91"/>
</g>
<!-- Node222 -->
<g id="node47" class="node">
<title>Node222</title>
<g id="a_node47"><a xlink:href="Pong_8h.html#abead2677dc553c693bcf9bf0c54c0c81" target="_top" xlink:title=" ">
<polygon fill="white" stroke="#666666" points="161,-56 104,-56 104,-37 161,-37 161,-56"/>
<text text-anchor="middle" x="132.5" y="-44" font-family="Helvetica,sans-Serif" font-size="10.00">MoveBall</text>
</a>
</g>
</g>
<!-- Node1&#45;&gt;Node222 -->
<g id="edge72" class="edge">
<title>Node1&#45;&gt;Node222</title>
<path fill="none" stroke="#63b8ff" d="M37.55,-131.55C48.83,-117.07 71.22,-89.82 94,-70.5 97.26,-67.74 100.86,-65.05 104.5,-62.53"/>
<polygon fill="#63b8ff" stroke="#63b8ff" points="106.28,-65.55 112.75,-57.16 102.46,-59.68 106.28,-65.55"/>
</g>
<!-- Node223 -->
<g id="node49" class="node">
<title>Node223</title>
<g id="a_node49"><a xlink:href="Pong_8h.html#ae1838e25c06509f78c0de9f0e556d428" target="_top" xlink:title=" ">
<polygon fill="white" stroke="#666666" points="170.5,-208 94.5,-208 94.5,-189 170.5,-189 170.5,-208"/>
<text text-anchor="middle" x="132.5" y="-196" font-family="Helvetica,sans-Serif" font-size="10.00">MovePaddles</text>
</a>
</g>
</g>
<!-- Node1&#45;&gt;Node223 -->
<g id="edge76" class="edge">
<title>Node1&#45;&gt;Node223</title>
<path fill="none" stroke="#63b8ff" d="M47.68,-151.43C63.25,-160.17 86.19,-173.05 104.13,-183.13"/>
<polygon fill="#63b8ff" stroke="#63b8ff" points="102.27,-186.1 112.7,-187.94 105.7,-180 102.27,-186.1"/>
</g>
<!-- Node224 -->
<g id="node50" class="node">
<title>Node224</title>
<g id="a_node50"><a xlink:href="TransmitterCode_2src_2main_8cpp.html#a31322f63ce3e02c4ef9a0c1e0c7f1ff5" target="_top" xlink:title=" ">
<polygon fill="white" stroke="#666666" points="152.5,-19 112.5,-19 112.5,0 152.5,0 152.5,-19"/>
<text text-anchor="middle" x="132.5" y="-7" font-family="Helvetica,sans-Serif" font-size="10.00">swap</text>
</a>
</g>
</g>
<!-- Node1&#45;&gt;Node224 -->
<g id="edge81" class="edge">
<title>Node1&#45;&gt;Node224</title>
<path fill="none" stroke="#63b8ff" d="M33.21,-131.66C40.66,-110.15 61.06,-58.4 94,-27.5 96.42,-25.23 99.18,-23.2 102.08,-21.39"/>
<polygon fill="#63b8ff" stroke="#63b8ff" points="103.62,-24.53 110.84,-16.78 100.36,-18.33 103.62,-24.53"/>
</g>
<!-- Node3 -->
<g id="node3" class="node">
<title>Node3</title>
<g id="a_node3"><a xlink:href="Utilities_8h.html#ada95a00a341e4a80176eda743a94ab2e" target="_top" xlink:title=" ">
<polygon fill="white" stroke="#666666" points="277,-1039 207,-1039 207,-1020 277,-1020 277,-1039"/>
<text text-anchor="middle" x="242" y="-1027" font-family="Helvetica,sans-Serif" font-size="10.00">KickTheDog</text>
</a>
</g>
</g>
<!-- Node2&#45;&gt;Node3 -->
<g id="edge2" class="edge">
<title>Node2&#45;&gt;Node3</title>
<path fill="none" stroke="#63b8ff" d="M171.4,-1017.85C179.21,-1019.15 187.5,-1020.54 195.55,-1021.89"/>
<polygon fill="#63b8ff" stroke="#63b8ff" points="194.74,-1025.3 205.18,-1023.5 195.89,-1018.4 194.74,-1025.3"/>
</g>
<!-- Node4 -->
<g id="node4" class="node">
<title>Node4</title>
<g id="a_node4"><a xlink:href="transceiver_8h.html#a049bfb836e7aa4a3a48a1a4bd225fafc" target="_top" xlink:title=" ">
<polygon fill="white" stroke="#666666" points="271.5,-1002 212.5,-1002 212.5,-983 271.5,-983 271.5,-1002"/>
<text text-anchor="middle" x="242" y="-990" font-family="Helvetica,sans-Serif" font-size="10.00">SendData</text>
</a>
</g>
</g>
<!-- Node2&#45;&gt;Node4 -->
<g id="edge3" class="edge">
<title>Node2&#45;&gt;Node4</title>
<path fill="none" stroke="#63b8ff" d="M171.4,-1004.8C181.05,-1003.1 191.44,-1001.26 201.18,-999.54"/>
<polygon fill="#63b8ff" stroke="#63b8ff" points="201.5,-1003.04 210.73,-997.85 200.28,-996.14 201.5,-1003.04"/>
</g>
<!-- Node5 -->
<g id="node5" class="node">
<title>Node5</title>
<g id="a_node5"><a xlink:href="transceiver_8h.html#a1ddd5e8d5bd649dd98ce3710fbff651b" target="_top" xlink:title=" ">
<polygon fill="white" stroke="#666666" points="415.5,-1076 354.5,-1076 354.5,-1057 415.5,-1057 415.5,-1076"/>
<text text-anchor="middle" x="385" y="-1064" font-family="Helvetica,sans-Serif" font-size="10.00">Compress</text>
</a>
</g>
</g>
<!-- Node4&#45;&gt;Node5 -->
<g id="edge4" class="edge">
<title>Node4&#45;&gt;Node5</title>
<path fill="none" stroke="#63b8ff" d="M263.03,-1002.42C267.78,-1005.12 272.71,-1008.21 277,-1011.5 295.2,-1025.46 293.13,-1037.03 313,-1048.5 322.22,-1053.82 333,-1057.59 343.34,-1060.25"/>
<polygon fill="#63b8ff" stroke="#63b8ff" points="342.28,-1063.6 352.81,-1062.39 343.83,-1056.77 342.28,-1063.6"/>
</g>
<!-- Node6 -->
<g id="node6" class="node">
<title>Node6</title>
<g id="a_node6"><a xlink:href="transceiver_8h.html#a4144c213e5448a7e02d4172881f08219" target="_top" xlink:title=" ">
<polygon fill="white" stroke="#666666" points="457,-1039 313,-1039 313,-1020 457,-1020 457,-1039"/>
<text text-anchor="middle" x="385" y="-1027" font-family="Helvetica,sans-Serif" font-size="10.00">EncodeTheChangedChannels</text>
</a>
</g>
</g>
<!-- Node4&#45;&gt;Node6 -->
<g id="edge5" class="edge">
<title>Node4&#45;&gt;Node6</title>
<path fill="none" stroke="#63b8ff" d="M271.92,-1000.47C284.52,-1003.91 299.48,-1007.95 313,-1011.5 319.62,-1013.24 326.59,-1015.04 333.48,-1016.8"/>
<polygon fill="#63b8ff" stroke="#63b8ff" points="332.14,-1020.07 342.7,-1019.15 333.87,-1013.29 332.14,-1020.07"/>
</g>
<!-- Node7 -->
<g id="node7" class="node">
<title>Node7</title>
<g id="a_node7"><a xlink:href="transceiver_8h.html#a5fbd3c8613a4163425c94965704ce5f8" target="_top" xlink:title=" ">
<polygon fill="white" stroke="#666666" points="422,-904 348,-904 348,-885 422,-885 422,-904"/>
<text text-anchor="middle" x="385" y="-892" font-family="Helvetica,sans-Serif" font-size="10.00">FailedPacket</text>
</a>
</g>
</g>
<!-- Node4&#45;&gt;Node7 -->
<g id="edge6" class="edge">
<title>Node4&#45;&gt;Node7</title>
<path fill="none" stroke="#63b8ff" d="M255.72,-982.67C269.61,-972.02 292.61,-954.66 313,-940.5 327.81,-930.22 344.73,-919.23 358.34,-910.56"/>
<polygon fill="#63b8ff" stroke="#63b8ff" points="360.16,-913.56 366.74,-905.25 356.41,-907.64 360.16,-913.56"/>
</g>
<!-- Node46 -->
<g id="node21" class="node">
<title>Node46</title>
<g id="a_node21"><a xlink:href="common_8h.html#a6e2d4126d864c50e7c23c988c2bfdd1a" target="_top" xlink:title=" ">
<polygon fill="white" stroke="#666666" points="892.5,-1019 845.5,-1019 845.5,-1000 892.5,-1000 892.5,-1019"/>
<text text-anchor="middle" x="869" y="-1007" font-family="Helvetica,sans-Serif" font-size="10.00">Radio1</text>
</a>
</g>
</g>
<!-- Node4&#45;&gt;Node46 -->
<g id="edge28" class="edge">
<title>Node4&#45;&gt;Node46</title>
<path fill="none" stroke="#63b8ff" d="M271.97,-983.3C284.46,-979.8 299.31,-976.23 313,-974.5 509.22,-949.68 746.81,-987 833.9,-1002.9"/>
<polygon fill="#63b8ff" stroke="#63b8ff" points="833.21,-1006.33 843.68,-1004.71 834.49,-999.45 833.21,-1006.33"/>
</g>
<!-- Node49 -->
<g id="node23" class="node">
<title>Node49</title>
<g id="a_node23"><a xlink:href="transceiver_8h.html#a07c27b4e208198453c70876517926052" target="_top" xlink:title=" ">
<polygon fill="white" stroke="#666666" points="416,-1002 354,-1002 354,-983 416,-983 416,-1002"/>
<text text-anchor="middle" x="385" y="-990" font-family="Helvetica,sans-Serif" font-size="10.00">FlushFifos</text>
</a>
</g>
</g>
<!-- Node4&#45;&gt;Node49 -->
<g id="edge26" class="edge">
<title>Node4&#45;&gt;Node49</title>
<path fill="none" stroke="#63b8ff" d="M271.87,-992.5C292.18,-992.5 319.67,-992.5 342.35,-992.5"/>
<polygon fill="#63b8ff" stroke="#63b8ff" points="342.19,-996 352.19,-992.5 342.19,-989 342.19,-996"/>
</g>
<!-- Node50 -->
<g id="node24" class="node">
<title>Node50</title>
<g id="a_node24"><a xlink:href="transceiver_8h.html#a65249d0ac8676541d13ced58b1ce7624" target="_top" xlink:title=" ">
<polygon fill="white" stroke="#666666" points="444.5,-510 325.5,-510 325.5,-491 444.5,-491 444.5,-510"/>
<text text-anchor="middle" x="385" y="-498" font-family="Helvetica,sans-Serif" font-size="10.00">SendExtraParamemters</text>
</a>
</g>
</g>
<!-- Node4&#45;&gt;Node50 -->
<g id="edge29" class="edge">
<title>Node4&#45;&gt;Node50</title>
<path fill="none" stroke="#63b8ff" d="M245.76,-982.53C255.11,-948.86 286.4,-836.31 313,-743.5 336.65,-661 365.53,-562.98 377.9,-521.11"/>
<polygon fill="#63b8ff" stroke="#63b8ff" points="381.21,-522.25 380.69,-511.66 374.5,-520.26 381.21,-522.25"/>
</g>
<!-- Node54 -->
<g id="node28" class="node">
<title>Node54</title>
<g id="a_node28"><a xlink:href="BuddyWireless_8h.html#a41c327908c92572d0d3eebbb19160d86" target="_top" xlink:title=" ">
<polygon fill="white" stroke="#666666" points="605,-1133 503,-1133 503,-1114 605,-1114 605,-1133"/>
<text text-anchor="middle" x="554" y="-1121" font-family="Helvetica,sans-Serif" font-size="10.00">SendSpecialPacket</text>
</a>
</g>
</g>
<!-- Node4&#45;&gt;Node54 -->
<g id="edge34" class="edge">
<title>Node4&#45;&gt;Node54</title>
<path fill="none" stroke="#63b8ff" d="M266.36,-1002.44C270.32,-1004.94 274.08,-1007.95 277,-1011.5 309.91,-1051.58 271.11,-1091.92 313,-1122.5 371.35,-1165.1 460.75,-1150.45 512.38,-1136.56"/>
<polygon fill="#63b8ff" stroke="#63b8ff" points="513.28,-1139.95 521.96,-1133.86 511.38,-1133.21 513.28,-1139.95"/>
</g>
<!-- Node58 -->
<g id="node32" class="node">
<title>Node58</title>
<g id="a_node32"><a xlink:href="BuddyPPM_8h.html#a784a1eca0361b3991bca899167cc1cdb" target="_top" xlink:title=" ">
<polygon fill="white" stroke="#666666" points="422.5,-1113 347.5,-1113 347.5,-1094 422.5,-1094 422.5,-1113"/>
<text text-anchor="middle" x="385" y="-1101" font-family="Helvetica,sans-Serif" font-size="10.00">SendViaPPM</text>
</a>
</g>
</g>
<!-- Node4&#45;&gt;Node58 -->
<g id="edge42" class="edge">
<title>Node4&#45;&gt;Node58</title>
<path fill="none" stroke="#63b8ff" d="M265.26,-1002.35C269.5,-1004.91 273.66,-1007.96 277,-1011.5 302.12,-1038.09 284.63,-1062.41 313,-1085.5 319.72,-1090.97 327.89,-1094.8 336.27,-1097.48"/>
<polygon fill="#63b8ff" stroke="#63b8ff" points="335.27,-1100.84 345.83,-1100 337.05,-1094.07 335.27,-1100.84"/>
</g>
<!-- Node59 -->
<g id="node33" class="node">
<title>Node59</title>
<g id="a_node33"><a xlink:href="transceiver_8h.html#a1c11bb6771548de7d96723045b922620" target="_top" xlink:title=" ">
<polygon fill="white" stroke="#666666" points="433,-772 337,-772 337,-753 433,-753 433,-772"/>
<text text-anchor="middle" x="385" y="-760" font-family="Helvetica,sans-Serif" font-size="10.00">SuccessfulPacket</text>
</a>
</g>
</g>
<!-- Node4&#45;&gt;Node59 -->
<g id="edge43" class="edge">
<title>Node4&#45;&gt;Node59</title>
<path fill="none" stroke="#63b8ff" d="M248.95,-982.54C260.96,-962.44 289.03,-915.6 313,-876.5 333.52,-843.04 357.75,-804.29 371.94,-781.68"/>
<polygon fill="#63b8ff" stroke="#63b8ff" points="374.72,-783.84 377.07,-773.51 368.79,-780.12 374.72,-783.84"/>
</g>
<!-- Node8 -->
<g id="node8" class="node">
<title>Node8</title>
<g id="a_node8"><a xlink:href="transceiver_8h.html#afc091b5942e21a03f6dc8635d5e519ba" target="_top" xlink:title=" ">
<polygon fill="white" stroke="#666666" points="615,-886 493,-886 493,-867 615,-867 615,-886"/>
<text text-anchor="middle" x="554" y="-874" font-family="Helvetica,sans-Serif" font-size="10.00">RecordsPacketSuccess</text>
</a>
</g>
</g>
<!-- Node7&#45;&gt;Node8 -->
<g id="edge7" class="edge">
<title>Node7&#45;&gt;Node8</title>
<path fill="none" stroke="#63b8ff" d="M422.24,-890.59C439.56,-888.73 460.93,-886.42 481.33,-884.22"/>
<polygon fill="#63b8ff" stroke="#63b8ff" points="481.46,-887.73 491.03,-883.18 480.71,-880.77 481.46,-887.73"/>
</g>
<!-- Node9 -->
<g id="node9" class="node">
<title>Node9</title>
<g id="a_node9"><a xlink:href="TransmitterCode_2src_2main_8cpp.html#a7d34cec6e8edc20c8b50424e15dcc7c7" target="_top" xlink:title=" ">
<polygon fill="white" stroke="#666666" points="585.5,-659 522.5,-659 522.5,-640 585.5,-640 585.5,-659"/>
<text text-anchor="middle" x="554" y="-647" font-family="Helvetica,sans-Serif" font-size="10.00">RedLedOn</text>
</a>
</g>
</g>
<!-- Node7&#45;&gt;Node9 -->
<g id="edge8" class="edge">
<title>Node7&#45;&gt;Node9</title>
<path fill="none" stroke="#63b8ff" d="M392.75,-884.59C417.88,-847.73 506.25,-718.09 539.87,-668.76"/>
<polygon fill="#63b8ff" stroke="#63b8ff" points="542.75,-670.75 545.49,-660.51 536.97,-666.8 542.75,-670.75"/>
</g>
<!-- Node42 -->
<g id="node19" class="node">
<title>Node42</title>
<g id="a_node19"><a xlink:href="transceiver_8h.html#ad0236abcfc887ad708d9504c4ab2a7c3" target="_top" xlink:title=" ">
<polygon fill="white" stroke="#666666" points="598,-923 510,-923 510,-904 598,-904 598,-923"/>
<text text-anchor="middle" x="554" y="-911" font-family="Helvetica,sans-Serif" font-size="10.00">TryToReconnect</text>
</a>
</g>
</g>
<!-- Node7&#45;&gt;Node42 -->
<g id="edge22" class="edge">
<title>Node7&#45;&gt;Node42</title>
<path fill="none" stroke="#63b8ff" d="M422.24,-898.62C444.53,-901.16 473.53,-904.46 498.55,-907.31"/>
<polygon fill="#63b8ff" stroke="#63b8ff" points="497.89,-910.75 508.22,-908.41 498.68,-903.8 497.89,-910.75"/>
</g>
<!-- Node10 -->
<g id="node10" class="node">
<title>Node10</title>
<g id="a_node10"><a xlink:href="Utilities_8h.html#a549a702bb9b539c6b3a4f20cce65adcc" target="_top" xlink:title=" ">
<polygon fill="#fff0f0" stroke="red" points="763.5,-583 665.5,-583 665.5,-564 763.5,-564 763.5,-583"/>
<text text-anchor="middle" x="714.5" y="-571" font-family="Helvetica,sans-Serif" font-size="10.00">GetLEDBrightness</text>
</a>
</g>
</g>
<!-- Node9&#45;&gt;Node10 -->
<g id="edge9" class="edge">
<title>Node9&#45;&gt;Node10</title>
<path fill="none" stroke="#63b8ff" d="M571.66,-639.62C590.54,-628.62 622.42,-610.66 651,-597.5 658.55,-594.02 666.76,-590.62 674.67,-587.51"/>
<polygon fill="#63b8ff" stroke="#63b8ff" points="675.68,-590.87 683.76,-584.03 673.17,-584.34 675.68,-590.87"/>
</g>
<!-- Node20 -->
<g id="node11" class="node">
<title>Node20</title>
<g id="a_node11"><a xlink:href="TransmitterCode_2src_2main_8cpp.html#a2d5ec5fd5ed62d5b7b071fabe2225405" target="_top" xlink:title=" ">
<polygon fill="#fff0f0" stroke="red" points="762.5,-697 666.5,-697 666.5,-678 762.5,-678 762.5,-697"/>
<text text-anchor="middle" x="714.5" y="-685" font-family="Helvetica,sans-Serif" font-size="10.00">LogDisConnection</text>
</a>
</g>
</g>
<!-- Node9&#45;&gt;Node20 -->
<g id="edge10" class="edge">
<title>Node9&#45;&gt;Node20</title>
<path fill="none" stroke="#63b8ff" d="M585.94,-656.92C607.19,-662.01 635.93,-668.9 660.75,-674.85"/>
<polygon fill="#63b8ff" stroke="#63b8ff" points="659.83,-678.23 670.37,-677.16 661.46,-671.42 659.83,-678.23"/>
</g>
<!-- Node9&#45;&gt;Node36 -->
<g id="edge11" class="edge">
<title>Node9&#45;&gt;Node36</title>
<path fill="none" stroke="#63b8ff" d="M585.84,-641.83C646.16,-626.79 774.22,-594.6 778,-591.5 831.18,-547.85 855.19,-465.21 863.89,-426.5"/>
<polygon fill="#63b8ff" stroke="#63b8ff" points="867.28,-427.36 865.92,-416.86 860.44,-425.92 867.28,-427.36"/>
</g>
<!-- Node37 -->
<g id="node13" class="node">
<title>Node37</title>
<g id="a_node13"><a xlink:href="Nextion_8h.html#aecac2f0c289f02ef3c92b85be82eacac" target="_top" xlink:title=" ">
<polygon fill="white" stroke="#666666" points="1043,-621 960,-621 960,-602 1043,-602 1043,-621"/>
<text text-anchor="middle" x="1001.5" y="-609" font-family="Helvetica,sans-Serif" font-size="10.00">SendCommand</text>
</a>
</g>
</g>
<!-- Node9&#45;&gt;Node37 -->
<g id="edge17" class="edge">
<title>Node9&#45;&gt;Node37</title>
<path fill="none" stroke="#63b8ff" d="M567.07,-659.43C584.38,-672.96 617.85,-696.54 651,-705.5 705.49,-720.23 722.68,-716.71 778,-705.5 852.51,-690.41 933.08,-649.55 973.75,-626.98"/>
<polygon fill="#63b8ff" stroke="#63b8ff" points="975.35,-630.1 982.35,-622.15 971.92,-624 975.35,-630.1"/>
</g>
<!-- Node40 -->
<g id="node17" class="node">
<title>Node40</title>
<g id="a_node17"><a xlink:href="Nextion_8h.html#afe513398f72d5e48f691830a1ef6eb42" target="_top" xlink:title=" ">
<polygon fill="white" stroke="#666666" points="898,-621 840,-621 840,-602 898,-602 898,-621"/>
<text text-anchor="middle" x="869" y="-609" font-family="Helvetica,sans-Serif" font-size="10.00">SendText</text>
</a>
</g>
</g>
<!-- Node9&#45;&gt;Node40 -->
<g id="edge18" class="edge">
<title>Node9&#45;&gt;Node40</title>
<path fill="none" stroke="#63b8ff" d="M585.72,-646.66C628.77,-642.56 709.47,-634.51 778,-625.5 794.65,-623.31 812.98,-620.53 828.73,-618.02"/>
<polygon fill="#63b8ff" stroke="#63b8ff" points="828.86,-621.54 838.18,-616.5 827.75,-614.63 828.86,-621.54"/>
</g>
<!-- Node41 -->
<g id="node18" class="node">
<title>Node41</title>
<g id="a_node18"><a xlink:href="TransmitterCode_2src_2main_8cpp.html#a083c423be6ce1635de5961d0fc72ff06" target="_top" xlink:title=" ">
<polygon fill="white" stroke="#666666" points="764,-359 665,-359 665,-340 764,-340 764,-359"/>
<text text-anchor="middle" x="714.5" y="-347" font-family="Helvetica,sans-Serif" font-size="10.00">SetUKFrequencies</text>
</a>
</g>
</g>
<!-- Node9&#45;&gt;Node41 -->
<g id="edge21" class="edge">
<title>Node9&#45;&gt;Node41</title>
<path fill="none" stroke="#63b8ff" d="M560.35,-639.5C571.77,-617.82 598.8,-564.64 615,-517.5 637.29,-452.66 603.62,-417.05 651,-367.5 652.34,-366.1 653.78,-364.8 655.31,-363.61"/>
<polygon fill="#63b8ff" stroke="#63b8ff" points="656.82,-366.79 663.51,-358.57 653.16,-360.82 656.82,-366.79"/>
</g>
<!-- Node36&#45;&gt;Node37 -->
<g id="edge12" class="edge">
<title>Node36&#45;&gt;Node37</title>
<path fill="none" stroke="#63b8ff" d="M879.96,-415.24C891.45,-426.79 910.48,-446.96 924,-466.5 952.88,-508.27 978.67,-562.25 991.64,-591.13"/>
<polygon fill="#63b8ff" stroke="#63b8ff" points="988.39,-592.43 995.63,-600.16 994.79,-589.59 988.39,-592.43"/>
</g>
<!-- Node28 -->
<g id="node16" class="node">
<title>Node28</title>
<g id="a_node16"><a xlink:href="Utilities_8h.html#a590a9174319918d7e3d7baca323fcf26" target="_top" xlink:title=" ">
<polygon fill="white" stroke="#666666" points="1016,-184 987,-184 987,-165 1016,-165 1016,-184"/>
<text text-anchor="middle" x="1001.5" y="-172" font-family="Helvetica,sans-Serif" font-size="10.00">Str</text>
</a>
</g>
</g>
<!-- Node36&#45;&gt;Node28 -->
<g id="edge16" class="edge">
<title>Node36&#45;&gt;Node28</title>
<path fill="none" stroke="#63b8ff" d="M884.48,-395.5C896.41,-386.66 913.07,-372.81 924,-357.5 961.59,-304.85 985.2,-230.93 995.11,-195.31"/>
<polygon fill="#63b8ff" stroke="#63b8ff" points="998.44,-196.43 997.65,-185.86 991.68,-194.61 998.44,-196.43"/>
</g>
<!-- Node37&#45;&gt;Node2 -->
<g id="edge13" class="edge">
<title>Node37&#45;&gt;Node2</title>
<path fill="none" stroke="#63b8ff" d="M1000.71,-621.25C1001.92,-688.45 1005.49,-1082.8 924,-1160.5 856.66,-1224.71 808.55,-1179.5 715.5,-1179.5 384,-1179.5 384,-1179.5 384,-1179.5 277.61,-1179.5 182.31,-1073.68 147.51,-1030.01"/>
<polygon fill="#63b8ff" stroke="#63b8ff" points="150.34,-1027.95 141.43,-1022.21 144.81,-1032.25 150.34,-1027.95"/>
</g>
<!-- Node38 -->
<g id="node14" class="node">
<title>Node38</title>
<g id="a_node14"><a xlink:href="Nextion_8h.html#a43937dd3d9c795271fd9c3eb3c6b6410" target="_top" xlink:title=" ">
<polygon fill="white" stroke="#666666" points="1162,-583 1079,-583 1079,-564 1162,-564 1162,-583"/>
<text text-anchor="middle" x="1120.5" y="-571" font-family="Helvetica,sans-Serif" font-size="10.00">GetReturnCode</text>
</a>
</g>
</g>
<!-- Node37&#45;&gt;Node38 -->
<g id="edge14" class="edge">
<title>Node37&#45;&gt;Node38</title>
<path fill="none" stroke="#63b8ff" d="M1033.24,-601.52C1046.94,-597.07 1063.29,-591.75 1078.06,-586.96"/>
<polygon fill="#63b8ff" stroke="#63b8ff" points="1079.1,-590.3 1087.53,-583.88 1076.93,-583.65 1079.1,-590.3"/>
</g>
<!-- Node39 -->
<g id="node15" class="node">
<title>Node39</title>
<g id="a_node15"><a xlink:href="TransmitterCode_2src_2main_8cpp.html#a5f109790a6fe0b972a502f3cac4ed1e7" target="_top" xlink:title=" ">
<polygon fill="white" stroke="#666666" points="1144.5,-621 1096.5,-621 1096.5,-602 1144.5,-602 1144.5,-621"/>
<text text-anchor="middle" x="1120.5" y="-609" font-family="Helvetica,sans-Serif" font-size="10.00">InStrng</text>
</a>
</g>
</g>
<!-- Node37&#45;&gt;Node39 -->
<g id="edge15" class="edge">
<title>Node37&#45;&gt;Node39</title>
<path fill="none" stroke="#63b8ff" d="M1043.42,-611.5C1056.94,-611.5 1071.84,-611.5 1084.85,-611.5"/>
<polygon fill="#63b8ff" stroke="#63b8ff" points="1084.65,-615 1094.65,-611.5 1084.65,-608 1084.65,-615"/>
</g>
<!-- Node40&#45;&gt;Node37 -->
<g id="edge20" class="edge">
<title>Node40&#45;&gt;Node37</title>
<path fill="none" stroke="#63b8ff" d="M898.32,-611.5C913.01,-611.5 931.44,-611.5 948.58,-611.5"/>
<polygon fill="#63b8ff" stroke="#63b8ff" points="948.09,-615 958.09,-611.5 948.09,-608 948.09,-615"/>
</g>
<!-- Node40&#45;&gt;Node38 -->
<g id="edge19" class="edge">
<title>Node40&#45;&gt;Node38</title>
<path fill="none" stroke="#63b8ff" d="M898.25,-604.86C915.92,-600.87 939.2,-595.93 960,-592.5 995.78,-586.6 1036.36,-581.8 1067.64,-578.49"/>
<polygon fill="#63b8ff" stroke="#63b8ff" points="1067.62,-582.01 1077.21,-577.5 1066.9,-575.05 1067.62,-582.01"/>
</g>
<!-- Node43 -->
<g id="node20" class="node">
<title>Node43</title>
<g id="a_node20"><a xlink:href="transceiver_8h.html#a52aa3e80bccf5e75346c93fdae63122d" target="_top" xlink:title=" ">
<polygon fill="#fff0f0" stroke="red" points="765,-886 664,-886 664,-867 765,-867 765,-886"/>
<text text-anchor="middle" x="714.5" y="-874" font-family="Helvetica,sans-Serif" font-size="10.00">HopToNextChannel</text>
</a>
</g>
</g>
<!-- Node42&#45;&gt;Node43 -->
<g id="edge23" class="edge">
<title>Node42&#45;&gt;Node43</title>
<path fill="none" stroke="#63b8ff" d="M597.48,-903.58C616.66,-899.11 639.55,-893.76 659.9,-889.01"/>
<polygon fill="#63b8ff" stroke="#63b8ff" points="660.49,-892.47 669.43,-886.79 658.9,-885.65 660.49,-892.47"/>
</g>
<!-- Node47 -->
<g id="node22" class="node">
<title>Node47</title>
<g id="a_node22"><a xlink:href="transceiver_8h.html#ad0e30213b21808d00110752679788a8c" target="_top" xlink:title=" ">
<polygon fill="#fff0f0" stroke="red" points="751.5,-962 677.5,-962 677.5,-943 751.5,-943 751.5,-962"/>
<text text-anchor="middle" x="714.5" y="-950" font-family="Helvetica,sans-Serif" font-size="10.00">TryOtherPipe</text>
</a>
</g>
</g>
<!-- Node42&#45;&gt;Node47 -->
<g id="edge25" class="edge">
<title>Node42&#45;&gt;Node47</title>
<path fill="none" stroke="#63b8ff" d="M595.41,-923.44C616.98,-928.75 643.66,-935.32 666.2,-940.86"/>
<polygon fill="#63b8ff" stroke="#63b8ff" points="665.21,-944.22 675.76,-943.21 666.88,-937.43 665.21,-944.22"/>
</g>
<!-- Node43&#45;&gt;Node46 -->
<g id="edge24" class="edge">
<title>Node43&#45;&gt;Node46</title>
<path fill="none" stroke="#63b8ff" d="M750.84,-886.47C760.17,-890.04 769.89,-894.66 778,-900.5 812.21,-925.11 841.01,-965.74 856.28,-989.83"/>
<polygon fill="#63b8ff" stroke="#63b8ff" points="853.29,-991.65 861.51,-998.33 859.25,-987.98 853.29,-991.65"/>
</g>
<!-- Node49&#45;&gt;Node46 -->
<g id="edge27" class="edge">
<title>Node49&#45;&gt;Node46</title>
<path fill="none" stroke="#63b8ff" d="M416.2,-994.09C465.38,-996.62 565.85,-1001.59 651,-1004.5 715.58,-1006.71 791.01,-1008.2 833.77,-1008.95"/>
<polygon fill="#63b8ff" stroke="#63b8ff" points="833.62,-1012.44 843.68,-1009.12 833.74,-1005.44 833.62,-1012.44"/>
</g>
<!-- Node51 -->
<g id="node25" class="node">
<title>Node51</title>
<g id="a_node25"><a xlink:href="transceiver_8h.html#adac102739147db6397bbcbb371aec4fd" target="_top" xlink:title=" ">
<polygon fill="white" stroke="#666666" points="598.5,-283 509.5,-283 509.5,-264 598.5,-264 598.5,-283"/>
<text text-anchor="middle" x="554" y="-271" font-family="Helvetica,sans-Serif" font-size="10.00">LoadParameters</text>
</a>
</g>
</g>
<!-- Node50&#45;&gt;Node51 -->
<g id="edge30" class="edge">
<title>Node50&#45;&gt;Node51</title>
<path fill="none" stroke="#63b8ff" d="M388.58,-490.51C397.44,-458.07 429.65,-354.55 493,-297.5 496.96,-293.93 501.52,-290.86 506.31,-288.23"/>
<polygon fill="#63b8ff" stroke="#63b8ff" points="507.5,-291.54 515.01,-284.07 504.48,-285.23 507.5,-291.54"/>
</g>
<!-- Node51&#45;&gt;Node41 -->
<g id="edge33" class="edge">
<title>Node51&#45;&gt;Node41</title>
<path fill="none" stroke="#63b8ff" d="M575.72,-283.44C603.01,-296.52 651.23,-319.64 682.77,-334.77"/>
<polygon fill="#63b8ff" stroke="#63b8ff" points="680.88,-337.74 691.41,-338.91 683.91,-331.43 680.88,-337.74"/>
</g>
<!-- Node52 -->
<g id="node26" class="node">
<title>Node52</title>
<g id="a_node26"><a xlink:href="TransmitterCode_2src_2main_8cpp.html#a5aa4888b924a4f1d95e9cedc3004f2b6" target="_top" xlink:title=" ">
<polygon fill="white" stroke="#666666" points="756,-246 673,-246 673,-227 756,-227 756,-246"/>
<text text-anchor="middle" x="714.5" y="-234" font-family="Helvetica,sans-Serif" font-size="10.00">MakeTwobytes</text>
</a>
</g>
</g>
<!-- Node51&#45;&gt;Node52 -->
<g id="edge31" class="edge">
<title>Node51&#45;&gt;Node52</title>
<path fill="none" stroke="#63b8ff" d="M597.48,-263.58C617.13,-259 640.66,-253.5 661.37,-248.67"/>
<polygon fill="#63b8ff" stroke="#63b8ff" points="662.13,-252.09 671.08,-246.4 660.54,-245.27 662.13,-252.09"/>
</g>
<!-- Node53 -->
<g id="node27" class="node">
<title>Node53</title>
<g id="a_node27"><a xlink:href="TransmitterCode_2src_2main_8cpp.html#a60a8ba3819508aedbe1d59640b0a79b0" target="_top" xlink:title=" ">
<polygon fill="white" stroke="#666666" points="766.5,-283 662.5,-283 662.5,-264 766.5,-264 766.5,-283"/>
<text text-anchor="middle" x="714.5" y="-271" font-family="Helvetica,sans-Serif" font-size="10.00">SetTestFrequencies</text>
</a>
</g>
</g>
<!-- Node51&#45;&gt;Node53 -->
<g id="edge32" class="edge">
<title>Node51&#45;&gt;Node53</title>
<path fill="none" stroke="#63b8ff" d="M598.73,-273.5C614.82,-273.5 633.36,-273.5 650.79,-273.5"/>
<polygon fill="#63b8ff" stroke="#63b8ff" points="650.53,-277 660.53,-273.5 650.53,-270 650.53,-277"/>
</g>
<!-- Node54&#45;&gt;Node46 -->
<g id="edge41" class="edge">
<title>Node54&#45;&gt;Node46</title>
<path fill="none" stroke="#63b8ff" d="M580.18,-1113.52C599.49,-1105.94 626.84,-1095.34 651,-1086.5 707.1,-1065.98 721.73,-1062.56 778,-1042.5 796.77,-1035.81 817.68,-1028.15 834.61,-1021.9"/>
<polygon fill="#63b8ff" stroke="#63b8ff" points="835.52,-1025.3 843.69,-1018.55 833.09,-1018.73 835.52,-1025.3"/>
</g>
<!-- Node55 -->
<g id="node29" class="node">
<title>Node55</title>
<g id="a_node29"><a xlink:href="BuddyWireless_8h.html#af59c2527be7a67d6b09dd467f3123d55" target="_top" xlink:title=" ">
<polygon fill="white" stroke="#666666" points="750,-1151 679,-1151 679,-1132 750,-1132 750,-1151"/>
<text text-anchor="middle" x="714.5" y="-1139" font-family="Helvetica,sans-Serif" font-size="10.00">GetPupilAck</text>
</a>
</g>
</g>
<!-- Node54&#45;&gt;Node55 -->
<g id="edge35" class="edge">
<title>Node54&#45;&gt;Node55</title>
<path fill="none" stroke="#63b8ff" d="M605.15,-1129.2C625.07,-1131.46 647.84,-1134.04 667.35,-1136.26"/>
<polygon fill="#63b8ff" stroke="#63b8ff" points="666.88,-1139.73 677.21,-1137.38 667.67,-1132.77 666.88,-1139.73"/>
</g>
<!-- Node57 -->
<g id="node31" class="node">
<title>Node57</title>
<g id="a_node31"><a xlink:href="BuddyWireless_8h.html#a89fc05df708fec875356b62d21b2ce7b" target="_top" xlink:title=" ">
<polygon fill="white" stroke="#666666" points="753,-1114 676,-1114 676,-1095 753,-1095 753,-1114"/>
<text text-anchor="middle" x="714.5" y="-1102" font-family="Helvetica,sans-Serif" font-size="10.00">PupilDetected</text>
</a>
</g>
</g>
<!-- Node54&#45;&gt;Node57 -->
<g id="edge38" class="edge">
<title>Node54&#45;&gt;Node57</title>
<path fill="none" stroke="#63b8ff" d="M605.15,-1117.49C624.08,-1115.22 645.58,-1112.64 664.4,-1110.39"/>
<polygon fill="#63b8ff" stroke="#63b8ff" points="664.72,-1113.87 674.23,-1109.21 663.89,-1106.92 664.72,-1113.87"/>
</g>
<!-- Node55&#45;&gt;Node46 -->
<g id="edge37" class="edge">
<title>Node55&#45;&gt;Node46</title>
<path fill="none" stroke="#63b8ff" d="M750.26,-1135.58C759.79,-1132.9 769.75,-1129.04 778,-1123.5 814.47,-1099.01 842.98,-1055.05 857.48,-1029.47"/>
<polygon fill="#63b8ff" stroke="#63b8ff" points="860.51,-1031.22 862.25,-1020.77 854.37,-1027.86 860.51,-1031.22"/>
</g>
<!-- Node56 -->
<g id="node30" class="node">
<title>Node56</title>
<g id="a_node30"><a xlink:href="transceiver_8h.html#a6feccc8c0583de3235616d42076f1371" target="_top" xlink:title=" ">
<polygon fill="white" stroke="#666666" points="904.5,-1151 833.5,-1151 833.5,-1132 904.5,-1132 904.5,-1151"/>
<text text-anchor="middle" x="869" y="-1139" font-family="Helvetica,sans-Serif" font-size="10.00">Decompress</text>
</a>
</g>
</g>
<!-- Node55&#45;&gt;Node56 -->
<g id="edge36" class="edge">
<title>Node55&#45;&gt;Node56</title>
<path fill="none" stroke="#63b8ff" d="M750.49,-1141.5C771.7,-1141.5 799.01,-1141.5 821.97,-1141.5"/>
<polygon fill="#63b8ff" stroke="#63b8ff" points="821.66,-1145 831.66,-1141.5 821.66,-1138 821.66,-1145"/>
</g>
<!-- Node57&#45;&gt;Node37 -->
<g id="edge39" class="edge">
<title>Node57&#45;&gt;Node37</title>
<path fill="none" stroke="#63b8ff" d="M753.48,-1101.77C800.89,-1096.23 880.99,-1079.42 924,-1028.5 975.74,-967.24 994.82,-708.16 999.36,-632.39"/>
<polygon fill="#63b8ff" stroke="#63b8ff" points="1002.84,-632.85 999.92,-622.67 995.85,-632.45 1002.84,-632.85"/>
</g>
<!-- Node57&#45;&gt;Node40 -->
<g id="edge40" class="edge">
<title>Node57&#45;&gt;Node40</title>
<path fill="none" stroke="#63b8ff" d="M720.88,-1094.77C732.65,-1073.17 760.97,-1019.33 778,-971.5 822.62,-846.22 853.8,-688.91 864.2,-632.68"/>
<polygon fill="#63b8ff" stroke="#63b8ff" points="867.63,-633.4 865.98,-622.93 860.74,-632.14 867.63,-633.4"/>
</g>
<!-- Node59&#45;&gt;Node8 -->
<g id="edge67" class="edge">
<title>Node59&#45;&gt;Node8</title>
<path fill="none" stroke="#63b8ff" d="M400.53,-772.42C429.4,-792.12 494.22,-836.37 529.33,-860.34"/>
<polygon fill="#63b8ff" stroke="#63b8ff" points="526.9,-862.92 537.14,-865.67 530.85,-857.14 526.9,-862.92"/>
</g>
<!-- Node59&#45;&gt;Node46 -->
<g id="edge66" class="edge">
<title>Node59&#45;&gt;Node46</title>
<path fill="none" stroke="#63b8ff" d="M422.45,-772.43C469.69,-786.41 553.31,-815.04 615,-857.5 634.16,-870.69 631.23,-883.24 651,-895.5 701.18,-926.62 726.08,-906.38 778,-934.5 806.18,-949.76 833.76,-974.64 850.8,-991.52"/>
<polygon fill="#63b8ff" stroke="#63b8ff" points="848.13,-993.79 857.64,-998.45 853.11,-988.88 848.13,-993.79"/>
</g>
<!-- Node60 -->
<g id="node34" class="node">
<title>Node60</title>
<g id="a_node34"><a xlink:href="TransmitterCode_2src_2main_8cpp.html#a953f1d5046e183549ed95b08f6d675e3" target="_top" xlink:title=" ">
<polygon fill="white" stroke="#666666" points="603,-132 505,-132 505,-113 603,-113 603,-132"/>
<text text-anchor="middle" x="554" y="-120" font-family="Helvetica,sans-Serif" font-size="10.00">CheckGapsLength</text>
</a>
</g>
</g>
<!-- Node59&#45;&gt;Node60 -->
<g id="edge44" class="edge">
<title>Node59&#45;&gt;Node60</title>
<path fill="none" stroke="#63b8ff" d="M389.36,-752.87C400.61,-720.32 437.29,-611.28 457,-518.5 481.61,-402.67 460.15,-368.27 493,-254.5 505.04,-212.79 528.09,-167.36 541.85,-142.16"/>
<polygon fill="#63b8ff" stroke="#63b8ff" points="544.75,-144.15 546.55,-133.71 538.64,-140.75 544.75,-144.15"/>
</g>
<!-- Node62 -->
<g id="node36" class="node">
<title>Node62</title>
<g id="a_node36"><a xlink:href="TransmitterCode_2src_2main_8cpp.html#a62e53eb9359c32b666e3386d62c57037" target="_top" xlink:title=" ">
<polygon fill="white" stroke="#666666" points="590,-509 518,-509 518,-490 590,-490 590,-509"/>
<text text-anchor="middle" x="554" y="-497" font-family="Helvetica,sans-Serif" font-size="10.00">GreenLedOn</text>
</a>
</g>
</g>
<!-- Node59&#45;&gt;Node62 -->
<g id="edge47" class="edge">
<title>Node59&#45;&gt;Node62</title>
<path fill="none" stroke="#63b8ff" d="M392.34,-752.51C417.09,-713.54 507.43,-571.27 540.64,-518.97"/>
<polygon fill="#63b8ff" stroke="#63b8ff" points="543.43,-521.09 545.84,-510.78 537.52,-517.34 543.43,-521.09"/>
</g>
<!-- Node59&#45;&gt;Node73 -->
<g id="edge68" class="edge">
<title>Node59&#45;&gt;Node73</title>
<path fill="none" stroke="#63b8ff" d="M387.76,-752.73C398.64,-695.7 462.64,-405.67 651,-330.5 706.69,-308.27 776.93,-317.13 822.15,-327.04"/>
<polygon fill="#63b8ff" stroke="#63b8ff" points="821.08,-330.38 831.61,-329.22 822.65,-323.56 821.08,-330.38"/>
</g>
<!-- Node75 -->
<g id="node43" class="node">
<title>Node75</title>
<g id="a_node43"><a xlink:href="TransmitterCode_2src_2main_8cpp.html#a694f4f5a0147f4dc29b0bc1a8951547d" target="_top" xlink:title=" ">
<polygon fill="#fff0f0" stroke="red" points="601,-772 507,-772 507,-753 601,-753 601,-772"/>
<text text-anchor="middle" x="554" y="-760" font-family="Helvetica,sans-Serif" font-size="10.00">ParseAckPayload</text>
</a>
</g>
</g>
<!-- Node59&#45;&gt;Node75 -->
<g id="edge62" class="edge">
<title>Node59&#45;&gt;Node75</title>
<path fill="none" stroke="#63b8ff" d="M433.41,-762.5C452.68,-762.5 475.14,-762.5 495.35,-762.5"/>
<polygon fill="#63b8ff" stroke="#63b8ff" points="495.11,-766 505.11,-762.5 495.11,-759 495.11,-766"/>
</g>
<!-- Node61 -->
<g id="node35" class="node">
<title>Node61</title>
<g id="a_node35"><a xlink:href="TransmitterCode_2src_2main_8cpp.html#a1fadc7cdd854f8b3628b622da5417d8b" target="_top" xlink:title=" ">
<polygon fill="#fff0f0" stroke="red" points="904,-147 834,-147 834,-128 904,-128 904,-147"/>
<text text-anchor="middle" x="869" y="-135" font-family="Helvetica,sans-Serif" font-size="10.00">LogThisGap</text>
</a>
</g>
</g>
<!-- Node60&#45;&gt;Node61 -->
<g id="edge45" class="edge">
<title>Node60&#45;&gt;Node61</title>
<path fill="none" stroke="#63b8ff" d="M603.22,-124.81C662.9,-127.67 763.79,-132.51 822.28,-135.31"/>
<polygon fill="#63b8ff" stroke="#63b8ff" points="822.08,-138.8 832.23,-135.79 822.41,-131.81 822.08,-138.8"/>
</g>
<!-- Node61&#45;&gt;Node28 -->
<g id="edge46" class="edge">
<title>Node61&#45;&gt;Node28</title>
<path fill="none" stroke="#63b8ff" d="M904.29,-147.22C926.76,-153.59 955.61,-161.77 975.84,-167.51"/>
<polygon fill="#63b8ff" stroke="#63b8ff" points="974.6,-170.8 985.18,-170.16 976.51,-164.06 974.6,-170.8"/>
</g>
<!-- Node62&#45;&gt;Node10 -->
<g id="edge49" class="edge">
<title>Node62&#45;&gt;Node10</title>
<path fill="none" stroke="#63b8ff" d="M569.75,-509.36C588.14,-521.31 620.85,-541.48 651,-554.5 655.57,-556.48 660.42,-558.33 665.31,-560.05"/>
<polygon fill="#63b8ff" stroke="#63b8ff" points="663.96,-563.29 674.55,-563.12 666.16,-556.65 663.96,-563.29"/>
</g>
<!-- Node62&#45;&gt;Node36 -->
<g id="edge51" class="edge">
<title>Node62&#45;&gt;Node36</title>
<path fill="none" stroke="#63b8ff" d="M568.23,-489.71C586.07,-477.01 619.29,-455.1 651,-443.5 709.53,-422.09 781.46,-412.54 826.02,-408.43"/>
<polygon fill="#63b8ff" stroke="#63b8ff" points="826.12,-411.93 835.78,-407.58 825.51,-404.96 826.12,-411.93"/>
</g>
<!-- Node63 -->
<g id="node37" class="node">
<title>Node63</title>
<g id="a_node37"><a xlink:href="Utilities_8h.html#a82b1900a80d1622896601c57d6edaeda" target="_top" xlink:title=" ">
<polygon fill="white" stroke="#666666" points="763.5,-509 665.5,-509 665.5,-490 763.5,-490 763.5,-509"/>
<text text-anchor="middle" x="714.5" y="-497" font-family="Helvetica,sans-Serif" font-size="10.00">ClearSuccessRate</text>
</a>
</g>
</g>
<!-- Node62&#45;&gt;Node63 -->
<g id="edge48" class="edge">
<title>Node62&#45;&gt;Node63</title>
<path fill="none" stroke="#63b8ff" d="M590.18,-499.5C608.88,-499.5 632.4,-499.5 653.86,-499.5"/>
<polygon fill="#63b8ff" stroke="#63b8ff" points="653.68,-503 663.68,-499.5 653.68,-496 653.68,-503"/>
</g>
<!-- Node64 -->
<g id="node38" class="node">
<title>Node64</title>
<g id="a_node38"><a xlink:href="TransmitterCode_2src_2main_8cpp.html#aaa3e86084c43b049d52d7d62c58a00b9" target="_top" xlink:title=" ">
<polygon fill="#fff0f0" stroke="red" points="755.5,-472 673.5,-472 673.5,-453 755.5,-453 755.5,-472"/>
<text text-anchor="middle" x="714.5" y="-460" font-family="Helvetica,sans-Serif" font-size="10.00">LogConnection</text>
</a>
</g>
</g>
<!-- Node62&#45;&gt;Node64 -->
<g id="edge50" class="edge">
<title>Node62&#45;&gt;Node64</title>
<path fill="none" stroke="#63b8ff" d="M590.18,-491.29C611.26,-486.37 638.45,-480.02 661.92,-474.54"/>
<polygon fill="#63b8ff" stroke="#63b8ff" points="662.69,-477.95 671.64,-472.27 661.1,-471.14 662.69,-477.95"/>
</g>
<!-- Node66 -->
<g id="node39" class="node">
<title>Node66</title>
<g id="a_node39"><a xlink:href="TransmitterCode_2src_2main_8cpp.html#a5d3a46c21927cf7a3031a1e68e0b7b48" target="_top" xlink:title="SHOW COMMS.">
<polygon fill="#fff0f0" stroke="red" points="752,-396 677,-396 677,-377 752,-377 752,-396"/>
<text text-anchor="middle" x="714.5" y="-384" font-family="Helvetica,sans-Serif" font-size="10.00">ShowComms</text>
</a>
</g>
</g>
<!-- Node62&#45;&gt;Node66 -->
<g id="edge52" class="edge">
<title>Node62&#45;&gt;Node66</title>
<path fill="none" stroke="#63b8ff" d="M563.3,-489.64C578.85,-471.7 614.16,-433.45 651,-410.5 656.96,-406.79 663.58,-403.49 670.22,-400.63"/>
<polygon fill="#63b8ff" stroke="#63b8ff" points="671.21,-404 679.18,-397.03 668.6,-397.51 671.21,-404"/>
</g>
<!-- Node74 -->
<g id="node42" class="node">
<title>Node74</title>
<g id="a_node42"><a xlink:href="TransmitterCode_2src_2main_8cpp.html#a6da9a1fd0b003151f79eabc702ba80ff" target="_top" xlink:title=" ">
<polygon fill="white" stroke="#666666" points="758,-546 671,-546 671,-527 758,-527 758,-546"/>
<text text-anchor="middle" x="714.5" y="-534" font-family="Helvetica,sans-Serif" font-size="10.00">ZeroDataScreen</text>
</a>
</g>
</g>
<!-- Node62&#45;&gt;Node74 -->
<g id="edge61" class="edge">
<title>Node62&#45;&gt;Node74</title>
<path fill="none" stroke="#63b8ff" d="M590.18,-507.71C610.63,-512.49 636.83,-518.6 659.82,-523.97"/>
<polygon fill="#63b8ff" stroke="#63b8ff" points="658.8,-527.32 669.33,-526.19 660.39,-520.51 658.8,-527.32"/>
</g>
<!-- Node66&#45;&gt;Node36 -->
<g id="edge53" class="edge">
<title>Node66&#45;&gt;Node36</title>
<path fill="none" stroke="#63b8ff" d="M752.42,-391.1C774.59,-393.86 802.87,-397.38 825.9,-400.26"/>
<polygon fill="#63b8ff" stroke="#63b8ff" points="825.22,-403.7 835.57,-401.46 826.08,-396.75 825.22,-403.7"/>
</g>
<!-- Node66&#45;&gt;Node37 -->
<g id="edge54" class="edge">
<title>Node66&#45;&gt;Node37</title>
<path fill="none" stroke="#63b8ff" d="M728.11,-396.46C772.72,-431.67 923.31,-550.56 979.3,-594.77"/>
<polygon fill="#63b8ff" stroke="#63b8ff" points="976.83,-597.27 986.84,-600.72 981.16,-591.78 976.83,-597.27"/>
</g>
<!-- Node66&#45;&gt;Node40 -->
<g id="edge55" class="edge">
<title>Node66&#45;&gt;Node40</title>
<path fill="none" stroke="#63b8ff" d="M728.68,-396.32C742.24,-406.89 763.38,-424.73 778,-443.5 815.66,-491.86 845.94,-558.2 859.81,-591.18"/>
<polygon fill="#63b8ff" stroke="#63b8ff" points="856.53,-592.41 863.58,-600.32 863,-589.74 856.53,-592.41"/>
</g>
<!-- Node66&#45;&gt;Node68 -->
<g id="edge56" class="edge">
<title>Node66&#45;&gt;Node68</title>
<path fill="none" stroke="#63b8ff" d="M752.28,-379.44C761.2,-376.65 770.36,-372.8 778,-367.5 799.62,-352.51 792.58,-335.78 814,-320.5 817.8,-317.79 822.04,-315.47 826.42,-313.48"/>
<polygon fill="#63b8ff" stroke="#63b8ff" points="827.33,-316.88 835.37,-309.98 824.78,-310.36 827.33,-316.88"/>
</g>
<!-- Node66&#45;&gt;Node73 -->
<g id="edge60" class="edge">
<title>Node66&#45;&gt;Node73</title>
<path fill="none" stroke="#63b8ff" d="M748.27,-376.58C757.86,-373.67 768.35,-370.47 778,-367.5 793.61,-362.7 810.72,-357.39 825.79,-352.69"/>
<polygon fill="#63b8ff" stroke="#63b8ff" points="826.41,-356.17 834.92,-349.85 824.33,-349.48 826.41,-356.17"/>
</g>
<!-- Node68&#45;&gt;Node37 -->
<g id="edge58" class="edge">
<title>Node68&#45;&gt;Node37</title>
<path fill="none" stroke="#63b8ff" d="M901.28,-307.29C909.63,-309.95 917.99,-314.08 924,-320.5 928.77,-325.59 978.9,-525.01 995.32,-590.73"/>
<polygon fill="#63b8ff" stroke="#63b8ff" points="991.87,-591.36 997.69,-600.22 998.66,-589.67 991.87,-591.36"/>
</g>
<!-- Node68&#45;&gt;Node38 -->
<g id="edge57" class="edge">
<title>Node68&#45;&gt;Node38</title>
<path fill="none" stroke="#63b8ff" d="M901.49,-309.55C909.28,-312.19 917.31,-315.75 924,-320.5 1015.58,-385.51 1084.51,-505.78 1109.4,-553.37"/>
<polygon fill="#63b8ff" stroke="#63b8ff" points="1106.27,-554.94 1113.95,-562.24 1112.5,-551.74 1106.27,-554.94"/>
</g>
<!-- Node68&#45;&gt;Node28 -->
<g id="edge59" class="edge">
<title>Node68&#45;&gt;Node28</title>
<path fill="none" stroke="#63b8ff" d="M879.81,-292.88C901.63,-271.47 954.47,-219.65 982.44,-192.21"/>
<polygon fill="#63b8ff" stroke="#63b8ff" points="984.81,-194.79 989.5,-185.29 979.91,-189.8 984.81,-194.79"/>
</g>
<!-- Node75&#45;&gt;Node43 -->
<g id="edge65" class="edge">
<title>Node75&#45;&gt;Node43</title>
<path fill="none" stroke="#63b8ff" d="M585.94,-772.43C595.6,-776.17 606.07,-780.89 615,-786.5 619.45,-789.29 667.09,-833.36 694.45,-858.77"/>
<polygon fill="#63b8ff" stroke="#63b8ff" points="692.05,-861.31 701.75,-865.56 696.81,-856.19 692.05,-861.31"/>
</g>
<!-- Node76 -->
<g id="node44" class="node">
<title>Node76</title>
<g id="a_node44"><a xlink:href="TransmitterCode_2src_2main_8cpp.html#a75fa77e7bbb1cfe8fe6e1a216fbdc17e" target="_top" xlink:title=" ">
<polygon fill="#fff0f0" stroke="red" points="747,-773 682,-773 682,-754 747,-754 747,-773"/>
<text text-anchor="middle" x="714.5" y="-761" font-family="Helvetica,sans-Serif" font-size="10.00">GetAltitude</text>
</a>
</g>
</g>
<!-- Node75&#45;&gt;Node76 -->
<g id="edge63" class="edge">
<title>Node75&#45;&gt;Node76</title>
<path fill="none" stroke="#63b8ff" d="M601.27,-762.79C623.01,-762.93 648.78,-763.09 670.14,-763.23"/>
<polygon fill="#63b8ff" stroke="#63b8ff" points="669.97,-766.73 679.99,-763.29 670.01,-759.73 669.97,-766.73"/>
</g>
<!-- Node78 -->
<g id="node45" class="node">
<title>Node78</title>
<g id="a_node45"><a xlink:href="TransmitterCode_2src_2main_8cpp.html#a160b9119423c34869b16a4ebdc421d35" target="_top" xlink:title=" ">
<polygon fill="white" stroke="#666666" points="778,-810 651,-810 651,-791 778,-791 778,-810"/>
<text text-anchor="middle" x="714.5" y="-798" font-family="Helvetica,sans-Serif" font-size="10.00">GetDateFromAckPayload</text>
</a>
</g>
</g>
<!-- Node75&#45;&gt;Node78 -->
<g id="edge64" class="edge">
<title>Node75&#45;&gt;Node78</title>
<path fill="none" stroke="#63b8ff" d="M596.64,-772.48C616.31,-777.2 640.01,-782.88 660.9,-787.89"/>
<polygon fill="#63b8ff" stroke="#63b8ff" points="659.85,-791.24 670.39,-790.16 661.48,-784.43 659.85,-791.24"/>
</g>
<!-- Node135&#45;&gt;Node37 -->
<g id="edge70" class="edge">
<title>Node135&#45;&gt;Node37</title>
<path fill="none" stroke="#63b8ff" d="M243.5,-199.39C247.3,-273.08 272.63,-735 313,-780.5 385.84,-862.58 443.26,-838.5 553,-838.5 553,-838.5 553,-838.5 715.5,-838.5 848.34,-838.5 955.02,-685.75 989.07,-630.85"/>
<polygon fill="#63b8ff" stroke="#63b8ff" points="991.91,-632.91 994.11,-622.55 985.93,-629.28 991.91,-632.91"/>
</g>
<!-- Node135&#45;&gt;Node28 -->
<g id="edge71" class="edge">
<title>Node135&#45;&gt;Node28</title>
<path fill="none" stroke="#63b8ff" d="M264.11,-179.54C306.38,-160.22 404.95,-118.22 493,-103.5 589.13,-87.43 872.79,-100.37 924,-118.5 946.87,-126.6 968.77,-143.94 983.23,-157.19"/>
<polygon fill="#63b8ff" stroke="#63b8ff" points="980.46,-159.39 990.12,-163.75 985.29,-154.32 980.46,-159.39"/>
</g>
<!-- Node134 -->
<g id="node48" class="node">
<title>Node134</title>
<g id="a_node48"><a xlink:href="Utilities_8h.html#ad0feb21fbea69455d1d206f142b563ac" target="_top" xlink:title=" ">
<polygon fill="white" stroke="#666666" points="896,-184 842,-184 842,-165 896,-165 896,-184"/>
<text text-anchor="middle" x="869" y="-172" font-family="Helvetica,sans-Serif" font-size="10.00">DrawDot</text>
</a>
</g>
</g>
<!-- Node222&#45;&gt;Node134 -->
<g id="edge73" class="edge">
<title>Node222&#45;&gt;Node134</title>
<path fill="none" stroke="#63b8ff" d="M161.17,-40.86C256.16,-23.11 574.23,23 778,-108.5 800.11,-122.77 792.7,-140.05 814,-155.5 819.08,-159.18 824.93,-162.21 830.88,-164.67"/>
<polygon fill="#63b8ff" stroke="#63b8ff" points="829.5,-167.89 840.1,-168.01 831.88,-161.31 829.5,-167.89"/>
</g>
<!-- Node134&#45;&gt;Node37 -->
<g id="edge74" class="edge">
<title>Node134&#45;&gt;Node37</title>
<path fill="none" stroke="#63b8ff" d="M875.87,-184.38C886.78,-203.11 910.3,-245.34 924,-283.5 964.32,-395.86 988.99,-537.62 997.32,-590.42"/>
<polygon fill="#63b8ff" stroke="#63b8ff" points="993.83,-590.76 998.82,-600.11 1000.75,-589.69 993.83,-590.76"/>
</g>
<!-- Node134&#45;&gt;Node28 -->
<g id="edge75" class="edge">
<title>Node134&#45;&gt;Node28</title>
<path fill="none" stroke="#63b8ff" d="M896.41,-174.5C919.41,-174.5 952.53,-174.5 975.2,-174.5"/>
<polygon fill="#63b8ff" stroke="#63b8ff" points="975.07,-178 985.07,-174.5 975.07,-171 975.07,-178"/>
</g>
<!-- Node223&#45;&gt;Node135 -->
<g id="edge77" class="edge">
<title>Node223&#45;&gt;Node135</title>
<path fill="none" stroke="#63b8ff" d="M170.8,-195.38C180.65,-194.55 191.31,-193.66 201.29,-192.82"/>
<polygon fill="#63b8ff" stroke="#63b8ff" points="201.4,-196.33 211.08,-192.01 200.82,-189.35 201.4,-196.33"/>
</g>
</g>
</svg>
