<?xml version="1.0" encoding="UTF-8" standalone="no"?>
<!DOCTYPE svg PUBLIC "-//W3C//DTD SVG 1.1//EN"
 "http://www.w3.org/Graphics/SVG/1.1/DTD/svg11.dtd">
<!-- Generated by graphviz version 7.0.5 (20221223.1930)
 -->
<!-- Title: SaveAllParameters Pages: 1 -->
<svg width="1475pt" height="624pt"
 viewBox="0.00 0.00 1475.00 623.50" xmlns="http://www.w3.org/2000/svg" xmlns:xlink="http://www.w3.org/1999/xlink">
<g id="graph0" class="graph" transform="scale(1 1) rotate(0) translate(4 619.5)">
<title>SaveAllParameters</title>
<!-- Node1 -->
<g id="node1" class="node">
<title>Node1</title>
<g id="a_node1"><a xlink:title=" ">
<polygon fill="#999999" stroke="#666666" points="1467,-188 1366,-188 1366,-169 1467,-169 1467,-188"/>
<text text-anchor="middle" x="1416.5" y="-176" font-family="Helvetica,sans-Serif" font-size="10.00">SaveAllParameters</text>
</a>
</g>
</g>
<!-- Node2 -->
<g id="node2" class="node">
<title>Node2</title>
<g id="a_node2"><a xlink:href="TransmitterCode_2src_2main_8cpp.html#a804fdbdd5eab4c596bbe8a23eecbe4d5" target="_top" xlink:title=" ">
<polygon fill="white" stroke="#666666" points="1328.5,-334 1227.5,-334 1227.5,-315 1328.5,-315 1328.5,-334"/>
<text text-anchor="middle" x="1278" y="-322" font-family="Helvetica,sans-Serif" font-size="10.00">ButtonWasPressed</text>
</a>
</g>
</g>
<!-- Node1&#45;&gt;Node2 -->
<g id="edge1" class="edge">
<title>Node1&#45;&gt;Node2</title>
<path fill="none" stroke="#63b8ff" d="M1402.35,-197.7C1386.56,-220.06 1358.6,-257.5 1330,-285.5 1318.69,-296.57 1304.23,-307.36 1293.6,-314.77"/>
<polygon fill="#63b8ff" stroke="#63b8ff" points="1405.18,-199.75 1408.03,-189.55 1399.44,-195.75 1405.18,-199.75"/>
</g>
<!-- Node9 -->
<g id="node9" class="node">
<title>Node9</title>
<g id="a_node9"><a xlink:href="TransmitterCode_2src_2main_8cpp.html#a16c65917a148c7f6c17babf11e977b69" target="_top" xlink:title=" ">
<polygon fill="white" stroke="#666666" points="844,-140 762,-140 762,-121 844,-121 844,-140"/>
<text text-anchor="middle" x="803" y="-128" font-family="Helvetica,sans-Serif" font-size="10.00">EndBuddyView</text>
</a>
</g>
</g>
<!-- Node1&#45;&gt;Node9 -->
<g id="edge36" class="edge">
<title>Node1&#45;&gt;Node9</title>
<path fill="none" stroke="#63b8ff" d="M1354.51,-173.71C1229.8,-163.92 948.63,-141.85 844.12,-133.65"/>
<polygon fill="#63b8ff" stroke="#63b8ff" points="1353.97,-177.18 1364.21,-174.47 1354.51,-170.2 1353.97,-177.18"/>
</g>
<!-- Node11 -->
<g id="node11" class="node">
<title>Node11</title>
<g id="a_node11"><a xlink:href="ModelMatch_8h.html#af8fe429ceb65bf9d257a2a0f1c63eccb" target="_top" xlink:title=" ">
<polygon fill="white" stroke="#666666" points="694,-494 592,-494 592,-475 694,-475 694,-494"/>
<text text-anchor="middle" x="643" y="-482" font-family="Helvetica,sans-Serif" font-size="10.00">CompareModelsIDs</text>
</a>
</g>
</g>
<!-- Node1&#45;&gt;Node11 -->
<g id="edge35" class="edge">
<title>Node1&#45;&gt;Node11</title>
<path fill="none" stroke="#63b8ff" d="M1410.9,-199.45C1391.51,-281.63 1308.48,-577.5 1118,-577.5 1118,-577.5 1118,-577.5 954.5,-577.5 858.35,-577.5 828.47,-593.7 739,-558.5 702.43,-544.11 668.34,-510.95 652.81,-494.34"/>
<polygon fill="#63b8ff" stroke="#63b8ff" points="1414.28,-200.37 1413.09,-189.84 1407.46,-198.81 1414.28,-200.37"/>
</g>
<!-- Node17 -->
<g id="node17" class="node">
<title>Node17</title>
<g id="a_node17"><a xlink:href="TransmitterCode_2src_2main_8cpp.html#ae9f91b9da28f2e1e2fb126961f03c31c" target="_top" xlink:title=" ">
<polygon fill="white" stroke="#666666" points="843.5,-103 762.5,-103 762.5,-84 843.5,-84 843.5,-103"/>
<text text-anchor="middle" x="803" y="-91" font-family="Helvetica,sans-Serif" font-size="10.00">ModelViewEnd</text>
</a>
</g>
</g>
<!-- Node1&#45;&gt;Node17 -->
<g id="edge42" class="edge">
<title>Node1&#45;&gt;Node17</title>
<path fill="none" stroke="#63b8ff" d="M1360.49,-166.23C1350.37,-164.18 1339.89,-162.17 1330,-160.5 1149.36,-130.03 931.72,-106.45 843.75,-97.45"/>
<polygon fill="#63b8ff" stroke="#63b8ff" points="1359.71,-169.65 1370.21,-168.26 1361.14,-162.79 1359.71,-169.65"/>
</g>
<!-- Node18 -->
<g id="node18" class="node">
<title>Node18</title>
<g id="a_node18"><a xlink:href="ModelExchange_8h.html#ab7c9edf843c732d7fe296564f39bc0dc" target="_top" xlink:title="RECEIVE A MODEL FILE.">
<polygon fill="white" stroke="#666666" points="850,-549 756,-549 756,-530 850,-530 850,-549"/>
<text text-anchor="middle" x="803" y="-537" font-family="Helvetica,sans-Serif" font-size="10.00">ReceiveModelFile</text>
</a>
</g>
</g>
<!-- Node1&#45;&gt;Node18 -->
<g id="edge44" class="edge">
<title>Node1&#45;&gt;Node18</title>
<path fill="none" stroke="#63b8ff" d="M1410.01,-199.21C1399.86,-233.74 1374.95,-303.24 1330,-343.5 1186.09,-472.4 949.62,-519.2 850.26,-533.76"/>
<polygon fill="#63b8ff" stroke="#63b8ff" points="1413.37,-200.22 1412.69,-189.65 1406.62,-198.33 1413.37,-200.22"/>
</g>
<!-- Node26 -->
<g id="node26" class="node">
<title>Node26</title>
<g id="a_node26"><a xlink:href="BuddyWireless_8h.html#ab0ba1642fb6c43525579b989c7b60dad" target="_top" xlink:title=" ">
<polygon fill="white" stroke="#666666" points="1326,-93 1230,-93 1230,-74 1326,-74 1326,-93"/>
<text text-anchor="middle" x="1278" y="-81" font-family="Helvetica,sans-Serif" font-size="10.00">LoadCorrectModel</text>
</a>
</g>
</g>
<!-- Node1&#45;&gt;Node26 -->
<g id="edge37" class="edge">
<title>Node1&#45;&gt;Node26</title>
<path fill="none" stroke="#63b8ff" d="M1397.12,-160.88C1380.49,-145.53 1354.86,-123.31 1330,-107.5 1321.66,-102.2 1311.96,-97.34 1303.28,-93.41"/>
<polygon fill="#63b8ff" stroke="#63b8ff" points="1394.58,-163.29 1404.27,-167.58 1399.37,-158.19 1394.58,-163.29"/>
</g>
<!-- Node30 -->
<g id="node30" class="node">
<title>Node30</title>
<g id="a_node30"><a xlink:href="TransmitterCode_2src_2main_8cpp.html#aa1ada50da7cf7f716d14bc9c1a7fdfe9" target="_top" xlink:title=" ">
<polygon fill="white" stroke="#666666" points="1324.5,-56 1231.5,-56 1231.5,-37 1324.5,-37 1324.5,-56"/>
<text text-anchor="middle" x="1278" y="-44" font-family="Helvetica,sans-Serif" font-size="10.00">OptionView2Start</text>
</a>
</g>
</g>
<!-- Node1&#45;&gt;Node30 -->
<g id="edge43" class="edge">
<title>Node1&#45;&gt;Node30</title>
<path fill="none" stroke="#63b8ff" d="M1405.54,-158.84C1391.8,-133.59 1364.74,-90.01 1330,-64.5 1325.69,-61.33 1320.76,-58.68 1315.72,-56.48"/>
<polygon fill="#63b8ff" stroke="#63b8ff" points="1402.28,-160.17 1410.04,-167.39 1408.47,-156.91 1402.28,-160.17"/>
</g>
<!-- Node31 -->
<g id="node31" class="node">
<title>Node31</title>
<g id="a_node31"><a xlink:href="TransmitterCode_2src_2main_8cpp.html#aa1f353c2c61131eeafa77c6e67608e45" target="_top" xlink:title=" ">
<polygon fill="white" stroke="#666666" points="1171,-207 1063,-207 1063,-188 1171,-188 1171,-207"/>
<text text-anchor="middle" x="1117" y="-195" font-family="Helvetica,sans-Serif" font-size="10.00">RestoreCurrentModel</text>
</a>
</g>
</g>
<!-- Node1&#45;&gt;Node31 -->
<g id="edge45" class="edge">
<title>Node1&#45;&gt;Node31</title>
<path fill="none" stroke="#63b8ff" d="M1354.26,-182.41C1300.42,-185.85 1222.86,-190.8 1171.48,-194.08"/>
<polygon fill="#63b8ff" stroke="#63b8ff" points="1354.44,-185.91 1364.19,-181.78 1353.99,-178.92 1354.44,-185.91"/>
</g>
<!-- Node32 -->
<g id="node32" class="node">
<title>Node32</title>
<g id="a_node32"><a xlink:href="TransmitterCode_2src_2main_8cpp.html#a35f886d783cd5aa95171f1ecba39ef0b" target="_top" xlink:title=" ">
<polygon fill="white" stroke="#666666" points="1317,-19 1239,-19 1239,0 1317,0 1317,-19"/>
<text text-anchor="middle" x="1278" y="-7" font-family="Helvetica,sans-Serif" font-size="10.00">SetupViewFM</text>
</a>
</g>
</g>
<!-- Node1&#45;&gt;Node32 -->
<g id="edge47" class="edge">
<title>Node1&#45;&gt;Node32</title>
<path fill="none" stroke="#63b8ff" d="M1409.18,-158.06C1398.19,-125.83 1372.59,-63.19 1330,-27.5 1326.19,-24.3 1321.76,-21.66 1317.15,-19.48"/>
<polygon fill="#63b8ff" stroke="#63b8ff" points="1405.78,-158.95 1412.21,-167.37 1412.44,-156.78 1405.78,-158.95"/>
</g>
<!-- Node33 -->
<g id="node33" class="node">
<title>Node33</title>
<g id="a_node33"><a xlink:href="TransmitterCode_2src_2main_8cpp.html#a761b6bcf24c9ccf34e61a5757ebfc4a7" target="_top" xlink:title=" ">
<polygon fill="white" stroke="#666666" points="1330,-276 1226,-276 1226,-257 1330,-257 1330,-276"/>
<text text-anchor="middle" x="1278" y="-264" font-family="Helvetica,sans-Serif" font-size="10.00">SimulateCloseDown</text>
</a>
</g>
</g>
<!-- Node1&#45;&gt;Node33 -->
<g id="edge48" class="edge">
<title>Node1&#45;&gt;Node33</title>
<path fill="none" stroke="#63b8ff" d="M1390.56,-194.58C1362.39,-212.74 1317.44,-241.72 1294.13,-256.75"/>
<polygon fill="#63b8ff" stroke="#63b8ff" points="1392.33,-197.6 1398.83,-189.24 1388.53,-191.72 1392.33,-197.6"/>
</g>
<!-- Node3 -->
<g id="node3" class="node">
<title>Node3</title>
<g id="a_node3"><a xlink:href="Utilities_8h.html#afb7c85cac4aa89fd998ed81c330374d2" target="_top" xlink:title=" ">
<polygon fill="white" stroke="#666666" points="1190,-324 1044,-324 1044,-305 1190,-305 1190,-324"/>
<text text-anchor="middle" x="1117" y="-312" font-family="Helvetica,sans-Serif" font-size="10.00">CheckForNextionButtonPress</text>
</a>
</g>
</g>
<!-- Node2&#45;&gt;Node3 -->
<g id="edge2" class="edge">
<title>Node2&#45;&gt;Node3</title>
<path fill="none" stroke="#63b8ff" d="M1215.66,-320.64C1207.39,-320.12 1198.84,-319.58 1190.4,-319.05"/>
<polygon fill="#63b8ff" stroke="#63b8ff" points="1215.42,-324.13 1225.62,-321.27 1215.86,-317.15 1215.42,-324.13"/>
</g>
<!-- Node2&#45;&gt;Node18 -->
<g id="edge34" class="edge">
<title>Node2&#45;&gt;Node18</title>
<path fill="none" stroke="#63b8ff" d="M1237.52,-338.21C1153.39,-367.85 959.49,-438.52 903,-479.5 883.1,-493.94 887.7,-508.23 867,-521.5 861.93,-524.75 856.25,-527.43 850.44,-529.63"/>
<polygon fill="#63b8ff" stroke="#63b8ff" points="1238.47,-341.59 1246.74,-334.97 1236.15,-334.98 1238.47,-341.59"/>
</g>
<!-- Node4 -->
<g id="node4" class="node">
<title>Node4</title>
<g id="a_node4"><a xlink:href="TransmitterCode_2src_2main_8cpp.html#a641d6dab68ec7b2a8a32492aac55bc1c" target="_top" xlink:title=" ">
<polygon fill="white" stroke="#666666" points="1008,-250 903,-250 903,-231 1008,-231 1008,-250"/>
<text text-anchor="middle" x="955.5" y="-238" font-family="Helvetica,sans-Serif" font-size="10.00">GetBackupFilename</text>
</a>
</g>
</g>
<!-- Node3&#45;&gt;Node4 -->
<g id="edge3" class="edge">
<title>Node3&#45;&gt;Node4</title>
<path fill="none" stroke="#63b8ff" d="M1051.34,-300.27C1048.81,-299.11 1046.36,-297.86 1044,-296.5 1024.11,-285.06 1027.24,-272 1008,-259.5 1002.57,-255.97 996.39,-252.97 990.24,-250.48"/>
<polygon fill="#63b8ff" stroke="#63b8ff" points="1050.02,-303.51 1060.61,-303.97 1052.62,-297.01 1050.02,-303.51"/>
</g>
<!-- Node6 -->
<g id="node6" class="node">
<title>Node6</title>
<g id="a_node6"><a xlink:href="TransmitterCode_2src_2main_8cpp.html#a6506bf72e0dd9e9ce480156b47625bff" target="_top" xlink:title=" ">
<polygon fill="white" stroke="#666666" points="998.5,-326 912.5,-326 912.5,-307 998.5,-307 998.5,-326"/>
<text text-anchor="middle" x="955.5" y="-314" font-family="Helvetica,sans-Serif" font-size="10.00">GetConfirmation</text>
</a>
</g>
</g>
<!-- Node3&#45;&gt;Node6 -->
<g id="edge6" class="edge">
<title>Node3&#45;&gt;Node6</title>
<path fill="none" stroke="#63b8ff" d="M1032.55,-315.55C1020.89,-315.69 1009.35,-315.84 998.9,-315.97"/>
<polygon fill="#63b8ff" stroke="#63b8ff" points="1032.25,-319.05 1042.2,-315.43 1032.16,-312.05 1032.25,-319.05"/>
</g>
<!-- Node23 -->
<g id="node23" class="node">
<title>Node23</title>
<g id="a_node23"><a xlink:href="TransmitterCode_2src_2main_8cpp.html#a558ea014e230b7caa54ce5a37ad29b22" target="_top" xlink:title=" ">
<polygon fill="white" stroke="#666666" points="1006,-287 905,-287 905,-268 1006,-268 1006,-287"/>
<text text-anchor="middle" x="955.5" y="-275" font-family="Helvetica,sans-Serif" font-size="10.00">ManageTransmitter</text>
</a>
</g>
</g>
<!-- Node3&#45;&gt;Node23 -->
<g id="edge26" class="edge">
<title>Node3&#45;&gt;Node23</title>
<path fill="none" stroke="#63b8ff" d="M1062.19,-302.02C1041.72,-297.27 1018.69,-291.93 999.36,-287.44"/>
<polygon fill="#63b8ff" stroke="#63b8ff" points="1061.25,-305.39 1071.78,-304.24 1062.83,-298.57 1061.25,-305.39"/>
</g>
<!-- Node24 -->
<g id="node24" class="node">
<title>Node24</title>
<g id="a_node24"><a xlink:href="TransmitterCode_2src_2main_8cpp.html#a6f5b0f1e4ca75768c16c4dd93f92a8de" target="_top" xlink:title=" ">
<polygon fill="white" stroke="#666666" points="981.5,-405 929.5,-405 929.5,-386 981.5,-386 981.5,-405"/>
<text text-anchor="middle" x="955.5" y="-393" font-family="Helvetica,sans-Serif" font-size="10.00">MsgBox</text>
</a>
</g>
</g>
<!-- Node3&#45;&gt;Node24 -->
<g id="edge28" class="edge">
<title>Node3&#45;&gt;Node24</title>
<path fill="none" stroke="#63b8ff" d="M1086.24,-329.61C1053.9,-346.04 1003.18,-371.79 975.72,-385.74"/>
<polygon fill="#63b8ff" stroke="#63b8ff" points="1087.76,-332.77 1095.09,-325.12 1084.59,-326.52 1087.76,-332.77"/>
</g>
<!-- Node4&#45;&gt;Node2 -->
<g id="edge4" class="edge">
<title>Node4&#45;&gt;Node2</title>
<path fill="none" stroke="#63b8ff" d="M1019.59,-236.34C1067.79,-235.35 1135.06,-238.73 1190,-259.5 1194.23,-261.1 1241.05,-296.86 1264.2,-314.64"/>
<polygon fill="#63b8ff" stroke="#63b8ff" points="1019.79,-232.84 1009.9,-236.62 1019.99,-239.83 1019.79,-232.84"/>
</g>
<!-- Node5 -->
<g id="node5" class="node">
<title>Node5</title>
<g id="a_node5"><a xlink:href="TransmitterCode_2src_2main_8cpp.html#a9d94366336f1e5fd43edb9c24bec5821" target="_top" xlink:title=" ">
<polygon fill="white" stroke="#666666" points="837,-177 769,-177 769,-158 837,-158 837,-177"/>
<text text-anchor="middle" x="803" y="-165" font-family="Helvetica,sans-Serif" font-size="10.00">RenameFile</text>
</a>
</g>
</g>
<!-- Node4&#45;&gt;Node5 -->
<g id="edge5" class="edge">
<title>Node4&#45;&gt;Node5</title>
<path fill="none" stroke="#63b8ff" d="M927.05,-225.06C901.98,-210.98 868.57,-192.23 867,-191.5 855.97,-186.35 843.51,-181.42 832.59,-177.38"/>
<polygon fill="#63b8ff" stroke="#63b8ff" points="925.08,-227.97 935.51,-229.82 928.51,-221.87 925.08,-227.97"/>
</g>
<!-- Node6&#45;&gt;Node2 -->
<g id="edge7" class="edge">
<title>Node6&#45;&gt;Node2</title>
<path fill="none" stroke="#63b8ff" d="M1010.29,-328.63C1021.38,-330.66 1033.02,-332.44 1044,-333.5 1108.59,-339.72 1125.2,-336.84 1190,-333.5 1202.13,-332.87 1215.18,-331.76 1227.38,-330.53"/>
<polygon fill="#63b8ff" stroke="#63b8ff" points="1010.95,-325.2 1000.47,-326.74 1009.63,-332.07 1010.95,-325.2"/>
</g>
<!-- Node6&#45;&gt;Node5 -->
<g id="edge21" class="edge">
<title>Node6&#45;&gt;Node5</title>
<path fill="none" stroke="#63b8ff" d="M908.96,-301.13C906.85,-299.71 904.85,-298.17 903,-296.5 876.78,-272.75 888.35,-253.71 867,-225.5 852.46,-206.3 831.1,-188.17 817.36,-177.45"/>
<polygon fill="#63b8ff" stroke="#63b8ff" points="906.96,-304.02 917.4,-305.84 910.38,-297.91 906.96,-304.02"/>
</g>
<!-- Node7 -->
<g id="node7" class="node">
<title>Node7</title>
<g id="a_node7"><a xlink:href="TransmitterCode_2src_2main_8cpp.html#ac45477c637c975e13189e2988c8813b3" target="_top" xlink:title=" ">
<polygon fill="white" stroke="#666666" points="843,-475 763,-475 763,-456 843,-456 843,-475"/>
<text text-anchor="middle" x="803" y="-463" font-family="Helvetica,sans-Serif" font-size="10.00">DeleteModelID</text>
</a>
</g>
</g>
<!-- Node6&#45;&gt;Node7 -->
<g id="edge8" class="edge">
<title>Node6&#45;&gt;Node7</title>
<path fill="none" stroke="#63b8ff" d="M937.24,-334.71C926.64,-346.4 913.19,-362.21 903,-377.5 883.59,-406.61 894.05,-425.31 867,-447.5 860.23,-453.06 851.83,-456.9 843.4,-459.55"/>
<polygon fill="#63b8ff" stroke="#63b8ff" points="939.76,-337.13 943.98,-327.41 934.62,-332.38 939.76,-337.13"/>
</g>
<!-- Node8 -->
<g id="node8" class="node">
<title>Node8</title>
<g id="a_node8"><a xlink:href="TransmitterCode_2src_2main_8cpp.html#a53d438145d004c3b053f245f494f4284" target="_top" xlink:title=" ">
<polygon fill="white" stroke="#666666" points="829,-327 777,-327 777,-308 829,-308 829,-327"/>
<text text-anchor="middle" x="803" y="-315" font-family="Helvetica,sans-Serif" font-size="10.00">DelLOG</text>
</a>
</g>
</g>
<!-- Node6&#45;&gt;Node8 -->
<g id="edge9" class="edge">
<title>Node6&#45;&gt;Node8</title>
<path fill="none" stroke="#63b8ff" d="M900.85,-316.86C876.39,-317.02 848.6,-317.2 829.08,-317.33"/>
<polygon fill="#63b8ff" stroke="#63b8ff" points="900.69,-320.36 910.66,-316.79 900.64,-313.36 900.69,-320.36"/>
</g>
<!-- Node6&#45;&gt;Node9 -->
<g id="edge10" class="edge">
<title>Node6&#45;&gt;Node9</title>
<path fill="none" stroke="#63b8ff" d="M907.1,-300.51C905.64,-299.27 904.26,-297.94 903,-296.5 858.39,-245.58 913.91,-197.31 867,-148.5 860.93,-142.18 852.81,-138.04 844.43,-135.33"/>
<polygon fill="#63b8ff" stroke="#63b8ff" points="904.78,-303.17 915.05,-305.79 908.65,-297.34 904.78,-303.17"/>
</g>
<!-- Node10 -->
<g id="node10" class="node">
<title>Node10</title>
<g id="a_node10"><a xlink:href="ModelMatch_8h.html#afdd42b1130d38073be1c2025af855879" target="_top" xlink:title=" ">
<polygon fill="white" stroke="#666666" points="837.5,-401 768.5,-401 768.5,-382 837.5,-382 837.5,-401"/>
<text text-anchor="middle" x="803" y="-389" font-family="Helvetica,sans-Serif" font-size="10.00">IDNotFound</text>
</a>
</g>
</g>
<!-- Node6&#45;&gt;Node10 -->
<g id="edge11" class="edge">
<title>Node6&#45;&gt;Node10</title>
<path fill="none" stroke="#63b8ff" d="M932.77,-333.3C915.68,-345.84 890.86,-362.62 867,-373.5 857.79,-377.7 847.37,-381.16 837.69,-383.88"/>
<polygon fill="#63b8ff" stroke="#63b8ff" points="934.75,-336.19 940.66,-327.39 930.56,-330.59 934.75,-336.19"/>
</g>
<!-- Node6&#45;&gt;Node17 -->
<g id="edge19" class="edge">
<title>Node6&#45;&gt;Node17</title>
<path fill="none" stroke="#63b8ff" d="M906.56,-300.18C905.29,-299.04 904.1,-297.81 903,-296.5 849.28,-232.23 923.63,-173.22 867,-111.5 860.93,-104.88 852.6,-100.63 843.99,-97.92"/>
<polygon fill="#63b8ff" stroke="#63b8ff" points="904.42,-302.96 914.63,-305.78 908.41,-297.2 904.42,-302.96"/>
</g>
<!-- Node6&#45;&gt;Node18 -->
<g id="edge20" class="edge">
<title>Node6&#45;&gt;Node18</title>
<path fill="none" stroke="#63b8ff" d="M935.89,-334.04C924.82,-345.44 911.35,-361.18 903,-377.5 872.94,-436.22 912.86,-474.08 867,-521.5 862.33,-526.32 856.47,-529.88 850.21,-532.5"/>
<polygon fill="#63b8ff" stroke="#63b8ff" points="938.06,-336.82 942.69,-327.29 933.13,-331.85 938.06,-336.82"/>
</g>
<!-- Node19 -->
<g id="node19" class="node">
<title>Node19</title>
<g id="a_node19"><a xlink:href="TransmitterCode_2src_2main_8cpp.html#a75875d66db3193e4034c3768c175f8ef" target="_top" xlink:title=" ">
<polygon fill="white" stroke="#666666" points="836.5,-364 769.5,-364 769.5,-345 836.5,-345 836.5,-364"/>
<text text-anchor="middle" x="803" y="-352" font-family="Helvetica,sans-Serif" font-size="10.00">ResetClock</text>
</a>
</g>
</g>
<!-- Node6&#45;&gt;Node19 -->
<g id="edge22" class="edge">
<title>Node6&#45;&gt;Node19</title>
<path fill="none" stroke="#63b8ff" d="M904.02,-329.25C881.81,-334.85 856.35,-341.28 836.68,-346.25"/>
<polygon fill="#63b8ff" stroke="#63b8ff" points="904.65,-332.7 913.49,-326.85 902.94,-325.91 904.65,-332.7"/>
</g>
<!-- Node20 -->
<g id="node20" class="node">
<title>Node20</title>
<g id="a_node20"><a xlink:href="TransmitterCode_2src_2main_8cpp.html#a5c7f22bae35d5d6df9d54fe79dbb8401" target="_top" xlink:title=" ">
<polygon fill="white" stroke="#666666" points="867,-253 739,-253 739,-234 867,-234 867,-253"/>
<text text-anchor="middle" x="803" y="-241" font-family="Helvetica,sans-Serif" font-size="10.00">ResetTransmitterSettings</text>
</a>
</g>
</g>
<!-- Node6&#45;&gt;Node20 -->
<g id="edge23" class="edge">
<title>Node6&#45;&gt;Node20</title>
<path fill="none" stroke="#63b8ff" d="M912.77,-301.93C909.38,-300.26 906.08,-298.45 903,-296.5 884.4,-284.74 886.05,-273.53 867,-262.5 860.77,-258.89 853.79,-255.91 846.81,-253.46"/>
<polygon fill="#63b8ff" stroke="#63b8ff" points="911.12,-305.02 921.68,-305.9 913.97,-298.63 911.12,-305.02"/>
</g>
<!-- Node21 -->
<g id="node21" class="node">
<title>Node21</title>
<g id="a_node21"><a xlink:href="TransmitterCode_2src_2main_8cpp.html#a3838aa0b33bb22d3b9934da05d2716d8" target="_top" xlink:title=" ">
<polygon fill="white" stroke="#666666" points="841,-438 765,-438 765,-419 841,-419 841,-438"/>
<text text-anchor="middle" x="803" y="-426" font-family="Helvetica,sans-Serif" font-size="10.00">StoreModelID</text>
</a>
</g>
</g>
<!-- Node6&#45;&gt;Node21 -->
<g id="edge24" class="edge">
<title>Node6&#45;&gt;Node21</title>
<path fill="none" stroke="#63b8ff" d="M939.3,-335.07C919.04,-359.4 883.78,-400.22 867,-410.5 859.24,-415.25 850.18,-418.8 841.39,-421.42"/>
<polygon fill="#63b8ff" stroke="#63b8ff" points="941.86,-337.46 945.54,-327.52 936.47,-333 941.86,-337.46"/>
</g>
<!-- Node22 -->
<g id="node22" class="node">
<title>Node22</title>
<g id="a_node22"><a xlink:href="TransmitterCode_2src_2main_8cpp.html#a3c55ef7c23759a89a86f6519569c4f7a" target="_top" xlink:title=" ">
<polygon fill="white" stroke="#666666" points="852.5,-290 753.5,-290 753.5,-271 852.5,-271 852.5,-290"/>
<text text-anchor="middle" x="803" y="-278" font-family="Helvetica,sans-Serif" font-size="10.00">TXModuleViewEnd</text>
</a>
</g>
</g>
<!-- Node6&#45;&gt;Node22 -->
<g id="edge25" class="edge">
<title>Node6&#45;&gt;Node22</title>
<path fill="none" stroke="#63b8ff" d="M901.82,-303.9C883.42,-299.5 863.03,-294.62 845.65,-290.46"/>
<polygon fill="#63b8ff" stroke="#63b8ff" points="900.96,-307.29 911.5,-306.22 902.59,-300.48 900.96,-307.29"/>
</g>
<!-- Node10&#45;&gt;Node11 -->
<g id="edge12" class="edge">
<title>Node10&#45;&gt;Node11</title>
<path fill="none" stroke="#63b8ff" d="M757.47,-402.67C751.12,-404.91 744.79,-407.51 739,-410.5 704.65,-428.27 670.33,-459 653.94,-474.68"/>
<polygon fill="#63b8ff" stroke="#63b8ff" points="758.2,-406.11 766.64,-399.71 756.05,-399.45 758.2,-406.11"/>
</g>
<!-- Node12 -->
<g id="node12" class="node">
<title>Node12</title>
<g id="a_node12"><a xlink:href="ModelMatch_8h.html#a494cb4acb30856d1f53f08df1b80c41b" target="_top" xlink:title=" ">
<polygon fill="white" stroke="#666666" points="547,-494 428,-494 428,-475 547,-475 547,-494"/>
<text text-anchor="middle" x="487.5" y="-482" font-family="Helvetica,sans-Serif" font-size="10.00">GetModelsMacAddress</text>
</a>
</g>
</g>
<!-- Node11&#45;&gt;Node12 -->
<g id="edge13" class="edge">
<title>Node11&#45;&gt;Node12</title>
<path fill="none" stroke="#63b8ff" d="M580.55,-484.5C569.62,-484.5 558.27,-484.5 547.41,-484.5"/>
<polygon fill="#63b8ff" stroke="#63b8ff" points="580.22,-488 590.22,-484.5 580.22,-481 580.22,-488"/>
</g>
<!-- Node13 -->
<g id="node13" class="node">
<title>Node13</title>
<g id="a_node13"><a xlink:href="TransmitterCode_2src_2main_8cpp.html#a694f4f5a0147f4dc29b0bc1a8951547d" target="_top" xlink:title=" ">
<polygon fill="white" stroke="#666666" points="392,-494 298,-494 298,-475 392,-475 392,-494"/>
<text text-anchor="middle" x="345" y="-482" font-family="Helvetica,sans-Serif" font-size="10.00">ParseAckPayload</text>
</a>
</g>
</g>
<!-- Node12&#45;&gt;Node13 -->
<g id="edge14" class="edge">
<title>Node12&#45;&gt;Node13</title>
<path fill="none" stroke="#63b8ff" d="M416.22,-484.5C408.05,-484.5 399.87,-484.5 392.14,-484.5"/>
<polygon fill="#63b8ff" stroke="#63b8ff" points="416.22,-488 426.22,-484.5 416.22,-481 416.22,-488"/>
</g>
<!-- Node14 -->
<g id="node14" class="node">
<title>Node14</title>
<g id="a_node14"><a xlink:href="transceiver_8h.html#a1c11bb6771548de7d96723045b922620" target="_top" xlink:title=" ">
<polygon fill="white" stroke="#666666" points="262,-494 166,-494 166,-475 262,-475 262,-494"/>
<text text-anchor="middle" x="214" y="-482" font-family="Helvetica,sans-Serif" font-size="10.00">SuccessfulPacket</text>
</a>
</g>
</g>
<!-- Node13&#45;&gt;Node14 -->
<g id="edge15" class="edge">
<title>Node13&#45;&gt;Node14</title>
<path fill="none" stroke="#63b8ff" d="M286.47,-484.5C278.35,-484.5 270.08,-484.5 262.19,-484.5"/>
<polygon fill="#63b8ff" stroke="#63b8ff" points="286.28,-488 296.28,-484.5 286.28,-481 286.28,-488"/>
</g>
<!-- Node15 -->
<g id="node15" class="node">
<title>Node15</title>
<g id="a_node15"><a xlink:href="transceiver_8h.html#a049bfb836e7aa4a3a48a1a4bd225fafc" target="_top" xlink:title=" ">
<polygon fill="white" stroke="#666666" points="130,-494 71,-494 71,-475 130,-475 130,-494"/>
<text text-anchor="middle" x="100.5" y="-482" font-family="Helvetica,sans-Serif" font-size="10.00">SendData</text>
</a>
</g>
</g>
<!-- Node14&#45;&gt;Node15 -->
<g id="edge16" class="edge">
<title>Node14&#45;&gt;Node15</title>
<path fill="none" stroke="#63b8ff" d="M154.39,-484.5C146.07,-484.5 137.83,-484.5 130.43,-484.5"/>
<polygon fill="#63b8ff" stroke="#63b8ff" points="154.2,-488 164.2,-484.5 154.2,-481 154.2,-488"/>
</g>
<!-- Node15&#45;&gt;Node2 -->
<g id="edge17" class="edge">
<title>Node15&#45;&gt;Node2</title>
<path fill="none" stroke="#63b8ff" d="M119.07,-502.06C156.77,-537.77 249.64,-615.5 344,-615.5 804,-615.5 804,-615.5 804,-615.5 1023.82,-615.5 1227.28,-384.68 1269.15,-334.18"/>
<polygon fill="#63b8ff" stroke="#63b8ff" points="121.81,-499.84 112.19,-495.4 116.94,-504.87 121.81,-499.84"/>
</g>
<!-- Node16 -->
<g id="node16" class="node">
<title>Node16</title>
<g id="a_node16"><a xlink:href="TransmitterCode_2src_2main_8cpp.html#ad3cb30894c94eb016e98bdcaa899ac86" target="_top" xlink:title=" ">
<polygon fill="white" stroke="#666666" points="35,-215 0,-215 0,-196 35,-196 35,-215"/>
<text text-anchor="middle" x="17.5" y="-203" font-family="Helvetica,sans-Serif" font-size="10.00">loop</text>
</a>
</g>
</g>
<!-- Node15&#45;&gt;Node16 -->
<g id="edge18" class="edge">
<title>Node15&#45;&gt;Node16</title>
<path fill="none" stroke="#63b8ff" d="M93.43,-463.59C77.15,-407.53 33,-255.43 21.35,-215.31"/>
<polygon fill="#63b8ff" stroke="#63b8ff" points="90.05,-464.49 96.2,-473.12 96.77,-462.54 90.05,-464.49"/>
</g>
<!-- Node23&#45;&gt;Node16 -->
<g id="edge27" class="edge">
<title>Node23&#45;&gt;Node16</title>
<path fill="none" stroke="#63b8ff" d="M909.22,-262.94C907.08,-261.86 904.99,-260.71 903,-259.5 884.2,-248.06 887.07,-234.54 867,-225.5 776.27,-184.64 743.51,-205.5 644,-205.5 644,-205.5 644,-205.5 213,-205.5 147.32,-205.5 69.17,-205.5 35.41,-205.5"/>
<polygon fill="#63b8ff" stroke="#63b8ff" points="907.57,-266.04 918.13,-266.91 910.42,-259.64 907.57,-266.04"/>
</g>
<!-- Node24&#45;&gt;Node7 -->
<g id="edge29" class="edge">
<title>Node24&#45;&gt;Node7</title>
<path fill="none" stroke="#63b8ff" d="M926.34,-410.98C918.72,-415.28 910.5,-420 903,-424.5 886.72,-434.27 884.31,-439.7 867,-447.5 859.53,-450.87 851.28,-453.76 843.28,-456.19"/>
<polygon fill="#63b8ff" stroke="#63b8ff" points="927.9,-414.12 934.92,-406.19 924.48,-408.01 927.9,-414.12"/>
</g>
<!-- Node24&#45;&gt;Node10 -->
<g id="edge30" class="edge">
<title>Node24&#45;&gt;Node10</title>
<path fill="none" stroke="#63b8ff" d="M917.98,-394.53C893.54,-393.88 861.6,-393.03 837.75,-392.4"/>
<polygon fill="#63b8ff" stroke="#63b8ff" points="917.71,-398.02 927.8,-394.79 917.89,-391.03 917.71,-398.02"/>
</g>
<!-- Node24&#45;&gt;Node19 -->
<g id="edge31" class="edge">
<title>Node24&#45;&gt;Node19</title>
<path fill="none" stroke="#63b8ff" d="M918.53,-385.7C893.74,-378.95 861.03,-370.04 836.92,-363.47"/>
<polygon fill="#63b8ff" stroke="#63b8ff" points="917.28,-388.99 927.85,-388.24 919.12,-382.23 917.28,-388.99"/>
</g>
<!-- Node24&#45;&gt;Node21 -->
<g id="edge33" class="edge">
<title>Node24&#45;&gt;Node21</title>
<path fill="none" stroke="#63b8ff" d="M918.18,-403.46C894.94,-408.56 864.87,-415.15 841.42,-420.3"/>
<polygon fill="#63b8ff" stroke="#63b8ff" points="918.81,-406.91 927.83,-401.35 917.31,-400.07 918.81,-406.91"/>
</g>
<!-- Node25 -->
<g id="node25" class="node">
<title>Node25</title>
<g id="a_node25"><a xlink:href="ModelExchange_8h.html#ac36bdea2efcd030a336293af16f5dc09" target="_top" xlink:title=" ">
<polygon fill="white" stroke="#666666" points="845.5,-512 760.5,-512 760.5,-493 845.5,-493 845.5,-512"/>
<text text-anchor="middle" x="803" y="-500" font-family="Helvetica,sans-Serif" font-size="10.00">ShowRemoteID</text>
</a>
</g>
</g>
<!-- Node24&#45;&gt;Node25 -->
<g id="edge32" class="edge">
<title>Node24&#45;&gt;Node25</title>
<path fill="none" stroke="#63b8ff" d="M921.01,-411C914.6,-414.86 908.26,-419.38 903,-424.5 880.71,-446.18 891.68,-465.57 867,-484.5 860.77,-489.28 853.32,-492.79 845.77,-495.36"/>
<polygon fill="#63b8ff" stroke="#63b8ff" points="922.6,-414.12 929.66,-406.22 919.22,-407.99 922.6,-414.12"/>
</g>
<!-- Node27 -->
<g id="node27" class="node">
<title>Node27</title>
<g id="a_node27"><a xlink:href="BuddyWireless_8h.html#abe67b2cf1cd907bd032ea0a712f1c4cb" target="_top" xlink:title=" ">
<polygon fill="white" stroke="#666666" points="1186,-84 1048,-84 1048,-65 1186,-65 1186,-84"/>
<text text-anchor="middle" x="1117" y="-72" font-family="Helvetica,sans-Serif" font-size="10.00">CheckModelMatchesMaster</text>
</a>
</g>
</g>
<!-- Node26&#45;&gt;Node27 -->
<g id="edge38" class="edge">
<title>Node26&#45;&gt;Node27</title>
<path fill="none" stroke="#63b8ff" d="M1218.24,-80.17C1207.83,-79.58 1196.92,-78.97 1186.28,-78.36"/>
<polygon fill="#63b8ff" stroke="#63b8ff" points="1218.03,-83.67 1228.21,-80.74 1218.43,-76.68 1218.03,-83.67"/>
</g>
<!-- Node28 -->
<g id="node28" class="node">
<title>Node28</title>
<g id="a_node28"><a xlink:href="BuddyWireless_8h.html#af63784896d400ae2d75d57852e143ca1" target="_top" xlink:title=" ">
<polygon fill="white" stroke="#666666" points="1003,-82 908,-82 908,-63 1003,-63 1003,-82"/>
<text text-anchor="middle" x="955.5" y="-70" font-family="Helvetica,sans-Serif" font-size="10.00">GetSpecialPacket</text>
</a>
</g>
</g>
<!-- Node27&#45;&gt;Node28 -->
<g id="edge39" class="edge">
<title>Node27&#45;&gt;Node28</title>
<path fill="none" stroke="#63b8ff" d="M1036.52,-73.5C1025.11,-73.36 1013.69,-73.22 1003.2,-73.09"/>
<polygon fill="#63b8ff" stroke="#63b8ff" points="1036.34,-77 1046.38,-73.63 1036.43,-70 1036.34,-77"/>
</g>
<!-- Node29 -->
<g id="node29" class="node">
<title>Node29</title>
<g id="a_node29"><a xlink:href="TransmitterCode_2src_2main_8cpp.html#ad2c7ed441d88f2a2b2fca83ff61e714d" target="_top" xlink:title=" ">
<polygon fill="white" stroke="#666666" points="703,-93 583,-93 583,-74 703,-74 703,-93"/>
<text text-anchor="middle" x="643" y="-81" font-family="Helvetica,sans-Serif" font-size="10.00">DoWirelessBuddyListen</text>
</a>
</g>
</g>
<!-- Node28&#45;&gt;Node29 -->
<g id="edge40" class="edge">
<title>Node28&#45;&gt;Node29</title>
<path fill="none" stroke="#63b8ff" d="M896.32,-71.7C852.93,-71.43 792.22,-71.74 739,-74.5 727.5,-75.1 715.24,-76.03 703.49,-77.08"/>
<polygon fill="#63b8ff" stroke="#63b8ff" points="896.26,-75.2 906.29,-71.78 896.32,-68.2 896.26,-75.2"/>
</g>
<!-- Node29&#45;&gt;Node16 -->
<g id="edge41" class="edge">
<title>Node29&#45;&gt;Node16</title>
<path fill="none" stroke="#63b8ff" d="M600.1,-96.55C543.17,-113.1 437.93,-139.5 346,-139.5 346,-139.5 346,-139.5 213,-139.5 144,-139.5 68.19,-177.21 35.28,-195.62"/>
<polygon fill="#63b8ff" stroke="#63b8ff" points="600.78,-100 609.37,-93.81 598.79,-93.29 600.78,-100"/>
</g>
<!-- Node31&#45;&gt;Node5 -->
<g id="edge46" class="edge">
<title>Node31&#45;&gt;Node5</title>
<path fill="none" stroke="#63b8ff" d="M1051.36,-191.28C986.22,-185.02 888.26,-175.6 837.37,-170.71"/>
<polygon fill="#63b8ff" stroke="#63b8ff" points="1050.92,-194.76 1061.21,-192.23 1051.59,-187.79 1050.92,-194.76"/>
</g>
<!-- Node34 -->
<g id="node34" class="node">
<title>Node34</title>
<g id="a_node34"><a xlink:href="TransmitterCode_2src_2main_8cpp.html#a6ae37c6938b8c10b83d1bc74e8643bd9" target="_top" xlink:title=" ">
<polygon fill="white" stroke="#666666" points="1173.5,-287 1060.5,-287 1060.5,-268 1173.5,-268 1173.5,-287"/>
<text text-anchor="middle" x="1117" y="-275" font-family="Helvetica,sans-Serif" font-size="10.00">CheckPowerOffButton</text>
</a>
</g>
</g>
<!-- Node33&#45;&gt;Node34 -->
<g id="edge49" class="edge">
<title>Node33&#45;&gt;Node34</title>
<path fill="none" stroke="#63b8ff" d="M1214.68,-270.81C1201.18,-271.75 1186.99,-272.73 1173.76,-273.64"/>
<polygon fill="#63b8ff" stroke="#63b8ff" points="1214.57,-274.33 1224.31,-270.15 1214.09,-267.34 1214.57,-274.33"/>
</g>
<!-- Node34&#45;&gt;Node4 -->
<g id="edge50" class="edge">
<title>Node34&#45;&gt;Node4</title>
<path fill="none" stroke="#63b8ff" d="M1062.19,-265.02C1041.72,-260.27 1018.69,-254.93 999.36,-250.44"/>
<polygon fill="#63b8ff" stroke="#63b8ff" points="1061.25,-268.39 1071.78,-267.24 1062.83,-261.57 1061.25,-268.39"/>
</g>
<!-- Node34&#45;&gt;Node6 -->
<g id="edge51" class="edge">
<title>Node34&#45;&gt;Node6</title>
<path fill="none" stroke="#63b8ff" d="M1064.32,-290.14C1042.63,-295.44 1017.75,-301.52 997.36,-306.51"/>
<polygon fill="#63b8ff" stroke="#63b8ff" points="1064.99,-293.58 1073.87,-287.8 1063.32,-286.78 1064.99,-293.58"/>
</g>
<!-- Node34&#45;&gt;Node23 -->
<g id="edge52" class="edge">
<title>Node34&#45;&gt;Node23</title>
<path fill="none" stroke="#63b8ff" d="M1048.94,-277.5C1034.68,-277.5 1019.88,-277.5 1006.4,-277.5"/>
<polygon fill="#63b8ff" stroke="#63b8ff" points="1048.7,-281 1058.7,-277.5 1048.7,-274 1048.7,-281"/>
</g>
</g>
</svg>
