<?xml version="1.0" encoding="UTF-8" standalone="no"?>
<!DOCTYPE svg PUBLIC "-//W3C//DTD SVG 1.1//EN"
 "http://www.w3.org/Graphics/SVG/1.1/DTD/svg11.dtd">
<!-- Generated by graphviz version 7.0.5 (20221223.1930)
 -->
<!-- Title: SendData Pages: 1 -->
<svg width="1296pt" height="508pt"
 viewBox="0.00 0.00 1296.00 508.00" xmlns="http://www.w3.org/2000/svg" xmlns:xlink="http://www.w3.org/1999/xlink">
<g id="graph0" class="graph" transform="scale(1 1) rotate(0) translate(4 504)">
<title>SendData</title>
<!-- Node1 -->
<g id="node1" class="node">
<title>Node1</title>
<g id="a_node1"><a xlink:title=" ">
<polygon fill="#999999" stroke="#666666" points="1288,-131 1229,-131 1229,-112 1288,-112 1288,-131"/>
<text text-anchor="middle" x="1258.5" y="-119" font-family="Helvetica,sans-Serif" font-size="10.00">SendData</text>
</a>
</g>
</g>
<!-- Node2 -->
<g id="node2" class="node">
<title>Node2</title>
<g id="a_node2"><a xlink:href="TransmitterCode_2src_2main_8cpp.html#a804fdbdd5eab4c596bbe8a23eecbe4d5" target="_top" xlink:title=" ">
<polygon fill="white" stroke="#666666" points="1193,-296 1092,-296 1092,-277 1193,-277 1193,-296"/>
<text text-anchor="middle" x="1142.5" y="-284" font-family="Helvetica,sans-Serif" font-size="10.00">ButtonWasPressed</text>
</a>
</g>
</g>
<!-- Node1&#45;&gt;Node2 -->
<g id="edge1" class="edge">
<title>Node1&#45;&gt;Node2</title>
<path fill="none" stroke="#63b8ff" d="M1244.36,-140.52C1220.07,-175.68 1168.94,-249.68 1150.4,-276.52"/>
<polygon fill="#63b8ff" stroke="#63b8ff" points="1247.05,-142.79 1249.85,-132.57 1241.29,-138.81 1247.05,-142.79"/>
</g>
<!-- Node22 -->
<g id="node22" class="node">
<title>Node22</title>
<g id="a_node22"><a xlink:href="TransmitterCode_2src_2main_8cpp.html#ad3cb30894c94eb016e98bdcaa899ac86" target="_top" xlink:title=" ">
<polygon fill="white" stroke="#666666" points="674.5,-19 639.5,-19 639.5,0 674.5,0 674.5,-19"/>
<text text-anchor="middle" x="657" y="-7" font-family="Helvetica,sans-Serif" font-size="10.00">loop</text>
</a>
</g>
</g>
<!-- Node1&#45;&gt;Node22 -->
<g id="edge36" class="edge">
<title>Node1&#45;&gt;Node22</title>
<path fill="none" stroke="#63b8ff" d="M1217.55,-114.04C1099.39,-91.96 754.84,-27.59 674.76,-12.63"/>
<polygon fill="#63b8ff" stroke="#63b8ff" points="1216.62,-117.42 1227.1,-115.82 1217.91,-110.54 1216.62,-117.42"/>
</g>
<!-- Node3 -->
<g id="node3" class="node">
<title>Node3</title>
<g id="a_node3"><a xlink:href="Utilities_8h.html#afb7c85cac4aa89fd998ed81c330374d2" target="_top" xlink:title=" ">
<polygon fill="white" stroke="#666666" points="1056,-258 910,-258 910,-239 1056,-239 1056,-258"/>
<text text-anchor="middle" x="983" y="-246" font-family="Helvetica,sans-Serif" font-size="10.00">CheckForNextionButtonPress</text>
</a>
</g>
</g>
<!-- Node2&#45;&gt;Node3 -->
<g id="edge2" class="edge">
<title>Node2&#45;&gt;Node3</title>
<path fill="none" stroke="#63b8ff" d="M1088.94,-273.82C1068.25,-268.83 1044.83,-263.18 1025.38,-258.48"/>
<polygon fill="#63b8ff" stroke="#63b8ff" points="1088.11,-277.22 1098.65,-276.16 1089.75,-270.41 1088.11,-277.22"/>
</g>
<!-- Node16 -->
<g id="node16" class="node">
<title>Node16</title>
<g id="a_node16"><a xlink:href="ModelExchange_8h.html#ab7c9edf843c732d7fe296564f39bc0dc" target="_top" xlink:title="RECEIVE A MODEL FILE.">
<polygon fill="white" stroke="#666666" points="704,-500 610,-500 610,-481 704,-481 704,-500"/>
<text text-anchor="middle" x="657" y="-488" font-family="Helvetica,sans-Serif" font-size="10.00">ReceiveModelFile</text>
</a>
</g>
</g>
<!-- Node2&#45;&gt;Node16 -->
<g id="edge35" class="edge">
<title>Node2&#45;&gt;Node16</title>
<path fill="none" stroke="#63b8ff" d="M1113.37,-301.6C1048.17,-336.09 880.98,-421.58 733,-472.5 723.88,-475.64 713.96,-478.43 704.41,-480.83"/>
<polygon fill="#63b8ff" stroke="#63b8ff" points="1114.76,-304.82 1121.95,-297.04 1111.48,-298.64 1114.76,-304.82"/>
</g>
<!-- Node4 -->
<g id="node4" class="node">
<title>Node4</title>
<g id="a_node4"><a xlink:href="TransmitterCode_2src_2main_8cpp.html#a641d6dab68ec7b2a8a32492aac55bc1c" target="_top" xlink:title=" ">
<polygon fill="white" stroke="#666666" points="874,-334 769,-334 769,-315 874,-315 874,-334"/>
<text text-anchor="middle" x="821.5" y="-322" font-family="Helvetica,sans-Serif" font-size="10.00">GetBackupFilename</text>
</a>
</g>
</g>
<!-- Node3&#45;&gt;Node4 -->
<g id="edge3" class="edge">
<title>Node3&#45;&gt;Node4</title>
<path fill="none" stroke="#63b8ff" d="M955.39,-263.81C933.83,-275.91 902.45,-292.81 874,-305.5 866.86,-308.68 859.01,-311.78 851.64,-314.51"/>
<polygon fill="#63b8ff" stroke="#63b8ff" points="956.84,-267.01 963.82,-259.04 953.39,-260.92 956.84,-267.01"/>
</g>
<!-- Node6 -->
<g id="node6" class="node">
<title>Node6</title>
<g id="a_node6"><a xlink:href="TransmitterCode_2src_2main_8cpp.html#a6506bf72e0dd9e9ce480156b47625bff" target="_top" xlink:title=" ">
<polygon fill="white" stroke="#666666" points="864.5,-296 778.5,-296 778.5,-277 864.5,-277 864.5,-296"/>
<text text-anchor="middle" x="821.5" y="-284" font-family="Helvetica,sans-Serif" font-size="10.00">GetConfirmation</text>
</a>
</g>
</g>
<!-- Node3&#45;&gt;Node6 -->
<g id="edge6" class="edge">
<title>Node3&#45;&gt;Node6</title>
<path fill="none" stroke="#63b8ff" d="M929.07,-261.11C908.04,-266.12 884.2,-271.8 864.4,-276.52"/>
<polygon fill="#63b8ff" stroke="#63b8ff" points="929.7,-264.56 938.62,-258.83 928.08,-257.75 929.7,-264.56"/>
</g>
<!-- Node21 -->
<g id="node21" class="node">
<title>Node21</title>
<g id="a_node21"><a xlink:href="TransmitterCode_2src_2main_8cpp.html#a558ea014e230b7caa54ce5a37ad29b22" target="_top" xlink:title=" ">
<polygon fill="white" stroke="#666666" points="872,-112 771,-112 771,-93 872,-93 872,-112"/>
<text text-anchor="middle" x="821.5" y="-100" font-family="Helvetica,sans-Serif" font-size="10.00">ManageTransmitter</text>
</a>
</g>
</g>
<!-- Node3&#45;&gt;Node21 -->
<g id="edge23" class="edge">
<title>Node3&#45;&gt;Node21</title>
<path fill="none" stroke="#63b8ff" d="M966.19,-230.45C945.93,-207.79 909.19,-168.28 874,-138.5 862.67,-128.92 848.85,-119.35 838.37,-112.5"/>
<polygon fill="#63b8ff" stroke="#63b8ff" points="963.32,-232.5 972.58,-237.66 968.56,-227.85 963.32,-232.5"/>
</g>
<!-- Node23 -->
<g id="node23" class="node">
<title>Node23</title>
<g id="a_node23"><a xlink:href="TransmitterCode_2src_2main_8cpp.html#a6f5b0f1e4ca75768c16c4dd93f92a8de" target="_top" xlink:title=" ">
<polygon fill="white" stroke="#666666" points="847.5,-167 795.5,-167 795.5,-148 847.5,-148 847.5,-167"/>
<text text-anchor="middle" x="821.5" y="-155" font-family="Helvetica,sans-Serif" font-size="10.00">MsgBox</text>
</a>
</g>
</g>
<!-- Node3&#45;&gt;Node23 -->
<g id="edge25" class="edge">
<title>Node3&#45;&gt;Node23</title>
<path fill="none" stroke="#63b8ff" d="M954.76,-232.96C921.87,-214.19 867.52,-183.19 839.85,-167.4"/>
<polygon fill="#63b8ff" stroke="#63b8ff" points="952.89,-235.92 963.31,-237.84 956.36,-229.84 952.89,-235.92"/>
</g>
<!-- Node4&#45;&gt;Node2 -->
<g id="edge4" class="edge">
<title>Node4&#45;&gt;Node2</title>
<path fill="none" stroke="#63b8ff" d="M885.32,-319.07C932.39,-314.75 998.34,-308.18 1056,-300.5 1067.63,-298.95 1080.11,-297.05 1091.84,-295.15"/>
<polygon fill="#63b8ff" stroke="#63b8ff" points="885.23,-315.56 875.59,-319.96 885.86,-322.54 885.23,-315.56"/>
</g>
<!-- Node5 -->
<g id="node5" class="node">
<title>Node5</title>
<g id="a_node5"><a xlink:href="TransmitterCode_2src_2main_8cpp.html#a9d94366336f1e5fd43edb9c24bec5821" target="_top" xlink:title=" ">
<polygon fill="white" stroke="#666666" points="691,-463 623,-463 623,-444 691,-444 691,-463"/>
<text text-anchor="middle" x="657" y="-451" font-family="Helvetica,sans-Serif" font-size="10.00">RenameFile</text>
</a>
</g>
</g>
<!-- Node4&#45;&gt;Node5 -->
<g id="edge5" class="edge">
<title>Node4&#45;&gt;Node5</title>
<path fill="none" stroke="#63b8ff" d="M810.44,-344.19C796.53,-369.37 769.01,-412.45 733,-435.5 720.59,-443.44 705,-447.88 691.25,-450.36"/>
<polygon fill="#63b8ff" stroke="#63b8ff" points="813.38,-346.12 814.99,-335.65 807.2,-342.83 813.38,-346.12"/>
</g>
<!-- Node6&#45;&gt;Node2 -->
<g id="edge7" class="edge">
<title>Node6&#45;&gt;Node2</title>
<path fill="none" stroke="#63b8ff" d="M876.01,-286.5C936.16,-286.5 1033.05,-286.5 1091.66,-286.5"/>
<polygon fill="#63b8ff" stroke="#63b8ff" points="876.37,-283 866.37,-286.5 876.37,-290 876.37,-283"/>
</g>
<!-- Node6&#45;&gt;Node5 -->
<g id="edge18" class="edge">
<title>Node6&#45;&gt;Node5</title>
<path fill="none" stroke="#63b8ff" d="M773.16,-302.54C771.68,-303.77 770.28,-305.08 769,-306.5 729.03,-350.61 775.85,-394.19 733,-435.5 722.01,-446.09 705.94,-450.82 691.48,-452.81"/>
<polygon fill="#63b8ff" stroke="#63b8ff" points="774.71,-305.71 781.17,-297.31 770.88,-299.85 774.71,-305.71"/>
</g>
<!-- Node7 -->
<g id="node7" class="node">
<title>Node7</title>
<g id="a_node7"><a xlink:href="TransmitterCode_2src_2main_8cpp.html#ac45477c637c975e13189e2988c8813b3" target="_top" xlink:title=" ">
<polygon fill="white" stroke="#666666" points="697,-241 617,-241 617,-222 697,-222 697,-241"/>
<text text-anchor="middle" x="657" y="-229" font-family="Helvetica,sans-Serif" font-size="10.00">DeleteModelID</text>
</a>
</g>
</g>
<!-- Node6&#45;&gt;Node7 -->
<g id="edge8" class="edge">
<title>Node6&#45;&gt;Node7</title>
<path fill="none" stroke="#63b8ff" d="M788.74,-272.16C772.31,-265.06 751.81,-256.72 733,-250.5 721.52,-246.71 708.84,-243.23 697.23,-240.32"/>
<polygon fill="#63b8ff" stroke="#63b8ff" points="786.94,-275.19 797.5,-275.99 789.75,-268.78 786.94,-275.19"/>
</g>
<!-- Node8 -->
<g id="node8" class="node">
<title>Node8</title>
<g id="a_node8"><a xlink:href="TransmitterCode_2src_2main_8cpp.html#a53d438145d004c3b053f245f494f4284" target="_top" xlink:title=" ">
<polygon fill="white" stroke="#666666" points="683,-315 631,-315 631,-296 683,-296 683,-315"/>
<text text-anchor="middle" x="657" y="-303" font-family="Helvetica,sans-Serif" font-size="10.00">DelLOG</text>
</a>
</g>
</g>
<!-- Node6&#45;&gt;Node8 -->
<g id="edge9" class="edge">
<title>Node6&#45;&gt;Node8</title>
<path fill="none" stroke="#63b8ff" d="M766.93,-292.76C738.79,-296.05 705.63,-299.93 683.35,-302.54"/>
<polygon fill="#63b8ff" stroke="#63b8ff" points="767.2,-296.26 776.73,-291.62 766.39,-289.3 767.2,-296.26"/>
</g>
<!-- Node9 -->
<g id="node9" class="node">
<title>Node9</title>
<g id="a_node9"><a xlink:href="TransmitterCode_2src_2main_8cpp.html#a16c65917a148c7f6c17babf11e977b69" target="_top" xlink:title=" ">
<polygon fill="white" stroke="#666666" points="698,-278 616,-278 616,-259 698,-259 698,-278"/>
<text text-anchor="middle" x="657" y="-266" font-family="Helvetica,sans-Serif" font-size="10.00">EndBuddyView</text>
</a>
</g>
</g>
<!-- Node6&#45;&gt;Node9 -->
<g id="edge10" class="edge">
<title>Node6&#45;&gt;Node9</title>
<path fill="none" stroke="#63b8ff" d="M766.89,-280.56C744.56,-278.09 719.08,-275.27 698.38,-272.97"/>
<polygon fill="#63b8ff" stroke="#63b8ff" points="766.4,-284.03 776.72,-281.65 767.17,-277.07 766.4,-284.03"/>
</g>
<!-- Node10 -->
<g id="node10" class="node">
<title>Node10</title>
<g id="a_node10"><a xlink:href="ModelMatch_8h.html#afdd42b1130d38073be1c2025af855879" target="_top" xlink:title=" ">
<polygon fill="white" stroke="#666666" points="691.5,-204 622.5,-204 622.5,-185 691.5,-185 691.5,-204"/>
<text text-anchor="middle" x="657" y="-192" font-family="Helvetica,sans-Serif" font-size="10.00">IDNotFound</text>
</a>
</g>
</g>
<!-- Node6&#45;&gt;Node10 -->
<g id="edge11" class="edge">
<title>Node6&#45;&gt;Node10</title>
<path fill="none" stroke="#63b8ff" d="M803.95,-268.7C787.49,-252.04 760.76,-227.66 733,-213.5 720.2,-206.97 704.99,-202.58 691.63,-199.68"/>
<polygon fill="#63b8ff" stroke="#63b8ff" points="801.06,-270.74 810.52,-275.52 806.1,-265.89 801.06,-270.74"/>
</g>
<!-- Node15 -->
<g id="node15" class="node">
<title>Node15</title>
<g id="a_node15"><a xlink:href="TransmitterCode_2src_2main_8cpp.html#ae9f91b9da28f2e1e2fb126961f03c31c" target="_top" xlink:title=" ">
<polygon fill="white" stroke="#666666" points="697.5,-426 616.5,-426 616.5,-407 697.5,-407 697.5,-426"/>
<text text-anchor="middle" x="657" y="-414" font-family="Helvetica,sans-Serif" font-size="10.00">ModelViewEnd</text>
</a>
</g>
</g>
<!-- Node6&#45;&gt;Node15 -->
<g id="edge16" class="edge">
<title>Node6&#45;&gt;Node15</title>
<path fill="none" stroke="#63b8ff" d="M774.02,-302.19C772.24,-303.52 770.55,-304.95 769,-306.5 737.91,-337.51 766.11,-369.66 733,-398.5 723.31,-406.94 710.34,-411.59 697.91,-414.09"/>
<polygon fill="#63b8ff" stroke="#63b8ff" points="775.53,-305.38 782.29,-297.22 771.92,-299.38 775.53,-305.38"/>
</g>
<!-- Node6&#45;&gt;Node16 -->
<g id="edge17" class="edge">
<title>Node6&#45;&gt;Node16</title>
<path fill="none" stroke="#63b8ff" d="M772.6,-302.85C771.31,-303.99 770.11,-305.2 769,-306.5 719.97,-363.9 785.79,-418.53 733,-472.5 725.32,-480.35 714.87,-485.02 704.2,-487.74"/>
<polygon fill="#63b8ff" stroke="#63b8ff" points="774.44,-305.83 780.71,-297.29 770.48,-300.05 774.44,-305.83"/>
</g>
<!-- Node17 -->
<g id="node17" class="node">
<title>Node17</title>
<g id="a_node17"><a xlink:href="TransmitterCode_2src_2main_8cpp.html#a75875d66db3193e4034c3768c175f8ef" target="_top" xlink:title=" ">
<polygon fill="white" stroke="#666666" points="690.5,-167 623.5,-167 623.5,-148 690.5,-148 690.5,-167"/>
<text text-anchor="middle" x="657" y="-155" font-family="Helvetica,sans-Serif" font-size="10.00">ResetClock</text>
</a>
</g>
</g>
<!-- Node6&#45;&gt;Node17 -->
<g id="edge19" class="edge">
<title>Node6&#45;&gt;Node17</title>
<path fill="none" stroke="#63b8ff" d="M810.16,-266.72C796.09,-241.8 768.55,-199.46 733,-176.5 720.48,-168.41 704.71,-163.76 690.87,-161.1"/>
<polygon fill="#63b8ff" stroke="#63b8ff" points="807.08,-268.38 814.93,-275.48 813.22,-265.03 807.08,-268.38"/>
</g>
<!-- Node18 -->
<g id="node18" class="node">
<title>Node18</title>
<g id="a_node18"><a xlink:href="TransmitterCode_2src_2main_8cpp.html#a5c7f22bae35d5d6df9d54fe79dbb8401" target="_top" xlink:title=" ">
<polygon fill="white" stroke="#666666" points="721,-389 593,-389 593,-370 721,-370 721,-389"/>
<text text-anchor="middle" x="657" y="-377" font-family="Helvetica,sans-Serif" font-size="10.00">ResetTransmitterSettings</text>
</a>
</g>
</g>
<!-- Node6&#45;&gt;Node18 -->
<g id="edge20" class="edge">
<title>Node6&#45;&gt;Node18</title>
<path fill="none" stroke="#63b8ff" d="M775.75,-301.77C773.38,-303.22 771.11,-304.79 769,-306.5 746.3,-324.89 756.89,-344.68 733,-361.5 728.4,-364.74 723.29,-367.4 717.97,-369.58"/>
<polygon fill="#63b8ff" stroke="#63b8ff" points="777.3,-304.91 784.56,-297.19 774.07,-298.7 777.3,-304.91"/>
</g>
<!-- Node19 -->
<g id="node19" class="node">
<title>Node19</title>
<g id="a_node19"><a xlink:href="TransmitterCode_2src_2main_8cpp.html#a3838aa0b33bb22d3b9934da05d2716d8" target="_top" xlink:title=" ">
<polygon fill="white" stroke="#666666" points="695,-130 619,-130 619,-111 695,-111 695,-130"/>
<text text-anchor="middle" x="657" y="-118" font-family="Helvetica,sans-Serif" font-size="10.00">StoreModelID</text>
</a>
</g>
</g>
<!-- Node6&#45;&gt;Node19 -->
<g id="edge21" class="edge">
<title>Node6&#45;&gt;Node19</title>
<path fill="none" stroke="#63b8ff" d="M810.96,-266.17C793.47,-229.72 755.96,-155.46 733,-138.5 722.12,-130.46 708.15,-125.97 695.23,-123.47"/>
<polygon fill="#63b8ff" stroke="#63b8ff" points="807.79,-267.65 815.24,-275.19 814.11,-264.65 807.79,-267.65"/>
</g>
<!-- Node20 -->
<g id="node20" class="node">
<title>Node20</title>
<g id="a_node20"><a xlink:href="TransmitterCode_2src_2main_8cpp.html#a3c55ef7c23759a89a86f6519569c4f7a" target="_top" xlink:title=" ">
<polygon fill="white" stroke="#666666" points="706.5,-352 607.5,-352 607.5,-333 706.5,-333 706.5,-352"/>
<text text-anchor="middle" x="657" y="-340" font-family="Helvetica,sans-Serif" font-size="10.00">TXModuleViewEnd</text>
</a>
</g>
</g>
<!-- Node6&#45;&gt;Node20 -->
<g id="edge22" class="edge">
<title>Node6&#45;&gt;Node20</title>
<path fill="none" stroke="#63b8ff" d="M783.21,-300.51C778.4,-302.45 773.56,-304.48 769,-306.5 752.64,-313.75 749.81,-318.37 733,-324.5 724.57,-327.57 715.42,-330.27 706.49,-332.58"/>
<polygon fill="#63b8ff" stroke="#63b8ff" points="784.15,-303.9 792.17,-296.97 781.58,-297.39 784.15,-303.9"/>
</g>
<!-- Node11 -->
<g id="node11" class="node">
<title>Node11</title>
<g id="a_node11"><a xlink:href="ModelMatch_8h.html#af8fe429ceb65bf9d257a2a0f1c63eccb" target="_top" xlink:title=" ">
<polygon fill="white" stroke="#666666" points="532,-197 430,-197 430,-178 532,-178 532,-197"/>
<text text-anchor="middle" x="481" y="-185" font-family="Helvetica,sans-Serif" font-size="10.00">CompareModelsIDs</text>
</a>
</g>
</g>
<!-- Node10&#45;&gt;Node11 -->
<g id="edge12" class="edge">
<title>Node10&#45;&gt;Node11</title>
<path fill="none" stroke="#63b8ff" d="M610.73,-192.68C586.71,-191.71 557.11,-190.52 532.36,-189.53"/>
<polygon fill="#63b8ff" stroke="#63b8ff" points="610.39,-196.17 620.53,-193.07 610.67,-189.17 610.39,-196.17"/>
</g>
<!-- Node12 -->
<g id="node12" class="node">
<title>Node12</title>
<g id="a_node12"><a xlink:href="ModelMatch_8h.html#a494cb4acb30856d1f53f08df1b80c41b" target="_top" xlink:title=" ">
<polygon fill="white" stroke="#666666" points="381,-190 262,-190 262,-171 381,-171 381,-190"/>
<text text-anchor="middle" x="321.5" y="-178" font-family="Helvetica,sans-Serif" font-size="10.00">GetModelsMacAddress</text>
</a>
</g>
</g>
<!-- Node11&#45;&gt;Node12 -->
<g id="edge13" class="edge">
<title>Node11&#45;&gt;Node12</title>
<path fill="none" stroke="#63b8ff" d="M418.29,-184.76C406.14,-184.22 393.41,-183.65 381.35,-183.12"/>
<polygon fill="#63b8ff" stroke="#63b8ff" points="418.08,-188.25 428.22,-185.2 418.39,-181.26 418.08,-188.25"/>
</g>
<!-- Node13 -->
<g id="node13" class="node">
<title>Node13</title>
<g id="a_node13"><a xlink:href="TransmitterCode_2src_2main_8cpp.html#a694f4f5a0147f4dc29b0bc1a8951547d" target="_top" xlink:title=" ">
<polygon fill="white" stroke="#666666" points="226,-157 132,-157 132,-138 226,-138 226,-157"/>
<text text-anchor="middle" x="179" y="-145" font-family="Helvetica,sans-Serif" font-size="10.00">ParseAckPayload</text>
</a>
</g>
</g>
<!-- Node12&#45;&gt;Node13 -->
<g id="edge14" class="edge">
<title>Node12&#45;&gt;Node13</title>
<path fill="none" stroke="#63b8ff" d="M266.94,-167.92C252.19,-164.46 236.41,-160.75 222.39,-157.46"/>
<polygon fill="#63b8ff" stroke="#63b8ff" points="265.96,-171.28 276.49,-170.16 267.56,-164.47 265.96,-171.28"/>
</g>
<!-- Node14 -->
<g id="node14" class="node">
<title>Node14</title>
<g id="a_node14"><a xlink:href="transceiver_8h.html#a1c11bb6771548de7d96723045b922620" target="_top" xlink:title=" ">
<polygon fill="white" stroke="#666666" points="96,-157 0,-157 0,-138 96,-138 96,-157"/>
<text text-anchor="middle" x="48" y="-145" font-family="Helvetica,sans-Serif" font-size="10.00">SuccessfulPacket</text>
</a>
</g>
</g>
<!-- Node13&#45;&gt;Node14 -->
<g id="edge15" class="edge">
<title>Node13&#45;&gt;Node14</title>
<path fill="none" stroke="#63b8ff" d="M120.47,-147.5C112.35,-147.5 104.08,-147.5 96.19,-147.5"/>
<polygon fill="#63b8ff" stroke="#63b8ff" points="120.28,-151 130.28,-147.5 120.28,-144 120.28,-151"/>
</g>
<!-- Node21&#45;&gt;Node22 -->
<g id="edge24" class="edge">
<title>Node21&#45;&gt;Node22</title>
<path fill="none" stroke="#63b8ff" d="M804.35,-84.39C788.02,-67.2 761.22,-41.91 733,-27.5 714.4,-18 690.61,-13.39 674.88,-11.25"/>
<polygon fill="#63b8ff" stroke="#63b8ff" points="801.5,-86.46 810.86,-91.43 806.64,-81.71 801.5,-86.46"/>
</g>
<!-- Node23&#45;&gt;Node7 -->
<g id="edge26" class="edge">
<title>Node23&#45;&gt;Node7</title>
<path fill="none" stroke="#63b8ff" d="M798.85,-174.28C781.81,-186.74 757,-203.28 733,-213.5 721.79,-218.27 709.07,-221.93 697.33,-224.65"/>
<polygon fill="#63b8ff" stroke="#63b8ff" points="800.8,-177.19 806.71,-168.4 796.61,-171.58 800.8,-177.19"/>
</g>
<!-- Node23&#45;&gt;Node10 -->
<g id="edge27" class="edge">
<title>Node23&#45;&gt;Node10</title>
<path fill="none" stroke="#63b8ff" d="M783.97,-165.82C756.41,-172.09 718.88,-180.64 691.97,-186.77"/>
<polygon fill="#63b8ff" stroke="#63b8ff" points="784.66,-169.25 793.63,-163.62 783.11,-162.42 784.66,-169.25"/>
</g>
<!-- Node23&#45;&gt;Node17 -->
<g id="edge28" class="edge">
<title>Node23&#45;&gt;Node17</title>
<path fill="none" stroke="#63b8ff" d="M783.82,-157.5C755.87,-157.5 717.73,-157.5 690.79,-157.5"/>
<polygon fill="#63b8ff" stroke="#63b8ff" points="783.6,-161 793.6,-157.5 783.6,-154 783.6,-161"/>
</g>
<!-- Node23&#45;&gt;Node19 -->
<g id="edge30" class="edge">
<title>Node23&#45;&gt;Node19</title>
<path fill="none" stroke="#63b8ff" d="M784.03,-149.2C757.58,-143.17 721.92,-135.05 695.28,-128.99"/>
<polygon fill="#63b8ff" stroke="#63b8ff" points="783.11,-152.58 793.63,-151.38 784.66,-145.75 783.11,-152.58"/>
</g>
<!-- Node24 -->
<g id="node24" class="node">
<title>Node24</title>
<g id="a_node24"><a xlink:href="ModelExchange_8h.html#ac36bdea2efcd030a336293af16f5dc09" target="_top" xlink:title=" ">
<polygon fill="white" stroke="#666666" points="699.5,-93 614.5,-93 614.5,-74 699.5,-74 699.5,-93"/>
<text text-anchor="middle" x="657" y="-81" font-family="Helvetica,sans-Serif" font-size="10.00">ShowRemoteID</text>
</a>
</g>
</g>
<!-- Node23&#45;&gt;Node24 -->
<g id="edge29" class="edge">
<title>Node23&#45;&gt;Node24</title>
<path fill="none" stroke="#63b8ff" d="M798.85,-140.72C781.81,-128.26 757,-111.72 733,-101.5 722.53,-97.04 710.74,-93.56 699.67,-90.9"/>
<polygon fill="#63b8ff" stroke="#63b8ff" points="796.61,-143.42 806.71,-146.6 800.8,-137.81 796.61,-143.42"/>
</g>
<!-- Node25 -->
<g id="node25" class="node">
<title>Node25</title>
<g id="a_node25"><a xlink:href="TransmitterCode_2src_2main_8cpp.html#a7d321cdde32c31b15ca1080fda6743c8" target="_top" xlink:title=" ">
<polygon fill="white" stroke="#666666" points="733,-56 581,-56 581,-37 733,-37 733,-56"/>
<text text-anchor="middle" x="657" y="-44" font-family="Helvetica,sans-Serif" font-size="10.00">WarnUserOfVersionsMismatch</text>
</a>
</g>
</g>
<!-- Node23&#45;&gt;Node25 -->
<g id="edge31" class="edge">
<title>Node23&#45;&gt;Node25</title>
<path fill="none" stroke="#63b8ff" d="M793.91,-141.25C785.4,-135.33 776.3,-128.19 769,-120.5 748.63,-99.04 757.12,-81.63 733,-64.5 728.41,-61.24 723.31,-58.57 717.99,-56.38"/>
<polygon fill="#63b8ff" stroke="#63b8ff" points="791.95,-144.15 802.22,-146.75 795.82,-138.31 791.95,-144.15"/>
</g>
<!-- Node26 -->
<g id="node26" class="node">
<title>Node26</title>
<g id="a_node26"><a xlink:href="TransmitterCode_2src_2main_8cpp.html#ad496cd10d726d7c5757d01a922c2aa25" target="_top" xlink:title=" ">
<polygon fill="white" stroke="#666666" points="545,-111 417,-111 417,-92 545,-92 545,-111"/>
<text text-anchor="middle" x="481" y="-99" font-family="Helvetica,sans-Serif" font-size="10.00">CompareVersionNumbers</text>
</a>
</g>
</g>
<!-- Node25&#45;&gt;Node26 -->
<g id="edge32" class="edge">
<title>Node25&#45;&gt;Node26</title>
<path fill="none" stroke="#63b8ff" d="M599.85,-59.18C593.47,-60.86 587.07,-62.64 581,-64.5 555.03,-72.44 526,-83.56 506.13,-91.54"/>
<polygon fill="#63b8ff" stroke="#63b8ff" points="600.25,-62.69 609.08,-56.84 598.53,-55.91 600.25,-62.69"/>
</g>
<!-- Node27 -->
<g id="node27" class="node">
<title>Node27</title>
<g id="a_node27"><a xlink:href="TransmitterCode_2src_2main_8cpp.html#a4f813935d8fe58355228cbbf25e12f96" target="_top" xlink:title=" ">
<polygon fill="white" stroke="#666666" points="378,-139 265,-139 265,-120 378,-120 378,-139"/>
<text text-anchor="middle" x="321.5" y="-127" font-family="Helvetica,sans-Serif" font-size="10.00">GetRXVersionNumber</text>
</a>
</g>
</g>
<!-- Node26&#45;&gt;Node27 -->
<g id="edge33" class="edge">
<title>Node26&#45;&gt;Node27</title>
<path fill="none" stroke="#63b8ff" d="M412.7,-113.46C401.23,-115.5 389.43,-117.6 378.29,-119.58"/>
<polygon fill="#63b8ff" stroke="#63b8ff" points="413.3,-116.91 422.54,-111.72 412.08,-110.02 413.3,-116.91"/>
</g>
<!-- Node27&#45;&gt;Node13 -->
<g id="edge34" class="edge">
<title>Node27&#45;&gt;Node13</title>
<path fill="none" stroke="#63b8ff" d="M253.43,-138.09C244.24,-139.27 234.97,-140.46 226.26,-141.57"/>
<polygon fill="#63b8ff" stroke="#63b8ff" points="253.59,-141.6 263.07,-136.86 252.7,-134.66 253.59,-141.6"/>
</g>
</g>
</svg>
