<?xml version="1.0" encoding="UTF-8" standalone="no"?>
<!DOCTYPE svg PUBLIC "-//W3C//DTD SVG 1.1//EN"
 "http://www.w3.org/Graphics/SVG/1.1/DTD/svg11.dtd">
<!-- Generated by graphviz version 7.0.5 (20221223.1930)
 -->
<!-- Title: SaveOneModel Pages: 1 -->
<svg width="1084pt" height="895pt"
 viewBox="0.00 0.00 1084.00 895.00" xmlns="http://www.w3.org/2000/svg" xmlns:xlink="http://www.w3.org/1999/xlink">
<g id="graph0" class="graph" transform="scale(1 1) rotate(0) translate(4 891)">
<title>SaveOneModel</title>
<!-- Node1 -->
<g id="node1" class="node">
<title>Node1</title>
<g id="a_node1"><a xlink:title=" ">
<polygon fill="#999999" stroke="#666666" points="1076,-507 993,-507 993,-488 1076,-488 1076,-507"/>
<text text-anchor="middle" x="1034.5" y="-495" font-family="Helvetica,sans-Serif" font-size="10.00">SaveOneModel</text>
</a>
</g>
</g>
<!-- Node2 -->
<g id="node2" class="node">
<title>Node2</title>
<g id="a_node2"><a xlink:href="TransmitterCode_2src_2main_8cpp.html#ad332e97e29352b9b7bf0ada90b4dcf06" target="_top" xlink:title=" ">
<polygon fill="white" stroke="#666666" points="940.5,-887 846.5,-887 846.5,-868 940.5,-868 940.5,-887"/>
<text text-anchor="middle" x="893.5" y="-875" font-family="Helvetica,sans-Serif" font-size="10.00">BuddyChViewEnd</text>
</a>
</g>
</g>
<!-- Node1&#45;&gt;Node2 -->
<g id="edge1" class="edge">
<title>Node1&#45;&gt;Node2</title>
<path fill="none" stroke="#63b8ff" d="M1031.57,-518.76C1024.93,-587.48 1001.02,-802.06 957,-853.5 951.78,-859.59 944.84,-864.14 937.48,-867.54"/>
<polygon fill="#63b8ff" stroke="#63b8ff" points="1035.05,-519.17 1032.5,-508.89 1028.08,-518.52 1035.05,-519.17"/>
</g>
<!-- Node3 -->
<g id="node3" class="node">
<title>Node3</title>
<g id="a_node3"><a xlink:href="TransmitterCode_2src_2main_8cpp.html#a804fdbdd5eab4c596bbe8a23eecbe4d5" target="_top" xlink:title=" ">
<polygon fill="white" stroke="#666666" points="792.5,-453 691.5,-453 691.5,-434 792.5,-434 792.5,-453"/>
<text text-anchor="middle" x="742" y="-441" font-family="Helvetica,sans-Serif" font-size="10.00">ButtonWasPressed</text>
</a>
</g>
</g>
<!-- Node1&#45;&gt;Node3 -->
<g id="edge2" class="edge">
<title>Node1&#45;&gt;Node3</title>
<path fill="none" stroke="#63b8ff" d="M994.02,-510.65C952.06,-522.43 884.41,-535.09 830,-515.5 795.32,-503.01 764.66,-470.04 750.81,-453.4"/>
<polygon fill="#63b8ff" stroke="#63b8ff" points="994.82,-514.06 1003.43,-507.88 992.85,-507.34 994.82,-514.06"/>
</g>
<!-- Node8 -->
<g id="node8" class="node">
<title>Node8</title>
<g id="a_node8"><a xlink:href="TransmitterCode_2src_2main_8cpp.html#ac45477c637c975e13189e2988c8813b3" target="_top" xlink:title=" ">
<polygon fill="white" stroke="#666666" points="280,-622 200,-622 200,-603 280,-603 280,-622"/>
<text text-anchor="middle" x="240" y="-610" font-family="Helvetica,sans-Serif" font-size="10.00">DeleteModelID</text>
</a>
</g>
</g>
<!-- Node1&#45;&gt;Node8 -->
<g id="edge36" class="edge">
<title>Node1&#45;&gt;Node8</title>
<path fill="none" stroke="#63b8ff" d="M1032.57,-518.53C1029.46,-560.32 1015.91,-653.25 957,-693.5 910.39,-725.34 886.43,-694.71 830,-693.5 767.73,-692.17 751.94,-693.98 690,-687.5 537.51,-671.56 358.29,-636.71 280.42,-620.76"/>
<polygon fill="#63b8ff" stroke="#63b8ff" points="1036.06,-518.8 1033.16,-508.61 1029.08,-518.39 1036.06,-518.8"/>
</g>
<!-- Node13 -->
<g id="node13" class="node">
<title>Node13</title>
<g id="a_node13"><a xlink:href="TransmitterCode_2src_2main_8cpp.html#a5c7f22bae35d5d6df9d54fe79dbb8401" target="_top" xlink:title=" ">
<polygon fill="white" stroke="#666666" points="304,-844 176,-844 176,-825 304,-825 304,-844"/>
<text text-anchor="middle" x="240" y="-832" font-family="Helvetica,sans-Serif" font-size="10.00">ResetTransmitterSettings</text>
</a>
</g>
</g>
<!-- Node1&#45;&gt;Node13 -->
<g id="edge48" class="edge">
<title>Node1&#45;&gt;Node13</title>
<path fill="none" stroke="#63b8ff" d="M1030.91,-518.46C1022.99,-579.27 997.11,-753.86 957,-792.5 886.86,-860.05 840.38,-839.5 743,-839.5 743,-839.5 743,-839.5 580,-839.5 483.91,-839.5 372.52,-837.47 304.41,-835.99"/>
<polygon fill="#63b8ff" stroke="#63b8ff" points="1034.35,-519.16 1032.14,-508.8 1027.41,-518.28 1034.35,-519.16"/>
</g>
<!-- Node14 -->
<g id="node14" class="node">
<title>Node14</title>
<g id="a_node14"><a xlink:href="TransmitterCode_2src_2main_8cpp.html#a3838aa0b33bb22d3b9934da05d2716d8" target="_top" xlink:title=" ">
<polygon fill="white" stroke="#666666" points="278,-733 202,-733 202,-714 278,-714 278,-733"/>
<text text-anchor="middle" x="240" y="-721" font-family="Helvetica,sans-Serif" font-size="10.00">StoreModelID</text>
</a>
</g>
</g>
<!-- Node1&#45;&gt;Node14 -->
<g id="edge72" class="edge">
<title>Node1&#45;&gt;Node14</title>
<path fill="none" stroke="#63b8ff" d="M1032.54,-518.36C1029.38,-561.77 1015.74,-662.09 957,-714.5 884.19,-779.46 840.57,-763.5 743,-763.5 743,-763.5 743,-763.5 580,-763.5 469.77,-763.5 340.76,-742.38 278.45,-730.84"/>
<polygon fill="#63b8ff" stroke="#63b8ff" points="1036.03,-518.76 1033.13,-508.57 1029.04,-518.34 1036.03,-518.76"/>
</g>
<!-- Node15 -->
<g id="node15" class="node">
<title>Node15</title>
<g id="a_node15"><a xlink:href="Trims_8h.html#a4032af894bb09f6ec94abf5bd8a83ff7" target="_top" xlink:title=" ">
<polygon fill="white" stroke="#666666" points="283,-807 197,-807 197,-788 283,-788 283,-807"/>
<text text-anchor="middle" x="240" y="-795" font-family="Helvetica,sans-Serif" font-size="10.00">TrimsToSubtrim</text>
</a>
</g>
</g>
<!-- Node1&#45;&gt;Node15 -->
<g id="edge73" class="edge">
<title>Node1&#45;&gt;Node15</title>
<path fill="none" stroke="#63b8ff" d="M1033.87,-518.7C1033.5,-567.76 1025.35,-689.75 957,-753.5 885.71,-819.98 840.47,-801.5 743,-801.5 743,-801.5 743,-801.5 580,-801.5 473.17,-801.5 347.42,-799.49 283.28,-798.32"/>
<polygon fill="#63b8ff" stroke="#63b8ff" points="1037.37,-518.89 1033.83,-508.91 1030.37,-518.92 1037.37,-518.89"/>
</g>
<!-- Node29 -->
<g id="node24" class="node">
<title>Node29</title>
<g id="a_node24"><a xlink:href="TransmitterCode_2src_2main_8cpp.html#a6ae37c6938b8c10b83d1bc74e8643bd9" target="_top" xlink:title=" ">
<polygon fill="white" stroke="#666666" points="637.5,-358 524.5,-358 524.5,-339 637.5,-339 637.5,-358"/>
<text text-anchor="middle" x="581" y="-346" font-family="Helvetica,sans-Serif" font-size="10.00">CheckPowerOffButton</text>
</a>
</g>
</g>
<!-- Node1&#45;&gt;Node29 -->
<g id="edge32" class="edge">
<title>Node1&#45;&gt;Node29</title>
<path fill="none" stroke="#63b8ff" d="M1030.99,-476.56C1023.41,-417.41 998.73,-251.3 957,-219.5 912.1,-185.29 875.74,-186.43 830,-219.5 788.65,-249.39 833.9,-296.7 794,-328.5 749.62,-363.87 682.24,-364.01 635.4,-358.46"/>
<polygon fill="#63b8ff" stroke="#63b8ff" points="1027.48,-476.76 1032.19,-486.26 1034.43,-475.9 1027.48,-476.76"/>
</g>
<!-- Node208 -->
<g id="node25" class="node">
<title>Node208</title>
<g id="a_node25"><a xlink:href="TransmitterCode_2src_2main_8cpp.html#aba44d61ea51411cb5c601beb94b6fef4" target="_top" xlink:title=" ">
<polygon fill="white" stroke="#666666" points="948.5,-433 838.5,-433 838.5,-414 948.5,-414 948.5,-433"/>
<text text-anchor="middle" x="893.5" y="-421" font-family="Helvetica,sans-Serif" font-size="10.00">DoNewChannelName</text>
</a>
</g>
</g>
<!-- Node1&#45;&gt;Node208 -->
<g id="edge37" class="edge">
<title>Node1&#45;&gt;Node208</title>
<path fill="none" stroke="#63b8ff" d="M1014.21,-480.39C999.44,-468.07 978.09,-451.85 957,-441.5 950.61,-438.37 943.59,-435.68 936.62,-433.42"/>
<polygon fill="#63b8ff" stroke="#63b8ff" points="1011.87,-483 1021.75,-486.84 1016.43,-477.68 1011.87,-483"/>
</g>
<!-- Node59 -->
<g id="node26" class="node">
<title>Node59</title>
<g id="a_node26"><a xlink:href="TransmitterCode_2src_2main_8cpp.html#acaf005c908c2b6706d7ab9579f456ca8" target="_top" xlink:title=" ">
<polygon fill="white" stroke="#666666" points="932.5,-583 854.5,-583 854.5,-564 932.5,-564 932.5,-583"/>
<text text-anchor="middle" x="893.5" y="-571" font-family="Helvetica,sans-Serif" font-size="10.00">DualRatesEnd</text>
</a>
</g>
</g>
<!-- Node1&#45;&gt;Node59 -->
<g id="edge39" class="edge">
<title>Node1&#45;&gt;Node59</title>
<path fill="none" stroke="#63b8ff" d="M1011.91,-514.16C997.03,-525.13 976.5,-539.31 957,-549.5 946.8,-554.83 935.15,-559.63 924.68,-563.51"/>
<polygon fill="#63b8ff" stroke="#63b8ff" points="1013.7,-517.19 1019.6,-508.39 1009.5,-511.59 1013.7,-517.19"/>
</g>
<!-- Node43 -->
<g id="node27" class="node">
<title>Node43</title>
<g id="a_node27"><a xlink:href="TransmitterCode_2src_2main_8cpp.html#a2c41d703abb54fc0d1794f2ca957eb94" target="_top" xlink:title=" ">
<polygon fill="white" stroke="#666666" points="785.5,-678 698.5,-678 698.5,-659 785.5,-659 785.5,-678"/>
<text text-anchor="middle" x="742" y="-666" font-family="Helvetica,sans-Serif" font-size="10.00">EndBankNames</text>
</a>
</g>
</g>
<!-- Node1&#45;&gt;Node43 -->
<g id="edge40" class="edge">
<title>Node1&#45;&gt;Node43</title>
<path fill="none" stroke="#63b8ff" d="M1031.32,-518.22C1026.12,-555.85 1009.23,-634.65 957,-668.5 901.35,-704.57 819.26,-690.34 774.66,-678.42"/>
<polygon fill="#63b8ff" stroke="#63b8ff" points="1034.75,-519.02 1032.49,-508.67 1027.8,-518.17 1034.75,-519.02"/>
</g>
<!-- Node38 -->
<g id="node28" class="node">
<title>Node38</title>
<g id="a_node28"><a xlink:href="TransmitterCode_2src_2main_8cpp.html#a7af8e147bab19bdc499ffef595d30aae" target="_top" xlink:title=" ">
<polygon fill="white" stroke="#666666" points="941,-507 846,-507 846,-488 941,-488 941,-507"/>
<text text-anchor="middle" x="893.5" y="-495" font-family="Helvetica,sans-Serif" font-size="10.00">EndRenameModel</text>
</a>
</g>
</g>
<!-- Node1&#45;&gt;Node38 -->
<g id="edge41" class="edge">
<title>Node1&#45;&gt;Node38</title>
<path fill="none" stroke="#63b8ff" d="M981.22,-497.5C968.01,-497.5 953.92,-497.5 941.01,-497.5"/>
<polygon fill="#63b8ff" stroke="#63b8ff" points="981.03,-501 991.03,-497.5 981.03,-494 981.03,-501"/>
</g>
<!-- Node45 -->
<g id="node29" class="node">
<title>Node45</title>
<g id="a_node29"><a xlink:href="TransmitterCode_2src_2main_8cpp.html#afd3dd964eafc30405e000b03579dd00c" target="_top" xlink:title=" ">
<polygon fill="white" stroke="#666666" points="939,-470 848,-470 848,-451 939,-451 939,-470"/>
<text text-anchor="middle" x="893.5" y="-458" font-family="Helvetica,sans-Serif" font-size="10.00">EndReverseView</text>
</a>
</g>
</g>
<!-- Node1&#45;&gt;Node45 -->
<g id="edge42" class="edge">
<title>Node1&#45;&gt;Node45</title>
<path fill="none" stroke="#63b8ff" d="M985.61,-484.75C968.02,-480.07 948.38,-474.84 931.85,-470.44"/>
<polygon fill="#63b8ff" stroke="#63b8ff" points="984.22,-488.01 994.79,-487.2 986.02,-481.24 984.22,-488.01"/>
</g>
<!-- Node46 -->
<g id="node30" class="node">
<title>Node46</title>
<g id="a_node30"><a xlink:href="TransmitterCode_2src_2main_8cpp.html#a0e7666bd8d250935f34395e0f6dea7bf" target="_top" xlink:title=" ">
<polygon fill="white" stroke="#666666" points="780.5,-631 703.5,-631 703.5,-612 780.5,-612 780.5,-631"/>
<text text-anchor="middle" x="742" y="-619" font-family="Helvetica,sans-Serif" font-size="10.00">EndSlowView</text>
</a>
</g>
</g>
<!-- Node1&#45;&gt;Node46 -->
<g id="edge43" class="edge">
<title>Node1&#45;&gt;Node46</title>
<path fill="none" stroke="#63b8ff" d="M1023.44,-517.16C1011.02,-539.22 987.73,-574.17 957,-591.5 901.61,-622.74 825.75,-625.76 780.81,-624.24"/>
<polygon fill="#63b8ff" stroke="#63b8ff" points="1026.41,-519.03 1028.07,-508.56 1020.24,-515.71 1026.41,-519.03"/>
</g>
<!-- Node122 -->
<g id="node31" class="node">
<title>Node122</title>
<g id="a_node31"><a xlink:href="Trims_8h.html#a40003084a0136ca08cf8ded75ff4aa4d" target="_top" xlink:title=" ">
<polygon fill="white" stroke="#666666" points="939.5,-396 847.5,-396 847.5,-377 939.5,-377 939.5,-396"/>
<text text-anchor="middle" x="893.5" y="-384" font-family="Helvetica,sans-Serif" font-size="10.00">EndSubTrimView</text>
</a>
</g>
</g>
<!-- Node1&#45;&gt;Node122 -->
<g id="edge44" class="edge">
<title>Node1&#45;&gt;Node122</title>
<path fill="none" stroke="#63b8ff" d="M1022.35,-477.86C1009.33,-456.68 985.86,-423.47 957,-404.5 951.81,-401.09 945.97,-398.31 939.99,-396.06"/>
<polygon fill="#63b8ff" stroke="#63b8ff" points="1019.3,-479.58 1027.4,-486.4 1025.32,-476.01 1019.3,-479.58"/>
</g>
<!-- Node47 -->
<g id="node32" class="node">
<title>Node47</title>
<g id="a_node32"><a xlink:href="TransmitterCode_2src_2main_8cpp.html#a488388f6430a0fc7bec57074ba750a2d" target="_top" xlink:title=" ">
<polygon fill="white" stroke="#666666" points="936.5,-359 850.5,-359 850.5,-340 936.5,-340 936.5,-359"/>
<text text-anchor="middle" x="893.5" y="-347" font-family="Helvetica,sans-Serif" font-size="10.00">ExitMacrosView</text>
</a>
</g>
</g>
<!-- Node1&#45;&gt;Node47 -->
<g id="edge45" class="edge">
<title>Node1&#45;&gt;Node47</title>
<path fill="none" stroke="#63b8ff" d="M1026.87,-476.85C1016.56,-448.05 993.94,-396.15 957,-367.5 951.11,-362.93 944.1,-359.52 936.95,-356.98"/>
<polygon fill="#63b8ff" stroke="#63b8ff" points="1023.52,-477.87 1030.05,-486.21 1030.14,-475.61 1023.52,-477.87"/>
</g>
<!-- Node61 -->
<g id="node33" class="node">
<title>Node61</title>
<g id="a_node33"><a xlink:href="TransmitterCode_2src_2main_8cpp.html#a2521ceba7d91302765db4720e3367127" target="_top" xlink:title=" ">
<polygon fill="white" stroke="#666666" points="957,-322 830,-322 830,-303 957,-303 957,-322"/>
<text text-anchor="middle" x="893.5" y="-310" font-family="Helvetica,sans-Serif" font-size="10.00">ReadNewSwitchFunction</text>
</a>
</g>
</g>
<!-- Node1&#45;&gt;Node61 -->
<g id="edge46" class="edge">
<title>Node1&#45;&gt;Node61</title>
<path fill="none" stroke="#63b8ff" d="M1029.78,-476.65C1022.38,-441.29 1002.42,-369.6 957,-330.5 953.23,-327.26 948.92,-324.6 944.35,-322.42"/>
<polygon fill="#63b8ff" stroke="#63b8ff" points="1026.34,-477.27 1031.68,-486.42 1033.21,-475.93 1026.34,-477.27"/>
</g>
<!-- Node39 -->
<g id="node34" class="node">
<title>Node39</title>
<g id="a_node34"><a xlink:href="TransmitterCode_2src_2main_8cpp.html#a2e0aa19fa93c1bacd9b4600025f33594" target="_top" xlink:title=" ">
<polygon fill="white" stroke="#666666" points="932,-285 855,-285 855,-266 932,-266 932,-285"/>
<text text-anchor="middle" x="893.5" y="-273" font-family="Helvetica,sans-Serif" font-size="10.00">RXSetup1End</text>
</a>
</g>
</g>
<!-- Node1&#45;&gt;Node39 -->
<g id="edge49" class="edge">
<title>Node1&#45;&gt;Node39</title>
<path fill="none" stroke="#63b8ff" d="M1031.72,-476.44C1027.1,-435.18 1011,-343.42 957,-293.5 950.2,-287.21 941.35,-283.11 932.45,-280.43"/>
<polygon fill="#63b8ff" stroke="#63b8ff" points="1028.22,-476.61 1032.69,-486.22 1035.19,-475.93 1028.22,-476.61"/>
</g>
<!-- Node88 -->
<g id="node35" class="node">
<title>Node88</title>
<g id="a_node35"><a xlink:href="SDcard_8h.html#a92c5dada5e5ef70261391557464f2d19" target="_top" xlink:title=" ">
<polygon fill="white" stroke="#666666" points="944,-172 843,-172 843,-153 944,-153 944,-172"/>
<text text-anchor="middle" x="893.5" y="-160" font-family="Helvetica,sans-Serif" font-size="10.00">SaveAllParameters</text>
</a>
</g>
</g>
<!-- Node1&#45;&gt;Node88 -->
<g id="edge50" class="edge">
<title>Node1&#45;&gt;Node88</title>
<path fill="none" stroke="#63b8ff" d="M1030.89,-476.51C1022.72,-413.99 995.88,-230.59 957,-186.5 951.62,-180.4 944.51,-175.84 937.01,-172.43"/>
<polygon fill="#63b8ff" stroke="#63b8ff" points="1027.38,-476.65 1032.11,-486.13 1034.32,-475.77 1027.38,-476.65"/>
</g>
<!-- Node63 -->
<g id="node48" class="node">
<title>Node63</title>
<g id="a_node48"><a xlink:href="TransmitterCode_2src_2main_8cpp.html#a1a700b085b2f15c2ce4589f1be3ed492" target="_top" xlink:title=" ">
<polygon fill="white" stroke="#666666" points="938,-659 849,-659 849,-640 938,-640 938,-659"/>
<text text-anchor="middle" x="893.5" y="-647" font-family="Helvetica,sans-Serif" font-size="10.00">StartModelSetup</text>
</a>
</g>
</g>
<!-- Node1&#45;&gt;Node63 -->
<g id="edge69" class="edge">
<title>Node1&#45;&gt;Node63</title>
<path fill="none" stroke="#63b8ff" d="M1026.27,-517.82C1015.38,-545.75 992.19,-595.9 957,-625.5 949.88,-631.49 941.11,-636.07 932.41,-639.55"/>
<polygon fill="#63b8ff" stroke="#63b8ff" points="1029.44,-519.35 1029.66,-508.75 1022.88,-516.9 1029.44,-519.35"/>
</g>
<!-- Node203 -->
<g id="node49" class="node">
<title>Node203</title>
<g id="a_node49"><a xlink:href="TransmitterCode_2src_2main_8cpp.html#a587550ef1abb518e4562576aa2b7bbd7" target="_top" xlink:title=" ">
<polygon fill="white" stroke="#666666" points="929.5,-248 857.5,-248 857.5,-229 929.5,-229 929.5,-248"/>
<text text-anchor="middle" x="893.5" y="-236" font-family="Helvetica,sans-Serif" font-size="10.00">WriteBackup</text>
</a>
</g>
</g>
<!-- Node1&#45;&gt;Node203 -->
<g id="edge74" class="edge">
<title>Node1&#45;&gt;Node203</title>
<path fill="none" stroke="#63b8ff" d="M1033.13,-476.23C1031.13,-429.56 1019.68,-317.51 957,-256.5 949.64,-249.33 939.61,-244.99 929.75,-242.36"/>
<polygon fill="#63b8ff" stroke="#63b8ff" points="1029.63,-476.16 1033.43,-486.05 1036.62,-475.94 1029.63,-476.16"/>
</g>
<!-- Node66 -->
<g id="node50" class="node">
<title>Node66</title>
<g id="a_node50"><a xlink:href="TransmitterCode_2src_2main_8cpp.html#ac80d36db695cecb74d129643387feefd" target="_top" xlink:title=" ">
<polygon fill="white" stroke="#666666" points="936,-135 851,-135 851,-116 936,-116 936,-135"/>
<text text-anchor="middle" x="893.5" y="-123" font-family="Helvetica,sans-Serif" font-size="10.00">WriteNewCurve</text>
</a>
</g>
</g>
<!-- Node1&#45;&gt;Node66 -->
<g id="edge77" class="edge">
<title>Node1&#45;&gt;Node66</title>
<path fill="none" stroke="#63b8ff" d="M1031.72,-476.2C1025.57,-407.39 1002.98,-192.7 957,-143.5 951.45,-137.56 944.08,-133.54 936.35,-130.82"/>
<polygon fill="#63b8ff" stroke="#63b8ff" points="1028.23,-476.43 1032.58,-486.09 1035.21,-475.83 1028.23,-476.43"/>
</g>
<!-- Node4 -->
<g id="node4" class="node">
<title>Node4</title>
<g id="a_node4"><a xlink:href="Utilities_8h.html#afb7c85cac4aa89fd998ed81c330374d2" target="_top" xlink:title=" ">
<polygon fill="white" stroke="#666666" points="654,-472 508,-472 508,-453 654,-453 654,-472"/>
<text text-anchor="middle" x="581" y="-460" font-family="Helvetica,sans-Serif" font-size="10.00">CheckForNextionButtonPress</text>
</a>
</g>
</g>
<!-- Node3&#45;&gt;Node4 -->
<g id="edge3" class="edge">
<title>Node3&#45;&gt;Node4</title>
<path fill="none" stroke="#63b8ff" d="M679.95,-450.8C671.59,-451.79 662.94,-452.83 654.4,-453.85"/>
<polygon fill="#63b8ff" stroke="#63b8ff" points="680.11,-454.3 689.62,-449.64 679.28,-447.35 680.11,-454.3"/>
</g>
<!-- Node11 -->
<g id="node11" class="node">
<title>Node11</title>
<g id="a_node11"><a xlink:href="ModelExchange_8h.html#ab7c9edf843c732d7fe296564f39bc0dc" target="_top" xlink:title="RECEIVE A MODEL FILE.">
<polygon fill="white" stroke="#666666" points="287,-510 193,-510 193,-491 287,-491 287,-510"/>
<text text-anchor="middle" x="240" y="-498" font-family="Helvetica,sans-Serif" font-size="10.00">ReceiveModelFile</text>
</a>
</g>
</g>
<!-- Node3&#45;&gt;Node11 -->
<g id="edge31" class="edge">
<title>Node3&#45;&gt;Node11</title>
<path fill="none" stroke="#63b8ff" d="M712.85,-458.49C696.22,-466.56 674.47,-475.81 654,-480.5 523.68,-510.36 364.38,-507.36 287.25,-503.51"/>
<polygon fill="#63b8ff" stroke="#63b8ff" points="714.25,-461.7 721.62,-454.09 711.11,-455.44 714.25,-461.7"/>
</g>
<!-- Node5 -->
<g id="node5" class="node">
<title>Node5</title>
<g id="a_node5"><a xlink:href="TransmitterCode_2src_2main_8cpp.html#a641d6dab68ec7b2a8a32492aac55bc1c" target="_top" xlink:title=" ">
<polygon fill="white" stroke="#666666" points="464.5,-434 359.5,-434 359.5,-415 464.5,-415 464.5,-434"/>
<text text-anchor="middle" x="412" y="-422" font-family="Helvetica,sans-Serif" font-size="10.00">GetBackupFilename</text>
</a>
</g>
</g>
<!-- Node4&#45;&gt;Node5 -->
<g id="edge4" class="edge">
<title>Node4&#45;&gt;Node5</title>
<path fill="none" stroke="#63b8ff" d="M525.19,-450.03C503.02,-444.98 477.79,-439.24 456.87,-434.48"/>
<polygon fill="#63b8ff" stroke="#63b8ff" points="524.12,-453.37 534.65,-452.18 525.67,-446.55 524.12,-453.37"/>
</g>
<!-- Node7 -->
<g id="node7" class="node">
<title>Node7</title>
<g id="a_node7"><a xlink:href="TransmitterCode_2src_2main_8cpp.html#a6506bf72e0dd9e9ce480156b47625bff" target="_top" xlink:title=" ">
<polygon fill="white" stroke="#666666" points="455,-548 369,-548 369,-529 455,-529 455,-548"/>
<text text-anchor="middle" x="412" y="-536" font-family="Helvetica,sans-Serif" font-size="10.00">GetConfirmation</text>
</a>
</g>
</g>
<!-- Node4&#45;&gt;Node7 -->
<g id="edge7" class="edge">
<title>Node4&#45;&gt;Node7</title>
<path fill="none" stroke="#63b8ff" d="M548.06,-477.04C514.84,-492.15 463.72,-515.42 434.84,-528.56"/>
<polygon fill="#63b8ff" stroke="#63b8ff" points="549.14,-480.39 556.79,-473.06 546.24,-474.02 549.14,-480.39"/>
</g>
<!-- Node17 -->
<g id="node17" class="node">
<title>Node17</title>
<g id="a_node17"><a xlink:href="TransmitterCode_2src_2main_8cpp.html#a558ea014e230b7caa54ce5a37ad29b22" target="_top" xlink:title=" ">
<polygon fill="white" stroke="#666666" points="462.5,-358 361.5,-358 361.5,-339 462.5,-339 462.5,-358"/>
<text text-anchor="middle" x="412" y="-346" font-family="Helvetica,sans-Serif" font-size="10.00">ManageTransmitter</text>
</a>
</g>
</g>
<!-- Node4&#45;&gt;Node17 -->
<g id="edge19" class="edge">
<title>Node4&#45;&gt;Node17</title>
<path fill="none" stroke="#63b8ff" d="M555.98,-446.1C520.83,-422.11 456.43,-378.15 427.61,-358.48"/>
<polygon fill="#63b8ff" stroke="#63b8ff" points="553.99,-448.98 564.22,-451.73 557.94,-443.2 553.99,-448.98"/>
</g>
<!-- Node19 -->
<g id="node19" class="node">
<title>Node19</title>
<g id="a_node19"><a xlink:href="TransmitterCode_2src_2main_8cpp.html#a6f5b0f1e4ca75768c16c4dd93f92a8de" target="_top" xlink:title=" ">
<polygon fill="white" stroke="#666666" points="438,-733 386,-733 386,-714 438,-714 438,-733"/>
<text text-anchor="middle" x="412" y="-721" font-family="Helvetica,sans-Serif" font-size="10.00">MsgBox</text>
</a>
</g>
</g>
<!-- Node4&#45;&gt;Node19 -->
<g id="edge21" class="edge">
<title>Node4&#45;&gt;Node19</title>
<path fill="none" stroke="#63b8ff" d="M567.65,-481.8C534.45,-533.7 444.11,-674.88 419.35,-713.58"/>
<polygon fill="#63b8ff" stroke="#63b8ff" points="570.4,-484 572.84,-473.69 564.5,-480.22 570.4,-484"/>
</g>
<!-- Node5&#45;&gt;Node3 -->
<g id="edge5" class="edge">
<title>Node5&#45;&gt;Node3</title>
<path fill="none" stroke="#63b8ff" d="M476.23,-428.16C538.91,-431.79 633.65,-437.28 691.18,-440.61"/>
<polygon fill="#63b8ff" stroke="#63b8ff" points="476.61,-424.68 466.42,-427.59 476.21,-431.67 476.61,-424.68"/>
</g>
<!-- Node6 -->
<g id="node6" class="node">
<title>Node6</title>
<g id="a_node6"><a xlink:href="TransmitterCode_2src_2main_8cpp.html#a9d94366336f1e5fd43edb9c24bec5821" target="_top" xlink:title=" ">
<polygon fill="white" stroke="#666666" points="274,-415 206,-415 206,-396 274,-396 274,-415"/>
<text text-anchor="middle" x="240" y="-403" font-family="Helvetica,sans-Serif" font-size="10.00">RenameFile</text>
</a>
</g>
</g>
<!-- Node5&#45;&gt;Node6 -->
<g id="edge6" class="edge">
<title>Node5&#45;&gt;Node6</title>
<path fill="none" stroke="#63b8ff" d="M347.84,-417.44C322.92,-414.66 295.31,-411.57 274.4,-409.23"/>
<polygon fill="#63b8ff" stroke="#63b8ff" points="347.24,-420.9 357.57,-418.53 348.02,-413.94 347.24,-420.9"/>
</g>
<!-- Node7&#45;&gt;Node3 -->
<g id="edge8" class="edge">
<title>Node7&#45;&gt;Node3</title>
<path fill="none" stroke="#63b8ff" d="M466.53,-541.84C516.83,-543 593.25,-539.6 654,-514.5 687.51,-500.65 718.25,-469.45 732.56,-453.42"/>
<polygon fill="#63b8ff" stroke="#63b8ff" points="466.89,-538.34 456.78,-541.54 466.67,-545.34 466.89,-538.34"/>
</g>
<!-- Node7&#45;&gt;Node6 -->
<g id="edge13" class="edge">
<title>Node7&#45;&gt;Node6</title>
<path fill="none" stroke="#63b8ff" d="M389.48,-521.66C353.49,-493.5 282.22,-437.75 253.46,-415.25"/>
<polygon fill="#63b8ff" stroke="#63b8ff" points="387,-524.17 397.03,-527.57 391.31,-518.65 387,-524.17"/>
</g>
<!-- Node7&#45;&gt;Node8 -->
<g id="edge9" class="edge">
<title>Node7&#45;&gt;Node8</title>
<path fill="none" stroke="#63b8ff" d="M386.99,-554.45C368.28,-566.29 341.33,-582.13 316,-592.5 304.65,-597.15 291.89,-601.02 280.16,-604.08"/>
<polygon fill="#63b8ff" stroke="#63b8ff" points="388.68,-557.52 395.19,-549.16 384.89,-551.64 388.68,-557.52"/>
</g>
<!-- Node9 -->
<g id="node9" class="node">
<title>Node9</title>
<g id="a_node9"><a xlink:href="LogFiles_8h.html#a53d438145d004c3b053f245f494f4284" target="_top" xlink:title=" ">
<polygon fill="white" stroke="#666666" points="266,-547 214,-547 214,-528 266,-528 266,-547"/>
<text text-anchor="middle" x="240" y="-535" font-family="Helvetica,sans-Serif" font-size="10.00">DelLOG</text>
</a>
</g>
</g>
<!-- Node7&#45;&gt;Node9 -->
<g id="edge10" class="edge">
<title>Node7&#45;&gt;Node9</title>
<path fill="none" stroke="#63b8ff" d="M357.19,-538.18C326.69,-538 289.96,-537.79 266.08,-537.65"/>
<polygon fill="#63b8ff" stroke="#63b8ff" points="357.01,-541.68 367.03,-538.24 357.05,-534.68 357.01,-541.68"/>
</g>
<!-- Node10 -->
<g id="node10" class="node">
<title>Node10</title>
<g id="a_node10"><a xlink:href="TransmitterCode_2src_2main_8cpp.html#ae9f91b9da28f2e1e2fb126961f03c31c" target="_top" xlink:title=" ">
<polygon fill="white" stroke="#666666" points="280.5,-263 199.5,-263 199.5,-244 280.5,-244 280.5,-263"/>
<text text-anchor="middle" x="240" y="-251" font-family="Helvetica,sans-Serif" font-size="10.00">ModelViewEnd</text>
</a>
</g>
</g>
<!-- Node7&#45;&gt;Node10 -->
<g id="edge11" class="edge">
<title>Node7&#45;&gt;Node10</title>
<path fill="none" stroke="#63b8ff" d="M398.85,-518.98C386.84,-499.63 367.99,-469.12 352,-442.5 311.04,-374.33 262.98,-291.5 246.71,-263.38"/>
<polygon fill="#63b8ff" stroke="#63b8ff" points="395.85,-520.8 404.11,-527.44 401.8,-517.1 395.85,-520.8"/>
</g>
<!-- Node7&#45;&gt;Node11 -->
<g id="edge12" class="edge">
<title>Node7&#45;&gt;Node11</title>
<path fill="none" stroke="#63b8ff" d="M357.51,-526.54C334.38,-521.37 307.62,-515.39 285.59,-510.47"/>
<polygon fill="#63b8ff" stroke="#63b8ff" points="356.54,-529.91 367.06,-528.68 358.07,-523.08 356.54,-529.91"/>
</g>
<!-- Node12 -->
<g id="node12" class="node">
<title>Node12</title>
<g id="a_node12"><a xlink:href="TransmitterCode_2src_2main_8cpp.html#a75875d66db3193e4034c3768c175f8ef" target="_top" xlink:title=" ">
<polygon fill="white" stroke="#666666" points="273.5,-659 206.5,-659 206.5,-640 273.5,-640 273.5,-659"/>
<text text-anchor="middle" x="240" y="-647" font-family="Helvetica,sans-Serif" font-size="10.00">ResetClock</text>
</a>
</g>
</g>
<!-- Node7&#45;&gt;Node12 -->
<g id="edge14" class="edge">
<title>Node7&#45;&gt;Node12</title>
<path fill="none" stroke="#63b8ff" d="M396.91,-557.46C380.05,-578.76 349.83,-612.79 316,-631.5 303.11,-638.63 287.45,-642.95 273.78,-645.57"/>
<polygon fill="#63b8ff" stroke="#63b8ff" points="399.63,-559.67 402.95,-549.61 394.08,-555.4 399.63,-559.67"/>
</g>
<!-- Node7&#45;&gt;Node13 -->
<g id="edge15" class="edge">
<title>Node7&#45;&gt;Node13</title>
<path fill="none" stroke="#63b8ff" d="M403.53,-559.08C392.17,-590.55 369.94,-652.54 352,-705.5 335.36,-754.62 354.08,-781.29 316,-816.5 312.56,-819.68 308.66,-822.33 304.48,-824.53"/>
<polygon fill="#63b8ff" stroke="#63b8ff" points="406.83,-560.27 406.94,-549.68 400.24,-557.89 406.83,-560.27"/>
</g>
<!-- Node7&#45;&gt;Node14 -->
<g id="edge16" class="edge">
<title>Node7&#45;&gt;Node14</title>
<path fill="none" stroke="#63b8ff" d="M405.2,-559.19C394.08,-594.84 366.33,-667.67 316,-705.5 305.19,-713.63 291.23,-718.14 278.3,-720.63"/>
<polygon fill="#63b8ff" stroke="#63b8ff" points="408.52,-560.28 408.01,-549.7 401.81,-558.29 408.52,-560.28"/>
</g>
<!-- Node7&#45;&gt;Node15 -->
<g id="edge17" class="edge">
<title>Node7&#45;&gt;Node15</title>
<path fill="none" stroke="#63b8ff" d="M404.15,-558.95C385.44,-614.33 333.67,-764.14 316,-779.5 306.9,-787.41 294.93,-791.98 283.23,-794.58"/>
<polygon fill="#63b8ff" stroke="#63b8ff" points="407.36,-560.4 407.23,-549.8 400.72,-558.17 407.36,-560.4"/>
</g>
<!-- Node16 -->
<g id="node16" class="node">
<title>Node16</title>
<g id="a_node16"><a xlink:href="TransmitterCode_2src_2main_8cpp.html#a3c55ef7c23759a89a86f6519569c4f7a" target="_top" xlink:title=" ">
<polygon fill="white" stroke="#666666" points="289.5,-584 190.5,-584 190.5,-565 289.5,-565 289.5,-584"/>
<text text-anchor="middle" x="240" y="-572" font-family="Helvetica,sans-Serif" font-size="10.00">TXModuleViewEnd</text>
</a>
</g>
</g>
<!-- Node7&#45;&gt;Node16 -->
<g id="edge18" class="edge">
<title>Node7&#45;&gt;Node16</title>
<path fill="none" stroke="#63b8ff" d="M357.56,-549.82C335.26,-554.54 309.57,-559.98 288,-564.55"/>
<polygon fill="#63b8ff" stroke="#63b8ff" points="358,-553.3 367.06,-547.81 356.55,-546.45 358,-553.3"/>
</g>
<!-- Node18 -->
<g id="node18" class="node">
<title>Node18</title>
<g id="a_node18"><a xlink:href="TransmitterCode_2src_2main_8cpp.html#ad3cb30894c94eb016e98bdcaa899ac86" target="_top" xlink:title=" ">
<polygon fill="white" stroke="#666666" points="257.5,-169 222.5,-169 222.5,-150 257.5,-150 257.5,-169"/>
<text text-anchor="middle" x="240" y="-157" font-family="Helvetica,sans-Serif" font-size="10.00">loop</text>
</a>
</g>
</g>
<!-- Node17&#45;&gt;Node18 -->
<g id="edge20" class="edge">
<title>Node17&#45;&gt;Node18</title>
<path fill="none" stroke="#63b8ff" d="M396.28,-329.79C378.01,-306.84 345.66,-266.98 316,-234.5 293.9,-210.3 266.27,-183.49 251.49,-169.4"/>
<polygon fill="#63b8ff" stroke="#63b8ff" points="393.51,-331.94 402.46,-337.61 399,-327.59 393.51,-331.94"/>
</g>
<!-- Node19&#45;&gt;Node3 -->
<g id="edge22" class="edge">
<title>Node19&#45;&gt;Node3</title>
<path fill="none" stroke="#63b8ff" d="M437.79,-707.39C482.97,-677.49 580.8,-610.28 654,-542.5 686.23,-512.65 719.05,-471.89 733.45,-453.37"/>
<polygon fill="#63b8ff" stroke="#63b8ff" points="435.92,-704.43 429.49,-712.85 439.77,-710.27 435.92,-704.43"/>
</g>
<!-- Node19&#45;&gt;Node8 -->
<g id="edge23" class="edge">
<title>Node19&#45;&gt;Node8</title>
<path fill="none" stroke="#63b8ff" d="M374.98,-713.47C366.78,-710 358.56,-705.43 352,-699.5 326.63,-676.57 342.89,-652.63 316,-631.5 305.86,-623.53 292.78,-618.87 280.39,-616.15"/>
<polygon fill="#63b8ff" stroke="#63b8ff" points="373.6,-716.69 384.19,-716.91 376.04,-710.14 373.6,-716.69"/>
</g>
<!-- Node19&#45;&gt;Node12 -->
<g id="edge24" class="edge">
<title>Node19&#45;&gt;Node12</title>
<path fill="none" stroke="#63b8ff" d="M375.24,-711.13C367.35,-707.81 359.2,-703.9 352,-699.5 333.98,-688.49 334.73,-678.24 316,-668.5 303.01,-661.75 287.49,-657.3 273.94,-654.42"/>
<polygon fill="#63b8ff" stroke="#63b8ff" points="373.74,-714.3 384.33,-714.73 376.32,-707.79 373.74,-714.3"/>
</g>
<!-- Node19&#45;&gt;Node14 -->
<g id="edge26" class="edge">
<title>Node19&#45;&gt;Node14</title>
<path fill="none" stroke="#63b8ff" d="M374.11,-723.5C345.75,-723.5 306.74,-723.5 278.29,-723.5"/>
<polygon fill="#63b8ff" stroke="#63b8ff" points="374.04,-727 384.04,-723.5 374.04,-720 374.04,-727"/>
</g>
<!-- Node19&#45;&gt;Node15 -->
<g id="edge27" class="edge">
<title>Node19&#45;&gt;Node15</title>
<path fill="none" stroke="#63b8ff" d="M387.8,-739.84C369.16,-752.29 341.91,-769.03 316,-779.5 305.7,-783.66 294.19,-787.02 283.34,-789.66"/>
<polygon fill="#63b8ff" stroke="#63b8ff" points="389.66,-742.81 395.95,-734.28 385.72,-737.02 389.66,-742.81"/>
</g>
<!-- Node20 -->
<g id="node20" class="node">
<title>Node20</title>
<g id="a_node20"><a xlink:href="ModelExchange_8h.html#ac36bdea2efcd030a336293af16f5dc09" target="_top" xlink:title=" ">
<polygon fill="white" stroke="#666666" points="282.5,-770 197.5,-770 197.5,-751 282.5,-751 282.5,-770"/>
<text text-anchor="middle" x="240" y="-758" font-family="Helvetica,sans-Serif" font-size="10.00">ShowRemoteID</text>
</a>
</g>
</g>
<!-- Node19&#45;&gt;Node20 -->
<g id="edge25" class="edge">
<title>Node19&#45;&gt;Node20</title>
<path fill="none" stroke="#63b8ff" d="M374.3,-731.49C347.4,-737.34 310.85,-745.3 282.82,-751.4"/>
<polygon fill="#63b8ff" stroke="#63b8ff" points="375.04,-734.91 384.07,-729.36 373.55,-728.07 375.04,-734.91"/>
</g>
<!-- Node21 -->
<g id="node21" class="node">
<title>Node21</title>
<g id="a_node21"><a xlink:href="TransmitterCode_2src_2main_8cpp.html#a6a61a2c5b0349843efa66a58c0b956be" target="_top" xlink:title=" ">
<polygon fill="white" stroke="#666666" points="292,-696 188,-696 188,-677 292,-677 292,-696"/>
<text text-anchor="middle" x="240" y="-684" font-family="Helvetica,sans-Serif" font-size="10.00">TXModuleViewStart</text>
</a>
</g>
</g>
<!-- Node19&#45;&gt;Node21 -->
<g id="edge28" class="edge">
<title>Node19&#45;&gt;Node21</title>
<path fill="none" stroke="#63b8ff" d="M374.44,-715.54C348.8,-709.96 314.31,-702.46 286.83,-696.47"/>
<polygon fill="#63b8ff" stroke="#63b8ff" points="373.55,-718.93 384.07,-717.64 375.04,-712.09 373.55,-718.93"/>
</g>
<!-- Node22 -->
<g id="node22" class="node">
<title>Node22</title>
<g id="a_node22"><a xlink:href="TransmitterCode_2src_2main_8cpp.html#a7d321cdde32c31b15ca1080fda6743c8" target="_top" xlink:title=" ">
<polygon fill="white" stroke="#666666" points="316,-881 164,-881 164,-862 316,-862 316,-881"/>
<text text-anchor="middle" x="240" y="-869" font-family="Helvetica,sans-Serif" font-size="10.00">WarnUserOfVersionsMismatch</text>
</a>
</g>
</g>
<!-- Node19&#45;&gt;Node22 -->
<g id="edge29" class="edge">
<title>Node19&#45;&gt;Node22</title>
<path fill="none" stroke="#63b8ff" d="M401.95,-743.65C387.86,-772.61 357.9,-825.59 316,-853.5 311.1,-856.77 305.66,-859.44 300.03,-861.63"/>
<polygon fill="#63b8ff" stroke="#63b8ff" points="404.99,-745.41 406.07,-734.87 398.65,-742.44 404.99,-745.41"/>
</g>
<!-- Node23 -->
<g id="node23" class="node">
<title>Node23</title>
<g id="a_node23"><a xlink:href="TransmitterCode_2src_2main_8cpp.html#ad496cd10d726d7c5757d01a922c2aa25" target="_top" xlink:title=" ">
<polygon fill="#fff0f0" stroke="red" points="128,-881 0,-881 0,-862 128,-862 128,-881"/>
<text text-anchor="middle" x="64" y="-869" font-family="Helvetica,sans-Serif" font-size="10.00">CompareVersionNumbers</text>
</a>
</g>
</g>
<!-- Node22&#45;&gt;Node23 -->
<g id="edge30" class="edge">
<title>Node22&#45;&gt;Node23</title>
<path fill="none" stroke="#63b8ff" d="M152.34,-871.5C144.28,-871.5 136.22,-871.5 128.43,-871.5"/>
<polygon fill="#63b8ff" stroke="#63b8ff" points="152.18,-875 162.18,-871.5 152.18,-868 152.18,-875"/>
</g>
<!-- Node29&#45;&gt;Node5 -->
<g id="edge33" class="edge">
<title>Node29&#45;&gt;Node5</title>
<path fill="none" stroke="#63b8ff" d="M548.06,-363.04C514.84,-378.15 463.72,-401.42 434.84,-414.56"/>
<polygon fill="#63b8ff" stroke="#63b8ff" points="549.14,-366.39 556.79,-359.06 546.24,-360.02 549.14,-366.39"/>
</g>
<!-- Node29&#45;&gt;Node7 -->
<g id="edge34" class="edge">
<title>Node29&#45;&gt;Node7</title>
<path fill="none" stroke="#63b8ff" d="M563.84,-366.89C529.09,-406.42 448.26,-498.39 421.66,-528.65"/>
<polygon fill="#63b8ff" stroke="#63b8ff" points="566.28,-369.41 570.26,-359.58 561.03,-364.78 566.28,-369.41"/>
</g>
<!-- Node29&#45;&gt;Node17 -->
<g id="edge35" class="edge">
<title>Node29&#45;&gt;Node17</title>
<path fill="none" stroke="#63b8ff" d="M512.97,-348.5C496.2,-348.5 478.51,-348.5 462.75,-348.5"/>
<polygon fill="#63b8ff" stroke="#63b8ff" points="512.88,-352 522.88,-348.5 512.88,-345 512.88,-352"/>
</g>
<!-- Node208&#45;&gt;Node3 -->
<g id="edge38" class="edge">
<title>Node208&#45;&gt;Node3</title>
<path fill="none" stroke="#63b8ff" d="M826.78,-432.29C815.32,-433.82 803.58,-435.4 792.64,-436.86"/>
<polygon fill="#63b8ff" stroke="#63b8ff" points="827.16,-435.77 836.6,-430.98 826.23,-428.83 827.16,-435.77"/>
</g>
<!-- Node61&#45;&gt;Node3 -->
<g id="edge47" class="edge">
<title>Node61&#45;&gt;Node3</title>
<path fill="none" stroke="#63b8ff" d="M833.44,-327.91C832.25,-328.73 831.1,-329.59 830,-330.5 802.98,-352.72 815.8,-373.14 794,-400.5 783.61,-413.54 768.77,-425.52 757.78,-433.5"/>
<polygon fill="#63b8ff" stroke="#63b8ff" points="834.81,-331.16 841.8,-323.19 831.37,-325.06 834.81,-331.16"/>
</g>
<!-- Node88&#45;&gt;Node3 -->
<g id="edge51" class="edge">
<title>Node88&#45;&gt;Node3</title>
<path fill="none" stroke="#63b8ff" d="M868.9,-179.18C855.84,-189.49 840.22,-203.73 830,-219.5 802.25,-262.31 812.36,-280.9 794,-328.5 778.67,-368.23 757.1,-414.16 747.7,-433.79"/>
<polygon fill="#63b8ff" stroke="#63b8ff" points="870.78,-182.15 876.64,-173.32 866.56,-176.57 870.78,-182.15"/>
</g>
<!-- Node88&#45;&gt;Node10 -->
<g id="edge61" class="edge">
<title>Node88&#45;&gt;Node10</title>
<path fill="none" stroke="#63b8ff" d="M831.66,-165.98C791.41,-168.54 737.48,-172.45 690,-177.5 539.18,-193.55 500.74,-194.84 352,-224.5 325.83,-229.72 296.64,-237.42 274.77,-243.58"/>
<polygon fill="#63b8ff" stroke="#63b8ff" points="831.63,-169.49 841.39,-165.38 831.19,-162.51 831.63,-169.49"/>
</g>
<!-- Node88&#45;&gt;Node11 -->
<g id="edge63" class="edge">
<title>Node88&#45;&gt;Node11</title>
<path fill="none" stroke="#63b8ff" d="M851.76,-177.06C844.11,-180.79 836.49,-185.26 830,-190.5 808.97,-207.47 816.77,-224.94 794,-239.5 625.11,-347.52 504.95,-199.9 352,-329.5 317.87,-358.42 340.1,-385.81 316,-423.5 298.4,-451.01 269.82,-476.89 253.49,-490.51"/>
<polygon fill="#63b8ff" stroke="#63b8ff" points="853.02,-180.33 860.72,-173.05 850.16,-173.94 853.02,-180.33"/>
</g>
<!-- Node30 -->
<g id="node36" class="node">
<title>Node30</title>
<g id="a_node36"><a xlink:href="ModelMatch_8h.html#af8fe429ceb65bf9d257a2a0f1c63eccb" target="_top" xlink:title=" ">
<polygon fill="white" stroke="#666666" points="793,-19 691,-19 691,0 793,0 793,-19"/>
<text text-anchor="middle" x="742" y="-7" font-family="Helvetica,sans-Serif" font-size="10.00">CompareModelsIDs</text>
</a>
</g>
</g>
<!-- Node88&#45;&gt;Node30 -->
<g id="edge52" class="edge">
<title>Node88&#45;&gt;Node30</title>
<path fill="none" stroke="#63b8ff" d="M833.28,-146.44C832.14,-145.51 831.04,-144.53 830,-143.5 791.72,-105.44 831.43,-66.4 794,-27.5 790.87,-24.25 787.13,-21.59 783.1,-19.41"/>
<polygon fill="#63b8ff" stroke="#63b8ff" points="831.22,-149.27 841.52,-151.73 835,-143.38 831.22,-149.27"/>
</g>
<!-- Node44 -->
<g id="node40" class="node">
<title>Node44</title>
<g id="a_node40"><a xlink:href="TransmitterCode_2src_2main_8cpp.html#a16c65917a148c7f6c17babf11e977b69" target="_top" xlink:title=" ">
<polygon fill="white" stroke="#666666" points="783,-206 701,-206 701,-187 783,-187 783,-206"/>
<text text-anchor="middle" x="742" y="-194" font-family="Helvetica,sans-Serif" font-size="10.00">EndBuddyView</text>
</a>
</g>
</g>
<!-- Node88&#45;&gt;Node44 -->
<g id="edge56" class="edge">
<title>Node88&#45;&gt;Node44</title>
<path fill="none" stroke="#63b8ff" d="M837.63,-174.98C819.67,-179.06 800.06,-183.52 783.37,-187.32"/>
<polygon fill="#63b8ff" stroke="#63b8ff" points="838.41,-178.39 847.38,-172.76 836.85,-171.57 838.41,-178.39"/>
</g>
<!-- Node80 -->
<g id="node41" class="node">
<title>Node80</title>
<g id="a_node41"><a xlink:href="BuddyWireless_8h.html#ab0ba1642fb6c43525579b989c7b60dad" target="_top" xlink:title=" ">
<polygon fill="white" stroke="#666666" points="790,-56 694,-56 694,-37 790,-37 790,-56"/>
<text text-anchor="middle" x="742" y="-44" font-family="Helvetica,sans-Serif" font-size="10.00">LoadCorrectModel</text>
</a>
</g>
</g>
<!-- Node88&#45;&gt;Node80 -->
<g id="edge57" class="edge">
<title>Node88&#45;&gt;Node80</title>
<path fill="none" stroke="#63b8ff" d="M834.54,-147.03C832.96,-145.93 831.44,-144.76 830,-143.5 800.97,-118.08 822.46,-90.55 794,-64.5 790.47,-61.27 786.32,-58.61 781.94,-56.42"/>
<polygon fill="#63b8ff" stroke="#63b8ff" points="832.45,-149.87 842.88,-151.76 835.9,-143.78 832.45,-149.87"/>
</g>
<!-- Node54 -->
<g id="node44" class="node">
<title>Node54</title>
<g id="a_node44"><a xlink:href="TransmitterCode_2src_2main_8cpp.html#aa1ada50da7cf7f716d14bc9c1a7fdfe9" target="_top" xlink:title=" ">
<polygon fill="white" stroke="#666666" points="788.5,-130 695.5,-130 695.5,-111 788.5,-111 788.5,-130"/>
<text text-anchor="middle" x="742" y="-118" font-family="Helvetica,sans-Serif" font-size="10.00">OptionView2Start</text>
</a>
</g>
</g>
<!-- Node88&#45;&gt;Node54 -->
<g id="edge62" class="edge">
<title>Node88&#45;&gt;Node54</title>
<path fill="none" stroke="#63b8ff" d="M846.06,-149.45C824.24,-143.32 798.66,-136.14 778.43,-130.45"/>
<polygon fill="#63b8ff" stroke="#63b8ff" points="845.04,-152.8 855.61,-152.14 846.93,-146.06 845.04,-152.8"/>
</g>
<!-- Node87 -->
<g id="node45" class="node">
<title>Node87</title>
<g id="a_node45"><a xlink:href="TransmitterCode_2src_2main_8cpp.html#aa1f353c2c61131eeafa77c6e67608e45" target="_top" xlink:title=" ">
<polygon fill="white" stroke="#666666" points="635,-244 527,-244 527,-225 635,-225 635,-244"/>
<text text-anchor="middle" x="581" y="-232" font-family="Helvetica,sans-Serif" font-size="10.00">RestoreCurrentModel</text>
</a>
</g>
</g>
<!-- Node88&#45;&gt;Node87 -->
<g id="edge64" class="edge">
<title>Node88&#45;&gt;Node87</title>
<path fill="none" stroke="#63b8ff" d="M850.86,-176.51C843.74,-179.46 836.53,-182.82 830,-186.5 812.35,-196.46 812.84,-207.03 794,-214.5 742.8,-234.81 679.38,-238.25 635.31,-237.58"/>
<polygon fill="#63b8ff" stroke="#63b8ff" points="851.72,-179.94 859.75,-173.03 849.17,-173.42 851.72,-179.94"/>
</g>
<!-- Node89 -->
<g id="node46" class="node">
<title>Node89</title>
<g id="a_node46"><a xlink:href="TransmitterCode_2src_2main_8cpp.html#a35f886d783cd5aa95171f1ecba39ef0b" target="_top" xlink:title=" ">
<polygon fill="white" stroke="#666666" points="781,-93 703,-93 703,-74 781,-74 781,-93"/>
<text text-anchor="middle" x="742" y="-81" font-family="Helvetica,sans-Serif" font-size="10.00">SetupViewFM</text>
</a>
</g>
</g>
<!-- Node88&#45;&gt;Node89 -->
<g id="edge66" class="edge">
<title>Node88&#45;&gt;Node89</title>
<path fill="none" stroke="#63b8ff" d="M838.01,-148.07C835.23,-146.68 832.54,-145.16 830,-143.5 809.42,-130.05 814.28,-115.4 794,-101.5 789.35,-98.32 784.08,-95.64 778.74,-93.4"/>
<polygon fill="#63b8ff" stroke="#63b8ff" points="836.43,-151.2 846.99,-151.96 839.21,-144.77 836.43,-151.2"/>
</g>
<!-- Node90 -->
<g id="node47" class="node">
<title>Node90</title>
<g id="a_node47"><a xlink:href="TransmitterCode_2src_2main_8cpp.html#a761b6bcf24c9ccf34e61a5757ebfc4a7" target="_top" xlink:title=" ">
<polygon fill="white" stroke="#666666" points="794,-320 690,-320 690,-301 794,-301 794,-320"/>
<text text-anchor="middle" x="742" y="-308" font-family="Helvetica,sans-Serif" font-size="10.00">SimulateCloseDown</text>
</a>
</g>
</g>
<!-- Node88&#45;&gt;Node90 -->
<g id="edge67" class="edge">
<title>Node88&#45;&gt;Node90</title>
<path fill="none" stroke="#63b8ff" d="M841.37,-177.63C837.22,-180.16 833.34,-183.09 830,-186.5 796.95,-220.25 825.79,-251.56 794,-286.5 788.6,-292.44 781.43,-297.03 774.17,-300.54"/>
<polygon fill="#63b8ff" stroke="#63b8ff" points="842.8,-180.83 850.1,-173.16 839.61,-174.6 842.8,-180.83"/>
</g>
<!-- Node31 -->
<g id="node37" class="node">
<title>Node31</title>
<g id="a_node37"><a xlink:href="transceiver_8h.html#a494cb4acb30856d1f53f08df1b80c41b" target="_top" xlink:title=" ">
<polygon fill="white" stroke="#666666" points="640.5,-19 521.5,-19 521.5,0 640.5,0 640.5,-19"/>
<text text-anchor="middle" x="581" y="-7" font-family="Helvetica,sans-Serif" font-size="10.00">GetModelsMacAddress</text>
</a>
</g>
</g>
<!-- Node30&#45;&gt;Node31 -->
<g id="edge53" class="edge">
<title>Node30&#45;&gt;Node31</title>
<path fill="none" stroke="#63b8ff" d="M679.3,-9.5C666.67,-9.5 653.4,-9.5 640.87,-9.5"/>
<polygon fill="#63b8ff" stroke="#63b8ff" points="679.18,-13 689.18,-9.5 679.18,-6 679.18,-13"/>
</g>
<!-- Node25 -->
<g id="node38" class="node">
<title>Node25</title>
<g id="a_node38"><a xlink:href="transceiver_8h.html#a694f4f5a0147f4dc29b0bc1a8951547d" target="_top" xlink:title=" ">
<polygon fill="white" stroke="#666666" points="459,-19 365,-19 365,0 459,0 459,-19"/>
<text text-anchor="middle" x="412" y="-7" font-family="Helvetica,sans-Serif" font-size="10.00">ParseAckPayload</text>
</a>
</g>
</g>
<!-- Node31&#45;&gt;Node25 -->
<g id="edge54" class="edge">
<title>Node31&#45;&gt;Node25</title>
<path fill="none" stroke="#63b8ff" d="M510.01,-9.5C492.89,-9.5 474.99,-9.5 459.29,-9.5"/>
<polygon fill="#63b8ff" stroke="#63b8ff" points="509.61,-13 519.61,-9.5 509.61,-6 509.61,-13"/>
</g>
<!-- Node26 -->
<g id="node39" class="node">
<title>Node26</title>
<g id="a_node39"><a xlink:href="transceiver_8h.html#a1c11bb6771548de7d96723045b922620" target="_top" xlink:title=" ">
<polygon fill="#fff0f0" stroke="red" points="288,-19 192,-19 192,0 288,0 288,-19"/>
<text text-anchor="middle" x="240" y="-7" font-family="Helvetica,sans-Serif" font-size="10.00">SuccessfulPacket</text>
</a>
</g>
</g>
<!-- Node25&#45;&gt;Node26 -->
<g id="edge55" class="edge">
<title>Node25&#45;&gt;Node26</title>
<path fill="none" stroke="#63b8ff" d="M353.11,-9.5C331.99,-9.5 308.37,-9.5 288.28,-9.5"/>
<polygon fill="#63b8ff" stroke="#63b8ff" points="353.03,-13 363.03,-9.5 353.03,-6 353.03,-13"/>
</g>
<!-- Node81 -->
<g id="node42" class="node">
<title>Node81</title>
<g id="a_node42"><a xlink:href="BuddyWireless_8h.html#af63784896d400ae2d75d57852e143ca1" target="_top" xlink:title=" ">
<polygon fill="white" stroke="#666666" points="628.5,-93 533.5,-93 533.5,-74 628.5,-74 628.5,-93"/>
<text text-anchor="middle" x="581" y="-81" font-family="Helvetica,sans-Serif" font-size="10.00">GetSpecialPacket</text>
</a>
</g>
</g>
<!-- Node80&#45;&gt;Node81 -->
<g id="edge58" class="edge">
<title>Node80&#45;&gt;Node81</title>
<path fill="none" stroke="#63b8ff" d="M687.36,-58.98C666.95,-63.73 643.99,-69.07 624.73,-73.56"/>
<polygon fill="#63b8ff" stroke="#63b8ff" points="687.97,-62.43 696.92,-56.76 686.38,-55.62 687.97,-62.43"/>
</g>
<!-- Node82 -->
<g id="node43" class="node">
<title>Node82</title>
<g id="a_node43"><a xlink:href="TransmitterCode_2src_2main_8cpp.html#ad2c7ed441d88f2a2b2fca83ff61e714d" target="_top" xlink:title=" ">
<polygon fill="white" stroke="#666666" points="472,-112 352,-112 352,-93 472,-93 472,-112"/>
<text text-anchor="middle" x="412" y="-100" font-family="Helvetica,sans-Serif" font-size="10.00">DoWirelessBuddyListen</text>
</a>
</g>
</g>
<!-- Node81&#45;&gt;Node82 -->
<g id="edge59" class="edge">
<title>Node81&#45;&gt;Node82</title>
<path fill="none" stroke="#63b8ff" d="M521.7,-90.13C505.75,-91.95 488.44,-93.92 472.43,-95.74"/>
<polygon fill="#63b8ff" stroke="#63b8ff" points="521.99,-93.62 531.53,-89.01 521.2,-86.67 521.99,-93.62"/>
</g>
<!-- Node82&#45;&gt;Node18 -->
<g id="edge60" class="edge">
<title>Node82&#45;&gt;Node18</title>
<path fill="none" stroke="#63b8ff" d="M370.76,-115.99C334.83,-128.04 283.97,-145.09 257.88,-153.84"/>
<polygon fill="#63b8ff" stroke="#63b8ff" points="371.58,-119.41 379.95,-112.91 369.36,-112.77 371.58,-119.41"/>
</g>
<!-- Node87&#45;&gt;Node6 -->
<g id="edge65" class="edge">
<title>Node87&#45;&gt;Node6</title>
<path fill="none" stroke="#63b8ff" d="M515.41,-228.05C467.34,-226.26 401.72,-230.4 352,-258.5 293.81,-291.39 256.65,-368.55 244.97,-395.78"/>
<polygon fill="#63b8ff" stroke="#63b8ff" points="514.95,-231.53 525.1,-228.51 515.28,-224.54 514.95,-231.53"/>
</g>
<!-- Node90&#45;&gt;Node29 -->
<g id="edge68" class="edge">
<title>Node90&#45;&gt;Node29</title>
<path fill="none" stroke="#63b8ff" d="M688.23,-323.11C667.27,-328.12 643.5,-333.8 623.77,-338.52"/>
<polygon fill="#63b8ff" stroke="#63b8ff" points="688.84,-326.56 697.75,-320.84 687.21,-319.76 688.84,-326.56"/>
</g>
<!-- Node63&#45;&gt;Node43 -->
<g id="edge70" class="edge">
<title>Node63&#45;&gt;Node43</title>
<path fill="none" stroke="#63b8ff" d="M837.87,-656.44C820.75,-658.62 802.11,-660.99 785.92,-663.04"/>
<polygon fill="#63b8ff" stroke="#63b8ff" points="837.88,-659.97 847.36,-655.24 836.99,-653.03 837.88,-659.97"/>
</g>
<!-- Node63&#45;&gt;Node46 -->
<g id="edge71" class="edge">
<title>Node63&#45;&gt;Node46</title>
<path fill="none" stroke="#63b8ff" d="M837.69,-639.23C818.8,-635.7 798.09,-631.82 780.86,-628.59"/>
<polygon fill="#63b8ff" stroke="#63b8ff" points="836.9,-642.65 847.37,-641.05 838.18,-635.77 836.9,-642.65"/>
</g>
<!-- Node203&#45;&gt;Node3 -->
<g id="edge75" class="edge">
<title>Node203&#45;&gt;Node3</title>
<path fill="none" stroke="#63b8ff" d="M846.63,-245.56C840.43,-248.17 834.62,-251.71 830,-256.5 784.19,-303.97 828.91,-344.52 794,-400.5 785.3,-414.45 770.56,-426.16 759.16,-433.81"/>
<polygon fill="#63b8ff" stroke="#63b8ff" points="847.49,-248.97 855.86,-242.47 845.27,-242.33 847.49,-248.97"/>
</g>
<!-- Node203&#45;&gt;Node6 -->
<g id="edge76" class="edge">
<title>Node203&#45;&gt;Node6</title>
<path fill="none" stroke="#63b8ff" d="M846.6,-246.12C840.5,-248.66 834.73,-252.03 830,-256.5 794.77,-289.82 832.35,-329.81 794,-359.5 752.86,-391.35 387.46,-402.2 274.27,-404.81"/>
<polygon fill="#63b8ff" stroke="#63b8ff" points="847.27,-249.58 855.62,-243.07 845.03,-242.95 847.27,-249.58"/>
</g>
</g>
</svg>
