<?xml version="1.0" encoding="UTF-8" standalone="no"?>
<!DOCTYPE svg PUBLIC "-//W3C//DTD SVG 1.1//EN"
 "http://www.w3.org/Graphics/SVG/1.1/DTD/svg11.dtd">
<!-- Generated by graphviz version 7.0.5 (20221223.1930)
 -->
<!-- Title: GetButtonPress Pages: 1 -->
<svg width="1183pt" height="990pt"
 viewBox="0.00 0.00 1183.00 989.50" xmlns="http://www.w3.org/2000/svg" xmlns:xlink="http://www.w3.org/1999/xlink">
<g id="graph0" class="graph" transform="scale(1 1) rotate(0) translate(4 985.5)">
<title>GetButtonPress</title>
<!-- Node1 -->
<g id="node1" class="node">
<title>Node1</title>
<g id="a_node1"><a xlink:title=" ">
<polygon fill="#999999" stroke="#666666" points="86,-187 0,-187 0,-168 86,-168 86,-187"/>
<text text-anchor="middle" x="43" y="-175" font-family="Helvetica,sans-Serif" font-size="10.00">GetButtonPress</text>
</a>
</g>
</g>
<!-- Node2 -->
<g id="node2" class="node">
<title>Node2</title>
<g id="a_node2"><a xlink:href="Utilities_8h.html#aa490b4664b0a4498d53b30b82287d5df" target="_top" xlink:title=" ">
<polygon fill="white" stroke="#666666" points="185,-187 122,-187 122,-168 185,-168 185,-187"/>
<text text-anchor="middle" x="153.5" y="-175" font-family="Helvetica,sans-Serif" font-size="10.00">PlaySound</text>
</a>
</g>
</g>
<!-- Node1&#45;&gt;Node2 -->
<g id="edge1" class="edge">
<title>Node1&#45;&gt;Node2</title>
<path fill="none" stroke="#63b8ff" d="M86.26,-177.5C94.18,-177.5 102.45,-177.5 110.36,-177.5"/>
<polygon fill="#63b8ff" stroke="#63b8ff" points="110.1,-181 120.1,-177.5 110.1,-174 110.1,-181"/>
</g>
<!-- Node3 -->
<g id="node3" class="node">
<title>Node3</title>
<g id="a_node3"><a xlink:href="Nextion_8h.html#aecac2f0c289f02ef3c92b85be82eacac" target="_top" xlink:title=" ">
<polygon fill="white" stroke="#666666" points="304,-580 221,-580 221,-561 304,-561 304,-580"/>
<text text-anchor="middle" x="262.5" y="-568" font-family="Helvetica,sans-Serif" font-size="10.00">SendCommand</text>
</a>
</g>
</g>
<!-- Node2&#45;&gt;Node3 -->
<g id="edge2" class="edge">
<title>Node2&#45;&gt;Node3</title>
<path fill="none" stroke="#63b8ff" d="M157.14,-187.21C171.11,-238.5 236.35,-478.13 255.93,-550.05"/>
<polygon fill="#63b8ff" stroke="#63b8ff" points="252.45,-550.58 258.45,-559.31 259.2,-548.74 252.45,-550.58"/>
</g>
<!-- Node43 -->
<g id="node50" class="node">
<title>Node43</title>
<g id="a_node50"><a xlink:href="Utilities_8h.html#a590a9174319918d7e3d7baca323fcf26" target="_top" xlink:title=" ">
<polygon fill="white" stroke="#666666" points="277,-206 248,-206 248,-187 277,-187 277,-206"/>
<text text-anchor="middle" x="262.5" y="-194" font-family="Helvetica,sans-Serif" font-size="10.00">Str</text>
</a>
</g>
</g>
<!-- Node2&#45;&gt;Node43 -->
<g id="edge67" class="edge">
<title>Node2&#45;&gt;Node43</title>
<path fill="none" stroke="#63b8ff" d="M185.45,-183C201.62,-185.87 221.15,-189.34 236.37,-192.04"/>
<polygon fill="#63b8ff" stroke="#63b8ff" points="235.56,-195.45 246.02,-193.75 236.78,-188.56 235.56,-195.45"/>
</g>
<!-- Node4 -->
<g id="node4" class="node">
<title>Node4</title>
<g id="a_node4"><a xlink:href="Utilities_8h.html#a3b1d8aa403e2724e55c71da3d9d13e7e" target="_top" xlink:title=" ">
<polygon fill="white" stroke="#666666" points="417,-580 340,-580 340,-561 417,-561 417,-580"/>
<text text-anchor="middle" x="378.5" y="-568" font-family="Helvetica,sans-Serif" font-size="10.00">DelayWithDog</text>
</a>
</g>
</g>
<!-- Node3&#45;&gt;Node4 -->
<g id="edge3" class="edge">
<title>Node3&#45;&gt;Node4</title>
<path fill="none" stroke="#63b8ff" d="M304.33,-570.5C312.06,-570.5 320.22,-570.5 328.18,-570.5"/>
<polygon fill="#63b8ff" stroke="#63b8ff" points="328.1,-574 338.1,-570.5 328.1,-567 328.1,-574"/>
</g>
<!-- Node52 -->
<g id="node28" class="node">
<title>Node52</title>
<g id="a_node28"><a xlink:href="Nextion_8h.html#a43937dd3d9c795271fd9c3eb3c6b6410" target="_top" xlink:title=" ">
<polygon fill="white" stroke="#666666" points="1175,-897 1092,-897 1092,-878 1175,-878 1175,-897"/>
<text text-anchor="middle" x="1133.5" y="-885" font-family="Helvetica,sans-Serif" font-size="10.00">GetReturnCode</text>
</a>
</g>
</g>
<!-- Node3&#45;&gt;Node52 -->
<g id="edge65" class="edge">
<title>Node3&#45;&gt;Node52</title>
<path fill="none" stroke="#63b8ff" d="M263.45,-580.32C263.74,-620.94 269.54,-778.31 340,-877.5 391.51,-950.02 422.05,-981.5 511,-981.5 511,-981.5 511,-981.5 849,-981.5 947.79,-981.5 1056.56,-929.44 1105.74,-902.8"/>
<polygon fill="#63b8ff" stroke="#63b8ff" points="1107.18,-906.01 1114.25,-898.11 1103.8,-899.87 1107.18,-906.01"/>
</g>
<!-- Node141 -->
<g id="node49" class="node">
<title>Node141</title>
<g id="a_node49"><a xlink:href="TransmitterCode_2src_2main_8cpp.html#a5f109790a6fe0b972a502f3cac4ed1e7" target="_top" xlink:title=" ">
<polygon fill="white" stroke="#666666" points="402.5,-543 354.5,-543 354.5,-524 402.5,-524 402.5,-543"/>
<text text-anchor="middle" x="378.5" y="-531" font-family="Helvetica,sans-Serif" font-size="10.00">InStrng</text>
</a>
</g>
</g>
<!-- Node3&#45;&gt;Node141 -->
<g id="edge66" class="edge">
<title>Node3&#45;&gt;Node141</title>
<path fill="none" stroke="#63b8ff" d="M294.05,-560.58C309.23,-555.66 327.62,-549.69 343.27,-544.61"/>
<polygon fill="#63b8ff" stroke="#63b8ff" points="344.23,-547.98 352.66,-541.56 342.07,-541.32 344.23,-547.98"/>
</g>
<!-- Node5 -->
<g id="node5" class="node">
<title>Node5</title>
<g id="a_node5"><a xlink:href="TransmitterCode_2src_2main_8cpp.html#a26ae4f6ca14f760bd5eb6e7588fe7c81" target="_top" xlink:title="GET NEW SERVO POSITIONS.">
<polygon fill="white" stroke="#666666" points="571,-767 453,-767 453,-748 571,-748 571,-767"/>
<text text-anchor="middle" x="512" y="-755" font-family="Helvetica,sans-Serif" font-size="10.00">GetNewChannelValues</text>
</a>
</g>
</g>
<!-- Node4&#45;&gt;Node5 -->
<g id="edge4" class="edge">
<title>Node4&#45;&gt;Node5</title>
<path fill="none" stroke="#63b8ff" d="M386.38,-580.29C407.24,-609.95 470.01,-699.21 497.66,-738.54"/>
<polygon fill="#63b8ff" stroke="#63b8ff" points="494.7,-740.4 503.31,-746.57 500.42,-736.37 494.7,-740.4"/>
</g>
<!-- Node17 -->
<g id="node17" class="node">
<title>Node17</title>
<g id="a_node17"><a xlink:href="Utilities_8h.html#ada95a00a341e4a80176eda743a94ab2e" target="_top" xlink:title=" ">
<polygon fill="white" stroke="#666666" points="547,-580 477,-580 477,-561 547,-561 547,-580"/>
<text text-anchor="middle" x="512" y="-568" font-family="Helvetica,sans-Serif" font-size="10.00">KickTheDog</text>
</a>
</g>
</g>
<!-- Node4&#45;&gt;Node17 -->
<g id="edge17" class="edge">
<title>Node4&#45;&gt;Node17</title>
<path fill="none" stroke="#63b8ff" d="M417.18,-570.5C432.33,-570.5 449.92,-570.5 465.75,-570.5"/>
<polygon fill="#63b8ff" stroke="#63b8ff" points="465.39,-574 475.39,-570.5 465.39,-567 465.39,-574"/>
</g>
<!-- Node18 -->
<g id="node18" class="node">
<title>Node18</title>
<g id="a_node18"><a xlink:href="transceiver_8h.html#a049bfb836e7aa4a3a48a1a4bd225fafc" target="_top" xlink:title=" ">
<polygon fill="white" stroke="#666666" points="541.5,-429 482.5,-429 482.5,-410 541.5,-410 541.5,-429"/>
<text text-anchor="middle" x="512" y="-417" font-family="Helvetica,sans-Serif" font-size="10.00">SendData</text>
</a>
</g>
</g>
<!-- Node4&#45;&gt;Node18 -->
<g id="edge18" class="edge">
<title>Node4&#45;&gt;Node18</title>
<path fill="none" stroke="#63b8ff" d="M404.79,-560.56C409.1,-558.26 413.36,-555.58 417,-552.5 455.71,-519.8 486.29,-467.7 501.15,-439.39"/>
<polygon fill="#63b8ff" stroke="#63b8ff" points="504.09,-441.32 505.53,-430.83 497.86,-438.14 504.09,-441.32"/>
</g>
<!-- Node6 -->
<g id="node6" class="node">
<title>Node6</title>
<g id="a_node6"><a xlink:href="TransmitterCode_2src_2main_8cpp.html#ac5728db610c441820a6f47295967cbab" target="_top" xlink:title=" ">
<polygon fill="white" stroke="#666666" points="719,-804 639,-804 639,-785 719,-785 719,-804"/>
<text text-anchor="middle" x="679" y="-792" font-family="Helvetica,sans-Serif" font-size="10.00">AnalogueReed</text>
</a>
</g>
</g>
<!-- Node5&#45;&gt;Node6 -->
<g id="edge5" class="edge">
<title>Node5&#45;&gt;Node6</title>
<path fill="none" stroke="#63b8ff" d="M557.22,-767.42C578.94,-772.29 605.21,-778.18 627.7,-783.22"/>
<polygon fill="#63b8ff" stroke="#63b8ff" points="626.73,-786.59 637.25,-785.36 628.26,-779.76 626.73,-786.59"/>
</g>
<!-- Node7 -->
<g id="node7" class="node">
<title>Node7</title>
<g id="a_node7"><a xlink:href="TransmitterCode_2src_2main_8cpp.html#ac77bd940a0faad7b997c9ddf40a7acc6" target="_top" xlink:title=" ">
<polygon fill="white" stroke="#666666" points="706,-915 652,-915 652,-896 706,-896 706,-915"/>
<text text-anchor="middle" x="679" y="-903" font-family="Helvetica,sans-Serif" font-size="10.00">DoMixes</text>
</a>
</g>
</g>
<!-- Node5&#45;&gt;Node7 -->
<g id="edge6" class="edge">
<title>Node5&#45;&gt;Node7</title>
<path fill="none" stroke="#63b8ff" d="M517.24,-767.46C528.21,-791.98 560,-855.58 607,-887.5 616.86,-894.2 629.02,-898.4 640.48,-901.04"/>
<polygon fill="#63b8ff" stroke="#63b8ff" points="639.61,-904.44 650.1,-902.91 640.95,-897.57 639.61,-904.44"/>
</g>
<!-- Node9 -->
<g id="node9" class="node">
<title>Node9</title>
<g id="a_node9"><a xlink:href="Utilities_8h.html#acbd7adcd2b0e2095a89b4a98042b526e" target="_top" xlink:title=" ">
<polygon fill="white" stroke="#666666" points="725,-767 633,-767 633,-748 725,-748 725,-767"/>
<text text-anchor="middle" x="679" y="-755" font-family="Helvetica,sans-Serif" font-size="10.00">DoReverseSense</text>
</a>
</g>
</g>
<!-- Node5&#45;&gt;Node9 -->
<g id="edge8" class="edge">
<title>Node5&#45;&gt;Node9</title>
<path fill="none" stroke="#63b8ff" d="M571.17,-757.5C587.37,-757.5 604.95,-757.5 621.08,-757.5"/>
<polygon fill="#63b8ff" stroke="#63b8ff" points="621.01,-761 631.01,-757.5 621.01,-754 621.01,-761"/>
</g>
<!-- Node10 -->
<g id="node10" class="node">
<title>Node10</title>
<g id="a_node10"><a xlink:href="TransmitterCode_2src_2main_8cpp.html#a4be5821d4f80bdcdbee25adc69051d3e" target="_top" xlink:title=" ">
<polygon fill="white" stroke="#666666" points="723.5,-730 634.5,-730 634.5,-711 723.5,-711 723.5,-730"/>
<text text-anchor="middle" x="679" y="-718" font-family="Helvetica,sans-Serif" font-size="10.00">DoRouteOutputs</text>
</a>
</g>
</g>
<!-- Node5&#45;&gt;Node10 -->
<g id="edge9" class="edge">
<title>Node5&#45;&gt;Node10</title>
<path fill="none" stroke="#63b8ff" d="M557.22,-747.58C577.45,-743.05 601.62,-737.63 623.01,-732.83"/>
<polygon fill="#63b8ff" stroke="#63b8ff" points="623.76,-736.25 632.76,-730.65 622.23,-729.42 623.76,-736.25"/>
</g>
<!-- Node11 -->
<g id="node11" class="node">
<title>Node11</title>
<g id="a_node11"><a xlink:href="TransmitterCode_2src_2main_8cpp.html#a7a6560a77b8c4dd3925760790beafbd5" target="_top" xlink:title=" ">
<polygon fill="white" stroke="#666666" points="719.5,-693 638.5,-693 638.5,-674 719.5,-674 719.5,-693"/>
<text text-anchor="middle" x="679" y="-681" font-family="Helvetica,sans-Serif" font-size="10.00">DoSlowServos</text>
</a>
</g>
</g>
<!-- Node5&#45;&gt;Node11 -->
<g id="edge10" class="edge">
<title>Node5&#45;&gt;Node11</title>
<path fill="none" stroke="#63b8ff" d="M527.03,-747.67C544.87,-735.55 576.99,-715.03 607,-702.5 613.49,-699.79 620.48,-697.37 627.45,-695.23"/>
<polygon fill="#63b8ff" stroke="#63b8ff" points="628.21,-698.65 636.86,-692.53 626.28,-691.93 628.21,-698.65"/>
</g>
<!-- Node12 -->
<g id="node12" class="node">
<title>Node12</title>
<g id="a_node12"><a xlink:href="TransmitterCode_2src_2main_8cpp.html#af9c038b48102eca9032f10fefd9d5736" target="_top" xlink:title=" ">
<polygon fill="white" stroke="#666666" points="718,-841 640,-841 640,-822 718,-822 718,-841"/>
<text text-anchor="middle" x="679" y="-829" font-family="Helvetica,sans-Serif" font-size="10.00">GetCurveDots</text>
</a>
</g>
</g>
<!-- Node5&#45;&gt;Node12 -->
<g id="edge11" class="edge">
<title>Node5&#45;&gt;Node12</title>
<path fill="none" stroke="#63b8ff" d="M526.66,-767.38C544.39,-779.77 576.64,-800.92 607,-813.5 613.87,-816.34 621.3,-818.83 628.68,-820.97"/>
<polygon fill="#63b8ff" stroke="#63b8ff" points="627.73,-824.34 638.3,-823.56 629.55,-817.58 627.73,-824.34"/>
</g>
<!-- Node15 -->
<g id="node15" class="node">
<title>Node15</title>
<g id="a_node15"><a xlink:href="TransmitterCode_2src_2main_8cpp.html#a248db02e07497e7a4149db17b4e5c2f3" target="_top" xlink:title=" ">
<polygon fill="white" stroke="#666666" points="717.5,-878 640.5,-878 640.5,-859 717.5,-859 717.5,-878"/>
<text text-anchor="middle" x="679" y="-866" font-family="Helvetica,sans-Serif" font-size="10.00">GetStickInput</text>
</a>
</g>
</g>
<!-- Node5&#45;&gt;Node15 -->
<g id="edge14" class="edge">
<title>Node5&#45;&gt;Node15</title>
<path fill="none" stroke="#63b8ff" d="M520.05,-767.37C534.23,-786.48 568.22,-828.6 607,-850.5 613.85,-854.37 621.53,-857.42 629.25,-859.82"/>
<polygon fill="#63b8ff" stroke="#63b8ff" points="628.06,-863.12 638.63,-862.4 629.92,-856.37 628.06,-863.12"/>
</g>
<!-- Node16 -->
<g id="node16" class="node">
<title>Node16</title>
<g id="a_node16"><a xlink:href="Trims_8h.html#aacd8b022714bb89847239dd878ad9509" target="_top" xlink:title=" ">
<polygon fill="white" stroke="#666666" points="722,-656 636,-656 636,-637 722,-637 722,-656"/>
<text text-anchor="middle" x="679" y="-644" font-family="Helvetica,sans-Serif" font-size="10.00">GetTrimAmount</text>
</a>
</g>
</g>
<!-- Node5&#45;&gt;Node16 -->
<g id="edge16" class="edge">
<title>Node5&#45;&gt;Node16</title>
<path fill="none" stroke="#63b8ff" d="M520.1,-747.79C534.38,-728.96 568.51,-687.44 607,-665.5 612.61,-662.3 618.78,-659.63 625.06,-657.39"/>
<polygon fill="#63b8ff" stroke="#63b8ff" points="625.75,-660.84 634.23,-654.49 623.64,-654.17 625.75,-660.84"/>
</g>
<!-- Node8 -->
<g id="node8" class="node">
<title>Node8</title>
<g id="a_node8"><a xlink:href="Utilities_8h.html#a0d8d8a0d67cb9b04481f1692abe75368" target="_top" xlink:title=" ">
<polygon fill="white" stroke="#666666" points="887.5,-897 808.5,-897 808.5,-878 887.5,-878 887.5,-897"/>
<text text-anchor="middle" x="848" y="-885" font-family="Helvetica,sans-Serif" font-size="10.00">IntoHigherRes</text>
</a>
</g>
</g>
<!-- Node7&#45;&gt;Node8 -->
<g id="edge7" class="edge">
<title>Node7&#45;&gt;Node8</title>
<path fill="none" stroke="#63b8ff" d="M706.46,-902.65C730.66,-900.04 767.09,-896.11 796.8,-892.91"/>
<polygon fill="#63b8ff" stroke="#63b8ff" points="797.16,-896.39 806.73,-891.84 796.41,-889.43 797.16,-896.39"/>
</g>
<!-- Node13 -->
<g id="node13" class="node">
<title>Node13</title>
<g id="a_node13"><a xlink:href="TransmitterCode_2src_2main_8cpp.html#afeabb54d48ef7e55693014e057d2943d" target="_top" xlink:title=" ">
<polygon fill="white" stroke="#666666" points="886.5,-813 809.5,-813 809.5,-794 886.5,-794 886.5,-813"/>
<text text-anchor="middle" x="848" y="-801" font-family="Helvetica,sans-Serif" font-size="10.00">CalculateRate</text>
</a>
</g>
</g>
<!-- Node12&#45;&gt;Node13 -->
<g id="edge12" class="edge">
<title>Node12&#45;&gt;Node13</title>
<path fill="none" stroke="#63b8ff" d="M718.31,-825.08C741.95,-821.11 772.49,-815.99 797.89,-811.73"/>
<polygon fill="#63b8ff" stroke="#63b8ff" points="798.38,-815.2 807.66,-810.1 797.22,-808.3 798.38,-815.2"/>
</g>
<!-- Node14 -->
<g id="node14" class="node">
<title>Node14</title>
<g id="a_node14"><a xlink:href="TransmitterCode_2src_2main_8cpp.html#a8f53f86499d740b350f7b6d791c90497" target="_top" xlink:title=" ">
<polygon fill="white" stroke="#666666" points="883.5,-850 812.5,-850 812.5,-831 883.5,-831 883.5,-850"/>
<text text-anchor="middle" x="848" y="-838" font-family="Helvetica,sans-Serif" font-size="10.00">UseFullRate</text>
</a>
</g>
</g>
<!-- Node12&#45;&gt;Node14 -->
<g id="edge13" class="edge">
<title>Node12&#45;&gt;Node14</title>
<path fill="none" stroke="#63b8ff" d="M718.31,-833.56C742.86,-834.89 774.87,-836.61 800.83,-838.01"/>
<polygon fill="#63b8ff" stroke="#63b8ff" points="800.59,-841.5 810.76,-838.55 800.97,-834.51 800.59,-841.5"/>
</g>
<!-- Node15&#45;&gt;Node8 -->
<g id="edge15" class="edge">
<title>Node15&#45;&gt;Node8</title>
<path fill="none" stroke="#63b8ff" d="M717.89,-872.81C741.26,-875.47 771.5,-878.91 796.84,-881.79"/>
<polygon fill="#63b8ff" stroke="#63b8ff" points="796.26,-885.25 806.59,-882.9 797.05,-878.29 796.26,-885.25"/>
</g>
<!-- Node19 -->
<g id="node19" class="node">
<title>Node19</title>
<g id="a_node19"><a xlink:href="transceiver_8h.html#a1ddd5e8d5bd649dd98ce3710fbff651b" target="_top" xlink:title=" ">
<polygon fill="white" stroke="#666666" points="709.5,-225 648.5,-225 648.5,-206 709.5,-206 709.5,-225"/>
<text text-anchor="middle" x="679" y="-213" font-family="Helvetica,sans-Serif" font-size="10.00">Compress</text>
</a>
</g>
</g>
<!-- Node18&#45;&gt;Node19 -->
<g id="edge19" class="edge">
<title>Node18&#45;&gt;Node19</title>
<path fill="none" stroke="#63b8ff" d="M514.98,-409.6C521.72,-378.45 546.86,-281.69 607,-233.5 615.62,-226.59 626.56,-222.3 637.25,-219.65"/>
<polygon fill="#63b8ff" stroke="#63b8ff" points="637.61,-223.14 646.72,-217.73 636.22,-216.28 637.61,-223.14"/>
</g>
<!-- Node20 -->
<g id="node20" class="node">
<title>Node20</title>
<g id="a_node20"><a xlink:href="transceiver_8h.html#a4144c213e5448a7e02d4172881f08219" target="_top" xlink:title=" ">
<polygon fill="white" stroke="#666666" points="751,-494 607,-494 607,-475 751,-475 751,-494"/>
<text text-anchor="middle" x="679" y="-482" font-family="Helvetica,sans-Serif" font-size="10.00">EncodeTheChangedChannels</text>
</a>
</g>
</g>
<!-- Node18&#45;&gt;Node20 -->
<g id="edge20" class="edge">
<title>Node18&#45;&gt;Node20</title>
<path fill="none" stroke="#63b8ff" d="M530.17,-429.5C548.64,-439.92 579.12,-456.14 607,-466.5 611.69,-468.24 616.61,-469.87 621.58,-471.39"/>
<polygon fill="#63b8ff" stroke="#63b8ff" points="620.45,-474.7 631.03,-474.09 622.38,-467.97 620.45,-474.7"/>
</g>
<!-- Node21 -->
<g id="node21" class="node">
<title>Node21</title>
<g id="a_node21"><a xlink:href="transceiver_8h.html#a5fbd3c8613a4163425c94965704ce5f8" target="_top" xlink:title=" ">
<polygon fill="white" stroke="#666666" points="716,-130 642,-130 642,-111 716,-111 716,-130"/>
<text text-anchor="middle" x="679" y="-118" font-family="Helvetica,sans-Serif" font-size="10.00">FailedPacket</text>
</a>
</g>
</g>
<!-- Node18&#45;&gt;Node21 -->
<g id="edge21" class="edge">
<title>Node18&#45;&gt;Node21</title>
<path fill="none" stroke="#63b8ff" d="M515.81,-409.55C525.27,-377.09 558.09,-271.94 607,-196.5 621.45,-174.21 642.74,-152.44 658.24,-137.95"/>
<polygon fill="#63b8ff" stroke="#63b8ff" points="660.46,-140.66 665.48,-131.34 655.74,-135.5 660.46,-140.66"/>
</g>
<!-- Node57 -->
<g id="node31" class="node">
<title>Node57</title>
<g id="a_node31"><a xlink:href="common_8h.html#a6e2d4126d864c50e7c23c988c2bfdd1a" target="_top" xlink:title=" ">
<polygon fill="white" stroke="#666666" points="1157,-466 1110,-466 1110,-447 1157,-447 1157,-466"/>
<text text-anchor="middle" x="1133.5" y="-454" font-family="Helvetica,sans-Serif" font-size="10.00">Radio1</text>
</a>
</g>
</g>
<!-- Node18&#45;&gt;Node57 -->
<g id="edge38" class="edge">
<title>Node18&#45;&gt;Node57</title>
<path fill="none" stroke="#63b8ff" d="M517.69,-429.34C529.23,-452.29 561.38,-509.36 607,-534.5 677.59,-573.39 706.55,-551.6 787,-556.5 906.36,-563.77 949.04,-604.95 1056,-551.5 1087.92,-535.55 1110.97,-499.43 1122.99,-476.61"/>
<polygon fill="#63b8ff" stroke="#63b8ff" points="1126.11,-478.2 1127.45,-467.69 1119.85,-475.07 1126.11,-478.2"/>
</g>
<!-- Node60 -->
<g id="node33" class="node">
<title>Node60</title>
<g id="a_node33"><a xlink:href="transceiver_8h.html#a07c27b4e208198453c70876517926052" target="_top" xlink:title=" ">
<polygon fill="white" stroke="#666666" points="1031.5,-542 969.5,-542 969.5,-523 1031.5,-523 1031.5,-542"/>
<text text-anchor="middle" x="1000.5" y="-530" font-family="Helvetica,sans-Serif" font-size="10.00">FlushFifos</text>
</a>
</g>
</g>
<!-- Node18&#45;&gt;Node60 -->
<g id="edge36" class="edge">
<title>Node18&#45;&gt;Node60</title>
<path fill="none" stroke="#63b8ff" d="M520.21,-429.26C534.44,-447.63 568.12,-486.99 607,-503.5 726.25,-554.13 884.17,-545.67 958.06,-537.88"/>
<polygon fill="#63b8ff" stroke="#63b8ff" points="958.12,-541.39 967.67,-536.81 957.34,-534.43 958.12,-541.39"/>
</g>
<!-- Node61 -->
<g id="node34" class="node">
<title>Node61</title>
<g id="a_node34"><a xlink:href="transceiver_8h.html#a188ad446d11b2db284476c093de58b2f" target="_top" xlink:title=" ">
<polygon fill="white" stroke="#666666" points="738.5,-401 619.5,-401 619.5,-382 738.5,-382 738.5,-401"/>
<text text-anchor="middle" x="679" y="-389" font-family="Helvetica,sans-Serif" font-size="10.00">SendExtraParamemters</text>
</a>
</g>
</g>
<!-- Node18&#45;&gt;Node61 -->
<g id="edge39" class="edge">
<title>Node18&#45;&gt;Node61</title>
<path fill="none" stroke="#63b8ff" d="M541.74,-414.62C560.07,-411.51 584.67,-407.34 607.92,-403.39"/>
<polygon fill="#63b8ff" stroke="#63b8ff" points="608.43,-406.86 617.7,-401.73 607.26,-399.95 608.43,-406.86"/>
</g>
<!-- Node64 -->
<g id="node37" class="node">
<title>Node64</title>
<g id="a_node37"><a xlink:href="BuddyWireless_8h.html#a41c327908c92572d0d3eebbb19160d86" target="_top" xlink:title=" ">
<polygon fill="white" stroke="#666666" points="730,-457 628,-457 628,-438 730,-438 730,-457"/>
<text text-anchor="middle" x="679" y="-445" font-family="Helvetica,sans-Serif" font-size="10.00">SendSpecialPacket</text>
</a>
</g>
</g>
<!-- Node18&#45;&gt;Node64 -->
<g id="edge42" class="edge">
<title>Node18&#45;&gt;Node64</title>
<path fill="none" stroke="#63b8ff" d="M541.74,-424.38C562.33,-427.87 590.83,-432.71 616.45,-437.06"/>
<polygon fill="#63b8ff" stroke="#63b8ff" points="615.66,-440.47 626.11,-438.69 616.83,-433.57 615.66,-440.47"/>
</g>
<!-- Node69 -->
<g id="node42" class="node">
<title>Node69</title>
<g id="a_node42"><a xlink:href="BuddyPPM_8h.html#a784a1eca0361b3991bca899167cc1cdb" target="_top" xlink:title=" ">
<polygon fill="white" stroke="#666666" points="716.5,-262 641.5,-262 641.5,-243 716.5,-243 716.5,-262"/>
<text text-anchor="middle" x="679" y="-250" font-family="Helvetica,sans-Serif" font-size="10.00">SendViaPPM</text>
</a>
</g>
</g>
<!-- Node18&#45;&gt;Node69 -->
<g id="edge52" class="edge">
<title>Node18&#45;&gt;Node69</title>
<path fill="none" stroke="#63b8ff" d="M516.25,-409.69C525.64,-382.88 555.53,-307.88 607,-270.5 613.79,-265.57 621.8,-261.98 629.95,-259.38"/>
<polygon fill="#63b8ff" stroke="#63b8ff" points="630.83,-262.76 639.58,-256.79 629.01,-256 630.83,-262.76"/>
</g>
<!-- Node70 -->
<g id="node43" class="node">
<title>Node70</title>
<g id="a_node43"><a xlink:href="transceiver_8h.html#a1c11bb6771548de7d96723045b922620" target="_top" xlink:title=" ">
<polygon fill="white" stroke="#666666" points="727,-299 631,-299 631,-280 727,-280 727,-299"/>
<text text-anchor="middle" x="679" y="-287" font-family="Helvetica,sans-Serif" font-size="10.00">SuccessfulPacket</text>
</a>
</g>
</g>
<!-- Node18&#45;&gt;Node70 -->
<g id="edge53" class="edge">
<title>Node18&#45;&gt;Node70</title>
<path fill="none" stroke="#63b8ff" d="M525.67,-409.51C553.82,-387.34 621.78,-333.8 656.62,-306.34"/>
<polygon fill="#63b8ff" stroke="#63b8ff" points="658.63,-309.22 664.32,-300.28 654.3,-303.72 658.63,-309.22"/>
</g>
<!-- Node22 -->
<g id="node22" class="node">
<title>Node22</title>
<g id="a_node22"><a xlink:href="transceiver_8h.html#afc091b5942e21a03f6dc8635d5e519ba" target="_top" xlink:title=" ">
<polygon fill="white" stroke="#666666" points="909,-130 787,-130 787,-111 909,-111 909,-130"/>
<text text-anchor="middle" x="848" y="-118" font-family="Helvetica,sans-Serif" font-size="10.00">RecordsPacketSuccess</text>
</a>
</g>
</g>
<!-- Node21&#45;&gt;Node22 -->
<g id="edge22" class="edge">
<title>Node21&#45;&gt;Node22</title>
<path fill="none" stroke="#63b8ff" d="M716.24,-120.5C733.48,-120.5 754.73,-120.5 775.05,-120.5"/>
<polygon fill="#63b8ff" stroke="#63b8ff" points="775.02,-124 785.02,-120.5 775.02,-117 775.02,-124"/>
</g>
<!-- Node23 -->
<g id="node23" class="node">
<title>Node23</title>
<g id="a_node23"><a xlink:href="TransmitterCode_2src_2main_8cpp.html#a7d34cec6e8edc20c8b50424e15dcc7c7" target="_top" xlink:title=" ">
<polygon fill="white" stroke="#666666" points="879.5,-56 816.5,-56 816.5,-37 879.5,-37 879.5,-56"/>
<text text-anchor="middle" x="848" y="-44" font-family="Helvetica,sans-Serif" font-size="10.00">RedLedOn</text>
</a>
</g>
</g>
<!-- Node21&#45;&gt;Node23 -->
<g id="edge23" class="edge">
<title>Node21&#45;&gt;Node23</title>
<path fill="none" stroke="#63b8ff" d="M716.24,-111.33C727.78,-107.62 740.31,-102.71 751,-96.5 769.51,-85.75 768.31,-74.93 787,-64.5 792.72,-61.31 799.07,-58.62 805.43,-56.38"/>
<polygon fill="#63b8ff" stroke="#63b8ff" points="806.13,-59.83 814.61,-53.47 804.02,-53.16 806.13,-59.83"/>
</g>
<!-- Node53 -->
<g id="node29" class="node">
<title>Node53</title>
<g id="a_node29"><a xlink:href="transceiver_8h.html#ad0236abcfc887ad708d9504c4ab2a7c3" target="_top" xlink:title=" ">
<polygon fill="white" stroke="#666666" points="892,-93 804,-93 804,-74 892,-74 892,-93"/>
<text text-anchor="middle" x="848" y="-81" font-family="Helvetica,sans-Serif" font-size="10.00">TryToReconnect</text>
</a>
</g>
</g>
<!-- Node21&#45;&gt;Node53 -->
<g id="edge32" class="edge">
<title>Node21&#45;&gt;Node53</title>
<path fill="none" stroke="#63b8ff" d="M716.24,-112.47C738.53,-107.53 767.53,-101.11 792.55,-95.56"/>
<polygon fill="#63b8ff" stroke="#63b8ff" points="793.24,-98.99 802.25,-93.41 791.73,-92.16 793.24,-98.99"/>
</g>
<!-- Node23&#45;&gt;Node2 -->
<g id="edge27" class="edge">
<title>Node23&#45;&gt;Node2</title>
<path fill="none" stroke="#63b8ff" d="M816.15,-46.19C757.23,-45.63 624.63,-44.5 513,-44.5 377.5,-44.5 377.5,-44.5 377.5,-44.5 288.98,-44.5 205.06,-122.75 170.76,-159.21"/>
<polygon fill="#63b8ff" stroke="#63b8ff" points="168.35,-156.66 164.16,-166.39 173.5,-161.39 168.35,-156.66"/>
</g>
<!-- Node23&#45;&gt;Node3 -->
<g id="edge28" class="edge">
<title>Node23&#45;&gt;Node3</title>
<path fill="none" stroke="#63b8ff" d="M816.37,-50.8C759.76,-59.18 641.37,-78.88 607,-101.5 423.33,-222.35 303.51,-477.14 271.88,-550.41"/>
<polygon fill="#63b8ff" stroke="#63b8ff" points="268.84,-548.59 268.15,-559.16 275.29,-551.33 268.84,-548.59"/>
</g>
<!-- Node24 -->
<g id="node24" class="node">
<title>Node24</title>
<g id="a_node24"><a xlink:href="TransmitterCode_2src_2main_8cpp.html#afeaea883a32e6ebe461d419fab1b9f59" target="_top" xlink:title=" ">
<polygon fill="white" stroke="#666666" points="1056,-19 945,-19 945,0 1056,0 1056,-19"/>
<text text-anchor="middle" x="1000.5" y="-7" font-family="Helvetica,sans-Serif" font-size="10.00">ClearMostParameters</text>
</a>
</g>
</g>
<!-- Node23&#45;&gt;Node24 -->
<g id="edge24" class="edge">
<title>Node23&#45;&gt;Node24</title>
<path fill="none" stroke="#63b8ff" d="M879.82,-38.92C899.39,-34.11 925.2,-27.77 947.85,-22.2"/>
<polygon fill="#63b8ff" stroke="#63b8ff" points="948.66,-25.6 957.54,-19.82 946.99,-18.81 948.66,-25.6"/>
</g>
<!-- Node25 -->
<g id="node25" class="node">
<title>Node25</title>
<g id="a_node25"><a xlink:href="Utilities_8h.html#a549a702bb9b539c6b3a4f20cce65adcc" target="_top" xlink:title=" ">
<polygon fill="#fff0f0" stroke="red" points="1049.5,-93 951.5,-93 951.5,-74 1049.5,-74 1049.5,-93"/>
<text text-anchor="middle" x="1000.5" y="-81" font-family="Helvetica,sans-Serif" font-size="10.00">GetLEDBrightness</text>
</a>
</g>
</g>
<!-- Node23&#45;&gt;Node25 -->
<g id="edge25" class="edge">
<title>Node23&#45;&gt;Node25</title>
<path fill="none" stroke="#63b8ff" d="M879.82,-54.08C899.39,-58.89 925.2,-65.23 947.85,-70.8"/>
<polygon fill="#63b8ff" stroke="#63b8ff" points="946.99,-74.19 957.54,-73.18 948.66,-67.4 946.99,-74.19"/>
</g>
<!-- Node35 -->
<g id="node26" class="node">
<title>Node35</title>
<g id="a_node26"><a xlink:href="LogFiles_8h.html#a2d5ec5fd5ed62d5b7b071fabe2225405" target="_top" xlink:title=" ">
<polygon fill="#fff0f0" stroke="red" points="1048.5,-56 952.5,-56 952.5,-37 1048.5,-37 1048.5,-56"/>
<text text-anchor="middle" x="1000.5" y="-44" font-family="Helvetica,sans-Serif" font-size="10.00">LogDisConnection</text>
</a>
</g>
</g>
<!-- Node23&#45;&gt;Node35 -->
<g id="edge26" class="edge">
<title>Node23&#45;&gt;Node35</title>
<path fill="none" stroke="#63b8ff" d="M879.82,-46.5C897.38,-46.5 919.97,-46.5 940.78,-46.5"/>
<polygon fill="#63b8ff" stroke="#63b8ff" points="940.6,-50 950.6,-46.5 940.6,-43 940.6,-50"/>
</g>
<!-- Node51 -->
<g id="node27" class="node">
<title>Node51</title>
<g id="a_node27"><a xlink:href="Nextion_8h.html#afe513398f72d5e48f691830a1ef6eb42" target="_top" xlink:title=" ">
<polygon fill="white" stroke="#666666" points="1029.5,-711 971.5,-711 971.5,-692 1029.5,-692 1029.5,-711"/>
<text text-anchor="middle" x="1000.5" y="-699" font-family="Helvetica,sans-Serif" font-size="10.00">SendText</text>
</a>
</g>
</g>
<!-- Node23&#45;&gt;Node51 -->
<g id="edge29" class="edge">
<title>Node23&#45;&gt;Node51</title>
<path fill="none" stroke="#63b8ff" d="M879.85,-48.67C890.69,-51.06 901.92,-55.68 909,-64.5 976.94,-149.11 922.26,-445.39 945,-551.5 955.31,-599.6 977.53,-653.13 990.19,-681.42"/>
<polygon fill="#63b8ff" stroke="#63b8ff" points="986.86,-682.57 994.19,-690.22 993.23,-679.67 986.86,-682.57"/>
</g>
<!-- Node51&#45;&gt;Node3 -->
<g id="edge31" class="edge">
<title>Node51&#45;&gt;Node3</title>
<path fill="none" stroke="#63b8ff" d="M998.43,-711.19C994.21,-744.51 975.51,-855.14 909,-906.5 827.4,-969.52 783.1,-943.5 680,-943.5 511,-943.5 511,-943.5 511,-943.5 340.94,-943.5 280.77,-670.98 266.88,-591.82"/>
<polygon fill="#63b8ff" stroke="#63b8ff" points="270.34,-591.25 265.23,-581.97 263.43,-592.41 270.34,-591.25"/>
</g>
<!-- Node51&#45;&gt;Node52 -->
<g id="edge30" class="edge">
<title>Node51&#45;&gt;Node52</title>
<path fill="none" stroke="#63b8ff" d="M1008.36,-711.24C1029.14,-740.74 1091.66,-829.52 1119.22,-868.64"/>
<polygon fill="#63b8ff" stroke="#63b8ff" points="1116.22,-870.46 1124.84,-876.62 1121.94,-866.43 1116.22,-870.46"/>
</g>
<!-- Node54 -->
<g id="node30" class="node">
<title>Node54</title>
<g id="a_node30"><a xlink:href="transceiver_8h.html#a52aa3e80bccf5e75346c93fdae63122d" target="_top" xlink:title=" ">
<polygon fill="#fff0f0" stroke="red" points="1051,-223 950,-223 950,-204 1051,-204 1051,-223"/>
<text text-anchor="middle" x="1000.5" y="-211" font-family="Helvetica,sans-Serif" font-size="10.00">HopToNextChannel</text>
</a>
</g>
</g>
<!-- Node53&#45;&gt;Node54 -->
<g id="edge33" class="edge">
<title>Node53&#45;&gt;Node54</title>
<path fill="none" stroke="#63b8ff" d="M892.38,-93.08C898.23,-95.33 903.94,-98.11 909,-101.5 927.95,-114.22 965.9,-165.77 986.11,-194.29"/>
<polygon fill="#63b8ff" stroke="#63b8ff" points="983.2,-196.23 991.82,-202.4 988.93,-192.21 983.2,-196.23"/>
</g>
<!-- Node58 -->
<g id="node32" class="node">
<title>Node58</title>
<g id="a_node32"><a xlink:href="transceiver_8h.html#ad0e30213b21808d00110752679788a8c" target="_top" xlink:title=" ">
<polygon fill="#fff0f0" stroke="red" points="1037.5,-130 963.5,-130 963.5,-111 1037.5,-111 1037.5,-130"/>
<text text-anchor="middle" x="1000.5" y="-118" font-family="Helvetica,sans-Serif" font-size="10.00">TryOtherPipe</text>
</a>
</g>
</g>
<!-- Node53&#45;&gt;Node58 -->
<g id="edge35" class="edge">
<title>Node53&#45;&gt;Node58</title>
<path fill="none" stroke="#63b8ff" d="M889.33,-93.42C908.64,-98.16 931.88,-103.88 952.03,-108.83"/>
<polygon fill="#63b8ff" stroke="#63b8ff" points="951.16,-112.22 961.71,-111.21 952.83,-105.42 951.16,-112.22"/>
</g>
<!-- Node54&#45;&gt;Node57 -->
<g id="edge34" class="edge">
<title>Node54&#45;&gt;Node57</title>
<path fill="none" stroke="#63b8ff" d="M1019.04,-223.45C1030.88,-230.93 1046.1,-242.17 1056,-255.5 1098.7,-312.98 1120.36,-397.15 1128.54,-435.75"/>
<polygon fill="#63b8ff" stroke="#63b8ff" points="1125.06,-436.2 1130.46,-445.31 1131.92,-434.82 1125.06,-436.2"/>
</g>
<!-- Node60&#45;&gt;Node57 -->
<g id="edge37" class="edge">
<title>Node60&#45;&gt;Node57</title>
<path fill="none" stroke="#63b8ff" d="M1026.65,-522.56C1036.04,-518.55 1046.69,-513.66 1056,-508.5 1075.13,-497.9 1095.55,-483.87 1110.48,-473.05"/>
<polygon fill="#63b8ff" stroke="#63b8ff" points="1112.22,-476.11 1118.21,-467.37 1108.08,-470.47 1112.22,-476.11"/>
</g>
<!-- Node62 -->
<g id="node35" class="node">
<title>Node62</title>
<g id="a_node35"><a xlink:href="transceiver_8h.html#adac102739147db6397bbcbb371aec4fd" target="_top" xlink:title=" ">
<polygon fill="white" stroke="#666666" points="892.5,-391 803.5,-391 803.5,-372 892.5,-372 892.5,-391"/>
<text text-anchor="middle" x="848" y="-379" font-family="Helvetica,sans-Serif" font-size="10.00">LoadParameters</text>
</a>
</g>
</g>
<!-- Node61&#45;&gt;Node62 -->
<g id="edge40" class="edge">
<title>Node61&#45;&gt;Node62</title>
<path fill="none" stroke="#63b8ff" d="M738.88,-387.97C756.05,-386.95 774.74,-385.83 791.68,-384.81"/>
<polygon fill="#63b8ff" stroke="#63b8ff" points="791.8,-388.31 801.57,-384.22 791.38,-381.32 791.8,-388.31"/>
</g>
<!-- Node63 -->
<g id="node36" class="node">
<title>Node63</title>
<g id="a_node36"><a xlink:href="TransmitterCode_2src_2main_8cpp.html#a5aa4888b924a4f1d95e9cedc3004f2b6" target="_top" xlink:title=" ">
<polygon fill="white" stroke="#666666" points="1042,-353 959,-353 959,-334 1042,-334 1042,-353"/>
<text text-anchor="middle" x="1000.5" y="-341" font-family="Helvetica,sans-Serif" font-size="10.00">MakeTwobytes</text>
</a>
</g>
</g>
<!-- Node62&#45;&gt;Node63 -->
<g id="edge41" class="edge">
<title>Node62&#45;&gt;Node63</title>
<path fill="none" stroke="#63b8ff" d="M888.54,-371.52C907.05,-366.84 929.3,-361.22 949.01,-356.25"/>
<polygon fill="#63b8ff" stroke="#63b8ff" points="949.65,-359.7 958.49,-353.85 947.94,-352.91 949.65,-359.7"/>
</g>
<!-- Node64&#45;&gt;Node57 -->
<g id="edge51" class="edge">
<title>Node64&#45;&gt;Node57</title>
<path fill="none" stroke="#63b8ff" d="M730.47,-457.09C748.27,-460.18 768.47,-463.36 787,-465.5 905.85,-479.22 937.25,-490.03 1056,-475.5 1070.18,-473.77 1085.52,-470.28 1098.72,-466.77"/>
<polygon fill="#63b8ff" stroke="#63b8ff" points="1099.52,-470.18 1108.22,-464.12 1097.64,-463.44 1099.52,-470.18"/>
</g>
<!-- Node65 -->
<g id="node38" class="node">
<title>Node65</title>
<g id="a_node38"><a xlink:href="BuddyWireless_8h.html#ace84aff90c63bee9a876eda720fbf8bc" target="_top" xlink:title=" ">
<polygon fill="white" stroke="#666666" points="1045.5,-466 955.5,-466 955.5,-447 1045.5,-447 1045.5,-466"/>
<text text-anchor="middle" x="1000.5" y="-454" font-family="Helvetica,sans-Serif" font-size="10.00">ChangeTXTarget</text>
</a>
</g>
</g>
<!-- Node64&#45;&gt;Node65 -->
<g id="edge43" class="edge">
<title>Node64&#45;&gt;Node65</title>
<path fill="none" stroke="#63b8ff" d="M730.27,-448.92C788.39,-450.55 883.74,-453.24 943.99,-454.94"/>
<polygon fill="#63b8ff" stroke="#63b8ff" points="943.57,-458.43 953.67,-455.21 943.77,-451.43 943.57,-458.43"/>
</g>
<!-- Node66 -->
<g id="node39" class="node">
<title>Node66</title>
<g id="a_node39"><a xlink:href="BuddyWireless_8h.html#af59c2527be7a67d6b09dd467f3123d55" target="_top" xlink:title=" ">
<polygon fill="white" stroke="#666666" points="883.5,-428 812.5,-428 812.5,-409 883.5,-409 883.5,-428"/>
<text text-anchor="middle" x="848" y="-416" font-family="Helvetica,sans-Serif" font-size="10.00">GetPupilAck</text>
</a>
</g>
</g>
<!-- Node64&#45;&gt;Node66 -->
<g id="edge45" class="edge">
<title>Node64&#45;&gt;Node66</title>
<path fill="none" stroke="#63b8ff" d="M730.11,-438.8C752.6,-434.89 778.98,-430.31 800.97,-426.49"/>
<polygon fill="#63b8ff" stroke="#63b8ff" points="801.29,-429.99 810.54,-424.83 800.09,-423.09 801.29,-429.99"/>
</g>
<!-- Node68 -->
<g id="node41" class="node">
<title>Node68</title>
<g id="a_node41"><a xlink:href="BuddyWireless_8h.html#a89fc05df708fec875356b62d21b2ce7b" target="_top" xlink:title=" ">
<polygon fill="white" stroke="#666666" points="886.5,-618 809.5,-618 809.5,-599 886.5,-599 886.5,-618"/>
<text text-anchor="middle" x="848" y="-606" font-family="Helvetica,sans-Serif" font-size="10.00">PupilDetected</text>
</a>
</g>
</g>
<!-- Node64&#45;&gt;Node68 -->
<g id="edge48" class="edge">
<title>Node64&#45;&gt;Node68</title>
<path fill="none" stroke="#63b8ff" d="M730.16,-456.05C737.55,-458.66 744.76,-462.06 751,-466.5 774.07,-482.93 815.93,-553.47 835.86,-588.54"/>
<polygon fill="#63b8ff" stroke="#63b8ff" points="832.81,-590.26 840.77,-597.25 838.91,-586.82 832.81,-590.26"/>
</g>
<!-- Node65&#45;&gt;Node57 -->
<g id="edge44" class="edge">
<title>Node65&#45;&gt;Node57</title>
<path fill="none" stroke="#63b8ff" d="M1045.85,-456.5C1062.89,-456.5 1082.06,-456.5 1098.03,-456.5"/>
<polygon fill="#63b8ff" stroke="#63b8ff" points="1098.02,-460 1108.02,-456.5 1098.02,-453 1098.02,-460"/>
</g>
<!-- Node66&#45;&gt;Node57 -->
<g id="edge47" class="edge">
<title>Node66&#45;&gt;Node57</title>
<path fill="none" stroke="#63b8ff" d="M880.37,-408.56C921.69,-397.11 996.11,-382.21 1056,-401.5 1078.95,-408.89 1100.83,-426.01 1115.27,-439.2"/>
<polygon fill="#63b8ff" stroke="#63b8ff" points="1112.49,-441.38 1122.14,-445.74 1117.31,-436.31 1112.49,-441.38"/>
</g>
<!-- Node67 -->
<g id="node40" class="node">
<title>Node67</title>
<g id="a_node40"><a xlink:href="transceiver_8h.html#a6feccc8c0583de3235616d42076f1371" target="_top" xlink:title=" ">
<polygon fill="white" stroke="#666666" points="1036,-429 965,-429 965,-410 1036,-410 1036,-429"/>
<text text-anchor="middle" x="1000.5" y="-417" font-family="Helvetica,sans-Serif" font-size="10.00">Decompress</text>
</a>
</g>
</g>
<!-- Node66&#45;&gt;Node67 -->
<g id="edge46" class="edge">
<title>Node66&#45;&gt;Node67</title>
<path fill="none" stroke="#63b8ff" d="M883.91,-418.73C904.54,-418.87 930.91,-419.04 953.26,-419.19"/>
<polygon fill="#63b8ff" stroke="#63b8ff" points="952.99,-422.69 963.01,-419.26 953.03,-415.69 952.99,-422.69"/>
</g>
<!-- Node68&#45;&gt;Node3 -->
<g id="edge49" class="edge">
<title>Node68&#45;&gt;Node3</title>
<path fill="none" stroke="#63b8ff" d="M809.24,-609.73C724.71,-611.9 513.99,-614.1 340,-589.5 329.55,-588.02 318.46,-585.71 308.05,-583.2"/>
<polygon fill="#63b8ff" stroke="#63b8ff" points="309.12,-579.86 298.57,-580.8 307.4,-586.65 309.12,-579.86"/>
</g>
<!-- Node68&#45;&gt;Node51 -->
<g id="edge50" class="edge">
<title>Node68&#45;&gt;Node51</title>
<path fill="none" stroke="#63b8ff" d="M865.11,-618.45C891.13,-634.53 942.65,-666.37 973.8,-685.62"/>
<polygon fill="#63b8ff" stroke="#63b8ff" points="971.88,-688.54 982.22,-690.82 975.56,-682.59 971.88,-688.54"/>
</g>
<!-- Node70&#45;&gt;Node22 -->
<g id="edge63" class="edge">
<title>Node70&#45;&gt;Node22</title>
<path fill="none" stroke="#63b8ff" d="M727.22,-284.21C736.02,-281.32 744.49,-276.98 751,-270.5 794.1,-227.6 744.55,-182.04 787,-138.5 787.6,-137.89 788.22,-137.29 788.85,-136.72"/>
<polygon fill="#63b8ff" stroke="#63b8ff" points="790.55,-139.8 796.76,-131.21 786.55,-134.06 790.55,-139.8"/>
</g>
<!-- Node70&#45;&gt;Node57 -->
<g id="edge62" class="edge">
<title>Node70&#45;&gt;Node57</title>
<path fill="none" stroke="#63b8ff" d="M727.07,-279.52C804.14,-266.05 958.4,-251.4 1056,-324.5 1094.2,-353.11 1116.52,-406.83 1126.39,-436.15"/>
<polygon fill="#63b8ff" stroke="#63b8ff" points="1122.94,-436.84 1129.32,-445.3 1129.61,-434.71 1122.94,-436.84"/>
</g>
<!-- Node71 -->
<g id="node44" class="node">
<title>Node71</title>
<g id="a_node44"><a xlink:href="transceiver_8h.html#a953f1d5046e183549ed95b08f6d675e3" target="_top" xlink:title=" ">
<polygon fill="#fff0f0" stroke="red" points="897,-317 799,-317 799,-298 897,-298 897,-317"/>
<text text-anchor="middle" x="848" y="-305" font-family="Helvetica,sans-Serif" font-size="10.00">CheckGapsLength</text>
</a>
</g>
</g>
<!-- Node70&#45;&gt;Node71 -->
<g id="edge54" class="edge">
<title>Node70&#45;&gt;Node71</title>
<path fill="none" stroke="#63b8ff" d="M727.41,-294.61C746.03,-296.62 767.62,-298.94 787.28,-301.06"/>
<polygon fill="#63b8ff" stroke="#63b8ff" points="786.78,-304.53 797.1,-302.12 787.53,-297.57 786.78,-304.53"/>
</g>
<!-- Node73 -->
<g id="node45" class="node">
<title>Node73</title>
<g id="a_node45"><a xlink:href="TransmitterCode_2src_2main_8cpp.html#a62e53eb9359c32b666e3386d62c57037" target="_top" xlink:title=" ">
<polygon fill="#fff0f0" stroke="red" points="884,-167 812,-167 812,-148 884,-148 884,-167"/>
<text text-anchor="middle" x="848" y="-155" font-family="Helvetica,sans-Serif" font-size="10.00">GreenLedOn</text>
</a>
</g>
</g>
<!-- Node70&#45;&gt;Node73 -->
<g id="edge55" class="edge">
<title>Node70&#45;&gt;Node73</title>
<path fill="none" stroke="#63b8ff" d="M727.48,-283.47C736.06,-280.62 744.37,-276.49 751,-270.5 784.49,-240.22 753.96,-206.28 787,-175.5 791.02,-171.76 795.78,-168.79 800.84,-166.44"/>
<polygon fill="#63b8ff" stroke="#63b8ff" points="801.96,-169.76 810.09,-162.96 799.5,-163.21 801.96,-169.76"/>
</g>
<!-- Node124 -->
<g id="node46" class="node">
<title>Node124</title>
<g id="a_node46"><a xlink:href="transceiver_8h.html#a694f4f5a0147f4dc29b0bc1a8951547d" target="_top" xlink:title=" ">
<polygon fill="#fff0f0" stroke="red" points="895,-241 801,-241 801,-222 895,-222 895,-241"/>
<text text-anchor="middle" x="848" y="-229" font-family="Helvetica,sans-Serif" font-size="10.00">ParseAckPayload</text>
</a>
</g>
</g>
<!-- Node70&#45;&gt;Node124 -->
<g id="edge58" class="edge">
<title>Node70&#45;&gt;Node124</title>
<path fill="none" stroke="#63b8ff" d="M720.83,-279.57C730.78,-276.88 741.34,-273.79 751,-270.5 767.41,-264.91 770.95,-262.05 787,-255.5 794.85,-252.29 803.3,-248.89 811.31,-245.68"/>
<polygon fill="#63b8ff" stroke="#63b8ff" points="812.47,-248.98 820.46,-242.02 809.87,-242.48 812.47,-248.98"/>
</g>
<!-- Node247 -->
<g id="node47" class="node">
<title>Node247</title>
<g id="a_node47"><a xlink:href="transceiver_8h.html#a04937e814dba3f5e07cb34bb13130ff3" target="_top" xlink:title=" ">
<polygon fill="white" stroke="#666666" points="906.5,-204 789.5,-204 789.5,-185 906.5,-185 906.5,-204"/>
<text text-anchor="middle" x="848" y="-192" font-family="Helvetica,sans-Serif" font-size="10.00">ParseShortAckPayload</text>
</a>
</g>
</g>
<!-- Node70&#45;&gt;Node247 -->
<g id="edge60" class="edge">
<title>Node70&#45;&gt;Node247</title>
<path fill="none" stroke="#63b8ff" d="M727.36,-282.18C735.76,-279.43 744.03,-275.67 751,-270.5 775.36,-252.42 762.91,-230.94 787,-212.5 788.32,-211.49 789.7,-210.53 791.12,-209.63"/>
<polygon fill="#63b8ff" stroke="#63b8ff" points="792.48,-212.87 799.71,-205.12 789.23,-206.67 792.48,-212.87"/>
</g>
<!-- Node121 -->
<g id="node48" class="node">
<title>Node121</title>
<g id="a_node48"><a xlink:href="Utilities_8h.html#a793b7bcd77531c95fe72ed4356d421c8" target="_top" xlink:title=" ">
<polygon fill="white" stroke="#666666" points="903,-354 793,-354 793,-335 903,-335 903,-354"/>
<text text-anchor="middle" x="848" y="-342" font-family="Helvetica,sans-Serif" font-size="10.00">StartInactvityTimeout</text>
</a>
</g>
</g>
<!-- Node70&#45;&gt;Node121 -->
<g id="edge64" class="edge">
<title>Node70&#45;&gt;Node121</title>
<path fill="none" stroke="#63b8ff" d="M709.02,-299.42C730.52,-306.73 760.54,-316.86 787,-325.5 792.57,-327.32 798.44,-329.21 804.24,-331.06"/>
<polygon fill="#63b8ff" stroke="#63b8ff" points="803.17,-334.4 813.76,-334.09 805.29,-327.72 803.17,-334.4"/>
</g>
<!-- Node73&#45;&gt;Node2 -->
<g id="edge57" class="edge">
<title>Node73&#45;&gt;Node2</title>
<path fill="none" stroke="#63b8ff" d="M811.9,-157.67C751.04,-157.96 622.01,-158.5 513,-158.5 377.5,-158.5 377.5,-158.5 377.5,-158.5 314.37,-158.5 241.54,-166.15 196.76,-171.75"/>
<polygon fill="#63b8ff" stroke="#63b8ff" points="196.43,-168.26 186.96,-173 197.32,-175.2 196.43,-168.26"/>
</g>
<!-- Node73&#45;&gt;Node25 -->
<g id="edge56" class="edge">
<title>Node73&#45;&gt;Node25</title>
<path fill="none" stroke="#63b8ff" d="M884.22,-149.52C892.7,-146.76 901.47,-143.15 909,-138.5 928.53,-126.45 925.55,-113.67 945,-101.5 946.98,-100.26 949.05,-99.1 951.19,-98.01"/>
<polygon fill="#63b8ff" stroke="#63b8ff" points="952.4,-101.3 960.11,-94.04 949.55,-94.91 952.4,-101.3"/>
</g>
<!-- Node124&#45;&gt;Node54 -->
<g id="edge59" class="edge">
<title>Node124&#45;&gt;Node54</title>
<path fill="none" stroke="#63b8ff" d="M895.38,-225.95C908.94,-224.33 923.98,-222.53 938.31,-220.82"/>
<polygon fill="#63b8ff" stroke="#63b8ff" points="938.6,-224.31 948.11,-219.65 937.76,-217.36 938.6,-224.31"/>
</g>
<!-- Node247&#45;&gt;Node54 -->
<g id="edge61" class="edge">
<title>Node247&#45;&gt;Node54</title>
<path fill="none" stroke="#63b8ff" d="M906.76,-201.79C917.11,-203.1 927.92,-204.46 938.36,-205.78"/>
<polygon fill="#63b8ff" stroke="#63b8ff" points="937.64,-209.22 948,-207 938.52,-202.27 937.64,-209.22"/>
</g>
</g>
</svg>
