<?xml version="1.0" encoding="UTF-8" standalone="no"?>
<!DOCTYPE svg PUBLIC "-//W3C//DTD SVG 1.1//EN"
 "http://www.w3.org/Graphics/SVG/1.1/DTD/svg11.dtd">
<!-- Generated by graphviz version 7.0.5 (20221223.1930)
 -->
<!-- Title: ScanAllChannels Pages: 1 -->
<svg width="1556pt" height="566pt"
 viewBox="0.00 0.00 1556.00 566.00" xmlns="http://www.w3.org/2000/svg" xmlns:xlink="http://www.w3.org/1999/xlink">
<g id="graph0" class="graph" transform="scale(1 1) rotate(0) translate(4 562)">
<title>ScanAllChannels</title>
<!-- Node1 -->
<g id="node1" class="node">
<title>Node1</title>
<g id="a_node1"><a xlink:title=" ">
<polygon fill="#999999" stroke="#666666" points="1548,-28.5 1457,-28.5 1457,-9.5 1548,-9.5 1548,-28.5"/>
<text text-anchor="middle" x="1502.5" y="-16.5" font-family="Helvetica,sans-Serif" font-size="10.00">ScanAllChannels</text>
</a>
</g>
</g>
<!-- Node2 -->
<g id="node2" class="node">
<title>Node2</title>
<g id="a_node2"><a xlink:href="transceiver_8h.html#a77c4a4ffa609df08830ccece07bf283b" target="_top" xlink:title=" ">
<polygon fill="white" stroke="#666666" points="1421,-195.5 1356,-195.5 1356,-176.5 1421,-176.5 1421,-195.5"/>
<text text-anchor="middle" x="1388.5" y="-183.5" font-family="Helvetica,sans-Serif" font-size="10.00">DoScanInit</text>
</a>
</g>
</g>
<!-- Node1&#45;&gt;Node2 -->
<g id="edge1" class="edge">
<title>Node1&#45;&gt;Node2</title>
<path fill="none" stroke="#63b8ff" d="M1488.56,-38.3C1464.55,-74.09 1413.96,-149.53 1396,-176.31"/>
<polygon fill="#63b8ff" stroke="#63b8ff" points="1491.32,-40.46 1493.99,-30.2 1485.51,-36.56 1491.32,-40.46"/>
</g>
<!-- Node17 -->
<g id="node17" class="node">
<title>Node17</title>
<g id="a_node17"><a xlink:href="TransmitterCode_2src_2main_8cpp.html#ad3cb30894c94eb016e98bdcaa899ac86" target="_top" xlink:title=" ">
<polygon fill="white" stroke="#666666" points="35,-47.5 0,-47.5 0,-28.5 35,-28.5 35,-47.5"/>
<text text-anchor="middle" x="17.5" y="-35.5" font-family="Helvetica,sans-Serif" font-size="10.00">loop</text>
</a>
</g>
</g>
<!-- Node1&#45;&gt;Node17 -->
<g id="edge39" class="edge">
<title>Node1&#45;&gt;Node17</title>
<path fill="none" stroke="#63b8ff" d="M1445.48,-11.8C1398.77,-6.43 1330.41,0 1270.5,0 1270.5,0 1270.5,0 213,0 146.25,0 68.97,-21.82 35.45,-32.39"/>
<polygon fill="#63b8ff" stroke="#63b8ff" points="1445.03,-15.28 1455.37,-12.97 1445.85,-8.32 1445.03,-15.28"/>
</g>
<!-- Node3 -->
<g id="node3" class="node">
<title>Node3</title>
<g id="a_node3"><a xlink:href="TransmitterCode_2src_2main_8cpp.html#a804fdbdd5eab4c596bbe8a23eecbe4d5" target="_top" xlink:title=" ">
<polygon fill="white" stroke="#666666" points="1320,-382.5 1219,-382.5 1219,-363.5 1320,-363.5 1320,-382.5"/>
<text text-anchor="middle" x="1269.5" y="-370.5" font-family="Helvetica,sans-Serif" font-size="10.00">ButtonWasPressed</text>
</a>
</g>
</g>
<!-- Node2&#45;&gt;Node3 -->
<g id="edge2" class="edge">
<title>Node2&#45;&gt;Node3</title>
<path fill="none" stroke="#63b8ff" d="M1375.4,-205.34C1350.64,-244.91 1295,-333.84 1276.57,-363.31"/>
<polygon fill="#63b8ff" stroke="#63b8ff" points="1378.23,-207.41 1380.57,-197.07 1372.3,-203.69 1378.23,-207.41"/>
</g>
<!-- Node4 -->
<g id="node4" class="node">
<title>Node4</title>
<g id="a_node4"><a xlink:href="Utilities_8h.html#afb7c85cac4aa89fd998ed81c330374d2" target="_top" xlink:title=" ">
<polygon fill="white" stroke="#666666" points="1183,-325.5 1037,-325.5 1037,-306.5 1183,-306.5 1183,-325.5"/>
<text text-anchor="middle" x="1110" y="-313.5" font-family="Helvetica,sans-Serif" font-size="10.00">CheckForNextionButtonPress</text>
</a>
</g>
</g>
<!-- Node3&#45;&gt;Node4 -->
<g id="edge3" class="edge">
<title>Node3&#45;&gt;Node4</title>
<path fill="none" stroke="#63b8ff" d="M1232.96,-358.86C1217.65,-352.88 1199.51,-345.93 1183,-340 1169.61,-335.19 1154.7,-330.16 1141.94,-325.96"/>
<polygon fill="#63b8ff" stroke="#63b8ff" points="1231.55,-362.06 1242.14,-362.46 1234.11,-355.55 1231.55,-362.06"/>
</g>
<!-- Node19 -->
<g id="node19" class="node">
<title>Node19</title>
<g id="a_node19"><a xlink:href="ModelExchange_8h.html#ab7c9edf843c732d7fe296564f39bc0dc" target="_top" xlink:title="RECEIVE A MODEL FILE.">
<polygon fill="white" stroke="#666666" points="843,-529.5 749,-529.5 749,-510.5 843,-510.5 843,-529.5"/>
<text text-anchor="middle" x="796" y="-517.5" font-family="Helvetica,sans-Serif" font-size="10.00">ReceiveModelFile</text>
</a>
</g>
</g>
<!-- Node3&#45;&gt;Node19 -->
<g id="edge38" class="edge">
<title>Node3&#45;&gt;Node19</title>
<path fill="none" stroke="#63b8ff" d="M1227.2,-386.46C1153.59,-410.35 994.81,-461.46 860,-502 851.07,-504.69 841.39,-507.5 832.37,-510.08"/>
<polygon fill="#63b8ff" stroke="#63b8ff" points="1227.97,-389.89 1236.4,-383.47 1225.81,-383.23 1227.97,-389.89"/>
</g>
<!-- Node5 -->
<g id="node5" class="node">
<title>Node5</title>
<g id="a_node5"><a xlink:href="TransmitterCode_2src_2main_8cpp.html#a641d6dab68ec7b2a8a32492aac55bc1c" target="_top" xlink:title=" ">
<polygon fill="white" stroke="#666666" points="1001,-401.5 896,-401.5 896,-382.5 1001,-382.5 1001,-401.5"/>
<text text-anchor="middle" x="948.5" y="-389.5" font-family="Helvetica,sans-Serif" font-size="10.00">GetBackupFilename</text>
</a>
</g>
</g>
<!-- Node4&#45;&gt;Node5 -->
<g id="edge4" class="edge">
<title>Node4&#45;&gt;Node5</title>
<path fill="none" stroke="#63b8ff" d="M1078.08,-330.73C1046.34,-345.86 997.82,-368.97 970.36,-382.06"/>
<polygon fill="#63b8ff" stroke="#63b8ff" points="1079.26,-334.05 1086.78,-326.59 1076.25,-327.73 1079.26,-334.05"/>
</g>
<!-- Node7 -->
<g id="node7" class="node">
<title>Node7</title>
<g id="a_node7"><a xlink:href="TransmitterCode_2src_2main_8cpp.html#a6506bf72e0dd9e9ce480156b47625bff" target="_top" xlink:title=" ">
<polygon fill="white" stroke="#666666" points="991.5,-344.5 905.5,-344.5 905.5,-325.5 991.5,-325.5 991.5,-344.5"/>
<text text-anchor="middle" x="948.5" y="-332.5" font-family="Helvetica,sans-Serif" font-size="10.00">GetConfirmation</text>
</a>
</g>
</g>
<!-- Node4&#45;&gt;Node7 -->
<g id="edge7" class="edge">
<title>Node4&#45;&gt;Node7</title>
<path fill="none" stroke="#63b8ff" d="M1025.55,-325.94C1013.89,-327.33 1002.35,-328.7 991.9,-329.95"/>
<polygon fill="#63b8ff" stroke="#63b8ff" points="1025.7,-329.45 1035.21,-324.79 1024.87,-322.5 1025.7,-329.45"/>
</g>
<!-- Node24 -->
<g id="node24" class="node">
<title>Node24</title>
<g id="a_node24"><a xlink:href="TransmitterCode_2src_2main_8cpp.html#a558ea014e230b7caa54ce5a37ad29b22" target="_top" xlink:title=" ">
<polygon fill="white" stroke="#666666" points="538,-47.5 437,-47.5 437,-28.5 538,-28.5 538,-47.5"/>
<text text-anchor="middle" x="487.5" y="-35.5" font-family="Helvetica,sans-Serif" font-size="10.00">ManageTransmitter</text>
</a>
</g>
</g>
<!-- Node4&#45;&gt;Node24 -->
<g id="edge27" class="edge">
<title>Node4&#45;&gt;Node24</title>
<path fill="none" stroke="#63b8ff" d="M1098.34,-296.02C1068.93,-243.47 980.78,-102.33 860,-57 751.01,-16.1 611.33,-23.38 538.2,-31.26"/>
<polygon fill="#63b8ff" stroke="#63b8ff" points="1095.25,-297.67 1103.12,-304.76 1101.39,-294.3 1095.25,-297.67"/>
</g>
<!-- Node25 -->
<g id="node25" class="node">
<title>Node25</title>
<g id="a_node25"><a xlink:href="TransmitterCode_2src_2main_8cpp.html#a6f5b0f1e4ca75768c16c4dd93f92a8de" target="_top" xlink:title=" ">
<polygon fill="white" stroke="#666666" points="974.5,-196.5 922.5,-196.5 922.5,-177.5 974.5,-177.5 974.5,-196.5"/>
<text text-anchor="middle" x="948.5" y="-184.5" font-family="Helvetica,sans-Serif" font-size="10.00">MsgBox</text>
</a>
</g>
</g>
<!-- Node4&#45;&gt;Node25 -->
<g id="edge29" class="edge">
<title>Node4&#45;&gt;Node25</title>
<path fill="none" stroke="#63b8ff" d="M1088.11,-299.11C1054.29,-271.76 988.61,-218.63 961.57,-196.77"/>
<polygon fill="#63b8ff" stroke="#63b8ff" points="1085.6,-301.57 1095.57,-305.14 1090,-296.13 1085.6,-301.57"/>
</g>
<!-- Node5&#45;&gt;Node3 -->
<g id="edge5" class="edge">
<title>Node5&#45;&gt;Node3</title>
<path fill="none" stroke="#63b8ff" d="M1012.68,-388.24C1073.13,-384.64 1163.1,-379.28 1218.66,-375.97"/>
<polygon fill="#63b8ff" stroke="#63b8ff" points="1012.66,-384.73 1002.88,-388.82 1013.08,-391.72 1012.66,-384.73"/>
</g>
<!-- Node6 -->
<g id="node6" class="node">
<title>Node6</title>
<g id="a_node6"><a xlink:href="TransmitterCode_2src_2main_8cpp.html#a9d94366336f1e5fd43edb9c24bec5821" target="_top" xlink:title=" ">
<polygon fill="white" stroke="#666666" points="830,-492.5 762,-492.5 762,-473.5 830,-473.5 830,-492.5"/>
<text text-anchor="middle" x="796" y="-480.5" font-family="Helvetica,sans-Serif" font-size="10.00">RenameFile</text>
</a>
</g>
</g>
<!-- Node5&#45;&gt;Node6 -->
<g id="edge6" class="edge">
<title>Node5&#45;&gt;Node6</title>
<path fill="none" stroke="#63b8ff" d="M931.12,-409.35C914.62,-425.88 887.7,-450.34 860,-465 850.85,-469.84 840.25,-473.52 830.38,-476.24"/>
<polygon fill="#63b8ff" stroke="#63b8ff" points="933.21,-412.22 937.69,-402.61 928.2,-407.33 933.21,-412.22"/>
</g>
<!-- Node7&#45;&gt;Node3 -->
<g id="edge8" class="edge">
<title>Node7&#45;&gt;Node3</title>
<path fill="none" stroke="#63b8ff" d="M1003.01,-341.37C1063.16,-348.54 1160.05,-360.08 1218.66,-367.06"/>
<polygon fill="#63b8ff" stroke="#63b8ff" points="1003.71,-337.93 993.36,-340.23 1002.88,-344.88 1003.71,-337.93"/>
</g>
<!-- Node7&#45;&gt;Node6 -->
<g id="edge22" class="edge">
<title>Node7&#45;&gt;Node6</title>
<path fill="none" stroke="#63b8ff" d="M920.29,-351.35C911.64,-357.58 902.61,-365.31 896,-374 869.69,-408.63 892.23,-435.79 860,-465 851.82,-472.41 840.8,-476.79 830.26,-479.37"/>
<polygon fill="#63b8ff" stroke="#63b8ff" points="922.16,-354.31 928.5,-345.82 918.25,-348.51 922.16,-354.31"/>
</g>
<!-- Node8 -->
<g id="node8" class="node">
<title>Node8</title>
<g id="a_node8"><a xlink:href="TransmitterCode_2src_2main_8cpp.html#ac45477c637c975e13189e2988c8813b3" target="_top" xlink:title=" ">
<polygon fill="white" stroke="#666666" points="836,-270.5 756,-270.5 756,-251.5 836,-251.5 836,-270.5"/>
<text text-anchor="middle" x="796" y="-258.5" font-family="Helvetica,sans-Serif" font-size="10.00">DeleteModelID</text>
</a>
</g>
</g>
<!-- Node7&#45;&gt;Node8 -->
<g id="edge9" class="edge">
<title>Node7&#45;&gt;Node8</title>
<path fill="none" stroke="#63b8ff" d="M925.72,-318.51C908.61,-306.2 883.78,-289.73 860,-279 852.53,-275.63 844.28,-272.73 836.28,-270.31"/>
<polygon fill="#63b8ff" stroke="#63b8ff" points="923.49,-321.21 933.62,-324.31 927.63,-315.57 923.49,-321.21"/>
</g>
<!-- Node9 -->
<g id="node9" class="node">
<title>Node9</title>
<g id="a_node9"><a xlink:href="TransmitterCode_2src_2main_8cpp.html#a53d438145d004c3b053f245f494f4284" target="_top" xlink:title=" ">
<polygon fill="white" stroke="#666666" points="822,-455.5 770,-455.5 770,-436.5 822,-436.5 822,-455.5"/>
<text text-anchor="middle" x="796" y="-443.5" font-family="Helvetica,sans-Serif" font-size="10.00">DelLOG</text>
</a>
</g>
</g>
<!-- Node7&#45;&gt;Node9 -->
<g id="edge10" class="edge">
<title>Node7&#45;&gt;Node9</title>
<path fill="none" stroke="#63b8ff" d="M922.74,-351.16C913.77,-357.66 903.9,-365.61 896,-374 876.23,-395 883.3,-410.99 860,-428 849.07,-435.98 834.68,-440.43 822.42,-442.91"/>
<polygon fill="#63b8ff" stroke="#63b8ff" points="924.54,-354.17 930.75,-345.59 920.54,-348.43 924.54,-354.17"/>
</g>
<!-- Node10 -->
<g id="node10" class="node">
<title>Node10</title>
<g id="a_node10"><a xlink:href="TransmitterCode_2src_2main_8cpp.html#a16c65917a148c7f6c17babf11e977b69" target="_top" xlink:title=" ">
<polygon fill="white" stroke="#666666" points="837,-418.5 755,-418.5 755,-399.5 837,-399.5 837,-418.5"/>
<text text-anchor="middle" x="796" y="-406.5" font-family="Helvetica,sans-Serif" font-size="10.00">EndBuddyView</text>
</a>
</g>
</g>
<!-- Node7&#45;&gt;Node10 -->
<g id="edge11" class="edge">
<title>Node7&#45;&gt;Node10</title>
<path fill="none" stroke="#63b8ff" d="M925.72,-351.49C908.61,-363.8 883.78,-380.27 860,-391 852.85,-394.23 844.97,-397.02 837.28,-399.38"/>
<polygon fill="#63b8ff" stroke="#63b8ff" points="927.63,-354.43 933.62,-345.69 923.49,-348.79 927.63,-354.43"/>
</g>
<!-- Node11 -->
<g id="node11" class="node">
<title>Node11</title>
<g id="a_node11"><a xlink:href="ModelMatch_8h.html#afdd42b1130d38073be1c2025af855879" target="_top" xlink:title=" ">
<polygon fill="white" stroke="#666666" points="830.5,-233.5 761.5,-233.5 761.5,-214.5 830.5,-214.5 830.5,-233.5"/>
<text text-anchor="middle" x="796" y="-221.5" font-family="Helvetica,sans-Serif" font-size="10.00">IDNotFound</text>
</a>
</g>
</g>
<!-- Node7&#45;&gt;Node11 -->
<g id="edge12" class="edge">
<title>Node7&#45;&gt;Node11</title>
<path fill="none" stroke="#63b8ff" d="M934.51,-315.97C919.13,-294.85 891.57,-261.23 860,-242 851.16,-236.62 840.64,-232.78 830.76,-230.08"/>
<polygon fill="#63b8ff" stroke="#63b8ff" points="931.55,-317.84 940.18,-323.98 937.26,-313.79 931.55,-317.84"/>
</g>
<!-- Node18 -->
<g id="node18" class="node">
<title>Node18</title>
<g id="a_node18"><a xlink:href="TransmitterCode_2src_2main_8cpp.html#ae9f91b9da28f2e1e2fb126961f03c31c" target="_top" xlink:title=" ">
<polygon fill="white" stroke="#666666" points="836.5,-381.5 755.5,-381.5 755.5,-362.5 836.5,-362.5 836.5,-381.5"/>
<text text-anchor="middle" x="796" y="-369.5" font-family="Helvetica,sans-Serif" font-size="10.00">ModelViewEnd</text>
</a>
</g>
</g>
<!-- Node7&#45;&gt;Node18 -->
<g id="edge20" class="edge">
<title>Node7&#45;&gt;Node18</title>
<path fill="none" stroke="#63b8ff" d="M896.1,-347.64C876.75,-352.39 855.06,-357.73 836.92,-362.19"/>
<polygon fill="#63b8ff" stroke="#63b8ff" points="896.82,-351.06 905.7,-345.28 895.15,-344.27 896.82,-351.06"/>
</g>
<!-- Node7&#45;&gt;Node19 -->
<g id="edge21" class="edge">
<title>Node7&#45;&gt;Node19</title>
<path fill="none" stroke="#63b8ff" d="M919.38,-351.25C910.81,-357.41 902.06,-365.11 896,-374 862.71,-422.83 901.7,-460.13 860,-502 855.34,-506.67 849.56,-510.16 843.41,-512.74"/>
<polygon fill="#63b8ff" stroke="#63b8ff" points="921.17,-354.26 927.57,-345.81 917.3,-348.43 921.17,-354.26"/>
</g>
<!-- Node20 -->
<g id="node20" class="node">
<title>Node20</title>
<g id="a_node20"><a xlink:href="TransmitterCode_2src_2main_8cpp.html#a75875d66db3193e4034c3768c175f8ef" target="_top" xlink:title=" ">
<polygon fill="white" stroke="#666666" points="829.5,-196.5 762.5,-196.5 762.5,-177.5 829.5,-177.5 829.5,-196.5"/>
<text text-anchor="middle" x="796" y="-184.5" font-family="Helvetica,sans-Serif" font-size="10.00">ResetClock</text>
</a>
</g>
</g>
<!-- Node7&#45;&gt;Node20 -->
<g id="edge23" class="edge">
<title>Node7&#45;&gt;Node20</title>
<path fill="none" stroke="#63b8ff" d="M939.27,-314.7C926.57,-285.95 899.46,-233.67 860,-205 851.17,-198.58 840.1,-194.45 829.71,-191.78"/>
<polygon fill="#63b8ff" stroke="#63b8ff" points="935.97,-315.9 943.1,-323.73 942.42,-313.16 935.97,-315.9"/>
</g>
<!-- Node21 -->
<g id="node21" class="node">
<title>Node21</title>
<g id="a_node21"><a xlink:href="TransmitterCode_2src_2main_8cpp.html#a5c7f22bae35d5d6df9d54fe79dbb8401" target="_top" xlink:title=" ">
<polygon fill="white" stroke="#666666" points="860,-344.5 732,-344.5 732,-325.5 860,-325.5 860,-344.5"/>
<text text-anchor="middle" x="796" y="-332.5" font-family="Helvetica,sans-Serif" font-size="10.00">ResetTransmitterSettings</text>
</a>
</g>
</g>
<!-- Node7&#45;&gt;Node21 -->
<g id="edge24" class="edge">
<title>Node7&#45;&gt;Node21</title>
<path fill="none" stroke="#63b8ff" d="M893.74,-335C882.93,-335 871.47,-335 860.36,-335"/>
<polygon fill="#63b8ff" stroke="#63b8ff" points="893.66,-338.5 903.66,-335 893.66,-331.5 893.66,-338.5"/>
</g>
<!-- Node22 -->
<g id="node22" class="node">
<title>Node22</title>
<g id="a_node22"><a xlink:href="TransmitterCode_2src_2main_8cpp.html#a3838aa0b33bb22d3b9934da05d2716d8" target="_top" xlink:title=" ">
<polygon fill="white" stroke="#666666" points="834,-159.5 758,-159.5 758,-140.5 834,-140.5 834,-159.5"/>
<text text-anchor="middle" x="796" y="-147.5" font-family="Helvetica,sans-Serif" font-size="10.00">StoreModelID</text>
</a>
</g>
</g>
<!-- Node7&#45;&gt;Node22 -->
<g id="edge25" class="edge">
<title>Node7&#45;&gt;Node22</title>
<path fill="none" stroke="#63b8ff" d="M942.48,-314.55C932.74,-279.27 907.91,-207 860,-168 852.68,-162.04 843.48,-158.05 834.4,-155.38"/>
<polygon fill="#63b8ff" stroke="#63b8ff" points="939.01,-315.12 944.92,-323.91 945.78,-313.35 939.01,-315.12"/>
</g>
<!-- Node23 -->
<g id="node23" class="node">
<title>Node23</title>
<g id="a_node23"><a xlink:href="TransmitterCode_2src_2main_8cpp.html#a3c55ef7c23759a89a86f6519569c4f7a" target="_top" xlink:title=" ">
<polygon fill="white" stroke="#666666" points="845.5,-307.5 746.5,-307.5 746.5,-288.5 845.5,-288.5 845.5,-307.5"/>
<text text-anchor="middle" x="796" y="-295.5" font-family="Helvetica,sans-Serif" font-size="10.00">TXModuleViewEnd</text>
</a>
</g>
</g>
<!-- Node7&#45;&gt;Node23 -->
<g id="edge26" class="edge">
<title>Node7&#45;&gt;Node23</title>
<path fill="none" stroke="#63b8ff" d="M896.19,-322.38C877,-317.67 855.51,-312.38 837.44,-307.94"/>
<polygon fill="#63b8ff" stroke="#63b8ff" points="895.15,-325.73 905.7,-324.72 896.82,-318.94 895.15,-325.73"/>
</g>
<!-- Node12 -->
<g id="node12" class="node">
<title>Node12</title>
<g id="a_node12"><a xlink:href="ModelMatch_8h.html#af8fe429ceb65bf9d257a2a0f1c63eccb" target="_top" xlink:title=" ">
<polygon fill="white" stroke="#666666" points="690.5,-197.5 588.5,-197.5 588.5,-178.5 690.5,-178.5 690.5,-197.5"/>
<text text-anchor="middle" x="639.5" y="-185.5" font-family="Helvetica,sans-Serif" font-size="10.00">CompareModelsIDs</text>
</a>
</g>
</g>
<!-- Node11&#45;&gt;Node12 -->
<g id="edge13" class="edge">
<title>Node11&#45;&gt;Node12</title>
<path fill="none" stroke="#63b8ff" d="M750.14,-213.55C729.04,-208.63 703.99,-202.79 683.17,-197.94"/>
<polygon fill="#63b8ff" stroke="#63b8ff" points="749.09,-216.9 759.62,-215.76 750.68,-210.08 749.09,-216.9"/>
</g>
<!-- Node13 -->
<g id="node13" class="node">
<title>Node13</title>
<g id="a_node13"><a xlink:href="ModelMatch_8h.html#a494cb4acb30856d1f53f08df1b80c41b" target="_top" xlink:title=" ">
<polygon fill="white" stroke="#666666" points="547,-188.5 428,-188.5 428,-169.5 547,-169.5 547,-188.5"/>
<text text-anchor="middle" x="487.5" y="-176.5" font-family="Helvetica,sans-Serif" font-size="10.00">GetModelsMacAddress</text>
</a>
</g>
</g>
<!-- Node12&#45;&gt;Node13 -->
<g id="edge14" class="edge">
<title>Node12&#45;&gt;Node13</title>
<path fill="none" stroke="#63b8ff" d="M576.85,-184.3C567.08,-183.71 556.99,-183.11 547.29,-182.53"/>
<polygon fill="#63b8ff" stroke="#63b8ff" points="576.43,-187.78 586.62,-184.89 576.85,-180.79 576.43,-187.78"/>
</g>
<!-- Node14 -->
<g id="node14" class="node">
<title>Node14</title>
<g id="a_node14"><a xlink:href="TransmitterCode_2src_2main_8cpp.html#a694f4f5a0147f4dc29b0bc1a8951547d" target="_top" xlink:title=" ">
<polygon fill="white" stroke="#666666" points="392,-151.5 298,-151.5 298,-132.5 392,-132.5 392,-151.5"/>
<text text-anchor="middle" x="345" y="-139.5" font-family="Helvetica,sans-Serif" font-size="10.00">ParseAckPayload</text>
</a>
</g>
</g>
<!-- Node13&#45;&gt;Node14 -->
<g id="edge15" class="edge">
<title>Node13&#45;&gt;Node14</title>
<path fill="none" stroke="#63b8ff" d="M437.84,-166.19C420.13,-161.52 400.38,-156.32 383.76,-151.94"/>
<polygon fill="#63b8ff" stroke="#63b8ff" points="436.82,-169.54 447.38,-168.7 438.61,-162.77 436.82,-169.54"/>
</g>
<!-- Node15 -->
<g id="node15" class="node">
<title>Node15</title>
<g id="a_node15"><a xlink:href="transceiver_8h.html#a1c11bb6771548de7d96723045b922620" target="_top" xlink:title=" ">
<polygon fill="white" stroke="#666666" points="262,-151.5 166,-151.5 166,-132.5 262,-132.5 262,-151.5"/>
<text text-anchor="middle" x="214" y="-139.5" font-family="Helvetica,sans-Serif" font-size="10.00">SuccessfulPacket</text>
</a>
</g>
</g>
<!-- Node14&#45;&gt;Node15 -->
<g id="edge16" class="edge">
<title>Node14&#45;&gt;Node15</title>
<path fill="none" stroke="#63b8ff" d="M286.47,-142C278.35,-142 270.08,-142 262.19,-142"/>
<polygon fill="#63b8ff" stroke="#63b8ff" points="286.28,-145.5 296.28,-142 286.28,-138.5 286.28,-145.5"/>
</g>
<!-- Node16 -->
<g id="node16" class="node">
<title>Node16</title>
<g id="a_node16"><a xlink:href="transceiver_8h.html#a049bfb836e7aa4a3a48a1a4bd225fafc" target="_top" xlink:title=" ">
<polygon fill="white" stroke="#666666" points="130,-151.5 71,-151.5 71,-132.5 130,-132.5 130,-151.5"/>
<text text-anchor="middle" x="100.5" y="-139.5" font-family="Helvetica,sans-Serif" font-size="10.00">SendData</text>
</a>
</g>
</g>
<!-- Node15&#45;&gt;Node16 -->
<g id="edge17" class="edge">
<title>Node15&#45;&gt;Node16</title>
<path fill="none" stroke="#63b8ff" d="M154.39,-142C146.07,-142 137.83,-142 130.43,-142"/>
<polygon fill="#63b8ff" stroke="#63b8ff" points="154.2,-145.5 164.2,-142 154.2,-138.5 154.2,-145.5"/>
</g>
<!-- Node16&#45;&gt;Node3 -->
<g id="edge18" class="edge">
<title>Node16&#45;&gt;Node3</title>
<path fill="none" stroke="#63b8ff" d="M103.51,-163.29C112.79,-248.2 159.32,-558 344,-558 949.5,-558 949.5,-558 949.5,-558 1090.35,-558 1224.7,-421.37 1259.71,-382.95"/>
<polygon fill="#63b8ff" stroke="#63b8ff" points="106.99,-162.97 102.5,-153.38 100.03,-163.68 106.99,-162.97"/>
</g>
<!-- Node16&#45;&gt;Node17 -->
<g id="edge19" class="edge">
<title>Node16&#45;&gt;Node17</title>
<path fill="none" stroke="#63b8ff" d="M84.86,-123.2C67.59,-101.03 39.54,-65.02 26.12,-47.79"/>
<polygon fill="#63b8ff" stroke="#63b8ff" points="81.9,-125.1 90.8,-130.83 87.42,-120.79 81.9,-125.1"/>
</g>
<!-- Node24&#45;&gt;Node17 -->
<g id="edge28" class="edge">
<title>Node24&#45;&gt;Node17</title>
<path fill="none" stroke="#63b8ff" d="M425.5,-38C317.36,-38 97.57,-38 35.29,-38"/>
<polygon fill="#63b8ff" stroke="#63b8ff" points="425.35,-41.5 435.35,-38 425.35,-34.5 425.35,-41.5"/>
</g>
<!-- Node25&#45;&gt;Node8 -->
<g id="edge33" class="edge">
<title>Node25&#45;&gt;Node8</title>
<path fill="none" stroke="#63b8ff" d="M925.04,-203.49C907.9,-215.47 883.34,-231.38 860,-242 852.41,-245.45 844.02,-248.48 835.92,-251.05"/>
<polygon fill="#63b8ff" stroke="#63b8ff" points="926.86,-206.49 932.97,-197.84 922.79,-200.79 926.86,-206.49"/>
</g>
<!-- Node25&#45;&gt;Node11 -->
<g id="edge34" class="edge">
<title>Node25&#45;&gt;Node11</title>
<path fill="none" stroke="#63b8ff" d="M911.31,-195.9C886.83,-201.92 854.71,-209.81 830.75,-215.7"/>
<polygon fill="#63b8ff" stroke="#63b8ff" points="911.96,-199.34 920.84,-193.55 910.29,-192.54 911.96,-199.34"/>
</g>
<!-- Node25&#45;&gt;Node20 -->
<g id="edge35" class="edge">
<title>Node25&#45;&gt;Node20</title>
<path fill="none" stroke="#63b8ff" d="M910.86,-187C886.15,-187 853.81,-187 829.92,-187"/>
<polygon fill="#63b8ff" stroke="#63b8ff" points="910.8,-190.5 920.8,-187 910.8,-183.5 910.8,-190.5"/>
</g>
<!-- Node25&#45;&gt;Node22 -->
<g id="edge37" class="edge">
<title>Node25&#45;&gt;Node22</title>
<path fill="none" stroke="#63b8ff" d="M911.18,-178.07C887.94,-172.36 857.87,-164.96 834.42,-159.2"/>
<polygon fill="#63b8ff" stroke="#63b8ff" points="910.29,-181.46 920.84,-180.45 911.96,-174.66 910.29,-181.46"/>
</g>
<!-- Node26 -->
<g id="node26" class="node">
<title>Node26</title>
<g id="a_node26"><a xlink:href="TransmitterCode_2src_2main_8cpp.html#ad496cd10d726d7c5757d01a922c2aa25" target="_top" xlink:title=" ">
<polygon fill="white" stroke="#666666" points="860,-122.5 732,-122.5 732,-103.5 860,-103.5 860,-122.5"/>
<text text-anchor="middle" x="796" y="-110.5" font-family="Helvetica,sans-Serif" font-size="10.00">CompareVersionNumbers</text>
</a>
</g>
</g>
<!-- Node25&#45;&gt;Node26 -->
<g id="edge30" class="edge">
<title>Node25&#45;&gt;Node26</title>
<path fill="none" stroke="#63b8ff" d="M925.72,-170.51C908.61,-158.2 883.78,-141.73 860,-131 853.16,-127.91 845.65,-125.22 838.29,-122.93"/>
<polygon fill="#63b8ff" stroke="#63b8ff" points="923.49,-173.21 933.62,-176.31 927.63,-167.57 923.49,-173.21"/>
</g>
<!-- Node28 -->
<g id="node28" class="node">
<title>Node28</title>
<g id="a_node28"><a xlink:href="ModelExchange_8h.html#ac36bdea2efcd030a336293af16f5dc09" target="_top" xlink:title=" ">
<polygon fill="white" stroke="#666666" points="838.5,-85.5 753.5,-85.5 753.5,-66.5 838.5,-66.5 838.5,-85.5"/>
<text text-anchor="middle" x="796" y="-73.5" font-family="Helvetica,sans-Serif" font-size="10.00">ShowRemoteID</text>
</a>
</g>
</g>
<!-- Node25&#45;&gt;Node28 -->
<g id="edge36" class="edge">
<title>Node25&#45;&gt;Node28</title>
<path fill="none" stroke="#63b8ff" d="M934.51,-167.97C919.13,-146.85 891.57,-113.23 860,-94 853.49,-90.04 846.07,-86.91 838.67,-84.46"/>
<polygon fill="#63b8ff" stroke="#63b8ff" points="931.55,-169.84 940.18,-175.98 937.26,-165.79 931.55,-169.84"/>
</g>
<!-- Node27 -->
<g id="node27" class="node">
<title>Node27</title>
<g id="a_node27"><a xlink:href="TransmitterCode_2src_2main_8cpp.html#a4f813935d8fe58355228cbbf25e12f96" target="_top" xlink:title=" ">
<polygon fill="white" stroke="#666666" points="696,-127.5 583,-127.5 583,-108.5 696,-108.5 696,-127.5"/>
<text text-anchor="middle" x="639.5" y="-115.5" font-family="Helvetica,sans-Serif" font-size="10.00">GetRXVersionNumber</text>
</a>
</g>
</g>
<!-- Node26&#45;&gt;Node27 -->
<g id="edge31" class="edge">
<title>Node26&#45;&gt;Node27</title>
<path fill="none" stroke="#63b8ff" d="M720.24,-115.42C712.08,-115.68 703.89,-115.95 696.02,-116.2"/>
<polygon fill="#63b8ff" stroke="#63b8ff" points="720.32,-118.92 730.2,-115.1 720.09,-111.92 720.32,-118.92"/>
</g>
<!-- Node27&#45;&gt;Node14 -->
<g id="edge32" class="edge">
<title>Node27&#45;&gt;Node14</title>
<path fill="none" stroke="#63b8ff" d="M571.44,-123.5C516.64,-128 440.6,-134.24 392.35,-138.2"/>
<polygon fill="#63b8ff" stroke="#63b8ff" points="571.61,-127 581.29,-122.69 571.03,-120.02 571.61,-127"/>
</g>
</g>
</svg>
