<?xml version="1.0" encoding="UTF-8" standalone="no"?>
<!DOCTYPE svg PUBLIC "-//W3C//DTD SVG 1.1//EN"
 "http://www.w3.org/Graphics/SVG/1.1/DTD/svg11.dtd">
<!-- Generated by graphviz version 7.0.5 (20221223.1930)
 -->
<!-- Title: FlushFifos Pages: 1 -->
<svg width="1460pt" height="792pt"
 viewBox="0.00 0.00 1460.00 792.22" xmlns="http://www.w3.org/2000/svg" xmlns:xlink="http://www.w3.org/1999/xlink">
<g id="graph0" class="graph" transform="scale(1 1) rotate(0) translate(4 788.22)">
<title>FlushFifos</title>
<!-- Node1 -->
<g id="node1" class="node">
<title>Node1</title>
<g id="a_node1"><a xlink:title=" ">
<polygon fill="#999999" stroke="#666666" points="1452,-186.22 1390,-186.22 1390,-167.22 1452,-167.22 1452,-186.22"/>
<text text-anchor="middle" x="1421" y="-174.22" font-family="Helvetica,sans-Serif" font-size="10.00">FlushFifos</text>
</a>
</g>
</g>
<!-- Node2 -->
<g id="node2" class="node">
<title>Node2</title>
<g id="a_node2"><a xlink:href="BuddyWireless_8h.html#af63784896d400ae2d75d57852e143ca1" target="_top" xlink:title=" ">
<polygon fill="white" stroke="#666666" points="704.5,-186.22 609.5,-186.22 609.5,-167.22 704.5,-167.22 704.5,-186.22"/>
<text text-anchor="middle" x="657" y="-174.22" font-family="Helvetica,sans-Serif" font-size="10.00">GetSpecialPacket</text>
</a>
</g>
</g>
<!-- Node1&#45;&gt;Node2 -->
<g id="edge1" class="edge">
<title>Node1&#45;&gt;Node2</title>
<path fill="none" stroke="#63b8ff" d="M1378.36,-176.72C1329.87,-176.72 1247.38,-176.72 1176.5,-176.72 1176.5,-176.72 1176.5,-176.72 1015,-176.72 903.75,-176.72 772.99,-176.72 704.78,-176.72"/>
<polygon fill="#63b8ff" stroke="#63b8ff" points="1378.12,-180.22 1388.12,-176.72 1378.12,-173.22 1378.12,-180.22"/>
</g>
<!-- Node5 -->
<g id="node5" class="node">
<title>Node5</title>
<g id="a_node5"><a xlink:href="transceiver_8h.html#a049bfb836e7aa4a3a48a1a4bd225fafc" target="_top" xlink:title=" ">
<polygon fill="white" stroke="#666666" points="1337.5,-300.22 1278.5,-300.22 1278.5,-281.22 1337.5,-281.22 1337.5,-300.22"/>
<text text-anchor="middle" x="1308" y="-288.22" font-family="Helvetica,sans-Serif" font-size="10.00">SendData</text>
</a>
</g>
</g>
<!-- Node1&#45;&gt;Node5 -->
<g id="edge4" class="edge">
<title>Node1&#45;&gt;Node5</title>
<path fill="none" stroke="#63b8ff" d="M1402.68,-194.5C1378.94,-218.89 1337.1,-261.86 1318.44,-281.02"/>
<polygon fill="#63b8ff" stroke="#63b8ff" points="1405.01,-197.13 1409.48,-187.52 1400,-192.24 1405.01,-197.13"/>
</g>
<!-- Node31 -->
<g id="node31" class="node">
<title>Node31</title>
<g id="a_node31"><a xlink:href="BuddyWireless_8h.html#a1edeacb3cc2ed18a8ba2c736d1f3542e" target="_top" xlink:title=" ">
<polygon fill="white" stroke="#666666" points="1354,-148.22 1262,-148.22 1262,-129.22 1354,-129.22 1354,-148.22"/>
<text text-anchor="middle" x="1308" y="-136.22" font-family="Helvetica,sans-Serif" font-size="10.00">StartBuddyListen</text>
</a>
</g>
</g>
<!-- Node1&#45;&gt;Node31 -->
<g id="edge42" class="edge">
<title>Node1&#45;&gt;Node31</title>
<path fill="none" stroke="#63b8ff" d="M1380.06,-163.04C1366.15,-158.28 1350.82,-153.03 1337.97,-148.63"/>
<polygon fill="#63b8ff" stroke="#63b8ff" points="1378.81,-166.31 1389.4,-166.24 1381.08,-159.69 1378.81,-166.31"/>
</g>
<!-- Node3 -->
<g id="node3" class="node">
<title>Node3</title>
<g id="a_node3"><a xlink:href="TransmitterCode_2src_2main_8cpp.html#ad2c7ed441d88f2a2b2fca83ff61e714d" target="_top" xlink:title=" ">
<polygon fill="white" stroke="#666666" points="541,-186.22 421,-186.22 421,-167.22 541,-167.22 541,-186.22"/>
<text text-anchor="middle" x="481" y="-174.22" font-family="Helvetica,sans-Serif" font-size="10.00">DoWirelessBuddyListen</text>
</a>
</g>
</g>
<!-- Node2&#45;&gt;Node3 -->
<g id="edge2" class="edge">
<title>Node2&#45;&gt;Node3</title>
<path fill="none" stroke="#63b8ff" d="M597.99,-176.72C579.75,-176.72 559.58,-176.72 541.24,-176.72"/>
<polygon fill="#63b8ff" stroke="#63b8ff" points="597.86,-180.22 607.86,-176.72 597.86,-173.22 597.86,-180.22"/>
</g>
<!-- Node4 -->
<g id="node4" class="node">
<title>Node4</title>
<g id="a_node4"><a xlink:href="TransmitterCode_2src_2main_8cpp.html#ad3cb30894c94eb016e98bdcaa899ac86" target="_top" xlink:title=" ">
<polygon fill="white" stroke="#666666" points="339,-338.22 304,-338.22 304,-319.22 339,-319.22 339,-338.22"/>
<text text-anchor="middle" x="321.5" y="-326.22" font-family="Helvetica,sans-Serif" font-size="10.00">loop</text>
</a>
</g>
</g>
<!-- Node3&#45;&gt;Node4 -->
<g id="edge3" class="edge">
<title>Node3&#45;&gt;Node4</title>
<path fill="none" stroke="#63b8ff" d="M461.65,-194.43C428.28,-226.63 358.74,-293.74 332.67,-318.9"/>
<polygon fill="#63b8ff" stroke="#63b8ff" points="463.81,-197.2 468.58,-187.74 458.95,-192.17 463.81,-197.2"/>
</g>
<!-- Node5&#45;&gt;Node4 -->
<g id="edge41" class="edge">
<title>Node5&#45;&gt;Node4</title>
<path fill="none" stroke="#63b8ff" d="M1267.23,-299.27C1211.55,-310.47 1107.07,-328.72 1017,-328.72 1017,-328.72 1017,-328.72 656,-328.72 534.41,-328.72 387.89,-328.72 339.16,-328.72"/>
<polygon fill="#63b8ff" stroke="#63b8ff" points="1267.77,-302.73 1276.87,-297.29 1266.37,-295.87 1267.77,-302.73"/>
</g>
<!-- Node6 -->
<g id="node6" class="node">
<title>Node6</title>
<g id="a_node6"><a xlink:href="TransmitterCode_2src_2main_8cpp.html#a804fdbdd5eab4c596bbe8a23eecbe4d5" target="_top" xlink:title=" ">
<polygon fill="white" stroke="#666666" points="1226,-452.22 1125,-452.22 1125,-433.22 1226,-433.22 1226,-452.22"/>
<text text-anchor="middle" x="1175.5" y="-440.22" font-family="Helvetica,sans-Serif" font-size="10.00">ButtonWasPressed</text>
</a>
</g>
</g>
<!-- Node5&#45;&gt;Node6 -->
<g id="edge5" class="edge">
<title>Node5&#45;&gt;Node6</title>
<path fill="none" stroke="#63b8ff" d="M1291.08,-309.26C1263.17,-341.77 1206.35,-407.95 1184.92,-432.9"/>
<polygon fill="#63b8ff" stroke="#63b8ff" points="1293.59,-311.7 1297.45,-301.84 1288.28,-307.14 1293.59,-311.7"/>
</g>
<!-- Node7 -->
<g id="node7" class="node">
<title>Node7</title>
<g id="a_node7"><a xlink:href="Utilities_8h.html#afb7c85cac4aa89fd998ed81c330374d2" target="_top" xlink:title=" ">
<polygon fill="white" stroke="#666666" points="1089,-452.22 943,-452.22 943,-433.22 1089,-433.22 1089,-452.22"/>
<text text-anchor="middle" x="1016" y="-440.22" font-family="Helvetica,sans-Serif" font-size="10.00">CheckForNextionButtonPress</text>
</a>
</g>
</g>
<!-- Node6&#45;&gt;Node7 -->
<g id="edge6" class="edge">
<title>Node6&#45;&gt;Node7</title>
<path fill="none" stroke="#63b8ff" d="M1113.32,-442.72C1105.43,-442.72 1097.29,-442.72 1089.24,-442.72"/>
<polygon fill="#63b8ff" stroke="#63b8ff" points="1113.15,-446.22 1123.15,-442.72 1113.15,-439.22 1113.15,-446.22"/>
</g>
<!-- Node20 -->
<g id="node20" class="node">
<title>Node20</title>
<g id="a_node20"><a xlink:href="ModelExchange_8h.html#ab7c9edf843c732d7fe296564f39bc0dc" target="_top" xlink:title="RECEIVE A MODEL FILE.">
<polygon fill="white" stroke="#666666" points="704,-784.22 610,-784.22 610,-765.22 704,-765.22 704,-784.22"/>
<text text-anchor="middle" x="657" y="-772.22" font-family="Helvetica,sans-Serif" font-size="10.00">ReceiveModelFile</text>
</a>
</g>
</g>
<!-- Node6&#45;&gt;Node20 -->
<g id="edge40" class="edge">
<title>Node6&#45;&gt;Node20</title>
<path fill="none" stroke="#63b8ff" d="M1156.24,-460.33C1099.12,-514.34 916.66,-678.7 733,-756.72 724,-760.54 714.04,-763.64 704.39,-766.13"/>
<polygon fill="#63b8ff" stroke="#63b8ff" points="1158.39,-463.12 1163.22,-453.68 1153.57,-458.05 1158.39,-463.12"/>
</g>
<!-- Node8 -->
<g id="node8" class="node">
<title>Node8</title>
<g id="a_node8"><a xlink:href="TransmitterCode_2src_2main_8cpp.html#a641d6dab68ec7b2a8a32492aac55bc1c" target="_top" xlink:title=" ">
<polygon fill="white" stroke="#666666" points="890.5,-414.22 785.5,-414.22 785.5,-395.22 890.5,-395.22 890.5,-414.22"/>
<text text-anchor="middle" x="838" y="-402.22" font-family="Helvetica,sans-Serif" font-size="10.00">GetBackupFilename</text>
</a>
</g>
</g>
<!-- Node7&#45;&gt;Node8 -->
<g id="edge7" class="edge">
<title>Node7&#45;&gt;Node8</title>
<path fill="none" stroke="#63b8ff" d="M957.55,-430.31C934.12,-425.25 907.38,-419.48 885.24,-414.7"/>
<polygon fill="#63b8ff" stroke="#63b8ff" points="956.77,-433.72 967.28,-432.41 958.24,-426.88 956.77,-433.72"/>
</g>
<!-- Node10 -->
<g id="node10" class="node">
<title>Node10</title>
<g id="a_node10"><a xlink:href="TransmitterCode_2src_2main_8cpp.html#a6506bf72e0dd9e9ce480156b47625bff" target="_top" xlink:title=" ">
<polygon fill="white" stroke="#666666" points="881,-489.22 795,-489.22 795,-470.22 881,-470.22 881,-489.22"/>
<text text-anchor="middle" x="838" y="-477.22" font-family="Helvetica,sans-Serif" font-size="10.00">GetConfirmation</text>
</a>
</g>
</g>
<!-- Node7&#45;&gt;Node10 -->
<g id="edge10" class="edge">
<title>Node7&#45;&gt;Node10</title>
<path fill="none" stroke="#63b8ff" d="M956.81,-454.95C932.21,-460.12 904.08,-466.03 881.48,-470.79"/>
<polygon fill="#63b8ff" stroke="#63b8ff" points="957.29,-458.42 966.35,-452.94 955.85,-451.57 957.29,-458.42"/>
</g>
<!-- Node25 -->
<g id="node25" class="node">
<title>Node25</title>
<g id="a_node25"><a xlink:href="TransmitterCode_2src_2main_8cpp.html#a558ea014e230b7caa54ce5a37ad29b22" target="_top" xlink:title=" ">
<polygon fill="white" stroke="#666666" points="888.5,-376.22 787.5,-376.22 787.5,-357.22 888.5,-357.22 888.5,-376.22"/>
<text text-anchor="middle" x="838" y="-364.22" font-family="Helvetica,sans-Serif" font-size="10.00">ManageTransmitter</text>
</a>
</g>
</g>
<!-- Node7&#45;&gt;Node25 -->
<g id="edge28" class="edge">
<title>Node7&#45;&gt;Node25</title>
<path fill="none" stroke="#63b8ff" d="M989.41,-427.21C967.98,-414.72 936.28,-397.38 907,-385.72 898.46,-382.31 889.09,-379.27 880.1,-376.68"/>
<polygon fill="#63b8ff" stroke="#63b8ff" points="987.36,-430.06 997.75,-432.14 990.92,-424.04 987.36,-430.06"/>
</g>
<!-- Node26 -->
<g id="node26" class="node">
<title>Node26</title>
<g id="a_node26"><a xlink:href="TransmitterCode_2src_2main_8cpp.html#a6f5b0f1e4ca75768c16c4dd93f92a8de" target="_top" xlink:title=" ">
<polygon fill="white" stroke="#666666" points="864,-636.22 812,-636.22 812,-617.22 864,-617.22 864,-636.22"/>
<text text-anchor="middle" x="838" y="-624.22" font-family="Helvetica,sans-Serif" font-size="10.00">MsgBox</text>
</a>
</g>
</g>
<!-- Node7&#45;&gt;Node26 -->
<g id="edge30" class="edge">
<title>Node7&#45;&gt;Node26</title>
<path fill="none" stroke="#63b8ff" d="M997.71,-460.79C961.11,-499.05 876.86,-587.13 848.51,-616.77"/>
<polygon fill="#63b8ff" stroke="#63b8ff" points="1000.11,-463.35 1004.49,-453.7 995.05,-458.51 1000.11,-463.35"/>
</g>
<!-- Node8&#45;&gt;Node6 -->
<g id="edge8" class="edge">
<title>Node8&#45;&gt;Node6</title>
<path fill="none" stroke="#63b8ff" d="M902.38,-407.03C953.09,-409.48 1025.89,-414.35 1089,-423.72 1104.19,-425.97 1120.7,-429.4 1135.13,-432.73"/>
<polygon fill="#63b8ff" stroke="#63b8ff" points="902.61,-403.54 892.46,-406.57 902.29,-410.53 902.61,-403.54"/>
</g>
<!-- Node9 -->
<g id="node9" class="node">
<title>Node9</title>
<g id="a_node9"><a xlink:href="TransmitterCode_2src_2main_8cpp.html#a9d94366336f1e5fd43edb9c24bec5821" target="_top" xlink:title=" ">
<polygon fill="white" stroke="#666666" points="691,-414.22 623,-414.22 623,-395.22 691,-395.22 691,-414.22"/>
<text text-anchor="middle" x="657" y="-402.22" font-family="Helvetica,sans-Serif" font-size="10.00">RenameFile</text>
</a>
</g>
</g>
<!-- Node8&#45;&gt;Node9 -->
<g id="edge9" class="edge">
<title>Node8&#45;&gt;Node9</title>
<path fill="none" stroke="#63b8ff" d="M773.96,-404.72C746.1,-404.72 714.49,-404.72 691.31,-404.72"/>
<polygon fill="#63b8ff" stroke="#63b8ff" points="773.71,-408.22 783.71,-404.72 773.71,-401.22 773.71,-408.22"/>
</g>
<!-- Node10&#45;&gt;Node6 -->
<g id="edge11" class="edge">
<title>Node10&#45;&gt;Node6</title>
<path fill="none" stroke="#63b8ff" d="M892.58,-478.13C943.37,-476.1 1021.69,-471.56 1089,-461.72 1104.35,-459.47 1121.04,-456 1135.56,-452.63"/>
<polygon fill="#63b8ff" stroke="#63b8ff" points="892.6,-474.63 882.74,-478.51 892.86,-481.62 892.6,-474.63"/>
</g>
<!-- Node10&#45;&gt;Node9 -->
<g id="edge23" class="edge">
<title>Node10&#45;&gt;Node9</title>
<path fill="none" stroke="#63b8ff" d="M812.62,-463.92C792.09,-451.23 761.59,-433.75 733,-422.72 719.76,-417.6 704.62,-413.64 691.43,-410.75"/>
<polygon fill="#63b8ff" stroke="#63b8ff" points="810.5,-466.72 820.83,-469.08 814.23,-460.8 810.5,-466.72"/>
</g>
<!-- Node11 -->
<g id="node11" class="node">
<title>Node11</title>
<g id="a_node11"><a xlink:href="TransmitterCode_2src_2main_8cpp.html#ac45477c637c975e13189e2988c8813b3" target="_top" xlink:title=" ">
<polygon fill="white" stroke="#666666" points="697,-636.22 617,-636.22 617,-617.22 697,-617.22 697,-636.22"/>
<text text-anchor="middle" x="657" y="-624.22" font-family="Helvetica,sans-Serif" font-size="10.00">DeleteModelID</text>
</a>
</g>
</g>
<!-- Node10&#45;&gt;Node11 -->
<g id="edge12" class="edge">
<title>Node10&#45;&gt;Node11</title>
<path fill="none" stroke="#63b8ff" d="M826.54,-499.71C810.44,-528.45 776.79,-581.02 733,-608.72 722.36,-615.44 709.42,-619.66 697.31,-622.3"/>
<polygon fill="#63b8ff" stroke="#63b8ff" points="829.59,-501.43 831.29,-490.97 823.44,-498.09 829.59,-501.43"/>
</g>
<!-- Node12 -->
<g id="node12" class="node">
<title>Node12</title>
<g id="a_node12"><a xlink:href="TransmitterCode_2src_2main_8cpp.html#a53d438145d004c3b053f245f494f4284" target="_top" xlink:title=" ">
<polygon fill="white" stroke="#666666" points="683,-525.22 631,-525.22 631,-506.22 683,-506.22 683,-525.22"/>
<text text-anchor="middle" x="657" y="-513.22" font-family="Helvetica,sans-Serif" font-size="10.00">DelLOG</text>
</a>
</g>
</g>
<!-- Node10&#45;&gt;Node12 -->
<g id="edge13" class="edge">
<title>Node10&#45;&gt;Node12</title>
<path fill="none" stroke="#63b8ff" d="M783.65,-490.44C750.43,-497.13 709.23,-505.41 683.27,-510.63"/>
<polygon fill="#63b8ff" stroke="#63b8ff" points="783.98,-493.95 793.1,-488.55 782.6,-487.09 783.98,-493.95"/>
</g>
<!-- Node13 -->
<g id="node13" class="node">
<title>Node13</title>
<g id="a_node13"><a xlink:href="TransmitterCode_2src_2main_8cpp.html#a16c65917a148c7f6c17babf11e977b69" target="_top" xlink:title=" ">
<polygon fill="white" stroke="#666666" points="698,-110.22 616,-110.22 616,-91.22 698,-91.22 698,-110.22"/>
<text text-anchor="middle" x="657" y="-98.22" font-family="Helvetica,sans-Serif" font-size="10.00">EndBuddyView</text>
</a>
</g>
</g>
<!-- Node10&#45;&gt;Node13 -->
<g id="edge14" class="edge">
<title>Node10&#45;&gt;Node13</title>
<path fill="none" stroke="#63b8ff" d="M809.43,-463.68C794.98,-453.77 778.37,-439.7 769,-422.72 711.59,-318.64 792.88,-260.39 733,-157.72 720.48,-136.24 696.38,-120.17 678.88,-110.66"/>
<polygon fill="#63b8ff" stroke="#63b8ff" points="807.42,-466.54 817.71,-469.04 811.22,-460.67 807.42,-466.54"/>
</g>
<!-- Node14 -->
<g id="node14" class="node">
<title>Node14</title>
<g id="a_node14"><a xlink:href="ModelMatch_8h.html#afdd42b1130d38073be1c2025af855879" target="_top" xlink:title=" ">
<polygon fill="white" stroke="#666666" points="691.5,-673.22 622.5,-673.22 622.5,-654.22 691.5,-654.22 691.5,-673.22"/>
<text text-anchor="middle" x="657" y="-661.22" font-family="Helvetica,sans-Serif" font-size="10.00">IDNotFound</text>
</a>
</g>
</g>
<!-- Node10&#45;&gt;Node14 -->
<g id="edge15" class="edge">
<title>Node10&#45;&gt;Node14</title>
<path fill="none" stroke="#63b8ff" d="M827.03,-499.53C806.7,-539.2 760.07,-626.25 733,-645.72 721.04,-654.31 705.51,-658.85 691.69,-661.22"/>
<polygon fill="#63b8ff" stroke="#63b8ff" points="830.04,-501.33 831.45,-490.83 823.8,-498.16 830.04,-501.33"/>
</g>
<!-- Node19 -->
<g id="node19" class="node">
<title>Node19</title>
<g id="a_node19"><a xlink:href="TransmitterCode_2src_2main_8cpp.html#ae9f91b9da28f2e1e2fb126961f03c31c" target="_top" xlink:title=" ">
<polygon fill="white" stroke="#666666" points="697.5,-300.22 616.5,-300.22 616.5,-281.22 697.5,-281.22 697.5,-300.22"/>
<text text-anchor="middle" x="657" y="-288.22" font-family="Helvetica,sans-Serif" font-size="10.00">ModelViewEnd</text>
</a>
</g>
</g>
<!-- Node10&#45;&gt;Node19 -->
<g id="edge21" class="edge">
<title>Node10&#45;&gt;Node19</title>
<path fill="none" stroke="#63b8ff" d="M815.11,-462.97C801.35,-452.07 783.53,-437.22 769,-422.72 726.41,-380.19 682.27,-323.07 665.27,-300.49"/>
<polygon fill="#63b8ff" stroke="#63b8ff" points="812.67,-465.5 822.7,-468.91 816.98,-459.99 812.67,-465.5"/>
</g>
<!-- Node10&#45;&gt;Node20 -->
<g id="edge22" class="edge">
<title>Node10&#45;&gt;Node20</title>
<path fill="none" stroke="#63b8ff" d="M824.72,-499.28C809.7,-523.96 784.38,-568.08 769,-608.72 745.03,-672.03 780.94,-708.92 733,-756.72 725.32,-764.37 714.99,-768.99 704.46,-771.72"/>
<polygon fill="#63b8ff" stroke="#63b8ff" points="827.57,-501.32 829.85,-490.97 821.62,-497.64 827.57,-501.32"/>
</g>
<!-- Node21 -->
<g id="node21" class="node">
<title>Node21</title>
<g id="a_node21"><a xlink:href="TransmitterCode_2src_2main_8cpp.html#a75875d66db3193e4034c3768c175f8ef" target="_top" xlink:title=" ">
<polygon fill="white" stroke="#666666" points="690.5,-599.22 623.5,-599.22 623.5,-580.22 690.5,-580.22 690.5,-599.22"/>
<text text-anchor="middle" x="657" y="-587.22" font-family="Helvetica,sans-Serif" font-size="10.00">ResetClock</text>
</a>
</g>
</g>
<!-- Node10&#45;&gt;Node21 -->
<g id="edge24" class="edge">
<title>Node10&#45;&gt;Node21</title>
<path fill="none" stroke="#63b8ff" d="M821.4,-498.14C802.58,-519.15 768.97,-552.99 733,-571.72 720.05,-578.45 704.53,-582.72 690.98,-585.39"/>
<polygon fill="#63b8ff" stroke="#63b8ff" points="824.01,-500.46 827.96,-490.63 818.74,-495.86 824.01,-500.46"/>
</g>
<!-- Node22 -->
<g id="node22" class="node">
<title>Node22</title>
<g id="a_node22"><a xlink:href="TransmitterCode_2src_2main_8cpp.html#a5c7f22bae35d5d6df9d54fe79dbb8401" target="_top" xlink:title=" ">
<polygon fill="white" stroke="#666666" points="721,-488.22 593,-488.22 593,-469.22 721,-469.22 721,-488.22"/>
<text text-anchor="middle" x="657" y="-476.22" font-family="Helvetica,sans-Serif" font-size="10.00">ResetTransmitterSettings</text>
</a>
</g>
</g>
<!-- Node10&#45;&gt;Node22 -->
<g id="edge25" class="edge">
<title>Node10&#45;&gt;Node22</title>
<path fill="none" stroke="#63b8ff" d="M783.18,-479.42C763.76,-479.31 741.66,-479.18 721.49,-479.07"/>
<polygon fill="#63b8ff" stroke="#63b8ff" points="783.05,-482.91 793.07,-479.47 783.09,-475.91 783.05,-482.91"/>
</g>
<!-- Node23 -->
<g id="node23" class="node">
<title>Node23</title>
<g id="a_node23"><a xlink:href="TransmitterCode_2src_2main_8cpp.html#a3838aa0b33bb22d3b9934da05d2716d8" target="_top" xlink:title=" ">
<polygon fill="white" stroke="#666666" points="695,-562.22 619,-562.22 619,-543.22 695,-543.22 695,-562.22"/>
<text text-anchor="middle" x="657" y="-550.22" font-family="Helvetica,sans-Serif" font-size="10.00">StoreModelID</text>
</a>
</g>
</g>
<!-- Node10&#45;&gt;Node23 -->
<g id="edge26" class="edge">
<title>Node10&#45;&gt;Node23</title>
<path fill="none" stroke="#63b8ff" d="M811.55,-495.5C790.99,-507.67 760.99,-524.15 733,-534.72 720.97,-539.26 707.42,-542.92 695.18,-545.73"/>
<polygon fill="#63b8ff" stroke="#63b8ff" points="813.31,-498.52 820.08,-490.37 809.7,-492.53 813.31,-498.52"/>
</g>
<!-- Node24 -->
<g id="node24" class="node">
<title>Node24</title>
<g id="a_node24"><a xlink:href="TransmitterCode_2src_2main_8cpp.html#a3c55ef7c23759a89a86f6519569c4f7a" target="_top" xlink:title=" ">
<polygon fill="white" stroke="#666666" points="706.5,-451.22 607.5,-451.22 607.5,-432.22 706.5,-432.22 706.5,-451.22"/>
<text text-anchor="middle" x="657" y="-439.22" font-family="Helvetica,sans-Serif" font-size="10.00">TXModuleViewEnd</text>
</a>
</g>
</g>
<!-- Node10&#45;&gt;Node24 -->
<g id="edge27" class="edge">
<title>Node10&#45;&gt;Node24</title>
<path fill="none" stroke="#63b8ff" d="M783.44,-468.35C758.44,-463.04 728.94,-456.78 704.83,-451.66"/>
<polygon fill="#63b8ff" stroke="#63b8ff" points="782.59,-471.74 793.1,-470.4 784.04,-464.9 782.59,-471.74"/>
</g>
<!-- Node15 -->
<g id="node15" class="node">
<title>Node15</title>
<g id="a_node15"><a xlink:href="ModelMatch_8h.html#af8fe429ceb65bf9d257a2a0f1c63eccb" target="_top" xlink:title=" ">
<polygon fill="white" stroke="#666666" points="532,-451.22 430,-451.22 430,-432.22 532,-432.22 532,-451.22"/>
<text text-anchor="middle" x="481" y="-439.22" font-family="Helvetica,sans-Serif" font-size="10.00">CompareModelsIDs</text>
</a>
</g>
</g>
<!-- Node14&#45;&gt;Node15 -->
<g id="edge16" class="edge">
<title>Node14&#45;&gt;Node15</title>
<path fill="none" stroke="#63b8ff" d="M611.16,-659.65C600.43,-656.96 589.6,-652.63 581,-645.72 515.04,-592.68 490.04,-484.84 483.73,-451.66"/>
<polygon fill="#63b8ff" stroke="#63b8ff" points="610.24,-663.03 620.74,-661.6 611.64,-656.17 610.24,-663.03"/>
</g>
<!-- Node16 -->
<g id="node16" class="node">
<title>Node16</title>
<g id="a_node16"><a xlink:href="ModelMatch_8h.html#a494cb4acb30856d1f53f08df1b80c41b" target="_top" xlink:title=" ">
<polygon fill="white" stroke="#666666" points="381,-451.22 262,-451.22 262,-432.22 381,-432.22 381,-451.22"/>
<text text-anchor="middle" x="321.5" y="-439.22" font-family="Helvetica,sans-Serif" font-size="10.00">GetModelsMacAddress</text>
</a>
</g>
</g>
<!-- Node15&#45;&gt;Node16 -->
<g id="edge17" class="edge">
<title>Node15&#45;&gt;Node16</title>
<path fill="none" stroke="#63b8ff" d="M418.29,-441.72C406.14,-441.72 393.41,-441.72 381.35,-441.72"/>
<polygon fill="#63b8ff" stroke="#63b8ff" points="418.22,-445.22 428.22,-441.72 418.22,-438.22 418.22,-445.22"/>
</g>
<!-- Node17 -->
<g id="node17" class="node">
<title>Node17</title>
<g id="a_node17"><a xlink:href="TransmitterCode_2src_2main_8cpp.html#a694f4f5a0147f4dc29b0bc1a8951547d" target="_top" xlink:title=" ">
<polygon fill="white" stroke="#666666" points="226,-451.22 132,-451.22 132,-432.22 226,-432.22 226,-451.22"/>
<text text-anchor="middle" x="179" y="-439.22" font-family="Helvetica,sans-Serif" font-size="10.00">ParseAckPayload</text>
</a>
</g>
</g>
<!-- Node16&#45;&gt;Node17 -->
<g id="edge18" class="edge">
<title>Node16&#45;&gt;Node17</title>
<path fill="none" stroke="#63b8ff" d="M250.22,-441.72C242.05,-441.72 233.87,-441.72 226.14,-441.72"/>
<polygon fill="#63b8ff" stroke="#63b8ff" points="250.22,-445.22 260.22,-441.72 250.22,-438.22 250.22,-445.22"/>
</g>
<!-- Node18 -->
<g id="node18" class="node">
<title>Node18</title>
<g id="a_node18"><a xlink:href="transceiver_8h.html#a1c11bb6771548de7d96723045b922620" target="_top" xlink:title=" ">
<polygon fill="white" stroke="#666666" points="96,-319.22 0,-319.22 0,-300.22 96,-300.22 96,-319.22"/>
<text text-anchor="middle" x="48" y="-307.22" font-family="Helvetica,sans-Serif" font-size="10.00">SuccessfulPacket</text>
</a>
</g>
</g>
<!-- Node17&#45;&gt;Node18 -->
<g id="edge19" class="edge">
<title>Node17&#45;&gt;Node18</title>
<path fill="none" stroke="#63b8ff" d="M160.61,-423.92C132.98,-395.65 80,-341.44 58.46,-319.39"/>
<polygon fill="#63b8ff" stroke="#63b8ff" points="157.75,-426.01 167.25,-430.71 162.76,-421.11 157.75,-426.01"/>
</g>
<!-- Node18&#45;&gt;Node5 -->
<g id="edge20" class="edge">
<title>Node18&#45;&gt;Node5</title>
<path fill="none" stroke="#63b8ff" d="M74.82,-294.08C121.89,-267.11 225.56,-214.72 320.5,-214.72 658,-214.72 658,-214.72 658,-214.72 899.07,-214.72 1187.11,-267.08 1278.03,-284.88"/>
<polygon fill="#63b8ff" stroke="#63b8ff" points="73.32,-290.9 66.45,-298.97 76.85,-296.95 73.32,-290.9"/>
</g>
<!-- Node25&#45;&gt;Node4 -->
<g id="edge29" class="edge">
<title>Node25&#45;&gt;Node4</title>
<path fill="none" stroke="#63b8ff" d="M775.76,-364.94C693.86,-362.18 544.2,-355.75 417,-342.72 389.61,-339.91 358.01,-334.86 339.17,-331.65"/>
<polygon fill="#63b8ff" stroke="#63b8ff" points="775.48,-368.44 785.59,-365.27 775.71,-361.44 775.48,-368.44"/>
</g>
<!-- Node26&#45;&gt;Node11 -->
<g id="edge31" class="edge">
<title>Node26&#45;&gt;Node11</title>
<path fill="none" stroke="#63b8ff" d="M800.49,-626.72C770.48,-626.72 728.04,-626.72 697.29,-626.72"/>
<polygon fill="#63b8ff" stroke="#63b8ff" points="800.22,-630.22 810.22,-626.72 800.22,-623.22 800.22,-630.22"/>
</g>
<!-- Node26&#45;&gt;Node14 -->
<g id="edge32" class="edge">
<title>Node26&#45;&gt;Node14</title>
<path fill="none" stroke="#63b8ff" d="M800.68,-634.22C768.79,-640.82 722.77,-650.33 691.69,-656.75"/>
<polygon fill="#63b8ff" stroke="#63b8ff" points="801.17,-637.7 810.25,-632.24 799.75,-630.84 801.17,-637.7"/>
</g>
<!-- Node26&#45;&gt;Node21 -->
<g id="edge33" class="edge">
<title>Node26&#45;&gt;Node21</title>
<path fill="none" stroke="#63b8ff" d="M800.57,-619.19C768.35,-612.53 721.78,-602.9 690.73,-596.48"/>
<polygon fill="#63b8ff" stroke="#63b8ff" points="799.75,-622.59 810.25,-621.19 801.17,-615.73 799.75,-622.59"/>
</g>
<!-- Node26&#45;&gt;Node23 -->
<g id="edge35" class="edge">
<title>Node26&#45;&gt;Node23</title>
<path fill="none" stroke="#63b8ff" d="M811.51,-611.03C790.94,-598.91 760.92,-582.46 733,-571.72 720.97,-567.09 707.41,-563.26 695.17,-560.28"/>
<polygon fill="#63b8ff" stroke="#63b8ff" points="809.67,-614 820.05,-616.13 813.26,-608 809.67,-614"/>
</g>
<!-- Node27 -->
<g id="node27" class="node">
<title>Node27</title>
<g id="a_node27"><a xlink:href="ModelExchange_8h.html#ac36bdea2efcd030a336293af16f5dc09" target="_top" xlink:title=" ">
<polygon fill="white" stroke="#666666" points="699.5,-710.22 614.5,-710.22 614.5,-691.22 699.5,-691.22 699.5,-710.22"/>
<text text-anchor="middle" x="657" y="-698.22" font-family="Helvetica,sans-Serif" font-size="10.00">ShowRemoteID</text>
</a>
</g>
</g>
<!-- Node26&#45;&gt;Node27 -->
<g id="edge34" class="edge">
<title>Node26&#45;&gt;Node27</title>
<path fill="none" stroke="#63b8ff" d="M811.94,-642.6C791.4,-655.02 761.22,-671.94 733,-682.72 722.49,-686.73 710.8,-690.05 699.84,-692.69"/>
<polygon fill="#63b8ff" stroke="#63b8ff" points="813.77,-645.58 820.45,-637.36 810.1,-639.62 813.77,-645.58"/>
</g>
<!-- Node28 -->
<g id="node28" class="node">
<title>Node28</title>
<g id="a_node28"><a xlink:href="TransmitterCode_2src_2main_8cpp.html#a7d321cdde32c31b15ca1080fda6743c8" target="_top" xlink:title=" ">
<polygon fill="white" stroke="#666666" points="733,-747.22 581,-747.22 581,-728.22 733,-728.22 733,-747.22"/>
<text text-anchor="middle" x="657" y="-735.22" font-family="Helvetica,sans-Serif" font-size="10.00">WarnUserOfVersionsMismatch</text>
</a>
</g>
</g>
<!-- Node26&#45;&gt;Node28 -->
<g id="edge36" class="edge">
<title>Node26&#45;&gt;Node28</title>
<path fill="none" stroke="#63b8ff" d="M821.69,-645.06C802.97,-666.28 769.26,-700.72 733,-719.72 726.83,-722.95 720.08,-725.61 713.22,-727.8"/>
<polygon fill="#63b8ff" stroke="#63b8ff" points="824.11,-647.61 827.99,-637.75 818.81,-643.04 824.11,-647.61"/>
</g>
<!-- Node29 -->
<g id="node29" class="node">
<title>Node29</title>
<g id="a_node29"><a xlink:href="TransmitterCode_2src_2main_8cpp.html#ad496cd10d726d7c5757d01a922c2aa25" target="_top" xlink:title=" ">
<polygon fill="white" stroke="#666666" points="545,-710.22 417,-710.22 417,-691.22 545,-691.22 545,-710.22"/>
<text text-anchor="middle" x="481" y="-698.22" font-family="Helvetica,sans-Serif" font-size="10.00">CompareVersionNumbers</text>
</a>
</g>
</g>
<!-- Node28&#45;&gt;Node29 -->
<g id="edge37" class="edge">
<title>Node28&#45;&gt;Node29</title>
<path fill="none" stroke="#63b8ff" d="M598.22,-725.43C575.66,-720.63 550.13,-715.2 528.76,-710.66"/>
<polygon fill="#63b8ff" stroke="#63b8ff" points="597.38,-728.83 607.89,-727.49 598.84,-721.98 597.38,-728.83"/>
</g>
<!-- Node30 -->
<g id="node30" class="node">
<title>Node30</title>
<g id="a_node30"><a xlink:href="TransmitterCode_2src_2main_8cpp.html#a4f813935d8fe58355228cbbf25e12f96" target="_top" xlink:title=" ">
<polygon fill="white" stroke="#666666" points="378,-562.22 265,-562.22 265,-543.22 378,-543.22 378,-562.22"/>
<text text-anchor="middle" x="321.5" y="-550.22" font-family="Helvetica,sans-Serif" font-size="10.00">GetRXVersionNumber</text>
</a>
</g>
</g>
<!-- Node29&#45;&gt;Node30 -->
<g id="edge38" class="edge">
<title>Node29&#45;&gt;Node30</title>
<path fill="none" stroke="#63b8ff" d="M461.4,-683.24C428.1,-651.94 359.32,-587.32 333.03,-562.61"/>
<polygon fill="#63b8ff" stroke="#63b8ff" points="458.63,-685.44 468.32,-689.74 463.43,-680.34 458.63,-685.44"/>
</g>
<!-- Node30&#45;&gt;Node17 -->
<g id="edge39" class="edge">
<title>Node30&#45;&gt;Node17</title>
<path fill="none" stroke="#63b8ff" d="M299.29,-535.96C269.65,-512.55 216.78,-470.77 192.64,-451.7"/>
<polygon fill="#63b8ff" stroke="#63b8ff" points="296.83,-538.47 306.84,-541.93 301.17,-532.98 296.83,-538.47"/>
</g>
<!-- Node32 -->
<g id="node32" class="node">
<title>Node32</title>
<g id="a_node32"><a xlink:href="TransmitterCode_2src_2main_8cpp.html#a2d16d1f4802d4029bc8933a18d213beb" target="_top" xlink:title=" ">
<polygon fill="white" stroke="#666666" points="1216.5,-148.22 1134.5,-148.22 1134.5,-129.22 1216.5,-129.22 1216.5,-148.22"/>
<text text-anchor="middle" x="1175.5" y="-136.22" font-family="Helvetica,sans-Serif" font-size="10.00">GotoFrontView</text>
</a>
</g>
</g>
<!-- Node31&#45;&gt;Node32 -->
<g id="edge43" class="edge">
<title>Node31&#45;&gt;Node32</title>
<path fill="none" stroke="#63b8ff" d="M1250.21,-138.72C1239,-138.72 1227.44,-138.72 1216.9,-138.72"/>
<polygon fill="#63b8ff" stroke="#63b8ff" points="1250.21,-142.22 1260.21,-138.72 1250.21,-135.22 1250.21,-142.22"/>
</g>
<!-- Node38 -->
<g id="node38" class="node">
<title>Node38</title>
<g id="a_node38"><a xlink:href="TransmitterCode_2src_2main_8cpp.html#aa65533089f2afae4789e1f1882ec78ad" target="_top" xlink:title=" ">
<polygon fill="white" stroke="#666666" points="1221.5,-35.22 1129.5,-35.22 1129.5,-16.22 1221.5,-16.22 1221.5,-35.22"/>
<text text-anchor="middle" x="1175.5" y="-23.22" font-family="Helvetica,sans-Serif" font-size="10.00">RationaliseBuddy</text>
</a>
</g>
</g>
<!-- Node31&#45;&gt;Node38 -->
<g id="edge56" class="edge">
<title>Node31&#45;&gt;Node38</title>
<path fill="none" stroke="#63b8ff" d="M1287.42,-121.76C1259.8,-97.85 1210.29,-54.98 1187.97,-35.65"/>
<polygon fill="#63b8ff" stroke="#63b8ff" points="1284.88,-124.19 1294.73,-128.09 1289.46,-118.9 1284.88,-124.19"/>
</g>
<!-- Node32&#45;&gt;Node13 -->
<g id="edge49" class="edge">
<title>Node32&#45;&gt;Node13</title>
<path fill="none" stroke="#63b8ff" d="M1125.4,-126.27C1113.55,-123.69 1100.88,-121.29 1089,-119.72 946.25,-100.85 774.83,-99.61 698.31,-100.15"/>
<polygon fill="#63b8ff" stroke="#63b8ff" points="1124.45,-129.64 1134.97,-128.43 1125.99,-122.81 1124.45,-129.64"/>
</g>
<!-- Node32&#45;&gt;Node15 -->
<g id="edge48" class="edge">
<title>Node32&#45;&gt;Node15</title>
<path fill="none" stroke="#63b8ff" d="M1123.14,-149.66C980.99,-180.01 592.13,-263.56 581,-271.72 522.85,-314.29 493.3,-402.17 484.71,-431.75"/>
<polygon fill="#63b8ff" stroke="#63b8ff" points="1123.6,-153.14 1132.65,-147.63 1122.14,-146.29 1123.6,-153.14"/>
</g>
<!-- Node32&#45;&gt;Node19 -->
<g id="edge54" class="edge">
<title>Node32&#45;&gt;Node19</title>
<path fill="none" stroke="#63b8ff" d="M1161.57,-158.15C1146.64,-178.98 1120.08,-211.39 1089,-228.72 960.23,-300.48 777.56,-298.89 697.82,-294.06"/>
<polygon fill="#63b8ff" stroke="#63b8ff" points="1164.43,-160.16 1167.25,-149.95 1158.68,-156.18 1164.43,-160.16"/>
</g>
<!-- Node33 -->
<g id="node33" class="node">
<title>Node33</title>
<g id="a_node33"><a xlink:href="TransmitterCode_2src_2main_8cpp.html#a6ae37c6938b8c10b83d1bc74e8643bd9" target="_top" xlink:title=" ">
<polygon fill="white" stroke="#666666" points="1072.5,-376.22 959.5,-376.22 959.5,-357.22 1072.5,-357.22 1072.5,-376.22"/>
<text text-anchor="middle" x="1016" y="-364.22" font-family="Helvetica,sans-Serif" font-size="10.00">CheckPowerOffButton</text>
</a>
</g>
</g>
<!-- Node32&#45;&gt;Node33 -->
<g id="edge44" class="edge">
<title>Node32&#45;&gt;Node33</title>
<path fill="none" stroke="#63b8ff" d="M1167.04,-158.94C1154.33,-191.73 1126.19,-257.56 1089,-304.72 1072.15,-326.09 1047.11,-345.67 1031.44,-356.88"/>
<polygon fill="#63b8ff" stroke="#63b8ff" points="1170.21,-160.46 1170.48,-149.87 1163.66,-157.98 1170.21,-160.46"/>
</g>
<!-- Node34 -->
<g id="node34" class="node">
<title>Node34</title>
<g id="a_node34"><a xlink:href="TransmitterCode_2src_2main_8cpp.html#a2149418bb038e4a09266523c3bde2fce" target="_top" xlink:title=" ">
<polygon fill="white" stroke="#666666" points="1058.5,-72.22 973.5,-72.22 973.5,-53.22 1058.5,-53.22 1058.5,-72.22"/>
<text text-anchor="middle" x="1016" y="-60.22" font-family="Helvetica,sans-Serif" font-size="10.00">EndModelSetup</text>
</a>
</g>
</g>
<!-- Node32&#45;&gt;Node34 -->
<g id="edge50" class="edge">
<title>Node32&#45;&gt;Node34</title>
<path fill="none" stroke="#63b8ff" d="M1151.02,-122.45C1134.28,-111.36 1110.93,-96.88 1089,-86.72 1077.28,-81.28 1063.99,-76.5 1052.04,-72.65"/>
<polygon fill="#63b8ff" stroke="#63b8ff" points="1149.02,-125.33 1159.27,-128.01 1152.93,-119.52 1149.02,-125.33"/>
</g>
<!-- Node35 -->
<g id="node35" class="node">
<title>Node35</title>
<g id="a_node35"><a xlink:href="BuddyWireless_8h.html#ab0ba1642fb6c43525579b989c7b60dad" target="_top" xlink:title=" ">
<polygon fill="white" stroke="#666666" points="1064,-148.22 968,-148.22 968,-129.22 1064,-129.22 1064,-148.22"/>
<text text-anchor="middle" x="1016" y="-136.22" font-family="Helvetica,sans-Serif" font-size="10.00">LoadCorrectModel</text>
</a>
</g>
</g>
<!-- Node32&#45;&gt;Node35 -->
<g id="edge51" class="edge">
<title>Node32&#45;&gt;Node35</title>
<path fill="none" stroke="#63b8ff" d="M1122.95,-138.72C1104.09,-138.72 1082.84,-138.72 1064.36,-138.72"/>
<polygon fill="#63b8ff" stroke="#63b8ff" points="1122.84,-142.22 1132.84,-138.72 1122.84,-135.22 1122.84,-142.22"/>
</g>
<!-- Node37 -->
<g id="node37" class="node">
<title>Node37</title>
<g id="a_node37"><a xlink:href="TransmitterCode_2src_2main_8cpp.html#a17699f358cf9f7c3155a9c5daf8ff13c" target="_top" xlink:title=" ">
<polygon fill="white" stroke="#666666" points="1036.5,-35.22 995.5,-35.22 995.5,-16.22 1036.5,-16.22 1036.5,-35.22"/>
<text text-anchor="middle" x="1016" y="-23.22" font-family="Helvetica,sans-Serif" font-size="10.00">setup</text>
</a>
</g>
</g>
<!-- Node32&#45;&gt;Node37 -->
<g id="edge55" class="edge">
<title>Node32&#45;&gt;Node37</title>
<path fill="none" stroke="#63b8ff" d="M1162.35,-119.4C1147.65,-97.66 1120.86,-62.88 1089,-43.72 1072.99,-34.09 1052.02,-29.59 1036.84,-27.5"/>
<polygon fill="#63b8ff" stroke="#63b8ff" points="1159.33,-121.18 1167.74,-127.64 1165.19,-117.35 1159.33,-121.18"/>
</g>
<!-- Node33&#45;&gt;Node8 -->
<g id="edge45" class="edge">
<title>Node33&#45;&gt;Node8</title>
<path fill="none" stroke="#63b8ff" d="M957.55,-379.12C934.12,-384.18 907.38,-389.95 885.24,-394.73"/>
<polygon fill="#63b8ff" stroke="#63b8ff" points="958.24,-382.55 967.28,-377.02 956.77,-375.71 958.24,-382.55"/>
</g>
<!-- Node33&#45;&gt;Node10 -->
<g id="edge46" class="edge">
<title>Node33&#45;&gt;Node10</title>
<path fill="none" stroke="#63b8ff" d="M990.16,-382.66C953.22,-406.38 884.9,-450.25 854.4,-469.83"/>
<polygon fill="#63b8ff" stroke="#63b8ff" points="991.89,-385.71 998.42,-377.36 988.11,-379.82 991.89,-385.71"/>
</g>
<!-- Node33&#45;&gt;Node25 -->
<g id="edge47" class="edge">
<title>Node33&#45;&gt;Node25</title>
<path fill="none" stroke="#63b8ff" d="M947.98,-366.72C928.38,-366.72 907.31,-366.72 888.96,-366.72"/>
<polygon fill="#63b8ff" stroke="#63b8ff" points="947.8,-370.22 957.8,-366.72 947.8,-363.22 947.8,-370.22"/>
</g>
<!-- Node36 -->
<g id="node36" class="node">
<title>Node36</title>
<g id="a_node36"><a xlink:href="BuddyWireless_8h.html#abe67b2cf1cd907bd032ea0a712f1c4cb" target="_top" xlink:title=" ">
<polygon fill="white" stroke="#666666" points="907,-148.22 769,-148.22 769,-129.22 907,-129.22 907,-148.22"/>
<text text-anchor="middle" x="838" y="-136.22" font-family="Helvetica,sans-Serif" font-size="10.00">CheckModelMatchesMaster</text>
</a>
</g>
</g>
<!-- Node35&#45;&gt;Node36 -->
<g id="edge52" class="edge">
<title>Node35&#45;&gt;Node36</title>
<path fill="none" stroke="#63b8ff" d="M956.66,-138.72C940.91,-138.72 923.72,-138.72 907.48,-138.72"/>
<polygon fill="#63b8ff" stroke="#63b8ff" points="956.32,-142.22 966.32,-138.72 956.32,-135.22 956.32,-142.22"/>
</g>
<!-- Node36&#45;&gt;Node2 -->
<g id="edge53" class="edge">
<title>Node36&#45;&gt;Node2</title>
<path fill="none" stroke="#63b8ff" d="M778.85,-151.06C754.84,-156.16 727.39,-161.99 704.72,-166.8"/>
<polygon fill="#63b8ff" stroke="#63b8ff" points="779.43,-154.51 788.49,-149.01 777.98,-147.67 779.43,-154.51"/>
</g>
<!-- Node38&#45;&gt;Node13 -->
<g id="edge57" class="edge">
<title>Node38&#45;&gt;Node13</title>
<path fill="none" stroke="#63b8ff" d="M1127.18,-13.27C1114.84,-10.56 1101.5,-8.09 1089,-6.72 1024.5,0.36 1007.07,3.58 943,-6.72 841.4,-23.04 726.94,-70.12 679.93,-90.79"/>
<polygon fill="#63b8ff" stroke="#63b8ff" points="1126.17,-16.63 1136.71,-15.46 1127.75,-9.81 1126.17,-16.63"/>
</g>
<!-- Node38&#45;&gt;Node37 -->
<g id="edge58" class="edge">
<title>Node38&#45;&gt;Node37</title>
<path fill="none" stroke="#63b8ff" d="M1117.95,-25.72C1089.65,-25.72 1057.18,-25.72 1036.88,-25.72"/>
<polygon fill="#63b8ff" stroke="#63b8ff" points="1117.85,-29.22 1127.85,-25.72 1117.85,-22.22 1117.85,-29.22"/>
</g>
</g>
</svg>
