<?xml version="1.0" encoding="UTF-8" standalone="no"?>
<!DOCTYPE svg PUBLIC "-//W3C//DTD SVG 1.1//EN"
 "http://www.w3.org/Graphics/SVG/1.1/DTD/svg11.dtd">
<!-- Generated by graphviz version 7.0.5 (20221223.1930)
 -->
<!-- Title: TransmitterCode/src/Hardware/1Definitions.h Pages: 1 -->
<svg width="1095pt" height="236pt"
 viewBox="0.00 0.00 1095.25 236.00" xmlns="http://www.w3.org/2000/svg" xmlns:xlink="http://www.w3.org/1999/xlink">
<g id="graph0" class="graph" transform="scale(1 1) rotate(0) translate(4 232)">
<title>TransmitterCode/src/Hardware/1Definitions.h</title>
<!-- Node1 -->
<g id="node1" class="node">
<title>Node1</title>
<g id="a_node1"><a xlink:title=" ">
<polygon fill="#999999" stroke="#666666" points="578.25,-228 456.25,-228 456.25,-198 578.25,-198 578.25,-228"/>
<text text-anchor="start" x="464.25" y="-216" font-family="Helvetica,sans-Serif" font-size="10.00">TransmitterCode/src</text>
<text text-anchor="middle" x="517.25" y="-205" font-family="Helvetica,sans-Serif" font-size="10.00">/Hardware/1Definitions.h</text>
</a>
</g>
</g>
<!-- Node2 -->
<g id="node2" class="node">
<title>Node2</title>
<g id="a_node2"><a xlink:href="BuddyPPM_8h.html" target="_top" xlink:title=" ">
<polygon fill="white" stroke="#666666" points="154.75,-96 33.75,-96 33.75,-66 154.75,-66 154.75,-96"/>
<text text-anchor="start" x="41.75" y="-84" font-family="Helvetica,sans-Serif" font-size="10.00">TransmitterCode/src</text>
<text text-anchor="middle" x="94.25" y="-73" font-family="Helvetica,sans-Serif" font-size="10.00">/Hardware/BuddyPPM.h</text>
</a>
</g>
</g>
<!-- Node1&#45;&gt;Node2 -->
<g id="edge1" class="edge">
<title>Node1&#45;&gt;Node2</title>
<path fill="none" stroke="#63b8ff" d="M444.47,-204.26C389.72,-197.04 313.41,-184.01 249.25,-162 199.7,-145 146.34,-114.44 116.94,-96.41"/>
<polygon fill="#63b8ff" stroke="#63b8ff" points="443.95,-207.72 454.32,-205.52 444.84,-200.78 443.95,-207.72"/>
</g>
<!-- Node3 -->
<g id="node3" class="node">
<title>Node3</title>
<g id="a_node3"><a xlink:href="TransmitterCode_2src_2main_8cpp.html" target="_top" xlink:title=" ">
<polygon fill="white" stroke="#666666" points="669.75,-30 564.75,-30 564.75,0 669.75,0 669.75,-30"/>
<text text-anchor="start" x="572.75" y="-18" font-family="Helvetica,sans-Serif" font-size="10.00">TransmitterCode/src</text>
<text text-anchor="middle" x="617.25" y="-7" font-family="Helvetica,sans-Serif" font-size="10.00">/main.cpp</text>
</a>
</g>
</g>
<!-- Node1&#45;&gt;Node3 -->
<g id="edge27" class="edge">
<title>Node1&#45;&gt;Node3</title>
<path fill="none" stroke="#63b8ff" d="M444.48,-212.97C279.82,-212.91 -97.79,-198.77 24.25,-66 60.44,-26.64 425.82,-18.24 564.37,-16.47"/>
<polygon fill="#63b8ff" stroke="#63b8ff" points="444.44,-216.47 454.44,-212.96 444.43,-209.47 444.44,-216.47"/>
</g>
<!-- Node4 -->
<g id="node4" class="node">
<title>Node4</title>
<g id="a_node4"><a xlink:href="BuddyWireless_8h.html" target="_top" xlink:title=" ">
<polygon fill="white" stroke="#666666" points="309.75,-96 172.75,-96 172.75,-66 309.75,-66 309.75,-96"/>
<text text-anchor="start" x="180.75" y="-84" font-family="Helvetica,sans-Serif" font-size="10.00">TransmitterCode/src</text>
<text text-anchor="middle" x="241.25" y="-73" font-family="Helvetica,sans-Serif" font-size="10.00">/Hardware/BuddyWireless.h</text>
</a>
</g>
</g>
<!-- Node1&#45;&gt;Node4 -->
<g id="edge3" class="edge">
<title>Node1&#45;&gt;Node4</title>
<path fill="none" stroke="#63b8ff" d="M444.62,-204.6C382.72,-196.97 299.83,-183.16 274.25,-162 254.11,-145.33 246.11,-114.37 243.04,-96.24"/>
<polygon fill="#63b8ff" stroke="#63b8ff" points="444.07,-208.06 454.41,-205.78 444.9,-201.11 444.07,-208.06"/>
</g>
<!-- Node5 -->
<g id="node5" class="node">
<title>Node5</title>
<g id="a_node5"><a xlink:href="ModelExchange_8h.html" target="_top" xlink:title=" ">
<polygon fill="white" stroke="#666666" points="506.25,-96 366.25,-96 366.25,-66 506.25,-66 506.25,-96"/>
<text text-anchor="start" x="374.25" y="-84" font-family="Helvetica,sans-Serif" font-size="10.00">TransmitterCode/src</text>
<text text-anchor="middle" x="436.25" y="-73" font-family="Helvetica,sans-Serif" font-size="10.00">/Hardware/ModelExchange.h</text>
</a>
</g>
</g>
<!-- Node1&#45;&gt;Node5 -->
<g id="edge5" class="edge">
<title>Node1&#45;&gt;Node5</title>
<path fill="none" stroke="#63b8ff" d="M500.69,-188.33C495.04,-180.08 488.76,-170.7 483.25,-162 468.95,-139.4 453.44,-112.47 444.29,-96.33"/>
<polygon fill="#63b8ff" stroke="#63b8ff" points="497.76,-190.24 506.32,-196.48 503.52,-186.26 497.76,-190.24"/>
</g>
<!-- Node6 -->
<g id="node6" class="node">
<title>Node6</title>
<g id="a_node6"><a xlink:href="ModelMatch_8h.html" target="_top" xlink:title=" ">
<polygon fill="white" stroke="#666666" points="625.75,-162 500.75,-162 500.75,-132 625.75,-132 625.75,-162"/>
<text text-anchor="start" x="508.75" y="-150" font-family="Helvetica,sans-Serif" font-size="10.00">TransmitterCode/src</text>
<text text-anchor="middle" x="563.25" y="-139" font-family="Helvetica,sans-Serif" font-size="10.00">/Hardware/ModelMatch.h</text>
</a>
</g>
</g>
<!-- Node1&#45;&gt;Node6 -->
<g id="edge7" class="edge">
<title>Node1&#45;&gt;Node6</title>
<path fill="none" stroke="#63b8ff" d="M534.02,-188.68C540.4,-179.79 547.48,-169.95 553.07,-162.16"/>
<polygon fill="#63b8ff" stroke="#63b8ff" points="531.34,-186.4 528.35,-196.57 537.02,-190.49 531.34,-186.4"/>
</g>
<!-- Node7 -->
<g id="node7" class="node">
<title>Node7</title>
<g id="a_node7"><a xlink:href="Nextion_8h.html" target="_top" xlink:title=" ">
<polygon fill="white" stroke="#666666" points="791.75,-96 686.75,-96 686.75,-66 791.75,-66 791.75,-96"/>
<text text-anchor="start" x="694.75" y="-84" font-family="Helvetica,sans-Serif" font-size="10.00">TransmitterCode/src</text>
<text text-anchor="middle" x="739.25" y="-73" font-family="Helvetica,sans-Serif" font-size="10.00">/Hardware/Nextion.h</text>
</a>
</g>
</g>
<!-- Node1&#45;&gt;Node7 -->
<g id="edge9" class="edge">
<title>Node1&#45;&gt;Node7</title>
<path fill="none" stroke="#63b8ff" d="M569.07,-193.37C590.19,-184.93 614.47,-174.13 635.25,-162 635.4,-161.92 690.82,-119.27 720.69,-96.28"/>
<polygon fill="#63b8ff" stroke="#63b8ff" points="567.8,-190.1 559.76,-197.01 570.35,-196.62 567.8,-190.1"/>
</g>
<!-- Node8 -->
<g id="node8" class="node">
<title>Node8</title>
<g id="a_node8"><a xlink:href="Pong_8h.html" target="_top" xlink:title=" ">
<polygon fill="white" stroke="#666666" points="787.75,-162 682.75,-162 682.75,-132 787.75,-132 787.75,-162"/>
<text text-anchor="start" x="690.75" y="-150" font-family="Helvetica,sans-Serif" font-size="10.00">TransmitterCode/src</text>
<text text-anchor="middle" x="735.25" y="-139" font-family="Helvetica,sans-Serif" font-size="10.00">/Hardware/Pong.h</text>
</a>
</g>
</g>
<!-- Node1&#45;&gt;Node8 -->
<g id="edge11" class="edge">
<title>Node1&#45;&gt;Node8</title>
<path fill="none" stroke="#63b8ff" d="M577.27,-194.38C611.54,-184.32 653.98,-171.86 686.24,-162.39"/>
<polygon fill="#63b8ff" stroke="#63b8ff" points="576.51,-190.96 567.9,-197.13 578.48,-197.67 576.51,-190.96"/>
</g>
<!-- Node9 -->
<g id="node9" class="node">
<title>Node9</title>
<g id="a_node9"><a xlink:href="StructsEtc_8h.html" target="_top" xlink:title=" ">
<polygon fill="white" stroke="#666666" points="401.25,-162 283.25,-162 283.25,-132 401.25,-132 401.25,-162"/>
<text text-anchor="start" x="291.25" y="-150" font-family="Helvetica,sans-Serif" font-size="10.00">TransmitterCode/src</text>
<text text-anchor="middle" x="342.25" y="-139" font-family="Helvetica,sans-Serif" font-size="10.00">/Hardware/StructsEtc.h</text>
</a>
</g>
</g>
<!-- Node1&#45;&gt;Node9 -->
<g id="edge13" class="edge">
<title>Node1&#45;&gt;Node9</title>
<path fill="none" stroke="#63b8ff" d="M467.5,-193.8C440.3,-183.86 407.09,-171.71 381.7,-162.43"/>
<polygon fill="#63b8ff" stroke="#63b8ff" points="465.96,-196.97 476.56,-197.12 468.37,-190.4 465.96,-196.97"/>
</g>
<!-- Node10 -->
<g id="node10" class="node">
<title>Node10</title>
<g id="a_node10"><a xlink:href="macros_8h.html" target="_top" xlink:title=" ">
<polygon fill="white" stroke="#666666" points="629.75,-96 524.75,-96 524.75,-66 629.75,-66 629.75,-96"/>
<text text-anchor="start" x="532.75" y="-84" font-family="Helvetica,sans-Serif" font-size="10.00">TransmitterCode/src</text>
<text text-anchor="middle" x="577.25" y="-73" font-family="Helvetica,sans-Serif" font-size="10.00">/Hardware/macros.h</text>
</a>
</g>
</g>
<!-- Node1&#45;&gt;Node10 -->
<g id="edge24" class="edge">
<title>Node1&#45;&gt;Node10</title>
<path fill="none" stroke="#63b8ff" d="M500.09,-188.19C490.46,-171.67 482.2,-149.57 492.25,-132 501.6,-115.65 518.61,-104.12 534.97,-96.29"/>
<polygon fill="#63b8ff" stroke="#63b8ff" points="496.99,-189.83 505.31,-196.39 502.89,-186.07 496.99,-189.83"/>
</g>
<!-- Node11 -->
<g id="node11" class="node">
<title>Node11</title>
<g id="a_node11"><a xlink:href="Trims_8h.html" target="_top" xlink:title=" ">
<polygon fill="white" stroke="#666666" points="910.75,-162 805.75,-162 805.75,-132 910.75,-132 910.75,-162"/>
<text text-anchor="start" x="813.75" y="-150" font-family="Helvetica,sans-Serif" font-size="10.00">TransmitterCode/src</text>
<text text-anchor="middle" x="858.25" y="-139" font-family="Helvetica,sans-Serif" font-size="10.00">/Hardware/Trims.h</text>
</a>
</g>
</g>
<!-- Node1&#45;&gt;Node11 -->
<g id="edge20" class="edge">
<title>Node1&#45;&gt;Node11</title>
<path fill="none" stroke="#63b8ff" d="M589.95,-200.02C646.57,-190.45 727.09,-176.31 797.25,-162 799.91,-161.46 802.64,-160.89 805.39,-160.3"/>
<polygon fill="#63b8ff" stroke="#63b8ff" points="589.37,-196.57 580.09,-201.68 590.53,-203.47 589.37,-196.57"/>
</g>
<!-- Node12 -->
<g id="node12" class="node">
<title>Node12</title>
<g id="a_node12"><a xlink:href="Utilities_8h.html" target="_top" xlink:title=" ">
<polygon fill="white" stroke="#666666" points="991.75,-96 886.75,-96 886.75,-66 991.75,-66 991.75,-96"/>
<text text-anchor="start" x="894.75" y="-84" font-family="Helvetica,sans-Serif" font-size="10.00">TransmitterCode/src</text>
<text text-anchor="middle" x="939.25" y="-73" font-family="Helvetica,sans-Serif" font-size="10.00">/Hardware/Utilities.h</text>
</a>
</g>
</g>
<!-- Node1&#45;&gt;Node12 -->
<g id="edge22" class="edge">
<title>Node1&#45;&gt;Node12</title>
<path fill="none" stroke="#63b8ff" d="M589.81,-212.59C692.47,-211.88 872.93,-204.4 920.25,-162 938.75,-145.43 940.88,-114.42 940.35,-96.26"/>
<polygon fill="#63b8ff" stroke="#63b8ff" points="590.1,-209.09 580.11,-212.64 590.13,-216.09 590.1,-209.09"/>
</g>
<!-- Node13 -->
<g id="node13" class="node">
<title>Node13</title>
<g id="a_node13"><a xlink:href="transceiver_8h.html" target="_top" xlink:title=" ">
<polygon fill="white" stroke="#666666" points="1087.25,-162 967.25,-162 967.25,-132 1087.25,-132 1087.25,-162"/>
<text text-anchor="start" x="975.25" y="-150" font-family="Helvetica,sans-Serif" font-size="10.00">TransmitterCode/src</text>
<text text-anchor="middle" x="1027.25" y="-139" font-family="Helvetica,sans-Serif" font-size="10.00">/Hardware/transceiver.h</text>
</a>
</g>
</g>
<!-- Node1&#45;&gt;Node13 -->
<g id="edge25" class="edge">
<title>Node1&#45;&gt;Node13</title>
<path fill="none" stroke="#63b8ff" d="M589.75,-205.32C676.44,-196.95 825.83,-181.33 953.25,-162 957.78,-161.31 962.45,-160.55 967.14,-159.75"/>
<polygon fill="#63b8ff" stroke="#63b8ff" points="589.58,-201.82 579.96,-206.26 590.25,-208.78 589.58,-201.82"/>
</g>
<!-- Node2&#45;&gt;Node3 -->
<g id="edge2" class="edge">
<title>Node2&#45;&gt;Node3</title>
<path fill="none" stroke="#63b8ff" d="M166.35,-65.6C315.94,-42.68 481.42,-27.29 564.27,-20.27"/>
<polygon fill="#63b8ff" stroke="#63b8ff" points="165.99,-62.11 156.65,-67.1 167.07,-69.03 165.99,-62.11"/>
</g>
<!-- Node4&#45;&gt;Node3 -->
<g id="edge4" class="edge">
<title>Node4&#45;&gt;Node3</title>
<path fill="none" stroke="#63b8ff" d="M321.25,-66.38C394.63,-53.89 501.25,-35.75 564.49,-24.98"/>
<polygon fill="#63b8ff" stroke="#63b8ff" points="320.98,-62.88 311.71,-68.01 322.16,-69.78 320.98,-62.88"/>
</g>
<!-- Node5&#45;&gt;Node3 -->
<g id="edge6" class="edge">
<title>Node5&#45;&gt;Node3</title>
<path fill="none" stroke="#63b8ff" d="M487.71,-61.8C515.84,-51.86 550.2,-39.71 576.46,-30.43"/>
<polygon fill="#63b8ff" stroke="#63b8ff" points="486.56,-58.5 478.3,-65.13 488.9,-65.1 486.56,-58.5"/>
</g>
<!-- Node6&#45;&gt;Node3 -->
<g id="edge8" class="edge">
<title>Node6&#45;&gt;Node3</title>
<path fill="none" stroke="#63b8ff" d="M609.19,-125.97C621.12,-118.4 632.51,-108.51 639.25,-96 650.74,-74.7 637.67,-46.9 627.34,-30.31"/>
<polygon fill="#63b8ff" stroke="#63b8ff" points="607.78,-122.74 600.89,-130.78 611.29,-128.79 607.78,-122.74"/>
</g>
<!-- Node7&#45;&gt;Node3 -->
<g id="edge10" class="edge">
<title>Node7&#45;&gt;Node3</title>
<path fill="none" stroke="#63b8ff" d="M701.73,-60.32C683.26,-50.63 661.4,-39.16 644.54,-30.31"/>
<polygon fill="#63b8ff" stroke="#63b8ff" points="700.05,-63.39 710.53,-64.93 703.3,-57.19 700.05,-63.39"/>
</g>
<!-- Node8&#45;&gt;Node3 -->
<g id="edge12" class="edge">
<title>Node8&#45;&gt;Node3</title>
<path fill="none" stroke="#63b8ff" d="M771.07,-125.34C794.1,-109.38 817.02,-86.62 801.25,-66 785.32,-45.16 718.58,-30.96 670.06,-23.16"/>
<polygon fill="#63b8ff" stroke="#63b8ff" points="769.35,-122.28 762.91,-130.69 773.19,-128.13 769.35,-122.28"/>
</g>
<!-- Node9&#45;&gt;Node2 -->
<g id="edge14" class="edge">
<title>Node9&#45;&gt;Node2</title>
<path fill="none" stroke="#63b8ff" d="M275.24,-128.71C236.03,-118.59 187.11,-105.96 150.02,-96.39"/>
<polygon fill="#63b8ff" stroke="#63b8ff" points="274.27,-132.07 284.82,-131.18 276.01,-125.29 274.27,-132.07"/>
</g>
<!-- Node9&#45;&gt;Node3 -->
<g id="edge19" class="edge">
<title>Node9&#45;&gt;Node3</title>
<path fill="none" stroke="#63b8ff" d="M340.11,-120.2C340.12,-102.6 343.31,-80.01 357.25,-66 385.67,-37.45 497.02,-24.56 564.45,-19.27"/>
<polygon fill="#63b8ff" stroke="#63b8ff" points="336.61,-120.31 340.47,-130.18 343.6,-120.06 336.61,-120.31"/>
</g>
<!-- Node9&#45;&gt;Node4 -->
<g id="edge15" class="edge">
<title>Node9&#45;&gt;Node4</title>
<path fill="none" stroke="#63b8ff" d="M310.12,-125.64C295.06,-116.09 277.47,-104.95 263.84,-96.31"/>
<polygon fill="#63b8ff" stroke="#63b8ff" points="307.99,-128.43 318.31,-130.83 311.73,-122.52 307.99,-128.43"/>
</g>
<!-- Node9&#45;&gt;Node5 -->
<g id="edge16" class="edge">
<title>Node9&#45;&gt;Node5</title>
<path fill="none" stroke="#63b8ff" d="M372.33,-125.52C386.27,-116.03 402.5,-104.98 415.12,-96.39"/>
<polygon fill="#63b8ff" stroke="#63b8ff" points="370.66,-122.42 364.37,-130.94 374.6,-128.21 370.66,-122.42"/>
</g>
<!-- Node9&#45;&gt;Node10 -->
<g id="edge17" class="edge">
<title>Node9&#45;&gt;Node10</title>
<path fill="none" stroke="#63b8ff" d="M405.99,-128.64C443.1,-118.53 489.34,-105.94 524.41,-96.39"/>
<polygon fill="#63b8ff" stroke="#63b8ff" points="405.47,-125.15 396.75,-131.16 407.31,-131.91 405.47,-125.15"/>
</g>
<!-- Node10&#45;&gt;Node3 -->
<g id="edge18" class="edge">
<title>Node10&#45;&gt;Node3</title>
<path fill="none" stroke="#63b8ff" d="M592.18,-56.11C597.64,-47.38 603.64,-37.78 608.4,-30.16"/>
<polygon fill="#63b8ff" stroke="#63b8ff" points="589.26,-54.18 586.93,-64.51 595.2,-57.89 589.26,-54.18"/>
</g>
<!-- Node11&#45;&gt;Node3 -->
<g id="edge21" class="edge">
<title>Node11&#45;&gt;Node3</title>
<path fill="none" stroke="#63b8ff" d="M851.42,-120.7C845.31,-102.86 834.6,-79.77 817.25,-66 775.21,-32.62 713.77,-21.19 670.1,-17.45"/>
<polygon fill="#63b8ff" stroke="#63b8ff" points="848.02,-121.57 854.34,-130.07 854.7,-119.49 848.02,-121.57"/>
</g>
<!-- Node12&#45;&gt;Node3 -->
<g id="edge23" class="edge">
<title>Node12&#45;&gt;Node3</title>
<path fill="none" stroke="#63b8ff" d="M875.33,-66.63C874.3,-66.41 873.27,-66.21 872.25,-66 802.39,-51.85 721.63,-36.12 670.04,-26.15"/>
<polygon fill="#63b8ff" stroke="#63b8ff" points="874.62,-70.05 885.12,-68.63 876.02,-63.19 874.62,-70.05"/>
</g>
<!-- Node13&#45;&gt;Node3 -->
<g id="edge26" class="edge">
<title>Node13&#45;&gt;Node3</title>
<path fill="none" stroke="#63b8ff" d="M1025.84,-120.18C1023.41,-102.21 1017.14,-79.19 1001.25,-66 951.99,-25.09 763.41,-17.38 670.13,-16.11"/>
<polygon fill="#63b8ff" stroke="#63b8ff" points="1022.35,-120.52 1026.83,-130.13 1029.32,-119.83 1022.35,-120.52"/>
</g>
</g>
</svg>
