<?xml version="1.0" encoding="UTF-8" standalone="no"?>
<!DOCTYPE svg PUBLIC "-//W3C//DTD SVG 1.1//EN"
 "http://www.w3.org/Graphics/SVG/1.1/DTD/svg11.dtd">
<!-- Generated by graphviz version 3.0.0 (20220413.0242)
 -->
<!-- Title: SensorHubT32/lib/Adafruit_INA219/Adafruit_INA219.h Pages: 1 -->
<svg width="678pt" height="229pt"
 viewBox="0.00 0.00 677.50 229.00" xmlns="http://www.w3.org/2000/svg" xmlns:xlink="http://www.w3.org/1999/xlink">
<g id="graph0" class="graph" transform="scale(1 1) rotate(0) translate(4 225)">
<title>SensorHubT32/lib/Adafruit_INA219/Adafruit_INA219.h</title>
<polygon fill="white" stroke="transparent" points="-4,4 -4,-225 673.5,-225 673.5,4 -4,4"/>
<!-- Node1 -->
<g id="node1" class="node">
<title>Node1</title>
<g id="a_node1"><a xlink:title=" ">
<polygon fill="#bfbfbf" stroke="black" points="236.5,-190.5 236.5,-220.5 373.5,-220.5 373.5,-190.5 236.5,-190.5"/>
<text text-anchor="start" x="244.5" y="-208.5" font-family="Helvetica,sans-Serif" font-size="10.00">SensorHubT32/lib/Adafruit</text>
<text text-anchor="middle" x="305" y="-197.5" font-family="Helvetica,sans-Serif" font-size="10.00">_INA219/Adafruit_INA219.h</text>
</a>
</g>
</g>
<!-- Node2 -->
<g id="node2" class="node">
<title>Node2</title>
<g id="a_node2"><a xlink:href="common_8h.html" target="_top" xlink:title=" ">
<polygon fill="white" stroke="black" points="4,-123.5 4,-153.5 132,-153.5 132,-123.5 4,-123.5"/>
<text text-anchor="start" x="12" y="-141.5" font-family="Helvetica,sans-Serif" font-size="10.00">ReceiverCode/src/utilities</text>
<text text-anchor="middle" x="68" y="-130.5" font-family="Helvetica,sans-Serif" font-size="10.00">/common.h</text>
</a>
</g>
</g>
<!-- Node1&#45;&gt;Node2 -->
<g id="edge1" class="edge">
<title>Node1&#45;&gt;Node2</title>
<path fill="none" stroke="midnightblue" d="M243.8,-187.71C205.23,-177.14 156,-163.63 119.45,-153.61"/>
<polygon fill="midnightblue" stroke="midnightblue" points="243.3,-191.21 253.87,-190.48 245.15,-184.46 243.3,-191.21"/>
</g>
<!-- Node5 -->
<g id="node5" class="node">
<title>Node5</title>
<g id="a_node5"><a xlink:href="_adafruit___i_n_a219_8cpp.html" target="_top" xlink:title=" ">
<polygon fill="white" stroke="black" points="150,-123.5 150,-153.5 298,-153.5 298,-123.5 150,-123.5"/>
<text text-anchor="start" x="158" y="-141.5" font-family="Helvetica,sans-Serif" font-size="10.00">SensorHubT32/lib/Adafruit</text>
<text text-anchor="middle" x="224" y="-130.5" font-family="Helvetica,sans-Serif" font-size="10.00">_INA219/Adafruit_INA219.cpp</text>
</a>
</g>
</g>
<!-- Node1&#45;&gt;Node5 -->
<g id="edge5" class="edge">
<title>Node1&#45;&gt;Node5</title>
<path fill="none" stroke="midnightblue" d="M279.31,-183.88C267,-174.01 252.57,-162.43 241.54,-153.58"/>
<polygon fill="midnightblue" stroke="midnightblue" points="277.43,-186.87 287.42,-190.4 281.82,-181.41 277.43,-186.87"/>
</g>
<!-- Node6 -->
<g id="node6" class="node">
<title>Node6</title>
<g id="a_node6"><a xlink:href="_sensor_hub_t32_2src_2main_8cpp.html" target="_top" xlink:title=" ">
<polygon fill="white" stroke="black" points="316,-129 316,-148 456,-148 456,-129 316,-129"/>
<text text-anchor="middle" x="386" y="-136" font-family="Helvetica,sans-Serif" font-size="10.00">SensorHubT32/src/main.cpp</text>
</a>
</g>
</g>
<!-- Node1&#45;&gt;Node6 -->
<g id="edge6" class="edge">
<title>Node1&#45;&gt;Node6</title>
<path fill="none" stroke="midnightblue" d="M330.54,-184.01C345.57,-171.94 363.81,-157.3 375.17,-148.19"/>
<polygon fill="midnightblue" stroke="midnightblue" points="328.18,-181.41 322.58,-190.4 332.57,-186.87 328.18,-181.41"/>
</g>
<!-- Node7 -->
<g id="node7" class="node">
<title>Node7</title>
<g id="a_node7"><a xlink:href="_radio_functions_8h.html" target="_top" xlink:title=" ">
<polygon fill="white" stroke="black" points="474,-123.5 474,-153.5 614,-153.5 614,-123.5 474,-123.5"/>
<text text-anchor="start" x="482" y="-141.5" font-family="Helvetica,sans-Serif" font-size="10.00">TransmitterCode/src</text>
<text text-anchor="middle" x="544" y="-130.5" font-family="Helvetica,sans-Serif" font-size="10.00">/Hardware/RadioFunctions.h</text>
</a>
</g>
</g>
<!-- Node1&#45;&gt;Node7 -->
<g id="edge7" class="edge">
<title>Node1&#45;&gt;Node7</title>
<path fill="none" stroke="midnightblue" d="M366.22,-187.85C405.19,-177.25 455.1,-163.68 492.12,-153.61"/>
<polygon fill="midnightblue" stroke="midnightblue" points="365.3,-184.47 356.57,-190.48 367.13,-191.23 365.3,-184.47"/>
</g>
<!-- Node3 -->
<g id="node3" class="node">
<title>Node3</title>
<g id="a_node3"><a xlink:href="radio_8h.html" target="_top" xlink:title=" ">
<polygon fill="white" stroke="black" points="4,-56.5 4,-86.5 132,-86.5 132,-56.5 4,-56.5"/>
<text text-anchor="start" x="12" y="-74.5" font-family="Helvetica,sans-Serif" font-size="10.00">ReceiverCode/src/utilities</text>
<text text-anchor="middle" x="68" y="-63.5" font-family="Helvetica,sans-Serif" font-size="10.00">/radio.h</text>
</a>
</g>
</g>
<!-- Node2&#45;&gt;Node3 -->
<g id="edge2" class="edge">
<title>Node2&#45;&gt;Node3</title>
<path fill="none" stroke="midnightblue" d="M61.45,-113.4C61.01,-104.37 61.3,-94.41 62.33,-86.58"/>
<polygon fill="midnightblue" stroke="midnightblue" points="57.97,-113.74 62.32,-123.4 64.94,-113.13 57.97,-113.74"/>
</g>
<!-- Node3&#45;&gt;Node2 -->
<g id="edge4" class="edge">
<title>Node3&#45;&gt;Node2</title>
<path fill="none" stroke="midnightblue" d="M74.54,-96.57C74.99,-105.6 74.71,-115.56 73.68,-123.4"/>
<polygon fill="midnightblue" stroke="midnightblue" points="78.03,-96.24 73.67,-86.58 71.05,-96.84 78.03,-96.24"/>
</g>
<!-- Node4 -->
<g id="node4" class="node">
<title>Node4</title>
<g id="a_node4"><a xlink:href="_receiver_code_2src_2main_8cpp.html" target="_top" xlink:title=" ">
<polygon fill="white" stroke="black" points="0,-0.5 0,-19.5 136,-19.5 136,-0.5 0,-0.5"/>
<text text-anchor="middle" x="68" y="-7.5" font-family="Helvetica,sans-Serif" font-size="10.00">ReceiverCode/src/main.cpp</text>
</a>
</g>
</g>
<!-- Node3&#45;&gt;Node4 -->
<g id="edge3" class="edge">
<title>Node3&#45;&gt;Node4</title>
<path fill="none" stroke="midnightblue" d="M68,-46.29C68,-36.86 68,-26.65 68,-19.66"/>
<polygon fill="midnightblue" stroke="midnightblue" points="64.5,-46.4 68,-56.4 71.5,-46.4 64.5,-46.4"/>
</g>
<!-- Node8 -->
<g id="node8" class="node">
<title>Node8</title>
<g id="a_node8"><a xlink:href="_radio_functions_8cpp.html" target="_top" xlink:title=" ">
<polygon fill="white" stroke="black" points="396,-56.5 396,-86.5 546,-86.5 546,-56.5 396,-56.5"/>
<text text-anchor="start" x="404" y="-74.5" font-family="Helvetica,sans-Serif" font-size="10.00">TransmitterCode/src</text>
<text text-anchor="middle" x="471" y="-63.5" font-family="Helvetica,sans-Serif" font-size="10.00">/Hardware/RadioFunctions.cpp</text>
</a>
</g>
</g>
<!-- Node7&#45;&gt;Node8 -->
<g id="edge8" class="edge">
<title>Node7&#45;&gt;Node8</title>
<path fill="none" stroke="midnightblue" d="M520.53,-116.6C509.5,-106.78 496.66,-95.34 486.81,-86.58"/>
<polygon fill="midnightblue" stroke="midnightblue" points="518.36,-119.36 528.16,-123.4 523.02,-114.13 518.36,-119.36"/>
</g>
<!-- Node9 -->
<g id="node9" class="node">
<title>Node9</title>
<g id="a_node9"><a xlink:href="_transmitter_code_2src_2main_8cpp.html" target="_top" xlink:title=" ">
<polygon fill="white" stroke="black" points="564.5,-56.5 564.5,-86.5 669.5,-86.5 669.5,-56.5 564.5,-56.5"/>
<text text-anchor="start" x="572.5" y="-74.5" font-family="Helvetica,sans-Serif" font-size="10.00">TransmitterCode/src</text>
<text text-anchor="middle" x="617" y="-63.5" font-family="Helvetica,sans-Serif" font-size="10.00">/main.cpp</text>
</a>
</g>
</g>
<!-- Node7&#45;&gt;Node9 -->
<g id="edge9" class="edge">
<title>Node7&#45;&gt;Node9</title>
<path fill="none" stroke="midnightblue" d="M567.47,-116.6C578.5,-106.78 591.34,-95.34 601.19,-86.58"/>
<polygon fill="midnightblue" stroke="midnightblue" points="564.98,-114.13 559.84,-123.4 569.64,-119.36 564.98,-114.13"/>
</g>
</g>
</svg>
