<?xml version="1.0" encoding="UTF-8" standalone="no"?>
<!DOCTYPE svg PUBLIC "-//W3C//DTD SVG 1.1//EN"
 "http://www.w3.org/Graphics/SVG/1.1/DTD/svg11.dtd">
<!-- Generated by graphviz version 3.0.0 (20220413.0242)
 -->
<!-- Title: RedLedOn Pages: 1 -->
<svg width="1262pt" height="476pt"
 viewBox="0.00 0.00 1262.00 475.83" xmlns="http://www.w3.org/2000/svg" xmlns:xlink="http://www.w3.org/1999/xlink">
<g id="graph0" class="graph" transform="scale(1 1) rotate(0) translate(4 471.83)">
<title>RedLedOn</title>
<polygon fill="white" stroke="transparent" points="-4,4 -4,-471.83 1258,-471.83 1258,4 -4,4"/>
<!-- Node1 -->
<g id="node1" class="node">
<title>Node1</title>
<g id="a_node1"><a xlink:title=" ">
<polygon fill="#bfbfbf" stroke="black" points="0,-372.33 0,-391.33 63,-391.33 63,-372.33 0,-372.33"/>
<text text-anchor="middle" x="31.5" y="-379.33" font-family="Helvetica,sans-Serif" font-size="10.00">RedLedOn</text>
</a>
</g>
</g>
<!-- Node2 -->
<g id="node2" class="node">
<title>Node2</title>
<g id="a_node2"><a xlink:href="_transmitter_code_2src_2main_8cpp.html#a549a702bb9b539c6b3a4f20cce65adcc" target="_top" xlink:title=" ">
<polygon fill="white" stroke="black" points="412.5,-410.33 412.5,-429.33 510.5,-429.33 510.5,-410.33 412.5,-410.33"/>
<text text-anchor="middle" x="461.5" y="-417.33" font-family="Helvetica,sans-Serif" font-size="10.00">GetLEDBrightness</text>
</a>
</g>
</g>
<!-- Node1&#45;&gt;Node2 -->
<g id="edge1" class="edge">
<title>Node1&#45;&gt;Node2</title>
<path fill="none" stroke="midnightblue" d="M63.09,-384.88C102.07,-388.74 171.52,-395.52 231,-400.83 289.12,-406.01 355.57,-411.46 401.96,-415.19"/>
<polygon fill="midnightblue" stroke="midnightblue" points="401.88,-418.69 412.13,-416 402.44,-411.71 401.88,-418.69"/>
</g>
<!-- Node3 -->
<g id="node3" class="node">
<title>Node3</title>
<g id="a_node3"><a xlink:href="_transmitter_code_2src_2main_8cpp.html#a2d5ec5fd5ed62d5b7b071fabe2225405" target="_top" xlink:title=" ">
<polygon fill="white" stroke="black" points="99,-448.33 99,-467.33 195,-467.33 195,-448.33 99,-448.33"/>
<text text-anchor="middle" x="147" y="-455.33" font-family="Helvetica,sans-Serif" font-size="10.00">LogDisConnection</text>
</a>
</g>
</g>
<!-- Node1&#45;&gt;Node3 -->
<g id="edge2" class="edge">
<title>Node1&#45;&gt;Node3</title>
<path fill="none" stroke="midnightblue" d="M43.31,-391.34C56.09,-402.33 78.24,-420.58 99,-433.83 104.25,-437.17 110.01,-440.43 115.66,-443.41"/>
<polygon fill="midnightblue" stroke="midnightblue" points="114.44,-446.72 124.93,-448.14 117.61,-440.48 114.44,-446.72"/>
</g>
<!-- Node14 -->
<g id="node14" class="node">
<title>Node14</title>
<g id="a_node14"><a xlink:href="_transmitter_code_2src_2main_8cpp.html#aa490b4664b0a4498d53b30b82287d5df" target="_top" xlink:title=" ">
<polygon fill="white" stroke="black" points="430,-296.33 430,-315.33 493,-315.33 493,-296.33 430,-296.33"/>
<text text-anchor="middle" x="461.5" y="-303.33" font-family="Helvetica,sans-Serif" font-size="10.00">PlaySound</text>
</a>
</g>
</g>
<!-- Node1&#45;&gt;Node14 -->
<g id="edge15" class="edge">
<title>Node1&#45;&gt;Node14</title>
<path fill="none" stroke="midnightblue" d="M63.28,-376.36C139.09,-362.9 334.8,-328.15 419.94,-313.03"/>
<polygon fill="midnightblue" stroke="midnightblue" points="420.76,-316.44 430,-311.24 419.54,-309.54 420.76,-316.44"/>
</g>
<!-- Node17 -->
<g id="node17" class="node">
<title>Node17</title>
<g id="a_node17"><a xlink:href="_transmitter_code_2src_2main_8cpp.html#a5d3a46c21927cf7a3031a1e68e0b7b48" target="_top" xlink:title="SHOW COMMS.">
<polygon fill="white" stroke="black" points="109.5,-201.33 109.5,-220.33 184.5,-220.33 184.5,-201.33 109.5,-201.33"/>
<text text-anchor="middle" x="147" y="-208.33" font-family="Helvetica,sans-Serif" font-size="10.00">ShowComms</text>
</a>
</g>
</g>
<!-- Node1&#45;&gt;Node17 -->
<g id="edge19" class="edge">
<title>Node1&#45;&gt;Node17</title>
<path fill="none" stroke="midnightblue" d="M38.93,-372.14C57.27,-344.51 110.05,-264.98 133.97,-228.95"/>
<polygon fill="midnightblue" stroke="midnightblue" points="137.03,-230.67 139.64,-220.4 131.2,-226.8 137.03,-230.67"/>
</g>
<!-- Node4 -->
<g id="node4" class="node">
<title>Node4</title>
<g id="a_node4"><a xlink:href="_transmitter_code_2src_2main_8cpp.html#add8d8f400f1c1c4a5add52736cdf94ca" target="_top" xlink:title=" ">
<polygon fill="white" stroke="black" points="716.5,-391.33 716.5,-410.33 768.5,-410.33 768.5,-391.33 716.5,-391.33"/>
<text text-anchor="middle" x="742.5" y="-398.33" font-family="Helvetica,sans-Serif" font-size="10.00">LogText</text>
</a>
</g>
</g>
<!-- Node3&#45;&gt;Node4 -->
<g id="edge3" class="edge">
<title>Node3&#45;&gt;Node4</title>
<path fill="none" stroke="midnightblue" d="M195.05,-457.77C269.72,-457.19 419.8,-454.02 546,-438.83 602.72,-431.99 667.67,-418.15 706.59,-409.19"/>
<polygon fill="midnightblue" stroke="midnightblue" points="707.43,-412.59 716.38,-406.92 705.84,-405.77 707.43,-412.59"/>
</g>
<!-- Node5 -->
<g id="node5" class="node">
<title>Node5</title>
<g id="a_node5"><a xlink:href="_transmitter_code_2src_2main_8cpp.html#a6f003363493fc53b69f9efc1f447a6a1" target="_top" xlink:title=" ">
<polygon fill="white" stroke="black" points="828,-410.33 828,-429.33 902,-429.33 902,-410.33 828,-410.33"/>
<text text-anchor="middle" x="865" y="-417.33" font-family="Helvetica,sans-Serif" font-size="10.00">CloseLogFile</text>
</a>
</g>
</g>
<!-- Node4&#45;&gt;Node5 -->
<g id="edge4" class="edge">
<title>Node4&#45;&gt;Node5</title>
<path fill="none" stroke="midnightblue" d="M768.76,-404.81C782.93,-407.04 801.06,-409.9 817.69,-412.52"/>
<polygon fill="midnightblue" stroke="midnightblue" points="817.38,-416.02 827.8,-414.12 818.47,-409.1 817.38,-416.02"/>
</g>
<!-- Node6 -->
<g id="node6" class="node">
<title>Node6</title>
<g id="a_node6"><a xlink:href="_transmitter_code_2src_2main_8cpp.html#a99a51dbad5d686ca711e982f82cbcada" target="_top" xlink:title=" ">
<polygon fill="white" stroke="black" points="820,-372.33 820,-391.33 910,-391.33 910,-372.33 820,-372.33"/>
<text text-anchor="middle" x="865" y="-379.33" font-family="Helvetica,sans-Serif" font-size="10.00">LogFilePreamble</text>
</a>
</g>
</g>
<!-- Node4&#45;&gt;Node6 -->
<g id="edge5" class="edge">
<title>Node4&#45;&gt;Node6</title>
<path fill="none" stroke="midnightblue" d="M768.76,-396.84C780.64,-394.97 795.31,-392.66 809.54,-390.41"/>
<polygon fill="midnightblue" stroke="midnightblue" points="810.44,-393.81 819.78,-388.8 809.35,-386.9 810.44,-393.81"/>
</g>
<!-- Node13 -->
<g id="node13" class="node">
<title>Node13</title>
<g id="a_node13"><a xlink:href="_transmitter_code_2src_2main_8cpp.html#a99154e537ca6e0ce5d538fddf0c2aab3" target="_top" xlink:title=" ">
<polygon fill="white" stroke="black" points="958.5,-448.33 958.5,-467.33 1041.5,-467.33 1041.5,-448.33 958.5,-448.33"/>
<text text-anchor="middle" x="1000" y="-455.33" font-family="Helvetica,sans-Serif" font-size="10.00">WriteToLogFile</text>
</a>
</g>
</g>
<!-- Node4&#45;&gt;Node13 -->
<g id="edge14" class="edge">
<title>Node4&#45;&gt;Node13</title>
<path fill="none" stroke="midnightblue" d="M758.66,-410.39C773.64,-419.33 797.5,-432.27 820,-438.83 862.06,-451.07 911.72,-455.6 948.05,-457.2"/>
<polygon fill="midnightblue" stroke="midnightblue" points="948.28,-460.71 958.4,-457.59 948.54,-453.71 948.28,-460.71"/>
</g>
<!-- Node7 -->
<g id="node7" class="node">
<title>Node7</title>
<g id="a_node7"><a xlink:href="_transmitter_code_2src_2main_8cpp.html#ac45f2f949ccfa372a8cbab3ef0b8caa8" target="_top" xlink:title=" ">
<polygon fill="white" stroke="black" points="946,-410.33 946,-429.33 1054,-429.33 1054,-410.33 946,-410.33"/>
<text text-anchor="middle" x="1000" y="-417.33" font-family="Helvetica,sans-Serif" font-size="10.00">CheckLogFileIsOpen</text>
</a>
</g>
</g>
<!-- Node6&#45;&gt;Node7 -->
<g id="edge6" class="edge">
<title>Node6&#45;&gt;Node7</title>
<path fill="none" stroke="midnightblue" d="M899.56,-391.41C916.57,-396.27 937.43,-402.23 955.64,-407.44"/>
<polygon fill="midnightblue" stroke="midnightblue" points="954.87,-410.86 965.45,-410.24 956.8,-404.13 954.87,-410.86"/>
</g>
<!-- Node11 -->
<g id="node11" class="node">
<title>Node11</title>
<g id="a_node11"><a xlink:href="_transmitter_code_2src_2main_8cpp.html#a5d42b1fba153cc76dc96778cfb6f1a40" target="_top" xlink:title=" ">
<polygon fill="white" stroke="black" points="952.5,-372.33 952.5,-391.33 1047.5,-391.33 1047.5,-372.33 952.5,-372.33"/>
<text text-anchor="middle" x="1000" y="-379.33" font-family="Helvetica,sans-Serif" font-size="10.00">CreateTimeStamp</text>
</a>
</g>
</g>
<!-- Node6&#45;&gt;Node11 -->
<g id="edge10" class="edge">
<title>Node6&#45;&gt;Node11</title>
<path fill="none" stroke="midnightblue" d="M910.29,-381.83C920.48,-381.83 931.46,-381.83 942.1,-381.83"/>
<polygon fill="midnightblue" stroke="midnightblue" points="942.17,-385.33 952.17,-381.83 942.17,-378.33 942.17,-385.33"/>
</g>
<!-- Node6&#45;&gt;Node13 -->
<g id="edge13" class="edge">
<title>Node6&#45;&gt;Node13</title>
<path fill="none" stroke="midnightblue" d="M892.98,-391.42C898.83,-394.06 904.82,-397.2 910,-400.83 929.07,-414.15 926.52,-426.11 946,-438.83 948.95,-440.75 952.13,-442.52 955.4,-444.12"/>
<polygon fill="midnightblue" stroke="midnightblue" points="954.23,-447.43 964.79,-448.23 957.04,-441.02 954.23,-447.43"/>
</g>
<!-- Node8 -->
<g id="node8" class="node">
<title>Node8</title>
<g id="a_node8"><a xlink:href="_transmitter_code_2src_2main_8cpp.html#a05c7b4e0b98f9b97eebf9617442de6a5" target="_top" xlink:title=" ">
<polygon fill="white" stroke="black" points="1090,-410.33 1090,-429.33 1189,-429.33 1189,-410.33 1090,-410.33"/>
<text text-anchor="middle" x="1139.5" y="-417.33" font-family="Helvetica,sans-Serif" font-size="10.00">MakeLogFileName</text>
</a>
</g>
</g>
<!-- Node7&#45;&gt;Node8 -->
<g id="edge7" class="edge">
<title>Node7&#45;&gt;Node8</title>
<path fill="none" stroke="midnightblue" d="M1054.16,-419.83C1062.54,-419.83 1071.25,-419.83 1079.75,-419.83"/>
<polygon fill="midnightblue" stroke="midnightblue" points="1079.98,-423.33 1089.98,-419.83 1079.98,-416.33 1079.98,-423.33"/>
</g>
<!-- Node10 -->
<g id="node10" class="node">
<title>Node10</title>
<g id="a_node10"><a xlink:href="_transmitter_code_2src_2main_8cpp.html#ad2d22d4683c318454ab9a1dd15e1f647" target="_top" xlink:title=" ">
<polygon fill="white" stroke="black" points="1099,-448.33 1099,-467.33 1180,-467.33 1180,-448.33 1099,-448.33"/>
<text text-anchor="middle" x="1139.5" y="-455.33" font-family="Helvetica,sans-Serif" font-size="10.00">OpenLogFileW</text>
</a>
</g>
</g>
<!-- Node7&#45;&gt;Node10 -->
<g id="edge9" class="edge">
<title>Node7&#45;&gt;Node10</title>
<path fill="none" stroke="midnightblue" d="M1035.7,-429.41C1053.37,-434.3 1075.05,-440.29 1093.94,-445.51"/>
<polygon fill="midnightblue" stroke="midnightblue" points="1093.24,-448.95 1103.81,-448.24 1095.11,-442.2 1093.24,-448.95"/>
</g>
<!-- Node9 -->
<g id="node9" class="node">
<title>Node9</title>
<g id="a_node9"><a xlink:href="_transmitter_code_2src_2main_8cpp.html#a590a9174319918d7e3d7baca323fcf26" target="_top" xlink:title=" ">
<polygon fill="white" stroke="black" points="1225,-258.33 1225,-277.33 1254,-277.33 1254,-258.33 1225,-258.33"/>
<text text-anchor="middle" x="1239.5" y="-265.33" font-family="Helvetica,sans-Serif" font-size="10.00">Str</text>
</a>
</g>
</g>
<!-- Node8&#45;&gt;Node9 -->
<g id="edge8" class="edge">
<title>Node8&#45;&gt;Node9</title>
<path fill="none" stroke="midnightblue" d="M1175.57,-410.27C1180.51,-407.79 1185.2,-404.69 1189,-400.83 1220.11,-369.18 1231.94,-316.24 1236.23,-287.62"/>
<polygon fill="midnightblue" stroke="midnightblue" points="1239.71,-288 1237.56,-277.62 1232.77,-287.07 1239.71,-288"/>
</g>
<!-- Node11&#45;&gt;Node9 -->
<g id="edge12" class="edge">
<title>Node11&#45;&gt;Node9</title>
<path fill="none" stroke="midnightblue" d="M1047.81,-373.1C1087.62,-364.16 1145.15,-347.58 1189,-319.83 1203.27,-310.79 1216.3,-296.76 1225.4,-285.55"/>
<polygon fill="midnightblue" stroke="midnightblue" points="1228.17,-287.69 1231.56,-277.65 1222.65,-283.39 1228.17,-287.69"/>
</g>
<!-- Node12 -->
<g id="node12" class="node">
<title>Node12</title>
<g id="a_node12"><a xlink:href="_transmitter_code_2src_2main_8cpp.html#ae310e7fc6397929ae886869c05cbc334" target="_top" xlink:title=" ">
<polygon fill="white" stroke="black" points="1098,-372.33 1098,-391.33 1181,-391.33 1181,-372.33 1098,-372.33"/>
<text text-anchor="middle" x="1139.5" y="-379.33" font-family="Helvetica,sans-Serif" font-size="10.00">MayBeAddZero</text>
</a>
</g>
</g>
<!-- Node11&#45;&gt;Node12 -->
<g id="edge11" class="edge">
<title>Node11&#45;&gt;Node12</title>
<path fill="none" stroke="midnightblue" d="M1047.55,-381.83C1060.46,-381.83 1074.54,-381.83 1087.68,-381.83"/>
<polygon fill="midnightblue" stroke="midnightblue" points="1087.98,-385.33 1097.98,-381.83 1087.98,-378.33 1087.98,-385.33"/>
</g>
<!-- Node14&#45;&gt;Node9 -->
<g id="edge18" class="edge">
<title>Node14&#45;&gt;Node9</title>
<path fill="none" stroke="midnightblue" d="M493.28,-298.86C544.49,-287.89 650.57,-267.83 741.5,-267.83 741.5,-267.83 741.5,-267.83 1001,-267.83 1079.16,-267.83 1171.79,-267.83 1214.61,-267.83"/>
<polygon fill="midnightblue" stroke="midnightblue" points="1214.85,-271.33 1224.85,-267.83 1214.85,-264.33 1214.85,-271.33"/>
</g>
<!-- Node15 -->
<g id="node15" class="node">
<title>Node15</title>
<g id="a_node15"><a xlink:href="_transmitter_code_2src_2main_8cpp.html#aecac2f0c289f02ef3c92b85be82eacac" target="_top" xlink:title=" ">
<polygon fill="white" stroke="black" points="582,-106.33 582,-125.33 665,-125.33 665,-106.33 582,-106.33"/>
<text text-anchor="middle" x="623.5" y="-113.33" font-family="Helvetica,sans-Serif" font-size="10.00">SendCommand</text>
</a>
</g>
</g>
<!-- Node14&#45;&gt;Node15 -->
<g id="edge16" class="edge">
<title>Node14&#45;&gt;Node15</title>
<path fill="none" stroke="midnightblue" d="M493.21,-305.38C510.41,-303.64 531.29,-298.89 546,-286.83 594.1,-247.37 613.03,-171.4 619.53,-135.51"/>
<polygon fill="midnightblue" stroke="midnightblue" points="623.03,-135.81 621.22,-125.37 616.12,-134.66 623.03,-135.81"/>
</g>
<!-- Node16 -->
<g id="node16" class="node">
<title>Node16</title>
<g id="a_node16"><a xlink:href="_transmitter_code_2src_2main_8cpp.html#a43937dd3d9c795271fd9c3eb3c6b6410" target="_top" xlink:title=" ">
<polygon fill="white" stroke="black" points="701,-106.33 701,-125.33 784,-125.33 784,-106.33 701,-106.33"/>
<text text-anchor="middle" x="742.5" y="-113.33" font-family="Helvetica,sans-Serif" font-size="10.00">GetReturnCode</text>
</a>
</g>
</g>
<!-- Node15&#45;&gt;Node16 -->
<g id="edge17" class="edge">
<title>Node15&#45;&gt;Node16</title>
<path fill="none" stroke="midnightblue" d="M665.09,-115.83C673.35,-115.83 682.14,-115.83 690.7,-115.83"/>
<polygon fill="midnightblue" stroke="midnightblue" points="690.98,-119.33 700.98,-115.83 690.98,-112.33 690.98,-119.33"/>
</g>
<!-- Node17&#45;&gt;Node14 -->
<g id="edge49" class="edge">
<title>Node17&#45;&gt;Node14</title>
<path fill="none" stroke="midnightblue" d="M154.92,-220.41C167.74,-237.3 196.98,-271.96 231,-286.83 292.48,-313.69 371.97,-313.5 419.44,-310.18"/>
<polygon fill="midnightblue" stroke="midnightblue" points="419.95,-313.65 429.64,-309.38 419.4,-306.67 419.95,-313.65"/>
</g>
<!-- Node17&#45;&gt;Node15 -->
<g id="edge50" class="edge">
<title>Node17&#45;&gt;Node15</title>
<path fill="none" stroke="midnightblue" d="M151.5,-201.09C160.47,-177.84 186.71,-119.37 231,-96.83 349.45,-36.55 515.05,-79.31 586.9,-102.97"/>
<polygon fill="midnightblue" stroke="midnightblue" points="585.81,-106.29 596.4,-106.16 588.04,-99.66 585.81,-106.29"/>
</g>
<!-- Node18 -->
<g id="node18" class="node">
<title>Node18</title>
<g id="a_node18"><a xlink:href="_transmitter_code_2src_2main_8cpp.html#a3014b0aec0f1343c2fd7b480bd5e0425" target="_top" xlink:title=" ">
<polygon fill="white" stroke="black" points="246,-30.33 246,-49.33 326,-49.33 326,-30.33 246,-30.33"/>
<text text-anchor="middle" x="286" y="-37.33" font-family="Helvetica,sans-Serif" font-size="10.00">CheckRXVolts</text>
</a>
</g>
</g>
<!-- Node17&#45;&gt;Node18 -->
<g id="edge20" class="edge">
<title>Node17&#45;&gt;Node18</title>
<path fill="none" stroke="midnightblue" d="M151.02,-201.21C159.54,-175.55 186.1,-104.62 231,-63.83 235.18,-60.03 240.05,-56.76 245.13,-53.96"/>
<polygon fill="midnightblue" stroke="midnightblue" points="246.95,-56.97 254.39,-49.42 243.87,-50.68 246.95,-56.97"/>
</g>
<!-- Node19 -->
<g id="node19" class="node">
<title>Node19</title>
<g id="a_node19"><a xlink:href="_transmitter_code_2src_2main_8cpp.html#afe513398f72d5e48f691830a1ef6eb42" target="_top" xlink:title=" ">
<polygon fill="white" stroke="black" points="432.5,-144.33 432.5,-163.33 490.5,-163.33 490.5,-144.33 432.5,-144.33"/>
<text text-anchor="middle" x="461.5" y="-151.33" font-family="Helvetica,sans-Serif" font-size="10.00">SendText</text>
</a>
</g>
</g>
<!-- Node17&#45;&gt;Node19 -->
<g id="edge51" class="edge">
<title>Node17&#45;&gt;Node19</title>
<path fill="none" stroke="midnightblue" d="M164.53,-201.17C180.84,-192.15 206.78,-179.17 231,-172.83 296.66,-155.64 376.17,-152.89 422.28,-152.99"/>
<polygon fill="midnightblue" stroke="midnightblue" points="422.4,-156.49 432.42,-153.06 422.45,-149.49 422.4,-156.49"/>
</g>
<!-- Node20 -->
<g id="node20" class="node">
<title>Node20</title>
<g id="a_node20"><a xlink:href="_transmitter_code_2src_2main_8cpp.html#a1e20efc1e419b252b50d36f9924503fc" target="_top" xlink:title=" ">
<polygon fill="white" stroke="black" points="429.5,-30.33 429.5,-49.33 493.5,-49.33 493.5,-30.33 429.5,-30.33"/>
<text text-anchor="middle" x="461.5" y="-37.33" font-family="Helvetica,sans-Serif" font-size="10.00">SendValue</text>
</a>
</g>
</g>
<!-- Node17&#45;&gt;Node20 -->
<g id="edge52" class="edge">
<title>Node17&#45;&gt;Node20</title>
<path fill="none" stroke="midnightblue" d="M148.72,-201.03C151.71,-168.41 166.24,-63.2 231,-20.83 292.37,19.34 383.64,-7.82 430.44,-26.44"/>
<polygon fill="midnightblue" stroke="midnightblue" points="429.14,-29.69 439.72,-30.25 431.8,-23.21 429.14,-29.69"/>
</g>
<!-- Node21 -->
<g id="node21" class="node">
<title>Node21</title>
<g id="a_node21"><a xlink:href="_transmitter_code_2src_2main_8cpp.html#adce05a2e4f5763c3b90c7126234d2cc8" target="_top" xlink:title=" ">
<polygon fill="white" stroke="black" points="237.5,-106.33 237.5,-125.33 334.5,-125.33 334.5,-106.33 237.5,-106.33"/>
<text text-anchor="middle" x="286" y="-113.33" font-family="Helvetica,sans-Serif" font-size="10.00">CheckScreenTime</text>
</a>
</g>
</g>
<!-- Node17&#45;&gt;Node21 -->
<g id="edge29" class="edge">
<title>Node17&#45;&gt;Node21</title>
<path fill="none" stroke="midnightblue" d="M157.48,-201.07C172.18,-186.36 201.81,-158.24 231,-139.83 236.95,-136.07 243.58,-132.61 250.1,-129.55"/>
<polygon fill="midnightblue" stroke="midnightblue" points="251.78,-132.63 259.49,-125.37 248.94,-126.24 251.78,-132.63"/>
</g>
<!-- Node22 -->
<g id="node22" class="node">
<title>Node22</title>
<g id="a_node22"><a xlink:href="_transmitter_code_2src_2main_8cpp.html#a28ff2460f96b023cdb62a5c2b8f593f5" target="_top" xlink:title=" ">
<polygon fill="white" stroke="black" points="246,-182.33 246,-201.33 326,-201.33 326,-182.33 246,-182.33"/>
<text text-anchor="middle" x="286" y="-189.33" font-family="Helvetica,sans-Serif" font-size="10.00">CheckTXVolts</text>
</a>
</g>
</g>
<!-- Node17&#45;&gt;Node22 -->
<g id="edge31" class="edge">
<title>Node17&#45;&gt;Node22</title>
<path fill="none" stroke="midnightblue" d="M184.71,-205.73C200.34,-203.57 218.79,-201.01 235.58,-198.68"/>
<polygon fill="midnightblue" stroke="midnightblue" points="236.36,-202.1 245.78,-197.26 235.4,-195.17 236.36,-202.1"/>
</g>
<!-- Node24 -->
<g id="node24" class="node">
<title>Node24</title>
<g id="a_node24"><a xlink:href="_transmitter_code_2src_2main_8cpp.html#a62e53eb9359c32b666e3386d62c57037" target="_top" xlink:title=" ">
<polygon fill="white" stroke="black" points="250,-372.33 250,-391.33 322,-391.33 322,-372.33 250,-372.33"/>
<text text-anchor="middle" x="286" y="-379.33" font-family="Helvetica,sans-Serif" font-size="10.00">GreenLedOn</text>
</a>
</g>
</g>
<!-- Node17&#45;&gt;Node24 -->
<g id="edge36" class="edge">
<title>Node17&#45;&gt;Node24</title>
<path fill="none" stroke="midnightblue" d="M159.5,-220.52C175.24,-239.02 204.56,-278.37 231,-310.83 245.78,-328.97 263.78,-349.31 274.81,-363.95"/>
<polygon fill="midnightblue" stroke="midnightblue" points="272.06,-366.11 280.69,-372.26 277.77,-362.07 272.06,-366.11"/>
</g>
<!-- Node27 -->
<g id="node27" class="node">
<title>Node27</title>
<g id="a_node27"><a xlink:href="_transmitter_code_2src_2main_8cpp.html#a2e38b32674344cfc06b09a71dfcaf3f1" target="_top" xlink:title=" ">
<polygon fill="white" stroke="black" points="399,-258.33 399,-277.33 524,-277.33 524,-258.33 399,-258.33"/>
<text text-anchor="middle" x="461.5" y="-265.33" font-family="Helvetica,sans-Serif" font-size="10.00">MakeBindButtonInvisible</text>
</a>
</g>
</g>
<!-- Node17&#45;&gt;Node27 -->
<g id="edge48" class="edge">
<title>Node17&#45;&gt;Node27</title>
<path fill="none" stroke="midnightblue" d="M184.77,-217.53C237.3,-227.11 334.52,-244.85 398.35,-256.49"/>
<polygon fill="midnightblue" stroke="midnightblue" points="397.83,-259.95 408.3,-258.3 399.09,-253.07 397.83,-259.95"/>
</g>
<!-- Node29 -->
<g id="node29" class="node">
<title>Node29</title>
<g id="a_node29"><a xlink:href="_transmitter_code_2src_2main_8cpp.html#a793b7bcd77531c95fe72ed4356d421c8" target="_top" xlink:title=" ">
<polygon fill="white" stroke="black" points="231,-258.33 231,-277.33 341,-277.33 341,-258.33 231,-258.33"/>
<text text-anchor="middle" x="286" y="-265.33" font-family="Helvetica,sans-Serif" font-size="10.00">StartInactvityTimeout</text>
</a>
</g>
</g>
<!-- Node17&#45;&gt;Node29 -->
<g id="edge53" class="edge">
<title>Node17&#45;&gt;Node29</title>
<path fill="none" stroke="midnightblue" d="M170.93,-220.37C193.26,-229.65 227.4,-243.86 252.52,-254.31"/>
<polygon fill="midnightblue" stroke="midnightblue" points="251.42,-257.64 261.99,-258.25 254.11,-251.18 251.42,-257.64"/>
</g>
<!-- Node18&#45;&gt;Node9 -->
<g id="edge28" class="edge">
<title>Node18&#45;&gt;Node9</title>
<path fill="none" stroke="midnightblue" d="M326.23,-30.38C341.93,-26.9 360.24,-23.23 377,-20.83 485.33,-5.27 513.06,-1.83 622.5,-1.83 622.5,-1.83 622.5,-1.83 1001,-1.83 1089.85,-1.83 1129.46,-3.87 1189,-69.83 1235.25,-121.05 1239.78,-208.94 1239.3,-248.06"/>
<polygon fill="midnightblue" stroke="midnightblue" points="1235.8,-248.05 1239.04,-258.13 1242.79,-248.22 1235.8,-248.05"/>
</g>
<!-- Node18&#45;&gt;Node19 -->
<g id="edge21" class="edge">
<title>Node18&#45;&gt;Node19</title>
<path fill="none" stroke="midnightblue" d="M301.49,-49.35C331.53,-69.08 400.78,-114.58 437.18,-138.5"/>
<polygon fill="midnightblue" stroke="midnightblue" points="435.4,-141.52 445.68,-144.09 439.24,-135.67 435.4,-141.52"/>
</g>
<!-- Node18&#45;&gt;Node20 -->
<g id="edge24" class="edge">
<title>Node18&#45;&gt;Node20</title>
<path fill="none" stroke="midnightblue" d="M326.37,-39.83C354.03,-39.83 390.96,-39.83 419.07,-39.83"/>
<polygon fill="midnightblue" stroke="midnightblue" points="419.37,-43.33 429.37,-39.83 419.37,-36.33 419.37,-43.33"/>
</g>
<!-- Node19&#45;&gt;Node15 -->
<g id="edge23" class="edge">
<title>Node19&#45;&gt;Node15</title>
<path fill="none" stroke="midnightblue" d="M490.74,-147.12C513.25,-141.77 545.35,-134.15 572.22,-127.77"/>
<polygon fill="midnightblue" stroke="midnightblue" points="573.32,-131.1 582.24,-125.39 571.7,-124.29 573.32,-131.1"/>
</g>
<!-- Node19&#45;&gt;Node16 -->
<g id="edge22" class="edge">
<title>Node19&#45;&gt;Node16</title>
<path fill="none" stroke="midnightblue" d="M490.52,-152.53C529.75,-150.41 603.21,-145.34 665,-134.83 675.73,-133 687.19,-130.47 697.87,-127.86"/>
<polygon fill="midnightblue" stroke="midnightblue" points="699,-131.18 707.84,-125.34 697.28,-124.4 699,-131.18"/>
</g>
<!-- Node20&#45;&gt;Node9 -->
<g id="edge27" class="edge">
<title>Node20&#45;&gt;Node9</title>
<path fill="none" stroke="midnightblue" d="M493.88,-39.83C545.52,-39.83 651.65,-39.83 741.5,-39.83 741.5,-39.83 741.5,-39.83 1001,-39.83 1121.55,-39.83 1204.67,-194.58 1230.21,-249.1"/>
<polygon fill="midnightblue" stroke="midnightblue" points="1227.09,-250.68 1234.43,-258.32 1233.45,-247.77 1227.09,-250.68"/>
</g>
<!-- Node20&#45;&gt;Node15 -->
<g id="edge26" class="edge">
<title>Node20&#45;&gt;Node15</title>
<path fill="none" stroke="midnightblue" d="M493.7,-45.81C509.86,-49.64 529.6,-55.48 546,-63.83 564.07,-73.01 565.25,-80.41 582,-91.83 586.53,-94.91 591.46,-98.02 596.28,-100.94"/>
<polygon fill="midnightblue" stroke="midnightblue" points="594.87,-104.17 605.26,-106.25 598.43,-98.15 594.87,-104.17"/>
</g>
<!-- Node20&#45;&gt;Node16 -->
<g id="edge25" class="edge">
<title>Node20&#45;&gt;Node16</title>
<path fill="none" stroke="midnightblue" d="M493.69,-48.32C543.19,-61.81 639.93,-88.16 696.79,-103.65"/>
<polygon fill="midnightblue" stroke="midnightblue" points="696.02,-107.06 706.59,-106.31 697.86,-100.31 696.02,-107.06"/>
</g>
<!-- Node21&#45;&gt;Node15 -->
<g id="edge30" class="edge">
<title>Node21&#45;&gt;Node15</title>
<path fill="none" stroke="midnightblue" d="M334.71,-115.83C397.43,-115.83 507.17,-115.83 571.49,-115.83"/>
<polygon fill="midnightblue" stroke="midnightblue" points="571.79,-119.33 581.79,-115.83 571.79,-112.33 571.79,-119.33"/>
</g>
<!-- Node22&#45;&gt;Node9 -->
<g id="edge35" class="edge">
<title>Node22&#45;&gt;Node9</title>
<path fill="none" stroke="midnightblue" d="M326.23,-201.27C341.93,-204.75 360.24,-208.42 377,-210.83 485.33,-226.38 513.06,-229.83 622.5,-229.83 622.5,-229.83 622.5,-229.83 1001,-229.83 1080.32,-229.83 1172.7,-250.75 1215.08,-261.54"/>
<polygon fill="midnightblue" stroke="midnightblue" points="1214.41,-264.99 1224.97,-264.11 1216.17,-258.21 1214.41,-264.99"/>
</g>
<!-- Node22&#45;&gt;Node19 -->
<g id="edge33" class="edge">
<title>Node22&#45;&gt;Node19</title>
<path fill="none" stroke="midnightblue" d="M326.37,-183.2C355.13,-176.9 393.92,-168.41 422.38,-162.17"/>
<polygon fill="midnightblue" stroke="midnightblue" points="423.34,-165.55 432.36,-159.99 421.85,-158.71 423.34,-165.55"/>
</g>
<!-- Node22&#45;&gt;Node20 -->
<g id="edge34" class="edge">
<title>Node22&#45;&gt;Node20</title>
<path fill="none" stroke="midnightblue" d="M297.85,-182.32C326.7,-157.05 405.54,-87.98 441.8,-56.21"/>
<polygon fill="midnightblue" stroke="midnightblue" points="444.44,-58.55 449.65,-49.33 439.82,-53.29 444.44,-58.55"/>
</g>
<!-- Node23 -->
<g id="node23" class="node">
<title>Node23</title>
<g id="a_node23"><a xlink:href="class_adafruit___i_n_a219.html#ab27c5ff8681cbe04c80bc3efc840dca4" target="_top" xlink:title="Gets the shunt voltage in volts.">
<polygon fill="white" stroke="black" points="377,-182.33 377,-201.33 546,-201.33 546,-182.33 377,-182.33"/>
<text text-anchor="middle" x="461.5" y="-189.33" font-family="Helvetica,sans-Serif" font-size="10.00">Adafruit_INA219::getBusVoltage_V</text>
</a>
</g>
</g>
<!-- Node22&#45;&gt;Node23 -->
<g id="edge32" class="edge">
<title>Node22&#45;&gt;Node23</title>
<path fill="none" stroke="midnightblue" d="M326.37,-191.83C338.44,-191.83 352.27,-191.83 366.36,-191.83"/>
<polygon fill="midnightblue" stroke="midnightblue" points="366.65,-195.33 376.65,-191.83 366.65,-188.33 366.65,-195.33"/>
</g>
<!-- Node24&#45;&gt;Node2 -->
<g id="edge37" class="edge">
<title>Node24&#45;&gt;Node2</title>
<path fill="none" stroke="midnightblue" d="M322.11,-389.52C346.45,-394.85 379.32,-402.04 406.91,-408.09"/>
<polygon fill="midnightblue" stroke="midnightblue" points="406.3,-411.54 416.82,-410.26 407.8,-404.7 406.3,-411.54"/>
</g>
<!-- Node24&#45;&gt;Node14 -->
<g id="edge45" class="edge">
<title>Node24&#45;&gt;Node14</title>
<path fill="none" stroke="midnightblue" d="M313.16,-372.21C322.3,-368.34 332.42,-363.45 341,-357.83 359.15,-345.93 357.78,-334.9 377,-324.83 390.14,-317.94 405.72,-313.53 419.85,-310.72"/>
<polygon fill="midnightblue" stroke="midnightblue" points="420.59,-314.14 429.82,-308.94 419.36,-307.25 420.59,-314.14"/>
</g>
<!-- Node24&#45;&gt;Node17 -->
<g id="edge46" class="edge">
<title>Node24&#45;&gt;Node17</title>
<path fill="none" stroke="midnightblue" d="M269.56,-372.24C258.59,-361.41 243.62,-344.32 231,-328.83 203.27,-294.79 172.38,-253.17 157.3,-229.23"/>
<polygon fill="midnightblue" stroke="midnightblue" points="160.16,-227.18 152.02,-220.4 154.15,-230.78 160.16,-227.18"/>
</g>
<!-- Node25 -->
<g id="node25" class="node">
<title>Node25</title>
<g id="a_node25"><a xlink:href="_transmitter_code_2src_2main_8cpp.html#aaa3e86084c43b049d52d7d62c58a00b9" target="_top" xlink:title=" ">
<polygon fill="white" stroke="black" points="420.5,-334.33 420.5,-353.33 502.5,-353.33 502.5,-334.33 420.5,-334.33"/>
<text text-anchor="middle" x="461.5" y="-341.33" font-family="Helvetica,sans-Serif" font-size="10.00">LogConnection</text>
</a>
</g>
</g>
<!-- Node24&#45;&gt;Node25 -->
<g id="edge38" class="edge">
<title>Node24&#45;&gt;Node25</title>
<path fill="none" stroke="midnightblue" d="M322.11,-374.14C347.42,-368.59 381.95,-361.03 410.19,-354.84"/>
<polygon fill="midnightblue" stroke="midnightblue" points="411.26,-358.19 420.28,-352.64 409.76,-351.36 411.26,-358.19"/>
</g>
<!-- Node24&#45;&gt;Node27 -->
<g id="edge43" class="edge">
<title>Node24&#45;&gt;Node27</title>
<path fill="none" stroke="midnightblue" d="M293.14,-372.25C306.11,-352.85 338.31,-308.88 377,-286.83 380.96,-284.57 385.16,-282.58 389.5,-280.83"/>
<polygon fill="midnightblue" stroke="midnightblue" points="390.94,-284.03 399.17,-277.36 388.57,-277.44 390.94,-284.03"/>
</g>
<!-- Node28 -->
<g id="node28" class="node">
<title>Node28</title>
<g id="a_node28"><a xlink:href="_transmitter_code_2src_2main_8cpp.html#a6da9a1fd0b003151f79eabc702ba80ff" target="_top" xlink:title=" ">
<polygon fill="white" stroke="black" points="418,-372.33 418,-391.33 505,-391.33 505,-372.33 418,-372.33"/>
<text text-anchor="middle" x="461.5" y="-379.33" font-family="Helvetica,sans-Serif" font-size="10.00">ZeroDataScreen</text>
</a>
</g>
</g>
<!-- Node24&#45;&gt;Node28 -->
<g id="edge47" class="edge">
<title>Node24&#45;&gt;Node28</title>
<path fill="none" stroke="midnightblue" d="M322.11,-381.83C346.61,-381.83 379.74,-381.83 407.45,-381.83"/>
<polygon fill="midnightblue" stroke="midnightblue" points="407.77,-385.33 417.77,-381.83 407.77,-378.33 407.77,-385.33"/>
</g>
<!-- Node25&#45;&gt;Node4 -->
<g id="edge42" class="edge">
<title>Node25&#45;&gt;Node4</title>
<path fill="none" stroke="midnightblue" d="M502.77,-352.05C557.41,-363.21 654.15,-382.98 706.13,-393.6"/>
<polygon fill="midnightblue" stroke="midnightblue" points="705.7,-397.08 716.2,-395.66 707.11,-390.23 705.7,-397.08"/>
</g>
<!-- Node26 -->
<g id="node26" class="node">
<title>Node26</title>
<g id="a_node26"><a xlink:href="_transmitter_code_2src_2main_8cpp.html#af7b3b351c80f0b43c13a4ccb440b2f2e" target="_top" xlink:title=" ">
<polygon fill="white" stroke="black" points="590,-334.33 590,-353.33 657,-353.33 657,-334.33 590,-334.33"/>
<text text-anchor="middle" x="623.5" y="-341.33" font-family="Helvetica,sans-Serif" font-size="10.00">LogMinGap</text>
</a>
</g>
</g>
<!-- Node25&#45;&gt;Node26 -->
<g id="edge39" class="edge">
<title>Node25&#45;&gt;Node26</title>
<path fill="none" stroke="midnightblue" d="M502.87,-343.83C526.34,-343.83 555.89,-343.83 579.75,-343.83"/>
<polygon fill="midnightblue" stroke="midnightblue" points="579.93,-347.33 589.93,-343.83 579.93,-340.33 579.93,-347.33"/>
</g>
<!-- Node26&#45;&gt;Node4 -->
<g id="edge40" class="edge">
<title>Node26&#45;&gt;Node4</title>
<path fill="none" stroke="midnightblue" d="M644.08,-353.37C662.81,-362.49 691.28,-376.36 712.61,-386.75"/>
<polygon fill="midnightblue" stroke="midnightblue" points="711.33,-390.02 721.85,-391.25 714.4,-383.73 711.33,-390.02"/>
</g>
<!-- Node26&#45;&gt;Node9 -->
<g id="edge41" class="edge">
<title>Node26&#45;&gt;Node9</title>
<path fill="none" stroke="midnightblue" d="M657.17,-335.3C703.03,-324.09 789.27,-305.83 864,-305.83 864,-305.83 864,-305.83 1001,-305.83 1085.23,-305.83 1106.47,-298.67 1189,-281.83 1197.61,-280.07 1206.92,-277.59 1215.12,-275.21"/>
<polygon fill="midnightblue" stroke="midnightblue" points="1216.2,-278.54 1224.77,-272.3 1214.18,-271.84 1216.2,-278.54"/>
</g>
<!-- Node27&#45;&gt;Node15 -->
<g id="edge44" class="edge">
<title>Node27&#45;&gt;Node15</title>
<path fill="none" stroke="midnightblue" d="M479.56,-258.22C497.23,-247.82 525.12,-230.12 546,-210.83 571.9,-186.9 596.47,-153.91 610.48,-133.77"/>
<polygon fill="midnightblue" stroke="midnightblue" points="613.38,-135.72 616.15,-125.5 607.61,-131.77 613.38,-135.72"/>
</g>
</g>
</svg>
