<?xml version="1.0" encoding="UTF-8" standalone="no"?>
<!DOCTYPE svg PUBLIC "-//W3C//DTD SVG 1.1//EN"
 "http://www.w3.org/Graphics/SVG/1.1/DTD/svg11.dtd">
<!-- Generated by graphviz version 3.0.0 (20220413.0106)
 -->
<!-- Title: SendData Pages: 1 -->
<svg width="993pt" height="978pt"
 viewBox="0.00 0.00 993.00 978.00" xmlns="http://www.w3.org/2000/svg" xmlns:xlink="http://www.w3.org/1999/xlink">
<g id="graph0" class="graph" transform="scale(1 1) rotate(0) translate(4 974)">
<title>SendData</title>
<polygon fill="white" stroke="transparent" points="-4,4 -4,-974 989,-974 989,4 -4,4"/>
<!-- Node1 -->
<g id="node1" class="node">
<title>Node1</title>
<g id="a_node1"><a xlink:title=" ">
<polygon fill="#bfbfbf" stroke="black" points="0,-323.5 0,-342.5 59,-342.5 59,-323.5 0,-323.5"/>
<text text-anchor="middle" x="29.5" y="-330.5" font-family="Helvetica,sans-Serif" font-size="10.00">SendData</text>
</a>
</g>
</g>
<!-- Node2 -->
<g id="node2" class="node">
<title>Node2</title>
<g id="a_node2"><a xlink:href="_radio_functions_8cpp.html#aa37950d8ffe471beabe0f25c1e671808" target="_top" xlink:title=" ">
<polygon fill="white" stroke="black" points="115,-912.5 115,-931.5 197,-931.5 197,-912.5 115,-912.5"/>
<text text-anchor="middle" x="156" y="-919.5" font-family="Helvetica,sans-Serif" font-size="10.00">BufferNewPipe</text>
</a>
</g>
</g>
<!-- Node1&#45;&gt;Node2 -->
<g id="edge1" class="edge">
<title>Node1&#45;&gt;Node2</title>
<path fill="none" stroke="midnightblue" d="M30.96,-342.51C34.45,-413.38 57.75,-857.72 95,-903 97.97,-906.61 101.62,-909.54 105.65,-911.93"/>
<polygon fill="midnightblue" stroke="midnightblue" points="104.39,-915.21 114.93,-916.31 107.38,-908.88 104.39,-915.21"/>
</g>
<!-- Node3 -->
<g id="node3" class="node">
<title>Node3</title>
<g id="a_node3"><a xlink:href="_transmitter_code_2src_2main_8cpp.html#aa60c9cac090f6965b4223d5caf84e2f1" target="_top" xlink:title=" ">
<polygon fill="white" stroke="black" points="107,-874.5 107,-893.5 205,-893.5 205,-874.5 107,-874.5"/>
<text text-anchor="middle" x="156" y="-881.5" font-family="Helvetica,sans-Serif" font-size="10.00">CheckGapsLength</text>
</a>
</g>
</g>
<!-- Node1&#45;&gt;Node3 -->
<g id="edge2" class="edge">
<title>Node1&#45;&gt;Node3</title>
<path fill="none" stroke="midnightblue" d="M30.3,-342.67C29.15,-407.71 25.66,-781.39 95,-865 96.13,-866.36 97.35,-867.62 98.65,-868.8"/>
<polygon fill="midnightblue" stroke="midnightblue" points="96.69,-871.69 106.88,-874.59 100.72,-865.97 96.69,-871.69"/>
</g>
<!-- Node4 -->
<g id="node4" class="node">
<title>Node4</title>
<g id="a_node4"><a xlink:href="_transmitter_code_2src_2main_8cpp.html#addfc131a271de92cb52d869fde35729e" target="_top" xlink:title=" ">
<polygon fill="white" stroke="black" points="467,-57.5 467,-76.5 536,-76.5 536,-57.5 467,-57.5"/>
<text text-anchor="middle" x="501.5" y="-64.5" font-family="Helvetica,sans-Serif" font-size="10.00">CheckTimer</text>
</a>
</g>
</g>
<!-- Node1&#45;&gt;Node4 -->
<g id="edge3" class="edge">
<title>Node1&#45;&gt;Node4</title>
<path fill="none" stroke="midnightblue" d="M30.38,-323.38C30.56,-291.28 35.86,-187.22 95,-139 144.6,-98.55 319.89,-124.03 381,-105 398.27,-99.62 400.03,-92.28 417,-86 429.54,-81.36 443.58,-77.63 456.51,-74.75"/>
<polygon fill="midnightblue" stroke="midnightblue" points="457.54,-78.11 466.6,-72.62 456.09,-71.26 457.54,-78.11"/>
</g>
<!-- Node10 -->
<g id="node10" class="node">
<title>Node10</title>
<g id="a_node10"><a xlink:href="_radio_functions_8cpp.html#ab46df249e949de237fc3bacdc5225934" target="_top" xlink:title=" ">
<polygon fill="white" stroke="black" points="125.5,-722.5 125.5,-741.5 186.5,-741.5 186.5,-722.5 125.5,-722.5"/>
<text text-anchor="middle" x="156" y="-729.5" font-family="Helvetica,sans-Serif" font-size="10.00">Compress</text>
</a>
</g>
</g>
<!-- Node1&#45;&gt;Node10 -->
<g id="edge11" class="edge">
<title>Node1&#45;&gt;Node10</title>
<path fill="none" stroke="midnightblue" d="M30.81,-342.51C32.73,-395.61 44.59,-655.08 95,-713 100.46,-719.27 107.97,-723.49 115.83,-726.33"/>
<polygon fill="midnightblue" stroke="midnightblue" points="114.9,-729.7 125.48,-729.15 116.87,-722.98 114.9,-729.7"/>
</g>
<!-- Node11 -->
<g id="node11" class="node">
<title>Node11</title>
<g id="a_node11"><a xlink:href="_transmitter_code_2src_2main_8cpp.html#a783a0141bea15d8539730afd4b3b06a3" target="_top" xlink:title=" ">
<polygon fill="white" stroke="black" points="280,-266.5 280,-285.5 354,-285.5 354,-266.5 280,-266.5"/>
<text text-anchor="middle" x="317" y="-273.5" font-family="Helvetica,sans-Serif" font-size="10.00">FailedPacket</text>
</a>
</g>
</g>
<!-- Node1&#45;&gt;Node11 -->
<g id="edge12" class="edge">
<title>Node1&#45;&gt;Node11</title>
<path fill="none" stroke="midnightblue" d="M59.06,-339.72C96.91,-347.17 164.95,-355.39 217,-333 238.37,-323.81 233.2,-307.21 253,-295 258.36,-291.69 264.33,-288.93 270.41,-286.63"/>
<polygon fill="midnightblue" stroke="midnightblue" points="271.62,-289.92 279.96,-283.38 269.36,-283.29 271.62,-289.92"/>
</g>
<!-- Node15 -->
<g id="node15" class="node">
<title>Node15</title>
<g id="a_node15"><a xlink:href="_transmitter_code_2src_2main_8cpp.html#a1a11fabb6c953055a80c5df5eebbfb0d" target="_top" xlink:title="GET NEW SERVO POSITIONS.">
<polygon fill="white" stroke="black" points="97,-836.5 97,-855.5 215,-855.5 215,-836.5 97,-836.5"/>
<text text-anchor="middle" x="156" y="-843.5" font-family="Helvetica,sans-Serif" font-size="10.00">GetNewChannelValues</text>
</a>
</g>
</g>
<!-- Node1&#45;&gt;Node15 -->
<g id="edge18" class="edge">
<title>Node1&#45;&gt;Node15</title>
<path fill="none" stroke="midnightblue" d="M30.56,-342.78C31.12,-389.72 36.95,-595.93 95,-751 105.99,-780.36 126.83,-810.29 140.82,-828.51"/>
<polygon fill="midnightblue" stroke="midnightblue" points="138.13,-830.76 147.06,-836.46 143.64,-826.44 138.13,-830.76"/>
</g>
<!-- Node20 -->
<g id="node20" class="node">
<title>Node20</title>
<g id="a_node20"><a xlink:href="_transmitter_code_2src_2main_8cpp.html#a4635a8fc77c9f57fca53a5206cd5e571" target="_top" xlink:title=" ">
<polygon fill="white" stroke="black" points="95,-684.5 95,-703.5 217,-703.5 217,-684.5 95,-684.5"/>
<text text-anchor="middle" x="156" y="-691.5" font-family="Helvetica,sans-Serif" font-size="10.00">GetSlaveChannelValues</text>
</a>
</g>
</g>
<!-- Node1&#45;&gt;Node20 -->
<g id="edge25" class="edge">
<title>Node1&#45;&gt;Node20</title>
<path fill="none" stroke="midnightblue" d="M31.01,-342.53C33.84,-392.45 49.31,-623.45 95,-675 96.17,-676.32 97.43,-677.55 98.77,-678.7"/>
<polygon fill="midnightblue" stroke="midnightblue" points="96.9,-681.65 107.14,-684.37 100.82,-675.86 96.9,-681.65"/>
</g>
<!-- Node22 -->
<g id="node22" class="node">
<title>Node22</title>
<g id="a_node22"><a xlink:href="_transmitter_code_2src_2main_8cpp.html#a62e53eb9359c32b666e3386d62c57037" target="_top" xlink:title=" ">
<polygon fill="white" stroke="black" points="465.5,-323.5 465.5,-342.5 537.5,-342.5 537.5,-323.5 465.5,-323.5"/>
<text text-anchor="middle" x="501.5" y="-330.5" font-family="Helvetica,sans-Serif" font-size="10.00">GreenLedOn</text>
</a>
</g>
</g>
<!-- Node1&#45;&gt;Node22 -->
<g id="edge27" class="edge">
<title>Node1&#45;&gt;Node22</title>
<path fill="none" stroke="midnightblue" d="M44.22,-323.28C56.87,-314.73 76.44,-302.5 95,-295 154.44,-270.97 321.07,-234.22 381,-257 401.01,-264.61 399.4,-276.81 417,-289 433.66,-300.54 453.72,-311.21 470,-319.14"/>
<polygon fill="midnightblue" stroke="midnightblue" points="468.57,-322.34 479.1,-323.49 471.58,-316.02 468.57,-322.34"/>
</g>
<!-- Node24 -->
<g id="node24" class="node">
<title>Node24</title>
<g id="a_node24"><a xlink:href="_radio_functions_8cpp.html#a62ec0168b1eea5f5c14f663d9217574d" target="_top" xlink:title=" ">
<polygon fill="white" stroke="black" points="105.5,-304.5 105.5,-323.5 206.5,-323.5 206.5,-304.5 105.5,-304.5"/>
<text text-anchor="middle" x="156" y="-311.5" font-family="Helvetica,sans-Serif" font-size="10.00">HopToNextChannel</text>
</a>
</g>
</g>
<!-- Node1&#45;&gt;Node24 -->
<g id="edge31" class="edge">
<title>Node1&#45;&gt;Node24</title>
<path fill="none" stroke="midnightblue" d="M59.06,-328.64C69.83,-327 82.51,-325.06 95.07,-323.15"/>
<polygon fill="midnightblue" stroke="midnightblue" points="95.72,-326.59 105.08,-321.62 94.66,-319.67 95.72,-326.59"/>
</g>
<!-- Node25 -->
<g id="node25" class="node">
<title>Node25</title>
<g id="a_node25"><a xlink:href="_transmitter_code_2src_2main_8cpp.html#ac4ffb9b555ce8d38f615610dc89b5499" target="_top" xlink:title=" ">
<polygon fill="white" stroke="black" points="111.5,-646.5 111.5,-665.5 200.5,-665.5 200.5,-646.5 111.5,-646.5"/>
<text text-anchor="middle" x="156" y="-653.5" font-family="Helvetica,sans-Serif" font-size="10.00">LoadPacketData</text>
</a>
</g>
</g>
<!-- Node1&#45;&gt;Node25 -->
<g id="edge32" class="edge">
<title>Node1&#45;&gt;Node25</title>
<path fill="none" stroke="midnightblue" d="M34.23,-342.67C51.52,-387.52 124.08,-575.78 147.6,-636.81"/>
<polygon fill="midnightblue" stroke="midnightblue" points="144.43,-638.3 151.29,-646.37 150.96,-635.78 144.43,-638.3"/>
</g>
<!-- Node29 -->
<g id="node29" class="node">
<title>Node29</title>
<g id="a_node29"><a xlink:href="_receiver_code_2src_2main_8cpp.html#a6a495c5560f12cc3fd3df9454927d681" target="_top" xlink:title=" ">
<polygon fill="white" stroke="black" points="119,-228.5 119,-247.5 193,-247.5 193,-228.5 119,-228.5"/>
<text text-anchor="middle" x="156" y="-235.5" font-family="Helvetica,sans-Serif" font-size="10.00">MapToSBUS</text>
</a>
</g>
</g>
<!-- Node1&#45;&gt;Node29 -->
<g id="edge37" class="edge">
<title>Node1&#45;&gt;Node29</title>
<path fill="none" stroke="midnightblue" d="M36.96,-323.46C47.52,-308.51 69.83,-279.48 95,-262 100.76,-258 107.28,-254.53 113.85,-251.55"/>
<polygon fill="midnightblue" stroke="midnightblue" points="115.54,-254.64 123.43,-247.56 112.85,-248.18 115.54,-254.64"/>
</g>
<!-- Node30 -->
<g id="node30" class="node">
<title>Node30</title>
<g id="a_node30"><a xlink:href="_transmitter_code_2src_2main_8cpp.html#a230e862a4da0f66746b6b3afba6bd77a" target="_top" xlink:title=" ">
<polygon fill="white" stroke="black" points="109,-437.5 109,-456.5 203,-456.5 203,-437.5 109,-437.5"/>
<text text-anchor="middle" x="156" y="-444.5" font-family="Helvetica,sans-Serif" font-size="10.00">ParseAckPayload</text>
</a>
</g>
</g>
<!-- Node1&#45;&gt;Node30 -->
<g id="edge38" class="edge">
<title>Node1&#45;&gt;Node30</title>
<path fill="none" stroke="midnightblue" d="M41.11,-342.72C62.43,-362.24 110.65,-406.39 136.99,-430.51"/>
<polygon fill="midnightblue" stroke="midnightblue" points="134.67,-433.13 144.41,-437.31 139.4,-427.97 134.67,-433.13"/>
</g>
<!-- Node43 -->
<g id="node42" class="node">
<title>Node43</title>
<g id="a_node42"><a xlink:href="_transmitter_code_2src_2main_8cpp.html#ab0af36f3442ad4f2d0b716c14c7d6085" target="_top" xlink:title=" ">
<polygon fill="white" stroke="black" points="116,-76.5 116,-95.5 196,-95.5 196,-76.5 116,-76.5"/>
<text text-anchor="middle" x="156" y="-83.5" font-family="Helvetica,sans-Serif" font-size="10.00">ReadSwitches</text>
</a>
</g>
</g>
<!-- Node1&#45;&gt;Node43 -->
<g id="edge53" class="edge">
<title>Node1&#45;&gt;Node43</title>
<path fill="none" stroke="midnightblue" d="M30.45,-323.09C30.82,-288.92 36.56,-174.52 95,-110 98.49,-106.15 102.68,-102.91 107.2,-100.18"/>
<polygon fill="midnightblue" stroke="midnightblue" points="108.92,-103.23 116.21,-95.54 105.72,-97 108.92,-103.23"/>
</g>
<!-- Node68 -->
<g id="node45" class="node">
<title>Node68</title>
<g id="a_node45"><a xlink:href="_transmitter_code_2src_2main_8cpp.html#a5d3a46c21927cf7a3031a1e68e0b7b48" target="_top" xlink:title="SHOW COMMS.">
<polygon fill="white" stroke="black" points="279.5,-190.5 279.5,-209.5 354.5,-209.5 354.5,-190.5 279.5,-190.5"/>
<text text-anchor="middle" x="317" y="-197.5" font-family="Helvetica,sans-Serif" font-size="10.00">ShowComms</text>
</a>
</g>
</g>
<!-- Node1&#45;&gt;Node68 -->
<g id="edge58" class="edge">
<title>Node1&#45;&gt;Node68</title>
<path fill="none" stroke="midnightblue" d="M32.74,-323.24C38.53,-300.45 56.35,-243.82 95,-219 147.38,-185.37 221.72,-186.63 269.41,-192.13"/>
<polygon fill="midnightblue" stroke="midnightblue" points="269.09,-195.62 279.45,-193.4 269.97,-188.68 269.09,-195.62"/>
</g>
<!-- Node70 -->
<g id="node48" class="node">
<title>Node70</title>
<g id="a_node48"><a xlink:href="_transmitter_code_2src_2main_8cpp.html#a793b7bcd77531c95fe72ed4356d421c8" target="_top" xlink:title=" ">
<polygon fill="white" stroke="black" points="446.5,-95.5 446.5,-114.5 556.5,-114.5 556.5,-95.5 446.5,-95.5"/>
<text text-anchor="middle" x="501.5" y="-102.5" font-family="Helvetica,sans-Serif" font-size="10.00">StartInactvityTimeout</text>
</a>
</g>
</g>
<!-- Node1&#45;&gt;Node70 -->
<g id="edge68" class="edge">
<title>Node1&#45;&gt;Node70</title>
<path fill="none" stroke="midnightblue" d="M31.6,-323.12C35.17,-296.13 48.99,-220.81 95,-185 196.66,-105.88 256.74,-171.97 381,-138 397.56,-133.47 400.59,-129.03 417,-124 425.37,-121.44 434.3,-119.05 443.09,-116.89"/>
<polygon fill="midnightblue" stroke="midnightblue" points="444.01,-120.27 452.93,-114.55 442.39,-113.46 444.01,-120.27"/>
</g>
<!-- Node71 -->
<g id="node49" class="node">
<title>Node71</title>
<g id="a_node49"><a xlink:href="_radio_functions_8cpp.html#a7051e235b8f694c6b01bb5edf3925dc7" target="_top" xlink:title=" ">
<polygon fill="white" stroke="black" points="119,-19.5 119,-38.5 193,-38.5 193,-19.5 119,-19.5"/>
<text text-anchor="middle" x="156" y="-26.5" font-family="Helvetica,sans-Serif" font-size="10.00">TryOtherPipe</text>
</a>
</g>
</g>
<!-- Node1&#45;&gt;Node71 -->
<g id="edge69" class="edge">
<title>Node1&#45;&gt;Node71</title>
<path fill="none" stroke="midnightblue" d="M30.35,-323.49C30.25,-286.73 34.22,-151.77 95,-67 102.06,-57.16 112.53,-49.27 122.76,-43.29"/>
<polygon fill="midnightblue" stroke="midnightblue" points="124.46,-46.36 131.6,-38.53 121.14,-40.2 124.46,-46.36"/>
</g>
<!-- Node5 -->
<g id="node5" class="node">
<title>Node5</title>
<g id="a_node5"><a xlink:href="_transmitter_code_2src_2main_8cpp.html#a5f10efde246ee0a763708de18a2e15b6" target="_top" xlink:title=" ">
<polygon fill="white" stroke="black" points="646.5,-95.5 646.5,-114.5 722.5,-114.5 722.5,-95.5 646.5,-95.5"/>
<text text-anchor="middle" x="684.5" y="-102.5" font-family="Helvetica,sans-Serif" font-size="10.00">PlayWaveFile</text>
</a>
</g>
</g>
<!-- Node4&#45;&gt;Node5 -->
<g id="edge4" class="edge">
<title>Node4&#45;&gt;Node5</title>
<path fill="none" stroke="midnightblue" d="M536.12,-74.06C564.35,-79.98 604.99,-88.52 636.45,-95.12"/>
<polygon fill="midnightblue" stroke="midnightblue" points="635.81,-98.56 646.32,-97.19 637.25,-91.71 635.81,-98.56"/>
</g>
<!-- Node8 -->
<g id="node8" class="node">
<title>Node8</title>
<g id="a_node8"><a xlink:href="_transmitter_code_2src_2main_8cpp.html#a1e20efc1e419b252b50d36f9924503fc" target="_top" xlink:title=" ">
<polygon fill="white" stroke="black" points="652.5,-171.5 652.5,-190.5 716.5,-190.5 716.5,-171.5 652.5,-171.5"/>
<text text-anchor="middle" x="684.5" y="-178.5" font-family="Helvetica,sans-Serif" font-size="10.00">SendValue</text>
</a>
</g>
</g>
<!-- Node4&#45;&gt;Node8 -->
<g id="edge7" class="edge">
<title>Node4&#45;&gt;Node8</title>
<path fill="none" stroke="midnightblue" d="M536.25,-70.1C552.15,-72.68 570.89,-77.39 586,-86 606.21,-97.52 605.46,-107.64 622,-124 636.09,-137.94 652.59,-153.18 664.95,-164.39"/>
<polygon fill="midnightblue" stroke="midnightblue" points="662.64,-167.02 672.41,-171.12 667.33,-161.82 662.64,-167.02"/>
</g>
<!-- Node6 -->
<g id="node6" class="node">
<title>Node6</title>
<g id="a_node6"><a xlink:href="_transmitter_code_2src_2main_8cpp.html#aecac2f0c289f02ef3c92b85be82eacac" target="_top" xlink:title=" ">
<polygon fill="white" stroke="black" points="783,-233.5 783,-252.5 866,-252.5 866,-233.5 783,-233.5"/>
<text text-anchor="middle" x="824.5" y="-240.5" font-family="Helvetica,sans-Serif" font-size="10.00">SendCommand</text>
</a>
</g>
</g>
<!-- Node5&#45;&gt;Node6 -->
<g id="edge5" class="edge">
<title>Node5&#45;&gt;Node6</title>
<path fill="none" stroke="midnightblue" d="M696.59,-114.88C709.07,-126.07 729.83,-144.99 747,-162 768.53,-183.33 792.36,-208.89 807.61,-225.52"/>
<polygon fill="midnightblue" stroke="midnightblue" points="805.42,-228.31 814.75,-233.33 810.59,-223.58 805.42,-228.31"/>
</g>
<!-- Node7 -->
<g id="node7" class="node">
<title>Node7</title>
<g id="a_node7"><a xlink:href="_transmitter_code_2src_2main_8cpp.html#a43937dd3d9c795271fd9c3eb3c6b6410" target="_top" xlink:title=" ">
<polygon fill="white" stroke="black" points="902,-233.5 902,-252.5 985,-252.5 985,-233.5 902,-233.5"/>
<text text-anchor="middle" x="943.5" y="-240.5" font-family="Helvetica,sans-Serif" font-size="10.00">GetReturnCode</text>
</a>
</g>
</g>
<!-- Node6&#45;&gt;Node7 -->
<g id="edge6" class="edge">
<title>Node6&#45;&gt;Node7</title>
<path fill="none" stroke="midnightblue" d="M866.09,-243C874.35,-243 883.14,-243 891.7,-243"/>
<polygon fill="midnightblue" stroke="midnightblue" points="891.98,-246.5 901.98,-243 891.98,-239.5 891.98,-246.5"/>
</g>
<!-- Node8&#45;&gt;Node6 -->
<g id="edge9" class="edge">
<title>Node8&#45;&gt;Node6</title>
<path fill="none" stroke="midnightblue" d="M711.44,-190.54C722.49,-194.75 735.47,-199.9 747,-205 763.69,-212.38 782.01,-221.45 796.53,-228.87"/>
<polygon fill="midnightblue" stroke="midnightblue" points="794.98,-232.01 805.48,-233.48 798.19,-225.79 794.98,-232.01"/>
</g>
<!-- Node8&#45;&gt;Node7 -->
<g id="edge8" class="edge">
<title>Node8&#45;&gt;Node7</title>
<path fill="none" stroke="midnightblue" d="M716.5,-188.29C752.48,-196.77 813.57,-211.24 866,-224 875.28,-226.26 885.18,-228.69 894.68,-231.05"/>
<polygon fill="midnightblue" stroke="midnightblue" points="893.84,-234.44 904.38,-233.46 895.52,-227.65 893.84,-234.44"/>
</g>
<!-- Node9 -->
<g id="node9" class="node">
<title>Node9</title>
<g id="a_node9"><a xlink:href="_transmitter_code_2src_2main_8cpp.html#a6bac145d5df31efb9c90e2a60a4cbca5" target="_top" xlink:title=" ">
<polygon fill="white" stroke="black" points="810,-608.5 810,-627.5 839,-627.5 839,-608.5 810,-608.5"/>
<text text-anchor="middle" x="824.5" y="-615.5" font-family="Helvetica,sans-Serif" font-size="10.00">Str</text>
</a>
</g>
</g>
<!-- Node8&#45;&gt;Node9 -->
<g id="edge10" class="edge">
<title>Node8&#45;&gt;Node9</title>
<path fill="none" stroke="midnightblue" d="M700.42,-190.65C714.7,-200.71 735.68,-217.81 747,-238 816.42,-361.82 823.38,-539.59 823.68,-598.33"/>
<polygon fill="midnightblue" stroke="midnightblue" points="820.18,-598.44 823.66,-608.44 827.18,-598.45 820.18,-598.44"/>
</g>
<!-- Node12 -->
<g id="node12" class="node">
<title>Node12</title>
<g id="a_node12"><a xlink:href="_transmitter_code_2src_2main_8cpp.html#a7d34cec6e8edc20c8b50424e15dcc7c7" target="_top" xlink:title=" ">
<polygon fill="white" stroke="black" points="470,-361.5 470,-380.5 533,-380.5 533,-361.5 470,-361.5"/>
<text text-anchor="middle" x="501.5" y="-368.5" font-family="Helvetica,sans-Serif" font-size="10.00">RedLedOn</text>
</a>
</g>
</g>
<!-- Node11&#45;&gt;Node12 -->
<g id="edge13" class="edge">
<title>Node11&#45;&gt;Node12</title>
<path fill="none" stroke="midnightblue" d="M354.1,-282.14C363.5,-284.96 373.18,-289.05 381,-295 404.85,-313.14 392.54,-334.7 417,-352 429.31,-360.7 444.96,-365.49 459.39,-368.11"/>
<polygon fill="midnightblue" stroke="midnightblue" points="459.19,-371.62 469.6,-369.65 460.24,-364.69 459.19,-371.62"/>
</g>
<!-- Node14 -->
<g id="node14" class="node">
<title>Node14</title>
<g id="a_node14"><a xlink:href="_transmitter_code_2src_2main_8cpp.html#a0a3d89dfcfab70c6cbc50401fff1afeb" target="_top" xlink:title=" ">
<polygon fill="white" stroke="black" points="630,-608.5 630,-627.5 739,-627.5 739,-608.5 630,-608.5"/>
<text text-anchor="middle" x="684.5" y="-615.5" font-family="Helvetica,sans-Serif" font-size="10.00">ReEnableScanButton</text>
</a>
</g>
</g>
<!-- Node11&#45;&gt;Node14 -->
<g id="edge15" class="edge">
<title>Node11&#45;&gt;Node14</title>
<path fill="none" stroke="midnightblue" d="M354.29,-280.95C363.91,-283.75 373.65,-288.14 381,-295 414.01,-325.8 382.9,-360.4 417,-390 475.14,-440.47 525.13,-380.86 586,-428 643.22,-472.31 669.86,-559.51 679.3,-598.43"/>
<polygon fill="midnightblue" stroke="midnightblue" points="675.9,-599.3 681.55,-608.26 682.72,-597.73 675.9,-599.3"/>
</g>
<!-- Node13 -->
<g id="node13" class="node">
<title>Node13</title>
<g id="a_node13"><a xlink:href="_transmitter_code_2src_2main_8cpp.html#ae90ed68a606b1c7b64a31a91e694facc" target="_top" xlink:title=" ">
<polygon fill="white" stroke="black" points="645,-342.5 645,-361.5 724,-361.5 724,-342.5 645,-342.5"/>
<text text-anchor="middle" x="684.5" y="-349.5" font-family="Helvetica,sans-Serif" font-size="10.00">GetBrightness</text>
</a>
</g>
</g>
<!-- Node12&#45;&gt;Node13 -->
<g id="edge14" class="edge">
<title>Node12&#45;&gt;Node13</title>
<path fill="none" stroke="midnightblue" d="M533.2,-367.78C560.96,-364.86 602.3,-360.52 634.61,-357.13"/>
<polygon fill="midnightblue" stroke="midnightblue" points="635.17,-360.59 644.75,-356.07 634.44,-353.63 635.17,-360.59"/>
</g>
<!-- Node14&#45;&gt;Node6 -->
<g id="edge16" class="edge">
<title>Node14&#45;&gt;Node6</title>
<path fill="none" stroke="midnightblue" d="M726.52,-608.5C734.23,-605.05 741.57,-600.36 747,-594 790.64,-542.88 815.02,-329.04 821.64,-262.71"/>
<polygon fill="midnightblue" stroke="midnightblue" points="825.13,-263.03 822.61,-252.74 818.16,-262.35 825.13,-263.03"/>
</g>
<!-- Node14&#45;&gt;Node9 -->
<g id="edge17" class="edge">
<title>Node14&#45;&gt;Node9</title>
<path fill="none" stroke="midnightblue" d="M739.25,-618C760.03,-618 782.76,-618 799.37,-618"/>
<polygon fill="midnightblue" stroke="midnightblue" points="799.79,-621.5 809.79,-618 799.79,-614.5 799.79,-621.5"/>
</g>
<!-- Node16 -->
<g id="node16" class="node">
<title>Node16</title>
<g id="a_node16"><a xlink:href="_transmitter_code_2src_2main_8cpp.html#ac182a99befc8d4d83532a6c38571a222" target="_top" xlink:title=" ">
<polygon fill="white" stroke="black" points="290,-912.5 290,-931.5 344,-931.5 344,-912.5 290,-912.5"/>
<text text-anchor="middle" x="317" y="-919.5" font-family="Helvetica,sans-Serif" font-size="10.00">DoMixes</text>
</a>
</g>
</g>
<!-- Node15&#45;&gt;Node16 -->
<g id="edge19" class="edge">
<title>Node15&#45;&gt;Node16</title>
<path fill="none" stroke="midnightblue" d="M195.83,-855.56C203.11,-858.11 210.47,-861.23 217,-865 235.79,-875.87 234.53,-886.6 253,-898 261.34,-903.15 270.96,-907.49 280.14,-911.01"/>
<polygon fill="midnightblue" stroke="midnightblue" points="279.24,-914.41 289.83,-914.51 281.61,-907.83 279.24,-914.41"/>
</g>
<!-- Node17 -->
<g id="node17" class="node">
<title>Node17</title>
<g id="a_node17"><a xlink:href="_transmitter_code_2src_2main_8cpp.html#a23f912b672279a759ae7c65c51011160" target="_top" xlink:title=" ">
<polygon fill="white" stroke="black" points="486.5,-874.5 486.5,-893.5 516.5,-893.5 516.5,-874.5 486.5,-874.5"/>
<text text-anchor="middle" x="501.5" y="-881.5" font-family="Helvetica,sans-Serif" font-size="10.00">mp</text>
</a>
</g>
</g>
<!-- Node15&#45;&gt;Node17 -->
<g id="edge24" class="edge">
<title>Node15&#45;&gt;Node17</title>
<path fill="none" stroke="midnightblue" d="M199.35,-855.51C216,-858.95 235.33,-862.58 253,-865 334.48,-876.15 432.01,-881.23 476.39,-883.1"/>
<polygon fill="midnightblue" stroke="midnightblue" points="476.35,-886.6 486.48,-883.51 476.63,-879.61 476.35,-886.6"/>
</g>
<!-- Node18 -->
<g id="node18" class="node">
<title>Node18</title>
<g id="a_node18"><a xlink:href="_transmitter_code_2src_2main_8cpp.html#a1eb1b5f9139051cef03943c3620c7d81" target="_top" xlink:title=" ">
<polygon fill="white" stroke="black" points="278.5,-836.5 278.5,-855.5 355.5,-855.5 355.5,-836.5 278.5,-836.5"/>
<text text-anchor="middle" x="317" y="-843.5" font-family="Helvetica,sans-Serif" font-size="10.00">GetStickInput</text>
</a>
</g>
</g>
<!-- Node15&#45;&gt;Node18 -->
<g id="edge21" class="edge">
<title>Node15&#45;&gt;Node18</title>
<path fill="none" stroke="midnightblue" d="M215.3,-846C232.77,-846 251.71,-846 268.4,-846"/>
<polygon fill="midnightblue" stroke="midnightblue" points="268.47,-849.5 278.47,-846 268.47,-842.5 268.47,-849.5"/>
</g>
<!-- Node19 -->
<g id="node19" class="node">
<title>Node19</title>
<g id="a_node19"><a xlink:href="_transmitter_code_2src_2main_8cpp.html#a66f68b74166e81ad0ecb8fc3a1670eb5" target="_top" xlink:title=" ">
<polygon fill="white" stroke="black" points="291.5,-950.5 291.5,-969.5 342.5,-969.5 342.5,-950.5 291.5,-950.5"/>
<text text-anchor="middle" x="317" y="-957.5" font-family="Helvetica,sans-Serif" font-size="10.00">MapExp</text>
</a>
</g>
</g>
<!-- Node15&#45;&gt;Node19 -->
<g id="edge23" class="edge">
<title>Node15&#45;&gt;Node19</title>
<path fill="none" stroke="midnightblue" d="M201.81,-855.57C207.31,-858.03 212.55,-861.12 217,-865 245.16,-889.58 224.67,-916.62 253,-941 260.99,-947.87 271.4,-952.26 281.45,-955.06"/>
<polygon fill="midnightblue" stroke="midnightblue" points="280.74,-958.49 291.28,-957.37 282.34,-951.68 280.74,-958.49"/>
</g>
<!-- Node16&#45;&gt;Node17 -->
<g id="edge20" class="edge">
<title>Node16&#45;&gt;Node17</title>
<path fill="none" stroke="midnightblue" d="M344.15,-916.56C379.37,-909.22 441.58,-896.27 475.96,-889.11"/>
<polygon fill="midnightblue" stroke="midnightblue" points="476.99,-892.47 486.07,-887 475.57,-885.62 476.99,-892.47"/>
</g>
<!-- Node18&#45;&gt;Node17 -->
<g id="edge22" class="edge">
<title>Node18&#45;&gt;Node17</title>
<path fill="none" stroke="midnightblue" d="M355.81,-853.87C392.05,-861.42 445.65,-872.58 476.41,-878.98"/>
<polygon fill="midnightblue" stroke="midnightblue" points="475.78,-882.43 486.28,-881.04 477.2,-875.57 475.78,-882.43"/>
</g>
<!-- Node21 -->
<g id="node21" class="node">
<title>Node21</title>
<g id="a_node21"><a xlink:href="_receiver_code_2src_2main_8cpp.html#a5424788640aaa8d535d6ea077949ef82" target="_top" xlink:title=" ">
<polygon fill="white" stroke="black" points="291,-798.5 291,-817.5 343,-817.5 343,-798.5 291,-798.5"/>
<text text-anchor="middle" x="317" y="-805.5" font-family="Helvetica,sans-Serif" font-size="10.00">MySbus</text>
</a>
</g>
</g>
<!-- Node20&#45;&gt;Node21 -->
<g id="edge26" class="edge">
<title>Node20&#45;&gt;Node21</title>
<path fill="none" stroke="midnightblue" d="M201.81,-703.57C207.31,-706.03 212.55,-709.12 217,-713 245.16,-737.58 224.67,-764.62 253,-789 260.92,-795.82 271.23,-800.19 281.21,-802.99"/>
<polygon fill="midnightblue" stroke="midnightblue" points="280.43,-806.41 290.97,-805.31 282.05,-799.6 280.43,-806.41"/>
</g>
<!-- Node22&#45;&gt;Node13 -->
<g id="edge28" class="edge">
<title>Node22&#45;&gt;Node13</title>
<path fill="none" stroke="midnightblue" d="M537.83,-336.71C565.47,-339.61 604.2,-343.68 634.78,-346.89"/>
<polygon fill="midnightblue" stroke="midnightblue" points="634.5,-350.38 644.81,-347.94 635.23,-343.41 634.5,-350.38"/>
</g>
<!-- Node23 -->
<g id="node23" class="node">
<title>Node23</title>
<g id="a_node23"><a xlink:href="_transmitter_code_2src_2main_8cpp.html#a2e38b32674344cfc06b09a71dfcaf3f1" target="_top" xlink:title=" ">
<polygon fill="white" stroke="black" points="622,-247.5 622,-266.5 747,-266.5 747,-247.5 622,-247.5"/>
<text text-anchor="middle" x="684.5" y="-254.5" font-family="Helvetica,sans-Serif" font-size="10.00">MakeBindButtonInvisible</text>
</a>
</g>
</g>
<!-- Node22&#45;&gt;Node23 -->
<g id="edge29" class="edge">
<title>Node22&#45;&gt;Node23</title>
<path fill="none" stroke="midnightblue" d="M520.36,-323.47C543.41,-311.41 584.96,-290.47 622,-276 627.6,-273.81 633.57,-271.7 639.49,-269.74"/>
<polygon fill="midnightblue" stroke="midnightblue" points="640.9,-272.96 649.36,-266.58 638.77,-266.3 640.9,-272.96"/>
</g>
<!-- Node23&#45;&gt;Node6 -->
<g id="edge30" class="edge">
<title>Node23&#45;&gt;Node6</title>
<path fill="none" stroke="midnightblue" d="M747.23,-250.74C755.71,-249.88 764.34,-249 772.59,-248.16"/>
<polygon fill="midnightblue" stroke="midnightblue" points="773.21,-251.62 782.81,-247.13 772.5,-244.66 773.21,-251.62"/>
</g>
<!-- Node25&#45;&gt;Node6 -->
<g id="edge34" class="edge">
<title>Node25&#45;&gt;Node6</title>
<path fill="none" stroke="midnightblue" d="M200.52,-655.34C281.98,-652.27 460.59,-636.66 586,-561 710.43,-485.92 791.04,-318.71 815.57,-262.14"/>
<polygon fill="midnightblue" stroke="midnightblue" points="818.92,-263.2 819.61,-252.63 812.48,-260.46 818.92,-263.2"/>
</g>
<!-- Node26 -->
<g id="node26" class="node">
<title>Node26</title>
<g id="a_node26"><a xlink:href="_transmitter_code_2src_2main_8cpp.html#a5aa4888b924a4f1d95e9cedc3004f2b6" target="_top" xlink:title=" ">
<polygon fill="white" stroke="black" points="275.5,-684.5 275.5,-703.5 358.5,-703.5 358.5,-684.5 275.5,-684.5"/>
<text text-anchor="middle" x="317" y="-691.5" font-family="Helvetica,sans-Serif" font-size="10.00">MakeTwobytes</text>
</a>
</g>
</g>
<!-- Node25&#45;&gt;Node26 -->
<g id="edge33" class="edge">
<title>Node25&#45;&gt;Node26</title>
<path fill="none" stroke="midnightblue" d="M197.12,-665.59C218.1,-670.6 243.98,-676.79 266.23,-682.11"/>
<polygon fill="midnightblue" stroke="midnightblue" points="265.63,-685.56 276.17,-684.48 267.25,-678.75 265.63,-685.56"/>
</g>
<!-- Node27 -->
<g id="node27" class="node">
<title>Node27</title>
<g id="a_node27"><a xlink:href="_receiver_code_2src_2main_8cpp.html#a31a35307bbac88ceda244272f25d399a" target="_top" xlink:title=" ">
<polygon fill="white" stroke="black" points="265,-760.5 265,-779.5 369,-779.5 369,-760.5 265,-760.5"/>
<text text-anchor="middle" x="317" y="-767.5" font-family="Helvetica,sans-Serif" font-size="10.00">SetTestFrequencies</text>
</a>
</g>
</g>
<!-- Node25&#45;&gt;Node27 -->
<g id="edge35" class="edge">
<title>Node25&#45;&gt;Node27</title>
<path fill="none" stroke="midnightblue" d="M200.59,-665.04C206.53,-667.58 212.23,-670.83 217,-675 245.16,-699.58 224.67,-726.62 253,-751 254.97,-752.7 257.09,-754.24 259.31,-755.65"/>
<polygon fill="midnightblue" stroke="midnightblue" points="257.84,-758.83 268.32,-760.42 261.12,-752.64 257.84,-758.83"/>
</g>
<!-- Node28 -->
<g id="node28" class="node">
<title>Node28</title>
<g id="a_node28"><a xlink:href="_receiver_code_2src_2main_8cpp.html#a2eabdb233653fa02f0b899e26b5e8ce7" target="_top" xlink:title=" ">
<polygon fill="white" stroke="black" points="267.5,-722.5 267.5,-741.5 366.5,-741.5 366.5,-722.5 267.5,-722.5"/>
<text text-anchor="middle" x="317" y="-729.5" font-family="Helvetica,sans-Serif" font-size="10.00">SetUKFrequencies</text>
</a>
</g>
</g>
<!-- Node25&#45;&gt;Node28 -->
<g id="edge36" class="edge">
<title>Node25&#45;&gt;Node28</title>
<path fill="none" stroke="midnightblue" d="M196.99,-665.54C203.94,-668.06 210.89,-671.17 217,-675 236.72,-687.35 233.2,-700.79 253,-713 256.4,-715.1 260.05,-716.98 263.82,-718.66"/>
<polygon fill="midnightblue" stroke="midnightblue" points="262.76,-722.01 273.34,-722.45 265.34,-715.5 262.76,-722.01"/>
</g>
<!-- Node31 -->
<g id="node31" class="node">
<title>Node31</title>
<g id="a_node31"><a xlink:href="_transmitter_code_2src_2main_8cpp.html#a75fa77e7bbb1cfe8fe6e1a216fbdc17e" target="_top" xlink:title=" ">
<polygon fill="white" stroke="black" points="284.5,-570.5 284.5,-589.5 349.5,-589.5 349.5,-570.5 284.5,-570.5"/>
<text text-anchor="middle" x="317" y="-577.5" font-family="Helvetica,sans-Serif" font-size="10.00">GetAltitude</text>
</a>
</g>
</g>
<!-- Node30&#45;&gt;Node31 -->
<g id="edge39" class="edge">
<title>Node30&#45;&gt;Node31</title>
<path fill="none" stroke="midnightblue" d="M163.03,-456.55C176.63,-477.4 211.76,-527.4 253,-556 259.63,-560.6 267.25,-564.46 274.86,-567.64"/>
<polygon fill="midnightblue" stroke="midnightblue" points="273.81,-570.99 284.4,-571.33 276.33,-564.46 273.81,-570.99"/>
</g>
<!-- Node32 -->
<g id="node32" class="node">
<title>Node32</title>
<g id="a_node32"><a xlink:href="_transmitter_code_2src_2main_8cpp.html#a152eb4c62f6b770bc56d10268907b0cb" target="_top" xlink:title=" ">
<polygon fill="white" stroke="black" points="448,-532.5 448,-551.5 555,-551.5 555,-532.5 448,-532.5"/>
<text text-anchor="middle" x="501.5" y="-539.5" font-family="Helvetica,sans-Serif" font-size="10.00">GetFromAckPayload</text>
</a>
</g>
</g>
<!-- Node30&#45;&gt;Node32 -->
<g id="edge42" class="edge">
<title>Node30&#45;&gt;Node32</title>
<path fill="none" stroke="midnightblue" d="M165.35,-456.61C180.73,-473.54 215.39,-508.28 253,-523 312.51,-546.29 386.12,-548.98 437.53,-547.11"/>
<polygon fill="midnightblue" stroke="midnightblue" points="437.98,-550.6 447.82,-546.67 437.68,-543.6 437.98,-550.6"/>
</g>
<!-- Node33 -->
<g id="node33" class="node">
<title>Node33</title>
<g id="a_node33"><a xlink:href="_transmitter_code_2src_2main_8cpp.html#a160b9119423c34869b16a4ebdc421d35" target="_top" xlink:title=" ">
<polygon fill="white" stroke="black" points="253.5,-418.5 253.5,-437.5 380.5,-437.5 380.5,-418.5 253.5,-418.5"/>
<text text-anchor="middle" x="317" y="-425.5" font-family="Helvetica,sans-Serif" font-size="10.00">GetDateFromAckPayload</text>
</a>
</g>
</g>
<!-- Node30&#45;&gt;Node33 -->
<g id="edge41" class="edge">
<title>Node30&#45;&gt;Node33</title>
<path fill="none" stroke="midnightblue" d="M203.42,-441.45C215.83,-439.97 229.56,-438.33 243.04,-436.72"/>
<polygon fill="midnightblue" stroke="midnightblue" points="243.75,-440.16 253.27,-435.5 242.92,-433.21 243.75,-440.16"/>
</g>
<!-- Node34 -->
<g id="node34" class="node">
<title>Node34</title>
<g id="a_node34"><a xlink:href="_transmitter_code_2src_2main_8cpp.html#a4f813935d8fe58355228cbbf25e12f96" target="_top" xlink:title=" ">
<polygon fill="white" stroke="black" points="628,-646.5 628,-665.5 741,-665.5 741,-646.5 628,-646.5"/>
<text text-anchor="middle" x="684.5" y="-653.5" font-family="Helvetica,sans-Serif" font-size="10.00">GetRXVersionNumber</text>
</a>
</g>
</g>
<!-- Node30&#45;&gt;Node34 -->
<g id="edge43" class="edge">
<title>Node30&#45;&gt;Node34</title>
<path fill="none" stroke="midnightblue" d="M159.84,-456.54C168.56,-484.02 197.8,-563.65 253,-599 365.33,-670.93 528.03,-670.66 617.81,-663.63"/>
<polygon fill="midnightblue" stroke="midnightblue" points="618.19,-667.11 627.86,-662.79 617.61,-660.14 618.19,-667.11"/>
</g>
<!-- Node35 -->
<g id="node35" class="node">
<title>Node35</title>
<g id="a_node35"><a xlink:href="_transmitter_code_2src_2main_8cpp.html#a19f6fc09d690832e74fd3c679207f07f" target="_top" xlink:title=" ">
<polygon fill="white" stroke="black" points="273.5,-494.5 273.5,-513.5 360.5,-513.5 360.5,-494.5 273.5,-494.5"/>
<text text-anchor="middle" x="317" y="-501.5" font-family="Helvetica,sans-Serif" font-size="10.00">GetTemperature</text>
</a>
</g>
</g>
<!-- Node30&#45;&gt;Node35 -->
<g id="edge45" class="edge">
<title>Node30&#45;&gt;Node35</title>
<path fill="none" stroke="midnightblue" d="M179.69,-456.6C199.01,-464.64 227.61,-476.16 253,-485 259.38,-487.22 266.17,-489.43 272.85,-491.51"/>
<polygon fill="midnightblue" stroke="midnightblue" points="271.9,-494.88 282.48,-494.46 273.94,-488.19 271.9,-494.88"/>
</g>
<!-- Node36 -->
<g id="node36" class="node">
<title>Node36</title>
<g id="a_node36"><a xlink:href="_transmitter_code_2src_2main_8cpp.html#a86523345ecdd52f3d93dccd6fcf4370a" target="_top" xlink:title=" ">
<polygon fill="white" stroke="black" points="253,-380.5 253,-399.5 381,-399.5 381,-380.5 253,-380.5"/>
<text text-anchor="middle" x="317" y="-387.5" font-family="Helvetica,sans-Serif" font-size="10.00">GetTimeFromAckPayload</text>
</a>
</g>
</g>
<!-- Node30&#45;&gt;Node36 -->
<g id="edge47" class="edge">
<title>Node30&#45;&gt;Node36</title>
<path fill="none" stroke="midnightblue" d="M179.69,-437.4C199.01,-429.36 227.61,-417.84 253,-409 259.38,-406.78 266.17,-404.57 272.85,-402.49"/>
<polygon fill="midnightblue" stroke="midnightblue" points="273.94,-405.81 282.48,-399.54 271.9,-399.12 273.94,-405.81"/>
</g>
<!-- Node37 -->
<g id="node37" class="node">
<title>Node37</title>
<g id="a_node37"><a xlink:href="radio_8h.html#a62ec0168b1eea5f5c14f663d9217574d" target="_top" xlink:title=" ">
<polygon fill="white" stroke="black" points="266.5,-456.5 266.5,-475.5 367.5,-475.5 367.5,-456.5 266.5,-456.5"/>
<text text-anchor="middle" x="317" y="-463.5" font-family="Helvetica,sans-Serif" font-size="10.00">HopToNextChannel</text>
</a>
</g>
</g>
<!-- Node30&#45;&gt;Node37 -->
<g id="edge48" class="edge">
<title>Node30&#45;&gt;Node37</title>
<path fill="none" stroke="midnightblue" d="M203.42,-452.55C219.97,-454.52 238.85,-456.78 256.35,-458.87"/>
<polygon fill="midnightblue" stroke="midnightblue" points="256.13,-462.37 266.47,-460.08 256.96,-455.42 256.13,-462.37"/>
</g>
<!-- Node39 -->
<g id="node39" class="node">
<title>Node39</title>
<g id="a_node39"><a xlink:href="_transmitter_code_2src_2main_8cpp.html#a7a48851f0d38e4a0dd727a30d9515cf1" target="_top" xlink:title=" ">
<polygon fill="white" stroke="black" points="279.5,-304.5 279.5,-323.5 354.5,-323.5 354.5,-304.5 279.5,-304.5"/>
<text text-anchor="middle" x="317" y="-311.5" font-family="Helvetica,sans-Serif" font-size="10.00">ReadTheRTC</text>
</a>
</g>
</g>
<!-- Node30&#45;&gt;Node39 -->
<g id="edge50" class="edge">
<title>Node30&#45;&gt;Node39</title>
<path fill="none" stroke="midnightblue" d="M164.01,-437.33C182.14,-412.54 230.74,-347.65 253,-333 258.07,-329.66 263.76,-326.89 269.58,-324.59"/>
<polygon fill="midnightblue" stroke="midnightblue" points="271.13,-327.76 279.43,-321.16 268.83,-321.15 271.13,-327.76"/>
</g>
<!-- Node40 -->
<g id="node40" class="node">
<title>Node40</title>
<g id="a_node40"><a xlink:href="_transmitter_code_2src_2main_8cpp.html#abb1ea95b6b3f033883aa87682d3240ab" target="_top" xlink:title=" ">
<polygon fill="white" stroke="black" points="255,-342.5 255,-361.5 379,-361.5 379,-342.5 255,-342.5"/>
<text text-anchor="middle" x="317" y="-349.5" font-family="Helvetica,sans-Serif" font-size="10.00">SynchRTCwithGPSTime</text>
</a>
</g>
</g>
<!-- Node30&#45;&gt;Node40 -->
<g id="edge51" class="edge">
<title>Node30&#45;&gt;Node40</title>
<path fill="none" stroke="midnightblue" d="M166.48,-437.42C182.78,-421.47 217.76,-389.4 253,-371 257.27,-368.77 261.84,-366.76 266.5,-364.96"/>
<polygon fill="midnightblue" stroke="midnightblue" points="267.86,-368.19 276.11,-361.54 265.52,-361.59 267.86,-368.19"/>
</g>
<!-- Node31&#45;&gt;Node32 -->
<g id="edge40" class="edge">
<title>Node31&#45;&gt;Node32</title>
<path fill="none" stroke="midnightblue" d="M349.79,-573.38C375.96,-567.93 413.69,-560.08 444.85,-553.59"/>
<polygon fill="midnightblue" stroke="midnightblue" points="445.64,-557 454.71,-551.53 444.21,-550.15 445.64,-557"/>
</g>
<!-- Node34&#45;&gt;Node9 -->
<g id="edge44" class="edge">
<title>Node34&#45;&gt;Node9</title>
<path fill="none" stroke="midnightblue" d="M720.32,-646.41C745.3,-639.53 778.27,-630.45 800.14,-624.43"/>
<polygon fill="midnightblue" stroke="midnightblue" points="801.19,-627.77 809.91,-621.74 799.34,-621.02 801.19,-627.77"/>
</g>
<!-- Node35&#45;&gt;Node32 -->
<g id="edge46" class="edge">
<title>Node35&#45;&gt;Node32</title>
<path fill="none" stroke="midnightblue" d="M360.79,-512.91C385.82,-518.12 417.72,-524.76 444.71,-530.38"/>
<polygon fill="midnightblue" stroke="midnightblue" points="444.29,-533.87 454.79,-532.48 445.71,-527.02 444.29,-533.87"/>
</g>
<!-- Node38 -->
<g id="node38" class="node">
<title>Node38</title>
<g id="a_node38"><a xlink:href="radio_8h.html#a2863e7455e30e6fddc0fcf56f62d6564" target="_top" xlink:title=" ">
<polygon fill="white" stroke="black" points="446.5,-475.5 446.5,-494.5 556.5,-494.5 556.5,-475.5 446.5,-475.5"/>
<text text-anchor="middle" x="501.5" y="-482.5" font-family="Helvetica,sans-Serif" font-size="10.00">ShowHopDurationEtc</text>
</a>
</g>
</g>
<!-- Node37&#45;&gt;Node38 -->
<g id="edge49" class="edge">
<title>Node37&#45;&gt;Node38</title>
<path fill="none" stroke="midnightblue" d="M367.87,-471.19C388.92,-473.38 413.7,-475.96 436.1,-478.3"/>
<polygon fill="midnightblue" stroke="midnightblue" points="435.9,-481.79 446.21,-479.35 436.62,-474.83 435.9,-481.79"/>
</g>
<!-- Node41 -->
<g id="node41" class="node">
<title>Node41</title>
<g id="a_node41"><a xlink:href="_transmitter_code_2src_2main_8cpp.html#a12d5a2fc981085112cd6b885f22247e8" target="_top" xlink:title=" ">
<polygon fill="white" stroke="red" points="467.5,-437.5 467.5,-456.5 535.5,-456.5 535.5,-437.5 467.5,-437.5"/>
<text text-anchor="middle" x="501.5" y="-444.5" font-family="Helvetica,sans-Serif" font-size="10.00">SetTheRTC</text>
</a>
</g>
</g>
<!-- Node40&#45;&gt;Node41 -->
<g id="edge52" class="edge">
<title>Node40&#45;&gt;Node41</title>
<path fill="none" stroke="midnightblue" d="M363.15,-361.52C369.48,-363.99 375.64,-367.1 381,-371 403.73,-387.54 394.16,-406.61 417,-423 428.83,-431.49 443.62,-436.99 457.45,-440.55"/>
<polygon fill="midnightblue" stroke="midnightblue" points="456.76,-443.98 467.29,-442.81 458.33,-437.16 456.76,-443.98"/>
</g>
<!-- Node44 -->
<g id="node43" class="node">
<title>Node44</title>
<g id="a_node43"><a xlink:href="_transmitter_code_2src_2main_8cpp.html#add643409678258cabdb0aa1ae76d802a" target="_top" xlink:title=" ">
<polygon fill="white" stroke="red" points="261.5,-76.5 261.5,-95.5 372.5,-95.5 372.5,-76.5 261.5,-76.5"/>
<text text-anchor="middle" x="317" y="-83.5" font-family="Helvetica,sans-Serif" font-size="10.00">CheckHardwareTrims</text>
</a>
</g>
</g>
<!-- Node43&#45;&gt;Node44 -->
<g id="edge54" class="edge">
<title>Node43&#45;&gt;Node44</title>
<path fill="none" stroke="midnightblue" d="M196.3,-86C212.83,-86 232.5,-86 251.08,-86"/>
<polygon fill="midnightblue" stroke="midnightblue" points="251.26,-89.5 261.26,-86 251.26,-82.5 251.26,-89.5"/>
</g>
<!-- Node51 -->
<g id="node44" class="node">
<title>Node51</title>
<g id="a_node44"><a xlink:href="_transmitter_code_2src_2main_8cpp.html#adf35f0ced7990f813a783d0ecd33bf64" target="_top" xlink:title=" ">
<polygon fill="white" stroke="red" points="277,-38.5 277,-57.5 357,-57.5 357,-38.5 277,-38.5"/>
<text text-anchor="middle" x="317" y="-45.5" font-family="Helvetica,sans-Serif" font-size="10.00">GetFlightMode</text>
</a>
</g>
</g>
<!-- Node43&#45;&gt;Node51 -->
<g id="edge55" class="edge">
<title>Node43&#45;&gt;Node51</title>
<path fill="none" stroke="midnightblue" d="M196.3,-76.61C217.69,-71.49 244.35,-65.12 267.07,-59.69"/>
<polygon fill="midnightblue" stroke="midnightblue" points="267.96,-63.08 276.87,-57.35 266.33,-56.27 267.96,-63.08"/>
</g>
<!-- Node51&#45;&gt;Node4 -->
<g id="edge56" class="edge">
<title>Node51&#45;&gt;Node4</title>
<path fill="none" stroke="midnightblue" d="M357.15,-52.08C386.38,-55.12 426.34,-59.28 456.64,-62.43"/>
<polygon fill="midnightblue" stroke="midnightblue" points="456.62,-65.95 466.93,-63.5 457.34,-58.99 456.62,-65.95"/>
</g>
<!-- Node51&#45;&gt;Node6 -->
<g id="edge57" class="edge">
<title>Node51&#45;&gt;Node6</title>
<path fill="none" stroke="midnightblue" d="M357.21,-38.53C439.44,-21.16 631.82,6.12 747,-86 791.68,-121.73 812.05,-190.07 819.68,-223.55"/>
<polygon fill="midnightblue" stroke="midnightblue" points="816.29,-224.42 821.79,-233.47 823.13,-222.96 816.29,-224.42"/>
</g>
<!-- Node68&#45;&gt;Node6 -->
<g id="edge62" class="edge">
<title>Node68&#45;&gt;Node6</title>
<path fill="none" stroke="midnightblue" d="M354.76,-203.13C443.72,-210.69 670.76,-230.01 772.65,-238.67"/>
<polygon fill="midnightblue" stroke="midnightblue" points="772.44,-242.17 782.7,-239.53 773.03,-235.19 772.44,-242.17"/>
</g>
<!-- Node68&#45;&gt;Node8 -->
<g id="edge66" class="edge">
<title>Node68&#45;&gt;Node8</title>
<path fill="none" stroke="midnightblue" d="M354.72,-198.09C423.3,-194.53 570.42,-186.88 642.28,-183.14"/>
<polygon fill="midnightblue" stroke="midnightblue" points="642.52,-186.64 652.32,-182.62 642.15,-179.64 642.52,-186.64"/>
</g>
<!-- Node68&#45;&gt;Node22 -->
<g id="edge60" class="edge">
<title>Node68&#45;&gt;Node22</title>
<path fill="none" stroke="midnightblue" d="M354.53,-208.33C364.04,-211.9 373.67,-216.93 381,-224 410.54,-252.47 386.29,-281.79 417,-309 427.72,-318.5 441.98,-324.25 455.67,-327.73"/>
<polygon fill="midnightblue" stroke="midnightblue" points="454.96,-331.16 465.48,-329.89 456.46,-324.32 454.96,-331.16"/>
</g>
<!-- Node68&#45;&gt;Node23 -->
<g id="edge61" class="edge">
<title>Node68&#45;&gt;Node23</title>
<path fill="none" stroke="midnightblue" d="M341.58,-209.59C361.37,-217.21 390.57,-227.48 417,-233 482.04,-246.58 557.6,-252.47 611.61,-255.04"/>
<polygon fill="midnightblue" stroke="midnightblue" points="611.63,-258.54 621.78,-255.49 611.95,-251.55 611.63,-258.54"/>
</g>
<!-- Node69 -->
<g id="node46" class="node">
<title>Node69</title>
<g id="a_node46"><a xlink:href="class_adafruit___i_n_a219.html#ab27c5ff8681cbe04c80bc3efc840dca4" target="_top" xlink:title="Gets the shunt voltage in volts.">
<polygon fill="white" stroke="black" points="417,-133.5 417,-152.5 586,-152.5 586,-133.5 417,-133.5"/>
<text text-anchor="middle" x="501.5" y="-140.5" font-family="Helvetica,sans-Serif" font-size="10.00">Adafruit_INA219::getBusVoltage_V</text>
</a>
</g>
</g>
<!-- Node68&#45;&gt;Node69 -->
<g id="edge59" class="edge">
<title>Node68&#45;&gt;Node69</title>
<path fill="none" stroke="midnightblue" d="M345.64,-190.44C365.44,-183.68 392.77,-174.52 417,-167 429.62,-163.09 443.38,-159.04 456.02,-155.41"/>
<polygon fill="midnightblue" stroke="midnightblue" points="457.21,-158.71 465.87,-152.6 455.3,-151.98 457.21,-158.71"/>
</g>
<!-- Node66 -->
<g id="node47" class="node">
<title>Node66</title>
<g id="a_node47"><a xlink:href="_transmitter_code_2src_2main_8cpp.html#afe513398f72d5e48f691830a1ef6eb42" target="_top" xlink:title=" ">
<polygon fill="white" stroke="black" points="655.5,-285.5 655.5,-304.5 713.5,-304.5 713.5,-285.5 655.5,-285.5"/>
<text text-anchor="middle" x="684.5" y="-292.5" font-family="Helvetica,sans-Serif" font-size="10.00">SendText</text>
</a>
</g>
</g>
<!-- Node68&#45;&gt;Node66 -->
<g id="edge63" class="edge">
<title>Node68&#45;&gt;Node66</title>
<path fill="none" stroke="midnightblue" d="M350.18,-209.61C360.42,-213.35 371.54,-218.16 381,-224 399.47,-235.4 397.38,-247.72 417,-257 492.25,-292.59 591.81,-297.05 645.41,-296.47"/>
<polygon fill="midnightblue" stroke="midnightblue" points="645.56,-299.97 655.5,-296.3 645.44,-292.97 645.56,-299.97"/>
</g>
<!-- Node68&#45;&gt;Node70 -->
<g id="edge67" class="edge">
<title>Node68&#45;&gt;Node70</title>
<path fill="none" stroke="midnightblue" d="M354.29,-190.39C363.59,-186.84 373.17,-182.14 381,-176 403.13,-158.66 393.71,-139.74 417,-124 423.01,-119.94 429.77,-116.73 436.76,-114.2"/>
<polygon fill="midnightblue" stroke="midnightblue" points="437.92,-117.51 446.41,-111.16 435.82,-110.83 437.92,-117.51"/>
</g>
<!-- Node66&#45;&gt;Node6 -->
<g id="edge65" class="edge">
<title>Node66&#45;&gt;Node6</title>
<path fill="none" stroke="midnightblue" d="M713.57,-287.02C724.14,-283.84 736.2,-279.98 747,-276 762.66,-270.22 779.74,-262.95 793.78,-256.7"/>
<polygon fill="midnightblue" stroke="midnightblue" points="795.28,-259.87 802.96,-252.57 792.41,-253.48 795.28,-259.87"/>
</g>
<!-- Node66&#45;&gt;Node7 -->
<g id="edge64" class="edge">
<title>Node66&#45;&gt;Node7</title>
<path fill="none" stroke="midnightblue" d="M713.75,-290.4C749.37,-284.47 812.44,-273.54 866,-262 875.83,-259.88 886.33,-257.41 896.29,-254.97"/>
<polygon fill="midnightblue" stroke="midnightblue" points="897.17,-258.36 906.03,-252.55 895.48,-251.57 897.17,-258.36"/>
</g>
<!-- Node72 -->
<g id="node50" class="node">
<title>Node72</title>
<g id="a_node50"><a xlink:href="_radio_functions_8cpp.html#a70dc6f8d2e5ccef6b8e4a2b9b0afb2ce" target="_top" xlink:title=" ">
<polygon fill="white" stroke="red" points="283,-0.5 283,-19.5 351,-19.5 351,-0.5 283,-0.5"/>
<text text-anchor="middle" x="317" y="-7.5" font-family="Helvetica,sans-Serif" font-size="10.00">SetThePipe</text>
</a>
</g>
</g>
<!-- Node71&#45;&gt;Node72 -->
<g id="edge70" class="edge">
<title>Node71&#45;&gt;Node72</title>
<path fill="none" stroke="midnightblue" d="M193.08,-24.69C216.76,-21.86 247.84,-18.14 272.83,-15.16"/>
<polygon fill="midnightblue" stroke="midnightblue" points="273.26,-18.63 282.77,-13.97 272.43,-11.68 273.26,-18.63"/>
</g>
</g>
</svg>
