<?xml version="1.0" encoding="UTF-8" standalone="no"?>
<!DOCTYPE svg PUBLIC "-//W3C//DTD SVG 1.1//EN"
 "http://www.w3.org/Graphics/SVG/1.1/DTD/svg11.dtd">
<!-- Generated by graphviz version 3.0.0 (20220413.0242)
 -->
<!-- Title: SuccessfulPacket Pages: 1 -->
<svg width="1262pt" height="934pt"
 viewBox="0.00 0.00 1262.00 933.52" xmlns="http://www.w3.org/2000/svg" xmlns:xlink="http://www.w3.org/1999/xlink">
<g id="graph0" class="graph" transform="scale(1 1) rotate(0) translate(4 929.52)">
<title>SuccessfulPacket</title>
<polygon fill="white" stroke="transparent" points="-4,4 -4,-929.52 1258,-929.52 1258,4 -4,4"/>
<!-- Node1 -->
<g id="node1" class="node">
<title>Node1</title>
<g id="a_node1"><a xlink:title=" ">
<polygon fill="#bfbfbf" stroke="black" points="0,-342.5 0,-361.5 96,-361.5 96,-342.5 0,-342.5"/>
<text text-anchor="middle" x="48" y="-349.5" font-family="Helvetica,sans-Serif" font-size="10.00">SuccessfulPacket</text>
</a>
</g>
</g>
<!-- Node2 -->
<g id="node2" class="node">
<title>Node2</title>
<g id="a_node2"><a xlink:href="_transmitter_code_2src_2main_8cpp.html#a953f1d5046e183549ed95b08f6d675e3" target="_top" xlink:title=" ">
<polygon fill="white" stroke="black" points="144,-342.5 144,-361.5 242,-361.5 242,-342.5 144,-342.5"/>
<text text-anchor="middle" x="193" y="-349.5" font-family="Helvetica,sans-Serif" font-size="10.00">CheckGapsLength</text>
</a>
</g>
</g>
<!-- Node1&#45;&gt;Node2 -->
<g id="edge1" class="edge">
<title>Node1&#45;&gt;Node2</title>
<path fill="none" stroke="midnightblue" d="M96.22,-352C108.17,-352 121.14,-352 133.57,-352"/>
<polygon fill="midnightblue" stroke="midnightblue" points="133.85,-355.5 143.85,-352 133.85,-348.5 133.85,-355.5"/>
</g>
<!-- Node14 -->
<g id="node14" class="node">
<title>Node14</title>
<g id="a_node14"><a xlink:href="_transmitter_code_2src_2main_8cpp.html#a62e53eb9359c32b666e3386d62c57037" target="_top" xlink:title=" ">
<polygon fill="white" stroke="black" points="157,-532.5 157,-551.5 229,-551.5 229,-532.5 157,-532.5"/>
<text text-anchor="middle" x="193" y="-539.5" font-family="Helvetica,sans-Serif" font-size="10.00">GreenLedOn</text>
</a>
</g>
</g>
<!-- Node1&#45;&gt;Node14 -->
<g id="edge16" class="edge">
<title>Node1&#45;&gt;Node14</title>
<path fill="none" stroke="midnightblue" d="M56.29,-361.68C78.95,-391.79 148.41,-484.08 178.2,-523.66"/>
<polygon fill="midnightblue" stroke="midnightblue" points="175.75,-526.22 184.56,-532.11 181.34,-522.01 175.75,-526.22"/>
</g>
<!-- Node32 -->
<g id="node32" class="node">
<title>Node32</title>
<g id="a_node32"><a xlink:href="_transmitter_code_2src_2main_8cpp.html#a793b7bcd77531c95fe72ed4356d421c8" target="_top" xlink:title=" ">
<polygon fill="white" stroke="black" points="461.5,-418.5 461.5,-437.5 571.5,-437.5 571.5,-418.5 461.5,-418.5"/>
<text text-anchor="middle" x="516.5" y="-425.5" font-family="Helvetica,sans-Serif" font-size="10.00">StartInactvityTimeout</text>
</a>
</g>
</g>
<!-- Node1&#45;&gt;Node32 -->
<g id="edge79" class="edge">
<title>Node1&#45;&gt;Node32</title>
<path fill="none" stroke="midnightblue" d="M87.28,-361.54C101.29,-364.83 117.31,-368.35 132,-371 258.19,-393.78 291.46,-388.28 418,-409 431.43,-411.2 445.84,-413.85 459.35,-416.46"/>
<polygon fill="midnightblue" stroke="midnightblue" points="458.99,-419.95 469.48,-418.44 460.34,-413.08 458.99,-419.95"/>
</g>
<!-- Node34 -->
<g id="node34" class="node">
<title>Node34</title>
<g id="a_node34"><a xlink:href="_transmitter_code_2src_2main_8cpp.html#a694f4f5a0147f4dc29b0bc1a8951547d" target="_top" xlink:title=" ">
<polygon fill="white" stroke="black" points="146,-190.5 146,-209.5 240,-209.5 240,-190.5 146,-190.5"/>
<text text-anchor="middle" x="193" y="-197.5" font-family="Helvetica,sans-Serif" font-size="10.00">ParseAckPayload</text>
</a>
</g>
</g>
<!-- Node1&#45;&gt;Node34 -->
<g id="edge60" class="edge">
<title>Node1&#45;&gt;Node34</title>
<path fill="none" stroke="midnightblue" d="M57.95,-342.49C81.62,-317.33 146.15,-248.74 176.21,-216.79"/>
<polygon fill="midnightblue" stroke="midnightblue" points="178.76,-219.19 183.06,-209.5 173.66,-214.39 178.76,-219.19"/>
</g>
<!-- Node48 -->
<g id="node48" class="node">
<title>Node48</title>
<g id="a_node48"><a xlink:href="_radio_functions_8cpp.html#afc091b5942e21a03f6dc8635d5e519ba" target="_top" xlink:title=" ">
<polygon fill="white" stroke="black" points="132,-152.5 132,-171.5 254,-171.5 254,-152.5 132,-152.5"/>
<text text-anchor="middle" x="193" y="-159.5" font-family="Helvetica,sans-Serif" font-size="10.00">RecordsPacketSuccess</text>
</a>
</g>
</g>
<!-- Node1&#45;&gt;Node48 -->
<g id="edge78" class="edge">
<title>Node1&#45;&gt;Node48</title>
<path fill="none" stroke="midnightblue" d="M50.91,-342.23C57.1,-313.17 79.32,-226.53 132,-181 133.95,-179.31 136.06,-177.77 138.27,-176.37"/>
<polygon fill="midnightblue" stroke="midnightblue" points="140.03,-179.4 147.22,-171.61 136.75,-173.22 140.03,-179.4"/>
</g>
<!-- Node3 -->
<g id="node3" class="node">
<title>Node3</title>
<g id="a_node3"><a xlink:href="_transmitter_code_2src_2main_8cpp.html#a1fadc7cdd854f8b3628b622da5417d8b" target="_top" xlink:title=" ">
<polygon fill="white" stroke="black" points="481.5,-380.5 481.5,-399.5 551.5,-399.5 551.5,-380.5 481.5,-380.5"/>
<text text-anchor="middle" x="516.5" y="-387.5" font-family="Helvetica,sans-Serif" font-size="10.00">LogThisGap</text>
</a>
</g>
</g>
<!-- Node2&#45;&gt;Node3 -->
<g id="edge2" class="edge">
<title>Node2&#45;&gt;Node3</title>
<path fill="none" stroke="midnightblue" d="M242.12,-356.65C287.52,-361.16 357.46,-368.41 418,-376 435.42,-378.18 454.56,-380.87 471.23,-383.3"/>
<polygon fill="midnightblue" stroke="midnightblue" points="470.84,-386.78 481.25,-384.78 471.86,-379.86 470.84,-386.78"/>
</g>
<!-- Node4 -->
<g id="node4" class="node">
<title>Node4</title>
<g id="a_node4"><a xlink:href="_transmitter_code_2src_2main_8cpp.html#add8d8f400f1c1c4a5add52736cdf94ca" target="_top" xlink:title=" ">
<polygon fill="white" stroke="black" points="673.5,-418.5 673.5,-437.5 725.5,-437.5 725.5,-418.5 673.5,-418.5"/>
<text text-anchor="middle" x="699.5" y="-425.5" font-family="Helvetica,sans-Serif" font-size="10.00">LogText</text>
</a>
</g>
</g>
<!-- Node3&#45;&gt;Node4 -->
<g id="edge3" class="edge">
<title>Node3&#45;&gt;Node4</title>
<path fill="none" stroke="midnightblue" d="M551.54,-397.15C583.52,-403.86 631.14,-413.86 663.44,-420.64"/>
<polygon fill="midnightblue" stroke="midnightblue" points="662.84,-424.09 673.35,-422.72 664.28,-417.24 662.84,-424.09"/>
</g>
<!-- Node9 -->
<g id="node9" class="node">
<title>Node9</title>
<g id="a_node9"><a xlink:href="_transmitter_code_2src_2main_8cpp.html#a590a9174319918d7e3d7baca323fcf26" target="_top" xlink:title=" ">
<polygon fill="white" stroke="black" points="1225,-532.5 1225,-551.5 1254,-551.5 1254,-532.5 1225,-532.5"/>
<text text-anchor="middle" x="1239.5" y="-539.5" font-family="Helvetica,sans-Serif" font-size="10.00">Str</text>
</a>
</g>
</g>
<!-- Node3&#45;&gt;Node9 -->
<g id="edge15" class="edge">
<title>Node3&#45;&gt;Node9</title>
<path fill="none" stroke="midnightblue" d="M551.79,-383.73C613.85,-372.93 749.02,-352 864,-352 864,-352 864,-352 1001,-352 1084.98,-352 1124.49,-317.23 1189,-371 1234.41,-408.86 1239.6,-485.62 1239.32,-522.01"/>
<polygon fill="midnightblue" stroke="midnightblue" points="1235.81,-522.22 1239.08,-532.3 1242.81,-522.38 1235.81,-522.22"/>
</g>
<!-- Node5 -->
<g id="node5" class="node">
<title>Node5</title>
<g id="a_node5"><a xlink:href="_transmitter_code_2src_2main_8cpp.html#a6f003363493fc53b69f9efc1f447a6a1" target="_top" xlink:title=" ">
<polygon fill="white" stroke="black" points="828,-418.5 828,-437.5 902,-437.5 902,-418.5 828,-418.5"/>
<text text-anchor="middle" x="865" y="-425.5" font-family="Helvetica,sans-Serif" font-size="10.00">CloseLogFile</text>
</a>
</g>
</g>
<!-- Node4&#45;&gt;Node5 -->
<g id="edge4" class="edge">
<title>Node4&#45;&gt;Node5</title>
<path fill="none" stroke="midnightblue" d="M725.69,-428C750.13,-428 787.8,-428 817.65,-428"/>
<polygon fill="midnightblue" stroke="midnightblue" points="817.85,-431.5 827.85,-428 817.85,-424.5 817.85,-431.5"/>
</g>
<!-- Node6 -->
<g id="node6" class="node">
<title>Node6</title>
<g id="a_node6"><a xlink:href="_transmitter_code_2src_2main_8cpp.html#a99a51dbad5d686ca711e982f82cbcada" target="_top" xlink:title=" ">
<polygon fill="white" stroke="black" points="820,-456.5 820,-475.5 910,-475.5 910,-456.5 820,-456.5"/>
<text text-anchor="middle" x="865" y="-463.5" font-family="Helvetica,sans-Serif" font-size="10.00">LogFilePreamble</text>
</a>
</g>
</g>
<!-- Node4&#45;&gt;Node6 -->
<g id="edge5" class="edge">
<title>Node4&#45;&gt;Node6</title>
<path fill="none" stroke="midnightblue" d="M725.69,-433.85C748.85,-439.24 783.88,-447.38 812.89,-454.12"/>
<polygon fill="midnightblue" stroke="midnightblue" points="812.34,-457.59 822.87,-456.44 813.93,-450.77 812.34,-457.59"/>
</g>
<!-- Node13 -->
<g id="node13" class="node">
<title>Node13</title>
<g id="a_node13"><a xlink:href="_transmitter_code_2src_2main_8cpp.html#a99154e537ca6e0ce5d538fddf0c2aab3" target="_top" xlink:title=" ">
<polygon fill="white" stroke="black" points="958.5,-380.5 958.5,-399.5 1041.5,-399.5 1041.5,-380.5 958.5,-380.5"/>
<text text-anchor="middle" x="1000" y="-387.5" font-family="Helvetica,sans-Serif" font-size="10.00">WriteToLogFile</text>
</a>
</g>
</g>
<!-- Node4&#45;&gt;Node13 -->
<g id="edge14" class="edge">
<title>Node4&#45;&gt;Node13</title>
<path fill="none" stroke="midnightblue" d="M725.62,-423.62C749.77,-419.5 787.3,-413.33 820,-409 863.14,-403.28 912.31,-398.17 948.19,-394.68"/>
<polygon fill="midnightblue" stroke="midnightblue" points="948.79,-398.14 958.41,-393.7 948.12,-391.18 948.79,-398.14"/>
</g>
<!-- Node7 -->
<g id="node7" class="node">
<title>Node7</title>
<g id="a_node7"><a xlink:href="_transmitter_code_2src_2main_8cpp.html#ac45f2f949ccfa372a8cbab3ef0b8caa8" target="_top" xlink:title=" ">
<polygon fill="white" stroke="black" points="946,-418.5 946,-437.5 1054,-437.5 1054,-418.5 946,-418.5"/>
<text text-anchor="middle" x="1000" y="-425.5" font-family="Helvetica,sans-Serif" font-size="10.00">CheckLogFileIsOpen</text>
</a>
</g>
</g>
<!-- Node6&#45;&gt;Node7 -->
<g id="edge6" class="edge">
<title>Node6&#45;&gt;Node7</title>
<path fill="none" stroke="midnightblue" d="M899.56,-456.41C916.57,-451.55 937.43,-445.59 955.64,-440.39"/>
<polygon fill="midnightblue" stroke="midnightblue" points="956.8,-443.7 965.45,-437.59 954.87,-436.97 956.8,-443.7"/>
</g>
<!-- Node11 -->
<g id="node11" class="node">
<title>Node11</title>
<g id="a_node11"><a xlink:href="_transmitter_code_2src_2main_8cpp.html#a5d42b1fba153cc76dc96778cfb6f1a40" target="_top" xlink:title=" ">
<polygon fill="white" stroke="black" points="952.5,-456.5 952.5,-475.5 1047.5,-475.5 1047.5,-456.5 952.5,-456.5"/>
<text text-anchor="middle" x="1000" y="-463.5" font-family="Helvetica,sans-Serif" font-size="10.00">CreateTimeStamp</text>
</a>
</g>
</g>
<!-- Node6&#45;&gt;Node11 -->
<g id="edge10" class="edge">
<title>Node6&#45;&gt;Node11</title>
<path fill="none" stroke="midnightblue" d="M910.29,-466C920.48,-466 931.46,-466 942.1,-466"/>
<polygon fill="midnightblue" stroke="midnightblue" points="942.17,-469.5 952.17,-466 942.17,-462.5 942.17,-469.5"/>
</g>
<!-- Node6&#45;&gt;Node13 -->
<g id="edge13" class="edge">
<title>Node6&#45;&gt;Node13</title>
<path fill="none" stroke="midnightblue" d="M892.98,-456.4C898.83,-453.77 904.82,-450.62 910,-447 929.07,-433.67 926.52,-421.72 946,-409 948.95,-407.07 952.13,-405.31 955.4,-403.7"/>
<polygon fill="midnightblue" stroke="midnightblue" points="957.04,-406.81 964.79,-399.59 954.23,-400.4 957.04,-406.81"/>
</g>
<!-- Node8 -->
<g id="node8" class="node">
<title>Node8</title>
<g id="a_node8"><a xlink:href="_transmitter_code_2src_2main_8cpp.html#a05c7b4e0b98f9b97eebf9617442de6a5" target="_top" xlink:title=" ">
<polygon fill="white" stroke="black" points="1090,-418.5 1090,-437.5 1189,-437.5 1189,-418.5 1090,-418.5"/>
<text text-anchor="middle" x="1139.5" y="-425.5" font-family="Helvetica,sans-Serif" font-size="10.00">MakeLogFileName</text>
</a>
</g>
</g>
<!-- Node7&#45;&gt;Node8 -->
<g id="edge7" class="edge">
<title>Node7&#45;&gt;Node8</title>
<path fill="none" stroke="midnightblue" d="M1054.16,-428C1062.54,-428 1071.25,-428 1079.75,-428"/>
<polygon fill="midnightblue" stroke="midnightblue" points="1079.98,-431.5 1089.98,-428 1079.98,-424.5 1079.98,-431.5"/>
</g>
<!-- Node10 -->
<g id="node10" class="node">
<title>Node10</title>
<g id="a_node10"><a xlink:href="_transmitter_code_2src_2main_8cpp.html#ad2d22d4683c318454ab9a1dd15e1f647" target="_top" xlink:title=" ">
<polygon fill="white" stroke="black" points="1099,-380.5 1099,-399.5 1180,-399.5 1180,-380.5 1099,-380.5"/>
<text text-anchor="middle" x="1139.5" y="-387.5" font-family="Helvetica,sans-Serif" font-size="10.00">OpenLogFileW</text>
</a>
</g>
</g>
<!-- Node7&#45;&gt;Node10 -->
<g id="edge9" class="edge">
<title>Node7&#45;&gt;Node10</title>
<path fill="none" stroke="midnightblue" d="M1035.7,-418.41C1053.37,-413.53 1075.05,-407.54 1093.94,-402.32"/>
<polygon fill="midnightblue" stroke="midnightblue" points="1095.11,-405.62 1103.81,-399.59 1093.24,-398.88 1095.11,-405.62"/>
</g>
<!-- Node8&#45;&gt;Node9 -->
<g id="edge8" class="edge">
<title>Node8&#45;&gt;Node9</title>
<path fill="none" stroke="midnightblue" d="M1174.16,-437.5C1179.51,-440.01 1184.69,-443.13 1189,-447 1211.96,-467.63 1225.95,-501.44 1232.96,-522.67"/>
<polygon fill="midnightblue" stroke="midnightblue" points="1229.62,-523.71 1235.92,-532.23 1236.3,-521.64 1229.62,-523.71"/>
</g>
<!-- Node11&#45;&gt;Node9 -->
<g id="edge12" class="edge">
<title>Node11&#45;&gt;Node9</title>
<path fill="none" stroke="midnightblue" d="M1031.08,-475.63C1079.05,-490.98 1171.87,-520.68 1215.18,-534.54"/>
<polygon fill="midnightblue" stroke="midnightblue" points="1214.24,-537.91 1224.83,-537.63 1216.38,-531.25 1214.24,-537.91"/>
</g>
<!-- Node12 -->
<g id="node12" class="node">
<title>Node12</title>
<g id="a_node12"><a xlink:href="_transmitter_code_2src_2main_8cpp.html#ae310e7fc6397929ae886869c05cbc334" target="_top" xlink:title=" ">
<polygon fill="white" stroke="black" points="1098,-456.5 1098,-475.5 1181,-475.5 1181,-456.5 1098,-456.5"/>
<text text-anchor="middle" x="1139.5" y="-463.5" font-family="Helvetica,sans-Serif" font-size="10.00">MayBeAddZero</text>
</a>
</g>
</g>
<!-- Node11&#45;&gt;Node12 -->
<g id="edge11" class="edge">
<title>Node11&#45;&gt;Node12</title>
<path fill="none" stroke="midnightblue" d="M1047.55,-466C1060.46,-466 1074.54,-466 1087.68,-466"/>
<polygon fill="midnightblue" stroke="midnightblue" points="1087.98,-469.5 1097.98,-466 1087.98,-462.5 1087.98,-469.5"/>
</g>
<!-- Node15 -->
<g id="node15" class="node">
<title>Node15</title>
<g id="a_node15"><a xlink:href="_transmitter_code_2src_2main_8cpp.html#a82b1900a80d1622896601c57d6edaeda" target="_top" xlink:title=" ">
<polygon fill="white" stroke="black" points="305,-456.5 305,-475.5 403,-475.5 403,-456.5 305,-456.5"/>
<text text-anchor="middle" x="354" y="-463.5" font-family="Helvetica,sans-Serif" font-size="10.00">ClearSuccessRate</text>
</a>
</g>
</g>
<!-- Node14&#45;&gt;Node15 -->
<g id="edge17" class="edge">
<title>Node14&#45;&gt;Node15</title>
<path fill="none" stroke="midnightblue" d="M207.74,-532.38C225.87,-520.03 259.13,-498.58 290,-485 295.1,-482.76 300.54,-480.68 306.01,-478.79"/>
<polygon fill="midnightblue" stroke="midnightblue" points="307.4,-482.02 315.81,-475.58 305.22,-475.36 307.4,-482.02"/>
</g>
<!-- Node16 -->
<g id="node16" class="node">
<title>Node16</title>
<g id="a_node16"><a xlink:href="_transmitter_code_2src_2main_8cpp.html#a549a702bb9b539c6b3a4f20cce65adcc" target="_top" xlink:title=" ">
<polygon fill="white" stroke="black" points="305,-418.5 305,-437.5 403,-437.5 403,-418.5 305,-418.5"/>
<text text-anchor="middle" x="354" y="-425.5" font-family="Helvetica,sans-Serif" font-size="10.00">GetLEDBrightness</text>
</a>
</g>
</g>
<!-- Node14&#45;&gt;Node16 -->
<g id="edge18" class="edge">
<title>Node14&#45;&gt;Node16</title>
<path fill="none" stroke="midnightblue" d="M201.06,-532.37C215.57,-513.26 250.7,-470.37 290,-447 293.59,-444.86 297.44,-442.95 301.4,-441.24"/>
<polygon fill="midnightblue" stroke="midnightblue" points="302.72,-444.48 310.78,-437.61 300.19,-437.96 302.72,-444.48"/>
</g>
<!-- Node17 -->
<g id="node17" class="node">
<title>Node17</title>
<g id="a_node17"><a xlink:href="_transmitter_code_2src_2main_8cpp.html#aaa3e86084c43b049d52d7d62c58a00b9" target="_top" xlink:title=" ">
<polygon fill="white" stroke="black" points="313,-494.5 313,-513.5 395,-513.5 395,-494.5 313,-494.5"/>
<text text-anchor="middle" x="354" y="-501.5" font-family="Helvetica,sans-Serif" font-size="10.00">LogConnection</text>
</a>
</g>
</g>
<!-- Node14&#45;&gt;Node17 -->
<g id="edge19" class="edge">
<title>Node14&#45;&gt;Node17</title>
<path fill="none" stroke="midnightblue" d="M229.29,-533.57C250.98,-528.38 279.12,-521.66 303.07,-515.93"/>
<polygon fill="midnightblue" stroke="midnightblue" points="304.14,-519.28 313.05,-513.55 302.51,-512.47 304.14,-519.28"/>
</g>
<!-- Node19 -->
<g id="node19" class="node">
<title>Node19</title>
<g id="a_node19"><a xlink:href="_transmitter_code_2src_2main_8cpp.html#a2e38b32674344cfc06b09a71dfcaf3f1" target="_top" xlink:title=" ">
<polygon fill="white" stroke="black" points="454,-532.5 454,-551.5 579,-551.5 579,-532.5 454,-532.5"/>
<text text-anchor="middle" x="516.5" y="-539.5" font-family="Helvetica,sans-Serif" font-size="10.00">MakeBindButtonInvisible</text>
</a>
</g>
</g>
<!-- Node14&#45;&gt;Node19 -->
<g id="edge24" class="edge">
<title>Node14&#45;&gt;Node19</title>
<path fill="none" stroke="midnightblue" d="M229.02,-542C280.33,-542 377.1,-542 443.87,-542"/>
<polygon fill="midnightblue" stroke="midnightblue" points="443.9,-545.5 453.9,-542 443.9,-538.5 443.9,-545.5"/>
</g>
<!-- Node22 -->
<g id="node22" class="node">
<title>Node22</title>
<g id="a_node22"><a xlink:href="_transmitter_code_2src_2main_8cpp.html#aa490b4664b0a4498d53b30b82287d5df" target="_top" xlink:title=" ">
<polygon fill="white" stroke="black" points="668,-570.5 668,-589.5 731,-589.5 731,-570.5 668,-570.5"/>
<text text-anchor="middle" x="699.5" y="-577.5" font-family="Helvetica,sans-Serif" font-size="10.00">PlaySound</text>
</a>
</g>
</g>
<!-- Node14&#45;&gt;Node22 -->
<g id="edge27" class="edge">
<title>Node14&#45;&gt;Node22</title>
<path fill="none" stroke="midnightblue" d="M205.46,-551.65C222.56,-565.34 256.35,-589.76 290,-599 324.73,-608.53 561,-591.02 657.54,-583.34"/>
<polygon fill="midnightblue" stroke="midnightblue" points="658.1,-586.81 667.79,-582.52 657.54,-579.83 658.1,-586.81"/>
</g>
<!-- Node23 -->
<g id="node23" class="node">
<title>Node23</title>
<g id="a_node23"><a xlink:href="_transmitter_code_2src_2main_8cpp.html#a5d3a46c21927cf7a3031a1e68e0b7b48" target="_top" xlink:title="SHOW COMMS.">
<polygon fill="white" stroke="black" points="316.5,-665.5 316.5,-684.5 391.5,-684.5 391.5,-665.5 316.5,-665.5"/>
<text text-anchor="middle" x="354" y="-672.5" font-family="Helvetica,sans-Serif" font-size="10.00">ShowComms</text>
</a>
</g>
</g>
<!-- Node14&#45;&gt;Node23 -->
<g id="edge30" class="edge">
<title>Node14&#45;&gt;Node23</title>
<path fill="none" stroke="midnightblue" d="M209.62,-551.62C228.07,-567.73 260.06,-598.99 290,-623 305.78,-635.66 325.16,-648.52 338.22,-658.75"/>
<polygon fill="midnightblue" stroke="midnightblue" points="336.22,-661.64 346.14,-665.37 340.72,-656.27 336.22,-661.64"/>
</g>
<!-- Node33 -->
<g id="node33" class="node">
<title>Node33</title>
<g id="a_node33"><a xlink:href="_transmitter_code_2src_2main_8cpp.html#a6da9a1fd0b003151f79eabc702ba80ff" target="_top" xlink:title=" ">
<polygon fill="white" stroke="black" points="310.5,-570.5 310.5,-589.5 397.5,-589.5 397.5,-570.5 310.5,-570.5"/>
<text text-anchor="middle" x="354" y="-577.5" font-family="Helvetica,sans-Serif" font-size="10.00">ZeroDataScreen</text>
</a>
</g>
</g>
<!-- Node14&#45;&gt;Node33 -->
<g id="edge59" class="edge">
<title>Node14&#45;&gt;Node33</title>
<path fill="none" stroke="midnightblue" d="M229.29,-550.43C250.98,-555.62 279.12,-562.34 303.07,-568.07"/>
<polygon fill="midnightblue" stroke="midnightblue" points="302.51,-571.53 313.05,-570.45 304.14,-564.72 302.51,-571.53"/>
</g>
<!-- Node17&#45;&gt;Node4 -->
<g id="edge23" class="edge">
<title>Node17&#45;&gt;Node4</title>
<path fill="none" stroke="midnightblue" d="M395.08,-495.13C462.8,-480.15 598.8,-450.06 663.18,-435.82"/>
<polygon fill="midnightblue" stroke="midnightblue" points="664.23,-439.17 673.24,-433.59 662.72,-432.33 664.23,-439.17"/>
</g>
<!-- Node18 -->
<g id="node18" class="node">
<title>Node18</title>
<g id="a_node18"><a xlink:href="_transmitter_code_2src_2main_8cpp.html#af7b3b351c80f0b43c13a4ccb440b2f2e" target="_top" xlink:title=" ">
<polygon fill="white" stroke="black" points="483,-494.5 483,-513.5 550,-513.5 550,-494.5 483,-494.5"/>
<text text-anchor="middle" x="516.5" y="-501.5" font-family="Helvetica,sans-Serif" font-size="10.00">LogMinGap</text>
</a>
</g>
</g>
<!-- Node17&#45;&gt;Node18 -->
<g id="edge20" class="edge">
<title>Node17&#45;&gt;Node18</title>
<path fill="none" stroke="midnightblue" d="M395.09,-504C418.7,-504 448.57,-504 472.66,-504"/>
<polygon fill="midnightblue" stroke="midnightblue" points="472.93,-507.5 482.93,-504 472.93,-500.5 472.93,-507.5"/>
</g>
<!-- Node18&#45;&gt;Node4 -->
<g id="edge21" class="edge">
<title>Node18&#45;&gt;Node4</title>
<path fill="none" stroke="midnightblue" d="M542.72,-494.41C553.88,-490.1 567.13,-484.9 579,-480 609.33,-467.49 643.65,-452.46 667.7,-441.79"/>
<polygon fill="midnightblue" stroke="midnightblue" points="669.3,-444.91 677.02,-437.64 666.46,-438.51 669.3,-444.91"/>
</g>
<!-- Node18&#45;&gt;Node9 -->
<g id="edge22" class="edge">
<title>Node18&#45;&gt;Node9</title>
<path fill="none" stroke="midnightblue" d="M550.35,-505.73C673.81,-512.24 1108.34,-535.14 1214.82,-540.75"/>
<polygon fill="midnightblue" stroke="midnightblue" points="1214.69,-544.25 1224.86,-541.28 1215.06,-537.26 1214.69,-544.25"/>
</g>
<!-- Node20 -->
<g id="node20" class="node">
<title>Node20</title>
<g id="a_node20"><a xlink:href="_transmitter_code_2src_2main_8cpp.html#aecac2f0c289f02ef3c92b85be82eacac" target="_top" xlink:title=" ">
<polygon fill="white" stroke="black" points="823.5,-665.5 823.5,-684.5 906.5,-684.5 906.5,-665.5 823.5,-665.5"/>
<text text-anchor="middle" x="865" y="-672.5" font-family="Helvetica,sans-Serif" font-size="10.00">SendCommand</text>
</a>
</g>
</g>
<!-- Node19&#45;&gt;Node20 -->
<g id="edge25" class="edge">
<title>Node19&#45;&gt;Node20</title>
<path fill="none" stroke="midnightblue" d="M575.38,-532.5C632.28,-526.15 719.71,-524.62 784,-561 821.71,-582.34 845.83,-629.67 856.9,-656.14"/>
<polygon fill="midnightblue" stroke="midnightblue" points="853.67,-657.48 860.63,-665.47 860.17,-654.89 853.67,-657.48"/>
</g>
<!-- Node21 -->
<g id="node21" class="node">
<title>Node21</title>
<g id="a_node21"><a xlink:href="_transmitter_code_2src_2main_8cpp.html#a43937dd3d9c795271fd9c3eb3c6b6410" target="_top" xlink:title=" ">
<polygon fill="white" stroke="black" points="958.5,-760.5 958.5,-779.5 1041.5,-779.5 1041.5,-760.5 958.5,-760.5"/>
<text text-anchor="middle" x="1000" y="-767.5" font-family="Helvetica,sans-Serif" font-size="10.00">GetReturnCode</text>
</a>
</g>
</g>
<!-- Node20&#45;&gt;Node21 -->
<g id="edge26" class="edge">
<title>Node20&#45;&gt;Node21</title>
<path fill="none" stroke="midnightblue" d="M879.73,-684.81C902.85,-701.32 949.71,-734.79 977.31,-754.51"/>
<polygon fill="midnightblue" stroke="midnightblue" points="975.37,-757.42 985.54,-760.39 979.44,-751.73 975.37,-757.42"/>
</g>
<!-- Node22&#45;&gt;Node9 -->
<g id="edge29" class="edge">
<title>Node22&#45;&gt;Node9</title>
<path fill="none" stroke="midnightblue" d="M731.05,-580.88C808.33,-582.61 1017.64,-584.07 1189,-556 1197.68,-554.58 1207,-552.18 1215.19,-549.77"/>
<polygon fill="midnightblue" stroke="midnightblue" points="1216.31,-553.08 1224.82,-546.77 1214.23,-546.4 1216.31,-553.08"/>
</g>
<!-- Node22&#45;&gt;Node20 -->
<g id="edge28" class="edge">
<title>Node22&#45;&gt;Node20</title>
<path fill="none" stroke="midnightblue" d="M731.24,-583C747.65,-585.57 767.75,-590.3 784,-599 811.28,-613.61 835.99,-640.05 850.51,-657.57"/>
<polygon fill="midnightblue" stroke="midnightblue" points="847.79,-659.77 856.79,-665.36 853.24,-655.38 847.79,-659.77"/>
</g>
<!-- Node23&#45;&gt;Node14 -->
<g id="edge47" class="edge">
<title>Node23&#45;&gt;Node14</title>
<path fill="none" stroke="midnightblue" d="M324.74,-665.42C313.63,-658.66 300.95,-649.78 290,-641 257.72,-615.11 223.06,-580.8 205.55,-559.76"/>
<polygon fill="midnightblue" stroke="midnightblue" points="208.08,-557.32 199.15,-551.62 202.58,-561.64 208.08,-557.32"/>
</g>
<!-- Node23&#45;&gt;Node19 -->
<g id="edge48" class="edge">
<title>Node23&#45;&gt;Node19</title>
<path fill="none" stroke="midnightblue" d="M366.54,-665.43C393.71,-642.92 461.94,-586.38 495.81,-558.32"/>
<polygon fill="midnightblue" stroke="midnightblue" points="498.16,-560.91 503.63,-551.84 493.7,-555.52 498.16,-560.91"/>
</g>
<!-- Node23&#45;&gt;Node20 -->
<g id="edge50" class="edge">
<title>Node23&#45;&gt;Node20</title>
<path fill="none" stroke="midnightblue" d="M391.61,-675C480.97,-675 710.44,-675 813.07,-675"/>
<polygon fill="midnightblue" stroke="midnightblue" points="813.18,-678.5 823.18,-675 813.18,-671.5 813.18,-678.5"/>
</g>
<!-- Node23&#45;&gt;Node22 -->
<g id="edge49" class="edge">
<title>Node23&#45;&gt;Node22</title>
<path fill="none" stroke="midnightblue" d="M375.09,-665.46C394.82,-656.38 425.96,-642.83 454,-634 524.45,-611.82 609.09,-595.29 658.05,-586.69"/>
<polygon fill="midnightblue" stroke="midnightblue" points="658.68,-590.13 667.94,-584.97 657.49,-583.23 658.68,-590.13"/>
</g>
<!-- Node24 -->
<g id="node24" class="node">
<title>Node24</title>
<g id="a_node24"><a xlink:href="_transmitter_code_2src_2main_8cpp.html#a3014b0aec0f1343c2fd7b480bd5e0425" target="_top" xlink:title=" ">
<polygon fill="white" stroke="black" points="476.5,-836.5 476.5,-855.5 556.5,-855.5 556.5,-836.5 476.5,-836.5"/>
<text text-anchor="middle" x="516.5" y="-843.5" font-family="Helvetica,sans-Serif" font-size="10.00">CheckRXVolts</text>
</a>
</g>
</g>
<!-- Node23&#45;&gt;Node24 -->
<g id="edge31" class="edge">
<title>Node23&#45;&gt;Node24</title>
<path fill="none" stroke="midnightblue" d="M358.62,-684.87C369.04,-711.86 401.72,-787.54 454,-827 457.92,-829.96 462.3,-832.46 466.88,-834.58"/>
<polygon fill="midnightblue" stroke="midnightblue" points="465.87,-837.94 476.45,-838.4 468.46,-831.44 465.87,-837.94"/>
</g>
<!-- Node25 -->
<g id="node25" class="node">
<title>Node25</title>
<g id="a_node25"><a xlink:href="_transmitter_code_2src_2main_8cpp.html#afe513398f72d5e48f691830a1ef6eb42" target="_top" xlink:title=" ">
<polygon fill="white" stroke="black" points="670.5,-760.5 670.5,-779.5 728.5,-779.5 728.5,-760.5 670.5,-760.5"/>
<text text-anchor="middle" x="699.5" y="-767.5" font-family="Helvetica,sans-Serif" font-size="10.00">SendText</text>
</a>
</g>
</g>
<!-- Node23&#45;&gt;Node25 -->
<g id="edge51" class="edge">
<title>Node23&#45;&gt;Node25</title>
<path fill="none" stroke="midnightblue" d="M363.68,-684.61C379.65,-701.54 415.56,-736.26 454,-751 522.89,-777.41 610.54,-776.77 659.99,-773.6"/>
<polygon fill="midnightblue" stroke="midnightblue" points="660.51,-777.08 670.24,-772.87 660.02,-770.09 660.51,-777.08"/>
</g>
<!-- Node26 -->
<g id="node26" class="node">
<title>Node26</title>
<g id="a_node26"><a xlink:href="_transmitter_code_2src_2main_8cpp.html#a1e20efc1e419b252b50d36f9924503fc" target="_top" xlink:title=" ">
<polygon fill="white" stroke="black" points="667.5,-874.5 667.5,-893.5 731.5,-893.5 731.5,-874.5 667.5,-874.5"/>
<text text-anchor="middle" x="699.5" y="-881.5" font-family="Helvetica,sans-Serif" font-size="10.00">SendValue</text>
</a>
</g>
</g>
<!-- Node23&#45;&gt;Node26 -->
<g id="edge52" class="edge">
<title>Node23&#45;&gt;Node26</title>
<path fill="none" stroke="midnightblue" d="M356.67,-684.67C362.8,-716.86 387.28,-820.91 454,-865 515.31,-905.52 605.1,-900.04 657.09,-892.16"/>
<polygon fill="midnightblue" stroke="midnightblue" points="657.96,-895.57 667.27,-890.52 656.84,-888.66 657.96,-895.57"/>
</g>
<!-- Node27 -->
<g id="node27" class="node">
<title>Node27</title>
<g id="a_node27"><a xlink:href="_transmitter_code_2src_2main_8cpp.html#adce05a2e4f5763c3b90c7126234d2cc8" target="_top" xlink:title=" ">
<polygon fill="white" stroke="black" points="651,-608.5 651,-627.5 748,-627.5 748,-608.5 651,-608.5"/>
<text text-anchor="middle" x="699.5" y="-615.5" font-family="Helvetica,sans-Serif" font-size="10.00">CheckScreenTime</text>
</a>
</g>
</g>
<!-- Node23&#45;&gt;Node27 -->
<g id="edge40" class="edge">
<title>Node23&#45;&gt;Node27</title>
<path fill="none" stroke="midnightblue" d="M391.76,-668.9C451.39,-659 569.68,-639.38 640.67,-627.6"/>
<polygon fill="midnightblue" stroke="midnightblue" points="641.5,-631.01 650.79,-625.92 640.35,-624.1 641.5,-631.01"/>
</g>
<!-- Node28 -->
<g id="node28" class="node">
<title>Node28</title>
<g id="a_node28"><a xlink:href="_transmitter_code_2src_2main_8cpp.html#a28ff2460f96b023cdb62a5c2b8f593f5" target="_top" xlink:title=" ">
<polygon fill="white" stroke="black" points="476.5,-798.5 476.5,-817.5 556.5,-817.5 556.5,-798.5 476.5,-798.5"/>
<text text-anchor="middle" x="516.5" y="-805.5" font-family="Helvetica,sans-Serif" font-size="10.00">CheckTXVolts</text>
</a>
</g>
</g>
<!-- Node23&#45;&gt;Node28 -->
<g id="edge42" class="edge">
<title>Node23&#45;&gt;Node28</title>
<path fill="none" stroke="midnightblue" d="M361.31,-684.52C375.52,-705.29 412.09,-755.16 454,-784 459.84,-788.02 466.44,-791.49 473.1,-794.45"/>
<polygon fill="midnightblue" stroke="midnightblue" points="472.23,-797.88 482.81,-798.43 474.88,-791.4 472.23,-797.88"/>
</g>
<!-- Node30 -->
<g id="node30" class="node">
<title>Node30</title>
<g id="a_node30"><a xlink:href="_transmitter_code_2src_2main_8cpp.html#a77e9a1ed6c347897af1e92db48c68b77" target="_top" xlink:title=" ">
<polygon fill="white" stroke="black" points="456.5,-722.5 456.5,-741.5 576.5,-741.5 576.5,-722.5 456.5,-722.5"/>
<text text-anchor="middle" x="516.5" y="-729.5" font-family="Helvetica,sans-Serif" font-size="10.00">ShowConnectionQuality</text>
</a>
</g>
</g>
<!-- Node23&#45;&gt;Node30 -->
<g id="edge53" class="edge">
<title>Node23&#45;&gt;Node30</title>
<path fill="none" stroke="midnightblue" d="M381.86,-684.54C408.48,-693.99 449.44,-708.54 479,-719.04"/>
<polygon fill="midnightblue" stroke="midnightblue" points="477.95,-722.38 488.55,-722.43 480.3,-715.78 477.95,-722.38"/>
</g>
<!-- Node23&#45;&gt;Node32 -->
<g id="edge58" class="edge">
<title>Node23&#45;&gt;Node32</title>
<path fill="none" stroke="midnightblue" d="M365.38,-665.13C379.2,-651.48 403.57,-625.49 418,-599 443.43,-552.35 425.57,-529.89 454,-485 464.29,-468.76 480.33,-454.1 493.45,-443.72"/>
<polygon fill="midnightblue" stroke="midnightblue" points="495.73,-446.39 501.56,-437.54 491.48,-440.82 495.73,-446.39"/>
</g>
<!-- Node24&#45;&gt;Node9 -->
<g id="edge39" class="edge">
<title>Node24&#45;&gt;Node9</title>
<path fill="none" stroke="midnightblue" d="M529.56,-855.53C547.18,-868.84 581.5,-892.54 615,-903 720.95,-936.07 753.01,-922 864,-922 864,-922 864,-922 1001,-922 1089.7,-922 1132.36,-923.26 1189,-855 1226.38,-809.96 1235.82,-623.55 1237.94,-561.89"/>
<polygon fill="midnightblue" stroke="midnightblue" points="1241.45,-561.71 1238.26,-551.6 1234.45,-561.49 1241.45,-561.71"/>
</g>
<!-- Node24&#45;&gt;Node25 -->
<g id="edge32" class="edge">
<title>Node24&#45;&gt;Node25</title>
<path fill="none" stroke="midnightblue" d="M556.55,-837.25C564.31,-834.61 572.17,-831.25 579,-827 598.76,-814.72 594.79,-800.52 615,-789 628.75,-781.16 645.5,-776.56 660.38,-773.85"/>
<polygon fill="midnightblue" stroke="midnightblue" points="661,-777.3 670.32,-772.27 659.89,-770.39 661,-777.3"/>
</g>
<!-- Node24&#45;&gt;Node26 -->
<g id="edge35" class="edge">
<title>Node24&#45;&gt;Node26</title>
<path fill="none" stroke="midnightblue" d="M556.77,-854.25C586.57,-860.5 627.42,-869.08 657.61,-875.41"/>
<polygon fill="midnightblue" stroke="midnightblue" points="656.9,-878.84 667.41,-877.47 658.34,-871.99 656.9,-878.84"/>
</g>
<!-- Node25&#45;&gt;Node20 -->
<g id="edge34" class="edge">
<title>Node25&#45;&gt;Node20</title>
<path fill="none" stroke="midnightblue" d="M728.5,-767.41C745.37,-764.96 766.83,-760.2 784,-751 811.28,-736.39 835.99,-709.95 850.51,-692.43"/>
<polygon fill="midnightblue" stroke="midnightblue" points="853.24,-694.62 856.79,-684.64 847.79,-690.23 853.24,-694.62"/>
</g>
<!-- Node25&#45;&gt;Node21 -->
<g id="edge33" class="edge">
<title>Node25&#45;&gt;Node21</title>
<path fill="none" stroke="midnightblue" d="M728.58,-770C778.83,-770 884.78,-770 948.11,-770"/>
<polygon fill="midnightblue" stroke="midnightblue" points="948.28,-773.5 958.28,-770 948.28,-766.5 948.28,-773.5"/>
</g>
<!-- Node26&#45;&gt;Node9 -->
<g id="edge38" class="edge">
<title>Node26&#45;&gt;Node9</title>
<path fill="none" stroke="midnightblue" d="M731.64,-884.65C828.68,-886.02 1123.07,-884.79 1189,-822 1226.7,-786.09 1235.88,-619.26 1237.94,-561.64"/>
<polygon fill="midnightblue" stroke="midnightblue" points="1241.44,-561.75 1238.27,-551.64 1234.45,-561.52 1241.44,-561.75"/>
</g>
<!-- Node26&#45;&gt;Node20 -->
<g id="edge37" class="edge">
<title>Node26&#45;&gt;Node20</title>
<path fill="none" stroke="midnightblue" d="M719.73,-874.44C738.06,-864.56 765.54,-847.7 784,-827 820.75,-785.78 846.19,-724.67 857.46,-694"/>
<polygon fill="midnightblue" stroke="midnightblue" points="860.78,-695.1 860.84,-684.51 854.19,-692.75 860.78,-695.1"/>
</g>
<!-- Node26&#45;&gt;Node21 -->
<g id="edge36" class="edge">
<title>Node26&#45;&gt;Node21</title>
<path fill="none" stroke="midnightblue" d="M725.44,-874.48C778.66,-854.15 903.49,-806.48 964.37,-783.22"/>
<polygon fill="midnightblue" stroke="midnightblue" points="965.83,-786.41 973.92,-779.58 963.33,-779.87 965.83,-786.41"/>
</g>
<!-- Node27&#45;&gt;Node20 -->
<g id="edge41" class="edge">
<title>Node27&#45;&gt;Node20</title>
<path fill="none" stroke="midnightblue" d="M736.94,-627.53C751.67,-631.62 768.76,-636.69 784,-642 800.37,-647.71 818.23,-654.97 832.92,-661.23"/>
<polygon fill="midnightblue" stroke="midnightblue" points="831.95,-664.63 842.52,-665.38 834.72,-658.2 831.95,-664.63"/>
</g>
<!-- Node28&#45;&gt;Node9 -->
<g id="edge46" class="edge">
<title>Node28&#45;&gt;Node9</title>
<path fill="none" stroke="midnightblue" d="M552.99,-817.55C643.86,-839.85 889.39,-886.45 1054,-789 1148.2,-733.23 1209.65,-608.91 1230.55,-561.17"/>
<polygon fill="midnightblue" stroke="midnightblue" points="1233.88,-562.29 1234.59,-551.72 1227.44,-559.54 1233.88,-562.29"/>
</g>
<!-- Node28&#45;&gt;Node25 -->
<g id="edge44" class="edge">
<title>Node28&#45;&gt;Node25</title>
<path fill="none" stroke="midnightblue" d="M556.77,-799.75C587.51,-793.3 629.99,-784.38 660.41,-778"/>
<polygon fill="midnightblue" stroke="midnightblue" points="661.17,-781.41 670.24,-775.93 659.73,-774.56 661.17,-781.41"/>
</g>
<!-- Node28&#45;&gt;Node26 -->
<g id="edge45" class="edge">
<title>Node28&#45;&gt;Node26</title>
<path fill="none" stroke="midnightblue" d="M556.65,-817.24C564.32,-819.83 572.12,-823.05 579,-827 597.83,-837.8 596.07,-849.39 615,-860 628.02,-867.3 643.46,-872.54 657.49,-876.23"/>
<polygon fill="midnightblue" stroke="midnightblue" points="656.87,-879.68 667.41,-878.64 658.52,-872.88 656.87,-879.68"/>
</g>
<!-- Node29 -->
<g id="node29" class="node">
<title>Node29</title>
<g id="a_node29"><a xlink:href="class_adafruit___i_n_a219.html#ab27c5ff8681cbe04c80bc3efc840dca4" target="_top" xlink:title="Gets the shunt voltage in volts.">
<polygon fill="white" stroke="black" points="615,-798.5 615,-817.5 784,-817.5 784,-798.5 615,-798.5"/>
<text text-anchor="middle" x="699.5" y="-805.5" font-family="Helvetica,sans-Serif" font-size="10.00">Adafruit_INA219::getBusVoltage_V</text>
</a>
</g>
</g>
<!-- Node28&#45;&gt;Node29 -->
<g id="edge43" class="edge">
<title>Node28&#45;&gt;Node29</title>
<path fill="none" stroke="midnightblue" d="M556.77,-808C570.89,-808 587.5,-808 604.27,-808"/>
<polygon fill="midnightblue" stroke="midnightblue" points="604.71,-811.5 614.71,-808 604.71,-804.5 604.71,-811.5"/>
</g>
<!-- Node30&#45;&gt;Node20 -->
<g id="edge55" class="edge">
<title>Node30&#45;&gt;Node20</title>
<path fill="none" stroke="midnightblue" d="M564.54,-722.43C580.53,-719.28 598.52,-715.86 615,-713 683.52,-701.1 763.01,-689.32 813.39,-682.1"/>
<polygon fill="midnightblue" stroke="midnightblue" points="813.97,-685.56 823.38,-680.68 812.98,-678.63 813.97,-685.56"/>
</g>
<!-- Node30&#45;&gt;Node25 -->
<g id="edge56" class="edge">
<title>Node30&#45;&gt;Node25</title>
<path fill="none" stroke="midnightblue" d="M563.17,-741.59C593.21,-747.89 632.05,-756.05 660.42,-762"/>
<polygon fill="midnightblue" stroke="midnightblue" points="659.85,-765.46 670.36,-764.09 661.29,-758.61 659.85,-765.46"/>
</g>
<!-- Node30&#45;&gt;Node26 -->
<g id="edge57" class="edge">
<title>Node30&#45;&gt;Node26</title>
<path fill="none" stroke="midnightblue" d="M528.59,-741.88C541.06,-753.08 561.82,-772.01 579,-789 595.54,-805.36 597.29,-811.91 615,-827 633.49,-842.75 656.38,-858.13 673.52,-868.93"/>
<polygon fill="midnightblue" stroke="midnightblue" points="672.05,-872.14 682.39,-874.44 675.74,-866.19 672.05,-872.14"/>
</g>
<!-- Node31 -->
<g id="node31" class="node">
<title>Node31</title>
<g id="a_node31"><a xlink:href="_transmitter_code_2src_2main_8cpp.html#a9f5745d51ac7a3efbee333bcacd06c50" target="_top" xlink:title=" ">
<polygon fill="white" stroke="black" points="654,-722.5 654,-741.5 745,-741.5 745,-722.5 654,-722.5"/>
<text text-anchor="middle" x="699.5" y="-729.5" font-family="Helvetica,sans-Serif" font-size="10.00">GetSuccessRate</text>
</a>
</g>
</g>
<!-- Node30&#45;&gt;Node31 -->
<g id="edge54" class="edge">
<title>Node30&#45;&gt;Node31</title>
<path fill="none" stroke="midnightblue" d="M576.77,-732C598.3,-732 622.51,-732 643.65,-732"/>
<polygon fill="midnightblue" stroke="midnightblue" points="643.75,-735.5 653.75,-732 643.75,-728.5 643.75,-735.5"/>
</g>
<!-- Node35 -->
<g id="node35" class="node">
<title>Node35</title>
<g id="a_node35"><a xlink:href="_transmitter_code_2src_2main_8cpp.html#a75fa77e7bbb1cfe8fe6e1a216fbdc17e" target="_top" xlink:title=" ">
<polygon fill="white" stroke="black" points="321.5,-152.5 321.5,-171.5 386.5,-171.5 386.5,-152.5 321.5,-152.5"/>
<text text-anchor="middle" x="354" y="-159.5" font-family="Helvetica,sans-Serif" font-size="10.00">GetAltitude</text>
</a>
</g>
</g>
<!-- Node34&#45;&gt;Node35 -->
<g id="edge61" class="edge">
<title>Node34&#45;&gt;Node35</title>
<path fill="none" stroke="midnightblue" d="M234.12,-190.41C257.79,-184.75 287.68,-177.61 311.57,-171.9"/>
<polygon fill="midnightblue" stroke="midnightblue" points="312.5,-175.28 321.41,-169.55 310.87,-168.47 312.5,-175.28"/>
</g>
<!-- Node36 -->
<g id="node36" class="node">
<title>Node36</title>
<g id="a_node36"><a xlink:href="_transmitter_code_2src_2main_8cpp.html#ab5736b017daadeb2c1d7dc73489d31a6" target="_top" xlink:title=" ">
<polygon fill="white" stroke="black" points="463,-190.5 463,-209.5 570,-209.5 570,-190.5 463,-190.5"/>
<text text-anchor="middle" x="516.5" y="-197.5" font-family="Helvetica,sans-Serif" font-size="10.00">GetFromAckPayload</text>
</a>
</g>
</g>
<!-- Node34&#45;&gt;Node36 -->
<g id="edge64" class="edge">
<title>Node34&#45;&gt;Node36</title>
<path fill="none" stroke="midnightblue" d="M205.46,-209.65C222.56,-223.34 256.35,-247.76 290,-257 344.86,-272.06 363.09,-271.87 418,-257 447.41,-249.03 477.04,-229.74 495.79,-215.8"/>
<polygon fill="midnightblue" stroke="midnightblue" points="498.01,-218.5 503.83,-209.65 493.76,-212.94 498.01,-218.5"/>
</g>
<!-- Node37 -->
<g id="node37" class="node">
<title>Node37</title>
<g id="a_node37"><a xlink:href="_transmitter_code_2src_2main_8cpp.html#a160b9119423c34869b16a4ebdc421d35" target="_top" xlink:title=" ">
<polygon fill="white" stroke="black" points="290.5,-228.5 290.5,-247.5 417.5,-247.5 417.5,-228.5 290.5,-228.5"/>
<text text-anchor="middle" x="354" y="-235.5" font-family="Helvetica,sans-Serif" font-size="10.00">GetDateFromAckPayload</text>
</a>
</g>
</g>
<!-- Node34&#45;&gt;Node37 -->
<g id="edge63" class="edge">
<title>Node34&#45;&gt;Node37</title>
<path fill="none" stroke="midnightblue" d="M234.12,-209.59C255.1,-214.6 280.98,-220.79 303.23,-226.11"/>
<polygon fill="midnightblue" stroke="midnightblue" points="302.63,-229.56 313.17,-228.48 304.25,-222.75 302.63,-229.56"/>
</g>
<!-- Node38 -->
<g id="node38" class="node">
<title>Node38</title>
<g id="a_node38"><a xlink:href="_transmitter_code_2src_2main_8cpp.html#a4f813935d8fe58355228cbbf25e12f96" target="_top" xlink:title=" ">
<polygon fill="white" stroke="black" points="297.5,-304.5 297.5,-323.5 410.5,-323.5 410.5,-304.5 297.5,-304.5"/>
<text text-anchor="middle" x="354" y="-311.5" font-family="Helvetica,sans-Serif" font-size="10.00">GetRXVersionNumber</text>
</a>
</g>
</g>
<!-- Node34&#45;&gt;Node38 -->
<g id="edge65" class="edge">
<title>Node34&#45;&gt;Node38</title>
<path fill="none" stroke="midnightblue" d="M202.03,-209.7C217.4,-227.75 252.8,-266.75 290,-290 296.48,-294.05 303.76,-297.6 311,-300.63"/>
<polygon fill="midnightblue" stroke="midnightblue" points="310.19,-304.07 320.78,-304.45 312.74,-297.55 310.19,-304.07"/>
</g>
<!-- Node40 -->
<g id="node40" class="node">
<title>Node40</title>
<g id="a_node40"><a xlink:href="_transmitter_code_2src_2main_8cpp.html#a19f6fc09d690832e74fd3c679207f07f" target="_top" xlink:title=" ">
<polygon fill="white" stroke="black" points="310.5,-190.5 310.5,-209.5 397.5,-209.5 397.5,-190.5 310.5,-190.5"/>
<text text-anchor="middle" x="354" y="-197.5" font-family="Helvetica,sans-Serif" font-size="10.00">GetTemperature</text>
</a>
</g>
</g>
<!-- Node34&#45;&gt;Node40 -->
<g id="edge69" class="edge">
<title>Node34&#45;&gt;Node40</title>
<path fill="none" stroke="midnightblue" d="M240.42,-200C259.14,-200 280.85,-200 300.17,-200"/>
<polygon fill="midnightblue" stroke="midnightblue" points="300.33,-203.5 310.33,-200 300.33,-196.5 300.33,-203.5"/>
</g>
<!-- Node41 -->
<g id="node41" class="node">
<title>Node41</title>
<g id="a_node41"><a xlink:href="_transmitter_code_2src_2main_8cpp.html#a86523345ecdd52f3d93dccd6fcf4370a" target="_top" xlink:title=" ">
<polygon fill="white" stroke="black" points="290,-114.5 290,-133.5 418,-133.5 418,-114.5 290,-114.5"/>
<text text-anchor="middle" x="354" y="-121.5" font-family="Helvetica,sans-Serif" font-size="10.00">GetTimeFromAckPayload</text>
</a>
</g>
</g>
<!-- Node34&#45;&gt;Node41 -->
<g id="edge71" class="edge">
<title>Node34&#45;&gt;Node41</title>
<path fill="none" stroke="midnightblue" d="M233.99,-190.46C240.94,-187.94 247.89,-184.83 254,-181 273.72,-168.65 270.2,-155.21 290,-143 293.4,-140.9 297.05,-139.02 300.82,-137.34"/>
<polygon fill="midnightblue" stroke="midnightblue" points="302.34,-140.5 310.34,-133.55 299.76,-133.99 302.34,-140.5"/>
</g>
<!-- Node42 -->
<g id="node42" class="node">
<title>Node42</title>
<g id="a_node42"><a xlink:href="radio_8h.html#a62ec0168b1eea5f5c14f663d9217574d" target="_top" xlink:title=" ">
<polygon fill="white" stroke="black" points="303.5,-76.5 303.5,-95.5 404.5,-95.5 404.5,-76.5 303.5,-76.5"/>
<text text-anchor="middle" x="354" y="-83.5" font-family="Helvetica,sans-Serif" font-size="10.00">HopToNextChannel</text>
</a>
</g>
</g>
<!-- Node34&#45;&gt;Node42 -->
<g id="edge72" class="edge">
<title>Node34&#45;&gt;Node42</title>
<path fill="none" stroke="midnightblue" d="M238.81,-190.43C244.31,-187.97 249.55,-184.88 254,-181 282.16,-156.42 261.67,-129.38 290,-105 291.97,-103.3 294.09,-101.76 296.31,-100.35"/>
<polygon fill="midnightblue" stroke="midnightblue" points="298.12,-103.36 305.32,-95.58 294.84,-97.17 298.12,-103.36"/>
</g>
<!-- Node44 -->
<g id="node44" class="node">
<title>Node44</title>
<g id="a_node44"><a xlink:href="_transmitter_code_2src_2main_8cpp.html#a7a48851f0d38e4a0dd727a30d9515cf1" target="_top" xlink:title=" ">
<polygon fill="white" stroke="black" points="316.5,-38.5 316.5,-57.5 391.5,-57.5 391.5,-38.5 316.5,-38.5"/>
<text text-anchor="middle" x="354" y="-45.5" font-family="Helvetica,sans-Serif" font-size="10.00">ReadTheRTC</text>
</a>
</g>
</g>
<!-- Node34&#45;&gt;Node44 -->
<g id="edge74" class="edge">
<title>Node34&#45;&gt;Node44</title>
<path fill="none" stroke="midnightblue" d="M240.23,-190.55C245.31,-188.07 250.06,-184.94 254,-181 291.56,-143.41 252.19,-104.33 290,-67 294.7,-62.37 300.48,-58.85 306.62,-56.2"/>
<polygon fill="midnightblue" stroke="midnightblue" points="308.22,-59.34 316.46,-52.68 305.86,-52.75 308.22,-59.34"/>
</g>
<!-- Node45 -->
<g id="node45" class="node">
<title>Node45</title>
<g id="a_node45"><a xlink:href="_transmitter_code_2src_2main_8cpp.html#abb1ea95b6b3f033883aa87682d3240ab" target="_top" xlink:title=" ">
<polygon fill="white" stroke="black" points="292,-0.5 292,-19.5 416,-19.5 416,-0.5 292,-0.5"/>
<text text-anchor="middle" x="354" y="-7.5" font-family="Helvetica,sans-Serif" font-size="10.00">SynchRTCwithGPSTime</text>
</a>
</g>
</g>
<!-- Node34&#45;&gt;Node45 -->
<g id="edge75" class="edge">
<title>Node34&#45;&gt;Node45</title>
<path fill="none" stroke="midnightblue" d="M240.21,-190.97C245.36,-188.42 250.13,-185.16 254,-181 301.24,-130.12 242.41,-79.55 290,-29 291.24,-27.68 292.56,-26.46 293.96,-25.32"/>
<polygon fill="midnightblue" stroke="midnightblue" points="296.18,-28.05 302.64,-19.66 292.36,-22.19 296.18,-28.05"/>
</g>
<!-- Node35&#45;&gt;Node36 -->
<g id="edge62" class="edge">
<title>Node35&#45;&gt;Node36</title>
<path fill="none" stroke="midnightblue" d="M386.71,-169.51C409.13,-174.82 439.65,-182.04 465.35,-188.13"/>
<polygon fill="midnightblue" stroke="midnightblue" points="464.76,-191.58 475.3,-190.48 466.38,-184.77 464.76,-191.58"/>
</g>
<!-- Node38&#45;&gt;Node9 -->
<g id="edge68" class="edge">
<title>Node38&#45;&gt;Node9</title>
<path fill="none" stroke="midnightblue" d="M410.63,-314C478.56,-314 596.97,-314 698.5,-314 698.5,-314 698.5,-314 1001,-314 1085.13,-314 1126.07,-280.17 1189,-336 1216.9,-360.75 1231.66,-475.54 1236.59,-522.2"/>
<polygon fill="midnightblue" stroke="midnightblue" points="1233.12,-522.67 1237.61,-532.27 1240.08,-521.96 1233.12,-522.67"/>
</g>
<!-- Node39 -->
<g id="node39" class="node">
<title>Node39</title>
<g id="a_node39"><a xlink:href="_transmitter_code_2src_2main_8cpp.html#a900aa27c1353238593c276186d960912" target="_top" xlink:title=" ">
<polygon fill="white" stroke="black" points="484,-342.5 484,-361.5 549,-361.5 549,-342.5 484,-342.5"/>
<text text-anchor="middle" x="516.5" y="-349.5" font-family="Helvetica,sans-Serif" font-size="10.00">LogThisRX</text>
</a>
</g>
</g>
<!-- Node38&#45;&gt;Node39 -->
<g id="edge66" class="edge">
<title>Node38&#45;&gt;Node39</title>
<path fill="none" stroke="midnightblue" d="M395.5,-323.59C419.47,-329.26 449.77,-336.44 473.93,-342.16"/>
<polygon fill="midnightblue" stroke="midnightblue" points="473.33,-345.61 483.87,-344.51 474.94,-338.8 473.33,-345.61"/>
</g>
<!-- Node39&#45;&gt;Node4 -->
<g id="edge67" class="edge">
<title>Node39&#45;&gt;Node4</title>
<path fill="none" stroke="midnightblue" d="M549.09,-360.8C558.79,-363.75 569.42,-367.26 579,-371 611.56,-383.72 647.59,-401.43 671.49,-413.73"/>
<polygon fill="midnightblue" stroke="midnightblue" points="670.15,-416.97 680.64,-418.47 673.38,-410.76 670.15,-416.97"/>
</g>
<!-- Node40&#45;&gt;Node36 -->
<g id="edge70" class="edge">
<title>Node40&#45;&gt;Node36</title>
<path fill="none" stroke="midnightblue" d="M397.59,-200C414.52,-200 434.33,-200 452.83,-200"/>
<polygon fill="midnightblue" stroke="midnightblue" points="452.95,-203.5 462.95,-200 452.95,-196.5 452.95,-203.5"/>
</g>
<!-- Node43 -->
<g id="node43" class="node">
<title>Node43</title>
<g id="a_node43"><a xlink:href="radio_8h.html#a2863e7455e30e6fddc0fcf56f62d6564" target="_top" xlink:title=" ">
<polygon fill="white" stroke="black" points="461.5,-76.5 461.5,-95.5 571.5,-95.5 571.5,-76.5 461.5,-76.5"/>
<text text-anchor="middle" x="516.5" y="-83.5" font-family="Helvetica,sans-Serif" font-size="10.00">ShowHopDurationEtc</text>
</a>
</g>
</g>
<!-- Node42&#45;&gt;Node43 -->
<g id="edge73" class="edge">
<title>Node42&#45;&gt;Node43</title>
<path fill="none" stroke="midnightblue" d="M404.9,-86C419.62,-86 435.94,-86 451.42,-86"/>
<polygon fill="midnightblue" stroke="midnightblue" points="451.45,-89.5 461.45,-86 451.45,-82.5 451.45,-89.5"/>
</g>
<!-- Node46 -->
<g id="node46" class="node">
<title>Node46</title>
<g id="a_node46"><a xlink:href="_transmitter_code_2src_2main_8cpp.html#aab56bfb50b2e8997275de7ea611e5bb4" target="_top" xlink:title=" ">
<polygon fill="white" stroke="black" points="482.5,-0.5 482.5,-19.5 550.5,-19.5 550.5,-0.5 482.5,-0.5"/>
<text text-anchor="middle" x="516.5" y="-7.5" font-family="Helvetica,sans-Serif" font-size="10.00">SetTheRTC</text>
</a>
</g>
</g>
<!-- Node45&#45;&gt;Node46 -->
<g id="edge76" class="edge">
<title>Node45&#45;&gt;Node46</title>
<path fill="none" stroke="midnightblue" d="M416.14,-10C434.77,-10 454.86,-10 472.07,-10"/>
<polygon fill="midnightblue" stroke="midnightblue" points="472.38,-13.5 482.38,-10 472.38,-6.5 472.38,-13.5"/>
</g>
<!-- Node47 -->
<g id="node47" class="node">
<title>Node47</title>
<g id="a_node47"><a xlink:href="_transmitter_code_2src_2main_8cpp.html#aa55ce3dfb919da5cebf61d1f2d2a96b7" target="_top" xlink:title=" ">
<polygon fill="white" stroke="black" points="669,-0.5 669,-19.5 730,-19.5 730,-0.5 669,-0.5"/>
<text text-anchor="middle" x="699.5" y="-7.5" font-family="Helvetica,sans-Serif" font-size="10.00">decToBcd</text>
</a>
</g>
</g>
<!-- Node46&#45;&gt;Node47 -->
<g id="edge77" class="edge">
<title>Node46&#45;&gt;Node47</title>
<path fill="none" stroke="midnightblue" d="M550.7,-10C581.18,-10 626.4,-10 658.78,-10"/>
<polygon fill="midnightblue" stroke="midnightblue" points="658.81,-13.5 668.81,-10 658.81,-6.5 658.81,-13.5"/>
</g>
</g>
</svg>
