<?xml version="1.0" encoding="UTF-8" standalone="no"?>
<!DOCTYPE svg PUBLIC "-//W3C//DTD SVG 1.1//EN"
 "http://www.w3.org/Graphics/SVG/1.1/DTD/svg11.dtd">
<!-- Generated by graphviz version 3.0.0 (20220413.0106)
 -->
<!-- Title: KickTheDog Pages: 1 -->
<svg width="658pt" height="497pt"
 viewBox="0.00 0.00 658.00 497.15" xmlns="http://www.w3.org/2000/svg" xmlns:xlink="http://www.w3.org/1999/xlink">
<g id="graph0" class="graph" transform="scale(1 1) rotate(0) translate(4 493.15)">
<title>KickTheDog</title>
<polygon fill="white" stroke="transparent" points="-4,4 -4,-493.15 654,-493.15 654,4 -4,4"/>
<!-- Node1 -->
<g id="node1" class="node">
<title>Node1</title>
<g id="a_node1"><a xlink:title=" ">
<polygon fill="#bfbfbf" stroke="black" points="580,-137.65 580,-156.65 650,-156.65 650,-137.65 580,-137.65"/>
<text text-anchor="middle" x="615" y="-144.65" font-family="Helvetica,sans-Serif" font-size="10.00">KickTheDog</text>
</a>
</g>
</g>
<!-- Node2 -->
<g id="node2" class="node">
<title>Node2</title>
<g id="a_node2"><a xlink:href="_transmitter_code_2src_2main_8cpp.html#afe461d27b9c48d5921c00d521181f12f" target="_top" xlink:title=" ">
<polygon fill="white" stroke="black" points="0,-251.65 0,-270.65 35,-270.65 35,-251.65 0,-251.65"/>
<text text-anchor="middle" x="17.5" y="-258.65" font-family="Helvetica,sans-Serif" font-size="10.00">loop</text>
</a>
</g>
</g>
<!-- Node1&#45;&gt;Node2 -->
<g id="edge1" class="edge">
<title>Node1&#45;&gt;Node2</title>
<path fill="none" stroke="midnightblue" d="M610.89,-166.72C598.13,-239.34 542.92,-489.15 387,-489.15 387,-489.15 387,-489.15 254,-489.15 206.8,-489.15 116.06,-445.51 71,-394.15 37.6,-356.09 24.09,-294.23 19.98,-270.67"/>
<polygon fill="midnightblue" stroke="midnightblue" points="614.38,-167.1 612.58,-156.66 607.47,-165.94 614.38,-167.1"/>
</g>
<!-- Node3 -->
<g id="node3" class="node">
<title>Node3</title>
<g id="a_node3"><a xlink:href="_radio_functions_8cpp.html#a760609a682300dfe6bfaac737fd4d5eb" target="_top" xlink:title=" ">
<polygon fill="white" stroke="black" points="470,-213.65 470,-232.65 544,-232.65 544,-213.65 470,-213.65"/>
<text text-anchor="middle" x="507" y="-220.65" font-family="Helvetica,sans-Serif" font-size="10.00">Procrastinate</text>
</a>
</g>
</g>
<!-- Node1&#45;&gt;Node3 -->
<g id="edge2" class="edge">
<title>Node1&#45;&gt;Node3</title>
<path fill="none" stroke="midnightblue" d="M592.43,-162.62C571.12,-177.9 539.18,-200.8 521.32,-213.61"/>
<polygon fill="midnightblue" stroke="midnightblue" points="594.49,-165.45 600.58,-156.78 590.41,-159.76 594.49,-165.45"/>
</g>
<!-- Node14 -->
<g id="node14" class="node">
<title>Node14</title>
<g id="a_node14"><a xlink:href="_transmitter_code_2src_2main_8cpp.html#ab7c9edf843c732d7fe296564f39bc0dc" target="_top" xlink:title="RECEIVE A MODEL FILE.">
<polygon fill="white" stroke="black" points="208,-137.65 208,-156.65 302,-156.65 302,-137.65 208,-137.65"/>
<text text-anchor="middle" x="255" y="-144.65" font-family="Helvetica,sans-Serif" font-size="10.00">ReceiveModelFile</text>
</a>
</g>
</g>
<!-- Node1&#45;&gt;Node14 -->
<g id="edge34" class="edge">
<title>Node1&#45;&gt;Node14</title>
<path fill="none" stroke="midnightblue" d="M569.55,-146.3C515.01,-145.38 419.7,-144.16 338,-145.15 326.47,-145.29 314.02,-145.55 302.4,-145.82"/>
<polygon fill="midnightblue" stroke="midnightblue" points="569.52,-149.8 579.58,-146.47 569.64,-142.8 569.52,-149.8"/>
</g>
<!-- Node15 -->
<g id="node15" class="node">
<title>Node15</title>
<g id="a_node15"><a xlink:href="_transmitter_code_2src_2main_8cpp.html#a58c67a975068930341f0663e0a08c9d3" target="_top" xlink:title="SEND A MODEL FILE.">
<polygon fill="white" stroke="black" points="214.5,-99.65 214.5,-118.65 295.5,-118.65 295.5,-99.65 214.5,-99.65"/>
<text text-anchor="middle" x="255" y="-106.65" font-family="Helvetica,sans-Serif" font-size="10.00">SendModelFile</text>
</a>
</g>
</g>
<!-- Node1&#45;&gt;Node15 -->
<g id="edge35" class="edge">
<title>Node1&#45;&gt;Node15</title>
<path fill="none" stroke="midnightblue" d="M598.32,-129.86C569.39,-99.41 504.17,-37.26 434,-14.15 393.47,-0.81 374.05,8.66 338,-14.15 306.42,-34.14 329.09,-64.4 302,-90.15 297.99,-93.96 293.11,-97.06 288.05,-99.55"/>
<polygon fill="midnightblue" stroke="midnightblue" points="596.11,-132.62 605.48,-137.55 601.23,-127.84 596.11,-132.62"/>
</g>
<!-- Node4 -->
<g id="node4" class="node">
<title>Node4</title>
<g id="a_node4"><a xlink:href="_transmitter_code_2src_2main_8cpp.html#a8e7ccbf842764fd85cc578be263f7202" target="_top" xlink:title=" ">
<polygon fill="white" stroke="black" points="71,-251.65 71,-270.65 172,-270.65 172,-251.65 71,-251.65"/>
<text text-anchor="middle" x="121.5" y="-258.65" font-family="Helvetica,sans-Serif" font-size="10.00">ButtonWasPressed</text>
</a>
</g>
</g>
<!-- Node3&#45;&gt;Node4 -->
<g id="edge3" class="edge">
<title>Node3&#45;&gt;Node4</title>
<path fill="none" stroke="midnightblue" d="M467.08,-210.93C456.46,-208.13 444.88,-205.56 434,-204.15 333.92,-191.17 305.04,-198.45 208,-226.15 184.87,-232.76 159.49,-243.64 142.44,-251.52"/>
<polygon fill="midnightblue" stroke="midnightblue" points="466.34,-214.35 476.91,-213.65 468.21,-207.61 466.34,-214.35"/>
</g>
<!-- Node5 -->
<g id="node5" class="node">
<title>Node5</title>
<g id="a_node5"><a xlink:href="_transmitter_code_2src_2main_8cpp.html#ad7b8aa834c87265667a5687b1787a1cc" target="_top" xlink:title=" ">
<polygon fill="white" stroke="black" points="358,-365.65 358,-384.65 414,-384.65 414,-365.65 358,-365.65"/>
<text text-anchor="middle" x="386" y="-372.65" font-family="Helvetica,sans-Serif" font-size="10.00">EndSend</text>
</a>
</g>
</g>
<!-- Node3&#45;&gt;Node5 -->
<g id="edge5" class="edge">
<title>Node3&#45;&gt;Node5</title>
<path fill="none" stroke="midnightblue" d="M500.19,-242.61C490.73,-271.17 469.41,-324.5 434,-356.15 428.36,-361.2 421.2,-365 414.19,-367.82"/>
<polygon fill="midnightblue" stroke="midnightblue" points="503.56,-243.56 503.24,-232.97 496.88,-241.45 503.56,-243.56"/>
</g>
<!-- Node10 -->
<g id="node10" class="node">
<title>Node10</title>
<g id="a_node10"><a xlink:href="_radio_functions_8cpp.html#a86ce6c54618629a61b8502786d2ce82c" target="_top" xlink:title=" ">
<polygon fill="white" stroke="black" points="358.5,-289.65 358.5,-308.65 413.5,-308.65 413.5,-289.65 358.5,-289.65"/>
<text text-anchor="middle" x="386" y="-296.65" font-family="Helvetica,sans-Serif" font-size="10.00">InitRadio</text>
</a>
</g>
</g>
<!-- Node3&#45;&gt;Node10 -->
<g id="edge13" class="edge">
<title>Node3&#45;&gt;Node10</title>
<path fill="none" stroke="midnightblue" d="M485.87,-238.97C471.74,-249.75 452.19,-264.03 434,-275.15 425.56,-280.31 415.87,-285.39 407.5,-289.54"/>
<polygon fill="midnightblue" stroke="midnightblue" points="488.13,-241.65 493.91,-232.77 483.85,-236.1 488.13,-241.65"/>
</g>
<!-- Node11 -->
<g id="node11" class="node">
<title>Node11</title>
<g id="a_node11"><a xlink:href="_transmitter_code_2src_2main_8cpp.html#a4fc01d736fe50cf5b977f755b675f11d" target="_top" xlink:title=" ">
<polygon fill="white" stroke="black" points="234.5,-251.65 234.5,-270.65 275.5,-270.65 275.5,-251.65 234.5,-251.65"/>
<text text-anchor="middle" x="255" y="-258.65" font-family="Helvetica,sans-Serif" font-size="10.00">setup</text>
</a>
</g>
</g>
<!-- Node3&#45;&gt;Node11 -->
<g id="edge31" class="edge">
<title>Node3&#45;&gt;Node11</title>
<path fill="none" stroke="midnightblue" d="M464.05,-235.37C454.25,-237.9 443.81,-240.35 434,-242.15 377,-252.65 308.58,-257.94 275.63,-260.03"/>
<polygon fill="midnightblue" stroke="midnightblue" points="465.22,-238.68 473.98,-232.72 463.41,-231.92 465.22,-238.68"/>
</g>
<!-- Node12 -->
<g id="node12" class="node">
<title>Node12</title>
<g id="a_node12"><a xlink:href="_transmitter_code_2src_2main_8cpp.html#a1f216143939b915de657fd5a3b3afdd8" target="_top" xlink:title=" ">
<polygon fill="white" stroke="black" points="348.5,-327.65 348.5,-346.65 423.5,-346.65 423.5,-327.65 348.5,-327.65"/>
<text text-anchor="middle" x="386" y="-334.65" font-family="Helvetica,sans-Serif" font-size="10.00">ReadHelpFile</text>
</a>
</g>
</g>
<!-- Node3&#45;&gt;Node12 -->
<g id="edge15" class="edge">
<title>Node3&#45;&gt;Node12</title>
<path fill="none" stroke="midnightblue" d="M496,-241.82C483.85,-262.93 461.52,-297.09 434,-318.15 429.11,-321.9 423.38,-325.01 417.63,-327.57"/>
<polygon fill="midnightblue" stroke="midnightblue" points="499.17,-243.32 500.99,-232.88 493.06,-239.91 499.17,-243.32"/>
</g>
<!-- Node3&#45;&gt;Node14 -->
<g id="edge18" class="edge">
<title>Node3&#45;&gt;Node14</title>
<path fill="none" stroke="midnightblue" d="M488.58,-206.75C474.85,-194.83 454.64,-179.39 434,-171.15 391.43,-154.16 339.06,-148.77 302.18,-147.26"/>
<polygon fill="midnightblue" stroke="midnightblue" points="486.46,-209.55 496.24,-213.63 491.14,-204.34 486.46,-209.55"/>
</g>
<!-- Node3&#45;&gt;Node15 -->
<g id="edge20" class="edge">
<title>Node3&#45;&gt;Node15</title>
<path fill="none" stroke="midnightblue" d="M494.28,-204.89C481.66,-186.78 459.85,-159.7 434,-145.15 390.72,-120.8 333.32,-112.79 295.56,-110.23"/>
<polygon fill="midnightblue" stroke="midnightblue" points="491.54,-207.08 500.02,-213.43 497.35,-203.18 491.54,-207.08"/>
</g>
<!-- Node16 -->
<g id="node16" class="node">
<title>Node16</title>
<g id="a_node16"><a xlink:href="_transmitter_code_2src_2main_8cpp.html#acbd0460ea44a7d07e4d77878411febb4" target="_top" xlink:title=" ">
<polygon fill="white" stroke="black" points="340,-403.65 340,-422.65 432,-422.65 432,-403.65 340,-403.65"/>
<text text-anchor="middle" x="386" y="-410.65" font-family="Helvetica,sans-Serif" font-size="10.00">SetDefaultValues</text>
</a>
</g>
</g>
<!-- Node3&#45;&gt;Node16 -->
<g id="edge22" class="edge">
<title>Node3&#45;&gt;Node16</title>
<path fill="none" stroke="midnightblue" d="M502.84,-242.61C496.21,-277.5 477.68,-351.1 434,-394.15 430.11,-397.98 425.35,-401.07 420.37,-403.56"/>
<polygon fill="midnightblue" stroke="midnightblue" points="506.3,-243.18 504.59,-232.72 499.4,-241.96 506.3,-243.18"/>
</g>
<!-- Node17 -->
<g id="node17" class="node">
<title>Node17</title>
<g id="a_node17"><a xlink:href="_radio_functions_8cpp.html#a70dc6f8d2e5ccef6b8e4a2b9b0afb2ce" target="_top" xlink:title=" ">
<polygon fill="white" stroke="black" points="352,-23.65 352,-42.65 420,-42.65 420,-23.65 352,-23.65"/>
<text text-anchor="middle" x="386" y="-30.65" font-family="Helvetica,sans-Serif" font-size="10.00">SetThePipe</text>
</a>
</g>
</g>
<!-- Node3&#45;&gt;Node17 -->
<g id="edge24" class="edge">
<title>Node3&#45;&gt;Node17</title>
<path fill="none" stroke="midnightblue" d="M496.46,-204.36C483.35,-178.99 458.58,-132.63 434,-95.15 421.41,-75.95 404.81,-54.91 395.08,-42.94"/>
<polygon fill="midnightblue" stroke="midnightblue" points="493.51,-206.28 501.19,-213.58 499.74,-203.08 493.51,-206.28"/>
</g>
<!-- Node20 -->
<g id="node20" class="node">
<title>Node20</title>
<g id="a_node20"><a xlink:href="_transmitter_code_2src_2main_8cpp.html#a1e7673fa1ef97d68711edd0da2abed9b" target="_top" xlink:title=" ">
<polygon fill="white" stroke="black" points="338,-213.65 338,-232.65 434,-232.65 434,-213.65 338,-213.65"/>
<text text-anchor="middle" x="386" y="-220.65" font-family="Helvetica,sans-Serif" font-size="10.00">ShowFileErrorMsg</text>
</a>
</g>
</g>
<!-- Node3&#45;&gt;Node20 -->
<g id="edge32" class="edge">
<title>Node3&#45;&gt;Node20</title>
<path fill="none" stroke="midnightblue" d="M459.96,-223.15C451.56,-223.15 442.78,-223.15 434.34,-223.15"/>
<polygon fill="midnightblue" stroke="midnightblue" points="459.97,-226.65 469.97,-223.15 459.97,-219.65 459.97,-226.65"/>
</g>
<!-- Node4&#45;&gt;Node2 -->
<g id="edge4" class="edge">
<title>Node4&#45;&gt;Node2</title>
<path fill="none" stroke="midnightblue" d="M60.98,-261.15C51.45,-261.15 42.33,-261.15 35,-261.15"/>
<polygon fill="midnightblue" stroke="midnightblue" points="60.99,-264.65 70.99,-261.15 60.99,-257.65 60.99,-264.65"/>
</g>
<!-- Node6 -->
<g id="node6" class="node">
<title>Node6</title>
<g id="a_node6"><a xlink:href="_transmitter_code_2src_2main_8cpp.html#ac8919b32f9c38cc65c7b93cae664acfb" target="_top" xlink:title=" ">
<polygon fill="white" stroke="black" points="214.5,-365.65 214.5,-384.65 295.5,-384.65 295.5,-365.65 214.5,-365.65"/>
<text text-anchor="middle" x="255" y="-372.65" font-family="Helvetica,sans-Serif" font-size="10.00">GetOtherValue</text>
</a>
</g>
</g>
<!-- Node5&#45;&gt;Node6 -->
<g id="edge6" class="edge">
<title>Node5&#45;&gt;Node6</title>
<path fill="none" stroke="midnightblue" d="M347.72,-375.15C331.43,-375.15 312.3,-375.15 295.74,-375.15"/>
<polygon fill="midnightblue" stroke="midnightblue" points="347.96,-378.65 357.96,-375.15 347.96,-371.65 347.96,-378.65"/>
</g>
<!-- Node7 -->
<g id="node7" class="node">
<title>Node7</title>
<g id="a_node7"><a xlink:href="_transmitter_code_2src_2main_8cpp.html#a8e271ca29dc3c90bcf0e465b41bd71ff" target="_top" xlink:title=" ">
<polygon fill="white" stroke="black" points="229.5,-327.65 229.5,-346.65 280.5,-346.65 280.5,-327.65 229.5,-327.65"/>
<text text-anchor="middle" x="255" y="-334.65" font-family="Helvetica,sans-Serif" font-size="10.00">GetText</text>
</a>
</g>
</g>
<!-- Node5&#45;&gt;Node7 -->
<g id="edge8" class="edge">
<title>Node5&#45;&gt;Node7</title>
<path fill="none" stroke="midnightblue" d="M348.14,-364.3C326.57,-357.94 299.91,-350.09 280.82,-344.47"/>
<polygon fill="midnightblue" stroke="midnightblue" points="347.38,-367.72 357.96,-367.19 349.35,-361 347.38,-367.72"/>
</g>
<!-- Node8 -->
<g id="node8" class="node">
<title>Node8</title>
<g id="a_node8"><a xlink:href="_transmitter_code_2src_2main_8cpp.html#ad957c44f88874b35bd11323a86408e59" target="_top" xlink:title=" ">
<polygon fill="white" stroke="black" points="226.5,-441.65 226.5,-460.65 283.5,-460.65 283.5,-441.65 226.5,-441.65"/>
<text text-anchor="middle" x="255" y="-448.65" font-family="Helvetica,sans-Serif" font-size="10.00">GetValue</text>
</a>
</g>
</g>
<!-- Node5&#45;&gt;Node8 -->
<g id="edge9" class="edge">
<title>Node5&#45;&gt;Node8</title>
<path fill="none" stroke="midnightblue" d="M348.91,-388.78C345.17,-390.47 341.47,-392.28 338,-394.15 311.62,-408.42 283.44,-429.44 267.95,-441.56"/>
<polygon fill="midnightblue" stroke="midnightblue" points="350.37,-391.96 358.18,-384.8 347.61,-385.53 350.37,-391.96"/>
</g>
<!-- Node6&#45;&gt;Node4 -->
<g id="edge7" class="edge">
<title>Node6&#45;&gt;Node4</title>
<path fill="none" stroke="midnightblue" d="M216.07,-361.13C213.25,-359.6 210.53,-357.94 208,-356.15 172.84,-331.32 141.87,-289.57 128.93,-270.8"/>
<polygon fill="midnightblue" stroke="midnightblue" points="214.71,-364.36 225.23,-365.59 217.77,-358.07 214.71,-364.36"/>
</g>
<!-- Node8&#45;&gt;Node4 -->
<g id="edge10" class="edge">
<title>Node8&#45;&gt;Node4</title>
<path fill="none" stroke="midnightblue" d="M219.81,-436.46C215.54,-433.75 211.46,-430.65 208,-427.15 183.13,-401.99 188.17,-387.62 172,-356.15 155.93,-324.89 136.61,-288.01 127.59,-270.84"/>
<polygon fill="midnightblue" stroke="midnightblue" points="218.29,-439.62 228.73,-441.48 221.73,-433.52 218.29,-439.62"/>
</g>
<!-- Node9 -->
<g id="node9" class="node">
<title>Node9</title>
<g id="a_node9"><a xlink:href="_transmitter_code_2src_2main_8cpp.html#a984cb52354a84c45e9e41f396a1c5e92" target="_top" xlink:title=" ">
<polygon fill="white" stroke="black" points="73,-365.65 73,-384.65 170,-384.65 170,-365.65 73,-365.65"/>
<text text-anchor="middle" x="121.5" y="-372.65" font-family="Helvetica,sans-Serif" font-size="10.00">CheckModelName</text>
</a>
</g>
</g>
<!-- Node8&#45;&gt;Node9 -->
<g id="edge11" class="edge">
<title>Node8&#45;&gt;Node9</title>
<path fill="none" stroke="midnightblue" d="M225.99,-436.91C220.01,-433.77 213.77,-430.41 208,-427.15 182.88,-412.98 154.39,-395.32 137.46,-384.66"/>
<polygon fill="midnightblue" stroke="midnightblue" points="224.56,-440.12 235.05,-441.62 227.79,-433.9 224.56,-440.12"/>
</g>
<!-- Node9&#45;&gt;Node2 -->
<g id="edge12" class="edge">
<title>Node9&#45;&gt;Node2</title>
<path fill="none" stroke="midnightblue" d="M104.87,-357.69C83.11,-333.36 44.39,-290.09 27.17,-270.85"/>
<polygon fill="midnightblue" stroke="midnightblue" points="102.53,-360.31 111.8,-365.43 107.74,-355.65 102.53,-360.31"/>
</g>
<!-- Node10&#45;&gt;Node11 -->
<g id="edge14" class="edge">
<title>Node10&#45;&gt;Node11</title>
<path fill="none" stroke="midnightblue" d="M348.54,-288.41C324.84,-281.43 294.85,-272.6 275.55,-266.91"/>
<polygon fill="midnightblue" stroke="midnightblue" points="347.69,-291.81 358.27,-291.28 349.67,-285.1 347.69,-291.81"/>
</g>
<!-- Node13 -->
<g id="node13" class="node">
<title>Node13</title>
<g id="a_node13"><a xlink:href="_transmitter_code_2src_2main_8cpp.html#a038111bf598c53ad7b9a62ca45259356" target="_top" xlink:title=" ">
<polygon fill="white" stroke="black" points="225.5,-289.65 225.5,-308.65 284.5,-308.65 284.5,-289.65 225.5,-289.65"/>
<text text-anchor="middle" x="255" y="-296.65" font-family="Helvetica,sans-Serif" font-size="10.00">SendHelp</text>
</a>
</g>
</g>
<!-- Node12&#45;&gt;Node13 -->
<g id="edge16" class="edge">
<title>Node12&#45;&gt;Node13</title>
<path fill="none" stroke="midnightblue" d="M342.79,-324.72C323.72,-319.1 301.68,-312.61 284.59,-307.57"/>
<polygon fill="midnightblue" stroke="midnightblue" points="341.87,-328.1 352.45,-327.56 343.84,-321.38 341.87,-328.1"/>
</g>
<!-- Node13&#45;&gt;Node4 -->
<g id="edge17" class="edge">
<title>Node13&#45;&gt;Node4</title>
<path fill="none" stroke="midnightblue" d="M215.62,-288.06C196.6,-282.57 173.87,-276 155.62,-270.72"/>
<polygon fill="midnightblue" stroke="midnightblue" points="214.89,-291.49 225.47,-290.91 216.83,-284.77 214.89,-291.49"/>
</g>
<!-- Node14&#45;&gt;Node4 -->
<g id="edge19" class="edge">
<title>Node14&#45;&gt;Node4</title>
<path fill="none" stroke="midnightblue" d="M222.9,-161.58C217.74,-164.47 212.59,-167.7 208,-171.15 175.13,-195.93 143.71,-233.84 129.88,-251.49"/>
<polygon fill="midnightblue" stroke="midnightblue" points="224.84,-164.51 232.05,-156.75 221.58,-158.32 224.84,-164.51"/>
</g>
<!-- Node15&#45;&gt;Node4 -->
<g id="edge21" class="edge">
<title>Node15&#45;&gt;Node4</title>
<path fill="none" stroke="midnightblue" d="M214.34,-123.58C212.11,-124.98 209.97,-126.51 208,-128.15 165.01,-164.04 136.24,-227.19 126.33,-251.36"/>
<polygon fill="midnightblue" stroke="midnightblue" points="216.17,-126.58 223.31,-118.75 212.85,-120.41 216.17,-126.58"/>
</g>
<!-- Node16&#45;&gt;Node4 -->
<g id="edge23" class="edge">
<title>Node16&#45;&gt;Node4</title>
<path fill="none" stroke="midnightblue" d="M329.63,-419.06C292.58,-420.31 244.17,-416.49 208,-394.15 183.48,-379.01 141.65,-299.21 127.41,-271.03"/>
<polygon fill="midnightblue" stroke="midnightblue" points="329.93,-422.55 339.76,-418.58 329.61,-415.56 329.93,-422.55"/>
</g>
<!-- Node17&#45;&gt;Node2 -->
<g id="edge25" class="edge">
<title>Node17&#45;&gt;Node2</title>
<path fill="none" stroke="midnightblue" d="M341.98,-32.74C273.53,-34.61 140.49,-48.95 71,-128.15 37.6,-166.22 24.09,-228.07 19.98,-251.63"/>
<polygon fill="midnightblue" stroke="midnightblue" points="342.06,-36.24 351.99,-32.55 341.92,-29.25 342.06,-36.24"/>
</g>
<!-- Node17&#45;&gt;Node14 -->
<g id="edge26" class="edge">
<title>Node17&#45;&gt;Node14</title>
<path fill="none" stroke="midnightblue" d="M350.07,-47.76C345.7,-50.48 341.53,-53.61 338,-57.15 313.02,-82.21 327.97,-104.12 302,-128.15 297.94,-131.91 293.04,-134.97 287.96,-137.46"/>
<polygon fill="midnightblue" stroke="midnightblue" points="352.11,-50.63 359.18,-42.73 348.73,-44.5 352.11,-50.63"/>
</g>
<!-- Node17&#45;&gt;Node15 -->
<g id="edge27" class="edge">
<title>Node17&#45;&gt;Node15</title>
<path fill="none" stroke="midnightblue" d="M354.12,-47.41C348.6,-50.38 343.01,-53.67 338,-57.15 320.17,-69.53 320.31,-78.5 302,-90.15 296.31,-93.77 289.82,-96.95 283.54,-99.62"/>
<polygon fill="midnightblue" stroke="midnightblue" points="355.94,-50.41 363.25,-42.74 352.75,-44.18 355.94,-50.41"/>
</g>
<!-- Node18 -->
<g id="node18" class="node">
<title>Node18</title>
<g id="a_node18"><a xlink:href="_radio_functions_8cpp.html#a7051e235b8f694c6b01bb5edf3925dc7" target="_top" xlink:title=" ">
<polygon fill="white" stroke="black" points="218,-61.65 218,-80.65 292,-80.65 292,-61.65 218,-61.65"/>
<text text-anchor="middle" x="255" y="-68.65" font-family="Helvetica,sans-Serif" font-size="10.00">TryOtherPipe</text>
</a>
</g>
</g>
<!-- Node17&#45;&gt;Node18 -->
<g id="edge28" class="edge">
<title>Node17&#45;&gt;Node18</title>
<path fill="none" stroke="midnightblue" d="M342.45,-45.69C324.9,-50.86 304.89,-56.75 288.54,-61.57"/>
<polygon fill="midnightblue" stroke="midnightblue" points="343.84,-48.93 352.45,-42.74 341.87,-42.21 343.84,-48.93"/>
</g>
<!-- Node19 -->
<g id="node19" class="node">
<title>Node19</title>
<g id="a_node19"><a xlink:href="_radio_functions_8cpp.html#a3d7322e78f097d02d476f17a6306997c" target="_top" xlink:title=" ">
<polygon fill="white" stroke="black" points="92,-137.65 92,-156.65 151,-156.65 151,-137.65 92,-137.65"/>
<text text-anchor="middle" x="121.5" y="-144.65" font-family="Helvetica,sans-Serif" font-size="10.00">SendData</text>
</a>
</g>
</g>
<!-- Node18&#45;&gt;Node19 -->
<g id="edge29" class="edge">
<title>Node18&#45;&gt;Node19</title>
<path fill="none" stroke="midnightblue" d="M218.99,-84.77C215.23,-86.48 211.5,-88.29 208,-90.15 180.77,-104.67 151.29,-125.6 135.05,-137.64"/>
<polygon fill="midnightblue" stroke="midnightblue" points="220.5,-87.92 228.28,-80.73 217.71,-81.5 220.5,-87.92"/>
</g>
<!-- Node19&#45;&gt;Node2 -->
<g id="edge30" class="edge">
<title>Node19&#45;&gt;Node2</title>
<path fill="none" stroke="midnightblue" d="M104.87,-164.62C83.11,-188.95 44.39,-232.21 27.17,-251.46"/>
<polygon fill="midnightblue" stroke="midnightblue" points="107.74,-166.66 111.8,-156.87 102.53,-161.99 107.74,-166.66"/>
</g>
<!-- Node20&#45;&gt;Node4 -->
<g id="edge33" class="edge">
<title>Node20&#45;&gt;Node4</title>
<path fill="none" stroke="midnightblue" d="M327.87,-227.65C293.09,-230.8 247.83,-235.61 208,-242.15 192.55,-244.69 175.69,-248.26 161.05,-251.63"/>
<polygon fill="midnightblue" stroke="midnightblue" points="328.2,-231.14 337.85,-226.77 327.58,-224.17 328.2,-231.14"/>
</g>
</g>
</svg>
