<?xml version="1.0" encoding="UTF-8" standalone="no"?>
<!DOCTYPE svg PUBLIC "-//W3C//DTD SVG 1.1//EN"
 "http://www.w3.org/Graphics/SVG/1.1/DTD/svg11.dtd">
<!-- Generated by graphviz version 3.0.0 (20220413.0242)
 -->
<!-- Title: GetStickInput Pages: 1 -->
<svg width="733pt" height="294pt"
 viewBox="0.00 0.00 733.00 294.00" xmlns="http://www.w3.org/2000/svg" xmlns:xlink="http://www.w3.org/1999/xlink">
<g id="graph0" class="graph" transform="scale(1 1) rotate(0) translate(4 290)">
<title>GetStickInput</title>
<polygon fill="white" stroke="transparent" points="-4,4 -4,-290 729,-290 729,4 -4,4"/>
<!-- Node1 -->
<g id="node1" class="node">
<title>Node1</title>
<g id="a_node1"><a xlink:title=" ">
<polygon fill="#bfbfbf" stroke="black" points="648,-161.5 648,-180.5 725,-180.5 725,-161.5 648,-161.5"/>
<text text-anchor="middle" x="686.5" y="-168.5" font-family="Helvetica,sans-Serif" font-size="10.00">GetStickInput</text>
</a>
</g>
</g>
<!-- Node2 -->
<g id="node2" class="node">
<title>Node2</title>
<g id="a_node2"><a xlink:href="_transmitter_code_2src_2main_8cpp.html#a26ae4f6ca14f760bd5eb6e7588fe7c81" target="_top" xlink:title="GET NEW SERVO POSITIONS.">
<polygon fill="white" stroke="black" points="204,-213.5 204,-232.5 322,-232.5 322,-213.5 204,-213.5"/>
<text text-anchor="middle" x="263" y="-220.5" font-family="Helvetica,sans-Serif" font-size="10.00">GetNewChannelValues</text>
</a>
</g>
</g>
<!-- Node1&#45;&gt;Node2 -->
<g id="edge1" class="edge">
<title>Node1&#45;&gt;Node2</title>
<path fill="none" stroke="midnightblue" d="M637.72,-176.89C559.92,-186.49 406.14,-205.46 322.13,-215.83"/>
<polygon fill="midnightblue" stroke="midnightblue" points="638.23,-180.36 647.72,-175.66 637.37,-173.41 638.23,-180.36"/>
</g>
<!-- Node6 -->
<g id="node6" class="node">
<title>Node6</title>
<g id="a_node6"><a xlink:href="_transmitter_code_2src_2main_8cpp.html#ad770ee51a34d8c5026e65136884c16bf" target="_top" xlink:title=" ">
<polygon fill="white" stroke="black" points="528,-142.5 528,-161.5 612,-161.5 612,-142.5 528,-142.5"/>
<text text-anchor="middle" x="570" y="-149.5" font-family="Helvetica,sans-Serif" font-size="10.00">ShowServoPos</text>
</a>
</g>
</g>
<!-- Node1&#45;&gt;Node6 -->
<g id="edge7" class="edge">
<title>Node1&#45;&gt;Node6</title>
<path fill="none" stroke="midnightblue" d="M637.62,-163.06C629.22,-161.66 620.53,-160.22 612.32,-158.86"/>
<polygon fill="midnightblue" stroke="midnightblue" points="637.25,-166.54 647.69,-164.73 638.4,-159.64 637.25,-166.54"/>
</g>
<!-- Node3 -->
<g id="node3" class="node">
<title>Node3</title>
<g id="a_node3"><a xlink:href="_transmitter_code_2src_2main_8cpp.html#ae1b8cef371d26fca2b4f5a101be7a8ba" target="_top" xlink:title=" ">
<polygon fill="white" stroke="black" points="78,-266.5 78,-285.5 161,-285.5 161,-266.5 78,-266.5"/>
<text text-anchor="middle" x="119.5" y="-273.5" font-family="Helvetica,sans-Serif" font-size="10.00">CalibrateSticks</text>
</a>
</g>
</g>
<!-- Node2&#45;&gt;Node3 -->
<g id="edge2" class="edge">
<title>Node2&#45;&gt;Node3</title>
<path fill="none" stroke="midnightblue" d="M226.84,-236.17C201.73,-245.58 168.51,-258.02 145.93,-266.47"/>
<polygon fill="midnightblue" stroke="midnightblue" points="228.24,-239.38 236.38,-232.6 225.78,-232.83 228.24,-239.38"/>
</g>
<!-- Node4 -->
<g id="node4" class="node">
<title>Node4</title>
<g id="a_node4"><a xlink:href="_transmitter_code_2src_2main_8cpp.html#ad3cb30894c94eb016e98bdcaa899ac86" target="_top" xlink:title=" ">
<polygon fill="white" stroke="black" points="0,-152.5 0,-171.5 35,-171.5 35,-152.5 0,-152.5"/>
<text text-anchor="middle" x="17.5" y="-159.5" font-family="Helvetica,sans-Serif" font-size="10.00">loop</text>
</a>
</g>
</g>
<!-- Node2&#45;&gt;Node4 -->
<g id="edge6" class="edge">
<title>Node2&#45;&gt;Node4</title>
<path fill="none" stroke="midnightblue" d="M200.03,-233.67C161.27,-237.51 111.24,-237.15 71,-219 49.17,-209.15 32.32,-185.44 24.07,-171.91"/>
<polygon fill="midnightblue" stroke="midnightblue" points="200.59,-237.13 210.14,-232.55 199.81,-230.17 200.59,-237.13"/>
</g>
<!-- Node5 -->
<g id="node5" class="node">
<title>Node5</title>
<g id="a_node5"><a xlink:href="_transmitter_code_2src_2main_8cpp.html#a0e7ca9043d8fa769e8a9290df885e594" target="_top" xlink:title="Get centre as 90 degrees.">
<polygon fill="white" stroke="black" points="76.5,-190.5 76.5,-209.5 162.5,-209.5 162.5,-190.5 76.5,-190.5"/>
<text text-anchor="middle" x="119.5" y="-197.5" font-family="Helvetica,sans-Serif" font-size="10.00">ChannelCentres</text>
</a>
</g>
</g>
<!-- Node2&#45;&gt;Node5 -->
<g id="edge4" class="edge">
<title>Node2&#45;&gt;Node5</title>
<path fill="none" stroke="midnightblue" d="M193.59,-211.88C183.07,-210.17 172.47,-208.45 162.75,-206.87"/>
<polygon fill="midnightblue" stroke="midnightblue" points="193.2,-215.36 203.63,-213.51 194.32,-208.45 193.2,-215.36"/>
</g>
<!-- Node3&#45;&gt;Node4 -->
<g id="edge3" class="edge">
<title>Node3&#45;&gt;Node4</title>
<path fill="none" stroke="midnightblue" d="M84.04,-261.63C79.36,-258.83 74.85,-255.63 71,-252 45.71,-228.19 28.83,-189.47 21.96,-171.6"/>
<polygon fill="midnightblue" stroke="midnightblue" points="82.64,-264.85 93.11,-266.48 85.94,-258.68 82.64,-264.85"/>
</g>
<!-- Node5&#45;&gt;Node4 -->
<g id="edge5" class="edge">
<title>Node5&#45;&gt;Node4</title>
<path fill="none" stroke="midnightblue" d="M83.91,-186.86C67.44,-180.6 48.49,-173.4 35.24,-168.36"/>
<polygon fill="midnightblue" stroke="midnightblue" points="82.67,-190.13 93.27,-190.41 85.16,-183.59 82.67,-190.13"/>
</g>
<!-- Node6&#45;&gt;Node4 -->
<g id="edge19" class="edge">
<title>Node6&#45;&gt;Node4</title>
<path fill="none" stroke="midnightblue" d="M517.29,-152.94C397.88,-155.11 107.63,-160.38 35.13,-161.7"/>
<polygon fill="midnightblue" stroke="midnightblue" points="517.69,-156.43 527.62,-152.75 517.56,-149.43 517.69,-156.43"/>
</g>
<!-- Node7 -->
<g id="node7" class="node">
<title>Node7</title>
<g id="a_node7"><a xlink:href="_transmitter_code_2src_2main_8cpp.html#a804fdbdd5eab4c596bbe8a23eecbe4d5" target="_top" xlink:title=" ">
<polygon fill="white" stroke="black" points="212.5,-76.5 212.5,-95.5 313.5,-95.5 313.5,-76.5 212.5,-76.5"/>
<text text-anchor="middle" x="263" y="-83.5" font-family="Helvetica,sans-Serif" font-size="10.00">ButtonWasPressed</text>
</a>
</g>
</g>
<!-- Node6&#45;&gt;Node7 -->
<g id="edge8" class="edge">
<title>Node6&#45;&gt;Node7</title>
<path fill="none" stroke="midnightblue" d="M518.05,-140.97C459.26,-128.25 363.57,-107.55 307.93,-95.51"/>
<polygon fill="midnightblue" stroke="midnightblue" points="517.35,-144.4 527.87,-143.1 518.83,-137.56 517.35,-144.4"/>
</g>
<!-- Node10 -->
<g id="node10" class="node">
<title>Node10</title>
<g id="a_node10"><a xlink:href="_transmitter_code_2src_2main_8cpp.html#aa61377ec59e711151913086167f2f48f" target="_top" xlink:title=" ">
<polygon fill="white" stroke="black" points="358,-76.5 358,-95.5 492,-95.5 492,-76.5 358,-76.5"/>
<text text-anchor="middle" x="425" y="-83.5" font-family="Helvetica,sans-Serif" font-size="10.00">DisplayCurveAndServoPos</text>
</a>
</g>
</g>
<!-- Node6&#45;&gt;Node10 -->
<g id="edge14" class="edge">
<title>Node6&#45;&gt;Node10</title>
<path fill="none" stroke="midnightblue" d="M544.1,-137.17C529.25,-128.65 509.87,-118.07 492,-110 480.22,-104.68 466.88,-99.65 455.29,-95.59"/>
<polygon fill="midnightblue" stroke="midnightblue" points="542.73,-140.43 553.14,-142.43 546.25,-134.38 542.73,-140.43"/>
</g>
<!-- Node7&#45;&gt;Node4 -->
<g id="edge11" class="edge">
<title>Node7&#45;&gt;Node4</title>
<path fill="none" stroke="midnightblue" d="M221.5,-98.64C167.15,-115.61 73.05,-144.97 35.09,-156.82"/>
<polygon fill="midnightblue" stroke="midnightblue" points="222.66,-101.95 231.16,-95.63 220.57,-95.26 222.66,-101.95"/>
</g>
<!-- Node8 -->
<g id="node8" class="node">
<title>Node8</title>
<g id="a_node8"><a xlink:href="_transmitter_code_2src_2main_8cpp.html#a984cb52354a84c45e9e41f396a1c5e92" target="_top" xlink:title=" ">
<polygon fill="white" stroke="black" points="71,-76.5 71,-95.5 168,-95.5 168,-76.5 71,-76.5"/>
<text text-anchor="middle" x="119.5" y="-83.5" font-family="Helvetica,sans-Serif" font-size="10.00">CheckModelName</text>
</a>
</g>
</g>
<!-- Node7&#45;&gt;Node8 -->
<g id="edge9" class="edge">
<title>Node7&#45;&gt;Node8</title>
<path fill="none" stroke="midnightblue" d="M201.87,-86C190.57,-86 178.89,-86 168.04,-86"/>
<polygon fill="midnightblue" stroke="midnightblue" points="202.11,-89.5 212.11,-86 202.11,-82.5 202.11,-89.5"/>
</g>
<!-- Node9 -->
<g id="node9" class="node">
<title>Node9</title>
<g id="a_node9"><a xlink:href="_transmitter_code_2src_2main_8cpp.html#ab7c9edf843c732d7fe296564f39bc0dc" target="_top" xlink:title="RECEIVE A MODEL FILE.">
<polygon fill="white" stroke="black" points="72.5,-38.5 72.5,-57.5 166.5,-57.5 166.5,-38.5 72.5,-38.5"/>
<text text-anchor="middle" x="119.5" y="-45.5" font-family="Helvetica,sans-Serif" font-size="10.00">ReceiveModelFile</text>
</a>
</g>
</g>
<!-- Node7&#45;&gt;Node9 -->
<g id="edge12" class="edge">
<title>Node7&#45;&gt;Node9</title>
<path fill="none" stroke="midnightblue" d="M234.14,-73.02C214.91,-66.56 188.89,-59.28 166.6,-54.01"/>
<polygon fill="midnightblue" stroke="midnightblue" points="233.2,-76.4 243.79,-76.41 235.51,-69.79 233.2,-76.4"/>
</g>
<!-- Node8&#45;&gt;Node4 -->
<g id="edge10" class="edge">
<title>Node8&#45;&gt;Node4</title>
<path fill="none" stroke="midnightblue" d="M86.86,-100.24C81.39,-103.18 75.9,-106.47 71,-110 53.51,-122.6 36.37,-141.05 26.65,-152.26"/>
<polygon fill="midnightblue" stroke="midnightblue" points="88.59,-103.28 95.91,-95.63 85.42,-97.04 88.59,-103.28"/>
</g>
<!-- Node9&#45;&gt;Node7 -->
<g id="edge13" class="edge">
<title>Node9&#45;&gt;Node7</title>
<path fill="none" stroke="midnightblue" d="M148.41,-60.99C166.55,-67.09 190.73,-73.91 212.11,-79.08"/>
<polygon fill="midnightblue" stroke="midnightblue" points="149.34,-57.61 138.75,-57.61 147.02,-64.22 149.34,-57.61"/>
</g>
<!-- Node10&#45;&gt;Node7 -->
<g id="edge15" class="edge">
<title>Node10&#45;&gt;Node7</title>
<path fill="none" stroke="midnightblue" d="M347.86,-86C336.26,-86 324.55,-86 313.71,-86"/>
<polygon fill="midnightblue" stroke="midnightblue" points="348,-89.5 358,-86 348,-82.5 348,-89.5"/>
</g>
<!-- Node11 -->
<g id="node11" class="node">
<title>Node11</title>
<g id="a_node11"><a xlink:href="_transmitter_code_2src_2main_8cpp.html#adf35f0ced7990f813a783d0ecd33bf64" target="_top" xlink:title=" ">
<polygon fill="white" stroke="black" points="223,-19.5 223,-38.5 303,-38.5 303,-19.5 223,-19.5"/>
<text text-anchor="middle" x="263" y="-26.5" font-family="Helvetica,sans-Serif" font-size="10.00">GetFlightMode</text>
</a>
</g>
</g>
<!-- Node10&#45;&gt;Node11 -->
<g id="edge16" class="edge">
<title>Node10&#45;&gt;Node11</title>
<path fill="none" stroke="midnightblue" d="M387.71,-73.07C358.27,-62.58 317.43,-48.04 290.87,-38.57"/>
<polygon fill="midnightblue" stroke="midnightblue" points="386.62,-76.4 397.22,-76.46 388.97,-69.81 386.62,-76.4"/>
</g>
<!-- Node12 -->
<g id="node12" class="node">
<title>Node12</title>
<g id="a_node12"><a xlink:href="_transmitter_code_2src_2main_8cpp.html#aa144942814b12daf2b2a454c08d29cab" target="_top" xlink:title=" ">
<polygon fill="white" stroke="black" points="79.5,-0.5 79.5,-19.5 159.5,-19.5 159.5,-0.5 79.5,-0.5"/>
<text text-anchor="middle" x="119.5" y="-7.5" font-family="Helvetica,sans-Serif" font-size="10.00">ReadSwitches</text>
</a>
</g>
</g>
<!-- Node11&#45;&gt;Node12 -->
<g id="edge17" class="edge">
<title>Node11&#45;&gt;Node12</title>
<path fill="none" stroke="midnightblue" d="M213,-22.42C195.65,-20.09 176.36,-17.5 159.9,-15.29"/>
<polygon fill="midnightblue" stroke="midnightblue" points="212.58,-25.9 222.96,-23.76 213.51,-18.96 212.58,-25.9"/>
</g>
<!-- Node12&#45;&gt;Node4 -->
<g id="edge18" class="edge">
<title>Node12&#45;&gt;Node4</title>
<path fill="none" stroke="midnightblue" d="M75.56,-25.05C73.94,-26.27 72.41,-27.58 71,-29 35.27,-64.89 23.15,-128.04 19.7,-152.21"/>
<polygon fill="midnightblue" stroke="midnightblue" points="77.54,-27.94 84.22,-19.72 73.87,-21.98 77.54,-27.94"/>
</g>
</g>
</svg>
