<?xml version="1.0" encoding="UTF-8" standalone="no"?>
<!DOCTYPE svg PUBLIC "-//W3C//DTD SVG 1.1//EN"
 "http://www.w3.org/Graphics/SVG/1.1/DTD/svg11.dtd">
<!-- Generated by graphviz version 2.50.0 (20220203.2022)
 -->
<!-- Title: MySbus Pages: 1 -->
<svg width="934pt" height="750pt"
 viewBox="0.00 0.00 934.00 750.00" xmlns="http://www.w3.org/2000/svg" xmlns:xlink="http://www.w3.org/1999/xlink">
<g id="graph0" class="graph" transform="scale(1 1) rotate(0) translate(4 746)">
<title>MySbus</title>
<polygon fill="white" stroke="transparent" points="-4,4 -4,-746 930,-746 930,4 -4,4"/>
<!-- Node1 -->
<g id="node1" class="node">
<title>Node1</title>
<g id="a_node1"><a xlink:title=" ">
<polygon fill="#bfbfbf" stroke="black" points="874,-304.5 874,-323.5 926,-323.5 926,-304.5 874,-304.5"/>
<text text-anchor="middle" x="900" y="-311.5" font-family="Helvetica,sans-Serif" font-size="10.00">MySbus</text>
</a>
</g>
</g>
<!-- Node2 -->
<g id="node2" class="node">
<title>Node2</title>
<g id="a_node2"><a xlink:href="_receiver_code_2src_2main_8cpp.html#a0cbfd712ab3bd8f654bc19400fd704bd" target="_top" xlink:title=" ">
<polygon fill="white" stroke="black" points="739,-674.5 739,-693.5 815,-693.5 815,-674.5 739,-674.5"/>
<text text-anchor="middle" x="777" y="-681.5" font-family="Helvetica,sans-Serif" font-size="10.00">AttachServos</text>
</a>
</g>
</g>
<!-- Node1&#45;&gt;Node2 -->
<g id="edge1" class="edge">
<title>Node1&#45;&gt;Node2</title>
<path fill="none" stroke="midnightblue" d="M897.11,-333.68C890.88,-395.55 869.62,-585.02 838,-637 828.03,-653.39 810.1,-666.29 796.43,-674.4"/>
<polygon fill="midnightblue" stroke="midnightblue" points="900.6,-333.97 898.09,-323.68 893.63,-333.29 900.6,-333.97"/>
</g>
<!-- Node6 -->
<g id="node6" class="node">
<title>Node6</title>
<g id="a_node6"><a xlink:href="_transmitter_code_2src_2main_8cpp.html#a4635a8fc77c9f57fca53a5206cd5e571" target="_top" xlink:title=" ">
<polygon fill="white" stroke="black" points="716,-304.5 716,-323.5 838,-323.5 838,-304.5 716,-304.5"/>
<text text-anchor="middle" x="777" y="-311.5" font-family="Helvetica,sans-Serif" font-size="10.00">GetSlaveChannelValues</text>
</a>
</g>
</g>
<!-- Node1&#45;&gt;Node6 -->
<g id="edge5" class="edge">
<title>Node1&#45;&gt;Node6</title>
<path fill="none" stroke="midnightblue" d="M863.83,-314C855.78,-314 847,-314 838.23,-314"/>
<polygon fill="midnightblue" stroke="midnightblue" points="863.93,-317.5 873.93,-314 863.93,-310.5 863.93,-317.5"/>
</g>
<!-- Node19 -->
<g id="node19" class="node">
<title>Node19</title>
<g id="a_node19"><a xlink:href="_transmitter_code_2src_2main_8cpp.html#a4fc01d736fe50cf5b977f755b675f11d" target="_top" xlink:title=" ">
<polygon fill="white" stroke="black" points="241.5,-114.5 241.5,-133.5 282.5,-133.5 282.5,-114.5 241.5,-114.5"/>
<text text-anchor="middle" x="262" y="-121.5" font-family="Helvetica,sans-Serif" font-size="10.00">setup</text>
</a>
</g>
</g>
<!-- Node1&#45;&gt;Node19 -->
<g id="edge54" class="edge">
<title>Node1&#45;&gt;Node19</title>
<path fill="none" stroke="midnightblue" d="M891.37,-294.97C865.59,-234.08 775.42,-48 636.5,-48 636.5,-48 636.5,-48 517,-48 425.4,-48 322.73,-93.92 281.55,-114.37"/>
<polygon fill="midnightblue" stroke="midnightblue" points="888.14,-296.31 895.2,-304.22 894.61,-293.64 888.14,-296.31"/>
</g>
<!-- Node27 -->
<g id="node27" class="node">
<title>Node27</title>
<g id="a_node27"><a xlink:href="_transmitter_code_2src_2main_8cpp.html#a6a495c5560f12cc3fd3df9454927d681" target="_top" xlink:title=" ">
<polygon fill="white" stroke="black" points="740,-0.5 740,-19.5 814,-19.5 814,-0.5 740,-0.5"/>
<text text-anchor="middle" x="777" y="-7.5" font-family="Helvetica,sans-Serif" font-size="10.00">MapToSBUS</text>
</a>
</g>
</g>
<!-- Node1&#45;&gt;Node27 -->
<g id="edge43" class="edge">
<title>Node1&#45;&gt;Node27</title>
<path fill="none" stroke="midnightblue" d="M897.07,-294.01C891.18,-236.79 871.75,-73.88 838,-34 831.84,-26.72 823.15,-21.63 814.3,-18.08"/>
<polygon fill="midnightblue" stroke="midnightblue" points="893.62,-294.66 898.1,-304.26 900.58,-293.96 893.62,-294.66"/>
</g>
<!-- Node28 -->
<g id="node28" class="node">
<title>Node28</title>
<g id="a_node28"><a xlink:href="_receiver_code_2src_2main_8cpp.html#a6f2443a0666140cf4d8b7352bb3b793c" target="_top" xlink:title=" ">
<polygon fill="white" stroke="black" points="741.5,-608.5 741.5,-627.5 812.5,-627.5 812.5,-608.5 741.5,-608.5"/>
<text text-anchor="middle" x="777" y="-615.5" font-family="Helvetica,sans-Serif" font-size="10.00">MoveServos</text>
</a>
</g>
</g>
<!-- Node1&#45;&gt;Node28 -->
<g id="edge44" class="edge">
<title>Node1&#45;&gt;Node28</title>
<path fill="none" stroke="midnightblue" d="M891.32,-333.29C868.05,-391.76 798.84,-565.65 781.81,-608.42"/>
<polygon fill="midnightblue" stroke="midnightblue" points="894.66,-334.36 895.11,-323.77 888.16,-331.77 894.66,-334.36"/>
</g>
<!-- Node3 -->
<g id="node3" class="node">
<title>Node3</title>
<g id="a_node3"><a xlink:href="_receiver_code_2src_2main_8cpp.html#aa0c6905579a33aef28d737d43676cbbd" target="_top" xlink:title=" ">
<polygon fill="white" stroke="black" points="604.5,-722.5 604.5,-741.5 666.5,-741.5 666.5,-722.5 604.5,-722.5"/>
<text text-anchor="middle" x="635.5" y="-729.5" font-family="Helvetica,sans-Serif" font-size="10.00">BindModel</text>
</a>
</g>
</g>
<!-- Node2&#45;&gt;Node3 -->
<g id="edge2" class="edge">
<title>Node2&#45;&gt;Node3</title>
<path fill="none" stroke="midnightblue" d="M738.52,-696.9C715.17,-704.93 685.62,-715.1 664.35,-722.42"/>
<polygon fill="midnightblue" stroke="midnightblue" points="739.79,-700.16 748.11,-693.6 737.51,-693.54 739.79,-700.16"/>
</g>
<!-- Node4 -->
<g id="node4" class="node">
<title>Node4</title>
<g id="a_node4"><a xlink:href="_receiver_code_2src_2main_8cpp.html#af4a2e182cd3b86ca9765a08100cfb14a" target="_top" xlink:title=" ">
<polygon fill="white" stroke="black" points="487.5,-722.5 487.5,-741.5 548.5,-741.5 548.5,-722.5 487.5,-722.5"/>
<text text-anchor="middle" x="518" y="-729.5" font-family="Helvetica,sans-Serif" font-size="10.00">DoBinding</text>
</a>
</g>
</g>
<!-- Node3&#45;&gt;Node4 -->
<g id="edge3" class="edge">
<title>Node3&#45;&gt;Node4</title>
<path fill="none" stroke="midnightblue" d="M594.44,-732C579.48,-732 562.78,-732 548.89,-732"/>
<polygon fill="midnightblue" stroke="midnightblue" points="594.46,-735.5 604.46,-732 594.46,-728.5 594.46,-735.5"/>
</g>
<!-- Node5 -->
<g id="node5" class="node">
<title>Node5</title>
<g id="a_node5"><a xlink:href="_receiver_code_2src_2main_8cpp.html#afe461d27b9c48d5921c00d521181f12f" target="_top" xlink:title=" ">
<polygon fill="white" stroke="black" points="244.5,-684.5 244.5,-703.5 279.5,-703.5 279.5,-684.5 244.5,-684.5"/>
<text text-anchor="middle" x="262" y="-691.5" font-family="Helvetica,sans-Serif" font-size="10.00">loop</text>
</a>
</g>
</g>
<!-- Node4&#45;&gt;Node5 -->
<g id="edge4" class="edge">
<title>Node4&#45;&gt;Node5</title>
<path fill="none" stroke="midnightblue" d="M477.19,-726.79C442.29,-722.15 390.23,-715.01 345,-708 322.31,-704.48 296.17,-699.93 279.62,-696.99"/>
<polygon fill="midnightblue" stroke="midnightblue" points="477.06,-730.31 487.44,-728.15 477.98,-723.37 477.06,-730.31"/>
</g>
<!-- Node7 -->
<g id="node7" class="node">
<title>Node7</title>
<g id="a_node7"><a xlink:href="_radio_functions_8cpp.html#a3d7322e78f097d02d476f17a6306997c" target="_top" xlink:title=" ">
<polygon fill="white" stroke="black" points="606,-304.5 606,-323.5 665,-323.5 665,-304.5 606,-304.5"/>
<text text-anchor="middle" x="635.5" y="-311.5" font-family="Helvetica,sans-Serif" font-size="10.00">SendData</text>
</a>
</g>
</g>
<!-- Node6&#45;&gt;Node7 -->
<g id="edge6" class="edge">
<title>Node6&#45;&gt;Node7</title>
<path fill="none" stroke="midnightblue" d="M705.3,-314C691.08,-314 676.92,-314 665.17,-314"/>
<polygon fill="midnightblue" stroke="midnightblue" points="705.62,-317.5 715.62,-314 705.62,-310.5 705.62,-317.5"/>
</g>
<!-- Node8 -->
<g id="node8" class="node">
<title>Node8</title>
<g id="a_node8"><a xlink:href="_transmitter_code_2src_2main_8cpp.html#afe461d27b9c48d5921c00d521181f12f" target="_top" xlink:title=" ">
<polygon fill="white" stroke="black" points="0,-418.5 0,-437.5 35,-437.5 35,-418.5 0,-418.5"/>
<text text-anchor="middle" x="17.5" y="-425.5" font-family="Helvetica,sans-Serif" font-size="10.00">loop</text>
</a>
</g>
</g>
<!-- Node7&#45;&gt;Node8 -->
<g id="edge7" class="edge">
<title>Node7&#45;&gt;Node8</title>
<path fill="none" stroke="midnightblue" d="M625.93,-332.66C603.72,-378.46 539.42,-495.99 445,-542 294.8,-615.18 206.49,-601.76 71,-504 46.55,-486.36 29.7,-453.64 22.47,-437.5"/>
<polygon fill="midnightblue" stroke="midnightblue" points="629.12,-334.1 630.24,-323.57 622.79,-331.1 629.12,-334.1"/>
</g>
<!-- Node9 -->
<g id="node9" class="node">
<title>Node9</title>
<g id="a_node9"><a xlink:href="_radio_functions_8cpp.html#a760609a682300dfe6bfaac737fd4d5eb" target="_top" xlink:title=" ">
<polygon fill="white" stroke="black" points="481,-304.5 481,-323.5 555,-323.5 555,-304.5 481,-304.5"/>
<text text-anchor="middle" x="518" y="-311.5" font-family="Helvetica,sans-Serif" font-size="10.00">Procrastinate</text>
</a>
</g>
</g>
<!-- Node7&#45;&gt;Node9 -->
<g id="edge8" class="edge">
<title>Node7&#45;&gt;Node9</title>
<path fill="none" stroke="midnightblue" d="M595.79,-314C582.65,-314 568.02,-314 555.09,-314"/>
<polygon fill="midnightblue" stroke="midnightblue" points="595.95,-317.5 605.95,-314 595.95,-310.5 595.95,-317.5"/>
</g>
<!-- Node10 -->
<g id="node10" class="node">
<title>Node10</title>
<g id="a_node10"><a xlink:href="_transmitter_code_2src_2main_8cpp.html#aed6c682ed45951f95e0b02cf6b570da2" target="_top" xlink:title=" ">
<polygon fill="white" stroke="black" points="71,-418.5 71,-437.5 179,-437.5 179,-418.5 71,-418.5"/>
<text text-anchor="middle" x="125" y="-425.5" font-family="Helvetica,sans-Serif" font-size="10.00">Button_was_pressed</text>
</a>
</g>
</g>
<!-- Node9&#45;&gt;Node10 -->
<g id="edge9" class="edge">
<title>Node9&#45;&gt;Node10</title>
<path fill="none" stroke="midnightblue" d="M491.46,-328.52C477.97,-335.74 460.94,-344.15 445,-350 394.55,-368.51 245.44,-402.05 170.32,-418.45"/>
<polygon fill="midnightblue" stroke="midnightblue" points="493.5,-331.4 500.6,-323.53 490.14,-325.26 493.5,-331.4"/>
</g>
<!-- Node11 -->
<g id="node11" class="node">
<title>Node11</title>
<g id="a_node11"><a xlink:href="_transmitter_code_2src_2main_8cpp.html#ad7b8aa834c87265667a5687b1787a1cc" target="_top" xlink:title=" ">
<polygon fill="white" stroke="black" points="367,-418.5 367,-437.5 423,-437.5 423,-418.5 367,-418.5"/>
<text text-anchor="middle" x="395" y="-425.5" font-family="Helvetica,sans-Serif" font-size="10.00">EndSend</text>
</a>
</g>
</g>
<!-- Node9&#45;&gt;Node11 -->
<g id="edge11" class="edge">
<title>Node9&#45;&gt;Node11</title>
<path fill="none" stroke="midnightblue" d="M505.94,-332.2C493.22,-351.93 470.76,-383.35 445,-404 437.76,-409.81 428.88,-414.68 420.68,-418.49"/>
<polygon fill="midnightblue" stroke="midnightblue" points="509.02,-333.89 511.37,-323.56 503.09,-330.16 509.02,-333.89"/>
</g>
<!-- Node16 -->
<g id="node16" class="node">
<title>Node16</title>
<g id="a_node16"><a xlink:href="_transmitter_code_2src_2main_8cpp.html#acd96c3022716bba17005df2e6b3d0ed6" target="_top" xlink:title=" ">
<polygon fill="white" stroke="black" points="82,-190.5 82,-209.5 168,-209.5 168,-190.5 82,-190.5"/>
<text text-anchor="middle" x="125" y="-197.5" font-family="Helvetica,sans-Serif" font-size="10.00">GetButtonPress</text>
</a>
</g>
</g>
<!-- Node9&#45;&gt;Node16 -->
<g id="edge19" class="edge">
<title>Node9&#45;&gt;Node16</title>
<path fill="none" stroke="midnightblue" d="M508.75,-294.99C497.81,-272.39 476.18,-235.67 445,-219 355.95,-171.4 232.28,-181.88 168.23,-191.91"/>
<polygon fill="midnightblue" stroke="midnightblue" points="505.65,-296.63 513.02,-304.25 512.01,-293.7 505.65,-296.63"/>
</g>
<!-- Node17 -->
<g id="node17" class="node">
<title>Node17</title>
<g id="a_node17"><a xlink:href="_transmitter_code_2src_2main_8cpp.html#a6fe457db5d6bc71ccb447dee824abf6a" target="_top" xlink:title=" ">
<polygon fill="white" stroke="black" points="365.5,-456.5 365.5,-475.5 424.5,-475.5 424.5,-456.5 365.5,-456.5"/>
<text text-anchor="middle" x="395" y="-463.5" font-family="Helvetica,sans-Serif" font-size="10.00">GetTextIn</text>
</a>
</g>
</g>
<!-- Node9&#45;&gt;Node17 -->
<g id="edge21" class="edge">
<title>Node9&#45;&gt;Node17</title>
<path fill="none" stroke="midnightblue" d="M511.25,-333.52C501.86,-362.17 480.64,-415.6 445,-447 439.18,-452.13 431.82,-455.94 424.59,-458.76"/>
<polygon fill="midnightblue" stroke="midnightblue" points="514.63,-334.44 514.27,-323.85 507.94,-332.35 514.63,-334.44"/>
</g>
<!-- Node18 -->
<g id="node18" class="node">
<title>Node18</title>
<g id="a_node18"><a xlink:href="_radio_functions_8cpp.html#a86ce6c54618629a61b8502786d2ce82c" target="_top" xlink:title=" ">
<polygon fill="white" stroke="black" points="367.5,-114.5 367.5,-133.5 422.5,-133.5 422.5,-114.5 367.5,-114.5"/>
<text text-anchor="middle" x="395" y="-121.5" font-family="Helvetica,sans-Serif" font-size="10.00">InitRadio</text>
</a>
</g>
</g>
<!-- Node9&#45;&gt;Node18 -->
<g id="edge25" class="edge">
<title>Node9&#45;&gt;Node18</title>
<path fill="none" stroke="midnightblue" d="M513.9,-294.49C507.37,-259.49 488.98,-185.74 445,-143 438.85,-137.02 430.61,-132.87 422.64,-130.02"/>
<polygon fill="midnightblue" stroke="midnightblue" points="510.47,-295.14 515.63,-304.4 517.36,-293.95 510.47,-295.14"/>
</g>
<!-- Node20 -->
<g id="node20" class="node">
<title>Node20</title>
<g id="a_node20"><a xlink:href="_transmitter_code_2src_2main_8cpp.html#a909acb7ed667a5cc9c4ec6191fc33e75" target="_top" xlink:title=" ">
<polygon fill="white" stroke="black" points="345,-152.5 345,-171.5 445,-171.5 445,-152.5 345,-152.5"/>
<text text-anchor="middle" x="395" y="-159.5" font-family="Helvetica,sans-Serif" font-size="10.00">LoadAllParameters</text>
</a>
</g>
</g>
<!-- Node9&#45;&gt;Node20 -->
<g id="edge27" class="edge">
<title>Node9&#45;&gt;Node20</title>
<path fill="none" stroke="midnightblue" d="M510.42,-294.83C500.21,-267.55 478.22,-217.38 445,-186 438.66,-180.02 430.55,-175.23 422.76,-171.56"/>
<polygon fill="midnightblue" stroke="midnightblue" points="507.18,-296.16 513.86,-304.38 513.76,-293.79 507.18,-296.16"/>
</g>
<!-- Node21 -->
<g id="node21" class="node">
<title>Node21</title>
<g id="a_node21"><a xlink:href="_transmitter_code_2src_2main_8cpp.html#ab7c9edf843c732d7fe296564f39bc0dc" target="_top" xlink:title="RECEIVE A MODEL FILE.">
<polygon fill="white" stroke="black" points="215,-304.5 215,-323.5 309,-323.5 309,-304.5 215,-304.5"/>
<text text-anchor="middle" x="262" y="-311.5" font-family="Helvetica,sans-Serif" font-size="10.00">ReceiveModelFile</text>
</a>
</g>
</g>
<!-- Node9&#45;&gt;Node21 -->
<g id="edge29" class="edge">
<title>Node9&#45;&gt;Node21</title>
<path fill="none" stroke="midnightblue" d="M470.63,-314C424.82,-314 355.14,-314 309.34,-314"/>
<polygon fill="midnightblue" stroke="midnightblue" points="470.88,-317.5 480.88,-314 470.88,-310.5 470.88,-317.5"/>
</g>
<!-- Node22 -->
<g id="node22" class="node">
<title>Node22</title>
<g id="a_node22"><a xlink:href="_transmitter_code_2src_2main_8cpp.html#a58c67a975068930341f0663e0a08c9d3" target="_top" xlink:title="SEND A MODEL FILE.">
<polygon fill="white" stroke="black" points="221.5,-266.5 221.5,-285.5 302.5,-285.5 302.5,-266.5 221.5,-266.5"/>
<text text-anchor="middle" x="262" y="-273.5" font-family="Helvetica,sans-Serif" font-size="10.00">SendModelFile</text>
</a>
</g>
</g>
<!-- Node9&#45;&gt;Node22 -->
<g id="edge31" class="edge">
<title>Node9&#45;&gt;Node22</title>
<path fill="none" stroke="midnightblue" d="M470.75,-307.08C422.69,-299.89 348.27,-288.76 302.76,-281.95"/>
<polygon fill="midnightblue" stroke="midnightblue" points="470.47,-310.58 480.88,-308.6 471.51,-303.65 470.47,-310.58"/>
</g>
<!-- Node23 -->
<g id="node23" class="node">
<title>Node23</title>
<g id="a_node23"><a xlink:href="_transmitter_code_2src_2main_8cpp.html#acbd0460ea44a7d07e4d77878411febb4" target="_top" xlink:title=" ">
<polygon fill="white" stroke="black" points="216,-342.5 216,-361.5 308,-361.5 308,-342.5 216,-342.5"/>
<text text-anchor="middle" x="262" y="-349.5" font-family="Helvetica,sans-Serif" font-size="10.00">SetDefaultValues</text>
</a>
</g>
</g>
<!-- Node9&#45;&gt;Node23 -->
<g id="edge33" class="edge">
<title>Node9&#45;&gt;Node23</title>
<path fill="none" stroke="midnightblue" d="M470.92,-323.39C462.32,-325.02 453.4,-326.63 445,-328 398.6,-335.56 345.25,-342.38 308.36,-346.8"/>
<polygon fill="midnightblue" stroke="midnightblue" points="471.66,-326.81 480.82,-321.48 470.34,-319.94 471.66,-326.81"/>
</g>
<!-- Node24 -->
<g id="node24" class="node">
<title>Node24</title>
<g id="a_node24"><a xlink:href="_radio_functions_8cpp.html#a70dc6f8d2e5ccef6b8e4a2b9b0afb2ce" target="_top" xlink:title=" ">
<polygon fill="white" stroke="black" points="361,-228.5 361,-247.5 429,-247.5 429,-228.5 361,-228.5"/>
<text text-anchor="middle" x="395" y="-235.5" font-family="Helvetica,sans-Serif" font-size="10.00">SetThePipe</text>
</a>
</g>
</g>
<!-- Node9&#45;&gt;Node24 -->
<g id="edge35" class="edge">
<title>Node9&#45;&gt;Node24</title>
<path fill="none" stroke="midnightblue" d="M496.93,-298.09C482.83,-287.27 463.28,-272.97 445,-262 436.23,-256.74 426.14,-251.64 417.4,-247.51"/>
<polygon fill="midnightblue" stroke="midnightblue" points="494.91,-300.95 504.95,-304.32 499.2,-295.42 494.91,-300.95"/>
</g>
<!-- Node26 -->
<g id="node26" class="node">
<title>Node26</title>
<g id="a_node26"><a xlink:href="_transmitter_code_2src_2main_8cpp.html#a1e7673fa1ef97d68711edd0da2abed9b" target="_top" xlink:title=" ">
<polygon fill="white" stroke="black" points="347,-513.5 347,-532.5 443,-532.5 443,-513.5 347,-513.5"/>
<text text-anchor="middle" x="395" y="-520.5" font-family="Helvetica,sans-Serif" font-size="10.00">ShowFileErrorMsg</text>
</a>
</g>
</g>
<!-- Node9&#45;&gt;Node26 -->
<g id="edge41" class="edge">
<title>Node9&#45;&gt;Node26</title>
<path fill="none" stroke="midnightblue" d="M512.23,-333.74C503.37,-367.43 481.84,-437.03 445,-485 436.08,-496.61 422.81,-506.61 412.33,-513.43"/>
<polygon fill="midnightblue" stroke="midnightblue" points="515.69,-334.33 514.76,-323.78 508.91,-332.61 515.69,-334.33"/>
</g>
<!-- Node10&#45;&gt;Node8 -->
<g id="edge10" class="edge">
<title>Node10&#45;&gt;Node8</title>
<path fill="none" stroke="midnightblue" d="M60.7,-428C51.38,-428 42.51,-428 35.33,-428"/>
<polygon fill="midnightblue" stroke="midnightblue" points="60.94,-431.5 70.94,-428 60.94,-424.5 60.94,-431.5"/>
</g>
<!-- Node12 -->
<g id="node12" class="node">
<title>Node12</title>
<g id="a_node12"><a xlink:href="_transmitter_code_2src_2main_8cpp.html#ac8919b32f9c38cc65c7b93cae664acfb" target="_top" xlink:title=" ">
<polygon fill="white" stroke="black" points="221.5,-456.5 221.5,-475.5 302.5,-475.5 302.5,-456.5 221.5,-456.5"/>
<text text-anchor="middle" x="262" y="-463.5" font-family="Helvetica,sans-Serif" font-size="10.00">GetOtherValue</text>
</a>
</g>
</g>
<!-- Node11&#45;&gt;Node12 -->
<g id="edge12" class="edge">
<title>Node11&#45;&gt;Node12</title>
<path fill="none" stroke="midnightblue" d="M357.25,-438.66C338.06,-444.23 314.78,-450.98 296.15,-456.38"/>
<polygon fill="midnightblue" stroke="midnightblue" points="358.23,-442.02 366.86,-435.87 356.28,-435.3 358.23,-442.02"/>
</g>
<!-- Node13 -->
<g id="node13" class="node">
<title>Node13</title>
<g id="a_node13"><a xlink:href="_transmitter_code_2src_2main_8cpp.html#a8e271ca29dc3c90bcf0e465b41bd71ff" target="_top" xlink:title=" ">
<polygon fill="white" stroke="black" points="236.5,-418.5 236.5,-437.5 287.5,-437.5 287.5,-418.5 236.5,-418.5"/>
<text text-anchor="middle" x="262" y="-425.5" font-family="Helvetica,sans-Serif" font-size="10.00">GetText</text>
</a>
</g>
</g>
<!-- Node11&#45;&gt;Node13 -->
<g id="edge14" class="edge">
<title>Node11&#45;&gt;Node13</title>
<path fill="none" stroke="midnightblue" d="M356.82,-428C334.75,-428 307.37,-428 287.89,-428"/>
<polygon fill="midnightblue" stroke="midnightblue" points="356.86,-431.5 366.86,-428 356.86,-424.5 356.86,-431.5"/>
</g>
<!-- Node14 -->
<g id="node14" class="node">
<title>Node14</title>
<g id="a_node14"><a xlink:href="_transmitter_code_2src_2main_8cpp.html#ad957c44f88874b35bd11323a86408e59" target="_top" xlink:title=" ">
<polygon fill="white" stroke="black" points="233.5,-494.5 233.5,-513.5 290.5,-513.5 290.5,-494.5 233.5,-494.5"/>
<text text-anchor="middle" x="262" y="-501.5" font-family="Helvetica,sans-Serif" font-size="10.00">GetValue</text>
</a>
</g>
</g>
<!-- Node11&#45;&gt;Node14 -->
<g id="edge15" class="edge">
<title>Node11&#45;&gt;Node14</title>
<path fill="none" stroke="midnightblue" d="M357.31,-440.13C353.01,-442.16 348.81,-444.44 345,-447 325.68,-459.97 328.17,-471.82 309,-485 303.45,-488.82 297.01,-492.07 290.73,-494.75"/>
<polygon fill="midnightblue" stroke="midnightblue" points="358.91,-443.26 366.75,-436.12 356.18,-436.81 358.91,-443.26"/>
</g>
<!-- Node12&#45;&gt;Node10 -->
<g id="edge13" class="edge">
<title>Node12&#45;&gt;Node10</title>
<path fill="none" stroke="midnightblue" d="M217.24,-453.68C198.69,-448.46 177.4,-442.47 160.06,-437.59"/>
<polygon fill="midnightblue" stroke="midnightblue" points="216.36,-457.07 226.93,-456.41 218.26,-450.33 216.36,-457.07"/>
</g>
<!-- Node14&#45;&gt;Node10 -->
<g id="edge16" class="edge">
<title>Node14&#45;&gt;Node10</title>
<path fill="none" stroke="midnightblue" d="M226.02,-490.32C222.26,-488.62 218.52,-486.84 215,-485 187.02,-470.41 156.46,-449.69 139.42,-437.67"/>
<polygon fill="midnightblue" stroke="midnightblue" points="224.75,-493.59 235.32,-494.34 227.53,-487.16 224.75,-493.59"/>
</g>
<!-- Node15 -->
<g id="node15" class="node">
<title>Node15</title>
<g id="a_node15"><a xlink:href="_transmitter_code_2src_2main_8cpp.html#a984cb52354a84c45e9e41f396a1c5e92" target="_top" xlink:title=" ">
<polygon fill="white" stroke="black" points="76.5,-475.5 76.5,-494.5 173.5,-494.5 173.5,-475.5 76.5,-475.5"/>
<text text-anchor="middle" x="125" y="-482.5" font-family="Helvetica,sans-Serif" font-size="10.00">CheckModelName</text>
</a>
</g>
</g>
<!-- Node14&#45;&gt;Node15 -->
<g id="edge17" class="edge">
<title>Node14&#45;&gt;Node15</title>
<path fill="none" stroke="midnightblue" d="M223.16,-498.67C207.77,-496.51 189.82,-493.98 173.56,-491.69"/>
<polygon fill="midnightblue" stroke="midnightblue" points="222.96,-502.18 233.35,-500.11 223.94,-495.25 222.96,-502.18"/>
</g>
<!-- Node15&#45;&gt;Node8 -->
<g id="edge18" class="edge">
<title>Node15&#45;&gt;Node8</title>
<path fill="none" stroke="midnightblue" d="M97.08,-470.46C77.53,-459.89 51.7,-445.94 35.09,-436.96"/>
<polygon fill="midnightblue" stroke="midnightblue" points="95.64,-473.66 106.1,-475.33 98.97,-467.5 95.64,-473.66"/>
</g>
<!-- Node16&#45;&gt;Node8 -->
<g id="edge20" class="edge">
<title>Node16&#45;&gt;Node8</title>
<path fill="none" stroke="midnightblue" d="M82.09,-214.42C77.95,-217.11 74.12,-220.28 71,-224 20.66,-283.92 17.8,-386.22 18.21,-418.17"/>
<polygon fill="midnightblue" stroke="midnightblue" points="83.88,-217.43 90.94,-209.53 80.49,-211.3 83.88,-217.43"/>
</g>
<!-- Node17&#45;&gt;Node12 -->
<g id="edge22" class="edge">
<title>Node17&#45;&gt;Node12</title>
<path fill="none" stroke="midnightblue" d="M354.85,-466C338.35,-466 319.16,-466 302.61,-466"/>
<polygon fill="midnightblue" stroke="midnightblue" points="355.25,-469.5 365.25,-466 355.25,-462.5 355.25,-469.5"/>
</g>
<!-- Node17&#45;&gt;Node13 -->
<g id="edge23" class="edge">
<title>Node17&#45;&gt;Node13</title>
<path fill="none" stroke="midnightblue" d="M355.57,-454.85C333.66,-448.5 306.84,-440.72 287.71,-435.17"/>
<polygon fill="midnightblue" stroke="midnightblue" points="354.67,-458.24 365.25,-457.66 356.62,-451.51 354.67,-458.24"/>
</g>
<!-- Node17&#45;&gt;Node14 -->
<g id="edge24" class="edge">
<title>Node17&#45;&gt;Node14</title>
<path fill="none" stroke="midnightblue" d="M355.47,-477.18C334.72,-483.2 309.6,-490.48 290.78,-495.94"/>
<polygon fill="midnightblue" stroke="midnightblue" points="356.62,-480.49 365.25,-474.34 354.67,-473.76 356.62,-480.49"/>
</g>
<!-- Node18&#45;&gt;Node19 -->
<g id="edge26" class="edge">
<title>Node18&#45;&gt;Node19</title>
<path fill="none" stroke="midnightblue" d="M357.23,-124C333.03,-124 302.31,-124 282.65,-124"/>
<polygon fill="midnightblue" stroke="midnightblue" points="357.49,-127.5 367.49,-124 357.49,-120.5 357.49,-127.5"/>
</g>
<!-- Node20&#45;&gt;Node19 -->
<g id="edge28" class="edge">
<title>Node20&#45;&gt;Node19</title>
<path fill="none" stroke="midnightblue" d="M351.33,-149.62C328.19,-142.91 300.7,-134.94 282.6,-129.69"/>
<polygon fill="midnightblue" stroke="midnightblue" points="350.36,-152.99 360.94,-152.41 352.31,-146.26 350.36,-152.99"/>
</g>
<!-- Node21&#45;&gt;Node10 -->
<g id="edge30" class="edge">
<title>Node21&#45;&gt;Node10</title>
<path fill="none" stroke="midnightblue" d="M223.11,-328.08C220.28,-329.6 217.55,-331.24 215,-333 178.93,-357.93 146.42,-399.63 132.79,-418.37"/>
<polygon fill="midnightblue" stroke="midnightblue" points="224.8,-331.15 232.28,-323.64 221.76,-324.84 224.8,-331.15"/>
</g>
<!-- Node22&#45;&gt;Node10 -->
<g id="edge32" class="edge">
<title>Node22&#45;&gt;Node10</title>
<path fill="none" stroke="midnightblue" d="M221.38,-290.47C219.14,-291.86 216.99,-293.37 215,-295 171.16,-330.92 140.67,-394.05 130.1,-418.21"/>
<polygon fill="midnightblue" stroke="midnightblue" points="223.2,-293.47 230.37,-285.67 219.9,-287.3 223.2,-293.47"/>
</g>
<!-- Node23&#45;&gt;Node10 -->
<g id="edge34" class="edge">
<title>Node23&#45;&gt;Node10</title>
<path fill="none" stroke="midnightblue" d="M233.03,-366.32C227.05,-369.46 220.79,-372.8 215,-376 189.16,-390.28 159.65,-407.75 141.95,-418.37"/>
<polygon fill="midnightblue" stroke="midnightblue" points="234.84,-369.33 242.09,-361.61 231.61,-363.12 234.84,-369.33"/>
</g>
<!-- Node24&#45;&gt;Node8 -->
<g id="edge36" class="edge">
<title>Node24&#45;&gt;Node8</title>
<path fill="none" stroke="midnightblue" d="M350.74,-235.46C313.29,-234.9 258.47,-238.06 215,-257 126.69,-295.48 49.3,-388.31 25.8,-418.4"/>
<polygon fill="midnightblue" stroke="midnightblue" points="350.74,-238.96 360.82,-235.71 350.91,-231.96 350.74,-238.96"/>
</g>
<!-- Node24&#45;&gt;Node21 -->
<g id="edge37" class="edge">
<title>Node24&#45;&gt;Node21</title>
<path fill="none" stroke="midnightblue" d="M373.06,-253.76C356.29,-265.95 331.87,-282.77 309,-295 302.6,-298.42 295.45,-301.65 288.73,-304.43"/>
<polygon fill="midnightblue" stroke="midnightblue" points="375.56,-256.27 381.54,-247.52 371.41,-250.63 375.56,-256.27"/>
</g>
<!-- Node24&#45;&gt;Node22 -->
<g id="edge38" class="edge">
<title>Node24&#45;&gt;Node22</title>
<path fill="none" stroke="midnightblue" d="M351.29,-250.39C333.35,-255.59 312.8,-261.55 296.05,-266.41"/>
<polygon fill="midnightblue" stroke="midnightblue" points="352.31,-253.74 360.94,-247.59 350.36,-247.01 352.31,-253.74"/>
</g>
<!-- Node25 -->
<g id="node25" class="node">
<title>Node25</title>
<g id="a_node25"><a xlink:href="_radio_functions_8cpp.html#a7051e235b8f694c6b01bb5edf3925dc7" target="_top" xlink:title=" ">
<polygon fill="white" stroke="black" points="225,-152.5 225,-171.5 299,-171.5 299,-152.5 225,-152.5"/>
<text text-anchor="middle" x="262" y="-159.5" font-family="Helvetica,sans-Serif" font-size="10.00">TryOtherPipe</text>
</a>
</g>
</g>
<!-- Node24&#45;&gt;Node25 -->
<g id="edge39" class="edge">
<title>Node24&#45;&gt;Node25</title>
<path fill="none" stroke="midnightblue" d="M368.74,-223.35C342.41,-208.07 301.93,-184.58 279.46,-171.55"/>
<polygon fill="midnightblue" stroke="midnightblue" points="367,-226.38 377.41,-228.37 370.52,-220.33 367,-226.38"/>
</g>
<!-- Node25&#45;&gt;Node7 -->
<g id="edge40" class="edge">
<title>Node25&#45;&gt;Node7</title>
<path fill="none" stroke="midnightblue" d="M300.88,-147.9C303.71,-146.39 306.45,-144.75 309,-143 328.17,-129.82 323.63,-114.19 345,-105 385.83,-87.44 404.37,-86.99 445,-105 542.62,-148.26 611.4,-269.4 629.67,-304.41"/>
<polygon fill="midnightblue" stroke="midnightblue" points="299.19,-144.84 291.7,-152.34 302.23,-151.14 299.19,-144.84"/>
</g>
<!-- Node26&#45;&gt;Node10 -->
<g id="edge42" class="edge">
<title>Node26&#45;&gt;Node10</title>
<path fill="none" stroke="midnightblue" d="M348.27,-534.59C310.19,-541.64 255.8,-545.49 215,-523 188.76,-508.54 199.56,-487.8 179,-466 168.28,-454.63 153.72,-444.48 142.57,-437.53"/>
<polygon fill="midnightblue" stroke="midnightblue" points="349.44,-537.92 358.56,-532.53 348.06,-531.06 349.44,-537.92"/>
</g>
<!-- Node28&#45;&gt;Node5 -->
<g id="edge53" class="edge">
<title>Node28&#45;&gt;Node5</title>
<path fill="none" stroke="midnightblue" d="M747.52,-631.77C728.78,-640.2 703.46,-650.41 680,-656 527.61,-692.31 336.29,-694.42 279.57,-694.17"/>
<polygon fill="midnightblue" stroke="midnightblue" points="749.06,-634.92 756.68,-627.56 746.13,-628.56 749.06,-634.92"/>
</g>
<!-- Node29 -->
<g id="node29" class="node">
<title>Node29</title>
<g id="a_node29"><a xlink:href="_receiver_code_2src_2main_8cpp.html#a42318598726782ebb2e1857f167c8cda" target="_top" xlink:title=" ">
<polygon fill="white" stroke="black" points="609,-589.5 609,-608.5 662,-608.5 662,-589.5 609,-589.5"/>
<text text-anchor="middle" x="635.5" y="-596.5" font-family="Helvetica,sans-Serif" font-size="10.00">FailSafe</text>
</a>
</g>
</g>
<!-- Node28&#45;&gt;Node29 -->
<g id="edge45" class="edge">
<title>Node28&#45;&gt;Node29</title>
<path fill="none" stroke="midnightblue" d="M731.01,-611.87C708.22,-608.77 681.38,-605.11 662.14,-602.49"/>
<polygon fill="midnightblue" stroke="midnightblue" points="730.78,-615.37 741.16,-613.25 731.72,-608.44 730.78,-615.37"/>
</g>
<!-- Node32 -->
<g id="node32" class="node">
<title>Node32</title>
<g id="a_node32"><a xlink:href="radio_8h.html#a6f74cdb7b32a3aa9e9342661bd44ad1a" target="_top" xlink:title=" ">
<polygon fill="white" stroke="black" points="591,-627.5 591,-646.5 680,-646.5 680,-627.5 591,-627.5"/>
<text text-anchor="middle" x="635.5" y="-634.5" font-family="Helvetica,sans-Serif" font-size="10.00">KeepSbusHappy</text>
</a>
</g>
</g>
<!-- Node28&#45;&gt;Node32 -->
<g id="edge50" class="edge">
<title>Node28&#45;&gt;Node32</title>
<path fill="none" stroke="midnightblue" d="M730.81,-624.15C714.56,-626.37 696.26,-628.86 680.14,-631.06"/>
<polygon fill="midnightblue" stroke="midnightblue" points="731.72,-627.56 741.16,-622.75 730.78,-620.63 731.72,-627.56"/>
</g>
<!-- Node29&#45;&gt;Node10 -->
<g id="edge46" class="edge">
<title>Node29&#45;&gt;Node10</title>
<path fill="none" stroke="midnightblue" d="M598.6,-598.86C508.47,-597.82 275.54,-590.78 215,-546 183.65,-522.82 203.69,-496.17 179,-466 169.32,-454.17 155.11,-444.25 143.84,-437.52"/>
<polygon fill="midnightblue" stroke="midnightblue" points="598.83,-602.36 608.86,-598.96 598.9,-595.36 598.83,-602.36"/>
</g>
<!-- Node30 -->
<g id="node30" class="node">
<title>Node30</title>
<g id="a_node30"><a xlink:href="radio_8h.html#a692b8b0727e0db358f99c7bf4e8235c0" target="_top" xlink:title=" ">
<polygon fill="white" stroke="black" points="486.5,-608.5 486.5,-627.5 549.5,-627.5 549.5,-608.5 486.5,-608.5"/>
<text text-anchor="middle" x="518" y="-615.5" font-family="Helvetica,sans-Serif" font-size="10.00">Reconnect</text>
</a>
</g>
</g>
<!-- Node29&#45;&gt;Node30 -->
<g id="edge47" class="edge">
<title>Node29&#45;&gt;Node30</title>
<path fill="none" stroke="midnightblue" d="M598.99,-604.84C583.3,-607.42 565.02,-610.43 549.9,-612.92"/>
<polygon fill="midnightblue" stroke="midnightblue" points="599.57,-608.29 608.87,-603.22 598.43,-601.39 599.57,-608.29"/>
</g>
<!-- Node31 -->
<g id="node31" class="node">
<title>Node31</title>
<g id="a_node31"><a xlink:href="_receiver_code_2src_2main_8cpp.html#a06807a4f185694d37f774702ba74db0a" target="_top" xlink:title=" ">
<polygon fill="white" stroke="black" points="359,-646.5 359,-665.5 431,-665.5 431,-646.5 359,-646.5"/>
<text text-anchor="middle" x="395" y="-653.5" font-family="Helvetica,sans-Serif" font-size="10.00">ReceiveData</text>
</a>
</g>
</g>
<!-- Node30&#45;&gt;Node31 -->
<g id="edge48" class="edge">
<title>Node30&#45;&gt;Node31</title>
<path fill="none" stroke="midnightblue" d="M476.62,-630.68C460.27,-635.81 441.71,-641.64 426.52,-646.41"/>
<polygon fill="midnightblue" stroke="midnightblue" points="477.97,-633.92 486.47,-627.59 475.88,-627.25 477.97,-633.92"/>
</g>
<!-- Node31&#45;&gt;Node5 -->
<g id="edge49" class="edge">
<title>Node31&#45;&gt;Node5</title>
<path fill="none" stroke="midnightblue" d="M351.17,-668.42C326.76,-675.5 297.56,-683.97 279.65,-689.17"/>
<polygon fill="midnightblue" stroke="midnightblue" points="352.31,-671.74 360.94,-665.59 350.36,-665.01 352.31,-671.74"/>
</g>
<!-- Node32&#45;&gt;Node30 -->
<g id="edge52" class="edge">
<title>Node32&#45;&gt;Node30</title>
<path fill="none" stroke="midnightblue" d="M580.75,-628.16C570.13,-626.41 559.32,-624.63 549.78,-623.06"/>
<polygon fill="midnightblue" stroke="midnightblue" points="580.4,-631.65 590.83,-629.82 581.54,-624.74 580.4,-631.65"/>
</g>
<!-- Node32&#45;&gt;Node31 -->
<g id="edge51" class="edge">
<title>Node32&#45;&gt;Node31</title>
<path fill="none" stroke="midnightblue" d="M580.73,-641.28C535.03,-644.92 470.75,-650.04 431.32,-653.19"/>
<polygon fill="midnightblue" stroke="midnightblue" points="581.06,-644.77 590.76,-640.48 580.51,-637.79 581.06,-644.77"/>
</g>
</g>
</svg>
