<?xml version="1.0" encoding="UTF-8" standalone="no"?>
<!DOCTYPE svg PUBLIC "-//W3C//DTD SVG 1.1//EN"
 "http://www.w3.org/Graphics/SVG/1.1/DTD/svg11.dtd">
<!-- Generated by graphviz version 2.44.0 ()
 -->
<!-- Title: ReceiveData Pages: 1 -->
<svg width="776pt" height="465pt"
 viewBox="0.00 0.00 776.00 465.00" xmlns="http://www.w3.org/2000/svg" xmlns:xlink="http://www.w3.org/1999/xlink">
<g id="graph0" class="graph" transform="scale(1 1) rotate(0) translate(4 461)">
<title>ReceiveData</title>
<polygon fill="white" stroke="transparent" points="-4,4 -4,-461 772,-461 772,4 -4,4"/>
<!-- Node1 -->
<g id="node1" class="node">
<title>Node1</title>
<g id="a_node1"><a xlink:title=" ">
<polygon fill="#bfbfbf" stroke="black" points="0,-304.5 0,-323.5 72,-323.5 72,-304.5 0,-304.5"/>
<text text-anchor="middle" x="36" y="-311.5" font-family="Helvetica,sans-Serif" font-size="10.00">ReceiveData</text>
</a>
</g>
</g>
<!-- Node2 -->
<g id="node2" class="node">
<title>Node2</title>
<g id="a_node2"><a xlink:href="_receiver_code_2src_2main_8cpp.html#abd09fca8fe7cb7240846989f1ccd6a94" target="_top" xlink:title=" ">
<polygon fill="white" stroke="black" points="108,-389.5 108,-408.5 186,-408.5 186,-389.5 108,-389.5"/>
<text text-anchor="middle" x="147" y="-396.5" font-family="Helvetica,sans-Serif" font-size="10.00">CheckParams</text>
</a>
</g>
</g>
<!-- Node1&#45;&gt;Node2 -->
<g id="edge1" class="edge">
<title>Node1&#45;&gt;Node2</title>
<path fill="none" stroke="midnightblue" d="M49.5,-323.75C68.07,-338.23 103.12,-365.56 125.48,-383"/>
<polygon fill="midnightblue" stroke="midnightblue" points="123.6,-385.97 133.64,-389.36 127.91,-380.45 123.6,-385.97"/>
</g>
<!-- Node4 -->
<g id="node4" class="node">
<title>Node4</title>
<g id="a_node4"><a xlink:href="_receiver_code_2src_2main_8cpp.html#a07ca94db0e305e9c01ec51e417576308" target="_top" xlink:title=" ">
<polygon fill="white" stroke="black" points="117.5,-304.5 117.5,-323.5 176.5,-323.5 176.5,-304.5 117.5,-304.5"/>
<text text-anchor="middle" x="147" y="-311.5" font-family="Helvetica,sans-Serif" font-size="10.00">ReadData</text>
</a>
</g>
</g>
<!-- Node1&#45;&gt;Node4 -->
<g id="edge3" class="edge">
<title>Node1&#45;&gt;Node4</title>
<path fill="none" stroke="midnightblue" d="M72.09,-314C83.24,-314 95.63,-314 107.04,-314"/>
<polygon fill="midnightblue" stroke="midnightblue" points="107.17,-317.5 117.17,-314 107.17,-310.5 107.17,-317.5"/>
</g>
<!-- Node17 -->
<g id="node17" class="node">
<title>Node17</title>
<g id="a_node17"><a xlink:href="radio_8h.html#a692b8b0727e0db358f99c7bf4e8235c0" target="_top" xlink:title=" ">
<polygon fill="white" stroke="black" points="115.5,-133.5 115.5,-152.5 178.5,-152.5 178.5,-133.5 115.5,-133.5"/>
<text text-anchor="middle" x="147" y="-140.5" font-family="Helvetica,sans-Serif" font-size="10.00">Reconnect</text>
</a>
</g>
</g>
<!-- Node1&#45;&gt;Node17 -->
<g id="edge16" class="edge">
<title>Node1&#45;&gt;Node17</title>
<path fill="none" stroke="midnightblue" d="M43.17,-304.32C60.78,-276.69 111.48,-197.16 134.45,-161.13"/>
<polygon fill="midnightblue" stroke="midnightblue" points="137.47,-162.89 139.9,-152.58 131.57,-159.13 137.47,-162.89"/>
</g>
<!-- Node3 -->
<g id="node3" class="node">
<title>Node3</title>
<g id="a_node3"><a xlink:href="_receiver_code_2src_2main_8cpp.html#ad86a39e4cba19592c760833870f6f69c" target="_top" xlink:title=" ">
<polygon fill="white" stroke="black" points="241,-437.5 241,-456.5 314,-456.5 314,-437.5 241,-437.5"/>
<text text-anchor="middle" x="277.5" y="-444.5" font-family="Helvetica,sans-Serif" font-size="10.00">RebuildFlags</text>
</a>
</g>
</g>
<!-- Node2&#45;&gt;Node3 -->
<g id="edge2" class="edge">
<title>Node2&#45;&gt;Node3</title>
<path fill="none" stroke="midnightblue" d="M171.57,-408.5C186.07,-414.28 205.05,-421.73 222,-428 227.34,-429.98 233,-432.02 238.58,-433.99"/>
<polygon fill="midnightblue" stroke="midnightblue" points="237.83,-437.43 248.42,-437.44 240.14,-430.83 237.83,-437.43"/>
</g>
<!-- Node5 -->
<g id="node5" class="node">
<title>Node5</title>
<g id="a_node5"><a xlink:href="_receiver_code_2src_2main_8cpp.html#a5a26715a721e1073d6ae00498282c056" target="_top" xlink:title=" ">
<polygon fill="white" stroke="black" points="232,-399.5 232,-418.5 323,-418.5 323,-399.5 232,-399.5"/>
<text text-anchor="middle" x="277.5" y="-406.5" font-family="Helvetica,sans-Serif" font-size="10.00">ClearAckPayload</text>
</a>
</g>
</g>
<!-- Node4&#45;&gt;Node5 -->
<g id="edge4" class="edge">
<title>Node4&#45;&gt;Node5</title>
<path fill="none" stroke="midnightblue" d="M154.9,-323.56C166.86,-339.48 192.95,-371.5 222,-390 225.14,-392 228.52,-393.82 232,-395.47"/>
<polygon fill="midnightblue" stroke="midnightblue" points="230.79,-398.76 241.37,-399.45 233.53,-392.32 230.79,-398.76"/>
</g>
<!-- Node6 -->
<g id="node6" class="node">
<title>Node6</title>
<g id="a_node6"><a xlink:href="radio_8h.html#a8e1f4879c351e462d6bca620ae4279e2" target="_top" xlink:title=" ">
<polygon fill="white" stroke="black" points="242,-361.5 242,-380.5 313,-380.5 313,-361.5 242,-361.5"/>
<text text-anchor="middle" x="277.5" y="-368.5" font-family="Helvetica,sans-Serif" font-size="10.00">Decompress</text>
</a>
</g>
</g>
<!-- Node4&#45;&gt;Node6 -->
<g id="edge5" class="edge">
<title>Node4&#45;&gt;Node6</title>
<path fill="none" stroke="midnightblue" d="M165.02,-323.6C179.81,-331.73 201.96,-343.41 222,-352 226.83,-354.07 231.96,-356.09 237.07,-357.99"/>
<polygon fill="midnightblue" stroke="midnightblue" points="236.2,-361.39 246.8,-361.48 238.57,-354.81 236.2,-361.39"/>
</g>
<!-- Node7 -->
<g id="node7" class="node">
<title>Node7</title>
<g id="a_node7"><a xlink:href="_receiver_code_2src_2main_8cpp.html#a6fa3cec5deb1ccf813e013189b16e22f" target="_top" xlink:title=" ">
<polygon fill="white" stroke="black" points="245,-323.5 245,-342.5 310,-342.5 310,-323.5 245,-323.5"/>
<text text-anchor="middle" x="277.5" y="-330.5" font-family="Helvetica,sans-Serif" font-size="10.00">DoSensors</text>
</a>
</g>
</g>
<!-- Node4&#45;&gt;Node7 -->
<g id="edge6" class="edge">
<title>Node4&#45;&gt;Node7</title>
<path fill="none" stroke="midnightblue" d="M176.52,-318.22C193.69,-320.76 215.86,-324.03 234.95,-326.86"/>
<polygon fill="midnightblue" stroke="midnightblue" points="234.5,-330.33 244.91,-328.33 235.53,-323.4 234.5,-330.33"/>
</g>
<!-- Node8 -->
<g id="node8" class="node">
<title>Node8</title>
<g id="a_node8"><a xlink:href="radio_8h.html#aa48ea4c5d47aa93d17dbc7d7b19238d8" target="_top" xlink:title=" ">
<polygon fill="white" stroke="black" points="222,-285.5 222,-304.5 333,-304.5 333,-285.5 222,-285.5"/>
<text text-anchor="middle" x="277.5" y="-292.5" font-family="Helvetica,sans-Serif" font-size="10.00">HopToNextFrequency</text>
</a>
</g>
</g>
<!-- Node4&#45;&gt;Node8 -->
<g id="edge7" class="edge">
<title>Node4&#45;&gt;Node8</title>
<path fill="none" stroke="midnightblue" d="M176.52,-309.78C187.08,-308.22 199.53,-306.38 211.99,-304.54"/>
<polygon fill="midnightblue" stroke="midnightblue" points="212.57,-307.99 221.95,-303.07 211.54,-301.07 212.57,-307.99"/>
</g>
<!-- Node10 -->
<g id="node10" class="node">
<title>Node10</title>
<g id="a_node10"><a xlink:href="radio_8h.html#a664f409561bfcf119e0379dd991217e5" target="_top" xlink:title=" ">
<polygon fill="white" stroke="black" points="232.5,-247.5 232.5,-266.5 322.5,-266.5 322.5,-247.5 232.5,-247.5"/>
<text text-anchor="middle" x="277.5" y="-254.5" font-family="Helvetica,sans-Serif" font-size="10.00">LoadAckPayload</text>
</a>
</g>
</g>
<!-- Node4&#45;&gt;Node10 -->
<g id="edge9" class="edge">
<title>Node4&#45;&gt;Node10</title>
<path fill="none" stroke="midnightblue" d="M165.02,-304.4C179.81,-296.27 201.96,-284.59 222,-276 226.83,-273.93 231.96,-271.91 237.07,-270.01"/>
<polygon fill="midnightblue" stroke="midnightblue" points="238.57,-273.19 246.8,-266.52 236.2,-266.61 238.57,-273.19"/>
</g>
<!-- Node16 -->
<g id="node16" class="node">
<title>Node16</title>
<g id="a_node16"><a xlink:href="_receiver_code_2src_2main_8cpp.html#a6a495c5560f12cc3fd3df9454927d681" target="_top" xlink:title=" ">
<polygon fill="white" stroke="black" points="387,-171.5 387,-190.5 461,-190.5 461,-171.5 387,-171.5"/>
<text text-anchor="middle" x="424" y="-178.5" font-family="Helvetica,sans-Serif" font-size="10.00">MapToSBUS</text>
</a>
</g>
</g>
<!-- Node4&#45;&gt;Node16 -->
<g id="edge15" class="edge">
<title>Node4&#45;&gt;Node16</title>
<path fill="none" stroke="midnightblue" d="M154.78,-304.26C166.57,-288.06 192.42,-255.63 222,-238 270.36,-209.18 333.96,-194.35 376.55,-187.15"/>
<polygon fill="midnightblue" stroke="midnightblue" points="377.32,-190.57 386.63,-185.52 376.2,-183.66 377.32,-190.57"/>
</g>
<!-- Node9 -->
<g id="node9" class="node">
<title>Node9</title>
<g id="a_node9"><a xlink:href="radio_8h.html#a2863e7455e30e6fddc0fcf56f62d6564" target="_top" xlink:title=" ">
<polygon fill="white" stroke="black" points="369,-361.5 369,-380.5 479,-380.5 479,-361.5 369,-361.5"/>
<text text-anchor="middle" x="424" y="-368.5" font-family="Helvetica,sans-Serif" font-size="10.00">ShowHopDurationEtc</text>
</a>
</g>
</g>
<!-- Node8&#45;&gt;Node9 -->
<g id="edge8" class="edge">
<title>Node8&#45;&gt;Node9</title>
<path fill="none" stroke="midnightblue" d="M313.96,-304.59C320.56,-307.14 327.19,-310.25 333,-314 352.54,-326.63 349.48,-339.34 369,-352 372.1,-354.01 375.44,-355.84 378.88,-357.49"/>
<polygon fill="midnightblue" stroke="midnightblue" points="377.58,-360.74 388.15,-361.48 380.35,-354.31 377.58,-360.74"/>
</g>
<!-- Node11 -->
<g id="node11" class="node">
<title>Node11</title>
<g id="a_node11"><a xlink:href="radio_8h.html#ae7c02edb19bdc7bb0dc66f4b4d698b04" target="_top" xlink:title=" ">
<polygon fill="white" stroke="black" points="388.5,-323.5 388.5,-342.5 459.5,-342.5 459.5,-323.5 388.5,-323.5"/>
<text text-anchor="middle" x="424" y="-330.5" font-family="Helvetica,sans-Serif" font-size="10.00">LoadAltitude</text>
</a>
</g>
</g>
<!-- Node10&#45;&gt;Node11 -->
<g id="edge10" class="edge">
<title>Node10&#45;&gt;Node11</title>
<path fill="none" stroke="midnightblue" d="M313.96,-266.59C320.56,-269.14 327.19,-272.25 333,-276 352.54,-288.63 349.48,-301.34 369,-314 372.15,-316.04 375.54,-317.89 379.03,-319.56"/>
<polygon fill="midnightblue" stroke="midnightblue" points="377.86,-322.87 388.43,-323.59 380.62,-316.44 377.86,-322.87"/>
</g>
<!-- Node12 -->
<g id="node12" class="node">
<title>Node12</title>
<g id="a_node12"><a xlink:href="radio_8h.html#ad5c9d0f57db506102e8363427892186a" target="_top" xlink:title=" ">
<polygon fill="white" stroke="black" points="387,-285.5 387,-304.5 461,-304.5 461,-285.5 387,-285.5"/>
<text text-anchor="middle" x="424" y="-292.5" font-family="Helvetica,sans-Serif" font-size="10.00">LoadRXVolts</text>
</a>
</g>
</g>
<!-- Node10&#45;&gt;Node12 -->
<g id="edge11" class="edge">
<title>Node10&#45;&gt;Node12</title>
<path fill="none" stroke="midnightblue" d="M314.96,-266.59C333.77,-271.54 356.91,-277.62 376.95,-282.89"/>
<polygon fill="midnightblue" stroke="midnightblue" points="376.24,-286.32 386.8,-285.48 378.02,-279.55 376.24,-286.32"/>
</g>
<!-- Node13 -->
<g id="node13" class="node">
<title>Node13</title>
<g id="a_node13"><a xlink:href="radio_8h.html#a3830d14fd002f2ec6d0843b15139360a" target="_top" xlink:title=" ">
<polygon fill="white" stroke="black" points="379.5,-247.5 379.5,-266.5 468.5,-266.5 468.5,-247.5 379.5,-247.5"/>
<text text-anchor="middle" x="424" y="-254.5" font-family="Helvetica,sans-Serif" font-size="10.00">LoadTimeStamp</text>
</a>
</g>
</g>
<!-- Node10&#45;&gt;Node13 -->
<g id="edge12" class="edge">
<title>Node10&#45;&gt;Node13</title>
<path fill="none" stroke="midnightblue" d="M322.64,-257C337.21,-257 353.58,-257 368.81,-257"/>
<polygon fill="midnightblue" stroke="midnightblue" points="369.13,-260.5 379.13,-257 369.13,-253.5 369.13,-260.5"/>
</g>
<!-- Node15 -->
<g id="node15" class="node">
<title>Node15</title>
<g id="a_node15"><a xlink:href="radio_8h.html#af067d2e9e8981a59af86ec75a0db36b4" target="_top" xlink:title=" ">
<polygon fill="white" stroke="black" points="373.5,-209.5 373.5,-228.5 474.5,-228.5 474.5,-209.5 373.5,-209.5"/>
<text text-anchor="middle" x="424" y="-216.5" font-family="Helvetica,sans-Serif" font-size="10.00">LoadVersioNumber</text>
</a>
</g>
</g>
<!-- Node10&#45;&gt;Node15 -->
<g id="edge14" class="edge">
<title>Node10&#45;&gt;Node15</title>
<path fill="none" stroke="midnightblue" d="M314.96,-247.41C333.77,-242.46 356.91,-236.38 376.95,-231.11"/>
<polygon fill="midnightblue" stroke="midnightblue" points="378.02,-234.45 386.8,-228.52 376.24,-227.68 378.02,-234.45"/>
</g>
<!-- Node14 -->
<g id="node14" class="node">
<title>Node14</title>
<g id="a_node14"><a xlink:href="radio_8h.html#a5cbe0c69c07d5818a956b9155820cf76" target="_top" xlink:title=" ">
<polygon fill="white" stroke="black" points="515,-247.5 515,-266.5 613,-266.5 613,-247.5 515,-247.5"/>
<text text-anchor="middle" x="564" y="-254.5" font-family="Helvetica,sans-Serif" font-size="10.00">GetNextFrequency</text>
</a>
</g>
</g>
<!-- Node13&#45;&gt;Node14 -->
<g id="edge13" class="edge">
<title>Node13&#45;&gt;Node14</title>
<path fill="none" stroke="midnightblue" d="M468.66,-257C480.14,-257 492.7,-257 504.8,-257"/>
<polygon fill="midnightblue" stroke="midnightblue" points="504.83,-260.5 514.83,-257 504.83,-253.5 504.83,-260.5"/>
</g>
<!-- Node18 -->
<g id="node18" class="node">
<title>Node18</title>
<g id="a_node18"><a xlink:href="radio_8h.html#a42318598726782ebb2e1857f167c8cda" target="_top" xlink:title=" ">
<polygon fill="white" stroke="black" points="251,-152.5 251,-171.5 304,-171.5 304,-152.5 251,-152.5"/>
<text text-anchor="middle" x="277.5" y="-159.5" font-family="Helvetica,sans-Serif" font-size="10.00">FailSafe</text>
</a>
</g>
</g>
<!-- Node17&#45;&gt;Node18 -->
<g id="edge17" class="edge">
<title>Node17&#45;&gt;Node18</title>
<path fill="none" stroke="midnightblue" d="M178.78,-147.55C197.41,-150.31 221.25,-153.83 240.72,-156.71"/>
<polygon fill="midnightblue" stroke="midnightblue" points="240.33,-160.19 250.73,-158.19 241.35,-153.26 240.33,-160.19"/>
</g>
<!-- Node31 -->
<g id="node31" class="node">
<title>Node31</title>
<g id="a_node31"><a xlink:href="radio_8h.html#a6e2d4126d864c50e7c23c988c2bfdd1a" target="_top" xlink:title=" ">
<polygon fill="white" stroke="black" points="254,-114.5 254,-133.5 301,-133.5 301,-114.5 254,-114.5"/>
<text text-anchor="middle" x="277.5" y="-121.5" font-family="Helvetica,sans-Serif" font-size="10.00">Radio1</text>
</a>
</g>
</g>
<!-- Node17&#45;&gt;Node31 -->
<g id="edge31" class="edge">
<title>Node17&#45;&gt;Node31</title>
<path fill="none" stroke="midnightblue" d="M178.78,-138.45C198.38,-135.55 223.75,-131.8 243.72,-128.85"/>
<polygon fill="midnightblue" stroke="midnightblue" points="244.24,-132.31 253.62,-127.38 243.21,-125.38 244.24,-132.31"/>
</g>
<!-- Node32 -->
<g id="node32" class="node">
<title>Node32</title>
<g id="a_node32"><a xlink:href="radio_8h.html#a8b76f3c338025926421c7b308405bbfd" target="_top" xlink:title=" ">
<polygon fill="white" stroke="black" points="254,-76.5 254,-95.5 301,-95.5 301,-76.5 254,-76.5"/>
<text text-anchor="middle" x="277.5" y="-83.5" font-family="Helvetica,sans-Serif" font-size="10.00">Radio2</text>
</a>
</g>
</g>
<!-- Node17&#45;&gt;Node32 -->
<g id="edge32" class="edge">
<title>Node17&#45;&gt;Node32</title>
<path fill="none" stroke="midnightblue" d="M165.02,-133.4C179.81,-125.27 201.96,-113.59 222,-105 229.17,-101.93 237.02,-98.96 244.48,-96.33"/>
<polygon fill="midnightblue" stroke="midnightblue" points="245.64,-99.63 253.96,-93.08 243.36,-93.01 245.64,-99.63"/>
</g>
<!-- Node18&#45;&gt;Node16 -->
<g id="edge19" class="edge">
<title>Node18&#45;&gt;Node16</title>
<path fill="none" stroke="midnightblue" d="M304,-165.35C324.13,-168 352.76,-171.76 376.88,-174.94"/>
<polygon fill="midnightblue" stroke="midnightblue" points="376.54,-178.42 386.91,-176.25 377.45,-171.48 376.54,-178.42"/>
</g>
<!-- Node19 -->
<g id="node19" class="node">
<title>Node19</title>
<g id="a_node19"><a xlink:href="_receiver_code_2src_2main_8cpp.html#a7b232e8049c83655363495df07fc96d9" target="_top" xlink:title=" ">
<polygon fill="white" stroke="black" points="376.5,-133.5 376.5,-152.5 471.5,-152.5 471.5,-133.5 376.5,-133.5"/>
<text text-anchor="middle" x="424" y="-140.5" font-family="Helvetica,sans-Serif" font-size="10.00">LoadFailSafeData</text>
</a>
</g>
</g>
<!-- Node18&#45;&gt;Node19 -->
<g id="edge18" class="edge">
<title>Node18&#45;&gt;Node19</title>
<path fill="none" stroke="midnightblue" d="M304,-158.65C321.28,-156.38 344.8,-153.28 366.38,-150.45"/>
<polygon fill="midnightblue" stroke="midnightblue" points="366.99,-153.89 376.45,-149.12 366.08,-146.95 366.99,-153.89"/>
</g>
<!-- Node20 -->
<g id="node20" class="node">
<title>Node20</title>
<g id="a_node20"><a xlink:href="_receiver_code_2src_2main_8cpp.html#a6f2443a0666140cf4d8b7352bb3b793c" target="_top" xlink:title=" ">
<polygon fill="white" stroke="black" points="388.5,-95.5 388.5,-114.5 459.5,-114.5 459.5,-95.5 388.5,-95.5"/>
<text text-anchor="middle" x="424" y="-102.5" font-family="Helvetica,sans-Serif" font-size="10.00">MoveServos</text>
</a>
</g>
</g>
<!-- Node18&#45;&gt;Node20 -->
<g id="edge20" class="edge">
<title>Node18&#45;&gt;Node20</title>
<path fill="none" stroke="midnightblue" d="M304.04,-153.98C313.28,-150.85 323.72,-147.04 333,-143 349.59,-135.78 352.42,-131.24 369,-124 373.72,-121.94 378.74,-119.93 383.74,-118.05"/>
<polygon fill="midnightblue" stroke="midnightblue" points="385.07,-121.29 393.27,-114.58 382.67,-114.71 385.07,-121.29"/>
</g>
<!-- Node21 -->
<g id="node21" class="node">
<title>Node21</title>
<g id="a_node21"><a xlink:href="imu_8h.html#a8af33ed107fd76161fafaedefee43681" target="_top" xlink:title=" ">
<polygon fill="white" stroke="black" points="527,-190.5 527,-209.5 601,-209.5 601,-190.5 527,-190.5"/>
<text text-anchor="middle" x="564" y="-197.5" font-family="Helvetica,sans-Serif" font-size="10.00">DoDeadBand</text>
</a>
</g>
</g>
<!-- Node20&#45;&gt;Node21 -->
<g id="edge21" class="edge">
<title>Node20&#45;&gt;Node21</title>
<path fill="none" stroke="midnightblue" d="M459.63,-113.31C466.5,-115.99 473.33,-119.48 479,-124 502.43,-142.67 491.93,-161.88 515,-181 517.02,-182.68 519.21,-184.22 521.5,-185.63"/>
<polygon fill="midnightblue" stroke="midnightblue" points="520.22,-188.92 530.7,-190.49 523.49,-182.73 520.22,-188.92"/>
</g>
<!-- Node22 -->
<g id="node22" class="node">
<title>Node22</title>
<g id="a_node22"><a xlink:href="_receiver_code_2src_2main_8cpp.html#a5424788640aaa8d535d6ea077949ef82" target="_top" xlink:title=" ">
<polygon fill="white" stroke="black" points="538,-152.5 538,-171.5 590,-171.5 590,-152.5 538,-152.5"/>
<text text-anchor="middle" x="564" y="-159.5" font-family="Helvetica,sans-Serif" font-size="10.00">MySbus</text>
</a>
</g>
</g>
<!-- Node20&#45;&gt;Node22 -->
<g id="edge22" class="edge">
<title>Node20&#45;&gt;Node22</title>
<path fill="none" stroke="midnightblue" d="M454.73,-114.58C462.71,-117.39 471.26,-120.62 479,-124 495.58,-131.24 498.56,-135.44 515,-143 519.35,-145 523.98,-147 528.57,-148.9"/>
<polygon fill="midnightblue" stroke="midnightblue" points="527.29,-152.15 537.87,-152.65 529.9,-145.66 527.29,-152.15"/>
</g>
<!-- Node23 -->
<g id="node23" class="node">
<title>Node23</title>
<g id="a_node23"><a xlink:href="_receiver_code_2src_2main_8cpp.html#a6d8b17c285caab118add813ad0dfdc69" target="_top" xlink:title=" ">
<polygon fill="white" stroke="black" points="536,-114.5 536,-133.5 592,-133.5 592,-114.5 536,-114.5"/>
<text text-anchor="middle" x="564" y="-121.5" font-family="Helvetica,sans-Serif" font-size="10.00">ShowPid</text>
</a>
</g>
</g>
<!-- Node20&#45;&gt;Node23 -->
<g id="edge23" class="edge">
<title>Node20&#45;&gt;Node23</title>
<path fill="none" stroke="midnightblue" d="M459.82,-109.79C479.91,-112.56 505.15,-116.04 525.65,-118.86"/>
<polygon fill="midnightblue" stroke="midnightblue" points="525.2,-122.33 535.58,-120.22 526.15,-115.39 525.2,-122.33"/>
</g>
<!-- Node24 -->
<g id="node24" class="node">
<title>Node24</title>
<g id="a_node24"><a xlink:href="imu_8h.html#a49760866b31e1d6fdc7354d0bfe1e214" target="_top" xlink:title=" ">
<polygon fill="white" stroke="black" points="516,-76.5 516,-95.5 612,-95.5 612,-76.5 516,-76.5"/>
<text text-anchor="middle" x="564" y="-83.5" font-family="Helvetica,sans-Serif" font-size="10.00">StabilizePitchRate</text>
</a>
</g>
</g>
<!-- Node20&#45;&gt;Node24 -->
<g id="edge24" class="edge">
<title>Node20&#45;&gt;Node24</title>
<path fill="none" stroke="midnightblue" d="M459.82,-100.21C473.77,-98.28 490.22,-96.02 505.83,-93.87"/>
<polygon fill="midnightblue" stroke="midnightblue" points="506.51,-97.31 515.94,-92.48 505.55,-90.38 506.51,-97.31"/>
</g>
<!-- Node27 -->
<g id="node27" class="node">
<title>Node27</title>
<g id="a_node27"><a xlink:href="imu_8h.html#a728333ba3718182e54444a5d42dfaf42" target="_top" xlink:title=" ">
<polygon fill="white" stroke="black" points="519,-38.5 519,-57.5 609,-57.5 609,-38.5 519,-38.5"/>
<text text-anchor="middle" x="564" y="-45.5" font-family="Helvetica,sans-Serif" font-size="10.00">StabilizeRollRate</text>
</a>
</g>
</g>
<!-- Node20&#45;&gt;Node27 -->
<g id="edge27" class="edge">
<title>Node20&#45;&gt;Node27</title>
<path fill="none" stroke="midnightblue" d="M447.13,-95.49C465.32,-87.72 491.77,-76.5 515,-67 519.53,-65.15 524.31,-63.22 529.04,-61.33"/>
<polygon fill="midnightblue" stroke="midnightblue" points="530.54,-64.5 538.54,-57.56 527.95,-58 530.54,-64.5"/>
</g>
<!-- Node30 -->
<g id="node30" class="node">
<title>Node30</title>
<g id="a_node30"><a xlink:href="imu_8h.html#ae6c34569f8567a3895fddfd6448bcee2" target="_top" xlink:title=" ">
<polygon fill="white" stroke="black" points="517.5,-0.5 517.5,-19.5 610.5,-19.5 610.5,-0.5 517.5,-0.5"/>
<text text-anchor="middle" x="564" y="-7.5" font-family="Helvetica,sans-Serif" font-size="10.00">StabilizeYawRate</text>
</a>
</g>
</g>
<!-- Node20&#45;&gt;Node30 -->
<g id="edge30" class="edge">
<title>Node20&#45;&gt;Node30</title>
<path fill="none" stroke="midnightblue" d="M434.19,-95.44C449.64,-79.8 482.36,-48.53 515,-29 518.19,-27.09 521.6,-25.31 525.08,-23.65"/>
<polygon fill="midnightblue" stroke="midnightblue" points="526.61,-26.8 534.35,-19.58 523.79,-20.39 526.61,-26.8"/>
</g>
<!-- Node25 -->
<g id="node25" class="node">
<title>Node25</title>
<g id="a_node25"><a xlink:href="imu_8h.html#ac014ca8e30c59c609753d77ecb2066e1" target="_top" xlink:title=" ">
<polygon fill="white" stroke="black" points="649,-114.5 649,-133.5 768,-133.5 768,-114.5 649,-114.5"/>
<text text-anchor="middle" x="708.5" y="-121.5" font-family="Helvetica,sans-Serif" font-size="10.00">GetPitchRateDerivative</text>
</a>
</g>
</g>
<!-- Node24&#45;&gt;Node25 -->
<g id="edge25" class="edge">
<title>Node24&#45;&gt;Node25</title>
<path fill="none" stroke="midnightblue" d="M600.96,-95.59C619.44,-100.52 642.16,-106.57 661.86,-111.83"/>
<polygon fill="midnightblue" stroke="midnightblue" points="660.99,-115.22 671.55,-114.41 662.79,-108.46 660.99,-115.22"/>
</g>
<!-- Node26 -->
<g id="node26" class="node">
<title>Node26</title>
<g id="a_node26"><a xlink:href="imu_8h.html#acd8257c47375b8831e52fca355396d51" target="_top" xlink:title=" ">
<polygon fill="white" stroke="black" points="655,-76.5 655,-95.5 762,-95.5 762,-76.5 655,-76.5"/>
<text text-anchor="middle" x="708.5" y="-83.5" font-family="Helvetica,sans-Serif" font-size="10.00">GetPitchRateIntegral</text>
</a>
</g>
</g>
<!-- Node24&#45;&gt;Node26 -->
<g id="edge26" class="edge">
<title>Node24&#45;&gt;Node26</title>
<path fill="none" stroke="midnightblue" d="M612.05,-86C622.38,-86 633.47,-86 644.3,-86"/>
<polygon fill="midnightblue" stroke="midnightblue" points="644.58,-89.5 654.58,-86 644.58,-82.5 644.58,-89.5"/>
</g>
<!-- Node28 -->
<g id="node28" class="node">
<title>Node28</title>
<g id="a_node28"><a xlink:href="imu_8h.html#a440cead796442e3ec67f07b13662f2b8" target="_top" xlink:title=" ">
<polygon fill="white" stroke="black" points="652,-38.5 652,-57.5 765,-57.5 765,-38.5 652,-38.5"/>
<text text-anchor="middle" x="708.5" y="-45.5" font-family="Helvetica,sans-Serif" font-size="10.00">GetRollRateDerivative</text>
</a>
</g>
</g>
<!-- Node27&#45;&gt;Node28 -->
<g id="edge28" class="edge">
<title>Node27&#45;&gt;Node28</title>
<path fill="none" stroke="midnightblue" d="M609.31,-48C619.63,-48 630.83,-48 641.86,-48"/>
<polygon fill="midnightblue" stroke="midnightblue" points="641.9,-51.5 651.9,-48 641.9,-44.5 641.9,-51.5"/>
</g>
<!-- Node29 -->
<g id="node29" class="node">
<title>Node29</title>
<g id="a_node29"><a xlink:href="imu_8h.html#aad3abf2eaa21decfe43ff4c98a09570d" target="_top" xlink:title=" ">
<polygon fill="white" stroke="black" points="658,-0.5 658,-19.5 759,-19.5 759,-0.5 658,-0.5"/>
<text text-anchor="middle" x="708.5" y="-7.5" font-family="Helvetica,sans-Serif" font-size="10.00">GetRollRateIntegral</text>
</a>
</g>
</g>
<!-- Node27&#45;&gt;Node29 -->
<g id="edge29" class="edge">
<title>Node27&#45;&gt;Node29</title>
<path fill="none" stroke="midnightblue" d="M600.96,-38.41C619.44,-33.48 642.16,-27.43 661.86,-22.17"/>
<polygon fill="midnightblue" stroke="midnightblue" points="662.79,-25.54 671.55,-19.59 660.99,-18.78 662.79,-25.54"/>
</g>
</g>
</svg>
