<?xml version="1.0" encoding="UTF-8" standalone="no"?>
<!DOCTYPE svg PUBLIC "-//W3C//DTD SVG 1.1//EN"
 "http://www.w3.org/Graphics/SVG/1.1/DTD/svg11.dtd">
<!-- Generated by graphviz version 3.0.0 (20220413.0242)
 -->
<!-- Title: loop Pages: 1 -->
<svg width="917pt" height="655pt"
 viewBox="0.00 0.00 917.00 655.00" xmlns="http://www.w3.org/2000/svg" xmlns:xlink="http://www.w3.org/1999/xlink">
<g id="graph0" class="graph" transform="scale(1 1) rotate(0) translate(4 651)">
<title>loop</title>
<polygon fill="white" stroke="transparent" points="-4,4 -4,-651 913,-651 913,4 -4,4"/>
<!-- Node1 -->
<g id="node1" class="node">
<title>Node1</title>
<g id="a_node1"><a xlink:title=" ">
<polygon fill="#bfbfbf" stroke="black" points="0,-418.5 0,-437.5 35,-437.5 35,-418.5 0,-418.5"/>
<text text-anchor="middle" x="17.5" y="-425.5" font-family="Helvetica,sans-Serif" font-size="10.00">loop</text>
</a>
</g>
</g>
<!-- Node2 -->
<g id="node2" class="node">
<title>Node2</title>
<g id="a_node2"><a xlink:href="_receiver_code_2src_2main_8cpp.html#af4a2e182cd3b86ca9765a08100cfb14a" target="_top" xlink:title=" ">
<polygon fill="white" stroke="black" points="88,-589.5 88,-608.5 149,-608.5 149,-589.5 88,-589.5"/>
<text text-anchor="middle" x="118.5" y="-596.5" font-family="Helvetica,sans-Serif" font-size="10.00">DoBinding</text>
</a>
</g>
</g>
<!-- Node1&#45;&gt;Node2 -->
<g id="edge1" class="edge">
<title>Node1&#45;&gt;Node2</title>
<path fill="none" stroke="midnightblue" d="M22.4,-437.66C30.4,-457.08 49.73,-502 71,-537 80.56,-552.73 93.18,-569.35 102.86,-581.42"/>
<polygon fill="midnightblue" stroke="midnightblue" points="100.27,-583.79 109.31,-589.33 105.7,-579.36 100.27,-583.79"/>
</g>
<!-- Node9 -->
<g id="node9" class="node">
<title>Node9</title>
<g id="a_node9"><a xlink:href="_receiver_code_2src_2main_8cpp.html#a6f2443a0666140cf4d8b7352bb3b793c" target="_top" xlink:title=" ">
<polygon fill="white" stroke="black" points="609.5,-342.5 609.5,-361.5 680.5,-361.5 680.5,-342.5 609.5,-342.5"/>
<text text-anchor="middle" x="645" y="-349.5" font-family="Helvetica,sans-Serif" font-size="10.00">MoveServos</text>
</a>
</g>
</g>
<!-- Node1&#45;&gt;Node9 -->
<g id="edge8" class="edge">
<title>Node1&#45;&gt;Node9</title>
<path fill="none" stroke="midnightblue" d="M35.25,-437.14C101.26,-471.82 348.3,-589.14 524,-504 581.86,-475.96 620.23,-405 635.95,-370.89"/>
<polygon fill="midnightblue" stroke="midnightblue" points="639.23,-372.13 640.1,-361.57 632.83,-369.28 639.23,-372.13"/>
</g>
<!-- Node11 -->
<g id="node11" class="node">
<title>Node11</title>
<g id="a_node11"><a xlink:href="_receiver_code_2src_2main_8cpp.html#a06807a4f185694d37f774702ba74db0a" target="_top" xlink:title=" ">
<polygon fill="white" stroke="black" points="82.5,-342.5 82.5,-361.5 154.5,-361.5 154.5,-342.5 82.5,-342.5"/>
<text text-anchor="middle" x="118.5" y="-349.5" font-family="Helvetica,sans-Serif" font-size="10.00">ReceiveData</text>
</a>
</g>
</g>
<!-- Node1&#45;&gt;Node11 -->
<g id="edge10" class="edge">
<title>Node1&#45;&gt;Node11</title>
<path fill="none" stroke="midnightblue" d="M31.04,-418.37C47.63,-405.64 77.08,-383.03 96.95,-367.78"/>
<polygon fill="midnightblue" stroke="midnightblue" points="99.26,-370.41 105.06,-361.55 95,-364.86 99.26,-370.41"/>
</g>
<!-- Node40 -->
<g id="node40" class="node">
<title>Node40</title>
<g id="a_node40"><a xlink:href="_receiver_code_2src_2main_8cpp.html#a96891035aa9f064462b6a614c5878f51" target="_top" xlink:title=" ">
<polygon fill="white" stroke="black" points="71,-304.5 71,-323.5 166,-323.5 166,-304.5 71,-304.5"/>
<text text-anchor="middle" x="118.5" y="-311.5" font-family="Helvetica,sans-Serif" font-size="10.00">SaveFailSafeData</text>
</a>
</g>
</g>
<!-- Node1&#45;&gt;Node40 -->
<g id="edge48" class="edge">
<title>Node1&#45;&gt;Node40</title>
<path fill="none" stroke="midnightblue" d="M21.44,-418.26C27.62,-399.32 43.68,-357.29 71,-333 72.75,-331.45 74.64,-330.01 76.62,-328.68"/>
<polygon fill="midnightblue" stroke="midnightblue" points="78.78,-331.49 85.79,-323.54 75.35,-325.38 78.78,-331.49"/>
</g>
<!-- Node3 -->
<g id="node3" class="node">
<title>Node3</title>
<g id="a_node3"><a xlink:href="_receiver_code_2src_2main_8cpp.html#aa0c6905579a33aef28d737d43676cbbd" target="_top" xlink:title=" ">
<polygon fill="white" stroke="black" points="255.5,-589.5 255.5,-608.5 317.5,-608.5 317.5,-589.5 255.5,-589.5"/>
<text text-anchor="middle" x="286.5" y="-596.5" font-family="Helvetica,sans-Serif" font-size="10.00">BindModel</text>
</a>
</g>
</g>
<!-- Node2&#45;&gt;Node3 -->
<g id="edge2" class="edge">
<title>Node2&#45;&gt;Node3</title>
<path fill="none" stroke="midnightblue" d="M149.18,-599C175.96,-599 215.58,-599 245.21,-599"/>
<polygon fill="midnightblue" stroke="midnightblue" points="245.24,-602.5 255.24,-599 245.24,-595.5 245.24,-602.5"/>
</g>
<!-- Node8 -->
<g id="node8" class="node">
<title>Node8</title>
<g id="a_node8"><a xlink:href="radio_8h.html#ad8b2470258da4e397b34d67ffce9ebaf" target="_top" xlink:title=" ">
<polygon fill="white" stroke="black" points="250.5,-627.5 250.5,-646.5 322.5,-646.5 322.5,-627.5 250.5,-627.5"/>
<text text-anchor="middle" x="286.5" y="-634.5" font-family="Helvetica,sans-Serif" font-size="10.00">GetNewPipe</text>
</a>
</g>
</g>
<!-- Node2&#45;&gt;Node8 -->
<g id="edge7" class="edge">
<title>Node2&#45;&gt;Node8</title>
<path fill="none" stroke="midnightblue" d="M149.28,-605.88C164.96,-609.5 184.52,-614 202,-618 214.34,-620.83 227.71,-623.87 240.06,-626.68"/>
<polygon fill="midnightblue" stroke="midnightblue" points="239.62,-630.17 250.15,-628.98 241.17,-623.35 239.62,-630.17"/>
</g>
<!-- Node4 -->
<g id="node4" class="node">
<title>Node4</title>
<g id="a_node4"><a xlink:href="_receiver_code_2src_2main_8cpp.html#a0cbfd712ab3bd8f654bc19400fd704bd" target="_top" xlink:title=" ">
<polygon fill="white" stroke="black" points="427.5,-627.5 427.5,-646.5 503.5,-646.5 503.5,-627.5 427.5,-627.5"/>
<text text-anchor="middle" x="465.5" y="-634.5" font-family="Helvetica,sans-Serif" font-size="10.00">AttachServos</text>
</a>
</g>
</g>
<!-- Node3&#45;&gt;Node4 -->
<g id="edge3" class="edge">
<title>Node3&#45;&gt;Node4</title>
<path fill="none" stroke="midnightblue" d="M317.53,-605.45C344.85,-611.31 385.63,-620.07 417.31,-626.87"/>
<polygon fill="midnightblue" stroke="midnightblue" points="416.73,-630.32 427.24,-629 418.2,-623.48 416.73,-630.32"/>
</g>
<!-- Node7 -->
<g id="node7" class="node">
<title>Node7</title>
<g id="a_node7"><a xlink:href="radio_8h.html#a6f54969e66375decc44723b141b78766" target="_top" xlink:title=" ">
<polygon fill="white" stroke="black" points="430,-589.5 430,-608.5 501,-608.5 501,-589.5 430,-589.5"/>
<text text-anchor="middle" x="465.5" y="-596.5" font-family="Helvetica,sans-Serif" font-size="10.00">SetNewPipe</text>
</a>
</g>
</g>
<!-- Node3&#45;&gt;Node7 -->
<g id="edge6" class="edge">
<title>Node3&#45;&gt;Node7</title>
<path fill="none" stroke="midnightblue" d="M317.53,-599C345.56,-599 387.76,-599 419.77,-599"/>
<polygon fill="midnightblue" stroke="midnightblue" points="419.77,-602.5 429.77,-599 419.77,-595.5 419.77,-602.5"/>
</g>
<!-- Node5 -->
<g id="node5" class="node">
<title>Node5</title>
<g id="a_node5"><a xlink:href="class_s_b_u_s.html#a5c2fccbffff0bd17ed522529fd6b2d8f" target="_top" xlink:title=" ">
<polygon fill="white" stroke="black" points="609,-627.5 609,-646.5 681,-646.5 681,-627.5 609,-627.5"/>
<text text-anchor="middle" x="645" y="-634.5" font-family="Helvetica,sans-Serif" font-size="10.00">SBUS::begin</text>
</a>
</g>
</g>
<!-- Node4&#45;&gt;Node5 -->
<g id="edge4" class="edge">
<title>Node4&#45;&gt;Node5</title>
<path fill="none" stroke="midnightblue" d="M503.71,-637C531.45,-637 569.46,-637 598.92,-637"/>
<polygon fill="midnightblue" stroke="midnightblue" points="598.95,-640.5 608.95,-637 598.95,-633.5 598.95,-640.5"/>
</g>
<!-- Node6 -->
<g id="node6" class="node">
<title>Node6</title>
<g id="a_node6"><a xlink:href="class_s_b_u_s.html#a58a6caab31090f4019d4f2439ab20fc2" target="_top" xlink:title=" ">
<polygon fill="white" stroke="black" points="784,-627.5 784,-646.5 891,-646.5 891,-627.5 784,-627.5"/>
<text text-anchor="middle" x="837.5" y="-634.5" font-family="Helvetica,sans-Serif" font-size="10.00">SBUS::setEndPoints</text>
</a>
</g>
</g>
<!-- Node5&#45;&gt;Node6 -->
<g id="edge5" class="edge">
<title>Node5&#45;&gt;Node6</title>
<path fill="none" stroke="midnightblue" d="M681.39,-637C707.2,-637 742.87,-637 773.5,-637"/>
<polygon fill="midnightblue" stroke="midnightblue" points="773.67,-640.5 783.67,-637 773.67,-633.5 773.67,-640.5"/>
</g>
<!-- Node10 -->
<g id="node10" class="node">
<title>Node10</title>
<g id="a_node10"><a xlink:href="class_s_b_u_s.html#aeb87d0ab21224d4cc84848c93a788848" target="_top" xlink:title=" ">
<polygon fill="white" stroke="black" points="802.5,-342.5 802.5,-361.5 872.5,-361.5 872.5,-342.5 802.5,-342.5"/>
<text text-anchor="middle" x="837.5" y="-349.5" font-family="Helvetica,sans-Serif" font-size="10.00">SBUS::write</text>
</a>
</g>
</g>
<!-- Node9&#45;&gt;Node10 -->
<g id="edge9" class="edge">
<title>Node9&#45;&gt;Node10</title>
<path fill="none" stroke="midnightblue" d="M680.94,-352C712.29,-352 758.43,-352 792.33,-352"/>
<polygon fill="midnightblue" stroke="midnightblue" points="792.42,-355.5 802.42,-352 792.42,-348.5 792.42,-355.5"/>
</g>
<!-- Node12 -->
<g id="node12" class="node">
<title>Node12</title>
<g id="a_node12"><a xlink:href="class_adafruit___i_n_a219.html#ab27c5ff8681cbe04c80bc3efc840dca4" target="_top" xlink:title="Gets the shunt voltage in volts.">
<polygon fill="white" stroke="black" points="202,-247.5 202,-266.5 371,-266.5 371,-247.5 202,-247.5"/>
<text text-anchor="middle" x="286.5" y="-254.5" font-family="Helvetica,sans-Serif" font-size="10.00">Adafruit_INA219::getBusVoltage_V</text>
</a>
</g>
</g>
<!-- Node11&#45;&gt;Node12 -->
<g id="edge11" class="edge">
<title>Node11&#45;&gt;Node12</title>
<path fill="none" stroke="midnightblue" d="M150.55,-342.47C156.04,-339.94 161.46,-336.81 166,-333 188.96,-313.75 177.54,-293.3 202,-276 204.73,-274.07 207.63,-272.33 210.64,-270.76"/>
<polygon fill="midnightblue" stroke="midnightblue" points="212.28,-273.86 219.96,-266.57 209.41,-267.48 212.28,-273.86"/>
</g>
<!-- Node13 -->
<g id="node13" class="node">
<title>Node13</title>
<g id="a_node13"><a xlink:href="radio_8h.html#a6f74cdb7b32a3aa9e9342661bd44ad1a" target="_top" xlink:title=" ">
<polygon fill="white" stroke="black" points="421,-323.5 421,-342.5 510,-342.5 510,-323.5 421,-323.5"/>
<text text-anchor="middle" x="465.5" y="-330.5" font-family="Helvetica,sans-Serif" font-size="10.00">KeepSbusHappy</text>
</a>
</g>
</g>
<!-- Node11&#45;&gt;Node13 -->
<g id="edge12" class="edge">
<title>Node11&#45;&gt;Node13</title>
<path fill="none" stroke="midnightblue" d="M154.8,-350.06C215.36,-346.72 339.42,-339.89 410.78,-335.96"/>
<polygon fill="midnightblue" stroke="midnightblue" points="411.12,-339.45 420.91,-335.4 410.73,-332.46 411.12,-339.45"/>
</g>
<!-- Node14 -->
<g id="node14" class="node">
<title>Node14</title>
<g id="a_node14"><a xlink:href="_receiver_code_2src_2main_8cpp.html#a07ca94db0e305e9c01ec51e417576308" target="_top" xlink:title=" ">
<polygon fill="white" stroke="black" points="257,-171.5 257,-190.5 316,-190.5 316,-171.5 257,-171.5"/>
<text text-anchor="middle" x="286.5" y="-178.5" font-family="Helvetica,sans-Serif" font-size="10.00">ReadData</text>
</a>
</g>
</g>
<!-- Node11&#45;&gt;Node14 -->
<g id="edge14" class="edge">
<title>Node11&#45;&gt;Node14</title>
<path fill="none" stroke="midnightblue" d="M153.91,-342.29C158.43,-339.84 162.65,-336.79 166,-333 206.55,-287.11 157.83,-242.41 202,-200 213.88,-188.6 231.1,-183.5 246.83,-181.4"/>
<polygon fill="midnightblue" stroke="midnightblue" points="247.27,-184.87 256.87,-180.4 246.58,-177.9 247.27,-184.87"/>
</g>
<!-- Node26 -->
<g id="node26" class="node">
<title>Node26</title>
<g id="a_node26"><a xlink:href="_receiver_code_2src_2main_8cpp.html#a6c490ef42e364f8bb1430c436e86c9c0" target="_top" xlink:title=" ">
<polygon fill="white" stroke="black" points="231,-437.5 231,-456.5 342,-456.5 342,-437.5 231,-437.5"/>
<text text-anchor="middle" x="286.5" y="-444.5" font-family="Helvetica,sans-Serif" font-size="10.00">ReadExtraParameters</text>
</a>
</g>
</g>
<!-- Node11&#45;&gt;Node26 -->
<g id="edge28" class="edge">
<title>Node11&#45;&gt;Node26</title>
<path fill="none" stroke="midnightblue" d="M127.01,-361.63C140.29,-377.96 169.6,-410.96 202,-428 207.92,-431.11 214.35,-433.72 220.91,-435.9"/>
<polygon fill="midnightblue" stroke="midnightblue" points="220,-439.28 230.58,-438.8 222.01,-432.58 220,-439.28"/>
</g>
<!-- Node33 -->
<g id="node33" class="node">
<title>Node33</title>
<g id="a_node33"><a xlink:href="_receiver_code_2src_2main_8cpp.html#a5d2350b2507883d3644251013370bc5b" target="_top" xlink:title=" ">
<polygon fill="white" stroke="black" points="234.5,-399.5 234.5,-418.5 338.5,-418.5 338.5,-399.5 234.5,-399.5"/>
<text text-anchor="middle" x="286.5" y="-406.5" font-family="Helvetica,sans-Serif" font-size="10.00">ReadTheSensorHub</text>
</a>
</g>
</g>
<!-- Node11&#45;&gt;Node33 -->
<g id="edge36" class="edge">
<title>Node11&#45;&gt;Node33</title>
<path fill="none" stroke="midnightblue" d="M137.4,-361.57C153.82,-370.02 179.01,-382.18 202,-390 209.61,-392.59 217.72,-394.93 225.79,-397.01"/>
<polygon fill="midnightblue" stroke="midnightblue" points="225.03,-400.43 235.57,-399.42 226.7,-393.63 225.03,-400.43"/>
</g>
<!-- Node34 -->
<g id="node34" class="node">
<title>Node34</title>
<g id="a_node34"><a xlink:href="radio_8h.html#a692b8b0727e0db358f99c7bf4e8235c0" target="_top" xlink:title=" ">
<polygon fill="white" stroke="black" points="255,-285.5 255,-304.5 318,-304.5 318,-285.5 255,-285.5"/>
<text text-anchor="middle" x="286.5" y="-292.5" font-family="Helvetica,sans-Serif" font-size="10.00">Reconnect</text>
</a>
</g>
</g>
<!-- Node11&#45;&gt;Node34 -->
<g id="edge37" class="edge">
<title>Node11&#45;&gt;Node34</title>
<path fill="none" stroke="midnightblue" d="M143.14,-342.4C165.4,-333.39 196.16,-321 202,-319 215.89,-314.24 231.3,-309.63 245.05,-305.74"/>
<polygon fill="midnightblue" stroke="midnightblue" points="246.04,-309.1 254.73,-303.05 244.16,-302.36 246.04,-309.1"/>
</g>
<!-- Node38 -->
<g id="node38" class="node">
<title>Node38</title>
<g id="a_node38"><a xlink:href="_receiver_code_2src_2main_8cpp.html#ad8b70060a07f5323c3e1011dd6b1dd6f" target="_top" xlink:title=" ">
<polygon fill="white" stroke="black" points="231.5,-361.5 231.5,-380.5 341.5,-380.5 341.5,-361.5 231.5,-361.5"/>
<text text-anchor="middle" x="286.5" y="-368.5" font-family="Helvetica,sans-Serif" font-size="10.00">SensorHubHasFailed</text>
</a>
</g>
</g>
<!-- Node11&#45;&gt;Node38 -->
<g id="edge45" class="edge">
<title>Node11&#45;&gt;Node38</title>
<path fill="none" stroke="midnightblue" d="M154.7,-356.03C174.02,-358.24 198.57,-361.05 221.17,-363.64"/>
<polygon fill="midnightblue" stroke="midnightblue" points="221.06,-367.15 231.39,-364.81 221.85,-360.19 221.06,-367.15"/>
</g>
<!-- Node39 -->
<g id="node39" class="node">
<title>Node39</title>
<g id="a_node39"><a xlink:href="_receiver_code_2src_2main_8cpp.html#a1d10d2ca466b8014f874f16aaa39da91" target="_top" xlink:title=" ">
<polygon fill="white" stroke="black" points="243.5,-209.5 243.5,-228.5 329.5,-228.5 329.5,-209.5 243.5,-209.5"/>
<text text-anchor="middle" x="286.5" y="-216.5" font-family="Helvetica,sans-Serif" font-size="10.00">TryNextChannel</text>
</a>
</g>
</g>
<!-- Node11&#45;&gt;Node39 -->
<g id="edge46" class="edge">
<title>Node11&#45;&gt;Node39</title>
<path fill="none" stroke="midnightblue" d="M152.64,-342.47C157.55,-339.98 162.23,-336.87 166,-333 197.51,-300.67 167.94,-267.64 202,-238 210.76,-230.38 221.95,-225.64 233.27,-222.73"/>
<polygon fill="midnightblue" stroke="midnightblue" points="234.14,-226.12 243.19,-220.62 232.68,-219.28 234.14,-226.12"/>
</g>
<!-- Node13&#45;&gt;Node9 -->
<g id="edge13" class="edge">
<title>Node13&#45;&gt;Node9</title>
<path fill="none" stroke="midnightblue" d="M510.38,-337.7C537.41,-340.59 571.99,-344.29 599.2,-347.2"/>
<polygon fill="midnightblue" stroke="midnightblue" points="598.92,-350.69 609.23,-348.28 599.66,-343.73 598.92,-350.69"/>
</g>
<!-- Node15 -->
<g id="node15" class="node">
<title>Node15</title>
<g id="a_node15"><a xlink:href="radio_8h.html#a664f409561bfcf119e0379dd991217e5" target="_top" xlink:title=" ">
<polygon fill="white" stroke="black" points="420.5,-76.5 420.5,-95.5 510.5,-95.5 510.5,-76.5 420.5,-76.5"/>
<text text-anchor="middle" x="465.5" y="-83.5" font-family="Helvetica,sans-Serif" font-size="10.00">LoadAckPayload</text>
</a>
</g>
</g>
<!-- Node14&#45;&gt;Node15 -->
<g id="edge15" class="edge">
<title>Node14&#45;&gt;Node15</title>
<path fill="none" stroke="midnightblue" d="M305.45,-171.37C336.67,-154.61 401.14,-120.01 437.68,-100.39"/>
<polygon fill="midnightblue" stroke="midnightblue" points="439.61,-103.33 446.77,-95.52 436.3,-97.16 439.61,-103.33"/>
</g>
<!-- Node21 -->
<g id="node21" class="node">
<title>Node21</title>
<g id="a_node21"><a xlink:href="_receiver_code_2src_2main_8cpp.html#abb1997c589abc6432f612eaedf985e38" target="_top" xlink:title=" ">
<polygon fill="white" stroke="black" points="418,-171.5 418,-190.5 513,-190.5 513,-171.5 418,-171.5"/>
<text text-anchor="middle" x="465.5" y="-178.5" font-family="Helvetica,sans-Serif" font-size="10.00">UseReceivedData</text>
</a>
</g>
</g>
<!-- Node14&#45;&gt;Node21 -->
<g id="edge23" class="edge">
<title>Node14&#45;&gt;Node21</title>
<path fill="none" stroke="midnightblue" d="M316.33,-181C340.97,-181 377.17,-181 407.62,-181"/>
<polygon fill="midnightblue" stroke="midnightblue" points="407.7,-184.5 417.7,-181 407.7,-177.5 407.7,-184.5"/>
</g>
<!-- Node16 -->
<g id="node16" class="node">
<title>Node16</title>
<g id="a_node16"><a xlink:href="radio_8h.html#affa2dcc4341b8daecac77e6e0a354b2d" target="_top" xlink:title=" ">
<polygon fill="white" stroke="black" points="584,-38.5 584,-57.5 706,-57.5 706,-38.5 584,-38.5"/>
<text text-anchor="middle" x="645" y="-45.5" font-family="Helvetica,sans-Serif" font-size="10.00">SendDateToAckPayload</text>
</a>
</g>
</g>
<!-- Node15&#45;&gt;Node16 -->
<g id="edge16" class="edge">
<title>Node15&#45;&gt;Node16</title>
<path fill="none" stroke="midnightblue" d="M510.83,-76.51C534.76,-71.39 564.5,-65.02 589.8,-59.6"/>
<polygon fill="midnightblue" stroke="midnightblue" points="590.57,-63.02 599.62,-57.5 589.11,-56.17 590.57,-63.02"/>
</g>
<!-- Node18 -->
<g id="node18" class="node">
<title>Node18</title>
<g id="a_node18"><a xlink:href="radio_8h.html#a8162c1748e39496c4adf88c55d1c49b8" target="_top" xlink:title=" ">
<polygon fill="white" stroke="black" points="583,-76.5 583,-95.5 707,-95.5 707,-76.5 583,-76.5"/>
<text text-anchor="middle" x="645" y="-83.5" font-family="Helvetica,sans-Serif" font-size="10.00">SendTimeToAckPayload</text>
</a>
</g>
</g>
<!-- Node15&#45;&gt;Node18 -->
<g id="edge18" class="edge">
<title>Node15&#45;&gt;Node18</title>
<path fill="none" stroke="midnightblue" d="M510.83,-86C529.54,-86 551.8,-86 572.71,-86"/>
<polygon fill="midnightblue" stroke="midnightblue" points="572.84,-89.5 582.84,-86 572.84,-82.5 572.84,-89.5"/>
</g>
<!-- Node19 -->
<g id="node19" class="node">
<title>Node19</title>
<g id="a_node19"><a xlink:href="radio_8h.html#a632401c7e72610ff0a0678358b6877ad" target="_top" xlink:title=" ">
<polygon fill="white" stroke="black" points="594,-0.5 594,-19.5 696,-19.5 696,-0.5 594,-0.5"/>
<text text-anchor="middle" x="645" y="-7.5" font-family="Helvetica,sans-Serif" font-size="10.00">SendToAckPayload</text>
</a>
</g>
</g>
<!-- Node15&#45;&gt;Node19 -->
<g id="edge20" class="edge">
<title>Node15&#45;&gt;Node19</title>
<path fill="none" stroke="midnightblue" d="M479.1,-76.46C496.42,-63.79 528.99,-41.56 560,-29 567.59,-25.93 575.77,-23.3 583.95,-21.07"/>
<polygon fill="midnightblue" stroke="midnightblue" points="585.05,-24.4 593.88,-18.54 583.32,-17.61 585.05,-24.4"/>
</g>
<!-- Node20 -->
<g id="node20" class="node">
<title>Node20</title>
<g id="a_node20"><a xlink:href="radio_8h.html#af56956a6b17dbdfc9fceedeb5a13cb71" target="_top" xlink:title=" ">
<polygon fill="white" stroke="black" points="560,-114.5 560,-133.5 730,-133.5 730,-114.5 560,-114.5"/>
<text text-anchor="middle" x="645" y="-121.5" font-family="Helvetica,sans-Serif" font-size="10.00">SendVersionNumberToAckPayload</text>
</a>
</g>
</g>
<!-- Node15&#45;&gt;Node20 -->
<g id="edge22" class="edge">
<title>Node15&#45;&gt;Node20</title>
<path fill="none" stroke="midnightblue" d="M510.83,-95.49C534.76,-100.61 564.5,-106.98 589.8,-112.4"/>
<polygon fill="midnightblue" stroke="midnightblue" points="589.11,-115.83 599.62,-114.5 590.57,-108.98 589.11,-115.83"/>
</g>
<!-- Node17 -->
<g id="node17" class="node">
<title>Node17</title>
<g id="a_node17"><a xlink:href="radio_8h.html#ad21c5c00ff554736e4e21cee13773cd5" target="_top" xlink:title=" ">
<polygon fill="white" stroke="black" points="766,-38.5 766,-57.5 909,-57.5 909,-38.5 766,-38.5"/>
<text text-anchor="middle" x="837.5" y="-45.5" font-family="Helvetica,sans-Serif" font-size="10.00">CheckWhetherItsTimeToHop</text>
</a>
</g>
</g>
<!-- Node16&#45;&gt;Node17 -->
<g id="edge17" class="edge">
<title>Node16&#45;&gt;Node17</title>
<path fill="none" stroke="midnightblue" d="M706.01,-48C721.73,-48 738.93,-48 755.54,-48"/>
<polygon fill="midnightblue" stroke="midnightblue" points="755.79,-51.5 765.79,-48 755.79,-44.5 755.79,-51.5"/>
</g>
<!-- Node18&#45;&gt;Node17 -->
<g id="edge19" class="edge">
<title>Node18&#45;&gt;Node17</title>
<path fill="none" stroke="midnightblue" d="M694.07,-76.41C719.78,-71.28 751.61,-64.93 778.66,-59.54"/>
<polygon fill="midnightblue" stroke="midnightblue" points="779.65,-62.91 788.77,-57.52 778.28,-56.04 779.65,-62.91"/>
</g>
<!-- Node19&#45;&gt;Node17 -->
<g id="edge21" class="edge">
<title>Node19&#45;&gt;Node17</title>
<path fill="none" stroke="midnightblue" d="M694.07,-19.59C719.78,-24.72 751.61,-31.07 778.66,-36.46"/>
<polygon fill="midnightblue" stroke="midnightblue" points="778.28,-39.96 788.77,-38.48 779.65,-33.09 778.28,-39.96"/>
</g>
<!-- Node22 -->
<g id="node22" class="node">
<title>Node22</title>
<g id="a_node22"><a xlink:href="radio_8h.html#a6feccc8c0583de3235616d42076f1371" target="_top" xlink:title=" ">
<polygon fill="white" stroke="black" points="609.5,-152.5 609.5,-171.5 680.5,-171.5 680.5,-152.5 609.5,-152.5"/>
<text text-anchor="middle" x="645" y="-159.5" font-family="Helvetica,sans-Serif" font-size="10.00">Decompress</text>
</a>
</g>
</g>
<!-- Node21&#45;&gt;Node22 -->
<g id="edge24" class="edge">
<title>Node21&#45;&gt;Node22</title>
<path fill="none" stroke="midnightblue" d="M513.14,-176.01C539.8,-173.15 573.05,-169.59 599.37,-166.78"/>
<polygon fill="midnightblue" stroke="midnightblue" points="599.88,-170.24 609.45,-165.7 599.14,-163.28 599.88,-170.24"/>
</g>
<!-- Node23 -->
<g id="node23" class="node">
<title>Node23</title>
<g id="a_node23"><a xlink:href="radio_8h.html#a62ec0168b1eea5f5c14f663d9217574d" target="_top" xlink:title=" ">
<polygon fill="white" stroke="black" points="594.5,-190.5 594.5,-209.5 695.5,-209.5 695.5,-190.5 594.5,-190.5"/>
<text text-anchor="middle" x="645" y="-197.5" font-family="Helvetica,sans-Serif" font-size="10.00">HopToNextChannel</text>
</a>
</g>
</g>
<!-- Node21&#45;&gt;Node23 -->
<g id="edge25" class="edge">
<title>Node21&#45;&gt;Node23</title>
<path fill="none" stroke="midnightblue" d="M513.14,-185.99C534.88,-188.32 561.01,-191.12 584.19,-193.6"/>
<polygon fill="midnightblue" stroke="midnightblue" points="583.94,-197.09 594.26,-194.68 584.69,-190.13 583.94,-197.09"/>
</g>
<!-- Node25 -->
<g id="node25" class="node">
<title>Node25</title>
<g id="a_node25"><a xlink:href="_receiver_code_2src_2main_8cpp.html#a6a495c5560f12cc3fd3df9454927d681" target="_top" xlink:title=" ">
<polygon fill="white" stroke="black" points="608,-228.5 608,-247.5 682,-247.5 682,-228.5 608,-228.5"/>
<text text-anchor="middle" x="645" y="-235.5" font-family="Helvetica,sans-Serif" font-size="10.00">MapToSBUS</text>
</a>
</g>
</g>
<!-- Node21&#45;&gt;Node25 -->
<g id="edge27" class="edge">
<title>Node21&#45;&gt;Node25</title>
<path fill="none" stroke="midnightblue" d="M487.31,-190.6C506.02,-198.96 534.42,-210.97 560,-219 572.04,-222.78 585.26,-226.13 597.59,-228.93"/>
<polygon fill="midnightblue" stroke="midnightblue" points="597.17,-232.42 607.68,-231.14 598.67,-225.58 597.17,-232.42"/>
</g>
<!-- Node24 -->
<g id="node24" class="node">
<title>Node24</title>
<g id="a_node24"><a xlink:href="radio_8h.html#a2863e7455e30e6fddc0fcf56f62d6564" target="_top" xlink:title=" ">
<polygon fill="white" stroke="black" points="782.5,-190.5 782.5,-209.5 892.5,-209.5 892.5,-190.5 782.5,-190.5"/>
<text text-anchor="middle" x="837.5" y="-197.5" font-family="Helvetica,sans-Serif" font-size="10.00">ShowHopDurationEtc</text>
</a>
</g>
</g>
<!-- Node23&#45;&gt;Node24 -->
<g id="edge26" class="edge">
<title>Node23&#45;&gt;Node24</title>
<path fill="none" stroke="midnightblue" d="M695.55,-200C718.91,-200 747.06,-200 772.04,-200"/>
<polygon fill="midnightblue" stroke="midnightblue" points="772.17,-203.5 782.17,-200 772.17,-196.5 772.17,-203.5"/>
</g>
<!-- Node27 -->
<g id="node27" class="node">
<title>Node27</title>
<g id="a_node27"><a xlink:href="_receiver_code_2src_2main_8cpp.html#a5ae8a2aa29e834880ccf370c7547961b" target="_top" xlink:title=" ">
<polygon fill="white" stroke="black" points="436,-551.5 436,-570.5 495,-570.5 495,-551.5 436,-551.5"/>
<text text-anchor="middle" x="465.5" y="-558.5" font-family="Helvetica,sans-Serif" font-size="10.00">MarkHere</text>
</a>
</g>
</g>
<!-- Node26&#45;&gt;Node27 -->
<g id="edge29" class="edge">
<title>Node26&#45;&gt;Node27</title>
<path fill="none" stroke="midnightblue" d="M302.29,-456.52C332.92,-476.26 403.57,-521.76 440.71,-545.68"/>
<polygon fill="midnightblue" stroke="midnightblue" points="439.08,-548.79 449.38,-551.26 442.87,-542.9 439.08,-548.79"/>
</g>
<!-- Node29 -->
<g id="node29" class="node">
<title>Node29</title>
<g id="a_node29"><a xlink:href="_receiver_code_2src_2main_8cpp.html#ad86a39e4cba19592c760833870f6f69c" target="_top" xlink:title=" ">
<polygon fill="white" stroke="black" points="429,-437.5 429,-456.5 502,-456.5 502,-437.5 429,-437.5"/>
<text text-anchor="middle" x="465.5" y="-444.5" font-family="Helvetica,sans-Serif" font-size="10.00">RebuildFlags</text>
</a>
</g>
</g>
<!-- Node26&#45;&gt;Node29 -->
<g id="edge31" class="edge">
<title>Node26&#45;&gt;Node29</title>
<path fill="none" stroke="midnightblue" d="M342.05,-447C366.65,-447 395.37,-447 418.81,-447"/>
<polygon fill="midnightblue" stroke="midnightblue" points="418.84,-450.5 428.84,-447 418.84,-443.5 418.84,-450.5"/>
</g>
<!-- Node30 -->
<g id="node30" class="node">
<title>Node30</title>
<g id="a_node30"><a xlink:href="_receiver_code_2src_2main_8cpp.html#af2b1ba43295661243b7bb78004d470d8" target="_top" xlink:title=" ">
<polygon fill="white" stroke="black" points="407,-475.5 407,-494.5 524,-494.5 524,-475.5 407,-475.5"/>
<text text-anchor="middle" x="465.5" y="-482.5" font-family="Helvetica,sans-Serif" font-size="10.00">SendQnhToSensorHub</text>
</a>
</g>
</g>
<!-- Node26&#45;&gt;Node30 -->
<g id="edge32" class="edge">
<title>Node26&#45;&gt;Node30</title>
<path fill="none" stroke="midnightblue" d="M332.16,-456.59C355.84,-461.67 385.11,-467.96 410.1,-473.32"/>
<polygon fill="midnightblue" stroke="midnightblue" points="409.64,-476.8 420.16,-475.48 411.11,-469.96 409.64,-476.8"/>
</g>
<!-- Node31 -->
<g id="node31" class="node">
<title>Node31</title>
<g id="a_node31"><a xlink:href="_receiver_code_2src_2main_8cpp.html#a31a35307bbac88ceda244272f25d399a" target="_top" xlink:title=" ">
<polygon fill="white" stroke="black" points="413.5,-399.5 413.5,-418.5 517.5,-418.5 517.5,-399.5 413.5,-399.5"/>
<text text-anchor="middle" x="465.5" y="-406.5" font-family="Helvetica,sans-Serif" font-size="10.00">SetTestFrequencies</text>
</a>
</g>
</g>
<!-- Node26&#45;&gt;Node31 -->
<g id="edge34" class="edge">
<title>Node26&#45;&gt;Node31</title>
<path fill="none" stroke="midnightblue" d="M332.16,-437.41C355.84,-432.33 385.11,-426.04 410.1,-420.68"/>
<polygon fill="midnightblue" stroke="midnightblue" points="411.11,-424.04 420.16,-418.52 409.64,-417.2 411.11,-424.04"/>
</g>
<!-- Node32 -->
<g id="node32" class="node">
<title>Node32</title>
<g id="a_node32"><a xlink:href="_receiver_code_2src_2main_8cpp.html#a2eabdb233653fa02f0b899e26b5e8ce7" target="_top" xlink:title=" ">
<polygon fill="white" stroke="black" points="595.5,-304.5 595.5,-323.5 694.5,-323.5 694.5,-304.5 595.5,-304.5"/>
<text text-anchor="middle" x="645" y="-311.5" font-family="Helvetica,sans-Serif" font-size="10.00">SetUKFrequencies</text>
</a>
</g>
</g>
<!-- Node26&#45;&gt;Node32 -->
<g id="edge35" class="edge">
<title>Node26&#45;&gt;Node32</title>
<path fill="none" stroke="midnightblue" d="M342.25,-439.41C352.21,-436.69 362.22,-433.01 371,-428 391.21,-416.48 387.33,-402.42 407,-390 453.23,-360.81 473.64,-373.28 524,-352 540.66,-344.96 543.03,-339.27 560,-333 568.15,-329.99 576.93,-327.36 585.64,-325.11"/>
<polygon fill="midnightblue" stroke="midnightblue" points="586.51,-328.49 595.39,-322.71 584.85,-321.7 586.51,-328.49"/>
</g>
<!-- Node28 -->
<g id="node28" class="node">
<title>Node28</title>
<g id="a_node28"><a xlink:href="_receiver_code_2src_2main_8cpp.html#a3f80da71956ba53fcff126bfe2296e65" target="_top" xlink:title=" ">
<polygon fill="white" stroke="black" points="595.5,-513.5 595.5,-532.5 694.5,-532.5 694.5,-513.5 595.5,-513.5"/>
<text text-anchor="middle" x="645" y="-520.5" font-family="Helvetica,sans-Serif" font-size="10.00">SendToSensorHub</text>
</a>
</g>
</g>
<!-- Node27&#45;&gt;Node28 -->
<g id="edge30" class="edge">
<title>Node27&#45;&gt;Node28</title>
<path fill="none" stroke="midnightblue" d="M495.02,-554.89C520.49,-549.44 558.48,-541.31 589.73,-534.62"/>
<polygon fill="midnightblue" stroke="midnightblue" points="590.56,-538.02 599.61,-532.5 589.1,-531.17 590.56,-538.02"/>
</g>
<!-- Node30&#45;&gt;Node28 -->
<g id="edge33" class="edge">
<title>Node30&#45;&gt;Node28</title>
<path fill="none" stroke="midnightblue" d="M511.29,-494.59C535.03,-499.67 564.38,-505.96 589.44,-511.32"/>
<polygon fill="midnightblue" stroke="midnightblue" points="589.02,-514.81 599.53,-513.48 590.49,-507.96 589.02,-514.81"/>
</g>
<!-- Node34&#45;&gt;Node13 -->
<g id="edge43" class="edge">
<title>Node34&#45;&gt;Node13</title>
<path fill="none" stroke="midnightblue" d="M318.33,-301.62C343.78,-307.08 380.5,-314.97 410.77,-321.46"/>
<polygon fill="midnightblue" stroke="midnightblue" points="410.25,-324.93 420.76,-323.61 411.72,-318.09 410.25,-324.93"/>
</g>
<!-- Node35 -->
<g id="node35" class="node">
<title>Node35</title>
<g id="a_node35"><a xlink:href="_receiver_code_2src_2main_8cpp.html#a42318598726782ebb2e1857f167c8cda" target="_top" xlink:title=" ">
<polygon fill="white" stroke="black" points="439,-247.5 439,-266.5 492,-266.5 492,-247.5 439,-247.5"/>
<text text-anchor="middle" x="465.5" y="-254.5" font-family="Helvetica,sans-Serif" font-size="10.00">FailSafe</text>
</a>
</g>
</g>
<!-- Node34&#45;&gt;Node35 -->
<g id="edge38" class="edge">
<title>Node34&#45;&gt;Node35</title>
<path fill="none" stroke="midnightblue" d="M318.33,-288.38C349.16,-281.76 396.54,-271.59 428.94,-264.63"/>
<polygon fill="midnightblue" stroke="midnightblue" points="429.86,-268.02 438.9,-262.5 428.39,-261.17 429.86,-268.02"/>
</g>
<!-- Node37 -->
<g id="node37" class="node">
<title>Node37</title>
<g id="a_node37"><a xlink:href="radio_8h.html#a1208ef26dd460e6f5f56582f4fbfcf94" target="_top" xlink:title=" ">
<polygon fill="white" stroke="black" points="416.5,-285.5 416.5,-304.5 514.5,-304.5 514.5,-285.5 416.5,-285.5"/>
<text text-anchor="middle" x="465.5" y="-292.5" font-family="Helvetica,sans-Serif" font-size="10.00">TryToConnectNow</text>
</a>
</g>
</g>
<!-- Node34&#45;&gt;Node37 -->
<g id="edge44" class="edge">
<title>Node34&#45;&gt;Node37</title>
<path fill="none" stroke="midnightblue" d="M318.33,-295C342.52,-295 376.89,-295 406.22,-295"/>
<polygon fill="midnightblue" stroke="midnightblue" points="406.36,-298.5 416.36,-295 406.36,-291.5 406.36,-298.5"/>
</g>
<!-- Node35&#45;&gt;Node9 -->
<g id="edge41" class="edge">
<title>Node35&#45;&gt;Node9</title>
<path fill="none" stroke="midnightblue" d="M492.09,-261.47C502.77,-264.29 514.8,-268.81 524,-276 547.61,-294.45 535.53,-315.71 560,-333 571.39,-341.04 585.62,-345.75 599.12,-348.48"/>
<polygon fill="midnightblue" stroke="midnightblue" points="598.79,-351.97 609.24,-350.2 599.97,-345.07 598.79,-351.97"/>
</g>
<!-- Node35&#45;&gt;Node25 -->
<g id="edge40" class="edge">
<title>Node35&#45;&gt;Node25</title>
<path fill="none" stroke="midnightblue" d="M492.31,-254.24C519.85,-251.29 564.03,-246.56 597.63,-242.96"/>
<polygon fill="midnightblue" stroke="midnightblue" points="598.12,-246.43 607.69,-241.89 597.37,-239.47 598.12,-246.43"/>
</g>
<!-- Node35&#45;&gt;Node32 -->
<g id="edge42" class="edge">
<title>Node35&#45;&gt;Node32</title>
<path fill="none" stroke="midnightblue" d="M492.03,-264.43C502.13,-267.63 513.75,-271.64 524,-276 540.65,-283.08 543.03,-288.73 560,-295 568.15,-298.01 576.93,-300.64 585.64,-302.89"/>
<polygon fill="midnightblue" stroke="midnightblue" points="584.85,-306.3 595.39,-305.29 586.51,-299.51 584.85,-306.3"/>
</g>
<!-- Node36 -->
<g id="node36" class="node">
<title>Node36</title>
<g id="a_node36"><a xlink:href="_receiver_code_2src_2main_8cpp.html#a7b232e8049c83655363495df07fc96d9" target="_top" xlink:title=" ">
<polygon fill="white" stroke="black" points="597.5,-266.5 597.5,-285.5 692.5,-285.5 692.5,-266.5 597.5,-266.5"/>
<text text-anchor="middle" x="645" y="-273.5" font-family="Helvetica,sans-Serif" font-size="10.00">LoadFailSafeData</text>
</a>
</g>
</g>
<!-- Node35&#45;&gt;Node36 -->
<g id="edge39" class="edge">
<title>Node35&#45;&gt;Node36</title>
<path fill="none" stroke="midnightblue" d="M492.31,-259.76C517.12,-262.42 555.46,-266.52 587.39,-269.94"/>
<polygon fill="midnightblue" stroke="midnightblue" points="587.18,-273.44 597.5,-271.02 587.93,-266.48 587.18,-273.44"/>
</g>
<!-- Node39&#45;&gt;Node23 -->
<g id="edge47" class="edge">
<title>Node39&#45;&gt;Node23</title>
<path fill="none" stroke="midnightblue" d="M329.8,-216.75C392.91,-213.38 512,-207.04 584.06,-203.19"/>
<polygon fill="midnightblue" stroke="midnightblue" points="584.53,-206.67 594.33,-202.65 584.16,-199.68 584.53,-206.67"/>
</g>
</g>
</svg>
