<?xml version="1.0" encoding="UTF-8" standalone="no"?>
<!DOCTYPE svg PUBLIC "-//W3C//DTD SVG 1.1//EN"
 "http://www.w3.org/Graphics/SVG/1.1/DTD/svg11.dtd">
<!-- Generated by graphviz version 2.44.0 ()
 -->
<!-- Title: ReceiveData Pages: 1 -->
<svg width="670pt" height="389pt"
 viewBox="0.00 0.00 670.00 389.00" xmlns="http://www.w3.org/2000/svg" xmlns:xlink="http://www.w3.org/1999/xlink">
<g id="graph0" class="graph" transform="scale(1 1) rotate(0) translate(4 385)">
<title>ReceiveData</title>
<polygon fill="white" stroke="transparent" points="-4,4 -4,-385 666,-385 666,4 -4,4"/>
<!-- Node1 -->
<g id="node1" class="node">
<title>Node1</title>
<g id="a_node1"><a xlink:title=" ">
<polygon fill="#bfbfbf" stroke="black" points="0,-218.5 0,-237.5 72,-237.5 72,-218.5 0,-218.5"/>
<text text-anchor="middle" x="36" y="-225.5" font-family="Helvetica,sans-Serif" font-size="10.00">ReceiveData</text>
</a>
</g>
</g>
<!-- Node2 -->
<g id="node2" class="node">
<title>Node2</title>
<g id="a_node2"><a xlink:href="_receiver_code_2src_2main_8cpp.html#abd09fca8fe7cb7240846989f1ccd6a94" target="_top" xlink:title=" ">
<polygon fill="white" stroke="black" points="126.5,-313.5 126.5,-332.5 204.5,-332.5 204.5,-313.5 126.5,-313.5"/>
<text text-anchor="middle" x="165.5" y="-320.5" font-family="Helvetica,sans-Serif" font-size="10.00">CheckParams</text>
</a>
</g>
</g>
<!-- Node1&#45;&gt;Node2 -->
<g id="edge1" class="edge">
<title>Node1&#45;&gt;Node2</title>
<path fill="none" stroke="midnightblue" d="M50.16,-237.81C72.23,-254.25 116.86,-287.5 143.36,-307.25"/>
<polygon fill="midnightblue" stroke="midnightblue" points="141.49,-310.22 151.6,-313.39 145.67,-304.6 141.49,-310.22"/>
</g>
<!-- Node6 -->
<g id="node6" class="node">
<title>Node6</title>
<g id="a_node6"><a xlink:href="_receiver_code_2src_2main_8cpp.html#a07ca94db0e305e9c01ec51e417576308" target="_top" xlink:title=" ">
<polygon fill="white" stroke="black" points="136,-237.5 136,-256.5 195,-256.5 195,-237.5 136,-237.5"/>
<text text-anchor="middle" x="165.5" y="-244.5" font-family="Helvetica,sans-Serif" font-size="10.00">ReadData</text>
</a>
</g>
</g>
<!-- Node1&#45;&gt;Node6 -->
<g id="edge5" class="edge">
<title>Node1&#45;&gt;Node6</title>
<path fill="none" stroke="midnightblue" d="M72.18,-233.24C88.78,-235.72 108.64,-238.68 125.69,-241.22"/>
<polygon fill="midnightblue" stroke="midnightblue" points="125.47,-244.72 135.88,-242.73 126.5,-237.8 125.47,-244.72"/>
</g>
<!-- Node18 -->
<g id="node18" class="node">
<title>Node18</title>
<g id="a_node18"><a xlink:href="_receiver_code_2src_2main_8cpp.html#ad446bbf28a88bff77a93ab753c7f15d3" target="_top" xlink:title=" ">
<polygon fill="white" stroke="black" points="108,-199.5 108,-218.5 223,-218.5 223,-199.5 108,-199.5"/>
<text text-anchor="middle" x="165.5" y="-206.5" font-family="Helvetica,sans-Serif" font-size="10.00">ReadTheNewGPSHub</text>
</a>
</g>
</g>
<!-- Node1&#45;&gt;Node18 -->
<g id="edge17" class="edge">
<title>Node1&#45;&gt;Node18</title>
<path fill="none" stroke="midnightblue" d="M72.18,-222.76C80.21,-221.56 89.01,-220.25 97.88,-218.93"/>
<polygon fill="midnightblue" stroke="midnightblue" points="98.51,-222.37 107.89,-217.44 97.48,-215.45 98.51,-222.37"/>
</g>
<!-- Node19 -->
<g id="node19" class="node">
<title>Node19</title>
<g id="a_node19"><a xlink:href="radio_8h.html#a692b8b0727e0db358f99c7bf4e8235c0" target="_top" xlink:title=" ">
<polygon fill="white" stroke="black" points="134,-57.5 134,-76.5 197,-76.5 197,-57.5 134,-57.5"/>
<text text-anchor="middle" x="165.5" y="-64.5" font-family="Helvetica,sans-Serif" font-size="10.00">Reconnect</text>
</a>
</g>
</g>
<!-- Node1&#45;&gt;Node19 -->
<g id="edge18" class="edge">
<title>Node1&#45;&gt;Node19</title>
<path fill="none" stroke="midnightblue" d="M44.59,-218.41C65.36,-192.19 123.34,-118.97 150.34,-84.88"/>
<polygon fill="midnightblue" stroke="midnightblue" points="153.32,-86.75 156.78,-76.74 147.83,-82.41 153.32,-86.75"/>
</g>
<!-- Node3 -->
<g id="node3" class="node">
<title>Node3</title>
<g id="a_node3"><a xlink:href="_receiver_code_2src_2main_8cpp.html#a5ae8a2aa29e834880ccf370c7547961b" target="_top" xlink:title=" ">
<polygon fill="white" stroke="black" points="277,-356.5 277,-375.5 336,-375.5 336,-356.5 277,-356.5"/>
<text text-anchor="middle" x="306.5" y="-363.5" font-family="Helvetica,sans-Serif" font-size="10.00">MarkHere</text>
</a>
</g>
</g>
<!-- Node2&#45;&gt;Node3 -->
<g id="edge2" class="edge">
<title>Node2&#45;&gt;Node3</title>
<path fill="none" stroke="midnightblue" d="M197.35,-332.54C217.88,-338.89 245.01,-347.29 266.96,-354.08"/>
<polygon fill="midnightblue" stroke="midnightblue" points="266.05,-357.46 276.64,-357.07 268.12,-350.77 266.05,-357.46"/>
</g>
<!-- Node5 -->
<g id="node5" class="node">
<title>Node5</title>
<g id="a_node5"><a xlink:href="_receiver_code_2src_2main_8cpp.html#ad86a39e4cba19592c760833870f6f69c" target="_top" xlink:title=" ">
<polygon fill="white" stroke="black" points="270,-313.5 270,-332.5 343,-332.5 343,-313.5 270,-313.5"/>
<text text-anchor="middle" x="306.5" y="-320.5" font-family="Helvetica,sans-Serif" font-size="10.00">RebuildFlags</text>
</a>
</g>
</g>
<!-- Node2&#45;&gt;Node5 -->
<g id="edge4" class="edge">
<title>Node2&#45;&gt;Node5</title>
<path fill="none" stroke="midnightblue" d="M204.85,-323C221.78,-323 241.81,-323 259.54,-323"/>
<polygon fill="midnightblue" stroke="midnightblue" points="259.66,-326.5 269.66,-323 259.66,-319.5 259.66,-326.5"/>
</g>
<!-- Node4 -->
<g id="node4" class="node">
<title>Node4</title>
<g id="a_node4"><a xlink:href="_receiver_code_2src_2main_8cpp.html#af5a21ef36cbe9f8a4dd5c509e8b93892" target="_top" xlink:title=" ">
<polygon fill="white" stroke="black" points="390,-361.5 390,-380.5 516,-380.5 516,-361.5 390,-361.5"/>
<text text-anchor="middle" x="453" y="-368.5" font-family="Helvetica,sans-Serif" font-size="10.00">SendToTheNewGPSHub</text>
</a>
</g>
</g>
<!-- Node3&#45;&gt;Node4 -->
<g id="edge3" class="edge">
<title>Node3&#45;&gt;Node4</title>
<path fill="none" stroke="midnightblue" d="M336.05,-366.99C348.67,-367.42 364.13,-367.96 379.6,-368.49"/>
<polygon fill="midnightblue" stroke="midnightblue" points="379.63,-372 389.74,-368.85 379.87,-365 379.63,-372"/>
</g>
<!-- Node7 -->
<g id="node7" class="node">
<title>Node7</title>
<g id="a_node7"><a xlink:href="radio_8h.html#a664f409561bfcf119e0379dd991217e5" target="_top" xlink:title=" ">
<polygon fill="white" stroke="black" points="261.5,-266.5 261.5,-285.5 351.5,-285.5 351.5,-266.5 261.5,-266.5"/>
<text text-anchor="middle" x="306.5" y="-273.5" font-family="Helvetica,sans-Serif" font-size="10.00">LoadAckPayload</text>
</a>
</g>
</g>
<!-- Node6&#45;&gt;Node7 -->
<g id="edge6" class="edge">
<title>Node6&#45;&gt;Node7</title>
<path fill="none" stroke="midnightblue" d="M195.3,-253.01C211.55,-256.4 232.39,-260.75 251.56,-264.75"/>
<polygon fill="midnightblue" stroke="midnightblue" points="250.9,-268.18 261.4,-266.8 252.33,-261.33 250.9,-268.18"/>
</g>
<!-- Node12 -->
<g id="node12" class="node">
<title>Node12</title>
<g id="a_node12"><a xlink:href="_receiver_code_2src_2main_8cpp.html#abb1997c589abc6432f612eaedf985e38" target="_top" xlink:title=" ">
<polygon fill="white" stroke="black" points="259,-171.5 259,-190.5 354,-190.5 354,-171.5 259,-171.5"/>
<text text-anchor="middle" x="306.5" y="-178.5" font-family="Helvetica,sans-Serif" font-size="10.00">UseReceivedData</text>
</a>
</g>
</g>
<!-- Node6&#45;&gt;Node12 -->
<g id="edge11" class="edge">
<title>Node6&#45;&gt;Node12</title>
<path fill="none" stroke="midnightblue" d="M195.08,-238.58C204.15,-235.59 214.12,-231.98 223,-228 243.62,-218.76 265.82,-205.94 281.99,-196.02"/>
<polygon fill="midnightblue" stroke="midnightblue" points="284.11,-198.82 290.75,-190.57 280.41,-192.88 284.11,-198.82"/>
</g>
<!-- Node8 -->
<g id="node8" class="node">
<title>Node8</title>
<g id="a_node8"><a xlink:href="radio_8h.html#a3830d14fd002f2ec6d0843b15139360a" target="_top" xlink:title=" ">
<polygon fill="white" stroke="black" points="408.5,-323.5 408.5,-342.5 497.5,-342.5 497.5,-323.5 408.5,-323.5"/>
<text text-anchor="middle" x="453" y="-330.5" font-family="Helvetica,sans-Serif" font-size="10.00">LoadTimeStamp</text>
</a>
</g>
</g>
<!-- Node7&#45;&gt;Node8 -->
<g id="edge7" class="edge">
<title>Node7&#45;&gt;Node8</title>
<path fill="none" stroke="midnightblue" d="M326.52,-285.65C343.05,-293.82 367.75,-305.51 390,-314 395.87,-316.24 402.12,-318.4 408.31,-320.42"/>
<polygon fill="midnightblue" stroke="midnightblue" points="407.34,-323.78 417.93,-323.46 409.45,-317.11 407.34,-323.78"/>
</g>
<!-- Node10 -->
<g id="node10" class="node">
<title>Node10</title>
<g id="a_node10"><a xlink:href="radio_8h.html#af067d2e9e8981a59af86ec75a0db36b4" target="_top" xlink:title=" ">
<polygon fill="white" stroke="black" points="402.5,-285.5 402.5,-304.5 503.5,-304.5 503.5,-285.5 402.5,-285.5"/>
<text text-anchor="middle" x="453" y="-292.5" font-family="Helvetica,sans-Serif" font-size="10.00">LoadVersioNumber</text>
</a>
</g>
</g>
<!-- Node7&#45;&gt;Node10 -->
<g id="edge9" class="edge">
<title>Node7&#45;&gt;Node10</title>
<path fill="none" stroke="midnightblue" d="M351.64,-281.8C364.4,-283.48 378.56,-285.34 392.11,-287.13"/>
<polygon fill="midnightblue" stroke="midnightblue" points="391.95,-290.63 402.33,-288.47 392.87,-283.69 391.95,-290.63"/>
</g>
<!-- Node11 -->
<g id="node11" class="node">
<title>Node11</title>
<g id="a_node11"><a xlink:href="radio_8h.html#a18c826138f01a3dde332cc6e0f98d3e0" target="_top" xlink:title=" ">
<polygon fill="white" stroke="black" points="402,-247.5 402,-266.5 504,-266.5 504,-247.5 402,-247.5"/>
<text text-anchor="middle" x="453" y="-254.5" font-family="Helvetica,sans-Serif" font-size="10.00">SendToAckPayload</text>
</a>
</g>
</g>
<!-- Node7&#45;&gt;Node11 -->
<g id="edge10" class="edge">
<title>Node7&#45;&gt;Node11</title>
<path fill="none" stroke="midnightblue" d="M351.64,-270.2C364.27,-268.54 378.26,-266.7 391.69,-264.93"/>
<polygon fill="midnightblue" stroke="midnightblue" points="392.35,-268.37 401.81,-263.6 391.44,-261.43 392.35,-268.37"/>
</g>
<!-- Node9 -->
<g id="node9" class="node">
<title>Node9</title>
<g id="a_node9"><a xlink:href="radio_8h.html#a5cbe0c69c07d5818a956b9155820cf76" target="_top" xlink:title=" ">
<polygon fill="white" stroke="black" points="558,-323.5 558,-342.5 656,-342.5 656,-323.5 558,-323.5"/>
<text text-anchor="middle" x="607" y="-330.5" font-family="Helvetica,sans-Serif" font-size="10.00">GetNextFrequency</text>
</a>
</g>
</g>
<!-- Node8&#45;&gt;Node9 -->
<g id="edge8" class="edge">
<title>Node8&#45;&gt;Node9</title>
<path fill="none" stroke="midnightblue" d="M497.56,-333C513.18,-333 531.05,-333 547.71,-333"/>
<polygon fill="midnightblue" stroke="midnightblue" points="547.9,-336.5 557.9,-333 547.9,-329.5 547.9,-336.5"/>
</g>
<!-- Node13 -->
<g id="node13" class="node">
<title>Node13</title>
<g id="a_node13"><a xlink:href="_receiver_code_2src_2main_8cpp.html#a5a26715a721e1073d6ae00498282c056" target="_top" xlink:title=" ">
<polygon fill="white" stroke="black" points="407.5,-209.5 407.5,-228.5 498.5,-228.5 498.5,-209.5 407.5,-209.5"/>
<text text-anchor="middle" x="453" y="-216.5" font-family="Helvetica,sans-Serif" font-size="10.00">ClearAckPayload</text>
</a>
</g>
</g>
<!-- Node12&#45;&gt;Node13 -->
<g id="edge12" class="edge">
<title>Node12&#45;&gt;Node13</title>
<path fill="none" stroke="midnightblue" d="M343.96,-190.59C362.77,-195.54 385.91,-201.62 405.95,-206.89"/>
<polygon fill="midnightblue" stroke="midnightblue" points="405.24,-210.32 415.8,-209.48 407.02,-203.55 405.24,-210.32"/>
</g>
<!-- Node14 -->
<g id="node14" class="node">
<title>Node14</title>
<g id="a_node14"><a xlink:href="radio_8h.html#a8e1f4879c351e462d6bca620ae4279e2" target="_top" xlink:title=" ">
<polygon fill="white" stroke="black" points="417.5,-171.5 417.5,-190.5 488.5,-190.5 488.5,-171.5 417.5,-171.5"/>
<text text-anchor="middle" x="453" y="-178.5" font-family="Helvetica,sans-Serif" font-size="10.00">Decompress</text>
</a>
</g>
</g>
<!-- Node12&#45;&gt;Node14 -->
<g id="edge13" class="edge">
<title>Node12&#45;&gt;Node14</title>
<path fill="none" stroke="midnightblue" d="M354.02,-181C371.1,-181 390.39,-181 407.3,-181"/>
<polygon fill="midnightblue" stroke="midnightblue" points="407.49,-184.5 417.49,-181 407.49,-177.5 407.49,-184.5"/>
</g>
<!-- Node15 -->
<g id="node15" class="node">
<title>Node15</title>
<g id="a_node15"><a xlink:href="radio_8h.html#aa48ea4c5d47aa93d17dbc7d7b19238d8" target="_top" xlink:title=" ">
<polygon fill="white" stroke="black" points="397.5,-133.5 397.5,-152.5 508.5,-152.5 508.5,-133.5 397.5,-133.5"/>
<text text-anchor="middle" x="453" y="-140.5" font-family="Helvetica,sans-Serif" font-size="10.00">HopToNextFrequency</text>
</a>
</g>
</g>
<!-- Node12&#45;&gt;Node15 -->
<g id="edge14" class="edge">
<title>Node12&#45;&gt;Node15</title>
<path fill="none" stroke="midnightblue" d="M343.96,-171.41C362.77,-166.46 385.91,-160.38 405.95,-155.11"/>
<polygon fill="midnightblue" stroke="midnightblue" points="407.02,-158.45 415.8,-152.52 405.24,-151.68 407.02,-158.45"/>
</g>
<!-- Node17 -->
<g id="node17" class="node">
<title>Node17</title>
<g id="a_node17"><a xlink:href="_receiver_code_2src_2main_8cpp.html#a6a495c5560f12cc3fd3df9454927d681" target="_top" xlink:title=" ">
<polygon fill="white" stroke="black" points="416,-95.5 416,-114.5 490,-114.5 490,-95.5 416,-95.5"/>
<text text-anchor="middle" x="453" y="-102.5" font-family="Helvetica,sans-Serif" font-size="10.00">MapToSBUS</text>
</a>
</g>
</g>
<!-- Node12&#45;&gt;Node17 -->
<g id="edge16" class="edge">
<title>Node12&#45;&gt;Node17</title>
<path fill="none" stroke="midnightblue" d="M318.82,-171.48C334.1,-159.04 362.58,-137.28 390,-124 395.07,-121.55 400.52,-119.33 406.01,-117.34"/>
<polygon fill="midnightblue" stroke="midnightblue" points="407.51,-120.53 415.87,-114.03 405.28,-113.9 407.51,-120.53"/>
</g>
<!-- Node16 -->
<g id="node16" class="node">
<title>Node16</title>
<g id="a_node16"><a xlink:href="radio_8h.html#a2863e7455e30e6fddc0fcf56f62d6564" target="_top" xlink:title=" ">
<polygon fill="white" stroke="black" points="552,-133.5 552,-152.5 662,-152.5 662,-133.5 552,-133.5"/>
<text text-anchor="middle" x="607" y="-140.5" font-family="Helvetica,sans-Serif" font-size="10.00">ShowHopDurationEtc</text>
</a>
</g>
</g>
<!-- Node15&#45;&gt;Node16 -->
<g id="edge15" class="edge">
<title>Node15&#45;&gt;Node16</title>
<path fill="none" stroke="midnightblue" d="M508.88,-143C519.51,-143 530.74,-143 541.64,-143"/>
<polygon fill="midnightblue" stroke="midnightblue" points="541.97,-146.5 551.97,-143 541.97,-139.5 541.97,-146.5"/>
</g>
<!-- Node20 -->
<g id="node20" class="node">
<title>Node20</title>
<g id="a_node20"><a xlink:href="radio_8h.html#a42318598726782ebb2e1857f167c8cda" target="_top" xlink:title=" ">
<polygon fill="white" stroke="black" points="280,-76.5 280,-95.5 333,-95.5 333,-76.5 280,-76.5"/>
<text text-anchor="middle" x="306.5" y="-83.5" font-family="Helvetica,sans-Serif" font-size="10.00">FailSafe</text>
</a>
</g>
</g>
<!-- Node19&#45;&gt;Node20 -->
<g id="edge19" class="edge">
<title>Node19&#45;&gt;Node20</title>
<path fill="none" stroke="midnightblue" d="M197,-71.17C218.39,-74.09 247.06,-78.01 269.56,-81.09"/>
<polygon fill="midnightblue" stroke="midnightblue" points="269.35,-84.59 279.73,-82.48 270.3,-77.66 269.35,-84.59"/>
</g>
<!-- Node24 -->
<g id="node24" class="node">
<title>Node24</title>
<g id="a_node24"><a xlink:href="radio_8h.html#a6e2d4126d864c50e7c23c988c2bfdd1a" target="_top" xlink:title=" ">
<polygon fill="white" stroke="black" points="283,-38.5 283,-57.5 330,-57.5 330,-38.5 283,-38.5"/>
<text text-anchor="middle" x="306.5" y="-45.5" font-family="Helvetica,sans-Serif" font-size="10.00">Radio1</text>
</a>
</g>
</g>
<!-- Node19&#45;&gt;Node24 -->
<g id="edge24" class="edge">
<title>Node19&#45;&gt;Node24</title>
<path fill="none" stroke="midnightblue" d="M197,-62.83C219.46,-59.76 249.94,-55.59 272.88,-52.46"/>
<polygon fill="midnightblue" stroke="midnightblue" points="273.4,-55.92 282.83,-51.1 272.45,-48.99 273.4,-55.92"/>
</g>
<!-- Node25 -->
<g id="node25" class="node">
<title>Node25</title>
<g id="a_node25"><a xlink:href="radio_8h.html#a8b76f3c338025926421c7b308405bbfd" target="_top" xlink:title=" ">
<polygon fill="white" stroke="black" points="283,-0.5 283,-19.5 330,-19.5 330,-0.5 283,-0.5"/>
<text text-anchor="middle" x="306.5" y="-7.5" font-family="Helvetica,sans-Serif" font-size="10.00">Radio2</text>
</a>
</g>
</g>
<!-- Node19&#45;&gt;Node25 -->
<g id="edge25" class="edge">
<title>Node19&#45;&gt;Node25</title>
<path fill="none" stroke="midnightblue" d="M189.68,-57.46C208.39,-49.77 235.38,-38.68 259,-29 263.6,-27.12 268.46,-25.13 273.23,-23.18"/>
<polygon fill="midnightblue" stroke="midnightblue" points="274.86,-26.29 282.79,-19.27 272.21,-19.81 274.86,-26.29"/>
</g>
<!-- Node20&#45;&gt;Node17 -->
<g id="edge21" class="edge">
<title>Node20&#45;&gt;Node17</title>
<path fill="none" stroke="midnightblue" d="M333,-89.35C353.13,-92 381.76,-95.76 405.88,-98.94"/>
<polygon fill="midnightblue" stroke="midnightblue" points="405.54,-102.42 415.91,-100.25 406.45,-95.48 405.54,-102.42"/>
</g>
<!-- Node21 -->
<g id="node21" class="node">
<title>Node21</title>
<g id="a_node21"><a xlink:href="_receiver_code_2src_2main_8cpp.html#a7b232e8049c83655363495df07fc96d9" target="_top" xlink:title=" ">
<polygon fill="white" stroke="black" points="405.5,-57.5 405.5,-76.5 500.5,-76.5 500.5,-57.5 405.5,-57.5"/>
<text text-anchor="middle" x="453" y="-64.5" font-family="Helvetica,sans-Serif" font-size="10.00">LoadFailSafeData</text>
</a>
</g>
</g>
<!-- Node20&#45;&gt;Node21 -->
<g id="edge20" class="edge">
<title>Node20&#45;&gt;Node21</title>
<path fill="none" stroke="midnightblue" d="M333,-82.65C350.28,-80.38 373.8,-77.28 395.38,-74.45"/>
<polygon fill="midnightblue" stroke="midnightblue" points="395.99,-77.89 405.45,-73.12 395.08,-70.95 395.99,-77.89"/>
</g>
<!-- Node22 -->
<g id="node22" class="node">
<title>Node22</title>
<g id="a_node22"><a xlink:href="_receiver_code_2src_2main_8cpp.html#a6f2443a0666140cf4d8b7352bb3b793c" target="_top" xlink:title=" ">
<polygon fill="white" stroke="black" points="417.5,-19.5 417.5,-38.5 488.5,-38.5 488.5,-19.5 417.5,-19.5"/>
<text text-anchor="middle" x="453" y="-26.5" font-family="Helvetica,sans-Serif" font-size="10.00">MoveServos</text>
</a>
</g>
</g>
<!-- Node20&#45;&gt;Node22 -->
<g id="edge22" class="edge">
<title>Node20&#45;&gt;Node22</title>
<path fill="none" stroke="midnightblue" d="M332.31,-76.39C339.38,-73.51 347.05,-70.25 354,-67 370.39,-59.35 373.28,-54.9 390,-48 395.6,-45.69 401.58,-43.51 407.55,-41.51"/>
<polygon fill="midnightblue" stroke="midnightblue" points="409.03,-44.71 417.48,-38.32 406.89,-38.04 409.03,-44.71"/>
</g>
<!-- Node23 -->
<g id="node23" class="node">
<title>Node23</title>
<g id="a_node23"><a xlink:href="_receiver_code_2src_2main_8cpp.html#a5424788640aaa8d535d6ea077949ef82" target="_top" xlink:title=" ">
<polygon fill="white" stroke="black" points="581,-19.5 581,-38.5 633,-38.5 633,-19.5 581,-19.5"/>
<text text-anchor="middle" x="607" y="-26.5" font-family="Helvetica,sans-Serif" font-size="10.00">MySbus</text>
</a>
</g>
</g>
<!-- Node22&#45;&gt;Node23 -->
<g id="edge23" class="edge">
<title>Node22&#45;&gt;Node23</title>
<path fill="none" stroke="midnightblue" d="M488.87,-29C513.41,-29 546.14,-29 570.76,-29"/>
<polygon fill="midnightblue" stroke="midnightblue" points="570.77,-32.5 580.77,-29 570.77,-25.5 570.77,-32.5"/>
</g>
</g>
</svg>
