<?xml version="1.0" encoding="UTF-8" standalone="no"?>
<!DOCTYPE svg PUBLIC "-//W3C//DTD SVG 1.1//EN"
 "http://www.w3.org/Graphics/SVG/1.1/DTD/svg11.dtd">
<!-- Generated by graphviz version 3.0.0 (20220413.0242)
 -->
<!-- Title: ReadData Pages: 1 -->
<svg width="743pt" height="290pt"
 viewBox="0.00 0.00 743.00 289.97" xmlns="http://www.w3.org/2000/svg" xmlns:xlink="http://www.w3.org/1999/xlink">
<g id="graph0" class="graph" transform="scale(1 1) rotate(0) translate(4 285.97)">
<title>ReadData</title>
<polygon fill="white" stroke="transparent" points="-4,4 -4,-285.97 739,-285.97 739,4 -4,4"/>
<!-- Node1 -->
<g id="node1" class="node">
<title>Node1</title>
<g id="a_node1"><a xlink:title=" ">
<polygon fill="#bfbfbf" stroke="black" points="0,-95.5 0,-114.5 59,-114.5 59,-95.5 0,-95.5"/>
<text text-anchor="middle" x="29.5" y="-102.5" font-family="Helvetica,sans-Serif" font-size="10.00">ReadData</text>
</a>
</g>
</g>
<!-- Node2 -->
<g id="node2" class="node">
<title>Node2</title>
<g id="a_node2"><a xlink:href="radio_8h.html#a664f409561bfcf119e0379dd991217e5" target="_top" xlink:title=" ">
<polygon fill="white" stroke="black" points="97.5,-171.5 97.5,-190.5 187.5,-190.5 187.5,-171.5 97.5,-171.5"/>
<text text-anchor="middle" x="142.5" y="-178.5" font-family="Helvetica,sans-Serif" font-size="10.00">LoadAckPayload</text>
</a>
</g>
</g>
<!-- Node1&#45;&gt;Node2 -->
<g id="edge1" class="edge">
<title>Node1&#45;&gt;Node2</title>
<path fill="none" stroke="midnightblue" d="M44.56,-114.63C63.32,-127.47 96.78,-150.38 119.05,-165.63"/>
<polygon fill="midnightblue" stroke="midnightblue" points="117.33,-168.69 127.56,-171.45 121.28,-162.92 117.33,-168.69"/>
</g>
<!-- Node9 -->
<g id="node9" class="node">
<title>Node9</title>
<g id="a_node9"><a xlink:href="_receiver_code_2src_2main_8cpp.html#abb1997c589abc6432f612eaedf985e38" target="_top" xlink:title=" ">
<polygon fill="white" stroke="black" points="95,-57.5 95,-76.5 190,-76.5 190,-57.5 95,-57.5"/>
<text text-anchor="middle" x="142.5" y="-64.5" font-family="Helvetica,sans-Serif" font-size="10.00">UseReceivedData</text>
</a>
</g>
</g>
<!-- Node1&#45;&gt;Node9 -->
<g id="edge11" class="edge">
<title>Node1&#45;&gt;Node9</title>
<path fill="none" stroke="midnightblue" d="M58.51,-95.41C72.18,-90.73 88.83,-85.03 103.62,-79.97"/>
<polygon fill="midnightblue" stroke="midnightblue" points="105.17,-83.14 113.5,-76.59 102.9,-76.51 105.17,-83.14"/>
</g>
<!-- Node3 -->
<g id="node3" class="node">
<title>Node3</title>
<g id="a_node3"><a xlink:href="radio_8h.html#affa2dcc4341b8daecac77e6e0a354b2d" target="_top" xlink:title=" ">
<polygon fill="white" stroke="black" points="433,-261.5 433,-280.5 555,-280.5 555,-261.5 433,-261.5"/>
<text text-anchor="middle" x="494" y="-268.5" font-family="Helvetica,sans-Serif" font-size="10.00">SendDateToAckPayload</text>
</a>
</g>
</g>
<!-- Node2&#45;&gt;Node3 -->
<g id="edge2" class="edge">
<title>Node2&#45;&gt;Node3</title>
<path fill="none" stroke="midnightblue" d="M150.32,-190.69C162.97,-207.73 191.9,-242.65 226,-257 288.73,-283.4 367.19,-284.15 422.78,-279.98"/>
<polygon fill="midnightblue" stroke="midnightblue" points="423.21,-283.45 432.89,-279.14 422.64,-276.48 423.21,-283.45"/>
</g>
<!-- Node5 -->
<g id="node5" class="node">
<title>Node5</title>
<g id="a_node5"><a xlink:href="radio_8h.html#ab6bb1ded4e272b24f150c28295f4d291" target="_top" xlink:title=" ">
<polygon fill="white" stroke="black" points="264,-228.5 264,-247.5 358,-247.5 358,-228.5 264,-228.5"/>
<text text-anchor="middle" x="311" y="-235.5" font-family="Helvetica,sans-Serif" font-size="10.00">SendMacAddress</text>
</a>
</g>
</g>
<!-- Node2&#45;&gt;Node5 -->
<g id="edge4" class="edge">
<title>Node2&#45;&gt;Node5</title>
<path fill="none" stroke="midnightblue" d="M165.68,-190.59C182.16,-197.54 205.27,-206.91 226,-214 238.12,-218.14 251.38,-222.16 263.71,-225.69"/>
<polygon fill="midnightblue" stroke="midnightblue" points="262.79,-229.07 273.36,-228.41 264.69,-222.33 262.79,-229.07"/>
</g>
<!-- Node6 -->
<g id="node6" class="node">
<title>Node6</title>
<g id="a_node6"><a xlink:href="radio_8h.html#a632401c7e72610ff0a0678358b6877ad" target="_top" xlink:title=" ">
<polygon fill="white" stroke="black" points="443,-218.5 443,-237.5 545,-237.5 545,-218.5 443,-218.5"/>
<text text-anchor="middle" x="494" y="-225.5" font-family="Helvetica,sans-Serif" font-size="10.00">SendToAckPayload</text>
</a>
</g>
</g>
<!-- Node2&#45;&gt;Node6 -->
<g id="edge9" class="edge">
<title>Node2&#45;&gt;Node6</title>
<path fill="none" stroke="midnightblue" d="M187.76,-186.95C249.92,-195.31 363.23,-210.55 432.94,-219.92"/>
<polygon fill="midnightblue" stroke="midnightblue" points="432.52,-223.4 442.89,-221.26 433.45,-216.46 432.52,-223.4"/>
</g>
<!-- Node7 -->
<g id="node7" class="node">
<title>Node7</title>
<g id="a_node7"><a xlink:href="radio_8h.html#a8162c1748e39496c4adf88c55d1c49b8" target="_top" xlink:title=" ">
<polygon fill="white" stroke="black" points="432,-171.5 432,-190.5 556,-190.5 556,-171.5 432,-171.5"/>
<text text-anchor="middle" x="494" y="-178.5" font-family="Helvetica,sans-Serif" font-size="10.00">SendTimeToAckPayload</text>
</a>
</g>
</g>
<!-- Node2&#45;&gt;Node7 -->
<g id="edge7" class="edge">
<title>Node2&#45;&gt;Node7</title>
<path fill="none" stroke="midnightblue" d="M187.76,-181C246.68,-181 351.56,-181 421.7,-181"/>
<polygon fill="midnightblue" stroke="midnightblue" points="421.78,-184.5 431.78,-181 421.78,-177.5 421.78,-184.5"/>
</g>
<!-- Node8 -->
<g id="node8" class="node">
<title>Node8</title>
<g id="a_node8"><a xlink:href="radio_8h.html#af56956a6b17dbdfc9fceedeb5a13cb71" target="_top" xlink:title=" ">
<polygon fill="white" stroke="black" points="226,-114.5 226,-133.5 396,-133.5 396,-114.5 226,-114.5"/>
<text text-anchor="middle" x="311" y="-121.5" font-family="Helvetica,sans-Serif" font-size="10.00">SendVersionNumberToAckPayload</text>
</a>
</g>
</g>
<!-- Node2&#45;&gt;Node8 -->
<g id="edge10" class="edge">
<title>Node2&#45;&gt;Node8</title>
<path fill="none" stroke="midnightblue" d="M165.68,-171.41C182.16,-164.46 205.27,-155.09 226,-148 238.12,-143.86 251.38,-139.84 263.71,-136.31"/>
<polygon fill="midnightblue" stroke="midnightblue" points="264.69,-139.67 273.36,-133.59 262.79,-132.93 264.69,-139.67"/>
</g>
<!-- Node4 -->
<g id="node4" class="node">
<title>Node4</title>
<g id="a_node4"><a xlink:href="radio_8h.html#ad21c5c00ff554736e4e21cee13773cd5" target="_top" xlink:title=" ">
<polygon fill="white" stroke="black" points="592,-218.5 592,-237.5 735,-237.5 735,-218.5 592,-218.5"/>
<text text-anchor="middle" x="663.5" y="-225.5" font-family="Helvetica,sans-Serif" font-size="10.00">CheckWhetherItsTimeToHop</text>
</a>
</g>
</g>
<!-- Node3&#45;&gt;Node4 -->
<g id="edge3" class="edge">
<title>Node3&#45;&gt;Node4</title>
<path fill="none" stroke="midnightblue" d="M532.17,-261.46C556.79,-255.14 589.27,-246.8 615.65,-240.03"/>
<polygon fill="midnightblue" stroke="midnightblue" points="616.61,-243.39 625.43,-237.52 614.87,-236.61 616.61,-243.39"/>
</g>
<!-- Node5&#45;&gt;Node6 -->
<g id="edge5" class="edge">
<title>Node5&#45;&gt;Node6</title>
<path fill="none" stroke="midnightblue" d="M358.14,-235.45C380.78,-234.2 408.33,-232.68 432.62,-231.34"/>
<polygon fill="midnightblue" stroke="midnightblue" points="433.02,-234.82 442.81,-230.77 432.63,-227.83 433.02,-234.82"/>
</g>
<!-- Node6&#45;&gt;Node4 -->
<g id="edge6" class="edge">
<title>Node6&#45;&gt;Node4</title>
<path fill="none" stroke="midnightblue" d="M545.26,-228C556.7,-228 569.14,-228 581.5,-228"/>
<polygon fill="midnightblue" stroke="midnightblue" points="581.84,-231.5 591.84,-228 581.84,-224.5 581.84,-231.5"/>
</g>
<!-- Node7&#45;&gt;Node4 -->
<g id="edge8" class="edge">
<title>Node7&#45;&gt;Node4</title>
<path fill="none" stroke="midnightblue" d="M528.9,-190.51C554.69,-197.75 590.41,-207.77 618.43,-215.63"/>
<polygon fill="midnightblue" stroke="midnightblue" points="617.79,-219.09 628.37,-218.42 619.68,-212.35 617.79,-219.09"/>
</g>
<!-- Node10 -->
<g id="node10" class="node">
<title>Node10</title>
<g id="a_node10"><a xlink:href="radio_8h.html#a6feccc8c0583de3235616d42076f1371" target="_top" xlink:title=" ">
<polygon fill="white" stroke="black" points="275.5,-76.5 275.5,-95.5 346.5,-95.5 346.5,-76.5 275.5,-76.5"/>
<text text-anchor="middle" x="311" y="-83.5" font-family="Helvetica,sans-Serif" font-size="10.00">Decompress</text>
</a>
</g>
</g>
<!-- Node9&#45;&gt;Node10 -->
<g id="edge12" class="edge">
<title>Node9&#45;&gt;Node10</title>
<path fill="none" stroke="midnightblue" d="M190.32,-72.34C213.76,-75.02 242,-78.24 265.16,-80.88"/>
<polygon fill="midnightblue" stroke="midnightblue" points="265.07,-84.4 275.4,-82.05 265.87,-77.44 265.07,-84.4"/>
</g>
<!-- Node11 -->
<g id="node11" class="node">
<title>Node11</title>
<g id="a_node11"><a xlink:href="radio_8h.html#a62ec0168b1eea5f5c14f663d9217574d" target="_top" xlink:title=" ">
<polygon fill="white" stroke="black" points="260.5,-38.5 260.5,-57.5 361.5,-57.5 361.5,-38.5 260.5,-38.5"/>
<text text-anchor="middle" x="311" y="-45.5" font-family="Helvetica,sans-Serif" font-size="10.00">HopToNextChannel</text>
</a>
</g>
</g>
<!-- Node9&#45;&gt;Node11 -->
<g id="edge13" class="edge">
<title>Node9&#45;&gt;Node11</title>
<path fill="none" stroke="midnightblue" d="M190.32,-61.66C208.92,-59.54 230.53,-57.07 250.23,-54.82"/>
<polygon fill="midnightblue" stroke="midnightblue" points="250.79,-58.28 260.33,-53.67 250,-51.32 250.79,-58.28"/>
</g>
<!-- Node13 -->
<g id="node13" class="node">
<title>Node13</title>
<g id="a_node13"><a xlink:href="_receiver_code_2src_2main_8cpp.html#a6a495c5560f12cc3fd3df9454927d681" target="_top" xlink:title=" ">
<polygon fill="white" stroke="black" points="274,-0.5 274,-19.5 348,-19.5 348,-0.5 274,-0.5"/>
<text text-anchor="middle" x="311" y="-7.5" font-family="Helvetica,sans-Serif" font-size="10.00">MapToSBUS</text>
</a>
</g>
</g>
<!-- Node9&#45;&gt;Node13 -->
<g id="edge15" class="edge">
<title>Node9&#45;&gt;Node13</title>
<path fill="none" stroke="midnightblue" d="M161.4,-57.42C177.82,-48.97 203,-36.8 226,-29 238.18,-24.87 251.65,-21.37 264.18,-18.54"/>
<polygon fill="midnightblue" stroke="midnightblue" points="264.95,-21.96 273.98,-16.42 263.47,-15.12 264.95,-21.96"/>
</g>
<!-- Node12 -->
<g id="node12" class="node">
<title>Node12</title>
<g id="a_node12"><a xlink:href="radio_8h.html#a2863e7455e30e6fddc0fcf56f62d6564" target="_top" xlink:title=" ">
<polygon fill="white" stroke="black" points="439,-38.5 439,-57.5 549,-57.5 549,-38.5 439,-38.5"/>
<text text-anchor="middle" x="494" y="-45.5" font-family="Helvetica,sans-Serif" font-size="10.00">ShowHopDurationEtc</text>
</a>
</g>
</g>
<!-- Node11&#45;&gt;Node12 -->
<g id="edge14" class="edge">
<title>Node11&#45;&gt;Node12</title>
<path fill="none" stroke="midnightblue" d="M361.94,-48C382.53,-48 406.66,-48 428.57,-48"/>
<polygon fill="midnightblue" stroke="midnightblue" points="428.78,-51.5 438.78,-48 428.78,-44.5 428.78,-51.5"/>
</g>
</g>
</svg>
