<?xml version="1.0" encoding="UTF-8" standalone="no"?>
<!DOCTYPE svg PUBLIC "-//W3C//DTD SVG 1.1//EN"
 "http://www.w3.org/Graphics/SVG/1.1/DTD/svg11.dtd">
<!-- Generated by graphviz version 3.0.0 (20220413.0242)
 -->
<!-- Title: MapToSBUS Pages: 1 -->
<svg width="575pt" height="195pt"
 viewBox="0.00 0.00 575.00 194.79" xmlns="http://www.w3.org/2000/svg" xmlns:xlink="http://www.w3.org/1999/xlink">
<g id="graph0" class="graph" transform="scale(1 1) rotate(0) translate(4 190.79)">
<title>MapToSBUS</title>
<polygon fill="white" stroke="transparent" points="-4,4 -4,-190.79 571,-190.79 571,4 -4,4"/>
<!-- Node1 -->
<g id="node1" class="node">
<title>Node1</title>
<g id="a_node1"><a xlink:title=" ">
<polygon fill="#bfbfbf" stroke="black" points="493,-104.5 493,-123.5 567,-123.5 567,-104.5 493,-104.5"/>
<text text-anchor="middle" x="530" y="-111.5" font-family="Helvetica,sans-Serif" font-size="10.00">MapToSBUS</text>
</a>
</g>
</g>
<!-- Node2 -->
<g id="node2" class="node">
<title>Node2</title>
<g id="a_node2"><a xlink:href="_receiver_code_2src_2main_8cpp.html#a42318598726782ebb2e1857f167c8cda" target="_top" xlink:title=" ">
<polygon fill="white" stroke="black" points="383,-104.5 383,-123.5 436,-123.5 436,-104.5 383,-104.5"/>
<text text-anchor="middle" x="409.5" y="-111.5" font-family="Helvetica,sans-Serif" font-size="10.00">FailSafe</text>
</a>
</g>
</g>
<!-- Node1&#45;&gt;Node2 -->
<g id="edge1" class="edge">
<title>Node1&#45;&gt;Node2</title>
<path fill="none" stroke="midnightblue" d="M482.68,-114C466.93,-114 449.9,-114 436.33,-114"/>
<polygon fill="midnightblue" stroke="midnightblue" points="482.8,-117.5 492.8,-114 482.8,-110.5 482.8,-117.5"/>
</g>
<!-- Node11 -->
<g id="node11" class="node">
<title>Node11</title>
<g id="a_node11"><a xlink:href="_radio_functions_8cpp.html#a049bfb836e7aa4a3a48a1a4bd225fafc" target="_top" xlink:title=" ">
<polygon fill="white" stroke="black" points="380,-166.5 380,-185.5 439,-185.5 439,-166.5 380,-166.5"/>
<text text-anchor="middle" x="409.5" y="-173.5" font-family="Helvetica,sans-Serif" font-size="10.00">SendData</text>
</a>
</g>
</g>
<!-- Node1&#45;&gt;Node11 -->
<g id="edge13" class="edge">
<title>Node1&#45;&gt;Node11</title>
<path fill="none" stroke="midnightblue" d="M501.77,-128.25C479.46,-139.92 448.48,-156.13 428.97,-166.34"/>
<polygon fill="midnightblue" stroke="midnightblue" points="503.51,-131.29 510.74,-123.55 500.26,-125.09 503.51,-131.29"/>
</g>
<!-- Node12 -->
<g id="node12" class="node">
<title>Node12</title>
<g id="a_node12"><a xlink:href="_receiver_code_2src_2main_8cpp.html#abb1997c589abc6432f612eaedf985e38" target="_top" xlink:title=" ">
<polygon fill="white" stroke="black" points="362,-47.5 362,-66.5 457,-66.5 457,-47.5 362,-47.5"/>
<text text-anchor="middle" x="409.5" y="-54.5" font-family="Helvetica,sans-Serif" font-size="10.00">UseReceivedData</text>
</a>
</g>
</g>
<!-- Node1&#45;&gt;Node12 -->
<g id="edge15" class="edge">
<title>Node1&#45;&gt;Node12</title>
<path fill="none" stroke="midnightblue" d="M500.11,-100.1C478.49,-89.7 449.48,-75.75 430.4,-66.57"/>
<polygon fill="midnightblue" stroke="midnightblue" points="498.64,-103.28 509.17,-104.46 501.67,-96.97 498.64,-103.28"/>
</g>
<!-- Node3 -->
<g id="node3" class="node">
<title>Node3</title>
<g id="a_node3"><a xlink:href="_transmitter_code_2src_2main_8cpp.html#a804fdbdd5eab4c596bbe8a23eecbe4d5" target="_top" xlink:title=" ">
<polygon fill="white" stroke="black" points="225,-109.5 225,-128.5 326,-128.5 326,-109.5 225,-109.5"/>
<text text-anchor="middle" x="275.5" y="-116.5" font-family="Helvetica,sans-Serif" font-size="10.00">ButtonWasPressed</text>
</a>
</g>
</g>
<!-- Node2&#45;&gt;Node3 -->
<g id="edge2" class="edge">
<title>Node2&#45;&gt;Node3</title>
<path fill="none" stroke="midnightblue" d="M372.38,-115.37C358.15,-115.91 341.58,-116.53 326.26,-117.12"/>
<polygon fill="midnightblue" stroke="midnightblue" points="372.88,-118.85 382.74,-114.98 372.61,-111.86 372.88,-118.85"/>
</g>
<!-- Node8 -->
<g id="node8" class="node">
<title>Node8</title>
<g id="a_node8"><a xlink:href="radio_8h.html#a692b8b0727e0db358f99c7bf4e8235c0" target="_top" xlink:title=" ">
<polygon fill="white" stroke="black" points="244,-66.5 244,-85.5 307,-85.5 307,-66.5 244,-66.5"/>
<text text-anchor="middle" x="275.5" y="-73.5" font-family="Helvetica,sans-Serif" font-size="10.00">Reconnect</text>
</a>
</g>
</g>
<!-- Node2&#45;&gt;Node8 -->
<g id="edge10" class="edge">
<title>Node2&#45;&gt;Node8</title>
<path fill="none" stroke="midnightblue" d="M373.12,-103.81C352.59,-97.91 326.99,-90.54 307.3,-84.87"/>
<polygon fill="midnightblue" stroke="midnightblue" points="372.16,-107.18 382.74,-106.58 374.09,-100.45 372.16,-107.18"/>
</g>
<!-- Node4 -->
<g id="node4" class="node">
<title>Node4</title>
<g id="a_node4"><a xlink:href="_transmitter_code_2src_2main_8cpp.html#aa221b44ecae36dd0367f03ed4aeb9e92" target="_top" xlink:title=" ">
<polygon fill="white" stroke="black" points="71,-38.5 71,-57.5 189,-57.5 189,-38.5 71,-38.5"/>
<text text-anchor="middle" x="130" y="-45.5" font-family="Helvetica,sans-Serif" font-size="10.00">DoSomeHouseKeeping</text>
</a>
</g>
</g>
<!-- Node3&#45;&gt;Node4 -->
<g id="edge3" class="edge">
<title>Node3&#45;&gt;Node4</title>
<path fill="none" stroke="midnightblue" d="M242.96,-104.93C236.87,-101.88 230.64,-98.51 225,-95 207.79,-84.3 206.9,-76.52 189,-67 182.08,-63.32 174.31,-60.18 166.77,-57.57"/>
<polygon fill="midnightblue" stroke="midnightblue" points="241.76,-108.24 252.29,-109.44 244.8,-101.94 241.76,-108.24"/>
</g>
<!-- Node5 -->
<g id="node5" class="node">
<title>Node5</title>
<g id="a_node5"><a xlink:href="_transmitter_code_2src_2main_8cpp.html#ad3cb30894c94eb016e98bdcaa899ac86" target="_top" xlink:title=" ">
<polygon fill="white" stroke="black" points="0,-114.5 0,-133.5 35,-133.5 35,-114.5 0,-114.5"/>
<text text-anchor="middle" x="17.5" y="-121.5" font-family="Helvetica,sans-Serif" font-size="10.00">loop</text>
</a>
</g>
</g>
<!-- Node3&#45;&gt;Node5 -->
<g id="edge5" class="edge">
<title>Node3&#45;&gt;Node5</title>
<path fill="none" stroke="midnightblue" d="M237.7,-131.71C222.78,-136.24 205.26,-140.76 189,-143 137.05,-150.15 122.66,-152.06 71,-143 58.59,-140.82 45.24,-135.96 35.11,-131.7"/>
<polygon fill="midnightblue" stroke="midnightblue" points="239.07,-134.95 247.56,-128.61 236.97,-128.27 239.07,-134.95"/>
</g>
<!-- Node6 -->
<g id="node6" class="node">
<title>Node6</title>
<g id="a_node6"><a xlink:href="_transmitter_code_2src_2main_8cpp.html#a558ea014e230b7caa54ce5a37ad29b22" target="_top" xlink:title=" ">
<polygon fill="white" stroke="black" points="79.5,-76.5 79.5,-95.5 180.5,-95.5 180.5,-76.5 79.5,-76.5"/>
<text text-anchor="middle" x="130" y="-83.5" font-family="Helvetica,sans-Serif" font-size="10.00">ManageTransmitter</text>
</a>
</g>
</g>
<!-- Node3&#45;&gt;Node6 -->
<g id="edge6" class="edge">
<title>Node3&#45;&gt;Node6</title>
<path fill="none" stroke="midnightblue" d="M222.9,-107.13C206.32,-103.32 188.17,-99.15 172.41,-95.52"/>
<polygon fill="midnightblue" stroke="midnightblue" points="222.46,-110.62 232.99,-109.46 224.03,-103.8 222.46,-110.62"/>
</g>
<!-- Node7 -->
<g id="node7" class="node">
<title>Node7</title>
<g id="a_node7"><a xlink:href="_transmitter_code_2src_2main_8cpp.html#ab7c9edf843c732d7fe296564f39bc0dc" target="_top" xlink:title="RECEIVE A MODEL FILE.">
<polygon fill="white" stroke="black" points="83,-114.5 83,-133.5 177,-133.5 177,-114.5 83,-114.5"/>
<text text-anchor="middle" x="130" y="-121.5" font-family="Helvetica,sans-Serif" font-size="10.00">ReceiveModelFile</text>
</a>
</g>
</g>
<!-- Node3&#45;&gt;Node7 -->
<g id="edge8" class="edge">
<title>Node3&#45;&gt;Node7</title>
<path fill="none" stroke="midnightblue" d="M214.44,-114.42C202.04,-114.68 189.15,-115.24 177.33,-116.03"/>
<polygon fill="midnightblue" stroke="midnightblue" points="214.77,-117.92 224.71,-114.27 214.66,-110.92 214.77,-117.92"/>
</g>
<!-- Node4&#45;&gt;Node5 -->
<g id="edge4" class="edge">
<title>Node4&#45;&gt;Node5</title>
<path fill="none" stroke="midnightblue" d="M80.95,-61.54C77.48,-63.17 74.12,-64.99 71,-67 51.31,-79.66 34.13,-101.44 25.15,-114.1"/>
<polygon fill="midnightblue" stroke="midnightblue" points="82.43,-64.71 90.3,-57.61 79.72,-58.26 82.43,-64.71"/>
</g>
<!-- Node6&#45;&gt;Node5 -->
<g id="edge7" class="edge">
<title>Node6&#45;&gt;Node5</title>
<path fill="none" stroke="midnightblue" d="M89.55,-98.74C83.33,-100.8 76.98,-102.94 71,-105 58.9,-109.17 45.32,-114.09 35.01,-117.88"/>
<polygon fill="midnightblue" stroke="midnightblue" points="90.73,-102.04 99.14,-95.59 88.54,-95.39 90.73,-102.04"/>
</g>
<!-- Node7&#45;&gt;Node3 -->
<g id="edge9" class="edge">
<title>Node7&#45;&gt;Node3</title>
<path fill="none" stroke="midnightblue" d="M187.47,-128.64C199.77,-128.44 212.7,-127.94 224.71,-127.2"/>
<polygon fill="midnightblue" stroke="midnightblue" points="187.29,-125.15 177.33,-128.74 187.36,-132.15 187.29,-125.15"/>
</g>
<!-- Node9 -->
<g id="node9" class="node">
<title>Node9</title>
<g id="a_node9"><a xlink:href="_receiver_code_2src_2main_8cpp.html#a06807a4f185694d37f774702ba74db0a" target="_top" xlink:title=" ">
<polygon fill="white" stroke="black" points="94,-0.5 94,-19.5 166,-19.5 166,-0.5 94,-0.5"/>
<text text-anchor="middle" x="130" y="-7.5" font-family="Helvetica,sans-Serif" font-size="10.00">ReceiveData</text>
</a>
</g>
</g>
<!-- Node8&#45;&gt;Node9 -->
<g id="edge11" class="edge">
<title>Node8&#45;&gt;Node9</title>
<path fill="none" stroke="midnightblue" d="M250.55,-61.26C233.74,-51.31 210.5,-38.33 189,-29 180.93,-25.5 172,-22.27 163.61,-19.5"/>
<polygon fill="midnightblue" stroke="midnightblue" points="248.81,-64.3 259.18,-66.44 252.41,-58.29 248.81,-64.3"/>
</g>
<!-- Node10 -->
<g id="node10" class="node">
<title>Node10</title>
<g id="a_node10"><a xlink:href="_receiver_code_2src_2main_8cpp.html#afe461d27b9c48d5921c00d521181f12f" target="_top" xlink:title=" ">
<polygon fill="white" stroke="black" points="0,-0.5 0,-19.5 35,-19.5 35,-0.5 0,-0.5"/>
<text text-anchor="middle" x="17.5" y="-7.5" font-family="Helvetica,sans-Serif" font-size="10.00">loop</text>
</a>
</g>
</g>
<!-- Node9&#45;&gt;Node10 -->
<g id="edge12" class="edge">
<title>Node9&#45;&gt;Node10</title>
<path fill="none" stroke="midnightblue" d="M83.35,-10C66.33,-10 48.05,-10 35.25,-10"/>
<polygon fill="midnightblue" stroke="midnightblue" points="83.73,-13.5 93.73,-10 83.73,-6.5 83.73,-13.5"/>
</g>
<!-- Node11&#45;&gt;Node5 -->
<g id="edge14" class="edge">
<title>Node11&#45;&gt;Node5</title>
<path fill="none" stroke="midnightblue" d="M369.94,-180.85C305.92,-187.44 174.5,-194.78 71,-160 54.66,-154.51 38.74,-142.34 28.79,-133.67"/>
<polygon fill="midnightblue" stroke="midnightblue" points="370.42,-184.32 379.99,-179.76 369.67,-177.36 370.42,-184.32"/>
</g>
<!-- Node13 -->
<g id="node13" class="node">
<title>Node13</title>
<g id="a_node13"><a xlink:href="_receiver_code_2src_2main_8cpp.html#a07ca94db0e305e9c01ec51e417576308" target="_top" xlink:title=" ">
<polygon fill="white" stroke="black" points="246,-9.5 246,-28.5 305,-28.5 305,-9.5 246,-9.5"/>
<text text-anchor="middle" x="275.5" y="-16.5" font-family="Helvetica,sans-Serif" font-size="10.00">ReadData</text>
</a>
</g>
</g>
<!-- Node12&#45;&gt;Node13 -->
<g id="edge16" class="edge">
<title>Node12&#45;&gt;Node13</title>
<path fill="none" stroke="midnightblue" d="M365.5,-44.62C345.78,-38.94 322.93,-32.37 305.32,-27.3"/>
<polygon fill="midnightblue" stroke="midnightblue" points="364.61,-48.01 375.19,-47.41 366.55,-41.28 364.61,-48.01"/>
</g>
<!-- Node13&#45;&gt;Node9 -->
<g id="edge17" class="edge">
<title>Node13&#45;&gt;Node9</title>
<path fill="none" stroke="midnightblue" d="M235.64,-16.56C214,-15.21 187.28,-13.53 166.25,-12.21"/>
<polygon fill="midnightblue" stroke="midnightblue" points="235.61,-20.07 245.81,-17.2 236.04,-13.08 235.61,-20.07"/>
</g>
</g>
</svg>
