<?xml version="1.0" encoding="UTF-8" standalone="no"?>
<!DOCTYPE svg PUBLIC "-//W3C//DTD SVG 1.1//EN"
 "http://www.w3.org/Graphics/SVG/1.1/DTD/svg11.dtd">
<!-- Generated by graphviz version 3.0.0 (20220413.0242)
 -->
<!-- Title: ReceiveData Pages: 1 -->
<svg width="828pt" height="674pt"
 viewBox="0.00 0.00 828.00 674.00" xmlns="http://www.w3.org/2000/svg" xmlns:xlink="http://www.w3.org/1999/xlink">
<g id="graph0" class="graph" transform="scale(1 1) rotate(0) translate(4 670)">
<title>ReceiveData</title>
<polygon fill="white" stroke="transparent" points="-4,4 -4,-670 824,-670 824,4 -4,4"/>
<!-- Node1 -->
<g id="node1" class="node">
<title>Node1</title>
<g id="a_node1"><a xlink:title=" ">
<polygon fill="#bfbfbf" stroke="black" points="0,-342.5 0,-361.5 72,-361.5 72,-342.5 0,-342.5"/>
<text text-anchor="middle" x="36" y="-349.5" font-family="Helvetica,sans-Serif" font-size="10.00">ReceiveData</text>
</a>
</g>
</g>
<!-- Node2 -->
<g id="node2" class="node">
<title>Node2</title>
<g id="a_node2"><a xlink:href="class_adafruit___i_n_a219.html#ab27c5ff8681cbe04c80bc3efc840dca4" target="_top" xlink:title="Gets the shunt voltage in volts.">
<polygon fill="white" stroke="black" points="108,-517.5 108,-536.5 277,-536.5 277,-517.5 108,-517.5"/>
<text text-anchor="middle" x="192.5" y="-524.5" font-family="Helvetica,sans-Serif" font-size="10.00">Adafruit_INA219::getBusVoltage_V</text>
</a>
</g>
</g>
<!-- Node1&#45;&gt;Node2 -->
<g id="edge1" class="edge">
<title>Node1&#45;&gt;Node2</title>
<path fill="none" stroke="midnightblue" d="M38.43,-361.87C42.97,-389.6 59.79,-468.72 108,-508 110.07,-509.68 112.25,-511.23 114.54,-512.64"/>
<polygon fill="midnightblue" stroke="midnightblue" points="113.26,-515.92 123.74,-517.45 116.5,-509.72 113.26,-515.92"/>
</g>
<!-- Node3 -->
<g id="node3" class="node">
<title>Node3</title>
<g id="a_node3"><a xlink:href="radio_8h.html#a6f74cdb7b32a3aa9e9342661bd44ad1a" target="_top" xlink:title=" ">
<polygon fill="white" stroke="black" points="329.5,-190.5 329.5,-209.5 418.5,-209.5 418.5,-190.5 329.5,-190.5"/>
<text text-anchor="middle" x="374" y="-197.5" font-family="Helvetica,sans-Serif" font-size="10.00">KeepSbusHappy</text>
</a>
</g>
</g>
<!-- Node1&#45;&gt;Node3 -->
<g id="edge2" class="edge">
<title>Node1&#45;&gt;Node3</title>
<path fill="none" stroke="midnightblue" d="M51.95,-342.45C65.95,-333.89 87.69,-321.56 108,-314 180.15,-287.15 214.09,-320.38 277,-276 301.48,-258.73 289.28,-237.3 313,-219 315.43,-217.13 318.05,-215.43 320.79,-213.91"/>
<polygon fill="midnightblue" stroke="midnightblue" points="322.34,-217.04 329.85,-209.57 319.32,-210.73 322.34,-217.04"/>
</g>
<!-- Node6 -->
<g id="node6" class="node">
<title>Node6</title>
<g id="a_node6"><a xlink:href="_receiver_code_2src_2main_8cpp.html#a07ca94db0e305e9c01ec51e417576308" target="_top" xlink:title=" ">
<polygon fill="white" stroke="black" points="163,-479.5 163,-498.5 222,-498.5 222,-479.5 163,-479.5"/>
<text text-anchor="middle" x="192.5" y="-486.5" font-family="Helvetica,sans-Serif" font-size="10.00">ReadData</text>
</a>
</g>
</g>
<!-- Node1&#45;&gt;Node6 -->
<g id="edge5" class="edge">
<title>Node1&#45;&gt;Node6</title>
<path fill="none" stroke="midnightblue" d="M41.21,-361.74C50.45,-382.02 74.35,-429.12 108,-456 121.09,-466.46 137.9,-473.95 153.01,-479.12"/>
<polygon fill="midnightblue" stroke="midnightblue" points="152.04,-482.49 162.63,-482.2 154.17,-475.82 152.04,-482.49"/>
</g>
<!-- Node18 -->
<g id="node18" class="node">
<title>Node18</title>
<g id="a_node18"><a xlink:href="_receiver_code_2src_2main_8cpp.html#a6c490ef42e364f8bb1430c436e86c9c0" target="_top" xlink:title=" ">
<polygon fill="white" stroke="black" points="137,-361.5 137,-380.5 248,-380.5 248,-361.5 137,-361.5"/>
<text text-anchor="middle" x="192.5" y="-368.5" font-family="Helvetica,sans-Serif" font-size="10.00">ReadExtraParameters</text>
</a>
</g>
</g>
<!-- Node1&#45;&gt;Node18 -->
<g id="edge19" class="edge">
<title>Node1&#45;&gt;Node18</title>
<path fill="none" stroke="midnightblue" d="M72.06,-356.31C88.28,-358.31 108.09,-360.74 126.88,-363.05"/>
<polygon fill="midnightblue" stroke="midnightblue" points="126.53,-366.54 136.88,-364.28 127.38,-359.59 126.53,-366.54"/>
</g>
<!-- Node25 -->
<g id="node25" class="node">
<title>Node25</title>
<g id="a_node25"><a xlink:href="_receiver_code_2src_2main_8cpp.html#a5d2350b2507883d3644251013370bc5b" target="_top" xlink:title=" ">
<polygon fill="white" stroke="black" points="140.5,-323.5 140.5,-342.5 244.5,-342.5 244.5,-323.5 140.5,-323.5"/>
<text text-anchor="middle" x="192.5" y="-330.5" font-family="Helvetica,sans-Serif" font-size="10.00">ReadTheSensorHub</text>
</a>
</g>
</g>
<!-- Node1&#45;&gt;Node25 -->
<g id="edge27" class="edge">
<title>Node1&#45;&gt;Node25</title>
<path fill="none" stroke="midnightblue" d="M72.06,-347.69C89.27,-345.57 110.51,-342.96 130.28,-340.53"/>
<polygon fill="midnightblue" stroke="midnightblue" points="130.96,-343.97 140.46,-339.28 130.11,-337.02 130.96,-343.97"/>
</g>
<!-- Node26 -->
<g id="node26" class="node">
<title>Node26</title>
<g id="a_node26"><a xlink:href="radio_8h.html#a692b8b0727e0db358f99c7bf4e8235c0" target="_top" xlink:title=" ">
<polygon fill="white" stroke="black" points="161,-190.5 161,-209.5 224,-209.5 224,-190.5 161,-190.5"/>
<text text-anchor="middle" x="192.5" y="-197.5" font-family="Helvetica,sans-Serif" font-size="10.00">Reconnect</text>
</a>
</g>
</g>
<!-- Node1&#45;&gt;Node26 -->
<g id="edge28" class="edge">
<title>Node1&#45;&gt;Node26</title>
<path fill="none" stroke="midnightblue" d="M40.68,-342.44C49.33,-321.04 72.95,-268.76 108,-238 120.47,-227.05 136.62,-218.72 151.39,-212.69"/>
<polygon fill="midnightblue" stroke="midnightblue" points="152.76,-215.91 160.84,-209.06 150.25,-209.38 152.76,-215.91"/>
</g>
<!-- Node35 -->
<g id="node35" class="node">
<title>Node35</title>
<g id="a_node35"><a xlink:href="_receiver_code_2src_2main_8cpp.html#ad8b70060a07f5323c3e1011dd6b1dd6f" target="_top" xlink:title=" ">
<polygon fill="white" stroke="black" points="137.5,-247.5 137.5,-266.5 247.5,-266.5 247.5,-247.5 137.5,-247.5"/>
<text text-anchor="middle" x="192.5" y="-254.5" font-family="Helvetica,sans-Serif" font-size="10.00">SensorHubHasFailed</text>
</a>
</g>
</g>
<!-- Node1&#45;&gt;Node35 -->
<g id="edge42" class="edge">
<title>Node1&#45;&gt;Node35</title>
<path fill="none" stroke="midnightblue" d="M44.13,-342.18C55.78,-326.84 80.37,-297.29 108,-281 115.65,-276.49 124.19,-272.79 132.82,-269.76"/>
<polygon fill="midnightblue" stroke="midnightblue" points="134.1,-273.02 142.54,-266.61 131.95,-266.36 134.1,-273.02"/>
</g>
<!-- Node36 -->
<g id="node36" class="node">
<title>Node36</title>
<g id="a_node36"><a xlink:href="_receiver_code_2src_2main_8cpp.html#a1d10d2ca466b8014f874f16aaa39da91" target="_top" xlink:title=" ">
<polygon fill="white" stroke="black" points="149.5,-427.5 149.5,-446.5 235.5,-446.5 235.5,-427.5 149.5,-427.5"/>
<text text-anchor="middle" x="192.5" y="-434.5" font-family="Helvetica,sans-Serif" font-size="10.00">TryNextChannel</text>
</a>
</g>
</g>
<!-- Node1&#45;&gt;Node36 -->
<g id="edge43" class="edge">
<title>Node1&#45;&gt;Node36</title>
<path fill="none" stroke="midnightblue" d="M54.42,-361.59C81.31,-376.38 133.13,-404.89 164.78,-422.3"/>
<polygon fill="midnightblue" stroke="midnightblue" points="163.46,-425.57 173.9,-427.32 166.83,-419.43 163.46,-425.57"/>
</g>
<!-- Node4 -->
<g id="node4" class="node">
<title>Node4</title>
<g id="a_node4"><a xlink:href="_receiver_code_2src_2main_8cpp.html#a6f2443a0666140cf4d8b7352bb3b793c" target="_top" xlink:title=" ">
<polygon fill="white" stroke="black" points="520.5,-190.5 520.5,-209.5 591.5,-209.5 591.5,-190.5 520.5,-190.5"/>
<text text-anchor="middle" x="556" y="-197.5" font-family="Helvetica,sans-Serif" font-size="10.00">MoveServos</text>
</a>
</g>
</g>
<!-- Node3&#45;&gt;Node4 -->
<g id="edge3" class="edge">
<title>Node3&#45;&gt;Node4</title>
<path fill="none" stroke="midnightblue" d="M418.57,-200C446.25,-200 482,-200 509.95,-200"/>
<polygon fill="midnightblue" stroke="midnightblue" points="510.25,-203.5 520.25,-200 510.25,-196.5 510.25,-203.5"/>
</g>
<!-- Node5 -->
<g id="node5" class="node">
<title>Node5</title>
<g id="a_node5"><a xlink:href="class_s_b_u_s.html#aeb87d0ab21224d4cc84848c93a788848" target="_top" xlink:title=" ">
<polygon fill="white" stroke="black" points="713.5,-190.5 713.5,-209.5 783.5,-209.5 783.5,-190.5 713.5,-190.5"/>
<text text-anchor="middle" x="748.5" y="-197.5" font-family="Helvetica,sans-Serif" font-size="10.00">SBUS::write</text>
</a>
</g>
</g>
<!-- Node4&#45;&gt;Node5 -->
<g id="edge4" class="edge">
<title>Node4&#45;&gt;Node5</title>
<path fill="none" stroke="midnightblue" d="M591.94,-200C623.29,-200 669.43,-200 703.33,-200"/>
<polygon fill="midnightblue" stroke="midnightblue" points="703.42,-203.5 713.42,-200 703.42,-196.5 703.42,-203.5"/>
</g>
<!-- Node7 -->
<g id="node7" class="node">
<title>Node7</title>
<g id="a_node7"><a xlink:href="radio_8h.html#a664f409561bfcf119e0379dd991217e5" target="_top" xlink:title=" ">
<polygon fill="white" stroke="black" points="329,-570.5 329,-589.5 419,-589.5 419,-570.5 329,-570.5"/>
<text text-anchor="middle" x="374" y="-577.5" font-family="Helvetica,sans-Serif" font-size="10.00">LoadAckPayload</text>
</a>
</g>
</g>
<!-- Node6&#45;&gt;Node7 -->
<g id="edge6" class="edge">
<title>Node6&#45;&gt;Node7</title>
<path fill="none" stroke="midnightblue" d="M222.3,-492.5C238.86,-495.25 259.73,-500 277,-508 307.49,-522.12 337.67,-547.03 355.83,-563.53"/>
<polygon fill="midnightblue" stroke="midnightblue" points="353.57,-566.21 363.28,-570.45 358.33,-561.08 353.57,-566.21"/>
</g>
<!-- Node13 -->
<g id="node13" class="node">
<title>Node13</title>
<g id="a_node13"><a xlink:href="_receiver_code_2src_2main_8cpp.html#abb1997c589abc6432f612eaedf985e38" target="_top" xlink:title=" ">
<polygon fill="white" stroke="black" points="326.5,-494.5 326.5,-513.5 421.5,-513.5 421.5,-494.5 326.5,-494.5"/>
<text text-anchor="middle" x="374" y="-501.5" font-family="Helvetica,sans-Serif" font-size="10.00">UseReceivedData</text>
</a>
</g>
</g>
<!-- Node6&#45;&gt;Node13 -->
<g id="edge14" class="edge">
<title>Node6&#45;&gt;Node13</title>
<path fill="none" stroke="midnightblue" d="M222.34,-491.41C247.54,-493.52 284.86,-496.63 316.06,-499.24"/>
<polygon fill="midnightblue" stroke="midnightblue" points="316.12,-502.76 326.37,-500.1 316.7,-495.78 316.12,-502.76"/>
</g>
<!-- Node8 -->
<g id="node8" class="node">
<title>Node8</title>
<g id="a_node8"><a xlink:href="radio_8h.html#affa2dcc4341b8daecac77e6e0a354b2d" target="_top" xlink:title=" ">
<polygon fill="white" stroke="black" points="495,-608.5 495,-627.5 617,-627.5 617,-608.5 495,-608.5"/>
<text text-anchor="middle" x="556" y="-615.5" font-family="Helvetica,sans-Serif" font-size="10.00">SendDateToAckPayload</text>
</a>
</g>
</g>
<!-- Node7&#45;&gt;Node8 -->
<g id="edge7" class="edge">
<title>Node7&#45;&gt;Node8</title>
<path fill="none" stroke="midnightblue" d="M419.03,-589.3C443.38,-594.44 473.87,-600.87 499.8,-606.35"/>
<polygon fill="midnightblue" stroke="midnightblue" points="499.35,-609.83 509.86,-608.47 500.8,-602.98 499.35,-609.83"/>
</g>
<!-- Node10 -->
<g id="node10" class="node">
<title>Node10</title>
<g id="a_node10"><a xlink:href="radio_8h.html#a8162c1748e39496c4adf88c55d1c49b8" target="_top" xlink:title=" ">
<polygon fill="white" stroke="black" points="494,-570.5 494,-589.5 618,-589.5 618,-570.5 494,-570.5"/>
<text text-anchor="middle" x="556" y="-577.5" font-family="Helvetica,sans-Serif" font-size="10.00">SendTimeToAckPayload</text>
</a>
</g>
</g>
<!-- Node7&#45;&gt;Node10 -->
<g id="edge9" class="edge">
<title>Node7&#45;&gt;Node10</title>
<path fill="none" stroke="midnightblue" d="M419.03,-580C438.44,-580 461.75,-580 483.54,-580"/>
<polygon fill="midnightblue" stroke="midnightblue" points="483.75,-583.5 493.75,-580 483.75,-576.5 483.75,-583.5"/>
</g>
<!-- Node11 -->
<g id="node11" class="node">
<title>Node11</title>
<g id="a_node11"><a xlink:href="radio_8h.html#a632401c7e72610ff0a0678358b6877ad" target="_top" xlink:title=" ">
<polygon fill="white" stroke="black" points="505,-646.5 505,-665.5 607,-665.5 607,-646.5 505,-646.5"/>
<text text-anchor="middle" x="556" y="-653.5" font-family="Helvetica,sans-Serif" font-size="10.00">SendToAckPayload</text>
</a>
</g>
</g>
<!-- Node7&#45;&gt;Node11 -->
<g id="edge11" class="edge">
<title>Node7&#45;&gt;Node11</title>
<path fill="none" stroke="midnightblue" d="M387.98,-589.52C405.82,-602.17 439.31,-624.37 471,-637 478.6,-640.03 486.8,-642.63 494.98,-644.85"/>
<polygon fill="midnightblue" stroke="midnightblue" points="494.36,-648.31 504.91,-647.37 496.08,-641.52 494.36,-648.31"/>
</g>
<!-- Node12 -->
<g id="node12" class="node">
<title>Node12</title>
<g id="a_node12"><a xlink:href="radio_8h.html#af56956a6b17dbdfc9fceedeb5a13cb71" target="_top" xlink:title=" ">
<polygon fill="white" stroke="black" points="471,-532.5 471,-551.5 641,-551.5 641,-532.5 471,-532.5"/>
<text text-anchor="middle" x="556" y="-539.5" font-family="Helvetica,sans-Serif" font-size="10.00">SendVersionNumberToAckPayload</text>
</a>
</g>
</g>
<!-- Node7&#45;&gt;Node12 -->
<g id="edge13" class="edge">
<title>Node7&#45;&gt;Node12</title>
<path fill="none" stroke="midnightblue" d="M419.03,-570.7C443.38,-565.56 473.87,-559.13 499.8,-553.65"/>
<polygon fill="midnightblue" stroke="midnightblue" points="500.8,-557.02 509.86,-551.53 499.35,-550.17 500.8,-557.02"/>
</g>
<!-- Node9 -->
<g id="node9" class="node">
<title>Node9</title>
<g id="a_node9"><a xlink:href="radio_8h.html#ad21c5c00ff554736e4e21cee13773cd5" target="_top" xlink:title=" ">
<polygon fill="white" stroke="black" points="677,-608.5 677,-627.5 820,-627.5 820,-608.5 677,-608.5"/>
<text text-anchor="middle" x="748.5" y="-615.5" font-family="Helvetica,sans-Serif" font-size="10.00">CheckWhetherItsTimeToHop</text>
</a>
</g>
</g>
<!-- Node8&#45;&gt;Node9 -->
<g id="edge8" class="edge">
<title>Node8&#45;&gt;Node9</title>
<path fill="none" stroke="midnightblue" d="M617.01,-618C632.73,-618 649.93,-618 666.54,-618"/>
<polygon fill="midnightblue" stroke="midnightblue" points="666.79,-621.5 676.79,-618 666.79,-614.5 666.79,-621.5"/>
</g>
<!-- Node10&#45;&gt;Node9 -->
<g id="edge10" class="edge">
<title>Node10&#45;&gt;Node9</title>
<path fill="none" stroke="midnightblue" d="M605.07,-589.59C630.78,-594.72 662.61,-601.07 689.66,-606.46"/>
<polygon fill="midnightblue" stroke="midnightblue" points="689.28,-609.96 699.77,-608.48 690.65,-603.09 689.28,-609.96"/>
</g>
<!-- Node11&#45;&gt;Node9 -->
<g id="edge12" class="edge">
<title>Node11&#45;&gt;Node9</title>
<path fill="none" stroke="midnightblue" d="M605.07,-646.41C630.78,-641.28 662.61,-634.93 689.66,-629.54"/>
<polygon fill="midnightblue" stroke="midnightblue" points="690.65,-632.91 699.77,-627.52 689.28,-626.04 690.65,-632.91"/>
</g>
<!-- Node14 -->
<g id="node14" class="node">
<title>Node14</title>
<g id="a_node14"><a xlink:href="radio_8h.html#a6feccc8c0583de3235616d42076f1371" target="_top" xlink:title=" ">
<polygon fill="white" stroke="black" points="520.5,-494.5 520.5,-513.5 591.5,-513.5 591.5,-494.5 520.5,-494.5"/>
<text text-anchor="middle" x="556" y="-501.5" font-family="Helvetica,sans-Serif" font-size="10.00">Decompress</text>
</a>
</g>
</g>
<!-- Node13&#45;&gt;Node14 -->
<g id="edge15" class="edge">
<title>Node13&#45;&gt;Node14</title>
<path fill="none" stroke="midnightblue" d="M421.82,-504C449.04,-504 483.17,-504 510.06,-504"/>
<polygon fill="midnightblue" stroke="midnightblue" points="510.35,-507.5 520.35,-504 510.35,-500.5 510.35,-507.5"/>
</g>
<!-- Node15 -->
<g id="node15" class="node">
<title>Node15</title>
<g id="a_node15"><a xlink:href="radio_8h.html#a62ec0168b1eea5f5c14f663d9217574d" target="_top" xlink:title=" ">
<polygon fill="white" stroke="black" points="505.5,-456.5 505.5,-475.5 606.5,-475.5 606.5,-456.5 505.5,-456.5"/>
<text text-anchor="middle" x="556" y="-463.5" font-family="Helvetica,sans-Serif" font-size="10.00">HopToNextChannel</text>
</a>
</g>
</g>
<!-- Node13&#45;&gt;Node15 -->
<g id="edge16" class="edge">
<title>Node13&#45;&gt;Node15</title>
<path fill="none" stroke="midnightblue" d="M420.42,-494.41C444.6,-489.31 474.53,-482.99 500.01,-477.61"/>
<polygon fill="midnightblue" stroke="midnightblue" points="500.84,-481.01 509.91,-475.52 499.4,-474.16 500.84,-481.01"/>
</g>
<!-- Node17 -->
<g id="node17" class="node">
<title>Node17</title>
<g id="a_node17"><a xlink:href="_receiver_code_2src_2main_8cpp.html#a6a495c5560f12cc3fd3df9454927d681" target="_top" xlink:title=" ">
<polygon fill="white" stroke="black" points="519,-313.5 519,-332.5 593,-332.5 593,-313.5 519,-313.5"/>
<text text-anchor="middle" x="556" y="-320.5" font-family="Helvetica,sans-Serif" font-size="10.00">MapToSBUS</text>
</a>
</g>
</g>
<!-- Node13&#45;&gt;Node17 -->
<g id="edge18" class="edge">
<title>Node13&#45;&gt;Node17</title>
<path fill="none" stroke="midnightblue" d="M387.98,-494.34C401.27,-483.9 421.79,-466.16 435,-447 458.52,-412.89 442.12,-390.71 471,-361 481.61,-350.09 495.92,-342.04 509.72,-336.24"/>
<polygon fill="midnightblue" stroke="midnightblue" points="511.1,-339.46 519.14,-332.57 508.56,-332.93 511.1,-339.46"/>
</g>
<!-- Node16 -->
<g id="node16" class="node">
<title>Node16</title>
<g id="a_node16"><a xlink:href="radio_8h.html#a2863e7455e30e6fddc0fcf56f62d6564" target="_top" xlink:title=" ">
<polygon fill="white" stroke="black" points="693.5,-456.5 693.5,-475.5 803.5,-475.5 803.5,-456.5 693.5,-456.5"/>
<text text-anchor="middle" x="748.5" y="-463.5" font-family="Helvetica,sans-Serif" font-size="10.00">ShowHopDurationEtc</text>
</a>
</g>
</g>
<!-- Node15&#45;&gt;Node16 -->
<g id="edge17" class="edge">
<title>Node15&#45;&gt;Node16</title>
<path fill="none" stroke="midnightblue" d="M606.55,-466C629.91,-466 658.06,-466 683.04,-466"/>
<polygon fill="midnightblue" stroke="midnightblue" points="683.17,-469.5 693.17,-466 683.17,-462.5 683.17,-469.5"/>
</g>
<!-- Node19 -->
<g id="node19" class="node">
<title>Node19</title>
<g id="a_node19"><a xlink:href="_receiver_code_2src_2main_8cpp.html#a5ae8a2aa29e834880ccf370c7547961b" target="_top" xlink:title=" ">
<polygon fill="white" stroke="black" points="344.5,-304.5 344.5,-323.5 403.5,-323.5 403.5,-304.5 344.5,-304.5"/>
<text text-anchor="middle" x="374" y="-311.5" font-family="Helvetica,sans-Serif" font-size="10.00">MarkHere</text>
</a>
</g>
</g>
<!-- Node18&#45;&gt;Node19 -->
<g id="edge20" class="edge">
<title>Node18&#45;&gt;Node19</title>
<path fill="none" stroke="midnightblue" d="M245.34,-361.42C255.97,-358.85 266.96,-355.72 277,-352 293.97,-345.72 296.31,-339.98 313,-333 319.86,-330.13 327.31,-327.44 334.56,-325.05"/>
<polygon fill="midnightblue" stroke="midnightblue" points="335.77,-328.33 344.24,-321.96 333.65,-321.66 335.77,-328.33"/>
</g>
<!-- Node21 -->
<g id="node21" class="node">
<title>Node21</title>
<g id="a_node21"><a xlink:href="_receiver_code_2src_2main_8cpp.html#ad86a39e4cba19592c760833870f6f69c" target="_top" xlink:title=" ">
<polygon fill="white" stroke="black" points="337.5,-342.5 337.5,-361.5 410.5,-361.5 410.5,-342.5 337.5,-342.5"/>
<text text-anchor="middle" x="374" y="-349.5" font-family="Helvetica,sans-Serif" font-size="10.00">RebuildFlags</text>
</a>
</g>
</g>
<!-- Node18&#45;&gt;Node21 -->
<g id="edge22" class="edge">
<title>Node18&#45;&gt;Node21</title>
<path fill="none" stroke="midnightblue" d="M248.33,-365.2C273.57,-362.52 303.17,-359.39 327.19,-356.85"/>
<polygon fill="midnightblue" stroke="midnightblue" points="327.88,-360.3 337.46,-355.76 327.15,-353.33 327.88,-360.3"/>
</g>
<!-- Node22 -->
<g id="node22" class="node">
<title>Node22</title>
<g id="a_node22"><a xlink:href="_receiver_code_2src_2main_8cpp.html#af2b1ba43295661243b7bb78004d470d8" target="_top" xlink:title=" ">
<polygon fill="white" stroke="black" points="315.5,-380.5 315.5,-399.5 432.5,-399.5 432.5,-380.5 315.5,-380.5"/>
<text text-anchor="middle" x="374" y="-387.5" font-family="Helvetica,sans-Serif" font-size="10.00">SendQnhToSensorHub</text>
</a>
</g>
</g>
<!-- Node18&#45;&gt;Node22 -->
<g id="edge23" class="edge">
<title>Node18&#45;&gt;Node22</title>
<path fill="none" stroke="midnightblue" d="M248.33,-376.8C266.33,-378.71 286.56,-380.85 305.39,-382.84"/>
<polygon fill="midnightblue" stroke="midnightblue" points="305.08,-386.33 315.39,-383.9 305.82,-379.37 305.08,-386.33"/>
</g>
<!-- Node23 -->
<g id="node23" class="node">
<title>Node23</title>
<g id="a_node23"><a xlink:href="_receiver_code_2src_2main_8cpp.html#a31a35307bbac88ceda244272f25d399a" target="_top" xlink:title=" ">
<polygon fill="white" stroke="black" points="322,-418.5 322,-437.5 426,-437.5 426,-418.5 322,-418.5"/>
<text text-anchor="middle" x="374" y="-425.5" font-family="Helvetica,sans-Serif" font-size="10.00">SetTestFrequencies</text>
</a>
</g>
</g>
<!-- Node18&#45;&gt;Node23 -->
<g id="edge25" class="edge">
<title>Node18&#45;&gt;Node23</title>
<path fill="none" stroke="midnightblue" d="M223.45,-380.54C247.62,-388.23 282.5,-399.32 313,-409 319.51,-411.07 326.41,-413.25 333.13,-415.38"/>
<polygon fill="midnightblue" stroke="midnightblue" points="332.19,-418.76 342.78,-418.44 334.31,-412.08 332.19,-418.76"/>
</g>
<!-- Node24 -->
<g id="node24" class="node">
<title>Node24</title>
<g id="a_node24"><a xlink:href="_receiver_code_2src_2main_8cpp.html#a2eabdb233653fa02f0b899e26b5e8ce7" target="_top" xlink:title=" ">
<polygon fill="white" stroke="black" points="506.5,-266.5 506.5,-285.5 605.5,-285.5 605.5,-266.5 506.5,-266.5"/>
<text text-anchor="middle" x="556" y="-273.5" font-family="Helvetica,sans-Serif" font-size="10.00">SetUKFrequencies</text>
</a>
</g>
</g>
<!-- Node18&#45;&gt;Node24 -->
<g id="edge26" class="edge">
<title>Node18&#45;&gt;Node24</title>
<path fill="none" stroke="midnightblue" d="M248.23,-365C258.41,-362.15 268.5,-358.01 277,-352 301.46,-334.7 287.35,-310.48 313,-295 368.31,-261.63 444.14,-261.41 496.1,-266.6"/>
<polygon fill="midnightblue" stroke="midnightblue" points="495.83,-270.1 506.15,-267.71 496.6,-263.14 495.83,-270.1"/>
</g>
<!-- Node20 -->
<g id="node20" class="node">
<title>Node20</title>
<g id="a_node20"><a xlink:href="_receiver_code_2src_2main_8cpp.html#a3f80da71956ba53fcff126bfe2296e65" target="_top" xlink:title=" ">
<polygon fill="white" stroke="black" points="506.5,-370.5 506.5,-389.5 605.5,-389.5 605.5,-370.5 506.5,-370.5"/>
<text text-anchor="middle" x="556" y="-377.5" font-family="Helvetica,sans-Serif" font-size="10.00">SendToSensorHub</text>
</a>
</g>
</g>
<!-- Node19&#45;&gt;Node20 -->
<g id="edge21" class="edge">
<title>Node19&#45;&gt;Node20</title>
<path fill="none" stroke="midnightblue" d="M403.51,-322.6C413.52,-325.73 424.8,-329.39 435,-333 464.85,-343.56 498.36,-356.8 522.37,-366.54"/>
<polygon fill="midnightblue" stroke="midnightblue" points="521.14,-369.82 531.72,-370.35 523.78,-363.33 521.14,-369.82"/>
</g>
<!-- Node22&#45;&gt;Node20 -->
<g id="edge24" class="edge">
<title>Node22&#45;&gt;Node20</title>
<path fill="none" stroke="midnightblue" d="M432.94,-386.78C453.17,-385.66 475.87,-384.4 496.16,-383.27"/>
<polygon fill="midnightblue" stroke="midnightblue" points="496.43,-386.76 506.22,-382.71 496.04,-379.77 496.43,-386.76"/>
</g>
<!-- Node26&#45;&gt;Node3 -->
<g id="edge34" class="edge">
<title>Node26&#45;&gt;Node3</title>
<path fill="none" stroke="midnightblue" d="M224.36,-200C250.38,-200 288.24,-200 319.23,-200"/>
<polygon fill="midnightblue" stroke="midnightblue" points="319.46,-203.5 329.46,-200 319.46,-196.5 319.46,-203.5"/>
</g>
<!-- Node27 -->
<g id="node27" class="node">
<title>Node27</title>
<g id="a_node27"><a xlink:href="_receiver_code_2src_2main_8cpp.html#a42318598726782ebb2e1857f167c8cda" target="_top" xlink:title=" ">
<polygon fill="white" stroke="black" points="347.5,-228.5 347.5,-247.5 400.5,-247.5 400.5,-228.5 347.5,-228.5"/>
<text text-anchor="middle" x="374" y="-235.5" font-family="Helvetica,sans-Serif" font-size="10.00">FailSafe</text>
</a>
</g>
</g>
<!-- Node26&#45;&gt;Node27 -->
<g id="edge29" class="edge">
<title>Node26&#45;&gt;Node27</title>
<path fill="none" stroke="midnightblue" d="M224.36,-206.53C255.74,-213.18 304.33,-223.46 337.35,-230.45"/>
<polygon fill="midnightblue" stroke="midnightblue" points="336.97,-233.95 347.47,-232.6 338.42,-227.1 336.97,-233.95"/>
</g>
<!-- Node29 -->
<g id="node29" class="node">
<title>Node29</title>
<g id="a_node29"><a xlink:href="radio_8h.html#adfacfc7d075937cec51b7bcd08d323ca" target="_top" xlink:title=" ">
<polygon fill="white" stroke="black" points="313,-76.5 313,-95.5 435,-95.5 435,-76.5 313,-76.5"/>
<text text-anchor="middle" x="374" y="-83.5" font-family="Helvetica,sans-Serif" font-size="10.00">TryTheOtherTransceiver</text>
</a>
</g>
</g>
<!-- Node26&#45;&gt;Node29 -->
<g id="edge35" class="edge">
<title>Node26&#45;&gt;Node29</title>
<path fill="none" stroke="midnightblue" d="M208.5,-190.48C239.57,-170.74 311.21,-125.24 348.87,-101.32"/>
<polygon fill="midnightblue" stroke="midnightblue" points="351.1,-104.05 357.67,-95.74 347.35,-98.14 351.1,-104.05"/>
</g>
<!-- Node31 -->
<g id="node31" class="node">
<title>Node31</title>
<g id="a_node31"><a xlink:href="radio_8h.html#a1208ef26dd460e6f5f56582f4fbfcf94" target="_top" xlink:title=" ">
<polygon fill="white" stroke="black" points="699.5,-95.5 699.5,-114.5 797.5,-114.5 797.5,-95.5 699.5,-95.5"/>
<text text-anchor="middle" x="748.5" y="-102.5" font-family="Helvetica,sans-Serif" font-size="10.00">TryToConnectNow</text>
</a>
</g>
</g>
<!-- Node26&#45;&gt;Node31 -->
<g id="edge41" class="edge">
<title>Node26&#45;&gt;Node31</title>
<path fill="none" stroke="midnightblue" d="M224.4,-194.72C248.49,-190.69 282.82,-185.15 313,-181 458.39,-161.03 498.08,-176.32 641,-143 666.91,-136.96 695.24,-126.66 716.16,-118.31"/>
<polygon fill="midnightblue" stroke="midnightblue" points="717.56,-121.52 725.5,-114.51 714.92,-115.04 717.56,-121.52"/>
</g>
<!-- Node27&#45;&gt;Node4 -->
<g id="edge32" class="edge">
<title>Node27&#45;&gt;Node4</title>
<path fill="none" stroke="midnightblue" d="M400.79,-232.56C429.37,-226.52 475.97,-216.68 510.47,-209.4"/>
<polygon fill="midnightblue" stroke="midnightblue" points="511.25,-212.81 520.31,-207.32 509.8,-205.96 511.25,-212.81"/>
</g>
<!-- Node27&#45;&gt;Node17 -->
<g id="edge31" class="edge">
<title>Node27&#45;&gt;Node17</title>
<path fill="none" stroke="midnightblue" d="M389.11,-247.69C407.38,-259.93 440.5,-281.06 471,-295 483.7,-300.81 497.96,-306.02 511.08,-310.32"/>
<polygon fill="midnightblue" stroke="midnightblue" points="510.26,-313.73 520.85,-313.44 512.38,-307.07 510.26,-313.73"/>
</g>
<!-- Node27&#45;&gt;Node24 -->
<g id="edge33" class="edge">
<title>Node27&#45;&gt;Node24</title>
<path fill="none" stroke="midnightblue" d="M400.79,-243.44C426.51,-248.88 466.84,-257.39 499.81,-264.35"/>
<polygon fill="midnightblue" stroke="midnightblue" points="499.27,-267.81 509.77,-266.45 500.71,-260.96 499.27,-267.81"/>
</g>
<!-- Node28 -->
<g id="node28" class="node">
<title>Node28</title>
<g id="a_node28"><a xlink:href="_receiver_code_2src_2main_8cpp.html#a7b232e8049c83655363495df07fc96d9" target="_top" xlink:title=" ">
<polygon fill="white" stroke="black" points="508.5,-228.5 508.5,-247.5 603.5,-247.5 603.5,-228.5 508.5,-228.5"/>
<text text-anchor="middle" x="556" y="-235.5" font-family="Helvetica,sans-Serif" font-size="10.00">LoadFailSafeData</text>
</a>
</g>
</g>
<!-- Node27&#45;&gt;Node28 -->
<g id="edge30" class="edge">
<title>Node27&#45;&gt;Node28</title>
<path fill="none" stroke="midnightblue" d="M400.79,-238C426.05,-238 465.4,-238 498.02,-238"/>
<polygon fill="midnightblue" stroke="midnightblue" points="498.35,-241.5 508.35,-238 498.35,-234.5 498.35,-241.5"/>
</g>
<!-- Node30 -->
<g id="node30" class="node">
<title>Node30</title>
<g id="a_node30"><a xlink:href="radio_8h.html#a62f1498f67d7e438905ae486bc27044f" target="_top" xlink:title=" ">
<polygon fill="white" stroke="black" points="525,-38.5 525,-57.5 587,-57.5 587,-38.5 525,-38.5"/>
<text text-anchor="middle" x="556" y="-45.5" font-family="Helvetica,sans-Serif" font-size="10.00">ProdRadio</text>
</a>
</g>
</g>
<!-- Node29&#45;&gt;Node30 -->
<g id="edge36" class="edge">
<title>Node29&#45;&gt;Node30</title>
<path fill="none" stroke="midnightblue" d="M420.42,-76.41C449.55,-70.26 487.01,-62.35 515,-56.44"/>
<polygon fill="midnightblue" stroke="midnightblue" points="515.8,-59.85 524.86,-54.36 514.35,-53 515.8,-59.85"/>
</g>
<!-- Node32 -->
<g id="node32" class="node">
<title>Node32</title>
<g id="a_node32"><a xlink:href="radio_8h.html#a6e2d4126d864c50e7c23c988c2bfdd1a" target="_top" xlink:title=" ">
<polygon fill="white" stroke="black" points="532.5,-0.5 532.5,-19.5 579.5,-19.5 579.5,-0.5 532.5,-0.5"/>
<text text-anchor="middle" x="556" y="-7.5" font-family="Helvetica,sans-Serif" font-size="10.00">Radio1</text>
</a>
</g>
</g>
<!-- Node29&#45;&gt;Node32 -->
<g id="edge38" class="edge">
<title>Node29&#45;&gt;Node32</title>
<path fill="none" stroke="midnightblue" d="M387.98,-76.48C405.82,-63.83 439.31,-41.63 471,-29 487.41,-22.46 506.56,-17.91 522.43,-14.91"/>
<polygon fill="midnightblue" stroke="midnightblue" points="523.09,-18.35 532.32,-13.15 521.86,-11.45 523.09,-18.35"/>
</g>
<!-- Node33 -->
<g id="node33" class="node">
<title>Node33</title>
<g id="a_node33"><a xlink:href="radio_8h.html#a8b76f3c338025926421c7b308405bbfd" target="_top" xlink:title=" ">
<polygon fill="white" stroke="black" points="532.5,-114.5 532.5,-133.5 579.5,-133.5 579.5,-114.5 532.5,-114.5"/>
<text text-anchor="middle" x="556" y="-121.5" font-family="Helvetica,sans-Serif" font-size="10.00">Radio2</text>
</a>
</g>
</g>
<!-- Node29&#45;&gt;Node33 -->
<g id="edge39" class="edge">
<title>Node29&#45;&gt;Node33</title>
<path fill="none" stroke="midnightblue" d="M420.42,-95.59C452.14,-102.29 493.75,-111.07 522.26,-117.09"/>
<polygon fill="midnightblue" stroke="midnightblue" points="521.62,-120.53 532.12,-119.17 523.06,-113.68 521.62,-120.53"/>
</g>
<!-- Node34 -->
<g id="node34" class="node">
<title>Node34</title>
<g id="a_node34"><a xlink:href="radio_8h.html#ac980be068a45a1406b0e244304741ac6" target="_top" xlink:title=" ">
<polygon fill="white" stroke="black" points="499,-76.5 499,-95.5 613,-95.5 613,-76.5 499,-76.5"/>
<text text-anchor="middle" x="556" y="-83.5" font-family="Helvetica,sans-Serif" font-size="10.00">SwapChipEnableLines</text>
</a>
</g>
</g>
<!-- Node29&#45;&gt;Node34 -->
<g id="edge40" class="edge">
<title>Node29&#45;&gt;Node34</title>
<path fill="none" stroke="midnightblue" d="M435.19,-86C452.36,-86 471.16,-86 488.68,-86"/>
<polygon fill="midnightblue" stroke="midnightblue" points="488.82,-89.5 498.82,-86 488.82,-82.5 488.82,-89.5"/>
</g>
<!-- Node30&#45;&gt;Node31 -->
<g id="edge37" class="edge">
<title>Node30&#45;&gt;Node31</title>
<path fill="none" stroke="midnightblue" d="M587.16,-53.9C603.26,-57.29 623.34,-61.87 641,-67 665.74,-74.18 693.1,-83.99 713.89,-91.84"/>
<polygon fill="midnightblue" stroke="midnightblue" points="712.65,-95.11 723.24,-95.4 715.14,-88.57 712.65,-95.11"/>
</g>
<!-- Node36&#45;&gt;Node15 -->
<g id="edge44" class="edge">
<title>Node36&#45;&gt;Node15</title>
<path fill="none" stroke="midnightblue" d="M235.53,-440.57C258.43,-442.5 287.27,-444.91 313,-447 375.16,-452.04 446.31,-457.6 495.3,-461.4"/>
<polygon fill="midnightblue" stroke="midnightblue" points="495.16,-464.9 505.4,-462.18 495.7,-457.92 495.16,-464.9"/>
</g>
</g>
</svg>
