<?xml version="1.0" encoding="UTF-8" standalone="no"?>
<!DOCTYPE svg PUBLIC "-//W3C//DTD SVG 1.1//EN"
 "http://www.w3.org/Graphics/SVG/1.1/DTD/svg11.dtd">
<!-- Generated by graphviz version 2.44.0 ()
 -->
<!-- Title: ReadData Pages: 1 -->
<svg width="491pt" height="636pt"
 viewBox="0.00 0.00 491.00 636.00" xmlns="http://www.w3.org/2000/svg" xmlns:xlink="http://www.w3.org/1999/xlink">
<g id="graph0" class="graph" transform="scale(1 1) rotate(0) translate(4 632)">
<title>ReadData</title>
<polygon fill="white" stroke="transparent" points="-4,4 -4,-632 487,-632 487,4 -4,4"/>
<!-- Node1 -->
<g id="node1" class="node">
<title>Node1</title>
<g id="a_node1"><a xlink:title=" ">
<polygon fill="#bfbfbf" stroke="black" points="0,-209.5 0,-228.5 59,-228.5 59,-209.5 0,-209.5"/>
<text text-anchor="middle" x="29.5" y="-216.5" font-family="Helvetica,sans-Serif" font-size="10.00">ReadData</text>
</a>
</g>
</g>
<!-- Node2 -->
<g id="node2" class="node">
<title>Node2</title>
<g id="a_node2"><a xlink:href="radio_8h.html#a664f409561bfcf119e0379dd991217e5" target="_top" xlink:title=" ">
<polygon fill="white" stroke="black" points="97.5,-361.5 97.5,-380.5 187.5,-380.5 187.5,-361.5 97.5,-361.5"/>
<text text-anchor="middle" x="142.5" y="-368.5" font-family="Helvetica,sans-Serif" font-size="10.00">LoadAckPayload</text>
</a>
</g>
</g>
<!-- Node1&#45;&gt;Node2 -->
<g id="edge1" class="edge">
<title>Node1&#45;&gt;Node2</title>
<path fill="none" stroke="midnightblue" d="M37.44,-228.51C55.66,-253.46 105.06,-321.11 128.64,-353.39"/>
<polygon fill="midnightblue" stroke="midnightblue" points="125.83,-355.48 134.56,-361.5 131.49,-351.36 125.83,-355.48"/>
</g>
<!-- Node17 -->
<g id="node17" class="node">
<title>Node17</title>
<g id="a_node17"><a xlink:href="_receiver_code_2src_2main_8cpp.html#abb1997c589abc6432f612eaedf985e38" target="_top" xlink:title=" ">
<polygon fill="white" stroke="black" points="95,-76.5 95,-95.5 190,-95.5 190,-76.5 95,-76.5"/>
<text text-anchor="middle" x="142.5" y="-83.5" font-family="Helvetica,sans-Serif" font-size="10.00">UseReceivedData</text>
</a>
</g>
</g>
<!-- Node1&#45;&gt;Node17 -->
<g id="edge16" class="edge">
<title>Node1&#45;&gt;Node17</title>
<path fill="none" stroke="midnightblue" d="M38.48,-209.43C56.95,-187.3 102.87,-132.29 126.67,-103.77"/>
<polygon fill="midnightblue" stroke="midnightblue" points="129.57,-105.76 133.29,-95.84 124.2,-101.27 129.57,-105.76"/>
</g>
<!-- Node3 -->
<g id="node3" class="node">
<title>Node3</title>
<g id="a_node3"><a xlink:href="radio_8h.html#ae7c02edb19bdc7bb0dc66f4b4d698b04" target="_top" xlink:title=" ">
<polygon fill="white" stroke="black" points="246,-608.5 246,-627.5 317,-627.5 317,-608.5 246,-608.5"/>
<text text-anchor="middle" x="281.5" y="-615.5" font-family="Helvetica,sans-Serif" font-size="10.00">LoadAltitude</text>
</a>
</g>
</g>
<!-- Node2&#45;&gt;Node3 -->
<g id="edge2" class="edge">
<title>Node2&#45;&gt;Node3</title>
<path fill="none" stroke="midnightblue" d="M144.14,-380.79C146.93,-415.61 161.03,-534.79 226,-599 229.09,-602.05 232.69,-604.61 236.54,-606.77"/>
<polygon fill="midnightblue" stroke="midnightblue" points="235.33,-610.06 245.87,-611.08 238.27,-603.7 235.33,-610.06"/>
</g>
<!-- Node4 -->
<g id="node4" class="node">
<title>Node4</title>
<g id="a_node4"><a xlink:href="radio_8h.html#ada757f307b1fcc38f0b7a1885001efb4" target="_top" xlink:title=" ">
<polygon fill="white" stroke="black" points="235.5,-570.5 235.5,-589.5 327.5,-589.5 327.5,-570.5 235.5,-570.5"/>
<text text-anchor="middle" x="281.5" y="-577.5" font-family="Helvetica,sans-Serif" font-size="10.00">LoadAltitudeGPS</text>
</a>
</g>
</g>
<!-- Node2&#45;&gt;Node4 -->
<g id="edge3" class="edge">
<title>Node2&#45;&gt;Node4</title>
<path fill="none" stroke="midnightblue" d="M144.95,-380.87C150.03,-411.96 169.87,-508.88 226,-561 227.7,-562.58 229.54,-564.03 231.48,-565.36"/>
<polygon fill="midnightblue" stroke="midnightblue" points="230.06,-568.58 240.49,-570.45 233.51,-562.48 230.06,-568.58"/>
</g>
<!-- Node5 -->
<g id="node5" class="node">
<title>Node5</title>
<g id="a_node5"><a xlink:href="radio_8h.html#a6994d6e3fa37355544f3ef81569281af" target="_top" xlink:title=" ">
<polygon fill="white" stroke="black" points="231,-532.5 231,-551.5 332,-551.5 332,-532.5 231,-532.5"/>
<text text-anchor="middle" x="281.5" y="-539.5" font-family="Helvetica,sans-Serif" font-size="10.00">LoadCourseToGPS</text>
</a>
</g>
</g>
<!-- Node2&#45;&gt;Node5 -->
<g id="edge4" class="edge">
<title>Node2&#45;&gt;Node5</title>
<path fill="none" stroke="midnightblue" d="M146.09,-380.76C153.69,-407.49 178.41,-482.55 226,-523 228,-524.7 230.17,-526.26 232.44,-527.67"/>
<polygon fill="midnightblue" stroke="midnightblue" points="231.15,-530.95 241.63,-532.49 234.4,-524.75 231.15,-530.95"/>
</g>
<!-- Node6 -->
<g id="node6" class="node">
<title>Node6</title>
<g id="a_node6"><a xlink:href="radio_8h.html#abc318f8ac0525ba4c35b182f2b4cbc29" target="_top" xlink:title=" ">
<polygon fill="white" stroke="black" points="232.5,-494.5 232.5,-513.5 330.5,-513.5 330.5,-494.5 232.5,-494.5"/>
<text text-anchor="middle" x="281.5" y="-501.5" font-family="Helvetica,sans-Serif" font-size="10.00">LoadDistanceGPS</text>
</a>
</g>
</g>
<!-- Node2&#45;&gt;Node6 -->
<g id="edge5" class="edge">
<title>Node2&#45;&gt;Node6</title>
<path fill="none" stroke="midnightblue" d="M147.99,-380.79C158.5,-402.66 186.81,-455.82 226,-485 228.49,-486.85 231.18,-488.54 233.98,-490.07"/>
<polygon fill="midnightblue" stroke="midnightblue" points="232.66,-493.32 243.2,-494.43 235.66,-486.99 232.66,-493.32"/>
</g>
<!-- Node7 -->
<g id="node7" class="node">
<title>Node7</title>
<g id="a_node7"><a xlink:href="radio_8h.html#a4dd6eda5ab79885d9c061e5978a0b698" target="_top" xlink:title=" ">
<polygon fill="white" stroke="black" points="239.5,-456.5 239.5,-475.5 323.5,-475.5 323.5,-456.5 239.5,-456.5"/>
<text text-anchor="middle" x="281.5" y="-463.5" font-family="Helvetica,sans-Serif" font-size="10.00">LoadGPSAngle</text>
</a>
</g>
</g>
<!-- Node2&#45;&gt;Node7 -->
<g id="edge6" class="edge">
<title>Node2&#45;&gt;Node7</title>
<path fill="none" stroke="midnightblue" d="M151.44,-380.51C165.14,-396.36 194.76,-428.28 226,-447 229.38,-449.03 233.02,-450.88 236.74,-452.57"/>
<polygon fill="midnightblue" stroke="midnightblue" points="235.52,-455.85 246.1,-456.41 238.18,-449.37 235.52,-455.85"/>
</g>
<!-- Node8 -->
<g id="node8" class="node">
<title>Node8</title>
<g id="a_node8"><a xlink:href="radio_8h.html#aa9d97135c1b62975cc9d6b955842f6fd" target="_top" xlink:title=" ">
<polygon fill="white" stroke="black" points="245.5,-418.5 245.5,-437.5 317.5,-437.5 317.5,-418.5 245.5,-418.5"/>
<text text-anchor="middle" x="281.5" y="-425.5" font-family="Helvetica,sans-Serif" font-size="10.00">LoadGPSFix</text>
</a>
</g>
</g>
<!-- Node2&#45;&gt;Node8 -->
<g id="edge7" class="edge">
<title>Node2&#45;&gt;Node8</title>
<path fill="none" stroke="midnightblue" d="M162.94,-380.6C179.51,-388.62 204.06,-400.15 226,-409 231.11,-411.06 236.54,-413.12 241.92,-415.07"/>
<polygon fill="midnightblue" stroke="midnightblue" points="240.86,-418.41 251.46,-418.46 243.2,-411.81 240.86,-418.41"/>
</g>
<!-- Node9 -->
<g id="node9" class="node">
<title>Node9</title>
<g id="a_node9"><a xlink:href="radio_8h.html#a0b901ae44d5e1d8885539ad7e032b8b6" target="_top" xlink:title=" ">
<polygon fill="white" stroke="black" points="234,-380.5 234,-399.5 329,-399.5 329,-380.5 234,-380.5"/>
<text text-anchor="middle" x="281.5" y="-387.5" font-family="Helvetica,sans-Serif" font-size="10.00">LoadGPSLatitude</text>
</a>
</g>
</g>
<!-- Node2&#45;&gt;Node9 -->
<g id="edge8" class="edge">
<title>Node2&#45;&gt;Node9</title>
<path fill="none" stroke="midnightblue" d="M187.6,-377.12C199.09,-378.71 211.63,-380.45 223.68,-382.12"/>
<polygon fill="midnightblue" stroke="midnightblue" points="223.26,-385.59 233.65,-383.5 224.22,-378.66 223.26,-385.59"/>
</g>
<!-- Node10 -->
<g id="node10" class="node">
<title>Node10</title>
<g id="a_node10"><a xlink:href="radio_8h.html#a984e4fc699e2cdb932f86e0ae1e20bca" target="_top" xlink:title=" ">
<polygon fill="white" stroke="black" points="230.5,-342.5 230.5,-361.5 332.5,-361.5 332.5,-342.5 230.5,-342.5"/>
<text text-anchor="middle" x="281.5" y="-349.5" font-family="Helvetica,sans-Serif" font-size="10.00">LoadGPSLongitude</text>
</a>
</g>
</g>
<!-- Node2&#45;&gt;Node10 -->
<g id="edge9" class="edge">
<title>Node2&#45;&gt;Node10</title>
<path fill="none" stroke="midnightblue" d="M187.6,-364.88C198.02,-363.44 209.31,-361.87 220.31,-360.35"/>
<polygon fill="midnightblue" stroke="midnightblue" points="220.87,-363.8 230.29,-358.96 219.91,-356.87 220.87,-363.8"/>
</g>
<!-- Node11 -->
<g id="node11" class="node">
<title>Node11</title>
<g id="a_node11"><a xlink:href="radio_8h.html#aefbca1484a5df773af5c76e12a646238" target="_top" xlink:title=" ">
<polygon fill="white" stroke="black" points="238,-304.5 238,-323.5 325,-323.5 325,-304.5 238,-304.5"/>
<text text-anchor="middle" x="281.5" y="-311.5" font-family="Helvetica,sans-Serif" font-size="10.00">LoadGPSSpeed</text>
</a>
</g>
</g>
<!-- Node2&#45;&gt;Node11 -->
<g id="edge10" class="edge">
<title>Node2&#45;&gt;Node11</title>
<path fill="none" stroke="midnightblue" d="M162.94,-361.4C179.51,-353.38 204.06,-341.85 226,-333 231.11,-330.94 236.54,-328.88 241.92,-326.93"/>
<polygon fill="midnightblue" stroke="midnightblue" points="243.2,-330.19 251.46,-323.54 240.86,-323.59 243.2,-330.19"/>
</g>
<!-- Node12 -->
<g id="node12" class="node">
<title>Node12</title>
<g id="a_node12"><a xlink:href="radio_8h.html#ad5c9d0f57db506102e8363427892186a" target="_top" xlink:title=" ">
<polygon fill="white" stroke="black" points="244.5,-266.5 244.5,-285.5 318.5,-285.5 318.5,-266.5 244.5,-266.5"/>
<text text-anchor="middle" x="281.5" y="-273.5" font-family="Helvetica,sans-Serif" font-size="10.00">LoadRXVolts</text>
</a>
</g>
</g>
<!-- Node2&#45;&gt;Node12 -->
<g id="edge11" class="edge">
<title>Node2&#45;&gt;Node12</title>
<path fill="none" stroke="midnightblue" d="M151.44,-361.49C165.14,-345.64 194.76,-313.72 226,-295 229.38,-292.97 233.02,-291.12 236.74,-289.43"/>
<polygon fill="midnightblue" stroke="midnightblue" points="238.18,-292.63 246.1,-285.59 235.52,-286.15 238.18,-292.63"/>
</g>
<!-- Node13 -->
<g id="node13" class="node">
<title>Node13</title>
<g id="a_node13"><a xlink:href="radio_8h.html#afd3957dcfa0fc56901c2b9ce3519f511" target="_top" xlink:title=" ">
<polygon fill="white" stroke="black" points="235,-228.5 235,-247.5 328,-247.5 328,-228.5 235,-228.5"/>
<text text-anchor="middle" x="281.5" y="-235.5" font-family="Helvetica,sans-Serif" font-size="10.00">LoadTemperature</text>
</a>
</g>
</g>
<!-- Node2&#45;&gt;Node13 -->
<g id="edge12" class="edge">
<title>Node2&#45;&gt;Node13</title>
<path fill="none" stroke="midnightblue" d="M147.99,-361.21C158.5,-339.34 186.81,-286.18 226,-257 228.49,-255.15 231.18,-253.46 233.98,-251.93"/>
<polygon fill="midnightblue" stroke="midnightblue" points="235.66,-255.01 243.2,-247.57 232.66,-248.68 235.66,-255.01"/>
</g>
<!-- Node14 -->
<g id="node14" class="node">
<title>Node14</title>
<g id="a_node14"><a xlink:href="radio_8h.html#a3830d14fd002f2ec6d0843b15139360a" target="_top" xlink:title=" ">
<polygon fill="white" stroke="black" points="237,-190.5 237,-209.5 326,-209.5 326,-190.5 237,-190.5"/>
<text text-anchor="middle" x="281.5" y="-197.5" font-family="Helvetica,sans-Serif" font-size="10.00">LoadTimeStamp</text>
</a>
</g>
</g>
<!-- Node2&#45;&gt;Node14 -->
<g id="edge13" class="edge">
<title>Node2&#45;&gt;Node14</title>
<path fill="none" stroke="midnightblue" d="M146.09,-361.24C153.69,-334.51 178.41,-259.45 226,-219 228,-217.3 230.17,-215.74 232.44,-214.33"/>
<polygon fill="midnightblue" stroke="midnightblue" points="234.4,-217.25 241.63,-209.51 231.15,-211.05 234.4,-217.25"/>
</g>
<!-- Node16 -->
<g id="node16" class="node">
<title>Node16</title>
<g id="a_node16"><a xlink:href="radio_8h.html#af067d2e9e8981a59af86ec75a0db36b4" target="_top" xlink:title=" ">
<polygon fill="white" stroke="black" points="231,-152.5 231,-171.5 332,-171.5 332,-152.5 231,-152.5"/>
<text text-anchor="middle" x="281.5" y="-159.5" font-family="Helvetica,sans-Serif" font-size="10.00">LoadVersioNumber</text>
</a>
</g>
</g>
<!-- Node2&#45;&gt;Node16 -->
<g id="edge15" class="edge">
<title>Node2&#45;&gt;Node16</title>
<path fill="none" stroke="midnightblue" d="M144.95,-361.13C150.03,-330.04 169.87,-233.12 226,-181 227.7,-179.42 229.54,-177.97 231.48,-176.64"/>
<polygon fill="midnightblue" stroke="midnightblue" points="233.51,-179.52 240.49,-171.55 230.06,-173.42 233.51,-179.52"/>
</g>
<!-- Node15 -->
<g id="node15" class="node">
<title>Node15</title>
<g id="a_node15"><a xlink:href="radio_8h.html#a5cbe0c69c07d5818a956b9155820cf76" target="_top" xlink:title=" ">
<polygon fill="white" stroke="black" points="379,-190.5 379,-209.5 477,-209.5 477,-190.5 379,-190.5"/>
<text text-anchor="middle" x="428" y="-197.5" font-family="Helvetica,sans-Serif" font-size="10.00">GetNextFrequency</text>
</a>
</g>
</g>
<!-- Node14&#45;&gt;Node15 -->
<g id="edge14" class="edge">
<title>Node14&#45;&gt;Node15</title>
<path fill="none" stroke="midnightblue" d="M326.25,-200C339.62,-200 354.53,-200 368.71,-200"/>
<polygon fill="midnightblue" stroke="midnightblue" points="368.86,-203.5 378.86,-200 368.86,-196.5 368.86,-203.5"/>
</g>
<!-- Node18 -->
<g id="node18" class="node">
<title>Node18</title>
<g id="a_node18"><a xlink:href="_receiver_code_2src_2main_8cpp.html#a5a26715a721e1073d6ae00498282c056" target="_top" xlink:title=" ">
<polygon fill="white" stroke="black" points="236,-114.5 236,-133.5 327,-133.5 327,-114.5 236,-114.5"/>
<text text-anchor="middle" x="281.5" y="-121.5" font-family="Helvetica,sans-Serif" font-size="10.00">ClearAckPayload</text>
</a>
</g>
</g>
<!-- Node17&#45;&gt;Node18 -->
<g id="edge17" class="edge">
<title>Node17&#45;&gt;Node18</title>
<path fill="none" stroke="midnightblue" d="M178.07,-95.59C195.68,-100.47 217.28,-106.46 236.1,-111.68"/>
<polygon fill="midnightblue" stroke="midnightblue" points="235.37,-115.11 245.94,-114.41 237.24,-108.37 235.37,-115.11"/>
</g>
<!-- Node19 -->
<g id="node19" class="node">
<title>Node19</title>
<g id="a_node19"><a xlink:href="radio_8h.html#a8e1f4879c351e462d6bca620ae4279e2" target="_top" xlink:title=" ">
<polygon fill="white" stroke="black" points="246,-76.5 246,-95.5 317,-95.5 317,-76.5 246,-76.5"/>
<text text-anchor="middle" x="281.5" y="-83.5" font-family="Helvetica,sans-Serif" font-size="10.00">Decompress</text>
</a>
</g>
</g>
<!-- Node17&#45;&gt;Node19 -->
<g id="edge18" class="edge">
<title>Node17&#45;&gt;Node19</title>
<path fill="none" stroke="midnightblue" d="M190.26,-86C204.86,-86 220.93,-86 235.4,-86"/>
<polygon fill="midnightblue" stroke="midnightblue" points="235.62,-89.5 245.62,-86 235.62,-82.5 235.62,-89.5"/>
</g>
<!-- Node20 -->
<g id="node20" class="node">
<title>Node20</title>
<g id="a_node20"><a xlink:href="radio_8h.html#aa48ea4c5d47aa93d17dbc7d7b19238d8" target="_top" xlink:title=" ">
<polygon fill="white" stroke="black" points="226,-38.5 226,-57.5 337,-57.5 337,-38.5 226,-38.5"/>
<text text-anchor="middle" x="281.5" y="-45.5" font-family="Helvetica,sans-Serif" font-size="10.00">HopToNextFrequency</text>
</a>
</g>
</g>
<!-- Node17&#45;&gt;Node20 -->
<g id="edge19" class="edge">
<title>Node17&#45;&gt;Node20</title>
<path fill="none" stroke="midnightblue" d="M178.07,-76.41C195.68,-71.53 217.28,-65.54 236.1,-60.32"/>
<polygon fill="midnightblue" stroke="midnightblue" points="237.24,-63.63 245.94,-57.59 235.37,-56.89 237.24,-63.63"/>
</g>
<!-- Node22 -->
<g id="node22" class="node">
<title>Node22</title>
<g id="a_node22"><a xlink:href="_receiver_code_2src_2main_8cpp.html#a6a495c5560f12cc3fd3df9454927d681" target="_top" xlink:title=" ">
<polygon fill="white" stroke="black" points="244.5,-0.5 244.5,-19.5 318.5,-19.5 318.5,-0.5 244.5,-0.5"/>
<text text-anchor="middle" x="281.5" y="-7.5" font-family="Helvetica,sans-Serif" font-size="10.00">MapToSBUS</text>
</a>
</g>
</g>
<!-- Node17&#45;&gt;Node22 -->
<g id="edge21" class="edge">
<title>Node17&#45;&gt;Node22</title>
<path fill="none" stroke="midnightblue" d="M155.16,-76.42C170.59,-64.12 198.99,-42.72 226,-29 230.08,-26.93 234.44,-24.99 238.85,-23.2"/>
<polygon fill="midnightblue" stroke="midnightblue" points="240.38,-26.37 248.49,-19.55 237.9,-19.82 240.38,-26.37"/>
</g>
<!-- Node21 -->
<g id="node21" class="node">
<title>Node21</title>
<g id="a_node21"><a xlink:href="radio_8h.html#a2863e7455e30e6fddc0fcf56f62d6564" target="_top" xlink:title=" ">
<polygon fill="white" stroke="black" points="373,-38.5 373,-57.5 483,-57.5 483,-38.5 373,-38.5"/>
<text text-anchor="middle" x="428" y="-45.5" font-family="Helvetica,sans-Serif" font-size="10.00">ShowHopDurationEtc</text>
</a>
</g>
</g>
<!-- Node20&#45;&gt;Node21 -->
<g id="edge20" class="edge">
<title>Node20&#45;&gt;Node21</title>
<path fill="none" stroke="midnightblue" d="M337.13,-48C345.42,-48 354.05,-48 362.53,-48"/>
<polygon fill="midnightblue" stroke="midnightblue" points="362.77,-51.5 372.77,-48 362.77,-44.5 362.77,-51.5"/>
</g>
</g>
</svg>
