<?xml version="1.0" encoding="UTF-8" standalone="no"?>
<!DOCTYPE svg PUBLIC "-//W3C//DTD SVG 1.1//EN"
 "http://www.w3.org/Graphics/SVG/1.1/DTD/svg11.dtd">
<!-- Generated by graphviz version 2.44.0 ()
 -->
<!-- Title: SetDefaultValues Pages: 1 -->
<svg width="644pt" height="316pt"
 viewBox="0.00 0.00 644.00 315.52" xmlns="http://www.w3.org/2000/svg" xmlns:xlink="http://www.w3.org/1999/xlink">
<g id="graph0" class="graph" transform="scale(1 1) rotate(0) translate(4 311.52)">
<title>SetDefaultValues</title>
<polygon fill="white" stroke="transparent" points="-4,4 -4,-311.52 640,-311.52 640,4 -4,4"/>
<!-- Node1 -->
<g id="node1" class="node">
<title>Node1</title>
<g id="a_node1"><a xlink:title=" ">
<polygon fill="#bfbfbf" stroke="black" points="0,-136.02 0,-155.02 92,-155.02 92,-136.02 0,-136.02"/>
<text text-anchor="middle" x="46" y="-143.02" font-family="Helvetica,sans-Serif" font-size="10.00">SetDefaultValues</text>
</a>
</g>
</g>
<!-- Node2 -->
<g id="node2" class="node">
<title>Node2</title>
<g id="a_node2"><a xlink:href="_transmitter_code_2src_2main_8cpp.html#a6717bc5d0d10c1fb5379fc2d0d8c10fb" target="_top" xlink:title=" ">
<polygon fill="white" stroke="black" points="165.5,-231.02 165.5,-250.02 248.5,-250.02 248.5,-231.02 165.5,-231.02"/>
<text text-anchor="middle" x="207" y="-238.02" font-family="Helvetica,sans-Serif" font-size="10.00">SaveOneModel</text>
</a>
</g>
</g>
<!-- Node1&#45;&gt;Node2 -->
<g id="edge1" class="edge">
<title>Node1&#45;&gt;Node2</title>
<path fill="none" stroke="midnightblue" d="M61.45,-155.21C77.51,-165.89 104.31,-183.41 128,-197.52 144.72,-207.48 163.86,-218.05 178.99,-226.21"/>
<polygon fill="midnightblue" stroke="midnightblue" points="177.37,-229.31 187.84,-230.95 180.68,-223.14 177.37,-229.31"/>
</g>
<!-- Node6 -->
<g id="node6" class="node">
<title>Node6</title>
<g id="a_node6"><a xlink:href="_transmitter_code_2src_2main_8cpp.html#aecac2f0c289f02ef3c92b85be82eacac" target="_top" xlink:title=" ">
<polygon fill="white" stroke="black" points="553,-107.02 553,-126.02 636,-126.02 636,-107.02 553,-107.02"/>
<text text-anchor="middle" x="594.5" y="-114.02" font-family="Helvetica,sans-Serif" font-size="10.00">SendCommand</text>
</a>
</g>
</g>
<!-- Node1&#45;&gt;Node6 -->
<g id="edge5" class="edge">
<title>Node1&#45;&gt;Node6</title>
<path fill="none" stroke="midnightblue" d="M92.05,-148.44C176.15,-153.02 362.5,-159.14 517,-135.52 528.08,-133.83 539.91,-131.27 550.86,-128.58"/>
<polygon fill="midnightblue" stroke="midnightblue" points="551.81,-131.95 560.63,-126.09 550.08,-125.17 551.81,-131.95"/>
</g>
<!-- Node7 -->
<g id="node7" class="node">
<title>Node7</title>
<g id="a_node7"><a xlink:href="_transmitter_code_2src_2main_8cpp.html#a1e20efc1e419b252b50d36f9924503fc" target="_top" xlink:title=" ">
<polygon fill="white" stroke="black" points="453,-50.02 453,-69.02 517,-69.02 517,-50.02 453,-50.02"/>
<text text-anchor="middle" x="485" y="-57.02" font-family="Helvetica,sans-Serif" font-size="10.00">SendValue</text>
</a>
</g>
</g>
<!-- Node1&#45;&gt;Node7 -->
<g id="edge6" class="edge">
<title>Node1&#45;&gt;Node7</title>
<path fill="none" stroke="midnightblue" d="M54.66,-135.84C67.91,-119.73 96.7,-87.43 128,-69.52 206,-24.9 233.05,-25.32 322,-12.52 363.79,-6.51 376.74,0.19 417,-12.52 435.89,-18.49 454.09,-31.9 466.73,-42.88"/>
<polygon fill="midnightblue" stroke="midnightblue" points="464.43,-45.52 474.19,-49.64 469.13,-40.33 464.43,-45.52"/>
</g>
<!-- Node9 -->
<g id="node9" class="node">
<title>Node9</title>
<g id="a_node9"><a xlink:href="_transmitter_code_2src_2main_8cpp.html#a9e1de754e1d2d483fb15957f70cf0488" target="_top" xlink:title=" ">
<polygon fill="white" stroke="black" points="128,-79.02 128,-98.02 286,-98.02 286,-79.02 128,-79.02"/>
<text text-anchor="middle" x="207" y="-86.02" font-family="Helvetica,sans-Serif" font-size="10.00">UpdateModelsNameEveryWhere</text>
</a>
</g>
</g>
<!-- Node1&#45;&gt;Node9 -->
<g id="edge9" class="edge">
<title>Node1&#45;&gt;Node9</title>
<path fill="none" stroke="midnightblue" d="M73.61,-135.98C99.98,-126.53 140.56,-111.98 169.84,-101.49"/>
<polygon fill="midnightblue" stroke="midnightblue" points="171.07,-104.76 179.3,-98.09 168.71,-98.17 171.07,-104.76"/>
</g>
<!-- Node3 -->
<g id="node3" class="node">
<title>Node3</title>
<g id="a_node3"><a xlink:href="_transmitter_code_2src_2main_8cpp.html#a6922974b734cfe3a511e074a2d6ac33c" target="_top" xlink:title=" ">
<polygon fill="white" stroke="black" points="325,-288.02 325,-307.02 414,-307.02 414,-288.02 325,-288.02"/>
<text text-anchor="middle" x="369.5" y="-295.02" font-family="Helvetica,sans-Serif" font-size="10.00">CloseModelsFile</text>
</a>
</g>
</g>
<!-- Node2&#45;&gt;Node3 -->
<g id="edge2" class="edge">
<title>Node2&#45;&gt;Node3</title>
<path fill="none" stroke="midnightblue" d="M234.86,-250.06C261.48,-259.52 302.44,-274.06 332,-284.56"/>
<polygon fill="midnightblue" stroke="midnightblue" points="330.95,-287.9 341.55,-287.95 333.3,-281.31 330.95,-287.9"/>
</g>
<!-- Node4 -->
<g id="node4" class="node">
<title>Node4</title>
<g id="a_node4"><a xlink:href="_transmitter_code_2src_2main_8cpp.html#ae7618f38a148877bc5681be58cba8354" target="_top" xlink:title=" ">
<polygon fill="white" stroke="black" points="326,-250.02 326,-269.02 413,-269.02 413,-250.02 326,-250.02"/>
<text text-anchor="middle" x="369.5" y="-257.02" font-family="Helvetica,sans-Serif" font-size="10.00">OpenModelsFile</text>
</a>
</g>
</g>
<!-- Node2&#45;&gt;Node4 -->
<g id="edge3" class="edge">
<title>Node2&#45;&gt;Node4</title>
<path fill="none" stroke="midnightblue" d="M248.5,-245.32C268.86,-247.73 293.79,-250.68 315.65,-253.27"/>
<polygon fill="midnightblue" stroke="midnightblue" points="315.42,-256.76 325.77,-254.46 316.25,-249.81 315.42,-256.76"/>
</g>
<!-- Node5 -->
<g id="node5" class="node">
<title>Node5</title>
<g id="a_node5"><a xlink:href="_transmitter_code_2src_2main_8cpp.html#aead4267a5769c2ae9feb2917c3d77db0" target="_top" xlink:title=" ">
<polygon fill="white" stroke="black" points="329,-212.02 329,-231.02 410,-231.02 410,-212.02 329,-212.02"/>
<text text-anchor="middle" x="369.5" y="-219.02" font-family="Helvetica,sans-Serif" font-size="10.00">SDUpdateByte</text>
</a>
</g>
</g>
<!-- Node2&#45;&gt;Node5 -->
<g id="edge4" class="edge">
<title>Node2&#45;&gt;Node5</title>
<path fill="none" stroke="midnightblue" d="M248.5,-235.73C269.84,-233.2 296.2,-230.08 318.77,-227.41"/>
<polygon fill="midnightblue" stroke="midnightblue" points="319.33,-230.87 328.85,-226.22 318.5,-223.92 319.33,-230.87"/>
</g>
<!-- Node7&#45;&gt;Node6 -->
<g id="edge7" class="edge">
<title>Node7&#45;&gt;Node6</title>
<path fill="none" stroke="midnightblue" d="M504.24,-69.19C521.33,-78.25 547.09,-91.91 566.55,-102.23"/>
<polygon fill="midnightblue" stroke="midnightblue" points="565.06,-105.4 575.53,-107 568.34,-99.22 565.06,-105.4"/>
</g>
<!-- Node8 -->
<g id="node8" class="node">
<title>Node8</title>
<g id="a_node8"><a xlink:href="_transmitter_code_2src_2main_8cpp.html#ab399ea9eaf21f0d7d034a8e2dcaa6e39" target="_top" xlink:title=" ">
<polygon fill="white" stroke="black" points="580,-22.02 580,-41.02 609,-41.02 609,-22.02 580,-22.02"/>
<text text-anchor="middle" x="594.5" y="-29.02" font-family="Helvetica,sans-Serif" font-size="10.00">Str</text>
</a>
</g>
</g>
<!-- Node7&#45;&gt;Node8 -->
<g id="edge8" class="edge">
<title>Node7&#45;&gt;Node8</title>
<path fill="none" stroke="midnightblue" d="M517.09,-51.42C533.92,-47.04 554.38,-41.71 569.88,-37.67"/>
<polygon fill="midnightblue" stroke="midnightblue" points="570.93,-41.02 579.73,-35.11 569.17,-34.24 570.93,-41.02"/>
</g>
<!-- Node9&#45;&gt;Node7 -->
<g id="edge12" class="edge">
<title>Node9&#45;&gt;Node7</title>
<path fill="none" stroke="midnightblue" d="M286.35,-80.29C337.23,-74.94 401.49,-68.19 442.67,-63.86"/>
<polygon fill="midnightblue" stroke="midnightblue" points="443.3,-67.32 452.88,-62.79 442.57,-60.36 443.3,-67.32"/>
</g>
<!-- Node9&#45;&gt;Node8 -->
<g id="edge13" class="edge">
<title>Node9&#45;&gt;Node8</title>
<path fill="none" stroke="midnightblue" d="M217.91,-78.86C236.46,-61.51 278.52,-25.69 322,-12.52 410.5,14.27 522.35,-11 570.14,-24.4"/>
<polygon fill="midnightblue" stroke="midnightblue" points="569.26,-27.79 579.84,-27.2 571.21,-21.06 569.26,-27.79"/>
</g>
<!-- Node10 -->
<g id="node10" class="node">
<title>Node10</title>
<g id="a_node10"><a xlink:href="_transmitter_code_2src_2main_8cpp.html#afe513398f72d5e48f691830a1ef6eb42" target="_top" xlink:title=" ">
<polygon fill="white" stroke="black" points="456,-107.02 456,-126.02 514,-126.02 514,-107.02 456,-107.02"/>
<text text-anchor="middle" x="485" y="-114.02" font-family="Helvetica,sans-Serif" font-size="10.00">SendText</text>
</a>
</g>
</g>
<!-- Node9&#45;&gt;Node10 -->
<g id="edge10" class="edge">
<title>Node9&#45;&gt;Node10</title>
<path fill="none" stroke="midnightblue" d="M229.75,-98.11C252.3,-107.5 288.85,-121.14 322,-126.52 363.68,-133.29 374.89,-129.65 417,-126.52 426.29,-125.83 436.24,-124.61 445.56,-123.26"/>
<polygon fill="midnightblue" stroke="midnightblue" points="446.39,-126.67 455.74,-121.69 445.33,-119.75 446.39,-126.67"/>
</g>
<!-- Node11 -->
<g id="node11" class="node">
<title>Node11</title>
<g id="a_node11"><a xlink:href="_transmitter_code_2src_2main_8cpp.html#a04d3d440eb8e47bc4061b9c51e27e206" target="_top" xlink:title=" ">
<polygon fill="white" stroke="black" points="322,-98.02 322,-117.02 417,-117.02 417,-98.02 322,-98.02"/>
<text text-anchor="middle" x="369.5" y="-105.02" font-family="Helvetica,sans-Serif" font-size="10.00">UpdateGainsView</text>
</a>
</g>
</g>
<!-- Node9&#45;&gt;Node11 -->
<g id="edge14" class="edge">
<title>Node9&#45;&gt;Node11</title>
<path fill="none" stroke="midnightblue" d="M286.37,-97.8C294.87,-98.81 303.41,-99.82 311.58,-100.78"/>
<polygon fill="midnightblue" stroke="midnightblue" points="311.38,-104.29 321.73,-101.99 312.21,-97.33 311.38,-104.29"/>
</g>
<!-- Node12 -->
<g id="node12" class="node">
<title>Node12</title>
<g id="a_node12"><a xlink:href="_transmitter_code_2src_2main_8cpp.html#ac78966debc2cdc13d8ca958ce3b20c78" target="_top" xlink:title=" ">
<polygon fill="white" stroke="black" points="325,-22.02 325,-41.02 414,-41.02 414,-22.02 325,-22.02"/>
<text text-anchor="middle" x="369.5" y="-29.02" font-family="Helvetica,sans-Serif" font-size="10.00">UpdateTrimView</text>
</a>
</g>
</g>
<!-- Node9&#45;&gt;Node12 -->
<g id="edge17" class="edge">
<title>Node9&#45;&gt;Node12</title>
<path fill="none" stroke="midnightblue" d="M234.86,-78.98C261.48,-69.53 302.44,-54.98 332,-44.49"/>
<polygon fill="midnightblue" stroke="midnightblue" points="333.3,-47.74 341.55,-41.09 330.95,-41.14 333.3,-47.74"/>
</g>
<!-- Node10&#45;&gt;Node6 -->
<g id="edge11" class="edge">
<title>Node10&#45;&gt;Node6</title>
<path fill="none" stroke="midnightblue" d="M514.24,-116.52C523.02,-116.52 532.97,-116.52 542.79,-116.52"/>
<polygon fill="midnightblue" stroke="midnightblue" points="542.91,-120.02 552.91,-116.52 542.91,-113.02 542.91,-120.02"/>
</g>
<!-- Node11&#45;&gt;Node7 -->
<g id="edge16" class="edge">
<title>Node11&#45;&gt;Node7</title>
<path fill="none" stroke="midnightblue" d="M393.2,-97.92C410.05,-90.79 433.27,-80.98 452.01,-73.05"/>
<polygon fill="midnightblue" stroke="midnightblue" points="453.5,-76.22 461.34,-69.1 450.77,-69.78 453.5,-76.22"/>
</g>
<!-- Node11&#45;&gt;Node10 -->
<g id="edge15" class="edge">
<title>Node11&#45;&gt;Node10</title>
<path fill="none" stroke="midnightblue" d="M417.32,-111.23C426.71,-111.98 436.48,-112.75 445.55,-113.47"/>
<polygon fill="midnightblue" stroke="midnightblue" points="445.56,-116.99 455.81,-114.29 446.12,-110.01 445.56,-116.99"/>
</g>
<!-- Node12&#45;&gt;Node7 -->
<g id="edge18" class="edge">
<title>Node12&#45;&gt;Node7</title>
<path fill="none" stroke="midnightblue" d="M409.24,-41.08C420.16,-43.77 432.06,-46.71 443.1,-49.43"/>
<polygon fill="midnightblue" stroke="midnightblue" points="442.39,-52.86 452.94,-51.86 444.07,-46.07 442.39,-52.86"/>
</g>
</g>
</svg>
