<?xml version="1.0" encoding="UTF-8" standalone="no"?>
<!DOCTYPE svg PUBLIC "-//W3C//DTD SVG 1.1//EN"
 "http://www.w3.org/Graphics/SVG/1.1/DTD/svg11.dtd">
<!-- Generated by graphviz version 2.49.3 (20211027.1534)
 -->
<!-- Title: WriteToLogFile Pages: 1 -->
<svg width="1077pt" height="310pt"
 viewBox="0.00 0.00 1077.00 309.55" xmlns="http://www.w3.org/2000/svg" xmlns:xlink="http://www.w3.org/1999/xlink">
<g id="graph0" class="graph" transform="scale(1 1) rotate(0) translate(4 305.55)">
<title>WriteToLogFile</title>
<polygon fill="white" stroke="transparent" points="-4,4 -4,-305.55 1073,-305.55 1073,4 -4,4"/>
<!-- Node1 -->
<g id="node1" class="node">
<title>Node1</title>
<g id="a_node1"><a xlink:title=" ">
<polygon fill="#bfbfbf" stroke="black" points="986,-154.05 986,-173.05 1069,-173.05 1069,-154.05 986,-154.05"/>
<text text-anchor="middle" x="1027.5" y="-161.05" font-family="Helvetica,sans-Serif" font-size="10.00">WriteToLogFile</text>
</a>
</g>
</g>
<!-- Node2 -->
<g id="node2" class="node">
<title>Node2</title>
<g id="a_node2"><a xlink:href="_transmitter_code_2src_2main_8cpp.html#a245cf37e2504095132bfcf03f2eeaa93" target="_top" xlink:title=" ">
<polygon fill="white" stroke="black" points="860,-135.05 860,-154.05 950,-154.05 950,-135.05 860,-135.05"/>
<text text-anchor="middle" x="905" y="-142.05" font-family="Helvetica,sans-Serif" font-size="10.00">LogFilePreamble</text>
</a>
</g>
</g>
<!-- Node1&#45;&gt;Node2 -->
<g id="edge1" class="edge">
<title>Node1&#45;&gt;Node2</title>
<path fill="none" stroke="midnightblue" d="M975.82,-155.56C967.26,-154.21 958.43,-152.82 950.06,-151.5"/>
<polygon fill="midnightblue" stroke="midnightblue" points="975.28,-159.02 985.7,-157.12 976.37,-152.1 975.28,-159.02"/>
</g>
<!-- Node3 -->
<g id="node3" class="node">
<title>Node3</title>
<g id="a_node3"><a xlink:href="_transmitter_code_2src_2main_8cpp.html#acac3c6cebc71150f10a4ba2f6d047e69" target="_top" xlink:title=" ">
<polygon fill="white" stroke="black" points="723,-192.05 723,-211.05 824,-211.05 824,-192.05 723,-192.05"/>
<text text-anchor="middle" x="773.5" y="-199.05" font-family="Helvetica,sans-Serif" font-size="10.00">LogNewFlightMode</text>
</a>
</g>
</g>
<!-- Node1&#45;&gt;Node3 -->
<g id="edge31" class="edge">
<title>Node1&#45;&gt;Node3</title>
<path fill="none" stroke="midnightblue" d="M975.75,-173.17C967.17,-174.7 958.34,-176.22 950,-177.55 907.64,-184.32 859.33,-190.84 824.14,-195.37"/>
<polygon fill="midnightblue" stroke="midnightblue" points="976.45,-176.6 985.67,-171.38 975.2,-169.71 976.45,-176.6"/>
</g>
<!-- Node8 -->
<g id="node8" class="node">
<title>Node8</title>
<g id="a_node8"><a xlink:href="_transmitter_code_2src_2main_8cpp.html#a3082155bd493af8377f0384347bdc55b" target="_top" xlink:title=" ">
<polygon fill="white" stroke="black" points="747.5,-154.05 747.5,-173.05 799.5,-173.05 799.5,-154.05 747.5,-154.05"/>
<text text-anchor="middle" x="773.5" y="-161.05" font-family="Helvetica,sans-Serif" font-size="10.00">LogText</text>
</a>
</g>
</g>
<!-- Node1&#45;&gt;Node8 -->
<g id="edge32" class="edge">
<title>Node1&#45;&gt;Node8</title>
<path fill="none" stroke="midnightblue" d="M975.44,-163.55C922,-163.55 840.32,-163.55 799.51,-163.55"/>
<polygon fill="midnightblue" stroke="midnightblue" points="975.73,-167.05 985.73,-163.55 975.73,-160.05 975.73,-167.05"/>
</g>
<!-- Node19 -->
<g id="node19" class="node">
<title>Node19</title>
<g id="a_node19"><a xlink:href="_transmitter_code_2src_2main_8cpp.html#af9d8a17fec28e4ae948cc53c29406f78" target="_top" xlink:title=" ">
<polygon fill="white" stroke="black" points="738.5,-78.05 738.5,-97.05 808.5,-97.05 808.5,-78.05 738.5,-78.05"/>
<text text-anchor="middle" x="773.5" y="-85.05" font-family="Helvetica,sans-Serif" font-size="10.00">LogThisGap</text>
</a>
</g>
</g>
<!-- Node1&#45;&gt;Node19 -->
<g id="edge33" class="edge">
<title>Node1&#45;&gt;Node19</title>
<path fill="none" stroke="midnightblue" d="M1007.06,-147.42C992.33,-136.08 971.08,-121.56 950,-113.55 903.07,-95.72 844.75,-90.06 808.57,-88.29"/>
<polygon fill="midnightblue" stroke="midnightblue" points="1004.93,-150.19 1014.94,-153.66 1009.27,-144.7 1004.93,-150.19"/>
</g>
<!-- Node21 -->
<g id="node21" class="node">
<title>Node21</title>
<g id="a_node21"><a xlink:href="_transmitter_code_2src_2main_8cpp.html#a436844f605001cad62b48d890e11fe2c" target="_top" xlink:title=" ">
<polygon fill="white" stroke="black" points="741,-116.05 741,-135.05 806,-135.05 806,-116.05 741,-116.05"/>
<text text-anchor="middle" x="773.5" y="-123.05" font-family="Helvetica,sans-Serif" font-size="10.00">LogThisRX</text>
</a>
</g>
</g>
<!-- Node1&#45;&gt;Node21 -->
<g id="edge34" class="edge">
<title>Node1&#45;&gt;Node21</title>
<path fill="none" stroke="midnightblue" d="M1003.48,-148.6C988.82,-140 969.07,-130.03 950,-125.55 900.76,-113.99 841.59,-117.43 806.06,-121.27"/>
<polygon fill="midnightblue" stroke="midnightblue" points="1001.96,-151.77 1012.32,-153.99 1005.6,-145.8 1001.96,-151.77"/>
</g>
<!-- Node22 -->
<g id="node22" class="node">
<title>Node22</title>
<g id="a_node22"><a xlink:href="_transmitter_code_2src_2main_8cpp.html#a514afc8dd077db77334696ca719a99b7" target="_top" xlink:title=" ">
<polygon fill="white" stroke="black" points="870,-249.05 870,-268.05 940,-268.05 940,-249.05 870,-249.05"/>
<text text-anchor="middle" x="905" y="-256.05" font-family="Helvetica,sans-Serif" font-size="10.00">StartLogFile</text>
</a>
</g>
</g>
<!-- Node1&#45;&gt;Node22 -->
<g id="edge35" class="edge">
<title>Node1&#45;&gt;Node22</title>
<path fill="none" stroke="midnightblue" d="M1010.81,-180.33C996.03,-195.58 972.8,-218.15 950,-234.55 942.51,-239.94 933.68,-244.98 925.9,-249.04"/>
<polygon fill="midnightblue" stroke="midnightblue" points="1013.35,-182.74 1017.73,-173.09 1008.29,-177.9 1013.35,-182.74"/>
</g>
<!-- Node2&#45;&gt;Node3 -->
<g id="edge2" class="edge">
<title>Node2&#45;&gt;Node3</title>
<path fill="none" stroke="midnightblue" d="M875.45,-158.77C860.29,-166.15 841.27,-175.15 824,-182.55 816.47,-185.78 808.19,-189.06 800.6,-191.96"/>
<polygon fill="midnightblue" stroke="midnightblue" points="877.35,-161.73 884.79,-154.19 874.27,-155.45 877.35,-161.73"/>
</g>
<!-- Node2&#45;&gt;Node8 -->
<g id="edge7" class="edge">
<title>Node2&#45;&gt;Node8</title>
<path fill="none" stroke="midnightblue" d="M849.72,-152.52C832.33,-155.07 813.9,-157.77 799.64,-159.86"/>
<polygon fill="midnightblue" stroke="midnightblue" points="850.41,-155.95 859.8,-151.04 849.39,-149.02 850.41,-155.95"/>
</g>
<!-- Node2&#45;&gt;Node19 -->
<g id="edge27" class="edge">
<title>Node2&#45;&gt;Node19</title>
<path fill="none" stroke="midnightblue" d="M875.45,-130.33C860.29,-122.95 841.27,-113.96 824,-106.55 816.47,-103.32 808.19,-100.04 800.6,-97.14"/>
<polygon fill="midnightblue" stroke="midnightblue" points="874.27,-133.65 884.79,-134.92 877.35,-127.37 874.27,-133.65"/>
</g>
<!-- Node2&#45;&gt;Node21 -->
<g id="edge30" class="edge">
<title>Node2&#45;&gt;Node21</title>
<path fill="none" stroke="midnightblue" d="M849.71,-136.58C834.9,-134.41 819.35,-132.13 806.25,-130.21"/>
<polygon fill="midnightblue" stroke="midnightblue" points="849.39,-140.08 859.8,-138.07 850.41,-133.15 849.39,-140.08"/>
</g>
<!-- Node4 -->
<g id="node4" class="node">
<title>Node4</title>
<g id="a_node4"><a xlink:href="_transmitter_code_2src_2main_8cpp.html#adf35f0ced7990f813a783d0ecd33bf64" target="_top" xlink:title=" ">
<polygon fill="white" stroke="black" points="598,-135.05 598,-154.05 678,-154.05 678,-135.05 598,-135.05"/>
<text text-anchor="middle" x="638" y="-142.05" font-family="Helvetica,sans-Serif" font-size="10.00">GetFlightMode</text>
</a>
</g>
</g>
<!-- Node3&#45;&gt;Node4 -->
<g id="edge3" class="edge">
<title>Node3&#45;&gt;Node4</title>
<path fill="none" stroke="midnightblue" d="M737.1,-188.25C732.34,-186.38 727.54,-184.45 723,-182.55 700.99,-173.36 676.15,-161.99 659.22,-154.1"/>
<polygon fill="midnightblue" stroke="midnightblue" points="736.11,-191.62 746.7,-191.97 738.64,-185.09 736.11,-191.62"/>
</g>
<!-- Node5 -->
<g id="node5" class="node">
<title>Node5</title>
<g id="a_node5"><a xlink:href="_transmitter_code_2src_2main_8cpp.html#ab0af36f3442ad4f2d0b716c14c7d6085" target="_top" xlink:title=" ">
<polygon fill="white" stroke="black" points="472,-132.05 472,-151.05 552,-151.05 552,-132.05 472,-132.05"/>
<text text-anchor="middle" x="512" y="-139.05" font-family="Helvetica,sans-Serif" font-size="10.00">ReadSwitches</text>
</a>
</g>
</g>
<!-- Node4&#45;&gt;Node5 -->
<g id="edge4" class="edge">
<title>Node4&#45;&gt;Node5</title>
<path fill="none" stroke="midnightblue" d="M587.68,-143.36C575.96,-143.07 563.61,-142.78 552.4,-142.5"/>
<polygon fill="midnightblue" stroke="midnightblue" points="587.68,-146.86 597.77,-143.6 587.85,-139.86 587.68,-146.86"/>
</g>
<!-- Node6 -->
<g id="node6" class="node">
<title>Node6</title>
<g id="a_node6"><a xlink:href="_radio_functions_8cpp.html#a3d7322e78f097d02d476f17a6306997c" target="_top" xlink:title=" ">
<polygon fill="white" stroke="black" points="225,-92.05 225,-111.05 284,-111.05 284,-92.05 225,-92.05"/>
<text text-anchor="middle" x="254.5" y="-99.05" font-family="Helvetica,sans-Serif" font-size="10.00">SendData</text>
</a>
</g>
</g>
<!-- Node5&#45;&gt;Node6 -->
<g id="edge5" class="edge">
<title>Node5&#45;&gt;Node6</title>
<path fill="none" stroke="midnightblue" d="M461.7,-134.15C427.75,-129.02 381.62,-121.98 341,-115.55 322.13,-112.56 300.94,-109.09 284.38,-106.36"/>
<polygon fill="midnightblue" stroke="midnightblue" points="461.41,-137.65 471.82,-135.68 462.45,-130.72 461.41,-137.65"/>
</g>
<!-- Node7 -->
<g id="node7" class="node">
<title>Node7</title>
<g id="a_node7"><a xlink:href="_transmitter_code_2src_2main_8cpp.html#afe461d27b9c48d5921c00d521181f12f" target="_top" xlink:title=" ">
<polygon fill="white" stroke="black" points="0,-92.05 0,-111.05 35,-111.05 35,-92.05 0,-92.05"/>
<text text-anchor="middle" x="17.5" y="-99.05" font-family="Helvetica,sans-Serif" font-size="10.00">loop</text>
</a>
</g>
</g>
<!-- Node6&#45;&gt;Node7 -->
<g id="edge6" class="edge">
<title>Node6&#45;&gt;Node7</title>
<path fill="none" stroke="midnightblue" d="M214.49,-101.55C162.39,-101.55 72.37,-101.55 35.25,-101.55"/>
<polygon fill="midnightblue" stroke="midnightblue" points="214.68,-105.05 224.68,-101.55 214.68,-98.05 214.68,-105.05"/>
</g>
<!-- Node9 -->
<g id="node9" class="node">
<title>Node9</title>
<g id="a_node9"><a xlink:href="_transmitter_code_2src_2main_8cpp.html#a896d9c3f90c2a4c083748097a98bc96b" target="_top" xlink:title=" ">
<polygon fill="white" stroke="black" points="597,-45.05 597,-64.05 679,-64.05 679,-45.05 597,-45.05"/>
<text text-anchor="middle" x="638" y="-52.05" font-family="Helvetica,sans-Serif" font-size="10.00">LogConnection</text>
</a>
</g>
</g>
<!-- Node8&#45;&gt;Node9 -->
<g id="edge8" class="edge">
<title>Node8&#45;&gt;Node9</title>
<path fill="none" stroke="midnightblue" d="M737.73,-154C732.41,-151.51 727.27,-148.4 723,-144.55 696.73,-120.85 713.15,-97.39 687,-73.55 682.76,-69.69 677.64,-66.57 672.35,-64.06"/>
<polygon fill="midnightblue" stroke="midnightblue" points="736.79,-157.39 747.37,-157.85 739.38,-150.89 736.79,-157.39"/>
</g>
<!-- Node12 -->
<g id="node12" class="node">
<title>Node12</title>
<g id="a_node12"><a xlink:href="_transmitter_code_2src_2main_8cpp.html#a01c8a29ed73a0c490282e23e119eca14" target="_top" xlink:title=" ">
<polygon fill="white" stroke="black" points="590,-178.05 590,-197.05 686,-197.05 686,-178.05 590,-178.05"/>
<text text-anchor="middle" x="638" y="-185.05" font-family="Helvetica,sans-Serif" font-size="10.00">LogDisConnection</text>
</a>
</g>
</g>
<!-- Node8&#45;&gt;Node12 -->
<g id="edge15" class="edge">
<title>Node8&#45;&gt;Node12</title>
<path fill="none" stroke="midnightblue" d="M737.11,-169.91C721.5,-172.72 702.92,-176.06 686.16,-179.07"/>
<polygon fill="midnightblue" stroke="midnightblue" points="738.17,-173.28 747.39,-168.06 736.93,-166.39 738.17,-173.28"/>
</g>
<!-- Node10 -->
<g id="node10" class="node">
<title>Node10</title>
<g id="a_node10"><a xlink:href="_transmitter_code_2src_2main_8cpp.html#a62e53eb9359c32b666e3386d62c57037" target="_top" xlink:title=" ">
<polygon fill="white" stroke="black" points="476,-45.05 476,-64.05 548,-64.05 548,-45.05 476,-45.05"/>
<text text-anchor="middle" x="512" y="-52.05" font-family="Helvetica,sans-Serif" font-size="10.00">GreenLedOn</text>
</a>
</g>
</g>
<!-- Node9&#45;&gt;Node10 -->
<g id="edge9" class="edge">
<title>Node9&#45;&gt;Node10</title>
<path fill="none" stroke="midnightblue" d="M586.57,-54.55C573.64,-54.55 560.02,-54.55 548.05,-54.55"/>
<polygon fill="midnightblue" stroke="midnightblue" points="586.74,-58.05 596.74,-54.55 586.74,-51.05 586.74,-58.05"/>
</g>
<!-- Node10&#45;&gt;Node6 -->
<g id="edge11" class="edge">
<title>Node10&#45;&gt;Node6</title>
<path fill="none" stroke="midnightblue" d="M465.69,-62.89C413.17,-72.55 328.19,-88.18 284.09,-96.29"/>
<polygon fill="midnightblue" stroke="midnightblue" points="466.54,-66.29 475.74,-61.04 465.27,-59.4 466.54,-66.29"/>
</g>
<!-- Node10&#45;&gt;Node7 -->
<g id="edge10" class="edge">
<title>Node10&#45;&gt;Node7</title>
<path fill="none" stroke="midnightblue" d="M492.01,-38.24C477.47,-26.89 456.35,-12.73 435,-6.55 394.87,5.06 382.51,-1.85 341,-6.55 218.66,-20.42 184.72,-21.35 71,-68.55 56.48,-74.58 41.45,-84.46 31.21,-91.85"/>
<polygon fill="midnightblue" stroke="midnightblue" points="490.18,-41.27 500.15,-44.85 494.59,-35.83 490.18,-41.27"/>
</g>
<!-- Node11 -->
<g id="node11" class="node">
<title>Node11</title>
<g id="a_node11"><a xlink:href="_transmitter_code_2src_2main_8cpp.html#a5d3a46c21927cf7a3031a1e68e0b7b48" target="_top" xlink:title="SHOW COMMS.">
<polygon fill="white" stroke="black" points="350.5,-16.05 350.5,-35.05 425.5,-35.05 425.5,-16.05 350.5,-16.05"/>
<text text-anchor="middle" x="388" y="-23.05" font-family="Helvetica,sans-Serif" font-size="10.00">ShowComms</text>
</a>
</g>
</g>
<!-- Node10&#45;&gt;Node11 -->
<g id="edge12" class="edge">
<title>Node10&#45;&gt;Node11</title>
<path fill="none" stroke="midnightblue" d="M465.9,-43.83C452.73,-40.7 438.5,-37.32 425.91,-34.32"/>
<polygon fill="midnightblue" stroke="midnightblue" points="465.17,-47.26 475.71,-46.16 466.79,-40.44 465.17,-47.26"/>
</g>
<!-- Node11&#45;&gt;Node6 -->
<g id="edge14" class="edge">
<title>Node11&#45;&gt;Node6</title>
<path fill="none" stroke="midnightblue" d="M358.99,-39.79C353.01,-42.93 346.77,-46.3 341,-49.55 315.88,-63.72 287.39,-81.38 270.46,-92.04"/>
<polygon fill="midnightblue" stroke="midnightblue" points="360.79,-42.8 368.05,-35.08 357.56,-36.59 360.79,-42.8"/>
</g>
<!-- Node11&#45;&gt;Node7 -->
<g id="edge13" class="edge">
<title>Node11&#45;&gt;Node7</title>
<path fill="none" stroke="midnightblue" d="M340.44,-35.15C257.76,-52.21 88.96,-87.02 35.28,-98.09"/>
<polygon fill="midnightblue" stroke="midnightblue" points="341.23,-38.56 350.32,-33.12 339.82,-31.71 341.23,-38.56"/>
</g>
<!-- Node13 -->
<g id="node13" class="node">
<title>Node13</title>
<g id="a_node13"><a xlink:href="_transmitter_code_2src_2main_8cpp.html#a7d34cec6e8edc20c8b50424e15dcc7c7" target="_top" xlink:title=" ">
<polygon fill="white" stroke="black" points="480.5,-187.05 480.5,-206.05 543.5,-206.05 543.5,-187.05 480.5,-187.05"/>
<text text-anchor="middle" x="512" y="-194.05" font-family="Helvetica,sans-Serif" font-size="10.00">RedLedOn</text>
</a>
</g>
</g>
<!-- Node12&#45;&gt;Node13 -->
<g id="edge16" class="edge">
<title>Node12&#45;&gt;Node13</title>
<path fill="none" stroke="midnightblue" d="M579.47,-191.73C567.1,-192.62 554.49,-193.54 543.62,-194.33"/>
<polygon fill="midnightblue" stroke="midnightblue" points="580.05,-195.19 589.77,-190.98 579.54,-188.21 580.05,-195.19"/>
</g>
<!-- Node14 -->
<g id="node14" class="node">
<title>Node14</title>
<g id="a_node14"><a xlink:href="_transmitter_code_2src_2main_8cpp.html#a783a0141bea15d8539730afd4b3b06a3" target="_top" xlink:title=" ">
<polygon fill="white" stroke="black" points="351,-168.05 351,-187.05 425,-187.05 425,-168.05 351,-168.05"/>
<text text-anchor="middle" x="388" y="-175.05" font-family="Helvetica,sans-Serif" font-size="10.00">FailedPacket</text>
</a>
</g>
</g>
<!-- Node13&#45;&gt;Node14 -->
<g id="edge17" class="edge">
<title>Node13&#45;&gt;Node14</title>
<path fill="none" stroke="midnightblue" d="M470.05,-190.17C455.6,-187.92 439.46,-185.41 425.42,-183.22"/>
<polygon fill="midnightblue" stroke="midnightblue" points="469.79,-193.68 480.21,-191.76 470.87,-186.76 469.79,-193.68"/>
</g>
<!-- Node15 -->
<g id="node15" class="node">
<title>Node15</title>
<g id="a_node15"><a xlink:href="_transmitter_code_2src_2main_8cpp.html#ab7c9edf843c732d7fe296564f39bc0dc" target="_top" xlink:title="RECEIVE A MODEL FILE.">
<polygon fill="white" stroke="black" points="341,-206.05 341,-225.05 435,-225.05 435,-206.05 341,-206.05"/>
<text text-anchor="middle" x="388" y="-213.05" font-family="Helvetica,sans-Serif" font-size="10.00">ReceiveModelFile</text>
</a>
</g>
</g>
<!-- Node13&#45;&gt;Node15 -->
<g id="edge19" class="edge">
<title>Node13&#45;&gt;Node15</title>
<path fill="none" stroke="midnightblue" d="M470.19,-202.91C458.9,-204.66 446.57,-206.59 435,-208.39"/>
<polygon fill="midnightblue" stroke="midnightblue" points="470.87,-206.34 480.21,-201.35 469.79,-199.43 470.87,-206.34"/>
</g>
<!-- Node18 -->
<g id="node18" class="node">
<title>Node18</title>
<g id="a_node18"><a xlink:href="_transmitter_code_2src_2main_8cpp.html#a58c67a975068930341f0663e0a08c9d3" target="_top" xlink:title="SEND A MODEL FILE.">
<polygon fill="white" stroke="black" points="347.5,-244.05 347.5,-263.05 428.5,-263.05 428.5,-244.05 347.5,-244.05"/>
<text text-anchor="middle" x="388" y="-251.05" font-family="Helvetica,sans-Serif" font-size="10.00">SendModelFile</text>
</a>
</g>
</g>
<!-- Node13&#45;&gt;Node18 -->
<g id="edge25" class="edge">
<title>Node13&#45;&gt;Node18</title>
<path fill="none" stroke="midnightblue" d="M483.46,-210.92C469.13,-218.24 451.25,-227.14 435,-234.55 427.92,-237.78 420.14,-241.08 413.02,-244.01"/>
<polygon fill="midnightblue" stroke="midnightblue" points="485.46,-213.83 492.75,-206.14 482.26,-207.6 485.46,-213.83"/>
</g>
<!-- Node14&#45;&gt;Node6 -->
<g id="edge18" class="edge">
<title>Node14&#45;&gt;Node6</title>
<path fill="none" stroke="midnightblue" d="M358.99,-163.31C353.01,-160.17 346.77,-156.8 341,-153.55 315.88,-139.38 287.39,-121.72 270.46,-111.06"/>
<polygon fill="midnightblue" stroke="midnightblue" points="357.56,-166.51 368.05,-168.02 360.79,-160.3 357.56,-166.51"/>
</g>
<!-- Node16 -->
<g id="node16" class="node">
<title>Node16</title>
<g id="a_node16"><a xlink:href="_transmitter_code_2src_2main_8cpp.html#a8e7ccbf842764fd85cc578be263f7202" target="_top" xlink:title=" ">
<polygon fill="white" stroke="black" points="204,-206.05 204,-225.05 305,-225.05 305,-206.05 204,-206.05"/>
<text text-anchor="middle" x="254.5" y="-213.05" font-family="Helvetica,sans-Serif" font-size="10.00">ButtonWasPressed</text>
</a>
</g>
</g>
<!-- Node15&#45;&gt;Node16 -->
<g id="edge20" class="edge">
<title>Node15&#45;&gt;Node16</title>
<path fill="none" stroke="midnightblue" d="M330.45,-208.86C321.99,-208.75 313.32,-208.79 305.01,-208.99"/>
<polygon fill="midnightblue" stroke="midnightblue" points="330.57,-212.36 340.64,-209.07 330.71,-205.36 330.57,-212.36"/>
</g>
<!-- Node16&#45;&gt;Node7 -->
<g id="edge23" class="edge">
<title>Node16&#45;&gt;Node7</title>
<path fill="none" stroke="midnightblue" d="M193.59,-210.04C155.91,-204.28 107.67,-192.53 71,-168.55 48.49,-153.83 31.45,-126.18 23.48,-111.42"/>
<polygon fill="midnightblue" stroke="midnightblue" points="193.52,-213.56 203.91,-211.51 194.51,-206.63 193.52,-213.56"/>
</g>
<!-- Node16&#45;&gt;Node15 -->
<g id="edge24" class="edge">
<title>Node16&#45;&gt;Node15</title>
<path fill="none" stroke="midnightblue" d="M315.29,-222.28C323.79,-222.35 332.44,-222.27 340.64,-222.03"/>
<polygon fill="midnightblue" stroke="midnightblue" points="315.07,-218.77 305.01,-222.11 314.96,-225.77 315.07,-218.77"/>
</g>
<!-- Node17 -->
<g id="node17" class="node">
<title>Node17</title>
<g id="a_node17"><a xlink:href="_transmitter_code_2src_2main_8cpp.html#a984cb52354a84c45e9e41f396a1c5e92" target="_top" xlink:title=" ">
<polygon fill="white" stroke="black" points="71,-140.05 71,-159.05 168,-159.05 168,-140.05 71,-140.05"/>
<text text-anchor="middle" x="119.5" y="-147.05" font-family="Helvetica,sans-Serif" font-size="10.00">CheckModelName</text>
</a>
</g>
</g>
<!-- Node16&#45;&gt;Node17 -->
<g id="edge21" class="edge">
<title>Node16&#45;&gt;Node17</title>
<path fill="none" stroke="midnightblue" d="M224.93,-201.37C199.25,-188.63 162.23,-170.26 139.86,-159.16"/>
<polygon fill="midnightblue" stroke="midnightblue" points="223.65,-204.64 234.16,-205.95 226.76,-198.37 223.65,-204.64"/>
</g>
<!-- Node17&#45;&gt;Node7 -->
<g id="edge22" class="edge">
<title>Node17&#45;&gt;Node7</title>
<path fill="none" stroke="midnightblue" d="M88.98,-135.38C71.38,-126.94 49.7,-116.53 35.07,-109.5"/>
<polygon fill="midnightblue" stroke="midnightblue" points="87.73,-138.67 98.26,-139.84 90.76,-132.35 87.73,-138.67"/>
</g>
<!-- Node18&#45;&gt;Node16 -->
<g id="edge26" class="edge">
<title>Node18&#45;&gt;Node16</title>
<path fill="none" stroke="midnightblue" d="M344.12,-241.16C326.11,-235.96 305.49,-230 288.67,-225.14"/>
<polygon fill="midnightblue" stroke="midnightblue" points="343.24,-244.55 353.82,-243.96 345.18,-237.82 343.24,-244.55"/>
</g>
<!-- Node20 -->
<g id="node20" class="node">
<title>Node20</title>
<g id="a_node20"><a xlink:href="_transmitter_code_2src_2main_8cpp.html#aa60c9cac090f6965b4223d5caf84e2f1" target="_top" xlink:title=" ">
<polygon fill="white" stroke="black" points="589,-83.05 589,-102.05 687,-102.05 687,-83.05 589,-83.05"/>
<text text-anchor="middle" x="638" y="-90.05" font-family="Helvetica,sans-Serif" font-size="10.00">CheckGapsLength</text>
</a>
</g>
</g>
<!-- Node19&#45;&gt;Node20 -->
<g id="edge28" class="edge">
<title>Node19&#45;&gt;Node20</title>
<path fill="none" stroke="midnightblue" d="M728.22,-89.21C715.02,-89.7 700.5,-90.25 687.07,-90.75"/>
<polygon fill="midnightblue" stroke="midnightblue" points="728.6,-92.7 738.47,-88.83 728.34,-85.7 728.6,-92.7"/>
</g>
<!-- Node20&#45;&gt;Node6 -->
<g id="edge29" class="edge">
<title>Node20&#45;&gt;Node6</title>
<path fill="none" stroke="midnightblue" d="M578.66,-93.93C495.71,-95.88 346.84,-99.4 284.35,-100.87"/>
<polygon fill="midnightblue" stroke="midnightblue" points="578.77,-97.43 588.68,-93.69 578.6,-90.43 578.77,-97.43"/>
</g>
<!-- Node23 -->
<g id="node23" class="node">
<title>Node23</title>
<g id="a_node23"><a xlink:href="_transmitter_code_2src_2main_8cpp.html#adb5aacd8adab39f57e32a80cf537a989" target="_top" xlink:title=" ">
<polygon fill="white" stroke="black" points="471,-282.05 471,-301.05 553,-301.05 553,-282.05 471,-282.05"/>
<text text-anchor="middle" x="512" y="-289.05" font-family="Helvetica,sans-Serif" font-size="10.00">DeleteLogFile1</text>
</a>
</g>
</g>
<!-- Node22&#45;&gt;Node23 -->
<g id="edge36" class="edge">
<title>Node22&#45;&gt;Node23</title>
<path fill="none" stroke="midnightblue" d="M859.92,-267.18C848.28,-269.21 835.7,-271.17 824,-272.55 727.3,-283.93 612.83,-288.7 553.39,-290.53"/>
<polygon fill="midnightblue" stroke="midnightblue" points="860.64,-270.6 869.87,-265.39 859.4,-263.71 860.64,-270.6"/>
</g>
<!-- Node24 -->
<g id="node24" class="node">
<title>Node24</title>
<g id="a_node24"><a xlink:href="_transmitter_code_2src_2main_8cpp.html#a4fc01d736fe50cf5b977f755b675f11d" target="_top" xlink:title=" ">
<polygon fill="white" stroke="black" points="753,-244.05 753,-263.05 794,-263.05 794,-244.05 753,-244.05"/>
<text text-anchor="middle" x="773.5" y="-251.05" font-family="Helvetica,sans-Serif" font-size="10.00">setup</text>
</a>
</g>
</g>
<!-- Node22&#45;&gt;Node24 -->
<g id="edge38" class="edge">
<title>Node22&#45;&gt;Node24</title>
<path fill="none" stroke="midnightblue" d="M859.71,-256.84C837.43,-255.98 811.56,-254.98 794.22,-254.31"/>
<polygon fill="midnightblue" stroke="midnightblue" points="859.85,-260.35 869.98,-257.24 860.12,-253.35 859.85,-260.35"/>
</g>
<!-- Node23&#45;&gt;Node16 -->
<g id="edge37" class="edge">
<title>Node23&#45;&gt;Node16</title>
<path fill="none" stroke="midnightblue" d="M460.63,-292.12C426.03,-291.03 379.56,-286.61 341,-272.55 311.17,-261.67 281.48,-238.36 266.17,-225.17"/>
<polygon fill="midnightblue" stroke="midnightblue" points="460.89,-295.62 470.97,-292.35 461.05,-288.62 460.89,-295.62"/>
</g>
</g>
</svg>
