<?xml version="1.0" encoding="UTF-8" standalone="no"?>
<!DOCTYPE svg PUBLIC "-//W3C//DTD SVG 1.1//EN"
 "http://www.w3.org/Graphics/SVG/1.1/DTD/svg11.dtd">
<!-- Generated by graphviz version 2.50.0 (20220203.2022)
 -->
<!-- Title: Str Pages: 1 -->
<svg width="1019pt" height="1176pt"
 viewBox="0.00 0.00 1019.00 1175.59" xmlns="http://www.w3.org/2000/svg" xmlns:xlink="http://www.w3.org/1999/xlink">
<g id="graph0" class="graph" transform="scale(1 1) rotate(0) translate(4 1171.59)">
<title>Str</title>
<polygon fill="white" stroke="transparent" points="-4,4 -4,-1171.59 1015,-1171.59 1015,4 -4,4"/>
<!-- Node1 -->
<g id="node1" class="node">
<title>Node1</title>
<g id="a_node1"><a xlink:title=" ">
<polygon fill="#bfbfbf" stroke="black" points="982,-285.5 982,-304.5 1011,-304.5 1011,-285.5 982,-285.5"/>
<text text-anchor="middle" x="996.5" y="-292.5" font-family="Helvetica,sans-Serif" font-size="10.00">Str</text>
</a>
</g>
</g>
<!-- Node2 -->
<g id="node2" class="node">
<title>Node2</title>
<g id="a_node2"><a xlink:href="_transmitter_code_2src_2main_8cpp.html#a5aeea47b9d855ae9911bae1115d02de7" target="_top" xlink:title=" ">
<polygon fill="white" stroke="black" points="706.5,-304.5 706.5,-323.5 762.5,-323.5 762.5,-304.5 706.5,-304.5"/>
<text text-anchor="middle" x="734.5" y="-311.5" font-family="Helvetica,sans-Serif" font-size="10.00">ClearBox</text>
</a>
</g>
</g>
<!-- Node1&#45;&gt;Node2 -->
<g id="edge1" class="edge">
<title>Node1&#45;&gt;Node2</title>
<path fill="none" stroke="midnightblue" d="M971.76,-296.74C923.38,-300.27 813.66,-308.29 762.59,-312.02"/>
<polygon fill="midnightblue" stroke="midnightblue" points="972.17,-300.21 981.89,-295.99 971.66,-293.23 972.17,-300.21"/>
</g>
<!-- Node10 -->
<g id="node10" class="node">
<title>Node10</title>
<g id="a_node10"><a xlink:href="_transmitter_code_2src_2main_8cpp.html#a705c97485d6142131c03577ec14134e7" target="_top" xlink:title=" ">
<polygon fill="white" stroke="black" points="861.5,-446.5 861.5,-465.5 917.5,-465.5 917.5,-446.5 861.5,-446.5"/>
<text text-anchor="middle" x="889.5" y="-453.5" font-family="Helvetica,sans-Serif" font-size="10.00">DrawBox</text>
</a>
</g>
</g>
<!-- Node1&#45;&gt;Node10 -->
<g id="edge11" class="edge">
<title>Node1&#45;&gt;Node10</title>
<path fill="none" stroke="midnightblue" d="M990.68,-314.4C983.83,-339.17 969.44,-382.45 946,-413 935.39,-426.83 919.32,-438.63 907.19,-446.35"/>
<polygon fill="midnightblue" stroke="midnightblue" points="994.07,-315.29 993.23,-304.73 987.3,-313.51 994.07,-315.29"/>
</g>
<!-- Node11 -->
<g id="node11" class="node">
<title>Node11</title>
<g id="a_node11"><a xlink:href="_transmitter_code_2src_2main_8cpp.html#a711945ac5f6948657463708863748432" target="_top" xlink:title=" ">
<polygon fill="white" stroke="black" points="707.5,-418.5 707.5,-437.5 761.5,-437.5 761.5,-418.5 707.5,-418.5"/>
<text text-anchor="middle" x="734.5" y="-425.5" font-family="Helvetica,sans-Serif" font-size="10.00">DrawDot</text>
</a>
</g>
</g>
<!-- Node1&#45;&gt;Node11 -->
<g id="edge13" class="edge">
<title>Node1&#45;&gt;Node11</title>
<path fill="none" stroke="midnightblue" d="M987.79,-314.22C979.84,-331.59 965.82,-356.58 946,-371 889.21,-412.32 804.19,-423.69 761.68,-426.81"/>
<polygon fill="midnightblue" stroke="midnightblue" points="991.21,-315.12 991.94,-304.55 984.78,-312.36 991.21,-315.12"/>
</g>
<!-- Node12 -->
<g id="node12" class="node">
<title>Node12</title>
<g id="a_node12"><a xlink:href="_transmitter_code_2src_2main_8cpp.html#a6bdc6419b47dda71d0d2c8faf652adc2" target="_top" xlink:title=" ">
<polygon fill="white" stroke="black" points="518.5,-1140.5 518.5,-1159.5 595.5,-1159.5 595.5,-1140.5 518.5,-1140.5"/>
<text text-anchor="middle" x="557" y="-1147.5" font-family="Helvetica,sans-Serif" font-size="10.00">DrawFhssBox</text>
</a>
</g>
</g>
<!-- Node1&#45;&gt;Node12 -->
<g id="edge15" class="edge">
<title>Node1&#45;&gt;Node12</title>
<path fill="none" stroke="midnightblue" d="M995.71,-314.81C996.77,-431.77 999.51,-1029.08 946,-1088 855.54,-1187.61 674.13,-1170.53 595.63,-1157.44"/>
<polygon fill="midnightblue" stroke="midnightblue" points="999.21,-314.72 995.61,-304.76 992.21,-314.79 999.21,-314.72"/>
</g>
<!-- Node13 -->
<g id="node13" class="node">
<title>Node13</title>
<g id="a_node13"><a xlink:href="_transmitter_code_2src_2main_8cpp.html#acbef1d41e1bd646b60a6e8afd9c66880" target="_top" xlink:title=" ">
<polygon fill="white" stroke="black" points="860.5,-342.5 860.5,-361.5 918.5,-361.5 918.5,-342.5 860.5,-342.5"/>
<text text-anchor="middle" x="889.5" y="-349.5" font-family="Helvetica,sans-Serif" font-size="10.00">DrawLine</text>
</a>
</g>
</g>
<!-- Node1&#45;&gt;Node13 -->
<g id="edge17" class="edge">
<title>Node1&#45;&gt;Node13</title>
<path fill="none" stroke="midnightblue" d="M974.19,-310.43C965.64,-316.29 955.56,-322.8 946,-328 936.22,-333.32 925.03,-338.34 915.27,-342.41"/>
<polygon fill="midnightblue" stroke="midnightblue" points="976.28,-313.24 982.46,-304.64 972.26,-307.5 976.28,-313.24"/>
</g>
<!-- Node14 -->
<g id="node14" class="node">
<title>Node14</title>
<g id="a_node14"><a xlink:href="_transmitter_code_2src_2main_8cpp.html#a4f813935d8fe58355228cbbf25e12f96" target="_top" xlink:title=" ">
<polygon fill="white" stroke="black" points="833,-190.5 833,-209.5 946,-209.5 946,-190.5 833,-190.5"/>
<text text-anchor="middle" x="889.5" y="-197.5" font-family="Helvetica,sans-Serif" font-size="10.00">GetRXVersionNumber</text>
</a>
</g>
</g>
<!-- Node1&#45;&gt;Node14 -->
<g id="edge19" class="edge">
<title>Node1&#45;&gt;Node14</title>
<path fill="none" stroke="midnightblue" d="M986.21,-276.19C977.62,-260.46 963.56,-238.35 946,-224 938.6,-217.96 929.45,-213.18 920.73,-209.53"/>
<polygon fill="midnightblue" stroke="midnightblue" points="983.31,-278.21 991.04,-285.46 989.52,-274.98 983.31,-278.21"/>
</g>
<!-- Node16 -->
<g id="node16" class="node">
<title>Node16</title>
<g id="a_node16"><a xlink:href="_transmitter_code_2src_2main_8cpp.html#a39e1bbcbd0591a8e354b3c5c999a8882" target="_top" xlink:title=" ">
<polygon fill="white" stroke="black" points="500.5,-266.5 500.5,-285.5 613.5,-285.5 613.5,-266.5 500.5,-266.5"/>
<text text-anchor="middle" x="557" y="-273.5" font-family="Helvetica,sans-Serif" font-size="10.00">GetTXVersionNumber</text>
</a>
</g>
</g>
<!-- Node1&#45;&gt;Node16 -->
<g id="edge22" class="edge">
<title>Node1&#45;&gt;Node16</title>
<path fill="none" stroke="midnightblue" d="M977.11,-278.95C968.32,-272.33 957.27,-265.41 946,-262 829.45,-226.71 793.55,-254.56 672,-262 652.89,-263.17 632.08,-265.43 613.54,-267.8"/>
<polygon fill="midnightblue" stroke="midnightblue" points="975.08,-281.81 985.07,-285.34 979.46,-276.35 975.08,-281.81"/>
</g>
<!-- Node18 -->
<g id="node18" class="node">
<title>Node18</title>
<g id="a_node18"><a xlink:href="_transmitter_code_2src_2main_8cpp.html#a483cced19b61975f76957f5696425fe9" target="_top" xlink:title=" ">
<polygon fill="white" stroke="black" points="526.5,-152.5 526.5,-171.5 587.5,-171.5 587.5,-152.5 526.5,-152.5"/>
<text text-anchor="middle" x="557" y="-159.5" font-family="Helvetica,sans-Serif" font-size="10.00">ReadTime</text>
</a>
</g>
</g>
<!-- Node1&#45;&gt;Node18 -->
<g id="edge24" class="edge">
<title>Node1&#45;&gt;Node18</title>
<path fill="none" stroke="midnightblue" d="M993.22,-275.23C989.02,-248.77 977.37,-202.69 946,-181 888.31,-141.1 668.23,-153.5 587.72,-159.55"/>
<polygon fill="midnightblue" stroke="midnightblue" points="989.77,-275.81 994.61,-285.23 996.7,-274.85 989.77,-275.81"/>
</g>
<!-- Node19 -->
<g id="node19" class="node">
<title>Node19</title>
<g id="a_node19"><a xlink:href="_transmitter_code_2src_2main_8cpp.html#ab7c9edf843c732d7fe296564f39bc0dc" target="_top" xlink:title="RECEIVE A MODEL FILE.">
<polygon fill="white" stroke="black" points="345,-1054.5 345,-1073.5 439,-1073.5 439,-1054.5 345,-1054.5"/>
<text text-anchor="middle" x="392" y="-1061.5" font-family="Helvetica,sans-Serif" font-size="10.00">ReceiveModelFile</text>
</a>
</g>
</g>
<!-- Node1&#45;&gt;Node19 -->
<g id="edge26" class="edge">
<title>Node1&#45;&gt;Node19</title>
<path fill="none" stroke="midnightblue" d="M994.94,-314.69C992.36,-398.4 980.27,-724.87 946,-821 906.09,-932.93 898.77,-981.66 797,-1043 680.91,-1112.98 510.24,-1089.38 433.27,-1073.52"/>
<polygon fill="midnightblue" stroke="midnightblue" points="998.44,-314.64 995.24,-304.54 991.45,-314.43 998.44,-314.64"/>
</g>
<!-- Node20 -->
<g id="node20" class="node">
<title>Node20</title>
<g id="a_node20"><a xlink:href="_radio_functions_8cpp.html#a3856ba0adae43d089f08c7b7f653b306" target="_top" xlink:title="This scans and displays result.">
<polygon fill="white" stroke="black" points="71,-128.5 71,-147.5 162,-147.5 162,-128.5 71,-128.5"/>
<text text-anchor="middle" x="116.5" y="-135.5" font-family="Helvetica,sans-Serif" font-size="10.00">ScanAllChannels</text>
</a>
</g>
</g>
<!-- Node1&#45;&gt;Node20 -->
<g id="edge28" class="edge">
<title>Node1&#45;&gt;Node20</title>
<path fill="none" stroke="midnightblue" d="M994.95,-275.17C992.91,-243.5 983.97,-181.93 946,-151 872.87,-91.42 829.82,-124 735.5,-124 735.5,-124 735.5,-124 391,-124 310.41,-124 216.64,-130.14 162.47,-134.29"/>
<polygon fill="midnightblue" stroke="midnightblue" points="991.46,-275.55 995.43,-285.37 998.45,-275.22 991.46,-275.55"/>
</g>
<!-- Node21 -->
<g id="node21" class="node">
<title>Node21</title>
<g id="a_node21"><a xlink:href="_transmitter_code_2src_2main_8cpp.html#a4f1ca0e52ac9382c6d314d0a4b4a44cc" target="_top" xlink:title=" ">
<polygon fill="white" stroke="black" points="845.5,-76.5 845.5,-95.5 933.5,-95.5 933.5,-76.5 845.5,-76.5"/>
<text text-anchor="middle" x="889.5" y="-83.5" font-family="Helvetica,sans-Serif" font-size="10.00">SendOtherValue</text>
</a>
</g>
</g>
<!-- Node1&#45;&gt;Node21 -->
<g id="edge30" class="edge">
<title>Node1&#45;&gt;Node21</title>
<path fill="none" stroke="midnightblue" d="M995.58,-274.75C994.65,-237.64 987.56,-158.15 946,-110 940.58,-103.72 933.22,-99.03 925.64,-95.55"/>
<polygon fill="midnightblue" stroke="midnightblue" points="992.08,-275.25 995.7,-285.21 999.08,-275.17 992.08,-275.25"/>
</g>
<!-- Node22 -->
<g id="node22" class="node">
<title>Node22</title>
<g id="a_node22"><a xlink:href="_transmitter_code_2src_2main_8cpp.html#a1e20efc1e419b252b50d36f9924503fc" target="_top" xlink:title=" ">
<polygon fill="white" stroke="black" points="857.5,-703.5 857.5,-722.5 921.5,-722.5 921.5,-703.5 857.5,-703.5"/>
<text text-anchor="middle" x="889.5" y="-710.5" font-family="Helvetica,sans-Serif" font-size="10.00">SendValue</text>
</a>
</g>
</g>
<!-- Node1&#45;&gt;Node22 -->
<g id="edge31" class="edge">
<title>Node1&#45;&gt;Node22</title>
<path fill="none" stroke="midnightblue" d="M990.65,-314.32C972.15,-387.95 906.43,-649.59 892.93,-703.32"/>
<polygon fill="midnightblue" stroke="midnightblue" points="994.07,-315.07 993.11,-304.52 987.28,-313.36 994.07,-315.07"/>
</g>
<!-- Node36 -->
<g id="node36" class="node">
<title>Node36</title>
<g id="a_node36"><a xlink:href="_transmitter_code_2src_2main_8cpp.html#a9e1de754e1d2d483fb15957f70cf0488" target="_top" xlink:title=" ">
<polygon fill="white" stroke="black" points="478,-836.5 478,-855.5 636,-855.5 636,-836.5 478,-836.5"/>
<text text-anchor="middle" x="557" y="-843.5" font-family="Helvetica,sans-Serif" font-size="10.00">UpdateModelsNameEveryWhere</text>
</a>
</g>
</g>
<!-- Node1&#45;&gt;Node36 -->
<g id="edge82" class="edge">
<title>Node1&#45;&gt;Node36</title>
<path fill="none" stroke="midnightblue" d="M994.8,-315.16C991.94,-390.57 979.66,-655.55 946,-732 905.38,-824.26 888.75,-861.25 797,-903 716.82,-939.48 610.48,-880.02 572.36,-855.66"/>
<polygon fill="midnightblue" stroke="midnightblue" points="998.31,-314.87 995.18,-304.75 991.32,-314.61 998.31,-314.87"/>
</g>
<!-- Node39 -->
<g id="node39" class="node">
<title>Node39</title>
<g id="a_node39"><a xlink:href="_transmitter_code_2src_2main_8cpp.html#a7e5f9fa724c65cc0f0c56bc85b2b6273" target="_top" xlink:title=" ">
<polygon fill="white" stroke="black" points="357.5,-446.5 357.5,-465.5 426.5,-465.5 426.5,-446.5 357.5,-446.5"/>
<text text-anchor="middle" x="392" y="-453.5" font-family="Helvetica,sans-Serif" font-size="10.00">SendValue1</text>
</a>
</g>
</g>
<!-- Node1&#45;&gt;Node39 -->
<g id="edge77" class="edge">
<title>Node1&#45;&gt;Node39</title>
<path fill="none" stroke="midnightblue" d="M971.94,-290.87C917.8,-282.25 780.78,-265.5 672,-295 557.3,-326.1 440.78,-416.5 404.49,-446.33"/>
<polygon fill="midnightblue" stroke="midnightblue" points="971.48,-294.34 981.92,-292.51 972.62,-287.43 971.48,-294.34"/>
</g>
<!-- Node40 -->
<g id="node40" class="node">
<title>Node40</title>
<g id="a_node40"><a xlink:href="_transmitter_code_2src_2main_8cpp.html#acbf191793a3e8f2b68239358e35557b3" target="_top" xlink:title=" ">
<polygon fill="white" stroke="black" points="860,-38.5 860,-57.5 919,-57.5 919,-38.5 860,-38.5"/>
<text text-anchor="middle" x="889.5" y="-45.5" font-family="Helvetica,sans-Serif" font-size="10.00">SetColour</text>
</a>
</g>
</g>
<!-- Node1&#45;&gt;Node40 -->
<g id="edge80" class="edge">
<title>Node1&#45;&gt;Node40</title>
<path fill="none" stroke="midnightblue" d="M993.68,-275.17C988.75,-225.6 973.61,-98.02 946,-67 939.09,-59.24 928.88,-54.65 919.09,-51.93"/>
<polygon fill="midnightblue" stroke="midnightblue" points="990.21,-275.63 994.65,-285.25 997.17,-274.97 990.21,-275.63"/>
</g>
<!-- Node41 -->
<g id="node41" class="node">
<title>Node41</title>
<g id="a_node41"><a xlink:href="_transmitter_code_2src_2main_8cpp.html#a378660478726345c8b1bbd5626563667" target="_top" xlink:title=" ">
<polygon fill="white" stroke="black" points="860,-0.5 860,-19.5 919,-19.5 919,-0.5 860,-0.5"/>
<text text-anchor="middle" x="889.5" y="-7.5" font-family="Helvetica,sans-Serif" font-size="10.00">SetPco2s</text>
</a>
</g>
</g>
<!-- Node1&#45;&gt;Node41 -->
<g id="edge81" class="edge">
<title>Node1&#45;&gt;Node41</title>
<path fill="none" stroke="midnightblue" d="M994.36,-275.25C990.79,-220.12 978.11,-66.17 946,-29 939.21,-21.14 929.02,-16.53 919.22,-13.82"/>
<polygon fill="midnightblue" stroke="midnightblue" points="990.88,-275.67 994.99,-285.44 997.86,-275.24 990.88,-275.67"/>
</g>
<!-- Node3 -->
<g id="node3" class="node">
<title>Node3</title>
<g id="a_node3"><a xlink:href="_transmitter_code_2src_2main_8cpp.html#af941d3a33327b2cee79e058ba9cd65f6" target="_top" xlink:title=" ">
<polygon fill="white" stroke="black" points="520,-484.5 520,-503.5 594,-503.5 594,-484.5 520,-484.5"/>
<text text-anchor="middle" x="557" y="-491.5" font-family="Helvetica,sans-Serif" font-size="10.00">DisplayCurve</text>
</a>
</g>
</g>
<!-- Node2&#45;&gt;Node3 -->
<g id="edge2" class="edge">
<title>Node2&#45;&gt;Node3</title>
<path fill="none" stroke="midnightblue" d="M696.78,-324.42C688.14,-327.9 679.33,-332.36 672,-338 616.44,-380.76 575.62,-457.68 562.5,-484.48"/>
<polygon fill="midnightblue" stroke="midnightblue" points="698.18,-327.63 706.36,-320.91 695.77,-321.06 698.18,-327.63"/>
</g>
<!-- Node4 -->
<g id="node4" class="node">
<title>Node4</title>
<g id="a_node4"><a xlink:href="_transmitter_code_2src_2main_8cpp.html#aed6c682ed45951f95e0b02cf6b570da2" target="_top" xlink:title=" ">
<polygon fill="white" stroke="black" points="198,-750.5 198,-769.5 306,-769.5 306,-750.5 198,-750.5"/>
<text text-anchor="middle" x="252" y="-757.5" font-family="Helvetica,sans-Serif" font-size="10.00">Button_was_pressed</text>
</a>
</g>
</g>
<!-- Node3&#45;&gt;Node4 -->
<g id="edge3" class="edge">
<title>Node3&#45;&gt;Node4</title>
<path fill="none" stroke="midnightblue" d="M509.78,-484.51C462.39,-477.61 389.14,-475.13 342,-513 300.58,-546.27 323.85,-576.95 306,-627 289.3,-673.82 266.35,-728.66 257.1,-750.41"/>
<polygon fill="midnightblue" stroke="midnightblue" points="509.35,-487.99 519.77,-486.09 510.44,-481.07 509.35,-487.99"/>
</g>
<!-- Node6 -->
<g id="node6" class="node">
<title>Node6</title>
<g id="a_node6"><a xlink:href="_transmitter_code_2src_2main_8cpp.html#adf35f0ced7990f813a783d0ecd33bf64" target="_top" xlink:title=" ">
<polygon fill="white" stroke="black" points="352,-560.5 352,-579.5 432,-579.5 432,-560.5 352,-560.5"/>
<text text-anchor="middle" x="392" y="-567.5" font-family="Helvetica,sans-Serif" font-size="10.00">GetFlightMode</text>
</a>
</g>
</g>
<!-- Node3&#45;&gt;Node6 -->
<g id="edge5" class="edge">
<title>Node3&#45;&gt;Node6</title>
<path fill="none" stroke="midnightblue" d="M528.99,-508.4C506.1,-520.39 472.27,-537.6 442,-551 434.57,-554.29 426.39,-557.59 418.87,-560.49"/>
<polygon fill="midnightblue" stroke="midnightblue" points="530.87,-511.37 538.09,-503.61 527.61,-505.18 530.87,-511.37"/>
</g>
<!-- Node9 -->
<g id="node9" class="node">
<title>Node9</title>
<g id="a_node9"><a xlink:href="_transmitter_code_2src_2main_8cpp.html#aad727ec0b0f9f34487a535eaa4a83172" target="_top" xlink:title="moves point very close to where user hit screen">
<polygon fill="white" stroke="black" points="360.5,-522.5 360.5,-541.5 423.5,-541.5 423.5,-522.5 360.5,-522.5"/>
<text text-anchor="middle" x="392" y="-529.5" font-family="Helvetica,sans-Serif" font-size="10.00">MovePoint</text>
</a>
</g>
</g>
<!-- Node3&#45;&gt;Node9 -->
<g id="edge9" class="edge">
<title>Node3&#45;&gt;Node9</title>
<path fill="none" stroke="midnightblue" d="M509.98,-504.73C482.33,-511.17 447.92,-519.2 423.6,-524.87"/>
<polygon fill="midnightblue" stroke="midnightblue" points="510.88,-508.11 519.83,-502.43 509.29,-501.3 510.88,-508.11"/>
</g>
<!-- Node5 -->
<g id="node5" class="node">
<title>Node5</title>
<g id="a_node5"><a xlink:href="_transmitter_code_2src_2main_8cpp.html#afe461d27b9c48d5921c00d521181f12f" target="_top" xlink:title=" ">
<polygon fill="white" stroke="black" points="0,-294.5 0,-313.5 35,-313.5 35,-294.5 0,-294.5"/>
<text text-anchor="middle" x="17.5" y="-301.5" font-family="Helvetica,sans-Serif" font-size="10.00">loop</text>
</a>
</g>
</g>
<!-- Node4&#45;&gt;Node5 -->
<g id="edge4" class="edge">
<title>Node4&#45;&gt;Node5</title>
<path fill="none" stroke="midnightblue" d="M241.54,-741.45C202.29,-664.47 52.89,-371.45 23.53,-313.86"/>
<polygon fill="midnightblue" stroke="midnightblue" points="238.48,-743.16 246.14,-750.48 244.72,-739.98 238.48,-743.16"/>
</g>
<!-- Node7 -->
<g id="node7" class="node">
<title>Node7</title>
<g id="a_node7"><a xlink:href="_transmitter_code_2src_2main_8cpp.html#ab0af36f3442ad4f2d0b716c14c7d6085" target="_top" xlink:title=" ">
<polygon fill="white" stroke="black" points="212,-503.5 212,-522.5 292,-522.5 292,-503.5 212,-503.5"/>
<text text-anchor="middle" x="252" y="-510.5" font-family="Helvetica,sans-Serif" font-size="10.00">ReadSwitches</text>
</a>
</g>
</g>
<!-- Node6&#45;&gt;Node7 -->
<g id="edge6" class="edge">
<title>Node6&#45;&gt;Node7</title>
<path fill="none" stroke="midnightblue" d="M356.69,-556.86C351.75,-554.92 346.74,-552.93 342,-551 318.97,-541.62 292.82,-530.39 274.86,-522.58"/>
<polygon fill="midnightblue" stroke="midnightblue" points="355.42,-560.13 366.01,-560.5 357.96,-553.6 355.42,-560.13"/>
</g>
<!-- Node8 -->
<g id="node8" class="node">
<title>Node8</title>
<g id="a_node8"><a xlink:href="_radio_functions_8cpp.html#a3d7322e78f097d02d476f17a6306997c" target="_top" xlink:title=" ">
<polygon fill="white" stroke="black" points="87,-370.5 87,-389.5 146,-389.5 146,-370.5 87,-370.5"/>
<text text-anchor="middle" x="116.5" y="-377.5" font-family="Helvetica,sans-Serif" font-size="10.00">SendData</text>
</a>
</g>
</g>
<!-- Node7&#45;&gt;Node8 -->
<g id="edge7" class="edge">
<title>Node7&#45;&gt;Node8</title>
<path fill="none" stroke="midnightblue" d="M234.24,-496.3C206.06,-468.23 150.05,-412.43 127.37,-389.84"/>
<polygon fill="midnightblue" stroke="midnightblue" points="231.84,-498.86 241.4,-503.43 236.78,-493.9 231.84,-498.86"/>
</g>
<!-- Node8&#45;&gt;Node5 -->
<g id="edge8" class="edge">
<title>Node8&#45;&gt;Node5</title>
<path fill="none" stroke="midnightblue" d="M85.81,-365.53C80.71,-362.62 75.58,-359.4 71,-356 53.68,-343.17 36.48,-324.79 26.71,-313.66"/>
<polygon fill="midnightblue" stroke="midnightblue" points="84.36,-368.73 94.82,-370.41 87.7,-362.57 84.36,-368.73"/>
</g>
<!-- Node9&#45;&gt;Node4 -->
<g id="edge10" class="edge">
<title>Node9&#45;&gt;Node4</title>
<path fill="none" stroke="midnightblue" d="M351.16,-544.13C347.84,-546.09 344.72,-548.37 342,-551 334.14,-558.61 272.98,-710.19 256.88,-750.32"/>
<polygon fill="midnightblue" stroke="midnightblue" points="352.88,-547.18 360.29,-539.6 349.78,-540.91 352.88,-547.18"/>
</g>
<!-- Node10&#45;&gt;Node3 -->
<g id="edge12" class="edge">
<title>Node10&#45;&gt;Node3</title>
<path fill="none" stroke="midnightblue" d="M851.41,-460.26C787.47,-467.62 657.27,-482.59 594.05,-489.85"/>
<polygon fill="midnightblue" stroke="midnightblue" points="851.92,-463.73 861.45,-459.11 851.12,-456.77 851.92,-463.73"/>
</g>
<!-- Node11&#45;&gt;Node3 -->
<g id="edge14" class="edge">
<title>Node11&#45;&gt;Node3</title>
<path fill="none" stroke="midnightblue" d="M698.42,-441.19C664.37,-454 613.52,-473.12 583.27,-484.5"/>
<polygon fill="midnightblue" stroke="midnightblue" points="699.85,-444.39 707.98,-437.6 697.39,-437.84 699.85,-444.39"/>
</g>
<!-- Node12&#45;&gt;Node4 -->
<g id="edge16" class="edge">
<title>Node12&#45;&gt;Node4</title>
<path fill="none" stroke="midnightblue" d="M508.28,-1158.95C460.33,-1165.01 387.22,-1165.82 342,-1126 285.81,-1076.52 258.93,-822.69 253.89,-769.7"/>
<polygon fill="midnightblue" stroke="midnightblue" points="508.98,-1162.39 518.41,-1157.55 508.02,-1155.45 508.98,-1162.39"/>
</g>
<!-- Node13&#45;&gt;Node3 -->
<g id="edge18" class="edge">
<title>Node13&#45;&gt;Node3</title>
<path fill="none" stroke="midnightblue" d="M850.22,-357.52C805.71,-364.96 730.83,-380.65 672,-409 629.52,-429.47 586.97,-466.71 568.1,-484.3"/>
<polygon fill="midnightblue" stroke="midnightblue" points="851,-360.94 860.31,-355.89 849.88,-354.03 851,-360.94"/>
</g>
<!-- Node15 -->
<g id="node15" class="node">
<title>Node15</title>
<g id="a_node15"><a xlink:href="_transmitter_code_2src_2main_8cpp.html#a230e862a4da0f66746b6b3afba6bd77a" target="_top" xlink:title=" ">
<polygon fill="white" stroke="black" points="205,-370.5 205,-389.5 299,-389.5 299,-370.5 205,-370.5"/>
<text text-anchor="middle" x="252" y="-377.5" font-family="Helvetica,sans-Serif" font-size="10.00">ParseAckPayload</text>
</a>
</g>
</g>
<!-- Node14&#45;&gt;Node15 -->
<g id="edge20" class="edge">
<title>Node14&#45;&gt;Node15</title>
<path fill="none" stroke="midnightblue" d="M822.77,-203.14C740.65,-208.42 596.5,-222.17 478,-257 414.09,-275.79 395.35,-280.11 342,-320 322.58,-334.52 326.05,-347.36 306,-361 300.42,-364.79 294,-367.92 287.6,-370.47"/>
<polygon fill="midnightblue" stroke="midnightblue" points="823.2,-206.62 832.96,-202.51 822.77,-199.64 823.2,-206.62"/>
</g>
<!-- Node15&#45;&gt;Node8 -->
<g id="edge21" class="edge">
<title>Node15&#45;&gt;Node8</title>
<path fill="none" stroke="midnightblue" d="M194.48,-380C177.84,-380 160.34,-380 146.24,-380"/>
<polygon fill="midnightblue" stroke="midnightblue" points="194.68,-383.5 204.68,-380 194.68,-376.5 194.68,-383.5"/>
</g>
<!-- Node17 -->
<g id="node17" class="node">
<title>Node17</title>
<g id="a_node17"><a xlink:href="_transmitter_code_2src_2main_8cpp.html#a4fc01d736fe50cf5b977f755b675f11d" target="_top" xlink:title=" ">
<polygon fill="white" stroke="black" points="231.5,-598.5 231.5,-617.5 272.5,-617.5 272.5,-598.5 231.5,-598.5"/>
<text text-anchor="middle" x="252" y="-605.5" font-family="Helvetica,sans-Serif" font-size="10.00">setup</text>
</a>
</g>
</g>
<!-- Node16&#45;&gt;Node17 -->
<g id="edge23" class="edge">
<title>Node16&#45;&gt;Node17</title>
<path fill="none" stroke="midnightblue" d="M501.79,-288.87C493.53,-291.9 485.32,-295.57 478,-300 404.58,-344.39 388.44,-364.86 342,-437 317.56,-474.97 327.07,-492.07 306,-532 292.64,-557.32 272.23,-584.17 261.04,-598.19"/>
<polygon fill="midnightblue" stroke="midnightblue" points="503.12,-292.12 511.48,-285.61 500.88,-285.49 503.12,-292.12"/>
</g>
<!-- Node18&#45;&gt;Node5 -->
<g id="edge25" class="edge">
<title>Node18&#45;&gt;Node5</title>
<path fill="none" stroke="midnightblue" d="M516.21,-157.22C428.57,-148.72 215.21,-139.43 71,-228 45.17,-243.86 28.87,-277.73 22.1,-294.37"/>
<polygon fill="midnightblue" stroke="midnightblue" points="515.96,-160.71 526.26,-158.24 516.67,-153.74 515.96,-160.71"/>
</g>
<!-- Node19&#45;&gt;Node4 -->
<g id="edge27" class="edge">
<title>Node19&#45;&gt;Node4</title>
<path fill="none" stroke="midnightblue" d="M346.41,-1049.03C344.83,-1047.79 343.36,-1046.45 342,-1045 263.59,-961.13 254.24,-809.03 253.14,-769.56"/>
<polygon fill="midnightblue" stroke="midnightblue" points="344.57,-1052.01 354.89,-1054.42 348.33,-1046.1 344.57,-1052.01"/>
</g>
<!-- Node20&#45;&gt;Node5 -->
<g id="edge29" class="edge">
<title>Node20&#45;&gt;Node5</title>
<path fill="none" stroke="midnightblue" d="M81.47,-152.86C77.61,-155.51 73.99,-158.55 71,-162 35.67,-202.68 23.26,-269.27 19.71,-294.18"/>
<polygon fill="midnightblue" stroke="midnightblue" points="83.38,-155.8 90.17,-147.66 79.79,-149.79 83.38,-155.8"/>
</g>
<!-- Node22&#45;&gt;Node3 -->
<g id="edge36" class="edge">
<title>Node22&#45;&gt;Node3</title>
<path fill="none" stroke="midnightblue" d="M885,-693.34C877.01,-654.66 853.54,-568.91 797,-528 736.56,-484.27 644.62,-484.91 594.21,-489.37"/>
<polygon fill="midnightblue" stroke="midnightblue" points="881.6,-694.17 886.94,-703.33 888.47,-692.84 881.6,-694.17"/>
</g>
<!-- Node22&#45;&gt;Node4 -->
<g id="edge32" class="edge">
<title>Node22&#45;&gt;Node4</title>
<path fill="none" stroke="midnightblue" d="M885.09,-732.75C877.22,-771.99 853.89,-859.75 797,-903 739.12,-947.01 708.42,-925.53 636,-932 505.55,-943.65 445.45,-992.32 342,-912 309.27,-886.59 327.18,-861.61 306,-826 293.08,-804.28 273.6,-781.95 262.2,-769.64"/>
<polygon fill="midnightblue" stroke="midnightblue" points="888.55,-733.31 886.96,-722.83 881.67,-732.02 888.55,-733.31"/>
</g>
<!-- Node22&#45;&gt;Node17 -->
<g id="edge44" class="edge">
<title>Node22&#45;&gt;Node17</title>
<path fill="none" stroke="midnightblue" d="M847.25,-705.13C831.54,-702.18 813.45,-698.86 797,-696 592.46,-660.46 343.8,-621.94 272.79,-611.03"/>
<polygon fill="midnightblue" stroke="midnightblue" points="846.72,-708.59 857.19,-707 848.01,-701.71 846.72,-708.59"/>
</g>
<!-- Node22&#45;&gt;Node19 -->
<g id="edge37" class="edge">
<title>Node22&#45;&gt;Node19</title>
<path fill="none" stroke="midnightblue" d="M889.32,-732.77C890.4,-787.73 885.17,-943.16 797,-1017 769.97,-1039.64 539.15,-1055.56 439.03,-1061.47"/>
<polygon fill="midnightblue" stroke="midnightblue" points="892.81,-732.52 889.02,-722.63 885.81,-732.73 892.81,-732.52"/>
</g>
<!-- Node23 -->
<g id="node23" class="node">
<title>Node23</title>
<g id="a_node23"><a xlink:href="_transmitter_code_2src_2main_8cpp.html#addfc131a271de92cb52d869fde35729e" target="_top" xlink:title=" ">
<polygon fill="white" stroke="black" points="522.5,-560.5 522.5,-579.5 591.5,-579.5 591.5,-560.5 522.5,-560.5"/>
<text text-anchor="middle" x="557" y="-567.5" font-family="Helvetica,sans-Serif" font-size="10.00">CheckTimer</text>
</a>
</g>
</g>
<!-- Node22&#45;&gt;Node23 -->
<g id="edge33" class="edge">
<title>Node22&#45;&gt;Node23</title>
<path fill="none" stroke="midnightblue" d="M879.45,-694.31C865.65,-668.08 836.73,-621.1 797,-599 731.43,-562.53 640.31,-562.95 591.71,-566.45"/>
<polygon fill="midnightblue" stroke="midnightblue" points="876.34,-695.91 883.98,-703.25 882.58,-692.75 876.34,-695.91"/>
</g>
<!-- Node24 -->
<g id="node24" class="node">
<title>Node24</title>
<g id="a_node24"><a xlink:href="_transmitter_code_2src_2main_8cpp.html#a5616f31633181a5cefde5d7cb6210d3f" target="_top" xlink:title=" ">
<polygon fill="white" stroke="black" points="692.5,-874.5 692.5,-893.5 776.5,-893.5 776.5,-874.5 692.5,-874.5"/>
<text text-anchor="middle" x="734.5" y="-881.5" font-family="Helvetica,sans-Serif" font-size="10.00">SendMixValues</text>
</a>
</g>
</g>
<!-- Node22&#45;&gt;Node24 -->
<g id="edge38" class="edge">
<title>Node22&#45;&gt;Node24</title>
<path fill="none" stroke="midnightblue" d="M881.2,-732.37C868.57,-763.41 839.82,-824.44 797,-860 789.59,-866.15 780.43,-870.85 771.45,-874.39"/>
<polygon fill="midnightblue" stroke="midnightblue" points="884.59,-733.31 884.99,-722.73 878.07,-730.75 884.59,-733.31"/>
</g>
<!-- Node25 -->
<g id="node25" class="node">
<title>Node25</title>
<g id="a_node25"><a xlink:href="_transmitter_code_2src_2main_8cpp.html#a58c67a975068930341f0663e0a08c9d3" target="_top" xlink:title="SEND A MODEL FILE.">
<polygon fill="white" stroke="black" points="694,-722.5 694,-741.5 775,-741.5 775,-722.5 694,-722.5"/>
<text text-anchor="middle" x="734.5" y="-729.5" font-family="Helvetica,sans-Serif" font-size="10.00">SendModelFile</text>
</a>
</g>
</g>
<!-- Node22&#45;&gt;Node25 -->
<g id="edge40" class="edge">
<title>Node22&#45;&gt;Node25</title>
<path fill="none" stroke="midnightblue" d="M846.99,-718.16C824.67,-720.93 797.29,-724.33 775.25,-727.06"/>
<polygon fill="midnightblue" stroke="midnightblue" points="847.68,-721.6 857.17,-716.89 846.81,-714.65 847.68,-721.6"/>
</g>
<!-- Node26 -->
<g id="node26" class="node">
<title>Node26</title>
<g id="a_node26"><a xlink:href="_transmitter_code_2src_2main_8cpp.html#acbd0460ea44a7d07e4d77878411febb4" target="_top" xlink:title=" ">
<polygon fill="white" stroke="black" points="346,-750.5 346,-769.5 438,-769.5 438,-750.5 346,-750.5"/>
<text text-anchor="middle" x="392" y="-757.5" font-family="Helvetica,sans-Serif" font-size="10.00">SetDefaultValues</text>
</a>
</g>
</g>
<!-- Node22&#45;&gt;Node26 -->
<g id="edge42" class="edge">
<title>Node22&#45;&gt;Node26</title>
<path fill="none" stroke="midnightblue" d="M861.73,-727.23C843.92,-735.9 819.72,-746.21 797,-751 669.15,-777.98 513.49,-770.46 438.16,-764.37"/>
<polygon fill="midnightblue" stroke="midnightblue" points="863.54,-730.24 870.91,-722.63 860.4,-723.98 863.54,-730.24"/>
</g>
<!-- Node27 -->
<g id="node27" class="node">
<title>Node27</title>
<g id="a_node27"><a xlink:href="_transmitter_code_2src_2main_8cpp.html#a5d3a46c21927cf7a3031a1e68e0b7b48" target="_top" xlink:title="SHOW COMMS.">
<polygon fill="white" stroke="black" points="214.5,-332.5 214.5,-351.5 289.5,-351.5 289.5,-332.5 214.5,-332.5"/>
<text text-anchor="middle" x="252" y="-339.5" font-family="Helvetica,sans-Serif" font-size="10.00">ShowComms</text>
</a>
</g>
</g>
<!-- Node22&#45;&gt;Node27 -->
<g id="edge45" class="edge">
<title>Node22&#45;&gt;Node27</title>
<path fill="none" stroke="midnightblue" d="M882.66,-693.36C871.73,-660.29 844.85,-593.99 797,-562 677.75,-482.29 586.34,-607.01 478,-513 436.27,-476.78 481.56,-432.57 442,-394 400.94,-353.97 332.05,-344.11 289.76,-342.04"/>
<polygon fill="midnightblue" stroke="midnightblue" points="879.42,-694.71 885.77,-703.2 886.1,-692.61 879.42,-694.71"/>
</g>
<!-- Node28 -->
<g id="node28" class="node">
<title>Node28</title>
<g id="a_node28"><a xlink:href="_transmitter_code_2src_2main_8cpp.html#ad959eec03b0151ade81dc088593d816c" target="_top" xlink:title=" ">
<polygon fill="white" stroke="black" points="210,-237.5 210,-256.5 294,-256.5 294,-237.5 210,-237.5"/>
<text text-anchor="middle" x="252" y="-244.5" font-family="Helvetica,sans-Serif" font-size="10.00">ShowServoPos</text>
</a>
</g>
</g>
<!-- Node22&#45;&gt;Node28 -->
<g id="edge48" class="edge">
<title>Node22&#45;&gt;Node28</title>
<path fill="none" stroke="midnightblue" d="M884.54,-693.51C872.16,-633.9 832.8,-455.28 797,-409 757.22,-357.57 715.53,-381.3 672,-333 646.98,-305.23 667.32,-277.4 636,-257 525.22,-184.85 355.6,-218.7 285.28,-237.45"/>
<polygon fill="midnightblue" stroke="midnightblue" points="881.15,-694.39 886.59,-703.48 888.01,-692.98 881.15,-694.39"/>
</g>
<!-- Node31 -->
<g id="node31" class="node">
<title>Node31</title>
<g id="a_node31"><a xlink:href="_transmitter_code_2src_2main_8cpp.html#abf59862cf6c4e3df5a76f0bfea8919ef" target="_top" xlink:title=" ">
<polygon fill="white" stroke="black" points="681.5,-988.5 681.5,-1007.5 787.5,-1007.5 787.5,-988.5 681.5,-988.5"/>
<text text-anchor="middle" x="734.5" y="-995.5" font-family="Helvetica,sans-Serif" font-size="10.00">UpdateButtonLabels</text>
</a>
</g>
</g>
<!-- Node22&#45;&gt;Node31 -->
<g id="edge54" class="edge">
<title>Node22&#45;&gt;Node31</title>
<path fill="none" stroke="midnightblue" d="M883.34,-732.42C872.04,-772.73 842.44,-867.45 797,-936 783.09,-956.98 761.36,-976.82 747.8,-988.18"/>
<polygon fill="midnightblue" stroke="midnightblue" points="886.77,-733.13 886.04,-722.56 880.02,-731.28 886.77,-733.13"/>
</g>
<!-- Node35 -->
<g id="node35" class="node">
<title>Node35</title>
<g id="a_node35"><a xlink:href="_transmitter_code_2src_2main_8cpp.html#ab07d91dcd72f515d2d80b1d18f95ece5" target="_top" xlink:title=" ">
<polygon fill="white" stroke="black" points="672,-608.5 672,-627.5 797,-627.5 797,-608.5 672,-608.5"/>
<text text-anchor="middle" x="734.5" y="-615.5" font-family="Helvetica,sans-Serif" font-size="10.00">updateInterpolationTypes</text>
</a>
</g>
</g>
<!-- Node22&#45;&gt;Node35 -->
<g id="edge63" class="edge">
<title>Node22&#45;&gt;Node35</title>
<path fill="none" stroke="midnightblue" d="M870.44,-696.43C852.75,-680.83 824.5,-657.6 797,-642 787.03,-636.35 775.47,-631.45 765.07,-627.58"/>
<polygon fill="midnightblue" stroke="midnightblue" points="868.45,-699.34 878.23,-703.4 873.12,-694.12 868.45,-699.34"/>
</g>
<!-- Node22&#45;&gt;Node36 -->
<g id="edge66" class="edge">
<title>Node22&#45;&gt;Node36</title>
<path fill="none" stroke="midnightblue" d="M879.77,-731.52C866.21,-757.95 837.37,-805.63 797,-827 747.89,-853 685,-857.05 636.07,-854.97"/>
<polygon fill="midnightblue" stroke="midnightblue" points="882.92,-733.05 884.21,-722.54 876.64,-729.95 882.92,-733.05"/>
</g>
<!-- Node37 -->
<g id="node37" class="node">
<title>Node37</title>
<g id="a_node37"><a xlink:href="_transmitter_code_2src_2main_8cpp.html#a14dcac76ed8a048041fdc6e6f5d5d000" target="_top" xlink:title=" ">
<polygon fill="white" stroke="black" points="499,-684.5 499,-703.5 615,-703.5 615,-684.5 499,-684.5"/>
<text text-anchor="middle" x="557" y="-691.5" font-family="Helvetica,sans-Serif" font-size="10.00">updateOneSwitchView</text>
</a>
</g>
</g>
<!-- Node22&#45;&gt;Node37 -->
<g id="edge73" class="edge">
<title>Node22&#45;&gt;Node37</title>
<path fill="none" stroke="midnightblue" d="M847.42,-710.64C788.9,-707.27 681.32,-701.09 615.09,-697.28"/>
<polygon fill="midnightblue" stroke="midnightblue" points="847.22,-714.13 857.41,-711.21 847.62,-707.14 847.22,-714.13"/>
</g>
<!-- Node38 -->
<g id="node38" class="node">
<title>Node38</title>
<g id="a_node38"><a xlink:href="_transmitter_code_2src_2main_8cpp.html#ac78966debc2cdc13d8ca958ce3b20c78" target="_top" xlink:title=" ">
<polygon fill="white" stroke="black" points="690,-798.5 690,-817.5 779,-817.5 779,-798.5 690,-798.5"/>
<text text-anchor="middle" x="734.5" y="-805.5" font-family="Helvetica,sans-Serif" font-size="10.00">UpdateTrimView</text>
</a>
</g>
</g>
<!-- Node22&#45;&gt;Node38 -->
<g id="edge75" class="edge">
<title>Node22&#45;&gt;Node38</title>
<path fill="none" stroke="midnightblue" d="M870.44,-729.57C852.75,-745.17 824.5,-768.4 797,-784 787.03,-789.65 775.47,-794.55 765.07,-798.42"/>
<polygon fill="midnightblue" stroke="midnightblue" points="873.12,-731.88 878.23,-722.6 868.45,-726.66 873.12,-731.88"/>
</g>
<!-- Node23&#45;&gt;Node6 -->
<g id="edge34" class="edge">
<title>Node23&#45;&gt;Node6</title>
<path fill="none" stroke="midnightblue" d="M511.96,-570C487.07,-570 456.22,-570 432.18,-570"/>
<polygon fill="midnightblue" stroke="midnightblue" points="512.23,-573.5 522.23,-570 512.23,-566.5 512.23,-573.5"/>
</g>
<!-- Node23&#45;&gt;Node8 -->
<g id="edge35" class="edge">
<title>Node23&#45;&gt;Node8</title>
<path fill="none" stroke="midnightblue" d="M512.57,-564.34C500.09,-560.83 487.34,-555.15 478,-546 441.56,-510.3 480.92,-469.99 442,-437 358.28,-366.03 305.71,-420.07 198,-399 180.67,-395.61 161.41,-391.09 146.07,-387.31"/>
<polygon fill="midnightblue" stroke="midnightblue" points="511.92,-567.78 522.46,-566.72 513.55,-560.97 511.92,-567.78"/>
</g>
<!-- Node24&#45;&gt;Node4 -->
<g id="edge39" class="edge">
<title>Node24&#45;&gt;Node4</title>
<path fill="none" stroke="midnightblue" d="M694.88,-896.53C619.37,-918.45 450.1,-954.66 342,-879 305.01,-853.11 336.91,-816.92 306,-784 300.19,-777.81 292.49,-773.1 284.76,-769.57"/>
<polygon fill="midnightblue" stroke="midnightblue" points="696.32,-899.75 704.9,-893.54 694.32,-893.04 696.32,-899.75"/>
</g>
<!-- Node25&#45;&gt;Node4 -->
<g id="edge41" class="edge">
<title>Node25&#45;&gt;Node4</title>
<path fill="none" stroke="midnightblue" d="M683.84,-730.18C609.3,-728.11 464.21,-726.68 342,-741 324.74,-743.02 305.88,-746.82 289.98,-750.48"/>
<polygon fill="midnightblue" stroke="midnightblue" points="683.78,-733.68 693.88,-730.47 683.98,-726.68 683.78,-733.68"/>
</g>
<!-- Node26&#45;&gt;Node4 -->
<g id="edge43" class="edge">
<title>Node26&#45;&gt;Node4</title>
<path fill="none" stroke="midnightblue" d="M335.57,-760C325.97,-760 316,-760 306.45,-760"/>
<polygon fill="midnightblue" stroke="midnightblue" points="335.81,-763.5 345.81,-760 335.81,-756.5 335.81,-763.5"/>
</g>
<!-- Node27&#45;&gt;Node5 -->
<g id="edge46" class="edge">
<title>Node27&#45;&gt;Node5</title>
<path fill="none" stroke="midnightblue" d="M204,-340.15C167.37,-337.97 115.46,-333.23 71,-323 58.72,-320.17 45.37,-315.32 35.21,-311.22"/>
<polygon fill="midnightblue" stroke="midnightblue" points="204.19,-343.67 214.37,-340.73 204.58,-336.68 204.19,-343.67"/>
</g>
<!-- Node27&#45;&gt;Node8 -->
<g id="edge47" class="edge">
<title>Node27&#45;&gt;Node8</title>
<path fill="none" stroke="midnightblue" d="M207.44,-354.4C187.35,-360.12 164.05,-366.75 146.2,-371.83"/>
<polygon fill="midnightblue" stroke="midnightblue" points="208.65,-357.69 217.31,-351.59 206.74,-350.96 208.65,-357.69"/>
</g>
<!-- Node28&#45;&gt;Node5 -->
<g id="edge53" class="edge">
<title>Node28&#45;&gt;Node5</title>
<path fill="none" stroke="midnightblue" d="M199.63,-236.36C162.35,-231.12 111.55,-229.22 71,-247 48.82,-256.72 31.88,-280.95 23.77,-294.48"/>
<polygon fill="midnightblue" stroke="midnightblue" points="199.35,-239.86 209.77,-237.92 200.41,-232.94 199.35,-239.86"/>
</g>
<!-- Node29 -->
<g id="node29" class="node">
<title>Node29</title>
<g id="a_node29"><a xlink:href="_transmitter_code_2src_2main_8cpp.html#ae1b8cef371d26fca2b4f5a101be7a8ba" target="_top" xlink:title=" ">
<polygon fill="white" stroke="black" points="75,-294.5 75,-313.5 158,-313.5 158,-294.5 75,-294.5"/>
<text text-anchor="middle" x="116.5" y="-301.5" font-family="Helvetica,sans-Serif" font-size="10.00">CalibrateSticks</text>
</a>
</g>
</g>
<!-- Node28&#45;&gt;Node29 -->
<g id="edge49" class="edge">
<title>Node28&#45;&gt;Node29</title>
<path fill="none" stroke="midnightblue" d="M219.43,-260.48C194.97,-270.92 161.7,-285.13 139.92,-294.43"/>
<polygon fill="midnightblue" stroke="midnightblue" points="220.83,-263.69 228.66,-256.54 218.08,-257.25 220.83,-263.69"/>
</g>
<!-- Node30 -->
<g id="node30" class="node">
<title>Node30</title>
<g id="a_node30"><a xlink:href="_transmitter_code_2src_2main_8cpp.html#a0e7ca9043d8fa769e8a9290df885e594" target="_top" xlink:title="Get centre as 90 degrees.">
<polygon fill="white" stroke="black" points="73.5,-256.5 73.5,-275.5 159.5,-275.5 159.5,-256.5 73.5,-256.5"/>
<text text-anchor="middle" x="116.5" y="-263.5" font-family="Helvetica,sans-Serif" font-size="10.00">ChannelCentres</text>
</a>
</g>
</g>
<!-- Node28&#45;&gt;Node30 -->
<g id="edge51" class="edge">
<title>Node28&#45;&gt;Node30</title>
<path fill="none" stroke="midnightblue" d="M199.9,-254.27C186.61,-256.16 172.43,-258.18 159.66,-260"/>
<polygon fill="midnightblue" stroke="midnightblue" points="200.45,-257.73 209.86,-252.86 199.46,-250.8 200.45,-257.73"/>
</g>
<!-- Node29&#45;&gt;Node5 -->
<g id="edge50" class="edge">
<title>Node29&#45;&gt;Node5</title>
<path fill="none" stroke="midnightblue" d="M64.73,-304C54.07,-304 43.55,-304 35.25,-304"/>
<polygon fill="midnightblue" stroke="midnightblue" points="64.93,-307.5 74.93,-304 64.93,-300.5 64.93,-307.5"/>
</g>
<!-- Node30&#45;&gt;Node5 -->
<g id="edge52" class="edge">
<title>Node30&#45;&gt;Node5</title>
<path fill="none" stroke="midnightblue" d="M81.57,-279.29C65.8,-285.47 47.77,-292.53 35.04,-297.52"/>
<polygon fill="midnightblue" stroke="midnightblue" points="82.99,-282.5 91.02,-275.59 80.44,-275.98 82.99,-282.5"/>
</g>
<!-- Node31&#45;&gt;Node4 -->
<g id="edge55" class="edge">
<title>Node31&#45;&gt;Node4</title>
<path fill="none" stroke="midnightblue" d="M711.96,-1013.42C648.36,-1056.91 458.55,-1171.78 342,-1083 289.37,-1042.91 259.99,-818.99 254.11,-769.63"/>
<polygon fill="midnightblue" stroke="midnightblue" points="714.19,-1016.13 720.4,-1007.56 710.19,-1010.39 714.19,-1016.13"/>
</g>
<!-- Node32 -->
<g id="node32" class="node">
<title>Node32</title>
<g id="a_node32"><a xlink:href="_transmitter_code_2src_2main_8cpp.html#a3d9d955a8c7cfea4cc99e78f3746bd26" target="_top" xlink:title=" ">
<polygon fill="white" stroke="black" points="515.5,-988.5 515.5,-1007.5 598.5,-1007.5 598.5,-988.5 515.5,-988.5"/>
<text text-anchor="middle" x="557" y="-995.5" font-family="Helvetica,sans-Serif" font-size="10.00">ReadOneModel</text>
</a>
</g>
</g>
<!-- Node31&#45;&gt;Node32 -->
<g id="edge56" class="edge">
<title>Node31&#45;&gt;Node32</title>
<path fill="none" stroke="midnightblue" d="M671.17,-998C647.04,-998 620.1,-998 598.56,-998"/>
<polygon fill="midnightblue" stroke="midnightblue" points="671.32,-1001.5 681.32,-998 671.32,-994.5 671.32,-1001.5"/>
</g>
<!-- Node32&#45;&gt;Node4 -->
<g id="edge57" class="edge">
<title>Node32&#45;&gt;Node4</title>
<path fill="none" stroke="midnightblue" d="M505.42,-1004.93C456.97,-1008.51 385.05,-1005.37 342,-964 283.17,-907.47 356.76,-847.87 306,-784 301.04,-777.75 294.09,-773.08 286.85,-769.59"/>
<polygon fill="midnightblue" stroke="midnightblue" points="505.72,-1008.41 515.39,-1004.07 505.12,-1001.44 505.72,-1008.41"/>
</g>
<!-- Node32&#45;&gt;Node19 -->
<g id="edge62" class="edge">
<title>Node32&#45;&gt;Node19</title>
<path fill="none" stroke="midnightblue" d="M507.7,-1010.63C497.69,-1013.86 487.35,-1017.67 478,-1022 460.77,-1029.98 458.93,-1036.41 442,-1045 435.16,-1048.47 427.54,-1051.7 420.38,-1054.49"/>
<polygon fill="midnightblue" stroke="midnightblue" points="509.02,-1013.89 517.54,-1007.59 506.95,-1007.2 509.02,-1013.89"/>
</g>
<!-- Node33 -->
<g id="node33" class="node">
<title>Node33</title>
<g id="a_node33"><a xlink:href="_transmitter_code_2src_2main_8cpp.html#a984cb52354a84c45e9e41f396a1c5e92" target="_top" xlink:title=" ">
<polygon fill="white" stroke="black" points="343.5,-1016.5 343.5,-1035.5 440.5,-1035.5 440.5,-1016.5 343.5,-1016.5"/>
<text text-anchor="middle" x="392" y="-1023.5" font-family="Helvetica,sans-Serif" font-size="10.00">CheckModelName</text>
</a>
</g>
</g>
<!-- Node32&#45;&gt;Node33 -->
<g id="edge58" class="edge">
<title>Node32&#45;&gt;Node33</title>
<path fill="none" stroke="midnightblue" d="M505.15,-1006.73C484.58,-1010.27 460.95,-1014.33 440.71,-1017.8"/>
<polygon fill="midnightblue" stroke="midnightblue" points="506.03,-1010.14 515.29,-1004.99 504.84,-1003.24 506.03,-1010.14"/>
</g>
<!-- Node34 -->
<g id="node34" class="node">
<title>Node34</title>
<g id="a_node34"><a xlink:href="_transmitter_code_2src_2main_8cpp.html#a909acb7ed667a5cc9c4ec6191fc33e75" target="_top" xlink:title=" ">
<polygon fill="white" stroke="black" points="342,-826.5 342,-845.5 442,-845.5 442,-826.5 342,-826.5"/>
<text text-anchor="middle" x="392" y="-833.5" font-family="Helvetica,sans-Serif" font-size="10.00">LoadAllParameters</text>
</a>
</g>
</g>
<!-- Node32&#45;&gt;Node34 -->
<g id="edge60" class="edge">
<title>Node32&#45;&gt;Node34</title>
<path fill="none" stroke="midnightblue" d="M538.97,-981.07C505.01,-947.32 429.83,-872.6 402.86,-845.8"/>
<polygon fill="midnightblue" stroke="midnightblue" points="536.73,-983.78 546.29,-988.35 541.67,-978.82 536.73,-983.78"/>
</g>
<!-- Node33&#45;&gt;Node5 -->
<g id="edge59" class="edge">
<title>Node33&#45;&gt;Node5</title>
<path fill="none" stroke="midnightblue" d="M359.9,-1011.18C353.59,-1007.39 347.28,-1002.96 342,-998 160.33,-827.34 155.29,-741.57 71,-507 45.03,-434.72 26.2,-343.68 20.39,-313.91"/>
<polygon fill="midnightblue" stroke="midnightblue" points="358.59,-1014.45 369.03,-1016.27 362,-1008.34 358.59,-1014.45"/>
</g>
<!-- Node34&#45;&gt;Node17 -->
<g id="edge61" class="edge">
<title>Node34&#45;&gt;Node17</title>
<path fill="none" stroke="midnightblue" d="M354.28,-821.69C349.8,-818.93 345.55,-815.71 342,-812 327.24,-796.58 271.64,-655.75 256.71,-617.53"/>
<polygon fill="midnightblue" stroke="midnightblue" points="352.63,-824.78 363.09,-826.46 355.96,-818.62 352.63,-824.78"/>
</g>
<!-- Node35&#45;&gt;Node3 -->
<g id="edge65" class="edge">
<title>Node35&#45;&gt;Node3</title>
<path fill="none" stroke="midnightblue" d="M711.51,-602.46C674.8,-576.53 602.08,-525.14 571.77,-503.73"/>
<polygon fill="midnightblue" stroke="midnightblue" points="709.83,-605.56 720.02,-608.48 713.87,-599.85 709.83,-605.56"/>
</g>
<!-- Node35&#45;&gt;Node4 -->
<g id="edge64" class="edge">
<title>Node35&#45;&gt;Node4</title>
<path fill="none" stroke="midnightblue" d="M661.87,-619.8C580.82,-624.24 446.49,-638.99 342,-687 308.04,-702.6 276.21,-734.36 261.51,-750.35"/>
<polygon fill="midnightblue" stroke="midnightblue" points="662.16,-623.29 671.97,-619.29 661.81,-616.3 662.16,-623.29"/>
</g>
<!-- Node36&#45;&gt;Node4 -->
<g id="edge67" class="edge">
<title>Node36&#45;&gt;Node4</title>
<path fill="none" stroke="midnightblue" d="M521.05,-858.64C476.05,-872.56 397.09,-888.83 342,-855 311.85,-836.48 331.56,-808.46 306,-784 299.58,-777.85 291.31,-773.1 283.22,-769.5"/>
<polygon fill="midnightblue" stroke="midnightblue" points="522.21,-861.94 530.66,-855.54 520.06,-855.28 522.21,-861.94"/>
</g>
<!-- Node36&#45;&gt;Node6 -->
<g id="edge69" class="edge">
<title>Node36&#45;&gt;Node6</title>
<path fill="none" stroke="midnightblue" d="M545.24,-827.77C513.76,-774.47 422.59,-620.1 398.76,-579.75"/>
<polygon fill="midnightblue" stroke="midnightblue" points="542.29,-829.67 550.39,-836.5 548.32,-826.11 542.29,-829.67"/>
</g>
<!-- Node36&#45;&gt;Node17 -->
<g id="edge72" class="edge">
<title>Node36&#45;&gt;Node17</title>
<path fill="none" stroke="midnightblue" d="M510.52,-833.77C451.69,-817.64 355.16,-790.02 342,-779 287.86,-733.66 262.51,-646.89 255.26,-617.79"/>
<polygon fill="midnightblue" stroke="midnightblue" points="509.75,-837.19 520.32,-836.44 511.6,-830.43 509.75,-837.19"/>
</g>
<!-- Node36&#45;&gt;Node19 -->
<g id="edge70" class="edge">
<title>Node36&#45;&gt;Node19</title>
<path fill="none" stroke="midnightblue" d="M545.05,-864.25C529.8,-889.78 501.38,-937.68 478,-979 461.55,-1008.08 467.11,-1022.95 442,-1045 437.61,-1048.85 432.36,-1051.97 426.94,-1054.47"/>
<polygon fill="midnightblue" stroke="midnightblue" points="548.09,-866 550.22,-855.62 542.08,-862.4 548.09,-866"/>
</g>
<!-- Node36&#45;&gt;Node26 -->
<g id="edge71" class="edge">
<title>Node36&#45;&gt;Node26</title>
<path fill="none" stroke="midnightblue" d="M529.93,-831.41C506.93,-818.64 472.44,-799.72 442,-784 432.57,-779.13 422.02,-773.93 413.12,-769.62"/>
<polygon fill="midnightblue" stroke="midnightblue" points="528.3,-834.51 538.74,-836.31 531.71,-828.39 528.3,-834.51"/>
</g>
<!-- Node36&#45;&gt;Node33 -->
<g id="edge68" class="edge">
<title>Node36&#45;&gt;Node33</title>
<path fill="none" stroke="midnightblue" d="M540.41,-863.21C506.75,-900.39 428.18,-987.15 401.81,-1016.27"/>
<polygon fill="midnightblue" stroke="midnightblue" points="543.12,-865.44 547.24,-855.68 537.93,-860.74 543.12,-865.44"/>
</g>
<!-- Node37&#45;&gt;Node4 -->
<g id="edge74" class="edge">
<title>Node37&#45;&gt;Node4</title>
<path fill="none" stroke="midnightblue" d="M488.81,-690.56C445.91,-690.26 389.63,-693.42 342,-708 312.05,-717.17 281.46,-738.1 265.1,-750.43"/>
<polygon fill="midnightblue" stroke="midnightblue" points="488.81,-694.06 498.85,-690.69 488.9,-687.06 488.81,-694.06"/>
</g>
<!-- Node38&#45;&gt;Node36 -->
<g id="edge76" class="edge">
<title>Node38&#45;&gt;Node36</title>
<path fill="none" stroke="midnightblue" d="M679.63,-819.66C654.7,-825.06 625.45,-831.4 601.88,-836.5"/>
<polygon fill="midnightblue" stroke="midnightblue" points="680.63,-823.03 689.67,-817.49 679.15,-816.19 680.63,-823.03"/>
</g>
<!-- Node39&#45;&gt;Node4 -->
<g id="edge78" class="edge">
<title>Node39&#45;&gt;Node4</title>
<path fill="none" stroke="midnightblue" d="M352.3,-470.68C348.44,-473.33 344.88,-476.42 342,-480 299.82,-532.4 326.5,-562.94 306,-627 290.85,-674.35 267.02,-728.89 257.32,-750.49"/>
<polygon fill="midnightblue" stroke="midnightblue" points="354.24,-473.6 361.12,-465.55 350.72,-467.55 354.24,-473.6"/>
</g>
<!-- Node39&#45;&gt;Node17 -->
<g id="edge79" class="edge">
<title>Node39&#45;&gt;Node17</title>
<path fill="none" stroke="midnightblue" d="M356.23,-470.23C351.19,-473.08 346.26,-476.33 342,-480 320.69,-498.33 322.04,-508.92 306,-532 289.48,-555.78 269.99,-583.69 259.87,-598.17"/>
<polygon fill="midnightblue" stroke="midnightblue" points="358.03,-473.25 365.33,-465.57 354.83,-467.02 358.03,-473.25"/>
</g>
</g>
</svg>
