<?xml version="1.0" encoding="UTF-8" standalone="no"?>
<!DOCTYPE svg PUBLIC "-//W3C//DTD SVG 1.1//EN"
 "http://www.w3.org/Graphics/SVG/1.1/DTD/svg11.dtd">
<!-- Generated by graphviz version 3.0.0 (20220413.0242)
 -->
<!-- Title: WriteToLogFile Pages: 1 -->
<svg width="1368pt" height="485pt"
 viewBox="0.00 0.00 1368.00 485.29" xmlns="http://www.w3.org/2000/svg" xmlns:xlink="http://www.w3.org/1999/xlink">
<g id="graph0" class="graph" transform="scale(1 1) rotate(0) translate(4 481.29)">
<title>WriteToLogFile</title>
<polygon fill="white" stroke="transparent" points="-4,4 -4,-481.29 1364,-481.29 1364,4 -4,4"/>
<!-- Node1 -->
<g id="node1" class="node">
<title>Node1</title>
<g id="a_node1"><a xlink:title=" ">
<polygon fill="#bfbfbf" stroke="black" points="1277,-236.67 1277,-255.67 1360,-255.67 1360,-236.67 1277,-236.67"/>
<text text-anchor="middle" x="1318.5" y="-243.67" font-family="Helvetica,sans-Serif" font-size="10.00">WriteToLogFile</text>
</a>
</g>
</g>
<!-- Node2 -->
<g id="node2" class="node">
<title>Node2</title>
<g id="a_node2"><a xlink:href="_transmitter_code_2src_2main_8cpp.html#a99a51dbad5d686ca711e982f82cbcada" target="_top" xlink:title=" ">
<polygon fill="white" stroke="black" points="1151,-255.67 1151,-274.67 1241,-274.67 1241,-255.67 1151,-255.67"/>
<text text-anchor="middle" x="1196" y="-262.67" font-family="Helvetica,sans-Serif" font-size="10.00">LogFilePreamble</text>
</a>
</g>
</g>
<!-- Node1&#45;&gt;Node2 -->
<g id="edge1" class="edge">
<title>Node1&#45;&gt;Node2</title>
<path fill="none" stroke="midnightblue" d="M1266.82,-254.16C1258.26,-255.51 1249.43,-256.9 1241.06,-258.22"/>
<polygon fill="midnightblue" stroke="midnightblue" points="1267.37,-257.61 1276.7,-252.6 1266.28,-250.7 1267.37,-257.61"/>
</g>
<!-- Node3 -->
<g id="node3" class="node">
<title>Node3</title>
<g id="a_node3"><a xlink:href="_transmitter_code_2src_2main_8cpp.html#add8d8f400f1c1c4a5add52736cdf94ca" target="_top" xlink:title=" ">
<polygon fill="white" stroke="black" points="1063,-236.67 1063,-255.67 1115,-255.67 1115,-236.67 1063,-236.67"/>
<text text-anchor="middle" x="1089" y="-243.67" font-family="Helvetica,sans-Serif" font-size="10.00">LogText</text>
</a>
</g>
</g>
<!-- Node1&#45;&gt;Node3 -->
<g id="edge48" class="edge">
<title>Node1&#45;&gt;Node3</title>
<path fill="none" stroke="midnightblue" d="M1266.83,-246.17C1219.75,-246.17 1151.6,-246.17 1115.18,-246.17"/>
<polygon fill="midnightblue" stroke="midnightblue" points="1266.83,-249.67 1276.83,-246.17 1266.83,-242.67 1266.83,-249.67"/>
</g>
<!-- Node2&#45;&gt;Node3 -->
<g id="edge2" class="edge">
<title>Node2&#45;&gt;Node3</title>
<path fill="none" stroke="midnightblue" d="M1140.67,-255.34C1131.7,-253.71 1122.8,-252.1 1115.02,-250.69"/>
<polygon fill="midnightblue" stroke="midnightblue" points="1140.31,-258.83 1150.77,-257.16 1141.56,-251.94 1140.31,-258.83"/>
</g>
<!-- Node4 -->
<g id="node4" class="node">
<title>Node4</title>
<g id="a_node4"><a xlink:href="_transmitter_code_2src_2main_8cpp.html#aaa3e86084c43b049d52d7d62c58a00b9" target="_top" xlink:title=" ">
<polygon fill="white" stroke="black" points="810.5,-217.67 810.5,-236.67 892.5,-236.67 892.5,-217.67 810.5,-217.67"/>
<text text-anchor="middle" x="851.5" y="-224.67" font-family="Helvetica,sans-Serif" font-size="10.00">LogConnection</text>
</a>
</g>
</g>
<!-- Node3&#45;&gt;Node4 -->
<g id="edge3" class="edge">
<title>Node3&#45;&gt;Node4</title>
<path fill="none" stroke="midnightblue" d="M1052.56,-243.31C1009.71,-239.85 937.74,-234.04 892.81,-230.42"/>
<polygon fill="midnightblue" stroke="midnightblue" points="1052.55,-246.82 1062.8,-244.13 1053.11,-239.84 1052.55,-246.82"/>
</g>
<!-- Node15 -->
<g id="node15" class="node">
<title>Node15</title>
<g id="a_node15"><a xlink:href="_transmitter_code_2src_2main_8cpp.html#a2d5ec5fd5ed62d5b7b071fabe2225405" target="_top" xlink:title=" ">
<polygon fill="white" stroke="black" points="662,-445.67 662,-464.67 758,-464.67 758,-445.67 662,-445.67"/>
<text text-anchor="middle" x="710" y="-452.67" font-family="Helvetica,sans-Serif" font-size="10.00">LogDisConnection</text>
</a>
</g>
</g>
<!-- Node3&#45;&gt;Node15 -->
<g id="edge21" class="edge">
<title>Node3&#45;&gt;Node15</title>
<path fill="none" stroke="midnightblue" d="M1088.1,-265.89C1087.12,-304.66 1078.87,-390.57 1027,-431.17 945.98,-494.58 814.71,-478.15 749.84,-464.7"/>
<polygon fill="midnightblue" stroke="midnightblue" points="1091.6,-265.91 1088.22,-255.87 1084.6,-265.83 1091.6,-265.91"/>
</g>
<!-- Node16 -->
<g id="node16" class="node">
<title>Node16</title>
<g id="a_node16"><a xlink:href="_transmitter_code_2src_2main_8cpp.html#aac4334531357e4221222c7fc8c5cf817" target="_top" xlink:title=" ">
<polygon fill="white" stroke="black" points="944,-369.67 944,-388.67 1027,-388.67 1027,-369.67 944,-369.67"/>
<text text-anchor="middle" x="985.5" y="-376.67" font-family="Helvetica,sans-Serif" font-size="10.00">LogLowBattery</text>
</a>
</g>
</g>
<!-- Node3&#45;&gt;Node16 -->
<g id="edge23" class="edge">
<title>Node3&#45;&gt;Node16</title>
<path fill="none" stroke="midnightblue" d="M1081.99,-265.4C1073.38,-290.17 1055.37,-333.25 1027,-360.17 1023.06,-363.91 1018.24,-367.02 1013.33,-369.58"/>
<polygon fill="midnightblue" stroke="midnightblue" points="1085.37,-266.3 1085.2,-255.71 1078.73,-264.1 1085.37,-266.3"/>
</g>
<!-- Node17 -->
<g id="node17" class="node">
<title>Node17</title>
<g id="a_node17"><a xlink:href="_transmitter_code_2src_2main_8cpp.html#af7b3b351c80f0b43c13a4ccb440b2f2e" target="_top" xlink:title=" ">
<polygon fill="white" stroke="black" points="952,-179.67 952,-198.67 1019,-198.67 1019,-179.67 952,-179.67"/>
<text text-anchor="middle" x="985.5" y="-186.67" font-family="Helvetica,sans-Serif" font-size="10.00">LogMinGap</text>
</a>
</g>
</g>
<!-- Node3&#45;&gt;Node17 -->
<g id="edge24" class="edge">
<title>Node3&#45;&gt;Node17</title>
<path fill="none" stroke="midnightblue" d="M1062.01,-231.57C1043.61,-221.24 1019.44,-207.67 1003.46,-198.69"/>
<polygon fill="midnightblue" stroke="midnightblue" points="1060.35,-234.65 1070.78,-236.5 1063.78,-228.55 1060.35,-234.65"/>
</g>
<!-- Node18 -->
<g id="node18" class="node">
<title>Node18</title>
<g id="a_node18"><a xlink:href="_transmitter_code_2src_2main_8cpp.html#a32be1544c90acbd0fb13568c35213510" target="_top" xlink:title=" ">
<polygon fill="white" stroke="black" points="947.5,-293.67 947.5,-312.67 1023.5,-312.67 1023.5,-293.67 947.5,-293.67"/>
<text text-anchor="middle" x="985.5" y="-300.67" font-family="Helvetica,sans-Serif" font-size="10.00">LogNewBank</text>
</a>
</g>
</g>
<!-- Node3&#45;&gt;Node18 -->
<g id="edge26" class="edge">
<title>Node3&#45;&gt;Node18</title>
<path fill="none" stroke="midnightblue" d="M1065.31,-261.19C1053.99,-268.46 1039.97,-277.11 1027,-284.17 1021,-287.43 1014.33,-290.7 1008.18,-293.58"/>
<polygon fill="midnightblue" stroke="midnightblue" points="1067.26,-264.1 1073.74,-255.72 1063.45,-258.23 1067.26,-264.1"/>
</g>
<!-- Node19 -->
<g id="node19" class="node">
<title>Node19</title>
<g id="a_node19"><a xlink:href="_transmitter_code_2src_2main_8cpp.html#a31e9d94f45a152e1cbc436284799ca37" target="_top" xlink:title=" ">
<polygon fill="white" stroke="black" points="282.5,-341.67 282.5,-360.67 356.5,-360.67 356.5,-341.67 282.5,-341.67"/>
<text text-anchor="middle" x="319.5" y="-348.67" font-family="Helvetica,sans-Serif" font-size="10.00">LogPowerOff</text>
</a>
</g>
</g>
<!-- Node3&#45;&gt;Node19 -->
<g id="edge27" class="edge">
<title>Node3&#45;&gt;Node19</title>
<path fill="none" stroke="midnightblue" d="M1086.33,-266.36C1082.38,-299.77 1069.36,-366.05 1027,-398.17 964.84,-445.31 930.51,-417.17 852.5,-417.17 852.5,-417.17 852.5,-417.17 576,-417.17 486.89,-417.17 385.7,-379.07 342.22,-360.76"/>
<polygon fill="midnightblue" stroke="midnightblue" points="1089.85,-266.33 1087.37,-256.03 1082.88,-265.62 1089.85,-266.33"/>
</g>
<!-- Node21 -->
<g id="node21" class="node">
<title>Node21</title>
<g id="a_node21"><a xlink:href="_transmitter_code_2src_2main_8cpp.html#a7d93a2500f52d72210903c46a85ce820" target="_top" xlink:title=" ">
<polygon fill="white" stroke="black" points="948.5,-255.67 948.5,-274.67 1022.5,-274.67 1022.5,-255.67 948.5,-255.67"/>
<text text-anchor="middle" x="985.5" y="-262.67" font-family="Helvetica,sans-Serif" font-size="10.00">LogPowerOn</text>
</a>
</g>
</g>
<!-- Node3&#45;&gt;Node21 -->
<g id="edge31" class="edge">
<title>Node3&#45;&gt;Node21</title>
<path fill="none" stroke="midnightblue" d="M1052.79,-252.76C1043.09,-254.57 1032.56,-256.55 1022.8,-258.37"/>
<polygon fill="midnightblue" stroke="midnightblue" points="1053.72,-256.14 1062.91,-250.86 1052.44,-249.26 1053.72,-256.14"/>
</g>
<!-- Node23 -->
<g id="node23" class="node">
<title>Node23</title>
<g id="a_node23"><a xlink:href="_transmitter_code_2src_2main_8cpp.html#a1fadc7cdd854f8b3628b622da5417d8b" target="_top" xlink:title=" ">
<polygon fill="white" stroke="black" points="950.5,-141.67 950.5,-160.67 1020.5,-160.67 1020.5,-141.67 950.5,-141.67"/>
<text text-anchor="middle" x="985.5" y="-148.67" font-family="Helvetica,sans-Serif" font-size="10.00">LogThisGap</text>
</a>
</g>
</g>
<!-- Node3&#45;&gt;Node23 -->
<g id="edge33" class="edge">
<title>Node3&#45;&gt;Node23</title>
<path fill="none" stroke="midnightblue" d="M1076.73,-227.74C1065.74,-210.97 1047.68,-186.43 1027,-170.17 1022.36,-166.52 1016.91,-163.36 1011.53,-160.73"/>
<polygon fill="midnightblue" stroke="midnightblue" points="1074.04,-230.03 1082.36,-236.59 1079.95,-226.27 1074.04,-230.03"/>
</g>
<!-- Node25 -->
<g id="node25" class="node">
<title>Node25</title>
<g id="a_node25"><a xlink:href="_transmitter_code_2src_2main_8cpp.html#afd409fe008843b50c3e2ff697558d4d5" target="_top" xlink:title=" ">
<polygon fill="white" stroke="black" points="398.5,-91.67 398.5,-110.67 490.5,-110.67 490.5,-91.67 398.5,-91.67"/>
<text text-anchor="middle" x="444.5" y="-98.67" font-family="Helvetica,sans-Serif" font-size="10.00">LogThisLongGap</text>
</a>
</g>
</g>
<!-- Node3&#45;&gt;Node25 -->
<g id="edge36" class="edge">
<title>Node3&#45;&gt;Node25</title>
<path fill="none" stroke="midnightblue" d="M1086.33,-225.97C1082.38,-192.56 1069.36,-126.29 1027,-94.17 964.84,-47.03 930.51,-75.17 852.5,-75.17 852.5,-75.17 852.5,-75.17 709,-75.17 632,-75.17 542.96,-86.3 490.59,-93.99"/>
<polygon fill="midnightblue" stroke="midnightblue" points="1082.88,-226.71 1087.37,-236.31 1089.85,-226.01 1082.88,-226.71"/>
</g>
<!-- Node26 -->
<g id="node26" class="node">
<title>Node26</title>
<g id="a_node26"><a xlink:href="_transmitter_code_2src_2main_8cpp.html#a83944fc0ecaab86d0bbb0802e99e5084" target="_top" xlink:title=" ">
<polygon fill="white" stroke="black" points="946.5,-331.67 946.5,-350.67 1024.5,-350.67 1024.5,-331.67 946.5,-331.67"/>
<text text-anchor="middle" x="985.5" y="-338.67" font-family="Helvetica,sans-Serif" font-size="10.00">LogThisModel</text>
</a>
</g>
</g>
<!-- Node3&#45;&gt;Node26 -->
<g id="edge38" class="edge">
<title>Node3&#45;&gt;Node26</title>
<path fill="none" stroke="midnightblue" d="M1076.73,-264.59C1065.74,-281.36 1047.68,-305.9 1027,-322.17 1022.36,-325.82 1016.91,-328.97 1011.53,-331.61"/>
<polygon fill="midnightblue" stroke="midnightblue" points="1079.95,-266.06 1082.36,-255.74 1074.04,-262.31 1079.95,-266.06"/>
</g>
<!-- Node28 -->
<g id="node28" class="node">
<title>Node28</title>
<g id="a_node28"><a xlink:href="_transmitter_code_2src_2main_8cpp.html#a900aa27c1353238593c276186d960912" target="_top" xlink:title=" ">
<polygon fill="white" stroke="black" points="953,-103.67 953,-122.67 1018,-122.67 1018,-103.67 953,-103.67"/>
<text text-anchor="middle" x="985.5" y="-110.67" font-family="Helvetica,sans-Serif" font-size="10.00">LogThisRX</text>
</a>
</g>
</g>
<!-- Node3&#45;&gt;Node28 -->
<g id="edge42" class="edge">
<title>Node3&#45;&gt;Node28</title>
<path fill="none" stroke="midnightblue" d="M1081.99,-226.94C1073.38,-202.16 1055.37,-159.08 1027,-132.17 1023.06,-128.43 1018.24,-125.31 1013.33,-122.76"/>
<polygon fill="midnightblue" stroke="midnightblue" points="1078.73,-228.23 1085.2,-236.62 1085.37,-226.03 1078.73,-228.23"/>
</g>
<!-- Node31 -->
<g id="node31" class="node">
<title>Node31</title>
<g id="a_node31"><a xlink:href="_transmitter_code_2src_2main_8cpp.html#afe8648b7a9a00742332cb5967fc1ad14" target="_top" xlink:title=" ">
<polygon fill="white" stroke="black" points="541,-27.67 541,-46.67 613,-46.67 613,-27.67 541,-27.67"/>
<text text-anchor="middle" x="577" y="-34.67" font-family="Helvetica,sans-Serif" font-size="10.00">LogUKRules</text>
</a>
</g>
</g>
<!-- Node3&#45;&gt;Node31 -->
<g id="edge46" class="edge">
<title>Node3&#45;&gt;Node31</title>
<path fill="none" stroke="midnightblue" d="M1088.18,-226.35C1087.34,-187.4 1079.32,-101.18 1027,-61.17 900.81,35.33 691.52,-6.42 610.98,-27.61"/>
<polygon fill="midnightblue" stroke="midnightblue" points="1084.68,-226.44 1088.26,-236.41 1091.68,-226.39 1084.68,-226.44"/>
</g>
<!-- Node5 -->
<g id="node5" class="node">
<title>Node5</title>
<g id="a_node5"><a xlink:href="_transmitter_code_2src_2main_8cpp.html#a62e53eb9359c32b666e3386d62c57037" target="_top" xlink:title=" ">
<polygon fill="white" stroke="black" points="674,-225.67 674,-244.67 746,-244.67 746,-225.67 674,-225.67"/>
<text text-anchor="middle" x="710" y="-232.67" font-family="Helvetica,sans-Serif" font-size="10.00">GreenLedOn</text>
</a>
</g>
</g>
<!-- Node4&#45;&gt;Node5 -->
<g id="edge4" class="edge">
<title>Node4&#45;&gt;Node5</title>
<path fill="none" stroke="midnightblue" d="M800.13,-230.06C782.2,-231.08 762.42,-232.22 746.05,-233.16"/>
<polygon fill="midnightblue" stroke="midnightblue" points="800.37,-233.55 810.15,-229.48 799.97,-226.56 800.37,-233.55"/>
</g>
<!-- Node6 -->
<g id="node6" class="node">
<title>Node6</title>
<g id="a_node6"><a xlink:href="_transmitter_code_2src_2main_8cpp.html#a5d3a46c21927cf7a3031a1e68e0b7b48" target="_top" xlink:title="SHOW COMMS.">
<polygon fill="white" stroke="black" points="539.5,-244.67 539.5,-263.67 614.5,-263.67 614.5,-244.67 539.5,-244.67"/>
<text text-anchor="middle" x="577" y="-251.67" font-family="Helvetica,sans-Serif" font-size="10.00">ShowComms</text>
</a>
</g>
</g>
<!-- Node5&#45;&gt;Node6 -->
<g id="edge5" class="edge">
<title>Node5&#45;&gt;Node6</title>
<path fill="none" stroke="midnightblue" d="M663.71,-235.28C644.27,-237.52 622.19,-241 605.31,-244.6"/>
<polygon fill="midnightblue" stroke="midnightblue" points="664.32,-238.74 673.89,-234.2 663.58,-231.77 664.32,-238.74"/>
</g>
<!-- Node14 -->
<g id="node14" class="node">
<title>Node14</title>
<g id="a_node14"><a xlink:href="_radio_functions_8cpp.html#a1c11bb6771548de7d96723045b922620" target="_top" xlink:title=" ">
<polygon fill="white" stroke="black" points="529,-181.67 529,-200.67 625,-200.67 625,-181.67 529,-181.67"/>
<text text-anchor="middle" x="577" y="-188.67" font-family="Helvetica,sans-Serif" font-size="10.00">SuccessfulPacket</text>
</a>
</g>
</g>
<!-- Node5&#45;&gt;Node14 -->
<g id="edge19" class="edge">
<title>Node5&#45;&gt;Node14</title>
<path fill="none" stroke="midnightblue" d="M670.86,-222.36C650.25,-215.44 625.24,-207.03 606.37,-200.7"/>
<polygon fill="midnightblue" stroke="midnightblue" points="669.98,-225.75 680.57,-225.62 672.21,-219.12 669.98,-225.75"/>
</g>
<!-- Node6&#45;&gt;Node5 -->
<g id="edge6" class="edge">
<title>Node6&#45;&gt;Node5</title>
<path fill="none" stroke="midnightblue" d="M624.62,-253.9C643.8,-251.65 665.34,-248.23 681.86,-244.7"/>
<polygon fill="midnightblue" stroke="midnightblue" points="624.11,-250.43 614.55,-254.99 624.87,-257.39 624.11,-250.43"/>
</g>
<!-- Node7 -->
<g id="node7" class="node">
<title>Node7</title>
<g id="a_node7"><a xlink:href="_transmitter_code_2src_2main_8cpp.html#ad3cb30894c94eb016e98bdcaa899ac86" target="_top" xlink:title=" ">
<polygon fill="white" stroke="black" points="29.5,-273.67 29.5,-292.67 64.5,-292.67 64.5,-273.67 29.5,-273.67"/>
<text text-anchor="middle" x="47" y="-280.67" font-family="Helvetica,sans-Serif" font-size="10.00">loop</text>
</a>
</g>
</g>
<!-- Node6&#45;&gt;Node7 -->
<g id="edge7" class="edge">
<title>Node6&#45;&gt;Node7</title>
<path fill="none" stroke="midnightblue" d="M529.28,-256.73C417.01,-262.9 136.05,-278.33 64.69,-282.25"/>
<polygon fill="midnightblue" stroke="midnightblue" points="529.5,-260.23 539.29,-256.18 529.11,-253.24 529.5,-260.23"/>
</g>
<!-- Node8 -->
<g id="node8" class="node">
<title>Node8</title>
<g id="a_node8"><a xlink:href="_transmitter_code_2src_2main_8cpp.html#a7d34cec6e8edc20c8b50424e15dcc7c7" target="_top" xlink:title=" ">
<polygon fill="white" stroke="black" points="413,-445.67 413,-464.67 476,-464.67 476,-445.67 413,-445.67"/>
<text text-anchor="middle" x="444.5" y="-452.67" font-family="Helvetica,sans-Serif" font-size="10.00">RedLedOn</text>
</a>
</g>
</g>
<!-- Node6&#45;&gt;Node8 -->
<g id="edge8" class="edge">
<title>Node6&#45;&gt;Node8</title>
<path fill="none" stroke="midnightblue" d="M564.14,-272.43C537.2,-313.93 472.14,-414.14 451.73,-445.57"/>
<polygon fill="midnightblue" stroke="midnightblue" points="567.2,-274.16 569.71,-263.86 561.32,-270.34 567.2,-274.16"/>
</g>
<!-- Node9 -->
<g id="node9" class="node">
<title>Node9</title>
<g id="a_node9"><a xlink:href="_transmitter_code_2src_2main_8cpp.html#a804fdbdd5eab4c596bbe8a23eecbe4d5" target="_top" xlink:title=" ">
<polygon fill="white" stroke="black" points="136,-379.67 136,-398.67 237,-398.67 237,-379.67 136,-379.67"/>
<text text-anchor="middle" x="186.5" y="-386.67" font-family="Helvetica,sans-Serif" font-size="10.00">ButtonWasPressed</text>
</a>
</g>
</g>
<!-- Node8&#45;&gt;Node9 -->
<g id="edge9" class="edge">
<title>Node8&#45;&gt;Node9</title>
<path fill="none" stroke="midnightblue" d="M402.91,-444.7C353.78,-432.04 271.75,-410.89 224.36,-398.67"/>
<polygon fill="midnightblue" stroke="midnightblue" points="402.32,-448.16 412.87,-447.27 404.07,-441.39 402.32,-448.16"/>
</g>
<!-- Node10 -->
<g id="node10" class="node">
<title>Node10</title>
<g id="a_node10"><a xlink:href="_transmitter_code_2src_2main_8cpp.html#ab7c9edf843c732d7fe296564f39bc0dc" target="_top" xlink:title="RECEIVE A MODEL FILE.">
<polygon fill="white" stroke="black" points="0,-379.67 0,-398.67 94,-398.67 94,-379.67 0,-379.67"/>
<text text-anchor="middle" x="47" y="-386.67" font-family="Helvetica,sans-Serif" font-size="10.00">ReceiveModelFile</text>
</a>
</g>
</g>
<!-- Node8&#45;&gt;Node10 -->
<g id="edge16" class="edge">
<title>Node8&#45;&gt;Node10</title>
<path fill="none" stroke="midnightblue" d="M402.52,-451.25C369.17,-447.86 320.94,-442.52 279,-436.17 212.38,-426.07 195.95,-422 130,-408.17 116.13,-405.26 100.99,-401.83 87.55,-398.68"/>
<polygon fill="midnightblue" stroke="midnightblue" points="402.49,-454.76 412.79,-452.28 403.19,-447.8 402.49,-454.76"/>
</g>
<!-- Node11 -->
<g id="node11" class="node">
<title>Node11</title>
<g id="a_node11"><a xlink:href="_radio_functions_8cpp.html#a5fbd3c8613a4163425c94965704ce5f8" target="_top" xlink:title=" ">
<polygon fill="white" stroke="black" points="282.5,-148.67 282.5,-167.67 356.5,-167.67 356.5,-148.67 282.5,-148.67"/>
<text text-anchor="middle" x="319.5" y="-155.67" font-family="Helvetica,sans-Serif" font-size="10.00">FailedPacket</text>
</a>
</g>
</g>
<!-- Node8&#45;&gt;Node11 -->
<g id="edge13" class="edge">
<title>Node8&#45;&gt;Node11</title>
<path fill="none" stroke="midnightblue" d="M435.71,-436.35C412.11,-379.38 342.01,-210.12 324.5,-167.83"/>
<polygon fill="midnightblue" stroke="midnightblue" points="432.49,-437.72 439.55,-445.62 438.95,-435.04 432.49,-437.72"/>
</g>
<!-- Node13 -->
<g id="node13" class="node">
<title>Node13</title>
<g id="a_node13"><a xlink:href="_transmitter_code_2src_2main_8cpp.html#a58c67a975068930341f0663e0a08c9d3" target="_top" xlink:title="SEND A MODEL FILE.">
<polygon fill="white" stroke="black" points="279,-379.67 279,-398.67 360,-398.67 360,-379.67 279,-379.67"/>
<text text-anchor="middle" x="319.5" y="-386.67" font-family="Helvetica,sans-Serif" font-size="10.00">SendModelFile</text>
</a>
</g>
</g>
<!-- Node8&#45;&gt;Node13 -->
<g id="edge17" class="edge">
<title>Node8&#45;&gt;Node13</title>
<path fill="none" stroke="midnightblue" d="M414.64,-440.82C408.47,-437.68 402,-434.35 396,-431.17 375.59,-420.34 352.42,-407.34 337.19,-398.7"/>
<polygon fill="midnightblue" stroke="midnightblue" points="413.49,-444.16 424,-445.53 416.64,-437.91 413.49,-444.16"/>
</g>
<!-- Node9&#45;&gt;Node7 -->
<g id="edge10" class="edge">
<title>Node9&#45;&gt;Node7</title>
<path fill="none" stroke="midnightblue" d="M151.41,-375.4C144.09,-371.85 136.58,-367.72 130,-363.17 99.42,-342 69.76,-309.07 56,-292.86"/>
<polygon fill="midnightblue" stroke="midnightblue" points="149.95,-378.58 160.5,-379.58 152.87,-372.22 149.95,-378.58"/>
</g>
<!-- Node9&#45;&gt;Node10 -->
<g id="edge11" class="edge">
<title>Node9&#45;&gt;Node10</title>
<path fill="none" stroke="midnightblue" d="M125.54,-382.47C115.09,-382.35 104.37,-382.44 94.36,-382.75"/>
<polygon fill="midnightblue" stroke="midnightblue" points="125.8,-385.97 135.86,-382.65 125.92,-378.97 125.8,-385.97"/>
</g>
<!-- Node10&#45;&gt;Node9 -->
<g id="edge12" class="edge">
<title>Node10&#45;&gt;Node9</title>
<path fill="none" stroke="midnightblue" d="M104.57,-395.82C114.95,-395.99 125.71,-395.94 135.86,-395.68"/>
<polygon fill="midnightblue" stroke="midnightblue" points="104.44,-392.32 94.36,-395.59 104.28,-399.32 104.44,-392.32"/>
</g>
<!-- Node12 -->
<g id="node12" class="node">
<title>Node12</title>
<g id="a_node12"><a xlink:href="_radio_functions_8cpp.html#a049bfb836e7aa4a3a48a1a4bd225fafc" target="_top" xlink:title=" ">
<polygon fill="white" stroke="black" points="157,-186.67 157,-205.67 216,-205.67 216,-186.67 157,-186.67"/>
<text text-anchor="middle" x="186.5" y="-193.67" font-family="Helvetica,sans-Serif" font-size="10.00">SendData</text>
</a>
</g>
</g>
<!-- Node11&#45;&gt;Node12 -->
<g id="edge14" class="edge">
<title>Node11&#45;&gt;Node12</title>
<path fill="none" stroke="midnightblue" d="M275.83,-170.55C256.26,-176.22 233.57,-182.8 216.1,-187.87"/>
<polygon fill="midnightblue" stroke="midnightblue" points="276.81,-173.9 285.44,-167.76 274.86,-167.18 276.81,-173.9"/>
</g>
<!-- Node12&#45;&gt;Node7 -->
<g id="edge15" class="edge">
<title>Node12&#45;&gt;Node7</title>
<path fill="none" stroke="midnightblue" d="M161.78,-211.18C133.54,-229.05 87.2,-258.36 63.31,-273.48"/>
<polygon fill="midnightblue" stroke="midnightblue" points="163.68,-214.11 170.26,-205.81 159.94,-208.2 163.68,-214.11"/>
</g>
<!-- Node13&#45;&gt;Node9 -->
<g id="edge18" class="edge">
<title>Node13&#45;&gt;Node9</title>
<path fill="none" stroke="midnightblue" d="M268.75,-389.17C258.43,-389.17 247.55,-389.17 237.23,-389.17"/>
<polygon fill="midnightblue" stroke="midnightblue" points="268.84,-392.67 278.84,-389.17 268.84,-385.67 268.84,-392.67"/>
</g>
<!-- Node14&#45;&gt;Node12 -->
<g id="edge20" class="edge">
<title>Node14&#45;&gt;Node12</title>
<path fill="none" stroke="midnightblue" d="M518.57,-191.91C434.23,-192.99 279.97,-194.98 216.23,-195.8"/>
<polygon fill="midnightblue" stroke="midnightblue" points="518.8,-195.4 528.75,-191.78 518.71,-188.4 518.8,-195.4"/>
</g>
<!-- Node15&#45;&gt;Node8 -->
<g id="edge22" class="edge">
<title>Node15&#45;&gt;Node8</title>
<path fill="none" stroke="midnightblue" d="M651.79,-455.17C597.85,-455.17 519.08,-455.17 476.16,-455.17"/>
<polygon fill="midnightblue" stroke="midnightblue" points="651.89,-458.67 661.89,-455.17 651.89,-451.67 651.89,-458.67"/>
</g>
<!-- Node17&#45;&gt;Node4 -->
<g id="edge25" class="edge">
<title>Node17&#45;&gt;Node4</title>
<path fill="none" stroke="midnightblue" d="M942.05,-201.39C923.79,-206.64 902.76,-212.7 885.67,-217.62"/>
<polygon fill="midnightblue" stroke="midnightblue" points="943.23,-204.69 951.87,-198.56 941.29,-197.96 943.23,-204.69"/>
</g>
<!-- Node19&#45;&gt;Node9 -->
<g id="edge28" class="edge">
<title>Node19&#45;&gt;Node9</title>
<path fill="none" stroke="midnightblue" d="M275.79,-363.56C257.85,-368.76 237.3,-374.72 220.55,-379.58"/>
<polygon fill="midnightblue" stroke="midnightblue" points="276.81,-366.9 285.44,-360.76 274.86,-360.18 276.81,-366.9"/>
</g>
<!-- Node20 -->
<g id="node20" class="node">
<title>Node20</title>
<g id="a_node20"><a xlink:href="_transmitter_code_2src_2main_8cpp.html#a6ae37c6938b8c10b83d1bc74e8643bd9" target="_top" xlink:title=" ">
<polygon fill="white" stroke="black" points="130,-334.67 130,-353.67 243,-353.67 243,-334.67 130,-334.67"/>
<text text-anchor="middle" x="186.5" y="-341.67" font-family="Helvetica,sans-Serif" font-size="10.00">CheckPowerOffButton</text>
</a>
</g>
</g>
<!-- Node19&#45;&gt;Node20 -->
<g id="edge29" class="edge">
<title>Node19&#45;&gt;Node20</title>
<path fill="none" stroke="midnightblue" d="M272.08,-348.69C262.73,-348.19 252.81,-347.66 243.17,-347.14"/>
<polygon fill="midnightblue" stroke="midnightblue" points="272.18,-352.2 282.36,-349.24 272.56,-345.21 272.18,-352.2"/>
</g>
<!-- Node20&#45;&gt;Node7 -->
<g id="edge30" class="edge">
<title>Node20&#45;&gt;Node7</title>
<path fill="none" stroke="midnightblue" d="M154.71,-330.51C126.85,-318.15 86.86,-300.41 64.59,-290.53"/>
<polygon fill="midnightblue" stroke="midnightblue" points="153.46,-333.78 164.02,-334.64 156.29,-327.38 153.46,-333.78"/>
</g>
<!-- Node22 -->
<g id="node22" class="node">
<title>Node22</title>
<g id="a_node22"><a xlink:href="_transmitter_code_2src_2main_8cpp.html#a17699f358cf9f7c3155a9c5daf8ff13c" target="_top" xlink:title=" ">
<polygon fill="white" stroke="black" points="831,-269.67 831,-288.67 872,-288.67 872,-269.67 831,-269.67"/>
<text text-anchor="middle" x="851.5" y="-276.67" font-family="Helvetica,sans-Serif" font-size="10.00">setup</text>
</a>
</g>
</g>
<!-- Node21&#45;&gt;Node22 -->
<g id="edge32" class="edge">
<title>Node21&#45;&gt;Node22</title>
<path fill="none" stroke="midnightblue" d="M938.31,-270.07C915.66,-272.47 889.58,-275.23 872.17,-277.08"/>
<polygon fill="midnightblue" stroke="midnightblue" points="938.86,-273.53 948.43,-268.99 938.12,-266.57 938.86,-273.53"/>
</g>
<!-- Node24 -->
<g id="node24" class="node">
<title>Node24</title>
<g id="a_node24"><a xlink:href="_transmitter_code_2src_2main_8cpp.html#a953f1d5046e183549ed95b08f6d675e3" target="_top" xlink:title=" ">
<polygon fill="white" stroke="black" points="661,-173.67 661,-192.67 759,-192.67 759,-173.67 661,-173.67"/>
<text text-anchor="middle" x="710" y="-180.67" font-family="Helvetica,sans-Serif" font-size="10.00">CheckGapsLength</text>
</a>
</g>
</g>
<!-- Node23&#45;&gt;Node24 -->
<g id="edge34" class="edge">
<title>Node23&#45;&gt;Node24</title>
<path fill="none" stroke="midnightblue" d="M940.32,-156.34C890.75,-162.14 810.59,-171.52 759.36,-177.51"/>
<polygon fill="midnightblue" stroke="midnightblue" points="940.89,-159.79 950.41,-155.16 940.08,-152.84 940.89,-159.79"/>
</g>
<!-- Node24&#45;&gt;Node14 -->
<g id="edge35" class="edge">
<title>Node24&#45;&gt;Node14</title>
<path fill="none" stroke="midnightblue" d="M650.95,-186.71C642.33,-187.24 633.52,-187.78 625.16,-188.29"/>
<polygon fill="midnightblue" stroke="midnightblue" points="651.2,-190.2 660.96,-186.1 650.77,-183.22 651.2,-190.2"/>
</g>
<!-- Node25&#45;&gt;Node11 -->
<g id="edge37" class="edge">
<title>Node25&#45;&gt;Node11</title>
<path fill="none" stroke="midnightblue" d="M413.81,-114.92C391.34,-125.34 361.05,-139.38 341.15,-148.6"/>
<polygon fill="midnightblue" stroke="midnightblue" points="415.31,-118.09 422.91,-110.71 412.37,-111.74 415.31,-118.09"/>
</g>
<!-- Node26&#45;&gt;Node22 -->
<g id="edge41" class="edge">
<title>Node26&#45;&gt;Node22</title>
<path fill="none" stroke="midnightblue" d="M954.61,-327.15C951.04,-325.47 947.44,-323.78 944,-322.17 919.21,-310.53 890.66,-297.11 872.13,-288.4"/>
<polygon fill="midnightblue" stroke="midnightblue" points="953.36,-330.43 963.9,-331.5 956.33,-324.09 953.36,-330.43"/>
</g>
<!-- Node27 -->
<g id="node27" class="node">
<title>Node27</title>
<g id="a_node27"><a xlink:href="_transmitter_code_2src_2main_8cpp.html#a984cb52354a84c45e9e41f396a1c5e92" target="_top" xlink:title=" ">
<polygon fill="white" stroke="black" points="396,-301.67 396,-320.67 493,-320.67 493,-301.67 396,-301.67"/>
<text text-anchor="middle" x="444.5" y="-308.67" font-family="Helvetica,sans-Serif" font-size="10.00">CheckModelName</text>
</a>
</g>
</g>
<!-- Node26&#45;&gt;Node27 -->
<g id="edge39" class="edge">
<title>Node26&#45;&gt;Node27</title>
<path fill="none" stroke="midnightblue" d="M936.08,-338.47C833.43,-332.76 595,-319.49 493.08,-313.82"/>
<polygon fill="midnightblue" stroke="midnightblue" points="935.99,-341.97 946.17,-339.03 936.38,-334.98 935.99,-341.97"/>
</g>
<!-- Node27&#45;&gt;Node7 -->
<g id="edge40" class="edge">
<title>Node27&#45;&gt;Node7</title>
<path fill="none" stroke="midnightblue" d="M385.54,-307.06C293.62,-300.56 119.22,-288.21 64.71,-284.35"/>
<polygon fill="midnightblue" stroke="midnightblue" points="385.57,-310.57 395.79,-307.79 386.07,-303.59 385.57,-310.57"/>
</g>
<!-- Node29 -->
<g id="node29" class="node">
<title>Node29</title>
<g id="a_node29"><a xlink:href="_transmitter_code_2src_2main_8cpp.html#a4f813935d8fe58355228cbbf25e12f96" target="_top" xlink:title=" ">
<polygon fill="white" stroke="black" points="795,-122.67 795,-141.67 908,-141.67 908,-122.67 795,-122.67"/>
<text text-anchor="middle" x="851.5" y="-129.67" font-family="Helvetica,sans-Serif" font-size="10.00">GetRXVersionNumber</text>
</a>
</g>
</g>
<!-- Node28&#45;&gt;Node29 -->
<g id="edge43" class="edge">
<title>Node28&#45;&gt;Node29</title>
<path fill="none" stroke="midnightblue" d="M942.71,-119.18C931.73,-120.76 919.7,-122.49 908.11,-124.16"/>
<polygon fill="midnightblue" stroke="midnightblue" points="943.48,-122.61 952.88,-117.72 942.49,-115.68 943.48,-122.61"/>
</g>
<!-- Node30 -->
<g id="node30" class="node">
<title>Node30</title>
<g id="a_node30"><a xlink:href="_transmitter_code_2src_2main_8cpp.html#a694f4f5a0147f4dc29b0bc1a8951547d" target="_top" xlink:title=" ">
<polygon fill="white" stroke="black" points="663,-131.67 663,-150.67 757,-150.67 757,-131.67 663,-131.67"/>
<text text-anchor="middle" x="710" y="-138.67" font-family="Helvetica,sans-Serif" font-size="10.00">ParseAckPayload</text>
</a>
</g>
</g>
<!-- Node29&#45;&gt;Node30 -->
<g id="edge44" class="edge">
<title>Node29&#45;&gt;Node30</title>
<path fill="none" stroke="midnightblue" d="M784.93,-136.4C775.62,-137 766.21,-137.61 757.37,-138.18"/>
<polygon fill="midnightblue" stroke="midnightblue" points="785.21,-139.89 794.97,-135.75 784.76,-132.9 785.21,-139.89"/>
</g>
<!-- Node30&#45;&gt;Node14 -->
<g id="edge45" class="edge">
<title>Node30&#45;&gt;Node14</title>
<path fill="none" stroke="midnightblue" d="M674.59,-154.3C652.23,-162.84 623.58,-173.77 603.3,-181.51"/>
<polygon fill="midnightblue" stroke="midnightblue" points="675.96,-157.53 684.05,-150.69 673.46,-150.99 675.96,-157.53"/>
</g>
<!-- Node31&#45;&gt;Node7 -->
<g id="edge47" class="edge">
<title>Node31&#45;&gt;Node7</title>
<path fill="none" stroke="midnightblue" d="M530.59,-41.81C444.86,-52.5 256.43,-85.43 130,-177.17 92.71,-204.22 64.05,-252.84 52.98,-273.48"/>
<polygon fill="midnightblue" stroke="midnightblue" points="531.26,-45.25 540.77,-40.58 530.43,-38.3 531.26,-45.25"/>
</g>
</g>
</svg>
