<?xml version="1.0" encoding="UTF-8" standalone="no"?>
<!DOCTYPE svg PUBLIC "-//W3C//DTD SVG 1.1//EN"
 "http://www.w3.org/Graphics/SVG/1.1/DTD/svg11.dtd">
<!-- Generated by graphviz version 3.0.0 (20220413.0106)
 -->
<!-- Title: DoNumberedCommands Pages: 1 -->
<svg width="788pt" height="337pt"
 viewBox="0.00 0.00 788.00 337.00" xmlns="http://www.w3.org/2000/svg" xmlns:xlink="http://www.w3.org/1999/xlink">
<g id="graph0" class="graph" transform="scale(1 1) rotate(0) translate(4 333)">
<title>DoNumberedCommands</title>
<polygon fill="white" stroke="transparent" points="-4,4 -4,-333 784,-333 784,4 -4,4"/>
<!-- Node1 -->
<g id="node1" class="node">
<title>Node1</title>
<g id="a_node1"><a xlink:title=" ">
<polygon fill="#bfbfbf" stroke="black" points="0,-195.5 0,-214.5 123,-214.5 123,-195.5 0,-195.5"/>
<text text-anchor="middle" x="61.5" y="-202.5" font-family="Helvetica,sans-Serif" font-size="10.00">DoNumberedCommands</text>
</a>
</g>
</g>
<!-- Node2 -->
<g id="node2" class="node">
<title>Node2</title>
<g id="a_node2"><a xlink:href="_transmitter_code_2src_2main_8cpp.html#affc6c0de18db71aa5ad8b4d241339731" target="_top" xlink:title=" ">
<polygon fill="white" stroke="black" points="199.5,-290.5 199.5,-309.5 276.5,-309.5 276.5,-290.5 199.5,-290.5"/>
<text text-anchor="middle" x="238" y="-297.5" font-family="Helvetica,sans-Serif" font-size="10.00">BuildDirectory</text>
</a>
</g>
</g>
<!-- Node1&#45;&gt;Node2 -->
<g id="edge1" class="edge">
<title>Node1&#45;&gt;Node2</title>
<path fill="none" stroke="midnightblue" d="M71.68,-214.52C87.81,-230.69 122.95,-263.45 159,-281 168.5,-285.62 179.21,-289.17 189.58,-291.88"/>
<polygon fill="midnightblue" stroke="midnightblue" points="188.83,-295.3 199.37,-294.23 190.46,-288.49 188.83,-295.3"/>
</g>
<!-- Node5 -->
<g id="node5" class="node">
<title>Node5</title>
<g id="a_node5"><a xlink:href="_transmitter_code_2src_2main_8cpp.html#af0852678d8e89501acee8951f09d3b43" target="_top" xlink:title=" ">
<polygon fill="white" stroke="black" points="209,-252.5 209,-271.5 267,-271.5 267,-252.5 209,-252.5"/>
<text text-anchor="middle" x="238" y="-259.5" font-family="Helvetica,sans-Serif" font-size="10.00">ClearText</text>
</a>
</g>
</g>
<!-- Node1&#45;&gt;Node5 -->
<g id="edge4" class="edge">
<title>Node1&#45;&gt;Node5</title>
<path fill="none" stroke="midnightblue" d="M84.42,-214.62C103.78,-222.88 132.91,-234.73 159,-243 171.89,-247.09 186.22,-250.81 199.04,-253.85"/>
<polygon fill="midnightblue" stroke="midnightblue" points="198.42,-257.3 208.95,-256.14 199.99,-250.48 198.42,-257.3"/>
</g>
<!-- Node6 -->
<g id="node6" class="node">
<title>Node6</title>
<g id="a_node6"><a xlink:href="_transmitter_code_2src_2main_8cpp.html#a6922974b734cfe3a511e074a2d6ac33c" target="_top" xlink:title=" ">
<polygon fill="white" stroke="black" points="193.5,-214.5 193.5,-233.5 282.5,-233.5 282.5,-214.5 193.5,-214.5"/>
<text text-anchor="middle" x="238" y="-221.5" font-family="Helvetica,sans-Serif" font-size="10.00">CloseModelsFile</text>
</a>
</g>
</g>
<!-- Node1&#45;&gt;Node6 -->
<g id="edge5" class="edge">
<title>Node1&#45;&gt;Node6</title>
<path fill="none" stroke="midnightblue" d="M123.04,-211.59C142.65,-213.73 164.25,-216.08 183.33,-218.16"/>
<polygon fill="midnightblue" stroke="midnightblue" points="183.02,-221.64 193.34,-219.25 183.78,-214.68 183.02,-221.64"/>
</g>
<!-- Node7 -->
<g id="node7" class="node">
<title>Node7</title>
<g id="a_node7"><a xlink:href="_transmitter_code_2src_2main_8cpp.html#aecac2f0c289f02ef3c92b85be82eacac" target="_top" xlink:title=" ">
<polygon fill="white" stroke="black" points="578,-133.5 578,-152.5 661,-152.5 661,-133.5 578,-133.5"/>
<text text-anchor="middle" x="619.5" y="-140.5" font-family="Helvetica,sans-Serif" font-size="10.00">SendCommand</text>
</a>
</g>
</g>
<!-- Node1&#45;&gt;Node7 -->
<g id="edge6" class="edge">
<title>Node1&#45;&gt;Node7</title>
<path fill="none" stroke="midnightblue" d="M123.06,-198.25C233.4,-185.94 465.24,-160.09 567.82,-148.65"/>
<polygon fill="midnightblue" stroke="midnightblue" points="568.37,-152.11 577.92,-147.52 567.6,-145.15 568.37,-152.11"/>
</g>
<!-- Node9 -->
<g id="node9" class="node">
<title>Node9</title>
<g id="a_node9"><a xlink:href="_transmitter_code_2src_2main_8cpp.html#aa337d6e5cf496fbca7cdc61818f8239a" target="_top" xlink:title="updates display in textbox">
<polygon fill="white" stroke="black" points="192,-138.5 192,-157.5 284,-157.5 284,-138.5 192,-138.5"/>
<text text-anchor="middle" x="238" y="-145.5" font-family="Helvetica,sans-Serif" font-size="10.00">ShowFileNumber</text>
</a>
</g>
</g>
<!-- Node1&#45;&gt;Node9 -->
<g id="edge8" class="edge">
<title>Node1&#45;&gt;Node9</title>
<path fill="none" stroke="midnightblue" d="M89.88,-195.39C109.15,-188.68 135.59,-179.6 159,-172 170.79,-168.17 183.63,-164.16 195.43,-160.53"/>
<polygon fill="midnightblue" stroke="midnightblue" points="196.51,-163.86 205.05,-157.59 194.47,-157.16 196.51,-163.86"/>
</g>
<!-- Node11 -->
<g id="node11" class="node">
<title>Node11</title>
<g id="a_node11"><a xlink:href="_transmitter_code_2src_2main_8cpp.html#a9e1de754e1d2d483fb15957f70cf0488" target="_top" xlink:title=" ">
<polygon fill="white" stroke="black" points="159,-62.5 159,-81.5 317,-81.5 317,-62.5 159,-62.5"/>
<text text-anchor="middle" x="238" y="-69.5" font-family="Helvetica,sans-Serif" font-size="10.00">UpdateModelsNameEveryWhere</text>
</a>
</g>
</g>
<!-- Node1&#45;&gt;Node11 -->
<g id="edge12" class="edge">
<title>Node1&#45;&gt;Node11</title>
<path fill="none" stroke="midnightblue" d="M74.58,-195.26C92.74,-180.66 128.25,-152.33 159,-129 177.76,-114.76 199.41,-98.99 215.14,-87.66"/>
<polygon fill="midnightblue" stroke="midnightblue" points="217.57,-90.22 223.64,-81.54 213.48,-84.54 217.57,-90.22"/>
</g>
<!-- Node3 -->
<g id="node3" class="node">
<title>Node3</title>
<g id="a_node3"><a xlink:href="_transmitter_code_2src_2main_8cpp.html#a5f109790a6fe0b972a502f3cac4ed1e7" target="_top" xlink:title=" ">
<polygon fill="white" stroke="black" points="373.5,-309.5 373.5,-328.5 421.5,-328.5 421.5,-309.5 373.5,-309.5"/>
<text text-anchor="middle" x="397.5" y="-316.5" font-family="Helvetica,sans-Serif" font-size="10.00">InStrng</text>
</a>
</g>
</g>
<!-- Node2&#45;&gt;Node3 -->
<g id="edge2" class="edge">
<title>Node2&#45;&gt;Node3</title>
<path fill="none" stroke="midnightblue" d="M276.73,-304.55C303,-307.72 337.74,-311.91 363.03,-314.96"/>
<polygon fill="midnightblue" stroke="midnightblue" points="362.89,-318.47 373.24,-316.19 363.73,-311.52 362.89,-318.47"/>
</g>
<!-- Node4 -->
<g id="node4" class="node">
<title>Node4</title>
<g id="a_node4"><a xlink:href="_transmitter_code_2src_2main_8cpp.html#a113f8bee0942b732f19881466ef0f42d" target="_top" xlink:title=" ">
<polygon fill="white" stroke="black" points="361,-271.5 361,-290.5 434,-290.5 434,-271.5 361,-271.5"/>
<text text-anchor="middle" x="397.5" y="-278.5" font-family="Helvetica,sans-Serif" font-size="10.00">SortDirectory</text>
</a>
</g>
</g>
<!-- Node2&#45;&gt;Node4 -->
<g id="edge3" class="edge">
<title>Node2&#45;&gt;Node4</title>
<path fill="none" stroke="midnightblue" d="M276.73,-295.45C299,-292.76 327.35,-289.34 350.88,-286.5"/>
<polygon fill="midnightblue" stroke="midnightblue" points="351.46,-289.96 360.97,-285.29 350.63,-283.01 351.46,-289.96"/>
</g>
<!-- Node8 -->
<g id="node8" class="node">
<title>Node8</title>
<g id="a_node8"><a xlink:href="_transmitter_code_2src_2main_8cpp.html#a43937dd3d9c795271fd9c3eb3c6b6410" target="_top" xlink:title=" ">
<polygon fill="white" stroke="black" points="697,-95.5 697,-114.5 780,-114.5 780,-95.5 697,-95.5"/>
<text text-anchor="middle" x="738.5" y="-102.5" font-family="Helvetica,sans-Serif" font-size="10.00">GetReturnCode</text>
</a>
</g>
</g>
<!-- Node7&#45;&gt;Node8 -->
<g id="edge7" class="edge">
<title>Node7&#45;&gt;Node8</title>
<path fill="none" stroke="midnightblue" d="M650.02,-133.41C664.71,-128.64 682.66,-122.81 698.47,-117.68"/>
<polygon fill="midnightblue" stroke="midnightblue" points="699.56,-121 707.99,-114.59 697.39,-114.35 699.56,-121"/>
</g>
<!-- Node10 -->
<g id="node10" class="node">
<title>Node10</title>
<g id="a_node10"><a xlink:href="_transmitter_code_2src_2main_8cpp.html#afe513398f72d5e48f691830a1ef6eb42" target="_top" xlink:title=" ">
<polygon fill="white" stroke="black" points="481,-104.5 481,-123.5 539,-123.5 539,-104.5 481,-104.5"/>
<text text-anchor="middle" x="510" y="-111.5" font-family="Helvetica,sans-Serif" font-size="10.00">SendText</text>
</a>
</g>
</g>
<!-- Node9&#45;&gt;Node10 -->
<g id="edge9" class="edge">
<title>Node9&#45;&gt;Node10</title>
<path fill="none" stroke="midnightblue" d="M284.2,-143.06C325.37,-138.46 387.83,-131.24 442,-124 451.42,-122.74 461.56,-121.28 471.04,-119.87"/>
<polygon fill="midnightblue" stroke="midnightblue" points="471.62,-123.32 480.99,-118.37 470.58,-116.4 471.62,-123.32"/>
</g>
<!-- Node10&#45;&gt;Node7 -->
<g id="edge11" class="edge">
<title>Node10&#45;&gt;Node7</title>
<path fill="none" stroke="midnightblue" d="M539.24,-121.62C549.64,-124.42 561.69,-127.67 573.2,-130.78"/>
<polygon fill="midnightblue" stroke="midnightblue" points="572.57,-134.23 583.13,-133.46 574.39,-127.48 572.57,-134.23"/>
</g>
<!-- Node10&#45;&gt;Node8 -->
<g id="edge10" class="edge">
<title>Node10&#45;&gt;Node8</title>
<path fill="none" stroke="midnightblue" d="M539.23,-112.88C575.97,-111.42 640.86,-108.84 686.37,-107.03"/>
<polygon fill="midnightblue" stroke="midnightblue" points="686.78,-110.52 696.63,-106.62 686.5,-103.52 686.78,-110.52"/>
</g>
<!-- Node11&#45;&gt;Node10 -->
<g id="edge13" class="edge">
<title>Node11&#45;&gt;Node10</title>
<path fill="none" stroke="midnightblue" d="M300.27,-81.53C352.7,-89.69 426.53,-101.17 470.88,-108.07"/>
<polygon fill="midnightblue" stroke="midnightblue" points="470.54,-111.56 480.96,-109.64 471.61,-104.64 470.54,-111.56"/>
</g>
<!-- Node12 -->
<g id="node12" class="node">
<title>Node12</title>
<g id="a_node12"><a xlink:href="_transmitter_code_2src_2main_8cpp.html#a1e20efc1e419b252b50d36f9924503fc" target="_top" xlink:title=" ">
<polygon fill="white" stroke="black" points="478,-57.5 478,-76.5 542,-76.5 542,-57.5 478,-57.5"/>
<text text-anchor="middle" x="510" y="-64.5" font-family="Helvetica,sans-Serif" font-size="10.00">SendValue</text>
</a>
</g>
</g>
<!-- Node11&#45;&gt;Node12 -->
<g id="edge14" class="edge">
<title>Node11&#45;&gt;Node12</title>
<path fill="none" stroke="midnightblue" d="M317.1,-70.55C366.28,-69.64 427.79,-68.5 467.72,-67.76"/>
<polygon fill="midnightblue" stroke="midnightblue" points="467.95,-71.26 477.88,-67.58 467.82,-64.26 467.95,-71.26"/>
</g>
<!-- Node13 -->
<g id="node13" class="node">
<title>Node13</title>
<g id="a_node13"><a xlink:href="_transmitter_code_2src_2main_8cpp.html#a6bac145d5df31efb9c90e2a60a4cbca5" target="_top" xlink:title=" ">
<polygon fill="white" stroke="black" points="605,-0.5 605,-19.5 634,-19.5 634,-0.5 605,-0.5"/>
<text text-anchor="middle" x="619.5" y="-7.5" font-family="Helvetica,sans-Serif" font-size="10.00">Str</text>
</a>
</g>
</g>
<!-- Node11&#45;&gt;Node13 -->
<g id="edge18" class="edge">
<title>Node11&#45;&gt;Node13</title>
<path fill="none" stroke="midnightblue" d="M252.95,-62.43C273.68,-48.83 314.32,-24.52 353,-15 440.03,6.41 548,-1.81 594.91,-7.01"/>
<polygon fill="midnightblue" stroke="midnightblue" points="594.63,-10.5 604.97,-8.19 595.44,-3.55 594.63,-10.5"/>
</g>
<!-- Node14 -->
<g id="node14" class="node">
<title>Node14</title>
<g id="a_node14"><a xlink:href="_transmitter_code_2src_2main_8cpp.html#ac78966debc2cdc13d8ca958ce3b20c78" target="_top" xlink:title=" ">
<polygon fill="white" stroke="black" points="353,-24.5 353,-43.5 442,-43.5 442,-24.5 353,-24.5"/>
<text text-anchor="middle" x="397.5" y="-31.5" font-family="Helvetica,sans-Serif" font-size="10.00">UpdateTrimView</text>
</a>
</g>
</g>
<!-- Node11&#45;&gt;Node14 -->
<g id="edge19" class="edge">
<title>Node11&#45;&gt;Node14</title>
<path fill="none" stroke="midnightblue" d="M278.74,-62.41C299.53,-57.4 325.16,-51.21 347.2,-45.89"/>
<polygon fill="midnightblue" stroke="midnightblue" points="348.14,-49.27 357.04,-43.52 346.5,-42.46 348.14,-49.27"/>
</g>
<!-- Node12&#45;&gt;Node7 -->
<g id="edge16" class="edge">
<title>Node12&#45;&gt;Node7</title>
<path fill="none" stroke="midnightblue" d="M524.61,-76.63C542.79,-89.47 575.19,-112.38 596.76,-127.63"/>
<polygon fill="midnightblue" stroke="midnightblue" points="594.81,-130.54 605,-133.45 598.85,-124.82 594.81,-130.54"/>
</g>
<!-- Node12&#45;&gt;Node8 -->
<g id="edge15" class="edge">
<title>Node12&#45;&gt;Node8</title>
<path fill="none" stroke="midnightblue" d="M542.02,-72.2C579.34,-78.46 642.5,-89.06 686.91,-96.51"/>
<polygon fill="midnightblue" stroke="midnightblue" points="686.48,-99.99 696.92,-98.19 687.64,-93.09 686.48,-99.99"/>
</g>
<!-- Node12&#45;&gt;Node13 -->
<g id="edge17" class="edge">
<title>Node12&#45;&gt;Node13</title>
<path fill="none" stroke="midnightblue" d="M529.24,-57.33C547.67,-47.56 576.18,-32.44 596,-21.93"/>
<polygon fill="midnightblue" stroke="midnightblue" points="597.76,-24.96 604.95,-17.18 594.48,-18.78 597.76,-24.96"/>
</g>
<!-- Node14&#45;&gt;Node12 -->
<g id="edge20" class="edge">
<title>Node14&#45;&gt;Node12</title>
<path fill="none" stroke="midnightblue" d="M430.46,-43.54C442.23,-47.06 455.72,-51.09 468.17,-54.81"/>
<polygon fill="midnightblue" stroke="midnightblue" points="467.29,-58.2 477.87,-57.7 469.29,-51.49 467.29,-58.2"/>
</g>
</g>
</svg>
