<?xml version="1.0" encoding="UTF-8" standalone="no"?>
<!DOCTYPE svg PUBLIC "-//W3C//DTD SVG 1.1//EN"
 "http://www.w3.org/Graphics/SVG/1.1/DTD/svg11.dtd">
<!-- Generated by graphviz version 2.44.0 ()
 -->
<!-- Title: loop Pages: 1 -->
<svg width="738pt" height="1690pt"
 viewBox="0.00 0.00 738.00 1690.00" xmlns="http://www.w3.org/2000/svg" xmlns:xlink="http://www.w3.org/1999/xlink">
<g id="graph0" class="graph" transform="scale(1 1) rotate(0) translate(4 1686)">
<title>loop</title>
<polygon fill="white" stroke="transparent" points="-4,4 -4,-1686 734,-1686 734,4 -4,4"/>
<!-- Node1 -->
<g id="node1" class="node">
<title>Node1</title>
<g id="a_node1"><a xlink:title=" ">
<polygon fill="#bfbfbf" stroke="black" points="0,-228.5 0,-247.5 35,-247.5 35,-228.5 0,-228.5"/>
<text text-anchor="middle" x="17.5" y="-235.5" font-family="Helvetica,sans-Serif" font-size="10.00">loop</text>
</a>
</g>
</g>
<!-- Node2 -->
<g id="node2" class="node">
<title>Node2</title>
<g id="a_node2"><a xlink:href="_transmitter_code_2src_2main_8cpp.html#aed6c682ed45951f95e0b02cf6b570da2" target="_top" xlink:title=" ">
<polygon fill="white" stroke="red" points="71,-902.5 71,-921.5 179,-921.5 179,-902.5 71,-902.5"/>
<text text-anchor="middle" x="125" y="-909.5" font-family="Helvetica,sans-Serif" font-size="10.00">Button_was_pressed</text>
</a>
</g>
</g>
<!-- Node1&#45;&gt;Node2 -->
<g id="edge1" class="edge">
<title>Node1&#45;&gt;Node2</title>
<path fill="none" stroke="midnightblue" d="M19.99,-247.53C31.41,-320.47 104.96,-790.37 120.94,-892.45"/>
<polygon fill="midnightblue" stroke="midnightblue" points="117.48,-893 122.49,-902.34 124.4,-891.92 117.48,-893"/>
</g>
<!-- Node74 -->
<g id="node37" class="node">
<title>Node74</title>
<g id="a_node37"><a xlink:href="_transmitter_code_2src_2main_8cpp.html#ada95a00a341e4a80176eda743a94ab2e" target="_top" xlink:title=" ">
<polygon fill="white" stroke="black" points="396,-1662.5 396,-1681.5 466,-1681.5 466,-1662.5 396,-1662.5"/>
<text text-anchor="middle" x="431" y="-1669.5" font-family="Helvetica,sans-Serif" font-size="10.00">KickTheDog</text>
</a>
</g>
</g>
<!-- Node1&#45;&gt;Node74 -->
<g id="edge63" class="edge">
<title>Node1&#45;&gt;Node74</title>
<path fill="none" stroke="midnightblue" d="M18.58,-247.58C19.42,-338.46 27.3,-1050.21 71,-1258 108.08,-1434.34 75.4,-1523.06 215,-1637 263.18,-1676.32 338.17,-1679.57 385.65,-1676.86"/>
<polygon fill="midnightblue" stroke="midnightblue" points="385.9,-1680.35 395.64,-1676.18 385.42,-1673.37 385.9,-1680.35"/>
</g>
<!-- Node79 -->
<g id="node40" class="node">
<title>Node79</title>
<g id="a_node40"><a xlink:href="_radio_functions_8cpp.html#a70dc6f8d2e5ccef6b8e4a2b9b0afb2ce" target="_top" xlink:title=" ">
<polygon fill="white" stroke="black" points="397,-1624.5 397,-1643.5 465,-1643.5 465,-1624.5 397,-1624.5"/>
<text text-anchor="middle" x="431" y="-1631.5" font-family="Helvetica,sans-Serif" font-size="10.00">SetThePipe</text>
</a>
</g>
</g>
<!-- Node1&#45;&gt;Node79 -->
<g id="edge68" class="edge">
<title>Node1&#45;&gt;Node79</title>
<path fill="none" stroke="midnightblue" d="M18.74,-247.83C20.38,-309.9 31.01,-653.95 71,-931 114.64,-1233.31 -8.19,-1394.47 215,-1603 260.95,-1645.94 338.27,-1646.09 386.59,-1640.98"/>
<polygon fill="midnightblue" stroke="midnightblue" points="387.21,-1644.43 396.74,-1639.78 386.39,-1637.48 387.21,-1644.43"/>
</g>
<!-- Node97 -->
<g id="node41" class="node">
<title>Node97</title>
<g id="a_node41"><a xlink:href="_transmitter_code_2src_2main_8cpp.html#ae1b8cef371d26fca2b4f5a101be7a8ba" target="_top" xlink:title=" ">
<polygon fill="white" stroke="red" points="83.5,-304.5 83.5,-323.5 166.5,-323.5 166.5,-304.5 83.5,-304.5"/>
<text text-anchor="middle" x="125" y="-311.5" font-family="Helvetica,sans-Serif" font-size="10.00">CalibrateSticks</text>
</a>
</g>
</g>
<!-- Node1&#45;&gt;Node97 -->
<g id="edge55" class="edge">
<title>Node1&#45;&gt;Node97</title>
<path fill="none" stroke="midnightblue" d="M25.2,-247.82C34.25,-260.38 51.49,-282.07 71,-295 73.94,-296.95 77.11,-298.73 80.37,-300.34"/>
<polygon fill="midnightblue" stroke="midnightblue" points="79.19,-303.64 89.75,-304.47 82.01,-297.24 79.19,-303.64"/>
</g>
<!-- Node102 -->
<g id="node42" class="node">
<title>Node102</title>
<g id="a_node42"><a xlink:href="_transmitter_code_2src_2main_8cpp.html#ad959eec03b0151ade81dc088593d816c" target="_top" xlink:title=" ">
<polygon fill="white" stroke="red" points="235.5,-218.5 235.5,-237.5 319.5,-237.5 319.5,-218.5 235.5,-218.5"/>
<text text-anchor="middle" x="277.5" y="-225.5" font-family="Helvetica,sans-Serif" font-size="10.00">ShowServoPos</text>
</a>
</g>
</g>
<!-- Node1&#45;&gt;Node102 -->
<g id="edge69" class="edge">
<title>Node1&#45;&gt;Node102</title>
<path fill="none" stroke="midnightblue" d="M20.41,-247.5C25.03,-267.58 38.86,-314.04 71,-333 112.34,-357.39 139.04,-359.59 179,-333 213.5,-310.04 184.32,-274.85 215,-247 218.35,-243.96 222.18,-241.41 226.25,-239.26"/>
<polygon fill="midnightblue" stroke="midnightblue" points="227.72,-242.44 235.45,-235.19 224.89,-236.03 227.72,-242.44"/>
</g>
<!-- Node104 -->
<g id="node43" class="node">
<title>Node104</title>
<g id="a_node43"><a xlink:href="_transmitter_code_2src_2main_8cpp.html#a0e7ca9043d8fa769e8a9290df885e594" target="_top" xlink:title="Get centre as 90 degrees.">
<polygon fill="white" stroke="red" points="82,-266.5 82,-285.5 168,-285.5 168,-266.5 82,-266.5"/>
<text text-anchor="middle" x="125" y="-273.5" font-family="Helvetica,sans-Serif" font-size="10.00">ChannelCentres</text>
</a>
</g>
</g>
<!-- Node1&#45;&gt;Node104 -->
<g id="edge57" class="edge">
<title>Node1&#45;&gt;Node104</title>
<path fill="none" stroke="midnightblue" d="M35.05,-244C45.38,-247.75 58.96,-252.66 71,-257 76.35,-258.93 82,-260.96 87.54,-262.94"/>
<polygon fill="midnightblue" stroke="midnightblue" points="86.71,-266.37 97.3,-266.45 89.07,-259.78 86.71,-266.37"/>
</g>
<!-- Node105 -->
<g id="node44" class="node">
<title>Node105</title>
<g id="a_node44"><a xlink:href="_transmitter_code_2src_2main_8cpp.html#acd96c3022716bba17005df2e6b3d0ed6" target="_top" xlink:title=" ">
<polygon fill="white" stroke="black" points="82,-228.5 82,-247.5 168,-247.5 168,-228.5 82,-228.5"/>
<text text-anchor="middle" x="125" y="-235.5" font-family="Helvetica,sans-Serif" font-size="10.00">GetButtonPress</text>
</a>
</g>
</g>
<!-- Node1&#45;&gt;Node105 -->
<g id="edge59" class="edge">
<title>Node1&#45;&gt;Node105</title>
<path fill="none" stroke="midnightblue" d="M35.45,-238C45.29,-238 58.27,-238 71.25,-238"/>
<polygon fill="midnightblue" stroke="midnightblue" points="71.6,-241.5 81.59,-238 71.59,-234.5 71.6,-241.5"/>
</g>
<!-- Node106 -->
<g id="node45" class="node">
<title>Node106</title>
<g id="a_node45"><a xlink:href="_transmitter_code_2src_2main_8cpp.html#a1d43600764a34cbda9c2fa211a12ed2e" target="_top" xlink:title=" ">
<polygon fill="white" stroke="black" points="88,-190.5 88,-209.5 162,-209.5 162,-190.5 88,-190.5"/>
<text text-anchor="middle" x="125" y="-197.5" font-family="Helvetica,sans-Serif" font-size="10.00">GetStatistics</text>
</a>
</g>
</g>
<!-- Node1&#45;&gt;Node106 -->
<g id="edge60" class="edge">
<title>Node1&#45;&gt;Node106</title>
<path fill="none" stroke="midnightblue" d="M35.05,-232C45.38,-228.25 58.96,-223.34 71,-219 76.35,-217.07 82,-215.04 87.54,-213.06"/>
<polygon fill="midnightblue" stroke="midnightblue" points="89.07,-216.22 97.3,-209.55 86.71,-209.63 89.07,-216.22"/>
</g>
<!-- Node107 -->
<g id="node46" class="node">
<title>Node107</title>
<g id="a_node46"><a xlink:href="_transmitter_code_2src_2main_8cpp.html#a62e53eb9359c32b666e3386d62c57037" target="_top" xlink:title=" ">
<polygon fill="white" stroke="red" points="89,-152.5 89,-171.5 161,-171.5 161,-152.5 89,-152.5"/>
<text text-anchor="middle" x="125" y="-159.5" font-family="Helvetica,sans-Serif" font-size="10.00">GreenLedOn</text>
</a>
</g>
</g>
<!-- Node1&#45;&gt;Node107 -->
<g id="edge61" class="edge">
<title>Node1&#45;&gt;Node107</title>
<path fill="none" stroke="midnightblue" d="M25.2,-228.18C34.25,-215.62 51.49,-193.93 71,-181 73.94,-179.05 77.11,-177.27 80.37,-175.66"/>
<polygon fill="midnightblue" stroke="midnightblue" points="82.01,-178.76 89.75,-171.53 79.19,-172.36 82.01,-178.76"/>
</g>
<!-- Node108 -->
<g id="node47" class="node">
<title>Node108</title>
<g id="a_node47"><a xlink:href="_transmitter_code_2src_2main_8cpp.html#a2e38b32674344cfc06b09a71dfcaf3f1" target="_top" xlink:title=" ">
<polygon fill="white" stroke="red" points="215,-133.5 215,-152.5 340,-152.5 340,-133.5 215,-133.5"/>
<text text-anchor="middle" x="277.5" y="-140.5" font-family="Helvetica,sans-Serif" font-size="10.00">MakeBindButtonInvisible</text>
</a>
</g>
</g>
<!-- Node1&#45;&gt;Node108 -->
<g id="edge64" class="edge">
<title>Node1&#45;&gt;Node108</title>
<path fill="none" stroke="midnightblue" d="M20.41,-228.5C25.03,-208.42 38.86,-161.96 71,-143 120.89,-113.57 190.15,-121.47 234.15,-131.19"/>
<polygon fill="midnightblue" stroke="midnightblue" points="233.42,-134.61 243.95,-133.47 235.01,-127.79 233.42,-134.61"/>
</g>
<!-- Node109 -->
<g id="node48" class="node">
<title>Node109</title>
<g id="a_node48"><a xlink:href="_transmitter_code_2src_2main_8cpp.html#a483cced19b61975f76957f5696425fe9" target="_top" xlink:title=" ">
<polygon fill="white" stroke="red" points="94.5,-76.5 94.5,-95.5 155.5,-95.5 155.5,-76.5 94.5,-76.5"/>
<text text-anchor="middle" x="125" y="-83.5" font-family="Helvetica,sans-Serif" font-size="10.00">ReadTime</text>
</a>
</g>
</g>
<!-- Node1&#45;&gt;Node109 -->
<g id="edge65" class="edge">
<title>Node1&#45;&gt;Node109</title>
<path fill="none" stroke="midnightblue" d="M19.97,-228.33C23.97,-205.02 37.15,-145.09 71,-110 75.09,-105.76 80.06,-102.21 85.31,-99.25"/>
<polygon fill="midnightblue" stroke="midnightblue" points="86.87,-102.38 94.28,-94.81 83.77,-96.11 86.87,-102.38"/>
</g>
<!-- Node111 -->
<g id="node49" class="node">
<title>Node111</title>
<g id="a_node49"><a xlink:href="_radio_functions_8cpp.html#a3856ba0adae43d089f08c7b7f653b306" target="_top" xlink:title="This scans and displays result.">
<polygon fill="white" stroke="red" points="79.5,-38.5 79.5,-57.5 170.5,-57.5 170.5,-38.5 79.5,-38.5"/>
<text text-anchor="middle" x="125" y="-45.5" font-family="Helvetica,sans-Serif" font-size="10.00">ScanAllChannels</text>
</a>
</g>
</g>
<!-- Node1&#45;&gt;Node111 -->
<g id="edge66" class="edge">
<title>Node1&#45;&gt;Node111</title>
<path fill="none" stroke="midnightblue" d="M18.6,-228.4C19.43,-199.83 25.75,-114.4 71,-67 72.39,-65.54 73.9,-64.2 75.51,-62.95"/>
<polygon fill="midnightblue" stroke="midnightblue" points="77.52,-65.82 84.15,-57.55 73.82,-59.88 77.52,-65.82"/>
</g>
<!-- Node114 -->
<g id="node50" class="node">
<title>Node114</title>
<g id="a_node50"><a xlink:href="_radio_functions_8cpp.html#a3d7322e78f097d02d476f17a6306997c" target="_top" xlink:title=" ">
<polygon fill="white" stroke="red" points="95.5,-0.5 95.5,-19.5 154.5,-19.5 154.5,-0.5 95.5,-0.5"/>
<text text-anchor="middle" x="125" y="-7.5" font-family="Helvetica,sans-Serif" font-size="10.00">SendData</text>
</a>
</g>
</g>
<!-- Node1&#45;&gt;Node114 -->
<g id="edge67" class="edge">
<title>Node1&#45;&gt;Node114</title>
<path fill="none" stroke="midnightblue" d="M17.95,-228.22C16.67,-195.51 16.98,-88.6 71,-29 75.08,-24.5 80.3,-21.06 85.87,-18.44"/>
<polygon fill="midnightblue" stroke="midnightblue" points="87.36,-21.62 95.43,-14.75 84.84,-15.09 87.36,-21.62"/>
</g>
<!-- Node3 -->
<g id="node3" class="node">
<title>Node3</title>
<g id="a_node3"><a xlink:href="_transmitter_code_2src_2main_8cpp.html#aa1f9aec467eb00917ad9ffdc0bd5b20d" target="_top" xlink:title=" ">
<polygon fill="white" stroke="red" points="245,-1168.5 245,-1187.5 310,-1187.5 310,-1168.5 245,-1168.5"/>
<text text-anchor="middle" x="277.5" y="-1175.5" font-family="Helvetica,sans-Serif" font-size="10.00">BlueLedOn</text>
</a>
</g>
</g>
<!-- Node2&#45;&gt;Node3 -->
<g id="edge2" class="edge">
<title>Node2&#45;&gt;Node3</title>
<path fill="none" stroke="midnightblue" d="M126.78,-921.81C130.18,-957.83 146.68,-1084.32 215,-1154 220.64,-1159.75 227.82,-1164.16 235.27,-1167.52"/>
<polygon fill="midnightblue" stroke="midnightblue" points="234.17,-1170.85 244.76,-1171.24 236.73,-1164.33 234.17,-1170.85"/>
</g>
<!-- Node5 -->
<g id="node4" class="node">
<title>Node5</title>
<g id="a_node4"><a xlink:href="_transmitter_code_2src_2main_8cpp.html#affc6c0de18db71aa5ad8b4d241339731" target="_top" xlink:title=" ">
<polygon fill="white" stroke="red" points="392.5,-1130.5 392.5,-1149.5 469.5,-1149.5 469.5,-1130.5 392.5,-1130.5"/>
<text text-anchor="middle" x="431" y="-1137.5" font-family="Helvetica,sans-Serif" font-size="10.00">BuildDirectory</text>
</a>
</g>
</g>
<!-- Node2&#45;&gt;Node5 -->
<g id="edge3" class="edge">
<title>Node2&#45;&gt;Node5</title>
<path fill="none" stroke="midnightblue" d="M126.75,-921.57C129.95,-955.51 145.76,-1070.71 215,-1121 263.44,-1156.18 335.17,-1154.85 382.24,-1148.88"/>
<polygon fill="midnightblue" stroke="midnightblue" points="382.76,-1152.34 392.19,-1147.5 381.8,-1145.41 382.76,-1152.34"/>
</g>
<!-- Node6 -->
<g id="node5" class="node">
<title>Node6</title>
<g id="a_node5"><a xlink:href="_transmitter_code_2src_2main_8cpp.html#a535cbca5c4743cf3ffe444846d21113e" target="_top" xlink:title=" ">
<polygon fill="white" stroke="black" points="539.5,-1358.5 539.5,-1377.5 587.5,-1377.5 587.5,-1358.5 539.5,-1358.5"/>
<text text-anchor="middle" x="563.5" y="-1365.5" font-family="Helvetica,sans-Serif" font-size="10.00">InStrng</text>
</a>
</g>
</g>
<!-- Node2&#45;&gt;Node6 -->
<g id="edge34" class="edge">
<title>Node2&#45;&gt;Node6</title>
<path fill="none" stroke="midnightblue" d="M126.54,-921.69C131.01,-1000.3 163.06,-1531.55 215,-1577 331.13,-1678.62 503.15,-1453.01 550.22,-1386.02"/>
<polygon fill="midnightblue" stroke="midnightblue" points="553.18,-1387.89 556.01,-1377.68 547.43,-1383.9 553.18,-1387.89"/>
</g>
<!-- Node8 -->
<g id="node6" class="node">
<title>Node8</title>
<g id="a_node6"><a xlink:href="_transmitter_code_2src_2main_8cpp.html#a5bf7a964da96991a9ca3a1eb3d2d9d09" target="_top" xlink:title=" ">
<polygon fill="white" stroke="red" points="246.5,-712.5 246.5,-731.5 308.5,-731.5 308.5,-712.5 246.5,-712.5"/>
<text text-anchor="middle" x="277.5" y="-719.5" font-family="Helvetica,sans-Serif" font-size="10.00">ButtonRed</text>
</a>
</g>
</g>
<!-- Node2&#45;&gt;Node8 -->
<g id="edge5" class="edge">
<title>Node2&#45;&gt;Node8</title>
<path fill="none" stroke="midnightblue" d="M128.26,-902.2C135.48,-873.07 160.77,-786.24 215,-741 221.21,-735.82 228.83,-732.04 236.57,-729.3"/>
<polygon fill="midnightblue" stroke="midnightblue" points="237.77,-732.59 246.33,-726.35 235.74,-725.89 237.77,-732.59"/>
</g>
<!-- Node10 -->
<g id="node7" class="node">
<title>Node10</title>
<g id="a_node7"><a xlink:href="_transmitter_code_2src_2main_8cpp.html#a1864beba7616666b0f27dac30975673e" target="_top" xlink:title=" ">
<polygon fill="white" stroke="red" points="242.5,-674.5 242.5,-693.5 312.5,-693.5 312.5,-674.5 242.5,-674.5"/>
<text text-anchor="middle" x="277.5" y="-681.5" font-family="Helvetica,sans-Serif" font-size="10.00">ButtonWhite</text>
</a>
</g>
</g>
<!-- Node2&#45;&gt;Node10 -->
<g id="edge6" class="edge">
<title>Node2&#45;&gt;Node10</title>
<path fill="none" stroke="midnightblue" d="M127.21,-902.47C131.87,-869.62 151.75,-760.06 215,-703 220.07,-698.42 226.23,-694.95 232.67,-692.31"/>
<polygon fill="midnightblue" stroke="midnightblue" points="233.89,-695.59 242.2,-689.02 231.6,-688.98 233.89,-695.59"/>
</g>
<!-- Node11 -->
<g id="node8" class="node">
<title>Node11</title>
<g id="a_node8"><a xlink:href="_transmitter_code_2src_2main_8cpp.html#a722d74e72a1a749c6b215e982657c618" target="_top" xlink:title=" ">
<polygon fill="white" stroke="black" points="235.5,-636.5 235.5,-655.5 319.5,-655.5 319.5,-636.5 235.5,-636.5"/>
<text text-anchor="middle" x="277.5" y="-643.5" font-family="Helvetica,sans-Serif" font-size="10.00">CentreMaxMins</text>
</a>
</g>
</g>
<!-- Node2&#45;&gt;Node11 -->
<g id="edge7" class="edge">
<title>Node2&#45;&gt;Node11</title>
<path fill="none" stroke="midnightblue" d="M126.52,-902.33C129,-865.69 142.8,-733.94 215,-665 218.27,-661.88 222.04,-659.27 226.08,-657.08"/>
<polygon fill="midnightblue" stroke="midnightblue" points="227.56,-660.26 235.24,-652.96 224.68,-653.87 227.56,-660.26"/>
</g>
<!-- Node12 -->
<g id="node9" class="node">
<title>Node12</title>
<g id="a_node9"><a xlink:href="_transmitter_code_2src_2main_8cpp.html#a962a0c149ba58563ca3bad19e999e027" target="_top" xlink:title=" ">
<polygon fill="white" stroke="black" points="228.5,-598.5 228.5,-617.5 326.5,-617.5 326.5,-598.5 228.5,-598.5"/>
<text text-anchor="middle" x="277.5" y="-605.5" font-family="Helvetica,sans-Serif" font-size="10.00">CheckRange_0_16</text>
</a>
</g>
</g>
<!-- Node2&#45;&gt;Node12 -->
<g id="edge8" class="edge">
<title>Node2&#45;&gt;Node12</title>
<path fill="none" stroke="midnightblue" d="M125.98,-902.28C126.46,-862.21 133.69,-708.06 215,-627 216.45,-625.55 218.02,-624.21 219.66,-622.97"/>
<polygon fill="midnightblue" stroke="midnightblue" points="221.78,-625.78 228.5,-617.6 218.14,-619.8 221.78,-625.78"/>
</g>
<!-- Node13 -->
<g id="node10" class="node">
<title>Node13</title>
<g id="a_node10"><a xlink:href="_transmitter_code_2src_2main_8cpp.html#af0852678d8e89501acee8951f09d3b43" target="_top" xlink:title=" ">
<polygon fill="white" stroke="black" points="248.5,-560.5 248.5,-579.5 306.5,-579.5 306.5,-560.5 248.5,-560.5"/>
<text text-anchor="middle" x="277.5" y="-567.5" font-family="Helvetica,sans-Serif" font-size="10.00">ClearText</text>
</a>
</g>
</g>
<!-- Node2&#45;&gt;Node13 -->
<g id="edge9" class="edge">
<title>Node2&#45;&gt;Node13</title>
<path fill="none" stroke="midnightblue" d="M125.56,-902.22C124.18,-858.89 124.5,-682.33 215,-589 221.33,-582.47 229.85,-578.17 238.53,-575.35"/>
<polygon fill="midnightblue" stroke="midnightblue" points="239.53,-578.7 248.28,-572.74 237.72,-571.94 239.53,-578.7"/>
</g>
<!-- Node14 -->
<g id="node11" class="node">
<title>Node14</title>
<g id="a_node11"><a xlink:href="_transmitter_code_2src_2main_8cpp.html#a6922974b734cfe3a511e074a2d6ac33c" target="_top" xlink:title=" ">
<polygon fill="white" stroke="black" points="641,-1035.5 641,-1054.5 730,-1054.5 730,-1035.5 641,-1035.5"/>
<text text-anchor="middle" x="685.5" y="-1042.5" font-family="Helvetica,sans-Serif" font-size="10.00">CloseModelsFile</text>
</a>
</g>
</g>
<!-- Node2&#45;&gt;Node14 -->
<g id="edge10" class="edge">
<title>Node2&#45;&gt;Node14</title>
<path fill="none" stroke="midnightblue" d="M171.13,-921.64C173.95,-923.17 176.61,-924.94 179,-927 208.27,-952.14 184.46,-982.41 215,-1006 339.94,-1102.51 543.37,-1075.66 635.91,-1056.6"/>
<polygon fill="midnightblue" stroke="midnightblue" points="636.78,-1060 645.84,-1054.5 635.33,-1053.15 636.78,-1060"/>
</g>
<!-- Node15 -->
<g id="node12" class="node">
<title>Node15</title>
<g id="a_node12"><a xlink:href="_transmitter_code_2src_2main_8cpp.html#ac00389a3b76e3ced4517c6ad4147e86a" target="_top" xlink:title=" ">
<polygon fill="white" stroke="red" points="250.5,-522.5 250.5,-541.5 304.5,-541.5 304.5,-522.5 250.5,-522.5"/>
<text text-anchor="middle" x="277.5" y="-529.5" font-family="Helvetica,sans-Serif" font-size="10.00">DecDate</text>
</a>
</g>
</g>
<!-- Node2&#45;&gt;Node15 -->
<g id="edge11" class="edge">
<title>Node2&#45;&gt;Node15</title>
<path fill="none" stroke="midnightblue" d="M127.11,-902.25C133.22,-850.13 164.38,-604.64 215,-551 221.77,-543.82 231.19,-539.34 240.63,-536.54"/>
<polygon fill="midnightblue" stroke="midnightblue" points="241.45,-539.94 250.35,-534.19 239.81,-533.13 241.45,-539.94"/>
</g>
<!-- Node18 -->
<g id="node13" class="node">
<title>Node18</title>
<g id="a_node13"><a xlink:href="_transmitter_code_2src_2main_8cpp.html#a053bee2e90b7d0bacffe990847973d4a" target="_top" xlink:title=" ">
<polygon fill="white" stroke="red" points="250,-484.5 250,-503.5 305,-503.5 305,-484.5 250,-484.5"/>
<text text-anchor="middle" x="277.5" y="-491.5" font-family="Helvetica,sans-Serif" font-size="10.00">DecHour</text>
</a>
</g>
</g>
<!-- Node2&#45;&gt;Node18 -->
<g id="edge12" class="edge">
<title>Node2&#45;&gt;Node18</title>
<path fill="none" stroke="midnightblue" d="M126.85,-902.35C131.92,-847.25 159.65,-572.98 215,-513 221.57,-505.88 230.74,-501.41 239.99,-498.6"/>
<polygon fill="midnightblue" stroke="midnightblue" points="241.07,-501.94 249.95,-496.16 239.4,-495.14 241.07,-501.94"/>
</g>
<!-- Node19 -->
<g id="node14" class="node">
<title>Node19</title>
<g id="a_node14"><a xlink:href="_transmitter_code_2src_2main_8cpp.html#a87fe692c91177cb3eddffaae43ad6d4d" target="_top" xlink:title=" ">
<polygon fill="white" stroke="red" points="246,-446.5 246,-465.5 309,-465.5 309,-446.5 246,-446.5"/>
<text text-anchor="middle" x="277.5" y="-453.5" font-family="Helvetica,sans-Serif" font-size="10.00">DecMinute</text>
</a>
</g>
</g>
<!-- Node2&#45;&gt;Node19 -->
<g id="edge13" class="edge">
<title>Node2&#45;&gt;Node19</title>
<path fill="none" stroke="midnightblue" d="M126.66,-902.21C130.81,-843.76 154.96,-541.28 215,-475 220.6,-468.82 228.16,-464.62 236.07,-461.79"/>
<polygon fill="midnightblue" stroke="midnightblue" points="237.15,-465.12 245.77,-458.96 235.19,-458.4 237.15,-465.12"/>
</g>
<!-- Node20 -->
<g id="node15" class="node">
<title>Node20</title>
<g id="a_node15"><a xlink:href="_transmitter_code_2src_2main_8cpp.html#a8a749ad1678f2de577b502dfb95400dd" target="_top" xlink:title=" ">
<polygon fill="white" stroke="red" points="247,-408.5 247,-427.5 308,-427.5 308,-408.5 247,-408.5"/>
<text text-anchor="middle" x="277.5" y="-415.5" font-family="Helvetica,sans-Serif" font-size="10.00">DecMonth</text>
</a>
</g>
</g>
<!-- Node2&#45;&gt;Node20 -->
<g id="edge14" class="edge">
<title>Node2&#45;&gt;Node20</title>
<path fill="none" stroke="midnightblue" d="M126.49,-902.17C129.76,-840.73 150.23,-509.64 215,-437 220.83,-430.47 228.85,-426.15 237.17,-423.31"/>
<polygon fill="midnightblue" stroke="midnightblue" points="238.26,-426.64 246.97,-420.61 236.4,-419.89 238.26,-426.64"/>
</g>
<!-- Node21 -->
<g id="node16" class="node">
<title>Node21</title>
<g id="a_node16"><a xlink:href="_transmitter_code_2src_2main_8cpp.html#ad712237b8d367326a7f460181dade102" target="_top" xlink:title=" ">
<polygon fill="white" stroke="red" points="250.5,-370.5 250.5,-389.5 304.5,-389.5 304.5,-370.5 250.5,-370.5"/>
<text text-anchor="middle" x="277.5" y="-377.5" font-family="Helvetica,sans-Serif" font-size="10.00">DecYear</text>
</a>
</g>
</g>
<!-- Node2&#45;&gt;Node21 -->
<g id="edge15" class="edge">
<title>Node2&#45;&gt;Node21</title>
<path fill="none" stroke="midnightblue" d="M126.34,-902.24C128.78,-838.17 145.45,-478.07 215,-399 221.57,-391.53 231.02,-386.95 240.54,-384.17"/>
<polygon fill="midnightblue" stroke="midnightblue" points="241.43,-387.55 250.37,-381.86 239.84,-380.74 241.43,-387.55"/>
</g>
<!-- Node22 -->
<g id="node17" class="node">
<title>Node22</title>
<g id="a_node17"><a xlink:href="_transmitter_code_2src_2main_8cpp.html#af941d3a33327b2cee79e058ba9cd65f6" target="_top" xlink:title=" ">
<polygon fill="white" stroke="red" points="394,-313.5 394,-332.5 468,-332.5 468,-313.5 394,-313.5"/>
<text text-anchor="middle" x="431" y="-320.5" font-family="Helvetica,sans-Serif" font-size="10.00">DisplayCurve</text>
</a>
</g>
</g>
<!-- Node2&#45;&gt;Node22 -->
<g id="edge16" class="edge">
<title>Node2&#45;&gt;Node22</title>
<path fill="none" stroke="midnightblue" d="M126.1,-902.28C126.96,-835.25 135.43,-441.76 215,-361 237.98,-337.68 327.85,-328.53 383.87,-325.04"/>
<polygon fill="midnightblue" stroke="midnightblue" points="384.13,-328.53 393.91,-324.46 383.72,-321.55 384.13,-328.53"/>
</g>
<!-- Node33 -->
<g id="node18" class="node">
<title>Node33</title>
<g id="a_node18"><a xlink:href="_transmitter_code_2src_2main_8cpp.html#aba44d61ea51411cb5c601beb94b6fef4" target="_top" xlink:title=" ">
<polygon fill="white" stroke="black" points="376,-940.5 376,-959.5 486,-959.5 486,-940.5 376,-940.5"/>
<text text-anchor="middle" x="431" y="-947.5" font-family="Helvetica,sans-Serif" font-size="10.00">DoNewChannelName</text>
</a>
</g>
</g>
<!-- Node2&#45;&gt;Node33 -->
<g id="edge17" class="edge">
<title>Node2&#45;&gt;Node33</title>
<path fill="none" stroke="midnightblue" d="M179.12,-920.76C190.92,-922.59 203.37,-924.44 215,-926 265.49,-932.79 322.82,-939.12 365.58,-943.57"/>
<polygon fill="midnightblue" stroke="midnightblue" points="365.27,-947.06 375.57,-944.61 365.99,-940.09 365.27,-947.06"/>
</g>
<!-- Node34 -->
<g id="node19" class="node">
<title>Node34</title>
<g id="a_node19"><a xlink:href="_transmitter_code_2src_2main_8cpp.html#a6717bc5d0d10c1fb5379fc2d0d8c10fb" target="_top" xlink:title=" ">
<polygon fill="white" stroke="red" points="522,-940.5 522,-959.5 605,-959.5 605,-940.5 522,-940.5"/>
<text text-anchor="middle" x="563.5" y="-947.5" font-family="Helvetica,sans-Serif" font-size="10.00">SaveOneModel</text>
</a>
</g>
</g>
<!-- Node2&#45;&gt;Node34 -->
<g id="edge53" class="edge">
<title>Node2&#45;&gt;Node34</title>
<path fill="none" stroke="midnightblue" d="M179.08,-911.65C249.59,-911.9 377.83,-914.86 486,-931 497.19,-932.67 509.13,-935.24 520.18,-937.96"/>
<polygon fill="midnightblue" stroke="midnightblue" points="519.46,-941.39 530.02,-940.48 521.19,-934.61 519.46,-941.39"/>
</g>
<!-- Node35 -->
<g id="node20" class="node">
<title>Node35</title>
<g id="a_node20"><a xlink:href="_transmitter_code_2src_2main_8cpp.html#ae7618f38a148877bc5681be58cba8354" target="_top" xlink:title=" ">
<polygon fill="white" stroke="black" points="642,-940.5 642,-959.5 729,-959.5 729,-940.5 642,-940.5"/>
<text text-anchor="middle" x="685.5" y="-947.5" font-family="Helvetica,sans-Serif" font-size="10.00">OpenModelsFile</text>
</a>
</g>
</g>
<!-- Node2&#45;&gt;Node35 -->
<g id="edge37" class="edge">
<title>Node2&#45;&gt;Node35</title>
<path fill="none" stroke="midnightblue" d="M147.9,-902.43C165.67,-895.02 191.54,-885.03 215,-879 332.11,-848.91 366.9,-834.14 486,-855 541.39,-864.7 554.68,-872.88 605,-898 625.85,-908.41 647.9,-923.16 663.47,-934.3"/>
<polygon fill="midnightblue" stroke="midnightblue" points="661.69,-937.33 671.84,-940.38 665.8,-931.67 661.69,-937.33"/>
</g>
<!-- Node37 -->
<g id="node21" class="node">
<title>Node37</title>
<g id="a_node21"><a xlink:href="_radio_functions_8cpp.html#a31fb6a46af68482e107cddee58dfb677" target="_top" xlink:title=" ">
<polygon fill="white" stroke="red" points="243.5,-256.5 243.5,-275.5 311.5,-275.5 311.5,-256.5 243.5,-256.5"/>
<text text-anchor="middle" x="277.5" y="-263.5" font-family="Helvetica,sans-Serif" font-size="10.00">DoScanEnd</text>
</a>
</g>
</g>
<!-- Node2&#45;&gt;Node37 -->
<g id="edge21" class="edge">
<title>Node2&#45;&gt;Node37</title>
<path fill="none" stroke="midnightblue" d="M126.77,-902.02C132.79,-825.57 172.91,-334.36 215,-285 219.89,-279.27 226.46,-275.24 233.49,-272.41"/>
<polygon fill="midnightblue" stroke="midnightblue" points="234.82,-275.66 243.26,-269.26 232.67,-269 234.82,-275.66"/>
</g>
<!-- Node39 -->
<g id="node22" class="node">
<title>Node39</title>
<g id="a_node22"><a xlink:href="_radio_functions_8cpp.html#a77c4a4ffa609df08830ccece07bf283b" target="_top" xlink:title=" ">
<polygon fill="white" stroke="red" points="245,-1548.5 245,-1567.5 310,-1567.5 310,-1548.5 245,-1548.5"/>
<text text-anchor="middle" x="277.5" y="-1555.5" font-family="Helvetica,sans-Serif" font-size="10.00">DoScanInit</text>
</a>
</g>
</g>
<!-- Node2&#45;&gt;Node39 -->
<g id="edge22" class="edge">
<title>Node2&#45;&gt;Node39</title>
<path fill="none" stroke="midnightblue" d="M126,-921.52C126.23,-992.62 131,-1440.49 215,-1539 220.25,-1545.16 227.45,-1549.35 235.08,-1552.2"/>
<polygon fill="midnightblue" stroke="midnightblue" points="234.27,-1555.61 244.86,-1555.14 236.29,-1548.91 234.27,-1555.61"/>
</g>
<!-- Node40 -->
<g id="node23" class="node">
<title>Node40</title>
<g id="a_node23"><a xlink:href="_transmitter_code_2src_2main_8cpp.html#a6bdc6419b47dda71d0d2c8faf652adc2" target="_top" xlink:title=" ">
<polygon fill="white" stroke="red" points="239,-1510.5 239,-1529.5 316,-1529.5 316,-1510.5 239,-1510.5"/>
<text text-anchor="middle" x="277.5" y="-1517.5" font-family="Helvetica,sans-Serif" font-size="10.00">DrawFhssBox</text>
</a>
</g>
</g>
<!-- Node2&#45;&gt;Node40 -->
<g id="edge23" class="edge">
<title>Node2&#45;&gt;Node40</title>
<path fill="none" stroke="midnightblue" d="M126.1,-921.82C127.04,-991.34 135.91,-1409.09 215,-1501 218.92,-1505.56 223.91,-1509.04 229.35,-1511.7"/>
<polygon fill="midnightblue" stroke="midnightblue" points="228.22,-1515.01 238.81,-1515.43 230.79,-1508.5 228.22,-1515.01"/>
</g>
<!-- Node42 -->
<g id="node24" class="node">
<title>Node42</title>
<g id="a_node24"><a xlink:href="_receiver_code_2src_2main_8cpp.html#a42318598726782ebb2e1857f167c8cda" target="_top" xlink:title=" ">
<polygon fill="white" stroke="red" points="251,-1472.5 251,-1491.5 304,-1491.5 304,-1472.5 251,-1472.5"/>
<text text-anchor="middle" x="277.5" y="-1479.5" font-family="Helvetica,sans-Serif" font-size="10.00">FailSafe</text>
</a>
</g>
</g>
<!-- Node2&#45;&gt;Node42 -->
<g id="edge24" class="edge">
<title>Node2&#45;&gt;Node42</title>
<path fill="none" stroke="midnightblue" d="M126.21,-921.61C127.85,-987.93 140.62,-1377.44 215,-1463 221.64,-1470.64 231.28,-1475.25 240.96,-1478.02"/>
<polygon fill="midnightblue" stroke="midnightblue" points="240.41,-1481.48 250.94,-1480.29 241.97,-1474.66 240.41,-1481.48"/>
</g>
<!-- Node56 -->
<g id="node25" class="node">
<title>Node56</title>
<g id="a_node25"><a xlink:href="_transmitter_code_2src_2main_8cpp.html#aa1e81e58421a34fdfd7bfb31925f5a90" target="_top" xlink:title=" ">
<polygon fill="white" stroke="black" points="232.5,-1434.5 232.5,-1453.5 322.5,-1453.5 322.5,-1434.5 232.5,-1434.5"/>
<text text-anchor="middle" x="277.5" y="-1441.5" font-family="Helvetica,sans-Serif" font-size="10.00">Force_ReDisplay</text>
</a>
</g>
</g>
<!-- Node2&#45;&gt;Node56 -->
<g id="edge25" class="edge">
<title>Node2&#45;&gt;Node56</title>
<path fill="none" stroke="midnightblue" d="M126.34,-921.76C128.78,-985.83 145.45,-1345.93 215,-1425 217.4,-1427.73 220.18,-1430.07 223.2,-1432.07"/>
<polygon fill="midnightblue" stroke="midnightblue" points="221.8,-1435.29 232.27,-1436.9 225.09,-1429.11 221.8,-1435.29"/>
</g>
<!-- Node57 -->
<g id="node26" class="node">
<title>Node57</title>
<g id="a_node26"><a xlink:href="_transmitter_code_2src_2main_8cpp.html#aeb87480505eb543d9a7d85f7b15bd563" target="_top" xlink:title="Discover which channel to setup.">
<polygon fill="white" stroke="black" points="243.5,-1396.5 243.5,-1415.5 311.5,-1415.5 311.5,-1396.5 243.5,-1396.5"/>
<text text-anchor="middle" x="277.5" y="-1403.5" font-family="Helvetica,sans-Serif" font-size="10.00">GetChannel</text>
</a>
</g>
</g>
<!-- Node2&#45;&gt;Node57 -->
<g id="edge26" class="edge">
<title>Node2&#45;&gt;Node57</title>
<path fill="none" stroke="midnightblue" d="M126.49,-921.83C129.76,-983.27 150.23,-1314.36 215,-1387 220.01,-1392.62 226.64,-1396.6 233.7,-1399.41"/>
<polygon fill="midnightblue" stroke="midnightblue" points="232.87,-1402.82 243.47,-1402.56 235.03,-1396.16 232.87,-1402.82"/>
</g>
<!-- Node58 -->
<g id="node27" class="node">
<title>Node58</title>
<g id="a_node27"><a xlink:href="_transmitter_code_2src_2main_8cpp.html#a5b456468ac6be5e872b327e0d03a9f7a" target="_top" xlink:title=" ">
<polygon fill="white" stroke="black" points="234,-1358.5 234,-1377.5 321,-1377.5 321,-1358.5 234,-1358.5"/>
<text text-anchor="middle" x="277.5" y="-1365.5" font-family="Helvetica,sans-Serif" font-size="10.00">GetNextNumber</text>
</a>
</g>
</g>
<!-- Node2&#45;&gt;Node58 -->
<g id="edge27" class="edge">
<title>Node2&#45;&gt;Node58</title>
<path fill="none" stroke="midnightblue" d="M126.66,-921.79C130.81,-980.24 154.96,-1282.72 215,-1349 217.87,-1352.17 221.25,-1354.81 224.94,-1357.02"/>
<polygon fill="midnightblue" stroke="midnightblue" points="223.44,-1360.19 233.97,-1361.42 226.51,-1353.89 223.44,-1360.19"/>
</g>
<!-- Node59 -->
<g id="node28" class="node">
<title>Node59</title>
<g id="a_node28"><a xlink:href="_transmitter_code_2src_2main_8cpp.html#ad957c44f88874b35bd11323a86408e59" target="_top" xlink:title=" ">
<polygon fill="white" stroke="red" points="249,-1320.5 249,-1339.5 306,-1339.5 306,-1320.5 249,-1320.5"/>
<text text-anchor="middle" x="277.5" y="-1327.5" font-family="Helvetica,sans-Serif" font-size="10.00">GetValue</text>
</a>
</g>
</g>
<!-- Node2&#45;&gt;Node59 -->
<g id="edge28" class="edge">
<title>Node2&#45;&gt;Node59</title>
<path fill="none" stroke="midnightblue" d="M126.85,-921.65C131.92,-976.75 159.65,-1251.02 215,-1311 221.28,-1317.8 229.93,-1322.19 238.77,-1325.02"/>
<polygon fill="midnightblue" stroke="midnightblue" points="238.14,-1328.47 248.7,-1327.59 239.9,-1321.69 238.14,-1328.47"/>
</g>
<!-- Node62 -->
<g id="node29" class="node">
<title>Node62</title>
<g id="a_node29"><a xlink:href="_transmitter_code_2src_2main_8cpp.html#ac3f1d629a53f2b8bb9aa5bdc2b0a730d" target="_top" xlink:title=" ">
<polygon fill="white" stroke="red" points="252.5,-1282.5 252.5,-1301.5 302.5,-1301.5 302.5,-1282.5 252.5,-1282.5"/>
<text text-anchor="middle" x="277.5" y="-1289.5" font-family="Helvetica,sans-Serif" font-size="10.00">IncDate</text>
</a>
</g>
</g>
<!-- Node2&#45;&gt;Node62 -->
<g id="edge29" class="edge">
<title>Node2&#45;&gt;Node62</title>
<path fill="none" stroke="midnightblue" d="M127.11,-921.75C133.22,-973.87 164.38,-1219.36 215,-1273 222.19,-1280.62 232.36,-1285.21 242.37,-1287.96"/>
<polygon fill="midnightblue" stroke="midnightblue" points="241.68,-1291.39 252.2,-1290.15 243.2,-1284.56 241.68,-1291.39"/>
</g>
<!-- Node63 -->
<g id="node30" class="node">
<title>Node63</title>
<g id="a_node30"><a xlink:href="_transmitter_code_2src_2main_8cpp.html#aee918002ab8f85e66499b048b6ce722b" target="_top" xlink:title=" ">
<polygon fill="white" stroke="red" points="252,-1244.5 252,-1263.5 303,-1263.5 303,-1244.5 252,-1244.5"/>
<text text-anchor="middle" x="277.5" y="-1251.5" font-family="Helvetica,sans-Serif" font-size="10.00">IncHour</text>
</a>
</g>
</g>
<!-- Node2&#45;&gt;Node63 -->
<g id="edge30" class="edge">
<title>Node2&#45;&gt;Node63</title>
<path fill="none" stroke="midnightblue" d="M125.56,-921.78C124.18,-965.11 124.5,-1141.67 215,-1235 222.1,-1242.32 231.96,-1246.84 241.7,-1249.62"/>
<polygon fill="midnightblue" stroke="midnightblue" points="241.17,-1253.09 251.7,-1251.93 242.74,-1246.27 241.17,-1253.09"/>
</g>
<!-- Node64 -->
<g id="node31" class="node">
<title>Node64</title>
<g id="a_node31"><a xlink:href="_transmitter_code_2src_2main_8cpp.html#a7db4bbbc2d6fc9114c7758525fa4c088" target="_top" xlink:title=" ">
<polygon fill="white" stroke="red" points="248,-1206.5 248,-1225.5 307,-1225.5 307,-1206.5 248,-1206.5"/>
<text text-anchor="middle" x="277.5" y="-1213.5" font-family="Helvetica,sans-Serif" font-size="10.00">IncMinute</text>
</a>
</g>
</g>
<!-- Node2&#45;&gt;Node64 -->
<g id="edge31" class="edge">
<title>Node2&#45;&gt;Node64</title>
<path fill="none" stroke="midnightblue" d="M125.98,-921.72C126.46,-961.79 133.69,-1115.94 215,-1197 221.26,-1203.24 229.52,-1207.44 237.94,-1210.26"/>
<polygon fill="midnightblue" stroke="midnightblue" points="237.23,-1213.69 247.8,-1212.98 239.09,-1206.94 237.23,-1213.69"/>
</g>
<!-- Node65 -->
<g id="node32" class="node">
<title>Node65</title>
<g id="a_node32"><a xlink:href="_transmitter_code_2src_2main_8cpp.html#ac6e0db167f018387da880dd95ab198e7" target="_top" xlink:title=" ">
<polygon fill="white" stroke="red" points="249,-788.5 249,-807.5 306,-807.5 306,-788.5 249,-788.5"/>
<text text-anchor="middle" x="277.5" y="-795.5" font-family="Helvetica,sans-Serif" font-size="10.00">IncMonth</text>
</a>
</g>
</g>
<!-- Node2&#45;&gt;Node65 -->
<g id="edge32" class="edge">
<title>Node2&#45;&gt;Node65</title>
<path fill="none" stroke="midnightblue" d="M133.3,-902.28C147.31,-884.21 179.74,-845.18 215,-822 222.43,-817.11 231.01,-812.98 239.36,-809.6"/>
<polygon fill="midnightblue" stroke="midnightblue" points="240.85,-812.78 248.97,-805.97 238.38,-806.23 240.85,-812.78"/>
</g>
<!-- Node66 -->
<g id="node33" class="node">
<title>Node66</title>
<g id="a_node33"><a xlink:href="_transmitter_code_2src_2main_8cpp.html#a30a6637e60923c45a28bdfb938903207" target="_top" xlink:title=" ">
<polygon fill="white" stroke="red" points="252.5,-750.5 252.5,-769.5 302.5,-769.5 302.5,-750.5 252.5,-750.5"/>
<text text-anchor="middle" x="277.5" y="-757.5" font-family="Helvetica,sans-Serif" font-size="10.00">IncYear</text>
</a>
</g>
</g>
<!-- Node2&#45;&gt;Node66 -->
<g id="edge33" class="edge">
<title>Node2&#45;&gt;Node66</title>
<path fill="none" stroke="midnightblue" d="M129.75,-902.32C139.73,-877.85 169.33,-813.03 215,-779 223.05,-773 233.02,-768.88 242.57,-766.04"/>
<polygon fill="midnightblue" stroke="midnightblue" points="243.47,-769.43 252.28,-763.54 241.72,-762.65 243.47,-769.43"/>
</g>
<!-- Node67 -->
<g id="node34" class="node">
<title>Node67</title>
<g id="a_node34"><a xlink:href="_transmitter_code_2src_2main_8cpp.html#aad727ec0b0f9f34487a535eaa4a83172" target="_top" xlink:title="moves point very close to where user hit screen">
<polygon fill="white" stroke="red" points="246,-294.5 246,-313.5 309,-313.5 309,-294.5 246,-294.5"/>
<text text-anchor="middle" x="277.5" y="-301.5" font-family="Helvetica,sans-Serif" font-size="10.00">MovePoint</text>
</a>
</g>
</g>
<!-- Node2&#45;&gt;Node67 -->
<g id="edge35" class="edge">
<title>Node2&#45;&gt;Node67</title>
<path fill="none" stroke="midnightblue" d="M126.19,-902.32C127.7,-833.79 139.86,-421.88 215,-328 220.46,-321.18 228.11,-316.3 236.18,-312.8"/>
<polygon fill="midnightblue" stroke="midnightblue" points="237.54,-316.03 245.72,-309.29 235.13,-309.45 237.54,-316.03"/>
</g>
<!-- Node69 -->
<g id="node35" class="node">
<title>Node69</title>
<g id="a_node35"><a xlink:href="_transmitter_code_2src_2main_8cpp.html#a3d9d955a8c7cfea4cc99e78f3746bd26" target="_top" xlink:title=" ">
<polygon fill="white" stroke="red" points="389.5,-864.5 389.5,-883.5 472.5,-883.5 472.5,-864.5 389.5,-864.5"/>
<text text-anchor="middle" x="431" y="-871.5" font-family="Helvetica,sans-Serif" font-size="10.00">ReadOneModel</text>
</a>
</g>
</g>
<!-- Node2&#45;&gt;Node69 -->
<g id="edge38" class="edge">
<title>Node2&#45;&gt;Node69</title>
<path fill="none" stroke="midnightblue" d="M179.12,-903.24C190.92,-901.41 203.37,-899.56 215,-898 271,-890.47 335.43,-883.51 379.04,-879.04"/>
<polygon fill="midnightblue" stroke="midnightblue" points="379.52,-882.51 389.12,-878.01 378.81,-875.54 379.52,-882.51"/>
</g>
<!-- Node73 -->
<g id="node36" class="node">
<title>Node73</title>
<g id="a_node36"><a xlink:href="_transmitter_code_2src_2main_8cpp.html#ab7c9edf843c732d7fe296564f39bc0dc" target="_top" xlink:title="RECEIVE A MODEL FILE.">
<polygon fill="white" stroke="red" points="230.5,-1092.5 230.5,-1111.5 324.5,-1111.5 324.5,-1092.5 230.5,-1092.5"/>
<text text-anchor="middle" x="277.5" y="-1099.5" font-family="Helvetica,sans-Serif" font-size="10.00">ReceiveModelFile</text>
</a>
</g>
</g>
<!-- Node2&#45;&gt;Node73 -->
<g id="edge40" class="edge">
<title>Node2&#45;&gt;Node73</title>
<path fill="none" stroke="midnightblue" d="M128.61,-921.74C136.64,-949.92 163.62,-1032.44 215,-1078 219.51,-1081.99 224.75,-1085.36 230.24,-1088.19"/>
<polygon fill="midnightblue" stroke="midnightblue" points="229.08,-1091.5 239.63,-1092.45 231.98,-1085.13 229.08,-1091.5"/>
</g>
<!-- Node76 -->
<g id="node38" class="node">
<title>Node76</title>
<g id="a_node38"><a xlink:href="_transmitter_code_2src_2main_8cpp.html#a92c5dada5e5ef70261391557464f2d19" target="_top" xlink:title=" ">
<polygon fill="white" stroke="black" points="380.5,-978.5 380.5,-997.5 481.5,-997.5 481.5,-978.5 380.5,-978.5"/>
<text text-anchor="middle" x="431" y="-985.5" font-family="Helvetica,sans-Serif" font-size="10.00">SaveAllParameters</text>
</a>
</g>
</g>
<!-- Node2&#45;&gt;Node76 -->
<g id="edge52" class="edge">
<title>Node2&#45;&gt;Node76</title>
<path fill="none" stroke="midnightblue" d="M147.19,-921.63C164.98,-929.4 191.24,-940.13 215,-947 266.54,-961.91 326.62,-972.84 370.15,-979.65"/>
<polygon fill="midnightblue" stroke="midnightblue" points="369.87,-983.15 380.28,-981.21 370.93,-976.23 369.87,-983.15"/>
</g>
<!-- Node77 -->
<g id="node39" class="node">
<title>Node77</title>
<g id="a_node39"><a xlink:href="_transmitter_code_2src_2main_8cpp.html#a9214716193ab9843267fc070ebfa12ff" target="_top" xlink:title=" ">
<polygon fill="white" stroke="red" points="527.5,-1016.5 527.5,-1035.5 599.5,-1035.5 599.5,-1016.5 527.5,-1016.5"/>
<text text-anchor="middle" x="563.5" y="-1023.5" font-family="Helvetica,sans-Serif" font-size="10.00">SaveTXStuff</text>
</a>
</g>
</g>
<!-- Node2&#45;&gt;Node77 -->
<g id="edge54" class="edge">
<title>Node2&#45;&gt;Node77</title>
<path fill="none" stroke="midnightblue" d="M136.64,-921.61C152.5,-935.41 183.85,-960.63 215,-974 316.64,-1017.61 448.6,-1025.53 516.97,-1026.44"/>
<polygon fill="midnightblue" stroke="midnightblue" points="517.35,-1029.94 527.38,-1026.53 517.41,-1022.94 517.35,-1029.94"/>
</g>
<!-- Node5&#45;&gt;Node6 -->
<g id="edge4" class="edge">
<title>Node5&#45;&gt;Node6</title>
<path fill="none" stroke="midnightblue" d="M437.44,-1149.51C457.22,-1184.05 525.49,-1303.34 551.93,-1349.53"/>
<polygon fill="midnightblue" stroke="midnightblue" points="549.03,-1351.51 557.04,-1358.45 555.11,-1348.04 549.03,-1351.51"/>
</g>
<!-- Node33&#45;&gt;Node34 -->
<g id="edge18" class="edge">
<title>Node33&#45;&gt;Node34</title>
<path fill="none" stroke="midnightblue" d="M486.21,-950C494.67,-950 503.39,-950 511.77,-950"/>
<polygon fill="midnightblue" stroke="midnightblue" points="511.79,-953.5 521.79,-950 511.79,-946.5 511.79,-953.5"/>
</g>
<!-- Node34&#45;&gt;Node14 -->
<g id="edge19" class="edge">
<title>Node34&#45;&gt;Node14</title>
<path fill="none" stroke="midnightblue" d="M576.89,-959.81C597.57,-976.18 639.3,-1009.21 664.28,-1028.99"/>
<polygon fill="midnightblue" stroke="midnightblue" points="662.34,-1031.92 672.36,-1035.39 666.69,-1026.43 662.34,-1031.92"/>
</g>
<!-- Node34&#45;&gt;Node35 -->
<g id="edge20" class="edge">
<title>Node34&#45;&gt;Node35</title>
<path fill="none" stroke="midnightblue" d="M605.13,-950C613.63,-950 622.72,-950 631.59,-950"/>
<polygon fill="midnightblue" stroke="midnightblue" points="631.87,-953.5 641.87,-950 631.87,-946.5 631.87,-953.5"/>
</g>
<!-- Node67&#45;&gt;Node22 -->
<g id="edge36" class="edge">
<title>Node67&#45;&gt;Node22</title>
<path fill="none" stroke="midnightblue" d="M309.16,-307.84C330.57,-310.53 359.54,-314.16 383.74,-317.2"/>
<polygon fill="midnightblue" stroke="midnightblue" points="383.43,-320.69 393.79,-318.46 384.3,-313.74 383.43,-320.69"/>
</g>
<!-- Node69&#45;&gt;Node35 -->
<g id="edge39" class="edge">
<title>Node69&#45;&gt;Node35</title>
<path fill="none" stroke="midnightblue" d="M463.72,-883.55C509.17,-897.23 592.86,-922.42 643.12,-937.55"/>
<polygon fill="midnightblue" stroke="midnightblue" points="642.12,-940.9 652.71,-940.43 644.14,-934.2 642.12,-940.9"/>
</g>
<!-- Node73&#45;&gt;Node5 -->
<g id="edge41" class="edge">
<title>Node73&#45;&gt;Node5</title>
<path fill="none" stroke="midnightblue" d="M316.73,-1111.59C336.71,-1116.6 361.34,-1122.78 382.53,-1128.09"/>
<polygon fill="midnightblue" stroke="midnightblue" points="381.76,-1131.51 392.31,-1130.55 383.46,-1124.72 381.76,-1131.51"/>
</g>
<!-- Node73&#45;&gt;Node14 -->
<g id="edge42" class="edge">
<title>Node73&#45;&gt;Node14</title>
<path fill="none" stroke="midnightblue" d="M324.63,-1103.2C388.51,-1103.83 507.13,-1101.27 605,-1078 622.89,-1073.75 641.95,-1065.96 656.92,-1059.02"/>
<polygon fill="midnightblue" stroke="midnightblue" points="658.6,-1062.09 666.11,-1054.62 655.58,-1055.78 658.6,-1062.09"/>
</g>
<!-- Node73&#45;&gt;Node69 -->
<g id="edge44" class="edge">
<title>Node73&#45;&gt;Node69</title>
<path fill="none" stroke="midnightblue" d="M283.03,-1092.24C295.75,-1065.29 333.65,-988.09 376,-931 386.72,-916.55 400.74,-901.85 411.8,-891"/>
<polygon fill="midnightblue" stroke="midnightblue" points="414.47,-893.29 419.25,-883.84 409.62,-888.25 414.47,-893.29"/>
</g>
<!-- Node73&#45;&gt;Node74 -->
<g id="edge43" class="edge">
<title>Node73&#45;&gt;Node74</title>
<path fill="none" stroke="midnightblue" d="M294.26,-1111.55C308.94,-1121.42 330.04,-1138.27 340,-1159 387.68,-1258.2 309.16,-1565.55 376,-1653 378.86,-1656.74 382.51,-1659.75 386.57,-1662.17"/>
<polygon fill="midnightblue" stroke="midnightblue" points="385.39,-1665.48 395.93,-1666.57 388.37,-1659.15 385.39,-1665.48"/>
</g>
<!-- Node73&#45;&gt;Node76 -->
<g id="edge45" class="edge">
<title>Node73&#45;&gt;Node76</title>
<path fill="none" stroke="midnightblue" d="M291.16,-1092.48C317.16,-1072.91 376.83,-1028.01 408.82,-1003.94"/>
<polygon fill="midnightblue" stroke="midnightblue" points="411.17,-1006.55 417.06,-997.74 406.96,-1000.95 411.17,-1006.55"/>
</g>
<!-- Node73&#45;&gt;Node79 -->
<g id="edge51" class="edge">
<title>Node73&#45;&gt;Node79</title>
<path fill="none" stroke="midnightblue" d="M293.47,-1111.63C307.78,-1121.66 328.8,-1138.75 340,-1159 427.57,-1317.29 431.48,-1545.74 430.53,-1614.01"/>
<polygon fill="midnightblue" stroke="midnightblue" points="427.03,-1614.14 430.33,-1624.21 434.02,-1614.28 427.03,-1614.14"/>
</g>
<!-- Node76&#45;&gt;Node34 -->
<g id="edge47" class="edge">
<title>Node76&#45;&gt;Node34</title>
<path fill="none" stroke="midnightblue" d="M464.93,-978.41C481.62,-973.55 502.09,-967.59 519.96,-962.39"/>
<polygon fill="midnightblue" stroke="midnightblue" points="520.96,-965.74 529.58,-959.59 519,-959.02 520.96,-965.74"/>
</g>
<!-- Node76&#45;&gt;Node35 -->
<g id="edge46" class="edge">
<title>Node76&#45;&gt;Node35</title>
<path fill="none" stroke="midnightblue" d="M481.82,-984.19C516.51,-981.14 563.77,-976.16 605,-969 616.03,-967.08 627.8,-964.55 638.82,-961.95"/>
<polygon fill="midnightblue" stroke="midnightblue" points="639.79,-965.32 648.68,-959.57 638.14,-958.51 639.79,-965.32"/>
</g>
<!-- Node76&#45;&gt;Node77 -->
<g id="edge48" class="edge">
<title>Node76&#45;&gt;Node77</title>
<path fill="none" stroke="midnightblue" d="M464.93,-997.59C481.62,-1002.45 502.09,-1008.41 519.96,-1013.61"/>
<polygon fill="midnightblue" stroke="midnightblue" points="519,-1016.98 529.58,-1016.41 520.96,-1010.26 519,-1016.98"/>
</g>
<!-- Node77&#45;&gt;Node14 -->
<g id="edge49" class="edge">
<title>Node77&#45;&gt;Node14</title>
<path fill="none" stroke="midnightblue" d="M599.53,-1031.55C609.28,-1033.09 620.1,-1034.8 630.67,-1036.48"/>
<polygon fill="midnightblue" stroke="midnightblue" points="630.25,-1039.95 640.67,-1038.06 631.34,-1033.04 630.25,-1039.95"/>
</g>
<!-- Node77&#45;&gt;Node35 -->
<g id="edge50" class="edge">
<title>Node77&#45;&gt;Node35</title>
<path fill="none" stroke="midnightblue" d="M581.15,-1016.36C588.51,-1012.04 597.23,-1006.84 605,-1002 624.31,-989.97 645.89,-975.81 661.69,-965.31"/>
<polygon fill="midnightblue" stroke="midnightblue" points="663.88,-968.05 670.26,-959.59 660,-962.22 663.88,-968.05"/>
</g>
<!-- Node97&#45;&gt;Node102 -->
<g id="edge56" class="edge">
<title>Node97&#45;&gt;Node102</title>
<path fill="none" stroke="midnightblue" d="M161.67,-304.47C167.77,-301.95 173.81,-298.83 179,-295 200.46,-279.17 193.2,-262.35 215,-247 218.44,-244.58 222.21,-242.45 226.12,-240.6"/>
<polygon fill="midnightblue" stroke="midnightblue" points="227.55,-243.79 235.44,-236.73 224.87,-237.33 227.55,-243.79"/>
</g>
<!-- Node104&#45;&gt;Node102 -->
<g id="edge58" class="edge">
<title>Node104&#45;&gt;Node102</title>
<path fill="none" stroke="midnightblue" d="M154.82,-266.48C172.23,-260.77 194.86,-253.39 215,-247 221.58,-244.91 228.57,-242.72 235.39,-240.6"/>
<polygon fill="midnightblue" stroke="midnightblue" points="236.67,-243.87 245.18,-237.57 234.6,-237.19 236.67,-243.87"/>
</g>
<!-- Node107&#45;&gt;Node108 -->
<g id="edge62" class="edge">
<title>Node107&#45;&gt;Node108</title>
<path fill="none" stroke="midnightblue" d="M161.29,-157.55C174.4,-155.89 189.79,-153.95 204.99,-152.03"/>
<polygon fill="midnightblue" stroke="midnightblue" points="205.43,-155.5 214.91,-150.78 204.55,-148.56 205.43,-155.5"/>
</g>
</g>
</svg>
