<?xml version="1.0" encoding="UTF-8" standalone="no"?>
<!DOCTYPE svg PUBLIC "-//W3C//DTD SVG 1.1//EN"
 "http://www.w3.org/Graphics/SVG/1.1/DTD/svg11.dtd">
<!-- Generated by graphviz version 3.0.0 (20220413.0106)
 -->
<!-- Title: EndSend Pages: 1 -->
<svg width="524pt" height="123pt"
 viewBox="0.00 0.00 524.00 123.00" xmlns="http://www.w3.org/2000/svg" xmlns:xlink="http://www.w3.org/1999/xlink">
<g id="graph0" class="graph" transform="scale(1 1) rotate(0) translate(4 119)">
<title>EndSend</title>
<polygon fill="white" stroke="transparent" points="-4,4 -4,-119 520,-119 520,4 -4,4"/>
<!-- Node1 -->
<g id="node1" class="node">
<title>Node1</title>
<g id="a_node1"><a xlink:title=" ">
<polygon fill="#bfbfbf" stroke="black" points="460,-57.5 460,-76.5 516,-76.5 516,-57.5 460,-57.5"/>
<text text-anchor="middle" x="488" y="-64.5" font-family="Helvetica,sans-Serif" font-size="10.00">EndSend</text>
</a>
</g>
</g>
<!-- Node2 -->
<g id="node2" class="node">
<title>Node2</title>
<g id="a_node2"><a xlink:href="_transmitter_code_2src_2main_8cpp.html#ac8919b32f9c38cc65c7b93cae664acfb" target="_top" xlink:title=" ">
<polygon fill="white" stroke="black" points="229,-95.5 229,-114.5 310,-114.5 310,-95.5 229,-95.5"/>
<text text-anchor="middle" x="269.5" y="-102.5" font-family="Helvetica,sans-Serif" font-size="10.00">GetOtherValue</text>
</a>
</g>
</g>
<!-- Node1&#45;&gt;Node2 -->
<g id="edge1" class="edge">
<title>Node1&#45;&gt;Node2</title>
<path fill="none" stroke="midnightblue" d="M450.26,-79.22C441.71,-81.75 432.6,-84.19 424,-86 385.77,-94.07 341.41,-99.1 310.24,-101.95"/>
<polygon fill="midnightblue" stroke="midnightblue" points="451.43,-82.52 459.97,-76.25 449.39,-75.83 451.43,-82.52"/>
</g>
<!-- Node5 -->
<g id="node5" class="node">
<title>Node5</title>
<g id="a_node5"><a xlink:href="_transmitter_code_2src_2main_8cpp.html#a8e271ca29dc3c90bcf0e465b41bd71ff" target="_top" xlink:title=" ">
<polygon fill="white" stroke="black" points="370,-57.5 370,-76.5 421,-76.5 421,-57.5 370,-57.5"/>
<text text-anchor="middle" x="395.5" y="-64.5" font-family="Helvetica,sans-Serif" font-size="10.00">GetText</text>
</a>
</g>
</g>
<!-- Node1&#45;&gt;Node5 -->
<g id="edge4" class="edge">
<title>Node1&#45;&gt;Node5</title>
<path fill="none" stroke="midnightblue" d="M449.69,-67C440.07,-67 429.96,-67 421.17,-67"/>
<polygon fill="midnightblue" stroke="midnightblue" points="449.85,-70.5 459.85,-67 449.85,-63.5 449.85,-70.5"/>
</g>
<!-- Node6 -->
<g id="node6" class="node">
<title>Node6</title>
<g id="a_node6"><a xlink:href="_transmitter_code_2src_2main_8cpp.html#ad957c44f88874b35bd11323a86408e59" target="_top" xlink:title=" ">
<polygon fill="white" stroke="black" points="367,-19.5 367,-38.5 424,-38.5 424,-19.5 367,-19.5"/>
<text text-anchor="middle" x="395.5" y="-26.5" font-family="Helvetica,sans-Serif" font-size="10.00">GetValue</text>
</a>
</g>
</g>
<!-- Node1&#45;&gt;Node6 -->
<g id="edge5" class="edge">
<title>Node1&#45;&gt;Node6</title>
<path fill="none" stroke="midnightblue" d="M454.71,-53.44C443.01,-48.53 430.05,-43.09 419.33,-38.59"/>
<polygon fill="midnightblue" stroke="midnightblue" points="453.59,-56.77 464.16,-57.41 456.3,-50.31 453.59,-56.77"/>
</g>
<!-- Node3 -->
<g id="node3" class="node">
<title>Node3</title>
<g id="a_node3"><a xlink:href="_transmitter_code_2src_2main_8cpp.html#a8e7ccbf842764fd85cc578be263f7202" target="_top" xlink:title=" ">
<polygon fill="white" stroke="black" points="71,-47.5 71,-66.5 172,-66.5 172,-47.5 71,-47.5"/>
<text text-anchor="middle" x="121.5" y="-54.5" font-family="Helvetica,sans-Serif" font-size="10.00">ButtonWasPressed</text>
</a>
</g>
</g>
<!-- Node2&#45;&gt;Node3 -->
<g id="edge2" class="edge">
<title>Node2&#45;&gt;Node3</title>
<path fill="none" stroke="midnightblue" d="M229.6,-92.21C205.11,-84.16 174.01,-73.94 151.64,-66.58"/>
<polygon fill="midnightblue" stroke="midnightblue" points="228.71,-95.6 239.31,-95.4 230.9,-88.95 228.71,-95.6"/>
</g>
<!-- Node4 -->
<g id="node4" class="node">
<title>Node4</title>
<g id="a_node4"><a xlink:href="_transmitter_code_2src_2main_8cpp.html#afe461d27b9c48d5921c00d521181f12f" target="_top" xlink:title=" ">
<polygon fill="white" stroke="black" points="0,-19.5 0,-38.5 35,-38.5 35,-19.5 0,-19.5"/>
<text text-anchor="middle" x="17.5" y="-26.5" font-family="Helvetica,sans-Serif" font-size="10.00">loop</text>
</a>
</g>
</g>
<!-- Node3&#45;&gt;Node4 -->
<g id="edge3" class="edge">
<title>Node3&#45;&gt;Node4</title>
<path fill="none" stroke="midnightblue" d="M75.85,-44.74C61.4,-40.78 46.25,-36.62 35.16,-33.57"/>
<polygon fill="midnightblue" stroke="midnightblue" points="75.11,-48.17 85.68,-47.44 76.97,-41.42 75.11,-48.17"/>
</g>
<!-- Node6&#45;&gt;Node3 -->
<g id="edge6" class="edge">
<title>Node6&#45;&gt;Node3</title>
<path fill="none" stroke="midnightblue" d="M358.33,-41.5C349.49,-44.09 339.99,-46.49 331,-48 277.23,-57.06 214.62,-58.58 172.15,-58.29"/>
<polygon fill="midnightblue" stroke="midnightblue" points="359.44,-44.82 367.97,-38.54 357.38,-38.13 359.44,-44.82"/>
</g>
<!-- Node7 -->
<g id="node7" class="node">
<title>Node7</title>
<g id="a_node7"><a xlink:href="_transmitter_code_2src_2main_8cpp.html#a984cb52354a84c45e9e41f396a1c5e92" target="_top" xlink:title=" ">
<polygon fill="white" stroke="black" points="73,-0.5 73,-19.5 170,-19.5 170,-0.5 73,-0.5"/>
<text text-anchor="middle" x="121.5" y="-7.5" font-family="Helvetica,sans-Serif" font-size="10.00">CheckModelName</text>
</a>
</g>
</g>
<!-- Node6&#45;&gt;Node7 -->
<g id="edge7" class="edge">
<title>Node6&#45;&gt;Node7</title>
<path fill="none" stroke="midnightblue" d="M358.86,-16.36C349.88,-13.73 340.18,-11.34 331,-10 276.38,-2 212.85,-3.53 170.4,-6.08"/>
<polygon fill="midnightblue" stroke="midnightblue" points="358.04,-19.77 368.63,-19.4 360.12,-13.09 358.04,-19.77"/>
</g>
<!-- Node8 -->
<g id="node8" class="node">
<title>Node8</title>
<g id="a_node8"><a xlink:href="_transmitter_code_2src_2main_8cpp.html#a463a07d516b046c17a66b486dbcacb68" target="_top" xlink:title=" ">
<polygon fill="white" stroke="black" points="208,-19.5 208,-38.5 331,-38.5 331,-19.5 208,-19.5"/>
<text text-anchor="middle" x="269.5" y="-26.5" font-family="Helvetica,sans-Serif" font-size="10.00">DoNumberedCommands</text>
</a>
</g>
</g>
<!-- Node6&#45;&gt;Node8 -->
<g id="edge9" class="edge">
<title>Node6&#45;&gt;Node8</title>
<path fill="none" stroke="midnightblue" d="M356.77,-29C348.67,-29 339.91,-29 331.19,-29"/>
<polygon fill="midnightblue" stroke="midnightblue" points="356.98,-32.5 366.98,-29 356.98,-25.5 356.98,-32.5"/>
</g>
<!-- Node7&#45;&gt;Node4 -->
<g id="edge8" class="edge">
<title>Node7&#45;&gt;Node4</title>
<path fill="none" stroke="midnightblue" d="M62.68,-20.77C52.63,-22.64 42.94,-24.45 35.21,-25.89"/>
<polygon fill="midnightblue" stroke="midnightblue" points="63.6,-24.16 72.79,-18.89 62.31,-17.28 63.6,-24.16"/>
</g>
<!-- Node8&#45;&gt;Node3 -->
<g id="edge10" class="edge">
<title>Node8&#45;&gt;Node3</title>
<path fill="none" stroke="midnightblue" d="M208.62,-40.48C196.48,-42.81 183.85,-45.23 172.11,-47.49"/>
<polygon fill="midnightblue" stroke="midnightblue" points="209.5,-43.88 218.66,-38.56 208.18,-37 209.5,-43.88"/>
</g>
</g>
</svg>
