<?xml version="1.0" encoding="UTF-8" standalone="no"?>
<!DOCTYPE svg PUBLIC "-//W3C//DTD SVG 1.1//EN"
 "http://www.w3.org/Graphics/SVG/1.1/DTD/svg11.dtd">
<!-- Generated by graphviz version 2.50.0 (20220203.2022)
 -->
<!-- Title: loop Pages: 1 -->
<svg width="753pt" height="1648pt"
 viewBox="0.00 0.00 753.00 1648.00" xmlns="http://www.w3.org/2000/svg" xmlns:xlink="http://www.w3.org/1999/xlink">
<g id="graph0" class="graph" transform="scale(1 1) rotate(0) translate(4 1644)">
<title>loop</title>
<polygon fill="white" stroke="transparent" points="-4,4 -4,-1644 749,-1644 749,4 -4,4"/>
<!-- Node1 -->
<g id="node1" class="node">
<title>Node1</title>
<g id="a_node1"><a xlink:title=" ">
<polygon fill="#bfbfbf" stroke="black" points="0,-266.5 0,-285.5 35,-285.5 35,-266.5 0,-266.5"/>
<text text-anchor="middle" x="17.5" y="-273.5" font-family="Helvetica,sans-Serif" font-size="10.00">loop</text>
</a>
</g>
</g>
<!-- Node2 -->
<g id="node2" class="node">
<title>Node2</title>
<g id="a_node2"><a xlink:href="_transmitter_code_2src_2main_8cpp.html#aed6c682ed45951f95e0b02cf6b570da2" target="_top" xlink:title=" ">
<polygon fill="white" stroke="red" points="71,-874.5 71,-893.5 179,-893.5 179,-874.5 71,-874.5"/>
<text text-anchor="middle" x="125" y="-881.5" font-family="Helvetica,sans-Serif" font-size="10.00">Button_was_pressed</text>
</a>
</g>
</g>
<!-- Node1&#45;&gt;Node2 -->
<g id="edge1" class="edge">
<title>Node1&#45;&gt;Node2</title>
<path fill="none" stroke="midnightblue" d="M20.16,-285.55C32.02,-353.93 104.06,-769.06 120.61,-864.47"/>
<polygon fill="midnightblue" stroke="midnightblue" points="117.19,-865.22 122.35,-874.47 124.09,-864.02 117.19,-865.22"/>
</g>
<!-- Node67 -->
<g id="node36" class="node">
<title>Node67</title>
<g id="a_node36"><a xlink:href="_transmitter_code_2src_2main_8cpp.html#ada95a00a341e4a80176eda743a94ab2e" target="_top" xlink:title=" ">
<polygon fill="white" stroke="black" points="369,-1577.5 369,-1596.5 439,-1596.5 439,-1577.5 369,-1577.5"/>
<text text-anchor="middle" x="404" y="-1584.5" font-family="Helvetica,sans-Serif" font-size="10.00">KickTheDog</text>
</a>
</g>
</g>
<!-- Node1&#45;&gt;Node67 -->
<g id="edge61" class="edge">
<title>Node1&#45;&gt;Node67</title>
<path fill="none" stroke="midnightblue" d="M18.52,-285.82C18.82,-403.71 22.94,-1543.81 71,-1594 150.08,-1676.58 305.88,-1627.01 372.07,-1600.48"/>
<polygon fill="midnightblue" stroke="midnightblue" points="373.61,-1603.63 381.54,-1596.6 370.96,-1597.16 373.61,-1603.63"/>
</g>
<!-- Node71 -->
<g id="node38" class="node">
<title>Node71</title>
<g id="a_node38"><a xlink:href="_radio_functions_8cpp.html#a70dc6f8d2e5ccef6b8e4a2b9b0afb2ce" target="_top" xlink:title=" ">
<polygon fill="white" stroke="black" points="370,-1330.5 370,-1349.5 438,-1349.5 438,-1330.5 370,-1330.5"/>
<text text-anchor="middle" x="404" y="-1337.5" font-family="Helvetica,sans-Serif" font-size="10.00">SetThePipe</text>
</a>
</g>
</g>
<!-- Node1&#45;&gt;Node71 -->
<g id="edge70" class="edge">
<title>Node1&#45;&gt;Node71</title>
<path fill="none" stroke="midnightblue" d="M18.55,-285.83C19.19,-401.44 26.45,-1498.89 71,-1549 142.79,-1629.74 223.85,-1633.04 313,-1572 385.13,-1522.61 399.46,-1406.35 402.3,-1359.79"/>
<polygon fill="midnightblue" stroke="midnightblue" points="405.81,-1359.7 402.8,-1349.54 398.82,-1359.35 405.81,-1359.7"/>
</g>
<!-- Node88 -->
<g id="node39" class="node">
<title>Node88</title>
<g id="a_node39"><a xlink:href="_transmitter_code_2src_2main_8cpp.html#ae1b8cef371d26fca2b4f5a101be7a8ba" target="_top" xlink:title=" ">
<polygon fill="white" stroke="red" points="83.5,-304.5 83.5,-323.5 166.5,-323.5 166.5,-304.5 83.5,-304.5"/>
<text text-anchor="middle" x="125" y="-311.5" font-family="Helvetica,sans-Serif" font-size="10.00">CalibrateSticks</text>
</a>
</g>
</g>
<!-- Node1&#45;&gt;Node88 -->
<g id="edge50" class="edge">
<title>Node1&#45;&gt;Node88</title>
<path fill="none" stroke="midnightblue" d="M35.05,-282C45.38,-285.75 58.96,-290.66 71,-295 76.35,-296.93 82,-298.96 87.54,-300.94"/>
<polygon fill="midnightblue" stroke="midnightblue" points="86.71,-304.37 97.3,-304.45 89.07,-297.78 86.71,-304.37"/>
</g>
<!-- Node93 -->
<g id="node40" class="node">
<title>Node93</title>
<g id="a_node40"><a xlink:href="_transmitter_code_2src_2main_8cpp.html#ad959eec03b0151ade81dc088593d816c" target="_top" xlink:title=" ">
<polygon fill="white" stroke="red" points="222,-228.5 222,-247.5 306,-247.5 306,-228.5 222,-228.5"/>
<text text-anchor="middle" x="264" y="-235.5" font-family="Helvetica,sans-Serif" font-size="10.00">ShowServoPos</text>
</a>
</g>
</g>
<!-- Node1&#45;&gt;Node93 -->
<g id="edge72" class="edge">
<title>Node1&#45;&gt;Node93</title>
<path fill="none" stroke="midnightblue" d="M23.77,-285.52C31.88,-299.05 48.82,-323.28 71,-333 114.96,-352.28 138.44,-358.67 179,-333 210.58,-313.01 187.72,-282.55 215,-257 216.65,-255.46 218.44,-254.03 220.32,-252.72"/>
<polygon fill="midnightblue" stroke="midnightblue" points="222.17,-255.69 229.07,-247.65 218.66,-249.64 222.17,-255.69"/>
</g>
<!-- Node95 -->
<g id="node41" class="node">
<title>Node95</title>
<g id="a_node41"><a xlink:href="_transmitter_code_2src_2main_8cpp.html#a0e7ca9043d8fa769e8a9290df885e594" target="_top" xlink:title="Get centre as 90 degrees.">
<polygon fill="white" stroke="red" points="82,-266.5 82,-285.5 168,-285.5 168,-266.5 82,-266.5"/>
<text text-anchor="middle" x="125" y="-273.5" font-family="Helvetica,sans-Serif" font-size="10.00">ChannelCentres</text>
</a>
</g>
</g>
<!-- Node1&#45;&gt;Node95 -->
<g id="edge52" class="edge">
<title>Node1&#45;&gt;Node95</title>
<path fill="none" stroke="midnightblue" d="M35.45,-276C45.29,-276 58.27,-276 71.25,-276"/>
<polygon fill="midnightblue" stroke="midnightblue" points="71.6,-279.5 81.59,-276 71.59,-272.5 71.6,-279.5"/>
</g>
<!-- Node96 -->
<g id="node42" class="node">
<title>Node96</title>
<g id="a_node42"><a xlink:href="_transmitter_code_2src_2main_8cpp.html#a984cb52354a84c45e9e41f396a1c5e92" target="_top" xlink:title=" ">
<polygon fill="white" stroke="red" points="76.5,-1520.5 76.5,-1539.5 173.5,-1539.5 173.5,-1520.5 76.5,-1520.5"/>
<text text-anchor="middle" x="125" y="-1527.5" font-family="Helvetica,sans-Serif" font-size="10.00">CheckModelName</text>
</a>
</g>
</g>
<!-- Node1&#45;&gt;Node96 -->
<g id="edge54" class="edge">
<title>Node1&#45;&gt;Node96</title>
<path fill="none" stroke="midnightblue" d="M19.3,-285.58C24.12,-343.37 49.85,-651.56 71,-903 91.12,-1142.18 115.75,-1432.67 122.32,-1510.2"/>
<polygon fill="midnightblue" stroke="midnightblue" points="118.86,-1510.76 123.19,-1520.42 125.83,-1510.16 118.86,-1510.76"/>
</g>
<!-- Node97 -->
<g id="node43" class="node">
<title>Node97</title>
<g id="a_node43"><a xlink:href="_transmitter_code_2src_2main_8cpp.html#acd96c3022716bba17005df2e6b3d0ed6" target="_top" xlink:title=" ">
<polygon fill="white" stroke="black" points="82,-228.5 82,-247.5 168,-247.5 168,-228.5 82,-228.5"/>
<text text-anchor="middle" x="125" y="-235.5" font-family="Helvetica,sans-Serif" font-size="10.00">GetButtonPress</text>
</a>
</g>
</g>
<!-- Node1&#45;&gt;Node97 -->
<g id="edge57" class="edge">
<title>Node1&#45;&gt;Node97</title>
<path fill="none" stroke="midnightblue" d="M35.05,-270C45.38,-266.25 58.96,-261.34 71,-257 76.35,-255.07 82,-253.04 87.54,-251.06"/>
<polygon fill="midnightblue" stroke="midnightblue" points="89.07,-254.22 97.3,-247.55 86.71,-247.63 89.07,-254.22"/>
</g>
<!-- Node98 -->
<g id="node44" class="node">
<title>Node98</title>
<g id="a_node44"><a xlink:href="_transmitter_code_2src_2main_8cpp.html#a1d43600764a34cbda9c2fa211a12ed2e" target="_top" xlink:title=" ">
<polygon fill="white" stroke="black" points="88,-190.5 88,-209.5 162,-209.5 162,-190.5 88,-190.5"/>
<text text-anchor="middle" x="125" y="-197.5" font-family="Helvetica,sans-Serif" font-size="10.00">GetStatistics</text>
</a>
</g>
</g>
<!-- Node1&#45;&gt;Node98 -->
<g id="edge58" class="edge">
<title>Node1&#45;&gt;Node98</title>
<path fill="none" stroke="midnightblue" d="M25.2,-266.18C34.25,-253.62 51.49,-231.93 71,-219 73.94,-217.05 77.11,-215.27 80.37,-213.66"/>
<polygon fill="midnightblue" stroke="midnightblue" points="82.01,-216.76 89.75,-209.53 79.19,-210.36 82.01,-216.76"/>
</g>
<!-- Node99 -->
<g id="node45" class="node">
<title>Node99</title>
<g id="a_node45"><a xlink:href="_transmitter_code_2src_2main_8cpp.html#a62e53eb9359c32b666e3386d62c57037" target="_top" xlink:title=" ">
<polygon fill="white" stroke="red" points="368,-95.5 368,-114.5 440,-114.5 440,-95.5 368,-95.5"/>
<text text-anchor="middle" x="404" y="-102.5" font-family="Helvetica,sans-Serif" font-size="10.00">GreenLedOn</text>
</a>
</g>
</g>
<!-- Node1&#45;&gt;Node99 -->
<g id="edge59" class="edge">
<title>Node1&#45;&gt;Node99</title>
<path fill="none" stroke="midnightblue" d="M19.27,-266.36C21.78,-242.03 31.96,-178 71,-148 93.31,-130.85 271.88,-115.04 357.51,-108.36"/>
<polygon fill="midnightblue" stroke="midnightblue" points="358.02,-111.83 367.72,-107.57 357.48,-104.85 358.02,-111.83"/>
</g>
<!-- Node100 -->
<g id="node46" class="node">
<title>Node100</title>
<g id="a_node46"><a xlink:href="_transmitter_code_2src_2main_8cpp.html#a2e38b32674344cfc06b09a71dfcaf3f1" target="_top" xlink:title=" ">
<polygon fill="white" stroke="red" points="495,-124.5 495,-143.5 620,-143.5 620,-124.5 495,-124.5"/>
<text text-anchor="middle" x="557.5" y="-131.5" font-family="Helvetica,sans-Serif" font-size="10.00">MakeBindButtonInvisible</text>
</a>
</g>
</g>
<!-- Node1&#45;&gt;Node100 -->
<g id="edge62" class="edge">
<title>Node1&#45;&gt;Node100</title>
<path fill="none" stroke="midnightblue" d="M20.64,-266.44C25.61,-246.65 39.97,-201.38 71,-181 137.28,-137.46 366.44,-132.47 484.68,-132.93"/>
<polygon fill="midnightblue" stroke="midnightblue" points="484.71,-136.43 494.73,-132.98 484.74,-129.43 484.71,-136.43"/>
</g>
<!-- Node101 -->
<g id="node47" class="node">
<title>Node101</title>
<g id="a_node47"><a xlink:href="_transmitter_code_2src_2main_8cpp.html#a483cced19b61975f76957f5696425fe9" target="_top" xlink:title=" ">
<polygon fill="white" stroke="red" points="94.5,-380.5 94.5,-399.5 155.5,-399.5 155.5,-380.5 94.5,-380.5"/>
<text text-anchor="middle" x="125" y="-387.5" font-family="Helvetica,sans-Serif" font-size="10.00">ReadTime</text>
</a>
</g>
</g>
<!-- Node1&#45;&gt;Node101 -->
<g id="edge63" class="edge">
<title>Node1&#45;&gt;Node101</title>
<path fill="none" stroke="midnightblue" d="M21.87,-285.7C28.57,-303.74 45.21,-342.74 71,-366 75.22,-369.81 80.14,-373.1 85.26,-375.92"/>
<polygon fill="midnightblue" stroke="midnightblue" points="84.04,-379.22 94.56,-380.49 87.13,-372.94 84.04,-379.22"/>
</g>
<!-- Node103 -->
<g id="node48" class="node">
<title>Node103</title>
<g id="a_node48"><a xlink:href="_radio_functions_8cpp.html#a3856ba0adae43d089f08c7b7f653b306" target="_top" xlink:title="This scans and displays result.">
<polygon fill="white" stroke="red" points="79.5,-0.5 79.5,-19.5 170.5,-19.5 170.5,-0.5 79.5,-0.5"/>
<text text-anchor="middle" x="125" y="-7.5" font-family="Helvetica,sans-Serif" font-size="10.00">ScanAllChannels</text>
</a>
</g>
</g>
<!-- Node1&#45;&gt;Node103 -->
<g id="edge65" class="edge">
<title>Node1&#45;&gt;Node103</title>
<path fill="none" stroke="midnightblue" d="M19.45,-266.29C23.55,-225.85 41.01,-71.12 71,-34 73.94,-30.37 77.54,-27.26 81.48,-24.62"/>
<polygon fill="midnightblue" stroke="midnightblue" points="83.51,-27.49 90.49,-19.52 80.07,-21.39 83.51,-27.49"/>
</g>
<!-- Node104 -->
<g id="node49" class="node">
<title>Node104</title>
<g id="a_node49"><a xlink:href="_radio_functions_8cpp.html#a3d7322e78f097d02d476f17a6306997c" target="_top" xlink:title=" ">
<polygon fill="white" stroke="red" points="95.5,-76.5 95.5,-95.5 154.5,-95.5 154.5,-76.5 95.5,-76.5"/>
<text text-anchor="middle" x="125" y="-83.5" font-family="Helvetica,sans-Serif" font-size="10.00">SendData</text>
</a>
</g>
</g>
<!-- Node1&#45;&gt;Node104 -->
<g id="edge66" class="edge">
<title>Node1&#45;&gt;Node104</title>
<path fill="none" stroke="midnightblue" d="M18.89,-266.45C20.53,-238.76 28.86,-157.47 71,-110 75.22,-105.24 80.58,-101.37 86.25,-98.24"/>
<polygon fill="midnightblue" stroke="midnightblue" points="87.8,-101.38 95.31,-93.91 84.78,-95.06 87.8,-101.38"/>
</g>
<!-- Node132 -->
<g id="node50" class="node">
<title>Node132</title>
<g id="a_node50"><a xlink:href="_transmitter_code_2src_2main_8cpp.html#a5d3a46c21927cf7a3031a1e68e0b7b48" target="_top" xlink:title="SHOW COMMS.">
<polygon fill="white" stroke="red" points="226.5,-38.5 226.5,-57.5 301.5,-57.5 301.5,-38.5 226.5,-38.5"/>
<text text-anchor="middle" x="264" y="-45.5" font-family="Helvetica,sans-Serif" font-size="10.00">ShowComms</text>
</a>
</g>
</g>
<!-- Node1&#45;&gt;Node132 -->
<g id="edge71" class="edge">
<title>Node1&#45;&gt;Node132</title>
<path fill="none" stroke="midnightblue" d="M19.47,-266.36C23.46,-228.91 39.84,-93.88 71,-67 110.69,-32.77 173.58,-33.29 216.49,-38.86"/>
<polygon fill="midnightblue" stroke="midnightblue" points="216,-42.33 226.4,-40.28 217,-35.4 216,-42.33"/>
</g>
<!-- Node3 -->
<g id="node3" class="node">
<title>Node3</title>
<g id="a_node3"><a xlink:href="_transmitter_code_2src_2main_8cpp.html#aa1f9aec467eb00917ad9ffdc0bd5b20d" target="_top" xlink:title=" ">
<polygon fill="white" stroke="red" points="231.5,-1216.5 231.5,-1235.5 296.5,-1235.5 296.5,-1216.5 231.5,-1216.5"/>
<text text-anchor="middle" x="264" y="-1223.5" font-family="Helvetica,sans-Serif" font-size="10.00">BlueLedOn</text>
</a>
</g>
</g>
<!-- Node2&#45;&gt;Node3 -->
<g id="edge2" class="edge">
<title>Node2&#45;&gt;Node3</title>
<path fill="none" stroke="midnightblue" d="M125.74,-893.62C125.12,-936.24 128.17,-1110.25 215,-1207 217.21,-1209.47 219.79,-1211.62 222.58,-1213.49"/>
<polygon fill="midnightblue" stroke="midnightblue" points="220.98,-1216.61 231.43,-1218.33 224.33,-1210.46 220.98,-1216.61"/>
</g>
<!-- Node5 -->
<g id="node4" class="node">
<title>Node5</title>
<g id="a_node4"><a xlink:href="_transmitter_code_2src_2main_8cpp.html#affc6c0de18db71aa5ad8b4d241339731" target="_top" xlink:title=" ">
<polygon fill="white" stroke="red" points="365.5,-1102.5 365.5,-1121.5 442.5,-1121.5 442.5,-1102.5 365.5,-1102.5"/>
<text text-anchor="middle" x="404" y="-1109.5" font-family="Helvetica,sans-Serif" font-size="10.00">BuildDirectory</text>
</a>
</g>
</g>
<!-- Node2&#45;&gt;Node5 -->
<g id="edge3" class="edge">
<title>Node2&#45;&gt;Node5</title>
<path fill="none" stroke="midnightblue" d="M126.95,-893.72C130.77,-927.13 148.21,-1037.94 215,-1088 255.17,-1118.11 314.24,-1120.85 355.4,-1118.16"/>
<polygon fill="midnightblue" stroke="midnightblue" points="355.77,-1121.64 365.46,-1117.37 355.22,-1114.66 355.77,-1121.64"/>
</g>
<!-- Node6 -->
<g id="node5" class="node">
<title>Node6</title>
<g id="a_node5"><a xlink:href="_transmitter_code_2src_2main_8cpp.html#a535cbca5c4743cf3ffe444846d21113e" target="_top" xlink:title=" ">
<polygon fill="white" stroke="black" points="533.5,-1074.5 533.5,-1093.5 581.5,-1093.5 581.5,-1074.5 533.5,-1074.5"/>
<text text-anchor="middle" x="557.5" y="-1081.5" font-family="Helvetica,sans-Serif" font-size="10.00">InStrng</text>
</a>
</g>
</g>
<!-- Node2&#45;&gt;Node6 -->
<g id="edge33" class="edge">
<title>Node2&#45;&gt;Node6</title>
<path fill="none" stroke="midnightblue" d="M128.34,-893.7C135.66,-921.66 160.86,-1002.73 215,-1039 264.96,-1072.47 447.18,-1081.12 523.02,-1083.3"/>
<polygon fill="midnightblue" stroke="midnightblue" points="523.32,-1086.81 533.41,-1083.57 523.51,-1079.81 523.32,-1086.81"/>
</g>
<!-- Node8 -->
<g id="node6" class="node">
<title>Node8</title>
<g id="a_node6"><a xlink:href="_transmitter_code_2src_2main_8cpp.html#a722d74e72a1a749c6b215e982657c618" target="_top" xlink:title=" ">
<polygon fill="white" stroke="black" points="222,-722.5 222,-741.5 306,-741.5 306,-722.5 222,-722.5"/>
<text text-anchor="middle" x="264" y="-729.5" font-family="Helvetica,sans-Serif" font-size="10.00">CentreMaxMins</text>
</a>
</g>
</g>
<!-- Node2&#45;&gt;Node8 -->
<g id="edge5" class="edge">
<title>Node2&#45;&gt;Node8</title>
<path fill="none" stroke="midnightblue" d="M130.06,-874.17C140.57,-849.92 170.89,-786.59 215,-751 217.04,-749.35 219.25,-747.83 221.55,-746.43"/>
<polygon fill="midnightblue" stroke="midnightblue" points="223.54,-749.34 230.78,-741.61 220.3,-743.14 223.54,-749.34"/>
</g>
<!-- Node9 -->
<g id="node7" class="node">
<title>Node9</title>
<g id="a_node7"><a xlink:href="_transmitter_code_2src_2main_8cpp.html#a962a0c149ba58563ca3bad19e999e027" target="_top" xlink:title=" ">
<polygon fill="white" stroke="black" points="215,-684.5 215,-703.5 313,-703.5 313,-684.5 215,-684.5"/>
<text text-anchor="middle" x="264" y="-691.5" font-family="Helvetica,sans-Serif" font-size="10.00">CheckRange_0_16</text>
</a>
</g>
</g>
<!-- Node2&#45;&gt;Node9 -->
<g id="edge6" class="edge">
<title>Node2&#45;&gt;Node9</title>
<path fill="none" stroke="midnightblue" d="M128.42,-874.39C136.1,-845.79 162.56,-760.3 215,-713 216.73,-711.44 218.6,-710 220.57,-708.67"/>
<polygon fill="midnightblue" stroke="midnightblue" points="222.69,-711.5 229.69,-703.55 219.26,-705.4 222.69,-711.5"/>
</g>
<!-- Node10 -->
<g id="node8" class="node">
<title>Node10</title>
<g id="a_node8"><a xlink:href="_transmitter_code_2src_2main_8cpp.html#af0852678d8e89501acee8951f09d3b43" target="_top" xlink:title=" ">
<polygon fill="white" stroke="black" points="235,-646.5 235,-665.5 293,-665.5 293,-646.5 235,-646.5"/>
<text text-anchor="middle" x="264" y="-653.5" font-family="Helvetica,sans-Serif" font-size="10.00">ClearText</text>
</a>
</g>
</g>
<!-- Node2&#45;&gt;Node10 -->
<g id="edge7" class="edge">
<title>Node2&#45;&gt;Node10</title>
<path fill="none" stroke="midnightblue" d="M127.44,-874.19C132.78,-841.37 154.28,-734.18 215,-675 218.1,-671.97 221.75,-669.41 225.62,-667.25"/>
<polygon fill="midnightblue" stroke="midnightblue" points="227.35,-670.31 234.91,-662.89 224.37,-663.97 227.35,-670.31"/>
</g>
<!-- Node11 -->
<g id="node9" class="node">
<title>Node11</title>
<g id="a_node9"><a xlink:href="_transmitter_code_2src_2main_8cpp.html#a6922974b734cfe3a511e074a2d6ac33c" target="_top" xlink:title=" ">
<polygon fill="white" stroke="black" points="656,-1178.5 656,-1197.5 745,-1197.5 745,-1178.5 656,-1178.5"/>
<text text-anchor="middle" x="700.5" y="-1185.5" font-family="Helvetica,sans-Serif" font-size="10.00">CloseModelsFile</text>
</a>
</g>
</g>
<!-- Node2&#45;&gt;Node11 -->
<g id="edge8" class="edge">
<title>Node2&#45;&gt;Node11</title>
<path fill="none" stroke="midnightblue" d="M125.84,-893.64C124.89,-963.67 122.88,-1393.75 215,-1473 381.33,-1616.09 629.21,-1288.01 687.1,-1206"/>
<polygon fill="midnightblue" stroke="midnightblue" points="690.07,-1207.86 692.93,-1197.66 684.34,-1203.85 690.07,-1207.86"/>
</g>
<!-- Node12 -->
<g id="node10" class="node">
<title>Node12</title>
<g id="a_node10"><a xlink:href="_transmitter_code_2src_2main_8cpp.html#ac00389a3b76e3ced4517c6ad4147e86a" target="_top" xlink:title=" ">
<polygon fill="white" stroke="red" points="237,-608.5 237,-627.5 291,-627.5 291,-608.5 237,-608.5"/>
<text text-anchor="middle" x="264" y="-615.5" font-family="Helvetica,sans-Serif" font-size="10.00">DecDate</text>
</a>
</g>
</g>
<!-- Node2&#45;&gt;Node12 -->
<g id="edge9" class="edge">
<title>Node2&#45;&gt;Node12</title>
<path fill="none" stroke="midnightblue" d="M126.73,-874C129.93,-837.29 145.84,-708.35 215,-637 218.48,-633.41 222.73,-630.48 227.24,-628.1"/>
<polygon fill="midnightblue" stroke="midnightblue" points="228.96,-631.16 236.71,-623.93 226.14,-624.75 228.96,-631.16"/>
</g>
<!-- Node17 -->
<g id="node11" class="node">
<title>Node17</title>
<g id="a_node11"><a xlink:href="_transmitter_code_2src_2main_8cpp.html#a053bee2e90b7d0bacffe990847973d4a" target="_top" xlink:title=" ">
<polygon fill="white" stroke="red" points="236.5,-570.5 236.5,-589.5 291.5,-589.5 291.5,-570.5 236.5,-570.5"/>
<text text-anchor="middle" x="264" y="-577.5" font-family="Helvetica,sans-Serif" font-size="10.00">DecHour</text>
</a>
</g>
</g>
<!-- Node2&#45;&gt;Node17 -->
<g id="edge10" class="edge">
<title>Node2&#45;&gt;Node17</title>
<path fill="none" stroke="midnightblue" d="M126.16,-874.45C127.32,-835.04 136.88,-683.14 215,-599 218.33,-595.41 222.43,-592.49 226.81,-590.11"/>
<polygon fill="midnightblue" stroke="midnightblue" points="228.36,-593.25 236.05,-585.96 225.49,-586.87 228.36,-593.25"/>
</g>
<!-- Node18 -->
<g id="node12" class="node">
<title>Node18</title>
<g id="a_node12"><a xlink:href="_transmitter_code_2src_2main_8cpp.html#a87fe692c91177cb3eddffaae43ad6d4d" target="_top" xlink:title=" ">
<polygon fill="white" stroke="red" points="232.5,-532.5 232.5,-551.5 295.5,-551.5 295.5,-532.5 232.5,-532.5"/>
<text text-anchor="middle" x="264" y="-539.5" font-family="Helvetica,sans-Serif" font-size="10.00">DecMinute</text>
</a>
</g>
</g>
<!-- Node2&#45;&gt;Node18 -->
<g id="edge11" class="edge">
<title>Node2&#45;&gt;Node18</title>
<path fill="none" stroke="midnightblue" d="M125.74,-874.38C125.12,-831.76 128.17,-657.75 215,-561 217.41,-558.32 220.24,-556.01 223.31,-554.02"/>
<polygon fill="midnightblue" stroke="midnightblue" points="225.2,-556.99 232.42,-549.24 221.94,-550.79 225.2,-556.99"/>
</g>
<!-- Node19 -->
<g id="node13" class="node">
<title>Node19</title>
<g id="a_node13"><a xlink:href="_transmitter_code_2src_2main_8cpp.html#a8a749ad1678f2de577b502dfb95400dd" target="_top" xlink:title=" ">
<polygon fill="white" stroke="red" points="233.5,-494.5 233.5,-513.5 294.5,-513.5 294.5,-494.5 233.5,-494.5"/>
<text text-anchor="middle" x="264" y="-501.5" font-family="Helvetica,sans-Serif" font-size="10.00">DecMonth</text>
</a>
</g>
</g>
<!-- Node2&#45;&gt;Node19 -->
<g id="edge12" class="edge">
<title>Node2&#45;&gt;Node19</title>
<path fill="none" stroke="midnightblue" d="M127.18,-874.32C133.67,-822.54 166.49,-578.55 215,-523 217.64,-519.97 220.83,-517.42 224.3,-515.28"/>
<polygon fill="midnightblue" stroke="midnightblue" points="225.96,-518.36 233.32,-510.73 222.81,-512.1 225.96,-518.36"/>
</g>
<!-- Node20 -->
<g id="node14" class="node">
<title>Node20</title>
<g id="a_node14"><a xlink:href="_transmitter_code_2src_2main_8cpp.html#ad712237b8d367326a7f460181dade102" target="_top" xlink:title=" ">
<polygon fill="white" stroke="red" points="237,-456.5 237,-475.5 291,-475.5 291,-456.5 237,-456.5"/>
<text text-anchor="middle" x="264" y="-463.5" font-family="Helvetica,sans-Serif" font-size="10.00">DecYear</text>
</a>
</g>
</g>
<!-- Node2&#45;&gt;Node20 -->
<g id="edge13" class="edge">
<title>Node2&#45;&gt;Node20</title>
<path fill="none" stroke="midnightblue" d="M126.93,-874.41C132.4,-819.68 162,-547.07 215,-485 218.4,-481.01 222.76,-477.86 227.45,-475.36"/>
<polygon fill="midnightblue" stroke="midnightblue" points="228.96,-478.52 236.73,-471.32 226.17,-472.1 228.96,-478.52"/>
</g>
<!-- Node21 -->
<g id="node15" class="node">
<title>Node21</title>
<g id="a_node15"><a xlink:href="_transmitter_code_2src_2main_8cpp.html#af941d3a33327b2cee79e058ba9cd65f6" target="_top" xlink:title=" ">
<polygon fill="white" stroke="red" points="367,-399.5 367,-418.5 441,-418.5 441,-399.5 367,-399.5"/>
<text text-anchor="middle" x="404" y="-406.5" font-family="Helvetica,sans-Serif" font-size="10.00">DisplayCurve</text>
</a>
</g>
</g>
<!-- Node2&#45;&gt;Node21 -->
<g id="edge14" class="edge">
<title>Node2&#45;&gt;Node21</title>
<path fill="none" stroke="midnightblue" d="M126.55,-874.5C130.08,-816.48 151.58,-510.32 215,-447 234.52,-427.51 307.55,-417.33 356.63,-412.57"/>
<polygon fill="midnightblue" stroke="midnightblue" points="357.07,-416.04 366.71,-411.64 356.43,-409.07 357.07,-416.04"/>
</g>
<!-- Node33 -->
<g id="node16" class="node">
<title>Node33</title>
<g id="a_node16"><a xlink:href="_transmitter_code_2src_2main_8cpp.html#aba44d61ea51411cb5c601beb94b6fef4" target="_top" xlink:title=" ">
<polygon fill="white" stroke="black" points="349,-1026.5 349,-1045.5 459,-1045.5 459,-1026.5 349,-1026.5"/>
<text text-anchor="middle" x="404" y="-1033.5" font-family="Helvetica,sans-Serif" font-size="10.00">DoNewChannelName</text>
</a>
</g>
</g>
<!-- Node2&#45;&gt;Node33 -->
<g id="edge15" class="edge">
<title>Node2&#45;&gt;Node33</title>
<path fill="none" stroke="midnightblue" d="M129.54,-893.79C139.03,-918.46 167.56,-983.23 215,-1012 251.93,-1034.4 300.42,-1040.13 338.9,-1040.41"/>
<polygon fill="midnightblue" stroke="midnightblue" points="338.98,-1043.91 348.96,-1040.36 338.95,-1036.91 338.98,-1043.91"/>
</g>
<!-- Node34 -->
<g id="node17" class="node">
<title>Node34</title>
<g id="a_node17"><a xlink:href="_transmitter_code_2src_2main_8cpp.html#a6717bc5d0d10c1fb5379fc2d0d8c10fb" target="_top" xlink:title=" ">
<polygon fill="white" stroke="red" points="516,-988.5 516,-1007.5 599,-1007.5 599,-988.5 516,-988.5"/>
<text text-anchor="middle" x="557.5" y="-995.5" font-family="Helvetica,sans-Serif" font-size="10.00">SaveOneModel</text>
</a>
</g>
</g>
<!-- Node2&#45;&gt;Node34 -->
<g id="edge49" class="edge">
<title>Node2&#45;&gt;Node34</title>
<path fill="none" stroke="midnightblue" d="M133.3,-893.71C147.07,-911.22 178.8,-947.75 215,-964 310.78,-1006.98 436.5,-1006.9 505.56,-1002.68"/>
<polygon fill="midnightblue" stroke="midnightblue" points="506,-1006.16 515.74,-1002 505.53,-999.17 506,-1006.16"/>
</g>
<!-- Node35 -->
<g id="node18" class="node">
<title>Node35</title>
<g id="a_node18"><a xlink:href="_transmitter_code_2src_2main_8cpp.html#ae7618f38a148877bc5681be58cba8354" target="_top" xlink:title=" ">
<polygon fill="white" stroke="black" points="657,-969.5 657,-988.5 744,-988.5 744,-969.5 657,-969.5"/>
<text text-anchor="middle" x="700.5" y="-976.5" font-family="Helvetica,sans-Serif" font-size="10.00">OpenModelsFile</text>
</a>
</g>
</g>
<!-- Node2&#45;&gt;Node35 -->
<g id="edge36" class="edge">
<title>Node2&#45;&gt;Node35</title>
<path fill="none" stroke="midnightblue" d="M162.1,-874.49C178.17,-870.73 197.4,-866.86 215,-865 258.31,-860.43 269.89,-858.78 313,-865 447.68,-884.45 600.83,-940.16 666.63,-965.8"/>
<polygon fill="midnightblue" stroke="midnightblue" points="665.47,-969.1 676.06,-969.5 668.03,-962.59 665.47,-969.1"/>
</g>
<!-- Node38 -->
<g id="node19" class="node">
<title>Node38</title>
<g id="a_node19"><a xlink:href="_radio_functions_8cpp.html#a31fb6a46af68482e107cddee58dfb677" target="_top" xlink:title=" ">
<polygon fill="white" stroke="red" points="230,-342.5 230,-361.5 298,-361.5 298,-342.5 230,-342.5"/>
<text text-anchor="middle" x="264" y="-349.5" font-family="Helvetica,sans-Serif" font-size="10.00">DoScanEnd</text>
</a>
</g>
</g>
<!-- Node2&#45;&gt;Node38 -->
<g id="edge19" class="edge">
<title>Node2&#45;&gt;Node38</title>
<path fill="none" stroke="midnightblue" d="M126.42,-874.3C129.33,-810.64 148.55,-452.7 215,-371 216.68,-368.93 218.62,-367.09 220.74,-365.44"/>
<polygon fill="midnightblue" stroke="midnightblue" points="222.87,-368.24 229.58,-360.04 219.22,-362.27 222.87,-368.24"/>
</g>
<!-- Node39 -->
<g id="node20" class="node">
<title>Node39</title>
<g id="a_node20"><a xlink:href="_radio_functions_8cpp.html#a77c4a4ffa609df08830ccece07bf283b" target="_top" xlink:title=" ">
<polygon fill="white" stroke="red" points="231.5,-304.5 231.5,-323.5 296.5,-323.5 296.5,-304.5 231.5,-304.5"/>
<text text-anchor="middle" x="264" y="-311.5" font-family="Helvetica,sans-Serif" font-size="10.00">DoScanInit</text>
</a>
</g>
</g>
<!-- Node2&#45;&gt;Node39 -->
<g id="edge20" class="edge">
<title>Node2&#45;&gt;Node39</title>
<path fill="none" stroke="midnightblue" d="M126.29,-874.45C128.43,-808.55 143.98,-421.37 215,-333 217.08,-330.42 219.56,-328.18 222.28,-326.25"/>
<polygon fill="midnightblue" stroke="midnightblue" points="224.03,-329.28 231.01,-321.32 220.58,-323.19 224.03,-329.28"/>
</g>
<!-- Node40 -->
<g id="node21" class="node">
<title>Node40</title>
<g id="a_node21"><a xlink:href="_transmitter_code_2src_2main_8cpp.html#a6bdc6419b47dda71d0d2c8faf652adc2" target="_top" xlink:title=" ">
<polygon fill="white" stroke="red" points="225.5,-1444.5 225.5,-1463.5 302.5,-1463.5 302.5,-1444.5 225.5,-1444.5"/>
<text text-anchor="middle" x="264" y="-1451.5" font-family="Helvetica,sans-Serif" font-size="10.00">DrawFhssBox</text>
</a>
</g>
</g>
<!-- Node2&#45;&gt;Node40 -->
<g id="edge21" class="edge">
<title>Node2&#45;&gt;Node40</title>
<path fill="none" stroke="midnightblue" d="M126.29,-893.55C128.43,-959.45 143.98,-1346.63 215,-1435 215.98,-1436.22 217.06,-1437.37 218.2,-1438.44"/>
<polygon fill="midnightblue" stroke="midnightblue" points="216.48,-1441.51 226.64,-1444.49 220.56,-1435.82 216.48,-1441.51"/>
</g>
<!-- Node42 -->
<g id="node22" class="node">
<title>Node42</title>
<g id="a_node22"><a xlink:href="_receiver_code_2src_2main_8cpp.html#a42318598726782ebb2e1857f167c8cda" target="_top" xlink:title=" ">
<polygon fill="white" stroke="red" points="237.5,-1406.5 237.5,-1425.5 290.5,-1425.5 290.5,-1406.5 237.5,-1406.5"/>
<text text-anchor="middle" x="264" y="-1413.5" font-family="Helvetica,sans-Serif" font-size="10.00">FailSafe</text>
</a>
</g>
</g>
<!-- Node2&#45;&gt;Node42 -->
<g id="edge22" class="edge">
<title>Node2&#45;&gt;Node42</title>
<path fill="none" stroke="midnightblue" d="M126.42,-893.7C129.33,-957.36 148.55,-1315.3 215,-1397 218.41,-1401.19 222.88,-1404.47 227.72,-1407.02"/>
<polygon fill="midnightblue" stroke="midnightblue" points="226.73,-1410.4 237.3,-1411.09 229.47,-1403.96 226.73,-1410.4"/>
</g>
<!-- Node47 -->
<g id="node23" class="node">
<title>Node47</title>
<g id="a_node23"><a xlink:href="_transmitter_code_2src_2main_8cpp.html#a493eeacfcf61a53db5933a893f7d94a6" target="_top" xlink:title=" ">
<polygon fill="white" stroke="black" points="217.5,-266.5 217.5,-285.5 310.5,-285.5 310.5,-266.5 217.5,-266.5"/>
<text text-anchor="middle" x="264" y="-273.5" font-family="Helvetica,sans-Serif" font-size="10.00">FixDeltaGMTSign</text>
</a>
</g>
</g>
<!-- Node2&#45;&gt;Node47 -->
<g id="edge23" class="edge">
<title>Node2&#45;&gt;Node47</title>
<path fill="none" stroke="midnightblue" d="M126.89,-874.19C133.61,-801.08 177.1,-342.65 215,-295 215.94,-293.82 216.97,-292.71 218.06,-291.66"/>
<polygon fill="midnightblue" stroke="midnightblue" points="220.14,-294.48 226.13,-285.75 216,-288.84 220.14,-294.48"/>
</g>
<!-- Node48 -->
<g id="node24" class="node">
<title>Node48</title>
<g id="a_node24"><a xlink:href="_transmitter_code_2src_2main_8cpp.html#aa1e81e58421a34fdfd7bfb31925f5a90" target="_top" xlink:title=" ">
<polygon fill="white" stroke="black" points="219,-1368.5 219,-1387.5 309,-1387.5 309,-1368.5 219,-1368.5"/>
<text text-anchor="middle" x="264" y="-1375.5" font-family="Helvetica,sans-Serif" font-size="10.00">Force_ReDisplay</text>
</a>
</g>
</g>
<!-- Node2&#45;&gt;Node48 -->
<g id="edge24" class="edge">
<title>Node2&#45;&gt;Node48</title>
<path fill="none" stroke="midnightblue" d="M126.57,-893.76C130.3,-954.81 153.08,-1283.91 215,-1359 216,-1360.21 217.08,-1361.34 218.24,-1362.41"/>
<polygon fill="midnightblue" stroke="midnightblue" points="216.55,-1365.5 226.73,-1368.42 220.6,-1359.78 216.55,-1365.5"/>
</g>
<!-- Node49 -->
<g id="node25" class="node">
<title>Node49</title>
<g id="a_node25"><a xlink:href="_transmitter_code_2src_2main_8cpp.html#aeb87480505eb543d9a7d85f7b15bd563" target="_top" xlink:title="Discover which channel to setup.">
<polygon fill="white" stroke="black" points="230,-1330.5 230,-1349.5 298,-1349.5 298,-1330.5 230,-1330.5"/>
<text text-anchor="middle" x="264" y="-1337.5" font-family="Helvetica,sans-Serif" font-size="10.00">GetChannel</text>
</a>
</g>
</g>
<!-- Node2&#45;&gt;Node49 -->
<g id="edge25" class="edge">
<title>Node2&#45;&gt;Node49</title>
<path fill="none" stroke="midnightblue" d="M126.74,-893.73C131.32,-951.8 157.57,-1252.45 215,-1321 216.71,-1323.04 218.68,-1324.87 220.81,-1326.5"/>
<polygon fill="midnightblue" stroke="midnightblue" points="219.32,-1329.69 229.69,-1331.87 222.94,-1323.7 219.32,-1329.69"/>
</g>
<!-- Node50 -->
<g id="node26" class="node">
<title>Node50</title>
<g id="a_node26"><a xlink:href="_transmitter_code_2src_2main_8cpp.html#a5b456468ac6be5e872b327e0d03a9f7a" target="_top" xlink:title=" ">
<polygon fill="white" stroke="black" points="220.5,-1292.5 220.5,-1311.5 307.5,-1311.5 307.5,-1292.5 220.5,-1292.5"/>
<text text-anchor="middle" x="264" y="-1299.5" font-family="Helvetica,sans-Serif" font-size="10.00">GetNextNumber</text>
</a>
</g>
</g>
<!-- Node2&#45;&gt;Node50 -->
<g id="edge26" class="edge">
<title>Node2&#45;&gt;Node50</title>
<path fill="none" stroke="midnightblue" d="M126.93,-893.59C132.4,-948.32 162,-1220.93 215,-1283 216.02,-1284.19 217.12,-1285.31 218.29,-1286.36"/>
<polygon fill="midnightblue" stroke="midnightblue" points="216.65,-1289.48 226.85,-1292.32 220.65,-1283.73 216.65,-1289.48"/>
</g>
<!-- Node51 -->
<g id="node27" class="node">
<title>Node51</title>
<g id="a_node27"><a xlink:href="_transmitter_code_2src_2main_8cpp.html#ad957c44f88874b35bd11323a86408e59" target="_top" xlink:title=" ">
<polygon fill="white" stroke="red" points="235.5,-1520.5 235.5,-1539.5 292.5,-1539.5 292.5,-1520.5 235.5,-1520.5"/>
<text text-anchor="middle" x="264" y="-1527.5" font-family="Helvetica,sans-Serif" font-size="10.00">GetValue</text>
</a>
</g>
</g>
<!-- Node2&#45;&gt;Node51 -->
<g id="edge27" class="edge">
<title>Node2&#45;&gt;Node51</title>
<path fill="none" stroke="midnightblue" d="M126.19,-893.77C127.7,-964.8 140.04,-1402.03 215,-1506 218.05,-1510.24 222.07,-1513.77 226.49,-1516.7"/>
<polygon fill="midnightblue" stroke="midnightblue" points="224.88,-1519.81 235.31,-1521.63 228.29,-1513.7 224.88,-1519.81"/>
</g>
<!-- Node54 -->
<g id="node28" class="node">
<title>Node54</title>
<g id="a_node28"><a xlink:href="_transmitter_code_2src_2main_8cpp.html#ac3f1d629a53f2b8bb9aa5bdc2b0a730d" target="_top" xlink:title=" ">
<polygon fill="white" stroke="red" points="239,-1254.5 239,-1273.5 289,-1273.5 289,-1254.5 239,-1254.5"/>
<text text-anchor="middle" x="264" y="-1261.5" font-family="Helvetica,sans-Serif" font-size="10.00">IncDate</text>
</a>
</g>
</g>
<!-- Node2&#45;&gt;Node54 -->
<g id="edge28" class="edge">
<title>Node2&#45;&gt;Node54</title>
<path fill="none" stroke="midnightblue" d="M127.18,-893.68C133.67,-945.46 166.49,-1189.45 215,-1245 218.93,-1249.5 224.06,-1252.94 229.51,-1255.57"/>
<polygon fill="midnightblue" stroke="midnightblue" points="228.23,-1258.83 238.81,-1259.28 230.82,-1252.33 228.23,-1258.83"/>
</g>
<!-- Node55 -->
<g id="node29" class="node">
<title>Node55</title>
<g id="a_node29"><a xlink:href="_transmitter_code_2src_2main_8cpp.html#aee918002ab8f85e66499b048b6ce722b" target="_top" xlink:title=" ">
<polygon fill="white" stroke="red" points="238.5,-912.5 238.5,-931.5 289.5,-931.5 289.5,-912.5 238.5,-912.5"/>
<text text-anchor="middle" x="264" y="-919.5" font-family="Helvetica,sans-Serif" font-size="10.00">IncHour</text>
</a>
</g>
</g>
<!-- Node2&#45;&gt;Node55 -->
<g id="edge29" class="edge">
<title>Node2&#45;&gt;Node55</title>
<path fill="none" stroke="midnightblue" d="M160.57,-893.59C181.42,-899.37 207.87,-906.71 228.67,-912.48"/>
<polygon fill="midnightblue" stroke="midnightblue" points="227.81,-915.87 238.38,-915.17 229.68,-909.13 227.81,-915.87"/>
</g>
<!-- Node56 -->
<g id="node30" class="node">
<title>Node56</title>
<g id="a_node30"><a xlink:href="_transmitter_code_2src_2main_8cpp.html#a7db4bbbc2d6fc9114c7758525fa4c088" target="_top" xlink:title=" ">
<polygon fill="white" stroke="red" points="234.5,-874.5 234.5,-893.5 293.5,-893.5 293.5,-874.5 234.5,-874.5"/>
<text text-anchor="middle" x="264" y="-881.5" font-family="Helvetica,sans-Serif" font-size="10.00">IncMinute</text>
</a>
</g>
</g>
<!-- Node2&#45;&gt;Node56 -->
<g id="edge30" class="edge">
<title>Node2&#45;&gt;Node56</title>
<path fill="none" stroke="midnightblue" d="M179.36,-884C194.33,-884 210.31,-884 224.25,-884"/>
<polygon fill="midnightblue" stroke="midnightblue" points="224.47,-887.5 234.47,-884 224.47,-880.5 224.47,-887.5"/>
</g>
<!-- Node57 -->
<g id="node31" class="node">
<title>Node57</title>
<g id="a_node31"><a xlink:href="_transmitter_code_2src_2main_8cpp.html#ac6e0db167f018387da880dd95ab198e7" target="_top" xlink:title=" ">
<polygon fill="white" stroke="red" points="235.5,-798.5 235.5,-817.5 292.5,-817.5 292.5,-798.5 235.5,-798.5"/>
<text text-anchor="middle" x="264" y="-805.5" font-family="Helvetica,sans-Serif" font-size="10.00">IncMonth</text>
</a>
</g>
</g>
<!-- Node2&#45;&gt;Node57 -->
<g id="edge31" class="edge">
<title>Node2&#45;&gt;Node57</title>
<path fill="none" stroke="midnightblue" d="M141.58,-874.48C159.21,-863.81 188.88,-846.14 215,-832 221.17,-828.66 227.85,-825.21 234.22,-822.01"/>
<polygon fill="midnightblue" stroke="midnightblue" points="235.84,-825.11 243.23,-817.52 232.72,-818.84 235.84,-825.11"/>
</g>
<!-- Node58 -->
<g id="node32" class="node">
<title>Node58</title>
<g id="a_node32"><a xlink:href="_transmitter_code_2src_2main_8cpp.html#a30a6637e60923c45a28bdfb938903207" target="_top" xlink:title=" ">
<polygon fill="white" stroke="red" points="239,-760.5 239,-779.5 289,-779.5 289,-760.5 239,-760.5"/>
<text text-anchor="middle" x="264" y="-767.5" font-family="Helvetica,sans-Serif" font-size="10.00">IncYear</text>
</a>
</g>
</g>
<!-- Node2&#45;&gt;Node58 -->
<g id="edge32" class="edge">
<title>Node2&#45;&gt;Node58</title>
<path fill="none" stroke="midnightblue" d="M132.75,-874.32C146.33,-855.5 178.75,-813.66 215,-789 219.33,-786.05 224.19,-783.46 229.11,-781.21"/>
<polygon fill="midnightblue" stroke="midnightblue" points="230.62,-784.37 238.52,-777.32 227.95,-777.91 230.62,-784.37"/>
</g>
<!-- Node59 -->
<g id="node33" class="node">
<title>Node59</title>
<g id="a_node33"><a xlink:href="_transmitter_code_2src_2main_8cpp.html#aad727ec0b0f9f34487a535eaa4a83172" target="_top" xlink:title="moves point very close to where user hit screen">
<polygon fill="white" stroke="red" points="232.5,-380.5 232.5,-399.5 295.5,-399.5 295.5,-380.5 232.5,-380.5"/>
<text text-anchor="middle" x="264" y="-387.5" font-family="Helvetica,sans-Serif" font-size="10.00">MovePoint</text>
</a>
</g>
</g>
<!-- Node2&#45;&gt;Node59 -->
<g id="edge34" class="edge">
<title>Node2&#45;&gt;Node59</title>
<path fill="none" stroke="midnightblue" d="M126.67,-874.41C131.01,-814.42 156.92,-490.86 215,-414 217.59,-410.57 220.81,-407.6 224.34,-405.03"/>
<polygon fill="midnightblue" stroke="midnightblue" points="226.29,-407.94 233,-399.74 222.64,-401.96 226.29,-407.94"/>
</g>
<!-- Node61 -->
<g id="node34" class="node">
<title>Node61</title>
<g id="a_node34"><a xlink:href="_transmitter_code_2src_2main_8cpp.html#a3d9d955a8c7cfea4cc99e78f3746bd26" target="_top" xlink:title=" ">
<polygon fill="white" stroke="red" points="362.5,-1140.5 362.5,-1159.5 445.5,-1159.5 445.5,-1140.5 362.5,-1140.5"/>
<text text-anchor="middle" x="404" y="-1147.5" font-family="Helvetica,sans-Serif" font-size="10.00">ReadOneModel</text>
</a>
</g>
</g>
<!-- Node2&#45;&gt;Node61 -->
<g id="edge37" class="edge">
<title>Node2&#45;&gt;Node61</title>
<path fill="none" stroke="midnightblue" d="M126.49,-893.91C128.84,-930.2 142.19,-1056.92 215,-1117 253.17,-1148.5 310.79,-1154.47 352.17,-1153.99"/>
<polygon fill="midnightblue" stroke="midnightblue" points="352.41,-1157.48 362.32,-1153.74 352.24,-1150.49 352.41,-1157.48"/>
</g>
<!-- Node66 -->
<g id="node35" class="node">
<title>Node66</title>
<g id="a_node35"><a xlink:href="_transmitter_code_2src_2main_8cpp.html#ab7c9edf843c732d7fe296564f39bc0dc" target="_top" xlink:title="RECEIVE A MODEL FILE.">
<polygon fill="white" stroke="red" points="217,-1178.5 217,-1197.5 311,-1197.5 311,-1178.5 217,-1178.5"/>
<text text-anchor="middle" x="264" y="-1185.5" font-family="Helvetica,sans-Serif" font-size="10.00">ReceiveModelFile</text>
</a>
</g>
</g>
<!-- Node2&#45;&gt;Node66 -->
<g id="edge39" class="edge">
<title>Node2&#45;&gt;Node66</title>
<path fill="none" stroke="midnightblue" d="M126.44,-893.73C128.7,-932.56 141.9,-1078.52 215,-1164 218.01,-1167.52 221.66,-1170.58 225.59,-1173.22"/>
<polygon fill="midnightblue" stroke="midnightblue" points="224.09,-1176.4 234.5,-1178.36 227.59,-1170.33 224.09,-1176.4"/>
</g>
<!-- Node69 -->
<g id="node37" class="node">
<title>Node69</title>
<g id="a_node37"><a xlink:href="_transmitter_code_2src_2main_8cpp.html#a92c5dada5e5ef70261391557464f2d19" target="_top" xlink:title=" ">
<polygon fill="white" stroke="red" points="353.5,-950.5 353.5,-969.5 454.5,-969.5 454.5,-950.5 353.5,-950.5"/>
<text text-anchor="middle" x="404" y="-957.5" font-family="Helvetica,sans-Serif" font-size="10.00">SaveAllParameters</text>
</a>
</g>
</g>
<!-- Node2&#45;&gt;Node69 -->
<g id="edge48" class="edge">
<title>Node2&#45;&gt;Node69</title>
<path fill="none" stroke="midnightblue" d="M137.16,-893.66C153.18,-906.9 184.16,-930.26 215,-941 256.2,-955.35 305.33,-959.92 343.04,-961"/>
<polygon fill="midnightblue" stroke="midnightblue" points="343.28,-964.5 353.35,-961.21 343.43,-957.5 343.28,-964.5"/>
</g>
<!-- Node5&#45;&gt;Node6 -->
<g id="edge4" class="edge">
<title>Node5&#45;&gt;Node6</title>
<path fill="none" stroke="midnightblue" d="M442.84,-1105.01C467.57,-1100.43 499.58,-1094.52 523.32,-1090.13"/>
<polygon fill="midnightblue" stroke="midnightblue" points="524.07,-1093.55 533.27,-1088.29 522.8,-1086.67 524.07,-1093.55"/>
</g>
<!-- Node33&#45;&gt;Node34 -->
<g id="edge16" class="edge">
<title>Node33&#45;&gt;Node34</title>
<path fill="none" stroke="midnightblue" d="M443.23,-1026.41C463.13,-1021.42 487.66,-1015.27 508.79,-1009.97"/>
<polygon fill="midnightblue" stroke="midnightblue" points="509.7,-1013.35 518.55,-1007.52 507.99,-1006.56 509.7,-1013.35"/>
</g>
<!-- Node34&#45;&gt;Node11 -->
<g id="edge17" class="edge">
<title>Node34&#45;&gt;Node11</title>
<path fill="none" stroke="midnightblue" d="M568.21,-1007.53C580.82,-1020.12 603.19,-1043.27 620,-1065 647.32,-1100.34 674.59,-1145.1 689,-1169.71"/>
<polygon fill="midnightblue" stroke="midnightblue" points="685.99,-1171.49 694.03,-1178.38 692.04,-1167.97 685.99,-1171.49"/>
</g>
<!-- Node34&#45;&gt;Node35 -->
<g id="edge18" class="edge">
<title>Node34&#45;&gt;Node35</title>
<path fill="none" stroke="midnightblue" d="M599.28,-992.5C614.09,-990.51 631.05,-988.22 646.75,-986.11"/>
<polygon fill="midnightblue" stroke="midnightblue" points="647.4,-989.55 656.85,-984.75 646.47,-982.61 647.4,-989.55"/>
</g>
<!-- Node59&#45;&gt;Node21 -->
<g id="edge35" class="edge">
<title>Node59&#45;&gt;Node21</title>
<path fill="none" stroke="midnightblue" d="M295.63,-394.22C313.56,-396.69 336.56,-399.85 356.68,-402.62"/>
<polygon fill="midnightblue" stroke="midnightblue" points="356.2,-406.09 366.58,-403.99 357.16,-399.15 356.2,-406.09"/>
</g>
<!-- Node61&#45;&gt;Node35 -->
<g id="edge38" class="edge">
<title>Node61&#45;&gt;Node35</title>
<path fill="none" stroke="midnightblue" d="M445.9,-1150.12C492.09,-1148.34 567.63,-1139.45 620,-1103 657.8,-1076.69 681.76,-1026.03 692.65,-998.3"/>
<polygon fill="midnightblue" stroke="midnightblue" points="696.06,-999.17 696.29,-988.58 689.5,-996.72 696.06,-999.17"/>
</g>
<!-- Node66&#45;&gt;Node5 -->
<g id="edge40" class="edge">
<title>Node66&#45;&gt;Node5</title>
<path fill="none" stroke="midnightblue" d="M276.91,-1178.45C292.65,-1166.18 321.62,-1144.81 349,-1131 353.1,-1128.93 357.49,-1126.99 361.92,-1125.19"/>
<polygon fill="midnightblue" stroke="midnightblue" points="363.49,-1128.34 371.59,-1121.52 361,-1121.8 363.49,-1128.34"/>
</g>
<!-- Node66&#45;&gt;Node11 -->
<g id="edge41" class="edge">
<title>Node66&#45;&gt;Node11</title>
<path fill="none" stroke="midnightblue" d="M311.09,-1188C392.1,-1188 559.59,-1188 645.73,-1188"/>
<polygon fill="midnightblue" stroke="midnightblue" points="645.83,-1191.5 655.83,-1188 645.83,-1184.5 645.83,-1191.5"/>
</g>
<!-- Node66&#45;&gt;Node61 -->
<g id="edge43" class="edge">
<title>Node66&#45;&gt;Node61</title>
<path fill="none" stroke="midnightblue" d="M299.82,-1178.41C317.64,-1173.51 339.52,-1167.48 358.54,-1162.24"/>
<polygon fill="midnightblue" stroke="midnightblue" points="359.48,-1165.62 368.19,-1159.59 357.62,-1158.87 359.48,-1165.62"/>
</g>
<!-- Node66&#45;&gt;Node67 -->
<g id="edge42" class="edge">
<title>Node66&#45;&gt;Node67</title>
<path fill="none" stroke="midnightblue" d="M301.1,-1197.72C305.57,-1200.16 309.72,-1203.2 313,-1207 313,-1207 379.86,-1489.3 398.33,-1567.26"/>
<polygon fill="midnightblue" stroke="midnightblue" points="394.97,-1568.3 400.68,-1577.22 401.79,-1566.69 394.97,-1568.3"/>
</g>
<!-- Node66&#45;&gt;Node69 -->
<g id="edge44" class="edge">
<title>Node66&#45;&gt;Node69</title>
<path fill="none" stroke="midnightblue" d="M268.61,-1178.18C278.82,-1151.07 309.73,-1073.49 349,-1017 359.27,-1002.23 373.3,-987.54 384.49,-976.77"/>
<polygon fill="midnightblue" stroke="midnightblue" points="387.14,-979.08 392.03,-969.68 382.35,-973.98 387.14,-979.08"/>
</g>
<!-- Node66&#45;&gt;Node71 -->
<g id="edge47" class="edge">
<title>Node66&#45;&gt;Node71</title>
<path fill="none" stroke="midnightblue" d="M296.95,-1197.52C302.63,-1200.06 308.25,-1203.18 313,-1207 352.5,-1238.71 381.27,-1292.4 394.64,-1320.9"/>
<polygon fill="midnightblue" stroke="midnightblue" points="391.53,-1322.52 398.86,-1330.17 397.9,-1319.62 391.53,-1322.52"/>
</g>
<!-- Node69&#45;&gt;Node34 -->
<g id="edge46" class="edge">
<title>Node69&#45;&gt;Node34</title>
<path fill="none" stroke="midnightblue" d="M443.23,-969.59C463.13,-974.58 487.66,-980.73 508.79,-986.03"/>
<polygon fill="midnightblue" stroke="midnightblue" points="507.99,-989.44 518.55,-988.48 509.7,-982.65 507.99,-989.44"/>
</g>
<!-- Node69&#45;&gt;Node35 -->
<g id="edge45" class="edge">
<title>Node69&#45;&gt;Node35</title>
<path fill="none" stroke="midnightblue" d="M454.62,-963.2C507.91,-966.64 592.23,-972.08 646.71,-975.59"/>
<polygon fill="midnightblue" stroke="midnightblue" points="646.65,-979.1 656.86,-976.25 647.1,-972.11 646.65,-979.1"/>
</g>
<!-- Node88&#45;&gt;Node93 -->
<g id="edge51" class="edge">
<title>Node88&#45;&gt;Node93</title>
<path fill="none" stroke="midnightblue" d="M160.21,-304.41C166.71,-301.86 173.27,-298.74 179,-295 198.48,-282.28 195.73,-270.03 215,-257 217.75,-255.14 220.7,-253.42 223.75,-251.85"/>
<polygon fill="midnightblue" stroke="midnightblue" points="225.45,-254.91 233.04,-247.52 222.5,-248.57 225.45,-254.91"/>
</g>
<!-- Node95&#45;&gt;Node93 -->
<g id="edge53" class="edge">
<title>Node95&#45;&gt;Node93</title>
<path fill="none" stroke="midnightblue" d="M160.57,-266.41C178.18,-261.53 199.78,-255.54 218.6,-250.32"/>
<polygon fill="midnightblue" stroke="midnightblue" points="219.74,-253.63 228.44,-247.59 217.87,-246.89 219.74,-253.63"/>
</g>
<!-- Node96&#45;&gt;Node51 -->
<g id="edge55" class="edge">
<title>Node96&#45;&gt;Node51</title>
<path fill="none" stroke="midnightblue" d="M173.53,-1530C190.39,-1530 209.13,-1530 225.09,-1530"/>
<polygon fill="midnightblue" stroke="midnightblue" points="225.12,-1533.5 235.12,-1530 225.12,-1526.5 225.12,-1533.5"/>
</g>
<!-- Node96&#45;&gt;Node61 -->
<g id="edge56" class="edge">
<title>Node96&#45;&gt;Node61</title>
<path fill="none" stroke="midnightblue" d="M144.27,-1539.63C181.02,-1557.51 264.5,-1590.44 313,-1549 352,-1515.68 337.24,-1370.93 349,-1321 362.21,-1264.89 384.56,-1200.48 395.92,-1169.14"/>
<polygon fill="midnightblue" stroke="midnightblue" points="399.3,-1170.1 399.45,-1159.5 392.72,-1167.69 399.3,-1170.1"/>
</g>
<!-- Node99&#45;&gt;Node100 -->
<g id="edge60" class="edge">
<title>Node99&#45;&gt;Node100</title>
<path fill="none" stroke="midnightblue" d="M440.14,-111.73C456.96,-114.95 477.58,-118.89 496.76,-122.56"/>
<polygon fill="midnightblue" stroke="midnightblue" points="496.15,-126.01 506.63,-124.45 497.47,-119.14 496.15,-126.01"/>
</g>
<!-- Node101&#45;&gt;Node47 -->
<g id="edge64" class="edge">
<title>Node101&#45;&gt;Node47</title>
<path fill="none" stroke="midnightblue" d="M155.67,-380.74C163.93,-377.12 172.43,-372.28 179,-366 204.56,-341.54 188.85,-318.84 215,-295 216.72,-293.43 218.59,-291.98 220.55,-290.65"/>
<polygon fill="midnightblue" stroke="midnightblue" points="222.67,-293.48 229.65,-285.51 219.22,-287.38 222.67,-293.48"/>
</g>
<!-- Node104&#45;&gt;Node99 -->
<g id="edge67" class="edge">
<title>Node104&#45;&gt;Node99</title>
<path fill="none" stroke="midnightblue" d="M154.6,-87.96C202.62,-91.26 299.82,-97.92 357.37,-101.87"/>
<polygon fill="midnightblue" stroke="midnightblue" points="357.41,-105.38 367.63,-102.57 357.89,-98.4 357.41,-105.38"/>
</g>
<!-- Node104&#45;&gt;Node132 -->
<g id="edge68" class="edge">
<title>Node104&#45;&gt;Node132</title>
<path fill="none" stroke="midnightblue" d="M154.72,-78.03C173.28,-72.89 197.8,-66.08 218.81,-60.26"/>
<polygon fill="midnightblue" stroke="midnightblue" points="219.8,-63.62 228.5,-57.57 217.93,-56.87 219.8,-63.62"/>
</g>
<!-- Node132&#45;&gt;Node99 -->
<g id="edge69" class="edge">
<title>Node132&#45;&gt;Node99</title>
<path fill="none" stroke="midnightblue" d="M288.1,-57.54C310.59,-66.83 344.98,-81.04 370.28,-91.49"/>
<polygon fill="midnightblue" stroke="midnightblue" points="369.25,-94.85 379.83,-95.43 371.92,-88.38 369.25,-94.85"/>
</g>
</g>
</svg>
