<?xml version="1.0" encoding="UTF-8" standalone="no"?>
<!DOCTYPE svg PUBLIC "-//W3C//DTD SVG 1.1//EN"
 "http://www.w3.org/Graphics/SVG/1.1/DTD/svg11.dtd">
<!-- Generated by graphviz version 2.49.3 (20211027.1534)
 -->
<!-- Title: CreateTimeStamp Pages: 1 -->
<svg width="1103pt" height="277pt"
 viewBox="0.00 0.00 1103.00 276.76" xmlns="http://www.w3.org/2000/svg" xmlns:xlink="http://www.w3.org/1999/xlink">
<g id="graph0" class="graph" transform="scale(1 1) rotate(0) translate(4 272.76)">
<title>CreateTimeStamp</title>
<polygon fill="white" stroke="transparent" points="-4,4 -4,-272.76 1099,-272.76 1099,4 -4,4"/>
<!-- Node1 -->
<g id="node1" class="node">
<title>Node1</title>
<g id="a_node1"><a xlink:title=" ">
<polygon fill="#bfbfbf" stroke="black" points="1000,-135.26 1000,-154.26 1095,-154.26 1095,-135.26 1000,-135.26"/>
<text text-anchor="middle" x="1047.5" y="-142.26" font-family="Helvetica,sans-Serif" font-size="10.00">CreateTimeStamp</text>
</a>
</g>
</g>
<!-- Node2 -->
<g id="node2" class="node">
<title>Node2</title>
<g id="a_node2"><a xlink:href="_transmitter_code_2src_2main_8cpp.html#a245cf37e2504095132bfcf03f2eeaa93" target="_top" xlink:title=" ">
<polygon fill="white" stroke="black" points="874,-173.26 874,-192.26 964,-192.26 964,-173.26 874,-173.26"/>
<text text-anchor="middle" x="919" y="-180.26" font-family="Helvetica,sans-Serif" font-size="10.00">LogFilePreamble</text>
</a>
</g>
</g>
<!-- Node1&#45;&gt;Node2 -->
<g id="edge1" class="edge">
<title>Node1&#45;&gt;Node2</title>
<path fill="none" stroke="midnightblue" d="M1004.77,-157.29C987.56,-162.46 967.94,-168.36 951.91,-173.17"/>
<polygon fill="midnightblue" stroke="midnightblue" points="1006.01,-160.57 1014.58,-154.35 1003.99,-153.87 1006.01,-160.57"/>
</g>
<!-- Node23 -->
<g id="node23" class="node">
<title>Node23</title>
<g id="a_node23"><a xlink:href="_transmitter_code_2src_2main_8cpp.html#a514afc8dd077db77334696ca719a99b7" target="_top" xlink:title=" ">
<polygon fill="white" stroke="black" points="884,-116.26 884,-135.26 954,-135.26 954,-116.26 884,-116.26"/>
<text text-anchor="middle" x="919" y="-123.26" font-family="Helvetica,sans-Serif" font-size="10.00">StartLogFile</text>
</a>
</g>
</g>
<!-- Node1&#45;&gt;Node23 -->
<g id="edge33" class="edge">
<title>Node1&#45;&gt;Node23</title>
<path fill="none" stroke="midnightblue" d="M989.72,-136.23C977.63,-134.41 965.23,-132.55 954.3,-130.91"/>
<polygon fill="midnightblue" stroke="midnightblue" points="989.35,-139.71 999.76,-137.74 990.39,-132.79 989.35,-139.71"/>
</g>
<!-- Node3 -->
<g id="node3" class="node">
<title>Node3</title>
<g id="a_node3"><a xlink:href="_transmitter_code_2src_2main_8cpp.html#acac3c6cebc71150f10a4ba2f6d047e69" target="_top" xlink:title=" ">
<polygon fill="white" stroke="black" points="737,-249.26 737,-268.26 838,-268.26 838,-249.26 737,-249.26"/>
<text text-anchor="middle" x="787.5" y="-256.26" font-family="Helvetica,sans-Serif" font-size="10.00">LogNewFlightMode</text>
</a>
</g>
</g>
<!-- Node2&#45;&gt;Node3 -->
<g id="edge2" class="edge">
<title>Node2&#45;&gt;Node3</title>
<path fill="none" stroke="midnightblue" d="M898.52,-198.77C882.86,-211.1 859.93,-227.98 838,-239.76 831.43,-243.28 824.06,-246.48 817.06,-249.2"/>
<polygon fill="midnightblue" stroke="midnightblue" points="900.8,-201.43 906.42,-192.44 896.43,-195.96 900.8,-201.43"/>
</g>
<!-- Node8 -->
<g id="node8" class="node">
<title>Node8</title>
<g id="a_node8"><a xlink:href="_transmitter_code_2src_2main_8cpp.html#a3082155bd493af8377f0384347bdc55b" target="_top" xlink:title=" ">
<polygon fill="white" stroke="black" points="761.5,-173.26 761.5,-192.26 813.5,-192.26 813.5,-173.26 761.5,-173.26"/>
<text text-anchor="middle" x="787.5" y="-180.26" font-family="Helvetica,sans-Serif" font-size="10.00">LogText</text>
</a>
</g>
</g>
<!-- Node2&#45;&gt;Node8 -->
<g id="edge7" class="edge">
<title>Node2&#45;&gt;Node8</title>
<path fill="none" stroke="midnightblue" d="M863.72,-182.76C846.33,-182.76 827.9,-182.76 813.64,-182.76"/>
<polygon fill="midnightblue" stroke="midnightblue" points="863.8,-186.26 873.8,-182.76 863.8,-179.26 863.8,-186.26"/>
</g>
<!-- Node20 -->
<g id="node20" class="node">
<title>Node20</title>
<g id="a_node20"><a xlink:href="_transmitter_code_2src_2main_8cpp.html#af9d8a17fec28e4ae948cc53c29406f78" target="_top" xlink:title=" ">
<polygon fill="white" stroke="black" points="752.5,-211.26 752.5,-230.26 822.5,-230.26 822.5,-211.26 752.5,-211.26"/>
<text text-anchor="middle" x="787.5" y="-218.26" font-family="Helvetica,sans-Serif" font-size="10.00">LogThisGap</text>
</a>
</g>
</g>
<!-- Node2&#45;&gt;Node20 -->
<g id="edge29" class="edge">
<title>Node2&#45;&gt;Node20</title>
<path fill="none" stroke="midnightblue" d="M875.28,-195.29C857.66,-200.46 837.58,-206.36 821.17,-211.17"/>
<polygon fill="midnightblue" stroke="midnightblue" points="876.71,-198.52 885.32,-192.35 874.74,-191.8 876.71,-198.52"/>
</g>
<!-- Node22 -->
<g id="node22" class="node">
<title>Node22</title>
<g id="a_node22"><a xlink:href="_transmitter_code_2src_2main_8cpp.html#a436844f605001cad62b48d890e11fe2c" target="_top" xlink:title=" ">
<polygon fill="white" stroke="black" points="755,-135.26 755,-154.26 820,-154.26 820,-135.26 755,-135.26"/>
<text text-anchor="middle" x="787.5" y="-142.26" font-family="Helvetica,sans-Serif" font-size="10.00">LogThisRX</text>
</a>
</g>
</g>
<!-- Node2&#45;&gt;Node22 -->
<g id="edge32" class="edge">
<title>Node2&#45;&gt;Node22</title>
<path fill="none" stroke="midnightblue" d="M875.62,-170.32C857.6,-165.03 836.95,-158.97 820.27,-154.08"/>
<polygon fill="midnightblue" stroke="midnightblue" points="874.74,-173.71 885.32,-173.17 876.71,-166.99 874.74,-173.71"/>
</g>
<!-- Node4 -->
<g id="node4" class="node">
<title>Node4</title>
<g id="a_node4"><a xlink:href="_transmitter_code_2src_2main_8cpp.html#adf35f0ced7990f813a783d0ecd33bf64" target="_top" xlink:title=" ">
<polygon fill="white" stroke="black" points="613,-249.26 613,-268.26 693,-268.26 693,-249.26 613,-249.26"/>
<text text-anchor="middle" x="653" y="-256.26" font-family="Helvetica,sans-Serif" font-size="10.00">GetFlightMode</text>
</a>
</g>
</g>
<!-- Node3&#45;&gt;Node4 -->
<g id="edge3" class="edge">
<title>Node3&#45;&gt;Node4</title>
<path fill="none" stroke="midnightblue" d="M726.52,-258.76C715.23,-258.76 703.69,-258.76 693.23,-258.76"/>
<polygon fill="midnightblue" stroke="midnightblue" points="726.78,-262.26 736.78,-258.76 726.78,-255.26 726.78,-262.26"/>
</g>
<!-- Node5 -->
<g id="node5" class="node">
<title>Node5</title>
<g id="a_node5"><a xlink:href="_transmitter_code_2src_2main_8cpp.html#ab0af36f3442ad4f2d0b716c14c7d6085" target="_top" xlink:title=" ">
<polygon fill="white" stroke="black" points="480,-249.26 480,-268.26 560,-268.26 560,-249.26 480,-249.26"/>
<text text-anchor="middle" x="520" y="-256.26" font-family="Helvetica,sans-Serif" font-size="10.00">ReadSwitches</text>
</a>
</g>
</g>
<!-- Node4&#45;&gt;Node5 -->
<g id="edge4" class="edge">
<title>Node4&#45;&gt;Node5</title>
<path fill="none" stroke="midnightblue" d="M602.31,-258.76C588.4,-258.76 573.49,-258.76 560.28,-258.76"/>
<polygon fill="midnightblue" stroke="midnightblue" points="602.7,-262.26 612.7,-258.76 602.7,-255.26 602.7,-262.26"/>
</g>
<!-- Node6 -->
<g id="node6" class="node">
<title>Node6</title>
<g id="a_node6"><a xlink:href="_radio_functions_8cpp.html#a3d7322e78f097d02d476f17a6306997c" target="_top" xlink:title=" ">
<polygon fill="white" stroke="black" points="225,-173.26 225,-192.26 284,-192.26 284,-173.26 225,-173.26"/>
<text text-anchor="middle" x="254.5" y="-180.26" font-family="Helvetica,sans-Serif" font-size="10.00">SendData</text>
</a>
</g>
</g>
<!-- Node5&#45;&gt;Node6 -->
<g id="edge5" class="edge">
<title>Node5&#45;&gt;Node6</title>
<path fill="none" stroke="midnightblue" d="M469.42,-249.1C433.42,-241.59 383.72,-230.21 341,-216.76 318.75,-209.75 294.07,-199.68 276.97,-192.31"/>
<polygon fill="midnightblue" stroke="midnightblue" points="469.16,-252.62 479.66,-251.21 470.57,-245.76 469.16,-252.62"/>
</g>
<!-- Node7 -->
<g id="node7" class="node">
<title>Node7</title>
<g id="a_node7"><a xlink:href="_transmitter_code_2src_2main_8cpp.html#afe461d27b9c48d5921c00d521181f12f" target="_top" xlink:title=" ">
<polygon fill="white" stroke="black" points="0,-135.26 0,-154.26 35,-154.26 35,-135.26 0,-135.26"/>
<text text-anchor="middle" x="17.5" y="-142.26" font-family="Helvetica,sans-Serif" font-size="10.00">loop</text>
</a>
</g>
</g>
<!-- Node6&#45;&gt;Node7 -->
<g id="edge6" class="edge">
<title>Node6&#45;&gt;Node7</title>
<path fill="none" stroke="midnightblue" d="M214.49,-179.11C177.37,-175.29 120.07,-168.48 71,-158.76 58.97,-156.37 45.62,-152.8 35.39,-149.86"/>
<polygon fill="midnightblue" stroke="midnightblue" points="214.56,-182.63 224.86,-180.15 215.26,-175.67 214.56,-182.63"/>
</g>
<!-- Node9 -->
<g id="node9" class="node">
<title>Node9</title>
<g id="a_node9"><a xlink:href="_transmitter_code_2src_2main_8cpp.html#a896d9c3f90c2a4c083748097a98bc96b" target="_top" xlink:title=" ">
<polygon fill="white" stroke="black" points="612,-173.26 612,-192.26 694,-192.26 694,-173.26 612,-173.26"/>
<text text-anchor="middle" x="653" y="-180.26" font-family="Helvetica,sans-Serif" font-size="10.00">LogConnection</text>
</a>
</g>
</g>
<!-- Node8&#45;&gt;Node9 -->
<g id="edge8" class="edge">
<title>Node8&#45;&gt;Node9</title>
<path fill="none" stroke="midnightblue" d="M750.92,-182.76C733.44,-182.76 712.31,-182.76 694.25,-182.76"/>
<polygon fill="midnightblue" stroke="midnightblue" points="751.27,-186.26 761.27,-182.76 751.27,-179.26 751.27,-186.26"/>
</g>
<!-- Node12 -->
<g id="node12" class="node">
<title>Node12</title>
<g id="a_node12"><a xlink:href="_transmitter_code_2src_2main_8cpp.html#a01c8a29ed73a0c490282e23e119eca14" target="_top" xlink:title=" ">
<polygon fill="white" stroke="black" points="605,-107.26 605,-126.26 701,-126.26 701,-107.26 605,-107.26"/>
<text text-anchor="middle" x="653" y="-114.26" font-family="Helvetica,sans-Serif" font-size="10.00">LogDisConnection</text>
</a>
</g>
</g>
<!-- Node8&#45;&gt;Node12 -->
<g id="edge15" class="edge">
<title>Node8&#45;&gt;Node12</title>
<path fill="none" stroke="midnightblue" d="M751.78,-170.19C746.77,-168.15 741.72,-165.98 737,-163.76 712.59,-152.24 685.61,-136.33 669.24,-126.3"/>
<polygon fill="midnightblue" stroke="midnightblue" points="750.68,-173.51 761.27,-173.9 753.23,-166.99 750.68,-173.51"/>
</g>
<!-- Node19 -->
<g id="node19" class="node">
<title>Node19</title>
<g id="a_node19"><a xlink:href="_transmitter_code_2src_2main_8cpp.html#af7d08cb37b8fbf6c5f2085ae047e7e43" target="_top" xlink:title=" ">
<polygon fill="white" stroke="black" points="616,-40.26 616,-59.26 690,-59.26 690,-40.26 616,-40.26"/>
<text text-anchor="middle" x="653" y="-47.26" font-family="Helvetica,sans-Serif" font-size="10.00">ShowLogFile</text>
</a>
</g>
</g>
<!-- Node8&#45;&gt;Node19 -->
<g id="edge27" class="edge">
<title>Node8&#45;&gt;Node19</title>
<path fill="none" stroke="midnightblue" d="M751.83,-173.1C746.49,-170.62 741.33,-167.55 737,-163.76 711.86,-141.75 720.88,-124.61 701,-97.76 690.18,-83.13 675.09,-68.51 664.96,-59.31"/>
<polygon fill="midnightblue" stroke="midnightblue" points="750.89,-176.49 761.47,-176.94 753.48,-169.99 750.89,-176.49"/>
</g>
<!-- Node10 -->
<g id="node10" class="node">
<title>Node10</title>
<g id="a_node10"><a xlink:href="_transmitter_code_2src_2main_8cpp.html#a62e53eb9359c32b666e3386d62c57037" target="_top" xlink:title=" ">
<polygon fill="white" stroke="black" points="484,-173.26 484,-192.26 556,-192.26 556,-173.26 484,-173.26"/>
<text text-anchor="middle" x="520" y="-180.26" font-family="Helvetica,sans-Serif" font-size="10.00">GreenLedOn</text>
</a>
</g>
</g>
<!-- Node9&#45;&gt;Node10 -->
<g id="edge9" class="edge">
<title>Node9&#45;&gt;Node10</title>
<path fill="none" stroke="midnightblue" d="M601.73,-182.76C586.58,-182.76 570.29,-182.76 556.33,-182.76"/>
<polygon fill="midnightblue" stroke="midnightblue" points="601.98,-186.26 611.98,-182.76 601.98,-179.26 601.98,-186.26"/>
</g>
<!-- Node10&#45;&gt;Node6 -->
<g id="edge11" class="edge">
<title>Node10&#45;&gt;Node6</title>
<path fill="none" stroke="midnightblue" d="M473.68,-182.76C419.28,-182.76 329.7,-182.76 284.09,-182.76"/>
<polygon fill="midnightblue" stroke="midnightblue" points="473.74,-186.26 483.74,-182.76 473.74,-179.26 473.74,-186.26"/>
</g>
<!-- Node10&#45;&gt;Node7 -->
<g id="edge10" class="edge">
<title>Node10&#45;&gt;Node7</title>
<path fill="none" stroke="midnightblue" d="M473.78,-191.37C461.26,-193.46 447.64,-195.47 435,-196.76 273.88,-213.21 221.64,-239.22 71,-179.76 55.51,-173.64 39.91,-162.45 29.79,-154.37"/>
<polygon fill="midnightblue" stroke="midnightblue" points="474.73,-194.76 483.99,-189.61 473.54,-187.86 474.73,-194.76"/>
</g>
<!-- Node11 -->
<g id="node11" class="node">
<title>Node11</title>
<g id="a_node11"><a xlink:href="_transmitter_code_2src_2main_8cpp.html#a5d3a46c21927cf7a3031a1e68e0b7b48" target="_top" xlink:title="SHOW COMMS.">
<polygon fill="white" stroke="black" points="350.5,-97.26 350.5,-116.26 425.5,-116.26 425.5,-97.26 350.5,-97.26"/>
<text text-anchor="middle" x="388" y="-104.26" font-family="Helvetica,sans-Serif" font-size="10.00">ShowComms</text>
</a>
</g>
</g>
<!-- Node10&#45;&gt;Node11 -->
<g id="edge12" class="edge">
<title>Node10&#45;&gt;Node11</title>
<path fill="none" stroke="midnightblue" d="M498.34,-166.98C481.78,-154.77 457.65,-137.95 435,-125.76 428.61,-122.32 421.46,-119.09 414.74,-116.3"/>
<polygon fill="midnightblue" stroke="midnightblue" points="496.6,-170.04 506.7,-173.23 500.78,-164.44 496.6,-170.04"/>
</g>
<!-- Node11&#45;&gt;Node6 -->
<g id="edge14" class="edge">
<title>Node11&#45;&gt;Node6</title>
<path fill="none" stroke="midnightblue" d="M350.3,-120.52C347.08,-122.14 343.93,-123.89 341,-125.76 322.69,-137.41 322.95,-146.56 305,-158.76 296.86,-164.28 287.26,-169.25 278.69,-173.21"/>
<polygon fill="midnightblue" stroke="midnightblue" points="351.84,-123.66 359.46,-116.29 348.91,-117.31 351.84,-123.66"/>
</g>
<!-- Node11&#45;&gt;Node7 -->
<g id="edge13" class="edge">
<title>Node11&#45;&gt;Node7</title>
<path fill="none" stroke="midnightblue" d="M340.19,-111.58C257.42,-120.12 88.91,-137.5 35.28,-143.03"/>
<polygon fill="midnightblue" stroke="midnightblue" points="340.73,-115.05 350.32,-110.54 340.01,-108.08 340.73,-115.05"/>
</g>
<!-- Node13 -->
<g id="node13" class="node">
<title>Node13</title>
<g id="a_node13"><a xlink:href="_transmitter_code_2src_2main_8cpp.html#a7d34cec6e8edc20c8b50424e15dcc7c7" target="_top" xlink:title=" ">
<polygon fill="white" stroke="black" points="488.5,-107.26 488.5,-126.26 551.5,-126.26 551.5,-107.26 488.5,-107.26"/>
<text text-anchor="middle" x="520" y="-114.26" font-family="Helvetica,sans-Serif" font-size="10.00">RedLedOn</text>
</a>
</g>
</g>
<!-- Node12&#45;&gt;Node13 -->
<g id="edge16" class="edge">
<title>Node12&#45;&gt;Node13</title>
<path fill="none" stroke="midnightblue" d="M594.65,-116.76C579.94,-116.76 564.67,-116.76 551.88,-116.76"/>
<polygon fill="midnightblue" stroke="midnightblue" points="594.71,-120.26 604.71,-116.76 594.71,-113.26 594.71,-120.26"/>
</g>
<!-- Node14 -->
<g id="node14" class="node">
<title>Node14</title>
<g id="a_node14"><a xlink:href="_transmitter_code_2src_2main_8cpp.html#a783a0141bea15d8539730afd4b3b06a3" target="_top" xlink:title=" ">
<polygon fill="white" stroke="black" points="351,-135.26 351,-154.26 425,-154.26 425,-135.26 351,-135.26"/>
<text text-anchor="middle" x="388" y="-142.26" font-family="Helvetica,sans-Serif" font-size="10.00">FailedPacket</text>
</a>
</g>
</g>
<!-- Node13&#45;&gt;Node14 -->
<g id="edge17" class="edge">
<title>Node13&#45;&gt;Node14</title>
<path fill="none" stroke="midnightblue" d="M478.01,-125.59C461.04,-129.24 441.54,-133.44 425.12,-136.98"/>
<polygon fill="midnightblue" stroke="midnightblue" points="479.15,-128.92 488.19,-123.39 477.68,-122.08 479.15,-128.92"/>
</g>
<!-- Node15 -->
<g id="node15" class="node">
<title>Node15</title>
<g id="a_node15"><a xlink:href="_transmitter_code_2src_2main_8cpp.html#ab7c9edf843c732d7fe296564f39bc0dc" target="_top" xlink:title="RECEIVE A MODEL FILE.">
<polygon fill="white" stroke="black" points="341,-59.26 341,-78.26 435,-78.26 435,-59.26 341,-59.26"/>
<text text-anchor="middle" x="388" y="-66.26" font-family="Helvetica,sans-Serif" font-size="10.00">ReceiveModelFile</text>
</a>
</g>
</g>
<!-- Node13&#45;&gt;Node15 -->
<g id="edge19" class="edge">
<title>Node13&#45;&gt;Node15</title>
<path fill="none" stroke="midnightblue" d="M483.49,-103.64C461.82,-95.64 434.6,-85.59 414.95,-78.34"/>
<polygon fill="midnightblue" stroke="midnightblue" points="482.41,-106.98 493.01,-107.16 484.84,-100.41 482.41,-106.98"/>
</g>
<!-- Node18 -->
<g id="node18" class="node">
<title>Node18</title>
<g id="a_node18"><a xlink:href="_transmitter_code_2src_2main_8cpp.html#a58c67a975068930341f0663e0a08c9d3" target="_top" xlink:title="SEND A MODEL FILE.">
<polygon fill="white" stroke="black" points="347.5,-21.26 347.5,-40.26 428.5,-40.26 428.5,-21.26 347.5,-21.26"/>
<text text-anchor="middle" x="388" y="-28.26" font-family="Helvetica,sans-Serif" font-size="10.00">SendModelFile</text>
</a>
</g>
</g>
<!-- Node13&#45;&gt;Node18 -->
<g id="edge25" class="edge">
<title>Node13&#45;&gt;Node18</title>
<path fill="none" stroke="midnightblue" d="M501.18,-100.06C484.88,-85.43 459.63,-64.27 435,-49.76 429.04,-46.25 422.32,-43.08 415.89,-40.37"/>
<polygon fill="midnightblue" stroke="midnightblue" points="499.09,-102.9 508.83,-107.05 503.81,-97.73 499.09,-102.9"/>
</g>
<!-- Node14&#45;&gt;Node6 -->
<g id="edge18" class="edge">
<title>Node14&#45;&gt;Node6</title>
<path fill="none" stroke="midnightblue" d="M344.17,-157.13C324.52,-162.81 301.75,-169.39 284.21,-174.46"/>
<polygon fill="midnightblue" stroke="midnightblue" points="345.18,-160.48 353.82,-154.35 343.24,-153.76 345.18,-160.48"/>
</g>
<!-- Node16 -->
<g id="node16" class="node">
<title>Node16</title>
<g id="a_node16"><a xlink:href="_transmitter_code_2src_2main_8cpp.html#a8e7ccbf842764fd85cc578be263f7202" target="_top" xlink:title=" ">
<polygon fill="white" stroke="black" points="204,-59.26 204,-78.26 305,-78.26 305,-59.26 204,-59.26"/>
<text text-anchor="middle" x="254.5" y="-66.26" font-family="Helvetica,sans-Serif" font-size="10.00">ButtonWasPressed</text>
</a>
</g>
</g>
<!-- Node15&#45;&gt;Node16 -->
<g id="edge20" class="edge">
<title>Node15&#45;&gt;Node16</title>
<path fill="none" stroke="midnightblue" d="M330.45,-62.07C321.99,-61.96 313.32,-62 305.01,-62.19"/>
<polygon fill="midnightblue" stroke="midnightblue" points="330.57,-65.57 340.64,-62.27 330.71,-58.57 330.57,-65.57"/>
</g>
<!-- Node16&#45;&gt;Node7 -->
<g id="edge23" class="edge">
<title>Node16&#45;&gt;Node7</title>
<path fill="none" stroke="midnightblue" d="M214.13,-81.49C161.91,-98.38 72.03,-127.44 35.09,-139.39"/>
<polygon fill="midnightblue" stroke="midnightblue" points="215.3,-84.79 223.74,-78.38 213.15,-78.13 215.3,-84.79"/>
</g>
<!-- Node16&#45;&gt;Node15 -->
<g id="edge24" class="edge">
<title>Node16&#45;&gt;Node15</title>
<path fill="none" stroke="midnightblue" d="M315.29,-75.48C323.79,-75.55 332.44,-75.47 340.64,-75.24"/>
<polygon fill="midnightblue" stroke="midnightblue" points="315.07,-71.98 305.01,-75.32 314.96,-78.98 315.07,-71.98"/>
</g>
<!-- Node17 -->
<g id="node17" class="node">
<title>Node17</title>
<g id="a_node17"><a xlink:href="_transmitter_code_2src_2main_8cpp.html#a984cb52354a84c45e9e41f396a1c5e92" target="_top" xlink:title=" ">
<polygon fill="white" stroke="black" points="71,-59.26 71,-78.26 168,-78.26 168,-59.26 71,-59.26"/>
<text text-anchor="middle" x="119.5" y="-66.26" font-family="Helvetica,sans-Serif" font-size="10.00">CheckModelName</text>
</a>
</g>
</g>
<!-- Node16&#45;&gt;Node17 -->
<g id="edge21" class="edge">
<title>Node16&#45;&gt;Node17</title>
<path fill="none" stroke="midnightblue" d="M193.71,-68.76C185.2,-68.76 176.54,-68.76 168.3,-68.76"/>
<polygon fill="midnightblue" stroke="midnightblue" points="193.98,-72.26 203.98,-68.76 193.98,-65.26 193.98,-72.26"/>
</g>
<!-- Node17&#45;&gt;Node7 -->
<g id="edge22" class="edge">
<title>Node17&#45;&gt;Node7</title>
<path fill="none" stroke="midnightblue" d="M86.86,-82.99C81.39,-85.94 75.9,-89.23 71,-92.76 53.51,-105.35 36.37,-123.81 26.65,-135.01"/>
<polygon fill="midnightblue" stroke="midnightblue" points="88.59,-86.04 95.91,-78.38 85.42,-79.8 88.59,-86.04"/>
</g>
<!-- Node18&#45;&gt;Node16 -->
<g id="edge26" class="edge">
<title>Node18&#45;&gt;Node16</title>
<path fill="none" stroke="midnightblue" d="M344.12,-43.15C326.11,-48.35 305.49,-54.31 288.67,-59.17"/>
<polygon fill="midnightblue" stroke="midnightblue" points="345.18,-46.48 353.82,-40.35 343.24,-39.76 345.18,-46.48"/>
</g>
<!-- Node19&#45;&gt;Node16 -->
<g id="edge28" class="edge">
<title>Node19&#45;&gt;Node16</title>
<path fill="none" stroke="midnightblue" d="M617.86,-36.62C559.76,-16.24 438.49,17.76 341,-11.76 310.27,-21.06 280.48,-45.46 265.51,-59.13"/>
<polygon fill="midnightblue" stroke="midnightblue" points="617.02,-40.04 627.62,-40.13 619.39,-33.46 617.02,-40.04"/>
</g>
<!-- Node21 -->
<g id="node21" class="node">
<title>Node21</title>
<g id="a_node21"><a xlink:href="_transmitter_code_2src_2main_8cpp.html#aa60c9cac090f6965b4223d5caf84e2f1" target="_top" xlink:title=" ">
<polygon fill="white" stroke="black" points="471,-211.26 471,-230.26 569,-230.26 569,-211.26 471,-211.26"/>
<text text-anchor="middle" x="520" y="-218.26" font-family="Helvetica,sans-Serif" font-size="10.00">CheckGapsLength</text>
</a>
</g>
</g>
<!-- Node20&#45;&gt;Node21 -->
<g id="edge30" class="edge">
<title>Node20&#45;&gt;Node21</title>
<path fill="none" stroke="midnightblue" d="M742.3,-220.76C694.57,-220.76 618.75,-220.76 569.43,-220.76"/>
<polygon fill="midnightblue" stroke="midnightblue" points="742.33,-224.26 752.33,-220.76 742.33,-217.26 742.33,-224.26"/>
</g>
<!-- Node21&#45;&gt;Node6 -->
<g id="edge31" class="edge">
<title>Node21&#45;&gt;Node6</title>
<path fill="none" stroke="midnightblue" d="M460.98,-213.35C426.16,-208.81 381,-202.73 341,-196.76 322.11,-193.94 300.92,-190.47 284.36,-187.69"/>
<polygon fill="midnightblue" stroke="midnightblue" points="460.61,-216.84 470.97,-214.65 461.51,-209.89 460.61,-216.84"/>
</g>
<!-- Node24 -->
<g id="node24" class="node">
<title>Node24</title>
<g id="a_node24"><a xlink:href="_transmitter_code_2src_2main_8cpp.html#a4fc01d736fe50cf5b977f755b675f11d" target="_top" xlink:title=" ">
<polygon fill="white" stroke="black" points="767,-97.26 767,-116.26 808,-116.26 808,-97.26 767,-97.26"/>
<text text-anchor="middle" x="787.5" y="-104.26" font-family="Helvetica,sans-Serif" font-size="10.00">setup</text>
</a>
</g>
</g>
<!-- Node23&#45;&gt;Node24 -->
<g id="edge34" class="edge">
<title>Node23&#45;&gt;Node24</title>
<path fill="none" stroke="midnightblue" d="M874.01,-119.3C851.67,-116.02 825.64,-112.2 808.22,-109.65"/>
<polygon fill="midnightblue" stroke="midnightblue" points="873.57,-122.78 883.98,-120.76 874.59,-115.85 873.57,-122.78"/>
</g>
</g>
</svg>
