<?xml version="1.0" encoding="UTF-8" standalone="no"?>
<!DOCTYPE svg PUBLIC "-//W3C//DTD SVG 1.1//EN"
 "http://www.w3.org/Graphics/SVG/1.1/DTD/svg11.dtd">
<!-- Generated by graphviz version 3.0.0 (20220413.0242)
 -->
<!-- Title: OpenModelsFile Pages: 1 -->
<svg width="757pt" height="712pt"
 viewBox="0.00 0.00 757.00 712.00" xmlns="http://www.w3.org/2000/svg" xmlns:xlink="http://www.w3.org/1999/xlink">
<g id="graph0" class="graph" transform="scale(1 1) rotate(0) translate(4 708)">
<title>OpenModelsFile</title>
<polygon fill="white" stroke="transparent" points="-4,4 -4,-708 753,-708 753,4 -4,4"/>
<!-- Node1 -->
<g id="node1" class="node">
<title>Node1</title>
<g id="a_node1"><a xlink:title=" ">
<polygon fill="#bfbfbf" stroke="black" points="662,-399.5 662,-418.5 749,-418.5 749,-399.5 662,-399.5"/>
<text text-anchor="middle" x="705.5" y="-406.5" font-family="Helvetica,sans-Serif" font-size="10.00">OpenModelsFile</text>
</a>
</g>
</g>
<!-- Node2 -->
<g id="node2" class="node">
<title>Node2</title>
<g id="a_node2"><a xlink:href="_transmitter_code_2src_2main_8cpp.html#a804fdbdd5eab4c596bbe8a23eecbe4d5" target="_top" xlink:title=" ">
<polygon fill="white" stroke="black" points="204,-418.5 204,-437.5 305,-437.5 305,-418.5 204,-418.5"/>
<text text-anchor="middle" x="254.5" y="-425.5" font-family="Helvetica,sans-Serif" font-size="10.00">ButtonWasPressed</text>
</a>
</g>
</g>
<!-- Node1&#45;&gt;Node2 -->
<g id="edge1" class="edge">
<title>Node1&#45;&gt;Node2</title>
<path fill="none" stroke="midnightblue" d="M685.14,-392.69C629.06,-347.54 462.78,-228.52 341,-295 291.13,-322.23 266.01,-392.38 258.22,-418.24"/>
<polygon fill="midnightblue" stroke="midnightblue" points="683.21,-395.64 693.17,-399.26 687.65,-390.22 683.21,-395.64"/>
</g>
<!-- Node6 -->
<g id="node6" class="node">
<title>Node6</title>
<g id="a_node6"><a xlink:href="_transmitter_code_2src_2main_8cpp.html#a909acb7ed667a5cc9c4ec6191fc33e75" target="_top" xlink:title=" ">
<polygon fill="white" stroke="black" points="346,-684.5 346,-703.5 446,-703.5 446,-684.5 346,-684.5"/>
<text text-anchor="middle" x="396" y="-691.5" font-family="Helvetica,sans-Serif" font-size="10.00">LoadAllParameters</text>
</a>
</g>
</g>
<!-- Node1&#45;&gt;Node6 -->
<g id="edge7" class="edge">
<title>Node1&#45;&gt;Node6</title>
<path fill="none" stroke="midnightblue" d="M702.65,-429.05C697.77,-470.3 680.9,-565.19 626,-618 576.79,-665.33 497.41,-683.2 446.22,-689.94"/>
<polygon fill="midnightblue" stroke="midnightblue" points="706.15,-429.23 703.73,-418.92 699.19,-428.49 706.15,-429.23"/>
</g>
<!-- Node8 -->
<g id="node8" class="node">
<title>Node8</title>
<g id="a_node8"><a xlink:href="_transmitter_code_2src_2main_8cpp.html#a3d9d955a8c7cfea4cc99e78f3746bd26" target="_top" xlink:title=" ">
<polygon fill="white" stroke="black" points="515,-589.5 515,-608.5 598,-608.5 598,-589.5 515,-589.5"/>
<text text-anchor="middle" x="556.5" y="-596.5" font-family="Helvetica,sans-Serif" font-size="10.00">ReadOneModel</text>
</a>
</g>
</g>
<!-- Node1&#45;&gt;Node8 -->
<g id="edge10" class="edge">
<title>Node1&#45;&gt;Node8</title>
<path fill="none" stroke="midnightblue" d="M692.3,-426.82C677.21,-448.66 650.49,-486.64 626,-518 605.25,-544.56 579.17,-574.54 565.97,-589.48"/>
<polygon fill="midnightblue" stroke="midnightblue" points="695.23,-428.73 698.02,-418.51 689.47,-424.77 695.23,-428.73"/>
</g>
<!-- Node9 -->
<g id="node9" class="node">
<title>Node9</title>
<g id="a_node9"><a xlink:href="_transmitter_code_2src_2main_8cpp.html#acbd0460ea44a7d07e4d77878411febb4" target="_top" xlink:title=" ">
<polygon fill="white" stroke="black" points="350,-532.5 350,-551.5 442,-551.5 442,-532.5 350,-532.5"/>
<text text-anchor="middle" x="396" y="-539.5" font-family="Helvetica,sans-Serif" font-size="10.00">SetDefaultValues</text>
</a>
</g>
</g>
<!-- Node1&#45;&gt;Node9 -->
<g id="edge40" class="edge">
<title>Node1&#45;&gt;Node9</title>
<path fill="none" stroke="midnightblue" d="M675.48,-423.02C628.73,-445.37 533.61,-489.96 451,-523 442.79,-526.28 433.76,-529.58 425.47,-532.49"/>
<polygon fill="midnightblue" stroke="midnightblue" points="677.2,-426.07 684.7,-418.59 674.17,-419.76 677.2,-426.07"/>
</g>
<!-- Node10 -->
<g id="node10" class="node">
<title>Node10</title>
<g id="a_node10"><a xlink:href="_transmitter_code_2src_2main_8cpp.html#a92c5dada5e5ef70261391557464f2d19" target="_top" xlink:title=" ">
<polygon fill="white" stroke="black" points="345.5,-190.5 345.5,-209.5 446.5,-209.5 446.5,-190.5 345.5,-190.5"/>
<text text-anchor="middle" x="396" y="-197.5" font-family="Helvetica,sans-Serif" font-size="10.00">SaveAllParameters</text>
</a>
</g>
</g>
<!-- Node1&#45;&gt;Node10 -->
<g id="edge17" class="edge">
<title>Node1&#45;&gt;Node10</title>
<path fill="none" stroke="midnightblue" d="M699.55,-389.59C690.48,-357.97 668.12,-295.53 626,-262 574.12,-220.7 496.92,-206.82 446.77,-202.21"/>
<polygon fill="midnightblue" stroke="midnightblue" points="696.22,-390.66 702.22,-399.39 702.97,-388.82 696.22,-390.66"/>
</g>
<!-- Node13 -->
<g id="node13" class="node">
<title>Node13</title>
<g id="a_node13"><a xlink:href="_transmitter_code_2src_2main_8cpp.html#a23e0cf21492258d84314ae4d1c4a9042" target="_top" xlink:title=" ">
<polygon fill="white" stroke="black" points="515,-399.5 515,-418.5 598,-418.5 598,-399.5 515,-399.5"/>
<text text-anchor="middle" x="556.5" y="-406.5" font-family="Helvetica,sans-Serif" font-size="10.00">SaveOneModel</text>
</a>
</g>
</g>
<!-- Node1&#45;&gt;Node13 -->
<g id="edge22" class="edge">
<title>Node1&#45;&gt;Node13</title>
<path fill="none" stroke="midnightblue" d="M651.82,-409C634.16,-409 614.75,-409 598.15,-409"/>
<polygon fill="midnightblue" stroke="midnightblue" points="651.98,-412.5 661.98,-409 651.98,-405.5 651.98,-412.5"/>
</g>
<!-- Node18 -->
<g id="node18" class="node">
<title>Node18</title>
<g id="a_node18"><a xlink:href="_transmitter_code_2src_2main_8cpp.html#aaf3d3b6d086a958ac8ebf1bb771adcee" target="_top" xlink:title=" ">
<polygon fill="white" stroke="black" points="487,-133.5 487,-152.5 626,-152.5 626,-133.5 487,-133.5"/>
<text text-anchor="middle" x="556.5" y="-140.5" font-family="Helvetica,sans-Serif" font-size="10.00">SaveTransmitterParameters</text>
</a>
</g>
</g>
<!-- Node1&#45;&gt;Node18 -->
<g id="edge32" class="edge">
<title>Node1&#45;&gt;Node18</title>
<path fill="none" stroke="midnightblue" d="M700.23,-389.5C691.22,-351.44 667.62,-265.67 626,-205 611.03,-183.18 586.9,-163.73 571.64,-152.66"/>
<polygon fill="midnightblue" stroke="midnightblue" points="696.83,-390.34 702.47,-399.31 703.65,-388.78 696.83,-390.34"/>
</g>
<!-- Node3 -->
<g id="node3" class="node">
<title>Node3</title>
<g id="a_node3"><a xlink:href="_transmitter_code_2src_2main_8cpp.html#a984cb52354a84c45e9e41f396a1c5e92" target="_top" xlink:title=" ">
<polygon fill="white" stroke="black" points="71,-456.5 71,-475.5 168,-475.5 168,-456.5 71,-456.5"/>
<text text-anchor="middle" x="119.5" y="-463.5" font-family="Helvetica,sans-Serif" font-size="10.00">CheckModelName</text>
</a>
</g>
</g>
<!-- Node2&#45;&gt;Node3 -->
<g id="edge2" class="edge">
<title>Node2&#45;&gt;Node3</title>
<path fill="none" stroke="midnightblue" d="M210.13,-440.39C191.92,-445.59 171.06,-451.55 154.05,-456.41"/>
<polygon fill="midnightblue" stroke="midnightblue" points="211.28,-443.7 219.94,-437.59 209.36,-436.97 211.28,-443.7"/>
</g>
<!-- Node4 -->
<g id="node4" class="node">
<title>Node4</title>
<g id="a_node4"><a xlink:href="_transmitter_code_2src_2main_8cpp.html#ad3cb30894c94eb016e98bdcaa899ac86" target="_top" xlink:title=" ">
<polygon fill="white" stroke="black" points="0,-418.5 0,-437.5 35,-437.5 35,-418.5 0,-418.5"/>
<text text-anchor="middle" x="17.5" y="-425.5" font-family="Helvetica,sans-Serif" font-size="10.00">loop</text>
</a>
</g>
</g>
<!-- Node2&#45;&gt;Node4 -->
<g id="edge4" class="edge">
<title>Node2&#45;&gt;Node4</title>
<path fill="none" stroke="midnightblue" d="M209.1,-416.2C195.97,-413.24 181.49,-410.48 168,-409 125.15,-404.3 113.46,-401.55 71,-409 58.59,-411.18 45.24,-416.04 35.11,-420.3"/>
<polygon fill="midnightblue" stroke="midnightblue" points="208.31,-419.61 218.85,-418.49 209.91,-412.8 208.31,-419.61"/>
</g>
<!-- Node5 -->
<g id="node5" class="node">
<title>Node5</title>
<g id="a_node5"><a xlink:href="_transmitter_code_2src_2main_8cpp.html#ab7c9edf843c732d7fe296564f39bc0dc" target="_top" xlink:title="RECEIVE A MODEL FILE.">
<polygon fill="white" stroke="black" points="72.5,-418.5 72.5,-437.5 166.5,-437.5 166.5,-418.5 72.5,-418.5"/>
<text text-anchor="middle" x="119.5" y="-425.5" font-family="Helvetica,sans-Serif" font-size="10.00">ReceiveModelFile</text>
</a>
</g>
</g>
<!-- Node2&#45;&gt;Node5 -->
<g id="edge5" class="edge">
<title>Node2&#45;&gt;Node5</title>
<path fill="none" stroke="midnightblue" d="M193.77,-421.28C184.63,-421.2 175.33,-421.28 166.54,-421.54"/>
<polygon fill="midnightblue" stroke="midnightblue" points="193.92,-424.78 203.98,-421.45 194.03,-417.78 193.92,-424.78"/>
</g>
<!-- Node3&#45;&gt;Node4 -->
<g id="edge3" class="edge">
<title>Node3&#45;&gt;Node4</title>
<path fill="none" stroke="midnightblue" d="M83.91,-452.86C67.44,-446.6 48.49,-439.4 35.24,-434.36"/>
<polygon fill="midnightblue" stroke="midnightblue" points="82.67,-456.13 93.27,-456.41 85.16,-449.59 82.67,-456.13"/>
</g>
<!-- Node5&#45;&gt;Node2 -->
<g id="edge6" class="edge">
<title>Node5&#45;&gt;Node2</title>
<path fill="none" stroke="midnightblue" d="M176.65,-434.68C185.72,-434.81 195.07,-434.76 203.98,-434.55"/>
<polygon fill="midnightblue" stroke="midnightblue" points="176.62,-431.18 166.54,-434.46 176.47,-438.17 176.62,-431.18"/>
</g>
<!-- Node6&#45;&gt;Node2 -->
<g id="edge8" class="edge">
<title>Node6&#45;&gt;Node2</title>
<path fill="none" stroke="midnightblue" d="M384.82,-675.4C373.88,-655.37 356.04,-622.52 341,-594 309.84,-534.93 273.47,-463.44 260.45,-437.76"/>
<polygon fill="midnightblue" stroke="midnightblue" points="381.86,-677.28 389.72,-684.38 388,-673.93 381.86,-677.28"/>
</g>
<!-- Node7 -->
<g id="node7" class="node">
<title>Node7</title>
<g id="a_node7"><a xlink:href="_transmitter_code_2src_2main_8cpp.html#a17699f358cf9f7c3155a9c5daf8ff13c" target="_top" xlink:title=" ">
<polygon fill="white" stroke="black" points="234,-684.5 234,-703.5 275,-703.5 275,-684.5 234,-684.5"/>
<text text-anchor="middle" x="254.5" y="-691.5" font-family="Helvetica,sans-Serif" font-size="10.00">setup</text>
</a>
</g>
</g>
<!-- Node6&#45;&gt;Node7 -->
<g id="edge9" class="edge">
<title>Node6&#45;&gt;Node7</title>
<path fill="none" stroke="midnightblue" d="M335.67,-694C314.03,-694 291.02,-694 275.23,-694"/>
<polygon fill="midnightblue" stroke="midnightblue" points="335.82,-697.5 345.82,-694 335.82,-690.5 335.82,-697.5"/>
</g>
<!-- Node8&#45;&gt;Node2 -->
<g id="edge11" class="edge">
<title>Node8&#45;&gt;Node2</title>
<path fill="none" stroke="midnightblue" d="M504.7,-601.1C458.36,-600.59 389.88,-593.54 341,-561 293.93,-529.66 267.25,-462.64 258.62,-437.65"/>
<polygon fill="midnightblue" stroke="midnightblue" points="504.81,-604.6 514.81,-601.11 504.82,-597.6 504.81,-604.6"/>
</g>
<!-- Node8&#45;&gt;Node3 -->
<g id="edge12" class="edge">
<title>Node8&#45;&gt;Node3</title>
<path fill="none" stroke="midnightblue" d="M504.72,-608.63C498.69,-610.21 492.66,-612 487,-614 470.13,-619.96 468.41,-627.89 451,-632 344.16,-657.22 297.45,-689.6 204,-632 145.78,-596.11 126.72,-505.82 121.89,-475.85"/>
<polygon fill="midnightblue" stroke="midnightblue" points="505.94,-611.94 514.83,-606.17 504.28,-605.14 505.94,-611.94"/>
</g>
<!-- Node8&#45;&gt;Node5 -->
<g id="edge14" class="edge">
<title>Node8&#45;&gt;Node5</title>
<path fill="none" stroke="midnightblue" d="M504.79,-606.43C460.13,-610.89 394.11,-612.3 341,-592 247.29,-556.18 254.1,-498.5 168,-447 162.05,-443.44 155.32,-440.29 148.84,-437.63"/>
<polygon fill="midnightblue" stroke="midnightblue" points="505.26,-609.9 514.82,-605.34 504.5,-602.94 505.26,-609.9"/>
</g>
<!-- Node8&#45;&gt;Node6 -->
<g id="edge13" class="edge">
<title>Node8&#45;&gt;Node6</title>
<path fill="none" stroke="midnightblue" d="M534.81,-614.69C514.22,-629.9 481.39,-653.1 451,-670 441.41,-675.33 430.4,-680.4 420.83,-684.5"/>
<polygon fill="midnightblue" stroke="midnightblue" points="537.18,-617.29 543.1,-608.5 532.99,-611.68 537.18,-617.29"/>
</g>
<!-- Node8&#45;&gt;Node9 -->
<g id="edge15" class="edge">
<title>Node8&#45;&gt;Node9</title>
<path fill="none" stroke="midnightblue" d="M519.55,-586.07C490.39,-575.58 449.93,-561.04 423.62,-551.57"/>
<polygon fill="midnightblue" stroke="midnightblue" points="518.38,-589.37 528.97,-589.46 520.75,-582.78 518.38,-589.37"/>
</g>
<!-- Node9&#45;&gt;Node2 -->
<g id="edge16" class="edge">
<title>Node9&#45;&gt;Node2</title>
<path fill="none" stroke="midnightblue" d="M350.38,-528.36C347.11,-526.75 343.94,-524.96 341,-523 305,-498.99 274.24,-456.44 261.62,-437.52"/>
<polygon fill="midnightblue" stroke="midnightblue" points="349.22,-531.68 359.79,-532.49 352.03,-525.27 349.22,-531.68"/>
</g>
<!-- Node10&#45;&gt;Node2 -->
<g id="edge18" class="edge">
<title>Node10&#45;&gt;Node2</title>
<path fill="none" stroke="midnightblue" d="M353.67,-214.3C349.04,-217.04 344.67,-220.25 341,-224 311.59,-254.05 269.93,-381.98 258.5,-418.33"/>
<polygon fill="midnightblue" stroke="midnightblue" points="355.5,-217.29 362.79,-209.6 352.3,-211.07 355.5,-217.29"/>
</g>
<!-- Node10&#45;&gt;Node5 -->
<g id="edge20" class="edge">
<title>Node10&#45;&gt;Node5</title>
<path fill="none" stroke="midnightblue" d="M335.33,-198.09C294.31,-199.82 240.82,-208.43 204,-238 143.88,-286.28 125.92,-386.61 121.65,-418.23"/>
<polygon fill="midnightblue" stroke="midnightblue" points="335.58,-201.59 345.47,-197.79 335.37,-194.59 335.58,-201.59"/>
</g>
<!-- Node11 -->
<g id="node11" class="node">
<title>Node11</title>
<g id="a_node11"><a xlink:href="_transmitter_code_2src_2main_8cpp.html#a16c65917a148c7f6c17babf11e977b69" target="_top" xlink:title=" ">
<polygon fill="white" stroke="black" points="213.5,-247.5 213.5,-266.5 295.5,-266.5 295.5,-247.5 213.5,-247.5"/>
<text text-anchor="middle" x="254.5" y="-254.5" font-family="Helvetica,sans-Serif" font-size="10.00">EndBuddyView</text>
</a>
</g>
</g>
<!-- Node10&#45;&gt;Node11 -->
<g id="edge19" class="edge">
<title>Node10&#45;&gt;Node11</title>
<path fill="none" stroke="midnightblue" d="M362.35,-213.34C336.76,-223.8 301.79,-238.09 278.93,-247.43"/>
<polygon fill="midnightblue" stroke="midnightblue" points="363.72,-216.56 371.65,-209.54 361.07,-210.08 363.72,-216.56"/>
</g>
<!-- Node12 -->
<g id="node12" class="node">
<title>Node12</title>
<g id="a_node12"><a xlink:href="_transmitter_code_2src_2main_8cpp.html#a35f886d783cd5aa95171f1ecba39ef0b" target="_top" xlink:title=" ">
<polygon fill="white" stroke="black" points="215.5,-171.5 215.5,-190.5 293.5,-190.5 293.5,-171.5 215.5,-171.5"/>
<text text-anchor="middle" x="254.5" y="-178.5" font-family="Helvetica,sans-Serif" font-size="10.00">SetupViewFM</text>
</a>
</g>
</g>
<!-- Node10&#45;&gt;Node12 -->
<g id="edge21" class="edge">
<title>Node10&#45;&gt;Node12</title>
<path fill="none" stroke="midnightblue" d="M335.25,-191.86C321.1,-189.94 306.39,-187.93 293.51,-186.18"/>
<polygon fill="midnightblue" stroke="midnightblue" points="335.04,-195.37 345.42,-193.25 335.99,-188.43 335.04,-195.37"/>
</g>
<!-- Node13&#45;&gt;Node2 -->
<g id="edge23" class="edge">
<title>Node13&#45;&gt;Node2</title>
<path fill="none" stroke="midnightblue" d="M504.74,-412.21C449.09,-415.74 360.38,-421.36 305.17,-424.85"/>
<polygon fill="midnightblue" stroke="midnightblue" points="504.97,-415.71 514.73,-411.58 504.53,-408.72 504.97,-415.71"/>
</g>
<!-- Node13&#45;&gt;Node3 -->
<g id="edge24" class="edge">
<title>Node13&#45;&gt;Node3</title>
<path fill="none" stroke="midnightblue" d="M511.03,-421.07C492.57,-425.71 470.87,-430.68 451,-434 351.07,-450.71 232.58,-459.56 168.11,-463.46"/>
<polygon fill="midnightblue" stroke="midnightblue" points="512.09,-424.42 520.91,-418.55 510.36,-417.63 512.09,-424.42"/>
</g>
<!-- Node13&#45;&gt;Node9 -->
<g id="edge31" class="edge">
<title>Node13&#45;&gt;Node9</title>
<path fill="none" stroke="midnightblue" d="M541.27,-426.51C517.9,-454.9 471.91,-509.19 451,-523 445.28,-526.78 438.72,-529.9 432.19,-532.45"/>
<polygon fill="midnightblue" stroke="midnightblue" points="544.11,-428.56 547.74,-418.6 538.7,-424.12 544.11,-428.56"/>
</g>
<!-- Node13&#45;&gt;Node10 -->
<g id="edge30" class="edge">
<title>Node13&#45;&gt;Node10</title>
<path fill="none" stroke="midnightblue" d="M542.2,-391.46C510.05,-349.07 428.98,-242.17 404.26,-209.58"/>
<polygon fill="midnightblue" stroke="midnightblue" points="539.45,-393.62 548.28,-399.48 545.02,-389.39 539.45,-393.62"/>
</g>
<!-- Node14 -->
<g id="node14" class="node">
<title>Node14</title>
<g id="a_node14"><a xlink:href="_transmitter_code_2src_2main_8cpp.html#aba44d61ea51411cb5c601beb94b6fef4" target="_top" xlink:title=" ">
<polygon fill="white" stroke="black" points="341,-342.5 341,-361.5 451,-361.5 451,-342.5 341,-342.5"/>
<text text-anchor="middle" x="396" y="-349.5" font-family="Helvetica,sans-Serif" font-size="10.00">DoNewChannelName</text>
</a>
</g>
</g>
<!-- Node13&#45;&gt;Node14 -->
<g id="edge25" class="edge">
<title>Node13&#45;&gt;Node14</title>
<path fill="none" stroke="midnightblue" d="M519.9,-395.95C499.71,-388.58 473.96,-379.21 451,-371 442.3,-367.89 432.79,-364.53 424.21,-361.51"/>
<polygon fill="midnightblue" stroke="midnightblue" points="518.74,-399.25 529.33,-399.4 521.14,-392.68 518.74,-399.25"/>
</g>
<!-- Node15 -->
<g id="node15" class="node">
<title>Node15</title>
<g id="a_node15"><a xlink:href="_transmitter_code_2src_2main_8cpp.html#afd3dd964eafc30405e000b03579dd00c" target="_top" xlink:title=" ">
<polygon fill="white" stroke="black" points="350.5,-380.5 350.5,-399.5 441.5,-399.5 441.5,-380.5 350.5,-380.5"/>
<text text-anchor="middle" x="396" y="-387.5" font-family="Helvetica,sans-Serif" font-size="10.00">EndReverseView</text>
</a>
</g>
</g>
<!-- Node13&#45;&gt;Node15 -->
<g id="edge27" class="edge">
<title>Node13&#45;&gt;Node15</title>
<path fill="none" stroke="midnightblue" d="M504.67,-402.91C484.37,-400.47 461.21,-397.7 441.58,-395.34"/>
<polygon fill="midnightblue" stroke="midnightblue" points="504.34,-406.39 514.68,-404.11 505.17,-399.44 504.34,-406.39"/>
</g>
<!-- Node16 -->
<g id="node16" class="node">
<title>Node16</title>
<g id="a_node16"><a xlink:href="_transmitter_code_2src_2main_8cpp.html#a40003084a0136ca08cf8ded75ff4aa4d" target="_top" xlink:title=" ">
<polygon fill="white" stroke="black" points="350,-304.5 350,-323.5 442,-323.5 442,-304.5 350,-304.5"/>
<text text-anchor="middle" x="396" y="-311.5" font-family="Helvetica,sans-Serif" font-size="10.00">EndSubTrimView</text>
</a>
</g>
</g>
<!-- Node13&#45;&gt;Node16 -->
<g id="edge28" class="edge">
<title>Node13&#45;&gt;Node16</title>
<path fill="none" stroke="midnightblue" d="M536.87,-392.85C516.78,-376.08 483.32,-349.97 451,-333 444.14,-329.4 436.44,-326.22 429.06,-323.56"/>
<polygon fill="midnightblue" stroke="midnightblue" points="534.73,-395.62 544.62,-399.41 539.25,-390.28 534.73,-395.62"/>
</g>
<!-- Node17 -->
<g id="node17" class="node">
<title>Node17</title>
<g id="a_node17"><a xlink:href="_transmitter_code_2src_2main_8cpp.html#a488388f6430a0fc7bec57074ba750a2d" target="_top" xlink:title=" ">
<polygon fill="white" stroke="black" points="353,-494.5 353,-513.5 439,-513.5 439,-494.5 353,-494.5"/>
<text text-anchor="middle" x="396" y="-501.5" font-family="Helvetica,sans-Serif" font-size="10.00">ExitMacrosView</text>
</a>
</g>
</g>
<!-- Node13&#45;&gt;Node17 -->
<g id="edge29" class="edge">
<title>Node13&#45;&gt;Node17</title>
<path fill="none" stroke="midnightblue" d="M534.81,-424.69C514.22,-439.9 481.39,-463.1 451,-480 441.41,-485.33 430.4,-490.4 420.83,-494.5"/>
<polygon fill="midnightblue" stroke="midnightblue" points="537.18,-427.29 543.1,-418.5 532.99,-421.68 537.18,-427.29"/>
</g>
<!-- Node14&#45;&gt;Node2 -->
<g id="edge26" class="edge">
<title>Node14&#45;&gt;Node2</title>
<path fill="none" stroke="midnightblue" d="M353.93,-365.23C349.5,-367.01 345.11,-368.95 341,-371 313.23,-384.87 283.71,-406.22 267.65,-418.47"/>
<polygon fill="midnightblue" stroke="midnightblue" points="355.5,-368.38 363.61,-361.56 353.02,-361.83 355.5,-368.38"/>
</g>
<!-- Node18&#45;&gt;Node2 -->
<g id="edge33" class="edge">
<title>Node18&#45;&gt;Node2</title>
<path fill="none" stroke="midnightblue" d="M536.43,-159.2C516.21,-175.79 482.86,-201.57 451,-219 404.95,-244.2 379.98,-226.84 341,-262 290.45,-307.6 265.3,-390.09 257.89,-418.26"/>
<polygon fill="midnightblue" stroke="midnightblue" points="538.79,-161.78 544.25,-152.7 534.32,-156.4 538.79,-161.78"/>
</g>
<!-- Node18&#45;&gt;Node10 -->
<g id="edge39" class="edge">
<title>Node18&#45;&gt;Node10</title>
<path fill="none" stroke="midnightblue" d="M519.9,-156.05C499.71,-163.42 473.96,-172.79 451,-181 442.3,-184.11 432.79,-187.47 424.21,-190.49"/>
<polygon fill="midnightblue" stroke="midnightblue" points="521.14,-159.32 529.33,-152.6 518.74,-152.75 521.14,-159.32"/>
</g>
<!-- Node19 -->
<g id="node19" class="node">
<title>Node19</title>
<g id="a_node19"><a xlink:href="_transmitter_code_2src_2main_8cpp.html#a175b6111f05e020becf6f4fc8c3e474d" target="_top" xlink:title=" ">
<polygon fill="white" stroke="black" points="353.5,-0.5 353.5,-19.5 438.5,-19.5 438.5,-0.5 353.5,-0.5"/>
<text text-anchor="middle" x="396" y="-7.5" font-family="Helvetica,sans-Serif" font-size="10.00">DefineTrimsEnd</text>
</a>
</g>
</g>
<!-- Node18&#45;&gt;Node19 -->
<g id="edge34" class="edge">
<title>Node18&#45;&gt;Node19</title>
<path fill="none" stroke="midnightblue" d="M543.22,-124.76C525.57,-99.83 490.73,-55.24 451,-29 445.28,-25.22 438.72,-22.1 432.19,-19.55"/>
<polygon fill="midnightblue" stroke="midnightblue" points="540.55,-127.04 549.12,-133.27 546.3,-123.06 540.55,-127.04"/>
</g>
<!-- Node20 -->
<g id="node20" class="node">
<title>Node20</title>
<g id="a_node20"><a xlink:href="_transmitter_code_2src_2main_8cpp.html#acb3300c8b0e64f0fb381f7b96158dfc1" target="_top" xlink:title=" ">
<polygon fill="white" stroke="black" points="369.5,-152.5 369.5,-171.5 422.5,-171.5 422.5,-152.5 369.5,-152.5"/>
<text text-anchor="middle" x="396" y="-159.5" font-family="Helvetica,sans-Serif" font-size="10.00">LogEND</text>
</a>
</g>
</g>
<!-- Node18&#45;&gt;Node20 -->
<g id="edge35" class="edge">
<title>Node18&#45;&gt;Node20</title>
<path fill="none" stroke="midnightblue" d="M476.71,-152.44C457.18,-154.79 437.6,-157.13 422.74,-158.91"/>
<polygon fill="midnightblue" stroke="midnightblue" points="477.39,-155.89 486.9,-151.22 476.56,-148.94 477.39,-155.89"/>
</g>
<!-- Node21 -->
<g id="node21" class="node">
<title>Node21</title>
<g id="a_node21"><a xlink:href="_transmitter_code_2src_2main_8cpp.html#a835d7dda94eeefe66d661ef4dc4df1a4" target="_top" xlink:title=" ">
<polygon fill="white" stroke="black" points="360,-114.5 360,-133.5 432,-133.5 432,-114.5 360,-114.5"/>
<text text-anchor="middle" x="396" y="-121.5" font-family="Helvetica,sans-Serif" font-size="10.00">Options2End</text>
</a>
</g>
</g>
<!-- Node18&#45;&gt;Node21 -->
<g id="edge36" class="edge">
<title>Node18&#45;&gt;Node21</title>
<path fill="none" stroke="midnightblue" d="M476.65,-133.55C461.02,-131.67 445.36,-129.8 432.12,-128.21"/>
<polygon fill="midnightblue" stroke="midnightblue" points="476.56,-137.06 486.9,-134.78 477.39,-130.11 476.56,-137.06"/>
</g>
<!-- Node22 -->
<g id="node22" class="node">
<title>Node22</title>
<g id="a_node22"><a xlink:href="_transmitter_code_2src_2main_8cpp.html#aa1ada50da7cf7f716d14bc9c1a7fdfe9" target="_top" xlink:title=" ">
<polygon fill="white" stroke="black" points="349.5,-76.5 349.5,-95.5 442.5,-95.5 442.5,-76.5 349.5,-76.5"/>
<text text-anchor="middle" x="396" y="-83.5" font-family="Helvetica,sans-Serif" font-size="10.00">OptionView2Start</text>
</a>
</g>
</g>
<!-- Node18&#45;&gt;Node22 -->
<g id="edge37" class="edge">
<title>Node18&#45;&gt;Node22</title>
<path fill="none" stroke="midnightblue" d="M519.9,-129.95C499.71,-122.58 473.96,-113.21 451,-105 442.3,-101.89 432.79,-98.53 424.21,-95.51"/>
<polygon fill="midnightblue" stroke="midnightblue" points="518.74,-133.25 529.33,-133.4 521.14,-126.68 518.74,-133.25"/>
</g>
<!-- Node23 -->
<g id="node23" class="node">
<title>Node23</title>
<g id="a_node23"><a xlink:href="_transmitter_code_2src_2main_8cpp.html#ab71829b0aee177464a613b151545c08a" target="_top" xlink:title=" ">
<polygon fill="white" stroke="black" points="351.5,-38.5 351.5,-57.5 440.5,-57.5 440.5,-38.5 351.5,-38.5"/>
<text text-anchor="middle" x="396" y="-45.5" font-family="Helvetica,sans-Serif" font-size="10.00">OptionView3End</text>
</a>
</g>
</g>
<!-- Node18&#45;&gt;Node23 -->
<g id="edge38" class="edge">
<title>Node18&#45;&gt;Node23</title>
<path fill="none" stroke="midnightblue" d="M536.87,-126.85C516.78,-110.08 483.32,-83.97 451,-67 444.14,-63.4 436.44,-60.22 429.06,-57.56"/>
<polygon fill="midnightblue" stroke="midnightblue" points="534.73,-129.62 544.62,-133.41 539.25,-124.28 534.73,-129.62"/>
</g>
</g>
</svg>
