<?xml version="1.0" encoding="UTF-8" standalone="no"?>
<!DOCTYPE svg PUBLIC "-//W3C//DTD SVG 1.1//EN"
 "http://www.w3.org/Graphics/SVG/1.1/DTD/svg11.dtd">
<!-- Generated by graphviz version 3.0.0 (20220413.0242)
 -->
<!-- Title: ShowConnectionQuality Pages: 1 -->
<svg width="466pt" height="117pt"
 viewBox="0.00 0.00 466.00 116.66" xmlns="http://www.w3.org/2000/svg" xmlns:xlink="http://www.w3.org/1999/xlink">
<g id="graph0" class="graph" transform="scale(1 1) rotate(0) translate(4 112.66)">
<title>ShowConnectionQuality</title>
<polygon fill="white" stroke="transparent" points="-4,4 -4,-112.66 462,-112.66 462,4 -4,4"/>
<!-- Node1 -->
<g id="node1" class="node">
<title>Node1</title>
<g id="a_node1"><a xlink:title=" ">
<polygon fill="#bfbfbf" stroke="black" points="0,-57.5 0,-76.5 120,-76.5 120,-57.5 0,-57.5"/>
<text text-anchor="middle" x="60" y="-64.5" font-family="Helvetica,sans-Serif" font-size="10.00">ShowConnectionQuality</text>
</a>
</g>
</g>
<!-- Node2 -->
<g id="node2" class="node">
<title>Node2</title>
<g id="a_node2"><a xlink:href="_transmitter_code_2src_2main_8cpp.html#afe513398f72d5e48f691830a1ef6eb42" target="_top" xlink:title=" ">
<polygon fill="white" stroke="black" points="159,-76.5 159,-95.5 217,-95.5 217,-76.5 159,-76.5"/>
<text text-anchor="middle" x="188" y="-83.5" font-family="Helvetica,sans-Serif" font-size="10.00">SendText</text>
</a>
</g>
</g>
<!-- Node1&#45;&gt;Node2 -->
<g id="edge1" class="edge">
<title>Node1&#45;&gt;Node2</title>
<path fill="none" stroke="midnightblue" d="M120.31,-75.94C129.94,-77.4 139.69,-78.87 148.65,-80.22"/>
<polygon fill="midnightblue" stroke="midnightblue" points="148.34,-83.71 158.76,-81.74 149.39,-76.79 148.34,-83.71"/>
</g>
<!-- Node5 -->
<g id="node5" class="node">
<title>Node5</title>
<g id="a_node5"><a xlink:href="_transmitter_code_2src_2main_8cpp.html#a1e20efc1e419b252b50d36f9924503fc" target="_top" xlink:title=" ">
<polygon fill="white" stroke="black" points="156,-38.5 156,-57.5 220,-57.5 220,-38.5 156,-38.5"/>
<text text-anchor="middle" x="188" y="-45.5" font-family="Helvetica,sans-Serif" font-size="10.00">SendValue</text>
</a>
</g>
</g>
<!-- Node1&#45;&gt;Node5 -->
<g id="edge5" class="edge">
<title>Node1&#45;&gt;Node5</title>
<path fill="none" stroke="midnightblue" d="M120.31,-58.06C128.93,-56.76 137.64,-55.44 145.79,-54.21"/>
<polygon fill="midnightblue" stroke="midnightblue" points="146.41,-57.66 155.77,-52.71 145.36,-50.74 146.41,-57.66"/>
</g>
<!-- Node3 -->
<g id="node3" class="node">
<title>Node3</title>
<g id="a_node3"><a xlink:href="_transmitter_code_2src_2main_8cpp.html#a43937dd3d9c795271fd9c3eb3c6b6410" target="_top" xlink:title=" ">
<polygon fill="white" stroke="black" points="375,-76.5 375,-95.5 458,-95.5 458,-76.5 375,-76.5"/>
<text text-anchor="middle" x="416.5" y="-83.5" font-family="Helvetica,sans-Serif" font-size="10.00">GetReturnCode</text>
</a>
</g>
</g>
<!-- Node2&#45;&gt;Node3 -->
<g id="edge2" class="edge">
<title>Node2&#45;&gt;Node3</title>
<path fill="none" stroke="midnightblue" d="M216.02,-95.5C228.09,-99.27 242.59,-103.14 256,-105 292.54,-110.08 302.38,-109.48 339,-105 350.77,-103.56 363.33,-100.92 374.8,-98.06"/>
<polygon fill="midnightblue" stroke="midnightblue" points="375.77,-101.42 384.56,-95.51 374,-94.65 375.77,-101.42"/>
</g>
<!-- Node4 -->
<g id="node4" class="node">
<title>Node4</title>
<g id="a_node4"><a xlink:href="_transmitter_code_2src_2main_8cpp.html#aecac2f0c289f02ef3c92b85be82eacac" target="_top" xlink:title=" ">
<polygon fill="white" stroke="black" points="256,-76.5 256,-95.5 339,-95.5 339,-76.5 256,-76.5"/>
<text text-anchor="middle" x="297.5" y="-83.5" font-family="Helvetica,sans-Serif" font-size="10.00">SendCommand</text>
</a>
</g>
</g>
<!-- Node2&#45;&gt;Node4 -->
<g id="edge3" class="edge">
<title>Node2&#45;&gt;Node4</title>
<path fill="none" stroke="midnightblue" d="M217.24,-86C226.02,-86 235.97,-86 245.79,-86"/>
<polygon fill="midnightblue" stroke="midnightblue" points="245.91,-89.5 255.91,-86 245.91,-82.5 245.91,-89.5"/>
</g>
<!-- Node4&#45;&gt;Node3 -->
<g id="edge4" class="edge">
<title>Node4&#45;&gt;Node3</title>
<path fill="none" stroke="midnightblue" d="M339.09,-86C347.35,-86 356.14,-86 364.7,-86"/>
<polygon fill="midnightblue" stroke="midnightblue" points="364.98,-89.5 374.98,-86 364.98,-82.5 364.98,-89.5"/>
</g>
<!-- Node5&#45;&gt;Node3 -->
<g id="edge6" class="edge">
<title>Node5&#45;&gt;Node3</title>
<path fill="none" stroke="midnightblue" d="M220.19,-50.87C250.65,-53.93 298.23,-59.38 339,-67 349.4,-68.94 360.49,-71.44 370.91,-73.99"/>
<polygon fill="midnightblue" stroke="midnightblue" points="370.1,-77.4 380.65,-76.43 371.8,-70.61 370.1,-77.4"/>
</g>
<!-- Node5&#45;&gt;Node4 -->
<g id="edge7" class="edge">
<title>Node5&#45;&gt;Node4</title>
<path fill="none" stroke="midnightblue" d="M216.13,-57.59C229.37,-62.27 245.49,-67.97 259.81,-73.03"/>
<polygon fill="midnightblue" stroke="midnightblue" points="258.79,-76.38 269.38,-76.41 261.12,-69.78 258.79,-76.38"/>
</g>
<!-- Node6 -->
<g id="node6" class="node">
<title>Node6</title>
<g id="a_node6"><a xlink:href="_transmitter_code_2src_2main_8cpp.html#a590a9174319918d7e3d7baca323fcf26" target="_top" xlink:title=" ">
<polygon fill="white" stroke="black" points="283,-0.5 283,-19.5 312,-19.5 312,-0.5 283,-0.5"/>
<text text-anchor="middle" x="297.5" y="-7.5" font-family="Helvetica,sans-Serif" font-size="10.00">Str</text>
</a>
</g>
</g>
<!-- Node5&#45;&gt;Node6 -->
<g id="edge8" class="edge">
<title>Node5&#45;&gt;Node6</title>
<path fill="none" stroke="midnightblue" d="M216.13,-38.41C233.74,-32.18 256.46,-24.15 273.25,-18.22"/>
<polygon fill="midnightblue" stroke="midnightblue" points="274.58,-21.46 282.84,-14.83 272.24,-14.86 274.58,-21.46"/>
</g>
</g>
</svg>
