<?xml version="1.0" encoding="UTF-8" standalone="no"?>
<!DOCTYPE svg PUBLIC "-//W3C//DTD SVG 1.1//EN"
 "http://www.w3.org/Graphics/SVG/1.1/DTD/svg11.dtd">
<!-- Generated by graphviz version 2.44.0 ()
 -->
<!-- Title: SaveOneModel Pages: 1 -->
<svg width="218pt" height="104pt"
 viewBox="0.00 0.00 218.00 104.00" xmlns="http://www.w3.org/2000/svg" xmlns:xlink="http://www.w3.org/1999/xlink">
<g id="graph0" class="graph" transform="scale(1 1) rotate(0) translate(4 100)">
<title>SaveOneModel</title>
<polygon fill="white" stroke="transparent" points="-4,4 -4,-100 214,-100 214,4 -4,4"/>
<!-- Node1 -->
<g id="node1" class="node">
<title>Node1</title>
<g id="a_node1"><a xlink:title=" ">
<polygon fill="#bfbfbf" stroke="black" points="0,-38.5 0,-57.5 83,-57.5 83,-38.5 0,-38.5"/>
<text text-anchor="middle" x="41.5" y="-45.5" font-family="Helvetica,sans-Serif" font-size="10.00">SaveOneModel</text>
</a>
</g>
</g>
<!-- Node2 -->
<g id="node2" class="node">
<title>Node2</title>
<g id="a_node2"><a xlink:href="_transmitter_code_2src_2main_8cpp.html#a6922974b734cfe3a511e074a2d6ac33c" target="_top" xlink:title=" ">
<polygon fill="white" stroke="black" points="120,-76.5 120,-95.5 209,-95.5 209,-76.5 120,-76.5"/>
<text text-anchor="middle" x="164.5" y="-83.5" font-family="Helvetica,sans-Serif" font-size="10.00">CloseModelsFile</text>
</a>
</g>
</g>
<!-- Node1&#45;&gt;Node2 -->
<g id="edge1" class="edge">
<title>Node1&#45;&gt;Node2</title>
<path fill="none" stroke="midnightblue" d="M73.03,-57.59C88.22,-62.36 106.79,-68.19 123.13,-73.32"/>
<polygon fill="midnightblue" stroke="midnightblue" points="122.39,-76.76 132.98,-76.41 124.48,-70.08 122.39,-76.76"/>
</g>
<!-- Node3 -->
<g id="node3" class="node">
<title>Node3</title>
<g id="a_node3"><a xlink:href="_transmitter_code_2src_2main_8cpp.html#ae7618f38a148877bc5681be58cba8354" target="_top" xlink:title=" ">
<polygon fill="white" stroke="black" points="121,-38.5 121,-57.5 208,-57.5 208,-38.5 121,-38.5"/>
<text text-anchor="middle" x="164.5" y="-45.5" font-family="Helvetica,sans-Serif" font-size="10.00">OpenModelsFile</text>
</a>
</g>
</g>
<!-- Node1&#45;&gt;Node3 -->
<g id="edge2" class="edge">
<title>Node1&#45;&gt;Node3</title>
<path fill="none" stroke="midnightblue" d="M83.13,-48C91.91,-48 101.31,-48 110.49,-48"/>
<polygon fill="midnightblue" stroke="midnightblue" points="110.7,-51.5 120.7,-48 110.7,-44.5 110.7,-51.5"/>
</g>
<!-- Node4 -->
<g id="node4" class="node">
<title>Node4</title>
<g id="a_node4"><a xlink:href="_transmitter_code_2src_2main_8cpp.html#aa23fbf1545f0ee1aa2eeee1841178d4b" target="_top" xlink:title=" ">
<polygon fill="white" stroke="black" points="119,-0.5 119,-19.5 210,-19.5 210,-0.5 119,-0.5"/>
<text text-anchor="middle" x="164.5" y="-7.5" font-family="Helvetica,sans-Serif" font-size="10.00">SDUpdateuint8_t</text>
</a>
</g>
</g>
<!-- Node1&#45;&gt;Node4 -->
<g id="edge3" class="edge">
<title>Node1&#45;&gt;Node4</title>
<path fill="none" stroke="midnightblue" d="M73.03,-38.41C88.22,-33.64 106.79,-27.81 123.13,-22.68"/>
<polygon fill="midnightblue" stroke="midnightblue" points="124.48,-25.92 132.98,-19.59 122.39,-19.24 124.48,-25.92"/>
</g>
</g>
</svg>
