<?xml version="1.0" encoding="UTF-8" standalone="no"?>
<!DOCTYPE svg PUBLIC "-//W3C//DTD SVG 1.1//EN"
 "http://www.w3.org/Graphics/SVG/1.1/DTD/svg11.dtd">
<!-- Generated by graphviz version 2.49.3 (20211027.1534)
 -->
<!-- Title: GetRXVersionNumber Pages: 1 -->
<svg width="692pt" height="175pt"
 viewBox="0.00 0.00 692.00 175.03" xmlns="http://www.w3.org/2000/svg" xmlns:xlink="http://www.w3.org/1999/xlink">
<g id="graph0" class="graph" transform="scale(1 1) rotate(0) translate(4 171.03)">
<title>GetRXVersionNumber</title>
<polygon fill="white" stroke="transparent" points="-4,4 -4,-171.03 688,-171.03 688,4 -4,4"/>
<!-- Node1 -->
<g id="node1" class="node">
<title>Node1</title>
<g id="a_node1"><a xlink:title=" ">
<polygon fill="#bfbfbf" stroke="black" points="0,-14.53 0,-33.53 113,-33.53 113,-14.53 0,-14.53"/>
<text text-anchor="middle" x="56.5" y="-21.53" font-family="Helvetica,sans-Serif" font-size="10.00">GetRXVersionNumber</text>
</a>
</g>
</g>
<!-- Node2 -->
<g id="node2" class="node">
<title>Node2</title>
<g id="a_node2"><a xlink:href="_transmitter_code_2src_2main_8cpp.html#a436844f605001cad62b48d890e11fe2c" target="_top" xlink:title=" ">
<polygon fill="white" stroke="black" points="149,-33.53 149,-52.53 214,-52.53 214,-33.53 149,-33.53"/>
<text text-anchor="middle" x="181.5" y="-40.53" font-family="Helvetica,sans-Serif" font-size="10.00">LogThisRX</text>
</a>
</g>
</g>
<!-- Node1&#45;&gt;Node2 -->
<g id="edge1" class="edge">
<title>Node1&#45;&gt;Node2</title>
<path fill="none" stroke="midnightblue" d="M113.24,-32.64C121.82,-33.97 130.55,-35.32 138.76,-36.59"/>
<polygon fill="midnightblue" stroke="midnightblue" points="138.41,-40.07 148.82,-38.14 139.48,-33.15 138.41,-40.07"/>
</g>
<!-- Node6 -->
<g id="node6" class="node">
<title>Node6</title>
<g id="a_node6"><a xlink:href="_transmitter_code_2src_2main_8cpp.html#a6bac145d5df31efb9c90e2a60a4cbca5" target="_top" xlink:title=" ">
<polygon fill="white" stroke="black" points="655,-71.53 655,-90.53 684,-90.53 684,-71.53 655,-71.53"/>
<text text-anchor="middle" x="669.5" y="-78.53" font-family="Helvetica,sans-Serif" font-size="10.00">Str</text>
</a>
</g>
</g>
<!-- Node1&#45;&gt;Node6 -->
<g id="edge12" class="edge">
<title>Node1&#45;&gt;Node6</title>
<path fill="none" stroke="midnightblue" d="M113.31,-17.01C161.17,-11.6 232.01,-5.03 294,-5.03 294,-5.03 294,-5.03 431,-5.03 514.98,-5.03 544.44,14.61 619,-24.03 635.67,-32.67 649.18,-49.49 657.85,-62.63"/>
<polygon fill="midnightblue" stroke="midnightblue" points="655.03,-64.73 663.28,-71.37 660.98,-61.03 655.03,-64.73"/>
</g>
<!-- Node3 -->
<g id="node3" class="node">
<title>Node3</title>
<g id="a_node3"><a xlink:href="_transmitter_code_2src_2main_8cpp.html#a245cf37e2504095132bfcf03f2eeaa93" target="_top" xlink:title=" ">
<polygon fill="white" stroke="black" points="250,-71.53 250,-90.53 340,-90.53 340,-71.53 250,-71.53"/>
<text text-anchor="middle" x="295" y="-78.53" font-family="Helvetica,sans-Serif" font-size="10.00">LogFilePreamble</text>
</a>
</g>
</g>
<!-- Node2&#45;&gt;Node3 -->
<g id="edge2" class="edge">
<title>Node2&#45;&gt;Node3</title>
<path fill="none" stroke="midnightblue" d="M210.64,-52.62C224.5,-57.35 241.42,-63.11 256.38,-68.21"/>
<polygon fill="midnightblue" stroke="midnightblue" points="255.28,-71.53 265.87,-71.45 257.54,-64.91 255.28,-71.53"/>
</g>
<!-- Node10 -->
<g id="node10" class="node">
<title>Node10</title>
<g id="a_node10"><a xlink:href="_transmitter_code_2src_2main_8cpp.html#ad533b143a4eb329828117f9884135686" target="_top" xlink:title=" ">
<polygon fill="white" stroke="black" points="388.5,-33.53 388.5,-52.53 471.5,-52.53 471.5,-33.53 388.5,-33.53"/>
<text text-anchor="middle" x="430" y="-40.53" font-family="Helvetica,sans-Serif" font-size="10.00">WriteToLogFile</text>
</a>
</g>
</g>
<!-- Node2&#45;&gt;Node10 -->
<g id="edge11" class="edge">
<title>Node2&#45;&gt;Node10</title>
<path fill="none" stroke="midnightblue" d="M214.22,-43.03C255.74,-43.03 329,-43.03 378.27,-43.03"/>
<polygon fill="midnightblue" stroke="midnightblue" points="378.4,-46.53 388.4,-43.03 378.4,-39.53 378.4,-46.53"/>
</g>
<!-- Node4 -->
<g id="node4" class="node">
<title>Node4</title>
<g id="a_node4"><a xlink:href="_transmitter_code_2src_2main_8cpp.html#af1f22897d7015a4a32b072f02bf7e013" target="_top" xlink:title=" ">
<polygon fill="white" stroke="black" points="376,-109.53 376,-128.53 484,-128.53 484,-109.53 376,-109.53"/>
<text text-anchor="middle" x="430" y="-116.53" font-family="Helvetica,sans-Serif" font-size="10.00">CheckLogFileIsOpen</text>
</a>
</g>
</g>
<!-- Node3&#45;&gt;Node4 -->
<g id="edge3" class="edge">
<title>Node3&#45;&gt;Node4</title>
<path fill="none" stroke="midnightblue" d="M329.56,-90.62C346.57,-95.48 367.43,-101.44 385.64,-106.65"/>
<polygon fill="midnightblue" stroke="midnightblue" points="384.87,-110.07 395.45,-109.45 386.8,-103.33 384.87,-110.07"/>
</g>
<!-- Node8 -->
<g id="node8" class="node">
<title>Node8</title>
<g id="a_node8"><a xlink:href="_transmitter_code_2src_2main_8cpp.html#a7c6f60956ed82b2b20275f9a55b392a8" target="_top" xlink:title=" ">
<polygon fill="white" stroke="black" points="382.5,-71.53 382.5,-90.53 477.5,-90.53 477.5,-71.53 382.5,-71.53"/>
<text text-anchor="middle" x="430" y="-78.53" font-family="Helvetica,sans-Serif" font-size="10.00">CreateTimeStamp</text>
</a>
</g>
</g>
<!-- Node3&#45;&gt;Node8 -->
<g id="edge7" class="edge">
<title>Node3&#45;&gt;Node8</title>
<path fill="none" stroke="midnightblue" d="M340.29,-81.03C350.48,-81.03 361.46,-81.03 372.1,-81.03"/>
<polygon fill="midnightblue" stroke="midnightblue" points="372.17,-84.53 382.17,-81.03 372.17,-77.53 372.17,-84.53"/>
</g>
<!-- Node3&#45;&gt;Node10 -->
<g id="edge10" class="edge">
<title>Node3&#45;&gt;Node10</title>
<path fill="none" stroke="midnightblue" d="M329.56,-71.44C346.57,-66.58 367.43,-60.62 385.64,-55.42"/>
<polygon fill="midnightblue" stroke="midnightblue" points="386.8,-58.73 395.45,-52.62 384.87,-52 386.8,-58.73"/>
</g>
<!-- Node5 -->
<g id="node5" class="node">
<title>Node5</title>
<g id="a_node5"><a xlink:href="_transmitter_code_2src_2main_8cpp.html#a205517052fef38205271cdef51852022" target="_top" xlink:title=" ">
<polygon fill="white" stroke="black" points="520,-147.53 520,-166.53 619,-166.53 619,-147.53 520,-147.53"/>
<text text-anchor="middle" x="569.5" y="-154.53" font-family="Helvetica,sans-Serif" font-size="10.00">MakeLogFileName</text>
</a>
</g>
</g>
<!-- Node4&#45;&gt;Node5 -->
<g id="edge4" class="edge">
<title>Node4&#45;&gt;Node5</title>
<path fill="none" stroke="midnightblue" d="M465.7,-128.62C483.37,-133.51 505.05,-139.5 523.94,-144.72"/>
<polygon fill="midnightblue" stroke="midnightblue" points="523.24,-148.16 533.81,-147.45 525.11,-141.41 523.24,-148.16"/>
</g>
<!-- Node7 -->
<g id="node7" class="node">
<title>Node7</title>
<g id="a_node7"><a xlink:href="_transmitter_code_2src_2main_8cpp.html#acfdde90c4cdda343445ae69343aa89da" target="_top" xlink:title=" ">
<polygon fill="white" stroke="black" points="529,-109.53 529,-128.53 610,-128.53 610,-109.53 529,-109.53"/>
<text text-anchor="middle" x="569.5" y="-116.53" font-family="Helvetica,sans-Serif" font-size="10.00">OpenLogFileW</text>
</a>
</g>
</g>
<!-- Node4&#45;&gt;Node7 -->
<g id="edge6" class="edge">
<title>Node4&#45;&gt;Node7</title>
<path fill="none" stroke="midnightblue" d="M484.16,-119.03C495.5,-119.03 507.44,-119.03 518.65,-119.03"/>
<polygon fill="midnightblue" stroke="midnightblue" points="518.7,-122.53 528.7,-119.03 518.7,-115.53 518.7,-122.53"/>
</g>
<!-- Node5&#45;&gt;Node6 -->
<g id="edge5" class="edge">
<title>Node5&#45;&gt;Node6</title>
<path fill="none" stroke="midnightblue" d="M601.4,-147.51C607.52,-144.93 613.68,-141.79 619,-138.03 633.99,-127.45 647.39,-111.39 656.46,-99.02"/>
<polygon fill="midnightblue" stroke="midnightblue" points="659.36,-100.98 662.25,-90.78 653.63,-96.95 659.36,-100.98"/>
</g>
<!-- Node8&#45;&gt;Node6 -->
<g id="edge9" class="edge">
<title>Node8&#45;&gt;Node6</title>
<path fill="none" stroke="midnightblue" d="M477.64,-81.03C527.8,-81.03 605.6,-81.03 644.56,-81.03"/>
<polygon fill="midnightblue" stroke="midnightblue" points="644.9,-84.53 654.9,-81.03 644.9,-77.53 644.9,-84.53"/>
</g>
<!-- Node9 -->
<g id="node9" class="node">
<title>Node9</title>
<g id="a_node9"><a xlink:href="_transmitter_code_2src_2main_8cpp.html#ae310e7fc6397929ae886869c05cbc334" target="_top" xlink:title=" ">
<polygon fill="white" stroke="black" points="528,-33.53 528,-52.53 611,-52.53 611,-33.53 528,-33.53"/>
<text text-anchor="middle" x="569.5" y="-40.53" font-family="Helvetica,sans-Serif" font-size="10.00">MayBeAddZero</text>
</a>
</g>
</g>
<!-- Node8&#45;&gt;Node9 -->
<g id="edge8" class="edge">
<title>Node8&#45;&gt;Node9</title>
<path fill="none" stroke="midnightblue" d="M465.7,-71.44C483.37,-66.56 505.05,-60.57 523.94,-55.35"/>
<polygon fill="midnightblue" stroke="midnightblue" points="525.11,-58.66 533.81,-52.62 523.24,-51.91 525.11,-58.66"/>
</g>
</g>
</svg>
