<?xml version="1.0" encoding="UTF-8" standalone="no"?>
<!DOCTYPE svg PUBLIC "-//W3C//DTD SVG 1.1//EN"
 "http://www.w3.org/Graphics/SVG/1.1/DTD/svg11.dtd">
<!-- Generated by graphviz version 3.0.0 (20220413.0106)
 -->
<!-- Title: SendText Pages: 1 -->
<svg width="760pt" height="611pt"
 viewBox="0.00 0.00 760.00 611.23" xmlns="http://www.w3.org/2000/svg" xmlns:xlink="http://www.w3.org/1999/xlink">
<g id="graph0" class="graph" transform="scale(1 1) rotate(0) translate(4 607.23)">
<title>SendText</title>
<polygon fill="white" stroke="transparent" points="-4,4 -4,-607.23 756,-607.23 756,4 -4,4"/>
<!-- Node1 -->
<g id="node1" class="node">
<title>Node1</title>
<g id="a_node1"><a xlink:title=" ">
<polygon fill="#bfbfbf" stroke="black" points="694,-369.53 694,-388.53 752,-388.53 752,-369.53 694,-369.53"/>
<text text-anchor="middle" x="723" y="-376.53" font-family="Helvetica,sans-Serif" font-size="10.00">SendText</text>
</a>
</g>
</g>
<!-- Node2 -->
<g id="node2" class="node">
<title>Node2</title>
<g id="a_node2"><a xlink:href="_transmitter_code_2src_2main_8cpp.html#a8e7ccbf842764fd85cc578be263f7202" target="_top" xlink:title=" ">
<polygon fill="white" stroke="black" points="71,-388.53 71,-407.53 172,-407.53 172,-388.53 71,-388.53"/>
<text text-anchor="middle" x="121.5" y="-395.53" font-family="Helvetica,sans-Serif" font-size="10.00">ButtonWasPressed</text>
</a>
</g>
</g>
<!-- Node1&#45;&gt;Node2 -->
<g id="edge1" class="edge">
<title>Node1&#45;&gt;Node2</title>
<path fill="none" stroke="midnightblue" d="M701.22,-394.66C689.23,-402.81 673.5,-412.08 658,-417.03 467.4,-477.89 404.48,-467.84 208,-430.03 184.65,-425.54 159.31,-415.32 142.33,-407.64"/>
<polygon fill="midnightblue" stroke="midnightblue" points="703.45,-397.37 709.59,-388.74 699.41,-391.66 703.45,-397.37"/>
</g>
<!-- Node4 -->
<g id="node4" class="node">
<title>Node4</title>
<g id="a_node4"><a xlink:href="_transmitter_code_2src_2main_8cpp.html#a483cced19b61975f76957f5696425fe9" target="_top" xlink:title=" ">
<polygon fill="white" stroke="black" points="373.5,-8.53 373.5,-27.53 434.5,-27.53 434.5,-8.53 373.5,-8.53"/>
<text text-anchor="middle" x="404" y="-15.53" font-family="Helvetica,sans-Serif" font-size="10.00">ReadTime</text>
</a>
</g>
</g>
<!-- Node1&#45;&gt;Node4 -->
<g id="edge3" class="edge">
<title>Node1&#45;&gt;Node4</title>
<path fill="none" stroke="midnightblue" d="M721.25,-359.26C718.31,-293.71 705.34,-85.16 658,-42.03 596.19,14.27 487.26,0.37 434.83,-10.65"/>
<polygon fill="midnightblue" stroke="midnightblue" points="717.76,-359.61 721.67,-369.46 724.75,-359.32 717.76,-359.61"/>
</g>
<!-- Node5 -->
<g id="node5" class="node">
<title>Node5</title>
<g id="a_node5"><a xlink:href="_transmitter_code_2src_2main_8cpp.html#ab7c9edf843c732d7fe296564f39bc0dc" target="_top" xlink:title="RECEIVE A MODEL FILE.">
<polygon fill="white" stroke="black" points="211,-312.53 211,-331.53 305,-331.53 305,-312.53 211,-312.53"/>
<text text-anchor="middle" x="258" y="-319.53" font-family="Helvetica,sans-Serif" font-size="10.00">ReceiveModelFile</text>
</a>
</g>
</g>
<!-- Node1&#45;&gt;Node5 -->
<g id="edge5" class="edge">
<title>Node1&#45;&gt;Node5</title>
<path fill="none" stroke="midnightblue" d="M683.79,-374.33C599.29,-363.92 396.82,-339 305.3,-327.73"/>
<polygon fill="midnightblue" stroke="midnightblue" points="683.38,-377.8 693.73,-375.55 684.24,-370.86 683.38,-377.8"/>
</g>
<!-- Node6 -->
<g id="node6" class="node">
<title>Node6</title>
<g id="a_node6"><a xlink:href="_transmitter_code_2src_2main_8cpp.html#a5616f31633181a5cefde5d7cb6210d3f" target="_top" xlink:title=" ">
<polygon fill="white" stroke="black" points="537,-578.53 537,-597.53 621,-597.53 621,-578.53 537,-578.53"/>
<text text-anchor="middle" x="579" y="-585.53" font-family="Helvetica,sans-Serif" font-size="10.00">SendMixValues</text>
</a>
</g>
</g>
<!-- Node1&#45;&gt;Node6 -->
<g id="edge7" class="edge">
<title>Node1&#45;&gt;Node6</title>
<path fill="none" stroke="midnightblue" d="M721.31,-399.07C718.85,-437.86 707.74,-523.39 658,-569.03 648.04,-578.17 634.43,-583.11 621.36,-585.72"/>
<polygon fill="midnightblue" stroke="midnightblue" points="724.83,-398.79 721.83,-388.63 717.84,-398.44 724.83,-398.79"/>
</g>
<!-- Node7 -->
<g id="node7" class="node">
<title>Node7</title>
<g id="a_node7"><a xlink:href="_transmitter_code_2src_2main_8cpp.html#a4fc01d736fe50cf5b977f755b675f11d" target="_top" xlink:title=" ">
<polygon fill="white" stroke="black" points="101,-198.53 101,-217.53 142,-217.53 142,-198.53 101,-198.53"/>
<text text-anchor="middle" x="121.5" y="-205.53" font-family="Helvetica,sans-Serif" font-size="10.00">setup</text>
</a>
</g>
</g>
<!-- Node1&#45;&gt;Node7 -->
<g id="edge9" class="edge">
<title>Node1&#45;&gt;Node7</title>
<path fill="none" stroke="midnightblue" d="M717.94,-359.31C710.65,-328.09 692.77,-266.75 658,-227.03 592.13,-151.78 560.5,-139.28 464,-113.03 354.21,-83.16 311.94,-66.74 208,-113.03 187.53,-122.15 146.13,-176.03 129.58,-198.35"/>
<polygon fill="midnightblue" stroke="midnightblue" points="714.58,-360.35 720.15,-369.36 721.42,-358.84 714.58,-360.35"/>
</g>
<!-- Node8 -->
<g id="node8" class="node">
<title>Node8</title>
<g id="a_node8"><a xlink:href="_transmitter_code_2src_2main_8cpp.html#a5d3a46c21927cf7a3031a1e68e0b7b48" target="_top" xlink:title="SHOW COMMS.">
<polygon fill="white" stroke="black" points="220.5,-46.53 220.5,-65.53 295.5,-65.53 295.5,-46.53 220.5,-46.53"/>
<text text-anchor="middle" x="258" y="-53.53" font-family="Helvetica,sans-Serif" font-size="10.00">ShowComms</text>
</a>
</g>
</g>
<!-- Node1&#45;&gt;Node8 -->
<g id="edge10" class="edge">
<title>Node1&#45;&gt;Node8</title>
<path fill="none" stroke="midnightblue" d="M720.78,-359.09C716.61,-298.23 700.74,-116.76 658,-80.03 604.45,-34 383.91,-45.99 295.7,-52.84"/>
<polygon fill="midnightblue" stroke="midnightblue" points="717.3,-359.53 721.44,-369.29 724.29,-359.08 717.3,-359.53"/>
</g>
<!-- Node10 -->
<g id="node10" class="node">
<title>Node10</title>
<g id="a_node10"><a xlink:href="_transmitter_code_2src_2main_8cpp.html#aa337d6e5cf496fbca7cdc61818f8239a" target="_top" xlink:title="updates display in textbox">
<polygon fill="white" stroke="black" points="533,-540.53 533,-559.53 625,-559.53 625,-540.53 533,-540.53"/>
<text text-anchor="middle" x="579" y="-547.53" font-family="Helvetica,sans-Serif" font-size="10.00">ShowFileNumber</text>
</a>
</g>
</g>
<!-- Node1&#45;&gt;Node10 -->
<g id="edge14" class="edge">
<title>Node1&#45;&gt;Node10</title>
<path fill="none" stroke="midnightblue" d="M718.76,-399.09C712.61,-430.65 696.26,-491.84 658,-526.03 648.81,-534.24 636.86,-539.65 625.08,-543.2"/>
<polygon fill="midnightblue" stroke="midnightblue" points="722.26,-399.37 720.59,-388.91 715.37,-398.13 722.26,-399.37"/>
</g>
<!-- Node11 -->
<g id="node11" class="node">
<title>Node11</title>
<g id="a_node11"><a xlink:href="_transmitter_code_2src_2main_8cpp.html#abf59862cf6c4e3df5a76f0bfea8919ef" target="_top" xlink:title=" ">
<polygon fill="white" stroke="black" points="526,-388.53 526,-407.53 632,-407.53 632,-388.53 526,-388.53"/>
<text text-anchor="middle" x="579" y="-395.53" font-family="Helvetica,sans-Serif" font-size="10.00">UpdateButtonLabels</text>
</a>
</g>
</g>
<!-- Node1&#45;&gt;Node11 -->
<g id="edge16" class="edge">
<title>Node1&#45;&gt;Node11</title>
<path fill="none" stroke="midnightblue" d="M683.95,-384.12C668.04,-386.25 649.29,-388.76 632.14,-391.05"/>
<polygon fill="midnightblue" stroke="midnightblue" points="684.5,-387.58 693.95,-382.78 683.57,-380.64 684.5,-387.58"/>
</g>
<!-- Node15 -->
<g id="node15" class="node">
<title>Node15</title>
<g id="a_node15"><a xlink:href="_transmitter_code_2src_2main_8cpp.html#a9e1de754e1d2d483fb15957f70cf0488" target="_top" xlink:title=" ">
<polygon fill="white" stroke="black" points="500,-236.53 500,-255.53 658,-255.53 658,-236.53 500,-236.53"/>
<text text-anchor="middle" x="579" y="-243.53" font-family="Helvetica,sans-Serif" font-size="10.00">UpdateModelsNameEveryWhere</text>
</a>
</g>
</g>
<!-- Node1&#45;&gt;Node15 -->
<g id="edge26" class="edge">
<title>Node1&#45;&gt;Node15</title>
<path fill="none" stroke="midnightblue" d="M704.17,-362.33C674.2,-334.26 614.62,-278.46 590.5,-255.87"/>
<polygon fill="midnightblue" stroke="midnightblue" points="702.1,-365.18 711.79,-369.47 706.88,-360.08 702.1,-365.18"/>
</g>
<!-- Node19 -->
<g id="node19" class="node">
<title>Node19</title>
<g id="a_node19"><a xlink:href="_transmitter_code_2src_2main_8cpp.html#a789078ba3c1d92997ab8764eb20cce4f" target="_top" xlink:title=" ">
<polygon fill="white" stroke="black" points="344,-502.53 344,-521.53 464,-521.53 464,-502.53 344,-502.53"/>
<text text-anchor="middle" x="404" y="-509.53" font-family="Helvetica,sans-Serif" font-size="10.00">UpdateSwitchesDisplay</text>
</a>
</g>
</g>
<!-- Node1&#45;&gt;Node19 -->
<g id="edge36" class="edge">
<title>Node1&#45;&gt;Node19</title>
<path fill="none" stroke="midnightblue" d="M716.68,-398.29C708.58,-423.6 690.55,-467.29 658,-488.03 599.95,-525.01 518.7,-525.83 464.08,-520.83"/>
<polygon fill="midnightblue" stroke="midnightblue" points="720.04,-399.26 719.56,-388.68 713.34,-397.26 720.04,-399.26"/>
</g>
<!-- Node3 -->
<g id="node3" class="node">
<title>Node3</title>
<g id="a_node3"><a xlink:href="_transmitter_code_2src_2main_8cpp.html#afe461d27b9c48d5921c00d521181f12f" target="_top" xlink:title=" ">
<polygon fill="white" stroke="black" points="0,-112.53 0,-131.53 35,-131.53 35,-112.53 0,-112.53"/>
<text text-anchor="middle" x="17.5" y="-119.53" font-family="Helvetica,sans-Serif" font-size="10.00">loop</text>
</a>
</g>
</g>
<!-- Node2&#45;&gt;Node3 -->
<g id="edge2" class="edge">
<title>Node2&#45;&gt;Node3</title>
<path fill="none" stroke="midnightblue" d="M113.52,-379.14C93.59,-325.22 36.95,-171.96 22.1,-131.78"/>
<polygon fill="midnightblue" stroke="midnightblue" points="110.24,-380.36 116.99,-388.53 116.81,-377.94 110.24,-380.36"/>
</g>
<!-- Node4&#45;&gt;Node3 -->
<g id="edge4" class="edge">
<title>Node4&#45;&gt;Node3</title>
<path fill="none" stroke="midnightblue" d="M363.07,-16.13C297.75,-14.77 165.86,-19.52 71,-72.03 52.28,-82.39 35.27,-101.04 25.96,-112.4"/>
<polygon fill="midnightblue" stroke="midnightblue" points="363.25,-19.63 373.34,-16.4 363.44,-12.64 363.25,-19.63"/>
</g>
<!-- Node5&#45;&gt;Node2 -->
<g id="edge6" class="edge">
<title>Node5&#45;&gt;Node2</title>
<path fill="none" stroke="midnightblue" d="M219.88,-335.43C215.81,-337.19 211.78,-339.07 208,-341.03 180.61,-355.25 151.19,-376.28 135,-388.43"/>
<polygon fill="midnightblue" stroke="midnightblue" points="221.4,-338.59 229.32,-331.55 218.74,-332.11 221.4,-338.59"/>
</g>
<!-- Node6&#45;&gt;Node2 -->
<g id="edge8" class="edge">
<title>Node6&#45;&gt;Node2</title>
<path fill="none" stroke="midnightblue" d="M526.81,-596.67C449.84,-606.7 303.22,-614.03 208,-545.03 158.27,-509 132.91,-434.48 125.15,-407.8"/>
<polygon fill="midnightblue" stroke="midnightblue" points="527.31,-600.13 536.74,-595.31 526.36,-593.2 527.31,-600.13"/>
</g>
<!-- Node8&#45;&gt;Node3 -->
<g id="edge11" class="edge">
<title>Node8&#45;&gt;Node3</title>
<path fill="none" stroke="midnightblue" d="M210.14,-66.51C172.31,-75.29 117.86,-88.67 71,-103.03 58.95,-106.72 45.6,-111.56 35.38,-115.44"/>
<polygon fill="midnightblue" stroke="midnightblue" points="211.39,-69.81 220.35,-64.15 209.82,-62.99 211.39,-69.81"/>
</g>
<!-- Node9 -->
<g id="node9" class="node">
<title>Node9</title>
<g id="a_node9"><a xlink:href="_radio_functions_8cpp.html#a3d7322e78f097d02d476f17a6306997c" target="_top" xlink:title=" ">
<polygon fill="white" stroke="black" points="92,-112.53 92,-131.53 151,-131.53 151,-112.53 92,-112.53"/>
<text text-anchor="middle" x="121.5" y="-119.53" font-family="Helvetica,sans-Serif" font-size="10.00">SendData</text>
</a>
</g>
</g>
<!-- Node8&#45;&gt;Node9 -->
<g id="edge12" class="edge">
<title>Node8&#45;&gt;Node9</title>
<path fill="none" stroke="midnightblue" d="M228.13,-70.16C221.52,-73.4 214.51,-76.84 208,-80.03 185.28,-91.17 159.18,-104 141.85,-112.52"/>
<polygon fill="midnightblue" stroke="midnightblue" points="230,-73.14 237.45,-65.6 226.93,-66.86 230,-73.14"/>
</g>
<!-- Node9&#45;&gt;Node3 -->
<g id="edge13" class="edge">
<title>Node9&#45;&gt;Node3</title>
<path fill="none" stroke="midnightblue" d="M81.58,-122.03C65.52,-122.03 47.77,-122.03 35.2,-122.03"/>
<polygon fill="midnightblue" stroke="midnightblue" points="81.82,-125.53 91.82,-122.03 81.82,-118.53 81.82,-125.53"/>
</g>
<!-- Node10&#45;&gt;Node2 -->
<g id="edge15" class="edge">
<title>Node10&#45;&gt;Node2</title>
<path fill="none" stroke="midnightblue" d="M522.42,-558.34C445.97,-566.87 306.66,-571.83 208,-514.03 164.18,-488.36 136.09,-430.46 126.34,-407.59"/>
<polygon fill="midnightblue" stroke="midnightblue" points="523.25,-561.76 532.77,-557.11 522.43,-554.81 523.25,-561.76"/>
</g>
<!-- Node11&#45;&gt;Node2 -->
<g id="edge17" class="edge">
<title>Node11&#45;&gt;Node2</title>
<path fill="none" stroke="midnightblue" d="M521.7,-409.31C503.38,-412.47 482.9,-415.47 464,-417.03 350.59,-426.42 321.24,-423.34 208,-412.03 196.33,-410.87 183.83,-409.11 172.09,-407.23"/>
<polygon fill="midnightblue" stroke="midnightblue" points="522.39,-412.74 531.63,-407.54 521.17,-405.85 522.39,-412.74"/>
</g>
<!-- Node12 -->
<g id="node12" class="node">
<title>Node12</title>
<g id="a_node12"><a xlink:href="_transmitter_code_2src_2main_8cpp.html#a3d9d955a8c7cfea4cc99e78f3746bd26" target="_top" xlink:title=" ">
<polygon fill="white" stroke="black" points="362.5,-388.53 362.5,-407.53 445.5,-407.53 445.5,-388.53 362.5,-388.53"/>
<text text-anchor="middle" x="404" y="-395.53" font-family="Helvetica,sans-Serif" font-size="10.00">ReadOneModel</text>
</a>
</g>
</g>
<!-- Node11&#45;&gt;Node12 -->
<g id="edge18" class="edge">
<title>Node11&#45;&gt;Node12</title>
<path fill="none" stroke="midnightblue" d="M515.49,-398.03C492.23,-398.03 466.46,-398.03 445.66,-398.03"/>
<polygon fill="midnightblue" stroke="midnightblue" points="515.62,-401.53 525.62,-398.03 515.62,-394.53 515.62,-401.53"/>
</g>
<!-- Node12&#45;&gt;Node2 -->
<g id="edge19" class="edge">
<title>Node12&#45;&gt;Node2</title>
<path fill="none" stroke="midnightblue" d="M352.07,-398.03C301.03,-398.03 222.98,-398.03 172.34,-398.03"/>
<polygon fill="midnightblue" stroke="midnightblue" points="352.21,-401.53 362.21,-398.03 352.21,-394.53 352.21,-401.53"/>
</g>
<!-- Node12&#45;&gt;Node5 -->
<g id="edge25" class="edge">
<title>Node12&#45;&gt;Node5</title>
<path fill="none" stroke="midnightblue" d="M364.36,-384.63C357.36,-381.56 350.3,-378.01 344,-374.03 325.66,-362.43 326.44,-352.49 308,-341.03 302.11,-337.37 295.4,-334.21 288.87,-331.57"/>
<polygon fill="midnightblue" stroke="midnightblue" points="363.2,-387.94 373.78,-388.51 365.87,-381.47 363.2,-387.94"/>
</g>
<!-- Node13 -->
<g id="node13" class="node">
<title>Node13</title>
<g id="a_node13"><a xlink:href="_transmitter_code_2src_2main_8cpp.html#a984cb52354a84c45e9e41f396a1c5e92" target="_top" xlink:title=" ">
<polygon fill="white" stroke="black" points="209.5,-160.53 209.5,-179.53 306.5,-179.53 306.5,-160.53 209.5,-160.53"/>
<text text-anchor="middle" x="258" y="-167.53" font-family="Helvetica,sans-Serif" font-size="10.00">CheckModelName</text>
</a>
</g>
</g>
<!-- Node12&#45;&gt;Node13 -->
<g id="edge20" class="edge">
<title>Node12&#45;&gt;Node13</title>
<path fill="none" stroke="midnightblue" d="M391.55,-379.9C362.55,-333.98 286.94,-214.26 265.03,-179.58"/>
<polygon fill="midnightblue" stroke="midnightblue" points="388.7,-381.94 397,-388.52 394.62,-378.2 388.7,-381.94"/>
</g>
<!-- Node14 -->
<g id="node14" class="node">
<title>Node14</title>
<g id="a_node14"><a xlink:href="_transmitter_code_2src_2main_8cpp.html#a909acb7ed667a5cc9c4ec6191fc33e75" target="_top" xlink:title=" ">
<polygon fill="white" stroke="black" points="208,-350.53 208,-369.53 308,-369.53 308,-350.53 208,-350.53"/>
<text text-anchor="middle" x="258" y="-357.53" font-family="Helvetica,sans-Serif" font-size="10.00">LoadAllParameters</text>
</a>
</g>
</g>
<!-- Node12&#45;&gt;Node14 -->
<g id="edge22" class="edge">
<title>Node12&#45;&gt;Node14</title>
<path fill="none" stroke="midnightblue" d="M356.83,-385.85C336.84,-380.57 313.78,-374.49 295.08,-369.55"/>
<polygon fill="midnightblue" stroke="midnightblue" points="356.1,-389.27 366.66,-388.44 357.89,-382.51 356.1,-389.27"/>
</g>
<!-- Node13&#45;&gt;Node3 -->
<g id="edge21" class="edge">
<title>Node13&#45;&gt;Node3</title>
<path fill="none" stroke="midnightblue" d="M199.36,-163.95C162.33,-159.33 113.39,-151.9 71,-141.03 58.79,-137.9 45.45,-133.05 35.26,-129.03"/>
<polygon fill="midnightblue" stroke="midnightblue" points="199.13,-167.45 209.48,-165.18 199.97,-160.5 199.13,-167.45"/>
</g>
<!-- Node14&#45;&gt;Node2 -->
<g id="edge23" class="edge">
<title>Node14&#45;&gt;Node2</title>
<path fill="none" stroke="midnightblue" d="M213.4,-372.35C194.92,-377.57 173.71,-383.56 156.43,-388.44"/>
<polygon fill="midnightblue" stroke="midnightblue" points="214.39,-375.71 223.06,-369.62 212.49,-368.97 214.39,-375.71"/>
</g>
<!-- Node14&#45;&gt;Node7 -->
<g id="edge24" class="edge">
<title>Node14&#45;&gt;Node7</title>
<path fill="none" stroke="midnightblue" d="M214.55,-345.64C212.24,-344.23 210.04,-342.7 208,-341.03 164.62,-305.62 136.08,-242.19 126.28,-217.88"/>
<polygon fill="midnightblue" stroke="midnightblue" points="213.31,-348.94 223.8,-350.46 216.55,-342.73 213.31,-348.94"/>
</g>
<!-- Node15&#45;&gt;Node2 -->
<g id="edge27" class="edge">
<title>Node15&#45;&gt;Node2</title>
<path fill="none" stroke="midnightblue" d="M489.67,-244.4C395.7,-244.14 254.31,-248.47 208,-275.03 161.75,-301.56 134.75,-364.47 125.82,-388.49"/>
<polygon fill="midnightblue" stroke="midnightblue" points="489.73,-247.9 499.75,-244.44 489.77,-240.9 489.73,-247.9"/>
</g>
<!-- Node15&#45;&gt;Node5 -->
<g id="edge32" class="edge">
<title>Node15&#45;&gt;Node5</title>
<path fill="none" stroke="midnightblue" d="M554.49,-261.06C532.15,-274.52 497.14,-293.57 464,-303.03 410.9,-318.19 347.22,-321.97 305.08,-322.59"/>
<polygon fill="midnightblue" stroke="midnightblue" points="556.56,-263.89 563.25,-255.67 552.9,-257.93 556.56,-263.89"/>
</g>
<!-- Node15&#45;&gt;Node7 -->
<g id="edge35" class="edge">
<title>Node15&#45;&gt;Node7</title>
<path fill="none" stroke="midnightblue" d="M495.1,-235.34C484.64,-234.14 474.08,-233 464,-232.03 341.84,-220.24 194.55,-211.86 142.16,-209.05"/>
<polygon fill="midnightblue" stroke="midnightblue" points="494.75,-238.82 505.08,-236.5 495.56,-231.87 494.75,-238.82"/>
</g>
<!-- Node15&#45;&gt;Node13 -->
<g id="edge28" class="edge">
<title>Node15&#45;&gt;Node13</title>
<path fill="none" stroke="midnightblue" d="M552.33,-231.51C529.78,-219.45 495.72,-202.89 464,-194.03 411.37,-179.34 348.69,-173.63 306.62,-171.42"/>
<polygon fill="midnightblue" stroke="midnightblue" points="550.79,-234.66 561.25,-236.37 554.14,-228.51 550.79,-234.66"/>
</g>
<!-- Node16 -->
<g id="node16" class="node">
<title>Node16</title>
<g id="a_node16"><a xlink:href="_transmitter_code_2src_2main_8cpp.html#adf35f0ced7990f813a783d0ecd33bf64" target="_top" xlink:title=" ">
<polygon fill="white" stroke="black" points="364,-122.53 364,-141.53 444,-141.53 444,-122.53 364,-122.53"/>
<text text-anchor="middle" x="404" y="-129.53" font-family="Helvetica,sans-Serif" font-size="10.00">GetFlightMode</text>
</a>
</g>
</g>
<!-- Node15&#45;&gt;Node16 -->
<g id="edge29" class="edge">
<title>Node15&#45;&gt;Node16</title>
<path fill="none" stroke="midnightblue" d="M560.35,-229.47C538.88,-209.97 500.91,-177.52 464,-156.03 454.35,-150.41 443.13,-145.49 433.08,-141.59"/>
<polygon fill="midnightblue" stroke="midnightblue" points="558,-232.07 567.73,-236.26 562.74,-226.91 558,-232.07"/>
</g>
<!-- Node18 -->
<g id="node18" class="node">
<title>Node18</title>
<g id="a_node18"><a xlink:href="_transmitter_code_2src_2main_8cpp.html#acbd0460ea44a7d07e4d77878411febb4" target="_top" xlink:title=" ">
<polygon fill="white" stroke="black" points="358,-274.53 358,-293.53 450,-293.53 450,-274.53 358,-274.53"/>
<text text-anchor="middle" x="404" y="-281.53" font-family="Helvetica,sans-Serif" font-size="10.00">SetDefaultValues</text>
</a>
</g>
</g>
<!-- Node15&#45;&gt;Node18 -->
<g id="edge33" class="edge">
<title>Node15&#45;&gt;Node18</title>
<path fill="none" stroke="midnightblue" d="M524.49,-257.78C500.03,-263.16 471.43,-269.44 448.34,-274.51"/>
<polygon fill="midnightblue" stroke="midnightblue" points="525.33,-261.18 534.34,-255.62 523.83,-254.35 525.33,-261.18"/>
</g>
<!-- Node17 -->
<g id="node17" class="node">
<title>Node17</title>
<g id="a_node17"><a xlink:href="_transmitter_code_2src_2main_8cpp.html#ab0af36f3442ad4f2d0b716c14c7d6085" target="_top" xlink:title=" ">
<polygon fill="white" stroke="black" points="218,-122.53 218,-141.53 298,-141.53 298,-122.53 218,-122.53"/>
<text text-anchor="middle" x="258" y="-129.53" font-family="Helvetica,sans-Serif" font-size="10.00">ReadSwitches</text>
</a>
</g>
</g>
<!-- Node16&#45;&gt;Node17 -->
<g id="edge30" class="edge">
<title>Node16&#45;&gt;Node17</title>
<path fill="none" stroke="midnightblue" d="M353.59,-132.03C335.53,-132.03 315.36,-132.03 298.3,-132.03"/>
<polygon fill="midnightblue" stroke="midnightblue" points="353.65,-135.53 363.65,-132.03 353.65,-128.53 353.65,-135.53"/>
</g>
<!-- Node17&#45;&gt;Node9 -->
<g id="edge31" class="edge">
<title>Node17&#45;&gt;Node9</title>
<path fill="none" stroke="midnightblue" d="M207.75,-128.37C188.78,-126.96 167.76,-125.4 151.33,-124.17"/>
<polygon fill="midnightblue" stroke="midnightblue" points="207.5,-131.86 217.74,-129.11 208.02,-124.88 207.5,-131.86"/>
</g>
<!-- Node18&#45;&gt;Node2 -->
<g id="edge34" class="edge">
<title>Node18&#45;&gt;Node2</title>
<path fill="none" stroke="midnightblue" d="M347.85,-279.05C307.09,-277.75 251.39,-281.12 208,-303.03 168.98,-322.73 139.38,-368.37 127.81,-388.36"/>
<polygon fill="midnightblue" stroke="midnightblue" points="347.73,-282.55 357.87,-279.47 348.03,-275.56 347.73,-282.55"/>
</g>
<!-- Node19&#45;&gt;Node2 -->
<g id="edge37" class="edge">
<title>Node19&#45;&gt;Node2</title>
<path fill="none" stroke="midnightblue" d="M333.53,-514.73C294.74,-513.55 246.59,-507.47 208,-488.03 170.47,-469.12 140.51,-426.8 128.36,-407.7"/>
<polygon fill="midnightblue" stroke="midnightblue" points="333.63,-518.23 343.7,-514.93 333.77,-511.23 333.63,-518.23"/>
</g>
</g>
</svg>
