<?xml version="1.0" encoding="UTF-8" standalone="no"?>
<!DOCTYPE svg PUBLIC "-//W3C//DTD SVG 1.1//EN"
 "http://www.w3.org/Graphics/SVG/1.1/DTD/svg11.dtd">
<!-- Generated by graphviz version 2.49.3 (20211027.1534)
 -->
<!-- Title: MayBeAddZero Pages: 1 -->
<svg width="883pt" height="85pt"
 viewBox="0.00 0.00 883.00 85.00" xmlns="http://www.w3.org/2000/svg" xmlns:xlink="http://www.w3.org/1999/xlink">
<g id="graph0" class="graph" transform="scale(1 1) rotate(0) translate(4 81)">
<title>MayBeAddZero</title>
<polygon fill="white" stroke="transparent" points="-4,4 -4,-81 879,-81 879,4 -4,4"/>
<!-- Node1 -->
<g id="node1" class="node">
<title>Node1</title>
<g id="a_node1"><a xlink:title=" ">
<polygon fill="#bfbfbf" stroke="black" points="792,-0.5 792,-19.5 875,-19.5 875,-0.5 792,-0.5"/>
<text text-anchor="middle" x="833.5" y="-7.5" font-family="Helvetica,sans-Serif" font-size="10.00">MayBeAddZero</text>
</a>
</g>
</g>
<!-- Node2 -->
<g id="node2" class="node">
<title>Node2</title>
<g id="a_node2"><a xlink:href="_transmitter_code_2src_2main_8cpp.html#a7c6f60956ed82b2b20275f9a55b392a8" target="_top" xlink:title=" ">
<polygon fill="white" stroke="black" points="661,-19.5 661,-38.5 756,-38.5 756,-19.5 661,-19.5"/>
<text text-anchor="middle" x="708.5" y="-26.5" font-family="Helvetica,sans-Serif" font-size="10.00">CreateTimeStamp</text>
</a>
</g>
</g>
<!-- Node1&#45;&gt;Node2 -->
<g id="edge1" class="edge">
<title>Node1&#45;&gt;Node2</title>
<path fill="none" stroke="midnightblue" d="M781.98,-17.8C773.4,-19.13 764.51,-20.5 756.04,-21.81"/>
<polygon fill="midnightblue" stroke="midnightblue" points="782.54,-21.26 791.88,-16.27 781.47,-14.34 782.54,-21.26"/>
</g>
<!-- Node11 -->
<g id="node11" class="node">
<title>Node11</title>
<g id="a_node11"><a xlink:href="_transmitter_code_2src_2main_8cpp.html#a483cced19b61975f76957f5696425fe9" target="_top" xlink:title=" ">
<polygon fill="white" stroke="black" points="291.5,-0.5 291.5,-19.5 352.5,-19.5 352.5,-0.5 291.5,-0.5"/>
<text text-anchor="middle" x="322" y="-7.5" font-family="Helvetica,sans-Serif" font-size="10.00">ReadTime</text>
</a>
</g>
</g>
<!-- Node1&#45;&gt;Node11 -->
<g id="edge10" class="edge">
<title>Node1&#45;&gt;Node11</title>
<path fill="none" stroke="midnightblue" d="M781.59,-10C676.13,-10 436.66,-10 352.73,-10"/>
<polygon fill="midnightblue" stroke="midnightblue" points="781.67,-13.5 791.67,-10 781.67,-6.5 781.67,-13.5"/>
</g>
<!-- Node3 -->
<g id="node3" class="node">
<title>Node3</title>
<g id="a_node3"><a xlink:href="_transmitter_code_2src_2main_8cpp.html#a245cf37e2504095132bfcf03f2eeaa93" target="_top" xlink:title=" ">
<polygon fill="white" stroke="black" points="535,-57.5 535,-76.5 625,-76.5 625,-57.5 535,-57.5"/>
<text text-anchor="middle" x="580" y="-64.5" font-family="Helvetica,sans-Serif" font-size="10.00">LogFilePreamble</text>
</a>
</g>
</g>
<!-- Node2&#45;&gt;Node3 -->
<g id="edge2" class="edge">
<title>Node2&#45;&gt;Node3</title>
<path fill="none" stroke="midnightblue" d="M665.77,-41.54C648.56,-46.7 628.94,-52.6 612.91,-57.41"/>
<polygon fill="midnightblue" stroke="midnightblue" points="667.01,-44.82 675.58,-38.59 664.99,-38.11 667.01,-44.82"/>
</g>
<!-- Node9 -->
<g id="node9" class="node">
<title>Node9</title>
<g id="a_node9"><a xlink:href="_transmitter_code_2src_2main_8cpp.html#a514afc8dd077db77334696ca719a99b7" target="_top" xlink:title=" ">
<polygon fill="white" stroke="black" points="545,-19.5 545,-38.5 615,-38.5 615,-19.5 545,-19.5"/>
<text text-anchor="middle" x="580" y="-26.5" font-family="Helvetica,sans-Serif" font-size="10.00">StartLogFile</text>
</a>
</g>
</g>
<!-- Node2&#45;&gt;Node9 -->
<g id="edge8" class="edge">
<title>Node2&#45;&gt;Node9</title>
<path fill="none" stroke="midnightblue" d="M650.72,-29C638.63,-29 626.23,-29 615.3,-29"/>
<polygon fill="midnightblue" stroke="midnightblue" points="650.76,-32.5 660.76,-29 650.76,-25.5 650.76,-32.5"/>
</g>
<!-- Node4 -->
<g id="node4" class="node">
<title>Node4</title>
<g id="a_node4"><a xlink:href="_transmitter_code_2src_2main_8cpp.html#acac3c6cebc71150f10a4ba2f6d047e69" target="_top" xlink:title=" ">
<polygon fill="white" stroke="black" points="398,-57.5 398,-76.5 499,-76.5 499,-57.5 398,-57.5"/>
<text text-anchor="middle" x="448.5" y="-64.5" font-family="Helvetica,sans-Serif" font-size="10.00">LogNewFlightMode</text>
</a>
</g>
</g>
<!-- Node3&#45;&gt;Node4 -->
<g id="edge3" class="edge">
<title>Node3&#45;&gt;Node4</title>
<path fill="none" stroke="midnightblue" d="M524.68,-67C516.26,-67 507.6,-67 499.29,-67"/>
<polygon fill="midnightblue" stroke="midnightblue" points="524.8,-70.5 534.8,-67 524.8,-63.5 524.8,-70.5"/>
</g>
<!-- Node5 -->
<g id="node5" class="node">
<title>Node5</title>
<g id="a_node5"><a xlink:href="_transmitter_code_2src_2main_8cpp.html#adf35f0ced7990f813a783d0ecd33bf64" target="_top" xlink:title=" ">
<polygon fill="white" stroke="black" points="282,-55.5 282,-74.5 362,-74.5 362,-55.5 282,-55.5"/>
<text text-anchor="middle" x="322" y="-62.5" font-family="Helvetica,sans-Serif" font-size="10.00">GetFlightMode</text>
</a>
</g>
</g>
<!-- Node4&#45;&gt;Node5 -->
<g id="edge4" class="edge">
<title>Node4&#45;&gt;Node5</title>
<path fill="none" stroke="midnightblue" d="M387.75,-66.04C379.02,-65.9 370.22,-65.76 362.04,-65.63"/>
<polygon fill="midnightblue" stroke="midnightblue" points="387.88,-69.54 397.94,-66.2 387.99,-62.54 387.88,-69.54"/>
</g>
<!-- Node6 -->
<g id="node6" class="node">
<title>Node6</title>
<g id="a_node6"><a xlink:href="_transmitter_code_2src_2main_8cpp.html#ab0af36f3442ad4f2d0b716c14c7d6085" target="_top" xlink:title=" ">
<polygon fill="white" stroke="black" points="166,-54.5 166,-73.5 246,-73.5 246,-54.5 166,-54.5"/>
<text text-anchor="middle" x="206" y="-61.5" font-family="Helvetica,sans-Serif" font-size="10.00">ReadSwitches</text>
</a>
</g>
</g>
<!-- Node5&#45;&gt;Node6 -->
<g id="edge5" class="edge">
<title>Node5&#45;&gt;Node6</title>
<path fill="none" stroke="midnightblue" d="M271.61,-64.57C263.15,-64.49 254.46,-64.42 246.3,-64.34"/>
<polygon fill="midnightblue" stroke="midnightblue" points="271.74,-68.07 281.77,-64.66 271.8,-61.07 271.74,-68.07"/>
</g>
<!-- Node7 -->
<g id="node7" class="node">
<title>Node7</title>
<g id="a_node7"><a xlink:href="_radio_functions_8cpp.html#a3d7322e78f097d02d476f17a6306997c" target="_top" xlink:title=" ">
<polygon fill="white" stroke="black" points="71,-52.5 71,-71.5 130,-71.5 130,-52.5 71,-52.5"/>
<text text-anchor="middle" x="100.5" y="-59.5" font-family="Helvetica,sans-Serif" font-size="10.00">SendData</text>
</a>
</g>
</g>
<!-- Node6&#45;&gt;Node7 -->
<g id="edge6" class="edge">
<title>Node6&#45;&gt;Node7</title>
<path fill="none" stroke="midnightblue" d="M155.66,-63.05C146.87,-62.88 137.99,-62.71 130.04,-62.55"/>
<polygon fill="midnightblue" stroke="midnightblue" points="155.81,-66.55 165.87,-63.24 155.94,-59.55 155.81,-66.55"/>
</g>
<!-- Node8 -->
<g id="node8" class="node">
<title>Node8</title>
<g id="a_node8"><a xlink:href="_transmitter_code_2src_2main_8cpp.html#afe461d27b9c48d5921c00d521181f12f" target="_top" xlink:title=" ">
<polygon fill="white" stroke="black" points="0,-28.5 0,-47.5 35,-47.5 35,-28.5 0,-28.5"/>
<text text-anchor="middle" x="17.5" y="-35.5" font-family="Helvetica,sans-Serif" font-size="10.00">loop</text>
</a>
</g>
</g>
<!-- Node7&#45;&gt;Node8 -->
<g id="edge7" class="edge">
<title>Node7&#45;&gt;Node8</title>
<path fill="none" stroke="midnightblue" d="M61.07,-50.61C52.05,-47.94 42.9,-45.23 35.4,-43.01"/>
<polygon fill="midnightblue" stroke="midnightblue" points="60.13,-53.99 70.71,-53.47 62.12,-47.27 60.13,-53.99"/>
</g>
<!-- Node10 -->
<g id="node10" class="node">
<title>Node10</title>
<g id="a_node10"><a xlink:href="_transmitter_code_2src_2main_8cpp.html#a4fc01d736fe50cf5b977f755b675f11d" target="_top" xlink:title=" ">
<polygon fill="white" stroke="black" points="428,-19.5 428,-38.5 469,-38.5 469,-19.5 428,-19.5"/>
<text text-anchor="middle" x="448.5" y="-26.5" font-family="Helvetica,sans-Serif" font-size="10.00">setup</text>
</a>
</g>
</g>
<!-- Node9&#45;&gt;Node10 -->
<g id="edge9" class="edge">
<title>Node9&#45;&gt;Node10</title>
<path fill="none" stroke="midnightblue" d="M534.71,-29C512.43,-29 486.56,-29 469.22,-29"/>
<polygon fill="midnightblue" stroke="midnightblue" points="534.98,-32.5 544.98,-29 534.98,-25.5 534.98,-32.5"/>
</g>
<!-- Node11&#45;&gt;Node8 -->
<g id="edge11" class="edge">
<title>Node11&#45;&gt;Node8</title>
<path fill="none" stroke="midnightblue" d="M281.28,-13.68C214.25,-19.88 81.48,-32.17 35.02,-36.47"/>
<polygon fill="midnightblue" stroke="midnightblue" points="281.81,-17.14 291.44,-12.74 281.16,-10.17 281.81,-17.14"/>
</g>
</g>
</svg>
