<?xml version="1.0" encoding="UTF-8" standalone="no"?>
<!DOCTYPE svg PUBLIC "-//W3C//DTD SVG 1.1//EN"
 "http://www.w3.org/Graphics/SVG/1.1/DTD/svg11.dtd">
<!-- Generated by graphviz version 3.0.0 (20220413.0242)
 -->
<!-- Title: GetBank Pages: 1 -->
<svg width="1081pt" height="1001pt"
 viewBox="0.00 0.00 1081.00 1000.94" xmlns="http://www.w3.org/2000/svg" xmlns:xlink="http://www.w3.org/1999/xlink">
<g id="graph0" class="graph" transform="scale(1 1) rotate(0) translate(4 996.94)">
<title>GetBank</title>
<polygon fill="white" stroke="transparent" points="-4,4 -4,-996.94 1077,-996.94 1077,4 -4,4"/>
<!-- Node1 -->
<g id="node1" class="node">
<title>Node1</title>
<g id="a_node1"><a xlink:title=" ">
<polygon fill="#bfbfbf" stroke="black" points="0,-645.44 0,-664.44 55,-664.44 55,-645.44 0,-645.44"/>
<text text-anchor="middle" x="27.5" y="-652.44" font-family="Helvetica,sans-Serif" font-size="10.00">GetBank</text>
</a>
</g>
</g>
<!-- Node2 -->
<g id="node2" class="node">
<title>Node2</title>
<g id="a_node2"><a xlink:href="_transmitter_code_2src_2main_8cpp.html#afcd616e96ae28694a7fa2197ad74c6fe" target="_top" xlink:title=" ">
<polygon fill="white" stroke="black" points="121,-868.44 121,-887.44 195,-887.44 195,-868.44 121,-868.44"/>
<text text-anchor="middle" x="158" y="-875.44" font-family="Helvetica,sans-Serif" font-size="10.00">CheckSwitch</text>
</a>
</g>
</g>
<!-- Node1&#45;&gt;Node2 -->
<g id="edge1" class="edge">
<title>Node1&#45;&gt;Node2</title>
<path fill="none" stroke="midnightblue" d="M29.36,-664.53C32.47,-693.97 45.41,-784.38 91,-839.94 99.19,-849.92 110.74,-857.82 121.89,-863.77"/>
<polygon fill="midnightblue" stroke="midnightblue" points="120.56,-867.02 131.08,-868.31 123.66,-860.74 120.56,-867.02"/>
</g>
<!-- Node4 -->
<g id="node4" class="node">
<title>Node4</title>
<g id="a_node4"><a xlink:href="_transmitter_code_2src_2main_8cpp.html#a671f8420f68cbdd4f18e4726f93e14da" target="_top" xlink:title=" ">
<polygon fill="white" stroke="black" points="603,-664.44 603,-683.44 672,-683.44 672,-664.44 603,-664.44"/>
<text text-anchor="middle" x="637.5" y="-671.44" font-family="Helvetica,sans-Serif" font-size="10.00">CheckTimer</text>
</a>
</g>
</g>
<!-- Node1&#45;&gt;Node4 -->
<g id="edge3" class="edge">
<title>Node1&#45;&gt;Node4</title>
<path fill="none" stroke="midnightblue" d="M55.24,-657.4C66.3,-658.34 79.26,-659.32 91,-659.94 277.51,-669.79 500.28,-672.77 592.84,-673.62"/>
<polygon fill="midnightblue" stroke="midnightblue" points="592.92,-677.12 602.96,-673.71 592.99,-670.12 592.92,-677.12"/>
</g>
<!-- Node5 -->
<g id="node5" class="node">
<title>Node5</title>
<g id="a_node5"><a xlink:href="_transmitter_code_2src_2main_8cpp.html#aa490b4664b0a4498d53b30b82287d5df" target="_top" xlink:title=" ">
<polygon fill="white" stroke="black" points="754,-664.44 754,-683.44 817,-683.44 817,-664.44 754,-664.44"/>
<text text-anchor="middle" x="785.5" y="-671.44" font-family="Helvetica,sans-Serif" font-size="10.00">PlaySound</text>
</a>
</g>
</g>
<!-- Node1&#45;&gt;Node5 -->
<g id="edge57" class="edge">
<title>Node1&#45;&gt;Node5</title>
<path fill="none" stroke="midnightblue" d="M54.08,-664.54C65.29,-668.48 78.68,-672.84 91,-675.94 183.26,-699.16 206.87,-711.94 302,-711.94 302,-711.94 302,-711.94 461,-711.94 567.56,-711.94 594.64,-708.89 700,-692.94 714.48,-690.75 730.16,-687.48 744.05,-684.26"/>
<polygon fill="midnightblue" stroke="midnightblue" points="744.87,-687.66 753.8,-681.95 743.26,-680.85 744.87,-687.66"/>
</g>
<!-- Node10 -->
<g id="node10" class="node">
<title>Node10</title>
<g id="a_node10"><a xlink:href="_transmitter_code_2src_2main_8cpp.html#aa61377ec59e711151913086167f2f48f" target="_top" xlink:title=" ">
<polygon fill="white" stroke="black" points="91,-531.44 91,-550.44 225,-550.44 225,-531.44 91,-531.44"/>
<text text-anchor="middle" x="158" y="-538.44" font-family="Helvetica,sans-Serif" font-size="10.00">DisplayCurveAndServoPos</text>
</a>
</g>
</g>
<!-- Node1&#45;&gt;Node10 -->
<g id="edge12" class="edge">
<title>Node1&#45;&gt;Node10</title>
<path fill="none" stroke="midnightblue" d="M39.46,-645.22C61.46,-625.7 111.23,-581.55 138.41,-557.43"/>
<polygon fill="midnightblue" stroke="midnightblue" points="140.91,-559.89 146.07,-550.64 136.27,-554.65 140.91,-559.89"/>
</g>
<!-- Node27 -->
<g id="node27" class="node">
<title>Node27</title>
<g id="a_node27"><a xlink:href="_transmitter_code_2src_2main_8cpp.html#a32be1544c90acbd0fb13568c35213510" target="_top" xlink:title=" ">
<polygon fill="white" stroke="black" points="120,-811.44 120,-830.44 196,-830.44 196,-811.44 120,-811.44"/>
<text text-anchor="middle" x="158" y="-818.44" font-family="Helvetica,sans-Serif" font-size="10.00">LogNewBank</text>
</a>
</g>
</g>
<!-- Node1&#45;&gt;Node27 -->
<g id="edge43" class="edge">
<title>Node1&#45;&gt;Node27</title>
<path fill="none" stroke="midnightblue" d="M32.71,-664.66C41.61,-684.58 63.8,-730.95 91,-763.94 104,-779.71 121.64,-794.7 135.41,-805.34"/>
<polygon fill="midnightblue" stroke="midnightblue" points="133.32,-808.15 143.41,-811.38 137.54,-802.56 133.32,-808.15"/>
</g>
<!-- Node37 -->
<g id="node37" class="node">
<title>Node37</title>
<g id="a_node37"><a xlink:href="_transmitter_code_2src_2main_8cpp.html#ae0f54c30ea92041b69cdccb888cb86b8" target="_top" xlink:title=" ">
<polygon fill="white" stroke="black" points="116.5,-208.44 116.5,-227.44 199.5,-227.44 199.5,-208.44 116.5,-208.44"/>
<text text-anchor="middle" x="158" y="-215.44" font-family="Helvetica,sans-Serif" font-size="10.00">ReadFMSwitch</text>
</a>
</g>
</g>
<!-- Node1&#45;&gt;Node37 -->
<g id="edge58" class="edge">
<title>Node1&#45;&gt;Node37</title>
<path fill="none" stroke="midnightblue" d="M28.66,-645.39C29.78,-589.64 38.05,-306.61 91,-241.94 95.36,-236.62 101,-232.47 107.16,-229.25"/>
<polygon fill="midnightblue" stroke="midnightblue" points="108.71,-232.39 116.44,-225.15 105.88,-225.99 108.71,-232.39"/>
</g>
<!-- Node38 -->
<g id="node38" class="node">
<title>Node38</title>
<g id="a_node38"><a xlink:href="_transmitter_code_2src_2main_8cpp.html#a86ff8d6a0763abc33c7e814f5c1d4b5c" target="_top" xlink:title=" ">
<polygon fill="white" stroke="black" points="271,-113.44 271,-132.44 335,-132.44 335,-113.44 271,-113.44"/>
<text text-anchor="middle" x="303" y="-120.44" font-family="Helvetica,sans-Serif" font-size="10.00">ShowBank</text>
</a>
</g>
</g>
<!-- Node1&#45;&gt;Node38 -->
<g id="edge59" class="edge">
<title>Node1&#45;&gt;Node38</title>
<path fill="none" stroke="midnightblue" d="M28.79,-645.22C30.56,-592.07 41.58,-337.12 91,-279.94 131.9,-232.62 174.97,-274.48 225,-236.94 258.75,-211.62 282.59,-166.96 294.12,-141.71"/>
<polygon fill="midnightblue" stroke="midnightblue" points="297.36,-143.04 298.18,-132.48 290.95,-140.22 297.36,-143.04"/>
</g>
<!-- Node39 -->
<g id="node39" class="node">
<title>Node39</title>
<g id="a_node39"><a xlink:href="_transmitter_code_2src_2main_8cpp.html#a6b3c522a9d43d58a184d9866ca9d21f3" target="_top" xlink:title=" ">
<polygon fill="white" stroke="black" points="604.5,-18.44 604.5,-37.44 670.5,-37.44 670.5,-18.44 604.5,-18.44"/>
<text text-anchor="middle" x="637.5" y="-25.44" font-family="Helvetica,sans-Serif" font-size="10.00">ShowMotor</text>
</a>
</g>
</g>
<!-- Node1&#45;&gt;Node39 -->
<g id="edge61" class="edge">
<title>Node1&#45;&gt;Node39</title>
<path fill="none" stroke="midnightblue" d="M31.69,-645.3C39.51,-622.48 61.18,-563.97 91,-521.94 265.4,-276.12 316.15,-201.34 575,-46.94 581,-43.36 587.73,-40.4 594.48,-37.97"/>
<polygon fill="midnightblue" stroke="midnightblue" points="595.88,-41.19 604.31,-34.77 593.72,-34.54 595.88,-41.19"/>
</g>
<!-- Node41 -->
<g id="node41" class="node">
<title>Node41</title>
<g id="a_node41"><a xlink:href="_transmitter_code_2src_2main_8cpp.html#a030ff9af8fc6b06c659a3c56ab7d2ff2" target="_top" xlink:title=" ">
<polygon fill="white" stroke="black" points="604,-740.44 604,-759.44 671,-759.44 671,-740.44 604,-740.44"/>
<text text-anchor="middle" x="637.5" y="-747.44" font-family="Helvetica,sans-Serif" font-size="10.00">SoundBank</text>
</a>
</g>
</g>
<!-- Node1&#45;&gt;Node41 -->
<g id="edge66" class="edge">
<title>Node1&#45;&gt;Node41</title>
<path fill="none" stroke="midnightblue" d="M33.49,-664.49C42.5,-680.57 63.15,-712.61 91,-725.94 261.98,-807.79 498.68,-776.42 594.11,-758.76"/>
<polygon fill="midnightblue" stroke="midnightblue" points="594.79,-762.19 603.97,-756.89 593.49,-755.32 594.79,-762.19"/>
</g>
<!-- Node43 -->
<g id="node43" class="node">
<title>Node43</title>
<g id="a_node43"><a xlink:href="_transmitter_code_2src_2main_8cpp.html#a9e1de754e1d2d483fb15957f70cf0488" target="_top" xlink:title=" ">
<polygon fill="white" stroke="black" points="381,-626.44 381,-645.44 539,-645.44 539,-626.44 381,-626.44"/>
<text text-anchor="middle" x="460" y="-633.44" font-family="Helvetica,sans-Serif" font-size="10.00">UpdateModelsNameEveryWhere</text>
</a>
</g>
</g>
<!-- Node1&#45;&gt;Node43 -->
<g id="edge71" class="edge">
<title>Node1&#45;&gt;Node43</title>
<path fill="none" stroke="midnightblue" d="M55.1,-653.77C116.78,-651.05 271.8,-644.2 370.86,-639.83"/>
<polygon fill="midnightblue" stroke="midnightblue" points="371.03,-643.33 380.86,-639.39 370.72,-636.33 371.03,-643.33"/>
</g>
<!-- Node3 -->
<g id="node3" class="node">
<title>Node3</title>
<g id="a_node3"><a xlink:href="_transmitter_code_2src_2main_8cpp.html#aeed3be7dfc45cde2e9e9d3578c104760" target="_top" xlink:title=" ">
<polygon fill="white" stroke="black" points="261.5,-887.44 261.5,-906.44 344.5,-906.44 344.5,-887.44 261.5,-887.44"/>
<text text-anchor="middle" x="303" y="-894.44" font-family="Helvetica,sans-Serif" font-size="10.00">ReadCHSwitch</text>
</a>
</g>
</g>
<!-- Node2&#45;&gt;Node3 -->
<g id="edge2" class="edge">
<title>Node2&#45;&gt;Node3</title>
<path fill="none" stroke="midnightblue" d="M195.08,-882.74C212.12,-885 232.74,-887.74 251.31,-890.21"/>
<polygon fill="midnightblue" stroke="midnightblue" points="251.01,-893.7 261.38,-891.54 251.93,-886.76 251.01,-893.7"/>
</g>
<!-- Node4&#45;&gt;Node5 -->
<g id="edge4" class="edge">
<title>Node4&#45;&gt;Node5</title>
<path fill="none" stroke="midnightblue" d="M672.36,-673.94C693.6,-673.94 721.1,-673.94 743.56,-673.94"/>
<polygon fill="midnightblue" stroke="midnightblue" points="743.8,-677.44 753.8,-673.94 743.8,-670.44 743.8,-677.44"/>
</g>
<!-- Node9 -->
<g id="node9" class="node">
<title>Node9</title>
<g id="a_node9"><a xlink:href="_transmitter_code_2src_2main_8cpp.html#a1e20efc1e419b252b50d36f9924503fc" target="_top" xlink:title=" ">
<polygon fill="white" stroke="black" points="753.5,-550.44 753.5,-569.44 817.5,-569.44 817.5,-550.44 753.5,-550.44"/>
<text text-anchor="middle" x="785.5" y="-557.44" font-family="Helvetica,sans-Serif" font-size="10.00">SendValue</text>
</a>
</g>
</g>
<!-- Node4&#45;&gt;Node9 -->
<g id="edge8" class="edge">
<title>Node4&#45;&gt;Node9</title>
<path fill="none" stroke="midnightblue" d="M672.19,-667.1C681.65,-664.26 691.64,-660.32 700,-654.94 731.53,-634.65 758.42,-599.46 772.95,-578.08"/>
<polygon fill="midnightblue" stroke="midnightblue" points="775.97,-579.86 778.56,-569.59 770.13,-576 775.97,-579.86"/>
</g>
<!-- Node6 -->
<g id="node6" class="node">
<title>Node6</title>
<g id="a_node6"><a xlink:href="_transmitter_code_2src_2main_8cpp.html#aecac2f0c289f02ef3c92b85be82eacac" target="_top" xlink:title=" ">
<polygon fill="white" stroke="black" points="871,-379.44 871,-398.44 954,-398.44 954,-379.44 871,-379.44"/>
<text text-anchor="middle" x="912.5" y="-386.44" font-family="Helvetica,sans-Serif" font-size="10.00">SendCommand</text>
</a>
</g>
</g>
<!-- Node5&#45;&gt;Node6 -->
<g id="edge5" class="edge">
<title>Node5&#45;&gt;Node6</title>
<path fill="none" stroke="midnightblue" d="M791.75,-664.37C800.97,-647.39 820.49,-610.79 835,-578.94 862.93,-517.62 891.43,-442.98 904.35,-408.33"/>
<polygon fill="midnightblue" stroke="midnightblue" points="907.78,-409.15 907.98,-398.56 901.22,-406.72 907.78,-409.15"/>
</g>
<!-- Node8 -->
<g id="node8" class="node">
<title>Node8</title>
<g id="a_node8"><a xlink:href="_transmitter_code_2src_2main_8cpp.html#a590a9174319918d7e3d7baca323fcf26" target="_top" xlink:title=" ">
<polygon fill="white" stroke="black" points="898,-664.44 898,-683.44 927,-683.44 927,-664.44 898,-664.44"/>
<text text-anchor="middle" x="912.5" y="-671.44" font-family="Helvetica,sans-Serif" font-size="10.00">Str</text>
</a>
</g>
</g>
<!-- Node5&#45;&gt;Node8 -->
<g id="edge7" class="edge">
<title>Node5&#45;&gt;Node8</title>
<path fill="none" stroke="midnightblue" d="M817.08,-673.94C838.79,-673.94 867.52,-673.94 887.57,-673.94"/>
<polygon fill="midnightblue" stroke="midnightblue" points="887.71,-677.44 897.71,-673.94 887.71,-670.44 887.71,-677.44"/>
</g>
<!-- Node7 -->
<g id="node7" class="node">
<title>Node7</title>
<g id="a_node7"><a xlink:href="_transmitter_code_2src_2main_8cpp.html#a43937dd3d9c795271fd9c3eb3c6b6410" target="_top" xlink:title=" ">
<polygon fill="white" stroke="black" points="990,-379.44 990,-398.44 1073,-398.44 1073,-379.44 990,-379.44"/>
<text text-anchor="middle" x="1031.5" y="-386.44" font-family="Helvetica,sans-Serif" font-size="10.00">GetReturnCode</text>
</a>
</g>
</g>
<!-- Node6&#45;&gt;Node7 -->
<g id="edge6" class="edge">
<title>Node6&#45;&gt;Node7</title>
<path fill="none" stroke="midnightblue" d="M954.09,-388.94C962.35,-388.94 971.14,-388.94 979.7,-388.94"/>
<polygon fill="midnightblue" stroke="midnightblue" points="979.98,-392.44 989.98,-388.94 979.98,-385.44 979.98,-392.44"/>
</g>
<!-- Node9&#45;&gt;Node6 -->
<g id="edge10" class="edge">
<title>Node9&#45;&gt;Node6</title>
<path fill="none" stroke="midnightblue" d="M795.44,-550.14C805.45,-539 821.98,-520.14 835,-502.94 859.67,-470.35 885.62,-430.26 900.06,-407.35"/>
<polygon fill="midnightblue" stroke="midnightblue" points="903.17,-408.99 905.51,-398.65 897.24,-405.27 903.17,-408.99"/>
</g>
<!-- Node9&#45;&gt;Node7 -->
<g id="edge9" class="edge">
<title>Node9&#45;&gt;Node7</title>
<path fill="none" stroke="midnightblue" d="M800.32,-550.26C840.75,-521.92 959.06,-439 1008.45,-404.4"/>
<polygon fill="midnightblue" stroke="midnightblue" points="1010.65,-407.12 1016.83,-398.52 1006.64,-401.39 1010.65,-407.12"/>
</g>
<!-- Node9&#45;&gt;Node8 -->
<g id="edge11" class="edge">
<title>Node9&#45;&gt;Node8</title>
<path fill="none" stroke="midnightblue" d="M797.16,-569.66C818.56,-589.18 866.97,-633.33 893.42,-657.45"/>
<polygon fill="midnightblue" stroke="midnightblue" points="891.12,-660.09 900.87,-664.25 895.84,-654.92 891.12,-660.09"/>
</g>
<!-- Node11 -->
<g id="node11" class="node">
<title>Node11</title>
<g id="a_node11"><a xlink:href="_transmitter_code_2src_2main_8cpp.html#af0852678d8e89501acee8951f09d3b43" target="_top" xlink:title=" ">
<polygon fill="white" stroke="black" points="274,-493.44 274,-512.44 332,-512.44 332,-493.44 274,-493.44"/>
<text text-anchor="middle" x="303" y="-500.44" font-family="Helvetica,sans-Serif" font-size="10.00">ClearText</text>
</a>
</g>
</g>
<!-- Node10&#45;&gt;Node11 -->
<g id="edge13" class="edge">
<title>Node10&#45;&gt;Node11</title>
<path fill="none" stroke="midnightblue" d="M195.08,-531.35C216.08,-525.77 242.54,-518.74 263.88,-513.07"/>
<polygon fill="midnightblue" stroke="midnightblue" points="264.82,-516.44 273.59,-510.49 263.02,-509.68 264.82,-516.44"/>
</g>
<!-- Node12 -->
<g id="node12" class="node">
<title>Node12</title>
<g id="a_node12"><a xlink:href="_transmitter_code_2src_2main_8cpp.html#ad770ee51a34d8c5026e65136884c16bf" target="_top" xlink:title=" ">
<polygon fill="white" stroke="black" points="261,-531.44 261,-550.44 345,-550.44 345,-531.44 261,-531.44"/>
<text text-anchor="middle" x="303" y="-538.44" font-family="Helvetica,sans-Serif" font-size="10.00">ShowServoPos</text>
</a>
</g>
</g>
<!-- Node10&#45;&gt;Node12 -->
<g id="edge14" class="edge">
<title>Node10&#45;&gt;Node12</title>
<path fill="none" stroke="midnightblue" d="M225.06,-540.94C233.6,-540.94 242.25,-540.94 250.5,-540.94"/>
<polygon fill="midnightblue" stroke="midnightblue" points="250.72,-544.44 260.72,-540.94 250.72,-537.44 250.72,-544.44"/>
</g>
<!-- Node12&#45;&gt;Node9 -->
<g id="edge42" class="edge">
<title>Node12&#45;&gt;Node9</title>
<path fill="none" stroke="midnightblue" d="M318.29,-550.5C333.2,-559.86 357.63,-573.49 381,-578.94 519.07,-611.16 559.09,-594.59 700,-578.94 714.29,-577.35 729.7,-574.3 743.39,-571.1"/>
<polygon fill="midnightblue" stroke="midnightblue" points="744.59,-574.41 753.48,-568.64 742.93,-567.61 744.59,-574.41"/>
</g>
<!-- Node13 -->
<g id="node13" class="node">
<title>Node13</title>
<g id="a_node13"><a xlink:href="_transmitter_code_2src_2main_8cpp.html#acf49567c45af927603ae83a7f46e6534" target="_top" xlink:title=" ">
<polygon fill="white" stroke="black" points="423,-322.44 423,-341.44 497,-341.44 497,-322.44 423,-322.44"/>
<text text-anchor="middle" x="460" y="-329.44" font-family="Helvetica,sans-Serif" font-size="10.00">DisplayCurve</text>
</a>
</g>
</g>
<!-- Node12&#45;&gt;Node13 -->
<g id="edge15" class="edge">
<title>Node12&#45;&gt;Node13</title>
<path fill="none" stroke="midnightblue" d="M331.01,-531.24C336,-528.7 340.92,-525.61 345,-521.94 359.63,-508.79 423.63,-395.41 448.79,-350.32"/>
<polygon fill="midnightblue" stroke="midnightblue" points="451.86,-352.01 453.67,-341.57 445.74,-348.6 451.86,-352.01"/>
</g>
<!-- Node18 -->
<g id="node18" class="node">
<title>Node18</title>
<g id="a_node18"><a xlink:href="_transmitter_code_2src_2main_8cpp.html#acbef1d41e1bd646b60a6e8afd9c66880" target="_top" xlink:title=" ">
<polygon fill="white" stroke="black" points="756.5,-474.44 756.5,-493.44 814.5,-493.44 814.5,-474.44 756.5,-474.44"/>
<text text-anchor="middle" x="785.5" y="-481.44" font-family="Helvetica,sans-Serif" font-size="10.00">DrawLine</text>
</a>
</g>
</g>
<!-- Node12&#45;&gt;Node18 -->
<g id="edge38" class="edge">
<title>Node12&#45;&gt;Node18</title>
<path fill="none" stroke="midnightblue" d="M325.38,-531.29C331.73,-528.35 338.67,-525.07 345,-521.94 361.21,-513.91 363.55,-507.7 381,-502.94 511.26,-467.4 673.82,-474.57 746.41,-480.31"/>
<polygon fill="midnightblue" stroke="midnightblue" points="746.2,-483.81 756.46,-481.14 746.78,-476.83 746.2,-483.81"/>
</g>
<!-- Node24 -->
<g id="node24" class="node">
<title>Node24</title>
<g id="a_node24"><a xlink:href="_transmitter_code_2src_2main_8cpp.html#a248db02e07497e7a4149db17b4e5c2f3" target="_top" xlink:title=" ">
<polygon fill="white" stroke="black" points="421.5,-550.44 421.5,-569.44 498.5,-569.44 498.5,-550.44 421.5,-550.44"/>
<text text-anchor="middle" x="460" y="-557.44" font-family="Helvetica,sans-Serif" font-size="10.00">GetStickInput</text>
</a>
</g>
</g>
<!-- Node12&#45;&gt;Node24 -->
<g id="edge39" class="edge">
<title>Node12&#45;&gt;Node24</title>
<path fill="none" stroke="midnightblue" d="M345.13,-545.98C365.48,-548.48 390.15,-551.5 411.32,-554.1"/>
<polygon fill="midnightblue" stroke="midnightblue" points="411.05,-557.59 421.4,-555.33 411.9,-550.64 411.05,-557.59"/>
</g>
<!-- Node26 -->
<g id="node26" class="node">
<title>Node26</title>
<g id="a_node26"><a xlink:href="_transmitter_code_2src_2main_8cpp.html#a5cdbe11d62e0de7610ba323e60b97d33" target="_top" xlink:title=" ">
<polygon fill="white" stroke="black" points="421.5,-512.44 421.5,-531.44 498.5,-531.44 498.5,-512.44 421.5,-512.44"/>
<text text-anchor="middle" x="460" y="-519.44" font-family="Helvetica,sans-Serif" font-size="10.00">IntoLowerRes</text>
</a>
</g>
</g>
<!-- Node12&#45;&gt;Node26 -->
<g id="edge41" class="edge">
<title>Node12&#45;&gt;Node26</title>
<path fill="none" stroke="midnightblue" d="M345.13,-535.9C365.48,-533.41 390.15,-530.38 411.32,-527.79"/>
<polygon fill="midnightblue" stroke="midnightblue" points="411.9,-531.24 421.4,-526.55 411.05,-524.29 411.9,-531.24"/>
</g>
<!-- Node13&#45;&gt;Node6 -->
<g id="edge33" class="edge">
<title>Node13&#45;&gt;Node6</title>
<path fill="none" stroke="midnightblue" d="M497.31,-328.07C511.9,-324.81 527.87,-318.85 539,-307.94 575.44,-272.24 533.65,-228.83 575,-198.94 621.83,-165.09 787.12,-166.6 835,-198.94 892.79,-237.97 906.93,-328.7 910.39,-369.02"/>
<polygon fill="midnightblue" stroke="midnightblue" points="906.91,-369.45 911.12,-379.17 913.89,-368.95 906.91,-369.45"/>
</g>
<!-- Node13&#45;&gt;Node9 -->
<g id="edge34" class="edge">
<title>Node13&#45;&gt;Node9</title>
<path fill="none" stroke="midnightblue" d="M467.37,-341.64C483.14,-365.04 526.28,-425.34 575,-461.94 628.43,-502.07 700.92,-531.44 745.12,-547.08"/>
<polygon fill="midnightblue" stroke="midnightblue" points="744.04,-550.41 754.64,-550.39 746.34,-543.8 744.04,-550.41"/>
</g>
<!-- Node14 -->
<g id="node14" class="node">
<title>Node14</title>
<g id="a_node14"><a xlink:href="_transmitter_code_2src_2main_8cpp.html#a5aeea47b9d855ae9911bae1115d02de7" target="_top" xlink:title=" ">
<polygon fill="white" stroke="black" points="757.5,-322.44 757.5,-341.44 813.5,-341.44 813.5,-322.44 757.5,-322.44"/>
<text text-anchor="middle" x="785.5" y="-329.44" font-family="Helvetica,sans-Serif" font-size="10.00">ClearBox</text>
</a>
</g>
</g>
<!-- Node13&#45;&gt;Node14 -->
<g id="edge16" class="edge">
<title>Node13&#45;&gt;Node14</title>
<path fill="none" stroke="midnightblue" d="M497.09,-326.36C519.46,-323.19 548.83,-319.54 575,-317.94 630.45,-314.55 644.63,-313.39 700,-317.94 715.5,-319.22 732.45,-321.79 747.06,-324.38"/>
<polygon fill="midnightblue" stroke="midnightblue" points="746.77,-327.89 757.24,-326.26 748.04,-321 746.77,-327.89"/>
</g>
<!-- Node15 -->
<g id="node15" class="node">
<title>Node15</title>
<g id="a_node15"><a xlink:href="_transmitter_code_2src_2main_8cpp.html#a68b36025c7478c0710565b4fb059d9bc" target="_top" xlink:title=" ">
<polygon fill="white" stroke="black" points="595.5,-132.44 595.5,-151.44 679.5,-151.44 679.5,-132.44 595.5,-132.44"/>
<text text-anchor="middle" x="637.5" y="-139.44" font-family="Helvetica,sans-Serif" font-size="10.00">DegsToPercent</text>
</a>
</g>
</g>
<!-- Node13&#45;&gt;Node15 -->
<g id="edge19" class="edge">
<title>Node13&#45;&gt;Node15</title>
<path fill="none" stroke="midnightblue" d="M497.29,-328.53C512.06,-325.36 528.16,-319.34 539,-307.94 583.87,-260.76 531.9,-214.74 575,-165.94 578.42,-162.07 582.55,-158.81 587.02,-156.08"/>
<polygon fill="midnightblue" stroke="midnightblue" points="588.69,-159.16 595.96,-151.45 585.47,-152.94 588.69,-159.16"/>
</g>
<!-- Node16 -->
<g id="node16" class="node">
<title>Node16</title>
<g id="a_node16"><a xlink:href="_transmitter_code_2src_2main_8cpp.html#a060d8c4636339f7e6760cf835307530e" target="_top" xlink:title=" ">
<polygon fill="white" stroke="black" points="757.5,-436.44 757.5,-455.44 813.5,-455.44 813.5,-436.44 757.5,-436.44"/>
<text text-anchor="middle" x="785.5" y="-443.44" font-family="Helvetica,sans-Serif" font-size="10.00">DrawBox</text>
</a>
</g>
</g>
<!-- Node13&#45;&gt;Node16 -->
<g id="edge20" class="edge">
<title>Node13&#45;&gt;Node16</title>
<path fill="none" stroke="midnightblue" d="M497.26,-339.84C559.43,-353.49 681.5,-380.82 700,-388.94 724.06,-399.51 748.64,-417 765.04,-429.82"/>
<polygon fill="midnightblue" stroke="midnightblue" points="763.26,-432.88 773.26,-436.39 767.63,-427.41 763.26,-432.88"/>
</g>
<!-- Node17 -->
<g id="node17" class="node">
<title>Node17</title>
<g id="a_node17"><a xlink:href="_transmitter_code_2src_2main_8cpp.html#ad0feb21fbea69455d1d206f142b563ac" target="_top" xlink:title=" ">
<polygon fill="white" stroke="black" points="758.5,-360.44 758.5,-379.44 812.5,-379.44 812.5,-360.44 758.5,-360.44"/>
<text text-anchor="middle" x="785.5" y="-367.44" font-family="Helvetica,sans-Serif" font-size="10.00">DrawDot</text>
</a>
</g>
</g>
<!-- Node13&#45;&gt;Node17 -->
<g id="edge23" class="edge">
<title>Node13&#45;&gt;Node17</title>
<path fill="none" stroke="midnightblue" d="M497.12,-334.84C543.99,-338.77 628.28,-346.41 700,-355.94 715.93,-358.06 733.47,-360.88 748.42,-363.44"/>
<polygon fill="midnightblue" stroke="midnightblue" points="747.85,-366.89 758.3,-365.16 749.05,-360 747.85,-366.89"/>
</g>
<!-- Node13&#45;&gt;Node18 -->
<g id="edge26" class="edge">
<title>Node13&#45;&gt;Node18</title>
<path fill="none" stroke="midnightblue" d="M469.74,-341.6C487.62,-360.76 530.44,-403.73 575,-426.94 630.75,-455.98 702.76,-471.37 746.19,-478.58"/>
<polygon fill="midnightblue" stroke="midnightblue" points="745.9,-482.07 756.33,-480.19 747,-475.16 745.9,-482.07"/>
</g>
<!-- Node19 -->
<g id="node19" class="node">
<title>Node19</title>
<g id="a_node19"><a xlink:href="_transmitter_code_2src_2main_8cpp.html#a4abc073f79b7ab2a2b4429990420cbf0" target="_top" xlink:title="Uses servo degrees to position dots.">
<polygon fill="white" stroke="black" points="593.5,-94.44 593.5,-113.44 681.5,-113.44 681.5,-94.44 593.5,-94.44"/>
<text text-anchor="middle" x="637.5" y="-101.44" font-family="Helvetica,sans-Serif" font-size="10.00">GetDotPositions</text>
</a>
</g>
</g>
<!-- Node13&#45;&gt;Node19 -->
<g id="edge29" class="edge">
<title>Node13&#45;&gt;Node19</title>
<path fill="none" stroke="midnightblue" d="M497.2,-328.9C512.14,-325.81 528.39,-319.74 539,-307.94 595,-245.65 519.04,-185.27 575,-122.94 577.69,-119.94 580.85,-117.41 584.29,-115.27"/>
<polygon fill="midnightblue" stroke="midnightblue" points="585.94,-118.36 593.3,-110.74 582.79,-112.11 585.94,-118.36"/>
</g>
<!-- Node20 -->
<g id="node20" class="node">
<title>Node20</title>
<g id="a_node20"><a xlink:href="_transmitter_code_2src_2main_8cpp.html#a927484b01116cd14fd1ade706bc06d51" target="_top" xlink:title=" ">
<polygon fill="white" stroke="black" points="585.5,-56.44 585.5,-75.44 689.5,-75.44 689.5,-56.44 585.5,-56.44"/>
<text text-anchor="middle" x="637.5" y="-63.44" font-family="Helvetica,sans-Serif" font-size="10.00">MapWithExponential</text>
</a>
</g>
</g>
<!-- Node13&#45;&gt;Node20 -->
<g id="edge30" class="edge">
<title>Node13&#45;&gt;Node20</title>
<path fill="none" stroke="midnightblue" d="M497.39,-329.07C512.35,-326 528.58,-319.91 539,-307.94 604.91,-232.21 509.13,-160.71 575,-84.94 576.16,-83.61 577.41,-82.37 578.74,-81.21"/>
<polygon fill="midnightblue" stroke="midnightblue" points="580.8,-84.04 587.05,-75.49 576.83,-78.27 580.8,-84.04"/>
</g>
<!-- Node21 -->
<g id="node21" class="node">
<title>Node21</title>
<g id="a_node21"><a xlink:href="_radio_functions_8cpp.html#a760609a682300dfe6bfaac737fd4d5eb" target="_top" xlink:title=" ">
<polygon fill="white" stroke="black" points="600.5,-208.44 600.5,-227.44 674.5,-227.44 674.5,-208.44 600.5,-208.44"/>
<text text-anchor="middle" x="637.5" y="-215.44" font-family="Helvetica,sans-Serif" font-size="10.00">Procrastinate</text>
</a>
</g>
</g>
<!-- Node13&#45;&gt;Node21 -->
<g id="edge31" class="edge">
<title>Node13&#45;&gt;Node21</title>
<path fill="none" stroke="midnightblue" d="M497.18,-326.86C511.42,-323.41 527.15,-317.62 539,-307.94 564.88,-286.8 549.92,-264.02 575,-241.94 579.74,-237.77 585.29,-234.28 591.09,-231.37"/>
<polygon fill="midnightblue" stroke="midnightblue" points="592.59,-234.53 600.31,-227.27 589.75,-228.14 592.59,-234.53"/>
</g>
<!-- Node23 -->
<g id="node23" class="node">
<title>Node23</title>
<g id="a_node23"><a xlink:href="_transmitter_code_2src_2main_8cpp.html#a3d20af2f1fee81198a0cef2d4500083a" target="_top" xlink:title=" ">
<polygon fill="white" stroke="black" points="575,-398.44 575,-417.44 700,-417.44 700,-398.44 575,-398.44"/>
<text text-anchor="middle" x="637.5" y="-405.44" font-family="Helvetica,sans-Serif" font-size="10.00">updateInterpolationTypes</text>
</a>
</g>
</g>
<!-- Node13&#45;&gt;Node23 -->
<g id="edge35" class="edge">
<title>Node13&#45;&gt;Node23</title>
<path fill="none" stroke="midnightblue" d="M481.03,-341.49C503.68,-352.19 541.74,-369.88 575,-383.94 583.51,-387.54 592.77,-391.25 601.45,-394.65"/>
<polygon fill="midnightblue" stroke="midnightblue" points="600.35,-397.98 610.94,-398.33 602.88,-391.45 600.35,-397.98"/>
</g>
<!-- Node14&#45;&gt;Node6 -->
<g id="edge17" class="edge">
<title>Node14&#45;&gt;Node6</title>
<path fill="none" stroke="midnightblue" d="M812.35,-341.58C819.72,-344.46 827.72,-347.72 835,-350.94 851.68,-358.34 870,-367.4 884.53,-374.82"/>
<polygon fill="midnightblue" stroke="midnightblue" points="882.98,-377.96 893.47,-379.43 886.19,-371.74 882.98,-377.96"/>
</g>
<!-- Node14&#45;&gt;Node8 -->
<g id="edge18" class="edge">
<title>Node14&#45;&gt;Node8</title>
<path fill="none" stroke="midnightblue" d="M813.74,-337.52C821.58,-340.35 829.49,-344.59 835,-350.94 875.37,-397.44 901.65,-591.38 909.23,-654.21"/>
<polygon fill="midnightblue" stroke="midnightblue" points="905.78,-654.83 910.43,-664.35 912.73,-654.01 905.78,-654.83"/>
</g>
<!-- Node16&#45;&gt;Node6 -->
<g id="edge21" class="edge">
<title>Node16&#45;&gt;Node6</title>
<path fill="none" stroke="midnightblue" d="M807.42,-436.4C827.61,-427.19 858.4,-413.16 881.25,-402.73"/>
<polygon fill="midnightblue" stroke="midnightblue" points="882.86,-405.85 890.51,-398.51 879.96,-399.48 882.86,-405.85"/>
</g>
<!-- Node16&#45;&gt;Node8 -->
<g id="edge22" class="edge">
<title>Node16&#45;&gt;Node8</title>
<path fill="none" stroke="midnightblue" d="M813.55,-452.02C821.28,-454.87 829.18,-458.99 835,-464.94 888.09,-519.24 904.75,-613.34 909.63,-654.13"/>
<polygon fill="midnightblue" stroke="midnightblue" points="906.16,-654.58 910.71,-664.15 913.11,-653.83 906.16,-654.58"/>
</g>
<!-- Node17&#45;&gt;Node6 -->
<g id="edge24" class="edge">
<title>Node17&#45;&gt;Node6</title>
<path fill="none" stroke="midnightblue" d="M812.7,-373.92C826.58,-376.03 844.1,-378.7 860.52,-381.19"/>
<polygon fill="midnightblue" stroke="midnightblue" points="860.15,-384.68 870.57,-382.72 861.21,-377.76 860.15,-384.68"/>
</g>
<!-- Node17&#45;&gt;Node8 -->
<g id="edge25" class="edge">
<title>Node17&#45;&gt;Node8</title>
<path fill="none" stroke="midnightblue" d="M796.81,-379.5C807.72,-390.13 824.73,-408.27 835,-426.94 878.08,-505.3 900.44,-611.27 908.24,-654.43"/>
<polygon fill="midnightblue" stroke="midnightblue" points="904.81,-655.19 909.98,-664.43 911.71,-653.98 904.81,-655.19"/>
</g>
<!-- Node18&#45;&gt;Node6 -->
<g id="edge27" class="edge">
<title>Node18&#45;&gt;Node6</title>
<path fill="none" stroke="midnightblue" d="M814.65,-475.15C821.58,-472.4 828.79,-468.99 835,-464.94 859.84,-448.75 883.23,-423.5 897.45,-406.6"/>
<polygon fill="midnightblue" stroke="midnightblue" points="900.37,-408.56 904.01,-398.62 894.96,-404.12 900.37,-408.56"/>
</g>
<!-- Node18&#45;&gt;Node8 -->
<g id="edge28" class="edge">
<title>Node18&#45;&gt;Node8</title>
<path fill="none" stroke="midnightblue" d="M795.66,-493.58C805.88,-504.57 822.58,-523.31 835,-540.94 862.21,-579.59 888.46,-628.56 902,-654.97"/>
<polygon fill="midnightblue" stroke="midnightblue" points="899.05,-656.89 906.69,-664.22 905.29,-653.72 899.05,-656.89"/>
</g>
<!-- Node22 -->
<g id="node22" class="node">
<title>Node22</title>
<g id="a_node22"><a xlink:href="_transmitter_code_2src_2main_8cpp.html#ada95a00a341e4a80176eda743a94ab2e" target="_top" xlink:title=" ">
<polygon fill="white" stroke="black" points="750.5,-208.44 750.5,-227.44 820.5,-227.44 820.5,-208.44 750.5,-208.44"/>
<text text-anchor="middle" x="785.5" y="-215.44" font-family="Helvetica,sans-Serif" font-size="10.00">KickTheDog</text>
</a>
</g>
</g>
<!-- Node21&#45;&gt;Node22 -->
<g id="edge32" class="edge">
<title>Node21&#45;&gt;Node22</title>
<path fill="none" stroke="midnightblue" d="M674.59,-217.94C694.38,-217.94 719.09,-217.94 740.06,-217.94"/>
<polygon fill="midnightblue" stroke="midnightblue" points="740.33,-221.44 750.33,-217.94 740.33,-214.44 740.33,-221.44"/>
</g>
<!-- Node23&#45;&gt;Node6 -->
<g id="edge36" class="edge">
<title>Node23&#45;&gt;Node6</title>
<path fill="none" stroke="midnightblue" d="M700.11,-403.65C748.55,-400.28 815.21,-395.64 860.64,-392.48"/>
<polygon fill="midnightblue" stroke="midnightblue" points="861.12,-395.96 870.85,-391.77 860.63,-388.97 861.12,-395.96"/>
</g>
<!-- Node23&#45;&gt;Node9 -->
<g id="edge37" class="edge">
<title>Node23&#45;&gt;Node9</title>
<path fill="none" stroke="midnightblue" d="M647.63,-417.45C671.8,-442.61 737.69,-511.21 768.37,-543.15"/>
<polygon fill="midnightblue" stroke="midnightblue" points="765.92,-545.65 775.37,-550.44 770.97,-540.8 765.92,-545.65"/>
</g>
<!-- Node25 -->
<g id="node25" class="node">
<title>Node25</title>
<g id="a_node25"><a xlink:href="_transmitter_code_2src_2main_8cpp.html#a0d8d8a0d67cb9b04481f1692abe75368" target="_top" xlink:title=" ">
<polygon fill="white" stroke="black" points="598,-550.44 598,-569.44 677,-569.44 677,-550.44 598,-550.44"/>
<text text-anchor="middle" x="637.5" y="-557.44" font-family="Helvetica,sans-Serif" font-size="10.00">IntoHigherRes</text>
</a>
</g>
</g>
<!-- Node24&#45;&gt;Node25 -->
<g id="edge40" class="edge">
<title>Node24&#45;&gt;Node25</title>
<path fill="none" stroke="midnightblue" d="M498.65,-559.94C524.66,-559.94 559.51,-559.94 587.66,-559.94"/>
<polygon fill="midnightblue" stroke="midnightblue" points="587.7,-563.44 597.7,-559.94 587.7,-556.44 587.7,-563.44"/>
</g>
<!-- Node27&#45;&gt;Node8 -->
<g id="edge56" class="edge">
<title>Node27&#45;&gt;Node8</title>
<path fill="none" stroke="midnightblue" d="M196.23,-822.21C321.54,-825.84 726.19,-832.16 835,-766.94 865.32,-748.77 888.97,-714.02 901.52,-692.53"/>
<polygon fill="midnightblue" stroke="midnightblue" points="904.64,-694.13 906.5,-683.7 898.54,-690.69 904.64,-694.13"/>
</g>
<!-- Node28 -->
<g id="node28" class="node">
<title>Node28</title>
<g id="a_node28"><a xlink:href="_transmitter_code_2src_2main_8cpp.html#add8d8f400f1c1c4a5add52736cdf94ca" target="_top" xlink:title=" ">
<polygon fill="white" stroke="black" points="277,-849.44 277,-868.44 329,-868.44 329,-849.44 277,-849.44"/>
<text text-anchor="middle" x="303" y="-856.44" font-family="Helvetica,sans-Serif" font-size="10.00">LogText</text>
</a>
</g>
</g>
<!-- Node27&#45;&gt;Node28 -->
<g id="edge44" class="edge">
<title>Node27&#45;&gt;Node28</title>
<path fill="none" stroke="midnightblue" d="M195.08,-830.53C217.08,-836.38 245.07,-843.81 266.89,-849.61"/>
<polygon fill="midnightblue" stroke="midnightblue" points="266.18,-853.04 276.74,-852.23 267.98,-846.28 266.18,-853.04"/>
</g>
<!-- Node29 -->
<g id="node29" class="node">
<title>Node29</title>
<g id="a_node29"><a xlink:href="_transmitter_code_2src_2main_8cpp.html#a6f003363493fc53b69f9efc1f447a6a1" target="_top" xlink:title=" ">
<polygon fill="white" stroke="black" points="423,-849.44 423,-868.44 497,-868.44 497,-849.44 423,-849.44"/>
<text text-anchor="middle" x="460" y="-856.44" font-family="Helvetica,sans-Serif" font-size="10.00">CloseLogFile</text>
</a>
</g>
</g>
<!-- Node28&#45;&gt;Node29 -->
<g id="edge45" class="edge">
<title>Node28&#45;&gt;Node29</title>
<path fill="none" stroke="midnightblue" d="M329.25,-858.94C351.76,-858.94 385.29,-858.94 412.63,-858.94"/>
<polygon fill="midnightblue" stroke="midnightblue" points="412.76,-862.44 422.76,-858.94 412.76,-855.44 412.76,-862.44"/>
</g>
<!-- Node30 -->
<g id="node30" class="node">
<title>Node30</title>
<g id="a_node30"><a xlink:href="_transmitter_code_2src_2main_8cpp.html#a99a51dbad5d686ca711e982f82cbcada" target="_top" xlink:title=" ">
<polygon fill="white" stroke="black" points="415,-925.44 415,-944.44 505,-944.44 505,-925.44 415,-925.44"/>
<text text-anchor="middle" x="460" y="-932.44" font-family="Helvetica,sans-Serif" font-size="10.00">LogFilePreamble</text>
</a>
</g>
</g>
<!-- Node28&#45;&gt;Node30 -->
<g id="edge46" class="edge">
<title>Node28&#45;&gt;Node30</title>
<path fill="none" stroke="midnightblue" d="M328.09,-868.6C333.82,-871.3 339.78,-874.46 345,-877.94 363.06,-889.98 362.17,-900.15 381,-910.94 388.77,-915.39 397.46,-919.11 406.14,-922.18"/>
<polygon fill="midnightblue" stroke="midnightblue" points="405.29,-925.59 415.89,-925.38 407.48,-918.94 405.29,-925.59"/>
</g>
<!-- Node36 -->
<g id="node36" class="node">
<title>Node36</title>
<g id="a_node36"><a xlink:href="_transmitter_code_2src_2main_8cpp.html#a99154e537ca6e0ce5d538fddf0c2aab3" target="_top" xlink:title=" ">
<polygon fill="white" stroke="black" points="596,-868.44 596,-887.44 679,-887.44 679,-868.44 596,-868.44"/>
<text text-anchor="middle" x="637.5" y="-875.44" font-family="Helvetica,sans-Serif" font-size="10.00">WriteToLogFile</text>
</a>
</g>
</g>
<!-- Node28&#45;&gt;Node36 -->
<g id="edge55" class="edge">
<title>Node28&#45;&gt;Node36</title>
<path fill="none" stroke="midnightblue" d="M329.03,-866.75C343.95,-870.99 363.37,-875.8 381,-877.94 451.44,-886.5 533.62,-884.37 585.36,-881.56"/>
<polygon fill="midnightblue" stroke="midnightblue" points="585.82,-885.03 595.61,-880.97 585.42,-878.05 585.82,-885.03"/>
</g>
<!-- Node31 -->
<g id="node31" class="node">
<title>Node31</title>
<g id="a_node31"><a xlink:href="_transmitter_code_2src_2main_8cpp.html#ac45f2f949ccfa372a8cbab3ef0b8caa8" target="_top" xlink:title=" ">
<polygon fill="white" stroke="black" points="583.5,-944.44 583.5,-963.44 691.5,-963.44 691.5,-944.44 583.5,-944.44"/>
<text text-anchor="middle" x="637.5" y="-951.44" font-family="Helvetica,sans-Serif" font-size="10.00">CheckLogFileIsOpen</text>
</a>
</g>
</g>
<!-- Node30&#45;&gt;Node31 -->
<g id="edge47" class="edge">
<title>Node30&#45;&gt;Node31</title>
<path fill="none" stroke="midnightblue" d="M505.29,-939.74C525.89,-941.97 550.77,-944.66 573.31,-947.1"/>
<polygon fill="midnightblue" stroke="midnightblue" points="573.15,-950.6 583.47,-948.2 573.91,-943.64 573.15,-950.6"/>
</g>
<!-- Node34 -->
<g id="node34" class="node">
<title>Node34</title>
<g id="a_node34"><a xlink:href="_transmitter_code_2src_2main_8cpp.html#a5d42b1fba153cc76dc96778cfb6f1a40" target="_top" xlink:title=" ">
<polygon fill="white" stroke="black" points="590,-906.44 590,-925.44 685,-925.44 685,-906.44 590,-906.44"/>
<text text-anchor="middle" x="637.5" y="-913.44" font-family="Helvetica,sans-Serif" font-size="10.00">CreateTimeStamp</text>
</a>
</g>
</g>
<!-- Node30&#45;&gt;Node34 -->
<g id="edge51" class="edge">
<title>Node30&#45;&gt;Node34</title>
<path fill="none" stroke="midnightblue" d="M505.29,-930.15C527.85,-927.7 555.55,-924.7 579.68,-922.09"/>
<polygon fill="midnightblue" stroke="midnightblue" points="580.21,-925.56 589.77,-921 579.45,-918.6 580.21,-925.56"/>
</g>
<!-- Node30&#45;&gt;Node36 -->
<g id="edge54" class="edge">
<title>Node30&#45;&gt;Node36</title>
<path fill="none" stroke="midnightblue" d="M493.81,-925.42C507.81,-921.21 524.28,-916.06 539,-910.94 555.21,-905.3 558.79,-902.59 575,-896.94 581.16,-894.79 587.72,-892.64 594.16,-890.59"/>
<polygon fill="midnightblue" stroke="midnightblue" points="595.62,-893.8 604.12,-887.47 593.53,-887.12 595.62,-893.8"/>
</g>
<!-- Node32 -->
<g id="node32" class="node">
<title>Node32</title>
<g id="a_node32"><a xlink:href="_transmitter_code_2src_2main_8cpp.html#a05c7b4e0b98f9b97eebf9617442de6a5" target="_top" xlink:title=" ">
<polygon fill="white" stroke="black" points="736,-973.44 736,-992.44 835,-992.44 835,-973.44 736,-973.44"/>
<text text-anchor="middle" x="785.5" y="-980.44" font-family="Helvetica,sans-Serif" font-size="10.00">MakeLogFileName</text>
</a>
</g>
</g>
<!-- Node31&#45;&gt;Node32 -->
<g id="edge48" class="edge">
<title>Node31&#45;&gt;Node32</title>
<path fill="none" stroke="midnightblue" d="M686.71,-963.52C699.42,-966.04 713.26,-968.79 726.43,-971.41"/>
<polygon fill="midnightblue" stroke="midnightblue" points="725.85,-974.86 736.34,-973.38 727.21,-967.99 725.85,-974.86"/>
</g>
<!-- Node33 -->
<g id="node33" class="node">
<title>Node33</title>
<g id="a_node33"><a xlink:href="_transmitter_code_2src_2main_8cpp.html#ad2d22d4683c318454ab9a1dd15e1f647" target="_top" xlink:title=" ">
<polygon fill="white" stroke="black" points="745,-935.44 745,-954.44 826,-954.44 826,-935.44 745,-935.44"/>
<text text-anchor="middle" x="785.5" y="-942.44" font-family="Helvetica,sans-Serif" font-size="10.00">OpenLogFileW</text>
</a>
</g>
</g>
<!-- Node31&#45;&gt;Node33 -->
<g id="edge50" class="edge">
<title>Node31&#45;&gt;Node33</title>
<path fill="none" stroke="midnightblue" d="M691.62,-950.67C705.66,-949.8 720.75,-948.87 734.61,-948.02"/>
<polygon fill="midnightblue" stroke="midnightblue" points="735.16,-951.49 744.92,-947.38 734.73,-944.5 735.16,-951.49"/>
</g>
<!-- Node32&#45;&gt;Node8 -->
<g id="edge49" class="edge">
<title>Node32&#45;&gt;Node8</title>
<path fill="none" stroke="midnightblue" d="M822.89,-973.2C827.42,-970.76 831.63,-967.72 835,-963.94 906.32,-883.87 912.4,-744.97 912.05,-693.7"/>
<polygon fill="midnightblue" stroke="midnightblue" points="915.55,-693.57 911.89,-683.63 908.55,-693.69 915.55,-693.57"/>
</g>
<!-- Node34&#45;&gt;Node8 -->
<g id="edge53" class="edge">
<title>Node34&#45;&gt;Node8</title>
<path fill="none" stroke="midnightblue" d="M685.13,-921.97C728.68,-924.93 793.09,-922.15 835,-887.94 895.76,-838.35 908.29,-736.75 910.85,-693.81"/>
<polygon fill="midnightblue" stroke="midnightblue" points="914.36,-693.71 911.33,-683.56 907.37,-693.38 914.36,-693.71"/>
</g>
<!-- Node35 -->
<g id="node35" class="node">
<title>Node35</title>
<g id="a_node35"><a xlink:href="_transmitter_code_2src_2main_8cpp.html#ae310e7fc6397929ae886869c05cbc334" target="_top" xlink:title=" ">
<polygon fill="white" stroke="black" points="744,-859.44 744,-878.44 827,-878.44 827,-859.44 744,-859.44"/>
<text text-anchor="middle" x="785.5" y="-866.44" font-family="Helvetica,sans-Serif" font-size="10.00">MayBeAddZero</text>
</a>
</g>
</g>
<!-- Node34&#45;&gt;Node35 -->
<g id="edge52" class="edge">
<title>Node34&#45;&gt;Node35</title>
<path fill="none" stroke="midnightblue" d="M669.83,-906.4C679.51,-903.41 690.21,-900.08 700,-896.94 715.19,-892.08 731.86,-886.59 746.35,-881.76"/>
<polygon fill="midnightblue" stroke="midnightblue" points="747.62,-885.03 755.99,-878.55 745.4,-878.39 747.62,-885.03"/>
</g>
<!-- Node38&#45;&gt;Node6 -->
<g id="edge60" class="edge">
<title>Node38&#45;&gt;Node6</title>
<path fill="none" stroke="midnightblue" d="M317.96,-113.3C368.88,-79.36 549.48,30.52 700,-8.94 766.6,-26.4 793.2,-30.22 835,-84.94 903.18,-174.21 911.15,-317.13 911.68,-369.17"/>
<polygon fill="midnightblue" stroke="midnightblue" points="908.18,-369.36 911.69,-379.36 915.18,-369.35 908.18,-369.36"/>
</g>
<!-- Node39&#45;&gt;Node6 -->
<g id="edge62" class="edge">
<title>Node39&#45;&gt;Node6</title>
<path fill="none" stroke="midnightblue" d="M670.72,-32.61C680.99,-35.4 691.81,-39.84 700,-46.94 728.25,-71.42 709.14,-96.95 736,-122.94 770.47,-156.3 802.45,-130.7 835,-165.94 863.47,-196.76 895.41,-321.26 907,-369.61"/>
<polygon fill="midnightblue" stroke="midnightblue" points="903.61,-370.51 909.32,-379.44 910.43,-368.9 903.61,-370.51"/>
</g>
<!-- Node40 -->
<g id="node40" class="node">
<title>Node40</title>
<g id="a_node40"><a xlink:href="_transmitter_code_2src_2main_8cpp.html#afe513398f72d5e48f691830a1ef6eb42" target="_top" xlink:title=" ">
<polygon fill="white" stroke="black" points="756.5,-94.44 756.5,-113.44 814.5,-113.44 814.5,-94.44 756.5,-94.44"/>
<text text-anchor="middle" x="785.5" y="-101.44" font-family="Helvetica,sans-Serif" font-size="10.00">SendText</text>
</a>
</g>
</g>
<!-- Node39&#45;&gt;Node40 -->
<g id="edge63" class="edge">
<title>Node39&#45;&gt;Node40</title>
<path fill="none" stroke="midnightblue" d="M670.78,-35.97C680.41,-38.88 690.83,-42.55 700,-46.94 723.43,-58.16 747.78,-75.26 764.29,-87.8"/>
<polygon fill="midnightblue" stroke="midnightblue" points="762.54,-90.88 772.59,-94.24 766.83,-85.35 762.54,-90.88"/>
</g>
<!-- Node40&#45;&gt;Node6 -->
<g id="edge65" class="edge">
<title>Node40&#45;&gt;Node6</title>
<path fill="none" stroke="midnightblue" d="M814.63,-113.08C822.13,-116.68 829.63,-121.54 835,-127.94 851.01,-147.02 892.57,-311.86 906.71,-369.3"/>
<polygon fill="midnightblue" stroke="midnightblue" points="903.38,-370.4 909.16,-379.28 910.18,-368.74 903.38,-370.4"/>
</g>
<!-- Node40&#45;&gt;Node7 -->
<g id="edge64" class="edge">
<title>Node40&#45;&gt;Node7</title>
<path fill="none" stroke="midnightblue" d="M811.53,-113.59C819.51,-117.36 828.07,-122.17 835,-127.94 924.02,-201.97 995.57,-324.27 1020.75,-370.49"/>
<polygon fill="midnightblue" stroke="midnightblue" points="1017.72,-372.23 1025.54,-379.38 1023.88,-368.92 1017.72,-372.23"/>
</g>
<!-- Node41&#45;&gt;Node5 -->
<g id="edge67" class="edge">
<title>Node41&#45;&gt;Node5</title>
<path fill="none" stroke="midnightblue" d="M669.6,-740.35C679.68,-736.59 690.66,-731.76 700,-725.94 718.42,-714.47 717.58,-704.43 736,-692.94 739.01,-691.07 742.23,-689.32 745.53,-687.71"/>
<polygon fill="midnightblue" stroke="midnightblue" points="747.22,-690.78 754.93,-683.52 744.38,-684.39 747.22,-690.78"/>
</g>
<!-- Node42 -->
<g id="node42" class="node">
<title>Node42</title>
<g id="a_node42"><a xlink:href="_transmitter_code_2src_2main_8cpp.html#a49da3478d89a22069e29c7f00cb46a5f" target="_top" xlink:title=" ">
<polygon fill="white" stroke="black" points="737,-702.44 737,-721.44 834,-721.44 834,-702.44 737,-702.44"/>
<text text-anchor="middle" x="785.5" y="-709.44" font-family="Helvetica,sans-Serif" font-size="10.00">RestoreBrightness</text>
</a>
</g>
</g>
<!-- Node41&#45;&gt;Node42 -->
<g id="edge68" class="edge">
<title>Node41&#45;&gt;Node42</title>
<path fill="none" stroke="midnightblue" d="M671.27,-741.41C691.02,-736.27 716.5,-729.64 738.28,-723.97"/>
<polygon fill="midnightblue" stroke="midnightblue" points="739.2,-727.35 748,-721.44 737.44,-720.57 739.2,-727.35"/>
</g>
<!-- Node42&#45;&gt;Node6 -->
<g id="edge69" class="edge">
<title>Node42&#45;&gt;Node6</title>
<path fill="none" stroke="midnightblue" d="M822.92,-702.23C827.45,-699.79 831.65,-696.74 835,-692.94 909.55,-608.27 913.53,-461.4 912.34,-408.58"/>
<polygon fill="midnightblue" stroke="midnightblue" points="915.84,-408.41 912.02,-398.53 908.84,-408.63 915.84,-408.41"/>
</g>
<!-- Node42&#45;&gt;Node8 -->
<g id="edge70" class="edge">
<title>Node42&#45;&gt;Node8</title>
<path fill="none" stroke="midnightblue" d="M818.04,-702.35C839.87,-695.72 868.43,-687.03 888.21,-681.02"/>
<polygon fill="midnightblue" stroke="midnightblue" points="889.38,-684.32 897.93,-678.07 887.34,-677.63 889.38,-684.32"/>
</g>
<!-- Node43&#45;&gt;Node8 -->
<g id="edge73" class="edge">
<title>Node43&#45;&gt;Node8</title>
<path fill="none" stroke="midnightblue" d="M465.64,-645.8C478.57,-671.91 517.81,-742.64 575,-768.94 681.1,-817.74 730.22,-782.51 835,-730.94 856.61,-720.3 878.36,-703.35 893.12,-690.7"/>
<polygon fill="midnightblue" stroke="midnightblue" points="895.74,-693.05 900.94,-683.82 891.12,-687.79 895.74,-693.05"/>
</g>
<!-- Node43&#45;&gt;Node40 -->
<g id="edge72" class="edge">
<title>Node43&#45;&gt;Node40</title>
<path fill="none" stroke="midnightblue" d="M481.71,-626.41C499.78,-616.97 525.2,-600.78 539,-578.94 584.91,-506.28 538.57,-466.78 575,-388.94 612.08,-309.72 648.67,-307.76 700,-236.94 728.61,-197.46 758.34,-148.49 773.76,-122.38"/>
<polygon fill="midnightblue" stroke="midnightblue" points="776.9,-123.95 778.94,-113.56 770.86,-120.41 776.9,-123.95"/>
</g>
<!-- Node44 -->
<g id="node44" class="node">
<title>Node44</title>
<g id="a_node44"><a xlink:href="_transmitter_code_2src_2main_8cpp.html#ac78966debc2cdc13d8ca958ce3b20c78" target="_top" xlink:title=" ">
<polygon fill="white" stroke="black" points="593,-626.44 593,-645.44 682,-645.44 682,-626.44 593,-626.44"/>
<text text-anchor="middle" x="637.5" y="-633.44" font-family="Helvetica,sans-Serif" font-size="10.00">UpdateTrimView</text>
</a>
</g>
</g>
<!-- Node43&#45;&gt;Node44 -->
<g id="edge74" class="edge">
<title>Node43&#45;&gt;Node44</title>
<path fill="none" stroke="midnightblue" d="M539.25,-635.94C553.82,-635.94 568.74,-635.94 582.39,-635.94"/>
<polygon fill="midnightblue" stroke="midnightblue" points="582.54,-639.44 592.54,-635.94 582.54,-632.44 582.54,-639.44"/>
</g>
<!-- Node44&#45;&gt;Node9 -->
<g id="edge75" class="edge">
<title>Node44&#45;&gt;Node9</title>
<path fill="none" stroke="midnightblue" d="M666.2,-626.34C676.94,-622.31 689.23,-617.3 700,-611.94 721.86,-601.06 745.42,-586.29 762.09,-575.27"/>
<polygon fill="midnightblue" stroke="midnightblue" points="764.23,-578.05 770.59,-569.58 760.34,-572.23 764.23,-578.05"/>
</g>
</g>
</svg>
