<?xml version="1.0" encoding="UTF-8" standalone="no"?>
<!DOCTYPE svg PUBLIC "-//W3C//DTD SVG 1.1//EN"
 "http://www.w3.org/Graphics/SVG/1.1/DTD/svg11.dtd">
<!-- Generated by graphviz version 2.44.0 ()
 -->
<!-- Title: SaveNewGains Pages: 1 -->
<svg width="770pt" height="104pt"
 viewBox="0.00 0.00 770.00 104.00" xmlns="http://www.w3.org/2000/svg" xmlns:xlink="http://www.w3.org/1999/xlink">
<g id="graph0" class="graph" transform="scale(1 1) rotate(0) translate(4 100)">
<title>SaveNewGains</title>
<polygon fill="white" stroke="transparent" points="-4,4 -4,-100 766,-100 766,4 -4,4"/>
<!-- Node1 -->
<g id="node1" class="node">
<title>Node1</title>
<g id="a_node1"><a xlink:title=" ">
<polygon fill="#bfbfbf" stroke="black" points="677,-57.5 677,-76.5 762,-76.5 762,-57.5 677,-57.5"/>
<text text-anchor="middle" x="719.5" y="-64.5" font-family="Helvetica,sans-Serif" font-size="10.00">SaveNewGains</text>
</a>
</g>
</g>
<!-- Node2 -->
<g id="node2" class="node">
<title>Node2</title>
<g id="a_node2"><a xlink:href="_transmitter_code_2src_2main_8cpp.html#aed6c682ed45951f95e0b02cf6b570da2" target="_top" xlink:title=" ">
<polygon fill="white" stroke="black" points="417,-76.5 417,-95.5 525,-95.5 525,-76.5 417,-76.5"/>
<text text-anchor="middle" x="471" y="-83.5" font-family="Helvetica,sans-Serif" font-size="10.00">Button_was_pressed</text>
</a>
</g>
</g>
<!-- Node1&#45;&gt;Node2 -->
<g id="edge1" class="edge">
<title>Node1&#45;&gt;Node2</title>
<path fill="none" stroke="midnightblue" d="M666.79,-70.99C625.3,-74.18 567.26,-78.66 525.34,-81.89"/>
<polygon fill="midnightblue" stroke="midnightblue" points="667.26,-74.46 676.96,-70.2 666.72,-67.48 667.26,-74.46"/>
</g>
<!-- Node4 -->
<g id="node4" class="node">
<title>Node4</title>
<g id="a_node4"><a xlink:href="_transmitter_code_2src_2main_8cpp.html#adf35f0ced7990f813a783d0ecd33bf64" target="_top" xlink:title=" ">
<polygon fill="white" stroke="black" points="561,-38.5 561,-57.5 641,-57.5 641,-38.5 561,-38.5"/>
<text text-anchor="middle" x="601" y="-45.5" font-family="Helvetica,sans-Serif" font-size="10.00">GetFlightMode</text>
</a>
</g>
</g>
<!-- Node1&#45;&gt;Node4 -->
<g id="edge3" class="edge">
<title>Node1&#45;&gt;Node4</title>
<path fill="none" stroke="midnightblue" d="M666.78,-58.57C658.16,-57.16 649.35,-55.72 641.11,-54.38"/>
<polygon fill="midnightblue" stroke="midnightblue" points="666.34,-62.04 676.77,-60.19 667.46,-55.13 666.34,-62.04"/>
</g>
<!-- Node3 -->
<g id="node3" class="node">
<title>Node3</title>
<g id="a_node3"><a xlink:href="_transmitter_code_2src_2main_8cpp.html#afe461d27b9c48d5921c00d521181f12f" target="_top" xlink:title=" ">
<polygon fill="white" stroke="black" points="0,-57.5 0,-76.5 35,-76.5 35,-57.5 0,-57.5"/>
<text text-anchor="middle" x="17.5" y="-64.5" font-family="Helvetica,sans-Serif" font-size="10.00">loop</text>
</a>
</g>
</g>
<!-- Node2&#45;&gt;Node3 -->
<g id="edge2" class="edge">
<title>Node2&#45;&gt;Node3</title>
<path fill="none" stroke="midnightblue" d="M406.68,-83.34C301.11,-78.89 94.83,-70.21 35.08,-67.7"/>
<polygon fill="midnightblue" stroke="midnightblue" points="406.74,-86.84 416.88,-83.76 407.04,-79.85 406.74,-86.84"/>
</g>
<!-- Node5 -->
<g id="node5" class="node">
<title>Node5</title>
<g id="a_node5"><a xlink:href="_radio_functions_8h.html#ab0af36f3442ad4f2d0b716c14c7d6085" target="_top" xlink:title=" ">
<polygon fill="white" stroke="black" points="431,-38.5 431,-57.5 511,-57.5 511,-38.5 431,-38.5"/>
<text text-anchor="middle" x="471" y="-45.5" font-family="Helvetica,sans-Serif" font-size="10.00">ReadSwitches</text>
</a>
</g>
</g>
<!-- Node4&#45;&gt;Node5 -->
<g id="edge4" class="edge">
<title>Node4&#45;&gt;Node5</title>
<path fill="none" stroke="midnightblue" d="M550.67,-48C537.63,-48 523.73,-48 511.3,-48"/>
<polygon fill="midnightblue" stroke="midnightblue" points="550.9,-51.5 560.9,-48 550.9,-44.5 550.9,-51.5"/>
</g>
<!-- Node6 -->
<g id="node6" class="node">
<title>Node6</title>
<g id="a_node6"><a xlink:href="_transmitter_code_2src_2main_8cpp.html#acd508e422b616377d0f0cdb44e4cfae0" target="_top" xlink:title=" ">
<polygon fill="white" stroke="black" points="313,-38.5 313,-57.5 381,-57.5 381,-38.5 313,-38.5"/>
<text text-anchor="middle" x="347" y="-45.5" font-family="Helvetica,sans-Serif" font-size="10.00">GetRXTime</text>
</a>
</g>
</g>
<!-- Node5&#45;&gt;Node6 -->
<g id="edge5" class="edge">
<title>Node5&#45;&gt;Node6</title>
<path fill="none" stroke="midnightblue" d="M420.72,-48C407.39,-48 393.27,-48 381.06,-48"/>
<polygon fill="midnightblue" stroke="midnightblue" points="420.73,-51.5 430.73,-48 420.73,-44.5 420.73,-51.5"/>
</g>
<!-- Node9 -->
<g id="node9" class="node">
<title>Node9</title>
<g id="a_node9"><a xlink:href="_radio_functions_8cpp.html#aa48ea4c5d47aa93d17dbc7d7b19238d8" target="_top" xlink:title=" ">
<polygon fill="white" stroke="black" points="166,-0.5 166,-19.5 277,-19.5 277,-0.5 166,-0.5"/>
<text text-anchor="middle" x="221.5" y="-7.5" font-family="Helvetica,sans-Serif" font-size="10.00">HopToNextFrequency</text>
</a>
</g>
</g>
<!-- Node5&#45;&gt;Node9 -->
<g id="edge9" class="edge">
<title>Node5&#45;&gt;Node9</title>
<path fill="none" stroke="midnightblue" d="M420.65,-36.63C407.79,-33.9 393.91,-31.15 381,-29 346.69,-23.29 307.93,-18.62 277.32,-15.33"/>
<polygon fill="midnightblue" stroke="midnightblue" points="420.2,-40.11 430.72,-38.81 421.68,-33.27 420.2,-40.11"/>
</g>
<!-- Node7 -->
<g id="node7" class="node">
<title>Node7</title>
<g id="a_node7"><a xlink:href="_radio_functions_8h.html#a230e862a4da0f66746b6b3afba6bd77a" target="_top" xlink:title=" ">
<polygon fill="white" stroke="black" points="174.5,-38.5 174.5,-57.5 268.5,-57.5 268.5,-38.5 174.5,-38.5"/>
<text text-anchor="middle" x="221.5" y="-45.5" font-family="Helvetica,sans-Serif" font-size="10.00">ParseAckPayload</text>
</a>
</g>
</g>
<!-- Node6&#45;&gt;Node7 -->
<g id="edge6" class="edge">
<title>Node6&#45;&gt;Node7</title>
<path fill="none" stroke="midnightblue" d="M302.67,-48C291.68,-48 279.82,-48 268.69,-48"/>
<polygon fill="midnightblue" stroke="midnightblue" points="302.9,-51.5 312.9,-48 302.9,-44.5 302.9,-51.5"/>
</g>
<!-- Node8 -->
<g id="node8" class="node">
<title>Node8</title>
<g id="a_node8"><a xlink:href="_radio_functions_8cpp.html#a3d7322e78f097d02d476f17a6306997c" target="_top" xlink:title=" ">
<polygon fill="white" stroke="black" points="71,-38.5 71,-57.5 130,-57.5 130,-38.5 71,-38.5"/>
<text text-anchor="middle" x="100.5" y="-45.5" font-family="Helvetica,sans-Serif" font-size="10.00">SendData</text>
</a>
</g>
</g>
<!-- Node7&#45;&gt;Node8 -->
<g id="edge7" class="edge">
<title>Node7&#45;&gt;Node8</title>
<path fill="none" stroke="midnightblue" d="M164.22,-48C152.43,-48 140.47,-48 130.2,-48"/>
<polygon fill="midnightblue" stroke="midnightblue" points="164.49,-51.5 174.49,-48 164.49,-44.5 164.49,-51.5"/>
</g>
<!-- Node8&#45;&gt;Node3 -->
<g id="edge8" class="edge">
<title>Node8&#45;&gt;Node3</title>
<path fill="none" stroke="midnightblue" d="M60.78,-57.08C51.86,-59.18 42.82,-61.3 35.4,-63.04"/>
<polygon fill="midnightblue" stroke="midnightblue" points="61.78,-60.44 70.71,-54.75 60.18,-53.63 61.78,-60.44"/>
</g>
<!-- Node9&#45;&gt;Node8 -->
<g id="edge10" class="edge">
<title>Node9&#45;&gt;Node8</title>
<path fill="none" stroke="midnightblue" d="M180.56,-22.75C164.09,-28.01 145.38,-33.99 130.29,-38.81"/>
<polygon fill="midnightblue" stroke="midnightblue" points="182.01,-25.97 190.47,-19.59 179.88,-19.3 182.01,-25.97"/>
</g>
</g>
</svg>
