<?xml version="1.0" encoding="UTF-8" standalone="no"?>
<!DOCTYPE svg PUBLIC "-//W3C//DTD SVG 1.1//EN"
 "http://www.w3.org/Graphics/SVG/1.1/DTD/svg11.dtd">
<!-- Generated by graphviz version 3.0.0 (20220413.0242)
 -->
<!-- Title: SaveTransmitterParameters Pages: 1 -->
<svg width="625pt" height="198pt"
 viewBox="0.00 0.00 625.00 198.16" xmlns="http://www.w3.org/2000/svg" xmlns:xlink="http://www.w3.org/1999/xlink">
<g id="graph0" class="graph" transform="scale(1 1) rotate(0) translate(4 194.16)">
<title>SaveTransmitterParameters</title>
<polygon fill="white" stroke="transparent" points="-4,4 -4,-194.16 621,-194.16 621,4 -4,4"/>
<!-- Node1 -->
<g id="node1" class="node">
<title>Node1</title>
<g id="a_node1"><a xlink:title=" ">
<polygon fill="#bfbfbf" stroke="black" points="478,-114.5 478,-133.5 617,-133.5 617,-114.5 478,-114.5"/>
<text text-anchor="middle" x="547.5" y="-121.5" font-family="Helvetica,sans-Serif" font-size="10.00">SaveTransmitterParameters</text>
</a>
</g>
</g>
<!-- Node2 -->
<g id="node2" class="node">
<title>Node2</title>
<g id="a_node2"><a xlink:href="_transmitter_code_2src_2main_8cpp.html#a804fdbdd5eab4c596bbe8a23eecbe4d5" target="_top" xlink:title=" ">
<polygon fill="white" stroke="black" points="204,-114.5 204,-133.5 305,-133.5 305,-114.5 204,-114.5"/>
<text text-anchor="middle" x="254.5" y="-121.5" font-family="Helvetica,sans-Serif" font-size="10.00">ButtonWasPressed</text>
</a>
</g>
</g>
<!-- Node1&#45;&gt;Node2 -->
<g id="edge1" class="edge">
<title>Node1&#45;&gt;Node2</title>
<path fill="none" stroke="midnightblue" d="M525.46,-139.63C505.25,-153.59 473.26,-173.03 442,-181 398.5,-192.09 383.96,-194.01 341,-181 310.27,-171.69 280.48,-147.29 265.51,-133.63"/>
<polygon fill="midnightblue" stroke="midnightblue" points="527.74,-142.3 533.87,-133.66 523.69,-136.59 527.74,-142.3"/>
</g>
<!-- Node6 -->
<g id="node6" class="node">
<title>Node6</title>
<g id="a_node6"><a xlink:href="_transmitter_code_2src_2main_8cpp.html#a175b6111f05e020becf6f4fc8c3e474d" target="_top" xlink:title=" ">
<polygon fill="white" stroke="black" points="349,-152.5 349,-171.5 434,-171.5 434,-152.5 349,-152.5"/>
<text text-anchor="middle" x="391.5" y="-159.5" font-family="Helvetica,sans-Serif" font-size="10.00">DefineTrimsEnd</text>
</a>
</g>
</g>
<!-- Node1&#45;&gt;Node6 -->
<g id="edge7" class="edge">
<title>Node1&#45;&gt;Node6</title>
<path fill="none" stroke="midnightblue" d="M497.71,-136.04C476.19,-141.35 451.27,-147.5 431.08,-152.48"/>
<polygon fill="midnightblue" stroke="midnightblue" points="498.77,-139.38 507.64,-133.59 497.09,-132.59 498.77,-139.38"/>
</g>
<!-- Node7 -->
<g id="node7" class="node">
<title>Node7</title>
<g id="a_node7"><a xlink:href="_transmitter_code_2src_2main_8cpp.html#acb3300c8b0e64f0fb381f7b96158dfc1" target="_top" xlink:title=" ">
<polygon fill="white" stroke="black" points="365,-114.5 365,-133.5 418,-133.5 418,-114.5 365,-114.5"/>
<text text-anchor="middle" x="391.5" y="-121.5" font-family="Helvetica,sans-Serif" font-size="10.00">LogEND</text>
</a>
</g>
</g>
<!-- Node1&#45;&gt;Node7 -->
<g id="edge8" class="edge">
<title>Node1&#45;&gt;Node7</title>
<path fill="none" stroke="midnightblue" d="M467.16,-124C449.41,-124 431.82,-124 418.18,-124"/>
<polygon fill="midnightblue" stroke="midnightblue" points="467.61,-127.5 477.61,-124 467.61,-120.5 467.61,-127.5"/>
</g>
<!-- Node8 -->
<g id="node8" class="node">
<title>Node8</title>
<g id="a_node8"><a xlink:href="_transmitter_code_2src_2main_8cpp.html#a835d7dda94eeefe66d661ef4dc4df1a4" target="_top" xlink:title=" ">
<polygon fill="white" stroke="black" points="355.5,-76.5 355.5,-95.5 427.5,-95.5 427.5,-76.5 355.5,-76.5"/>
<text text-anchor="middle" x="391.5" y="-83.5" font-family="Helvetica,sans-Serif" font-size="10.00">Options2End</text>
</a>
</g>
</g>
<!-- Node1&#45;&gt;Node8 -->
<g id="edge9" class="edge">
<title>Node1&#45;&gt;Node8</title>
<path fill="none" stroke="midnightblue" d="M497.81,-111.99C475.04,-106.37 448.44,-99.8 427.66,-94.68"/>
<polygon fill="midnightblue" stroke="midnightblue" points="497.09,-115.41 507.64,-114.41 498.77,-108.62 497.09,-115.41"/>
</g>
<!-- Node9 -->
<g id="node9" class="node">
<title>Node9</title>
<g id="a_node9"><a xlink:href="_transmitter_code_2src_2main_8cpp.html#a92c5dada5e5ef70261391557464f2d19" target="_top" xlink:title=" ">
<polygon fill="white" stroke="black" points="341,-38.5 341,-57.5 442,-57.5 442,-38.5 341,-38.5"/>
<text text-anchor="middle" x="391.5" y="-45.5" font-family="Helvetica,sans-Serif" font-size="10.00">SaveAllParameters</text>
</a>
</g>
</g>
<!-- Node1&#45;&gt;Node9 -->
<g id="edge10" class="edge">
<title>Node1&#45;&gt;Node9</title>
<path fill="none" stroke="midnightblue" d="M521.71,-109.26C500.83,-97.14 469.98,-79.93 442,-67 434.73,-63.64 426.68,-60.37 419.23,-57.52"/>
<polygon fill="midnightblue" stroke="midnightblue" points="520.15,-112.4 530.55,-114.43 523.69,-106.36 520.15,-112.4"/>
</g>
<!-- Node3 -->
<g id="node3" class="node">
<title>Node3</title>
<g id="a_node3"><a xlink:href="_transmitter_code_2src_2main_8cpp.html#a984cb52354a84c45e9e41f396a1c5e92" target="_top" xlink:title=" ">
<polygon fill="white" stroke="black" points="71,-152.5 71,-171.5 168,-171.5 168,-152.5 71,-152.5"/>
<text text-anchor="middle" x="119.5" y="-159.5" font-family="Helvetica,sans-Serif" font-size="10.00">CheckModelName</text>
</a>
</g>
</g>
<!-- Node2&#45;&gt;Node3 -->
<g id="edge2" class="edge">
<title>Node2&#45;&gt;Node3</title>
<path fill="none" stroke="midnightblue" d="M210.13,-136.39C191.92,-141.59 171.06,-147.55 154.05,-152.41"/>
<polygon fill="midnightblue" stroke="midnightblue" points="211.28,-139.7 219.94,-133.59 209.36,-132.97 211.28,-139.7"/>
</g>
<!-- Node4 -->
<g id="node4" class="node">
<title>Node4</title>
<g id="a_node4"><a xlink:href="_transmitter_code_2src_2main_8cpp.html#ad3cb30894c94eb016e98bdcaa899ac86" target="_top" xlink:title=" ">
<polygon fill="white" stroke="black" points="0,-133.5 0,-152.5 35,-152.5 35,-133.5 0,-133.5"/>
<text text-anchor="middle" x="17.5" y="-140.5" font-family="Helvetica,sans-Serif" font-size="10.00">loop</text>
</a>
</g>
</g>
<!-- Node2&#45;&gt;Node4 -->
<g id="edge4" class="edge">
<title>Node2&#45;&gt;Node4</title>
<path fill="none" stroke="midnightblue" d="M193.69,-128.84C140.92,-133.1 67.51,-139.04 35.06,-141.66"/>
<polygon fill="midnightblue" stroke="midnightblue" points="194.26,-132.3 203.95,-128.01 193.7,-125.32 194.26,-132.3"/>
</g>
<!-- Node5 -->
<g id="node5" class="node">
<title>Node5</title>
<g id="a_node5"><a xlink:href="_transmitter_code_2src_2main_8cpp.html#ab7c9edf843c732d7fe296564f39bc0dc" target="_top" xlink:title="RECEIVE A MODEL FILE.">
<polygon fill="white" stroke="black" points="72.5,-76.5 72.5,-95.5 166.5,-95.5 166.5,-76.5 72.5,-76.5"/>
<text text-anchor="middle" x="119.5" y="-83.5" font-family="Helvetica,sans-Serif" font-size="10.00">ReceiveModelFile</text>
</a>
</g>
</g>
<!-- Node2&#45;&gt;Node5 -->
<g id="edge5" class="edge">
<title>Node2&#45;&gt;Node5</title>
<path fill="none" stroke="midnightblue" d="M226.97,-110.9C209.75,-104.76 186.85,-97.91 166.7,-92.74"/>
<polygon fill="midnightblue" stroke="midnightblue" points="225.79,-114.19 236.38,-114.41 228.24,-107.64 225.79,-114.19"/>
</g>
<!-- Node3&#45;&gt;Node4 -->
<g id="edge3" class="edge">
<title>Node3&#45;&gt;Node4</title>
<path fill="none" stroke="midnightblue" d="M60.9,-151.06C51.43,-149.26 42.34,-147.53 35.01,-146.14"/>
<polygon fill="midnightblue" stroke="midnightblue" points="60.37,-154.52 70.84,-152.95 61.67,-147.64 60.37,-154.52"/>
</g>
<!-- Node5&#45;&gt;Node2 -->
<g id="edge6" class="edge">
<title>Node5&#45;&gt;Node2</title>
<path fill="none" stroke="midnightblue" d="M146.99,-99.09C163.27,-104.89 184.65,-111.34 203.98,-116.4"/>
<polygon fill="midnightblue" stroke="midnightblue" points="148.17,-95.79 137.57,-95.58 145.72,-102.35 148.17,-95.79"/>
</g>
<!-- Node9&#45;&gt;Node2 -->
<g id="edge11" class="edge">
<title>Node9&#45;&gt;Node2</title>
<path fill="none" stroke="midnightblue" d="M351.03,-61.57C347.55,-63.23 344.16,-65.04 341,-67 322.54,-78.42 322.95,-87.8 305,-100 296.86,-105.53 287.26,-110.49 278.69,-114.45"/>
<polygon fill="midnightblue" stroke="midnightblue" points="352.56,-64.72 360.32,-57.51 349.76,-58.31 352.56,-64.72"/>
</g>
<!-- Node9&#45;&gt;Node5 -->
<g id="edge13" class="edge">
<title>Node9&#45;&gt;Node5</title>
<path fill="none" stroke="midnightblue" d="M342.07,-59.79C330.01,-62.44 317.08,-65.04 305,-67 258.12,-74.6 204.01,-79.75 166.57,-82.75"/>
<polygon fill="midnightblue" stroke="midnightblue" points="342.96,-63.17 351.95,-57.56 341.43,-56.34 342.96,-63.17"/>
</g>
<!-- Node10 -->
<g id="node10" class="node">
<title>Node10</title>
<g id="a_node10"><a xlink:href="_transmitter_code_2src_2main_8cpp.html#a16c65917a148c7f6c17babf11e977b69" target="_top" xlink:title=" ">
<polygon fill="white" stroke="black" points="213.5,-38.5 213.5,-57.5 295.5,-57.5 295.5,-38.5 213.5,-38.5"/>
<text text-anchor="middle" x="254.5" y="-45.5" font-family="Helvetica,sans-Serif" font-size="10.00">EndBuddyView</text>
</a>
</g>
</g>
<!-- Node9&#45;&gt;Node10 -->
<g id="edge12" class="edge">
<title>Node9&#45;&gt;Node10</title>
<path fill="none" stroke="midnightblue" d="M330.71,-48C318.87,-48 306.71,-48 295.72,-48"/>
<polygon fill="midnightblue" stroke="midnightblue" points="331,-51.5 341,-48 331,-44.5 331,-51.5"/>
</g>
<!-- Node11 -->
<g id="node11" class="node">
<title>Node11</title>
<g id="a_node11"><a xlink:href="_transmitter_code_2src_2main_8cpp.html#a35f886d783cd5aa95171f1ecba39ef0b" target="_top" xlink:title=" ">
<polygon fill="white" stroke="black" points="215.5,-0.5 215.5,-19.5 293.5,-19.5 293.5,-0.5 215.5,-0.5"/>
<text text-anchor="middle" x="254.5" y="-7.5" font-family="Helvetica,sans-Serif" font-size="10.00">SetupViewFM</text>
</a>
</g>
</g>
<!-- Node9&#45;&gt;Node11 -->
<g id="edge14" class="edge">
<title>Node9&#45;&gt;Node11</title>
<path fill="none" stroke="midnightblue" d="M346.74,-35.68C328.19,-30.46 306.9,-24.47 289.56,-19.59"/>
<polygon fill="midnightblue" stroke="midnightblue" points="345.86,-39.07 356.43,-38.41 347.76,-32.33 345.86,-39.07"/>
</g>
</g>
</svg>
