<?xml version="1.0" encoding="UTF-8" standalone="no"?>
<!DOCTYPE svg PUBLIC "-//W3C//DTD SVG 1.1//EN"
 "http://www.w3.org/Graphics/SVG/1.1/DTD/svg11.dtd">
<!-- Generated by graphviz version 3.0.0 (20220413.0242)
 -->
<!-- Title: SoundBank Pages: 1 -->
<svg width="446pt" height="66pt"
 viewBox="0.00 0.00 446.00 66.00" xmlns="http://www.w3.org/2000/svg" xmlns:xlink="http://www.w3.org/1999/xlink">
<g id="graph0" class="graph" transform="scale(1 1) rotate(0) translate(4 62)">
<title>SoundBank</title>
<polygon fill="white" stroke="transparent" points="-4,4 -4,-62 442,-62 442,4 -4,4"/>
<!-- Node1 -->
<g id="node1" class="node">
<title>Node1</title>
<g id="a_node1"><a xlink:title=" ">
<polygon fill="#bfbfbf" stroke="black" points="0,-19.5 0,-38.5 67,-38.5 67,-19.5 0,-19.5"/>
<text text-anchor="middle" x="33.5" y="-26.5" font-family="Helvetica,sans-Serif" font-size="10.00">SoundBank</text>
</a>
</g>
</g>
<!-- Node2 -->
<g id="node2" class="node">
<title>Node2</title>
<g id="a_node2"><a xlink:href="_transmitter_code_2src_2main_8cpp.html#aa490b4664b0a4498d53b30b82287d5df" target="_top" xlink:title=" ">
<polygon fill="white" stroke="black" points="120,-38.5 120,-57.5 183,-57.5 183,-38.5 120,-38.5"/>
<text text-anchor="middle" x="151.5" y="-45.5" font-family="Helvetica,sans-Serif" font-size="10.00">PlaySound</text>
</a>
</g>
</g>
<!-- Node1&#45;&gt;Node2 -->
<g id="edge1" class="edge">
<title>Node1&#45;&gt;Node2</title>
<path fill="none" stroke="midnightblue" d="M67.12,-34.34C80.39,-36.52 95.86,-39.05 109.85,-41.34"/>
<polygon fill="midnightblue" stroke="midnightblue" points="109.28,-44.8 119.72,-42.96 110.41,-37.89 109.28,-44.8"/>
</g>
<!-- Node6 -->
<g id="node6" class="node">
<title>Node6</title>
<g id="a_node6"><a xlink:href="_transmitter_code_2src_2main_8cpp.html#a49da3478d89a22069e29c7f00cb46a5f" target="_top" xlink:title=" ">
<polygon fill="white" stroke="black" points="103,-0.5 103,-19.5 200,-19.5 200,-0.5 103,-0.5"/>
<text text-anchor="middle" x="151.5" y="-7.5" font-family="Helvetica,sans-Serif" font-size="10.00">RestoreBrightness</text>
</a>
</g>
</g>
<!-- Node1&#45;&gt;Node6 -->
<g id="edge5" class="edge">
<title>Node1&#45;&gt;Node6</title>
<path fill="none" stroke="midnightblue" d="M67.12,-23.66C75.2,-22.33 84.1,-20.88 92.99,-19.42"/>
<polygon fill="midnightblue" stroke="midnightblue" points="93.67,-22.86 102.97,-17.78 92.54,-15.95 93.67,-22.86"/>
</g>
<!-- Node3 -->
<g id="node3" class="node">
<title>Node3</title>
<g id="a_node3"><a xlink:href="_transmitter_code_2src_2main_8cpp.html#aecac2f0c289f02ef3c92b85be82eacac" target="_top" xlink:title=" ">
<polygon fill="white" stroke="black" points="236,-38.5 236,-57.5 319,-57.5 319,-38.5 236,-38.5"/>
<text text-anchor="middle" x="277.5" y="-45.5" font-family="Helvetica,sans-Serif" font-size="10.00">SendCommand</text>
</a>
</g>
</g>
<!-- Node2&#45;&gt;Node3 -->
<g id="edge2" class="edge">
<title>Node2&#45;&gt;Node3</title>
<path fill="none" stroke="midnightblue" d="M183.15,-48C195.96,-48 211.2,-48 225.61,-48"/>
<polygon fill="midnightblue" stroke="midnightblue" points="225.91,-51.5 235.91,-48 225.91,-44.5 225.91,-51.5"/>
</g>
<!-- Node5 -->
<g id="node5" class="node">
<title>Node5</title>
<g id="a_node5"><a xlink:href="_transmitter_code_2src_2main_8cpp.html#a590a9174319918d7e3d7baca323fcf26" target="_top" xlink:title=" ">
<polygon fill="white" stroke="black" points="263,-0.5 263,-19.5 292,-19.5 292,-0.5 263,-0.5"/>
<text text-anchor="middle" x="277.5" y="-7.5" font-family="Helvetica,sans-Serif" font-size="10.00">Str</text>
</a>
</g>
</g>
<!-- Node2&#45;&gt;Node5 -->
<g id="edge4" class="edge">
<title>Node2&#45;&gt;Node5</title>
<path fill="none" stroke="midnightblue" d="M183.15,-38.61C204.79,-31.97 233.35,-23.22 253.16,-17.15"/>
<polygon fill="midnightblue" stroke="midnightblue" points="254.36,-20.45 262.89,-14.17 252.31,-13.75 254.36,-20.45"/>
</g>
<!-- Node4 -->
<g id="node4" class="node">
<title>Node4</title>
<g id="a_node4"><a xlink:href="_transmitter_code_2src_2main_8cpp.html#a43937dd3d9c795271fd9c3eb3c6b6410" target="_top" xlink:title=" ">
<polygon fill="white" stroke="black" points="355,-38.5 355,-57.5 438,-57.5 438,-38.5 355,-38.5"/>
<text text-anchor="middle" x="396.5" y="-45.5" font-family="Helvetica,sans-Serif" font-size="10.00">GetReturnCode</text>
</a>
</g>
</g>
<!-- Node3&#45;&gt;Node4 -->
<g id="edge3" class="edge">
<title>Node3&#45;&gt;Node4</title>
<path fill="none" stroke="midnightblue" d="M319.09,-48C327.35,-48 336.14,-48 344.7,-48"/>
<polygon fill="midnightblue" stroke="midnightblue" points="344.98,-51.5 354.98,-48 344.98,-44.5 344.98,-51.5"/>
</g>
<!-- Node6&#45;&gt;Node3 -->
<g id="edge6" class="edge">
<title>Node6&#45;&gt;Node3</title>
<path fill="none" stroke="midnightblue" d="M183.79,-19.59C199.5,-24.4 218.74,-30.3 235.61,-35.47"/>
<polygon fill="midnightblue" stroke="midnightblue" points="234.63,-38.83 245.22,-38.41 236.68,-32.14 234.63,-38.83"/>
</g>
<!-- Node6&#45;&gt;Node5 -->
<g id="edge7" class="edge">
<title>Node6&#45;&gt;Node5</title>
<path fill="none" stroke="midnightblue" d="M200.09,-10C218.05,-10 237.72,-10 252.6,-10"/>
<polygon fill="midnightblue" stroke="midnightblue" points="252.94,-13.5 262.94,-10 252.94,-6.5 252.94,-13.5"/>
</g>
</g>
</svg>
