<?xml version="1.0" encoding="UTF-8" standalone="no"?>
<!DOCTYPE svg PUBLIC "-//W3C//DTD SVG 1.1//EN"
 "http://www.w3.org/Graphics/SVG/1.1/DTD/svg11.dtd">
<!-- Generated by graphviz version 2.44.0 ()
 -->
<!-- Title: SDReadByte Pages: 1 -->
<svg width="550pt" height="104pt"
 viewBox="0.00 0.00 550.00 104.00" xmlns="http://www.w3.org/2000/svg" xmlns:xlink="http://www.w3.org/1999/xlink">
<g id="graph0" class="graph" transform="scale(1 1) rotate(0) translate(4 100)">
<title>SDReadByte</title>
<polygon fill="white" stroke="transparent" points="-4,4 -4,-100 546,-100 546,4 -4,4"/>
<!-- Node1 -->
<g id="node1" class="node">
<title>Node1</title>
<g id="a_node1"><a xlink:title=" ">
<polygon fill="#bfbfbf" stroke="black" points="470,-57.5 470,-76.5 542,-76.5 542,-57.5 470,-57.5"/>
<text text-anchor="middle" x="506" y="-64.5" font-family="Helvetica,sans-Serif" font-size="10.00">SDReadByte</text>
</a>
</g>
</g>
<!-- Node2 -->
<g id="node2" class="node">
<title>Node2</title>
<g id="a_node2"><a xlink:href="_transmitter_code_2src_2main_8cpp.html#a909acb7ed667a5cc9c4ec6191fc33e75" target="_top" xlink:title=" ">
<polygon fill="white" stroke="black" points="215,-76.5 215,-95.5 315,-95.5 315,-76.5 215,-76.5"/>
<text text-anchor="middle" x="265" y="-83.5" font-family="Helvetica,sans-Serif" font-size="10.00">LoadAllParameters</text>
</a>
</g>
</g>
<!-- Node1&#45;&gt;Node2 -->
<g id="edge1" class="edge">
<title>Node1&#45;&gt;Node2</title>
<path fill="none" stroke="midnightblue" d="M459.95,-70.58C418.69,-73.86 357.74,-78.71 315.22,-82.09"/>
<polygon fill="midnightblue" stroke="midnightblue" points="460.3,-74.06 469.99,-69.78 459.75,-67.09 460.3,-74.06"/>
</g>
<!-- Node4 -->
<g id="node4" class="node">
<title>Node4</title>
<g id="a_node4"><a xlink:href="_transmitter_code_2src_2main_8cpp.html#a3d9d955a8c7cfea4cc99e78f3746bd26" target="_top" xlink:title=" ">
<polygon fill="white" stroke="black" points="351,-38.5 351,-57.5 434,-57.5 434,-38.5 351,-38.5"/>
<text text-anchor="middle" x="392.5" y="-45.5" font-family="Helvetica,sans-Serif" font-size="10.00">ReadOneModel</text>
</a>
</g>
</g>
<!-- Node1&#45;&gt;Node4 -->
<g id="edge3" class="edge">
<title>Node1&#45;&gt;Node4</title>
<path fill="none" stroke="midnightblue" d="M459.71,-59.28C451.33,-57.86 442.63,-56.37 434.39,-54.97"/>
<polygon fill="midnightblue" stroke="midnightblue" points="459.27,-62.76 469.72,-60.99 460.45,-55.86 459.27,-62.76"/>
</g>
<!-- Node3 -->
<g id="node3" class="node">
<title>Node3</title>
<g id="a_node3"><a xlink:href="_transmitter_code_2src_2main_8cpp.html#a4fc01d736fe50cf5b977f755b675f11d" target="_top" xlink:title=" ">
<polygon fill="white" stroke="black" points="104.5,-76.5 104.5,-95.5 145.5,-95.5 145.5,-76.5 104.5,-76.5"/>
<text text-anchor="middle" x="125" y="-83.5" font-family="Helvetica,sans-Serif" font-size="10.00">setup</text>
</a>
</g>
</g>
<!-- Node2&#45;&gt;Node3 -->
<g id="edge2" class="edge">
<title>Node2&#45;&gt;Node3</title>
<path fill="none" stroke="midnightblue" d="M204.72,-86C183.59,-86 161.22,-86 145.75,-86"/>
<polygon fill="midnightblue" stroke="midnightblue" points="204.96,-89.5 214.96,-86 204.96,-82.5 204.96,-89.5"/>
</g>
<!-- Node4&#45;&gt;Node2 -->
<g id="edge6" class="edge">
<title>Node4&#45;&gt;Node2</title>
<path fill="none" stroke="midnightblue" d="M350.1,-60.54C333.03,-65.7 313.56,-71.6 297.66,-76.41"/>
<polygon fill="midnightblue" stroke="midnightblue" points="351.27,-63.84 359.83,-57.59 349.25,-57.14 351.27,-63.84"/>
</g>
<!-- Node5 -->
<g id="node5" class="node">
<title>Node5</title>
<g id="a_node5"><a xlink:href="_transmitter_code_2src_2main_8cpp.html#aed6c682ed45951f95e0b02cf6b570da2" target="_top" xlink:title=" ">
<polygon fill="white" stroke="black" points="71,-19.5 71,-38.5 179,-38.5 179,-19.5 71,-19.5"/>
<text text-anchor="middle" x="125" y="-26.5" font-family="Helvetica,sans-Serif" font-size="10.00">Button_was_pressed</text>
</a>
</g>
</g>
<!-- Node4&#45;&gt;Node5 -->
<g id="edge4" class="edge">
<title>Node4&#45;&gt;Node5</title>
<path fill="none" stroke="midnightblue" d="M340.79,-44.37C294.57,-41.06 226.52,-36.19 179.46,-32.83"/>
<polygon fill="midnightblue" stroke="midnightblue" points="340.66,-47.87 350.89,-45.09 341.16,-40.89 340.66,-47.87"/>
</g>
<!-- Node7 -->
<g id="node7" class="node">
<title>Node7</title>
<g id="a_node7"><a xlink:href="_transmitter_code_2src_2main_8cpp.html#ab7c9edf843c732d7fe296564f39bc0dc" target="_top" xlink:title="RECEIVE A MODEL FILE.">
<polygon fill="white" stroke="black" points="218,-0.5 218,-19.5 312,-19.5 312,-0.5 218,-0.5"/>
<text text-anchor="middle" x="265" y="-7.5" font-family="Helvetica,sans-Serif" font-size="10.00">ReceiveModelFile</text>
</a>
</g>
</g>
<!-- Node4&#45;&gt;Node7 -->
<g id="edge7" class="edge">
<title>Node4&#45;&gt;Node7</title>
<path fill="none" stroke="midnightblue" d="M350.1,-35.46C333.03,-30.3 313.56,-24.4 297.66,-19.59"/>
<polygon fill="midnightblue" stroke="midnightblue" points="349.25,-38.86 359.83,-38.41 351.27,-32.16 349.25,-38.86"/>
</g>
<!-- Node6 -->
<g id="node6" class="node">
<title>Node6</title>
<g id="a_node6"><a xlink:href="_transmitter_code_2src_2main_8cpp.html#afe461d27b9c48d5921c00d521181f12f" target="_top" xlink:title=" ">
<polygon fill="white" stroke="black" points="0,-19.5 0,-38.5 35,-38.5 35,-19.5 0,-19.5"/>
<text text-anchor="middle" x="17.5" y="-26.5" font-family="Helvetica,sans-Serif" font-size="10.00">loop</text>
</a>
</g>
</g>
<!-- Node5&#45;&gt;Node6 -->
<g id="edge5" class="edge">
<title>Node5&#45;&gt;Node6</title>
<path fill="none" stroke="midnightblue" d="M60.7,-29C51.38,-29 42.51,-29 35.33,-29"/>
<polygon fill="midnightblue" stroke="midnightblue" points="60.94,-32.5 70.94,-29 60.94,-25.5 60.94,-32.5"/>
</g>
<!-- Node7&#45;&gt;Node5 -->
<g id="edge8" class="edge">
<title>Node7&#45;&gt;Node5</title>
<path fill="none" stroke="midnightblue" d="M207.61,-17.76C198.19,-19.06 188.45,-20.4 179.12,-21.69"/>
<polygon fill="midnightblue" stroke="midnightblue" points="208.23,-21.21 217.66,-16.38 207.28,-14.28 208.23,-21.21"/>
</g>
</g>
</svg>
