<?xml version="1.0" encoding="UTF-8" standalone="no"?>
<!DOCTYPE svg PUBLIC "-//W3C//DTD SVG 1.1//EN"
 "http://www.w3.org/Graphics/SVG/1.1/DTD/svg11.dtd">
<!-- Generated by graphviz version 2.49.3 (20211027.1534)
 -->
<!-- Title: ReadSwitches Pages: 1 -->
<svg width="1086pt" height="877pt"
 viewBox="0.00 0.00 1086.00 877.09" xmlns="http://www.w3.org/2000/svg" xmlns:xlink="http://www.w3.org/1999/xlink">
<g id="graph0" class="graph" transform="scale(1 1) rotate(0) translate(4 873.09)">
<title>ReadSwitches</title>
<polygon fill="white" stroke="transparent" points="-4,4 -4,-873.09 1082,-873.09 1082,4 -4,4"/>
<!-- Node1 -->
<g id="node1" class="node">
<title>Node1</title>
<g id="a_node1"><a xlink:title=" ">
<polygon fill="#bfbfbf" stroke="black" points="0,-399.5 0,-418.5 80,-418.5 80,-399.5 0,-399.5"/>
<text text-anchor="middle" x="40" y="-406.5" font-family="Helvetica,sans-Serif" font-size="10.00">ReadSwitches</text>
</a>
</g>
</g>
<!-- Node2 -->
<g id="node2" class="node">
<title>Node2</title>
<g id="a_node2"><a xlink:href="_transmitter_code_2src_2main_8cpp.html#add643409678258cabdb0aa1ae76d802a" target="_top" xlink:title=" ">
<polygon fill="white" stroke="black" points="116,-551.5 116,-570.5 227,-570.5 227,-551.5 116,-551.5"/>
<text text-anchor="middle" x="171.5" y="-558.5" font-family="Helvetica,sans-Serif" font-size="10.00">CheckHardwareTrims</text>
</a>
</g>
</g>
<!-- Node1&#45;&gt;Node2 -->
<g id="edge1" class="edge">
<title>Node1&#45;&gt;Node2</title>
<path fill="none" stroke="midnightblue" d="M49.1,-418.51C70.45,-443.57 128.48,-511.68 155.85,-543.8"/>
<polygon fill="midnightblue" stroke="midnightblue" points="153.25,-546.15 162.4,-551.5 158.58,-541.61 153.25,-546.15"/>
</g>
<!-- Node12 -->
<g id="node12" class="node">
<title>Node12</title>
<g id="a_node12"><a xlink:href="_transmitter_code_2src_2main_8cpp.html#adf35f0ced7990f813a783d0ecd33bf64" target="_top" xlink:title=" ">
<polygon fill="white" stroke="black" points="131.5,-380.5 131.5,-399.5 211.5,-399.5 211.5,-380.5 131.5,-380.5"/>
<text text-anchor="middle" x="171.5" y="-387.5" font-family="Helvetica,sans-Serif" font-size="10.00">GetFlightMode</text>
</a>
</g>
</g>
<!-- Node1&#45;&gt;Node12 -->
<g id="edge17" class="edge">
<title>Node1&#45;&gt;Node12</title>
<path fill="none" stroke="midnightblue" d="M80.21,-403.25C93.14,-401.35 107.69,-399.22 121.27,-397.22"/>
<polygon fill="midnightblue" stroke="midnightblue" points="122.04,-400.65 131.43,-395.73 121.03,-393.72 122.04,-400.65"/>
</g>
<!-- Node3 -->
<g id="node3" class="node">
<title>Node3</title>
<g id="a_node3"><a xlink:href="_transmitter_code_2src_2main_8cpp.html#a17123a117a96a9416dec48d9345f8a5b" target="_top" xlink:title=" ">
<polygon fill="white" stroke="black" points="275,-665.5 275,-684.5 340,-684.5 340,-665.5 275,-665.5"/>
<text text-anchor="middle" x="307.5" y="-672.5" font-family="Helvetica,sans-Serif" font-size="10.00">MoveaTrim</text>
</a>
</g>
</g>
<!-- Node2&#45;&gt;Node3 -->
<g id="edge2" class="edge">
<title>Node2&#45;&gt;Node3</title>
<path fill="none" stroke="midnightblue" d="M183.92,-570.72C206.97,-590.32 259.21,-634.77 287.48,-658.82"/>
<polygon fill="midnightblue" stroke="midnightblue" points="285.22,-661.49 295.1,-665.31 289.76,-656.16 285.22,-661.49"/>
</g>
<!-- Node4 -->
<g id="node4" class="node">
<title>Node4</title>
<g id="a_node4"><a xlink:href="_transmitter_code_2src_2main_8cpp.html#ae4be4bb0e33569d140264079d28227fd" target="_top" xlink:title=" ">
<polygon fill="white" stroke="black" points="440.5,-684.5 440.5,-703.5 493.5,-703.5 493.5,-684.5 440.5,-684.5"/>
<text text-anchor="middle" x="467" y="-691.5" font-family="Helvetica,sans-Serif" font-size="10.00">DecTrim</text>
</a>
</g>
</g>
<!-- Node3&#45;&gt;Node4 -->
<g id="edge3" class="edge">
<title>Node3&#45;&gt;Node4</title>
<path fill="none" stroke="midnightblue" d="M340.37,-678.84C366.4,-681.98 403.17,-686.42 430.21,-689.68"/>
<polygon fill="midnightblue" stroke="midnightblue" points="430.06,-693.19 440.41,-690.91 430.9,-686.24 430.06,-693.19"/>
</g>
<!-- Node10 -->
<g id="node10" class="node">
<title>Node10</title>
<g id="a_node10"><a xlink:href="_transmitter_code_2src_2main_8cpp.html#a6e96b79e1edc864e742216a05c7c3622" target="_top" xlink:title=" ">
<polygon fill="white" stroke="black" points="442,-722.5 442,-741.5 492,-741.5 492,-722.5 442,-722.5"/>
<text text-anchor="middle" x="467" y="-729.5" font-family="Helvetica,sans-Serif" font-size="10.00">IncTrim</text>
</a>
</g>
</g>
<!-- Node3&#45;&gt;Node10 -->
<g id="edge11" class="edge">
<title>Node3&#45;&gt;Node10</title>
<path fill="none" stroke="midnightblue" d="M325.74,-684.52C341.55,-692.95 365.81,-705.09 388,-713 402.02,-718 417.91,-722.13 431.68,-725.25"/>
<polygon fill="midnightblue" stroke="midnightblue" points="431.21,-728.73 441.73,-727.44 432.7,-721.89 431.21,-728.73"/>
</g>
<!-- Node11 -->
<g id="node11" class="node">
<title>Node11</title>
<g id="a_node11"><a xlink:href="_transmitter_code_2src_2main_8cpp.html#a49da3478d89a22069e29c7f00cb46a5f" target="_top" xlink:title=" ">
<polygon fill="white" stroke="black" points="743,-646.5 743,-665.5 840,-665.5 840,-646.5 743,-646.5"/>
<text text-anchor="middle" x="791.5" y="-653.5" font-family="Helvetica,sans-Serif" font-size="10.00">RestoreBrightness</text>
</a>
</g>
</g>
<!-- Node3&#45;&gt;Node11 -->
<g id="edge14" class="edge">
<title>Node3&#45;&gt;Node11</title>
<path fill="none" stroke="midnightblue" d="M340.13,-673.75C419.9,-670.61 630.26,-662.32 732.74,-658.28"/>
<polygon fill="midnightblue" stroke="midnightblue" points="733.06,-661.77 742.91,-657.88 732.78,-654.77 733.06,-661.77"/>
</g>
<!-- Node5 -->
<g id="node5" class="node">
<title>Node5</title>
<g id="a_node5"><a xlink:href="_transmitter_code_2src_2main_8cpp.html#aecac2f0c289f02ef3c92b85be82eacac" target="_top" xlink:title=" ">
<polygon fill="white" stroke="black" points="876,-513.5 876,-532.5 959,-532.5 959,-513.5 876,-513.5"/>
<text text-anchor="middle" x="917.5" y="-520.5" font-family="Helvetica,sans-Serif" font-size="10.00">SendCommand</text>
</a>
</g>
</g>
<!-- Node4&#45;&gt;Node5 -->
<g id="edge4" class="edge">
<title>Node4&#45;&gt;Node5</title>
<path fill="none" stroke="midnightblue" d="M493.61,-696.5C509.54,-698.93 529.97,-703.7 546,-713 566.12,-724.67 560.63,-741.81 582,-751 688.66,-796.88 754.32,-788.35 840,-710 889.97,-664.31 908.08,-581.2 913.96,-543.08"/>
<polygon fill="midnightblue" stroke="midnightblue" points="917.48,-543.18 915.42,-532.79 910.55,-542.2 917.48,-543.18"/>
</g>
<!-- Node7 -->
<g id="node7" class="node">
<title>Node7</title>
<g id="a_node7"><a xlink:href="_transmitter_code_2src_2main_8cpp.html#a3cd4694d58bd7a9f56e973d20270722f" target="_top" xlink:title=" ">
<polygon fill="white" stroke="black" points="591,-684.5 591,-703.5 698,-703.5 698,-684.5 591,-684.5"/>
<text text-anchor="middle" x="644.5" y="-691.5" font-family="Helvetica,sans-Serif" font-size="10.00">UpdateTrimViewPart</text>
</a>
</g>
</g>
<!-- Node4&#45;&gt;Node7 -->
<g id="edge6" class="edge">
<title>Node4&#45;&gt;Node7</title>
<path fill="none" stroke="midnightblue" d="M493.52,-694C516.32,-694 550.68,-694 580.76,-694"/>
<polygon fill="midnightblue" stroke="midnightblue" points="580.78,-697.5 590.78,-694 580.78,-690.5 580.78,-697.5"/>
</g>
<!-- Node6 -->
<g id="node6" class="node">
<title>Node6</title>
<g id="a_node6"><a xlink:href="_transmitter_code_2src_2main_8cpp.html#a43937dd3d9c795271fd9c3eb3c6b6410" target="_top" xlink:title=" ">
<polygon fill="white" stroke="black" points="995,-304.5 995,-323.5 1078,-323.5 1078,-304.5 995,-304.5"/>
<text text-anchor="middle" x="1036.5" y="-311.5" font-family="Helvetica,sans-Serif" font-size="10.00">GetReturnCode</text>
</a>
</g>
</g>
<!-- Node5&#45;&gt;Node6 -->
<g id="edge5" class="edge">
<title>Node5&#45;&gt;Node6</title>
<path fill="none" stroke="midnightblue" d="M923.83,-513.48C941.91,-481.18 1001.12,-375.41 1025.19,-332.42"/>
<polygon fill="midnightblue" stroke="midnightblue" points="1028.31,-334.01 1030.14,-323.58 1022.2,-330.6 1028.31,-334.01"/>
</g>
<!-- Node8 -->
<g id="node8" class="node">
<title>Node8</title>
<g id="a_node8"><a xlink:href="_transmitter_code_2src_2main_8cpp.html#a1e20efc1e419b252b50d36f9924503fc" target="_top" xlink:title=" ">
<polygon fill="white" stroke="black" points="759.5,-304.5 759.5,-323.5 823.5,-323.5 823.5,-304.5 759.5,-304.5"/>
<text text-anchor="middle" x="791.5" y="-311.5" font-family="Helvetica,sans-Serif" font-size="10.00">SendValue</text>
</a>
</g>
</g>
<!-- Node7&#45;&gt;Node8 -->
<g id="edge7" class="edge">
<title>Node7&#45;&gt;Node8</title>
<path fill="none" stroke="midnightblue" d="M653.93,-684.26C667.6,-667.89 694.31,-633.27 707,-599 748.41,-487.12 669.63,-427.07 743,-333 745.08,-330.34 747.58,-328.05 750.34,-326.08"/>
<polygon fill="midnightblue" stroke="midnightblue" points="752.23,-329.03 759.23,-321.08 748.8,-322.93 752.23,-329.03"/>
</g>
<!-- Node8&#45;&gt;Node5 -->
<g id="edge9" class="edge">
<title>Node8&#45;&gt;Node5</title>
<path fill="none" stroke="midnightblue" d="M823.9,-322.26C829.8,-324.94 835.52,-328.44 840,-333 871.63,-365.22 859.14,-386.11 876,-428 886.67,-454.52 899.77,-484.87 908.12,-503.98"/>
<polygon fill="midnightblue" stroke="midnightblue" points="905.01,-505.59 912.23,-513.34 911.42,-502.78 905.01,-505.59"/>
</g>
<!-- Node8&#45;&gt;Node6 -->
<g id="edge8" class="edge">
<title>Node8&#45;&gt;Node6</title>
<path fill="none" stroke="midnightblue" d="M823.77,-314C864.37,-314 935.78,-314 984.33,-314"/>
<polygon fill="midnightblue" stroke="midnightblue" points="984.63,-317.5 994.63,-314 984.63,-310.5 984.63,-317.5"/>
</g>
<!-- Node9 -->
<g id="node9" class="node">
<title>Node9</title>
<g id="a_node9"><a xlink:href="_transmitter_code_2src_2main_8cpp.html#a6bac145d5df31efb9c90e2a60a4cbca5" target="_top" xlink:title=" ">
<polygon fill="white" stroke="black" points="903,-399.5 903,-418.5 932,-418.5 932,-399.5 903,-399.5"/>
<text text-anchor="middle" x="917.5" y="-406.5" font-family="Helvetica,sans-Serif" font-size="10.00">Str</text>
</a>
</g>
</g>
<!-- Node8&#45;&gt;Node9 -->
<g id="edge10" class="edge">
<title>Node8&#45;&gt;Node9</title>
<path fill="none" stroke="midnightblue" d="M822.06,-323.68C828.22,-326.28 834.51,-329.39 840,-333 864.78,-349.28 888.18,-374.51 902.42,-391.38"/>
<polygon fill="midnightblue" stroke="midnightblue" points="899.93,-393.86 909,-399.35 905.33,-389.41 899.93,-393.86"/>
</g>
<!-- Node10&#45;&gt;Node5 -->
<g id="edge12" class="edge">
<title>Node10&#45;&gt;Node5</title>
<path fill="none" stroke="midnightblue" d="M485.51,-741.55C507.34,-752.86 546.17,-771.04 582,-778 695.05,-799.95 753.02,-829.48 840,-754 903.99,-698.47 914.67,-588.18 916.29,-543.01"/>
<polygon fill="midnightblue" stroke="midnightblue" points="919.8,-542.85 916.54,-532.77 912.8,-542.68 919.8,-542.85"/>
</g>
<!-- Node10&#45;&gt;Node7 -->
<g id="edge13" class="edge">
<title>Node10&#45;&gt;Node7</title>
<path fill="none" stroke="midnightblue" d="M492.03,-726.8C517.05,-721.38 557.04,-712.72 589.66,-705.66"/>
<polygon fill="midnightblue" stroke="midnightblue" points="590.48,-709.06 599.52,-703.52 589,-702.22 590.48,-709.06"/>
</g>
<!-- Node11&#45;&gt;Node5 -->
<g id="edge15" class="edge">
<title>Node11&#45;&gt;Node5</title>
<path fill="none" stroke="midnightblue" d="M817.11,-646.4C824.94,-642.63 833.29,-637.8 840,-632 870.29,-605.79 894.62,-565.13 907.18,-541.59"/>
<polygon fill="midnightblue" stroke="midnightblue" points="910.33,-543.13 911.83,-532.64 904.12,-539.9 910.33,-543.13"/>
</g>
<!-- Node11&#45;&gt;Node9 -->
<g id="edge16" class="edge">
<title>Node11&#45;&gt;Node9</title>
<path fill="none" stroke="midnightblue" d="M797.36,-646.32C815.88,-609.43 882.22,-477.29 907.04,-427.85"/>
<polygon fill="midnightblue" stroke="midnightblue" points="910.31,-429.12 911.67,-418.62 904.06,-425.98 910.31,-429.12"/>
</g>
<!-- Node13 -->
<g id="node13" class="node">
<title>Node13</title>
<g id="a_node13"><a xlink:href="_transmitter_code_2src_2main_8cpp.html#afcd616e96ae28694a7fa2197ad74c6fe" target="_top" xlink:title=" ">
<polygon fill="white" stroke="black" points="270.5,-190.5 270.5,-209.5 344.5,-209.5 344.5,-190.5 270.5,-190.5"/>
<text text-anchor="middle" x="307.5" y="-197.5" font-family="Helvetica,sans-Serif" font-size="10.00">CheckSwitch</text>
</a>
</g>
</g>
<!-- Node12&#45;&gt;Node13 -->
<g id="edge18" class="edge">
<title>Node12&#45;&gt;Node13</title>
<path fill="none" stroke="midnightblue" d="M175.64,-380.19C184.91,-352.5 214.61,-272.63 263,-224 266.47,-220.51 270.55,-217.39 274.8,-214.64"/>
<polygon fill="midnightblue" stroke="midnightblue" points="276.72,-217.57 283.61,-209.53 273.2,-211.52 276.72,-217.57"/>
</g>
<!-- Node15 -->
<g id="node15" class="node">
<title>Node15</title>
<g id="a_node15"><a xlink:href="_transmitter_code_2src_2main_8cpp.html#addfc131a271de92cb52d869fde35729e" target="_top" xlink:title=" ">
<polygon fill="white" stroke="black" points="610,-570.5 610,-589.5 679,-589.5 679,-570.5 610,-570.5"/>
<text text-anchor="middle" x="644.5" y="-577.5" font-family="Helvetica,sans-Serif" font-size="10.00">CheckTimer</text>
</a>
</g>
</g>
<!-- Node12&#45;&gt;Node15 -->
<g id="edge20" class="edge">
<title>Node12&#45;&gt;Node15</title>
<path fill="none" stroke="midnightblue" d="M196.18,-399.55C273.77,-430.85 520.47,-530.37 610.34,-566.63"/>
<polygon fill="midnightblue" stroke="midnightblue" points="609.19,-569.93 619.77,-570.43 611.81,-563.44 609.19,-569.93"/>
</g>
<!-- Node16 -->
<g id="node16" class="node">
<title>Node16</title>
<g id="a_node16"><a xlink:href="_transmitter_code_2src_2main_8cpp.html#af941d3a33327b2cee79e058ba9cd65f6" target="_top" xlink:title=" ">
<polygon fill="white" stroke="black" points="430,-380.5 430,-399.5 504,-399.5 504,-380.5 430,-380.5"/>
<text text-anchor="middle" x="467" y="-387.5" font-family="Helvetica,sans-Serif" font-size="10.00">DisplayCurve</text>
</a>
</g>
</g>
<!-- Node12&#45;&gt;Node16 -->
<g id="edge23" class="edge">
<title>Node12&#45;&gt;Node16</title>
<path fill="none" stroke="midnightblue" d="M211.78,-390C265.6,-390 362.11,-390 419.48,-390"/>
<polygon fill="midnightblue" stroke="midnightblue" points="419.72,-393.5 429.72,-390 419.72,-386.5 419.72,-393.5"/>
</g>
<!-- Node25 -->
<g id="node25" class="node">
<title>Node25</title>
<g id="a_node25"><a xlink:href="_transmitter_code_2src_2main_8cpp.html#ae0f54c30ea92041b69cdccb888cb86b8" target="_top" xlink:title=" ">
<polygon fill="white" stroke="black" points="266,-152.5 266,-171.5 349,-171.5 349,-152.5 266,-152.5"/>
<text text-anchor="middle" x="307.5" y="-159.5" font-family="Helvetica,sans-Serif" font-size="10.00">ReadFMSwitch</text>
</a>
</g>
</g>
<!-- Node12&#45;&gt;Node25 -->
<g id="edge44" class="edge">
<title>Node12&#45;&gt;Node25</title>
<path fill="none" stroke="midnightblue" d="M174.1,-380.27C179.94,-347.7 202.98,-241.21 263,-181 264.4,-179.6 265.91,-178.29 267.52,-177.08"/>
<polygon fill="midnightblue" stroke="midnightblue" points="269.45,-179.99 276.08,-171.73 265.75,-174.06 269.45,-179.99"/>
</g>
<!-- Node26 -->
<g id="node26" class="node">
<title>Node26</title>
<g id="a_node26"><a xlink:href="_transmitter_code_2src_2main_8cpp.html#a61f4d39b42cd6199d0ad2f97bb7f80e2" target="_top" xlink:title=" ">
<polygon fill="white" stroke="black" points="263,-817.5 263,-836.5 352,-836.5 352,-817.5 263,-817.5"/>
<text text-anchor="middle" x="307.5" y="-824.5" font-family="Helvetica,sans-Serif" font-size="10.00">ShowFlightMode</text>
</a>
</g>
</g>
<!-- Node12&#45;&gt;Node26 -->
<g id="edge45" class="edge">
<title>Node12&#45;&gt;Node26</title>
<path fill="none" stroke="midnightblue" d="M176.76,-399.75C186.99,-423.57 213.14,-486.8 227,-542 253.48,-647.47 213.81,-687.02 263,-784 268.19,-794.23 276.74,-803.48 284.9,-810.76"/>
<polygon fill="midnightblue" stroke="midnightblue" points="282.86,-813.62 292.78,-817.34 287.35,-808.24 282.86,-813.62"/>
</g>
<!-- Node27 -->
<g id="node27" class="node">
<title>Node27</title>
<g id="a_node27"><a xlink:href="_transmitter_code_2src_2main_8cpp.html#ad959eec03b0151ade81dc088593d816c" target="_top" xlink:title=" ">
<polygon fill="white" stroke="black" points="265.5,-266.5 265.5,-285.5 349.5,-285.5 349.5,-266.5 265.5,-266.5"/>
<text text-anchor="middle" x="307.5" y="-273.5" font-family="Helvetica,sans-Serif" font-size="10.00">ShowServoPos</text>
</a>
</g>
</g>
<!-- Node12&#45;&gt;Node27 -->
<g id="edge47" class="edge">
<title>Node12&#45;&gt;Node27</title>
<path fill="none" stroke="midnightblue" d="M183.92,-380.28C206.97,-360.68 259.21,-316.23 287.48,-292.18"/>
<polygon fill="midnightblue" stroke="midnightblue" points="289.76,-294.84 295.1,-285.69 285.22,-289.51 289.76,-294.84"/>
</g>
<!-- Node30 -->
<g id="node30" class="node">
<title>Node30</title>
<g id="a_node30"><a xlink:href="_transmitter_code_2src_2main_8cpp.html#afd8df260b5cc99e246c0e3c23cff81d1" target="_top" xlink:title=" ">
<polygon fill="white" stroke="black" points="598.5,-722.5 598.5,-741.5 690.5,-741.5 690.5,-722.5 598.5,-722.5"/>
<text text-anchor="middle" x="644.5" y="-729.5" font-family="Helvetica,sans-Serif" font-size="10.00">SoundFlightMode</text>
</a>
</g>
</g>
<!-- Node12&#45;&gt;Node30 -->
<g id="edge54" class="edge">
<title>Node12&#45;&gt;Node30</title>
<path fill="none" stroke="midnightblue" d="M176.46,-399.83C186.03,-423.83 210.81,-487.44 227,-542 246.75,-608.56 218.93,-640.36 263,-694 344.54,-793.24 520.16,-764.18 601.09,-744.07"/>
<polygon fill="midnightblue" stroke="midnightblue" points="602.12,-747.42 610.93,-741.55 600.38,-740.64 602.12,-747.42"/>
</g>
<!-- Node31 -->
<g id="node31" class="node">
<title>Node31</title>
<g id="a_node31"><a xlink:href="_transmitter_code_2src_2main_8cpp.html#a9e1de754e1d2d483fb15957f70cf0488" target="_top" xlink:title=" ">
<polygon fill="white" stroke="black" points="388,-76.5 388,-95.5 546,-95.5 546,-76.5 388,-76.5"/>
<text text-anchor="middle" x="467" y="-83.5" font-family="Helvetica,sans-Serif" font-size="10.00">UpdateModelsNameEveryWhere</text>
</a>
</g>
</g>
<!-- Node12&#45;&gt;Node31 -->
<g id="edge57" class="edge">
<title>Node12&#45;&gt;Node31</title>
<path fill="none" stroke="midnightblue" d="M176.74,-380.25C187.66,-356.16 219,-293.2 263,-257 296.21,-229.67 323.11,-250.86 352,-219 387.69,-179.64 349.19,-141.29 388,-105 389.53,-103.57 391.14,-102.25 392.83,-101.02"/>
<polygon fill="midnightblue" stroke="midnightblue" points="395.04,-103.77 401.81,-95.62 391.44,-97.77 395.04,-103.77"/>
</g>
<!-- Node14 -->
<g id="node14" class="node">
<title>Node14</title>
<g id="a_node14"><a xlink:href="_transmitter_code_2src_2main_8cpp.html#aeed3be7dfc45cde2e9e9d3578c104760" target="_top" xlink:title=" ">
<polygon fill="white" stroke="black" points="425.5,-38.5 425.5,-57.5 508.5,-57.5 508.5,-38.5 425.5,-38.5"/>
<text text-anchor="middle" x="467" y="-45.5" font-family="Helvetica,sans-Serif" font-size="10.00">ReadCHSwitch</text>
</a>
</g>
</g>
<!-- Node13&#45;&gt;Node14 -->
<g id="edge19" class="edge">
<title>Node13&#45;&gt;Node14</title>
<path fill="none" stroke="midnightblue" d="M339.7,-190.35C344.27,-187.87 348.58,-184.8 352,-181 387.53,-141.49 349.19,-103.29 388,-67 395.56,-59.93 405.29,-55.36 415.31,-52.44"/>
<polygon fill="midnightblue" stroke="midnightblue" points="416.43,-55.77 425.34,-50.04 414.8,-48.97 416.43,-55.77"/>
</g>
<!-- Node15&#45;&gt;Node5 -->
<g id="edge21" class="edge">
<title>Node15&#45;&gt;Node5</title>
<path fill="none" stroke="midnightblue" d="M679.22,-580.38C718.57,-579.98 785.21,-576.71 840,-561 858.48,-555.7 877.85,-546.03 892.48,-537.77"/>
<polygon fill="midnightblue" stroke="midnightblue" points="894.47,-540.66 901.35,-532.6 890.95,-534.61 894.47,-540.66"/>
</g>
<!-- Node15&#45;&gt;Node8 -->
<g id="edge22" class="edge">
<title>Node15&#45;&gt;Node8</title>
<path fill="none" stroke="midnightblue" d="M650.57,-570.18C661.7,-548.39 688.72,-494.21 707,-447 726.19,-397.45 706.86,-371.95 743,-333 745.24,-330.59 747.82,-328.48 750.6,-326.64"/>
<polygon fill="midnightblue" stroke="midnightblue" points="752.28,-329.7 759.39,-321.85 748.93,-323.56 752.28,-329.7"/>
</g>
<!-- Node16&#45;&gt;Node5 -->
<g id="edge39" class="edge">
<title>Node16&#45;&gt;Node5</title>
<path fill="none" stroke="midnightblue" d="M469.76,-399.89C476.59,-434.88 504.88,-553.22 582,-599 680.79,-657.65 733.85,-626.94 840,-583 863.69,-573.2 886.19,-553.91 900.58,-539.84"/>
<polygon fill="midnightblue" stroke="midnightblue" points="903.15,-542.22 907.7,-532.65 898.18,-537.3 903.15,-542.22"/>
</g>
<!-- Node16&#45;&gt;Node8 -->
<g id="edge40" class="edge">
<title>Node16&#45;&gt;Node8</title>
<path fill="none" stroke="midnightblue" d="M472.64,-380.14C485.57,-354.03 524.81,-283.31 582,-257 632.47,-233.79 653.92,-240.61 707,-257 732.47,-264.86 757.11,-283.46 772.94,-297.28"/>
<polygon fill="midnightblue" stroke="midnightblue" points="771.01,-300.26 780.77,-304.38 775.71,-295.07 771.01,-300.26"/>
</g>
<!-- Node17 -->
<g id="node17" class="node">
<title>Node17</title>
<g id="a_node17"><a xlink:href="_transmitter_code_2src_2main_8cpp.html#a5aeea47b9d855ae9911bae1115d02de7" target="_top" xlink:title=" ">
<polygon fill="white" stroke="black" points="763.5,-532.5 763.5,-551.5 819.5,-551.5 819.5,-532.5 763.5,-532.5"/>
<text text-anchor="middle" x="791.5" y="-539.5" font-family="Helvetica,sans-Serif" font-size="10.00">ClearBox</text>
</a>
</g>
</g>
<!-- Node16&#45;&gt;Node17 -->
<g id="edge24" class="edge">
<title>Node16&#45;&gt;Node17</title>
<path fill="none" stroke="midnightblue" d="M476.78,-399.53C494.72,-418.44 537.64,-460.88 582,-484 637.87,-513.12 710,-528.97 753.12,-536.45"/>
<polygon fill="midnightblue" stroke="midnightblue" points="752.73,-539.93 763.17,-538.13 753.88,-533.03 752.73,-539.93"/>
</g>
<!-- Node18 -->
<g id="node18" class="node">
<title>Node18</title>
<g id="a_node18"><a xlink:href="_transmitter_code_2src_2main_8cpp.html#a68b36025c7478c0710565b4fb059d9bc" target="_top" xlink:title=" ">
<polygon fill="white" stroke="black" points="602.5,-342.5 602.5,-361.5 686.5,-361.5 686.5,-342.5 602.5,-342.5"/>
<text text-anchor="middle" x="644.5" y="-349.5" font-family="Helvetica,sans-Serif" font-size="10.00">DegsToPercent</text>
</a>
</g>
</g>
<!-- Node16&#45;&gt;Node18 -->
<g id="edge27" class="edge">
<title>Node16&#45;&gt;Node18</title>
<path fill="none" stroke="midnightblue" d="M504.36,-382.13C529.76,-376.63 564.02,-369.21 592.19,-363.11"/>
<polygon fill="midnightblue" stroke="midnightblue" points="593.23,-366.47 602.26,-360.93 591.75,-359.62 593.23,-366.47"/>
</g>
<!-- Node19 -->
<g id="node19" class="node">
<title>Node19</title>
<g id="a_node19"><a xlink:href="_transmitter_code_2src_2main_8cpp.html#a705c97485d6142131c03577ec14134e7" target="_top" xlink:title=" ">
<polygon fill="white" stroke="black" points="763.5,-418.5 763.5,-437.5 819.5,-437.5 819.5,-418.5 763.5,-418.5"/>
<text text-anchor="middle" x="791.5" y="-425.5" font-family="Helvetica,sans-Serif" font-size="10.00">DrawBox</text>
</a>
</g>
</g>
<!-- Node16&#45;&gt;Node19 -->
<g id="edge28" class="edge">
<title>Node16&#45;&gt;Node19</title>
<path fill="none" stroke="midnightblue" d="M481.93,-399.67C502.62,-413.39 543.24,-437.85 582,-447 640.99,-460.93 711.59,-448.65 753.65,-438.4"/>
<polygon fill="midnightblue" stroke="midnightblue" points="754.62,-441.76 763.45,-435.92 752.9,-434.98 754.62,-441.76"/>
</g>
<!-- Node20 -->
<g id="node20" class="node">
<title>Node20</title>
<g id="a_node20"><a xlink:href="_transmitter_code_2src_2main_8cpp.html#a711945ac5f6948657463708863748432" target="_top" xlink:title=" ">
<polygon fill="white" stroke="black" points="764.5,-456.5 764.5,-475.5 818.5,-475.5 818.5,-456.5 764.5,-456.5"/>
<text text-anchor="middle" x="791.5" y="-463.5" font-family="Helvetica,sans-Serif" font-size="10.00">DrawDot</text>
</a>
</g>
</g>
<!-- Node16&#45;&gt;Node20 -->
<g id="edge31" class="edge">
<title>Node16&#45;&gt;Node20</title>
<path fill="none" stroke="midnightblue" d="M478.27,-399.64C497.07,-416.57 539.07,-451.07 582,-464 640.31,-481.57 712.03,-476.91 754.35,-471.65"/>
<polygon fill="midnightblue" stroke="midnightblue" points="755,-475.1 764.45,-470.31 754.08,-468.16 755,-475.1"/>
</g>
<!-- Node21 -->
<g id="node21" class="node">
<title>Node21</title>
<g id="a_node21"><a xlink:href="_transmitter_code_2src_2main_8cpp.html#acbef1d41e1bd646b60a6e8afd9c66880" target="_top" xlink:title=" ">
<polygon fill="white" stroke="black" points="762.5,-380.5 762.5,-399.5 820.5,-399.5 820.5,-380.5 762.5,-380.5"/>
<text text-anchor="middle" x="791.5" y="-387.5" font-family="Helvetica,sans-Serif" font-size="10.00">DrawLine</text>
</a>
</g>
</g>
<!-- Node16&#45;&gt;Node21 -->
<g id="edge34" class="edge">
<title>Node16&#45;&gt;Node21</title>
<path fill="none" stroke="midnightblue" d="M504.06,-390C565.27,-390 689.01,-390 751.91,-390"/>
<polygon fill="midnightblue" stroke="midnightblue" points="752.19,-393.5 762.19,-390 752.19,-386.5 752.19,-393.5"/>
</g>
<!-- Node22 -->
<g id="node22" class="node">
<title>Node22</title>
<g id="a_node22"><a xlink:href="_transmitter_code_2src_2main_8cpp.html#a9faf4d94aad5656651bf8719d901fa06" target="_top" xlink:title="Uses servo degrees to position dots.">
<polygon fill="white" stroke="black" points="600.5,-304.5 600.5,-323.5 688.5,-323.5 688.5,-304.5 600.5,-304.5"/>
<text text-anchor="middle" x="644.5" y="-311.5" font-family="Helvetica,sans-Serif" font-size="10.00">GetDotPositions</text>
</a>
</g>
</g>
<!-- Node16&#45;&gt;Node22 -->
<g id="edge37" class="edge">
<title>Node16&#45;&gt;Node22</title>
<path fill="none" stroke="midnightblue" d="M484.98,-380.41C506.9,-368.28 546.47,-347.26 582,-333 587.51,-330.79 593.39,-328.67 599.24,-326.71"/>
<polygon fill="midnightblue" stroke="midnightblue" points="600.55,-329.97 609,-323.57 598.4,-323.31 600.55,-329.97"/>
</g>
<!-- Node23 -->
<g id="node23" class="node">
<title>Node23</title>
<g id="a_node23"><a xlink:href="_transmitter_code_2src_2main_8cpp.html#a66f68b74166e81ad0ecb8fc3a1670eb5" target="_top" xlink:title=" ">
<polygon fill="white" stroke="black" points="619,-266.5 619,-285.5 670,-285.5 670,-266.5 619,-266.5"/>
<text text-anchor="middle" x="644.5" y="-273.5" font-family="Helvetica,sans-Serif" font-size="10.00">MapExp</text>
</a>
</g>
</g>
<!-- Node16&#45;&gt;Node23 -->
<g id="edge38" class="edge">
<title>Node16&#45;&gt;Node23</title>
<path fill="none" stroke="midnightblue" d="M476.81,-380.47C494.81,-361.54 537.84,-318.96 582,-295 590.44,-290.42 600.14,-286.77 609.31,-283.95"/>
<polygon fill="midnightblue" stroke="midnightblue" points="610.3,-287.31 618.96,-281.21 608.38,-280.58 610.3,-287.31"/>
</g>
<!-- Node24 -->
<g id="node24" class="node">
<title>Node24</title>
<g id="a_node24"><a xlink:href="_transmitter_code_2src_2main_8cpp.html#ab07d91dcd72f515d2d80b1d18f95ece5" target="_top" xlink:title=" ">
<polygon fill="white" stroke="black" points="582,-418.5 582,-437.5 707,-437.5 707,-418.5 582,-418.5"/>
<text text-anchor="middle" x="644.5" y="-425.5" font-family="Helvetica,sans-Serif" font-size="10.00">updateInterpolationTypes</text>
</a>
</g>
</g>
<!-- Node16&#45;&gt;Node24 -->
<g id="edge41" class="edge">
<title>Node16&#45;&gt;Node24</title>
<path fill="none" stroke="midnightblue" d="M504.36,-397.87C528.95,-403.2 561.86,-410.32 589.49,-416.31"/>
<polygon fill="midnightblue" stroke="midnightblue" points="588.9,-419.76 599.41,-418.45 590.38,-412.92 588.9,-419.76"/>
</g>
<!-- Node17&#45;&gt;Node5 -->
<g id="edge25" class="edge">
<title>Node17&#45;&gt;Node5</title>
<path fill="none" stroke="midnightblue" d="M819.71,-537.83C833.16,-535.77 849.84,-533.21 865.55,-530.81"/>
<polygon fill="midnightblue" stroke="midnightblue" points="866.33,-534.23 875.68,-529.25 865.27,-527.31 866.33,-534.23"/>
</g>
<!-- Node17&#45;&gt;Node9 -->
<g id="edge26" class="edge">
<title>Node17&#45;&gt;Node9</title>
<path fill="none" stroke="midnightblue" d="M801.42,-532.43C822.14,-510.21 873.79,-454.81 900.27,-426.4"/>
<polygon fill="midnightblue" stroke="midnightblue" points="903.07,-428.54 907.33,-418.84 897.95,-423.76 903.07,-428.54"/>
</g>
<!-- Node19&#45;&gt;Node5 -->
<g id="edge29" class="edge">
<title>Node19&#45;&gt;Node5</title>
<path fill="none" stroke="midnightblue" d="M819.57,-436.66C826.51,-439.45 833.76,-442.9 840,-447 864.78,-463.28 888.18,-488.51 902.42,-505.38"/>
<polygon fill="midnightblue" stroke="midnightblue" points="899.93,-507.86 909,-513.35 905.33,-503.41 899.93,-507.86"/>
</g>
<!-- Node19&#45;&gt;Node9 -->
<g id="edge30" class="edge">
<title>Node19&#45;&gt;Node9</title>
<path fill="none" stroke="midnightblue" d="M819.71,-423.83C841.57,-420.48 871.95,-415.83 892.81,-412.63"/>
<polygon fill="midnightblue" stroke="midnightblue" points="893.41,-416.08 902.76,-411.11 892.35,-409.16 893.41,-416.08"/>
</g>
<!-- Node20&#45;&gt;Node5 -->
<g id="edge32" class="edge">
<title>Node20&#45;&gt;Node5</title>
<path fill="none" stroke="midnightblue" d="M813.25,-475.54C833.28,-484.75 863.82,-498.78 886.5,-509.21"/>
<polygon fill="midnightblue" stroke="midnightblue" points="885.13,-512.43 895.68,-513.43 888.05,-506.07 885.13,-512.43"/>
</g>
<!-- Node20&#45;&gt;Node9 -->
<g id="edge33" class="edge">
<title>Node20&#45;&gt;Node9</title>
<path fill="none" stroke="midnightblue" d="M817.8,-456.32C825.02,-453.44 832.87,-450.19 840,-447 858.32,-438.8 878.65,-428.65 893.75,-420.9"/>
<polygon fill="midnightblue" stroke="midnightblue" points="895.56,-423.9 902.84,-416.2 892.35,-417.69 895.56,-423.9"/>
</g>
<!-- Node21&#45;&gt;Node5 -->
<g id="edge35" class="edge">
<title>Node21&#45;&gt;Node5</title>
<path fill="none" stroke="midnightblue" d="M820.65,-398.05C827.43,-400.82 834.34,-404.42 840,-409 872.57,-435.35 896.48,-479.26 908.27,-504.2"/>
<polygon fill="midnightblue" stroke="midnightblue" points="905.1,-505.68 912.44,-513.33 911.47,-502.77 905.1,-505.68"/>
</g>
<!-- Node21&#45;&gt;Node9 -->
<g id="edge36" class="edge">
<title>Node21&#45;&gt;Node9</title>
<path fill="none" stroke="midnightblue" d="M820.64,-394.31C842.44,-397.65 872.31,-402.23 892.88,-405.38"/>
<polygon fill="midnightblue" stroke="midnightblue" points="892.56,-408.87 902.97,-406.93 893.62,-401.95 892.56,-408.87"/>
</g>
<!-- Node24&#45;&gt;Node5 -->
<g id="edge42" class="edge">
<title>Node24&#45;&gt;Node5</title>
<path fill="none" stroke="midnightblue" d="M658.7,-437.54C676.83,-450.21 710.86,-472.45 743,-485 782.87,-500.57 830.51,-510.43 865.77,-516.19"/>
<polygon fill="midnightblue" stroke="midnightblue" points="865.41,-519.67 875.83,-517.78 866.5,-512.76 865.41,-519.67"/>
</g>
<!-- Node24&#45;&gt;Node8 -->
<g id="edge43" class="edge">
<title>Node24&#45;&gt;Node8</title>
<path fill="none" stroke="midnightblue" d="M656.59,-418.12C669.06,-406.92 689.82,-387.99 707,-371 723.54,-354.64 723.75,-346.07 743,-333 745.72,-331.15 748.64,-329.44 751.66,-327.87"/>
<polygon fill="midnightblue" stroke="midnightblue" points="753.29,-330.97 760.86,-323.56 750.32,-324.63 753.29,-330.97"/>
</g>
<!-- Node26&#45;&gt;Node5 -->
<g id="edge46" class="edge">
<title>Node26&#45;&gt;Node5</title>
<path fill="none" stroke="midnightblue" d="M341.59,-836.53C432.93,-860.63 691.62,-913.8 840,-791 879.15,-758.6 905.55,-598.97 913.77,-542.69"/>
<polygon fill="midnightblue" stroke="midnightblue" points="917.26,-543 915.21,-532.6 910.33,-542.01 917.26,-543"/>
</g>
<!-- Node27&#45;&gt;Node8 -->
<g id="edge52" class="edge">
<title>Node27&#45;&gt;Node8</title>
<path fill="none" stroke="midnightblue" d="M331.39,-266.47C338.58,-262.71 346.16,-257.87 352,-252 375.57,-228.32 359.27,-203.06 388,-186 448.96,-149.81 644.67,-152.24 707,-186 749.8,-209.18 774.14,-264.88 784.5,-294.58"/>
<polygon fill="midnightblue" stroke="midnightblue" points="781.23,-295.84 787.69,-304.24 787.87,-293.64 781.23,-295.84"/>
</g>
<!-- Node27&#45;&gt;Node16 -->
<g id="edge48" class="edge">
<title>Node27&#45;&gt;Node16</title>
<path fill="none" stroke="midnightblue" d="M321.66,-285.52C348.8,-305.17 411.25,-350.37 444.41,-374.37"/>
<polygon fill="midnightblue" stroke="midnightblue" points="442.39,-377.23 452.55,-380.26 446.5,-371.56 442.39,-377.23"/>
</g>
<!-- Node28 -->
<g id="node28" class="node">
<title>Node28</title>
<g id="a_node28"><a xlink:href="_transmitter_code_2src_2main_8cpp.html#a93d9f055a2723479bb28f6c53fdb2643" target="_top" xlink:title=" ">
<polygon fill="white" stroke="black" points="768.5,-342.5 768.5,-361.5 814.5,-361.5 814.5,-342.5 768.5,-342.5"/>
<text text-anchor="middle" x="791.5" y="-349.5" font-family="Helvetica,sans-Serif" font-size="10.00">FillBox</text>
</a>
</g>
</g>
<!-- Node27&#45;&gt;Node28 -->
<g id="edge49" class="edge">
<title>Node27&#45;&gt;Node28</title>
<path fill="none" stroke="midnightblue" d="M331.49,-266.49C396.48,-241.24 584.68,-179.59 707,-257 738.58,-276.99 715.77,-307.4 743,-333 747.48,-337.21 753,-340.53 758.69,-343.14"/>
<polygon fill="midnightblue" stroke="midnightblue" points="757.65,-346.49 768.24,-346.88 760.2,-339.97 757.65,-346.49"/>
</g>
<!-- Node29 -->
<g id="node29" class="node">
<title>Node29</title>
<g id="a_node29"><a xlink:href="_transmitter_code_2src_2main_8cpp.html#a9f83d3bf4d2c0b217e0e461d0c2f3e71" target="_top" xlink:title=" ">
<polygon fill="white" stroke="black" points="452,-114.5 452,-133.5 482,-133.5 482,-114.5 452,-114.5"/>
<text text-anchor="middle" x="467" y="-121.5" font-family="Helvetica,sans-Serif" font-size="10.00">um</text>
</a>
</g>
</g>
<!-- Node27&#45;&gt;Node29 -->
<g id="edge53" class="edge">
<title>Node27&#45;&gt;Node29</title>
<path fill="none" stroke="midnightblue" d="M333.34,-266.3C340.14,-262.67 347,-257.94 352,-252 383.51,-214.59 352.82,-181.98 388,-148 402.38,-134.11 424.6,-128.24 441.65,-125.77"/>
<polygon fill="midnightblue" stroke="midnightblue" points="442.44,-129.2 451.98,-124.59 441.65,-122.25 442.44,-129.2"/>
</g>
<!-- Node28&#45;&gt;Node5 -->
<g id="edge50" class="edge">
<title>Node28&#45;&gt;Node5</title>
<path fill="none" stroke="midnightblue" d="M814.68,-357.21C823.37,-360.12 832.93,-364.51 840,-371 861.1,-390.36 894.11,-467.57 908.9,-503.9"/>
<polygon fill="midnightblue" stroke="midnightblue" points="905.73,-505.41 912.71,-513.38 912.22,-502.79 905.73,-505.41"/>
</g>
<!-- Node28&#45;&gt;Node9 -->
<g id="edge51" class="edge">
<title>Node28&#45;&gt;Node9</title>
<path fill="none" stroke="midnightblue" d="M814.89,-360.53C822.87,-363.68 831.89,-367.37 840,-371 858.32,-379.2 878.65,-389.35 893.75,-397.1"/>
<polygon fill="midnightblue" stroke="midnightblue" points="892.35,-400.31 902.84,-401.8 895.56,-394.1 892.35,-400.31"/>
</g>
<!-- Node30&#45;&gt;Node5 -->
<g id="edge56" class="edge">
<title>Node30&#45;&gt;Node5</title>
<path fill="none" stroke="midnightblue" d="M690.82,-728.94C733.62,-723.88 797.43,-710.48 840,-675 882.23,-639.81 903.48,-575.48 911.95,-542.96"/>
<polygon fill="midnightblue" stroke="midnightblue" points="915.43,-543.42 914.42,-532.88 908.64,-541.76 915.43,-543.42"/>
</g>
<!-- Node30&#45;&gt;Node11 -->
<g id="edge55" class="edge">
<title>Node30&#45;&gt;Node11</title>
<path fill="none" stroke="midnightblue" d="M682.94,-722.4C691.05,-719.78 699.45,-716.64 707,-713 730.34,-701.74 754.54,-684.51 770.84,-671.94"/>
<polygon fill="midnightblue" stroke="midnightblue" points="773.32,-674.43 779.02,-665.5 769,-668.93 773.32,-674.43"/>
</g>
<!-- Node31&#45;&gt;Node8 -->
<g id="edge61" class="edge">
<title>Node31&#45;&gt;Node8</title>
<path fill="none" stroke="midnightblue" d="M527.01,-95.52C588.49,-106.44 679.61,-125.72 707,-148 754.65,-186.76 777.61,-259.69 786.25,-294.52"/>
<polygon fill="midnightblue" stroke="midnightblue" points="782.87,-295.46 788.56,-304.4 789.69,-293.86 782.87,-295.46"/>
</g>
<!-- Node31&#45;&gt;Node9 -->
<g id="edge62" class="edge">
<title>Node31&#45;&gt;Node9</title>
<path fill="none" stroke="midnightblue" d="M513.3,-76.5C573.2,-64.93 674.91,-49.02 707,-67 836.53,-139.56 895.63,-328.51 911.76,-389.63"/>
<polygon fill="midnightblue" stroke="midnightblue" points="908.41,-390.67 914.28,-399.49 915.19,-388.94 908.41,-390.67"/>
</g>
<!-- Node32 -->
<g id="node32" class="node">
<title>Node32</title>
<g id="a_node32"><a xlink:href="_transmitter_code_2src_2main_8cpp.html#afe513398f72d5e48f691830a1ef6eb42" target="_top" xlink:title=" ">
<polygon fill="white" stroke="black" points="762.5,-0.5 762.5,-19.5 820.5,-19.5 820.5,-0.5 762.5,-0.5"/>
<text text-anchor="middle" x="791.5" y="-7.5" font-family="Helvetica,sans-Serif" font-size="10.00">SendText</text>
</a>
</g>
</g>
<!-- Node31&#45;&gt;Node32 -->
<g id="edge58" class="edge">
<title>Node31&#45;&gt;Node32</title>
<path fill="none" stroke="midnightblue" d="M522.59,-76.44C530.69,-73.97 538.75,-70.87 546,-67 565.15,-56.78 562.26,-43.01 582,-34 637.27,-8.77 709,-6.22 752.3,-7.52"/>
<polygon fill="midnightblue" stroke="midnightblue" points="752.28,-11.02 762.4,-7.9 752.54,-4.02 752.28,-11.02"/>
</g>
<!-- Node33 -->
<g id="node33" class="node">
<title>Node33</title>
<g id="a_node33"><a xlink:href="_transmitter_code_2src_2main_8cpp.html#ac78966debc2cdc13d8ca958ce3b20c78" target="_top" xlink:title=" ">
<polygon fill="white" stroke="black" points="600,-76.5 600,-95.5 689,-95.5 689,-76.5 600,-76.5"/>
<text text-anchor="middle" x="644.5" y="-83.5" font-family="Helvetica,sans-Serif" font-size="10.00">UpdateTrimView</text>
</a>
</g>
</g>
<!-- Node31&#45;&gt;Node33 -->
<g id="edge63" class="edge">
<title>Node31&#45;&gt;Node33</title>
<path fill="none" stroke="midnightblue" d="M546.25,-86C560.82,-86 575.74,-86 589.39,-86"/>
<polygon fill="midnightblue" stroke="midnightblue" points="589.54,-89.5 599.54,-86 589.54,-82.5 589.54,-89.5"/>
</g>
<!-- Node32&#45;&gt;Node5 -->
<g id="edge60" class="edge">
<title>Node32&#45;&gt;Node5</title>
<path fill="none" stroke="midnightblue" d="M793.67,-19.6C799.46,-65.68 826.67,-268.58 876,-428 884.45,-455.3 898.07,-485.42 907.15,-504.28"/>
<polygon fill="midnightblue" stroke="midnightblue" points="904.01,-505.82 911.55,-513.27 910.3,-502.75 904.01,-505.82"/>
</g>
<!-- Node32&#45;&gt;Node6 -->
<g id="edge59" class="edge">
<title>Node32&#45;&gt;Node6</title>
<path fill="none" stroke="midnightblue" d="M817.12,-19.6C824.95,-23.36 833.3,-28.19 840,-34 932.19,-113.98 1002.53,-246.39 1026.55,-295.19"/>
<polygon fill="midnightblue" stroke="midnightblue" points="1023.45,-296.81 1030.96,-304.28 1029.74,-293.76 1023.45,-296.81"/>
</g>
<!-- Node33&#45;&gt;Node8 -->
<g id="edge64" class="edge">
<title>Node33&#45;&gt;Node8</title>
<path fill="none" stroke="midnightblue" d="M684.11,-95.58C692.43,-99.05 700.63,-103.73 707,-110 760.5,-162.63 781.03,-254.33 787.71,-294.37"/>
<polygon fill="midnightblue" stroke="midnightblue" points="784.28,-295.07 789.27,-304.42 791.2,-294 784.28,-295.07"/>
</g>
</g>
</svg>
