<?xml version="1.0" encoding="UTF-8" standalone="no"?>
<!DOCTYPE svg PUBLIC "-//W3C//DTD SVG 1.1//EN"
 "http://www.w3.org/Graphics/SVG/1.1/DTD/svg11.dtd">
<!-- Generated by graphviz version 2.50.0 (20220203.2022)
 -->
<!-- Title: GetDotPositions Pages: 1 -->
<svg width="1126pt" height="585pt"
 viewBox="0.00 0.00 1126.00 585.00" xmlns="http://www.w3.org/2000/svg" xmlns:xlink="http://www.w3.org/1999/xlink">
<g id="graph0" class="graph" transform="scale(1 1) rotate(0) translate(4 581)">
<title>GetDotPositions</title>
<polygon fill="white" stroke="transparent" points="-4,4 -4,-581 1122,-581 1122,4 -4,4"/>
<!-- Node1 -->
<g id="node1" class="node">
<title>Node1</title>
<g id="a_node1"><a xlink:title="Uses servo degrees to position dots.">
<polygon fill="#bfbfbf" stroke="black" points="1030,-218.97 1030,-237.97 1118,-237.97 1118,-218.97 1030,-218.97"/>
<text text-anchor="middle" x="1074" y="-225.97" font-family="Helvetica,sans-Serif" font-size="10.00">GetDotPositions</text>
</a>
</g>
</g>
<!-- Node2 -->
<g id="node2" class="node">
<title>Node2</title>
<g id="a_node2"><a xlink:href="_transmitter_code_2src_2main_8cpp.html#af941d3a33327b2cee79e058ba9cd65f6" target="_top" xlink:title=" ">
<polygon fill="white" stroke="black" points="920,-199.97 920,-218.97 994,-218.97 994,-199.97 920,-199.97"/>
<text text-anchor="middle" x="957" y="-206.97" font-family="Helvetica,sans-Serif" font-size="10.00">DisplayCurve</text>
</a>
</g>
</g>
<!-- Node1&#45;&gt;Node2 -->
<g id="edge1" class="edge">
<title>Node1&#45;&gt;Node2</title>
<path fill="none" stroke="midnightblue" d="M1019.8,-219.68C1011.15,-218.25 1002.37,-216.8 994.24,-215.46"/>
<polygon fill="midnightblue" stroke="midnightblue" points="1019.41,-223.16 1029.85,-221.34 1020.56,-216.26 1019.41,-223.16"/>
</g>
<!-- Node25 -->
<g id="node25" class="node">
<title>Node25</title>
<g id="a_node25"><a xlink:href="_transmitter_code_2src_2main_8cpp.html#aad727ec0b0f9f34487a535eaa4a83172" target="_top" xlink:title="moves point very close to where user hit screen">
<polygon fill="white" stroke="black" points="812.5,-237.97 812.5,-256.97 875.5,-256.97 875.5,-237.97 812.5,-237.97"/>
<text text-anchor="middle" x="844" y="-244.97" font-family="Helvetica,sans-Serif" font-size="10.00">MovePoint</text>
</a>
</g>
</g>
<!-- Node1&#45;&gt;Node25 -->
<g id="edge46" class="edge">
<title>Node1&#45;&gt;Node25</title>
<path fill="none" stroke="midnightblue" d="M1019.72,-232.91C974.9,-236.64 912.4,-241.85 875.58,-244.92"/>
<polygon fill="midnightblue" stroke="midnightblue" points="1020.17,-236.38 1029.85,-232.06 1019.59,-229.41 1020.17,-236.38"/>
</g>
<!-- Node3 -->
<g id="node3" class="node">
<title>Node3</title>
<g id="a_node3"><a xlink:href="_transmitter_code_2src_2main_8cpp.html#aed6c682ed45951f95e0b02cf6b570da2" target="_top" xlink:title=" ">
<polygon fill="white" stroke="black" points="71,-300.97 71,-319.97 179,-319.97 179,-300.97 71,-300.97"/>
<text text-anchor="middle" x="125" y="-307.97" font-family="Helvetica,sans-Serif" font-size="10.00">Button_was_pressed</text>
</a>
</g>
</g>
<!-- Node2&#45;&gt;Node3 -->
<g id="edge2" class="edge">
<title>Node2&#45;&gt;Node3</title>
<path fill="none" stroke="midnightblue" d="M946.71,-190.85C920.22,-140.69 839.05,-6.47 729,-6.47 729,-6.47 729,-6.47 519,-6.47 381.53,-6.47 319.68,25.63 215,-63.47 138.81,-128.32 127.84,-263.55 126.27,-300.79"/>
<polygon fill="midnightblue" stroke="midnightblue" points="943.71,-192.66 951.4,-199.95 949.93,-189.46 943.71,-192.66"/>
</g>
<!-- Node5 -->
<g id="node5" class="node">
<title>Node5</title>
<g id="a_node5"><a xlink:href="_transmitter_code_2src_2main_8cpp.html#adf35f0ced7990f813a783d0ecd33bf64" target="_top" xlink:title=" ">
<polygon fill="white" stroke="black" points="804,-149.97 804,-168.97 884,-168.97 884,-149.97 804,-149.97"/>
<text text-anchor="middle" x="844" y="-156.97" font-family="Helvetica,sans-Serif" font-size="10.00">GetFlightMode</text>
</a>
</g>
</g>
<!-- Node2&#45;&gt;Node5 -->
<g id="edge4" class="edge">
<title>Node2&#45;&gt;Node5</title>
<path fill="none" stroke="midnightblue" d="M925.56,-195.76C906.81,-187.31 883.23,-176.69 866.44,-169.13"/>
<polygon fill="midnightblue" stroke="midnightblue" points="924.31,-199.03 934.86,-199.95 927.18,-192.65 924.31,-199.03"/>
</g>
<!-- Node2&#45;&gt;Node25 -->
<g id="edge44" class="edge">
<title>Node2&#45;&gt;Node25</title>
<path fill="none" stroke="midnightblue" d="M918.11,-222.44C903.32,-227.5 886.67,-233.2 873,-237.88"/>
<polygon fill="midnightblue" stroke="midnightblue" points="919.66,-225.61 927.99,-219.06 917.4,-218.98 919.66,-225.61"/>
</g>
<!-- Node4 -->
<g id="node4" class="node">
<title>Node4</title>
<g id="a_node4"><a xlink:href="_transmitter_code_2src_2main_8cpp.html#afe461d27b9c48d5921c00d521181f12f" target="_top" xlink:title=" ">
<polygon fill="white" stroke="black" points="0,-300.97 0,-319.97 35,-319.97 35,-300.97 0,-300.97"/>
<text text-anchor="middle" x="17.5" y="-307.97" font-family="Helvetica,sans-Serif" font-size="10.00">loop</text>
</a>
</g>
</g>
<!-- Node3&#45;&gt;Node4 -->
<g id="edge3" class="edge">
<title>Node3&#45;&gt;Node4</title>
<path fill="none" stroke="midnightblue" d="M60.7,-310.47C51.38,-310.47 42.51,-310.47 35.33,-310.47"/>
<polygon fill="midnightblue" stroke="midnightblue" points="60.94,-313.97 70.94,-310.47 60.94,-306.97 60.94,-313.97"/>
</g>
<!-- Node6 -->
<g id="node6" class="node">
<title>Node6</title>
<g id="a_node6"><a xlink:href="_transmitter_code_2src_2main_8cpp.html#ab0af36f3442ad4f2d0b716c14c7d6085" target="_top" xlink:title=" ">
<polygon fill="white" stroke="black" points="688,-125.97 688,-144.97 768,-144.97 768,-125.97 688,-125.97"/>
<text text-anchor="middle" x="728" y="-132.97" font-family="Helvetica,sans-Serif" font-size="10.00">ReadSwitches</text>
</a>
</g>
</g>
<!-- Node5&#45;&gt;Node6 -->
<g id="edge5" class="edge">
<title>Node5&#45;&gt;Node6</title>
<path fill="none" stroke="midnightblue" d="M793.89,-149.13C785.34,-147.33 776.55,-145.48 768.3,-143.74"/>
<polygon fill="midnightblue" stroke="midnightblue" points="793.26,-152.57 803.77,-151.21 794.7,-145.72 793.26,-152.57"/>
</g>
<!-- Node7 -->
<g id="node7" class="node">
<title>Node7</title>
<g id="a_node7"><a xlink:href="_radio_functions_8cpp.html#a3d7322e78f097d02d476f17a6306997c" target="_top" xlink:title=" ">
<polygon fill="white" stroke="black" points="593,-78.97 593,-97.97 652,-97.97 652,-78.97 593,-78.97"/>
<text text-anchor="middle" x="622.5" y="-85.97" font-family="Helvetica,sans-Serif" font-size="10.00">SendData</text>
</a>
</g>
</g>
<!-- Node6&#45;&gt;Node7 -->
<g id="edge6" class="edge">
<title>Node6&#45;&gt;Node7</title>
<path fill="none" stroke="midnightblue" d="M696.72,-121.72C680.05,-114.15 659.76,-104.93 644.77,-98.13"/>
<polygon fill="midnightblue" stroke="midnightblue" points="695.5,-125.01 706.06,-125.96 698.4,-118.64 695.5,-125.01"/>
</g>
<!-- Node7&#45;&gt;Node4 -->
<g id="edge7" class="edge">
<title>Node7&#45;&gt;Node4</title>
<path fill="none" stroke="midnightblue" d="M583.17,-77.51C509.89,-58.42 345.59,-24.62 215,-63.47 141.74,-85.26 117.95,-97.16 71,-157.47 35.29,-203.34 23,-275.06 19.61,-300.84"/>
<polygon fill="midnightblue" stroke="midnightblue" points="582.33,-80.91 592.89,-80.1 584.13,-74.14 582.33,-80.91"/>
</g>
<!-- Node8 -->
<g id="node8" class="node">
<title>Node8</title>
<g id="a_node8"><a xlink:href="_radio_functions_8cpp.html#a760609a682300dfe6bfaac737fd4d5eb" target="_top" xlink:title=" ">
<polygon fill="white" stroke="black" points="483,-294.97 483,-313.97 557,-313.97 557,-294.97 483,-294.97"/>
<text text-anchor="middle" x="520" y="-301.97" font-family="Helvetica,sans-Serif" font-size="10.00">Procrastinate</text>
</a>
</g>
</g>
<!-- Node7&#45;&gt;Node8 -->
<g id="edge8" class="edge">
<title>Node7&#45;&gt;Node8</title>
<path fill="none" stroke="midnightblue" d="M612.71,-107.35C592.11,-151.64 541.23,-260.99 525.63,-294.53"/>
<polygon fill="midnightblue" stroke="midnightblue" points="616.01,-108.57 617.05,-98.03 609.66,-105.62 616.01,-108.57"/>
</g>
<!-- Node8&#45;&gt;Node2 -->
<g id="edge10" class="edge">
<title>Node8&#45;&gt;Node2</title>
<path fill="none" stroke="midnightblue" d="M560.85,-291.89C615.27,-275.16 716.11,-245.68 804,-228.47 843.28,-220.78 888.91,-215.56 919.85,-212.57"/>
<polygon fill="midnightblue" stroke="midnightblue" points="559.77,-288.57 551.25,-294.86 561.84,-295.25 559.77,-288.57"/>
</g>
<!-- Node8&#45;&gt;Node3 -->
<g id="edge9" class="edge">
<title>Node8&#45;&gt;Node3</title>
<path fill="none" stroke="midnightblue" d="M483.1,-317.42C471.62,-321.43 458.82,-325.77 447,-329.47 387.11,-348.21 373.18,-358.94 311,-367.47 268.73,-373.26 254.19,-384.33 215,-367.47 193.63,-358.28 198.48,-342.18 179,-329.47 173.27,-325.73 166.71,-322.61 160.21,-320.06"/>
<polygon fill="midnightblue" stroke="midnightblue" points="484.53,-320.63 492.8,-314 482.2,-314.03 484.53,-320.63"/>
</g>
<!-- Node9 -->
<g id="node9" class="node">
<title>Node9</title>
<g id="a_node9"><a xlink:href="_transmitter_code_2src_2main_8cpp.html#ad7b8aa834c87265667a5687b1787a1cc" target="_top" xlink:title=" ">
<polygon fill="white" stroke="black" points="369,-300.97 369,-319.97 425,-319.97 425,-300.97 369,-300.97"/>
<text text-anchor="middle" x="397" y="-307.97" font-family="Helvetica,sans-Serif" font-size="10.00">EndSend</text>
</a>
</g>
</g>
<!-- Node8&#45;&gt;Node9 -->
<g id="edge11" class="edge">
<title>Node8&#45;&gt;Node9</title>
<path fill="none" stroke="midnightblue" d="M472.41,-306.78C456.39,-307.57 438.99,-308.44 425.04,-309.13"/>
<polygon fill="midnightblue" stroke="midnightblue" points="472.88,-310.26 482.7,-306.27 472.53,-303.27 472.88,-310.26"/>
</g>
<!-- Node14 -->
<g id="node14" class="node">
<title>Node14</title>
<g id="a_node14"><a xlink:href="_transmitter_code_2src_2main_8cpp.html#acd96c3022716bba17005df2e6b3d0ed6" target="_top" xlink:title=" ">
<polygon fill="white" stroke="black" points="82,-452.97 82,-471.97 168,-471.97 168,-452.97 82,-452.97"/>
<text text-anchor="middle" x="125" y="-459.97" font-family="Helvetica,sans-Serif" font-size="10.00">GetButtonPress</text>
</a>
</g>
</g>
<!-- Node8&#45;&gt;Node14 -->
<g id="edge19" class="edge">
<title>Node8&#45;&gt;Node14</title>
<path fill="none" stroke="midnightblue" d="M518.74,-324.4C516.99,-366.04 506.38,-461.8 447,-503.47 349.96,-571.55 194.82,-499.55 143.27,-472.13"/>
<polygon fill="midnightblue" stroke="midnightblue" points="522.25,-324.28 519.03,-314.19 515.25,-324.08 522.25,-324.28"/>
</g>
<!-- Node15 -->
<g id="node15" class="node">
<title>Node15</title>
<g id="a_node15"><a xlink:href="_transmitter_code_2src_2main_8cpp.html#a6fe457db5d6bc71ccb447dee824abf6a" target="_top" xlink:title=" ">
<polygon fill="white" stroke="black" points="367.5,-262.97 367.5,-281.97 426.5,-281.97 426.5,-262.97 367.5,-262.97"/>
<text text-anchor="middle" x="397" y="-269.97" font-family="Helvetica,sans-Serif" font-size="10.00">GetTextIn</text>
</a>
</g>
</g>
<!-- Node8&#45;&gt;Node15 -->
<g id="edge21" class="edge">
<title>Node8&#45;&gt;Node15</title>
<path fill="none" stroke="midnightblue" d="M473.05,-292.31C457.49,-288.2 440.57,-283.73 426.74,-280.07"/>
<polygon fill="midnightblue" stroke="midnightblue" points="472.46,-295.78 483.02,-294.95 474.25,-289.01 472.46,-295.78"/>
</g>
<!-- Node16 -->
<g id="node16" class="node">
<title>Node16</title>
<g id="a_node16"><a xlink:href="_radio_functions_8cpp.html#a86ce6c54618629a61b8502786d2ce82c" target="_top" xlink:title=" ">
<polygon fill="white" stroke="black" points="369.5,-376.97 369.5,-395.97 424.5,-395.97 424.5,-376.97 369.5,-376.97"/>
<text text-anchor="middle" x="397" y="-383.97" font-family="Helvetica,sans-Serif" font-size="10.00">InitRadio</text>
</a>
</g>
</g>
<!-- Node8&#45;&gt;Node16 -->
<g id="edge25" class="edge">
<title>Node8&#45;&gt;Node16</title>
<path fill="none" stroke="midnightblue" d="M500.85,-320.99C486.78,-333.31 466.47,-350.08 447,-362.47 438.53,-367.86 428.67,-372.9 420.03,-376.96"/>
<polygon fill="midnightblue" stroke="midnightblue" points="503.21,-323.58 508.35,-314.32 498.56,-318.34 503.21,-323.58"/>
</g>
<!-- Node17 -->
<g id="node17" class="node">
<title>Node17</title>
<g id="a_node17"><a xlink:href="_transmitter_code_2src_2main_8cpp.html#a4fc01d736fe50cf5b977f755b675f11d" target="_top" xlink:title=" ">
<polygon fill="white" stroke="black" points="242.5,-414.97 242.5,-433.97 283.5,-433.97 283.5,-414.97 242.5,-414.97"/>
<text text-anchor="middle" x="263" y="-421.97" font-family="Helvetica,sans-Serif" font-size="10.00">setup</text>
</a>
</g>
</g>
<!-- Node8&#45;&gt;Node17 -->
<g id="edge41" class="edge">
<title>Node8&#45;&gt;Node17</title>
<path fill="none" stroke="midnightblue" d="M511.42,-323.38C500.84,-347.03 479.26,-386.68 447,-405.47 394.56,-436.02 319.16,-431.69 283.76,-427.42"/>
<polygon fill="midnightblue" stroke="midnightblue" points="514.69,-324.62 515.39,-314.05 508.25,-321.88 514.69,-324.62"/>
</g>
<!-- Node18 -->
<g id="node18" class="node">
<title>Node18</title>
<g id="a_node18"><a xlink:href="_transmitter_code_2src_2main_8cpp.html#a909acb7ed667a5cc9c4ec6191fc33e75" target="_top" xlink:title=" ">
<polygon fill="white" stroke="black" points="347,-452.97 347,-471.97 447,-471.97 447,-452.97 347,-452.97"/>
<text text-anchor="middle" x="397" y="-459.97" font-family="Helvetica,sans-Serif" font-size="10.00">LoadAllParameters</text>
</a>
</g>
</g>
<!-- Node8&#45;&gt;Node18 -->
<g id="edge27" class="edge">
<title>Node8&#45;&gt;Node18</title>
<path fill="none" stroke="midnightblue" d="M512.93,-323.75C503.14,-352.12 481.41,-405.33 447,-438.47 440.79,-444.45 432.8,-449.21 425.09,-452.86"/>
<polygon fill="midnightblue" stroke="midnightblue" points="516.28,-324.78 516.1,-314.18 509.63,-322.57 516.28,-324.78"/>
</g>
<!-- Node19 -->
<g id="node19" class="node">
<title>Node19</title>
<g id="a_node19"><a xlink:href="_transmitter_code_2src_2main_8cpp.html#ab7c9edf843c732d7fe296564f39bc0dc" target="_top" xlink:title="RECEIVE A MODEL FILE.">
<polygon fill="white" stroke="black" points="216,-186.97 216,-205.97 310,-205.97 310,-186.97 216,-186.97"/>
<text text-anchor="middle" x="263" y="-193.97" font-family="Helvetica,sans-Serif" font-size="10.00">ReceiveModelFile</text>
</a>
</g>
</g>
<!-- Node8&#45;&gt;Node19 -->
<g id="edge29" class="edge">
<title>Node8&#45;&gt;Node19</title>
<path fill="none" stroke="midnightblue" d="M509.8,-285.92C498.27,-264.88 476.41,-231.42 447,-215.47 404.74,-192.55 348.92,-190.01 310.09,-191.81"/>
<polygon fill="midnightblue" stroke="midnightblue" points="506.75,-287.63 514.49,-294.86 512.95,-284.38 506.75,-287.63"/>
</g>
<!-- Node20 -->
<g id="node20" class="node">
<title>Node20</title>
<g id="a_node20"><a xlink:href="_transmitter_code_2src_2main_8cpp.html#a58c67a975068930341f0663e0a08c9d3" target="_top" xlink:title="SEND A MODEL FILE.">
<polygon fill="white" stroke="black" points="222.5,-148.97 222.5,-167.97 303.5,-167.97 303.5,-148.97 222.5,-148.97"/>
<text text-anchor="middle" x="263" y="-155.97" font-family="Helvetica,sans-Serif" font-size="10.00">SendModelFile</text>
</a>
</g>
</g>
<!-- Node8&#45;&gt;Node20 -->
<g id="edge31" class="edge">
<title>Node8&#45;&gt;Node20</title>
<path fill="none" stroke="midnightblue" d="M512.72,-285.05C503.08,-258.59 481.99,-211.84 447,-188.47 404.17,-159.86 343.39,-155.29 303.83,-155.89"/>
<polygon fill="midnightblue" stroke="midnightblue" points="509.48,-286.4 516.06,-294.71 516.1,-284.12 509.48,-286.4"/>
</g>
<!-- Node21 -->
<g id="node21" class="node">
<title>Node21</title>
<g id="a_node21"><a xlink:href="_transmitter_code_2src_2main_8cpp.html#acbd0460ea44a7d07e4d77878411febb4" target="_top" xlink:title=" ">
<polygon fill="white" stroke="black" points="351,-224.97 351,-243.97 443,-243.97 443,-224.97 351,-224.97"/>
<text text-anchor="middle" x="397" y="-231.97" font-family="Helvetica,sans-Serif" font-size="10.00">SetDefaultValues</text>
</a>
</g>
</g>
<!-- Node8&#45;&gt;Node21 -->
<g id="edge33" class="edge">
<title>Node8&#45;&gt;Node21</title>
<path fill="none" stroke="midnightblue" d="M499.42,-288.59C485.41,-277.74 465.77,-263.56 447,-253.47 440.49,-249.97 433.19,-246.78 426.26,-244.06"/>
<polygon fill="midnightblue" stroke="midnightblue" points="497.34,-291.41 507.36,-294.85 501.67,-285.91 497.34,-291.41"/>
</g>
<!-- Node22 -->
<g id="node22" class="node">
<title>Node22</title>
<g id="a_node22"><a xlink:href="_radio_functions_8cpp.html#a70dc6f8d2e5ccef6b8e4a2b9b0afb2ce" target="_top" xlink:title=" ">
<polygon fill="white" stroke="black" points="363,-110.97 363,-129.97 431,-129.97 431,-110.97 363,-110.97"/>
<text text-anchor="middle" x="397" y="-117.97" font-family="Helvetica,sans-Serif" font-size="10.00">SetThePipe</text>
</a>
</g>
</g>
<!-- Node8&#45;&gt;Node22 -->
<g id="edge35" class="edge">
<title>Node8&#45;&gt;Node22</title>
<path fill="none" stroke="midnightblue" d="M514.76,-284.76C506.76,-251.87 486.61,-185.39 447,-144.47 441.14,-138.41 433.43,-133.66 425.87,-130.05"/>
<polygon fill="midnightblue" stroke="midnightblue" points="511.43,-285.93 517.09,-294.89 518.26,-284.36 511.43,-285.93"/>
</g>
<!-- Node24 -->
<g id="node24" class="node">
<title>Node24</title>
<g id="a_node24"><a xlink:href="_transmitter_code_2src_2main_8cpp.html#a1e7673fa1ef97d68711edd0da2abed9b" target="_top" xlink:title=" ">
<polygon fill="white" stroke="black" points="215,-452.97 215,-471.97 311,-471.97 311,-452.97 215,-452.97"/>
<text text-anchor="middle" x="263" y="-459.97" font-family="Helvetica,sans-Serif" font-size="10.00">ShowFileErrorMsg</text>
</a>
</g>
</g>
<!-- Node8&#45;&gt;Node24 -->
<g id="edge42" class="edge">
<title>Node8&#45;&gt;Node24</title>
<path fill="none" stroke="midnightblue" d="M517.77,-324.3C514.2,-362.47 500.38,-445.55 447,-481.47 396.25,-515.61 319.02,-488.04 283.33,-471.98"/>
<polygon fill="midnightblue" stroke="midnightblue" points="521.28,-324.24 518.58,-314 514.31,-323.69 521.28,-324.24"/>
</g>
<!-- Node10 -->
<g id="node10" class="node">
<title>Node10</title>
<g id="a_node10"><a xlink:href="_transmitter_code_2src_2main_8cpp.html#ac8919b32f9c38cc65c7b93cae664acfb" target="_top" xlink:title=" ">
<polygon fill="white" stroke="black" points="222.5,-300.97 222.5,-319.97 303.5,-319.97 303.5,-300.97 222.5,-300.97"/>
<text text-anchor="middle" x="263" y="-307.97" font-family="Helvetica,sans-Serif" font-size="10.00">GetOtherValue</text>
</a>
</g>
</g>
<!-- Node9&#45;&gt;Node10 -->
<g id="edge12" class="edge">
<title>Node9&#45;&gt;Node10</title>
<path fill="none" stroke="midnightblue" d="M358.72,-310.47C341.49,-310.47 321.01,-310.47 303.52,-310.47"/>
<polygon fill="midnightblue" stroke="midnightblue" points="358.97,-313.97 368.97,-310.47 358.97,-306.97 358.97,-313.97"/>
</g>
<!-- Node11 -->
<g id="node11" class="node">
<title>Node11</title>
<g id="a_node11"><a xlink:href="_transmitter_code_2src_2main_8cpp.html#a8e271ca29dc3c90bcf0e465b41bd71ff" target="_top" xlink:title=" ">
<polygon fill="white" stroke="black" points="237.5,-262.97 237.5,-281.97 288.5,-281.97 288.5,-262.97 237.5,-262.97"/>
<text text-anchor="middle" x="263" y="-269.97" font-family="Helvetica,sans-Serif" font-size="10.00">GetText</text>
</a>
</g>
</g>
<!-- Node9&#45;&gt;Node11 -->
<g id="edge14" class="edge">
<title>Node9&#45;&gt;Node11</title>
<path fill="none" stroke="midnightblue" d="M359.1,-299.84C336.64,-293.38 308.57,-285.3 288.77,-279.6"/>
<polygon fill="midnightblue" stroke="midnightblue" points="358.39,-303.28 368.97,-302.69 360.33,-296.56 358.39,-303.28"/>
</g>
<!-- Node12 -->
<g id="node12" class="node">
<title>Node12</title>
<g id="a_node12"><a xlink:href="_transmitter_code_2src_2main_8cpp.html#ad957c44f88874b35bd11323a86408e59" target="_top" xlink:title=" ">
<polygon fill="white" stroke="black" points="234.5,-338.97 234.5,-357.97 291.5,-357.97 291.5,-338.97 234.5,-338.97"/>
<text text-anchor="middle" x="263" y="-345.97" font-family="Helvetica,sans-Serif" font-size="10.00">GetValue</text>
</a>
</g>
</g>
<!-- Node9&#45;&gt;Node12 -->
<g id="edge15" class="edge">
<title>Node9&#45;&gt;Node12</title>
<path fill="none" stroke="midnightblue" d="M359.27,-321.04C337.95,-327.18 311.51,-334.79 291.9,-340.44"/>
<polygon fill="midnightblue" stroke="midnightblue" points="360.33,-324.38 368.97,-318.25 358.39,-317.65 360.33,-324.38"/>
</g>
<!-- Node10&#45;&gt;Node3 -->
<g id="edge13" class="edge">
<title>Node10&#45;&gt;Node3</title>
<path fill="none" stroke="midnightblue" d="M212.22,-310.47C201.46,-310.47 190.04,-310.47 179.16,-310.47"/>
<polygon fill="midnightblue" stroke="midnightblue" points="212.3,-313.97 222.3,-310.47 212.3,-306.97 212.3,-313.97"/>
</g>
<!-- Node12&#45;&gt;Node3 -->
<g id="edge16" class="edge">
<title>Node12&#45;&gt;Node3</title>
<path fill="none" stroke="midnightblue" d="M224.71,-338.05C204.57,-332.42 179.89,-325.53 160.24,-320.04"/>
<polygon fill="midnightblue" stroke="midnightblue" points="223.91,-341.46 234.48,-340.78 225.79,-334.72 223.91,-341.46"/>
</g>
<!-- Node13 -->
<g id="node13" class="node">
<title>Node13</title>
<g id="a_node13"><a xlink:href="_transmitter_code_2src_2main_8cpp.html#a984cb52354a84c45e9e41f396a1c5e92" target="_top" xlink:title=" ">
<polygon fill="white" stroke="black" points="76.5,-338.97 76.5,-357.97 173.5,-357.97 173.5,-338.97 76.5,-338.97"/>
<text text-anchor="middle" x="125" y="-345.97" font-family="Helvetica,sans-Serif" font-size="10.00">CheckModelName</text>
</a>
</g>
</g>
<!-- Node12&#45;&gt;Node13 -->
<g id="edge17" class="edge">
<title>Node12&#45;&gt;Node13</title>
<path fill="none" stroke="midnightblue" d="M224.12,-348.47C208.46,-348.47 190.13,-348.47 173.58,-348.47"/>
<polygon fill="midnightblue" stroke="midnightblue" points="224.48,-351.97 234.48,-348.47 224.48,-344.97 224.48,-351.97"/>
</g>
<!-- Node13&#45;&gt;Node4 -->
<g id="edge18" class="edge">
<title>Node13&#45;&gt;Node4</title>
<path fill="none" stroke="midnightblue" d="M87.54,-335.41C82,-333.42 76.35,-331.39 71,-329.47 58.96,-325.13 45.38,-320.22 35.05,-316.47"/>
<polygon fill="midnightblue" stroke="midnightblue" points="86.71,-338.83 97.3,-338.92 89.07,-332.25 86.71,-338.83"/>
</g>
<!-- Node14&#45;&gt;Node4 -->
<g id="edge20" class="edge">
<title>Node14&#45;&gt;Node4</title>
<path fill="none" stroke="midnightblue" d="M111.49,-444.44C88.96,-411.99 42.34,-344.81 25.1,-319.97"/>
<polygon fill="midnightblue" stroke="midnightblue" points="108.82,-446.74 117.4,-452.96 114.57,-442.75 108.82,-446.74"/>
</g>
<!-- Node15&#45;&gt;Node10 -->
<g id="edge22" class="edge">
<title>Node15&#45;&gt;Node10</title>
<path fill="none" stroke="midnightblue" d="M357.74,-283.48C338.59,-288.99 315.65,-295.6 297.25,-300.9"/>
<polygon fill="midnightblue" stroke="midnightblue" points="358.72,-286.84 367.36,-280.71 356.78,-280.12 358.72,-286.84"/>
</g>
<!-- Node15&#45;&gt;Node11 -->
<g id="edge23" class="edge">
<title>Node15&#45;&gt;Node11</title>
<path fill="none" stroke="midnightblue" d="M357.24,-272.47C335.05,-272.47 307.87,-272.47 288.59,-272.47"/>
<polygon fill="midnightblue" stroke="midnightblue" points="357.36,-275.97 367.36,-272.47 357.36,-268.97 357.36,-275.97"/>
</g>
<!-- Node15&#45;&gt;Node12 -->
<g id="edge24" class="edge">
<title>Node15&#45;&gt;Node12</title>
<path fill="none" stroke="midnightblue" d="M358.24,-285.11C354.32,-287.01 350.49,-289.12 347,-291.47 327.68,-304.43 330.22,-316.36 311,-329.47 305.18,-333.43 298.41,-336.78 291.85,-339.5"/>
<polygon fill="midnightblue" stroke="midnightblue" points="359.7,-288.29 367.47,-281.09 356.91,-281.88 359.7,-288.29"/>
</g>
<!-- Node16&#45;&gt;Node17 -->
<g id="edge26" class="edge">
<title>Node16&#45;&gt;Node17</title>
<path fill="none" stroke="midnightblue" d="M359.61,-396.95C335.13,-403.99 303.79,-413.01 283.8,-418.77"/>
<polygon fill="midnightblue" stroke="midnightblue" points="360.65,-400.29 369.29,-394.16 358.71,-393.56 360.65,-400.29"/>
</g>
<!-- Node18&#45;&gt;Node17 -->
<g id="edge28" class="edge">
<title>Node18&#45;&gt;Node17</title>
<path fill="none" stroke="midnightblue" d="M353.01,-450.09C329.69,-443.38 301.99,-435.4 283.75,-430.15"/>
<polygon fill="midnightblue" stroke="midnightblue" points="352.11,-453.48 362.69,-452.88 354.05,-446.75 352.11,-453.48"/>
</g>
<!-- Node19&#45;&gt;Node3 -->
<g id="edge30" class="edge">
<title>Node19&#45;&gt;Node3</title>
<path fill="none" stroke="midnightblue" d="M230.66,-210.69C225.26,-213.64 219.83,-216.93 215,-220.47 181.12,-245.25 148.26,-283.15 133.75,-300.8"/>
<polygon fill="midnightblue" stroke="midnightblue" points="232.33,-213.77 239.63,-206.08 229.13,-207.55 232.33,-213.77"/>
</g>
<!-- Node20&#45;&gt;Node3 -->
<g id="edge32" class="edge">
<title>Node20&#45;&gt;Node3</title>
<path fill="none" stroke="midnightblue" d="M221.52,-172.89C219.23,-174.29 217.03,-175.82 215,-177.47 171.02,-213.22 140.62,-276.45 130.08,-300.66"/>
<polygon fill="midnightblue" stroke="midnightblue" points="223.48,-175.81 230.7,-168.05 220.22,-169.61 223.48,-175.81"/>
</g>
<!-- Node21&#45;&gt;Node3 -->
<g id="edge34" class="edge">
<title>Node21&#45;&gt;Node3</title>
<path fill="none" stroke="midnightblue" d="M340.39,-233.72C303.82,-234.81 255.44,-239.3 215,-253.47 184.18,-264.27 153.19,-287.61 137.17,-300.83"/>
<polygon fill="midnightblue" stroke="midnightblue" points="340.94,-237.21 350.86,-233.49 340.78,-230.21 340.94,-237.21"/>
</g>
<!-- Node22&#45;&gt;Node4 -->
<g id="edge36" class="edge">
<title>Node22&#45;&gt;Node4</title>
<path fill="none" stroke="midnightblue" d="M352.6,-117.84C314.73,-117.2 259.09,-120.28 215,-139.47 126.67,-177.9 49.29,-270.76 25.79,-300.87"/>
<polygon fill="midnightblue" stroke="midnightblue" points="352.7,-121.35 362.79,-118.12 352.89,-114.35 352.7,-121.35"/>
</g>
<!-- Node22&#45;&gt;Node19 -->
<g id="edge37" class="edge">
<title>Node22&#45;&gt;Node19</title>
<path fill="none" stroke="midnightblue" d="M375.09,-136.27C358.33,-148.49 333.91,-165.32 311,-177.47 304.47,-180.93 297.16,-184.17 290.29,-186.95"/>
<polygon fill="midnightblue" stroke="midnightblue" points="377.59,-138.78 383.55,-130.02 373.43,-133.15 377.59,-138.78"/>
</g>
<!-- Node22&#45;&gt;Node20 -->
<g id="edge38" class="edge">
<title>Node22&#45;&gt;Node20</title>
<path fill="none" stroke="midnightblue" d="M352.96,-132.86C334.88,-138.06 314.18,-144.02 297.3,-148.88"/>
<polygon fill="midnightblue" stroke="midnightblue" points="354.05,-136.19 362.69,-130.06 352.11,-129.46 354.05,-136.19"/>
</g>
<!-- Node23 -->
<g id="node23" class="node">
<title>Node23</title>
<g id="a_node23"><a xlink:href="_radio_functions_8cpp.html#a7051e235b8f694c6b01bb5edf3925dc7" target="_top" xlink:title=" ">
<polygon fill="white" stroke="black" points="226,-72.97 226,-91.97 300,-91.97 300,-72.97 226,-72.97"/>
<text text-anchor="middle" x="263" y="-79.97" font-family="Helvetica,sans-Serif" font-size="10.00">TryOtherPipe</text>
</a>
</g>
</g>
<!-- Node22&#45;&gt;Node23 -->
<g id="edge39" class="edge">
<title>Node22&#45;&gt;Node23</title>
<path fill="none" stroke="midnightblue" d="M352.96,-108.08C334.88,-102.87 314.18,-96.91 297.3,-92.05"/>
<polygon fill="midnightblue" stroke="midnightblue" points="352.11,-111.48 362.69,-110.88 354.05,-104.75 352.11,-111.48"/>
</g>
<!-- Node23&#45;&gt;Node7 -->
<g id="edge40" class="edge">
<title>Node23&#45;&gt;Node7</title>
<path fill="none" stroke="midnightblue" d="M310.2,-83.24C385.17,-84.5 531.13,-86.95 592.85,-87.99"/>
<polygon fill="midnightblue" stroke="midnightblue" points="310.17,-79.74 300.11,-83.07 310.05,-86.74 310.17,-79.74"/>
</g>
<!-- Node24&#45;&gt;Node3 -->
<g id="edge43" class="edge">
<title>Node24&#45;&gt;Node3</title>
<path fill="none" stroke="midnightblue" d="M219.38,-447.51C217.82,-446.27 216.34,-444.92 215,-443.47 178.93,-404.46 215.84,-367.75 179,-329.47 175.27,-325.59 170.7,-322.51 165.82,-320.05"/>
<polygon fill="midnightblue" stroke="midnightblue" points="217.53,-450.48 227.84,-452.93 221.31,-444.59 217.53,-450.48"/>
</g>
<!-- Node25&#45;&gt;Node3 -->
<g id="edge45" class="edge">
<title>Node25&#45;&gt;Node3</title>
<path fill="none" stroke="midnightblue" d="M839.79,-267.21C827.03,-338.23 773.08,-576.47 623.5,-576.47 623.5,-576.47 623.5,-576.47 519,-576.47 377.45,-576.47 311.51,-585.02 215,-481.47 167.67,-430.68 225.27,-381.22 179,-329.47 175.55,-325.61 171.25,-322.53 166.61,-320.08"/>
<polygon fill="midnightblue" stroke="midnightblue" points="843.25,-267.76 841.5,-257.31 836.35,-266.58 843.25,-267.76"/>
</g>
</g>
</svg>
