<?xml version="1.0" encoding="UTF-8" standalone="no"?>
<!DOCTYPE svg PUBLIC "-//W3C//DTD SVG 1.1//EN"
 "http://www.w3.org/Graphics/SVG/1.1/DTD/svg11.dtd">
<!-- Generated by graphviz version 2.49.3 (20211027.1534)
 -->
<!-- Title: WriteToLogFile Pages: 1 -->
<svg width="1108pt" height="329pt"
 viewBox="0.00 0.00 1108.00 328.77" xmlns="http://www.w3.org/2000/svg" xmlns:xlink="http://www.w3.org/1999/xlink">
<g id="graph0" class="graph" transform="scale(1 1) rotate(0) translate(4 324.77)">
<title>WriteToLogFile</title>
<polygon fill="white" stroke="transparent" points="-4,4 -4,-324.77 1104,-324.77 1104,4 -4,4"/>
<!-- Node1 -->
<g id="node1" class="node">
<title>Node1</title>
<g id="a_node1"><a xlink:title=" ">
<polygon fill="#bfbfbf" stroke="black" points="1017,-162.36 1017,-181.36 1100,-181.36 1100,-162.36 1017,-162.36"/>
<text text-anchor="middle" x="1058.5" y="-169.36" font-family="Helvetica,sans-Serif" font-size="10.00">WriteToLogFile</text>
</a>
</g>
</g>
<!-- Node2 -->
<g id="node2" class="node">
<title>Node2</title>
<g id="a_node2"><a xlink:href="_transmitter_code_2src_2main_8cpp.html#a245cf37e2504095132bfcf03f2eeaa93" target="_top" xlink:title=" ">
<polygon fill="white" stroke="black" points="891,-181.36 891,-200.36 981,-200.36 981,-181.36 891,-181.36"/>
<text text-anchor="middle" x="936" y="-188.36" font-family="Helvetica,sans-Serif" font-size="10.00">LogFilePreamble</text>
</a>
</g>
</g>
<!-- Node1&#45;&gt;Node2 -->
<g id="edge1" class="edge">
<title>Node1&#45;&gt;Node2</title>
<path fill="none" stroke="midnightblue" d="M1006.82,-179.85C998.26,-181.2 989.43,-182.59 981.06,-183.91"/>
<polygon fill="midnightblue" stroke="midnightblue" points="1007.37,-183.3 1016.7,-178.29 1006.28,-176.39 1007.37,-183.3"/>
</g>
<!-- Node3 -->
<g id="node3" class="node">
<title>Node3</title>
<g id="a_node3"><a xlink:href="_transmitter_code_2src_2main_8cpp.html#acac3c6cebc71150f10a4ba2f6d047e69" target="_top" xlink:title=" ">
<polygon fill="white" stroke="black" points="754,-257.36 754,-276.36 855,-276.36 855,-257.36 754,-257.36"/>
<text text-anchor="middle" x="804.5" y="-264.36" font-family="Helvetica,sans-Serif" font-size="10.00">LogNewFlightMode</text>
</a>
</g>
</g>
<!-- Node1&#45;&gt;Node3 -->
<g id="edge34" class="edge">
<title>Node1&#45;&gt;Node3</title>
<path fill="none" stroke="midnightblue" d="M1039.86,-188.88C1025.24,-202.04 1003.31,-219.67 981,-229.86 940.92,-248.15 891.53,-257.53 855.36,-262.25"/>
<polygon fill="midnightblue" stroke="midnightblue" points="1042.61,-191.1 1047.57,-181.74 1037.86,-185.96 1042.61,-191.1"/>
</g>
<!-- Node8 -->
<g id="node8" class="node">
<title>Node8</title>
<g id="a_node8"><a xlink:href="_transmitter_code_2src_2main_8cpp.html#a3082155bd493af8377f0384347bdc55b" target="_top" xlink:title=" ">
<polygon fill="white" stroke="black" points="778.5,-210.36 778.5,-229.36 830.5,-229.36 830.5,-210.36 778.5,-210.36"/>
<text text-anchor="middle" x="804.5" y="-217.36" font-family="Helvetica,sans-Serif" font-size="10.00">LogText</text>
</a>
</g>
</g>
<!-- Node1&#45;&gt;Node8 -->
<g id="edge35" class="edge">
<title>Node1&#45;&gt;Node8</title>
<path fill="none" stroke="midnightblue" d="M1033.83,-186.74C1019.2,-195.13 999.7,-204.9 981,-209.86 928.93,-223.65 865.24,-223.18 830.7,-221.55"/>
<polygon fill="midnightblue" stroke="midnightblue" points="1035.87,-189.6 1042.69,-181.49 1032.3,-183.58 1035.87,-189.6"/>
</g>
<!-- Node19 -->
<g id="node19" class="node">
<title>Node19</title>
<g id="a_node19"><a xlink:href="_transmitter_code_2src_2main_8cpp.html#af9d8a17fec28e4ae948cc53c29406f78" target="_top" xlink:title=" ">
<polygon fill="white" stroke="black" points="769.5,-162.36 769.5,-181.36 839.5,-181.36 839.5,-162.36 769.5,-162.36"/>
<text text-anchor="middle" x="804.5" y="-169.36" font-family="Helvetica,sans-Serif" font-size="10.00">LogThisGap</text>
</a>
</g>
</g>
<!-- Node1&#45;&gt;Node19 -->
<g id="edge36" class="edge">
<title>Node1&#45;&gt;Node19</title>
<path fill="none" stroke="midnightblue" d="M1006.52,-171.86C956.86,-171.86 882.72,-171.86 839.73,-171.86"/>
<polygon fill="midnightblue" stroke="midnightblue" points="1006.73,-175.36 1016.73,-171.86 1006.73,-168.36 1006.73,-175.36"/>
</g>
<!-- Node21 -->
<g id="node21" class="node">
<title>Node21</title>
<g id="a_node21"><a xlink:href="_transmitter_code_2src_2main_8cpp.html#a436844f605001cad62b48d890e11fe2c" target="_top" xlink:title=" ">
<polygon fill="white" stroke="black" points="772,-124.36 772,-143.36 837,-143.36 837,-124.36 772,-124.36"/>
<text text-anchor="middle" x="804.5" y="-131.36" font-family="Helvetica,sans-Serif" font-size="10.00">LogThisRX</text>
</a>
</g>
</g>
<!-- Node1&#45;&gt;Node21 -->
<g id="edge37" class="edge">
<title>Node1&#45;&gt;Node21</title>
<path fill="none" stroke="midnightblue" d="M1006.63,-164.19C955.91,-156.54 879.59,-145.03 837.04,-138.61"/>
<polygon fill="midnightblue" stroke="midnightblue" points="1006.32,-167.68 1016.73,-165.71 1007.37,-160.76 1006.32,-167.68"/>
</g>
<!-- Node24 -->
<g id="node24" class="node">
<title>Node24</title>
<g id="a_node24"><a xlink:href="_transmitter_code_2src_2main_8cpp.html#a514afc8dd077db77334696ca719a99b7" target="_top" xlink:title=" ">
<polygon fill="white" stroke="black" points="901,-39.36 901,-58.36 971,-58.36 971,-39.36 901,-39.36"/>
<text text-anchor="middle" x="936" y="-46.36" font-family="Helvetica,sans-Serif" font-size="10.00">StartLogFile</text>
</a>
</g>
</g>
<!-- Node1&#45;&gt;Node24 -->
<g id="edge38" class="edge">
<title>Node1&#45;&gt;Node24</title>
<path fill="none" stroke="midnightblue" d="M1040.87,-154.88C1015.2,-128.68 966.79,-79.26 946.41,-58.46"/>
<polygon fill="midnightblue" stroke="midnightblue" points="1038.55,-157.51 1048.04,-162.2 1043.55,-152.61 1038.55,-157.51"/>
</g>
<!-- Node2&#45;&gt;Node3 -->
<g id="edge2" class="edge">
<title>Node2&#45;&gt;Node3</title>
<path fill="none" stroke="midnightblue" d="M910.79,-205.6C894.98,-215.18 873.83,-227.88 855,-238.86 844.42,-245.02 832.48,-251.78 822.97,-257.12"/>
<polygon fill="midnightblue" stroke="midnightblue" points="912.7,-208.54 919.43,-200.36 909.07,-202.55 912.7,-208.54"/>
</g>
<!-- Node2&#45;&gt;Node8 -->
<g id="edge7" class="edge">
<title>Node2&#45;&gt;Node8</title>
<path fill="none" stroke="midnightblue" d="M882.01,-202.72C864.32,-206.68 845.42,-210.92 830.84,-214.18"/>
<polygon fill="midnightblue" stroke="midnightblue" points="883.24,-206.03 892.24,-200.43 881.71,-199.2 883.24,-206.03"/>
</g>
<!-- Node2&#45;&gt;Node19 -->
<g id="edge27" class="edge">
<title>Node2&#45;&gt;Node19</title>
<path fill="none" stroke="midnightblue" d="M880.81,-182.91C866.89,-180.86 852.29,-178.72 839.7,-176.87"/>
<polygon fill="midnightblue" stroke="midnightblue" points="880.39,-186.38 890.8,-184.37 881.41,-179.46 880.39,-186.38"/>
</g>
<!-- Node2&#45;&gt;Node21 -->
<g id="edge30" class="edge">
<title>Node2&#45;&gt;Node21</title>
<path fill="none" stroke="midnightblue" d="M906.45,-176.64C891.29,-169.26 872.27,-160.26 855,-152.86 847.47,-149.63 839.19,-146.35 831.6,-143.44"/>
<polygon fill="midnightblue" stroke="midnightblue" points="905.27,-179.96 915.79,-181.22 908.35,-173.67 905.27,-179.96"/>
</g>
<!-- Node4 -->
<g id="node4" class="node">
<title>Node4</title>
<g id="a_node4"><a xlink:href="_transmitter_code_2src_2main_8cpp.html#adf35f0ced7990f813a783d0ecd33bf64" target="_top" xlink:title=" ">
<polygon fill="white" stroke="black" points="621.5,-276.36 621.5,-295.36 701.5,-295.36 701.5,-276.36 621.5,-276.36"/>
<text text-anchor="middle" x="661.5" y="-283.36" font-family="Helvetica,sans-Serif" font-size="10.00">GetFlightMode</text>
</a>
</g>
</g>
<!-- Node3&#45;&gt;Node4 -->
<g id="edge3" class="edge">
<title>Node3&#45;&gt;Node4</title>
<path fill="none" stroke="midnightblue" d="M743.58,-274.93C729.38,-276.84 714.58,-278.84 701.58,-280.59"/>
<polygon fill="midnightblue" stroke="midnightblue" points="744.35,-278.36 753.79,-273.55 743.41,-271.42 744.35,-278.36"/>
</g>
<!-- Node5 -->
<g id="node5" class="node">
<title>Node5</title>
<g id="a_node5"><a xlink:href="_transmitter_code_2src_2main_8cpp.html#ab0af36f3442ad4f2d0b716c14c7d6085" target="_top" xlink:title=" ">
<polygon fill="white" stroke="black" points="482,-229.36 482,-248.36 562,-248.36 562,-229.36 482,-229.36"/>
<text text-anchor="middle" x="522" y="-236.36" font-family="Helvetica,sans-Serif" font-size="10.00">ReadSwitches</text>
</a>
</g>
</g>
<!-- Node4&#45;&gt;Node5 -->
<g id="edge4" class="edge">
<title>Node4&#45;&gt;Node5</title>
<path fill="none" stroke="midnightblue" d="M623.05,-273.05C600.4,-265.31 572.01,-255.61 551.26,-248.51"/>
<polygon fill="midnightblue" stroke="midnightblue" points="622.08,-276.42 632.67,-276.34 624.34,-269.8 622.08,-276.42"/>
</g>
<!-- Node6 -->
<g id="node6" class="node">
<title>Node6</title>
<g id="a_node6"><a xlink:href="_radio_functions_8cpp.html#a3d7322e78f097d02d476f17a6306997c" target="_top" xlink:title=" ">
<polygon fill="white" stroke="black" points="225,-191.36 225,-210.36 284,-210.36 284,-191.36 225,-191.36"/>
<text text-anchor="middle" x="254.5" y="-198.36" font-family="Helvetica,sans-Serif" font-size="10.00">SendData</text>
</a>
</g>
</g>
<!-- Node5&#45;&gt;Node6 -->
<g id="edge5" class="edge">
<title>Node5&#45;&gt;Node6</title>
<path fill="none" stroke="midnightblue" d="M471.58,-231.78C416.44,-223.89 329.09,-211.39 284.2,-204.96"/>
<polygon fill="midnightblue" stroke="midnightblue" points="471.43,-235.3 481.82,-233.25 472.42,-228.37 471.43,-235.3"/>
</g>
<!-- Node7 -->
<g id="node7" class="node">
<title>Node7</title>
<g id="a_node7"><a xlink:href="_transmitter_code_2src_2main_8cpp.html#afe461d27b9c48d5921c00d521181f12f" target="_top" xlink:title=" ">
<polygon fill="white" stroke="black" points="0,-191.36 0,-210.36 35,-210.36 35,-191.36 0,-191.36"/>
<text text-anchor="middle" x="17.5" y="-198.36" font-family="Helvetica,sans-Serif" font-size="10.00">loop</text>
</a>
</g>
</g>
<!-- Node6&#45;&gt;Node7 -->
<g id="edge6" class="edge">
<title>Node6&#45;&gt;Node7</title>
<path fill="none" stroke="midnightblue" d="M214.49,-200.86C162.39,-200.86 72.37,-200.86 35.25,-200.86"/>
<polygon fill="midnightblue" stroke="midnightblue" points="214.68,-204.36 224.68,-200.86 214.68,-197.36 214.68,-204.36"/>
</g>
<!-- Node9 -->
<g id="node9" class="node">
<title>Node9</title>
<g id="a_node9"><a xlink:href="_transmitter_code_2src_2main_8cpp.html#a896d9c3f90c2a4c083748097a98bc96b" target="_top" xlink:title=" ">
<polygon fill="white" stroke="black" points="620.5,-238.36 620.5,-257.36 702.5,-257.36 702.5,-238.36 620.5,-238.36"/>
<text text-anchor="middle" x="661.5" y="-245.36" font-family="Helvetica,sans-Serif" font-size="10.00">LogConnection</text>
</a>
</g>
</g>
<!-- Node8&#45;&gt;Node9 -->
<g id="edge8" class="edge">
<title>Node8&#45;&gt;Node9</title>
<path fill="none" stroke="midnightblue" d="M768.38,-226.83C748.44,-230.79 723.41,-235.76 702.69,-239.88"/>
<polygon fill="midnightblue" stroke="midnightblue" points="769.17,-230.24 778.29,-224.86 767.8,-223.38 769.17,-230.24"/>
</g>
<!-- Node12 -->
<g id="node12" class="node">
<title>Node12</title>
<g id="a_node12"><a xlink:href="_transmitter_code_2src_2main_8cpp.html#a01c8a29ed73a0c490282e23e119eca14" target="_top" xlink:title=" ">
<polygon fill="white" stroke="black" points="613.5,-200.36 613.5,-219.36 709.5,-219.36 709.5,-200.36 613.5,-200.36"/>
<text text-anchor="middle" x="661.5" y="-207.36" font-family="Helvetica,sans-Serif" font-size="10.00">LogDisConnection</text>
</a>
</g>
</g>
<!-- Node8&#45;&gt;Node12 -->
<g id="edge15" class="edge">
<title>Node8&#45;&gt;Node12</title>
<path fill="none" stroke="midnightblue" d="M767.87,-217.33C750.24,-216.08 728.71,-214.55 709.72,-213.2"/>
<polygon fill="midnightblue" stroke="midnightblue" points="768.07,-220.85 778.29,-218.07 768.56,-213.87 768.07,-220.85"/>
</g>
<!-- Node10 -->
<g id="node10" class="node">
<title>Node10</title>
<g id="a_node10"><a xlink:href="_transmitter_code_2src_2main_8cpp.html#a62e53eb9359c32b666e3386d62c57037" target="_top" xlink:title=" ">
<polygon fill="white" stroke="black" points="486,-267.36 486,-286.36 558,-286.36 558,-267.36 486,-267.36"/>
<text text-anchor="middle" x="522" y="-274.36" font-family="Helvetica,sans-Serif" font-size="10.00">GreenLedOn</text>
</a>
</g>
</g>
<!-- Node9&#45;&gt;Node10 -->
<g id="edge9" class="edge">
<title>Node9&#45;&gt;Node10</title>
<path fill="none" stroke="midnightblue" d="M610.41,-258.42C593.13,-262.07 574.13,-266.07 558.28,-269.41"/>
<polygon fill="midnightblue" stroke="midnightblue" points="611.3,-261.81 620.36,-256.32 609.85,-254.96 611.3,-261.81"/>
</g>
<!-- Node10&#45;&gt;Node6 -->
<g id="edge11" class="edge">
<title>Node10&#45;&gt;Node6</title>
<path fill="none" stroke="midnightblue" d="M475.88,-267.83C439.2,-260.08 386.29,-247.94 341,-233.86 319.12,-227.05 294.8,-217.46 277.71,-210.37"/>
<polygon fill="midnightblue" stroke="midnightblue" points="475.28,-271.28 485.78,-269.9 476.71,-264.43 475.28,-271.28"/>
</g>
<!-- Node10&#45;&gt;Node7 -->
<g id="edge10" class="edge">
<title>Node10&#45;&gt;Node7</title>
<path fill="none" stroke="midnightblue" d="M496.63,-291.57C480.82,-300.23 459.43,-310.35 439,-314.86 396.47,-324.23 384.17,-320.66 341,-314.86 217.69,-298.26 182.53,-296.02 71,-240.86 54.77,-232.83 38.58,-219.47 28.56,-210.42"/>
<polygon fill="midnightblue" stroke="midnightblue" points="498.73,-294.4 505.7,-286.42 495.27,-288.32 498.73,-294.4"/>
</g>
<!-- Node11 -->
<g id="node11" class="node">
<title>Node11</title>
<g id="a_node11"><a xlink:href="_transmitter_code_2src_2main_8cpp.html#a5d3a46c21927cf7a3031a1e68e0b7b48" target="_top" xlink:title="SHOW COMMS.">
<polygon fill="white" stroke="black" points="352.5,-286.36 352.5,-305.36 427.5,-305.36 427.5,-286.36 352.5,-286.36"/>
<text text-anchor="middle" x="390" y="-293.36" font-family="Helvetica,sans-Serif" font-size="10.00">ShowComms</text>
</a>
</g>
</g>
<!-- Node10&#45;&gt;Node11 -->
<g id="edge12" class="edge">
<title>Node10&#45;&gt;Node11</title>
<path fill="none" stroke="midnightblue" d="M475.76,-283.47C460,-285.77 442.53,-288.32 427.57,-290.51"/>
<polygon fill="midnightblue" stroke="midnightblue" points="476.43,-286.91 485.82,-282 475.42,-279.98 476.43,-286.91"/>
</g>
<!-- Node11&#45;&gt;Node6 -->
<g id="edge14" class="edge">
<title>Node11&#45;&gt;Node6</title>
<path fill="none" stroke="midnightblue" d="M358.34,-281.85C352.45,-278.79 346.43,-275.4 341,-271.86 311.59,-252.66 280.79,-224.87 265.43,-210.41"/>
<polygon fill="midnightblue" stroke="midnightblue" points="356.88,-285.03 367.39,-286.35 360,-278.76 356.88,-285.03"/>
</g>
<!-- Node11&#45;&gt;Node7 -->
<g id="edge13" class="edge">
<title>Node11&#45;&gt;Node7</title>
<path fill="none" stroke="midnightblue" d="M342.37,-284.15C280.36,-268.55 167.35,-239.97 71,-214.86 58.95,-211.71 45.37,-208.09 35.04,-205.32"/>
<polygon fill="midnightblue" stroke="midnightblue" points="341.69,-287.59 352.24,-286.63 343.4,-280.8 341.69,-287.59"/>
</g>
<!-- Node13 -->
<g id="node13" class="node">
<title>Node13</title>
<g id="a_node13"><a xlink:href="_transmitter_code_2src_2main_8cpp.html#a7d34cec6e8edc20c8b50424e15dcc7c7" target="_top" xlink:title=" ">
<polygon fill="white" stroke="black" points="490.5,-77.36 490.5,-96.36 553.5,-96.36 553.5,-77.36 490.5,-77.36"/>
<text text-anchor="middle" x="522" y="-84.36" font-family="Helvetica,sans-Serif" font-size="10.00">RedLedOn</text>
</a>
</g>
</g>
<!-- Node12&#45;&gt;Node13 -->
<g id="edge16" class="edge">
<title>Node12&#45;&gt;Node13</title>
<path fill="none" stroke="midnightblue" d="M643.73,-192.75C632.68,-181.46 617.93,-166.32 605,-152.86 588.88,-136.08 587.1,-129.48 569,-114.86 560.42,-107.92 549.98,-101.43 541.21,-96.45"/>
<polygon fill="midnightblue" stroke="midnightblue" points="641.54,-195.52 651.03,-200.21 646.54,-190.62 641.54,-195.52"/>
</g>
<!-- Node14 -->
<g id="node14" class="node">
<title>Node14</title>
<g id="a_node14"><a xlink:href="_transmitter_code_2src_2main_8cpp.html#a783a0141bea15d8539730afd4b3b06a3" target="_top" xlink:title=" ">
<polygon fill="white" stroke="black" points="353,-96.36 353,-115.36 427,-115.36 427,-96.36 353,-96.36"/>
<text text-anchor="middle" x="390" y="-103.36" font-family="Helvetica,sans-Serif" font-size="10.00">FailedPacket</text>
</a>
</g>
</g>
<!-- Node13&#45;&gt;Node14 -->
<g id="edge17" class="edge">
<title>Node13&#45;&gt;Node14</title>
<path fill="none" stroke="midnightblue" d="M480.01,-92.85C463.04,-95.33 443.54,-98.18 427.12,-100.58"/>
<polygon fill="midnightblue" stroke="midnightblue" points="480.8,-96.27 490.19,-91.36 479.79,-89.34 480.8,-96.27"/>
</g>
<!-- Node15 -->
<g id="node15" class="node">
<title>Node15</title>
<g id="a_node15"><a xlink:href="_transmitter_code_2src_2main_8cpp.html#ab7c9edf843c732d7fe296564f39bc0dc" target="_top" xlink:title="RECEIVE A MODEL FILE.">
<polygon fill="white" stroke="black" points="343,-58.36 343,-77.36 437,-77.36 437,-58.36 343,-58.36"/>
<text text-anchor="middle" x="390" y="-65.36" font-family="Helvetica,sans-Serif" font-size="10.00">ReceiveModelFile</text>
</a>
</g>
</g>
<!-- Node13&#45;&gt;Node15 -->
<g id="edge19" class="edge">
<title>Node13&#45;&gt;Node15</title>
<path fill="none" stroke="midnightblue" d="M480.12,-80.88C466.46,-78.88 451.14,-76.65 437.11,-74.6"/>
<polygon fill="midnightblue" stroke="midnightblue" points="479.79,-84.37 490.19,-82.35 480.8,-77.44 479.79,-84.37"/>
</g>
<!-- Node18 -->
<g id="node18" class="node">
<title>Node18</title>
<g id="a_node18"><a xlink:href="_transmitter_code_2src_2main_8cpp.html#a58c67a975068930341f0663e0a08c9d3" target="_top" xlink:title="SEND A MODEL FILE.">
<polygon fill="white" stroke="black" points="349.5,-20.36 349.5,-39.36 430.5,-39.36 430.5,-20.36 349.5,-20.36"/>
<text text-anchor="middle" x="390" y="-27.36" font-family="Helvetica,sans-Serif" font-size="10.00">SendModelFile</text>
</a>
</g>
</g>
<!-- Node13&#45;&gt;Node18 -->
<g id="edge25" class="edge">
<title>Node13&#45;&gt;Node18</title>
<path fill="none" stroke="midnightblue" d="M492.11,-72.98C476.48,-65.6 456.79,-56.49 439,-48.86 431.59,-45.67 423.45,-42.38 416.02,-39.45"/>
<polygon fill="midnightblue" stroke="midnightblue" points="490.72,-76.19 501.26,-77.32 493.73,-69.87 490.72,-76.19"/>
</g>
<!-- Node14&#45;&gt;Node6 -->
<g id="edge18" class="edge">
<title>Node14&#45;&gt;Node6</title>
<path fill="none" stroke="midnightblue" d="M358.34,-119.87C352.45,-122.92 346.43,-126.31 341,-129.86 311.59,-149.05 280.79,-176.84 265.43,-191.3"/>
<polygon fill="midnightblue" stroke="midnightblue" points="360,-122.95 367.39,-115.36 356.88,-116.68 360,-122.95"/>
</g>
<!-- Node16 -->
<g id="node16" class="node">
<title>Node16</title>
<g id="a_node16"><a xlink:href="_transmitter_code_2src_2main_8cpp.html#a8e7ccbf842764fd85cc578be263f7202" target="_top" xlink:title=" ">
<polygon fill="white" stroke="black" points="204,-58.36 204,-77.36 305,-77.36 305,-58.36 204,-58.36"/>
<text text-anchor="middle" x="254.5" y="-65.36" font-family="Helvetica,sans-Serif" font-size="10.00">ButtonWasPressed</text>
</a>
</g>
</g>
<!-- Node15&#45;&gt;Node16 -->
<g id="edge20" class="edge">
<title>Node15&#45;&gt;Node16</title>
<path fill="none" stroke="midnightblue" d="M332.61,-61.18C323.57,-61.05 314.26,-61.09 305.38,-61.3"/>
<polygon fill="midnightblue" stroke="midnightblue" points="332.61,-64.68 342.68,-61.4 332.76,-57.68 332.61,-64.68"/>
</g>
<!-- Node16&#45;&gt;Node7 -->
<g id="edge23" class="edge">
<title>Node16&#45;&gt;Node7</title>
<path fill="none" stroke="midnightblue" d="M197.5,-79.92C159.29,-90.1 108.93,-107.47 71,-134.86 49.63,-150.28 32.36,-176.65 23.98,-190.94"/>
<polygon fill="midnightblue" stroke="midnightblue" points="198.62,-83.25 207.43,-77.37 196.88,-76.47 198.62,-83.25"/>
</g>
<!-- Node16&#45;&gt;Node15 -->
<g id="edge24" class="edge">
<title>Node16&#45;&gt;Node15</title>
<path fill="none" stroke="midnightblue" d="M315.55,-74.58C324.65,-74.66 333.93,-74.57 342.68,-74.32"/>
<polygon fill="midnightblue" stroke="midnightblue" points="315.43,-71.07 305.38,-74.41 315.32,-78.07 315.43,-71.07"/>
</g>
<!-- Node17 -->
<g id="node17" class="node">
<title>Node17</title>
<g id="a_node17"><a xlink:href="_transmitter_code_2src_2main_8cpp.html#a984cb52354a84c45e9e41f396a1c5e92" target="_top" xlink:title=" ">
<polygon fill="white" stroke="black" points="71,-144.36 71,-163.36 168,-163.36 168,-144.36 71,-144.36"/>
<text text-anchor="middle" x="119.5" y="-151.36" font-family="Helvetica,sans-Serif" font-size="10.00">CheckModelName</text>
</a>
</g>
</g>
<!-- Node16&#45;&gt;Node17 -->
<g id="edge21" class="edge">
<title>Node16&#45;&gt;Node17</title>
<path fill="none" stroke="midnightblue" d="M230.2,-82.92C202.85,-100.61 158.32,-129.4 135.31,-144.28"/>
<polygon fill="midnightblue" stroke="midnightblue" points="232.26,-85.76 238.76,-77.39 228.46,-79.88 232.26,-85.76"/>
</g>
<!-- Node17&#45;&gt;Node7 -->
<g id="edge22" class="edge">
<title>Node17&#45;&gt;Node7</title>
<path fill="none" stroke="midnightblue" d="M88.98,-167.73C71.38,-176 49.7,-186.19 35.07,-193.07"/>
<polygon fill="midnightblue" stroke="midnightblue" points="90.7,-170.79 98.26,-163.37 87.72,-164.45 90.7,-170.79"/>
</g>
<!-- Node18&#45;&gt;Node16 -->
<g id="edge26" class="edge">
<title>Node18&#45;&gt;Node16</title>
<path fill="none" stroke="midnightblue" d="M345.47,-42.25C327.19,-47.45 306.25,-53.41 289.18,-58.27"/>
<polygon fill="midnightblue" stroke="midnightblue" points="346.65,-45.55 355.31,-39.44 344.74,-38.82 346.65,-45.55"/>
</g>
<!-- Node20 -->
<g id="node20" class="node">
<title>Node20</title>
<g id="a_node20"><a xlink:href="_transmitter_code_2src_2main_8cpp.html#aa60c9cac090f6965b4223d5caf84e2f1" target="_top" xlink:title=" ">
<polygon fill="white" stroke="black" points="341,-172.36 341,-191.36 439,-191.36 439,-172.36 341,-172.36"/>
<text text-anchor="middle" x="390" y="-179.36" font-family="Helvetica,sans-Serif" font-size="10.00">CheckGapsLength</text>
</a>
</g>
</g>
<!-- Node19&#45;&gt;Node20 -->
<g id="edge28" class="edge">
<title>Node19&#45;&gt;Node20</title>
<path fill="none" stroke="midnightblue" d="M758.94,-172.94C680.81,-174.83 519.8,-178.73 439.19,-180.69"/>
<polygon fill="midnightblue" stroke="midnightblue" points="759.48,-176.42 769.39,-172.68 759.31,-169.43 759.48,-176.42"/>
</g>
<!-- Node20&#45;&gt;Node6 -->
<g id="edge29" class="edge">
<title>Node20&#45;&gt;Node6</title>
<path fill="none" stroke="midnightblue" d="M330.86,-190.13C314.7,-192.43 297.86,-194.83 284.2,-196.77"/>
<polygon fill="midnightblue" stroke="midnightblue" points="331.4,-193.59 340.8,-188.72 330.41,-186.66 331.4,-193.59"/>
</g>
<!-- Node22 -->
<g id="node22" class="node">
<title>Node22</title>
<g id="a_node22"><a xlink:href="_transmitter_code_2src_2main_8cpp.html#a4f813935d8fe58355228cbbf25e12f96" target="_top" xlink:title=" ">
<polygon fill="white" stroke="black" points="605,-124.36 605,-143.36 718,-143.36 718,-124.36 605,-124.36"/>
<text text-anchor="middle" x="661.5" y="-131.36" font-family="Helvetica,sans-Serif" font-size="10.00">GetRXVersionNumber</text>
</a>
</g>
</g>
<!-- Node21&#45;&gt;Node22 -->
<g id="edge31" class="edge">
<title>Node21&#45;&gt;Node22</title>
<path fill="none" stroke="midnightblue" d="M761.78,-133.86C748.1,-133.86 732.68,-133.86 718.14,-133.86"/>
<polygon fill="midnightblue" stroke="midnightblue" points="761.86,-137.36 771.86,-133.86 761.86,-130.36 761.86,-137.36"/>
</g>
<!-- Node23 -->
<g id="node23" class="node">
<title>Node23</title>
<g id="a_node23"><a xlink:href="_transmitter_code_2src_2main_8cpp.html#a230e862a4da0f66746b6b3afba6bd77a" target="_top" xlink:title=" ">
<polygon fill="white" stroke="black" points="475,-124.36 475,-143.36 569,-143.36 569,-124.36 475,-124.36"/>
<text text-anchor="middle" x="522" y="-131.36" font-family="Helvetica,sans-Serif" font-size="10.00">ParseAckPayload</text>
</a>
</g>
</g>
<!-- Node22&#45;&gt;Node23 -->
<g id="edge32" class="edge">
<title>Node22&#45;&gt;Node23</title>
<path fill="none" stroke="midnightblue" d="M594.81,-133.86C586.1,-133.86 577.33,-133.86 569.05,-133.86"/>
<polygon fill="midnightblue" stroke="midnightblue" points="594.97,-137.36 604.97,-133.86 594.97,-130.36 594.97,-137.36"/>
</g>
<!-- Node23&#45;&gt;Node6 -->
<g id="edge33" class="edge">
<title>Node23&#45;&gt;Node6</title>
<path fill="none" stroke="midnightblue" d="M464.49,-139.17C428.6,-143.46 381.46,-150.83 341,-162.86 316.71,-170.08 290.27,-182.61 273.33,-191.3"/>
<polygon fill="midnightblue" stroke="midnightblue" points="465.24,-142.6 474.77,-137.98 464.44,-135.65 465.24,-142.6"/>
</g>
<!-- Node25 -->
<g id="node25" class="node">
<title>Node25</title>
<g id="a_node25"><a xlink:href="_transmitter_code_2src_2main_8cpp.html#adb5aacd8adab39f57e32a80cf537a989" target="_top" xlink:title=" ">
<polygon fill="white" stroke="black" points="481,-1.36 481,-20.36 563,-20.36 563,-1.36 481,-1.36"/>
<text text-anchor="middle" x="522" y="-8.36" font-family="Helvetica,sans-Serif" font-size="10.00">DeleteLogFile1</text>
</a>
</g>
</g>
<!-- Node24&#45;&gt;Node25 -->
<g id="edge39" class="edge">
<title>Node24&#45;&gt;Node25</title>
<path fill="none" stroke="midnightblue" d="M890.62,-44.76C809.96,-37.32 640.5,-21.69 563.1,-14.55"/>
<polygon fill="midnightblue" stroke="midnightblue" points="890.65,-48.28 900.93,-45.71 891.3,-41.31 890.65,-48.28"/>
</g>
<!-- Node26 -->
<g id="node26" class="node">
<title>Node26</title>
<g id="a_node26"><a xlink:href="_transmitter_code_2src_2main_8cpp.html#a4fc01d736fe50cf5b977f755b675f11d" target="_top" xlink:title=" ">
<polygon fill="white" stroke="black" points="784,-1.36 784,-20.36 825,-20.36 825,-1.36 784,-1.36"/>
<text text-anchor="middle" x="804.5" y="-8.36" font-family="Helvetica,sans-Serif" font-size="10.00">setup</text>
</a>
</g>
</g>
<!-- Node24&#45;&gt;Node26 -->
<g id="edge41" class="edge">
<title>Node24&#45;&gt;Node26</title>
<path fill="none" stroke="midnightblue" d="M892.57,-36.41C869.91,-29.76 843.08,-21.88 825.26,-16.65"/>
<polygon fill="midnightblue" stroke="midnightblue" points="891.74,-39.81 902.32,-39.27 893.71,-33.09 891.74,-39.81"/>
</g>
<!-- Node25&#45;&gt;Node16 -->
<g id="edge40" class="edge">
<title>Node25&#45;&gt;Node16</title>
<path fill="none" stroke="midnightblue" d="M470.72,-3.18C433.98,0.6 383.38,1.97 341,-10.86 310.27,-20.16 280.48,-44.56 265.51,-58.23"/>
<polygon fill="midnightblue" stroke="midnightblue" points="470.37,-6.66 480.7,-4.3 471.16,0.29 470.37,-6.66"/>
</g>
</g>
</svg>
