<?xml version="1.0" encoding="UTF-8" standalone="no"?>
<!DOCTYPE svg PUBLIC "-//W3C//DTD SVG 1.1//EN"
 "http://www.w3.org/Graphics/SVG/1.1/DTD/svg11.dtd">
<!-- Generated by graphviz version 3.0.0 (20220413.0106)
 -->
<!-- Title: GetFlightMode Pages: 1 -->
<svg width="814pt" height="674pt"
 viewBox="0.00 0.00 814.00 674.00" xmlns="http://www.w3.org/2000/svg" xmlns:xlink="http://www.w3.org/1999/xlink">
<g id="graph0" class="graph" transform="scale(1 1) rotate(0) translate(4 670)">
<title>GetFlightMode</title>
<polygon fill="white" stroke="transparent" points="-4,4 -4,-670 810,-670 810,4 -4,4"/>
<!-- Node1 -->
<g id="node1" class="node">
<title>Node1</title>
<g id="a_node1"><a xlink:title=" ">
<polygon fill="#bfbfbf" stroke="black" points="0,-209.5 0,-228.5 80,-228.5 80,-209.5 0,-209.5"/>
<text text-anchor="middle" x="40" y="-216.5" font-family="Helvetica,sans-Serif" font-size="10.00">GetFlightMode</text>
</a>
</g>
</g>
<!-- Node2 -->
<g id="node2" class="node">
<title>Node2</title>
<g id="a_node2"><a xlink:href="_transmitter_code_2src_2main_8cpp.html#afcd616e96ae28694a7fa2197ad74c6fe" target="_top" xlink:title=" ">
<polygon fill="white" stroke="black" points="158,-532.5 158,-551.5 232,-551.5 232,-532.5 158,-532.5"/>
<text text-anchor="middle" x="195" y="-539.5" font-family="Helvetica,sans-Serif" font-size="10.00">CheckSwitch</text>
</a>
</g>
</g>
<!-- Node1&#45;&gt;Node2 -->
<g id="edge1" class="edge">
<title>Node1&#45;&gt;Node2</title>
<path fill="none" stroke="midnightblue" d="M44.24,-228.71C53.81,-257.08 83.39,-342.05 116,-409 136.68,-451.47 165.91,-498.58 182.08,-523.76"/>
<polygon fill="midnightblue" stroke="midnightblue" points="179.22,-525.78 187.59,-532.28 185.1,-521.98 179.22,-525.78"/>
</g>
<!-- Node4 -->
<g id="node4" class="node">
<title>Node4</title>
<g id="a_node4"><a xlink:href="_transmitter_code_2src_2main_8cpp.html#addfc131a271de92cb52d869fde35729e" target="_top" xlink:title=" ">
<polygon fill="white" stroke="black" points="338,-76.5 338,-95.5 407,-95.5 407,-76.5 338,-76.5"/>
<text text-anchor="middle" x="372.5" y="-83.5" font-family="Helvetica,sans-Serif" font-size="10.00">CheckTimer</text>
</a>
</g>
</g>
<!-- Node1&#45;&gt;Node4 -->
<g id="edge3" class="edge">
<title>Node1&#45;&gt;Node4</title>
<path fill="none" stroke="midnightblue" d="M47.61,-209.34C59.36,-192.96 85.51,-159.88 116,-143 183.84,-105.43 274.75,-92.62 327.84,-88.26"/>
<polygon fill="midnightblue" stroke="midnightblue" points="328.23,-91.74 337.93,-87.49 327.7,-84.76 328.23,-91.74"/>
</g>
<!-- Node9 -->
<g id="node9" class="node">
<title>Node9</title>
<g id="a_node9"><a xlink:href="_transmitter_code_2src_2main_8cpp.html#af941d3a33327b2cee79e058ba9cd65f6" target="_top" xlink:title=" ">
<polygon fill="white" stroke="black" points="158,-380.5 158,-399.5 232,-399.5 232,-380.5 158,-380.5"/>
<text text-anchor="middle" x="195" y="-387.5" font-family="Helvetica,sans-Serif" font-size="10.00">DisplayCurve</text>
</a>
</g>
</g>
<!-- Node1&#45;&gt;Node9 -->
<g id="edge10" class="edge">
<title>Node1&#45;&gt;Node9</title>
<path fill="none" stroke="midnightblue" d="M49.66,-228.68C74.6,-256.55 146.76,-337.2 178.6,-372.78"/>
<polygon fill="midnightblue" stroke="midnightblue" points="176.15,-375.3 185.43,-380.42 181.37,-370.64 176.15,-375.3"/>
</g>
<!-- Node18 -->
<g id="node18" class="node">
<title>Node18</title>
<g id="a_node18"><a xlink:href="_transmitter_code_2src_2main_8cpp.html#ae0f54c30ea92041b69cdccb888cb86b8" target="_top" xlink:title=" ">
<polygon fill="white" stroke="black" points="153.5,-209.5 153.5,-228.5 236.5,-228.5 236.5,-209.5 153.5,-209.5"/>
<text text-anchor="middle" x="195" y="-216.5" font-family="Helvetica,sans-Serif" font-size="10.00">ReadFMSwitch</text>
</a>
</g>
</g>
<!-- Node1&#45;&gt;Node18 -->
<g id="edge31" class="edge">
<title>Node1&#45;&gt;Node18</title>
<path fill="none" stroke="midnightblue" d="M80,-219C99.24,-219 122.68,-219 143.29,-219"/>
<polygon fill="midnightblue" stroke="midnightblue" points="143.46,-222.5 153.46,-219 143.46,-215.5 143.46,-222.5"/>
</g>
<!-- Node19 -->
<g id="node19" class="node">
<title>Node19</title>
<g id="a_node19"><a xlink:href="_transmitter_code_2src_2main_8cpp.html#a61f4d39b42cd6199d0ad2f97bb7f80e2" target="_top" xlink:title=" ">
<polygon fill="white" stroke="black" points="150.5,-48.5 150.5,-67.5 239.5,-67.5 239.5,-48.5 150.5,-48.5"/>
<text text-anchor="middle" x="195" y="-55.5" font-family="Helvetica,sans-Serif" font-size="10.00">ShowFlightMode</text>
</a>
</g>
</g>
<!-- Node1&#45;&gt;Node19 -->
<g id="edge32" class="edge">
<title>Node1&#45;&gt;Node19</title>
<path fill="none" stroke="midnightblue" d="M45.12,-209.3C54.74,-187.56 80.62,-134.24 116,-101 128.85,-88.93 145.73,-79.08 160.49,-71.87"/>
<polygon fill="midnightblue" stroke="midnightblue" points="162.25,-74.91 169.83,-67.51 159.29,-68.57 162.25,-74.91"/>
</g>
<!-- Node20 -->
<g id="node20" class="node">
<title>Node20</title>
<g id="a_node20"><a xlink:href="_transmitter_code_2src_2main_8cpp.html#afd8df260b5cc99e246c0e3c23cff81d1" target="_top" xlink:title=" ">
<polygon fill="white" stroke="black" points="326.5,-266.5 326.5,-285.5 418.5,-285.5 418.5,-266.5 326.5,-266.5"/>
<text text-anchor="middle" x="372.5" y="-273.5" font-family="Helvetica,sans-Serif" font-size="10.00">SoundFlightMode</text>
</a>
</g>
</g>
<!-- Node1&#45;&gt;Node20 -->
<g id="edge34" class="edge">
<title>Node1&#45;&gt;Node20</title>
<path fill="none" stroke="midnightblue" d="M75.56,-228.53C88.22,-231.81 102.7,-235.33 116,-238 184.64,-251.76 264.56,-262.87 316.49,-269.44"/>
<polygon fill="midnightblue" stroke="midnightblue" points="316.14,-272.93 326.49,-270.7 317.01,-265.98 316.14,-272.93"/>
</g>
<!-- Node22 -->
<g id="node22" class="node">
<title>Node22</title>
<g id="a_node22"><a xlink:href="_transmitter_code_2src_2main_8cpp.html#a9e1de754e1d2d483fb15957f70cf0488" target="_top" xlink:title=" ">
<polygon fill="white" stroke="black" points="116,-152.5 116,-171.5 274,-171.5 274,-152.5 116,-152.5"/>
<text text-anchor="middle" x="195" y="-159.5" font-family="Helvetica,sans-Serif" font-size="10.00">UpdateModelsNameEveryWhere</text>
</a>
</g>
</g>
<!-- Node1&#45;&gt;Node22 -->
<g id="edge39" class="edge">
<title>Node1&#45;&gt;Node22</title>
<path fill="none" stroke="midnightblue" d="M66.61,-209.46C91.87,-200.05 130.69,-185.59 158.84,-175.1"/>
<polygon fill="midnightblue" stroke="midnightblue" points="160.16,-178.34 168.31,-171.57 157.71,-171.78 160.16,-178.34"/>
</g>
<!-- Node3 -->
<g id="node3" class="node">
<title>Node3</title>
<g id="a_node3"><a xlink:href="_transmitter_code_2src_2main_8cpp.html#aeed3be7dfc45cde2e9e9d3578c104760" target="_top" xlink:title=" ">
<polygon fill="white" stroke="black" points="331,-646.5 331,-665.5 414,-665.5 414,-646.5 331,-646.5"/>
<text text-anchor="middle" x="372.5" y="-653.5" font-family="Helvetica,sans-Serif" font-size="10.00">ReadCHSwitch</text>
</a>
</g>
</g>
<!-- Node2&#45;&gt;Node3 -->
<g id="edge2" class="edge">
<title>Node2&#45;&gt;Node3</title>
<path fill="none" stroke="midnightblue" d="M204.81,-551.53C222.81,-570.46 265.84,-613.04 310,-637 313.97,-639.16 318.23,-641.11 322.58,-642.86"/>
<polygon fill="midnightblue" stroke="midnightblue" points="321.58,-646.22 332.17,-646.39 323.99,-639.65 321.58,-646.22"/>
</g>
<!-- Node5 -->
<g id="node5" class="node">
<title>Node5</title>
<g id="a_node5"><a xlink:href="_transmitter_code_2src_2main_8cpp.html#aecac2f0c289f02ef3c92b85be82eacac" target="_top" xlink:title=" ">
<polygon fill="white" stroke="black" points="604,-228.5 604,-247.5 687,-247.5 687,-228.5 604,-228.5"/>
<text text-anchor="middle" x="645.5" y="-235.5" font-family="Helvetica,sans-Serif" font-size="10.00">SendCommand</text>
</a>
</g>
</g>
<!-- Node4&#45;&gt;Node5 -->
<g id="edge4" class="edge">
<title>Node4&#45;&gt;Node5</title>
<path fill="none" stroke="midnightblue" d="M407.04,-89.62C447.99,-95.37 517.97,-109.58 568,-143 597.78,-162.89 621.59,-197.96 634.33,-219.47"/>
<polygon fill="midnightblue" stroke="midnightblue" points="631.38,-221.36 639.39,-228.3 637.46,-217.88 631.38,-221.36"/>
</g>
<!-- Node7 -->
<g id="node7" class="node">
<title>Node7</title>
<g id="a_node7"><a xlink:href="_transmitter_code_2src_2main_8cpp.html#a1e20efc1e419b252b50d36f9924503fc" target="_top" xlink:title=" ">
<polygon fill="white" stroke="black" points="487.5,-152.5 487.5,-171.5 551.5,-171.5 551.5,-152.5 487.5,-152.5"/>
<text text-anchor="middle" x="519.5" y="-159.5" font-family="Helvetica,sans-Serif" font-size="10.00">SendValue</text>
</a>
</g>
</g>
<!-- Node4&#45;&gt;Node7 -->
<g id="edge6" class="edge">
<title>Node4&#45;&gt;Node7</title>
<path fill="none" stroke="midnightblue" d="M401.22,-95.57C411.96,-99.6 424.24,-104.61 435,-110 456.64,-120.85 479.92,-135.62 496.38,-146.65"/>
<polygon fill="midnightblue" stroke="midnightblue" points="494.54,-149.63 504.78,-152.35 498.47,-143.84 494.54,-149.63"/>
</g>
<!-- Node6 -->
<g id="node6" class="node">
<title>Node6</title>
<g id="a_node6"><a xlink:href="_transmitter_code_2src_2main_8cpp.html#a43937dd3d9c795271fd9c3eb3c6b6410" target="_top" xlink:title=" ">
<polygon fill="white" stroke="black" points="723,-152.5 723,-171.5 806,-171.5 806,-152.5 723,-152.5"/>
<text text-anchor="middle" x="764.5" y="-159.5" font-family="Helvetica,sans-Serif" font-size="10.00">GetReturnCode</text>
</a>
</g>
</g>
<!-- Node5&#45;&gt;Node6 -->
<g id="edge5" class="edge">
<title>Node5&#45;&gt;Node6</title>
<path fill="none" stroke="midnightblue" d="M661.32,-228.37C681.19,-215.47 716.67,-192.42 740.15,-177.17"/>
<polygon fill="midnightblue" stroke="midnightblue" points="742.32,-179.93 748.8,-171.55 738.51,-174.06 742.32,-179.93"/>
</g>
<!-- Node7&#45;&gt;Node5 -->
<g id="edge8" class="edge">
<title>Node7&#45;&gt;Node5</title>
<path fill="none" stroke="midnightblue" d="M541.15,-171.71C549.61,-175.87 559.4,-180.93 568,-186 587.32,-197.38 608.31,-211.81 623.42,-222.58"/>
<polygon fill="midnightblue" stroke="midnightblue" points="621.41,-225.45 631.57,-228.45 625.5,-219.77 621.41,-225.45"/>
</g>
<!-- Node7&#45;&gt;Node6 -->
<g id="edge7" class="edge">
<title>Node7&#45;&gt;Node6</title>
<path fill="none" stroke="midnightblue" d="M551.77,-162C592.37,-162 663.78,-162 712.33,-162"/>
<polygon fill="midnightblue" stroke="midnightblue" points="712.63,-165.5 722.63,-162 712.63,-158.5 712.63,-165.5"/>
</g>
<!-- Node8 -->
<g id="node8" class="node">
<title>Node8</title>
<g id="a_node8"><a xlink:href="_transmitter_code_2src_2main_8cpp.html#a6bac145d5df31efb9c90e2a60a4cbca5" target="_top" xlink:title=" ">
<polygon fill="white" stroke="black" points="631,-380.5 631,-399.5 660,-399.5 660,-380.5 631,-380.5"/>
<text text-anchor="middle" x="645.5" y="-387.5" font-family="Helvetica,sans-Serif" font-size="10.00">Str</text>
</a>
</g>
</g>
<!-- Node7&#45;&gt;Node8 -->
<g id="edge9" class="edge">
<title>Node7&#45;&gt;Node8</title>
<path fill="none" stroke="midnightblue" d="M525.67,-171.51C544.46,-206.05 609.33,-325.34 634.45,-371.53"/>
<polygon fill="midnightblue" stroke="midnightblue" points="631.46,-373.34 639.31,-380.45 637.6,-370 631.46,-373.34"/>
</g>
<!-- Node9&#45;&gt;Node5 -->
<g id="edge26" class="edge">
<title>Node9&#45;&gt;Node5</title>
<path fill="none" stroke="midnightblue" d="M223.92,-380.49C246.89,-372.83 280.36,-362.06 310,-354 423.51,-323.15 461.21,-344.31 568,-295 590.12,-284.78 612.08,-267.48 626.76,-254.62"/>
<polygon fill="midnightblue" stroke="midnightblue" points="629.42,-256.93 634.51,-247.64 624.74,-251.73 629.42,-256.93"/>
</g>
<!-- Node9&#45;&gt;Node7 -->
<g id="edge27" class="edge">
<title>Node9&#45;&gt;Node7</title>
<path fill="none" stroke="midnightblue" d="M199.67,-380.09C211.09,-350.65 248.94,-263.04 310,-219 323.67,-209.14 420.9,-185.03 477.63,-171.54"/>
<polygon fill="midnightblue" stroke="midnightblue" points="478.46,-174.94 487.38,-169.23 476.85,-168.13 478.46,-174.94"/>
</g>
<!-- Node10 -->
<g id="node10" class="node">
<title>Node10</title>
<g id="a_node10"><a xlink:href="_transmitter_code_2src_2main_8cpp.html#a5aeea47b9d855ae9911bae1115d02de7" target="_top" xlink:title=" ">
<polygon fill="white" stroke="black" points="491.5,-532.5 491.5,-551.5 547.5,-551.5 547.5,-532.5 491.5,-532.5"/>
<text text-anchor="middle" x="519.5" y="-539.5" font-family="Helvetica,sans-Serif" font-size="10.00">ClearBox</text>
</a>
</g>
</g>
<!-- Node9&#45;&gt;Node10 -->
<g id="edge11" class="edge">
<title>Node9&#45;&gt;Node10</title>
<path fill="none" stroke="midnightblue" d="M201.12,-399.51C214.93,-424.08 255.59,-489.75 310,-518 364.52,-546.31 437.66,-547.74 481.25,-545.42"/>
<polygon fill="midnightblue" stroke="midnightblue" points="481.64,-548.9 491.4,-544.78 481.2,-541.91 481.64,-548.9"/>
</g>
<!-- Node11 -->
<g id="node11" class="node">
<title>Node11</title>
<g id="a_node11"><a xlink:href="_transmitter_code_2src_2main_8cpp.html#a68b36025c7478c0710565b4fb059d9bc" target="_top" xlink:title=" ">
<polygon fill="white" stroke="black" points="330.5,-380.5 330.5,-399.5 414.5,-399.5 414.5,-380.5 330.5,-380.5"/>
<text text-anchor="middle" x="372.5" y="-387.5" font-family="Helvetica,sans-Serif" font-size="10.00">DegsToPercent</text>
</a>
</g>
</g>
<!-- Node9&#45;&gt;Node11 -->
<g id="edge14" class="edge">
<title>Node9&#45;&gt;Node11</title>
<path fill="none" stroke="midnightblue" d="M232.36,-390C257.76,-390 292.02,-390 320.19,-390"/>
<polygon fill="midnightblue" stroke="midnightblue" points="320.26,-393.5 330.26,-390 320.26,-386.5 320.26,-393.5"/>
</g>
<!-- Node12 -->
<g id="node12" class="node">
<title>Node12</title>
<g id="a_node12"><a xlink:href="_transmitter_code_2src_2main_8cpp.html#a705c97485d6142131c03577ec14134e7" target="_top" xlink:title=" ">
<polygon fill="white" stroke="black" points="491.5,-418.5 491.5,-437.5 547.5,-437.5 547.5,-418.5 491.5,-418.5"/>
<text text-anchor="middle" x="519.5" y="-425.5" font-family="Helvetica,sans-Serif" font-size="10.00">DrawBox</text>
</a>
</g>
</g>
<!-- Node9&#45;&gt;Node12 -->
<g id="edge15" class="edge">
<title>Node9&#45;&gt;Node12</title>
<path fill="none" stroke="midnightblue" d="M219.99,-399.55C242.74,-408.08 278.1,-419.98 310,-425 369.34,-434.34 439.36,-432.83 481.27,-430.62"/>
<polygon fill="midnightblue" stroke="midnightblue" points="481.52,-434.11 491.3,-430.04 481.12,-427.12 481.52,-434.11"/>
</g>
<!-- Node13 -->
<g id="node13" class="node">
<title>Node13</title>
<g id="a_node13"><a xlink:href="_transmitter_code_2src_2main_8cpp.html#a711945ac5f6948657463708863748432" target="_top" xlink:title=" ">
<polygon fill="white" stroke="black" points="492.5,-380.5 492.5,-399.5 546.5,-399.5 546.5,-380.5 492.5,-380.5"/>
<text text-anchor="middle" x="519.5" y="-387.5" font-family="Helvetica,sans-Serif" font-size="10.00">DrawDot</text>
</a>
</g>
</g>
<!-- Node9&#45;&gt;Node13 -->
<g id="edge18" class="edge">
<title>Node9&#45;&gt;Node13</title>
<path fill="none" stroke="midnightblue" d="M232.01,-397.57C254.34,-401.87 283.7,-406.82 310,-409 365.37,-413.58 379.79,-415.2 435,-409 450.85,-407.22 468.07,-403.6 482.74,-399.99"/>
<polygon fill="midnightblue" stroke="midnightblue" points="483.61,-403.38 492.43,-397.51 481.88,-396.59 483.61,-403.38"/>
</g>
<!-- Node14 -->
<g id="node14" class="node">
<title>Node14</title>
<g id="a_node14"><a xlink:href="_transmitter_code_2src_2main_8cpp.html#acbef1d41e1bd646b60a6e8afd9c66880" target="_top" xlink:title=" ">
<polygon fill="white" stroke="black" points="490.5,-342.5 490.5,-361.5 548.5,-361.5 548.5,-342.5 490.5,-342.5"/>
<text text-anchor="middle" x="519.5" y="-349.5" font-family="Helvetica,sans-Serif" font-size="10.00">DrawLine</text>
</a>
</g>
</g>
<!-- Node9&#45;&gt;Node14 -->
<g id="edge21" class="edge">
<title>Node9&#45;&gt;Node14</title>
<path fill="none" stroke="midnightblue" d="M232.09,-383.28C254.47,-379.29 283.83,-374.37 310,-371 369.32,-363.36 438.53,-357.69 480.4,-354.62"/>
<polygon fill="midnightblue" stroke="midnightblue" points="480.72,-358.1 490.44,-353.89 480.21,-351.12 480.72,-358.1"/>
</g>
<!-- Node15 -->
<g id="node15" class="node">
<title>Node15</title>
<g id="a_node15"><a xlink:href="_transmitter_code_2src_2main_8cpp.html#a9faf4d94aad5656651bf8719d901fa06" target="_top" xlink:title="Uses servo degrees to position dots.">
<polygon fill="white" stroke="black" points="328.5,-608.5 328.5,-627.5 416.5,-627.5 416.5,-608.5 328.5,-608.5"/>
<text text-anchor="middle" x="372.5" y="-615.5" font-family="Helvetica,sans-Serif" font-size="10.00">GetDotPositions</text>
</a>
</g>
</g>
<!-- Node9&#45;&gt;Node15 -->
<g id="edge24" class="edge">
<title>Node9&#45;&gt;Node15</title>
<path fill="none" stroke="midnightblue" d="M201.97,-399.51C215.44,-421.12 248.97,-475.67 274,-523 291.47,-556.04 281.75,-574.52 310,-599 312.83,-601.45 315.97,-603.58 319.29,-605.44"/>
<polygon fill="midnightblue" stroke="midnightblue" points="317.88,-608.65 328.41,-609.75 320.86,-602.32 317.88,-608.65"/>
</g>
<!-- Node16 -->
<g id="node16" class="node">
<title>Node16</title>
<g id="a_node16"><a xlink:href="_transmitter_code_2src_2main_8cpp.html#a66f68b74166e81ad0ecb8fc3a1670eb5" target="_top" xlink:title=" ">
<polygon fill="white" stroke="black" points="347,-570.5 347,-589.5 398,-589.5 398,-570.5 347,-570.5"/>
<text text-anchor="middle" x="372.5" y="-577.5" font-family="Helvetica,sans-Serif" font-size="10.00">MapExp</text>
</a>
</g>
</g>
<!-- Node9&#45;&gt;Node16 -->
<g id="edge25" class="edge">
<title>Node9&#45;&gt;Node16</title>
<path fill="none" stroke="midnightblue" d="M200.15,-399.73C212.62,-427.9 252.48,-510.38 310,-556 318,-562.34 327.87,-567.18 337.35,-570.79"/>
<polygon fill="midnightblue" stroke="midnightblue" points="336.4,-574.16 346.99,-574.11 338.68,-567.54 336.4,-574.16"/>
</g>
<!-- Node17 -->
<g id="node17" class="node">
<title>Node17</title>
<g id="a_node17"><a xlink:href="_transmitter_code_2src_2main_8cpp.html#ab07d91dcd72f515d2d80b1d18f95ece5" target="_top" xlink:title=" ">
<polygon fill="white" stroke="black" points="310,-228.5 310,-247.5 435,-247.5 435,-228.5 310,-228.5"/>
<text text-anchor="middle" x="372.5" y="-235.5" font-family="Helvetica,sans-Serif" font-size="10.00">updateInterpolationTypes</text>
</a>
</g>
</g>
<!-- Node9&#45;&gt;Node17 -->
<g id="edge28" class="edge">
<title>Node9&#45;&gt;Node17</title>
<path fill="none" stroke="midnightblue" d="M201.57,-380.34C216.13,-355.92 257.88,-291.21 310,-257 313.13,-254.95 316.49,-253.11 319.97,-251.46"/>
<polygon fill="midnightblue" stroke="midnightblue" points="321.5,-254.61 329.38,-247.53 318.8,-248.15 321.5,-254.61"/>
</g>
<!-- Node10&#45;&gt;Node5 -->
<g id="edge12" class="edge">
<title>Node10&#45;&gt;Node5</title>
<path fill="none" stroke="midnightblue" d="M525.72,-532.46C534.88,-515.53 554.2,-479 568,-447 597.53,-378.54 626.01,-294.55 638.24,-257.33"/>
<polygon fill="midnightblue" stroke="midnightblue" points="641.6,-258.33 641.37,-247.73 634.94,-256.15 641.6,-258.33"/>
</g>
<!-- Node10&#45;&gt;Node8 -->
<g id="edge13" class="edge">
<title>Node10&#45;&gt;Node8</title>
<path fill="none" stroke="midnightblue" d="M545.86,-532.44C553.55,-528.73 561.65,-523.92 568,-518 601.95,-486.38 625.86,-436.3 637.14,-409.11"/>
<polygon fill="midnightblue" stroke="midnightblue" points="640.49,-410.17 640.97,-399.58 633.99,-407.56 640.49,-410.17"/>
</g>
<!-- Node12&#45;&gt;Node5 -->
<g id="edge16" class="edge">
<title>Node12&#45;&gt;Node5</title>
<path fill="none" stroke="midnightblue" d="M547.74,-421.19C554.99,-418.35 562.36,-414.41 568,-409 612.66,-366.1 633.2,-292.43 640.8,-257.48"/>
<polygon fill="midnightblue" stroke="midnightblue" points="644.25,-258.09 642.83,-247.59 637.39,-256.68 644.25,-258.09"/>
</g>
<!-- Node12&#45;&gt;Node8 -->
<g id="edge17" class="edge">
<title>Node12&#45;&gt;Node8</title>
<path fill="none" stroke="midnightblue" d="M547.71,-419.66C569.67,-412.93 600.23,-403.57 621.1,-397.17"/>
<polygon fill="midnightblue" stroke="midnightblue" points="622.22,-400.49 630.76,-394.21 620.17,-393.79 622.22,-400.49"/>
</g>
<!-- Node13&#45;&gt;Node5 -->
<g id="edge19" class="edge">
<title>Node13&#45;&gt;Node5</title>
<path fill="none" stroke="midnightblue" d="M546.9,-383C554.3,-380.14 561.96,-376.24 568,-371 604.39,-339.42 627.55,-286.06 638.01,-257.47"/>
<polygon fill="midnightblue" stroke="midnightblue" points="641.38,-258.42 641.39,-247.83 634.78,-256.1 641.38,-258.42"/>
</g>
<!-- Node13&#45;&gt;Node8 -->
<g id="edge20" class="edge">
<title>Node13&#45;&gt;Node8</title>
<path fill="none" stroke="midnightblue" d="M546.8,-390C568.71,-390 599.66,-390 620.81,-390"/>
<polygon fill="midnightblue" stroke="midnightblue" points="620.88,-393.5 630.88,-390 620.88,-386.5 620.88,-393.5"/>
</g>
<!-- Node14&#45;&gt;Node5 -->
<g id="edge22" class="edge">
<title>Node14&#45;&gt;Node5</title>
<path fill="none" stroke="midnightblue" d="M543.83,-342.49C551.91,-338.63 560.74,-333.72 568,-328 594.56,-307.08 618.65,-275.77 632.42,-256.14"/>
<polygon fill="midnightblue" stroke="midnightblue" points="635.39,-258 638.16,-247.77 629.62,-254.04 635.39,-258"/>
</g>
<!-- Node14&#45;&gt;Node8 -->
<g id="edge23" class="edge">
<title>Node14&#45;&gt;Node8</title>
<path fill="none" stroke="midnightblue" d="M548.64,-360.62C570.54,-367.34 600.58,-376.54 621.16,-382.85"/>
<polygon fill="midnightblue" stroke="midnightblue" points="620.38,-386.27 630.97,-385.85 622.44,-379.58 620.38,-386.27"/>
</g>
<!-- Node17&#45;&gt;Node5 -->
<g id="edge29" class="edge">
<title>Node17&#45;&gt;Node5</title>
<path fill="none" stroke="midnightblue" d="M430.06,-228.49C443.45,-226.62 457.7,-224.95 471,-224 514,-220.93 525.07,-220.1 568,-224 576.41,-224.76 585.27,-225.99 593.87,-227.41"/>
<polygon fill="midnightblue" stroke="midnightblue" points="593.34,-230.87 603.8,-229.14 594.55,-223.97 593.34,-230.87"/>
</g>
<!-- Node17&#45;&gt;Node7 -->
<g id="edge30" class="edge">
<title>Node17&#45;&gt;Node7</title>
<path fill="none" stroke="midnightblue" d="M403.08,-228.43C413.47,-224.56 425.03,-219.66 435,-214 452.63,-203.99 453.87,-196.84 471,-186 476.43,-182.56 482.42,-179.22 488.26,-176.18"/>
<polygon fill="midnightblue" stroke="midnightblue" points="489.85,-179.29 497.21,-171.67 486.7,-173.04 489.85,-179.29"/>
</g>
<!-- Node19&#45;&gt;Node5 -->
<g id="edge33" class="edge">
<title>Node19&#45;&gt;Node5</title>
<path fill="none" stroke="midnightblue" d="M239.62,-49.42C314.9,-37.24 470.52,-23.92 568,-98 608.66,-128.9 630.43,-187.9 639.43,-218.5"/>
<polygon fill="midnightblue" stroke="midnightblue" points="636.13,-219.69 642.18,-228.39 642.87,-217.82 636.13,-219.69"/>
</g>
<!-- Node20&#45;&gt;Node5 -->
<g id="edge38" class="edge">
<title>Node20&#45;&gt;Node5</title>
<path fill="none" stroke="midnightblue" d="M418.51,-266.42C434.97,-263.13 453.78,-259.62 471,-257 512,-250.77 558.74,-245.77 593.37,-242.47"/>
<polygon fill="midnightblue" stroke="midnightblue" points="594.08,-245.92 603.71,-241.5 593.43,-238.95 594.08,-245.92"/>
</g>
<!-- Node21 -->
<g id="node21" class="node">
<title>Node21</title>
<g id="a_node21"><a xlink:href="_transmitter_code_2src_2main_8cpp.html#a49da3478d89a22069e29c7f00cb46a5f" target="_top" xlink:title=" ">
<polygon fill="white" stroke="black" points="471,-266.5 471,-285.5 568,-285.5 568,-266.5 471,-266.5"/>
<text text-anchor="middle" x="519.5" y="-273.5" font-family="Helvetica,sans-Serif" font-size="10.00">RestoreBrightness</text>
</a>
</g>
</g>
<!-- Node20&#45;&gt;Node21 -->
<g id="edge35" class="edge">
<title>Node20&#45;&gt;Node21</title>
<path fill="none" stroke="midnightblue" d="M418.58,-276C431.96,-276 446.8,-276 460.86,-276"/>
<polygon fill="midnightblue" stroke="midnightblue" points="460.93,-279.5 470.93,-276 460.93,-272.5 460.93,-279.5"/>
</g>
<!-- Node21&#45;&gt;Node5 -->
<g id="edge36" class="edge">
<title>Node21&#45;&gt;Node5</title>
<path fill="none" stroke="midnightblue" d="M551.79,-266.41C567.5,-261.6 586.74,-255.7 603.61,-250.53"/>
<polygon fill="midnightblue" stroke="midnightblue" points="604.68,-253.86 613.22,-247.59 602.63,-247.17 604.68,-253.86"/>
</g>
<!-- Node21&#45;&gt;Node8 -->
<g id="edge37" class="edge">
<title>Node21&#45;&gt;Node8</title>
<path fill="none" stroke="midnightblue" d="M531.07,-285.72C552.3,-305.24 600.33,-349.39 626.57,-373.51"/>
<polygon fill="midnightblue" stroke="midnightblue" points="624.22,-376.11 633.95,-380.31 628.96,-370.96 624.22,-376.11"/>
</g>
<!-- Node22&#45;&gt;Node7 -->
<g id="edge43" class="edge">
<title>Node22&#45;&gt;Node7</title>
<path fill="none" stroke="midnightblue" d="M242.37,-152.49C262.98,-148.72 287.6,-144.85 310,-143 365.37,-138.42 379.79,-136.8 435,-143 449.01,-144.57 464.1,-147.59 477.54,-150.76"/>
<polygon fill="midnightblue" stroke="midnightblue" points="476.91,-154.21 487.46,-153.2 478.58,-147.41 476.91,-154.21"/>
</g>
<!-- Node22&#45;&gt;Node8 -->
<g id="edge44" class="edge">
<title>Node22&#45;&gt;Node8</title>
<path fill="none" stroke="midnightblue" d="M232.26,-171.58C247.39,-177.39 263.78,-186.39 274,-200 330.59,-275.38 245.42,-340.34 310,-409 389.41,-493.43 457.99,-483.48 568,-447 591.88,-439.08 614.35,-420.5 628.68,-406.69"/>
<polygon fill="midnightblue" stroke="midnightblue" points="631.16,-409.15 635.76,-399.61 626.21,-404.2 631.16,-409.15"/>
</g>
<!-- Node23 -->
<g id="node23" class="node">
<title>Node23</title>
<g id="a_node23"><a xlink:href="_transmitter_code_2src_2main_8cpp.html#afe513398f72d5e48f691830a1ef6eb42" target="_top" xlink:title=" ">
<polygon fill="white" stroke="black" points="490.5,-0.5 490.5,-19.5 548.5,-19.5 548.5,-0.5 490.5,-0.5"/>
<text text-anchor="middle" x="519.5" y="-7.5" font-family="Helvetica,sans-Serif" font-size="10.00">SendText</text>
</a>
</g>
</g>
<!-- Node22&#45;&gt;Node23 -->
<g id="edge40" class="edge">
<title>Node22&#45;&gt;Node23</title>
<path fill="none" stroke="midnightblue" d="M204.75,-152.35C222.63,-133.19 265.46,-90.23 310,-67 365.48,-38.06 437.15,-22.64 480.37,-15.4"/>
<polygon fill="midnightblue" stroke="midnightblue" points="481.15,-18.82 490.46,-13.77 480.03,-11.91 481.15,-18.82"/>
</g>
<!-- Node24 -->
<g id="node24" class="node">
<title>Node24</title>
<g id="a_node24"><a xlink:href="_transmitter_code_2src_2main_8cpp.html#ac78966debc2cdc13d8ca958ce3b20c78" target="_top" xlink:title=" ">
<polygon fill="white" stroke="black" points="328,-152.5 328,-171.5 417,-171.5 417,-152.5 328,-152.5"/>
<text text-anchor="middle" x="372.5" y="-159.5" font-family="Helvetica,sans-Serif" font-size="10.00">UpdateTrimView</text>
</a>
</g>
</g>
<!-- Node22&#45;&gt;Node24 -->
<g id="edge45" class="edge">
<title>Node22&#45;&gt;Node24</title>
<path fill="none" stroke="midnightblue" d="M274.25,-162C288.82,-162 303.74,-162 317.39,-162"/>
<polygon fill="midnightblue" stroke="midnightblue" points="317.54,-165.5 327.54,-162 317.54,-158.5 317.54,-165.5"/>
</g>
<!-- Node23&#45;&gt;Node5 -->
<g id="edge42" class="edge">
<title>Node23&#45;&gt;Node5</title>
<path fill="none" stroke="midnightblue" d="M548.01,-19.62C555.26,-23.22 562.57,-27.95 568,-34 617.28,-88.97 635.89,-178.71 641.94,-218.24"/>
<polygon fill="midnightblue" stroke="midnightblue" points="638.49,-218.79 643.36,-228.2 645.42,-217.8 638.49,-218.79"/>
</g>
<!-- Node23&#45;&gt;Node6 -->
<g id="edge41" class="edge">
<title>Node23&#45;&gt;Node6</title>
<path fill="none" stroke="midnightblue" d="M540.64,-19.55C549.19,-23.77 559.2,-28.92 568,-34 633.09,-71.6 706.38,-121.83 741.9,-146.71"/>
<polygon fill="midnightblue" stroke="midnightblue" points="739.89,-149.57 750.08,-152.46 743.92,-143.85 739.89,-149.57"/>
</g>
<!-- Node24&#45;&gt;Node7 -->
<g id="edge46" class="edge">
<title>Node24&#45;&gt;Node7</title>
<path fill="none" stroke="midnightblue" d="M417,-162C436.15,-162 458.52,-162 477.39,-162"/>
<polygon fill="midnightblue" stroke="midnightblue" points="477.46,-165.5 487.46,-162 477.46,-158.5 477.46,-165.5"/>
</g>
</g>
</svg>
