<?xml version="1.0" encoding="UTF-8" standalone="no"?>
<!DOCTYPE svg PUBLIC "-//W3C//DTD SVG 1.1//EN"
 "http://www.w3.org/Graphics/SVG/1.1/DTD/svg11.dtd">
<!-- Generated by graphviz version 3.0.0 (20220413.0242)
 -->
<!-- Title: RestoreBrightness Pages: 1 -->
<svg width="576pt" height="155pt"
 viewBox="0.00 0.00 576.00 154.59" xmlns="http://www.w3.org/2000/svg" xmlns:xlink="http://www.w3.org/1999/xlink">
<g id="graph0" class="graph" transform="scale(1 1) rotate(0) translate(4 150.59)">
<title>RestoreBrightness</title>
<polygon fill="white" stroke="transparent" points="-4,4 -4,-150.59 572,-150.59 572,4 -4,4"/>
<!-- Node1 -->
<g id="node1" class="node">
<title>Node1</title>
<g id="a_node1"><a xlink:title=" ">
<polygon fill="#bfbfbf" stroke="black" points="471,-57.5 471,-76.5 568,-76.5 568,-57.5 471,-57.5"/>
<text text-anchor="middle" x="519.5" y="-64.5" font-family="Helvetica,sans-Serif" font-size="10.00">RestoreBrightness</text>
</a>
</g>
</g>
<!-- Node2 -->
<g id="node2" class="node">
<title>Node2</title>
<g id="a_node2"><a xlink:href="_transmitter_code_2src_2main_8cpp.html#a804fdbdd5eab4c596bbe8a23eecbe4d5" target="_top" xlink:title=" ">
<polygon fill="white" stroke="black" points="334,-114.5 334,-133.5 435,-133.5 435,-114.5 334,-114.5"/>
<text text-anchor="middle" x="384.5" y="-121.5" font-family="Helvetica,sans-Serif" font-size="10.00">ButtonWasPressed</text>
</a>
</g>
</g>
<!-- Node1&#45;&gt;Node2 -->
<g id="edge1" class="edge">
<title>Node1&#45;&gt;Node2</title>
<path fill="none" stroke="midnightblue" d="M489.09,-80.91C473.18,-88.3 453.13,-97.41 435,-105 427.36,-108.2 418.97,-111.5 411.31,-114.43"/>
<polygon fill="midnightblue" stroke="midnightblue" points="490.82,-83.96 498.4,-76.56 487.86,-77.62 490.82,-83.96"/>
</g>
<!-- Node5 -->
<g id="node5" class="node">
<title>Node5</title>
<g id="a_node5"><a xlink:href="_transmitter_code_2src_2main_8cpp.html#a17123a117a96a9416dec48d9345f8a5b" target="_top" xlink:title=" ">
<polygon fill="white" stroke="black" points="352,-76.5 352,-95.5 417,-95.5 417,-76.5 352,-76.5"/>
<text text-anchor="middle" x="384.5" y="-83.5" font-family="Helvetica,sans-Serif" font-size="10.00">MoveaTrim</text>
</a>
</g>
</g>
<!-- Node1&#45;&gt;Node5 -->
<g id="edge5" class="edge">
<title>Node1&#45;&gt;Node5</title>
<path fill="none" stroke="midnightblue" d="M460.63,-75.27C445.65,-77.41 430.08,-79.63 417.03,-81.5"/>
<polygon fill="midnightblue" stroke="midnightblue" points="461.46,-78.68 470.86,-73.81 460.47,-71.76 461.46,-78.68"/>
</g>
<!-- Node8 -->
<g id="node8" class="node">
<title>Node8</title>
<g id="a_node8"><a xlink:href="_transmitter_code_2src_2main_8cpp.html#a17699f358cf9f7c3155a9c5daf8ff13c" target="_top" xlink:title=" ">
<polygon fill="white" stroke="black" points="364,-38.5 364,-57.5 405,-57.5 405,-38.5 364,-38.5"/>
<text text-anchor="middle" x="384.5" y="-45.5" font-family="Helvetica,sans-Serif" font-size="10.00">setup</text>
</a>
</g>
</g>
<!-- Node1&#45;&gt;Node8 -->
<g id="edge9" class="edge">
<title>Node1&#45;&gt;Node8</title>
<path fill="none" stroke="midnightblue" d="M460.87,-58.77C440.91,-55.92 419.86,-52.91 405.1,-50.8"/>
<polygon fill="midnightblue" stroke="midnightblue" points="460.47,-62.24 470.86,-60.19 461.46,-55.32 460.47,-62.24"/>
</g>
<!-- Node9 -->
<g id="node9" class="node">
<title>Node9</title>
<g id="a_node9"><a xlink:href="_transmitter_code_2src_2main_8cpp.html#afd8df260b5cc99e246c0e3c23cff81d1" target="_top" xlink:title=" ">
<polygon fill="white" stroke="black" points="338.5,-0.5 338.5,-19.5 430.5,-19.5 430.5,-0.5 338.5,-0.5"/>
<text text-anchor="middle" x="384.5" y="-7.5" font-family="Helvetica,sans-Serif" font-size="10.00">SoundFlightMode</text>
</a>
</g>
</g>
<!-- Node1&#45;&gt;Node9 -->
<g id="edge10" class="edge">
<title>Node1&#45;&gt;Node9</title>
<path fill="none" stroke="midnightblue" d="M489.09,-53.09C473.18,-45.7 453.13,-36.59 435,-29 427.36,-25.8 418.97,-22.5 411.31,-19.57"/>
<polygon fill="midnightblue" stroke="midnightblue" points="487.86,-56.38 498.4,-57.44 490.82,-50.04 487.86,-56.38"/>
</g>
<!-- Node3 -->
<g id="node3" class="node">
<title>Node3</title>
<g id="a_node3"><a xlink:href="_transmitter_code_2src_2main_8cpp.html#ad3cb30894c94eb016e98bdcaa899ac86" target="_top" xlink:title=" ">
<polygon fill="white" stroke="black" points="0,-114.5 0,-133.5 35,-133.5 35,-114.5 0,-114.5"/>
<text text-anchor="middle" x="17.5" y="-121.5" font-family="Helvetica,sans-Serif" font-size="10.00">loop</text>
</a>
</g>
</g>
<!-- Node2&#45;&gt;Node3 -->
<g id="edge2" class="edge">
<title>Node2&#45;&gt;Node3</title>
<path fill="none" stroke="midnightblue" d="M339.1,-135.8C325.97,-138.76 311.49,-141.52 298,-143 198.65,-153.91 78.7,-135.06 35.24,-127.2"/>
<polygon fill="midnightblue" stroke="midnightblue" points="339.91,-139.2 348.85,-133.51 338.31,-132.39 339.91,-139.2"/>
</g>
<!-- Node4 -->
<g id="node4" class="node">
<title>Node4</title>
<g id="a_node4"><a xlink:href="_transmitter_code_2src_2main_8cpp.html#ab7c9edf843c732d7fe296564f39bc0dc" target="_top" xlink:title="RECEIVE A MODEL FILE.">
<polygon fill="white" stroke="black" points="195.5,-114.5 195.5,-133.5 289.5,-133.5 289.5,-114.5 195.5,-114.5"/>
<text text-anchor="middle" x="242.5" y="-121.5" font-family="Helvetica,sans-Serif" font-size="10.00">ReceiveModelFile</text>
</a>
</g>
</g>
<!-- Node2&#45;&gt;Node4 -->
<g id="edge3" class="edge">
<title>Node2&#45;&gt;Node4</title>
<path fill="none" stroke="midnightblue" d="M323.52,-117.31C312.24,-117.17 300.6,-117.27 289.82,-117.61"/>
<polygon fill="midnightblue" stroke="midnightblue" points="323.68,-120.82 333.75,-117.51 323.82,-113.82 323.68,-120.82"/>
</g>
<!-- Node4&#45;&gt;Node2 -->
<g id="edge4" class="edge">
<title>Node4&#45;&gt;Node2</title>
<path fill="none" stroke="midnightblue" d="M299.93,-130.64C311.12,-130.83 322.8,-130.78 333.75,-130.49"/>
<polygon fill="midnightblue" stroke="midnightblue" points="299.9,-127.13 289.82,-130.39 299.73,-134.13 299.9,-127.13"/>
</g>
<!-- Node6 -->
<g id="node6" class="node">
<title>Node6</title>
<g id="a_node6"><a xlink:href="_transmitter_code_2src_2main_8cpp.html#add643409678258cabdb0aa1ae76d802a" target="_top" xlink:title=" ">
<polygon fill="white" stroke="black" points="187,-76.5 187,-95.5 298,-95.5 298,-76.5 187,-76.5"/>
<text text-anchor="middle" x="242.5" y="-83.5" font-family="Helvetica,sans-Serif" font-size="10.00">CheckHardwareTrims</text>
</a>
</g>
</g>
<!-- Node5&#45;&gt;Node6 -->
<g id="edge6" class="edge">
<title>Node5&#45;&gt;Node6</title>
<path fill="none" stroke="midnightblue" d="M341.67,-86C328.03,-86 312.67,-86 298.22,-86"/>
<polygon fill="midnightblue" stroke="midnightblue" points="341.73,-89.5 351.73,-86 341.73,-82.5 341.73,-89.5"/>
</g>
<!-- Node7 -->
<g id="node7" class="node">
<title>Node7</title>
<g id="a_node7"><a xlink:href="_transmitter_code_2src_2main_8cpp.html#aa144942814b12daf2b2a454c08d29cab" target="_top" xlink:title=" ">
<polygon fill="white" stroke="black" points="71,-76.5 71,-95.5 151,-95.5 151,-76.5 71,-76.5"/>
<text text-anchor="middle" x="111" y="-83.5" font-family="Helvetica,sans-Serif" font-size="10.00">ReadSwitches</text>
</a>
</g>
</g>
<!-- Node6&#45;&gt;Node7 -->
<g id="edge7" class="edge">
<title>Node6&#45;&gt;Node7</title>
<path fill="none" stroke="midnightblue" d="M176.73,-86C167.99,-86 159.25,-86 151.14,-86"/>
<polygon fill="midnightblue" stroke="midnightblue" points="176.96,-89.5 186.96,-86 176.96,-82.5 176.96,-89.5"/>
</g>
<!-- Node7&#45;&gt;Node3 -->
<g id="edge8" class="edge">
<title>Node7&#45;&gt;Node3</title>
<path fill="none" stroke="midnightblue" d="M77.41,-99.54C63.14,-105.46 47,-112.16 35.23,-117.05"/>
<polygon fill="midnightblue" stroke="midnightblue" points="79.02,-102.66 86.91,-95.59 76.33,-96.19 79.02,-102.66"/>
</g>
<!-- Node10 -->
<g id="node10" class="node">
<title>Node10</title>
<g id="a_node10"><a xlink:href="_transmitter_code_2src_2main_8cpp.html#adf35f0ced7990f813a783d0ecd33bf64" target="_top" xlink:title=" ">
<polygon fill="white" stroke="black" points="202.5,-19.5 202.5,-38.5 282.5,-38.5 282.5,-19.5 202.5,-19.5"/>
<text text-anchor="middle" x="242.5" y="-26.5" font-family="Helvetica,sans-Serif" font-size="10.00">GetFlightMode</text>
</a>
</g>
</g>
<!-- Node9&#45;&gt;Node10 -->
<g id="edge11" class="edge">
<title>Node9&#45;&gt;Node10</title>
<path fill="none" stroke="midnightblue" d="M328.13,-17.51C312.98,-19.57 296.88,-21.76 282.82,-23.66"/>
<polygon fill="midnightblue" stroke="midnightblue" points="328.99,-20.93 338.43,-16.12 328.05,-13.99 328.99,-20.93"/>
</g>
<!-- Node10&#45;&gt;Node7 -->
<g id="edge12" class="edge">
<title>Node10&#45;&gt;Node7</title>
<path fill="none" stroke="midnightblue" d="M210.56,-42.62C186.87,-53.05 154.78,-67.17 133.75,-76.43"/>
<polygon fill="midnightblue" stroke="midnightblue" points="212.08,-45.77 219.82,-38.54 209.26,-39.37 212.08,-45.77"/>
</g>
</g>
</svg>
