<?xml version="1.0" encoding="UTF-8" standalone="no"?>
<!DOCTYPE svg PUBLIC "-//W3C//DTD SVG 1.1//EN"
 "http://www.w3.org/Graphics/SVG/1.1/DTD/svg11.dtd">
<!-- Generated by graphviz version 2.49.3 (20211027.1534)
 -->
<!-- Title: SendValue Pages: 1 -->
<svg width="1032pt" height="1007pt"
 viewBox="0.00 0.00 1032.00 1007.36" xmlns="http://www.w3.org/2000/svg" xmlns:xlink="http://www.w3.org/1999/xlink">
<g id="graph0" class="graph" transform="scale(1 1) rotate(0) translate(4 1003.36)">
<title>SendValue</title>
<polygon fill="white" stroke="transparent" points="-4,4 -4,-1003.36 1028,-1003.36 1028,4 -4,4"/>
<!-- Node1 -->
<g id="node1" class="node">
<title>Node1</title>
<g id="a_node1"><a xlink:title=" ">
<polygon fill="#bfbfbf" stroke="black" points="960,-564.48 960,-583.48 1024,-583.48 1024,-564.48 960,-564.48"/>
<text text-anchor="middle" x="992" y="-571.48" font-family="Helvetica,sans-Serif" font-size="10.00">SendValue</text>
</a>
</g>
</g>
<!-- Node2 -->
<g id="node2" class="node">
<title>Node2</title>
<g id="a_node2"><a xlink:href="_transmitter_code_2src_2main_8cpp.html#a8e7ccbf842764fd85cc578be263f7202" target="_top" xlink:title=" ">
<polygon fill="white" stroke="black" points="304,-602.48 304,-621.48 405,-621.48 405,-602.48 304,-602.48"/>
<text text-anchor="middle" x="354.5" y="-609.48" font-family="Helvetica,sans-Serif" font-size="10.00">ButtonWasPressed</text>
</a>
</g>
</g>
<!-- Node1&#45;&gt;Node2 -->
<g id="edge1" class="edge">
<title>Node1&#45;&gt;Node2</title>
<path fill="none" stroke="midnightblue" d="M976.88,-556.56C964.57,-542.87 945.37,-524.84 924,-516.98 888.85,-504.05 629.05,-515.24 605,-523.98 585.95,-530.9 587.09,-542.85 569,-551.98 560.92,-556.06 449.57,-586.5 390.98,-602.39"/>
<polygon fill="midnightblue" stroke="midnightblue" points="974.44,-559.1 983.61,-564.4 979.75,-554.54 974.44,-559.1"/>
</g>
<!-- Node5 -->
<g id="node5" class="node">
<title>Node5</title>
<g id="a_node5"><a xlink:href="_transmitter_code_2src_2main_8cpp.html#ab7c9edf843c732d7fe296564f39bc0dc" target="_top" xlink:title="RECEIVE A MODEL FILE.">
<polygon fill="white" stroke="black" points="167.5,-298.48 167.5,-317.48 261.5,-317.48 261.5,-298.48 167.5,-298.48"/>
<text text-anchor="middle" x="214.5" y="-305.48" font-family="Helvetica,sans-Serif" font-size="10.00">ReceiveModelFile</text>
</a>
</g>
</g>
<!-- Node1&#45;&gt;Node5 -->
<g id="edge27" class="edge">
<title>Node1&#45;&gt;Node5</title>
<path fill="none" stroke="midnightblue" d="M989.3,-553.94C983.7,-492.7 963.89,-309.72 924,-267.98 827.68,-167.18 425.83,-155.08 299,-212.98 259.45,-231.04 231.13,-277.99 220.33,-298.34"/>
<polygon fill="midnightblue" stroke="midnightblue" points="985.84,-554.54 990.2,-564.19 992.81,-553.92 985.84,-554.54"/>
</g>
<!-- Node6 -->
<g id="node6" class="node">
<title>Node6</title>
<g id="a_node6"><a xlink:href="_transmitter_code_2src_2main_8cpp.html#addfc131a271de92cb52d869fde35729e" target="_top" xlink:title=" ">
<polygon fill="white" stroke="black" points="649.5,-108.48 649.5,-127.48 718.5,-127.48 718.5,-108.48 649.5,-108.48"/>
<text text-anchor="middle" x="684" y="-115.48" font-family="Helvetica,sans-Serif" font-size="10.00">CheckTimer</text>
</a>
</g>
</g>
<!-- Node1&#45;&gt;Node6 -->
<g id="edge7" class="edge">
<title>Node1&#45;&gt;Node6</title>
<path fill="none" stroke="midnightblue" d="M990.99,-553.87C990.51,-476.47 984.52,-199.33 924,-141.98 868.61,-89.49 770.28,-99.78 718.71,-109.92"/>
<polygon fill="midnightblue" stroke="midnightblue" points="987.49,-554.16 991.03,-564.15 994.49,-554.14 987.49,-554.16"/>
</g>
<!-- Node10 -->
<g id="node10" class="node">
<title>Node10</title>
<g id="a_node10"><a xlink:href="_transmitter_code_2src_2main_8cpp.html#af941d3a33327b2cee79e058ba9cd65f6" target="_top" xlink:title=" ">
<polygon fill="white" stroke="black" points="647,-906.48 647,-925.48 721,-925.48 721,-906.48 647,-906.48"/>
<text text-anchor="middle" x="684" y="-913.48" font-family="Helvetica,sans-Serif" font-size="10.00">DisplayCurve</text>
</a>
</g>
</g>
<!-- Node1&#45;&gt;Node10 -->
<g id="edge13" class="edge">
<title>Node1&#45;&gt;Node10</title>
<path fill="none" stroke="midnightblue" d="M989.9,-593.78C985.92,-657.65 969.99,-856.41 924,-896.98 867.97,-946.4 773.01,-935.86 721.26,-925.14"/>
<polygon fill="midnightblue" stroke="midnightblue" points="993.41,-593.69 990.51,-583.5 986.43,-593.27 993.41,-593.69"/>
</g>
<!-- Node12 -->
<g id="node12" class="node">
<title>Node12</title>
<g id="a_node12"><a xlink:href="_transmitter_code_2src_2main_8cpp.html#ad959eec03b0151ade81dc088593d816c" target="_top" xlink:title=" ">
<polygon fill="white" stroke="black" points="465.5,-963.48 465.5,-982.48 549.5,-982.48 549.5,-963.48 465.5,-963.48"/>
<text text-anchor="middle" x="507.5" y="-970.48" font-family="Helvetica,sans-Serif" font-size="10.00">ShowServoPos</text>
</a>
</g>
</g>
<!-- Node1&#45;&gt;Node12 -->
<g id="edge38" class="edge">
<title>Node1&#45;&gt;Node12</title>
<path fill="none" stroke="midnightblue" d="M990.25,-593.91C987.26,-661.89 973.8,-883.06 924,-928.98 818.94,-1025.85 629.53,-999.69 547.8,-982.48"/>
<polygon fill="midnightblue" stroke="midnightblue" points="993.76,-593.84 990.67,-583.71 986.76,-593.56 993.76,-593.84"/>
</g>
<!-- Node13 -->
<g id="node13" class="node">
<title>Node13</title>
<g id="a_node13"><a xlink:href="_transmitter_code_2src_2main_8cpp.html#a463a07d516b046c17a66b486dbcacb68" target="_top" xlink:title=" ">
<polygon fill="white" stroke="black" points="446,-754.48 446,-773.48 569,-773.48 569,-754.48 446,-754.48"/>
<text text-anchor="middle" x="507.5" y="-761.48" font-family="Helvetica,sans-Serif" font-size="10.00">DoNumberedCommands</text>
</a>
</g>
</g>
<!-- Node1&#45;&gt;Node13 -->
<g id="edge21" class="edge">
<title>Node1&#45;&gt;Node13</title>
<path fill="none" stroke="midnightblue" d="M989.87,-593.9C986.6,-630.81 973.82,-709.3 924,-744.98 868.82,-784.5 670.6,-776.22 569.19,-769.04"/>
<polygon fill="midnightblue" stroke="midnightblue" points="993.4,-593.71 990.64,-583.49 986.42,-593.2 993.4,-593.71"/>
</g>
<!-- Node14 -->
<g id="node14" class="node">
<title>Node14</title>
<g id="a_node14"><a xlink:href="_transmitter_code_2src_2main_8cpp.html#afd3dd964eafc30405e000b03579dd00c" target="_top" xlink:title=" ">
<polygon fill="white" stroke="black" points="816,-716.48 816,-735.48 907,-735.48 907,-716.48 816,-716.48"/>
<text text-anchor="middle" x="861.5" y="-723.48" font-family="Helvetica,sans-Serif" font-size="10.00">EndReverseView</text>
</a>
</g>
</g>
<!-- Node1&#45;&gt;Node14 -->
<g id="edge23" class="edge">
<title>Node1&#45;&gt;Node14</title>
<path fill="none" stroke="midnightblue" d="M986.42,-593.38C978.59,-622.33 959.89,-676.63 924,-706.98 919.05,-711.16 913.19,-714.43 907.08,-716.97"/>
<polygon fill="midnightblue" stroke="midnightblue" points="989.83,-594.19 988.9,-583.64 983.04,-592.47 989.83,-594.19"/>
</g>
<!-- Node15 -->
<g id="node15" class="node">
<title>Node15</title>
<g id="a_node15"><a xlink:href="_transmitter_code_2src_2main_8cpp.html#a58fe79634784085398cb1f382f6bf57d" target="_top" xlink:title=" ">
<polygon fill="white" stroke="black" points="807,-678.48 807,-697.48 916,-697.48 916,-678.48 807,-678.48"/>
<text text-anchor="middle" x="861.5" y="-685.48" font-family="Helvetica,sans-Serif" font-size="10.00">PopulateMacrosView</text>
</a>
</g>
</g>
<!-- Node1&#45;&gt;Node15 -->
<g id="edge25" class="edge">
<title>Node1&#45;&gt;Node15</title>
<path fill="none" stroke="midnightblue" d="M981.49,-592.31C970.22,-612.41 949.69,-644.39 924,-663.98 915.98,-670.1 906.21,-674.84 896.83,-678.44"/>
<polygon fill="midnightblue" stroke="midnightblue" points="984.57,-593.97 986.26,-583.51 978.41,-590.63 984.57,-593.97"/>
</g>
<!-- Node16 -->
<g id="node16" class="node">
<title>Node16</title>
<g id="a_node16"><a xlink:href="_transmitter_code_2src_2main_8cpp.html#a5616f31633181a5cefde5d7cb6210d3f" target="_top" xlink:title=" ">
<polygon fill="white" stroke="black" points="465.5,-716.48 465.5,-735.48 549.5,-735.48 549.5,-716.48 465.5,-716.48"/>
<text text-anchor="middle" x="507.5" y="-723.48" font-family="Helvetica,sans-Serif" font-size="10.00">SendMixValues</text>
</a>
</g>
</g>
<!-- Node1&#45;&gt;Node16 -->
<g id="edge28" class="edge">
<title>Node1&#45;&gt;Node16</title>
<path fill="none" stroke="midnightblue" d="M966.39,-588.51C953.99,-595.39 938.52,-603.33 924,-608.98 787.25,-662.16 745.59,-651.98 605,-693.98 581.49,-701 555.06,-709.83 535.81,-716.44"/>
<polygon fill="midnightblue" stroke="midnightblue" points="968.25,-591.48 975.22,-583.5 964.8,-585.39 968.25,-591.48"/>
</g>
<!-- Node17 -->
<g id="node17" class="node">
<title>Node17</title>
<g id="a_node17"><a xlink:href="_transmitter_code_2src_2main_8cpp.html#a58c67a975068930341f0663e0a08c9d3" target="_top" xlink:title="SEND A MODEL FILE.">
<polygon fill="white" stroke="black" points="643.5,-564.48 643.5,-583.48 724.5,-583.48 724.5,-564.48 643.5,-564.48"/>
<text text-anchor="middle" x="684" y="-571.48" font-family="Helvetica,sans-Serif" font-size="10.00">SendModelFile</text>
</a>
</g>
</g>
<!-- Node1&#45;&gt;Node17 -->
<g id="edge30" class="edge">
<title>Node1&#45;&gt;Node17</title>
<path fill="none" stroke="midnightblue" d="M949.9,-573.98C890.92,-573.98 782.97,-573.98 724.75,-573.98"/>
<polygon fill="midnightblue" stroke="midnightblue" points="949.98,-577.48 959.98,-573.98 949.98,-570.48 949.98,-577.48"/>
</g>
<!-- Node18 -->
<g id="node18" class="node">
<title>Node18</title>
<g id="a_node18"><a xlink:href="_transmitter_code_2src_2main_8cpp.html#acbd0460ea44a7d07e4d77878411febb4" target="_top" xlink:title=" ">
<polygon fill="white" stroke="black" points="461.5,-488.48 461.5,-507.48 553.5,-507.48 553.5,-488.48 461.5,-488.48"/>
<text text-anchor="middle" x="507.5" y="-495.48" font-family="Helvetica,sans-Serif" font-size="10.00">SetDefaultValues</text>
</a>
</g>
</g>
<!-- Node1&#45;&gt;Node18 -->
<g id="edge32" class="edge">
<title>Node1&#45;&gt;Node18</title>
<path fill="none" stroke="midnightblue" d="M983.27,-555.06C973.24,-533.33 953.45,-498.77 924,-483.98 792.1,-417.74 605.79,-466.26 536.17,-488.47"/>
<polygon fill="midnightblue" stroke="midnightblue" points="980.1,-556.53 987.31,-564.29 986.51,-553.72 980.1,-556.53"/>
</g>
<!-- Node19 -->
<g id="node19" class="node">
<title>Node19</title>
<g id="a_node19"><a xlink:href="_transmitter_code_2src_2main_8cpp.html#a4fc01d736fe50cf5b977f755b675f11d" target="_top" xlink:title=" ">
<polygon fill="white" stroke="black" points="334,-222.48 334,-241.48 375,-241.48 375,-222.48 334,-222.48"/>
<text text-anchor="middle" x="354.5" y="-229.48" font-family="Helvetica,sans-Serif" font-size="10.00">setup</text>
</a>
</g>
</g>
<!-- Node1&#45;&gt;Node19 -->
<g id="edge34" class="edge">
<title>Node1&#45;&gt;Node19</title>
<path fill="none" stroke="midnightblue" d="M990.08,-553.99C987.16,-513.2 974.95,-419.64 924,-364.98 808.14,-240.67 735.87,-255.12 569,-222.98 498.69,-209.44 413.05,-221.43 375.15,-228.15"/>
<polygon fill="midnightblue" stroke="midnightblue" points="986.6,-554.45 990.69,-564.23 993.59,-554.03 986.6,-554.45"/>
</g>
<!-- Node20 -->
<g id="node20" class="node">
<title>Node20</title>
<g id="a_node20"><a xlink:href="_transmitter_code_2src_2main_8cpp.html#a5d3a46c21927cf7a3031a1e68e0b7b48" target="_top" xlink:title="SHOW COMMS.">
<polygon fill="white" stroke="black" points="177,-13.48 177,-32.48 252,-32.48 252,-13.48 177,-13.48"/>
<text text-anchor="middle" x="214.5" y="-20.48" font-family="Helvetica,sans-Serif" font-size="10.00">ShowComms</text>
</a>
</g>
</g>
<!-- Node1&#45;&gt;Node20 -->
<g id="edge35" class="edge">
<title>Node1&#45;&gt;Node20</title>
<path fill="none" stroke="midnightblue" d="M991.29,-554.04C992.12,-468.71 990.96,-135.31 924,-60.98 850.91,20.16 794.2,-3.98 685,-3.98 685,-3.98 685,-3.98 506.5,-3.98 414.86,-3.98 307.34,-13.48 252.2,-19.04"/>
<polygon fill="midnightblue" stroke="midnightblue" points="987.79,-554.14 991.17,-564.18 994.79,-554.23 987.79,-554.14"/>
</g>
<!-- Node21 -->
<g id="node21" class="node">
<title>Node21</title>
<g id="a_node21"><a xlink:href="_transmitter_code_2src_2main_8cpp.html#aaf48dfa7ac69b0baa5134fd9547f722c" target="_top" xlink:title=" ">
<polygon fill="white" stroke="black" points="641,-792.48 641,-811.48 727,-811.48 727,-792.48 641,-792.48"/>
<text text-anchor="middle" x="684" y="-799.48" font-family="Helvetica,sans-Serif" font-size="10.00">StartBuddyView</text>
</a>
</g>
</g>
<!-- Node1&#45;&gt;Node21 -->
<g id="edge39" class="edge">
<title>Node1&#45;&gt;Node21</title>
<path fill="none" stroke="midnightblue" d="M991.09,-593.89C990.1,-635.55 981.38,-731.89 924,-777.98 868.08,-822.9 779.42,-818.29 727.25,-810.43"/>
<polygon fill="midnightblue" stroke="midnightblue" points="994.6,-593.71 991.2,-583.67 987.6,-593.63 994.6,-593.71"/>
</g>
<!-- Node22 -->
<g id="node22" class="node">
<title>Node22</title>
<g id="a_node22"><a xlink:href="_transmitter_code_2src_2main_8cpp.html#a618bc6ca4ab71bb4d5d7e00dc71f9e56" target="_top" xlink:title=" ">
<polygon fill="white" stroke="black" points="636.5,-602.48 636.5,-621.48 731.5,-621.48 731.5,-602.48 636.5,-602.48"/>
<text text-anchor="middle" x="684" y="-609.48" font-family="Helvetica,sans-Serif" font-size="10.00">StartReverseView</text>
</a>
</g>
</g>
<!-- Node1&#45;&gt;Node22 -->
<g id="edge41" class="edge">
<title>Node1&#45;&gt;Node22</title>
<path fill="none" stroke="midnightblue" d="M949.7,-583.32C941.23,-585.04 932.35,-586.69 924,-587.98 857.64,-598.21 780.22,-605.07 731.9,-608.75"/>
<polygon fill="midnightblue" stroke="midnightblue" points="950.69,-586.69 959.77,-581.22 949.26,-579.84 950.69,-586.69"/>
</g>
<!-- Node23 -->
<g id="node23" class="node">
<title>Node23</title>
<g id="a_node23"><a xlink:href="_transmitter_code_2src_2main_8cpp.html#abf59862cf6c4e3df5a76f0bfea8919ef" target="_top" xlink:title=" ">
<polygon fill="white" stroke="black" points="808.5,-526.48 808.5,-545.48 914.5,-545.48 914.5,-526.48 808.5,-526.48"/>
<text text-anchor="middle" x="861.5" y="-533.48" font-family="Helvetica,sans-Serif" font-size="10.00">UpdateButtonLabels</text>
</a>
</g>
</g>
<!-- Node1&#45;&gt;Node23 -->
<g id="edge44" class="edge">
<title>Node1&#45;&gt;Node23</title>
<path fill="none" stroke="midnightblue" d="M950.25,-561.93C932.3,-556.62 911.5,-550.47 894.66,-545.49"/>
<polygon fill="midnightblue" stroke="midnightblue" points="949.31,-565.3 959.89,-564.78 951.3,-558.59 949.31,-565.3"/>
</g>
<!-- Node26 -->
<g id="node26" class="node">
<title>Node26</title>
<g id="a_node26"><a xlink:href="_transmitter_code_2src_2main_8cpp.html#ab07d91dcd72f515d2d80b1d18f95ece5" target="_top" xlink:title=" ">
<polygon fill="white" stroke="black" points="799,-868.48 799,-887.48 924,-887.48 924,-868.48 799,-868.48"/>
<text text-anchor="middle" x="861.5" y="-875.48" font-family="Helvetica,sans-Serif" font-size="10.00">updateInterpolationTypes</text>
</a>
</g>
</g>
<!-- Node1&#45;&gt;Node26 -->
<g id="edge54" class="edge">
<title>Node1&#45;&gt;Node26</title>
<path fill="none" stroke="midnightblue" d="M988.9,-593.72C982.37,-651.69 960.58,-819.79 924,-858.98 920.42,-862.82 916.07,-865.89 911.38,-868.34"/>
<polygon fill="midnightblue" stroke="midnightblue" points="992.39,-593.99 990.01,-583.67 985.44,-593.22 992.39,-593.99"/>
</g>
<!-- Node27 -->
<g id="node27" class="node">
<title>Node27</title>
<g id="a_node27"><a xlink:href="_transmitter_code_2src_2main_8cpp.html#a9e1de754e1d2d483fb15957f70cf0488" target="_top" xlink:title=" ">
<polygon fill="white" stroke="black" points="605,-374.48 605,-393.48 763,-393.48 763,-374.48 605,-374.48"/>
<text text-anchor="middle" x="684" y="-381.48" font-family="Helvetica,sans-Serif" font-size="10.00">UpdateModelsNameEveryWhere</text>
</a>
</g>
</g>
<!-- Node1&#45;&gt;Node27 -->
<g id="edge57" class="edge">
<title>Node1&#45;&gt;Node27</title>
<path fill="none" stroke="midnightblue" d="M986.12,-554.34C978.08,-526.06 959.27,-474.2 924,-445.98 896.34,-423.85 804.81,-404.46 743.38,-393.49"/>
<polygon fill="midnightblue" stroke="midnightblue" points="982.81,-555.48 988.78,-564.24 989.57,-553.67 982.81,-555.48"/>
</g>
<!-- Node28 -->
<g id="node28" class="node">
<title>Node28</title>
<g id="a_node28"><a xlink:href="_transmitter_code_2src_2main_8cpp.html#a14dcac76ed8a048041fdc6e6f5d5d000" target="_top" xlink:title=" ">
<polygon fill="white" stroke="black" points="803.5,-830.48 803.5,-849.48 919.5,-849.48 919.5,-830.48 803.5,-830.48"/>
<text text-anchor="middle" x="861.5" y="-837.48" font-family="Helvetica,sans-Serif" font-size="10.00">updateOneSwitchView</text>
</a>
</g>
</g>
<!-- Node1&#45;&gt;Node28 -->
<g id="edge65" class="edge">
<title>Node1&#45;&gt;Node28</title>
<path fill="none" stroke="midnightblue" d="M991.18,-593.99C990.5,-639.36 982.59,-751.09 924,-815.98 918.32,-822.27 910.78,-826.94 902.94,-830.38"/>
<polygon fill="midnightblue" stroke="midnightblue" points="994.68,-593.74 991.22,-583.73 987.68,-593.72 994.68,-593.74"/>
</g>
<!-- Node29 -->
<g id="node29" class="node">
<title>Node29</title>
<g id="a_node29"><a xlink:href="_transmitter_code_2src_2main_8cpp.html#ac78966debc2cdc13d8ca958ce3b20c78" target="_top" xlink:title=" ">
<polygon fill="white" stroke="black" points="817,-374.48 817,-393.48 906,-393.48 906,-374.48 817,-374.48"/>
<text text-anchor="middle" x="861.5" y="-381.48" font-family="Helvetica,sans-Serif" font-size="10.00">UpdateTrimView</text>
</a>
</g>
</g>
<!-- Node1&#45;&gt;Node29 -->
<g id="edge67" class="edge">
<title>Node1&#45;&gt;Node29</title>
<path fill="none" stroke="midnightblue" d="M988.19,-554.13C982.33,-519.83 965.7,-449.2 924,-407.98 917.64,-401.69 909.45,-397.01 901.13,-393.54"/>
<polygon fill="midnightblue" stroke="midnightblue" points="984.77,-554.94 989.78,-564.27 991.69,-553.85 984.77,-554.94"/>
</g>
<!-- Node30 -->
<g id="node30" class="node">
<title>Node30</title>
<g id="a_node30"><a xlink:href="_transmitter_code_2src_2main_8cpp.html#a3cd4694d58bd7a9f56e973d20270722f" target="_top" xlink:title=" ">
<polygon fill="white" stroke="black" points="808,-70.48 808,-89.48 915,-89.48 915,-70.48 808,-70.48"/>
<text text-anchor="middle" x="861.5" y="-77.48" font-family="Helvetica,sans-Serif" font-size="10.00">UpdateTrimViewPart</text>
</a>
</g>
</g>
<!-- Node1&#45;&gt;Node30 -->
<g id="edge69" class="edge">
<title>Node1&#45;&gt;Node30</title>
<path fill="none" stroke="midnightblue" d="M990.76,-554.16C989.41,-474.1 980.6,-175.4 924,-103.98 919.02,-97.69 912.16,-93.05 904.83,-89.62"/>
<polygon fill="midnightblue" stroke="midnightblue" points="987.26,-554.39 990.91,-564.34 994.26,-554.29 987.26,-554.39"/>
</g>
<!-- Node3 -->
<g id="node3" class="node">
<title>Node3</title>
<g id="a_node3"><a xlink:href="_transmitter_code_2src_2main_8cpp.html#a984cb52354a84c45e9e41f396a1c5e92" target="_top" xlink:title=" ">
<polygon fill="white" stroke="black" points="166,-374.48 166,-393.48 263,-393.48 263,-374.48 166,-374.48"/>
<text text-anchor="middle" x="214.5" y="-381.48" font-family="Helvetica,sans-Serif" font-size="10.00">CheckModelName</text>
</a>
</g>
</g>
<!-- Node2&#45;&gt;Node3 -->
<g id="edge2" class="edge">
<title>Node2&#45;&gt;Node3</title>
<path fill="none" stroke="midnightblue" d="M342.53,-593.85C314.73,-547.93 242.27,-428.21 221.28,-393.53"/>
<polygon fill="midnightblue" stroke="midnightblue" points="339.57,-595.73 347.75,-602.47 345.56,-592.11 339.57,-595.73"/>
</g>
<!-- Node4 -->
<g id="node4" class="node">
<title>Node4</title>
<g id="a_node4"><a xlink:href="_transmitter_code_2src_2main_8cpp.html#afe461d27b9c48d5921c00d521181f12f" target="_top" xlink:title=" ">
<polygon fill="white" stroke="black" points="0,-374.48 0,-393.48 35,-393.48 35,-374.48 0,-374.48"/>
<text text-anchor="middle" x="17.5" y="-381.48" font-family="Helvetica,sans-Serif" font-size="10.00">loop</text>
</a>
</g>
</g>
<!-- Node2&#45;&gt;Node4 -->
<g id="edge4" class="edge">
<title>Node2&#45;&gt;Node4</title>
<path fill="none" stroke="midnightblue" d="M330.95,-596.63C266.81,-552.98 84.56,-428.94 32.53,-393.53"/>
<polygon fill="midnightblue" stroke="midnightblue" points="329.3,-599.74 339.53,-602.47 333.23,-593.95 329.3,-599.74"/>
</g>
<!-- Node2&#45;&gt;Node5 -->
<g id="edge5" class="edge">
<title>Node2&#45;&gt;Node5</title>
<path fill="none" stroke="midnightblue" d="M349.81,-592.14C339.83,-547.3 309.89,-437.32 263,-355.98 254.76,-341.7 242.89,-327.45 233.07,-317.89"/>
<polygon fill="midnightblue" stroke="midnightblue" points="346.42,-593.01 351.91,-602.07 353.26,-591.56 346.42,-593.01"/>
</g>
<!-- Node3&#45;&gt;Node4 -->
<g id="edge3" class="edge">
<title>Node3&#45;&gt;Node4</title>
<path fill="none" stroke="midnightblue" d="M155.57,-383.98C114.28,-383.98 61.6,-383.98 35.18,-383.98"/>
<polygon fill="midnightblue" stroke="midnightblue" points="155.8,-387.48 165.8,-383.98 155.8,-380.48 155.8,-387.48"/>
</g>
<!-- Node5&#45;&gt;Node2 -->
<g id="edge6" class="edge">
<title>Node5&#45;&gt;Node2</title>
<path fill="none" stroke="midnightblue" d="M226.66,-325.87C237.2,-338.85 252.86,-356.39 263,-373.98 310.44,-456.28 340.54,-567.9 350.15,-602.04"/>
<polygon fill="midnightblue" stroke="midnightblue" points="229.2,-323.43 220.31,-317.66 223.66,-327.72 229.2,-323.43"/>
</g>
<!-- Node7 -->
<g id="node7" class="node">
<title>Node7</title>
<g id="a_node7"><a xlink:href="_transmitter_code_2src_2main_8cpp.html#adf35f0ced7990f813a783d0ecd33bf64" target="_top" xlink:title=" ">
<polygon fill="white" stroke="black" points="467.5,-108.48 467.5,-127.48 547.5,-127.48 547.5,-108.48 467.5,-108.48"/>
<text text-anchor="middle" x="507.5" y="-115.48" font-family="Helvetica,sans-Serif" font-size="10.00">GetFlightMode</text>
</a>
</g>
</g>
<!-- Node6&#45;&gt;Node7 -->
<g id="edge8" class="edge">
<title>Node6&#45;&gt;Node7</title>
<path fill="none" stroke="midnightblue" d="M638.99,-117.98C610.84,-117.98 574.65,-117.98 547.53,-117.98"/>
<polygon fill="midnightblue" stroke="midnightblue" points="639.35,-121.48 649.35,-117.98 639.35,-114.48 639.35,-121.48"/>
</g>
<!-- Node9 -->
<g id="node9" class="node">
<title>Node9</title>
<g id="a_node9"><a xlink:href="_radio_functions_8cpp.html#a3d7322e78f097d02d476f17a6306997c" target="_top" xlink:title=" ">
<polygon fill="white" stroke="black" points="71,-70.48 71,-89.48 130,-89.48 130,-70.48 71,-70.48"/>
<text text-anchor="middle" x="100.5" y="-77.48" font-family="Helvetica,sans-Serif" font-size="10.00">SendData</text>
</a>
</g>
</g>
<!-- Node6&#45;&gt;Node9 -->
<g id="edge12" class="edge">
<title>Node6&#45;&gt;Node9</title>
<path fill="none" stroke="midnightblue" d="M639.16,-110.19C617.99,-106.55 592.21,-102.3 569,-98.98 498.55,-88.9 481.04,-84.21 410,-79.98 307.08,-73.85 184.51,-76.94 130.03,-78.85"/>
<polygon fill="midnightblue" stroke="midnightblue" points="638.69,-113.66 649.14,-111.92 639.89,-106.76 638.69,-113.66"/>
</g>
<!-- Node8 -->
<g id="node8" class="node">
<title>Node8</title>
<g id="a_node8"><a xlink:href="_transmitter_code_2src_2main_8cpp.html#ab0af36f3442ad4f2d0b716c14c7d6085" target="_top" xlink:title=" ">
<polygon fill="white" stroke="black" points="174.5,-89.48 174.5,-108.48 254.5,-108.48 254.5,-89.48 174.5,-89.48"/>
<text text-anchor="middle" x="214.5" y="-96.48" font-family="Helvetica,sans-Serif" font-size="10.00">ReadSwitches</text>
</a>
</g>
</g>
<!-- Node7&#45;&gt;Node8 -->
<g id="edge9" class="edge">
<title>Node7&#45;&gt;Node8</title>
<path fill="none" stroke="midnightblue" d="M457.35,-121.06C415.19,-122.97 352.91,-124.04 299,-117.98 282.45,-116.12 264.4,-112.25 249.33,-108.49"/>
<polygon fill="midnightblue" stroke="midnightblue" points="457.53,-124.56 467.35,-120.58 457.19,-117.56 457.53,-124.56"/>
</g>
<!-- Node8&#45;&gt;Node9 -->
<g id="edge10" class="edge">
<title>Node8&#45;&gt;Node9</title>
<path fill="none" stroke="midnightblue" d="M164.26,-90.63C152.63,-88.65 140.61,-86.61 130.24,-84.86"/>
<polygon fill="midnightblue" stroke="midnightblue" points="163.88,-94.11 174.33,-92.33 165.05,-87.21 163.88,-94.11"/>
</g>
<!-- Node9&#45;&gt;Node4 -->
<g id="edge11" class="edge">
<title>Node9&#45;&gt;Node4</title>
<path fill="none" stroke="midnightblue" d="M94.26,-99.63C78.59,-158.46 32.42,-331.72 21.05,-374.4"/>
<polygon fill="midnightblue" stroke="midnightblue" points="97.7,-100.31 96.9,-89.75 90.94,-98.51 97.7,-100.31"/>
</g>
<!-- Node10&#45;&gt;Node2 -->
<g id="edge14" class="edge">
<title>Node10&#45;&gt;Node2</title>
<path fill="none" stroke="midnightblue" d="M645.74,-928.46C595.14,-942.88 504.32,-959.47 446,-915.98 444.42,-914.8 373.56,-673.53 358.35,-621.71"/>
<polygon fill="midnightblue" stroke="midnightblue" points="647.02,-931.73 655.61,-925.53 645.02,-925.02 647.02,-931.73"/>
</g>
<!-- Node10&#45;&gt;Node7 -->
<g id="edge15" class="edge">
<title>Node10&#45;&gt;Node7</title>
<path fill="none" stroke="midnightblue" d="M663.85,-899.35C645.22,-881.91 617.9,-852.66 605,-820.98 534.68,-648.28 596.41,-587.42 569,-402.98 552.79,-293.91 520.32,-163.93 511.03,-127.74"/>
<polygon fill="midnightblue" stroke="midnightblue" points="661.72,-902.15 671.47,-906.29 666.43,-896.97 661.72,-902.15"/>
</g>
<!-- Node11 -->
<g id="node11" class="node">
<title>Node11</title>
<g id="a_node11"><a xlink:href="_transmitter_code_2src_2main_8cpp.html#aad727ec0b0f9f34487a535eaa4a83172" target="_top" xlink:title="moves point very close to where user hit screen">
<polygon fill="white" stroke="black" points="476,-887.48 476,-906.48 539,-906.48 539,-887.48 476,-887.48"/>
<text text-anchor="middle" x="507.5" y="-894.48" font-family="Helvetica,sans-Serif" font-size="10.00">MovePoint</text>
</a>
</g>
</g>
<!-- Node10&#45;&gt;Node11 -->
<g id="edge16" class="edge">
<title>Node10&#45;&gt;Node11</title>
<path fill="none" stroke="midnightblue" d="M636.74,-910.94C605.84,-907.58 566.08,-903.25 539.08,-900.31"/>
<polygon fill="midnightblue" stroke="midnightblue" points="636.52,-914.44 646.84,-912.04 637.28,-907.48 636.52,-914.44"/>
</g>
<!-- Node10&#45;&gt;Node12 -->
<g id="edge18" class="edge">
<title>Node10&#45;&gt;Node12</title>
<path fill="none" stroke="midnightblue" d="M644.26,-928.64C612.09,-939.14 567.03,-953.86 537.8,-963.41"/>
<polygon fill="midnightblue" stroke="midnightblue" points="645.37,-931.95 653.79,-925.52 643.2,-925.3 645.37,-931.95"/>
</g>
<!-- Node11&#45;&gt;Node2 -->
<g id="edge17" class="edge">
<title>Node11&#45;&gt;Node2</title>
<path fill="none" stroke="midnightblue" d="M466.3,-886.68C458.82,-883.29 451.6,-878.83 446,-872.98 427.35,-853.49 371.57,-666.64 358.34,-621.68"/>
<polygon fill="midnightblue" stroke="midnightblue" points="465.22,-890.02 475.81,-890.41 467.78,-883.5 465.22,-890.02"/>
</g>
<!-- Node12&#45;&gt;Node2 -->
<g id="edge19" class="edge">
<title>Node12&#45;&gt;Node2</title>
<path fill="none" stroke="midnightblue" d="M457.42,-958.59C453.16,-955.91 449.25,-952.74 446,-948.98 400.6,-896.46 427.82,-864.08 410,-796.98 392.04,-729.34 367.08,-648.84 358.52,-621.56"/>
<polygon fill="midnightblue" stroke="midnightblue" points="456.06,-961.83 466.54,-963.43 459.34,-955.65 456.06,-961.83"/>
</g>
<!-- Node12&#45;&gt;Node4 -->
<g id="edge20" class="edge">
<title>Node12&#45;&gt;Node4</title>
<path fill="none" stroke="midnightblue" d="M471.76,-959.12C462.87,-954.7 453.66,-949.28 446,-942.98 234.5,-768.97 236.5,-672.2 71,-453.98 54.66,-432.44 35.66,-407.01 25.6,-393.51"/>
<polygon fill="midnightblue" stroke="midnightblue" points="470.29,-962.3 480.83,-963.37 473.26,-955.96 470.29,-962.3"/>
</g>
<!-- Node13&#45;&gt;Node2 -->
<g id="edge22" class="edge">
<title>Node13&#45;&gt;Node2</title>
<path fill="none" stroke="midnightblue" d="M454.07,-750.08C451.24,-748.55 448.53,-746.86 446,-744.98 400.04,-710.84 369.65,-646.09 359.37,-621.65"/>
<polygon fill="midnightblue" stroke="midnightblue" points="452.88,-753.38 463.42,-754.42 455.83,-747.03 452.88,-753.38"/>
</g>
<!-- Node14&#45;&gt;Node13 -->
<g id="edge24" class="edge">
<title>Node14&#45;&gt;Node13</title>
<path fill="none" stroke="midnightblue" d="M805.68,-730.32C753.89,-734.62 674.05,-741.73 605,-749.98 593.4,-751.36 581.04,-753.02 569.18,-754.7"/>
<polygon fill="midnightblue" stroke="midnightblue" points="805.98,-733.81 815.66,-729.5 805.4,-726.84 805.98,-733.81"/>
</g>
<!-- Node15&#45;&gt;Node13 -->
<g id="edge26" class="edge">
<title>Node15&#45;&gt;Node13</title>
<path fill="none" stroke="midnightblue" d="M796.73,-694.3C744.49,-700.47 669.01,-711.65 605,-729.98 588.34,-734.75 585.29,-739.04 569,-744.98 559.9,-748.3 549.9,-751.58 540.71,-754.46"/>
<polygon fill="midnightblue" stroke="midnightblue" points="797.33,-697.76 806.86,-693.14 796.52,-690.81 797.33,-697.76"/>
</g>
<!-- Node16&#45;&gt;Node2 -->
<g id="edge29" class="edge">
<title>Node16&#45;&gt;Node2</title>
<path fill="none" stroke="midnightblue" d="M466.08,-712.6C459.13,-709.57 452.17,-706.03 446,-701.98 410.42,-678.66 377.3,-639.69 362.97,-621.67"/>
<polygon fill="midnightblue" stroke="midnightblue" points="464.88,-715.89 475.46,-716.42 467.52,-709.41 464.88,-715.89"/>
</g>
<!-- Node17&#45;&gt;Node2 -->
<g id="edge31" class="edge">
<title>Node17&#45;&gt;Node2</title>
<path fill="none" stroke="midnightblue" d="M633.14,-582.16C623.48,-584.83 613.67,-588.35 605,-592.98 585.85,-603.2 589.23,-618.11 569,-625.98 507.03,-650.08 427.34,-633.64 385.01,-621.56"/>
<polygon fill="midnightblue" stroke="midnightblue" points="634.26,-585.49 643.11,-579.67 632.56,-578.7 634.26,-585.49"/>
</g>
<!-- Node18&#45;&gt;Node2 -->
<g id="edge33" class="edge">
<title>Node18&#45;&gt;Node2</title>
<path fill="none" stroke="midnightblue" d="M466.08,-511.36C459.13,-514.39 452.17,-517.93 446,-521.98 410.42,-545.3 377.3,-584.26 362.97,-602.29"/>
<polygon fill="midnightblue" stroke="midnightblue" points="467.52,-514.55 475.46,-507.54 464.88,-508.06 467.52,-514.55"/>
</g>
<!-- Node20&#45;&gt;Node4 -->
<g id="edge36" class="edge">
<title>Node20&#45;&gt;Node4</title>
<path fill="none" stroke="midnightblue" d="M166.55,-22.99C134.99,-25.63 94.93,-34.55 71,-60.98 27.73,-108.79 19.92,-325.78 18.7,-374.32"/>
<polygon fill="midnightblue" stroke="midnightblue" points="167.14,-26.46 176.9,-22.32 166.69,-19.47 167.14,-26.46"/>
</g>
<!-- Node20&#45;&gt;Node9 -->
<g id="edge37" class="edge">
<title>Node20&#45;&gt;Node9</title>
<path fill="none" stroke="midnightblue" d="M185.51,-37.09C179.09,-40.34 172.31,-43.77 166,-46.98 150.53,-54.85 132.99,-63.82 120.12,-70.42"/>
<polygon fill="midnightblue" stroke="midnightblue" points="187.19,-40.17 194.54,-32.53 184.03,-33.92 187.19,-40.17"/>
</g>
<!-- Node21&#45;&gt;Node13 -->
<g id="edge40" class="edge">
<title>Node21&#45;&gt;Node13</title>
<path fill="none" stroke="midnightblue" d="M630.69,-790.59C605.65,-785.13 576,-778.68 552.17,-773.49"/>
<polygon fill="midnightblue" stroke="midnightblue" points="630.24,-794.07 640.76,-792.78 631.73,-787.23 630.24,-794.07"/>
</g>
<!-- Node22&#45;&gt;Node2 -->
<g id="edge42" class="edge">
<title>Node22&#45;&gt;Node2</title>
<path fill="none" stroke="midnightblue" d="M632.53,-624.57C623.14,-627.72 613.58,-631.51 605,-635.98 587.02,-645.34 588.17,-657.4 569,-663.98 517.29,-681.72 498.82,-678.07 446,-663.98 415.19,-655.76 383.97,-634.26 367.46,-621.63"/>
<polygon fill="midnightblue" stroke="midnightblue" points="633.74,-627.85 642.22,-621.5 631.63,-621.18 633.74,-627.85"/>
</g>
<!-- Node22&#45;&gt;Node13 -->
<g id="edge43" class="edge">
<title>Node22&#45;&gt;Node13</title>
<path fill="none" stroke="midnightblue" d="M658.62,-627.26C641.96,-638.62 620.22,-655.32 605,-673.98 582.64,-701.4 595.99,-722.11 569,-744.98 564.38,-748.89 558.95,-752 553.28,-754.47"/>
<polygon fill="midnightblue" stroke="midnightblue" points="660.87,-629.97 667.28,-621.53 657.01,-624.13 660.87,-629.97"/>
</g>
<!-- Node23&#45;&gt;Node2 -->
<g id="edge45" class="edge">
<title>Node23&#45;&gt;Node2</title>
<path fill="none" stroke="midnightblue" d="M798.19,-529.51C744.72,-526.5 666.75,-528.28 605,-554.98 585.08,-563.59 588.76,-578.99 569,-587.98 516.72,-611.77 450.07,-615.62 405.27,-614.91"/>
<polygon fill="midnightblue" stroke="midnightblue" points="798.01,-533.01 808.21,-530.15 798.46,-526.02 798.01,-533.01"/>
</g>
<!-- Node23&#45;&gt;Node22 -->
<g id="edge53" class="edge">
<title>Node23&#45;&gt;Node22</title>
<path fill="none" stroke="midnightblue" d="M838.63,-551.26C819.47,-564.03 790.46,-581.88 763,-592.98 753.18,-596.95 742.31,-600.23 731.89,-602.89"/>
<polygon fill="midnightblue" stroke="midnightblue" points="840.63,-554.13 846.95,-545.63 836.71,-548.34 840.63,-554.13"/>
</g>
<!-- Node24 -->
<g id="node24" class="node">
<title>Node24</title>
<g id="a_node24"><a xlink:href="_transmitter_code_2src_2main_8cpp.html#a3d9d955a8c7cfea4cc99e78f3746bd26" target="_top" xlink:title=" ">
<polygon fill="white" stroke="black" points="642.5,-412.48 642.5,-431.48 725.5,-431.48 725.5,-412.48 642.5,-412.48"/>
<text text-anchor="middle" x="684" y="-419.48" font-family="Helvetica,sans-Serif" font-size="10.00">ReadOneModel</text>
</a>
</g>
</g>
<!-- Node23&#45;&gt;Node24 -->
<g id="edge46" class="edge">
<title>Node23&#45;&gt;Node24</title>
<path fill="none" stroke="midnightblue" d="M837.31,-520.91C800.73,-497.15 730.66,-451.64 699.99,-431.72"/>
<polygon fill="midnightblue" stroke="midnightblue" points="835.55,-523.94 845.84,-526.46 839.36,-518.07 835.55,-523.94"/>
</g>
<!-- Node24&#45;&gt;Node2 -->
<g id="edge47" class="edge">
<title>Node24&#45;&gt;Node2</title>
<path fill="none" stroke="midnightblue" d="M662.24,-437.84C646.34,-450.14 623.98,-467.77 605,-483.98 588.49,-498.07 587.63,-505.84 569,-516.98 519.3,-546.71 498.67,-535.9 446,-559.98 418.15,-572.72 387.63,-591.3 370.1,-602.46"/>
<polygon fill="midnightblue" stroke="midnightblue" points="664.57,-440.47 670.35,-431.59 660.29,-434.92 664.57,-440.47"/>
</g>
<!-- Node24&#45;&gt;Node3 -->
<g id="edge48" class="edge">
<title>Node24&#45;&gt;Node3</title>
<path fill="none" stroke="midnightblue" d="M632.27,-412.28C612.58,-408.84 589.81,-405.27 569,-402.98 459.95,-391 331.11,-386.49 263.09,-384.86"/>
<polygon fill="midnightblue" stroke="midnightblue" points="631.8,-415.75 642.26,-414.06 633.03,-408.86 631.8,-415.75"/>
</g>
<!-- Node24&#45;&gt;Node5 -->
<g id="edge52" class="edge">
<title>Node24&#45;&gt;Node5</title>
<path fill="none" stroke="midnightblue" d="M632.42,-410.69C623.24,-408.35 613.79,-405.75 605,-402.98 588.62,-397.83 585.41,-394.02 569,-388.98 460.52,-355.65 329.55,-329.1 261.54,-316.3"/>
<polygon fill="midnightblue" stroke="midnightblue" points="631.69,-414.12 642.24,-413.12 633.37,-407.32 631.69,-414.12"/>
</g>
<!-- Node25 -->
<g id="node25" class="node">
<title>Node25</title>
<g id="a_node25"><a xlink:href="_transmitter_code_2src_2main_8cpp.html#a909acb7ed667a5cc9c4ec6191fc33e75" target="_top" xlink:title=" ">
<polygon fill="white" stroke="black" points="457.5,-412.48 457.5,-431.48 557.5,-431.48 557.5,-412.48 457.5,-412.48"/>
<text text-anchor="middle" x="507.5" y="-419.48" font-family="Helvetica,sans-Serif" font-size="10.00">LoadAllParameters</text>
</a>
</g>
</g>
<!-- Node24&#45;&gt;Node25 -->
<g id="edge49" class="edge">
<title>Node24&#45;&gt;Node25</title>
<path fill="none" stroke="midnightblue" d="M631.97,-421.98C608.5,-421.98 580.77,-421.98 557.54,-421.98"/>
<polygon fill="midnightblue" stroke="midnightblue" points="632.09,-425.48 642.09,-421.98 632.09,-418.48 632.09,-425.48"/>
</g>
<!-- Node25&#45;&gt;Node2 -->
<g id="edge50" class="edge">
<title>Node25&#45;&gt;Node2</title>
<path fill="none" stroke="midnightblue" d="M461.22,-435.8C455.74,-438.63 450.5,-442 446,-445.98 394.39,-491.67 366.55,-574.1 358.22,-602.25"/>
<polygon fill="midnightblue" stroke="midnightblue" points="462.93,-438.87 470.58,-431.53 460.03,-432.5 462.93,-438.87"/>
</g>
<!-- Node25&#45;&gt;Node19 -->
<g id="edge51" class="edge">
<title>Node25&#45;&gt;Node19</title>
<path fill="none" stroke="midnightblue" d="M492.54,-404.41C461.5,-365.36 387.61,-272.39 363.36,-241.87"/>
<polygon fill="midnightblue" stroke="midnightblue" points="489.84,-406.65 498.8,-412.3 495.32,-402.29 489.84,-406.65"/>
</g>
<!-- Node26&#45;&gt;Node2 -->
<g id="edge55" class="edge">
<title>Node26&#45;&gt;Node2</title>
<path fill="none" stroke="midnightblue" d="M788.71,-877.97C683.95,-876.47 496.21,-867.68 446,-824.98 379.89,-768.75 360.91,-655.77 356.6,-621.84"/>
<polygon fill="midnightblue" stroke="midnightblue" points="788.84,-881.47 798.89,-878.1 788.93,-874.47 788.84,-881.47"/>
</g>
<!-- Node26&#45;&gt;Node10 -->
<g id="edge56" class="edge">
<title>Node26&#45;&gt;Node10</title>
<path fill="none" stroke="midnightblue" d="M806.26,-889.72C778.54,-895.73 745.57,-902.87 721,-908.18"/>
<polygon fill="midnightblue" stroke="midnightblue" points="807.18,-893.11 816.21,-887.57 805.7,-886.26 807.18,-893.11"/>
</g>
<!-- Node27&#45;&gt;Node2 -->
<g id="edge58" class="edge">
<title>Node27&#45;&gt;Node2</title>
<path fill="none" stroke="midnightblue" d="M616.79,-397.2C612.7,-398.9 608.73,-400.82 605,-402.98 584.88,-414.65 588.76,-428.7 569,-440.98 520.4,-471.18 492.01,-444.97 446,-478.98 399.96,-513.01 369.62,-577.82 359.36,-602.3"/>
<polygon fill="midnightblue" stroke="midnightblue" points="618.34,-400.35 626.52,-393.61 615.92,-393.79 618.34,-400.35"/>
</g>
<!-- Node27&#45;&gt;Node3 -->
<g id="edge59" class="edge">
<title>Node27&#45;&gt;Node3</title>
<path fill="none" stroke="midnightblue" d="M606.8,-373.32C594.2,-371.93 581.25,-370.73 569,-369.98 449.22,-362.65 418.59,-360.02 299,-369.98 287.28,-370.96 274.73,-372.69 263.02,-374.61"/>
<polygon fill="midnightblue" stroke="midnightblue" points="606.48,-376.8 616.82,-374.46 607.28,-369.85 606.48,-376.8"/>
</g>
<!-- Node27&#45;&gt;Node5 -->
<g id="edge62" class="edge">
<title>Node27&#45;&gt;Node5</title>
<path fill="none" stroke="midnightblue" d="M668.4,-366.88C648.52,-345.06 610.61,-308.43 569,-293.98 457.74,-255.36 314.83,-282.45 250.1,-298.48"/>
<polygon fill="midnightblue" stroke="midnightblue" points="665.85,-369.28 675.1,-374.44 671.08,-364.64 665.85,-369.28"/>
</g>
<!-- Node27&#45;&gt;Node7 -->
<g id="edge61" class="edge">
<title>Node27&#45;&gt;Node7</title>
<path fill="none" stroke="midnightblue" d="M670.97,-365.65C636.87,-313.66 540.38,-166.57 514.79,-127.57"/>
<polygon fill="midnightblue" stroke="midnightblue" points="668.17,-367.76 676.58,-374.2 674.02,-363.92 668.17,-367.76"/>
</g>
<!-- Node27&#45;&gt;Node13 -->
<g id="edge60" class="edge">
<title>Node27&#45;&gt;Node13</title>
<path fill="none" stroke="midnightblue" d="M608.27,-399.64C607.12,-400.69 606.03,-401.8 605,-402.98 504.41,-518.05 665.78,-626.68 569,-744.98 565.86,-748.81 561.96,-751.89 557.66,-754.35"/>
<polygon fill="midnightblue" stroke="midnightblue" points="610.52,-402.33 616.51,-393.59 606.38,-396.68 610.52,-402.33"/>
</g>
<!-- Node27&#45;&gt;Node18 -->
<g id="edge63" class="edge">
<title>Node27&#45;&gt;Node18</title>
<path fill="none" stroke="midnightblue" d="M612.32,-398C609.76,-399.5 607.3,-401.15 605,-402.98 577.27,-424.96 595.14,-450.13 569,-473.98 562.15,-480.22 553.49,-484.93 544.87,-488.44"/>
<polygon fill="midnightblue" stroke="midnightblue" points="614.01,-401.07 621.4,-393.48 610.89,-394.8 614.01,-401.07"/>
</g>
<!-- Node27&#45;&gt;Node19 -->
<g id="edge64" class="edge">
<title>Node27&#45;&gt;Node19</title>
<path fill="none" stroke="midnightblue" d="M672.86,-365.78C655.69,-336.91 617.91,-281.29 569,-255.98 504.4,-222.55 414.34,-226.12 375.09,-229.72"/>
<polygon fill="midnightblue" stroke="midnightblue" points="669.85,-367.56 677.88,-374.46 675.91,-364.05 669.85,-367.56"/>
</g>
<!-- Node28&#45;&gt;Node2 -->
<g id="edge66" class="edge">
<title>Node28&#45;&gt;Node2</title>
<path fill="none" stroke="midnightblue" d="M793.19,-849.78C704.15,-858.88 546.76,-861.07 446,-782.98 389.72,-739.36 364.59,-650.72 357.61,-621.53"/>
<polygon fill="midnightblue" stroke="midnightblue" points="793.61,-853.26 803.17,-848.7 792.85,-846.3 793.61,-853.26"/>
</g>
<!-- Node29&#45;&gt;Node27 -->
<g id="edge68" class="edge">
<title>Node29&#45;&gt;Node27</title>
<path fill="none" stroke="midnightblue" d="M806.46,-383.98C792.75,-383.98 777.74,-383.98 763.09,-383.98"/>
<polygon fill="midnightblue" stroke="midnightblue" points="806.67,-387.48 816.67,-383.98 806.67,-380.48 806.67,-387.48"/>
</g>
<!-- Node31 -->
<g id="node31" class="node">
<title>Node31</title>
<g id="a_node31"><a xlink:href="_transmitter_code_2src_2main_8cpp.html#ae4be4bb0e33569d140264079d28227fd" target="_top" xlink:title=" ">
<polygon fill="white" stroke="black" points="657.5,-32.48 657.5,-51.48 710.5,-51.48 710.5,-32.48 657.5,-32.48"/>
<text text-anchor="middle" x="684" y="-39.48" font-family="Helvetica,sans-Serif" font-size="10.00">DecTrim</text>
</a>
</g>
</g>
<!-- Node30&#45;&gt;Node31 -->
<g id="edge70" class="edge">
<title>Node30&#45;&gt;Node31</title>
<path fill="none" stroke="midnightblue" d="M806.13,-68.21C774.25,-61.3 735.45,-52.9 710.5,-47.5"/>
<polygon fill="midnightblue" stroke="midnightblue" points="805.7,-71.7 816.21,-70.39 807.18,-64.85 805.7,-71.7"/>
</g>
<!-- Node34 -->
<g id="node34" class="node">
<title>Node34</title>
<g id="a_node34"><a xlink:href="_transmitter_code_2src_2main_8cpp.html#a6e96b79e1edc864e742216a05c7c3622" target="_top" xlink:title=" ">
<polygon fill="white" stroke="black" points="659,-70.48 659,-89.48 709,-89.48 709,-70.48 659,-70.48"/>
<text text-anchor="middle" x="684" y="-77.48" font-family="Helvetica,sans-Serif" font-size="10.00">IncTrim</text>
</a>
</g>
</g>
<!-- Node30&#45;&gt;Node34 -->
<g id="edge74" class="edge">
<title>Node30&#45;&gt;Node34</title>
<path fill="none" stroke="midnightblue" d="M797.66,-79.98C767.06,-79.98 732.05,-79.98 709.29,-79.98"/>
<polygon fill="midnightblue" stroke="midnightblue" points="797.84,-83.48 807.84,-79.98 797.84,-76.48 797.84,-83.48"/>
</g>
<!-- Node32 -->
<g id="node32" class="node">
<title>Node32</title>
<g id="a_node32"><a xlink:href="_transmitter_code_2src_2main_8cpp.html#a17123a117a96a9416dec48d9345f8a5b" target="_top" xlink:title=" ">
<polygon fill="white" stroke="black" points="475,-32.48 475,-51.48 540,-51.48 540,-32.48 475,-32.48"/>
<text text-anchor="middle" x="507.5" y="-39.48" font-family="Helvetica,sans-Serif" font-size="10.00">MoveaTrim</text>
</a>
</g>
</g>
<!-- Node31&#45;&gt;Node32 -->
<g id="edge71" class="edge">
<title>Node31&#45;&gt;Node32</title>
<path fill="none" stroke="midnightblue" d="M647.16,-41.98C615.73,-41.98 570.44,-41.98 540.28,-41.98"/>
<polygon fill="midnightblue" stroke="midnightblue" points="647.25,-45.48 657.25,-41.98 647.25,-38.48 647.25,-45.48"/>
</g>
<!-- Node33 -->
<g id="node33" class="node">
<title>Node33</title>
<g id="a_node33"><a xlink:href="_transmitter_code_2src_2main_8cpp.html#add643409678258cabdb0aa1ae76d802a" target="_top" xlink:title=" ">
<polygon fill="white" stroke="black" points="299,-89.48 299,-108.48 410,-108.48 410,-89.48 299,-89.48"/>
<text text-anchor="middle" x="354.5" y="-96.48" font-family="Helvetica,sans-Serif" font-size="10.00">CheckHardwareTrims</text>
</a>
</g>
</g>
<!-- Node32&#45;&gt;Node33 -->
<g id="edge72" class="edge">
<title>Node32&#45;&gt;Node33</title>
<path fill="none" stroke="midnightblue" d="M471.52,-55.18C443.8,-65.65 405.71,-80.03 380.86,-89.41"/>
<polygon fill="midnightblue" stroke="midnightblue" points="473.11,-58.33 481.23,-51.52 470.63,-51.78 473.11,-58.33"/>
</g>
<!-- Node33&#45;&gt;Node8 -->
<g id="edge73" class="edge">
<title>Node33&#45;&gt;Node8</title>
<path fill="none" stroke="midnightblue" d="M288.81,-98.98C277.18,-98.98 265.39,-98.98 254.76,-98.98"/>
<polygon fill="midnightblue" stroke="midnightblue" points="288.96,-102.48 298.96,-98.98 288.96,-95.48 288.96,-102.48"/>
</g>
<!-- Node34&#45;&gt;Node32 -->
<g id="edge75" class="edge">
<title>Node34&#45;&gt;Node32</title>
<path fill="none" stroke="midnightblue" d="M648.67,-72.5C617.17,-65.64 570.89,-55.57 540.24,-48.89"/>
<polygon fill="midnightblue" stroke="midnightblue" points="648.22,-75.99 658.74,-74.7 649.71,-69.15 648.22,-75.99"/>
</g>
</g>
</svg>
