<?xml version="1.0" encoding="UTF-8" standalone="no"?>
<!DOCTYPE svg PUBLIC "-//W3C//DTD SVG 1.1//EN"
 "http://www.w3.org/Graphics/SVG/1.1/DTD/svg11.dtd">
<!-- Generated by graphviz version 3.0.0 (20220413.0242)
 -->
<!-- Title: BindNow Pages: 1 -->
<svg width="788pt" height="294pt"
 viewBox="0.00 0.00 788.00 294.00" xmlns="http://www.w3.org/2000/svg" xmlns:xlink="http://www.w3.org/1999/xlink">
<g id="graph0" class="graph" transform="scale(1 1) rotate(0) translate(4 290)">
<title>BindNow</title>
<polygon fill="white" stroke="transparent" points="-4,4 -4,-290 784,-290 784,4 -4,4"/>
<!-- Node1 -->
<g id="node1" class="node">
<title>Node1</title>
<g id="a_node1"><a xlink:title=" ">
<polygon fill="#bfbfbf" stroke="black" points="0,-152.5 0,-171.5 56,-171.5 56,-152.5 0,-152.5"/>
<text text-anchor="middle" x="28" y="-159.5" font-family="Helvetica,sans-Serif" font-size="10.00">BindNow</text>
</a>
</g>
</g>
<!-- Node2 -->
<g id="node2" class="node">
<title>Node2</title>
<g id="a_node2"><a xlink:href="_transmitter_code_2src_2main_8cpp.html#a2e38b32674344cfc06b09a71dfcaf3f1" target="_top" xlink:title=" ">
<polygon fill="white" stroke="black" points="417,-152.5 417,-171.5 542,-171.5 542,-152.5 417,-152.5"/>
<text text-anchor="middle" x="479.5" y="-159.5" font-family="Helvetica,sans-Serif" font-size="10.00">MakeBindButtonInvisible</text>
</a>
</g>
</g>
<!-- Node1&#45;&gt;Node2 -->
<g id="edge1" class="edge">
<title>Node1&#45;&gt;Node2</title>
<path fill="none" stroke="midnightblue" d="M56.11,-162C124.37,-162 305.15,-162 406.69,-162"/>
<polygon fill="midnightblue" stroke="midnightblue" points="406.86,-165.5 416.86,-162 406.86,-158.5 406.86,-165.5"/>
</g>
<!-- Node5 -->
<g id="node5" class="node">
<title>Node5</title>
<g id="a_node5"><a xlink:href="_transmitter_code_2src_2main_8cpp.html#a23e0cf21492258d84314ae4d1c4a9042" target="_top" xlink:title=" ">
<polygon fill="white" stroke="black" points="129.5,-76.5 129.5,-95.5 212.5,-95.5 212.5,-76.5 129.5,-76.5"/>
<text text-anchor="middle" x="171" y="-83.5" font-family="Helvetica,sans-Serif" font-size="10.00">SaveOneModel</text>
</a>
</g>
</g>
<!-- Node1&#45;&gt;Node5 -->
<g id="edge4" class="edge">
<title>Node1&#45;&gt;Node5</title>
<path fill="none" stroke="midnightblue" d="M46.86,-152.37C71.23,-139.24 115.09,-115.6 143.35,-100.36"/>
<polygon fill="midnightblue" stroke="midnightblue" points="145.15,-103.37 152.29,-95.55 141.82,-97.21 145.15,-103.37"/>
</g>
<!-- Node10 -->
<g id="node10" class="node">
<title>Node10</title>
<g id="a_node10"><a xlink:href="_transmitter_code_2src_2main_8cpp.html#a9e1de754e1d2d483fb15957f70cf0488" target="_top" xlink:title=" ">
<polygon fill="white" stroke="black" points="92,-209.5 92,-228.5 250,-228.5 250,-209.5 92,-209.5"/>
<text text-anchor="middle" x="171" y="-216.5" font-family="Helvetica,sans-Serif" font-size="10.00">UpdateModelsNameEveryWhere</text>
</a>
</g>
</g>
<!-- Node1&#45;&gt;Node10 -->
<g id="edge9" class="edge">
<title>Node1&#45;&gt;Node10</title>
<path fill="none" stroke="midnightblue" d="M52.6,-171.54C75.68,-180.87 111.03,-195.16 136.91,-205.62"/>
<polygon fill="midnightblue" stroke="midnightblue" points="135.74,-208.93 146.32,-209.43 138.36,-202.44 135.74,-208.93"/>
</g>
<!-- Node3 -->
<g id="node3" class="node">
<title>Node3</title>
<g id="a_node3"><a xlink:href="_transmitter_code_2src_2main_8cpp.html#aecac2f0c289f02ef3c92b85be82eacac" target="_top" xlink:title=" ">
<polygon fill="white" stroke="black" points="578,-152.5 578,-171.5 661,-171.5 661,-152.5 578,-152.5"/>
<text text-anchor="middle" x="619.5" y="-159.5" font-family="Helvetica,sans-Serif" font-size="10.00">SendCommand</text>
</a>
</g>
</g>
<!-- Node2&#45;&gt;Node3 -->
<g id="edge2" class="edge">
<title>Node2&#45;&gt;Node3</title>
<path fill="none" stroke="midnightblue" d="M542.23,-162C550.71,-162 559.34,-162 567.59,-162"/>
<polygon fill="midnightblue" stroke="midnightblue" points="567.81,-165.5 577.81,-162 567.81,-158.5 567.81,-165.5"/>
</g>
<!-- Node4 -->
<g id="node4" class="node">
<title>Node4</title>
<g id="a_node4"><a xlink:href="_transmitter_code_2src_2main_8cpp.html#a43937dd3d9c795271fd9c3eb3c6b6410" target="_top" xlink:title=" ">
<polygon fill="white" stroke="black" points="697,-190.5 697,-209.5 780,-209.5 780,-190.5 697,-190.5"/>
<text text-anchor="middle" x="738.5" y="-197.5" font-family="Helvetica,sans-Serif" font-size="10.00">GetReturnCode</text>
</a>
</g>
</g>
<!-- Node3&#45;&gt;Node4 -->
<g id="edge3" class="edge">
<title>Node3&#45;&gt;Node4</title>
<path fill="none" stroke="midnightblue" d="M650.02,-171.59C664.71,-176.36 682.66,-182.19 698.47,-187.32"/>
<polygon fill="midnightblue" stroke="midnightblue" points="697.39,-190.65 707.99,-190.41 699.56,-184 697.39,-190.65"/>
</g>
<!-- Node6 -->
<g id="node6" class="node">
<title>Node6</title>
<g id="a_node6"><a xlink:href="_transmitter_code_2src_2main_8cpp.html#a6922974b734cfe3a511e074a2d6ac33c" target="_top" xlink:title=" ">
<polygon fill="white" stroke="black" points="289,-114.5 289,-133.5 378,-133.5 378,-114.5 289,-114.5"/>
<text text-anchor="middle" x="333.5" y="-121.5" font-family="Helvetica,sans-Serif" font-size="10.00">CloseModelsFile</text>
</a>
</g>
</g>
<!-- Node5&#45;&gt;Node6 -->
<g id="edge5" class="edge">
<title>Node5&#45;&gt;Node6</title>
<path fill="none" stroke="midnightblue" d="M212.5,-95.59C233.68,-100.6 259.8,-106.79 282.26,-112.11"/>
<polygon fill="midnightblue" stroke="midnightblue" points="281.75,-115.58 292.29,-114.48 283.37,-108.77 281.75,-115.58"/>
</g>
<!-- Node7 -->
<g id="node7" class="node">
<title>Node7</title>
<g id="a_node7"><a xlink:href="_transmitter_code_2src_2main_8cpp.html#ae7618f38a148877bc5681be58cba8354" target="_top" xlink:title=" ">
<polygon fill="white" stroke="black" points="290,-76.5 290,-95.5 377,-95.5 377,-76.5 290,-76.5"/>
<text text-anchor="middle" x="333.5" y="-83.5" font-family="Helvetica,sans-Serif" font-size="10.00">OpenModelsFile</text>
</a>
</g>
</g>
<!-- Node5&#45;&gt;Node7 -->
<g id="edge6" class="edge">
<title>Node5&#45;&gt;Node7</title>
<path fill="none" stroke="midnightblue" d="M212.5,-86C232.86,-86 257.79,-86 279.65,-86"/>
<polygon fill="midnightblue" stroke="midnightblue" points="279.77,-89.5 289.77,-86 279.77,-82.5 279.77,-89.5"/>
</g>
<!-- Node8 -->
<g id="node8" class="node">
<title>Node8</title>
<g id="a_node8"><a xlink:href="_transmitter_code_2src_2main_8cpp.html#ab050a5ccab59581ec4f14a916be9d97b" target="_top" xlink:title=" ">
<polygon fill="white" stroke="black" points="286,-38.5 286,-57.5 381,-57.5 381,-38.5 286,-38.5"/>
<text text-anchor="middle" x="333.5" y="-45.5" font-family="Helvetica,sans-Serif" font-size="10.00">SDUpdate16BITS</text>
</a>
</g>
</g>
<!-- Node5&#45;&gt;Node8 -->
<g id="edge7" class="edge">
<title>Node5&#45;&gt;Node8</title>
<path fill="none" stroke="midnightblue" d="M212.5,-76.41C233.68,-71.4 259.8,-65.21 282.26,-59.89"/>
<polygon fill="midnightblue" stroke="midnightblue" points="283.37,-63.23 292.29,-57.52 281.75,-56.42 283.37,-63.23"/>
</g>
<!-- Node9 -->
<g id="node9" class="node">
<title>Node9</title>
<g id="a_node9"><a xlink:href="_transmitter_code_2src_2main_8cpp.html#a512ed84f4270bd62e922cd7dd82fd427" target="_top" xlink:title=" ">
<polygon fill="white" stroke="black" points="289,-0.5 289,-19.5 378,-19.5 378,-0.5 289,-0.5"/>
<text text-anchor="middle" x="333.5" y="-7.5" font-family="Helvetica,sans-Serif" font-size="10.00">SDUpdate8BITS</text>
</a>
</g>
</g>
<!-- Node5&#45;&gt;Node9 -->
<g id="edge8" class="edge">
<title>Node5&#45;&gt;Node9</title>
<path fill="none" stroke="midnightblue" d="M189.96,-76.49C212.25,-64.81 251.54,-44.63 286,-29 290.13,-27.13 294.51,-25.23 298.85,-23.4"/>
<polygon fill="midnightblue" stroke="midnightblue" points="300.32,-26.58 308.22,-19.52 297.64,-20.11 300.32,-26.58"/>
</g>
<!-- Node11 -->
<g id="node11" class="node">
<title>Node11</title>
<g id="a_node11"><a xlink:href="_transmitter_code_2src_2main_8cpp.html#afe513398f72d5e48f691830a1ef6eb42" target="_top" xlink:title=" ">
<polygon fill="white" stroke="black" points="450.5,-190.5 450.5,-209.5 508.5,-209.5 508.5,-190.5 450.5,-190.5"/>
<text text-anchor="middle" x="479.5" y="-197.5" font-family="Helvetica,sans-Serif" font-size="10.00">SendText</text>
</a>
</g>
</g>
<!-- Node10&#45;&gt;Node11 -->
<g id="edge10" class="edge">
<title>Node10&#45;&gt;Node11</title>
<path fill="none" stroke="midnightblue" d="M250.14,-214.16C310.98,-210.38 392.81,-205.31 440.19,-202.37"/>
<polygon fill="midnightblue" stroke="midnightblue" points="440.56,-205.86 450.32,-201.75 440.13,-198.87 440.56,-205.86"/>
</g>
<!-- Node12 -->
<g id="node12" class="node">
<title>Node12</title>
<g id="a_node12"><a xlink:href="_transmitter_code_2src_2main_8cpp.html#a590a9174319918d7e3d7baca323fcf26" target="_top" xlink:title=" ">
<polygon fill="white" stroke="black" points="605,-266.5 605,-285.5 634,-285.5 634,-266.5 605,-266.5"/>
<text text-anchor="middle" x="619.5" y="-273.5" font-family="Helvetica,sans-Serif" font-size="10.00">Str</text>
</a>
</g>
</g>
<!-- Node10&#45;&gt;Node12 -->
<g id="edge13" class="edge">
<title>Node10&#45;&gt;Node12</title>
<path fill="none" stroke="midnightblue" d="M194.67,-228.54C217.34,-237.61 253.42,-250.75 286,-257 399.95,-278.85 539.57,-278.12 594.59,-276.78"/>
<polygon fill="midnightblue" stroke="midnightblue" points="594.82,-280.28 604.72,-276.5 594.63,-273.28 594.82,-280.28"/>
</g>
<!-- Node13 -->
<g id="node13" class="node">
<title>Node13</title>
<g id="a_node13"><a xlink:href="_transmitter_code_2src_2main_8cpp.html#ac78966debc2cdc13d8ca958ce3b20c78" target="_top" xlink:title=" ">
<polygon fill="white" stroke="black" points="289,-228.5 289,-247.5 378,-247.5 378,-228.5 289,-228.5"/>
<text text-anchor="middle" x="333.5" y="-235.5" font-family="Helvetica,sans-Serif" font-size="10.00">UpdateTrimView</text>
</a>
</g>
</g>
<!-- Node10&#45;&gt;Node13 -->
<g id="edge14" class="edge">
<title>Node10&#45;&gt;Node13</title>
<path fill="none" stroke="midnightblue" d="M250.37,-228.28C259.97,-229.41 269.6,-230.55 278.72,-231.63"/>
<polygon fill="midnightblue" stroke="midnightblue" points="278.43,-235.12 288.77,-232.82 279.25,-228.17 278.43,-235.12"/>
</g>
<!-- Node11&#45;&gt;Node3 -->
<g id="edge12" class="edge">
<title>Node11&#45;&gt;Node3</title>
<path fill="none" stroke="midnightblue" d="M508.76,-192.22C527.55,-187.04 552.62,-180.14 574.05,-174.24"/>
<polygon fill="midnightblue" stroke="midnightblue" points="575.21,-177.55 583.92,-171.52 573.35,-170.8 575.21,-177.55"/>
</g>
<!-- Node11&#45;&gt;Node4 -->
<g id="edge11" class="edge">
<title>Node11&#45;&gt;Node4</title>
<path fill="none" stroke="midnightblue" d="M508.99,-200C551.75,-200 633.17,-200 686.39,-200"/>
<polygon fill="midnightblue" stroke="midnightblue" points="686.63,-203.5 696.63,-200 686.63,-196.5 686.63,-203.5"/>
</g>
<!-- Node14 -->
<g id="node14" class="node">
<title>Node14</title>
<g id="a_node14"><a xlink:href="_transmitter_code_2src_2main_8cpp.html#a1e20efc1e419b252b50d36f9924503fc" target="_top" xlink:title=" ">
<polygon fill="white" stroke="black" points="447.5,-228.5 447.5,-247.5 511.5,-247.5 511.5,-228.5 447.5,-228.5"/>
<text text-anchor="middle" x="479.5" y="-235.5" font-family="Helvetica,sans-Serif" font-size="10.00">SendValue</text>
</a>
</g>
</g>
<!-- Node13&#45;&gt;Node14 -->
<g id="edge15" class="edge">
<title>Node13&#45;&gt;Node14</title>
<path fill="none" stroke="midnightblue" d="M378.1,-238C396.87,-238 418.7,-238 437.21,-238"/>
<polygon fill="midnightblue" stroke="midnightblue" points="437.39,-241.5 447.39,-238 437.39,-234.5 437.39,-241.5"/>
</g>
<!-- Node14&#45;&gt;Node3 -->
<g id="edge17" class="edge">
<title>Node14&#45;&gt;Node3</title>
<path fill="none" stroke="midnightblue" d="M511.65,-230.61C521.63,-227.66 532.53,-223.81 542,-219 563.48,-208.09 585.25,-191.18 600.04,-178.6"/>
<polygon fill="midnightblue" stroke="midnightblue" points="602.64,-180.98 607.89,-171.78 598.05,-175.7 602.64,-180.98"/>
</g>
<!-- Node14&#45;&gt;Node4 -->
<g id="edge16" class="edge">
<title>Node14&#45;&gt;Node4</title>
<path fill="none" stroke="midnightblue" d="M511.55,-234.34C547.56,-229.98 608.7,-222.26 661,-214 669.34,-212.68 678.17,-211.17 686.75,-209.65"/>
<polygon fill="midnightblue" stroke="midnightblue" points="687.45,-213.08 696.67,-207.85 686.21,-206.19 687.45,-213.08"/>
</g>
<!-- Node14&#45;&gt;Node12 -->
<g id="edge18" class="edge">
<title>Node14&#45;&gt;Node12</title>
<path fill="none" stroke="midnightblue" d="M511.81,-246.62C537.08,-253.58 572.06,-263.21 594.98,-269.52"/>
<polygon fill="midnightblue" stroke="midnightblue" points="594.3,-272.97 604.87,-272.25 596.16,-266.22 594.3,-272.97"/>
</g>
</g>
</svg>
