<?xml version="1.0" encoding="UTF-8" standalone="no"?>
<!DOCTYPE svg PUBLIC "-//W3C//DTD SVG 1.1//EN"
 "http://www.w3.org/Graphics/SVG/1.1/DTD/svg11.dtd">
<!-- Generated by graphviz version 3.0.0 (20220413.0106)
 -->
<!-- Title: MapExp Pages: 1 -->
<svg width="640pt" height="165pt"
 viewBox="0.00 0.00 640.00 165.00" xmlns="http://www.w3.org/2000/svg" xmlns:xlink="http://www.w3.org/1999/xlink">
<g id="graph0" class="graph" transform="scale(1 1) rotate(0) translate(4 161)">
<title>MapExp</title>
<polygon fill="white" stroke="transparent" points="-4,4 -4,-161 636,-161 636,4 -4,4"/>
<!-- Node1 -->
<g id="node1" class="node">
<title>Node1</title>
<g id="a_node1"><a xlink:title=" ">
<polygon fill="#bfbfbf" stroke="black" points="581,-57.5 581,-76.5 632,-76.5 632,-57.5 581,-57.5"/>
<text text-anchor="middle" x="606.5" y="-64.5" font-family="Helvetica,sans-Serif" font-size="10.00">MapExp</text>
</a>
</g>
</g>
<!-- Node2 -->
<g id="node2" class="node">
<title>Node2</title>
<g id="a_node2"><a xlink:href="_transmitter_code_2src_2main_8cpp.html#af941d3a33327b2cee79e058ba9cd65f6" target="_top" xlink:title=" ">
<polygon fill="white" stroke="black" points="471,-95.5 471,-114.5 545,-114.5 545,-95.5 471,-95.5"/>
<text text-anchor="middle" x="508" y="-102.5" font-family="Helvetica,sans-Serif" font-size="10.00">DisplayCurve</text>
</a>
</g>
</g>
<!-- Node1&#45;&gt;Node2 -->
<g id="edge1" class="edge">
<title>Node1&#45;&gt;Node2</title>
<path fill="none" stroke="midnightblue" d="M571.82,-80.26C559.15,-85.25 545,-90.82 533.34,-95.41"/>
<polygon fill="midnightblue" stroke="midnightblue" points="573.13,-83.51 581.15,-76.59 570.56,-77 573.13,-83.51"/>
</g>
<!-- Node10 -->
<g id="node10" class="node">
<title>Node10</title>
<g id="a_node10"><a xlink:href="_transmitter_code_2src_2main_8cpp.html#a1a11fabb6c953055a80c5df5eebbfb0d" target="_top" xlink:title="GET NEW SERVO POSITIONS.">
<polygon fill="white" stroke="black" points="201,-38.5 201,-57.5 319,-57.5 319,-38.5 201,-38.5"/>
<text text-anchor="middle" x="260" y="-45.5" font-family="Helvetica,sans-Serif" font-size="10.00">GetNewChannelValues</text>
</a>
</g>
</g>
<!-- Node1&#45;&gt;Node10 -->
<g id="edge12" class="edge">
<title>Node1&#45;&gt;Node10</title>
<path fill="none" stroke="midnightblue" d="M570.42,-65.07C511.28,-61.8 391.19,-55.18 319.24,-51.21"/>
<polygon fill="midnightblue" stroke="midnightblue" points="570.55,-68.58 580.72,-65.63 570.93,-61.59 570.55,-68.58"/>
</g>
<!-- Node3 -->
<g id="node3" class="node">
<title>Node3</title>
<g id="a_node3"><a xlink:href="_transmitter_code_2src_2main_8cpp.html#a8e7ccbf842764fd85cc578be263f7202" target="_top" xlink:title=" ">
<polygon fill="white" stroke="black" points="209.5,-114.5 209.5,-133.5 310.5,-133.5 310.5,-114.5 209.5,-114.5"/>
<text text-anchor="middle" x="260" y="-121.5" font-family="Helvetica,sans-Serif" font-size="10.00">ButtonWasPressed</text>
</a>
</g>
</g>
<!-- Node2&#45;&gt;Node3 -->
<g id="edge2" class="edge">
<title>Node2&#45;&gt;Node3</title>
<path fill="none" stroke="midnightblue" d="M485.06,-120.18C471.35,-128.73 452.95,-138.55 435,-143 385.45,-155.27 326,-143.26 290.98,-133.54"/>
<polygon fill="midnightblue" stroke="midnightblue" points="487.25,-122.93 493.74,-114.55 483.44,-117.06 487.25,-122.93"/>
</g>
<!-- Node6 -->
<g id="node6" class="node">
<title>Node6</title>
<g id="a_node6"><a xlink:href="_transmitter_code_2src_2main_8cpp.html#adf35f0ced7990f813a783d0ecd33bf64" target="_top" xlink:title=" ">
<polygon fill="white" stroke="black" points="355,-76.5 355,-95.5 435,-95.5 435,-76.5 355,-76.5"/>
<text text-anchor="middle" x="395" y="-83.5" font-family="Helvetica,sans-Serif" font-size="10.00">GetFlightMode</text>
</a>
</g>
</g>
<!-- Node2&#45;&gt;Node6 -->
<g id="edge6" class="edge">
<title>Node2&#45;&gt;Node6</title>
<path fill="none" stroke="midnightblue" d="M461.1,-97.14C452.53,-95.68 443.65,-94.16 435.31,-92.73"/>
<polygon fill="midnightblue" stroke="midnightblue" points="460.51,-100.59 470.96,-98.83 461.7,-93.69 460.51,-100.59"/>
</g>
<!-- Node9 -->
<g id="node9" class="node">
<title>Node9</title>
<g id="a_node9"><a xlink:href="_transmitter_code_2src_2main_8cpp.html#aad727ec0b0f9f34487a535eaa4a83172" target="_top" xlink:title="moves point very close to where user hit screen">
<polygon fill="white" stroke="black" points="363.5,-114.5 363.5,-133.5 426.5,-133.5 426.5,-114.5 363.5,-114.5"/>
<text text-anchor="middle" x="395" y="-121.5" font-family="Helvetica,sans-Serif" font-size="10.00">MovePoint</text>
</a>
</g>
</g>
<!-- Node2&#45;&gt;Node9 -->
<g id="edge10" class="edge">
<title>Node2&#45;&gt;Node9</title>
<path fill="none" stroke="midnightblue" d="M460.99,-112.88C449.41,-114.86 437.26,-116.94 426.65,-118.75"/>
<polygon fill="midnightblue" stroke="midnightblue" points="461.7,-116.31 470.96,-111.17 460.51,-109.41 461.7,-116.31"/>
</g>
<!-- Node4 -->
<g id="node4" class="node">
<title>Node4</title>
<g id="a_node4"><a xlink:href="_transmitter_code_2src_2main_8cpp.html#afe461d27b9c48d5921c00d521181f12f" target="_top" xlink:title=" ">
<polygon fill="white" stroke="black" points="0,-57.5 0,-76.5 35,-76.5 35,-57.5 0,-57.5"/>
<text text-anchor="middle" x="17.5" y="-64.5" font-family="Helvetica,sans-Serif" font-size="10.00">loop</text>
</a>
</g>
</g>
<!-- Node3&#45;&gt;Node4 -->
<g id="edge3" class="edge">
<title>Node3&#45;&gt;Node4</title>
<path fill="none" stroke="midnightblue" d="M227.72,-137.25C188.68,-151.62 120.97,-169.22 71,-143 44.02,-128.85 28.17,-93.84 21.79,-76.73"/>
<polygon fill="midnightblue" stroke="midnightblue" points="229.14,-140.46 237.23,-133.61 226.64,-133.92 229.14,-140.46"/>
</g>
<!-- Node5 -->
<g id="node5" class="node">
<title>Node5</title>
<g id="a_node5"><a xlink:href="_transmitter_code_2src_2main_8cpp.html#ab7c9edf843c732d7fe296564f39bc0dc" target="_top" xlink:title="RECEIVE A MODEL FILE.">
<polygon fill="white" stroke="black" points="71,-114.5 71,-133.5 165,-133.5 165,-114.5 71,-114.5"/>
<text text-anchor="middle" x="118" y="-121.5" font-family="Helvetica,sans-Serif" font-size="10.00">ReceiveModelFile</text>
</a>
</g>
</g>
<!-- Node3&#45;&gt;Node5 -->
<g id="edge4" class="edge">
<title>Node3&#45;&gt;Node5</title>
<path fill="none" stroke="midnightblue" d="M199.02,-117.31C187.74,-117.17 176.1,-117.27 165.32,-117.61"/>
<polygon fill="midnightblue" stroke="midnightblue" points="199.18,-120.82 209.25,-117.51 199.32,-113.82 199.18,-120.82"/>
</g>
<!-- Node5&#45;&gt;Node3 -->
<g id="edge5" class="edge">
<title>Node5&#45;&gt;Node3</title>
<path fill="none" stroke="midnightblue" d="M175.43,-130.64C186.62,-130.83 198.3,-130.78 209.25,-130.49"/>
<polygon fill="midnightblue" stroke="midnightblue" points="175.4,-127.13 165.32,-130.39 175.23,-134.13 175.4,-127.13"/>
</g>
<!-- Node7 -->
<g id="node7" class="node">
<title>Node7</title>
<g id="a_node7"><a xlink:href="_transmitter_code_2src_2main_8cpp.html#ab0af36f3442ad4f2d0b716c14c7d6085" target="_top" xlink:title=" ">
<polygon fill="white" stroke="black" points="220,-76.5 220,-95.5 300,-95.5 300,-76.5 220,-76.5"/>
<text text-anchor="middle" x="260" y="-83.5" font-family="Helvetica,sans-Serif" font-size="10.00">ReadSwitches</text>
</a>
</g>
</g>
<!-- Node6&#45;&gt;Node7 -->
<g id="edge7" class="edge">
<title>Node6&#45;&gt;Node7</title>
<path fill="none" stroke="midnightblue" d="M344.47,-86C329.91,-86 314.19,-86 300.36,-86"/>
<polygon fill="midnightblue" stroke="midnightblue" points="344.81,-89.5 354.81,-86 344.81,-82.5 344.81,-89.5"/>
</g>
<!-- Node8 -->
<g id="node8" class="node">
<title>Node8</title>
<g id="a_node8"><a xlink:href="_radio_functions_8cpp.html#a3d7322e78f097d02d476f17a6306997c" target="_top" xlink:title=" ">
<polygon fill="white" stroke="black" points="88.5,-76.5 88.5,-95.5 147.5,-95.5 147.5,-76.5 88.5,-76.5"/>
<text text-anchor="middle" x="118" y="-83.5" font-family="Helvetica,sans-Serif" font-size="10.00">SendData</text>
</a>
</g>
</g>
<!-- Node7&#45;&gt;Node8 -->
<g id="edge8" class="edge">
<title>Node7&#45;&gt;Node8</title>
<path fill="none" stroke="midnightblue" d="M209.44,-86C188.82,-86 165.61,-86 147.87,-86"/>
<polygon fill="midnightblue" stroke="midnightblue" points="209.63,-89.5 219.63,-86 209.63,-82.5 209.63,-89.5"/>
</g>
<!-- Node8&#45;&gt;Node4 -->
<g id="edge9" class="edge">
<title>Node8&#45;&gt;Node4</title>
<path fill="none" stroke="midnightblue" d="M78.18,-78.51C63.22,-75.63 46.91,-72.48 35.13,-70.21"/>
<polygon fill="midnightblue" stroke="midnightblue" points="77.76,-82 88.24,-80.45 79.09,-75.12 77.76,-82"/>
</g>
<!-- Node9&#45;&gt;Node3 -->
<g id="edge11" class="edge">
<title>Node9&#45;&gt;Node3</title>
<path fill="none" stroke="midnightblue" d="M353.13,-124C339.71,-124 324.65,-124 310.66,-124"/>
<polygon fill="midnightblue" stroke="midnightblue" points="353.49,-127.5 363.49,-124 353.49,-120.5 353.49,-127.5"/>
</g>
<!-- Node10&#45;&gt;Node8 -->
<g id="edge17" class="edge">
<title>Node10&#45;&gt;Node8</title>
<path fill="none" stroke="midnightblue" d="M213.98,-60.22C192.24,-66.12 166.8,-73.03 147.72,-78.2"/>
<polygon fill="midnightblue" stroke="midnightblue" points="214.94,-63.59 223.67,-57.59 213.1,-56.83 214.94,-63.59"/>
</g>
<!-- Node11 -->
<g id="node11" class="node">
<title>Node11</title>
<g id="a_node11"><a xlink:href="_transmitter_code_2src_2main_8cpp.html#ae1b8cef371d26fca2b4f5a101be7a8ba" target="_top" xlink:title=" ">
<polygon fill="white" stroke="black" points="76.5,-38.5 76.5,-57.5 159.5,-57.5 159.5,-38.5 76.5,-38.5"/>
<text text-anchor="middle" x="118" y="-45.5" font-family="Helvetica,sans-Serif" font-size="10.00">CalibrateSticks</text>
</a>
</g>
</g>
<!-- Node10&#45;&gt;Node11 -->
<g id="edge13" class="edge">
<title>Node10&#45;&gt;Node11</title>
<path fill="none" stroke="midnightblue" d="M190.72,-48C180.11,-48 169.45,-48 159.71,-48"/>
<polygon fill="midnightblue" stroke="midnightblue" points="190.84,-51.5 200.84,-48 190.84,-44.5 190.84,-51.5"/>
</g>
<!-- Node12 -->
<g id="node12" class="node">
<title>Node12</title>
<g id="a_node12"><a xlink:href="_transmitter_code_2src_2main_8cpp.html#a0e7ca9043d8fa769e8a9290df885e594" target="_top" xlink:title="Get centre as 90 degrees.">
<polygon fill="white" stroke="black" points="75,-0.5 75,-19.5 161,-19.5 161,-0.5 75,-0.5"/>
<text text-anchor="middle" x="118" y="-7.5" font-family="Helvetica,sans-Serif" font-size="10.00">ChannelCentres</text>
</a>
</g>
</g>
<!-- Node10&#45;&gt;Node12 -->
<g id="edge15" class="edge">
<title>Node10&#45;&gt;Node12</title>
<path fill="none" stroke="midnightblue" d="M213.88,-35.75C194.59,-30.52 172.39,-24.49 154.32,-19.59"/>
<polygon fill="midnightblue" stroke="midnightblue" points="213.1,-39.17 223.67,-38.41 214.94,-32.41 213.1,-39.17"/>
</g>
<!-- Node11&#45;&gt;Node4 -->
<g id="edge14" class="edge">
<title>Node11&#45;&gt;Node4</title>
<path fill="none" stroke="midnightblue" d="M66.47,-57.75C55.17,-59.93 43.96,-62.09 35.22,-63.77"/>
<polygon fill="midnightblue" stroke="midnightblue" points="67.21,-61.17 76.37,-55.84 65.89,-54.3 67.21,-61.17"/>
</g>
<!-- Node12&#45;&gt;Node4 -->
<g id="edge16" class="edge">
<title>Node12&#45;&gt;Node4</title>
<path fill="none" stroke="midnightblue" d="M81.33,-23.75C77.79,-25.4 74.29,-27.17 71,-29 56.07,-37.34 40.36,-49.17 30.06,-57.41"/>
<polygon fill="midnightblue" stroke="midnightblue" points="82.97,-26.85 90.71,-19.61 80.15,-20.44 82.97,-26.85"/>
</g>
</g>
</svg>
