<?xml version="1.0" encoding="UTF-8" standalone="no"?>
<!DOCTYPE svg PUBLIC "-//W3C//DTD SVG 1.1//EN"
 "http://www.w3.org/Graphics/SVG/1.1/DTD/svg11.dtd">
<!-- Generated by graphviz version 2.50.0 (20220203.2022)
 -->
<!-- Title: loop Pages: 1 -->
<svg width="1052pt" height="1732pt"
 viewBox="0.00 0.00 1052.00 1731.62" xmlns="http://www.w3.org/2000/svg" xmlns:xlink="http://www.w3.org/1999/xlink">
<g id="graph0" class="graph" transform="scale(1 1) rotate(0) translate(4 1727.62)">
<title>loop</title>
<polygon fill="white" stroke="transparent" points="-4,4 -4,-1727.62 1048,-1727.62 1048,4 -4,4"/>
<!-- Node1 -->
<g id="node1" class="node">
<title>Node1</title>
<g id="a_node1"><a xlink:title=" ">
<polygon fill="#bfbfbf" stroke="black" points="0,-289.12 0,-308.12 35,-308.12 35,-289.12 0,-289.12"/>
<text text-anchor="middle" x="17.5" y="-296.12" font-family="Helvetica,sans-Serif" font-size="10.00">loop</text>
</a>
</g>
</g>
<!-- Node2 -->
<g id="node2" class="node">
<title>Node2</title>
<g id="a_node2"><a xlink:href="_transmitter_code_2src_2main_8cpp.html#aed6c682ed45951f95e0b02cf6b570da2" target="_top" xlink:title=" ">
<polygon fill="white" stroke="red" points="71,-1049.12 71,-1068.12 179,-1068.12 179,-1049.12 71,-1049.12"/>
<text text-anchor="middle" x="125" y="-1056.12" font-family="Helvetica,sans-Serif" font-size="10.00">Button_was_pressed</text>
</a>
</g>
</g>
<!-- Node1&#45;&gt;Node2 -->
<g id="edge1" class="edge">
<title>Node1&#45;&gt;Node2</title>
<path fill="none" stroke="midnightblue" d="M19.83,-308.23C30.79,-387.14 105.9,-928.22 121.26,-1038.88"/>
<polygon fill="midnightblue" stroke="midnightblue" points="117.82,-1039.55 122.66,-1048.97 124.75,-1038.58 117.82,-1039.55"/>
</g>
<!-- Node32 -->
<g id="node17" class="node">
<title>Node32</title>
<g id="a_node17"><a xlink:href="_transmitter_code_2src_2main_8cpp.html#ada95a00a341e4a80176eda743a94ab2e" target="_top" xlink:title=" ">
<polygon fill="white" stroke="black" points="594,-1296.12 594,-1315.12 664,-1315.12 664,-1296.12 594,-1296.12"/>
<text text-anchor="middle" x="629" y="-1303.12" font-family="Helvetica,sans-Serif" font-size="10.00">KickTheDog</text>
</a>
</g>
</g>
<!-- Node1&#45;&gt;Node32 -->
<g id="edge58" class="edge">
<title>Node1&#45;&gt;Node32</title>
<path fill="none" stroke="midnightblue" d="M18.69,-308.46C21.01,-419.92 46.83,-1445.62 215,-1687.62 231.46,-1711.31 240.16,-1723.62 269,-1723.62 269,-1723.62 269,-1723.62 405.5,-1723.62 588.44,-1723.62 621.46,-1407.77 626.97,-1325.18"/>
<polygon fill="midnightblue" stroke="midnightblue" points="630.46,-1325.33 627.57,-1315.14 623.48,-1324.91 630.46,-1325.33"/>
</g>
<!-- Node33 -->
<g id="node18" class="node">
<title>Node33</title>
<g id="a_node18"><a xlink:href="_radio_functions_8cpp.html#a3d7322e78f097d02d476f17a6306997c" target="_top" xlink:title=" ">
<polygon fill="white" stroke="red" points="599.5,-308.12 599.5,-327.12 658.5,-327.12 658.5,-308.12 599.5,-308.12"/>
<text text-anchor="middle" x="629" y="-315.12" font-family="Helvetica,sans-Serif" font-size="10.00">SendData</text>
</a>
</g>
</g>
<!-- Node1&#45;&gt;Node33 -->
<g id="edge63" class="edge">
<title>Node1&#45;&gt;Node33</title>
<path fill="none" stroke="midnightblue" d="M35.18,-300.76C75.35,-305.73 180.68,-317.62 269,-317.62 269,-317.62 269,-317.62 405.5,-317.62 469.87,-317.62 544.72,-317.62 589.13,-317.62"/>
<polygon fill="midnightblue" stroke="midnightblue" points="589.2,-321.12 599.2,-317.62 589.2,-314.12 589.2,-321.12"/>
</g>
<!-- Node48 -->
<g id="node19" class="node">
<title>Node48</title>
<g id="a_node19"><a xlink:href="_transmitter_code_2src_2main_8cpp.html#a62e53eb9359c32b666e3386d62c57037" target="_top" xlink:title=" ">
<polygon fill="white" stroke="red" points="811,-308.12 811,-327.12 883,-327.12 883,-308.12 811,-308.12"/>
<text text-anchor="middle" x="847" y="-315.12" font-family="Helvetica,sans-Serif" font-size="10.00">GreenLedOn</text>
</a>
</g>
</g>
<!-- Node1&#45;&gt;Node48 -->
<g id="edge57" class="edge">
<title>Node1&#45;&gt;Node48</title>
<path fill="none" stroke="midnightblue" d="M35.03,-307.99C45.13,-313.33 58.47,-319.71 71,-323.62 156.1,-350.16 179.86,-355.62 269,-355.62 269,-355.62 269,-355.62 630,-355.62 690.63,-355.62 759.4,-340.92 802.73,-329.8"/>
<polygon fill="midnightblue" stroke="midnightblue" points="803.86,-333.13 812.65,-327.21 802.09,-326.36 803.86,-333.13"/>
</g>
<!-- Node49 -->
<g id="node20" class="node">
<title>Node49</title>
<g id="a_node20"><a xlink:href="_transmitter_code_2src_2main_8cpp.html#a2e38b32674344cfc06b09a71dfcaf3f1" target="_top" xlink:title=" ">
<polygon fill="white" stroke="red" points="919,-270.12 919,-289.12 1044,-289.12 1044,-270.12 919,-270.12"/>
<text text-anchor="middle" x="981.5" y="-277.12" font-family="Helvetica,sans-Serif" font-size="10.00">MakeBindButtonInvisible</text>
</a>
</g>
</g>
<!-- Node1&#45;&gt;Node49 -->
<g id="edge59" class="edge">
<title>Node1&#45;&gt;Node49</title>
<path fill="none" stroke="midnightblue" d="M18.92,-288.85C21.03,-245.12 31.92,-68.01 71,-32.62 136.53,26.71 180.6,-13.62 269,-13.62 269,-13.62 269,-13.62 738.5,-13.62 871.9,-13.62 951.2,-198.93 973.78,-260.21"/>
<polygon fill="midnightblue" stroke="midnightblue" points="970.56,-261.61 977.23,-269.84 977.15,-259.24 970.56,-261.61"/>
</g>
<!-- Node75 -->
<g id="node21" class="node">
<title>Node75</title>
<g id="a_node21"><a xlink:href="_transmitter_code_2src_2main_8cpp.html#a5d3a46c21927cf7a3031a1e68e0b7b48" target="_top" xlink:title="SHOW COMMS.">
<polygon fill="white" stroke="red" points="700,-270.12 700,-289.12 775,-289.12 775,-270.12 700,-270.12"/>
<text text-anchor="middle" x="737.5" y="-277.12" font-family="Helvetica,sans-Serif" font-size="10.00">ShowComms</text>
</a>
</g>
</g>
<!-- Node1&#45;&gt;Node75 -->
<g id="edge66" class="edge">
<title>Node1&#45;&gt;Node75</title>
<path fill="none" stroke="midnightblue" d="M19.74,-288.89C24.45,-253.52 42.43,-132.61 71,-108.62 138.7,-51.77 180.6,-89.62 269,-89.62 269,-89.62 269,-89.62 522,-89.62 624.64,-89.62 701.17,-213.04 727,-260.93"/>
<polygon fill="midnightblue" stroke="midnightblue" points="723.98,-262.72 731.73,-269.94 730.18,-259.46 723.98,-262.72"/>
</g>
<!-- Node128 -->
<g id="node41" class="node">
<title>Node128</title>
<g id="a_node41"><a xlink:href="_transmitter_code_2src_2main_8cpp.html#ae1b8cef371d26fca2b4f5a101be7a8ba" target="_top" xlink:title=" ">
<polygon fill="white" stroke="red" points="83.5,-232.12 83.5,-251.12 166.5,-251.12 166.5,-232.12 83.5,-232.12"/>
<text text-anchor="middle" x="125" y="-239.12" font-family="Helvetica,sans-Serif" font-size="10.00">CalibrateSticks</text>
</a>
</g>
</g>
<!-- Node1&#45;&gt;Node128 -->
<g id="edge46" class="edge">
<title>Node1&#45;&gt;Node128</title>
<path fill="none" stroke="midnightblue" d="M29.96,-288.85C40.2,-280.5 55.87,-268.6 71,-260.62 74.95,-258.54 79.18,-256.59 83.46,-254.8"/>
<polygon fill="midnightblue" stroke="midnightblue" points="84.78,-258.04 92.82,-251.14 82.23,-251.52 84.78,-258.04"/>
</g>
<!-- Node129 -->
<g id="node42" class="node">
<title>Node129</title>
<g id="a_node42"><a xlink:href="_transmitter_code_2src_2main_8cpp.html#ad959eec03b0151ade81dc088593d816c" target="_top" xlink:title=" ">
<polygon fill="white" stroke="red" points="228,-232.12 228,-251.12 312,-251.12 312,-232.12 228,-232.12"/>
<text text-anchor="middle" x="270" y="-239.12" font-family="Helvetica,sans-Serif" font-size="10.00">ShowServoPos</text>
</a>
</g>
</g>
<!-- Node1&#45;&gt;Node129 -->
<g id="edge67" class="edge">
<title>Node1&#45;&gt;Node129</title>
<path fill="none" stroke="midnightblue" d="M19.53,-289.05C22.56,-266.18 33.75,-208.48 71,-184.62 111.42,-158.73 132.9,-171.25 179,-184.62 206.23,-192.52 233.12,-211.39 250.31,-225.27"/>
<polygon fill="midnightblue" stroke="midnightblue" points="248.44,-228.27 258.37,-231.98 252.93,-222.89 248.44,-228.27"/>
</g>
<!-- Node131 -->
<g id="node43" class="node">
<title>Node131</title>
<g id="a_node43"><a xlink:href="_transmitter_code_2src_2main_8cpp.html#a0e7ca9043d8fa769e8a9290df885e594" target="_top" xlink:title="Get centre as 90 degrees.">
<polygon fill="white" stroke="red" points="82,-270.12 82,-289.12 168,-289.12 168,-270.12 82,-270.12"/>
<text text-anchor="middle" x="125" y="-277.12" font-family="Helvetica,sans-Serif" font-size="10.00">ChannelCentres</text>
</a>
</g>
</g>
<!-- Node1&#45;&gt;Node131 -->
<g id="edge48" class="edge">
<title>Node1&#45;&gt;Node131</title>
<path fill="none" stroke="midnightblue" d="M35.45,-295.57C45.38,-293.78 58.52,-291.41 71.63,-289.05"/>
<polygon fill="midnightblue" stroke="midnightblue" points="72.37,-292.47 81.59,-287.26 71.13,-285.59 72.37,-292.47"/>
</g>
<!-- Node132 -->
<g id="node44" class="node">
<title>Node132</title>
<g id="a_node44"><a xlink:href="_transmitter_code_2src_2main_8cpp.html#a984cb52354a84c45e9e41f396a1c5e92" target="_top" xlink:title=" ">
<polygon fill="white" stroke="red" points="76.5,-498.12 76.5,-517.12 173.5,-517.12 173.5,-498.12 76.5,-498.12"/>
<text text-anchor="middle" x="125" y="-505.12" font-family="Helvetica,sans-Serif" font-size="10.00">CheckModelName</text>
</a>
</g>
</g>
<!-- Node1&#45;&gt;Node132 -->
<g id="edge50" class="edge">
<title>Node1&#45;&gt;Node132</title>
<path fill="none" stroke="midnightblue" d="M18.25,-308.38C18,-339.14 21.42,-435.19 71,-488.62 72.23,-489.95 73.57,-491.19 74.98,-492.34"/>
<polygon fill="midnightblue" stroke="midnightblue" points="73.49,-495.54 83.79,-498.03 77.29,-489.66 73.49,-495.54"/>
</g>
<!-- Node133 -->
<g id="node45" class="node">
<title>Node133</title>
<g id="a_node45"><a xlink:href="_transmitter_code_2src_2main_8cpp.html#a2dca4e1c03e2abb86aa3c1843c55a1c2" target="_top" xlink:title=" ">
<polygon fill="white" stroke="red" points="77.5,-194.12 77.5,-213.12 172.5,-213.12 172.5,-194.12 77.5,-194.12"/>
<text text-anchor="middle" x="125" y="-201.12" font-family="Helvetica,sans-Serif" font-size="10.00">CheckScanButton</text>
</a>
</g>
</g>
<!-- Node1&#45;&gt;Node133 -->
<g id="edge53" class="edge">
<title>Node1&#45;&gt;Node133</title>
<path fill="none" stroke="midnightblue" d="M22.7,-289.02C30.17,-273.02 47.22,-240.89 71,-222.62 73.33,-220.83 75.83,-219.2 78.45,-217.72"/>
<polygon fill="midnightblue" stroke="midnightblue" points="80.21,-220.76 87.65,-213.22 77.13,-214.47 80.21,-220.76"/>
</g>
<!-- Node134 -->
<g id="node46" class="node">
<title>Node134</title>
<g id="a_node46"><a xlink:href="_transmitter_code_2src_2main_8cpp.html#acd96c3022716bba17005df2e6b3d0ed6" target="_top" xlink:title=" ">
<polygon fill="white" stroke="black" points="361.5,-707.12 361.5,-726.12 447.5,-726.12 447.5,-707.12 361.5,-707.12"/>
<text text-anchor="middle" x="404.5" y="-714.12" font-family="Helvetica,sans-Serif" font-size="10.00">GetButtonPress</text>
</a>
</g>
</g>
<!-- Node1&#45;&gt;Node134 -->
<g id="edge54" class="edge">
<title>Node1&#45;&gt;Node134</title>
<path fill="none" stroke="midnightblue" d="M20.51,-308.3C25.31,-328.86 39.49,-376.92 71,-400.62 162.95,-469.78 239.97,-373.12 325,-450.62 397.81,-516.98 404.38,-647.17 404.08,-696.78"/>
<polygon fill="midnightblue" stroke="midnightblue" points="400.58,-697.03 403.91,-707.08 407.58,-697.14 400.58,-697.03"/>
</g>
<!-- Node135 -->
<g id="node47" class="node">
<title>Node135</title>
<g id="a_node47"><a xlink:href="_transmitter_code_2src_2main_8cpp.html#a1d43600764a34cbda9c2fa211a12ed2e" target="_top" xlink:title=" ">
<polygon fill="white" stroke="black" points="88,-118.12 88,-137.12 162,-137.12 162,-118.12 88,-118.12"/>
<text text-anchor="middle" x="125" y="-125.12" font-family="Helvetica,sans-Serif" font-size="10.00">GetStatistics</text>
</a>
</g>
</g>
<!-- Node1&#45;&gt;Node135 -->
<g id="edge56" class="edge">
<title>Node1&#45;&gt;Node135</title>
<path fill="none" stroke="midnightblue" d="M19.36,-289.06C22.13,-263.53 33,-192.88 71,-151.62 74.37,-147.96 78.41,-144.82 82.73,-142.13"/>
<polygon fill="midnightblue" stroke="midnightblue" points="84.71,-145.04 91.88,-137.24 81.41,-138.87 84.71,-145.04"/>
</g>
<!-- Node136 -->
<g id="node48" class="node">
<title>Node136</title>
<g id="a_node48"><a xlink:href="_transmitter_code_2src_2main_8cpp.html#a483cced19b61975f76957f5696425fe9" target="_top" xlink:title=" ">
<polygon fill="white" stroke="red" points="94.5,-460.12 94.5,-479.12 155.5,-479.12 155.5,-460.12 94.5,-460.12"/>
<text text-anchor="middle" x="125" y="-467.12" font-family="Helvetica,sans-Serif" font-size="10.00">ReadTime</text>
</a>
</g>
</g>
<!-- Node1&#45;&gt;Node136 -->
<g id="edge60" class="edge">
<title>Node1&#45;&gt;Node136</title>
<path fill="none" stroke="midnightblue" d="M19.36,-308.18C22.13,-333.71 33,-404.36 71,-445.62 75.03,-450 80.02,-453.63 85.3,-456.64"/>
<polygon fill="midnightblue" stroke="midnightblue" points="83.85,-459.82 94.37,-461.11 86.95,-453.54 83.85,-459.82"/>
</g>
<!-- Node138 -->
<g id="node49" class="node">
<title>Node138</title>
<g id="a_node49"><a xlink:href="_radio_functions_8cpp.html#a3856ba0adae43d089f08c7b7f653b306" target="_top" xlink:title="This scans and displays result.">
<polygon fill="white" stroke="red" points="79.5,-42.12 79.5,-61.12 170.5,-61.12 170.5,-42.12 79.5,-42.12"/>
<text text-anchor="middle" x="125" y="-49.12" font-family="Helvetica,sans-Serif" font-size="10.00">ScanAllChannels</text>
</a>
</g>
</g>
<!-- Node1&#45;&gt;Node138 -->
<g id="edge62" class="edge">
<title>Node1&#45;&gt;Node138</title>
<path fill="none" stroke="midnightblue" d="M17.95,-288.85C16.57,-255.11 16.42,-141.97 71,-75.62 73.97,-72.01 77.59,-68.93 81.54,-66.29"/>
<polygon fill="midnightblue" stroke="midnightblue" points="83.57,-69.16 90.57,-61.21 80.14,-63.06 83.57,-69.16"/>
</g>
<!-- Node79 -->
<g id="node50" class="node">
<title>Node79</title>
<g id="a_node50"><a xlink:href="_radio_functions_8cpp.html#a70dc6f8d2e5ccef6b8e4a2b9b0afb2ce" target="_top" xlink:title=" ">
<polygon fill="white" stroke="black" points="370.5,-441.12 370.5,-460.12 438.5,-460.12 438.5,-441.12 370.5,-441.12"/>
<text text-anchor="middle" x="404.5" y="-448.12" font-family="Helvetica,sans-Serif" font-size="10.00">SetThePipe</text>
</a>
</g>
</g>
<!-- Node1&#45;&gt;Node79 -->
<g id="edge64" class="edge">
<title>Node1&#45;&gt;Node79</title>
<path fill="none" stroke="midnightblue" d="M22.71,-308.24C30.08,-323.85 46.85,-354.46 71,-369.62 168.31,-430.69 214.99,-384.51 325,-417.62 341.79,-422.68 359.88,-430.13 374.45,-436.68"/>
<polygon fill="midnightblue" stroke="midnightblue" points="373.37,-440.03 383.92,-441.02 376.29,-433.67 373.37,-440.03"/>
</g>
<!-- Node3 -->
<g id="node3" class="node">
<title>Node3</title>
<g id="a_node3"><a xlink:href="_transmitter_code_2src_2main_8cpp.html#aa1f9aec467eb00917ad9ffdc0bd5b20d" target="_top" xlink:title=" ">
<polygon fill="white" stroke="red" points="237.5,-1600.12 237.5,-1619.12 302.5,-1619.12 302.5,-1600.12 237.5,-1600.12"/>
<text text-anchor="middle" x="270" y="-1607.12" font-family="Helvetica,sans-Serif" font-size="10.00">BlueLedOn</text>
</a>
</g>
</g>
<!-- Node2&#45;&gt;Node3 -->
<g id="edge2" class="edge">
<title>Node2&#45;&gt;Node3</title>
<path fill="none" stroke="midnightblue" d="M126.31,-1068.29C128.59,-1133.32 144.64,-1506.94 215,-1590.62 218.56,-1594.85 223.12,-1598.14 228.08,-1600.7"/>
<polygon fill="midnightblue" stroke="midnightblue" points="226.73,-1603.93 237.31,-1604.56 229.43,-1597.47 226.73,-1603.93"/>
</g>
<!-- Node5 -->
<g id="node4" class="node">
<title>Node5</title>
<g id="a_node4"><a xlink:href="_transmitter_code_2src_2main_8cpp.html#affc6c0de18db71aa5ad8b4d241339731" target="_top" xlink:title=" ">
<polygon fill="white" stroke="red" points="231.5,-1562.12 231.5,-1581.12 308.5,-1581.12 308.5,-1562.12 231.5,-1562.12"/>
<text text-anchor="middle" x="270" y="-1569.12" font-family="Helvetica,sans-Serif" font-size="10.00">BuildDirectory</text>
</a>
</g>
</g>
<!-- Node2&#45;&gt;Node5 -->
<g id="edge3" class="edge">
<title>Node2&#45;&gt;Node5</title>
<path fill="none" stroke="midnightblue" d="M126.45,-1068.39C129.53,-1130.99 149.32,-1475.49 215,-1552.62 217.19,-1555.19 219.75,-1557.42 222.55,-1559.34"/>
<polygon fill="midnightblue" stroke="midnightblue" points="221.04,-1562.51 231.49,-1564.26 224.41,-1556.37 221.04,-1562.51"/>
</g>
<!-- Node6 -->
<g id="node5" class="node">
<title>Node6</title>
<g id="a_node5"><a xlink:href="_transmitter_code_2src_2main_8cpp.html#a535cbca5c4743cf3ffe444846d21113e" target="_top" xlink:title=" ">
<polygon fill="white" stroke="black" points="380.5,-1600.12 380.5,-1619.12 428.5,-1619.12 428.5,-1600.12 380.5,-1600.12"/>
<text text-anchor="middle" x="404.5" y="-1607.12" font-family="Helvetica,sans-Serif" font-size="10.00">InStrng</text>
</a>
</g>
</g>
<!-- Node2&#45;&gt;Node6 -->
<g id="edge39" class="edge">
<title>Node2&#45;&gt;Node6</title>
<path fill="none" stroke="midnightblue" d="M125.89,-1068.39C125.34,-1137.52 125.79,-1552.26 215,-1628.62 260.24,-1667.35 335.79,-1641.79 376.14,-1623.5"/>
<polygon fill="midnightblue" stroke="midnightblue" points="377.8,-1626.59 385.36,-1619.17 374.82,-1620.25 377.8,-1626.59"/>
</g>
<!-- Node8 -->
<g id="node6" class="node">
<title>Node8</title>
<g id="a_node6"><a xlink:href="_transmitter_code_2src_2main_8cpp.html#a722d74e72a1a749c6b215e982657c618" target="_top" xlink:title=" ">
<polygon fill="white" stroke="black" points="228,-1524.12 228,-1543.12 312,-1543.12 312,-1524.12 228,-1524.12"/>
<text text-anchor="middle" x="270" y="-1531.12" font-family="Helvetica,sans-Serif" font-size="10.00">CentreMaxMins</text>
</a>
</g>
</g>
<!-- Node2&#45;&gt;Node8 -->
<g id="edge5" class="edge">
<title>Node2&#45;&gt;Node8</title>
<path fill="none" stroke="midnightblue" d="M126.61,-1068.41C130.54,-1128.2 153.96,-1443.98 215,-1514.62 216.32,-1516.14 217.76,-1517.54 219.31,-1518.83"/>
<polygon fill="midnightblue" stroke="midnightblue" points="217.47,-1521.81 227.75,-1524.39 221.32,-1515.97 217.47,-1521.81"/>
</g>
<!-- Node9 -->
<g id="node7" class="node">
<title>Node9</title>
<g id="a_node7"><a xlink:href="_transmitter_code_2src_2main_8cpp.html#a962a0c149ba58563ca3bad19e999e027" target="_top" xlink:title=" ">
<polygon fill="white" stroke="black" points="221,-1486.12 221,-1505.12 319,-1505.12 319,-1486.12 221,-1486.12"/>
<text text-anchor="middle" x="270" y="-1493.12" font-family="Helvetica,sans-Serif" font-size="10.00">CheckRange_0_16</text>
</a>
</g>
</g>
<!-- Node2&#45;&gt;Node9 -->
<g id="edge6" class="edge">
<title>Node2&#45;&gt;Node9</title>
<path fill="none" stroke="midnightblue" d="M126.79,-1068.32C131.6,-1124.95 158.54,-1412.4 215,-1476.62 216.17,-1477.95 217.45,-1479.2 218.8,-1480.35"/>
<polygon fill="midnightblue" stroke="midnightblue" points="217.03,-1483.38 227.28,-1486.05 220.93,-1477.57 217.03,-1483.38"/>
</g>
<!-- Node10 -->
<g id="node8" class="node">
<title>Node10</title>
<g id="a_node8"><a xlink:href="_transmitter_code_2src_2main_8cpp.html#af0852678d8e89501acee8951f09d3b43" target="_top" xlink:title=" ">
<polygon fill="white" stroke="black" points="241,-1448.12 241,-1467.12 299,-1467.12 299,-1448.12 241,-1448.12"/>
<text text-anchor="middle" x="270" y="-1455.12" font-family="Helvetica,sans-Serif" font-size="10.00">ClearText</text>
</a>
</g>
</g>
<!-- Node2&#45;&gt;Node10 -->
<g id="edge7" class="edge">
<title>Node2&#45;&gt;Node10</title>
<path fill="none" stroke="midnightblue" d="M126.99,-1068.13C132.72,-1121.24 163.08,-1380.75 215,-1438.62 219.4,-1443.52 225.14,-1447.16 231.23,-1449.86"/>
<polygon fill="midnightblue" stroke="midnightblue" points="230.36,-1453.27 240.96,-1453.38 232.74,-1446.68 230.36,-1453.27"/>
</g>
<!-- Node11 -->
<g id="node9" class="node">
<title>Node11</title>
<g id="a_node9"><a xlink:href="_transmitter_code_2src_2main_8cpp.html#a6922974b734cfe3a511e074a2d6ac33c" target="_top" xlink:title=" ">
<polygon fill="white" stroke="black" points="225.5,-1410.12 225.5,-1429.12 314.5,-1429.12 314.5,-1410.12 225.5,-1410.12"/>
<text text-anchor="middle" x="270" y="-1417.12" font-family="Helvetica,sans-Serif" font-size="10.00">CloseModelsFile</text>
</a>
</g>
</g>
<!-- Node2&#45;&gt;Node11 -->
<g id="edge8" class="edge">
<title>Node2&#45;&gt;Node11</title>
<path fill="none" stroke="midnightblue" d="M127.26,-1068.15C134.05,-1118.08 167.66,-1349.14 215,-1400.62 216.23,-1401.95 217.55,-1403.19 218.95,-1404.35"/>
<polygon fill="midnightblue" stroke="midnightblue" points="217.42,-1407.52 227.71,-1410.04 221.24,-1401.65 217.42,-1407.52"/>
</g>
<!-- Node12 -->
<g id="node10" class="node">
<title>Node12</title>
<g id="a_node10"><a xlink:href="_transmitter_code_2src_2main_8cpp.html#ac00389a3b76e3ced4517c6ad4147e86a" target="_top" xlink:title=" ">
<polygon fill="white" stroke="red" points="243,-1372.12 243,-1391.12 297,-1391.12 297,-1372.12 243,-1372.12"/>
<text text-anchor="middle" x="270" y="-1379.12" font-family="Helvetica,sans-Serif" font-size="10.00">DecDate</text>
</a>
</g>
</g>
<!-- Node2&#45;&gt;Node12 -->
<g id="edge9" class="edge">
<title>Node2&#45;&gt;Node12</title>
<path fill="none" stroke="midnightblue" d="M125.85,-1068.31C125.74,-1109.74 130.82,-1273.82 215,-1362.62 219.92,-1367.81 226.33,-1371.58 233.01,-1374.32"/>
<polygon fill="midnightblue" stroke="midnightblue" points="232.26,-1377.76 242.85,-1377.65 234.5,-1371.13 232.26,-1377.76"/>
</g>
<!-- Node17 -->
<g id="node11" class="node">
<title>Node17</title>
<g id="a_node11"><a xlink:href="_transmitter_code_2src_2main_8cpp.html#a053bee2e90b7d0bacffe990847973d4a" target="_top" xlink:title=" ">
<polygon fill="white" stroke="red" points="242.5,-1334.12 242.5,-1353.12 297.5,-1353.12 297.5,-1334.12 242.5,-1334.12"/>
<text text-anchor="middle" x="270" y="-1341.12" font-family="Helvetica,sans-Serif" font-size="10.00">DecHour</text>
</a>
</g>
</g>
<!-- Node2&#45;&gt;Node17 -->
<g id="edge10" class="edge">
<title>Node2&#45;&gt;Node17</title>
<path fill="none" stroke="midnightblue" d="M126.59,-1068.29C129.35,-1105.62 144.1,-1242.06 215,-1319.62 220,-1325.09 226.47,-1329.38 233.19,-1332.72"/>
<polygon fill="midnightblue" stroke="midnightblue" points="231.82,-1335.95 242.39,-1336.72 234.61,-1329.52 231.82,-1335.95"/>
</g>
<!-- Node18 -->
<g id="node12" class="node">
<title>Node18</title>
<g id="a_node12"><a xlink:href="_transmitter_code_2src_2main_8cpp.html#a87fe692c91177cb3eddffaae43ad6d4d" target="_top" xlink:title=" ">
<polygon fill="white" stroke="red" points="238.5,-1220.12 238.5,-1239.12 301.5,-1239.12 301.5,-1220.12 238.5,-1220.12"/>
<text text-anchor="middle" x="270" y="-1227.12" font-family="Helvetica,sans-Serif" font-size="10.00">DecMinute</text>
</a>
</g>
</g>
<!-- Node2&#45;&gt;Node18 -->
<g id="edge11" class="edge">
<title>Node2&#45;&gt;Node18</title>
<path fill="none" stroke="midnightblue" d="M129.04,-1068.38C137.85,-1095.1 165.93,-1170.15 215,-1210.62 219.11,-1214.01 223.87,-1216.82 228.82,-1219.13"/>
<polygon fill="midnightblue" stroke="midnightblue" points="227.89,-1222.53 238.47,-1223 230.5,-1216.03 227.89,-1222.53"/>
</g>
<!-- Node19 -->
<g id="node13" class="node">
<title>Node19</title>
<g id="a_node13"><a xlink:href="_transmitter_code_2src_2main_8cpp.html#a8a749ad1678f2de577b502dfb95400dd" target="_top" xlink:title=" ">
<polygon fill="white" stroke="red" points="239.5,-1182.12 239.5,-1201.12 300.5,-1201.12 300.5,-1182.12 239.5,-1182.12"/>
<text text-anchor="middle" x="270" y="-1189.12" font-family="Helvetica,sans-Serif" font-size="10.00">DecMonth</text>
</a>
</g>
</g>
<!-- Node2&#45;&gt;Node19 -->
<g id="edge12" class="edge">
<title>Node2&#45;&gt;Node19</title>
<path fill="none" stroke="midnightblue" d="M131.06,-1068.39C142.84,-1090.22 174.22,-1143.31 215,-1172.62 219.54,-1175.88 224.69,-1178.63 229.97,-1180.93"/>
<polygon fill="midnightblue" stroke="midnightblue" points="228.9,-1184.27 239.49,-1184.6 231.42,-1177.74 228.9,-1184.27"/>
</g>
<!-- Node20 -->
<g id="node14" class="node">
<title>Node20</title>
<g id="a_node14"><a xlink:href="_transmitter_code_2src_2main_8cpp.html#ad712237b8d367326a7f460181dade102" target="_top" xlink:title=" ">
<polygon fill="white" stroke="red" points="243,-1144.12 243,-1163.12 297,-1163.12 297,-1144.12 243,-1144.12"/>
<text text-anchor="middle" x="270" y="-1151.12" font-family="Helvetica,sans-Serif" font-size="10.00">DecYear</text>
</a>
</g>
</g>
<!-- Node2&#45;&gt;Node20 -->
<g id="edge13" class="edge">
<title>Node2&#45;&gt;Node20</title>
<path fill="none" stroke="midnightblue" d="M134.98,-1068.33C150.11,-1084.19 182.25,-1115.76 215,-1134.62 220.65,-1137.88 226.95,-1140.71 233.2,-1143.13"/>
<polygon fill="midnightblue" stroke="midnightblue" points="232.28,-1146.51 242.88,-1146.58 234.63,-1139.92 232.28,-1146.51"/>
</g>
<!-- Node21 -->
<g id="node15" class="node">
<title>Node21</title>
<g id="a_node15"><a xlink:href="_transmitter_code_2src_2main_8cpp.html#af941d3a33327b2cee79e058ba9cd65f6" target="_top" xlink:title=" ">
<polygon fill="white" stroke="red" points="367.5,-1258.12 367.5,-1277.12 441.5,-1277.12 441.5,-1258.12 367.5,-1258.12"/>
<text text-anchor="middle" x="404.5" y="-1265.12" font-family="Helvetica,sans-Serif" font-size="10.00">DisplayCurve</text>
</a>
</g>
</g>
<!-- Node2&#45;&gt;Node21 -->
<g id="edge14" class="edge">
<title>Node2&#45;&gt;Node21</title>
<path fill="none" stroke="midnightblue" d="M126.22,-1068.24C127.66,-1104.59 138.16,-1234.13 215,-1286.62 263.2,-1319.55 335.15,-1297.69 374.77,-1281.19"/>
<polygon fill="midnightblue" stroke="midnightblue" points="376.32,-1284.33 384.11,-1277.14 373.54,-1277.9 376.32,-1284.33"/>
</g>
<!-- Node31 -->
<g id="node16" class="node">
<title>Node31</title>
<g id="a_node16"><a xlink:href="_radio_functions_8cpp.html#a760609a682300dfe6bfaac737fd4d5eb" target="_top" xlink:title=" ">
<polygon fill="white" stroke="black" points="484,-1068.12 484,-1087.12 558,-1087.12 558,-1068.12 484,-1068.12"/>
<text text-anchor="middle" x="521" y="-1075.12" font-family="Helvetica,sans-Serif" font-size="10.00">Procrastinate</text>
</a>
</g>
</g>
<!-- Node2&#45;&gt;Node31 -->
<g id="edge43" class="edge">
<title>Node2&#45;&gt;Node31</title>
<path fill="none" stroke="midnightblue" d="M125.82,-1068.34C124.77,-1138.96 122.16,-1572.66 215,-1652.62 293.88,-1720.56 376.73,-1704.51 448,-1628.62 522.03,-1549.8 521.62,-1186.51 520.37,-1097.4"/>
<polygon fill="midnightblue" stroke="midnightblue" points="523.87,-1097.25 520.21,-1087.31 516.87,-1097.36 523.87,-1097.25"/>
</g>
<!-- Node81 -->
<g id="node22" class="node">
<title>Node81</title>
<g id="a_node22"><a xlink:href="_transmitter_code_2src_2main_8cpp.html#aba44d61ea51411cb5c601beb94b6fef4" target="_top" xlink:title=" ">
<polygon fill="white" stroke="red" points="215,-1106.12 215,-1125.12 325,-1125.12 325,-1106.12 215,-1106.12"/>
<text text-anchor="middle" x="270" y="-1113.12" font-family="Helvetica,sans-Serif" font-size="10.00">DoNewChannelName</text>
</a>
</g>
</g>
<!-- Node2&#45;&gt;Node81 -->
<g id="edge23" class="edge">
<title>Node2&#45;&gt;Node81</title>
<path fill="none" stroke="midnightblue" d="M147.42,-1068.23C165.35,-1076.16 191.67,-1087.55 215,-1096.62 220.21,-1098.65 225.74,-1100.7 231.19,-1102.67"/>
<polygon fill="midnightblue" stroke="midnightblue" points="230.25,-1106.05 240.85,-1106.1 232.6,-1099.46 230.25,-1106.05"/>
</g>
<!-- Node86 -->
<g id="node23" class="node">
<title>Node86</title>
<g id="a_node23"><a xlink:href="_radio_functions_8cpp.html#a31fb6a46af68482e107cddee58dfb677" target="_top" xlink:title=" ">
<polygon fill="white" stroke="red" points="236,-1068.12 236,-1087.12 304,-1087.12 304,-1068.12 236,-1068.12"/>
<text text-anchor="middle" x="270" y="-1075.12" font-family="Helvetica,sans-Serif" font-size="10.00">DoScanEnd</text>
</a>
</g>
</g>
<!-- Node2&#45;&gt;Node86 -->
<g id="edge24" class="edge">
<title>Node2&#45;&gt;Node86</title>
<path fill="none" stroke="midnightblue" d="M179.25,-1065.7C194.46,-1067.72 210.84,-1069.89 225.4,-1071.83"/>
<polygon fill="midnightblue" stroke="midnightblue" points="225.26,-1075.34 235.64,-1073.19 226.18,-1068.4 225.26,-1075.34"/>
</g>
<!-- Node87 -->
<g id="node24" class="node">
<title>Node87</title>
<g id="a_node24"><a xlink:href="_radio_functions_8cpp.html#a77c4a4ffa609df08830ccece07bf283b" target="_top" xlink:title=" ">
<polygon fill="white" stroke="red" points="237.5,-1030.12 237.5,-1049.12 302.5,-1049.12 302.5,-1030.12 237.5,-1030.12"/>
<text text-anchor="middle" x="270" y="-1037.12" font-family="Helvetica,sans-Serif" font-size="10.00">DoScanInit</text>
</a>
</g>
</g>
<!-- Node2&#45;&gt;Node87 -->
<g id="edge25" class="edge">
<title>Node2&#45;&gt;Node87</title>
<path fill="none" stroke="midnightblue" d="M179.25,-1051.55C195.12,-1049.44 212.28,-1047.16 227.3,-1045.16"/>
<polygon fill="midnightblue" stroke="midnightblue" points="227.86,-1048.62 237.31,-1043.83 226.94,-1041.68 227.86,-1048.62"/>
</g>
<!-- Node88 -->
<g id="node25" class="node">
<title>Node88</title>
<g id="a_node25"><a xlink:href="_transmitter_code_2src_2main_8cpp.html#a6bdc6419b47dda71d0d2c8faf652adc2" target="_top" xlink:title=" ">
<polygon fill="white" stroke="red" points="231.5,-992.12 231.5,-1011.12 308.5,-1011.12 308.5,-992.12 231.5,-992.12"/>
<text text-anchor="middle" x="270" y="-999.12" font-family="Helvetica,sans-Serif" font-size="10.00">DrawFhssBox</text>
</a>
</g>
</g>
<!-- Node2&#45;&gt;Node88 -->
<g id="edge26" class="edge">
<title>Node2&#45;&gt;Node88</title>
<path fill="none" stroke="midnightblue" d="M147.42,-1049.01C165.35,-1041.08 191.67,-1029.69 215,-1020.62 220.21,-1018.59 225.74,-1016.54 231.19,-1014.57"/>
<polygon fill="midnightblue" stroke="midnightblue" points="232.6,-1017.79 240.85,-1011.14 230.25,-1011.19 232.6,-1017.79"/>
</g>
<!-- Node90 -->
<g id="node26" class="node">
<title>Node90</title>
<g id="a_node26"><a xlink:href="_receiver_code_2src_2main_8cpp.html#a42318598726782ebb2e1857f167c8cda" target="_top" xlink:title=" ">
<polygon fill="white" stroke="red" points="243.5,-954.12 243.5,-973.12 296.5,-973.12 296.5,-954.12 243.5,-954.12"/>
<text text-anchor="middle" x="270" y="-961.12" font-family="Helvetica,sans-Serif" font-size="10.00">FailSafe</text>
</a>
</g>
</g>
<!-- Node2&#45;&gt;Node90 -->
<g id="edge27" class="edge">
<title>Node2&#45;&gt;Node90</title>
<path fill="none" stroke="midnightblue" d="M134.98,-1048.91C150.11,-1033.06 182.25,-1001.48 215,-982.62 220.76,-979.3 227.21,-976.42 233.58,-973.97"/>
<polygon fill="midnightblue" stroke="midnightblue" points="235.17,-977.12 243.42,-970.48 232.83,-970.52 235.17,-977.12"/>
</g>
<!-- Node93 -->
<g id="node27" class="node">
<title>Node93</title>
<g id="a_node27"><a xlink:href="_transmitter_code_2src_2main_8cpp.html#a493eeacfcf61a53db5933a893f7d94a6" target="_top" xlink:title=" ">
<polygon fill="white" stroke="black" points="223.5,-460.12 223.5,-479.12 316.5,-479.12 316.5,-460.12 223.5,-460.12"/>
<text text-anchor="middle" x="270" y="-467.12" font-family="Helvetica,sans-Serif" font-size="10.00">FixDeltaGMTSign</text>
</a>
</g>
</g>
<!-- Node2&#45;&gt;Node93 -->
<g id="edge28" class="edge">
<title>Node2&#45;&gt;Node93</title>
<path fill="none" stroke="midnightblue" d="M126.2,-1048.71C127.76,-980.35 140.08,-578.72 215,-488.62 216.01,-487.4 217.11,-486.26 218.27,-485.2"/>
<polygon fill="midnightblue" stroke="midnightblue" points="220.66,-487.79 226.81,-479.16 216.62,-482.08 220.66,-487.79"/>
</g>
<!-- Node94 -->
<g id="node28" class="node">
<title>Node94</title>
<g id="a_node28"><a xlink:href="_transmitter_code_2src_2main_8cpp.html#aa1e81e58421a34fdfd7bfb31925f5a90" target="_top" xlink:title=" ">
<polygon fill="white" stroke="black" points="225,-878.12 225,-897.12 315,-897.12 315,-878.12 225,-878.12"/>
<text text-anchor="middle" x="270" y="-885.12" font-family="Helvetica,sans-Serif" font-size="10.00">Force_ReDisplay</text>
</a>
</g>
</g>
<!-- Node2&#45;&gt;Node94 -->
<g id="edge29" class="edge">
<title>Node2&#45;&gt;Node94</title>
<path fill="none" stroke="midnightblue" d="M129.44,-1049.01C139.07,-1023.36 168.67,-952.45 215,-911.62 219.28,-907.85 224.25,-904.58 229.41,-901.78"/>
<polygon fill="midnightblue" stroke="midnightblue" points="231.32,-904.74 238.79,-897.23 228.26,-898.45 231.32,-904.74"/>
</g>
<!-- Node95 -->
<g id="node29" class="node">
<title>Node95</title>
<g id="a_node29"><a xlink:href="_transmitter_code_2src_2main_8cpp.html#aeb87480505eb543d9a7d85f7b15bd563" target="_top" xlink:title="Discover which channel to setup.">
<polygon fill="white" stroke="black" points="236,-840.12 236,-859.12 304,-859.12 304,-840.12 236,-840.12"/>
<text text-anchor="middle" x="270" y="-847.12" font-family="Helvetica,sans-Serif" font-size="10.00">GetChannel</text>
</a>
</g>
</g>
<!-- Node2&#45;&gt;Node95 -->
<g id="edge30" class="edge">
<title>Node2&#45;&gt;Node95</title>
<path fill="none" stroke="midnightblue" d="M127.82,-1048.75C134.06,-1017.64 157.47,-920.68 215,-868.62 218.41,-865.54 222.35,-862.95 226.51,-860.77"/>
<polygon fill="midnightblue" stroke="midnightblue" points="228.14,-863.88 235.88,-856.65 225.32,-857.47 228.14,-863.88"/>
</g>
<!-- Node96 -->
<g id="node30" class="node">
<title>Node96</title>
<g id="a_node30"><a xlink:href="_transmitter_code_2src_2main_8cpp.html#a5b456468ac6be5e872b327e0d03a9f7a" target="_top" xlink:title=" ">
<polygon fill="white" stroke="black" points="226.5,-802.12 226.5,-821.12 313.5,-821.12 313.5,-802.12 226.5,-802.12"/>
<text text-anchor="middle" x="270" y="-809.12" font-family="Helvetica,sans-Serif" font-size="10.00">GetNextNumber</text>
</a>
</g>
</g>
<!-- Node2&#45;&gt;Node96 -->
<g id="edge31" class="edge">
<title>Node2&#45;&gt;Node96</title>
<path fill="none" stroke="midnightblue" d="M126.95,-1048.82C130.85,-1013.97 148.71,-894.71 215,-830.62 216.63,-829.05 218.39,-827.61 220.25,-826.28"/>
<polygon fill="midnightblue" stroke="midnightblue" points="222.08,-829.27 228.95,-821.21 218.55,-823.23 222.08,-829.27"/>
</g>
<!-- Node97 -->
<g id="node31" class="node">
<title>Node97</title>
<g id="a_node31"><a xlink:href="_transmitter_code_2src_2main_8cpp.html#ac8919b32f9c38cc65c7b93cae664acfb" target="_top" xlink:title=" ">
<polygon fill="white" stroke="red" points="229.5,-764.12 229.5,-783.12 310.5,-783.12 310.5,-764.12 229.5,-764.12"/>
<text text-anchor="middle" x="270" y="-771.12" font-family="Helvetica,sans-Serif" font-size="10.00">GetOtherValue</text>
</a>
</g>
</g>
<!-- Node2&#45;&gt;Node97 -->
<g id="edge32" class="edge">
<title>Node2&#45;&gt;Node97</title>
<path fill="none" stroke="midnightblue" d="M126.31,-1049.11C128.08,-1011.18 139.66,-869.13 215,-792.62 216.64,-790.95 218.44,-789.43 220.35,-788.04"/>
<polygon fill="midnightblue" stroke="midnightblue" points="222.47,-790.85 229.32,-782.77 218.92,-784.82 222.47,-790.85"/>
</g>
<!-- Node100 -->
<g id="node32" class="node">
<title>Node100</title>
<g id="a_node32"><a xlink:href="_transmitter_code_2src_2main_8cpp.html#ad957c44f88874b35bd11323a86408e59" target="_top" xlink:title=" ">
<polygon fill="white" stroke="red" points="241.5,-536.12 241.5,-555.12 298.5,-555.12 298.5,-536.12 241.5,-536.12"/>
<text text-anchor="middle" x="270" y="-543.12" font-family="Helvetica,sans-Serif" font-size="10.00">GetValue</text>
</a>
</g>
</g>
<!-- Node2&#45;&gt;Node100 -->
<g id="edge33" class="edge">
<title>Node2&#45;&gt;Node100</title>
<path fill="none" stroke="midnightblue" d="M126.45,-1048.85C129.53,-986.25 149.32,-641.75 215,-564.62 219.46,-559.38 225.45,-555.59 231.83,-552.84"/>
<polygon fill="midnightblue" stroke="midnightblue" points="233.03,-556.13 241.3,-549.52 230.71,-549.53 233.03,-556.13"/>
</g>
<!-- Node101 -->
<g id="node33" class="node">
<title>Node101</title>
<g id="a_node33"><a xlink:href="_transmitter_code_2src_2main_8cpp.html#ac3f1d629a53f2b8bb9aa5bdc2b0a730d" target="_top" xlink:title=" ">
<polygon fill="white" stroke="red" points="245,-726.12 245,-745.12 295,-745.12 295,-726.12 245,-726.12"/>
<text text-anchor="middle" x="270" y="-733.12" font-family="Helvetica,sans-Serif" font-size="10.00">IncDate</text>
</a>
</g>
</g>
<!-- Node2&#45;&gt;Node101 -->
<g id="edge34" class="edge">
<title>Node2&#45;&gt;Node101</title>
<path fill="none" stroke="midnightblue" d="M125.85,-1048.93C125.74,-1007.51 130.82,-843.43 215,-754.62 220.42,-748.9 227.66,-744.9 235.07,-742.11"/>
<polygon fill="midnightblue" stroke="midnightblue" points="236.28,-745.4 244.78,-739.08 234.19,-738.72 236.28,-745.4"/>
</g>
<!-- Node102 -->
<g id="node34" class="node">
<title>Node102</title>
<g id="a_node34"><a xlink:href="_transmitter_code_2src_2main_8cpp.html#aee918002ab8f85e66499b048b6ce722b" target="_top" xlink:title=" ">
<polygon fill="white" stroke="red" points="244.5,-688.12 244.5,-707.12 295.5,-707.12 295.5,-688.12 244.5,-688.12"/>
<text text-anchor="middle" x="270" y="-695.12" font-family="Helvetica,sans-Serif" font-size="10.00">IncHour</text>
</a>
</g>
</g>
<!-- Node2&#45;&gt;Node102 -->
<g id="edge35" class="edge">
<title>Node2&#45;&gt;Node102</title>
<path fill="none" stroke="midnightblue" d="M127.26,-1049.09C134.05,-999.16 167.66,-768.1 215,-716.62 220.23,-710.94 227.25,-706.95 234.51,-704.16"/>
<polygon fill="midnightblue" stroke="midnightblue" points="235.91,-707.39 244.39,-701.04 233.8,-700.71 235.91,-707.39"/>
</g>
<!-- Node103 -->
<g id="node35" class="node">
<title>Node103</title>
<g id="a_node35"><a xlink:href="_transmitter_code_2src_2main_8cpp.html#a7db4bbbc2d6fc9114c7758525fa4c088" target="_top" xlink:title=" ">
<polygon fill="white" stroke="red" points="240.5,-650.12 240.5,-669.12 299.5,-669.12 299.5,-650.12 240.5,-650.12"/>
<text text-anchor="middle" x="270" y="-657.12" font-family="Helvetica,sans-Serif" font-size="10.00">IncMinute</text>
</a>
</g>
</g>
<!-- Node2&#45;&gt;Node103 -->
<g id="edge36" class="edge">
<title>Node2&#45;&gt;Node103</title>
<path fill="none" stroke="midnightblue" d="M126.99,-1049.11C132.72,-996 163.08,-736.49 215,-678.62 219.31,-673.81 224.91,-670.22 230.87,-667.54"/>
<polygon fill="midnightblue" stroke="midnightblue" points="232.22,-670.77 240.4,-664.03 229.8,-664.21 232.22,-670.77"/>
</g>
<!-- Node104 -->
<g id="node36" class="node">
<title>Node104</title>
<g id="a_node36"><a xlink:href="_transmitter_code_2src_2main_8cpp.html#ac6e0db167f018387da880dd95ab198e7" target="_top" xlink:title=" ">
<polygon fill="white" stroke="red" points="241.5,-612.12 241.5,-631.12 298.5,-631.12 298.5,-612.12 241.5,-612.12"/>
<text text-anchor="middle" x="270" y="-619.12" font-family="Helvetica,sans-Serif" font-size="10.00">IncMonth</text>
</a>
</g>
</g>
<!-- Node2&#45;&gt;Node104 -->
<g id="edge37" class="edge">
<title>Node2&#45;&gt;Node104</title>
<path fill="none" stroke="midnightblue" d="M126.79,-1048.92C131.6,-992.29 158.54,-704.84 215,-640.62 219.54,-635.46 225.57,-631.69 231.96,-628.96"/>
<polygon fill="midnightblue" stroke="midnightblue" points="233.16,-632.24 241.43,-625.63 230.84,-625.64 233.16,-632.24"/>
</g>
<!-- Node105 -->
<g id="node37" class="node">
<title>Node105</title>
<g id="a_node37"><a xlink:href="_transmitter_code_2src_2main_8cpp.html#a30a6637e60923c45a28bdfb938903207" target="_top" xlink:title=" ">
<polygon fill="white" stroke="red" points="245,-574.12 245,-593.12 295,-593.12 295,-574.12 245,-574.12"/>
<text text-anchor="middle" x="270" y="-581.12" font-family="Helvetica,sans-Serif" font-size="10.00">IncYear</text>
</a>
</g>
</g>
<!-- Node2&#45;&gt;Node105 -->
<g id="edge38" class="edge">
<title>Node2&#45;&gt;Node105</title>
<path fill="none" stroke="midnightblue" d="M126.61,-1048.83C130.54,-989.04 153.96,-673.27 215,-602.62 220.3,-596.49 227.7,-592.33 235.33,-589.52"/>
<polygon fill="midnightblue" stroke="midnightblue" points="236.41,-592.85 244.98,-586.63 234.39,-586.15 236.41,-592.85"/>
</g>
<!-- Node106 -->
<g id="node38" class="node">
<title>Node106</title>
<g id="a_node38"><a xlink:href="_transmitter_code_2src_2main_8cpp.html#aad727ec0b0f9f34487a535eaa4a83172" target="_top" xlink:title="moves point very close to where user hit screen">
<polygon fill="white" stroke="red" points="238.5,-1258.12 238.5,-1277.12 301.5,-1277.12 301.5,-1258.12 238.5,-1258.12"/>
<text text-anchor="middle" x="270" y="-1265.12" font-family="Helvetica,sans-Serif" font-size="10.00">MovePoint</text>
</a>
</g>
</g>
<!-- Node2&#45;&gt;Node106 -->
<g id="edge40" class="edge">
<title>Node2&#45;&gt;Node106</title>
<path fill="none" stroke="midnightblue" d="M127.82,-1068.5C134.06,-1099.6 157.47,-1196.56 215,-1248.62 219.1,-1252.33 223.97,-1255.32 229.07,-1257.74"/>
<polygon fill="midnightblue" stroke="midnightblue" points="227.83,-1261.01 238.41,-1261.49 230.44,-1254.52 227.83,-1261.01"/>
</g>
<!-- Node83 -->
<g id="node39" class="node">
<title>Node83</title>
<g id="a_node39"><a xlink:href="_transmitter_code_2src_2main_8cpp.html#ae7618f38a148877bc5681be58cba8354" target="_top" xlink:title=" ">
<polygon fill="white" stroke="black" points="361,-859.12 361,-878.12 448,-878.12 448,-859.12 361,-859.12"/>
<text text-anchor="middle" x="404.5" y="-866.12" font-family="Helvetica,sans-Serif" font-size="10.00">OpenModelsFile</text>
</a>
</g>
</g>
<!-- Node2&#45;&gt;Node83 -->
<g id="edge42" class="edge">
<title>Node2&#45;&gt;Node83</title>
<path fill="none" stroke="midnightblue" d="M131.05,-1048.83C142.8,-1026.97 174.14,-973.81 215,-944.62 257.09,-914.56 277.19,-926.37 325,-906.62 342.33,-899.46 361.27,-890.33 376.2,-882.82"/>
<polygon fill="midnightblue" stroke="midnightblue" points="378.05,-885.8 385.38,-878.15 374.88,-879.56 378.05,-885.8"/>
</g>
<!-- Node108 -->
<g id="node40" class="node">
<title>Node108</title>
<g id="a_node40"><a xlink:href="_transmitter_code_2src_2main_8cpp.html#a3d9d955a8c7cfea4cc99e78f3746bd26" target="_top" xlink:title=" ">
<polygon fill="white" stroke="red" points="228.5,-498.12 228.5,-517.12 311.5,-517.12 311.5,-498.12 228.5,-498.12"/>
<text text-anchor="middle" x="270" y="-505.12" font-family="Helvetica,sans-Serif" font-size="10.00">ReadOneModel</text>
</a>
</g>
</g>
<!-- Node2&#45;&gt;Node108 -->
<g id="edge44" class="edge">
<title>Node2&#45;&gt;Node108</title>
<path fill="none" stroke="midnightblue" d="M126.31,-1048.95C128.59,-983.92 144.64,-610.3 215,-526.62 216.48,-524.86 218.14,-523.26 219.92,-521.81"/>
<polygon fill="midnightblue" stroke="midnightblue" points="221.91,-524.69 228.45,-516.35 218.14,-518.8 221.91,-524.69"/>
</g>
<!-- Node5&#45;&gt;Node6 -->
<g id="edge4" class="edge">
<title>Node5&#45;&gt;Node6</title>
<path fill="none" stroke="midnightblue" d="M304.44,-1581.21C324.64,-1587 350.28,-1594.36 370.42,-1600.13"/>
<polygon fill="midnightblue" stroke="midnightblue" points="369.52,-1603.52 380.1,-1602.91 371.45,-1596.79 369.52,-1603.52"/>
</g>
<!-- Node21&#45;&gt;Node31 -->
<g id="edge15" class="edge">
<title>Node21&#45;&gt;Node31</title>
<path fill="none" stroke="midnightblue" d="M411.34,-1257.94C429.4,-1227.96 484.63,-1136.31 508.65,-1096.46"/>
<polygon fill="midnightblue" stroke="midnightblue" points="511.88,-1097.88 514.04,-1087.51 505.88,-1094.27 511.88,-1097.88"/>
</g>
<!-- Node31&#45;&gt;Node32 -->
<g id="edge16" class="edge">
<title>Node31&#45;&gt;Node32</title>
<path fill="none" stroke="midnightblue" d="M526.42,-1087.13C542.45,-1121.6 597.71,-1240.46 619.28,-1286.86"/>
<polygon fill="midnightblue" stroke="midnightblue" points="616.17,-1288.48 623.56,-1296.07 622.52,-1285.53 616.17,-1288.48"/>
</g>
<!-- Node31&#45;&gt;Node33 -->
<g id="edge17" class="edge">
<title>Node31&#45;&gt;Node33</title>
<path fill="none" stroke="midnightblue" d="M523.34,-1068.01C534.35,-989.1 609.81,-448.02 625.25,-337.36"/>
<polygon fill="midnightblue" stroke="midnightblue" points="628.74,-337.66 626.65,-327.27 621.81,-336.69 628.74,-337.66"/>
</g>
<!-- Node33&#45;&gt;Node48 -->
<g id="edge18" class="edge">
<title>Node33&#45;&gt;Node48</title>
<path fill="none" stroke="midnightblue" d="M658.68,-317.62C694.94,-317.62 757.78,-317.62 800.59,-317.62"/>
<polygon fill="midnightblue" stroke="midnightblue" points="800.74,-321.12 810.74,-317.62 800.74,-314.12 800.74,-321.12"/>
</g>
<!-- Node33&#45;&gt;Node75 -->
<g id="edge20" class="edge">
<title>Node33&#45;&gt;Node75</title>
<path fill="none" stroke="midnightblue" d="M656.87,-308.03C669.99,-303.35 685.97,-297.65 700.15,-292.59"/>
<polygon fill="midnightblue" stroke="midnightblue" points="701.39,-295.86 709.63,-289.21 699.04,-289.27 701.39,-295.86"/>
</g>
<!-- Node48&#45;&gt;Node49 -->
<g id="edge19" class="edge">
<title>Node48&#45;&gt;Node49</title>
<path fill="none" stroke="midnightblue" d="M881.44,-308.03C898.38,-303.17 919.16,-297.21 937.31,-292.01"/>
<polygon fill="midnightblue" stroke="midnightblue" points="938.43,-295.33 947.08,-289.21 936.5,-288.6 938.43,-295.33"/>
</g>
<!-- Node75&#45;&gt;Node48 -->
<g id="edge21" class="edge">
<title>Node75&#45;&gt;Node48</title>
<path fill="none" stroke="midnightblue" d="M765.63,-289.21C778.87,-293.89 794.99,-299.59 809.31,-304.65"/>
<polygon fill="midnightblue" stroke="midnightblue" points="808.29,-308 818.88,-308.03 810.62,-301.4 808.29,-308"/>
</g>
<!-- Node75&#45;&gt;Node49 -->
<g id="edge22" class="edge">
<title>Node75&#45;&gt;Node49</title>
<path fill="none" stroke="midnightblue" d="M775.25,-279.62C810.58,-279.62 864.93,-279.62 908.83,-279.62"/>
<polygon fill="midnightblue" stroke="midnightblue" points="908.89,-283.12 918.89,-279.62 908.89,-276.12 908.89,-283.12"/>
</g>
<!-- Node106&#45;&gt;Node21 -->
<g id="edge41" class="edge">
<title>Node106&#45;&gt;Node21</title>
<path fill="none" stroke="midnightblue" d="M301.73,-1267.62C318.17,-1267.62 338.75,-1267.62 357.09,-1267.62"/>
<polygon fill="midnightblue" stroke="midnightblue" points="357.29,-1271.12 367.29,-1267.62 357.29,-1264.12 357.29,-1271.12"/>
</g>
<!-- Node108&#45;&gt;Node83 -->
<g id="edge45" class="edge">
<title>Node108&#45;&gt;Node83</title>
<path fill="none" stroke="midnightblue" d="M311.53,-516.37C316.64,-518.95 321.34,-522.29 325,-526.62 385.83,-598.62 338.6,-644.06 361,-735.62 371.08,-776.83 387.24,-823.85 396.46,-849.48"/>
<polygon fill="midnightblue" stroke="midnightblue" points="393.24,-850.87 399.94,-859.07 399.82,-848.48 393.24,-850.87"/>
</g>
<!-- Node128&#45;&gt;Node129 -->
<g id="edge47" class="edge">
<title>Node128&#45;&gt;Node129</title>
<path fill="none" stroke="midnightblue" d="M166.6,-241.62C182.46,-241.62 200.84,-241.62 217.61,-241.62"/>
<polygon fill="midnightblue" stroke="midnightblue" points="217.81,-245.12 227.81,-241.62 217.81,-238.12 217.81,-245.12"/>
</g>
<!-- Node131&#45;&gt;Node129 -->
<g id="edge49" class="edge">
<title>Node131&#45;&gt;Node129</title>
<path fill="none" stroke="midnightblue" d="M162.08,-270.03C180.63,-265.1 203.43,-259.05 223.2,-253.79"/>
<polygon fill="midnightblue" stroke="midnightblue" points="224.16,-257.16 232.93,-251.21 222.36,-250.39 224.16,-257.16"/>
</g>
<!-- Node132&#45;&gt;Node100 -->
<g id="edge51" class="edge">
<title>Node132&#45;&gt;Node100</title>
<path fill="none" stroke="midnightblue" d="M162.08,-517.21C183.23,-522.83 209.9,-529.91 231.31,-535.61"/>
<polygon fill="midnightblue" stroke="midnightblue" points="230.48,-539.01 241.05,-538.19 232.28,-532.24 230.48,-539.01"/>
</g>
<!-- Node132&#45;&gt;Node108 -->
<g id="edge52" class="edge">
<title>Node132&#45;&gt;Node108</title>
<path fill="none" stroke="midnightblue" d="M173.62,-507.62C187.87,-507.62 203.55,-507.62 218.01,-507.62"/>
<polygon fill="midnightblue" stroke="midnightblue" points="218.29,-511.12 228.29,-507.62 218.29,-504.12 218.29,-511.12"/>
</g>
<!-- Node134&#45;&gt;Node31 -->
<g id="edge55" class="edge">
<title>Node134&#45;&gt;Node31</title>
<path fill="none" stroke="midnightblue" d="M408.6,-726.3C415.64,-748.23 433.32,-803.41 448,-849.62 472.58,-927.01 501.64,-1019.25 513.97,-1058.46"/>
<polygon fill="midnightblue" stroke="midnightblue" points="510.65,-1059.57 516.99,-1068.06 517.33,-1057.47 510.65,-1059.57"/>
</g>
<!-- Node136&#45;&gt;Node93 -->
<g id="edge61" class="edge">
<title>Node136&#45;&gt;Node93</title>
<path fill="none" stroke="midnightblue" d="M155.63,-469.62C172.28,-469.62 193.61,-469.62 213.26,-469.62"/>
<polygon fill="midnightblue" stroke="midnightblue" points="213.35,-473.12 223.35,-469.62 213.35,-466.12 213.35,-473.12"/>
</g>
<!-- Node79&#45;&gt;Node31 -->
<g id="edge65" class="edge">
<title>Node79&#45;&gt;Node31</title>
<path fill="none" stroke="midnightblue" d="M407.3,-460.47C420.19,-531.05 498.51,-959.96 516.38,-1057.78"/>
<polygon fill="midnightblue" stroke="midnightblue" points="512.97,-1058.59 518.21,-1067.79 519.85,-1057.33 512.97,-1058.59"/>
</g>
</g>
</svg>
