<?xml version="1.0" encoding="UTF-8" standalone="no"?>
<!DOCTYPE svg PUBLIC "-//W3C//DTD SVG 1.1//EN"
 "http://www.w3.org/Graphics/SVG/1.1/DTD/svg11.dtd">
<!-- Generated by graphviz version 3.0.0 (20220413.0242)
 -->
<!-- Title: CloseModelsFile Pages: 1 -->
<svg width="703pt" height="473pt"
 viewBox="0.00 0.00 703.00 472.62" xmlns="http://www.w3.org/2000/svg" xmlns:xlink="http://www.w3.org/1999/xlink">
<g id="graph0" class="graph" transform="scale(1 1) rotate(0) translate(4 468.62)">
<title>CloseModelsFile</title>
<polygon fill="white" stroke="transparent" points="-4,4 -4,-468.62 699,-468.62 699,4 -4,4"/>
<!-- Node1 -->
<g id="node1" class="node">
<title>Node1</title>
<g id="a_node1"><a xlink:title=" ">
<polygon fill="#bfbfbf" stroke="black" points="606,-152.5 606,-171.5 695,-171.5 695,-152.5 606,-152.5"/>
<text text-anchor="middle" x="650.5" y="-159.5" font-family="Helvetica,sans-Serif" font-size="10.00">CloseModelsFile</text>
</a>
</g>
</g>
<!-- Node2 -->
<g id="node2" class="node">
<title>Node2</title>
<g id="a_node2"><a xlink:href="_transmitter_code_2src_2main_8cpp.html#a804fdbdd5eab4c596bbe8a23eecbe4d5" target="_top" xlink:title=" ">
<polygon fill="white" stroke="black" points="204,-228.5 204,-247.5 305,-247.5 305,-228.5 204,-228.5"/>
<text text-anchor="middle" x="254.5" y="-235.5" font-family="Helvetica,sans-Serif" font-size="10.00">ButtonWasPressed</text>
</a>
</g>
</g>
<!-- Node1&#45;&gt;Node2 -->
<g id="edge1" class="edge">
<title>Node1&#45;&gt;Node2</title>
<path fill="none" stroke="midnightblue" d="M644.07,-181.35C627.06,-237.54 568.76,-399.7 451,-447 405.63,-465.22 381.59,-474.25 341,-447 270.37,-399.58 258.05,-282.38 255.93,-247.77"/>
<polygon fill="midnightblue" stroke="midnightblue" points="647.48,-182.17 646.93,-171.59 640.76,-180.2 647.48,-182.17"/>
</g>
<!-- Node5 -->
<g id="node5" class="node">
<title>Node5</title>
<g id="a_node5"><a xlink:href="_transmitter_code_2src_2main_8cpp.html#ab7c9edf843c732d7fe296564f39bc0dc" target="_top" xlink:title="RECEIVE A MODEL FILE.">
<polygon fill="white" stroke="black" points="72.5,-190.5 72.5,-209.5 166.5,-209.5 166.5,-190.5 72.5,-190.5"/>
<text text-anchor="middle" x="119.5" y="-197.5" font-family="Helvetica,sans-Serif" font-size="10.00">ReceiveModelFile</text>
</a>
</g>
</g>
<!-- Node1&#45;&gt;Node5 -->
<g id="edge9" class="edge">
<title>Node1&#45;&gt;Node5</title>
<path fill="none" stroke="midnightblue" d="M620.63,-148.18C547.33,-115.15 349.5,-39.17 204,-105 164.39,-122.92 136.1,-169.95 125.32,-190.34"/>
<polygon fill="midnightblue" stroke="midnightblue" points="619.19,-151.36 629.74,-152.35 622.1,-145 619.19,-151.36"/>
</g>
<!-- Node6 -->
<g id="node6" class="node">
<title>Node6</title>
<g id="a_node6"><a xlink:href="_transmitter_code_2src_2main_8cpp.html#ae08bf94bb0a896d42684e76b643b3273" target="_top" xlink:title=" ">
<polygon fill="white" stroke="black" points="488.5,-38.5 488.5,-57.5 568.5,-57.5 568.5,-38.5 488.5,-38.5"/>
<text text-anchor="middle" x="528.5" y="-45.5" font-family="Helvetica,sans-Serif" font-size="10.00">DecFileInView</text>
</a>
</g>
</g>
<!-- Node1&#45;&gt;Node6 -->
<g id="edge7" class="edge">
<title>Node1&#45;&gt;Node6</title>
<path fill="none" stroke="midnightblue" d="M636.52,-144.24C621.84,-124.93 596.49,-93.91 570,-72 563.45,-66.58 555.54,-61.61 548.45,-57.61"/>
<polygon fill="midnightblue" stroke="midnightblue" points="633.87,-146.54 642.66,-152.45 639.48,-142.34 633.87,-146.54"/>
</g>
<!-- Node7 -->
<g id="node7" class="node">
<title>Node7</title>
<g id="a_node7"><a xlink:href="_transmitter_code_2src_2main_8cpp.html#a07a0fee58c18e94dc01a8167e07cbdc3" target="_top" xlink:title=" ">
<polygon fill="white" stroke="black" points="490.5,-0.5 490.5,-19.5 566.5,-19.5 566.5,-0.5 490.5,-0.5"/>
<text text-anchor="middle" x="528.5" y="-7.5" font-family="Helvetica,sans-Serif" font-size="10.00">IncFileInView</text>
</a>
</g>
</g>
<!-- Node1&#45;&gt;Node7 -->
<g id="edge8" class="edge">
<title>Node1&#45;&gt;Node7</title>
<path fill="none" stroke="midnightblue" d="M642.3,-142.8C630.87,-114.56 606.09,-61.64 570,-29 565.85,-25.25 560.84,-22.1 555.76,-19.52"/>
<polygon fill="midnightblue" stroke="midnightblue" points="639.13,-144.29 646.03,-152.32 645.65,-141.74 639.13,-144.29"/>
</g>
<!-- Node8 -->
<g id="node8" class="node">
<title>Node8</title>
<g id="a_node8"><a xlink:href="_transmitter_code_2src_2main_8cpp.html#a23e0cf21492258d84314ae4d1c4a9042" target="_top" xlink:title=" ">
<polygon fill="white" stroke="black" points="487,-304.5 487,-323.5 570,-323.5 570,-304.5 487,-304.5"/>
<text text-anchor="middle" x="528.5" y="-311.5" font-family="Helvetica,sans-Serif" font-size="10.00">SaveOneModel</text>
</a>
</g>
</g>
<!-- Node1&#45;&gt;Node8 -->
<g id="edge10" class="edge">
<title>Node1&#45;&gt;Node8</title>
<path fill="none" stroke="midnightblue" d="M635.59,-179.61C610.1,-211.9 556.7,-279.55 537,-304.5"/>
<polygon fill="midnightblue" stroke="midnightblue" points="638.54,-181.53 641.99,-171.51 633.05,-177.19 638.54,-181.53"/>
</g>
<!-- Node16 -->
<g id="node16" class="node">
<title>Node16</title>
<g id="a_node16"><a xlink:href="_transmitter_code_2src_2main_8cpp.html#acbd0460ea44a7d07e4d77878411febb4" target="_top" xlink:title=" ">
<polygon fill="white" stroke="black" points="350,-228.5 350,-247.5 442,-247.5 442,-228.5 350,-228.5"/>
<text text-anchor="middle" x="396" y="-235.5" font-family="Helvetica,sans-Serif" font-size="10.00">SetDefaultValues</text>
</a>
</g>
</g>
<!-- Node1&#45;&gt;Node16 -->
<g id="edge29" class="edge">
<title>Node1&#45;&gt;Node16</title>
<path fill="none" stroke="midnightblue" d="M608.2,-174.43C557.97,-189.55 474.28,-214.74 428.79,-228.43"/>
<polygon fill="midnightblue" stroke="midnightblue" points="609.21,-177.78 617.78,-171.55 607.19,-171.08 609.21,-177.78"/>
</g>
<!-- Node17 -->
<g id="node17" class="node">
<title>Node17</title>
<g id="a_node17"><a xlink:href="_transmitter_code_2src_2main_8cpp.html#a9214716193ab9843267fc070ebfa12ff" target="_top" xlink:title=" ">
<polygon fill="white" stroke="black" points="492.5,-152.5 492.5,-171.5 564.5,-171.5 564.5,-152.5 492.5,-152.5"/>
<text text-anchor="middle" x="528.5" y="-159.5" font-family="Helvetica,sans-Serif" font-size="10.00">SaveTXStuff</text>
</a>
</g>
</g>
<!-- Node1&#45;&gt;Node17 -->
<g id="edge25" class="edge">
<title>Node1&#45;&gt;Node17</title>
<path fill="none" stroke="midnightblue" d="M595.83,-162C585.27,-162 574.44,-162 564.68,-162"/>
<polygon fill="midnightblue" stroke="midnightblue" points="595.84,-165.5 605.84,-162 595.84,-158.5 595.84,-165.5"/>
</g>
<!-- Node3 -->
<g id="node3" class="node">
<title>Node3</title>
<g id="a_node3"><a xlink:href="_transmitter_code_2src_2main_8cpp.html#a984cb52354a84c45e9e41f396a1c5e92" target="_top" xlink:title=" ">
<polygon fill="white" stroke="black" points="71,-266.5 71,-285.5 168,-285.5 168,-266.5 71,-266.5"/>
<text text-anchor="middle" x="119.5" y="-273.5" font-family="Helvetica,sans-Serif" font-size="10.00">CheckModelName</text>
</a>
</g>
</g>
<!-- Node2&#45;&gt;Node3 -->
<g id="edge2" class="edge">
<title>Node2&#45;&gt;Node3</title>
<path fill="none" stroke="midnightblue" d="M210.13,-250.39C191.92,-255.59 171.06,-261.55 154.05,-266.41"/>
<polygon fill="midnightblue" stroke="midnightblue" points="211.28,-253.7 219.94,-247.59 209.36,-246.97 211.28,-253.7"/>
</g>
<!-- Node4 -->
<g id="node4" class="node">
<title>Node4</title>
<g id="a_node4"><a xlink:href="_transmitter_code_2src_2main_8cpp.html#ad3cb30894c94eb016e98bdcaa899ac86" target="_top" xlink:title=" ">
<polygon fill="white" stroke="black" points="0,-247.5 0,-266.5 35,-266.5 35,-247.5 0,-247.5"/>
<text text-anchor="middle" x="17.5" y="-254.5" font-family="Helvetica,sans-Serif" font-size="10.00">loop</text>
</a>
</g>
</g>
<!-- Node2&#45;&gt;Node4 -->
<g id="edge4" class="edge">
<title>Node2&#45;&gt;Node4</title>
<path fill="none" stroke="midnightblue" d="M193.69,-242.84C140.92,-247.1 67.51,-253.04 35.06,-255.66"/>
<polygon fill="midnightblue" stroke="midnightblue" points="194.26,-246.3 203.95,-242.01 193.7,-239.32 194.26,-246.3"/>
</g>
<!-- Node2&#45;&gt;Node5 -->
<g id="edge5" class="edge">
<title>Node2&#45;&gt;Node5</title>
<path fill="none" stroke="midnightblue" d="M226.97,-224.9C209.75,-218.76 186.85,-211.91 166.7,-206.74"/>
<polygon fill="midnightblue" stroke="midnightblue" points="225.79,-228.19 236.38,-228.41 228.24,-221.64 225.79,-228.19"/>
</g>
<!-- Node3&#45;&gt;Node4 -->
<g id="edge3" class="edge">
<title>Node3&#45;&gt;Node4</title>
<path fill="none" stroke="midnightblue" d="M60.9,-265.06C51.43,-263.26 42.34,-261.53 35.01,-260.14"/>
<polygon fill="midnightblue" stroke="midnightblue" points="60.37,-268.52 70.84,-266.95 61.67,-261.64 60.37,-268.52"/>
</g>
<!-- Node5&#45;&gt;Node2 -->
<g id="edge6" class="edge">
<title>Node5&#45;&gt;Node2</title>
<path fill="none" stroke="midnightblue" d="M146.99,-213.09C163.27,-218.89 184.65,-225.34 203.98,-230.4"/>
<polygon fill="midnightblue" stroke="midnightblue" points="148.17,-209.79 137.57,-209.58 145.72,-216.35 148.17,-209.79"/>
</g>
<!-- Node8&#45;&gt;Node2 -->
<g id="edge11" class="edge">
<title>Node8&#45;&gt;Node2</title>
<path fill="none" stroke="midnightblue" d="M476.58,-315.36C438.24,-314.84 384.96,-310.79 341,-295 311.11,-284.27 281.45,-260.9 266.15,-247.66"/>
<polygon fill="midnightblue" stroke="midnightblue" points="476.95,-318.86 486.97,-315.42 476.99,-311.86 476.95,-318.86"/>
</g>
<!-- Node8&#45;&gt;Node3 -->
<g id="edge12" class="edge">
<title>Node8&#45;&gt;Node3</title>
<path fill="none" stroke="midnightblue" d="M522.87,-333.64C514.47,-364.26 493.51,-422.41 451,-447 408.68,-471.48 387.25,-462.83 341,-447 242.92,-413.42 154.73,-316.49 128.44,-285.59"/>
<polygon fill="midnightblue" stroke="midnightblue" points="526.32,-334.27 525.41,-323.72 519.54,-332.54 526.32,-334.27"/>
</g>
<!-- Node9 -->
<g id="node9" class="node">
<title>Node9</title>
<g id="a_node9"><a xlink:href="_transmitter_code_2src_2main_8cpp.html#aba44d61ea51411cb5c601beb94b6fef4" target="_top" xlink:title=" ">
<polygon fill="white" stroke="black" points="341,-266.5 341,-285.5 451,-285.5 451,-266.5 341,-266.5"/>
<text text-anchor="middle" x="396" y="-273.5" font-family="Helvetica,sans-Serif" font-size="10.00">DoNewChannelName</text>
</a>
</g>
</g>
<!-- Node8&#45;&gt;Node9 -->
<g id="edge13" class="edge">
<title>Node8&#45;&gt;Node9</title>
<path fill="none" stroke="midnightblue" d="M484.95,-301.61C467.08,-296.41 446.61,-290.45 429.92,-285.59"/>
<polygon fill="midnightblue" stroke="midnightblue" points="483.99,-304.98 494.57,-304.41 485.95,-298.25 483.99,-304.98"/>
</g>
<!-- Node10 -->
<g id="node10" class="node">
<title>Node10</title>
<g id="a_node10"><a xlink:href="_transmitter_code_2src_2main_8cpp.html#afd3dd964eafc30405e000b03579dd00c" target="_top" xlink:title=" ">
<polygon fill="white" stroke="black" points="350.5,-418.5 350.5,-437.5 441.5,-437.5 441.5,-418.5 350.5,-418.5"/>
<text text-anchor="middle" x="396" y="-425.5" font-family="Helvetica,sans-Serif" font-size="10.00">EndReverseView</text>
</a>
</g>
</g>
<!-- Node8&#45;&gt;Node10 -->
<g id="edge15" class="edge">
<title>Node8&#45;&gt;Node10</title>
<path fill="none" stroke="midnightblue" d="M517.15,-332.26C504.23,-353.51 480.24,-388.32 451,-409 445.64,-412.79 439.46,-415.89 433.23,-418.4"/>
<polygon fill="midnightblue" stroke="midnightblue" points="520.22,-333.94 522.28,-323.55 514.19,-330.39 520.22,-333.94"/>
</g>
<!-- Node11 -->
<g id="node11" class="node">
<title>Node11</title>
<g id="a_node11"><a xlink:href="_transmitter_code_2src_2main_8cpp.html#a40003084a0136ca08cf8ded75ff4aa4d" target="_top" xlink:title=" ">
<polygon fill="white" stroke="black" points="350,-380.5 350,-399.5 442,-399.5 442,-380.5 350,-380.5"/>
<text text-anchor="middle" x="396" y="-387.5" font-family="Helvetica,sans-Serif" font-size="10.00">EndSubTrimView</text>
</a>
</g>
</g>
<!-- Node8&#45;&gt;Node11 -->
<g id="edge16" class="edge">
<title>Node8&#45;&gt;Node11</title>
<path fill="none" stroke="midnightblue" d="M508.92,-330.37C494.06,-342.82 472.26,-359.68 451,-371 444.25,-374.6 436.67,-377.75 429.38,-380.4"/>
<polygon fill="midnightblue" stroke="midnightblue" points="511.48,-332.79 516.81,-323.63 506.93,-327.46 511.48,-332.79"/>
</g>
<!-- Node12 -->
<g id="node12" class="node">
<title>Node12</title>
<g id="a_node12"><a xlink:href="_transmitter_code_2src_2main_8cpp.html#a488388f6430a0fc7bec57074ba750a2d" target="_top" xlink:title=" ">
<polygon fill="white" stroke="black" points="353,-342.5 353,-361.5 439,-361.5 439,-342.5 353,-342.5"/>
<text text-anchor="middle" x="396" y="-349.5" font-family="Helvetica,sans-Serif" font-size="10.00">ExitMacrosView</text>
</a>
</g>
</g>
<!-- Node8&#45;&gt;Node12 -->
<g id="edge17" class="edge">
<title>Node8&#45;&gt;Node12</title>
<path fill="none" stroke="midnightblue" d="M484.95,-326.39C467.08,-331.59 446.61,-337.55 429.92,-342.41"/>
<polygon fill="midnightblue" stroke="midnightblue" points="485.95,-329.75 494.57,-323.59 483.99,-323.02 485.95,-329.75"/>
</g>
<!-- Node13 -->
<g id="node13" class="node">
<title>Node13</title>
<g id="a_node13"><a xlink:href="_transmitter_code_2src_2main_8cpp.html#a92c5dada5e5ef70261391557464f2d19" target="_top" xlink:title=" ">
<polygon fill="white" stroke="black" points="345.5,-152.5 345.5,-171.5 446.5,-171.5 446.5,-152.5 345.5,-152.5"/>
<text text-anchor="middle" x="396" y="-159.5" font-family="Helvetica,sans-Serif" font-size="10.00">SaveAllParameters</text>
</a>
</g>
</g>
<!-- Node8&#45;&gt;Node13 -->
<g id="edge18" class="edge">
<title>Node8&#45;&gt;Node13</title>
<path fill="none" stroke="midnightblue" d="M514.02,-296.41C499.05,-277.08 473.96,-245.27 451,-219 436.11,-201.96 417.83,-183.05 406.81,-171.86"/>
<polygon fill="midnightblue" stroke="midnightblue" points="511.27,-298.57 520.15,-304.35 516.81,-294.3 511.27,-298.57"/>
</g>
<!-- Node8&#45;&gt;Node16 -->
<g id="edge23" class="edge">
<title>Node8&#45;&gt;Node16</title>
<path fill="none" stroke="midnightblue" d="M508.92,-297.63C494.06,-285.18 472.26,-268.32 451,-257 444.25,-253.4 436.67,-250.25 429.38,-247.6"/>
<polygon fill="midnightblue" stroke="midnightblue" points="506.93,-300.54 516.81,-304.37 511.48,-295.21 506.93,-300.54"/>
</g>
<!-- Node9&#45;&gt;Node2 -->
<g id="edge14" class="edge">
<title>Node9&#45;&gt;Node2</title>
<path fill="none" stroke="midnightblue" d="M350.04,-263.75C330.82,-258.52 308.7,-252.49 290.69,-247.59"/>
<polygon fill="midnightblue" stroke="midnightblue" points="349.23,-267.16 359.8,-266.41 351.07,-260.41 349.23,-267.16"/>
</g>
<!-- Node13&#45;&gt;Node2 -->
<g id="edge19" class="edge">
<title>Node13&#45;&gt;Node2</title>
<path fill="none" stroke="midnightblue" d="M360.63,-175.77C353.97,-178.86 347.15,-182.32 341,-186 323.61,-196.42 322.21,-203.3 305,-214 296.4,-219.35 286.44,-224.38 277.71,-228.44"/>
<polygon fill="midnightblue" stroke="midnightblue" points="362.45,-178.79 370.18,-171.54 359.62,-172.39 362.45,-178.79"/>
</g>
<!-- Node13&#45;&gt;Node5 -->
<g id="edge21" class="edge">
<title>Node13&#45;&gt;Node5</title>
<path fill="none" stroke="midnightblue" d="M344.37,-173.66C331.57,-176.34 317.82,-178.99 305,-181 258.08,-188.35 203.98,-193.54 166.55,-196.61"/>
<polygon fill="midnightblue" stroke="midnightblue" points="345.35,-177.03 354.4,-171.52 343.89,-170.19 345.35,-177.03"/>
</g>
<!-- Node14 -->
<g id="node14" class="node">
<title>Node14</title>
<g id="a_node14"><a xlink:href="_transmitter_code_2src_2main_8cpp.html#a16c65917a148c7f6c17babf11e977b69" target="_top" xlink:title=" ">
<polygon fill="white" stroke="black" points="213.5,-152.5 213.5,-171.5 295.5,-171.5 295.5,-152.5 213.5,-152.5"/>
<text text-anchor="middle" x="254.5" y="-159.5" font-family="Helvetica,sans-Serif" font-size="10.00">EndBuddyView</text>
</a>
</g>
</g>
<!-- Node13&#45;&gt;Node14 -->
<g id="edge20" class="edge">
<title>Node13&#45;&gt;Node14</title>
<path fill="none" stroke="midnightblue" d="M335.33,-162C321.96,-162 308.09,-162 295.73,-162"/>
<polygon fill="midnightblue" stroke="midnightblue" points="335.42,-165.5 345.42,-162 335.42,-158.5 335.42,-165.5"/>
</g>
<!-- Node15 -->
<g id="node15" class="node">
<title>Node15</title>
<g id="a_node15"><a xlink:href="_transmitter_code_2src_2main_8cpp.html#a35f886d783cd5aa95171f1ecba39ef0b" target="_top" xlink:title=" ">
<polygon fill="white" stroke="black" points="215.5,-114.5 215.5,-133.5 293.5,-133.5 293.5,-114.5 215.5,-114.5"/>
<text text-anchor="middle" x="254.5" y="-121.5" font-family="Helvetica,sans-Serif" font-size="10.00">SetupViewFM</text>
</a>
</g>
</g>
<!-- Node13&#45;&gt;Node15 -->
<g id="edge22" class="edge">
<title>Node13&#45;&gt;Node15</title>
<path fill="none" stroke="midnightblue" d="M350.04,-149.75C330.82,-144.52 308.7,-138.49 290.69,-133.59"/>
<polygon fill="midnightblue" stroke="midnightblue" points="349.23,-153.16 359.8,-152.41 351.07,-146.41 349.23,-153.16"/>
</g>
<!-- Node16&#45;&gt;Node2 -->
<g id="edge24" class="edge">
<title>Node16&#45;&gt;Node2</title>
<path fill="none" stroke="midnightblue" d="M339.53,-238C328.26,-238 316.46,-238 305.39,-238"/>
<polygon fill="midnightblue" stroke="midnightblue" points="339.71,-241.5 349.71,-238 339.71,-234.5 339.71,-241.5"/>
</g>
<!-- Node17&#45;&gt;Node2 -->
<g id="edge26" class="edge">
<title>Node17&#45;&gt;Node2</title>
<path fill="none" stroke="midnightblue" d="M483.68,-174.24C429.65,-189.34 338.95,-214.68 289.75,-228.43"/>
<polygon fill="midnightblue" stroke="midnightblue" points="484.64,-177.61 493.33,-171.55 482.75,-170.87 484.64,-177.61"/>
</g>
<!-- Node17&#45;&gt;Node13 -->
<g id="edge28" class="edge">
<title>Node17&#45;&gt;Node13</title>
<path fill="none" stroke="midnightblue" d="M481.97,-162C470.52,-162 458.18,-162 446.55,-162"/>
<polygon fill="midnightblue" stroke="midnightblue" points="482.18,-165.5 492.18,-162 482.18,-158.5 482.18,-165.5"/>
</g>
<!-- Node18 -->
<g id="node18" class="node">
<title>Node18</title>
<g id="a_node18"><a xlink:href="_transmitter_code_2src_2main_8cpp.html#acb3300c8b0e64f0fb381f7b96158dfc1" target="_top" xlink:title=" ">
<polygon fill="white" stroke="black" points="369.5,-114.5 369.5,-133.5 422.5,-133.5 422.5,-114.5 369.5,-114.5"/>
<text text-anchor="middle" x="396" y="-121.5" font-family="Helvetica,sans-Serif" font-size="10.00">LogEND</text>
</a>
</g>
</g>
<!-- Node17&#45;&gt;Node18 -->
<g id="edge27" class="edge">
<title>Node17&#45;&gt;Node18</title>
<path fill="none" stroke="midnightblue" d="M484.78,-149.56C464.2,-143.57 440.21,-136.58 422.51,-131.43"/>
<polygon fill="midnightblue" stroke="midnightblue" points="483.99,-152.98 494.57,-152.41 485.95,-146.25 483.99,-152.98"/>
</g>
</g>
</svg>
