<?xml version="1.0" encoding="UTF-8" standalone="no"?>
<!DOCTYPE svg PUBLIC "-//W3C//DTD SVG 1.1//EN"
 "http://www.w3.org/Graphics/SVG/1.1/DTD/svg11.dtd">
<!-- Generated by graphviz version 3.0.0 (20220413.0242)
 -->
<!-- Title: SaveTransmitterParameters Pages: 1 -->
<svg width="1040pt" height="294pt"
 viewBox="0.00 0.00 1040.00 294.00" xmlns="http://www.w3.org/2000/svg" xmlns:xlink="http://www.w3.org/1999/xlink">
<g id="graph0" class="graph" transform="scale(1 1) rotate(0) translate(4 290)">
<title>SaveTransmitterParameters</title>
<polygon fill="white" stroke="transparent" points="-4,4 -4,-290 1036,-290 1036,4 -4,4"/>
<!-- Node1 -->
<g id="node1" class="node">
<title>Node1</title>
<g id="a_node1"><a xlink:title=" ">
<polygon fill="#bfbfbf" stroke="black" points="893,-95.5 893,-114.5 1032,-114.5 1032,-95.5 893,-95.5"/>
<text text-anchor="middle" x="962.5" y="-102.5" font-family="Helvetica,sans-Serif" font-size="10.00">SaveTransmitterParameters</text>
</a>
</g>
</g>
<!-- Node2 -->
<g id="node2" class="node">
<title>Node2</title>
<g id="a_node2"><a xlink:href="_transmitter_code_2src_2main_8cpp.html#a804fdbdd5eab4c596bbe8a23eecbe4d5" target="_top" xlink:title=" ">
<polygon fill="white" stroke="black" points="613,-266.5 613,-285.5 714,-285.5 714,-266.5 613,-266.5"/>
<text text-anchor="middle" x="663.5" y="-273.5" font-family="Helvetica,sans-Serif" font-size="10.00">ButtonWasPressed</text>
</a>
</g>
</g>
<!-- Node1&#45;&gt;Node2 -->
<g id="edge1" class="edge">
<title>Node1&#45;&gt;Node2</title>
<path fill="none" stroke="midnightblue" d="M941.25,-120.87C920.57,-136.8 887.29,-161.69 857,-181 798.29,-218.44 783.63,-228.72 720,-257 712.18,-260.47 703.52,-263.71 695.41,-266.5"/>
<polygon fill="midnightblue" stroke="midnightblue" points="943.54,-123.52 949.3,-114.63 939.25,-117.99 943.54,-123.52"/>
</g>
<!-- Node7 -->
<g id="node7" class="node">
<title>Node7</title>
<g id="a_node7"><a xlink:href="_transmitter_code_2src_2main_8cpp.html#a175b6111f05e020becf6f4fc8c3e474d" target="_top" xlink:title=" ">
<polygon fill="white" stroke="black" points="764,-114.5 764,-133.5 849,-133.5 849,-114.5 764,-114.5"/>
<text text-anchor="middle" x="806.5" y="-121.5" font-family="Helvetica,sans-Serif" font-size="10.00">DefineTrimsEnd</text>
</a>
</g>
</g>
<!-- Node1&#45;&gt;Node7 -->
<g id="edge8" class="edge">
<title>Node1&#45;&gt;Node7</title>
<path fill="none" stroke="midnightblue" d="M882.56,-114.74C871.11,-116.15 859.71,-117.56 849.39,-118.83"/>
<polygon fill="midnightblue" stroke="midnightblue" points="883.11,-118.2 892.61,-113.5 882.25,-111.25 883.11,-118.2"/>
</g>
<!-- Node8 -->
<g id="node8" class="node">
<title>Node8</title>
<g id="a_node8"><a xlink:href="_transmitter_code_2src_2main_8cpp.html#acb3300c8b0e64f0fb381f7b96158dfc1" target="_top" xlink:title=" ">
<polygon fill="white" stroke="black" points="780,-76.5 780,-95.5 833,-95.5 833,-76.5 780,-76.5"/>
<text text-anchor="middle" x="806.5" y="-83.5" font-family="Helvetica,sans-Serif" font-size="10.00">LogEND</text>
</a>
</g>
</g>
<!-- Node1&#45;&gt;Node8 -->
<g id="edge9" class="edge">
<title>Node1&#45;&gt;Node8</title>
<path fill="none" stroke="midnightblue" d="M882.66,-95.27C864.74,-93.06 846.95,-90.87 833.18,-89.17"/>
<polygon fill="midnightblue" stroke="midnightblue" points="882.25,-98.75 892.61,-96.5 883.11,-91.8 882.25,-98.75"/>
</g>
<!-- Node9 -->
<g id="node9" class="node">
<title>Node9</title>
<g id="a_node9"><a xlink:href="_transmitter_code_2src_2main_8cpp.html#a835d7dda94eeefe66d661ef4dc4df1a4" target="_top" xlink:title=" ">
<polygon fill="white" stroke="black" points="770.5,-38.5 770.5,-57.5 842.5,-57.5 842.5,-38.5 770.5,-38.5"/>
<text text-anchor="middle" x="806.5" y="-45.5" font-family="Helvetica,sans-Serif" font-size="10.00">Options2End</text>
</a>
</g>
</g>
<!-- Node1&#45;&gt;Node9 -->
<g id="edge10" class="edge">
<title>Node1&#45;&gt;Node9</title>
<path fill="none" stroke="midnightblue" d="M926.2,-91.93C897.89,-81.46 858.82,-66.99 833.36,-57.57"/>
<polygon fill="midnightblue" stroke="midnightblue" points="925.13,-95.27 935.72,-95.46 927.56,-88.71 925.13,-95.27"/>
</g>
<!-- Node10 -->
<g id="node10" class="node">
<title>Node10</title>
<g id="a_node10"><a xlink:href="_transmitter_code_2src_2main_8cpp.html#acd53633dca2d1d5f522b58f874a67df7" target="_top" xlink:title=" ">
<polygon fill="white" stroke="black" points="762,-0.5 762,-19.5 851,-19.5 851,-0.5 762,-0.5"/>
<text text-anchor="middle" x="806.5" y="-7.5" font-family="Helvetica,sans-Serif" font-size="10.00">OptionView4End</text>
</a>
</g>
</g>
<!-- Node1&#45;&gt;Node10 -->
<g id="edge11" class="edge">
<title>Node1&#45;&gt;Node10</title>
<path fill="none" stroke="midnightblue" d="M942.45,-88.76C922.25,-72.13 888.91,-46.33 857,-29 850.45,-25.44 843.09,-22.23 836.08,-19.51"/>
<polygon fill="midnightblue" stroke="midnightblue" points="940.34,-91.56 950.26,-95.28 944.82,-86.18 940.34,-91.56"/>
</g>
<!-- Node11 -->
<g id="node11" class="node">
<title>Node11</title>
<g id="a_node11"><a xlink:href="_transmitter_code_2src_2main_8cpp.html#a92c5dada5e5ef70261391557464f2d19" target="_top" xlink:title=" ">
<polygon fill="white" stroke="black" points="756,-152.5 756,-171.5 857,-171.5 857,-152.5 756,-152.5"/>
<text text-anchor="middle" x="806.5" y="-159.5" font-family="Helvetica,sans-Serif" font-size="10.00">SaveAllParameters</text>
</a>
</g>
</g>
<!-- Node1&#45;&gt;Node11 -->
<g id="edge12" class="edge">
<title>Node1&#45;&gt;Node11</title>
<path fill="none" stroke="midnightblue" d="M926.2,-118.07C897.89,-128.54 858.82,-143.01 833.36,-152.43"/>
<polygon fill="midnightblue" stroke="midnightblue" points="927.56,-121.29 935.72,-114.54 925.13,-114.73 927.56,-121.29"/>
</g>
<!-- Node3 -->
<g id="node3" class="node">
<title>Node3</title>
<g id="a_node3"><a xlink:href="_transmitter_code_2src_2main_8cpp.html#aa221b44ecae36dd0367f03ed4aeb9e92" target="_top" xlink:title=" ">
<polygon fill="white" stroke="black" points="298,-228.5 298,-247.5 416,-247.5 416,-228.5 298,-228.5"/>
<text text-anchor="middle" x="357" y="-235.5" font-family="Helvetica,sans-Serif" font-size="10.00">DoSomeHouseKeeping</text>
</a>
</g>
</g>
<!-- Node2&#45;&gt;Node3 -->
<g id="edge2" class="edge">
<title>Node2&#45;&gt;Node3</title>
<path fill="none" stroke="midnightblue" d="M602.86,-272.36C560.61,-269.36 502.65,-264.38 452,-257 435.03,-254.53 416.5,-250.97 400.41,-247.6"/>
<polygon fill="midnightblue" stroke="midnightblue" points="602.77,-275.86 612.98,-273.07 603.25,-268.88 602.77,-275.86"/>
</g>
<!-- Node5 -->
<g id="node5" class="node">
<title>Node5</title>
<g id="a_node5"><a xlink:href="_transmitter_code_2src_2main_8cpp.html#a558ea014e230b7caa54ce5a37ad29b22" target="_top" xlink:title=" ">
<polygon fill="white" stroke="black" points="461,-162.5 461,-181.5 562,-181.5 562,-162.5 461,-162.5"/>
<text text-anchor="middle" x="511.5" y="-169.5" font-family="Helvetica,sans-Serif" font-size="10.00">ManageTransmitter</text>
</a>
</g>
</g>
<!-- Node2&#45;&gt;Node5 -->
<g id="edge4" class="edge">
<title>Node2&#45;&gt;Node5</title>
<path fill="none" stroke="midnightblue" d="M617,-262.5C613.52,-260.85 610.14,-259.02 607,-257 587.43,-244.42 588.11,-234.77 571,-219 556.06,-205.23 537.6,-190.79 525.46,-181.61"/>
<polygon fill="midnightblue" stroke="midnightblue" points="615.81,-265.8 626.39,-266.48 618.54,-259.35 615.81,-265.8"/>
</g>
<!-- Node6 -->
<g id="node6" class="node">
<title>Node6</title>
<g id="a_node6"><a xlink:href="_transmitter_code_2src_2main_8cpp.html#ab7c9edf843c732d7fe296564f39bc0dc" target="_top" xlink:title="RECEIVE A MODEL FILE.">
<polygon fill="white" stroke="black" points="464.5,-228.5 464.5,-247.5 558.5,-247.5 558.5,-228.5 464.5,-228.5"/>
<text text-anchor="middle" x="511.5" y="-235.5" font-family="Helvetica,sans-Serif" font-size="10.00">ReceiveModelFile</text>
</a>
</g>
</g>
<!-- Node2&#45;&gt;Node6 -->
<g id="edge6" class="edge">
<title>Node2&#45;&gt;Node6</title>
<path fill="none" stroke="midnightblue" d="M633.5,-263.19C612.33,-256.46 583.19,-248.8 558.81,-243.44"/>
<polygon fill="midnightblue" stroke="midnightblue" points="632.6,-266.58 643.2,-266.41 634.81,-259.94 632.6,-266.58"/>
</g>
<!-- Node4 -->
<g id="node4" class="node">
<title>Node4</title>
<g id="a_node4"><a xlink:href="_transmitter_code_2src_2main_8cpp.html#ad3cb30894c94eb016e98bdcaa899ac86" target="_top" xlink:title=" ">
<polygon fill="white" stroke="black" points="0,-162.5 0,-181.5 35,-181.5 35,-162.5 0,-162.5"/>
<text text-anchor="middle" x="17.5" y="-169.5" font-family="Helvetica,sans-Serif" font-size="10.00">loop</text>
</a>
</g>
</g>
<!-- Node3&#45;&gt;Node4 -->
<g id="edge3" class="edge">
<title>Node3&#45;&gt;Node4</title>
<path fill="none" stroke="midnightblue" d="M287.73,-227.12C229.8,-217.52 144.61,-202.5 71,-186 59.03,-183.32 45.68,-179.75 35.44,-176.89"/>
<polygon fill="midnightblue" stroke="midnightblue" points="287.43,-230.62 297.87,-228.8 288.57,-223.71 287.43,-230.62"/>
</g>
<!-- Node5&#45;&gt;Node4 -->
<g id="edge5" class="edge">
<title>Node5&#45;&gt;Node4</title>
<path fill="none" stroke="midnightblue" d="M450.45,-172C337.9,-172 100.7,-172 35.43,-172"/>
<polygon fill="midnightblue" stroke="midnightblue" points="450.62,-175.5 460.62,-172 450.62,-168.5 450.62,-175.5"/>
</g>
<!-- Node6&#45;&gt;Node2 -->
<g id="edge7" class="edge">
<title>Node6&#45;&gt;Node2</title>
<path fill="none" stroke="midnightblue" d="M541.22,-250.72C561.49,-257.18 589.17,-264.51 612.97,-269.84"/>
<polygon fill="midnightblue" stroke="midnightblue" points="542.22,-247.37 531.63,-247.53 540.01,-254.01 542.22,-247.37"/>
</g>
<!-- Node11&#45;&gt;Node2 -->
<g id="edge13" class="edge">
<title>Node11&#45;&gt;Node2</title>
<path fill="none" stroke="midnightblue" d="M791.45,-179.64C771.77,-203.96 736.57,-246.05 720,-257 714.22,-260.82 707.6,-263.95 700.98,-266.49"/>
<polygon fill="midnightblue" stroke="midnightblue" points="794.4,-181.56 797.93,-171.57 788.94,-177.17 794.4,-181.56"/>
</g>
<!-- Node11&#45;&gt;Node6 -->
<g id="edge25" class="edge">
<title>Node11&#45;&gt;Node6</title>
<path fill="none" stroke="midnightblue" d="M773.48,-148.91C732.57,-134.35 660.64,-116.18 607,-143 583.15,-154.93 589.54,-171.83 571,-191 557.05,-205.42 538.71,-219.5 526.32,-228.43"/>
<polygon fill="midnightblue" stroke="midnightblue" points="772.35,-152.22 782.94,-152.41 774.78,-145.66 772.35,-152.22"/>
</g>
<!-- Node12 -->
<g id="node12" class="node">
<title>Node12</title>
<g id="a_node12"><a xlink:href="_transmitter_code_2src_2main_8cpp.html#a6ae37c6938b8c10b83d1bc74e8643bd9" target="_top" xlink:title=" ">
<polygon fill="white" stroke="black" points="607,-76.5 607,-95.5 720,-95.5 720,-76.5 607,-76.5"/>
<text text-anchor="middle" x="663.5" y="-83.5" font-family="Helvetica,sans-Serif" font-size="10.00">CheckPowerOffButton</text>
</a>
</g>
</g>
<!-- Node11&#45;&gt;Node12 -->
<g id="edge14" class="edge">
<title>Node11&#45;&gt;Node12</title>
<path fill="none" stroke="midnightblue" d="M766.03,-148.43C762.55,-146.77 759.16,-144.96 756,-143 737.54,-131.58 738.21,-121.8 720,-110 711.19,-104.29 700.79,-99.38 691.4,-95.51"/>
<polygon fill="midnightblue" stroke="midnightblue" points="764.76,-151.69 775.32,-152.49 767.56,-145.28 764.76,-151.69"/>
</g>
<!-- Node13 -->
<g id="node13" class="node">
<title>Node13</title>
<g id="a_node13"><a xlink:href="_transmitter_code_2src_2main_8cpp.html#af8fe429ceb65bf9d257a2a0f1c63eccb" target="_top" xlink:title=" ">
<polygon fill="white" stroke="black" points="612.5,-38.5 612.5,-57.5 714.5,-57.5 714.5,-38.5 612.5,-38.5"/>
<text text-anchor="middle" x="663.5" y="-45.5" font-family="Helvetica,sans-Serif" font-size="10.00">CompareModelsIDs</text>
</a>
</g>
</g>
<!-- Node11&#45;&gt;Node13 -->
<g id="edge16" class="edge">
<title>Node11&#45;&gt;Node13</title>
<path fill="none" stroke="midnightblue" d="M761.49,-147.36C759.55,-146.03 757.7,-144.58 756,-143 728.59,-117.59 747.87,-91.9 720,-67 715.67,-63.13 710.52,-60.05 705.12,-57.58"/>
<polygon fill="midnightblue" stroke="midnightblue" points="760.09,-150.59 770.52,-152.49 763.55,-144.5 760.09,-150.59"/>
</g>
<!-- Node18 -->
<g id="node18" class="node">
<title>Node18</title>
<g id="a_node18"><a xlink:href="_transmitter_code_2src_2main_8cpp.html#a16c65917a148c7f6c17babf11e977b69" target="_top" xlink:title=" ">
<polygon fill="white" stroke="black" points="622.5,-0.5 622.5,-19.5 704.5,-19.5 704.5,-0.5 622.5,-0.5"/>
<text text-anchor="middle" x="663.5" y="-7.5" font-family="Helvetica,sans-Serif" font-size="10.00">EndBuddyView</text>
</a>
</g>
</g>
<!-- Node11&#45;&gt;Node18 -->
<g id="edge22" class="edge">
<title>Node11&#45;&gt;Node18</title>
<path fill="none" stroke="midnightblue" d="M760.46,-147.05C758.87,-145.81 757.37,-144.46 756,-143 719.59,-104.31 757.12,-67.02 720,-29 715.73,-24.63 710.41,-21.26 704.78,-18.67"/>
<polygon fill="midnightblue" stroke="midnightblue" points="758.71,-150.09 769.04,-152.46 762.45,-144.17 758.71,-150.09"/>
</g>
<!-- Node19 -->
<g id="node19" class="node">
<title>Node19</title>
<g id="a_node19"><a xlink:href="_transmitter_code_2src_2main_8cpp.html#aa1ada50da7cf7f716d14bc9c1a7fdfe9" target="_top" xlink:title=" ">
<polygon fill="white" stroke="black" points="617,-228.5 617,-247.5 710,-247.5 710,-228.5 617,-228.5"/>
<text text-anchor="middle" x="663.5" y="-235.5" font-family="Helvetica,sans-Serif" font-size="10.00">OptionView2Start</text>
</a>
</g>
</g>
<!-- Node11&#45;&gt;Node19 -->
<g id="edge23" class="edge">
<title>Node11&#45;&gt;Node19</title>
<path fill="none" stroke="midnightblue" d="M784.92,-177.93C768.15,-190.36 743.48,-207.4 720,-219 712.79,-222.56 704.74,-225.74 697.06,-228.42"/>
<polygon fill="midnightblue" stroke="midnightblue" points="787.49,-180.38 793.37,-171.57 783.28,-174.79 787.49,-180.38"/>
</g>
<!-- Node20 -->
<g id="node20" class="node">
<title>Node20</title>
<g id="a_node20"><a xlink:href="_transmitter_code_2src_2main_8cpp.html#ab71829b0aee177464a613b151545c08a" target="_top" xlink:title=" ">
<polygon fill="white" stroke="black" points="619,-190.5 619,-209.5 708,-209.5 708,-190.5 619,-190.5"/>
<text text-anchor="middle" x="663.5" y="-197.5" font-family="Helvetica,sans-Serif" font-size="10.00">OptionView3End</text>
</a>
</g>
</g>
<!-- Node11&#45;&gt;Node20 -->
<g id="edge24" class="edge">
<title>Node11&#45;&gt;Node20</title>
<path fill="none" stroke="midnightblue" d="M760.06,-174.25C740.63,-179.48 718.27,-185.51 700.07,-190.41"/>
<polygon fill="midnightblue" stroke="midnightblue" points="761.18,-177.57 769.92,-171.59 759.35,-170.81 761.18,-177.57"/>
</g>
<!-- Node21 -->
<g id="node21" class="node">
<title>Node21</title>
<g id="a_node21"><a xlink:href="_transmitter_code_2src_2main_8cpp.html#a35f886d783cd5aa95171f1ecba39ef0b" target="_top" xlink:title=" ">
<polygon fill="white" stroke="black" points="624.5,-152.5 624.5,-171.5 702.5,-171.5 702.5,-152.5 624.5,-152.5"/>
<text text-anchor="middle" x="663.5" y="-159.5" font-family="Helvetica,sans-Serif" font-size="10.00">SetupViewFM</text>
</a>
</g>
</g>
<!-- Node11&#45;&gt;Node21 -->
<g id="edge26" class="edge">
<title>Node11&#45;&gt;Node21</title>
<path fill="none" stroke="midnightblue" d="M745.39,-162C730.92,-162 715.84,-162 702.69,-162"/>
<polygon fill="midnightblue" stroke="midnightblue" points="745.79,-165.5 755.79,-162 745.79,-158.5 745.79,-165.5"/>
</g>
<!-- Node12&#45;&gt;Node5 -->
<g id="edge15" class="edge">
<title>Node12&#45;&gt;Node5</title>
<path fill="none" stroke="midnightblue" d="M628.47,-99.61C621.27,-102.8 613.8,-106.34 607,-110 576.6,-126.39 543.33,-149.55 525.51,-162.42"/>
<polygon fill="midnightblue" stroke="midnightblue" points="630.22,-102.67 638.03,-95.51 627.46,-96.24 630.22,-102.67"/>
</g>
<!-- Node14 -->
<g id="node14" class="node">
<title>Node14</title>
<g id="a_node14"><a xlink:href="_transmitter_code_2src_2main_8cpp.html#a494cb4acb30856d1f53f08df1b80c41b" target="_top" xlink:title=" ">
<polygon fill="white" stroke="black" points="452,-67.5 452,-86.5 571,-86.5 571,-67.5 452,-67.5"/>
<text text-anchor="middle" x="511.5" y="-74.5" font-family="Helvetica,sans-Serif" font-size="10.00">GetModelsMacAddress</text>
</a>
</g>
</g>
<!-- Node13&#45;&gt;Node14 -->
<g id="edge17" class="edge">
<title>Node13&#45;&gt;Node14</title>
<path fill="none" stroke="midnightblue" d="M603.13,-59.48C589.41,-62.13 574.96,-64.92 561.72,-67.48"/>
<polygon fill="midnightblue" stroke="midnightblue" points="603.81,-62.91 612.97,-57.58 602.49,-56.04 603.81,-62.91"/>
</g>
<!-- Node15 -->
<g id="node15" class="node">
<title>Node15</title>
<g id="a_node15"><a xlink:href="_transmitter_code_2src_2main_8cpp.html#a694f4f5a0147f4dc29b0bc1a8951547d" target="_top" xlink:title=" ">
<polygon fill="white" stroke="black" points="310,-67.5 310,-86.5 404,-86.5 404,-67.5 310,-67.5"/>
<text text-anchor="middle" x="357" y="-74.5" font-family="Helvetica,sans-Serif" font-size="10.00">ParseAckPayload</text>
</a>
</g>
</g>
<!-- Node14&#45;&gt;Node15 -->
<g id="edge18" class="edge">
<title>Node14&#45;&gt;Node15</title>
<path fill="none" stroke="midnightblue" d="M441.87,-77C429.15,-77 416.15,-77 404.3,-77"/>
<polygon fill="midnightblue" stroke="midnightblue" points="441.98,-80.5 451.98,-77 441.98,-73.5 441.98,-80.5"/>
</g>
<!-- Node16 -->
<g id="node16" class="node">
<title>Node16</title>
<g id="a_node16"><a xlink:href="_radio_functions_8cpp.html#a1c11bb6771548de7d96723045b922620" target="_top" xlink:title=" ">
<polygon fill="white" stroke="black" points="166,-67.5 166,-86.5 262,-86.5 262,-67.5 166,-67.5"/>
<text text-anchor="middle" x="214" y="-74.5" font-family="Helvetica,sans-Serif" font-size="10.00">SuccessfulPacket</text>
</a>
</g>
</g>
<!-- Node15&#45;&gt;Node16 -->
<g id="edge19" class="edge">
<title>Node15&#45;&gt;Node16</title>
<path fill="none" stroke="midnightblue" d="M299.6,-77C287.22,-77 274.22,-77 262.24,-77"/>
<polygon fill="midnightblue" stroke="midnightblue" points="299.83,-80.5 309.83,-77 299.83,-73.5 299.83,-80.5"/>
</g>
<!-- Node17 -->
<g id="node17" class="node">
<title>Node17</title>
<g id="a_node17"><a xlink:href="_radio_functions_8cpp.html#a049bfb836e7aa4a3a48a1a4bd225fafc" target="_top" xlink:title=" ">
<polygon fill="white" stroke="black" points="71,-124.5 71,-143.5 130,-143.5 130,-124.5 71,-124.5"/>
<text text-anchor="middle" x="100.5" y="-131.5" font-family="Helvetica,sans-Serif" font-size="10.00">SendData</text>
</a>
</g>
</g>
<!-- Node16&#45;&gt;Node17 -->
<g id="edge20" class="edge">
<title>Node16&#45;&gt;Node17</title>
<path fill="none" stroke="midnightblue" d="M185.27,-91.18C164.98,-101.55 138.01,-115.33 120.22,-124.43"/>
<polygon fill="midnightblue" stroke="midnightblue" points="187.03,-94.21 194.34,-86.54 183.84,-87.98 187.03,-94.21"/>
</g>
<!-- Node17&#45;&gt;Node4 -->
<g id="edge21" class="edge">
<title>Node17&#45;&gt;Node4</title>
<path fill="none" stroke="midnightblue" d="M70.01,-147.84C58.25,-153.35 45.16,-159.49 35.12,-164.2"/>
<polygon fill="midnightblue" stroke="midnightblue" points="71.49,-151 79.06,-143.59 68.52,-144.67 71.49,-151"/>
</g>
</g>
</svg>
