<?xml version="1.0" encoding="UTF-8" standalone="no"?>
<!DOCTYPE svg PUBLIC "-//W3C//DTD SVG 1.1//EN"
 "http://www.w3.org/Graphics/SVG/1.1/DTD/svg11.dtd">
<!-- Generated by graphviz version 9.0.0 (20230911.1827)
 -->
<!-- Title: MasterDetected Pages: 1 -->
<svg width="1147pt" height="1092pt"
 viewBox="0.00 0.00 1147.25 1091.66" xmlns="http://www.w3.org/2000/svg" xmlns:xlink="http://www.w3.org/1999/xlink">
<g id="graph0" class="graph" transform="scale(1 1) rotate(0) translate(4 1087.66)">
<title>MasterDetected</title>
<!-- Node1 -->
<g id="Node000001" class="node">
<title>Node1</title>
<g id="a_Node000001"><a xlink:title=" ">
<polygon fill="#999999" stroke="#666666" points="85,-858.25 0,-858.25 0,-839 85,-839 85,-858.25"/>
<text text-anchor="middle" x="42.5" y="-844.75" font-family="Helvetica,sans-Serif" font-size="10.00">MasterDetected</text>
</a>
</g>
</g>
<!-- Node2 -->
<g id="Node000002" class="node">
<title>Node2</title>
<g id="a_Node000002"><a xlink:href="Nextion_8h.html#aecac2f0c289f02ef3c92b85be82eacac" target="_top" xlink:title=" ">
<polygon fill="white" stroke="#666666" points="297,-877.25 214.25,-877.25 214.25,-858 297,-858 297,-877.25"/>
<text text-anchor="middle" x="255.62" y="-863.75" font-family="Helvetica,sans-Serif" font-size="10.00">SendCommand</text>
</a>
</g>
</g>
<!-- Node1&#45;&gt;Node2 -->
<g id="edge1_Node000001_Node000002" class="edge">
<title>Node1&#45;&gt;Node2</title>
<g id="a_edge1_Node000001_Node000002"><a xlink:title=" ">
<path fill="none" stroke="#63b8ff" d="M85.46,-852.4C119.1,-855.43 166.48,-859.69 202.54,-862.94"/>
<polygon fill="#63b8ff" stroke="#63b8ff" points="202.04,-866.41 212.31,-863.82 202.66,-859.43 202.04,-866.41"/>
</a>
</g>
</g>
<!-- Node57 -->
<g id="Node000057" class="node">
<title>Node57</title>
<g id="a_Node000057"><a xlink:href="Nextion_8h.html#afe513398f72d5e48f691830a1ef6eb42" target="_top" xlink:title=" ">
<polygon fill="white" stroke="#666666" points="178.25,-839.25 121,-839.25 121,-820 178.25,-820 178.25,-839.25"/>
<text text-anchor="middle" x="149.62" y="-825.75" font-family="Helvetica,sans-Serif" font-size="10.00">SendText</text>
</a>
</g>
</g>
<!-- Node1&#45;&gt;Node57 -->
<g id="edge58_Node000001_Node000057" class="edge">
<title>Node1&#45;&gt;Node57</title>
<g id="a_edge58_Node000001_Node000057"><a xlink:title=" ">
<path fill="none" stroke="#63b8ff" d="M85.35,-841.06C93.35,-839.61 101.7,-838.11 109.61,-836.68"/>
<polygon fill="#63b8ff" stroke="#63b8ff" points="110.08,-840.15 119.3,-834.93 108.84,-833.26 110.08,-840.15"/>
</a>
</g>
</g>
<!-- Node3 -->
<g id="Node000003" class="node">
<title>Node3</title>
<g id="a_Node000003"><a xlink:href="Utilities_8h.html#a3b1d8aa403e2724e55c71da3d9d13e7e" target="_top" xlink:title=" ">
<polygon fill="white" stroke="#666666" points="412.75,-913.25 336,-913.25 336,-894 412.75,-894 412.75,-913.25"/>
<text text-anchor="middle" x="374.38" y="-899.75" font-family="Helvetica,sans-Serif" font-size="10.00">DelayWithDog</text>
</a>
</g>
</g>
<!-- Node2&#45;&gt;Node3 -->
<g id="edge2_Node000002_Node000003" class="edge">
<title>Node2&#45;&gt;Node3</title>
<g id="a_edge2_Node000002_Node000003"><a xlink:title=" ">
<path fill="none" stroke="#63b8ff" d="M289.46,-877.75C302,-881.62 316.5,-886.09 329.88,-890.21"/>
<polygon fill="#63b8ff" stroke="#63b8ff" points="328.76,-893.53 339.34,-893.13 330.82,-886.84 328.76,-893.53"/>
</a>
</g>
</g>
<!-- Node58 -->
<g id="Node000058" class="node">
<title>Node58</title>
<g id="a_Node000058"><a xlink:href="Nextion_8h.html#a43937dd3d9c795271fd9c3eb3c6b6410" target="_top" xlink:title=" ">
<polygon fill="white" stroke="#666666" points="415.75,-839.25 333,-839.25 333,-820 415.75,-820 415.75,-839.25"/>
<text text-anchor="middle" x="374.38" y="-825.75" font-family="Helvetica,sans-Serif" font-size="10.00">GetReturnCode</text>
</a>
</g>
</g>
<!-- Node2&#45;&gt;Node58 -->
<g id="edge56_Node000002_Node000058" class="edge">
<title>Node2&#45;&gt;Node58</title>
<g id="a_edge56_Node000002_Node000058"><a xlink:title=" ">
<path fill="none" stroke="#63b8ff" d="M287.61,-857.54C301.17,-853.13 317.29,-847.88 331.87,-843.13"/>
<polygon fill="#63b8ff" stroke="#63b8ff" points="332.79,-846.52 341.22,-840.09 330.62,-839.86 332.79,-846.52"/>
</a>
</g>
</g>
<!-- Node146 -->
<g id="Node000146" class="node">
<title>Node146</title>
<g id="a_Node000146"><a xlink:href="TransmitterCode_2src_2main_8cpp.html#a5f109790a6fe0b972a502f3cac4ed1e7" target="_top" xlink:title=" ">
<polygon fill="white" stroke="#666666" points="398.12,-876.25 350.62,-876.25 350.62,-857 398.12,-857 398.12,-876.25"/>
<text text-anchor="middle" x="374.38" y="-862.75" font-family="Helvetica,sans-Serif" font-size="10.00">InStrng</text>
</a>
</g>
</g>
<!-- Node2&#45;&gt;Node146 -->
<g id="edge57_Node000002_Node000146" class="edge">
<title>Node2&#45;&gt;Node146</title>
<g id="a_edge57_Node000002_Node000146"><a xlink:title=" ">
<path fill="none" stroke="#63b8ff" d="M297.46,-867.28C311.05,-867.16 326.04,-867.03 339.09,-866.92"/>
<polygon fill="#63b8ff" stroke="#63b8ff" points="338.94,-870.42 348.91,-866.83 338.88,-863.42 338.94,-870.42"/>
</a>
</g>
</g>
<!-- Node4 -->
<g id="Node000004" class="node">
<title>Node4</title>
<g id="a_Node000004"><a xlink:href="TransmitterCode_2src_2main_8cpp.html#ab584ae7dbc9b1af37538f91b00b8927f" target="_top" xlink:title=" ">
<polygon fill="white" stroke="#666666" points="554.75,-1043.25 466,-1043.25 466,-1024 554.75,-1024 554.75,-1043.25"/>
<text text-anchor="middle" x="510.38" y="-1029.75" font-family="Helvetica,sans-Serif" font-size="10.00">FixMotorChannel</text>
</a>
</g>
</g>
<!-- Node3&#45;&gt;Node4 -->
<g id="edge3_Node000003_Node000004" class="edge">
<title>Node3&#45;&gt;Node4</title>
<g id="a_edge3_Node000003_Node000004"><a xlink:title=" ">
<path fill="none" stroke="#63b8ff" d="M385.45,-913.4C407.95,-935.23 462.58,-988.23 491.2,-1016"/>
<polygon fill="#63b8ff" stroke="#63b8ff" points="488.49,-1018.24 498.1,-1022.69 493.36,-1013.21 488.49,-1018.24"/>
</a>
</g>
</g>
<!-- Node6 -->
<g id="Node000006" class="node">
<title>Node6</title>
<g id="a_Node000006"><a xlink:href="TransmitterCode_2src_2main_8cpp.html#a26ae4f6ca14f760bd5eb6e7588fe7c81" target="_top" xlink:title="GET NEW SERVO POSITIONS.">
<polygon fill="white" stroke="#666666" points="569,-932.25 451.75,-932.25 451.75,-913 569,-913 569,-932.25"/>
<text text-anchor="middle" x="510.38" y="-918.75" font-family="Helvetica,sans-Serif" font-size="10.00">GetNewChannelValues</text>
</a>
</g>
</g>
<!-- Node3&#45;&gt;Node6 -->
<g id="edge5_Node000003_Node000006" class="edge">
<title>Node3&#45;&gt;Node6</title>
<g id="a_edge5_Node000003_Node000006"><a xlink:title=" ">
<path fill="none" stroke="#63b8ff" d="M413.06,-908.97C421.53,-910.17 430.79,-911.48 440.1,-912.8"/>
<polygon fill="#63b8ff" stroke="#63b8ff" points="439.55,-916.26 449.94,-914.2 440.53,-909.33 439.55,-916.26"/>
</a>
</g>
</g>
<!-- Node21 -->
<g id="Node000021" class="node">
<title>Node21</title>
<g id="a_Node000021"><a xlink:href="Utilities_8h.html#ada95a00a341e4a80176eda743a94ab2e" target="_top" xlink:title=" ">
<polygon fill="white" stroke="#666666" points="545,-895.25 475.75,-895.25 475.75,-876 545,-876 545,-895.25"/>
<text text-anchor="middle" x="510.38" y="-881.75" font-family="Helvetica,sans-Serif" font-size="10.00">KickTheDog</text>
</a>
</g>
</g>
<!-- Node3&#45;&gt;Node21 -->
<g id="edge20_Node000003_Node000021" class="edge">
<title>Node3&#45;&gt;Node21</title>
<g id="a_edge20_Node000003_Node000021"><a xlink:title=" ">
<path fill="none" stroke="#63b8ff" d="M413.06,-898.56C429.03,-896.42 447.78,-893.9 464.47,-891.66"/>
<polygon fill="#63b8ff" stroke="#63b8ff" points="464.69,-895.16 474.13,-890.36 463.75,-888.22 464.69,-895.16"/>
</a>
</g>
</g>
<!-- Node22 -->
<g id="Node000022" class="node">
<title>Node22</title>
<g id="a_Node000022"><a xlink:href="transceiver_8h.html#a049bfb836e7aa4a3a48a1a4bd225fafc" target="_top" xlink:title=" ">
<polygon fill="white" stroke="#666666" points="539.75,-561.25 481,-561.25 481,-542 539.75,-542 539.75,-561.25"/>
<text text-anchor="middle" x="510.38" y="-547.75" font-family="Helvetica,sans-Serif" font-size="10.00">SendData</text>
</a>
</g>
</g>
<!-- Node3&#45;&gt;Node22 -->
<g id="edge21_Node000003_Node000022" class="edge">
<title>Node3&#45;&gt;Node22</title>
<g id="a_edge21_Node000003_Node000022"><a xlink:title=" ">
<path fill="none" stroke="#63b8ff" d="M406.06,-893.55C409.68,-891.38 413.04,-888.76 415.75,-885.62 497.37,-791.12 508.19,-630.59 509.36,-572.99"/>
<polygon fill="#63b8ff" stroke="#63b8ff" points="512.86,-573.03 509.47,-563 505.86,-572.96 512.86,-573.03"/>
</a>
</g>
</g>
<!-- Node5 -->
<g id="Node000005" class="node">
<title>Node5</title>
<g id="a_Node000005"><a xlink:href="Utilities_8h.html#a0d8d8a0d67cb9b04481f1692abe75368" target="_top" xlink:title=" ">
<polygon fill="white" stroke="#666666" points="897.25,-1007.25 819,-1007.25 819,-988 897.25,-988 897.25,-1007.25"/>
<text text-anchor="middle" x="858.12" y="-993.75" font-family="Helvetica,sans-Serif" font-size="10.00">IntoHigherRes</text>
</a>
</g>
</g>
<!-- Node4&#45;&gt;Node5 -->
<g id="edge4_Node000004_Node000005" class="edge">
<title>Node4&#45;&gt;Node5</title>
<g id="a_edge4_Node000004_Node000005"><a xlink:title=" ">
<path fill="none" stroke="#63b8ff" d="M530.07,-1043.73C548.51,-1053.08 577.8,-1066.31 605,-1071.62 667.6,-1083.84 687.55,-1090.41 748.5,-1071.62 784.24,-1060.61 818.74,-1033.37 838.94,-1015.19"/>
<polygon fill="#63b8ff" stroke="#63b8ff" points="841.1,-1017.96 846.06,-1008.6 836.34,-1012.82 841.1,-1017.96"/>
</a>
</g>
</g>
<!-- Node7 -->
<g id="Node000007" class="node">
<title>Node7</title>
<g id="a_Node000007"><a xlink:href="TransmitterCode_2src_2main_8cpp.html#af518bb2cfb3cfe18d491b2a5d6bf7dcc" target="_top" xlink:title=" ">
<polygon fill="white" stroke="#666666" points="727.88,-877.25 625.62,-877.25 625.62,-858 727.88,-858 727.88,-877.25"/>
<text text-anchor="middle" x="676.75" y="-863.75" font-family="Helvetica,sans-Serif" font-size="10.00">CalculateAllOutputs</text>
</a>
</g>
</g>
<!-- Node6&#45;&gt;Node7 -->
<g id="edge6_Node000006_Node000007" class="edge">
<title>Node6&#45;&gt;Node7</title>
<g id="a_edge6_Node000006_Node000007"><a xlink:title=" ">
<path fill="none" stroke="#63b8ff" d="M547.09,-912.59C554.43,-910.22 562.03,-907.52 569,-904.62 585.7,-897.68 588.12,-892.12 605,-885.62 609.39,-883.93 614,-882.36 618.66,-880.89"/>
<polygon fill="#63b8ff" stroke="#63b8ff" points="619.52,-884.29 628.13,-878.11 617.55,-877.57 619.52,-884.29"/>
</a>
</g>
</g>
<!-- Node11 -->
<g id="Node000011" class="node">
<title>Node11</title>
<g id="a_Node000011"><a xlink:href="TransmitterCode_2src_2main_8cpp.html#acd70b997cf150e55d943df5d6f1cff51" target="_top" xlink:title=" ">
<polygon fill="white" stroke="#666666" points="731.25,-840.25 622.25,-840.25 622.25,-821 731.25,-821 731.25,-840.25"/>
<text text-anchor="middle" x="676.75" y="-826.75" font-family="Helvetica,sans-Serif" font-size="10.00">DoTrimsAndSubtrims</text>
</a>
</g>
</g>
<!-- Node6&#45;&gt;Node11 -->
<g id="edge9_Node000006_Node000011" class="edge">
<title>Node6&#45;&gt;Node11</title>
<g id="a_edge9_Node000006_Node000011"><a xlink:title=" ">
<path fill="none" stroke="#63b8ff" d="M555.17,-912.59C560.09,-910.42 564.83,-907.8 569,-904.62 592.53,-886.69 580.99,-865.92 605,-848.62 607.17,-847.06 609.46,-845.63 611.84,-844.33"/>
<polygon fill="#63b8ff" stroke="#63b8ff" points="613.04,-847.63 620.66,-840.27 610.11,-841.28 613.04,-847.63"/>
</a>
</g>
</g>
<!-- Node13 -->
<g id="Node000013" class="node">
<title>Node13</title>
<g id="a_Node000013"><a xlink:href="TransmitterCode_2src_2main_8cpp.html#a15d8fbd5988e76a16e33e7f620804009" target="_top" xlink:title=" ">
<polygon fill="white" stroke="#666666" points="711.75,-803.25 641.75,-803.25 641.75,-784 711.75,-784 711.75,-803.25"/>
<text text-anchor="middle" x="676.75" y="-789.75" font-family="Helvetica,sans-Serif" font-size="10.00">GetAllInputs</text>
</a>
</g>
</g>
<!-- Node6&#45;&gt;Node13 -->
<g id="edge11_Node000006_Node000013" class="edge">
<title>Node6&#45;&gt;Node13</title>
<g id="a_edge11_Node000006_Node000013"><a xlink:title=" ">
<path fill="none" stroke="#63b8ff" d="M557.55,-912.52C561.72,-910.37 565.63,-907.78 569,-904.62 601.37,-874.34 571.83,-841.03 605,-811.62 612.08,-805.35 621.05,-801.2 630.2,-798.48"/>
<polygon fill="#63b8ff" stroke="#63b8ff" points="630.95,-801.9 639.87,-796.16 629.32,-795.09 630.95,-801.9"/>
</a>
</g>
</g>
<!-- Node16 -->
<g id="Node000016" class="node">
<title>Node16</title>
<g id="a_Node000016"><a xlink:href="Mixes_8h.html#a5aa9208b1f2a522a0cdb348301fe0593" target="_top" xlink:title=" ">
<polygon fill="white" stroke="#666666" points="705.75,-1062.25 647.75,-1062.25 647.75,-1043 705.75,-1043 705.75,-1062.25"/>
<text text-anchor="middle" x="676.75" y="-1048.75" font-family="Helvetica,sans-Serif" font-size="10.00">MixInputs</text>
</a>
</g>
</g>
<!-- Node6&#45;&gt;Node16 -->
<g id="edge14_Node000006_Node000016" class="edge">
<title>Node6&#45;&gt;Node16</title>
<g id="a_edge14_Node000006_Node000016"><a xlink:title=" ">
<path fill="none" stroke="#63b8ff" d="M516.7,-932.48C529.09,-954.45 562.1,-1007.62 605,-1034.62 614.29,-1040.48 625.4,-1044.43 636.03,-1047.1"/>
<polygon fill="#63b8ff" stroke="#63b8ff" points="635.28,-1050.51 645.79,-1049.2 636.75,-1043.67 635.28,-1050.51"/>
</a>
</g>
</g>
<!-- Node17 -->
<g id="Node000017" class="node">
<title>Node17</title>
<g id="a_Node000017"><a xlink:href="Mixes_8h.html#a376c11f3a285138341edc0783f930ff3" target="_top" xlink:title=" ">
<polygon fill="white" stroke="#666666" points="709.5,-914.25 644,-914.25 644,-895 709.5,-895 709.5,-914.25"/>
<text text-anchor="middle" x="676.75" y="-900.75" font-family="Helvetica,sans-Serif" font-size="10.00">MixOutputs</text>
</a>
</g>
</g>
<!-- Node6&#45;&gt;Node17 -->
<g id="edge15_Node000006_Node000017" class="edge">
<title>Node6&#45;&gt;Node17</title>
<g id="a_edge15_Node000006_Node000017"><a xlink:title=" ">
<path fill="none" stroke="#63b8ff" d="M569.33,-916.28C590.09,-914.01 613.12,-911.48 632.43,-909.37"/>
<polygon fill="#63b8ff" stroke="#63b8ff" points="632.56,-912.88 642.12,-908.31 631.8,-905.92 632.56,-912.88"/>
</a>
</g>
</g>
<!-- Node18 -->
<g id="Node000018" class="node">
<title>Node18</title>
<g id="a_Node000018"><a xlink:href="TransmitterCode_2src_2main_8cpp.html#a92bb36e29cd297189daefb3b79deaac3" target="_top" xlink:title=" ">
<polygon fill="white" stroke="#666666" points="718.88,-1025.25 634.62,-1025.25 634.62,-1006 718.88,-1006 718.88,-1025.25"/>
<text text-anchor="middle" x="676.75" y="-1011.75" font-family="Helvetica,sans-Serif" font-size="10.00">RerouteOutputs</text>
</a>
</g>
</g>
<!-- Node6&#45;&gt;Node18 -->
<g id="edge17_Node000006_Node000018" class="edge">
<title>Node6&#45;&gt;Node18</title>
<g id="a_edge17_Node000006_Node000018"><a xlink:title=" ">
<path fill="none" stroke="#63b8ff" d="M520.77,-932.51C536.61,-948.59 570.33,-980.35 605,-997.62 610.81,-1000.52 617.14,-1002.98 623.53,-1005.06"/>
<polygon fill="#63b8ff" stroke="#63b8ff" points="622.24,-1008.33 632.83,-1007.79 624.21,-1001.61 622.24,-1008.33"/>
</a>
</g>
</g>
<!-- Node19 -->
<g id="Node000019" class="node">
<title>Node19</title>
<g id="a_Node000019"><a xlink:href="Utilities_8h.html#a2d10590a11f1790e37c47f70f294f10d" target="_top" xlink:title=" ">
<polygon fill="white" stroke="#666666" points="715.5,-988.25 638,-988.25 638,-969 715.5,-969 715.5,-988.25"/>
<text text-anchor="middle" x="676.75" y="-974.75" font-family="Helvetica,sans-Serif" font-size="10.00">ServoReverse</text>
</a>
</g>
</g>
<!-- Node6&#45;&gt;Node19 -->
<g id="edge18_Node000006_Node000019" class="edge">
<title>Node6&#45;&gt;Node19</title>
<g id="a_edge18_Node000006_Node000019"><a xlink:title=" ">
<path fill="none" stroke="#63b8ff" d="M533.76,-932.72C552.53,-940.93 580.17,-952.47 605,-960.62 611.96,-962.91 619.38,-965.08 626.7,-967.07"/>
<polygon fill="#63b8ff" stroke="#63b8ff" points="625.63,-970.41 636.19,-969.56 627.41,-963.64 625.63,-970.41"/>
</a>
</g>
</g>
<!-- Node20 -->
<g id="Node000020" class="node">
<title>Node20</title>
<g id="a_Node000020"><a xlink:href="TransmitterCode_2src_2main_8cpp.html#a73d05c890a6a5f7b493e6aefb497d869" target="_top" xlink:title=" ">
<polygon fill="white" stroke="#666666" points="719.25,-951.25 634.25,-951.25 634.25,-932 719.25,-932 719.25,-951.25"/>
<text text-anchor="middle" x="676.75" y="-937.75" font-family="Helvetica,sans-Serif" font-size="10.00">SlowAnyServos</text>
</a>
</g>
</g>
<!-- Node6&#45;&gt;Node20 -->
<g id="edge19_Node000006_Node000020" class="edge">
<title>Node6&#45;&gt;Node20</title>
<g id="a_edge19_Node000006_Node000020"><a xlink:title=" ">
<path fill="none" stroke="#63b8ff" d="M569.33,-929.32C586.6,-931.32 605.44,-933.5 622.41,-935.46"/>
<polygon fill="#63b8ff" stroke="#63b8ff" points="621.97,-938.93 632.3,-936.6 622.77,-931.98 621.97,-938.93"/>
</a>
</g>
</g>
<!-- Node8 -->
<g id="Node000008" class="node">
<title>Node8</title>
<g id="a_Node000008"><a xlink:href="Rates_8h.html#af9c038b48102eca9032f10fefd9d5736" target="_top" xlink:title=" ">
<polygon fill="#fff0f0" stroke="red" points="896.88,-877.25 819.38,-877.25 819.38,-858 896.88,-858 896.88,-877.25"/>
<text text-anchor="middle" x="858.12" y="-863.75" font-family="Helvetica,sans-Serif" font-size="10.00">GetCurveDots</text>
</a>
</g>
</g>
<!-- Node7&#45;&gt;Node8 -->
<g id="edge7_Node000007_Node000008" class="edge">
<title>Node7&#45;&gt;Node8</title>
<g id="a_edge7_Node000007_Node000008"><a xlink:title=" ">
<path fill="none" stroke="#63b8ff" d="M728.19,-867.62C753.06,-867.62 782.94,-867.62 807.68,-867.62"/>
<polygon fill="#63b8ff" stroke="#63b8ff" points="807.49,-871.13 817.49,-867.63 807.49,-864.13 807.49,-871.13"/>
</a>
</g>
</g>
<!-- Node9 -->
<g id="Node000009" class="node">
<title>Node9</title>
<g id="a_Node000009"><a xlink:href="Rates_8h.html#afeabb54d48ef7e55693014e057d2943d" target="_top" xlink:title=" ">
<polygon fill="white" stroke="#666666" points="1050.88,-877.25 974.12,-877.25 974.12,-858 1050.88,-858 1050.88,-877.25"/>
<text text-anchor="middle" x="1012.5" y="-863.75" font-family="Helvetica,sans-Serif" font-size="10.00">CalculateRate</text>
</a>
</g>
</g>
<!-- Node8&#45;&gt;Node9 -->
<g id="edge8_Node000008_Node000009" class="edge">
<title>Node8&#45;&gt;Node9</title>
<g id="a_edge8_Node000008_Node000009"><a xlink:title=" ">
<path fill="none" stroke="#63b8ff" d="M897.18,-867.62C916.89,-867.62 941.19,-867.62 962.31,-867.62"/>
<polygon fill="#63b8ff" stroke="#63b8ff" points="962.15,-871.13 972.15,-867.63 962.15,-864.13 962.15,-871.13"/>
</a>
</g>
</g>
<!-- Node12 -->
<g id="Node000012" class="node">
<title>Node12</title>
<g id="a_Node000012"><a xlink:href="Trims_8h.html#aacd8b022714bb89847239dd878ad9509" target="_top" xlink:title=" ">
<polygon fill="white" stroke="#666666" points="900.62,-840.25 815.62,-840.25 815.62,-821 900.62,-821 900.62,-840.25"/>
<text text-anchor="middle" x="858.12" y="-826.75" font-family="Helvetica,sans-Serif" font-size="10.00">GetTrimAmount</text>
</a>
</g>
</g>
<!-- Node11&#45;&gt;Node12 -->
<g id="edge10_Node000011_Node000012" class="edge">
<title>Node11&#45;&gt;Node12</title>
<g id="a_edge10_Node000011_Node000012"><a xlink:title=" ">
<path fill="none" stroke="#63b8ff" d="M731.57,-830.62C754.52,-830.62 781.23,-830.62 804.09,-830.62"/>
<polygon fill="#63b8ff" stroke="#63b8ff" points="803.8,-834.13 813.8,-830.63 803.8,-827.13 803.8,-834.13"/>
</a>
</g>
</g>
<!-- Node14 -->
<g id="Node000014" class="node">
<title>Node14</title>
<g id="a_Node000014"><a xlink:href="TransmitterCode_2src_2main_8cpp.html#ac5728db610c441820a6f47295967cbab" target="_top" xlink:title=" ">
<polygon fill="white" stroke="#666666" points="897.62,-803.25 818.62,-803.25 818.62,-784 897.62,-784 897.62,-803.25"/>
<text text-anchor="middle" x="858.12" y="-789.75" font-family="Helvetica,sans-Serif" font-size="10.00">AnalogueReed</text>
</a>
</g>
</g>
<!-- Node13&#45;&gt;Node14 -->
<g id="edge12_Node000013_Node000014" class="edge">
<title>Node13&#45;&gt;Node14</title>
<g id="a_edge12_Node000013_Node000014"><a xlink:title=" ">
<path fill="none" stroke="#63b8ff" d="M711.91,-793.62C738.86,-793.62 776.84,-793.62 807.2,-793.62"/>
<polygon fill="#63b8ff" stroke="#63b8ff" points="806.91,-797.13 816.91,-793.63 806.91,-790.13 806.91,-797.13"/>
</a>
</g>
</g>
<!-- Node15 -->
<g id="Node000015" class="node">
<title>Node15</title>
<g id="a_Node000015"><a xlink:href="TransmitterCode_2src_2main_8cpp.html#a787973ed0df098048a54e5110896eeb6" target="_top" xlink:title=" ">
<polygon fill="white" stroke="#666666" points="922.38,-766.25 793.88,-766.25 793.88,-747 922.38,-747 922.38,-766.25"/>
<text text-anchor="middle" x="858.12" y="-752.75" font-family="Helvetica,sans-Serif" font-size="10.00">ReadThreePositionSwitch</text>
</a>
</g>
</g>
<!-- Node13&#45;&gt;Node15 -->
<g id="edge13_Node000013_Node000015" class="edge">
<title>Node13&#45;&gt;Node15</title>
<g id="a_edge13_Node000013_Node000015"><a xlink:title=" ">
<path fill="none" stroke="#63b8ff" d="M711.91,-786.58C735.96,-781.62 768.79,-774.85 797.15,-769"/>
<polygon fill="#63b8ff" stroke="#63b8ff" points="797.61,-772.47 806.7,-767.03 796.2,-765.62 797.61,-772.47"/>
</a>
</g>
</g>
<!-- Node17&#45;&gt;Node5 -->
<g id="edge16_Node000017_Node000005" class="edge">
<title>Node17&#45;&gt;Node5</title>
<g id="a_edge16_Node000017_Node000005"><a xlink:title=" ">
<path fill="none" stroke="#63b8ff" d="M709.91,-910.28C722.31,-913.1 736.39,-917.12 748.5,-922.62 781.97,-937.84 816.15,-963.44 837.01,-980.43"/>
<polygon fill="#63b8ff" stroke="#63b8ff" points="834.5,-982.91 844.43,-986.6 838.98,-977.52 834.5,-982.91"/>
</a>
</g>
</g>
<!-- Node23 -->
<g id="Node000023" class="node">
<title>Node23</title>
<g id="a_Node000023"><a xlink:href="transceiver_8h.html#a1ddd5e8d5bd649dd98ce3710fbff651b" target="_top" xlink:title=" ">
<polygon fill="white" stroke="#666666" points="706.88,-692.25 646.62,-692.25 646.62,-673 706.88,-673 706.88,-692.25"/>
<text text-anchor="middle" x="676.75" y="-678.75" font-family="Helvetica,sans-Serif" font-size="10.00">Compress</text>
</a>
</g>
</g>
<!-- Node22&#45;&gt;Node23 -->
<g id="edge22_Node000022_Node000023" class="edge">
<title>Node22&#45;&gt;Node23</title>
<g id="a_edge22_Node000022_Node000023"><a xlink:title=" ">
<path fill="none" stroke="#63b8ff" d="M516.67,-561.57C529.02,-583.74 561.94,-637.39 605,-664.62 614.05,-670.35 624.82,-674.25 635.21,-676.92"/>
<polygon fill="#63b8ff" stroke="#63b8ff" points="634.22,-680.28 644.74,-679.02 635.73,-673.45 634.22,-680.28"/>
</a>
</g>
</g>
<!-- Node24 -->
<g id="Node000024" class="node">
<title>Node24</title>
<g id="a_Node000024"><a xlink:href="transceiver_8h.html#a4144c213e5448a7e02d4172881f08219" target="_top" xlink:title=" ">
<polygon fill="white" stroke="#666666" points="748.5,-655.25 605,-655.25 605,-636 748.5,-636 748.5,-655.25"/>
<text text-anchor="middle" x="676.75" y="-641.75" font-family="Helvetica,sans-Serif" font-size="10.00">EncodeTheChangedChannels</text>
</a>
</g>
</g>
<!-- Node22&#45;&gt;Node24 -->
<g id="edge23_Node000022_Node000024" class="edge">
<title>Node22&#45;&gt;Node24</title>
<g id="a_edge23_Node000022_Node000024"><a xlink:title=" ">
<path fill="none" stroke="#63b8ff" d="M520.74,-561.64C536.55,-577.95 570.2,-610.15 605,-627.62 607.92,-629.09 610.97,-630.45 614.09,-631.69"/>
<polygon fill="#63b8ff" stroke="#63b8ff" points="612.89,-634.98 623.49,-635.04 615.24,-628.39 612.89,-634.98"/>
</a>
</g>
</g>
<!-- Node25 -->
<g id="Node000025" class="node">
<title>Node25</title>
<g id="a_Node000025"><a xlink:href="transceiver_8h.html#a5fbd3c8613a4163425c94965704ce5f8" target="_top" xlink:title=" ">
<polygon fill="white" stroke="#666666" points="713.25,-618.25 640.25,-618.25 640.25,-599 713.25,-599 713.25,-618.25"/>
<text text-anchor="middle" x="676.75" y="-604.75" font-family="Helvetica,sans-Serif" font-size="10.00">FailedPacket</text>
</a>
</g>
</g>
<!-- Node22&#45;&gt;Node25 -->
<g id="edge24_Node000022_Node000025" class="edge">
<title>Node22&#45;&gt;Node25</title>
<g id="a_edge24_Node000022_Node000025"><a xlink:title=" ">
<path fill="none" stroke="#63b8ff" d="M539.61,-561.68C558.18,-568.26 583.01,-577.02 605,-584.62 614.71,-587.98 625.18,-591.56 635.02,-594.9"/>
<polygon fill="#63b8ff" stroke="#63b8ff" points="633.75,-598.16 644.34,-598.06 635.99,-591.53 633.75,-598.16"/>
</a>
</g>
</g>
<!-- Node69 -->
<g id="Node000069" class="node">
<title>Node69</title>
<g id="a_Node000069"><a xlink:href="transceiver_8h.html#a07c27b4e208198453c70876517926052" target="_top" xlink:title=" ">
<polygon fill="white" stroke="#666666" points="1043.38,-537.25 981.62,-537.25 981.62,-518 1043.38,-518 1043.38,-537.25"/>
<text text-anchor="middle" x="1012.5" y="-523.75" font-family="Helvetica,sans-Serif" font-size="10.00">FlushFifos</text>
</a>
</g>
</g>
<!-- Node22&#45;&gt;Node69 -->
<g id="edge30_Node000022_Node000069" class="edge">
<title>Node22&#45;&gt;Node69</title>
<g id="a_edge30_Node000022_Node000069"><a xlink:title=" ">
<path fill="none" stroke="#63b8ff" d="M540.06,-550.25C624.33,-546.2 871.39,-534.35 970.08,-529.61"/>
<polygon fill="#63b8ff" stroke="#63b8ff" points="970.03,-533.12 979.85,-529.14 969.69,-526.13 970.03,-533.12"/>
</a>
</g>
</g>
<!-- Node65 -->
<g id="Node000065" class="node">
<title>Node65</title>
<g id="a_Node000065"><a xlink:href="common_8h.html#a6e2d4126d864c50e7c23c988c2bfdd1a" target="_top" xlink:title=" ">
<polygon fill="white" stroke="#666666" points="1139.25,-470.25 1093.25,-470.25 1093.25,-451 1139.25,-451 1139.25,-470.25"/>
<text text-anchor="middle" x="1116.25" y="-456.75" font-family="Helvetica,sans-Serif" font-size="10.00">Radio1</text>
</a>
</g>
</g>
<!-- Node22&#45;&gt;Node65 -->
<g id="edge32_Node000022_Node000065" class="edge">
<title>Node22&#45;&gt;Node65</title>
<g id="a_edge32_Node000022_Node000065"><a xlink:title=" ">
<path fill="none" stroke="#63b8ff" d="M539.94,-554.85C639.12,-565.52 967.46,-596.25 1057.25,-546.62 1082.8,-532.5 1099.25,-501.79 1107.88,-481.15"/>
<polygon fill="#63b8ff" stroke="#63b8ff" points="1111.06,-482.63 1111.42,-472.04 1104.53,-480.09 1111.06,-482.63"/>
</a>
</g>
</g>
<!-- Node70 -->
<g id="Node000070" class="node">
<title>Node70</title>
<g id="a_Node000070"><a xlink:href="transceiver_8h.html#a2922deec8dd173415edd9ec1c3e406a8" target="_top" xlink:title=" ">
<polygon fill="white" stroke="#666666" points="736.12,-112.25 617.38,-112.25 617.38,-93 736.12,-93 736.12,-112.25"/>
<text text-anchor="middle" x="676.75" y="-98.75" font-family="Helvetica,sans-Serif" font-size="10.00">SendExtraParamemters</text>
</a>
</g>
</g>
<!-- Node22&#45;&gt;Node70 -->
<g id="edge33_Node000022_Node000070" class="edge">
<title>Node22&#45;&gt;Node70</title>
<g id="a_edge33_Node000022_Node000070"><a xlink:title=" ">
<path fill="none" stroke="#63b8ff" d="M514.32,-541.75C525.27,-505.18 565.13,-374.16 605,-268.62 625.12,-215.35 652.34,-154.04 666.43,-122.96"/>
<polygon fill="#63b8ff" stroke="#63b8ff" points="669.56,-124.54 670.52,-113.99 663.19,-121.64 669.56,-124.54"/>
</a>
</g>
</g>
<!-- Node74 -->
<g id="Node000074" class="node">
<title>Node74</title>
<g id="a_Node000074"><a xlink:href="BuddyWireless_8h.html#a41c327908c92572d0d3eebbb19160d86" target="_top" xlink:title=" ">
<polygon fill="white" stroke="#666666" points="727.5,-467.25 626,-467.25 626,-448 727.5,-448 727.5,-467.25"/>
<text text-anchor="middle" x="676.75" y="-453.75" font-family="Helvetica,sans-Serif" font-size="10.00">SendSpecialPacket</text>
</a>
</g>
</g>
<!-- Node22&#45;&gt;Node74 -->
<g id="edge38_Node000022_Node000074" class="edge">
<title>Node22&#45;&gt;Node74</title>
<g id="a_edge38_Node000022_Node000074"><a xlink:title=" ">
<path fill="none" stroke="#63b8ff" d="M528.97,-541.57C557.64,-525.17 614.64,-492.57 648.56,-473.17"/>
<polygon fill="#63b8ff" stroke="#63b8ff" points="650.03,-476.37 656.97,-468.36 646.55,-470.29 650.03,-476.37"/>
</a>
</g>
</g>
<!-- Node82 -->
<g id="Node000082" class="node">
<title>Node82</title>
<g id="a_Node000082"><a xlink:href="BuddyPPM_8h.html#a784a1eca0361b3991bca899167cc1cdb" target="_top" xlink:title=" ">
<polygon fill="white" stroke="#666666" points="714,-75.25 639.5,-75.25 639.5,-56 714,-56 714,-75.25"/>
<text text-anchor="middle" x="676.75" y="-61.75" font-family="Helvetica,sans-Serif" font-size="10.00">SendViaPPM</text>
</a>
</g>
</g>
<!-- Node22&#45;&gt;Node82 -->
<g id="edge47_Node000022_Node000082" class="edge">
<title>Node22&#45;&gt;Node82</title>
<g id="a_edge47_Node000022_Node000082"><a xlink:title=" ">
<path fill="none" stroke="#63b8ff" d="M511.94,-541.89C515.7,-481.06 538.81,-153.32 605,-83.62 611.2,-77.1 619.4,-72.81 628.02,-70.01"/>
<polygon fill="#63b8ff" stroke="#63b8ff" points="628.74,-73.44 637.58,-67.59 627.02,-66.66 628.74,-73.44"/>
</a>
</g>
</g>
<!-- Node83 -->
<g id="Node000083" class="node">
<title>Node83</title>
<g id="a_Node000083"><a xlink:href="transceiver_8h.html#a1c11bb6771548de7d96723045b922620" target="_top" xlink:title=" ">
<polygon fill="white" stroke="#666666" points="724.5,-297.25 629,-297.25 629,-278 724.5,-278 724.5,-297.25"/>
<text text-anchor="middle" x="676.75" y="-283.75" font-family="Helvetica,sans-Serif" font-size="10.00">SuccessfulPacket</text>
</a>
</g>
</g>
<!-- Node22&#45;&gt;Node83 -->
<g id="edge48_Node000022_Node000083" class="edge">
<title>Node22&#45;&gt;Node83</title>
<g id="a_edge48_Node000022_Node000083"><a xlink:title=" ">
<path fill="none" stroke="#63b8ff" d="M517.62,-541.6C541.98,-502.48 630.89,-359.67 663.58,-307.16"/>
<polygon fill="#63b8ff" stroke="#63b8ff" points="666.39,-309.29 668.7,-298.95 660.44,-305.59 666.39,-309.29"/>
</a>
</g>
</g>
<!-- Node26 -->
<g id="Node000026" class="node">
<title>Node26</title>
<g id="a_Node000026"><a xlink:href="transceiver_8h.html#afcf53d02052a623856b352f27547194c" target="_top" xlink:title=" ">
<polygon fill="white" stroke="#666666" points="905.5,-655.25 810.75,-655.25 810.75,-636 905.5,-636 905.5,-655.25"/>
<text text-anchor="middle" x="858.12" y="-641.75" font-family="Helvetica,sans-Serif" font-size="10.00">CheckDataRepeat</text>
</a>
</g>
</g>
<!-- Node25&#45;&gt;Node26 -->
<g id="edge25_Node000025_Node000026" class="edge">
<title>Node25&#45;&gt;Node26</title>
<g id="a_edge25_Node000025_Node000026"><a xlink:title=" ">
<path fill="none" stroke="#63b8ff" d="M713.62,-616.02C738.17,-621.09 771.26,-627.91 799.47,-633.73"/>
<polygon fill="#63b8ff" stroke="#63b8ff" points="798.44,-637.09 808.94,-635.69 799.85,-630.24 798.44,-637.09"/>
</a>
</g>
</g>
<!-- Node27 -->
<g id="Node000027" class="node">
<title>Node27</title>
<g id="a_Node000027"><a xlink:href="transceiver_8h.html#a7154e4db2ead530e9d7c8061d09d37cb" target="_top" xlink:title=" ">
<polygon fill="#fff0f0" stroke="red" points="889,-618.25 827.25,-618.25 827.25,-599 889,-599 889,-618.25"/>
<text text-anchor="middle" x="858.12" y="-604.75" font-family="Helvetica,sans-Serif" font-size="10.00">CheckGap</text>
</a>
</g>
</g>
<!-- Node25&#45;&gt;Node27 -->
<g id="edge26_Node000025_Node000027" class="edge">
<title>Node25&#45;&gt;Node27</title>
<g id="a_edge26_Node000025_Node000027"><a xlink:title=" ">
<path fill="none" stroke="#63b8ff" d="M713.62,-608.62C743.08,-608.62 784.84,-608.62 815.72,-608.62"/>
<polygon fill="#63b8ff" stroke="#63b8ff" points="815.46,-612.13 825.46,-608.63 815.46,-605.13 815.46,-612.13"/>
</a>
</g>
</g>
<!-- Node59 -->
<g id="Node000059" class="node">
<title>Node59</title>
<g id="a_Node000059"><a xlink:href="transceiver_8h.html#abf955fe3fa8f544096735e18385cd90d" target="_top" xlink:title=" ">
<polygon fill="white" stroke="#666666" points="917.12,-729.25 799.12,-729.25 799.12,-710 917.12,-710 917.12,-729.25"/>
<text text-anchor="middle" x="858.12" y="-715.75" font-family="Helvetica,sans-Serif" font-size="10.00">CheckInactivityTimeout</text>
</a>
</g>
</g>
<!-- Node25&#45;&gt;Node59 -->
<g id="edge27_Node000025_Node000059" class="edge">
<title>Node25&#45;&gt;Node59</title>
<g id="a_edge27_Node000025_Node000059"><a xlink:title=" ">
<path fill="none" stroke="#63b8ff" d="M713.62,-611.58C725.75,-614.09 738.69,-618.59 748.5,-626.62 777.11,-650.05 755.82,-678.29 784.5,-701.62 785.99,-702.84 787.55,-703.97 789.17,-705.03"/>
<polygon fill="#63b8ff" stroke="#63b8ff" points="787.16,-707.92 797.62,-709.58 790.48,-701.76 787.16,-707.92"/>
</a>
</g>
</g>
<!-- Node60 -->
<g id="Node000060" class="node">
<title>Node60</title>
<g id="a_Node000060"><a xlink:href="transceiver_8h.html#a18d9866d5425cd145044b1fddbfc00a0" target="_top" xlink:title=" ">
<polygon fill="#fff0f0" stroke="red" points="906.62,-692.25 809.62,-692.25 809.62,-673 906.62,-673 906.62,-692.25"/>
<text text-anchor="middle" x="858.12" y="-678.75" font-family="Helvetica,sans-Serif" font-size="10.00">CheckLostContact</text>
</a>
</g>
</g>
<!-- Node25&#45;&gt;Node60 -->
<g id="edge28_Node000025_Node000060" class="edge">
<title>Node25&#45;&gt;Node60</title>
<g id="a_edge28_Node000025_Node000060"><a xlink:title=" ">
<path fill="none" stroke="#63b8ff" d="M713.45,-613.63C725.17,-616.31 737.9,-620.4 748.5,-626.62 768.56,-638.4 764.4,-652.91 784.5,-664.62 788.91,-667.2 793.68,-669.4 798.6,-671.29"/>
<polygon fill="#63b8ff" stroke="#63b8ff" points="797.47,-674.61 808.06,-674.47 799.7,-667.97 797.47,-674.61"/>
</a>
</g>
</g>
<!-- Node68 -->
<g id="Node000068" class="node">
<title>Node68</title>
<g id="a_Node000068"><a xlink:href="transceiver_8h.html#afc091b5942e21a03f6dc8635d5e519ba" target="_top" xlink:title=" ">
<polygon fill="white" stroke="#666666" points="918.62,-467.25 797.62,-467.25 797.62,-448 918.62,-448 918.62,-467.25"/>
<text text-anchor="middle" x="858.12" y="-453.75" font-family="Helvetica,sans-Serif" font-size="10.00">RecordsPacketSuccess</text>
</a>
</g>
</g>
<!-- Node25&#45;&gt;Node68 -->
<g id="edge29_Node000025_Node000068" class="edge">
<title>Node25&#45;&gt;Node68</title>
<g id="a_edge29_Node000025_Node000068"><a xlink:title=" ">
<path fill="none" stroke="#63b8ff" d="M682.68,-598.78C695.67,-573.94 733.36,-508.31 784.5,-475.62 786.35,-474.44 788.27,-473.34 790.24,-472.31"/>
<polygon fill="#63b8ff" stroke="#63b8ff" points="791.4,-475.63 799.1,-468.35 788.54,-469.24 791.4,-475.63"/>
</a>
</g>
</g>
<!-- Node69&#45;&gt;Node65 -->
<g id="edge31_Node000069_Node000065" class="edge">
<title>Node69&#45;&gt;Node65</title>
<g id="a_edge31_Node000069_Node000065"><a xlink:title=" ">
<path fill="none" stroke="#63b8ff" d="M1028.51,-517.74C1044.9,-506.95 1071.37,-489.52 1090.77,-476.75"/>
<polygon fill="#63b8ff" stroke="#63b8ff" points="1092.48,-479.81 1098.91,-471.38 1088.63,-473.96 1092.48,-479.81"/>
</a>
</g>
</g>
<!-- Node71 -->
<g id="Node000071" class="node">
<title>Node71</title>
<g id="a_Node000071"><a xlink:href="transceiver_8h.html#adac102739147db6397bbcbb371aec4fd" target="_top" xlink:title=" ">
<polygon fill="#fff0f0" stroke="red" points="902.12,-56.25 814.12,-56.25 814.12,-37 902.12,-37 902.12,-56.25"/>
<text text-anchor="middle" x="858.12" y="-42.75" font-family="Helvetica,sans-Serif" font-size="10.00">LoadParameters</text>
</a>
</g>
</g>
<!-- Node70&#45;&gt;Node71 -->
<g id="edge34_Node000070_Node000071" class="edge">
<title>Node70&#45;&gt;Node71</title>
<g id="a_edge34_Node000070_Node000071"><a xlink:title=" ">
<path fill="none" stroke="#63b8ff" d="M724.35,-92.6C732.51,-90.32 740.84,-87.67 748.5,-84.62 765.51,-77.87 767.47,-71.33 784.5,-64.62 790.46,-62.28 796.82,-60.17 803.21,-58.29"/>
<polygon fill="#63b8ff" stroke="#63b8ff" points="803.74,-61.77 812.45,-55.75 801.88,-55.02 803.74,-61.77"/>
</a>
</g>
</g>
<!-- Node73 -->
<g id="Node000073" class="node">
<title>Node73</title>
<g id="a_Node000073"><a xlink:href="transceiver_8h.html#a3cf130d144a13a07623d938ff62fa7ca" target="_top" xlink:title=" ">
<polygon fill="white" stroke="#666666" points="931.75,-19.25 784.5,-19.25 784.5,0 931.75,0 931.75,-19.25"/>
<text text-anchor="middle" x="858.12" y="-5.75" font-family="Helvetica,sans-Serif" font-size="10.00">LoadRawDataWithParameters</text>
</a>
</g>
</g>
<!-- Node70&#45;&gt;Node73 -->
<g id="edge35_Node000070_Node000073" class="edge">
<title>Node70&#45;&gt;Node73</title>
<g id="a_edge35_Node000070_Node000073"><a xlink:title=" ">
<path fill="none" stroke="#63b8ff" d="M734.03,-92.63C739.17,-90.46 744.09,-87.83 748.5,-84.62 772.74,-67.01 760.2,-45.16 784.5,-27.62 785.88,-26.63 787.31,-25.68 788.79,-24.79"/>
<polygon fill="#63b8ff" stroke="#63b8ff" points="790.3,-27.95 797.65,-20.32 787.14,-21.7 790.3,-27.95"/>
</a>
</g>
</g>
<!-- Node63 -->
<g id="Node000063" class="node">
<title>Node63</title>
<g id="a_Node000063"><a xlink:href="ReceiverCode_2src_2main_8cpp.html#a6d87eba17154f7f4f2f3802ef8ee261f" target="_top" xlink:title=" ">
<polygon fill="white" stroke="#666666" points="877,-130.25 839.25,-130.25 839.25,-111 877,-111 877,-130.25"/>
<text text-anchor="middle" x="858.12" y="-116.75" font-family="Helvetica,sans-Serif" font-size="10.00">Look</text>
</a>
</g>
</g>
<!-- Node70&#45;&gt;Node63 -->
<g id="edge36_Node000070_Node000063" class="edge">
<title>Node70&#45;&gt;Node63</title>
<g id="a_edge36_Node000070_Node000063"><a xlink:title=" ">
<path fill="none" stroke="#63b8ff" d="M736.48,-108.52C767.04,-111.59 803.06,-115.2 827.74,-117.68"/>
<polygon fill="#63b8ff" stroke="#63b8ff" points="827.06,-121.13 837.36,-118.64 827.76,-114.16 827.06,-121.13"/>
</a>
</g>
</g>
<!-- Node64 -->
<g id="Node000064" class="node">
<title>Node64</title>
<g id="a_Node000064"><a xlink:href="ReceiverCode_2src_2main_8cpp.html#aea423a497d09a142f394356bc8438c41" target="_top" xlink:title=" ">
<polygon fill="white" stroke="#666666" points="879.62,-93.25 836.62,-93.25 836.62,-74 879.62,-74 879.62,-93.25"/>
<text text-anchor="middle" x="858.12" y="-79.75" font-family="Helvetica,sans-Serif" font-size="10.00">Look1</text>
</a>
</g>
</g>
<!-- Node70&#45;&gt;Node64 -->
<g id="edge37_Node000070_Node000064" class="edge">
<title>Node70&#45;&gt;Node64</title>
<g id="a_edge37_Node000070_Node000064"><a xlink:title=" ">
<path fill="none" stroke="#63b8ff" d="M736.48,-96.4C765.99,-93.28 800.58,-89.61 825.14,-87.01"/>
<polygon fill="#63b8ff" stroke="#63b8ff" points="825.25,-90.52 834.82,-85.99 824.51,-83.56 825.25,-90.52"/>
</a>
</g>
</g>
<!-- Node75 -->
<g id="Node000075" class="node">
<title>Node75</title>
<g id="a_Node000075"><a xlink:href="BuddyWireless_8h.html#adcf60ad1a186299e73af5fb9c846f259" target="_top" xlink:title=" ">
<polygon fill="white" stroke="#666666" points="1057.25,-449.25 967.75,-449.25 967.75,-430 1057.25,-430 1057.25,-449.25"/>
<text text-anchor="middle" x="1012.5" y="-435.75" font-family="Helvetica,sans-Serif" font-size="10.00">ChangeTXTarget</text>
</a>
</g>
</g>
<!-- Node74&#45;&gt;Node75 -->
<g id="edge39_Node000074_Node000075" class="edge">
<title>Node74&#45;&gt;Node75</title>
<g id="a_edge39_Node000074_Node000075"><a xlink:title=" ">
<path fill="none" stroke="#63b8ff" d="M724.28,-447.51C742.91,-443.94 764.62,-440.38 784.5,-438.62 849.69,-432.87 866.31,-438.21 931.75,-438.62 939.66,-438.67 948,-438.75 956.2,-438.84"/>
<polygon fill="#63b8ff" stroke="#63b8ff" points="956.07,-442.34 966.11,-438.96 956.15,-435.34 956.07,-442.34"/>
</a>
</g>
</g>
<!-- Node76 -->
<g id="Node000076" class="node">
<title>Node76</title>
<g id="a_Node000076"><a xlink:href="BuddyWireless_8h.html#a691770f3ae3f36de88d9eb432b9d2ab4" target="_top" xlink:title=" ">
<polygon fill="#fff0f0" stroke="red" points="926.88,-391.25 789.38,-391.25 789.38,-372 926.88,-372 926.88,-391.25"/>
<text text-anchor="middle" x="858.12" y="-377.75" font-family="Helvetica,sans-Serif" font-size="10.00">DoTheLongerSpecialPacket</text>
</a>
</g>
</g>
<!-- Node74&#45;&gt;Node76 -->
<g id="edge41_Node000074_Node000076" class="edge">
<title>Node74&#45;&gt;Node76</title>
<g id="a_edge41_Node000074_Node000076"><a xlink:title=" ">
<path fill="none" stroke="#63b8ff" d="M696.3,-447.64C717.33,-436.55 752.8,-418.52 784.5,-405.62 793.52,-401.96 803.33,-398.42 812.73,-395.24"/>
<polygon fill="#63b8ff" stroke="#63b8ff" points="813.68,-398.62 822.08,-392.17 811.49,-391.97 813.68,-398.62"/>
</a>
</g>
</g>
<!-- Node81 -->
<g id="Node000081" class="node">
<title>Node81</title>
<g id="a_Node000081"><a xlink:href="BuddyWireless_8h.html#a8003974712e0ce62371a6c6438774197" target="_top" xlink:title=" ">
<polygon fill="#fff0f0" stroke="red" points="927.62,-504.25 788.62,-504.25 788.62,-485 927.62,-485 927.62,-504.25"/>
<text text-anchor="middle" x="858.12" y="-490.75" font-family="Helvetica,sans-Serif" font-size="10.00">DoTheShorterSpecialPacket</text>
</a>
</g>
</g>
<!-- Node74&#45;&gt;Node81 -->
<g id="edge44_Node000074_Node000081" class="edge">
<title>Node74&#45;&gt;Node81</title>
<g id="a_edge44_Node000074_Node000081"><a xlink:title=" ">
<path fill="none" stroke="#63b8ff" d="M726.77,-467.74C748.52,-472.22 774.32,-477.54 797.2,-482.26"/>
<polygon fill="#63b8ff" stroke="#63b8ff" points="796.19,-485.63 806.69,-484.22 797.6,-478.77 796.19,-485.63"/>
</a>
</g>
</g>
<!-- Node75&#45;&gt;Node65 -->
<g id="edge40_Node000075_Node000065" class="edge">
<title>Node75&#45;&gt;Node65</title>
<g id="a_edge40_Node000075_Node000065"><a xlink:title=" ">
<path fill="none" stroke="#63b8ff" d="M1057.54,-448.71C1065.67,-450.39 1074.04,-452.12 1081.79,-453.72"/>
<polygon fill="#63b8ff" stroke="#63b8ff" points="1081,-457.13 1091.5,-455.72 1082.41,-450.27 1081,-457.13"/>
</a>
</g>
</g>
<!-- Node76&#45;&gt;Node65 -->
<g id="edge43_Node000076_Node000065" class="edge">
<title>Node76&#45;&gt;Node65</title>
<g id="a_edge43_Node000076_Node000065"><a xlink:title=" ">
<path fill="none" stroke="#63b8ff" d="M927.18,-388.05C966.37,-393.44 1015.9,-403.19 1057.25,-420.62 1070.88,-426.37 1084.58,-435.62 1095.24,-443.78"/>
<polygon fill="#63b8ff" stroke="#63b8ff" points="1092.9,-446.39 1102.9,-449.89 1097.27,-440.91 1092.9,-446.39"/>
</a>
</g>
</g>
<!-- Node76&#45;&gt;Node75 -->
<g id="edge42_Node000076_Node000075" class="edge">
<title>Node76&#45;&gt;Node75</title>
<g id="a_edge42_Node000076_Node000075"><a xlink:title=" ">
<path fill="none" stroke="#63b8ff" d="M891.5,-391.68C904.14,-395.78 918.71,-400.7 931.75,-405.62 947.46,-411.56 964.62,-418.78 978.99,-425.03"/>
<polygon fill="#63b8ff" stroke="#63b8ff" points="977.41,-428.16 987.97,-428.98 980.23,-421.76 977.41,-428.16"/>
</a>
</g>
</g>
<!-- Node81&#45;&gt;Node65 -->
<g id="edge46_Node000081_Node000065" class="edge">
<title>Node81&#45;&gt;Node65</title>
<g id="a_edge46_Node000081_Node000065"><a xlink:title=" ">
<path fill="none" stroke="#63b8ff" d="M928.1,-485.47C977.81,-478.87 1042.73,-470.25 1081.58,-465.09"/>
<polygon fill="#63b8ff" stroke="#63b8ff" points="1082.04,-468.56 1091.49,-463.78 1081.12,-461.63 1082.04,-468.56"/>
</a>
</g>
</g>
<!-- Node81&#45;&gt;Node75 -->
<g id="edge45_Node000081_Node000075" class="edge">
<title>Node81&#45;&gt;Node75</title>
<g id="a_edge45_Node000081_Node000075"><a xlink:title=" ">
<path fill="none" stroke="#63b8ff" d="M905.62,-484.51C914.39,-482.21 923.42,-479.56 931.75,-476.62 949.01,-470.55 967.6,-462.04 982.48,-454.72"/>
<polygon fill="#63b8ff" stroke="#63b8ff" points="983.87,-457.94 991.24,-450.33 980.73,-451.69 983.87,-457.94"/>
</a>
</g>
</g>
<!-- Node83&#45;&gt;Node68 -->
<g id="edge54_Node000083_Node000068" class="edge">
<title>Node83&#45;&gt;Node68</title>
<g id="a_edge54_Node000083_Node000068"><a xlink:title=" ">
<path fill="none" stroke="#63b8ff" d="M686.15,-297.46C703.61,-317.67 745.42,-364.97 784.5,-400.62 800.43,-415.16 819.67,-430.16 834.35,-441.12"/>
<polygon fill="#63b8ff" stroke="#63b8ff" points="831.91,-443.67 842.03,-446.8 836.07,-438.04 831.91,-443.67"/>
</a>
</g>
</g>
<!-- Node83&#45;&gt;Node65 -->
<g id="edge53_Node000083_Node000065" class="edge">
<title>Node83&#45;&gt;Node65</title>
<g id="a_edge53_Node000083_Node000065"><a xlink:title=" ">
<path fill="none" stroke="#63b8ff" d="M704.74,-297.73C726.19,-305.58 757.05,-316.46 784.5,-324.62 904.25,-360.23 951.03,-326.85 1057.25,-392.62 1076.76,-404.71 1093.08,-425.52 1103.39,-440.95"/>
<polygon fill="#63b8ff" stroke="#63b8ff" points="1100.4,-442.76 1108.72,-449.31 1106.3,-439 1100.4,-442.76"/>
</a>
</g>
</g>
<!-- Node84 -->
<g id="Node000084" class="node">
<title>Node84</title>
<g id="a_Node000084"><a xlink:href="transceiver_8h.html#a953f1d5046e183549ed95b08f6d675e3" target="_top" xlink:title=" ">
<polygon fill="#fff0f0" stroke="red" points="906.62,-241.25 809.62,-241.25 809.62,-222 906.62,-222 906.62,-241.25"/>
<text text-anchor="middle" x="858.12" y="-227.75" font-family="Helvetica,sans-Serif" font-size="10.00">CheckGapsLength</text>
</a>
</g>
</g>
<!-- Node83&#45;&gt;Node84 -->
<g id="edge49_Node000083_Node000084" class="edge">
<title>Node83&#45;&gt;Node84</title>
<g id="a_edge49_Node000083_Node000084"><a xlink:title=" ">
<path fill="none" stroke="#63b8ff" d="M703.83,-277.52C725.3,-269.41 756.62,-258.02 784.5,-249.62 790.33,-247.87 796.46,-246.15 802.59,-244.52"/>
<polygon fill="#63b8ff" stroke="#63b8ff" points="803.27,-247.96 812.07,-242.06 801.51,-241.18 803.27,-247.96"/>
</a>
</g>
</g>
<!-- Node86 -->
<g id="Node000086" class="node">
<title>Node86</title>
<g id="a_Node000086"><a xlink:href="TransmitterCode_2src_2main_8cpp.html#a62e53eb9359c32b666e3386d62c57037" target="_top" xlink:title=" ">
<polygon fill="#fff0f0" stroke="red" points="893.88,-204.25 822.38,-204.25 822.38,-185 893.88,-185 893.88,-204.25"/>
<text text-anchor="middle" x="858.12" y="-190.75" font-family="Helvetica,sans-Serif" font-size="10.00">GreenLedOn</text>
</a>
</g>
</g>
<!-- Node83&#45;&gt;Node86 -->
<g id="edge50_Node000083_Node000086" class="edge">
<title>Node83&#45;&gt;Node86</title>
<g id="a_edge50_Node000083_Node000086"><a xlink:title=" ">
<path fill="none" stroke="#63b8ff" d="M689.03,-277.53C707.6,-261.43 746.37,-230.01 784.5,-212.62 792.73,-208.87 801.85,-205.83 810.77,-203.39"/>
<polygon fill="#63b8ff" stroke="#63b8ff" points="811.57,-206.8 820.42,-200.98 809.87,-200.01 811.57,-206.8"/>
</a>
</g>
</g>
<!-- Node106 -->
<g id="Node000106" class="node">
<title>Node106</title>
<g id="a_Node000106"><a xlink:href="transceiver_8h.html#a694f4f5a0147f4dc29b0bc1a8951547d" target="_top" xlink:title=" ">
<polygon fill="#fff0f0" stroke="red" points="904.75,-167.25 811.5,-167.25 811.5,-148 904.75,-148 904.75,-167.25"/>
<text text-anchor="middle" x="858.12" y="-153.75" font-family="Helvetica,sans-Serif" font-size="10.00">ParseAckPayload</text>
</a>
</g>
</g>
<!-- Node83&#45;&gt;Node106 -->
<g id="edge51_Node000083_Node000106" class="edge">
<title>Node83&#45;&gt;Node106</title>
<g id="a_edge51_Node000083_Node000106"><a xlink:title=" ">
<path fill="none" stroke="#63b8ff" d="M684.17,-277.76C699.02,-255.79 738.04,-202.61 784.5,-175.62 789.43,-172.76 794.8,-170.35 800.32,-168.32"/>
<polygon fill="#63b8ff" stroke="#63b8ff" points="801.15,-171.73 809.6,-165.34 799,-165.07 801.15,-171.73"/>
</a>
</g>
</g>
<!-- Node264 -->
<g id="Node000264" class="node">
<title>Node264</title>
<g id="a_Node000264"><a xlink:href="transceiver_8h.html#a04937e814dba3f5e07cb34bb13130ff3" target="_top" xlink:title=" ">
<polygon fill="#fff0f0" stroke="red" points="916.38,-315.25 799.88,-315.25 799.88,-296 916.38,-296 916.38,-315.25"/>
<text text-anchor="middle" x="858.12" y="-301.75" font-family="Helvetica,sans-Serif" font-size="10.00">ParseShortAckPayload</text>
</a>
</g>
</g>
<!-- Node83&#45;&gt;Node264 -->
<g id="edge52_Node000083_Node000264" class="edge">
<title>Node83&#45;&gt;Node264</title>
<g id="a_edge52_Node000083_Node000264"><a xlink:title=" ">
<path fill="none" stroke="#63b8ff" d="M724.88,-292.35C744.24,-294.3 767.04,-296.58 788.2,-298.71"/>
<polygon fill="#63b8ff" stroke="#63b8ff" points="787.62,-302.17 797.92,-299.68 788.32,-295.2 787.62,-302.17"/>
</a>
</g>
</g>
<!-- Node103 -->
<g id="Node000103" class="node">
<title>Node103</title>
<g id="a_Node000103"><a xlink:href="Utilities_8h.html#a793b7bcd77531c95fe72ed4356d421c8" target="_top" xlink:title=" ">
<polygon fill="white" stroke="#666666" points="912.62,-278.25 803.62,-278.25 803.62,-259 912.62,-259 912.62,-278.25"/>
<text text-anchor="middle" x="858.12" y="-264.75" font-family="Helvetica,sans-Serif" font-size="10.00">StartInactvityTimeout</text>
</a>
</g>
</g>
<!-- Node83&#45;&gt;Node103 -->
<g id="edge55_Node000083_Node000103" class="edge">
<title>Node83&#45;&gt;Node103</title>
<g id="a_edge55_Node000083_Node000103"><a xlink:title=" ">
<path fill="none" stroke="#63b8ff" d="M724.88,-282.63C745.39,-280.46 769.76,-277.88 791.96,-275.53"/>
<polygon fill="#63b8ff" stroke="#63b8ff" points="792.26,-279.02 801.83,-274.48 791.52,-272.05 792.26,-279.02"/>
</a>
</g>
</g>
<!-- Node57&#45;&gt;Node2 -->
<g id="edge60_Node000057_Node000002" class="edge">
<title>Node57&#45;&gt;Node2</title>
<g id="a_edge60_Node000057_Node000002"><a xlink:title=" ">
<path fill="none" stroke="#63b8ff" d="M178.22,-839.71C189.95,-843.99 203.82,-849.06 216.5,-853.7"/>
<polygon fill="#63b8ff" stroke="#63b8ff" points="215.24,-856.96 225.84,-857.11 217.65,-850.39 215.24,-856.96"/>
</a>
</g>
</g>
<!-- Node57&#45;&gt;Node58 -->
<g id="edge59_Node000057_Node000058" class="edge">
<title>Node57&#45;&gt;Node58</title>
<g id="a_edge59_Node000057_Node000058"><a xlink:title=" ">
<path fill="none" stroke="#63b8ff" d="M178.39,-829.62C214.04,-829.62 276.62,-829.62 321.27,-829.62"/>
<polygon fill="#63b8ff" stroke="#63b8ff" points="321.27,-833.13 331.27,-829.63 321.27,-826.13 321.27,-833.13"/>
</a>
</g>
</g>
</g>
</svg>
