<?xml version="1.0" encoding="UTF-8" standalone="no"?>
<!DOCTYPE svg PUBLIC "-//W3C//DTD SVG 1.1//EN"
 "http://www.w3.org/Graphics/SVG/1.1/DTD/svg11.dtd">
<!-- Generated by graphviz version 9.0.0 (20230911.1827)
 -->
<!-- Title: PupilDetected Pages: 1 -->
<svg width="1149pt" height="1091pt"
 viewBox="0.00 0.00 1148.75 1091.00" xmlns="http://www.w3.org/2000/svg" xmlns:xlink="http://www.w3.org/1999/xlink">
<g id="graph0" class="graph" transform="scale(1 1) rotate(0) translate(4 1087)">
<title>PupilDetected</title>
<!-- Node1 -->
<g id="Node000001" class="node">
<title>Node1</title>
<g id="a_Node000001"><a xlink:title=" ">
<polygon fill="#999999" stroke="#666666" points="76.75,-104.62 0,-104.62 0,-85.38 76.75,-85.38 76.75,-104.62"/>
<text text-anchor="middle" x="38.38" y="-91.12" font-family="Helvetica,sans-Serif" font-size="10.00">PupilDetected</text>
</a>
</g>
</g>
<!-- Node2 -->
<g id="Node000002" class="node">
<title>Node2</title>
<g id="a_Node000002"><a xlink:href="Nextion_8h.html#aecac2f0c289f02ef3c92b85be82eacac" target="_top" xlink:title=" ">
<polygon fill="white" stroke="#666666" points="195.5,-997.62 112.75,-997.62 112.75,-978.38 195.5,-978.38 195.5,-997.62"/>
<text text-anchor="middle" x="154.12" y="-984.12" font-family="Helvetica,sans-Serif" font-size="10.00">SendCommand</text>
</a>
</g>
</g>
<!-- Node1&#45;&gt;Node2 -->
<g id="edge1_Node000001_Node000002" class="edge">
<title>Node1&#45;&gt;Node2</title>
<g id="a_edge1_Node000001_Node000002"><a xlink:title=" ">
<path fill="none" stroke="#63b8ff" d="M40.65,-105.03C51.92,-193.49 134.31,-840.31 150.4,-966.64"/>
<polygon fill="#63b8ff" stroke="#63b8ff" points="146.93,-967.07 151.67,-976.55 153.87,-966.18 146.93,-967.07"/>
</a>
</g>
</g>
<!-- Node57 -->
<g id="Node000057" class="node">
<title>Node57</title>
<g id="a_Node000057"><a xlink:href="Nextion_8h.html#afe513398f72d5e48f691830a1ef6eb42" target="_top" xlink:title=" ">
<polygon fill="white" stroke="#666666" points="1022,-998.62 964.75,-998.62 964.75,-979.38 1022,-979.38 1022,-998.62"/>
<text text-anchor="middle" x="993.38" y="-985.12" font-family="Helvetica,sans-Serif" font-size="10.00">SendText</text>
</a>
</g>
</g>
<!-- Node1&#45;&gt;Node57 -->
<g id="edge61_Node000001_Node000057" class="edge">
<title>Node1&#45;&gt;Node57</title>
<g id="a_edge61_Node000001_Node000057"><a xlink:title=" ">
<path fill="none" stroke="#63b8ff" d="M52.55,-85.19C86.49,-60.92 180.47,0 268.88,0 268.88,0 268.88,0 742.25,0 865.75,0 888.51,-89.24 928.75,-206 979.3,-352.67 990.25,-857.03 992.06,-967.5"/>
<polygon fill="#63b8ff" stroke="#63b8ff" points="988.56,-967.52 992.22,-977.46 995.56,-967.41 988.56,-967.52"/>
</a>
</g>
</g>
<!-- Node3 -->
<g id="Node000003" class="node">
<title>Node3</title>
<g id="a_Node000003"><a xlink:href="Utilities_8h.html#a3b1d8aa403e2724e55c71da3d9d13e7e" target="_top" xlink:title=" ">
<polygon fill="white" stroke="#666666" points="308.25,-756.62 231.5,-756.62 231.5,-737.38 308.25,-737.38 308.25,-756.62"/>
<text text-anchor="middle" x="269.88" y="-743.12" font-family="Helvetica,sans-Serif" font-size="10.00">DelayWithDog</text>
</a>
</g>
</g>
<!-- Node2&#45;&gt;Node3 -->
<g id="edge2_Node000002_Node000003" class="edge">
<title>Node2&#45;&gt;Node3</title>
<g id="a_edge2_Node000002_Node000003"><a xlink:title=" ">
<path fill="none" stroke="#63b8ff" d="M159.87,-977.95C177,-941.66 235.87,-816.93 259.22,-767.46"/>
<polygon fill="#63b8ff" stroke="#63b8ff" points="262.36,-769 263.47,-758.46 256.03,-766.01 262.36,-769"/>
</a>
</g>
</g>
<!-- Node58 -->
<g id="Node000058" class="node">
<title>Node58</title>
<g id="a_Node000058"><a xlink:href="Nextion_8h.html#a43937dd3d9c795271fd9c3eb3c6b6410" target="_top" xlink:title=" ">
<polygon fill="white" stroke="#666666" points="1140.75,-1045.62 1058,-1045.62 1058,-1026.38 1140.75,-1026.38 1140.75,-1045.62"/>
<text text-anchor="middle" x="1099.38" y="-1032.12" font-family="Helvetica,sans-Serif" font-size="10.00">GetReturnCode</text>
</a>
</g>
</g>
<!-- Node2&#45;&gt;Node58 -->
<g id="edge59_Node000002_Node000058" class="edge">
<title>Node2&#45;&gt;Node58</title>
<g id="a_edge59_Node000002_Node000058"><a xlink:title=" ">
<path fill="none" stroke="#63b8ff" d="M167.33,-998.06C181.8,-1009.51 207.05,-1028.06 231.5,-1039 302.89,-1070.94 323.67,-1083 401.88,-1083 401.88,-1083 401.88,-1083 886.12,-1083 948.18,-1083 1018.08,-1063.61 1060.15,-1049.74"/>
<polygon fill="#63b8ff" stroke="#63b8ff" points="1061.2,-1053.08 1069.56,-1046.57 1058.96,-1046.45 1061.2,-1053.08"/>
</a>
</g>
</g>
<!-- Node140 -->
<g id="Node000140" class="node">
<title>Node140</title>
<g id="a_Node000140"><a xlink:href="TransmitterCode_2src_2main_8cpp.html#a5f109790a6fe0b972a502f3cac4ed1e7" target="_top" xlink:title=" ">
<polygon fill="white" stroke="#666666" points="293.62,-978.62 246.12,-978.62 246.12,-959.38 293.62,-959.38 293.62,-978.62"/>
<text text-anchor="middle" x="269.88" y="-965.12" font-family="Helvetica,sans-Serif" font-size="10.00">InStrng</text>
</a>
</g>
</g>
<!-- Node2&#45;&gt;Node140 -->
<g id="edge60_Node000002_Node000140" class="edge">
<title>Node2&#45;&gt;Node140</title>
<g id="a_edge60_Node000002_Node000140"><a xlink:title=" ">
<path fill="none" stroke="#63b8ff" d="M195.87,-981.19C208.62,-979.06 222.56,-976.74 234.8,-974.69"/>
<polygon fill="#63b8ff" stroke="#63b8ff" points="235.15,-978.18 244.44,-973.08 234,-971.28 235.15,-978.18"/>
</a>
</g>
</g>
<!-- Node4 -->
<g id="Node000004" class="node">
<title>Node4</title>
<g id="a_Node000004"><a xlink:href="TransmitterCode_2src_2main_8cpp.html#ab584ae7dbc9b1af37538f91b00b8927f" target="_top" xlink:title=" ">
<polygon fill="white" stroke="#666666" points="447.25,-756.62 358.5,-756.62 358.5,-737.38 447.25,-737.38 447.25,-756.62"/>
<text text-anchor="middle" x="402.88" y="-743.12" font-family="Helvetica,sans-Serif" font-size="10.00">FixMotorChannel</text>
</a>
</g>
</g>
<!-- Node3&#45;&gt;Node4 -->
<g id="edge3_Node000003_Node000004" class="edge">
<title>Node3&#45;&gt;Node4</title>
<g id="a_edge3_Node000003_Node000004"><a xlink:title=" ">
<path fill="none" stroke="#63b8ff" d="M308.41,-747C320.46,-747 334.06,-747 347.08,-747"/>
<polygon fill="#63b8ff" stroke="#63b8ff" points="346.8,-750.5 356.8,-747 346.8,-743.5 346.8,-750.5"/>
</a>
</g>
</g>
<!-- Node6 -->
<g id="Node000006" class="node">
<title>Node6</title>
<g id="a_Node000006"><a xlink:href="TransmitterCode_2src_2main_8cpp.html#a26ae4f6ca14f760bd5eb6e7588fe7c81" target="_top" xlink:title="GET NEW SERVO POSITIONS.">
<polygon fill="white" stroke="#666666" points="461.5,-830.62 344.25,-830.62 344.25,-811.38 461.5,-811.38 461.5,-830.62"/>
<text text-anchor="middle" x="402.88" y="-817.12" font-family="Helvetica,sans-Serif" font-size="10.00">GetNewChannelValues</text>
</a>
</g>
</g>
<!-- Node3&#45;&gt;Node6 -->
<g id="edge5_Node000003_Node000006" class="edge">
<title>Node3&#45;&gt;Node6</title>
<g id="a_edge5_Node000003_Node000006"><a xlink:title=" ">
<path fill="none" stroke="#63b8ff" d="M288.54,-756.98C310.52,-769.39 348.28,-790.73 374.14,-805.33"/>
<polygon fill="#63b8ff" stroke="#63b8ff" points="372.32,-808.33 382.75,-810.2 375.77,-802.23 372.32,-808.33"/>
</a>
</g>
</g>
<!-- Node21 -->
<g id="Node000021" class="node">
<title>Node21</title>
<g id="a_Node000021"><a xlink:href="Utilities_8h.html#ada95a00a341e4a80176eda743a94ab2e" target="_top" xlink:title=" ">
<polygon fill="white" stroke="#666666" points="437.5,-719.62 368.25,-719.62 368.25,-700.38 437.5,-700.38 437.5,-719.62"/>
<text text-anchor="middle" x="402.88" y="-706.12" font-family="Helvetica,sans-Serif" font-size="10.00">KickTheDog</text>
</a>
</g>
</g>
<!-- Node3&#45;&gt;Node21 -->
<g id="edge21_Node000003_Node000021" class="edge">
<title>Node3&#45;&gt;Node21</title>
<g id="a_edge21_Node000003_Node000021"><a xlink:title=" ">
<path fill="none" stroke="#63b8ff" d="M306.67,-736.89C322.18,-732.51 340.51,-727.33 356.93,-722.7"/>
<polygon fill="#63b8ff" stroke="#63b8ff" points="357.8,-726.09 366.47,-720 355.89,-719.35 357.8,-726.09"/>
</a>
</g>
</g>
<!-- Node22 -->
<g id="Node000022" class="node">
<title>Node22</title>
<g id="a_Node000022"><a xlink:href="transceiver_8h.html#a049bfb836e7aa4a3a48a1a4bd225fafc" target="_top" xlink:title=" ">
<polygon fill="white" stroke="#666666" points="432.25,-403.62 373.5,-403.62 373.5,-384.38 432.25,-384.38 432.25,-403.62"/>
<text text-anchor="middle" x="402.88" y="-390.12" font-family="Helvetica,sans-Serif" font-size="10.00">SendData</text>
</a>
</g>
</g>
<!-- Node3&#45;&gt;Node22 -->
<g id="edge22_Node000003_Node000022" class="edge">
<title>Node3&#45;&gt;Node22</title>
<g id="a_edge22_Node000003_Node000022"><a xlink:title=" ">
<path fill="none" stroke="#63b8ff" d="M274.52,-737.19C292.22,-689.49 369.44,-481.4 394.2,-414.67"/>
<polygon fill="#63b8ff" stroke="#63b8ff" points="397.47,-415.94 397.66,-405.35 390.9,-413.51 397.47,-415.94"/>
</a>
</g>
</g>
<!-- Node5 -->
<g id="Node000005" class="node">
<title>Node5</title>
<g id="a_Node000005"><a xlink:href="Utilities_8h.html#a0d8d8a0d67cb9b04481f1692abe75368" target="_top" xlink:title=" ">
<polygon fill="white" stroke="#666666" points="780.38,-756.62 702.12,-756.62 702.12,-737.38 780.38,-737.38 780.38,-756.62"/>
<text text-anchor="middle" x="741.25" y="-743.12" font-family="Helvetica,sans-Serif" font-size="10.00">IntoHigherRes</text>
</a>
</g>
</g>
<!-- Node4&#45;&gt;Node5 -->
<g id="edge4_Node000004_Node000005" class="edge">
<title>Node4&#45;&gt;Node5</title>
<g id="a_edge4_Node000004_Node000005"><a xlink:title=" ">
<path fill="none" stroke="#63b8ff" d="M444.62,-736.88C460.95,-733.32 480.01,-729.76 497.5,-728 560.96,-721.63 577.51,-721.98 641,-728 657.3,-729.55 674.91,-732.49 690.71,-735.61"/>
<polygon fill="#63b8ff" stroke="#63b8ff" points="689.86,-739.01 700.36,-737.59 691.27,-732.15 689.86,-739.01"/>
</a>
</g>
</g>
<!-- Node7 -->
<g id="Node000007" class="node">
<title>Node7</title>
<g id="a_Node000007"><a xlink:href="TransmitterCode_2src_2main_8cpp.html#af518bb2cfb3cfe18d491b2a5d6bf7dcc" target="_top" xlink:title=" ">
<polygon fill="white" stroke="#666666" points="620.38,-978.62 518.12,-978.62 518.12,-959.38 620.38,-959.38 620.38,-978.62"/>
<text text-anchor="middle" x="569.25" y="-965.12" font-family="Helvetica,sans-Serif" font-size="10.00">CalculateAllOutputs</text>
</a>
</g>
</g>
<!-- Node6&#45;&gt;Node7 -->
<g id="edge6_Node000006_Node000007" class="edge">
<title>Node6&#45;&gt;Node7</title>
<g id="a_edge6_Node000006_Node000007"><a xlink:title=" ">
<path fill="none" stroke="#63b8ff" d="M408.09,-830.96C419,-855.47 450.6,-919.06 497.5,-951 500.54,-953.07 503.8,-954.9 507.18,-956.52"/>
<polygon fill="#63b8ff" stroke="#63b8ff" points="505.67,-959.68 516.25,-960.21 508.31,-953.2 505.67,-959.68"/>
</a>
</g>
</g>
<!-- Node11 -->
<g id="Node000011" class="node">
<title>Node11</title>
<g id="a_Node000011"><a xlink:href="TransmitterCode_2src_2main_8cpp.html#acd70b997cf150e55d943df5d6f1cff51" target="_top" xlink:title=" ">
<polygon fill="white" stroke="#666666" points="623.75,-793.62 514.75,-793.62 514.75,-774.38 623.75,-774.38 623.75,-793.62"/>
<text text-anchor="middle" x="569.25" y="-780.12" font-family="Helvetica,sans-Serif" font-size="10.00">DoTrimsAndSubtrims</text>
</a>
</g>
</g>
<!-- Node6&#45;&gt;Node11 -->
<g id="edge10_Node000006_Node000011" class="edge">
<title>Node6&#45;&gt;Node11</title>
<g id="a_edge10_Node000006_Node000011"><a xlink:title=" ">
<path fill="none" stroke="#63b8ff" d="M448.79,-810.89C468.36,-806.48 491.51,-801.27 512.19,-796.62"/>
<polygon fill="#63b8ff" stroke="#63b8ff" points="512.92,-800.04 521.91,-794.43 511.39,-793.21 512.92,-800.04"/>
</a>
</g>
</g>
<!-- Node13 -->
<g id="Node000013" class="node">
<title>Node13</title>
<g id="a_Node000013"><a xlink:href="TransmitterCode_2src_2main_8cpp.html#a15d8fbd5988e76a16e33e7f620804009" target="_top" xlink:title=" ">
<polygon fill="white" stroke="#666666" points="604.25,-680.62 534.25,-680.62 534.25,-661.38 604.25,-661.38 604.25,-680.62"/>
<text text-anchor="middle" x="569.25" y="-667.12" font-family="Helvetica,sans-Serif" font-size="10.00">GetAllInputs</text>
</a>
</g>
</g>
<!-- Node6&#45;&gt;Node13 -->
<g id="edge12_Node000006_Node000013" class="edge">
<title>Node6&#45;&gt;Node13</title>
<g id="a_edge12_Node000006_Node000013"><a xlink:title=" ">
<path fill="none" stroke="#63b8ff" d="M414.65,-811.02C426.34,-800.12 445.49,-782.07 461.5,-766 477.92,-749.52 480.4,-743.78 497.5,-728 512.95,-713.75 531.48,-698.89 545.7,-687.92"/>
<polygon fill="#63b8ff" stroke="#63b8ff" points="547.74,-690.76 553.57,-681.91 543.49,-685.2 547.74,-690.76"/>
</a>
</g>
</g>
<!-- Node16 -->
<g id="Node000016" class="node">
<title>Node16</title>
<g id="a_Node000016"><a xlink:href="Mixes_8h.html#a5aa9208b1f2a522a0cdb348301fe0593" target="_top" xlink:title=" ">
<polygon fill="white" stroke="#666666" points="598.25,-941.62 540.25,-941.62 540.25,-922.38 598.25,-922.38 598.25,-941.62"/>
<text text-anchor="middle" x="569.25" y="-928.12" font-family="Helvetica,sans-Serif" font-size="10.00">MixInputs</text>
</a>
</g>
</g>
<!-- Node6&#45;&gt;Node16 -->
<g id="edge15_Node000006_Node000016" class="edge">
<title>Node6&#45;&gt;Node16</title>
<g id="a_edge15_Node000006_Node000016"><a xlink:title=" ">
<path fill="none" stroke="#63b8ff" d="M410.89,-830.87C425,-849.98 458.83,-892.09 497.5,-914 507.06,-919.42 518.25,-923.23 528.88,-925.9"/>
<polygon fill="#63b8ff" stroke="#63b8ff" points="528.08,-929.31 538.6,-928.05 529.59,-922.47 528.08,-929.31"/>
</a>
</g>
</g>
<!-- Node17 -->
<g id="Node000017" class="node">
<title>Node17</title>
<g id="a_Node000017"><a xlink:href="Mixes_8h.html#a376c11f3a285138341edc0783f930ff3" target="_top" xlink:title=" ">
<polygon fill="white" stroke="#666666" points="602,-756.62 536.5,-756.62 536.5,-737.38 602,-737.38 602,-756.62"/>
<text text-anchor="middle" x="569.25" y="-743.12" font-family="Helvetica,sans-Serif" font-size="10.00">MixOutputs</text>
</a>
</g>
</g>
<!-- Node6&#45;&gt;Node17 -->
<g id="edge16_Node000006_Node000017" class="edge">
<title>Node6&#45;&gt;Node17</title>
<g id="a_edge16_Node000006_Node000017"><a xlink:title=" ">
<path fill="none" stroke="#63b8ff" d="M417.78,-810.91C435.5,-798.49 467.42,-777.51 497.5,-765 506.24,-761.37 515.89,-758.32 525.19,-755.83"/>
<polygon fill="#63b8ff" stroke="#63b8ff" points="525.95,-759.25 534.8,-753.43 524.25,-752.46 525.95,-759.25"/>
</a>
</g>
</g>
<!-- Node18 -->
<g id="Node000018" class="node">
<title>Node18</title>
<g id="a_Node000018"><a xlink:href="TransmitterCode_2src_2main_8cpp.html#a92bb36e29cd297189daefb3b79deaac3" target="_top" xlink:title=" ">
<polygon fill="white" stroke="#666666" points="611.38,-904.62 527.12,-904.62 527.12,-885.38 611.38,-885.38 611.38,-904.62"/>
<text text-anchor="middle" x="569.25" y="-891.12" font-family="Helvetica,sans-Serif" font-size="10.00">RerouteOutputs</text>
</a>
</g>
</g>
<!-- Node6&#45;&gt;Node18 -->
<g id="edge18_Node000006_Node000018" class="edge">
<title>Node6&#45;&gt;Node18</title>
<g id="a_edge18_Node000006_Node000018"><a xlink:title=" ">
<path fill="none" stroke="#63b8ff" d="M417.78,-831.09C435.5,-843.51 467.42,-864.49 497.5,-877 503.42,-879.46 509.77,-881.66 516.14,-883.59"/>
<polygon fill="#63b8ff" stroke="#63b8ff" points="514.78,-886.84 525.36,-886.19 516.68,-880.1 514.78,-886.84"/>
</a>
</g>
</g>
<!-- Node19 -->
<g id="Node000019" class="node">
<title>Node19</title>
<g id="a_Node000019"><a xlink:href="Utilities_8h.html#a2d10590a11f1790e37c47f70f294f10d" target="_top" xlink:title=" ">
<polygon fill="white" stroke="#666666" points="608,-867.62 530.5,-867.62 530.5,-848.38 608,-848.38 608,-867.62"/>
<text text-anchor="middle" x="569.25" y="-854.12" font-family="Helvetica,sans-Serif" font-size="10.00">ServoReverse</text>
</a>
</g>
</g>
<!-- Node6&#45;&gt;Node19 -->
<g id="edge19_Node000006_Node000019" class="edge">
<title>Node6&#45;&gt;Node19</title>
<g id="a_edge19_Node000006_Node000019"><a xlink:title=" ">
<path fill="none" stroke="#63b8ff" d="M448.79,-831.11C470.58,-836.02 496.81,-841.92 519.13,-846.94"/>
<polygon fill="#63b8ff" stroke="#63b8ff" points="518.07,-850.29 528.6,-849.07 519.61,-843.46 518.07,-850.29"/>
</a>
</g>
</g>
<!-- Node20 -->
<g id="Node000020" class="node">
<title>Node20</title>
<g id="a_Node000020"><a xlink:href="TransmitterCode_2src_2main_8cpp.html#a73d05c890a6a5f7b493e6aefb497d869" target="_top" xlink:title=" ">
<polygon fill="white" stroke="#666666" points="611.75,-830.62 526.75,-830.62 526.75,-811.38 611.75,-811.38 611.75,-830.62"/>
<text text-anchor="middle" x="569.25" y="-817.12" font-family="Helvetica,sans-Serif" font-size="10.00">SlowAnyServos</text>
</a>
</g>
</g>
<!-- Node6&#45;&gt;Node20 -->
<g id="edge20_Node000006_Node000020" class="edge">
<title>Node6&#45;&gt;Node20</title>
<g id="a_edge20_Node000006_Node000020"><a xlink:title=" ">
<path fill="none" stroke="#63b8ff" d="M461.83,-821C479.1,-821 497.94,-821 514.91,-821"/>
<polygon fill="#63b8ff" stroke="#63b8ff" points="514.79,-824.5 524.79,-821 514.79,-817.5 514.79,-824.5"/>
</a>
</g>
</g>
<!-- Node8 -->
<g id="Node000008" class="node">
<title>Node8</title>
<g id="a_Node000008"><a xlink:href="Rates_8h.html#af9c038b48102eca9032f10fefd9d5736" target="_top" xlink:title=" ">
<polygon fill="white" stroke="#666666" points="780,-1016.62 702.5,-1016.62 702.5,-997.38 780,-997.38 780,-1016.62"/>
<text text-anchor="middle" x="741.25" y="-1003.12" font-family="Helvetica,sans-Serif" font-size="10.00">GetCurveDots</text>
</a>
</g>
</g>
<!-- Node7&#45;&gt;Node8 -->
<g id="edge7_Node000007_Node000008" class="edge">
<title>Node7&#45;&gt;Node8</title>
<g id="a_edge7_Node000007_Node000008"><a xlink:title=" ">
<path fill="none" stroke="#63b8ff" d="M615.36,-979.08C638.71,-984.3 667.26,-990.68 691.16,-996.03"/>
<polygon fill="#63b8ff" stroke="#63b8ff" points="690.13,-999.38 700.66,-998.15 691.66,-992.55 690.13,-999.38"/>
</a>
</g>
</g>
<!-- Node9 -->
<g id="Node000009" class="node">
<title>Node9</title>
<g id="a_Node000009"><a xlink:href="Rates_8h.html#afeabb54d48ef7e55693014e057d2943d" target="_top" xlink:title=" ">
<polygon fill="white" stroke="#666666" points="923.5,-1016.62 846.75,-1016.62 846.75,-997.38 923.5,-997.38 923.5,-1016.62"/>
<text text-anchor="middle" x="885.12" y="-1003.12" font-family="Helvetica,sans-Serif" font-size="10.00">CalculateRate</text>
</a>
</g>
</g>
<!-- Node8&#45;&gt;Node9 -->
<g id="edge8_Node000008_Node000009" class="edge">
<title>Node8&#45;&gt;Node9</title>
<g id="a_edge8_Node000008_Node000009"><a xlink:title=" ">
<path fill="none" stroke="#63b8ff" d="M780.27,-1007C797.1,-1007 817.11,-1007 835.05,-1007"/>
<polygon fill="#63b8ff" stroke="#63b8ff" points="834.98,-1010.5 844.98,-1007 834.98,-1003.5 834.98,-1010.5"/>
</a>
</g>
</g>
<!-- Node10 -->
<g id="Node000010" class="node">
<title>Node10</title>
<g id="a_Node000010"><a xlink:href="Rates_8h.html#a8f53f86499d740b350f7b6d791c90497" target="_top" xlink:title=" ">
<polygon fill="white" stroke="#666666" points="920.12,-979.62 850.12,-979.62 850.12,-960.38 920.12,-960.38 920.12,-979.62"/>
<text text-anchor="middle" x="885.12" y="-966.12" font-family="Helvetica,sans-Serif" font-size="10.00">UseFullRate</text>
</a>
</g>
</g>
<!-- Node8&#45;&gt;Node10 -->
<g id="edge9_Node000008_Node000010" class="edge">
<title>Node8&#45;&gt;Node10</title>
<g id="a_edge9_Node000008_Node000010"><a xlink:title=" ">
<path fill="none" stroke="#63b8ff" d="M780.27,-997.08C798.3,-992.38 819.97,-986.73 838.85,-981.81"/>
<polygon fill="#63b8ff" stroke="#63b8ff" points="839.63,-985.22 848.42,-979.31 837.86,-978.45 839.63,-985.22"/>
</a>
</g>
</g>
<!-- Node12 -->
<g id="Node000012" class="node">
<title>Node12</title>
<g id="a_Node000012"><a xlink:href="Trims_8h.html#aacd8b022714bb89847239dd878ad9509" target="_top" xlink:title=" ">
<polygon fill="white" stroke="#666666" points="783.75,-793.62 698.75,-793.62 698.75,-774.38 783.75,-774.38 783.75,-793.62"/>
<text text-anchor="middle" x="741.25" y="-780.12" font-family="Helvetica,sans-Serif" font-size="10.00">GetTrimAmount</text>
</a>
</g>
</g>
<!-- Node11&#45;&gt;Node12 -->
<g id="edge11_Node000011_Node000012" class="edge">
<title>Node11&#45;&gt;Node12</title>
<g id="a_edge11_Node000011_Node000012"><a xlink:title=" ">
<path fill="none" stroke="#63b8ff" d="M624.04,-784C644.12,-784 666.91,-784 686.95,-784"/>
<polygon fill="#63b8ff" stroke="#63b8ff" points="686.88,-787.5 696.88,-784 686.88,-780.5 686.88,-787.5"/>
</a>
</g>
</g>
<!-- Node14 -->
<g id="Node000014" class="node">
<title>Node14</title>
<g id="a_Node000014"><a xlink:href="TransmitterCode_2src_2main_8cpp.html#ac5728db610c441820a6f47295967cbab" target="_top" xlink:title=" ">
<polygon fill="white" stroke="#666666" points="780.75,-682.62 701.75,-682.62 701.75,-663.38 780.75,-663.38 780.75,-682.62"/>
<text text-anchor="middle" x="741.25" y="-669.12" font-family="Helvetica,sans-Serif" font-size="10.00">AnalogueReed</text>
</a>
</g>
</g>
<!-- Node13&#45;&gt;Node14 -->
<g id="edge13_Node000013_Node000014" class="edge">
<title>Node13&#45;&gt;Node14</title>
<g id="a_edge13_Node000013_Node000014"><a xlink:title=" ">
<path fill="none" stroke="#63b8ff" d="M604.65,-671.4C629.19,-671.69 662.56,-672.09 690.06,-672.41"/>
<polygon fill="#63b8ff" stroke="#63b8ff" points="689.89,-675.91 699.93,-672.53 689.97,-668.91 689.89,-675.91"/>
</a>
</g>
</g>
<!-- Node15 -->
<g id="Node000015" class="node">
<title>Node15</title>
<g id="a_Node000015"><a xlink:href="TransmitterCode_2src_2main_8cpp.html#a787973ed0df098048a54e5110896eeb6" target="_top" xlink:title=" ">
<polygon fill="white" stroke="#666666" points="805.5,-719.62 677,-719.62 677,-700.38 805.5,-700.38 805.5,-719.62"/>
<text text-anchor="middle" x="741.25" y="-706.12" font-family="Helvetica,sans-Serif" font-size="10.00">ReadThreePositionSwitch</text>
</a>
</g>
</g>
<!-- Node13&#45;&gt;Node15 -->
<g id="edge14_Node000013_Node000015" class="edge">
<title>Node13&#45;&gt;Node15</title>
<g id="a_edge14_Node000013_Node000015"><a xlink:title=" ">
<path fill="none" stroke="#63b8ff" d="M604.65,-678.89C627.74,-684.19 658.67,-691.28 685.15,-697.36"/>
<polygon fill="#63b8ff" stroke="#63b8ff" points="684.19,-700.73 694.72,-699.55 685.75,-693.91 684.19,-700.73"/>
</a>
</g>
</g>
<!-- Node17&#45;&gt;Node5 -->
<g id="edge17_Node000017_Node000005" class="edge">
<title>Node17&#45;&gt;Node5</title>
<g id="a_edge17_Node000017_Node000005"><a xlink:title=" ">
<path fill="none" stroke="#63b8ff" d="M602.23,-747C627.08,-747 662,-747 690.5,-747"/>
<polygon fill="#63b8ff" stroke="#63b8ff" points="690.36,-750.5 700.36,-747 690.36,-743.5 690.36,-750.5"/>
</a>
</g>
</g>
<!-- Node23 -->
<g id="Node000023" class="node">
<title>Node23</title>
<g id="a_Node000023"><a xlink:href="transceiver_8h.html#a1ddd5e8d5bd649dd98ce3710fbff651b" target="_top" xlink:title=" ">
<polygon fill="white" stroke="#666666" points="599.38,-290.62 539.12,-290.62 539.12,-271.38 599.38,-271.38 599.38,-290.62"/>
<text text-anchor="middle" x="569.25" y="-277.12" font-family="Helvetica,sans-Serif" font-size="10.00">Compress</text>
</a>
</g>
</g>
<!-- Node22&#45;&gt;Node23 -->
<g id="edge23_Node000022_Node000023" class="edge">
<title>Node22&#45;&gt;Node23</title>
<g id="a_edge23_Node000022_Node000023"><a xlink:title=" ">
<path fill="none" stroke="#63b8ff" d="M410.83,-383.92C424.86,-364.39 458.53,-321.36 497.5,-299 506.7,-293.72 517.45,-289.97 527.75,-287.31"/>
<polygon fill="#63b8ff" stroke="#63b8ff" points="528.21,-290.8 537.19,-285.17 526.66,-283.97 528.21,-290.8"/>
</a>
</g>
</g>
<!-- Node24 -->
<g id="Node000024" class="node">
<title>Node24</title>
<g id="a_Node000024"><a xlink:href="transceiver_8h.html#a4144c213e5448a7e02d4172881f08219" target="_top" xlink:title=" ">
<polygon fill="white" stroke="#666666" points="641,-253.62 497.5,-253.62 497.5,-234.38 641,-234.38 641,-253.62"/>
<text text-anchor="middle" x="569.25" y="-240.12" font-family="Helvetica,sans-Serif" font-size="10.00">EncodeTheChangedChannels</text>
</a>
</g>
</g>
<!-- Node22&#45;&gt;Node24 -->
<g id="edge24_Node000022_Node000024" class="edge">
<title>Node22&#45;&gt;Node24</title>
<g id="a_edge24_Node000022_Node000024"><a xlink:title=" ">
<path fill="none" stroke="#63b8ff" d="M408.05,-383.89C418.85,-359 450.24,-294.43 497.5,-262 499.08,-260.92 500.72,-259.9 502.41,-258.94"/>
<polygon fill="#63b8ff" stroke="#63b8ff" points="503.64,-262.23 511.15,-254.75 500.62,-255.92 503.64,-262.23"/>
</a>
</g>
</g>
<!-- Node25 -->
<g id="Node000025" class="node">
<title>Node25</title>
<g id="a_Node000025"><a xlink:href="transceiver_8h.html#a5fbd3c8613a4163425c94965704ce5f8" target="_top" xlink:title=" ">
<polygon fill="white" stroke="#666666" points="605.75,-534.62 532.75,-534.62 532.75,-515.38 605.75,-515.38 605.75,-534.62"/>
<text text-anchor="middle" x="569.25" y="-521.12" font-family="Helvetica,sans-Serif" font-size="10.00">FailedPacket</text>
</a>
</g>
</g>
<!-- Node22&#45;&gt;Node25 -->
<g id="edge25_Node000022_Node000025" class="edge">
<title>Node22&#45;&gt;Node25</title>
<g id="a_edge25_Node000022_Node000025"><a xlink:title=" ">
<path fill="none" stroke="#63b8ff" d="M415.93,-403.92C433.69,-418.51 467.99,-446.56 497.5,-470 513.73,-482.9 532.23,-497.27 546.25,-508.09"/>
<polygon fill="#63b8ff" stroke="#63b8ff" points="543.89,-510.69 553.95,-514.02 548.16,-505.14 543.89,-510.69"/>
</a>
</g>
</g>
<!-- Node69 -->
<g id="Node000069" class="node">
<title>Node69</title>
<g id="a_Node000069"><a xlink:href="transceiver_8h.html#a07c27b4e208198453c70876517926052" target="_top" xlink:title=" ">
<polygon fill="white" stroke="#666666" points="600.12,-422.62 538.38,-422.62 538.38,-403.38 600.12,-403.38 600.12,-422.62"/>
<text text-anchor="middle" x="569.25" y="-409.12" font-family="Helvetica,sans-Serif" font-size="10.00">FlushFifos</text>
</a>
</g>
</g>
<!-- Node22&#45;&gt;Node69 -->
<g id="edge37_Node000022_Node000069" class="edge">
<title>Node22&#45;&gt;Node69</title>
<g id="a_edge37_Node000022_Node000069"><a xlink:title=" ">
<path fill="none" stroke="#63b8ff" d="M432.51,-397.31C458.57,-400.32 497.37,-404.81 526.82,-408.21"/>
<polygon fill="#63b8ff" stroke="#63b8ff" points="526.16,-411.66 536.5,-409.33 526.96,-404.7 526.16,-411.66"/>
</a>
</g>
</g>
<!-- Node65 -->
<g id="Node000065" class="node">
<title>Node65</title>
<g id="a_Node000065"><a xlink:href="common_8h.html#a6e2d4126d864c50e7c23c988c2bfdd1a" target="_top" xlink:title=" ">
<polygon fill="white" stroke="#666666" points="908.12,-234.62 862.12,-234.62 862.12,-215.38 908.12,-215.38 908.12,-234.62"/>
<text text-anchor="middle" x="885.12" y="-221.12" font-family="Helvetica,sans-Serif" font-size="10.00">Radio1</text>
</a>
</g>
</g>
<!-- Node22&#45;&gt;Node65 -->
<g id="edge39_Node000022_Node000065" class="edge">
<title>Node22&#45;&gt;Node65</title>
<g id="a_edge39_Node000022_Node000065"><a xlink:title=" ">
<path fill="none" stroke="#63b8ff" d="M432.61,-393.31C513.77,-390.9 742.86,-380.74 805.5,-342 842.12,-319.35 865.55,-272.56 876.61,-245.52"/>
<polygon fill="#63b8ff" stroke="#63b8ff" points="879.81,-246.95 880.17,-236.36 873.29,-244.42 879.81,-246.95"/>
</a>
</g>
</g>
<!-- Node70 -->
<g id="Node000070" class="node">
<title>Node70</title>
<g id="a_Node000070"><a xlink:href="transceiver_8h.html#a5a043d48a3d1761777eb9e7c3faa8753" target="_top" xlink:title=" ">
<polygon fill="white" stroke="#666666" points="628.62,-460.62 509.88,-460.62 509.88,-441.38 628.62,-441.38 628.62,-460.62"/>
<text text-anchor="middle" x="569.25" y="-447.12" font-family="Helvetica,sans-Serif" font-size="10.00">SendExtraParamemters</text>
</a>
</g>
</g>
<!-- Node22&#45;&gt;Node70 -->
<g id="edge40_Node000022_Node000070" class="edge">
<title>Node22&#45;&gt;Node70</title>
<g id="a_edge40_Node000022_Node000070"><a xlink:title=" ">
<path fill="none" stroke="#63b8ff" d="M426.28,-404.01C445.07,-412.17 472.72,-423.68 497.5,-432 503.6,-434.05 510.06,-436.03 516.49,-437.89"/>
<polygon fill="#63b8ff" stroke="#63b8ff" points="515.18,-441.16 525.76,-440.49 517.07,-434.42 515.18,-441.16"/>
</a>
</g>
</g>
<!-- Node73 -->
<g id="Node000073" class="node">
<title>Node73</title>
<g id="a_Node000073"><a xlink:href="BuddyWireless_8h.html#a41c327908c92572d0d3eebbb19160d86" target="_top" xlink:title=" ">
<polygon fill="white" stroke="#666666" points="620,-104.62 518.5,-104.62 518.5,-85.38 620,-85.38 620,-104.62"/>
<text text-anchor="middle" x="569.25" y="-91.12" font-family="Helvetica,sans-Serif" font-size="10.00">SendSpecialPacket</text>
</a>
</g>
</g>
<!-- Node22&#45;&gt;Node73 -->
<g id="edge43_Node000022_Node000073" class="edge">
<title>Node22&#45;&gt;Node73</title>
<g id="a_edge43_Node000022_Node000073"><a xlink:title=" ">
<path fill="none" stroke="#63b8ff" d="M409.34,-384.05C432.84,-341.31 525.48,-172.8 557.38,-114.77"/>
<polygon fill="#63b8ff" stroke="#63b8ff" points="560.28,-116.76 562.03,-106.31 554.15,-113.39 560.28,-116.76"/>
</a>
</g>
</g>
<!-- Node77 -->
<g id="Node000077" class="node">
<title>Node77</title>
<g id="a_Node000077"><a xlink:href="BuddyPPM_8h.html#a784a1eca0361b3991bca899167cc1cdb" target="_top" xlink:title=" ">
<polygon fill="white" stroke="#666666" points="606.5,-571.62 532,-571.62 532,-552.38 606.5,-552.38 606.5,-571.62"/>
<text text-anchor="middle" x="569.25" y="-558.12" font-family="Helvetica,sans-Serif" font-size="10.00">SendViaPPM</text>
</a>
</g>
</g>
<!-- Node22&#45;&gt;Node77 -->
<g id="edge50_Node000022_Node000077" class="edge">
<title>Node22&#45;&gt;Node77</title>
<g id="a_edge50_Node000022_Node000077"><a xlink:title=" ">
<path fill="none" stroke="#63b8ff" d="M407.08,-403.87C416.36,-430.85 445.94,-506.33 497.5,-544 504.4,-549.04 512.58,-552.68 520.88,-555.3"/>
<polygon fill="#63b8ff" stroke="#63b8ff" points="519.74,-558.62 530.3,-557.8 521.53,-551.85 519.74,-558.62"/>
</a>
</g>
</g>
<!-- Node78 -->
<g id="Node000078" class="node">
<title>Node78</title>
<g id="a_Node000078"><a xlink:href="transceiver_8h.html#a1c11bb6771548de7d96723045b922620" target="_top" xlink:title=" ">
<polygon fill="white" stroke="#666666" points="617,-327.62 521.5,-327.62 521.5,-308.38 617,-308.38 617,-327.62"/>
<text text-anchor="middle" x="569.25" y="-314.12" font-family="Helvetica,sans-Serif" font-size="10.00">SuccessfulPacket</text>
</a>
</g>
</g>
<!-- Node22&#45;&gt;Node78 -->
<g id="edge51_Node000022_Node000078" class="edge">
<title>Node22&#45;&gt;Node78</title>
<g id="a_edge51_Node000022_Node000078"><a xlink:title=" ">
<path fill="none" stroke="#63b8ff" d="M425.7,-383.91C454.03,-370.81 503.67,-347.86 536.25,-332.79"/>
<polygon fill="#63b8ff" stroke="#63b8ff" points="537.61,-336.02 545.22,-328.65 534.67,-329.67 537.61,-336.02"/>
</a>
</g>
</g>
<!-- Node26 -->
<g id="Node000026" class="node">
<title>Node26</title>
<g id="a_Node000026"><a xlink:href="transceiver_8h.html#afcf53d02052a623856b352f27547194c" target="_top" xlink:title=" ">
<polygon fill="white" stroke="#666666" points="788.62,-571.62 693.88,-571.62 693.88,-552.38 788.62,-552.38 788.62,-571.62"/>
<text text-anchor="middle" x="741.25" y="-558.12" font-family="Helvetica,sans-Serif" font-size="10.00">CheckDataRepeat</text>
</a>
</g>
</g>
<!-- Node25&#45;&gt;Node26 -->
<g id="edge26_Node000025_Node000026" class="edge">
<title>Node25&#45;&gt;Node26</title>
<g id="a_edge26_Node000025_Node000026"><a xlink:title=" ">
<path fill="none" stroke="#63b8ff" d="M605.89,-532.76C628.19,-537.61 657.44,-543.98 682.95,-549.53"/>
<polygon fill="#63b8ff" stroke="#63b8ff" points="682,-552.9 692.51,-551.61 683.49,-546.06 682,-552.9"/>
</a>
</g>
</g>
<!-- Node27 -->
<g id="Node000027" class="node">
<title>Node27</title>
<g id="a_Node000027"><a xlink:href="transceiver_8h.html#a7154e4db2ead530e9d7c8061d09d37cb" target="_top" xlink:title=" ">
<polygon fill="white" stroke="#666666" points="772.12,-645.62 710.38,-645.62 710.38,-626.38 772.12,-626.38 772.12,-645.62"/>
<text text-anchor="middle" x="741.25" y="-632.12" font-family="Helvetica,sans-Serif" font-size="10.00">CheckGap</text>
</a>
</g>
</g>
<!-- Node25&#45;&gt;Node27 -->
<g id="edge27_Node000025_Node000027" class="edge">
<title>Node25&#45;&gt;Node27</title>
<g id="a_edge27_Node000025_Node000027"><a xlink:title=" ">
<path fill="none" stroke="#63b8ff" d="M606.12,-527.96C618.25,-530.47 631.19,-534.97 641,-543 669.61,-566.43 648.73,-594.17 677,-618 683.36,-623.36 691.23,-627.13 699.22,-629.78"/>
<polygon fill="#63b8ff" stroke="#63b8ff" points="698.05,-633.08 708.62,-632.34 699.89,-626.33 698.05,-633.08"/>
</a>
</g>
</g>
<!-- Node59 -->
<g id="Node000059" class="node">
<title>Node59</title>
<g id="a_Node000059"><a xlink:href="transceiver_8h.html#abf955fe3fa8f544096735e18385cd90d" target="_top" xlink:title=" ">
<polygon fill="white" stroke="#666666" points="800.25,-608.62 682.25,-608.62 682.25,-589.38 800.25,-589.38 800.25,-608.62"/>
<text text-anchor="middle" x="741.25" y="-595.12" font-family="Helvetica,sans-Serif" font-size="10.00">CheckInactivityTimeout</text>
</a>
</g>
</g>
<!-- Node25&#45;&gt;Node59 -->
<g id="edge33_Node000025_Node000059" class="edge">
<title>Node25&#45;&gt;Node59</title>
<g id="a_edge33_Node000025_Node000059"><a xlink:title=" ">
<path fill="none" stroke="#63b8ff" d="M605.95,-530C617.67,-532.69 630.4,-536.78 641,-543 661.06,-554.78 657.1,-568.94 677,-581 679.02,-582.23 681.13,-583.37 683.3,-584.44"/>
<polygon fill="#63b8ff" stroke="#63b8ff" points="681.81,-587.61 692.38,-588.32 684.56,-581.17 681.81,-587.61"/>
</a>
</g>
</g>
<!-- Node60 -->
<g id="Node000060" class="node">
<title>Node60</title>
<g id="a_Node000060"><a xlink:href="transceiver_8h.html#a18d9866d5425cd145044b1fddbfc00a0" target="_top" xlink:title=" ">
<polygon fill="white" stroke="#666666" points="789.75,-534.62 692.75,-534.62 692.75,-515.38 789.75,-515.38 789.75,-534.62"/>
<text text-anchor="middle" x="741.25" y="-521.12" font-family="Helvetica,sans-Serif" font-size="10.00">CheckLostContact</text>
</a>
</g>
</g>
<!-- Node25&#45;&gt;Node60 -->
<g id="edge34_Node000025_Node000060" class="edge">
<title>Node25&#45;&gt;Node60</title>
<g id="a_edge34_Node000025_Node000060"><a xlink:title=" ">
<path fill="none" stroke="#63b8ff" d="M605.89,-525C627.67,-525 656.07,-525 681.15,-525"/>
<polygon fill="#63b8ff" stroke="#63b8ff" points="680.89,-528.5 690.89,-525 680.89,-521.5 680.89,-528.5"/>
</a>
</g>
</g>
<!-- Node68 -->
<g id="Node000068" class="node">
<title>Node68</title>
<g id="a_Node000068"><a xlink:href="transceiver_8h.html#afc091b5942e21a03f6dc8635d5e519ba" target="_top" xlink:title=" ">
<polygon fill="white" stroke="#666666" points="801.75,-497.62 680.75,-497.62 680.75,-478.38 801.75,-478.38 801.75,-497.62"/>
<text text-anchor="middle" x="741.25" y="-484.12" font-family="Helvetica,sans-Serif" font-size="10.00">RecordsPacketSuccess</text>
</a>
</g>
</g>
<!-- Node25&#45;&gt;Node68 -->
<g id="edge36_Node000025_Node000068" class="edge">
<title>Node25&#45;&gt;Node68</title>
<g id="a_edge36_Node000025_Node000068"><a xlink:title=" ">
<path fill="none" stroke="#63b8ff" d="M605.89,-517.24C628.19,-512.39 657.44,-506.02 682.95,-500.47"/>
<polygon fill="#63b8ff" stroke="#63b8ff" points="683.49,-503.94 692.51,-498.39 682,-497.1 683.49,-503.94"/>
</a>
</g>
</g>
<!-- Node28 -->
<g id="Node000028" class="node">
<title>Node28</title>
<g id="a_Node000028"><a xlink:href="TransmitterCode_2src_2main_8cpp.html#a7d34cec6e8edc20c8b50424e15dcc7c7" target="_top" xlink:title=" ">
<polygon fill="#fff0f0" stroke="red" points="916.38,-942.62 853.88,-942.62 853.88,-923.38 916.38,-923.38 916.38,-942.62"/>
<text text-anchor="middle" x="885.12" y="-929.12" font-family="Helvetica,sans-Serif" font-size="10.00">RedLedOn</text>
</a>
</g>
</g>
<!-- Node27&#45;&gt;Node28 -->
<g id="edge28_Node000027_Node000028" class="edge">
<title>Node27&#45;&gt;Node28</title>
<g id="a_edge28_Node000027_Node000028"><a xlink:title=" ">
<path fill="none" stroke="#63b8ff" d="M772.5,-638.34C784.17,-640.7 796.79,-645.27 805.5,-654 877.74,-726.43 884.83,-859.74 884.69,-911.59"/>
<polygon fill="#63b8ff" stroke="#63b8ff" points="881.19,-911.36 884.55,-921.41 888.19,-911.46 881.19,-911.36"/>
</a>
</g>
</g>
<!-- Node28&#45;&gt;Node2 -->
<g id="edge29_Node000028_Node000002" class="edge">
<title>Node28&#45;&gt;Node2</title>
<g id="a_edge29_Node000028_Node000002"><a xlink:title=" ">
<path fill="none" stroke="#63b8ff" d="M853.41,-942.27C807.66,-955.54 718.63,-979.33 641,-988 483.95,-1005.54 296.56,-997.41 207.34,-991.79"/>
<polygon fill="#63b8ff" stroke="#63b8ff" points="207.64,-988.3 197.44,-991.14 207.19,-995.28 207.64,-988.3"/>
</a>
</g>
</g>
<!-- Node28&#45;&gt;Node57 -->
<g id="edge30_Node000028_Node000057" class="edge">
<title>Node28&#45;&gt;Node57</title>
<g id="a_edge30_Node000028_Node000057"><a xlink:title=" ">
<path fill="none" stroke="#63b8ff" d="M911.63,-943.09C917.34,-945.53 923.3,-948.24 928.75,-951 941.89,-957.66 956,-965.96 967.58,-973.1"/>
<polygon fill="#63b8ff" stroke="#63b8ff" points="965.41,-975.87 975.74,-978.21 969.12,-969.94 965.41,-975.87"/>
</a>
</g>
</g>
<!-- Node57&#45;&gt;Node2 -->
<g id="edge32_Node000057_Node000002" class="edge">
<title>Node57&#45;&gt;Node2</title>
<g id="a_edge32_Node000057_Node000002"><a xlink:title=" ">
<path fill="none" stroke="#63b8ff" d="M979.04,-999.05C966.69,-1007.77 947.47,-1019.92 928.75,-1026 849.51,-1051.74 825.57,-1045 742.25,-1045 401.88,-1045 401.88,-1045 401.88,-1045 325.56,-1045 239.29,-1018.79 191.65,-1001.92"/>
<polygon fill="#63b8ff" stroke="#63b8ff" points="192.98,-998.68 182.39,-998.57 190.6,-1005.26 192.98,-998.68"/>
</a>
</g>
</g>
<!-- Node57&#45;&gt;Node58 -->
<g id="edge31_Node000057_Node000058" class="edge">
<title>Node57&#45;&gt;Node58</title>
<g id="a_edge31_Node000057_Node000058"><a xlink:title=" ">
<path fill="none" stroke="#63b8ff" d="M1016.69,-999.08C1031.08,-1005.59 1050.04,-1014.16 1066.07,-1021.4"/>
<polygon fill="#63b8ff" stroke="#63b8ff" points="1064.17,-1024.38 1074.72,-1025.31 1067.05,-1018 1064.17,-1024.38"/>
</a>
</g>
</g>
<!-- Node61 -->
<g id="Node000061" class="node">
<title>Node61</title>
<g id="a_Node000061"><a xlink:href="transceiver_8h.html#ad0236abcfc887ad708d9504c4ab2a7c3" target="_top" xlink:title=" ">
<polygon fill="#fff0f0" stroke="red" points="928.75,-534.62 841.5,-534.62 841.5,-515.38 928.75,-515.38 928.75,-534.62"/>
<text text-anchor="middle" x="885.12" y="-521.12" font-family="Helvetica,sans-Serif" font-size="10.00">TryToReconnect</text>
</a>
</g>
</g>
<!-- Node60&#45;&gt;Node61 -->
<g id="edge35_Node000060_Node000061" class="edge">
<title>Node60&#45;&gt;Node61</title>
<g id="a_edge35_Node000060_Node000061"><a xlink:title=" ">
<path fill="none" stroke="#63b8ff" d="M789.89,-525C802.71,-525 816.68,-525 829.84,-525"/>
<polygon fill="#63b8ff" stroke="#63b8ff" points="829.63,-528.5 839.63,-525 829.63,-521.5 829.63,-528.5"/>
</a>
</g>
</g>
<!-- Node69&#45;&gt;Node65 -->
<g id="edge38_Node000069_Node000065" class="edge">
<title>Node69&#45;&gt;Node65</title>
<g id="a_edge38_Node000069_Node000065"><a xlink:title=" ">
<path fill="none" stroke="#63b8ff" d="M600.55,-418.62C648.69,-425.8 743.53,-432.56 805.5,-389 854.26,-354.73 873.86,-281.84 880.79,-245.91"/>
<polygon fill="#63b8ff" stroke="#63b8ff" points="884.19,-246.82 882.48,-236.36 877.29,-245.6 884.19,-246.82"/>
</a>
</g>
</g>
<!-- Node71 -->
<g id="Node000071" class="node">
<title>Node71</title>
<g id="a_Node000071"><a xlink:href="transceiver_8h.html#adac102739147db6397bbcbb371aec4fd" target="_top" xlink:title=" ">
<polygon fill="white" stroke="#666666" points="785.25,-460.62 697.25,-460.62 697.25,-441.38 785.25,-441.38 785.25,-460.62"/>
<text text-anchor="middle" x="741.25" y="-447.12" font-family="Helvetica,sans-Serif" font-size="10.00">LoadParameters</text>
</a>
</g>
</g>
<!-- Node70&#45;&gt;Node71 -->
<g id="edge41_Node000070_Node000071" class="edge">
<title>Node70&#45;&gt;Node71</title>
<g id="a_edge41_Node000070_Node000071"><a xlink:title=" ">
<path fill="none" stroke="#63b8ff" d="M628.75,-451C647.2,-451 667.49,-451 685.65,-451"/>
<polygon fill="#63b8ff" stroke="#63b8ff" points="685.43,-454.5 695.43,-451 685.43,-447.5 685.43,-454.5"/>
</a>
</g>
</g>
<!-- Node72 -->
<g id="Node000072" class="node">
<title>Node72</title>
<g id="a_Node000072"><a xlink:href="TransmitterCode_2src_2main_8cpp.html#a5aa4888b924a4f1d95e9cedc3004f2b6" target="_top" xlink:title=" ">
<polygon fill="white" stroke="#666666" points="926.12,-460.62 844.12,-460.62 844.12,-441.38 926.12,-441.38 926.12,-460.62"/>
<text text-anchor="middle" x="885.12" y="-447.12" font-family="Helvetica,sans-Serif" font-size="10.00">MakeTwobytes</text>
</a>
</g>
</g>
<!-- Node71&#45;&gt;Node72 -->
<g id="edge42_Node000071_Node000072" class="edge">
<title>Node71&#45;&gt;Node72</title>
<g id="a_edge42_Node000071_Node000072"><a xlink:title=" ">
<path fill="none" stroke="#63b8ff" d="M785.59,-451C800.39,-451 817.1,-451 832.49,-451"/>
<polygon fill="#63b8ff" stroke="#63b8ff" points="832.44,-454.5 842.44,-451 832.44,-447.5 832.44,-454.5"/>
</a>
</g>
</g>
<!-- Node73&#45;&gt;Node1 -->
<g id="edge48_Node000073_Node000001" class="edge">
<title>Node73&#45;&gt;Node1</title>
<g id="a_edge48_Node000073_Node000001"><a xlink:title=" ">
<path fill="none" stroke="#63b8ff" d="M518.02,-95C416.61,-95 188.58,-95 88.28,-95"/>
<polygon fill="#63b8ff" stroke="#63b8ff" points="88.5,-91.5 78.5,-95 88.5,-98.5 88.5,-91.5"/>
</a>
</g>
</g>
<!-- Node73&#45;&gt;Node65 -->
<g id="edge49_Node000073_Node000065" class="edge">
<title>Node73&#45;&gt;Node65</title>
<g id="a_edge49_Node000073_Node000065"><a xlink:title=" ">
<path fill="none" stroke="#63b8ff" d="M605.23,-84.96C653.68,-73.16 742.35,-59.39 805.5,-95 847.1,-118.46 869.18,-173.76 878.55,-204.13"/>
<polygon fill="#63b8ff" stroke="#63b8ff" points="875.16,-205.02 881.3,-213.66 881.89,-203.08 875.16,-205.02"/>
</a>
</g>
</g>
<!-- Node74 -->
<g id="Node000074" class="node">
<title>Node74</title>
<g id="a_Node000074"><a xlink:href="BuddyWireless_8h.html#ace84aff90c63bee9a876eda720fbf8bc" target="_top" xlink:title=" ">
<polygon fill="white" stroke="#666666" points="786,-47.62 696.5,-47.62 696.5,-28.38 786,-28.38 786,-47.62"/>
<text text-anchor="middle" x="741.25" y="-34.12" font-family="Helvetica,sans-Serif" font-size="10.00">ChangeTXTarget</text>
</a>
</g>
</g>
<!-- Node73&#45;&gt;Node74 -->
<g id="edge44_Node000073_Node000074" class="edge">
<title>Node73&#45;&gt;Node74</title>
<g id="a_edge44_Node000073_Node000074"><a xlink:title=" ">
<path fill="none" stroke="#63b8ff" d="M600.25,-84.94C627.84,-75.69 668.98,-61.9 699.53,-51.65"/>
<polygon fill="#63b8ff" stroke="#63b8ff" points="700.46,-55.03 708.83,-48.54 698.23,-48.4 700.46,-55.03"/>
</a>
</g>
</g>
<!-- Node75 -->
<g id="Node000075" class="node">
<title>Node75</title>
<g id="a_Node000075"><a xlink:href="BuddyWireless_8h.html#af59c2527be7a67d6b09dd467f3123d55" target="_top" xlink:title=" ">
<polygon fill="#fff0f0" stroke="red" points="776.62,-123.62 705.88,-123.62 705.88,-104.38 776.62,-104.38 776.62,-123.62"/>
<text text-anchor="middle" x="741.25" y="-110.12" font-family="Helvetica,sans-Serif" font-size="10.00">GetPupilAck</text>
</a>
</g>
</g>
<!-- Node73&#45;&gt;Node75 -->
<g id="edge46_Node000073_Node000075" class="edge">
<title>Node73&#45;&gt;Node75</title>
<g id="a_edge46_Node000073_Node000075"><a xlink:title=" ">
<path fill="none" stroke="#63b8ff" d="M620.34,-100.6C643.8,-103.22 671.55,-106.32 694.45,-108.88"/>
<polygon fill="#63b8ff" stroke="#63b8ff" points="693.76,-112.33 704.09,-109.96 694.54,-105.37 693.76,-112.33"/>
</a>
</g>
</g>
<!-- Node74&#45;&gt;Node65 -->
<g id="edge45_Node000074_Node000065" class="edge">
<title>Node74&#45;&gt;Node65</title>
<g id="a_edge45_Node000074_Node000065"><a xlink:title=" ">
<path fill="none" stroke="#63b8ff" d="M782.66,-48.1C790.89,-51.52 799.01,-56.05 805.5,-62 848.61,-101.52 870.6,-169.75 879.39,-204.04"/>
<polygon fill="#63b8ff" stroke="#63b8ff" points="875.93,-204.65 881.69,-213.55 882.74,-203.01 875.93,-204.65"/>
</a>
</g>
</g>
<!-- Node75&#45;&gt;Node65 -->
<g id="edge47_Node000075_Node000065" class="edge">
<title>Node75&#45;&gt;Node65</title>
<g id="a_edge47_Node000075_Node000065"><a xlink:title=" ">
<path fill="none" stroke="#63b8ff" d="M776.98,-119.95C786.72,-122.64 796.96,-126.49 805.5,-132 834.83,-150.93 859.03,-184.12 872.52,-205.31"/>
<polygon fill="#63b8ff" stroke="#63b8ff" points="869.4,-206.92 877.62,-213.61 875.36,-203.25 869.4,-206.92"/>
</a>
</g>
</g>
<!-- Node78&#45;&gt;Node68 -->
<g id="edge57_Node000078_Node000068" class="edge">
<title>Node78&#45;&gt;Node68</title>
<g id="a_edge57_Node000078_Node000068"><a xlink:title=" ">
<path fill="none" stroke="#63b8ff" d="M581.44,-327.93C596.43,-341.67 623.19,-367.74 641,-394 661.98,-424.93 648.48,-445.84 677,-470 677.94,-470.79 678.91,-471.55 679.9,-472.28"/>
<polygon fill="#63b8ff" stroke="#63b8ff" points="677.84,-475.12 688.23,-477.18 681.39,-469.09 677.84,-475.12"/>
</a>
</g>
</g>
<!-- Node78&#45;&gt;Node65 -->
<g id="edge56_Node000078_Node000065" class="edge">
<title>Node78&#45;&gt;Node65</title>
<g id="a_edge56_Node000078_Node000065"><a xlink:title=" ">
<path fill="none" stroke="#63b8ff" d="M611.6,-328.07C660.42,-337.75 742.89,-347.05 805.5,-318 837.8,-303.01 861.64,-267.48 874.16,-244.94"/>
<polygon fill="#63b8ff" stroke="#63b8ff" points="877.1,-246.87 878.68,-236.39 870.91,-243.6 877.1,-246.87"/>
</a>
</g>
</g>
<!-- Node79 -->
<g id="Node000079" class="node">
<title>Node79</title>
<g id="a_Node000079"><a xlink:href="transceiver_8h.html#a953f1d5046e183549ed95b08f6d675e3" target="_top" xlink:title=" ">
<polygon fill="#fff0f0" stroke="red" points="789.75,-197.62 692.75,-197.62 692.75,-178.38 789.75,-178.38 789.75,-197.62"/>
<text text-anchor="middle" x="741.25" y="-184.12" font-family="Helvetica,sans-Serif" font-size="10.00">CheckGapsLength</text>
</a>
</g>
</g>
<!-- Node78&#45;&gt;Node79 -->
<g id="edge52_Node000078_Node000079" class="edge">
<title>Node78&#45;&gt;Node79</title>
<g id="a_edge52_Node000078_Node000079"><a xlink:title=" ">
<path fill="none" stroke="#63b8ff" d="M617.16,-312.76C625.84,-310.03 634.28,-305.98 641,-300 674.42,-270.26 644,-236.2 677,-206 678.67,-204.47 680.47,-203.07 682.36,-201.78"/>
<polygon fill="#63b8ff" stroke="#63b8ff" points="683.99,-204.88 691.1,-197.02 680.64,-198.73 683.99,-204.88"/>
</a>
</g>
</g>
<!-- Node81 -->
<g id="Node000081" class="node">
<title>Node81</title>
<g id="a_Node000081"><a xlink:href="TransmitterCode_2src_2main_8cpp.html#a62e53eb9359c32b666e3386d62c57037" target="_top" xlink:title=" ">
<polygon fill="#fff0f0" stroke="red" points="777,-160.62 705.5,-160.62 705.5,-141.38 777,-141.38 777,-160.62"/>
<text text-anchor="middle" x="741.25" y="-147.12" font-family="Helvetica,sans-Serif" font-size="10.00">GreenLedOn</text>
</a>
</g>
</g>
<!-- Node78&#45;&gt;Node81 -->
<g id="edge53_Node000078_Node000081" class="edge">
<title>Node78&#45;&gt;Node81</title>
<g id="a_edge53_Node000078_Node000081"><a xlink:title=" ">
<path fill="none" stroke="#63b8ff" d="M617.26,-313.38C626.04,-310.61 634.49,-306.39 641,-300 684.1,-257.71 634.5,-211.89 677,-169 681.79,-164.17 687.77,-160.61 694.14,-158"/>
<polygon fill="#63b8ff" stroke="#63b8ff" points="695.21,-161.33 703.63,-154.9 693.04,-154.67 695.21,-161.33"/>
</a>
</g>
</g>
<!-- Node100 -->
<g id="Node000100" class="node">
<title>Node100</title>
<g id="a_Node000100"><a xlink:href="transceiver_8h.html#a694f4f5a0147f4dc29b0bc1a8951547d" target="_top" xlink:title=" ">
<polygon fill="#fff0f0" stroke="red" points="787.88,-308.62 694.62,-308.62 694.62,-289.38 787.88,-289.38 787.88,-308.62"/>
<text text-anchor="middle" x="741.25" y="-295.12" font-family="Helvetica,sans-Serif" font-size="10.00">ParseAckPayload</text>
</a>
</g>
</g>
<!-- Node78&#45;&gt;Node100 -->
<g id="edge54_Node000078_Node000100" class="edge">
<title>Node78&#45;&gt;Node100</title>
<g id="a_edge54_Node000078_Node000100"><a xlink:title=" ">
<path fill="none" stroke="#63b8ff" d="M617.15,-312.76C637.56,-310.48 661.67,-307.78 683.11,-305.39"/>
<polygon fill="#63b8ff" stroke="#63b8ff" points="683.33,-308.88 692.88,-304.29 682.55,-301.93 683.33,-308.88"/>
</a>
</g>
</g>
<!-- Node258 -->
<g id="Node000258" class="node">
<title>Node258</title>
<g id="a_Node000258"><a xlink:href="transceiver_8h.html#a04937e814dba3f5e07cb34bb13130ff3" target="_top" xlink:title=" ">
<polygon fill="#fff0f0" stroke="red" points="799.5,-271.62 683,-271.62 683,-252.38 799.5,-252.38 799.5,-271.62"/>
<text text-anchor="middle" x="741.25" y="-258.12" font-family="Helvetica,sans-Serif" font-size="10.00">ParseShortAckPayload</text>
</a>
</g>
</g>
<!-- Node78&#45;&gt;Node258 -->
<g id="edge55_Node000078_Node000258" class="edge">
<title>Node78&#45;&gt;Node258</title>
<g id="a_edge55_Node000078_Node000258"><a xlink:title=" ">
<path fill="none" stroke="#63b8ff" d="M616.85,-307.97C625.01,-305.7 633.34,-303.04 641,-300 658.01,-293.24 660.09,-287 677,-280 680.81,-278.42 684.81,-276.93 688.86,-275.54"/>
<polygon fill="#63b8ff" stroke="#63b8ff" points="689.74,-278.93 698.18,-272.53 687.59,-272.27 689.74,-278.93"/>
</a>
</g>
</g>
<!-- Node97 -->
<g id="Node000097" class="node">
<title>Node97</title>
<g id="a_Node000097"><a xlink:href="Utilities_8h.html#a793b7bcd77531c95fe72ed4356d421c8" target="_top" xlink:title=" ">
<polygon fill="white" stroke="#666666" points="795.75,-234.62 686.75,-234.62 686.75,-215.38 795.75,-215.38 795.75,-234.62"/>
<text text-anchor="middle" x="741.25" y="-221.12" font-family="Helvetica,sans-Serif" font-size="10.00">StartInactvityTimeout</text>
</a>
</g>
</g>
<!-- Node78&#45;&gt;Node97 -->
<g id="edge58_Node000078_Node000097" class="edge">
<title>Node78&#45;&gt;Node97</title>
<g id="a_edge58_Node000078_Node000097"><a xlink:title=" ">
<path fill="none" stroke="#63b8ff" d="M617.4,-311.33C625.77,-308.71 634.03,-305.07 641,-300 665.24,-282.39 653.01,-260.95 677,-243 678.31,-242.02 679.68,-241.09 681.09,-240.21"/>
<polygon fill="#63b8ff" stroke="#63b8ff" points="682.28,-243.53 689.54,-235.81 679.05,-237.32 682.28,-243.53"/>
</a>
</g>
</g>
</g>
</svg>
