<?xml version="1.0" encoding="UTF-8" standalone="no"?>
<!DOCTYPE svg PUBLIC "-//W3C//DTD SVG 1.1//EN"
 "http://www.w3.org/Graphics/SVG/1.1/DTD/svg11.dtd">
<!-- Generated by graphviz version 7.0.5 (20221223.1930)
 -->
<!-- Title: MasterDetected Pages: 1 -->
<svg width="1084pt" height="1051pt"
 viewBox="0.00 0.00 1084.00 1050.50" xmlns="http://www.w3.org/2000/svg" xmlns:xlink="http://www.w3.org/1999/xlink">
<g id="graph0" class="graph" transform="scale(1 1) rotate(0) translate(4 1046.5)">
<title>MasterDetected</title>
<!-- Node1 -->
<g id="node1" class="node">
<title>Node1</title>
<g id="a_node1"><a xlink:title=" ">
<polygon fill="#999999" stroke="#666666" points="86,-66.5 0,-66.5 0,-47.5 86,-47.5 86,-66.5"/>
<text text-anchor="middle" x="43" y="-54.5" font-family="Helvetica,sans-Serif" font-size="10.00">MasterDetected</text>
</a>
</g>
</g>
<!-- Node2 -->
<g id="node2" class="node">
<title>Node2</title>
<g id="a_node2"><a xlink:href="Nextion_8h.html#aecac2f0c289f02ef3c92b85be82eacac" target="_top" xlink:title=" ">
<polygon fill="white" stroke="#666666" points="205,-142.5 122,-142.5 122,-123.5 205,-123.5 205,-142.5"/>
<text text-anchor="middle" x="163.5" y="-130.5" font-family="Helvetica,sans-Serif" font-size="10.00">SendCommand</text>
</a>
</g>
</g>
<!-- Node1&#45;&gt;Node2 -->
<g id="edge1" class="edge">
<title>Node1&#45;&gt;Node2</title>
<path fill="none" stroke="#63b8ff" d="M59.49,-66.94C79.27,-79.62 113.76,-101.74 137.34,-116.86"/>
<polygon fill="#63b8ff" stroke="#63b8ff" points="135.42,-119.79 145.73,-122.24 139.2,-113.9 135.42,-119.79"/>
</g>
<!-- Node51 -->
<g id="node27" class="node">
<title>Node51</title>
<g id="a_node27"><a xlink:href="Nextion_8h.html#afe513398f72d5e48f691830a1ef6eb42" target="_top" xlink:title=" ">
<polygon fill="white" stroke="#666666" points="930.5,-85.5 872.5,-85.5 872.5,-66.5 930.5,-66.5 930.5,-85.5"/>
<text text-anchor="middle" x="901.5" y="-73.5" font-family="Helvetica,sans-Serif" font-size="10.00">SendText</text>
</a>
</g>
</g>
<!-- Node1&#45;&gt;Node51 -->
<g id="edge68" class="edge">
<title>Node1&#45;&gt;Node51</title>
<path fill="none" stroke="#63b8ff" d="M86.4,-56.65C185.43,-55.98 439.67,-55.15 652,-62 725.81,-64.38 811.83,-69.82 860.85,-73.18"/>
<polygon fill="#63b8ff" stroke="#63b8ff" points="860.47,-76.66 870.69,-73.86 860.95,-69.68 860.47,-76.66"/>
</g>
<!-- Node3 -->
<g id="node3" class="node">
<title>Node3</title>
<g id="a_node3"><a xlink:href="Utilities_8h.html#a3b1d8aa403e2724e55c71da3d9d13e7e" target="_top" xlink:title=" ">
<polygon fill="white" stroke="#666666" points="318,-520.5 241,-520.5 241,-501.5 318,-501.5 318,-520.5"/>
<text text-anchor="middle" x="279.5" y="-508.5" font-family="Helvetica,sans-Serif" font-size="10.00">DelayWithDog</text>
</a>
</g>
</g>
<!-- Node2&#45;&gt;Node3 -->
<g id="edge2" class="edge">
<title>Node2&#45;&gt;Node3</title>
<path fill="none" stroke="#63b8ff" d="M167.43,-142.72C182.49,-192.65 251.23,-420.57 272.32,-490.52"/>
<polygon fill="#63b8ff" stroke="#63b8ff" points="268.91,-491.33 275.15,-499.89 275.61,-489.31 268.91,-491.33"/>
</g>
<!-- Node52 -->
<g id="node28" class="node">
<title>Node52</title>
<g id="a_node28"><a xlink:href="Nextion_8h.html#a43937dd3d9c795271fd9c3eb3c6b6410" target="_top" xlink:title=" ">
<polygon fill="white" stroke="#666666" points="1076,-47.5 993,-47.5 993,-28.5 1076,-28.5 1076,-47.5"/>
<text text-anchor="middle" x="1034.5" y="-35.5" font-family="Helvetica,sans-Serif" font-size="10.00">GetReturnCode</text>
</a>
</g>
</g>
<!-- Node2&#45;&gt;Node52 -->
<g id="edge66" class="edge">
<title>Node2&#45;&gt;Node52</title>
<path fill="none" stroke="#63b8ff" d="M174.44,-123.16C188.2,-110.12 214.38,-87.32 241,-75 380.64,-10.36 425.12,0 579,0 579,0 579,0 750,0 831.53,0 925.1,-15.63 981.72,-26.84"/>
<polygon fill="#63b8ff" stroke="#63b8ff" points="980.91,-30.25 991.4,-28.79 982.29,-23.39 980.91,-30.25"/>
</g>
<!-- Node141 -->
<g id="node50" class="node">
<title>Node141</title>
<g id="a_node50"><a xlink:href="TransmitterCode_2src_2main_8cpp.html#a5f109790a6fe0b972a502f3cac4ed1e7" target="_top" xlink:title=" ">
<polygon fill="white" stroke="#666666" points="303.5,-123.5 255.5,-123.5 255.5,-104.5 303.5,-104.5 303.5,-123.5"/>
<text text-anchor="middle" x="279.5" y="-111.5" font-family="Helvetica,sans-Serif" font-size="10.00">InStrng</text>
</a>
</g>
</g>
<!-- Node2&#45;&gt;Node141 -->
<g id="edge67" class="edge">
<title>Node2&#45;&gt;Node141</title>
<path fill="none" stroke="#63b8ff" d="M205.33,-126.19C218.02,-124.08 231.87,-121.77 244.07,-119.74"/>
<polygon fill="#63b8ff" stroke="#63b8ff" points="244.39,-123.23 253.68,-118.14 243.24,-116.33 244.39,-123.23"/>
</g>
<!-- Node4 -->
<g id="node4" class="node">
<title>Node4</title>
<g id="a_node4"><a xlink:href="TransmitterCode_2src_2main_8cpp.html#a26ae4f6ca14f760bd5eb6e7588fe7c81" target="_top" xlink:title="GET NEW SERVO POSITIONS.">
<polygon fill="white" stroke="#666666" points="472,-876.5 354,-876.5 354,-857.5 472,-857.5 472,-876.5"/>
<text text-anchor="middle" x="413" y="-864.5" font-family="Helvetica,sans-Serif" font-size="10.00">GetNewChannelValues</text>
</a>
</g>
</g>
<!-- Node3&#45;&gt;Node4 -->
<g id="edge3" class="edge">
<title>Node3&#45;&gt;Node4</title>
<path fill="none" stroke="#63b8ff" d="M284.15,-520.89C301.96,-569.1 379.78,-779.78 404.46,-846.59"/>
<polygon fill="#63b8ff" stroke="#63b8ff" points="401.15,-847.73 407.9,-855.9 407.72,-845.31 401.15,-847.73"/>
</g>
<!-- Node16 -->
<g id="node16" class="node">
<title>Node16</title>
<g id="a_node16"><a xlink:href="Utilities_8h.html#ada95a00a341e4a80176eda743a94ab2e" target="_top" xlink:title=" ">
<polygon fill="white" stroke="#666666" points="448,-539.5 378,-539.5 378,-520.5 448,-520.5 448,-539.5"/>
<text text-anchor="middle" x="413" y="-527.5" font-family="Helvetica,sans-Serif" font-size="10.00">KickTheDog</text>
</a>
</g>
</g>
<!-- Node3&#45;&gt;Node16 -->
<g id="edge16" class="edge">
<title>Node3&#45;&gt;Node16</title>
<path fill="none" stroke="#63b8ff" d="M318.18,-516.44C333.33,-518.63 350.92,-521.17 366.75,-523.46"/>
<polygon fill="#63b8ff" stroke="#63b8ff" points="366.01,-526.89 376.41,-524.86 367.01,-519.96 366.01,-526.89"/>
</g>
<!-- Node17 -->
<g id="node17" class="node">
<title>Node17</title>
<g id="a_node17"><a xlink:href="transceiver_8h.html#a049bfb836e7aa4a3a48a1a4bd225fafc" target="_top" xlink:title=" ">
<polygon fill="white" stroke="#666666" points="442.5,-502.5 383.5,-502.5 383.5,-483.5 442.5,-483.5 442.5,-502.5"/>
<text text-anchor="middle" x="413" y="-490.5" font-family="Helvetica,sans-Serif" font-size="10.00">SendData</text>
</a>
</g>
</g>
<!-- Node3&#45;&gt;Node17 -->
<g id="edge17" class="edge">
<title>Node3&#45;&gt;Node17</title>
<path fill="none" stroke="#63b8ff" d="M318.18,-505.84C334.96,-503.55 354.73,-500.84 371.79,-498.5"/>
<polygon fill="#63b8ff" stroke="#63b8ff" points="372.16,-501.99 381.59,-497.16 371.21,-495.05 372.16,-501.99"/>
</g>
<!-- Node5 -->
<g id="node5" class="node">
<title>Node5</title>
<g id="a_node5"><a xlink:href="TransmitterCode_2src_2main_8cpp.html#ac5728db610c441820a6f47295967cbab" target="_top" xlink:title=" ">
<polygon fill="white" stroke="#666666" points="620,-950.5 540,-950.5 540,-931.5 620,-931.5 620,-950.5"/>
<text text-anchor="middle" x="580" y="-938.5" font-family="Helvetica,sans-Serif" font-size="10.00">AnalogueReed</text>
</a>
</g>
</g>
<!-- Node4&#45;&gt;Node5 -->
<g id="edge4" class="edge">
<title>Node4&#45;&gt;Node5</title>
<path fill="none" stroke="#63b8ff" d="M427.66,-876.88C445.39,-889.27 477.64,-910.42 508,-923 514.55,-925.72 521.62,-928.1 528.67,-930.17"/>
<polygon fill="#63b8ff" stroke="#63b8ff" points="527.62,-933.52 538.19,-932.77 529.47,-926.76 527.62,-933.52"/>
</g>
<!-- Node6 -->
<g id="node6" class="node">
<title>Node6</title>
<g id="a_node6"><a xlink:href="TransmitterCode_2src_2main_8cpp.html#ac77bd940a0faad7b997c9ddf40a7acc6" target="_top" xlink:title=" ">
<polygon fill="white" stroke="#666666" points="607,-839.5 553,-839.5 553,-820.5 607,-820.5 607,-839.5"/>
<text text-anchor="middle" x="580" y="-827.5" font-family="Helvetica,sans-Serif" font-size="10.00">DoMixes</text>
</a>
</g>
</g>
<!-- Node4&#45;&gt;Node6 -->
<g id="edge5" class="edge">
<title>Node4&#45;&gt;Node6</title>
<path fill="none" stroke="#63b8ff" d="M458.22,-857.08C484.26,-851.25 516.84,-843.94 541.6,-838.39"/>
<polygon fill="#63b8ff" stroke="#63b8ff" points="542.24,-841.83 551.24,-836.23 540.71,-835 542.24,-841.83"/>
</g>
<!-- Node8 -->
<g id="node8" class="node">
<title>Node8</title>
<g id="a_node8"><a xlink:href="Utilities_8h.html#acbd7adcd2b0e2095a89b4a98042b526e" target="_top" xlink:title=" ">
<polygon fill="white" stroke="#666666" points="626,-913.5 534,-913.5 534,-894.5 626,-894.5 626,-913.5"/>
<text text-anchor="middle" x="580" y="-901.5" font-family="Helvetica,sans-Serif" font-size="10.00">DoReverseSense</text>
</a>
</g>
</g>
<!-- Node4&#45;&gt;Node8 -->
<g id="edge7" class="edge">
<title>Node4&#45;&gt;Node8</title>
<path fill="none" stroke="#63b8ff" d="M458.22,-876.92C478.28,-881.42 502.23,-886.79 523.5,-891.55"/>
<polygon fill="#63b8ff" stroke="#63b8ff" points="522.66,-894.95 533.18,-893.73 524.19,-888.12 522.66,-894.95"/>
</g>
<!-- Node9 -->
<g id="node9" class="node">
<title>Node9</title>
<g id="a_node9"><a xlink:href="TransmitterCode_2src_2main_8cpp.html#a4be5821d4f80bdcdbee25adc69051d3e" target="_top" xlink:title=" ">
<polygon fill="white" stroke="#666666" points="624.5,-802.5 535.5,-802.5 535.5,-783.5 624.5,-783.5 624.5,-802.5"/>
<text text-anchor="middle" x="580" y="-790.5" font-family="Helvetica,sans-Serif" font-size="10.00">DoRouteOutputs</text>
</a>
</g>
</g>
<!-- Node4&#45;&gt;Node9 -->
<g id="edge8" class="edge">
<title>Node4&#45;&gt;Node9</title>
<path fill="none" stroke="#63b8ff" d="M428.03,-857.17C445.87,-845.05 477.99,-824.53 508,-812 513.24,-809.81 518.8,-807.81 524.41,-806"/>
<polygon fill="#63b8ff" stroke="#63b8ff" points="525.19,-809.42 533.76,-803.18 523.17,-802.72 525.19,-809.42"/>
</g>
<!-- Node10 -->
<g id="node10" class="node">
<title>Node10</title>
<g id="a_node10"><a xlink:href="TransmitterCode_2src_2main_8cpp.html#a7a6560a77b8c4dd3925760790beafbd5" target="_top" xlink:title=" ">
<polygon fill="white" stroke="#666666" points="620.5,-765.5 539.5,-765.5 539.5,-746.5 620.5,-746.5 620.5,-765.5"/>
<text text-anchor="middle" x="580" y="-753.5" font-family="Helvetica,sans-Serif" font-size="10.00">DoSlowServos</text>
</a>
</g>
</g>
<!-- Node4&#45;&gt;Node10 -->
<g id="edge9" class="edge">
<title>Node4&#45;&gt;Node10</title>
<path fill="none" stroke="#63b8ff" d="M421.1,-857.29C435.38,-838.46 469.51,-796.94 508,-775 514.33,-771.39 521.37,-768.45 528.49,-766.05"/>
<polygon fill="#63b8ff" stroke="#63b8ff" points="529.24,-769.48 537.82,-763.25 527.23,-762.77 529.24,-769.48"/>
</g>
<!-- Node11 -->
<g id="node11" class="node">
<title>Node11</title>
<g id="a_node11"><a xlink:href="TransmitterCode_2src_2main_8cpp.html#af9c038b48102eca9032f10fefd9d5736" target="_top" xlink:title=" ">
<polygon fill="white" stroke="#666666" points="619,-1024.5 541,-1024.5 541,-1005.5 619,-1005.5 619,-1024.5"/>
<text text-anchor="middle" x="580" y="-1012.5" font-family="Helvetica,sans-Serif" font-size="10.00">GetCurveDots</text>
</a>
</g>
</g>
<!-- Node4&#45;&gt;Node11 -->
<g id="edge10" class="edge">
<title>Node4&#45;&gt;Node11</title>
<path fill="none" stroke="#63b8ff" d="M418.24,-876.96C429.21,-901.48 461,-965.08 508,-997 514.58,-1001.47 522.18,-1004.83 529.91,-1007.35"/>
<polygon fill="#63b8ff" stroke="#63b8ff" points="528.8,-1010.68 539.38,-1009.99 530.68,-1003.93 528.8,-1010.68"/>
</g>
<!-- Node14 -->
<g id="node14" class="node">
<title>Node14</title>
<g id="a_node14"><a xlink:href="TransmitterCode_2src_2main_8cpp.html#a248db02e07497e7a4149db17b4e5c2f3" target="_top" xlink:title=" ">
<polygon fill="white" stroke="#666666" points="618.5,-876.5 541.5,-876.5 541.5,-857.5 618.5,-857.5 618.5,-876.5"/>
<text text-anchor="middle" x="580" y="-864.5" font-family="Helvetica,sans-Serif" font-size="10.00">GetStickInput</text>
</a>
</g>
</g>
<!-- Node4&#45;&gt;Node14 -->
<g id="edge13" class="edge">
<title>Node4&#45;&gt;Node14</title>
<path fill="none" stroke="#63b8ff" d="M472.17,-867C491.05,-867 511.79,-867 529.93,-867"/>
<polygon fill="#63b8ff" stroke="#63b8ff" points="529.92,-870.5 539.92,-867 529.92,-863.5 529.92,-870.5"/>
</g>
<!-- Node15 -->
<g id="node15" class="node">
<title>Node15</title>
<g id="a_node15"><a xlink:href="Trims_8h.html#aacd8b022714bb89847239dd878ad9509" target="_top" xlink:title=" ">
<polygon fill="white" stroke="#666666" points="623,-987.5 537,-987.5 537,-968.5 623,-968.5 623,-987.5"/>
<text text-anchor="middle" x="580" y="-975.5" font-family="Helvetica,sans-Serif" font-size="10.00">GetTrimAmount</text>
</a>
</g>
</g>
<!-- Node4&#45;&gt;Node15 -->
<g id="edge15" class="edge">
<title>Node4&#45;&gt;Node15</title>
<path fill="none" stroke="#63b8ff" d="M421.05,-876.87C435.23,-895.98 469.22,-938.1 508,-960 513.6,-963.17 519.77,-965.78 526.05,-967.94"/>
<polygon fill="#63b8ff" stroke="#63b8ff" points="524.62,-971.17 535.21,-970.73 526.66,-964.47 524.62,-971.17"/>
</g>
<!-- Node7 -->
<g id="node7" class="node">
<title>Node7</title>
<g id="a_node7"><a xlink:href="Utilities_8h.html#a0d8d8a0d67cb9b04481f1692abe75368" target="_top" xlink:title=" ">
<polygon fill="white" stroke="#666666" points="788.5,-858.5 709.5,-858.5 709.5,-839.5 788.5,-839.5 788.5,-858.5"/>
<text text-anchor="middle" x="749" y="-846.5" font-family="Helvetica,sans-Serif" font-size="10.00">IntoHigherRes</text>
</a>
</g>
</g>
<!-- Node6&#45;&gt;Node7 -->
<g id="edge6" class="edge">
<title>Node6&#45;&gt;Node7</title>
<path fill="none" stroke="#63b8ff" d="M607.46,-833.01C631.66,-835.76 668.09,-839.91 697.8,-843.29"/>
<polygon fill="#63b8ff" stroke="#63b8ff" points="697.4,-846.77 707.73,-844.42 698.19,-839.81 697.4,-846.77"/>
</g>
<!-- Node12 -->
<g id="node12" class="node">
<title>Node12</title>
<g id="a_node12"><a xlink:href="TransmitterCode_2src_2main_8cpp.html#afeabb54d48ef7e55693014e057d2943d" target="_top" xlink:title=" ">
<polygon fill="white" stroke="#666666" points="787.5,-1005.5 710.5,-1005.5 710.5,-986.5 787.5,-986.5 787.5,-1005.5"/>
<text text-anchor="middle" x="749" y="-993.5" font-family="Helvetica,sans-Serif" font-size="10.00">CalculateRate</text>
</a>
</g>
</g>
<!-- Node11&#45;&gt;Node12 -->
<g id="edge11" class="edge">
<title>Node11&#45;&gt;Node12</title>
<path fill="none" stroke="#63b8ff" d="M619.31,-1010.64C642.95,-1007.95 673.49,-1004.48 698.89,-1001.59"/>
<polygon fill="#63b8ff" stroke="#63b8ff" points="699.11,-1005.09 708.65,-1000.48 698.32,-998.13 699.11,-1005.09"/>
</g>
<!-- Node13 -->
<g id="node13" class="node">
<title>Node13</title>
<g id="a_node13"><a xlink:href="TransmitterCode_2src_2main_8cpp.html#a8f53f86499d740b350f7b6d791c90497" target="_top" xlink:title=" ">
<polygon fill="white" stroke="#666666" points="784.5,-1042.5 713.5,-1042.5 713.5,-1023.5 784.5,-1023.5 784.5,-1042.5"/>
<text text-anchor="middle" x="749" y="-1030.5" font-family="Helvetica,sans-Serif" font-size="10.00">UseFullRate</text>
</a>
</g>
</g>
<!-- Node11&#45;&gt;Node13 -->
<g id="edge12" class="edge">
<title>Node11&#45;&gt;Node13</title>
<path fill="none" stroke="#63b8ff" d="M619.31,-1019.13C643.98,-1021.79 676.16,-1025.26 702.18,-1028.06"/>
<polygon fill="#63b8ff" stroke="#63b8ff" points="701.45,-1031.5 711.77,-1029.1 702.2,-1024.54 701.45,-1031.5"/>
</g>
<!-- Node14&#45;&gt;Node7 -->
<g id="edge14" class="edge">
<title>Node14&#45;&gt;Node7</title>
<path fill="none" stroke="#63b8ff" d="M618.89,-862.92C642.26,-860.4 672.5,-857.14 697.84,-854.41"/>
<polygon fill="#63b8ff" stroke="#63b8ff" points="698.02,-857.91 707.59,-853.36 697.27,-850.95 698.02,-857.91"/>
</g>
<!-- Node18 -->
<g id="node18" class="node">
<title>Node18</title>
<g id="a_node18"><a xlink:href="transceiver_8h.html#a1ddd5e8d5bd649dd98ce3710fbff651b" target="_top" xlink:title=" ">
<polygon fill="white" stroke="#666666" points="610.5,-576.5 549.5,-576.5 549.5,-557.5 610.5,-557.5 610.5,-576.5"/>
<text text-anchor="middle" x="580" y="-564.5" font-family="Helvetica,sans-Serif" font-size="10.00">Compress</text>
</a>
</g>
</g>
<!-- Node17&#45;&gt;Node18 -->
<g id="edge18" class="edge">
<title>Node17&#45;&gt;Node18</title>
<path fill="none" stroke="#63b8ff" d="M442.94,-499.5C452.63,-502.43 463.19,-506.5 472,-512 491.47,-524.15 488.13,-537.53 508,-549 517.22,-554.32 528,-558.09 538.34,-560.75"/>
<polygon fill="#63b8ff" stroke="#63b8ff" points="537.28,-564.1 547.81,-562.89 538.83,-557.27 537.28,-564.1"/>
</g>
<!-- Node19 -->
<g id="node19" class="node">
<title>Node19</title>
<g id="a_node19"><a xlink:href="transceiver_8h.html#a4144c213e5448a7e02d4172881f08219" target="_top" xlink:title=" ">
<polygon fill="white" stroke="#666666" points="652,-539.5 508,-539.5 508,-520.5 652,-520.5 652,-539.5"/>
<text text-anchor="middle" x="580" y="-527.5" font-family="Helvetica,sans-Serif" font-size="10.00">EncodeTheChangedChannels</text>
</a>
</g>
</g>
<!-- Node17&#45;&gt;Node19 -->
<g id="edge19" class="edge">
<title>Node17&#45;&gt;Node19</title>
<path fill="none" stroke="#63b8ff" d="M442.74,-499.44C464.98,-504.43 496.44,-511.49 523.53,-517.56"/>
<polygon fill="#63b8ff" stroke="#63b8ff" points="522.44,-520.9 532.97,-519.68 523.98,-514.07 522.44,-520.9"/>
</g>
<!-- Node20 -->
<g id="node20" class="node">
<title>Node20</title>
<g id="a_node20"><a xlink:href="transceiver_8h.html#a5fbd3c8613a4163425c94965704ce5f8" target="_top" xlink:title=" ">
<polygon fill="white" stroke="#666666" points="617,-445.5 543,-445.5 543,-426.5 617,-426.5 617,-445.5"/>
<text text-anchor="middle" x="580" y="-433.5" font-family="Helvetica,sans-Serif" font-size="10.00">FailedPacket</text>
</a>
</g>
</g>
<!-- Node17&#45;&gt;Node20 -->
<g id="edge20" class="edge">
<title>Node17&#45;&gt;Node20</title>
<path fill="none" stroke="#63b8ff" d="M442.74,-483.07C469.51,-473.82 509.66,-459.95 539.45,-449.66"/>
<polygon fill="#63b8ff" stroke="#63b8ff" points="540.57,-452.98 548.88,-446.4 538.29,-446.36 540.57,-452.98"/>
</g>
<!-- Node57 -->
<g id="node31" class="node">
<title>Node57</title>
<g id="a_node31"><a xlink:href="common_8h.html#a6e2d4126d864c50e7c23c988c2bfdd1a" target="_top" xlink:title=" ">
<polygon fill="white" stroke="#666666" points="1058,-502.5 1011,-502.5 1011,-483.5 1058,-483.5 1058,-502.5"/>
<text text-anchor="middle" x="1034.5" y="-490.5" font-family="Helvetica,sans-Serif" font-size="10.00">Radio1</text>
</a>
</g>
</g>
<!-- Node17&#45;&gt;Node57 -->
<g id="edge38" class="edge">
<title>Node17&#45;&gt;Node57</title>
<path fill="none" stroke="#63b8ff" d="M442.93,-496.79C453.3,-499.49 464.32,-504.1 472,-512 511.13,-552.21 467.97,-593.69 508,-633 579.96,-703.66 874.2,-756.58 957,-699 1018.73,-656.08 1030.75,-557.15 1033.02,-513.89"/>
<polygon fill="#63b8ff" stroke="#63b8ff" points="1036.51,-514.23 1033.39,-504.11 1029.51,-513.97 1036.51,-514.23"/>
</g>
<!-- Node60 -->
<g id="node33" class="node">
<title>Node60</title>
<g id="a_node33"><a xlink:href="transceiver_8h.html#a07c27b4e208198453c70876517926052" target="_top" xlink:title=" ">
<polygon fill="white" stroke="#666666" points="932.5,-689.5 870.5,-689.5 870.5,-670.5 932.5,-670.5 932.5,-689.5"/>
<text text-anchor="middle" x="901.5" y="-677.5" font-family="Helvetica,sans-Serif" font-size="10.00">FlushFifos</text>
</a>
</g>
</g>
<!-- Node17&#45;&gt;Node60 -->
<g id="edge36" class="edge">
<title>Node17&#45;&gt;Node60</title>
<path fill="none" stroke="#63b8ff" d="M442.87,-497.64C452.99,-500.44 463.86,-504.9 472,-512 499.56,-536.04 481.4,-560.9 508,-586 571.03,-645.48 603.86,-640.23 688,-661 746.02,-675.32 815.3,-679.14 858.62,-680"/>
<polygon fill="#63b8ff" stroke="#63b8ff" points="858.55,-683.5 868.6,-680.15 858.65,-676.5 858.55,-683.5"/>
</g>
<!-- Node61 -->
<g id="node34" class="node">
<title>Node61</title>
<g id="a_node34"><a xlink:href="transceiver_8h.html#a188ad446d11b2db284476c093de58b2f" target="_top" xlink:title=" ">
<polygon fill="white" stroke="#666666" points="639.5,-333.5 520.5,-333.5 520.5,-314.5 639.5,-314.5 639.5,-333.5"/>
<text text-anchor="middle" x="580" y="-321.5" font-family="Helvetica,sans-Serif" font-size="10.00">SendExtraParamemters</text>
</a>
</g>
</g>
<!-- Node17&#45;&gt;Node61 -->
<g id="edge39" class="edge">
<title>Node17&#45;&gt;Node61</title>
<path fill="none" stroke="#63b8ff" d="M417.25,-483.16C426.66,-456.27 456.58,-380.98 508,-343 510.04,-341.49 512.2,-340.1 514.43,-338.82"/>
<polygon fill="#63b8ff" stroke="#63b8ff" points="515.82,-342.04 523.31,-334.55 512.78,-335.73 515.82,-342.04"/>
</g>
<!-- Node64 -->
<g id="node37" class="node">
<title>Node64</title>
<g id="a_node37"><a xlink:href="BuddyWireless_8h.html#a41c327908c92572d0d3eebbb19160d86" target="_top" xlink:title=" ">
<polygon fill="white" stroke="#666666" points="631,-370.5 529,-370.5 529,-351.5 631,-351.5 631,-370.5"/>
<text text-anchor="middle" x="580" y="-358.5" font-family="Helvetica,sans-Serif" font-size="10.00">SendSpecialPacket</text>
</a>
</g>
</g>
<!-- Node17&#45;&gt;Node64 -->
<g id="edge42" class="edge">
<title>Node17&#45;&gt;Node64</title>
<path fill="none" stroke="#63b8ff" d="M426.4,-483.08C454.49,-460.61 523.22,-405.63 558.04,-377.77"/>
<polygon fill="#63b8ff" stroke="#63b8ff" points="560.1,-380.6 565.72,-371.62 555.73,-375.14 560.1,-380.6"/>
</g>
<!-- Node69 -->
<g id="node42" class="node">
<title>Node69</title>
<g id="a_node42"><a xlink:href="BuddyPPM_8h.html#a784a1eca0361b3991bca899167cc1cdb" target="_top" xlink:title=" ">
<polygon fill="white" stroke="#666666" points="617.5,-296.5 542.5,-296.5 542.5,-277.5 617.5,-277.5 617.5,-296.5"/>
<text text-anchor="middle" x="580" y="-284.5" font-family="Helvetica,sans-Serif" font-size="10.00">SendViaPPM</text>
</a>
</g>
</g>
<!-- Node17&#45;&gt;Node69 -->
<g id="edge52" class="edge">
<title>Node17&#45;&gt;Node69</title>
<path fill="none" stroke="#63b8ff" d="M415.85,-483.43C422.35,-452.44 447.17,-353.96 508,-305 514.75,-299.57 522.94,-295.75 531.32,-293.08"/>
<polygon fill="#63b8ff" stroke="#63b8ff" points="532.1,-296.49 540.88,-290.56 530.32,-289.72 532.1,-296.49"/>
</g>
<!-- Node70 -->
<g id="node43" class="node">
<title>Node70</title>
<g id="a_node43"><a xlink:href="transceiver_8h.html#a1c11bb6771548de7d96723045b922620" target="_top" xlink:title=" ">
<polygon fill="white" stroke="#666666" points="628,-502.5 532,-502.5 532,-483.5 628,-483.5 628,-502.5"/>
<text text-anchor="middle" x="580" y="-490.5" font-family="Helvetica,sans-Serif" font-size="10.00">SuccessfulPacket</text>
</a>
</g>
</g>
<!-- Node17&#45;&gt;Node70 -->
<g id="edge53" class="edge">
<title>Node17&#45;&gt;Node70</title>
<path fill="none" stroke="#63b8ff" d="M442.74,-493C464.05,-493 493.85,-493 520.14,-493"/>
<polygon fill="#63b8ff" stroke="#63b8ff" points="520.03,-496.5 530.03,-493 520.03,-489.5 520.03,-496.5"/>
</g>
<!-- Node21 -->
<g id="node21" class="node">
<title>Node21</title>
<g id="a_node21"><a xlink:href="transceiver_8h.html#afc091b5942e21a03f6dc8635d5e519ba" target="_top" xlink:title=" ">
<polygon fill="white" stroke="#666666" points="810,-464.5 688,-464.5 688,-445.5 810,-445.5 810,-464.5"/>
<text text-anchor="middle" x="749" y="-452.5" font-family="Helvetica,sans-Serif" font-size="10.00">RecordsPacketSuccess</text>
</a>
</g>
</g>
<!-- Node20&#45;&gt;Node21 -->
<g id="edge21" class="edge">
<title>Node20&#45;&gt;Node21</title>
<path fill="none" stroke="#63b8ff" d="M617.24,-440.12C634.56,-442.09 655.93,-444.52 676.33,-446.85"/>
<polygon fill="#63b8ff" stroke="#63b8ff" points="675.7,-450.3 686.03,-447.95 676.49,-443.34 675.7,-450.3"/>
</g>
<!-- Node22 -->
<g id="node22" class="node">
<title>Node22</title>
<g id="a_node22"><a xlink:href="TransmitterCode_2src_2main_8cpp.html#a7d34cec6e8edc20c8b50424e15dcc7c7" target="_top" xlink:title=" ">
<polygon fill="white" stroke="#666666" points="780.5,-162.5 717.5,-162.5 717.5,-143.5 780.5,-143.5 780.5,-162.5"/>
<text text-anchor="middle" x="749" y="-150.5" font-family="Helvetica,sans-Serif" font-size="10.00">RedLedOn</text>
</a>
</g>
</g>
<!-- Node20&#45;&gt;Node22 -->
<g id="edge22" class="edge">
<title>Node20&#45;&gt;Node22</title>
<path fill="none" stroke="#63b8ff" d="M600.27,-426.12C616.76,-416.61 639.72,-400.64 652,-380 700.2,-299 625.5,-241.55 688,-171 692.99,-165.37 699.67,-161.46 706.75,-158.77"/>
<polygon fill="#63b8ff" stroke="#63b8ff" points="707.25,-162.27 715.83,-156.05 705.25,-155.56 707.25,-162.27"/>
</g>
<!-- Node53 -->
<g id="node29" class="node">
<title>Node53</title>
<g id="a_node29"><a xlink:href="transceiver_8h.html#ad0236abcfc887ad708d9504c4ab2a7c3" target="_top" xlink:title=" ">
<polygon fill="white" stroke="#666666" points="793,-427.5 705,-427.5 705,-408.5 793,-408.5 793,-427.5"/>
<text text-anchor="middle" x="749" y="-415.5" font-family="Helvetica,sans-Serif" font-size="10.00">TryToReconnect</text>
</a>
</g>
</g>
<!-- Node20&#45;&gt;Node53 -->
<g id="edge32" class="edge">
<title>Node20&#45;&gt;Node53</title>
<path fill="none" stroke="#63b8ff" d="M617.24,-432.09C639.53,-429.69 668.53,-426.57 693.55,-423.87"/>
<polygon fill="#63b8ff" stroke="#63b8ff" points="693.66,-427.38 703.22,-422.83 692.91,-420.42 693.66,-427.38"/>
</g>
<!-- Node22&#45;&gt;Node2 -->
<g id="edge28" class="edge">
<title>Node22&#45;&gt;Node2</title>
<path fill="none" stroke="#63b8ff" d="M717.04,-154.45C637.68,-157.77 420.62,-164.37 241,-147 233.05,-146.23 224.7,-145.07 216.54,-143.74"/>
<polygon fill="#63b8ff" stroke="#63b8ff" points="217.16,-140.29 206.7,-142.03 215.96,-147.19 217.16,-140.29"/>
</g>
<!-- Node23 -->
<g id="node23" class="node">
<title>Node23</title>
<g id="a_node23"><a xlink:href="TransmitterCode_2src_2main_8cpp.html#afeaea883a32e6ebe461d419fab1b9f59" target="_top" xlink:title=" ">
<polygon fill="white" stroke="#666666" points="957,-162.5 846,-162.5 846,-143.5 957,-143.5 957,-162.5"/>
<text text-anchor="middle" x="901.5" y="-150.5" font-family="Helvetica,sans-Serif" font-size="10.00">ClearMostParameters</text>
</a>
</g>
</g>
<!-- Node22&#45;&gt;Node23 -->
<g id="edge23" class="edge">
<title>Node22&#45;&gt;Node23</title>
<path fill="none" stroke="#63b8ff" d="M780.82,-153C796.27,-153 815.62,-153 834.23,-153"/>
<polygon fill="#63b8ff" stroke="#63b8ff" points="834.16,-156.5 844.16,-153 834.16,-149.5 834.16,-156.5"/>
</g>
<!-- Node24 -->
<g id="node24" class="node">
<title>Node24</title>
<g id="a_node24"><a xlink:href="Utilities_8h.html#a549a702bb9b539c6b3a4f20cce65adcc" target="_top" xlink:title=" ">
<polygon fill="#fff0f0" stroke="red" points="950.5,-199.5 852.5,-199.5 852.5,-180.5 950.5,-180.5 950.5,-199.5"/>
<text text-anchor="middle" x="901.5" y="-187.5" font-family="Helvetica,sans-Serif" font-size="10.00">GetLEDBrightness</text>
</a>
</g>
</g>
<!-- Node22&#45;&gt;Node24 -->
<g id="edge24" class="edge">
<title>Node22&#45;&gt;Node24</title>
<path fill="none" stroke="#63b8ff" d="M780.82,-160.58C800.39,-165.39 826.2,-171.73 848.85,-177.3"/>
<polygon fill="#63b8ff" stroke="#63b8ff" points="847.99,-180.69 858.54,-179.68 849.66,-173.9 847.99,-180.69"/>
</g>
<!-- Node34 -->
<g id="node25" class="node">
<title>Node34</title>
<g id="a_node25"><a xlink:href="LogFiles_8h.html#a2d5ec5fd5ed62d5b7b071fabe2225405" target="_top" xlink:title=" ">
<polygon fill="#fff0f0" stroke="red" points="949.5,-125.5 853.5,-125.5 853.5,-106.5 949.5,-106.5 949.5,-125.5"/>
<text text-anchor="middle" x="901.5" y="-113.5" font-family="Helvetica,sans-Serif" font-size="10.00">LogDisConnection</text>
</a>
</g>
</g>
<!-- Node22&#45;&gt;Node34 -->
<g id="edge25" class="edge">
<title>Node22&#45;&gt;Node34</title>
<path fill="none" stroke="#63b8ff" d="M780.82,-145.42C800.39,-140.61 826.2,-134.27 848.85,-128.7"/>
<polygon fill="#63b8ff" stroke="#63b8ff" points="849.66,-132.1 858.54,-126.32 847.99,-125.31 849.66,-132.1"/>
</g>
<!-- Node50 -->
<g id="node26" class="node">
<title>Node50</title>
<g id="a_node26"><a xlink:href="Utilities_8h.html#aa490b4664b0a4498d53b30b82287d5df" target="_top" xlink:title=" ">
<polygon fill="#fff0f0" stroke="red" points="933,-236.5 870,-236.5 870,-217.5 933,-217.5 933,-236.5"/>
<text text-anchor="middle" x="901.5" y="-224.5" font-family="Helvetica,sans-Serif" font-size="10.00">PlaySound</text>
</a>
</g>
</g>
<!-- Node22&#45;&gt;Node50 -->
<g id="edge26" class="edge">
<title>Node22&#45;&gt;Node50</title>
<path fill="none" stroke="#63b8ff" d="M780.86,-159.05C790.63,-161.78 801.17,-165.64 810,-171 829.62,-182.9 826.65,-195.67 846,-208 850.04,-210.57 854.47,-212.85 859.01,-214.85"/>
<polygon fill="#63b8ff" stroke="#63b8ff" points="857.65,-218.08 868.24,-218.47 860.21,-211.56 857.65,-218.08"/>
</g>
<!-- Node22&#45;&gt;Node51 -->
<g id="edge29" class="edge">
<title>Node22&#45;&gt;Node51</title>
<path fill="none" stroke="#63b8ff" d="M780.86,-146.38C790.63,-143.47 801.17,-139.45 810,-134 829.53,-121.95 826.85,-109.64 846,-97 850.85,-93.8 856.25,-90.98 861.73,-88.53"/>
<polygon fill="#63b8ff" stroke="#63b8ff" points="862.85,-91.85 870.8,-84.85 860.22,-85.37 862.85,-91.85"/>
</g>
<!-- Node50&#45;&gt;Node2 -->
<g id="edge27" class="edge">
<title>Node50&#45;&gt;Node2</title>
<path fill="none" stroke="#63b8ff" d="M869.66,-227.16C812.65,-227.44 686.95,-228 581,-228 412,-228 412,-228 412,-228 325.05,-228 231.64,-176.26 188.66,-149.15"/>
<polygon fill="#63b8ff" stroke="#63b8ff" points="190.67,-146.28 180.36,-143.81 186.88,-152.16 190.67,-146.28"/>
</g>
<!-- Node51&#45;&gt;Node2 -->
<g id="edge31" class="edge">
<title>Node51&#45;&gt;Node2</title>
<path fill="none" stroke="#63b8ff" d="M872.29,-76C816.61,-76 688.61,-76 581,-76 412,-76 412,-76 412,-76 335.53,-76 314.36,-73.44 241,-95 223.14,-100.25 204.4,-109.49 189.94,-117.54"/>
<polygon fill="#63b8ff" stroke="#63b8ff" points="188.47,-114.35 181.55,-122.37 191.96,-120.41 188.47,-114.35"/>
</g>
<!-- Node51&#45;&gt;Node52 -->
<g id="edge30" class="edge">
<title>Node51&#45;&gt;Node52</title>
<path fill="none" stroke="#63b8ff" d="M930.93,-67.75C947.66,-62.9 969.2,-56.65 988.23,-51.13"/>
<polygon fill="#63b8ff" stroke="#63b8ff" points="989,-54.55 997.62,-48.41 987.05,-47.83 989,-54.55"/>
</g>
<!-- Node54 -->
<g id="node30" class="node">
<title>Node54</title>
<g id="a_node30"><a xlink:href="transceiver_8h.html#a52aa3e80bccf5e75346c93fdae63122d" target="_top" xlink:title=" ">
<polygon fill="#fff0f0" stroke="red" points="952,-540.5 851,-540.5 851,-521.5 952,-521.5 952,-540.5"/>
<text text-anchor="middle" x="901.5" y="-528.5" font-family="Helvetica,sans-Serif" font-size="10.00">HopToNextChannel</text>
</a>
</g>
</g>
<!-- Node53&#45;&gt;Node54 -->
<g id="edge33" class="edge">
<title>Node53&#45;&gt;Node54</title>
<path fill="none" stroke="#63b8ff" d="M790.91,-427.92C797.55,-430.38 804.15,-433.37 810,-437 814.41,-439.74 858.89,-486.74 883.81,-513.22"/>
<polygon fill="#63b8ff" stroke="#63b8ff" points="880.99,-515.33 890.39,-520.21 886.09,-510.53 880.99,-515.33"/>
</g>
<!-- Node58 -->
<g id="node32" class="node">
<title>Node58</title>
<g id="a_node32"><a xlink:href="transceiver_8h.html#ad0e30213b21808d00110752679788a8c" target="_top" xlink:title=" ">
<polygon fill="#fff0f0" stroke="red" points="938.5,-463.5 864.5,-463.5 864.5,-444.5 938.5,-444.5 938.5,-463.5"/>
<text text-anchor="middle" x="901.5" y="-451.5" font-family="Helvetica,sans-Serif" font-size="10.00">TryOtherPipe</text>
</a>
</g>
</g>
<!-- Node53&#45;&gt;Node58 -->
<g id="edge35" class="edge">
<title>Node53&#45;&gt;Node58</title>
<path fill="none" stroke="#63b8ff" d="M791.52,-427.93C810.67,-432.51 833.48,-437.97 853.28,-442.71"/>
<polygon fill="#63b8ff" stroke="#63b8ff" points="852.22,-446.05 862.76,-444.97 853.85,-439.24 852.22,-446.05"/>
</g>
<!-- Node54&#45;&gt;Node57 -->
<g id="edge34" class="edge">
<title>Node54&#45;&gt;Node57</title>
<path fill="none" stroke="#63b8ff" d="M936.92,-521.02C956.35,-515.38 980.52,-508.37 999.82,-502.77"/>
<polygon fill="#63b8ff" stroke="#63b8ff" points="1000.76,-506.14 1009.39,-499.99 998.81,-499.42 1000.76,-506.14"/>
</g>
<!-- Node60&#45;&gt;Node57 -->
<g id="edge37" class="edge">
<title>Node60&#45;&gt;Node57</title>
<path fill="none" stroke="#63b8ff" d="M932.84,-674.15C941.43,-671.32 950.26,-667.14 957,-661 1001.48,-620.43 1021.87,-548.94 1029.58,-513.75"/>
<polygon fill="#63b8ff" stroke="#63b8ff" points="1032.91,-514.91 1031.49,-504.41 1026.06,-513.51 1032.91,-514.91"/>
</g>
<!-- Node62 -->
<g id="node35" class="node">
<title>Node62</title>
<g id="a_node35"><a xlink:href="transceiver_8h.html#adac102739147db6397bbcbb371aec4fd" target="_top" xlink:title=" ">
<polygon fill="white" stroke="#666666" points="793.5,-275.5 704.5,-275.5 704.5,-256.5 793.5,-256.5 793.5,-275.5"/>
<text text-anchor="middle" x="749" y="-263.5" font-family="Helvetica,sans-Serif" font-size="10.00">LoadParameters</text>
</a>
</g>
</g>
<!-- Node61&#45;&gt;Node62 -->
<g id="edge40" class="edge">
<title>Node61&#45;&gt;Node62</title>
<path fill="none" stroke="#63b8ff" d="M621.83,-314.07C631.78,-311.38 642.34,-308.29 652,-305 668.41,-299.41 671.95,-296.55 688,-290 695.85,-286.79 704.3,-283.39 712.31,-280.18"/>
<polygon fill="#63b8ff" stroke="#63b8ff" points="713.47,-283.48 721.46,-276.52 710.87,-276.98 713.47,-283.48"/>
</g>
<!-- Node63 -->
<g id="node36" class="node">
<title>Node63</title>
<g id="a_node36"><a xlink:href="TransmitterCode_2src_2main_8cpp.html#a5aa4888b924a4f1d95e9cedc3004f2b6" target="_top" xlink:title=" ">
<polygon fill="white" stroke="#666666" points="943,-275.5 860,-275.5 860,-256.5 943,-256.5 943,-275.5"/>
<text text-anchor="middle" x="901.5" y="-263.5" font-family="Helvetica,sans-Serif" font-size="10.00">MakeTwobytes</text>
</a>
</g>
</g>
<!-- Node62&#45;&gt;Node63 -->
<g id="edge41" class="edge">
<title>Node62&#45;&gt;Node63</title>
<path fill="none" stroke="#63b8ff" d="M793.94,-266C810.95,-266 830.55,-266 848.28,-266"/>
<polygon fill="#63b8ff" stroke="#63b8ff" points="848.09,-269.5 858.09,-266 848.09,-262.5 848.09,-269.5"/>
</g>
<!-- Node64&#45;&gt;Node57 -->
<g id="edge51" class="edge">
<title>Node64&#45;&gt;Node57</title>
<path fill="none" stroke="#63b8ff" d="M626.95,-351.05C635.39,-348.75 644.05,-346.06 652,-343 668.89,-336.51 670.44,-328.35 688,-324 804.07,-295.25 857.25,-263.05 957,-329 1006.7,-361.86 1024.75,-436.03 1030.76,-472.28"/>
<polygon fill="#63b8ff" stroke="#63b8ff" points="1027.26,-472.52 1032.2,-481.89 1034.18,-471.48 1027.26,-472.52"/>
</g>
<!-- Node65 -->
<g id="node38" class="node">
<title>Node65</title>
<g id="a_node38"><a xlink:href="BuddyWireless_8h.html#ace84aff90c63bee9a876eda720fbf8bc" target="_top" xlink:title=" ">
<polygon fill="white" stroke="#666666" points="946.5,-426.5 856.5,-426.5 856.5,-407.5 946.5,-407.5 946.5,-426.5"/>
<text text-anchor="middle" x="901.5" y="-414.5" font-family="Helvetica,sans-Serif" font-size="10.00">ChangeTXTarget</text>
</a>
</g>
</g>
<!-- Node64&#45;&gt;Node65 -->
<g id="edge43" class="edge">
<title>Node64&#45;&gt;Node65</title>
<path fill="none" stroke="#63b8ff" d="M631.08,-369.28C677.5,-377.01 748.47,-388.98 810,-400 821.45,-402.05 833.7,-404.31 845.37,-406.49"/>
<polygon fill="#63b8ff" stroke="#63b8ff" points="844.38,-409.86 854.85,-408.27 845.67,-402.98 844.38,-409.86"/>
</g>
<!-- Node66 -->
<g id="node39" class="node">
<title>Node66</title>
<g id="a_node39"><a xlink:href="BuddyWireless_8h.html#af59c2527be7a67d6b09dd467f3123d55" target="_top" xlink:title=" ">
<polygon fill="white" stroke="#666666" points="784.5,-351.5 713.5,-351.5 713.5,-332.5 784.5,-332.5 784.5,-351.5"/>
<text text-anchor="middle" x="749" y="-339.5" font-family="Helvetica,sans-Serif" font-size="10.00">GetPupilAck</text>
</a>
</g>
</g>
<!-- Node64&#45;&gt;Node66 -->
<g id="edge45" class="edge">
<title>Node64&#45;&gt;Node66</title>
<path fill="none" stroke="#63b8ff" d="M631.11,-355.3C653.5,-352.75 679.73,-349.77 701.67,-347.27"/>
<polygon fill="#63b8ff" stroke="#63b8ff" points="701.99,-350.76 711.53,-346.15 701.2,-343.8 701.99,-350.76"/>
</g>
<!-- Node68 -->
<g id="node41" class="node">
<title>Node68</title>
<g id="a_node41"><a xlink:href="BuddyWireless_8h.html#a89fc05df708fec875356b62d21b2ce7b" target="_top" xlink:title=" ">
<polygon fill="white" stroke="#666666" points="787.5,-125.5 710.5,-125.5 710.5,-106.5 787.5,-106.5 787.5,-125.5"/>
<text text-anchor="middle" x="749" y="-113.5" font-family="Helvetica,sans-Serif" font-size="10.00">PupilDetected</text>
</a>
</g>
</g>
<!-- Node64&#45;&gt;Node68 -->
<g id="edge48" class="edge">
<title>Node64&#45;&gt;Node68</title>
<path fill="none" stroke="#63b8ff" d="M631.22,-356.02C639.05,-353.21 646.39,-349.07 652,-343 716.01,-273.81 625.5,-204.55 688,-134 691.25,-130.34 695.2,-127.41 699.52,-125.06"/>
<polygon fill="#63b8ff" stroke="#63b8ff" points="700.86,-128.3 708.7,-121.18 698.13,-121.85 700.86,-128.3"/>
</g>
<!-- Node65&#45;&gt;Node57 -->
<g id="edge44" class="edge">
<title>Node65&#45;&gt;Node57</title>
<path fill="none" stroke="#63b8ff" d="M936.33,-426.99C943.33,-429.55 950.54,-432.57 957,-436 977.88,-447.08 999.26,-463.53 1014.09,-475.91"/>
<polygon fill="#63b8ff" stroke="#63b8ff" points="1011.79,-478.55 1021.67,-482.38 1016.33,-473.22 1011.79,-478.55"/>
</g>
<!-- Node66&#45;&gt;Node57 -->
<g id="edge47" class="edge">
<title>Node66&#45;&gt;Node57</title>
<path fill="none" stroke="#63b8ff" d="M784.96,-336.28C828.79,-331.02 904.54,-328.43 957,-362 997.16,-387.7 1018.78,-442.58 1028,-472.5"/>
<polygon fill="#63b8ff" stroke="#63b8ff" points="1024.56,-473.22 1030.7,-481.85 1031.29,-471.27 1024.56,-473.22"/>
</g>
<!-- Node67 -->
<g id="node40" class="node">
<title>Node67</title>
<g id="a_node40"><a xlink:href="transceiver_8h.html#a6feccc8c0583de3235616d42076f1371" target="_top" xlink:title=" ">
<polygon fill="white" stroke="#666666" points="937,-389.5 866,-389.5 866,-370.5 937,-370.5 937,-389.5"/>
<text text-anchor="middle" x="901.5" y="-377.5" font-family="Helvetica,sans-Serif" font-size="10.00">Decompress</text>
</a>
</g>
</g>
<!-- Node66&#45;&gt;Node67 -->
<g id="edge46" class="edge">
<title>Node66&#45;&gt;Node67</title>
<path fill="none" stroke="#63b8ff" d="M784.91,-350.81C805.63,-356.05 832.15,-362.74 854.56,-368.4"/>
<polygon fill="#63b8ff" stroke="#63b8ff" points="853.5,-371.74 864.06,-370.8 855.22,-364.96 853.5,-371.74"/>
</g>
<!-- Node68&#45;&gt;Node2 -->
<g id="edge49" class="edge">
<title>Node68&#45;&gt;Node2</title>
<path fill="none" stroke="#63b8ff" d="M710.05,-117.8C635.12,-121.28 462.89,-128.83 318,-132 284.25,-132.74 246.31,-132.99 216.6,-133.06"/>
<polygon fill="#63b8ff" stroke="#63b8ff" points="216.73,-129.56 206.74,-133.07 216.75,-136.56 216.73,-129.56"/>
</g>
<!-- Node68&#45;&gt;Node51 -->
<g id="edge50" class="edge">
<title>Node68&#45;&gt;Node51</title>
<path fill="none" stroke="#63b8ff" d="M787.59,-106.01C810.08,-100.03 838.62,-92.45 861.38,-86.4"/>
<polygon fill="#63b8ff" stroke="#63b8ff" points="862.14,-89.82 870.9,-83.87 860.34,-83.05 862.14,-89.82"/>
</g>
<!-- Node70&#45;&gt;Node21 -->
<g id="edge64" class="edge">
<title>Node70&#45;&gt;Node21</title>
<path fill="none" stroke="#63b8ff" d="M624.88,-483.02C645.79,-478.26 671.03,-472.51 693.19,-467.47"/>
<polygon fill="#63b8ff" stroke="#63b8ff" points="693.68,-470.95 702.65,-465.32 692.12,-464.13 693.68,-470.95"/>
</g>
<!-- Node70&#45;&gt;Node57 -->
<g id="edge63" class="edge">
<title>Node70&#45;&gt;Node57</title>
<path fill="none" stroke="#63b8ff" d="M628.14,-493C719.65,-493 919.35,-493 999.36,-493"/>
<polygon fill="#63b8ff" stroke="#63b8ff" points="999.19,-496.5 1009.19,-493 999.19,-489.5 999.19,-496.5"/>
</g>
<!-- Node71 -->
<g id="node44" class="node">
<title>Node71</title>
<g id="a_node44"><a xlink:href="transceiver_8h.html#a953f1d5046e183549ed95b08f6d675e3" target="_top" xlink:title=" ">
<polygon fill="white" stroke="#666666" points="798,-651.5 700,-651.5 700,-632.5 798,-632.5 798,-651.5"/>
<text text-anchor="middle" x="749" y="-639.5" font-family="Helvetica,sans-Serif" font-size="10.00">CheckGapsLength</text>
</a>
</g>
</g>
<!-- Node70&#45;&gt;Node71 -->
<g id="edge54" class="edge">
<title>Node70&#45;&gt;Node71</title>
<path fill="none" stroke="#63b8ff" d="M628.36,-498.64C637.05,-501.51 645.44,-505.75 652,-512 689.88,-548.05 650.67,-587.39 688,-624 688.75,-624.73 689.52,-625.44 690.32,-626.11"/>
<polygon fill="#63b8ff" stroke="#63b8ff" points="688.2,-628.9 698.47,-631.47 692.04,-623.05 688.2,-628.9"/>
</g>
<!-- Node73 -->
<g id="node46" class="node">
<title>Node73</title>
<g id="a_node46"><a xlink:href="TransmitterCode_2src_2main_8cpp.html#a62e53eb9359c32b666e3386d62c57037" target="_top" xlink:title=" ">
<polygon fill="#fff0f0" stroke="red" points="785,-199.5 713,-199.5 713,-180.5 785,-180.5 785,-199.5"/>
<text text-anchor="middle" x="749" y="-187.5" font-family="Helvetica,sans-Serif" font-size="10.00">GreenLedOn</text>
</a>
</g>
</g>
<!-- Node70&#45;&gt;Node73 -->
<g id="edge56" class="edge">
<title>Node70&#45;&gt;Node73</title>
<path fill="none" stroke="#63b8ff" d="M612.96,-483.13C627.04,-477.18 642.51,-468.15 652,-455 706.92,-378.94 643.75,-329.73 688,-247 696.62,-230.89 711.47,-216.73 724.25,-206.54"/>
<polygon fill="#63b8ff" stroke="#63b8ff" points="726,-209.61 731.86,-200.78 721.77,-204.03 726,-209.61"/>
</g>
<!-- Node124 -->
<g id="node47" class="node">
<title>Node124</title>
<g id="a_node47"><a xlink:href="transceiver_8h.html#a694f4f5a0147f4dc29b0bc1a8951547d" target="_top" xlink:title=" ">
<polygon fill="#fff0f0" stroke="red" points="796,-540.5 702,-540.5 702,-521.5 796,-521.5 796,-540.5"/>
<text text-anchor="middle" x="749" y="-528.5" font-family="Helvetica,sans-Serif" font-size="10.00">ParseAckPayload</text>
</a>
</g>
</g>
<!-- Node70&#45;&gt;Node124 -->
<g id="edge59" class="edge">
<title>Node70&#45;&gt;Node124</title>
<path fill="none" stroke="#63b8ff" d="M624.88,-502.98C645.79,-507.74 671.03,-513.49 693.19,-518.53"/>
<polygon fill="#63b8ff" stroke="#63b8ff" points="692.12,-521.87 702.65,-520.68 693.68,-515.05 692.12,-521.87"/>
</g>
<!-- Node248 -->
<g id="node48" class="node">
<title>Node248</title>
<g id="a_node48"><a xlink:href="transceiver_8h.html#a04937e814dba3f5e07cb34bb13130ff3" target="_top" xlink:title=" ">
<polygon fill="white" stroke="#666666" points="807.5,-577.5 690.5,-577.5 690.5,-558.5 807.5,-558.5 807.5,-577.5"/>
<text text-anchor="middle" x="749" y="-565.5" font-family="Helvetica,sans-Serif" font-size="10.00">ParseShortAckPayload</text>
</a>
</g>
</g>
<!-- Node70&#45;&gt;Node248 -->
<g id="edge61" class="edge">
<title>Node70&#45;&gt;Node248</title>
<path fill="none" stroke="#63b8ff" d="M628.32,-501.74C636.54,-504.34 644.76,-507.69 652,-512 671.99,-523.9 668.19,-537.8 688,-550 690.03,-551.25 692.14,-552.41 694.32,-553.5"/>
<polygon fill="#63b8ff" stroke="#63b8ff" points="692.9,-556.7 703.46,-557.45 695.67,-550.27 692.9,-556.7"/>
</g>
<!-- Node121 -->
<g id="node49" class="node">
<title>Node121</title>
<g id="a_node49"><a xlink:href="Utilities_8h.html#a793b7bcd77531c95fe72ed4356d421c8" target="_top" xlink:title=" ">
<polygon fill="white" stroke="#666666" points="804,-614.5 694,-614.5 694,-595.5 804,-595.5 804,-614.5"/>
<text text-anchor="middle" x="749" y="-602.5" font-family="Helvetica,sans-Serif" font-size="10.00">StartInactvityTimeout</text>
</a>
</g>
</g>
<!-- Node70&#45;&gt;Node121 -->
<g id="edge65" class="edge">
<title>Node70&#45;&gt;Node121</title>
<path fill="none" stroke="#63b8ff" d="M628.46,-499.61C636.94,-502.41 645.22,-506.38 652,-512 680.46,-535.6 659.9,-562.97 688,-587 688.95,-587.81 689.94,-588.59 690.95,-589.33"/>
<polygon fill="#63b8ff" stroke="#63b8ff" points="689.09,-592.29 699.49,-594.33 692.63,-586.25 689.09,-592.29"/>
</g>
<!-- Node72 -->
<g id="node45" class="node">
<title>Node72</title>
<g id="a_node45"><a xlink:href="LogFiles_8h.html#a1fadc7cdd854f8b3628b622da5417d8b" target="_top" xlink:title=" ">
<polygon fill="#fff0f0" stroke="red" points="936.5,-651.5 866.5,-651.5 866.5,-632.5 936.5,-632.5 936.5,-651.5"/>
<text text-anchor="middle" x="901.5" y="-639.5" font-family="Helvetica,sans-Serif" font-size="10.00">LogThisGap</text>
</a>
</g>
</g>
<!-- Node71&#45;&gt;Node72 -->
<g id="edge55" class="edge">
<title>Node71&#45;&gt;Node72</title>
<path fill="none" stroke="#63b8ff" d="M798.45,-642C816.63,-642 837.22,-642 855.12,-642"/>
<polygon fill="#63b8ff" stroke="#63b8ff" points="854.93,-645.5 864.93,-642 854.93,-638.5 854.93,-645.5"/>
</g>
<!-- Node73&#45;&gt;Node24 -->
<g id="edge57" class="edge">
<title>Node73&#45;&gt;Node24</title>
<path fill="none" stroke="#63b8ff" d="M785.29,-190C801.76,-190 821.84,-190 840.59,-190"/>
<polygon fill="#63b8ff" stroke="#63b8ff" points="840.53,-193.5 850.53,-190 840.53,-186.5 840.53,-193.5"/>
</g>
<!-- Node73&#45;&gt;Node50 -->
<g id="edge58" class="edge">
<title>Node73&#45;&gt;Node50</title>
<path fill="none" stroke="#63b8ff" d="M785.29,-198.67C807.14,-204.05 835.32,-210.98 858.35,-216.64"/>
<polygon fill="#63b8ff" stroke="#63b8ff" points="857.5,-220.03 868.05,-219.02 859.17,-213.24 857.5,-220.03"/>
</g>
<!-- Node124&#45;&gt;Node54 -->
<g id="edge60" class="edge">
<title>Node124&#45;&gt;Node54</title>
<path fill="none" stroke="#63b8ff" d="M796.38,-531C809.94,-531 824.98,-531 839.31,-531"/>
<polygon fill="#63b8ff" stroke="#63b8ff" points="839.1,-534.5 849.1,-531 839.1,-527.5 839.1,-534.5"/>
</g>
<!-- Node248&#45;&gt;Node54 -->
<g id="edge62" class="edge">
<title>Node248&#45;&gt;Node54</title>
<path fill="none" stroke="#63b8ff" d="M790.33,-558.08C808.38,-553.65 829.88,-548.36 849.07,-543.64"/>
<polygon fill="#63b8ff" stroke="#63b8ff" points="849.71,-547.09 858.59,-541.3 848.04,-540.29 849.71,-547.09"/>
</g>
</g>
</svg>
