<?xml version="1.0" encoding="UTF-8" standalone="no"?>
<!DOCTYPE svg PUBLIC "-//W3C//DTD SVG 1.1//EN"
 "http://www.w3.org/Graphics/SVG/1.1/DTD/svg11.dtd">
<!-- Generated by graphviz version 9.0.0 (20230911.1827)
 -->
<!-- Title: MPU6050::setWakeFrequency Pages: 1 -->
<svg width="542pt" height="64pt"
 viewBox="0.00 0.00 541.50 64.25" xmlns="http://www.w3.org/2000/svg" xmlns:xlink="http://www.w3.org/1999/xlink">
<g id="graph0" class="graph" transform="scale(1 1) rotate(0) translate(4 60.25)">
<title>MPU6050::setWakeFrequency</title>
<!-- Node1 -->
<g id="Node000001" class="node">
<title>Node1</title>
<g id="a_Node000001"><a xlink:title=" ">
<polygon fill="#999999" stroke="#666666" points="147.25,-37.25 0,-37.25 0,-18 147.25,-18 147.25,-37.25"/>
<text text-anchor="middle" x="73.62" y="-23.75" font-family="Helvetica,sans-Serif" font-size="10.00">MPU6050::setWakeFrequency</text>
</a>
</g>
</g>
<!-- Node2 -->
<g id="Node000002" class="node">
<title>Node2</title>
<g id="a_Node000002"><a xlink:href="classI2Cdev.html#a913371251b6a41520c080115650e1b59" target="_top" xlink:title=" ">
<polygon fill="white" stroke="#666666" points="272.75,-37.25 183.25,-37.25 183.25,-18 272.75,-18 272.75,-37.25"/>
<text text-anchor="middle" x="228" y="-23.75" font-family="Helvetica,sans-Serif" font-size="10.00">I2Cdev::writeBits</text>
</a>
</g>
</g>
<!-- Node1&#45;&gt;Node2 -->
<g id="edge1_Node000001_Node000002" class="edge">
<title>Node1&#45;&gt;Node2</title>
<g id="a_edge1_Node000001_Node000002"><a xlink:title=" ">
<path fill="none" stroke="#63b8ff" d="M147.69,-27.62C155.7,-27.62 163.76,-27.62 171.51,-27.62"/>
<polygon fill="#63b8ff" stroke="#63b8ff" points="171.48,-31.13 181.48,-27.63 171.48,-24.13 171.48,-31.13"/>
</a>
</g>
</g>
<!-- Node3 -->
<g id="Node000003" class="node">
<title>Node3</title>
<g id="a_Node000003"><a xlink:href="classI2Cdev.html#ad3fb41ce124a29f93749d99611c75c33" target="_top" xlink:title=" ">
<polygon fill="white" stroke="#666666" points="399.38,-56.25 309.88,-56.25 309.88,-37 399.38,-37 399.38,-56.25"/>
<text text-anchor="middle" x="354.62" y="-42.75" font-family="Helvetica,sans-Serif" font-size="10.00">I2Cdev::readByte</text>
</a>
</g>
</g>
<!-- Node2&#45;&gt;Node3 -->
<g id="edge2_Node000002_Node000003" class="edge">
<title>Node2&#45;&gt;Node3</title>
<g id="a_edge2_Node000002_Node000003"><a xlink:title=" ">
<path fill="none" stroke="#63b8ff" d="M272.94,-34.32C281.22,-35.59 289.98,-36.92 298.55,-38.23"/>
<polygon fill="#63b8ff" stroke="#63b8ff" points="297.75,-41.65 308.17,-39.69 298.81,-34.73 297.75,-41.65"/>
</a>
</g>
</g>
<!-- Node5 -->
<g id="Node000005" class="node">
<title>Node5</title>
<g id="a_Node000005"><a xlink:href="classI2Cdev.html#aeb297637ef985cd562da465ba61b7042" target="_top" xlink:title=" ">
<polygon fill="white" stroke="#666666" points="400.5,-19.25 308.75,-19.25 308.75,0 400.5,0 400.5,-19.25"/>
<text text-anchor="middle" x="354.62" y="-5.75" font-family="Helvetica,sans-Serif" font-size="10.00">I2Cdev::writeByte</text>
</a>
</g>
</g>
<!-- Node2&#45;&gt;Node5 -->
<g id="edge4_Node000002_Node000005" class="edge">
<title>Node2&#45;&gt;Node5</title>
<g id="a_edge4_Node000002_Node000005"><a xlink:title=" ">
<path fill="none" stroke="#63b8ff" d="M272.94,-21.28C280.75,-20.15 288.98,-18.96 297.09,-17.79"/>
<polygon fill="#63b8ff" stroke="#63b8ff" points="297.5,-21.27 306.9,-16.37 296.5,-14.34 297.5,-21.27"/>
</a>
</g>
</g>
<!-- Node4 -->
<g id="Node000004" class="node">
<title>Node4</title>
<g id="a_Node000004"><a xlink:href="classI2Cdev.html#aca9c503da5cffd6ac6f8eff9b195c5f4" target="_top" xlink:title=" ">
<polygon fill="white" stroke="#666666" points="532.38,-56.25 437.62,-56.25 437.62,-37 532.38,-37 532.38,-56.25"/>
<text text-anchor="middle" x="485" y="-42.75" font-family="Helvetica,sans-Serif" font-size="10.00">I2Cdev::readBytes</text>
</a>
</g>
</g>
<!-- Node3&#45;&gt;Node4 -->
<g id="edge3_Node000003_Node000004" class="edge">
<title>Node3&#45;&gt;Node4</title>
<g id="a_edge3_Node000003_Node000004"><a xlink:title=" ">
<path fill="none" stroke="#63b8ff" d="M399.8,-46.62C408.28,-46.62 417.27,-46.62 426.09,-46.62"/>
<polygon fill="#63b8ff" stroke="#63b8ff" points="426.04,-50.13 436.04,-46.63 426.04,-43.13 426.04,-50.13"/>
</a>
</g>
</g>
<!-- Node6 -->
<g id="Node000006" class="node">
<title>Node6</title>
<g id="a_Node000006"><a xlink:href="classI2Cdev.html#aa4e39cac6c0eac5112f9132084bcc93e" target="_top" xlink:title=" ">
<polygon fill="white" stroke="#666666" points="533.5,-19.25 436.5,-19.25 436.5,0 533.5,0 533.5,-19.25"/>
<text text-anchor="middle" x="485" y="-5.75" font-family="Helvetica,sans-Serif" font-size="10.00">I2Cdev::writeBytes</text>
</a>
</g>
</g>
<!-- Node5&#45;&gt;Node6 -->
<g id="edge5_Node000005_Node000006" class="edge">
<title>Node5&#45;&gt;Node6</title>
<g id="a_edge5_Node000005_Node000006"><a xlink:title=" ">
<path fill="none" stroke="#63b8ff" d="M400.89,-9.62C408.64,-9.62 416.79,-9.62 424.84,-9.62"/>
<polygon fill="#63b8ff" stroke="#63b8ff" points="424.59,-13.13 434.59,-9.63 424.59,-6.13 424.59,-13.13"/>
</a>
</g>
</g>
</g>
</svg>
