<?xml version="1.0" encoding="UTF-8" standalone="no"?>
<!DOCTYPE svg PUBLIC "-//W3C//DTD SVG 1.1//EN"
 "http://www.w3.org/Graphics/SVG/1.1/DTD/svg11.dtd">
<!-- Generated by graphviz version 9.0.0 (20230911.1827)
 -->
<!-- Title: I2Cdev::readWord Pages: 1 -->
<svg width="235pt" height="138pt"
 viewBox="0.00 0.00 235.00 138.25" xmlns="http://www.w3.org/2000/svg" xmlns:xlink="http://www.w3.org/1999/xlink">
<g id="graph0" class="graph" transform="scale(1 1) rotate(0) translate(4 134.25)">
<title>I2Cdev::readWord</title>
<!-- Node1 -->
<g id="Node000001" class="node">
<title>Node1</title>
<g id="a_Node000001"><a xlink:title=" ">
<polygon fill="#999999" stroke="#666666" points="227,-74.25 134.5,-74.25 134.5,-55 227,-55 227,-74.25"/>
<text text-anchor="middle" x="180.75" y="-60.75" font-family="Helvetica,sans-Serif" font-size="10.00">I2Cdev::readWord</text>
</a>
</g>
</g>
<!-- Node2 -->
<g id="Node000002" class="node">
<title>Node2</title>
<g id="a_Node000002"><a xlink:href="classI2Cdev.html#a1f417ba3e5ce99832e07c31522c97f87" target="_top" xlink:title=" ">
<polygon fill="white" stroke="#666666" points="97.38,-130.25 1.13,-130.25 1.13,-111 97.38,-111 97.38,-130.25"/>
<text text-anchor="middle" x="49.25" y="-116.75" font-family="Helvetica,sans-Serif" font-size="10.00">I2Cdev::readBitsW</text>
</a>
</g>
</g>
<!-- Node1&#45;&gt;Node2 -->
<g id="edge1_Node000001_Node000002" class="edge">
<title>Node1&#45;&gt;Node2</title>
<g id="a_edge1_Node000001_Node000002"><a xlink:title=" ">
<path fill="none" stroke="#63b8ff" d="M149.26,-79.6C134.12,-86.84 115.49,-95.5 98.5,-102.62 92.07,-105.32 85.08,-108.05 78.46,-110.53"/>
<polygon fill="#63b8ff" stroke="#63b8ff" points="150.74,-82.77 158.22,-75.27 147.69,-76.46 150.74,-82.77"/>
</a>
</g>
</g>
<!-- Node3 -->
<g id="Node000003" class="node">
<title>Node3</title>
<g id="a_Node000003"><a xlink:href="classI2Cdev.html#aaaa3b9ef9500a7d69ccc3d0ccaae33c4" target="_top" xlink:title=" ">
<polygon fill="white" stroke="#666666" points="94.75,-93.25 3.75,-93.25 3.75,-74 94.75,-74 94.75,-93.25"/>
<text text-anchor="middle" x="49.25" y="-79.75" font-family="Helvetica,sans-Serif" font-size="10.00">I2Cdev::readBitW</text>
</a>
</g>
</g>
<!-- Node1&#45;&gt;Node3 -->
<g id="edge2_Node000001_Node000003" class="edge">
<title>Node1&#45;&gt;Node3</title>
<g id="a_edge2_Node000001_Node000003"><a xlink:title=" ">
<path fill="none" stroke="#63b8ff" d="M122.89,-72.97C113.57,-74.33 104.03,-75.73 95.06,-77.05"/>
<polygon fill="#63b8ff" stroke="#63b8ff" points="123.21,-76.46 132.6,-71.54 122.19,-69.53 123.21,-76.46"/>
</a>
</g>
</g>
<!-- Node4 -->
<g id="Node000004" class="node">
<title>Node4</title>
<g id="a_Node000004"><a xlink:href="classI2Cdev.html#a8f8652a1328224cce867eed665a45c4d" target="_top" xlink:title=" ">
<polygon fill="white" stroke="#666666" points="98.5,-56.25 0,-56.25 0,-37 98.5,-37 98.5,-56.25"/>
<text text-anchor="middle" x="49.25" y="-42.75" font-family="Helvetica,sans-Serif" font-size="10.00">I2Cdev::writeBitsW</text>
</a>
</g>
</g>
<!-- Node1&#45;&gt;Node4 -->
<g id="edge3_Node000001_Node000004" class="edge">
<title>Node1&#45;&gt;Node4</title>
<g id="a_edge3_Node000001_Node000004"><a xlink:title=" ">
<path fill="none" stroke="#63b8ff" d="M122.82,-56.71C114.73,-55.59 106.47,-54.44 98.57,-53.34"/>
<polygon fill="#63b8ff" stroke="#63b8ff" points="122.21,-60.16 132.59,-58.07 123.17,-53.23 122.21,-60.16"/>
</a>
</g>
</g>
<!-- Node5 -->
<g id="Node000005" class="node">
<title>Node5</title>
<g id="a_Node000005"><a xlink:href="classI2Cdev.html#a1b5fbedfadec5d429c81ee84d27e658d" target="_top" xlink:title=" ">
<polygon fill="white" stroke="#666666" points="95.88,-19.25 2.63,-19.25 2.63,0 95.88,0 95.88,-19.25"/>
<text text-anchor="middle" x="49.25" y="-5.75" font-family="Helvetica,sans-Serif" font-size="10.00">I2Cdev::writeBitW</text>
</a>
</g>
</g>
<!-- Node1&#45;&gt;Node5 -->
<g id="edge4_Node000001_Node000005" class="edge">
<title>Node1&#45;&gt;Node5</title>
<g id="a_edge4_Node000001_Node000005"><a xlink:title=" ">
<path fill="none" stroke="#63b8ff" d="M148.6,-49.82C133.57,-42.83 115.21,-34.54 98.5,-27.62 91.97,-24.93 84.88,-22.18 78.19,-19.67"/>
<polygon fill="#63b8ff" stroke="#63b8ff" points="146.97,-52.92 157.51,-53.99 149.94,-46.58 146.97,-52.92"/>
</a>
</g>
</g>
</g>
</svg>
