<?xml version="1.0" encoding="UTF-8" standalone="no"?>
<!DOCTYPE svg PUBLIC "-//W3C//DTD SVG 1.1//EN"
 "http://www.w3.org/Graphics/SVG/1.1/DTD/svg11.dtd">
<!-- Generated by graphviz version 7.0.2 (20221119.0110)
 -->
<!-- Title: MPU6050::setAccelFIFOEnabled Pages: 1 -->
<svg width="551pt" height="64pt"
 viewBox="0.00 0.00 551.00 64.00" xmlns="http://www.w3.org/2000/svg" xmlns:xlink="http://www.w3.org/1999/xlink">
<g id="graph0" class="graph" transform="scale(1 1) rotate(0) translate(4 60)">
<title>MPU6050::setAccelFIFOEnabled</title>
<!-- Node1 -->
<g id="node1" class="node">
<title>Node1</title>
<g id="a_node1"><a xlink:title=" ">
<polygon fill="#999999" stroke="#666666" points="160,-37 0,-37 0,-18 160,-18 160,-37"/>
<text text-anchor="middle" x="80" y="-25" font-family="Helvetica,sans-Serif" font-size="10.00">MPU6050::setAccelFIFOEnabled</text>
</a>
</g>
</g>
<!-- Node2 -->
<g id="node2" class="node">
<title>Node2</title>
<g id="a_node2"><a xlink:href="classI2Cdev.html#aa68890af87de5471d32e583ebbd91acb" target="_top" xlink:title=" ">
<polygon fill="white" stroke="#666666" points="281,-37 196,-37 196,-18 281,-18 281,-37"/>
<text text-anchor="middle" x="238.5" y="-25" font-family="Helvetica,sans-Serif" font-size="10.00">I2Cdev::writeBit</text>
</a>
</g>
</g>
<!-- Node1&#45;&gt;Node2 -->
<g id="edge1" class="edge">
<title>Node1&#45;&gt;Node2</title>
<path fill="none" stroke="#63b8ff" d="M160.17,-27.5C168.32,-27.5 176.47,-27.5 184.24,-27.5"/>
<polygon fill="#63b8ff" stroke="#63b8ff" points="184.2,-31 194.2,-27.5 184.2,-24 184.2,-31"/>
</g>
<!-- Node3 -->
<g id="node3" class="node">
<title>Node3</title>
<g id="a_node3"><a xlink:href="classI2Cdev.html#ad3fb41ce124a29f93749d99611c75c33" target="_top" xlink:title=" ">
<polygon fill="white" stroke="#666666" points="408,-56 318,-56 318,-37 408,-37 408,-56"/>
<text text-anchor="middle" x="363" y="-44" font-family="Helvetica,sans-Serif" font-size="10.00">I2Cdev::readByte</text>
</a>
</g>
</g>
<!-- Node2&#45;&gt;Node3 -->
<g id="edge2" class="edge">
<title>Node2&#45;&gt;Node3</title>
<path fill="none" stroke="#63b8ff" d="M281.31,-33.99C289.51,-35.26 298.22,-36.61 306.77,-37.93"/>
<polygon fill="#63b8ff" stroke="#63b8ff" points="305.95,-41.35 316.37,-39.42 307.02,-34.43 305.95,-41.35"/>
</g>
<!-- Node5 -->
<g id="node5" class="node">
<title>Node5</title>
<g id="a_node5"><a xlink:href="classI2Cdev.html#aeb297637ef985cd562da465ba61b7042" target="_top" xlink:title=" ">
<polygon fill="white" stroke="#666666" points="409,-19 317,-19 317,0 409,0 409,-19"/>
<text text-anchor="middle" x="363" y="-7" font-family="Helvetica,sans-Serif" font-size="10.00">I2Cdev::writeByte</text>
</a>
</g>
</g>
<!-- Node2&#45;&gt;Node5 -->
<g id="edge4" class="edge">
<title>Node2&#45;&gt;Node5</title>
<path fill="none" stroke="#63b8ff" d="M281.31,-21.36C289.04,-20.22 297.23,-19.02 305.31,-17.83"/>
<polygon fill="#63b8ff" stroke="#63b8ff" points="305.72,-21.31 315.1,-16.39 304.7,-14.38 305.72,-21.31"/>
</g>
<!-- Node4 -->
<g id="node4" class="node">
<title>Node4</title>
<g id="a_node4"><a xlink:href="classI2Cdev.html#aca9c503da5cffd6ac6f8eff9b195c5f4" target="_top" xlink:title=" ">
<polygon fill="white" stroke="#666666" points="541.5,-56 446.5,-56 446.5,-37 541.5,-37 541.5,-56"/>
<text text-anchor="middle" x="494" y="-44" font-family="Helvetica,sans-Serif" font-size="10.00">I2Cdev::readBytes</text>
</a>
</g>
</g>
<!-- Node3&#45;&gt;Node4 -->
<g id="edge3" class="edge">
<title>Node3&#45;&gt;Node4</title>
<path fill="none" stroke="#63b8ff" d="M408.39,-46.5C416.91,-46.5 425.94,-46.5 434.81,-46.5"/>
<polygon fill="#63b8ff" stroke="#63b8ff" points="434.81,-50 444.81,-46.5 434.81,-43 434.81,-50"/>
</g>
<!-- Node6 -->
<g id="node6" class="node">
<title>Node6</title>
<g id="a_node6"><a xlink:href="classI2Cdev.html#aa4e39cac6c0eac5112f9132084bcc93e" target="_top" xlink:title=" ">
<polygon fill="white" stroke="#666666" points="543,-19 445,-19 445,0 543,0 543,-19"/>
<text text-anchor="middle" x="494" y="-7" font-family="Helvetica,sans-Serif" font-size="10.00">I2Cdev::writeBytes</text>
</a>
</g>
</g>
<!-- Node5&#45;&gt;Node6 -->
<g id="edge5" class="edge">
<title>Node5&#45;&gt;Node6</title>
<path fill="none" stroke="#63b8ff" d="M409.48,-9.5C417.27,-9.5 425.47,-9.5 433.56,-9.5"/>
<polygon fill="#63b8ff" stroke="#63b8ff" points="433.36,-13 443.36,-9.5 433.36,-6 433.36,-13"/>
</g>
</g>
</svg>
