<?xml version="1.0" encoding="UTF-8" standalone="no"?>
<!DOCTYPE svg PUBLIC "-//W3C//DTD SVG 1.1//EN"
 "http://www.w3.org/Graphics/SVG/1.1/DTD/svg11.dtd">
<!-- Generated by graphviz version 9.0.0 (20230911.1827)
 -->
<!-- Title: MPU6050::setIntFIFOBufferOverflowEnabled Pages: 1 -->
<svg width="526pt" height="64pt"
 viewBox="0.00 0.00 525.75 64.25" xmlns="http://www.w3.org/2000/svg" xmlns:xlink="http://www.w3.org/1999/xlink">
<g id="graph0" class="graph" transform="scale(1 1) rotate(0) translate(4 60.25)">
<title>MPU6050::setIntFIFOBufferOverflowEnabled</title>
<!-- Node1 -->
<g id="Node000001" class="node">
<title>Node1</title>
<g id="a_Node000001"><a xlink:title=" ">
<polygon fill="#999999" stroke="#666666" points="136.75,-42.88 0,-42.88 0,-12.37 136.75,-12.37 136.75,-42.88"/>
<text text-anchor="start" x="8" y="-29.38" font-family="Helvetica,sans-Serif" font-size="10.00">MPU6050::setIntFIFOBuffer</text>
<text text-anchor="middle" x="68.38" y="-18.12" font-family="Helvetica,sans-Serif" font-size="10.00">OverflowEnabled</text>
</a>
</g>
</g>
<!-- Node2 -->
<g id="Node000002" class="node">
<title>Node2</title>
<g id="a_Node000002"><a xlink:href="classI2Cdev.html#aa68890af87de5471d32e583ebbd91acb" target="_top" xlink:title=" ">
<polygon fill="white" stroke="#666666" points="257,-37.25 172.75,-37.25 172.75,-18 257,-18 257,-37.25"/>
<text text-anchor="middle" x="214.88" y="-23.75" font-family="Helvetica,sans-Serif" font-size="10.00">I2Cdev::writeBit</text>
</a>
</g>
</g>
<!-- Node1&#45;&gt;Node2 -->
<g id="edge1_Node000001_Node000002" class="edge">
<title>Node1&#45;&gt;Node2</title>
<g id="a_edge1_Node000001_Node000002"><a xlink:title=" ">
<path fill="none" stroke="#63b8ff" d="M136.97,-27.62C144.97,-27.62 153.05,-27.62 160.8,-27.62"/>
<polygon fill="#63b8ff" stroke="#63b8ff" points="160.77,-31.13 170.77,-27.63 160.77,-24.13 160.77,-31.13"/>
</a>
</g>
</g>
<!-- Node3 -->
<g id="Node000003" class="node">
<title>Node3</title>
<g id="a_Node000003"><a xlink:href="classI2Cdev.html#ad3fb41ce124a29f93749d99611c75c33" target="_top" xlink:title=" ">
<polygon fill="white" stroke="#666666" points="383.62,-56.25 294.12,-56.25 294.12,-37 383.62,-37 383.62,-56.25"/>
<text text-anchor="middle" x="338.88" y="-42.75" font-family="Helvetica,sans-Serif" font-size="10.00">I2Cdev::readByte</text>
</a>
</g>
</g>
<!-- Node2&#45;&gt;Node3 -->
<g id="edge2_Node000002_Node000003" class="edge">
<title>Node2&#45;&gt;Node3</title>
<g id="a_edge2_Node000002_Node000003"><a xlink:title=" ">
<path fill="none" stroke="#63b8ff" d="M257.18,-34.06C265.35,-35.33 274.05,-36.68 282.6,-38.02"/>
<polygon fill="#63b8ff" stroke="#63b8ff" points="281.78,-41.43 292.19,-39.51 282.85,-34.51 281.78,-41.43"/>
</a>
</g>
</g>
<!-- Node5 -->
<g id="Node000005" class="node">
<title>Node5</title>
<g id="a_Node000005"><a xlink:href="classI2Cdev.html#aeb297637ef985cd562da465ba61b7042" target="_top" xlink:title=" ">
<polygon fill="white" stroke="#666666" points="384.75,-19.25 293,-19.25 293,0 384.75,0 384.75,-19.25"/>
<text text-anchor="middle" x="338.88" y="-5.75" font-family="Helvetica,sans-Serif" font-size="10.00">I2Cdev::writeByte</text>
</a>
</g>
</g>
<!-- Node2&#45;&gt;Node5 -->
<g id="edge4_Node000002_Node000005" class="edge">
<title>Node2&#45;&gt;Node5</title>
<g id="a_edge4_Node000002_Node000005"><a xlink:title=" ">
<path fill="none" stroke="#63b8ff" d="M257.18,-21.53C265.07,-20.37 273.45,-19.13 281.71,-17.91"/>
<polygon fill="#63b8ff" stroke="#63b8ff" points="281.97,-21.41 291.35,-16.49 280.95,-14.49 281.97,-21.41"/>
</a>
</g>
</g>
<!-- Node4 -->
<g id="Node000004" class="node">
<title>Node4</title>
<g id="a_Node000004"><a xlink:href="classI2Cdev.html#aca9c503da5cffd6ac6f8eff9b195c5f4" target="_top" xlink:title=" ">
<polygon fill="white" stroke="#666666" points="516.62,-56.25 421.88,-56.25 421.88,-37 516.62,-37 516.62,-56.25"/>
<text text-anchor="middle" x="469.25" y="-42.75" font-family="Helvetica,sans-Serif" font-size="10.00">I2Cdev::readBytes</text>
</a>
</g>
</g>
<!-- Node3&#45;&gt;Node4 -->
<g id="edge3_Node000003_Node000004" class="edge">
<title>Node3&#45;&gt;Node4</title>
<g id="a_edge3_Node000003_Node000004"><a xlink:title=" ">
<path fill="none" stroke="#63b8ff" d="M384.05,-46.62C392.53,-46.62 401.52,-46.62 410.34,-46.62"/>
<polygon fill="#63b8ff" stroke="#63b8ff" points="410.29,-50.13 420.29,-46.63 410.29,-43.13 410.29,-50.13"/>
</a>
</g>
</g>
<!-- Node6 -->
<g id="Node000006" class="node">
<title>Node6</title>
<g id="a_Node000006"><a xlink:href="classI2Cdev.html#aa4e39cac6c0eac5112f9132084bcc93e" target="_top" xlink:title=" ">
<polygon fill="white" stroke="#666666" points="517.75,-19.25 420.75,-19.25 420.75,0 517.75,0 517.75,-19.25"/>
<text text-anchor="middle" x="469.25" y="-5.75" font-family="Helvetica,sans-Serif" font-size="10.00">I2Cdev::writeBytes</text>
</a>
</g>
</g>
<!-- Node5&#45;&gt;Node6 -->
<g id="edge5_Node000005_Node000006" class="edge">
<title>Node5&#45;&gt;Node6</title>
<g id="a_edge5_Node000005_Node000006"><a xlink:title=" ">
<path fill="none" stroke="#63b8ff" d="M385.14,-9.62C392.89,-9.62 401.04,-9.62 409.09,-9.62"/>
<polygon fill="#63b8ff" stroke="#63b8ff" points="408.84,-13.13 418.84,-9.63 408.84,-6.13 408.84,-13.13"/>
</a>
</g>
</g>
</g>
</svg>
