<?xml version="1.0" encoding="UTF-8" standalone="no"?>
<!DOCTYPE svg PUBLIC "-//W3C//DTD SVG 1.1//EN"
 "http://www.w3.org/Graphics/SVG/1.1/DTD/svg11.dtd">
<!-- Generated by graphviz version 9.0.0 (20230911.1827)
 -->
<!-- Title: MPU6050::getFSyncInterruptEnabled Pages: 1 -->
<svg width="524pt" height="39pt"
 viewBox="0.00 0.00 523.50 38.50" xmlns="http://www.w3.org/2000/svg" xmlns:xlink="http://www.w3.org/1999/xlink">
<g id="graph0" class="graph" transform="scale(1 1) rotate(0) translate(4 34.5)">
<title>MPU6050::getFSyncInterruptEnabled</title>
<!-- Node1 -->
<g id="Node000001" class="node">
<title>Node1</title>
<g id="a_Node000001"><a xlink:title=" ">
<polygon fill="#999999" stroke="#666666" points="141.25,-30.5 0,-30.5 0,0 141.25,0 141.25,-30.5"/>
<text text-anchor="start" x="8" y="-17" font-family="Helvetica,sans-Serif" font-size="10.00">MPU6050::getFSyncInterrupt</text>
<text text-anchor="middle" x="70.62" y="-5.75" font-family="Helvetica,sans-Serif" font-size="10.00">Enabled</text>
</a>
</g>
</g>
<!-- Node2 -->
<g id="Node000002" class="node">
<title>Node2</title>
<g id="a_Node000002"><a xlink:href="classI2Cdev.html#abe6d8ea07027d362419de86188981559" target="_top" xlink:title=" ">
<polygon fill="white" stroke="#666666" points="259.25,-24.88 177.25,-24.88 177.25,-5.63 259.25,-5.63 259.25,-24.88"/>
<text text-anchor="middle" x="218.25" y="-11.38" font-family="Helvetica,sans-Serif" font-size="10.00">I2Cdev::readBit</text>
</a>
</g>
</g>
<!-- Node1&#45;&gt;Node2 -->
<g id="edge1_Node000001_Node000002" class="edge">
<title>Node1&#45;&gt;Node2</title>
<g id="a_edge1_Node000001_Node000002"><a xlink:title=" ">
<path fill="none" stroke="#63b8ff" d="M141.45,-15.25C149.5,-15.25 157.59,-15.25 165.34,-15.25"/>
<polygon fill="#63b8ff" stroke="#63b8ff" points="165.28,-18.75 175.28,-15.25 165.28,-11.75 165.28,-18.75"/>
</a>
</g>
</g>
<!-- Node3 -->
<g id="Node000003" class="node">
<title>Node3</title>
<g id="a_Node000003"><a xlink:href="classI2Cdev.html#ad3fb41ce124a29f93749d99611c75c33" target="_top" xlink:title=" ">
<polygon fill="white" stroke="#666666" points="384.75,-24.88 295.25,-24.88 295.25,-5.63 384.75,-5.63 384.75,-24.88"/>
<text text-anchor="middle" x="340" y="-11.38" font-family="Helvetica,sans-Serif" font-size="10.00">I2Cdev::readByte</text>
</a>
</g>
</g>
<!-- Node2&#45;&gt;Node3 -->
<g id="edge2_Node000002_Node000003" class="edge">
<title>Node2&#45;&gt;Node3</title>
<g id="a_edge2_Node000002_Node000003"><a xlink:title=" ">
<path fill="none" stroke="#63b8ff" d="M259.46,-15.25C267.22,-15.25 275.47,-15.25 283.61,-15.25"/>
<polygon fill="#63b8ff" stroke="#63b8ff" points="283.48,-18.75 293.48,-15.25 283.48,-11.75 283.48,-18.75"/>
</a>
</g>
</g>
<!-- Node4 -->
<g id="Node000004" class="node">
<title>Node4</title>
<g id="a_Node000004"><a xlink:href="classI2Cdev.html#aca9c503da5cffd6ac6f8eff9b195c5f4" target="_top" xlink:title=" ">
<polygon fill="white" stroke="#666666" points="515.5,-24.88 420.75,-24.88 420.75,-5.63 515.5,-5.63 515.5,-24.88"/>
<text text-anchor="middle" x="468.12" y="-11.38" font-family="Helvetica,sans-Serif" font-size="10.00">I2Cdev::readBytes</text>
</a>
</g>
</g>
<!-- Node3&#45;&gt;Node4 -->
<g id="edge3_Node000003_Node000004" class="edge">
<title>Node3&#45;&gt;Node4</title>
<g id="a_edge3_Node000003_Node000004"><a xlink:title=" ">
<path fill="none" stroke="#63b8ff" d="M385.11,-15.25C392.75,-15.25 400.79,-15.25 408.74,-15.25"/>
<polygon fill="#63b8ff" stroke="#63b8ff" points="408.74,-18.75 418.74,-15.25 408.74,-11.75 408.74,-18.75"/>
</a>
</g>
</g>
</g>
</svg>
