<?xml version="1.0" encoding="UTF-8" standalone="no"?>
<!DOCTYPE svg PUBLIC "-//W3C//DTD SVG 1.1//EN"
 "http://www.w3.org/Graphics/SVG/1.1/DTD/svg11.dtd">
<!-- Generated by graphviz version 7.0.2 (20221119.0110)
 -->
<!-- Title: MPU6050::setMotionDetectionThreshold Pages: 1 -->
<svg width="419pt" height="38pt"
 viewBox="0.00 0.00 419.00 38.00" xmlns="http://www.w3.org/2000/svg" xmlns:xlink="http://www.w3.org/1999/xlink">
<g id="graph0" class="graph" transform="scale(1 1) rotate(0) translate(4 34)">
<title>MPU6050::setMotionDetectionThreshold</title>
<!-- Node1 -->
<g id="node1" class="node">
<title>Node1</title>
<g id="a_node1"><a xlink:title=" ">
<polygon fill="#999999" stroke="#666666" points="149,-30 0,-30 0,0 149,0 149,-30"/>
<text text-anchor="start" x="8" y="-18" font-family="Helvetica,sans-Serif" font-size="10.00">MPU6050::setMotionDetection</text>
<text text-anchor="middle" x="74.5" y="-7" font-family="Helvetica,sans-Serif" font-size="10.00">Threshold</text>
</a>
</g>
</g>
<!-- Node2 -->
<g id="node2" class="node">
<title>Node2</title>
<g id="a_node2"><a xlink:href="classI2Cdev.html#aeb297637ef985cd562da465ba61b7042" target="_top" xlink:title=" ">
<polygon fill="white" stroke="#666666" points="277,-24.5 185,-24.5 185,-5.5 277,-5.5 277,-24.5"/>
<text text-anchor="middle" x="231" y="-12.5" font-family="Helvetica,sans-Serif" font-size="10.00">I2Cdev::writeByte</text>
</a>
</g>
</g>
<!-- Node1&#45;&gt;Node2 -->
<g id="edge1" class="edge">
<title>Node1&#45;&gt;Node2</title>
<path fill="none" stroke="#63b8ff" d="M149.13,-15C157.28,-15 165.48,-15 173.37,-15"/>
<polygon fill="#63b8ff" stroke="#63b8ff" points="173.15,-18.5 183.15,-15 173.15,-11.5 173.15,-18.5"/>
</g>
<!-- Node3 -->
<g id="node3" class="node">
<title>Node3</title>
<g id="a_node3"><a xlink:href="classI2Cdev.html#aa4e39cac6c0eac5112f9132084bcc93e" target="_top" xlink:title=" ">
<polygon fill="white" stroke="#666666" points="411,-24.5 313,-24.5 313,-5.5 411,-5.5 411,-24.5"/>
<text text-anchor="middle" x="362" y="-12.5" font-family="Helvetica,sans-Serif" font-size="10.00">I2Cdev::writeBytes</text>
</a>
</g>
</g>
<!-- Node2&#45;&gt;Node3 -->
<g id="edge2" class="edge">
<title>Node2&#45;&gt;Node3</title>
<path fill="none" stroke="#63b8ff" d="M277.48,-15C285.27,-15 293.47,-15 301.56,-15"/>
<polygon fill="#63b8ff" stroke="#63b8ff" points="301.36,-18.5 311.36,-15 301.36,-11.5 301.36,-18.5"/>
</g>
</g>
</svg>
