<?xml version="1.0" encoding="UTF-8" standalone="no"?>
<!DOCTYPE svg PUBLIC "-//W3C//DTD SVG 1.1//EN"
 "http://www.w3.org/Graphics/SVG/1.1/DTD/svg11.dtd">
<!-- Generated by graphviz version 9.0.0 (20230911.1827)
 -->
<!-- Title: MPU6050::getAccelYSelfTestFactoryTrim Pages: 1 -->
<svg width="410pt" height="39pt"
 viewBox="0.00 0.00 410.00 38.50" xmlns="http://www.w3.org/2000/svg" xmlns:xlink="http://www.w3.org/1999/xlink">
<g id="graph0" class="graph" transform="scale(1 1) rotate(0) translate(4 34.5)">
<title>MPU6050::getAccelYSelfTestFactoryTrim</title>
<!-- Node1 -->
<g id="Node000001" class="node">
<title>Node1</title>
<g id="a_Node000001"><a xlink:title=" ">
<polygon fill="#999999" stroke="#666666" points="145.75,-30.5 0,-30.5 0,0 145.75,0 145.75,-30.5"/>
<text text-anchor="start" x="8" y="-17" font-family="Helvetica,sans-Serif" font-size="10.00">MPU6050::getAccelYSelfTest</text>
<text text-anchor="middle" x="72.88" y="-5.75" font-family="Helvetica,sans-Serif" font-size="10.00">FactoryTrim</text>
</a>
</g>
</g>
<!-- Node2 -->
<g id="Node000002" class="node">
<title>Node2</title>
<g id="a_Node000002"><a xlink:href="classI2Cdev.html#ad3fb41ce124a29f93749d99611c75c33" target="_top" xlink:title=" ">
<polygon fill="white" stroke="#666666" points="271.25,-24.88 181.75,-24.88 181.75,-5.63 271.25,-5.63 271.25,-24.88"/>
<text text-anchor="middle" x="226.5" y="-11.38" font-family="Helvetica,sans-Serif" font-size="10.00">I2Cdev::readByte</text>
</a>
</g>
</g>
<!-- Node1&#45;&gt;Node2 -->
<g id="edge1_Node000001_Node000002" class="edge">
<title>Node1&#45;&gt;Node2</title>
<g id="a_edge1_Node000001_Node000002"><a xlink:title=" ">
<path fill="none" stroke="#63b8ff" d="M146.13,-15.25C154.14,-15.25 162.19,-15.25 169.94,-15.25"/>
<polygon fill="#63b8ff" stroke="#63b8ff" points="169.91,-18.75 179.91,-15.25 169.91,-11.75 169.91,-18.75"/>
</a>
</g>
</g>
<!-- Node3 -->
<g id="Node000003" class="node">
<title>Node3</title>
<g id="a_Node000003"><a xlink:href="classI2Cdev.html#aca9c503da5cffd6ac6f8eff9b195c5f4" target="_top" xlink:title=" ">
<polygon fill="white" stroke="#666666" points="402,-24.88 307.25,-24.88 307.25,-5.63 402,-5.63 402,-24.88"/>
<text text-anchor="middle" x="354.62" y="-11.38" font-family="Helvetica,sans-Serif" font-size="10.00">I2Cdev::readBytes</text>
</a>
</g>
</g>
<!-- Node2&#45;&gt;Node3 -->
<g id="edge2_Node000002_Node000003" class="edge">
<title>Node2&#45;&gt;Node3</title>
<g id="a_edge2_Node000002_Node000003"><a xlink:title=" ">
<path fill="none" stroke="#63b8ff" d="M271.61,-15.25C279.25,-15.25 287.29,-15.25 295.24,-15.25"/>
<polygon fill="#63b8ff" stroke="#63b8ff" points="295.24,-18.75 305.24,-15.25 295.24,-11.75 295.24,-18.75"/>
</a>
</g>
</g>
</g>
</svg>
