<?xml version="1.0" encoding="UTF-8" standalone="no"?>
<!DOCTYPE svg PUBLIC "-//W3C//DTD SVG 1.1//EN"
 "http://www.w3.org/Graphics/SVG/1.1/DTD/svg11.dtd">
<!-- Generated by graphviz version 9.0.0 (20230911.1827)
 -->
<!-- Title: MPU6050::getIntFreefallEnabled Pages: 1 -->
<svg width="538pt" height="27pt"
 viewBox="0.00 0.00 537.75 27.25" xmlns="http://www.w3.org/2000/svg" xmlns:xlink="http://www.w3.org/1999/xlink">
<g id="graph0" class="graph" transform="scale(1 1) rotate(0) translate(4 23.25)">
<title>MPU6050::getIntFreefallEnabled</title>
<!-- Node1 -->
<g id="Node000001" class="node">
<title>Node1</title>
<g id="a_Node000001"><a xlink:title=" ">
<polygon fill="#999999" stroke="#666666" points="155.5,-19.25 0,-19.25 0,0 155.5,0 155.5,-19.25"/>
<text text-anchor="middle" x="77.75" y="-5.75" font-family="Helvetica,sans-Serif" font-size="10.00">MPU6050::getIntFreefallEnabled</text>
</a>
</g>
</g>
<!-- Node2 -->
<g id="Node000002" class="node">
<title>Node2</title>
<g id="a_Node000002"><a xlink:href="classI2Cdev.html#abe6d8ea07027d362419de86188981559" target="_top" xlink:title=" ">
<polygon fill="white" stroke="#666666" points="273.5,-19.25 191.5,-19.25 191.5,0 273.5,0 273.5,-19.25"/>
<text text-anchor="middle" x="232.5" y="-5.75" font-family="Helvetica,sans-Serif" font-size="10.00">I2Cdev::readBit</text>
</a>
</g>
</g>
<!-- Node1&#45;&gt;Node2 -->
<g id="edge1_Node000001_Node000002" class="edge">
<title>Node1&#45;&gt;Node2</title>
<g id="a_edge1_Node000001_Node000002"><a xlink:title=" ">
<path fill="none" stroke="#63b8ff" d="M155.57,-9.62C163.76,-9.62 171.94,-9.62 179.74,-9.62"/>
<polygon fill="#63b8ff" stroke="#63b8ff" points="179.72,-13.13 189.72,-9.63 179.72,-6.13 179.72,-13.13"/>
</a>
</g>
</g>
<!-- Node3 -->
<g id="Node000003" class="node">
<title>Node3</title>
<g id="a_Node000003"><a xlink:href="classI2Cdev.html#ad3fb41ce124a29f93749d99611c75c33" target="_top" xlink:title=" ">
<polygon fill="white" stroke="#666666" points="399,-19.25 309.5,-19.25 309.5,0 399,0 399,-19.25"/>
<text text-anchor="middle" x="354.25" y="-5.75" font-family="Helvetica,sans-Serif" font-size="10.00">I2Cdev::readByte</text>
</a>
</g>
</g>
<!-- Node2&#45;&gt;Node3 -->
<g id="edge2_Node000002_Node000003" class="edge">
<title>Node2&#45;&gt;Node3</title>
<g id="a_edge2_Node000002_Node000003"><a xlink:title=" ">
<path fill="none" stroke="#63b8ff" d="M273.71,-9.62C281.47,-9.62 289.72,-9.62 297.86,-9.62"/>
<polygon fill="#63b8ff" stroke="#63b8ff" points="297.73,-13.13 307.73,-9.63 297.73,-6.13 297.73,-13.13"/>
</a>
</g>
</g>
<!-- Node4 -->
<g id="Node000004" class="node">
<title>Node4</title>
<g id="a_Node000004"><a xlink:href="classI2Cdev.html#aca9c503da5cffd6ac6f8eff9b195c5f4" target="_top" xlink:title=" ">
<polygon fill="white" stroke="#666666" points="529.75,-19.25 435,-19.25 435,0 529.75,0 529.75,-19.25"/>
<text text-anchor="middle" x="482.38" y="-5.75" font-family="Helvetica,sans-Serif" font-size="10.00">I2Cdev::readBytes</text>
</a>
</g>
</g>
<!-- Node3&#45;&gt;Node4 -->
<g id="edge3_Node000003_Node000004" class="edge">
<title>Node3&#45;&gt;Node4</title>
<g id="a_edge3_Node000003_Node000004"><a xlink:title=" ">
<path fill="none" stroke="#63b8ff" d="M399.36,-9.62C407,-9.62 415.04,-9.62 422.99,-9.62"/>
<polygon fill="#63b8ff" stroke="#63b8ff" points="422.99,-13.13 432.99,-9.63 422.99,-6.13 422.99,-13.13"/>
</a>
</g>
</g>
</g>
</svg>
