<?xml version="1.0" encoding="UTF-8" standalone="no"?>
<!DOCTYPE svg PUBLIC "-//W3C//DTD SVG 1.1//EN"
 "http://www.w3.org/Graphics/SVG/1.1/DTD/svg11.dtd">
<!-- Generated by graphviz version 7.0.5 (20221223.1930)
 -->
<!-- Title: MySbus Pages: 1 -->
<svg width="1686pt" height="543pt"
 viewBox="0.00 0.00 1686.00 542.50" xmlns="http://www.w3.org/2000/svg" xmlns:xlink="http://www.w3.org/1999/xlink">
<g id="graph0" class="graph" transform="scale(1 1) rotate(0) translate(4 538.5)">
<title>MySbus</title>
<!-- Node1 -->
<g id="node1" class="node">
<title>Node1</title>
<g id="a_node1"><a xlink:title=" ">
<polygon fill="#999999" stroke="#666666" points="1678,-57 1626,-57 1626,-38 1678,-38 1678,-57"/>
<text text-anchor="middle" x="1652" y="-45" font-family="Helvetica,sans-Serif" font-size="10.00">MySbus</text>
</a>
</g>
</g>
<!-- Node2 -->
<g id="node2" class="node">
<title>Node2</title>
<g id="a_node2"><a xlink:href="ReceiverCode_2src_2main_8cpp.html#a0cbfd712ab3bd8f654bc19400fd704bd" target="_top" xlink:title=" ">
<polygon fill="white" stroke="#666666" points="1590,-39 1514,-39 1514,-20 1590,-20 1590,-39"/>
<text text-anchor="middle" x="1552" y="-27" font-family="Helvetica,sans-Serif" font-size="10.00">AttachServos</text>
</a>
</g>
</g>
<!-- Node1&#45;&gt;Node2 -->
<g id="edge1" class="edge">
<title>Node1&#45;&gt;Node2</title>
<path fill="none" stroke="#63b8ff" d="M1614.36,-40.77C1606.46,-39.32 1598.1,-37.78 1590.18,-36.33"/>
<polygon fill="#63b8ff" stroke="#63b8ff" points="1613.55,-44.18 1624.02,-42.54 1614.82,-37.3 1613.55,-44.18"/>
</g>
<!-- Node8 -->
<g id="node8" class="node">
<title>Node8</title>
<g id="a_node8"><a xlink:href="ReceiverCode_2src_2main_8cpp.html#a6f2443a0666140cf4d8b7352bb3b793c" target="_top" xlink:title=" ">
<polygon fill="white" stroke="#666666" points="1587.5,-76 1516.5,-76 1516.5,-57 1587.5,-57 1587.5,-76"/>
<text text-anchor="middle" x="1552" y="-64" font-family="Helvetica,sans-Serif" font-size="10.00">MoveServos</text>
</a>
</g>
</g>
<!-- Node1&#45;&gt;Node8 -->
<g id="edge7" class="edge">
<title>Node1&#45;&gt;Node8</title>
<path fill="none" stroke="#63b8ff" d="M1614.22,-54.63C1605.62,-56.3 1596.48,-58.07 1587.96,-59.72"/>
<polygon fill="#63b8ff" stroke="#63b8ff" points="1614.87,-58.07 1624.02,-52.73 1613.54,-51.2 1614.87,-58.07"/>
</g>
<!-- Node3 -->
<g id="node3" class="node">
<title>Node3</title>
<g id="a_node3"><a xlink:href="ReceiverCode_2src_2main_8cpp.html#aa0c6905579a33aef28d737d43676cbbd" target="_top" xlink:title=" ">
<polygon fill="white" stroke="#666666" points="1333.5,-19 1271.5,-19 1271.5,0 1333.5,0 1333.5,-19"/>
<text text-anchor="middle" x="1302.5" y="-7" font-family="Helvetica,sans-Serif" font-size="10.00">BindModel</text>
</a>
</g>
</g>
<!-- Node2&#45;&gt;Node3 -->
<g id="edge2" class="edge">
<title>Node2&#45;&gt;Node3</title>
<path fill="none" stroke="#63b8ff" d="M1502.48,-25.58C1452.38,-21.53 1375.75,-15.34 1333.71,-11.94"/>
<polygon fill="#63b8ff" stroke="#63b8ff" points="1501.92,-29.05 1512.17,-26.36 1502.48,-22.07 1501.92,-29.05"/>
</g>
<!-- Node4 -->
<g id="node4" class="node">
<title>Node4</title>
<g id="a_node4"><a xlink:href="radio_8h.html#ad8b2470258da4e397b34d67ffce9ebaf" target="_top" xlink:title=" ">
<polygon fill="white" stroke="#666666" points="1179,-57 1107,-57 1107,-38 1179,-38 1179,-57"/>
<text text-anchor="middle" x="1143" y="-45" font-family="Helvetica,sans-Serif" font-size="10.00">GetNewPipe</text>
</a>
</g>
</g>
<!-- Node3&#45;&gt;Node4 -->
<g id="edge3" class="edge">
<title>Node3&#45;&gt;Node4</title>
<path fill="none" stroke="#63b8ff" d="M1260.09,-19.49C1234.94,-25.56 1203.17,-33.22 1179.22,-39"/>
<polygon fill="#63b8ff" stroke="#63b8ff" points="1260.76,-22.93 1269.66,-17.18 1259.12,-16.12 1260.76,-22.93"/>
</g>
<!-- Node6 -->
<g id="node6" class="node">
<title>Node6</title>
<g id="a_node6"><a xlink:href="ReceiverCode_2src_2main_8cpp.html#a5b90f51dfaa1795437ab024e8ab778d5" target="_top" xlink:title=" ">
<polygon fill="white" stroke="#666666" points="1020.5,-22 942.5,-22 942.5,-3 1020.5,-3 1020.5,-22"/>
<text text-anchor="middle" x="981.5" y="-10" font-family="Helvetica,sans-Serif" font-size="10.00">ReadBindPlug</text>
</a>
</g>
</g>
<!-- Node3&#45;&gt;Node6 -->
<g id="edge5" class="edge">
<title>Node3&#45;&gt;Node6</title>
<path fill="none" stroke="#63b8ff" d="M1259.87,-9.89C1197.64,-10.48 1081.23,-11.57 1020.92,-12.14"/>
<polygon fill="#63b8ff" stroke="#63b8ff" points="1259.72,-13.39 1269.69,-9.8 1259.66,-6.39 1259.72,-13.39"/>
</g>
<!-- Node5 -->
<g id="node5" class="node">
<title>Node5</title>
<g id="a_node5"><a xlink:href="ReceiverCode_2src_2main_8cpp.html#afe461d27b9c48d5921c00d521181f12f" target="_top" xlink:title=" ">
<polygon fill="white" stroke="#666666" points="999,-94 964,-94 964,-75 999,-75 999,-94"/>
<text text-anchor="middle" x="981.5" y="-82" font-family="Helvetica,sans-Serif" font-size="10.00">loop</text>
</a>
</g>
</g>
<!-- Node4&#45;&gt;Node5 -->
<g id="edge4" class="edge">
<title>Node4&#45;&gt;Node5</title>
<path fill="none" stroke="#63b8ff" d="M1095.57,-58.27C1063.2,-65.78 1021.89,-75.36 999.24,-80.62"/>
<polygon fill="#63b8ff" stroke="#63b8ff" points="1096.18,-61.72 1105.13,-56.05 1094.6,-54.9 1096.18,-61.72"/>
</g>
<!-- Node7 -->
<g id="node7" class="node">
<title>Node7</title>
<g id="a_node7"><a xlink:href="ReceiverCode_2src_2main_8cpp.html#a17699f358cf9f7c3155a9c5daf8ff13c" target="_top" xlink:title=" ">
<polygon fill="white" stroke="#666666" points="837.5,-22 796.5,-22 796.5,-3 837.5,-3 837.5,-22"/>
<text text-anchor="middle" x="817" y="-10" font-family="Helvetica,sans-Serif" font-size="10.00">setup</text>
</a>
</g>
</g>
<!-- Node6&#45;&gt;Node7 -->
<g id="edge6" class="edge">
<title>Node6&#45;&gt;Node7</title>
<path fill="none" stroke="#63b8ff" d="M931.2,-12.5C899.73,-12.5 860.66,-12.5 837.62,-12.5"/>
<polygon fill="#63b8ff" stroke="#63b8ff" points="930.89,-16 940.89,-12.5 930.89,-9 930.89,-16"/>
</g>
<!-- Node8&#45;&gt;Node5 -->
<g id="edge50" class="edge">
<title>Node8&#45;&gt;Node5</title>
<path fill="none" stroke="#63b8ff" d="M1527.4,-82.5C1513.64,-90.85 1495.58,-100.2 1478,-104.5 1301.86,-147.6 1250.24,-123.35 1070,-103.5 1045.12,-100.76 1016.93,-93.95 999.43,-89.28"/>
<polygon fill="#63b8ff" stroke="#63b8ff" points="1529.16,-85.53 1535.73,-77.22 1525.41,-79.62 1529.16,-85.53"/>
</g>
<!-- Node9 -->
<g id="node9" class="node">
<title>Node9</title>
<g id="a_node9"><a xlink:href="ReceiverCode_2src_2main_8cpp.html#a42318598726782ebb2e1857f167c8cda" target="_top" xlink:title=" ">
<polygon fill="white" stroke="#666666" points="1460,-95 1407,-95 1407,-76 1460,-76 1460,-95"/>
<text text-anchor="middle" x="1433.5" y="-83" font-family="Helvetica,sans-Serif" font-size="10.00">FailSafe</text>
</a>
</g>
</g>
<!-- Node8&#45;&gt;Node9 -->
<g id="edge8" class="edge">
<title>Node8&#45;&gt;Node9</title>
<path fill="none" stroke="#63b8ff" d="M1504.73,-74.05C1489.56,-76.52 1473.25,-79.18 1460.17,-81.31"/>
<polygon fill="#63b8ff" stroke="#63b8ff" points="1505.25,-77.51 1514.55,-72.44 1504.12,-70.6 1505.25,-77.51"/>
</g>
<!-- Node36 -->
<g id="node36" class="node">
<title>Node36</title>
<g id="a_node36"><a xlink:href="radio_8h.html#a6f74cdb7b32a3aa9e9342661bd44ad1a" target="_top" xlink:title=" ">
<polygon fill="white" stroke="#666666" points="1478,-58 1389,-58 1389,-39 1478,-39 1478,-58"/>
<text text-anchor="middle" x="1433.5" y="-46" font-family="Helvetica,sans-Serif" font-size="10.00">KeepSbusHappy</text>
</a>
</g>
</g>
<!-- Node8&#45;&gt;Node36 -->
<g id="edge47" class="edge">
<title>Node8&#45;&gt;Node36</title>
<path fill="none" stroke="#63b8ff" d="M1504.78,-59.36C1495.98,-58 1486.81,-56.58 1478.1,-55.24"/>
<polygon fill="#63b8ff" stroke="#63b8ff" points="1504.13,-62.8 1514.55,-60.87 1505.2,-55.88 1504.13,-62.8"/>
</g>
<!-- Node10 -->
<g id="node10" class="node">
<title>Node10</title>
<g id="a_node10"><a xlink:href="TransmitterCode_2src_2main_8cpp.html#a804fdbdd5eab4c596bbe8a23eecbe4d5" target="_top" xlink:title=" ">
<polygon fill="white" stroke="#666666" points="1353,-247 1252,-247 1252,-228 1353,-228 1353,-247"/>
<text text-anchor="middle" x="1302.5" y="-235" font-family="Helvetica,sans-Serif" font-size="10.00">ButtonWasPressed</text>
</a>
</g>
</g>
<!-- Node9&#45;&gt;Node10 -->
<g id="edge9" class="edge">
<title>Node9&#45;&gt;Node10</title>
<path fill="none" stroke="#63b8ff" d="M1416.76,-104.04C1389.18,-136.55 1333,-202.74 1311.83,-227.69"/>
<polygon fill="#63b8ff" stroke="#63b8ff" points="1419.25,-106.52 1423.06,-96.63 1413.92,-101.99 1419.25,-106.52"/>
</g>
<!-- Node34 -->
<g id="node34" class="node">
<title>Node34</title>
<g id="a_node34"><a xlink:href="radio_8h.html#aca314b55765a1c3af5397c0cb3ce47ff" target="_top" xlink:title=" ">
<polygon fill="white" stroke="#666666" points="1334,-95 1271,-95 1271,-76 1334,-76 1334,-95"/>
<text text-anchor="middle" x="1302.5" y="-83" font-family="Helvetica,sans-Serif" font-size="10.00">Reconnect</text>
</a>
</g>
</g>
<!-- Node9&#45;&gt;Node34 -->
<g id="edge43" class="edge">
<title>Node9&#45;&gt;Node34</title>
<path fill="none" stroke="#63b8ff" d="M1395.26,-85.5C1375.91,-85.5 1352.55,-85.5 1334.25,-85.5"/>
<polygon fill="#63b8ff" stroke="#63b8ff" points="1395.19,-89 1405.19,-85.5 1395.19,-82 1395.19,-89"/>
</g>
<!-- Node11 -->
<g id="node11" class="node">
<title>Node11</title>
<g id="a_node11"><a xlink:href="Utilities_8h.html#afb7c85cac4aa89fd998ed81c330374d2" target="_top" xlink:title=" ">
<polygon fill="white" stroke="#666666" points="1216,-285 1070,-285 1070,-266 1216,-266 1216,-285"/>
<text text-anchor="middle" x="1143" y="-273" font-family="Helvetica,sans-Serif" font-size="10.00">CheckForNextionButtonPress</text>
</a>
</g>
</g>
<!-- Node10&#45;&gt;Node11 -->
<g id="edge10" class="edge">
<title>Node10&#45;&gt;Node11</title>
<path fill="none" stroke="#63b8ff" d="M1248.94,-250.18C1228.25,-255.17 1204.83,-260.82 1185.38,-265.52"/>
<polygon fill="#63b8ff" stroke="#63b8ff" points="1249.75,-253.59 1258.65,-247.84 1248.11,-246.78 1249.75,-253.59"/>
</g>
<!-- Node19 -->
<g id="node19" class="node">
<title>Node19</title>
<g id="a_node19"><a xlink:href="ModelExchange_8h.html#ab7c9edf843c732d7fe296564f39bc0dc" target="_top" xlink:title="RECEIVE A MODEL FILE.">
<polygon fill="white" stroke="#666666" points="864,-60 770,-60 770,-41 864,-41 864,-60"/>
<text text-anchor="middle" x="817" y="-48" font-family="Helvetica,sans-Serif" font-size="10.00">ReceiveModelFile</text>
</a>
</g>
</g>
<!-- Node10&#45;&gt;Node19 -->
<g id="edge42" class="edge">
<title>Node10&#45;&gt;Node19</title>
<path fill="none" stroke="#63b8ff" d="M1263.37,-223.65C1248.58,-218.28 1231.5,-212.09 1216,-206.5 1088.52,-160.51 1044.49,-174.42 929,-103.5 910.25,-91.98 912.29,-80.1 893,-69.5 884.17,-64.65 874.08,-61.01 864.22,-58.29"/>
<polygon fill="#63b8ff" stroke="#63b8ff" points="1262.15,-226.93 1272.75,-227.05 1264.54,-220.35 1262.15,-226.93"/>
</g>
<!-- Node12 -->
<g id="node12" class="node">
<title>Node12</title>
<g id="a_node12"><a xlink:href="TransmitterCode_2src_2main_8cpp.html#a641d6dab68ec7b2a8a32492aac55bc1c" target="_top" xlink:title=" ">
<polygon fill="white" stroke="#666666" points="1034,-209 929,-209 929,-190 1034,-190 1034,-209"/>
<text text-anchor="middle" x="981.5" y="-197" font-family="Helvetica,sans-Serif" font-size="10.00">GetBackupFilename</text>
</a>
</g>
</g>
<!-- Node11&#45;&gt;Node12 -->
<g id="edge11" class="edge">
<title>Node11&#45;&gt;Node12</title>
<path fill="none" stroke="#63b8ff" d="M1114.24,-260.05C1092.67,-248.31 1061.83,-232.07 1034,-219.5 1026.22,-215.99 1017.63,-212.5 1009.72,-209.44"/>
<polygon fill="#63b8ff" stroke="#63b8ff" points="1112.55,-263.12 1123,-264.86 1115.92,-256.98 1112.55,-263.12"/>
</g>
<!-- Node14 -->
<g id="node14" class="node">
<title>Node14</title>
<g id="a_node14"><a xlink:href="TransmitterCode_2src_2main_8cpp.html#a6506bf72e0dd9e9ce480156b47625bff" target="_top" xlink:title=" ">
<polygon fill="white" stroke="#666666" points="1024.5,-247 938.5,-247 938.5,-228 1024.5,-228 1024.5,-247"/>
<text text-anchor="middle" x="981.5" y="-235" font-family="Helvetica,sans-Serif" font-size="10.00">GetConfirmation</text>
</a>
</g>
</g>
<!-- Node11&#45;&gt;Node14 -->
<g id="edge14" class="edge">
<title>Node11&#45;&gt;Node14</title>
<path fill="none" stroke="#63b8ff" d="M1089.07,-262.89C1068.04,-257.88 1044.2,-252.2 1024.4,-247.48"/>
<polygon fill="#63b8ff" stroke="#63b8ff" points="1088.08,-266.25 1098.62,-265.17 1089.7,-259.44 1088.08,-266.25"/>
</g>
<!-- Node24 -->
<g id="node24" class="node">
<title>Node24</title>
<g id="a_node24"><a xlink:href="TransmitterCode_2src_2main_8cpp.html#a558ea014e230b7caa54ce5a37ad29b22" target="_top" xlink:title=" ">
<polygon fill="white" stroke="#666666" points="691.5,-486 590.5,-486 590.5,-467 691.5,-467 691.5,-486"/>
<text text-anchor="middle" x="641" y="-474" font-family="Helvetica,sans-Serif" font-size="10.00">ManageTransmitter</text>
</a>
</g>
</g>
<!-- Node11&#45;&gt;Node24 -->
<g id="edge26" class="edge">
<title>Node11&#45;&gt;Node24</title>
<path fill="none" stroke="#63b8ff" d="M1127.24,-294.08C1092.14,-336.56 998.68,-439.89 893,-476.5 826.29,-499.61 743.5,-493.47 691.69,-485.85"/>
<polygon fill="#63b8ff" stroke="#63b8ff" points="1129.81,-296.47 1133.4,-286.5 1124.38,-292.05 1129.81,-296.47"/>
</g>
<!-- Node26 -->
<g id="node26" class="node">
<title>Node26</title>
<g id="a_node26"><a xlink:href="TransmitterCode_2src_2main_8cpp.html#a6f5b0f1e4ca75768c16c4dd93f92a8de" target="_top" xlink:title=" ">
<polygon fill="white" stroke="#666666" points="1007.5,-356 955.5,-356 955.5,-337 1007.5,-337 1007.5,-356"/>
<text text-anchor="middle" x="981.5" y="-344" font-family="Helvetica,sans-Serif" font-size="10.00">MsgBox</text>
</a>
</g>
</g>
<!-- Node11&#45;&gt;Node26 -->
<g id="edge28" class="edge">
<title>Node11&#45;&gt;Node26</title>
<path fill="none" stroke="#63b8ff" d="M1109.47,-289.98C1078.25,-303.88 1031.96,-324.48 1004.75,-336.6"/>
<polygon fill="#63b8ff" stroke="#63b8ff" points="1110.73,-293.25 1118.44,-285.99 1107.88,-286.86 1110.73,-293.25"/>
</g>
<!-- Node12&#45;&gt;Node10 -->
<g id="edge12" class="edge">
<title>Node12&#45;&gt;Node10</title>
<path fill="none" stroke="#63b8ff" d="M1045.68,-207.03C1106.13,-214.23 1196.1,-224.94 1251.66,-231.56"/>
<polygon fill="#63b8ff" stroke="#63b8ff" points="1046.22,-203.57 1035.88,-205.86 1045.39,-210.52 1046.22,-203.57"/>
</g>
<!-- Node13 -->
<g id="node13" class="node">
<title>Node13</title>
<g id="a_node13"><a xlink:href="TransmitterCode_2src_2main_8cpp.html#a9d94366336f1e5fd43edb9c24bec5821" target="_top" xlink:title=" ">
<polygon fill="white" stroke="#666666" points="851,-97 783,-97 783,-78 851,-78 851,-97"/>
<text text-anchor="middle" x="817" y="-85" font-family="Helvetica,sans-Serif" font-size="10.00">RenameFile</text>
</a>
</g>
</g>
<!-- Node12&#45;&gt;Node13 -->
<g id="edge13" class="edge">
<title>Node12&#45;&gt;Node13</title>
<path fill="none" stroke="#63b8ff" d="M940.63,-184.25C936.43,-181.71 932.45,-178.8 929,-175.5 904,-151.6 920.13,-127.95 893,-106.5 881.2,-97.17 865.37,-92.37 851.29,-89.92"/>
<polygon fill="#63b8ff" stroke="#63b8ff" points="938.83,-187.26 949.31,-188.85 942.11,-181.08 938.83,-187.26"/>
</g>
<!-- Node14&#45;&gt;Node10 -->
<g id="edge15" class="edge">
<title>Node14&#45;&gt;Node10</title>
<path fill="none" stroke="#63b8ff" d="M1036.01,-237.5C1096.16,-237.5 1193.05,-237.5 1251.66,-237.5"/>
<polygon fill="#63b8ff" stroke="#63b8ff" points="1036.37,-234 1026.37,-237.5 1036.37,-241 1036.37,-234"/>
</g>
<!-- Node14&#45;&gt;Node13 -->
<g id="edge21" class="edge">
<title>Node14&#45;&gt;Node13</title>
<path fill="none" stroke="#63b8ff" d="M932.18,-221.47C931.07,-220.53 930,-219.54 929,-218.5 892.82,-180.75 931.12,-142.29 893,-106.5 881.84,-96.02 865.74,-91.1 851.32,-88.88"/>
<polygon fill="#63b8ff" stroke="#63b8ff" points="930.01,-224.23 940.29,-226.79 933.85,-218.38 930.01,-224.23"/>
</g>
<!-- Node15 -->
<g id="node15" class="node">
<title>Node15</title>
<g id="a_node15"><a xlink:href="TransmitterCode_2src_2main_8cpp.html#ac45477c637c975e13189e2988c8813b3" target="_top" xlink:title=" ">
<polygon fill="white" stroke="#666666" points="857,-319 777,-319 777,-300 857,-300 857,-319"/>
<text text-anchor="middle" x="817" y="-307" font-family="Helvetica,sans-Serif" font-size="10.00">DeleteModelID</text>
</a>
</g>
</g>
<!-- Node14&#45;&gt;Node15 -->
<g id="edge16" class="edge">
<title>Node14&#45;&gt;Node15</title>
<path fill="none" stroke="#63b8ff" d="M958.46,-253.85C941.38,-265.82 916.7,-281.64 893,-291.5 881.75,-296.18 869.02,-299.81 857.29,-302.54"/>
<polygon fill="#63b8ff" stroke="#63b8ff" points="960.26,-256.87 966.35,-248.2 956.18,-251.18 960.26,-256.87"/>
</g>
<!-- Node16 -->
<g id="node16" class="node">
<title>Node16</title>
<g id="a_node16"><a xlink:href="TransmitterCode_2src_2main_8cpp.html#a53d438145d004c3b053f245f494f4284" target="_top" xlink:title=" ">
<polygon fill="white" stroke="#666666" points="843,-208 791,-208 791,-189 843,-189 843,-208"/>
<text text-anchor="middle" x="817" y="-196" font-family="Helvetica,sans-Serif" font-size="10.00">DelLOG</text>
</a>
</g>
</g>
<!-- Node14&#45;&gt;Node16 -->
<g id="edge17" class="edge">
<title>Node14&#45;&gt;Node16</title>
<path fill="none" stroke="#63b8ff" d="M928.06,-224.92C899.6,-218.08 865.72,-209.95 843.14,-204.53"/>
<polygon fill="#63b8ff" stroke="#63b8ff" points="927.06,-228.27 937.6,-227.2 928.7,-221.47 927.06,-228.27"/>
</g>
<!-- Node17 -->
<g id="node17" class="node">
<title>Node17</title>
<g id="a_node17"><a xlink:href="TransmitterCode_2src_2main_8cpp.html#a16c65917a148c7f6c17babf11e977b69" target="_top" xlink:title=" ">
<polygon fill="white" stroke="#666666" points="858,-171 776,-171 776,-152 858,-152 858,-171"/>
<text text-anchor="middle" x="817" y="-159" font-family="Helvetica,sans-Serif" font-size="10.00">EndBuddyView</text>
</a>
</g>
</g>
<!-- Node14&#45;&gt;Node17 -->
<g id="edge18" class="edge">
<title>Node14&#45;&gt;Node17</title>
<path fill="none" stroke="#63b8ff" d="M936.47,-222.87C933.88,-221.52 931.37,-220.06 929,-218.5 909.58,-205.69 913.07,-192.27 893,-180.5 882.46,-174.32 869.93,-170.13 858.17,-167.3"/>
<polygon fill="#63b8ff" stroke="#63b8ff" points="934.8,-225.95 945.35,-226.95 937.73,-219.59 934.8,-225.95"/>
</g>
<!-- Node18 -->
<g id="node18" class="node">
<title>Node18</title>
<g id="a_node18"><a xlink:href="TransmitterCode_2src_2main_8cpp.html#ae9f91b9da28f2e1e2fb126961f03c31c" target="_top" xlink:title=" ">
<polygon fill="white" stroke="#666666" points="857.5,-134 776.5,-134 776.5,-115 857.5,-115 857.5,-134"/>
<text text-anchor="middle" x="817" y="-122" font-family="Helvetica,sans-Serif" font-size="10.00">ModelViewEnd</text>
</a>
</g>
</g>
<!-- Node14&#45;&gt;Node18 -->
<g id="edge19" class="edge">
<title>Node14&#45;&gt;Node18</title>
<path fill="none" stroke="#63b8ff" d="M932.97,-221.73C931.59,-220.72 930.26,-219.64 929,-218.5 901.65,-193.61 921.62,-166.91 893,-143.5 883.12,-135.42 870.25,-130.72 857.96,-128"/>
<polygon fill="#63b8ff" stroke="#63b8ff" points="931.11,-224.7 941.5,-226.76 934.67,-218.67 931.11,-224.7"/>
</g>
<!-- Node14&#45;&gt;Node19 -->
<g id="edge20" class="edge">
<title>Node14&#45;&gt;Node19</title>
<path fill="none" stroke="#63b8ff" d="M931.61,-221.14C930.7,-220.31 929.82,-219.43 929,-218.5 883.71,-167.61 940.91,-117.94 893,-69.5 885.25,-61.67 874.78,-56.91 864.11,-54.05"/>
<polygon fill="#63b8ff" stroke="#63b8ff" points="929.35,-223.83 939.55,-226.72 933.38,-218.11 929.35,-223.83"/>
</g>
<!-- Node20 -->
<g id="node20" class="node">
<title>Node20</title>
<g id="a_node20"><a xlink:href="TransmitterCode_2src_2main_8cpp.html#a75875d66db3193e4034c3768c175f8ef" target="_top" xlink:title=" ">
<polygon fill="white" stroke="#666666" points="850.5,-393 783.5,-393 783.5,-374 850.5,-374 850.5,-393"/>
<text text-anchor="middle" x="817" y="-381" font-family="Helvetica,sans-Serif" font-size="10.00">ResetClock</text>
</a>
</g>
</g>
<!-- Node14&#45;&gt;Node20 -->
<g id="edge22" class="edge">
<title>Node14&#45;&gt;Node20</title>
<path fill="none" stroke="#63b8ff" d="M969.6,-256.87C951.17,-288.99 913.81,-351.16 893,-365.5 880.65,-374.01 864.75,-378.52 850.77,-380.9"/>
<polygon fill="#63b8ff" stroke="#63b8ff" points="972.43,-258.98 974.33,-248.56 966.34,-255.52 972.43,-258.98"/>
</g>
<!-- Node21 -->
<g id="node21" class="node">
<title>Node21</title>
<g id="a_node21"><a xlink:href="TransmitterCode_2src_2main_8cpp.html#a5c7f22bae35d5d6df9d54fe79dbb8401" target="_top" xlink:title=" ">
<polygon fill="white" stroke="#666666" points="881,-282 753,-282 753,-263 881,-263 881,-282"/>
<text text-anchor="middle" x="817" y="-270" font-family="Helvetica,sans-Serif" font-size="10.00">ResetTransmitterSettings</text>
</a>
</g>
</g>
<!-- Node14&#45;&gt;Node21 -->
<g id="edge23" class="edge">
<title>Node14&#45;&gt;Node21</title>
<path fill="none" stroke="#63b8ff" d="M927.26,-248.97C906.94,-253.34 883.97,-258.29 864.34,-262.52"/>
<polygon fill="#63b8ff" stroke="#63b8ff" points="927.71,-252.45 936.75,-246.92 926.24,-245.61 927.71,-252.45"/>
</g>
<!-- Node22 -->
<g id="node22" class="node">
<title>Node22</title>
<g id="a_node22"><a xlink:href="TransmitterCode_2src_2main_8cpp.html#a3838aa0b33bb22d3b9934da05d2716d8" target="_top" xlink:title=" ">
<polygon fill="white" stroke="#666666" points="855,-356 779,-356 779,-337 855,-337 855,-356"/>
<text text-anchor="middle" x="817" y="-344" font-family="Helvetica,sans-Serif" font-size="10.00">StoreModelID</text>
</a>
</g>
</g>
<!-- Node14&#45;&gt;Node22 -->
<g id="edge24" class="edge">
<title>Node14&#45;&gt;Node22</title>
<path fill="none" stroke="#63b8ff" d="M967.56,-256.36C952.23,-277.24 924.71,-310.34 893,-328.5 881.61,-335.02 867.95,-339.19 855.43,-341.85"/>
<polygon fill="#63b8ff" stroke="#63b8ff" points="970.25,-258.62 973.2,-248.44 964.55,-254.56 970.25,-258.62"/>
</g>
<!-- Node23 -->
<g id="node23" class="node">
<title>Node23</title>
<g id="a_node23"><a xlink:href="TransmitterCode_2src_2main_8cpp.html#a3c55ef7c23759a89a86f6519569c4f7a" target="_top" xlink:title=" ">
<polygon fill="white" stroke="#666666" points="866.5,-245 767.5,-245 767.5,-226 866.5,-226 866.5,-245"/>
<text text-anchor="middle" x="817" y="-233" font-family="Helvetica,sans-Serif" font-size="10.00">TXModuleViewEnd</text>
</a>
</g>
</g>
<!-- Node14&#45;&gt;Node23 -->
<g id="edge25" class="edge">
<title>Node14&#45;&gt;Node23</title>
<path fill="none" stroke="#63b8ff" d="M926.86,-236.84C907.55,-236.6 885.87,-236.34 866.97,-236.1"/>
<polygon fill="#63b8ff" stroke="#63b8ff" points="926.67,-240.34 936.72,-236.96 926.76,-233.34 926.67,-240.34"/>
</g>
<!-- Node25 -->
<g id="node25" class="node">
<title>Node25</title>
<g id="a_node25"><a xlink:href="TransmitterCode_2src_2main_8cpp.html#ad3cb30894c94eb016e98bdcaa899ac86" target="_top" xlink:title=" ">
<polygon fill="white" stroke="#666666" points="35,-487 0,-487 0,-468 35,-468 35,-487"/>
<text text-anchor="middle" x="17.5" y="-475" font-family="Helvetica,sans-Serif" font-size="10.00">loop</text>
</a>
</g>
</g>
<!-- Node24&#45;&gt;Node25 -->
<g id="edge27" class="edge">
<title>Node24&#45;&gt;Node25</title>
<path fill="none" stroke="#63b8ff" d="M578.69,-470.56C519.26,-465.31 426.54,-458.5 346,-458.5 346,-458.5 346,-458.5 213,-458.5 147.01,-458.5 69.02,-469.47 35.36,-474.74"/>
<polygon fill="#63b8ff" stroke="#63b8ff" points="578.34,-474.04 588.61,-471.45 578.96,-467.07 578.34,-474.04"/>
</g>
<!-- Node26&#45;&gt;Node10 -->
<g id="edge29" class="edge">
<title>Node26&#45;&gt;Node10</title>
<path fill="none" stroke="#63b8ff" d="M1019.13,-342.58C1066.22,-336.59 1149.8,-322.77 1216,-294.5 1244.71,-282.24 1274.12,-260.11 1289.86,-247.33"/>
<polygon fill="#63b8ff" stroke="#63b8ff" points="1018.98,-339.07 1009.48,-343.75 1019.83,-346.02 1018.98,-339.07"/>
</g>
<!-- Node26&#45;&gt;Node15 -->
<g id="edge30" class="edge">
<title>Node26&#45;&gt;Node15</title>
<path fill="none" stroke="#63b8ff" d="M943.96,-338.18C918.22,-332.32 883.8,-324.48 857.44,-318.48"/>
<polygon fill="#63b8ff" stroke="#63b8ff" points="943.11,-341.58 953.63,-340.38 944.66,-334.75 943.11,-341.58"/>
</g>
<!-- Node26&#45;&gt;Node20 -->
<g id="edge31" class="edge">
<title>Node26&#45;&gt;Node20</title>
<path fill="none" stroke="#63b8ff" d="M944.19,-354.77C916.21,-361.14 877.85,-369.87 850.79,-376.03"/>
<polygon fill="#63b8ff" stroke="#63b8ff" points="944.66,-358.25 953.63,-352.62 943.11,-351.42 944.66,-358.25"/>
</g>
<!-- Node26&#45;&gt;Node22 -->
<g id="edge33" class="edge">
<title>Node26&#45;&gt;Node22</title>
<path fill="none" stroke="#63b8ff" d="M943.67,-346.5C917.26,-346.5 881.8,-346.5 855.28,-346.5"/>
<polygon fill="#63b8ff" stroke="#63b8ff" points="943.6,-350 953.6,-346.5 943.6,-343 943.6,-350"/>
</g>
<!-- Node27 -->
<g id="node27" class="node">
<title>Node27</title>
<g id="a_node27"><a xlink:href="ModelExchange_8h.html#ac36bdea2efcd030a336293af16f5dc09" target="_top" xlink:title=" ">
<polygon fill="white" stroke="#666666" points="859.5,-467 774.5,-467 774.5,-448 859.5,-448 859.5,-467"/>
<text text-anchor="middle" x="817" y="-455" font-family="Helvetica,sans-Serif" font-size="10.00">ShowRemoteID</text>
</a>
</g>
</g>
<!-- Node26&#45;&gt;Node27 -->
<g id="edge32" class="edge">
<title>Node26&#45;&gt;Node27</title>
<path fill="none" stroke="#63b8ff" d="M967.66,-365.78C952.41,-387.12 924.97,-420.95 893,-439.5 882.92,-445.35 871.03,-449.3 859.73,-451.97"/>
<polygon fill="#63b8ff" stroke="#63b8ff" points="970.46,-367.88 973.27,-357.67 964.7,-363.9 970.46,-367.88"/>
</g>
<!-- Node28 -->
<g id="node28" class="node">
<title>Node28</title>
<g id="a_node28"><a xlink:href="TransmitterCode_2src_2main_8cpp.html#a7d321cdde32c31b15ca1080fda6743c8" target="_top" xlink:title=" ">
<polygon fill="white" stroke="#666666" points="893,-430 741,-430 741,-411 893,-411 893,-430"/>
<text text-anchor="middle" x="817" y="-418" font-family="Helvetica,sans-Serif" font-size="10.00">WarnUserOfVersionsMismatch</text>
</a>
</g>
</g>
<!-- Node26&#45;&gt;Node28 -->
<g id="edge34" class="edge">
<title>Node26&#45;&gt;Node28</title>
<path fill="none" stroke="#63b8ff" d="M958.85,-363.28C941.81,-375.74 917,-392.28 893,-402.5 885.61,-405.65 877.56,-408.31 869.57,-410.54"/>
<polygon fill="#63b8ff" stroke="#63b8ff" points="960.8,-366.19 966.71,-357.4 956.61,-360.58 960.8,-366.19"/>
</g>
<!-- Node29 -->
<g id="node29" class="node">
<title>Node29</title>
<g id="a_node29"><a xlink:href="TransmitterCode_2src_2main_8cpp.html#ad496cd10d726d7c5757d01a922c2aa25" target="_top" xlink:title=" ">
<polygon fill="white" stroke="#666666" points="705,-430 577,-430 577,-411 705,-411 705,-430"/>
<text text-anchor="middle" x="641" y="-418" font-family="Helvetica,sans-Serif" font-size="10.00">CompareVersionNumbers</text>
</a>
</g>
</g>
<!-- Node28&#45;&gt;Node29 -->
<g id="edge35" class="edge">
<title>Node28&#45;&gt;Node29</title>
<path fill="none" stroke="#63b8ff" d="M729.34,-420.5C721.28,-420.5 713.22,-420.5 705.43,-420.5"/>
<polygon fill="#63b8ff" stroke="#63b8ff" points="729.18,-424 739.18,-420.5 729.18,-417 729.18,-424"/>
</g>
<!-- Node30 -->
<g id="node30" class="node">
<title>Node30</title>
<g id="a_node30"><a xlink:href="TransmitterCode_2src_2main_8cpp.html#a4f813935d8fe58355228cbbf25e12f96" target="_top" xlink:title=" ">
<polygon fill="white" stroke="#666666" points="541,-430 428,-430 428,-411 541,-411 541,-430"/>
<text text-anchor="middle" x="484.5" y="-418" font-family="Helvetica,sans-Serif" font-size="10.00">GetRXVersionNumber</text>
</a>
</g>
</g>
<!-- Node29&#45;&gt;Node30 -->
<g id="edge36" class="edge">
<title>Node29&#45;&gt;Node30</title>
<path fill="none" stroke="#63b8ff" d="M565.24,-420.5C557.08,-420.5 548.89,-420.5 541.02,-420.5"/>
<polygon fill="#63b8ff" stroke="#63b8ff" points="565.2,-424 575.2,-420.5 565.2,-417 565.2,-424"/>
</g>
<!-- Node31 -->
<g id="node31" class="node">
<title>Node31</title>
<g id="a_node31"><a xlink:href="TransmitterCode_2src_2main_8cpp.html#a694f4f5a0147f4dc29b0bc1a8951547d" target="_top" xlink:title=" ">
<polygon fill="white" stroke="#666666" points="392,-430 298,-430 298,-411 392,-411 392,-430"/>
<text text-anchor="middle" x="345" y="-418" font-family="Helvetica,sans-Serif" font-size="10.00">ParseAckPayload</text>
</a>
</g>
</g>
<!-- Node30&#45;&gt;Node31 -->
<g id="edge37" class="edge">
<title>Node30&#45;&gt;Node31</title>
<path fill="none" stroke="#63b8ff" d="M416.17,-420.5C408.06,-420.5 399.93,-420.5 392.22,-420.5"/>
<polygon fill="#63b8ff" stroke="#63b8ff" points="416.06,-424 426.06,-420.5 416.06,-417 416.06,-424"/>
</g>
<!-- Node32 -->
<g id="node32" class="node">
<title>Node32</title>
<g id="a_node32"><a xlink:href="transceiver_8h.html#a1c11bb6771548de7d96723045b922620" target="_top" xlink:title=" ">
<polygon fill="white" stroke="#666666" points="262,-506 166,-506 166,-487 262,-487 262,-506"/>
<text text-anchor="middle" x="214" y="-494" font-family="Helvetica,sans-Serif" font-size="10.00">SuccessfulPacket</text>
</a>
</g>
</g>
<!-- Node31&#45;&gt;Node32 -->
<g id="edge38" class="edge">
<title>Node31&#45;&gt;Node32</title>
<path fill="none" stroke="#63b8ff" d="M317.3,-436.23C291.63,-451.36 253.6,-473.76 231.87,-486.56"/>
<polygon fill="#63b8ff" stroke="#63b8ff" points="318.99,-439.3 325.83,-431.2 315.44,-433.26 318.99,-439.3"/>
</g>
<!-- Node33 -->
<g id="node33" class="node">
<title>Node33</title>
<g id="a_node33"><a xlink:href="transceiver_8h.html#a049bfb836e7aa4a3a48a1a4bd225fafc" target="_top" xlink:title=" ">
<polygon fill="white" stroke="#666666" points="130,-506 71,-506 71,-487 130,-487 130,-506"/>
<text text-anchor="middle" x="100.5" y="-494" font-family="Helvetica,sans-Serif" font-size="10.00">SendData</text>
</a>
</g>
</g>
<!-- Node32&#45;&gt;Node33 -->
<g id="edge39" class="edge">
<title>Node32&#45;&gt;Node33</title>
<path fill="none" stroke="#63b8ff" d="M154.39,-496.5C146.07,-496.5 137.83,-496.5 130.43,-496.5"/>
<polygon fill="#63b8ff" stroke="#63b8ff" points="154.2,-500 164.2,-496.5 154.2,-493 154.2,-500"/>
</g>
<!-- Node33&#45;&gt;Node10 -->
<g id="edge40" class="edge">
<title>Node33&#45;&gt;Node10</title>
<path fill="none" stroke="#63b8ff" d="M141.47,-509.49C149.53,-511.76 157.98,-513.91 166,-515.5 244.03,-531.03 264.44,-534.5 344,-534.5 982.5,-534.5 982.5,-534.5 982.5,-534.5 1155.03,-534.5 1273.28,-298.92 1297.08,-247.38"/>
<polygon fill="#63b8ff" stroke="#63b8ff" points="142.47,-506.13 131.89,-506.66 140.49,-512.85 142.47,-506.13"/>
</g>
<!-- Node33&#45;&gt;Node25 -->
<g id="edge41" class="edge">
<title>Node33&#45;&gt;Node25</title>
<path fill="none" stroke="#63b8ff" d="M59.63,-487.15C51.08,-485.14 42.5,-483.13 35.4,-481.46"/>
<polygon fill="#63b8ff" stroke="#63b8ff" points="58.71,-490.53 69.24,-489.4 60.3,-483.71 58.71,-490.53"/>
</g>
<!-- Node35 -->
<g id="node35" class="node">
<title>Node35</title>
<g id="a_node35"><a xlink:href="radio_8h.html#a06807a4f185694d37f774702ba74db0a" target="_top" xlink:title=" ">
<polygon fill="white" stroke="#666666" points="1179,-94 1107,-94 1107,-75 1179,-75 1179,-94"/>
<text text-anchor="middle" x="1143" y="-82" font-family="Helvetica,sans-Serif" font-size="10.00">ReceiveData</text>
</a>
</g>
</g>
<!-- Node34&#45;&gt;Node35 -->
<g id="edge44" class="edge">
<title>Node34&#45;&gt;Node35</title>
<path fill="none" stroke="#63b8ff" d="M1259.41,-85.23C1234.41,-85.07 1203.05,-84.87 1179.34,-84.72"/>
<polygon fill="#63b8ff" stroke="#63b8ff" points="1259.22,-88.73 1269.25,-85.3 1259.27,-81.73 1259.22,-88.73"/>
</g>
<!-- Node35&#45;&gt;Node5 -->
<g id="edge45" class="edge">
<title>Node35&#45;&gt;Node5</title>
<path fill="none" stroke="#63b8ff" d="M1095.14,-84.5C1062.84,-84.5 1021.79,-84.5 999.24,-84.5"/>
<polygon fill="#63b8ff" stroke="#63b8ff" points="1095.09,-88 1105.09,-84.5 1095.09,-81 1095.09,-88"/>
</g>
<!-- Node35&#45;&gt;Node6 -->
<g id="edge46" class="edge">
<title>Node35&#45;&gt;Node6</title>
<path fill="none" stroke="#63b8ff" d="M1095.39,-75.08C1086.79,-72.72 1078.01,-69.88 1070,-66.5 1041.87,-54.64 1012.28,-34.53 995.73,-22.48"/>
<polygon fill="#63b8ff" stroke="#63b8ff" points="1094.48,-78.46 1105.04,-77.54 1096.21,-71.68 1094.48,-78.46"/>
</g>
<!-- Node36&#45;&gt;Node34 -->
<g id="edge49" class="edge">
<title>Node36&#45;&gt;Node34</title>
<path fill="none" stroke="#63b8ff" d="M1387.32,-61.46C1369.75,-66.5 1350.07,-72.14 1334.2,-76.69"/>
<polygon fill="#63b8ff" stroke="#63b8ff" points="1387.83,-64.95 1396.48,-58.83 1385.9,-58.23 1387.83,-64.95"/>
</g>
<!-- Node36&#45;&gt;Node35 -->
<g id="edge48" class="edge">
<title>Node36&#45;&gt;Node35</title>
<path fill="none" stroke="#63b8ff" d="M1377.47,-53.55C1341.68,-57.02 1294,-61.99 1252,-67.5 1227.72,-70.69 1200.49,-74.98 1179.44,-78.45"/>
<polygon fill="#63b8ff" stroke="#63b8ff" points="1377.53,-57.06 1387.15,-52.63 1376.86,-50.1 1377.53,-57.06"/>
</g>
</g>
</svg>
