<?xml version="1.0" encoding="UTF-8" standalone="no"?>
<!DOCTYPE svg PUBLIC "-//W3C//DTD SVG 1.1//EN"
 "http://www.w3.org/Graphics/SVG/1.1/DTD/svg11.dtd">
<!-- Generated by graphviz version 7.0.5 (20221223.1930)
 -->
<!-- Title: LogLongestGap Pages: 1 -->
<svg width="1787pt" height="457pt"
 viewBox="0.00 0.00 1787.00 457.00" xmlns="http://www.w3.org/2000/svg" xmlns:xlink="http://www.w3.org/1999/xlink">
<g id="graph0" class="graph" transform="scale(1 1) rotate(0) translate(4 453)">
<title>LogLongestGap</title>
<!-- Node1 -->
<g id="node1" class="node">
<title>Node1</title>
<g id="a_node1"><a xlink:title=" ">
<polygon fill="#999999" stroke="#666666" points="1779,-161.5 1693,-161.5 1693,-142.5 1779,-142.5 1779,-161.5"/>
<text text-anchor="middle" x="1736" y="-149.5" font-family="Helvetica,sans-Serif" font-size="10.00">LogLongestGap</text>
</a>
</g>
</g>
<!-- Node2 -->
<g id="node2" class="node">
<title>Node2</title>
<g id="a_node2"><a xlink:href="TransmitterCode_2src_2main_8cpp.html#a2d5ec5fd5ed62d5b7b071fabe2225405" target="_top" xlink:title=" ">
<polygon fill="white" stroke="#666666" points="1657,-161.5 1561,-161.5 1561,-142.5 1657,-142.5 1657,-161.5"/>
<text text-anchor="middle" x="1609" y="-149.5" font-family="Helvetica,sans-Serif" font-size="10.00">LogDisConnection</text>
</a>
</g>
</g>
<!-- Node1&#45;&gt;Node2 -->
<g id="edge1" class="edge">
<title>Node1&#45;&gt;Node2</title>
<path fill="none" stroke="#63b8ff" d="M1681.27,-152C1673.34,-152 1665.22,-152 1657.44,-152"/>
<polygon fill="#63b8ff" stroke="#63b8ff" points="1681.17,-155.5 1691.17,-152 1681.17,-148.5 1681.17,-155.5"/>
</g>
<!-- Node3 -->
<g id="node3" class="node">
<title>Node3</title>
<g id="a_node3"><a xlink:href="TransmitterCode_2src_2main_8cpp.html#a7d34cec6e8edc20c8b50424e15dcc7c7" target="_top" xlink:title=" ">
<polygon fill="white" stroke="#666666" points="1525,-161.5 1462,-161.5 1462,-142.5 1525,-142.5 1525,-161.5"/>
<text text-anchor="middle" x="1493.5" y="-149.5" font-family="Helvetica,sans-Serif" font-size="10.00">RedLedOn</text>
</a>
</g>
</g>
<!-- Node2&#45;&gt;Node3 -->
<g id="edge2" class="edge">
<title>Node2&#45;&gt;Node3</title>
<path fill="none" stroke="#63b8ff" d="M1549.26,-152C1540.98,-152 1532.76,-152 1525.3,-152"/>
<polygon fill="#63b8ff" stroke="#63b8ff" points="1549.01,-155.5 1559.01,-152 1549.01,-148.5 1549.01,-155.5"/>
</g>
<!-- Node4 -->
<g id="node4" class="node">
<title>Node4</title>
<g id="a_node4"><a xlink:href="TransmitterCode_2src_2main_8cpp.html#a804fdbdd5eab4c596bbe8a23eecbe4d5" target="_top" xlink:title=" ">
<polygon fill="white" stroke="#666666" points="1309,-161.5 1208,-161.5 1208,-142.5 1309,-142.5 1309,-161.5"/>
<text text-anchor="middle" x="1258.5" y="-149.5" font-family="Helvetica,sans-Serif" font-size="10.00">ButtonWasPressed</text>
</a>
</g>
</g>
<!-- Node3&#45;&gt;Node4 -->
<g id="edge3" class="edge">
<title>Node3&#45;&gt;Node4</title>
<path fill="none" stroke="#63b8ff" d="M1450.18,-152C1410.53,-152 1351.26,-152 1309.34,-152"/>
<polygon fill="#63b8ff" stroke="#63b8ff" points="1450.05,-155.5 1460.05,-152 1450.05,-148.5 1450.05,-155.5"/>
</g>
<!-- Node20 -->
<g id="node20" class="node">
<title>Node20</title>
<g id="a_node20"><a xlink:href="TransmitterCode_2src_2main_8cpp.html#ab7c9edf843c732d7fe296564f39bc0dc" target="_top" xlink:title="RECEIVE A MODEL FILE.">
<polygon fill="white" stroke="#666666" points="832,-48.5 738,-48.5 738,-29.5 832,-29.5 832,-48.5"/>
<text text-anchor="middle" x="785" y="-36.5" font-family="Helvetica,sans-Serif" font-size="10.00">ReceiveModelFile</text>
</a>
</g>
</g>
<!-- Node3&#45;&gt;Node20 -->
<g id="edge37" class="edge">
<title>Node3&#45;&gt;Node20</title>
<path fill="none" stroke="#63b8ff" d="M1450.66,-143.19C1364.71,-125.34 1161.87,-84.54 990,-60 936.07,-52.3 873.74,-46.3 832.31,-42.72"/>
<polygon fill="#63b8ff" stroke="#63b8ff" points="1449.77,-146.58 1460.28,-145.19 1451.2,-139.73 1449.77,-146.58"/>
</g>
<!-- Node26 -->
<g id="node26" class="node">
<title>Node26</title>
<g id="a_node26"><a xlink:href="transceiver_8h.html#a5fbd3c8613a4163425c94965704ce5f8" target="_top" xlink:title=" ">
<polygon fill="white" stroke="#666666" points="1295.5,-402.5 1221.5,-402.5 1221.5,-383.5 1295.5,-383.5 1295.5,-402.5"/>
<text text-anchor="middle" x="1258.5" y="-390.5" font-family="Helvetica,sans-Serif" font-size="10.00">FailedPacket</text>
</a>
</g>
</g>
<!-- Node3&#45;&gt;Node26 -->
<g id="edge35" class="edge">
<title>Node3&#45;&gt;Node26</title>
<path fill="none" stroke="#63b8ff" d="M1475.19,-169.9C1429.1,-217.57 1304.51,-346.45 1269.04,-383.13"/>
<polygon fill="#63b8ff" stroke="#63b8ff" points="1477.59,-172.46 1482.03,-162.83 1472.56,-167.59 1477.59,-172.46"/>
</g>
<!-- Node27 -->
<g id="node27" class="node">
<title>Node27</title>
<g id="a_node27"><a xlink:href="TransmitterCode_2src_2main_8cpp.html#a58c67a975068930341f0663e0a08c9d3" target="_top" xlink:title="SEND A MODEL FILE.">
<polygon fill="white" stroke="#666666" points="1426,-180.5 1345,-180.5 1345,-161.5 1426,-161.5 1426,-180.5"/>
<text text-anchor="middle" x="1385.5" y="-168.5" font-family="Helvetica,sans-Serif" font-size="10.00">SendModelFile</text>
</a>
</g>
</g>
<!-- Node3&#45;&gt;Node27 -->
<g id="edge38" class="edge">
<title>Node3&#45;&gt;Node27</title>
<path fill="none" stroke="#63b8ff" d="M1450.32,-159.56C1442.42,-160.98 1434.19,-162.45 1426.37,-163.85"/>
<polygon fill="#63b8ff" stroke="#63b8ff" points="1450.84,-163.02 1460.07,-157.81 1449.6,-156.13 1450.84,-163.02"/>
</g>
<!-- Node5 -->
<g id="node5" class="node">
<title>Node5</title>
<g id="a_node5"><a xlink:href="Utilities_8h.html#afb7c85cac4aa89fd998ed81c330374d2" target="_top" xlink:title=" ">
<polygon fill="white" stroke="#666666" points="1172,-161.5 1026,-161.5 1026,-142.5 1172,-142.5 1172,-161.5"/>
<text text-anchor="middle" x="1099" y="-149.5" font-family="Helvetica,sans-Serif" font-size="10.00">CheckForNextionButtonPress</text>
</a>
</g>
</g>
<!-- Node4&#45;&gt;Node5 -->
<g id="edge4" class="edge">
<title>Node4&#45;&gt;Node5</title>
<path fill="none" stroke="#63b8ff" d="M1196.32,-152C1188.43,-152 1180.29,-152 1172.24,-152"/>
<polygon fill="#63b8ff" stroke="#63b8ff" points="1196.15,-155.5 1206.15,-152 1196.15,-148.5 1196.15,-155.5"/>
</g>
<!-- Node4&#45;&gt;Node20 -->
<g id="edge34" class="edge">
<title>Node4&#45;&gt;Node20</title>
<path fill="none" stroke="#63b8ff" d="M1205.07,-139.43C1110.54,-116.78 913.4,-69.53 827.5,-48.95"/>
<polygon fill="#63b8ff" stroke="#63b8ff" points="1204.06,-142.79 1214.6,-141.72 1205.69,-135.98 1204.06,-142.79"/>
</g>
<!-- Node6 -->
<g id="node6" class="node">
<title>Node6</title>
<g id="a_node6"><a xlink:href="TransmitterCode_2src_2main_8cpp.html#a641d6dab68ec7b2a8a32492aac55bc1c" target="_top" xlink:title=" ">
<polygon fill="white" stroke="#666666" points="990,-237.5 885,-237.5 885,-218.5 990,-218.5 990,-237.5"/>
<text text-anchor="middle" x="937.5" y="-225.5" font-family="Helvetica,sans-Serif" font-size="10.00">GetBackupFilename</text>
</a>
</g>
</g>
<!-- Node5&#45;&gt;Node6 -->
<g id="edge5" class="edge">
<title>Node5&#45;&gt;Node6</title>
<path fill="none" stroke="#63b8ff" d="M1071.39,-167.31C1049.83,-179.41 1018.45,-196.31 990,-209 982.86,-212.18 975.01,-215.28 967.64,-218.01"/>
<polygon fill="#63b8ff" stroke="#63b8ff" points="1072.84,-170.51 1079.82,-162.54 1069.39,-164.42 1072.84,-170.51"/>
</g>
<!-- Node8 -->
<g id="node8" class="node">
<title>Node8</title>
<g id="a_node8"><a xlink:href="TransmitterCode_2src_2main_8cpp.html#a6506bf72e0dd9e9ce480156b47625bff" target="_top" xlink:title=" ">
<polygon fill="white" stroke="#666666" points="980.5,-200.5 894.5,-200.5 894.5,-181.5 980.5,-181.5 980.5,-200.5"/>
<text text-anchor="middle" x="937.5" y="-188.5" font-family="Helvetica,sans-Serif" font-size="10.00">GetConfirmation</text>
</a>
</g>
</g>
<!-- Node5&#45;&gt;Node8 -->
<g id="edge8" class="edge">
<title>Node5&#45;&gt;Node8</title>
<path fill="none" stroke="#63b8ff" d="M1046.32,-164.64C1024.63,-169.94 999.75,-176.02 979.36,-181.01"/>
<polygon fill="#63b8ff" stroke="#63b8ff" points="1046.99,-168.08 1055.87,-162.3 1045.32,-161.28 1046.99,-168.08"/>
</g>
<!-- Node24 -->
<g id="node24" class="node">
<title>Node24</title>
<g id="a_node24"><a xlink:href="TransmitterCode_2src_2main_8cpp.html#a558ea014e230b7caa54ce5a37ad29b22" target="_top" xlink:title=" ">
<polygon fill="white" stroke="#666666" points="684.5,-86.5 583.5,-86.5 583.5,-67.5 684.5,-67.5 684.5,-86.5"/>
<text text-anchor="middle" x="634" y="-74.5" font-family="Helvetica,sans-Serif" font-size="10.00">ManageTransmitter</text>
</a>
</g>
</g>
<!-- Node5&#45;&gt;Node24 -->
<g id="edge27" class="edge">
<title>Node5&#45;&gt;Node24</title>
<path fill="none" stroke="#63b8ff" d="M1050.09,-139.24C1000.22,-126.42 919.67,-107.03 849,-96 793.17,-87.28 728.47,-82.23 684.95,-79.56"/>
<polygon fill="#63b8ff" stroke="#63b8ff" points="1049.15,-142.61 1059.71,-141.73 1050.9,-135.83 1049.15,-142.61"/>
</g>
<!-- Node25 -->
<g id="node25" class="node">
<title>Node25</title>
<g id="a_node25"><a xlink:href="TransmitterCode_2src_2main_8cpp.html#a6f5b0f1e4ca75768c16c4dd93f92a8de" target="_top" xlink:title=" ">
<polygon fill="white" stroke="#666666" points="963.5,-161.5 911.5,-161.5 911.5,-142.5 963.5,-142.5 963.5,-161.5"/>
<text text-anchor="middle" x="937.5" y="-149.5" font-family="Helvetica,sans-Serif" font-size="10.00">MsgBox</text>
</a>
</g>
</g>
<!-- Node5&#45;&gt;Node25 -->
<g id="edge29" class="edge">
<title>Node5&#45;&gt;Node25</title>
<path fill="none" stroke="#63b8ff" d="M1014.29,-152C995.95,-152 977.88,-152 963.99,-152"/>
<polygon fill="#63b8ff" stroke="#63b8ff" points="1014.2,-155.5 1024.2,-152 1014.2,-148.5 1014.2,-155.5"/>
</g>
<!-- Node6&#45;&gt;Node4 -->
<g id="edge6" class="edge">
<title>Node6&#45;&gt;Node4</title>
<path fill="none" stroke="#63b8ff" d="M1001.83,-223.15C1049.42,-218.33 1115.81,-209.09 1172,-192 1196.62,-184.51 1223.2,-171.16 1240.07,-161.96"/>
<polygon fill="#63b8ff" stroke="#63b8ff" points="1001.58,-219.65 991.96,-224.1 1002.25,-226.62 1001.58,-219.65"/>
</g>
<!-- Node7 -->
<g id="node7" class="node">
<title>Node7</title>
<g id="a_node7"><a xlink:href="TransmitterCode_2src_2main_8cpp.html#a9d94366336f1e5fd43edb9c24bec5821" target="_top" xlink:title=" ">
<polygon fill="white" stroke="#666666" points="819,-420.5 751,-420.5 751,-401.5 819,-401.5 819,-420.5"/>
<text text-anchor="middle" x="785" y="-408.5" font-family="Helvetica,sans-Serif" font-size="10.00">RenameFile</text>
</a>
</g>
</g>
<!-- Node6&#45;&gt;Node7 -->
<g id="edge7" class="edge">
<title>Node6&#45;&gt;Node7</title>
<path fill="none" stroke="#63b8ff" d="M931.26,-248.7C921.32,-283.74 896.33,-354.66 849,-393 840.6,-399.8 829.76,-404.03 819.45,-406.67"/>
<polygon fill="#63b8ff" stroke="#63b8ff" points="934.55,-249.94 933.77,-239.38 927.79,-248.12 934.55,-249.94"/>
</g>
<!-- Node8&#45;&gt;Node4 -->
<g id="edge9" class="edge">
<title>Node8&#45;&gt;Node4</title>
<path fill="none" stroke="#63b8ff" d="M992.1,-187.98C1039.57,-184.88 1110.64,-179.19 1172,-170 1186.1,-167.89 1201.38,-164.9 1215.06,-161.97"/>
<polygon fill="#63b8ff" stroke="#63b8ff" points="992.13,-184.47 982.37,-188.6 992.57,-191.46 992.13,-184.47"/>
</g>
<!-- Node8&#45;&gt;Node7 -->
<g id="edge23" class="edge">
<title>Node8&#45;&gt;Node7</title>
<path fill="none" stroke="#63b8ff" d="M886.1,-207.79C885.72,-208.19 885.36,-208.59 885,-209 830.44,-271.98 905.36,-331.63 849,-393 841.38,-401.29 830.24,-405.87 819.43,-408.35"/>
<polygon fill="#63b8ff" stroke="#63b8ff" points="888.17,-210.62 893.95,-201.74 883.89,-205.07 888.17,-210.62"/>
</g>
<!-- Node9 -->
<g id="node9" class="node">
<title>Node9</title>
<g id="a_node9"><a xlink:href="TransmitterCode_2src_2main_8cpp.html#ac45477c637c975e13189e2988c8813b3" target="_top" xlink:title=" ">
<polygon fill="white" stroke="#666666" points="825,-161.5 745,-161.5 745,-142.5 825,-142.5 825,-161.5"/>
<text text-anchor="middle" x="785" y="-149.5" font-family="Helvetica,sans-Serif" font-size="10.00">DeleteModelID</text>
</a>
</g>
</g>
<!-- Node8&#45;&gt;Node9 -->
<g id="edge10" class="edge">
<title>Node8&#45;&gt;Node9</title>
<path fill="none" stroke="#63b8ff" d="M887.17,-178.22C866.84,-172.95 843.62,-166.93 824.56,-161.99"/>
<polygon fill="#63b8ff" stroke="#63b8ff" points="886.11,-181.56 896.67,-180.68 887.87,-174.78 886.11,-181.56"/>
</g>
<!-- Node10 -->
<g id="node10" class="node">
<title>Node10</title>
<g id="a_node10"><a xlink:href="TransmitterCode_2src_2main_8cpp.html#a53d438145d004c3b053f245f494f4284" target="_top" xlink:title=" ">
<polygon fill="white" stroke="#666666" points="811,-346.5 759,-346.5 759,-327.5 811,-327.5 811,-346.5"/>
<text text-anchor="middle" x="785" y="-334.5" font-family="Helvetica,sans-Serif" font-size="10.00">DelLOG</text>
</a>
</g>
</g>
<!-- Node8&#45;&gt;Node10 -->
<g id="edge11" class="edge">
<title>Node8&#45;&gt;Node10</title>
<path fill="none" stroke="#63b8ff" d="M886.85,-207.23C886.22,-207.8 885.6,-208.39 885,-209 848.99,-245.74 886.06,-283.32 849,-319 839,-328.62 824.23,-333.16 811.5,-335.28"/>
<polygon fill="#63b8ff" stroke="#63b8ff" points="888.55,-210.32 894.81,-201.77 884.58,-204.55 888.55,-210.32"/>
</g>
<!-- Node11 -->
<g id="node11" class="node">
<title>Node11</title>
<g id="a_node11"><a xlink:href="TransmitterCode_2src_2main_8cpp.html#a16c65917a148c7f6c17babf11e977b69" target="_top" xlink:title=" ">
<polygon fill="white" stroke="#666666" points="826,-309.5 744,-309.5 744,-290.5 826,-290.5 826,-309.5"/>
<text text-anchor="middle" x="785" y="-297.5" font-family="Helvetica,sans-Serif" font-size="10.00">EndBuddyView</text>
</a>
</g>
</g>
<!-- Node8&#45;&gt;Node11 -->
<g id="edge12" class="edge">
<title>Node8&#45;&gt;Node11</title>
<path fill="none" stroke="#63b8ff" d="M887.88,-206.67C886.89,-207.41 885.92,-208.19 885,-209 858.14,-232.64 876.36,-257.95 849,-281 842.53,-286.45 834.54,-290.33 826.45,-293.1"/>
<polygon fill="#63b8ff" stroke="#63b8ff" points="889.48,-209.79 896.26,-201.65 885.88,-203.79 889.48,-209.79"/>
</g>
<!-- Node12 -->
<g id="node12" class="node">
<title>Node12</title>
<g id="a_node12"><a xlink:href="ModelMatch_8h.html#afdd42b1130d38073be1c2025af855879" target="_top" xlink:title=" ">
<polygon fill="white" stroke="#666666" points="819.5,-124.5 750.5,-124.5 750.5,-105.5 819.5,-105.5 819.5,-124.5"/>
<text text-anchor="middle" x="785" y="-112.5" font-family="Helvetica,sans-Serif" font-size="10.00">IDNotFound</text>
</a>
</g>
</g>
<!-- Node8&#45;&gt;Node12 -->
<g id="edge13" class="edge">
<title>Node8&#45;&gt;Node12</title>
<path fill="none" stroke="#63b8ff" d="M896.03,-176.4C892.19,-174.46 888.45,-172.32 885,-170 865.98,-157.18 868.69,-144.77 849,-133 840.11,-127.69 829.59,-123.88 819.7,-121.18"/>
<polygon fill="#63b8ff" stroke="#63b8ff" points="894.37,-179.49 904.92,-180.48 897.29,-173.13 894.37,-179.49"/>
</g>
<!-- Node19 -->
<g id="node19" class="node">
<title>Node19</title>
<g id="a_node19"><a xlink:href="TransmitterCode_2src_2main_8cpp.html#ae9f91b9da28f2e1e2fb126961f03c31c" target="_top" xlink:title=" ">
<polygon fill="white" stroke="#666666" points="825.5,-272.5 744.5,-272.5 744.5,-253.5 825.5,-253.5 825.5,-272.5"/>
<text text-anchor="middle" x="785" y="-260.5" font-family="Helvetica,sans-Serif" font-size="10.00">ModelViewEnd</text>
</a>
</g>
</g>
<!-- Node8&#45;&gt;Node19 -->
<g id="edge21" class="edge">
<title>Node8&#45;&gt;Node19</title>
<path fill="none" stroke="#63b8ff" d="M891.2,-205.53C889.06,-206.62 886.98,-207.77 885,-209 866.02,-220.74 868.23,-232.68 849,-244 841.91,-248.17 833.83,-251.5 825.87,-254.13"/>
<polygon fill="#63b8ff" stroke="#63b8ff" points="892.4,-208.82 900.09,-201.54 889.54,-202.44 892.4,-208.82"/>
</g>
<!-- Node8&#45;&gt;Node20 -->
<g id="edge22" class="edge">
<title>Node8&#45;&gt;Node20</title>
<path fill="none" stroke="#63b8ff" d="M891.95,-175.46C889.47,-173.81 887.13,-171.99 885,-170 858.3,-145 870.96,-125.25 849,-96 834.74,-77.01 813.5,-59.36 799.7,-48.88"/>
<polygon fill="#63b8ff" stroke="#63b8ff" points="890.23,-178.51 900.67,-180.31 893.63,-172.39 890.23,-178.51"/>
</g>
<!-- Node21 -->
<g id="node21" class="node">
<title>Node21</title>
<g id="a_node21"><a xlink:href="TransmitterCode_2src_2main_8cpp.html#a5c7f22bae35d5d6df9d54fe79dbb8401" target="_top" xlink:title=" ">
<polygon fill="white" stroke="#666666" points="849,-235.5 721,-235.5 721,-216.5 849,-216.5 849,-235.5"/>
<text text-anchor="middle" x="785" y="-223.5" font-family="Helvetica,sans-Serif" font-size="10.00">ResetTransmitterSettings</text>
</a>
</g>
</g>
<!-- Node8&#45;&gt;Node21 -->
<g id="edge24" class="edge">
<title>Node8&#45;&gt;Node21</title>
<path fill="none" stroke="#63b8ff" d="M883.07,-203.43C865.27,-207.57 845.68,-212.12 828.79,-216.05"/>
<polygon fill="#63b8ff" stroke="#63b8ff" points="883.76,-206.86 892.7,-201.19 882.17,-200.04 883.76,-206.86"/>
</g>
<!-- Node22 -->
<g id="node22" class="node">
<title>Node22</title>
<g id="a_node22"><a xlink:href="TransmitterCode_2src_2main_8cpp.html#a3838aa0b33bb22d3b9934da05d2716d8" target="_top" xlink:title=" ">
<polygon fill="white" stroke="#666666" points="823,-198.5 747,-198.5 747,-179.5 823,-179.5 823,-198.5"/>
<text text-anchor="middle" x="785" y="-186.5" font-family="Helvetica,sans-Serif" font-size="10.00">StoreModelID</text>
</a>
</g>
</g>
<!-- Node8&#45;&gt;Node22 -->
<g id="edge25" class="edge">
<title>Node8&#45;&gt;Node22</title>
<path fill="none" stroke="#63b8ff" d="M882.88,-190.29C863.2,-190.03 841.35,-189.74 823.4,-189.5"/>
<polygon fill="#63b8ff" stroke="#63b8ff" points="882.62,-193.78 892.66,-190.42 882.71,-186.78 882.62,-193.78"/>
</g>
<!-- Node23 -->
<g id="node23" class="node">
<title>Node23</title>
<g id="a_node23"><a xlink:href="TransmitterCode_2src_2main_8cpp.html#a3c55ef7c23759a89a86f6519569c4f7a" target="_top" xlink:title=" ">
<polygon fill="white" stroke="#666666" points="834.5,-383.5 735.5,-383.5 735.5,-364.5 834.5,-364.5 834.5,-383.5"/>
<text text-anchor="middle" x="785" y="-371.5" font-family="Helvetica,sans-Serif" font-size="10.00">TXModuleViewEnd</text>
</a>
</g>
</g>
<!-- Node8&#45;&gt;Node23 -->
<g id="edge26" class="edge">
<title>Node8&#45;&gt;Node23</title>
<path fill="none" stroke="#63b8ff" d="M886.13,-207.82C885.74,-208.2 885.37,-208.6 885,-209 839.78,-258.79 895.65,-307.54 849,-356 844.98,-360.18 840.06,-363.41 834.76,-365.9"/>
<polygon fill="#63b8ff" stroke="#63b8ff" points="888.18,-210.65 894.09,-201.86 883.99,-205.05 888.18,-210.65"/>
</g>
<!-- Node13 -->
<g id="node13" class="node">
<title>Node13</title>
<g id="a_node13"><a xlink:href="ModelMatch_8h.html#af8fe429ceb65bf9d257a2a0f1c63eccb" target="_top" xlink:title=" ">
<polygon fill="white" stroke="#666666" points="685,-124.5 583,-124.5 583,-105.5 685,-105.5 685,-124.5"/>
<text text-anchor="middle" x="634" y="-112.5" font-family="Helvetica,sans-Serif" font-size="10.00">CompareModelsIDs</text>
</a>
</g>
</g>
<!-- Node12&#45;&gt;Node13 -->
<g id="edge14" class="edge">
<title>Node12&#45;&gt;Node13</title>
<path fill="none" stroke="#63b8ff" d="M738.93,-115C722.03,-115 702.72,-115 685.37,-115"/>
<polygon fill="#63b8ff" stroke="#63b8ff" points="738.68,-118.5 748.68,-115 738.68,-111.5 738.68,-118.5"/>
</g>
<!-- Node14 -->
<g id="node14" class="node">
<title>Node14</title>
<g id="a_node14"><a xlink:href="ModelMatch_8h.html#a494cb4acb30856d1f53f08df1b80c41b" target="_top" xlink:title=" ">
<polygon fill="white" stroke="#666666" points="547,-124.5 428,-124.5 428,-105.5 547,-105.5 547,-124.5"/>
<text text-anchor="middle" x="487.5" y="-112.5" font-family="Helvetica,sans-Serif" font-size="10.00">GetModelsMacAddress</text>
</a>
</g>
</g>
<!-- Node13&#45;&gt;Node14 -->
<g id="edge15" class="edge">
<title>Node13&#45;&gt;Node14</title>
<path fill="none" stroke="#63b8ff" d="M571.42,-115C563.48,-115 555.37,-115 547.49,-115"/>
<polygon fill="#63b8ff" stroke="#63b8ff" points="571.35,-118.5 581.35,-115 571.35,-111.5 571.35,-118.5"/>
</g>
<!-- Node15 -->
<g id="node15" class="node">
<title>Node15</title>
<g id="a_node15"><a xlink:href="TransmitterCode_2src_2main_8cpp.html#a694f4f5a0147f4dc29b0bc1a8951547d" target="_top" xlink:title=" ">
<polygon fill="white" stroke="#666666" points="392,-124.5 298,-124.5 298,-105.5 392,-105.5 392,-124.5"/>
<text text-anchor="middle" x="345" y="-112.5" font-family="Helvetica,sans-Serif" font-size="10.00">ParseAckPayload</text>
</a>
</g>
</g>
<!-- Node14&#45;&gt;Node15 -->
<g id="edge16" class="edge">
<title>Node14&#45;&gt;Node15</title>
<path fill="none" stroke="#63b8ff" d="M416.22,-115C408.05,-115 399.87,-115 392.14,-115"/>
<polygon fill="#63b8ff" stroke="#63b8ff" points="416.22,-118.5 426.22,-115 416.22,-111.5 416.22,-118.5"/>
</g>
<!-- Node16 -->
<g id="node16" class="node">
<title>Node16</title>
<g id="a_node16"><a xlink:href="transceiver_8h.html#a1c11bb6771548de7d96723045b922620" target="_top" xlink:title=" ">
<polygon fill="white" stroke="#666666" points="262,-124.5 166,-124.5 166,-105.5 262,-105.5 262,-124.5"/>
<text text-anchor="middle" x="214" y="-112.5" font-family="Helvetica,sans-Serif" font-size="10.00">SuccessfulPacket</text>
</a>
</g>
</g>
<!-- Node15&#45;&gt;Node16 -->
<g id="edge17" class="edge">
<title>Node15&#45;&gt;Node16</title>
<path fill="none" stroke="#63b8ff" d="M286.47,-115C278.35,-115 270.08,-115 262.19,-115"/>
<polygon fill="#63b8ff" stroke="#63b8ff" points="286.28,-118.5 296.28,-115 286.28,-111.5 286.28,-118.5"/>
</g>
<!-- Node17 -->
<g id="node17" class="node">
<title>Node17</title>
<g id="a_node17"><a xlink:href="transceiver_8h.html#a049bfb836e7aa4a3a48a1a4bd225fafc" target="_top" xlink:title=" ">
<polygon fill="white" stroke="#666666" points="130,-124.5 71,-124.5 71,-105.5 130,-105.5 130,-124.5"/>
<text text-anchor="middle" x="100.5" y="-112.5" font-family="Helvetica,sans-Serif" font-size="10.00">SendData</text>
</a>
</g>
</g>
<!-- Node16&#45;&gt;Node17 -->
<g id="edge18" class="edge">
<title>Node16&#45;&gt;Node17</title>
<path fill="none" stroke="#63b8ff" d="M154.39,-115C146.07,-115 137.83,-115 130.43,-115"/>
<polygon fill="#63b8ff" stroke="#63b8ff" points="154.2,-118.5 164.2,-115 154.2,-111.5 154.2,-118.5"/>
</g>
<!-- Node17&#45;&gt;Node4 -->
<g id="edge19" class="edge">
<title>Node17&#45;&gt;Node4</title>
<path fill="none" stroke="#63b8ff" d="M121.12,-98.24C160.56,-66.32 253.41,0 344,0 786,0 786,0 786,0 962.57,0 1010.59,-22.41 1172,-94 1200.69,-106.73 1230.11,-129.16 1245.86,-142.08"/>
<polygon fill="#63b8ff" stroke="#63b8ff" points="119.35,-95.16 113.86,-104.23 123.8,-100.56 119.35,-95.16"/>
</g>
<!-- Node18 -->
<g id="node18" class="node">
<title>Node18</title>
<g id="a_node18"><a xlink:href="TransmitterCode_2src_2main_8cpp.html#ad3cb30894c94eb016e98bdcaa899ac86" target="_top" xlink:title=" ">
<polygon fill="white" stroke="#666666" points="35,-105.5 0,-105.5 0,-86.5 35,-86.5 35,-105.5"/>
<text text-anchor="middle" x="17.5" y="-93.5" font-family="Helvetica,sans-Serif" font-size="10.00">loop</text>
</a>
</g>
</g>
<!-- Node17&#45;&gt;Node18 -->
<g id="edge20" class="edge">
<title>Node17&#45;&gt;Node18</title>
<path fill="none" stroke="#63b8ff" d="M59.63,-105.65C51.08,-103.64 42.5,-101.63 35.4,-99.96"/>
<polygon fill="#63b8ff" stroke="#63b8ff" points="58.71,-109.03 69.24,-107.9 60.3,-102.21 58.71,-109.03"/>
</g>
<!-- Node24&#45;&gt;Node18 -->
<g id="edge28" class="edge">
<title>Node24&#45;&gt;Node18</title>
<path fill="none" stroke="#63b8ff" d="M572.04,-77C513.95,-77 424.01,-77 346,-77 346,-77 346,-77 213,-77 147.01,-77 69.02,-87.97 35.36,-93.24"/>
<polygon fill="#63b8ff" stroke="#63b8ff" points="571.71,-80.5 581.71,-77 571.71,-73.5 571.71,-80.5"/>
</g>
<!-- Node25&#45;&gt;Node9 -->
<g id="edge30" class="edge">
<title>Node25&#45;&gt;Node9</title>
<path fill="none" stroke="#63b8ff" d="M899.85,-152C877.32,-152 848.46,-152 825.44,-152"/>
<polygon fill="#63b8ff" stroke="#63b8ff" points="899.8,-155.5 909.8,-152 899.8,-148.5 899.8,-155.5"/>
</g>
<!-- Node25&#45;&gt;Node12 -->
<g id="edge31" class="edge">
<title>Node25&#45;&gt;Node12</title>
<path fill="none" stroke="#63b8ff" d="M900.31,-143.1C875.83,-137.08 843.71,-129.19 819.75,-123.3"/>
<polygon fill="#63b8ff" stroke="#63b8ff" points="899.29,-146.46 909.84,-145.45 900.96,-139.66 899.29,-146.46"/>
</g>
<!-- Node25&#45;&gt;Node20 -->
<g id="edge32" class="edge">
<title>Node25&#45;&gt;Node20</title>
<path fill="none" stroke="#63b8ff" d="M914.44,-135.44C882.68,-111.59 825.03,-68.3 799.17,-48.89"/>
<polygon fill="#63b8ff" stroke="#63b8ff" points="912.1,-138.06 922.2,-141.26 916.3,-132.46 912.1,-138.06"/>
</g>
<!-- Node25&#45;&gt;Node22 -->
<g id="edge33" class="edge">
<title>Node25&#45;&gt;Node22</title>
<path fill="none" stroke="#63b8ff" d="M900.18,-160.93C876.94,-166.64 846.87,-174.04 823.42,-179.8"/>
<polygon fill="#63b8ff" stroke="#63b8ff" points="900.96,-164.34 909.84,-158.55 899.29,-157.54 900.96,-164.34"/>
</g>
<!-- Node26&#45;&gt;Node17 -->
<g id="edge36" class="edge">
<title>Node26&#45;&gt;Node17</title>
<path fill="none" stroke="#63b8ff" d="M1213.04,-405.84C1151.79,-422.38 1037.75,-449 938.5,-449 938.5,-449 938.5,-449 344,-449 179.55,-449 115.06,-180.57 103.47,-125"/>
<polygon fill="#63b8ff" stroke="#63b8ff" points="1213.67,-409.3 1222.39,-403.28 1211.82,-402.55 1213.67,-409.3"/>
</g>
<!-- Node27&#45;&gt;Node4 -->
<g id="edge39" class="edge">
<title>Node27&#45;&gt;Node4</title>
<path fill="none" stroke="#63b8ff" d="M1333.47,-163.24C1325.42,-162.02 1317.11,-160.76 1309.1,-159.54"/>
<polygon fill="#63b8ff" stroke="#63b8ff" points="1332.7,-166.67 1343.11,-164.71 1333.75,-159.75 1332.7,-166.67"/>
</g>
</g>
</svg>
