<?xml version="1.0" encoding="UTF-8" standalone="no"?>
<!DOCTYPE svg PUBLIC "-//W3C//DTD SVG 1.1//EN"
 "http://www.w3.org/Graphics/SVG/1.1/DTD/svg11.dtd">
<!-- Generated by graphviz version 7.0.5 (20221223.1930)
 -->
<!-- Title: GotoFrontView Pages: 1 -->
<svg width="1364pt" height="435pt"
 viewBox="0.00 0.00 1364.00 435.00" xmlns="http://www.w3.org/2000/svg" xmlns:xlink="http://www.w3.org/1999/xlink">
<g id="graph0" class="graph" transform="scale(1 1) rotate(0) translate(4 431)">
<title>GotoFrontView</title>
<!-- Node1 -->
<g id="node1" class="node">
<title>Node1</title>
<g id="a_node1"><a xlink:title=" ">
<polygon fill="#999999" stroke="#666666" points="1356,-161 1274,-161 1274,-142 1356,-142 1356,-161"/>
<text text-anchor="middle" x="1315" y="-149" font-family="Helvetica,sans-Serif" font-size="10.00">GotoFrontView</text>
</a>
</g>
</g>
<!-- Node2 -->
<g id="node2" class="node">
<title>Node2</title>
<g id="a_node2"><a xlink:href="TransmitterCode_2src_2main_8cpp.html#a6ae37c6938b8c10b83d1bc74e8643bd9" target="_top" xlink:title=" ">
<polygon fill="white" stroke="#666666" points="1097,-370 984,-370 984,-351 1097,-351 1097,-370"/>
<text text-anchor="middle" x="1040.5" y="-358" font-family="Helvetica,sans-Serif" font-size="10.00">CheckPowerOffButton</text>
</a>
</g>
</g>
<!-- Node1&#45;&gt;Node2 -->
<g id="edge1" class="edge">
<title>Node1&#45;&gt;Node2</title>
<path fill="none" stroke="#63b8ff" d="M1301.65,-170.92C1287.91,-191.47 1264.17,-223.97 1238,-246.5 1182.11,-294.62 1103.02,-333.27 1064.45,-350.61"/>
<polygon fill="#63b8ff" stroke="#63b8ff" points="1304.52,-172.93 1307.06,-162.65 1298.66,-169.11 1304.52,-172.93"/>
</g>
<!-- Node5 -->
<g id="node5" class="node">
<title>Node5</title>
<g id="a_node5"><a xlink:href="ModelMatch_8h.html#af8fe429ceb65bf9d257a2a0f1c63eccb" target="_top" xlink:title=" ">
<polygon fill="white" stroke="#666666" points="1238,-237 1136,-237 1136,-218 1238,-218 1238,-237"/>
<text text-anchor="middle" x="1187" y="-225" font-family="Helvetica,sans-Serif" font-size="10.00">CompareModelsIDs</text>
</a>
</g>
</g>
<!-- Node1&#45;&gt;Node5 -->
<g id="edge4" class="edge">
<title>Node1&#45;&gt;Node5</title>
<path fill="none" stroke="#63b8ff" d="M1287.92,-167.23C1262.84,-182.36 1225.7,-204.76 1204.48,-217.56"/>
<polygon fill="#63b8ff" stroke="#63b8ff" points="1289.48,-170.38 1296.23,-162.22 1285.86,-164.39 1289.48,-170.38"/>
</g>
<!-- Node19 -->
<g id="node19" class="node">
<title>Node19</title>
<g id="a_node19"><a xlink:href="TransmitterCode_2src_2main_8cpp.html#ae9f91b9da28f2e1e2fb126961f03c31c" target="_top" xlink:title=" ">
<polygon fill="white" stroke="#666666" points="104.5,-19 23.5,-19 23.5,0 104.5,0 104.5,-19"/>
<text text-anchor="middle" x="64" y="-7" font-family="Helvetica,sans-Serif" font-size="10.00">ModelViewEnd</text>
</a>
</g>
</g>
<!-- Node1&#45;&gt;Node19 -->
<g id="edge36" class="edge">
<title>Node1&#45;&gt;Node19</title>
<path fill="none" stroke="#63b8ff" d="M1262.34,-151.5C1207.53,-151.5 1118.41,-151.5 1041.5,-151.5 1041.5,-151.5 1041.5,-151.5 377,-151.5 253.37,-151.5 243.26,-72.23 128,-27.5 120.36,-24.54 112.04,-21.82 104.02,-19.44"/>
<polygon fill="#63b8ff" stroke="#63b8ff" points="1262.32,-155 1272.32,-151.5 1262.32,-148 1262.32,-155"/>
</g>
<!-- Node26 -->
<g id="node26" class="node">
<title>Node26</title>
<g id="a_node26"><a xlink:href="TransmitterCode_2src_2main_8cpp.html#a2149418bb038e4a09266523c3bde2fce" target="_top" xlink:title=" ">
<polygon fill="white" stroke="#666666" points="1229.5,-123 1144.5,-123 1144.5,-104 1229.5,-104 1229.5,-123"/>
<text text-anchor="middle" x="1187" y="-111" font-family="Helvetica,sans-Serif" font-size="10.00">EndModelSetup</text>
</a>
</g>
</g>
<!-- Node1&#45;&gt;Node26 -->
<g id="edge35" class="edge">
<title>Node1&#45;&gt;Node26</title>
<path fill="none" stroke="#63b8ff" d="M1270.06,-138.25C1253.91,-133.38 1235.9,-127.95 1220.88,-123.42"/>
<polygon fill="#63b8ff" stroke="#63b8ff" points="1268.86,-141.54 1279.45,-141.08 1270.88,-134.84 1268.86,-141.54"/>
</g>
<!-- Node27 -->
<g id="node27" class="node">
<title>Node27</title>
<g id="a_node27"><a xlink:href="TransmitterCode_2src_2main_8cpp.html#a17699f358cf9f7c3155a9c5daf8ff13c" target="_top" xlink:title=" ">
<polygon fill="white" stroke="#666666" points="1207.5,-86 1166.5,-86 1166.5,-67 1207.5,-67 1207.5,-86"/>
<text text-anchor="middle" x="1187" y="-74" font-family="Helvetica,sans-Serif" font-size="10.00">setup</text>
</a>
</g>
</g>
<!-- Node1&#45;&gt;Node27 -->
<g id="edge37" class="edge">
<title>Node1&#45;&gt;Node27</title>
<path fill="none" stroke="#63b8ff" d="M1294.7,-134.46C1279.96,-122.11 1258.72,-105.67 1238,-94.5 1228.42,-89.33 1217.05,-85.11 1207.57,-82.05"/>
<polygon fill="#63b8ff" stroke="#63b8ff" points="1292.36,-137.06 1302.23,-140.91 1296.91,-131.75 1292.36,-137.06"/>
</g>
<!-- Node3 -->
<g id="node3" class="node">
<title>Node3</title>
<g id="a_node3"><a xlink:href="TransmitterCode_2src_2main_8cpp.html#a558ea014e230b7caa54ce5a37ad29b22" target="_top" xlink:title=" ">
<polygon fill="white" stroke="#666666" points="267,-427 166,-427 166,-408 267,-408 267,-427"/>
<text text-anchor="middle" x="216.5" y="-415" font-family="Helvetica,sans-Serif" font-size="10.00">ManageTransmitter</text>
</a>
</g>
</g>
<!-- Node2&#45;&gt;Node3 -->
<g id="edge2" class="edge">
<title>Node2&#45;&gt;Node3</title>
<path fill="none" stroke="#63b8ff" d="M1000.61,-373.97C948.37,-390.82 852.36,-417.5 768,-417.5 768,-417.5 768,-417.5 536.5,-417.5 441.24,-417.5 329.99,-417.5 267.23,-417.5"/>
<polygon fill="#63b8ff" stroke="#63b8ff" points="1001.53,-377.35 1009.94,-370.9 999.34,-370.7 1001.53,-377.35"/>
</g>
<!-- Node4 -->
<g id="node4" class="node">
<title>Node4</title>
<g id="a_node4"><a xlink:href="TransmitterCode_2src_2main_8cpp.html#ad3cb30894c94eb016e98bdcaa899ac86" target="_top" xlink:title=" ">
<polygon fill="white" stroke="#666666" points="81.5,-427 46.5,-427 46.5,-408 81.5,-408 81.5,-427"/>
<text text-anchor="middle" x="64" y="-415" font-family="Helvetica,sans-Serif" font-size="10.00">loop</text>
</a>
</g>
</g>
<!-- Node3&#45;&gt;Node4 -->
<g id="edge3" class="edge">
<title>Node3&#45;&gt;Node4</title>
<path fill="none" stroke="#63b8ff" d="M154.37,-417.5C128.17,-417.5 99.6,-417.5 81.99,-417.5"/>
<polygon fill="#63b8ff" stroke="#63b8ff" points="154.29,-421 164.29,-417.5 154.29,-414 154.29,-421"/>
</g>
<!-- Node6 -->
<g id="node6" class="node">
<title>Node6</title>
<g id="a_node6"><a xlink:href="ModelMatch_8h.html#a494cb4acb30856d1f53f08df1b80c41b" target="_top" xlink:title=" ">
<polygon fill="white" stroke="#666666" points="1100,-277 981,-277 981,-258 1100,-258 1100,-277"/>
<text text-anchor="middle" x="1040.5" y="-265" font-family="Helvetica,sans-Serif" font-size="10.00">GetModelsMacAddress</text>
</a>
</g>
</g>
<!-- Node5&#45;&gt;Node6 -->
<g id="edge5" class="edge">
<title>Node5&#45;&gt;Node6</title>
<path fill="none" stroke="#63b8ff" d="M1139.08,-240.49C1118.95,-246.06 1095.82,-252.46 1077.13,-257.64"/>
<polygon fill="#63b8ff" stroke="#63b8ff" points="1139.75,-243.94 1148.45,-237.89 1137.88,-237.19 1139.75,-243.94"/>
</g>
<!-- Node7 -->
<g id="node7" class="node">
<title>Node7</title>
<g id="a_node7"><a xlink:href="TransmitterCode_2src_2main_8cpp.html#a694f4f5a0147f4dc29b0bc1a8951547d" target="_top" xlink:title=" ">
<polygon fill="white" stroke="#666666" points="945,-280 851,-280 851,-261 945,-261 945,-280"/>
<text text-anchor="middle" x="898" y="-268" font-family="Helvetica,sans-Serif" font-size="10.00">ParseAckPayload</text>
</a>
</g>
</g>
<!-- Node6&#45;&gt;Node7 -->
<g id="edge6" class="edge">
<title>Node6&#45;&gt;Node7</title>
<path fill="none" stroke="#63b8ff" d="M969.22,-269C961.05,-269.18 952.87,-269.35 945.14,-269.51"/>
<polygon fill="#63b8ff" stroke="#63b8ff" points="969.29,-272.5 979.22,-268.79 969.14,-265.5 969.29,-272.5"/>
</g>
<!-- Node8 -->
<g id="node8" class="node">
<title>Node8</title>
<g id="a_node8"><a xlink:href="transceiver_8h.html#a1c11bb6771548de7d96723045b922620" target="_top" xlink:title=" ">
<polygon fill="white" stroke="#666666" points="815,-289 719,-289 719,-270 815,-270 815,-289"/>
<text text-anchor="middle" x="767" y="-277" font-family="Helvetica,sans-Serif" font-size="10.00">SuccessfulPacket</text>
</a>
</g>
</g>
<!-- Node7&#45;&gt;Node8 -->
<g id="edge7" class="edge">
<title>Node7&#45;&gt;Node8</title>
<path fill="none" stroke="#63b8ff" d="M839.47,-274.51C831.35,-275.08 823.08,-275.66 815.19,-276.21"/>
<polygon fill="#63b8ff" stroke="#63b8ff" points="839.55,-278.02 849.28,-273.83 839.06,-271.03 839.55,-278.02"/>
</g>
<!-- Node9 -->
<g id="node9" class="node">
<title>Node9</title>
<g id="a_node9"><a xlink:href="transceiver_8h.html#a049bfb836e7aa4a3a48a1a4bd225fafc" target="_top" xlink:title=" ">
<polygon fill="white" stroke="#666666" points="683,-308 624,-308 624,-289 683,-289 683,-308"/>
<text text-anchor="middle" x="653.5" y="-296" font-family="Helvetica,sans-Serif" font-size="10.00">SendData</text>
</a>
</g>
</g>
<!-- Node8&#45;&gt;Node9 -->
<g id="edge8" class="edge">
<title>Node8&#45;&gt;Node9</title>
<path fill="none" stroke="#63b8ff" d="M707.39,-289.49C699.07,-290.91 690.83,-292.31 683.43,-293.57"/>
<polygon fill="#63b8ff" stroke="#63b8ff" points="707.95,-292.94 717.22,-287.81 706.78,-286.04 707.95,-292.94"/>
</g>
<!-- Node9&#45;&gt;Node4 -->
<g id="edge34" class="edge">
<title>Node9&#45;&gt;Node4</title>
<path fill="none" stroke="#63b8ff" d="M612.92,-310.82C604.72,-313.19 596.11,-315.53 588,-317.5 537.07,-329.84 166.05,-398.77 81.93,-414.37"/>
<polygon fill="#63b8ff" stroke="#63b8ff" points="613.71,-314.24 622.31,-308.05 611.73,-307.52 613.71,-314.24"/>
</g>
<!-- Node10 -->
<g id="node10" class="node">
<title>Node10</title>
<g id="a_node10"><a xlink:href="TransmitterCode_2src_2main_8cpp.html#a804fdbdd5eab4c596bbe8a23eecbe4d5" target="_top" xlink:title=" ">
<polygon fill="white" stroke="#666666" points="588,-308 487,-308 487,-289 588,-289 588,-308"/>
<text text-anchor="middle" x="537.5" y="-296" font-family="Helvetica,sans-Serif" font-size="10.00">ButtonWasPressed</text>
</a>
</g>
</g>
<!-- Node9&#45;&gt;Node10 -->
<g id="edge9" class="edge">
<title>Node9&#45;&gt;Node10</title>
<path fill="none" stroke="#63b8ff" d="M612.3,-298.5C604.48,-298.5 596.19,-298.5 588.11,-298.5"/>
<polygon fill="#63b8ff" stroke="#63b8ff" points="612.22,-302 622.22,-298.5 612.22,-295 612.22,-302"/>
</g>
<!-- Node11 -->
<g id="node11" class="node">
<title>Node11</title>
<g id="a_node11"><a xlink:href="Utilities_8h.html#afb7c85cac4aa89fd998ed81c330374d2" target="_top" xlink:title=" ">
<polygon fill="white" stroke="#666666" points="451,-313 305,-313 305,-294 451,-294 451,-313"/>
<text text-anchor="middle" x="378" y="-301" font-family="Helvetica,sans-Serif" font-size="10.00">CheckForNextionButtonPress</text>
</a>
</g>
</g>
<!-- Node10&#45;&gt;Node11 -->
<g id="edge10" class="edge">
<title>Node10&#45;&gt;Node11</title>
<path fill="none" stroke="#63b8ff" d="M475.32,-300.44C467.43,-300.69 459.29,-300.95 451.24,-301.21"/>
<polygon fill="#63b8ff" stroke="#63b8ff" points="475.27,-303.95 485.15,-300.13 475.05,-296.95 475.27,-303.95"/>
</g>
<!-- Node20 -->
<g id="node20" class="node">
<title>Node20</title>
<g id="a_node20"><a xlink:href="TransmitterCode_2src_2main_8cpp.html#ab7c9edf843c732d7fe296564f39bc0dc" target="_top" xlink:title="RECEIVE A MODEL FILE.">
<polygon fill="white" stroke="#666666" points="111,-56 17,-56 17,-37 111,-37 111,-56"/>
<text text-anchor="middle" x="64" y="-44" font-family="Helvetica,sans-Serif" font-size="10.00">ReceiveModelFile</text>
</a>
</g>
</g>
<!-- Node10&#45;&gt;Node20 -->
<g id="edge33" class="edge">
<title>Node10&#45;&gt;Node20</title>
<path fill="none" stroke="#63b8ff" d="M514.98,-282.01C498.3,-269.89 474.19,-253.81 451,-243.5 390.61,-216.64 212.5,-210.4 164,-165.5 129.03,-133.13 162.76,-97.1 128,-64.5 123.27,-60.06 117.52,-56.71 111.45,-54.18"/>
<polygon fill="#63b8ff" stroke="#63b8ff" points="512.55,-284.56 522.67,-287.7 516.72,-278.94 512.55,-284.56"/>
</g>
<!-- Node11&#45;&gt;Node3 -->
<g id="edge27" class="edge">
<title>Node11&#45;&gt;Node3</title>
<path fill="none" stroke="#63b8ff" d="M354.06,-319.9C320.49,-343.89 258.98,-387.85 231.46,-407.52"/>
<polygon fill="#63b8ff" stroke="#63b8ff" points="355.79,-322.96 361.89,-314.3 351.72,-317.26 355.79,-322.96"/>
</g>
<!-- Node12 -->
<g id="node12" class="node">
<title>Node12</title>
<g id="a_node12"><a xlink:href="TransmitterCode_2src_2main_8cpp.html#a641d6dab68ec7b2a8a32492aac55bc1c" target="_top" xlink:title=" ">
<polygon fill="white" stroke="#666666" points="269,-351 164,-351 164,-332 269,-332 269,-351"/>
<text text-anchor="middle" x="216.5" y="-339" font-family="Helvetica,sans-Serif" font-size="10.00">GetBackupFilename</text>
</a>
</g>
</g>
<!-- Node11&#45;&gt;Node12 -->
<g id="edge11" class="edge">
<title>Node11&#45;&gt;Node12</title>
<path fill="none" stroke="#63b8ff" d="M324.07,-316.11C303.04,-321.12 279.2,-326.8 259.4,-331.52"/>
<polygon fill="#63b8ff" stroke="#63b8ff" points="324.7,-319.56 333.62,-313.83 323.08,-312.75 324.7,-319.56"/>
</g>
<!-- Node14 -->
<g id="node14" class="node">
<title>Node14</title>
<g id="a_node14"><a xlink:href="TransmitterCode_2src_2main_8cpp.html#a6506bf72e0dd9e9ce480156b47625bff" target="_top" xlink:title=" ">
<polygon fill="white" stroke="#666666" points="259.5,-237 173.5,-237 173.5,-218 259.5,-218 259.5,-237"/>
<text text-anchor="middle" x="216.5" y="-225" font-family="Helvetica,sans-Serif" font-size="10.00">GetConfirmation</text>
</a>
</g>
</g>
<!-- Node11&#45;&gt;Node14 -->
<g id="edge14" class="edge">
<title>Node11&#45;&gt;Node14</title>
<path fill="none" stroke="#63b8ff" d="M326.41,-289.66C319,-286.78 311.64,-283.41 305,-279.5 286.29,-268.49 287.53,-257.8 269,-246.5 263.22,-242.98 256.69,-239.95 250.26,-237.41"/>
<polygon fill="#63b8ff" stroke="#63b8ff" points="325.19,-292.94 335.79,-293.02 327.55,-286.35 325.19,-292.94"/>
</g>
<!-- Node24 -->
<g id="node24" class="node">
<title>Node24</title>
<g id="a_node24"><a xlink:href="TransmitterCode_2src_2main_8cpp.html#a6f5b0f1e4ca75768c16c4dd93f92a8de" target="_top" xlink:title=" ">
<polygon fill="white" stroke="#666666" points="242.5,-274 190.5,-274 190.5,-255 242.5,-255 242.5,-274"/>
<text text-anchor="middle" x="216.5" y="-262" font-family="Helvetica,sans-Serif" font-size="10.00">MsgBox</text>
</a>
</g>
</g>
<!-- Node11&#45;&gt;Node24 -->
<g id="edge28" class="edge">
<title>Node11&#45;&gt;Node24</title>
<path fill="none" stroke="#63b8ff" d="M325.23,-290.84C297.55,-284.07 264.72,-276.05 242.64,-270.65"/>
<polygon fill="#63b8ff" stroke="#63b8ff" points="324.32,-294.22 334.87,-293.2 325.99,-287.42 324.32,-294.22"/>
</g>
<!-- Node12&#45;&gt;Node10 -->
<g id="edge12" class="edge">
<title>Node12&#45;&gt;Node10</title>
<path fill="none" stroke="#63b8ff" d="M280.63,-339.65C327.85,-337.47 393.86,-332.75 451,-322.5 469.67,-319.15 490.13,-313.48 506.36,-308.49"/>
<polygon fill="#63b8ff" stroke="#63b8ff" points="280.69,-336.14 270.85,-340.07 281,-343.14 280.69,-336.14"/>
</g>
<!-- Node13 -->
<g id="node13" class="node">
<title>Node13</title>
<g id="a_node13"><a xlink:href="TransmitterCode_2src_2main_8cpp.html#a9d94366336f1e5fd43edb9c24bec5821" target="_top" xlink:title=" ">
<polygon fill="white" stroke="#666666" points="98,-352 30,-352 30,-333 98,-333 98,-352"/>
<text text-anchor="middle" x="64" y="-340" font-family="Helvetica,sans-Serif" font-size="10.00">RenameFile</text>
</a>
</g>
</g>
<!-- Node12&#45;&gt;Node13 -->
<g id="edge13" class="edge">
<title>Node12&#45;&gt;Node13</title>
<path fill="none" stroke="#63b8ff" d="M152.36,-341.92C133.86,-342.04 114.35,-342.17 98.48,-342.28"/>
<polygon fill="#63b8ff" stroke="#63b8ff" points="152.22,-345.42 162.19,-341.85 152.17,-338.42 152.22,-345.42"/>
</g>
<!-- Node14&#45;&gt;Node10 -->
<g id="edge15" class="edge">
<title>Node14&#45;&gt;Node10</title>
<path fill="none" stroke="#63b8ff" d="M270.95,-239.4C332.89,-253.18 433.86,-275.65 491.81,-288.55"/>
<polygon fill="#63b8ff" stroke="#63b8ff" points="271.85,-236.01 261.33,-237.26 270.33,-242.84 271.85,-236.01"/>
</g>
<!-- Node14&#45;&gt;Node13 -->
<g id="edge23" class="edge">
<title>Node14&#45;&gt;Node13</title>
<path fill="none" stroke="#63b8ff" d="M167.95,-243.24C166.57,-244.26 165.25,-245.35 164,-246.5 135.96,-272.41 157,-299.66 128,-324.5 119.71,-331.6 108.77,-335.91 98.35,-338.52"/>
<polygon fill="#63b8ff" stroke="#63b8ff" points="169.65,-246.31 176.45,-238.18 166.07,-240.29 169.65,-246.31"/>
</g>
<!-- Node15 -->
<g id="node15" class="node">
<title>Node15</title>
<g id="a_node15"><a xlink:href="TransmitterCode_2src_2main_8cpp.html#ac45477c637c975e13189e2988c8813b3" target="_top" xlink:title=" ">
<polygon fill="white" stroke="#666666" points="104,-241 24,-241 24,-222 104,-222 104,-241"/>
<text text-anchor="middle" x="64" y="-229" font-family="Helvetica,sans-Serif" font-size="10.00">DeleteModelID</text>
</a>
</g>
</g>
<!-- Node14&#45;&gt;Node15 -->
<g id="edge16" class="edge">
<title>Node14&#45;&gt;Node15</title>
<path fill="none" stroke="#63b8ff" d="M161.71,-228.93C142.8,-229.43 121.93,-229.99 104.43,-230.45"/>
<polygon fill="#63b8ff" stroke="#63b8ff" points="161.76,-232.43 171.66,-228.67 161.57,-225.43 161.76,-232.43"/>
</g>
<!-- Node16 -->
<g id="node16" class="node">
<title>Node16</title>
<g id="a_node16"><a xlink:href="TransmitterCode_2src_2main_8cpp.html#a53d438145d004c3b053f245f494f4284" target="_top" xlink:title=" ">
<polygon fill="white" stroke="#666666" points="90,-130 38,-130 38,-111 90,-111 90,-130"/>
<text text-anchor="middle" x="64" y="-118" font-family="Helvetica,sans-Serif" font-size="10.00">DelLOG</text>
</a>
</g>
</g>
<!-- Node14&#45;&gt;Node16 -->
<g id="edge17" class="edge">
<title>Node14&#45;&gt;Node16</title>
<path fill="none" stroke="#63b8ff" d="M175.86,-212.26C171.59,-209.7 167.53,-206.79 164,-203.5 139.85,-180.98 153.85,-159.05 128,-138.5 117.31,-130.01 102.8,-125.52 90.4,-123.15"/>
<polygon fill="#63b8ff" stroke="#63b8ff" points="174.18,-215.33 184.67,-216.88 177.44,-209.14 174.18,-215.33"/>
</g>
<!-- Node17 -->
<g id="node17" class="node">
<title>Node17</title>
<g id="a_node17"><a xlink:href="TransmitterCode_2src_2main_8cpp.html#a16c65917a148c7f6c17babf11e977b69" target="_top" xlink:title=" ">
<polygon fill="white" stroke="#666666" points="105,-93 23,-93 23,-74 105,-74 105,-93"/>
<text text-anchor="middle" x="64" y="-81" font-family="Helvetica,sans-Serif" font-size="10.00">EndBuddyView</text>
</a>
</g>
</g>
<!-- Node14&#45;&gt;Node17 -->
<g id="edge18" class="edge">
<title>Node14&#45;&gt;Node17</title>
<path fill="none" stroke="#63b8ff" d="M174.25,-212.14C170.48,-209.64 166.97,-206.78 164,-203.5 131.69,-167.9 163.01,-134.44 128,-101.5 121.7,-95.58 113.59,-91.58 105.3,-88.9"/>
<polygon fill="#63b8ff" stroke="#63b8ff" points="172.25,-215.02 182.68,-216.87 175.68,-208.92 172.25,-215.02"/>
</g>
<!-- Node18 -->
<g id="node18" class="node">
<title>Node18</title>
<g id="a_node18"><a xlink:href="ModelMatch_8h.html#afdd42b1130d38073be1c2025af855879" target="_top" xlink:title=" ">
<polygon fill="white" stroke="#666666" points="98.5,-315 29.5,-315 29.5,-296 98.5,-296 98.5,-315"/>
<text text-anchor="middle" x="64" y="-303" font-family="Helvetica,sans-Serif" font-size="10.00">IDNotFound</text>
</a>
</g>
</g>
<!-- Node14&#45;&gt;Node18 -->
<g id="edge19" class="edge">
<title>Node14&#45;&gt;Node18</title>
<path fill="none" stroke="#63b8ff" d="M170.91,-242.29C168.51,-243.6 166.19,-245 164,-246.5 144.01,-260.23 148.49,-274.53 128,-287.5 119.25,-293.04 108.76,-296.91 98.88,-299.61"/>
<polygon fill="#63b8ff" stroke="#63b8ff" points="172.17,-245.57 179.7,-238.13 169.17,-239.25 172.17,-245.57"/>
</g>
<!-- Node14&#45;&gt;Node19 -->
<g id="edge21" class="edge">
<title>Node14&#45;&gt;Node19</title>
<path fill="none" stroke="#63b8ff" d="M196.96,-209.59C185.92,-197.97 172.45,-181.97 164,-165.5 135.06,-109.11 172.3,-72.84 128,-27.5 121.72,-21.07 113.32,-16.9 104.7,-14.2"/>
<polygon fill="#63b8ff" stroke="#63b8ff" points="194.24,-211.82 203.75,-216.48 199.23,-206.9 194.24,-211.82"/>
</g>
<!-- Node14&#45;&gt;Node20 -->
<g id="edge22" class="edge">
<title>Node14&#45;&gt;Node20</title>
<path fill="none" stroke="#63b8ff" d="M172.95,-211.68C169.63,-209.3 166.57,-206.59 164,-203.5 123.18,-154.45 172.56,-110.18 128,-64.5 123.39,-59.78 117.64,-56.27 111.5,-53.67"/>
<polygon fill="#63b8ff" stroke="#63b8ff" points="171.14,-214.68 181.53,-216.76 174.71,-208.66 171.14,-214.68"/>
</g>
<!-- Node21 -->
<g id="node21" class="node">
<title>Node21</title>
<g id="a_node21"><a xlink:href="TransmitterCode_2src_2main_8cpp.html#a5c7f22bae35d5d6df9d54fe79dbb8401" target="_top" xlink:title=" ">
<polygon fill="white" stroke="#666666" points="128,-204 0,-204 0,-185 128,-185 128,-204"/>
<text text-anchor="middle" x="64" y="-192" font-family="Helvetica,sans-Serif" font-size="10.00">ResetTransmitterSettings</text>
</a>
</g>
</g>
<!-- Node14&#45;&gt;Node21 -->
<g id="edge24" class="edge">
<title>Node14&#45;&gt;Node21</title>
<path fill="none" stroke="#63b8ff" d="M162.31,-215.84C145.36,-212.12 126.77,-208.05 110.43,-204.46"/>
<polygon fill="#63b8ff" stroke="#63b8ff" points="161.18,-219.17 171.7,-217.9 162.68,-212.34 161.18,-219.17"/>
</g>
<!-- Node22 -->
<g id="node22" class="node">
<title>Node22</title>
<g id="a_node22"><a xlink:href="TransmitterCode_2src_2main_8cpp.html#a3838aa0b33bb22d3b9934da05d2716d8" target="_top" xlink:title=" ">
<polygon fill="white" stroke="#666666" points="102,-278 26,-278 26,-259 102,-259 102,-278"/>
<text text-anchor="middle" x="64" y="-266" font-family="Helvetica,sans-Serif" font-size="10.00">StoreModelID</text>
</a>
</g>
</g>
<!-- Node14&#45;&gt;Node22 -->
<g id="edge25" class="edge">
<title>Node14&#45;&gt;Node22</title>
<path fill="none" stroke="#63b8ff" d="M168.19,-240.39C146.7,-246.24 121.65,-253.07 101.62,-258.52"/>
<polygon fill="#63b8ff" stroke="#63b8ff" points="168.88,-243.83 177.61,-237.82 167.04,-237.07 168.88,-243.83"/>
</g>
<!-- Node23 -->
<g id="node23" class="node">
<title>Node23</title>
<g id="a_node23"><a xlink:href="TransmitterCode_2src_2main_8cpp.html#a3c55ef7c23759a89a86f6519569c4f7a" target="_top" xlink:title=" ">
<polygon fill="white" stroke="#666666" points="113.5,-167 14.5,-167 14.5,-148 113.5,-148 113.5,-167"/>
<text text-anchor="middle" x="64" y="-155" font-family="Helvetica,sans-Serif" font-size="10.00">TXModuleViewEnd</text>
</a>
</g>
</g>
<!-- Node14&#45;&gt;Node23 -->
<g id="edge26" class="edge">
<title>Node14&#45;&gt;Node23</title>
<path fill="none" stroke="#63b8ff" d="M181.07,-212.77C175.25,-209.91 169.37,-206.78 164,-203.5 146.7,-192.93 146.07,-184.67 128,-175.5 121.81,-172.36 115,-169.69 108.2,-167.45"/>
<polygon fill="#63b8ff" stroke="#63b8ff" points="179.42,-215.87 189.96,-216.95 182.4,-209.53 179.42,-215.87"/>
</g>
<!-- Node18&#45;&gt;Node5 -->
<g id="edge20" class="edge">
<title>Node18&#45;&gt;Node5</title>
<path fill="none" stroke="#63b8ff" d="M110.06,-301.93C151.51,-298.34 214.6,-292.11 269,-283.5 388.97,-264.52 415.03,-227.5 536.5,-227.5 899,-227.5 899,-227.5 899,-227.5 981.96,-227.5 1078.41,-227.5 1135.71,-227.5"/>
<polygon fill="#63b8ff" stroke="#63b8ff" points="109.88,-298.43 100.21,-302.77 110.47,-305.41 109.88,-298.43"/>
</g>
<!-- Node24&#45;&gt;Node15 -->
<g id="edge29" class="edge">
<title>Node24&#45;&gt;Node15</title>
<path fill="none" stroke="#63b8ff" d="M179.16,-256.53C156.58,-251.58 127.57,-245.22 104.44,-240.15"/>
<polygon fill="#63b8ff" stroke="#63b8ff" points="178.31,-259.93 188.83,-258.65 179.81,-253.09 178.31,-259.93"/>
</g>
<!-- Node24&#45;&gt;Node18 -->
<g id="edge30" class="edge">
<title>Node24&#45;&gt;Node18</title>
<path fill="none" stroke="#63b8ff" d="M179.31,-274.36C154.83,-281.03 122.71,-289.78 98.75,-296.31"/>
<polygon fill="#63b8ff" stroke="#63b8ff" points="180.12,-277.77 188.85,-271.76 178.28,-271.01 180.12,-277.77"/>
</g>
<!-- Node24&#45;&gt;Node22 -->
<g id="edge32" class="edge">
<title>Node24&#45;&gt;Node22</title>
<path fill="none" stroke="#63b8ff" d="M178.86,-265.47C155.67,-266.09 125.76,-266.89 102.42,-267.51"/>
<polygon fill="#63b8ff" stroke="#63b8ff" points="178.89,-268.97 188.8,-265.21 178.71,-261.98 178.89,-268.97"/>
</g>
<!-- Node25 -->
<g id="node25" class="node">
<title>Node25</title>
<g id="a_node25"><a xlink:href="TransmitterCode_2src_2main_8cpp.html#ac36bdea2efcd030a336293af16f5dc09" target="_top" xlink:title=" ">
<polygon fill="white" stroke="#666666" points="106.5,-389 21.5,-389 21.5,-370 106.5,-370 106.5,-389"/>
<text text-anchor="middle" x="64" y="-377" font-family="Helvetica,sans-Serif" font-size="10.00">ShowRemoteID</text>
</a>
</g>
</g>
<!-- Node24&#45;&gt;Node25 -->
<g id="edge31" class="edge">
<title>Node24&#45;&gt;Node25</title>
<path fill="none" stroke="#63b8ff" d="M199.75,-282.47C175.78,-309.74 132.43,-358.74 128,-361.5 121.53,-365.53 114.14,-368.69 106.74,-371.15"/>
<polygon fill="#63b8ff" stroke="#63b8ff" points="202.09,-285.11 206.05,-275.29 196.83,-280.49 202.09,-285.11"/>
</g>
</g>
</svg>
