<?xml version="1.0" encoding="UTF-8" standalone="no"?>
<!DOCTYPE svg PUBLIC "-//W3C//DTD SVG 1.1//EN"
 "http://www.w3.org/Graphics/SVG/1.1/DTD/svg11.dtd">
<!-- Generated by graphviz version 7.0.5 (20221223.1930)
 -->
<!-- Title: CheckModelName Pages: 1 -->
<svg width="1474pt" height="947pt"
 viewBox="0.00 0.00 1474.00 947.46" xmlns="http://www.w3.org/2000/svg" xmlns:xlink="http://www.w3.org/1999/xlink">
<g id="graph0" class="graph" transform="scale(1 1) rotate(0) translate(4 943.46)">
<title>CheckModelName</title>
<!-- Node1 -->
<g id="node1" class="node">
<title>Node1</title>
<g id="a_node1"><a xlink:title=" ">
<polygon fill="#999999" stroke="#666666" points="97,-477.5 0,-477.5 0,-458.5 97,-458.5 97,-477.5"/>
<text text-anchor="middle" x="48.5" y="-465.5" font-family="Helvetica,sans-Serif" font-size="10.00">CheckModelName</text>
</a>
</g>
</g>
<!-- Node2 -->
<g id="node2" class="node">
<title>Node2</title>
<g id="a_node2"><a xlink:href="TransmitterCode_2src_2main_8cpp.html#af0852678d8e89501acee8951f09d3b43" target="_top" xlink:title=" ">
<polygon fill="white" stroke="#666666" points="191,-704.5 133,-704.5 133,-685.5 191,-685.5 191,-704.5"/>
<text text-anchor="middle" x="162" y="-692.5" font-family="Helvetica,sans-Serif" font-size="10.00">ClearText</text>
</a>
</g>
</g>
<!-- Node1&#45;&gt;Node2 -->
<g id="edge1" class="edge">
<title>Node1&#45;&gt;Node2</title>
<path fill="none" stroke="#63b8ff" d="M51.75,-477.69C59.21,-508.37 85.43,-605.23 133,-671 134.67,-673.31 136.62,-675.55 138.68,-677.67"/>
<polygon fill="#63b8ff" stroke="#63b8ff" points="136.06,-680.02 145.83,-684.12 140.75,-674.82 136.06,-680.02"/>
</g>
<!-- Node3 -->
<g id="node3" class="node">
<title>Node3</title>
<g id="a_node3"><a xlink:href="TransmitterCode_2src_2main_8cpp.html#a6e4fac4e296c09388b8b56353402d67a" target="_top" xlink:title=" ">
<polygon fill="white" stroke="#666666" points="190.5,-553.5 133.5,-553.5 133.5,-534.5 190.5,-534.5 190.5,-553.5"/>
<text text-anchor="middle" x="162" y="-541.5" font-family="Helvetica,sans-Serif" font-size="10.00">GetValue</text>
</a>
</g>
</g>
<!-- Node1&#45;&gt;Node3 -->
<g id="edge2" class="edge">
<title>Node1&#45;&gt;Node3</title>
<path fill="none" stroke="#63b8ff" d="M64.08,-477.94C82.61,-490.57 114.85,-512.54 137.03,-527.66"/>
<polygon fill="#63b8ff" stroke="#63b8ff" points="134.93,-530.47 145.17,-533.21 138.88,-524.69 134.93,-530.47"/>
</g>
<!-- Node30 -->
<g id="node24" class="node">
<title>Node30</title>
<g id="a_node24"><a xlink:href="TransmitterCode_2src_2main_8cpp.html#afe513398f72d5e48f691830a1ef6eb42" target="_top" xlink:title=" ">
<polygon fill="white" stroke="#666666" points="1105.5,-180.5 1047.5,-180.5 1047.5,-161.5 1105.5,-161.5 1105.5,-180.5"/>
<text text-anchor="middle" x="1076.5" y="-168.5" font-family="Helvetica,sans-Serif" font-size="10.00">SendText</text>
</a>
</g>
</g>
<!-- Node1&#45;&gt;Node30 -->
<g id="edge66" class="edge">
<title>Node1&#45;&gt;Node30</title>
<path fill="none" stroke="#63b8ff" d="M51.28,-458.2C61.55,-404.86 118.35,-152 272,-152 272,-152 272,-152 750,-152 853.22,-152 974.54,-161.64 1035.8,-167.19"/>
<polygon fill="#63b8ff" stroke="#63b8ff" points="1035.45,-170.67 1045.72,-168.1 1036.09,-163.7 1035.45,-170.67"/>
</g>
<!-- Node109 -->
<g id="node32" class="node">
<title>Node109</title>
<g id="a_node32"><a xlink:href="TransmitterCode_2src_2main_8cpp.html#a83944fc0ecaab86d0bbb0802e99e5084" target="_top" xlink:title=" ">
<polygon fill="white" stroke="#666666" points="528,-817.5 450,-817.5 450,-798.5 528,-798.5 528,-817.5"/>
<text text-anchor="middle" x="489" y="-805.5" font-family="Helvetica,sans-Serif" font-size="10.00">LogThisModel</text>
</a>
</g>
</g>
<!-- Node1&#45;&gt;Node109 -->
<g id="edge43" class="edge">
<title>Node1&#45;&gt;Node109</title>
<path fill="none" stroke="#63b8ff" d="M56.85,-477.87C70.6,-495.96 101.66,-535.13 133,-563 245.14,-662.73 399.26,-756.46 460.91,-792.47"/>
<polygon fill="#63b8ff" stroke="#63b8ff" points="458.94,-795.37 469.35,-797.37 462.46,-789.32 458.94,-795.37"/>
</g>
<!-- Node83 -->
<g id="node33" class="node">
<title>Node83</title>
<g id="a_node33"><a xlink:href="TransmitterCode_2src_2main_8cpp.html#ac7a5ec6cf2ed7b50bd291f821e886302" target="_top" xlink:title=" ">
<polygon fill="white" stroke="#666666" points="790.5,-402.5 707.5,-402.5 707.5,-383.5 790.5,-383.5 790.5,-402.5"/>
<text text-anchor="middle" x="749" y="-390.5" font-family="Helvetica,sans-Serif" font-size="10.00">ReadOneModel</text>
</a>
</g>
</g>
<!-- Node1&#45;&gt;Node83 -->
<g id="edge45" class="edge">
<title>Node1&#45;&gt;Node83</title>
<path fill="none" stroke="#63b8ff" d="M72.72,-458.12C112.67,-442.04 197.31,-412 272,-412 272,-412 272,-412 490,-412 561.61,-412 644.1,-404.63 696.14,-399.07"/>
<polygon fill="#63b8ff" stroke="#63b8ff" points="696.34,-402.57 705.9,-398.01 695.58,-395.61 696.34,-402.57"/>
</g>
<!-- Node53 -->
<g id="node47" class="node">
<title>Node53</title>
<g id="a_node47"><a xlink:href="TransmitterCode_2src_2main_8cpp.html#a1e20efc1e419b252b50d36f9924503fc" target="_top" xlink:title=" ">
<polygon fill="white" stroke="#666666" points="1108.5,-496.5 1044.5,-496.5 1044.5,-477.5 1108.5,-477.5 1108.5,-496.5"/>
<text text-anchor="middle" x="1076.5" y="-484.5" font-family="Helvetica,sans-Serif" font-size="10.00">SendValue</text>
</a>
</g>
</g>
<!-- Node1&#45;&gt;Node53 -->
<g id="edge67" class="edge">
<title>Node1&#45;&gt;Node53</title>
<path fill="none" stroke="#63b8ff" d="M97.14,-474.43C142.13,-479.94 211.52,-487 272,-487 272,-487 272,-487 750,-487 851.4,-487 970.57,-487 1032.78,-487"/>
<polygon fill="#63b8ff" stroke="#63b8ff" points="1032.56,-490.5 1042.56,-487 1032.56,-483.5 1032.56,-490.5"/>
</g>
<!-- Node110 -->
<g id="node48" class="node">
<title>Node110</title>
<g id="a_node48"><a xlink:href="TransmitterCode_2src_2main_8cpp.html#aa337d6e5cf496fbca7cdc61818f8239a" target="_top" xlink:title="updates display in textbox">
<polygon fill="white" stroke="#666666" points="319,-123.5 227,-123.5 227,-104.5 319,-104.5 319,-123.5"/>
<text text-anchor="middle" x="273" y="-111.5" font-family="Helvetica,sans-Serif" font-size="10.00">ShowFileNumber</text>
</a>
</g>
</g>
<!-- Node1&#45;&gt;Node110 -->
<g id="edge68" class="edge">
<title>Node1&#45;&gt;Node110</title>
<path fill="none" stroke="#63b8ff" d="M50.58,-458.01C56.2,-407.79 83.78,-183.57 133,-138 154.87,-117.75 187.37,-111.33 215.45,-110.17"/>
<polygon fill="#63b8ff" stroke="#63b8ff" points="215.31,-113.67 225.25,-109.99 215.19,-106.67 215.31,-113.67"/>
</g>
<!-- Node81 -->
<g id="node49" class="node">
<title>Node81</title>
<g id="a_node49"><a xlink:href="TransmitterCode_2src_2main_8cpp.html#a9e1de754e1d2d483fb15957f70cf0488" target="_top" xlink:title=" ">
<polygon fill="white" stroke="#666666" points="828,-66.5 670,-66.5 670,-47.5 828,-47.5 828,-66.5"/>
<text text-anchor="middle" x="749" y="-54.5" font-family="Helvetica,sans-Serif" font-size="10.00">UpdateModelsNameEveryWhere</text>
</a>
</g>
</g>
<!-- Node1&#45;&gt;Node81 -->
<g id="edge70" class="edge">
<title>Node1&#45;&gt;Node81</title>
<path fill="none" stroke="#63b8ff" d="M50.4,-458.26C55.39,-406.15 81.42,-160.81 133,-109 177.8,-64 208.51,-76 272,-76 272,-76 272,-76 490,-76 546.04,-76 608.75,-71.49 658.31,-66.86"/>
<polygon fill="#63b8ff" stroke="#63b8ff" points="658.51,-70.35 668.13,-65.92 657.85,-63.39 658.51,-70.35"/>
</g>
<!-- Node4 -->
<g id="node4" class="node">
<title>Node4</title>
<g id="a_node4"><a xlink:href="TransmitterCode_2src_2main_8cpp.html#aff6fa8906188d3249b01bf59de47df2f" target="_top" xlink:title=" ">
<polygon fill="white" stroke="#666666" points="299.5,-591.5 246.5,-591.5 246.5,-572.5 299.5,-572.5 299.5,-591.5"/>
<text text-anchor="middle" x="273" y="-579.5" font-family="Helvetica,sans-Serif" font-size="10.00">getvalue</text>
</a>
</g>
</g>
<!-- Node3&#45;&gt;Node4 -->
<g id="edge3" class="edge">
<title>Node3&#45;&gt;Node4</title>
<path fill="none" stroke="#63b8ff" d="M190.79,-553.69C204.36,-558.42 220.86,-564.17 235.44,-569.26"/>
<polygon fill="#63b8ff" stroke="#63b8ff" points="234.11,-572.5 244.71,-572.48 236.42,-565.89 234.11,-572.5"/>
</g>
<!-- Node6 -->
<g id="node6" class="node">
<title>Node6</title>
<g id="a_node6"><a xlink:href="TransmitterCode_2src_2main_8cpp.html#a760609a682300dfe6bfaac737fd4d5eb" target="_top" xlink:title=" ">
<polygon fill="white" stroke="#666666" points="526,-648.5 452,-648.5 452,-629.5 526,-629.5 526,-648.5"/>
<text text-anchor="middle" x="489" y="-636.5" font-family="Helvetica,sans-Serif" font-size="10.00">Procrastinate</text>
</a>
</g>
</g>
<!-- Node3&#45;&gt;Node6 -->
<g id="edge42" class="edge">
<title>Node3&#45;&gt;Node6</title>
<path fill="none" stroke="#63b8ff" d="M190.95,-540.14C239.06,-534.78 339.5,-529.31 414,-564 440.18,-576.19 462.22,-601.87 475.26,-619.77"/>
<polygon fill="#63b8ff" stroke="#63b8ff" points="472.25,-621.57 480.84,-627.77 477.99,-617.56 472.25,-621.57"/>
</g>
<!-- Node5 -->
<g id="node5" class="node">
<title>Node5</title>
<g id="a_node5"><a xlink:href="TransmitterCode_2src_2main_8cpp.html#ad7b8aa834c87265667a5687b1787a1cc" target="_top" xlink:title=" ">
<polygon fill="white" stroke="#666666" points="412.5,-628.5 356.5,-628.5 356.5,-609.5 412.5,-609.5 412.5,-628.5"/>
<text text-anchor="middle" x="384.5" y="-616.5" font-family="Helvetica,sans-Serif" font-size="10.00">EndSend</text>
</a>
</g>
</g>
<!-- Node4&#45;&gt;Node5 -->
<g id="edge4" class="edge">
<title>Node4&#45;&gt;Node5</title>
<path fill="none" stroke="#63b8ff" d="M299.95,-590.77C313.59,-595.38 330.56,-601.11 345.64,-606.21"/>
<polygon fill="#63b8ff" stroke="#63b8ff" points="344.18,-609.41 354.77,-609.29 346.42,-602.78 344.18,-609.41"/>
</g>
<!-- Node108 -->
<g id="node31" class="node">
<title>Node108</title>
<g id="a_node31"><a xlink:href="TransmitterCode_2src_2main_8cpp.html#a6fe457db5d6bc71ccb447dee824abf6a" target="_top" xlink:title=" ">
<polygon fill="white" stroke="#666666" points="414,-591.5 355,-591.5 355,-572.5 414,-572.5 414,-591.5"/>
<text text-anchor="middle" x="384.5" y="-579.5" font-family="Helvetica,sans-Serif" font-size="10.00">GetTextIn</text>
</a>
</g>
</g>
<!-- Node4&#45;&gt;Node108 -->
<g id="edge41" class="edge">
<title>Node4&#45;&gt;Node108</title>
<path fill="none" stroke="#63b8ff" d="M299.95,-582C312.92,-582 328.92,-582 343.42,-582"/>
<polygon fill="#63b8ff" stroke="#63b8ff" points="343.14,-585.5 353.14,-582 343.14,-578.5 343.14,-585.5"/>
</g>
<!-- Node5&#45;&gt;Node6 -->
<g id="edge5" class="edge">
<title>Node5&#45;&gt;Node6</title>
<path fill="none" stroke="#63b8ff" d="M412.97,-624.36C421.4,-626 430.94,-627.87 440.31,-629.69"/>
<polygon fill="#63b8ff" stroke="#63b8ff" points="439.61,-633.12 450.1,-631.6 440.95,-626.25 439.61,-633.12"/>
</g>
<!-- Node7 -->
<g id="node7" class="node">
<title>Node7</title>
<g id="a_node7"><a xlink:href="ReceiverCode_2src_2main_8cpp.html#ada95a00a341e4a80176eda743a94ab2e" target="_top" xlink:title=" ">
<polygon fill="white" stroke="#666666" points="634,-799.5 564,-799.5 564,-780.5 634,-780.5 634,-799.5"/>
<text text-anchor="middle" x="599" y="-787.5" font-family="Helvetica,sans-Serif" font-size="10.00">KickTheDog</text>
</a>
</g>
</g>
<!-- Node6&#45;&gt;Node7 -->
<g id="edge6" class="edge">
<title>Node6&#45;&gt;Node7</title>
<path fill="none" stroke="#63b8ff" d="M493.27,-648.92C501.6,-672.83 525.68,-734.47 564,-772 564.49,-772.48 565,-772.95 565.52,-773.42"/>
<polygon fill="#63b8ff" stroke="#63b8ff" points="563.42,-776.22 573.59,-779.19 567.49,-770.52 563.42,-776.22"/>
</g>
<!-- Node8 -->
<g id="node8" class="node">
<title>Node8</title>
<g id="a_node8"><a xlink:href="TransmitterCode_2src_2main_8cpp.html#a049bfb836e7aa4a3a48a1a4bd225fafc" target="_top" xlink:title=" ">
<polygon fill="white" stroke="#666666" points="628.5,-762.5 569.5,-762.5 569.5,-743.5 628.5,-743.5 628.5,-762.5"/>
<text text-anchor="middle" x="599" y="-750.5" font-family="Helvetica,sans-Serif" font-size="10.00">SendData</text>
</a>
</g>
</g>
<!-- Node6&#45;&gt;Node8 -->
<g id="edge7" class="edge">
<title>Node6&#45;&gt;Node8</title>
<path fill="none" stroke="#63b8ff" d="M499.21,-648.72C517.38,-667.9 558.09,-710.88 581.18,-735.25"/>
<polygon fill="#63b8ff" stroke="#63b8ff" points="578.36,-737.35 587.77,-742.21 583.44,-732.54 578.36,-737.35"/>
</g>
<!-- Node9 -->
<g id="node9" class="node">
<title>Node9</title>
<g id="a_node9"><a xlink:href="TransmitterCode_2src_2main_8cpp.html#a1ddd5e8d5bd649dd98ce3710fbff651b" target="_top" xlink:title=" ">
<polygon fill="white" stroke="#666666" points="779.5,-911.5 718.5,-911.5 718.5,-892.5 779.5,-892.5 779.5,-911.5"/>
<text text-anchor="middle" x="749" y="-899.5" font-family="Helvetica,sans-Serif" font-size="10.00">Compress</text>
</a>
</g>
</g>
<!-- Node8&#45;&gt;Node9 -->
<g id="edge8" class="edge">
<title>Node8&#45;&gt;Node9</title>
<path fill="none" stroke="#63b8ff" d="M623.36,-762.93C627.32,-765.43 631.09,-768.44 634,-772 667.12,-812.45 631.5,-848.62 670,-884 679.97,-893.17 693.65,-897.96 706.78,-900.39"/>
<polygon fill="#63b8ff" stroke="#63b8ff" points="706.17,-903.84 716.56,-901.75 707.14,-896.9 706.17,-903.84"/>
</g>
<!-- Node10 -->
<g id="node10" class="node">
<title>Node10</title>
<g id="a_node10"><a xlink:href="TransmitterCode_2src_2main_8cpp.html#a5fbd3c8613a4163425c94965704ce5f8" target="_top" xlink:title=" ">
<polygon fill="#fff0f0" stroke="red" points="786,-874.5 712,-874.5 712,-855.5 786,-855.5 786,-874.5"/>
<text text-anchor="middle" x="749" y="-862.5" font-family="Helvetica,sans-Serif" font-size="10.00">FailedPacket</text>
</a>
</g>
</g>
<!-- Node8&#45;&gt;Node10 -->
<g id="edge9" class="edge">
<title>Node8&#45;&gt;Node10</title>
<path fill="none" stroke="#63b8ff" d="M622.28,-762.84C626.52,-765.4 630.67,-768.45 634,-772 659.32,-798.94 641.13,-823.89 670,-847 678.7,-853.96 689.59,-858.33 700.46,-861.04"/>
<polygon fill="#63b8ff" stroke="#63b8ff" points="699.7,-864.46 710.2,-863.01 701.09,-857.6 699.7,-864.46"/>
</g>
<!-- Node39 -->
<g id="node26" class="node">
<title>Node39</title>
<g id="a_node26"><a xlink:href="TransmitterCode_2src_2main_8cpp.html#a07c27b4e208198453c70876517926052" target="_top" xlink:title=" ">
<polygon fill="white" stroke="#666666" points="780,-724.5 718,-724.5 718,-705.5 780,-705.5 780,-724.5"/>
<text text-anchor="middle" x="749" y="-712.5" font-family="Helvetica,sans-Serif" font-size="10.00">FlushFifos</text>
</a>
</g>
</g>
<!-- Node8&#45;&gt;Node39 -->
<g id="edge32" class="edge">
<title>Node8&#45;&gt;Node39</title>
<path fill="none" stroke="#63b8ff" d="M628.89,-745.58C651.06,-739.89 681.98,-731.95 706.76,-725.59"/>
<polygon fill="#63b8ff" stroke="#63b8ff" points="707.38,-729.04 716.19,-723.17 705.64,-722.26 707.38,-729.04"/>
</g>
<!-- Node38 -->
<g id="node27" class="node">
<title>Node38</title>
<g id="a_node27"><a xlink:href="radio_8h.html#a6e2d4126d864c50e7c23c988c2bfdd1a" target="_top" xlink:title=" ">
<polygon fill="white" stroke="#666666" points="948.5,-761.5 901.5,-761.5 901.5,-742.5 948.5,-742.5 948.5,-761.5"/>
<text text-anchor="middle" x="925" y="-749.5" font-family="Helvetica,sans-Serif" font-size="10.00">Radio1</text>
</a>
</g>
</g>
<!-- Node8&#45;&gt;Node38 -->
<g id="edge36" class="edge">
<title>Node8&#45;&gt;Node38</title>
<path fill="none" stroke="#63b8ff" d="M628.75,-752.91C688.41,-752.73 825.4,-752.3 889.61,-752.11"/>
<polygon fill="#63b8ff" stroke="#63b8ff" points="889.57,-755.61 899.56,-752.08 889.55,-748.61 889.57,-755.61"/>
</g>
<!-- Node40 -->
<g id="node28" class="node">
<title>Node40</title>
<g id="a_node28"><a xlink:href="TransmitterCode_2src_2main_8cpp.html#ac4ffb9b555ce8d38f615610dc89b5499" target="_top" xlink:title=" ">
<polygon fill="#fff0f0" stroke="red" points="1121,-686.5 1032,-686.5 1032,-667.5 1121,-667.5 1121,-686.5"/>
<text text-anchor="middle" x="1076.5" y="-674.5" font-family="Helvetica,sans-Serif" font-size="10.00">LoadPacketData</text>
</a>
</g>
</g>
<!-- Node8&#45;&gt;Node40 -->
<g id="edge34" class="edge">
<title>Node8&#45;&gt;Node40</title>
<path fill="none" stroke="#63b8ff" d="M608.32,-743.3C620.37,-730.05 644.09,-706.81 670,-697 788.43,-652.15 940.35,-660.4 1020.43,-669.31"/>
<polygon fill="#63b8ff" stroke="#63b8ff" points="1019.87,-672.77 1030.2,-670.45 1020.68,-665.82 1019.87,-672.77"/>
</g>
<!-- Node43 -->
<g id="node29" class="node">
<title>Node43</title>
<g id="a_node29"><a xlink:href="TransmitterCode_2src_2main_8cpp.html#a784a1eca0361b3991bca899167cc1cdb" target="_top" xlink:title=" ">
<polygon fill="white" stroke="#666666" points="786.5,-800.5 711.5,-800.5 711.5,-781.5 786.5,-781.5 786.5,-800.5"/>
<text text-anchor="middle" x="749" y="-788.5" font-family="Helvetica,sans-Serif" font-size="10.00">SendViaPPM</text>
</a>
</g>
</g>
<!-- Node8&#45;&gt;Node43 -->
<g id="edge37" class="edge">
<title>Node8&#45;&gt;Node43</title>
<path fill="none" stroke="#63b8ff" d="M628.89,-760.42C649.06,-765.6 676.46,-772.63 699.89,-778.65"/>
<polygon fill="#63b8ff" stroke="#63b8ff" points="699.01,-782.03 709.56,-781.13 700.75,-775.25 699.01,-782.03"/>
</g>
<!-- Node44 -->
<g id="node30" class="node">
<title>Node44</title>
<g id="a_node30"><a xlink:href="TransmitterCode_2src_2main_8cpp.html#a1c11bb6771548de7d96723045b922620" target="_top" xlink:title=" ">
<polygon fill="#fff0f0" stroke="red" points="797,-837.5 701,-837.5 701,-818.5 797,-818.5 797,-837.5"/>
<text text-anchor="middle" x="749" y="-825.5" font-family="Helvetica,sans-Serif" font-size="10.00">SuccessfulPacket</text>
</a>
</g>
</g>
<!-- Node8&#45;&gt;Node44 -->
<g id="edge38" class="edge">
<title>Node8&#45;&gt;Node44</title>
<path fill="none" stroke="#63b8ff" d="M620.06,-762.88C624.81,-765.58 629.73,-768.68 634,-772 652.36,-786.28 649.81,-798.45 670,-810 676.1,-813.49 682.82,-816.3 689.7,-818.57"/>
<polygon fill="#63b8ff" stroke="#63b8ff" points="688.52,-821.87 699.09,-821.28 690.46,-815.14 688.52,-821.87"/>
</g>
<!-- Node11 -->
<g id="node11" class="node">
<title>Node11</title>
<g id="a_node11"><a xlink:href="TransmitterCode_2src_2main_8cpp.html#afd409fe008843b50c3e2ff697558d4d5" target="_top" xlink:title=" ">
<polygon fill="white" stroke="#666666" points="971,-911.5 879,-911.5 879,-892.5 971,-892.5 971,-911.5"/>
<text text-anchor="middle" x="925" y="-899.5" font-family="Helvetica,sans-Serif" font-size="10.00">LogThisLongGap</text>
</a>
</g>
</g>
<!-- Node10&#45;&gt;Node11 -->
<g id="edge10" class="edge">
<title>Node10&#45;&gt;Node11</title>
<path fill="none" stroke="#63b8ff" d="M786.48,-872.76C809.93,-877.74 840.89,-884.33 867.49,-889.98"/>
<polygon fill="#63b8ff" stroke="#63b8ff" points="866.6,-893.37 877.11,-892.03 868.05,-886.52 866.6,-893.37"/>
</g>
<!-- Node22 -->
<g id="node19" class="node">
<title>Node22</title>
<g id="a_node19"><a xlink:href="TransmitterCode_2src_2main_8cpp.html#afc091b5942e21a03f6dc8635d5e519ba" target="_top" xlink:title=" ">
<polygon fill="white" stroke="#666666" points="986,-798.5 864,-798.5 864,-779.5 986,-779.5 986,-798.5"/>
<text text-anchor="middle" x="925" y="-786.5" font-family="Helvetica,sans-Serif" font-size="10.00">RecordsPacketSuccess</text>
</a>
</g>
</g>
<!-- Node10&#45;&gt;Node22 -->
<g id="edge20" class="edge">
<title>Node10&#45;&gt;Node22</title>
<path fill="none" stroke="#63b8ff" d="M786.23,-861.25C799.99,-858.67 815.38,-854.33 828,-847 848.4,-835.15 844.09,-820.65 864,-808 866.59,-806.35 869.34,-804.84 872.17,-803.45"/>
<polygon fill="#63b8ff" stroke="#63b8ff" points="873.5,-806.69 881.31,-799.53 870.74,-800.25 873.5,-806.69"/>
</g>
<!-- Node23 -->
<g id="node20" class="node">
<title>Node23</title>
<g id="a_node20"><a xlink:href="TransmitterCode_2src_2main_8cpp.html#a7d34cec6e8edc20c8b50424e15dcc7c7" target="_top" xlink:title=" ">
<polygon fill="#fff0f0" stroke="red" points="956.5,-835.5 893.5,-835.5 893.5,-816.5 956.5,-816.5 956.5,-835.5"/>
<text text-anchor="middle" x="925" y="-823.5" font-family="Helvetica,sans-Serif" font-size="10.00">RedLedOn</text>
</a>
</g>
</g>
<!-- Node10&#45;&gt;Node23 -->
<g id="edge21" class="edge">
<title>Node10&#45;&gt;Node23</title>
<path fill="none" stroke="#63b8ff" d="M786.48,-856.82C814.36,-850.57 852.85,-841.95 882.02,-835.41"/>
<polygon fill="#63b8ff" stroke="#63b8ff" points="882.63,-838.86 891.62,-833.26 881.1,-832.03 882.63,-838.86"/>
</g>
<!-- Node32 -->
<g id="node25" class="node">
<title>Node32</title>
<g id="a_node25"><a xlink:href="TransmitterCode_2src_2main_8cpp.html#a0a3d89dfcfab70c6cbc50401fff1afeb" target="_top" xlink:title=" ">
<polygon fill="white" stroke="#666666" points="1131,-762.5 1022,-762.5 1022,-743.5 1131,-743.5 1131,-762.5"/>
<text text-anchor="middle" x="1076.5" y="-750.5" font-family="Helvetica,sans-Serif" font-size="10.00">ReEnableScanButton</text>
</a>
</g>
</g>
<!-- Node10&#45;&gt;Node32 -->
<g id="edge29" class="edge">
<title>Node10&#45;&gt;Node32</title>
<path fill="none" stroke="#63b8ff" d="M786.21,-871.93C835.71,-879.34 925.29,-885.14 986,-845 1014.52,-826.14 997.04,-800.38 1022,-777 1025.65,-773.58 1029.87,-770.59 1034.31,-767.99"/>
<polygon fill="#63b8ff" stroke="#63b8ff" points="1035.58,-771.27 1042.88,-763.59 1032.39,-765.04 1035.58,-771.27"/>
</g>
<!-- Node12 -->
<g id="node12" class="node">
<title>Node12</title>
<g id="a_node12"><a xlink:href="TransmitterCode_2src_2main_8cpp.html#add8d8f400f1c1c4a5add52736cdf94ca" target="_top" xlink:title=" ">
<polygon fill="white" stroke="#666666" points="1102.5,-912.5 1050.5,-912.5 1050.5,-893.5 1102.5,-893.5 1102.5,-912.5"/>
<text text-anchor="middle" x="1076.5" y="-900.5" font-family="Helvetica,sans-Serif" font-size="10.00">LogText</text>
</a>
</g>
</g>
<!-- Node11&#45;&gt;Node12 -->
<g id="edge11" class="edge">
<title>Node11&#45;&gt;Node12</title>
<path fill="none" stroke="#63b8ff" d="M971.26,-902.3C992.96,-902.45 1018.6,-902.62 1039.02,-902.76"/>
<polygon fill="#63b8ff" stroke="#63b8ff" points="1038.84,-906.25 1048.86,-902.82 1038.89,-899.25 1038.84,-906.25"/>
</g>
<!-- Node17 -->
<g id="node17" class="node">
<title>Node17</title>
<g id="a_node17"><a xlink:href="TransmitterCode_2src_2main_8cpp.html#a590a9174319918d7e3d7baca323fcf26" target="_top" xlink:title=" ">
<polygon fill="white" stroke="#666666" points="1466,-762.5 1437,-762.5 1437,-743.5 1466,-743.5 1466,-762.5"/>
<text text-anchor="middle" x="1451.5" y="-750.5" font-family="Helvetica,sans-Serif" font-size="10.00">Str</text>
</a>
</g>
</g>
<!-- Node11&#45;&gt;Node17 -->
<g id="edge19" class="edge">
<title>Node11&#45;&gt;Node17</title>
<path fill="none" stroke="#63b8ff" d="M960.82,-892.11C1059.71,-864.02 1340.59,-784.22 1425.73,-760.04"/>
<polygon fill="#63b8ff" stroke="#63b8ff" points="1426.5,-763.46 1435.16,-757.36 1424.59,-756.72 1426.5,-763.46"/>
</g>
<!-- Node13 -->
<g id="node13" class="node">
<title>Node13</title>
<g id="a_node13"><a xlink:href="TransmitterCode_2src_2main_8cpp.html#a6f003363493fc53b69f9efc1f447a6a1" target="_top" xlink:title=" ">
<polygon fill="white" stroke="#666666" points="1249,-912.5 1175,-912.5 1175,-893.5 1249,-893.5 1249,-912.5"/>
<text text-anchor="middle" x="1212" y="-900.5" font-family="Helvetica,sans-Serif" font-size="10.00">CloseLogFile</text>
</a>
</g>
</g>
<!-- Node12&#45;&gt;Node13 -->
<g id="edge12" class="edge">
<title>Node12&#45;&gt;Node13</title>
<path fill="none" stroke="#63b8ff" d="M1102.92,-903C1119.95,-903 1142.89,-903 1163.26,-903"/>
<polygon fill="#63b8ff" stroke="#63b8ff" points="1163.06,-906.5 1173.06,-903 1163.06,-899.5 1163.06,-906.5"/>
</g>
<!-- Node14 -->
<g id="node14" class="node">
<title>Node14</title>
<g id="a_node14"><a xlink:href="TransmitterCode_2src_2main_8cpp.html#a99a51dbad5d686ca711e982f82cbcada" target="_top" xlink:title=" ">
<polygon fill="white" stroke="#666666" points="1257,-875.5 1167,-875.5 1167,-856.5 1257,-856.5 1257,-875.5"/>
<text text-anchor="middle" x="1212" y="-863.5" font-family="Helvetica,sans-Serif" font-size="10.00">LogFilePreamble</text>
</a>
</g>
</g>
<!-- Node12&#45;&gt;Node14 -->
<g id="edge13" class="edge">
<title>Node12&#45;&gt;Node14</title>
<path fill="none" stroke="#63b8ff" d="M1102.92,-895.95C1120.16,-891.18 1143.45,-884.72 1164,-879.03"/>
<polygon fill="#63b8ff" stroke="#63b8ff" points="1164.92,-882.4 1173.62,-876.36 1163.05,-875.66 1164.92,-882.4"/>
</g>
<!-- Node21 -->
<g id="node18" class="node">
<title>Node21</title>
<g id="a_node18"><a xlink:href="TransmitterCode_2src_2main_8cpp.html#a99154e537ca6e0ce5d538fddf0c2aab3" target="_top" xlink:title=" ">
<polygon fill="white" stroke="#666666" points="1388.5,-931.5 1305.5,-931.5 1305.5,-912.5 1388.5,-912.5 1388.5,-931.5"/>
<text text-anchor="middle" x="1347" y="-919.5" font-family="Helvetica,sans-Serif" font-size="10.00">WriteToLogFile</text>
</a>
</g>
</g>
<!-- Node12&#45;&gt;Node21 -->
<g id="edge18" class="edge">
<title>Node12&#45;&gt;Node21</title>
<path fill="none" stroke="#63b8ff" d="M1102.74,-909.83C1120.54,-914.29 1145.04,-919.69 1167,-922 1209.67,-926.48 1258.38,-926.13 1294.2,-924.85"/>
<polygon fill="#63b8ff" stroke="#63b8ff" points="1293.99,-928.36 1303.84,-924.47 1293.71,-921.37 1293.99,-928.36"/>
</g>
<!-- Node15 -->
<g id="node15" class="node">
<title>Node15</title>
<g id="a_node15"><a xlink:href="TransmitterCode_2src_2main_8cpp.html#ac45f2f949ccfa372a8cbab3ef0b8caa8" target="_top" xlink:title=" ">
<polygon fill="#fff0f0" stroke="red" points="1401,-875.5 1293,-875.5 1293,-856.5 1401,-856.5 1401,-875.5"/>
<text text-anchor="middle" x="1347" y="-863.5" font-family="Helvetica,sans-Serif" font-size="10.00">CheckLogFileIsOpen</text>
</a>
</g>
</g>
<!-- Node14&#45;&gt;Node15 -->
<g id="edge14" class="edge">
<title>Node14&#45;&gt;Node15</title>
<path fill="none" stroke="#63b8ff" d="M1257.29,-866C1264.99,-866 1273.14,-866 1281.26,-866"/>
<polygon fill="#63b8ff" stroke="#63b8ff" points="1281.15,-869.5 1291.15,-866 1281.15,-862.5 1281.15,-869.5"/>
</g>
<!-- Node19 -->
<g id="node16" class="node">
<title>Node19</title>
<g id="a_node16"><a xlink:href="TransmitterCode_2src_2main_8cpp.html#a5d42b1fba153cc76dc96778cfb6f1a40" target="_top" xlink:title=" ">
<polygon fill="#fff0f0" stroke="red" points="1394.5,-838.5 1299.5,-838.5 1299.5,-819.5 1394.5,-819.5 1394.5,-838.5"/>
<text text-anchor="middle" x="1347" y="-826.5" font-family="Helvetica,sans-Serif" font-size="10.00">CreateTimeStamp</text>
</a>
</g>
</g>
<!-- Node14&#45;&gt;Node19 -->
<g id="edge15" class="edge">
<title>Node14&#45;&gt;Node19</title>
<path fill="none" stroke="#63b8ff" d="M1248.64,-856.08C1264.3,-851.73 1282.88,-846.56 1299.6,-841.91"/>
<polygon fill="#63b8ff" stroke="#63b8ff" points="1300.11,-845.4 1308.8,-839.35 1298.23,-838.66 1300.11,-845.4"/>
</g>
<!-- Node14&#45;&gt;Node21 -->
<g id="edge17" class="edge">
<title>Node14&#45;&gt;Node21</title>
<path fill="none" stroke="#63b8ff" d="M1236.47,-875.88C1257.42,-884.71 1288.36,-897.73 1312.02,-907.69"/>
<polygon fill="#63b8ff" stroke="#63b8ff" points="1310.35,-910.79 1320.92,-911.44 1313.06,-904.33 1310.35,-910.79"/>
</g>
<!-- Node19&#45;&gt;Node17 -->
<g id="edge16" class="edge">
<title>Node19&#45;&gt;Node17</title>
<path fill="none" stroke="#63b8ff" d="M1375.24,-819.06C1383.86,-815.29 1393.18,-810.56 1401,-805 1414.2,-795.62 1426.76,-782.37 1435.92,-771.59"/>
<polygon fill="#63b8ff" stroke="#63b8ff" points="1438.44,-774.03 1442.07,-764.08 1433.02,-769.6 1438.44,-774.03"/>
</g>
<!-- Node27 -->
<g id="node21" class="node">
<title>Node27</title>
<g id="a_node21"><a xlink:href="TransmitterCode_2src_2main_8cpp.html#aecac2f0c289f02ef3c92b85be82eacac" target="_top" xlink:title=" ">
<polygon fill="white" stroke="#666666" points="1253.5,-648.5 1170.5,-648.5 1170.5,-629.5 1253.5,-629.5 1253.5,-648.5"/>
<text text-anchor="middle" x="1212" y="-636.5" font-family="Helvetica,sans-Serif" font-size="10.00">SendCommand</text>
</a>
</g>
</g>
<!-- Node23&#45;&gt;Node27 -->
<g id="edge22" class="edge">
<title>Node23&#45;&gt;Node27</title>
<path fill="none" stroke="#63b8ff" d="M956.75,-821.84C966.94,-819.22 977.78,-814.95 986,-808 1013.62,-784.64 995,-759.07 1022,-735 1060.41,-700.76 1085.39,-719.82 1131,-696 1152.53,-684.75 1174.87,-668.38 1190.45,-656.06"/>
<polygon fill="#63b8ff" stroke="#63b8ff" points="1192.44,-658.95 1198.03,-649.95 1188.05,-653.5 1192.44,-658.95"/>
</g>
<!-- Node23&#45;&gt;Node30 -->
<g id="edge26" class="edge">
<title>Node23&#45;&gt;Node30</title>
<path fill="none" stroke="#63b8ff" d="M956.7,-823.71C967.52,-821.31 978.78,-816.71 986,-808 1034.5,-749.52 1011.26,-543.21 1022,-468 1036.86,-363.97 1061.28,-240.63 1071.15,-192.11"/>
<polygon fill="#63b8ff" stroke="#63b8ff" points="1074.55,-192.94 1073.13,-182.44 1067.7,-191.53 1074.55,-192.94"/>
</g>
<!-- Node27&#45;&gt;Node6 -->
<g id="edge25" class="edge">
<title>Node27&#45;&gt;Node6</title>
<path fill="none" stroke="#63b8ff" d="M1170.41,-639C1115.13,-639 1013.08,-639 926,-639 748,-639 748,-639 748,-639 674.66,-639 589.58,-639 537.79,-639"/>
<polygon fill="#63b8ff" stroke="#63b8ff" points="537.83,-635.5 527.83,-639 537.83,-642.5 537.83,-635.5"/>
</g>
<!-- Node28 -->
<g id="node22" class="node">
<title>Node28</title>
<g id="a_node22"><a xlink:href="TransmitterCode_2src_2main_8cpp.html#a43937dd3d9c795271fd9c3eb3c6b6410" target="_top" xlink:title=" ">
<polygon fill="white" stroke="#666666" points="1388.5,-496.5 1305.5,-496.5 1305.5,-477.5 1388.5,-477.5 1388.5,-496.5"/>
<text text-anchor="middle" x="1347" y="-484.5" font-family="Helvetica,sans-Serif" font-size="10.00">GetReturnCode</text>
</a>
</g>
</g>
<!-- Node27&#45;&gt;Node28 -->
<g id="edge23" class="edge">
<title>Node27&#45;&gt;Node28</title>
<path fill="none" stroke="#63b8ff" d="M1230.31,-629.13C1238.87,-623.79 1249.03,-616.72 1257,-609 1289.95,-577.08 1319.44,-531.79 1334.81,-506.32"/>
<polygon fill="#63b8ff" stroke="#63b8ff" points="1337.64,-508.41 1339.72,-498.02 1331.61,-504.84 1337.64,-508.41"/>
</g>
<!-- Node29 -->
<g id="node23" class="node">
<title>Node29</title>
<g id="a_node23"><a xlink:href="TransmitterCode_2src_2main_8cpp.html#a5f109790a6fe0b972a502f3cac4ed1e7" target="_top" xlink:title=" ">
<polygon fill="white" stroke="#666666" points="1371,-648.5 1323,-648.5 1323,-629.5 1371,-629.5 1371,-648.5"/>
<text text-anchor="middle" x="1347" y="-636.5" font-family="Helvetica,sans-Serif" font-size="10.00">InStrng</text>
</a>
</g>
</g>
<!-- Node27&#45;&gt;Node29 -->
<g id="edge24" class="edge">
<title>Node27&#45;&gt;Node29</title>
<path fill="none" stroke="#63b8ff" d="M1253.99,-639C1272.35,-639 1293.76,-639 1311.31,-639"/>
<polygon fill="#63b8ff" stroke="#63b8ff" points="1311.24,-642.5 1321.24,-639 1311.24,-635.5 1311.24,-642.5"/>
</g>
<!-- Node30&#45;&gt;Node27 -->
<g id="edge28" class="edge">
<title>Node30&#45;&gt;Node27</title>
<path fill="none" stroke="#63b8ff" d="M1079.31,-180.92C1090.88,-244.28 1154.51,-590.22 1167,-609 1170.52,-614.29 1175.32,-618.91 1180.47,-622.82"/>
<polygon fill="#63b8ff" stroke="#63b8ff" points="1178.37,-625.63 1188.63,-628.28 1182.26,-619.81 1178.37,-625.63"/>
</g>
<!-- Node30&#45;&gt;Node28 -->
<g id="edge27" class="edge">
<title>Node30&#45;&gt;Node28</title>
<path fill="none" stroke="#63b8ff" d="M1085.83,-180.8C1123.73,-225.41 1280.19,-409.54 1330.41,-468.65"/>
<polygon fill="#63b8ff" stroke="#63b8ff" points="1327.64,-470.8 1336.79,-476.16 1332.98,-466.27 1327.64,-470.8"/>
</g>
<!-- Node32&#45;&gt;Node17 -->
<g id="edge31" class="edge">
<title>Node32&#45;&gt;Node17</title>
<path fill="none" stroke="#63b8ff" d="M1131.34,-753C1213.08,-753 1365.33,-753 1425.29,-753"/>
<polygon fill="#63b8ff" stroke="#63b8ff" points="1425.12,-756.5 1435.12,-753 1425.12,-749.5 1425.12,-756.5"/>
</g>
<!-- Node32&#45;&gt;Node27 -->
<g id="edge30" class="edge">
<title>Node32&#45;&gt;Node27</title>
<path fill="none" stroke="#63b8ff" d="M1105.66,-743.01C1114.22,-739.3 1123.37,-734.6 1131,-729 1158.42,-708.89 1183.29,-678 1197.78,-658.15"/>
<polygon fill="#63b8ff" stroke="#63b8ff" points="1200.55,-660.3 1203.5,-650.13 1194.84,-656.24 1200.55,-660.3"/>
</g>
<!-- Node39&#45;&gt;Node38 -->
<g id="edge33" class="edge">
<title>Node39&#45;&gt;Node38</title>
<path fill="none" stroke="#63b8ff" d="M780.31,-721.44C811.01,-727.97 858.38,-738.05 890.26,-744.83"/>
<polygon fill="#63b8ff" stroke="#63b8ff" points="889.25,-748.19 899.76,-746.85 890.71,-741.34 889.25,-748.19"/>
</g>
<!-- Node40&#45;&gt;Node27 -->
<g id="edge35" class="edge">
<title>Node40&#45;&gt;Node27</title>
<path fill="none" stroke="#63b8ff" d="M1112.58,-667.02C1128.67,-662.43 1147.97,-656.94 1165.19,-652.04"/>
<polygon fill="#63b8ff" stroke="#63b8ff" points="1166.04,-655.44 1174.7,-649.33 1164.13,-648.7 1166.04,-655.44"/>
</g>
<!-- Node44&#45;&gt;Node22 -->
<g id="edge40" class="edge">
<title>Node44&#45;&gt;Node22</title>
<path fill="none" stroke="#63b8ff" d="M794.36,-818.06C816.87,-813.01 844.44,-806.83 868.37,-801.47"/>
<polygon fill="#63b8ff" stroke="#63b8ff" points="868.95,-804.93 877.94,-799.32 867.42,-798.09 868.95,-804.93"/>
</g>
<!-- Node44&#45;&gt;Node38 -->
<g id="edge39" class="edge">
<title>Node44&#45;&gt;Node38</title>
<path fill="none" stroke="#63b8ff" d="M797.09,-821.89C807.72,-819.24 818.63,-815.44 828,-810 848.4,-798.15 844.09,-783.65 864,-771 871.91,-765.97 881.26,-762.18 890.19,-759.36"/>
<polygon fill="#63b8ff" stroke="#63b8ff" points="891,-762.77 899.68,-756.7 889.11,-756.03 891,-762.77"/>
</g>
<!-- Node109&#45;&gt;Node12 -->
<g id="edge44" class="edge">
<title>Node109&#45;&gt;Node12</title>
<path fill="none" stroke="#63b8ff" d="M500.7,-817.86C527.01,-841.37 598.02,-900.28 670,-921 801.5,-958.86 966.83,-928.92 1039,-912.26"/>
<polygon fill="#63b8ff" stroke="#63b8ff" points="1039.76,-915.68 1048.69,-909.97 1038.15,-908.87 1039.76,-915.68"/>
</g>
<!-- Node84 -->
<g id="node34" class="node">
<title>Node84</title>
<g id="a_node34"><a xlink:href="TransmitterCode_2src_2main_8cpp.html#a38063272143a3da8735678470d210d29" target="_top" xlink:title=" ">
<polygon fill="white" stroke="#666666" points="974,-273.5 876,-273.5 876,-254.5 974,-254.5 974,-273.5"/>
<text text-anchor="middle" x="925" y="-261.5" font-family="Helvetica,sans-Serif" font-size="10.00">CheckBanksInUse</text>
</a>
</g>
</g>
<!-- Node83&#45;&gt;Node84 -->
<g id="edge46" class="edge">
<title>Node83&#45;&gt;Node84</title>
<path fill="none" stroke="#63b8ff" d="M757.39,-383.09C774.01,-361.49 816.62,-309.87 864,-282 866.29,-280.65 868.7,-279.39 871.17,-278.23"/>
<polygon fill="#63b8ff" stroke="#63b8ff" points="872.3,-281.55 880.2,-274.49 869.62,-275.08 872.3,-281.55"/>
</g>
<!-- Node85 -->
<g id="node35" class="node">
<title>Node85</title>
<g id="a_node35"><a xlink:href="TransmitterCode_2src_2main_8cpp.html#a5467d21eeae42d1bfdb79914ef52d0ed" target="_top" xlink:title=" ">
<polygon fill="white" stroke="#666666" points="984.5,-236.5 865.5,-236.5 865.5,-217.5 984.5,-217.5 984.5,-236.5"/>
<text text-anchor="middle" x="925" y="-224.5" font-family="Helvetica,sans-Serif" font-size="10.00">CheckDualRatesValues</text>
</a>
</g>
</g>
<!-- Node83&#45;&gt;Node85 -->
<g id="edge47" class="edge">
<title>Node83&#45;&gt;Node85</title>
<path fill="none" stroke="#63b8ff" d="M754.66,-383.38C767.91,-357.05 808.43,-283.26 864,-245 865.6,-243.9 867.27,-242.86 868.99,-241.89"/>
<polygon fill="#63b8ff" stroke="#63b8ff" points="870.42,-245.09 877.93,-237.62 867.4,-238.77 870.42,-245.09"/>
</g>
<!-- Node86 -->
<g id="node36" class="node">
<title>Node86</title>
<g id="a_node36"><a xlink:href="TransmitterCode_2src_2main_8cpp.html#a6bb930920ba3a8d45a737dde782ef65c" target="_top" xlink:title=" ">
<polygon fill="white" stroke="#666666" points="976,-458.5 874,-458.5 874,-439.5 976,-439.5 976,-458.5"/>
<text text-anchor="middle" x="925" y="-446.5" font-family="Helvetica,sans-Serif" font-size="10.00">CheckMacrosBuffer</text>
</a>
</g>
</g>
<!-- Node83&#45;&gt;Node86 -->
<g id="edge48" class="edge">
<title>Node83&#45;&gt;Node86</title>
<path fill="none" stroke="#63b8ff" d="M780.46,-402.95C803.41,-410.44 835.67,-420.92 864,-430 869.79,-431.86 875.89,-433.8 881.9,-435.71"/>
<polygon fill="#63b8ff" stroke="#63b8ff" points="880.5,-438.94 891.09,-438.63 882.62,-432.27 880.5,-438.94"/>
</g>
<!-- Node87 -->
<g id="node37" class="node">
<title>Node87</title>
<g id="a_node37"><a xlink:href="TransmitterCode_2src_2main_8cpp.html#a01c7a0b0de94ec72fe070ea9f90dc2ec" target="_top" xlink:title=" ">
<polygon fill="white" stroke="#666666" points="961,-421.5 889,-421.5 889,-402.5 961,-402.5 961,-421.5"/>
<text text-anchor="middle" x="925" y="-409.5" font-family="Helvetica,sans-Serif" font-size="10.00">CheckRange</text>
</a>
</g>
</g>
<!-- Node83&#45;&gt;Node87 -->
<g id="edge49" class="edge">
<title>Node83&#45;&gt;Node87</title>
<path fill="none" stroke="#63b8ff" d="M790.8,-397.45C816.81,-400.3 850.59,-403.98 877.63,-406.94"/>
<polygon fill="#63b8ff" stroke="#63b8ff" points="876.93,-410.38 887.25,-407.99 877.69,-403.42 876.93,-410.38"/>
</g>
<!-- Node88 -->
<g id="node38" class="node">
<title>Node88</title>
<g id="a_node38"><a xlink:href="TransmitterCode_2src_2main_8cpp.html#a688c8f45b7061a1574dcb7eb28eec56b" target="_top" xlink:title=" ">
<polygon fill="white" stroke="#666666" points="986,-384.5 864,-384.5 864,-365.5 986,-365.5 986,-384.5"/>
<text text-anchor="middle" x="925" y="-372.5" font-family="Helvetica,sans-Serif" font-size="10.00">CheckSavedTrimValues</text>
</a>
</g>
</g>
<!-- Node83&#45;&gt;Node88 -->
<g id="edge50" class="edge">
<title>Node83&#45;&gt;Node88</title>
<path fill="none" stroke="#63b8ff" d="M790.8,-388.78C809.19,-386.88 831.46,-384.57 852.48,-382.4"/>
<polygon fill="#63b8ff" stroke="#63b8ff" points="852.58,-385.91 862.16,-381.4 851.86,-378.94 852.58,-385.91"/>
</g>
<!-- Node89 -->
<g id="node39" class="node">
<title>Node89</title>
<g id="a_node39"><a xlink:href="TransmitterCode_2src_2main_8cpp.html#af2028eceef03ca4c84aa7d71677c0647" target="_top" xlink:title=" ">
<polygon fill="white" stroke="#666666" points="969.5,-347.5 880.5,-347.5 880.5,-328.5 969.5,-328.5 969.5,-347.5"/>
<text text-anchor="middle" x="925" y="-335.5" font-family="Helvetica,sans-Serif" font-size="10.00">CheckStepSizes</text>
</a>
</g>
</g>
<!-- Node83&#45;&gt;Node89 -->
<g id="edge51" class="edge">
<title>Node83&#45;&gt;Node89</title>
<path fill="none" stroke="#63b8ff" d="M779.94,-383.08C802.9,-375.52 835.4,-364.93 864,-356 869.05,-354.42 874.36,-352.79 879.63,-351.19"/>
<polygon fill="#63b8ff" stroke="#63b8ff" points="880.31,-354.64 888.87,-348.4 878.29,-347.94 880.31,-354.64"/>
</g>
<!-- Node69 -->
<g id="node40" class="node">
<title>Node69</title>
<g id="a_node40"><a xlink:href="TransmitterCode_2src_2main_8cpp.html#ae7618f38a148877bc5681be58cba8354" target="_top" xlink:title=" ">
<polygon fill="white" stroke="#666666" points="968.5,-310.5 881.5,-310.5 881.5,-291.5 968.5,-291.5 968.5,-310.5"/>
<text text-anchor="middle" x="925" y="-298.5" font-family="Helvetica,sans-Serif" font-size="10.00">OpenModelsFile</text>
</a>
</g>
</g>
<!-- Node83&#45;&gt;Node69 -->
<g id="edge52" class="edge">
<title>Node83&#45;&gt;Node69</title>
<path fill="none" stroke="#63b8ff" d="M762.63,-383.06C782.95,-367.49 824.6,-337.24 864,-319 867.31,-317.47 870.77,-316.03 874.31,-314.69"/>
<polygon fill="#63b8ff" stroke="#63b8ff" points="875.28,-318.05 883.56,-311.44 872.97,-311.45 875.28,-318.05"/>
</g>
<!-- Node90 -->
<g id="node41" class="node">
<title>Node90</title>
<g id="a_node41"><a xlink:href="TransmitterCode_2src_2main_8cpp.html#a3c809856d2abf6b6f804e2fbe68d06f5" target="_top" xlink:title=" ">
<polygon fill="white" stroke="#666666" points="974,-572.5 876,-572.5 876,-553.5 974,-553.5 974,-572.5"/>
<text text-anchor="middle" x="925" y="-560.5" font-family="Helvetica,sans-Serif" font-size="10.00">ReadCheckSum32</text>
</a>
</g>
</g>
<!-- Node83&#45;&gt;Node90 -->
<g id="edge53" class="edge">
<title>Node83&#45;&gt;Node90</title>
<path fill="none" stroke="#63b8ff" d="M755.29,-402.98C769.49,-428.92 811.03,-499.22 864,-539 868.88,-542.66 874.39,-545.85 880.05,-548.61"/>
<polygon fill="#63b8ff" stroke="#63b8ff" points="878.33,-551.68 888.9,-552.49 881.14,-545.27 878.33,-551.68"/>
</g>
<!-- Node92 -->
<g id="node43" class="node">
<title>Node92</title>
<g id="a_node43"><a xlink:href="TransmitterCode_2src_2main_8cpp.html#a9cf4a8c584c2b92d52de18627ca4434b" target="_top" xlink:title=" ">
<polygon fill="white" stroke="#666666" points="1116.5,-608.5 1036.5,-608.5 1036.5,-589.5 1116.5,-589.5 1116.5,-608.5"/>
<text text-anchor="middle" x="1076.5" y="-596.5" font-family="Helvetica,sans-Serif" font-size="10.00">SDRead8BITS</text>
</a>
</g>
</g>
<!-- Node83&#45;&gt;Node92 -->
<g id="edge59" class="edge">
<title>Node83&#45;&gt;Node92</title>
<path fill="none" stroke="#63b8ff" d="M752.44,-402.65C761.15,-434.81 793.94,-538.65 864,-582 912.41,-611.96 979.45,-611.94 1024.99,-607.22"/>
<polygon fill="#63b8ff" stroke="#63b8ff" points="1025.33,-610.7 1034.86,-606.07 1024.52,-603.75 1025.33,-610.7"/>
</g>
<!-- Node93 -->
<g id="node45" class="node">
<title>Node93</title>
<g id="a_node45"><a xlink:href="TransmitterCode_2src_2main_8cpp.html#a390e5cfbafdda998c93b9a352560d57d" target="_top" xlink:title=" ">
<polygon fill="white" stroke="#666666" points="1119.5,-534.5 1033.5,-534.5 1033.5,-515.5 1119.5,-515.5 1119.5,-534.5"/>
<text text-anchor="middle" x="1076.5" y="-522.5" font-family="Helvetica,sans-Serif" font-size="10.00">SDRead16BITS</text>
</a>
</g>
</g>
<!-- Node83&#45;&gt;Node93 -->
<g id="edge57" class="edge">
<title>Node83&#45;&gt;Node93</title>
<path fill="none" stroke="#63b8ff" d="M762.25,-402.8C782.37,-418.44 824.17,-449.13 864,-467 915.5,-490.1 978.28,-505.9 1022.01,-515.1"/>
<polygon fill="#63b8ff" stroke="#63b8ff" points="1021.27,-518.53 1031.77,-517.11 1022.68,-511.67 1021.27,-518.53"/>
</g>
<!-- Node94 -->
<g id="node46" class="node">
<title>Node94</title>
<g id="a_node46"><a xlink:href="TransmitterCode_2src_2main_8cpp.html#abf59862cf6c4e3df5a76f0bfea8919ef" target="_top" xlink:title=" ">
<polygon fill="white" stroke="#666666" points="978,-199.5 872,-199.5 872,-180.5 978,-180.5 978,-199.5"/>
<text text-anchor="middle" x="925" y="-187.5" font-family="Helvetica,sans-Serif" font-size="10.00">UpdateButtonLabels</text>
</a>
</g>
</g>
<!-- Node83&#45;&gt;Node94 -->
<g id="edge60" class="edge">
<title>Node83&#45;&gt;Node94</title>
<path fill="none" stroke="#63b8ff" d="M753.17,-383.24C763.67,-352.52 800.27,-256.95 864,-208 865.32,-206.99 866.7,-206.03 868.12,-205.12"/>
<polygon fill="#63b8ff" stroke="#63b8ff" points="869.48,-208.36 876.7,-200.61 866.22,-202.17 869.48,-208.36"/>
</g>
<!-- Node91 -->
<g id="node42" class="node">
<title>Node91</title>
<g id="a_node42"><a xlink:href="TransmitterCode_2src_2main_8cpp.html#aee9320d84f0e518a8cc937ac1f706cf4" target="_top" xlink:title=" ">
<polygon fill="white" stroke="#666666" points="1119.5,-571.5 1033.5,-571.5 1033.5,-552.5 1119.5,-552.5 1119.5,-571.5"/>
<text text-anchor="middle" x="1076.5" y="-559.5" font-family="Helvetica,sans-Serif" font-size="10.00">SDRead32BITS</text>
</a>
</g>
</g>
<!-- Node90&#45;&gt;Node91 -->
<g id="edge54" class="edge">
<title>Node90&#45;&gt;Node91</title>
<path fill="none" stroke="#63b8ff" d="M974.13,-562.68C989.37,-562.58 1006.32,-562.46 1021.93,-562.36"/>
<polygon fill="#63b8ff" stroke="#63b8ff" points="1021.52,-565.86 1031.5,-562.29 1021.48,-558.86 1021.52,-565.86"/>
</g>
<!-- Node90&#45;&gt;Node92 -->
<g id="edge55" class="edge">
<title>Node90&#45;&gt;Node92</title>
<path fill="none" stroke="#63b8ff" d="M967.25,-572.93C985.15,-577.24 1006.29,-582.33 1025.12,-586.87"/>
<polygon fill="#63b8ff" stroke="#63b8ff" points="1024.18,-590.24 1034.72,-589.18 1025.82,-583.44 1024.18,-590.24"/>
</g>
<!-- Node72 -->
<g id="node44" class="node">
<title>Node72</title>
<g id="a_node44"><a xlink:href="TransmitterCode_2src_2main_8cpp.html#a4a6675e3f0ebf8db35d21d829dcce052" target="_top" xlink:title=" ">
<polygon fill="white" stroke="#666666" points="1255,-599.5 1169,-599.5 1169,-580.5 1255,-580.5 1255,-599.5"/>
<text text-anchor="middle" x="1212" y="-587.5" font-family="Helvetica,sans-Serif" font-size="10.00">BuildCheckSum</text>
</a>
</g>
</g>
<!-- Node92&#45;&gt;Node72 -->
<g id="edge56" class="edge">
<title>Node92&#45;&gt;Node72</title>
<path fill="none" stroke="#63b8ff" d="M1116.83,-596.35C1129.57,-595.49 1143.92,-594.52 1157.51,-593.61"/>
<polygon fill="#63b8ff" stroke="#63b8ff" points="1157.44,-597.12 1167.18,-592.95 1156.97,-590.13 1157.44,-597.12"/>
</g>
<!-- Node93&#45;&gt;Node72 -->
<g id="edge58" class="edge">
<title>Node93&#45;&gt;Node72</title>
<path fill="none" stroke="#63b8ff" d="M1108.44,-534.92C1115.93,-537.61 1123.84,-540.7 1131,-544 1150.22,-552.85 1170.9,-564.81 1186.42,-574.32"/>
<polygon fill="#63b8ff" stroke="#63b8ff" points="1184.18,-577.05 1194.52,-579.36 1187.88,-571.1 1184.18,-577.05"/>
</g>
<!-- Node94&#45;&gt;Node30 -->
<g id="edge61" class="edge">
<title>Node94&#45;&gt;Node30</title>
<path fill="none" stroke="#63b8ff" d="M978.29,-183.35C997.26,-180.94 1018.36,-178.26 1036.04,-176.01"/>
<polygon fill="#63b8ff" stroke="#63b8ff" points="1036.41,-179.5 1045.89,-174.76 1035.53,-172.55 1036.41,-179.5"/>
</g>
<!-- Node94&#45;&gt;Node53 -->
<g id="edge62" class="edge">
<title>Node94&#45;&gt;Node53</title>
<path fill="none" stroke="#63b8ff" d="M974.85,-200C978.93,-202.17 982.74,-204.8 986,-208 1059.97,-280.58 1072.89,-414.34 1075.08,-465.94"/>
<polygon fill="#63b8ff" stroke="#63b8ff" points="1071.58,-465.8 1075.39,-475.68 1078.57,-465.58 1071.58,-465.8"/>
</g>
<!-- Node53&#45;&gt;Node17 -->
<g id="edge65" class="edge">
<title>Node53&#45;&gt;Node17</title>
<path fill="none" stroke="#63b8ff" d="M1108.91,-491.45C1172.75,-502.1 1318.62,-534.92 1401,-621 1431.07,-652.42 1443.25,-703.82 1447.88,-732.33"/>
<polygon fill="#63b8ff" stroke="#63b8ff" points="1444.36,-732.45 1449.26,-741.84 1451.29,-731.44 1444.36,-732.45"/>
</g>
<!-- Node53&#45;&gt;Node27 -->
<g id="edge64" class="edge">
<title>Node53&#45;&gt;Node27</title>
<path fill="none" stroke="#63b8ff" d="M1108.76,-492.96C1116.84,-495.78 1124.95,-499.92 1131,-506 1165.2,-540.38 1137.49,-570.52 1167,-609 1170.94,-614.14 1176.01,-618.71 1181.31,-622.63"/>
<polygon fill="#63b8ff" stroke="#63b8ff" points="1179.35,-625.54 1189.62,-628.16 1183.23,-619.71 1179.35,-625.54"/>
</g>
<!-- Node53&#45;&gt;Node28 -->
<g id="edge63" class="edge">
<title>Node53&#45;&gt;Node28</title>
<path fill="none" stroke="#63b8ff" d="M1108.83,-487C1154.29,-487 1239.1,-487 1294.02,-487"/>
<polygon fill="#63b8ff" stroke="#63b8ff" points="1293.74,-490.5 1303.74,-487 1293.74,-483.5 1293.74,-490.5"/>
</g>
<!-- Node110&#45;&gt;Node30 -->
<g id="edge69" class="edge">
<title>Node110&#45;&gt;Node30</title>
<path fill="none" stroke="#63b8ff" d="M319.09,-114C362.4,-114 429.67,-114 488,-114 488,-114 488,-114 750,-114 855.43,-114 883.28,-114.24 986,-138 1005.46,-142.5 1026.44,-150.08 1043.2,-156.85"/>
<polygon fill="#63b8ff" stroke="#63b8ff" points="1041.56,-159.96 1052.14,-160.55 1044.24,-153.49 1041.56,-159.96"/>
</g>
<!-- Node81&#45;&gt;Node17 -->
<g id="edge72" class="edge">
<title>Node81&#45;&gt;Node17</title>
<path fill="none" stroke="#63b8ff" d="M783.87,-47.07C842.66,-30.74 967.64,0 1075.5,0 1075.5,0 1075.5,0 1213,0 1370.88,0 1436.93,-609.7 1448.58,-731.85"/>
<polygon fill="#63b8ff" stroke="#63b8ff" points="1445.09,-732.06 1449.5,-741.7 1452.06,-731.42 1445.09,-732.06"/>
</g>
<!-- Node81&#45;&gt;Node30 -->
<g id="edge71" class="edge">
<title>Node81&#45;&gt;Node30</title>
<path fill="none" stroke="#63b8ff" d="M789.08,-47.05C837.88,-36.78 922.62,-26.18 986,-57 1026.19,-76.55 1053.7,-123.85 1066.77,-150.98"/>
<polygon fill="#63b8ff" stroke="#63b8ff" points="1063.5,-152.24 1070.85,-159.86 1069.86,-149.31 1063.5,-152.24"/>
</g>
<!-- Node82 -->
<g id="node50" class="node">
<title>Node82</title>
<g id="a_node50"><a xlink:href="TransmitterCode_2src_2main_8cpp.html#ac78966debc2cdc13d8ca958ce3b20c78" target="_top" xlink:title=" ">
<polygon fill="white" stroke="#666666" points="969.5,-85.5 880.5,-85.5 880.5,-66.5 969.5,-66.5 969.5,-85.5"/>
<text text-anchor="middle" x="925" y="-73.5" font-family="Helvetica,sans-Serif" font-size="10.00">UpdateTrimView</text>
</a>
</g>
</g>
<!-- Node81&#45;&gt;Node82 -->
<g id="edge73" class="edge">
<title>Node81&#45;&gt;Node82</title>
<path fill="none" stroke="#63b8ff" d="M828.35,-65.56C842.16,-67.06 856.27,-68.6 869.26,-70.02"/>
<polygon fill="#63b8ff" stroke="#63b8ff" points="868.52,-73.46 878.85,-71.07 869.28,-66.5 868.52,-73.46"/>
</g>
<!-- Node82&#45;&gt;Node30 -->
<g id="edge74" class="edge">
<title>Node82&#45;&gt;Node30</title>
<path fill="none" stroke="#63b8ff" d="M955.79,-85.96C965.69,-89.77 976.59,-94.54 986,-100 1012.59,-115.42 1039.79,-138.19 1057.11,-153.76"/>
<polygon fill="#63b8ff" stroke="#63b8ff" points="1054.36,-155.99 1064.1,-160.15 1059.08,-150.82 1054.36,-155.99"/>
</g>
<!-- Node82&#45;&gt;Node53 -->
<g id="edge75" class="edge">
<title>Node82&#45;&gt;Node53</title>
<path fill="none" stroke="#63b8ff" d="M933.69,-85.99C946.24,-102.73 971.22,-137.87 986,-171 1033.23,-276.85 1061.88,-413.84 1071.68,-465.78"/>
<polygon fill="#63b8ff" stroke="#63b8ff" points="1068.24,-466.39 1073.49,-475.59 1075.12,-465.12 1068.24,-466.39"/>
</g>
</g>
</svg>
