<?xml version="1.0" encoding="UTF-8" standalone="no"?>
<!DOCTYPE svg PUBLIC "-//W3C//DTD SVG 1.1//EN"
 "http://www.w3.org/Graphics/SVG/1.1/DTD/svg11.dtd">
<!-- Generated by graphviz version 9.0.0 (20230911.1827)
 -->
<!-- Title: ReadMixValues Pages: 1 -->
<svg width="1256pt" height="1092pt"
 viewBox="0.00 0.00 1256.25 1091.66" xmlns="http://www.w3.org/2000/svg" xmlns:xlink="http://www.w3.org/1999/xlink">
<g id="graph0" class="graph" transform="scale(1 1) rotate(0) translate(4 1087.66)">
<title>ReadMixValues</title>
<!-- Node1 -->
<g id="Node000001" class="node">
<title>Node1</title>
<g id="a_Node000001"><a xlink:title=" ">
<polygon fill="#999999" stroke="#666666" points="83.5,-931.25 0,-931.25 0,-912 83.5,-912 83.5,-931.25"/>
<text text-anchor="middle" x="41.75" y="-917.75" font-family="Helvetica,sans-Serif" font-size="10.00">ReadMixValues</text>
</a>
</g>
</g>
<!-- Node2 -->
<g id="Node000002" class="node">
<title>Node2</title>
<g id="a_Node000002"><a xlink:href="MenuOptions_8h.html#ae9f11f030b85ae36e21266f42e6c65f3" target="_top" xlink:title=" ">
<polygon fill="white" stroke="#666666" points="194,-931.25 119.5,-931.25 119.5,-912 194,-912 194,-931.25"/>
<text text-anchor="middle" x="156.75" y="-917.75" font-family="Helvetica,sans-Serif" font-size="10.00">FixCHNames</text>
</a>
</g>
</g>
<!-- Node1&#45;&gt;Node2 -->
<g id="edge1_Node000001_Node000002" class="edge">
<title>Node1&#45;&gt;Node2</title>
<g id="a_edge1_Node000001_Node000002"><a xlink:title=" ">
<path fill="none" stroke="#63b8ff" d="M83.87,-921.62C91.67,-921.62 99.89,-921.62 107.88,-921.62"/>
<polygon fill="#63b8ff" stroke="#63b8ff" points="107.83,-925.13 117.83,-921.63 107.83,-918.13 107.83,-925.13"/>
</a>
</g>
</g>
<!-- Node3 -->
<g id="Node000003" class="node">
<title>Node3</title>
<g id="a_Node000003"><a xlink:href="Nextion_8h.html#afe513398f72d5e48f691830a1ef6eb42" target="_top" xlink:title=" ">
<polygon fill="white" stroke="#666666" points="287.25,-931.25 230,-931.25 230,-912 287.25,-912 287.25,-931.25"/>
<text text-anchor="middle" x="258.62" y="-917.75" font-family="Helvetica,sans-Serif" font-size="10.00">SendText</text>
</a>
</g>
</g>
<!-- Node2&#45;&gt;Node3 -->
<g id="edge2_Node000002_Node000003" class="edge">
<title>Node2&#45;&gt;Node3</title>
<g id="a_edge2_Node000002_Node000003"><a xlink:title=" ">
<path fill="none" stroke="#63b8ff" d="M194.37,-921.62C202.23,-921.62 210.56,-921.62 218.5,-921.62"/>
<polygon fill="#63b8ff" stroke="#63b8ff" points="218.26,-925.13 228.26,-921.63 218.26,-918.13 218.26,-925.13"/>
</a>
</g>
</g>
<!-- Node4 -->
<g id="Node000004" class="node">
<title>Node4</title>
<g id="a_Node000004"><a xlink:href="Nextion_8h.html#a43937dd3d9c795271fd9c3eb3c6b6410" target="_top" xlink:title=" ">
<polygon fill="white" stroke="#666666" points="524.75,-950.25 442,-950.25 442,-931 524.75,-931 524.75,-950.25"/>
<text text-anchor="middle" x="483.38" y="-936.75" font-family="Helvetica,sans-Serif" font-size="10.00">GetReturnCode</text>
</a>
</g>
</g>
<!-- Node3&#45;&gt;Node4 -->
<g id="edge3_Node000003_Node000004" class="edge">
<title>Node3&#45;&gt;Node4</title>
<g id="a_edge3_Node000003_Node000004"><a xlink:title=" ">
<path fill="none" stroke="#63b8ff" d="M287.39,-923.99C323.11,-927.04 385.89,-932.39 430.56,-936.21"/>
<polygon fill="#63b8ff" stroke="#63b8ff" points="430.01,-939.67 440.27,-937.03 430.61,-932.7 430.01,-939.67"/>
</a>
</g>
</g>
<!-- Node5 -->
<g id="Node000005" class="node">
<title>Node5</title>
<g id="a_Node000005"><a xlink:href="Nextion_8h.html#aecac2f0c289f02ef3c92b85be82eacac" target="_top" xlink:title=" ">
<polygon fill="white" stroke="#666666" points="406,-912.25 323.25,-912.25 323.25,-893 406,-893 406,-912.25"/>
<text text-anchor="middle" x="364.62" y="-898.75" font-family="Helvetica,sans-Serif" font-size="10.00">SendCommand</text>
</a>
</g>
</g>
<!-- Node3&#45;&gt;Node5 -->
<g id="edge4_Node000003_Node000005" class="edge">
<title>Node3&#45;&gt;Node5</title>
<g id="a_edge4_Node000003_Node000005"><a xlink:title=" ">
<path fill="none" stroke="#63b8ff" d="M287.5,-916.53C294.94,-915.17 303.23,-913.66 311.53,-912.14"/>
<polygon fill="#63b8ff" stroke="#63b8ff" points="312.07,-915.6 321.28,-910.36 310.81,-908.72 312.07,-915.6"/>
</a>
</g>
</g>
<!-- Node5&#45;&gt;Node4 -->
<g id="edge58_Node000005_Node000004" class="edge">
<title>Node5&#45;&gt;Node4</title>
<g id="a_edge58_Node000005_Node000004"><a xlink:title=" ">
<path fill="none" stroke="#63b8ff" d="M396.61,-912.71C410.17,-917.12 426.29,-922.37 440.87,-927.12"/>
<polygon fill="#63b8ff" stroke="#63b8ff" points="439.62,-930.39 450.22,-930.16 441.79,-923.73 439.62,-930.39"/>
</a>
</g>
</g>
<!-- Node6 -->
<g id="Node000006" class="node">
<title>Node6</title>
<g id="a_Node000006"><a xlink:href="Utilities_8h.html#a3b1d8aa403e2724e55c71da3d9d13e7e" target="_top" xlink:title=" ">
<polygon fill="white" stroke="#666666" points="521.75,-913.25 445,-913.25 445,-894 521.75,-894 521.75,-913.25"/>
<text text-anchor="middle" x="483.38" y="-899.75" font-family="Helvetica,sans-Serif" font-size="10.00">DelayWithDog</text>
</a>
</g>
</g>
<!-- Node5&#45;&gt;Node6 -->
<g id="edge5_Node000005_Node000006" class="edge">
<title>Node5&#45;&gt;Node6</title>
<g id="a_edge5_Node000005_Node000006"><a xlink:title=" ">
<path fill="none" stroke="#63b8ff" d="M406.46,-902.97C415.24,-903.05 424.61,-903.13 433.66,-903.21"/>
<polygon fill="#63b8ff" stroke="#63b8ff" points="433.34,-906.71 443.37,-903.29 433.4,-899.71 433.34,-906.71"/>
</a>
</g>
</g>
<!-- Node147 -->
<g id="Node000147" class="node">
<title>Node147</title>
<g id="a_Node000147"><a xlink:href="TransmitterCode_2src_2main_8cpp.html#a5f109790a6fe0b972a502f3cac4ed1e7" target="_top" xlink:title=" ">
<polygon fill="white" stroke="#666666" points="507.12,-876.25 459.62,-876.25 459.62,-857 507.12,-857 507.12,-876.25"/>
<text text-anchor="middle" x="483.38" y="-862.75" font-family="Helvetica,sans-Serif" font-size="10.00">InStrng</text>
</a>
</g>
</g>
<!-- Node5&#45;&gt;Node147 -->
<g id="edge59_Node000005_Node000147" class="edge">
<title>Node5&#45;&gt;Node147</title>
<g id="a_edge59_Node000005_Node000147"><a xlink:title=" ">
<path fill="none" stroke="#63b8ff" d="M398.46,-892.5C414.09,-887.68 432.76,-881.92 448.52,-877.06"/>
<polygon fill="#63b8ff" stroke="#63b8ff" points="449.43,-880.45 457.95,-874.16 447.36,-873.76 449.43,-880.45"/>
</a>
</g>
</g>
<!-- Node7 -->
<g id="Node000007" class="node">
<title>Node7</title>
<g id="a_Node000007"><a xlink:href="TransmitterCode_2src_2main_8cpp.html#ab584ae7dbc9b1af37538f91b00b8927f" target="_top" xlink:title=" ">
<polygon fill="white" stroke="#666666" points="663.75,-1043.25 575,-1043.25 575,-1024 663.75,-1024 663.75,-1043.25"/>
<text text-anchor="middle" x="619.38" y="-1029.75" font-family="Helvetica,sans-Serif" font-size="10.00">FixMotorChannel</text>
</a>
</g>
</g>
<!-- Node6&#45;&gt;Node7 -->
<g id="edge6_Node000006_Node000007" class="edge">
<title>Node6&#45;&gt;Node7</title>
<g id="a_edge6_Node000006_Node000007"><a xlink:title=" ">
<path fill="none" stroke="#63b8ff" d="M511.4,-913.61C516.07,-915.9 520.71,-918.57 524.75,-921.62 559.63,-947.97 590.01,-989.66 606.12,-1014.05"/>
<polygon fill="#63b8ff" stroke="#63b8ff" points="603.12,-1015.86 611.48,-1022.37 609,-1012.07 603.12,-1015.86"/>
</a>
</g>
</g>
<!-- Node9 -->
<g id="Node000009" class="node">
<title>Node9</title>
<g id="a_Node000009"><a xlink:href="TransmitterCode_2src_2main_8cpp.html#a26ae4f6ca14f760bd5eb6e7588fe7c81" target="_top" xlink:title="GET NEW SERVO POSITIONS.">
<polygon fill="white" stroke="#666666" points="678,-932.25 560.75,-932.25 560.75,-913 678,-913 678,-932.25"/>
<text text-anchor="middle" x="619.38" y="-918.75" font-family="Helvetica,sans-Serif" font-size="10.00">GetNewChannelValues</text>
</a>
</g>
</g>
<!-- Node6&#45;&gt;Node9 -->
<g id="edge8_Node000006_Node000009" class="edge">
<title>Node6&#45;&gt;Node9</title>
<g id="a_edge8_Node000006_Node000009"><a xlink:title=" ">
<path fill="none" stroke="#63b8ff" d="M522.06,-908.97C530.53,-910.17 539.79,-911.48 549.1,-912.8"/>
<polygon fill="#63b8ff" stroke="#63b8ff" points="548.55,-916.26 558.94,-914.2 549.53,-909.33 548.55,-916.26"/>
</a>
</g>
</g>
<!-- Node24 -->
<g id="Node000024" class="node">
<title>Node24</title>
<g id="a_Node000024"><a xlink:href="Utilities_8h.html#ada95a00a341e4a80176eda743a94ab2e" target="_top" xlink:title=" ">
<polygon fill="white" stroke="#666666" points="654,-895.25 584.75,-895.25 584.75,-876 654,-876 654,-895.25"/>
<text text-anchor="middle" x="619.38" y="-881.75" font-family="Helvetica,sans-Serif" font-size="10.00">KickTheDog</text>
</a>
</g>
</g>
<!-- Node6&#45;&gt;Node24 -->
<g id="edge22_Node000006_Node000024" class="edge">
<title>Node6&#45;&gt;Node24</title>
<g id="a_edge22_Node000006_Node000024"><a xlink:title=" ">
<path fill="none" stroke="#63b8ff" d="M522.06,-898.56C538.03,-896.42 556.78,-893.9 573.47,-891.66"/>
<polygon fill="#63b8ff" stroke="#63b8ff" points="573.69,-895.16 583.13,-890.36 572.75,-888.22 573.69,-895.16"/>
</a>
</g>
</g>
<!-- Node25 -->
<g id="Node000025" class="node">
<title>Node25</title>
<g id="a_Node000025"><a xlink:href="transceiver_8h.html#a049bfb836e7aa4a3a48a1a4bd225fafc" target="_top" xlink:title=" ">
<polygon fill="white" stroke="#666666" points="648.75,-561.25 590,-561.25 590,-542 648.75,-542 648.75,-561.25"/>
<text text-anchor="middle" x="619.38" y="-547.75" font-family="Helvetica,sans-Serif" font-size="10.00">SendData</text>
</a>
</g>
</g>
<!-- Node6&#45;&gt;Node25 -->
<g id="edge23_Node000006_Node000025" class="edge">
<title>Node6&#45;&gt;Node25</title>
<g id="a_edge23_Node000006_Node000025"><a xlink:title=" ">
<path fill="none" stroke="#63b8ff" d="M515.06,-893.55C518.68,-891.38 522.04,-888.76 524.75,-885.62 606.37,-791.12 617.19,-630.59 618.36,-572.99"/>
<polygon fill="#63b8ff" stroke="#63b8ff" points="621.86,-573.03 618.47,-563 614.86,-572.96 621.86,-573.03"/>
</a>
</g>
</g>
<!-- Node8 -->
<g id="Node000008" class="node">
<title>Node8</title>
<g id="a_Node000008"><a xlink:href="Utilities_8h.html#a0d8d8a0d67cb9b04481f1692abe75368" target="_top" xlink:title=" ">
<polygon fill="white" stroke="#666666" points="1006.25,-1007.25 928,-1007.25 928,-988 1006.25,-988 1006.25,-1007.25"/>
<text text-anchor="middle" x="967.12" y="-993.75" font-family="Helvetica,sans-Serif" font-size="10.00">IntoHigherRes</text>
</a>
</g>
</g>
<!-- Node7&#45;&gt;Node8 -->
<g id="edge7_Node000007_Node000008" class="edge">
<title>Node7&#45;&gt;Node8</title>
<g id="a_edge7_Node000007_Node000008"><a xlink:title=" ">
<path fill="none" stroke="#63b8ff" d="M639.07,-1043.73C657.51,-1053.08 686.8,-1066.31 714,-1071.62 776.6,-1083.84 796.55,-1090.41 857.5,-1071.62 893.24,-1060.61 927.74,-1033.37 947.94,-1015.19"/>
<polygon fill="#63b8ff" stroke="#63b8ff" points="950.1,-1017.96 955.06,-1008.6 945.34,-1012.82 950.1,-1017.96"/>
</a>
</g>
</g>
<!-- Node10 -->
<g id="Node000010" class="node">
<title>Node10</title>
<g id="a_Node000010"><a xlink:href="TransmitterCode_2src_2main_8cpp.html#af518bb2cfb3cfe18d491b2a5d6bf7dcc" target="_top" xlink:title=" ">
<polygon fill="white" stroke="#666666" points="836.88,-877.25 734.62,-877.25 734.62,-858 836.88,-858 836.88,-877.25"/>
<text text-anchor="middle" x="785.75" y="-863.75" font-family="Helvetica,sans-Serif" font-size="10.00">CalculateAllOutputs</text>
</a>
</g>
</g>
<!-- Node9&#45;&gt;Node10 -->
<g id="edge9_Node000009_Node000010" class="edge">
<title>Node9&#45;&gt;Node10</title>
<g id="a_edge9_Node000009_Node000010"><a xlink:title=" ">
<path fill="none" stroke="#63b8ff" d="M656.09,-912.59C663.43,-910.22 671.03,-907.52 678,-904.62 694.7,-897.68 697.12,-892.12 714,-885.62 718.39,-883.93 723,-882.36 727.66,-880.89"/>
<polygon fill="#63b8ff" stroke="#63b8ff" points="728.52,-884.29 737.13,-878.11 726.55,-877.57 728.52,-884.29"/>
</a>
</g>
</g>
<!-- Node14 -->
<g id="Node000014" class="node">
<title>Node14</title>
<g id="a_Node000014"><a xlink:href="TransmitterCode_2src_2main_8cpp.html#acd70b997cf150e55d943df5d6f1cff51" target="_top" xlink:title=" ">
<polygon fill="white" stroke="#666666" points="840.25,-840.25 731.25,-840.25 731.25,-821 840.25,-821 840.25,-840.25"/>
<text text-anchor="middle" x="785.75" y="-826.75" font-family="Helvetica,sans-Serif" font-size="10.00">DoTrimsAndSubtrims</text>
</a>
</g>
</g>
<!-- Node9&#45;&gt;Node14 -->
<g id="edge11_Node000009_Node000014" class="edge">
<title>Node9&#45;&gt;Node14</title>
<g id="a_edge11_Node000009_Node000014"><a xlink:title=" ">
<path fill="none" stroke="#63b8ff" d="M664.17,-912.59C669.09,-910.42 673.83,-907.8 678,-904.62 701.53,-886.69 689.99,-865.92 714,-848.62 716.17,-847.06 718.46,-845.63 720.84,-844.33"/>
<polygon fill="#63b8ff" stroke="#63b8ff" points="722.04,-847.63 729.66,-840.27 719.11,-841.28 722.04,-847.63"/>
</a>
</g>
</g>
<!-- Node16 -->
<g id="Node000016" class="node">
<title>Node16</title>
<g id="a_Node000016"><a xlink:href="TransmitterCode_2src_2main_8cpp.html#a15d8fbd5988e76a16e33e7f620804009" target="_top" xlink:title=" ">
<polygon fill="white" stroke="#666666" points="820.75,-803.25 750.75,-803.25 750.75,-784 820.75,-784 820.75,-803.25"/>
<text text-anchor="middle" x="785.75" y="-789.75" font-family="Helvetica,sans-Serif" font-size="10.00">GetAllInputs</text>
</a>
</g>
</g>
<!-- Node9&#45;&gt;Node16 -->
<g id="edge13_Node000009_Node000016" class="edge">
<title>Node9&#45;&gt;Node16</title>
<g id="a_edge13_Node000009_Node000016"><a xlink:title=" ">
<path fill="none" stroke="#63b8ff" d="M666.55,-912.52C670.72,-910.37 674.63,-907.78 678,-904.62 710.37,-874.34 680.83,-841.03 714,-811.62 721.08,-805.35 730.05,-801.2 739.2,-798.48"/>
<polygon fill="#63b8ff" stroke="#63b8ff" points="739.95,-801.9 748.87,-796.16 738.32,-795.09 739.95,-801.9"/>
</a>
</g>
</g>
<!-- Node19 -->
<g id="Node000019" class="node">
<title>Node19</title>
<g id="a_Node000019"><a xlink:href="Mixes_8h.html#a5aa9208b1f2a522a0cdb348301fe0593" target="_top" xlink:title=" ">
<polygon fill="white" stroke="#666666" points="814.75,-1062.25 756.75,-1062.25 756.75,-1043 814.75,-1043 814.75,-1062.25"/>
<text text-anchor="middle" x="785.75" y="-1048.75" font-family="Helvetica,sans-Serif" font-size="10.00">MixInputs</text>
</a>
</g>
</g>
<!-- Node9&#45;&gt;Node19 -->
<g id="edge16_Node000009_Node000019" class="edge">
<title>Node9&#45;&gt;Node19</title>
<g id="a_edge16_Node000009_Node000019"><a xlink:title=" ">
<path fill="none" stroke="#63b8ff" d="M625.7,-932.48C638.09,-954.45 671.1,-1007.62 714,-1034.62 723.29,-1040.48 734.4,-1044.43 745.03,-1047.1"/>
<polygon fill="#63b8ff" stroke="#63b8ff" points="744.28,-1050.51 754.79,-1049.2 745.75,-1043.67 744.28,-1050.51"/>
</a>
</g>
</g>
<!-- Node20 -->
<g id="Node000020" class="node">
<title>Node20</title>
<g id="a_Node000020"><a xlink:href="Mixes_8h.html#a376c11f3a285138341edc0783f930ff3" target="_top" xlink:title=" ">
<polygon fill="white" stroke="#666666" points="818.5,-914.25 753,-914.25 753,-895 818.5,-895 818.5,-914.25"/>
<text text-anchor="middle" x="785.75" y="-900.75" font-family="Helvetica,sans-Serif" font-size="10.00">MixOutputs</text>
</a>
</g>
</g>
<!-- Node9&#45;&gt;Node20 -->
<g id="edge17_Node000009_Node000020" class="edge">
<title>Node9&#45;&gt;Node20</title>
<g id="a_edge17_Node000009_Node000020"><a xlink:title=" ">
<path fill="none" stroke="#63b8ff" d="M678.33,-916.28C699.09,-914.01 722.12,-911.48 741.43,-909.37"/>
<polygon fill="#63b8ff" stroke="#63b8ff" points="741.56,-912.88 751.12,-908.31 740.8,-905.92 741.56,-912.88"/>
</a>
</g>
</g>
<!-- Node21 -->
<g id="Node000021" class="node">
<title>Node21</title>
<g id="a_Node000021"><a xlink:href="TransmitterCode_2src_2main_8cpp.html#a92bb36e29cd297189daefb3b79deaac3" target="_top" xlink:title=" ">
<polygon fill="white" stroke="#666666" points="827.88,-1025.25 743.62,-1025.25 743.62,-1006 827.88,-1006 827.88,-1025.25"/>
<text text-anchor="middle" x="785.75" y="-1011.75" font-family="Helvetica,sans-Serif" font-size="10.00">RerouteOutputs</text>
</a>
</g>
</g>
<!-- Node9&#45;&gt;Node21 -->
<g id="edge19_Node000009_Node000021" class="edge">
<title>Node9&#45;&gt;Node21</title>
<g id="a_edge19_Node000009_Node000021"><a xlink:title=" ">
<path fill="none" stroke="#63b8ff" d="M629.77,-932.51C645.61,-948.59 679.33,-980.35 714,-997.62 719.81,-1000.52 726.14,-1002.98 732.53,-1005.06"/>
<polygon fill="#63b8ff" stroke="#63b8ff" points="731.24,-1008.33 741.83,-1007.79 733.21,-1001.61 731.24,-1008.33"/>
</a>
</g>
</g>
<!-- Node22 -->
<g id="Node000022" class="node">
<title>Node22</title>
<g id="a_Node000022"><a xlink:href="Utilities_8h.html#a2d10590a11f1790e37c47f70f294f10d" target="_top" xlink:title=" ">
<polygon fill="white" stroke="#666666" points="824.5,-988.25 747,-988.25 747,-969 824.5,-969 824.5,-988.25"/>
<text text-anchor="middle" x="785.75" y="-974.75" font-family="Helvetica,sans-Serif" font-size="10.00">ServoReverse</text>
</a>
</g>
</g>
<!-- Node9&#45;&gt;Node22 -->
<g id="edge20_Node000009_Node000022" class="edge">
<title>Node9&#45;&gt;Node22</title>
<g id="a_edge20_Node000009_Node000022"><a xlink:title=" ">
<path fill="none" stroke="#63b8ff" d="M642.76,-932.72C661.53,-940.93 689.17,-952.47 714,-960.62 720.96,-962.91 728.38,-965.08 735.7,-967.07"/>
<polygon fill="#63b8ff" stroke="#63b8ff" points="734.63,-970.41 745.19,-969.56 736.41,-963.64 734.63,-970.41"/>
</a>
</g>
</g>
<!-- Node23 -->
<g id="Node000023" class="node">
<title>Node23</title>
<g id="a_Node000023"><a xlink:href="TransmitterCode_2src_2main_8cpp.html#a73d05c890a6a5f7b493e6aefb497d869" target="_top" xlink:title=" ">
<polygon fill="white" stroke="#666666" points="828.25,-951.25 743.25,-951.25 743.25,-932 828.25,-932 828.25,-951.25"/>
<text text-anchor="middle" x="785.75" y="-937.75" font-family="Helvetica,sans-Serif" font-size="10.00">SlowAnyServos</text>
</a>
</g>
</g>
<!-- Node9&#45;&gt;Node23 -->
<g id="edge21_Node000009_Node000023" class="edge">
<title>Node9&#45;&gt;Node23</title>
<g id="a_edge21_Node000009_Node000023"><a xlink:title=" ">
<path fill="none" stroke="#63b8ff" d="M678.33,-929.32C695.6,-931.32 714.44,-933.5 731.41,-935.46"/>
<polygon fill="#63b8ff" stroke="#63b8ff" points="730.97,-938.93 741.3,-936.6 731.77,-931.98 730.97,-938.93"/>
</a>
</g>
</g>
<!-- Node11 -->
<g id="Node000011" class="node">
<title>Node11</title>
<g id="a_Node000011"><a xlink:href="Rates_8h.html#af9c038b48102eca9032f10fefd9d5736" target="_top" xlink:title=" ">
<polygon fill="#fff0f0" stroke="red" points="1005.88,-877.25 928.38,-877.25 928.38,-858 1005.88,-858 1005.88,-877.25"/>
<text text-anchor="middle" x="967.12" y="-863.75" font-family="Helvetica,sans-Serif" font-size="10.00">GetCurveDots</text>
</a>
</g>
</g>
<!-- Node10&#45;&gt;Node11 -->
<g id="edge10_Node000010_Node000011" class="edge">
<title>Node10&#45;&gt;Node11</title>
<g id="a_edge10_Node000010_Node000011"><a xlink:title=" ">
<path fill="none" stroke="#63b8ff" d="M837.19,-867.62C862.06,-867.62 891.94,-867.62 916.68,-867.62"/>
<polygon fill="#63b8ff" stroke="#63b8ff" points="916.49,-871.13 926.49,-867.63 916.49,-864.13 916.49,-871.13"/>
</a>
</g>
</g>
<!-- Node15 -->
<g id="Node000015" class="node">
<title>Node15</title>
<g id="a_Node000015"><a xlink:href="Trims_8h.html#aacd8b022714bb89847239dd878ad9509" target="_top" xlink:title=" ">
<polygon fill="white" stroke="#666666" points="1009.62,-840.25 924.62,-840.25 924.62,-821 1009.62,-821 1009.62,-840.25"/>
<text text-anchor="middle" x="967.12" y="-826.75" font-family="Helvetica,sans-Serif" font-size="10.00">GetTrimAmount</text>
</a>
</g>
</g>
<!-- Node14&#45;&gt;Node15 -->
<g id="edge12_Node000014_Node000015" class="edge">
<title>Node14&#45;&gt;Node15</title>
<g id="a_edge12_Node000014_Node000015"><a xlink:title=" ">
<path fill="none" stroke="#63b8ff" d="M840.57,-830.62C863.52,-830.62 890.23,-830.62 913.09,-830.62"/>
<polygon fill="#63b8ff" stroke="#63b8ff" points="912.8,-834.13 922.8,-830.63 912.8,-827.13 912.8,-834.13"/>
</a>
</g>
</g>
<!-- Node17 -->
<g id="Node000017" class="node">
<title>Node17</title>
<g id="a_Node000017"><a xlink:href="TransmitterCode_2src_2main_8cpp.html#ac5728db610c441820a6f47295967cbab" target="_top" xlink:title=" ">
<polygon fill="white" stroke="#666666" points="1006.62,-803.25 927.62,-803.25 927.62,-784 1006.62,-784 1006.62,-803.25"/>
<text text-anchor="middle" x="967.12" y="-789.75" font-family="Helvetica,sans-Serif" font-size="10.00">AnalogueReed</text>
</a>
</g>
</g>
<!-- Node16&#45;&gt;Node17 -->
<g id="edge14_Node000016_Node000017" class="edge">
<title>Node16&#45;&gt;Node17</title>
<g id="a_edge14_Node000016_Node000017"><a xlink:title=" ">
<path fill="none" stroke="#63b8ff" d="M820.91,-793.62C847.86,-793.62 885.84,-793.62 916.2,-793.62"/>
<polygon fill="#63b8ff" stroke="#63b8ff" points="915.91,-797.13 925.91,-793.63 915.91,-790.13 915.91,-797.13"/>
</a>
</g>
</g>
<!-- Node18 -->
<g id="Node000018" class="node">
<title>Node18</title>
<g id="a_Node000018"><a xlink:href="TransmitterCode_2src_2main_8cpp.html#a787973ed0df098048a54e5110896eeb6" target="_top" xlink:title=" ">
<polygon fill="white" stroke="#666666" points="1031.38,-766.25 902.88,-766.25 902.88,-747 1031.38,-747 1031.38,-766.25"/>
<text text-anchor="middle" x="967.12" y="-752.75" font-family="Helvetica,sans-Serif" font-size="10.00">ReadThreePositionSwitch</text>
</a>
</g>
</g>
<!-- Node16&#45;&gt;Node18 -->
<g id="edge15_Node000016_Node000018" class="edge">
<title>Node16&#45;&gt;Node18</title>
<g id="a_edge15_Node000016_Node000018"><a xlink:title=" ">
<path fill="none" stroke="#63b8ff" d="M820.91,-786.58C844.96,-781.62 877.79,-774.85 906.15,-769"/>
<polygon fill="#63b8ff" stroke="#63b8ff" points="906.61,-772.47 915.7,-767.03 905.2,-765.62 906.61,-772.47"/>
</a>
</g>
</g>
<!-- Node20&#45;&gt;Node8 -->
<g id="edge18_Node000020_Node000008" class="edge">
<title>Node20&#45;&gt;Node8</title>
<g id="a_edge18_Node000020_Node000008"><a xlink:title=" ">
<path fill="none" stroke="#63b8ff" d="M818.91,-910.28C831.31,-913.1 845.39,-917.12 857.5,-922.62 890.97,-937.84 925.15,-963.44 946.01,-980.43"/>
<polygon fill="#63b8ff" stroke="#63b8ff" points="943.5,-982.91 953.43,-986.6 947.98,-977.52 943.5,-982.91"/>
</a>
</g>
</g>
<!-- Node26 -->
<g id="Node000026" class="node">
<title>Node26</title>
<g id="a_Node000026"><a xlink:href="transceiver_8h.html#a1ddd5e8d5bd649dd98ce3710fbff651b" target="_top" xlink:title=" ">
<polygon fill="white" stroke="#666666" points="815.88,-692.25 755.62,-692.25 755.62,-673 815.88,-673 815.88,-692.25"/>
<text text-anchor="middle" x="785.75" y="-678.75" font-family="Helvetica,sans-Serif" font-size="10.00">Compress</text>
</a>
</g>
</g>
<!-- Node25&#45;&gt;Node26 -->
<g id="edge24_Node000025_Node000026" class="edge">
<title>Node25&#45;&gt;Node26</title>
<g id="a_edge24_Node000025_Node000026"><a xlink:title=" ">
<path fill="none" stroke="#63b8ff" d="M625.67,-561.57C638.02,-583.74 670.94,-637.39 714,-664.62 723.05,-670.35 733.82,-674.25 744.21,-676.92"/>
<polygon fill="#63b8ff" stroke="#63b8ff" points="743.22,-680.28 753.74,-679.02 744.73,-673.45 743.22,-680.28"/>
</a>
</g>
</g>
<!-- Node27 -->
<g id="Node000027" class="node">
<title>Node27</title>
<g id="a_Node000027"><a xlink:href="transceiver_8h.html#a4144c213e5448a7e02d4172881f08219" target="_top" xlink:title=" ">
<polygon fill="white" stroke="#666666" points="857.5,-655.25 714,-655.25 714,-636 857.5,-636 857.5,-655.25"/>
<text text-anchor="middle" x="785.75" y="-641.75" font-family="Helvetica,sans-Serif" font-size="10.00">EncodeTheChangedChannels</text>
</a>
</g>
</g>
<!-- Node25&#45;&gt;Node27 -->
<g id="edge25_Node000025_Node000027" class="edge">
<title>Node25&#45;&gt;Node27</title>
<g id="a_edge25_Node000025_Node000027"><a xlink:title=" ">
<path fill="none" stroke="#63b8ff" d="M629.74,-561.64C645.55,-577.95 679.2,-610.15 714,-627.62 716.92,-629.09 719.97,-630.45 723.09,-631.69"/>
<polygon fill="#63b8ff" stroke="#63b8ff" points="721.89,-634.98 732.49,-635.04 724.24,-628.39 721.89,-634.98"/>
</a>
</g>
</g>
<!-- Node28 -->
<g id="Node000028" class="node">
<title>Node28</title>
<g id="a_Node000028"><a xlink:href="transceiver_8h.html#a5fbd3c8613a4163425c94965704ce5f8" target="_top" xlink:title=" ">
<polygon fill="white" stroke="#666666" points="822.25,-618.25 749.25,-618.25 749.25,-599 822.25,-599 822.25,-618.25"/>
<text text-anchor="middle" x="785.75" y="-604.75" font-family="Helvetica,sans-Serif" font-size="10.00">FailedPacket</text>
</a>
</g>
</g>
<!-- Node25&#45;&gt;Node28 -->
<g id="edge26_Node000025_Node000028" class="edge">
<title>Node25&#45;&gt;Node28</title>
<g id="a_edge26_Node000025_Node000028"><a xlink:title=" ">
<path fill="none" stroke="#63b8ff" d="M648.61,-561.68C667.18,-568.26 692.01,-577.02 714,-584.62 723.71,-587.98 734.18,-591.56 744.02,-594.9"/>
<polygon fill="#63b8ff" stroke="#63b8ff" points="742.75,-598.16 753.34,-598.06 744.99,-591.53 742.75,-598.16"/>
</a>
</g>
</g>
<!-- Node70 -->
<g id="Node000070" class="node">
<title>Node70</title>
<g id="a_Node000070"><a xlink:href="transceiver_8h.html#a07c27b4e208198453c70876517926052" target="_top" xlink:title=" ">
<polygon fill="white" stroke="#666666" points="1152.38,-533.25 1090.62,-533.25 1090.62,-514 1152.38,-514 1152.38,-533.25"/>
<text text-anchor="middle" x="1121.5" y="-519.75" font-family="Helvetica,sans-Serif" font-size="10.00">FlushFifos</text>
</a>
</g>
</g>
<!-- Node25&#45;&gt;Node70 -->
<g id="edge32_Node000025_Node000070" class="edge">
<title>Node25&#45;&gt;Node70</title>
<g id="a_edge32_Node000025_Node000070"><a xlink:title=" ">
<path fill="none" stroke="#63b8ff" d="M649.06,-550.02C733.33,-545.3 980.39,-531.47 1079.08,-525.94"/>
<polygon fill="#63b8ff" stroke="#63b8ff" points="1079.06,-529.45 1088.85,-525.4 1078.67,-522.46 1079.06,-529.45"/>
</a>
</g>
</g>
<!-- Node66 -->
<g id="Node000066" class="node">
<title>Node66</title>
<g id="a_Node000066"><a xlink:href="common_8h.html#a6e2d4126d864c50e7c23c988c2bfdd1a" target="_top" xlink:title=" ">
<polygon fill="white" stroke="#666666" points="1248.25,-458.25 1202.25,-458.25 1202.25,-439 1248.25,-439 1248.25,-458.25"/>
<text text-anchor="middle" x="1225.25" y="-444.75" font-family="Helvetica,sans-Serif" font-size="10.00">Radio1</text>
</a>
</g>
</g>
<!-- Node25&#45;&gt;Node66 -->
<g id="edge34_Node000025_Node000066" class="edge">
<title>Node25&#45;&gt;Node66</title>
<g id="a_edge34_Node000025_Node000066"><a xlink:title=" ">
<path fill="none" stroke="#63b8ff" d="M649.03,-554.75C748.51,-565.07 1077.72,-594.5 1166.25,-542.62 1193.74,-526.52 1209.98,-491.73 1217.99,-469.29"/>
<polygon fill="#63b8ff" stroke="#63b8ff" points="1221.24,-470.59 1221.05,-460 1214.6,-468.4 1221.24,-470.59"/>
</a>
</g>
</g>
<!-- Node71 -->
<g id="Node000071" class="node">
<title>Node71</title>
<g id="a_Node000071"><a xlink:href="transceiver_8h.html#a2922deec8dd173415edd9ec1c3e406a8" target="_top" xlink:title=" ">
<polygon fill="white" stroke="#666666" points="845.12,-112.25 726.38,-112.25 726.38,-93 845.12,-93 845.12,-112.25"/>
<text text-anchor="middle" x="785.75" y="-98.75" font-family="Helvetica,sans-Serif" font-size="10.00">SendExtraParamemters</text>
</a>
</g>
</g>
<!-- Node25&#45;&gt;Node71 -->
<g id="edge35_Node000025_Node000071" class="edge">
<title>Node25&#45;&gt;Node71</title>
<g id="a_edge35_Node000025_Node000071"><a xlink:title=" ">
<path fill="none" stroke="#63b8ff" d="M623.4,-541.53C634.51,-504.76 674.41,-374.61 714,-269.62 734.2,-216.07 761.38,-154.37 775.45,-123.09"/>
<polygon fill="#63b8ff" stroke="#63b8ff" points="778.61,-124.61 779.53,-114.06 772.23,-121.73 778.61,-124.61"/>
</a>
</g>
</g>
<!-- Node75 -->
<g id="Node000075" class="node">
<title>Node75</title>
<g id="a_Node000075"><a xlink:href="BuddyWireless_8h.html#a41c327908c92572d0d3eebbb19160d86" target="_top" xlink:title=" ">
<polygon fill="white" stroke="#666666" points="836.5,-467.25 735,-467.25 735,-448 836.5,-448 836.5,-467.25"/>
<text text-anchor="middle" x="785.75" y="-453.75" font-family="Helvetica,sans-Serif" font-size="10.00">SendSpecialPacket</text>
</a>
</g>
</g>
<!-- Node25&#45;&gt;Node75 -->
<g id="edge40_Node000025_Node000075" class="edge">
<title>Node25&#45;&gt;Node75</title>
<g id="a_edge40_Node000025_Node000075"><a xlink:title=" ">
<path fill="none" stroke="#63b8ff" d="M637.97,-541.57C666.64,-525.17 723.64,-492.57 757.56,-473.17"/>
<polygon fill="#63b8ff" stroke="#63b8ff" points="759.03,-476.37 765.97,-468.36 755.55,-470.29 759.03,-476.37"/>
</a>
</g>
</g>
<!-- Node83 -->
<g id="Node000083" class="node">
<title>Node83</title>
<g id="a_Node000083"><a xlink:href="BuddyPPM_8h.html#a784a1eca0361b3991bca899167cc1cdb" target="_top" xlink:title=" ">
<polygon fill="white" stroke="#666666" points="823,-75.25 748.5,-75.25 748.5,-56 823,-56 823,-75.25"/>
<text text-anchor="middle" x="785.75" y="-61.75" font-family="Helvetica,sans-Serif" font-size="10.00">SendViaPPM</text>
</a>
</g>
</g>
<!-- Node25&#45;&gt;Node83 -->
<g id="edge49_Node000025_Node000083" class="edge">
<title>Node25&#45;&gt;Node83</title>
<g id="a_edge49_Node000025_Node000083"><a xlink:title=" ">
<path fill="none" stroke="#63b8ff" d="M620.94,-541.89C624.7,-481.06 647.81,-153.32 714,-83.62 720.2,-77.1 728.4,-72.81 737.02,-70.01"/>
<polygon fill="#63b8ff" stroke="#63b8ff" points="737.74,-73.44 746.58,-67.59 736.02,-66.66 737.74,-73.44"/>
</a>
</g>
</g>
<!-- Node84 -->
<g id="Node000084" class="node">
<title>Node84</title>
<g id="a_Node000084"><a xlink:href="transceiver_8h.html#a1c11bb6771548de7d96723045b922620" target="_top" xlink:title=" ">
<polygon fill="white" stroke="#666666" points="833.5,-298.25 738,-298.25 738,-279 833.5,-279 833.5,-298.25"/>
<text text-anchor="middle" x="785.75" y="-284.75" font-family="Helvetica,sans-Serif" font-size="10.00">SuccessfulPacket</text>
</a>
</g>
</g>
<!-- Node25&#45;&gt;Node84 -->
<g id="edge50_Node000025_Node000084" class="edge">
<title>Node25&#45;&gt;Node84</title>
<g id="a_edge50_Node000025_Node000084"><a xlink:title=" ">
<path fill="none" stroke="#63b8ff" d="M626.62,-541.64C650.98,-502.66 739.89,-360.4 772.58,-308.09"/>
<polygon fill="#63b8ff" stroke="#63b8ff" points="775.37,-310.24 777.7,-299.91 769.43,-306.53 775.37,-310.24"/>
</a>
</g>
</g>
<!-- Node29 -->
<g id="Node000029" class="node">
<title>Node29</title>
<g id="a_Node000029"><a xlink:href="transceiver_8h.html#afcf53d02052a623856b352f27547194c" target="_top" xlink:title=" ">
<polygon fill="white" stroke="#666666" points="1014.5,-655.25 919.75,-655.25 919.75,-636 1014.5,-636 1014.5,-655.25"/>
<text text-anchor="middle" x="967.12" y="-641.75" font-family="Helvetica,sans-Serif" font-size="10.00">CheckDataRepeat</text>
</a>
</g>
</g>
<!-- Node28&#45;&gt;Node29 -->
<g id="edge27_Node000028_Node000029" class="edge">
<title>Node28&#45;&gt;Node29</title>
<g id="a_edge27_Node000028_Node000029"><a xlink:title=" ">
<path fill="none" stroke="#63b8ff" d="M822.62,-616.02C847.17,-621.09 880.26,-627.91 908.47,-633.73"/>
<polygon fill="#63b8ff" stroke="#63b8ff" points="907.44,-637.09 917.94,-635.69 908.85,-630.24 907.44,-637.09"/>
</a>
</g>
</g>
<!-- Node30 -->
<g id="Node000030" class="node">
<title>Node30</title>
<g id="a_Node000030"><a xlink:href="transceiver_8h.html#a7154e4db2ead530e9d7c8061d09d37cb" target="_top" xlink:title=" ">
<polygon fill="#fff0f0" stroke="red" points="998,-618.25 936.25,-618.25 936.25,-599 998,-599 998,-618.25"/>
<text text-anchor="middle" x="967.12" y="-604.75" font-family="Helvetica,sans-Serif" font-size="10.00">CheckGap</text>
</a>
</g>
</g>
<!-- Node28&#45;&gt;Node30 -->
<g id="edge28_Node000028_Node000030" class="edge">
<title>Node28&#45;&gt;Node30</title>
<g id="a_edge28_Node000028_Node000030"><a xlink:title=" ">
<path fill="none" stroke="#63b8ff" d="M822.62,-608.62C852.08,-608.62 893.84,-608.62 924.72,-608.62"/>
<polygon fill="#63b8ff" stroke="#63b8ff" points="924.46,-612.13 934.46,-608.63 924.46,-605.13 924.46,-612.13"/>
</a>
</g>
</g>
<!-- Node60 -->
<g id="Node000060" class="node">
<title>Node60</title>
<g id="a_Node000060"><a xlink:href="transceiver_8h.html#abf955fe3fa8f544096735e18385cd90d" target="_top" xlink:title=" ">
<polygon fill="white" stroke="#666666" points="1026.12,-729.25 908.12,-729.25 908.12,-710 1026.12,-710 1026.12,-729.25"/>
<text text-anchor="middle" x="967.12" y="-715.75" font-family="Helvetica,sans-Serif" font-size="10.00">CheckInactivityTimeout</text>
</a>
</g>
</g>
<!-- Node28&#45;&gt;Node60 -->
<g id="edge29_Node000028_Node000060" class="edge">
<title>Node28&#45;&gt;Node60</title>
<g id="a_edge29_Node000028_Node000060"><a xlink:title=" ">
<path fill="none" stroke="#63b8ff" d="M822.62,-611.58C834.75,-614.09 847.69,-618.59 857.5,-626.62 886.11,-650.05 864.82,-678.29 893.5,-701.62 894.99,-702.84 896.55,-703.97 898.17,-705.03"/>
<polygon fill="#63b8ff" stroke="#63b8ff" points="896.16,-707.92 906.62,-709.58 899.48,-701.76 896.16,-707.92"/>
</a>
</g>
</g>
<!-- Node61 -->
<g id="Node000061" class="node">
<title>Node61</title>
<g id="a_Node000061"><a xlink:href="transceiver_8h.html#a18d9866d5425cd145044b1fddbfc00a0" target="_top" xlink:title=" ">
<polygon fill="#fff0f0" stroke="red" points="1015.62,-692.25 918.62,-692.25 918.62,-673 1015.62,-673 1015.62,-692.25"/>
<text text-anchor="middle" x="967.12" y="-678.75" font-family="Helvetica,sans-Serif" font-size="10.00">CheckLostContact</text>
</a>
</g>
</g>
<!-- Node28&#45;&gt;Node61 -->
<g id="edge30_Node000028_Node000061" class="edge">
<title>Node28&#45;&gt;Node61</title>
<g id="a_edge30_Node000028_Node000061"><a xlink:title=" ">
<path fill="none" stroke="#63b8ff" d="M822.45,-613.63C834.17,-616.31 846.9,-620.4 857.5,-626.62 877.56,-638.4 873.4,-652.91 893.5,-664.62 897.91,-667.2 902.68,-669.4 907.6,-671.29"/>
<polygon fill="#63b8ff" stroke="#63b8ff" points="906.47,-674.61 917.06,-674.47 908.7,-667.97 906.47,-674.61"/>
</a>
</g>
</g>
<!-- Node69 -->
<g id="Node000069" class="node">
<title>Node69</title>
<g id="a_Node000069"><a xlink:href="transceiver_8h.html#afc091b5942e21a03f6dc8635d5e519ba" target="_top" xlink:title=" ">
<polygon fill="white" stroke="#666666" points="1027.62,-467.25 906.62,-467.25 906.62,-448 1027.62,-448 1027.62,-467.25"/>
<text text-anchor="middle" x="967.12" y="-453.75" font-family="Helvetica,sans-Serif" font-size="10.00">RecordsPacketSuccess</text>
</a>
</g>
</g>
<!-- Node28&#45;&gt;Node69 -->
<g id="edge31_Node000028_Node000069" class="edge">
<title>Node28&#45;&gt;Node69</title>
<g id="a_edge31_Node000028_Node000069"><a xlink:title=" ">
<path fill="none" stroke="#63b8ff" d="M791.68,-598.78C804.67,-573.94 842.36,-508.31 893.5,-475.62 895.35,-474.44 897.27,-473.34 899.24,-472.31"/>
<polygon fill="#63b8ff" stroke="#63b8ff" points="900.4,-475.63 908.1,-468.35 897.54,-469.24 900.4,-475.63"/>
</a>
</g>
</g>
<!-- Node70&#45;&gt;Node66 -->
<g id="edge33_Node000070_Node000066" class="edge">
<title>Node70&#45;&gt;Node66</title>
<g id="a_edge33_Node000070_Node000066"><a xlink:title=" ">
<path fill="none" stroke="#63b8ff" d="M1136.22,-513.51C1153,-501.14 1181.65,-480.03 1201.69,-465.26"/>
<polygon fill="#63b8ff" stroke="#63b8ff" points="1203.55,-468.23 1209.53,-459.48 1199.4,-462.59 1203.55,-468.23"/>
</a>
</g>
</g>
<!-- Node72 -->
<g id="Node000072" class="node">
<title>Node72</title>
<g id="a_Node000072"><a xlink:href="transceiver_8h.html#adac102739147db6397bbcbb371aec4fd" target="_top" xlink:title=" ">
<polygon fill="#fff0f0" stroke="red" points="1011.12,-56.25 923.12,-56.25 923.12,-37 1011.12,-37 1011.12,-56.25"/>
<text text-anchor="middle" x="967.12" y="-42.75" font-family="Helvetica,sans-Serif" font-size="10.00">LoadParameters</text>
</a>
</g>
</g>
<!-- Node71&#45;&gt;Node72 -->
<g id="edge36_Node000071_Node000072" class="edge">
<title>Node71&#45;&gt;Node72</title>
<g id="a_edge36_Node000071_Node000072"><a xlink:title=" ">
<path fill="none" stroke="#63b8ff" d="M833.35,-92.6C841.51,-90.32 849.84,-87.67 857.5,-84.62 874.51,-77.87 876.47,-71.33 893.5,-64.62 899.46,-62.28 905.82,-60.17 912.21,-58.29"/>
<polygon fill="#63b8ff" stroke="#63b8ff" points="912.74,-61.77 921.45,-55.75 910.88,-55.02 912.74,-61.77"/>
</a>
</g>
</g>
<!-- Node74 -->
<g id="Node000074" class="node">
<title>Node74</title>
<g id="a_Node000074"><a xlink:href="transceiver_8h.html#a3cf130d144a13a07623d938ff62fa7ca" target="_top" xlink:title=" ">
<polygon fill="white" stroke="#666666" points="1040.75,-19.25 893.5,-19.25 893.5,0 1040.75,0 1040.75,-19.25"/>
<text text-anchor="middle" x="967.12" y="-5.75" font-family="Helvetica,sans-Serif" font-size="10.00">LoadRawDataWithParameters</text>
</a>
</g>
</g>
<!-- Node71&#45;&gt;Node74 -->
<g id="edge37_Node000071_Node000074" class="edge">
<title>Node71&#45;&gt;Node74</title>
<g id="a_edge37_Node000071_Node000074"><a xlink:title=" ">
<path fill="none" stroke="#63b8ff" d="M843.03,-92.63C848.17,-90.46 853.09,-87.83 857.5,-84.62 881.74,-67.01 869.2,-45.16 893.5,-27.62 894.88,-26.63 896.31,-25.68 897.79,-24.79"/>
<polygon fill="#63b8ff" stroke="#63b8ff" points="899.3,-27.95 906.65,-20.32 896.14,-21.7 899.3,-27.95"/>
</a>
</g>
</g>
<!-- Node64 -->
<g id="Node000064" class="node">
<title>Node64</title>
<g id="a_Node000064"><a xlink:href="ReceiverCode_2src_2main_8cpp.html#a6d87eba17154f7f4f2f3802ef8ee261f" target="_top" xlink:title=" ">
<polygon fill="white" stroke="#666666" points="986,-130.25 948.25,-130.25 948.25,-111 986,-111 986,-130.25"/>
<text text-anchor="middle" x="967.12" y="-116.75" font-family="Helvetica,sans-Serif" font-size="10.00">Look</text>
</a>
</g>
</g>
<!-- Node71&#45;&gt;Node64 -->
<g id="edge38_Node000071_Node000064" class="edge">
<title>Node71&#45;&gt;Node64</title>
<g id="a_edge38_Node000071_Node000064"><a xlink:title=" ">
<path fill="none" stroke="#63b8ff" d="M845.48,-108.52C876.04,-111.59 912.06,-115.2 936.74,-117.68"/>
<polygon fill="#63b8ff" stroke="#63b8ff" points="936.06,-121.13 946.36,-118.64 936.76,-114.16 936.06,-121.13"/>
</a>
</g>
</g>
<!-- Node65 -->
<g id="Node000065" class="node">
<title>Node65</title>
<g id="a_Node000065"><a xlink:href="ReceiverCode_2src_2main_8cpp.html#aea423a497d09a142f394356bc8438c41" target="_top" xlink:title=" ">
<polygon fill="white" stroke="#666666" points="988.62,-93.25 945.62,-93.25 945.62,-74 988.62,-74 988.62,-93.25"/>
<text text-anchor="middle" x="967.12" y="-79.75" font-family="Helvetica,sans-Serif" font-size="10.00">Look1</text>
</a>
</g>
</g>
<!-- Node71&#45;&gt;Node65 -->
<g id="edge39_Node000071_Node000065" class="edge">
<title>Node71&#45;&gt;Node65</title>
<g id="a_edge39_Node000071_Node000065"><a xlink:title=" ">
<path fill="none" stroke="#63b8ff" d="M845.48,-96.4C874.99,-93.28 909.58,-89.61 934.14,-87.01"/>
<polygon fill="#63b8ff" stroke="#63b8ff" points="934.25,-90.52 943.82,-85.99 933.51,-83.56 934.25,-90.52"/>
</a>
</g>
</g>
<!-- Node76 -->
<g id="Node000076" class="node">
<title>Node76</title>
<g id="a_Node000076"><a xlink:href="BuddyWireless_8h.html#adcf60ad1a186299e73af5fb9c846f259" target="_top" xlink:title=" ">
<polygon fill="white" stroke="#666666" points="1166.25,-434.25 1076.75,-434.25 1076.75,-415 1166.25,-415 1166.25,-434.25"/>
<text text-anchor="middle" x="1121.5" y="-420.75" font-family="Helvetica,sans-Serif" font-size="10.00">ChangeTXTarget</text>
</a>
</g>
</g>
<!-- Node75&#45;&gt;Node76 -->
<g id="edge41_Node000075_Node000076" class="edge">
<title>Node75&#45;&gt;Node76</title>
<g id="a_edge41_Node000075_Node000076"><a xlink:title=" ">
<path fill="none" stroke="#63b8ff" d="M836.54,-447.54C854.43,-444.24 874.81,-440.86 893.5,-438.62 951.87,-431.65 1019.13,-428.06 1065.19,-426.27"/>
<polygon fill="#63b8ff" stroke="#63b8ff" points="1065.05,-429.77 1074.91,-425.9 1064.79,-422.78 1065.05,-429.77"/>
</a>
</g>
</g>
<!-- Node77 -->
<g id="Node000077" class="node">
<title>Node77</title>
<g id="a_Node000077"><a xlink:href="BuddyWireless_8h.html#a691770f3ae3f36de88d9eb432b9d2ab4" target="_top" xlink:title=" ">
<polygon fill="#fff0f0" stroke="red" points="1035.88,-391.25 898.38,-391.25 898.38,-372 1035.88,-372 1035.88,-391.25"/>
<text text-anchor="middle" x="967.12" y="-377.75" font-family="Helvetica,sans-Serif" font-size="10.00">DoTheLongerSpecialPacket</text>
</a>
</g>
</g>
<!-- Node75&#45;&gt;Node77 -->
<g id="edge43_Node000075_Node000077" class="edge">
<title>Node75&#45;&gt;Node77</title>
<g id="a_edge43_Node000075_Node000077"><a xlink:title=" ">
<path fill="none" stroke="#63b8ff" d="M805.3,-447.64C826.33,-436.55 861.8,-418.52 893.5,-405.62 902.52,-401.96 912.33,-398.42 921.73,-395.24"/>
<polygon fill="#63b8ff" stroke="#63b8ff" points="922.68,-398.62 931.08,-392.17 920.49,-391.97 922.68,-398.62"/>
</a>
</g>
</g>
<!-- Node82 -->
<g id="Node000082" class="node">
<title>Node82</title>
<g id="a_Node000082"><a xlink:href="BuddyWireless_8h.html#a8003974712e0ce62371a6c6438774197" target="_top" xlink:title=" ">
<polygon fill="#fff0f0" stroke="red" points="1036.62,-504.25 897.62,-504.25 897.62,-485 1036.62,-485 1036.62,-504.25"/>
<text text-anchor="middle" x="967.12" y="-490.75" font-family="Helvetica,sans-Serif" font-size="10.00">DoTheShorterSpecialPacket</text>
</a>
</g>
</g>
<!-- Node75&#45;&gt;Node82 -->
<g id="edge46_Node000075_Node000082" class="edge">
<title>Node75&#45;&gt;Node82</title>
<g id="a_edge46_Node000075_Node000082"><a xlink:title=" ">
<path fill="none" stroke="#63b8ff" d="M835.77,-467.74C857.52,-472.22 883.32,-477.54 906.2,-482.26"/>
<polygon fill="#63b8ff" stroke="#63b8ff" points="905.19,-485.63 915.69,-484.22 906.6,-478.77 905.19,-485.63"/>
</a>
</g>
</g>
<!-- Node76&#45;&gt;Node66 -->
<g id="edge42_Node000076_Node000066" class="edge">
<title>Node76&#45;&gt;Node66</title>
<g id="a_edge42_Node000076_Node000066"><a xlink:title=" ">
<path fill="none" stroke="#63b8ff" d="M1165.36,-434.73C1173.92,-436.75 1182.8,-438.85 1190.98,-440.78"/>
<polygon fill="#63b8ff" stroke="#63b8ff" points="1189.97,-444.14 1200.51,-443.02 1191.58,-437.32 1189.97,-444.14"/>
</a>
</g>
</g>
<!-- Node77&#45;&gt;Node66 -->
<g id="edge45_Node000077_Node000066" class="edge">
<title>Node77&#45;&gt;Node66</title>
<g id="a_edge45_Node000077_Node000066"><a xlink:title=" ">
<path fill="none" stroke="#63b8ff" d="M1036.29,-381.31C1075.52,-383.21 1125.05,-389.21 1166.25,-405.62 1180.84,-411.44 1195.04,-421.86 1205.74,-430.99"/>
<polygon fill="#63b8ff" stroke="#63b8ff" points="1203.25,-433.46 1213.04,-437.52 1207.92,-428.24 1203.25,-433.46"/>
</a>
</g>
</g>
<!-- Node77&#45;&gt;Node76 -->
<g id="edge44_Node000077_Node000076" class="edge">
<title>Node77&#45;&gt;Node76</title>
<g id="a_edge44_Node000077_Node000076"><a xlink:title=" ">
<path fill="none" stroke="#63b8ff" d="M1003.85,-391.71C1024.69,-397.59 1051.23,-405.08 1073.73,-411.43"/>
<polygon fill="#63b8ff" stroke="#63b8ff" points="1072.7,-414.77 1083.28,-414.12 1074.6,-408.04 1072.7,-414.77"/>
</a>
</g>
</g>
<!-- Node82&#45;&gt;Node66 -->
<g id="edge48_Node000082_Node000066" class="edge">
<title>Node82&#45;&gt;Node66</title>
<g id="a_edge48_Node000082_Node000066"><a xlink:title=" ">
<path fill="none" stroke="#63b8ff" d="M1024.33,-484.53C1075.1,-475.41 1148.15,-462.29 1190.45,-454.7"/>
<polygon fill="#63b8ff" stroke="#63b8ff" points="1191.06,-458.14 1200.29,-452.93 1189.82,-451.25 1191.06,-458.14"/>
</a>
</g>
</g>
<!-- Node82&#45;&gt;Node76 -->
<g id="edge47_Node000082_Node000076" class="edge">
<title>Node82&#45;&gt;Node76</title>
<g id="a_edge47_Node000082_Node000076"><a xlink:title=" ">
<path fill="none" stroke="#63b8ff" d="M1018.08,-484.6C1025.82,-482.38 1033.6,-479.73 1040.75,-476.62 1043.76,-475.32 1073.68,-455.65 1096,-440.88"/>
<polygon fill="#63b8ff" stroke="#63b8ff" points="1097.92,-443.81 1104.33,-435.37 1094.06,-437.97 1097.92,-443.81"/>
</a>
</g>
</g>
<!-- Node84&#45;&gt;Node69 -->
<g id="edge56_Node000084_Node000069" class="edge">
<title>Node84&#45;&gt;Node69</title>
<g id="a_edge56_Node000084_Node000069"><a xlink:title=" ">
<path fill="none" stroke="#63b8ff" d="M795.44,-298.67C813.08,-318.86 854.73,-365.41 893.5,-400.62 909.46,-415.12 928.7,-430.12 943.37,-441.1"/>
<polygon fill="#63b8ff" stroke="#63b8ff" points="940.93,-443.65 951.05,-446.78 945.09,-438.02 940.93,-443.65"/>
</a>
</g>
</g>
<!-- Node84&#45;&gt;Node66 -->
<g id="edge55_Node000084_Node000066" class="edge">
<title>Node84&#45;&gt;Node66</title>
<g id="a_edge55_Node000084_Node000066"><a xlink:title=" ">
<path fill="none" stroke="#63b8ff" d="M833.53,-280.11C885.55,-272.58 971.39,-265.92 1040.75,-288.62 1118.59,-314.1 1183.73,-392.69 1210.8,-429.38"/>
<polygon fill="#63b8ff" stroke="#63b8ff" points="1207.83,-431.25 1216.51,-437.31 1213.5,-427.15 1207.83,-431.25"/>
</a>
</g>
</g>
<!-- Node85 -->
<g id="Node000085" class="node">
<title>Node85</title>
<g id="a_Node000085"><a xlink:href="transceiver_8h.html#a953f1d5046e183549ed95b08f6d675e3" target="_top" xlink:title=" ">
<polygon fill="#fff0f0" stroke="red" points="1015.62,-241.25 918.62,-241.25 918.62,-222 1015.62,-222 1015.62,-241.25"/>
<text text-anchor="middle" x="967.12" y="-227.75" font-family="Helvetica,sans-Serif" font-size="10.00">CheckGapsLength</text>
</a>
</g>
</g>
<!-- Node84&#45;&gt;Node85 -->
<g id="edge51_Node000084_Node000085" class="edge">
<title>Node84&#45;&gt;Node85</title>
<g id="a_edge51_Node000084_Node000085"><a xlink:title=" ">
<path fill="none" stroke="#63b8ff" d="M818.41,-278.57C847.65,-269.27 891.31,-255.4 923.58,-245.14"/>
<polygon fill="#63b8ff" stroke="#63b8ff" points="924.57,-248.5 933.04,-242.14 922.45,-241.83 924.57,-248.5"/>
</a>
</g>
</g>
<!-- Node87 -->
<g id="Node000087" class="node">
<title>Node87</title>
<g id="a_Node000087"><a xlink:href="TransmitterCode_2src_2main_8cpp.html#a62e53eb9359c32b666e3386d62c57037" target="_top" xlink:title=" ">
<polygon fill="#fff0f0" stroke="red" points="1002.88,-204.25 931.38,-204.25 931.38,-185 1002.88,-185 1002.88,-204.25"/>
<text text-anchor="middle" x="967.12" y="-190.75" font-family="Helvetica,sans-Serif" font-size="10.00">GreenLedOn</text>
</a>
</g>
</g>
<!-- Node84&#45;&gt;Node87 -->
<g id="edge52_Node000084_Node000087" class="edge">
<title>Node84&#45;&gt;Node87</title>
<g id="a_edge52_Node000084_Node000087"><a xlink:title=" ">
<path fill="none" stroke="#63b8ff" d="M797.71,-278.65C816.12,-262.41 855.05,-230.3 893.5,-212.62 901.89,-208.77 911.22,-205.67 920.33,-203.2"/>
<polygon fill="#63b8ff" stroke="#63b8ff" points="920.9,-206.66 929.77,-200.85 919.22,-199.86 920.9,-206.66"/>
</a>
</g>
</g>
<!-- Node107 -->
<g id="Node000107" class="node">
<title>Node107</title>
<g id="a_Node000107"><a xlink:href="transceiver_8h.html#a694f4f5a0147f4dc29b0bc1a8951547d" target="_top" xlink:title=" ">
<polygon fill="#fff0f0" stroke="red" points="1013.75,-167.25 920.5,-167.25 920.5,-148 1013.75,-148 1013.75,-167.25"/>
<text text-anchor="middle" x="967.12" y="-153.75" font-family="Helvetica,sans-Serif" font-size="10.00">ParseAckPayload</text>
</a>
</g>
</g>
<!-- Node84&#45;&gt;Node107 -->
<g id="edge53_Node000084_Node000107" class="edge">
<title>Node84&#45;&gt;Node107</title>
<g id="a_edge53_Node000084_Node000107"><a xlink:title=" ">
<path fill="none" stroke="#63b8ff" d="M793.15,-278.68C807.95,-256.5 846.89,-202.84 893.5,-175.62 898.42,-172.75 903.79,-170.33 909.31,-168.3"/>
<polygon fill="#63b8ff" stroke="#63b8ff" points="910.14,-171.71 918.58,-165.31 907.99,-165.05 910.14,-171.71"/>
</a>
</g>
</g>
<!-- Node263 -->
<g id="Node000263" class="node">
<title>Node263</title>
<g id="a_Node000263"><a xlink:href="transceiver_8h.html#a04937e814dba3f5e07cb34bb13130ff3" target="_top" xlink:title=" ">
<polygon fill="#fff0f0" stroke="red" points="1025.38,-354.25 908.88,-354.25 908.88,-335 1025.38,-335 1025.38,-354.25"/>
<text text-anchor="middle" x="967.12" y="-340.75" font-family="Helvetica,sans-Serif" font-size="10.00">ParseShortAckPayload</text>
</a>
</g>
</g>
<!-- Node84&#45;&gt;Node263 -->
<g id="edge54_Node000084_Node000263" class="edge">
<title>Node84&#45;&gt;Node263</title>
<g id="a_edge54_Node000084_Node000263"><a xlink:title=" ">
<path fill="none" stroke="#63b8ff" d="M812.83,-298.73C834.3,-306.84 865.62,-318.23 893.5,-326.62 899.33,-328.38 905.46,-330.1 911.59,-331.73"/>
<polygon fill="#63b8ff" stroke="#63b8ff" points="910.51,-335.07 921.07,-334.19 912.27,-328.29 910.51,-335.07"/>
</a>
</g>
</g>
<!-- Node104 -->
<g id="Node000104" class="node">
<title>Node104</title>
<g id="a_Node000104"><a xlink:href="Utilities_8h.html#a793b7bcd77531c95fe72ed4356d421c8" target="_top" xlink:title=" ">
<polygon fill="white" stroke="#666666" points="1021.62,-317.25 912.62,-317.25 912.62,-298 1021.62,-298 1021.62,-317.25"/>
<text text-anchor="middle" x="967.12" y="-303.75" font-family="Helvetica,sans-Serif" font-size="10.00">StartInactvityTimeout</text>
</a>
</g>
</g>
<!-- Node84&#45;&gt;Node104 -->
<g id="edge57_Node000084_Node000104" class="edge">
<title>Node84&#45;&gt;Node104</title>
<g id="a_edge57_Node000084_Node000104"><a xlink:title=" ">
<path fill="none" stroke="#63b8ff" d="M833.88,-293.62C854.39,-295.79 878.76,-298.37 900.96,-300.72"/>
<polygon fill="#63b8ff" stroke="#63b8ff" points="900.52,-304.2 910.83,-301.77 901.26,-297.23 900.52,-304.2"/>
</a>
</g>
</g>
</g>
</svg>
