<?xml version="1.0" encoding="UTF-8" standalone="no"?>
<!DOCTYPE svg PUBLIC "-//W3C//DTD SVG 1.1//EN"
 "http://www.w3.org/Graphics/SVG/1.1/DTD/svg11.dtd">
<!-- Generated by graphviz version 9.0.0 (20230911.1827)
 -->
<!-- Title: StartAudioVisualView Pages: 1 -->
<svg width="1091pt" height="925pt"
 viewBox="0.00 0.00 1090.75 925.25" xmlns="http://www.w3.org/2000/svg" xmlns:xlink="http://www.w3.org/1999/xlink">
<g id="graph0" class="graph" transform="scale(1 1) rotate(0) translate(4 921.25)">
<title>StartAudioVisualView</title>
<!-- Node1 -->
<g id="Node000001" class="node">
<title>Node1</title>
<g id="a_Node000001"><a xlink:title=" ">
<polygon fill="#999999" stroke="#666666" points="110.5,-94.25 0,-94.25 0,-75 110.5,-75 110.5,-94.25"/>
<text text-anchor="middle" x="55.25" y="-80.75" font-family="Helvetica,sans-Serif" font-size="10.00">StartAudioVisualView</text>
</a>
</g>
</g>
<!-- Node2 -->
<g id="Node000002" class="node">
<title>Node2</title>
<g id="a_Node000002"><a xlink:href="Utilities_8h.html#af0852678d8e89501acee8951f09d3b43" target="_top" xlink:title=" ">
<polygon fill="white" stroke="#666666" points="219.5,-151.25 162.25,-151.25 162.25,-132 219.5,-132 219.5,-151.25"/>
<text text-anchor="middle" x="190.88" y="-137.75" font-family="Helvetica,sans-Serif" font-size="10.00">ClearText</text>
</a>
</g>
</g>
<!-- Node1&#45;&gt;Node2 -->
<g id="edge1_Node000001_Node000002" class="edge">
<title>Node1&#45;&gt;Node2</title>
<g id="a_edge1_Node000001_Node000002"><a xlink:title=" ">
<path fill="none" stroke="#63b8ff" d="M79.83,-94.68C101.01,-103.72 132.35,-117.09 156.18,-127.25"/>
<polygon fill="#63b8ff" stroke="#63b8ff" points="154.57,-130.37 165.14,-131.07 157.31,-123.93 154.57,-130.37"/>
</a>
</g>
</g>
<!-- Node3 -->
<g id="Node000003" class="node">
<title>Node3</title>
<g id="a_Node000003"><a xlink:href="Nextion_8h.html#aecac2f0c289f02ef3c92b85be82eacac" target="_top" xlink:title=" ">
<polygon fill="white" stroke="#666666" points="354,-94.25 271.25,-94.25 271.25,-75 354,-75 354,-94.25"/>
<text text-anchor="middle" x="312.62" y="-80.75" font-family="Helvetica,sans-Serif" font-size="10.00">SendCommand</text>
</a>
</g>
</g>
<!-- Node1&#45;&gt;Node3 -->
<g id="edge2_Node000001_Node000003" class="edge">
<title>Node1&#45;&gt;Node3</title>
<g id="a_edge2_Node000001_Node000003"><a xlink:title=" ">
<path fill="none" stroke="#63b8ff" d="M110.72,-84.62C154.73,-84.62 216.27,-84.62 259.62,-84.62"/>
<polygon fill="#63b8ff" stroke="#63b8ff" points="259.54,-88.13 269.54,-84.63 259.54,-81.13 259.54,-88.13"/>
</a>
</g>
</g>
<!-- Node87 -->
<g id="Node000087" class="node">
<title>Node87</title>
<g id="a_Node000087"><a xlink:href="Nextion_8h.html#a1e20efc1e419b252b50d36f9924503fc" target="_top" xlink:title=" ">
<polygon fill="white" stroke="#666666" points="222.5,-38.25 159.25,-38.25 159.25,-19 222.5,-19 222.5,-38.25"/>
<text text-anchor="middle" x="190.88" y="-24.75" font-family="Helvetica,sans-Serif" font-size="10.00">SendValue</text>
</a>
</g>
</g>
<!-- Node1&#45;&gt;Node87 -->
<g id="edge56_Node000001_Node000087" class="edge">
<title>Node1&#45;&gt;Node87</title>
<g id="a_edge56_Node000001_Node000087"><a xlink:title=" ">
<path fill="none" stroke="#63b8ff" d="M79.99,-74.59C98.18,-66.91 123.91,-56.07 146.5,-46.62 149.29,-45.46 152.19,-44.25 155.1,-43.04"/>
<polygon fill="#63b8ff" stroke="#63b8ff" points="156.26,-46.35 164.15,-39.28 153.57,-39.88 156.26,-46.35"/>
</a>
</g>
</g>
<!-- Node255 -->
<g id="Node000255" class="node">
<title>Node255</title>
<g id="a_Node000255"><a xlink:href="Utilities_8h.html#a9f7ebc44d49714174b6be3085e6a36ab" target="_top" xlink:title=" ">
<polygon fill="white" stroke="#666666" points="235.25,-75.25 146.5,-75.25 146.5,-56 235.25,-56 235.25,-75.25"/>
<text text-anchor="middle" x="190.88" y="-61.75" font-family="Helvetica,sans-Serif" font-size="10.00">SetAudioVolume</text>
</a>
</g>
</g>
<!-- Node1&#45;&gt;Node255 -->
<g id="edge60_Node000001_Node000255" class="edge">
<title>Node1&#45;&gt;Node255</title>
<g id="a_edge60_Node000001_Node000255"><a xlink:title=" ">
<path fill="none" stroke="#63b8ff" d="M110.99,-76.84C118.83,-75.73 126.91,-74.58 134.76,-73.46"/>
<polygon fill="#63b8ff" stroke="#63b8ff" points="135.14,-76.94 144.55,-72.07 134.16,-70.01 135.14,-76.94"/>
</a>
</g>
</g>
<!-- Node4 -->
<g id="Node000004" class="node">
<title>Node4</title>
<g id="a_Node000004"><a xlink:href="Utilities_8h.html#a3b1d8aa403e2724e55c71da3d9d13e7e" target="_top" xlink:title=" ">
<polygon fill="white" stroke="#666666" points="469.75,-583.25 393,-583.25 393,-564 469.75,-564 469.75,-583.25"/>
<text text-anchor="middle" x="431.38" y="-569.75" font-family="Helvetica,sans-Serif" font-size="10.00">DelayWithDog</text>
</a>
</g>
</g>
<!-- Node3&#45;&gt;Node4 -->
<g id="edge3_Node000003_Node000004" class="edge">
<title>Node3&#45;&gt;Node4</title>
<g id="a_edge3_Node000003_Node000004"><a xlink:title=" ">
<path fill="none" stroke="#63b8ff" d="M315.96,-94.39C330.17,-153.93 405.21,-468.23 425.38,-552.71"/>
<polygon fill="#63b8ff" stroke="#63b8ff" points="421.96,-553.45 427.69,-562.36 428.77,-551.82 421.96,-553.45"/>
</a>
</g>
</g>
<!-- Node58 -->
<g id="Node000058" class="node">
<title>Node58</title>
<g id="a_Node000058"><a xlink:href="Nextion_8h.html#a43937dd3d9c795271fd9c3eb3c6b6410" target="_top" xlink:title=" ">
<polygon fill="white" stroke="#666666" points="472.75,-19.25 390,-19.25 390,0 472.75,0 472.75,-19.25"/>
<text text-anchor="middle" x="431.38" y="-5.75" font-family="Helvetica,sans-Serif" font-size="10.00">GetReturnCode</text>
</a>
</g>
</g>
<!-- Node3&#45;&gt;Node58 -->
<g id="edge54_Node000003_Node000058" class="edge">
<title>Node3&#45;&gt;Node58</title>
<g id="a_edge54_Node000003_Node000058"><a xlink:title=" ">
<path fill="none" stroke="#63b8ff" d="M340.11,-74.68C344.92,-72.36 349.76,-69.67 354,-66.62 373.17,-52.87 370.83,-41.38 390,-27.62 391.33,-26.67 392.71,-25.76 394.13,-24.88"/>
<polygon fill="#63b8ff" stroke="#63b8ff" points="395.45,-28.14 402.56,-20.29 392.11,-21.99 395.45,-28.14"/>
</a>
</g>
</g>
<!-- Node136 -->
<g id="Node000136" class="node">
<title>Node136</title>
<g id="a_Node000136"><a xlink:href="TransmitterCode_2src_2main_8cpp.html#a5f109790a6fe0b972a502f3cac4ed1e7" target="_top" xlink:title=" ">
<polygon fill="white" stroke="#666666" points="455.12,-56.25 407.62,-56.25 407.62,-37 455.12,-37 455.12,-56.25"/>
<text text-anchor="middle" x="431.38" y="-42.75" font-family="Helvetica,sans-Serif" font-size="10.00">InStrng</text>
</a>
</g>
</g>
<!-- Node3&#45;&gt;Node136 -->
<g id="edge55_Node000003_Node000136" class="edge">
<title>Node3&#45;&gt;Node136</title>
<g id="a_edge55_Node000003_Node000136"><a xlink:title=" ">
<path fill="none" stroke="#63b8ff" d="M344.61,-74.54C360.63,-69.32 380.22,-62.95 396.63,-57.61"/>
<polygon fill="#63b8ff" stroke="#63b8ff" points="397.54,-60.99 405.96,-54.57 395.37,-54.34 397.54,-60.99"/>
</a>
</g>
</g>
<!-- Node5 -->
<g id="Node000005" class="node">
<title>Node5</title>
<g id="a_Node000005"><a xlink:href="TransmitterCode_2src_2main_8cpp.html#ab584ae7dbc9b1af37538f91b00b8927f" target="_top" xlink:title=" ">
<polygon fill="white" stroke="#666666" points="611.75,-583.25 523,-583.25 523,-564 611.75,-564 611.75,-583.25"/>
<text text-anchor="middle" x="567.38" y="-569.75" font-family="Helvetica,sans-Serif" font-size="10.00">FixMotorChannel</text>
</a>
</g>
</g>
<!-- Node4&#45;&gt;Node5 -->
<g id="edge4_Node000004_Node000005" class="edge">
<title>Node4&#45;&gt;Node5</title>
<g id="a_edge4_Node000004_Node000005"><a xlink:title=" ">
<path fill="none" stroke="#63b8ff" d="M470.06,-573.62C482.88,-573.62 497.48,-573.62 511.38,-573.62"/>
<polygon fill="#63b8ff" stroke="#63b8ff" points="511.31,-577.13 521.31,-573.63 511.31,-570.13 511.31,-577.13"/>
</a>
</g>
</g>
<!-- Node7 -->
<g id="Node000007" class="node">
<title>Node7</title>
<g id="a_Node000007"><a xlink:href="TransmitterCode_2src_2main_8cpp.html#a26ae4f6ca14f760bd5eb6e7588fe7c81" target="_top" xlink:title="GET NEW SERVO POSITIONS.">
<polygon fill="white" stroke="#666666" points="626,-750.25 508.75,-750.25 508.75,-731 626,-731 626,-750.25"/>
<text text-anchor="middle" x="567.38" y="-736.75" font-family="Helvetica,sans-Serif" font-size="10.00">GetNewChannelValues</text>
</a>
</g>
</g>
<!-- Node4&#45;&gt;Node7 -->
<g id="edge6_Node000004_Node000007" class="edge">
<title>Node4&#45;&gt;Node7</title>
<g id="a_edge6_Node000004_Node000007"><a xlink:title=" ">
<path fill="none" stroke="#63b8ff" d="M440.36,-583.57C462.09,-610.66 522.6,-686.07 551.13,-721.62"/>
<polygon fill="#63b8ff" stroke="#63b8ff" points="548.33,-723.73 557.32,-729.34 553.79,-719.35 548.33,-723.73"/>
</a>
</g>
</g>
<!-- Node22 -->
<g id="Node000022" class="node">
<title>Node22</title>
<g id="a_Node000022"><a xlink:href="Utilities_8h.html#ada95a00a341e4a80176eda743a94ab2e" target="_top" xlink:title=" ">
<polygon fill="white" stroke="#666666" points="602,-787.25 532.75,-787.25 532.75,-768 602,-768 602,-787.25"/>
<text text-anchor="middle" x="567.38" y="-773.75" font-family="Helvetica,sans-Serif" font-size="10.00">KickTheDog</text>
</a>
</g>
</g>
<!-- Node4&#45;&gt;Node22 -->
<g id="edge21_Node000004_Node000022" class="edge">
<title>Node4&#45;&gt;Node22</title>
<g id="a_edge21_Node000004_Node000022"><a xlink:title=" ">
<path fill="none" stroke="#63b8ff" d="M433.48,-583.35C437.46,-613.98 453.94,-709.38 508.75,-759.62 512.55,-763.11 517.01,-765.91 521.74,-768.18"/>
<polygon fill="#63b8ff" stroke="#63b8ff" points="520.38,-771.4 530.97,-771.77 522.92,-764.88 520.38,-771.4"/>
</a>
</g>
</g>
<!-- Node23 -->
<g id="Node000023" class="node">
<title>Node23</title>
<g id="a_Node000023"><a xlink:href="transceiver_8h.html#a049bfb836e7aa4a3a48a1a4bd225fafc" target="_top" xlink:title=" ">
<polygon fill="white" stroke="#666666" points="596.75,-450.25 538,-450.25 538,-431 596.75,-431 596.75,-450.25"/>
<text text-anchor="middle" x="567.38" y="-436.75" font-family="Helvetica,sans-Serif" font-size="10.00">SendData</text>
</a>
</g>
</g>
<!-- Node4&#45;&gt;Node23 -->
<g id="edge22_Node000004_Node000023" class="edge">
<title>Node4&#45;&gt;Node23</title>
<g id="a_edge22_Node000004_Node000023"><a xlink:title=" ">
<path fill="none" stroke="#63b8ff" d="M442.45,-563.63C464.95,-541.29 519.58,-487.07 548.2,-458.66"/>
<polygon fill="#63b8ff" stroke="#63b8ff" points="550.48,-461.33 555.11,-451.8 545.55,-456.36 550.48,-461.33"/>
</a>
</g>
</g>
<!-- Node6 -->
<g id="Node000006" class="node">
<title>Node6</title>
<g id="a_Node000006"><a xlink:href="Utilities_8h.html#a0d8d8a0d67cb9b04481f1692abe75368" target="_top" xlink:title=" ">
<polygon fill="white" stroke="#666666" points="944.88,-621.25 866.62,-621.25 866.62,-602 944.88,-602 944.88,-621.25"/>
<text text-anchor="middle" x="905.75" y="-607.75" font-family="Helvetica,sans-Serif" font-size="10.00">IntoHigherRes</text>
</a>
</g>
</g>
<!-- Node5&#45;&gt;Node6 -->
<g id="edge5_Node000005_Node000006" class="edge">
<title>Node5&#45;&gt;Node6</title>
<g id="a_edge5_Node000005_Node000006"><a xlink:title=" ">
<path fill="none" stroke="#63b8ff" d="M612.23,-575.7C659.94,-578.3 738.38,-583.54 805.5,-592.62 821.73,-594.82 839.32,-597.94 855.12,-601.02"/>
<polygon fill="#63b8ff" stroke="#63b8ff" points="854.29,-604.42 864.78,-602.95 855.65,-597.56 854.29,-604.42"/>
</a>
</g>
</g>
<!-- Node8 -->
<g id="Node000008" class="node">
<title>Node8</title>
<g id="a_Node000008"><a xlink:href="TransmitterCode_2src_2main_8cpp.html#af518bb2cfb3cfe18d491b2a5d6bf7dcc" target="_top" xlink:title=" ">
<polygon fill="white" stroke="#666666" points="784.88,-695.25 682.62,-695.25 682.62,-676 784.88,-676 784.88,-695.25"/>
<text text-anchor="middle" x="733.75" y="-681.75" font-family="Helvetica,sans-Serif" font-size="10.00">CalculateAllOutputs</text>
</a>
</g>
</g>
<!-- Node7&#45;&gt;Node8 -->
<g id="edge7_Node000007_Node000008" class="edge">
<title>Node7&#45;&gt;Node8</title>
<g id="a_edge7_Node000007_Node000008"><a xlink:title=" ">
<path fill="none" stroke="#63b8ff" d="M591.55,-730.51C610.31,-722.56 637.55,-711.53 662,-703.62 667.36,-701.89 673,-700.22 678.65,-698.63"/>
<polygon fill="#63b8ff" stroke="#63b8ff" points="679.27,-702.09 688.01,-696.1 677.45,-695.33 679.27,-702.09"/>
</a>
</g>
</g>
<!-- Node12 -->
<g id="Node000012" class="node">
<title>Node12</title>
<g id="a_Node000012"><a xlink:href="TransmitterCode_2src_2main_8cpp.html#acd70b997cf150e55d943df5d6f1cff51" target="_top" xlink:title=" ">
<polygon fill="white" stroke="#666666" points="788.25,-880.25 679.25,-880.25 679.25,-861 788.25,-861 788.25,-880.25"/>
<text text-anchor="middle" x="733.75" y="-866.75" font-family="Helvetica,sans-Serif" font-size="10.00">DoTrimsAndSubtrims</text>
</a>
</g>
</g>
<!-- Node7&#45;&gt;Node12 -->
<g id="edge10_Node000007_Node000012" class="edge">
<title>Node7&#45;&gt;Node12</title>
<g id="a_edge10_Node000007_Node000012"><a xlink:title=" ">
<path fill="none" stroke="#63b8ff" d="M614.56,-750.72C618.73,-752.87 622.64,-755.47 626,-758.62 658.61,-789.25 628.58,-822.89 662,-852.62 664.15,-854.54 666.48,-856.26 668.94,-857.8"/>
<polygon fill="#63b8ff" stroke="#63b8ff" points="667.1,-860.79 677.6,-862.21 670.28,-854.55 667.1,-860.79"/>
</a>
</g>
</g>
<!-- Node14 -->
<g id="Node000014" class="node">
<title>Node14</title>
<g id="a_Node000014"><a xlink:href="TransmitterCode_2src_2main_8cpp.html#a15d8fbd5988e76a16e33e7f620804009" target="_top" xlink:title=" ">
<polygon fill="white" stroke="#666666" points="768.75,-806.25 698.75,-806.25 698.75,-787 768.75,-787 768.75,-806.25"/>
<text text-anchor="middle" x="733.75" y="-792.75" font-family="Helvetica,sans-Serif" font-size="10.00">GetAllInputs</text>
</a>
</g>
</g>
<!-- Node7&#45;&gt;Node14 -->
<g id="edge12_Node000007_Node000014" class="edge">
<title>Node7&#45;&gt;Node14</title>
<g id="a_edge12_Node000007_Node000014"><a xlink:title=" ">
<path fill="none" stroke="#63b8ff" d="M604.75,-750.75C611.89,-753.08 619.26,-755.73 626,-758.62 642.82,-765.84 644.99,-771.87 662,-778.62 670.03,-781.81 678.79,-784.58 687.34,-786.92"/>
<polygon fill="#63b8ff" stroke="#63b8ff" points="686.34,-790.28 696.89,-789.38 688.08,-783.5 686.34,-790.28"/>
</a>
</g>
</g>
<!-- Node17 -->
<g id="Node000017" class="node">
<title>Node17</title>
<g id="a_Node000017"><a xlink:href="Mixes_8h.html#a5aa9208b1f2a522a0cdb348301fe0593" target="_top" xlink:title=" ">
<polygon fill="white" stroke="#666666" points="762.75,-917.25 704.75,-917.25 704.75,-898 762.75,-898 762.75,-917.25"/>
<text text-anchor="middle" x="733.75" y="-903.75" font-family="Helvetica,sans-Serif" font-size="10.00">MixInputs</text>
</a>
</g>
</g>
<!-- Node7&#45;&gt;Node17 -->
<g id="edge15_Node000007_Node000017" class="edge">
<title>Node7&#45;&gt;Node17</title>
<g id="a_edge15_Node000007_Node000017"><a xlink:title=" ">
<path fill="none" stroke="#63b8ff" d="M615.44,-750.69C619.34,-752.85 622.94,-755.46 626,-758.62 667.95,-802.05 618.9,-847.34 662,-889.62 670.35,-897.81 681.86,-902.44 693.18,-905"/>
<polygon fill="#63b8ff" stroke="#63b8ff" points="692.37,-908.41 702.82,-906.68 693.57,-901.52 692.37,-908.41"/>
</a>
</g>
</g>
<!-- Node18 -->
<g id="Node000018" class="node">
<title>Node18</title>
<g id="a_Node000018"><a xlink:href="Mixes_8h.html#a376c11f3a285138341edc0783f930ff3" target="_top" xlink:title=" ">
<polygon fill="white" stroke="#666666" points="766.5,-621.25 701,-621.25 701,-602 766.5,-602 766.5,-621.25"/>
<text text-anchor="middle" x="733.75" y="-607.75" font-family="Helvetica,sans-Serif" font-size="10.00">MixOutputs</text>
</a>
</g>
</g>
<!-- Node7&#45;&gt;Node18 -->
<g id="edge16_Node000007_Node000018" class="edge">
<title>Node7&#45;&gt;Node18</title>
<g id="a_edge16_Node000007_Node000018"><a xlink:title=" ">
<path fill="none" stroke="#63b8ff" d="M573.91,-730.53C586.49,-708.56 619.48,-656.26 662,-629.62 670.34,-624.4 680.12,-620.69 689.71,-618.06"/>
<polygon fill="#63b8ff" stroke="#63b8ff" points="690.39,-621.49 699.31,-615.78 688.77,-614.68 690.39,-621.49"/>
</a>
</g>
</g>
<!-- Node19 -->
<g id="Node000019" class="node">
<title>Node19</title>
<g id="a_Node000019"><a xlink:href="TransmitterCode_2src_2main_8cpp.html#a92bb36e29cd297189daefb3b79deaac3" target="_top" xlink:title=" ">
<polygon fill="white" stroke="#666666" points="775.88,-843.25 691.62,-843.25 691.62,-824 775.88,-824 775.88,-843.25"/>
<text text-anchor="middle" x="733.75" y="-829.75" font-family="Helvetica,sans-Serif" font-size="10.00">RerouteOutputs</text>
</a>
</g>
</g>
<!-- Node7&#45;&gt;Node19 -->
<g id="edge18_Node000007_Node000019" class="edge">
<title>Node7&#45;&gt;Node19</title>
<g id="a_edge18_Node000007_Node000019"><a xlink:title=" ">
<path fill="none" stroke="#63b8ff" d="M612.19,-750.63C617.11,-752.8 621.84,-755.43 626,-758.62 649.76,-776.88 637.76,-798.01 662,-815.62 667.59,-819.68 674,-822.83 680.63,-825.27"/>
<polygon fill="#63b8ff" stroke="#63b8ff" points="679.12,-828.46 689.7,-828.1 681.2,-821.78 679.12,-828.46"/>
</a>
</g>
</g>
<!-- Node20 -->
<g id="Node000020" class="node">
<title>Node20</title>
<g id="a_Node000020"><a xlink:href="Utilities_8h.html#a2d10590a11f1790e37c47f70f294f10d" target="_top" xlink:title=" ">
<polygon fill="white" stroke="#666666" points="772.5,-769.25 695,-769.25 695,-750 772.5,-750 772.5,-769.25"/>
<text text-anchor="middle" x="733.75" y="-755.75" font-family="Helvetica,sans-Serif" font-size="10.00">ServoReverse</text>
</a>
</g>
</g>
<!-- Node7&#45;&gt;Node20 -->
<g id="edge19_Node000007_Node000020" class="edge">
<title>Node7&#45;&gt;Node20</title>
<g id="a_edge19_Node000007_Node000020"><a xlink:title=" ">
<path fill="none" stroke="#63b8ff" d="M626.33,-747.32C644.98,-749.48 665.46,-751.85 683.43,-753.92"/>
<polygon fill="#63b8ff" stroke="#63b8ff" points="682.99,-757.4 693.33,-755.07 683.8,-750.44 682.99,-757.4"/>
</a>
</g>
</g>
<!-- Node21 -->
<g id="Node000021" class="node">
<title>Node21</title>
<g id="a_Node000021"><a xlink:href="TransmitterCode_2src_2main_8cpp.html#a73d05c890a6a5f7b493e6aefb497d869" target="_top" xlink:title=" ">
<polygon fill="white" stroke="#666666" points="776.25,-732.25 691.25,-732.25 691.25,-713 776.25,-713 776.25,-732.25"/>
<text text-anchor="middle" x="733.75" y="-718.75" font-family="Helvetica,sans-Serif" font-size="10.00">SlowAnyServos</text>
</a>
</g>
</g>
<!-- Node7&#45;&gt;Node21 -->
<g id="edge20_Node000007_Node000021" class="edge">
<title>Node7&#45;&gt;Node21</title>
<g id="a_edge20_Node000007_Node000021"><a xlink:title=" ">
<path fill="none" stroke="#63b8ff" d="M626.33,-734.28C643.6,-732.39 662.44,-730.32 679.41,-728.47"/>
<polygon fill="#63b8ff" stroke="#63b8ff" points="679.74,-731.95 689.3,-727.38 678.98,-724.99 679.74,-731.95"/>
</a>
</g>
</g>
<!-- Node9 -->
<g id="Node000009" class="node">
<title>Node9</title>
<g id="a_Node000009"><a xlink:href="Rates_8h.html#af9c038b48102eca9032f10fefd9d5736" target="_top" xlink:title=" ">
<polygon fill="#fff0f0" stroke="red" points="944.5,-769.25 867,-769.25 867,-750 944.5,-750 944.5,-769.25"/>
<text text-anchor="middle" x="905.75" y="-755.75" font-family="Helvetica,sans-Serif" font-size="10.00">GetCurveDots</text>
</a>
</g>
</g>
<!-- Node8&#45;&gt;Node9 -->
<g id="edge8_Node000008_Node000009" class="edge">
<title>Node8&#45;&gt;Node9</title>
<g id="a_edge8_Node000008_Node000009"><a xlink:title=" ">
<path fill="none" stroke="#63b8ff" d="M785.25,-694.72C792.31,-697.05 799.27,-699.97 805.5,-703.62 825.56,-715.4 821.6,-729.57 841.5,-741.62 846.02,-744.37 850.98,-746.7 856.06,-748.69"/>
<polygon fill="#63b8ff" stroke="#63b8ff" points="854.56,-751.88 865.15,-751.82 856.83,-745.26 854.56,-751.88"/>
</a>
</g>
</g>
<!-- Node10 -->
<g id="Node000010" class="node">
<title>Node10</title>
<g id="a_Node000010"><a xlink:href="Rates_8h.html#afeabb54d48ef7e55693014e057d2943d" target="_top" xlink:title=" ">
<polygon fill="white" stroke="#666666" points="1082.75,-769.25 1006,-769.25 1006,-750 1082.75,-750 1082.75,-769.25"/>
<text text-anchor="middle" x="1044.38" y="-755.75" font-family="Helvetica,sans-Serif" font-size="10.00">CalculateRate</text>
</a>
</g>
</g>
<!-- Node9&#45;&gt;Node10 -->
<g id="edge9_Node000009_Node000010" class="edge">
<title>Node9&#45;&gt;Node10</title>
<g id="a_edge9_Node000009_Node000010"><a xlink:title=" ">
<path fill="none" stroke="#63b8ff" d="M944.81,-759.62C960.06,-759.62 977.83,-759.62 994.04,-759.62"/>
<polygon fill="#63b8ff" stroke="#63b8ff" points="994.01,-763.13 1004.01,-759.63 994.01,-756.13 994.01,-763.13"/>
</a>
</g>
</g>
<!-- Node13 -->
<g id="Node000013" class="node">
<title>Node13</title>
<g id="a_Node000013"><a xlink:href="Trims_8h.html#aacd8b022714bb89847239dd878ad9509" target="_top" xlink:title=" ">
<polygon fill="white" stroke="#666666" points="948.25,-880.25 863.25,-880.25 863.25,-861 948.25,-861 948.25,-880.25"/>
<text text-anchor="middle" x="905.75" y="-866.75" font-family="Helvetica,sans-Serif" font-size="10.00">GetTrimAmount</text>
</a>
</g>
</g>
<!-- Node12&#45;&gt;Node13 -->
<g id="edge11_Node000012_Node000013" class="edge">
<title>Node12&#45;&gt;Node13</title>
<g id="a_edge11_Node000012_Node000013"><a xlink:title=" ">
<path fill="none" stroke="#63b8ff" d="M788.54,-870.62C808.62,-870.62 831.41,-870.62 851.45,-870.62"/>
<polygon fill="#63b8ff" stroke="#63b8ff" points="851.38,-874.13 861.38,-870.63 851.38,-867.13 851.38,-874.13"/>
</a>
</g>
</g>
<!-- Node15 -->
<g id="Node000015" class="node">
<title>Node15</title>
<g id="a_Node000015"><a xlink:href="TransmitterCode_2src_2main_8cpp.html#ac5728db610c441820a6f47295967cbab" target="_top" xlink:title=" ">
<polygon fill="white" stroke="#666666" points="945.25,-843.25 866.25,-843.25 866.25,-824 945.25,-824 945.25,-843.25"/>
<text text-anchor="middle" x="905.75" y="-829.75" font-family="Helvetica,sans-Serif" font-size="10.00">AnalogueReed</text>
</a>
</g>
</g>
<!-- Node14&#45;&gt;Node15 -->
<g id="edge13_Node000014_Node000015" class="edge">
<title>Node14&#45;&gt;Node15</title>
<g id="a_edge13_Node000014_Node000015"><a xlink:title=" ">
<path fill="none" stroke="#63b8ff" d="M769.15,-804.11C793.8,-809.48 827.36,-816.78 854.93,-822.78"/>
<polygon fill="#63b8ff" stroke="#63b8ff" points="853.95,-826.15 864.47,-824.86 855.44,-819.31 853.95,-826.15"/>
</a>
</g>
</g>
<!-- Node16 -->
<g id="Node000016" class="node">
<title>Node16</title>
<g id="a_Node000016"><a xlink:href="TransmitterCode_2src_2main_8cpp.html#a787973ed0df098048a54e5110896eeb6" target="_top" xlink:title=" ">
<polygon fill="white" stroke="#666666" points="970,-806.25 841.5,-806.25 841.5,-787 970,-787 970,-806.25"/>
<text text-anchor="middle" x="905.75" y="-792.75" font-family="Helvetica,sans-Serif" font-size="10.00">ReadThreePositionSwitch</text>
</a>
</g>
</g>
<!-- Node14&#45;&gt;Node16 -->
<g id="edge14_Node000014_Node000016" class="edge">
<title>Node14&#45;&gt;Node16</title>
<g id="a_edge14_Node000014_Node000016"><a xlink:title=" ">
<path fill="none" stroke="#63b8ff" d="M769.15,-796.62C786.67,-796.62 808.69,-796.62 829.87,-796.62"/>
<polygon fill="#63b8ff" stroke="#63b8ff" points="829.66,-800.13 839.66,-796.63 829.66,-793.13 829.66,-800.13"/>
</a>
</g>
</g>
<!-- Node18&#45;&gt;Node6 -->
<g id="edge17_Node000018_Node000006" class="edge">
<title>Node18&#45;&gt;Node6</title>
<g id="a_edge17_Node000018_Node000006"><a xlink:title=" ">
<path fill="none" stroke="#63b8ff" d="M766.73,-611.62C791.58,-611.62 826.5,-611.62 855,-611.62"/>
<polygon fill="#63b8ff" stroke="#63b8ff" points="854.86,-615.13 864.86,-611.63 854.86,-608.13 854.86,-615.13"/>
</a>
</g>
</g>
<!-- Node24 -->
<g id="Node000024" class="node">
<title>Node24</title>
<g id="a_Node000024"><a xlink:href="transceiver_8h.html#a1ddd5e8d5bd649dd98ce3710fbff651b" target="_top" xlink:title=" ">
<polygon fill="white" stroke="#666666" points="763.88,-432.25 703.62,-432.25 703.62,-413 763.88,-413 763.88,-432.25"/>
<text text-anchor="middle" x="733.75" y="-418.75" font-family="Helvetica,sans-Serif" font-size="10.00">Compress</text>
</a>
</g>
</g>
<!-- Node23&#45;&gt;Node24 -->
<g id="edge23_Node000023_Node000024" class="edge">
<title>Node23&#45;&gt;Node24</title>
<g id="a_edge23_Node000023_Node000024"><a xlink:title=" ">
<path fill="none" stroke="#63b8ff" d="M597.01,-437.49C623.32,-434.61 662.59,-430.31 692.14,-427.07"/>
<polygon fill="#63b8ff" stroke="#63b8ff" points="692.28,-430.58 701.83,-426.01 691.51,-423.62 692.28,-430.58"/>
</a>
</g>
</g>
<!-- Node25 -->
<g id="Node000025" class="node">
<title>Node25</title>
<g id="a_Node000025"><a xlink:href="transceiver_8h.html#a4144c213e5448a7e02d4172881f08219" target="_top" xlink:title=" ">
<polygon fill="white" stroke="#666666" points="805.5,-395.25 662,-395.25 662,-376 805.5,-376 805.5,-395.25"/>
<text text-anchor="middle" x="733.75" y="-381.75" font-family="Helvetica,sans-Serif" font-size="10.00">EncodeTheChangedChannels</text>
</a>
</g>
</g>
<!-- Node23&#45;&gt;Node25 -->
<g id="edge24_Node000023_Node000025" class="edge">
<title>Node23&#45;&gt;Node25</title>
<g id="a_edge24_Node000023_Node000025"><a xlink:title=" ">
<path fill="none" stroke="#63b8ff" d="M591.55,-430.51C610.31,-422.56 637.55,-411.53 662,-403.62 667.36,-401.89 673,-400.22 678.65,-398.63"/>
<polygon fill="#63b8ff" stroke="#63b8ff" points="679.27,-402.09 688.01,-396.1 677.45,-395.33 679.27,-402.09"/>
</a>
</g>
</g>
<!-- Node26 -->
<g id="Node000026" class="node">
<title>Node26</title>
<g id="a_Node000026"><a xlink:href="transceiver_8h.html#a5fbd3c8613a4163425c94965704ce5f8" target="_top" xlink:title=" ">
<polygon fill="white" stroke="#666666" points="770.25,-132.25 697.25,-132.25 697.25,-113 770.25,-113 770.25,-132.25"/>
<text text-anchor="middle" x="733.75" y="-118.75" font-family="Helvetica,sans-Serif" font-size="10.00">FailedPacket</text>
</a>
</g>
</g>
<!-- Node23&#45;&gt;Node26 -->
<g id="edge25_Node000023_Node000026" class="edge">
<title>Node23&#45;&gt;Node26</title>
<g id="a_edge25_Node000023_Node000026"><a xlink:title=" ">
<path fill="none" stroke="#63b8ff" d="M568.49,-430.66C569.51,-389.55 578.89,-231.31 662,-146.62 668.59,-139.91 677.12,-135.08 685.97,-131.59"/>
<polygon fill="#63b8ff" stroke="#63b8ff" points="686.99,-134.94 695.37,-128.46 684.78,-128.3 686.99,-134.94"/>
</a>
</g>
</g>
<!-- Node66 -->
<g id="Node000066" class="node">
<title>Node66</title>
<g id="a_Node000066"><a xlink:href="transceiver_8h.html#a07c27b4e208198453c70876517926052" target="_top" xlink:title=" ">
<polygon fill="white" stroke="#666666" points="764.62,-544.25 702.88,-544.25 702.88,-525 764.62,-525 764.62,-544.25"/>
<text text-anchor="middle" x="733.75" y="-530.75" font-family="Helvetica,sans-Serif" font-size="10.00">FlushFifos</text>
</a>
</g>
</g>
<!-- Node23&#45;&gt;Node66 -->
<g id="edge30_Node000023_Node000066" class="edge">
<title>Node23&#45;&gt;Node66</title>
<g id="a_edge30_Node000023_Node000066"><a xlink:title=" ">
<path fill="none" stroke="#63b8ff" d="M578.05,-450.71C594.04,-466.8 627.63,-498.21 662,-515.62 671.15,-520.26 681.56,-523.86 691.52,-526.62"/>
<polygon fill="#63b8ff" stroke="#63b8ff" points="690.47,-529.96 701.02,-529.01 692.18,-523.17 690.47,-529.96"/>
</a>
</g>
</g>
<!-- Node63 -->
<g id="Node000063" class="node">
<title>Node63</title>
<g id="a_Node000063"><a xlink:href="common_8h.html#a6e2d4126d864c50e7c23c988c2bfdd1a" target="_top" xlink:title=" ">
<polygon fill="white" stroke="#666666" points="1067.38,-488.25 1021.38,-488.25 1021.38,-469 1067.38,-469 1067.38,-488.25"/>
<text text-anchor="middle" x="1044.38" y="-474.75" font-family="Helvetica,sans-Serif" font-size="10.00">Radio1</text>
</a>
</g>
</g>
<!-- Node23&#45;&gt;Node63 -->
<g id="edge32_Node000023_Node000063" class="edge">
<title>Node23&#45;&gt;Node63</title>
<g id="a_edge32_Node000023_Node000063"><a xlink:title=" ">
<path fill="none" stroke="#63b8ff" d="M571.09,-430.76C579.62,-401.39 608.59,-313.37 662,-262.62 713.39,-213.8 914.22,-135.88 970,-179.62 1014.37,-214.42 1035.44,-394.97 1041.48,-457.38"/>
<polygon fill="#63b8ff" stroke="#63b8ff" points="1037.99,-457.66 1042.41,-467.3 1044.96,-457.02 1037.99,-457.66"/>
</a>
</g>
</g>
<!-- Node67 -->
<g id="Node000067" class="node">
<title>Node67</title>
<g id="a_Node000067"><a xlink:href="transceiver_8h.html#a188ad446d11b2db284476c093de58b2f" target="_top" xlink:title=" ">
<polygon fill="white" stroke="#666666" points="793.12,-658.25 674.38,-658.25 674.38,-639 793.12,-639 793.12,-658.25"/>
<text text-anchor="middle" x="733.75" y="-644.75" font-family="Helvetica,sans-Serif" font-size="10.00">SendExtraParamemters</text>
</a>
</g>
</g>
<!-- Node23&#45;&gt;Node67 -->
<g id="edge33_Node000023_Node000067" class="edge">
<title>Node23&#45;&gt;Node67</title>
<g id="a_edge33_Node000023_Node000067"><a xlink:title=" ">
<path fill="none" stroke="#63b8ff" d="M573.55,-450.65C583.75,-470.44 607.09,-515.98 626,-554.62 642.43,-588.19 633.15,-606.87 662,-630.62 662.95,-631.41 663.94,-632.16 664.95,-632.88"/>
<polygon fill="#63b8ff" stroke="#63b8ff" points="662.94,-635.76 673.34,-637.76 666.46,-629.71 662.94,-635.76"/>
</a>
</g>
</g>
<!-- Node70 -->
<g id="Node000070" class="node">
<title>Node70</title>
<g id="a_Node000070"><a xlink:href="BuddyWireless_8h.html#a41c327908c92572d0d3eebbb19160d86" target="_top" xlink:title=" ">
<polygon fill="white" stroke="#666666" points="784.5,-469.25 683,-469.25 683,-450 784.5,-450 784.5,-469.25"/>
<text text-anchor="middle" x="733.75" y="-455.75" font-family="Helvetica,sans-Serif" font-size="10.00">SendSpecialPacket</text>
</a>
</g>
</g>
<!-- Node23&#45;&gt;Node70 -->
<g id="edge37_Node000023_Node000070" class="edge">
<title>Node23&#45;&gt;Node70</title>
<g id="a_edge37_Node000023_Node000070"><a xlink:title=" ">
<path fill="none" stroke="#63b8ff" d="M597.01,-443.93C617.52,-446.31 645.91,-449.59 671.43,-452.54"/>
<polygon fill="#63b8ff" stroke="#63b8ff" points="670.7,-455.98 681.04,-453.65 671.5,-449.02 670.7,-455.98"/>
</a>
</g>
</g>
<!-- Node75 -->
<g id="Node000075" class="node">
<title>Node75</title>
<g id="a_Node000075"><a xlink:href="BuddyPPM_8h.html#a784a1eca0361b3991bca899167cc1cdb" target="_top" xlink:title=" ">
<polygon fill="white" stroke="#666666" points="771,-506.25 696.5,-506.25 696.5,-487 771,-487 771,-506.25"/>
<text text-anchor="middle" x="733.75" y="-492.75" font-family="Helvetica,sans-Serif" font-size="10.00">SendViaPPM</text>
</a>
</g>
</g>
<!-- Node23&#45;&gt;Node75 -->
<g id="edge45_Node000023_Node000075" class="edge">
<title>Node23&#45;&gt;Node75</title>
<g id="a_edge45_Node000023_Node000075"><a xlink:title=" ">
<path fill="none" stroke="#63b8ff" d="M590.76,-450.72C609.53,-458.93 637.17,-470.47 662,-478.62 669.45,-481.07 677.43,-483.39 685.25,-485.49"/>
<polygon fill="#63b8ff" stroke="#63b8ff" points="684.1,-488.81 694.66,-487.94 685.86,-482.03 684.1,-488.81"/>
</a>
</g>
</g>
<!-- Node76 -->
<g id="Node000076" class="node">
<title>Node76</title>
<g id="a_Node000076"><a xlink:href="transceiver_8h.html#a1c11bb6771548de7d96723045b922620" target="_top" xlink:title=" ">
<polygon fill="white" stroke="#666666" points="781.5,-291.25 686,-291.25 686,-272 781.5,-272 781.5,-291.25"/>
<text text-anchor="middle" x="733.75" y="-277.75" font-family="Helvetica,sans-Serif" font-size="10.00">SuccessfulPacket</text>
</a>
</g>
</g>
<!-- Node23&#45;&gt;Node76 -->
<g id="edge46_Node000023_Node000076" class="edge">
<title>Node23&#45;&gt;Node76</title>
<g id="a_edge46_Node000023_Node000076"><a xlink:title=" ">
<path fill="none" stroke="#63b8ff" d="M578.66,-430.68C605.87,-404.36 680.05,-332.6 714.59,-299.19"/>
<polygon fill="#63b8ff" stroke="#63b8ff" points="716.63,-302.09 721.38,-292.62 711.76,-297.06 716.63,-302.09"/>
</a>
</g>
</g>
<!-- Node27 -->
<g id="Node000027" class="node">
<title>Node27</title>
<g id="a_Node000027"><a xlink:href="transceiver_8h.html#afc091b5942e21a03f6dc8635d5e519ba" target="_top" xlink:title=" ">
<polygon fill="white" stroke="#666666" points="966.25,-132.25 845.25,-132.25 845.25,-113 966.25,-113 966.25,-132.25"/>
<text text-anchor="middle" x="905.75" y="-118.75" font-family="Helvetica,sans-Serif" font-size="10.00">RecordsPacketSuccess</text>
</a>
</g>
</g>
<!-- Node26&#45;&gt;Node27 -->
<g id="edge26_Node000026_Node000027" class="edge">
<title>Node26&#45;&gt;Node27</title>
<g id="a_edge26_Node000026_Node000027"><a xlink:title=" ">
<path fill="none" stroke="#63b8ff" d="M770.39,-122.62C788.79,-122.62 811.93,-122.62 833.78,-122.62"/>
<polygon fill="#63b8ff" stroke="#63b8ff" points="833.55,-126.13 843.55,-122.63 833.55,-119.13 833.55,-126.13"/>
</a>
</g>
</g>
<!-- Node28 -->
<g id="Node000028" class="node">
<title>Node28</title>
<g id="a_Node000028"><a xlink:href="TransmitterCode_2src_2main_8cpp.html#a7d34cec6e8edc20c8b50424e15dcc7c7" target="_top" xlink:title=" ">
<polygon fill="#fff0f0" stroke="red" points="937,-58.25 874.5,-58.25 874.5,-39 937,-39 937,-58.25"/>
<text text-anchor="middle" x="905.75" y="-44.75" font-family="Helvetica,sans-Serif" font-size="10.00">RedLedOn</text>
</a>
</g>
</g>
<!-- Node26&#45;&gt;Node28 -->
<g id="edge27_Node000026_Node000028" class="edge">
<title>Node26&#45;&gt;Node28</title>
<g id="a_edge27_Node000026_Node000028"><a xlink:title=" ">
<path fill="none" stroke="#63b8ff" d="M770.5,-113.56C782.1,-109.83 794.74,-104.89 805.5,-98.62 824,-87.86 822.73,-76.92 841.5,-66.62 848.22,-62.93 855.78,-59.94 863.26,-57.53"/>
<polygon fill="#63b8ff" stroke="#63b8ff" points="863.97,-60.97 872.61,-54.83 862.03,-54.24 863.97,-60.97"/>
</a>
</g>
</g>
<!-- Node59 -->
<g id="Node000059" class="node">
<title>Node59</title>
<g id="a_Node000059"><a xlink:href="transceiver_8h.html#ad0236abcfc887ad708d9504c4ab2a7c3" target="_top" xlink:title=" ">
<polygon fill="#fff0f0" stroke="red" points="949.38,-95.25 862.12,-95.25 862.12,-76 949.38,-76 949.38,-95.25"/>
<text text-anchor="middle" x="905.75" y="-81.75" font-family="Helvetica,sans-Serif" font-size="10.00">TryToReconnect</text>
</a>
</g>
</g>
<!-- Node26&#45;&gt;Node59 -->
<g id="edge29_Node000026_Node000059" class="edge">
<title>Node26&#45;&gt;Node59</title>
<g id="a_edge29_Node000026_Node000059"><a xlink:title=" ">
<path fill="none" stroke="#63b8ff" d="M770.39,-114.87C793.64,-109.81 824.45,-103.1 850.69,-97.39"/>
<polygon fill="#63b8ff" stroke="#63b8ff" points="851.12,-100.88 860.15,-95.33 849.63,-94.04 851.12,-100.88"/>
</a>
</g>
</g>
<!-- Node28&#45;&gt;Node3 -->
<g id="edge28_Node000028_Node000003" class="edge">
<title>Node28&#45;&gt;Node3</title>
<g id="a_edge28_Node000028_Node000003"><a xlink:title=" ">
<path fill="none" stroke="#63b8ff" d="M874.17,-50.49C778.75,-56.3 485.64,-74.15 365.65,-81.46"/>
<polygon fill="#63b8ff" stroke="#63b8ff" points="365.53,-77.96 355.77,-82.06 365.96,-84.94 365.53,-77.96"/>
</a>
</g>
</g>
<!-- Node66&#45;&gt;Node63 -->
<g id="edge31_Node000066_Node000063" class="edge">
<title>Node66&#45;&gt;Node63</title>
<g id="a_edge31_Node000066_Node000063"><a xlink:title=" ">
<path fill="none" stroke="#63b8ff" d="M761.43,-544.73C806.44,-560.1 899.45,-584.58 970,-554.62 996.8,-543.25 1018.57,-516.76 1031.25,-498.28"/>
<polygon fill="#63b8ff" stroke="#63b8ff" points="1034.12,-500.29 1036.66,-490 1028.26,-496.46 1034.12,-500.29"/>
</a>
</g>
</g>
<!-- Node68 -->
<g id="Node000068" class="node">
<title>Node68</title>
<g id="a_Node000068"><a xlink:href="transceiver_8h.html#adac102739147db6397bbcbb371aec4fd" target="_top" xlink:title=" ">
<polygon fill="#fff0f0" stroke="red" points="949.75,-658.25 861.75,-658.25 861.75,-639 949.75,-639 949.75,-658.25"/>
<text text-anchor="middle" x="905.75" y="-644.75" font-family="Helvetica,sans-Serif" font-size="10.00">LoadParameters</text>
</a>
</g>
</g>
<!-- Node67&#45;&gt;Node68 -->
<g id="edge34_Node000067_Node000068" class="edge">
<title>Node67&#45;&gt;Node68</title>
<g id="a_edge34_Node000067_Node000068"><a xlink:title=" ">
<path fill="none" stroke="#63b8ff" d="M793.25,-648.62C811.7,-648.62 831.99,-648.62 850.15,-648.62"/>
<polygon fill="#63b8ff" stroke="#63b8ff" points="849.93,-652.13 859.93,-648.63 849.93,-645.13 849.93,-652.13"/>
</a>
</g>
</g>
<!-- Node61 -->
<g id="Node000061" class="node">
<title>Node61</title>
<g id="a_Node000061"><a xlink:href="ReceiverCode_2src_2main_8cpp.html#a6d87eba17154f7f4f2f3802ef8ee261f" target="_top" xlink:title=" ">
<polygon fill="white" stroke="#666666" points="924.62,-732.25 886.88,-732.25 886.88,-713 924.62,-713 924.62,-732.25"/>
<text text-anchor="middle" x="905.75" y="-718.75" font-family="Helvetica,sans-Serif" font-size="10.00">Look</text>
</a>
</g>
</g>
<!-- Node67&#45;&gt;Node61 -->
<g id="edge35_Node000067_Node000061" class="edge">
<title>Node67&#45;&gt;Node61</title>
<g id="a_edge35_Node000067_Node000061"><a xlink:title=" ">
<path fill="none" stroke="#63b8ff" d="M788.21,-658.73C794.25,-660.88 800.14,-663.48 805.5,-666.62 825.56,-678.4 821.6,-692.57 841.5,-704.62 851.79,-710.86 864.33,-715.01 875.52,-717.74"/>
<polygon fill="#63b8ff" stroke="#63b8ff" points="874.55,-721.11 885.06,-719.78 876.01,-714.27 874.55,-721.11"/>
</a>
</g>
</g>
<!-- Node62 -->
<g id="Node000062" class="node">
<title>Node62</title>
<g id="a_Node000062"><a xlink:href="ReceiverCode_2src_2main_8cpp.html#aea423a497d09a142f394356bc8438c41" target="_top" xlink:title=" ">
<polygon fill="white" stroke="#666666" points="927.25,-695.25 884.25,-695.25 884.25,-676 927.25,-676 927.25,-695.25"/>
<text text-anchor="middle" x="905.75" y="-681.75" font-family="Helvetica,sans-Serif" font-size="10.00">Look1</text>
</a>
</g>
</g>
<!-- Node67&#45;&gt;Node62 -->
<g id="edge36_Node000067_Node000062" class="edge">
<title>Node67&#45;&gt;Node62</title>
<g id="a_edge36_Node000067_Node000062"><a xlink:title=" ">
<path fill="none" stroke="#63b8ff" d="M781.2,-658.74C810.36,-665.08 847.19,-673.1 873.03,-678.72"/>
<polygon fill="#63b8ff" stroke="#63b8ff" points="872.06,-682.09 882.57,-680.8 873.55,-675.25 872.06,-682.09"/>
</a>
</g>
</g>
<!-- Node70&#45;&gt;Node63 -->
<g id="edge44_Node000070_Node000063" class="edge">
<title>Node70&#45;&gt;Node63</title>
<g id="a_edge44_Node000070_Node000063"><a xlink:title=" ">
<path fill="none" stroke="#63b8ff" d="M781.28,-469.74C799.91,-473.31 821.62,-476.87 841.5,-478.62 900.48,-483.83 969.52,-482.17 1009.67,-480.43"/>
<polygon fill="#63b8ff" stroke="#63b8ff" points="1009.57,-483.94 1019.4,-479.98 1009.25,-476.95 1009.57,-483.94"/>
</a>
</g>
</g>
<!-- Node71 -->
<g id="Node000071" class="node">
<title>Node71</title>
<g id="a_Node000071"><a xlink:href="BuddyWireless_8h.html#ace84aff90c63bee9a876eda720fbf8bc" target="_top" xlink:title=" ">
<polygon fill="white" stroke="#666666" points="950.5,-469.25 861,-469.25 861,-450 950.5,-450 950.5,-469.25"/>
<text text-anchor="middle" x="905.75" y="-455.75" font-family="Helvetica,sans-Serif" font-size="10.00">ChangeTXTarget</text>
</a>
</g>
</g>
<!-- Node70&#45;&gt;Node71 -->
<g id="edge38_Node000070_Node000071" class="edge">
<title>Node70&#45;&gt;Node71</title>
<g id="a_edge38_Node000070_Node000071"><a xlink:title=" ">
<path fill="none" stroke="#63b8ff" d="M784.84,-459.62C804.99,-459.62 828.31,-459.62 849,-459.62"/>
<polygon fill="#63b8ff" stroke="#63b8ff" points="848.99,-463.13 858.99,-459.63 848.99,-456.13 848.99,-463.13"/>
</a>
</g>
</g>
<!-- Node72 -->
<g id="Node000072" class="node">
<title>Node72</title>
<g id="a_Node000072"><a xlink:href="BuddyWireless_8h.html#af59c2527be7a67d6b09dd467f3123d55" target="_top" xlink:title=" ">
<polygon fill="#fff0f0" stroke="red" points="941.12,-545.25 870.38,-545.25 870.38,-526 941.12,-526 941.12,-545.25"/>
<text text-anchor="middle" x="905.75" y="-531.75" font-family="Helvetica,sans-Serif" font-size="10.00">GetPupilAck</text>
</a>
</g>
</g>
<!-- Node70&#45;&gt;Node72 -->
<g id="edge40_Node000070_Node000072" class="edge">
<title>Node70&#45;&gt;Node72</title>
<g id="a_edge40_Node000070_Node000072"><a xlink:title=" ">
<path fill="none" stroke="#63b8ff" d="M784.69,-468.91C791.91,-471.22 799.06,-474.08 805.5,-477.62 824.78,-488.23 822.85,-499.94 841.5,-511.62 847.38,-515.31 853.91,-518.57 860.48,-521.41"/>
<polygon fill="#63b8ff" stroke="#63b8ff" points="858.76,-524.49 869.35,-524.96 861.37,-517.99 858.76,-524.49"/>
</a>
</g>
</g>
<!-- Node74 -->
<g id="Node000074" class="node">
<title>Node74</title>
<g id="a_Node000074"><a xlink:href="BuddyWireless_8h.html#a89fc05df708fec875356b62d21b2ce7b" target="_top" xlink:title=" ">
<polygon fill="#fff0f0" stroke="red" points="944.12,-432.25 867.38,-432.25 867.38,-413 944.12,-413 944.12,-432.25"/>
<text text-anchor="middle" x="905.75" y="-418.75" font-family="Helvetica,sans-Serif" font-size="10.00">PupilDetected</text>
</a>
</g>
</g>
<!-- Node70&#45;&gt;Node74 -->
<g id="edge42_Node000070_Node000074" class="edge">
<title>Node70&#45;&gt;Node74</title>
<g id="a_edge42_Node000070_Node000074"><a xlink:title=" ">
<path fill="none" stroke="#63b8ff" d="M781.2,-449.51C804.35,-444.48 832.34,-438.38 855.82,-433.27"/>
<polygon fill="#63b8ff" stroke="#63b8ff" points="856.44,-436.72 865.46,-431.18 854.95,-429.88 856.44,-436.72"/>
</a>
</g>
</g>
<!-- Node71&#45;&gt;Node63 -->
<g id="edge39_Node000071_Node000063" class="edge">
<title>Node71&#45;&gt;Node63</title>
<g id="a_edge39_Node000071_Node000063"><a xlink:title=" ">
<path fill="none" stroke="#63b8ff" d="M950.73,-465.74C969.84,-468.4 991.86,-471.46 1009.64,-473.93"/>
<polygon fill="#63b8ff" stroke="#63b8ff" points="1009.03,-477.38 1019.42,-475.29 1009.99,-470.45 1009.03,-477.38"/>
</a>
</g>
</g>
<!-- Node72&#45;&gt;Node63 -->
<g id="edge41_Node000072_Node000063" class="edge">
<title>Node72&#45;&gt;Node63</title>
<g id="a_edge41_Node000072_Node000063"><a xlink:title=" ">
<path fill="none" stroke="#63b8ff" d="M934.29,-525.59C945.43,-521.42 958.39,-516.43 970,-511.62 983.81,-505.9 998.9,-499.2 1011.78,-493.33"/>
<polygon fill="#63b8ff" stroke="#63b8ff" points="1013.01,-496.62 1020.64,-489.27 1010.09,-490.26 1013.01,-496.62"/>
</a>
</g>
</g>
<!-- Node74&#45;&gt;Node3 -->
<g id="edge43_Node000074_Node000003" class="edge">
<title>Node74&#45;&gt;Node3</title>
<g id="a_edge43_Node000074_Node000003"><a xlink:title=" ">
<path fill="none" stroke="#63b8ff" d="M871.51,-412.59C861.51,-408.9 850.74,-404.22 841.5,-398.62 823.19,-387.53 823.42,-378.34 805.5,-366.62 746.74,-328.22 723.84,-333.85 662,-300.62 536,-232.93 393.11,-138.39 337.52,-100.88"/>
<polygon fill="#63b8ff" stroke="#63b8ff" points="339.67,-98.12 329.43,-95.41 335.75,-103.91 339.67,-98.12"/>
</a>
</g>
</g>
<!-- Node76&#45;&gt;Node27 -->
<g id="edge52_Node000076_Node000027" class="edge">
<title>Node76&#45;&gt;Node27</title>
<g id="a_edge52_Node000076_Node000027"><a xlink:title=" ">
<path fill="none" stroke="#63b8ff" d="M744.96,-271.68C763.85,-253.32 805.61,-212.93 841.5,-179.62 855.97,-166.19 872.56,-151.26 885.12,-140.05"/>
<polygon fill="#63b8ff" stroke="#63b8ff" points="887.19,-142.89 892.33,-133.62 882.54,-137.66 887.19,-142.89"/>
</a>
</g>
</g>
<!-- Node76&#45;&gt;Node63 -->
<g id="edge51_Node000076_Node000063" class="edge">
<title>Node76&#45;&gt;Node63</title>
<g id="a_edge51_Node000076_Node000063"><a xlink:title=" ">
<path fill="none" stroke="#63b8ff" d="M763.52,-291.61C777.18,-297.27 793.17,-305.3 805.5,-315.62 826.49,-333.21 819.17,-349.78 841.5,-365.62 890.07,-400.09 918.98,-372.91 970,-403.62 994.13,-418.16 1015.89,-442.5 1029.33,-459.5"/>
<polygon fill="#63b8ff" stroke="#63b8ff" points="1026.46,-461.51 1035.32,-467.33 1032.02,-457.26 1026.46,-461.51"/>
</a>
</g>
</g>
<!-- Node77 -->
<g id="Node000077" class="node">
<title>Node77</title>
<g id="a_Node000077"><a xlink:href="transceiver_8h.html#a953f1d5046e183549ed95b08f6d675e3" target="_top" xlink:title=" ">
<polygon fill="#fff0f0" stroke="red" points="954.25,-356.25 857.25,-356.25 857.25,-337 954.25,-337 954.25,-356.25"/>
<text text-anchor="middle" x="905.75" y="-342.75" font-family="Helvetica,sans-Serif" font-size="10.00">CheckGapsLength</text>
</a>
</g>
</g>
<!-- Node76&#45;&gt;Node77 -->
<g id="edge47_Node000076_Node000077" class="edge">
<title>Node76&#45;&gt;Node77</title>
<g id="a_edge47_Node000076_Node000077"><a xlink:title=" ">
<path fill="none" stroke="#63b8ff" d="M755.27,-291.67C776.52,-301.83 810.83,-317.57 841.5,-328.62 845.91,-330.21 850.53,-331.76 855.19,-333.23"/>
<polygon fill="#63b8ff" stroke="#63b8ff" points="853.98,-336.52 864.57,-336.07 856.01,-329.82 853.98,-336.52"/>
</a>
</g>
</g>
<!-- Node79 -->
<g id="Node000079" class="node">
<title>Node79</title>
<g id="a_Node000079"><a xlink:href="TransmitterCode_2src_2main_8cpp.html#a62e53eb9359c32b666e3386d62c57037" target="_top" xlink:title=" ">
<polygon fill="#fff0f0" stroke="red" points="941.5,-319.25 870,-319.25 870,-300 941.5,-300 941.5,-319.25"/>
<text text-anchor="middle" x="905.75" y="-305.75" font-family="Helvetica,sans-Serif" font-size="10.00">GreenLedOn</text>
</a>
</g>
</g>
<!-- Node76&#45;&gt;Node79 -->
<g id="edge48_Node000076_Node000079" class="edge">
<title>Node76&#45;&gt;Node79</title>
<g id="a_edge48_Node000076_Node000079"><a xlink:title=" ">
<path fill="none" stroke="#63b8ff" d="M781.65,-289.35C805.56,-293.29 834.52,-298.06 858.35,-301.98"/>
<polygon fill="#63b8ff" stroke="#63b8ff" points="857.67,-305.42 868.1,-303.59 858.8,-298.51 857.67,-305.42"/>
</a>
</g>
</g>
<!-- Node97 -->
<g id="Node000097" class="node">
<title>Node97</title>
<g id="a_Node000097"><a xlink:href="transceiver_8h.html#a694f4f5a0147f4dc29b0bc1a8951547d" target="_top" xlink:title=" ">
<polygon fill="#fff0f0" stroke="red" points="952.38,-282.25 859.12,-282.25 859.12,-263 952.38,-263 952.38,-282.25"/>
<text text-anchor="middle" x="905.75" y="-268.75" font-family="Helvetica,sans-Serif" font-size="10.00">ParseAckPayload</text>
</a>
</g>
</g>
<!-- Node76&#45;&gt;Node97 -->
<g id="edge49_Node000076_Node000097" class="edge">
<title>Node76&#45;&gt;Node97</title>
<g id="a_edge49_Node000076_Node000097"><a xlink:title=" ">
<path fill="none" stroke="#63b8ff" d="M781.65,-279.14C802.06,-278.06 826.17,-276.79 847.61,-275.65"/>
<polygon fill="#63b8ff" stroke="#63b8ff" points="847.57,-279.16 857.37,-275.13 847.2,-272.17 847.57,-279.16"/>
</a>
</g>
</g>
<!-- Node254 -->
<g id="Node000254" class="node">
<title>Node254</title>
<g id="a_Node000254"><a xlink:href="transceiver_8h.html#a04937e814dba3f5e07cb34bb13130ff3" target="_top" xlink:title=" ">
<polygon fill="#fff0f0" stroke="red" points="964,-245.25 847.5,-245.25 847.5,-226 964,-226 964,-245.25"/>
<text text-anchor="middle" x="905.75" y="-231.75" font-family="Helvetica,sans-Serif" font-size="10.00">ParseShortAckPayload</text>
</a>
</g>
</g>
<!-- Node76&#45;&gt;Node254 -->
<g id="edge50_Node000076_Node000254" class="edge">
<title>Node76&#45;&gt;Node254</title>
<g id="a_edge50_Node000076_Node000254"><a xlink:title=" ">
<path fill="none" stroke="#63b8ff" d="M772.06,-271.53C796.86,-264.82 829.67,-255.94 856.46,-248.69"/>
<polygon fill="#63b8ff" stroke="#63b8ff" points="857.33,-252.08 866.07,-246.09 855.5,-245.33 857.33,-252.08"/>
</a>
</g>
</g>
<!-- Node94 -->
<g id="Node000094" class="node">
<title>Node94</title>
<g id="a_Node000094"><a xlink:href="Utilities_8h.html#a793b7bcd77531c95fe72ed4356d421c8" target="_top" xlink:title=" ">
<polygon fill="white" stroke="#666666" points="960.25,-208.25 851.25,-208.25 851.25,-189 960.25,-189 960.25,-208.25"/>
<text text-anchor="middle" x="905.75" y="-194.75" font-family="Helvetica,sans-Serif" font-size="10.00">StartInactvityTimeout</text>
</a>
</g>
</g>
<!-- Node76&#45;&gt;Node94 -->
<g id="edge53_Node000076_Node000094" class="edge">
<title>Node76&#45;&gt;Node94</title>
<g id="a_edge53_Node000076_Node000094"><a xlink:title=" ">
<path fill="none" stroke="#63b8ff" d="M748.59,-271.51C768.33,-257.48 806.11,-232.09 841.5,-216.62 845.06,-215.07 848.79,-213.61 852.59,-212.25"/>
<polygon fill="#63b8ff" stroke="#63b8ff" points="853.53,-215.62 861.92,-209.14 851.32,-208.98 853.53,-215.62"/>
</a>
</g>
</g>
<!-- Node87&#45;&gt;Node3 -->
<g id="edge58_Node000087_Node000003" class="edge">
<title>Node87&#45;&gt;Node3</title>
<g id="a_edge58_Node000087_Node000003"><a xlink:title=" ">
<path fill="none" stroke="#63b8ff" d="M217.32,-38.62C223.26,-41.11 229.52,-43.86 235.25,-46.62 251.73,-54.59 254.88,-58.45 271.25,-66.62 273.48,-67.74 275.8,-68.86 278.14,-69.97"/>
<polygon fill="#63b8ff" stroke="#63b8ff" points="276.48,-73.06 287.03,-74.06 279.4,-66.7 276.48,-73.06"/>
</a>
</g>
</g>
<!-- Node87&#45;&gt;Node58 -->
<g id="edge57_Node000087_Node000058" class="edge">
<title>Node87&#45;&gt;Node58</title>
<g id="a_edge57_Node000087_Node000058"><a xlink:title=" ">
<path fill="none" stroke="#63b8ff" d="M222.57,-26.18C261.97,-23.04 330.92,-17.55 378.53,-13.76"/>
<polygon fill="#63b8ff" stroke="#63b8ff" points="378.64,-17.26 388.33,-12.97 378.08,-10.28 378.64,-17.26"/>
</a>
</g>
</g>
<!-- Node48 -->
<g id="Node000048" class="node">
<title>Node48</title>
<g id="a_Node000048"><a xlink:href="Utilities_8h.html#a590a9174319918d7e3d7baca323fcf26" target="_top" xlink:title=" ">
<polygon fill="white" stroke="#666666" points="327.02,-57.25 298.23,-57.25 298.23,-38 327.02,-38 327.02,-57.25"/>
<text text-anchor="middle" x="312.62" y="-43.75" font-family="Helvetica,sans-Serif" font-size="10.00">Str</text>
</a>
</g>
</g>
<!-- Node87&#45;&gt;Node48 -->
<g id="edge59_Node000087_Node000048" class="edge">
<title>Node87&#45;&gt;Node48</title>
<g id="a_edge59_Node000087_Node000048"><a xlink:title=" ">
<path fill="none" stroke="#63b8ff" d="M222.71,-33.52C242.52,-36.66 267.91,-40.69 286.48,-43.64"/>
<polygon fill="#63b8ff" stroke="#63b8ff" points="285.92,-47.09 296.34,-45.2 287.02,-40.18 285.92,-47.09"/>
</a>
</g>
</g>
<!-- Node255&#45;&gt;Node3 -->
<g id="edge61_Node000255_Node000003" class="edge">
<title>Node255&#45;&gt;Node3</title>
<g id="a_edge61_Node000255_Node000003"><a xlink:title=" ">
<path fill="none" stroke="#63b8ff" d="M235.45,-72.54C243.36,-73.79 251.67,-75.11 259.79,-76.4"/>
<polygon fill="#63b8ff" stroke="#63b8ff" points="259.15,-79.84 269.58,-77.95 260.25,-72.93 259.15,-79.84"/>
</a>
</g>
</g>
<!-- Node255&#45;&gt;Node48 -->
<g id="edge62_Node000255_Node000048" class="edge">
<title>Node255&#45;&gt;Node48</title>
<g id="a_edge62_Node000255_Node000048"><a xlink:title=" ">
<path fill="none" stroke="#63b8ff" d="M235.45,-59.08C252.69,-56.48 271.88,-53.6 286.69,-51.37"/>
<polygon fill="#63b8ff" stroke="#63b8ff" points="287.09,-54.85 296.46,-49.9 286.05,-47.93 287.09,-54.85"/>
</a>
</g>
</g>
</g>
</svg>
