<?xml version="1.0" encoding="UTF-8" standalone="no"?>
<!DOCTYPE svg PUBLIC "-//W3C//DTD SVG 1.1//EN"
 "http://www.w3.org/Graphics/SVG/1.1/DTD/svg11.dtd">
<!-- Generated by graphviz version 9.0.0 (20230911.1827)
 -->
<!-- Title: TransmitterCode/src/Hardware/Mixes.h Pages: 1 -->
<svg width="905pt" height="149pt"
 viewBox="0.00 0.00 905.38 149.00" xmlns="http://www.w3.org/2000/svg" xmlns:xlink="http://www.w3.org/1999/xlink">
<g id="graph0" class="graph" transform="scale(1 1) rotate(0) translate(4 145)">
<title>TransmitterCode/src/Hardware/Mixes.h</title>
<!-- Node1 -->
<g id="Node000001" class="node">
<title>Node1</title>
<g id="a_Node000001"><a xlink:title=" ">
<polygon fill="#999999" stroke="#666666" points="286.5,-141 182,-141 182,-110.5 286.5,-110.5 286.5,-141"/>
<text text-anchor="start" x="190" y="-127.5" font-family="Helvetica,sans-Serif" font-size="10.00">TransmitterCode/src</text>
<text text-anchor="middle" x="234.25" y="-116.25" font-family="Helvetica,sans-Serif" font-size="10.00">/Hardware/Mixes.h</text>
</a>
</g>
</g>
<!-- Node2 -->
<g id="Node000002" class="node">
<title>Node2</title>
<g id="a_Node000002"><a xlink:title=" ">
<polygon fill="#e0e0e0" stroke="#999999" points="56.5,-19.25 0,-19.25 0,0 56.5,0 56.5,-19.25"/>
<text text-anchor="middle" x="28.25" y="-5.75" font-family="Helvetica,sans-Serif" font-size="10.00">Arduino.h</text>
</a>
</g>
</g>
<!-- Node1&#45;&gt;Node2 -->
<g id="edge1_Node000001_Node000002" class="edge">
<title>Node1&#45;&gt;Node2</title>
<g id="a_edge1_Node000001_Node000002"><a xlink:title=" ">
<path fill="none" stroke="#63b8ff" d="M207.74,-110.06C168.12,-88.12 93.92,-47.01 54.47,-25.15"/>
<polygon fill="#63b8ff" stroke="#63b8ff" points="56.32,-22.17 45.87,-20.39 52.93,-28.3 56.32,-22.17"/>
</a>
</g>
</g>
<!-- Node3 -->
<g id="Node000003" class="node">
<title>Node3</title>
<g id="a_Node000003"><a xlink:href="1Definitions_8h.html" target="_top" xlink:title=" ">
<polygon fill="white" stroke="#666666" points="470.62,-74.5 351.88,-74.5 351.88,-55.25 470.62,-55.25 470.62,-74.5"/>
<text text-anchor="middle" x="411.25" y="-61" font-family="Helvetica,sans-Serif" font-size="10.00">Hardware/1Definitions.h</text>
</a>
</g>
</g>
<!-- Node1&#45;&gt;Node3 -->
<g id="edge2_Node000001_Node000003" class="edge">
<title>Node1&#45;&gt;Node3</title>
<g id="a_edge2_Node000001_Node000003"><a xlink:title=" ">
<path fill="none" stroke="#63b8ff" d="M278.46,-110.05C307.53,-100.38 345.18,-87.85 372.97,-78.61"/>
<polygon fill="#63b8ff" stroke="#63b8ff" points="374.02,-81.95 382.41,-75.47 371.82,-75.3 374.02,-81.95"/>
</a>
</g>
</g>
<!-- Node3&#45;&gt;Node2 -->
<g id="edge3_Node000003_Node000002" class="edge">
<title>Node3&#45;&gt;Node2</title>
<g id="a_edge3_Node000003_Node000002"><a xlink:title=" ">
<path fill="none" stroke="#63b8ff" d="M351.46,-57.88C284.82,-50.8 173.63,-37.85 68.01,-19.4"/>
<polygon fill="#63b8ff" stroke="#63b8ff" points="68.77,-15.98 58.32,-17.68 67.55,-22.87 68.77,-15.98"/>
</a>
</g>
</g>
<!-- Node4 -->
<g id="Node000004" class="node">
<title>Node4</title>
<g id="a_Node000004"><a xlink:title=" ">
<polygon fill="#e0e0e0" stroke="#999999" points="155.5,-19.25 75,-19.25 75,0 155.5,0 155.5,-19.25"/>
<text text-anchor="middle" x="115.25" y="-5.75" font-family="Helvetica,sans-Serif" font-size="10.00">Watchdog_t4.h</text>
</a>
</g>
</g>
<!-- Node3&#45;&gt;Node4 -->
<g id="edge4_Node000003_Node000004" class="edge">
<title>Node3&#45;&gt;Node4</title>
<g id="a_edge4_Node000003_Node000004"><a xlink:title=" ">
<path fill="none" stroke="#63b8ff" d="M360.7,-54.78C306.59,-45.05 221.2,-29.69 166.74,-19.89"/>
<polygon fill="#63b8ff" stroke="#63b8ff" points="167.56,-16.48 157.09,-18.15 166.32,-23.37 167.56,-16.48"/>
</a>
</g>
</g>
<!-- Node5 -->
<g id="Node000005" class="node">
<title>Node5</title>
<g id="a_Node000005"><a xlink:title=" ">
<polygon fill="#e0e0e0" stroke="#999999" points="238.62,-19.25 173.88,-19.25 173.88,0 238.62,0 238.62,-19.25"/>
<text text-anchor="middle" x="206.25" y="-5.75" font-family="Helvetica,sans-Serif" font-size="10.00">TeensyID.h</text>
</a>
</g>
</g>
<!-- Node3&#45;&gt;Node5 -->
<g id="edge5_Node000003_Node000005" class="edge">
<title>Node3&#45;&gt;Node5</title>
<g id="a_edge5_Node000003_Node000005"><a xlink:title=" ">
<path fill="none" stroke="#63b8ff" d="M376.47,-54.84C341.44,-45.74 287.29,-31.68 249.5,-21.86"/>
<polygon fill="#63b8ff" stroke="#63b8ff" points="250.85,-18.59 240.29,-19.47 249.09,-25.37 250.85,-18.59"/>
</a>
</g>
</g>
<!-- Node6 -->
<g id="Node000006" class="node">
<title>Node6</title>
<g id="a_Node000006"><a xlink:title=" ">
<polygon fill="#e0e0e0" stroke="#999999" points="340,-19.25 256.5,-19.25 256.5,0 340,0 340,-19.25"/>
<text text-anchor="middle" x="298.25" y="-5.75" font-family="Helvetica,sans-Serif" font-size="10.00">PulsePosition.h</text>
</a>
</g>
</g>
<!-- Node3&#45;&gt;Node6 -->
<g id="edge6_Node000003_Node000006" class="edge">
<title>Node3&#45;&gt;Node6</title>
<g id="a_edge6_Node000003_Node000006"><a xlink:title=" ">
<path fill="none" stroke="#63b8ff" d="M392.08,-54.84C374.47,-46.54 348.09,-34.11 327.79,-24.54"/>
<polygon fill="#63b8ff" stroke="#63b8ff" points="329.42,-21.44 318.88,-20.35 326.44,-27.78 329.42,-21.44"/>
</a>
</g>
</g>
<!-- Node7 -->
<g id="Node000007" class="node">
<title>Node7</title>
<g id="a_Node000007"><a xlink:title=" ">
<polygon fill="#e0e0e0" stroke="#999999" points="404.62,-19.25 357.88,-19.25 357.88,0 404.62,0 404.62,-19.25"/>
<text text-anchor="middle" x="381.25" y="-5.75" font-family="Helvetica,sans-Serif" font-size="10.00">RF24.h</text>
</a>
</g>
</g>
<!-- Node3&#45;&gt;Node7 -->
<g id="edge7_Node000003_Node000007" class="edge">
<title>Node3&#45;&gt;Node7</title>
<g id="a_edge7_Node000003_Node000007"><a xlink:title=" ">
<path fill="none" stroke="#63b8ff" d="M406.3,-55.08C402.37,-48.11 396.74,-38.12 391.81,-29.37"/>
<polygon fill="#63b8ff" stroke="#63b8ff" points="395.01,-27.92 387.05,-20.93 388.91,-31.36 395.01,-27.92"/>
</a>
</g>
</g>
<!-- Node8 -->
<g id="Node000008" class="node">
<title>Node8</title>
<g id="a_Node000008"><a xlink:title=" ">
<polygon fill="#e0e0e0" stroke="#999999" points="459.75,-19.25 422.75,-19.25 422.75,0 459.75,0 459.75,-19.25"/>
<text text-anchor="middle" x="441.25" y="-5.75" font-family="Helvetica,sans-Serif" font-size="10.00">SD.h</text>
</a>
</g>
</g>
<!-- Node3&#45;&gt;Node8 -->
<g id="edge8_Node000003_Node000008" class="edge">
<title>Node3&#45;&gt;Node8</title>
<g id="a_edge8_Node000003_Node000008"><a xlink:title=" ">
<path fill="none" stroke="#63b8ff" d="M416.2,-55.08C420.13,-48.11 425.76,-38.12 430.69,-29.37"/>
<polygon fill="#63b8ff" stroke="#63b8ff" points="433.59,-31.36 435.45,-20.93 427.49,-27.92 433.59,-31.36"/>
</a>
</g>
</g>
<!-- Node9 -->
<g id="Node000009" class="node">
<title>Node9</title>
<g id="a_Node000009"><a xlink:title=" ">
<polygon fill="#e0e0e0" stroke="#999999" points="518.25,-19.25 478.25,-19.25 478.25,0 518.25,0 518.25,-19.25"/>
<text text-anchor="middle" x="498.25" y="-5.75" font-family="Helvetica,sans-Serif" font-size="10.00">SPI.h</text>
</a>
</g>
</g>
<!-- Node3&#45;&gt;Node9 -->
<g id="edge9_Node000003_Node000009" class="edge">
<title>Node3&#45;&gt;Node9</title>
<g id="a_edge9_Node000003_Node000009"><a xlink:title=" ">
<path fill="none" stroke="#63b8ff" d="M426.01,-54.84C439.13,-46.81 458.57,-34.91 473.98,-25.48"/>
<polygon fill="#63b8ff" stroke="#63b8ff" points="475.43,-28.7 482.13,-20.49 471.77,-22.73 475.43,-28.7"/>
</a>
</g>
</g>
<!-- Node10 -->
<g id="Node000010" class="node">
<title>Node10</title>
<g id="a_Node000010"><a xlink:title=" ">
<polygon fill="#e0e0e0" stroke="#999999" points="579.75,-19.25 536.75,-19.25 536.75,0 579.75,0 579.75,-19.25"/>
<text text-anchor="middle" x="558.25" y="-5.75" font-family="Helvetica,sans-Serif" font-size="10.00">Wire.h</text>
</a>
</g>
</g>
<!-- Node3&#45;&gt;Node10 -->
<g id="edge10_Node000003_Node000010" class="edge">
<title>Node3&#45;&gt;Node10</title>
<g id="a_edge10_Node000003_Node000010"><a xlink:title=" ">
<path fill="none" stroke="#63b8ff" d="M436.19,-54.84C460.95,-45.87 499.03,-32.08 526.07,-22.28"/>
<polygon fill="#63b8ff" stroke="#63b8ff" points="526.92,-25.7 535.13,-19 524.53,-19.12 526.92,-25.7"/>
</a>
</g>
</g>
<!-- Node11 -->
<g id="Node000011" class="node">
<title>Node11</title>
<g id="a_Node000011"><a xlink:title=" ">
<polygon fill="#e0e0e0" stroke="#999999" points="693,-19.25 597.5,-19.25 597.5,0 693,0 693,-19.25"/>
<text text-anchor="middle" x="645.25" y="-5.75" font-family="Helvetica,sans-Serif" font-size="10.00">Adafruit_INA219.h</text>
</a>
</g>
</g>
<!-- Node3&#45;&gt;Node11 -->
<g id="edge11_Node000003_Node000011" class="edge">
<title>Node3&#45;&gt;Node11</title>
<g id="a_edge11_Node000003_Node000011"><a xlink:title=" ">
<path fill="none" stroke="#63b8ff" d="M451.21,-54.78C490.75,-45.78 551.43,-31.98 594.39,-22.2"/>
<polygon fill="#63b8ff" stroke="#63b8ff" points="595,-25.65 603.98,-20.02 593.45,-18.82 595,-25.65"/>
</a>
</g>
</g>
<!-- Node12 -->
<g id="Node000012" class="node">
<title>Node12</title>
<g id="a_Node000012"><a xlink:title=" ">
<polygon fill="#e0e0e0" stroke="#999999" points="789,-19.25 711.5,-19.25 711.5,0 789,0 789,-19.25"/>
<text text-anchor="middle" x="750.25" y="-5.75" font-family="Helvetica,sans-Serif" font-size="10.00">DS1307RTC.h</text>
</a>
</g>
</g>
<!-- Node3&#45;&gt;Node12 -->
<g id="edge12_Node000003_Node000012" class="edge">
<title>Node3&#45;&gt;Node12</title>
<g id="a_edge12_Node000003_Node000012"><a xlink:title=" ">
<path fill="none" stroke="#63b8ff" d="M470.95,-55.18C527.36,-46.86 614.63,-33.72 700.02,-19.59"/>
<polygon fill="#63b8ff" stroke="#63b8ff" points="700.45,-23.06 709.74,-17.97 699.3,-16.16 700.45,-23.06"/>
</a>
</g>
</g>
<!-- Node13 -->
<g id="Node000013" class="node">
<title>Node13</title>
<g id="a_Node000013"><a xlink:title=" ">
<polygon fill="#e0e0e0" stroke="#999999" points="897.38,-19.25 807.12,-19.25 807.12,0 897.38,0 897.38,-19.25"/>
<text text-anchor="middle" x="852.25" y="-5.75" font-family="Helvetica,sans-Serif" font-size="10.00">InterpolationLib.h</text>
</a>
</g>
</g>
<!-- Node3&#45;&gt;Node13 -->
<g id="edge13_Node000003_Node000013" class="edge">
<title>Node3&#45;&gt;Node13</title>
<g id="a_edge13_Node000003_Node000013"><a xlink:title=" ">
<path fill="none" stroke="#63b8ff" d="M471.02,-57.8C544.83,-50.12 674.52,-36.02 795.59,-19.56"/>
<polygon fill="#63b8ff" stroke="#63b8ff" points="795.97,-23.04 805.4,-18.22 795.02,-16.11 795.97,-23.04"/>
</a>
</g>
</g>
</g>
</svg>
