<?xml version="1.0" encoding="UTF-8" standalone="no"?>
<!DOCTYPE svg PUBLIC "-//W3C//DTD SVG 1.1//EN"
 "http://www.w3.org/Graphics/SVG/1.1/DTD/svg11.dtd">
<!-- Generated by graphviz version 9.0.0 (20230911.1827)
 -->
<!-- Title: SendOtherValue Pages: 1 -->
<svg width="943pt" height="1074pt"
 viewBox="0.00 0.00 942.75 1073.87" xmlns="http://www.w3.org/2000/svg" xmlns:xlink="http://www.w3.org/1999/xlink">
<g id="graph0" class="graph" transform="scale(1 1) rotate(0) translate(4 1069.87)">
<title>SendOtherValue</title>
<!-- Node1 -->
<g id="Node000001" class="node">
<title>Node1</title>
<g id="a_Node000001"><a xlink:title=" ">
<polygon fill="#999999" stroke="#666666" points="87.25,-922.88 0,-922.88 0,-903.63 87.25,-903.63 87.25,-922.88"/>
<text text-anchor="middle" x="43.62" y="-909.38" font-family="Helvetica,sans-Serif" font-size="10.00">SendOtherValue</text>
</a>
</g>
</g>
<!-- Node2 -->
<g id="Node000002" class="node">
<title>Node2</title>
<g id="a_Node000002"><a xlink:href="Nextion_8h.html#a43937dd3d9c795271fd9c3eb3c6b6410" target="_top" xlink:title=" ">
<polygon fill="white" stroke="#666666" points="324.75,-960.88 242,-960.88 242,-941.63 324.75,-941.63 324.75,-960.88"/>
<text text-anchor="middle" x="283.38" y="-947.38" font-family="Helvetica,sans-Serif" font-size="10.00">GetReturnCode</text>
</a>
</g>
</g>
<!-- Node1&#45;&gt;Node2 -->
<g id="edge1_Node000001_Node000002" class="edge">
<title>Node1&#45;&gt;Node2</title>
<g id="a_edge1_Node000001_Node000002"><a xlink:title=" ">
<path fill="none" stroke="#63b8ff" d="M82.42,-923.35C95.31,-926.53 109.84,-929.84 123.25,-932.25 158.86,-938.66 199.34,-943.46 230.57,-946.63"/>
<polygon fill="#63b8ff" stroke="#63b8ff" points="229.83,-950.07 240.12,-947.58 230.52,-943.11 229.83,-950.07"/>
</a>
</g>
</g>
<!-- Node3 -->
<g id="Node000003" class="node">
<title>Node3</title>
<g id="a_Node000003"><a xlink:href="Nextion_8h.html#aecac2f0c289f02ef3c92b85be82eacac" target="_top" xlink:title=" ">
<polygon fill="white" stroke="#666666" points="206,-922.88 123.25,-922.88 123.25,-903.63 206,-903.63 206,-922.88"/>
<text text-anchor="middle" x="164.62" y="-909.38" font-family="Helvetica,sans-Serif" font-size="10.00">SendCommand</text>
</a>
</g>
</g>
<!-- Node1&#45;&gt;Node3 -->
<g id="edge2_Node000001_Node000003" class="edge">
<title>Node1&#45;&gt;Node3</title>
<g id="a_edge2_Node000001_Node000003"><a xlink:title=" ">
<path fill="none" stroke="#63b8ff" d="M87.59,-913.25C95.46,-913.25 103.75,-913.25 111.85,-913.25"/>
<polygon fill="#63b8ff" stroke="#63b8ff" points="111.6,-916.75 121.6,-913.25 111.6,-909.75 111.6,-916.75"/>
</a>
</g>
</g>
<!-- Node49 -->
<g id="Node000049" class="node">
<title>Node49</title>
<g id="a_Node000049"><a xlink:href="Utilities_8h.html#a590a9174319918d7e3d7baca323fcf26" target="_top" xlink:title=" ">
<polygon fill="white" stroke="#666666" points="179.03,-885.88 150.22,-885.88 150.22,-866.63 179.03,-866.63 179.03,-885.88"/>
<text text-anchor="middle" x="164.62" y="-872.38" font-family="Helvetica,sans-Serif" font-size="10.00">Str</text>
</a>
</g>
</g>
<!-- Node1&#45;&gt;Node49 -->
<g id="edge58_Node000001_Node000049" class="edge">
<title>Node1&#45;&gt;Node49</title>
<g id="a_edge58_Node000001_Node000049"><a xlink:title=" ">
<path fill="none" stroke="#63b8ff" d="M77.14,-903.14C96.58,-897.1 120.89,-889.54 138.79,-883.98"/>
<polygon fill="#63b8ff" stroke="#63b8ff" points="139.8,-887.33 148.31,-881.01 137.72,-880.64 139.8,-887.33"/>
</a>
</g>
</g>
<!-- Node3&#45;&gt;Node2 -->
<g id="edge56_Node000003_Node000002" class="edge">
<title>Node3&#45;&gt;Node2</title>
<g id="a_edge56_Node000003_Node000002"><a xlink:title=" ">
<path fill="none" stroke="#63b8ff" d="M196.61,-923.34C210.17,-927.75 226.29,-933 240.87,-937.74"/>
<polygon fill="#63b8ff" stroke="#63b8ff" points="239.62,-941.02 250.22,-940.79 241.79,-934.36 239.62,-941.02"/>
</a>
</g>
</g>
<!-- Node4 -->
<g id="Node000004" class="node">
<title>Node4</title>
<g id="a_Node000004"><a xlink:href="Utilities_8h.html#a3b1d8aa403e2724e55c71da3d9d13e7e" target="_top" xlink:title=" ">
<polygon fill="white" stroke="#666666" points="321.75,-886.88 245,-886.88 245,-867.63 321.75,-867.63 321.75,-886.88"/>
<text text-anchor="middle" x="283.38" y="-873.38" font-family="Helvetica,sans-Serif" font-size="10.00">DelayWithDog</text>
</a>
</g>
</g>
<!-- Node3&#45;&gt;Node4 -->
<g id="edge3_Node000003_Node000004" class="edge">
<title>Node3&#45;&gt;Node4</title>
<g id="a_edge3_Node000003_Node000004"><a xlink:title=" ">
<path fill="none" stroke="#63b8ff" d="M198.46,-903.13C211,-899.26 225.5,-894.79 238.88,-890.66"/>
<polygon fill="#63b8ff" stroke="#63b8ff" points="239.82,-894.04 248.34,-887.75 237.76,-887.35 239.82,-894.04"/>
</a>
</g>
</g>
<!-- Node141 -->
<g id="Node000141" class="node">
<title>Node141</title>
<g id="a_Node000141"><a xlink:href="TransmitterCode_2src_2main_8cpp.html#a5f109790a6fe0b972a502f3cac4ed1e7" target="_top" xlink:title=" ">
<polygon fill="white" stroke="#666666" points="307.12,-923.88 259.62,-923.88 259.62,-904.63 307.12,-904.63 307.12,-923.88"/>
<text text-anchor="middle" x="283.38" y="-910.38" font-family="Helvetica,sans-Serif" font-size="10.00">InStrng</text>
</a>
</g>
</g>
<!-- Node3&#45;&gt;Node141 -->
<g id="edge57_Node000003_Node000141" class="edge">
<title>Node3&#45;&gt;Node141</title>
<g id="a_edge57_Node000003_Node000141"><a xlink:title=" ">
<path fill="none" stroke="#63b8ff" d="M206.46,-913.6C220.05,-913.72 235.04,-913.85 248.09,-913.96"/>
<polygon fill="#63b8ff" stroke="#63b8ff" points="247.88,-917.46 257.91,-914.04 247.94,-910.46 247.88,-917.46"/>
</a>
</g>
</g>
<!-- Node5 -->
<g id="Node000005" class="node">
<title>Node5</title>
<g id="a_Node000005"><a xlink:href="TransmitterCode_2src_2main_8cpp.html#ab584ae7dbc9b1af37538f91b00b8927f" target="_top" xlink:title=" ">
<polygon fill="white" stroke="#666666" points="463.75,-923.88 375,-923.88 375,-904.63 463.75,-904.63 463.75,-923.88"/>
<text text-anchor="middle" x="419.38" y="-910.38" font-family="Helvetica,sans-Serif" font-size="10.00">FixMotorChannel</text>
</a>
</g>
</g>
<!-- Node4&#45;&gt;Node5 -->
<g id="edge4_Node000004_Node000005" class="edge">
<title>Node4&#45;&gt;Node5</title>
<g id="a_edge4_Node000004_Node000005"><a xlink:title=" ">
<path fill="none" stroke="#63b8ff" d="M320.99,-887.36C336.35,-891.61 354.42,-896.59 370.79,-901.11"/>
<polygon fill="#63b8ff" stroke="#63b8ff" points="369.77,-904.46 380.34,-903.75 371.64,-897.72 369.77,-904.46"/>
</a>
</g>
</g>
<!-- Node7 -->
<g id="Node000007" class="node">
<title>Node7</title>
<g id="a_Node000007"><a xlink:href="TransmitterCode_2src_2main_8cpp.html#a26ae4f6ca14f760bd5eb6e7588fe7c81" target="_top" xlink:title="GET NEW SERVO POSITIONS.">
<polygon fill="white" stroke="#666666" points="478,-886.88 360.75,-886.88 360.75,-867.63 478,-867.63 478,-886.88"/>
<text text-anchor="middle" x="419.38" y="-873.38" font-family="Helvetica,sans-Serif" font-size="10.00">GetNewChannelValues</text>
</a>
</g>
</g>
<!-- Node4&#45;&gt;Node7 -->
<g id="edge6_Node000004_Node000007" class="edge">
<title>Node4&#45;&gt;Node7</title>
<g id="a_edge6_Node000004_Node000007"><a xlink:title=" ">
<path fill="none" stroke="#63b8ff" d="M322.06,-877.25C330.53,-877.25 339.79,-877.25 349.1,-877.25"/>
<polygon fill="#63b8ff" stroke="#63b8ff" points="348.93,-880.75 358.93,-877.25 348.93,-873.75 348.93,-880.75"/>
</a>
</g>
</g>
<!-- Node22 -->
<g id="Node000022" class="node">
<title>Node22</title>
<g id="a_Node000022"><a xlink:href="Utilities_8h.html#ada95a00a341e4a80176eda743a94ab2e" target="_top" xlink:title=" ">
<polygon fill="white" stroke="#666666" points="454,-960.88 384.75,-960.88 384.75,-941.63 454,-941.63 454,-960.88"/>
<text text-anchor="middle" x="419.38" y="-947.38" font-family="Helvetica,sans-Serif" font-size="10.00">KickTheDog</text>
</a>
</g>
</g>
<!-- Node4&#45;&gt;Node22 -->
<g id="edge22_Node000004_Node000022" class="edge">
<title>Node4&#45;&gt;Node22</title>
<g id="a_edge22_Node000004_Node000022"><a xlink:title=" ">
<path fill="none" stroke="#63b8ff" d="M310.83,-887.24C315.64,-889.55 320.49,-892.24 324.75,-895.25 343.74,-908.69 341.01,-920.94 360.75,-933.25 364.8,-935.78 369.24,-937.98 373.79,-939.88"/>
<polygon fill="#63b8ff" stroke="#63b8ff" points="372.49,-943.13 383.08,-943.29 374.9,-936.56 372.49,-943.13"/>
</a>
</g>
</g>
<!-- Node23 -->
<g id="Node000023" class="node">
<title>Node23</title>
<g id="a_Node000023"><a xlink:href="transceiver_8h.html#a049bfb836e7aa4a3a48a1a4bd225fafc" target="_top" xlink:title=" ">
<polygon fill="white" stroke="#666666" points="448.75,-588.88 390,-588.88 390,-569.63 448.75,-569.63 448.75,-588.88"/>
<text text-anchor="middle" x="419.38" y="-575.38" font-family="Helvetica,sans-Serif" font-size="10.00">SendData</text>
</a>
</g>
</g>
<!-- Node4&#45;&gt;Node23 -->
<g id="edge23_Node000004_Node000023" class="edge">
<title>Node4&#45;&gt;Node23</title>
<g id="a_edge23_Node000004_Node000023"><a xlink:title=" ">
<path fill="none" stroke="#63b8ff" d="M288.83,-867.34C307.91,-824.92 382.88,-658.19 409.19,-599.68"/>
<polygon fill="#63b8ff" stroke="#63b8ff" points="412.37,-601.14 413.28,-590.59 405.99,-598.27 412.37,-601.14"/>
</a>
</g>
</g>
<!-- Node6 -->
<g id="Node000006" class="node">
<title>Node6</title>
<g id="a_Node000006"><a xlink:href="Utilities_8h.html#a0d8d8a0d67cb9b04481f1692abe75368" target="_top" xlink:title=" ">
<polygon fill="white" stroke="#666666" points="796.88,-1016.88 718.62,-1016.88 718.62,-997.63 796.88,-997.63 796.88,-1016.88"/>
<text text-anchor="middle" x="757.75" y="-1003.38" font-family="Helvetica,sans-Serif" font-size="10.00">IntoHigherRes</text>
</a>
</g>
</g>
<!-- Node5&#45;&gt;Node6 -->
<g id="edge5_Node000005_Node000006" class="edge">
<title>Node5&#45;&gt;Node6</title>
<g id="a_edge5_Node000005_Node000006"><a xlink:title=" ">
<path fill="none" stroke="#63b8ff" d="M464.17,-922.88C469.27,-925.28 474.06,-928.34 478,-932.25 515.12,-969.07 471.75,-1013.45 514,-1044.25 579.5,-1092 681.6,-1048.42 729.81,-1022.83"/>
<polygon fill="#63b8ff" stroke="#63b8ff" points="731.36,-1025.97 738.46,-1018.1 728,-1019.83 731.36,-1025.97"/>
</a>
</g>
</g>
<!-- Node8 -->
<g id="Node000008" class="node">
<title>Node8</title>
<g id="a_Node000008"><a xlink:href="TransmitterCode_2src_2main_8cpp.html#af518bb2cfb3cfe18d491b2a5d6bf7dcc" target="_top" xlink:title=" ">
<polygon fill="white" stroke="#666666" points="636.88,-923.88 534.62,-923.88 534.62,-904.63 636.88,-904.63 636.88,-923.88"/>
<text text-anchor="middle" x="585.75" y="-910.38" font-family="Helvetica,sans-Serif" font-size="10.00">CalculateAllOutputs</text>
</a>
</g>
</g>
<!-- Node7&#45;&gt;Node8 -->
<g id="edge7_Node000007_Node000008" class="edge">
<title>Node7&#45;&gt;Node8</title>
<g id="a_edge7_Node000007_Node000008"><a xlink:title=" ">
<path fill="none" stroke="#63b8ff" d="M465.29,-887.36C484.86,-891.77 508.01,-896.98 528.69,-901.63"/>
<polygon fill="#63b8ff" stroke="#63b8ff" points="527.89,-905.04 538.41,-903.82 529.42,-898.21 527.89,-905.04"/>
</a>
</g>
</g>
<!-- Node12 -->
<g id="Node000012" class="node">
<title>Node12</title>
<g id="a_Node000012"><a xlink:href="TransmitterCode_2src_2main_8cpp.html#acd70b997cf150e55d943df5d6f1cff51" target="_top" xlink:title=" ">
<polygon fill="white" stroke="#666666" points="640.25,-849.88 531.25,-849.88 531.25,-830.63 640.25,-830.63 640.25,-849.88"/>
<text text-anchor="middle" x="585.75" y="-836.38" font-family="Helvetica,sans-Serif" font-size="10.00">DoTrimsAndSubtrims</text>
</a>
</g>
</g>
<!-- Node7&#45;&gt;Node12 -->
<g id="edge11_Node000007_Node000012" class="edge">
<title>Node7&#45;&gt;Node12</title>
<g id="a_edge11_Node000007_Node000012"><a xlink:title=" ">
<path fill="none" stroke="#63b8ff" d="M465.29,-867.14C484.86,-862.74 508.01,-857.53 528.69,-852.87"/>
<polygon fill="#63b8ff" stroke="#63b8ff" points="529.42,-856.29 538.41,-850.68 527.89,-849.46 529.42,-856.29"/>
</a>
</g>
</g>
<!-- Node14 -->
<g id="Node000014" class="node">
<title>Node14</title>
<g id="a_Node000014"><a xlink:href="TransmitterCode_2src_2main_8cpp.html#a15d8fbd5988e76a16e33e7f620804009" target="_top" xlink:title=" ">
<polygon fill="white" stroke="#666666" points="620.75,-775.88 550.75,-775.88 550.75,-756.63 620.75,-756.63 620.75,-775.88"/>
<text text-anchor="middle" x="585.75" y="-762.38" font-family="Helvetica,sans-Serif" font-size="10.00">GetAllInputs</text>
</a>
</g>
</g>
<!-- Node7&#45;&gt;Node14 -->
<g id="edge13_Node000007_Node000014" class="edge">
<title>Node7&#45;&gt;Node14</title>
<g id="a_edge13_Node000007_Node000014"><a xlink:title=" ">
<path fill="none" stroke="#63b8ff" d="M427.39,-867.39C441.5,-848.28 475.33,-806.17 514,-784.25 521.83,-779.82 530.76,-776.45 539.58,-773.91"/>
<polygon fill="#63b8ff" stroke="#63b8ff" points="540.3,-777.34 549.13,-771.49 538.58,-770.56 540.3,-777.34"/>
</a>
</g>
</g>
<!-- Node17 -->
<g id="Node000017" class="node">
<title>Node17</title>
<g id="a_Node000017"><a xlink:href="Mixes_8h.html#a5aa9208b1f2a522a0cdb348301fe0593" target="_top" xlink:title=" ">
<polygon fill="white" stroke="#666666" points="614.75,-886.88 556.75,-886.88 556.75,-867.63 614.75,-867.63 614.75,-886.88"/>
<text text-anchor="middle" x="585.75" y="-873.38" font-family="Helvetica,sans-Serif" font-size="10.00">MixInputs</text>
</a>
</g>
</g>
<!-- Node7&#45;&gt;Node17 -->
<g id="edge16_Node000007_Node000017" class="edge">
<title>Node7&#45;&gt;Node17</title>
<g id="a_edge16_Node000007_Node000017"><a xlink:title=" ">
<path fill="none" stroke="#63b8ff" d="M478.33,-877.25C500.32,-877.25 524.86,-877.25 544.83,-877.25"/>
<polygon fill="#63b8ff" stroke="#63b8ff" points="544.79,-880.75 554.79,-877.25 544.79,-873.75 544.79,-880.75"/>
</a>
</g>
</g>
<!-- Node18 -->
<g id="Node000018" class="node">
<title>Node18</title>
<g id="a_Node000018"><a xlink:href="Mixes_8h.html#a376c11f3a285138341edc0783f930ff3" target="_top" xlink:title=" ">
<polygon fill="white" stroke="#666666" points="618.5,-960.88 553,-960.88 553,-941.63 618.5,-941.63 618.5,-960.88"/>
<text text-anchor="middle" x="585.75" y="-947.38" font-family="Helvetica,sans-Serif" font-size="10.00">MixOutputs</text>
</a>
</g>
</g>
<!-- Node7&#45;&gt;Node18 -->
<g id="edge17_Node000007_Node000018" class="edge">
<title>Node7&#45;&gt;Node18</title>
<g id="a_edge17_Node000007_Node000018"><a xlink:title=" ">
<path fill="none" stroke="#63b8ff" d="M461.81,-887.36C467.46,-889.54 473.02,-892.15 478,-895.25 497.74,-907.56 493.94,-921.48 514,-933.25 522.41,-938.19 532.15,-941.78 541.66,-944.39"/>
<polygon fill="#63b8ff" stroke="#63b8ff" points="540.62,-947.74 551.16,-946.68 542.26,-940.94 540.62,-947.74"/>
</a>
</g>
</g>
<!-- Node19 -->
<g id="Node000019" class="node">
<title>Node19</title>
<g id="a_Node000019"><a xlink:href="TransmitterCode_2src_2main_8cpp.html#a92bb36e29cd297189daefb3b79deaac3" target="_top" xlink:title=" ">
<polygon fill="white" stroke="#666666" points="627.88,-812.88 543.62,-812.88 543.62,-793.63 627.88,-793.63 627.88,-812.88"/>
<text text-anchor="middle" x="585.75" y="-799.38" font-family="Helvetica,sans-Serif" font-size="10.00">RerouteOutputs</text>
</a>
</g>
</g>
<!-- Node7&#45;&gt;Node19 -->
<g id="edge19_Node000007_Node000019" class="edge">
<title>Node7&#45;&gt;Node19</title>
<g id="a_edge19_Node000007_Node000019"><a xlink:title=" ">
<path fill="none" stroke="#63b8ff" d="M434.28,-867.16C452,-854.74 483.92,-833.76 514,-821.25 519.92,-818.79 526.27,-816.6 532.64,-814.66"/>
<polygon fill="#63b8ff" stroke="#63b8ff" points="533.18,-818.15 541.86,-812.07 531.28,-811.41 533.18,-818.15"/>
</a>
</g>
</g>
<!-- Node20 -->
<g id="Node000020" class="node">
<title>Node20</title>
<g id="a_Node000020"><a xlink:href="Utilities_8h.html#a2d10590a11f1790e37c47f70f294f10d" target="_top" xlink:title=" ">
<polygon fill="white" stroke="#666666" points="624.5,-1034.88 547,-1034.88 547,-1015.63 624.5,-1015.63 624.5,-1034.88"/>
<text text-anchor="middle" x="585.75" y="-1021.38" font-family="Helvetica,sans-Serif" font-size="10.00">ServoReverse</text>
</a>
</g>
</g>
<!-- Node7&#45;&gt;Node20 -->
<g id="edge20_Node000007_Node000020" class="edge">
<title>Node7&#45;&gt;Node20</title>
<g id="a_edge20_Node000007_Node000020"><a xlink:title=" ">
<path fill="none" stroke="#63b8ff" d="M467.02,-887.31C471.05,-889.46 474.8,-892.08 478,-895.25 515.12,-932.07 475.9,-971.44 514,-1007.25 520.1,-1012.98 527.75,-1016.95 535.76,-1019.69"/>
<polygon fill="#63b8ff" stroke="#63b8ff" points="534.75,-1023.05 545.32,-1022.31 536.6,-1016.29 534.75,-1023.05"/>
</a>
</g>
</g>
<!-- Node21 -->
<g id="Node000021" class="node">
<title>Node21</title>
<g id="a_Node000021"><a xlink:href="TransmitterCode_2src_2main_8cpp.html#a73d05c890a6a5f7b493e6aefb497d869" target="_top" xlink:title=" ">
<polygon fill="white" stroke="#666666" points="628.25,-997.88 543.25,-997.88 543.25,-978.63 628.25,-978.63 628.25,-997.88"/>
<text text-anchor="middle" x="585.75" y="-984.38" font-family="Helvetica,sans-Serif" font-size="10.00">SlowAnyServos</text>
</a>
</g>
</g>
<!-- Node7&#45;&gt;Node21 -->
<g id="edge21_Node000007_Node000021" class="edge">
<title>Node7&#45;&gt;Node21</title>
<g id="a_edge21_Node000007_Node000021"><a xlink:title=" ">
<path fill="none" stroke="#63b8ff" d="M465.73,-887.35C470.16,-889.5 474.35,-892.1 478,-895.25 505.97,-919.44 485.39,-946.83 514,-970.25 519.41,-974.68 525.76,-978.03 532.41,-980.57"/>
<polygon fill="#63b8ff" stroke="#63b8ff" points="530.97,-983.79 541.56,-983.47 533.09,-977.12 530.97,-983.79"/>
</a>
</g>
</g>
<!-- Node9 -->
<g id="Node000009" class="node">
<title>Node9</title>
<g id="a_Node000009"><a xlink:href="Rates_8h.html#af9c038b48102eca9032f10fefd9d5736" target="_top" xlink:title=" ">
<polygon fill="white" stroke="#666666" points="796.5,-923.88 719,-923.88 719,-904.63 796.5,-904.63 796.5,-923.88"/>
<text text-anchor="middle" x="757.75" y="-910.38" font-family="Helvetica,sans-Serif" font-size="10.00">GetCurveDots</text>
</a>
</g>
</g>
<!-- Node8&#45;&gt;Node9 -->
<g id="edge8_Node000008_Node000009" class="edge">
<title>Node8&#45;&gt;Node9</title>
<g id="a_edge8_Node000008_Node000009"><a xlink:title=" ">
<path fill="none" stroke="#63b8ff" d="M637.3,-914.25C659.36,-914.25 685.16,-914.25 707.12,-914.25"/>
<polygon fill="#63b8ff" stroke="#63b8ff" points="707.04,-917.75 717.04,-914.25 707.04,-910.75 707.04,-917.75"/>
</a>
</g>
</g>
<!-- Node10 -->
<g id="Node000010" class="node">
<title>Node10</title>
<g id="a_Node000010"><a xlink:href="Rates_8h.html#afeabb54d48ef7e55693014e057d2943d" target="_top" xlink:title=" ">
<polygon fill="white" stroke="#666666" points="934.75,-904.88 858,-904.88 858,-885.63 934.75,-885.63 934.75,-904.88"/>
<text text-anchor="middle" x="896.38" y="-891.38" font-family="Helvetica,sans-Serif" font-size="10.00">CalculateRate</text>
</a>
</g>
</g>
<!-- Node9&#45;&gt;Node10 -->
<g id="edge9_Node000009_Node000010" class="edge">
<title>Node9&#45;&gt;Node10</title>
<g id="a_edge9_Node000009_Node000010"><a xlink:title=" ">
<path fill="none" stroke="#63b8ff" d="M796.81,-908.96C812.2,-906.82 830.17,-904.32 846.52,-902.05"/>
<polygon fill="#63b8ff" stroke="#63b8ff" points="846.6,-905.57 856.02,-900.73 845.64,-898.64 846.6,-905.57"/>
</a>
</g>
</g>
<!-- Node11 -->
<g id="Node000011" class="node">
<title>Node11</title>
<g id="a_Node000011"><a xlink:href="Rates_8h.html#a8f53f86499d740b350f7b6d791c90497" target="_top" xlink:title=" ">
<polygon fill="white" stroke="#666666" points="931.38,-941.88 861.38,-941.88 861.38,-922.63 931.38,-922.63 931.38,-941.88"/>
<text text-anchor="middle" x="896.38" y="-928.38" font-family="Helvetica,sans-Serif" font-size="10.00">UseFullRate</text>
</a>
</g>
</g>
<!-- Node9&#45;&gt;Node11 -->
<g id="edge10_Node000009_Node000011" class="edge">
<title>Node9&#45;&gt;Node11</title>
<g id="a_edge10_Node000009_Node000011"><a xlink:title=" ">
<path fill="none" stroke="#63b8ff" d="M796.81,-919.27C813.39,-921.45 832.95,-924.03 850.26,-926.31"/>
<polygon fill="#63b8ff" stroke="#63b8ff" points="849.38,-929.72 859.75,-927.56 850.29,-922.78 849.38,-929.72"/>
</a>
</g>
</g>
<!-- Node13 -->
<g id="Node000013" class="node">
<title>Node13</title>
<g id="a_Node000013"><a xlink:href="Trims_8h.html#aacd8b022714bb89847239dd878ad9509" target="_top" xlink:title=" ">
<polygon fill="white" stroke="#666666" points="800.25,-849.88 715.25,-849.88 715.25,-830.63 800.25,-830.63 800.25,-849.88"/>
<text text-anchor="middle" x="757.75" y="-836.38" font-family="Helvetica,sans-Serif" font-size="10.00">GetTrimAmount</text>
</a>
</g>
</g>
<!-- Node12&#45;&gt;Node13 -->
<g id="edge12_Node000012_Node000013" class="edge">
<title>Node12&#45;&gt;Node13</title>
<g id="a_edge12_Node000012_Node000013"><a xlink:title=" ">
<path fill="none" stroke="#63b8ff" d="M640.54,-840.25C660.62,-840.25 683.41,-840.25 703.45,-840.25"/>
<polygon fill="#63b8ff" stroke="#63b8ff" points="703.38,-843.75 713.38,-840.25 703.38,-836.75 703.38,-843.75"/>
</a>
</g>
</g>
<!-- Node15 -->
<g id="Node000015" class="node">
<title>Node15</title>
<g id="a_Node000015"><a xlink:href="TransmitterCode_2src_2main_8cpp.html#ac5728db610c441820a6f47295967cbab" target="_top" xlink:title=" ">
<polygon fill="white" stroke="#666666" points="797.25,-775.88 718.25,-775.88 718.25,-756.63 797.25,-756.63 797.25,-775.88"/>
<text text-anchor="middle" x="757.75" y="-762.38" font-family="Helvetica,sans-Serif" font-size="10.00">AnalogueReed</text>
</a>
</g>
</g>
<!-- Node14&#45;&gt;Node15 -->
<g id="edge14_Node000014_Node000015" class="edge">
<title>Node14&#45;&gt;Node15</title>
<g id="a_edge14_Node000014_Node000015"><a xlink:title=" ">
<path fill="none" stroke="#63b8ff" d="M621.15,-766.25C645.69,-766.25 679.06,-766.25 706.56,-766.25"/>
<polygon fill="#63b8ff" stroke="#63b8ff" points="706.43,-769.75 716.43,-766.25 706.43,-762.75 706.43,-769.75"/>
</a>
</g>
</g>
<!-- Node16 -->
<g id="Node000016" class="node">
<title>Node16</title>
<g id="a_Node000016"><a xlink:href="TransmitterCode_2src_2main_8cpp.html#a787973ed0df098048a54e5110896eeb6" target="_top" xlink:title=" ">
<polygon fill="white" stroke="#666666" points="822,-812.88 693.5,-812.88 693.5,-793.63 822,-793.63 822,-812.88"/>
<text text-anchor="middle" x="757.75" y="-799.38" font-family="Helvetica,sans-Serif" font-size="10.00">ReadThreePositionSwitch</text>
</a>
</g>
</g>
<!-- Node14&#45;&gt;Node16 -->
<g id="edge15_Node000014_Node000016" class="edge">
<title>Node14&#45;&gt;Node16</title>
<g id="a_edge15_Node000014_Node000016"><a xlink:title=" ">
<path fill="none" stroke="#63b8ff" d="M621.15,-773.74C643.55,-778.61 673.31,-785.09 699.25,-790.74"/>
<polygon fill="#63b8ff" stroke="#63b8ff" points="698.48,-794.15 709,-792.86 699.97,-787.31 698.48,-794.15"/>
</a>
</g>
</g>
<!-- Node18&#45;&gt;Node6 -->
<g id="edge18_Node000018_Node000006" class="edge">
<title>Node18&#45;&gt;Node6</title>
<g id="a_edge18_Node000018_Node000006"><a xlink:title=" ">
<path fill="none" stroke="#63b8ff" d="M618.67,-958.54C630.9,-961.55 644.94,-965.26 657.5,-969.25 679.4,-976.21 703.49,-985.39 722.45,-992.99"/>
<polygon fill="#63b8ff" stroke="#63b8ff" points="720.98,-996.17 731.56,-996.68 723.6,-989.68 720.98,-996.17"/>
</a>
</g>
</g>
<!-- Node24 -->
<g id="Node000024" class="node">
<title>Node24</title>
<g id="a_Node000024"><a xlink:href="transceiver_8h.html#a1ddd5e8d5bd649dd98ce3710fbff651b" target="_top" xlink:title=" ">
<polygon fill="white" stroke="#666666" points="615.88,-607.88 555.62,-607.88 555.62,-588.63 615.88,-588.63 615.88,-607.88"/>
<text text-anchor="middle" x="585.75" y="-594.38" font-family="Helvetica,sans-Serif" font-size="10.00">Compress</text>
</a>
</g>
</g>
<!-- Node23&#45;&gt;Node24 -->
<g id="edge24_Node000023_Node000024" class="edge">
<title>Node23&#45;&gt;Node24</title>
<g id="a_edge24_Node000023_Node000024"><a xlink:title=" ">
<path fill="none" stroke="#63b8ff" d="M449.01,-582.56C475.32,-585.6 514.59,-590.14 544.14,-593.56"/>
<polygon fill="#63b8ff" stroke="#63b8ff" points="543.5,-597.01 553.84,-594.68 544.3,-590.05 543.5,-597.01"/>
</a>
</g>
</g>
<!-- Node25 -->
<g id="Node000025" class="node">
<title>Node25</title>
<g id="a_Node000025"><a xlink:href="transceiver_8h.html#a4144c213e5448a7e02d4172881f08219" target="_top" xlink:title=" ">
<polygon fill="white" stroke="#666666" points="657.5,-570.88 514,-570.88 514,-551.63 657.5,-551.63 657.5,-570.88"/>
<text text-anchor="middle" x="585.75" y="-557.38" font-family="Helvetica,sans-Serif" font-size="10.00">EncodeTheChangedChannels</text>
</a>
</g>
</g>
<!-- Node23&#45;&gt;Node25 -->
<g id="edge25_Node000023_Node000025" class="edge">
<title>Node23&#45;&gt;Node25</title>
<g id="a_edge25_Node000023_Node000025"><a xlink:title=" ">
<path fill="none" stroke="#63b8ff" d="M449.01,-576.12C464,-574.48 483.21,-572.37 502.42,-570.27"/>
<polygon fill="#63b8ff" stroke="#63b8ff" points="502.64,-573.77 512.2,-569.2 501.88,-566.81 502.64,-573.77"/>
</a>
</g>
</g>
<!-- Node26 -->
<g id="Node000026" class="node">
<title>Node26</title>
<g id="a_Node000026"><a xlink:href="transceiver_8h.html#a5fbd3c8613a4163425c94965704ce5f8" target="_top" xlink:title=" ">
<polygon fill="white" stroke="#666666" points="622.25,-383.88 549.25,-383.88 549.25,-364.63 622.25,-364.63 622.25,-383.88"/>
<text text-anchor="middle" x="585.75" y="-370.38" font-family="Helvetica,sans-Serif" font-size="10.00">FailedPacket</text>
</a>
</g>
</g>
<!-- Node23&#45;&gt;Node26 -->
<g id="edge26_Node000023_Node000026" class="edge">
<title>Node23&#45;&gt;Node26</title>
<g id="a_edge26_Node000023_Node000026"><a xlink:title=" ">
<path fill="none" stroke="#63b8ff" d="M428.3,-569.37C454.07,-537.23 535.74,-435.38 569.71,-393.02"/>
<polygon fill="#63b8ff" stroke="#63b8ff" points="572.43,-395.21 575.95,-385.22 566.97,-390.83 572.43,-395.21"/>
</a>
</g>
</g>
<!-- Node69 -->
<g id="Node000069" class="node">
<title>Node69</title>
<g id="a_Node000069"><a xlink:href="transceiver_8h.html#a07c27b4e208198453c70876517926052" target="_top" xlink:title=" ">
<polygon fill="white" stroke="#666666" points="616.62,-737.88 554.88,-737.88 554.88,-718.63 616.62,-718.63 616.62,-737.88"/>
<text text-anchor="middle" x="585.75" y="-724.38" font-family="Helvetica,sans-Serif" font-size="10.00">FlushFifos</text>
</a>
</g>
</g>
<!-- Node23&#45;&gt;Node69 -->
<g id="edge32_Node000023_Node000069" class="edge">
<title>Node23&#45;&gt;Node69</title>
<g id="a_edge32_Node000023_Node000069"><a xlink:title=" ">
<path fill="none" stroke="#63b8ff" d="M426.81,-589.37C440.64,-610.49 475.12,-659.93 514,-691.25 524.77,-699.93 537.89,-707.46 549.9,-713.43"/>
<polygon fill="#63b8ff" stroke="#63b8ff" points="548.17,-716.48 558.7,-717.6 551.17,-710.16 548.17,-716.48"/>
</a>
</g>
</g>
<!-- Node65 -->
<g id="Node000065" class="node">
<title>Node65</title>
<g id="a_Node000065"><a xlink:href="common_8h.html#a6e2d4126d864c50e7c23c988c2bfdd1a" target="_top" xlink:title=" ">
<polygon fill="white" stroke="#666666" points="919.38,-643.88 873.38,-643.88 873.38,-624.63 919.38,-624.63 919.38,-643.88"/>
<text text-anchor="middle" x="896.38" y="-630.38" font-family="Helvetica,sans-Serif" font-size="10.00">Radio1</text>
</a>
</g>
</g>
<!-- Node23&#45;&gt;Node65 -->
<g id="edge34_Node000023_Node000065" class="edge">
<title>Node23&#45;&gt;Node65</title>
<g id="a_edge34_Node000023_Node000065"><a xlink:title=" ">
<path fill="none" stroke="#63b8ff" d="M420.16,-569.32C419.6,-520.87 422.56,-306.07 514,-168.25 596.05,-44.59 710.82,59.06 822,-39.25 865.98,-78.14 889.43,-510.61 894.38,-612.73"/>
<polygon fill="#63b8ff" stroke="#63b8ff" points="890.88,-612.86 894.85,-622.69 897.87,-612.53 890.88,-612.86"/>
</a>
</g>
</g>
<!-- Node70 -->
<g id="Node000070" class="node">
<title>Node70</title>
<g id="a_Node000070"><a xlink:href="transceiver_8h.html#a5a043d48a3d1761777eb9e7c3faa8753" target="_top" xlink:title=" ">
<polygon fill="white" stroke="#666666" points="645.12,-494.88 526.38,-494.88 526.38,-475.63 645.12,-475.63 645.12,-494.88"/>
<text text-anchor="middle" x="585.75" y="-481.38" font-family="Helvetica,sans-Serif" font-size="10.00">SendExtraParamemters</text>
</a>
</g>
</g>
<!-- Node23&#45;&gt;Node70 -->
<g id="edge35_Node000023_Node000070" class="edge">
<title>Node23&#45;&gt;Node70</title>
<g id="a_edge35_Node000023_Node000070"><a xlink:title=" ">
<path fill="none" stroke="#63b8ff" d="M437.97,-569.19C466.64,-552.8 523.64,-520.2 557.56,-500.8"/>
<polygon fill="#63b8ff" stroke="#63b8ff" points="559.03,-503.99 565.97,-495.99 555.55,-497.92 559.03,-503.99"/>
</a>
</g>
</g>
<!-- Node73 -->
<g id="Node000073" class="node">
<title>Node73</title>
<g id="a_Node000073"><a xlink:href="BuddyWireless_8h.html#a41c327908c92572d0d3eebbb19160d86" target="_top" xlink:title=" ">
<polygon fill="white" stroke="#666666" points="636.5,-681.88 535,-681.88 535,-662.63 636.5,-662.63 636.5,-681.88"/>
<text text-anchor="middle" x="585.75" y="-668.38" font-family="Helvetica,sans-Serif" font-size="10.00">SendSpecialPacket</text>
</a>
</g>
</g>
<!-- Node23&#45;&gt;Node73 -->
<g id="edge39_Node000023_Node000073" class="edge">
<title>Node23&#45;&gt;Node73</title>
<g id="a_edge39_Node000023_Node000073"><a xlink:title=" ">
<path fill="none" stroke="#63b8ff" d="M429.77,-589.13C445.61,-605.21 479.33,-636.98 514,-654.25 517.23,-655.86 520.62,-657.34 524.1,-658.69"/>
<polygon fill="#63b8ff" stroke="#63b8ff" points="522.66,-661.89 533.25,-661.88 524.96,-655.28 522.66,-661.89"/>
</a>
</g>
</g>
<!-- Node78 -->
<g id="Node000078" class="node">
<title>Node78</title>
<g id="a_Node000078"><a xlink:href="BuddyPPM_8h.html#a784a1eca0361b3991bca899167cc1cdb" target="_top" xlink:title=" ">
<polygon fill="white" stroke="#666666" points="623,-644.88 548.5,-644.88 548.5,-625.63 623,-625.63 623,-644.88"/>
<text text-anchor="middle" x="585.75" y="-631.38" font-family="Helvetica,sans-Serif" font-size="10.00">SendViaPPM</text>
</a>
</g>
</g>
<!-- Node23&#45;&gt;Node78 -->
<g id="edge47_Node000023_Node000078" class="edge">
<title>Node23&#45;&gt;Node78</title>
<g id="a_edge47_Node000023_Node000078"><a xlink:title=" ">
<path fill="none" stroke="#63b8ff" d="M442.76,-589.34C461.53,-597.56 489.17,-609.1 514,-617.25 521.45,-619.7 529.43,-622.01 537.25,-624.12"/>
<polygon fill="#63b8ff" stroke="#63b8ff" points="536.1,-627.44 546.66,-626.56 537.86,-620.66 536.1,-627.44"/>
</a>
</g>
</g>
<!-- Node79 -->
<g id="Node000079" class="node">
<title>Node79</title>
<g id="a_Node000079"><a xlink:href="transceiver_8h.html#a1c11bb6771548de7d96723045b922620" target="_top" xlink:title=" ">
<polygon fill="white" stroke="#666666" points="633.5,-196.88 538,-196.88 538,-177.63 633.5,-177.63 633.5,-196.88"/>
<text text-anchor="middle" x="585.75" y="-183.38" font-family="Helvetica,sans-Serif" font-size="10.00">SuccessfulPacket</text>
</a>
</g>
</g>
<!-- Node23&#45;&gt;Node79 -->
<g id="edge48_Node000023_Node000079" class="edge">
<title>Node23&#45;&gt;Node79</title>
<g id="a_edge48_Node000023_Node000079"><a xlink:title=" ">
<path fill="none" stroke="#63b8ff" d="M424.47,-569.42C437.52,-538.13 479.27,-438.04 514,-355.25 536.36,-301.95 562.83,-239.18 576.16,-207.59"/>
<polygon fill="#63b8ff" stroke="#63b8ff" points="579.34,-209.06 580.01,-198.49 572.89,-206.34 579.34,-209.06"/>
</a>
</g>
</g>
<!-- Node27 -->
<g id="Node000027" class="node">
<title>Node27</title>
<g id="a_Node000027"><a xlink:href="transceiver_8h.html#afcf53d02052a623856b352f27547194c" target="_top" xlink:title=" ">
<polygon fill="white" stroke="#666666" points="805.12,-328.88 710.38,-328.88 710.38,-309.63 805.12,-309.63 805.12,-328.88"/>
<text text-anchor="middle" x="757.75" y="-315.38" font-family="Helvetica,sans-Serif" font-size="10.00">CheckDataRepeat</text>
</a>
</g>
</g>
<!-- Node26&#45;&gt;Node27 -->
<g id="edge27_Node000026_Node000027" class="edge">
<title>Node26&#45;&gt;Node27</title>
<g id="a_edge27_Node000026_Node000027"><a xlink:title=" ">
<path fill="none" stroke="#63b8ff" d="M614.26,-364.24C635.73,-356.54 666.38,-345.81 693.5,-337.25 698.54,-335.66 703.83,-334.06 709.11,-332.5"/>
<polygon fill="#63b8ff" stroke="#63b8ff" points="709.78,-335.95 718.4,-329.8 707.82,-329.23 709.78,-335.95"/>
</a>
</g>
</g>
<!-- Node28 -->
<g id="Node000028" class="node">
<title>Node28</title>
<g id="a_Node000028"><a xlink:href="transceiver_8h.html#a7154e4db2ead530e9d7c8061d09d37cb" target="_top" xlink:title=" ">
<polygon fill="#fff0f0" stroke="red" points="788.62,-439.88 726.88,-439.88 726.88,-420.63 788.62,-420.63 788.62,-439.88"/>
<text text-anchor="middle" x="757.75" y="-426.38" font-family="Helvetica,sans-Serif" font-size="10.00">CheckGap</text>
</a>
</g>
</g>
<!-- Node26&#45;&gt;Node28 -->
<g id="edge28_Node000026_Node000028" class="edge">
<title>Node26&#45;&gt;Node28</title>
<g id="a_edge28_Node000026_Node000028"><a xlink:title=" ">
<path fill="none" stroke="#63b8ff" d="M613.35,-384.26C634.85,-392.22 665.96,-403.44 693.5,-412.25 700.58,-414.52 708.14,-416.79 715.49,-418.93"/>
<polygon fill="#63b8ff" stroke="#63b8ff" points="714.36,-422.24 724.93,-421.63 716.28,-415.51 714.36,-422.24"/>
</a>
</g>
</g>
<!-- Node59 -->
<g id="Node000059" class="node">
<title>Node59</title>
<g id="a_Node000059"><a xlink:href="transceiver_8h.html#abf955fe3fa8f544096735e18385cd90d" target="_top" xlink:title=" ">
<polygon fill="white" stroke="#666666" points="816.75,-402.88 698.75,-402.88 698.75,-383.63 816.75,-383.63 816.75,-402.88"/>
<text text-anchor="middle" x="757.75" y="-389.38" font-family="Helvetica,sans-Serif" font-size="10.00">CheckInactivityTimeout</text>
</a>
</g>
</g>
<!-- Node26&#45;&gt;Node59 -->
<g id="edge29_Node000026_Node000059" class="edge">
<title>Node26&#45;&gt;Node59</title>
<g id="a_edge29_Node000026_Node000059"><a xlink:title=" ">
<path fill="none" stroke="#63b8ff" d="M622.39,-378.24C641.21,-380.34 664.98,-383 687.27,-385.49"/>
<polygon fill="#63b8ff" stroke="#63b8ff" points="686.58,-388.93 696.91,-386.56 687.36,-381.98 686.58,-388.93"/>
</a>
</g>
</g>
<!-- Node60 -->
<g id="Node000060" class="node">
<title>Node60</title>
<g id="a_Node000060"><a xlink:href="transceiver_8h.html#a18d9866d5425cd145044b1fddbfc00a0" target="_top" xlink:title=" ">
<polygon fill="#fff0f0" stroke="red" points="806.25,-365.88 709.25,-365.88 709.25,-346.63 806.25,-346.63 806.25,-365.88"/>
<text text-anchor="middle" x="757.75" y="-352.38" font-family="Helvetica,sans-Serif" font-size="10.00">CheckLostContact</text>
</a>
</g>
</g>
<!-- Node26&#45;&gt;Node60 -->
<g id="edge30_Node000026_Node000060" class="edge">
<title>Node26&#45;&gt;Node60</title>
<g id="a_edge30_Node000026_Node000060"><a xlink:title=" ">
<path fill="none" stroke="#63b8ff" d="M622.39,-370.48C644.17,-368.17 672.57,-365.17 697.65,-362.51"/>
<polygon fill="#63b8ff" stroke="#63b8ff" points="697.82,-366.01 707.4,-361.48 697.08,-359.05 697.82,-366.01"/>
</a>
</g>
</g>
<!-- Node68 -->
<g id="Node000068" class="node">
<title>Node68</title>
<g id="a_Node000068"><a xlink:href="transceiver_8h.html#afc091b5942e21a03f6dc8635d5e519ba" target="_top" xlink:title=" ">
<polygon fill="white" stroke="#666666" points="818.25,-291.88 697.25,-291.88 697.25,-272.63 818.25,-272.63 818.25,-291.88"/>
<text text-anchor="middle" x="757.75" y="-278.38" font-family="Helvetica,sans-Serif" font-size="10.00">RecordsPacketSuccess</text>
</a>
</g>
</g>
<!-- Node26&#45;&gt;Node68 -->
<g id="edge31_Node000026_Node000068" class="edge">
<title>Node26&#45;&gt;Node68</title>
<g id="a_edge31_Node000026_Node000068"><a xlink:title=" ">
<path fill="none" stroke="#63b8ff" d="M598.43,-364.19C617.25,-348.46 655.99,-317.99 693.5,-300.25 696.75,-298.72 700.16,-297.28 703.64,-295.96"/>
<polygon fill="#63b8ff" stroke="#63b8ff" points="704.47,-299.37 712.76,-292.77 702.17,-292.76 704.47,-299.37"/>
</a>
</g>
</g>
<!-- Node69&#45;&gt;Node65 -->
<g id="edge33_Node000069_Node000065" class="edge">
<title>Node69&#45;&gt;Node65</title>
<g id="a_edge33_Node000069_Node000065"><a xlink:title=" ">
<path fill="none" stroke="#63b8ff" d="M617.02,-728.02C663.11,-726.65 752.83,-719.99 822,-690.25 843.25,-681.12 863.87,-664.47 877.81,-651.7"/>
<polygon fill="#63b8ff" stroke="#63b8ff" points="880.01,-654.44 884.85,-645.02 875.19,-649.36 880.01,-654.44"/>
</a>
</g>
</g>
<!-- Node71 -->
<g id="Node000071" class="node">
<title>Node71</title>
<g id="a_Node000071"><a xlink:href="transceiver_8h.html#adac102739147db6397bbcbb371aec4fd" target="_top" xlink:title=" ">
<polygon fill="#fff0f0" stroke="red" points="801.75,-476.88 713.75,-476.88 713.75,-457.63 801.75,-457.63 801.75,-476.88"/>
<text text-anchor="middle" x="757.75" y="-463.38" font-family="Helvetica,sans-Serif" font-size="10.00">LoadParameters</text>
</a>
</g>
</g>
<!-- Node70&#45;&gt;Node71 -->
<g id="edge36_Node000070_Node000071" class="edge">
<title>Node70&#45;&gt;Node71</title>
<g id="a_edge36_Node000070_Node000071"><a xlink:title=" ">
<path fill="none" stroke="#63b8ff" d="M645.25,-479.06C663.7,-477.11 683.99,-474.96 702.15,-473.03"/>
<polygon fill="#63b8ff" stroke="#63b8ff" points="702.36,-476.53 711.94,-472 701.63,-469.57 702.36,-476.53"/>
</a>
</g>
</g>
<!-- Node63 -->
<g id="Node000063" class="node">
<title>Node63</title>
<g id="a_Node000063"><a xlink:href="ReceiverCode_2src_2main_8cpp.html#a6d87eba17154f7f4f2f3802ef8ee261f" target="_top" xlink:title=" ">
<polygon fill="white" stroke="#666666" points="776.62,-550.88 738.88,-550.88 738.88,-531.63 776.62,-531.63 776.62,-550.88"/>
<text text-anchor="middle" x="757.75" y="-537.38" font-family="Helvetica,sans-Serif" font-size="10.00">Look</text>
</a>
</g>
</g>
<!-- Node70&#45;&gt;Node63 -->
<g id="edge37_Node000070_Node000063" class="edge">
<title>Node70&#45;&gt;Node63</title>
<g id="a_edge37_Node000070_Node000063"><a xlink:title=" ">
<path fill="none" stroke="#63b8ff" d="M617.5,-495.36C629.96,-499.54 644.46,-504.51 657.5,-509.25 673.63,-515.12 677.23,-517.79 693.5,-523.25 704.55,-526.96 716.84,-530.58 727.63,-533.58"/>
<polygon fill="#63b8ff" stroke="#63b8ff" points="726.59,-536.92 737.16,-536.18 728.43,-530.17 726.59,-536.92"/>
</a>
</g>
</g>
<!-- Node64 -->
<g id="Node000064" class="node">
<title>Node64</title>
<g id="a_Node000064"><a xlink:href="ReceiverCode_2src_2main_8cpp.html#aea423a497d09a142f394356bc8438c41" target="_top" xlink:title=" ">
<polygon fill="white" stroke="#666666" points="779.25,-513.88 736.25,-513.88 736.25,-494.63 779.25,-494.63 779.25,-513.88"/>
<text text-anchor="middle" x="757.75" y="-500.38" font-family="Helvetica,sans-Serif" font-size="10.00">Look1</text>
</a>
</g>
</g>
<!-- Node70&#45;&gt;Node64 -->
<g id="edge38_Node000070_Node000064" class="edge">
<title>Node70&#45;&gt;Node64</title>
<g id="a_edge38_Node000070_Node000064"><a xlink:title=" ">
<path fill="none" stroke="#63b8ff" d="M645.25,-491.79C671.96,-494.78 702.54,-498.19 724.91,-500.69"/>
<polygon fill="#63b8ff" stroke="#63b8ff" points="724.28,-504.15 734.6,-501.78 725.05,-497.19 724.28,-504.15"/>
</a>
</g>
</g>
<!-- Node73&#45;&gt;Node65 -->
<g id="edge46_Node000073_Node000065" class="edge">
<title>Node73&#45;&gt;Node65</title>
<g id="a_edge46_Node000073_Node000065"><a xlink:title=" ">
<path fill="none" stroke="#63b8ff" d="M636.65,-678.59C684.82,-683.19 759.45,-686.27 822,-671.25 839.36,-667.09 857.27,-658.15 871.06,-650.11"/>
<polygon fill="#63b8ff" stroke="#63b8ff" points="872.7,-653.21 879.42,-645.01 869.06,-647.23 872.7,-653.21"/>
</a>
</g>
</g>
<!-- Node74 -->
<g id="Node000074" class="node">
<title>Node74</title>
<g id="a_Node000074"><a xlink:href="BuddyWireless_8h.html#ace84aff90c63bee9a876eda720fbf8bc" target="_top" xlink:title=" ">
<polygon fill="white" stroke="#666666" points="802.5,-624.88 713,-624.88 713,-605.63 802.5,-605.63 802.5,-624.88"/>
<text text-anchor="middle" x="757.75" y="-611.38" font-family="Helvetica,sans-Serif" font-size="10.00">ChangeTXTarget</text>
</a>
</g>
</g>
<!-- Node73&#45;&gt;Node74 -->
<g id="edge40_Node000073_Node000074" class="edge">
<title>Node73&#45;&gt;Node74</title>
<g id="a_edge40_Node000073_Node000074"><a xlink:title=" ">
<path fill="none" stroke="#63b8ff" d="M634.15,-662.15C642.07,-659.9 650.11,-657.28 657.5,-654.25 674.64,-647.23 676.46,-640.51 693.5,-633.25 697.24,-631.66 701.16,-630.16 705.14,-628.76"/>
<polygon fill="#63b8ff" stroke="#63b8ff" points="705.88,-632.2 714.3,-625.77 703.71,-625.55 705.88,-632.2"/>
</a>
</g>
</g>
<!-- Node75 -->
<g id="Node000075" class="node">
<title>Node75</title>
<g id="a_Node000075"><a xlink:href="BuddyWireless_8h.html#af59c2527be7a67d6b09dd467f3123d55" target="_top" xlink:title=" ">
<polygon fill="#fff0f0" stroke="red" points="793.12,-661.88 722.38,-661.88 722.38,-642.63 793.12,-642.63 793.12,-661.88"/>
<text text-anchor="middle" x="757.75" y="-648.38" font-family="Helvetica,sans-Serif" font-size="10.00">GetPupilAck</text>
</a>
</g>
</g>
<!-- Node73&#45;&gt;Node75 -->
<g id="edge42_Node000073_Node000075" class="edge">
<title>Node73&#45;&gt;Node75</title>
<g id="a_edge42_Node000073_Node000075"><a xlink:title=" ">
<path fill="none" stroke="#63b8ff" d="M636.84,-666.36C660.3,-663.6 688.05,-660.34 710.95,-657.64"/>
<polygon fill="#63b8ff" stroke="#63b8ff" points="711.07,-661.15 720.59,-656.51 710.25,-654.2 711.07,-661.15"/>
</a>
</g>
</g>
<!-- Node77 -->
<g id="Node000077" class="node">
<title>Node77</title>
<g id="a_Node000077"><a xlink:href="BuddyWireless_8h.html#a89fc05df708fec875356b62d21b2ce7b" target="_top" xlink:title=" ">
<polygon fill="#fff0f0" stroke="red" points="796.12,-587.88 719.38,-587.88 719.38,-568.63 796.12,-568.63 796.12,-587.88"/>
<text text-anchor="middle" x="757.75" y="-574.38" font-family="Helvetica,sans-Serif" font-size="10.00">PupilDetected</text>
</a>
</g>
</g>
<!-- Node73&#45;&gt;Node77 -->
<g id="edge44_Node000073_Node000077" class="edge">
<title>Node73&#45;&gt;Node77</title>
<g id="a_edge44_Node000073_Node000077"><a xlink:title=" ">
<path fill="none" stroke="#63b8ff" d="M636.87,-664.66C644.22,-662.12 651.37,-658.75 657.5,-654.25 681.98,-636.32 669.28,-614.52 693.5,-596.25 698.05,-592.82 703.24,-590.04 708.64,-587.79"/>
<polygon fill="#63b8ff" stroke="#63b8ff" points="709.47,-591.21 717.74,-584.58 707.15,-584.6 709.47,-591.21"/>
</a>
</g>
</g>
<!-- Node74&#45;&gt;Node65 -->
<g id="edge41_Node000074_Node000065" class="edge">
<title>Node74&#45;&gt;Node65</title>
<g id="a_edge41_Node000074_Node000065"><a xlink:title=" ">
<path fill="none" stroke="#63b8ff" d="M802.73,-621.37C821.84,-624.03 843.86,-627.09 861.64,-629.56"/>
<polygon fill="#63b8ff" stroke="#63b8ff" points="861.03,-633.01 871.42,-630.92 861.99,-626.08 861.03,-633.01"/>
</a>
</g>
</g>
<!-- Node75&#45;&gt;Node65 -->
<g id="edge43_Node000075_Node000065" class="edge">
<title>Node75&#45;&gt;Node65</title>
<g id="a_edge43_Node000075_Node000065"><a xlink:title=" ">
<path fill="none" stroke="#63b8ff" d="M793.58,-647.66C814.56,-644.9 841.14,-641.4 861.88,-638.67"/>
<polygon fill="#63b8ff" stroke="#63b8ff" points="862.07,-642.17 871.53,-637.39 861.15,-635.23 862.07,-642.17"/>
</a>
</g>
</g>
<!-- Node77&#45;&gt;Node3 -->
<g id="edge45_Node000077_Node000003" class="edge">
<title>Node77&#45;&gt;Node3</title>
<g id="a_edge45_Node000077_Node000003"><a xlink:title=" ">
<path fill="none" stroke="#63b8ff" d="M718.91,-568.73C710.45,-566.26 701.59,-563.39 693.5,-560.25 676.82,-553.78 674.91,-546.36 657.5,-542.25 528.9,-511.9 467.71,-482.68 360.75,-560.25 227.99,-656.54 322.74,-780.06 206,-895.25 205.5,-895.74 204.99,-896.22 204.47,-896.68"/>
<polygon fill="#63b8ff" stroke="#63b8ff" points="202.51,-893.78 196.28,-902.35 206.49,-899.54 202.51,-893.78"/>
</a>
</g>
</g>
<!-- Node79&#45;&gt;Node68 -->
<g id="edge54_Node000079_Node000068" class="edge">
<title>Node79&#45;&gt;Node68</title>
<g id="a_edge54_Node000079_Node000068"><a xlink:title=" ">
<path fill="none" stroke="#63b8ff" d="M599.64,-197.22C619.14,-211.97 657.67,-239.84 693.5,-258.25 700.45,-261.82 708.06,-265.16 715.51,-268.14"/>
<polygon fill="#63b8ff" stroke="#63b8ff" points="714.23,-271.4 724.82,-271.7 716.73,-264.86 714.23,-271.4"/>
</a>
</g>
</g>
<!-- Node79&#45;&gt;Node65 -->
<g id="edge53_Node000079_Node000065" class="edge">
<title>Node79&#45;&gt;Node65</title>
<g id="a_edge53_Node000079_Node000065"><a xlink:title=" ">
<path fill="none" stroke="#63b8ff" d="M613.81,-197.35C635.31,-205.25 666.19,-216.36 693.5,-225.25 750.13,-243.69 781.87,-219.24 822,-263.25 869.58,-315.44 889.01,-541.87 894,-612.88"/>
<polygon fill="#63b8ff" stroke="#63b8ff" points="890.5,-613 894.66,-622.74 897.48,-612.52 890.5,-613"/>
</a>
</g>
</g>
<!-- Node80 -->
<g id="Node000080" class="node">
<title>Node80</title>
<g id="a_Node000080"><a xlink:href="transceiver_8h.html#a953f1d5046e183549ed95b08f6d675e3" target="_top" xlink:title=" ">
<polygon fill="#fff0f0" stroke="red" points="806.25,-104.88 709.25,-104.88 709.25,-85.63 806.25,-85.63 806.25,-104.88"/>
<text text-anchor="middle" x="757.75" y="-91.38" font-family="Helvetica,sans-Serif" font-size="10.00">CheckGapsLength</text>
</a>
</g>
</g>
<!-- Node79&#45;&gt;Node80 -->
<g id="edge49_Node000079_Node000080" class="edge">
<title>Node79&#45;&gt;Node80</title>
<g id="a_edge49_Node000079_Node000080"><a xlink:title=" ">
<path fill="none" stroke="#63b8ff" d="M598.43,-177.19C617.25,-161.46 655.99,-130.99 693.5,-113.25 696.75,-111.72 700.16,-110.28 703.64,-108.96"/>
<polygon fill="#63b8ff" stroke="#63b8ff" points="704.47,-112.37 712.76,-105.77 702.17,-105.76 704.47,-112.37"/>
</a>
</g>
</g>
<!-- Node82 -->
<g id="Node000082" class="node">
<title>Node82</title>
<g id="a_Node000082"><a xlink:href="TransmitterCode_2src_2main_8cpp.html#a62e53eb9359c32b666e3386d62c57037" target="_top" xlink:title=" ">
<polygon fill="#fff0f0" stroke="red" points="793.5,-67.88 722,-67.88 722,-48.63 793.5,-48.63 793.5,-67.88"/>
<text text-anchor="middle" x="757.75" y="-54.38" font-family="Helvetica,sans-Serif" font-size="10.00">GreenLedOn</text>
</a>
</g>
</g>
<!-- Node79&#45;&gt;Node82 -->
<g id="edge50_Node000079_Node000082" class="edge">
<title>Node79&#45;&gt;Node82</title>
<g id="a_edge50_Node000079_Node000082"><a xlink:title=" ">
<path fill="none" stroke="#63b8ff" d="M593.49,-177.27C608.69,-155.53 647.89,-103.66 693.5,-76.25 698.82,-73.06 704.74,-70.4 710.75,-68.21"/>
<polygon fill="#63b8ff" stroke="#63b8ff" points="711.68,-71.59 720.14,-65.2 709.55,-64.92 711.68,-71.59"/>
</a>
</g>
</g>
<!-- Node101 -->
<g id="Node000101" class="node">
<title>Node101</title>
<g id="a_Node000101"><a xlink:href="transceiver_8h.html#a694f4f5a0147f4dc29b0bc1a8951547d" target="_top" xlink:title=" ">
<polygon fill="#fff0f0" stroke="red" points="804.38,-215.88 711.12,-215.88 711.12,-196.63 804.38,-196.63 804.38,-215.88"/>
<text text-anchor="middle" x="757.75" y="-202.38" font-family="Helvetica,sans-Serif" font-size="10.00">ParseAckPayload</text>
</a>
</g>
</g>
<!-- Node79&#45;&gt;Node101 -->
<g id="edge51_Node000079_Node000101" class="edge">
<title>Node79&#45;&gt;Node101</title>
<g id="a_edge51_Node000079_Node000101"><a xlink:title=" ">
<path fill="none" stroke="#63b8ff" d="M633.65,-192.49C654.06,-194.78 678.17,-197.47 699.61,-199.87"/>
<polygon fill="#63b8ff" stroke="#63b8ff" points="699.05,-203.33 709.38,-200.96 699.83,-196.37 699.05,-203.33"/>
</a>
</g>
</g>
<!-- Node259 -->
<g id="Node000259" class="node">
<title>Node259</title>
<g id="a_Node000259"><a xlink:href="transceiver_8h.html#a04937e814dba3f5e07cb34bb13130ff3" target="_top" xlink:title=" ">
<polygon fill="#fff0f0" stroke="red" points="816,-178.88 699.5,-178.88 699.5,-159.63 816,-159.63 816,-178.88"/>
<text text-anchor="middle" x="757.75" y="-165.38" font-family="Helvetica,sans-Serif" font-size="10.00">ParseShortAckPayload</text>
</a>
</g>
</g>
<!-- Node79&#45;&gt;Node259 -->
<g id="edge52_Node000079_Node000259" class="edge">
<title>Node79&#45;&gt;Node259</title>
<g id="a_edge52_Node000079_Node000259"><a xlink:title=" ">
<path fill="none" stroke="#63b8ff" d="M633.65,-182.29C650.34,-180.52 669.5,-178.49 687.65,-176.57"/>
<polygon fill="#63b8ff" stroke="#63b8ff" points="688.01,-180.05 697.59,-175.52 687.28,-173.09 688.01,-180.05"/>
</a>
</g>
</g>
<!-- Node98 -->
<g id="Node000098" class="node">
<title>Node98</title>
<g id="a_Node000098"><a xlink:href="Utilities_8h.html#a793b7bcd77531c95fe72ed4356d421c8" target="_top" xlink:title=" ">
<polygon fill="white" stroke="#666666" points="812.25,-141.88 703.25,-141.88 703.25,-122.63 812.25,-122.63 812.25,-141.88"/>
<text text-anchor="middle" x="757.75" y="-128.38" font-family="Helvetica,sans-Serif" font-size="10.00">StartInactvityTimeout</text>
</a>
</g>
</g>
<!-- Node79&#45;&gt;Node98 -->
<g id="edge55_Node000079_Node000098" class="edge">
<title>Node79&#45;&gt;Node98</title>
<g id="a_edge55_Node000079_Node000098"><a xlink:title=" ">
<path fill="none" stroke="#63b8ff" d="M614.26,-177.24C635.73,-169.54 666.38,-158.81 693.5,-150.25 698.54,-148.66 703.83,-147.06 709.11,-145.5"/>
<polygon fill="#63b8ff" stroke="#63b8ff" points="709.78,-148.95 718.4,-142.8 707.82,-142.23 709.78,-148.95"/>
</a>
</g>
</g>
</g>
</svg>
