<?xml version="1.0" encoding="UTF-8" standalone="no"?>
<!DOCTYPE svg PUBLIC "-//W3C//DTD SVG 1.1//EN"
 "http://www.w3.org/Graphics/SVG/1.1/DTD/svg11.dtd">
<!-- Generated by graphviz version 7.0.5 (20221223.1930)
 -->
<!-- Title: MoveBall Pages: 1 -->
<svg width="1259pt" height="1158pt"
 viewBox="0.00 0.00 1259.00 1157.72" xmlns="http://www.w3.org/2000/svg" xmlns:xlink="http://www.w3.org/1999/xlink">
<g id="graph0" class="graph" transform="scale(1 1) rotate(0) translate(4 1153.72)">
<title>MoveBall</title>
<!-- Node1 -->
<g id="node1" class="node">
<title>Node1</title>
<g id="a_node1"><a xlink:title=" ">
<polygon fill="#999999" stroke="#666666" points="57,-172.72 0,-172.72 0,-153.72 57,-153.72 57,-172.72"/>
<text text-anchor="middle" x="28.5" y="-160.72" font-family="Helvetica,sans-Serif" font-size="10.00">MoveBall</text>
</a>
</g>
</g>
<!-- Node2 -->
<g id="node2" class="node">
<title>Node2</title>
<g id="a_node2"><a xlink:href="Utilities_8h.html#ad0feb21fbea69455d1d206f142b563ac" target="_top" xlink:title=" ">
<polygon fill="white" stroke="#666666" points="147,-172.72 93,-172.72 93,-153.72 147,-153.72 147,-172.72"/>
<text text-anchor="middle" x="120" y="-160.72" font-family="Helvetica,sans-Serif" font-size="10.00">DrawDot</text>
</a>
</g>
</g>
<!-- Node1&#45;&gt;Node2 -->
<g id="edge1" class="edge">
<title>Node1&#45;&gt;Node2</title>
<path fill="none" stroke="#63b8ff" d="M57.33,-163.22C64.91,-163.22 73.26,-163.22 81.29,-163.22"/>
<polygon fill="#63b8ff" stroke="#63b8ff" points="81.2,-166.72 91.2,-163.22 81.2,-159.72 81.2,-166.72"/>
</g>
<!-- Node3 -->
<g id="node3" class="node">
<title>Node3</title>
<g id="a_node3"><a xlink:href="Nextion_8h.html#aecac2f0c289f02ef3c92b85be82eacac" target="_top" xlink:title=" ">
<polygon fill="white" stroke="#666666" points="266,-342.72 183,-342.72 183,-323.72 266,-323.72 266,-342.72"/>
<text text-anchor="middle" x="224.5" y="-330.72" font-family="Helvetica,sans-Serif" font-size="10.00">SendCommand</text>
</a>
</g>
</g>
<!-- Node2&#45;&gt;Node3 -->
<g id="edge2" class="edge">
<title>Node2&#45;&gt;Node3</title>
<path fill="none" stroke="#63b8ff" d="M126.8,-172.85C143.15,-199.96 189.79,-277.31 211.77,-313.77"/>
<polygon fill="#63b8ff" stroke="#63b8ff" points="208.56,-315.23 216.72,-321.98 214.56,-311.61 208.56,-315.23"/>
</g>
<!-- Node31 -->
<g id="node16" class="node">
<title>Node31</title>
<g id="a_node16"><a xlink:href="Utilities_8h.html#a590a9174319918d7e3d7baca323fcf26" target="_top" xlink:title=" ">
<polygon fill="white" stroke="#666666" points="1224,-397.72 1195,-397.72 1195,-378.72 1224,-378.72 1224,-397.72"/>
<text text-anchor="middle" x="1209.5" y="-385.72" font-family="Helvetica,sans-Serif" font-size="10.00">Str</text>
</a>
</g>
</g>
<!-- Node2&#45;&gt;Node31 -->
<g id="edge74" class="edge">
<title>Node2&#45;&gt;Node31</title>
<path fill="none" stroke="#63b8ff" d="M140.47,-153.29C172.99,-137.2 240.81,-105.8 302,-91.22 501.24,-43.77 556.19,-50.22 761,-50.22 761,-50.22 761,-50.22 923.5,-50.22 1090.39,-50.22 1179.37,-294.03 1202.4,-367.51"/>
<polygon fill="#63b8ff" stroke="#63b8ff" points="1199.04,-368.48 1205.3,-377.03 1205.74,-366.44 1199.04,-368.48"/>
</g>
<!-- Node4 -->
<g id="node4" class="node">
<title>Node4</title>
<g id="a_node4"><a xlink:href="Utilities_8h.html#a3b1d8aa403e2724e55c71da3d9d13e7e" target="_top" xlink:title=" ">
<polygon fill="white" stroke="#666666" points="379,-494.72 302,-494.72 302,-475.72 379,-475.72 379,-494.72"/>
<text text-anchor="middle" x="340.5" y="-482.72" font-family="Helvetica,sans-Serif" font-size="10.00">DelayWithDog</text>
</a>
</g>
</g>
<!-- Node3&#45;&gt;Node4 -->
<g id="edge3" class="edge">
<title>Node3&#45;&gt;Node4</title>
<path fill="none" stroke="#63b8ff" d="M229.42,-342.9C239.01,-365.69 265.59,-423.68 302,-461.22 304.64,-463.94 307.64,-466.5 310.77,-468.86"/>
<polygon fill="#63b8ff" stroke="#63b8ff" points="308.8,-471.76 319.05,-474.45 312.72,-465.95 308.8,-471.76"/>
</g>
<!-- Node41 -->
<g id="node18" class="node">
<title>Node41</title>
<g id="a_node18"><a xlink:href="Nextion_8h.html#a43937dd3d9c795271fd9c3eb3c6b6410" target="_top" xlink:title=" ">
<polygon fill="white" stroke="#666666" points="1251,-153.72 1168,-153.72 1168,-134.72 1251,-134.72 1251,-153.72"/>
<text text-anchor="middle" x="1209.5" y="-141.72" font-family="Helvetica,sans-Serif" font-size="10.00">GetReturnCode</text>
</a>
</g>
</g>
<!-- Node3&#45;&gt;Node41 -->
<g id="edge72" class="edge">
<title>Node3&#45;&gt;Node41</title>
<path fill="none" stroke="#63b8ff" d="M225.27,-323.24C225.02,-286.07 229.46,-154.53 302,-91.22 457.96,44.88 554,-12.22 761,-12.22 761,-12.22 761,-12.22 923.5,-12.22 1016.78,-12.22 1051.73,11.3 1132,-36.22 1166.14,-56.44 1189.02,-98.51 1200.31,-123.76"/>
<polygon fill="#63b8ff" stroke="#63b8ff" points="1197.08,-125.11 1204.21,-132.95 1203.52,-122.38 1197.08,-125.11"/>
</g>
<!-- Node119 -->
<g id="node50" class="node">
<title>Node119</title>
<g id="a_node50"><a xlink:href="TransmitterCode_2src_2main_8cpp.html#a5f109790a6fe0b972a502f3cac4ed1e7" target="_top" xlink:title=" ">
<polygon fill="white" stroke="#666666" points="364.5,-531.72 316.5,-531.72 316.5,-512.72 364.5,-512.72 364.5,-531.72"/>
<text text-anchor="middle" x="340.5" y="-519.72" font-family="Helvetica,sans-Serif" font-size="10.00">InStrng</text>
</a>
</g>
</g>
<!-- Node3&#45;&gt;Node119 -->
<g id="edge73" class="edge">
<title>Node3&#45;&gt;Node119</title>
<path fill="none" stroke="#63b8ff" d="M227.48,-342.96C233.65,-371.16 255.06,-454.07 302,-503.22 303.35,-504.64 304.83,-505.97 306.4,-507.21"/>
<polygon fill="#63b8ff" stroke="#63b8ff" points="304.45,-510.12 314.75,-512.59 308.24,-504.23 304.45,-510.12"/>
</g>
<!-- Node5 -->
<g id="node5" class="node">
<title>Node5</title>
<g id="a_node5"><a xlink:href="Utilities_8h.html#ada95a00a341e4a80176eda743a94ab2e" target="_top" xlink:title=" ">
<polygon fill="white" stroke="#666666" points="485,-494.72 415,-494.72 415,-475.72 485,-475.72 485,-494.72"/>
<text text-anchor="middle" x="450" y="-482.72" font-family="Helvetica,sans-Serif" font-size="10.00">KickTheDog</text>
</a>
</g>
</g>
<!-- Node4&#45;&gt;Node5 -->
<g id="edge4" class="edge">
<title>Node4&#45;&gt;Node5</title>
<path fill="none" stroke="#63b8ff" d="M379.4,-485.22C387.12,-485.22 395.31,-485.22 403.27,-485.22"/>
<polygon fill="#63b8ff" stroke="#63b8ff" points="403.16,-488.72 413.16,-485.22 403.16,-481.72 403.16,-488.72"/>
</g>
<!-- Node6 -->
<g id="node6" class="node">
<title>Node6</title>
<g id="a_node6"><a xlink:href="transceiver_8h.html#a049bfb836e7aa4a3a48a1a4bd225fafc" target="_top" xlink:title=" ">
<polygon fill="white" stroke="#666666" points="479.5,-847.72 420.5,-847.72 420.5,-828.72 479.5,-828.72 479.5,-847.72"/>
<text text-anchor="middle" x="450" y="-835.72" font-family="Helvetica,sans-Serif" font-size="10.00">SendData</text>
</a>
</g>
</g>
<!-- Node4&#45;&gt;Node6 -->
<g id="edge5" class="edge">
<title>Node4&#45;&gt;Node6</title>
<path fill="none" stroke="#63b8ff" d="M369.83,-495.19C373.31,-497.39 376.51,-500.04 379,-503.22 417.99,-552.99 440.53,-751.52 447.02,-817.09"/>
<polygon fill="#63b8ff" stroke="#63b8ff" points="443.52,-817.22 447.96,-826.84 450.49,-816.55 443.52,-817.22"/>
</g>
<!-- Node7 -->
<g id="node7" class="node">
<title>Node7</title>
<g id="a_node7"><a xlink:href="transceiver_8h.html#a1ddd5e8d5bd649dd98ce3710fbff651b" target="_top" xlink:title=" ">
<polygon fill="white" stroke="#666666" points="623.5,-773.72 562.5,-773.72 562.5,-754.72 623.5,-754.72 623.5,-773.72"/>
<text text-anchor="middle" x="593" y="-761.72" font-family="Helvetica,sans-Serif" font-size="10.00">Compress</text>
</a>
</g>
</g>
<!-- Node6&#45;&gt;Node7 -->
<g id="edge6" class="edge">
<title>Node6&#45;&gt;Node7</title>
<path fill="none" stroke="#63b8ff" d="M460.54,-828.61C473.25,-816.34 496.95,-795.25 521,-783.22 530.29,-778.58 540.84,-774.97 550.92,-772.2"/>
<polygon fill="#63b8ff" stroke="#63b8ff" points="551.69,-775.62 560.54,-769.8 549.99,-768.83 551.69,-775.62"/>
</g>
<!-- Node8 -->
<g id="node8" class="node">
<title>Node8</title>
<g id="a_node8"><a xlink:href="transceiver_8h.html#a4144c213e5448a7e02d4172881f08219" target="_top" xlink:title=" ">
<polygon fill="white" stroke="#666666" points="665,-736.72 521,-736.72 521,-717.72 665,-717.72 665,-736.72"/>
<text text-anchor="middle" x="593" y="-724.72" font-family="Helvetica,sans-Serif" font-size="10.00">EncodeTheChangedChannels</text>
</a>
</g>
</g>
<!-- Node6&#45;&gt;Node8 -->
<g id="edge7" class="edge">
<title>Node6&#45;&gt;Node8</title>
<path fill="none" stroke="#63b8ff" d="M455.64,-828.47C465.14,-809.57 488.67,-767.92 521,-746.22 523.41,-744.61 525.95,-743.13 528.59,-741.77"/>
<polygon fill="#63b8ff" stroke="#63b8ff" points="529.97,-744.99 537.71,-737.76 527.15,-738.58 529.97,-744.99"/>
</g>
<!-- Node9 -->
<g id="node9" class="node">
<title>Node9</title>
<g id="a_node9"><a xlink:href="transceiver_8h.html#a5fbd3c8613a4163425c94965704ce5f8" target="_top" xlink:title=" ">
<polygon fill="white" stroke="#666666" points="630,-942.72 556,-942.72 556,-923.72 630,-923.72 630,-942.72"/>
<text text-anchor="middle" x="593" y="-930.72" font-family="Helvetica,sans-Serif" font-size="10.00">FailedPacket</text>
</a>
</g>
</g>
<!-- Node6&#45;&gt;Node9 -->
<g id="edge8" class="edge">
<title>Node6&#45;&gt;Node9</title>
<path fill="none" stroke="#63b8ff" d="M463.64,-848.18C477.46,-858.93 500.39,-876.38 521,-890.22 535.2,-899.77 551.5,-909.71 564.9,-917.63"/>
<polygon fill="#63b8ff" stroke="#63b8ff" points="562.79,-920.45 573.19,-922.48 566.33,-914.41 562.79,-920.45"/>
</g>
<!-- Node47 -->
<g id="node24" class="node">
<title>Node47</title>
<g id="a_node24"><a xlink:href="common_8h.html#a6e2d4126d864c50e7c23c988c2bfdd1a" target="_top" xlink:title=" ">
<polygon fill="white" stroke="#666666" points="1100.5,-980.72 1053.5,-980.72 1053.5,-961.72 1100.5,-961.72 1100.5,-980.72"/>
<text text-anchor="middle" x="1077" y="-968.72" font-family="Helvetica,sans-Serif" font-size="10.00">Radio1</text>
</a>
</g>
</g>
<!-- Node6&#45;&gt;Node47 -->
<g id="edge30" class="edge">
<title>Node6&#45;&gt;Node47</title>
<path fill="none" stroke="#63b8ff" d="M451.74,-848.13C454.54,-877.45 467.22,-963.96 521,-999.22 607.03,-1055.63 934.86,-998.63 1041.94,-978.02"/>
<polygon fill="#63b8ff" stroke="#63b8ff" points="1042.4,-981.5 1051.55,-976.16 1041.06,-974.63 1042.4,-981.5"/>
</g>
<!-- Node50 -->
<g id="node26" class="node">
<title>Node50</title>
<g id="a_node26"><a xlink:href="transceiver_8h.html#a07c27b4e208198453c70876517926052" target="_top" xlink:title=" ">
<polygon fill="white" stroke="#666666" points="624,-989.72 562,-989.72 562,-970.72 624,-970.72 624,-989.72"/>
<text text-anchor="middle" x="593" y="-977.72" font-family="Helvetica,sans-Serif" font-size="10.00">FlushFifos</text>
</a>
</g>
</g>
<!-- Node6&#45;&gt;Node50 -->
<g id="edge28" class="edge">
<title>Node6&#45;&gt;Node50</title>
<path fill="none" stroke="#63b8ff" d="M454.47,-847.92C462.7,-869.59 485.41,-922.38 521,-952.22 529.67,-959.49 540.44,-965.03 550.97,-969.17"/>
<polygon fill="#63b8ff" stroke="#63b8ff" points="549.72,-972.44 560.31,-972.5 552.06,-965.85 549.72,-972.44"/>
</g>
<!-- Node51 -->
<g id="node27" class="node">
<title>Node51</title>
<g id="a_node27"><a xlink:href="transceiver_8h.html#a65249d0ac8676541d13ced58b1ce7624" target="_top" xlink:title=" ">
<polygon fill="white" stroke="#666666" points="652.5,-418.72 533.5,-418.72 533.5,-399.72 652.5,-399.72 652.5,-418.72"/>
<text text-anchor="middle" x="593" y="-406.72" font-family="Helvetica,sans-Serif" font-size="10.00">SendExtraParamemters</text>
</a>
</g>
</g>
<!-- Node6&#45;&gt;Node51 -->
<g id="edge31" class="edge">
<title>Node6&#45;&gt;Node51</title>
<path fill="none" stroke="#63b8ff" d="M454.21,-828.46C472.15,-773.88 560.07,-506.36 585.25,-429.76"/>
<polygon fill="#63b8ff" stroke="#63b8ff" points="588.46,-431.19 588.26,-420.6 581.81,-429.01 588.46,-431.19"/>
</g>
<!-- Node55 -->
<g id="node31" class="node">
<title>Node55</title>
<g id="a_node31"><a xlink:href="BuddyWireless_8h.html#a41c327908c92572d0d3eebbb19160d86" target="_top" xlink:title=" ">
<polygon fill="white" stroke="#666666" points="813,-885.72 711,-885.72 711,-866.72 813,-866.72 813,-885.72"/>
<text text-anchor="middle" x="762" y="-873.72" font-family="Helvetica,sans-Serif" font-size="10.00">SendSpecialPacket</text>
</a>
</g>
</g>
<!-- Node6&#45;&gt;Node55 -->
<g id="edge36" class="edge">
<title>Node6&#45;&gt;Node55</title>
<path fill="none" stroke="#63b8ff" d="M479.68,-847.3C492.24,-850.94 507.23,-854.83 521,-857.22 581.04,-867.66 650.55,-872.37 699.26,-874.49"/>
<polygon fill="#63b8ff" stroke="#63b8ff" points="698.91,-877.98 709.04,-874.89 699.2,-870.99 698.91,-877.98"/>
</g>
<!-- Node59 -->
<g id="node35" class="node">
<title>Node59</title>
<g id="a_node35"><a xlink:href="BuddyPPM_8h.html#a784a1eca0361b3991bca899167cc1cdb" target="_top" xlink:title=" ">
<polygon fill="white" stroke="#666666" points="630.5,-810.72 555.5,-810.72 555.5,-791.72 630.5,-791.72 630.5,-810.72"/>
<text text-anchor="middle" x="593" y="-798.72" font-family="Helvetica,sans-Serif" font-size="10.00">SendViaPPM</text>
</a>
</g>
</g>
<!-- Node6&#45;&gt;Node59 -->
<g id="edge44" class="edge">
<title>Node6&#45;&gt;Node59</title>
<path fill="none" stroke="#63b8ff" d="M479.87,-830.65C498.4,-825.79 522.9,-819.36 544.27,-813.75"/>
<polygon fill="#63b8ff" stroke="#63b8ff" points="544.86,-817.21 553.65,-811.29 543.09,-810.44 544.86,-817.21"/>
</g>
<!-- Node60 -->
<g id="node36" class="node">
<title>Node60</title>
<g id="a_node36"><a xlink:href="transceiver_8h.html#a990aa54242f1573e74316dec4a612eef" target="_top" xlink:title=" ">
<polygon fill="white" stroke="#666666" points="968.5,-1149.72 876.5,-1149.72 876.5,-1130.72 968.5,-1130.72 968.5,-1149.72"/>
<text text-anchor="middle" x="922.5" y="-1137.72" font-family="Helvetica,sans-Serif" font-size="10.00">ShowPacketData</text>
</a>
</g>
</g>
<!-- Node6&#45;&gt;Node60 -->
<g id="edge45" class="edge">
<title>Node6&#45;&gt;Node60</title>
<path fill="none" stroke="#63b8ff" d="M451.24,-848.07C452.59,-880.95 461.56,-987.93 521,-1042.22 617.27,-1130.14 779.27,-1142.57 864.75,-1142.42"/>
<polygon fill="#63b8ff" stroke="#63b8ff" points="864.55,-1145.92 874.52,-1142.33 864.49,-1138.92 864.55,-1145.92"/>
</g>
<!-- Node61 -->
<g id="node37" class="node">
<title>Node61</title>
<g id="a_node37"><a xlink:href="transceiver_8h.html#a1c11bb6771548de7d96723045b922620" target="_top" xlink:title=" ">
<polygon fill="white" stroke="#666666" points="641,-847.72 545,-847.72 545,-828.72 641,-828.72 641,-847.72"/>
<text text-anchor="middle" x="593" y="-835.72" font-family="Helvetica,sans-Serif" font-size="10.00">SuccessfulPacket</text>
</a>
</g>
</g>
<!-- Node6&#45;&gt;Node61 -->
<g id="edge48" class="edge">
<title>Node6&#45;&gt;Node61</title>
<path fill="none" stroke="#63b8ff" d="M479.87,-838.22C495.29,-838.22 514.83,-838.22 533.28,-838.22"/>
<polygon fill="#63b8ff" stroke="#63b8ff" points="533.06,-841.72 543.06,-838.22 533.06,-834.72 533.06,-841.72"/>
</g>
<!-- Node10 -->
<g id="node10" class="node">
<title>Node10</title>
<g id="a_node10"><a xlink:href="transceiver_8h.html#afc091b5942e21a03f6dc8635d5e519ba" target="_top" xlink:title=" ">
<polygon fill="white" stroke="#666666" points="823,-961.72 701,-961.72 701,-942.72 823,-942.72 823,-961.72"/>
<text text-anchor="middle" x="762" y="-949.72" font-family="Helvetica,sans-Serif" font-size="10.00">RecordsPacketSuccess</text>
</a>
</g>
</g>
<!-- Node9&#45;&gt;Node10 -->
<g id="edge9" class="edge">
<title>Node9&#45;&gt;Node10</title>
<path fill="none" stroke="#63b8ff" d="M630.24,-937.35C647.56,-939.32 668.93,-941.75 689.33,-944.07"/>
<polygon fill="#63b8ff" stroke="#63b8ff" points="688.7,-947.52 699.03,-945.17 689.49,-940.57 688.7,-947.52"/>
</g>
<!-- Node11 -->
<g id="node11" class="node">
<title>Node11</title>
<g id="a_node11"><a xlink:href="TransmitterCode_2src_2main_8cpp.html#a7d34cec6e8edc20c8b50424e15dcc7c7" target="_top" xlink:title=" ">
<polygon fill="white" stroke="#666666" points="793.5,-342.72 730.5,-342.72 730.5,-323.72 793.5,-323.72 793.5,-342.72"/>
<text text-anchor="middle" x="762" y="-330.72" font-family="Helvetica,sans-Serif" font-size="10.00">RedLedOn</text>
</a>
</g>
</g>
<!-- Node9&#45;&gt;Node11 -->
<g id="edge10" class="edge">
<title>Node9&#45;&gt;Node11</title>
<path fill="none" stroke="#63b8ff" d="M607.4,-923.37C624.03,-910.3 651.82,-885.55 665,-857.22 721.64,-735.46 675.56,-689.08 701,-557.22 715.66,-481.25 742.13,-393.09 754.41,-353.87"/>
<polygon fill="#63b8ff" stroke="#63b8ff" points="757.73,-354.97 757.41,-344.38 751.06,-352.86 757.73,-354.97"/>
</g>
<!-- Node43 -->
<g id="node20" class="node">
<title>Node43</title>
<g id="a_node20"><a xlink:href="transceiver_8h.html#ad0236abcfc887ad708d9504c4ab2a7c3" target="_top" xlink:title=" ">
<polygon fill="white" stroke="#666666" points="806,-1075.72 718,-1075.72 718,-1056.72 806,-1056.72 806,-1075.72"/>
<text text-anchor="middle" x="762" y="-1063.72" font-family="Helvetica,sans-Serif" font-size="10.00">TryToReconnect</text>
</a>
</g>
</g>
<!-- Node9&#45;&gt;Node43 -->
<g id="edge22" class="edge">
<title>Node9&#45;&gt;Node43</title>
<path fill="none" stroke="#63b8ff" d="M626.62,-943.14C639.24,-947.82 653.4,-954.18 665,-962.22 699.47,-986.14 730.66,-1024.41 747.62,-1047.26"/>
<polygon fill="#63b8ff" stroke="#63b8ff" points="744.58,-1049.03 753.28,-1055.06 750.24,-1044.91 744.58,-1049.03"/>
</g>
<!-- Node11&#45;&gt;Node3 -->
<g id="edge17" class="edge">
<title>Node11&#45;&gt;Node3</title>
<path fill="none" stroke="#63b8ff" d="M730.06,-333.22C641.76,-333.22 387.91,-333.22 277.65,-333.22"/>
<polygon fill="#63b8ff" stroke="#63b8ff" points="277.7,-329.72 267.7,-333.22 277.7,-336.72 277.7,-329.72"/>
</g>
<!-- Node12 -->
<g id="node12" class="node">
<title>Node12</title>
<g id="a_node12"><a xlink:href="TransmitterCode_2src_2main_8cpp.html#afeaea883a32e6ebe461d419fab1b9f59" target="_top" xlink:title=" ">
<polygon fill="white" stroke="#666666" points="978,-361.72 867,-361.72 867,-342.72 978,-342.72 978,-361.72"/>
<text text-anchor="middle" x="922.5" y="-349.72" font-family="Helvetica,sans-Serif" font-size="10.00">ClearMostParameters</text>
</a>
</g>
</g>
<!-- Node11&#45;&gt;Node12 -->
<g id="edge11" class="edge">
<title>Node11&#45;&gt;Node12</title>
<path fill="none" stroke="#63b8ff" d="M793.94,-336.93C811.42,-339.03 833.99,-341.73 855.26,-344.28"/>
<polygon fill="#63b8ff" stroke="#63b8ff" points="854.73,-347.75 865.07,-345.46 855.56,-340.79 854.73,-347.75"/>
</g>
<!-- Node13 -->
<g id="node13" class="node">
<title>Node13</title>
<g id="a_node13"><a xlink:href="Utilities_8h.html#a549a702bb9b539c6b3a4f20cce65adcc" target="_top" xlink:title=" ">
<polygon fill="#fff0f0" stroke="red" points="971.5,-435.72 873.5,-435.72 873.5,-416.72 971.5,-416.72 971.5,-435.72"/>
<text text-anchor="middle" x="922.5" y="-423.72" font-family="Helvetica,sans-Serif" font-size="10.00">GetLEDBrightness</text>
</a>
</g>
</g>
<!-- Node11&#45;&gt;Node13 -->
<g id="edge12" class="edge">
<title>Node11&#45;&gt;Node13</title>
<path fill="none" stroke="#63b8ff" d="M793.76,-341.74C803.74,-345.45 814.43,-350.52 823,-357.22 844.57,-374.09 836.73,-391.29 859,-407.22 861.18,-408.78 863.49,-410.22 865.89,-411.53"/>
<polygon fill="#63b8ff" stroke="#63b8ff" points="864.21,-414.61 874.75,-415.68 867.17,-408.27 864.21,-414.61"/>
</g>
<!-- Node23 -->
<g id="node14" class="node">
<title>Node23</title>
<g id="a_node14"><a xlink:href="TransmitterCode_2src_2main_8cpp.html#a2d5ec5fd5ed62d5b7b071fabe2225405" target="_top" xlink:title=" ">
<polygon fill="#fff0f0" stroke="red" points="970.5,-398.72 874.5,-398.72 874.5,-379.72 970.5,-379.72 970.5,-398.72"/>
<text text-anchor="middle" x="922.5" y="-386.72" font-family="Helvetica,sans-Serif" font-size="10.00">LogDisConnection</text>
</a>
</g>
</g>
<!-- Node11&#45;&gt;Node23 -->
<g id="edge13" class="edge">
<title>Node11&#45;&gt;Node23</title>
<path fill="none" stroke="#63b8ff" d="M787.28,-343.15C806.58,-350.9 834.34,-361.74 859,-370.22 864.7,-372.19 870.72,-374.15 876.69,-376.03"/>
<polygon fill="#63b8ff" stroke="#63b8ff" points="875.26,-379.26 885.85,-378.87 877.33,-372.57 875.26,-379.26"/>
</g>
<!-- Node39 -->
<g id="node15" class="node">
<title>Node39</title>
<g id="a_node15"><a xlink:href="Utilities_8h.html#aa490b4664b0a4498d53b30b82287d5df" target="_top" xlink:title=" ">
<polygon fill="white" stroke="#666666" points="1108.5,-397.72 1045.5,-397.72 1045.5,-378.72 1108.5,-378.72 1108.5,-397.72"/>
<text text-anchor="middle" x="1077" y="-385.72" font-family="Helvetica,sans-Serif" font-size="10.00">PlaySound</text>
</a>
</g>
</g>
<!-- Node11&#45;&gt;Node39 -->
<g id="edge14" class="edge">
<title>Node11&#45;&gt;Node39</title>
<path fill="none" stroke="#63b8ff" d="M793.65,-328.08C837.3,-321.89 919.48,-314.51 986,-333.22 1012.33,-340.63 1038.56,-358.11 1055.86,-371.4"/>
<polygon fill="#63b8ff" stroke="#63b8ff" points="1053.3,-373.83 1063.31,-377.31 1057.65,-368.35 1053.3,-373.83"/>
</g>
<!-- Node40 -->
<g id="node17" class="node">
<title>Node40</title>
<g id="a_node17"><a xlink:href="Nextion_8h.html#afe513398f72d5e48f691830a1ef6eb42" target="_top" xlink:title=" ">
<polygon fill="white" stroke="#666666" points="1106,-285.72 1048,-285.72 1048,-266.72 1106,-266.72 1106,-285.72"/>
<text text-anchor="middle" x="1077" y="-273.72" font-family="Helvetica,sans-Serif" font-size="10.00">SendText</text>
</a>
</g>
</g>
<!-- Node11&#45;&gt;Node40 -->
<g id="edge18" class="edge">
<title>Node11&#45;&gt;Node40</title>
<path fill="none" stroke="#63b8ff" d="M793.87,-327.6C851.07,-317.19 973.46,-294.9 1036.57,-283.41"/>
<polygon fill="#63b8ff" stroke="#63b8ff" points="1036.93,-286.9 1046.14,-281.66 1035.68,-280.01 1036.93,-286.9"/>
</g>
<!-- Node42 -->
<g id="node19" class="node">
<title>Node42</title>
<g id="a_node19"><a xlink:href="TransmitterCode_2src_2main_8cpp.html#a083c423be6ce1635de5961d0fc72ff06" target="_top" xlink:title=" ">
<polygon fill="white" stroke="#666666" points="972,-247.72 873,-247.72 873,-228.72 972,-228.72 972,-247.72"/>
<text text-anchor="middle" x="922.5" y="-235.72" font-family="Helvetica,sans-Serif" font-size="10.00">SetUKFrequencies</text>
</a>
</g>
</g>
<!-- Node11&#45;&gt;Node42 -->
<g id="edge21" class="edge">
<title>Node11&#45;&gt;Node42</title>
<path fill="none" stroke="#63b8ff" d="M774.14,-323.4C791.36,-308.6 825.92,-280.37 859,-262.22 865.56,-258.62 872.78,-255.32 879.91,-252.38"/>
<polygon fill="#63b8ff" stroke="#63b8ff" points="881.11,-255.67 889.15,-248.77 878.56,-249.15 881.11,-255.67"/>
</g>
<!-- Node39&#45;&gt;Node3 -->
<g id="edge15" class="edge">
<title>Node39&#45;&gt;Node3</title>
<path fill="none" stroke="#63b8ff" d="M1069,-378.28C1057.59,-361.63 1034.96,-326.74 1022,-294.22 996.78,-230.94 1037.69,-189.6 986,-145.22 910.52,-80.43 862.47,-126.22 763,-126.22 449,-126.22 449,-126.22 449,-126.22 339.84,-126.22 261.42,-260.77 235.13,-312.92"/>
<polygon fill="#63b8ff" stroke="#63b8ff" points="231.99,-311.36 230.73,-321.88 238.28,-314.44 231.99,-311.36"/>
</g>
<!-- Node39&#45;&gt;Node31 -->
<g id="edge16" class="edge">
<title>Node39&#45;&gt;Node31</title>
<path fill="none" stroke="#63b8ff" d="M1108.93,-388.22C1131.61,-388.22 1162.03,-388.22 1183.25,-388.22"/>
<polygon fill="#63b8ff" stroke="#63b8ff" points="1183.04,-391.72 1193.04,-388.22 1183.04,-384.72 1183.04,-391.72"/>
</g>
<!-- Node40&#45;&gt;Node3 -->
<g id="edge20" class="edge">
<title>Node40&#45;&gt;Node3</title>
<path fill="none" stroke="#63b8ff" d="M1074.15,-266.4C1067.94,-236.46 1044.82,-146.03 986,-107.22 902.97,-52.44 862.47,-88.22 763,-88.22 449,-88.22 449,-88.22 449,-88.22 379.09,-88.22 351.94,-95.3 302,-144.22 253.61,-191.63 234.82,-273.77 228.41,-312.23"/>
<polygon fill="#63b8ff" stroke="#63b8ff" points="224.97,-311.57 226.92,-321.99 231.89,-312.63 224.97,-311.57"/>
</g>
<!-- Node40&#45;&gt;Node41 -->
<g id="edge19" class="edge">
<title>Node40&#45;&gt;Node41</title>
<path fill="none" stroke="#63b8ff" d="M1087.81,-266.3C1109.74,-244.12 1162.99,-190.26 1190.85,-162.08"/>
<polygon fill="#63b8ff" stroke="#63b8ff" points="1193.33,-164.55 1197.87,-154.98 1188.35,-159.63 1193.33,-164.55"/>
</g>
<!-- Node44 -->
<g id="node21" class="node">
<title>Node44</title>
<g id="a_node21"><a xlink:href="transceiver_8h.html#a52aa3e80bccf5e75346c93fdae63122d" target="_top" xlink:title=" ">
<polygon fill="white" stroke="#666666" points="973,-1075.72 872,-1075.72 872,-1056.72 973,-1056.72 973,-1075.72"/>
<text text-anchor="middle" x="922.5" y="-1063.72" font-family="Helvetica,sans-Serif" font-size="10.00">HopToNextChannel</text>
</a>
</g>
</g>
<!-- Node43&#45;&gt;Node44 -->
<g id="edge23" class="edge">
<title>Node43&#45;&gt;Node44</title>
<path fill="none" stroke="#63b8ff" d="M806.31,-1066.22C822.93,-1066.22 842.23,-1066.22 860.22,-1066.22"/>
<polygon fill="#63b8ff" stroke="#63b8ff" points="860,-1069.72 870,-1066.22 860,-1062.72 860,-1069.72"/>
</g>
<!-- Node48 -->
<g id="node25" class="node">
<title>Node48</title>
<g id="a_node25"><a xlink:href="transceiver_8h.html#ad0e30213b21808d00110752679788a8c" target="_top" xlink:title=" ">
<polygon fill="#fff0f0" stroke="red" points="959.5,-1112.72 885.5,-1112.72 885.5,-1093.72 959.5,-1093.72 959.5,-1112.72"/>
<text text-anchor="middle" x="922.5" y="-1100.72" font-family="Helvetica,sans-Serif" font-size="10.00">TryOtherPipe</text>
</a>
</g>
</g>
<!-- Node43&#45;&gt;Node48 -->
<g id="edge27" class="edge">
<title>Node43&#45;&gt;Node48</title>
<path fill="none" stroke="#63b8ff" d="M805.48,-1076.14C826.64,-1081.08 852.29,-1087.07 874.09,-1092.16"/>
<polygon fill="#63b8ff" stroke="#63b8ff" points="873.09,-1095.52 883.62,-1094.38 874.68,-1088.7 873.09,-1095.52"/>
</g>
<!-- Node45 -->
<g id="node22" class="node">
<title>Node45</title>
<g id="a_node22"><a xlink:href="ReceiverCode_2src_2main_8cpp.html#a6d87eba17154f7f4f2f3802ef8ee261f" target="_top" xlink:title=" ">
<polygon fill="white" stroke="#666666" points="1096,-1084.72 1058,-1084.72 1058,-1065.72 1096,-1065.72 1096,-1084.72"/>
<text text-anchor="middle" x="1077" y="-1072.72" font-family="Helvetica,sans-Serif" font-size="10.00">Look</text>
</a>
</g>
</g>
<!-- Node44&#45;&gt;Node45 -->
<g id="edge24" class="edge">
<title>Node44&#45;&gt;Node45</title>
<path fill="none" stroke="#63b8ff" d="M973.43,-1069.17C997.54,-1070.59 1025.65,-1072.25 1046.34,-1073.47"/>
<polygon fill="#63b8ff" stroke="#63b8ff" points="1045.88,-1076.95 1056.07,-1074.05 1046.29,-1069.96 1045.88,-1076.95"/>
</g>
<!-- Node46 -->
<g id="node23" class="node">
<title>Node46</title>
<g id="a_node23"><a xlink:href="ReceiverCode_2src_2main_8cpp.html#aea423a497d09a142f394356bc8438c41" target="_top" xlink:title=" ">
<polygon fill="white" stroke="#666666" points="1099,-1139.72 1055,-1139.72 1055,-1120.72 1099,-1120.72 1099,-1139.72"/>
<text text-anchor="middle" x="1077" y="-1127.72" font-family="Helvetica,sans-Serif" font-size="10.00">Look1</text>
</a>
</g>
</g>
<!-- Node44&#45;&gt;Node46 -->
<g id="edge25" class="edge">
<title>Node44&#45;&gt;Node46</title>
<path fill="none" stroke="#63b8ff" d="M959.88,-1076.15C968.54,-1078.83 977.68,-1081.91 986,-1085.22 1007.5,-1093.8 1030.85,-1105.55 1048.38,-1114.9"/>
<polygon fill="#63b8ff" stroke="#63b8ff" points="1046.68,-1117.96 1057.15,-1119.63 1050.01,-1111.8 1046.68,-1117.96"/>
</g>
<!-- Node44&#45;&gt;Node47 -->
<g id="edge26" class="edge">
<title>Node44&#45;&gt;Node47</title>
<path fill="none" stroke="#63b8ff" d="M954.86,-1056.28C965.09,-1052.5 976.3,-1047.74 986,-1042.22 1012.81,-1026.97 1040.14,-1004.16 1057.54,-988.54"/>
<polygon fill="#63b8ff" stroke="#63b8ff" points="1059.54,-991.45 1064.56,-982.12 1054.82,-986.29 1059.54,-991.45"/>
</g>
<!-- Node50&#45;&gt;Node47 -->
<g id="edge29" class="edge">
<title>Node50&#45;&gt;Node47</title>
<path fill="none" stroke="#63b8ff" d="M624.15,-979.66C709.37,-978.07 951.65,-973.55 1041.72,-971.86"/>
<polygon fill="#63b8ff" stroke="#63b8ff" points="1041.7,-975.37 1051.64,-971.68 1041.57,-968.37 1041.7,-975.37"/>
</g>
<!-- Node52 -->
<g id="node28" class="node">
<title>Node52</title>
<g id="a_node28"><a xlink:href="transceiver_8h.html#adac102739147db6397bbcbb371aec4fd" target="_top" xlink:title=" ">
<polygon fill="white" stroke="#666666" points="806.5,-229.72 717.5,-229.72 717.5,-210.72 806.5,-210.72 806.5,-229.72"/>
<text text-anchor="middle" x="762" y="-217.72" font-family="Helvetica,sans-Serif" font-size="10.00">LoadParameters</text>
</a>
</g>
</g>
<!-- Node51&#45;&gt;Node52 -->
<g id="edge32" class="edge">
<title>Node51&#45;&gt;Node52</title>
<path fill="none" stroke="#63b8ff" d="M602.74,-399.33C629.46,-369.09 710.3,-277.6 744.95,-238.39"/>
<polygon fill="#63b8ff" stroke="#63b8ff" points="747.34,-240.97 751.34,-231.16 742.1,-236.33 747.34,-240.97"/>
</g>
<!-- Node52&#45;&gt;Node42 -->
<g id="edge35" class="edge">
<title>Node52&#45;&gt;Node42</title>
<path fill="none" stroke="#63b8ff" d="M806.73,-225.19C823.57,-227.1 843.11,-229.32 861.24,-231.38"/>
<polygon fill="#63b8ff" stroke="#63b8ff" points="860.78,-234.85 871.11,-232.5 861.57,-227.9 860.78,-234.85"/>
</g>
<!-- Node53 -->
<g id="node29" class="node">
<title>Node53</title>
<g id="a_node29"><a xlink:href="TransmitterCode_2src_2main_8cpp.html#a5aa4888b924a4f1d95e9cedc3004f2b6" target="_top" xlink:title=" ">
<polygon fill="white" stroke="#666666" points="964,-173.72 881,-173.72 881,-154.72 964,-154.72 964,-173.72"/>
<text text-anchor="middle" x="922.5" y="-161.72" font-family="Helvetica,sans-Serif" font-size="10.00">MakeTwobytes</text>
</a>
</g>
</g>
<!-- Node52&#45;&gt;Node53 -->
<g id="edge33" class="edge">
<title>Node52&#45;&gt;Node53</title>
<path fill="none" stroke="#63b8ff" d="M786.05,-210.38C805.35,-202.3 833.72,-190.85 859,-182.22 863.76,-180.6 868.75,-179 873.75,-177.46"/>
<polygon fill="#63b8ff" stroke="#63b8ff" points="874.61,-180.86 883.18,-174.64 872.6,-174.15 874.61,-180.86"/>
</g>
<!-- Node54 -->
<g id="node30" class="node">
<title>Node54</title>
<g id="a_node30"><a xlink:href="TransmitterCode_2src_2main_8cpp.html#a60a8ba3819508aedbe1d59640b0a79b0" target="_top" xlink:title=" ">
<polygon fill="white" stroke="#666666" points="974.5,-210.72 870.5,-210.72 870.5,-191.72 974.5,-191.72 974.5,-210.72"/>
<text text-anchor="middle" x="922.5" y="-198.72" font-family="Helvetica,sans-Serif" font-size="10.00">SetTestFrequencies</text>
</a>
</g>
</g>
<!-- Node52&#45;&gt;Node54 -->
<g id="edge34" class="edge">
<title>Node52&#45;&gt;Node54</title>
<path fill="none" stroke="#63b8ff" d="M806.73,-214.98C822.82,-213.05 841.36,-210.83 858.79,-208.74"/>
<polygon fill="#63b8ff" stroke="#63b8ff" points="859.03,-212.24 868.55,-207.57 858.2,-205.29 859.03,-212.24"/>
</g>
<!-- Node55&#45;&gt;Node47 -->
<g id="edge43" class="edge">
<title>Node55&#45;&gt;Node47</title>
<path fill="none" stroke="#63b8ff" d="M802.36,-886.15C847.14,-897.67 922.31,-917.73 986,-938.22 1004.97,-944.33 1025.89,-951.95 1042.78,-958.32"/>
<polygon fill="#63b8ff" stroke="#63b8ff" points="1041.24,-961.48 1051.83,-961.77 1043.73,-954.94 1041.24,-961.48"/>
</g>
<!-- Node56 -->
<g id="node32" class="node">
<title>Node56</title>
<g id="a_node32"><a xlink:href="BuddyWireless_8h.html#af59c2527be7a67d6b09dd467f3123d55" target="_top" xlink:title=" ">
<polygon fill="white" stroke="#666666" points="958,-885.72 887,-885.72 887,-866.72 958,-866.72 958,-885.72"/>
<text text-anchor="middle" x="922.5" y="-873.72" font-family="Helvetica,sans-Serif" font-size="10.00">GetPupilAck</text>
</a>
</g>
</g>
<!-- Node55&#45;&gt;Node56 -->
<g id="edge37" class="edge">
<title>Node55&#45;&gt;Node56</title>
<path fill="none" stroke="#63b8ff" d="M813.15,-876.22C833.07,-876.22 855.84,-876.22 875.35,-876.22"/>
<polygon fill="#63b8ff" stroke="#63b8ff" points="875.2,-879.72 885.2,-876.22 875.2,-872.72 875.2,-879.72"/>
</g>
<!-- Node58 -->
<g id="node34" class="node">
<title>Node58</title>
<g id="a_node34"><a xlink:href="BuddyWireless_8h.html#a89fc05df708fec875356b62d21b2ce7b" target="_top" xlink:title=" ">
<polygon fill="white" stroke="#666666" points="961,-472.72 884,-472.72 884,-453.72 961,-453.72 961,-472.72"/>
<text text-anchor="middle" x="922.5" y="-460.72" font-family="Helvetica,sans-Serif" font-size="10.00">PupilDetected</text>
</a>
</g>
</g>
<!-- Node55&#45;&gt;Node58 -->
<g id="edge40" class="edge">
<title>Node55&#45;&gt;Node58</title>
<path fill="none" stroke="#63b8ff" d="M812.36,-866.24C816.39,-863.84 820.05,-860.88 823,-857.22 875.77,-791.95 805.38,-545.8 859,-481.22 862.78,-476.67 867.63,-473.23 872.96,-470.63"/>
<polygon fill="#63b8ff" stroke="#63b8ff" points="874.09,-473.95 882.21,-467.14 871.62,-467.4 874.09,-473.95"/>
</g>
<!-- Node56&#45;&gt;Node47 -->
<g id="edge39" class="edge">
<title>Node56&#45;&gt;Node47</title>
<path fill="none" stroke="#63b8ff" d="M954.86,-886.16C965.09,-889.95 976.3,-894.71 986,-900.22 1012.81,-915.48 1040.14,-938.29 1057.54,-953.91"/>
<polygon fill="#63b8ff" stroke="#63b8ff" points="1054.82,-956.16 1064.56,-960.33 1059.54,-951 1054.82,-956.16"/>
</g>
<!-- Node57 -->
<g id="node33" class="node">
<title>Node57</title>
<g id="a_node33"><a xlink:href="transceiver_8h.html#a6feccc8c0583de3235616d42076f1371" target="_top" xlink:title=" ">
<polygon fill="white" stroke="#666666" points="1112.5,-885.72 1041.5,-885.72 1041.5,-866.72 1112.5,-866.72 1112.5,-885.72"/>
<text text-anchor="middle" x="1077" y="-873.72" font-family="Helvetica,sans-Serif" font-size="10.00">Decompress</text>
</a>
</g>
</g>
<!-- Node56&#45;&gt;Node57 -->
<g id="edge38" class="edge">
<title>Node56&#45;&gt;Node57</title>
<path fill="none" stroke="#63b8ff" d="M958.49,-876.22C979.7,-876.22 1007.01,-876.22 1029.97,-876.22"/>
<polygon fill="#63b8ff" stroke="#63b8ff" points="1029.66,-879.72 1039.66,-876.22 1029.66,-872.72 1029.66,-879.72"/>
</g>
<!-- Node58&#45;&gt;Node3 -->
<g id="edge41" class="edge">
<title>Node58&#45;&gt;Node3</title>
<path fill="none" stroke="#63b8ff" d="M888.74,-453.27C879.15,-450.36 868.66,-447.17 859,-444.22 742.14,-408.61 716.16,-371.22 594,-371.22 449,-371.22 449,-371.22 449,-371.22 387.45,-371.22 317.69,-357.04 272.73,-346.01"/>
<polygon fill="#63b8ff" stroke="#63b8ff" points="273.59,-342.62 263.04,-343.58 271.88,-349.41 273.59,-342.62"/>
</g>
<!-- Node58&#45;&gt;Node40 -->
<g id="edge42" class="edge">
<title>Node58&#45;&gt;Node40</title>
<path fill="none" stroke="#63b8ff" d="M961.42,-457.11C970.21,-454.31 979.03,-450.21 986,-444.22 1014.06,-420.15 1004.7,-401.9 1022,-369.22 1035.65,-343.43 1052.77,-314.46 1064.02,-295.81"/>
<polygon fill="#63b8ff" stroke="#63b8ff" points="1066.92,-297.78 1069.12,-287.42 1060.94,-294.15 1066.92,-297.78"/>
</g>
<!-- Node60&#45;&gt;Node45 -->
<g id="edge46" class="edge">
<title>Node60&#45;&gt;Node45</title>
<path fill="none" stroke="#63b8ff" d="M962.58,-1130.28C970.44,-1127.92 978.56,-1125.2 986,-1122.22 1008.3,-1113.3 1032.36,-1100.56 1049.98,-1090.59"/>
<polygon fill="#63b8ff" stroke="#63b8ff" points="1051.32,-1093.87 1058.25,-1085.85 1047.83,-1087.79 1051.32,-1093.87"/>
</g>
<!-- Node60&#45;&gt;Node46 -->
<g id="edge47" class="edge">
<title>Node60&#45;&gt;Node46</title>
<path fill="none" stroke="#63b8ff" d="M968.84,-1137.25C992.84,-1135.68 1021.76,-1133.78 1043.51,-1132.36"/>
<polygon fill="#63b8ff" stroke="#63b8ff" points="1043.51,-1135.86 1053.26,-1131.72 1043.06,-1128.88 1043.51,-1135.86"/>
</g>
<!-- Node61&#45;&gt;Node10 -->
<g id="edge70" class="edge">
<title>Node61&#45;&gt;Node10</title>
<path fill="none" stroke="#63b8ff" d="M603.5,-848.08C621.24,-866.02 661.23,-904.39 701,-928.22 707.06,-931.86 713.78,-935.16 720.45,-938.07"/>
<polygon fill="#63b8ff" stroke="#63b8ff" points="718.83,-941.18 729.41,-941.73 721.48,-934.71 718.83,-941.18"/>
</g>
<!-- Node61&#45;&gt;Node47 -->
<g id="edge69" class="edge">
<title>Node61&#45;&gt;Node47</title>
<path fill="none" stroke="#63b8ff" d="M609.36,-848.02C629.63,-860.57 666.76,-882.23 701,-895.22 821.69,-941.03 975.24,-961.09 1042.21,-968.09"/>
<polygon fill="#63b8ff" stroke="#63b8ff" points="1041.51,-971.54 1051.81,-969.06 1042.21,-964.58 1041.51,-971.54"/>
</g>
<!-- Node62 -->
<g id="node38" class="node">
<title>Node62</title>
<g id="a_node38"><a xlink:href="transceiver_8h.html#a953f1d5046e183549ed95b08f6d675e3" target="_top" xlink:title=" ">
<polygon fill="white" stroke="#666666" points="811,-773.72 713,-773.72 713,-754.72 811,-754.72 811,-773.72"/>
<text text-anchor="middle" x="762" y="-761.72" font-family="Helvetica,sans-Serif" font-size="10.00">CheckGapsLength</text>
</a>
</g>
</g>
<!-- Node61&#45;&gt;Node62 -->
<g id="edge49" class="edge">
<title>Node61&#45;&gt;Node62</title>
<path fill="none" stroke="#63b8ff" d="M641.19,-828.24C649.26,-825.97 657.47,-823.31 665,-820.22 691.07,-809.56 718.62,-792.85 737.49,-780.46"/>
<polygon fill="#63b8ff" stroke="#63b8ff" points="739.39,-783.4 745.76,-774.92 735.5,-777.58 739.39,-783.4"/>
</g>
<!-- Node64 -->
<g id="node40" class="node">
<title>Node64</title>
<g id="a_node40"><a xlink:href="TransmitterCode_2src_2main_8cpp.html#a62e53eb9359c32b666e3386d62c57037" target="_top" xlink:title=" ">
<polygon fill="white" stroke="#666666" points="798,-585.72 726,-585.72 726,-566.72 798,-566.72 798,-585.72"/>
<text text-anchor="middle" x="762" y="-573.72" font-family="Helvetica,sans-Serif" font-size="10.00">GreenLedOn</text>
</a>
</g>
</g>
<!-- Node61&#45;&gt;Node64 -->
<g id="edge52" class="edge">
<title>Node61&#45;&gt;Node64</title>
<path fill="none" stroke="#63b8ff" d="M641.31,-833.76C650.11,-830.99 658.55,-826.72 665,-820.22 712.1,-772.81 675.25,-735.9 701,-674.22 713.25,-644.89 733.5,-614.1 747.04,-595.04"/>
<polygon fill="#63b8ff" stroke="#63b8ff" points="749.69,-597.35 752.72,-587.2 744.02,-593.24 749.69,-597.35"/>
</g>
<!-- Node75 -->
<g id="node44" class="node">
<title>Node75</title>
<g id="a_node44"><a xlink:href="Utilities_8h.html#a793b7bcd77531c95fe72ed4356d421c8" target="_top" xlink:title=" ">
<polygon fill="white" stroke="#666666" points="1132,-556.72 1022,-556.72 1022,-537.72 1132,-537.72 1132,-556.72"/>
<text text-anchor="middle" x="1077" y="-544.72" font-family="Helvetica,sans-Serif" font-size="10.00">StartInactvityTimeout</text>
</a>
</g>
</g>
<!-- Node61&#45;&gt;Node75 -->
<g id="edge71" class="edge">
<title>Node61&#45;&gt;Node75</title>
<path fill="none" stroke="#63b8ff" d="M641.41,-832.31C649.9,-829.62 658.19,-825.76 665,-820.22 693.37,-797.14 672.9,-769.64 701,-746.22 757,-699.55 788.61,-721.17 859,-702.22 915.31,-687.07 938.63,-703.24 986,-669.22 1009.73,-652.18 1004.81,-637.85 1022,-614.22 1034.31,-597.31 1049.3,-578.86 1060.37,-565.61"/>
<polygon fill="#63b8ff" stroke="#63b8ff" points="1062.9,-568.04 1066.66,-558.13 1057.54,-563.53 1062.9,-568.04"/>
</g>
<!-- Node77 -->
<g id="node46" class="node">
<title>Node77</title>
<g id="a_node46"><a xlink:href="transceiver_8h.html#a694f4f5a0147f4dc29b0bc1a8951547d" target="_top" xlink:title=" ">
<polygon fill="#fff0f0" stroke="red" points="809,-847.72 715,-847.72 715,-828.72 809,-828.72 809,-847.72"/>
<text text-anchor="middle" x="762" y="-835.72" font-family="Helvetica,sans-Serif" font-size="10.00">ParseAckPayload</text>
</a>
</g>
</g>
<!-- Node61&#45;&gt;Node77 -->
<g id="edge63" class="edge">
<title>Node61&#45;&gt;Node77</title>
<path fill="none" stroke="#63b8ff" d="M641.41,-838.22C660.68,-838.22 683.14,-838.22 703.35,-838.22"/>
<polygon fill="#63b8ff" stroke="#63b8ff" points="703.11,-841.72 713.11,-838.22 703.11,-834.72 703.11,-841.72"/>
</g>
<!-- Node63 -->
<g id="node39" class="node">
<title>Node63</title>
<g id="a_node39"><a xlink:href="TransmitterCode_2src_2main_8cpp.html#a1fadc7cdd854f8b3628b622da5417d8b" target="_top" xlink:title=" ">
<polygon fill="#fff0f0" stroke="red" points="1112,-641.72 1042,-641.72 1042,-622.72 1112,-622.72 1112,-641.72"/>
<text text-anchor="middle" x="1077" y="-629.72" font-family="Helvetica,sans-Serif" font-size="10.00">LogThisGap</text>
</a>
</g>
</g>
<!-- Node62&#45;&gt;Node63 -->
<g id="edge50" class="edge">
<title>Node62&#45;&gt;Node63</title>
<path fill="none" stroke="#63b8ff" d="M811.08,-756.47C857.63,-747.69 929.28,-730.76 986,-702.22 1013.56,-688.36 1040.91,-665.44 1058.1,-649.62"/>
<polygon fill="#63b8ff" stroke="#63b8ff" points="1060.13,-652.52 1065.01,-643.12 1055.33,-647.42 1060.13,-652.52"/>
</g>
<!-- Node63&#45;&gt;Node31 -->
<g id="edge51" class="edge">
<title>Node63&#45;&gt;Node31</title>
<path fill="none" stroke="#63b8ff" d="M1087.34,-622.42C1098.91,-609.91 1118.72,-587.22 1132,-565.22 1164.21,-511.88 1190.02,-442.53 1201.71,-408.66"/>
<polygon fill="#63b8ff" stroke="#63b8ff" points="1204.99,-409.9 1204.88,-399.31 1198.36,-407.66 1204.99,-409.9"/>
</g>
<!-- Node64&#45;&gt;Node13 -->
<g id="edge54" class="edge">
<title>Node64&#45;&gt;Node13</title>
<path fill="none" stroke="#63b8ff" d="M767.25,-566.56C778.49,-542.15 811.43,-477.56 859,-444.22 860.59,-443.11 862.25,-442.07 863.96,-441.08"/>
<polygon fill="#63b8ff" stroke="#63b8ff" points="865.36,-444.3 872.84,-436.8 862.31,-437.99 865.36,-444.3"/>
</g>
<!-- Node64&#45;&gt;Node39 -->
<g id="edge56" class="edge">
<title>Node64&#45;&gt;Node39</title>
<path fill="none" stroke="#63b8ff" d="M798.11,-568.51C856.94,-555.36 970.55,-529.02 986,-518.22 1026.35,-490.04 1054.32,-437.56 1067.47,-408.65"/>
<polygon fill="#63b8ff" stroke="#63b8ff" points="1070.65,-410.12 1071.44,-399.55 1064.23,-407.32 1070.65,-410.12"/>
</g>
<!-- Node65 -->
<g id="node41" class="node">
<title>Node65</title>
<g id="a_node41"><a xlink:href="Utilities_8h.html#a82b1900a80d1622896601c57d6edaeda" target="_top" xlink:title=" ">
<polygon fill="white" stroke="#666666" points="971.5,-659.72 873.5,-659.72 873.5,-640.72 971.5,-640.72 971.5,-659.72"/>
<text text-anchor="middle" x="922.5" y="-647.72" font-family="Helvetica,sans-Serif" font-size="10.00">ClearSuccessRate</text>
</a>
</g>
</g>
<!-- Node64&#45;&gt;Node65 -->
<g id="edge53" class="edge">
<title>Node64&#45;&gt;Node65</title>
<path fill="none" stroke="#63b8ff" d="M777.37,-586.14C795.64,-598.38 828.49,-619.17 859,-632.22 862.75,-633.83 866.69,-635.34 870.68,-636.75"/>
<polygon fill="#63b8ff" stroke="#63b8ff" points="869.28,-639.97 879.87,-639.77 871.47,-633.32 869.28,-639.97"/>
</g>
<!-- Node66 -->
<g id="node42" class="node">
<title>Node66</title>
<g id="a_node42"><a xlink:href="TransmitterCode_2src_2main_8cpp.html#aaa3e86084c43b049d52d7d62c58a00b9" target="_top" xlink:title=" ">
<polygon fill="#fff0f0" stroke="red" points="963.5,-622.72 881.5,-622.72 881.5,-603.72 963.5,-603.72 963.5,-622.72"/>
<text text-anchor="middle" x="922.5" y="-610.72" font-family="Helvetica,sans-Serif" font-size="10.00">LogConnection</text>
</a>
</g>
</g>
<!-- Node64&#45;&gt;Node66 -->
<g id="edge55" class="edge">
<title>Node64&#45;&gt;Node66</title>
<path fill="none" stroke="#63b8ff" d="M798.18,-584.44C819.26,-589.36 846.45,-595.7 869.92,-601.18"/>
<polygon fill="#63b8ff" stroke="#63b8ff" points="869.1,-604.59 879.64,-603.45 870.69,-597.77 869.1,-604.59"/>
</g>
<!-- Node68 -->
<g id="node43" class="node">
<title>Node68</title>
<g id="a_node43"><a xlink:href="TransmitterCode_2src_2main_8cpp.html#a5d3a46c21927cf7a3031a1e68e0b7b48" target="_top" xlink:title="SHOW COMMS.">
<polygon fill="#fff0f0" stroke="red" points="960,-509.72 885,-509.72 885,-490.72 960,-490.72 960,-509.72"/>
<text text-anchor="middle" x="922.5" y="-497.72" font-family="Helvetica,sans-Serif" font-size="10.00">ShowComms</text>
</a>
</g>
</g>
<!-- Node64&#45;&gt;Node68 -->
<g id="edge57" class="edge">
<title>Node64&#45;&gt;Node68</title>
<path fill="none" stroke="#63b8ff" d="M779.66,-566.34C798.54,-555.34 830.42,-537.39 859,-524.22 866.55,-520.75 874.76,-517.34 882.67,-514.24"/>
<polygon fill="#63b8ff" stroke="#63b8ff" points="883.68,-517.6 891.76,-510.75 881.17,-511.06 883.68,-517.6"/>
</g>
<!-- Node76 -->
<g id="node45" class="node">
<title>Node76</title>
<g id="a_node45"><a xlink:href="TransmitterCode_2src_2main_8cpp.html#a6da9a1fd0b003151f79eabc702ba80ff" target="_top" xlink:title=" ">
<polygon fill="white" stroke="#666666" points="966,-585.72 879,-585.72 879,-566.72 966,-566.72 966,-585.72"/>
<text text-anchor="middle" x="922.5" y="-573.72" font-family="Helvetica,sans-Serif" font-size="10.00">ZeroDataScreen</text>
</a>
</g>
</g>
<!-- Node64&#45;&gt;Node76 -->
<g id="edge62" class="edge">
<title>Node64&#45;&gt;Node76</title>
<path fill="none" stroke="#63b8ff" d="M798.18,-576.22C818.46,-576.22 844.4,-576.22 867.24,-576.22"/>
<polygon fill="#63b8ff" stroke="#63b8ff" points="867,-579.72 877,-576.22 867,-572.72 867,-579.72"/>
</g>
<!-- Node68&#45;&gt;Node3 -->
<g id="edge59" class="edge">
<title>Node68&#45;&gt;Node3</title>
<path fill="none" stroke="#63b8ff" d="M884.98,-490.38C824.8,-475.05 700.84,-447.22 594,-447.22 449,-447.22 449,-447.22 449,-447.22 364.67,-447.22 280.07,-382.03 243.84,-350.25"/>
<polygon fill="#63b8ff" stroke="#63b8ff" points="246.6,-348.03 236.82,-343.95 241.93,-353.24 246.6,-348.03"/>
</g>
<!-- Node68&#45;&gt;Node39 -->
<g id="edge58" class="edge">
<title>Node68&#45;&gt;Node39</title>
<path fill="none" stroke="#63b8ff" d="M960.2,-492.44C969.03,-489.67 978.16,-486.01 986,-481.22 1017.96,-461.69 1046.47,-428.16 1062.46,-407.14"/>
<polygon fill="#63b8ff" stroke="#63b8ff" points="1065.23,-409.28 1068.36,-399.16 1059.6,-405.12 1065.23,-409.28"/>
</g>
<!-- Node68&#45;&gt;Node40 -->
<g id="edge60" class="edge">
<title>Node68&#45;&gt;Node40</title>
<path fill="none" stroke="#63b8ff" d="M960.38,-495.27C969.71,-492.46 979.05,-488.07 986,-481.22 1023.26,-444.55 1000.75,-417 1022,-369.22 1033.8,-342.7 1051.18,-314.09 1063.02,-295.71"/>
<polygon fill="#63b8ff" stroke="#63b8ff" points="1065.89,-297.72 1068.43,-287.43 1060.03,-293.89 1065.89,-297.72"/>
</g>
<!-- Node68&#45;&gt;Node75 -->
<g id="edge61" class="edge">
<title>Node68&#45;&gt;Node75</title>
<path fill="none" stroke="#63b8ff" d="M955.84,-510.19C978.28,-517.11 1008.42,-526.4 1032.9,-533.94"/>
<polygon fill="#63b8ff" stroke="#63b8ff" points="1031.67,-537.23 1042.26,-536.83 1033.73,-530.54 1031.67,-537.23"/>
</g>
<!-- Node77&#45;&gt;Node44 -->
<g id="edge68" class="edge">
<title>Node77&#45;&gt;Node44</title>
<path fill="none" stroke="#63b8ff" d="M806.91,-848.17C812.74,-850.78 818.32,-854.07 823,-858.22 881.26,-909.86 907.9,-1003.39 917.3,-1045.12"/>
<polygon fill="#63b8ff" stroke="#63b8ff" points="913.86,-1045.78 919.36,-1054.83 920.7,-1044.32 913.86,-1045.78"/>
</g>
<!-- Node78 -->
<g id="node47" class="node">
<title>Node78</title>
<g id="a_node47"><a xlink:href="transceiver_8h.html#a75fa77e7bbb1cfe8fe6e1a216fbdc17e" target="_top" xlink:title=" ">
<polygon fill="white" stroke="#666666" points="955,-811.72 890,-811.72 890,-792.72 955,-792.72 955,-811.72"/>
<text text-anchor="middle" x="922.5" y="-799.72" font-family="Helvetica,sans-Serif" font-size="10.00">GetAltitude</text>
</a>
</g>
</g>
<!-- Node77&#45;&gt;Node78 -->
<g id="edge64" class="edge">
<title>Node77&#45;&gt;Node78</title>
<path fill="none" stroke="#63b8ff" d="M806.73,-828.29C829.12,-823.21 856.29,-817.04 878.57,-811.98"/>
<polygon fill="#63b8ff" stroke="#63b8ff" points="879.27,-815.41 888.25,-809.78 877.72,-808.58 879.27,-815.41"/>
</g>
<!-- Node79 -->
<g id="node48" class="node">
<title>Node79</title>
<g id="a_node48"><a xlink:href="transceiver_8h.html#ab5736b017daadeb2c1d7dc73489d31a6" target="_top" xlink:title=" ">
<polygon fill="white" stroke="#666666" points="1130.5,-792.72 1023.5,-792.72 1023.5,-773.72 1130.5,-773.72 1130.5,-792.72"/>
<text text-anchor="middle" x="1077" y="-780.72" font-family="Helvetica,sans-Serif" font-size="10.00">GetFromAckPayload</text>
</a>
</g>
</g>
<!-- Node77&#45;&gt;Node79 -->
<g id="edge67" class="edge">
<title>Node77&#45;&gt;Node79</title>
<path fill="none" stroke="#63b8ff" d="M775.44,-828.44C792.91,-815.38 826.28,-792.88 859,-784.22 909.15,-770.96 968.13,-771.68 1011.94,-775.17"/>
<polygon fill="#63b8ff" stroke="#63b8ff" points="1011.52,-778.65 1021.79,-776.03 1012.13,-771.68 1011.52,-778.65"/>
</g>
<!-- Node80 -->
<g id="node49" class="node">
<title>Node80</title>
<g id="a_node49"><a xlink:href="transceiver_8h.html#a160b9119423c34869b16a4ebdc421d35" target="_top" xlink:title=" ">
<polygon fill="white" stroke="#666666" points="986,-848.72 859,-848.72 859,-829.72 986,-829.72 986,-848.72"/>
<text text-anchor="middle" x="922.5" y="-836.72" font-family="Helvetica,sans-Serif" font-size="10.00">GetDateFromAckPayload</text>
</a>
</g>
</g>
<!-- Node77&#45;&gt;Node80 -->
<g id="edge66" class="edge">
<title>Node77&#45;&gt;Node80</title>
<path fill="none" stroke="#63b8ff" d="M809.27,-838.52C821.21,-838.59 834.37,-838.67 847.35,-838.76"/>
<polygon fill="#63b8ff" stroke="#63b8ff" points="847.14,-842.26 857.16,-838.82 847.18,-835.26 847.14,-842.26"/>
</g>
<!-- Node78&#45;&gt;Node79 -->
<g id="edge65" class="edge">
<title>Node78&#45;&gt;Node79</title>
<path fill="none" stroke="#63b8ff" d="M955.47,-798.24C971.82,-796.2 992.34,-793.65 1011.78,-791.23"/>
<polygon fill="#63b8ff" stroke="#63b8ff" points="1012.07,-794.72 1021.56,-790.01 1011.21,-787.77 1012.07,-794.72"/>
</g>
</g>
</svg>
