<?xml version="1.0" encoding="UTF-8" standalone="no"?>
<!DOCTYPE svg PUBLIC "-//W3C//DTD SVG 1.1//EN"
 "http://www.w3.org/Graphics/SVG/1.1/DTD/svg11.dtd">
<!-- Generated by graphviz version 7.0.4 (20221203.1631)
 -->
<!-- Title: SetNewPipe Pages: 1 -->
<svg width="708pt" height="176pt"
 viewBox="0.00 0.00 708.00 176.00" xmlns="http://www.w3.org/2000/svg" xmlns:xlink="http://www.w3.org/1999/xlink">
<g id="graph0" class="graph" transform="scale(1 1) rotate(0) translate(4 172)">
<title>SetNewPipe</title>
<!-- Node1 -->
<g id="node1" class="node">
<title>Node1</title>
<g id="a_node1"><a xlink:title=" ">
<polygon fill="#999999" stroke="#666666" points="700,-149 629,-149 629,-130 700,-130 700,-149"/>
<text text-anchor="middle" x="664.5" y="-137" font-family="Helvetica,sans-Serif" font-size="10.00">SetNewPipe</text>
</a>
</g>
</g>
<!-- Node2 -->
<g id="node2" class="node">
<title>Node2</title>
<g id="a_node2"><a xlink:href="ReceiverCode_2src_2main_8cpp.html#aa0c6905579a33aef28d737d43676cbbd" target="_top" xlink:title=" ">
<polygon fill="white" stroke="#666666" points="230,-168 168,-168 168,-149 230,-149 230,-168"/>
<text text-anchor="middle" x="199" y="-156" font-family="Helvetica,sans-Serif" font-size="10.00">BindModel</text>
</a>
</g>
</g>
<!-- Node1&#45;&gt;Node2 -->
<g id="edge1" class="edge">
<title>Node1&#45;&gt;Node2</title>
<path fill="none" stroke="#63b8ff" d="M617.2,-141.4C522.6,-145.28 309.45,-154.01 230.32,-157.26"/>
<polygon fill="#63b8ff" stroke="#63b8ff" points="617.3,-144.9 627.15,-140.99 617.01,-137.9 617.3,-144.9"/>
</g>
<!-- Node5 -->
<g id="node5" class="node">
<title>Node5</title>
<g id="a_node5"><a xlink:href="ReceiverCode_2src_2main_8cpp.html#a42318598726782ebb2e1857f167c8cda" target="_top" xlink:title=" ">
<polygon fill="white" stroke="#666666" points="593,-130 540,-130 540,-111 593,-111 593,-130"/>
<text text-anchor="middle" x="566.5" y="-118" font-family="Helvetica,sans-Serif" font-size="10.00">FailSafe</text>
</a>
</g>
</g>
<!-- Node1&#45;&gt;Node5 -->
<g id="edge4" class="edge">
<title>Node1&#45;&gt;Node5</title>
<path fill="none" stroke="#63b8ff" d="M617.38,-130.37C609.07,-128.73 600.69,-127.07 593.22,-125.59"/>
<polygon fill="#63b8ff" stroke="#63b8ff" points="616.6,-133.78 627.09,-132.29 617.96,-126.92 616.6,-133.78"/>
</g>
<!-- Node3 -->
<g id="node3" class="node">
<title>Node3</title>
<g id="a_node3"><a xlink:href="ReceiverCode_2src_2main_8cpp.html#af4a2e182cd3b86ca9765a08100cfb14a" target="_top" xlink:title=" ">
<polygon fill="white" stroke="#666666" points="132,-168 71,-168 71,-149 132,-149 132,-168"/>
<text text-anchor="middle" x="101.5" y="-156" font-family="Helvetica,sans-Serif" font-size="10.00">DoBinding</text>
</a>
</g>
</g>
<!-- Node2&#45;&gt;Node3 -->
<g id="edge2" class="edge">
<title>Node2&#45;&gt;Node3</title>
<path fill="none" stroke="#63b8ff" d="M156.08,-158.5C148.09,-158.5 139.88,-158.5 132.36,-158.5"/>
<polygon fill="#63b8ff" stroke="#63b8ff" points="156.01,-162 166.01,-158.5 156.01,-155 156.01,-162"/>
</g>
<!-- Node4 -->
<g id="node4" class="node">
<title>Node4</title>
<g id="a_node4"><a xlink:href="ReceiverCode_2src_2main_8cpp.html#afe461d27b9c48d5921c00d521181f12f" target="_top" xlink:title=" ">
<polygon fill="white" stroke="#666666" points="35,-149 0,-149 0,-130 35,-130 35,-149"/>
<text text-anchor="middle" x="17.5" y="-137" font-family="Helvetica,sans-Serif" font-size="10.00">loop</text>
</a>
</g>
</g>
<!-- Node3&#45;&gt;Node4 -->
<g id="edge3" class="edge">
<title>Node3&#45;&gt;Node4</title>
<path fill="none" stroke="#63b8ff" d="M59.73,-149.05C51.14,-147.06 42.53,-145.07 35.42,-143.42"/>
<polygon fill="#63b8ff" stroke="#63b8ff" points="58.89,-152.45 69.42,-151.3 60.47,-145.63 58.89,-152.45"/>
</g>
<!-- Node6 -->
<g id="node6" class="node">
<title>Node6</title>
<g id="a_node6"><a xlink:href="TransmitterCode_2src_2main_8cpp.html#a804fdbdd5eab4c596bbe8a23eecbe4d5" target="_top" xlink:title=" ">
<polygon fill="white" stroke="#666666" points="504,-75 403,-75 403,-56 504,-56 504,-75"/>
<text text-anchor="middle" x="453.5" y="-63" font-family="Helvetica,sans-Serif" font-size="10.00">ButtonWasPressed</text>
</a>
</g>
</g>
<!-- Node5&#45;&gt;Node6 -->
<g id="edge5" class="edge">
<title>Node5&#45;&gt;Node6</title>
<path fill="none" stroke="#63b8ff" d="M535.27,-105.52C515.93,-95.94 491.38,-83.77 474.45,-75.39"/>
<polygon fill="#63b8ff" stroke="#63b8ff" points="533.53,-108.56 544.04,-109.87 536.64,-102.29 533.53,-108.56"/>
</g>
<!-- Node11 -->
<g id="node11" class="node">
<title>Node11</title>
<g id="a_node11"><a xlink:href="radio_8h.html#a692b8b0727e0db358f99c7bf4e8235c0" target="_top" xlink:title=" ">
<polygon fill="white" stroke="#666666" points="485,-130 422,-130 422,-111 485,-111 485,-130"/>
<text text-anchor="middle" x="453.5" y="-118" font-family="Helvetica,sans-Serif" font-size="10.00">Reconnect</text>
</a>
</g>
</g>
<!-- Node5&#45;&gt;Node11 -->
<g id="edge12" class="edge">
<title>Node5&#45;&gt;Node11</title>
<path fill="none" stroke="#63b8ff" d="M528.48,-120.5C514.44,-120.5 498.63,-120.5 485.24,-120.5"/>
<polygon fill="#63b8ff" stroke="#63b8ff" points="528.24,-124 538.24,-120.5 528.24,-117 528.24,-124"/>
</g>
<!-- Node7 -->
<g id="node7" class="node">
<title>Node7</title>
<g id="a_node7"><a xlink:href="TransmitterCode_2src_2main_8cpp.html#a6506bf72e0dd9e9ce480156b47625bff" target="_top" xlink:title=" ">
<polygon fill="white" stroke="#666666" points="359.5,-56 273.5,-56 273.5,-37 359.5,-37 359.5,-56"/>
<text text-anchor="middle" x="316.5" y="-44" font-family="Helvetica,sans-Serif" font-size="10.00">GetConfirmation</text>
</a>
</g>
</g>
<!-- Node6&#45;&gt;Node7 -->
<g id="edge6" class="edge">
<title>Node6&#45;&gt;Node7</title>
<path fill="none" stroke="#63b8ff" d="M411.67,-53.49C395.3,-50.56 376.44,-47.88 359.92,-46.15"/>
<polygon fill="#63b8ff" stroke="#63b8ff" points="410.57,-56.85 421.05,-55.28 411.88,-49.97 410.57,-56.85"/>
</g>
<!-- Node8 -->
<g id="node8" class="node">
<title>Node8</title>
<g id="a_node8"><a xlink:href="TransmitterCode_2src_2main_8cpp.html#a558ea014e230b7caa54ce5a37ad29b22" target="_top" xlink:title=" ">
<polygon fill="white" stroke="#666666" points="367,-19 266,-19 266,0 367,0 367,-19"/>
<text text-anchor="middle" x="316.5" y="-7" font-family="Helvetica,sans-Serif" font-size="10.00">ManageTransmitter</text>
</a>
</g>
</g>
<!-- Node6&#45;&gt;Node8 -->
<g id="edge8" class="edge">
<title>Node6&#45;&gt;Node8</title>
<path fill="none" stroke="#63b8ff" d="M420.83,-50.79C404.81,-43.52 384.99,-34.76 367,-27.5 360.22,-24.76 352.84,-21.98 345.9,-19.44"/>
<polygon fill="#63b8ff" stroke="#63b8ff" points="419.32,-53.95 429.87,-54.93 422.23,-47.59 419.32,-53.95"/>
</g>
<!-- Node10 -->
<g id="node10" class="node">
<title>Node10</title>
<g id="a_node10"><a xlink:href="TransmitterCode_2src_2main_8cpp.html#ab7c9edf843c732d7fe296564f39bc0dc" target="_top" xlink:title="RECEIVE A MODEL FILE.">
<polygon fill="white" stroke="#666666" points="363.5,-93 269.5,-93 269.5,-74 363.5,-74 363.5,-93"/>
<text text-anchor="middle" x="316.5" y="-81" font-family="Helvetica,sans-Serif" font-size="10.00">ReceiveModelFile</text>
</a>
</g>
</g>
<!-- Node6&#45;&gt;Node10 -->
<g id="edge10" class="edge">
<title>Node6&#45;&gt;Node10</title>
<path fill="none" stroke="#63b8ff" d="M391.45,-66.92C376.69,-68.76 361.51,-71.09 348.78,-73.53"/>
<polygon fill="#63b8ff" stroke="#63b8ff" points="391.59,-70.43 401.11,-65.79 390.77,-63.47 391.59,-70.43"/>
</g>
<!-- Node7&#45;&gt;Node6 -->
<g id="edge7" class="edge">
<title>Node7&#45;&gt;Node6</title>
<path fill="none" stroke="#63b8ff" d="M358.74,-58.58C372.59,-61.05 388.18,-63.34 402.61,-65.02"/>
<polygon fill="#63b8ff" stroke="#63b8ff" points="359.55,-55.17 349.07,-56.74 358.25,-62.05 359.55,-55.17"/>
</g>
<!-- Node9 -->
<g id="node9" class="node">
<title>Node9</title>
<g id="a_node9"><a xlink:href="TransmitterCode_2src_2main_8cpp.html#ad3cb30894c94eb016e98bdcaa899ac86" target="_top" xlink:title=" ">
<polygon fill="white" stroke="#666666" points="216.5,-19 181.5,-19 181.5,0 216.5,0 216.5,-19"/>
<text text-anchor="middle" x="199" y="-7" font-family="Helvetica,sans-Serif" font-size="10.00">loop</text>
</a>
</g>
</g>
<!-- Node8&#45;&gt;Node9 -->
<g id="edge9" class="edge">
<title>Node8&#45;&gt;Node9</title>
<path fill="none" stroke="#63b8ff" d="M254,-9.5C240.29,-9.5 226.87,-9.5 216.83,-9.5"/>
<polygon fill="#63b8ff" stroke="#63b8ff" points="254,-13 264,-9.5 254,-6 254,-13"/>
</g>
<!-- Node10&#45;&gt;Node6 -->
<g id="edge11" class="edge">
<title>Node10&#45;&gt;Node6</title>
<path fill="none" stroke="#63b8ff" d="M375.08,-82.51C390.9,-80.61 407.46,-78.1 421.19,-75.48"/>
<polygon fill="#63b8ff" stroke="#63b8ff" points="374.8,-79.02 365.25,-83.61 375.58,-85.97 374.8,-79.02"/>
</g>
<!-- Node12 -->
<g id="node12" class="node">
<title>Node12</title>
<g id="a_node12"><a xlink:href="ReceiverCode_2src_2main_8cpp.html#a06807a4f185694d37f774702ba74db0a" target="_top" xlink:title=" ">
<polygon fill="white" stroke="#666666" points="352.5,-130 280.5,-130 280.5,-111 352.5,-111 352.5,-130"/>
<text text-anchor="middle" x="316.5" y="-118" font-family="Helvetica,sans-Serif" font-size="10.00">ReceiveData</text>
</a>
</g>
</g>
<!-- Node11&#45;&gt;Node12 -->
<g id="edge13" class="edge">
<title>Node11&#45;&gt;Node12</title>
<path fill="none" stroke="#63b8ff" d="M410.16,-120.5C391.65,-120.5 370.21,-120.5 352.61,-120.5"/>
<polygon fill="#63b8ff" stroke="#63b8ff" points="410.01,-124 420.01,-120.5 410.01,-117 410.01,-124"/>
</g>
<!-- Node12&#45;&gt;Node2 -->
<g id="edge14" class="edge">
<title>Node12&#45;&gt;Node2</title>
<path fill="none" stroke="#63b8ff" d="M274.37,-134.03C259.78,-138.83 243.65,-144.14 230.14,-148.58"/>
<polygon fill="#63b8ff" stroke="#63b8ff" points="275.31,-137.41 283.72,-130.96 273.12,-130.76 275.31,-137.41"/>
</g>
<!-- Node12&#45;&gt;Node4 -->
<g id="edge15" class="edge">
<title>Node12&#45;&gt;Node4</title>
<path fill="none" stroke="#63b8ff" d="M269.13,-123.47C201.66,-127.78 79.64,-135.59 35.24,-138.43"/>
<polygon fill="#63b8ff" stroke="#63b8ff" points="269,-126.98 278.75,-122.85 268.55,-120 269,-126.98"/>
</g>
</g>
</svg>
