<?xml version="1.0" encoding="UTF-8" standalone="no"?>
<!DOCTYPE svg PUBLIC "-//W3C//DTD SVG 1.1//EN"
 "http://www.w3.org/Graphics/SVG/1.1/DTD/svg11.dtd">
<!-- Generated by graphviz version 7.0.5 (20221223.1930)
 -->
<!-- Title: TurnLedOff Pages: 1 -->
<svg width="1650pt" height="598pt"
 viewBox="0.00 0.00 1650.00 597.50" xmlns="http://www.w3.org/2000/svg" xmlns:xlink="http://www.w3.org/1999/xlink">
<g id="graph0" class="graph" transform="scale(1 1) rotate(0) translate(4 593.5)">
<title>TurnLedOff</title>
<!-- Node1 -->
<g id="node1" class="node">
<title>Node1</title>
<g id="a_node1"><a xlink:title=" ">
<polygon fill="#999999" stroke="#666666" points="1642,-108.5 1577,-108.5 1577,-89.5 1642,-89.5 1642,-108.5"/>
<text text-anchor="middle" x="1609.5" y="-96.5" font-family="Helvetica,sans-Serif" font-size="10.00">TurnLedOff</text>
</a>
</g>
</g>
<!-- Node2 -->
<g id="node2" class="node">
<title>Node2</title>
<g id="a_node2"><a xlink:href="ReceiverCode_2src_2main_8cpp.html#aa477cf7453bb57dab00e7b654f62cb13" target="_top" xlink:title=" ">
<polygon fill="white" stroke="#666666" points="1417,-85.5 1362,-85.5 1362,-66.5 1417,-66.5 1417,-85.5"/>
<text text-anchor="middle" x="1389.5" y="-73.5" font-family="Helvetica,sans-Serif" font-size="10.00">BlinkLed</text>
</a>
</g>
</g>
<!-- Node1&#45;&gt;Node2 -->
<g id="edge1" class="edge">
<title>Node1&#45;&gt;Node2</title>
<path fill="none" stroke="#63b8ff" d="M1565.59,-94.47C1521.58,-89.83 1454.48,-82.75 1417.43,-78.84"/>
<polygon fill="#63b8ff" stroke="#63b8ff" points="1564.98,-97.93 1575.3,-95.5 1565.72,-90.97 1564.98,-97.93"/>
</g>
<!-- Node7 -->
<g id="node7" class="node">
<title>Node7</title>
<g id="a_node7"><a xlink:href="ReceiverCode_2src_2main_8cpp.html#a17699f358cf9f7c3155a9c5daf8ff13c" target="_top" xlink:title=" ">
<polygon fill="white" stroke="#666666" points="805.5,-29.5 764.5,-29.5 764.5,-10.5 805.5,-10.5 805.5,-29.5"/>
<text text-anchor="middle" x="785" y="-17.5" font-family="Helvetica,sans-Serif" font-size="10.00">setup</text>
</a>
</g>
</g>
<!-- Node1&#45;&gt;Node7 -->
<g id="edge47" class="edge">
<title>Node1&#45;&gt;Node7</title>
<path fill="none" stroke="#63b8ff" d="M1587.72,-82.25C1550.53,-54.02 1469.1,0 1390.5,0 1390.5,0 1390.5,0 1098,0 987.27,0 854.89,-12.7 805.68,-17.86"/>
<polygon fill="#63b8ff" stroke="#63b8ff" points="1585.36,-84.85 1595.4,-88.22 1589.65,-79.32 1585.36,-84.85"/>
</g>
<!-- Node8 -->
<g id="node8" class="node">
<title>Node8</title>
<g id="a_node8"><a xlink:href="ReceiverCode_2src_2main_8cpp.html#a42318598726782ebb2e1857f167c8cda" target="_top" xlink:title=" ">
<polygon fill="white" stroke="#666666" points="1416,-199.5 1363,-199.5 1363,-180.5 1416,-180.5 1416,-199.5"/>
<text text-anchor="middle" x="1389.5" y="-187.5" font-family="Helvetica,sans-Serif" font-size="10.00">FailSafe</text>
</a>
</g>
</g>
<!-- Node1&#45;&gt;Node8 -->
<g id="edge8" class="edge">
<title>Node1&#45;&gt;Node8</title>
<path fill="none" stroke="#63b8ff" d="M1585.82,-115.54C1573.1,-124.26 1556.69,-134.65 1541,-142 1499.03,-161.66 1446.88,-176.28 1416.29,-183.95"/>
<polygon fill="#63b8ff" stroke="#63b8ff" points="1587.73,-118.47 1593.9,-109.86 1583.71,-112.75 1587.73,-118.47"/>
</g>
<!-- Node31 -->
<g id="node31" class="node">
<title>Node31</title>
<g id="a_node31"><a xlink:href="ReceiverCode_2src_2main_8cpp.html#a6f2443a0666140cf4d8b7352bb3b793c" target="_top" xlink:title=" ">
<polygon fill="white" stroke="#666666" points="1541,-132.5 1470,-132.5 1470,-113.5 1541,-113.5 1541,-132.5"/>
<text text-anchor="middle" x="1505.5" y="-120.5" font-family="Helvetica,sans-Serif" font-size="10.00">MoveServos</text>
</a>
</g>
</g>
<!-- Node1&#45;&gt;Node31 -->
<g id="edge41" class="edge">
<title>Node1&#45;&gt;Node31</title>
<path fill="none" stroke="#63b8ff" d="M1565.37,-109.15C1557.31,-111.04 1548.98,-113 1541.21,-114.83"/>
<polygon fill="#63b8ff" stroke="#63b8ff" points="1566.1,-112.57 1575.03,-106.87 1564.5,-105.76 1566.1,-112.57"/>
</g>
<!-- Node3 -->
<g id="node3" class="node">
<title>Node3</title>
<g id="a_node3"><a xlink:href="ReceiverCode_2src_2main_8cpp.html#afe461d27b9c48d5921c00d521181f12f" target="_top" xlink:title=" ">
<polygon fill="white" stroke="#666666" points="955,-85.5 920,-85.5 920,-66.5 955,-66.5 955,-85.5"/>
<text text-anchor="middle" x="937.5" y="-73.5" font-family="Helvetica,sans-Serif" font-size="10.00">loop</text>
</a>
</g>
</g>
<!-- Node2&#45;&gt;Node3 -->
<g id="edge2" class="edge">
<title>Node2&#45;&gt;Node3</title>
<path fill="none" stroke="#63b8ff" d="M1350.59,-65.03C1337.53,-61.76 1322.73,-58.62 1309,-57 1184.09,-42.28 1151.06,-43.58 1026,-57 1001.12,-59.67 972.92,-66.5 955.43,-71.2"/>
<polygon fill="#63b8ff" stroke="#63b8ff" points="1349.53,-68.37 1360.09,-67.51 1351.3,-61.59 1349.53,-68.37"/>
</g>
<!-- Node4 -->
<g id="node4" class="node">
<title>Node4</title>
<g id="a_node4"><a xlink:href="radio_8h.html#aca314b55765a1c3af5397c0cb3ce47ff" target="_top" xlink:title=" ">
<polygon fill="white" stroke="#666666" points="1290,-85.5 1227,-85.5 1227,-66.5 1290,-66.5 1290,-85.5"/>
<text text-anchor="middle" x="1258.5" y="-73.5" font-family="Helvetica,sans-Serif" font-size="10.00">Reconnect</text>
</a>
</g>
</g>
<!-- Node2&#45;&gt;Node4 -->
<g id="edge3" class="edge">
<title>Node2&#45;&gt;Node4</title>
<path fill="none" stroke="#63b8ff" d="M1350.4,-76C1331.23,-76 1308.31,-76 1290.27,-76"/>
<polygon fill="#63b8ff" stroke="#63b8ff" points="1350.26,-79.5 1360.26,-76 1350.26,-72.5 1350.26,-79.5"/>
</g>
<!-- Node5 -->
<g id="node5" class="node">
<title>Node5</title>
<g id="a_node5"><a xlink:href="ReceiverCode_2src_2main_8cpp.html#a06807a4f185694d37f774702ba74db0a" target="_top" xlink:title=" ">
<polygon fill="white" stroke="#666666" points="1135,-85.5 1063,-85.5 1063,-66.5 1135,-66.5 1135,-85.5"/>
<text text-anchor="middle" x="1099" y="-73.5" font-family="Helvetica,sans-Serif" font-size="10.00">ReceiveData</text>
</a>
</g>
</g>
<!-- Node4&#45;&gt;Node5 -->
<g id="edge4" class="edge">
<title>Node4&#45;&gt;Node5</title>
<path fill="none" stroke="#63b8ff" d="M1215.41,-76C1190.41,-76 1159.05,-76 1135.34,-76"/>
<polygon fill="#63b8ff" stroke="#63b8ff" points="1215.25,-79.5 1225.24,-76 1215.24,-72.5 1215.25,-79.5"/>
</g>
<!-- Node5&#45;&gt;Node3 -->
<g id="edge5" class="edge">
<title>Node5&#45;&gt;Node3</title>
<path fill="none" stroke="#63b8ff" d="M1051.14,-76C1018.84,-76 977.79,-76 955.24,-76"/>
<polygon fill="#63b8ff" stroke="#63b8ff" points="1051.09,-79.5 1061.09,-76 1051.09,-72.5 1051.09,-79.5"/>
</g>
<!-- Node6 -->
<g id="node6" class="node">
<title>Node6</title>
<g id="a_node6"><a xlink:href="ReceiverCode_2src_2main_8cpp.html#a5b90f51dfaa1795437ab024e8ab778d5" target="_top" xlink:title=" ">
<polygon fill="white" stroke="#666666" points="976.5,-48.5 898.5,-48.5 898.5,-29.5 976.5,-29.5 976.5,-48.5"/>
<text text-anchor="middle" x="937.5" y="-36.5" font-family="Helvetica,sans-Serif" font-size="10.00">ReadBindPlug</text>
</a>
</g>
</g>
<!-- Node5&#45;&gt;Node6 -->
<g id="edge6" class="edge">
<title>Node5&#45;&gt;Node6</title>
<path fill="none" stroke="#63b8ff" d="M1051.4,-65.19C1027.71,-59.69 999.27,-53.1 976.87,-47.9"/>
<polygon fill="#63b8ff" stroke="#63b8ff" points="1050.6,-68.6 1061.13,-67.45 1052.18,-61.78 1050.6,-68.6"/>
</g>
<!-- Node6&#45;&gt;Node7 -->
<g id="edge7" class="edge">
<title>Node6&#45;&gt;Node7</title>
<path fill="none" stroke="#63b8ff" d="M887.05,-32.76C859.38,-29.26 826.42,-25.1 805.85,-22.51"/>
<polygon fill="#63b8ff" stroke="#63b8ff" points="886.27,-36.19 896.63,-33.97 887.15,-29.24 886.27,-36.19"/>
</g>
<!-- Node8&#45;&gt;Node4 -->
<g id="edge40" class="edge">
<title>Node8&#45;&gt;Node4</title>
<path fill="none" stroke="#63b8ff" d="M1369.1,-172.85C1341.64,-148.58 1292.34,-105.02 1270.47,-85.69"/>
<polygon fill="#63b8ff" stroke="#63b8ff" points="1366.56,-175.28 1376.37,-179.28 1371.19,-170.03 1366.56,-175.28"/>
</g>
<!-- Node9 -->
<g id="node9" class="node">
<title>Node9</title>
<g id="a_node9"><a xlink:href="TransmitterCode_2src_2main_8cpp.html#a804fdbdd5eab4c596bbe8a23eecbe4d5" target="_top" xlink:title=" ">
<polygon fill="white" stroke="#666666" points="1309,-256.5 1208,-256.5 1208,-237.5 1309,-237.5 1309,-256.5"/>
<text text-anchor="middle" x="1258.5" y="-244.5" font-family="Helvetica,sans-Serif" font-size="10.00">ButtonWasPressed</text>
</a>
</g>
</g>
<!-- Node8&#45;&gt;Node9 -->
<g id="edge9" class="edge">
<title>Node8&#45;&gt;Node9</title>
<path fill="none" stroke="#63b8ff" d="M1355.64,-204.52C1332.47,-214.76 1302.07,-228.19 1281.71,-237.19"/>
<polygon fill="#63b8ff" stroke="#63b8ff" points="1356.91,-207.78 1364.65,-200.54 1354.08,-201.38 1356.91,-207.78"/>
</g>
<!-- Node10 -->
<g id="node10" class="node">
<title>Node10</title>
<g id="a_node10"><a xlink:href="Utilities_8h.html#afb7c85cac4aa89fd998ed81c330374d2" target="_top" xlink:title=" ">
<polygon fill="white" stroke="#666666" points="1172,-385.5 1026,-385.5 1026,-366.5 1172,-366.5 1172,-385.5"/>
<text text-anchor="middle" x="1099" y="-373.5" font-family="Helvetica,sans-Serif" font-size="10.00">CheckForNextionButtonPress</text>
</a>
</g>
</g>
<!-- Node9&#45;&gt;Node10 -->
<g id="edge10" class="edge">
<title>Node9&#45;&gt;Node10</title>
<path fill="none" stroke="#63b8ff" d="M1242.33,-265.45C1226.17,-284.36 1199.23,-313.92 1172,-335 1155.96,-347.42 1135.75,-358.59 1120.82,-366.13"/>
<polygon fill="#63b8ff" stroke="#63b8ff" points="1244.81,-267.93 1248.56,-258.02 1239.45,-263.43 1244.81,-267.93"/>
</g>
<!-- Node25 -->
<g id="node25" class="node">
<title>Node25</title>
<g id="a_node25"><a xlink:href="TransmitterCode_2src_2main_8cpp.html#ab7c9edf843c732d7fe296564f39bc0dc" target="_top" xlink:title="RECEIVE A MODEL FILE.">
<polygon fill="white" stroke="#666666" points="832,-237.5 738,-237.5 738,-218.5 832,-218.5 832,-237.5"/>
<text text-anchor="middle" x="785" y="-225.5" font-family="Helvetica,sans-Serif" font-size="10.00">ReceiveModelFile</text>
</a>
</g>
</g>
<!-- Node9&#45;&gt;Node25 -->
<g id="edge39" class="edge">
<title>Node9&#45;&gt;Node25</title>
<path fill="none" stroke="#63b8ff" d="M1196.45,-244.54C1100.9,-240.69 918.12,-233.32 832.46,-229.87"/>
<polygon fill="#63b8ff" stroke="#63b8ff" points="1196.29,-248.04 1206.42,-244.94 1196.57,-241.04 1196.29,-248.04"/>
</g>
<!-- Node11 -->
<g id="node11" class="node">
<title>Node11</title>
<g id="a_node11"><a xlink:href="TransmitterCode_2src_2main_8cpp.html#a641d6dab68ec7b2a8a32492aac55bc1c" target="_top" xlink:title=" ">
<polygon fill="white" stroke="#666666" points="990,-275.5 885,-275.5 885,-256.5 990,-256.5 990,-275.5"/>
<text text-anchor="middle" x="937.5" y="-263.5" font-family="Helvetica,sans-Serif" font-size="10.00">GetBackupFilename</text>
</a>
</g>
</g>
<!-- Node10&#45;&gt;Node11 -->
<g id="edge11" class="edge">
<title>Node10&#45;&gt;Node11</title>
<path fill="none" stroke="#63b8ff" d="M1074.47,-359.77C1040.91,-336.63 980.31,-294.83 952.79,-275.85"/>
<polygon fill="#63b8ff" stroke="#63b8ff" points="1072.1,-362.39 1082.32,-365.18 1076.07,-356.63 1072.1,-362.39"/>
</g>
<!-- Node13 -->
<g id="node13" class="node">
<title>Node13</title>
<g id="a_node13"><a xlink:href="TransmitterCode_2src_2main_8cpp.html#a6506bf72e0dd9e9ce480156b47625bff" target="_top" xlink:title=" ">
<polygon fill="white" stroke="#666666" points="980.5,-385.5 894.5,-385.5 894.5,-366.5 980.5,-366.5 980.5,-385.5"/>
<text text-anchor="middle" x="937.5" y="-373.5" font-family="Helvetica,sans-Serif" font-size="10.00">GetConfirmation</text>
</a>
</g>
</g>
<!-- Node10&#45;&gt;Node13 -->
<g id="edge14" class="edge">
<title>Node10&#45;&gt;Node13</title>
<path fill="none" stroke="#63b8ff" d="M1014.55,-376C1002.89,-376 991.35,-376 980.9,-376"/>
<polygon fill="#63b8ff" stroke="#63b8ff" points="1014.2,-379.5 1024.2,-376 1014.2,-372.5 1014.2,-379.5"/>
</g>
<!-- Node29 -->
<g id="node29" class="node">
<title>Node29</title>
<g id="a_node29"><a xlink:href="TransmitterCode_2src_2main_8cpp.html#a558ea014e230b7caa54ce5a37ad29b22" target="_top" xlink:title=" ">
<polygon fill="white" stroke="#666666" points="684.5,-589.5 583.5,-589.5 583.5,-570.5 684.5,-570.5 684.5,-589.5"/>
<text text-anchor="middle" x="634" y="-577.5" font-family="Helvetica,sans-Serif" font-size="10.00">ManageTransmitter</text>
</a>
</g>
</g>
<!-- Node10&#45;&gt;Node29 -->
<g id="edge33" class="edge">
<title>Node10&#45;&gt;Node29</title>
<path fill="none" stroke="#63b8ff" d="M1088.25,-395.85C1071.96,-427.14 1036.35,-488.08 990,-524 900.48,-593.36 759.45,-592.52 684.95,-586.16"/>
<polygon fill="#63b8ff" stroke="#63b8ff" points="1091.28,-397.61 1092.68,-387.11 1085.04,-394.44 1091.28,-397.61"/>
</g>
<!-- Node30 -->
<g id="node30" class="node">
<title>Node30</title>
<g id="a_node30"><a xlink:href="TransmitterCode_2src_2main_8cpp.html#a6f5b0f1e4ca75768c16c4dd93f92a8de" target="_top" xlink:title=" ">
<polygon fill="white" stroke="#666666" points="963.5,-514.5 911.5,-514.5 911.5,-495.5 963.5,-495.5 963.5,-514.5"/>
<text text-anchor="middle" x="937.5" y="-502.5" font-family="Helvetica,sans-Serif" font-size="10.00">MsgBox</text>
</a>
</g>
</g>
<!-- Node10&#45;&gt;Node30 -->
<g id="edge35" class="edge">
<title>Node10&#45;&gt;Node30</title>
<path fill="none" stroke="#63b8ff" d="M1077.11,-392.89C1043.29,-420.24 977.61,-473.37 950.57,-495.23"/>
<polygon fill="#63b8ff" stroke="#63b8ff" points="1079,-395.87 1084.57,-386.86 1074.6,-390.43 1079,-395.87"/>
</g>
<!-- Node11&#45;&gt;Node9 -->
<g id="edge12" class="edge">
<title>Node11&#45;&gt;Node9</title>
<path fill="none" stroke="#63b8ff" d="M1001.68,-262.24C1062.13,-258.64 1152.1,-253.28 1207.66,-249.97"/>
<polygon fill="#63b8ff" stroke="#63b8ff" points="1001.66,-258.73 991.88,-262.82 1002.08,-265.72 1001.66,-258.73"/>
</g>
<!-- Node12 -->
<g id="node12" class="node">
<title>Node12</title>
<g id="a_node12"><a xlink:href="TransmitterCode_2src_2main_8cpp.html#a9d94366336f1e5fd43edb9c24bec5821" target="_top" xlink:title=" ">
<polygon fill="white" stroke="#666666" points="819,-274.5 751,-274.5 751,-255.5 819,-255.5 819,-274.5"/>
<text text-anchor="middle" x="785" y="-262.5" font-family="Helvetica,sans-Serif" font-size="10.00">RenameFile</text>
</a>
</g>
</g>
<!-- Node11&#45;&gt;Node12 -->
<g id="edge13" class="edge">
<title>Node11&#45;&gt;Node12</title>
<path fill="none" stroke="#63b8ff" d="M873.36,-265.58C854.86,-265.46 835.35,-265.33 819.48,-265.22"/>
<polygon fill="#63b8ff" stroke="#63b8ff" points="873.17,-269.08 883.19,-265.65 873.22,-262.08 873.17,-269.08"/>
</g>
<!-- Node13&#45;&gt;Node9 -->
<g id="edge15" class="edge">
<title>Node13&#45;&gt;Node9</title>
<path fill="none" stroke="#63b8ff" d="M973.63,-361.79C1038.8,-335.44 1176.87,-279.61 1233,-256.91"/>
<polygon fill="#63b8ff" stroke="#63b8ff" points="972.45,-358.5 964.49,-365.49 975.07,-364.99 972.45,-358.5"/>
</g>
<!-- Node13&#45;&gt;Node12 -->
<g id="edge29" class="edge">
<title>Node13&#45;&gt;Node12</title>
<path fill="none" stroke="#63b8ff" d="M923.18,-356.94C907.66,-336.11 880.14,-303.16 849,-284 840.05,-278.49 829.4,-274.49 819.42,-271.62"/>
<polygon fill="#63b8ff" stroke="#63b8ff" points="920.21,-358.81 928.91,-364.85 925.87,-354.7 920.21,-358.81"/>
</g>
<!-- Node14 -->
<g id="node14" class="node">
<title>Node14</title>
<g id="a_node14"><a xlink:href="TransmitterCode_2src_2main_8cpp.html#ac45477c637c975e13189e2988c8813b3" target="_top" xlink:title=" ">
<polygon fill="white" stroke="#666666" points="825,-570.5 745,-570.5 745,-551.5 825,-551.5 825,-570.5"/>
<text text-anchor="middle" x="785" y="-558.5" font-family="Helvetica,sans-Serif" font-size="10.00">DeleteModelID</text>
</a>
</g>
</g>
<!-- Node13&#45;&gt;Node14 -->
<g id="edge16" class="edge">
<title>Node13&#45;&gt;Node14</title>
<path fill="none" stroke="#63b8ff" d="M927.1,-396.03C907.2,-438.13 861.59,-532.75 849,-543 842.21,-548.53 833.8,-552.36 825.37,-555.02"/>
<polygon fill="#63b8ff" stroke="#63b8ff" points="930.25,-397.57 931.34,-387.04 923.91,-394.59 930.25,-397.57"/>
</g>
<!-- Node15 -->
<g id="node15" class="node">
<title>Node15</title>
<g id="a_node15"><a xlink:href="TransmitterCode_2src_2main_8cpp.html#a53d438145d004c3b053f245f494f4284" target="_top" xlink:title=" ">
<polygon fill="white" stroke="#666666" points="811,-459.5 759,-459.5 759,-440.5 811,-440.5 811,-459.5"/>
<text text-anchor="middle" x="785" y="-447.5" font-family="Helvetica,sans-Serif" font-size="10.00">DelLOG</text>
</a>
</g>
</g>
<!-- Node13&#45;&gt;Node15 -->
<g id="edge17" class="edge">
<title>Node13&#45;&gt;Node15</title>
<path fill="none" stroke="#63b8ff" d="M914.72,-392.49C897.61,-404.8 872.78,-421.27 849,-432 837.08,-437.38 823.15,-441.56 811.43,-444.53"/>
<polygon fill="#63b8ff" stroke="#63b8ff" points="916.63,-395.43 922.62,-386.69 912.49,-389.79 916.63,-395.43"/>
</g>
<!-- Node16 -->
<g id="node16" class="node">
<title>Node16</title>
<g id="a_node16"><a xlink:href="TransmitterCode_2src_2main_8cpp.html#a16c65917a148c7f6c17babf11e977b69" target="_top" xlink:title=" ">
<polygon fill="white" stroke="#666666" points="826,-422.5 744,-422.5 744,-403.5 826,-403.5 826,-422.5"/>
<text text-anchor="middle" x="785" y="-410.5" font-family="Helvetica,sans-Serif" font-size="10.00">EndBuddyView</text>
</a>
</g>
</g>
<!-- Node13&#45;&gt;Node16 -->
<g id="edge18" class="edge">
<title>Node13&#45;&gt;Node16</title>
<path fill="none" stroke="#63b8ff" d="M885.19,-388.62C866,-393.33 844.51,-398.62 826.44,-403.06"/>
<polygon fill="#63b8ff" stroke="#63b8ff" points="885.82,-392.06 894.7,-386.28 884.15,-385.27 885.82,-392.06"/>
</g>
<!-- Node17 -->
<g id="node17" class="node">
<title>Node17</title>
<g id="a_node17"><a xlink:href="ModelMatch_8h.html#afdd42b1130d38073be1c2025af855879" target="_top" xlink:title=" ">
<polygon fill="white" stroke="#666666" points="819.5,-496.5 750.5,-496.5 750.5,-477.5 819.5,-477.5 819.5,-496.5"/>
<text text-anchor="middle" x="785" y="-484.5" font-family="Helvetica,sans-Serif" font-size="10.00">IDNotFound</text>
</a>
</g>
</g>
<!-- Node13&#45;&gt;Node17 -->
<g id="edge19" class="edge">
<title>Node13&#45;&gt;Node17</title>
<path fill="none" stroke="#63b8ff" d="M923.51,-395.03C908.13,-416.15 880.57,-449.77 849,-469 840.16,-474.38 829.64,-478.22 819.76,-480.92"/>
<polygon fill="#63b8ff" stroke="#63b8ff" points="926.26,-397.21 929.18,-387.02 920.55,-393.16 926.26,-397.21"/>
</g>
<!-- Node24 -->
<g id="node24" class="node">
<title>Node24</title>
<g id="a_node24"><a xlink:href="TransmitterCode_2src_2main_8cpp.html#ae9f91b9da28f2e1e2fb126961f03c31c" target="_top" xlink:title=" ">
<polygon fill="white" stroke="#666666" points="825.5,-385.5 744.5,-385.5 744.5,-366.5 825.5,-366.5 825.5,-385.5"/>
<text text-anchor="middle" x="785" y="-373.5" font-family="Helvetica,sans-Serif" font-size="10.00">ModelViewEnd</text>
</a>
</g>
</g>
<!-- Node13&#45;&gt;Node24 -->
<g id="edge27" class="edge">
<title>Node13&#45;&gt;Node24</title>
<path fill="none" stroke="#63b8ff" d="M882.8,-376C864.06,-376 843.36,-376 825.94,-376"/>
<polygon fill="#63b8ff" stroke="#63b8ff" points="882.66,-379.5 892.66,-376 882.66,-372.5 882.66,-379.5"/>
</g>
<!-- Node13&#45;&gt;Node25 -->
<g id="edge28" class="edge">
<title>Node13&#45;&gt;Node25</title>
<path fill="none" stroke="#63b8ff" d="M925.53,-356.6C906.99,-324.42 869.47,-262.05 849,-247 844.03,-243.35 838.35,-240.39 832.49,-238"/>
<polygon fill="#63b8ff" stroke="#63b8ff" points="922.29,-357.98 930.29,-364.93 928.37,-354.51 922.29,-357.98"/>
</g>
<!-- Node26 -->
<g id="node26" class="node">
<title>Node26</title>
<g id="a_node26"><a xlink:href="TransmitterCode_2src_2main_8cpp.html#a5c7f22bae35d5d6df9d54fe79dbb8401" target="_top" xlink:title=" ">
<polygon fill="white" stroke="#666666" points="849,-348.5 721,-348.5 721,-329.5 849,-329.5 849,-348.5"/>
<text text-anchor="middle" x="785" y="-336.5" font-family="Helvetica,sans-Serif" font-size="10.00">ResetTransmitterSettings</text>
</a>
</g>
</g>
<!-- Node13&#45;&gt;Node26 -->
<g id="edge30" class="edge">
<title>Node13&#45;&gt;Node26</title>
<path fill="none" stroke="#63b8ff" d="M885.19,-363.38C866,-358.67 844.51,-353.38 826.44,-348.94"/>
<polygon fill="#63b8ff" stroke="#63b8ff" points="884.15,-366.73 894.7,-365.72 885.82,-359.94 884.15,-366.73"/>
</g>
<!-- Node27 -->
<g id="node27" class="node">
<title>Node27</title>
<g id="a_node27"><a xlink:href="TransmitterCode_2src_2main_8cpp.html#a3838aa0b33bb22d3b9934da05d2716d8" target="_top" xlink:title=" ">
<polygon fill="white" stroke="#666666" points="823,-533.5 747,-533.5 747,-514.5 823,-514.5 823,-533.5"/>
<text text-anchor="middle" x="785" y="-521.5" font-family="Helvetica,sans-Serif" font-size="10.00">StoreModelID</text>
</a>
</g>
</g>
<!-- Node13&#45;&gt;Node27 -->
<g id="edge31" class="edge">
<title>Node13&#45;&gt;Node27</title>
<path fill="none" stroke="#63b8ff" d="M928.27,-396.3C915.57,-425.05 888.46,-477.33 849,-506 841.45,-511.48 832.28,-515.3 823.29,-517.96"/>
<polygon fill="#63b8ff" stroke="#63b8ff" points="931.42,-397.84 932.1,-387.27 924.97,-395.1 931.42,-397.84"/>
</g>
<!-- Node28 -->
<g id="node28" class="node">
<title>Node28</title>
<g id="a_node28"><a xlink:href="TransmitterCode_2src_2main_8cpp.html#a3c55ef7c23759a89a86f6519569c4f7a" target="_top" xlink:title=" ">
<polygon fill="white" stroke="#666666" points="834.5,-311.5 735.5,-311.5 735.5,-292.5 834.5,-292.5 834.5,-311.5"/>
<text text-anchor="middle" x="785" y="-299.5" font-family="Helvetica,sans-Serif" font-size="10.00">TXModuleViewEnd</text>
</a>
</g>
</g>
<!-- Node13&#45;&gt;Node28 -->
<g id="edge32" class="edge">
<title>Node13&#45;&gt;Node28</title>
<path fill="none" stroke="#63b8ff" d="M914.04,-359.51C896.9,-347.53 872.34,-331.62 849,-321 841.41,-317.55 833.02,-314.52 824.92,-311.95"/>
<polygon fill="#63b8ff" stroke="#63b8ff" points="911.79,-362.21 921.97,-365.16 915.86,-356.51 911.79,-362.21"/>
</g>
<!-- Node18 -->
<g id="node18" class="node">
<title>Node18</title>
<g id="a_node18"><a xlink:href="ModelMatch_8h.html#af8fe429ceb65bf9d257a2a0f1c63eccb" target="_top" xlink:title=" ">
<polygon fill="white" stroke="#666666" points="685,-496.5 583,-496.5 583,-477.5 685,-477.5 685,-496.5"/>
<text text-anchor="middle" x="634" y="-484.5" font-family="Helvetica,sans-Serif" font-size="10.00">CompareModelsIDs</text>
</a>
</g>
</g>
<!-- Node17&#45;&gt;Node18 -->
<g id="edge20" class="edge">
<title>Node17&#45;&gt;Node18</title>
<path fill="none" stroke="#63b8ff" d="M738.93,-487C722.03,-487 702.72,-487 685.37,-487"/>
<polygon fill="#63b8ff" stroke="#63b8ff" points="738.68,-490.5 748.68,-487 738.68,-483.5 738.68,-490.5"/>
</g>
<!-- Node19 -->
<g id="node19" class="node">
<title>Node19</title>
<g id="a_node19"><a xlink:href="ModelMatch_8h.html#a494cb4acb30856d1f53f08df1b80c41b" target="_top" xlink:title=" ">
<polygon fill="white" stroke="#666666" points="547,-496.5 428,-496.5 428,-477.5 547,-477.5 547,-496.5"/>
<text text-anchor="middle" x="487.5" y="-484.5" font-family="Helvetica,sans-Serif" font-size="10.00">GetModelsMacAddress</text>
</a>
</g>
</g>
<!-- Node18&#45;&gt;Node19 -->
<g id="edge21" class="edge">
<title>Node18&#45;&gt;Node19</title>
<path fill="none" stroke="#63b8ff" d="M571.42,-487C563.48,-487 555.37,-487 547.49,-487"/>
<polygon fill="#63b8ff" stroke="#63b8ff" points="571.35,-490.5 581.35,-487 571.35,-483.5 571.35,-490.5"/>
</g>
<!-- Node20 -->
<g id="node20" class="node">
<title>Node20</title>
<g id="a_node20"><a xlink:href="TransmitterCode_2src_2main_8cpp.html#a694f4f5a0147f4dc29b0bc1a8951547d" target="_top" xlink:title=" ">
<polygon fill="white" stroke="#666666" points="392,-496.5 298,-496.5 298,-477.5 392,-477.5 392,-496.5"/>
<text text-anchor="middle" x="345" y="-484.5" font-family="Helvetica,sans-Serif" font-size="10.00">ParseAckPayload</text>
</a>
</g>
</g>
<!-- Node19&#45;&gt;Node20 -->
<g id="edge22" class="edge">
<title>Node19&#45;&gt;Node20</title>
<path fill="none" stroke="#63b8ff" d="M416.22,-487C408.05,-487 399.87,-487 392.14,-487"/>
<polygon fill="#63b8ff" stroke="#63b8ff" points="416.22,-490.5 426.22,-487 416.22,-483.5 416.22,-490.5"/>
</g>
<!-- Node21 -->
<g id="node21" class="node">
<title>Node21</title>
<g id="a_node21"><a xlink:href="transceiver_8h.html#a1c11bb6771548de7d96723045b922620" target="_top" xlink:title=" ">
<polygon fill="white" stroke="#666666" points="262,-496.5 166,-496.5 166,-477.5 262,-477.5 262,-496.5"/>
<text text-anchor="middle" x="214" y="-484.5" font-family="Helvetica,sans-Serif" font-size="10.00">SuccessfulPacket</text>
</a>
</g>
</g>
<!-- Node20&#45;&gt;Node21 -->
<g id="edge23" class="edge">
<title>Node20&#45;&gt;Node21</title>
<path fill="none" stroke="#63b8ff" d="M286.47,-487C278.35,-487 270.08,-487 262.19,-487"/>
<polygon fill="#63b8ff" stroke="#63b8ff" points="286.28,-490.5 296.28,-487 286.28,-483.5 286.28,-490.5"/>
</g>
<!-- Node22 -->
<g id="node22" class="node">
<title>Node22</title>
<g id="a_node22"><a xlink:href="transceiver_8h.html#a049bfb836e7aa4a3a48a1a4bd225fafc" target="_top" xlink:title=" ">
<polygon fill="white" stroke="#666666" points="130,-496.5 71,-496.5 71,-477.5 130,-477.5 130,-496.5"/>
<text text-anchor="middle" x="100.5" y="-484.5" font-family="Helvetica,sans-Serif" font-size="10.00">SendData</text>
</a>
</g>
</g>
<!-- Node21&#45;&gt;Node22 -->
<g id="edge24" class="edge">
<title>Node21&#45;&gt;Node22</title>
<path fill="none" stroke="#63b8ff" d="M154.39,-487C146.07,-487 137.83,-487 130.43,-487"/>
<polygon fill="#63b8ff" stroke="#63b8ff" points="154.2,-490.5 164.2,-487 154.2,-483.5 154.2,-490.5"/>
</g>
<!-- Node22&#45;&gt;Node9 -->
<g id="edge25" class="edge">
<title>Node22&#45;&gt;Node9</title>
<path fill="none" stroke="#63b8ff" d="M107.26,-466.25C127.36,-398.79 201.12,-190 344,-190 938.5,-190 938.5,-190 938.5,-190 1044.27,-190 1166.73,-220.74 1224.32,-237.07"/>
<polygon fill="#63b8ff" stroke="#63b8ff" points="103.95,-465.09 104.54,-475.66 110.67,-467.03 103.95,-465.09"/>
</g>
<!-- Node23 -->
<g id="node23" class="node">
<title>Node23</title>
<g id="a_node23"><a xlink:href="TransmitterCode_2src_2main_8cpp.html#ad3cb30894c94eb016e98bdcaa899ac86" target="_top" xlink:title=" ">
<polygon fill="white" stroke="#666666" points="35,-515.5 0,-515.5 0,-496.5 35,-496.5 35,-515.5"/>
<text text-anchor="middle" x="17.5" y="-503.5" font-family="Helvetica,sans-Serif" font-size="10.00">loop</text>
</a>
</g>
</g>
<!-- Node22&#45;&gt;Node23 -->
<g id="edge26" class="edge">
<title>Node22&#45;&gt;Node23</title>
<path fill="none" stroke="#63b8ff" d="M59.63,-496.35C51.08,-498.36 42.5,-500.37 35.4,-502.04"/>
<polygon fill="#63b8ff" stroke="#63b8ff" points="60.3,-499.79 69.24,-494.1 58.71,-492.97 60.3,-499.79"/>
</g>
<!-- Node29&#45;&gt;Node23 -->
<g id="edge34" class="edge">
<title>Node29&#45;&gt;Node23</title>
<path fill="none" stroke="#63b8ff" d="M571.85,-573.94C513.8,-568.71 424.05,-562 346,-562 346,-562 346,-562 213,-562 145.01,-562 68.68,-530.01 35.46,-514.38"/>
<polygon fill="#63b8ff" stroke="#63b8ff" points="571.24,-577.4 581.52,-574.82 571.88,-570.43 571.24,-577.4"/>
</g>
<!-- Node30&#45;&gt;Node14 -->
<g id="edge36" class="edge">
<title>Node30&#45;&gt;Node14</title>
<path fill="none" stroke="#63b8ff" d="M905.74,-519.54C889.14,-527.08 868.18,-536.13 849,-543 840.97,-545.88 832.24,-548.61 823.9,-551.04"/>
<polygon fill="#63b8ff" stroke="#63b8ff" points="906.95,-522.83 914.57,-515.47 904.02,-516.48 906.95,-522.83"/>
</g>
<!-- Node30&#45;&gt;Node17 -->
<g id="edge37" class="edge">
<title>Node30&#45;&gt;Node17</title>
<path fill="none" stroke="#63b8ff" d="M899.98,-500.63C875.54,-497.71 843.6,-493.89 819.75,-491.04"/>
<polygon fill="#63b8ff" stroke="#63b8ff" points="899.46,-504.1 909.81,-501.81 900.29,-497.14 899.46,-504.1"/>
</g>
<!-- Node30&#45;&gt;Node27 -->
<g id="edge38" class="edge">
<title>Node30&#45;&gt;Node27</title>
<path fill="none" stroke="#63b8ff" d="M900.18,-509.59C876.94,-512.52 846.87,-516.32 823.42,-519.28"/>
<polygon fill="#63b8ff" stroke="#63b8ff" points="900.33,-513.09 909.81,-508.37 899.45,-506.15 900.33,-513.09"/>
</g>
<!-- Node31&#45;&gt;Node3 -->
<g id="edge46" class="edge">
<title>Node31&#45;&gt;Node3</title>
<path fill="none" stroke="#63b8ff" d="M1458.55,-130.47C1450.39,-131.52 1441.96,-132.44 1434,-133 1394.54,-135.78 1384.49,-135.34 1345,-133 1202.47,-124.54 1166.81,-118.62 1026,-95 1001.16,-90.83 972.72,-84.33 955.18,-80.12"/>
<polygon fill="#63b8ff" stroke="#63b8ff" points="1458.9,-133.96 1468.32,-129.12 1457.94,-127.02 1458.9,-133.96"/>
</g>
<!-- Node31&#45;&gt;Node8 -->
<g id="edge42" class="edge">
<title>Node31&#45;&gt;Node8</title>
<path fill="none" stroke="#63b8ff" d="M1479.18,-138.81C1465.83,-147.06 1449.12,-157.23 1434,-166 1425.79,-170.76 1416.61,-175.86 1408.8,-180.13"/>
<polygon fill="#63b8ff" stroke="#63b8ff" points="1480.72,-141.97 1487.37,-133.73 1477.03,-136.03 1480.72,-141.97"/>
</g>
<!-- Node32 -->
<g id="node32" class="node">
<title>Node32</title>
<g id="a_node32"><a xlink:href="radio_8h.html#a6f74cdb7b32a3aa9e9342661bd44ad1a" target="_top" xlink:title=" ">
<polygon fill="white" stroke="#666666" points="1434,-123.5 1345,-123.5 1345,-104.5 1434,-104.5 1434,-123.5"/>
<text text-anchor="middle" x="1389.5" y="-111.5" font-family="Helvetica,sans-Serif" font-size="10.00">KeepSbusHappy</text>
</a>
</g>
</g>
<!-- Node31&#45;&gt;Node32 -->
<g id="edge43" class="edge">
<title>Node31&#45;&gt;Node32</title>
<path fill="none" stroke="#63b8ff" d="M1458.36,-119.36C1450.45,-118.73 1442.24,-118.08 1434.39,-117.46"/>
<polygon fill="#63b8ff" stroke="#63b8ff" points="1457.92,-122.83 1468.17,-120.13 1458.47,-115.86 1457.92,-122.83"/>
</g>
<!-- Node32&#45;&gt;Node4 -->
<g id="edge45" class="edge">
<title>Node32&#45;&gt;Node4</title>
<path fill="none" stroke="#63b8ff" d="M1343.64,-100.79C1325.95,-95.57 1306.07,-89.72 1290.08,-85.01"/>
<polygon fill="#63b8ff" stroke="#63b8ff" points="1342.57,-104.12 1353.15,-103.59 1344.55,-97.41 1342.57,-104.12"/>
</g>
<!-- Node32&#45;&gt;Node5 -->
<g id="edge44" class="edge">
<title>Node32&#45;&gt;Node5</title>
<path fill="none" stroke="#63b8ff" d="M1333.44,-109.2C1297.63,-105.84 1249.95,-100.89 1208,-95 1183.68,-91.58 1156.45,-86.79 1135.41,-82.87"/>
<polygon fill="#63b8ff" stroke="#63b8ff" points="1332.84,-112.66 1343.12,-110.1 1333.49,-105.69 1332.84,-112.66"/>
</g>
</g>
</svg>
