<?xml version="1.0" encoding="UTF-8" standalone="no"?>
<!DOCTYPE svg PUBLIC "-//W3C//DTD SVG 1.1//EN"
 "http://www.w3.org/Graphics/SVG/1.1/DTD/svg11.dtd">
<!-- Generated by graphviz version 7.0.4 (20221203.1631)
 -->
<!-- Title: GotoModelsView Pages: 1 -->
<svg width="1542pt" height="1147pt"
 viewBox="0.00 0.00 1542.00 1146.50" xmlns="http://www.w3.org/2000/svg" xmlns:xlink="http://www.w3.org/1999/xlink">
<g id="graph0" class="graph" transform="scale(1 1) rotate(0) translate(4 1142.5)">
<title>GotoModelsView</title>
<!-- Node1 -->
<g id="node1" class="node">
<title>Node1</title>
<g id="a_node1"><a xlink:title=" ">
<polygon fill="#999999" stroke="#666666" points="91,-678 0,-678 0,-659 91,-659 91,-678"/>
<text text-anchor="middle" x="45.5" y="-666" font-family="Helvetica,sans-Serif" font-size="10.00">GotoModelsView</text>
</a>
</g>
</g>
<!-- Node2 -->
<g id="node2" class="node">
<title>Node2</title>
<g id="a_node2"><a xlink:href="TransmitterCode_2src_2main_8cpp.html#affc6c0de18db71aa5ad8b4d241339731" target="_top" xlink:title=" ">
<polygon fill="white" stroke="#666666" points="210.5,-1110 133.5,-1110 133.5,-1091 210.5,-1091 210.5,-1110"/>
<text text-anchor="middle" x="172" y="-1098" font-family="Helvetica,sans-Serif" font-size="10.00">BuildDirectory</text>
</a>
</g>
</g>
<!-- Node1&#45;&gt;Node2 -->
<g id="edge1" class="edge">
<title>Node1&#45;&gt;Node2</title>
<path fill="none" stroke="#63b8ff" d="M47.3,-678.2C52.04,-733.57 77.87,-1009.56 127,-1076.5 129.09,-1079.35 131.64,-1081.91 134.43,-1084.18"/>
<polygon fill="#63b8ff" stroke="#63b8ff" points="132.44,-1087.06 142.7,-1089.7 136.32,-1081.24 132.44,-1087.06"/>
</g>
<!-- Node5 -->
<g id="node5" class="node">
<title>Node5</title>
<g id="a_node5"><a xlink:href="TransmitterCode_2src_2main_8cpp.html#a824f2e559561add2deadb0d3033c8510" target="_top" xlink:title=" ">
<polygon fill="white" stroke="#666666" points="217,-697 127,-697 127,-678 217,-678 217,-697"/>
<text text-anchor="middle" x="172" y="-685" font-family="Helvetica,sans-Serif" font-size="10.00">LoadFileSelector</text>
</a>
</g>
</g>
<!-- Node1&#45;&gt;Node5 -->
<g id="edge4" class="edge">
<title>Node1&#45;&gt;Node5</title>
<path fill="none" stroke="#63b8ff" d="M91.45,-675.36C99.21,-676.54 107.37,-677.79 115.37,-679.01"/>
<polygon fill="#63b8ff" stroke="#63b8ff" points="114.63,-682.44 125.04,-680.49 115.68,-675.52 114.63,-682.44"/>
</g>
<!-- Node29 -->
<g id="node17" class="node">
<title>Node29</title>
<g id="a_node17"><a xlink:href="TransmitterCode_2src_2main_8cpp.html#aecac2f0c289f02ef3c92b85be82eacac" target="_top" xlink:title=" ">
<polygon fill="white" stroke="#666666" points="1413.5,-796 1330.5,-796 1330.5,-777 1413.5,-777 1413.5,-796"/>
<text text-anchor="middle" x="1372" y="-784" font-family="Helvetica,sans-Serif" font-size="10.00">SendCommand</text>
</a>
</g>
</g>
<!-- Node1&#45;&gt;Node29 -->
<g id="edge68" class="edge">
<title>Node1&#45;&gt;Node29</title>
<path fill="none" stroke="#63b8ff" d="M47.57,-678.24C54.83,-738.91 102.26,-1062.5 288.5,-1062.5 288.5,-1062.5 288.5,-1062.5 1088,-1062.5 1180.36,-1062.5 1223.06,-1088.82 1293,-1028.5 1360.06,-970.67 1369.92,-854.87 1371.04,-807.46"/>
<polygon fill="#63b8ff" stroke="#63b8ff" points="1374.54,-807.8 1371.15,-797.76 1367.54,-807.72 1374.54,-807.8"/>
</g>
<!-- Node110 -->
<g id="node33" class="node">
<title>Node110</title>
<g id="a_node33"><a xlink:href="TransmitterCode_2src_2main_8cpp.html#a6684199e9da3ca0bdb0e01260eec7e30" target="_top" xlink:title=" ">
<polygon fill="white" stroke="#666666" points="796,-621 695,-621 695,-602 796,-602 796,-621"/>
<text text-anchor="middle" x="745.5" y="-609" font-family="Helvetica,sans-Serif" font-size="10.00">LoadModelSelector</text>
</a>
</g>
</g>
<!-- Node1&#45;&gt;Node110 -->
<g id="edge44" class="edge">
<title>Node1&#45;&gt;Node110</title>
<path fill="none" stroke="#63b8ff" d="M85.61,-658.52C133.21,-647.26 216.2,-630.5 288.5,-630.5 288.5,-630.5 288.5,-630.5 520.5,-630.5 575.79,-630.5 638.48,-624.68 683.46,-619.48"/>
<polygon fill="#63b8ff" stroke="#63b8ff" points="683.76,-622.97 693.28,-618.32 682.94,-616.02 683.76,-622.97"/>
</g>
<!-- Node111 -->
<g id="node48" class="node">
<title>Node111</title>
<g id="a_node48"><a xlink:href="TransmitterCode_2src_2main_8cpp.html#aa337d6e5cf496fbca7cdc61818f8239a" target="_top" xlink:title="updates display in textbox">
<polygon fill="white" stroke="#666666" points="454,-463 362,-463 362,-444 454,-444 454,-463"/>
<text text-anchor="middle" x="408" y="-451" font-family="Helvetica,sans-Serif" font-size="10.00">ShowFileNumber</text>
</a>
</g>
</g>
<!-- Node1&#45;&gt;Node111 -->
<g id="edge69" class="edge">
<title>Node1&#45;&gt;Node111</title>
<path fill="none" stroke="#63b8ff" d="M61.5,-658.51C77.57,-647.89 103.88,-630.68 127,-616.5 218.53,-560.34 329.27,-497.29 379.66,-468.86"/>
<polygon fill="#63b8ff" stroke="#63b8ff" points="381.15,-472.03 388.15,-464.07 377.72,-465.93 381.15,-472.03"/>
</g>
<!-- Node72 -->
<g id="node49" class="node">
<title>Node72</title>
<g id="a_node49"><a xlink:href="TransmitterCode_2src_2main_8cpp.html#a9e1de754e1d2d483fb15957f70cf0488" target="_top" xlink:title=" ">
<polygon fill="white" stroke="#666666" points="990,-266 832,-266 832,-247 990,-247 990,-266"/>
<text text-anchor="middle" x="911" y="-254" font-family="Helvetica,sans-Serif" font-size="10.00">UpdateModelsNameEveryWhere</text>
</a>
</g>
</g>
<!-- Node1&#45;&gt;Node72 -->
<g id="edge71" class="edge">
<title>Node1&#45;&gt;Node72</title>
<path fill="none" stroke="#63b8ff" d="M47.58,-658.79C54.89,-598.27 102.6,-275.5 288.5,-275.5 288.5,-275.5 288.5,-275.5 623,-275.5 689.1,-275.5 763.59,-270.42 820.11,-265.51"/>
<polygon fill="#63b8ff" stroke="#63b8ff" points="820.36,-269 830.02,-264.64 819.75,-262.03 820.36,-269"/>
</g>
<!-- Node3 -->
<g id="node3" class="node">
<title>Node3</title>
<g id="a_node3"><a xlink:href="TransmitterCode_2src_2main_8cpp.html#a5f109790a6fe0b972a502f3cac4ed1e7" target="_top" xlink:title=" ">
<polygon fill="white" stroke="#666666" points="1516.5,-983 1468.5,-983 1468.5,-964 1516.5,-964 1516.5,-983"/>
<text text-anchor="middle" x="1492.5" y="-971" font-family="Helvetica,sans-Serif" font-size="10.00">InStrng</text>
</a>
</g>
</g>
<!-- Node2&#45;&gt;Node3 -->
<g id="edge2" class="edge">
<title>Node2&#45;&gt;Node3</title>
<path fill="none" stroke="#63b8ff" d="M210.79,-1110.48C256.8,-1121.74 337.03,-1138.5 407,-1138.5 407,-1138.5 407,-1138.5 1239.5,-1138.5 1345.26,-1138.5 1441.2,-1035.52 1476.82,-992.27"/>
<polygon fill="#63b8ff" stroke="#63b8ff" points="1479.53,-994.49 1483.08,-984.51 1474.08,-990.1 1479.53,-994.49"/>
</g>
<!-- Node4 -->
<g id="node4" class="node">
<title>Node4</title>
<g id="a_node4"><a xlink:href="TransmitterCode_2src_2main_8cpp.html#a113f8bee0942b732f19881466ef0f42d" target="_top" xlink:title=" ">
<polygon fill="white" stroke="#666666" points="326,-1110 253,-1110 253,-1091 326,-1091 326,-1110"/>
<text text-anchor="middle" x="289.5" y="-1098" font-family="Helvetica,sans-Serif" font-size="10.00">SortDirectory</text>
</a>
</g>
</g>
<!-- Node2&#45;&gt;Node4 -->
<g id="edge3" class="edge">
<title>Node2&#45;&gt;Node4</title>
<path fill="none" stroke="#63b8ff" d="M210.82,-1100.5C220.57,-1100.5 231.19,-1100.5 241.35,-1100.5"/>
<polygon fill="#63b8ff" stroke="#63b8ff" points="241.05,-1104 251.05,-1100.5 241.05,-1097 241.05,-1104"/>
</g>
<!-- Node6 -->
<g id="node6" class="node">
<title>Node6</title>
<g id="a_node6"><a xlink:href="TransmitterCode_2src_2main_8cpp.html#a6e4fac4e296c09388b8b56353402d67a" target="_top" xlink:title=" ">
<polygon fill="white" stroke="#666666" points="318,-810 261,-810 261,-791 318,-791 318,-810"/>
<text text-anchor="middle" x="289.5" y="-798" font-family="Helvetica,sans-Serif" font-size="10.00">GetValue</text>
</a>
</g>
</g>
<!-- Node5&#45;&gt;Node6 -->
<g id="edge5" class="edge">
<title>Node5&#45;&gt;Node6</title>
<path fill="none" stroke="#63b8ff" d="M182.85,-697.13C202.18,-716.05 245.39,-758.32 270.14,-782.54"/>
<polygon fill="#63b8ff" stroke="#63b8ff" points="267.67,-785.02 277.27,-789.51 272.57,-780.01 267.67,-785.02"/>
</g>
<!-- Node109 -->
<g id="node32" class="node">
<title>Node109</title>
<g id="a_node32"><a xlink:href="TransmitterCode_2src_2main_8cpp.html#a2124579df12bdc81995d8d8dc4f47734" target="_top" xlink:title=" ">
<polygon fill="white" stroke="#666666" points="952,-697 870,-697 870,-678 952,-678 952,-697"/>
<text text-anchor="middle" x="911" y="-685" font-family="Helvetica,sans-Serif" font-size="10.00">SendOtherText</text>
</a>
</g>
</g>
<!-- Node5&#45;&gt;Node109 -->
<g id="edge41" class="edge">
<title>Node5&#45;&gt;Node109</title>
<path fill="none" stroke="#63b8ff" d="M217.42,-687.5C264.49,-687.5 340.98,-687.5 407,-687.5 407,-687.5 407,-687.5 623,-687.5 705.28,-687.5 800.82,-687.5 858.28,-687.5"/>
<polygon fill="#63b8ff" stroke="#63b8ff" points="858.09,-691 868.09,-687.5 858.09,-684 858.09,-691"/>
</g>
<!-- Node7 -->
<g id="node7" class="node">
<title>Node7</title>
<g id="a_node7"><a xlink:href="TransmitterCode_2src_2main_8cpp.html#aff6fa8906188d3249b01bf59de47df2f" target="_top" xlink:title=" ">
<polygon fill="white" stroke="#666666" points="434.5,-810 381.5,-810 381.5,-791 434.5,-791 434.5,-810"/>
<text text-anchor="middle" x="408" y="-798" font-family="Helvetica,sans-Serif" font-size="10.00">getvalue</text>
</a>
</g>
</g>
<!-- Node6&#45;&gt;Node7 -->
<g id="edge6" class="edge">
<title>Node6&#45;&gt;Node7</title>
<path fill="none" stroke="#63b8ff" d="M318.4,-800.5C333.94,-800.5 353.46,-800.5 370.23,-800.5"/>
<polygon fill="#63b8ff" stroke="#63b8ff" points="369.8,-804 379.8,-800.5 369.8,-797 369.8,-804"/>
</g>
<!-- Node9 -->
<g id="node9" class="node">
<title>Node9</title>
<g id="a_node9"><a xlink:href="RadioFunctions_8cpp.html#a760609a682300dfe6bfaac737fd4d5eb" target="_top" xlink:title=" ">
<polygon fill="white" stroke="#666666" points="659,-867 585,-867 585,-848 659,-848 659,-867"/>
<text text-anchor="middle" x="622" y="-855" font-family="Helvetica,sans-Serif" font-size="10.00">Procrastinate</text>
</a>
</g>
</g>
<!-- Node6&#45;&gt;Node9 -->
<g id="edge40" class="edge">
<title>Node6&#45;&gt;Node9</title>
<path fill="none" stroke="#63b8ff" d="M318.2,-808.14C331.4,-811.61 347.44,-815.58 362,-818.5 435.36,-833.22 521.43,-845.13 573.55,-851.76"/>
<polygon fill="#63b8ff" stroke="#63b8ff" points="572.91,-855.21 583.27,-852.99 573.79,-848.26 572.91,-855.21"/>
</g>
<!-- Node8 -->
<g id="node8" class="node">
<title>Node8</title>
<g id="a_node8"><a xlink:href="TransmitterCode_2src_2main_8cpp.html#ad7b8aa834c87265667a5687b1787a1cc" target="_top" xlink:title=" ">
<polygon fill="white" stroke="#666666" points="547.5,-792 491.5,-792 491.5,-773 547.5,-773 547.5,-792"/>
<text text-anchor="middle" x="519.5" y="-780" font-family="Helvetica,sans-Serif" font-size="10.00">EndSend</text>
</a>
</g>
</g>
<!-- Node7&#45;&gt;Node8 -->
<g id="edge7" class="edge">
<title>Node7&#45;&gt;Node8</title>
<path fill="none" stroke="#63b8ff" d="M434.95,-796.23C448.46,-794.01 465.23,-791.26 480.2,-788.8"/>
<polygon fill="#63b8ff" stroke="#63b8ff" points="480.41,-792.31 489.71,-787.23 479.28,-785.4 480.41,-792.31"/>
</g>
<!-- Node108 -->
<g id="node31" class="node">
<title>Node108</title>
<g id="a_node31"><a xlink:href="TransmitterCode_2src_2main_8cpp.html#a6fe457db5d6bc71ccb447dee824abf6a" target="_top" xlink:title=" ">
<polygon fill="white" stroke="#666666" points="549,-829 490,-829 490,-810 549,-810 549,-829"/>
<text text-anchor="middle" x="519.5" y="-817" font-family="Helvetica,sans-Serif" font-size="10.00">GetTextIn</text>
</a>
</g>
</g>
<!-- Node7&#45;&gt;Node108 -->
<g id="edge39" class="edge">
<title>Node7&#45;&gt;Node108</title>
<path fill="none" stroke="#63b8ff" d="M434.95,-805C447.92,-807.25 463.92,-810.03 478.42,-812.55"/>
<polygon fill="#63b8ff" stroke="#63b8ff" points="477.71,-815.97 488.16,-814.24 478.91,-809.08 477.71,-815.97"/>
</g>
<!-- Node8&#45;&gt;Node9 -->
<g id="edge8" class="edge">
<title>Node8&#45;&gt;Node9</title>
<path fill="none" stroke="#63b8ff" d="M536.97,-792.49C540.96,-795.02 545.18,-797.79 549,-800.5 567.14,-813.35 586.88,-829.12 601.1,-840.81"/>
<polygon fill="#63b8ff" stroke="#63b8ff" points="598.47,-843.18 608.4,-846.86 602.94,-837.79 598.47,-843.18"/>
</g>
<!-- Node10 -->
<g id="node10" class="node">
<title>Node10</title>
<g id="a_node10"><a xlink:href="TransmitterCode_2src_2main_8cpp.html#ada95a00a341e4a80176eda743a94ab2e" target="_top" xlink:title=" ">
<polygon fill="white" stroke="#666666" points="780.5,-848 710.5,-848 710.5,-829 780.5,-829 780.5,-848"/>
<text text-anchor="middle" x="745.5" y="-836" font-family="Helvetica,sans-Serif" font-size="10.00">KickTheDog</text>
</a>
</g>
</g>
<!-- Node9&#45;&gt;Node10 -->
<g id="edge9" class="edge">
<title>Node9&#45;&gt;Node10</title>
<path fill="none" stroke="#63b8ff" d="M659.45,-851.8C671.89,-849.85 685.95,-847.66 699,-845.61"/>
<polygon fill="#63b8ff" stroke="#63b8ff" points="699.32,-849.11 708.66,-844.11 698.24,-842.19 699.32,-849.11"/>
</g>
<!-- Node11 -->
<g id="node11" class="node">
<title>Node11</title>
<g id="a_node11"><a xlink:href="RadioFunctions_8cpp.html#a049bfb836e7aa4a3a48a1a4bd225fafc" target="_top" xlink:title=" ">
<polygon fill="white" stroke="#666666" points="775,-885 716,-885 716,-866 775,-866 775,-885"/>
<text text-anchor="middle" x="745.5" y="-873" font-family="Helvetica,sans-Serif" font-size="10.00">SendData</text>
</a>
</g>
</g>
<!-- Node9&#45;&gt;Node11 -->
<g id="edge10" class="edge">
<title>Node9&#45;&gt;Node11</title>
<path fill="none" stroke="#63b8ff" d="M659.45,-862.9C673.68,-865.01 690.04,-867.43 704.59,-869.59"/>
<polygon fill="#63b8ff" stroke="#63b8ff" points="703.89,-873.02 714.29,-871.02 704.91,-866.1 703.89,-873.02"/>
</g>
<!-- Node12 -->
<g id="node12" class="node">
<title>Node12</title>
<g id="a_node12"><a xlink:href="RadioFunctions_8cpp.html#a5fbd3c8613a4163425c94965704ce5f8" target="_top" xlink:title=" ">
<polygon fill="white" stroke="#666666" points="948,-811 874,-811 874,-792 948,-792 948,-811"/>
<text text-anchor="middle" x="911" y="-799" font-family="Helvetica,sans-Serif" font-size="10.00">FailedPacket</text>
</a>
</g>
</g>
<!-- Node11&#45;&gt;Node12 -->
<g id="edge11" class="edge">
<title>Node11&#45;&gt;Node12</title>
<path fill="none" stroke="#63b8ff" d="M775.28,-866.86C782.35,-864.1 789.7,-860.65 796,-856.5 815.16,-843.87 812.01,-830.76 832,-819.5 841.34,-814.24 852.13,-810.52 862.65,-807.88"/>
<polygon fill="#63b8ff" stroke="#63b8ff" points="863.37,-811.3 872.39,-805.75 861.88,-804.47 863.37,-811.3"/>
</g>
<!-- Node52 -->
<g id="node23" class="node">
<title>Node52</title>
<g id="a_node23"><a xlink:href="RadioFunctions_8cpp.html#a07c27b4e208198453c70876517926052" target="_top" xlink:title=" ">
<polygon fill="white" stroke="#666666" points="942,-885 880,-885 880,-866 942,-866 942,-885"/>
<text text-anchor="middle" x="911" y="-873" font-family="Helvetica,sans-Serif" font-size="10.00">FlushFifos</text>
</a>
</g>
</g>
<!-- Node11&#45;&gt;Node52 -->
<g id="edge28" class="edge">
<title>Node11&#45;&gt;Node52</title>
<path fill="none" stroke="#63b8ff" d="M775.35,-875.5C801.14,-875.5 839.22,-875.5 868.32,-875.5"/>
<polygon fill="#63b8ff" stroke="#63b8ff" points="868.26,-879 878.26,-875.5 868.26,-872 868.26,-879"/>
</g>
<!-- Node53 -->
<g id="node24" class="node">
<title>Node53</title>
<g id="a_node24"><a xlink:href="TransmitterCode_2src_2main_8cpp.html#ac4ffb9b555ce8d38f615610dc89b5499" target="_top" xlink:title=" ">
<polygon fill="white" stroke="#666666" points="1131.5,-996 1042.5,-996 1042.5,-977 1131.5,-977 1131.5,-996"/>
<text text-anchor="middle" x="1087" y="-984" font-family="Helvetica,sans-Serif" font-size="10.00">LoadPacketData</text>
</a>
</g>
</g>
<!-- Node11&#45;&gt;Node53 -->
<g id="edge29" class="edge">
<title>Node11&#45;&gt;Node53</title>
<path fill="none" stroke="#63b8ff" d="M758.74,-885.4C774.67,-897.78 803.81,-918.77 832,-930.5 897.64,-957.81 978.62,-972.71 1031.24,-980.14"/>
<polygon fill="#63b8ff" stroke="#63b8ff" points="1030.46,-983.56 1040.85,-981.45 1031.41,-976.63 1030.46,-983.56"/>
</g>
<!-- Node56 -->
<g id="node27" class="node">
<title>Node56</title>
<g id="a_node27"><a xlink:href="ReceiverCode_2src_2main_8cpp.html#a6a495c5560f12cc3fd3df9454927d681" target="_top" xlink:title=" ">
<polygon fill="white" stroke="#666666" points="948,-848 874,-848 874,-829 948,-829 948,-848"/>
<text text-anchor="middle" x="911" y="-836" font-family="Helvetica,sans-Serif" font-size="10.00">MapToSBUS</text>
</a>
</g>
</g>
<!-- Node11&#45;&gt;Node56 -->
<g id="edge34" class="edge">
<title>Node11&#45;&gt;Node56</title>
<path fill="none" stroke="#63b8ff" d="M775.35,-868.97C799.55,-863.49 834.59,-855.57 862.85,-849.17"/>
<polygon fill="#63b8ff" stroke="#63b8ff" points="863.25,-852.67 872.24,-847.05 861.71,-845.84 863.25,-852.67"/>
</g>
<!-- Node57 -->
<g id="node28" class="node">
<title>Node57</title>
<g id="a_node28"><a xlink:href="RadioFunctions_8cpp.html#a1c11bb6771548de7d96723045b922620" target="_top" xlink:title=" ">
<polygon fill="#fff0f0" stroke="red" points="959,-922 863,-922 863,-903 959,-903 959,-922"/>
<text text-anchor="middle" x="911" y="-910" font-family="Helvetica,sans-Serif" font-size="10.00">SuccessfulPacket</text>
</a>
</g>
</g>
<!-- Node11&#45;&gt;Node57 -->
<g id="edge35" class="edge">
<title>Node11&#45;&gt;Node57</title>
<path fill="none" stroke="#63b8ff" d="M775.35,-882.03C797.33,-887 828.25,-894 854.92,-900.04"/>
<polygon fill="#63b8ff" stroke="#63b8ff" points="854.05,-903.43 864.57,-902.22 855.59,-896.6 854.05,-903.43"/>
</g>
<!-- Node13 -->
<g id="node13" class="node">
<title>Node13</title>
<g id="a_node13"><a xlink:href="TransmitterCode_2src_2main_8cpp.html#afd409fe008843b50c3e2ff697558d4d5" target="_top" xlink:title=" ">
<polygon fill="#fff0f0" stroke="red" points="1284.5,-658 1192.5,-658 1192.5,-639 1284.5,-639 1284.5,-658"/>
<text text-anchor="middle" x="1238.5" y="-646" font-family="Helvetica,sans-Serif" font-size="10.00">LogThisLongGap</text>
</a>
</g>
</g>
<!-- Node12&#45;&gt;Node13 -->
<g id="edge12" class="edge">
<title>Node12&#45;&gt;Node13</title>
<path fill="none" stroke="#63b8ff" d="M932.86,-791.7C988.42,-765.58 1140.24,-694.22 1206.21,-663.21"/>
<polygon fill="#63b8ff" stroke="#63b8ff" points="1207.46,-666.49 1215.03,-659.06 1204.49,-660.15 1207.46,-666.49"/>
</g>
<!-- Node24 -->
<g id="node15" class="node">
<title>Node24</title>
<g id="a_node15"><a xlink:href="RadioFunctions_8cpp.html#afc091b5942e21a03f6dc8635d5e519ba" target="_top" xlink:title=" ">
<polygon fill="white" stroke="#666666" points="1148,-885 1026,-885 1026,-866 1148,-866 1148,-885"/>
<text text-anchor="middle" x="1087" y="-873" font-family="Helvetica,sans-Serif" font-size="10.00">RecordsPacketSuccess</text>
</a>
</g>
</g>
<!-- Node12&#45;&gt;Node24 -->
<g id="edge14" class="edge">
<title>Node12&#45;&gt;Node24</title>
<path fill="none" stroke="#63b8ff" d="M948.13,-805.43C961.88,-808.02 977.29,-812.34 990,-819.5 1009.99,-830.76 1006.47,-844.45 1026,-856.5 1028.75,-858.19 1031.66,-859.75 1034.66,-861.18"/>
<polygon fill="#63b8ff" stroke="#63b8ff" points="1033.13,-864.33 1043.71,-864.97 1035.83,-857.88 1033.13,-864.33"/>
</g>
<!-- Node25 -->
<g id="node16" class="node">
<title>Node25</title>
<g id="a_node16"><a xlink:href="TransmitterCode_2src_2main_8cpp.html#a7d34cec6e8edc20c8b50424e15dcc7c7" target="_top" xlink:title=" ">
<polygon fill="#fff0f0" stroke="red" points="1118.5,-848 1055.5,-848 1055.5,-829 1118.5,-829 1118.5,-848"/>
<text text-anchor="middle" x="1087" y="-836" font-family="Helvetica,sans-Serif" font-size="10.00">RedLedOn</text>
</a>
</g>
</g>
<!-- Node12&#45;&gt;Node25 -->
<g id="edge15" class="edge">
<title>Node12&#45;&gt;Node25</title>
<path fill="none" stroke="#63b8ff" d="M948.48,-809.26C976.36,-815.19 1014.85,-823.37 1044.02,-829.57"/>
<polygon fill="#63b8ff" stroke="#63b8ff" points="1043.11,-832.96 1053.62,-831.61 1044.56,-826.11 1043.11,-832.96"/>
</g>
<!-- Node47 -->
<g id="node21" class="node">
<title>Node47</title>
<g id="a_node21"><a xlink:href="TransmitterCode_2src_2main_8cpp.html#a0a3d89dfcfab70c6cbc50401fff1afeb" target="_top" xlink:title=" ">
<polygon fill="white" stroke="#666666" points="1293,-773 1184,-773 1184,-754 1293,-754 1293,-773"/>
<text text-anchor="middle" x="1238.5" y="-761" font-family="Helvetica,sans-Serif" font-size="10.00">ReEnableScanButton</text>
</a>
</g>
</g>
<!-- Node12&#45;&gt;Node47 -->
<g id="edge24" class="edge">
<title>Node12&#45;&gt;Node47</title>
<path fill="none" stroke="#63b8ff" d="M948.35,-794.72C970.69,-790.74 999.93,-785.84 1026,-782.5 1074.97,-776.23 1130.58,-771.32 1172.48,-768.06"/>
<polygon fill="#63b8ff" stroke="#63b8ff" points="1172.71,-771.56 1182.41,-767.3 1172.17,-764.58 1172.71,-771.56"/>
</g>
<!-- Node48 -->
<g id="node22" class="node">
<title>Node48</title>
<g id="a_node22"><a xlink:href="RadioFunctions_8cpp.html#ad0236abcfc887ad708d9504c4ab2a7c3" target="_top" xlink:title=" ">
<polygon fill="#fff0f0" stroke="red" points="1131,-811 1043,-811 1043,-792 1131,-792 1131,-811"/>
<text text-anchor="middle" x="1087" y="-799" font-family="Helvetica,sans-Serif" font-size="10.00">TryToReconnect</text>
</a>
</g>
</g>
<!-- Node12&#45;&gt;Node48 -->
<g id="edge27" class="edge">
<title>Node12&#45;&gt;Node48</title>
<path fill="none" stroke="#63b8ff" d="M948.48,-801.5C972.54,-801.5 1004.5,-801.5 1031.55,-801.5"/>
<polygon fill="#63b8ff" stroke="#63b8ff" points="1031.3,-805 1041.3,-801.5 1031.3,-798 1031.3,-805"/>
</g>
<!-- Node19 -->
<g id="node14" class="node">
<title>Node19</title>
<g id="a_node14"><a xlink:href="TransmitterCode_2src_2main_8cpp.html#a590a9174319918d7e3d7baca323fcf26" target="_top" xlink:title=" ">
<polygon fill="white" stroke="#666666" points="1386.5,-621 1357.5,-621 1357.5,-602 1386.5,-602 1386.5,-621"/>
<text text-anchor="middle" x="1372" y="-609" font-family="Helvetica,sans-Serif" font-size="10.00">Str</text>
</a>
</g>
</g>
<!-- Node13&#45;&gt;Node19 -->
<g id="edge13" class="edge">
<title>Node13&#45;&gt;Node19</title>
<path fill="none" stroke="#63b8ff" d="M1274.74,-638.58C1297.27,-632.24 1325.95,-624.18 1346.12,-618.5"/>
<polygon fill="#63b8ff" stroke="#63b8ff" points="1347.04,-621.88 1355.72,-615.8 1345.15,-615.14 1347.04,-621.88"/>
</g>
<!-- Node25&#45;&gt;Node29 -->
<g id="edge16" class="edge">
<title>Node25&#45;&gt;Node29</title>
<path fill="none" stroke="#63b8ff" d="M1118.82,-832.84C1166.91,-824 1260.31,-806.84 1318.96,-796.06"/>
<polygon fill="#63b8ff" stroke="#63b8ff" points="1319.51,-799.52 1328.71,-794.27 1318.24,-792.64 1319.51,-799.52"/>
</g>
<!-- Node31 -->
<g id="node19" class="node">
<title>Node31</title>
<g id="a_node19"><a xlink:href="TransmitterCode_2src_2main_8cpp.html#afe513398f72d5e48f691830a1ef6eb42" target="_top" xlink:title=" ">
<polygon fill="white" stroke="#666666" points="1267.5,-583 1209.5,-583 1209.5,-564 1267.5,-564 1267.5,-583"/>
<text text-anchor="middle" x="1238.5" y="-571" font-family="Helvetica,sans-Serif" font-size="10.00">SendText</text>
</a>
</g>
</g>
<!-- Node25&#45;&gt;Node31 -->
<g id="edge20" class="edge">
<title>Node25&#45;&gt;Node31</title>
<path fill="none" stroke="#63b8ff" d="M1118.81,-835.39C1129.51,-832.77 1140.66,-828.03 1148,-819.5 1214.64,-742.08 1118.71,-671.06 1184,-592.5 1187.94,-587.76 1193.14,-584.21 1198.76,-581.54"/>
<polygon fill="#63b8ff" stroke="#63b8ff" points="1199.59,-584.96 1207.71,-578.16 1197.12,-578.41 1199.59,-584.96"/>
</g>
<!-- Node32 -->
<g id="node20" class="node">
<title>Node32</title>
<g id="a_node20"><a xlink:href="ReceiverCode_2src_2main_8cpp.html#a2eabdb233653fa02f0b899e26b5e8ce7" target="_top" xlink:title=" ">
<polygon fill="white" stroke="#666666" points="1288,-875 1189,-875 1189,-856 1288,-856 1288,-875"/>
<text text-anchor="middle" x="1238.5" y="-863" font-family="Helvetica,sans-Serif" font-size="10.00">SetUKFrequencies</text>
</a>
</g>
</g>
<!-- Node25&#45;&gt;Node32 -->
<g id="edge23" class="edge">
<title>Node25&#45;&gt;Node32</title>
<path fill="none" stroke="#63b8ff" d="M1118.98,-844.09C1135.86,-847.14 1157.33,-851.02 1177.36,-854.64"/>
<polygon fill="#63b8ff" stroke="#63b8ff" points="1176.66,-858.07 1187.12,-856.4 1177.9,-851.18 1176.66,-858.07"/>
</g>
<!-- Node29&#45;&gt;Node3 -->
<g id="edge18" class="edge">
<title>Node29&#45;&gt;Node3</title>
<path fill="none" stroke="#63b8ff" d="M1379.2,-796.29C1397.96,-825.89 1454.32,-914.83 1479.32,-954.28"/>
<polygon fill="#63b8ff" stroke="#63b8ff" points="1476.24,-955.95 1484.55,-962.53 1482.15,-952.21 1476.24,-955.95"/>
</g>
<!-- Node29&#45;&gt;Node9 -->
<g id="edge19" class="edge">
<title>Node29&#45;&gt;Node9</title>
<path fill="none" stroke="#63b8ff" d="M1370.68,-796.43C1369.02,-830.58 1358.56,-943.97 1293,-996.5 1221.23,-1054 1179.96,-1024.5 1088,-1024.5 910,-1024.5 910,-1024.5 910,-1024.5 792.67,-1024.5 680.5,-918.95 639.44,-875.67"/>
<polygon fill="#63b8ff" stroke="#63b8ff" points="642.19,-873.49 632.82,-868.55 637.07,-878.26 642.19,-873.49"/>
</g>
<!-- Node30 -->
<g id="node18" class="node">
<title>Node30</title>
<g id="a_node18"><a xlink:href="TransmitterCode_2src_2main_8cpp.html#a43937dd3d9c795271fd9c3eb3c6b6410" target="_top" xlink:title=" ">
<polygon fill="white" stroke="#666666" points="1534,-678 1451,-678 1451,-659 1534,-659 1534,-678"/>
<text text-anchor="middle" x="1492.5" y="-666" font-family="Helvetica,sans-Serif" font-size="10.00">GetReturnCode</text>
</a>
</g>
</g>
<!-- Node29&#45;&gt;Node30 -->
<g id="edge17" class="edge">
<title>Node29&#45;&gt;Node30</title>
<path fill="none" stroke="#63b8ff" d="M1382.7,-776.84C1402.57,-757.05 1448.2,-711.62 1473.6,-686.32"/>
<polygon fill="#63b8ff" stroke="#63b8ff" points="1475.98,-688.89 1480.6,-679.36 1471.04,-683.93 1475.98,-688.89"/>
</g>
<!-- Node31&#45;&gt;Node29 -->
<g id="edge22" class="edge">
<title>Node31&#45;&gt;Node29</title>
<path fill="none" stroke="#63b8ff" d="M1267.8,-578.72C1276.75,-581.55 1286.1,-585.88 1293,-592.5 1343.46,-640.93 1362.15,-726.36 1368.31,-765.66"/>
<polygon fill="#63b8ff" stroke="#63b8ff" points="1364.82,-765.99 1369.7,-775.39 1371.75,-765 1364.82,-765.99"/>
</g>
<!-- Node31&#45;&gt;Node30 -->
<g id="edge21" class="edge">
<title>Node31&#45;&gt;Node30</title>
<path fill="none" stroke="#63b8ff" d="M1267.79,-571C1303.82,-569.02 1367.14,-569.68 1415,-592.5 1441.82,-605.29 1464.79,-631.44 1478.38,-649.46"/>
<polygon fill="#63b8ff" stroke="#63b8ff" points="1475.5,-651.46 1484.2,-657.51 1481.17,-647.36 1475.5,-651.46"/>
</g>
<!-- Node47&#45;&gt;Node19 -->
<g id="edge26" class="edge">
<title>Node47&#45;&gt;Node19</title>
<path fill="none" stroke="#63b8ff" d="M1248.13,-753.53C1269.87,-728.4 1327.14,-662.2 1355.14,-629.83"/>
<polygon fill="#63b8ff" stroke="#63b8ff" points="1357.63,-632.31 1361.52,-622.46 1352.33,-627.73 1357.63,-632.31"/>
</g>
<!-- Node47&#45;&gt;Node29 -->
<g id="edge25" class="edge">
<title>Node47&#45;&gt;Node29</title>
<path fill="none" stroke="#63b8ff" d="M1293.37,-772.92C1301.85,-774.41 1310.61,-775.94 1319.05,-777.41"/>
<polygon fill="#63b8ff" stroke="#63b8ff" points="1318.36,-780.85 1328.81,-779.12 1319.57,-773.95 1318.36,-780.85"/>
</g>
<!-- Node53&#45;&gt;Node29 -->
<g id="edge31" class="edge">
<title>Node53&#45;&gt;Node29</title>
<path fill="none" stroke="#63b8ff" d="M1131.68,-994.19C1176.52,-999.56 1246.18,-1000.61 1293,-966.5 1345.68,-928.12 1363.19,-846.54 1368.67,-807.79"/>
<polygon fill="#63b8ff" stroke="#63b8ff" points="1372.14,-808.27 1369.91,-797.92 1365.19,-807.4 1372.14,-808.27"/>
</g>
<!-- Node53&#45;&gt;Node32 -->
<g id="edge33" class="edge">
<title>Node53&#45;&gt;Node32</title>
<path fill="none" stroke="#63b8ff" d="M1131.88,-977.31C1137.71,-974.79 1143.3,-971.58 1148,-967.5 1175.92,-943.26 1158.12,-918.9 1184,-892.5 1188.42,-888 1193.74,-884.11 1199.3,-880.8"/>
<polygon fill="#63b8ff" stroke="#63b8ff" points="1200.85,-883.94 1208.06,-876.18 1197.58,-877.75 1200.85,-883.94"/>
</g>
<!-- Node54 -->
<g id="node25" class="node">
<title>Node54</title>
<g id="a_node25"><a xlink:href="TransmitterCode_2src_2main_8cpp.html#a5aa4888b924a4f1d95e9cedc3004f2b6" target="_top" xlink:title=" ">
<polygon fill="white" stroke="#666666" points="1280,-921 1197,-921 1197,-902 1280,-902 1280,-921"/>
<text text-anchor="middle" x="1238.5" y="-909" font-family="Helvetica,sans-Serif" font-size="10.00">MakeTwobytes</text>
</a>
</g>
</g>
<!-- Node53&#45;&gt;Node54 -->
<g id="edge30" class="edge">
<title>Node53&#45;&gt;Node54</title>
<path fill="none" stroke="#63b8ff" d="M1128.94,-976.62C1135.57,-974.16 1142.17,-971.15 1148,-967.5 1167.72,-955.15 1164.39,-942.02 1184,-929.5 1185.86,-928.31 1187.8,-927.2 1189.8,-926.14"/>
<polygon fill="#63b8ff" stroke="#63b8ff" points="1191.13,-929.39 1198.78,-922.06 1188.22,-923.02 1191.13,-929.39"/>
</g>
<!-- Node55 -->
<g id="node26" class="node">
<title>Node55</title>
<g id="a_node26"><a xlink:href="ReceiverCode_2src_2main_8cpp.html#a31a35307bbac88ceda244272f25d399a" target="_top" xlink:title=" ">
<polygon fill="white" stroke="#666666" points="1290.5,-958 1186.5,-958 1186.5,-939 1290.5,-939 1290.5,-958"/>
<text text-anchor="middle" x="1238.5" y="-946" font-family="Helvetica,sans-Serif" font-size="10.00">SetTestFrequencies</text>
</a>
</g>
</g>
<!-- Node53&#45;&gt;Node55 -->
<g id="edge32" class="edge">
<title>Node53&#45;&gt;Node55</title>
<path fill="none" stroke="#63b8ff" d="M1127.28,-976.52C1145.58,-971.87 1167.56,-966.28 1187.07,-961.32"/>
<polygon fill="#63b8ff" stroke="#63b8ff" points="1187.93,-964.71 1196.76,-958.86 1186.2,-957.93 1187.93,-964.71"/>
</g>
<!-- Node57&#45;&gt;Node24 -->
<g id="edge38" class="edge">
<title>Node57&#45;&gt;Node24</title>
<path fill="none" stroke="#63b8ff" d="M958.63,-902.58C979.99,-898.04 1005.51,-892.62 1028.09,-887.81"/>
<polygon fill="#63b8ff" stroke="#63b8ff" points="1028.71,-891.26 1037.76,-885.76 1027.25,-884.41 1028.71,-891.26"/>
</g>
<!-- Node58 -->
<g id="node29" class="node">
<title>Node58</title>
<g id="a_node29"><a xlink:href="TransmitterCode_2src_2main_8cpp.html#a953f1d5046e183549ed95b08f6d675e3" target="_top" xlink:title=" ">
<polygon fill="#fff0f0" stroke="red" points="1136,-959 1038,-959 1038,-940 1136,-940 1136,-959"/>
<text text-anchor="middle" x="1087" y="-947" font-family="Helvetica,sans-Serif" font-size="10.00">CheckGapsLength</text>
</a>
</g>
</g>
<!-- Node57&#45;&gt;Node58 -->
<g id="edge36" class="edge">
<title>Node57&#45;&gt;Node58</title>
<path fill="none" stroke="#63b8ff" d="M958.63,-922.42C979.99,-926.96 1005.51,-932.38 1028.09,-937.19"/>
<polygon fill="#63b8ff" stroke="#63b8ff" points="1027.25,-940.59 1037.76,-939.24 1028.71,-933.74 1027.25,-940.59"/>
</g>
<!-- Node38 -->
<g id="node30" class="node">
<title>Node38</title>
<g id="a_node30"><a xlink:href="TransmitterCode_2src_2main_8cpp.html#a62e53eb9359c32b666e3386d62c57037" target="_top" xlink:title=" ">
<polygon fill="#fff0f0" stroke="red" points="1123,-922 1051,-922 1051,-903 1123,-903 1123,-922"/>
<text text-anchor="middle" x="1087" y="-910" font-family="Helvetica,sans-Serif" font-size="10.00">GreenLedOn</text>
</a>
</g>
</g>
<!-- Node57&#45;&gt;Node38 -->
<g id="edge37" class="edge">
<title>Node57&#45;&gt;Node38</title>
<path fill="none" stroke="#63b8ff" d="M959.09,-912.5C984.02,-912.5 1014.54,-912.5 1039.41,-912.5"/>
<polygon fill="#63b8ff" stroke="#63b8ff" points="1039.23,-916 1049.23,-912.5 1039.23,-909 1039.23,-916"/>
</g>
<!-- Node109&#45;&gt;Node29 -->
<g id="edge43" class="edge">
<title>Node109&#45;&gt;Node29</title>
<path fill="none" stroke="#63b8ff" d="M952.44,-692.75C1043.88,-704.73 1261.07,-733.88 1293,-744.5 1312.09,-750.85 1332.04,-761.68 1346.98,-770.75"/>
<polygon fill="#63b8ff" stroke="#63b8ff" points="1344.84,-773.54 1355.17,-775.87 1348.55,-767.6 1344.84,-773.54"/>
</g>
<!-- Node109&#45;&gt;Node30 -->
<g id="edge42" class="edge">
<title>Node109&#45;&gt;Node30</title>
<path fill="none" stroke="#63b8ff" d="M952.29,-686.18C1054.78,-682.82 1325.35,-673.95 1439.51,-670.2"/>
<polygon fill="#63b8ff" stroke="#63b8ff" points="1439.31,-673.71 1449.19,-669.89 1439.08,-666.72 1439.31,-673.71"/>
</g>
<!-- Node110&#45;&gt;Node19 -->
<g id="edge67" class="edge">
<title>Node110&#45;&gt;Node19</title>
<path fill="none" stroke="#63b8ff" d="M746.3,-601.56C745.87,-555.76 749.19,-362.01 832,-237.5 950.87,-58.77 1130.31,46.53 1293,-93.5 1369.62,-159.45 1371.99,-501.54 1371.28,-590.39"/>
<polygon fill="#63b8ff" stroke="#63b8ff" points="1367.78,-590.25 1371.18,-600.29 1374.78,-590.33 1367.78,-590.25"/>
</g>
<!-- Node110&#45;&gt;Node109 -->
<g id="edge65" class="edge">
<title>Node110&#45;&gt;Node109</title>
<path fill="none" stroke="#63b8ff" d="M767.87,-621.44C796.03,-634.52 845.76,-657.64 878.3,-672.77"/>
<polygon fill="#63b8ff" stroke="#63b8ff" points="876.7,-675.88 887.25,-676.92 879.65,-669.53 876.7,-675.88"/>
</g>
<!-- Node74 -->
<g id="node34" class="node">
<title>Node74</title>
<g id="a_node34"><a xlink:href="TransmitterCode_2src_2main_8cpp.html#ac7a5ec6cf2ed7b50bd291f821e886302" target="_top" xlink:title=" ">
<polygon fill="white" stroke="#666666" points="952.5,-435 869.5,-435 869.5,-416 952.5,-416 952.5,-435"/>
<text text-anchor="middle" x="911" y="-423" font-family="Helvetica,sans-Serif" font-size="10.00">ReadOneModel</text>
</a>
</g>
</g>
<!-- Node110&#45;&gt;Node74 -->
<g id="edge45" class="edge">
<title>Node110&#45;&gt;Node74</title>
<path fill="none" stroke="#63b8ff" d="M755.06,-601.76C781.22,-572.01 860.36,-481.97 894.29,-443.37"/>
<polygon fill="#63b8ff" stroke="#63b8ff" points="896.55,-446.1 900.53,-436.28 891.29,-441.48 896.55,-446.1"/>
</g>
<!-- Node35 -->
<g id="node47" class="node">
<title>Node35</title>
<g id="a_node47"><a xlink:href="TransmitterCode_2src_2main_8cpp.html#a1e20efc1e419b252b50d36f9924503fc" target="_top" xlink:title=" ">
<polygon fill="white" stroke="#666666" points="1270.5,-621 1206.5,-621 1206.5,-602 1270.5,-602 1270.5,-621"/>
<text text-anchor="middle" x="1238.5" y="-609" font-family="Helvetica,sans-Serif" font-size="10.00">SendValue</text>
</a>
</g>
</g>
<!-- Node110&#45;&gt;Node35 -->
<g id="edge66" class="edge">
<title>Node110&#45;&gt;Node35</title>
<path fill="none" stroke="#63b8ff" d="M796.28,-611.5C892.88,-611.5 1104.19,-611.5 1194.83,-611.5"/>
<polygon fill="#63b8ff" stroke="#63b8ff" points="1194.77,-615 1204.77,-611.5 1194.77,-608 1194.77,-615"/>
</g>
<!-- Node75 -->
<g id="node35" class="node">
<title>Node75</title>
<g id="a_node35"><a xlink:href="TransmitterCode_2src_2main_8cpp.html#a38063272143a3da8735678470d210d29" target="_top" xlink:title=" ">
<polygon fill="white" stroke="#666666" points="1136,-435 1038,-435 1038,-416 1136,-416 1136,-435"/>
<text text-anchor="middle" x="1087" y="-423" font-family="Helvetica,sans-Serif" font-size="10.00">CheckBanksInUse</text>
</a>
</g>
</g>
<!-- Node74&#45;&gt;Node75 -->
<g id="edge46" class="edge">
<title>Node74&#45;&gt;Node75</title>
<path fill="none" stroke="#63b8ff" d="M952.8,-425.5C974.73,-425.5 1002.2,-425.5 1026.47,-425.5"/>
<polygon fill="#63b8ff" stroke="#63b8ff" points="1026.22,-429 1036.22,-425.5 1026.22,-422 1026.22,-429"/>
</g>
<!-- Node76 -->
<g id="node36" class="node">
<title>Node76</title>
<g id="a_node36"><a xlink:href="TransmitterCode_2src_2main_8cpp.html#a5467d21eeae42d1bfdb79914ef52d0ed" target="_top" xlink:title=" ">
<polygon fill="white" stroke="#666666" points="1146.5,-398 1027.5,-398 1027.5,-379 1146.5,-379 1146.5,-398"/>
<text text-anchor="middle" x="1087" y="-386" font-family="Helvetica,sans-Serif" font-size="10.00">CheckDualRatesValues</text>
</a>
</g>
</g>
<!-- Node74&#45;&gt;Node76 -->
<g id="edge47" class="edge">
<title>Node74&#45;&gt;Node76</title>
<path fill="none" stroke="#63b8ff" d="M952.8,-416.83C975.18,-412.06 1003.32,-406.08 1027.96,-400.84"/>
<polygon fill="#63b8ff" stroke="#63b8ff" points="1028.46,-404.31 1037.52,-398.81 1027.01,-397.47 1028.46,-404.31"/>
</g>
<!-- Node77 -->
<g id="node37" class="node">
<title>Node77</title>
<g id="a_node37"><a xlink:href="TransmitterCode_2src_2main_8cpp.html#a6bb930920ba3a8d45a737dde782ef65c" target="_top" xlink:title=" ">
<polygon fill="white" stroke="#666666" points="1138,-361 1036,-361 1036,-342 1138,-342 1138,-361"/>
<text text-anchor="middle" x="1087" y="-349" font-family="Helvetica,sans-Serif" font-size="10.00">CheckMacrosBuffer</text>
</a>
</g>
</g>
<!-- Node74&#45;&gt;Node77 -->
<g id="edge48" class="edge">
<title>Node74&#45;&gt;Node77</title>
<path fill="none" stroke="#63b8ff" d="M929.75,-415.64C951.83,-403.63 990.9,-383.28 1026,-369.5 1030.04,-367.91 1034.28,-366.38 1038.56,-364.93"/>
<polygon fill="#63b8ff" stroke="#63b8ff" points="1039.31,-368.37 1047.74,-361.96 1037.15,-361.71 1039.31,-368.37"/>
</g>
<!-- Node78 -->
<g id="node38" class="node">
<title>Node78</title>
<g id="a_node38"><a xlink:href="TransmitterCode_2src_2main_8cpp.html#a688c8f45b7061a1574dcb7eb28eec56b" target="_top" xlink:title=" ">
<polygon fill="white" stroke="#666666" points="1148,-546 1026,-546 1026,-527 1148,-527 1148,-546"/>
<text text-anchor="middle" x="1087" y="-534" font-family="Helvetica,sans-Serif" font-size="10.00">CheckSavedTrimValues</text>
</a>
</g>
</g>
<!-- Node74&#45;&gt;Node78 -->
<g id="edge49" class="edge">
<title>Node74&#45;&gt;Node78</title>
<path fill="none" stroke="#63b8ff" d="M921.46,-435.25C939.92,-453.78 982.76,-494.28 1026,-517.5 1029.42,-519.34 1033.06,-521.03 1036.77,-522.59"/>
<polygon fill="#63b8ff" stroke="#63b8ff" points="1035.35,-525.79 1045.94,-526.07 1037.84,-519.25 1035.35,-525.79"/>
</g>
<!-- Node79 -->
<g id="node39" class="node">
<title>Node79</title>
<g id="a_node39"><a xlink:href="TransmitterCode_2src_2main_8cpp.html#af2028eceef03ca4c84aa7d71677c0647" target="_top" xlink:title=" ">
<polygon fill="white" stroke="#666666" points="1131.5,-509 1042.5,-509 1042.5,-490 1131.5,-490 1131.5,-509"/>
<text text-anchor="middle" x="1087" y="-497" font-family="Helvetica,sans-Serif" font-size="10.00">CheckStepSizes</text>
</a>
</g>
</g>
<!-- Node74&#45;&gt;Node79 -->
<g id="edge50" class="edge">
<title>Node74&#45;&gt;Node79</title>
<path fill="none" stroke="#63b8ff" d="M930.59,-435.49C952.86,-447.21 991.49,-466.79 1026,-480.5 1030.88,-482.44 1036.05,-484.32 1041.22,-486.1"/>
<polygon fill="#63b8ff" stroke="#63b8ff" points="1039.72,-489.29 1050.31,-489.11 1041.92,-482.64 1039.72,-489.29"/>
</g>
<!-- Node80 -->
<g id="node40" class="node">
<title>Node80</title>
<g id="a_node40"><a xlink:href="TransmitterCode_2src_2main_8cpp.html#ae7618f38a148877bc5681be58cba8354" target="_top" xlink:title=" ">
<polygon fill="white" stroke="#666666" points="1130.5,-472 1043.5,-472 1043.5,-453 1130.5,-453 1130.5,-472"/>
<text text-anchor="middle" x="1087" y="-460" font-family="Helvetica,sans-Serif" font-size="10.00">OpenModelsFile</text>
</a>
</g>
</g>
<!-- Node74&#45;&gt;Node80 -->
<g id="edge51" class="edge">
<title>Node74&#45;&gt;Node80</title>
<path fill="none" stroke="#63b8ff" d="M952.8,-434.17C976.42,-439.2 1006.45,-445.58 1032.01,-451.02"/>
<polygon fill="#63b8ff" stroke="#63b8ff" points="1031.04,-454.39 1041.55,-453.05 1032.5,-447.54 1031.04,-454.39"/>
</g>
<!-- Node81 -->
<g id="node41" class="node">
<title>Node81</title>
<g id="a_node41"><a xlink:href="TransmitterCode_2src_2main_8cpp.html#a3c809856d2abf6b6f804e2fbe68d06f5" target="_top" xlink:title=" ">
<polygon fill="white" stroke="#666666" points="1136,-209 1038,-209 1038,-190 1136,-190 1136,-209"/>
<text text-anchor="middle" x="1087" y="-197" font-family="Helvetica,sans-Serif" font-size="10.00">ReadCheckSum32</text>
</a>
</g>
</g>
<!-- Node74&#45;&gt;Node81 -->
<g id="edge52" class="edge">
<title>Node74&#45;&gt;Node81</title>
<path fill="none" stroke="#63b8ff" d="M917.51,-415.83C932.91,-389.14 978.45,-312.7 1026,-256.5 1038.13,-242.17 1053.51,-227.61 1065.66,-216.8"/>
<polygon fill="#63b8ff" stroke="#63b8ff" points="1067.85,-219.53 1073.08,-210.32 1063.25,-214.26 1067.85,-219.53"/>
</g>
<!-- Node83 -->
<g id="node43" class="node">
<title>Node83</title>
<g id="a_node43"><a xlink:href="TransmitterCode_2src_2main_8cpp.html#a9cf4a8c584c2b92d52de18627ca4434b" target="_top" xlink:title=" ">
<polygon fill="white" stroke="#666666" points="1278.5,-171 1198.5,-171 1198.5,-152 1278.5,-152 1278.5,-171"/>
<text text-anchor="middle" x="1238.5" y="-159" font-family="Helvetica,sans-Serif" font-size="10.00">SDRead8BITS</text>
</a>
</g>
</g>
<!-- Node74&#45;&gt;Node83 -->
<g id="edge58" class="edge">
<title>Node74&#45;&gt;Node83</title>
<path fill="none" stroke="#63b8ff" d="M917.5,-415.79C930.81,-392.08 965.51,-329.16 990,-274.5 1008.29,-233.67 990.31,-207.48 1026,-180.5 1071.82,-145.86 1140.2,-146.35 1186.71,-152.03"/>
<polygon fill="#63b8ff" stroke="#63b8ff" points="1186.16,-155.49 1196.54,-153.37 1187.1,-148.55 1186.16,-155.49"/>
</g>
<!-- Node85 -->
<g id="node45" class="node">
<title>Node85</title>
<g id="a_node45"><a xlink:href="TransmitterCode_2src_2main_8cpp.html#a390e5cfbafdda998c93b9a352560d57d" target="_top" xlink:title=" ">
<polygon fill="white" stroke="#666666" points="1281.5,-19 1195.5,-19 1195.5,0 1281.5,0 1281.5,-19"/>
<text text-anchor="middle" x="1238.5" y="-7" font-family="Helvetica,sans-Serif" font-size="10.00">SDRead16BITS</text>
</a>
</g>
</g>
<!-- Node74&#45;&gt;Node85 -->
<g id="edge56" class="edge">
<title>Node74&#45;&gt;Node85</title>
<path fill="none" stroke="#63b8ff" d="M918.04,-415.58C932.24,-391.92 968.2,-329.97 990,-274.5 1011.77,-219.1 990.66,-193.39 1026,-145.5 1070.97,-84.56 1152.12,-43.76 1199.76,-23.79"/>
<polygon fill="#63b8ff" stroke="#63b8ff" points="1200.92,-27.09 1208.85,-20.07 1198.27,-20.61 1200.92,-27.09"/>
</g>
<!-- Node86 -->
<g id="node46" class="node">
<title>Node86</title>
<g id="a_node46"><a xlink:href="TransmitterCode_2src_2main_8cpp.html#abf59862cf6c4e3df5a76f0bfea8919ef" target="_top" xlink:title=" ">
<polygon fill="white" stroke="#666666" points="1140,-583 1034,-583 1034,-564 1140,-564 1140,-583"/>
<text text-anchor="middle" x="1087" y="-571" font-family="Helvetica,sans-Serif" font-size="10.00">UpdateButtonLabels</text>
</a>
</g>
</g>
<!-- Node74&#45;&gt;Node86 -->
<g id="edge59" class="edge">
<title>Node74&#45;&gt;Node86</title>
<path fill="none" stroke="#63b8ff" d="M917.87,-435.19C932.85,-459.07 974.9,-521.25 1026,-554.5 1028.53,-556.15 1031.22,-557.66 1033.99,-559.05"/>
<polygon fill="#63b8ff" stroke="#63b8ff" points="1032.37,-562.16 1042.93,-562.95 1035.16,-555.74 1032.37,-562.16"/>
</g>
<!-- Node82 -->
<g id="node42" class="node">
<title>Node82</title>
<g id="a_node42"><a xlink:href="TransmitterCode_2src_2main_8cpp.html#aee9320d84f0e518a8cc937ac1f706cf4" target="_top" xlink:title=" ">
<polygon fill="white" stroke="#666666" points="1281.5,-209 1195.5,-209 1195.5,-190 1281.5,-190 1281.5,-209"/>
<text text-anchor="middle" x="1238.5" y="-197" font-family="Helvetica,sans-Serif" font-size="10.00">SDRead32BITS</text>
</a>
</g>
</g>
<!-- Node81&#45;&gt;Node82 -->
<g id="edge53" class="edge">
<title>Node81&#45;&gt;Node82</title>
<path fill="none" stroke="#63b8ff" d="M1136.13,-199.5C1151.37,-199.5 1168.32,-199.5 1183.93,-199.5"/>
<polygon fill="#63b8ff" stroke="#63b8ff" points="1183.5,-203 1193.5,-199.5 1183.5,-196 1183.5,-203"/>
</g>
<!-- Node81&#45;&gt;Node83 -->
<g id="edge54" class="edge">
<title>Node81&#45;&gt;Node83</title>
<path fill="none" stroke="#63b8ff" d="M1127.28,-189.52C1145.58,-184.87 1167.56,-179.28 1187.07,-174.32"/>
<polygon fill="#63b8ff" stroke="#63b8ff" points="1187.93,-177.71 1196.76,-171.86 1186.2,-170.93 1187.93,-177.71"/>
</g>
<!-- Node84 -->
<g id="node44" class="node">
<title>Node84</title>
<g id="a_node44"><a xlink:href="TransmitterCode_2src_2main_8cpp.html#a4a6675e3f0ebf8db35d21d829dcce052" target="_top" xlink:title=" ">
<polygon fill="white" stroke="#666666" points="1415,-95 1329,-95 1329,-76 1415,-76 1415,-95"/>
<text text-anchor="middle" x="1372" y="-83" font-family="Helvetica,sans-Serif" font-size="10.00">BuildCheckSum</text>
</a>
</g>
</g>
<!-- Node83&#45;&gt;Node84 -->
<g id="edge55" class="edge">
<title>Node83&#45;&gt;Node84</title>
<path fill="none" stroke="#63b8ff" d="M1256.69,-151.56C1278.94,-138.71 1317.95,-116.16 1344.13,-101.03"/>
<polygon fill="#63b8ff" stroke="#63b8ff" points="1345.59,-104.23 1352.49,-96.2 1342.08,-98.17 1345.59,-104.23"/>
</g>
<!-- Node85&#45;&gt;Node84 -->
<g id="edge57" class="edge">
<title>Node85&#45;&gt;Node84</title>
<path fill="none" stroke="#63b8ff" d="M1263.88,-19.42C1273.17,-23.46 1283.73,-28.38 1293,-33.5 1312.4,-44.22 1333.23,-58.25 1348.48,-69.03"/>
<polygon fill="#63b8ff" stroke="#63b8ff" points="1346.23,-71.72 1356.39,-74.7 1350.3,-66.03 1346.23,-71.72"/>
</g>
<!-- Node86&#45;&gt;Node31 -->
<g id="edge60" class="edge">
<title>Node86&#45;&gt;Node31</title>
<path fill="none" stroke="#63b8ff" d="M1140.29,-573.5C1159.26,-573.5 1180.36,-573.5 1198.04,-573.5"/>
<polygon fill="#63b8ff" stroke="#63b8ff" points="1197.88,-577 1207.88,-573.5 1197.88,-570 1197.88,-577"/>
</g>
<!-- Node86&#45;&gt;Node35 -->
<g id="edge61" class="edge">
<title>Node86&#45;&gt;Node35</title>
<path fill="none" stroke="#63b8ff" d="M1127.28,-583.48C1148.11,-588.78 1173.71,-595.29 1195,-600.7"/>
<polygon fill="#63b8ff" stroke="#63b8ff" points="1193.99,-604.05 1204.54,-603.12 1195.72,-597.27 1193.99,-604.05"/>
</g>
<!-- Node35&#45;&gt;Node19 -->
<g id="edge64" class="edge">
<title>Node35&#45;&gt;Node19</title>
<path fill="none" stroke="#63b8ff" d="M1271,-611.5C1293.86,-611.5 1324.4,-611.5 1345.69,-611.5"/>
<polygon fill="#63b8ff" stroke="#63b8ff" points="1345.51,-615 1355.51,-611.5 1345.51,-608 1345.51,-615"/>
</g>
<!-- Node35&#45;&gt;Node29 -->
<g id="edge63" class="edge">
<title>Node35&#45;&gt;Node29</title>
<path fill="none" stroke="#63b8ff" d="M1270.82,-617.54C1278.71,-620.2 1286.72,-624.03 1293,-629.5 1335.51,-666.57 1357.35,-732.25 1366.17,-765.68"/>
<polygon fill="#63b8ff" stroke="#63b8ff" points="1362.76,-766.46 1368.56,-775.33 1369.55,-764.78 1362.76,-766.46"/>
</g>
<!-- Node35&#45;&gt;Node30 -->
<g id="edge62" class="edge">
<title>Node35&#45;&gt;Node30</title>
<path fill="none" stroke="#63b8ff" d="M1270.91,-618.6C1313.23,-628.18 1389.09,-645.34 1439.87,-656.82"/>
<polygon fill="#63b8ff" stroke="#63b8ff" points="1438.93,-660.2 1449.46,-658.99 1440.47,-653.37 1438.93,-660.2"/>
</g>
<!-- Node111&#45;&gt;Node31 -->
<g id="edge70" class="edge">
<title>Node111&#45;&gt;Node31</title>
<path fill="none" stroke="#63b8ff" d="M416.27,-443.88C441.09,-412.25 526.17,-313.5 621,-313.5 621,-313.5 621,-313.5 912,-313.5 1017.23,-313.5 1064.09,-269 1148,-332.5 1219.4,-386.53 1233.86,-503.87 1236.77,-552.12"/>
<polygon fill="#63b8ff" stroke="#63b8ff" points="1233.27,-552.21 1237.24,-562.04 1240.26,-551.88 1233.27,-552.21"/>
</g>
<!-- Node72&#45;&gt;Node19 -->
<g id="edge73" class="edge">
<title>Node72&#45;&gt;Node19</title>
<path fill="none" stroke="#63b8ff" d="M918.2,-246.64C933.3,-223.68 974.51,-167 1026,-145.5 1135.51,-99.78 1202.46,-65.78 1293,-142.5 1362.41,-201.32 1370.12,-506.61 1370.92,-590.28"/>
<polygon fill="#63b8ff" stroke="#63b8ff" points="1367.42,-590.05 1370.99,-600.03 1374.42,-590 1367.42,-590.05"/>
</g>
<!-- Node72&#45;&gt;Node31 -->
<g id="edge72" class="edge">
<title>Node72&#45;&gt;Node31</title>
<path fill="none" stroke="#63b8ff" d="M940.49,-246.54C988.62,-231.69 1086.74,-210.14 1148,-256.5 1196.52,-293.22 1226.22,-487.95 1234.86,-552.61"/>
<polygon fill="#63b8ff" stroke="#63b8ff" points="1231.35,-552.76 1236.11,-562.22 1238.29,-551.86 1231.35,-552.76"/>
</g>
<!-- Node73 -->
<g id="node50" class="node">
<title>Node73</title>
<g id="a_node50"><a xlink:href="TransmitterCode_2src_2main_8cpp.html#ac78966debc2cdc13d8ca958ce3b20c78" target="_top" xlink:title=" ">
<polygon fill="white" stroke="#666666" points="1131.5,-285 1042.5,-285 1042.5,-266 1131.5,-266 1131.5,-285"/>
<text text-anchor="middle" x="1087" y="-273" font-family="Helvetica,sans-Serif" font-size="10.00">UpdateTrimView</text>
</a>
</g>
</g>
<!-- Node72&#45;&gt;Node73 -->
<g id="edge74" class="edge">
<title>Node72&#45;&gt;Node73</title>
<path fill="none" stroke="#63b8ff" d="M990.35,-265.06C1004.16,-266.56 1018.27,-268.1 1031.26,-269.52"/>
<polygon fill="#63b8ff" stroke="#63b8ff" points="1030.52,-272.96 1040.85,-270.57 1031.28,-266 1030.52,-272.96"/>
</g>
<!-- Node73&#45;&gt;Node35 -->
<g id="edge75" class="edge">
<title>Node73&#45;&gt;Node35</title>
<path fill="none" stroke="#63b8ff" d="M1103.35,-285.48C1117.46,-295.54 1137.69,-312.44 1148,-332.5 1201.11,-435.87 1111.32,-500.81 1184,-591.5 1187.23,-595.53 1191.35,-598.74 1195.88,-601.31"/>
<polygon fill="#63b8ff" stroke="#63b8ff" points="1194.29,-604.43 1204.85,-605.34 1197.16,-598.05 1194.29,-604.43"/>
</g>
</g>
</svg>
