<?xml version="1.0" encoding="UTF-8" standalone="no"?>
<!DOCTYPE svg PUBLIC "-//W3C//DTD SVG 1.1//EN"
 "http://www.w3.org/Graphics/SVG/1.1/DTD/svg11.dtd">
<!-- Generated by graphviz version 7.0.5 (20221223.1930)
 -->
<!-- Title: SetUKFrequencies Pages: 1 -->
<svg width="1841pt" height="699pt"
 viewBox="0.00 0.00 1841.00 699.00" xmlns="http://www.w3.org/2000/svg" xmlns:xlink="http://www.w3.org/1999/xlink">
<g id="graph0" class="graph" transform="scale(1 1) rotate(0) translate(4 695)">
<title>SetUKFrequencies</title>
<!-- Node1 -->
<g id="node1" class="node">
<title>Node1</title>
<g id="a_node1"><a xlink:title=" ">
<polygon fill="#999999" stroke="#666666" points="1833,-596 1734,-596 1734,-577 1833,-577 1833,-596"/>
<text text-anchor="middle" x="1783.5" y="-584" font-family="Helvetica,sans-Serif" font-size="10.00">SetUKFrequencies</text>
</a>
</g>
</g>
<!-- Node2 -->
<g id="node2" class="node">
<title>Node2</title>
<g id="a_node2"><a xlink:href="ReceiverCode_2src_2main_8cpp.html#a42318598726782ebb2e1857f167c8cda" target="_top" xlink:title=" ">
<polygon fill="white" stroke="#666666" points="1530,-577 1477,-577 1477,-558 1530,-558 1530,-577"/>
<text text-anchor="middle" x="1503.5" y="-565" font-family="Helvetica,sans-Serif" font-size="10.00">FailSafe</text>
</a>
</g>
</g>
<!-- Node1&#45;&gt;Node2 -->
<g id="edge1" class="edge">
<title>Node1&#45;&gt;Node2</title>
<path fill="none" stroke="#63b8ff" d="M1722.58,-582.4C1662.75,-578.32 1573.65,-572.23 1530.19,-569.26"/>
<polygon fill="#63b8ff" stroke="#63b8ff" points="1722.03,-585.88 1732.25,-583.07 1722.51,-578.89 1722.03,-585.88"/>
</g>
<!-- Node33 -->
<g id="node33" class="node">
<title>Node33</title>
<g id="a_node33"><a xlink:href="ReceiverCode_2src_2main_8cpp.html#a5b90f51dfaa1795437ab024e8ab778d5" target="_top" xlink:title=" ">
<polygon fill="white" stroke="#666666" points="1087.5,-691 1009.5,-691 1009.5,-672 1087.5,-672 1087.5,-691"/>
<text text-anchor="middle" x="1048.5" y="-679" font-family="Helvetica,sans-Serif" font-size="10.00">ReadBindPlug</text>
</a>
</g>
</g>
<!-- Node1&#45;&gt;Node33 -->
<g id="edge49" class="edge">
<title>Node1&#45;&gt;Node33</title>
<path fill="none" stroke="#63b8ff" d="M1767.91,-604.87C1752.58,-622.69 1726.74,-648.85 1698,-661.5 1618.86,-696.32 1590.96,-681.5 1504.5,-681.5 1504.5,-681.5 1504.5,-681.5 1368.5,-681.5 1267.15,-681.5 1147.69,-681.5 1087.8,-681.5"/>
<polygon fill="#63b8ff" stroke="#63b8ff" points="1770.26,-607.51 1773.96,-597.59 1764.88,-603.04 1770.26,-607.51"/>
</g>
<!-- Node35 -->
<g id="node35" class="node">
<title>Node35</title>
<g id="a_node35"><a xlink:href="transceiver_8h.html#ac4ffb9b555ce8d38f615610dc89b5499" target="_top" xlink:title=" ">
<polygon fill="white" stroke="#666666" points="319.5,-170 230.5,-170 230.5,-151 319.5,-151 319.5,-170"/>
<text text-anchor="middle" x="275" y="-158" font-family="Helvetica,sans-Serif" font-size="10.00">LoadPacketData</text>
</a>
</g>
</g>
<!-- Node1&#45;&gt;Node35 -->
<g id="edge45" class="edge">
<title>Node1&#45;&gt;Node35</title>
<path fill="none" stroke="#63b8ff" d="M1722.68,-592.96C1666.43,-598.47 1579.86,-605.5 1504.5,-605.5 1504.5,-605.5 1504.5,-605.5 547.5,-605.5 336.18,-605.5 284.48,-235.29 277.03,-170.21"/>
<polygon fill="#63b8ff" stroke="#63b8ff" points="1722.75,-596.47 1732.35,-591.99 1722.05,-589.5 1722.75,-596.47"/>
</g>
<!-- Node37 -->
<g id="node37" class="node">
<title>Node37</title>
<g id="a_node37"><a xlink:href="radio_8h.html#a6c490ef42e364f8bb1430c436e86c9c0" target="_top" xlink:title=" ">
<polygon fill="white" stroke="#666666" points="1698,-653 1587,-653 1587,-634 1698,-634 1698,-653"/>
<text text-anchor="middle" x="1642.5" y="-641" font-family="Helvetica,sans-Serif" font-size="10.00">ReadExtraParameters</text>
</a>
</g>
</g>
<!-- Node1&#45;&gt;Node37 -->
<g id="edge50" class="edge">
<title>Node1&#45;&gt;Node37</title>
<path fill="none" stroke="#63b8ff" d="M1747.76,-600.74C1722.72,-611.01 1689.57,-624.61 1667.43,-633.69"/>
<polygon fill="#63b8ff" stroke="#63b8ff" points="1748.96,-604.04 1756.89,-597 1746.31,-597.56 1748.96,-604.04"/>
</g>
<!-- Node40 -->
<g id="node40" class="node">
<title>Node40</title>
<g id="a_node40"><a xlink:href="TransmitterCode_2src_2main_8cpp.html#a7d34cec6e8edc20c8b50424e15dcc7c7" target="_top" xlink:title=" ">
<polygon fill="white" stroke="#666666" points="1674,-520 1611,-520 1611,-501 1674,-501 1674,-520"/>
<text text-anchor="middle" x="1642.5" y="-508" font-family="Helvetica,sans-Serif" font-size="10.00">RedLedOn</text>
</a>
</g>
</g>
<!-- Node1&#45;&gt;Node40 -->
<g id="edge54" class="edge">
<title>Node1&#45;&gt;Node40</title>
<path fill="none" stroke="#63b8ff" d="M1754.47,-571.17C1726.8,-556.04 1685.3,-533.35 1661.68,-520.44"/>
<polygon fill="#63b8ff" stroke="#63b8ff" points="1752.55,-574.11 1763,-575.84 1755.91,-567.97 1752.55,-574.11"/>
</g>
<!-- Node43 -->
<g id="node43" class="node">
<title>Node43</title>
<g id="a_node43"><a xlink:href="TransmitterCode_2src_2main_8cpp.html#a17699f358cf9f7c3155a9c5daf8ff13c" target="_top" xlink:title=" ">
<polygon fill="white" stroke="#666666" points="1663,-483 1622,-483 1622,-464 1663,-464 1663,-483"/>
<text text-anchor="middle" x="1642.5" y="-471" font-family="Helvetica,sans-Serif" font-size="10.00">setup</text>
</a>
</g>
</g>
<!-- Node1&#45;&gt;Node43 -->
<g id="edge61" class="edge">
<title>Node1&#45;&gt;Node43</title>
<path fill="none" stroke="#63b8ff" d="M1770.06,-567.27C1755.29,-545.89 1728.75,-511.71 1698,-491.5 1687.51,-484.6 1674.14,-480.14 1663.27,-477.38"/>
<polygon fill="#63b8ff" stroke="#63b8ff" points="1767.01,-569.01 1775.49,-575.36 1772.82,-565.11 1767.01,-569.01"/>
</g>
<!-- Node3 -->
<g id="node3" class="node">
<title>Node3</title>
<g id="a_node3"><a xlink:href="TransmitterCode_2src_2main_8cpp.html#a804fdbdd5eab4c596bbe8a23eecbe4d5" target="_top" xlink:title=" ">
<polygon fill="white" stroke="#666666" points="1420,-463 1319,-463 1319,-444 1420,-444 1420,-463"/>
<text text-anchor="middle" x="1369.5" y="-451" font-family="Helvetica,sans-Serif" font-size="10.00">ButtonWasPressed</text>
</a>
</g>
</g>
<!-- Node2&#45;&gt;Node3 -->
<g id="edge2" class="edge">
<title>Node2&#45;&gt;Node3</title>
<path fill="none" stroke="#63b8ff" d="M1482.65,-550.35C1454.55,-526.08 1404.11,-482.52 1381.73,-463.19"/>
<polygon fill="#63b8ff" stroke="#63b8ff" points="1480.24,-552.9 1490.1,-556.79 1484.82,-547.61 1480.24,-552.9"/>
</g>
<!-- Node30 -->
<g id="node30" class="node">
<title>Node30</title>
<g id="a_node30"><a xlink:href="radio_8h.html#aca314b55765a1c3af5397c0cb3ce47ff" target="_top" xlink:title=" ">
<polygon fill="white" stroke="#666666" points="1401,-577 1338,-577 1338,-558 1401,-558 1401,-577"/>
<text text-anchor="middle" x="1369.5" y="-565" font-family="Helvetica,sans-Serif" font-size="10.00">Reconnect</text>
</a>
</g>
</g>
<!-- Node2&#45;&gt;Node30 -->
<g id="edge40" class="edge">
<title>Node2&#45;&gt;Node30</title>
<path fill="none" stroke="#63b8ff" d="M1465.43,-567.5C1445.2,-567.5 1420.46,-567.5 1401.3,-567.5"/>
<polygon fill="#63b8ff" stroke="#63b8ff" points="1465.22,-571 1475.22,-567.5 1465.22,-564 1465.22,-571"/>
</g>
<!-- Node4 -->
<g id="node4" class="node">
<title>Node4</title>
<g id="a_node4"><a xlink:href="Utilities_8h.html#afb7c85cac4aa89fd998ed81c330374d2" target="_top" xlink:title=" ">
<polygon fill="white" stroke="#666666" points="1283,-387 1137,-387 1137,-368 1283,-368 1283,-387"/>
<text text-anchor="middle" x="1210" y="-375" font-family="Helvetica,sans-Serif" font-size="10.00">CheckForNextionButtonPress</text>
</a>
</g>
</g>
<!-- Node3&#45;&gt;Node4 -->
<g id="edge3" class="edge">
<title>Node3&#45;&gt;Node4</title>
<path fill="none" stroke="#63b8ff" d="M1345.02,-437.24C1328.28,-426.14 1304.93,-411.67 1283,-401.5 1271.28,-396.07 1257.99,-391.28 1246.04,-387.44"/>
<polygon fill="#63b8ff" stroke="#63b8ff" points="1343.02,-440.11 1353.27,-442.8 1346.93,-434.31 1343.02,-440.11"/>
</g>
<!-- Node19 -->
<g id="node19" class="node">
<title>Node19</title>
<g id="a_node19"><a xlink:href="ModelExchange_8h.html#ab7c9edf843c732d7fe296564f39bc0dc" target="_top" xlink:title="RECEIVE A MODEL FILE.">
<polygon fill="white" stroke="#666666" points="931,-577 837,-577 837,-558 931,-558 931,-577"/>
<text text-anchor="middle" x="884" y="-565" font-family="Helvetica,sans-Serif" font-size="10.00">ReceiveModelFile</text>
</a>
</g>
</g>
<!-- Node3&#45;&gt;Node19 -->
<g id="edge39" class="edge">
<title>Node3&#45;&gt;Node19</title>
<path fill="none" stroke="#63b8ff" d="M1307.46,-463.55C1202.25,-480.88 997.75,-514.65 996,-515.5 976.49,-525.01 979.1,-538.19 960,-548.5 951.14,-553.29 941.03,-556.9 931.17,-559.61"/>
<polygon fill="#63b8ff" stroke="#63b8ff" points="1307.76,-467.05 1317.06,-461.97 1306.62,-460.14 1307.76,-467.05"/>
</g>
<!-- Node5 -->
<g id="node5" class="node">
<title>Node5</title>
<g id="a_node5"><a xlink:href="TransmitterCode_2src_2main_8cpp.html#a641d6dab68ec7b2a8a32492aac55bc1c" target="_top" xlink:title=" ">
<polygon fill="white" stroke="#666666" points="1101,-463 996,-463 996,-444 1101,-444 1101,-463"/>
<text text-anchor="middle" x="1048.5" y="-451" font-family="Helvetica,sans-Serif" font-size="10.00">GetBackupFilename</text>
</a>
</g>
</g>
<!-- Node4&#45;&gt;Node5 -->
<g id="edge4" class="edge">
<title>Node4&#45;&gt;Node5</title>
<path fill="none" stroke="#63b8ff" d="M1178.08,-392.23C1146.34,-407.36 1097.82,-430.47 1070.36,-443.56"/>
<polygon fill="#63b8ff" stroke="#63b8ff" points="1179.26,-395.55 1186.78,-388.09 1176.25,-389.23 1179.26,-395.55"/>
</g>
<!-- Node7 -->
<g id="node7" class="node">
<title>Node7</title>
<g id="a_node7"><a xlink:href="TransmitterCode_2src_2main_8cpp.html#a6506bf72e0dd9e9ce480156b47625bff" target="_top" xlink:title=" ">
<polygon fill="white" stroke="#666666" points="1091.5,-392 1005.5,-392 1005.5,-373 1091.5,-373 1091.5,-392"/>
<text text-anchor="middle" x="1048.5" y="-380" font-family="Helvetica,sans-Serif" font-size="10.00">GetConfirmation</text>
</a>
</g>
</g>
<!-- Node4&#45;&gt;Node7 -->
<g id="edge7" class="edge">
<title>Node4&#45;&gt;Node7</title>
<path fill="none" stroke="#63b8ff" d="M1125.55,-380.12C1113.89,-380.48 1102.35,-380.84 1091.9,-381.17"/>
<polygon fill="#63b8ff" stroke="#63b8ff" points="1125.32,-383.63 1135.2,-379.81 1125.1,-376.63 1125.32,-383.63"/>
</g>
<!-- Node24 -->
<g id="node24" class="node">
<title>Node24</title>
<g id="a_node24"><a xlink:href="TransmitterCode_2src_2main_8cpp.html#a558ea014e230b7caa54ce5a37ad29b22" target="_top" xlink:title=" ">
<polygon fill="white" stroke="#666666" points="758.5,-95 657.5,-95 657.5,-76 758.5,-76 758.5,-95"/>
<text text-anchor="middle" x="708" y="-83" font-family="Helvetica,sans-Serif" font-size="10.00">ManageTransmitter</text>
</a>
</g>
</g>
<!-- Node4&#45;&gt;Node24 -->
<g id="edge27" class="edge">
<title>Node4&#45;&gt;Node24</title>
<path fill="none" stroke="#63b8ff" d="M1199.21,-357.56C1171.17,-303.15 1084.46,-152.95 960,-104.5 894.03,-78.82 811.04,-78.03 758.99,-80.92"/>
<polygon fill="#63b8ff" stroke="#63b8ff" points="1195.99,-358.94 1203.62,-366.3 1202.24,-355.79 1195.99,-358.94"/>
</g>
<!-- Node25 -->
<g id="node25" class="node">
<title>Node25</title>
<g id="a_node25"><a xlink:href="TransmitterCode_2src_2main_8cpp.html#a6f5b0f1e4ca75768c16c4dd93f92a8de" target="_top" xlink:title=" ">
<polygon fill="white" stroke="#666666" points="1074.5,-244 1022.5,-244 1022.5,-225 1074.5,-225 1074.5,-244"/>
<text text-anchor="middle" x="1048.5" y="-232" font-family="Helvetica,sans-Serif" font-size="10.00">MsgBox</text>
</a>
</g>
</g>
<!-- Node4&#45;&gt;Node25 -->
<g id="edge29" class="edge">
<title>Node4&#45;&gt;Node25</title>
<path fill="none" stroke="#63b8ff" d="M1189.48,-360C1155.67,-329.68 1087.25,-268.35 1060.54,-244.4"/>
<polygon fill="#63b8ff" stroke="#63b8ff" points="1187.13,-362.59 1196.91,-366.66 1191.8,-357.38 1187.13,-362.59"/>
</g>
<!-- Node5&#45;&gt;Node3 -->
<g id="edge5" class="edge">
<title>Node5&#45;&gt;Node3</title>
<path fill="none" stroke="#63b8ff" d="M1112.68,-453.5C1173.13,-453.5 1263.1,-453.5 1318.66,-453.5"/>
<polygon fill="#63b8ff" stroke="#63b8ff" points="1112.89,-450 1102.89,-453.5 1112.89,-457 1112.89,-450"/>
</g>
<!-- Node6 -->
<g id="node6" class="node">
<title>Node6</title>
<g id="a_node6"><a xlink:href="TransmitterCode_2src_2main_8cpp.html#a9d94366336f1e5fd43edb9c24bec5821" target="_top" xlink:title=" ">
<polygon fill="white" stroke="#666666" points="918,-540 850,-540 850,-521 918,-521 918,-540"/>
<text text-anchor="middle" x="884" y="-528" font-family="Helvetica,sans-Serif" font-size="10.00">RenameFile</text>
</a>
</g>
</g>
<!-- Node5&#45;&gt;Node6 -->
<g id="edge6" class="edge">
<title>Node5&#45;&gt;Node6</title>
<path fill="none" stroke="#63b8ff" d="M1011.7,-468.36C1006.28,-471.12 1000.87,-474.19 996,-477.5 977.79,-489.86 979.29,-500.9 960,-511.5 947.29,-518.49 931.95,-522.96 918.47,-525.8"/>
<polygon fill="#63b8ff" stroke="#63b8ff" points="1013.12,-471.55 1020.64,-464.09 1010.1,-465.24 1013.12,-471.55"/>
</g>
<!-- Node7&#45;&gt;Node3 -->
<g id="edge8" class="edge">
<title>Node7&#45;&gt;Node3</title>
<path fill="none" stroke="#63b8ff" d="M1102.95,-394.4C1164.89,-408.18 1265.86,-430.65 1323.81,-443.55"/>
<polygon fill="#63b8ff" stroke="#63b8ff" points="1103.85,-391.01 1093.33,-392.26 1102.33,-397.84 1103.85,-391.01"/>
</g>
<!-- Node7&#45;&gt;Node6 -->
<g id="edge22" class="edge">
<title>Node7&#45;&gt;Node6</title>
<path fill="none" stroke="#63b8ff" d="M1027.28,-399.83C1017.02,-409.34 1004.88,-421.76 996,-434.5 974.39,-465.49 989.12,-487.43 960,-511.5 948.4,-521.09 932.6,-525.92 918.49,-528.33"/>
<polygon fill="#63b8ff" stroke="#63b8ff" points="1029.45,-402.58 1034.56,-393.3 1024.78,-397.37 1029.45,-402.58"/>
</g>
<!-- Node8 -->
<g id="node8" class="node">
<title>Node8</title>
<g id="a_node8"><a xlink:href="TransmitterCode_2src_2main_8cpp.html#ac45477c637c975e13189e2988c8813b3" target="_top" xlink:title=" ">
<polygon fill="white" stroke="#666666" points="924,-244 844,-244 844,-225 924,-225 924,-244"/>
<text text-anchor="middle" x="884" y="-232" font-family="Helvetica,sans-Serif" font-size="10.00">DeleteModelID</text>
</a>
</g>
</g>
<!-- Node7&#45;&gt;Node8 -->
<g id="edge9" class="edge">
<title>Node7&#45;&gt;Node8</title>
<path fill="none" stroke="#63b8ff" d="M1039.43,-361.97C1026.93,-332.94 1000.07,-280.32 960,-252.5 949.55,-245.24 936.53,-240.89 924.28,-238.29"/>
<polygon fill="#63b8ff" stroke="#63b8ff" points="1036.15,-363.2 1043.2,-371.11 1042.62,-360.53 1036.15,-363.2"/>
</g>
<!-- Node9 -->
<g id="node9" class="node">
<title>Node9</title>
<g id="a_node9"><a xlink:href="TransmitterCode_2src_2main_8cpp.html#a53d438145d004c3b053f245f494f4284" target="_top" xlink:title=" ">
<polygon fill="white" stroke="#666666" points="910,-429 858,-429 858,-410 910,-410 910,-429"/>
<text text-anchor="middle" x="884" y="-417" font-family="Helvetica,sans-Serif" font-size="10.00">DelLOG</text>
</a>
</g>
</g>
<!-- Node7&#45;&gt;Node9 -->
<g id="edge10" class="edge">
<title>Node7&#45;&gt;Node9</title>
<path fill="none" stroke="#63b8ff" d="M994.3,-394.61C966.09,-401.04 932.72,-408.63 910.35,-413.73"/>
<polygon fill="#63b8ff" stroke="#63b8ff" points="994.78,-398.09 1003.75,-392.46 993.23,-391.27 994.78,-398.09"/>
</g>
<!-- Node10 -->
<g id="node10" class="node">
<title>Node10</title>
<g id="a_node10"><a xlink:href="TransmitterCode_2src_2main_8cpp.html#a16c65917a148c7f6c17babf11e977b69" target="_top" xlink:title=" ">
<polygon fill="white" stroke="#666666" points="925,-392 843,-392 843,-373 925,-373 925,-392"/>
<text text-anchor="middle" x="884" y="-380" font-family="Helvetica,sans-Serif" font-size="10.00">EndBuddyView</text>
</a>
</g>
</g>
<!-- Node7&#45;&gt;Node10 -->
<g id="edge11" class="edge">
<title>Node7&#45;&gt;Node10</title>
<path fill="none" stroke="#63b8ff" d="M993.89,-382.5C971.56,-382.5 946.08,-382.5 925.38,-382.5"/>
<polygon fill="#63b8ff" stroke="#63b8ff" points="993.72,-386 1003.72,-382.5 993.72,-379 993.72,-386"/>
</g>
<!-- Node11 -->
<g id="node11" class="node">
<title>Node11</title>
<g id="a_node11"><a xlink:href="ModelMatch_8h.html#afdd42b1130d38073be1c2025af855879" target="_top" xlink:title=" ">
<polygon fill="white" stroke="#666666" points="918.5,-207 849.5,-207 849.5,-188 918.5,-188 918.5,-207"/>
<text text-anchor="middle" x="884" y="-195" font-family="Helvetica,sans-Serif" font-size="10.00">IDNotFound</text>
</a>
</g>
</g>
<!-- Node7&#45;&gt;Node11 -->
<g id="edge12" class="edge">
<title>Node7&#45;&gt;Node11</title>
<path fill="none" stroke="#63b8ff" d="M1042.65,-361.84C1033.17,-326.23 1008.74,-253.47 960,-215.5 948.27,-206.37 932.62,-201.77 918.64,-199.49"/>
<polygon fill="#63b8ff" stroke="#63b8ff" points="1039.19,-362.45 1045.02,-371.3 1045.98,-360.75 1039.19,-362.45"/>
</g>
<!-- Node18 -->
<g id="node18" class="node">
<title>Node18</title>
<g id="a_node18"><a xlink:href="TransmitterCode_2src_2main_8cpp.html#ae9f91b9da28f2e1e2fb126961f03c31c" target="_top" xlink:title=" ">
<polygon fill="white" stroke="#666666" points="924.5,-355 843.5,-355 843.5,-336 924.5,-336 924.5,-355"/>
<text text-anchor="middle" x="884" y="-343" font-family="Helvetica,sans-Serif" font-size="10.00">ModelViewEnd</text>
</a>
</g>
</g>
<!-- Node7&#45;&gt;Node18 -->
<g id="edge20" class="edge">
<title>Node7&#45;&gt;Node18</title>
<path fill="none" stroke="#63b8ff" d="M994.11,-370.34C971.53,-365.2 945.69,-359.32 924.82,-354.57"/>
<polygon fill="#63b8ff" stroke="#63b8ff" points="993.23,-373.73 1003.75,-372.54 994.78,-366.91 993.23,-373.73"/>
</g>
<!-- Node7&#45;&gt;Node19 -->
<g id="edge21" class="edge">
<title>Node7&#45;&gt;Node19</title>
<path fill="none" stroke="#63b8ff" d="M1026.18,-399.73C1015.82,-409.07 1003.92,-421.38 996,-434.5 968.54,-479.98 998.64,-512.03 960,-548.5 952.09,-555.97 941.67,-560.61 931.13,-563.47"/>
<polygon fill="#63b8ff" stroke="#63b8ff" points="1028.32,-402.51 1033.61,-393.33 1023.75,-397.21 1028.32,-402.51"/>
</g>
<!-- Node20 -->
<g id="node20" class="node">
<title>Node20</title>
<g id="a_node20"><a xlink:href="TransmitterCode_2src_2main_8cpp.html#a75875d66db3193e4034c3768c175f8ef" target="_top" xlink:title=" ">
<polygon fill="white" stroke="#666666" points="917.5,-318 850.5,-318 850.5,-299 917.5,-299 917.5,-318"/>
<text text-anchor="middle" x="884" y="-306" font-family="Helvetica,sans-Serif" font-size="10.00">ResetClock</text>
</a>
</g>
</g>
<!-- Node7&#45;&gt;Node20 -->
<g id="edge23" class="edge">
<title>Node7&#45;&gt;Node20</title>
<path fill="none" stroke="#63b8ff" d="M1025.85,-365.72C1008.81,-353.26 984,-336.72 960,-326.5 946.69,-320.84 931.27,-316.75 917.88,-313.91"/>
<polygon fill="#63b8ff" stroke="#63b8ff" points="1023.61,-368.42 1033.71,-371.6 1027.8,-362.81 1023.61,-368.42"/>
</g>
<!-- Node21 -->
<g id="node21" class="node">
<title>Node21</title>
<g id="a_node21"><a xlink:href="TransmitterCode_2src_2main_8cpp.html#a5c7f22bae35d5d6df9d54fe79dbb8401" target="_top" xlink:title=" ">
<polygon fill="white" stroke="#666666" points="948,-503 820,-503 820,-484 948,-484 948,-503"/>
<text text-anchor="middle" x="884" y="-491" font-family="Helvetica,sans-Serif" font-size="10.00">ResetTransmitterSettings</text>
</a>
</g>
</g>
<!-- Node7&#45;&gt;Node21 -->
<g id="edge24" class="edge">
<title>Node7&#45;&gt;Node21</title>
<path fill="none" stroke="#63b8ff" d="M1029.48,-400.27C1019.5,-410.22 1006.93,-422.92 996,-434.5 979.58,-451.89 980.48,-462.14 960,-474.5 953.91,-478.18 947.12,-481.15 940.19,-483.55"/>
<polygon fill="#63b8ff" stroke="#63b8ff" points="1031.78,-402.92 1036.41,-393.4 1026.85,-397.96 1031.78,-402.92"/>
</g>
<!-- Node22 -->
<g id="node22" class="node">
<title>Node22</title>
<g id="a_node22"><a xlink:href="TransmitterCode_2src_2main_8cpp.html#a3838aa0b33bb22d3b9934da05d2716d8" target="_top" xlink:title=" ">
<polygon fill="white" stroke="#666666" points="922,-281 846,-281 846,-262 922,-262 922,-281"/>
<text text-anchor="middle" x="884" y="-269" font-family="Helvetica,sans-Serif" font-size="10.00">StoreModelID</text>
</a>
</g>
</g>
<!-- Node7&#45;&gt;Node22 -->
<g id="edge25" class="edge">
<title>Node7&#45;&gt;Node22</title>
<path fill="none" stroke="#63b8ff" d="M1034.66,-363.22C1019.41,-341.88 991.97,-308.05 960,-289.5 948.65,-282.91 935,-278.73 922.47,-276.08"/>
<polygon fill="#63b8ff" stroke="#63b8ff" points="1031.7,-365.1 1040.27,-371.33 1037.46,-361.12 1031.7,-365.1"/>
</g>
<!-- Node23 -->
<g id="node23" class="node">
<title>Node23</title>
<g id="a_node23"><a xlink:href="TransmitterCode_2src_2main_8cpp.html#a3c55ef7c23759a89a86f6519569c4f7a" target="_top" xlink:title=" ">
<polygon fill="white" stroke="#666666" points="933.5,-466 834.5,-466 834.5,-447 933.5,-447 933.5,-466"/>
<text text-anchor="middle" x="884" y="-454" font-family="Helvetica,sans-Serif" font-size="10.00">TXModuleViewEnd</text>
</a>
</g>
</g>
<!-- Node7&#45;&gt;Node23 -->
<g id="edge26" class="edge">
<title>Node7&#45;&gt;Node23</title>
<path fill="none" stroke="#63b8ff" d="M1025.47,-399.09C1008.39,-411.25 983.71,-427.34 960,-437.5 951.73,-441.04 942.65,-444.03 933.75,-446.52"/>
<polygon fill="#63b8ff" stroke="#63b8ff" points="1027.33,-402.06 1033.36,-393.35 1023.21,-396.4 1027.33,-402.06"/>
</g>
<!-- Node12 -->
<g id="node12" class="node">
<title>Node12</title>
<g id="a_node12"><a xlink:href="ModelMatch_8h.html#af8fe429ceb65bf9d257a2a0f1c63eccb" target="_top" xlink:title=" ">
<polygon fill="white" stroke="#666666" points="759,-207 657,-207 657,-188 759,-188 759,-207"/>
<text text-anchor="middle" x="708" y="-195" font-family="Helvetica,sans-Serif" font-size="10.00">CompareModelsIDs</text>
</a>
</g>
</g>
<!-- Node11&#45;&gt;Node12 -->
<g id="edge13" class="edge">
<title>Node11&#45;&gt;Node12</title>
<path fill="none" stroke="#63b8ff" d="M837.73,-197.5C813.71,-197.5 784.11,-197.5 759.36,-197.5"/>
<polygon fill="#63b8ff" stroke="#63b8ff" points="837.52,-201 847.52,-197.5 837.52,-194 837.52,-201"/>
</g>
<!-- Node13 -->
<g id="node13" class="node">
<title>Node13</title>
<g id="a_node13"><a xlink:href="ModelMatch_8h.html#a494cb4acb30856d1f53f08df1b80c41b" target="_top" xlink:title=" ">
<polygon fill="white" stroke="#666666" points="608,-207 489,-207 489,-188 608,-188 608,-207"/>
<text text-anchor="middle" x="548.5" y="-195" font-family="Helvetica,sans-Serif" font-size="10.00">GetModelsMacAddress</text>
</a>
</g>
</g>
<!-- Node12&#45;&gt;Node13 -->
<g id="edge14" class="edge">
<title>Node12&#45;&gt;Node13</title>
<path fill="none" stroke="#63b8ff" d="M645.29,-197.5C633.14,-197.5 620.41,-197.5 608.35,-197.5"/>
<polygon fill="#63b8ff" stroke="#63b8ff" points="645.22,-201 655.22,-197.5 645.22,-194 645.22,-201"/>
</g>
<!-- Node14 -->
<g id="node14" class="node">
<title>Node14</title>
<g id="a_node14"><a xlink:href="TransmitterCode_2src_2main_8cpp.html#a694f4f5a0147f4dc29b0bc1a8951547d" target="_top" xlink:title=" ">
<polygon fill="white" stroke="#666666" points="453,-170 359,-170 359,-151 453,-151 453,-170"/>
<text text-anchor="middle" x="406" y="-158" font-family="Helvetica,sans-Serif" font-size="10.00">ParseAckPayload</text>
</a>
</g>
</g>
<!-- Node13&#45;&gt;Node14 -->
<g id="edge15" class="edge">
<title>Node13&#45;&gt;Node14</title>
<path fill="none" stroke="#63b8ff" d="M498.84,-184.69C481.13,-180.02 461.38,-174.82 444.76,-170.44"/>
<polygon fill="#63b8ff" stroke="#63b8ff" points="497.82,-188.04 508.38,-187.2 499.61,-181.27 497.82,-188.04"/>
</g>
<!-- Node15 -->
<g id="node15" class="node">
<title>Node15</title>
<g id="a_node15"><a xlink:href="transceiver_8h.html#a1c11bb6771548de7d96723045b922620" target="_top" xlink:title=" ">
<polygon fill="white" stroke="#666666" points="323,-133 227,-133 227,-114 323,-114 323,-133"/>
<text text-anchor="middle" x="275" y="-121" font-family="Helvetica,sans-Serif" font-size="10.00">SuccessfulPacket</text>
</a>
</g>
</g>
<!-- Node14&#45;&gt;Node15 -->
<g id="edge16" class="edge">
<title>Node14&#45;&gt;Node15</title>
<path fill="none" stroke="#63b8ff" d="M359.63,-147.49C343.54,-142.87 325.72,-137.76 310.67,-133.44"/>
<polygon fill="#63b8ff" stroke="#63b8ff" points="358.4,-150.77 368.98,-150.17 360.33,-144.05 358.4,-150.77"/>
</g>
<!-- Node16 -->
<g id="node16" class="node">
<title>Node16</title>
<g id="a_node16"><a xlink:href="transceiver_8h.html#a049bfb836e7aa4a3a48a1a4bd225fafc" target="_top" xlink:title=" ">
<polygon fill="white" stroke="#666666" points="160.5,-57 101.5,-57 101.5,-38 160.5,-38 160.5,-57"/>
<text text-anchor="middle" x="131" y="-45" font-family="Helvetica,sans-Serif" font-size="10.00">SendData</text>
</a>
</g>
</g>
<!-- Node15&#45;&gt;Node16 -->
<g id="edge17" class="edge">
<title>Node15&#45;&gt;Node16</title>
<path fill="none" stroke="#63b8ff" d="M245.36,-108.17C217.09,-93.04 174.7,-70.35 150.57,-57.44"/>
<polygon fill="#63b8ff" stroke="#63b8ff" points="243.63,-111.22 254.1,-112.85 246.94,-105.05 243.63,-111.22"/>
</g>
<!-- Node16&#45;&gt;Node3 -->
<g id="edge18" class="edge">
<title>Node16&#45;&gt;Node3</title>
<path fill="none" stroke="#63b8ff" d="M171.99,-47.5C225.18,-47.5 322.16,-47.5 405,-47.5 1049.5,-47.5 1049.5,-47.5 1049.5,-47.5 1257.91,-47.5 1350.89,-382.38 1366.2,-443.86"/>
<polygon fill="#63b8ff" stroke="#63b8ff" points="172.21,-44 162.21,-47.5 172.21,-51 172.21,-44"/>
</g>
<!-- Node17 -->
<g id="node17" class="node">
<title>Node17</title>
<g id="a_node17"><a xlink:href="TransmitterCode_2src_2main_8cpp.html#ad3cb30894c94eb016e98bdcaa899ac86" target="_top" xlink:title=" ">
<polygon fill="white" stroke="#666666" points="35,-95 0,-95 0,-76 35,-76 35,-95"/>
<text text-anchor="middle" x="17.5" y="-83" font-family="Helvetica,sans-Serif" font-size="10.00">loop</text>
</a>
</g>
</g>
<!-- Node16&#45;&gt;Node17 -->
<g id="edge19" class="edge">
<title>Node16&#45;&gt;Node17</title>
<path fill="none" stroke="#63b8ff" d="M90.53,-60.95C71.6,-67.4 49.92,-74.79 35.33,-79.76"/>
<polygon fill="#63b8ff" stroke="#63b8ff" points="91.52,-64.31 99.85,-57.77 89.26,-57.69 91.52,-64.31"/>
</g>
<!-- Node24&#45;&gt;Node17 -->
<g id="edge28" class="edge">
<title>Node24&#45;&gt;Node17</title>
<path fill="none" stroke="#63b8ff" d="M645.83,-85.5C585.2,-85.5 489.69,-85.5 407,-85.5 407,-85.5 407,-85.5 274,-85.5 183.95,-85.5 76.06,-85.5 35.24,-85.5"/>
<polygon fill="#63b8ff" stroke="#63b8ff" points="645.59,-89 655.59,-85.5 645.59,-82 645.59,-89"/>
</g>
<!-- Node25&#45;&gt;Node8 -->
<g id="edge30" class="edge">
<title>Node25&#45;&gt;Node8</title>
<path fill="none" stroke="#63b8ff" d="M1010.61,-234.5C984.91,-234.5 950.68,-234.5 924.44,-234.5"/>
<polygon fill="#63b8ff" stroke="#63b8ff" points="1010.6,-238 1020.6,-234.5 1010.6,-231 1010.6,-238"/>
</g>
<!-- Node25&#45;&gt;Node11 -->
<g id="edge31" class="edge">
<title>Node25&#45;&gt;Node11</title>
<path fill="none" stroke="#63b8ff" d="M1010.97,-226.18C983.41,-219.91 945.88,-211.36 918.97,-205.23"/>
<polygon fill="#63b8ff" stroke="#63b8ff" points="1010.11,-229.58 1020.63,-228.38 1011.66,-222.75 1010.11,-229.58"/>
</g>
<!-- Node25&#45;&gt;Node20 -->
<g id="edge32" class="edge">
<title>Node25&#45;&gt;Node20</title>
<path fill="none" stroke="#63b8ff" d="M1025.47,-251.09C1008.39,-263.25 983.71,-279.34 960,-289.5 946.66,-295.21 931.23,-299.49 917.85,-302.52"/>
<polygon fill="#63b8ff" stroke="#63b8ff" points="1027.33,-254.06 1033.36,-245.35 1023.21,-248.4 1027.33,-254.06"/>
</g>
<!-- Node25&#45;&gt;Node22 -->
<g id="edge34" class="edge">
<title>Node25&#45;&gt;Node22</title>
<path fill="none" stroke="#63b8ff" d="M1011.03,-242.8C984.58,-248.83 948.92,-256.95 922.28,-263.01"/>
<polygon fill="#63b8ff" stroke="#63b8ff" points="1011.66,-246.25 1020.63,-240.62 1010.11,-239.42 1011.66,-246.25"/>
</g>
<!-- Node26 -->
<g id="node26" class="node">
<title>Node26</title>
<g id="a_node26"><a xlink:href="ModelExchange_8h.html#ac36bdea2efcd030a336293af16f5dc09" target="_top" xlink:title=" ">
<polygon fill="white" stroke="#666666" points="926.5,-133 841.5,-133 841.5,-114 926.5,-114 926.5,-133"/>
<text text-anchor="middle" x="884" y="-121" font-family="Helvetica,sans-Serif" font-size="10.00">ShowRemoteID</text>
</a>
</g>
</g>
<!-- Node25&#45;&gt;Node26 -->
<g id="edge33" class="edge">
<title>Node25&#45;&gt;Node26</title>
<path fill="none" stroke="#63b8ff" d="M1034.66,-215.22C1019.41,-193.88 991.97,-160.05 960,-141.5 949.92,-135.65 938.03,-131.7 926.73,-129.03"/>
<polygon fill="#63b8ff" stroke="#63b8ff" points="1031.7,-217.1 1040.27,-223.33 1037.46,-213.12 1031.7,-217.1"/>
</g>
<!-- Node27 -->
<g id="node27" class="node">
<title>Node27</title>
<g id="a_node27"><a xlink:href="TransmitterCode_2src_2main_8cpp.html#a7d321cdde32c31b15ca1080fda6743c8" target="_top" xlink:title=" ">
<polygon fill="white" stroke="#666666" points="960,-170 808,-170 808,-151 960,-151 960,-170"/>
<text text-anchor="middle" x="884" y="-158" font-family="Helvetica,sans-Serif" font-size="10.00">WarnUserOfVersionsMismatch</text>
</a>
</g>
</g>
<!-- Node25&#45;&gt;Node27 -->
<g id="edge35" class="edge">
<title>Node25&#45;&gt;Node27</title>
<path fill="none" stroke="#63b8ff" d="M1025.85,-217.72C1008.81,-205.26 984,-188.72 960,-178.5 952.61,-175.35 944.56,-172.69 936.57,-170.46"/>
<polygon fill="#63b8ff" stroke="#63b8ff" points="1023.61,-220.42 1033.71,-223.6 1027.8,-214.81 1023.61,-220.42"/>
</g>
<!-- Node28 -->
<g id="node28" class="node">
<title>Node28</title>
<g id="a_node28"><a xlink:href="TransmitterCode_2src_2main_8cpp.html#ad496cd10d726d7c5757d01a922c2aa25" target="_top" xlink:title=" ">
<polygon fill="white" stroke="#666666" points="772,-170 644,-170 644,-151 772,-151 772,-170"/>
<text text-anchor="middle" x="708" y="-158" font-family="Helvetica,sans-Serif" font-size="10.00">CompareVersionNumbers</text>
</a>
</g>
</g>
<!-- Node27&#45;&gt;Node28 -->
<g id="edge36" class="edge">
<title>Node27&#45;&gt;Node28</title>
<path fill="none" stroke="#63b8ff" d="M796.34,-160.5C788.28,-160.5 780.22,-160.5 772.43,-160.5"/>
<polygon fill="#63b8ff" stroke="#63b8ff" points="796.18,-164 806.18,-160.5 796.18,-157 796.18,-164"/>
</g>
<!-- Node29 -->
<g id="node29" class="node">
<title>Node29</title>
<g id="a_node29"><a xlink:href="TransmitterCode_2src_2main_8cpp.html#a4f813935d8fe58355228cbbf25e12f96" target="_top" xlink:title=" ">
<polygon fill="white" stroke="#666666" points="605,-170 492,-170 492,-151 605,-151 605,-170"/>
<text text-anchor="middle" x="548.5" y="-158" font-family="Helvetica,sans-Serif" font-size="10.00">GetRXVersionNumber</text>
</a>
</g>
</g>
<!-- Node28&#45;&gt;Node29 -->
<g id="edge37" class="edge">
<title>Node28&#45;&gt;Node29</title>
<path fill="none" stroke="#63b8ff" d="M632.38,-160.5C623.26,-160.5 614.07,-160.5 605.3,-160.5"/>
<polygon fill="#63b8ff" stroke="#63b8ff" points="632.33,-164 642.33,-160.5 632.33,-157 632.33,-164"/>
</g>
<!-- Node29&#45;&gt;Node14 -->
<g id="edge38" class="edge">
<title>Node29&#45;&gt;Node14</title>
<path fill="none" stroke="#63b8ff" d="M480.13,-160.5C471.03,-160.5 461.87,-160.5 453.26,-160.5"/>
<polygon fill="#63b8ff" stroke="#63b8ff" points="480.05,-164 490.05,-160.5 480.05,-157 480.05,-164"/>
</g>
<!-- Node31 -->
<g id="node31" class="node">
<title>Node31</title>
<g id="a_node31"><a xlink:href="radio_8h.html#a06807a4f185694d37f774702ba74db0a" target="_top" xlink:title=" ">
<polygon fill="white" stroke="#666666" points="1246,-653 1174,-653 1174,-634 1246,-634 1246,-653"/>
<text text-anchor="middle" x="1210" y="-641" font-family="Helvetica,sans-Serif" font-size="10.00">ReceiveData</text>
</a>
</g>
</g>
<!-- Node30&#45;&gt;Node31 -->
<g id="edge41" class="edge">
<title>Node30&#45;&gt;Node31</title>
<path fill="none" stroke="#63b8ff" d="M1337.56,-582.43C1306.21,-597.56 1258.6,-620.53 1231.6,-633.56"/>
<polygon fill="#63b8ff" stroke="#63b8ff" points="1339.06,-585.59 1346.55,-578.09 1336.02,-579.29 1339.06,-585.59"/>
</g>
<!-- Node32 -->
<g id="node32" class="node">
<title>Node32</title>
<g id="a_node32"><a xlink:href="ReceiverCode_2src_2main_8cpp.html#afe461d27b9c48d5921c00d521181f12f" target="_top" xlink:title=" ">
<polygon fill="white" stroke="#666666" points="1066,-653 1031,-653 1031,-634 1066,-634 1066,-653"/>
<text text-anchor="middle" x="1048.5" y="-641" font-family="Helvetica,sans-Serif" font-size="10.00">loop</text>
</a>
</g>
</g>
<!-- Node31&#45;&gt;Node32 -->
<g id="edge42" class="edge">
<title>Node31&#45;&gt;Node32</title>
<path fill="none" stroke="#63b8ff" d="M1162.14,-643.5C1129.84,-643.5 1088.79,-643.5 1066.24,-643.5"/>
<polygon fill="#63b8ff" stroke="#63b8ff" points="1162.09,-647 1172.09,-643.5 1162.09,-640 1162.09,-647"/>
</g>
<!-- Node31&#45;&gt;Node33 -->
<g id="edge43" class="edge">
<title>Node31&#45;&gt;Node33</title>
<path fill="none" stroke="#63b8ff" d="M1162.72,-654.53C1138.97,-660.18 1110.38,-667 1087.87,-672.36"/>
<polygon fill="#63b8ff" stroke="#63b8ff" points="1163.21,-658.01 1172.13,-652.28 1161.59,-651.2 1163.21,-658.01"/>
</g>
<!-- Node34 -->
<g id="node34" class="node">
<title>Node34</title>
<g id="a_node34"><a xlink:href="ReceiverCode_2src_2main_8cpp.html#a17699f358cf9f7c3155a9c5daf8ff13c" target="_top" xlink:title=" ">
<polygon fill="white" stroke="#666666" points="904.5,-691 863.5,-691 863.5,-672 904.5,-672 904.5,-691"/>
<text text-anchor="middle" x="884" y="-679" font-family="Helvetica,sans-Serif" font-size="10.00">setup</text>
</a>
</g>
</g>
<!-- Node33&#45;&gt;Node34 -->
<g id="edge44" class="edge">
<title>Node33&#45;&gt;Node34</title>
<path fill="none" stroke="#63b8ff" d="M998.2,-681.5C966.73,-681.5 927.66,-681.5 904.62,-681.5"/>
<polygon fill="#63b8ff" stroke="#63b8ff" points="997.89,-685 1007.89,-681.5 997.89,-678 997.89,-685"/>
</g>
<!-- Node35&#45;&gt;Node16 -->
<g id="edge48" class="edge">
<title>Node35&#45;&gt;Node16</title>
<path fill="none" stroke="#63b8ff" d="M234.03,-145.66C231.6,-144.36 229.23,-142.97 227,-141.5 189.6,-116.88 154.59,-75.95 139.63,-57.3"/>
<polygon fill="#63b8ff" stroke="#63b8ff" points="232.37,-148.75 242.9,-149.91 235.39,-142.43 232.37,-148.75"/>
</g>
<!-- Node36 -->
<g id="node36" class="node">
<title>Node36</title>
<g id="a_node36"><a xlink:href="TransmitterCode_2src_2main_8cpp.html#ad2c7ed441d88f2a2b2fca83ff61e714d" target="_top" xlink:title=" ">
<polygon fill="white" stroke="#666666" points="191,-151 71,-151 71,-132 191,-132 191,-151"/>
<text text-anchor="middle" x="131" y="-139" font-family="Helvetica,sans-Serif" font-size="10.00">DoWirelessBuddyListen</text>
</a>
</g>
</g>
<!-- Node35&#45;&gt;Node36 -->
<g id="edge46" class="edge">
<title>Node35&#45;&gt;Node36</title>
<path fill="none" stroke="#63b8ff" d="M218.99,-153.14C209.91,-151.92 200.47,-150.66 191.29,-149.43"/>
<polygon fill="#63b8ff" stroke="#63b8ff" points="218.36,-156.59 228.74,-154.44 219.29,-149.65 218.36,-156.59"/>
</g>
<!-- Node36&#45;&gt;Node17 -->
<g id="edge47" class="edge">
<title>Node36&#45;&gt;Node17</title>
<path fill="none" stroke="#63b8ff" d="M100.13,-126.5C79.41,-116.09 52.56,-102.61 35.43,-94"/>
<polygon fill="#63b8ff" stroke="#63b8ff" points="98.46,-129.58 108.97,-130.94 101.6,-123.32 98.46,-129.58"/>
</g>
<!-- Node38 -->
<g id="node38" class="node">
<title>Node38</title>
<g id="a_node38"><a xlink:href="radio_8h.html#abb1997c589abc6432f612eaedf985e38" target="_top" xlink:title=" ">
<polygon fill="white" stroke="#666666" points="1551,-653 1456,-653 1456,-634 1551,-634 1551,-653"/>
<text text-anchor="middle" x="1503.5" y="-641" font-family="Helvetica,sans-Serif" font-size="10.00">UseReceivedData</text>
</a>
</g>
</g>
<!-- Node37&#45;&gt;Node38 -->
<g id="edge51" class="edge">
<title>Node37&#45;&gt;Node38</title>
<path fill="none" stroke="#63b8ff" d="M1575.14,-643.5C1567.01,-643.5 1558.83,-643.5 1551.08,-643.5"/>
<polygon fill="#63b8ff" stroke="#63b8ff" points="1575.05,-647 1585.05,-643.5 1575.05,-640 1575.05,-647"/>
</g>
<!-- Node39 -->
<g id="node39" class="node">
<title>Node39</title>
<g id="a_node39"><a xlink:href="radio_8h.html#a07ca94db0e305e9c01ec51e417576308" target="_top" xlink:title=" ">
<polygon fill="white" stroke="#666666" points="1399,-653 1340,-653 1340,-634 1399,-634 1399,-653"/>
<text text-anchor="middle" x="1369.5" y="-641" font-family="Helvetica,sans-Serif" font-size="10.00">ReadData</text>
</a>
</g>
</g>
<!-- Node38&#45;&gt;Node39 -->
<g id="edge52" class="edge">
<title>Node38&#45;&gt;Node39</title>
<path fill="none" stroke="#63b8ff" d="M1444.35,-643.5C1428.71,-643.5 1412.46,-643.5 1399.21,-643.5"/>
<polygon fill="#63b8ff" stroke="#63b8ff" points="1444.08,-647 1454.08,-643.5 1444.08,-640 1444.08,-647"/>
</g>
<!-- Node39&#45;&gt;Node31 -->
<g id="edge53" class="edge">
<title>Node39&#45;&gt;Node31</title>
<path fill="none" stroke="#63b8ff" d="M1328.18,-643.5C1302.9,-643.5 1270.6,-643.5 1246.32,-643.5"/>
<polygon fill="#63b8ff" stroke="#63b8ff" points="1328.1,-647 1338.1,-643.5 1328.1,-640 1328.1,-647"/>
</g>
<!-- Node40&#45;&gt;Node3 -->
<g id="edge55" class="edge">
<title>Node40&#45;&gt;Node3</title>
<path fill="none" stroke="#63b8ff" d="M1599.84,-496.71C1595.47,-495.04 1591.12,-493.29 1587,-491.5 1570.41,-484.28 1568.31,-477.76 1551,-472.5 1508.04,-459.43 1456.98,-455.03 1420.15,-453.69"/>
<polygon fill="#63b8ff" stroke="#63b8ff" points="1598.62,-499.98 1609.21,-500.13 1601.02,-493.41 1598.62,-499.98"/>
</g>
<!-- Node40&#45;&gt;Node19 -->
<g id="edge58" class="edge">
<title>Node40&#45;&gt;Node19</title>
<path fill="none" stroke="#63b8ff" d="M1599.31,-515.3C1546.06,-520.92 1451.62,-529.5 1370.5,-529.5 1370.5,-529.5 1370.5,-529.5 1209,-529.5 1109.6,-529.5 994.22,-547.36 931.48,-558.59"/>
<polygon fill="#63b8ff" stroke="#63b8ff" points="1599.59,-518.79 1609.16,-514.24 1598.84,-511.83 1599.59,-518.79"/>
</g>
<!-- Node41 -->
<g id="node41" class="node">
<title>Node41</title>
<g id="a_node41"><a xlink:href="transceiver_8h.html#a5fbd3c8613a4163425c94965704ce5f8" target="_top" xlink:title=" ">
<polygon fill="white" stroke="#666666" points="443,-19 369,-19 369,0 443,0 443,-19"/>
<text text-anchor="middle" x="406" y="-7" font-family="Helvetica,sans-Serif" font-size="10.00">FailedPacket</text>
</a>
</g>
</g>
<!-- Node40&#45;&gt;Node41 -->
<g id="edge56" class="edge">
<title>Node40&#45;&gt;Node41</title>
<path fill="none" stroke="#63b8ff" d="M1600,-500.17C1595.27,-497.84 1590.8,-494.98 1587,-491.5 1413.9,-332.8 1605.34,-9.5 1370.5,-9.5 1370.5,-9.5 1370.5,-9.5 707,-9.5 611.95,-9.5 499.96,-9.5 443.48,-9.5"/>
<polygon fill="#63b8ff" stroke="#63b8ff" points="1598.59,-503.37 1609.17,-503.91 1601.24,-496.89 1598.59,-503.37"/>
</g>
<!-- Node42 -->
<g id="node42" class="node">
<title>Node42</title>
<g id="a_node42"><a xlink:href="ModelExchange_8h.html#a58c67a975068930341f0663e0a08c9d3" target="_top" xlink:title="SEND A MODEL FILE.">
<polygon fill="white" stroke="#666666" points="1544,-501 1463,-501 1463,-482 1544,-482 1544,-501"/>
<text text-anchor="middle" x="1503.5" y="-489" font-family="Helvetica,sans-Serif" font-size="10.00">SendModelFile</text>
</a>
</g>
</g>
<!-- Node40&#45;&gt;Node42 -->
<g id="edge59" class="edge">
<title>Node40&#45;&gt;Node42</title>
<path fill="none" stroke="#63b8ff" d="M1599.39,-504.66C1581.84,-502.23 1561.55,-499.41 1544.26,-497.01"/>
<polygon fill="#63b8ff" stroke="#63b8ff" points="1598.87,-508.12 1609.26,-506.03 1599.83,-501.19 1598.87,-508.12"/>
</g>
<!-- Node41&#45;&gt;Node16 -->
<g id="edge57" class="edge">
<title>Node41&#45;&gt;Node16</title>
<path fill="none" stroke="#63b8ff" d="M357.4,-15.76C321.54,-20.51 271.16,-27.27 227,-33.5 204.71,-36.64 179.51,-40.37 160.67,-43.18"/>
<polygon fill="#63b8ff" stroke="#63b8ff" points="357.55,-19.27 367,-14.49 356.63,-12.33 357.55,-19.27"/>
</g>
<!-- Node42&#45;&gt;Node3 -->
<g id="edge60" class="edge">
<title>Node42&#45;&gt;Node3</title>
<path fill="none" stroke="#63b8ff" d="M1456.96,-478.39C1439.91,-473.48 1420.83,-467.99 1404.95,-463.42"/>
<polygon fill="#63b8ff" stroke="#63b8ff" points="1455.79,-481.69 1466.36,-481.1 1457.72,-474.97 1455.79,-481.69"/>
</g>
</g>
</svg>
