<?xml version="1.0" encoding="UTF-8" standalone="no"?>
<!DOCTYPE svg PUBLIC "-//W3C//DTD SVG 1.1//EN"
 "http://www.w3.org/Graphics/SVG/1.1/DTD/svg11.dtd">
<!-- Generated by graphviz version 7.0.5 (20221223.1930)
 -->
<!-- Title: SendData Pages: 1 -->
<svg width="1046pt" height="1113pt"
 viewBox="0.00 0.00 1046.00 1113.00" xmlns="http://www.w3.org/2000/svg" xmlns:xlink="http://www.w3.org/1999/xlink">
<g id="graph0" class="graph" transform="scale(1 1) rotate(0) translate(4 1109)">
<title>SendData</title>
<!-- Node1 -->
<g id="node1" class="node">
<title>Node1</title>
<g id="a_node1"><a xlink:title=" ">
<polygon fill="#999999" stroke="#666666" points="59,-169 0,-169 0,-150 59,-150 59,-169"/>
<text text-anchor="middle" x="29.5" y="-157" font-family="Helvetica,sans-Serif" font-size="10.00">SendData</text>
</a>
</g>
</g>
<!-- Node2 -->
<g id="node2" class="node">
<title>Node2</title>
<g id="a_node2"><a xlink:href="RadioFunctions_8cpp.html#a1ddd5e8d5bd649dd98ce3710fbff651b" target="_top" xlink:title=" ">
<polygon fill="white" stroke="#666666" points="173.5,-490 112.5,-490 112.5,-471 173.5,-471 173.5,-490"/>
<text text-anchor="middle" x="143" y="-478" font-family="Helvetica,sans-Serif" font-size="10.00">Compress</text>
</a>
</g>
</g>
<!-- Node1&#45;&gt;Node2 -->
<g id="edge1" class="edge">
<title>Node1&#45;&gt;Node2</title>
<path fill="none" stroke="#63b8ff" d="M31.52,-169.44C36.4,-215.68 58.78,-409.47 95,-456.5 97.29,-459.48 100.06,-462.11 103.08,-464.45"/>
<polygon fill="#63b8ff" stroke="#63b8ff" points="101.13,-467.36 111.45,-469.75 104.88,-461.44 101.13,-467.36"/>
</g>
<!-- Node3 -->
<g id="node3" class="node">
<title>Node3</title>
<g id="a_node3"><a xlink:href="RadioFunctions_8cpp.html#a5fbd3c8613a4163425c94965704ce5f8" target="_top" xlink:title=" ">
<polygon fill="white" stroke="#666666" points="313,-678 239,-678 239,-659 313,-659 313,-678"/>
<text text-anchor="middle" x="276" y="-666" font-family="Helvetica,sans-Serif" font-size="10.00">FailedPacket</text>
</a>
</g>
</g>
<!-- Node1&#45;&gt;Node3 -->
<g id="edge2" class="edge">
<title>Node1&#45;&gt;Node3</title>
<path fill="none" stroke="#63b8ff" d="M29.94,-169.25C28.34,-206.89 27.52,-344.42 95,-422.5 125.11,-457.34 159.35,-428.04 191,-461.5 224.9,-497.34 208.47,-520.78 227,-566.5 238.73,-595.44 254.49,-627.93 264.69,-648.31"/>
<polygon fill="#63b8ff" stroke="#63b8ff" points="261.54,-649.83 269.18,-657.18 267.79,-646.67 261.54,-649.83"/>
</g>
<!-- Node33 -->
<g id="node27" class="node">
<title>Node33</title>
<g id="a_node27"><a xlink:href="RadioFunctions_8cpp.html#a07c27b4e208198453c70876517926052" target="_top" xlink:title=" ">
<polygon fill="white" stroke="#666666" points="174,-56 112,-56 112,-37 174,-37 174,-56"/>
<text text-anchor="middle" x="143" y="-44" font-family="Helvetica,sans-Serif" font-size="10.00">FlushFifos</text>
</a>
</g>
</g>
<!-- Node1&#45;&gt;Node33 -->
<g id="edge35" class="edge">
<title>Node1&#45;&gt;Node33</title>
<path fill="none" stroke="#63b8ff" d="M35.66,-149.5C45.27,-131.68 67.45,-94.08 95,-70.5 98.68,-67.35 102.85,-64.48 107.14,-61.9"/>
<polygon fill="#63b8ff" stroke="#63b8ff" points="108.76,-65 115.89,-57.16 105.43,-58.85 108.76,-65"/>
</g>
<!-- Node34 -->
<g id="node28" class="node">
<title>Node34</title>
<g id="a_node28"><a xlink:href="TransmitterCode_2src_2main_8cpp.html#ac4ffb9b555ce8d38f615610dc89b5499" target="_top" xlink:title=" ">
<polygon fill="white" stroke="#666666" points="466.5,-169 377.5,-169 377.5,-150 466.5,-150 466.5,-169"/>
<text text-anchor="middle" x="422" y="-157" font-family="Helvetica,sans-Serif" font-size="10.00">LoadPacketData</text>
</a>
</g>
</g>
<!-- Node1&#45;&gt;Node34 -->
<g id="edge36" class="edge">
<title>Node1&#45;&gt;Node34</title>
<path fill="none" stroke="#63b8ff" d="M59.21,-159.5C123.81,-159.5 281.5,-159.5 365.77,-159.5"/>
<polygon fill="#63b8ff" stroke="#63b8ff" points="365.64,-163 375.64,-159.5 365.64,-156 365.64,-163"/>
</g>
<!-- Node37 -->
<g id="node31" class="node">
<title>Node37</title>
<g id="a_node31"><a xlink:href="TransmitterCode_2src_2main_8cpp.html#a784a1eca0361b3991bca899167cc1cdb" target="_top" xlink:title=" ">
<polygon fill="white" stroke="#666666" points="180.5,-19 105.5,-19 105.5,0 180.5,0 180.5,-19"/>
<text text-anchor="middle" x="143" y="-7" font-family="Helvetica,sans-Serif" font-size="10.00">SendViaPPM</text>
</a>
</g>
</g>
<!-- Node1&#45;&gt;Node37 -->
<g id="edge41" class="edge">
<title>Node1&#45;&gt;Node37</title>
<path fill="none" stroke="#63b8ff" d="M32.65,-149.72C38.45,-125.59 56.61,-62.62 95,-27.5 95.76,-26.8 96.55,-26.13 97.37,-25.49"/>
<polygon fill="#63b8ff" stroke="#63b8ff" points="99.02,-28.58 105.61,-20.29 95.29,-22.66 99.02,-28.58"/>
</g>
<!-- Node38 -->
<g id="node32" class="node">
<title>Node38</title>
<g id="a_node32"><a xlink:href="RadioFunctions_8cpp.html#a1c11bb6771548de7d96723045b922620" target="_top" xlink:title=" ">
<polygon fill="white" stroke="#666666" points="191,-414 95,-414 95,-395 191,-395 191,-414"/>
<text text-anchor="middle" x="143" y="-402" font-family="Helvetica,sans-Serif" font-size="10.00">SuccessfulPacket</text>
</a>
</g>
</g>
<!-- Node1&#45;&gt;Node38 -->
<g id="edge42" class="edge">
<title>Node1&#45;&gt;Node38</title>
<path fill="none" stroke="#63b8ff" d="M35.01,-169.41C51.68,-206.04 110.04,-334.28 132.81,-384.3"/>
<polygon fill="#63b8ff" stroke="#63b8ff" points="129.6,-385.71 136.93,-393.36 135.97,-382.81 129.6,-385.71"/>
</g>
<!-- Node4 -->
<g id="node4" class="node">
<title>Node4</title>
<g id="a_node4"><a xlink:href="TransmitterCode_2src_2main_8cpp.html#afd409fe008843b50c3e2ff697558d4d5" target="_top" xlink:title=" ">
<polygon fill="white" stroke="#666666" points="629,-918 537,-918 537,-899 629,-899 629,-918"/>
<text text-anchor="middle" x="583" y="-906" font-family="Helvetica,sans-Serif" font-size="10.00">LogThisLongGap</text>
</a>
</g>
</g>
<!-- Node3&#45;&gt;Node4 -->
<g id="edge3" class="edge">
<title>Node3&#45;&gt;Node4</title>
<path fill="none" stroke="#63b8ff" d="M278.45,-678.27C283.56,-709.02 303.57,-804.58 361,-852.5 407.28,-891.12 476.71,-903.61 525.36,-907.39"/>
<polygon fill="#63b8ff" stroke="#63b8ff" points="524.92,-910.87 535.13,-908.04 525.39,-903.88 524.92,-910.87"/>
</g>
<!-- Node15 -->
<g id="node10" class="node">
<title>Node15</title>
<g id="a_node10"><a xlink:href="RadioFunctions_8cpp.html#afc091b5942e21a03f6dc8635d5e519ba" target="_top" xlink:title=" ">
<polygon fill="white" stroke="#666666" points="483,-659 361,-659 361,-640 483,-640 483,-659"/>
<text text-anchor="middle" x="422" y="-647" font-family="Helvetica,sans-Serif" font-size="10.00">RecordsPacketSuccess</text>
</a>
</g>
</g>
<!-- Node3&#45;&gt;Node15 -->
<g id="edge10" class="edge">
<title>Node3&#45;&gt;Node15</title>
<path fill="none" stroke="#63b8ff" d="M313.34,-663.71C324.31,-662.26 336.76,-660.62 349.2,-658.97"/>
<polygon fill="#63b8ff" stroke="#63b8ff" points="349.63,-662.45 359.08,-657.67 348.71,-655.51 349.63,-662.45"/>
</g>
<!-- Node16 -->
<g id="node11" class="node">
<title>Node16</title>
<g id="a_node11"><a xlink:href="TransmitterCode_2src_2main_8cpp.html#a7d34cec6e8edc20c8b50424e15dcc7c7" target="_top" xlink:title=" ">
<polygon fill="white" stroke="#666666" points="453.5,-508 390.5,-508 390.5,-489 453.5,-489 453.5,-508"/>
<text text-anchor="middle" x="422" y="-496" font-family="Helvetica,sans-Serif" font-size="10.00">RedLedOn</text>
</a>
</g>
</g>
<!-- Node3&#45;&gt;Node16 -->
<g id="edge11" class="edge">
<title>Node3&#45;&gt;Node16</title>
<path fill="none" stroke="#63b8ff" d="M285.15,-658.87C308.31,-631.53 374.77,-553.08 405.31,-517.03"/>
<polygon fill="#63b8ff" stroke="#63b8ff" points="407.81,-519.49 411.6,-509.6 402.46,-514.97 407.81,-519.49"/>
</g>
<!-- Node27 -->
<g id="node21" class="node">
<title>Node27</title>
<g id="a_node21"><a xlink:href="TransmitterCode_2src_2main_8cpp.html#a0a3d89dfcfab70c6cbc50401fff1afeb" target="_top" xlink:title=" ">
<polygon fill="white" stroke="#666666" points="637.5,-509 528.5,-509 528.5,-490 637.5,-490 637.5,-509"/>
<text text-anchor="middle" x="583" y="-497" font-family="Helvetica,sans-Serif" font-size="10.00">ReEnableScanButton</text>
</a>
</g>
</g>
<!-- Node3&#45;&gt;Node27 -->
<g id="edge27" class="edge">
<title>Node3&#45;&gt;Node27</title>
<path fill="none" stroke="#63b8ff" d="M305.9,-678.43C349.39,-691.38 431.98,-707.92 483,-667.5 536.74,-624.92 471.57,-567 519,-517.5 519.48,-517 519.97,-516.51 520.48,-516.04"/>
<polygon fill="#63b8ff" stroke="#63b8ff" points="522.28,-519.05 528.33,-510.36 518.18,-513.38 522.28,-519.05"/>
</g>
<!-- Node28 -->
<g id="node22" class="node">
<title>Node28</title>
<g id="a_node22"><a xlink:href="RadioFunctions_8cpp.html#ad0236abcfc887ad708d9504c4ab2a7c3" target="_top" xlink:title=" ">
<polygon fill="white" stroke="#666666" points="466,-1068 378,-1068 378,-1049 466,-1049 466,-1068"/>
<text text-anchor="middle" x="422" y="-1056" font-family="Helvetica,sans-Serif" font-size="10.00">TryToReconnect</text>
</a>
</g>
</g>
<!-- Node3&#45;&gt;Node28 -->
<g id="edge30" class="edge">
<title>Node3&#45;&gt;Node28</title>
<path fill="none" stroke="#63b8ff" d="M280.42,-678.43C291.64,-710.97 328.5,-817.29 361,-904.5 378.97,-952.71 401.2,-1008.93 412.91,-1038.29"/>
<polygon fill="#63b8ff" stroke="#63b8ff" points="409.59,-1039.42 416.55,-1047.4 416.09,-1036.82 409.59,-1039.42"/>
</g>
<!-- Node5 -->
<g id="node5" class="node">
<title>Node5</title>
<g id="a_node5"><a xlink:href="TransmitterCode_2src_2main_8cpp.html#add8d8f400f1c1c4a5add52736cdf94ca" target="_top" xlink:title=" ">
<polygon fill="white" stroke="#666666" points="764,-657 712,-657 712,-638 764,-638 764,-657"/>
<text text-anchor="middle" x="738" y="-645" font-family="Helvetica,sans-Serif" font-size="10.00">LogText</text>
</a>
</g>
</g>
<!-- Node4&#45;&gt;Node5 -->
<g id="edge4" class="edge">
<title>Node4&#45;&gt;Node5</title>
<path fill="none" stroke="#63b8ff" d="M629.44,-901.16C635.87,-898.59 641.99,-895.14 647,-890.5 712.91,-829.44 730.76,-715.75 735.42,-668.71"/>
<polygon fill="#63b8ff" stroke="#63b8ff" points="738.9,-669.09 736.28,-658.82 731.93,-668.48 738.9,-669.09"/>
</g>
<!-- Node10 -->
<g id="node9" class="node">
<title>Node10</title>
<g id="a_node9"><a xlink:href="TransmitterCode_2src_2main_8cpp.html#a590a9174319918d7e3d7baca323fcf26" target="_top" xlink:title=" ">
<polygon fill="white" stroke="#666666" points="752.5,-620 723.5,-620 723.5,-601 752.5,-601 752.5,-620"/>
<text text-anchor="middle" x="738" y="-608" font-family="Helvetica,sans-Serif" font-size="10.00">Str</text>
</a>
</g>
</g>
<!-- Node4&#45;&gt;Node10 -->
<g id="edge9" class="edge">
<title>Node4&#45;&gt;Node10</title>
<path fill="none" stroke="#63b8ff" d="M629.42,-902.46C636.1,-899.75 642.3,-895.91 647,-890.5 724.02,-801.71 607.93,-718.94 683,-628.5 690.15,-619.88 701.56,-615.37 712.05,-613.01"/>
<polygon fill="#63b8ff" stroke="#63b8ff" points="712.44,-616.49 721.73,-611.41 711.3,-609.59 712.44,-616.49"/>
</g>
<!-- Node6 -->
<g id="node6" class="node">
<title>Node6</title>
<g id="a_node6"><a xlink:href="TransmitterCode_2src_2main_8cpp.html#a6f003363493fc53b69f9efc1f447a6a1" target="_top" xlink:title=" ">
<polygon fill="white" stroke="#666666" points="911,-657 837,-657 837,-638 911,-638 911,-657"/>
<text text-anchor="middle" x="874" y="-645" font-family="Helvetica,sans-Serif" font-size="10.00">CloseLogFile</text>
</a>
</g>
</g>
<!-- Node5&#45;&gt;Node6 -->
<g id="edge5" class="edge">
<title>Node5&#45;&gt;Node6</title>
<path fill="none" stroke="#63b8ff" d="M764.2,-647.5C781.33,-647.5 804.53,-647.5 825.1,-647.5"/>
<polygon fill="#63b8ff" stroke="#63b8ff" points="825.01,-651 835.01,-647.5 825.01,-644 825.01,-651"/>
</g>
<!-- Node7 -->
<g id="node7" class="node">
<title>Node7</title>
<g id="a_node7"><a xlink:href="TransmitterCode_2src_2main_8cpp.html#a99a51dbad5d686ca711e982f82cbcada" target="_top" xlink:title=" ">
<polygon fill="#fff0f0" stroke="red" points="919,-694 829,-694 829,-675 919,-675 919,-694"/>
<text text-anchor="middle" x="874" y="-682" font-family="Helvetica,sans-Serif" font-size="10.00">LogFilePreamble</text>
</a>
</g>
</g>
<!-- Node5&#45;&gt;Node7 -->
<g id="edge6" class="edge">
<title>Node5&#45;&gt;Node7</title>
<path fill="none" stroke="#63b8ff" d="M764.2,-654.46C781.62,-659.27 805.31,-665.81 826.14,-671.56"/>
<polygon fill="#63b8ff" stroke="#63b8ff" points="825,-674.88 835.58,-674.17 826.87,-668.13 825,-674.88"/>
</g>
<!-- Node14 -->
<g id="node8" class="node">
<title>Node14</title>
<g id="a_node8"><a xlink:href="TransmitterCode_2src_2main_8cpp.html#a99154e537ca6e0ce5d538fddf0c2aab3" target="_top" xlink:title=" ">
<polygon fill="white" stroke="#666666" points="1038,-656 955,-656 955,-637 1038,-637 1038,-656"/>
<text text-anchor="middle" x="996.5" y="-644" font-family="Helvetica,sans-Serif" font-size="10.00">WriteToLogFile</text>
</a>
</g>
</g>
<!-- Node5&#45;&gt;Node14 -->
<g id="edge8" class="edge">
<title>Node5&#45;&gt;Node14</title>
<path fill="none" stroke="#63b8ff" d="M764.38,-640.67C782.29,-636.21 806.92,-630.8 829,-628.5 868.78,-624.35 879.27,-623.89 919,-628.5 929.04,-629.67 939.68,-631.67 949.73,-633.92"/>
<polygon fill="#63b8ff" stroke="#63b8ff" points="948.75,-637.28 959.29,-636.19 950.37,-630.47 948.75,-637.28"/>
</g>
<!-- Node7&#45;&gt;Node14 -->
<g id="edge7" class="edge">
<title>Node7&#45;&gt;Node14</title>
<path fill="none" stroke="#63b8ff" d="M906.66,-674.52C920.91,-670.02 937.94,-664.65 953.26,-659.82"/>
<polygon fill="#63b8ff" stroke="#63b8ff" points="954.12,-663.22 962.61,-656.87 952.02,-656.54 954.12,-663.22"/>
</g>
<!-- Node17 -->
<g id="node12" class="node">
<title>Node17</title>
<g id="a_node12"><a xlink:href="TransmitterCode_2src_2main_8cpp.html#a549a702bb9b539c6b3a4f20cce65adcc" target="_top" xlink:title=" ">
<polygon fill="white" stroke="#666666" points="632,-583 534,-583 534,-564 632,-564 632,-583"/>
<text text-anchor="middle" x="583" y="-571" font-family="Helvetica,sans-Serif" font-size="10.00">GetLEDBrightness</text>
</a>
</g>
</g>
<!-- Node16&#45;&gt;Node17 -->
<g id="edge12" class="edge">
<title>Node16&#45;&gt;Node17</title>
<path fill="none" stroke="#63b8ff" d="M453.59,-508.39C463.33,-512.15 473.93,-516.9 483,-522.5 501.21,-533.75 500.31,-544.05 519,-554.5 522.24,-556.31 525.67,-557.97 529.2,-559.48"/>
<polygon fill="#63b8ff" stroke="#63b8ff" points="527.94,-562.75 538.53,-563.06 530.45,-556.21 527.94,-562.75"/>
</g>
<!-- Node18 -->
<g id="node13" class="node">
<title>Node18</title>
<g id="a_node13"><a xlink:href="TransmitterCode_2src_2main_8cpp.html#a2d5ec5fd5ed62d5b7b071fabe2225405" target="_top" xlink:title=" ">
<polygon fill="white" stroke="#666666" points="631,-546 535,-546 535,-527 631,-527 631,-546"/>
<text text-anchor="middle" x="583" y="-534" font-family="Helvetica,sans-Serif" font-size="10.00">LogDisConnection</text>
</a>
</g>
</g>
<!-- Node16&#45;&gt;Node18 -->
<g id="edge13" class="edge">
<title>Node16&#45;&gt;Node18</title>
<path fill="none" stroke="#63b8ff" d="M453.66,-505.83C475.02,-510.93 504.07,-517.87 529.13,-523.86"/>
<polygon fill="#63b8ff" stroke="#63b8ff" points="528.3,-527.27 538.84,-526.19 529.93,-520.46 528.3,-527.27"/>
</g>
<!-- Node19 -->
<g id="node14" class="node">
<title>Node19</title>
<g id="a_node14"><a xlink:href="TransmitterCode_2src_2main_8cpp.html#aa490b4664b0a4498d53b30b82287d5df" target="_top" xlink:title=" ">
<polygon fill="white" stroke="#666666" points="614.5,-433 551.5,-433 551.5,-414 614.5,-414 614.5,-433"/>
<text text-anchor="middle" x="583" y="-421" font-family="Helvetica,sans-Serif" font-size="10.00">PlaySound</text>
</a>
</g>
</g>
<!-- Node16&#45;&gt;Node19 -->
<g id="edge15" class="edge">
<title>Node16&#45;&gt;Node19</title>
<path fill="none" stroke="#63b8ff" d="M453.94,-491.4C463.61,-488.48 474.07,-484.57 483,-479.5 501.61,-468.93 500.7,-458.6 519,-447.5 525.66,-443.46 533.11,-439.9 540.49,-436.84"/>
<polygon fill="#63b8ff" stroke="#63b8ff" points="541.68,-440.14 549.74,-433.27 539.15,-433.61 541.68,-440.14"/>
</g>
<!-- Node20 -->
<g id="node15" class="node">
<title>Node20</title>
<g id="a_node15"><a xlink:href="TransmitterCode_2src_2main_8cpp.html#aecac2f0c289f02ef3c92b85be82eacac" target="_top" xlink:title=" ">
<polygon fill="white" stroke="#666666" points="779.5,-377 696.5,-377 696.5,-358 779.5,-358 779.5,-377"/>
<text text-anchor="middle" x="738" y="-365" font-family="Helvetica,sans-Serif" font-size="10.00">SendCommand</text>
</a>
</g>
</g>
<!-- Node16&#45;&gt;Node20 -->
<g id="edge22" class="edge">
<title>Node16&#45;&gt;Node20</title>
<path fill="none" stroke="#63b8ff" d="M453.63,-492.44C506.64,-481.66 613.08,-458.67 647,-441.5 675.59,-427.03 703.25,-402.14 720.19,-385.26"/>
<polygon fill="#63b8ff" stroke="#63b8ff" points="722.47,-387.94 726.96,-378.34 717.47,-383.04 722.47,-387.94"/>
</g>
<!-- Node25 -->
<g id="node19" class="node">
<title>Node25</title>
<g id="a_node19"><a xlink:href="TransmitterCode_2src_2main_8cpp.html#afe513398f72d5e48f691830a1ef6eb42" target="_top" xlink:title=" ">
<polygon fill="white" stroke="#666666" points="612,-396 554,-396 554,-377 612,-377 612,-396"/>
<text text-anchor="middle" x="583" y="-384" font-family="Helvetica,sans-Serif" font-size="10.00">SendText</text>
</a>
</g>
</g>
<!-- Node16&#45;&gt;Node25 -->
<g id="edge23" class="edge">
<title>Node16&#45;&gt;Node25</title>
<path fill="none" stroke="#63b8ff" d="M453.8,-493.83C464.01,-491.04 474.83,-486.59 483,-479.5 510.92,-455.26 490.74,-428.34 519,-404.5 525.71,-398.84 534.1,-394.96 542.55,-392.29"/>
<polygon fill="#63b8ff" stroke="#63b8ff" points="543.28,-395.72 552.08,-389.83 541.53,-388.94 543.28,-395.72"/>
</g>
<!-- Node26 -->
<g id="node20" class="node">
<title>Node26</title>
<g id="a_node20"><a xlink:href="ReceiverCode_2src_2main_8cpp.html#a2eabdb233653fa02f0b899e26b5e8ce7" target="_top" xlink:title=" ">
<polygon fill="white" stroke="#666666" points="632.5,-283 533.5,-283 533.5,-264 632.5,-264 632.5,-283"/>
<text text-anchor="middle" x="583" y="-271" font-family="Helvetica,sans-Serif" font-size="10.00">SetUKFrequencies</text>
</a>
</g>
</g>
<!-- Node16&#45;&gt;Node26 -->
<g id="edge26" class="edge">
<title>Node16&#45;&gt;Node26</title>
<path fill="none" stroke="#63b8ff" d="M453.98,-495.19C464.57,-492.54 475.6,-487.83 483,-479.5 539.52,-415.92 461.58,-354.28 519,-291.5 520.35,-290.03 521.8,-288.67 523.35,-287.43"/>
<polygon fill="#63b8ff" stroke="#63b8ff" points="525.11,-290.46 531.75,-282.21 521.41,-284.51 525.11,-290.46"/>
</g>
<!-- Node18&#45;&gt;Node5 -->
<g id="edge14" class="edge">
<title>Node18&#45;&gt;Node5</title>
<path fill="none" stroke="#63b8ff" d="M631.31,-545.19C636.98,-547.58 642.38,-550.62 647,-554.5 675.02,-578.01 655.7,-604.16 683,-628.5 688.13,-633.08 694.43,-636.57 700.9,-639.22"/>
<polygon fill="#63b8ff" stroke="#63b8ff" points="699.73,-642.52 710.32,-642.46 702,-635.9 699.73,-642.52"/>
</g>
<!-- Node19&#45;&gt;Node10 -->
<g id="edge21" class="edge">
<title>Node19&#45;&gt;Node10</title>
<path fill="none" stroke="#63b8ff" d="M596.38,-433.25C609.67,-444.04 631.04,-462.32 647,-480.5 678.99,-516.94 709.69,-565 725.64,-591.28"/>
<polygon fill="#63b8ff" stroke="#63b8ff" points="722.44,-592.74 730.58,-599.52 728.44,-589.14 722.44,-592.74"/>
</g>
<!-- Node19&#45;&gt;Node20 -->
<g id="edge16" class="edge">
<title>Node19&#45;&gt;Node20</title>
<path fill="none" stroke="#63b8ff" d="M614.96,-414.82C625.22,-411.76 636.67,-408.17 647,-404.5 666.2,-397.68 687.28,-389.07 704.21,-381.88"/>
<polygon fill="#63b8ff" stroke="#63b8ff" points="705.47,-385.14 713.28,-377.98 702.71,-378.71 705.47,-385.14"/>
</g>
<!-- Node21 -->
<g id="node16" class="node">
<title>Node21</title>
<g id="a_node16"><a xlink:href="TransmitterCode_2src_2main_8cpp.html#a43937dd3d9c795271fd9c3eb3c6b6410" target="_top" xlink:title=" ">
<polygon fill="white" stroke="#666666" points="915.5,-415 832.5,-415 832.5,-396 915.5,-396 915.5,-415"/>
<text text-anchor="middle" x="874" y="-403" font-family="Helvetica,sans-Serif" font-size="10.00">GetReturnCode</text>
</a>
</g>
</g>
<!-- Node20&#45;&gt;Node21 -->
<g id="edge17" class="edge">
<title>Node20&#45;&gt;Node21</title>
<path fill="none" stroke="#63b8ff" d="M774.21,-377.48C790.36,-382.07 809.73,-387.56 827.02,-392.46"/>
<polygon fill="#63b8ff" stroke="#63b8ff" points="826,-395.81 836.57,-395.17 827.91,-389.07 826,-395.81"/>
</g>
<!-- Node22 -->
<g id="node17" class="node">
<title>Node22</title>
<g id="a_node17"><a xlink:href="TransmitterCode_2src_2main_8cpp.html#a5f109790a6fe0b972a502f3cac4ed1e7" target="_top" xlink:title=" ">
<polygon fill="white" stroke="#666666" points="898,-377 850,-377 850,-358 898,-358 898,-377"/>
<text text-anchor="middle" x="874" y="-365" font-family="Helvetica,sans-Serif" font-size="10.00">InStrng</text>
</a>
</g>
</g>
<!-- Node20&#45;&gt;Node22 -->
<g id="edge18" class="edge">
<title>Node20&#45;&gt;Node22</title>
<path fill="none" stroke="#63b8ff" d="M779.93,-367.5C798.66,-367.5 820.6,-367.5 838.48,-367.5"/>
<polygon fill="#63b8ff" stroke="#63b8ff" points="838.32,-371 848.32,-367.5 838.32,-364 838.32,-371"/>
</g>
<!-- Node23 -->
<g id="node18" class="node">
<title>Node23</title>
<g id="a_node18"><a xlink:href="RadioFunctions_8cpp.html#a760609a682300dfe6bfaac737fd4d5eb" target="_top" xlink:title=" ">
<polygon fill="#fff0f0" stroke="red" points="911,-245 837,-245 837,-226 911,-226 911,-245"/>
<text text-anchor="middle" x="874" y="-233" font-family="Helvetica,sans-Serif" font-size="10.00">Procrastinate</text>
</a>
</g>
</g>
<!-- Node20&#45;&gt;Node23 -->
<g id="edge19" class="edge">
<title>Node20&#45;&gt;Node23</title>
<path fill="none" stroke="#63b8ff" d="M749.07,-357.58C771.69,-335.3 826.75,-281.06 855.25,-252.99"/>
<polygon fill="#63b8ff" stroke="#63b8ff" points="857.43,-255.75 862.1,-246.24 852.52,-250.76 857.43,-255.75"/>
</g>
<!-- Node23&#45;&gt;Node1 -->
<g id="edge20" class="edge">
<title>Node23&#45;&gt;Node1</title>
<path fill="none" stroke="#63b8ff" d="M862.99,-225.59C827.95,-192 706.28,-84.5 584,-84.5 275,-84.5 275,-84.5 275,-84.5 193.99,-84.5 104.26,-122.6 59.38,-144.49"/>
<polygon fill="#63b8ff" stroke="#63b8ff" points="57.98,-141.28 50.59,-148.87 61.1,-147.54 57.98,-141.28"/>
</g>
<!-- Node25&#45;&gt;Node20 -->
<g id="edge25" class="edge">
<title>Node25&#45;&gt;Node20</title>
<path fill="none" stroke="#63b8ff" d="M612.42,-382.97C632.71,-380.45 660.59,-376.99 684.84,-373.98"/>
<polygon fill="#63b8ff" stroke="#63b8ff" points="685.04,-377.48 694.53,-372.77 684.18,-370.53 685.04,-377.48"/>
</g>
<!-- Node25&#45;&gt;Node21 -->
<g id="edge24" class="edge">
<title>Node25&#45;&gt;Node21</title>
<path fill="none" stroke="#63b8ff" d="M612.24,-388.36C660.54,-391.53 759.72,-398.05 820.88,-402.07"/>
<polygon fill="#63b8ff" stroke="#63b8ff" points="820.49,-405.56 830.7,-402.72 820.95,-398.57 820.49,-405.56"/>
</g>
<!-- Node27&#45;&gt;Node10 -->
<g id="edge29" class="edge">
<title>Node27&#45;&gt;Node10</title>
<path fill="none" stroke="#63b8ff" d="M629.6,-509.42C635.67,-511.62 641.63,-514.28 647,-517.5 679.13,-536.76 707.58,-570.38 723.52,-591.48"/>
<polygon fill="#63b8ff" stroke="#63b8ff" points="720.66,-593.51 729.4,-599.5 726.31,-589.37 720.66,-593.51"/>
</g>
<!-- Node27&#45;&gt;Node20 -->
<g id="edge28" class="edge">
<title>Node27&#45;&gt;Node20</title>
<path fill="none" stroke="#63b8ff" d="M619.61,-489.54C629.01,-485.98 638.81,-481.35 647,-475.5 681.11,-451.15 709.95,-410.88 725.25,-387"/>
<polygon fill="#63b8ff" stroke="#63b8ff" points="728.17,-388.92 730.49,-378.58 722.23,-385.22 728.17,-388.92"/>
</g>
<!-- Node29 -->
<g id="node23" class="node">
<title>Node29</title>
<g id="a_node23"><a xlink:href="RadioFunctions_8cpp.html#a52aa3e80bccf5e75346c93fdae63122d" target="_top" xlink:title=" ">
<polygon fill="white" stroke="#666666" points="633.5,-1068 532.5,-1068 532.5,-1049 633.5,-1049 633.5,-1068"/>
<text text-anchor="middle" x="583" y="-1056" font-family="Helvetica,sans-Serif" font-size="10.00">HopToNextChannel</text>
</a>
</g>
</g>
<!-- Node28&#45;&gt;Node29 -->
<g id="edge31" class="edge">
<title>Node28&#45;&gt;Node29</title>
<path fill="none" stroke="#63b8ff" d="M466.45,-1058.5C483.2,-1058.5 502.65,-1058.5 520.77,-1058.5"/>
<polygon fill="#63b8ff" stroke="#63b8ff" points="520.63,-1062 530.63,-1058.5 520.63,-1055 520.63,-1062"/>
</g>
<!-- Node31 -->
<g id="node25" class="node">
<title>Node31</title>
<g id="a_node25"><a xlink:href="RadioFunctions_8cpp.html#ad0e30213b21808d00110752679788a8c" target="_top" xlink:title=" ">
<polygon fill="white" stroke="#666666" points="620,-1105 546,-1105 546,-1086 620,-1086 620,-1105"/>
<text text-anchor="middle" x="583" y="-1093" font-family="Helvetica,sans-Serif" font-size="10.00">TryOtherPipe</text>
</a>
</g>
</g>
<!-- Node28&#45;&gt;Node31 -->
<g id="edge33" class="edge">
<title>Node28&#45;&gt;Node31</title>
<path fill="none" stroke="#63b8ff" d="M465.61,-1068.42C486.92,-1073.37 512.76,-1079.39 534.69,-1084.49"/>
<polygon fill="#63b8ff" stroke="#63b8ff" points="533.74,-1087.86 544.27,-1086.72 535.33,-1081.05 533.74,-1087.86"/>
</g>
<!-- Node30 -->
<g id="node24" class="node">
<title>Node30</title>
<g id="a_node24"><a xlink:href="radio_8h.html#a2863e7455e30e6fddc0fcf56f62d6564" target="_top" xlink:title=" ">
<polygon fill="white" stroke="#666666" points="793,-1068 683,-1068 683,-1049 793,-1049 793,-1068"/>
<text text-anchor="middle" x="738" y="-1056" font-family="Helvetica,sans-Serif" font-size="10.00">ShowHopDurationEtc</text>
</a>
</g>
</g>
<!-- Node29&#45;&gt;Node30 -->
<g id="edge32" class="edge">
<title>Node29&#45;&gt;Node30</title>
<path fill="none" stroke="#63b8ff" d="M633.67,-1058.5C645.63,-1058.5 658.59,-1058.5 671.16,-1058.5"/>
<polygon fill="#63b8ff" stroke="#63b8ff" points="671.04,-1062 681.04,-1058.5 671.04,-1055 671.04,-1062"/>
</g>
<!-- Node32 -->
<g id="node26" class="node">
<title>Node32</title>
<g id="a_node26"><a xlink:href="RadioFunctions_8cpp.html#a70dc6f8d2e5ccef6b8e4a2b9b0afb2ce" target="_top" xlink:title=" ">
<polygon fill="white" stroke="#666666" points="772,-1105 704,-1105 704,-1086 772,-1086 772,-1105"/>
<text text-anchor="middle" x="738" y="-1093" font-family="Helvetica,sans-Serif" font-size="10.00">SetThePipe</text>
</a>
</g>
</g>
<!-- Node31&#45;&gt;Node32 -->
<g id="edge34" class="edge">
<title>Node31&#45;&gt;Node32</title>
<path fill="none" stroke="#63b8ff" d="M620.26,-1095.5C641.78,-1095.5 669.24,-1095.5 692.12,-1095.5"/>
<polygon fill="#63b8ff" stroke="#63b8ff" points="692.1,-1099 702.1,-1095.5 692.1,-1092 692.1,-1099"/>
</g>
<!-- Node34&#45;&gt;Node20 -->
<g id="edge38" class="edge">
<title>Node34&#45;&gt;Node20</title>
<path fill="none" stroke="#63b8ff" d="M461.72,-169.44C508.97,-182.95 589.64,-210.59 647,-254.5 681.52,-280.93 710.56,-323.38 725.71,-348.03"/>
<polygon fill="#63b8ff" stroke="#63b8ff" points="722.58,-349.62 730.72,-356.4 728.58,-346.02 722.58,-349.62"/>
</g>
<!-- Node34&#45;&gt;Node26 -->
<g id="edge40" class="edge">
<title>Node34&#45;&gt;Node26</title>
<path fill="none" stroke="#63b8ff" d="M453.93,-169.45C463.6,-173.18 474.06,-177.91 483,-183.5 500.29,-194.32 540.43,-232.63 563.94,-255.63"/>
<polygon fill="#63b8ff" stroke="#63b8ff" points="561.39,-258.04 570.98,-262.55 566.3,-253.05 561.39,-258.04"/>
</g>
<!-- Node35 -->
<g id="node29" class="node">
<title>Node35</title>
<g id="a_node29"><a xlink:href="TransmitterCode_2src_2main_8cpp.html#a5aa4888b924a4f1d95e9cedc3004f2b6" target="_top" xlink:title=" ">
<polygon fill="white" stroke="#666666" points="624.5,-132 541.5,-132 541.5,-113 624.5,-113 624.5,-132"/>
<text text-anchor="middle" x="583" y="-120" font-family="Helvetica,sans-Serif" font-size="10.00">MakeTwobytes</text>
</a>
</g>
</g>
<!-- Node34&#45;&gt;Node35 -->
<g id="edge37" class="edge">
<title>Node34&#45;&gt;Node35</title>
<path fill="none" stroke="#63b8ff" d="M465.61,-149.58C485.49,-144.96 509.33,-139.41 530.24,-134.54"/>
<polygon fill="#63b8ff" stroke="#63b8ff" points="530.77,-138.01 539.72,-132.34 529.19,-131.2 530.77,-138.01"/>
</g>
<!-- Node36 -->
<g id="node30" class="node">
<title>Node36</title>
<g id="a_node30"><a xlink:href="ReceiverCode_2src_2main_8cpp.html#a31a35307bbac88ceda244272f25d399a" target="_top" xlink:title=" ">
<polygon fill="white" stroke="#666666" points="635,-169 531,-169 531,-150 635,-150 635,-169"/>
<text text-anchor="middle" x="583" y="-157" font-family="Helvetica,sans-Serif" font-size="10.00">SetTestFrequencies</text>
</a>
</g>
</g>
<!-- Node34&#45;&gt;Node36 -->
<g id="edge39" class="edge">
<title>Node34&#45;&gt;Node36</title>
<path fill="none" stroke="#63b8ff" d="M466.87,-159.5C483.08,-159.5 501.78,-159.5 519.34,-159.5"/>
<polygon fill="#63b8ff" stroke="#63b8ff" points="519.16,-163 529.16,-159.5 519.16,-156 519.16,-163"/>
</g>
<!-- Node38&#45;&gt;Node15 -->
<g id="edge75" class="edge">
<title>Node38&#45;&gt;Node15</title>
<path fill="none" stroke="#63b8ff" d="M170.27,-414.36C177.6,-418.01 185.14,-422.69 191,-428.5 215.57,-452.85 206.48,-469.65 227,-497.5 276.77,-565.05 289.21,-587.06 361,-630.5 363.8,-632.2 366.78,-633.76 369.84,-635.19"/>
<polygon fill="#63b8ff" stroke="#63b8ff" points="368.49,-638.42 379.07,-639 371.16,-631.95 368.49,-638.42"/>
</g>
<!-- Node39 -->
<g id="node33" class="node">
<title>Node39</title>
<g id="a_node33"><a xlink:href="TransmitterCode_2src_2main_8cpp.html#a953f1d5046e183549ed95b08f6d675e3" target="_top" xlink:title=" ">
<polygon fill="white" stroke="#666666" points="325,-489 227,-489 227,-470 325,-470 325,-489"/>
<text text-anchor="middle" x="276" y="-477" font-family="Helvetica,sans-Serif" font-size="10.00">CheckGapsLength</text>
</a>
</g>
</g>
<!-- Node38&#45;&gt;Node39 -->
<g id="edge43" class="edge">
<title>Node38&#45;&gt;Node39</title>
<path fill="none" stroke="#63b8ff" d="M164.3,-414.46C172.64,-418.65 182.36,-423.68 191,-428.5 211.11,-439.72 233.37,-453.29 249.92,-463.61"/>
<polygon fill="#63b8ff" stroke="#63b8ff" points="247.8,-466.41 258.13,-468.76 251.52,-460.48 247.8,-466.41"/>
</g>
<!-- Node41 -->
<g id="node35" class="node">
<title>Node41</title>
<g id="a_node35"><a xlink:href="TransmitterCode_2src_2main_8cpp.html#a62e53eb9359c32b666e3386d62c57037" target="_top" xlink:title=" ">
<polygon fill="white" stroke="#666666" points="312,-414 240,-414 240,-395 312,-395 312,-414"/>
<text text-anchor="middle" x="276" y="-402" font-family="Helvetica,sans-Serif" font-size="10.00">GreenLedOn</text>
</a>
</g>
</g>
<!-- Node38&#45;&gt;Node41 -->
<g id="edge47" class="edge">
<title>Node38&#45;&gt;Node41</title>
<path fill="none" stroke="#63b8ff" d="M191.29,-404.5C203.4,-404.5 216.41,-404.5 228.48,-404.5"/>
<polygon fill="#63b8ff" stroke="#63b8ff" points="228.19,-408 238.19,-404.5 228.19,-401 228.19,-408"/>
</g>
<!-- Node52 -->
<g id="node39" class="node">
<title>Node52</title>
<g id="a_node39"><a xlink:href="TransmitterCode_2src_2main_8cpp.html#a793b7bcd77531c95fe72ed4356d421c8" target="_top" xlink:title=" ">
<polygon fill="white" stroke="#666666" points="638,-320 528,-320 528,-301 638,-301 638,-320"/>
<text text-anchor="middle" x="583" y="-308" font-family="Helvetica,sans-Serif" font-size="10.00">StartInactvityTimeout</text>
</a>
</g>
</g>
<!-- Node38&#45;&gt;Node52 -->
<g id="edge76" class="edge">
<title>Node38&#45;&gt;Node52</title>
<path fill="none" stroke="#63b8ff" d="M166.59,-394.6C205.47,-378.04 287.89,-345.03 361,-329.5 412.52,-318.56 472.08,-313.88 516.37,-311.9"/>
<polygon fill="#63b8ff" stroke="#63b8ff" points="516.5,-315.4 526.35,-311.5 516.22,-308.41 516.5,-315.4"/>
</g>
<!-- Node54 -->
<g id="node41" class="node">
<title>Node54</title>
<g id="a_node41"><a xlink:href="TransmitterCode_2src_2main_8cpp.html#a694f4f5a0147f4dc29b0bc1a8951547d" target="_top" xlink:title=" ">
<polygon fill="white" stroke="#666666" points="469,-844 375,-844 375,-825 469,-825 469,-844"/>
<text text-anchor="middle" x="422" y="-832" font-family="Helvetica,sans-Serif" font-size="10.00">ParseAckPayload</text>
</a>
</g>
</g>
<!-- Node38&#45;&gt;Node54 -->
<g id="edge61" class="edge">
<title>Node38&#45;&gt;Node54</title>
<path fill="none" stroke="#63b8ff" d="M154.9,-414.25C165.9,-424.77 182.45,-442.56 191,-461.5 232.67,-553.8 175.03,-599.58 227,-686.5 265.66,-751.16 344.23,-797.41 388.6,-819.62"/>
<polygon fill="#63b8ff" stroke="#63b8ff" points="386.96,-822.71 397.48,-823.95 390.03,-816.42 386.96,-822.71"/>
</g>
<!-- Node40 -->
<g id="node34" class="node">
<title>Node40</title>
<g id="a_node34"><a xlink:href="TransmitterCode_2src_2main_8cpp.html#a1fadc7cdd854f8b3628b622da5417d8b" target="_top" xlink:title=" ">
<polygon fill="white" stroke="#666666" points="618,-620 548,-620 548,-601 618,-601 618,-620"/>
<text text-anchor="middle" x="583" y="-608" font-family="Helvetica,sans-Serif" font-size="10.00">LogThisGap</text>
</a>
</g>
</g>
<!-- Node39&#45;&gt;Node40 -->
<g id="edge44" class="edge">
<title>Node39&#45;&gt;Node40</title>
<path fill="none" stroke="#63b8ff" d="M285.81,-489.31C300.11,-504.64 329.89,-534.17 361,-550.5 417.63,-580.23 490.35,-596.29 536.59,-604.12"/>
<polygon fill="#63b8ff" stroke="#63b8ff" points="535.82,-607.54 546.25,-605.69 536.94,-600.63 535.82,-607.54"/>
</g>
<!-- Node40&#45;&gt;Node5 -->
<g id="edge45" class="edge">
<title>Node40&#45;&gt;Node5</title>
<path fill="none" stroke="#63b8ff" d="M618.34,-618.8C642.83,-624.73 675.7,-632.68 700.64,-638.71"/>
<polygon fill="#63b8ff" stroke="#63b8ff" points="699.81,-642.11 710.35,-641.06 701.46,-635.3 699.81,-642.11"/>
</g>
<!-- Node40&#45;&gt;Node10 -->
<g id="edge46" class="edge">
<title>Node40&#45;&gt;Node10</title>
<path fill="none" stroke="#63b8ff" d="M618.34,-610.5C646.8,-610.5 686.6,-610.5 712.09,-610.5"/>
<polygon fill="#63b8ff" stroke="#63b8ff" points="711.83,-614 721.83,-610.5 711.83,-607 711.83,-614"/>
</g>
<!-- Node41&#45;&gt;Node17 -->
<g id="edge49" class="edge">
<title>Node41&#45;&gt;Node17</title>
<path fill="none" stroke="#63b8ff" d="M286.28,-414.47C296.29,-425.41 312.46,-443.66 325,-460.5 342.67,-484.23 337.02,-499.17 361,-516.5 367.93,-521.51 466.01,-545.68 529.16,-560.9"/>
<polygon fill="#63b8ff" stroke="#63b8ff" points="528.12,-564.25 538.66,-563.18 529.75,-557.44 528.12,-564.25"/>
</g>
<!-- Node41&#45;&gt;Node19 -->
<g id="edge52" class="edge">
<title>Node41&#45;&gt;Node19</title>
<path fill="none" stroke="#63b8ff" d="M312.29,-406.7C368.74,-410.21 479.15,-417.09 539.73,-420.87"/>
<polygon fill="#63b8ff" stroke="#63b8ff" points="539.44,-424.36 549.64,-421.48 539.87,-417.37 539.44,-424.36"/>
</g>
<!-- Node41&#45;&gt;Node23 -->
<g id="edge53" class="edge">
<title>Node41&#45;&gt;Node23</title>
<path fill="none" stroke="#63b8ff" d="M286.32,-394.51C301.08,-379.11 331.19,-349.29 361,-329.5 425.76,-286.51 443.65,-273.61 519,-254.5 625.87,-227.39 756.51,-228.92 825.33,-232.28"/>
<polygon fill="#63b8ff" stroke="#63b8ff" points="824.95,-235.76 835.12,-232.8 825.32,-228.77 824.95,-235.76"/>
</g>
<!-- Node42 -->
<g id="node36" class="node">
<title>Node42</title>
<g id="a_node36"><a xlink:href="TransmitterCode_2src_2main_8cpp.html#a82b1900a80d1622896601c57d6edaeda" target="_top" xlink:title=" ">
<polygon fill="white" stroke="#666666" points="471,-395 373,-395 373,-376 471,-376 471,-395"/>
<text text-anchor="middle" x="422" y="-383" font-family="Helvetica,sans-Serif" font-size="10.00">ClearSuccessRate</text>
</a>
</g>
</g>
<!-- Node41&#45;&gt;Node42 -->
<g id="edge48" class="edge">
<title>Node41&#45;&gt;Node42</title>
<path fill="none" stroke="#63b8ff" d="M312.23,-399.85C326.97,-397.91 344.54,-395.59 361.2,-393.39"/>
<polygon fill="#63b8ff" stroke="#63b8ff" points="361.59,-396.87 371.05,-392.09 360.68,-389.93 361.59,-396.87"/>
</g>
<!-- Node43 -->
<g id="node37" class="node">
<title>Node43</title>
<g id="a_node37"><a xlink:href="TransmitterCode_2src_2main_8cpp.html#aaa3e86084c43b049d52d7d62c58a00b9" target="_top" xlink:title=" ">
<polygon fill="#fff0f0" stroke="red" points="463,-622 381,-622 381,-603 463,-603 463,-622"/>
<text text-anchor="middle" x="422" y="-610" font-family="Helvetica,sans-Serif" font-size="10.00">LogConnection</text>
</a>
</g>
</g>
<!-- Node41&#45;&gt;Node43 -->
<g id="edge50" class="edge">
<title>Node41&#45;&gt;Node43</title>
<path fill="none" stroke="#63b8ff" d="M287.32,-414.43C297.89,-425.04 314.25,-442.76 325,-460.5 347.32,-497.35 337.58,-514.34 361,-550.5 371.88,-567.29 387.74,-583.44 400.42,-595.05"/>
<polygon fill="#63b8ff" stroke="#63b8ff" points="398.04,-597.61 407.85,-601.63 402.69,-592.38 398.04,-597.61"/>
</g>
<!-- Node45 -->
<g id="node38" class="node">
<title>Node45</title>
<g id="a_node38"><a xlink:href="TransmitterCode_2src_2main_8cpp.html#a5d3a46c21927cf7a3031a1e68e0b7b48" target="_top" xlink:title="SHOW COMMS.">
<polygon fill="#fff0f0" stroke="red" points="459.5,-358 384.5,-358 384.5,-339 459.5,-339 459.5,-358"/>
<text text-anchor="middle" x="422" y="-346" font-family="Helvetica,sans-Serif" font-size="10.00">ShowComms</text>
</a>
</g>
</g>
<!-- Node41&#45;&gt;Node45 -->
<g id="edge54" class="edge">
<title>Node41&#45;&gt;Node45</title>
<path fill="none" stroke="#63b8ff" d="M285.67,-394.68C300.73,-383.6 332.82,-368.05 361,-357.5 364.95,-356.02 369.08,-354.58 373.25,-353.22"/>
<polygon fill="#63b8ff" stroke="#63b8ff" points="374.25,-356.58 382.8,-350.33 372.22,-349.88 374.25,-356.58"/>
</g>
<!-- Node53 -->
<g id="node40" class="node">
<title>Node53</title>
<g id="a_node40"><a xlink:href="TransmitterCode_2src_2main_8cpp.html#a6da9a1fd0b003151f79eabc702ba80ff" target="_top" xlink:title=" ">
<polygon fill="white" stroke="#666666" points="465.5,-471 378.5,-471 378.5,-452 465.5,-452 465.5,-471"/>
<text text-anchor="middle" x="422" y="-459" font-family="Helvetica,sans-Serif" font-size="10.00">ZeroDataScreen</text>
</a>
</g>
</g>
<!-- Node41&#45;&gt;Node53 -->
<g id="edge60" class="edge">
<title>Node41&#45;&gt;Node53</title>
<path fill="none" stroke="#63b8ff" d="M302.08,-414.43C325.21,-423.58 359.77,-437.26 385.69,-447.52"/>
<polygon fill="#63b8ff" stroke="#63b8ff" points="384.21,-450.7 394.8,-451.13 386.79,-444.19 384.21,-450.7"/>
</g>
<!-- Node43&#45;&gt;Node5 -->
<g id="edge51" class="edge">
<title>Node43&#45;&gt;Node5</title>
<path fill="none" stroke="#63b8ff" d="M463.07,-619.9C480.24,-622.88 500.56,-626.16 519,-628.5 582.56,-636.55 656.98,-642.24 700.38,-645.19"/>
<polygon fill="#63b8ff" stroke="#63b8ff" points="700.04,-648.67 710.25,-645.84 700.5,-641.69 700.04,-648.67"/>
</g>
<!-- Node45&#45;&gt;Node19 -->
<g id="edge56" class="edge">
<title>Node45&#45;&gt;Node19</title>
<path fill="none" stroke="#63b8ff" d="M459.84,-356.25C467.81,-358.82 475.96,-362.17 483,-366.5 502.81,-378.7 499.2,-392.29 519,-404.5 525.53,-408.53 532.98,-411.75 540.4,-414.31"/>
<polygon fill="#63b8ff" stroke="#63b8ff" points="539.13,-417.58 549.71,-417.17 541.18,-410.89 539.13,-417.58"/>
</g>
<!-- Node45&#45;&gt;Node20 -->
<g id="edge57" class="edge">
<title>Node45&#45;&gt;Node20</title>
<path fill="none" stroke="#63b8ff" d="M459.94,-350.74C515.65,-354.11 621.37,-360.5 684.89,-364.35"/>
<polygon fill="#63b8ff" stroke="#63b8ff" points="684.53,-367.83 694.72,-364.94 684.95,-360.84 684.53,-367.83"/>
</g>
<!-- Node45&#45;&gt;Node25 -->
<g id="edge58" class="edge">
<title>Node45&#45;&gt;Node25</title>
<path fill="none" stroke="#63b8ff" d="M459.88,-357.31C484.62,-363.23 517.18,-371.01 542.46,-377.05"/>
<polygon fill="#63b8ff" stroke="#63b8ff" points="541.49,-380.42 552.03,-379.34 543.12,-373.61 541.49,-380.42"/>
</g>
<!-- Node45&#45;&gt;Node41 -->
<g id="edge55" class="edge">
<title>Node45&#45;&gt;Node41</title>
<path fill="none" stroke="#63b8ff" d="M408.89,-358.42C396.66,-363.89 377.3,-369.4 361,-375.5 348.36,-380.23 334.94,-385.97 322.62,-391.21"/>
<polygon fill="#63b8ff" stroke="#63b8ff" points="321.36,-387.94 313.51,-395.07 324.09,-394.39 321.36,-387.94"/>
</g>
<!-- Node45&#45;&gt;Node52 -->
<g id="edge59" class="edge">
<title>Node45&#45;&gt;Node52</title>
<path fill="none" stroke="#63b8ff" d="M459.88,-339.69C480.44,-334.77 506.4,-328.57 529.1,-323.14"/>
<polygon fill="#63b8ff" stroke="#63b8ff" points="529.89,-326.55 538.8,-320.82 528.26,-319.74 529.89,-326.55"/>
</g>
<!-- Node54&#45;&gt;Node29 -->
<g id="edge72" class="edge">
<title>Node54&#45;&gt;Node29</title>
<path fill="none" stroke="#63b8ff" d="M424.63,-844.42C430.62,-877.56 454.47,-985.43 519,-1040.5 520.1,-1041.43 521.24,-1042.32 522.42,-1043.16"/>
<polygon fill="#63b8ff" stroke="#63b8ff" points="520.37,-1046.02 530.78,-1047.99 523.87,-1039.96 520.37,-1046.02"/>
</g>
<!-- Node55 -->
<g id="node42" class="node">
<title>Node55</title>
<g id="a_node42"><a xlink:href="TransmitterCode_2src_2main_8cpp.html#a75fa77e7bbb1cfe8fe6e1a216fbdc17e" target="_top" xlink:title=" ">
<polygon fill="white" stroke="#666666" points="615.5,-955 550.5,-955 550.5,-936 615.5,-936 615.5,-955"/>
<text text-anchor="middle" x="583" y="-943" font-family="Helvetica,sans-Serif" font-size="10.00">GetAltitude</text>
</a>
</g>
</g>
<!-- Node54&#45;&gt;Node55 -->
<g id="edge62" class="edge">
<title>Node54&#45;&gt;Node55</title>
<path fill="none" stroke="#63b8ff" d="M430.31,-844.26C444.99,-863.18 480.02,-904.98 519,-927.5 525.21,-931.09 532.17,-934 539.15,-936.35"/>
<polygon fill="#63b8ff" stroke="#63b8ff" points="537.98,-939.65 548.56,-939.16 539.99,-932.94 537.98,-939.65"/>
</g>
<!-- Node56 -->
<g id="node43" class="node">
<title>Node56</title>
<g id="a_node43"><a xlink:href="TransmitterCode_2src_2main_8cpp.html#ab5736b017daadeb2c1d7dc73489d31a6" target="_top" xlink:title=" ">
<polygon fill="white" stroke="#666666" points="791.5,-993 684.5,-993 684.5,-974 791.5,-974 791.5,-993"/>
<text text-anchor="middle" x="738" y="-981" font-family="Helvetica,sans-Serif" font-size="10.00">GetFromAckPayload</text>
</a>
</g>
</g>
<!-- Node54&#45;&gt;Node56 -->
<g id="edge65" class="edge">
<title>Node54&#45;&gt;Node56</title>
<path fill="none" stroke="#63b8ff" d="M426.79,-844.21C437.14,-869.28 468.58,-936.24 519,-964.5 565.74,-990.7 627.16,-993.79 672.88,-991.29"/>
<polygon fill="#63b8ff" stroke="#63b8ff" points="672.89,-994.8 682.64,-990.65 672.43,-987.82 672.89,-994.8"/>
</g>
<!-- Node57 -->
<g id="node44" class="node">
<title>Node57</title>
<g id="a_node44"><a xlink:href="TransmitterCode_2src_2main_8cpp.html#a160b9119423c34869b16a4ebdc421d35" target="_top" xlink:title=" ">
<polygon fill="white" stroke="#666666" points="646.5,-844 519.5,-844 519.5,-825 646.5,-825 646.5,-844"/>
<text text-anchor="middle" x="583" y="-832" font-family="Helvetica,sans-Serif" font-size="10.00">GetDateFromAckPayload</text>
</a>
</g>
</g>
<!-- Node54&#45;&gt;Node57 -->
<g id="edge64" class="edge">
<title>Node54&#45;&gt;Node57</title>
<path fill="none" stroke="#63b8ff" d="M469.42,-834.5C481.47,-834.5 494.76,-834.5 507.85,-834.5"/>
<polygon fill="#63b8ff" stroke="#63b8ff" points="507.75,-838 517.75,-834.5 507.75,-831 507.75,-838"/>
</g>
<!-- Node58 -->
<g id="node45" class="node">
<title>Node58</title>
<g id="a_node45"><a xlink:href="TransmitterCode_2src_2main_8cpp.html#a494cb4acb30856d1f53f08df1b80c41b" target="_top" xlink:title=" ">
<polygon fill="#fff0f0" stroke="red" points="642.5,-807 523.5,-807 523.5,-788 642.5,-788 642.5,-807"/>
<text text-anchor="middle" x="583" y="-795" font-family="Helvetica,sans-Serif" font-size="10.00">GetModelsMacAddress</text>
</a>
</g>
</g>
<!-- Node54&#45;&gt;Node58 -->
<g id="edge66" class="edge">
<title>Node54&#45;&gt;Node58</title>
<path fill="none" stroke="#63b8ff" d="M465.61,-824.58C484.86,-820.11 507.81,-814.76 528.23,-810.01"/>
<polygon fill="#63b8ff" stroke="#63b8ff" points="528.85,-813.46 537.8,-807.79 527.27,-806.64 528.85,-813.46"/>
</g>
<!-- Node95 -->
<g id="node46" class="node">
<title>Node95</title>
<g id="a_node46"><a xlink:href="TransmitterCode_2src_2main_8cpp.html#a4f813935d8fe58355228cbbf25e12f96" target="_top" xlink:title=" ">
<polygon fill="#fff0f0" stroke="red" points="639.5,-881 526.5,-881 526.5,-862 639.5,-862 639.5,-881"/>
<text text-anchor="middle" x="583" y="-869" font-family="Helvetica,sans-Serif" font-size="10.00">GetRXVersionNumber</text>
</a>
</g>
</g>
<!-- Node54&#45;&gt;Node95 -->
<g id="edge67" class="edge">
<title>Node54&#45;&gt;Node95</title>
<path fill="none" stroke="#63b8ff" d="M465.61,-844.42C484.86,-848.89 507.81,-854.24 528.23,-858.99"/>
<polygon fill="#63b8ff" stroke="#63b8ff" points="527.27,-862.36 537.8,-861.21 528.85,-855.54 527.27,-862.36"/>
</g>
<!-- Node97 -->
<g id="node47" class="node">
<title>Node97</title>
<g id="a_node47"><a xlink:href="TransmitterCode_2src_2main_8cpp.html#a19f6fc09d690832e74fd3c679207f07f" target="_top" xlink:title=" ">
<polygon fill="white" stroke="#666666" points="626.5,-1031 539.5,-1031 539.5,-1012 626.5,-1012 626.5,-1031"/>
<text text-anchor="middle" x="583" y="-1019" font-family="Helvetica,sans-Serif" font-size="10.00">GetTemperature</text>
</a>
</g>
</g>
<!-- Node54&#45;&gt;Node97 -->
<g id="edge69" class="edge">
<title>Node54&#45;&gt;Node97</title>
<path fill="none" stroke="#63b8ff" d="M426.22,-844.49C435.76,-872.6 466.56,-953.22 519,-997.5 523.19,-1001.04 527.97,-1004.09 532.96,-1006.71"/>
<polygon fill="#63b8ff" stroke="#63b8ff" points="531.5,-1009.89 542.05,-1010.87 534.42,-1003.53 531.5,-1009.89"/>
</g>
<!-- Node98 -->
<g id="node48" class="node">
<title>Node98</title>
<g id="a_node48"><a xlink:href="TransmitterCode_2src_2main_8cpp.html#a86523345ecdd52f3d93dccd6fcf4370a" target="_top" xlink:title=" ">
<polygon fill="white" stroke="#666666" points="647,-770 519,-770 519,-751 647,-751 647,-770"/>
<text text-anchor="middle" x="583" y="-758" font-family="Helvetica,sans-Serif" font-size="10.00">GetTimeFromAckPayload</text>
</a>
</g>
</g>
<!-- Node54&#45;&gt;Node98 -->
<g id="edge71" class="edge">
<title>Node54&#45;&gt;Node98</title>
<path fill="none" stroke="#63b8ff" d="M437.36,-824.57C455.63,-812.32 488.47,-791.52 519,-778.5 522.78,-776.89 526.75,-775.37 530.77,-773.96"/>
<polygon fill="#63b8ff" stroke="#63b8ff" points="531.63,-777.36 540.05,-770.92 529.45,-770.71 531.63,-777.36"/>
</g>
<!-- Node99 -->
<g id="node49" class="node">
<title>Node99</title>
<g id="a_node49"><a xlink:href="TransmitterCode_2src_2main_8cpp.html#a7a48851f0d38e4a0dd727a30d9515cf1" target="_top" xlink:title=" ">
<polygon fill="white" stroke="#666666" points="620.5,-733 545.5,-733 545.5,-714 620.5,-714 620.5,-733"/>
<text text-anchor="middle" x="583" y="-721" font-family="Helvetica,sans-Serif" font-size="10.00">ReadTheRTC</text>
</a>
</g>
</g>
<!-- Node54&#45;&gt;Node99 -->
<g id="edge73" class="edge">
<title>Node54&#45;&gt;Node99</title>
<path fill="none" stroke="#63b8ff" d="M430.31,-824.74C444.99,-805.82 480.02,-764.02 519,-741.5 523.74,-738.76 528.92,-736.42 534.21,-734.42"/>
<polygon fill="#63b8ff" stroke="#63b8ff" points="535.3,-737.74 543.68,-731.25 533.09,-731.1 535.3,-737.74"/>
</g>
<!-- Node100 -->
<g id="node50" class="node">
<title>Node100</title>
<g id="a_node50"><a xlink:href="TransmitterCode_2src_2main_8cpp.html#abb1ea95b6b3f033883aa87682d3240ab" target="_top" xlink:title=" ">
<polygon fill="#fff0f0" stroke="red" points="645,-696 521,-696 521,-677 645,-677 645,-696"/>
<text text-anchor="middle" x="583" y="-684" font-family="Helvetica,sans-Serif" font-size="10.00">SynchRTCwithGPSTime</text>
</a>
</g>
</g>
<!-- Node54&#45;&gt;Node100 -->
<g id="edge74" class="edge">
<title>Node54&#45;&gt;Node100</title>
<path fill="none" stroke="#63b8ff" d="M427.45,-824.63C438.93,-800.3 471.97,-737.12 519,-704.5 520.61,-703.39 522.28,-702.34 524.01,-701.36"/>
<polygon fill="#63b8ff" stroke="#63b8ff" points="525.47,-704.54 532.98,-697.06 522.45,-698.22 525.47,-704.54"/>
</g>
<!-- Node55&#45;&gt;Node56 -->
<g id="edge63" class="edge">
<title>Node55&#45;&gt;Node56</title>
<path fill="none" stroke="#63b8ff" d="M615.7,-953.37C635.94,-958.4 662.63,-965.03 685.82,-970.79"/>
<polygon fill="#63b8ff" stroke="#63b8ff" points="684.86,-974.16 695.41,-973.17 686.55,-967.36 684.86,-974.16"/>
</g>
<!-- Node95&#45;&gt;Node10 -->
<g id="edge68" class="edge">
<title>Node95&#45;&gt;Node10</title>
<path fill="none" stroke="#63b8ff" d="M635.55,-861.61C639.84,-859.19 643.77,-856.2 647,-852.5 713.38,-776.6 617.72,-705.35 683,-628.5 690.25,-619.96 701.67,-615.46 712.14,-613.09"/>
<polygon fill="#63b8ff" stroke="#63b8ff" points="712.51,-616.57 721.79,-611.47 711.35,-609.67 712.51,-616.57"/>
</g>
<!-- Node97&#45;&gt;Node56 -->
<g id="edge70" class="edge">
<title>Node97&#45;&gt;Node56</title>
<path fill="none" stroke="#63b8ff" d="M624.2,-1011.52C643.01,-1006.84 665.64,-1001.22 685.67,-996.25"/>
<polygon fill="#63b8ff" stroke="#63b8ff" points="686.47,-999.66 695.34,-993.85 684.79,-992.86 686.47,-999.66"/>
</g>
</g>
</svg>
