<?xml version="1.0" encoding="UTF-8" standalone="no"?>
<!DOCTYPE svg PUBLIC "-//W3C//DTD SVG 1.1//EN"
 "http://www.w3.org/Graphics/SVG/1.1/DTD/svg11.dtd">
<!-- Generated by graphviz version 7.0.5 (20221223.1930)
 -->
<!-- Title: ReceiverCode/src/utilities/radio.h Pages: 1 -->
<svg width="681pt" height="203pt"
 viewBox="0.00 0.00 680.50 203.00" xmlns="http://www.w3.org/2000/svg" xmlns:xlink="http://www.w3.org/1999/xlink">
<g id="graph0" class="graph" transform="scale(1 1) rotate(0) translate(4 199)">
<title>ReceiverCode/src/utilities/radio.h</title>
<!-- Node1 -->
<g id="node1" class="node">
<title>Node1</title>
<g id="a_node1"><a xlink:title=" ">
<polygon fill="#999999" stroke="#666666" points="401.5,-195 273.5,-195 273.5,-165 401.5,-165 401.5,-195"/>
<text text-anchor="start" x="281.5" y="-183" font-family="Helvetica,sans-Serif" font-size="10.00">ReceiverCode/src/utilities</text>
<text text-anchor="middle" x="337.5" y="-172" font-family="Helvetica,sans-Serif" font-size="10.00">/radio.h</text>
</a>
</g>
</g>
<!-- Node2 -->
<g id="node2" class="node">
<title>Node2</title>
<g id="a_node2"><a xlink:href="common_8h.html" target="_top" xlink:title=" ">
<polygon fill="white" stroke="#666666" points="368.5,-129 306.5,-129 306.5,-110 368.5,-110 368.5,-129"/>
<text text-anchor="middle" x="337.5" y="-117" font-family="Helvetica,sans-Serif" font-size="10.00">common.h</text>
</a>
</g>
</g>
<!-- Node1&#45;&gt;Node2 -->
<g id="edge1" class="edge">
<title>Node1&#45;&gt;Node2</title>
<path fill="none" stroke="#63b8ff" d="M331.58,-164.54C330.69,-157.26 330.51,-148.31 331.07,-140.39"/>
<polygon fill="#63b8ff" stroke="#63b8ff" points="334.51,-141.05 332.34,-130.68 327.57,-140.14 334.51,-141.05"/>
</g>
<!-- Node2&#45;&gt;Node1 -->
<g id="edge12" class="edge">
<title>Node2&#45;&gt;Node1</title>
<path fill="none" stroke="#63b8ff" d="M342.46,-129.18C343.84,-135.58 344.42,-144.65 344.21,-153.3"/>
<polygon fill="#63b8ff" stroke="#63b8ff" points="340.73,-152.81 343.52,-163.03 347.71,-153.3 340.73,-152.81"/>
</g>
<!-- Node3 -->
<g id="node3" class="node">
<title>Node3</title>
<g id="a_node3"><a xlink:title=" ">
<polygon fill="#e0e0e0" stroke="#999999" points="41,-74 0,-74 0,-55 41,-55 41,-74"/>
<text text-anchor="middle" x="20.5" y="-62" font-family="Helvetica,sans-Serif" font-size="10.00">SPI.h</text>
</a>
</g>
</g>
<!-- Node2&#45;&gt;Node3 -->
<g id="edge2" class="edge">
<title>Node2&#45;&gt;Node3</title>
<path fill="none" stroke="#63b8ff" d="M306.14,-115.03C254.93,-109.06 150.01,-95.62 52.55,-74.44"/>
<polygon fill="#63b8ff" stroke="#63b8ff" points="53.32,-71.03 42.8,-72.29 51.81,-77.86 53.32,-71.03"/>
</g>
<!-- Node4 -->
<g id="node4" class="node">
<title>Node4</title>
<g id="a_node4"><a xlink:title=" ">
<polygon fill="#e0e0e0" stroke="#999999" points="106,-74 59,-74 59,-55 106,-55 106,-74"/>
<text text-anchor="middle" x="82.5" y="-62" font-family="Helvetica,sans-Serif" font-size="10.00">RF24.h</text>
</a>
</g>
</g>
<!-- Node2&#45;&gt;Node4 -->
<g id="edge3" class="edge">
<title>Node2&#45;&gt;Node4</title>
<path fill="none" stroke="#63b8ff" d="M306.14,-112.77C265.05,-105.14 190.54,-90.89 117.08,-74.25"/>
<polygon fill="#63b8ff" stroke="#63b8ff" points="118.26,-70.93 107.73,-72.12 116.7,-77.76 118.26,-70.93"/>
</g>
<!-- Node5 -->
<g id="node5" class="node">
<title>Node5</title>
<g id="a_node5"><a xlink:title=" ">
<polygon fill="#e0e0e0" stroke="#999999" points="220.5,-74 124.5,-74 124.5,-55 220.5,-55 220.5,-74"/>
<text text-anchor="middle" x="172.5" y="-62" font-family="Helvetica,sans-Serif" font-size="10.00">Adafruit_INA219.h</text>
</a>
</g>
</g>
<!-- Node2&#45;&gt;Node5 -->
<g id="edge4" class="edge">
<title>Node2&#45;&gt;Node5</title>
<path fill="none" stroke="#63b8ff" d="M309.51,-109.51C282.41,-100.8 241.09,-87.53 210.92,-77.84"/>
<polygon fill="#63b8ff" stroke="#63b8ff" points="212.38,-74.64 201.79,-74.91 210.24,-81.3 212.38,-74.64"/>
</g>
<!-- Node6 -->
<g id="node6" class="node">
<title>Node6</title>
<g id="a_node6"><a xlink:title=" ">
<polygon fill="#e0e0e0" stroke="#999999" points="286.5,-74 238.5,-74 238.5,-55 286.5,-55 286.5,-74"/>
<text text-anchor="middle" x="262.5" y="-62" font-family="Helvetica,sans-Serif" font-size="10.00">stdint.h</text>
</a>
</g>
</g>
<!-- Node2&#45;&gt;Node6 -->
<g id="edge5" class="edge">
<title>Node2&#45;&gt;Node6</title>
<path fill="none" stroke="#63b8ff" d="M324.78,-109.51C313.72,-101.7 297.46,-90.21 284.33,-80.93"/>
<polygon fill="#63b8ff" stroke="#63b8ff" points="286.46,-78.14 276.27,-75.23 282.42,-83.86 286.46,-78.14"/>
</g>
<!-- Node7 -->
<g id="node7" class="node">
<title>Node7</title>
<g id="a_node7"><a xlink:title=" ">
<polygon fill="#e0e0e0" stroke="#999999" points="370,-74 305,-74 305,-55 370,-55 370,-74"/>
<text text-anchor="middle" x="337.5" y="-62" font-family="Helvetica,sans-Serif" font-size="10.00">EEPROM.h</text>
</a>
</g>
</g>
<!-- Node2&#45;&gt;Node7 -->
<g id="edge6" class="edge">
<title>Node2&#45;&gt;Node7</title>
<path fill="none" stroke="#63b8ff" d="M337.5,-109.75C337.5,-103.27 337.5,-94.16 337.5,-85.9"/>
<polygon fill="#63b8ff" stroke="#63b8ff" points="341,-85.96 337.5,-75.96 334,-85.96 341,-85.96"/>
</g>
<!-- Node8 -->
<g id="node8" class="node">
<title>Node8</title>
<g id="a_node8"><a xlink:title=" ">
<polygon fill="#e0e0e0" stroke="#999999" points="432.5,-74 388.5,-74 388.5,-55 432.5,-55 432.5,-74"/>
<text text-anchor="middle" x="410.5" y="-62" font-family="Helvetica,sans-Serif" font-size="10.00">Wire.h</text>
</a>
</g>
</g>
<!-- Node2&#45;&gt;Node8 -->
<g id="edge7" class="edge">
<title>Node2&#45;&gt;Node8</title>
<path fill="none" stroke="#63b8ff" d="M349.88,-109.51C360.65,-101.7 376.47,-90.21 389.25,-80.93"/>
<polygon fill="#63b8ff" stroke="#63b8ff" points="391.04,-83.95 397.07,-75.25 386.93,-78.29 391.04,-83.95"/>
</g>
<!-- Node9 -->
<g id="node9" class="node">
<title>Node9</title>
<g id="a_node9"><a xlink:title=" ">
<polygon fill="#e0e0e0" stroke="#999999" points="500.5,-74 450.5,-74 450.5,-55 500.5,-55 500.5,-74"/>
<text text-anchor="middle" x="475.5" y="-62" font-family="Helvetica,sans-Serif" font-size="10.00">Servo.h</text>
</a>
</g>
</g>
<!-- Node2&#45;&gt;Node9 -->
<g id="edge8" class="edge">
<title>Node2&#45;&gt;Node9</title>
<path fill="none" stroke="#63b8ff" d="M360.91,-109.51C383.15,-100.97 416.83,-88.03 441.92,-78.4"/>
<polygon fill="#63b8ff" stroke="#63b8ff" points="442.94,-81.75 451.02,-74.9 440.43,-75.22 442.94,-81.75"/>
</g>
<!-- Node10 -->
<g id="node10" class="node">
<title>Node10</title>
<g id="a_node10"><a xlink:href="SBUS_8h.html" target="_top" xlink:title=" ">
<polygon fill="white" stroke="#666666" points="570.5,-74 518.5,-74 518.5,-55 570.5,-55 570.5,-74"/>
<text text-anchor="middle" x="544.5" y="-62" font-family="Helvetica,sans-Serif" font-size="10.00">SBUS.h</text>
</a>
</g>
</g>
<!-- Node2&#45;&gt;Node10 -->
<g id="edge9" class="edge">
<title>Node2&#45;&gt;Node10</title>
<path fill="none" stroke="#63b8ff" d="M368.94,-110.45C406,-100.96 467.52,-85.21 507.02,-75.1"/>
<polygon fill="#63b8ff" stroke="#63b8ff" points="507.75,-78.52 516.57,-72.65 506.01,-71.74 507.75,-78.52"/>
</g>
<!-- Node13 -->
<g id="node13" class="node">
<title>Node13</title>
<g id="a_node13"><a xlink:title=" ">
<polygon fill="#e0e0e0" stroke="#999999" points="672.5,-74 588.5,-74 588.5,-55 672.5,-55 672.5,-74"/>
<text text-anchor="middle" x="630.5" y="-62" font-family="Helvetica,sans-Serif" font-size="10.00">PulsePosition.h</text>
</a>
</g>
</g>
<!-- Node2&#45;&gt;Node13 -->
<g id="edge13" class="edge">
<title>Node2&#45;&gt;Node13</title>
<path fill="none" stroke="#63b8ff" d="M368.86,-112.83C418.51,-103.85 515.83,-86.24 576.76,-75.22"/>
<polygon fill="#63b8ff" stroke="#63b8ff" points="577.36,-78.67 586.58,-73.44 576.12,-71.78 577.36,-78.67"/>
</g>
<!-- Node11 -->
<g id="node11" class="node">
<title>Node11</title>
<g id="a_node11"><a xlink:title=" ">
<polygon fill="#e0e0e0" stroke="#999999" points="529,-19 472,-19 472,0 529,0 529,-19"/>
<text text-anchor="middle" x="500.5" y="-7" font-family="Helvetica,sans-Serif" font-size="10.00">Arduino.h</text>
</a>
</g>
</g>
<!-- Node10&#45;&gt;Node11 -->
<g id="edge10" class="edge">
<title>Node10&#45;&gt;Node11</title>
<path fill="none" stroke="#63b8ff" d="M537.23,-54.75C531.22,-47.5 522.49,-36.98 515.04,-28.02"/>
<polygon fill="#63b8ff" stroke="#63b8ff" points="517.97,-26.07 508.89,-20.61 512.58,-30.54 517.97,-26.07"/>
</g>
<!-- Node12 -->
<g id="node12" class="node">
<title>Node12</title>
<g id="a_node12"><a xlink:href="elapsedMillis_8h.html" target="_top" xlink:title=" ">
<polygon fill="white" stroke="#666666" points="627.5,-19 547.5,-19 547.5,0 627.5,0 627.5,-19"/>
<text text-anchor="middle" x="587.5" y="-7" font-family="Helvetica,sans-Serif" font-size="10.00">elapsedMillis.h</text>
</a>
</g>
</g>
<!-- Node10&#45;&gt;Node12 -->
<g id="edge11" class="edge">
<title>Node10&#45;&gt;Node12</title>
<path fill="none" stroke="#63b8ff" d="M551.6,-54.75C557.42,-47.58 565.83,-37.2 573.06,-28.3"/>
<polygon fill="#63b8ff" stroke="#63b8ff" points="575.71,-30.59 579.29,-20.62 570.27,-26.18 575.71,-30.59"/>
</g>
</g>
</svg>
