<?xml version="1.0" encoding="UTF-8" standalone="no"?>
<!DOCTYPE svg PUBLIC "-//W3C//DTD SVG 1.1//EN"
 "http://www.w3.org/Graphics/SVG/1.1/DTD/svg11.dtd">
<!-- Generated by graphviz version 7.0.5 (20221223.1930)
 -->
<!-- Title: UpdateModelsNameEveryWhere Pages: 1 -->
<svg width="1727pt" height="1000pt"
 viewBox="0.00 0.00 1727.00 1000.00" xmlns="http://www.w3.org/2000/svg" xmlns:xlink="http://www.w3.org/1999/xlink">
<g id="graph0" class="graph" transform="scale(1 1) rotate(0) translate(4 996)">
<title>UpdateModelsNameEveryWhere</title>
<!-- Node1 -->
<g id="node1" class="node">
<title>Node1</title>
<g id="a_node1"><a xlink:title=" ">
<polygon fill="#999999" stroke="#666666" points="1719,-485 1561,-485 1561,-466 1719,-466 1719,-485"/>
<text text-anchor="middle" x="1640" y="-473" font-family="Helvetica,sans-Serif" font-size="10.00">UpdateModelsNameEveryWhere</text>
</a>
</g>
</g>
<!-- Node2 -->
<g id="node2" class="node">
<title>Node2</title>
<g id="a_node2"><a xlink:href="TransmitterCode_2src_2main_8cpp.html#a804fdbdd5eab4c596bbe8a23eecbe4d5" target="_top" xlink:title=" ">
<polygon fill="white" stroke="#666666" points="588,-517 487,-517 487,-498 588,-498 588,-517"/>
<text text-anchor="middle" x="537.5" y="-505" font-family="Helvetica,sans-Serif" font-size="10.00">ButtonWasPressed</text>
</a>
</g>
</g>
<!-- Node1&#45;&gt;Node2 -->
<g id="edge1" class="edge">
<title>Node1&#45;&gt;Node2</title>
<path fill="none" stroke="#63b8ff" d="M1549.48,-466.81C1490.36,-461.81 1411.13,-456.5 1341,-456.5 1341,-456.5 1341,-456.5 801.5,-456.5 716.15,-456.5 618.03,-482.7 569.3,-497.55"/>
<polygon fill="#63b8ff" stroke="#63b8ff" points="1548.89,-470.27 1559.15,-467.64 1549.49,-463.3 1548.89,-470.27"/>
</g>
<!-- Node7 -->
<g id="node7" class="node">
<title>Node7</title>
<g id="a_node7"><a xlink:href="TransmitterCode_2src_2main_8cpp.html#a16c65917a148c7f6c17babf11e977b69" target="_top" xlink:title=" ">
<polygon fill="white" stroke="#666666" points="105,-802 23,-802 23,-783 105,-783 105,-802"/>
<text text-anchor="middle" x="64" y="-790" font-family="Helvetica,sans-Serif" font-size="10.00">EndBuddyView</text>
</a>
</g>
</g>
<!-- Node1&#45;&gt;Node7 -->
<g id="edge35" class="edge">
<title>Node1&#45;&gt;Node7</title>
<path fill="none" stroke="#63b8ff" d="M1638.29,-496.38C1635.16,-553.85 1618.07,-715.36 1525,-795.5 1461.86,-849.87 1424.33,-831.5 1341,-831.5 1341,-831.5 1341,-831.5 915.5,-831.5 747.94,-831.5 706.06,-830.5 538.5,-830.5 538.5,-830.5 538.5,-830.5 377,-830.5 278.78,-830.5 164.43,-811.71 105.2,-800.56"/>
<polygon fill="#63b8ff" stroke="#63b8ff" points="1641.78,-496.87 1638.73,-486.72 1634.78,-496.56 1641.78,-496.87"/>
</g>
<!-- Node15 -->
<g id="node15" class="node">
<title>Node15</title>
<g id="a_node15"><a xlink:href="TransmitterCode_2src_2main_8cpp.html#a984cb52354a84c45e9e41f396a1c5e92" target="_top" xlink:title=" ">
<polygon fill="white" stroke="#666666" points="965,-931 868,-931 868,-912 965,-912 965,-931"/>
<text text-anchor="middle" x="916.5" y="-919" font-family="Helvetica,sans-Serif" font-size="10.00">CheckModelName</text>
</a>
</g>
</g>
<!-- Node1&#45;&gt;Node15 -->
<g id="edge18" class="edge">
<title>Node1&#45;&gt;Node15</title>
<path fill="none" stroke="#63b8ff" d="M1636.15,-496.39C1625.41,-572.06 1584.85,-830.23 1525,-883.5 1463.16,-938.54 1423.79,-912.5 1341,-912.5 1341,-912.5 1341,-912.5 1190.5,-912.5 1111.54,-912.5 1019.81,-916.31 965.32,-918.97"/>
<polygon fill="#63b8ff" stroke="#63b8ff" points="1639.59,-497.05 1637.51,-486.66 1632.66,-496.08 1639.59,-497.05"/>
</g>
<!-- Node17 -->
<g id="node17" class="node">
<title>Node17</title>
<g id="a_node17"><a xlink:href="TransmitterCode_2src_2main_8cpp.html#af8fe429ceb65bf9d257a2a0f1c63eccb" target="_top" xlink:title=" ">
<polygon fill="white" stroke="#666666" points="1391,-710 1289,-710 1289,-691 1391,-691 1391,-710"/>
<text text-anchor="middle" x="1340" y="-698" font-family="Helvetica,sans-Serif" font-size="10.00">CompareModelsIDs</text>
</a>
</g>
</g>
<!-- Node1&#45;&gt;Node17 -->
<g id="edge20" class="edge">
<title>Node1&#45;&gt;Node17</title>
<path fill="none" stroke="#63b8ff" d="M1638.49,-496.71C1635.84,-553.51 1619.86,-709.15 1525,-774.5 1489.86,-798.71 1469.09,-789.11 1429,-774.5 1393.55,-761.58 1362.48,-727.4 1348.64,-710.4"/>
<polygon fill="#63b8ff" stroke="#63b8ff" points="1641.98,-496.96 1638.84,-486.84 1634.99,-496.71 1641.98,-496.96"/>
</g>
<!-- Node46 -->
<g id="node23" class="node">
<title>Node46</title>
<g id="a_node23"><a xlink:href="TransmitterCode_2src_2main_8cpp.html#abdecfd433e1830c6497040b03450bed7" target="_top" xlink:title=" ">
<polygon fill="white" stroke="#666666" points="583.5,-765 491.5,-765 491.5,-746 583.5,-746 583.5,-765"/>
<text text-anchor="middle" x="537.5" y="-753" font-family="Helvetica,sans-Serif" font-size="10.00">GotoMacrosView</text>
</a>
</g>
</g>
<!-- Node1&#45;&gt;Node46 -->
<g id="edge49" class="edge">
<title>Node1&#45;&gt;Node46</title>
<path fill="none" stroke="#63b8ff" d="M1639.71,-496.48C1640.61,-560.35 1633.86,-753.65 1525,-845.5 1461.97,-898.68 1423.47,-869.5 1341,-869.5 1341,-869.5 1341,-869.5 1047.5,-869.5 857.78,-869.5 637.7,-793.15 564,-765.42"/>
<polygon fill="#63b8ff" stroke="#63b8ff" points="1643.21,-496.62 1639.48,-486.71 1636.21,-496.79 1643.21,-496.62"/>
</g>
<!-- Node72 -->
<g id="node24" class="node">
<title>Node72</title>
<g id="a_node24"><a xlink:href="TransmitterCode_2src_2main_8cpp.html#a175b6111f05e020becf6f4fc8c3e474d" target="_top" xlink:title=" ">
<polygon fill="white" stroke="#666666" points="1519.5,-765 1434.5,-765 1434.5,-746 1519.5,-746 1519.5,-765"/>
<text text-anchor="middle" x="1477" y="-753" font-family="Helvetica,sans-Serif" font-size="10.00">DefineTrimsEnd</text>
</a>
</g>
</g>
<!-- Node1&#45;&gt;Node72 -->
<g id="edge33" class="edge">
<title>Node1&#45;&gt;Node72</title>
<path fill="none" stroke="#63b8ff" d="M1635.52,-496.68C1626.38,-545.77 1597.24,-668.42 1525,-737.5 1521.59,-740.76 1517.53,-743.45 1513.24,-745.66"/>
<polygon fill="#63b8ff" stroke="#63b8ff" points="1638.96,-497.32 1637.25,-486.86 1632.07,-496.1 1638.96,-497.32"/>
</g>
<!-- Node76 -->
<g id="node25" class="node">
<title>Node76</title>
<g id="a_node25"><a xlink:href="TransmitterCode_2src_2main_8cpp.html#a6e3590b95598a6cced18d591c2e1879f" target="_top" xlink:title=" ">
<polygon fill="white" stroke="#666666" points="1518.5,-728 1435.5,-728 1435.5,-709 1518.5,-709 1518.5,-728"/>
<text text-anchor="middle" x="1477" y="-716" font-family="Helvetica,sans-Serif" font-size="10.00">DualRatesStart</text>
</a>
</g>
</g>
<!-- Node1&#45;&gt;Node76 -->
<g id="edge34" class="edge">
<title>Node1&#45;&gt;Node76</title>
<path fill="none" stroke="#63b8ff" d="M1634,-496.02C1622.35,-539.67 1589.37,-642.46 1525,-700.5 1521.37,-703.78 1517.07,-706.48 1512.58,-708.71"/>
<polygon fill="#63b8ff" stroke="#63b8ff" points="1637.32,-497.17 1636.41,-486.61 1630.54,-495.43 1637.32,-497.17"/>
</g>
<!-- Node34 -->
<g id="node26" class="node">
<title>Node34</title>
<g id="a_node26"><a xlink:href="TransmitterCode_2src_2main_8cpp.html#afd3dd964eafc30405e000b03579dd00c" target="_top" xlink:title=" ">
<polygon fill="white" stroke="#666666" points="1522.5,-691 1431.5,-691 1431.5,-672 1522.5,-672 1522.5,-691"/>
<text text-anchor="middle" x="1477" y="-679" font-family="Helvetica,sans-Serif" font-size="10.00">EndReverseView</text>
</a>
</g>
</g>
<!-- Node1&#45;&gt;Node34 -->
<g id="edge36" class="edge">
<title>Node1&#45;&gt;Node34</title>
<path fill="none" stroke="#63b8ff" d="M1631.78,-495.95C1617.33,-534.09 1581.31,-616.48 1525,-663.5 1521.11,-666.75 1516.57,-669.45 1511.87,-671.68"/>
<polygon fill="#63b8ff" stroke="#63b8ff" points="1635.04,-497.23 1635.19,-486.64 1628.46,-494.83 1635.04,-497.23"/>
</g>
<!-- Node77 -->
<g id="node27" class="node">
<title>Node77</title>
<g id="a_node27"><a xlink:href="TransmitterCode_2src_2main_8cpp.html#a40003084a0136ca08cf8ded75ff4aa4d" target="_top" xlink:title=" ">
<polygon fill="white" stroke="#666666" points="1523,-654 1431,-654 1431,-635 1523,-635 1523,-654"/>
<text text-anchor="middle" x="1477" y="-642" font-family="Helvetica,sans-Serif" font-size="10.00">EndSubTrimView</text>
</a>
</g>
</g>
<!-- Node1&#45;&gt;Node77 -->
<g id="edge37" class="edge">
<title>Node1&#45;&gt;Node77</title>
<path fill="none" stroke="#63b8ff" d="M1628.81,-495.39C1611.54,-527.27 1573.61,-589.94 1525,-626.5 1520.81,-629.65 1516,-632.31 1511.1,-634.55"/>
<polygon fill="#63b8ff" stroke="#63b8ff" points="1631.76,-497.3 1633.33,-486.82 1625.57,-494.03 1631.76,-497.3"/>
</g>
<!-- Node36 -->
<g id="node28" class="node">
<title>Node36</title>
<g id="a_node28"><a xlink:href="TransmitterCode_2src_2main_8cpp.html#a488388f6430a0fc7bec57074ba750a2d" target="_top" xlink:title=" ">
<polygon fill="white" stroke="#666666" points="1520,-617 1434,-617 1434,-598 1520,-598 1520,-617"/>
<text text-anchor="middle" x="1477" y="-605" font-family="Helvetica,sans-Serif" font-size="10.00">ExitMacrosView</text>
</a>
</g>
</g>
<!-- Node1&#45;&gt;Node36 -->
<g id="edge38" class="edge">
<title>Node1&#45;&gt;Node36</title>
<path fill="none" stroke="#63b8ff" d="M1624.56,-494.22C1604.57,-519.02 1566.25,-562.73 1525,-589.5 1520.16,-592.64 1514.7,-595.36 1509.24,-597.66"/>
<polygon fill="#63b8ff" stroke="#63b8ff" points="1627.11,-496.63 1630.57,-486.62 1621.62,-492.29 1627.11,-496.63"/>
</g>
<!-- Node24 -->
<g id="node29" class="node">
<title>Node24</title>
<g id="a_node29"><a xlink:href="TransmitterCode_2src_2main_8cpp.html#aa98d7fb495cbdc40cb17343ffafbfe15" target="_top" xlink:title=" ">
<polygon fill="white" stroke="#666666" points="830,-992 775,-992 775,-973 830,-973 830,-992"/>
<text text-anchor="middle" x="802.5" y="-980" font-family="Helvetica,sans-Serif" font-size="10.00">GetBank</text>
</a>
</g>
</g>
<!-- Node1&#45;&gt;Node24 -->
<g id="edge39" class="edge">
<title>Node1&#45;&gt;Node24</title>
<path fill="none" stroke="#63b8ff" d="M1636.19,-496.59C1625.3,-575.41 1583.57,-851.32 1525,-914.5 1466.24,-977.89 1427.44,-977.5 1341,-977.5 1341,-977.5 1341,-977.5 1047.5,-977.5 968.48,-977.5 875.1,-980.15 830.21,-981.59"/>
<polygon fill="#63b8ff" stroke="#63b8ff" points="1639.64,-497.21 1637.52,-486.83 1632.7,-496.27 1639.64,-497.21"/>
</g>
<!-- Node79 -->
<g id="node30" class="node">
<title>Node79</title>
<g id="a_node30"><a xlink:href="TransmitterCode_2src_2main_8cpp.html#a2d16d1f4802d4029bc8933a18d213beb" target="_top" xlink:title=" ">
<polygon fill="white" stroke="#666666" points="1518,-580 1436,-580 1436,-561 1518,-561 1518,-580"/>
<text text-anchor="middle" x="1477" y="-568" font-family="Helvetica,sans-Serif" font-size="10.00">GotoFrontView</text>
</a>
</g>
</g>
<!-- Node1&#45;&gt;Node79 -->
<g id="edge41" class="edge">
<title>Node1&#45;&gt;Node79</title>
<path fill="none" stroke="#63b8ff" d="M1614.56,-491.56C1591.72,-506.37 1556.51,-528.69 1525,-546.5 1516.39,-551.37 1506.68,-556.4 1498.33,-560.59"/>
<polygon fill="#63b8ff" stroke="#63b8ff" points="1616.39,-494.55 1622.86,-486.16 1612.57,-488.68 1616.39,-494.55"/>
</g>
<!-- Node82 -->
<g id="node34" class="node">
<title>Node82</title>
<g id="a_node34"><a xlink:href="TransmitterCode_2src_2main_8cpp.html#a17699f358cf9f7c3155a9c5daf8ff13c" target="_top" xlink:title=" ">
<polygon fill="white" stroke="#666666" points="1360.5,-542 1319.5,-542 1319.5,-523 1360.5,-523 1360.5,-542"/>
<text text-anchor="middle" x="1340" y="-530" font-family="Helvetica,sans-Serif" font-size="10.00">setup</text>
</a>
</g>
</g>
<!-- Node1&#45;&gt;Node82 -->
<g id="edge57" class="edge">
<title>Node1&#45;&gt;Node82</title>
<path fill="none" stroke="#63b8ff" d="M1598.55,-488.84C1576.93,-495.55 1549.73,-503.34 1525,-508.5 1465.87,-520.84 1394.65,-527.98 1360.77,-530.92"/>
<polygon fill="#63b8ff" stroke="#63b8ff" points="1599.38,-492.24 1607.87,-485.9 1597.28,-485.57 1599.38,-492.24"/>
</g>
<!-- Node40 -->
<g id="node35" class="node">
<title>Node40</title>
<g id="a_node35"><a xlink:href="TransmitterCode_2src_2main_8cpp.html#a446a94169d966af920710f7acddc5257" target="_top" xlink:title=" ">
<polygon fill="white" stroke="#666666" points="1522.5,-56 1431.5,-56 1431.5,-37 1522.5,-37 1522.5,-56"/>
<text text-anchor="middle" x="1477" y="-44" font-family="Helvetica,sans-Serif" font-size="10.00">GotoModelsView</text>
</a>
</g>
</g>
<!-- Node1&#45;&gt;Node40 -->
<g id="edge50" class="edge">
<title>Node1&#45;&gt;Node40</title>
<path fill="none" stroke="#63b8ff" d="M1639.41,-454.31C1639.55,-387.87 1631,-181.1 1525,-64.5 1522.06,-61.27 1518.48,-58.61 1514.61,-56.43"/>
<polygon fill="#63b8ff" stroke="#63b8ff" points="1635.91,-454.11 1639.31,-464.15 1642.91,-454.18 1635.91,-454.11"/>
</g>
<!-- Node42 -->
<g id="node37" class="node">
<title>Node42</title>
<g id="a_node37"><a xlink:href="TransmitterCode_2src_2main_8cpp.html#a835d7dda94eeefe66d661ef4dc4df1a4" target="_top" xlink:title=" ">
<polygon fill="white" stroke="#666666" points="1513,-428 1441,-428 1441,-409 1513,-409 1513,-428"/>
<text text-anchor="middle" x="1477" y="-416" font-family="Helvetica,sans-Serif" font-size="10.00">Options2End</text>
</a>
</g>
</g>
<!-- Node1&#45;&gt;Node42 -->
<g id="edge53" class="edge">
<title>Node1&#45;&gt;Node42</title>
<path fill="none" stroke="#63b8ff" d="M1600.35,-461.82C1571.27,-451.52 1532.1,-437.65 1505.99,-428.41"/>
<polygon fill="#63b8ff" stroke="#63b8ff" points="1598.93,-465.03 1609.53,-465.07 1601.27,-458.43 1598.93,-465.03"/>
</g>
<!-- Node44 -->
<g id="node38" class="node">
<title>Node44</title>
<g id="a_node38"><a xlink:href="TransmitterCode_2src_2main_8cpp.html#ab71829b0aee177464a613b151545c08a" target="_top" xlink:title=" ">
<polygon fill="white" stroke="#666666" points="1521.5,-391 1432.5,-391 1432.5,-372 1521.5,-372 1521.5,-391"/>
<text text-anchor="middle" x="1477" y="-379" font-family="Helvetica,sans-Serif" font-size="10.00">OptionView3End</text>
</a>
</g>
</g>
<!-- Node1&#45;&gt;Node44 -->
<g id="edge54" class="edge">
<title>Node1&#45;&gt;Node44</title>
<path fill="none" stroke="#63b8ff" d="M1616.84,-459.02C1594.44,-442.82 1558.44,-418.04 1525,-400.5 1518.76,-397.23 1511.84,-394.15 1505.26,-391.46"/>
<polygon fill="#63b8ff" stroke="#63b8ff" points="1614.48,-461.63 1624.62,-464.7 1618.61,-455.98 1614.48,-461.63"/>
</g>
<!-- Node29 -->
<g id="node39" class="node">
<title>Node29</title>
<g id="a_node39"><a xlink:href="TransmitterCode_2src_2main_8cpp.html#a2e0aa19fa93c1bacd9b4600025f33594" target="_top" xlink:title=" ">
<polygon fill="white" stroke="#666666" points="1515.5,-354 1438.5,-354 1438.5,-335 1515.5,-335 1515.5,-354"/>
<text text-anchor="middle" x="1477" y="-342" font-family="Helvetica,sans-Serif" font-size="10.00">RXSetup1End</text>
</a>
</g>
</g>
<!-- Node1&#45;&gt;Node29 -->
<g id="edge55" class="edge">
<title>Node1&#45;&gt;Node29</title>
<path fill="none" stroke="#63b8ff" d="M1624.14,-456.91C1603.92,-432.64 1565.58,-390.11 1525,-363.5 1519.7,-360.03 1513.66,-357 1507.73,-354.45"/>
<polygon fill="#63b8ff" stroke="#63b8ff" points="1621.43,-459.12 1630.47,-464.65 1626.85,-454.69 1621.43,-459.12"/>
</g>
<!-- Node111 -->
<g id="node40" class="node">
<title>Node111</title>
<g id="a_node40"><a xlink:href="TransmitterCode_2src_2main_8cpp.html#a127743223a757b674107ccfc9d77f12f" target="_top" xlink:title=" ">
<polygon fill="white" stroke="#666666" points="1518,-317 1436,-317 1436,-298 1518,-298 1518,-317"/>
<text text-anchor="middle" x="1477" y="-305" font-family="Helvetica,sans-Serif" font-size="10.00">RXSetup1Start</text>
</a>
</g>
</g>
<!-- Node1&#45;&gt;Node111 -->
<g id="edge56" class="edge">
<title>Node1&#45;&gt;Node111</title>
<path fill="none" stroke="#63b8ff" d="M1628.67,-455.98C1611.19,-424.68 1572.98,-363.04 1525,-326.5 1520.24,-322.87 1514.69,-319.83 1509.11,-317.32"/>
<polygon fill="#63b8ff" stroke="#63b8ff" points="1625.38,-457.27 1633.24,-464.37 1631.53,-453.92 1625.38,-457.27"/>
</g>
<!-- Node161 -->
<g id="node41" class="node">
<title>Node161</title>
<g id="a_node41"><a xlink:href="TransmitterCode_2src_2main_8cpp.html#a35f886d783cd5aa95171f1ecba39ef0b" target="_top" xlink:title=" ">
<polygon fill="white" stroke="#666666" points="1516,-280 1438,-280 1438,-261 1516,-261 1516,-280"/>
<text text-anchor="middle" x="1477" y="-268" font-family="Helvetica,sans-Serif" font-size="10.00">SetupViewFM</text>
</a>
</g>
</g>
<!-- Node1&#45;&gt;Node161 -->
<g id="edge58" class="edge">
<title>Node1&#45;&gt;Node161</title>
<path fill="none" stroke="#63b8ff" d="M1631.43,-454.83C1616.61,-417.03 1580.3,-336.32 1525,-289.5 1520.7,-285.86 1515.61,-282.85 1510.4,-280.39"/>
<polygon fill="#63b8ff" stroke="#63b8ff" points="1628.12,-455.98 1634.95,-464.09 1634.67,-453.5 1628.12,-455.98"/>
</g>
<!-- Node154 -->
<g id="node42" class="node">
<title>Node154</title>
<g id="a_node42"><a xlink:href="TransmitterCode_2src_2main_8cpp.html#a0ae3d4fad1e79724448c269efc4da9ec" target="_top" xlink:title=" ">
<polygon fill="white" stroke="#666666" points="1523,-243 1431,-243 1431,-224 1523,-224 1523,-243"/>
<text text-anchor="middle" x="1477" y="-231" font-family="Helvetica,sans-Serif" font-size="10.00">StartBankNames</text>
</a>
</g>
</g>
<!-- Node1&#45;&gt;Node154 -->
<g id="edge59" class="edge">
<title>Node1&#45;&gt;Node154</title>
<path fill="none" stroke="#63b8ff" d="M1633.7,-454.65C1621.64,-411.23 1588.19,-310.34 1525,-252.5 1520.97,-248.82 1516.14,-245.8 1511.13,-243.35"/>
<polygon fill="#63b8ff" stroke="#63b8ff" points="1630.24,-455.29 1636.2,-464.05 1637.01,-453.49 1630.24,-455.29"/>
</g>
<!-- Node52 -->
<g id="node43" class="node">
<title>Node52</title>
<g id="a_node43"><a xlink:href="TransmitterCode_2src_2main_8cpp.html#a1a700b085b2f15c2ce4589f1be3ed492" target="_top" xlink:title=" ">
<polygon fill="white" stroke="#666666" points="1521.5,-206 1432.5,-206 1432.5,-187 1521.5,-187 1521.5,-206"/>
<text text-anchor="middle" x="1477" y="-194" font-family="Helvetica,sans-Serif" font-size="10.00">StartModelSetup</text>
</a>
</g>
</g>
<!-- Node1&#45;&gt;Node52 -->
<g id="edge60" class="edge">
<title>Node1&#45;&gt;Node52</title>
<path fill="none" stroke="#63b8ff" d="M1635.38,-454.57C1625.96,-406.04 1596.24,-284.7 1525,-215.5 1521.21,-211.82 1516.62,-208.82 1511.8,-206.39"/>
<polygon fill="#63b8ff" stroke="#63b8ff" points="1631.92,-455.06 1637.17,-464.26 1638.8,-453.79 1631.92,-455.06"/>
</g>
<!-- Node140 -->
<g id="node46" class="node">
<title>Node140</title>
<g id="a_node46"><a xlink:href="TransmitterCode_2src_2main_8cpp.html#a618bc6ca4ab71bb4d5d7e00dc71f9e56" target="_top" xlink:title=" ">
<polygon fill="white" stroke="#666666" points="1096,-233 1001,-233 1001,-214 1096,-214 1096,-233"/>
<text text-anchor="middle" x="1048.5" y="-221" font-family="Helvetica,sans-Serif" font-size="10.00">StartReverseView</text>
</a>
</g>
</g>
<!-- Node1&#45;&gt;Node140 -->
<g id="edge63" class="edge">
<title>Node1&#45;&gt;Node140</title>
<path fill="none" stroke="#63b8ff" d="M1638.44,-454.43C1635.66,-398 1619.38,-243.37 1525,-178.5 1376.71,-76.58 1138.16,-179.78 1068.92,-213.59"/>
<polygon fill="#63b8ff" stroke="#63b8ff" points="1634.93,-454.36 1638.82,-464.22 1641.93,-454.1 1634.93,-454.36"/>
</g>
<!-- Node141 -->
<g id="node47" class="node">
<title>Node141</title>
<g id="a_node47"><a xlink:href="TransmitterCode_2src_2main_8cpp.html#a1c607fceb33466e7f7e0dd010dd53d7e" target="_top" xlink:title=" ">
<polygon fill="white" stroke="#666666" points="1517.5,-130 1436.5,-130 1436.5,-111 1517.5,-111 1517.5,-130"/>
<text text-anchor="middle" x="1477" y="-118" font-family="Helvetica,sans-Serif" font-size="10.00">StartSlowView</text>
</a>
</g>
</g>
<!-- Node1&#45;&gt;Node141 -->
<g id="edge65" class="edge">
<title>Node1&#45;&gt;Node141</title>
<path fill="none" stroke="#63b8ff" d="M1637.13,-454.11C1631.09,-397.1 1607.45,-239.43 1525,-144.5 1519.83,-138.55 1512.83,-133.89 1505.82,-130.32"/>
<polygon fill="#63b8ff" stroke="#63b8ff" points="1633.64,-454.4 1638.09,-464.01 1640.61,-453.72 1633.64,-454.4"/>
</g>
<!-- Node134 -->
<g id="node48" class="node">
<title>Node134</title>
<g id="a_node48"><a xlink:href="TransmitterCode_2src_2main_8cpp.html#a8f725b11214f53b84fe2c7a9a4eb15ac" target="_top" xlink:title=" ">
<polygon fill="white" stroke="#666666" points="1525,-93 1429,-93 1429,-74 1525,-74 1525,-93"/>
<text text-anchor="middle" x="1477" y="-81" font-family="Helvetica,sans-Serif" font-size="10.00">StartSubTrimView</text>
</a>
</g>
</g>
<!-- Node1&#45;&gt;Node134 -->
<g id="edge66" class="edge">
<title>Node1&#45;&gt;Node134</title>
<path fill="none" stroke="#63b8ff" d="M1638.71,-454.18C1636.72,-391.56 1622.46,-206.02 1525,-101.5 1521.9,-98.18 1518.12,-95.46 1514.07,-93.24"/>
<polygon fill="#63b8ff" stroke="#63b8ff" points="1635.21,-454.18 1638.94,-464.09 1642.21,-454.01 1635.21,-454.18"/>
</g>
<!-- Node156 -->
<g id="node49" class="node">
<title>Node156</title>
<g id="a_node49"><a xlink:href="TransmitterCode_2src_2main_8cpp.html#a76b1f472f8c90038b85799f8d7b33e7f" target="_top" xlink:title=" ">
<polygon fill="white" stroke="#666666" points="1231,-508 1152,-508 1152,-489 1231,-489 1231,-508"/>
<text text-anchor="middle" x="1191.5" y="-496" font-family="Helvetica,sans-Serif" font-size="10.00">StartTrimView</text>
</a>
</g>
</g>
<!-- Node1&#45;&gt;Node156 -->
<g id="edge67" class="edge">
<title>Node1&#45;&gt;Node156</title>
<path fill="none" stroke="#63b8ff" d="M1549.45,-480.11C1452.39,-485.11 1301.95,-492.86 1231.45,-496.49"/>
<polygon fill="#63b8ff" stroke="#63b8ff" points="1549.4,-483.62 1559.2,-479.61 1549.04,-476.63 1549.4,-483.62"/>
</g>
<!-- Node55 -->
<g id="node50" class="node">
<title>Node55</title>
<g id="a_node50"><a xlink:href="TransmitterCode_2src_2main_8cpp.html#ac80d36db695cecb74d129643387feefd" target="_top" xlink:title=" ">
<polygon fill="white" stroke="#666666" points="1519.5,-19 1434.5,-19 1434.5,0 1519.5,0 1519.5,-19"/>
<text text-anchor="middle" x="1477" y="-7" font-family="Helvetica,sans-Serif" font-size="10.00">WriteNewCurve</text>
</a>
</g>
</g>
<!-- Node1&#45;&gt;Node55 -->
<g id="edge69" class="edge">
<title>Node1&#45;&gt;Node55</title>
<path fill="none" stroke="#63b8ff" d="M1636.25,-454.56C1625.43,-375.09 1583.49,-93.24 1525,-27.5 1522.1,-24.24 1518.53,-21.56 1514.68,-19.37"/>
<polygon fill="#63b8ff" stroke="#63b8ff" points="1632.77,-454.94 1637.56,-464.38 1639.71,-454.01 1632.77,-454.94"/>
</g>
<!-- Node3 -->
<g id="node3" class="node">
<title>Node3</title>
<g id="a_node3"><a xlink:href="TransmitterCode_2src_2main_8cpp.html#afb7c85cac4aa89fd998ed81c330374d2" target="_top" xlink:title=" ">
<polygon fill="white" stroke="#666666" points="451,-635 305,-635 305,-616 451,-616 451,-635"/>
<text text-anchor="middle" x="378" y="-623" font-family="Helvetica,sans-Serif" font-size="10.00">CheckForNextionButtonPress</text>
</a>
</g>
</g>
<!-- Node2&#45;&gt;Node3 -->
<g id="edge2" class="edge">
<title>Node2&#45;&gt;Node3</title>
<path fill="none" stroke="#63b8ff" d="M523.8,-526.5C508.76,-547.63 481.82,-581.43 451,-601.5 441.84,-607.47 431.05,-612.09 420.65,-615.61"/>
<polygon fill="#63b8ff" stroke="#63b8ff" points="526.52,-528.72 529.33,-518.51 520.77,-524.74 526.52,-528.72"/>
</g>
<!-- Node10 -->
<g id="node10" class="node">
<title>Node10</title>
<g id="a_node10"><a xlink:href="TransmitterCode_2src_2main_8cpp.html#ab7c9edf843c732d7fe296564f39bc0dc" target="_top" xlink:title="RECEIVE A MODEL FILE.">
<polygon fill="white" stroke="#666666" points="111,-512 17,-512 17,-493 111,-493 111,-512"/>
<text text-anchor="middle" x="64" y="-500" font-family="Helvetica,sans-Serif" font-size="10.00">ReceiveModelFile</text>
</a>
</g>
</g>
<!-- Node2&#45;&gt;Node10 -->
<g id="edge17" class="edge">
<title>Node2&#45;&gt;Node10</title>
<path fill="none" stroke="#63b8ff" d="M475.45,-506.85C379.9,-505.84 197.12,-503.9 111.46,-502.99"/>
<polygon fill="#63b8ff" stroke="#63b8ff" points="475.38,-510.35 485.42,-506.96 475.46,-503.35 475.38,-510.35"/>
</g>
<!-- Node4 -->
<g id="node4" class="node">
<title>Node4</title>
<g id="a_node4"><a xlink:href="TransmitterCode_2src_2main_8cpp.html#a641d6dab68ec7b2a8a32492aac55bc1c" target="_top" xlink:title=" ">
<polygon fill="white" stroke="#666666" points="269,-597 164,-597 164,-578 269,-578 269,-597"/>
<text text-anchor="middle" x="216.5" y="-585" font-family="Helvetica,sans-Serif" font-size="10.00">GetBackupFilename</text>
</a>
</g>
</g>
<!-- Node3&#45;&gt;Node4 -->
<g id="edge3" class="edge">
<title>Node3&#45;&gt;Node4</title>
<path fill="none" stroke="#63b8ff" d="M324.07,-612.89C303.04,-607.88 279.2,-602.2 259.4,-597.48"/>
<polygon fill="#63b8ff" stroke="#63b8ff" points="323.08,-616.25 333.62,-615.17 324.7,-609.44 323.08,-616.25"/>
</g>
<!-- Node6 -->
<g id="node6" class="node">
<title>Node6</title>
<g id="a_node6"><a xlink:href="TransmitterCode_2src_2main_8cpp.html#a6506bf72e0dd9e9ce480156b47625bff" target="_top" xlink:title=" ">
<polygon fill="white" stroke="#666666" points="259.5,-635 173.5,-635 173.5,-616 259.5,-616 259.5,-635"/>
<text text-anchor="middle" x="216.5" y="-623" font-family="Helvetica,sans-Serif" font-size="10.00">GetConfirmation</text>
</a>
</g>
</g>
<!-- Node3&#45;&gt;Node6 -->
<g id="edge6" class="edge">
<title>Node3&#45;&gt;Node6</title>
<path fill="none" stroke="#63b8ff" d="M293.55,-625.5C281.89,-625.5 270.35,-625.5 259.9,-625.5"/>
<polygon fill="#63b8ff" stroke="#63b8ff" points="293.2,-629 303.2,-625.5 293.2,-622 293.2,-629"/>
</g>
<!-- Node13 -->
<g id="node13" class="node">
<title>Node13</title>
<g id="a_node13"><a xlink:href="TransmitterCode_2src_2main_8cpp.html#a558ea014e230b7caa54ce5a37ad29b22" target="_top" xlink:title=" ">
<polygon fill="white" stroke="#666666" points="267,-916 166,-916 166,-897 267,-897 267,-916"/>
<text text-anchor="middle" x="216.5" y="-904" font-family="Helvetica,sans-Serif" font-size="10.00">ManageTransmitter</text>
</a>
</g>
</g>
<!-- Node3&#45;&gt;Node13 -->
<g id="edge15" class="edge">
<title>Node3&#45;&gt;Node13</title>
<path fill="none" stroke="#63b8ff" d="M365.88,-645.08C334.56,-700.28 246.31,-855.75 223.13,-896.58"/>
<polygon fill="#63b8ff" stroke="#63b8ff" points="368.87,-646.91 370.76,-636.49 362.78,-643.46 368.87,-646.91"/>
</g>
<!-- Node4&#45;&gt;Node2 -->
<g id="edge4" class="edge">
<title>Node4&#45;&gt;Node2</title>
<path fill="none" stroke="#63b8ff" d="M268.19,-574.79C331.61,-558.88 438.92,-531.97 496.74,-517.47"/>
<polygon fill="#63b8ff" stroke="#63b8ff" points="267.57,-571.33 258.72,-577.16 269.27,-578.12 267.57,-571.33"/>
</g>
<!-- Node5 -->
<g id="node5" class="node">
<title>Node5</title>
<g id="a_node5"><a xlink:href="TransmitterCode_2src_2main_8cpp.html#a9d94366336f1e5fd43edb9c24bec5821" target="_top" xlink:title=" ">
<polygon fill="white" stroke="#666666" points="98,-570 30,-570 30,-551 98,-551 98,-570"/>
<text text-anchor="middle" x="64" y="-558" font-family="Helvetica,sans-Serif" font-size="10.00">RenameFile</text>
</a>
</g>
</g>
<!-- Node4&#45;&gt;Node5 -->
<g id="edge5" class="edge">
<title>Node4&#45;&gt;Node5</title>
<path fill="none" stroke="#63b8ff" d="M152.62,-576.22C134.04,-572.89 114.43,-569.37 98.48,-566.51"/>
<polygon fill="#63b8ff" stroke="#63b8ff" points="151.76,-579.62 162.22,-577.94 152.99,-572.73 151.76,-579.62"/>
</g>
<!-- Node6&#45;&gt;Node2 -->
<g id="edge7" class="edge">
<title>Node6&#45;&gt;Node2</title>
<path fill="none" stroke="#63b8ff" d="M270.71,-614.79C318.97,-604.07 391.47,-585.44 451,-559.5 477.92,-547.77 506.56,-528.87 522.91,-517.37"/>
<polygon fill="#63b8ff" stroke="#63b8ff" points="270.09,-611.34 261.07,-616.89 271.58,-618.18 270.09,-611.34"/>
</g>
<!-- Node6&#45;&gt;Node5 -->
<g id="edge12" class="edge">
<title>Node6&#45;&gt;Node5</title>
<path fill="none" stroke="#63b8ff" d="M173.53,-611.2C170.26,-609.72 167.04,-608.16 164,-606.5 146.43,-596.94 145.85,-588.53 128,-579.5 118.72,-574.81 108.08,-571.05 98.22,-568.16"/>
<polygon fill="#63b8ff" stroke="#63b8ff" points="172.11,-614.39 182.69,-614.98 174.78,-607.93 172.11,-614.39"/>
</g>
<!-- Node6&#45;&gt;Node7 -->
<g id="edge8" class="edge">
<title>Node6&#45;&gt;Node7</title>
<path fill="none" stroke="#63b8ff" d="M201.94,-644.75C185.5,-667.57 156.46,-706.3 128,-736.5 111.54,-753.96 90.31,-772.03 77.18,-782.77"/>
<polygon fill="#63b8ff" stroke="#63b8ff" points="204.72,-646.88 207.67,-636.7 199.02,-642.81 204.72,-646.88"/>
</g>
<!-- Node8 -->
<g id="node8" class="node">
<title>Node8</title>
<g id="a_node8"><a xlink:href="TransmitterCode_2src_2main_8cpp.html#a339dccdc324b75d00fd035fb3fb129fd" target="_top" xlink:title=" ">
<polygon fill="white" stroke="#666666" points="105.5,-607 22.5,-607 22.5,-588 105.5,-588 105.5,-607"/>
<text text-anchor="middle" x="64" y="-595" font-family="Helvetica,sans-Serif" font-size="10.00">ModelUnmatch</text>
</a>
</g>
</g>
<!-- Node6&#45;&gt;Node8 -->
<g id="edge9" class="edge">
<title>Node6&#45;&gt;Node8</title>
<path fill="none" stroke="#63b8ff" d="M161.99,-615.55C143.57,-612.12 123.24,-608.33 105.97,-605.12"/>
<polygon fill="#63b8ff" stroke="#63b8ff" points="161.22,-618.96 171.69,-617.35 162.5,-612.08 161.22,-618.96"/>
</g>
<!-- Node9 -->
<g id="node9" class="node">
<title>Node9</title>
<g id="a_node9"><a xlink:href="TransmitterCode_2src_2main_8cpp.html#ae9f91b9da28f2e1e2fb126961f03c31c" target="_top" xlink:title=" ">
<polygon fill="white" stroke="#666666" points="104.5,-681 23.5,-681 23.5,-662 104.5,-662 104.5,-681"/>
<text text-anchor="middle" x="64" y="-669" font-family="Helvetica,sans-Serif" font-size="10.00">ModelViewEnd</text>
</a>
</g>
</g>
<!-- Node6&#45;&gt;Node9 -->
<g id="edge10" class="edge">
<title>Node6&#45;&gt;Node9</title>
<path fill="none" stroke="#63b8ff" d="M174.46,-638.93C159.83,-643.64 143.21,-648.9 128,-653.5 119.18,-656.17 109.64,-658.95 100.71,-661.51"/>
<polygon fill="#63b8ff" stroke="#63b8ff" points="175.32,-642.33 183.76,-635.92 173.17,-635.66 175.32,-642.33"/>
</g>
<!-- Node6&#45;&gt;Node10 -->
<g id="edge11" class="edge">
<title>Node6&#45;&gt;Node10</title>
<path fill="none" stroke="#63b8ff" d="M168.66,-610.03C167.03,-608.93 165.47,-607.75 164,-606.5 139.16,-585.33 150.45,-566.18 128,-542.5 115.97,-529.81 99.1,-519.38 85.85,-512.35"/>
<polygon fill="#63b8ff" stroke="#63b8ff" points="166.79,-612.99 177.23,-614.81 170.2,-606.88 166.79,-612.99"/>
</g>
<!-- Node11 -->
<g id="node11" class="node">
<title>Node11</title>
<g id="a_node11"><a xlink:href="TransmitterCode_2src_2main_8cpp.html#a5c7f22bae35d5d6df9d54fe79dbb8401" target="_top" xlink:title=" ">
<polygon fill="white" stroke="#666666" points="128,-644 0,-644 0,-625 128,-625 128,-644"/>
<text text-anchor="middle" x="64" y="-632" font-family="Helvetica,sans-Serif" font-size="10.00">ResetTransmitterSettings</text>
</a>
</g>
</g>
<!-- Node6&#45;&gt;Node11 -->
<g id="edge13" class="edge">
<title>Node6&#45;&gt;Node11</title>
<path fill="none" stroke="#63b8ff" d="M161.74,-628.71C150.93,-629.36 139.47,-630.05 128.36,-630.71"/>
<polygon fill="#63b8ff" stroke="#63b8ff" points="161.89,-632.21 171.67,-628.12 161.47,-625.22 161.89,-632.21"/>
</g>
<!-- Node12 -->
<g id="node12" class="node">
<title>Node12</title>
<g id="a_node12"><a xlink:href="TransmitterCode_2src_2main_8cpp.html#a3c55ef7c23759a89a86f6519569c4f7a" target="_top" xlink:title=" ">
<polygon fill="white" stroke="#666666" points="113.5,-727 14.5,-727 14.5,-708 113.5,-708 113.5,-727"/>
<text text-anchor="middle" x="64" y="-715" font-family="Helvetica,sans-Serif" font-size="10.00">TXModuleViewEnd</text>
</a>
</g>
</g>
<!-- Node6&#45;&gt;Node12 -->
<g id="edge14" class="edge">
<title>Node6&#45;&gt;Node12</title>
<path fill="none" stroke="#63b8ff" d="M195.35,-642.61C178.19,-656.64 152.5,-676.41 128,-690.5 116.65,-697.03 103.43,-702.93 92.03,-707.54"/>
<polygon fill="#63b8ff" stroke="#63b8ff" points="197.32,-645.53 202.78,-636.45 192.85,-640.14 197.32,-645.53"/>
</g>
<!-- Node14 -->
<g id="node14" class="node">
<title>Node14</title>
<g id="a_node14"><a xlink:href="TransmitterCode_2src_2main_8cpp.html#ad3cb30894c94eb016e98bdcaa899ac86" target="_top" xlink:title=" ">
<polygon fill="white" stroke="#666666" points="81.5,-897 46.5,-897 46.5,-878 81.5,-878 81.5,-897"/>
<text text-anchor="middle" x="64" y="-885" font-family="Helvetica,sans-Serif" font-size="10.00">loop</text>
</a>
</g>
</g>
<!-- Node13&#45;&gt;Node14 -->
<g id="edge16" class="edge">
<title>Node13&#45;&gt;Node14</title>
<path fill="none" stroke="#63b8ff" d="M154.72,-898.83C128.42,-895.51 99.68,-891.88 81.99,-889.64"/>
<polygon fill="#63b8ff" stroke="#63b8ff" points="153.94,-902.26 164.3,-900.04 154.82,-895.31 153.94,-902.26"/>
</g>
<!-- Node16 -->
<g id="node16" class="node">
<title>Node16</title>
<g id="a_node16"><a xlink:href="TransmitterCode_2src_2main_8cpp.html#ae267eaa80a4b3eb49ba10a97469eb7e9" target="_top" xlink:title=" ">
<polygon fill="white" stroke="#666666" points="572,-802 503,-802 503,-783 572,-783 572,-802"/>
<text text-anchor="middle" x="537.5" y="-790" font-family="Helvetica,sans-Serif" font-size="10.00">DoMFName</text>
</a>
</g>
</g>
<!-- Node15&#45;&gt;Node16 -->
<g id="edge19" class="edge">
<title>Node15&#45;&gt;Node16</title>
<path fill="none" stroke="#63b8ff" d="M872.86,-934.4C813.15,-949.87 703.08,-968.68 624,-925.5 574.13,-898.27 549.01,-828.12 541.22,-802.26"/>
<polygon fill="#63b8ff" stroke="#63b8ff" points="873.54,-937.84 882.29,-931.87 871.72,-931.08 873.54,-937.84"/>
</g>
<!-- Node18 -->
<g id="node18" class="node">
<title>Node18</title>
<g id="a_node18"><a xlink:href="TransmitterCode_2src_2main_8cpp.html#a494cb4acb30856d1f53f08df1b80c41b" target="_top" xlink:title=" ">
<polygon fill="white" stroke="#666666" points="1251,-727 1132,-727 1132,-708 1251,-708 1251,-727"/>
<text text-anchor="middle" x="1191.5" y="-715" font-family="Helvetica,sans-Serif" font-size="10.00">GetModelsMacAddress</text>
</a>
</g>
</g>
<!-- Node17&#45;&gt;Node18 -->
<g id="edge21" class="edge">
<title>Node17&#45;&gt;Node18</title>
<path fill="none" stroke="#63b8ff" d="M1277.4,-707.65C1268.77,-708.65 1259.91,-709.68 1251.33,-710.67"/>
<polygon fill="#63b8ff" stroke="#63b8ff" points="1277.55,-711.15 1287.08,-706.52 1276.74,-704.2 1277.55,-711.15"/>
</g>
<!-- Node19 -->
<g id="node19" class="node">
<title>Node19</title>
<g id="a_node19"><a xlink:href="TransmitterCode_2src_2main_8cpp.html#a694f4f5a0147f4dc29b0bc1a8951547d" target="_top" xlink:title=" ">
<polygon fill="white" stroke="#666666" points="1095.5,-727 1001.5,-727 1001.5,-708 1095.5,-708 1095.5,-727"/>
<text text-anchor="middle" x="1048.5" y="-715" font-family="Helvetica,sans-Serif" font-size="10.00">ParseAckPayload</text>
</a>
</g>
</g>
<!-- Node18&#45;&gt;Node19 -->
<g id="edge22" class="edge">
<title>Node18&#45;&gt;Node19</title>
<path fill="none" stroke="#63b8ff" d="M1120.25,-717.5C1111.96,-717.5 1103.66,-717.5 1095.81,-717.5"/>
<polygon fill="#63b8ff" stroke="#63b8ff" points="1120.01,-721 1130.01,-717.5 1120.01,-714 1120.01,-721"/>
</g>
<!-- Node20 -->
<g id="node20" class="node">
<title>Node20</title>
<g id="a_node20"><a xlink:href="RadioFunctions_8cpp.html#a1c11bb6771548de7d96723045b922620" target="_top" xlink:title=" ">
<polygon fill="white" stroke="#666666" points="964.5,-727 868.5,-727 868.5,-708 964.5,-708 964.5,-727"/>
<text text-anchor="middle" x="916.5" y="-715" font-family="Helvetica,sans-Serif" font-size="10.00">SuccessfulPacket</text>
</a>
</g>
</g>
<!-- Node19&#45;&gt;Node20 -->
<g id="edge23" class="edge">
<title>Node19&#45;&gt;Node20</title>
<path fill="none" stroke="#63b8ff" d="M990,-717.5C981.6,-717.5 973.03,-717.5 964.87,-717.5"/>
<polygon fill="#63b8ff" stroke="#63b8ff" points="989.79,-721 999.79,-717.5 989.79,-714 989.79,-721"/>
</g>
<!-- Node21 -->
<g id="node21" class="node">
<title>Node21</title>
<g id="a_node21"><a xlink:href="RadioFunctions_8cpp.html#a049bfb836e7aa4a3a48a1a4bd225fafc" target="_top" xlink:title=" ">
<polygon fill="white" stroke="#666666" points="832,-727 773,-727 773,-708 832,-708 832,-727"/>
<text text-anchor="middle" x="802.5" y="-715" font-family="Helvetica,sans-Serif" font-size="10.00">SendData</text>
</a>
</g>
</g>
<!-- Node20&#45;&gt;Node21 -->
<g id="edge24" class="edge">
<title>Node20&#45;&gt;Node21</title>
<path fill="none" stroke="#63b8ff" d="M856.51,-717.5C848.07,-717.5 839.73,-717.5 832.24,-717.5"/>
<polygon fill="#63b8ff" stroke="#63b8ff" points="856.49,-721 866.49,-717.5 856.49,-714 856.49,-721"/>
</g>
<!-- Node21&#45;&gt;Node14 -->
<g id="edge25" class="edge">
<title>Node21&#45;&gt;Node14</title>
<path fill="none" stroke="#63b8ff" d="M779.49,-734.04C726.46,-773.23 592.03,-868.5 538.5,-868.5 538.5,-868.5 538.5,-868.5 377,-868.5 264.12,-868.5 128.7,-881.04 81.89,-885.75"/>
<polygon fill="#63b8ff" stroke="#63b8ff" points="781.26,-737.09 787.19,-728.31 777.08,-731.47 781.26,-737.09"/>
</g>
<!-- Node22 -->
<g id="node22" class="node">
<title>Node22</title>
<g id="a_node22"><a xlink:href="RadioFunctions_8cpp.html#a760609a682300dfe6bfaac737fd4d5eb" target="_top" xlink:title=" ">
<polygon fill="#fff0f0" stroke="red" points="717.5,-727 643.5,-727 643.5,-708 717.5,-708 717.5,-727"/>
<text text-anchor="middle" x="680.5" y="-715" font-family="Helvetica,sans-Serif" font-size="10.00">Procrastinate</text>
</a>
</g>
</g>
<!-- Node21&#45;&gt;Node22 -->
<g id="edge26" class="edge">
<title>Node21&#45;&gt;Node22</title>
<path fill="none" stroke="#63b8ff" d="M761.38,-717.5C747.28,-717.5 731.52,-717.5 717.75,-717.5"/>
<polygon fill="#63b8ff" stroke="#63b8ff" points="761.24,-721 771.24,-717.5 761.24,-714 761.24,-721"/>
</g>
<!-- Node22&#45;&gt;Node2 -->
<g id="edge27" class="edge">
<title>Node22&#45;&gt;Node2</title>
<path fill="none" stroke="#63b8ff" d="M666.52,-698.17C637.18,-654.47 566.6,-549.35 544.94,-517.08"/>
<polygon fill="#63b8ff" stroke="#63b8ff" points="663.56,-700.05 672.04,-706.4 669.38,-696.14 663.56,-700.05"/>
</g>
<!-- Node22&#45;&gt;Node10 -->
<g id="edge31" class="edge">
<title>Node22&#45;&gt;Node10</title>
<path fill="none" stroke="#63b8ff" d="M651.86,-702.14C609.6,-679.14 525.94,-635.46 451,-607.5 331.44,-562.89 184.65,-528.22 111.31,-512.21"/>
<polygon fill="#63b8ff" stroke="#63b8ff" points="650.14,-705.19 660.59,-706.93 653.5,-699.05 650.14,-705.19"/>
</g>
<!-- Node22&#45;&gt;Node12 -->
<g id="edge32" class="edge">
<title>Node22&#45;&gt;Node12</title>
<path fill="none" stroke="#63b8ff" d="M631.91,-717.5C517.76,-717.5 229.37,-717.5 113.9,-717.5"/>
<polygon fill="#63b8ff" stroke="#63b8ff" points="631.84,-721 641.84,-717.5 631.84,-714 631.84,-721"/>
</g>
<!-- Node22&#45;&gt;Node16 -->
<g id="edge29" class="edge">
<title>Node22&#45;&gt;Node16</title>
<path fill="none" stroke="#63b8ff" d="M656.37,-733.8C638.32,-746.04 612.31,-762.67 588,-774.5 582,-777.42 575.39,-780.14 569.02,-782.53"/>
<polygon fill="#63b8ff" stroke="#63b8ff" points="658.26,-736.74 664.51,-728.19 654.29,-730.98 658.26,-736.74"/>
</g>
<!-- Node22&#45;&gt;Node17 -->
<g id="edge28" class="edge">
<title>Node22&#45;&gt;Node17</title>
<path fill="none" stroke="#63b8ff" d="M728.73,-705.25C775.74,-694.14 850.1,-679.5 915.5,-679.5 1049.5,-679.5 1049.5,-679.5 1049.5,-679.5 1133.53,-679.5 1230.92,-688.41 1288.61,-694.62"/>
<polygon fill="#63b8ff" stroke="#63b8ff" points="728.05,-701.81 719.15,-707.56 729.7,-708.61 728.05,-701.81"/>
</g>
<!-- Node22&#45;&gt;Node46 -->
<g id="edge30" class="edge">
<title>Node22&#45;&gt;Node46</title>
<path fill="none" stroke="#63b8ff" d="M632.27,-730.23C613.66,-735.25 592.61,-740.92 575.18,-745.62"/>
<polygon fill="#63b8ff" stroke="#63b8ff" points="632.98,-733.66 641.73,-727.68 631.16,-726.9 632.98,-733.66"/>
</g>
<!-- Node24&#45;&gt;Node13 -->
<g id="edge40" class="edge">
<title>Node24&#45;&gt;Node13</title>
<path fill="none" stroke="#63b8ff" d="M763.13,-978.16C679.68,-968.64 475.49,-944.78 305,-920.5 292.82,-918.77 279.7,-916.75 267.43,-914.79"/>
<polygon fill="#63b8ff" stroke="#63b8ff" points="762.71,-981.64 773.04,-979.29 763.5,-974.68 762.71,-981.64"/>
</g>
<!-- Node79&#45;&gt;Node9 -->
<g id="edge47" class="edge">
<title>Node79&#45;&gt;Node9</title>
<path fill="none" stroke="#63b8ff" d="M1436.02,-585.32C1433.59,-586.63 1431.23,-588.02 1429,-589.5 1410.13,-601.99 1413.7,-616.36 1393,-625.5 1253.2,-687.26 1202.33,-641.5 1049.5,-641.5 1049.5,-641.5 1049.5,-641.5 679.5,-641.5 462.41,-641.5 202.68,-660.41 104.87,-668.2"/>
<polygon fill="#63b8ff" stroke="#63b8ff" points="1437.38,-588.55 1444.89,-581.07 1434.36,-582.24 1437.38,-588.55"/>
</g>
<!-- Node79&#45;&gt;Node17 -->
<g id="edge44" class="edge">
<title>Node79&#45;&gt;Node17</title>
<path fill="none" stroke="#63b8ff" d="M1433,-586.25C1431.6,-587.27 1430.26,-588.35 1429,-589.5 1403.39,-612.75 1414.91,-631.74 1393,-658.5 1382.56,-671.25 1367.7,-682.78 1356.54,-690.52"/>
<polygon fill="#63b8ff" stroke="#63b8ff" points="1434.78,-589.27 1441.59,-581.15 1431.21,-583.25 1434.78,-589.27"/>
</g>
<!-- Node61 -->
<g id="node31" class="node">
<title>Node61</title>
<g id="a_node31"><a xlink:href="TransmitterCode_2src_2main_8cpp.html#a6ae37c6938b8c10b83d1bc74e8643bd9" target="_top" xlink:title=" ">
<polygon fill="white" stroke="#666666" points="737,-916 624,-916 624,-897 737,-897 737,-916"/>
<text text-anchor="middle" x="680.5" y="-904" font-family="Helvetica,sans-Serif" font-size="10.00">CheckPowerOffButton</text>
</a>
</g>
</g>
<!-- Node79&#45;&gt;Node61 -->
<g id="edge42" class="edge">
<title>Node79&#45;&gt;Node61</title>
<path fill="none" stroke="#63b8ff" d="M1431.61,-586.87C1430.69,-587.7 1429.82,-588.58 1429,-589.5 1389.09,-634.24 1437.31,-679.11 1393,-719.5 1326.09,-780.49 1283.04,-755.5 1192.5,-755.5 1192.5,-755.5 1192.5,-755.5 915.5,-755.5 811.07,-755.5 716.28,-863 689.2,-896.59"/>
<polygon fill="#63b8ff" stroke="#63b8ff" points="1433.36,-589.92 1439.53,-581.31 1429.34,-584.19 1433.36,-589.92"/>
</g>
<!-- Node80 -->
<g id="node32" class="node">
<title>Node80</title>
<g id="a_node32"><a xlink:href="TransmitterCode_2src_2main_8cpp.html#a2149418bb038e4a09266523c3bde2fce" target="_top" xlink:title=" ">
<polygon fill="white" stroke="#666666" points="1382.5,-616 1297.5,-616 1297.5,-597 1382.5,-597 1382.5,-616"/>
<text text-anchor="middle" x="1340" y="-604" font-family="Helvetica,sans-Serif" font-size="10.00">EndModelSetup</text>
</a>
</g>
</g>
<!-- Node79&#45;&gt;Node80 -->
<g id="edge45" class="edge">
<title>Node79&#45;&gt;Node80</title>
<path fill="none" stroke="#63b8ff" d="M1427.76,-583.36C1411.43,-587.72 1393.46,-592.51 1378.13,-596.6"/>
<polygon fill="#63b8ff" stroke="#63b8ff" points="1428.53,-586.78 1437.29,-580.82 1426.73,-580.02 1428.53,-586.78"/>
</g>
<!-- Node81 -->
<g id="node33" class="node">
<title>Node81</title>
<g id="a_node33"><a xlink:href="TransmitterCode_2src_2main_8cpp.html#a7c7ce8ee172cc418366d3feb06e4fbd3" target="_top" xlink:title=" ">
<polygon fill="white" stroke="#666666" points="1393,-579 1287,-579 1287,-560 1393,-560 1393,-579"/>
<text text-anchor="middle" x="1340" y="-567" font-family="Helvetica,sans-Serif" font-size="10.00">GoBackFromModels</text>
</a>
</g>
</g>
<!-- Node79&#45;&gt;Node81 -->
<g id="edge46" class="edge">
<title>Node79&#45;&gt;Node81</title>
<path fill="none" stroke="#63b8ff" d="M1424.56,-570.12C1414.31,-570.04 1403.53,-569.96 1393.25,-569.89"/>
<polygon fill="#63b8ff" stroke="#63b8ff" points="1424.32,-573.62 1434.35,-570.19 1424.37,-566.62 1424.32,-573.62"/>
</g>
<!-- Node79&#45;&gt;Node82 -->
<g id="edge48" class="edge">
<title>Node79&#45;&gt;Node82</title>
<path fill="none" stroke="#63b8ff" d="M1429.69,-557.47C1406.17,-550.84 1378.82,-543.15 1360.78,-538.07"/>
<polygon fill="#63b8ff" stroke="#63b8ff" points="1428.5,-560.77 1439.07,-560.11 1430.4,-554.03 1428.5,-560.77"/>
</g>
<!-- Node61&#45;&gt;Node13 -->
<g id="edge43" class="edge">
<title>Node61&#45;&gt;Node13</title>
<path fill="none" stroke="#63b8ff" d="M612.45,-906.5C518.78,-906.5 350.89,-906.5 267.43,-906.5"/>
<polygon fill="#63b8ff" stroke="#63b8ff" points="612.26,-910 622.26,-906.5 612.26,-903 612.26,-910"/>
</g>
<!-- Node40&#45;&gt;Node10 -->
<g id="edge52" class="edge">
<title>Node40&#45;&gt;Node10</title>
<path fill="none" stroke="#63b8ff" d="M1435.23,-59.76C1380.59,-76.32 1280.32,-102.5 1192.5,-102.5 1192.5,-102.5 1192.5,-102.5 377,-102.5 172.67,-102.5 82.45,-431.02 67.32,-492.61"/>
<polygon fill="#63b8ff" stroke="#63b8ff" points="1436.2,-63.12 1444.73,-56.83 1434.14,-56.43 1436.2,-63.12"/>
</g>
<!-- Node28 -->
<g id="node36" class="node">
<title>Node28</title>
<g id="a_node36"><a xlink:href="TransmitterCode_2src_2main_8cpp.html#a7af8e147bab19bdc499ffef595d30aae" target="_top" xlink:title=" ">
<polygon fill="white" stroke="#666666" points="1387.5,-56 1292.5,-56 1292.5,-37 1387.5,-37 1387.5,-56"/>
<text text-anchor="middle" x="1340" y="-44" font-family="Helvetica,sans-Serif" font-size="10.00">EndRenameModel</text>
</a>
</g>
</g>
<!-- Node40&#45;&gt;Node28 -->
<g id="edge51" class="edge">
<title>Node40&#45;&gt;Node28</title>
<path fill="none" stroke="#63b8ff" d="M1419.67,-46.5C1408.99,-46.5 1397.94,-46.5 1387.6,-46.5"/>
<polygon fill="#63b8ff" stroke="#63b8ff" points="1419.53,-50 1429.53,-46.5 1419.53,-43 1419.53,-50"/>
</g>
<!-- Node33 -->
<g id="node44" class="node">
<title>Node33</title>
<g id="a_node44"><a xlink:href="TransmitterCode_2src_2main_8cpp.html#a2c41d703abb54fc0d1794f2ca957eb94" target="_top" xlink:title=" ">
<polygon fill="white" stroke="#666666" points="1383.5,-206 1296.5,-206 1296.5,-187 1383.5,-187 1383.5,-206"/>
<text text-anchor="middle" x="1340" y="-194" font-family="Helvetica,sans-Serif" font-size="10.00">EndBankNames</text>
</a>
</g>
</g>
<!-- Node52&#45;&gt;Node33 -->
<g id="edge61" class="edge">
<title>Node52&#45;&gt;Node33</title>
<path fill="none" stroke="#63b8ff" d="M1420.97,-196.5C1408.54,-196.5 1395.52,-196.5 1383.69,-196.5"/>
<polygon fill="#63b8ff" stroke="#63b8ff" points="1420.66,-200 1430.66,-196.5 1420.66,-193 1420.66,-200"/>
</g>
<!-- Node35 -->
<g id="node45" class="node">
<title>Node35</title>
<g id="a_node45"><a xlink:href="TransmitterCode_2src_2main_8cpp.html#a0e7666bd8d250935f34395e0f6dea7bf" target="_top" xlink:title=" ">
<polygon fill="white" stroke="#666666" points="1378.5,-243 1301.5,-243 1301.5,-224 1378.5,-224 1378.5,-243"/>
<text text-anchor="middle" x="1340" y="-231" font-family="Helvetica,sans-Serif" font-size="10.00">EndSlowView</text>
</a>
</g>
</g>
<!-- Node52&#45;&gt;Node35 -->
<g id="edge62" class="edge">
<title>Node52&#45;&gt;Node35</title>
<path fill="none" stroke="#63b8ff" d="M1429,-209.38C1412.05,-214.03 1393.18,-219.2 1377.28,-223.56"/>
<polygon fill="#63b8ff" stroke="#63b8ff" points="1429.64,-212.83 1438.36,-206.82 1427.79,-206.08 1429.64,-212.83"/>
</g>
<!-- Node140&#45;&gt;Node2 -->
<g id="edge64" class="edge">
<title>Node140&#45;&gt;Node2</title>
<path fill="none" stroke="#63b8ff" d="M1014.87,-238.01C942.4,-270.75 763.43,-354.38 624,-442.5 596.26,-460.03 566.25,-484.18 550.2,-497.56"/>
<polygon fill="#63b8ff" stroke="#63b8ff" points="1016.1,-241.3 1023.79,-234 1013.23,-234.91 1016.1,-241.3"/>
</g>
<!-- Node156&#45;&gt;Node2 -->
<g id="edge68" class="edge">
<title>Node156&#45;&gt;Node2</title>
<path fill="none" stroke="#63b8ff" d="M1140.16,-499.68C1085.38,-500.86 995.22,-502.5 917.5,-502.5 917.5,-502.5 917.5,-502.5 801.5,-502.5 727.29,-502.5 641.32,-504.51 588.42,-505.99"/>
<polygon fill="#63b8ff" stroke="#63b8ff" points="1140.19,-503.18 1150.11,-499.46 1140.04,-496.18 1140.19,-503.18"/>
</g>
</g>
</svg>
