<?xml version="1.0" encoding="UTF-8" standalone="no"?>
<!DOCTYPE svg PUBLIC "-//W3C//DTD SVG 1.1//EN"
 "http://www.w3.org/Graphics/SVG/1.1/DTD/svg11.dtd">
<!-- Generated by graphviz version 7.0.4 (20221203.1631)
 -->
<!-- Title: RestoreBrightness Pages: 1 -->
<svg width="1057pt" height="1071pt"
 viewBox="0.00 0.00 1057.00 1071.34" xmlns="http://www.w3.org/2000/svg" xmlns:xlink="http://www.w3.org/1999/xlink">
<g id="graph0" class="graph" transform="scale(1 1) rotate(0) translate(4 1067.34)">
<title>RestoreBrightness</title>
<!-- Node1 -->
<g id="node1" class="node">
<title>Node1</title>
<g id="a_node1"><a xlink:title=" ">
<polygon fill="#999999" stroke="#666666" points="97,-876 0,-876 0,-857 97,-857 97,-876"/>
<text text-anchor="middle" x="48.5" y="-864" font-family="Helvetica,sans-Serif" font-size="10.00">RestoreBrightness</text>
</a>
</g>
</g>
<!-- Node2 -->
<g id="node2" class="node">
<title>Node2</title>
<g id="a_node2"><a xlink:href="TransmitterCode_2src_2main_8cpp.html#aecac2f0c289f02ef3c92b85be82eacac" target="_top" xlink:title=" ">
<polygon fill="white" stroke="#666666" points="216,-708 133,-708 133,-689 216,-689 216,-708"/>
<text text-anchor="middle" x="174.5" y="-696" font-family="Helvetica,sans-Serif" font-size="10.00">SendCommand</text>
</a>
</g>
</g>
<!-- Node1&#45;&gt;Node2 -->
<g id="edge1" class="edge">
<title>Node1&#45;&gt;Node2</title>
<path fill="none" stroke="#63b8ff" d="M56.52,-856.99C76.38,-830.08 133.2,-753.1 159.65,-717.27"/>
<polygon fill="#63b8ff" stroke="#63b8ff" points="162.22,-719.67 165.35,-709.55 156.59,-715.51 162.22,-719.67"/>
</g>
<!-- Node25 -->
<g id="node21" class="node">
<title>Node25</title>
<g id="a_node21"><a xlink:href="TransmitterCode_2src_2main_8cpp.html#a590a9174319918d7e3d7baca323fcf26" target="_top" xlink:title=" ">
<polygon fill="white" stroke="#666666" points="1022,-635 993,-635 993,-616 1022,-616 1022,-635"/>
<text text-anchor="middle" x="1007.5" y="-623" font-family="Helvetica,sans-Serif" font-size="10.00">Str</text>
</a>
</g>
</g>
<!-- Node1&#45;&gt;Node25 -->
<g id="edge73" class="edge">
<title>Node1&#45;&gt;Node25</title>
<path fill="none" stroke="#63b8ff" d="M55.25,-876.45C78.69,-915.54 171.27,-1056.5 288,-1056.5 288,-1056.5 288,-1056.5 422,-1056.5 653.49,-1056.5 766.49,-1105.37 930,-941.5 972.24,-899.16 996.97,-710.41 1004.23,-646.63"/>
<polygon fill="#63b8ff" stroke="#63b8ff" points="1007.7,-647.15 1005.32,-636.82 1000.74,-646.38 1007.7,-647.15"/>
</g>
<!-- Node3 -->
<g id="node3" class="node">
<title>Node3</title>
<g id="a_node3"><a xlink:href="TransmitterCode_2src_2main_8cpp.html#a43937dd3d9c795271fd9c3eb3c6b6410" target="_top" xlink:title=" ">
<polygon fill="white" stroke="#666666" points="1049,-1009 966,-1009 966,-990 1049,-990 1049,-1009"/>
<text text-anchor="middle" x="1007.5" y="-997" font-family="Helvetica,sans-Serif" font-size="10.00">GetReturnCode</text>
</a>
</g>
</g>
<!-- Node2&#45;&gt;Node3 -->
<g id="edge2" class="edge">
<title>Node2&#45;&gt;Node3</title>
<path fill="none" stroke="#63b8ff" d="M176.42,-708.18C180.05,-741.65 196.03,-854.15 252,-923.5 287.81,-967.87 307.31,-973.39 362,-989.5 574.28,-1052.02 843.18,-1023.92 954.55,-1007.89"/>
<polygon fill="#63b8ff" stroke="#63b8ff" points="954.9,-1011.38 964.28,-1006.46 953.88,-1004.46 954.9,-1011.38"/>
</g>
<!-- Node4 -->
<g id="node4" class="node">
<title>Node4</title>
<g id="a_node4"><a xlink:href="TransmitterCode_2src_2main_8cpp.html#a5f109790a6fe0b972a502f3cac4ed1e7" target="_top" xlink:title=" ">
<polygon fill="white" stroke="#666666" points="313,-651 265,-651 265,-632 313,-632 313,-651"/>
<text text-anchor="middle" x="289" y="-639" font-family="Helvetica,sans-Serif" font-size="10.00">InStrng</text>
</a>
</g>
</g>
<!-- Node2&#45;&gt;Node4 -->
<g id="edge3" class="edge">
<title>Node2&#45;&gt;Node4</title>
<path fill="none" stroke="#63b8ff" d="M195.1,-688.57C212.6,-679.7 238.49,-666.59 258.49,-656.45"/>
<polygon fill="#63b8ff" stroke="#63b8ff" points="259.94,-659.64 267.28,-652 256.78,-653.4 259.94,-659.64"/>
</g>
<!-- Node5 -->
<g id="node5" class="node">
<title>Node5</title>
<g id="a_node5"><a xlink:href="RadioFunctions_8cpp.html#a760609a682300dfe6bfaac737fd4d5eb" target="_top" xlink:title=" ">
<polygon fill="white" stroke="#666666" points="326,-482 252,-482 252,-463 326,-463 326,-482"/>
<text text-anchor="middle" x="289" y="-470" font-family="Helvetica,sans-Serif" font-size="10.00">Procrastinate</text>
</a>
</g>
</g>
<!-- Node2&#45;&gt;Node5 -->
<g id="edge4" class="edge">
<title>Node2&#45;&gt;Node5</title>
<path fill="none" stroke="#63b8ff" d="M178.34,-688.81C186.85,-660.56 213.94,-576.39 252,-514.5 257.16,-506.1 263.98,-497.69 270.28,-490.62"/>
<polygon fill="#63b8ff" stroke="#63b8ff" points="272.57,-493.3 276.81,-483.59 267.44,-488.54 272.57,-493.3"/>
</g>
<!-- Node6 -->
<g id="node6" class="node">
<title>Node6</title>
<g id="a_node6"><a xlink:href="RadioFunctions_8cpp.html#a1ddd5e8d5bd649dd98ce3710fbff651b" target="_top" xlink:title=" ">
<polygon fill="white" stroke="#666666" points="451.5,-500 390.5,-500 390.5,-481 451.5,-481 451.5,-500"/>
<text text-anchor="middle" x="421" y="-488" font-family="Helvetica,sans-Serif" font-size="10.00">Compress</text>
</a>
</g>
</g>
<!-- Node5&#45;&gt;Node6 -->
<g id="edge5" class="edge">
<title>Node5&#45;&gt;Node6</title>
<path fill="none" stroke="#63b8ff" d="M326.21,-477.51C342.57,-479.78 361.98,-482.47 378.88,-484.81"/>
<polygon fill="#63b8ff" stroke="#63b8ff" points="378.23,-488.25 388.62,-486.16 379.19,-481.32 378.23,-488.25"/>
</g>
<!-- Node7 -->
<g id="node7" class="node">
<title>Node7</title>
<g id="a_node7"><a xlink:href="TransmitterCode_2src_2main_8cpp.html#a26ae4f6ca14f760bd5eb6e7588fe7c81" target="_top" xlink:title="GET NEW SERVO POSITIONS.">
<polygon fill="white" stroke="#666666" points="480,-112 362,-112 362,-93 480,-93 480,-112"/>
<text text-anchor="middle" x="421" y="-100" font-family="Helvetica,sans-Serif" font-size="10.00">GetNewChannelValues</text>
</a>
</g>
</g>
<!-- Node5&#45;&gt;Node7 -->
<g id="edge6" class="edge">
<title>Node5&#45;&gt;Node7</title>
<path fill="none" stroke="#63b8ff" d="M293.48,-462.6C310.88,-413.06 388.68,-191.64 412.83,-122.91"/>
<polygon fill="#63b8ff" stroke="#63b8ff" points="416.06,-124.28 416.07,-113.68 409.45,-121.96 416.06,-124.28"/>
</g>
<!-- Node16 -->
<g id="node16" class="node">
<title>Node16</title>
<g id="a_node16"><a xlink:href="TransmitterCode_2src_2main_8cpp.html#ada95a00a341e4a80176eda743a94ab2e" target="_top" xlink:title=" ">
<polygon fill="white" stroke="#666666" points="456,-463 386,-463 386,-444 456,-444 456,-463"/>
<text text-anchor="middle" x="421" y="-451" font-family="Helvetica,sans-Serif" font-size="10.00">KickTheDog</text>
</a>
</g>
</g>
<!-- Node5&#45;&gt;Node16 -->
<g id="edge16" class="edge">
<title>Node5&#45;&gt;Node16</title>
<path fill="none" stroke="#63b8ff" d="M326.21,-467.21C341.21,-465.02 358.76,-462.45 374.6,-460.14"/>
<polygon fill="#63b8ff" stroke="#63b8ff" points="374.88,-463.63 384.27,-458.72 373.87,-456.7 374.88,-463.63"/>
</g>
<!-- Node17 -->
<g id="node17" class="node">
<title>Node17</title>
<g id="a_node17"><a xlink:href="RadioFunctions_8cpp.html#a049bfb836e7aa4a3a48a1a4bd225fafc" target="_top" xlink:title=" ">
<polygon fill="white" stroke="#666666" points="450.5,-426 391.5,-426 391.5,-407 450.5,-407 450.5,-426"/>
<text text-anchor="middle" x="421" y="-414" font-family="Helvetica,sans-Serif" font-size="10.00">SendData</text>
</a>
</g>
</g>
<!-- Node5&#45;&gt;Node17 -->
<g id="edge17" class="edge">
<title>Node5&#45;&gt;Node17</title>
<path fill="none" stroke="#63b8ff" d="M306.74,-462.53C321.06,-454.27 342.42,-442.62 362,-434.5 367.78,-432.1 374,-429.85 380.15,-427.8"/>
<polygon fill="#63b8ff" stroke="#63b8ff" points="381.1,-431.17 389.57,-424.81 378.98,-424.5 381.1,-431.17"/>
</g>
<!-- Node110 -->
<g id="node37" class="node">
<title>Node110</title>
<g id="a_node37"><a xlink:href="TransmitterCode_2src_2main_8cpp.html#ad770ee51a34d8c5026e65136884c16bf" target="_top" xlink:title=" ">
<polygon fill="white" stroke="#666666" points="463,-633 379,-633 379,-614 463,-614 463,-633"/>
<text text-anchor="middle" x="421" y="-621" font-family="Helvetica,sans-Serif" font-size="10.00">ShowServoPos</text>
</a>
</g>
</g>
<!-- Node5&#45;&gt;Node110 -->
<g id="edge43" class="edge">
<title>Node5&#45;&gt;Node110</title>
<path fill="none" stroke="#63b8ff" d="M298.53,-482.41C320.02,-507.37 376.64,-573.14 404.32,-605.29"/>
<polygon fill="#63b8ff" stroke="#63b8ff" points="401.44,-607.31 410.62,-612.61 406.75,-602.74 401.44,-607.31"/>
</g>
<!-- Node8 -->
<g id="node8" class="node">
<title>Node8</title>
<g id="a_node8"><a xlink:href="TransmitterCode_2src_2main_8cpp.html#ac77bd940a0faad7b997c9ddf40a7acc6" target="_top" xlink:title=" ">
<polygon fill="white" stroke="#666666" points="602,-19 548,-19 548,0 602,0 602,-19"/>
<text text-anchor="middle" x="575" y="-7" font-family="Helvetica,sans-Serif" font-size="10.00">DoMixes</text>
</a>
</g>
</g>
<!-- Node7&#45;&gt;Node8 -->
<g id="edge7" class="edge">
<title>Node7&#45;&gt;Node8</title>
<path fill="none" stroke="#63b8ff" d="M431.8,-92.57C447.98,-76.7 481.87,-45.58 516,-27.5 522.48,-24.07 529.72,-21.17 536.83,-18.77"/>
<polygon fill="#63b8ff" stroke="#63b8ff" points="537.79,-22.14 546.32,-15.85 535.73,-15.45 537.79,-22.14"/>
</g>
<!-- Node10 -->
<g id="node10" class="node">
<title>Node10</title>
<g id="a_node10"><a xlink:href="TransmitterCode_2src_2main_8cpp.html#acbd7adcd2b0e2095a89b4a98042b526e" target="_top" xlink:title=" ">
<polygon fill="white" stroke="#666666" points="621,-167 529,-167 529,-148 621,-148 621,-167"/>
<text text-anchor="middle" x="575" y="-155" font-family="Helvetica,sans-Serif" font-size="10.00">DoReverseSense</text>
</a>
</g>
</g>
<!-- Node7&#45;&gt;Node10 -->
<g id="edge9" class="edge">
<title>Node7&#45;&gt;Node10</title>
<path fill="none" stroke="#63b8ff" d="M447.01,-112.46C465.88,-119.89 492.45,-130.14 516,-138.5 521.1,-140.31 526.47,-142.15 531.8,-143.95"/>
<polygon fill="#63b8ff" stroke="#63b8ff" points="530.57,-147.22 541.16,-147.05 532.77,-140.58 530.57,-147.22"/>
</g>
<!-- Node11 -->
<g id="node11" class="node">
<title>Node11</title>
<g id="a_node11"><a xlink:href="TransmitterCode_2src_2main_8cpp.html#af9c038b48102eca9032f10fefd9d5736" target="_top" xlink:title=" ">
<polygon fill="white" stroke="#666666" points="614,-93 536,-93 536,-74 614,-74 614,-93"/>
<text text-anchor="middle" x="575" y="-81" font-family="Helvetica,sans-Serif" font-size="10.00">GetCurveDots</text>
</a>
</g>
</g>
<!-- Node7&#45;&gt;Node11 -->
<g id="edge10" class="edge">
<title>Node7&#45;&gt;Node11</title>
<path fill="none" stroke="#63b8ff" d="M480.33,-95.21C495,-93.38 510.59,-91.43 524.76,-89.65"/>
<polygon fill="#63b8ff" stroke="#63b8ff" points="524.79,-93.18 534.28,-88.47 523.92,-86.23 524.79,-93.18"/>
</g>
<!-- Node14 -->
<g id="node14" class="node">
<title>Node14</title>
<g id="a_node14"><a xlink:href="TransmitterCode_2src_2main_8cpp.html#a248db02e07497e7a4149db17b4e5c2f3" target="_top" xlink:title=" ">
<polygon fill="white" stroke="#666666" points="613.5,-56 536.5,-56 536.5,-37 613.5,-37 613.5,-56"/>
<text text-anchor="middle" x="575" y="-44" font-family="Helvetica,sans-Serif" font-size="10.00">GetStickInput</text>
</a>
</g>
</g>
<!-- Node7&#45;&gt;Node14 -->
<g id="edge13" class="edge">
<title>Node7&#45;&gt;Node14</title>
<path fill="none" stroke="#63b8ff" d="M444.97,-92.59C463.88,-84.58 491.46,-73.25 516,-64.5 520.36,-62.95 524.92,-61.4 529.5,-59.89"/>
<polygon fill="#63b8ff" stroke="#63b8ff" points="530.21,-63.34 538.67,-56.96 528.07,-56.68 530.21,-63.34"/>
</g>
<!-- Node15 -->
<g id="node15" class="node">
<title>Node15</title>
<g id="a_node15"><a xlink:href="TransmitterCode_2src_2main_8cpp.html#a07fabdf50e27daf4c4bd38d316a40e68" target="_top" xlink:title=" ">
<polygon fill="white" stroke="#666666" points="618,-130 532,-130 532,-111 618,-111 618,-130"/>
<text text-anchor="middle" x="575" y="-118" font-family="Helvetica,sans-Serif" font-size="10.00">GetTrimAmount</text>
</a>
</g>
</g>
<!-- Node7&#45;&gt;Node15 -->
<g id="edge15" class="edge">
<title>Node7&#45;&gt;Node15</title>
<path fill="none" stroke="#63b8ff" d="M480.33,-109.41C493.54,-110.97 507.51,-112.63 520.5,-114.16"/>
<polygon fill="#63b8ff" stroke="#63b8ff" points="519.79,-117.6 530.13,-115.31 520.61,-110.65 519.79,-117.6"/>
</g>
<!-- Node9 -->
<g id="node9" class="node">
<title>Node9</title>
<g id="a_node9"><a xlink:href="TransmitterCode_2src_2main_8cpp.html#a0d8d8a0d67cb9b04481f1692abe75368" target="_top" xlink:title=" ">
<polygon fill="white" stroke="#666666" points="772,-19 693,-19 693,0 772,0 772,-19"/>
<text text-anchor="middle" x="732.5" y="-7" font-family="Helvetica,sans-Serif" font-size="10.00">IntoHigherRes</text>
</a>
</g>
</g>
<!-- Node8&#45;&gt;Node9 -->
<g id="edge8" class="edge">
<title>Node8&#45;&gt;Node9</title>
<path fill="none" stroke="#63b8ff" d="M602.38,-9.5C623.97,-9.5 655.12,-9.5 681.41,-9.5"/>
<polygon fill="#63b8ff" stroke="#63b8ff" points="681.21,-13 691.21,-9.5 681.21,-6 681.21,-13"/>
</g>
<!-- Node12 -->
<g id="node12" class="node">
<title>Node12</title>
<g id="a_node12"><a xlink:href="TransmitterCode_2src_2main_8cpp.html#afeabb54d48ef7e55693014e057d2943d" target="_top" xlink:title=" ">
<polygon fill="white" stroke="#666666" points="771,-93 694,-93 694,-74 771,-74 771,-93"/>
<text text-anchor="middle" x="732.5" y="-81" font-family="Helvetica,sans-Serif" font-size="10.00">CalculateRate</text>
</a>
</g>
</g>
<!-- Node11&#45;&gt;Node12 -->
<g id="edge11" class="edge">
<title>Node11&#45;&gt;Node12</title>
<path fill="none" stroke="#63b8ff" d="M614.44,-83.5C634.87,-83.5 660.22,-83.5 682.09,-83.5"/>
<polygon fill="#63b8ff" stroke="#63b8ff" points="681.99,-87 691.99,-83.5 681.99,-80 681.99,-87"/>
</g>
<!-- Node13 -->
<g id="node13" class="node">
<title>Node13</title>
<g id="a_node13"><a xlink:href="TransmitterCode_2src_2main_8cpp.html#a8f53f86499d740b350f7b6d791c90497" target="_top" xlink:title=" ">
<polygon fill="white" stroke="#666666" points="768,-56 697,-56 697,-37 768,-37 768,-56"/>
<text text-anchor="middle" x="732.5" y="-44" font-family="Helvetica,sans-Serif" font-size="10.00">UseFullRate</text>
</a>
</g>
</g>
<!-- Node11&#45;&gt;Node13 -->
<g id="edge12" class="edge">
<title>Node11&#45;&gt;Node13</title>
<path fill="none" stroke="#63b8ff" d="M614.44,-74.35C635.98,-69.23 662.99,-62.8 685.63,-57.41"/>
<polygon fill="#63b8ff" stroke="#63b8ff" points="686.3,-60.85 695.22,-55.13 684.68,-54.04 686.3,-60.85"/>
</g>
<!-- Node14&#45;&gt;Node9 -->
<g id="edge14" class="edge">
<title>Node14&#45;&gt;Node9</title>
<path fill="none" stroke="#63b8ff" d="M613.64,-37.54C634,-32.7 659.42,-26.65 681.43,-21.41"/>
<polygon fill="#63b8ff" stroke="#63b8ff" points="682.19,-24.83 691.11,-19.11 680.57,-18.02 682.19,-24.83"/>
</g>
<!-- Node18 -->
<g id="node18" class="node">
<title>Node18</title>
<g id="a_node18"><a xlink:href="RadioFunctions_8cpp.html#a5fbd3c8613a4163425c94965704ce5f8" target="_top" xlink:title=" ">
<polygon fill="white" stroke="#666666" points="612,-350 538,-350 538,-331 612,-331 612,-350"/>
<text text-anchor="middle" x="575" y="-338" font-family="Helvetica,sans-Serif" font-size="10.00">FailedPacket</text>
</a>
</g>
</g>
<!-- Node17&#45;&gt;Node18 -->
<g id="edge18" class="edge">
<title>Node17&#45;&gt;Node18</title>
<path fill="none" stroke="#63b8ff" d="M441.87,-406.56C467.93,-393.54 513.88,-370.56 544.13,-355.43"/>
<polygon fill="#63b8ff" stroke="#63b8ff" points="545.39,-358.72 552.77,-351.11 542.26,-352.46 545.39,-358.72"/>
</g>
<!-- Node56 -->
<g id="node27" class="node">
<title>Node56</title>
<g id="a_node27"><a xlink:href="RadioFunctions_8cpp.html#a07c27b4e208198453c70876517926052" target="_top" xlink:title=" ">
<polygon fill="white" stroke="#666666" points="606,-463 544,-463 544,-444 606,-444 606,-463"/>
<text text-anchor="middle" x="575" y="-451" font-family="Helvetica,sans-Serif" font-size="10.00">FlushFifos</text>
</a>
</g>
</g>
<!-- Node17&#45;&gt;Node56 -->
<g id="edge30" class="edge">
<title>Node17&#45;&gt;Node56</title>
<path fill="none" stroke="#63b8ff" d="M450.95,-423.55C474.06,-429.17 506.74,-437.13 532.61,-443.43"/>
<polygon fill="#63b8ff" stroke="#63b8ff" points="531.58,-446.78 542.13,-445.74 533.24,-439.98 531.58,-446.78"/>
</g>
<!-- Node57 -->
<g id="node28" class="node">
<title>Node57</title>
<g id="a_node28"><a xlink:href="TransmitterCode_2src_2main_8cpp.html#ac4ffb9b555ce8d38f615610dc89b5499" target="_top" xlink:title=" ">
<polygon fill="white" stroke="#666666" points="619.5,-500 530.5,-500 530.5,-481 619.5,-481 619.5,-500"/>
<text text-anchor="middle" x="575" y="-488" font-family="Helvetica,sans-Serif" font-size="10.00">LoadPacketData</text>
</a>
</g>
</g>
<!-- Node17&#45;&gt;Node57 -->
<g id="edge31" class="edge">
<title>Node17&#45;&gt;Node57</title>
<path fill="none" stroke="#63b8ff" d="M450.94,-422.43C460.63,-425.2 471.19,-429.1 480,-434.5 499.56,-446.49 496.53,-459.35 516,-471.5 518.61,-473.13 521.37,-474.63 524.21,-476.01"/>
<polygon fill="#63b8ff" stroke="#63b8ff" points="522.81,-479.22 533.38,-479.93 525.56,-472.78 522.81,-479.22"/>
</g>
<!-- Node60 -->
<g id="node31" class="node">
<title>Node60</title>
<g id="a_node31"><a xlink:href="ReceiverCode_2src_2main_8cpp.html#a6a495c5560f12cc3fd3df9454927d681" target="_top" xlink:title=" ">
<polygon fill="white" stroke="#666666" points="612,-426 538,-426 538,-407 612,-407 612,-426"/>
<text text-anchor="middle" x="575" y="-414" font-family="Helvetica,sans-Serif" font-size="10.00">MapToSBUS</text>
</a>
</g>
</g>
<!-- Node17&#45;&gt;Node60 -->
<g id="edge36" class="edge">
<title>Node17&#45;&gt;Node60</title>
<path fill="none" stroke="#63b8ff" d="M450.95,-416.5C472.21,-416.5 501.59,-416.5 526.3,-416.5"/>
<polygon fill="#63b8ff" stroke="#63b8ff" points="526.13,-420 536.13,-416.5 526.13,-413 526.13,-420"/>
</g>
<!-- Node61 -->
<g id="node32" class="node">
<title>Node61</title>
<g id="a_node32"><a xlink:href="RadioFunctions_8cpp.html#a1c11bb6771548de7d96723045b922620" target="_top" xlink:title=" ">
<polygon fill="white" stroke="#666666" points="623,-222 527,-222 527,-203 623,-203 623,-222"/>
<text text-anchor="middle" x="575" y="-210" font-family="Helvetica,sans-Serif" font-size="10.00">SuccessfulPacket</text>
</a>
</g>
</g>
<!-- Node17&#45;&gt;Node61 -->
<g id="edge37" class="edge">
<title>Node17&#45;&gt;Node61</title>
<path fill="none" stroke="#63b8ff" d="M429.33,-406.66C453.11,-374.75 528.36,-273.75 559.89,-231.44"/>
<polygon fill="#63b8ff" stroke="#63b8ff" points="562.67,-233.56 565.84,-223.45 557.06,-229.38 562.67,-233.56"/>
</g>
<!-- Node19 -->
<g id="node19" class="node">
<title>Node19</title>
<g id="a_node19"><a xlink:href="TransmitterCode_2src_2main_8cpp.html#afd409fe008843b50c3e2ff697558d4d5" target="_top" xlink:title=" ">
<polygon fill="white" stroke="#666666" points="778.5,-428 686.5,-428 686.5,-409 778.5,-409 778.5,-428"/>
<text text-anchor="middle" x="732.5" y="-416" font-family="Helvetica,sans-Serif" font-size="10.00">LogThisLongGap</text>
</a>
</g>
</g>
<!-- Node18&#45;&gt;Node19 -->
<g id="edge19" class="edge">
<title>Node18&#45;&gt;Node19</title>
<path fill="none" stroke="#63b8ff" d="M601.69,-350.4C611.86,-354.51 623.59,-359.49 634,-364.5 658.56,-376.34 685.62,-391.5 704.99,-402.75"/>
<polygon fill="#63b8ff" stroke="#63b8ff" points="703.19,-405.75 713.59,-407.78 706.73,-399.71 703.19,-405.75"/>
</g>
<!-- Node30 -->
<g id="node22" class="node">
<title>Node30</title>
<g id="a_node22"><a xlink:href="RadioFunctions_8cpp.html#afc091b5942e21a03f6dc8635d5e519ba" target="_top" xlink:title=" ">
<polygon fill="white" stroke="#666666" points="793.5,-278 671.5,-278 671.5,-259 793.5,-259 793.5,-278"/>
<text text-anchor="middle" x="732.5" y="-266" font-family="Helvetica,sans-Serif" font-size="10.00">RecordsPacketSuccess</text>
</a>
</g>
</g>
<!-- Node18&#45;&gt;Node30 -->
<g id="edge22" class="edge">
<title>Node18&#45;&gt;Node30</title>
<path fill="none" stroke="#63b8ff" d="M590.73,-330.56C608.77,-318.75 640.57,-299.05 670,-286.5 673.75,-284.9 677.69,-283.39 681.68,-281.98"/>
<polygon fill="#63b8ff" stroke="#63b8ff" points="682.47,-285.4 690.86,-278.94 680.27,-278.76 682.47,-285.4"/>
</g>
<!-- Node31 -->
<g id="node23" class="node">
<title>Node31</title>
<g id="a_node23"><a xlink:href="TransmitterCode_2src_2main_8cpp.html#a7d34cec6e8edc20c8b50424e15dcc7c7" target="_top" xlink:title=" ">
<polygon fill="#fff0f0" stroke="red" points="764,-315 701,-315 701,-296 764,-296 764,-315"/>
<text text-anchor="middle" x="732.5" y="-303" font-family="Helvetica,sans-Serif" font-size="10.00">RedLedOn</text>
</a>
</g>
</g>
<!-- Node18&#45;&gt;Node31 -->
<g id="edge23" class="edge">
<title>Node18&#45;&gt;Node31</title>
<path fill="none" stroke="#63b8ff" d="M612.46,-332.29C635.55,-327.1 665.49,-320.36 689.57,-314.94"/>
<polygon fill="#63b8ff" stroke="#63b8ff" points="690.05,-318.42 699.04,-312.81 688.51,-311.59 690.05,-318.42"/>
</g>
<!-- Node51 -->
<g id="node25" class="node">
<title>Node51</title>
<g id="a_node25"><a xlink:href="TransmitterCode_2src_2main_8cpp.html#a0a3d89dfcfab70c6cbc50401fff1afeb" target="_top" xlink:title=" ">
<polygon fill="white" stroke="#666666" points="787,-465 678,-465 678,-446 787,-446 787,-465"/>
<text text-anchor="middle" x="732.5" y="-453" font-family="Helvetica,sans-Serif" font-size="10.00">ReEnableScanButton</text>
</a>
</g>
</g>
<!-- Node18&#45;&gt;Node51 -->
<g id="edge26" class="edge">
<title>Node18&#45;&gt;Node51</title>
<path fill="none" stroke="#63b8ff" d="M611.2,-350.38C619.36,-353.87 627.54,-358.48 634,-364.5 660.18,-388.88 642.71,-413.36 670,-436.5 671.49,-437.77 673.07,-438.95 674.72,-440.05"/>
<polygon fill="#63b8ff" stroke="#63b8ff" points="672.94,-443.07 683.39,-444.82 676.31,-436.94 672.94,-443.07"/>
</g>
<!-- Node52 -->
<g id="node26" class="node">
<title>Node52</title>
<g id="a_node26"><a xlink:href="RadioFunctions_8cpp.html#ad0236abcfc887ad708d9504c4ab2a7c3" target="_top" xlink:title=" ">
<polygon fill="#fff0f0" stroke="red" points="776.5,-352 688.5,-352 688.5,-333 776.5,-333 776.5,-352"/>
<text text-anchor="middle" x="732.5" y="-340" font-family="Helvetica,sans-Serif" font-size="10.00">TryToReconnect</text>
</a>
</g>
</g>
<!-- Node18&#45;&gt;Node52 -->
<g id="edge29" class="edge">
<title>Node18&#45;&gt;Node52</title>
<path fill="none" stroke="#63b8ff" d="M612.46,-340.97C631.54,-341.21 655.31,-341.52 676.57,-341.79"/>
<polygon fill="#63b8ff" stroke="#63b8ff" points="676.53,-345.29 686.57,-341.92 676.62,-338.29 676.53,-345.29"/>
</g>
<!-- Node20 -->
<g id="node20" class="node">
<title>Node20</title>
<g id="a_node20"><a xlink:href="TransmitterCode_2src_2main_8cpp.html#add8d8f400f1c1c4a5add52736cdf94ca" target="_top" xlink:title=" ">
<polygon fill="#fff0f0" stroke="red" points="906.5,-428 854.5,-428 854.5,-409 906.5,-409 906.5,-428"/>
<text text-anchor="middle" x="880.5" y="-416" font-family="Helvetica,sans-Serif" font-size="10.00">LogText</text>
</a>
</g>
</g>
<!-- Node19&#45;&gt;Node20 -->
<g id="edge20" class="edge">
<title>Node19&#45;&gt;Node20</title>
<path fill="none" stroke="#63b8ff" d="M778.89,-418.5C799.41,-418.5 823.35,-418.5 842.72,-418.5"/>
<polygon fill="#63b8ff" stroke="#63b8ff" points="842.61,-422 852.61,-418.5 842.61,-415 842.61,-422"/>
</g>
<!-- Node19&#45;&gt;Node25 -->
<g id="edge21" class="edge">
<title>Node19&#45;&gt;Node25</title>
<path fill="none" stroke="#63b8ff" d="M778.83,-425.47C822.05,-434.16 886.76,-452.74 930,-490.5 966.38,-522.27 989.33,-575.76 999.81,-604.96"/>
<polygon fill="#63b8ff" stroke="#63b8ff" points="996.39,-605.77 1002.95,-614.1 1003.01,-603.5 996.39,-605.77"/>
</g>
<!-- Node31&#45;&gt;Node2 -->
<g id="edge24" class="edge">
<title>Node31&#45;&gt;Node2</title>
<path fill="none" stroke="#63b8ff" d="M700.67,-300.99C615.24,-290.43 373.72,-273.88 252,-402.5 213.6,-443.08 186.62,-617.1 178.25,-677.64"/>
<polygon fill="#63b8ff" stroke="#63b8ff" points="174.82,-676.87 176.95,-687.25 181.76,-677.81 174.82,-676.87"/>
</g>
<!-- Node36 -->
<g id="node24" class="node">
<title>Node36</title>
<g id="a_node24"><a xlink:href="ReceiverCode_2src_2main_8cpp.html#a2eabdb233653fa02f0b899e26b5e8ce7" target="_top" xlink:title=" ">
<polygon fill="white" stroke="#666666" points="930,-353 831,-353 831,-334 930,-334 930,-353"/>
<text text-anchor="middle" x="880.5" y="-341" font-family="Helvetica,sans-Serif" font-size="10.00">SetUKFrequencies</text>
</a>
</g>
</g>
<!-- Node31&#45;&gt;Node36 -->
<g id="edge25" class="edge">
<title>Node31&#45;&gt;Node36</title>
<path fill="none" stroke="#63b8ff" d="M764.46,-313.56C783.57,-318.53 808.5,-325.02 830.26,-330.68"/>
<polygon fill="#63b8ff" stroke="#63b8ff" points="829.28,-334.05 839.84,-333.18 831.05,-327.27 829.28,-334.05"/>
</g>
<!-- Node51&#45;&gt;Node2 -->
<g id="edge27" class="edge">
<title>Node51&#45;&gt;Node2</title>
<path fill="none" stroke="#63b8ff" d="M688.85,-445.55C682.28,-443.12 675.77,-440.14 670,-436.5 650.05,-423.92 655.61,-406.96 634,-397.5 523.26,-349.01 479.55,-369.3 362,-397.5 308.65,-410.3 287.4,-411.59 252,-453.5 194.83,-521.19 180.32,-631.54 176.69,-677.44"/>
<polygon fill="#63b8ff" stroke="#63b8ff" points="173.2,-677.09 176.02,-687.3 180.19,-677.56 173.2,-677.09"/>
</g>
<!-- Node51&#45;&gt;Node25 -->
<g id="edge28" class="edge">
<title>Node51&#45;&gt;Node25</title>
<path fill="none" stroke="#63b8ff" d="M774.59,-465.42C781.56,-467.69 788.6,-470.38 795,-473.5 872.59,-511.36 952.1,-577.3 987.5,-608.37"/>
<polygon fill="#63b8ff" stroke="#63b8ff" points="984.96,-610.8 994.76,-614.82 989.6,-605.56 984.96,-610.8"/>
</g>
<!-- Node57&#45;&gt;Node2 -->
<g id="edge33" class="edge">
<title>Node57&#45;&gt;Node2</title>
<path fill="none" stroke="#63b8ff" d="M530.29,-498.88C442.36,-515.76 252.35,-552.24 252,-552.5 209.83,-583.85 188.8,-645.34 180.27,-677.61"/>
<polygon fill="#63b8ff" stroke="#63b8ff" points="176.88,-676.75 177.88,-687.3 183.68,-678.43 176.88,-676.75"/>
</g>
<!-- Node57&#45;&gt;Node36 -->
<g id="edge35" class="edge">
<title>Node57&#45;&gt;Node36</title>
<path fill="none" stroke="#63b8ff" d="M619.55,-480.53C624.77,-478.13 629.75,-475.17 634,-471.5 661.09,-448.13 642.27,-422.11 670,-399.5 682.03,-389.68 765.59,-369.26 823.47,-355.98"/>
<polygon fill="#63b8ff" stroke="#63b8ff" points="824.22,-359.39 833.2,-353.76 822.67,-352.57 824.22,-359.39"/>
</g>
<!-- Node58 -->
<g id="node29" class="node">
<title>Node58</title>
<g id="a_node29"><a xlink:href="TransmitterCode_2src_2main_8cpp.html#a5aa4888b924a4f1d95e9cedc3004f2b6" target="_top" xlink:title=" ">
<polygon fill="white" stroke="#666666" points="774,-502 691,-502 691,-483 774,-483 774,-502"/>
<text text-anchor="middle" x="732.5" y="-490" font-family="Helvetica,sans-Serif" font-size="10.00">MakeTwobytes</text>
</a>
</g>
</g>
<!-- Node57&#45;&gt;Node58 -->
<g id="edge32" class="edge">
<title>Node57&#45;&gt;Node58</title>
<path fill="none" stroke="#63b8ff" d="M619.73,-491.06C638.19,-491.3 659.84,-491.58 679.14,-491.83"/>
<polygon fill="#63b8ff" stroke="#63b8ff" points="678.94,-495.32 688.99,-491.95 679.03,-488.32 678.94,-495.32"/>
</g>
<!-- Node59 -->
<g id="node30" class="node">
<title>Node59</title>
<g id="a_node30"><a xlink:href="ReceiverCode_2src_2main_8cpp.html#a31a35307bbac88ceda244272f25d399a" target="_top" xlink:title=" ">
<polygon fill="white" stroke="#666666" points="784.5,-539 680.5,-539 680.5,-520 784.5,-520 784.5,-539"/>
<text text-anchor="middle" x="732.5" y="-527" font-family="Helvetica,sans-Serif" font-size="10.00">SetTestFrequencies</text>
</a>
</g>
</g>
<!-- Node57&#45;&gt;Node59 -->
<g id="edge34" class="edge">
<title>Node57&#45;&gt;Node59</title>
<path fill="none" stroke="#63b8ff" d="M615.64,-500.44C635.4,-505.4 659.51,-511.45 680.62,-516.74"/>
<polygon fill="#63b8ff" stroke="#63b8ff" points="679.64,-520.1 690.19,-519.14 681.34,-513.31 679.64,-520.1"/>
</g>
<!-- Node61&#45;&gt;Node30 -->
<g id="edge41" class="edge">
<title>Node61&#45;&gt;Node30</title>
<path fill="none" stroke="#63b8ff" d="M599.77,-222.43C618.66,-230.18 645.84,-241.03 670,-249.5 675.4,-251.39 681.1,-253.29 686.76,-255.11"/>
<polygon fill="#63b8ff" stroke="#63b8ff" points="685.48,-258.38 696.07,-258.05 687.59,-251.7 685.48,-258.38"/>
</g>
<!-- Node62 -->
<g id="node33" class="node">
<title>Node62</title>
<g id="a_node33"><a xlink:href="TransmitterCode_2src_2main_8cpp.html#a953f1d5046e183549ed95b08f6d675e3" target="_top" xlink:title=" ">
<polygon fill="#fff0f0" stroke="red" points="781.5,-167 683.5,-167 683.5,-148 781.5,-148 781.5,-167"/>
<text text-anchor="middle" x="732.5" y="-155" font-family="Helvetica,sans-Serif" font-size="10.00">CheckGapsLength</text>
</a>
</g>
</g>
<!-- Node61&#45;&gt;Node62 -->
<g id="edge38" class="edge">
<title>Node61&#45;&gt;Node62</title>
<path fill="none" stroke="#63b8ff" d="M599.35,-202.63C618.24,-194.81 645.61,-183.85 670,-175.5 674.75,-173.88 679.73,-172.26 684.72,-170.71"/>
<polygon fill="#63b8ff" stroke="#63b8ff" points="685.55,-174.12 694.11,-167.87 683.52,-167.42 685.55,-174.12"/>
</g>
<!-- Node42 -->
<g id="node34" class="node">
<title>Node42</title>
<g id="a_node34"><a xlink:href="TransmitterCode_2src_2main_8cpp.html#a62e53eb9359c32b666e3386d62c57037" target="_top" xlink:title=" ">
<polygon fill="#fff0f0" stroke="red" points="768.5,-130 696.5,-130 696.5,-111 768.5,-111 768.5,-130"/>
<text text-anchor="middle" x="732.5" y="-118" font-family="Helvetica,sans-Serif" font-size="10.00">GreenLedOn</text>
</a>
</g>
</g>
<!-- Node61&#45;&gt;Node42 -->
<g id="edge39" class="edge">
<title>Node61&#45;&gt;Node42</title>
<path fill="none" stroke="#63b8ff" d="M593.72,-202.65C605.59,-195.7 621.31,-185.83 634,-175.5 651.79,-161.01 650.34,-150.33 670,-138.5 674.7,-135.67 679.86,-133.27 685.15,-131.22"/>
<polygon fill="#63b8ff" stroke="#63b8ff" points="686.26,-134.54 694.61,-128.01 684.01,-127.91 686.26,-134.54"/>
</g>
<!-- Node64 -->
<g id="node35" class="node">
<title>Node64</title>
<g id="a_node35"><a xlink:href="TransmitterCode_2src_2main_8cpp.html#a694f4f5a0147f4dc29b0bc1a8951547d" target="_top" xlink:title=" ">
<polygon fill="#fff0f0" stroke="red" points="779.5,-241 685.5,-241 685.5,-222 779.5,-222 779.5,-241"/>
<text text-anchor="middle" x="732.5" y="-229" font-family="Helvetica,sans-Serif" font-size="10.00">ParseAckPayload</text>
</a>
</g>
</g>
<!-- Node61&#45;&gt;Node64 -->
<g id="edge40" class="edge">
<title>Node61&#45;&gt;Node64</title>
<path fill="none" stroke="#63b8ff" d="M623.08,-218.25C639.06,-220.2 657.09,-222.41 673.8,-224.45"/>
<polygon fill="#63b8ff" stroke="#63b8ff" points="673.26,-227.91 683.62,-225.65 674.11,-220.96 673.26,-227.91"/>
</g>
<!-- Node50 -->
<g id="node36" class="node">
<title>Node50</title>
<g id="a_node36"><a xlink:href="TransmitterCode_2src_2main_8cpp.html#a793b7bcd77531c95fe72ed4356d421c8" target="_top" xlink:title=" ">
<polygon fill="white" stroke="#666666" points="787.5,-204 677.5,-204 677.5,-185 787.5,-185 787.5,-204"/>
<text text-anchor="middle" x="732.5" y="-192" font-family="Helvetica,sans-Serif" font-size="10.00">StartInactvityTimeout</text>
</a>
</g>
</g>
<!-- Node61&#45;&gt;Node50 -->
<g id="edge42" class="edge">
<title>Node61&#45;&gt;Node50</title>
<path fill="none" stroke="#63b8ff" d="M623.08,-207.05C636.55,-205.49 651.48,-203.76 665.85,-202.1"/>
<polygon fill="#63b8ff" stroke="#63b8ff" points="666.18,-205.58 675.72,-200.96 665.38,-198.63 666.18,-205.58"/>
</g>
<!-- Node111 -->
<g id="node38" class="node">
<title>Node111</title>
<g id="a_node38"><a xlink:href="TransmitterCode_2src_2main_8cpp.html#acf49567c45af927603ae83a7f46e6534" target="_top" xlink:title=" ">
<polygon fill="white" stroke="#666666" points="612,-803 538,-803 538,-784 612,-784 612,-803"/>
<text text-anchor="middle" x="575" y="-791" font-family="Helvetica,sans-Serif" font-size="10.00">DisplayCurve</text>
</a>
</g>
</g>
<!-- Node110&#45;&gt;Node111 -->
<g id="edge44" class="edge">
<title>Node110&#45;&gt;Node111</title>
<path fill="none" stroke="#63b8ff" d="M430.61,-633.13C455.16,-660.58 525.79,-739.59 557.84,-775.43"/>
<polygon fill="#63b8ff" stroke="#63b8ff" points="554.82,-777.3 564.1,-782.43 560.04,-772.64 554.82,-777.3"/>
</g>
<!-- Node117 -->
<g id="node44" class="node">
<title>Node117</title>
<g id="a_node44"><a xlink:href="TransmitterCode_2src_2main_8cpp.html#acbef1d41e1bd646b60a6e8afd9c66880" target="_top" xlink:title=" ">
<polygon fill="white" stroke="#666666" points="761.5,-579 703.5,-579 703.5,-560 761.5,-560 761.5,-579"/>
<text text-anchor="middle" x="732.5" y="-567" font-family="Helvetica,sans-Serif" font-size="10.00">DrawLine</text>
</a>
</g>
</g>
<!-- Node110&#45;&gt;Node117 -->
<g id="edge69" class="edge">
<title>Node110&#45;&gt;Node117</title>
<path fill="none" stroke="#63b8ff" d="M463.17,-631.72C507.19,-638.57 578.18,-644 634,-621.5 654.41,-613.27 650.91,-598.45 670,-587.5 676.81,-583.59 684.53,-580.48 692.16,-578"/>
<polygon fill="#63b8ff" stroke="#63b8ff" points="693.04,-581.39 701.67,-575.25 691.09,-574.67 693.04,-581.39"/>
</g>
<!-- Node39 -->
<g id="node47" class="node">
<title>Node39</title>
<g id="a_node47"><a xlink:href="TransmitterCode_2src_2main_8cpp.html#a1e20efc1e419b252b50d36f9924503fc" target="_top" xlink:title=" ">
<polygon fill="white" stroke="#666666" points="912.5,-933 848.5,-933 848.5,-914 912.5,-914 912.5,-933"/>
<text text-anchor="middle" x="880.5" y="-921" font-family="Helvetica,sans-Serif" font-size="10.00">SendValue</text>
</a>
</g>
</g>
<!-- Node110&#45;&gt;Node39 -->
<g id="edge72" class="edge">
<title>Node110&#45;&gt;Node39</title>
<path fill="none" stroke="#63b8ff" d="M425.07,-633.45C434.6,-663.17 466.11,-752.86 516,-811.5 570.67,-875.76 589.77,-896.39 670,-922.5 725.44,-940.54 793.6,-936.38 836.8,-930.75"/>
<polygon fill="#63b8ff" stroke="#63b8ff" points="837.11,-934.24 846.53,-929.39 836.14,-927.31 837.11,-934.24"/>
</g>
<!-- Node121 -->
<g id="node49" class="node">
<title>Node121</title>
<g id="a_node49"><a xlink:href="TransmitterCode_2src_2main_8cpp.html#af1030157034999448f5ca611d6209385" target="_top" xlink:title=" ">
<polygon fill="white" stroke="#666666" points="634,-613 516,-613 516,-594 634,-594 634,-613"/>
<text text-anchor="middle" x="575" y="-601" font-family="Helvetica,sans-Serif" font-size="10.00">GetStickInputInputOnly</text>
</a>
</g>
</g>
<!-- Node110&#45;&gt;Node121 -->
<g id="edge70" class="edge">
<title>Node110&#45;&gt;Node121</title>
<path fill="none" stroke="#63b8ff" d="M463.13,-618.09C475.9,-616.41 490.34,-614.51 504.48,-612.65"/>
<polygon fill="#63b8ff" stroke="#63b8ff" points="504.76,-616.14 514.21,-611.37 503.84,-609.2 504.76,-616.14"/>
</g>
<!-- Node122 -->
<g id="node50" class="node">
<title>Node122</title>
<g id="a_node50"><a xlink:href="TransmitterCode_2src_2main_8cpp.html#a5cdbe11d62e0de7610ba323e60b97d33" target="_top" xlink:title=" ">
<polygon fill="white" stroke="#666666" points="613.5,-576 536.5,-576 536.5,-557 613.5,-557 613.5,-576"/>
<text text-anchor="middle" x="575" y="-564" font-family="Helvetica,sans-Serif" font-size="10.00">IntoLowerRes</text>
</a>
</g>
</g>
<!-- Node110&#45;&gt;Node122 -->
<g id="edge71" class="edge">
<title>Node110&#45;&gt;Node122</title>
<path fill="none" stroke="#63b8ff" d="M444.18,-613.61C463.09,-605.36 491.08,-593.52 516,-584.5 520.35,-582.93 524.91,-581.36 529.49,-579.85"/>
<polygon fill="#63b8ff" stroke="#63b8ff" points="530.2,-583.3 538.65,-576.91 528.06,-576.64 530.2,-583.3"/>
</g>
<!-- Node111&#45;&gt;Node2 -->
<g id="edge61" class="edge">
<title>Node111&#45;&gt;Node2</title>
<path fill="none" stroke="#63b8ff" d="M537.87,-798.29C476.29,-804.86 348.34,-811.52 252,-769.5 226.04,-758.18 203.26,-734.21 189.45,-717.26"/>
<polygon fill="#63b8ff" stroke="#63b8ff" points="192.25,-715.16 183.34,-709.43 186.74,-719.47 192.25,-715.16"/>
</g>
<!-- Node112 -->
<g id="node39" class="node">
<title>Node112</title>
<g id="a_node39"><a xlink:href="TransmitterCode_2src_2main_8cpp.html#a1870ad872e2424cbf8222747d3a43617" target="_top" xlink:title=" ">
<polygon fill="white" stroke="#666666" points="784,-838 681,-838 681,-819 784,-819 784,-838"/>
<text text-anchor="middle" x="732.5" y="-826" font-family="Helvetica,sans-Serif" font-size="10.00">CheckInvisiblePoint</text>
</a>
</g>
</g>
<!-- Node111&#45;&gt;Node112 -->
<g id="edge45" class="edge">
<title>Node111&#45;&gt;Node112</title>
<path fill="none" stroke="#63b8ff" d="M612.46,-801.71C631.4,-805.97 654.96,-811.27 676.11,-816.03"/>
<polygon fill="#63b8ff" stroke="#63b8ff" points="675.23,-819.42 685.76,-818.2 676.77,-812.59 675.23,-819.42"/>
</g>
<!-- Node113 -->
<g id="node40" class="node">
<title>Node113</title>
<g id="a_node40"><a xlink:href="TransmitterCode_2src_2main_8cpp.html#a5aeea47b9d855ae9911bae1115d02de7" target="_top" xlink:title=" ">
<polygon fill="white" stroke="#666666" points="760.5,-690 704.5,-690 704.5,-671 760.5,-671 760.5,-690"/>
<text text-anchor="middle" x="732.5" y="-678" font-family="Helvetica,sans-Serif" font-size="10.00">ClearBox</text>
</a>
</g>
</g>
<!-- Node111&#45;&gt;Node113 -->
<g id="edge46" class="edge">
<title>Node111&#45;&gt;Node113</title>
<path fill="none" stroke="#63b8ff" d="M611.17,-783.59C619.34,-780.1 627.52,-775.5 634,-769.5 659.96,-745.46 642.78,-721.11 670,-698.5 676.59,-693.03 684.78,-689.22 693.01,-686.57"/>
<polygon fill="#63b8ff" stroke="#63b8ff" points="693.88,-689.96 702.65,-684.01 692.09,-683.19 693.88,-689.96"/>
</g>
<!-- Node114 -->
<g id="node41" class="node">
<title>Node114</title>
<g id="a_node41"><a xlink:href="TransmitterCode_2src_2main_8cpp.html#a68b36025c7478c0710565b4fb059d9bc" target="_top" xlink:title=" ">
<polygon fill="white" stroke="#666666" points="774.5,-801 690.5,-801 690.5,-782 774.5,-782 774.5,-801"/>
<text text-anchor="middle" x="732.5" y="-789" font-family="Helvetica,sans-Serif" font-size="10.00">DegsToPercent</text>
</a>
</g>
</g>
<!-- Node111&#45;&gt;Node114 -->
<g id="edge49" class="edge">
<title>Node111&#45;&gt;Node114</title>
<path fill="none" stroke="#63b8ff" d="M612.46,-793.03C632.17,-792.78 656.86,-792.46 678.64,-792.18"/>
<polygon fill="#63b8ff" stroke="#63b8ff" points="678.59,-795.68 688.54,-792.05 678.5,-788.68 678.59,-795.68"/>
</g>
<!-- Node115 -->
<g id="node42" class="node">
<title>Node115</title>
<g id="a_node42"><a xlink:href="TransmitterCode_2src_2main_8cpp.html#a060d8c4636339f7e6760cf835307530e" target="_top" xlink:title=" ">
<polygon fill="white" stroke="#666666" points="760.5,-653 704.5,-653 704.5,-634 760.5,-634 760.5,-653"/>
<text text-anchor="middle" x="732.5" y="-641" font-family="Helvetica,sans-Serif" font-size="10.00">DrawBox</text>
</a>
</g>
</g>
<!-- Node111&#45;&gt;Node115 -->
<g id="edge50" class="edge">
<title>Node111&#45;&gt;Node115</title>
<path fill="none" stroke="#63b8ff" d="M586.79,-783.74C599.22,-772.12 619.74,-751.75 634,-731.5 654.14,-702.9 643.02,-683.78 670,-661.5 676.61,-656.05 684.8,-652.24 693.03,-649.59"/>
<polygon fill="#63b8ff" stroke="#63b8ff" points="693.9,-652.98 702.67,-647.04 692.11,-646.22 693.9,-652.98"/>
</g>
<!-- Node116 -->
<g id="node43" class="node">
<title>Node116</title>
<g id="a_node43"><a xlink:href="TransmitterCode_2src_2main_8cpp.html#ad0feb21fbea69455d1d206f142b563ac" target="_top" xlink:title=" ">
<polygon fill="white" stroke="#666666" points="759.5,-616 705.5,-616 705.5,-597 759.5,-597 759.5,-616"/>
<text text-anchor="middle" x="732.5" y="-604" font-family="Helvetica,sans-Serif" font-size="10.00">DrawDot</text>
</a>
</g>
</g>
<!-- Node111&#45;&gt;Node116 -->
<g id="edge53" class="edge">
<title>Node111&#45;&gt;Node116</title>
<path fill="none" stroke="#63b8ff" d="M581.91,-783.65C592.57,-765.81 615.61,-726.91 634,-693.5 650.68,-663.2 643.26,-646.45 670,-624.5 676.88,-618.86 685.46,-614.98 694.01,-612.32"/>
<polygon fill="#63b8ff" stroke="#63b8ff" points="694.8,-615.73 703.62,-609.86 693.06,-608.95 694.8,-615.73"/>
</g>
<!-- Node111&#45;&gt;Node117 -->
<g id="edge56" class="edge">
<title>Node111&#45;&gt;Node117</title>
<path fill="none" stroke="#63b8ff" d="M580.21,-783.67C597.41,-743.64 661.77,-594.63 670,-587.5 676.3,-582.04 684.18,-578.24 692.18,-575.59"/>
<polygon fill="#63b8ff" stroke="#63b8ff" points="692.83,-579.04 701.56,-573.03 690.99,-572.28 692.83,-579.04"/>
</g>
<!-- Node118 -->
<g id="node45" class="node">
<title>Node118</title>
<g id="a_node45"><a xlink:href="TransmitterCode_2src_2main_8cpp.html#a4abc073f79b7ab2a2b4429990420cbf0" target="_top" xlink:title="Uses servo degrees to position dots.">
<polygon fill="white" stroke="#666666" points="776.5,-764 688.5,-764 688.5,-745 776.5,-745 776.5,-764"/>
<text text-anchor="middle" x="732.5" y="-752" font-family="Helvetica,sans-Serif" font-size="10.00">GetDotPositions</text>
</a>
</g>
</g>
<!-- Node111&#45;&gt;Node118 -->
<g id="edge59" class="edge">
<title>Node111&#45;&gt;Node118</title>
<path fill="none" stroke="#63b8ff" d="M612.46,-784.36C632.81,-779.25 658.48,-772.81 680.76,-767.23"/>
<polygon fill="#63b8ff" stroke="#63b8ff" points="681.41,-770.67 690.26,-764.84 679.71,-763.88 681.41,-770.67"/>
</g>
<!-- Node119 -->
<g id="node46" class="node">
<title>Node119</title>
<g id="a_node46"><a xlink:href="TransmitterCode_2src_2main_8cpp.html#a927484b01116cd14fd1ade706bc06d51" target="_top" xlink:title=" ">
<polygon fill="white" stroke="#666666" points="784.5,-727 680.5,-727 680.5,-708 784.5,-708 784.5,-727"/>
<text text-anchor="middle" x="732.5" y="-715" font-family="Helvetica,sans-Serif" font-size="10.00">MapWithExponential</text>
</a>
</g>
</g>
<!-- Node111&#45;&gt;Node119 -->
<g id="edge60" class="edge">
<title>Node111&#45;&gt;Node119</title>
<path fill="none" stroke="#63b8ff" d="M605.95,-783.52C615.3,-779.78 625.4,-775.07 634,-769.5 652.47,-757.54 650.91,-746.45 670,-735.5 672.45,-734.1 675.02,-732.79 677.65,-731.58"/>
<polygon fill="#63b8ff" stroke="#63b8ff" points="678.71,-734.93 686.68,-727.95 676.1,-728.44 678.71,-734.93"/>
</g>
<!-- Node111&#45;&gt;Node39 -->
<g id="edge62" class="edge">
<title>Node111&#45;&gt;Node39</title>
<path fill="none" stroke="#63b8ff" d="M591.12,-803.35C609.28,-814.87 640.94,-833.94 670,-846.5 723.42,-869.59 740.59,-864.86 795,-885.5 813.21,-892.41 833.09,-901.28 848.99,-908.71"/>
<polygon fill="#63b8ff" stroke="#63b8ff" points="847.39,-911.83 857.93,-912.94 850.39,-905.5 847.39,-911.83"/>
</g>
<!-- Node120 -->
<g id="node48" class="node">
<title>Node120</title>
<g id="a_node48"><a xlink:href="TransmitterCode_2src_2main_8cpp.html#a3d20af2f1fee81198a0cef2d4500083a" target="_top" xlink:title=" ">
<polygon fill="white" stroke="#666666" points="795,-914 670,-914 670,-895 795,-895 795,-914"/>
<text text-anchor="middle" x="732.5" y="-902" font-family="Helvetica,sans-Serif" font-size="10.00">updateInterpolationTypes</text>
</a>
</g>
</g>
<!-- Node111&#45;&gt;Node120 -->
<g id="edge66" class="edge">
<title>Node111&#45;&gt;Node120</title>
<path fill="none" stroke="#63b8ff" d="M584.38,-803.4C599.76,-821.02 634.19,-858.08 670,-880.5 675.93,-884.21 682.53,-887.52 689.14,-890.4"/>
<polygon fill="#63b8ff" stroke="#63b8ff" points="687.45,-893.5 698.04,-894.01 690.09,-887.01 687.45,-893.5"/>
</g>
<!-- Node113&#45;&gt;Node2 -->
<g id="edge47" class="edge">
<title>Node113&#45;&gt;Node2</title>
<path fill="none" stroke="#63b8ff" d="M704.1,-685.68C693.05,-688.47 680.47,-692.6 670,-698.5 651.09,-709.16 654.23,-723.63 634,-731.5 475.77,-793.05 418.27,-765.83 252,-731.5 234.96,-727.98 217.03,-720.48 202.82,-713.52"/>
<polygon fill="#63b8ff" stroke="#63b8ff" points="204.6,-710.49 194.1,-709.06 201.42,-716.73 204.6,-710.49"/>
</g>
<!-- Node113&#45;&gt;Node25 -->
<g id="edge48" class="edge">
<title>Node113&#45;&gt;Node25</title>
<path fill="none" stroke="#63b8ff" d="M760.74,-677.21C798.87,-672.34 870.22,-662.29 930,-648.5 947.49,-644.47 966.84,-638.63 981.71,-633.85"/>
<polygon fill="#63b8ff" stroke="#63b8ff" points="982.7,-637.21 991.11,-630.77 980.52,-630.56 982.7,-637.21"/>
</g>
<!-- Node115&#45;&gt;Node2 -->
<g id="edge51" class="edge">
<title>Node115&#45;&gt;Node2</title>
<path fill="none" stroke="#63b8ff" d="M704.14,-648.76C693.1,-651.57 680.51,-655.68 670,-661.5 651.27,-671.87 653.97,-685.78 634,-693.5 495.25,-747.12 314.77,-725.13 227.4,-709.34"/>
<polygon fill="#63b8ff" stroke="#63b8ff" points="228.17,-705.92 217.7,-707.53 226.89,-712.8 228.17,-705.92"/>
</g>
<!-- Node115&#45;&gt;Node25 -->
<g id="edge52" class="edge">
<title>Node115&#45;&gt;Node25</title>
<path fill="none" stroke="#63b8ff" d="M760.93,-641.69C814.01,-638.19 930.09,-630.54 981.33,-627.16"/>
<polygon fill="#63b8ff" stroke="#63b8ff" points="981.36,-630.67 991.11,-626.52 980.9,-623.68 981.36,-630.67"/>
</g>
<!-- Node116&#45;&gt;Node2 -->
<g id="edge54" class="edge">
<title>Node116&#45;&gt;Node2</title>
<path fill="none" stroke="#63b8ff" d="M705.02,-612.86C694,-615.87 681.19,-619.82 670,-624.5 653.11,-631.56 651.42,-638.88 634,-644.5 492.16,-690.27 314.46,-698.04 227.84,-698.86"/>
<polygon fill="#63b8ff" stroke="#63b8ff" points="227.97,-695.36 218,-698.93 228.02,-702.36 227.97,-695.36"/>
</g>
<!-- Node116&#45;&gt;Node25 -->
<g id="edge55" class="edge">
<title>Node116&#45;&gt;Node25</title>
<path fill="none" stroke="#63b8ff" d="M759.68,-608.32C812.2,-611.98 929.81,-620.16 981.41,-623.75"/>
<polygon fill="#63b8ff" stroke="#63b8ff" points="981.03,-627.24 991.25,-624.44 981.52,-620.25 981.03,-627.24"/>
</g>
<!-- Node117&#45;&gt;Node2 -->
<g id="edge57" class="edge">
<title>Node117&#45;&gt;Node2</title>
<path fill="none" stroke="#63b8ff" d="M703.2,-561.36C683.89,-556.25 657.63,-550.13 634,-547.5 581.88,-541.69 567.94,-540.26 516,-547.5 395.19,-564.33 357.28,-560.89 252,-622.5 226.64,-637.34 203.63,-662.55 189.61,-679.83"/>
<polygon fill="#63b8ff" stroke="#63b8ff" points="187.15,-677.29 183.73,-687.32 192.66,-681.62 187.15,-677.29"/>
</g>
<!-- Node117&#45;&gt;Node25 -->
<g id="edge58" class="edge">
<title>Node117&#45;&gt;Node25</title>
<path fill="none" stroke="#63b8ff" d="M761.94,-575.33C815.56,-586.33 930.76,-609.96 981.56,-620.38"/>
<polygon fill="#63b8ff" stroke="#63b8ff" points="980.76,-623.79 991.26,-622.37 982.17,-616.94 980.76,-623.79"/>
</g>
<!-- Node39&#45;&gt;Node2 -->
<g id="edge64" class="edge">
<title>Node39&#45;&gt;Node2</title>
<path fill="none" stroke="#63b8ff" d="M848.4,-933.3C793.84,-949.6 677.06,-980.5 576,-980.5 420,-980.5 420,-980.5 420,-980.5 281.51,-980.5 203.84,-783.95 181.97,-719.03"/>
<polygon fill="#63b8ff" stroke="#63b8ff" points="185.34,-718.06 178.91,-709.65 178.68,-720.24 185.34,-718.06"/>
</g>
<!-- Node39&#45;&gt;Node3 -->
<g id="edge63" class="edge">
<title>Node39&#45;&gt;Node3</title>
<path fill="none" stroke="#63b8ff" d="M897.84,-933.44C918.9,-946.24 955.74,-968.64 980.62,-983.77"/>
<polygon fill="#63b8ff" stroke="#63b8ff" points="978.5,-986.57 988.86,-988.78 982.13,-980.59 978.5,-986.57"/>
</g>
<!-- Node39&#45;&gt;Node25 -->
<g id="edge65" class="edge">
<title>Node39&#45;&gt;Node25</title>
<path fill="none" stroke="#63b8ff" d="M885.66,-913.59C903.45,-871.16 973.39,-704.44 997.93,-645.93"/>
<polygon fill="#63b8ff" stroke="#63b8ff" points="1001.1,-647.42 1001.74,-636.85 994.64,-644.72 1001.1,-647.42"/>
</g>
<!-- Node120&#45;&gt;Node2 -->
<g id="edge67" class="edge">
<title>Node120&#45;&gt;Node2</title>
<path fill="none" stroke="#63b8ff" d="M669.78,-903.35C573.39,-898.88 384.45,-879.15 252,-795.5 221.59,-776.3 198.2,-740.64 185.68,-718.32"/>
<polygon fill="#63b8ff" stroke="#63b8ff" points="188.82,-716.77 181,-709.62 182.66,-720.09 188.82,-716.77"/>
</g>
<!-- Node120&#45;&gt;Node39 -->
<g id="edge68" class="edge">
<title>Node120&#45;&gt;Node39</title>
<path fill="none" stroke="#63b8ff" d="M795.42,-912.56C809.34,-914.37 823.82,-916.25 836.75,-917.94"/>
<polygon fill="#63b8ff" stroke="#63b8ff" points="836.27,-921.4 846.64,-919.22 837.17,-914.46 836.27,-921.4"/>
</g>
</g>
</svg>
