<?xml version="1.0" encoding="UTF-8" standalone="no"?>
<!DOCTYPE svg PUBLIC "-//W3C//DTD SVG 1.1//EN"
 "http://www.w3.org/Graphics/SVG/1.1/DTD/svg11.dtd">
<!-- Generated by graphviz version 3.0.0 (20220413.0242)
 -->
<!-- Title: TryToConnectNow Pages: 1 -->
<svg width="640pt" height="47pt"
 viewBox="0.00 0.00 640.00 47.00" xmlns="http://www.w3.org/2000/svg" xmlns:xlink="http://www.w3.org/1999/xlink">
<g id="graph0" class="graph" transform="scale(1 1) rotate(0) translate(4 43)">
<title>TryToConnectNow</title>
<polygon fill="white" stroke="transparent" points="-4,4 -4,-43 636,-43 636,4 -4,4"/>
<!-- Node1 -->
<g id="node1" class="node">
<title>Node1</title>
<g id="a_node1"><a xlink:title=" ">
<polygon fill="#bfbfbf" stroke="black" points="534,-0.5 534,-19.5 632,-19.5 632,-0.5 534,-0.5"/>
<text text-anchor="middle" x="583" y="-7.5" font-family="Helvetica,sans-Serif" font-size="10.00">TryToConnectNow</text>
</a>
</g>
</g>
<!-- Node2 -->
<g id="node2" class="node">
<title>Node2</title>
<g id="a_node2"><a xlink:href="radio_8h.html#a62f1498f67d7e438905ae486bc27044f" target="_top" xlink:title=" ">
<polygon fill="white" stroke="black" points="436,-19.5 436,-38.5 498,-38.5 498,-19.5 436,-19.5"/>
<text text-anchor="middle" x="467" y="-26.5" font-family="Helvetica,sans-Serif" font-size="10.00">ProdRadio</text>
</a>
</g>
</g>
<!-- Node1&#45;&gt;Node2 -->
<g id="edge1" class="edge">
<title>Node1&#45;&gt;Node2</title>
<path fill="none" stroke="midnightblue" d="M523.92,-19.68C514.98,-21.17 506.08,-22.65 498.09,-23.99"/>
<polygon fill="midnightblue" stroke="midnightblue" points="524.7,-23.1 533.98,-18 523.54,-16.19 524.7,-23.1"/>
</g>
<!-- Node4 -->
<g id="node4" class="node">
<title>Node4</title>
<g id="a_node4"><a xlink:href="radio_8h.html#a692b8b0727e0db358f99c7bf4e8235c0" target="_top" xlink:title=" ">
<polygon fill="white" stroke="black" points="179,-0.5 179,-19.5 242,-19.5 242,-0.5 179,-0.5"/>
<text text-anchor="middle" x="210.5" y="-7.5" font-family="Helvetica,sans-Serif" font-size="10.00">Reconnect</text>
</a>
</g>
</g>
<!-- Node1&#45;&gt;Node4 -->
<g id="edge6" class="edge">
<title>Node1&#45;&gt;Node4</title>
<path fill="none" stroke="midnightblue" d="M523.58,-10C443.88,-10 303.91,-10 242.2,-10"/>
<polygon fill="midnightblue" stroke="midnightblue" points="523.94,-13.5 533.94,-10 523.94,-6.5 523.94,-13.5"/>
</g>
<!-- Node3 -->
<g id="node3" class="node">
<title>Node3</title>
<g id="a_node3"><a xlink:href="radio_8h.html#adfacfc7d075937cec51b7bcd08d323ca" target="_top" xlink:title=" ">
<polygon fill="white" stroke="black" points="278,-19.5 278,-38.5 400,-38.5 400,-19.5 278,-19.5"/>
<text text-anchor="middle" x="339" y="-26.5" font-family="Helvetica,sans-Serif" font-size="10.00">TryTheOtherTransceiver</text>
</a>
</g>
</g>
<!-- Node2&#45;&gt;Node3 -->
<g id="edge2" class="edge">
<title>Node2&#45;&gt;Node3</title>
<path fill="none" stroke="midnightblue" d="M425.8,-29C417.61,-29 408.81,-29 400.09,-29"/>
<polygon fill="midnightblue" stroke="midnightblue" points="425.82,-32.5 435.82,-29 425.82,-25.5 425.82,-32.5"/>
</g>
<!-- Node3&#45;&gt;Node4 -->
<g id="edge3" class="edge">
<title>Node3&#45;&gt;Node4</title>
<path fill="none" stroke="midnightblue" d="M267.59,-18.42C258.66,-17.08 249.93,-15.77 242.11,-14.6"/>
<polygon fill="midnightblue" stroke="midnightblue" points="267.3,-21.92 277.71,-19.95 268.34,-15 267.3,-21.92"/>
</g>
<!-- Node5 -->
<g id="node5" class="node">
<title>Node5</title>
<g id="a_node5"><a xlink:href="ReceiverCode_2src_2main_8cpp.html#a06807a4f185694d37f774702ba74db0a" target="_top" xlink:title=" ">
<polygon fill="white" stroke="black" points="71,-0.5 71,-19.5 143,-19.5 143,-0.5 71,-0.5"/>
<text text-anchor="middle" x="107" y="-7.5" font-family="Helvetica,sans-Serif" font-size="10.00">ReceiveData</text>
</a>
</g>
</g>
<!-- Node4&#45;&gt;Node5 -->
<g id="edge4" class="edge">
<title>Node4&#45;&gt;Node5</title>
<path fill="none" stroke="midnightblue" d="M168.73,-10C160.29,-10 151.47,-10 143.25,-10"/>
<polygon fill="midnightblue" stroke="midnightblue" points="168.77,-13.5 178.77,-10 168.77,-6.5 168.77,-13.5"/>
</g>
<!-- Node6 -->
<g id="node6" class="node">
<title>Node6</title>
<g id="a_node6"><a xlink:href="ReceiverCode_2src_2main_8cpp.html#afe461d27b9c48d5921c00d521181f12f" target="_top" xlink:title=" ">
<polygon fill="white" stroke="black" points="0,-0.5 0,-19.5 35,-19.5 35,-0.5 0,-0.5"/>
<text text-anchor="middle" x="17.5" y="-7.5" font-family="Helvetica,sans-Serif" font-size="10.00">loop</text>
</a>
</g>
</g>
<!-- Node5&#45;&gt;Node6 -->
<g id="edge5" class="edge">
<title>Node5&#45;&gt;Node6</title>
<path fill="none" stroke="midnightblue" d="M60.64,-10C51.51,-10 42.46,-10 35.11,-10"/>
<polygon fill="midnightblue" stroke="midnightblue" points="60.91,-13.5 70.91,-10 60.91,-6.5 60.91,-13.5"/>
</g>
</g>
</svg>
