<?xml version="1.0" encoding="UTF-8" standalone="no"?>
<!DOCTYPE svg PUBLIC "-//W3C//DTD SVG 1.1//EN"
 "http://www.w3.org/Graphics/SVG/1.1/DTD/svg11.dtd">
<!-- Generated by graphviz version 7.0.5 (20221223.1930)
 -->
<!-- Title: LoadModelSelector Pages: 1 -->
<svg width="1370pt" height="872pt"
 viewBox="0.00 0.00 1370.00 871.67" xmlns="http://www.w3.org/2000/svg" xmlns:xlink="http://www.w3.org/1999/xlink">
<g id="graph0" class="graph" transform="scale(1 1) rotate(0) translate(4 867.67)">
<title>LoadModelSelector</title>
<!-- Node1 -->
<g id="node1" class="node">
<title>Node1</title>
<g id="a_node1"><a xlink:title=" ">
<polygon fill="#999999" stroke="#666666" points="101,-421.75 0,-421.75 0,-402.75 101,-402.75 101,-421.75"/>
<text text-anchor="middle" x="50.5" y="-409.75" font-family="Helvetica,sans-Serif" font-size="10.00">LoadModelSelector</text>
</a>
</g>
</g>
<!-- Node2 -->
<g id="node2" class="node">
<title>Node2</title>
<g id="a_node2"><a xlink:href="TransmitterCode_2src_2main_8cpp.html#ac7a5ec6cf2ed7b50bd291f821e886302" target="_top" xlink:title=" ">
<polygon fill="white" stroke="#666666" points="220,-665.75 137,-665.75 137,-646.75 220,-646.75 220,-665.75"/>
<text text-anchor="middle" x="178.5" y="-653.75" font-family="Helvetica,sans-Serif" font-size="10.00">ReadOneModel</text>
</a>
</g>
</g>
<!-- Node1&#45;&gt;Node2 -->
<g id="edge1" class="edge">
<title>Node1&#45;&gt;Node2</title>
<path fill="none" stroke="#63b8ff" d="M56.6,-422.11C75.43,-458.59 141.37,-586.27 167.1,-636.11"/>
<polygon fill="#63b8ff" stroke="#63b8ff" points="163.95,-637.63 171.65,-644.91 170.17,-634.42 163.95,-637.63"/>
</g>
<!-- Node16 -->
<g id="node16" class="node">
<title>Node16</title>
<g id="a_node16"><a xlink:href="TransmitterCode_2src_2main_8cpp.html#afe513398f72d5e48f691830a1ef6eb42" target="_top" xlink:title=" ">
<polygon fill="white" stroke="#666666" points="486,-497.75 428,-497.75 428,-478.75 486,-478.75 486,-497.75"/>
<text text-anchor="middle" x="457" y="-485.75" font-family="Helvetica,sans-Serif" font-size="10.00">SendText</text>
</a>
</g>
</g>
<!-- Node1&#45;&gt;Node16 -->
<g id="edge73" class="edge">
<title>Node1&#45;&gt;Node16</title>
<path fill="none" stroke="#63b8ff" d="M81.62,-422.21C121.18,-434.89 193.02,-456.56 256,-468.25 311.12,-478.47 375.81,-483.74 416.37,-486.25"/>
<polygon fill="#63b8ff" stroke="#63b8ff" points="415.94,-489.73 426.13,-486.82 416.35,-482.74 415.94,-489.73"/>
</g>
<!-- Node31 -->
<g id="node27" class="node">
<title>Node31</title>
<g id="a_node27"><a xlink:href="TransmitterCode_2src_2main_8cpp.html#a590a9174319918d7e3d7baca323fcf26" target="_top" xlink:title=" ">
<polygon fill="white" stroke="#666666" points="1350.5,-123.75 1321.5,-123.75 1321.5,-104.75 1350.5,-104.75 1350.5,-123.75"/>
<text text-anchor="middle" x="1336" y="-111.75" font-family="Helvetica,sans-Serif" font-size="10.00">Str</text>
</a>
</g>
</g>
<!-- Node1&#45;&gt;Node31 -->
<g id="edge75" class="edge">
<title>Node1&#45;&gt;Node31</title>
<path fill="none" stroke="#63b8ff" d="M52.78,-402.47C61.55,-340.08 118.38,-0.25 316,-0.25 316,-0.25 316,-0.25 1077,-0.25 1166.52,-0.25 1197.17,3.7 1274,-42.25 1295.34,-55.01 1312.81,-77.94 1323.51,-94.5"/>
<polygon fill="#63b8ff" stroke="#63b8ff" points="1320.52,-96.32 1328.74,-103 1326.48,-92.65 1320.52,-96.32"/>
</g>
<!-- Node63 -->
<g id="node49" class="node">
<title>Node63</title>
<g id="a_node49"><a xlink:href="TransmitterCode_2src_2main_8cpp.html#a1e20efc1e419b252b50d36f9924503fc" target="_top" xlink:title=" ">
<polygon fill="white" stroke="#666666" points="489,-384.75 425,-384.75 425,-365.75 489,-365.75 489,-384.75"/>
<text text-anchor="middle" x="457" y="-372.75" font-family="Helvetica,sans-Serif" font-size="10.00">SendValue</text>
</a>
</g>
</g>
<!-- Node1&#45;&gt;Node63 -->
<g id="edge74" class="edge">
<title>Node1&#45;&gt;Node63</title>
<path fill="none" stroke="#63b8ff" d="M101.1,-407.71C181.2,-400.38 337.67,-386.07 413.19,-379.16"/>
<polygon fill="#63b8ff" stroke="#63b8ff" points="413.45,-382.65 423.09,-378.26 412.81,-375.68 413.45,-382.65"/>
</g>
<!-- Node103 -->
<g id="node50" class="node">
<title>Node103</title>
<g id="a_node50"><a xlink:href="TransmitterCode_2src_2main_8cpp.html#a2124579df12bdc81995d8d8dc4f47734" target="_top" xlink:title=" ">
<polygon fill="white" stroke="#666666" points="498,-421.75 416,-421.75 416,-402.75 498,-402.75 498,-421.75"/>
<text text-anchor="middle" x="457" y="-409.75" font-family="Helvetica,sans-Serif" font-size="10.00">SendOtherText</text>
</a>
</g>
</g>
<!-- Node1&#45;&gt;Node103 -->
<g id="edge70" class="edge">
<title>Node1&#45;&gt;Node103</title>
<path fill="none" stroke="#63b8ff" d="M101.1,-412.25C178.15,-412.25 325.88,-412.25 404.24,-412.25"/>
<polygon fill="#63b8ff" stroke="#63b8ff" points="404.22,-415.75 414.22,-412.25 404.22,-408.75 404.22,-415.75"/>
</g>
<!-- Node3 -->
<g id="node3" class="node">
<title>Node3</title>
<g id="a_node3"><a xlink:href="TransmitterCode_2src_2main_8cpp.html#a38063272143a3da8735678470d210d29" target="_top" xlink:title=" ">
<polygon fill="white" stroke="#666666" points="366,-646.75 268,-646.75 268,-627.75 366,-627.75 366,-646.75"/>
<text text-anchor="middle" x="317" y="-634.75" font-family="Helvetica,sans-Serif" font-size="10.00">CheckBanksInUse</text>
</a>
</g>
</g>
<!-- Node2&#45;&gt;Node3 -->
<g id="edge2" class="edge">
<title>Node2&#45;&gt;Node3</title>
<path fill="none" stroke="#63b8ff" d="M220.45,-650.55C231.88,-648.96 244.52,-647.2 256.77,-645.49"/>
<polygon fill="#63b8ff" stroke="#63b8ff" points="256.95,-649 266.37,-644.16 255.98,-642.07 256.95,-649"/>
</g>
<!-- Node4 -->
<g id="node4" class="node">
<title>Node4</title>
<g id="a_node4"><a xlink:href="TransmitterCode_2src_2main_8cpp.html#a5467d21eeae42d1bfdb79914ef52d0ed" target="_top" xlink:title=" ">
<polygon fill="white" stroke="#666666" points="376.5,-609.75 257.5,-609.75 257.5,-590.75 376.5,-590.75 376.5,-609.75"/>
<text text-anchor="middle" x="317" y="-597.75" font-family="Helvetica,sans-Serif" font-size="10.00">CheckDualRatesValues</text>
</a>
</g>
</g>
<!-- Node2&#45;&gt;Node4 -->
<g id="edge3" class="edge">
<title>Node2&#45;&gt;Node4</title>
<path fill="none" stroke="#63b8ff" d="M198.03,-646.36C213.31,-638.42 235.71,-627.32 256,-619.25 260.88,-617.3 266.05,-615.42 271.22,-613.64"/>
<polygon fill="#63b8ff" stroke="#63b8ff" points="271.92,-617.1 280.31,-610.63 269.72,-610.45 271.92,-617.1"/>
</g>
<!-- Node5 -->
<g id="node5" class="node">
<title>Node5</title>
<g id="a_node5"><a xlink:href="TransmitterCode_2src_2main_8cpp.html#a6bb930920ba3a8d45a737dde782ef65c" target="_top" xlink:title=" ">
<polygon fill="white" stroke="#666666" points="368,-572.75 266,-572.75 266,-553.75 368,-553.75 368,-572.75"/>
<text text-anchor="middle" x="317" y="-560.75" font-family="Helvetica,sans-Serif" font-size="10.00">CheckMacrosBuffer</text>
</a>
</g>
</g>
<!-- Node2&#45;&gt;Node5 -->
<g id="edge4" class="edge">
<title>Node2&#45;&gt;Node5</title>
<path fill="none" stroke="#63b8ff" d="M187.11,-646.37C199.76,-630.6 226.64,-599.76 256,-582.25 258.82,-580.57 261.79,-579.02 264.86,-577.6"/>
<polygon fill="#63b8ff" stroke="#63b8ff" points="266.18,-580.84 274.11,-573.81 263.53,-574.36 266.18,-580.84"/>
</g>
<!-- Node6 -->
<g id="node6" class="node">
<title>Node6</title>
<g id="a_node6"><a xlink:href="TransmitterCode_2src_2main_8cpp.html#a01c7a0b0de94ec72fe070ea9f90dc2ec" target="_top" xlink:title=" ">
<polygon fill="white" stroke="#666666" points="353,-535.75 281,-535.75 281,-516.75 353,-516.75 353,-535.75"/>
<text text-anchor="middle" x="317" y="-523.75" font-family="Helvetica,sans-Serif" font-size="10.00">CheckRange</text>
</a>
</g>
</g>
<!-- Node2&#45;&gt;Node6 -->
<g id="edge5" class="edge">
<title>Node2&#45;&gt;Node6</title>
<path fill="none" stroke="#63b8ff" d="M183.62,-646.31C193.1,-624.66 218.56,-572.95 256,-545.25 260.28,-542.08 265.1,-539.43 270.1,-537.22"/>
<polygon fill="#63b8ff" stroke="#63b8ff" points="270.99,-540.63 279.09,-533.8 268.5,-534.08 270.99,-540.63"/>
</g>
<!-- Node7 -->
<g id="node7" class="node">
<title>Node7</title>
<g id="a_node7"><a xlink:href="TransmitterCode_2src_2main_8cpp.html#a688c8f45b7061a1574dcb7eb28eec56b" target="_top" xlink:title=" ">
<polygon fill="white" stroke="#666666" points="378,-833.75 256,-833.75 256,-814.75 378,-814.75 378,-833.75"/>
<text text-anchor="middle" x="317" y="-821.75" font-family="Helvetica,sans-Serif" font-size="10.00">CheckSavedTrimValues</text>
</a>
</g>
</g>
<!-- Node2&#45;&gt;Node7 -->
<g id="edge6" class="edge">
<title>Node2&#45;&gt;Node7</title>
<path fill="none" stroke="#63b8ff" d="M181.64,-665.98C187.99,-692.62 209.31,-767.29 256,-806.25 256.96,-807.05 257.96,-807.81 258.98,-808.55"/>
<polygon fill="#63b8ff" stroke="#63b8ff" points="257.15,-811.53 267.56,-813.49 260.65,-805.47 257.15,-811.53"/>
</g>
<!-- Node8 -->
<g id="node8" class="node">
<title>Node8</title>
<g id="a_node8"><a xlink:href="TransmitterCode_2src_2main_8cpp.html#af2028eceef03ca4c84aa7d71677c0647" target="_top" xlink:title=" ">
<polygon fill="white" stroke="#666666" points="361.5,-796.75 272.5,-796.75 272.5,-777.75 361.5,-777.75 361.5,-796.75"/>
<text text-anchor="middle" x="317" y="-784.75" font-family="Helvetica,sans-Serif" font-size="10.00">CheckStepSizes</text>
</a>
</g>
</g>
<!-- Node2&#45;&gt;Node8 -->
<g id="edge7" class="edge">
<title>Node2&#45;&gt;Node8</title>
<path fill="none" stroke="#63b8ff" d="M183.4,-666.08C192.6,-688 217.81,-741.2 256,-769.25 257.81,-770.57 259.71,-771.81 261.69,-772.95"/>
<polygon fill="#63b8ff" stroke="#63b8ff" points="260.14,-776.09 270.67,-777.27 263.18,-769.78 260.14,-776.09"/>
</g>
<!-- Node9 -->
<g id="node9" class="node">
<title>Node9</title>
<g id="a_node9"><a xlink:href="TransmitterCode_2src_2main_8cpp.html#ae7618f38a148877bc5681be58cba8354" target="_top" xlink:title=" ">
<polygon fill="white" stroke="#666666" points="360.5,-759.75 273.5,-759.75 273.5,-740.75 360.5,-740.75 360.5,-759.75"/>
<text text-anchor="middle" x="317" y="-747.75" font-family="Helvetica,sans-Serif" font-size="10.00">OpenModelsFile</text>
</a>
</g>
</g>
<!-- Node2&#45;&gt;Node9 -->
<g id="edge8" class="edge">
<title>Node2&#45;&gt;Node9</title>
<path fill="none" stroke="#63b8ff" d="M186.82,-666.19C199.25,-682.39 226.08,-714.44 256,-732.25 258.16,-733.53 260.43,-734.74 262.75,-735.86"/>
<polygon fill="#63b8ff" stroke="#63b8ff" points="261.29,-739.04 271.86,-739.69 264,-732.58 261.29,-739.04"/>
</g>
<!-- Node10 -->
<g id="node10" class="node">
<title>Node10</title>
<g id="a_node10"><a xlink:href="TransmitterCode_2src_2main_8cpp.html#a3c809856d2abf6b6f804e2fbe68d06f5" target="_top" xlink:title=" ">
<polygon fill="white" stroke="#666666" points="366,-722.75 268,-722.75 268,-703.75 366,-703.75 366,-722.75"/>
<text text-anchor="middle" x="317" y="-710.75" font-family="Helvetica,sans-Serif" font-size="10.00">ReadCheckSum32</text>
</a>
</g>
</g>
<!-- Node2&#45;&gt;Node10 -->
<g id="edge9" class="edge">
<title>Node2&#45;&gt;Node10</title>
<path fill="none" stroke="#63b8ff" d="M202.19,-666.23C217.38,-672.86 237.83,-681.7 256,-689.25 263.83,-692.5 272.28,-695.93 280.28,-699.14"/>
<polygon fill="#63b8ff" stroke="#63b8ff" points="278.84,-702.34 289.43,-702.79 281.44,-695.83 278.84,-702.34"/>
</g>
<!-- Node12 -->
<g id="node12" class="node">
<title>Node12</title>
<g id="a_node12"><a xlink:href="TransmitterCode_2src_2main_8cpp.html#a9cf4a8c584c2b92d52de18627ca4434b" target="_top" xlink:title=" ">
<polygon fill="white" stroke="#666666" points="497,-758.75 417,-758.75 417,-739.75 497,-739.75 497,-758.75"/>
<text text-anchor="middle" x="457" y="-746.75" font-family="Helvetica,sans-Serif" font-size="10.00">SDRead8BITS</text>
</a>
</g>
</g>
<!-- Node2&#45;&gt;Node12 -->
<g id="edge15" class="edge">
<title>Node2&#45;&gt;Node12</title>
<path fill="none" stroke="#63b8ff" d="M179.94,-665.87C181.99,-697.88 193.39,-801.21 256,-843.25 301.02,-873.47 328.92,-866.3 378,-843.25 410.5,-827.98 434.12,-791.8 446.4,-769.04"/>
<polygon fill="#63b8ff" stroke="#63b8ff" points="449.36,-770.94 450.81,-760.44 443.13,-767.74 449.36,-770.94"/>
</g>
<!-- Node14 -->
<g id="node14" class="node">
<title>Node14</title>
<g id="a_node14"><a xlink:href="TransmitterCode_2src_2main_8cpp.html#a390e5cfbafdda998c93b9a352560d57d" target="_top" xlink:title=" ">
<polygon fill="white" stroke="#666666" points="500,-684.75 414,-684.75 414,-665.75 500,-665.75 500,-684.75"/>
<text text-anchor="middle" x="457" y="-672.75" font-family="Helvetica,sans-Serif" font-size="10.00">SDRead16BITS</text>
</a>
</g>
</g>
<!-- Node2&#45;&gt;Node14 -->
<g id="edge13" class="edge">
<title>Node2&#45;&gt;Node14</title>
<path fill="none" stroke="#63b8ff" d="M220.3,-659.05C268.58,-662.37 349.13,-667.9 402.41,-671.56"/>
<polygon fill="#63b8ff" stroke="#63b8ff" points="401.95,-675.04 412.16,-672.23 402.43,-668.06 401.95,-675.04"/>
</g>
<!-- Node15 -->
<g id="node15" class="node">
<title>Node15</title>
<g id="a_node15"><a xlink:href="TransmitterCode_2src_2main_8cpp.html#abf59862cf6c4e3df5a76f0bfea8919ef" target="_top" xlink:title=" ">
<polygon fill="white" stroke="#666666" points="370,-459.75 264,-459.75 264,-440.75 370,-440.75 370,-459.75"/>
<text text-anchor="middle" x="317" y="-447.75" font-family="Helvetica,sans-Serif" font-size="10.00">UpdateButtonLabels</text>
</a>
</g>
</g>
<!-- Node2&#45;&gt;Node15 -->
<g id="edge16" class="edge">
<title>Node2&#45;&gt;Node15</title>
<path fill="none" stroke="#63b8ff" d="M183.33,-646.27C193.11,-621.46 220.78,-555.58 256,-508.25 267.3,-493.06 282.7,-478.26 295.07,-467.41"/>
<polygon fill="#63b8ff" stroke="#63b8ff" points="297.33,-470.09 302.67,-460.93 292.79,-464.76 297.33,-470.09"/>
</g>
<!-- Node11 -->
<g id="node11" class="node">
<title>Node11</title>
<g id="a_node11"><a xlink:href="TransmitterCode_2src_2main_8cpp.html#aee9320d84f0e518a8cc937ac1f706cf4" target="_top" xlink:title=" ">
<polygon fill="white" stroke="#666666" points="500,-721.75 414,-721.75 414,-702.75 500,-702.75 500,-721.75"/>
<text text-anchor="middle" x="457" y="-709.75" font-family="Helvetica,sans-Serif" font-size="10.00">SDRead32BITS</text>
</a>
</g>
</g>
<!-- Node10&#45;&gt;Node11 -->
<g id="edge10" class="edge">
<title>Node10&#45;&gt;Node11</title>
<path fill="none" stroke="#63b8ff" d="M366.27,-712.9C377.93,-712.81 390.46,-712.72 402.35,-712.64"/>
<polygon fill="#63b8ff" stroke="#63b8ff" points="402.02,-716.14 412,-712.57 401.97,-709.14 402.02,-716.14"/>
</g>
<!-- Node10&#45;&gt;Node12 -->
<g id="edge11" class="edge">
<title>Node10&#45;&gt;Node12</title>
<path fill="none" stroke="#63b8ff" d="M356.07,-723.18C371.91,-727.31 390.49,-732.16 407.3,-736.54"/>
<polygon fill="#63b8ff" stroke="#63b8ff" points="406.03,-739.83 416.59,-738.96 407.79,-733.05 406.03,-739.83"/>
</g>
<!-- Node13 -->
<g id="node13" class="node">
<title>Node13</title>
<g id="a_node13"><a xlink:href="TransmitterCode_2src_2main_8cpp.html#a4a6675e3f0ebf8db35d21d829dcce052" target="_top" xlink:title=" ">
<polygon fill="white" stroke="#666666" points="622,-721.75 536,-721.75 536,-702.75 622,-702.75 622,-721.75"/>
<text text-anchor="middle" x="579" y="-709.75" font-family="Helvetica,sans-Serif" font-size="10.00">BuildCheckSum</text>
</a>
</g>
</g>
<!-- Node12&#45;&gt;Node13 -->
<g id="edge12" class="edge">
<title>Node12&#45;&gt;Node13</title>
<path fill="none" stroke="#63b8ff" d="M490.16,-739.33C503.88,-735.1 520.09,-730.1 534.83,-725.56"/>
<polygon fill="#63b8ff" stroke="#63b8ff" points="535.78,-728.93 544.31,-722.64 533.72,-722.24 535.78,-728.93"/>
</g>
<!-- Node14&#45;&gt;Node13 -->
<g id="edge14" class="edge">
<title>Node14&#45;&gt;Node13</title>
<path fill="none" stroke="#63b8ff" d="M490.16,-685.16C503.88,-689.39 520.09,-694.39 534.83,-698.94"/>
<polygon fill="#63b8ff" stroke="#63b8ff" points="533.72,-702.26 544.31,-701.86 535.78,-695.57 533.72,-702.26"/>
</g>
<!-- Node15&#45;&gt;Node16 -->
<g id="edge17" class="edge">
<title>Node15&#45;&gt;Node16</title>
<path fill="none" stroke="#63b8ff" d="M354.26,-460.23C373.48,-465.52 397.12,-472.03 416.78,-477.45"/>
<polygon fill="#63b8ff" stroke="#63b8ff" points="415.79,-480.81 426.36,-480.09 417.65,-474.06 415.79,-480.81"/>
</g>
<!-- Node15&#45;&gt;Node63 -->
<g id="edge66" class="edge">
<title>Node15&#45;&gt;Node63</title>
<path fill="none" stroke="#63b8ff" d="M333.28,-440.33C351.93,-428.42 384.63,-408.18 414,-393.25 416.24,-392.11 418.57,-390.97 420.93,-389.86"/>
<polygon fill="#63b8ff" stroke="#63b8ff" points="422.26,-393.1 429.94,-385.81 419.39,-386.72 422.26,-393.1"/>
</g>
<!-- Node17 -->
<g id="node17" class="node">
<title>Node17</title>
<g id="a_node17"><a xlink:href="TransmitterCode_2src_2main_8cpp.html#a43937dd3d9c795271fd9c3eb3c6b6410" target="_top" xlink:title=" ">
<polygon fill="white" stroke="#666666" points="741,-498.75 658,-498.75 658,-479.75 741,-479.75 741,-498.75"/>
<text text-anchor="middle" x="699.5" y="-486.75" font-family="Helvetica,sans-Serif" font-size="10.00">GetReturnCode</text>
</a>
</g>
</g>
<!-- Node16&#45;&gt;Node17 -->
<g id="edge18" class="edge">
<title>Node16&#45;&gt;Node17</title>
<path fill="none" stroke="#63b8ff" d="M486.06,-488.36C525.29,-488.53 597.24,-488.83 646.44,-489.03"/>
<polygon fill="#63b8ff" stroke="#63b8ff" points="646.28,-492.53 656.29,-489.07 646.31,-485.53 646.28,-492.53"/>
</g>
<!-- Node18 -->
<g id="node18" class="node">
<title>Node18</title>
<g id="a_node18"><a xlink:href="TransmitterCode_2src_2main_8cpp.html#aecac2f0c289f02ef3c92b85be82eacac" target="_top" xlink:title=" ">
<polygon fill="white" stroke="#666666" points="620.5,-384.75 537.5,-384.75 537.5,-365.75 620.5,-365.75 620.5,-384.75"/>
<text text-anchor="middle" x="579" y="-372.75" font-family="Helvetica,sans-Serif" font-size="10.00">SendCommand</text>
</a>
</g>
</g>
<!-- Node16&#45;&gt;Node18 -->
<g id="edge19" class="edge">
<title>Node16&#45;&gt;Node18</title>
<path fill="none" stroke="#63b8ff" d="M468.23,-478.61C488.41,-459.61 533.6,-417.06 559.26,-392.89"/>
<polygon fill="#63b8ff" stroke="#63b8ff" points="561.47,-395.62 566.35,-386.22 556.67,-390.52 561.47,-395.62"/>
</g>
<!-- Node18&#45;&gt;Node17 -->
<g id="edge20" class="edge">
<title>Node18&#45;&gt;Node17</title>
<path fill="none" stroke="#63b8ff" d="M602.63,-385.04C609.45,-388.77 616.56,-393.53 622,-399.25 646.39,-424.88 632.6,-445.62 658,-470.25 659.03,-471.25 660.13,-472.21 661.28,-473.12"/>
<polygon fill="#63b8ff" stroke="#63b8ff" points="659.21,-475.95 669.5,-478.46 663.02,-470.08 659.21,-475.95"/>
</g>
<!-- Node19 -->
<g id="node19" class="node">
<title>Node19</title>
<g id="a_node19"><a xlink:href="TransmitterCode_2src_2main_8cpp.html#a5f109790a6fe0b972a502f3cac4ed1e7" target="_top" xlink:title=" ">
<polygon fill="white" stroke="#666666" points="723.5,-461.75 675.5,-461.75 675.5,-442.75 723.5,-442.75 723.5,-461.75"/>
<text text-anchor="middle" x="699.5" y="-449.75" font-family="Helvetica,sans-Serif" font-size="10.00">InStrng</text>
</a>
</g>
</g>
<!-- Node18&#45;&gt;Node19 -->
<g id="edge21" class="edge">
<title>Node18&#45;&gt;Node19</title>
<path fill="none" stroke="#63b8ff" d="M598.79,-385.14C606.18,-389.25 614.65,-394.23 622,-399.25 638.97,-410.82 641.12,-416.54 658,-428.25 662,-431.02 666.34,-433.81 670.64,-436.45"/>
<polygon fill="#63b8ff" stroke="#63b8ff" points="668.73,-439.39 679.11,-441.5 672.31,-433.37 668.73,-439.39"/>
</g>
<!-- Node20 -->
<g id="node20" class="node">
<title>Node20</title>
<g id="a_node20"><a xlink:href="RadioFunctions_8cpp.html#a760609a682300dfe6bfaac737fd4d5eb" target="_top" xlink:title=" ">
<polygon fill="white" stroke="#666666" points="736.5,-291.75 662.5,-291.75 662.5,-272.75 736.5,-272.75 736.5,-291.75"/>
<text text-anchor="middle" x="699.5" y="-279.75" font-family="Helvetica,sans-Serif" font-size="10.00">Procrastinate</text>
</a>
</g>
</g>
<!-- Node18&#45;&gt;Node20 -->
<g id="edge22" class="edge">
<title>Node18&#45;&gt;Node20</title>
<path fill="none" stroke="#63b8ff" d="M592.68,-365.29C612.82,-349.49 652.34,-318.48 676.97,-299.15"/>
<polygon fill="#63b8ff" stroke="#63b8ff" points="679.01,-301.99 684.72,-293.06 674.69,-296.48 679.01,-301.99"/>
</g>
<!-- Node21 -->
<g id="node21" class="node">
<title>Node21</title>
<g id="a_node21"><a xlink:href="TransmitterCode_2src_2main_8cpp.html#ada95a00a341e4a80176eda743a94ab2e" target="_top" xlink:title=" ">
<polygon fill="white" stroke="#666666" points="847,-291.75 777,-291.75 777,-272.75 847,-272.75 847,-291.75"/>
<text text-anchor="middle" x="812" y="-279.75" font-family="Helvetica,sans-Serif" font-size="10.00">KickTheDog</text>
</a>
</g>
</g>
<!-- Node20&#45;&gt;Node21 -->
<g id="edge23" class="edge">
<title>Node20&#45;&gt;Node21</title>
<path fill="none" stroke="#63b8ff" d="M736.99,-282.25C746.11,-282.25 756,-282.25 765.49,-282.25"/>
<polygon fill="#63b8ff" stroke="#63b8ff" points="765.28,-285.75 775.28,-282.25 765.28,-278.75 765.28,-285.75"/>
</g>
<!-- Node22 -->
<g id="node22" class="node">
<title>Node22</title>
<g id="a_node22"><a xlink:href="RadioFunctions_8cpp.html#a049bfb836e7aa4a3a48a1a4bd225fafc" target="_top" xlink:title=" ">
<polygon fill="white" stroke="#666666" points="841.5,-235.75 782.5,-235.75 782.5,-216.75 841.5,-216.75 841.5,-235.75"/>
<text text-anchor="middle" x="812" y="-223.75" font-family="Helvetica,sans-Serif" font-size="10.00">SendData</text>
</a>
</g>
</g>
<!-- Node20&#45;&gt;Node22 -->
<g id="edge24" class="edge">
<title>Node20&#45;&gt;Node22</title>
<path fill="none" stroke="#63b8ff" d="M720,-272.36C736.94,-263.78 761.73,-251.22 781.16,-241.37"/>
<polygon fill="#63b8ff" stroke="#63b8ff" points="782.63,-244.55 789.97,-236.9 779.47,-238.3 782.63,-244.55"/>
</g>
<!-- Node23 -->
<g id="node23" class="node">
<title>Node23</title>
<g id="a_node23"><a xlink:href="RadioFunctions_8cpp.html#a1ddd5e8d5bd649dd98ce3710fbff651b" target="_top" xlink:title=" ">
<polygon fill="white" stroke="#666666" points="961.5,-124.75 900.5,-124.75 900.5,-105.75 961.5,-105.75 961.5,-124.75"/>
<text text-anchor="middle" x="931" y="-112.75" font-family="Helvetica,sans-Serif" font-size="10.00">Compress</text>
</a>
</g>
</g>
<!-- Node22&#45;&gt;Node23 -->
<g id="edge25" class="edge">
<title>Node22&#45;&gt;Node23</title>
<path fill="none" stroke="#63b8ff" d="M817.97,-216.39C827.88,-197.66 851.85,-156.72 883,-133.25 885.26,-131.54 887.7,-129.99 890.24,-128.56"/>
<polygon fill="#63b8ff" stroke="#63b8ff" points="891.48,-131.85 898.98,-124.36 888.45,-125.54 891.48,-131.85"/>
</g>
<!-- Node24 -->
<g id="node24" class="node">
<title>Node24</title>
<g id="a_node24"><a xlink:href="RadioFunctions_8cpp.html#a5fbd3c8613a4163425c94965704ce5f8" target="_top" xlink:title=" ">
<polygon fill="white" stroke="#666666" points="968,-235.75 894,-235.75 894,-216.75 968,-216.75 968,-235.75"/>
<text text-anchor="middle" x="931" y="-223.75" font-family="Helvetica,sans-Serif" font-size="10.00">FailedPacket</text>
</a>
</g>
</g>
<!-- Node22&#45;&gt;Node24 -->
<g id="edge26" class="edge">
<title>Node22&#45;&gt;Node24</title>
<path fill="none" stroke="#63b8ff" d="M841.92,-226.25C854.19,-226.25 868.81,-226.25 882.58,-226.25"/>
<polygon fill="#63b8ff" stroke="#63b8ff" points="882.36,-229.75 892.36,-226.25 882.36,-222.75 882.36,-229.75"/>
</g>
<!-- Node48 -->
<g id="node38" class="node">
<title>Node48</title>
<g id="a_node38"><a xlink:href="RadioFunctions_8cpp.html#a07c27b4e208198453c70876517926052" target="_top" xlink:title=" ">
<polygon fill="white" stroke="#666666" points="962,-198.75 900,-198.75 900,-179.75 962,-179.75 962,-198.75"/>
<text text-anchor="middle" x="931" y="-186.75" font-family="Helvetica,sans-Serif" font-size="10.00">FlushFifos</text>
</a>
</g>
</g>
<!-- Node22&#45;&gt;Node48 -->
<g id="edge47" class="edge">
<title>Node22&#45;&gt;Node48</title>
<path fill="none" stroke="#63b8ff" d="M841.92,-217.1C856.08,-212.62 873.37,-207.15 888.88,-202.25"/>
<polygon fill="#63b8ff" stroke="#63b8ff" points="889.86,-205.61 898.34,-199.26 887.75,-198.94 889.86,-205.61"/>
</g>
<!-- Node49 -->
<g id="node39" class="node">
<title>Node49</title>
<g id="a_node39"><a xlink:href="TransmitterCode_2src_2main_8cpp.html#ac4ffb9b555ce8d38f615610dc89b5499" target="_top" xlink:title=" ">
<polygon fill="white" stroke="#666666" points="975.5,-385.75 886.5,-385.75 886.5,-366.75 975.5,-366.75 975.5,-385.75"/>
<text text-anchor="middle" x="931" y="-373.75" font-family="Helvetica,sans-Serif" font-size="10.00">LoadPacketData</text>
</a>
</g>
</g>
<!-- Node22&#45;&gt;Node49 -->
<g id="edge48" class="edge">
<title>Node22&#45;&gt;Node49</title>
<path fill="none" stroke="#63b8ff" d="M822.54,-236.03C829.53,-243.34 839.13,-253.68 847,-263.25 873.15,-295.04 900.97,-334.13 916.84,-357.01"/>
<polygon fill="#63b8ff" stroke="#63b8ff" points="913.83,-358.81 922.39,-365.05 919.59,-354.84 913.83,-358.81"/>
</g>
<!-- Node52 -->
<g id="node42" class="node">
<title>Node52</title>
<g id="a_node42"><a xlink:href="TransmitterCode_2src_2main_8cpp.html#a784a1eca0361b3991bca899167cc1cdb" target="_top" xlink:title=" ">
<polygon fill="white" stroke="#666666" points="968.5,-161.75 893.5,-161.75 893.5,-142.75 968.5,-142.75 968.5,-161.75"/>
<text text-anchor="middle" x="931" y="-149.75" font-family="Helvetica,sans-Serif" font-size="10.00">SendViaPPM</text>
</a>
</g>
</g>
<!-- Node22&#45;&gt;Node52 -->
<g id="edge53" class="edge">
<title>Node22&#45;&gt;Node52</title>
<path fill="none" stroke="#63b8ff" d="M823.16,-216.41C836.16,-204.26 859.77,-183.55 883,-170.25 885.16,-169.01 887.41,-167.83 889.72,-166.7"/>
<polygon fill="#63b8ff" stroke="#63b8ff" points="890.92,-170 898.64,-162.74 888.08,-163.6 890.92,-170"/>
</g>
<!-- Node53 -->
<g id="node43" class="node">
<title>Node53</title>
<g id="a_node43"><a xlink:href="RadioFunctions_8cpp.html#a1c11bb6771548de7d96723045b922620" target="_top" xlink:title=" ">
<polygon fill="white" stroke="#666666" points="979,-272.75 883,-272.75 883,-253.75 979,-253.75 979,-272.75"/>
<text text-anchor="middle" x="931" y="-260.75" font-family="Helvetica,sans-Serif" font-size="10.00">SuccessfulPacket</text>
</a>
</g>
</g>
<!-- Node22&#45;&gt;Node53 -->
<g id="edge54" class="edge">
<title>Node22&#45;&gt;Node53</title>
<path fill="none" stroke="#63b8ff" d="M841.92,-235.39C855.75,-239.77 872.58,-245.09 887.8,-249.9"/>
<polygon fill="#63b8ff" stroke="#63b8ff" points="886.5,-253.16 897.09,-252.84 888.62,-246.49 886.5,-253.16"/>
</g>
<!-- Node25 -->
<g id="node25" class="node">
<title>Node25</title>
<g id="a_node25"><a xlink:href="TransmitterCode_2src_2main_8cpp.html#afd409fe008843b50c3e2ff697558d4d5" target="_top" xlink:title=" ">
<polygon fill="white" stroke="#666666" points="1269.5,-160.75 1177.5,-160.75 1177.5,-141.75 1269.5,-141.75 1269.5,-160.75"/>
<text text-anchor="middle" x="1223.5" y="-148.75" font-family="Helvetica,sans-Serif" font-size="10.00">LogThisLongGap</text>
</a>
</g>
</g>
<!-- Node24&#45;&gt;Node25 -->
<g id="edge27" class="edge">
<title>Node24&#45;&gt;Node25</title>
<path fill="none" stroke="#63b8ff" d="M961.79,-216.39C967.72,-213.83 973.74,-210.78 979,-207.25 998.04,-194.45 994.29,-180.13 1015,-170.25 1062.25,-147.7 1122.4,-144.57 1165.76,-146.12"/>
<polygon fill="#63b8ff" stroke="#63b8ff" points="1165.57,-149.61 1175.72,-146.58 1165.9,-142.62 1165.57,-149.61"/>
</g>
<!-- Node36 -->
<g id="node28" class="node">
<title>Node36</title>
<g id="a_node28"><a xlink:href="RadioFunctions_8cpp.html#afc091b5942e21a03f6dc8635d5e519ba" target="_top" xlink:title=" ">
<polygon fill="white" stroke="#666666" points="1137,-198.75 1015,-198.75 1015,-179.75 1137,-179.75 1137,-198.75"/>
<text text-anchor="middle" x="1076" y="-186.75" font-family="Helvetica,sans-Serif" font-size="10.00">RecordsPacketSuccess</text>
</a>
</g>
</g>
<!-- Node24&#45;&gt;Node36 -->
<g id="edge30" class="edge">
<title>Node24&#45;&gt;Node36</title>
<path fill="none" stroke="#63b8ff" d="M968.45,-216.81C985.74,-212.34 1006.65,-206.93 1025.35,-202.09"/>
<polygon fill="#63b8ff" stroke="#63b8ff" points="1026.09,-205.52 1034.89,-199.62 1024.34,-198.74 1026.09,-205.52"/>
</g>
<!-- Node37 -->
<g id="node29" class="node">
<title>Node37</title>
<g id="a_node29"><a xlink:href="TransmitterCode_2src_2main_8cpp.html#a7d34cec6e8edc20c8b50424e15dcc7c7" target="_top" xlink:title=" ">
<polygon fill="white" stroke="#666666" points="1107.5,-496.75 1044.5,-496.75 1044.5,-477.75 1107.5,-477.75 1107.5,-496.75"/>
<text text-anchor="middle" x="1076" y="-484.75" font-family="Helvetica,sans-Serif" font-size="10.00">RedLedOn</text>
</a>
</g>
</g>
<!-- Node24&#45;&gt;Node37 -->
<g id="edge31" class="edge">
<title>Node24&#45;&gt;Node37</title>
<path fill="none" stroke="#63b8ff" d="M968.05,-235.34C972.21,-237.67 976.03,-240.58 979,-244.25 1042.58,-322.51 949.14,-391.89 1015,-468.25 1019.94,-473.97 1026.59,-477.99 1033.67,-480.81"/>
<polygon fill="#63b8ff" stroke="#63b8ff" points="1032.17,-484 1042.76,-483.68 1034.27,-477.33 1032.17,-484"/>
</g>
<!-- Node42 -->
<g id="node34" class="node">
<title>Node42</title>
<g id="a_node34"><a xlink:href="TransmitterCode_2src_2main_8cpp.html#a0a3d89dfcfab70c6cbc50401fff1afeb" target="_top" xlink:title=" ">
<polygon fill="white" stroke="#666666" points="1130.5,-85.75 1021.5,-85.75 1021.5,-66.75 1130.5,-66.75 1130.5,-85.75"/>
<text text-anchor="middle" x="1076" y="-73.75" font-family="Helvetica,sans-Serif" font-size="10.00">ReEnableScanButton</text>
</a>
</g>
</g>
<!-- Node24&#45;&gt;Node42 -->
<g id="edge41" class="edge">
<title>Node24&#45;&gt;Node42</title>
<path fill="none" stroke="#63b8ff" d="M966.63,-216.45C971.22,-214.01 975.53,-210.99 979,-207.25 1014.83,-168.59 977.41,-131.2 1015,-94.25 1015.61,-93.65 1016.24,-93.07 1016.89,-92.5"/>
<polygon fill="#63b8ff" stroke="#63b8ff" points="1018.57,-95.59 1024.89,-87.09 1014.65,-89.8 1018.57,-95.59"/>
</g>
<!-- Node43 -->
<g id="node35" class="node">
<title>Node43</title>
<g id="a_node35"><a xlink:href="RadioFunctions_8cpp.html#ad0236abcfc887ad708d9504c4ab2a7c3" target="_top" xlink:title=" ">
<polygon fill="white" stroke="#666666" points="1120,-122.75 1032,-122.75 1032,-103.75 1120,-103.75 1120,-122.75"/>
<text text-anchor="middle" x="1076" y="-110.75" font-family="Helvetica,sans-Serif" font-size="10.00">TryToReconnect</text>
</a>
</g>
</g>
<!-- Node24&#45;&gt;Node43 -->
<g id="edge44" class="edge">
<title>Node24&#45;&gt;Node43</title>
<path fill="none" stroke="#63b8ff" d="M965.12,-216.39C970.14,-213.94 974.97,-210.93 979,-207.25 1004.84,-183.66 989.12,-160.79 1015,-137.25 1018.94,-133.66 1023.49,-130.58 1028.28,-127.94"/>
<polygon fill="#63b8ff" stroke="#63b8ff" points="1029.46,-131.25 1036.97,-123.77 1026.44,-124.94 1029.46,-131.25"/>
</g>
<!-- Node26 -->
<g id="node26" class="node">
<title>Node26</title>
<g id="a_node26"><a xlink:href="TransmitterCode_2src_2main_8cpp.html#add8d8f400f1c1c4a5add52736cdf94ca" target="_top" xlink:title=" ">
<polygon fill="#fff0f0" stroke="red" points="1362,-281.75 1310,-281.75 1310,-262.75 1362,-262.75 1362,-281.75"/>
<text text-anchor="middle" x="1336" y="-269.75" font-family="Helvetica,sans-Serif" font-size="10.00">LogText</text>
</a>
</g>
</g>
<!-- Node25&#45;&gt;Node26 -->
<g id="edge28" class="edge">
<title>Node25&#45;&gt;Node26</title>
<path fill="none" stroke="#63b8ff" d="M1240.18,-161.17C1250.42,-168.06 1263.75,-177.86 1274,-188.25 1293.69,-208.21 1311.98,-234.94 1323.3,-252.83"/>
<polygon fill="#63b8ff" stroke="#63b8ff" points="1320.22,-254.51 1328.46,-261.17 1326.17,-250.83 1320.22,-254.51"/>
</g>
<!-- Node25&#45;&gt;Node31 -->
<g id="edge29" class="edge">
<title>Node25&#45;&gt;Node31</title>
<path fill="none" stroke="#63b8ff" d="M1254.11,-141.33C1271.77,-135.42 1293.92,-128 1310.58,-122.42"/>
<polygon fill="#63b8ff" stroke="#63b8ff" points="1311.3,-125.87 1319.67,-119.38 1309.08,-119.24 1311.3,-125.87"/>
</g>
<!-- Node37&#45;&gt;Node16 -->
<g id="edge39" class="edge">
<title>Node37&#45;&gt;Node16</title>
<path fill="none" stroke="#63b8ff" d="M1044.18,-495.05C995.44,-506.69 897.43,-527.25 813,-527.25 698.5,-527.25 698.5,-527.25 698.5,-527.25 626.79,-527.25 544.59,-510.15 497.24,-498.59"/>
<polygon fill="#63b8ff" stroke="#63b8ff" points="498.28,-495.24 487.73,-496.22 496.59,-502.04 498.28,-495.24"/>
</g>
<!-- Node37&#45;&gt;Node18 -->
<g id="edge38" class="edge">
<title>Node37&#45;&gt;Node18</title>
<path fill="none" stroke="#63b8ff" d="M1044.19,-480.28C961.65,-461.6 734.84,-410.28 631.96,-387"/>
<polygon fill="#63b8ff" stroke="#63b8ff" points="632.93,-383.63 622.41,-384.84 631.39,-390.46 632.93,-383.63"/>
</g>
<!-- Node38 -->
<g id="node30" class="node">
<title>Node38</title>
<g id="a_node30"><a xlink:href="TransmitterCode_2src_2main_8cpp.html#a549a702bb9b539c6b3a4f20cce65adcc" target="_top" xlink:title=" ">
<polygon fill="white" stroke="#666666" points="1272.5,-404.75 1174.5,-404.75 1174.5,-385.75 1272.5,-385.75 1272.5,-404.75"/>
<text text-anchor="middle" x="1223.5" y="-392.75" font-family="Helvetica,sans-Serif" font-size="10.00">GetLEDBrightness</text>
</a>
</g>
</g>
<!-- Node37&#45;&gt;Node38 -->
<g id="edge32" class="edge">
<title>Node37&#45;&gt;Node38</title>
<path fill="none" stroke="#63b8ff" d="M1107.82,-480.55C1117.58,-477.64 1128.13,-473.64 1137,-468.25 1156.34,-456.5 1155.89,-447.06 1173,-432.25 1181.16,-425.18 1190.56,-417.95 1198.95,-411.78"/>
<polygon fill="#63b8ff" stroke="#63b8ff" points="1200.93,-414.67 1206.99,-405.98 1196.83,-409 1200.93,-414.67"/>
</g>
<!-- Node39 -->
<g id="node31" class="node">
<title>Node39</title>
<g id="a_node31"><a xlink:href="TransmitterCode_2src_2main_8cpp.html#a2d5ec5fd5ed62d5b7b071fabe2225405" target="_top" xlink:title=" ">
<polygon fill="white" stroke="#666666" points="1271.5,-460.75 1175.5,-460.75 1175.5,-441.75 1271.5,-441.75 1271.5,-460.75"/>
<text text-anchor="middle" x="1223.5" y="-448.75" font-family="Helvetica,sans-Serif" font-size="10.00">LogDisConnection</text>
</a>
</g>
</g>
<!-- Node37&#45;&gt;Node39 -->
<g id="edge33" class="edge">
<title>Node37&#45;&gt;Node39</title>
<path fill="none" stroke="#63b8ff" d="M1107.86,-479.61C1126.24,-475.06 1150.04,-469.17 1171.19,-463.94"/>
<polygon fill="#63b8ff" stroke="#63b8ff" points="1171.95,-467.36 1180.81,-461.56 1170.27,-460.57 1171.95,-467.36"/>
</g>
<!-- Node40 -->
<g id="node32" class="node">
<title>Node40</title>
<g id="a_node32"><a xlink:href="TransmitterCode_2src_2main_8cpp.html#aa490b4664b0a4498d53b30b82287d5df" target="_top" xlink:title=" ">
<polygon fill="white" stroke="#666666" points="1255,-357.75 1192,-357.75 1192,-338.75 1255,-338.75 1255,-357.75"/>
<text text-anchor="middle" x="1223.5" y="-345.75" font-family="Helvetica,sans-Serif" font-size="10.00">PlaySound</text>
</a>
</g>
</g>
<!-- Node37&#45;&gt;Node40 -->
<g id="edge35" class="edge">
<title>Node37&#45;&gt;Node40</title>
<path fill="none" stroke="#63b8ff" d="M1107.8,-483C1118.12,-480.24 1129.02,-475.71 1137,-468.25 1169.06,-438.25 1144.23,-409.42 1173,-376.25 1177.12,-371.49 1182.26,-367.37 1187.66,-363.86"/>
<polygon fill="#63b8ff" stroke="#63b8ff" points="1189.25,-366.98 1196.17,-358.95 1185.75,-360.92 1189.25,-366.98"/>
</g>
<!-- Node41 -->
<g id="node33" class="node">
<title>Node41</title>
<g id="a_node33"><a xlink:href="ReceiverCode_2src_2main_8cpp.html#a2eabdb233653fa02f0b899e26b5e8ce7" target="_top" xlink:title=" ">
<polygon fill="white" stroke="#666666" points="1273,-515.75 1174,-515.75 1174,-496.75 1273,-496.75 1273,-515.75"/>
<text text-anchor="middle" x="1223.5" y="-503.75" font-family="Helvetica,sans-Serif" font-size="10.00">SetUKFrequencies</text>
</a>
</g>
</g>
<!-- Node37&#45;&gt;Node41 -->
<g id="edge40" class="edge">
<title>Node37&#45;&gt;Node41</title>
<path fill="none" stroke="#63b8ff" d="M1107.86,-491.28C1123.75,-493.35 1143.69,-495.96 1162.47,-498.41"/>
<polygon fill="#63b8ff" stroke="#63b8ff" points="1161.78,-501.85 1172.15,-499.67 1162.69,-494.91 1161.78,-501.85"/>
</g>
<!-- Node39&#45;&gt;Node26 -->
<g id="edge34" class="edge">
<title>Node39&#45;&gt;Node26</title>
<path fill="none" stroke="#63b8ff" d="M1241.43,-441.38C1251.93,-434.57 1265.07,-424.7 1274,-413.25 1303.27,-375.7 1321.38,-321.96 1329.66,-292.87"/>
<polygon fill="#63b8ff" stroke="#63b8ff" points="1332.97,-294.05 1332.22,-283.49 1326.21,-292.21 1332.97,-294.05"/>
</g>
<!-- Node40&#45;&gt;Node18 -->
<g id="edge36" class="edge">
<title>Node40&#45;&gt;Node18</title>
<path fill="none" stroke="#63b8ff" d="M1191.56,-346.48C1138.47,-343.61 1026.62,-338.25 932,-338.25 811,-338.25 811,-338.25 811,-338.25 747.59,-338.25 675.6,-352.01 629.09,-362.75"/>
<polygon fill="#63b8ff" stroke="#63b8ff" points="628.52,-359.28 619.59,-364.98 630.13,-366.1 628.52,-359.28"/>
</g>
<!-- Node40&#45;&gt;Node31 -->
<g id="edge37" class="edge">
<title>Node40&#45;&gt;Node31</title>
<path fill="none" stroke="#63b8ff" d="M1234.9,-338.46C1245.93,-327.59 1263.21,-309.09 1274,-290.25 1303.91,-238.01 1322.58,-168.69 1330.53,-134.74"/>
<polygon fill="#63b8ff" stroke="#63b8ff" points="1333.85,-135.94 1332.65,-125.41 1327.03,-134.39 1333.85,-135.94"/>
</g>
<!-- Node42&#45;&gt;Node18 -->
<g id="edge42" class="edge">
<title>Node42&#45;&gt;Node18</title>
<path fill="none" stroke="#63b8ff" d="M1021.07,-74.34C981.57,-74.72 927.35,-78.99 883,-96.25 766.94,-141.41 744.72,-173.87 658,-263.25 629.94,-292.17 604.74,-332.09 590.98,-355.64"/>
<polygon fill="#63b8ff" stroke="#63b8ff" points="588.03,-353.75 586.09,-364.17 594.1,-357.23 588.03,-353.75"/>
</g>
<!-- Node42&#45;&gt;Node31 -->
<g id="edge43" class="edge">
<title>Node42&#45;&gt;Node31</title>
<path fill="none" stroke="#63b8ff" d="M1130.95,-78.45C1170.79,-80.81 1226.17,-85.6 1274,-95.25 1286.27,-97.72 1299.57,-101.7 1310.61,-105.39"/>
<polygon fill="#63b8ff" stroke="#63b8ff" points="1309.14,-108.58 1319.73,-108.54 1311.42,-101.96 1309.14,-108.58"/>
</g>
<!-- Node44 -->
<g id="node36" class="node">
<title>Node44</title>
<g id="a_node36"><a xlink:href="RadioFunctions_8cpp.html#a52aa3e80bccf5e75346c93fdae63122d" target="_top" xlink:title=" ">
<polygon fill="#fff0f0" stroke="red" points="1274,-216.75 1173,-216.75 1173,-197.75 1274,-197.75 1274,-216.75"/>
<text text-anchor="middle" x="1223.5" y="-204.75" font-family="Helvetica,sans-Serif" font-size="10.00">HopToNextChannel</text>
</a>
</g>
</g>
<!-- Node43&#45;&gt;Node44 -->
<g id="edge45" class="edge">
<title>Node43&#45;&gt;Node44</title>
<path fill="none" stroke="#63b8ff" d="M1092.3,-123.13C1117.47,-139.39 1167.84,-171.93 1198.01,-191.43"/>
<polygon fill="#63b8ff" stroke="#63b8ff" points="1195.84,-194.19 1206.14,-196.68 1199.64,-188.31 1195.84,-194.19"/>
</g>
<!-- Node46 -->
<g id="node37" class="node">
<title>Node46</title>
<g id="a_node37"><a xlink:href="RadioFunctions_8cpp.html#ad0e30213b21808d00110752679788a8c" target="_top" xlink:title=" ">
<polygon fill="#fff0f0" stroke="red" points="1260.5,-123.75 1186.5,-123.75 1186.5,-104.75 1260.5,-104.75 1260.5,-123.75"/>
<text text-anchor="middle" x="1223.5" y="-111.75" font-family="Helvetica,sans-Serif" font-size="10.00">TryOtherPipe</text>
</a>
</g>
</g>
<!-- Node43&#45;&gt;Node46 -->
<g id="edge46" class="edge">
<title>Node43&#45;&gt;Node46</title>
<path fill="none" stroke="#63b8ff" d="M1120.26,-113.54C1137.36,-113.66 1157.07,-113.8 1174.6,-113.92"/>
<polygon fill="#63b8ff" stroke="#63b8ff" points="1174.5,-117.42 1184.52,-113.99 1174.55,-110.42 1174.5,-117.42"/>
</g>
<!-- Node49&#45;&gt;Node18 -->
<g id="edge50" class="edge">
<title>Node49&#45;&gt;Node18</title>
<path fill="none" stroke="#63b8ff" d="M886.14,-376.12C821.61,-375.94 701.3,-375.59 632.28,-375.4"/>
<polygon fill="#63b8ff" stroke="#63b8ff" points="632.36,-371.9 622.35,-375.37 632.34,-378.9 632.36,-371.9"/>
</g>
<!-- Node49&#45;&gt;Node41 -->
<g id="edge52" class="edge">
<title>Node49&#45;&gt;Node41</title>
<path fill="none" stroke="#63b8ff" d="M934.73,-386.15C942.36,-411.71 966.63,-479.74 1015,-506.25 1064.41,-533.32 1130.88,-527.32 1175.14,-518.54"/>
<polygon fill="#63b8ff" stroke="#63b8ff" points="1175.63,-522.02 1184.68,-516.52 1174.18,-515.17 1175.63,-522.02"/>
</g>
<!-- Node50 -->
<g id="node40" class="node">
<title>Node50</title>
<g id="a_node40"><a xlink:href="TransmitterCode_2src_2main_8cpp.html#a5aa4888b924a4f1d95e9cedc3004f2b6" target="_top" xlink:title=" ">
<polygon fill="white" stroke="#666666" points="1117.5,-459.75 1034.5,-459.75 1034.5,-440.75 1117.5,-440.75 1117.5,-459.75"/>
<text text-anchor="middle" x="1076" y="-447.75" font-family="Helvetica,sans-Serif" font-size="10.00">MakeTwobytes</text>
</a>
</g>
</g>
<!-- Node49&#45;&gt;Node50 -->
<g id="edge49" class="edge">
<title>Node49&#45;&gt;Node50</title>
<path fill="none" stroke="#63b8ff" d="M954.14,-386.2C962.21,-390.17 971.24,-395.04 979,-400.25 996.53,-412.02 996.56,-420.96 1015,-431.25 1018.2,-433.03 1021.58,-434.67 1025.06,-436.18"/>
<polygon fill="#63b8ff" stroke="#63b8ff" points="1023.63,-439.38 1034.22,-439.75 1026.18,-432.86 1023.63,-439.38"/>
</g>
<!-- Node51 -->
<g id="node41" class="node">
<title>Node51</title>
<g id="a_node41"><a xlink:href="ReceiverCode_2src_2main_8cpp.html#a31a35307bbac88ceda244272f25d399a" target="_top" xlink:title=" ">
<polygon fill="white" stroke="#666666" points="1128,-422.75 1024,-422.75 1024,-403.75 1128,-403.75 1128,-422.75"/>
<text text-anchor="middle" x="1076" y="-410.75" font-family="Helvetica,sans-Serif" font-size="10.00">SetTestFrequencies</text>
</a>
</g>
</g>
<!-- Node49&#45;&gt;Node51 -->
<g id="edge51" class="edge">
<title>Node49&#45;&gt;Node51</title>
<path fill="none" stroke="#63b8ff" d="M970.32,-386.16C987.31,-390.56 1007.52,-395.79 1025.62,-400.47"/>
<polygon fill="#63b8ff" stroke="#63b8ff" points="1024.55,-403.81 1035.11,-402.92 1026.3,-397.03 1024.55,-403.81"/>
</g>
<!-- Node53&#45;&gt;Node36 -->
<g id="edge64" class="edge">
<title>Node53&#45;&gt;Node36</title>
<path fill="none" stroke="#63b8ff" d="M961.79,-253.39C967.72,-250.83 973.74,-247.78 979,-244.25 998.04,-231.45 995.38,-219.15 1015,-207.25 1017.15,-205.94 1019.41,-204.72 1021.73,-203.59"/>
<polygon fill="#63b8ff" stroke="#63b8ff" points="1022.98,-206.86 1030.81,-199.73 1020.24,-200.42 1022.98,-206.86"/>
</g>
<!-- Node54 -->
<g id="node44" class="node">
<title>Node54</title>
<g id="a_node44"><a xlink:href="TransmitterCode_2src_2main_8cpp.html#a953f1d5046e183549ed95b08f6d675e3" target="_top" xlink:title=" ">
<polygon fill="white" stroke="#666666" points="1125,-309.75 1027,-309.75 1027,-290.75 1125,-290.75 1125,-309.75"/>
<text text-anchor="middle" x="1076" y="-297.75" font-family="Helvetica,sans-Serif" font-size="10.00">CheckGapsLength</text>
</a>
</g>
</g>
<!-- Node53&#45;&gt;Node54 -->
<g id="edge55" class="edge">
<title>Node53&#45;&gt;Node54</title>
<path fill="none" stroke="#63b8ff" d="M970.32,-273.16C987.31,-277.56 1007.52,-282.79 1025.62,-287.47"/>
<polygon fill="#63b8ff" stroke="#63b8ff" points="1024.55,-290.81 1035.11,-289.92 1026.3,-284.03 1024.55,-290.81"/>
</g>
<!-- Node56 -->
<g id="node46" class="node">
<title>Node56</title>
<g id="a_node46"><a xlink:href="TransmitterCode_2src_2main_8cpp.html#a62e53eb9359c32b666e3386d62c57037" target="_top" xlink:title=" ">
<polygon fill="#fff0f0" stroke="red" points="1112,-385.75 1040,-385.75 1040,-366.75 1112,-366.75 1112,-385.75"/>
<text text-anchor="middle" x="1076" y="-373.75" font-family="Helvetica,sans-Serif" font-size="10.00">GreenLedOn</text>
</a>
</g>
</g>
<!-- Node53&#45;&gt;Node56 -->
<g id="edge59" class="edge">
<title>Node53&#45;&gt;Node56</title>
<path fill="none" stroke="#63b8ff" d="M944.19,-272.88C968.45,-292.05 1023.03,-335.18 1053.47,-359.23"/>
<polygon fill="#63b8ff" stroke="#63b8ff" points="1051.23,-361.92 1061.24,-365.38 1055.57,-356.43 1051.23,-361.92"/>
</g>
<!-- Node70 -->
<g id="node47" class="node">
<title>Node70</title>
<g id="a_node47"><a xlink:href="TransmitterCode_2src_2main_8cpp.html#a694f4f5a0147f4dc29b0bc1a8951547d" target="_top" xlink:title=" ">
<polygon fill="#fff0f0" stroke="red" points="1123,-235.75 1029,-235.75 1029,-216.75 1123,-216.75 1123,-235.75"/>
<text text-anchor="middle" x="1076" y="-223.75" font-family="Helvetica,sans-Serif" font-size="10.00">ParseAckPayload</text>
</a>
</g>
</g>
<!-- Node53&#45;&gt;Node70 -->
<g id="edge62" class="edge">
<title>Node53&#45;&gt;Node70</title>
<path fill="none" stroke="#63b8ff" d="M970.32,-253.33C987.31,-248.94 1007.52,-243.71 1025.62,-239.02"/>
<polygon fill="#63b8ff" stroke="#63b8ff" points="1026.3,-242.46 1035.11,-236.57 1024.55,-235.69 1026.3,-242.46"/>
</g>
<!-- Node68 -->
<g id="node48" class="node">
<title>Node68</title>
<g id="a_node48"><a xlink:href="TransmitterCode_2src_2main_8cpp.html#a793b7bcd77531c95fe72ed4356d421c8" target="_top" xlink:title=" ">
<polygon fill="white" stroke="#666666" points="1131,-272.75 1021,-272.75 1021,-253.75 1131,-253.75 1131,-272.75"/>
<text text-anchor="middle" x="1076" y="-260.75" font-family="Helvetica,sans-Serif" font-size="10.00">StartInactvityTimeout</text>
</a>
</g>
</g>
<!-- Node53&#45;&gt;Node68 -->
<g id="edge65" class="edge">
<title>Node53&#45;&gt;Node68</title>
<path fill="none" stroke="#63b8ff" d="M979.22,-263.25C988.85,-263.25 999.16,-263.25 1009.3,-263.25"/>
<polygon fill="#63b8ff" stroke="#63b8ff" points="1009.13,-266.75 1019.13,-263.25 1009.13,-259.75 1009.13,-266.75"/>
</g>
<!-- Node55 -->
<g id="node45" class="node">
<title>Node55</title>
<g id="a_node45"><a xlink:href="TransmitterCode_2src_2main_8cpp.html#a1fadc7cdd854f8b3628b622da5417d8b" target="_top" xlink:title=" ">
<polygon fill="white" stroke="#666666" points="1258.5,-281.75 1188.5,-281.75 1188.5,-262.75 1258.5,-262.75 1258.5,-281.75"/>
<text text-anchor="middle" x="1223.5" y="-269.75" font-family="Helvetica,sans-Serif" font-size="10.00">LogThisGap</text>
</a>
</g>
</g>
<!-- Node54&#45;&gt;Node55 -->
<g id="edge56" class="edge">
<title>Node54&#45;&gt;Node55</title>
<path fill="none" stroke="#63b8ff" d="M1125.45,-290.92C1142.11,-287.72 1160.68,-284.14 1177.09,-280.99"/>
<polygon fill="#63b8ff" stroke="#63b8ff" points="1177.41,-284.49 1186.57,-279.16 1176.09,-277.61 1177.41,-284.49"/>
</g>
<!-- Node55&#45;&gt;Node26 -->
<g id="edge57" class="edge">
<title>Node55&#45;&gt;Node26</title>
<path fill="none" stroke="#63b8ff" d="M1258.86,-272.25C1271.47,-272.25 1285.78,-272.25 1298.57,-272.25"/>
<polygon fill="#63b8ff" stroke="#63b8ff" points="1298.28,-275.75 1308.28,-272.25 1298.28,-268.75 1298.28,-275.75"/>
</g>
<!-- Node55&#45;&gt;Node31 -->
<g id="edge58" class="edge">
<title>Node55&#45;&gt;Node31</title>
<path fill="none" stroke="#63b8ff" d="M1236.92,-262.34C1247.61,-253.41 1263,-239.51 1274,-225.25 1296.51,-196.05 1315.7,-157.48 1326.27,-134.34"/>
<polygon fill="#63b8ff" stroke="#63b8ff" points="1329.36,-136 1330.24,-125.44 1322.97,-133.15 1329.36,-136"/>
</g>
<!-- Node56&#45;&gt;Node38 -->
<g id="edge60" class="edge">
<title>Node56&#45;&gt;Node38</title>
<path fill="none" stroke="#63b8ff" d="M1112.22,-380.85C1127.47,-382.84 1145.74,-385.22 1162.99,-387.48"/>
<polygon fill="#63b8ff" stroke="#63b8ff" points="1162.27,-390.91 1172.64,-388.74 1163.17,-383.97 1162.27,-390.91"/>
</g>
<!-- Node56&#45;&gt;Node40 -->
<g id="edge61" class="edge">
<title>Node56&#45;&gt;Node40</title>
<path fill="none" stroke="#63b8ff" d="M1112.22,-369.47C1132.75,-365.52 1158.78,-360.51 1180.39,-356.35"/>
<polygon fill="#63b8ff" stroke="#63b8ff" points="1180.91,-359.81 1190.07,-354.49 1179.59,-352.94 1180.91,-359.81"/>
</g>
<!-- Node70&#45;&gt;Node44 -->
<g id="edge63" class="edge">
<title>Node70&#45;&gt;Node44</title>
<path fill="none" stroke="#63b8ff" d="M1123.44,-220.18C1135.59,-218.6 1148.88,-216.86 1161.67,-215.19"/>
<polygon fill="#63b8ff" stroke="#63b8ff" points="1161.77,-218.71 1171.23,-213.94 1160.86,-211.77 1161.77,-218.71"/>
</g>
<!-- Node63&#45;&gt;Node17 -->
<g id="edge67" class="edge">
<title>Node63&#45;&gt;Node17</title>
<path fill="none" stroke="#63b8ff" d="M489.3,-382.85C523.61,-392.08 579.44,-409.77 622,-436.25 640.69,-447.87 639.81,-457.86 658,-470.25 659.96,-471.58 662.02,-472.86 664.14,-474.09"/>
<polygon fill="#63b8ff" stroke="#63b8ff" points="662.43,-477.15 672.91,-478.7 665.69,-470.95 662.43,-477.15"/>
</g>
<!-- Node63&#45;&gt;Node18 -->
<g id="edge68" class="edge">
<title>Node63&#45;&gt;Node18</title>
<path fill="none" stroke="#63b8ff" d="M489.22,-375.25C500.49,-375.25 513.53,-375.25 526.1,-375.25"/>
<polygon fill="#63b8ff" stroke="#63b8ff" points="525.93,-378.75 535.93,-375.25 525.93,-371.75 525.93,-378.75"/>
</g>
<!-- Node63&#45;&gt;Node31 -->
<g id="edge69" class="edge">
<title>Node63&#45;&gt;Node31</title>
<path fill="none" stroke="#63b8ff" d="M459.82,-365.52C470.79,-310.27 533.18,-38.25 698.5,-38.25 698.5,-38.25 698.5,-38.25 1077,-38.25 1166.34,-38.25 1190.6,-46.21 1274,-78.25 1287.36,-83.38 1301.18,-91.28 1312.28,-98.38"/>
<polygon fill="#63b8ff" stroke="#63b8ff" points="1310.09,-101.13 1320.35,-103.73 1313.95,-95.29 1310.09,-101.13"/>
</g>
<!-- Node103&#45;&gt;Node17 -->
<g id="edge71" class="edge">
<title>Node103&#45;&gt;Node17</title>
<path fill="none" stroke="#63b8ff" d="M488.95,-422.16C531.58,-435.81 608.53,-460.44 656.38,-475.76"/>
<polygon fill="#63b8ff" stroke="#63b8ff" points="655.26,-479.08 665.85,-478.79 657.39,-472.41 655.26,-479.08"/>
</g>
<!-- Node103&#45;&gt;Node18 -->
<g id="edge72" class="edge">
<title>Node103&#45;&gt;Node18</title>
<path fill="none" stroke="#63b8ff" d="M490.16,-402.33C503.88,-398.1 520.09,-393.1 534.83,-388.56"/>
<polygon fill="#63b8ff" stroke="#63b8ff" points="535.78,-391.93 544.31,-385.64 533.72,-385.24 535.78,-391.93"/>
</g>
</g>
</svg>
