<?xml version="1.0" encoding="UTF-8" standalone="no"?>
<!DOCTYPE svg PUBLIC "-//W3C//DTD SVG 1.1//EN"
 "http://www.w3.org/Graphics/SVG/1.1/DTD/svg11.dtd">
<!-- Generated by graphviz version 7.0.5 (20221223.1930)
 -->
<!-- Title: FailedPacket Pages: 1 -->
<svg width="1783pt" height="884pt"
 viewBox="0.00 0.00 1783.00 884.24" xmlns="http://www.w3.org/2000/svg" xmlns:xlink="http://www.w3.org/1999/xlink">
<g id="graph0" class="graph" transform="scale(1 1) rotate(0) translate(4 880.24)">
<title>FailedPacket</title>
<!-- Node1 -->
<g id="node1" class="node">
<title>Node1</title>
<g id="a_node1"><a xlink:title=" ">
<polygon fill="#999999" stroke="#666666" points="74,-587 0,-587 0,-568 74,-568 74,-587"/>
<text text-anchor="middle" x="37" y="-575" font-family="Helvetica,sans-Serif" font-size="10.00">FailedPacket</text>
</a>
</g>
</g>
<!-- Node2 -->
<g id="node2" class="node">
<title>Node2</title>
<g id="a_node2"><a xlink:href="TransmitterCode_2src_2main_8cpp.html#afd409fe008843b50c3e2ff697558d4d5" target="_top" xlink:title=" ">
<polygon fill="white" stroke="#666666" points="1126.5,-875 1034.5,-875 1034.5,-856 1126.5,-856 1126.5,-875"/>
<text text-anchor="middle" x="1080.5" y="-863" font-family="Helvetica,sans-Serif" font-size="10.00">LogThisLongGap</text>
</a>
</g>
</g>
<!-- Node1&#45;&gt;Node2 -->
<g id="edge1" class="edge">
<title>Node1&#45;&gt;Node2</title>
<path fill="none" stroke="#63b8ff" d="M41.2,-587.43C57.91,-637.13 139.99,-856.5 287.5,-856.5 287.5,-856.5 287.5,-856.5 776,-856.5 862.05,-856.5 961.75,-860.16 1022.72,-862.81"/>
<polygon fill="#63b8ff" stroke="#63b8ff" points="1022.35,-866.3 1032.5,-863.24 1022.66,-859.3 1022.35,-866.3"/>
</g>
<!-- Node13 -->
<g id="node13" class="node">
<title>Node13</title>
<g id="a_node13"><a xlink:href="RadioFunctions_8cpp.html#afc091b5942e21a03f6dc8635d5e519ba" target="_top" xlink:title=" ">
<polygon fill="white" stroke="#666666" points="981,-764 859,-764 859,-745 981,-745 981,-764"/>
<text text-anchor="middle" x="920" y="-752" font-family="Helvetica,sans-Serif" font-size="10.00">RecordsPacketSuccess</text>
</a>
</g>
</g>
<!-- Node1&#45;&gt;Node13 -->
<g id="edge15" class="edge">
<title>Node1&#45;&gt;Node13</title>
<path fill="none" stroke="#63b8ff" d="M42.27,-587.42C51.62,-608.07 75.85,-656.03 110,-683.5 176.21,-736.75 202.53,-754.5 287.5,-754.5 287.5,-754.5 287.5,-754.5 657,-754.5 721.41,-754.5 794.73,-754.5 847.4,-754.5"/>
<polygon fill="#63b8ff" stroke="#63b8ff" points="847.13,-758 857.13,-754.5 847.13,-751 847.13,-758"/>
</g>
<!-- Node14 -->
<g id="node14" class="node">
<title>Node14</title>
<g id="a_node14"><a xlink:href="TransmitterCode_2src_2main_8cpp.html#a7d34cec6e8edc20c8b50424e15dcc7c7" target="_top" xlink:title=" ">
<polygon fill="white" stroke="#666666" points="185.5,-454 122.5,-454 122.5,-435 185.5,-435 185.5,-454"/>
<text text-anchor="middle" x="154" y="-442" font-family="Helvetica,sans-Serif" font-size="10.00">RedLedOn</text>
</a>
</g>
</g>
<!-- Node1&#45;&gt;Node14 -->
<g id="edge16" class="edge">
<title>Node1&#45;&gt;Node14</title>
<path fill="none" stroke="#63b8ff" d="M46.64,-567.5C65.89,-545.25 112.49,-491.35 137.13,-462.86"/>
<polygon fill="#63b8ff" stroke="#63b8ff" points="139.69,-465.25 143.58,-455.4 134.39,-460.67 139.69,-465.25"/>
</g>
<!-- Node97 -->
<g id="node46" class="node">
<title>Node97</title>
<g id="a_node46"><a xlink:href="TransmitterCode_2src_2main_8cpp.html#a0a3d89dfcfab70c6cbc50401fff1afeb" target="_top" xlink:title=" ">
<polygon fill="white" stroke="#666666" points="343,-93 234,-93 234,-74 343,-74 343,-93"/>
<text text-anchor="middle" x="288.5" y="-81" font-family="Helvetica,sans-Serif" font-size="10.00">ReEnableScanButton</text>
</a>
</g>
</g>
<!-- Node1&#45;&gt;Node97 -->
<g id="edge71" class="edge">
<title>Node1&#45;&gt;Node97</title>
<path fill="none" stroke="#63b8ff" d="M39.37,-567.76C47.37,-514.18 92.76,-252.55 234,-107.5 237.28,-104.14 241.11,-101.2 245.19,-98.66"/>
<polygon fill="#63b8ff" stroke="#63b8ff" points="246.52,-101.92 253.69,-94.12 243.22,-95.75 246.52,-101.92"/>
</g>
<!-- Node98 -->
<g id="node47" class="node">
<title>Node98</title>
<g id="a_node47"><a xlink:href="RadioFunctions_8cpp.html#ad0236abcfc887ad708d9504c4ab2a7c3" target="_top" xlink:title=" ">
<polygon fill="white" stroke="#666666" points="198,-56 110,-56 110,-37 198,-37 198,-56"/>
<text text-anchor="middle" x="154" y="-44" font-family="Helvetica,sans-Serif" font-size="10.00">TryToReconnect</text>
</a>
</g>
</g>
<!-- Node1&#45;&gt;Node98 -->
<g id="edge74" class="edge">
<title>Node1&#45;&gt;Node98</title>
<path fill="none" stroke="#63b8ff" d="M40.1,-567.6C48.68,-527.13 81.99,-370.33 110,-241.5 123.83,-177.86 140.52,-102.62 148.42,-67.07"/>
<polygon fill="#63b8ff" stroke="#63b8ff" points="151.75,-68.23 150.5,-57.71 144.92,-66.71 151.75,-68.23"/>
</g>
<!-- Node3 -->
<g id="node3" class="node">
<title>Node3</title>
<g id="a_node3"><a xlink:href="TransmitterCode_2src_2main_8cpp.html#add8d8f400f1c1c4a5add52736cdf94ca" target="_top" xlink:title=" ">
<polygon fill="white" stroke="#666666" points="1268.5,-799 1216.5,-799 1216.5,-780 1268.5,-780 1268.5,-799"/>
<text text-anchor="middle" x="1242.5" y="-787" font-family="Helvetica,sans-Serif" font-size="10.00">LogText</text>
</a>
</g>
</g>
<!-- Node2&#45;&gt;Node3 -->
<g id="edge2" class="edge">
<title>Node2&#45;&gt;Node3</title>
<path fill="none" stroke="#63b8ff" d="M1109.49,-855.59C1120.39,-851.52 1132.9,-846.57 1144,-841.5 1168.44,-830.34 1195.32,-815.83 1214.66,-804.97"/>
<polygon fill="#63b8ff" stroke="#63b8ff" points="1216.27,-808.08 1223.25,-800.1 1212.82,-801.99 1216.27,-808.08"/>
</g>
<!-- Node8 -->
<g id="node8" class="node">
<title>Node8</title>
<g id="a_node8"><a xlink:href="TransmitterCode_2src_2main_8cpp.html#a590a9174319918d7e3d7baca323fcf26" target="_top" xlink:title=" ">
<polygon fill="white" stroke="#666666" points="1775,-705 1746,-705 1746,-686 1775,-686 1775,-705"/>
<text text-anchor="middle" x="1760.5" y="-693" font-family="Helvetica,sans-Serif" font-size="10.00">Str</text>
</a>
</g>
</g>
<!-- Node2&#45;&gt;Node8 -->
<g id="edge14" class="edge">
<title>Node2&#45;&gt;Node8</title>
<path fill="none" stroke="#63b8ff" d="M1126.75,-865.5C1186.06,-865.5 1293.32,-865.5 1385,-865.5 1385,-865.5 1385,-865.5 1522,-865.5 1605.98,-865.5 1644.56,-899.13 1710,-846.5 1749.84,-814.46 1757.94,-749.67 1759.37,-716.35"/>
<polygon fill="#63b8ff" stroke="#63b8ff" points="1762.86,-716.84 1759.61,-706.76 1755.86,-716.67 1762.86,-716.84"/>
</g>
<!-- Node4 -->
<g id="node4" class="node">
<title>Node4</title>
<g id="a_node4"><a xlink:href="TransmitterCode_2src_2main_8cpp.html#a6f003363493fc53b69f9efc1f447a6a1" target="_top" xlink:title=" ">
<polygon fill="white" stroke="#666666" points="1423,-799 1349,-799 1349,-780 1423,-780 1423,-799"/>
<text text-anchor="middle" x="1386" y="-787" font-family="Helvetica,sans-Serif" font-size="10.00">CloseLogFile</text>
</a>
</g>
</g>
<!-- Node3&#45;&gt;Node4 -->
<g id="edge3" class="edge">
<title>Node3&#45;&gt;Node4</title>
<path fill="none" stroke="#63b8ff" d="M1268.8,-789.5C1287.84,-789.5 1314.5,-789.5 1337.48,-789.5"/>
<polygon fill="#63b8ff" stroke="#63b8ff" points="1337.24,-793 1347.24,-789.5 1337.24,-786 1337.24,-793"/>
</g>
<!-- Node5 -->
<g id="node5" class="node">
<title>Node5</title>
<g id="a_node5"><a xlink:href="TransmitterCode_2src_2main_8cpp.html#a99a51dbad5d686ca711e982f82cbcada" target="_top" xlink:title=" ">
<polygon fill="white" stroke="#666666" points="1431,-762 1341,-762 1341,-743 1431,-743 1431,-762"/>
<text text-anchor="middle" x="1386" y="-750" font-family="Helvetica,sans-Serif" font-size="10.00">LogFilePreamble</text>
</a>
</g>
</g>
<!-- Node3&#45;&gt;Node5 -->
<g id="edge4" class="edge">
<title>Node3&#45;&gt;Node5</title>
<path fill="none" stroke="#63b8ff" d="M1268.8,-782.89C1287.36,-778.03 1313.17,-771.28 1335.75,-765.38"/>
<polygon fill="#63b8ff" stroke="#63b8ff" points="1336.61,-768.77 1345.4,-762.85 1334.84,-762 1336.61,-768.77"/>
</g>
<!-- Node12 -->
<g id="node12" class="node">
<title>Node12</title>
<g id="a_node12"><a xlink:href="TransmitterCode_2src_2main_8cpp.html#a99154e537ca6e0ce5d538fddf0c2aab3" target="_top" xlink:title=" ">
<polygon fill="white" stroke="#666666" points="1562.5,-724 1479.5,-724 1479.5,-705 1562.5,-705 1562.5,-724"/>
<text text-anchor="middle" x="1521" y="-712" font-family="Helvetica,sans-Serif" font-size="10.00">WriteToLogFile</text>
</a>
</g>
</g>
<!-- Node3&#45;&gt;Node12 -->
<g id="edge13" class="edge">
<title>Node3&#45;&gt;Node12</title>
<path fill="none" stroke="#63b8ff" d="M1256.89,-779.61C1274.96,-766.82 1308.64,-744.95 1341,-734.5 1382.35,-721.14 1431.55,-716.39 1467.9,-714.84"/>
<polygon fill="#63b8ff" stroke="#63b8ff" points="1467.84,-718.35 1477.71,-714.5 1467.59,-711.35 1467.84,-718.35"/>
</g>
<!-- Node6 -->
<g id="node6" class="node">
<title>Node6</title>
<g id="a_node6"><a xlink:href="TransmitterCode_2src_2main_8cpp.html#ac45f2f949ccfa372a8cbab3ef0b8caa8" target="_top" xlink:title=" ">
<polygon fill="white" stroke="#666666" points="1575,-761 1467,-761 1467,-742 1575,-742 1575,-761"/>
<text text-anchor="middle" x="1521" y="-749" font-family="Helvetica,sans-Serif" font-size="10.00">CheckLogFileIsOpen</text>
</a>
</g>
</g>
<!-- Node5&#45;&gt;Node6 -->
<g id="edge5" class="edge">
<title>Node5&#45;&gt;Node6</title>
<path fill="none" stroke="#63b8ff" d="M1431.29,-752.17C1438.99,-752.11 1447.14,-752.05 1455.26,-751.99"/>
<polygon fill="#63b8ff" stroke="#63b8ff" points="1455.18,-755.49 1465.15,-751.91 1455.13,-748.49 1455.18,-755.49"/>
</g>
<!-- Node10 -->
<g id="node10" class="node">
<title>Node10</title>
<g id="a_node10"><a xlink:href="TransmitterCode_2src_2main_8cpp.html#a5d42b1fba153cc76dc96778cfb6f1a40" target="_top" xlink:title=" ">
<polygon fill="white" stroke="#666666" points="1568.5,-799 1473.5,-799 1473.5,-780 1568.5,-780 1568.5,-799"/>
<text text-anchor="middle" x="1521" y="-787" font-family="Helvetica,sans-Serif" font-size="10.00">CreateTimeStamp</text>
</a>
</g>
</g>
<!-- Node5&#45;&gt;Node10 -->
<g id="edge9" class="edge">
<title>Node5&#45;&gt;Node10</title>
<path fill="none" stroke="#63b8ff" d="M1422.64,-762.42C1438.3,-766.77 1456.88,-771.94 1473.6,-776.59"/>
<polygon fill="#63b8ff" stroke="#63b8ff" points="1472.23,-779.84 1482.8,-779.15 1474.11,-773.1 1472.23,-779.84"/>
</g>
<!-- Node5&#45;&gt;Node12 -->
<g id="edge12" class="edge">
<title>Node5&#45;&gt;Node12</title>
<path fill="none" stroke="#63b8ff" d="M1421.94,-742.52C1437.98,-737.93 1457.2,-732.44 1474.36,-727.54"/>
<polygon fill="#63b8ff" stroke="#63b8ff" points="1475.18,-730.95 1483.83,-724.83 1473.26,-724.22 1475.18,-730.95"/>
</g>
<!-- Node7 -->
<g id="node7" class="node">
<title>Node7</title>
<g id="a_node7"><a xlink:href="TransmitterCode_2src_2main_8cpp.html#a05c7b4e0b98f9b97eebf9617442de6a5" target="_top" xlink:title=" ">
<polygon fill="white" stroke="#666666" points="1710,-724 1611,-724 1611,-705 1710,-705 1710,-724"/>
<text text-anchor="middle" x="1660.5" y="-712" font-family="Helvetica,sans-Serif" font-size="10.00">MakeLogFileName</text>
</a>
</g>
</g>
<!-- Node6&#45;&gt;Node7 -->
<g id="edge6" class="edge">
<title>Node6&#45;&gt;Node7</title>
<path fill="none" stroke="#63b8ff" d="M1558.85,-741.58C1575.03,-737.23 1594.24,-732.06 1611.53,-727.41"/>
<polygon fill="#63b8ff" stroke="#63b8ff" points="1612.34,-730.81 1621.09,-724.84 1610.52,-724.05 1612.34,-730.81"/>
</g>
<!-- Node9 -->
<g id="node9" class="node">
<title>Node9</title>
<g id="a_node9"><a xlink:href="TransmitterCode_2src_2main_8cpp.html#ad2d22d4683c318454ab9a1dd15e1f647" target="_top" xlink:title=" ">
<polygon fill="white" stroke="#666666" points="1701,-761 1620,-761 1620,-742 1701,-742 1701,-761"/>
<text text-anchor="middle" x="1660.5" y="-749" font-family="Helvetica,sans-Serif" font-size="10.00">OpenLogFileW</text>
</a>
</g>
</g>
<!-- Node6&#45;&gt;Node9 -->
<g id="edge8" class="edge">
<title>Node6&#45;&gt;Node9</title>
<path fill="none" stroke="#63b8ff" d="M1575.16,-751.5C1586.04,-751.5 1597.47,-751.5 1608.27,-751.5"/>
<polygon fill="#63b8ff" stroke="#63b8ff" points="1608.19,-755 1618.19,-751.5 1608.19,-748 1608.19,-755"/>
</g>
<!-- Node7&#45;&gt;Node8 -->
<g id="edge7" class="edge">
<title>Node7&#45;&gt;Node8</title>
<path fill="none" stroke="#63b8ff" d="M1710.5,-705C1718.94,-703.36 1727.38,-701.73 1734.82,-700.29"/>
<polygon fill="#63b8ff" stroke="#63b8ff" points="1735.24,-703.77 1744.39,-698.43 1733.9,-696.9 1735.24,-703.77"/>
</g>
<!-- Node10&#45;&gt;Node8 -->
<g id="edge11" class="edge">
<title>Node10&#45;&gt;Node8</title>
<path fill="none" stroke="#63b8ff" d="M1568.75,-795.42C1609.06,-798.17 1667.34,-796.31 1710,-770.5 1730.49,-758.11 1744.2,-733.61 1751.9,-715.99"/>
<polygon fill="#63b8ff" stroke="#63b8ff" points="1755.13,-717.34 1755.62,-706.75 1748.64,-714.72 1755.13,-717.34"/>
</g>
<!-- Node11 -->
<g id="node11" class="node">
<title>Node11</title>
<g id="a_node11"><a xlink:href="TransmitterCode_2src_2main_8cpp.html#ae310e7fc6397929ae886869c05cbc334" target="_top" xlink:title=" ">
<polygon fill="white" stroke="#666666" points="1702,-837 1619,-837 1619,-818 1702,-818 1702,-837"/>
<text text-anchor="middle" x="1660.5" y="-825" font-family="Helvetica,sans-Serif" font-size="10.00">MayBeAddZero</text>
</a>
</g>
</g>
<!-- Node10&#45;&gt;Node11 -->
<g id="edge10" class="edge">
<title>Node10&#45;&gt;Node11</title>
<path fill="none" stroke="#63b8ff" d="M1558.13,-799.48C1574.78,-804.09 1594.77,-809.61 1612.57,-814.53"/>
<polygon fill="#63b8ff" stroke="#63b8ff" points="1611.58,-817.89 1622.16,-817.18 1613.45,-811.14 1611.58,-817.89"/>
</g>
<!-- Node15 -->
<g id="node15" class="node">
<title>Node15</title>
<g id="a_node15"><a xlink:href="TransmitterCode_2src_2main_8cpp.html#a549a702bb9b539c6b3a4f20cce65adcc" target="_top" xlink:title=" ">
<polygon fill="white" stroke="#666666" points="1129.5,-499 1031.5,-499 1031.5,-480 1129.5,-480 1129.5,-499"/>
<text text-anchor="middle" x="1080.5" y="-487" font-family="Helvetica,sans-Serif" font-size="10.00">GetLEDBrightness</text>
</a>
</g>
</g>
<!-- Node14&#45;&gt;Node15 -->
<g id="edge17" class="edge">
<title>Node14&#45;&gt;Node15</title>
<path fill="none" stroke="#63b8ff" d="M169.33,-454.39C203.62,-477.36 293.87,-533.89 379,-553.5 640.45,-613.74 716.67,-554.49 981,-508.5 993.67,-506.3 1007.23,-503.78 1020.11,-501.32"/>
<polygon fill="#63b8ff" stroke="#63b8ff" points="1020.58,-504.79 1029.73,-499.47 1019.25,-497.92 1020.58,-504.79"/>
</g>
<!-- Node16 -->
<g id="node16" class="node">
<title>Node16</title>
<g id="a_node16"><a xlink:href="TransmitterCode_2src_2main_8cpp.html#a2d5ec5fd5ed62d5b7b071fabe2225405" target="_top" xlink:title=" ">
<polygon fill="white" stroke="#666666" points="475,-680 379,-680 379,-661 475,-661 475,-680"/>
<text text-anchor="middle" x="427" y="-668" font-family="Helvetica,sans-Serif" font-size="10.00">LogDisConnection</text>
</a>
</g>
</g>
<!-- Node14&#45;&gt;Node16 -->
<g id="edge18" class="edge">
<title>Node14&#45;&gt;Node16</title>
<path fill="none" stroke="#63b8ff" d="M156.08,-454.4C160.02,-485.55 176.57,-582.22 234,-629.5 271.16,-660.1 325.75,-669.41 367.23,-671.62"/>
<polygon fill="#63b8ff" stroke="#63b8ff" points="366.92,-675.11 377.05,-672 367.19,-668.11 366.92,-675.11"/>
</g>
<!-- Node17 -->
<g id="node17" class="node">
<title>Node17</title>
<g id="a_node17"><a xlink:href="TransmitterCode_2src_2main_8cpp.html#aa490b4664b0a4498d53b30b82287d5df" target="_top" xlink:title=" ">
<polygon fill="white" stroke="#666666" points="320,-454 257,-454 257,-435 320,-435 320,-454"/>
<text text-anchor="middle" x="288.5" y="-442" font-family="Helvetica,sans-Serif" font-size="10.00">PlaySound</text>
</a>
</g>
</g>
<!-- Node14&#45;&gt;Node17 -->
<g id="edge20" class="edge">
<title>Node14&#45;&gt;Node17</title>
<path fill="none" stroke="#63b8ff" d="M185.73,-444.5C203.54,-444.5 226.21,-444.5 245.64,-444.5"/>
<polygon fill="#63b8ff" stroke="#63b8ff" points="245.42,-448 255.42,-444.5 245.42,-441 245.42,-448"/>
</g>
<!-- Node18 -->
<g id="node18" class="node">
<title>Node18</title>
<g id="a_node18"><a xlink:href="TransmitterCode_2src_2main_8cpp.html#aecac2f0c289f02ef3c92b85be82eacac" target="_top" xlink:title=" ">
<polygon fill="white" stroke="#666666" points="468.5,-321 385.5,-321 385.5,-302 468.5,-302 468.5,-321"/>
<text text-anchor="middle" x="427" y="-309" font-family="Helvetica,sans-Serif" font-size="10.00">SendCommand</text>
</a>
</g>
</g>
<!-- Node14&#45;&gt;Node18 -->
<g id="edge68" class="edge">
<title>Node14&#45;&gt;Node18</title>
<path fill="none" stroke="#63b8ff" d="M163.47,-434.58C176.95,-419.38 204.75,-390.33 234,-373.5 278.17,-348.08 334.14,-331.53 374.24,-321.98"/>
<polygon fill="#63b8ff" stroke="#63b8ff" points="374.93,-325.41 383.89,-319.75 373.36,-318.59 374.93,-325.41"/>
</g>
<!-- Node28 -->
<g id="node28" class="node">
<title>Node28</title>
<g id="a_node28"><a xlink:href="ReceiverCode_2src_2main_8cpp.html#a2eabdb233653fa02f0b899e26b5e8ce7" target="_top" xlink:title=" ">
<polygon fill="white" stroke="#666666" points="969.5,-462 870.5,-462 870.5,-443 969.5,-443 969.5,-462"/>
<text text-anchor="middle" x="920" y="-450" font-family="Helvetica,sans-Serif" font-size="10.00">SetUKFrequencies</text>
</a>
</g>
</g>
<!-- Node14&#45;&gt;Node28 -->
<g id="edge70" class="edge">
<title>Node14&#45;&gt;Node28</title>
<path fill="none" stroke="#63b8ff" d="M185.87,-435.78C200.35,-432.12 217.92,-428.31 234,-426.5 282.14,-421.08 294.57,-425.41 343,-426.5 531.34,-430.75 754.05,-442.8 858.82,-448.89"/>
<polygon fill="#63b8ff" stroke="#63b8ff" points="858.4,-452.37 868.58,-449.46 858.81,-445.38 858.4,-452.37"/>
</g>
<!-- Node40 -->
<g id="node38" class="node">
<title>Node40</title>
<g id="a_node38"><a xlink:href="TransmitterCode_2src_2main_8cpp.html#afe513398f72d5e48f691830a1ef6eb42" target="_top" xlink:title=" ">
<polygon fill="white" stroke="#666666" points="1271.5,-169 1213.5,-169 1213.5,-150 1271.5,-150 1271.5,-169"/>
<text text-anchor="middle" x="1242.5" y="-157" font-family="Helvetica,sans-Serif" font-size="10.00">SendText</text>
</a>
</g>
</g>
<!-- Node14&#45;&gt;Node40 -->
<g id="edge69" class="edge">
<title>Node14&#45;&gt;Node40</title>
<path fill="none" stroke="#63b8ff" d="M157.71,-434.83C173.42,-381.09 258.01,-121.5 426,-121.5 426,-121.5 426,-121.5 921,-121.5 1022.91,-121.5 1141.78,-140.68 1202.08,-151.79"/>
<polygon fill="#63b8ff" stroke="#63b8ff" points="1201.38,-155.22 1211.85,-153.61 1202.66,-148.34 1201.38,-155.22"/>
</g>
<!-- Node16&#45;&gt;Node3 -->
<g id="edge19" class="edge">
<title>Node16&#45;&gt;Node3</title>
<path fill="none" stroke="#63b8ff" d="M458.51,-680.43C544.91,-707.94 799.06,-784.65 1017,-808.5 1073.11,-814.64 1087.82,-813.92 1144,-808.5 1164.37,-806.53 1186.81,-802.31 1205.02,-798.34"/>
<polygon fill="#63b8ff" stroke="#63b8ff" points="1205.57,-801.8 1214.56,-796.19 1204.04,-794.97 1205.57,-801.8"/>
</g>
<!-- Node17&#45;&gt;Node8 -->
<g id="edge67" class="edge">
<title>Node17&#45;&gt;Node8</title>
<path fill="none" stroke="#63b8ff" d="M310.91,-454.39C349.76,-471.75 434.92,-507.14 511,-520.5 689.63,-551.87 737.64,-527.5 919,-527.5 919,-527.5 919,-527.5 1522,-527.5 1624.4,-527.5 1713.57,-632.87 1746.24,-676.71"/>
<polygon fill="#63b8ff" stroke="#63b8ff" points="1743.38,-678.73 1752.09,-684.76 1749.04,-674.62 1743.38,-678.73"/>
</g>
<!-- Node17&#45;&gt;Node18 -->
<g id="edge21" class="edge">
<title>Node17&#45;&gt;Node18</title>
<path fill="none" stroke="#63b8ff" d="M299.76,-434.5C322.8,-412.06 378.88,-357.41 407.92,-329.12"/>
<polygon fill="#63b8ff" stroke="#63b8ff" points="410.19,-331.79 414.91,-322.31 405.3,-326.78 410.19,-331.79"/>
</g>
<!-- Node19 -->
<g id="node19" class="node">
<title>Node19</title>
<g id="a_node19"><a xlink:href="TransmitterCode_2src_2main_8cpp.html#a43937dd3d9c795271fd9c3eb3c6b6410" target="_top" xlink:title=" ">
<polygon fill="white" stroke="#666666" points="1427.5,-188 1344.5,-188 1344.5,-169 1427.5,-169 1427.5,-188"/>
<text text-anchor="middle" x="1386" y="-176" font-family="Helvetica,sans-Serif" font-size="10.00">GetReturnCode</text>
</a>
</g>
</g>
<!-- Node18&#45;&gt;Node19 -->
<g id="edge22" class="edge">
<title>Node18&#45;&gt;Node19</title>
<path fill="none" stroke="#63b8ff" d="M435.51,-301.53C448.8,-284.62 478.17,-250.42 511,-232.5 568.81,-200.95 589.14,-197.5 655,-197.5 655,-197.5 655,-197.5 1081.5,-197.5 1170.03,-197.5 1272.81,-189.35 1333.18,-183.72"/>
<polygon fill="#63b8ff" stroke="#63b8ff" points="1333.17,-187.24 1342.8,-182.81 1332.51,-180.27 1333.17,-187.24"/>
</g>
<!-- Node20 -->
<g id="node20" class="node">
<title>Node20</title>
<g id="a_node20"><a xlink:href="TransmitterCode_2src_2main_8cpp.html#a5f109790a6fe0b972a502f3cac4ed1e7" target="_top" xlink:title=" ">
<polygon fill="white" stroke="#666666" points="572,-283 524,-283 524,-264 572,-264 572,-283"/>
<text text-anchor="middle" x="548" y="-271" font-family="Helvetica,sans-Serif" font-size="10.00">InStrng</text>
</a>
</g>
</g>
<!-- Node18&#45;&gt;Node20 -->
<g id="edge23" class="edge">
<title>Node18&#45;&gt;Node20</title>
<path fill="none" stroke="#63b8ff" d="M459.27,-301.52C475.87,-296.21 496.3,-289.69 513.27,-284.27"/>
<polygon fill="#63b8ff" stroke="#63b8ff" points="513.94,-287.73 522.4,-281.36 511.81,-281.06 513.94,-287.73"/>
</g>
<!-- Node21 -->
<g id="node21" class="node">
<title>Node21</title>
<g id="a_node21"><a xlink:href="RadioFunctions_8cpp.html#a760609a682300dfe6bfaac737fd4d5eb" target="_top" xlink:title=" ">
<polygon fill="white" stroke="#666666" points="585,-511 511,-511 511,-492 585,-492 585,-511"/>
<text text-anchor="middle" x="548" y="-499" font-family="Helvetica,sans-Serif" font-size="10.00">Procrastinate</text>
</a>
</g>
</g>
<!-- Node18&#45;&gt;Node21 -->
<g id="edge24" class="edge">
<title>Node18&#45;&gt;Node21</title>
<path fill="none" stroke="#63b8ff" d="M434.23,-321.45C453.07,-351.52 509.66,-441.89 534.77,-481.98"/>
<polygon fill="#63b8ff" stroke="#63b8ff" points="531.75,-483.75 540.03,-490.37 537.69,-480.04 531.75,-483.75"/>
</g>
<!-- Node22 -->
<g id="node22" class="node">
<title>Node22</title>
<g id="a_node22"><a xlink:href="TransmitterCode_2src_2main_8cpp.html#ada95a00a341e4a80176eda743a94ab2e" target="_top" xlink:title=" ">
<polygon fill="white" stroke="#666666" points="691,-511 621,-511 621,-492 691,-492 691,-511"/>
<text text-anchor="middle" x="656" y="-499" font-family="Helvetica,sans-Serif" font-size="10.00">KickTheDog</text>
</a>
</g>
</g>
<!-- Node21&#45;&gt;Node22 -->
<g id="edge25" class="edge">
<title>Node21&#45;&gt;Node22</title>
<path fill="none" stroke="#63b8ff" d="M585.48,-501.5C593.12,-501.5 601.28,-501.5 609.21,-501.5"/>
<polygon fill="#63b8ff" stroke="#63b8ff" points="609.08,-505 619.08,-501.5 609.08,-498 609.08,-505"/>
</g>
<!-- Node23 -->
<g id="node23" class="node">
<title>Node23</title>
<g id="a_node23"><a xlink:href="RadioFunctions_8cpp.html#a049bfb836e7aa4a3a48a1a4bd225fafc" target="_top" xlink:title=" ">
<polygon fill="white" stroke="#666666" points="685.5,-644 626.5,-644 626.5,-625 685.5,-625 685.5,-644"/>
<text text-anchor="middle" x="656" y="-632" font-family="Helvetica,sans-Serif" font-size="10.00">SendData</text>
</a>
</g>
</g>
<!-- Node21&#45;&gt;Node23 -->
<g id="edge26" class="edge">
<title>Node21&#45;&gt;Node23</title>
<path fill="none" stroke="#63b8ff" d="M556.97,-511.5C574.63,-533.65 617.29,-587.18 640.07,-615.77"/>
<polygon fill="#63b8ff" stroke="#63b8ff" points="637.32,-617.93 646.29,-623.57 642.79,-613.56 637.32,-617.93"/>
</g>
<!-- Node23&#45;&gt;Node1 -->
<g id="edge27" class="edge">
<title>Node23&#45;&gt;Node1</title>
<path fill="none" stroke="#63b8ff" d="M639.46,-644.39C603.67,-666.2 512.01,-716.5 428,-716.5 287.5,-716.5 287.5,-716.5 287.5,-716.5 189.26,-716.5 93.65,-633.25 55.43,-595.6"/>
<polygon fill="#63b8ff" stroke="#63b8ff" points="57.97,-593.2 48.44,-588.57 53.01,-598.13 57.97,-593.2"/>
</g>
<!-- Node24 -->
<g id="node24" class="node">
<title>Node24</title>
<g id="a_node24"><a xlink:href="RadioFunctions_8cpp.html#a07c27b4e208198453c70876517926052" target="_top" xlink:title=" ">
<polygon fill="white" stroke="#666666" points="806,-613 744,-613 744,-594 806,-594 806,-613"/>
<text text-anchor="middle" x="775" y="-601" font-family="Helvetica,sans-Serif" font-size="10.00">FlushFifos</text>
</a>
</g>
</g>
<!-- Node23&#45;&gt;Node24 -->
<g id="edge28" class="edge">
<title>Node23&#45;&gt;Node24</title>
<path fill="none" stroke="#63b8ff" d="M685.92,-626.84C700.08,-623.09 717.37,-618.5 732.88,-614.4"/>
<polygon fill="#63b8ff" stroke="#63b8ff" points="733.55,-617.84 742.32,-611.89 731.75,-611.07 733.55,-617.84"/>
</g>
<!-- Node25 -->
<g id="node25" class="node">
<title>Node25</title>
<g id="a_node25"><a xlink:href="TransmitterCode_2src_2main_8cpp.html#ac4ffb9b555ce8d38f615610dc89b5499" target="_top" xlink:title=" ">
<polygon fill="white" stroke="#666666" points="819.5,-397 730.5,-397 730.5,-378 819.5,-378 819.5,-397"/>
<text text-anchor="middle" x="775" y="-385" font-family="Helvetica,sans-Serif" font-size="10.00">LoadPacketData</text>
</a>
</g>
</g>
<!-- Node23&#45;&gt;Node25 -->
<g id="edge29" class="edge">
<title>Node23&#45;&gt;Node25</title>
<path fill="none" stroke="#63b8ff" d="M661.73,-624.51C679.26,-587.5 740.73,-457.75 764.51,-407.54"/>
<polygon fill="#63b8ff" stroke="#63b8ff" points="767.57,-409.25 768.69,-398.71 761.25,-406.25 767.57,-409.25"/>
</g>
<!-- Node29 -->
<g id="node29" class="node">
<title>Node29</title>
<g id="a_node29"><a xlink:href="ReceiverCode_2src_2main_8cpp.html#a6a495c5560f12cc3fd3df9454927d681" target="_top" xlink:title=" ">
<polygon fill="white" stroke="#666666" points="812,-650 738,-650 738,-631 812,-631 812,-650"/>
<text text-anchor="middle" x="775" y="-638" font-family="Helvetica,sans-Serif" font-size="10.00">MapToSBUS</text>
</a>
</g>
</g>
<!-- Node23&#45;&gt;Node29 -->
<g id="edge34" class="edge">
<title>Node23&#45;&gt;Node29</title>
<path fill="none" stroke="#63b8ff" d="M685.92,-635.98C698.19,-636.61 712.81,-637.36 726.58,-638.07"/>
<polygon fill="#63b8ff" stroke="#63b8ff" points="726.19,-641.55 736.36,-638.57 726.55,-634.56 726.19,-641.55"/>
</g>
<!-- Node30 -->
<g id="node30" class="node">
<title>Node30</title>
<g id="a_node30"><a xlink:href="RadioFunctions_8cpp.html#a1c11bb6771548de7d96723045b922620" target="_top" xlink:title=" ">
<polygon fill="white" stroke="#666666" points="823,-687 727,-687 727,-668 823,-668 823,-687"/>
<text text-anchor="middle" x="775" y="-675" font-family="Helvetica,sans-Serif" font-size="10.00">SuccessfulPacket</text>
</a>
</g>
</g>
<!-- Node23&#45;&gt;Node30 -->
<g id="edge35" class="edge">
<title>Node23&#45;&gt;Node30</title>
<path fill="none" stroke="#63b8ff" d="M684.14,-644.47C699.64,-650.17 719.32,-657.4 736.31,-663.65"/>
<polygon fill="#63b8ff" stroke="#63b8ff" points="735,-666.89 745.59,-667.06 737.41,-660.32 735,-666.89"/>
</g>
<!-- Node25&#45;&gt;Node18 -->
<g id="edge31" class="edge">
<title>Node25&#45;&gt;Node18</title>
<path fill="none" stroke="#63b8ff" d="M730.19,-377.88C666.26,-363.83 547.64,-337.78 479.59,-322.83"/>
<polygon fill="#63b8ff" stroke="#63b8ff" points="480.7,-319.49 470.19,-320.77 479.2,-326.33 480.7,-319.49"/>
</g>
<!-- Node26 -->
<g id="node26" class="node">
<title>Node26</title>
<g id="a_node26"><a xlink:href="TransmitterCode_2src_2main_8cpp.html#a5aa4888b924a4f1d95e9cedc3004f2b6" target="_top" xlink:title=" ">
<polygon fill="white" stroke="#666666" points="961.5,-425 878.5,-425 878.5,-406 961.5,-406 961.5,-425"/>
<text text-anchor="middle" x="920" y="-413" font-family="Helvetica,sans-Serif" font-size="10.00">MakeTwobytes</text>
</a>
</g>
</g>
<!-- Node25&#45;&gt;Node26 -->
<g id="edge30" class="edge">
<title>Node25&#45;&gt;Node26</title>
<path fill="none" stroke="#63b8ff" d="M819.68,-396.05C834.62,-398.98 851.48,-402.28 867,-405.32"/>
<polygon fill="#63b8ff" stroke="#63b8ff" points="866.06,-408.7 876.54,-407.19 867.4,-401.83 866.06,-408.7"/>
</g>
<!-- Node27 -->
<g id="node27" class="node">
<title>Node27</title>
<g id="a_node27"><a xlink:href="ReceiverCode_2src_2main_8cpp.html#a31a35307bbac88ceda244272f25d399a" target="_top" xlink:title=" ">
<polygon fill="white" stroke="#666666" points="972,-388 868,-388 868,-369 972,-369 972,-388"/>
<text text-anchor="middle" x="920" y="-376" font-family="Helvetica,sans-Serif" font-size="10.00">SetTestFrequencies</text>
</a>
</g>
</g>
<!-- Node25&#45;&gt;Node27 -->
<g id="edge32" class="edge">
<title>Node25&#45;&gt;Node27</title>
<path fill="none" stroke="#63b8ff" d="M819.68,-384.75C831.25,-384.02 843.98,-383.22 856.34,-382.44"/>
<polygon fill="#63b8ff" stroke="#63b8ff" points="856.28,-385.95 866.04,-381.83 855.84,-378.97 856.28,-385.95"/>
</g>
<!-- Node25&#45;&gt;Node28 -->
<g id="edge33" class="edge">
<title>Node25&#45;&gt;Node28</title>
<path fill="none" stroke="#63b8ff" d="M796.35,-397.36C804.71,-401.54 814.41,-406.58 823,-411.5 839.47,-420.94 841.74,-426.59 859,-434.5 862.31,-436.02 865.78,-437.45 869.32,-438.79"/>
<polygon fill="#63b8ff" stroke="#63b8ff" points="867.98,-442.03 878.58,-442.02 870.29,-435.42 867.98,-442.03"/>
</g>
<!-- Node30&#45;&gt;Node13 -->
<g id="edge65" class="edge">
<title>Node30&#45;&gt;Node13</title>
<path fill="none" stroke="#63b8ff" d="M794.4,-687.41C818.86,-700.58 862.3,-723.97 890.87,-739.36"/>
<polygon fill="#63b8ff" stroke="#63b8ff" points="888.87,-742.25 899.34,-743.91 892.19,-736.09 888.87,-742.25"/>
</g>
<!-- Node31 -->
<g id="node31" class="node">
<title>Node31</title>
<g id="a_node31"><a xlink:href="TransmitterCode_2src_2main_8cpp.html#a953f1d5046e183549ed95b08f6d675e3" target="_top" xlink:title=" ">
<polygon fill="white" stroke="#666666" points="969,-688 871,-688 871,-669 969,-669 969,-688"/>
<text text-anchor="middle" x="920" y="-676" font-family="Helvetica,sans-Serif" font-size="10.00">CheckGapsLength</text>
</a>
</g>
</g>
<!-- Node30&#45;&gt;Node31 -->
<g id="edge36" class="edge">
<title>Node30&#45;&gt;Node31</title>
<path fill="none" stroke="#63b8ff" d="M823.22,-677.83C834.81,-677.91 847.37,-678 859.45,-678.08"/>
<polygon fill="#63b8ff" stroke="#63b8ff" points="859.31,-681.58 869.34,-678.15 859.36,-674.58 859.31,-681.58"/>
</g>
<!-- Node33 -->
<g id="node33" class="node">
<title>Node33</title>
<g id="a_node33"><a xlink:href="TransmitterCode_2src_2main_8cpp.html#a62e53eb9359c32b666e3386d62c57037" target="_top" xlink:title=" ">
<polygon fill="white" stroke="#666666" points="956,-499 884,-499 884,-480 956,-480 956,-499"/>
<text text-anchor="middle" x="920" y="-487" font-family="Helvetica,sans-Serif" font-size="10.00">GreenLedOn</text>
</a>
</g>
</g>
<!-- Node30&#45;&gt;Node33 -->
<g id="edge40" class="edge">
<title>Node30&#45;&gt;Node33</title>
<path fill="none" stroke="#63b8ff" d="M810.57,-667.69C815.06,-665.46 819.36,-662.77 823,-659.5 849.05,-636.15 841.99,-620.07 859,-589.5 874.78,-561.14 894.33,-529.08 906.73,-509.08"/>
<polygon fill="#63b8ff" stroke="#63b8ff" points="909.7,-510.93 912.02,-500.59 903.76,-507.23 909.7,-510.93"/>
</g>
<!-- Node46 -->
<g id="node39" class="node">
<title>Node46</title>
<g id="a_node39"><a xlink:href="TransmitterCode_2src_2main_8cpp.html#a793b7bcd77531c95fe72ed4356d421c8" target="_top" xlink:title=" ">
<polygon fill="white" stroke="#666666" points="1297.5,-443 1187.5,-443 1187.5,-424 1297.5,-424 1297.5,-443"/>
<text text-anchor="middle" x="1242.5" y="-431" font-family="Helvetica,sans-Serif" font-size="10.00">StartInactvityTimeout</text>
</a>
</g>
</g>
<!-- Node30&#45;&gt;Node46 -->
<g id="edge66" class="edge">
<title>Node30&#45;&gt;Node46</title>
<path fill="none" stroke="#63b8ff" d="M807.24,-667.66C812.7,-665.36 818.16,-662.64 823,-659.5 841.98,-647.18 839.9,-635.63 859,-623.5 907.66,-592.6 927.44,-600.8 981,-579.5 1054.43,-550.3 1075.95,-548.67 1144,-508.5 1172.79,-491.51 1202.83,-467.25 1221.82,-450.97"/>
<polygon fill="#63b8ff" stroke="#63b8ff" points="1224.05,-453.67 1229.3,-444.46 1219.46,-448.38 1224.05,-453.67"/>
</g>
<!-- Node48 -->
<g id="node41" class="node">
<title>Node48</title>
<g id="a_node41"><a xlink:href="TransmitterCode_2src_2main_8cpp.html#a694f4f5a0147f4dc29b0bc1a8951547d" target="_top" xlink:title=" ">
<polygon fill="#fff0f0" stroke="red" points="967,-651 873,-651 873,-632 967,-632 967,-651"/>
<text text-anchor="middle" x="920" y="-639" font-family="Helvetica,sans-Serif" font-size="10.00">ParseAckPayload</text>
</a>
</g>
</g>
<!-- Node30&#45;&gt;Node48 -->
<g id="edge58" class="edge">
<title>Node30&#45;&gt;Node48</title>
<path fill="none" stroke="#63b8ff" d="M815.45,-667.57C831.87,-663.44 851.12,-658.59 868.54,-654.2"/>
<polygon fill="#63b8ff" stroke="#63b8ff" points="869.36,-657.61 878.21,-651.77 867.66,-650.82 869.36,-657.61"/>
</g>
<!-- Node32 -->
<g id="node32" class="node">
<title>Node32</title>
<g id="a_node32"><a xlink:href="TransmitterCode_2src_2main_8cpp.html#a1fadc7cdd854f8b3628b622da5417d8b" target="_top" xlink:title=" ">
<polygon fill="white" stroke="#666666" points="1115.5,-799 1045.5,-799 1045.5,-780 1115.5,-780 1115.5,-799"/>
<text text-anchor="middle" x="1080.5" y="-787" font-family="Helvetica,sans-Serif" font-size="10.00">LogThisGap</text>
</a>
</g>
</g>
<!-- Node31&#45;&gt;Node32 -->
<g id="edge37" class="edge">
<title>Node31&#45;&gt;Node32</title>
<path fill="none" stroke="#63b8ff" d="M931.2,-688.34C943.15,-699.87 963.52,-719.56 981,-736.5 997.02,-752.03 997.7,-760.3 1017,-771.5 1022.37,-774.62 1028.32,-777.23 1034.35,-779.4"/>
<polygon fill="#63b8ff" stroke="#63b8ff" points="1033.15,-782.69 1043.74,-782.4 1035.28,-776.02 1033.15,-782.69"/>
</g>
<!-- Node32&#45;&gt;Node3 -->
<g id="edge38" class="edge">
<title>Node32&#45;&gt;Node3</title>
<path fill="none" stroke="#63b8ff" d="M1115.82,-789.5C1142.06,-789.5 1178.15,-789.5 1204.93,-789.5"/>
<polygon fill="#63b8ff" stroke="#63b8ff" points="1204.63,-793 1214.63,-789.5 1204.63,-786 1204.63,-793"/>
</g>
<!-- Node32&#45;&gt;Node8 -->
<g id="edge39" class="edge">
<title>Node32&#45;&gt;Node8</title>
<path fill="none" stroke="#63b8ff" d="M1115.74,-780.27C1124.97,-777.61 1134.91,-774.59 1144,-771.5 1253,-734.42 1269.87,-676.5 1385,-676.5 1385,-676.5 1385,-676.5 1522,-676.5 1599.55,-676.5 1690.9,-686.69 1734.24,-692.15"/>
<polygon fill="#63b8ff" stroke="#63b8ff" points="1733.74,-695.61 1744.11,-693.42 1734.64,-688.67 1733.74,-695.61"/>
</g>
<!-- Node33&#45;&gt;Node15 -->
<g id="edge42" class="edge">
<title>Node33&#45;&gt;Node15</title>
<path fill="none" stroke="#63b8ff" d="M956.18,-489.5C974.88,-489.5 998.4,-489.5 1019.86,-489.5"/>
<polygon fill="#63b8ff" stroke="#63b8ff" points="1019.68,-493 1029.68,-489.5 1019.68,-486 1019.68,-493"/>
</g>
<!-- Node33&#45;&gt;Node17 -->
<g id="edge47" class="edge">
<title>Node33&#45;&gt;Node17</title>
<path fill="none" stroke="#63b8ff" d="M883.51,-483.73C833.25,-476.07 738.36,-463.5 657,-463.5 547,-463.5 547,-463.5 547,-463.5 470.9,-463.5 382.48,-455.14 331.56,-449.51"/>
<polygon fill="#63b8ff" stroke="#63b8ff" points="332.2,-446.06 321.87,-448.42 331.41,-453.02 332.2,-446.06"/>
</g>
<!-- Node34 -->
<g id="node34" class="node">
<title>Node34</title>
<g id="a_node34"><a xlink:href="TransmitterCode_2src_2main_8cpp.html#a82b1900a80d1622896601c57d6edaeda" target="_top" xlink:title=" ">
<polygon fill="white" stroke="#666666" points="1129.5,-462 1031.5,-462 1031.5,-443 1129.5,-443 1129.5,-462"/>
<text text-anchor="middle" x="1080.5" y="-450" font-family="Helvetica,sans-Serif" font-size="10.00">ClearSuccessRate</text>
</a>
</g>
</g>
<!-- Node33&#45;&gt;Node34 -->
<g id="edge41" class="edge">
<title>Node33&#45;&gt;Node34</title>
<path fill="none" stroke="#63b8ff" d="M956.18,-481.29C976.63,-476.51 1002.83,-470.4 1025.82,-465.03"/>
<polygon fill="#63b8ff" stroke="#63b8ff" points="1026.39,-468.49 1035.33,-462.81 1024.8,-461.68 1026.39,-468.49"/>
</g>
<!-- Node35 -->
<g id="node35" class="node">
<title>Node35</title>
<g id="a_node35"><a xlink:href="TransmitterCode_2src_2main_8cpp.html#aaa3e86084c43b049d52d7d62c58a00b9" target="_top" xlink:title=" ">
<polygon fill="#fff0f0" stroke="red" points="1121.5,-725 1039.5,-725 1039.5,-706 1121.5,-706 1121.5,-725"/>
<text text-anchor="middle" x="1080.5" y="-713" font-family="Helvetica,sans-Serif" font-size="10.00">LogConnection</text>
</a>
</g>
</g>
<!-- Node33&#45;&gt;Node35 -->
<g id="edge43" class="edge">
<title>Node33&#45;&gt;Node35</title>
<path fill="none" stroke="#63b8ff" d="M925.41,-499.34C943.69,-540.13 1012.81,-693.91 1017,-697.5 1020.57,-700.56 1024.63,-703.1 1028.92,-705.21"/>
<polygon fill="#63b8ff" stroke="#63b8ff" points="1027.28,-708.32 1037.86,-708.83 1029.9,-701.83 1027.28,-708.32"/>
</g>
<!-- Node37 -->
<g id="node36" class="node">
<title>Node37</title>
<g id="a_node36"><a xlink:href="TransmitterCode_2src_2main_8cpp.html#a2e38b32674344cfc06b09a71dfcaf3f1" target="_top" xlink:title=" ">
<polygon fill="white" stroke="#666666" points="1305,-349 1180,-349 1180,-330 1305,-330 1305,-349"/>
<text text-anchor="middle" x="1242.5" y="-337" font-family="Helvetica,sans-Serif" font-size="10.00">MakeBindButtonInvisible</text>
</a>
</g>
</g>
<!-- Node33&#45;&gt;Node37 -->
<g id="edge45" class="edge">
<title>Node33&#45;&gt;Node37</title>
<path fill="none" stroke="#63b8ff" d="M956.44,-484.06C965.19,-481.39 974.04,-477.42 981,-471.5 1008.86,-447.81 988.69,-420.65 1017,-397.5 1029.96,-386.9 1120.92,-365.58 1183,-351.95"/>
<polygon fill="#63b8ff" stroke="#63b8ff" points="1183.73,-355.37 1192.76,-349.82 1182.24,-348.53 1183.73,-355.37"/>
</g>
<!-- Node38 -->
<g id="node37" class="node">
<title>Node38</title>
<g id="a_node37"><a xlink:href="TransmitterCode_2src_2main_8cpp.html#a5d3a46c21927cf7a3031a1e68e0b7b48" target="_top" xlink:title="SHOW COMMS.">
<polygon fill="#fff0f0" stroke="red" points="1118,-349 1043,-349 1043,-330 1118,-330 1118,-349"/>
<text text-anchor="middle" x="1080.5" y="-337" font-family="Helvetica,sans-Serif" font-size="10.00">ShowComms</text>
</a>
</g>
</g>
<!-- Node33&#45;&gt;Node38 -->
<g id="edge48" class="edge">
<title>Node33&#45;&gt;Node38</title>
<path fill="none" stroke="#63b8ff" d="M944.98,-479.51C957.17,-476.33 971.4,-471.81 981,-462.5 1017.31,-427.27 982.03,-391.07 1017,-354.5 1021.32,-349.98 1026.58,-346.31 1032.19,-343.4"/>
<polygon fill="#63b8ff" stroke="#63b8ff" points="1033.34,-346.71 1041.17,-339.57 1030.6,-340.27 1033.34,-346.71"/>
</g>
<!-- Node47 -->
<g id="node40" class="node">
<title>Node47</title>
<g id="a_node40"><a xlink:href="TransmitterCode_2src_2main_8cpp.html#a6da9a1fd0b003151f79eabc702ba80ff" target="_top" xlink:title=" ">
<polygon fill="white" stroke="#666666" points="1124,-425 1037,-425 1037,-406 1124,-406 1124,-425"/>
<text text-anchor="middle" x="1080.5" y="-413" font-family="Helvetica,sans-Serif" font-size="10.00">ZeroDataScreen</text>
</a>
</g>
</g>
<!-- Node33&#45;&gt;Node47 -->
<g id="edge57" class="edge">
<title>Node33&#45;&gt;Node47</title>
<path fill="none" stroke="#63b8ff" d="M956.22,-482.17C964.7,-479.55 973.47,-476.07 981,-471.5 1000.62,-459.6 997.41,-446.44 1017,-434.5 1019.91,-432.73 1023,-431.11 1026.18,-429.64"/>
<polygon fill="#63b8ff" stroke="#63b8ff" points="1027.23,-432.99 1035.17,-425.97 1024.59,-426.51 1027.23,-432.99"/>
</g>
<!-- Node35&#45;&gt;Node3 -->
<g id="edge44" class="edge">
<title>Node35&#45;&gt;Node3</title>
<path fill="none" stroke="#63b8ff" d="M1118.99,-725.44C1127.35,-728.06 1136.08,-731.11 1144,-734.5 1169.9,-745.58 1197.73,-761.75 1217,-773.69"/>
<polygon fill="#63b8ff" stroke="#63b8ff" points="1214.89,-776.49 1225.21,-778.85 1218.61,-770.57 1214.89,-776.49"/>
</g>
<!-- Node37&#45;&gt;Node18 -->
<g id="edge46" class="edge">
<title>Node37&#45;&gt;Node18</title>
<path fill="none" stroke="#63b8ff" d="M1224.08,-329.53C1176.91,-303.5 1042.09,-235.5 921,-235.5 655,-235.5 655,-235.5 655,-235.5 590.39,-235.5 571.34,-232.39 511,-255.5 487.12,-264.65 463.27,-281.78 447.31,-294.69"/>
<polygon fill="#63b8ff" stroke="#63b8ff" points="445.48,-291.66 440.04,-300.75 449.97,-297.03 445.48,-291.66"/>
</g>
<!-- Node38&#45;&gt;Node17 -->
<g id="edge51" class="edge">
<title>Node38&#45;&gt;Node17</title>
<path fill="none" stroke="#63b8ff" d="M1042.6,-341.61C978.31,-345.51 841.69,-354.82 727,-369.5 581.04,-388.19 409.42,-420.72 331.62,-436.05"/>
<polygon fill="#63b8ff" stroke="#63b8ff" points="331.01,-432.6 321.88,-437.98 332.37,-439.47 331.01,-432.6"/>
</g>
<!-- Node38&#45;&gt;Node18 -->
<g id="edge52" class="edge">
<title>Node38&#45;&gt;Node18</title>
<path fill="none" stroke="#63b8ff" d="M1042.64,-333.71C1024.18,-331.05 1001.46,-328.12 981,-326.5 797.23,-311.92 578.15,-310.77 480.02,-311.11"/>
<polygon fill="#63b8ff" stroke="#63b8ff" points="480.16,-307.61 470.18,-311.15 480.19,-314.61 480.16,-307.61"/>
</g>
<!-- Node38&#45;&gt;Node33 -->
<g id="edge49" class="edge">
<title>Node38&#45;&gt;Node33</title>
<path fill="none" stroke="#63b8ff" d="M1061.58,-349.43C1047.66,-354.07 1028.81,-360.15 1017,-372.5 982.03,-409.07 1017.31,-445.27 981,-480.5 977.01,-484.37 972.23,-487.41 967.13,-489.73"/>
<polygon fill="#63b8ff" stroke="#63b8ff" points="966.06,-486.39 957.78,-493 968.38,-493 966.06,-486.39"/>
</g>
<!-- Node38&#45;&gt;Node37 -->
<g id="edge50" class="edge">
<title>Node38&#45;&gt;Node37</title>
<path fill="none" stroke="#63b8ff" d="M1118.21,-339.5C1133.12,-339.5 1150.9,-339.5 1168.25,-339.5"/>
<polygon fill="#63b8ff" stroke="#63b8ff" points="1168.04,-343 1178.04,-339.5 1168.04,-336 1168.04,-343"/>
</g>
<!-- Node38&#45;&gt;Node40 -->
<g id="edge53" class="edge">
<title>Node38&#45;&gt;Node40</title>
<path fill="none" stroke="#63b8ff" d="M1090.33,-329.57C1116.18,-300.49 1191.96,-215.23 1225.37,-177.65"/>
<polygon fill="#63b8ff" stroke="#63b8ff" points="1227.86,-180.11 1231.89,-170.31 1222.63,-175.46 1227.86,-180.11"/>
</g>
<!-- Node38&#45;&gt;Node46 -->
<g id="edge56" class="edge">
<title>Node38&#45;&gt;Node46</title>
<path fill="none" stroke="#63b8ff" d="M1098.32,-349.38C1126.12,-365.71 1181.87,-398.47 1215.01,-417.93"/>
<polygon fill="#63b8ff" stroke="#63b8ff" points="1213.2,-420.94 1223.6,-422.98 1216.75,-414.9 1213.2,-420.94"/>
</g>
<!-- Node40&#45;&gt;Node18 -->
<g id="edge55" class="edge">
<title>Node40&#45;&gt;Node18</title>
<path fill="none" stroke="#63b8ff" d="M1213.2,-159.5C1157.34,-159.5 1028.95,-159.5 921,-159.5 655,-159.5 655,-159.5 655,-159.5 590.12,-159.5 565.26,-147.92 511,-183.5 471.09,-209.67 446.25,-262.4 435.03,-291.35"/>
<polygon fill="#63b8ff" stroke="#63b8ff" points="431.86,-289.81 431.69,-300.41 438.43,-292.24 431.86,-289.81"/>
</g>
<!-- Node40&#45;&gt;Node19 -->
<g id="edge54" class="edge">
<title>Node40&#45;&gt;Node19</title>
<path fill="none" stroke="#63b8ff" d="M1271.79,-163.3C1289.28,-165.65 1312.26,-168.73 1332.95,-171.51"/>
<polygon fill="#63b8ff" stroke="#63b8ff" points="1332.28,-174.95 1342.65,-172.81 1333.21,-168.01 1332.28,-174.95"/>
</g>
<!-- Node49 -->
<g id="node42" class="node">
<title>Node49</title>
<g id="a_node42"><a xlink:href="TransmitterCode_2src_2main_8cpp.html#a75fa77e7bbb1cfe8fe6e1a216fbdc17e" target="_top" xlink:title=" ">
<polygon fill="white" stroke="#666666" points="1113,-688 1048,-688 1048,-669 1113,-669 1113,-688"/>
<text text-anchor="middle" x="1080.5" y="-676" font-family="Helvetica,sans-Serif" font-size="10.00">GetAltitude</text>
</a>
</g>
</g>
<!-- Node48&#45;&gt;Node49 -->
<g id="edge59" class="edge">
<title>Node48&#45;&gt;Node49</title>
<path fill="none" stroke="#63b8ff" d="M963.48,-651.42C986.22,-656.73 1014.17,-663.25 1036.93,-668.56"/>
<polygon fill="#63b8ff" stroke="#63b8ff" points="1035.97,-671.93 1046.5,-670.8 1037.56,-665.12 1035.97,-671.93"/>
</g>
<!-- Node50 -->
<g id="node43" class="node">
<title>Node50</title>
<g id="a_node43"><a xlink:href="TransmitterCode_2src_2main_8cpp.html#ab5736b017daadeb2c1d7dc73489d31a6" target="_top" xlink:title=" ">
<polygon fill="white" stroke="#666666" points="1296,-630 1189,-630 1189,-611 1296,-611 1296,-630"/>
<text text-anchor="middle" x="1242.5" y="-618" font-family="Helvetica,sans-Serif" font-size="10.00">GetFromAckPayload</text>
</a>
</g>
</g>
<!-- Node48&#45;&gt;Node50 -->
<g id="edge62" class="edge">
<title>Node48&#45;&gt;Node50</title>
<path fill="none" stroke="#63b8ff" d="M965.22,-631.56C981.42,-628.36 999.96,-625.2 1017,-623.5 1070.88,-618.13 1132.39,-617.7 1177.38,-618.44"/>
<polygon fill="#63b8ff" stroke="#63b8ff" points="1177.16,-621.93 1187.22,-618.62 1177.29,-614.94 1177.16,-621.93"/>
</g>
<!-- Node51 -->
<g id="node44" class="node">
<title>Node51</title>
<g id="a_node44"><a xlink:href="TransmitterCode_2src_2main_8cpp.html#a160b9119423c34869b16a4ebdc421d35" target="_top" xlink:title=" ">
<polygon fill="white" stroke="#666666" points="1144,-651 1017,-651 1017,-632 1144,-632 1144,-651"/>
<text text-anchor="middle" x="1080.5" y="-639" font-family="Helvetica,sans-Serif" font-size="10.00">GetDateFromAckPayload</text>
</a>
</g>
</g>
<!-- Node48&#45;&gt;Node51 -->
<g id="edge61" class="edge">
<title>Node48&#45;&gt;Node51</title>
<path fill="none" stroke="#63b8ff" d="M967.27,-641.5C979.21,-641.5 992.37,-641.5 1005.35,-641.5"/>
<polygon fill="#63b8ff" stroke="#63b8ff" points="1005.16,-645 1015.16,-641.5 1005.16,-638 1005.16,-645"/>
</g>
<!-- Node52 -->
<g id="node45" class="node">
<title>Node52</title>
<g id="a_node45"><a xlink:href="TransmitterCode_2src_2main_8cpp.html#a494cb4acb30856d1f53f08df1b80c41b" target="_top" xlink:title=" ">
<polygon fill="#fff0f0" stroke="red" points="1140,-762 1021,-762 1021,-743 1140,-743 1140,-762"/>
<text text-anchor="middle" x="1080.5" y="-750" font-family="Helvetica,sans-Serif" font-size="10.00">GetModelsMacAddress</text>
</a>
</g>
</g>
<!-- Node48&#45;&gt;Node52 -->
<g id="edge63" class="edge">
<title>Node48&#45;&gt;Node52</title>
<path fill="none" stroke="#63b8ff" d="M966.39,-651.39C971.67,-653.8 976.7,-656.79 981,-660.5 1008.68,-684.41 989.01,-710.96 1017,-734.5 1018.09,-735.42 1019.23,-736.29 1020.41,-737.12"/>
<polygon fill="#63b8ff" stroke="#63b8ff" points="1018.31,-739.95 1028.73,-741.89 1021.79,-733.88 1018.31,-739.95"/>
</g>
<!-- Node49&#45;&gt;Node50 -->
<g id="edge60" class="edge">
<title>Node49&#45;&gt;Node50</title>
<path fill="none" stroke="#63b8ff" d="M1113.19,-670.1C1123.12,-667.27 1134.08,-663.95 1144,-660.5 1165.96,-652.86 1190.14,-642.95 1208.92,-634.91"/>
<polygon fill="#63b8ff" stroke="#63b8ff" points="1210.13,-638.2 1217.92,-631.02 1207.35,-631.77 1210.13,-638.2"/>
</g>
<!-- Node52&#45;&gt;Node18 -->
<g id="edge64" class="edge">
<title>Node52&#45;&gt;Node18</title>
<path fill="none" stroke="#63b8ff" d="M1020.65,-742.89C1007.6,-740.78 993.83,-738.55 981,-736.5 818.86,-710.57 753.43,-750.58 621,-653.5 505.5,-568.83 449.6,-392.85 433.26,-332.41"/>
<polygon fill="#63b8ff" stroke="#63b8ff" points="436.66,-331.59 430.75,-322.81 429.89,-333.37 436.66,-331.59"/>
</g>
<!-- Node97&#45;&gt;Node8 -->
<g id="edge73" class="edge">
<title>Node97&#45;&gt;Node8</title>
<path fill="none" stroke="#63b8ff" d="M343.26,-83.5C395.35,-83.5 476.59,-83.5 547,-83.5 547,-83.5 547,-83.5 1522,-83.5 1651.78,-83.5 1738.61,-567.85 1756.2,-674.78"/>
<polygon fill="#63b8ff" stroke="#63b8ff" points="1752.71,-675.08 1757.76,-684.39 1759.62,-673.96 1752.71,-675.08"/>
</g>
<!-- Node97&#45;&gt;Node18 -->
<g id="edge72" class="edge">
<title>Node97&#45;&gt;Node18</title>
<path fill="none" stroke="#63b8ff" d="M295.37,-93.3C316.1,-127.94 386.23,-245.07 414.27,-291.91"/>
<polygon fill="#63b8ff" stroke="#63b8ff" points="411.24,-293.66 419.38,-300.44 417.25,-290.06 411.24,-293.66"/>
</g>
<!-- Node99 -->
<g id="node48" class="node">
<title>Node99</title>
<g id="a_node48"><a xlink:href="RadioFunctions_8cpp.html#a52aa3e80bccf5e75346c93fdae63122d" target="_top" xlink:title=" ">
<polygon fill="white" stroke="#666666" points="339,-56 238,-56 238,-37 339,-37 339,-56"/>
<text text-anchor="middle" x="288.5" y="-44" font-family="Helvetica,sans-Serif" font-size="10.00">HopToNextChannel</text>
</a>
</g>
</g>
<!-- Node98&#45;&gt;Node99 -->
<g id="edge75" class="edge">
<title>Node98&#45;&gt;Node99</title>
<path fill="none" stroke="#63b8ff" d="M198.39,-46.5C207.29,-46.5 216.83,-46.5 226.23,-46.5"/>
<polygon fill="#63b8ff" stroke="#63b8ff" points="226.07,-50 236.06,-46.5 226.06,-43 226.07,-50"/>
</g>
<!-- Node100 -->
<g id="node49" class="node">
<title>Node100</title>
<g id="a_node49"><a xlink:href="RadioFunctions_8cpp.html#ad0e30213b21808d00110752679788a8c" target="_top" xlink:title=" ">
<polygon fill="white" stroke="#666666" points="325.5,-19 251.5,-19 251.5,0 325.5,0 325.5,-19"/>
<text text-anchor="middle" x="288.5" y="-7" font-family="Helvetica,sans-Serif" font-size="10.00">TryOtherPipe</text>
</a>
</g>
</g>
<!-- Node98&#45;&gt;Node100 -->
<g id="edge76" class="edge">
<title>Node98&#45;&gt;Node100</title>
<path fill="none" stroke="#63b8ff" d="M190.51,-36.58C206.1,-32.23 224.62,-27.06 241.27,-22.41"/>
<polygon fill="#63b8ff" stroke="#63b8ff" points="241.75,-25.91 250.44,-19.85 239.86,-19.17 241.75,-25.91"/>
</g>
<!-- Node101 -->
<g id="node50" class="node">
<title>Node101</title>
<g id="a_node50"><a xlink:href="RadioFunctions_8cpp.html#a70dc6f8d2e5ccef6b8e4a2b9b0afb2ce" target="_top" xlink:title=" ">
<polygon fill="white" stroke="#666666" points="461,-19 393,-19 393,0 461,0 461,-19"/>
<text text-anchor="middle" x="427" y="-7" font-family="Helvetica,sans-Serif" font-size="10.00">SetThePipe</text>
</a>
</g>
</g>
<!-- Node100&#45;&gt;Node101 -->
<g id="edge77" class="edge">
<title>Node100&#45;&gt;Node101</title>
<path fill="none" stroke="#63b8ff" d="M325.72,-9.5C342.83,-9.5 363.4,-9.5 381.45,-9.5"/>
<polygon fill="#63b8ff" stroke="#63b8ff" points="381.37,-13 391.37,-9.5 381.37,-6 381.37,-13"/>
</g>
</g>
</svg>
