<?xml version="1.0" encoding="UTF-8" standalone="no"?>
<!DOCTYPE svg PUBLIC "-//W3C//DTD SVG 1.1//EN"
 "http://www.w3.org/Graphics/SVG/1.1/DTD/svg11.dtd">
<!-- Generated by graphviz version 7.0.5 (20221223.1930)
 -->
<!-- Title: KeepSbusHappy Pages: 1 -->
<svg width="338pt" height="64pt"
 viewBox="0.00 0.00 338.00 64.00" xmlns="http://www.w3.org/2000/svg" xmlns:xlink="http://www.w3.org/1999/xlink">
<g id="graph0" class="graph" transform="scale(1 1) rotate(0) translate(4 60)">
<title>KeepSbusHappy</title>
<!-- Node1 -->
<g id="node1" class="node">
<title>Node1</title>
<g id="a_node1"><a xlink:title=" ">
<polygon fill="#999999" stroke="#666666" points="89,-37 0,-37 0,-18 89,-18 89,-37"/>
<text text-anchor="middle" x="44.5" y="-25" font-family="Helvetica,sans-Serif" font-size="10.00">KeepSbusHappy</text>
</a>
</g>
</g>
<!-- Node2 -->
<g id="node2" class="node">
<title>Node2</title>
<g id="a_node2"><a xlink:href="ReceiverCode_2src_2main_8cpp.html#a6f2443a0666140cf4d8b7352bb3b793c" target="_top" xlink:title=" ">
<polygon fill="white" stroke="#666666" points="196,-37 125,-37 125,-18 196,-18 196,-37"/>
<text text-anchor="middle" x="160.5" y="-25" font-family="Helvetica,sans-Serif" font-size="10.00">MoveServos</text>
</a>
</g>
</g>
<!-- Node1&#45;&gt;Node2 -->
<g id="edge1" class="edge">
<title>Node1&#45;&gt;Node2</title>
<path fill="none" stroke="#63b8ff" d="M89.25,-27.5C97.1,-27.5 105.3,-27.5 113.21,-27.5"/>
<polygon fill="#63b8ff" stroke="#63b8ff" points="113.02,-31 123.02,-27.5 113.02,-24 113.02,-31"/>
</g>
<!-- Node3 -->
<g id="node3" class="node">
<title>Node3</title>
<g id="a_node3"><a xlink:href="ReceiverCode_2src_2main_8cpp.html#ae5188cdc179ab32d9a36de911e3a2d45" target="_top" xlink:title=" ">
<polygon fill="white" stroke="#666666" points="330,-56 232,-56 232,-37 330,-37 330,-56"/>
<text text-anchor="middle" x="281" y="-44" font-family="Helvetica,sans-Serif" font-size="10.00">CheckCrazyValues</text>
</a>
</g>
</g>
<!-- Node2&#45;&gt;Node3 -->
<g id="edge2" class="edge">
<title>Node2&#45;&gt;Node3</title>
<path fill="none" stroke="#63b8ff" d="M196.41,-33.1C204.02,-34.32 212.27,-35.64 220.52,-36.96"/>
<polygon fill="#63b8ff" stroke="#63b8ff" points="219.8,-40.39 230.23,-38.52 220.91,-33.48 219.8,-40.39"/>
</g>
<!-- Node4 -->
<g id="node4" class="node">
<title>Node4</title>
<g id="a_node4"><a xlink:href="classSBUS.html#aeb87d0ab21224d4cc84848c93a788848" target="_top" xlink:title=" ">
<polygon fill="white" stroke="#666666" points="316,-19 246,-19 246,0 316,0 316,-19"/>
<text text-anchor="middle" x="281" y="-7" font-family="Helvetica,sans-Serif" font-size="10.00">SBUS::write</text>
</a>
</g>
</g>
<!-- Node2&#45;&gt;Node4 -->
<g id="edge3" class="edge">
<title>Node2&#45;&gt;Node4</title>
<path fill="none" stroke="#63b8ff" d="M196.41,-22.2C208.33,-20.39 221.84,-18.33 234.47,-16.42"/>
<polygon fill="#63b8ff" stroke="#63b8ff" points="234.89,-19.89 244.25,-14.93 233.84,-12.97 234.89,-19.89"/>
</g>
</g>
</svg>
