<?xml version="1.0" encoding="UTF-8" standalone="no"?>
<!DOCTYPE svg PUBLIC "-//W3C//DTD SVG 1.1//EN"
 "http://www.w3.org/Graphics/SVG/1.1/DTD/svg11.dtd">
<!-- Generated by graphviz version 7.0.5 (20221223.1930)
 -->
<!-- Title: ReceiveData Pages: 1 -->
<svg width="1038pt" height="791pt"
 viewBox="0.00 0.00 1038.00 791.00" xmlns="http://www.w3.org/2000/svg" xmlns:xlink="http://www.w3.org/1999/xlink">
<g id="graph0" class="graph" transform="scale(1 1) rotate(0) translate(4 787)">
<title>ReceiveData</title>
<!-- Node1 -->
<g id="node1" class="node">
<title>Node1</title>
<g id="a_node1"><a xlink:title=" ">
<polygon fill="#999999" stroke="#666666" points="72,-337 0,-337 0,-318 72,-318 72,-337"/>
<text text-anchor="middle" x="36" y="-325" font-family="Helvetica,sans-Serif" font-size="10.00">ReceiveData</text>
</a>
</g>
</g>
<!-- Node2 -->
<g id="node2" class="node">
<title>Node2</title>
<g id="a_node2"><a xlink:href="radio_8h.html#a6f74cdb7b32a3aa9e9342661bd44ad1a" target="_top" xlink:title=" ">
<polygon fill="white" stroke="#666666" points="346,-709 257,-709 257,-690 346,-690 346,-709"/>
<text text-anchor="middle" x="301.5" y="-697" font-family="Helvetica,sans-Serif" font-size="10.00">KeepSbusHappy</text>
</a>
</g>
</g>
<!-- Node1&#45;&gt;Node2 -->
<g id="edge1" class="edge">
<title>Node1&#45;&gt;Node2</title>
<path fill="none" stroke="#63b8ff" d="M36.71,-337.4C36.11,-376.29 38.81,-520.51 108,-605.5 142.89,-648.35 202.11,-673.12 245.68,-686.37"/>
<polygon fill="#63b8ff" stroke="#63b8ff" points="244.64,-689.71 255.22,-689.15 246.6,-682.99 244.64,-689.71"/>
</g>
<!-- Node9 -->
<g id="node9" class="node">
<title>Node9</title>
<g id="a_node9"><a xlink:href="radio_8h.html#a07ca94db0e305e9c01ec51e417576308" target="_top" xlink:title=" ">
<polygon fill="white" stroke="#666666" points="192.5,-337 133.5,-337 133.5,-318 192.5,-318 192.5,-337"/>
<text text-anchor="middle" x="163" y="-325" font-family="Helvetica,sans-Serif" font-size="10.00">ReadData</text>
</a>
</g>
</g>
<!-- Node1&#45;&gt;Node9 -->
<g id="edge8" class="edge">
<title>Node1&#45;&gt;Node9</title>
<path fill="none" stroke="#63b8ff" d="M72.49,-327.5C87.94,-327.5 106.11,-327.5 122.04,-327.5"/>
<polygon fill="#63b8ff" stroke="#63b8ff" points="121.65,-331 131.65,-327.5 121.65,-324 121.65,-331"/>
</g>
<!-- Node34 -->
<g id="node34" class="node">
<title>Node34</title>
<g id="a_node34"><a xlink:href="ReceiverCode_2src_2main_8cpp.html#a5d2350b2507883d3644251013370bc5b" target="_top" xlink:title=" ">
<polygon fill="white" stroke="#666666" points="215,-300 111,-300 111,-281 215,-281 215,-300"/>
<text text-anchor="middle" x="163" y="-288" font-family="Helvetica,sans-Serif" font-size="10.00">ReadTheSensorHub</text>
</a>
</g>
</g>
<!-- Node1&#45;&gt;Node34 -->
<g id="edge37" class="edge">
<title>Node1&#45;&gt;Node34</title>
<path fill="none" stroke="#63b8ff" d="M70.5,-317.58C84.93,-313.31 102.01,-308.26 117.49,-303.68"/>
<polygon fill="#63b8ff" stroke="#63b8ff" points="118.36,-307.07 126.96,-300.87 116.38,-300.35 118.36,-307.07"/>
</g>
<!-- Node35 -->
<g id="node35" class="node">
<title>Node35</title>
<g id="a_node35"><a xlink:href="radio_8h.html#aca314b55765a1c3af5397c0cb3ce47ff" target="_top" xlink:title=" ">
<polygon fill="white" stroke="#666666" points="194.5,-596 131.5,-596 131.5,-577 194.5,-577 194.5,-596"/>
<text text-anchor="middle" x="163" y="-584" font-family="Helvetica,sans-Serif" font-size="10.00">Reconnect</text>
</a>
</g>
</g>
<!-- Node1&#45;&gt;Node35 -->
<g id="edge38" class="edge">
<title>Node1&#45;&gt;Node35</title>
<path fill="none" stroke="#63b8ff" d="M41.75,-337.34C60.16,-375.48 127.04,-514.07 152.28,-566.35"/>
<polygon fill="#63b8ff" stroke="#63b8ff" points="149.09,-567.81 156.59,-575.29 155.4,-564.76 149.09,-567.81"/>
</g>
<!-- Node45 -->
<g id="node45" class="node">
<title>Node45</title>
<g id="a_node45"><a xlink:href="ReceiverCode_2src_2main_8cpp.html#ad8b70060a07f5323c3e1011dd6b1dd6f" target="_top" xlink:title=" ">
<polygon fill="white" stroke="#666666" points="218,-263 108,-263 108,-244 218,-244 218,-263"/>
<text text-anchor="middle" x="163" y="-251" font-family="Helvetica,sans-Serif" font-size="10.00">SensorHubHasFailed</text>
</a>
</g>
</g>
<!-- Node1&#45;&gt;Node45 -->
<g id="edge56" class="edge">
<title>Node1&#45;&gt;Node45</title>
<path fill="none" stroke="#63b8ff" d="M47.31,-317.76C60.49,-305.75 84.45,-285.33 108,-272.5 111.19,-270.76 114.56,-269.14 118.01,-267.62"/>
<polygon fill="#63b8ff" stroke="#63b8ff" points="119.06,-270.97 127.03,-263.99 116.45,-264.48 119.06,-270.97"/>
</g>
<!-- Node3 -->
<g id="node3" class="node">
<title>Node3</title>
<g id="a_node3"><a xlink:href="ReceiverCode_2src_2main_8cpp.html#a6f2443a0666140cf4d8b7352bb3b793c" target="_top" xlink:title=" ">
<polygon fill="white" stroke="#666666" points="505.5,-709 434.5,-709 434.5,-690 505.5,-690 505.5,-709"/>
<text text-anchor="middle" x="470" y="-697" font-family="Helvetica,sans-Serif" font-size="10.00">MoveServos</text>
</a>
</g>
</g>
<!-- Node2&#45;&gt;Node3 -->
<g id="edge2" class="edge">
<title>Node2&#45;&gt;Node3</title>
<path fill="none" stroke="#63b8ff" d="M346.25,-699.5C369.84,-699.5 398.96,-699.5 422.9,-699.5"/>
<polygon fill="#63b8ff" stroke="#63b8ff" points="422.69,-703 432.69,-699.5 422.69,-696 422.69,-703"/>
</g>
<!-- Node4 -->
<g id="node4" class="node">
<title>Node4</title>
<g id="a_node4"><a xlink:href="ReceiverCode_2src_2main_8cpp.html#ae5188cdc179ab32d9a36de911e3a2d45" target="_top" xlink:title=" ">
<polygon fill="white" stroke="#666666" points="702,-746 604,-746 604,-727 702,-727 702,-746"/>
<text text-anchor="middle" x="653" y="-734" font-family="Helvetica,sans-Serif" font-size="10.00">CheckCrazyValues</text>
</a>
</g>
</g>
<!-- Node3&#45;&gt;Node4 -->
<g id="edge3" class="edge">
<title>Node3&#45;&gt;Node4</title>
<path fill="none" stroke="#63b8ff" d="M505.9,-706.63C530.38,-711.64 563.74,-718.46 592.39,-724.32"/>
<polygon fill="#63b8ff" stroke="#63b8ff" points="591.54,-727.71 602.04,-726.29 592.95,-720.86 591.54,-727.71"/>
</g>
<!-- Node5 -->
<g id="node5" class="node">
<title>Node5</title>
<g id="a_node5"><a xlink:href="common_8h.html#a5424788640aaa8d535d6ea077949ef82" target="_top" xlink:title=" ">
<polygon fill="white" stroke="#666666" points="679,-709 627,-709 627,-690 679,-690 679,-709"/>
<text text-anchor="middle" x="653" y="-697" font-family="Helvetica,sans-Serif" font-size="10.00">MySbus</text>
</a>
</g>
</g>
<!-- Node3&#45;&gt;Node5 -->
<g id="edge4" class="edge">
<title>Node3&#45;&gt;Node5</title>
<path fill="none" stroke="#63b8ff" d="M505.9,-699.5C537.23,-699.5 583.09,-699.5 615.04,-699.5"/>
<polygon fill="#63b8ff" stroke="#63b8ff" points="615.03,-703 625.03,-699.5 615.03,-696 615.03,-703"/>
</g>
<!-- Node6 -->
<g id="node6" class="node">
<title>Node6</title>
<g id="a_node6"><a xlink:href="ReceiverCode_2src_2main_8cpp.html#aadfccc52afc40455e31e965015c29b46" target="_top" xlink:title=" ">
<polygon fill="white" stroke="#666666" points="685.5,-635 620.5,-635 620.5,-616 685.5,-616 685.5,-635"/>
<text text-anchor="middle" x="653" y="-623" font-family="Helvetica,sans-Serif" font-size="10.00">TurnLedOff</text>
</a>
</g>
</g>
<!-- Node3&#45;&gt;Node6 -->
<g id="edge5" class="edge">
<title>Node3&#45;&gt;Node6</title>
<path fill="none" stroke="#63b8ff" d="M505.72,-696.69C521.51,-694.27 539.99,-689.8 555,-681.5 575.08,-670.4 571.45,-656.5 591,-644.5 596.69,-641.01 603.08,-638.1 609.53,-635.71"/>
<polygon fill="#63b8ff" stroke="#63b8ff" points="610.48,-639.08 618.87,-632.62 608.28,-632.44 610.48,-639.08"/>
</g>
<!-- Node7 -->
<g id="node7" class="node">
<title>Node7</title>
<g id="a_node7"><a xlink:href="ReceiverCode_2src_2main_8cpp.html#a852569e2aefff6371f3adad09fcd746f" target="_top" xlink:title=" ">
<polygon fill="white" stroke="#666666" points="685.5,-672 620.5,-672 620.5,-653 685.5,-653 685.5,-672"/>
<text text-anchor="middle" x="653" y="-660" font-family="Helvetica,sans-Serif" font-size="10.00">TurnLedOn</text>
</a>
</g>
</g>
<!-- Node3&#45;&gt;Node7 -->
<g id="edge6" class="edge">
<title>Node3&#45;&gt;Node7</title>
<path fill="none" stroke="#63b8ff" d="M505.9,-692.37C535.36,-686.34 577.65,-677.7 609.16,-671.26"/>
<polygon fill="#63b8ff" stroke="#63b8ff" points="609.66,-674.73 618.76,-669.3 608.26,-667.87 609.66,-674.73"/>
</g>
<!-- Node8 -->
<g id="node8" class="node">
<title>Node8</title>
<g id="a_node8"><a xlink:href="classSBUS.html#aeb87d0ab21224d4cc84848c93a788848" target="_top" xlink:title=" ">
<polygon fill="white" stroke="#666666" points="688,-783 618,-783 618,-764 688,-764 688,-783"/>
<text text-anchor="middle" x="653" y="-771" font-family="Helvetica,sans-Serif" font-size="10.00">SBUS::write</text>
</a>
</g>
</g>
<!-- Node3&#45;&gt;Node8 -->
<g id="edge7" class="edge">
<title>Node3&#45;&gt;Node8</title>
<path fill="none" stroke="#63b8ff" d="M489.74,-709.32C513.04,-721.27 554.23,-741.59 591,-755.5 596.03,-757.4 601.35,-759.23 606.67,-760.95"/>
<polygon fill="#63b8ff" stroke="#63b8ff" points="605.47,-764.24 616.06,-763.85 607.54,-757.55 605.47,-764.24"/>
</g>
<!-- Node10 -->
<g id="node10" class="node">
<title>Node10</title>
<g id="a_node10"><a xlink:href="ReceiverCode_2src_2main_8cpp.html#a9692998537a18fea0930c692647e25ad" target="_top" xlink:title=" ">
<polygon fill="white" stroke="#666666" points="333,-281 270,-281 270,-262 333,-262 333,-281"/>
<text text-anchor="middle" x="301.5" y="-269" font-family="Helvetica,sans-Serif" font-size="10.00">DelayMillis</text>
</a>
</g>
</g>
<!-- Node9&#45;&gt;Node10 -->
<g id="edge9" class="edge">
<title>Node9&#45;&gt;Node10</title>
<path fill="none" stroke="#63b8ff" d="M192.8,-318.55C201.01,-315.83 209.91,-312.7 218,-309.5 235.63,-302.52 254.9,-293.72 270.38,-286.34"/>
<polygon fill="#63b8ff" stroke="#63b8ff" points="271.57,-289.65 279.06,-282.16 268.54,-283.34 271.57,-289.65"/>
</g>
<!-- Node13 -->
<g id="node13" class="node">
<title>Node13</title>
<g id="a_node13"><a xlink:href="radio_8h.html#a664f409561bfcf119e0379dd991217e5" target="_top" xlink:title=" ">
<polygon fill="white" stroke="#666666" points="346.5,-113 256.5,-113 256.5,-94 346.5,-94 346.5,-113"/>
<text text-anchor="middle" x="301.5" y="-101" font-family="Helvetica,sans-Serif" font-size="10.00">LoadAckPayload</text>
</a>
</g>
</g>
<!-- Node9&#45;&gt;Node13 -->
<g id="edge12" class="edge">
<title>Node9&#45;&gt;Node13</title>
<path fill="none" stroke="#63b8ff" d="M192.82,-322.82C201.78,-320.16 211.1,-316.01 218,-309.5 246.18,-282.94 280.98,-171.06 294.62,-124.24"/>
<polygon fill="#63b8ff" stroke="#63b8ff" points="297.93,-125.38 297.33,-114.81 291.21,-123.45 297.93,-125.38"/>
</g>
<!-- Node22 -->
<g id="node22" class="node">
<title>Node22</title>
<g id="a_node22"><a xlink:href="radio_8h.html#abb1997c589abc6432f612eaedf985e38" target="_top" xlink:title=" ">
<polygon fill="white" stroke="#666666" points="349,-337 254,-337 254,-318 349,-318 349,-337"/>
<text text-anchor="middle" x="301.5" y="-325" font-family="Helvetica,sans-Serif" font-size="10.00">UseReceivedData</text>
</a>
</g>
</g>
<!-- Node9&#45;&gt;Node22 -->
<g id="edge24" class="edge">
<title>Node9&#45;&gt;Node22</title>
<path fill="none" stroke="#63b8ff" d="M192.95,-327.5C207.39,-327.5 225.4,-327.5 242.52,-327.5"/>
<polygon fill="#63b8ff" stroke="#63b8ff" points="242.09,-331 252.09,-327.5 242.09,-324 242.09,-331"/>
</g>
<!-- Node11 -->
<g id="node11" class="node">
<title>Node11</title>
<g id="a_node11"><a xlink:href="pid_8h.html#a48050e81ef4521304a2dbeaf99e1a331" target="_top" xlink:title=" ">
<polygon fill="white" stroke="#666666" points="693,-475 613,-475 613,-456 693,-456 693,-475"/>
<text text-anchor="middle" x="653" y="-463" font-family="Helvetica,sans-Serif" font-size="10.00">DoStabilsation</text>
</a>
</g>
</g>
<!-- Node10&#45;&gt;Node11 -->
<g id="edge10" class="edge">
<title>Node10&#45;&gt;Node11</title>
<path fill="none" stroke="#63b8ff" d="M333.26,-262.05C383.8,-248.49 485.68,-229.57 555,-272.5 571.16,-282.51 622.58,-397.76 643.26,-445.24"/>
<polygon fill="#63b8ff" stroke="#63b8ff" points="639.92,-446.34 647.11,-454.12 646.34,-443.55 639.92,-446.34"/>
</g>
<!-- Node12 -->
<g id="node12" class="node">
<title>Node12</title>
<g id="a_node12"><a xlink:href="pid_8h.html#af0885e7050f46e9be63fa1c9574ad9a0" target="_top" xlink:title=" ">
<polygon fill="white" stroke="#666666" points="861,-475 784,-475 784,-456 861,-456 861,-475"/>
<text text-anchor="middle" x="822.5" y="-463" font-family="Helvetica,sans-Serif" font-size="10.00">PIDEntryPoint</text>
</a>
</g>
</g>
<!-- Node11&#45;&gt;Node12 -->
<g id="edge11" class="edge">
<title>Node11&#45;&gt;Node12</title>
<path fill="none" stroke="#63b8ff" d="M693.27,-465.5C716.92,-465.5 747.23,-465.5 772.44,-465.5"/>
<polygon fill="#63b8ff" stroke="#63b8ff" points="772.11,-469 782.11,-465.5 772.11,-462 772.11,-469"/>
</g>
<!-- Node14 -->
<g id="node14" class="node">
<title>Node14</title>
<g id="a_node14"><a xlink:href="radio_8h.html#affa2dcc4341b8daecac77e6e0a354b2d" target="_top" xlink:title=" ">
<polygon fill="white" stroke="#666666" points="714,-130 592,-130 592,-111 714,-111 714,-130"/>
<text text-anchor="middle" x="653" y="-118" font-family="Helvetica,sans-Serif" font-size="10.00">SendDateToAckPayload</text>
</a>
</g>
</g>
<!-- Node13&#45;&gt;Node14 -->
<g id="edge13" class="edge">
<title>Node13&#45;&gt;Node14</title>
<path fill="none" stroke="#63b8ff" d="M318.85,-113.33C335.01,-122.43 360.75,-135.31 385,-140.5 459.05,-156.35 546.98,-143.92 601.14,-132.8"/>
<polygon fill="#63b8ff" stroke="#63b8ff" points="601.63,-136.27 610.68,-130.77 600.17,-129.42 601.63,-136.27"/>
</g>
<!-- Node17 -->
<g id="node17" class="node">
<title>Node17</title>
<g id="a_node17"><a xlink:href="radio_8h.html#ab6bb1ded4e272b24f150c28295f4d291" target="_top" xlink:title=" ">
<polygon fill="white" stroke="#666666" points="517,-131 423,-131 423,-112 517,-112 517,-131"/>
<text text-anchor="middle" x="470" y="-119" font-family="Helvetica,sans-Serif" font-size="10.00">SendMacAddress</text>
</a>
</g>
</g>
<!-- Node13&#45;&gt;Node17 -->
<g id="edge16" class="edge">
<title>Node13&#45;&gt;Node17</title>
<path fill="none" stroke="#63b8ff" d="M346.68,-108.28C366.53,-110.42 390.2,-112.98 411.41,-115.27"/>
<polygon fill="#63b8ff" stroke="#63b8ff" points="410.75,-118.72 421.07,-116.32 411.5,-111.76 410.75,-118.72"/>
</g>
<!-- Node19 -->
<g id="node19" class="node">
<title>Node19</title>
<g id="a_node19"><a xlink:href="radio_8h.html#a8162c1748e39496c4adf88c55d1c49b8" target="_top" xlink:title=" ">
<polygon fill="white" stroke="#666666" points="715,-56 591,-56 591,-37 715,-37 715,-56"/>
<text text-anchor="middle" x="653" y="-44" font-family="Helvetica,sans-Serif" font-size="10.00">SendTimeToAckPayload</text>
</a>
</g>
</g>
<!-- Node13&#45;&gt;Node19 -->
<g id="edge19" class="edge">
<title>Node13&#45;&gt;Node19</title>
<path fill="none" stroke="#63b8ff" d="M319.88,-93.56C336.15,-84.78 361.41,-72.48 385,-66.5 449.36,-50.19 525.03,-45.85 579.34,-45.21"/>
<polygon fill="#63b8ff" stroke="#63b8ff" points="579.11,-48.71 589.08,-45.13 579.06,-41.71 579.11,-48.71"/>
</g>
<!-- Node20 -->
<g id="node20" class="node">
<title>Node20</title>
<g id="a_node20"><a xlink:href="radio_8h.html#a632401c7e72610ff0a0678358b6877ad" target="_top" xlink:title=" ">
<polygon fill="white" stroke="#666666" points="704,-19 602,-19 602,0 704,0 704,-19"/>
<text text-anchor="middle" x="653" y="-7" font-family="Helvetica,sans-Serif" font-size="10.00">SendToAckPayload</text>
</a>
</g>
</g>
<!-- Node13&#45;&gt;Node20 -->
<g id="edge21" class="edge">
<title>Node13&#45;&gt;Node20</title>
<path fill="none" stroke="#63b8ff" d="M312.08,-93.53C326.44,-79.29 355.07,-53.52 385,-41.5 451.63,-14.74 534.58,-8.58 590.18,-7.93"/>
<polygon fill="#63b8ff" stroke="#63b8ff" points="590.12,-11.43 600.11,-7.88 590.09,-4.43 590.12,-11.43"/>
</g>
<!-- Node21 -->
<g id="node21" class="node">
<title>Node21</title>
<g id="a_node21"><a xlink:href="radio_8h.html#af56956a6b17dbdfc9fceedeb5a13cb71" target="_top" xlink:title=" ">
<polygon fill="white" stroke="#666666" points="555,-94 385,-94 385,-75 555,-75 555,-94"/>
<text text-anchor="middle" x="470" y="-82" font-family="Helvetica,sans-Serif" font-size="10.00">SendVersionNumberToAckPayload</text>
</a>
</g>
</g>
<!-- Node13&#45;&gt;Node21 -->
<g id="edge23" class="edge">
<title>Node13&#45;&gt;Node21</title>
<path fill="none" stroke="#63b8ff" d="M346.68,-98.46C355.04,-97.5 364.07,-96.47 373.32,-95.42"/>
<polygon fill="#63b8ff" stroke="#63b8ff" points="373.62,-98.91 383.16,-94.3 372.83,-91.95 373.62,-98.91"/>
</g>
<!-- Node15 -->
<g id="node15" class="node">
<title>Node15</title>
<g id="a_node15"><a xlink:href="radio_8h.html#ad21c5c00ff554736e4e21cee13773cd5" target="_top" xlink:title=" ">
<polygon fill="white" stroke="#666666" points="894,-75 751,-75 751,-56 894,-56 894,-75"/>
<text text-anchor="middle" x="822.5" y="-63" font-family="Helvetica,sans-Serif" font-size="10.00">CheckWhetherItsTimeToHop</text>
</a>
</g>
</g>
<!-- Node14&#45;&gt;Node15 -->
<g id="edge14" class="edge">
<title>Node14&#45;&gt;Node15</title>
<path fill="none" stroke="#63b8ff" d="M688.93,-110.5C697.48,-107.97 706.59,-105.2 715,-102.5 737.8,-95.18 763.13,-86.41 783.37,-79.24"/>
<polygon fill="#63b8ff" stroke="#63b8ff" points="784.36,-82.6 792.61,-75.95 782.02,-76.01 784.36,-82.6"/>
</g>
<!-- Node16 -->
<g id="node16" class="node">
<title>Node16</title>
<g id="a_node16"><a xlink:href="radio_8h.html#ae913e02ff1fdfed85e4248ec648c1c6e" target="_top" xlink:title=" ">
<polygon fill="white" stroke="#666666" points="1030,-75 930,-75 930,-56 1030,-56 1030,-75"/>
<text text-anchor="middle" x="980" y="-63" font-family="Helvetica,sans-Serif" font-size="10.00">IncChannelNumber</text>
</a>
</g>
</g>
<!-- Node15&#45;&gt;Node16 -->
<g id="edge15" class="edge">
<title>Node15&#45;&gt;Node16</title>
<path fill="none" stroke="#63b8ff" d="M894.42,-65.5C902.39,-65.5 910.45,-65.5 918.27,-65.5"/>
<polygon fill="#63b8ff" stroke="#63b8ff" points="918,-69 928,-65.5 918,-62 918,-69"/>
</g>
<!-- Node18 -->
<g id="node18" class="node">
<title>Node18</title>
<g id="a_node18"><a xlink:href="radio_8h.html#a5b9bcce29081b0c53837ecb90e0a6b33" target="_top" xlink:title=" ">
<polygon fill="white" stroke="#666666" points="709.5,-93 596.5,-93 596.5,-74 709.5,-74 709.5,-93"/>
<text text-anchor="middle" x="653" y="-81" font-family="Helvetica,sans-Serif" font-size="10.00">SendIntToAckPayload</text>
</a>
</g>
</g>
<!-- Node17&#45;&gt;Node18 -->
<g id="edge17" class="edge">
<title>Node17&#45;&gt;Node18</title>
<path fill="none" stroke="#63b8ff" d="M517.14,-111.81C540.39,-106.93 568.84,-100.96 593.6,-95.76"/>
<polygon fill="#63b8ff" stroke="#63b8ff" points="594.13,-99.23 603.2,-93.75 592.69,-92.37 594.13,-99.23"/>
</g>
<!-- Node18&#45;&gt;Node15 -->
<g id="edge18" class="edge">
<title>Node18&#45;&gt;Node15</title>
<path fill="none" stroke="#63b8ff" d="M709.78,-77.51C719.32,-76.48 729.41,-75.4 739.46,-74.32"/>
<polygon fill="#63b8ff" stroke="#63b8ff" points="739.7,-77.81 749.27,-73.26 738.95,-70.85 739.7,-77.81"/>
</g>
<!-- Node19&#45;&gt;Node15 -->
<g id="edge20" class="edge">
<title>Node19&#45;&gt;Node15</title>
<path fill="none" stroke="#63b8ff" d="M715.42,-53.47C723.23,-54.35 731.31,-55.27 739.38,-56.18"/>
<polygon fill="#63b8ff" stroke="#63b8ff" points="738.9,-59.65 749.23,-57.3 739.69,-52.7 738.9,-59.65"/>
</g>
<!-- Node20&#45;&gt;Node15 -->
<g id="edge22" class="edge">
<title>Node20&#45;&gt;Node15</title>
<path fill="none" stroke="#63b8ff" d="M688.94,-19.45C697.49,-21.98 706.6,-24.76 715,-27.5 738.15,-35.04 763.87,-44.19 784.23,-51.63"/>
<polygon fill="#63b8ff" stroke="#63b8ff" points="782.93,-54.88 793.52,-55.04 785.34,-48.31 782.93,-54.88"/>
</g>
<!-- Node23 -->
<g id="node23" class="node">
<title>Node23</title>
<g id="a_node23"><a xlink:href="radio_8h.html#a6feccc8c0583de3235616d42076f1371" target="_top" xlink:title=" ">
<polygon fill="white" stroke="#666666" points="505.5,-374 434.5,-374 434.5,-355 505.5,-355 505.5,-374"/>
<text text-anchor="middle" x="470" y="-362" font-family="Helvetica,sans-Serif" font-size="10.00">Decompress</text>
</a>
</g>
</g>
<!-- Node22&#45;&gt;Node23 -->
<g id="edge25" class="edge">
<title>Node22&#45;&gt;Node23</title>
<path fill="none" stroke="#63b8ff" d="M345.29,-337.49C358.06,-340.43 372.09,-343.63 385,-346.5 397.37,-349.25 410.79,-352.16 423.19,-354.82"/>
<polygon fill="#63b8ff" stroke="#63b8ff" points="422.25,-358.19 432.76,-356.86 423.71,-351.35 422.25,-358.19"/>
</g>
<!-- Node24 -->
<g id="node24" class="node">
<title>Node24</title>
<g id="a_node24"><a xlink:href="radio_8h.html#a62ec0168b1eea5f5c14f663d9217574d" target="_top" xlink:title=" ">
<polygon fill="white" stroke="#666666" points="520.5,-337 419.5,-337 419.5,-318 520.5,-318 520.5,-337"/>
<text text-anchor="middle" x="470" y="-325" font-family="Helvetica,sans-Serif" font-size="10.00">HopToNextChannel</text>
</a>
</g>
</g>
<!-- Node22&#45;&gt;Node24 -->
<g id="edge26" class="edge">
<title>Node22&#45;&gt;Node24</title>
<path fill="none" stroke="#63b8ff" d="M349.32,-327.5C367.41,-327.5 388.35,-327.5 407.62,-327.5"/>
<polygon fill="#63b8ff" stroke="#63b8ff" points="407.53,-331 417.53,-327.5 407.53,-324 407.53,-331"/>
</g>
<!-- Node25 -->
<g id="node25" class="node">
<title>Node25</title>
<g id="a_node25"><a xlink:href="radio_8h.html#a6a495c5560f12cc3fd3df9454927d681" target="_top" xlink:title=" ">
<polygon fill="white" stroke="#666666" points="507,-411 433,-411 433,-392 507,-392 507,-411"/>
<text text-anchor="middle" x="470" y="-399" font-family="Helvetica,sans-Serif" font-size="10.00">MapToSBUS</text>
</a>
</g>
</g>
<!-- Node22&#45;&gt;Node25 -->
<g id="edge27" class="edge">
<title>Node22&#45;&gt;Node25</title>
<path fill="none" stroke="#63b8ff" d="M313.95,-337.41C329.14,-350.05 357.3,-371.67 385,-383.5 396.45,-388.39 409.36,-392 421.56,-394.66"/>
<polygon fill="#63b8ff" stroke="#63b8ff" points="420.53,-398.02 431.02,-396.53 421.89,-391.15 420.53,-398.02"/>
</g>
<!-- Node26 -->
<g id="node26" class="node">
<title>Node26</title>
<g id="a_node26"><a xlink:href="radio_8h.html#a6c490ef42e364f8bb1430c436e86c9c0" target="_top" xlink:title=" ">
<polygon fill="white" stroke="#666666" points="525.5,-224 414.5,-224 414.5,-205 525.5,-205 525.5,-224"/>
<text text-anchor="middle" x="470" y="-212" font-family="Helvetica,sans-Serif" font-size="10.00">ReadExtraParameters</text>
</a>
</g>
</g>
<!-- Node22&#45;&gt;Node26 -->
<g id="edge28" class="edge">
<title>Node22&#45;&gt;Node26</title>
<path fill="none" stroke="#63b8ff" d="M316.98,-317.67C345.64,-298.22 409.84,-254.65 444.95,-230.82"/>
<polygon fill="#63b8ff" stroke="#63b8ff" points="446.87,-233.75 453.18,-225.24 442.94,-227.96 446.87,-233.75"/>
</g>
<!-- Node33 -->
<g id="node33" class="node">
<title>Node33</title>
<g id="a_node33"><a xlink:href="radio_8h.html#a324d644a6306bb8be3b7f46b4bb32421" target="_top" xlink:title=" ">
<polygon fill="white" stroke="#666666" points="529,-300 411,-300 411,-281 529,-281 529,-300"/>
<text text-anchor="middle" x="470" y="-288" font-family="Helvetica,sans-Serif" font-size="10.00">RearrangeTheChannels</text>
</a>
</g>
</g>
<!-- Node22&#45;&gt;Node33 -->
<g id="edge36" class="edge">
<title>Node22&#45;&gt;Node33</title>
<path fill="none" stroke="#63b8ff" d="M347.12,-317.58C367.46,-313.06 391.76,-307.66 413.29,-302.88"/>
<polygon fill="#63b8ff" stroke="#63b8ff" points="413.78,-306.36 422.78,-300.77 412.26,-299.52 413.78,-306.36"/>
</g>
<!-- Node27 -->
<g id="node27" class="node">
<title>Node27</title>
<g id="a_node27"><a xlink:href="ReceiverCode_2src_2main_8cpp.html#a5ae8a2aa29e834880ccf370c7547961b" target="_top" xlink:title=" ">
<polygon fill="white" stroke="#666666" points="682.5,-167 623.5,-167 623.5,-148 682.5,-148 682.5,-167"/>
<text text-anchor="middle" x="653" y="-155" font-family="Helvetica,sans-Serif" font-size="10.00">MarkHere</text>
</a>
</g>
</g>
<!-- Node26&#45;&gt;Node27 -->
<g id="edge29" class="edge">
<title>Node26&#45;&gt;Node27</title>
<path fill="none" stroke="#63b8ff" d="M502.07,-204.62C526.29,-196.92 560.77,-185.99 591,-176.5 597.88,-174.34 605.19,-172.05 612.28,-169.84"/>
<polygon fill="#63b8ff" stroke="#63b8ff" points="613.18,-173.23 621.69,-166.91 611.1,-166.54 613.18,-173.23"/>
</g>
<!-- Node29 -->
<g id="node29" class="node">
<title>Node29</title>
<g id="a_node29"><a xlink:href="ReceiverCode_2src_2main_8cpp.html#ad86a39e4cba19592c760833870f6f69c" target="_top" xlink:title=" ">
<polygon fill="white" stroke="#666666" points="689.5,-278 616.5,-278 616.5,-259 689.5,-259 689.5,-278"/>
<text text-anchor="middle" x="653" y="-266" font-family="Helvetica,sans-Serif" font-size="10.00">RebuildFlags</text>
</a>
</g>
</g>
<!-- Node26&#45;&gt;Node29 -->
<g id="edge31" class="edge">
<title>Node26&#45;&gt;Node29</title>
<path fill="none" stroke="#63b8ff" d="M507.07,-224.44C521.96,-228.63 539.35,-233.66 555,-238.5 571.11,-243.48 574.91,-245.45 591,-250.5 596.07,-252.09 601.38,-253.72 606.67,-255.32"/>
<polygon fill="#63b8ff" stroke="#63b8ff" points="605.38,-258.58 615.97,-258.09 607.39,-251.88 605.38,-258.58"/>
</g>
<!-- Node30 -->
<g id="node30" class="node">
<title>Node30</title>
<g id="a_node30"><a xlink:href="ReceiverCode_2src_2main_8cpp.html#af2b1ba43295661243b7bb78004d470d8" target="_top" xlink:title=" ">
<polygon fill="white" stroke="#666666" points="711.5,-315 594.5,-315 594.5,-296 711.5,-296 711.5,-315"/>
<text text-anchor="middle" x="653" y="-303" font-family="Helvetica,sans-Serif" font-size="10.00">SendQnhToSensorHub</text>
</a>
</g>
</g>
<!-- Node26&#45;&gt;Node30 -->
<g id="edge32" class="edge">
<title>Node26&#45;&gt;Node30</title>
<path fill="none" stroke="#63b8ff" d="M525.79,-224.5C536.05,-227.9 546.28,-232.44 555,-238.5 577.18,-253.93 568.88,-271.97 591,-287.5 592.58,-288.61 594.24,-289.66 595.94,-290.64"/>
<polygon fill="#63b8ff" stroke="#63b8ff" points="594.28,-293.72 604.8,-294.92 597.33,-287.42 594.28,-293.72"/>
</g>
<!-- Node31 -->
<g id="node31" class="node">
<title>Node31</title>
<g id="a_node31"><a xlink:href="radio_8h.html#a31a35307bbac88ceda244272f25d399a" target="_top" xlink:title=" ">
<polygon fill="white" stroke="#666666" points="705,-241 601,-241 601,-222 705,-222 705,-241"/>
<text text-anchor="middle" x="653" y="-229" font-family="Helvetica,sans-Serif" font-size="10.00">SetTestFrequencies</text>
</a>
</g>
</g>
<!-- Node26&#45;&gt;Node31 -->
<g id="edge34" class="edge">
<title>Node26&#45;&gt;Node31</title>
<path fill="none" stroke="#63b8ff" d="M525.8,-219.65C545.9,-221.53 568.8,-223.69 589.53,-225.63"/>
<polygon fill="#63b8ff" stroke="#63b8ff" points="589,-229.1 599.28,-226.55 589.66,-222.13 589,-229.1"/>
</g>
<!-- Node32 -->
<g id="node32" class="node">
<title>Node32</title>
<g id="a_node32"><a xlink:href="radio_8h.html#a2eabdb233653fa02f0b899e26b5e8ce7" target="_top" xlink:title=" ">
<polygon fill="white" stroke="#666666" points="702.5,-204 603.5,-204 603.5,-185 702.5,-185 702.5,-204"/>
<text text-anchor="middle" x="653" y="-192" font-family="Helvetica,sans-Serif" font-size="10.00">SetUKFrequencies</text>
</a>
</g>
</g>
<!-- Node26&#45;&gt;Node32 -->
<g id="edge35" class="edge">
<title>Node26&#45;&gt;Node32</title>
<path fill="none" stroke="#63b8ff" d="M525.8,-208.45C546.7,-206.14 570.63,-203.49 591.99,-201.13"/>
<polygon fill="#63b8ff" stroke="#63b8ff" points="592.17,-204.63 601.72,-200.06 591.4,-197.67 592.17,-204.63"/>
</g>
<!-- Node28 -->
<g id="node28" class="node">
<title>Node28</title>
<g id="a_node28"><a xlink:href="ReceiverCode_2src_2main_8cpp.html#a3f80da71956ba53fcff126bfe2296e65" target="_top" xlink:title=" ">
<polygon fill="white" stroke="#666666" points="872,-241 773,-241 773,-222 872,-222 872,-241"/>
<text text-anchor="middle" x="822.5" y="-229" font-family="Helvetica,sans-Serif" font-size="10.00">SendToSensorHub</text>
</a>
</g>
</g>
<!-- Node27&#45;&gt;Node28 -->
<g id="edge30" class="edge">
<title>Node27&#45;&gt;Node28</title>
<path fill="none" stroke="#63b8ff" d="M682.92,-165.38C693.19,-168.47 704.74,-172.29 715,-176.5 743,-187.99 773.56,-204.17 794.73,-216.01"/>
<polygon fill="#63b8ff" stroke="#63b8ff" points="792.85,-218.97 803.28,-220.85 796.3,-212.88 792.85,-218.97"/>
</g>
<!-- Node30&#45;&gt;Node28 -->
<g id="edge33" class="edge">
<title>Node30&#45;&gt;Node28</title>
<path fill="none" stroke="#63b8ff" d="M692.15,-295.5C699.81,-293.15 707.74,-290.45 715,-287.5 743.32,-276.01 774.05,-259.36 795.19,-247.21"/>
<polygon fill="#63b8ff" stroke="#63b8ff" points="796.83,-250.3 803.71,-242.24 793.31,-244.25 796.83,-250.3"/>
</g>
<!-- Node35&#45;&gt;Node2 -->
<g id="edge49" class="edge">
<title>Node35&#45;&gt;Node2</title>
<path fill="none" stroke="#63b8ff" d="M172.13,-596.3C187.01,-613.82 220.22,-650.96 254,-675.5 258.36,-678.67 263.21,-681.66 268.07,-684.38"/>
<polygon fill="#63b8ff" stroke="#63b8ff" points="266.11,-687.31 276.59,-688.87 269.37,-681.11 266.11,-687.31"/>
</g>
<!-- Node36 -->
<g id="node36" class="node">
<title>Node36</title>
<g id="a_node36"><a xlink:href="ReceiverCode_2src_2main_8cpp.html#aa477cf7453bb57dab00e7b654f62cb13" target="_top" xlink:title=" ">
<polygon fill="white" stroke="#666666" points="497.5,-672 442.5,-672 442.5,-653 497.5,-653 497.5,-672"/>
<text text-anchor="middle" x="470" y="-660" font-family="Helvetica,sans-Serif" font-size="10.00">BlinkLed</text>
</a>
</g>
</g>
<!-- Node35&#45;&gt;Node36 -->
<g id="edge39" class="edge">
<title>Node35&#45;&gt;Node36</title>
<path fill="none" stroke="#63b8ff" d="M175.88,-596.46C192.28,-609.57 223.3,-632.17 254,-642.5 313.39,-662.49 386.9,-664.9 430.76,-664.17"/>
<polygon fill="#63b8ff" stroke="#63b8ff" points="430.62,-667.67 440.53,-663.93 430.45,-660.67 430.62,-667.67"/>
</g>
<!-- Node37 -->
<g id="node37" class="node">
<title>Node37</title>
<g id="a_node37"><a xlink:href="ReceiverCode_2src_2main_8cpp.html#a42318598726782ebb2e1857f167c8cda" target="_top" xlink:title=" ">
<polygon fill="white" stroke="#666666" points="328,-520 275,-520 275,-501 328,-501 328,-520"/>
<text text-anchor="middle" x="301.5" y="-508" font-family="Helvetica,sans-Serif" font-size="10.00">FailSafe</text>
</a>
</g>
</g>
<!-- Node35&#45;&gt;Node37 -->
<g id="edge42" class="edge">
<title>Node35&#45;&gt;Node37</title>
<path fill="none" stroke="#63b8ff" d="M180.45,-576.68C198.4,-566.04 228.03,-548.69 254,-534.5 259.48,-531.5 265.37,-528.39 271.06,-525.43"/>
<polygon fill="#63b8ff" stroke="#63b8ff" points="272.3,-528.72 279.59,-521.03 269.1,-522.5 272.3,-528.72"/>
</g>
<!-- Node41 -->
<g id="node41" class="node">
<title>Node41</title>
<g id="a_node41"><a xlink:href="ReceiverCode_2src_2main_8cpp.html#ada95a00a341e4a80176eda743a94ab2e" target="_top" xlink:title=" ">
<polygon fill="white" stroke="#666666" points="336.5,-596 266.5,-596 266.5,-577 336.5,-577 336.5,-596"/>
<text text-anchor="middle" x="301.5" y="-584" font-family="Helvetica,sans-Serif" font-size="10.00">KickTheDog</text>
</a>
</g>
</g>
<!-- Node35&#45;&gt;Node41 -->
<g id="edge50" class="edge">
<title>Node35&#45;&gt;Node41</title>
<path fill="none" stroke="#63b8ff" d="M194.97,-586.5C212.64,-586.5 235.12,-586.5 254.79,-586.5"/>
<polygon fill="#63b8ff" stroke="#63b8ff" points="254.78,-590 264.78,-586.5 254.78,-583 254.78,-590"/>
</g>
<!-- Node42 -->
<g id="node42" class="node">
<title>Node42</title>
<g id="a_node42"><a xlink:href="radio_8h.html#a62f1498f67d7e438905ae486bc27044f" target="_top" xlink:title=" ">
<polygon fill="white" stroke="#666666" points="332.5,-633 270.5,-633 270.5,-614 332.5,-614 332.5,-633"/>
<text text-anchor="middle" x="301.5" y="-621" font-family="Helvetica,sans-Serif" font-size="10.00">ProdRadio</text>
</a>
</g>
</g>
<!-- Node35&#45;&gt;Node42 -->
<g id="edge51" class="edge">
<title>Node35&#45;&gt;Node42</title>
<path fill="none" stroke="#63b8ff" d="M194.97,-594.9C213.96,-600.04 238.49,-606.69 259.12,-612.28"/>
<polygon fill="#63b8ff" stroke="#63b8ff" points="258.09,-615.63 268.66,-614.87 259.92,-608.87 258.09,-615.63"/>
</g>
<!-- Node44 -->
<g id="node44" class="node">
<title>Node44</title>
<g id="a_node44"><a xlink:href="radio_8h.html#a1208ef26dd460e6f5f56582f4fbfcf94" target="_top" xlink:title=" ">
<polygon fill="white" stroke="#666666" points="519,-598 421,-598 421,-579 519,-579 519,-598"/>
<text text-anchor="middle" x="470" y="-586" font-family="Helvetica,sans-Serif" font-size="10.00">TryToConnectNow</text>
</a>
</g>
</g>
<!-- Node35&#45;&gt;Node44 -->
<g id="edge55" class="edge">
<title>Node35&#45;&gt;Node44</title>
<path fill="none" stroke="#63b8ff" d="M194.6,-578.82C211.91,-574.87 234.02,-570.48 254,-568.5 296.02,-564.34 306.92,-565.02 349,-568.5 368.79,-570.14 390.23,-573.27 409.44,-576.58"/>
<polygon fill="#63b8ff" stroke="#63b8ff" points="408.82,-580.02 419.28,-578.33 410.04,-573.13 408.82,-580.02"/>
</g>
<!-- Node36&#45;&gt;Node6 -->
<g id="edge40" class="edge">
<title>Node36&#45;&gt;Node6</title>
<path fill="none" stroke="#63b8ff" d="M497.71,-657.04C527.04,-651.04 574.56,-641.33 609.12,-634.26"/>
<polygon fill="#63b8ff" stroke="#63b8ff" points="609.72,-637.71 618.82,-632.28 608.32,-630.86 609.72,-637.71"/>
</g>
<!-- Node36&#45;&gt;Node7 -->
<g id="edge41" class="edge">
<title>Node36&#45;&gt;Node7</title>
<path fill="none" stroke="#63b8ff" d="M497.71,-662.5C527.04,-662.5 574.56,-662.5 609.12,-662.5"/>
<polygon fill="#63b8ff" stroke="#63b8ff" points="608.79,-666 618.79,-662.5 608.79,-659 608.79,-666"/>
</g>
<!-- Node37&#45;&gt;Node3 -->
<g id="edge45" class="edge">
<title>Node37&#45;&gt;Node3</title>
<path fill="none" stroke="#63b8ff" d="M312.33,-520.36C322.73,-531.29 339,-549.85 349,-568.5 373.9,-614.95 345.96,-646.09 385,-681.5 395.36,-690.89 409.39,-695.82 423.02,-698.29"/>
<polygon fill="#63b8ff" stroke="#63b8ff" points="422.41,-701.74 432.79,-699.63 423.36,-694.81 422.41,-701.74"/>
</g>
<!-- Node37&#45;&gt;Node6 -->
<g id="edge47" class="edge">
<title>Node37&#45;&gt;Node6</title>
<path fill="none" stroke="#63b8ff" d="M328.47,-517.28C344.7,-521.47 366.04,-526.91 385,-531.5 460.34,-549.73 482.75,-542.42 555,-570.5 581.31,-580.72 609.11,-597.14 628.18,-609.38"/>
<polygon fill="#63b8ff" stroke="#63b8ff" points="626,-612.14 636.28,-614.69 629.83,-606.28 626,-612.14"/>
</g>
<!-- Node37&#45;&gt;Node25 -->
<g id="edge44" class="edge">
<title>Node37&#45;&gt;Node25</title>
<path fill="none" stroke="#63b8ff" d="M308.6,-500.56C320.69,-481.76 349.61,-441.03 385,-420.5 396.09,-414.07 409.18,-409.81 421.68,-407"/>
<polygon fill="#63b8ff" stroke="#63b8ff" points="422.29,-410.44 431.43,-405.09 420.94,-403.57 422.29,-410.44"/>
</g>
<!-- Node38 -->
<g id="node38" class="node">
<title>Node38</title>
<g id="a_node38"><a xlink:href="ReceiverCode_2src_2main_8cpp.html#a7b232e8049c83655363495df07fc96d9" target="_top" xlink:title=" ">
<polygon fill="white" stroke="#666666" points="517.5,-522 422.5,-522 422.5,-503 517.5,-503 517.5,-522"/>
<text text-anchor="middle" x="470" y="-510" font-family="Helvetica,sans-Serif" font-size="10.00">LoadFailSafeData</text>
</a>
</g>
</g>
<!-- Node37&#45;&gt;Node38 -->
<g id="edge43" class="edge">
<title>Node37&#45;&gt;Node38</title>
<path fill="none" stroke="#63b8ff" d="M328.15,-510.81C350.12,-511.07 382.58,-511.46 410.81,-511.8"/>
<polygon fill="#63b8ff" stroke="#63b8ff" points="410.64,-515.3 420.68,-511.92 410.72,-508.3 410.64,-515.3"/>
</g>
<!-- Node39 -->
<g id="node39" class="node">
<title>Node39</title>
<g id="a_node39"><a xlink:href="TransmitterCode_2src_2main_8cpp.html#a083c423be6ce1635de5961d0fc72ff06" target="_top" xlink:title=" ">
<polygon fill="white" stroke="#666666" points="519.5,-485 420.5,-485 420.5,-466 519.5,-466 519.5,-485"/>
<text text-anchor="middle" x="470" y="-473" font-family="Helvetica,sans-Serif" font-size="10.00">SetUKFrequencies</text>
</a>
</g>
</g>
<!-- Node37&#45;&gt;Node39 -->
<g id="edge46" class="edge">
<title>Node37&#45;&gt;Node39</title>
<path fill="none" stroke="#63b8ff" d="M328.15,-505.11C350.05,-500.5 382.39,-493.71 410.56,-487.78"/>
<polygon fill="#63b8ff" stroke="#63b8ff" points="410.98,-491.27 420.04,-485.79 409.54,-484.42 410.98,-491.27"/>
</g>
<!-- Node40 -->
<g id="node40" class="node">
<title>Node40</title>
<g id="a_node40"><a xlink:href="Utilities_8h.html#a23be886d0f26b1bd0487babfb4d7ed7e" target="_top" xlink:title=" ">
<polygon fill="white" stroke="#666666" points="543,-448 397,-448 397,-429 543,-429 543,-448"/>
<text text-anchor="middle" x="470" y="-436" font-family="Helvetica,sans-Serif" font-size="10.00">UseDefaultRecoveryChannels</text>
</a>
</g>
</g>
<!-- Node37&#45;&gt;Node40 -->
<g id="edge48" class="edge">
<title>Node37&#45;&gt;Node40</title>
<path fill="none" stroke="#63b8ff" d="M314.87,-500.57C330.36,-488.62 358.15,-468.75 385,-457.5 390.29,-455.28 395.89,-453.3 401.58,-451.54"/>
<polygon fill="#63b8ff" stroke="#63b8ff" points="402.46,-454.93 411.12,-448.82 400.54,-448.19 402.46,-454.93"/>
</g>
<!-- Node43 -->
<g id="node43" class="node">
<title>Node43</title>
<g id="a_node43"><a xlink:href="radio_8h.html#a3bb52983d9a2108589830301007bdce1" target="_top" xlink:title=" ">
<polygon fill="white" stroke="#666666" points="511,-635 429,-635 429,-616 511,-616 511,-635"/>
<text text-anchor="middle" x="470" y="-623" font-family="Helvetica,sans-Serif" font-size="10.00">ConfigureRadio</text>
</a>
</g>
</g>
<!-- Node42&#45;&gt;Node43 -->
<g id="edge52" class="edge">
<title>Node42&#45;&gt;Node43</title>
<path fill="none" stroke="#63b8ff" d="M332.65,-623.86C356.29,-624.15 389.73,-624.55 417.58,-624.88"/>
<polygon fill="#63b8ff" stroke="#63b8ff" points="417.18,-628.38 427.22,-625 417.26,-621.38 417.18,-628.38"/>
</g>
<!-- Node42&#45;&gt;Node44 -->
<g id="edge53" class="edge">
<title>Node42&#45;&gt;Node44</title>
<path fill="none" stroke="#63b8ff" d="M332.65,-617.16C354.3,-612.61 384.17,-606.33 410.43,-600.81"/>
<polygon fill="#63b8ff" stroke="#63b8ff" points="410.89,-604.29 419.95,-598.81 409.45,-597.44 410.89,-604.29"/>
</g>
<!-- Node44&#45;&gt;Node11 -->
<g id="edge54" class="edge">
<title>Node44&#45;&gt;Node11</title>
<path fill="none" stroke="#63b8ff" d="M485.57,-578.62C502.33,-567.26 530.66,-548.04 555,-531.5 579.96,-514.54 608.52,-495.1 628.16,-481.74"/>
<polygon fill="#63b8ff" stroke="#63b8ff" points="629.99,-484.72 636.29,-476.2 626.06,-478.93 629.99,-484.72"/>
</g>
</g>
</svg>
