<?xml version="1.0" encoding="UTF-8" standalone="no"?>
<!DOCTYPE svg PUBLIC "-//W3C//DTD SVG 1.1//EN"
 "http://www.w3.org/Graphics/SVG/1.1/DTD/svg11.dtd">
<!-- Generated by graphviz version 3.0.0 (20221109.1736)
 -->
<!-- Title: BindModel Pages: 1 -->
<svg width="433pt" height="66pt"
 viewBox="0.00 0.00 433.00 66.00" xmlns="http://www.w3.org/2000/svg" xmlns:xlink="http://www.w3.org/1999/xlink">
<g id="graph0" class="graph" transform="scale(1 1) rotate(0) translate(4 62)">
<title>BindModel</title>
<polygon fill="white" stroke="transparent" points="-4,4 -4,-62 429,-62 429,4 -4,4"/>
<!-- Node1 -->
<g id="node1" class="node">
<title>Node1</title>
<g id="a_node1"><a xlink:title=" ">
<polygon fill="#bfbfbf" stroke="black" points="0,-19.5 0,-38.5 62,-38.5 62,-19.5 0,-19.5"/>
<text text-anchor="middle" x="31" y="-26.5" font-family="Helvetica,sans-Serif" font-size="10.00">BindModel</text>
</a>
</g>
</g>
<!-- Node2 -->
<g id="node2" class="node">
<title>Node2</title>
<g id="a_node2"><a xlink:href="ReceiverCode_2src_2main_8cpp.html#a0cbfd712ab3bd8f654bc19400fd704bd" target="_top" xlink:title=" ">
<polygon fill="white" stroke="black" points="98,-38.5 98,-57.5 174,-57.5 174,-38.5 98,-38.5"/>
<text text-anchor="middle" x="136" y="-45.5" font-family="Helvetica,sans-Serif" font-size="10.00">AttachServos</text>
</a>
</g>
</g>
<!-- Node1&#45;&gt;Node2 -->
<g id="edge1" class="edge">
<title>Node1&#45;&gt;Node2</title>
<path fill="none" stroke="midnightblue" d="M62.07,-34.55C70.09,-36.03 78.96,-37.66 87.67,-39.27"/>
<polygon fill="midnightblue" stroke="midnightblue" points="87.29,-42.76 97.76,-41.13 88.56,-35.87 87.29,-42.76"/>
</g>
<!-- Node5 -->
<g id="node5" class="node">
<title>Node5</title>
<g id="a_node5"><a xlink:href="radio_8h.html#a6f54969e66375decc44723b141b78766" target="_top" xlink:title=" ">
<polygon fill="white" stroke="black" points="100.5,-0.5 100.5,-19.5 171.5,-19.5 171.5,-0.5 100.5,-0.5"/>
<text text-anchor="middle" x="136" y="-7.5" font-family="Helvetica,sans-Serif" font-size="10.00">SetNewPipe</text>
</a>
</g>
</g>
<!-- Node1&#45;&gt;Node5 -->
<g id="edge4" class="edge">
<title>Node1&#45;&gt;Node5</title>
<path fill="none" stroke="midnightblue" d="M62.07,-23.45C70.97,-21.81 80.91,-19.98 90.52,-18.2"/>
<polygon fill="midnightblue" stroke="midnightblue" points="91.16,-21.65 100.36,-16.39 89.89,-14.76 91.16,-21.65"/>
</g>
<!-- Node3 -->
<g id="node3" class="node">
<title>Node3</title>
<g id="a_node3"><a xlink:href="classSBUS.html#a5c2fccbffff0bd17ed522529fd6b2d8f" target="_top" xlink:title=" ">
<polygon fill="white" stroke="black" points="210,-38.5 210,-57.5 282,-57.5 282,-38.5 210,-38.5"/>
<text text-anchor="middle" x="246" y="-45.5" font-family="Helvetica,sans-Serif" font-size="10.00">SBUS::begin</text>
</a>
</g>
</g>
<!-- Node2&#45;&gt;Node3 -->
<g id="edge2" class="edge">
<title>Node2&#45;&gt;Node3</title>
<path fill="none" stroke="midnightblue" d="M174.17,-48C182.41,-48 191.23,-48 199.76,-48"/>
<polygon fill="midnightblue" stroke="midnightblue" points="199.95,-51.5 209.95,-48 199.95,-44.5 199.95,-51.5"/>
</g>
<!-- Node4 -->
<g id="node4" class="node">
<title>Node4</title>
<g id="a_node4"><a xlink:href="classSBUS.html#a58a6caab31090f4019d4f2439ab20fc2" target="_top" xlink:title=" ">
<polygon fill="white" stroke="black" points="318,-38.5 318,-57.5 425,-57.5 425,-38.5 318,-38.5"/>
<text text-anchor="middle" x="371.5" y="-45.5" font-family="Helvetica,sans-Serif" font-size="10.00">SBUS::setEndPoints</text>
</a>
</g>
</g>
<!-- Node3&#45;&gt;Node4 -->
<g id="edge3" class="edge">
<title>Node3&#45;&gt;Node4</title>
<path fill="none" stroke="midnightblue" d="M282.06,-48C290.06,-48 298.79,-48 307.56,-48"/>
<polygon fill="midnightblue" stroke="midnightblue" points="307.82,-51.5 317.82,-48 307.82,-44.5 307.82,-51.5"/>
</g>
</g>
</svg>
