<?xml version="1.0" encoding="UTF-8" standalone="no"?>
<!DOCTYPE svg PUBLIC "-//W3C//DTD SVG 1.1//EN"
 "http://www.w3.org/Graphics/SVG/1.1/DTD/svg11.dtd">
<!-- Generated by graphviz version 7.0.4 (20221203.1631)
 -->
<!-- Title: DrawFhssBox Pages: 1 -->
<svg width="1155pt" height="1065pt"
 viewBox="0.00 0.00 1155.00 1064.50" xmlns="http://www.w3.org/2000/svg" xmlns:xlink="http://www.w3.org/1999/xlink">
<g id="graph0" class="graph" transform="scale(1 1) rotate(0) translate(4 1060.5)">
<title>DrawFhssBox</title>
<!-- Node1 -->
<g id="node1" class="node">
<title>Node1</title>
<g id="a_node1"><a xlink:title=" ">
<polygon fill="#999999" stroke="#666666" points="77,-952 0,-952 0,-933 77,-933 77,-952"/>
<text text-anchor="middle" x="38.5" y="-940" font-family="Helvetica,sans-Serif" font-size="10.00">DrawFhssBox</text>
</a>
</g>
</g>
<!-- Node2 -->
<g id="node2" class="node">
<title>Node2</title>
<g id="a_node2"><a xlink:href="TransmitterCode_2src_2main_8cpp.html#acd617ff93ca893aa7d65aaf2898dfc3d" target="_top" xlink:title=" ">
<polygon fill="white" stroke="#666666" points="195,-933 113,-933 113,-914 195,-914 195,-933"/>
<text text-anchor="middle" x="154" y="-921" font-family="Helvetica,sans-Serif" font-size="10.00">SendCharArray</text>
</a>
</g>
</g>
<!-- Node1&#45;&gt;Node2 -->
<g id="edge1" class="edge">
<title>Node1&#45;&gt;Node2</title>
<path fill="none" stroke="#63b8ff" d="M77.29,-936.17C85.01,-934.88 93.25,-933.5 101.35,-932.15"/>
<polygon fill="#63b8ff" stroke="#63b8ff" points="101.87,-935.61 111.15,-930.51 100.71,-928.7 101.87,-935.61"/>
</g>
<!-- Node26 -->
<g id="node21" class="node">
<title>Node26</title>
<g id="a_node21"><a xlink:href="TransmitterCode_2src_2main_8cpp.html#a590a9174319918d7e3d7baca323fcf26" target="_top" xlink:title=" ">
<polygon fill="white" stroke="#666666" points="1120,-826 1091,-826 1091,-807 1120,-807 1120,-826"/>
<text text-anchor="middle" x="1105.5" y="-814" font-family="Helvetica,sans-Serif" font-size="10.00">Str</text>
</a>
</g>
</g>
<!-- Node1&#45;&gt;Node26 -->
<g id="edge73" class="edge">
<title>Node1&#45;&gt;Node26</title>
<path fill="none" stroke="#63b8ff" d="M50.15,-952.22C81.52,-979.79 177.26,-1056.5 271.5,-1056.5 271.5,-1056.5 271.5,-1056.5 831.5,-1056.5 933.37,-1056.5 955.28,-1009.84 1028,-938.5 1059.09,-908 1083.3,-862.51 1095.59,-836.56"/>
<polygon fill="#63b8ff" stroke="#63b8ff" points="1098.61,-838.36 1099.61,-827.81 1092.25,-835.43 1098.61,-838.36"/>
</g>
<!-- Node3 -->
<g id="node3" class="node">
<title>Node3</title>
<g id="a_node3"><a xlink:href="TransmitterCode_2src_2main_8cpp.html#aecac2f0c289f02ef3c92b85be82eacac" target="_top" xlink:title=" ">
<polygon fill="white" stroke="#666666" points="314,-819 231,-819 231,-800 314,-800 314,-819"/>
<text text-anchor="middle" x="272.5" y="-807" font-family="Helvetica,sans-Serif" font-size="10.00">SendCommand</text>
</a>
</g>
</g>
<!-- Node2&#45;&gt;Node3 -->
<g id="edge2" class="edge">
<title>Node2&#45;&gt;Node3</title>
<path fill="none" stroke="#63b8ff" d="M164.93,-913.78C184.62,-894.51 228.84,-851.25 253.68,-826.93"/>
<polygon fill="#63b8ff" stroke="#63b8ff" points="255.81,-829.75 260.51,-820.25 250.92,-824.75 255.81,-829.75"/>
</g>
<!-- Node4 -->
<g id="node4" class="node">
<title>Node4</title>
<g id="a_node4"><a xlink:href="TransmitterCode_2src_2main_8cpp.html#a43937dd3d9c795271fd9c3eb3c6b6410" target="_top" xlink:title=" ">
<polygon fill="white" stroke="#666666" points="1147,-961 1064,-961 1064,-942 1147,-942 1147,-961"/>
<text text-anchor="middle" x="1105.5" y="-949" font-family="Helvetica,sans-Serif" font-size="10.00">GetReturnCode</text>
</a>
</g>
</g>
<!-- Node3&#45;&gt;Node4 -->
<g id="edge3" class="edge">
<title>Node3&#45;&gt;Node4</title>
<path fill="none" stroke="#63b8ff" d="M276.9,-819.39C285.53,-843.23 310.46,-904.51 350,-940.5 410.88,-995.91 435.68,-1018.5 518,-1018.5 518,-1018.5 518,-1018.5 831.5,-1018.5 919.7,-1018.5 1019.44,-985.1 1070.46,-965.47"/>
<polygon fill="#63b8ff" stroke="#63b8ff" points="1071.43,-968.84 1079.47,-961.94 1068.88,-962.33 1071.43,-968.84"/>
</g>
<!-- Node5 -->
<g id="node5" class="node">
<title>Node5</title>
<g id="a_node5"><a xlink:href="TransmitterCode_2src_2main_8cpp.html#a5f109790a6fe0b972a502f3cac4ed1e7" target="_top" xlink:title=" ">
<polygon fill="white" stroke="#666666" points="411,-800 363,-800 363,-781 411,-781 411,-800"/>
<text text-anchor="middle" x="387" y="-788" font-family="Helvetica,sans-Serif" font-size="10.00">InStrng</text>
</a>
</g>
</g>
<!-- Node3&#45;&gt;Node5 -->
<g id="edge4" class="edge">
<title>Node3&#45;&gt;Node5</title>
<path fill="none" stroke="#63b8ff" d="M314.43,-802.59C326.59,-800.53 339.78,-798.31 351.49,-796.33"/>
<polygon fill="#63b8ff" stroke="#63b8ff" points="351.83,-799.82 361.11,-794.7 350.67,-792.92 351.83,-799.82"/>
</g>
<!-- Node6 -->
<g id="node6" class="node">
<title>Node6</title>
<g id="a_node6"><a xlink:href="RadioFunctions_8cpp.html#a760609a682300dfe6bfaac737fd4d5eb" target="_top" xlink:title=" ">
<polygon fill="white" stroke="#666666" points="424,-500 350,-500 350,-481 424,-481 424,-500"/>
<text text-anchor="middle" x="387" y="-488" font-family="Helvetica,sans-Serif" font-size="10.00">Procrastinate</text>
</a>
</g>
</g>
<!-- Node3&#45;&gt;Node6 -->
<g id="edge5" class="edge">
<title>Node3&#45;&gt;Node6</title>
<path fill="none" stroke="#63b8ff" d="M276.99,-799.6C292.71,-755.04 357.08,-572.51 378.8,-510.91"/>
<polygon fill="#63b8ff" stroke="#63b8ff" points="382.02,-512.3 382.05,-501.71 375.42,-509.98 382.02,-512.3"/>
</g>
<!-- Node7 -->
<g id="node7" class="node">
<title>Node7</title>
<g id="a_node7"><a xlink:href="RadioFunctions_8cpp.html#a1ddd5e8d5bd649dd98ce3710fbff651b" target="_top" xlink:title=" ">
<polygon fill="white" stroke="#666666" points="549.5,-445 488.5,-445 488.5,-426 549.5,-426 549.5,-445"/>
<text text-anchor="middle" x="519" y="-433" font-family="Helvetica,sans-Serif" font-size="10.00">Compress</text>
</a>
</g>
</g>
<!-- Node6&#45;&gt;Node7 -->
<g id="edge6" class="edge">
<title>Node6&#45;&gt;Node7</title>
<path fill="none" stroke="#63b8ff" d="M405.35,-480.5C419.69,-472.5 440.74,-461.37 460,-453.5 465.61,-451.21 471.63,-449.04 477.59,-447.05"/>
<polygon fill="#63b8ff" stroke="#63b8ff" points="478.24,-450.51 486.7,-444.14 476.11,-443.85 478.24,-450.51"/>
</g>
<!-- Node8 -->
<g id="node8" class="node">
<title>Node8</title>
<g id="a_node8"><a xlink:href="TransmitterCode_2src_2main_8cpp.html#a26ae4f6ca14f760bd5eb6e7588fe7c81" target="_top" xlink:title="GET NEW SERVO POSITIONS.">
<polygon fill="white" stroke="#666666" points="578,-631 460,-631 460,-612 578,-612 578,-631"/>
<text text-anchor="middle" x="519" y="-619" font-family="Helvetica,sans-Serif" font-size="10.00">GetNewChannelValues</text>
</a>
</g>
</g>
<!-- Node6&#45;&gt;Node8 -->
<g id="edge7" class="edge">
<title>Node6&#45;&gt;Node8</title>
<path fill="none" stroke="#63b8ff" d="M397.77,-500.35C419.51,-522.25 472.15,-575.3 500.01,-603.37"/>
<polygon fill="#63b8ff" stroke="#63b8ff" points="497.52,-605.83 507.05,-610.47 502.49,-600.9 497.52,-605.83"/>
</g>
<!-- Node17 -->
<g id="node17" class="node">
<title>Node17</title>
<g id="a_node17"><a xlink:href="TransmitterCode_2src_2main_8cpp.html#ada95a00a341e4a80176eda743a94ab2e" target="_top" xlink:title=" ">
<polygon fill="white" stroke="#666666" points="554,-482 484,-482 484,-463 554,-463 554,-482"/>
<text text-anchor="middle" x="519" y="-470" font-family="Helvetica,sans-Serif" font-size="10.00">KickTheDog</text>
</a>
</g>
</g>
<!-- Node6&#45;&gt;Node17 -->
<g id="edge17" class="edge">
<title>Node6&#45;&gt;Node17</title>
<path fill="none" stroke="#63b8ff" d="M424.21,-485.49C439.21,-483.41 456.76,-480.98 472.6,-478.79"/>
<polygon fill="#63b8ff" stroke="#63b8ff" points="472.84,-482.29 482.27,-477.45 471.88,-475.35 472.84,-482.29"/>
</g>
<!-- Node18 -->
<g id="node18" class="node">
<title>Node18</title>
<g id="a_node18"><a xlink:href="RadioFunctions_8cpp.html#a049bfb836e7aa4a3a48a1a4bd225fafc" target="_top" xlink:title=" ">
<polygon fill="white" stroke="#666666" points="548.5,-333 489.5,-333 489.5,-314 548.5,-314 548.5,-333"/>
<text text-anchor="middle" x="519" y="-321" font-family="Helvetica,sans-Serif" font-size="10.00">SendData</text>
</a>
</g>
</g>
<!-- Node6&#45;&gt;Node18 -->
<g id="edge18" class="edge">
<title>Node6&#45;&gt;Node18</title>
<path fill="none" stroke="#63b8ff" d="M395.74,-480.55C416.93,-453.34 476.09,-377.34 503.6,-342"/>
<polygon fill="#63b8ff" stroke="#63b8ff" points="506.15,-344.42 509.53,-334.38 500.63,-340.12 506.15,-344.42"/>
</g>
<!-- Node112 -->
<g id="node37" class="node">
<title>Node112</title>
<g id="a_node37"><a xlink:href="TransmitterCode_2src_2main_8cpp.html#ad770ee51a34d8c5026e65136884c16bf" target="_top" xlink:title=" ">
<polygon fill="white" stroke="#666666" points="561,-519 477,-519 477,-500 561,-500 561,-519"/>
<text text-anchor="middle" x="519" y="-507" font-family="Helvetica,sans-Serif" font-size="10.00">ShowServoPos</text>
</a>
</g>
</g>
<!-- Node6&#45;&gt;Node112 -->
<g id="edge43" class="edge">
<title>Node6&#45;&gt;Node112</title>
<path fill="none" stroke="#63b8ff" d="M424.21,-495.79C437.14,-497.68 451.96,-499.85 465.95,-501.89"/>
<polygon fill="#63b8ff" stroke="#63b8ff" points="465.04,-505.3 475.44,-503.28 466.06,-498.37 465.04,-505.3"/>
</g>
<!-- Node9 -->
<g id="node9" class="node">
<title>Node9</title>
<g id="a_node9"><a xlink:href="TransmitterCode_2src_2main_8cpp.html#ac77bd940a0faad7b997c9ddf40a7acc6" target="_top" xlink:title=" ">
<polygon fill="white" stroke="#666666" points="700,-650 646,-650 646,-631 700,-631 700,-650"/>
<text text-anchor="middle" x="673" y="-638" font-family="Helvetica,sans-Serif" font-size="10.00">DoMixes</text>
</a>
</g>
</g>
<!-- Node8&#45;&gt;Node9 -->
<g id="edge8" class="edge">
<title>Node8&#45;&gt;Node9</title>
<path fill="none" stroke="#63b8ff" d="M578.33,-628.79C597.24,-631.16 617.7,-633.71 634.65,-635.83"/>
<polygon fill="#63b8ff" stroke="#63b8ff" points="633.91,-639.27 644.27,-637.03 634.78,-632.32 633.91,-639.27"/>
</g>
<!-- Node11 -->
<g id="node11" class="node">
<title>Node11</title>
<g id="a_node11"><a xlink:href="TransmitterCode_2src_2main_8cpp.html#acbd7adcd2b0e2095a89b4a98042b526e" target="_top" xlink:title=" ">
<polygon fill="white" stroke="#666666" points="719,-687 627,-687 627,-668 719,-668 719,-687"/>
<text text-anchor="middle" x="673" y="-675" font-family="Helvetica,sans-Serif" font-size="10.00">DoReverseSense</text>
</a>
</g>
</g>
<!-- Node8&#45;&gt;Node11 -->
<g id="edge10" class="edge">
<title>Node8&#45;&gt;Node11</title>
<path fill="none" stroke="#63b8ff" d="M544.2,-631.47C563.1,-639.16 590.07,-649.88 614,-658.5 619.09,-660.33 624.46,-662.19 629.79,-663.99"/>
<polygon fill="#63b8ff" stroke="#63b8ff" points="628.55,-667.27 639.14,-667.1 630.76,-660.63 628.55,-667.27"/>
</g>
<!-- Node12 -->
<g id="node12" class="node">
<title>Node12</title>
<g id="a_node12"><a xlink:href="TransmitterCode_2src_2main_8cpp.html#af9c038b48102eca9032f10fefd9d5736" target="_top" xlink:title=" ">
<polygon fill="white" stroke="#666666" points="712,-724 634,-724 634,-705 712,-705 712,-724"/>
<text text-anchor="middle" x="673" y="-712" font-family="Helvetica,sans-Serif" font-size="10.00">GetCurveDots</text>
</a>
</g>
</g>
<!-- Node8&#45;&gt;Node12 -->
<g id="edge11" class="edge">
<title>Node8&#45;&gt;Node12</title>
<path fill="none" stroke="#63b8ff" d="M530.13,-631.49C546.49,-647.12 580.31,-677.46 614,-695.5 617.27,-697.25 620.73,-698.88 624.27,-700.38"/>
<polygon fill="#63b8ff" stroke="#63b8ff" points="622.99,-703.64 633.58,-703.99 625.52,-697.11 622.99,-703.64"/>
</g>
<!-- Node15 -->
<g id="node15" class="node">
<title>Node15</title>
<g id="a_node15"><a xlink:href="TransmitterCode_2src_2main_8cpp.html#a248db02e07497e7a4149db17b4e5c2f3" target="_top" xlink:title=" ">
<polygon fill="white" stroke="#666666" points="711.5,-613 634.5,-613 634.5,-594 711.5,-594 711.5,-613"/>
<text text-anchor="middle" x="673" y="-601" font-family="Helvetica,sans-Serif" font-size="10.00">GetStickInput</text>
</a>
</g>
</g>
<!-- Node8&#45;&gt;Node15 -->
<g id="edge14" class="edge">
<title>Node8&#45;&gt;Node15</title>
<path fill="none" stroke="#63b8ff" d="M578.33,-614.59C593.13,-612.84 608.87,-610.98 623.15,-609.29"/>
<polygon fill="#63b8ff" stroke="#63b8ff" points="623.21,-612.8 632.73,-608.15 622.39,-605.85 623.21,-612.8"/>
</g>
<!-- Node16 -->
<g id="node16" class="node">
<title>Node16</title>
<g id="a_node16"><a xlink:href="TransmitterCode_2src_2main_8cpp.html#a07fabdf50e27daf4c4bd38d316a40e68" target="_top" xlink:title=" ">
<polygon fill="white" stroke="#666666" points="716,-576 630,-576 630,-557 716,-557 716,-576"/>
<text text-anchor="middle" x="673" y="-564" font-family="Helvetica,sans-Serif" font-size="10.00">GetTrimAmount</text>
</a>
</g>
</g>
<!-- Node8&#45;&gt;Node16 -->
<g id="edge16" class="edge">
<title>Node8&#45;&gt;Node16</title>
<path fill="none" stroke="#63b8ff" d="M543.77,-611.58C562.67,-603.83 589.84,-592.99 614,-584.5 618.42,-582.95 623.05,-581.39 627.69,-579.88"/>
<polygon fill="#63b8ff" stroke="#63b8ff" points="628.52,-583.29 636.99,-576.91 626.4,-576.62 628.52,-583.29"/>
</g>
<!-- Node10 -->
<g id="node10" class="node">
<title>Node10</title>
<g id="a_node10"><a xlink:href="TransmitterCode_2src_2main_8cpp.html#a0d8d8a0d67cb9b04481f1692abe75368" target="_top" xlink:title=" ">
<polygon fill="white" stroke="#666666" points="870,-543 791,-543 791,-524 870,-524 870,-543"/>
<text text-anchor="middle" x="830.5" y="-531" font-family="Helvetica,sans-Serif" font-size="10.00">IntoHigherRes</text>
</a>
</g>
</g>
<!-- Node9&#45;&gt;Node10 -->
<g id="edge9" class="edge">
<title>Node9&#45;&gt;Node10</title>
<path fill="none" stroke="#63b8ff" d="M700.42,-636.39C711.18,-633.64 723.13,-629.06 732,-621.5 758.62,-598.8 741.02,-573.78 768,-551.5 771.67,-548.47 775.82,-545.95 780.21,-543.86"/>
<polygon fill="#63b8ff" stroke="#63b8ff" points="781.3,-547.19 789.3,-540.26 778.72,-540.68 781.3,-547.19"/>
</g>
<!-- Node13 -->
<g id="node13" class="node">
<title>Node13</title>
<g id="a_node13"><a xlink:href="TransmitterCode_2src_2main_8cpp.html#afeabb54d48ef7e55693014e057d2943d" target="_top" xlink:title=" ">
<polygon fill="white" stroke="#666666" points="869,-580 792,-580 792,-561 869,-561 869,-580"/>
<text text-anchor="middle" x="830.5" y="-568" font-family="Helvetica,sans-Serif" font-size="10.00">CalculateRate</text>
</a>
</g>
</g>
<!-- Node12&#45;&gt;Node13 -->
<g id="edge12" class="edge">
<title>Node12&#45;&gt;Node13</title>
<path fill="none" stroke="#63b8ff" d="M712.42,-707.49C719.63,-704.73 726.58,-700.87 732,-695.5 767.62,-660.16 731.82,-623.27 768,-588.5 771.86,-584.79 776.44,-581.84 781.33,-579.5"/>
<polygon fill="#63b8ff" stroke="#63b8ff" points="782.22,-582.91 790.27,-576.03 779.68,-576.38 782.22,-582.91"/>
</g>
<!-- Node14 -->
<g id="node14" class="node">
<title>Node14</title>
<g id="a_node14"><a xlink:href="TransmitterCode_2src_2main_8cpp.html#a8f53f86499d740b350f7b6d791c90497" target="_top" xlink:title=" ">
<polygon fill="white" stroke="#666666" points="866,-617 795,-617 795,-598 866,-598 866,-617"/>
<text text-anchor="middle" x="830.5" y="-605" font-family="Helvetica,sans-Serif" font-size="10.00">UseFullRate</text>
</a>
</g>
</g>
<!-- Node12&#45;&gt;Node14 -->
<g id="edge13" class="edge">
<title>Node12&#45;&gt;Node14</title>
<path fill="none" stroke="#63b8ff" d="M712.42,-706.61C719.46,-703.91 726.36,-700.31 732,-695.5 758.62,-672.8 741.02,-647.78 768,-625.5 772.72,-621.6 778.25,-618.55 784.02,-616.16"/>
<polygon fill="#63b8ff" stroke="#63b8ff" points="784.81,-619.59 793.13,-613.02 782.53,-612.97 784.81,-619.59"/>
</g>
<!-- Node15&#45;&gt;Node10 -->
<g id="edge15" class="edge">
<title>Node15&#45;&gt;Node10</title>
<path fill="none" stroke="#63b8ff" d="M711.83,-593.7C718.77,-591.18 725.78,-588.14 732,-584.5 750.74,-573.54 749.09,-562.16 768,-551.5 771.82,-549.35 775.91,-547.43 780.11,-545.73"/>
<polygon fill="#63b8ff" stroke="#63b8ff" points="781.02,-549.13 789.25,-542.45 778.65,-542.54 781.02,-549.13"/>
</g>
<!-- Node19 -->
<g id="node19" class="node">
<title>Node19</title>
<g id="a_node19"><a xlink:href="RadioFunctions_8cpp.html#a5fbd3c8613a4163425c94965704ce5f8" target="_top" xlink:title=" ">
<polygon fill="white" stroke="#666666" points="710,-236 636,-236 636,-217 710,-217 710,-236"/>
<text text-anchor="middle" x="673" y="-224" font-family="Helvetica,sans-Serif" font-size="10.00">FailedPacket</text>
</a>
</g>
</g>
<!-- Node18&#45;&gt;Node19 -->
<g id="edge19" class="edge">
<title>Node18&#45;&gt;Node19</title>
<path fill="none" stroke="#63b8ff" d="M535.41,-313.67C561.7,-296.89 615.43,-262.6 647.1,-242.39"/>
<polygon fill="#63b8ff" stroke="#63b8ff" points="648.73,-245.5 655.27,-237.17 644.96,-239.6 648.73,-245.5"/>
</g>
<!-- Node57 -->
<g id="node27" class="node">
<title>Node57</title>
<g id="a_node27"><a xlink:href="RadioFunctions_8cpp.html#a07c27b4e208198453c70876517926052" target="_top" xlink:title=" ">
<polygon fill="white" stroke="#666666" points="704,-388 642,-388 642,-369 704,-369 704,-388"/>
<text text-anchor="middle" x="673" y="-376" font-family="Helvetica,sans-Serif" font-size="10.00">FlushFifos</text>
</a>
</g>
</g>
<!-- Node18&#45;&gt;Node57 -->
<g id="edge30" class="edge">
<title>Node18&#45;&gt;Node57</title>
<path fill="none" stroke="#63b8ff" d="M545.01,-333.46C563.88,-340.89 590.45,-351.14 614,-359.5 619.42,-361.42 625.14,-363.38 630.8,-365.28"/>
<polygon fill="#63b8ff" stroke="#63b8ff" points="629.47,-368.53 640.06,-368.35 631.67,-361.88 629.47,-368.53"/>
</g>
<!-- Node58 -->
<g id="node28" class="node">
<title>Node58</title>
<g id="a_node28"><a xlink:href="TransmitterCode_2src_2main_8cpp.html#ac4ffb9b555ce8d38f615610dc89b5499" target="_top" xlink:title=" ">
<polygon fill="white" stroke="#666666" points="717.5,-95 628.5,-95 628.5,-76 717.5,-76 717.5,-95"/>
<text text-anchor="middle" x="673" y="-83" font-family="Helvetica,sans-Serif" font-size="10.00">LoadPacketData</text>
</a>
</g>
</g>
<!-- Node18&#45;&gt;Node58 -->
<g id="edge31" class="edge">
<title>Node18&#45;&gt;Node58</title>
<path fill="none" stroke="#63b8ff" d="M526.34,-313.58C549.32,-277.59 628.56,-153.52 659.49,-105.09"/>
<polygon fill="#63b8ff" stroke="#63b8ff" points="662.39,-107.05 664.82,-96.74 656.49,-103.29 662.39,-107.05"/>
</g>
<!-- Node61 -->
<g id="node31" class="node">
<title>Node61</title>
<g id="a_node31"><a xlink:href="ReceiverCode_2src_2main_8cpp.html#a6a495c5560f12cc3fd3df9454927d681" target="_top" xlink:title=" ">
<polygon fill="white" stroke="#666666" points="710,-314 636,-314 636,-295 710,-295 710,-314"/>
<text text-anchor="middle" x="673" y="-302" font-family="Helvetica,sans-Serif" font-size="10.00">MapToSBUS</text>
</a>
</g>
</g>
<!-- Node18&#45;&gt;Node61 -->
<g id="edge36" class="edge">
<title>Node18&#45;&gt;Node61</title>
<path fill="none" stroke="#63b8ff" d="M548.95,-319.88C570.21,-317.22 599.59,-313.55 624.3,-310.46"/>
<polygon fill="#63b8ff" stroke="#63b8ff" points="624.65,-313.95 634.14,-309.23 623.78,-307 624.65,-313.95"/>
</g>
<!-- Node62 -->
<g id="node32" class="node">
<title>Node62</title>
<g id="a_node32"><a xlink:href="RadioFunctions_8cpp.html#a1c11bb6771548de7d96723045b922620" target="_top" xlink:title=" ">
<polygon fill="white" stroke="#666666" points="721,-351 625,-351 625,-332 721,-332 721,-351"/>
<text text-anchor="middle" x="673" y="-339" font-family="Helvetica,sans-Serif" font-size="10.00">SuccessfulPacket</text>
</a>
</g>
</g>
<!-- Node18&#45;&gt;Node62 -->
<g id="edge37" class="edge">
<title>Node18&#45;&gt;Node62</title>
<path fill="none" stroke="#63b8ff" d="M548.95,-326.93C567.14,-329.08 591.26,-331.94 613.32,-334.55"/>
<polygon fill="#63b8ff" stroke="#63b8ff" points="612.78,-338.01 623.13,-335.71 613.61,-331.06 612.78,-338.01"/>
</g>
<!-- Node20 -->
<g id="node20" class="node">
<title>Node20</title>
<g id="a_node20"><a xlink:href="TransmitterCode_2src_2main_8cpp.html#afd409fe008843b50c3e2ff697558d4d5" target="_top" xlink:title=" ">
<polygon fill="#fff0f0" stroke="red" points="1024.5,-489 932.5,-489 932.5,-470 1024.5,-470 1024.5,-489"/>
<text text-anchor="middle" x="978.5" y="-477" font-family="Helvetica,sans-Serif" font-size="10.00">LogThisLongGap</text>
</a>
</g>
</g>
<!-- Node19&#45;&gt;Node20 -->
<g id="edge20" class="edge">
<title>Node19&#45;&gt;Node20</title>
<path fill="none" stroke="#63b8ff" d="M710.5,-220.38C757.83,-214.6 840.51,-212.1 893,-253.5 958.4,-305.08 973.18,-412.88 976.52,-458.44"/>
<polygon fill="#63b8ff" stroke="#63b8ff" points="973.02,-458.5 977.12,-468.27 980.01,-458.07 973.02,-458.5"/>
</g>
<!-- Node31 -->
<g id="node22" class="node">
<title>Node31</title>
<g id="a_node22"><a xlink:href="RadioFunctions_8cpp.html#afc091b5942e21a03f6dc8635d5e519ba" target="_top" xlink:title=" ">
<polygon fill="white" stroke="#666666" points="891.5,-282 769.5,-282 769.5,-263 891.5,-263 891.5,-282"/>
<text text-anchor="middle" x="830.5" y="-270" font-family="Helvetica,sans-Serif" font-size="10.00">RecordsPacketSuccess</text>
</a>
</g>
</g>
<!-- Node19&#45;&gt;Node31 -->
<g id="edge22" class="edge">
<title>Node19&#45;&gt;Node31</title>
<path fill="none" stroke="#63b8ff" d="M707.74,-236.48C730.36,-243.17 760.39,-252.06 784.96,-259.33"/>
<polygon fill="#63b8ff" stroke="#63b8ff" points="783.79,-262.63 794.37,-262.11 785.78,-255.92 783.79,-262.63"/>
</g>
<!-- Node32 -->
<g id="node23" class="node">
<title>Node32</title>
<g id="a_node23"><a xlink:href="TransmitterCode_2src_2main_8cpp.html#a7d34cec6e8edc20c8b50424e15dcc7c7" target="_top" xlink:title=" ">
<polygon fill="#fff0f0" stroke="red" points="862,-132 799,-132 799,-113 862,-113 862,-132"/>
<text text-anchor="middle" x="830.5" y="-120" font-family="Helvetica,sans-Serif" font-size="10.00">RedLedOn</text>
</a>
</g>
</g>
<!-- Node19&#45;&gt;Node32 -->
<g id="edge23" class="edge">
<title>Node19&#45;&gt;Node32</title>
<path fill="none" stroke="#63b8ff" d="M681.98,-216.69C696.98,-198.9 731.19,-161.23 768,-140.5 774.17,-137.03 781.08,-134.17 787.97,-131.83"/>
<polygon fill="#63b8ff" stroke="#63b8ff" points="788.68,-135.27 797.23,-129.02 786.65,-128.57 788.68,-135.27"/>
</g>
<!-- Node52 -->
<g id="node25" class="node">
<title>Node52</title>
<g id="a_node25"><a xlink:href="TransmitterCode_2src_2main_8cpp.html#a0a3d89dfcfab70c6cbc50401fff1afeb" target="_top" xlink:title=" ">
<polygon fill="white" stroke="#666666" points="885,-169 776,-169 776,-150 885,-150 885,-169"/>
<text text-anchor="middle" x="830.5" y="-157" font-family="Helvetica,sans-Serif" font-size="10.00">ReEnableScanButton</text>
</a>
</g>
</g>
<!-- Node19&#45;&gt;Node52 -->
<g id="edge26" class="edge">
<title>Node19&#45;&gt;Node52</title>
<path fill="none" stroke="#63b8ff" d="M695.69,-216.52C706.67,-211.35 720.15,-204.8 732,-198.5 748.35,-189.8 750.99,-184.82 768,-177.5 771.75,-175.89 775.68,-174.37 779.67,-172.95"/>
<polygon fill="#63b8ff" stroke="#63b8ff" points="780.46,-176.37 788.85,-169.9 778.25,-169.73 780.46,-176.37"/>
</g>
<!-- Node53 -->
<g id="node26" class="node">
<title>Node53</title>
<g id="a_node26"><a xlink:href="RadioFunctions_8cpp.html#ad0236abcfc887ad708d9504c4ab2a7c3" target="_top" xlink:title=" ">
<polygon fill="#fff0f0" stroke="red" points="874.5,-206 786.5,-206 786.5,-187 874.5,-187 874.5,-206"/>
<text text-anchor="middle" x="830.5" y="-194" font-family="Helvetica,sans-Serif" font-size="10.00">TryToReconnect</text>
</a>
</g>
</g>
<!-- Node19&#45;&gt;Node53 -->
<g id="edge29" class="edge">
<title>Node19&#45;&gt;Node53</title>
<path fill="none" stroke="#63b8ff" d="M710.46,-219.47C729.63,-215.77 753.53,-211.16 774.87,-207.04"/>
<polygon fill="#63b8ff" stroke="#63b8ff" points="775.44,-210.49 784.6,-205.16 774.12,-203.62 775.44,-210.49"/>
</g>
<!-- Node20&#45;&gt;Node26 -->
<g id="edge21" class="edge">
<title>Node20&#45;&gt;Node26</title>
<path fill="none" stroke="#63b8ff" d="M983.11,-489.22C1000.18,-535.25 1073.05,-731.7 1096.91,-796.02"/>
<polygon fill="#63b8ff" stroke="#63b8ff" points="1093.59,-797.16 1100.35,-805.32 1100.16,-794.73 1093.59,-797.16"/>
</g>
<!-- Node32&#45;&gt;Node3 -->
<g id="edge24" class="edge">
<title>Node32&#45;&gt;Node3</title>
<path fill="none" stroke="#63b8ff" d="M798.72,-119.23C708.99,-111.66 447.88,-104.01 350,-257.5 292.11,-348.27 277.06,-698.41 274.11,-788.34"/>
<polygon fill="#63b8ff" stroke="#63b8ff" points="270.62,-788.05 273.81,-798.15 277.62,-788.26 270.62,-788.05"/>
</g>
<!-- Node37 -->
<g id="node24" class="node">
<title>Node37</title>
<g id="a_node24"><a xlink:href="ReceiverCode_2src_2main_8cpp.html#a2eabdb233653fa02f0b899e26b5e8ce7" target="_top" xlink:title=" ">
<polygon fill="white" stroke="#666666" points="1028,-95 929,-95 929,-76 1028,-76 1028,-95"/>
<text text-anchor="middle" x="978.5" y="-83" font-family="Helvetica,sans-Serif" font-size="10.00">SetUKFrequencies</text>
</a>
</g>
</g>
<!-- Node32&#45;&gt;Node37 -->
<g id="edge25" class="edge">
<title>Node32&#45;&gt;Node37</title>
<path fill="none" stroke="#63b8ff" d="M862.46,-114.65C881.28,-109.88 905.75,-103.68 927.28,-98.23"/>
<polygon fill="#63b8ff" stroke="#63b8ff" points="927.93,-101.67 936.76,-95.82 926.21,-94.89 927.93,-101.67"/>
</g>
<!-- Node52&#45;&gt;Node3 -->
<g id="edge27" class="edge">
<title>Node52&#45;&gt;Node3</title>
<path fill="none" stroke="#63b8ff" d="M775.65,-159.91C672.42,-163.97 448.21,-189.36 350,-329.5 296.68,-405.59 278.48,-705.97 274.44,-788.45"/>
<polygon fill="#63b8ff" stroke="#63b8ff" points="270.95,-788.08 273.98,-798.24 277.95,-788.41 270.95,-788.08"/>
</g>
<!-- Node52&#45;&gt;Node26 -->
<g id="edge28" class="edge">
<title>Node52&#45;&gt;Node26</title>
<path fill="none" stroke="#63b8ff" d="M880.2,-169.41C884.82,-171.59 889.19,-174.25 893,-177.5 999.12,-267.83 983.06,-328.59 1028,-460.5 1070.09,-584.02 1094.04,-739.8 1101.74,-795.51"/>
<polygon fill="#63b8ff" stroke="#63b8ff" points="1098.23,-795.71 1103.04,-805.15 1105.17,-794.77 1098.23,-795.71"/>
</g>
<!-- Node58&#45;&gt;Node3 -->
<g id="edge33" class="edge">
<title>Node58&#45;&gt;Node3</title>
<path fill="none" stroke="#63b8ff" d="M628.05,-75.86C558.42,-63.45 423.14,-51.46 350,-125.5 302.19,-173.9 278.9,-677.52 274.34,-788.11"/>
<polygon fill="#63b8ff" stroke="#63b8ff" points="270.85,-787.94 273.94,-798.08 277.84,-788.23 270.85,-787.94"/>
</g>
<!-- Node58&#45;&gt;Node37 -->
<g id="edge35" class="edge">
<title>Node58&#45;&gt;Node37</title>
<path fill="none" stroke="#63b8ff" d="M713.99,-75.59C730.58,-71.95 750.11,-68.29 768,-66.5 823.28,-60.97 837.78,-60.37 893,-66.5 905.36,-67.87 918.55,-70.34 930.74,-73.05"/>
<polygon fill="#63b8ff" stroke="#63b8ff" points="929.6,-76.38 940.14,-75.24 931.19,-69.56 929.6,-76.38"/>
</g>
<!-- Node59 -->
<g id="node29" class="node">
<title>Node59</title>
<g id="a_node29"><a xlink:href="TransmitterCode_2src_2main_8cpp.html#a5aa4888b924a4f1d95e9cedc3004f2b6" target="_top" xlink:title=" ">
<polygon fill="white" stroke="#666666" points="872,-19 789,-19 789,0 872,0 872,-19"/>
<text text-anchor="middle" x="830.5" y="-7" font-family="Helvetica,sans-Serif" font-size="10.00">MakeTwobytes</text>
</a>
</g>
</g>
<!-- Node58&#45;&gt;Node59 -->
<g id="edge32" class="edge">
<title>Node58&#45;&gt;Node59</title>
<path fill="none" stroke="#63b8ff" d="M690.29,-75.61C708.77,-64.61 739.97,-46.65 768,-33.5 775.33,-30.06 783.31,-26.69 791.01,-23.61"/>
<polygon fill="#63b8ff" stroke="#63b8ff" points="792.16,-26.92 800.21,-20.03 789.62,-20.4 792.16,-26.92"/>
</g>
<!-- Node60 -->
<g id="node30" class="node">
<title>Node60</title>
<g id="a_node30"><a xlink:href="ReceiverCode_2src_2main_8cpp.html#a31a35307bbac88ceda244272f25d399a" target="_top" xlink:title=" ">
<polygon fill="white" stroke="#666666" points="882.5,-95 778.5,-95 778.5,-76 882.5,-76 882.5,-95"/>
<text text-anchor="middle" x="830.5" y="-83" font-family="Helvetica,sans-Serif" font-size="10.00">SetTestFrequencies</text>
</a>
</g>
</g>
<!-- Node58&#45;&gt;Node60 -->
<g id="edge34" class="edge">
<title>Node58&#45;&gt;Node60</title>
<path fill="none" stroke="#63b8ff" d="M717.73,-85.5C732.98,-85.5 750.41,-85.5 766.9,-85.5"/>
<polygon fill="#63b8ff" stroke="#63b8ff" points="766.61,-89 776.61,-85.5 766.61,-82 766.61,-89"/>
</g>
<!-- Node62&#45;&gt;Node31 -->
<g id="edge41" class="edge">
<title>Node62&#45;&gt;Node31</title>
<path fill="none" stroke="#63b8ff" d="M712.1,-331.51C718.94,-329.02 725.84,-326.04 732,-322.5 750.56,-311.83 749.27,-300.87 768,-290.5 770.51,-289.11 773.14,-287.82 775.84,-286.61"/>
<polygon fill="#63b8ff" stroke="#63b8ff" points="777.06,-289.9 785.09,-282.98 774.5,-283.38 777.06,-289.9"/>
</g>
<!-- Node63 -->
<g id="node33" class="node">
<title>Node63</title>
<g id="a_node33"><a xlink:href="TransmitterCode_2src_2main_8cpp.html#a953f1d5046e183549ed95b08f6d675e3" target="_top" xlink:title=" ">
<polygon fill="#fff0f0" stroke="red" points="879.5,-393 781.5,-393 781.5,-374 879.5,-374 879.5,-393"/>
<text text-anchor="middle" x="830.5" y="-381" font-family="Helvetica,sans-Serif" font-size="10.00">CheckGapsLength</text>
</a>
</g>
</g>
<!-- Node62&#45;&gt;Node63 -->
<g id="edge38" class="edge">
<title>Node62&#45;&gt;Node63</title>
<path fill="none" stroke="#63b8ff" d="M710.85,-351.45C732.08,-357.19 758.99,-364.45 781.81,-370.62"/>
<polygon fill="#63b8ff" stroke="#63b8ff" points="780.62,-373.92 791.18,-373.15 782.44,-367.16 780.62,-373.92"/>
</g>
<!-- Node43 -->
<g id="node34" class="node">
<title>Node43</title>
<g id="a_node34"><a xlink:href="TransmitterCode_2src_2main_8cpp.html#a62e53eb9359c32b666e3386d62c57037" target="_top" xlink:title=" ">
<polygon fill="#fff0f0" stroke="red" points="866.5,-356 794.5,-356 794.5,-337 866.5,-337 866.5,-356"/>
<text text-anchor="middle" x="830.5" y="-344" font-family="Helvetica,sans-Serif" font-size="10.00">GreenLedOn</text>
</a>
</g>
</g>
<!-- Node62&#45;&gt;Node43 -->
<g id="edge39" class="edge">
<title>Node62&#45;&gt;Node43</title>
<path fill="none" stroke="#63b8ff" d="M721.08,-343.01C740.71,-343.65 763.46,-344.38 783.03,-345.01"/>
<polygon fill="#63b8ff" stroke="#63b8ff" points="782.82,-348.5 792.93,-345.32 783.04,-341.5 782.82,-348.5"/>
</g>
<!-- Node65 -->
<g id="node35" class="node">
<title>Node65</title>
<g id="a_node35"><a xlink:href="TransmitterCode_2src_2main_8cpp.html#a694f4f5a0147f4dc29b0bc1a8951547d" target="_top" xlink:title=" ">
<polygon fill="#fff0f0" stroke="red" points="877.5,-319 783.5,-319 783.5,-300 877.5,-300 877.5,-319"/>
<text text-anchor="middle" x="830.5" y="-307" font-family="Helvetica,sans-Serif" font-size="10.00">ParseAckPayload</text>
</a>
</g>
</g>
<!-- Node62&#45;&gt;Node65 -->
<g id="edge40" class="edge">
<title>Node62&#45;&gt;Node65</title>
<path fill="none" stroke="#63b8ff" d="M721.08,-331.81C737.21,-328.49 755.44,-324.74 772.28,-321.27"/>
<polygon fill="#63b8ff" stroke="#63b8ff" points="772.55,-324.79 781.64,-319.35 771.14,-317.94 772.55,-324.79"/>
</g>
<!-- Node51 -->
<g id="node36" class="node">
<title>Node51</title>
<g id="a_node36"><a xlink:href="TransmitterCode_2src_2main_8cpp.html#a793b7bcd77531c95fe72ed4356d421c8" target="_top" xlink:title=" ">
<polygon fill="white" stroke="#666666" points="885.5,-467 775.5,-467 775.5,-448 885.5,-448 885.5,-467"/>
<text text-anchor="middle" x="830.5" y="-455" font-family="Helvetica,sans-Serif" font-size="10.00">StartInactvityTimeout</text>
</a>
</g>
</g>
<!-- Node62&#45;&gt;Node51 -->
<g id="edge42" class="edge">
<title>Node62&#45;&gt;Node51</title>
<path fill="none" stroke="#63b8ff" d="M719.71,-351.49C724.16,-353.66 728.36,-356.29 732,-359.5 760.96,-385 739.03,-413.02 768,-438.5 769.44,-439.77 770.97,-440.95 772.56,-442.06"/>
<polygon fill="#63b8ff" stroke="#63b8ff" points="770.53,-444.93 780.95,-446.81 773.98,-438.84 770.53,-444.93"/>
</g>
<!-- Node113 -->
<g id="node38" class="node">
<title>Node113</title>
<g id="a_node38"><a xlink:href="TransmitterCode_2src_2main_8cpp.html#acf49567c45af927603ae83a7f46e6534" target="_top" xlink:title=" ">
<polygon fill="white" stroke="#666666" points="710,-802 636,-802 636,-783 710,-783 710,-802"/>
<text text-anchor="middle" x="673" y="-790" font-family="Helvetica,sans-Serif" font-size="10.00">DisplayCurve</text>
</a>
</g>
</g>
<!-- Node112&#45;&gt;Node113 -->
<g id="edge44" class="edge">
<title>Node112&#45;&gt;Node113</title>
<path fill="none" stroke="#63b8ff" d="M527.45,-519.29C539.6,-535.68 563.77,-570.1 578,-602.5 602.11,-657.39 584.25,-680.45 614,-732.5 623.49,-749.1 638.61,-764.53 651.03,-775.58"/>
<polygon fill="#63b8ff" stroke="#63b8ff" points="648.46,-777.99 658.33,-781.83 653.01,-772.67 648.46,-777.99"/>
</g>
<!-- Node119 -->
<g id="node44" class="node">
<title>Node119</title>
<g id="a_node44"><a xlink:href="TransmitterCode_2src_2main_8cpp.html#acbef1d41e1bd646b60a6e8afd9c66880" target="_top" xlink:title=" ">
<polygon fill="white" stroke="#666666" points="859.5,-654 801.5,-654 801.5,-635 859.5,-635 859.5,-654"/>
<text text-anchor="middle" x="830.5" y="-642" font-family="Helvetica,sans-Serif" font-size="10.00">DrawLine</text>
</a>
</g>
</g>
<!-- Node112&#45;&gt;Node119 -->
<g id="edge69" class="edge">
<title>Node112&#45;&gt;Node119</title>
<path fill="none" stroke="#63b8ff" d="M561.14,-506.24C607.43,-504.78 682.59,-509.32 732,-547.5 762.21,-570.85 739.27,-600.35 768,-625.5 774.3,-631.02 782.18,-634.93 790.18,-637.71"/>
<polygon fill="#63b8ff" stroke="#63b8ff" points="788.99,-641.01 799.57,-640.42 790.93,-634.28 788.99,-641.01"/>
</g>
<!-- Node40 -->
<g id="node47" class="node">
<title>Node40</title>
<g id="a_node47"><a xlink:href="TransmitterCode_2src_2main_8cpp.html#a1e20efc1e419b252b50d36f9924503fc" target="_top" xlink:title=" ">
<polygon fill="white" stroke="#666666" points="1010.5,-900 946.5,-900 946.5,-881 1010.5,-881 1010.5,-900"/>
<text text-anchor="middle" x="978.5" y="-888" font-family="Helvetica,sans-Serif" font-size="10.00">SendValue</text>
</a>
</g>
</g>
<!-- Node112&#45;&gt;Node40 -->
<g id="edge72" class="edge">
<title>Node112&#45;&gt;Node40</title>
<path fill="none" stroke="#63b8ff" d="M561.25,-503.75C647.76,-492.66 844.21,-472.91 893,-514.5 920.74,-538.14 962.47,-793.93 974.28,-869.56"/>
<polygon fill="#63b8ff" stroke="#63b8ff" points="970.8,-869.95 975.79,-879.3 977.72,-868.88 970.8,-869.95"/>
</g>
<!-- Node123 -->
<g id="node49" class="node">
<title>Node123</title>
<g id="a_node49"><a xlink:href="TransmitterCode_2src_2main_8cpp.html#af1030157034999448f5ca611d6209385" target="_top" xlink:title=" ">
<polygon fill="white" stroke="#666666" points="732,-425 614,-425 614,-406 732,-406 732,-425"/>
<text text-anchor="middle" x="673" y="-413" font-family="Helvetica,sans-Serif" font-size="10.00">GetStickInputInputOnly</text>
</a>
</g>
</g>
<!-- Node112&#45;&gt;Node123 -->
<g id="edge70" class="edge">
<title>Node112&#45;&gt;Node123</title>
<path fill="none" stroke="#63b8ff" d="M561.42,-499.89C567.33,-497.42 573.07,-494.34 578,-490.5 601.63,-472.08 590.22,-451.73 614,-433.5 615.31,-432.5 616.67,-431.55 618.08,-430.66"/>
<polygon fill="#63b8ff" stroke="#63b8ff" points="619.35,-433.94 626.56,-426.18 616.08,-427.75 619.35,-433.94"/>
</g>
<!-- Node124 -->
<g id="node50" class="node">
<title>Node124</title>
<g id="a_node50"><a xlink:href="TransmitterCode_2src_2main_8cpp.html#a5cdbe11d62e0de7610ba323e60b97d33" target="_top" xlink:title=" ">
<polygon fill="white" stroke="#666666" points="711.5,-462 634.5,-462 634.5,-443 711.5,-443 711.5,-462"/>
<text text-anchor="middle" x="673" y="-450" font-family="Helvetica,sans-Serif" font-size="10.00">IntoLowerRes</text>
</a>
</g>
</g>
<!-- Node112&#45;&gt;Node124 -->
<g id="edge71" class="edge">
<title>Node112&#45;&gt;Node124</title>
<path fill="none" stroke="#63b8ff" d="M551.74,-499.53C560.3,-496.72 569.54,-493.59 578,-490.5 589.31,-486.37 615.4,-475.79 637.23,-466.84"/>
<polygon fill="#63b8ff" stroke="#63b8ff" points="638.52,-470.1 646.44,-463.06 635.86,-463.62 638.52,-470.1"/>
</g>
<!-- Node113&#45;&gt;Node3 -->
<g id="edge61" class="edge">
<title>Node113&#45;&gt;Node3</title>
<path fill="none" stroke="#63b8ff" d="M635.89,-795.49C587.64,-799.33 499.46,-805.82 424,-808.5 391.41,-809.66 354.83,-809.93 325.89,-809.89"/>
<polygon fill="#63b8ff" stroke="#63b8ff" points="325.92,-806.39 315.91,-809.87 325.9,-813.39 325.92,-806.39"/>
</g>
<!-- Node114 -->
<g id="node39" class="node">
<title>Node114</title>
<g id="a_node39"><a xlink:href="TransmitterCode_2src_2main_8cpp.html#a1870ad872e2424cbf8222747d3a43617" target="_top" xlink:title=" ">
<polygon fill="white" stroke="#666666" points="882,-767 779,-767 779,-748 882,-748 882,-767"/>
<text text-anchor="middle" x="830.5" y="-755" font-family="Helvetica,sans-Serif" font-size="10.00">CheckInvisiblePoint</text>
</a>
</g>
</g>
<!-- Node113&#45;&gt;Node114 -->
<g id="edge45" class="edge">
<title>Node113&#45;&gt;Node114</title>
<path fill="none" stroke="#63b8ff" d="M710.46,-784.29C729.4,-780.03 752.96,-774.73 774.11,-769.97"/>
<polygon fill="#63b8ff" stroke="#63b8ff" points="774.77,-773.41 783.76,-767.8 773.23,-766.58 774.77,-773.41"/>
</g>
<!-- Node115 -->
<g id="node40" class="node">
<title>Node115</title>
<g id="a_node40"><a xlink:href="TransmitterCode_2src_2main_8cpp.html#a5aeea47b9d855ae9911bae1115d02de7" target="_top" xlink:title=" ">
<polygon fill="white" stroke="#666666" points="858.5,-952 802.5,-952 802.5,-933 858.5,-933 858.5,-952"/>
<text text-anchor="middle" x="830.5" y="-940" font-family="Helvetica,sans-Serif" font-size="10.00">ClearBox</text>
</a>
</g>
</g>
<!-- Node113&#45;&gt;Node115 -->
<g id="edge46" class="edge">
<title>Node113&#45;&gt;Node115</title>
<path fill="none" stroke="#63b8ff" d="M678.32,-802.39C689.48,-826.76 721.66,-890.13 768,-923.5 774.86,-928.44 783.03,-932.12 791.14,-934.85"/>
<polygon fill="#63b8ff" stroke="#63b8ff" points="790.01,-938.16 800.59,-937.6 791.96,-931.44 790.01,-938.16"/>
</g>
<!-- Node116 -->
<g id="node41" class="node">
<title>Node116</title>
<g id="a_node41"><a xlink:href="TransmitterCode_2src_2main_8cpp.html#a68b36025c7478c0710565b4fb059d9bc" target="_top" xlink:title=" ">
<polygon fill="white" stroke="#666666" points="872.5,-730 788.5,-730 788.5,-711 872.5,-711 872.5,-730"/>
<text text-anchor="middle" x="830.5" y="-718" font-family="Helvetica,sans-Serif" font-size="10.00">DegsToPercent</text>
</a>
</g>
</g>
<!-- Node113&#45;&gt;Node116 -->
<g id="edge49" class="edge">
<title>Node113&#45;&gt;Node116</title>
<path fill="none" stroke="#63b8ff" d="M699.79,-782.51C710.09,-778.12 721.88,-772.58 732,-766.5 749.37,-756.06 749.95,-747.73 768,-738.5 771.07,-736.93 774.3,-735.47 777.6,-734.13"/>
<polygon fill="#63b8ff" stroke="#63b8ff" points="778.7,-737.46 786.88,-730.74 776.29,-730.88 778.7,-737.46"/>
</g>
<!-- Node117 -->
<g id="node42" class="node">
<title>Node117</title>
<g id="a_node42"><a xlink:href="TransmitterCode_2src_2main_8cpp.html#a060d8c4636339f7e6760cf835307530e" target="_top" xlink:title=" ">
<polygon fill="white" stroke="#666666" points="858.5,-878 802.5,-878 802.5,-859 858.5,-859 858.5,-878"/>
<text text-anchor="middle" x="830.5" y="-866" font-family="Helvetica,sans-Serif" font-size="10.00">DrawBox</text>
</a>
</g>
</g>
<!-- Node113&#45;&gt;Node117 -->
<g id="edge50" class="edge">
<title>Node113&#45;&gt;Node117</title>
<path fill="none" stroke="#63b8ff" d="M687.74,-802.32C705.54,-814.69 737.88,-835.97 768,-849.5 775.34,-852.8 783.42,-855.75 791.25,-858.28"/>
<polygon fill="#63b8ff" stroke="#63b8ff" points="789.99,-861.56 800.58,-861.13 792.04,-854.86 789.99,-861.56"/>
</g>
<!-- Node118 -->
<g id="node43" class="node">
<title>Node118</title>
<g id="a_node43"><a xlink:href="TransmitterCode_2src_2main_8cpp.html#ad0feb21fbea69455d1d206f142b563ac" target="_top" xlink:title=" ">
<polygon fill="white" stroke="#666666" points="857.5,-430 803.5,-430 803.5,-411 857.5,-411 857.5,-430"/>
<text text-anchor="middle" x="830.5" y="-418" font-family="Helvetica,sans-Serif" font-size="10.00">DrawDot</text>
</a>
</g>
</g>
<!-- Node113&#45;&gt;Node118 -->
<g id="edge53" class="edge">
<title>Node113&#45;&gt;Node118</title>
<path fill="none" stroke="#63b8ff" d="M687.88,-782.54C701.61,-771.86 721.96,-753.55 732,-732.5 788.68,-613.69 682.8,-538.85 768,-438.5 774.14,-431.27 783.02,-426.85 792.13,-424.19"/>
<polygon fill="#63b8ff" stroke="#63b8ff" points="792.71,-427.64 801.71,-422.06 791.19,-420.81 792.71,-427.64"/>
</g>
<!-- Node113&#45;&gt;Node119 -->
<g id="edge56" class="edge">
<title>Node113&#45;&gt;Node119</title>
<path fill="none" stroke="#63b8ff" d="M708.2,-782.51C716.86,-778.65 725.53,-773.44 732,-766.5 763.65,-732.57 735.52,-701.64 768,-668.5 774.19,-662.18 782.24,-657.49 790.46,-654.02"/>
<polygon fill="#63b8ff" stroke="#63b8ff" points="791.59,-657.34 799.81,-650.65 789.21,-650.75 791.59,-657.34"/>
</g>
<!-- Node120 -->
<g id="node45" class="node">
<title>Node120</title>
<g id="a_node45"><a xlink:href="TransmitterCode_2src_2main_8cpp.html#a4abc073f79b7ab2a2b4429990420cbf0" target="_top" xlink:title="Uses servo degrees to position dots.">
<polygon fill="white" stroke="#666666" points="874.5,-841 786.5,-841 786.5,-822 874.5,-822 874.5,-841"/>
<text text-anchor="middle" x="830.5" y="-829" font-family="Helvetica,sans-Serif" font-size="10.00">GetDotPositions</text>
</a>
</g>
</g>
<!-- Node113&#45;&gt;Node120 -->
<g id="edge59" class="edge">
<title>Node113&#45;&gt;Node120</title>
<path fill="none" stroke="#63b8ff" d="M710.46,-801.64C730.81,-806.75 756.48,-813.19 778.76,-818.77"/>
<polygon fill="#63b8ff" stroke="#63b8ff" points="777.71,-822.12 788.26,-821.16 779.41,-815.33 777.71,-822.12"/>
</g>
<!-- Node121 -->
<g id="node46" class="node">
<title>Node121</title>
<g id="a_node46"><a xlink:href="TransmitterCode_2src_2main_8cpp.html#a927484b01116cd14fd1ade706bc06d51" target="_top" xlink:title=" ">
<polygon fill="white" stroke="#666666" points="882.5,-804 778.5,-804 778.5,-785 882.5,-785 882.5,-804"/>
<text text-anchor="middle" x="830.5" y="-792" font-family="Helvetica,sans-Serif" font-size="10.00">MapWithExponential</text>
</a>
</g>
</g>
<!-- Node113&#45;&gt;Node121 -->
<g id="edge60" class="edge">
<title>Node113&#45;&gt;Node121</title>
<path fill="none" stroke="#63b8ff" d="M710.46,-792.97C727.26,-793.19 747.69,-793.45 766.85,-793.69"/>
<polygon fill="#63b8ff" stroke="#63b8ff" points="766.7,-797.19 776.75,-793.82 766.79,-790.19 766.7,-797.19"/>
</g>
<!-- Node113&#45;&gt;Node40 -->
<g id="edge62" class="edge">
<title>Node113&#45;&gt;Node40</title>
<path fill="none" stroke="#63b8ff" d="M705.71,-782.62C714.93,-778.66 724.53,-773.37 732,-766.5 756.32,-744.15 739.55,-718.27 768,-701.5 815.86,-673.29 846.38,-671.28 893,-701.5 896.84,-703.99 948.07,-822.19 968.84,-870.37"/>
<polygon fill="#63b8ff" stroke="#63b8ff" points="965.55,-871.57 972.72,-879.37 971.98,-868.8 965.55,-871.57"/>
</g>
<!-- Node122 -->
<g id="node48" class="node">
<title>Node122</title>
<g id="a_node48"><a xlink:href="TransmitterCode_2src_2main_8cpp.html#a3d20af2f1fee81198a0cef2d4500083a" target="_top" xlink:title=" ">
<polygon fill="white" stroke="#666666" points="893,-915 768,-915 768,-896 893,-896 893,-915"/>
<text text-anchor="middle" x="830.5" y="-903" font-family="Helvetica,sans-Serif" font-size="10.00">updateInterpolationTypes</text>
</a>
</g>
</g>
<!-- Node113&#45;&gt;Node122 -->
<g id="edge66" class="edge">
<title>Node113&#45;&gt;Node122</title>
<path fill="none" stroke="#63b8ff" d="M681.12,-802.3C695.44,-821.32 729.66,-863.38 768,-886.5 770.92,-888.26 774.02,-889.87 777.21,-891.34"/>
<polygon fill="#63b8ff" stroke="#63b8ff" points="775.64,-894.48 786.22,-895.01 778.28,-888 775.64,-894.48"/>
</g>
<!-- Node115&#45;&gt;Node3 -->
<g id="edge47" class="edge">
<title>Node115&#45;&gt;Node3</title>
<path fill="none" stroke="#63b8ff" d="M802.05,-943.14C726.27,-943.87 509.26,-938.93 350,-865.5 328.67,-855.66 307.34,-839.39 292.65,-826.91"/>
<polygon fill="#63b8ff" stroke="#63b8ff" points="294.99,-824.31 285.15,-820.36 290.38,-829.58 294.99,-824.31"/>
</g>
<!-- Node115&#45;&gt;Node26 -->
<g id="edge48" class="edge">
<title>Node115&#45;&gt;Node26</title>
<path fill="none" stroke="#63b8ff" d="M858.91,-943.54C898.82,-943.83 974.05,-939.69 1028,-908.5 1057.86,-891.23 1081.17,-857.66 1093.86,-836.2"/>
<polygon fill="#63b8ff" stroke="#63b8ff" points="1096.88,-837.97 1098.77,-827.54 1090.79,-834.52 1096.88,-837.97"/>
</g>
<!-- Node117&#45;&gt;Node3 -->
<g id="edge51" class="edge">
<title>Node117&#45;&gt;Node3</title>
<path fill="none" stroke="#63b8ff" d="M802.1,-866.77C728.64,-861.95 521.24,-847.16 350,-823.5 342.09,-822.41 333.75,-821.07 325.61,-819.67"/>
<polygon fill="#63b8ff" stroke="#63b8ff" points="326.24,-816.22 315.78,-817.91 325.01,-823.11 326.24,-816.22"/>
</g>
<!-- Node117&#45;&gt;Node26 -->
<g id="edge52" class="edge">
<title>Node117&#45;&gt;Node26</title>
<path fill="none" stroke="#63b8ff" d="M858.93,-863.28C912.01,-853.16 1028.09,-831.05 1079.33,-821.29"/>
<polygon fill="#63b8ff" stroke="#63b8ff" points="1079.96,-824.74 1089.13,-819.43 1078.65,-817.86 1079.96,-824.74"/>
</g>
<!-- Node118&#45;&gt;Node3 -->
<g id="edge54" class="edge">
<title>Node118&#45;&gt;Node3</title>
<path fill="none" stroke="#63b8ff" d="M803.29,-418.01C791.13,-415.58 777.33,-410.82 768,-401.5 729.81,-363.35 775.46,-317.52 732,-285.5 683.22,-249.56 511.48,-272.54 460,-304.5 285.69,-412.71 273.19,-706.66 273.16,-788.25"/>
<polygon fill="#63b8ff" stroke="#63b8ff" points="269.66,-788.16 273.24,-798.13 276.66,-788.11 269.66,-788.16"/>
</g>
<!-- Node118&#45;&gt;Node26 -->
<g id="edge55" class="edge">
<title>Node118&#45;&gt;Node26</title>
<path fill="none" stroke="#63b8ff" d="M857.81,-423.61C869.57,-426.09 882.99,-430.53 893,-438.5 901.09,-444.95 1051.71,-719.9 1093.71,-796.74"/>
<polygon fill="#63b8ff" stroke="#63b8ff" points="1090.49,-798.16 1098.36,-805.25 1096.64,-794.8 1090.49,-798.16"/>
</g>
<!-- Node119&#45;&gt;Node3 -->
<g id="edge57" class="edge">
<title>Node119&#45;&gt;Node3</title>
<path fill="none" stroke="#63b8ff" d="M803.39,-654.44C791.67,-659.77 778.22,-667.17 768,-676.5 746.14,-696.44 757.22,-717.02 732,-732.5 586.56,-821.79 513.95,-724.11 350,-771.5 332.12,-776.67 313.38,-785.91 298.92,-793.98"/>
<polygon fill="#63b8ff" stroke="#63b8ff" points="297.45,-790.79 290.54,-798.82 300.95,-796.85 297.45,-790.79"/>
</g>
<!-- Node119&#45;&gt;Node26 -->
<g id="edge58" class="edge">
<title>Node119&#45;&gt;Node26</title>
<path fill="none" stroke="#63b8ff" d="M852.01,-654.5C864.11,-660.56 879.62,-668.62 893,-676.5 963.71,-718.14 1043.54,-773.34 1081.75,-800.3"/>
<polygon fill="#63b8ff" stroke="#63b8ff" points="1079.54,-803.02 1089.73,-805.94 1083.59,-797.31 1079.54,-803.02"/>
</g>
<!-- Node40&#45;&gt;Node3 -->
<g id="edge64" class="edge">
<title>Node40&#45;&gt;Node3</title>
<path fill="none" stroke="#63b8ff" d="M969.35,-900.31C955.52,-916.15 925.75,-946.98 893,-960.5 802.65,-997.79 771.74,-980.5 674,-980.5 518,-980.5 518,-980.5 518,-980.5 413,-980.5 320.98,-873.28 287.22,-828.64"/>
<polygon fill="#63b8ff" stroke="#63b8ff" points="290.07,-826.61 281.32,-820.65 284.44,-830.77 290.07,-826.61"/>
</g>
<!-- Node40&#45;&gt;Node4 -->
<g id="edge63" class="edge">
<title>Node40&#45;&gt;Node4</title>
<path fill="none" stroke="#63b8ff" d="M999.86,-900.44C1019.93,-910.23 1050.84,-925.32 1073.87,-936.55"/>
<polygon fill="#63b8ff" stroke="#63b8ff" points="1072.26,-939.66 1082.79,-940.9 1075.33,-933.37 1072.26,-939.66"/>
</g>
<!-- Node40&#45;&gt;Node26 -->
<g id="edge65" class="edge">
<title>Node40&#45;&gt;Node26</title>
<path fill="none" stroke="#63b8ff" d="M996.36,-880.52C1018.17,-867.61 1056.28,-845.05 1080.94,-830.45"/>
<polygon fill="#63b8ff" stroke="#63b8ff" points="1082.47,-833.61 1089.3,-825.5 1078.91,-827.58 1082.47,-833.61"/>
</g>
<!-- Node122&#45;&gt;Node3 -->
<g id="edge67" class="edge">
<title>Node122&#45;&gt;Node3</title>
<path fill="none" stroke="#63b8ff" d="M767.85,-902.94C675.49,-897.86 496.41,-883.24 350,-842.5 333.79,-837.99 316.51,-830.76 302.49,-824.22"/>
<polygon fill="#63b8ff" stroke="#63b8ff" points="304.36,-821.24 293.83,-820.06 301.33,-827.55 304.36,-821.24"/>
</g>
<!-- Node122&#45;&gt;Node40 -->
<g id="edge68" class="edge">
<title>Node122&#45;&gt;Node40</title>
<path fill="none" stroke="#63b8ff" d="M893.42,-899.14C907.34,-897.71 921.82,-896.22 934.75,-894.89"/>
<polygon fill="#63b8ff" stroke="#63b8ff" points="935.04,-898.38 944.63,-893.88 934.33,-891.42 935.04,-898.38"/>
</g>
</g>
</svg>
