<?xml version="1.0" encoding="UTF-8" standalone="no"?>
<!DOCTYPE svg PUBLIC "-//W3C//DTD SVG 1.1//EN"
 "http://www.w3.org/Graphics/SVG/1.1/DTD/svg11.dtd">
<!-- Generated by graphviz version 7.0.5 (20221223.1930)
 -->
<!-- Title: KickTheDog Pages: 1 -->
<svg width="1444pt" height="534pt"
 viewBox="0.00 0.00 1444.00 534.34" xmlns="http://www.w3.org/2000/svg" xmlns:xlink="http://www.w3.org/1999/xlink">
<g id="graph0" class="graph" transform="scale(1 1) rotate(0) translate(4 530.34)">
<title>KickTheDog</title>
<!-- Node1 -->
<g id="node1" class="node">
<title>Node1</title>
<g id="a_node1"><a xlink:title=" ">
<polygon fill="#999999" stroke="#666666" points="1436,-215.34 1366,-215.34 1366,-196.34 1436,-196.34 1436,-215.34"/>
<text text-anchor="middle" x="1401" y="-203.34" font-family="Helvetica,sans-Serif" font-size="10.00">KickTheDog</text>
</a>
</g>
</g>
<!-- Node2 -->
<g id="node2" class="node">
<title>Node2</title>
<g id="a_node2"><a xlink:href="TransmitterCode_2src_2main_8cpp.html#a641d6dab68ec7b2a8a32492aac55bc1c" target="_top" xlink:title=" ">
<polygon fill="white" stroke="#666666" points="1330,-348.34 1225,-348.34 1225,-329.34 1330,-329.34 1330,-348.34"/>
<text text-anchor="middle" x="1277.5" y="-336.34" font-family="Helvetica,sans-Serif" font-size="10.00">GetBackupFilename</text>
</a>
</g>
</g>
<!-- Node1&#45;&gt;Node2 -->
<g id="edge1" class="edge">
<title>Node1&#45;&gt;Node2</title>
<path fill="none" stroke="#63b8ff" d="M1392.55,-226.4C1382.27,-252.01 1361.38,-295.47 1330,-320.84 1326.02,-324.06 1321.43,-326.72 1316.66,-328.92"/>
<polygon fill="#63b8ff" stroke="#63b8ff" points="1395.79,-227.73 1396.09,-217.14 1389.25,-225.23 1395.79,-227.73"/>
</g>
<!-- Node5 -->
<g id="node5" class="node">
<title>Node5</title>
<g id="a_node5"><a xlink:href="TransmitterCode_2src_2main_8cpp.html#a6506bf72e0dd9e9ce480156b47625bff" target="_top" xlink:title=" ">
<polygon fill="white" stroke="#666666" points="862.5,-327.34 776.5,-327.34 776.5,-308.34 862.5,-308.34 862.5,-327.34"/>
<text text-anchor="middle" x="819.5" y="-315.34" font-family="Helvetica,sans-Serif" font-size="10.00">GetConfirmation</text>
</a>
</g>
</g>
<!-- Node1&#45;&gt;Node5 -->
<g id="edge36" class="edge">
<title>Node1&#45;&gt;Node5</title>
<path fill="none" stroke="#63b8ff" d="M1354.42,-217.59C1346.31,-219.49 1337.93,-221.32 1330,-222.84 1143.08,-258.68 1089.7,-233.08 906,-282.84 882.93,-289.09 857.75,-299.92 840.73,-307.89"/>
<polygon fill="#63b8ff" stroke="#63b8ff" points="1355.23,-221 1364.14,-215.26 1353.6,-214.19 1355.23,-221"/>
</g>
<!-- Node15 -->
<g id="node15" class="node">
<title>Node15</title>
<g id="a_node15"><a xlink:href="ModelExchange_8h.html#ab7c9edf843c732d7fe296564f39bc0dc" target="_top" xlink:title="RECEIVE A MODEL FILE.">
<polygon fill="white" stroke="#666666" points="704,-526.34 610,-526.34 610,-507.34 704,-507.34 704,-526.34"/>
<text text-anchor="middle" x="657" y="-514.34" font-family="Helvetica,sans-Serif" font-size="10.00">ReceiveModelFile</text>
</a>
</g>
</g>
<!-- Node1&#45;&gt;Node15 -->
<g id="edge40" class="edge">
<title>Node1&#45;&gt;Node15</title>
<path fill="none" stroke="#63b8ff" d="M1393.81,-226.34C1371.71,-294.89 1289.89,-511.84 1139.5,-511.84 1139.5,-511.84 1139.5,-511.84 978,-511.84 880.63,-511.84 766.61,-514.19 704.37,-515.67"/>
<polygon fill="#63b8ff" stroke="#63b8ff" points="1397.05,-227.71 1396.69,-217.12 1390.37,-225.62 1397.05,-227.71"/>
</g>
<!-- Node18 -->
<g id="node18" class="node">
<title>Node18</title>
<g id="a_node18"><a xlink:href="TransmitterCode_2src_2main_8cpp.html#a5c7f22bae35d5d6df9d54fe79dbb8401" target="_top" xlink:title=" ">
<polygon fill="white" stroke="#666666" points="721,-156.34 593,-156.34 593,-137.34 721,-137.34 721,-156.34"/>
<text text-anchor="middle" x="657" y="-144.34" font-family="Helvetica,sans-Serif" font-size="10.00">ResetTransmitterSettings</text>
</a>
</g>
</g>
<!-- Node1&#45;&gt;Node18 -->
<g id="edge46" class="edge">
<title>Node1&#45;&gt;Node18</title>
<path fill="none" stroke="#63b8ff" d="M1354.35,-200.49C1302.39,-194.87 1214.96,-186.84 1139.5,-186.84 1139.5,-186.84 1139.5,-186.84 978,-186.84 884.73,-186.84 861.37,-180.75 769,-167.84 747.92,-164.9 724.78,-160.68 705.1,-156.79"/>
<polygon fill="#63b8ff" stroke="#63b8ff" points="1353.68,-203.94 1364,-201.56 1354.44,-196.98 1353.68,-203.94"/>
</g>
<!-- Node21 -->
<g id="node21" class="node">
<title>Node21</title>
<g id="a_node21"><a xlink:href="TransmitterCode_2src_2main_8cpp.html#a558ea014e230b7caa54ce5a37ad29b22" target="_top" xlink:title=" ">
<polygon fill="white" stroke="#666666" points="870,-158.34 769,-158.34 769,-139.34 870,-139.34 870,-158.34"/>
<text text-anchor="middle" x="819.5" y="-146.34" font-family="Helvetica,sans-Serif" font-size="10.00">ManageTransmitter</text>
</a>
</g>
</g>
<!-- Node1&#45;&gt;Node21 -->
<g id="edge38" class="edge">
<title>Node1&#45;&gt;Node21</title>
<path fill="none" stroke="#63b8ff" d="M1373.8,-190.48C1361.03,-183.78 1345.18,-176.62 1330,-172.84 1165.65,-131.96 962.5,-138.77 870.25,-144.83"/>
<polygon fill="#63b8ff" stroke="#63b8ff" points="1371.94,-193.45 1382.39,-195.17 1375.29,-187.31 1371.94,-193.45"/>
</g>
<!-- Node23 -->
<g id="node23" class="node">
<title>Node23</title>
<g id="a_node23"><a xlink:href="TransmitterCode_2src_2main_8cpp.html#a6f5b0f1e4ca75768c16c4dd93f92a8de" target="_top" xlink:title=" ">
<polygon fill="white" stroke="#666666" points="845.5,-234.34 793.5,-234.34 793.5,-215.34 845.5,-215.34 845.5,-234.34"/>
<text text-anchor="middle" x="819.5" y="-222.34" font-family="Helvetica,sans-Serif" font-size="10.00">MsgBox</text>
</a>
</g>
</g>
<!-- Node1&#45;&gt;Node23 -->
<g id="edge39" class="edge">
<title>Node1&#45;&gt;Node23</title>
<path fill="none" stroke="#63b8ff" d="M1354.68,-207.33C1239.06,-211.12 935.91,-221.06 845.99,-224.01"/>
<polygon fill="#63b8ff" stroke="#63b8ff" points="1354.52,-210.84 1364.4,-207.01 1354.29,-203.84 1354.52,-210.84"/>
</g>
<!-- Node28 -->
<g id="node28" class="node">
<title>Node28</title>
<g id="a_node28"><a xlink:href="ReceiverCode_2src_2main_8cpp.html#afe461d27b9c48d5921c00d521181f12f" target="_top" xlink:title=" ">
<polygon fill="white" stroke="#666666" points="996.5,-120.34 961.5,-120.34 961.5,-101.34 996.5,-101.34 996.5,-120.34"/>
<text text-anchor="middle" x="979" y="-108.34" font-family="Helvetica,sans-Serif" font-size="10.00">loop</text>
</a>
</g>
</g>
<!-- Node1&#45;&gt;Node28 -->
<g id="edge37" class="edge">
<title>Node1&#45;&gt;Node28</title>
<path fill="none" stroke="#63b8ff" d="M1387.61,-187.07C1375.25,-170.11 1354.59,-146.14 1330,-134.84 1212.38,-80.83 1048.87,-99.95 996.69,-108.01"/>
<polygon fill="#63b8ff" stroke="#63b8ff" points="1384.44,-188.65 1393.03,-194.85 1390.19,-184.65 1384.44,-188.65"/>
</g>
<!-- Node29 -->
<g id="node29" class="node">
<title>Node29</title>
<g id="a_node29"><a xlink:href="radio_8h.html#aca314b55765a1c3af5397c0cb3ce47ff" target="_top" xlink:title=" ">
<polygon fill="white" stroke="#666666" points="1309,-82.34 1246,-82.34 1246,-63.34 1309,-63.34 1309,-82.34"/>
<text text-anchor="middle" x="1277.5" y="-70.34" font-family="Helvetica,sans-Serif" font-size="10.00">Reconnect</text>
</a>
</g>
</g>
<!-- Node1&#45;&gt;Node29 -->
<g id="edge41" class="edge">
<title>Node1&#45;&gt;Node29</title>
<path fill="none" stroke="#63b8ff" d="M1391.39,-185.79C1380.25,-161.88 1358.82,-122.02 1330,-96.84 1323.39,-91.07 1315.15,-86.41 1307.21,-82.79"/>
<polygon fill="#63b8ff" stroke="#63b8ff" points="1388.11,-187.03 1395.39,-194.72 1394.5,-184.17 1388.11,-187.03"/>
</g>
<!-- Node32 -->
<g id="node32" class="node">
<title>Node32</title>
<g id="a_node32"><a xlink:href="ReceiverCode_2src_2main_8cpp.html#a17699f358cf9f7c3155a9c5daf8ff13c" target="_top" xlink:title=" ">
<polygon fill="white" stroke="#666666" points="840,-63.34 799,-63.34 799,-44.34 840,-44.34 840,-63.34"/>
<text text-anchor="middle" x="819.5" y="-51.34" font-family="Helvetica,sans-Serif" font-size="10.00">setup</text>
</a>
</g>
</g>
<!-- Node1&#45;&gt;Node32 -->
<g id="edge49" class="edge">
<title>Node1&#45;&gt;Node32</title>
<path fill="none" stroke="#63b8ff" d="M1397.33,-184.76C1391.75,-150.55 1375.32,-83.85 1330,-54.84 1167.77,48.99 912.9,-23.09 840.36,-46.95"/>
<polygon fill="#63b8ff" stroke="#63b8ff" points="1393.87,-185.25 1398.77,-194.64 1400.79,-184.24 1393.87,-185.25"/>
</g>
<!-- Node33 -->
<g id="node33" class="node">
<title>Node33</title>
<g id="a_node33"><a xlink:href="ModelExchange_8h.html#a58c67a975068930341f0663e0a08c9d3" target="_top" xlink:title="SEND A MODEL FILE.">
<polygon fill="white" stroke="#666666" points="1318,-311.34 1237,-311.34 1237,-292.34 1318,-292.34 1318,-311.34"/>
<text text-anchor="middle" x="1277.5" y="-299.34" font-family="Helvetica,sans-Serif" font-size="10.00">SendModelFile</text>
</a>
</g>
</g>
<!-- Node1&#45;&gt;Node33 -->
<g id="edge47" class="edge">
<title>Node1&#45;&gt;Node33</title>
<path fill="none" stroke="#63b8ff" d="M1384.98,-224.28C1371.7,-239.73 1351.2,-261.64 1330,-276.84 1321.84,-282.69 1312.11,-287.82 1303.31,-291.88"/>
<polygon fill="#63b8ff" stroke="#63b8ff" points="1387.53,-226.68 1391.28,-216.77 1382.17,-222.18 1387.53,-226.68"/>
</g>
<!-- Node3 -->
<g id="node3" class="node">
<title>Node3</title>
<g id="a_node3"><a xlink:href="TransmitterCode_2src_2main_8cpp.html#a804fdbdd5eab4c596bbe8a23eecbe4d5" target="_top" xlink:title=" ">
<polygon fill="white" stroke="#666666" points="1189,-348.34 1088,-348.34 1088,-329.34 1189,-329.34 1189,-348.34"/>
<text text-anchor="middle" x="1138.5" y="-336.34" font-family="Helvetica,sans-Serif" font-size="10.00">ButtonWasPressed</text>
</a>
</g>
</g>
<!-- Node2&#45;&gt;Node3 -->
<g id="edge2" class="edge">
<title>Node2&#45;&gt;Node3</title>
<path fill="none" stroke="#63b8ff" d="M1213.33,-338.84C1205.2,-338.84 1196.97,-338.84 1189.1,-338.84"/>
<polygon fill="#63b8ff" stroke="#63b8ff" points="1213.19,-342.34 1223.19,-338.84 1213.19,-335.34 1213.19,-342.34"/>
</g>
<!-- Node16 -->
<g id="node16" class="node">
<title>Node16</title>
<g id="a_node16"><a xlink:href="TransmitterCode_2src_2main_8cpp.html#a9d94366336f1e5fd43edb9c24bec5821" target="_top" xlink:title=" ">
<polygon fill="white" stroke="#666666" points="691,-489.34 623,-489.34 623,-470.34 691,-470.34 691,-489.34"/>
<text text-anchor="middle" x="657" y="-477.34" font-family="Helvetica,sans-Serif" font-size="10.00">RenameFile</text>
</a>
</g>
</g>
<!-- Node2&#45;&gt;Node16 -->
<g id="edge35" class="edge">
<title>Node2&#45;&gt;Node16</title>
<path fill="none" stroke="#63b8ff" d="M1221.82,-351.31C1096.68,-379.84 792.44,-449.2 691.3,-472.25"/>
<polygon fill="#63b8ff" stroke="#63b8ff" points="1222.56,-354.73 1231.53,-349.1 1221,-347.91 1222.56,-354.73"/>
</g>
<!-- Node4 -->
<g id="node4" class="node">
<title>Node4</title>
<g id="a_node4"><a xlink:href="Utilities_8h.html#afb7c85cac4aa89fd998ed81c330374d2" target="_top" xlink:title=" ">
<polygon fill="white" stroke="#666666" points="1052,-310.34 906,-310.34 906,-291.34 1052,-291.34 1052,-310.34"/>
<text text-anchor="middle" x="979" y="-298.34" font-family="Helvetica,sans-Serif" font-size="10.00">CheckForNextionButtonPress</text>
</a>
</g>
</g>
<!-- Node3&#45;&gt;Node4 -->
<g id="edge3" class="edge">
<title>Node3&#45;&gt;Node4</title>
<path fill="none" stroke="#63b8ff" d="M1084.94,-326.16C1064.25,-321.17 1040.83,-315.52 1021.38,-310.83"/>
<polygon fill="#63b8ff" stroke="#63b8ff" points="1084.11,-329.56 1094.65,-328.51 1085.75,-322.76 1084.11,-329.56"/>
</g>
<!-- Node3&#45;&gt;Node15 -->
<g id="edge34" class="edge">
<title>Node3&#45;&gt;Node15</title>
<path fill="none" stroke="#63b8ff" d="M1105.1,-353.48C1037.19,-383.75 874.54,-454.11 733,-498.84 723.68,-501.79 713.58,-504.52 703.89,-506.92"/>
<polygon fill="#63b8ff" stroke="#63b8ff" points="1106.45,-356.71 1114.15,-349.43 1103.6,-350.32 1106.45,-356.71"/>
</g>
<!-- Node4&#45;&gt;Node2 -->
<g id="edge4" class="edge">
<title>Node4&#45;&gt;Node2</title>
<path fill="none" stroke="#63b8ff" d="M1063.42,-306.76C1101.79,-310.01 1147.83,-314.66 1189,-320.84 1203.26,-322.99 1218.71,-325.95 1232.6,-328.85"/>
<polygon fill="#63b8ff" stroke="#63b8ff" points="1064.06,-303.3 1053.8,-305.96 1063.48,-310.28 1064.06,-303.3"/>
</g>
<!-- Node4&#45;&gt;Node5 -->
<g id="edge5" class="edge">
<title>Node4&#45;&gt;Node5</title>
<path fill="none" stroke="#63b8ff" d="M894.3,-309.88C883.36,-311.06 872.55,-312.23 862.72,-313.29"/>
<polygon fill="#63b8ff" stroke="#63b8ff" points="894.63,-313.36 904.2,-308.81 893.88,-306.4 894.63,-313.36"/>
</g>
<!-- Node4&#45;&gt;Node21 -->
<g id="edge22" class="edge">
<title>Node4&#45;&gt;Node21</title>
<path fill="none" stroke="#63b8ff" d="M959.65,-283.13C926.28,-250.93 856.74,-183.82 830.67,-158.66"/>
<polygon fill="#63b8ff" stroke="#63b8ff" points="956.95,-285.39 966.58,-289.82 961.81,-280.36 956.95,-285.39"/>
</g>
<!-- Node4&#45;&gt;Node23 -->
<g id="edge24" class="edge">
<title>Node4&#45;&gt;Node23</title>
<path fill="none" stroke="#63b8ff" d="M947.06,-285.91C915.71,-270.79 868.1,-247.81 841.1,-234.78"/>
<polygon fill="#63b8ff" stroke="#63b8ff" points="945.52,-289.06 956.05,-290.25 948.56,-282.75 945.52,-289.06"/>
</g>
<!-- Node5&#45;&gt;Node3 -->
<g id="edge6" class="edge">
<title>Node5&#45;&gt;Node3</title>
<path fill="none" stroke="#63b8ff" d="M874.43,-321.42C934.14,-325.37 1029.59,-331.7 1087.62,-335.54"/>
<polygon fill="#63b8ff" stroke="#63b8ff" points="874.71,-317.93 864.5,-320.76 874.24,-324.91 874.71,-317.93"/>
</g>
<!-- Node6 -->
<g id="node6" class="node">
<title>Node6</title>
<g id="a_node6"><a xlink:href="TransmitterCode_2src_2main_8cpp.html#ac45477c637c975e13189e2988c8813b3" target="_top" xlink:title=" ">
<polygon fill="white" stroke="#666666" points="697,-193.34 617,-193.34 617,-174.34 697,-174.34 697,-193.34"/>
<text text-anchor="middle" x="657" y="-181.34" font-family="Helvetica,sans-Serif" font-size="10.00">DeleteModelID</text>
</a>
</g>
</g>
<!-- Node5&#45;&gt;Node6 -->
<g id="edge7" class="edge">
<title>Node5&#45;&gt;Node6</title>
<path fill="none" stroke="#63b8ff" d="M805.28,-298.63C783.78,-267.62 742.66,-209.31 733,-202.84 722.51,-195.82 709.61,-191.39 697.48,-188.6"/>
<polygon fill="#63b8ff" stroke="#63b8ff" points="802.32,-300.51 810.88,-306.75 808.08,-296.53 802.32,-300.51"/>
</g>
<!-- Node7 -->
<g id="node7" class="node">
<title>Node7</title>
<g id="a_node7"><a xlink:href="TransmitterCode_2src_2main_8cpp.html#a53d438145d004c3b053f245f494f4284" target="_top" xlink:title=" ">
<polygon fill="white" stroke="#666666" points="683,-378.34 631,-378.34 631,-359.34 683,-359.34 683,-378.34"/>
<text text-anchor="middle" x="657" y="-366.34" font-family="Helvetica,sans-Serif" font-size="10.00">DelLOG</text>
</a>
</g>
</g>
<!-- Node5&#45;&gt;Node7 -->
<g id="edge8" class="edge">
<title>Node5&#45;&gt;Node7</title>
<path fill="none" stroke="#63b8ff" d="M784.98,-331.97C769.35,-338.25 750.4,-345.42 733,-350.84 716.64,-355.94 697.89,-360.44 683.23,-363.67"/>
<polygon fill="#63b8ff" stroke="#63b8ff" points="785.87,-335.39 793.81,-328.37 783.22,-328.9 785.87,-335.39"/>
</g>
<!-- Node8 -->
<g id="node8" class="node">
<title>Node8</title>
<g id="a_node8"><a xlink:href="TransmitterCode_2src_2main_8cpp.html#a16c65917a148c7f6c17babf11e977b69" target="_top" xlink:title=" ">
<polygon fill="white" stroke="#666666" points="698,-341.34 616,-341.34 616,-322.34 698,-322.34 698,-341.34"/>
<text text-anchor="middle" x="657" y="-329.34" font-family="Helvetica,sans-Serif" font-size="10.00">EndBuddyView</text>
</a>
</g>
</g>
<!-- Node5&#45;&gt;Node8 -->
<g id="edge9" class="edge">
<title>Node5&#45;&gt;Node8</title>
<path fill="none" stroke="#63b8ff" d="M764.92,-322.52C743.15,-324.42 718.42,-326.57 698.23,-328.34"/>
<polygon fill="#63b8ff" stroke="#63b8ff" points="765.16,-326.01 774.82,-321.65 764.56,-319.04 765.16,-326.01"/>
</g>
<!-- Node9 -->
<g id="node9" class="node">
<title>Node9</title>
<g id="a_node9"><a xlink:href="ModelMatch_8h.html#afdd42b1130d38073be1c2025af855879" target="_top" xlink:title=" ">
<polygon fill="white" stroke="#666666" points="691.5,-304.34 622.5,-304.34 622.5,-285.34 691.5,-285.34 691.5,-304.34"/>
<text text-anchor="middle" x="657" y="-292.34" font-family="Helvetica,sans-Serif" font-size="10.00">IDNotFound</text>
</a>
</g>
</g>
<!-- Node5&#45;&gt;Node9 -->
<g id="edge10" class="edge">
<title>Node5&#45;&gt;Node9</title>
<path fill="none" stroke="#63b8ff" d="M765.15,-310.2C740.95,-306.73 713.06,-302.74 691.81,-299.69"/>
<polygon fill="#63b8ff" stroke="#63b8ff" points="764.44,-313.63 774.83,-311.59 765.43,-306.7 764.44,-313.63"/>
</g>
<!-- Node14 -->
<g id="node14" class="node">
<title>Node14</title>
<g id="a_node14"><a xlink:href="TransmitterCode_2src_2main_8cpp.html#ae9f91b9da28f2e1e2fb126961f03c31c" target="_top" xlink:title=" ">
<polygon fill="white" stroke="#666666" points="697.5,-452.34 616.5,-452.34 616.5,-433.34 697.5,-433.34 697.5,-452.34"/>
<text text-anchor="middle" x="657" y="-440.34" font-family="Helvetica,sans-Serif" font-size="10.00">ModelViewEnd</text>
</a>
</g>
</g>
<!-- Node5&#45;&gt;Node14 -->
<g id="edge15" class="edge">
<title>Node5&#45;&gt;Node14</title>
<path fill="none" stroke="#63b8ff" d="M803.52,-336.62C779.04,-367.28 733.15,-424.75 733,-424.84 722.49,-431.52 709.72,-435.73 697.71,-438.37"/>
<polygon fill="#63b8ff" stroke="#63b8ff" points="806.18,-338.89 809.68,-328.89 800.71,-334.52 806.18,-338.89"/>
</g>
<!-- Node5&#45;&gt;Node15 -->
<g id="edge16" class="edge">
<title>Node5&#45;&gt;Node15</title>
<path fill="none" stroke="#63b8ff" d="M801,-335.91C790.46,-347.63 777.49,-363.68 769,-379.84 743.3,-428.76 773.19,-460.93 733,-498.84 725.11,-506.29 714.71,-510.82 704.17,-513.54"/>
<polygon fill="#63b8ff" stroke="#63b8ff" points="803.52,-338.34 807.76,-328.63 798.39,-333.58 803.52,-338.34"/>
</g>
<!-- Node5&#45;&gt;Node16 -->
<g id="edge17" class="edge">
<title>Node5&#45;&gt;Node16</title>
<path fill="none" stroke="#63b8ff" d="M801.66,-336.29C791.38,-348.15 778.45,-364.22 769,-379.84 748.41,-413.91 763.54,-436.32 733,-461.84 721.39,-471.55 705.42,-476.19 691.19,-478.35"/>
<polygon fill="#63b8ff" stroke="#63b8ff" points="804.2,-338.7 808.21,-328.9 798.96,-334.06 804.2,-338.7"/>
</g>
<!-- Node17 -->
<g id="node17" class="node">
<title>Node17</title>
<g id="a_node17"><a xlink:href="TransmitterCode_2src_2main_8cpp.html#a75875d66db3193e4034c3768c175f8ef" target="_top" xlink:title=" ">
<polygon fill="white" stroke="#666666" points="690.5,-267.34 623.5,-267.34 623.5,-248.34 690.5,-248.34 690.5,-267.34"/>
<text text-anchor="middle" x="657" y="-255.34" font-family="Helvetica,sans-Serif" font-size="10.00">ResetClock</text>
</a>
</g>
</g>
<!-- Node5&#45;&gt;Node17 -->
<g id="edge18" class="edge">
<title>Node5&#45;&gt;Node17</title>
<path fill="none" stroke="#63b8ff" d="M790.6,-302.72C774.18,-294.27 752.81,-284.02 733,-276.84 719.49,-271.95 704.17,-267.83 690.91,-264.69"/>
<polygon fill="#63b8ff" stroke="#63b8ff" points="788.78,-305.72 799.27,-307.27 792.03,-299.52 788.78,-305.72"/>
</g>
<!-- Node5&#45;&gt;Node18 -->
<g id="edge19" class="edge">
<title>Node5&#45;&gt;Node18</title>
<path fill="none" stroke="#63b8ff" d="M804.75,-299.08C794.31,-284.43 779.93,-263.34 769,-243.84 750.33,-210.54 762.37,-190.24 733,-165.84 728.56,-162.15 723.49,-159.17 718.14,-156.75"/>
<polygon fill="#63b8ff" stroke="#63b8ff" points="801.69,-300.82 810.38,-306.88 807.36,-296.72 801.69,-300.82"/>
</g>
<!-- Node19 -->
<g id="node19" class="node">
<title>Node19</title>
<g id="a_node19"><a xlink:href="TransmitterCode_2src_2main_8cpp.html#a3838aa0b33bb22d3b9934da05d2716d8" target="_top" xlink:title=" ">
<polygon fill="white" stroke="#666666" points="695,-230.34 619,-230.34 619,-211.34 695,-211.34 695,-230.34"/>
<text text-anchor="middle" x="657" y="-218.34" font-family="Helvetica,sans-Serif" font-size="10.00">StoreModelID</text>
</a>
</g>
</g>
<!-- Node5&#45;&gt;Node19 -->
<g id="edge20" class="edge">
<title>Node5&#45;&gt;Node19</title>
<path fill="none" stroke="#63b8ff" d="M803.42,-299.62C787.66,-281.77 761.32,-255.09 733,-239.84 721.41,-233.6 707.7,-229.36 695.2,-226.49"/>
<polygon fill="#63b8ff" stroke="#63b8ff" points="800.49,-301.59 809.66,-306.9 805.8,-297.03 800.49,-301.59"/>
</g>
<!-- Node20 -->
<g id="node20" class="node">
<title>Node20</title>
<g id="a_node20"><a xlink:href="TransmitterCode_2src_2main_8cpp.html#a3c55ef7c23759a89a86f6519569c4f7a" target="_top" xlink:title=" ">
<polygon fill="white" stroke="#666666" points="706.5,-415.34 607.5,-415.34 607.5,-396.34 706.5,-396.34 706.5,-415.34"/>
<text text-anchor="middle" x="657" y="-403.34" font-family="Helvetica,sans-Serif" font-size="10.00">TXModuleViewEnd</text>
</a>
</g>
</g>
<!-- Node5&#45;&gt;Node20 -->
<g id="edge21" class="edge">
<title>Node5&#45;&gt;Node20</title>
<path fill="none" stroke="#63b8ff" d="M801.59,-335.68C785.44,-351.68 759.68,-374.6 733,-387.84 724.84,-391.89 715.73,-395.06 706.74,-397.53"/>
<polygon fill="#63b8ff" stroke="#63b8ff" points="803.94,-338.28 808.46,-328.7 798.95,-333.38 803.94,-338.28"/>
</g>
<!-- Node10 -->
<g id="node10" class="node">
<title>Node10</title>
<g id="a_node10"><a xlink:href="ModelMatch_8h.html#af8fe429ceb65bf9d257a2a0f1c63eccb" target="_top" xlink:title=" ">
<polygon fill="white" stroke="#666666" points="532,-294.34 430,-294.34 430,-275.34 532,-275.34 532,-294.34"/>
<text text-anchor="middle" x="481" y="-282.34" font-family="Helvetica,sans-Serif" font-size="10.00">CompareModelsIDs</text>
</a>
</g>
</g>
<!-- Node9&#45;&gt;Node10 -->
<g id="edge11" class="edge">
<title>Node9&#45;&gt;Node10</title>
<path fill="none" stroke="#63b8ff" d="M610.73,-292.24C586.71,-290.86 557.11,-289.16 532.36,-287.74"/>
<polygon fill="#63b8ff" stroke="#63b8ff" points="610.34,-295.73 620.53,-292.81 610.74,-288.74 610.34,-295.73"/>
</g>
<!-- Node11 -->
<g id="node11" class="node">
<title>Node11</title>
<g id="a_node11"><a xlink:href="ModelMatch_8h.html#a494cb4acb30856d1f53f08df1b80c41b" target="_top" xlink:title=" ">
<polygon fill="white" stroke="#666666" points="381,-285.34 262,-285.34 262,-266.34 381,-266.34 381,-285.34"/>
<text text-anchor="middle" x="321.5" y="-273.34" font-family="Helvetica,sans-Serif" font-size="10.00">GetModelsMacAddress</text>
</a>
</g>
</g>
<!-- Node10&#45;&gt;Node11 -->
<g id="edge12" class="edge">
<title>Node10&#45;&gt;Node11</title>
<path fill="none" stroke="#63b8ff" d="M418.29,-281.32C406.14,-280.62 393.41,-279.9 381.35,-279.21"/>
<polygon fill="#63b8ff" stroke="#63b8ff" points="418.04,-284.81 428.22,-281.89 418.44,-277.82 418.04,-284.81"/>
</g>
<!-- Node12 -->
<g id="node12" class="node">
<title>Node12</title>
<g id="a_node12"><a xlink:href="TransmitterCode_2src_2main_8cpp.html#a694f4f5a0147f4dc29b0bc1a8951547d" target="_top" xlink:title=" ">
<polygon fill="white" stroke="#666666" points="226,-248.34 132,-248.34 132,-229.34 226,-229.34 226,-248.34"/>
<text text-anchor="middle" x="179" y="-236.34" font-family="Helvetica,sans-Serif" font-size="10.00">ParseAckPayload</text>
</a>
</g>
</g>
<!-- Node11&#45;&gt;Node12 -->
<g id="edge13" class="edge">
<title>Node11&#45;&gt;Node12</title>
<path fill="none" stroke="#63b8ff" d="M271.84,-263.03C254.13,-258.37 234.38,-253.17 217.76,-248.79"/>
<polygon fill="#63b8ff" stroke="#63b8ff" points="270.82,-266.38 281.38,-265.54 272.61,-259.61 270.82,-266.38"/>
</g>
<!-- Node13 -->
<g id="node13" class="node">
<title>Node13</title>
<g id="a_node13"><a xlink:href="transceiver_8h.html#a1c11bb6771548de7d96723045b922620" target="_top" xlink:title=" ">
<polygon fill="white" stroke="#666666" points="96,-248.34 0,-248.34 0,-229.34 96,-229.34 96,-248.34"/>
<text text-anchor="middle" x="48" y="-236.34" font-family="Helvetica,sans-Serif" font-size="10.00">SuccessfulPacket</text>
</a>
</g>
</g>
<!-- Node12&#45;&gt;Node13 -->
<g id="edge14" class="edge">
<title>Node12&#45;&gt;Node13</title>
<path fill="none" stroke="#63b8ff" d="M120.47,-238.84C112.35,-238.84 104.08,-238.84 96.19,-238.84"/>
<polygon fill="#63b8ff" stroke="#63b8ff" points="120.28,-242.34 130.28,-238.84 120.28,-235.34 120.28,-242.34"/>
</g>
<!-- Node22 -->
<g id="node22" class="node">
<title>Node22</title>
<g id="a_node22"><a xlink:href="TransmitterCode_2src_2main_8cpp.html#ad3cb30894c94eb016e98bdcaa899ac86" target="_top" xlink:title=" ">
<polygon fill="white" stroke="#666666" points="674.5,-45.34 639.5,-45.34 639.5,-26.34 674.5,-26.34 674.5,-45.34"/>
<text text-anchor="middle" x="657" y="-33.34" font-family="Helvetica,sans-Serif" font-size="10.00">loop</text>
</a>
</g>
</g>
<!-- Node21&#45;&gt;Node22 -->
<g id="edge23" class="edge">
<title>Node21&#45;&gt;Node22</title>
<path fill="none" stroke="#63b8ff" d="M806.06,-129.42C791.26,-107.91 764.54,-73.77 733,-54.84 714.92,-43.99 690.81,-39.31 674.86,-37.3"/>
<polygon fill="#63b8ff" stroke="#63b8ff" points="803.05,-131.21 811.5,-137.59 808.87,-127.33 803.05,-131.21"/>
</g>
<!-- Node23&#45;&gt;Node6 -->
<g id="edge25" class="edge">
<title>Node23&#45;&gt;Node6</title>
<path fill="none" stroke="#63b8ff" d="M782.05,-215.43C766.89,-211.53 749.09,-206.95 733,-202.84 721.42,-199.89 708.82,-196.69 697.32,-193.78"/>
<polygon fill="#63b8ff" stroke="#63b8ff" points="781.04,-218.79 791.6,-217.9 782.79,-212.01 781.04,-218.79"/>
</g>
<!-- Node23&#45;&gt;Node9 -->
<g id="edge26" class="edge">
<title>Node23&#45;&gt;Node9</title>
<path fill="none" stroke="#63b8ff" d="M795.87,-241.3C779.21,-252.73 755.61,-267.52 733,-276.84 720,-282.2 705.05,-286.19 691.93,-289.04"/>
<polygon fill="#63b8ff" stroke="#63b8ff" points="797.87,-244.18 804.04,-235.57 793.85,-238.45 797.87,-244.18"/>
</g>
<!-- Node23&#45;&gt;Node17 -->
<g id="edge27" class="edge">
<title>Node23&#45;&gt;Node17</title>
<path fill="none" stroke="#63b8ff" d="M781.97,-232.35C754.54,-237.99 717.3,-245.65 690.81,-251.1"/>
<polygon fill="#63b8ff" stroke="#63b8ff" points="782.5,-235.82 791.59,-230.38 781.09,-228.96 782.5,-235.82"/>
</g>
<!-- Node23&#45;&gt;Node19 -->
<g id="edge29" class="edge">
<title>Node23&#45;&gt;Node19</title>
<path fill="none" stroke="#63b8ff" d="M781.84,-223.93C755.92,-223.28 721.3,-222.42 695.26,-221.77"/>
<polygon fill="#63b8ff" stroke="#63b8ff" points="781.47,-227.42 791.56,-224.17 781.65,-220.42 781.47,-227.42"/>
</g>
<!-- Node24 -->
<g id="node24" class="node">
<title>Node24</title>
<g id="a_node24"><a xlink:href="ModelExchange_8h.html#ac36bdea2efcd030a336293af16f5dc09" target="_top" xlink:title=" ">
<polygon fill="white" stroke="#666666" points="699.5,-82.34 614.5,-82.34 614.5,-63.34 699.5,-63.34 699.5,-82.34"/>
<text text-anchor="middle" x="657" y="-70.34" font-family="Helvetica,sans-Serif" font-size="10.00">ShowRemoteID</text>
</a>
</g>
</g>
<!-- Node23&#45;&gt;Node24 -->
<g id="edge28" class="edge">
<title>Node23&#45;&gt;Node24</title>
<path fill="none" stroke="#63b8ff" d="M800.66,-206.91C790.58,-196.17 778.18,-181.9 769,-167.84 748.56,-136.55 761.87,-115.59 733,-91.84 723.66,-84.17 711.62,-79.54 699.93,-76.76"/>
<polygon fill="#63b8ff" stroke="#63b8ff" points="797.97,-209.15 807.42,-213.93 803.01,-204.3 797.97,-209.15"/>
</g>
<!-- Node25 -->
<g id="node25" class="node">
<title>Node25</title>
<g id="a_node25"><a xlink:href="TransmitterCode_2src_2main_8cpp.html#a7d321cdde32c31b15ca1080fda6743c8" target="_top" xlink:title=" ">
<polygon fill="white" stroke="#666666" points="733,-119.34 581,-119.34 581,-100.34 733,-100.34 733,-119.34"/>
<text text-anchor="middle" x="657" y="-107.34" font-family="Helvetica,sans-Serif" font-size="10.00">WarnUserOfVersionsMismatch</text>
</a>
</g>
</g>
<!-- Node23&#45;&gt;Node25 -->
<g id="edge30" class="edge">
<title>Node23&#45;&gt;Node25</title>
<path fill="none" stroke="#63b8ff" d="M802.47,-206.29C778.94,-179.14 737.35,-131.49 733,-128.84 726.91,-125.15 720.13,-122.17 713.21,-119.77"/>
<polygon fill="#63b8ff" stroke="#63b8ff" points="799.77,-208.52 808.96,-213.79 805.06,-203.94 799.77,-208.52"/>
</g>
<!-- Node26 -->
<g id="node26" class="node">
<title>Node26</title>
<g id="a_node26"><a xlink:href="TransmitterCode_2src_2main_8cpp.html#ad496cd10d726d7c5757d01a922c2aa25" target="_top" xlink:title=" ">
<polygon fill="white" stroke="#666666" points="545,-193.34 417,-193.34 417,-174.34 545,-174.34 545,-193.34"/>
<text text-anchor="middle" x="481" y="-181.34" font-family="Helvetica,sans-Serif" font-size="10.00">CompareVersionNumbers</text>
</a>
</g>
</g>
<!-- Node25&#45;&gt;Node26 -->
<g id="edge31" class="edge">
<title>Node25&#45;&gt;Node26</title>
<path fill="none" stroke="#63b8ff" d="M598.34,-122.82C592.41,-124.64 586.54,-126.65 581,-128.84 549.56,-141.31 515.68,-161.85 496.83,-173.99"/>
<polygon fill="#63b8ff" stroke="#63b8ff" points="598.9,-126.31 607.54,-120.18 596.96,-119.58 598.9,-126.31"/>
</g>
<!-- Node27 -->
<g id="node27" class="node">
<title>Node27</title>
<g id="a_node27"><a xlink:href="TransmitterCode_2src_2main_8cpp.html#a4f813935d8fe58355228cbbf25e12f96" target="_top" xlink:title=" ">
<polygon fill="white" stroke="#666666" points="378,-230.34 265,-230.34 265,-211.34 378,-211.34 378,-230.34"/>
<text text-anchor="middle" x="321.5" y="-218.34" font-family="Helvetica,sans-Serif" font-size="10.00">GetRXVersionNumber</text>
</a>
</g>
</g>
<!-- Node26&#45;&gt;Node27 -->
<g id="edge32" class="edge">
<title>Node26&#45;&gt;Node27</title>
<path fill="none" stroke="#63b8ff" d="M426.86,-196.33C406.65,-201.08 383.91,-206.42 364.82,-210.9"/>
<polygon fill="#63b8ff" stroke="#63b8ff" points="427.38,-199.8 436.32,-194.11 425.78,-192.99 427.38,-199.8"/>
</g>
<!-- Node27&#45;&gt;Node12 -->
<g id="edge33" class="edge">
<title>Node27&#45;&gt;Node12</title>
<path fill="none" stroke="#63b8ff" d="M253.43,-229.44C244.24,-230.61 234.97,-231.8 226.26,-232.92"/>
<polygon fill="#63b8ff" stroke="#63b8ff" points="253.59,-232.94 263.07,-228.2 252.7,-226 253.59,-232.94"/>
</g>
<!-- Node30 -->
<g id="node30" class="node">
<title>Node30</title>
<g id="a_node30"><a xlink:href="radio_8h.html#a06807a4f185694d37f774702ba74db0a" target="_top" xlink:title=" ">
<polygon fill="white" stroke="#666666" points="1174.5,-82.34 1102.5,-82.34 1102.5,-63.34 1174.5,-63.34 1174.5,-82.34"/>
<text text-anchor="middle" x="1138.5" y="-70.34" font-family="Helvetica,sans-Serif" font-size="10.00">ReceiveData</text>
</a>
</g>
</g>
<!-- Node29&#45;&gt;Node30 -->
<g id="edge42" class="edge">
<title>Node29&#45;&gt;Node30</title>
<path fill="none" stroke="#63b8ff" d="M1234.39,-72.84C1215.37,-72.84 1193.14,-72.84 1174.98,-72.84"/>
<polygon fill="#63b8ff" stroke="#63b8ff" points="1234.24,-76.34 1244.24,-72.84 1234.24,-69.34 1234.24,-76.34"/>
</g>
<!-- Node30&#45;&gt;Node28 -->
<g id="edge43" class="edge">
<title>Node30&#45;&gt;Node28</title>
<path fill="none" stroke="#63b8ff" d="M1091.32,-83.99C1059.56,-91.65 1019.22,-101.38 996.86,-106.78"/>
<polygon fill="#63b8ff" stroke="#63b8ff" points="1091.78,-87.48 1100.68,-81.73 1090.14,-80.67 1091.78,-87.48"/>
</g>
<!-- Node31 -->
<g id="node31" class="node">
<title>Node31</title>
<g id="a_node31"><a xlink:href="ReceiverCode_2src_2main_8cpp.html#a5b90f51dfaa1795437ab024e8ab778d5" target="_top" xlink:title=" ">
<polygon fill="white" stroke="#666666" points="1018,-82.34 940,-82.34 940,-63.34 1018,-63.34 1018,-82.34"/>
<text text-anchor="middle" x="979" y="-70.34" font-family="Helvetica,sans-Serif" font-size="10.00">ReadBindPlug</text>
</a>
</g>
</g>
<!-- Node30&#45;&gt;Node31 -->
<g id="edge44" class="edge">
<title>Node30&#45;&gt;Node31</title>
<path fill="none" stroke="#63b8ff" d="M1090.86,-72.84C1067.72,-72.84 1040.13,-72.84 1018.26,-72.84"/>
<polygon fill="#63b8ff" stroke="#63b8ff" points="1090.64,-76.34 1100.64,-72.84 1090.64,-69.34 1090.64,-76.34"/>
</g>
<!-- Node31&#45;&gt;Node32 -->
<g id="edge45" class="edge">
<title>Node31&#45;&gt;Node32</title>
<path fill="none" stroke="#63b8ff" d="M928.75,-66.9C898.77,-63.29 862.12,-58.86 840.07,-56.21"/>
<polygon fill="#63b8ff" stroke="#63b8ff" points="928.02,-70.34 938.37,-68.06 928.86,-63.39 928.02,-70.34"/>
</g>
<!-- Node33&#45;&gt;Node3 -->
<g id="edge48" class="edge">
<title>Node33&#45;&gt;Node3</title>
<path fill="none" stroke="#63b8ff" d="M1228.81,-314.72C1211.6,-319.37 1192.45,-324.54 1176.31,-328.9"/>
<polygon fill="#63b8ff" stroke="#63b8ff" points="1229.58,-318.14 1238.33,-312.15 1227.76,-311.38 1229.58,-318.14"/>
</g>
</g>
</svg>
