<?xml version="1.0" encoding="UTF-8" standalone="no"?>
<!DOCTYPE svg PUBLIC "-//W3C//DTD SVG 1.1//EN"
 "http://www.w3.org/Graphics/SVG/1.1/DTD/svg11.dtd">
<!-- Generated by graphviz version 7.0.5 (20221223.1930)
 -->
<!-- Title: loop Pages: 1 -->
<svg width="1132pt" height="807pt"
 viewBox="0.00 0.00 1132.00 806.50" xmlns="http://www.w3.org/2000/svg" xmlns:xlink="http://www.w3.org/1999/xlink">
<g id="graph0" class="graph" transform="scale(1 1) rotate(0) translate(4 802.5)">
<title>loop</title>
<!-- Node1 -->
<g id="node1" class="node">
<title>Node1</title>
<g id="a_node1"><a xlink:title=" ">
<polygon fill="#999999" stroke="#666666" points="35,-535.5 0,-535.5 0,-516.5 35,-516.5 35,-535.5"/>
<text text-anchor="middle" x="17.5" y="-523.5" font-family="Helvetica,sans-Serif" font-size="10.00">loop</text>
</a>
</g>
</g>
<!-- Node2 -->
<g id="node2" class="node">
<title>Node2</title>
<g id="a_node2"><a xlink:href="ReceiverCode_2src_2main_8cpp.html#aa477cf7453bb57dab00e7b654f62cb13" target="_top" xlink:title=" ">
<polygon fill="white" stroke="#666666" points="423,-460.5 368,-460.5 368,-441.5 423,-441.5 423,-460.5"/>
<text text-anchor="middle" x="395.5" y="-448.5" font-family="Helvetica,sans-Serif" font-size="10.00">BlinkLed</text>
</a>
</g>
</g>
<!-- Node1&#45;&gt;Node2 -->
<g id="edge1" class="edge">
<title>Node1&#45;&gt;Node2</title>
<path fill="none" stroke="#63b8ff" d="M35.45,-519.93C45.69,-516.32 59.04,-511.74 71,-508 128.75,-489.96 142.58,-482.39 202,-471 254.93,-460.85 317.11,-455.57 356.16,-453.04"/>
<polygon fill="#63b8ff" stroke="#63b8ff" points="356.23,-456.54 365.99,-452.43 355.8,-449.55 356.23,-456.54"/>
</g>
<!-- Node5 -->
<g id="node5" class="node">
<title>Node5</title>
<g id="a_node5"><a xlink:href="pid_8h.html#a48050e81ef4521304a2dbeaf99e1a331" target="_top" xlink:title=" ">
<polygon fill="white" stroke="#666666" points="787,-47.5 707,-47.5 707,-28.5 787,-28.5 787,-47.5"/>
<text text-anchor="middle" x="747" y="-35.5" font-family="Helvetica,sans-Serif" font-size="10.00">DoStabilsation</text>
</a>
</g>
</g>
<!-- Node1&#45;&gt;Node5 -->
<g id="edge4" class="edge">
<title>Node1&#45;&gt;Node5</title>
<path fill="none" stroke="#63b8ff" d="M18.29,-516.42C17.22,-445.13 20.04,0 256,0 256,0 256,0 396.5,0 503.38,0 627.58,-17.78 695.39,-29.02"/>
<polygon fill="#63b8ff" stroke="#63b8ff" points="694.65,-32.44 705.09,-30.65 695.8,-25.54 694.65,-32.44"/>
</g>
<!-- Node7 -->
<g id="node7" class="node">
<title>Node7</title>
<g id="a_node7"><a xlink:href="radio_8h.html#ad8b2470258da4e397b34d67ffce9ebaf" target="_top" xlink:title=" ">
<polygon fill="white" stroke="#666666" points="154.5,-742.5 82.5,-742.5 82.5,-723.5 154.5,-723.5 154.5,-742.5"/>
<text text-anchor="middle" x="118.5" y="-730.5" font-family="Helvetica,sans-Serif" font-size="10.00">GetNewPipe</text>
</a>
</g>
</g>
<!-- Node1&#45;&gt;Node7 -->
<g id="edge6" class="edge">
<title>Node1&#45;&gt;Node7</title>
<path fill="none" stroke="#63b8ff" d="M19.77,-535.68C23.65,-562.36 37.15,-638.43 71,-691 77.08,-700.44 85.81,-709.09 94.07,-716.06"/>
<polygon fill="#63b8ff" stroke="#63b8ff" points="91.83,-718.75 101.84,-722.22 96.18,-713.26 91.83,-718.75"/>
</g>
<!-- Node16 -->
<g id="node16" class="node">
<title>Node16</title>
<g id="a_node16"><a xlink:href="ReceiverCode_2src_2main_8cpp.html#ada95a00a341e4a80176eda743a94ab2e" target="_top" xlink:title=" ">
<polygon fill="white" stroke="#666666" points="430.5,-648.5 360.5,-648.5 360.5,-629.5 430.5,-629.5 430.5,-648.5"/>
<text text-anchor="middle" x="395.5" y="-636.5" font-family="Helvetica,sans-Serif" font-size="10.00">KickTheDog</text>
</a>
</g>
</g>
<!-- Node1&#45;&gt;Node16 -->
<g id="edge15" class="edge">
<title>Node1&#45;&gt;Node16</title>
<path fill="none" stroke="#63b8ff" d="M35.46,-534.89C67.25,-551.2 138.37,-585.96 202,-605 251.17,-619.71 309.41,-628.9 348.86,-633.97"/>
<polygon fill="#63b8ff" stroke="#63b8ff" points="348.36,-637.43 358.71,-635.19 349.22,-630.48 348.36,-637.43"/>
</g>
<!-- Node17 -->
<g id="node17" class="node">
<title>Node17</title>
<g id="a_node17"><a xlink:href="ReceiverCode_2src_2main_8cpp.html#a6f2443a0666140cf4d8b7352bb3b793c" target="_top" xlink:title=" ">
<polygon fill="white" stroke="#666666" points="599.5,-686.5 528.5,-686.5 528.5,-667.5 599.5,-667.5 599.5,-686.5"/>
<text text-anchor="middle" x="564" y="-674.5" font-family="Helvetica,sans-Serif" font-size="10.00">MoveServos</text>
</a>
</g>
</g>
<!-- Node1&#45;&gt;Node17 -->
<g id="edge16" class="edge">
<title>Node1&#45;&gt;Node17</title>
<path fill="none" stroke="#63b8ff" d="M24.74,-535.96C33.52,-549.2 50.73,-572.49 71,-586 212.08,-680.05 424.05,-683.58 516.79,-679.96"/>
<polygon fill="#63b8ff" stroke="#63b8ff" points="516.94,-683.45 526.77,-679.51 516.63,-676.46 516.94,-683.45"/>
</g>
<!-- Node20 -->
<g id="node20" class="node">
<title>Node20</title>
<g id="a_node20"><a xlink:href="radio_8h.html#a06807a4f185694d37f774702ba74db0a" target="_top" xlink:title=" ">
<polygon fill="white" stroke="#666666" points="154.5,-535.5 82.5,-535.5 82.5,-516.5 154.5,-516.5 154.5,-535.5"/>
<text text-anchor="middle" x="118.5" y="-523.5" font-family="Helvetica,sans-Serif" font-size="10.00">ReceiveData</text>
</a>
</g>
</g>
<!-- Node1&#45;&gt;Node20 -->
<g id="edge22" class="edge">
<title>Node1&#45;&gt;Node20</title>
<path fill="none" stroke="#63b8ff" d="M35.29,-526C45.09,-526 57.99,-526 70.65,-526"/>
<polygon fill="#63b8ff" stroke="#63b8ff" points="70.6,-529.5 80.6,-526 70.6,-522.5 70.6,-529.5"/>
</g>
<!-- Node48 -->
<g id="node48" class="node">
<title>Node48</title>
<g id="a_node48"><a xlink:href="ReceiverCode_2src_2main_8cpp.html#a96891035aa9f064462b6a614c5878f51" target="_top" xlink:title=" ">
<polygon fill="white" stroke="#666666" points="166,-292.5 71,-292.5 71,-273.5 166,-273.5 166,-292.5"/>
<text text-anchor="middle" x="118.5" y="-280.5" font-family="Helvetica,sans-Serif" font-size="10.00">SaveFailSafeData</text>
</a>
</g>
</g>
<!-- Node1&#45;&gt;Node48 -->
<g id="edge63" class="edge">
<title>Node1&#45;&gt;Node48</title>
<path fill="none" stroke="#63b8ff" d="M22.5,-516.17C37.27,-479.92 88.89,-353.22 109.2,-303.37"/>
<polygon fill="#63b8ff" stroke="#63b8ff" points="112.34,-304.93 112.88,-294.35 105.86,-302.29 112.34,-304.93"/>
</g>
<!-- Node3 -->
<g id="node3" class="node">
<title>Node3</title>
<g id="a_node3"><a xlink:href="ReceiverCode_2src_2main_8cpp.html#aadfccc52afc40455e31e965015c29b46" target="_top" xlink:title=" ">
<polygon fill="white" stroke="#666666" points="779.5,-648.5 714.5,-648.5 714.5,-629.5 779.5,-629.5 779.5,-648.5"/>
<text text-anchor="middle" x="747" y="-636.5" font-family="Helvetica,sans-Serif" font-size="10.00">TurnLedOff</text>
</a>
</g>
</g>
<!-- Node2&#45;&gt;Node3 -->
<g id="edge2" class="edge">
<title>Node2&#45;&gt;Node3</title>
<path fill="none" stroke="#63b8ff" d="M423.33,-445.69C472.38,-437.51 577.99,-427.1 649,-472 656.1,-476.49 711.6,-576.43 735.32,-619.52"/>
<polygon fill="#63b8ff" stroke="#63b8ff" points="732.12,-620.97 740,-628.05 738.26,-617.6 732.12,-620.97"/>
</g>
<!-- Node4 -->
<g id="node4" class="node">
<title>Node4</title>
<g id="a_node4"><a xlink:href="ReceiverCode_2src_2main_8cpp.html#a852569e2aefff6371f3adad09fcd746f" target="_top" xlink:title=" ">
<polygon fill="white" stroke="#666666" points="779.5,-517.5 714.5,-517.5 714.5,-498.5 779.5,-498.5 779.5,-517.5"/>
<text text-anchor="middle" x="747" y="-505.5" font-family="Helvetica,sans-Serif" font-size="10.00">TurnLedOn</text>
</a>
</g>
</g>
<!-- Node2&#45;&gt;Node4 -->
<g id="edge3" class="edge">
<title>Node2&#45;&gt;Node4</title>
<path fill="none" stroke="#63b8ff" d="M423.49,-443.46C470.58,-431.63 570.27,-412.56 649,-438 680.76,-448.26 710.87,-473.22 728.88,-490.39"/>
<polygon fill="#63b8ff" stroke="#63b8ff" points="726.05,-492.51 735.63,-497.03 730.96,-487.52 726.05,-492.51"/>
</g>
<!-- Node6 -->
<g id="node6" class="node">
<title>Node6</title>
<g id="a_node6"><a xlink:href="pid_8h.html#af0885e7050f46e9be63fa1c9574ad9a0" target="_top" xlink:title=" ">
<polygon fill="white" stroke="#666666" points="955,-47.5 878,-47.5 878,-28.5 955,-28.5 955,-47.5"/>
<text text-anchor="middle" x="916.5" y="-35.5" font-family="Helvetica,sans-Serif" font-size="10.00">PIDEntryPoint</text>
</a>
</g>
</g>
<!-- Node5&#45;&gt;Node6 -->
<g id="edge5" class="edge">
<title>Node5&#45;&gt;Node6</title>
<path fill="none" stroke="#63b8ff" d="M787.27,-38C810.92,-38 841.23,-38 866.44,-38"/>
<polygon fill="#63b8ff" stroke="#63b8ff" points="866.11,-41.5 876.11,-38 866.11,-34.5 866.11,-41.5"/>
</g>
<!-- Node8 -->
<g id="node8" class="node">
<title>Node8</title>
<g id="a_node8"><a xlink:href="ReceiverCode_2src_2main_8cpp.html#aa0c6905579a33aef28d737d43676cbbd" target="_top" xlink:title=" ">
<polygon fill="white" stroke="#666666" points="288,-798.5 226,-798.5 226,-779.5 288,-779.5 288,-798.5"/>
<text text-anchor="middle" x="257" y="-786.5" font-family="Helvetica,sans-Serif" font-size="10.00">BindModel</text>
</a>
</g>
</g>
<!-- Node7&#45;&gt;Node8 -->
<g id="edge7" class="edge">
<title>Node7&#45;&gt;Node8</title>
<path fill="none" stroke="#63b8ff" d="M139.57,-743C156.11,-751.06 180.3,-762.41 202,-771 206.12,-772.63 210.45,-774.24 214.8,-775.79"/>
<polygon fill="#63b8ff" stroke="#63b8ff" points="213.49,-779.04 224.08,-778.99 215.77,-772.42 213.49,-779.04"/>
</g>
<!-- Node14 -->
<g id="node14" class="node">
<title>Node14</title>
<g id="a_node14"><a xlink:href="radio_8h.html#aa55e98a44b0bcb87b4e318381fece092" target="_top" xlink:title=" ">
<polygon fill="white" stroke="#666666" points="301.5,-761.5 212.5,-761.5 212.5,-742.5 301.5,-742.5 301.5,-761.5"/>
<text text-anchor="middle" x="257" y="-749.5" font-family="Helvetica,sans-Serif" font-size="10.00">CopyCurrentPipe</text>
</a>
</g>
</g>
<!-- Node7&#45;&gt;Node14 -->
<g id="edge13" class="edge">
<title>Node7&#45;&gt;Node14</title>
<path fill="none" stroke="#63b8ff" d="M154.65,-737.89C168.76,-739.86 185.37,-742.17 201,-744.34"/>
<polygon fill="#63b8ff" stroke="#63b8ff" points="200.28,-747.78 210.67,-745.69 201.25,-740.84 200.28,-747.78"/>
</g>
<!-- Node15 -->
<g id="node15" class="node">
<title>Node15</title>
<g id="a_node15"><a xlink:href="radio_8h.html#a5f57423b51a89ce596c324bbf359a6cb" target="_top" xlink:title=" ">
<polygon fill="white" stroke="#666666" points="303,-724.5 211,-724.5 211,-705.5 303,-705.5 303,-724.5"/>
<text text-anchor="middle" x="257" y="-712.5" font-family="Helvetica,sans-Serif" font-size="10.00">ValidateNewPipe</text>
</a>
</g>
</g>
<!-- Node7&#45;&gt;Node15 -->
<g id="edge14" class="edge">
<title>Node7&#45;&gt;Node15</title>
<path fill="none" stroke="#63b8ff" d="M154.65,-728.36C168.25,-726.57 184.16,-724.47 199.29,-722.48"/>
<polygon fill="#63b8ff" stroke="#63b8ff" points="199.7,-725.95 209.15,-721.18 198.78,-719.02 199.7,-725.95"/>
</g>
<!-- Node9 -->
<g id="node9" class="node">
<title>Node9</title>
<g id="a_node9"><a xlink:href="ReceiverCode_2src_2main_8cpp.html#a0cbfd712ab3bd8f654bc19400fd704bd" target="_top" xlink:title=" ">
<polygon fill="white" stroke="#666666" points="433.5,-798.5 357.5,-798.5 357.5,-779.5 433.5,-779.5 433.5,-798.5"/>
<text text-anchor="middle" x="395.5" y="-786.5" font-family="Helvetica,sans-Serif" font-size="10.00">AttachServos</text>
</a>
</g>
</g>
<!-- Node8&#45;&gt;Node9 -->
<g id="edge8" class="edge">
<title>Node8&#45;&gt;Node9</title>
<path fill="none" stroke="#63b8ff" d="M288.29,-789C305.22,-789 326.71,-789 345.93,-789"/>
<polygon fill="#63b8ff" stroke="#63b8ff" points="345.72,-792.5 355.72,-789 345.72,-785.5 345.72,-792.5"/>
</g>
<!-- Node13 -->
<g id="node13" class="node">
<title>Node13</title>
<g id="a_node13"><a xlink:href="radio_8h.html#a6f54969e66375decc44723b141b78766" target="_top" xlink:title=" ">
<polygon fill="white" stroke="#666666" points="431,-761.5 360,-761.5 360,-742.5 431,-742.5 431,-761.5"/>
<text text-anchor="middle" x="395.5" y="-749.5" font-family="Helvetica,sans-Serif" font-size="10.00">SetNewPipe</text>
</a>
</g>
</g>
<!-- Node8&#45;&gt;Node13 -->
<g id="edge12" class="edge">
<title>Node8&#45;&gt;Node13</title>
<path fill="none" stroke="#63b8ff" d="M288.29,-780.79C306.1,-775.96 328.97,-769.76 348.92,-764.35"/>
<polygon fill="#63b8ff" stroke="#63b8ff" points="349.76,-767.75 358.5,-761.76 347.93,-761 349.76,-767.75"/>
</g>
<!-- Node10 -->
<g id="node10" class="node">
<title>Node10</title>
<g id="a_node10"><a xlink:href="classSBUS.html#a5c2fccbffff0bd17ed522529fd6b2d8f" target="_top" xlink:title=" ">
<polygon fill="white" stroke="#666666" points="600,-798.5 528,-798.5 528,-779.5 600,-779.5 600,-798.5"/>
<text text-anchor="middle" x="564" y="-786.5" font-family="Helvetica,sans-Serif" font-size="10.00">SBUS::begin</text>
</a>
</g>
</g>
<!-- Node9&#45;&gt;Node10 -->
<g id="edge9" class="edge">
<title>Node9&#45;&gt;Node10</title>
<path fill="none" stroke="#63b8ff" d="M433.87,-789C458.23,-789 490.21,-789 516.25,-789"/>
<polygon fill="#63b8ff" stroke="#63b8ff" points="516.24,-792.5 526.24,-789 516.24,-785.5 516.24,-792.5"/>
</g>
<!-- Node12 -->
<g id="node12" class="node">
<title>Node12</title>
<g id="a_node12"><a xlink:href="common_8h.html#a5424788640aaa8d535d6ea077949ef82" target="_top" xlink:title=" ">
<polygon fill="white" stroke="#666666" points="773,-760.5 721,-760.5 721,-741.5 773,-741.5 773,-760.5"/>
<text text-anchor="middle" x="747" y="-748.5" font-family="Helvetica,sans-Serif" font-size="10.00">MySbus</text>
</a>
</g>
</g>
<!-- Node9&#45;&gt;Node12 -->
<g id="edge11" class="edge">
<title>Node9&#45;&gt;Node12</title>
<path fill="none" stroke="#63b8ff" d="M433.67,-779.73C447.78,-776.52 464.06,-773.18 479,-771 560.93,-759.05 658.11,-754.05 709.66,-752.11"/>
<polygon fill="#63b8ff" stroke="#63b8ff" points="709.46,-755.62 719.33,-751.76 709.21,-748.62 709.46,-755.62"/>
</g>
<!-- Node11 -->
<g id="node11" class="node">
<title>Node11</title>
<g id="a_node11"><a xlink:href="classSBUS.html#a58a6caab31090f4019d4f2439ab20fc2" target="_top" xlink:title=" ">
<polygon fill="white" stroke="#666666" points="800.5,-798.5 693.5,-798.5 693.5,-779.5 800.5,-779.5 800.5,-798.5"/>
<text text-anchor="middle" x="747" y="-786.5" font-family="Helvetica,sans-Serif" font-size="10.00">SBUS::setEndPoints</text>
</a>
</g>
</g>
<!-- Node10&#45;&gt;Node11 -->
<g id="edge10" class="edge">
<title>Node10&#45;&gt;Node11</title>
<path fill="none" stroke="#63b8ff" d="M600.33,-789C623.46,-789 654.38,-789 681.77,-789"/>
<polygon fill="#63b8ff" stroke="#63b8ff" points="681.75,-792.5 691.75,-789 681.75,-785.5 681.75,-792.5"/>
</g>
<!-- Node17&#45;&gt;Node3 -->
<g id="edge19" class="edge">
<title>Node17&#45;&gt;Node3</title>
<path fill="none" stroke="#63b8ff" d="M599.9,-669.67C629.36,-663.49 671.65,-654.61 703.16,-647.99"/>
<polygon fill="#63b8ff" stroke="#63b8ff" points="703.69,-651.46 712.76,-645.98 702.25,-644.61 703.69,-651.46"/>
</g>
<!-- Node17&#45;&gt;Node4 -->
<g id="edge20" class="edge">
<title>Node17&#45;&gt;Node4</title>
<path fill="none" stroke="#63b8ff" d="M582.36,-667.07C600.04,-656.54 627.79,-638.85 649,-620 681.99,-590.67 714.34,-550.34 732.08,-526.93"/>
<polygon fill="#63b8ff" stroke="#63b8ff" points="734.86,-529.06 738.05,-518.95 729.26,-524.86 734.86,-529.06"/>
</g>
<!-- Node17&#45;&gt;Node12 -->
<g id="edge18" class="edge">
<title>Node17&#45;&gt;Node12</title>
<path fill="none" stroke="#63b8ff" d="M583.74,-686.82C607.04,-698.77 648.23,-719.09 685,-733 692.95,-736.01 701.64,-738.84 709.9,-741.32"/>
<polygon fill="#63b8ff" stroke="#63b8ff" points="708.76,-744.63 719.34,-744.05 710.71,-737.91 708.76,-744.63"/>
</g>
<!-- Node18 -->
<g id="node18" class="node">
<title>Node18</title>
<g id="a_node18"><a xlink:href="ReceiverCode_2src_2main_8cpp.html#ae5188cdc179ab32d9a36de911e3a2d45" target="_top" xlink:title=" ">
<polygon fill="white" stroke="#666666" points="796,-723.5 698,-723.5 698,-704.5 796,-704.5 796,-723.5"/>
<text text-anchor="middle" x="747" y="-711.5" font-family="Helvetica,sans-Serif" font-size="10.00">CheckCrazyValues</text>
</a>
</g>
</g>
<!-- Node17&#45;&gt;Node18 -->
<g id="edge17" class="edge">
<title>Node17&#45;&gt;Node18</title>
<path fill="none" stroke="#63b8ff" d="M599.9,-684.13C624.38,-689.14 657.74,-695.96 686.39,-701.82"/>
<polygon fill="#63b8ff" stroke="#63b8ff" points="685.54,-705.21 696.04,-703.79 686.95,-698.36 685.54,-705.21"/>
</g>
<!-- Node19 -->
<g id="node19" class="node">
<title>Node19</title>
<g id="a_node19"><a xlink:href="classSBUS.html#aeb87d0ab21224d4cc84848c93a788848" target="_top" xlink:title=" ">
<polygon fill="white" stroke="#666666" points="782,-686.5 712,-686.5 712,-667.5 782,-667.5 782,-686.5"/>
<text text-anchor="middle" x="747" y="-674.5" font-family="Helvetica,sans-Serif" font-size="10.00">SBUS::write</text>
</a>
</g>
</g>
<!-- Node17&#45;&gt;Node19 -->
<g id="edge21" class="edge">
<title>Node17&#45;&gt;Node19</title>
<path fill="none" stroke="#63b8ff" d="M599.9,-677C628.41,-677 668.94,-677 700.08,-677"/>
<polygon fill="#63b8ff" stroke="#63b8ff" points="700,-680.5 710,-677 700,-673.5 700,-680.5"/>
</g>
<!-- Node21 -->
<g id="node21" class="node">
<title>Node21</title>
<g id="a_node21"><a xlink:href="radio_8h.html#a6f74cdb7b32a3aa9e9342661bd44ad1a" target="_top" xlink:title=" ">
<polygon fill="white" stroke="#666666" points="440,-610.5 351,-610.5 351,-591.5 440,-591.5 440,-610.5"/>
<text text-anchor="middle" x="395.5" y="-598.5" font-family="Helvetica,sans-Serif" font-size="10.00">KeepSbusHappy</text>
</a>
</g>
</g>
<!-- Node20&#45;&gt;Node21 -->
<g id="edge23" class="edge">
<title>Node20&#45;&gt;Node21</title>
<path fill="none" stroke="#63b8ff" d="M130.24,-535.95C145.1,-549.05 173.35,-571.63 202,-582 246.31,-598.04 299.88,-602.21 339.24,-602.69"/>
<polygon fill="#63b8ff" stroke="#63b8ff" points="339.19,-606.19 349.21,-602.73 339.22,-599.19 339.19,-606.19"/>
</g>
<!-- Node22 -->
<g id="node22" class="node">
<title>Node22</title>
<g id="a_node22"><a xlink:href="radio_8h.html#a07ca94db0e305e9c01ec51e417576308" target="_top" xlink:title=" ">
<polygon fill="white" stroke="#666666" points="286.5,-255.5 227.5,-255.5 227.5,-236.5 286.5,-236.5 286.5,-255.5"/>
<text text-anchor="middle" x="257" y="-243.5" font-family="Helvetica,sans-Serif" font-size="10.00">ReadData</text>
</a>
</g>
</g>
<!-- Node20&#45;&gt;Node22 -->
<g id="edge25" class="edge">
<title>Node20&#45;&gt;Node22</title>
<path fill="none" stroke="#63b8ff" d="M124.36,-516.03C144.18,-475.38 219.14,-321.6 246.19,-266.12"/>
<polygon fill="#63b8ff" stroke="#63b8ff" points="249.3,-267.73 250.54,-257.21 243.01,-264.66 249.3,-267.73"/>
</g>
<!-- Node39 -->
<g id="node39" class="node">
<title>Node39</title>
<g id="a_node39"><a xlink:href="ReceiverCode_2src_2main_8cpp.html#a5d2350b2507883d3644251013370bc5b" target="_top" xlink:title=" ">
<polygon fill="white" stroke="#666666" points="309,-572.5 205,-572.5 205,-553.5 309,-553.5 309,-572.5"/>
<text text-anchor="middle" x="257" y="-560.5" font-family="Helvetica,sans-Serif" font-size="10.00">ReadTheSensorHub</text>
</a>
</g>
</g>
<!-- Node20&#45;&gt;Node39 -->
<g id="edge46" class="edge">
<title>Node20&#45;&gt;Node39</title>
<path fill="none" stroke="#63b8ff" d="M154.65,-535.53C171.06,-539.98 190.83,-545.34 208.54,-550.14"/>
<polygon fill="#63b8ff" stroke="#63b8ff" points="207.51,-553.48 218.08,-552.72 209.34,-546.73 207.51,-553.48"/>
</g>
<!-- Node40 -->
<g id="node40" class="node">
<title>Node40</title>
<g id="a_node40"><a xlink:href="radio_8h.html#aca314b55765a1c3af5397c0cb3ce47ff" target="_top" xlink:title=" ">
<polygon fill="white" stroke="#666666" points="288.5,-498.5 225.5,-498.5 225.5,-479.5 288.5,-479.5 288.5,-498.5"/>
<text text-anchor="middle" x="257" y="-486.5" font-family="Helvetica,sans-Serif" font-size="10.00">Reconnect</text>
</a>
</g>
</g>
<!-- Node20&#45;&gt;Node40 -->
<g id="edge47" class="edge">
<title>Node20&#45;&gt;Node40</title>
<path fill="none" stroke="#63b8ff" d="M154.65,-516.47C172.79,-511.55 195.05,-505.52 214.08,-500.36"/>
<polygon fill="#63b8ff" stroke="#63b8ff" points="214.95,-503.75 223.69,-497.76 213.12,-497 214.95,-503.75"/>
</g>
<!-- Node47 -->
<g id="node47" class="node">
<title>Node47</title>
<g id="a_node47"><a xlink:href="ReceiverCode_2src_2main_8cpp.html#ad8b70060a07f5323c3e1011dd6b1dd6f" target="_top" xlink:title=" ">
<polygon fill="white" stroke="#666666" points="312,-535.5 202,-535.5 202,-516.5 312,-516.5 312,-535.5"/>
<text text-anchor="middle" x="257" y="-523.5" font-family="Helvetica,sans-Serif" font-size="10.00">SensorHubHasFailed</text>
</a>
</g>
</g>
<!-- Node20&#45;&gt;Node47 -->
<g id="edge62" class="edge">
<title>Node20&#45;&gt;Node47</title>
<path fill="none" stroke="#63b8ff" d="M154.65,-526C165.6,-526 178.04,-526 190.38,-526"/>
<polygon fill="#63b8ff" stroke="#63b8ff" points="190.11,-529.5 200.11,-526 190.11,-522.5 190.11,-529.5"/>
</g>
<!-- Node21&#45;&gt;Node17 -->
<g id="edge24" class="edge">
<title>Node21&#45;&gt;Node17</title>
<path fill="none" stroke="#63b8ff" d="M423.32,-610.8C429.96,-613.69 436.92,-617.13 443,-621 461.06,-632.49 460.24,-642.69 479,-653 490.72,-659.44 504.33,-664.29 517.14,-667.88"/>
<polygon fill="#63b8ff" stroke="#63b8ff" points="516.1,-671.23 526.66,-670.35 517.85,-664.45 516.1,-671.23"/>
</g>
<!-- Node23 -->
<g id="node23" class="node">
<title>Node23</title>
<g id="a_node23"><a xlink:href="ReceiverCode_2src_2main_8cpp.html#a9692998537a18fea0930c692647e25ad" target="_top" xlink:title=" ">
<polygon fill="white" stroke="#666666" points="427,-161.5 364,-161.5 364,-142.5 427,-142.5 427,-161.5"/>
<text text-anchor="middle" x="395.5" y="-149.5" font-family="Helvetica,sans-Serif" font-size="10.00">DelayMillis</text>
</a>
</g>
</g>
<!-- Node22&#45;&gt;Node23 -->
<g id="edge26" class="edge">
<title>Node22&#45;&gt;Node23</title>
<path fill="none" stroke="#63b8ff" d="M267.74,-236.12C283.46,-220.59 315.93,-190.28 348,-171 350.57,-169.45 353.3,-167.98 356.08,-166.58"/>
<polygon fill="#63b8ff" stroke="#63b8ff" points="357.28,-169.89 364.91,-162.54 354.36,-163.52 357.28,-169.89"/>
</g>
<!-- Node24 -->
<g id="node24" class="node">
<title>Node24</title>
<g id="a_node24"><a xlink:href="radio_8h.html#a664f409561bfcf119e0379dd991217e5" target="_top" xlink:title=" ">
<polygon fill="white" stroke="#666666" points="440.5,-198.5 350.5,-198.5 350.5,-179.5 440.5,-179.5 440.5,-198.5"/>
<text text-anchor="middle" x="395.5" y="-186.5" font-family="Helvetica,sans-Serif" font-size="10.00">LoadAckPayload</text>
</a>
</g>
</g>
<!-- Node22&#45;&gt;Node24 -->
<g id="edge28" class="edge">
<title>Node22&#45;&gt;Node24</title>
<path fill="none" stroke="#63b8ff" d="M281.78,-236.07C303.6,-226.96 336.17,-213.36 360.7,-203.12"/>
<polygon fill="#63b8ff" stroke="#63b8ff" points="361.72,-206.48 369.6,-199.4 359.02,-200.02 361.72,-206.48"/>
</g>
<!-- Node33 -->
<g id="node33" class="node">
<title>Node33</title>
<g id="a_node33"><a xlink:href="radio_8h.html#ae81f764427dc5f290cc6e16ab92e83b8" target="_top" xlink:title=" ">
<polygon fill="white" stroke="#666666" points="443,-311.5 348,-311.5 348,-292.5 443,-292.5 443,-311.5"/>
<text text-anchor="middle" x="395.5" y="-299.5" font-family="Helvetica,sans-Serif" font-size="10.00">UseReceivedData</text>
</a>
</g>
</g>
<!-- Node22&#45;&gt;Node33 -->
<g id="edge40" class="edge">
<title>Node22&#45;&gt;Node33</title>
<path fill="none" stroke="#63b8ff" d="M282.09,-255.88C303.59,-264.71 335.35,-277.73 359.63,-287.69"/>
<polygon fill="#63b8ff" stroke="#63b8ff" points="358.21,-290.9 368.79,-291.45 360.87,-284.42 358.21,-290.9"/>
</g>
<!-- Node23&#45;&gt;Node5 -->
<g id="edge27" class="edge">
<title>Node23&#45;&gt;Node5</title>
<path fill="none" stroke="#63b8ff" d="M401.49,-142.25C412.4,-122.12 440.5,-76.23 479,-57 547.89,-22.58 639.47,-24.76 695.5,-30.58"/>
<polygon fill="#63b8ff" stroke="#63b8ff" points="695.06,-34.05 705.39,-31.69 695.85,-27.1 695.06,-34.05"/>
</g>
<!-- Node25 -->
<g id="node25" class="node">
<title>Node25</title>
<g id="a_node25"><a xlink:href="radio_8h.html#affa2dcc4341b8daecac77e6e0a354b2d" target="_top" xlink:title=" ">
<polygon fill="white" stroke="#666666" points="808,-160.5 686,-160.5 686,-141.5 808,-141.5 808,-160.5"/>
<text text-anchor="middle" x="747" y="-148.5" font-family="Helvetica,sans-Serif" font-size="10.00">SendDateToAckPayload</text>
</a>
</g>
</g>
<!-- Node24&#45;&gt;Node25 -->
<g id="edge29" class="edge">
<title>Node24&#45;&gt;Node25</title>
<path fill="none" stroke="#63b8ff" d="M440.76,-184.19C499.58,-177.79 604.2,-166.42 674.33,-158.79"/>
<polygon fill="#63b8ff" stroke="#63b8ff" points="674.65,-162.28 684.21,-157.72 673.89,-155.32 674.65,-162.28"/>
</g>
<!-- Node28 -->
<g id="node28" class="node">
<title>Node28</title>
<g id="a_node28"><a xlink:href="radio_8h.html#ab6bb1ded4e272b24f150c28295f4d291" target="_top" xlink:title=" ">
<polygon fill="white" stroke="#666666" points="611,-85.5 517,-85.5 517,-66.5 611,-66.5 611,-85.5"/>
<text text-anchor="middle" x="564" y="-73.5" font-family="Helvetica,sans-Serif" font-size="10.00">SendMacAddress</text>
</a>
</g>
</g>
<!-- Node24&#45;&gt;Node28 -->
<g id="edge32" class="edge">
<title>Node24&#45;&gt;Node28</title>
<path fill="none" stroke="#63b8ff" d="M431.29,-179.03C435.54,-176.84 439.58,-174.19 443,-171 470.61,-145.21 449.44,-117.53 479,-94 486.72,-87.86 496.05,-83.69 505.65,-80.88"/>
<polygon fill="#63b8ff" stroke="#63b8ff" points="506.16,-84.36 515.06,-78.61 504.52,-77.56 506.16,-84.36"/>
</g>
<!-- Node30 -->
<g id="node30" class="node">
<title>Node30</title>
<g id="a_node30"><a xlink:href="radio_8h.html#a8162c1748e39496c4adf88c55d1c49b8" target="_top" xlink:title=" ">
<polygon fill="white" stroke="#666666" points="809,-236.5 685,-236.5 685,-217.5 809,-217.5 809,-236.5"/>
<text text-anchor="middle" x="747" y="-224.5" font-family="Helvetica,sans-Serif" font-size="10.00">SendTimeToAckPayload</text>
</a>
</g>
</g>
<!-- Node24&#45;&gt;Node30 -->
<g id="edge35" class="edge">
<title>Node24&#45;&gt;Node30</title>
<path fill="none" stroke="#63b8ff" d="M440.93,-197.2C453.23,-199.29 466.61,-201.39 479,-203 544.6,-211.5 619.67,-217.96 673.46,-222.03"/>
<polygon fill="#63b8ff" stroke="#63b8ff" points="672.87,-225.49 683.1,-222.74 673.39,-218.51 672.87,-225.49"/>
</g>
<!-- Node31 -->
<g id="node31" class="node">
<title>Node31</title>
<g id="a_node31"><a xlink:href="radio_8h.html#a632401c7e72610ff0a0678358b6877ad" target="_top" xlink:title=" ">
<polygon fill="white" stroke="#666666" points="798,-198.5 696,-198.5 696,-179.5 798,-179.5 798,-198.5"/>
<text text-anchor="middle" x="747" y="-186.5" font-family="Helvetica,sans-Serif" font-size="10.00">SendToAckPayload</text>
</a>
</g>
</g>
<!-- Node24&#45;&gt;Node31 -->
<g id="edge37" class="edge">
<title>Node24&#45;&gt;Node31</title>
<path fill="none" stroke="#63b8ff" d="M440.76,-189C502.45,-189 614.52,-189 684.35,-189"/>
<polygon fill="#63b8ff" stroke="#63b8ff" points="684.09,-192.5 694.09,-189 684.09,-185.5 684.09,-192.5"/>
</g>
<!-- Node32 -->
<g id="node32" class="node">
<title>Node32</title>
<g id="a_node32"><a xlink:href="radio_8h.html#af56956a6b17dbdfc9fceedeb5a13cb71" target="_top" xlink:title=" ">
<polygon fill="white" stroke="#666666" points="649,-122.5 479,-122.5 479,-103.5 649,-103.5 649,-122.5"/>
<text text-anchor="middle" x="564" y="-110.5" font-family="Helvetica,sans-Serif" font-size="10.00">SendVersionNumberToAckPayload</text>
</a>
</g>
</g>
<!-- Node24&#45;&gt;Node32 -->
<g id="edge39" class="edge">
<title>Node24&#45;&gt;Node32</title>
<path fill="none" stroke="#63b8ff" d="M427.34,-179.01C432.74,-176.72 438.17,-174.05 443,-171 461.61,-159.25 459.87,-147.89 479,-137 486.33,-132.83 494.44,-129.33 502.65,-126.42"/>
<polygon fill="#63b8ff" stroke="#63b8ff" points="503.56,-129.8 511.99,-123.39 501.4,-123.15 503.56,-129.8"/>
</g>
<!-- Node26 -->
<g id="node26" class="node">
<title>Node26</title>
<g id="a_node26"><a xlink:href="radio_8h.html#ad21c5c00ff554736e4e21cee13773cd5" target="_top" xlink:title=" ">
<polygon fill="white" stroke="#666666" points="988,-179.5 845,-179.5 845,-160.5 988,-160.5 988,-179.5"/>
<text text-anchor="middle" x="916.5" y="-167.5" font-family="Helvetica,sans-Serif" font-size="10.00">CheckWhetherItsTimeToHop</text>
</a>
</g>
</g>
<!-- Node25&#45;&gt;Node26 -->
<g id="edge30" class="edge">
<title>Node25&#45;&gt;Node26</title>
<path fill="none" stroke="#63b8ff" d="M808.47,-157.86C816.52,-158.77 824.89,-159.72 833.23,-160.67"/>
<polygon fill="#63b8ff" stroke="#63b8ff" points="832.74,-164.13 843.07,-161.78 833.53,-157.18 832.74,-164.13"/>
</g>
<!-- Node27 -->
<g id="node27" class="node">
<title>Node27</title>
<g id="a_node27"><a xlink:href="radio_8h.html#ae913e02ff1fdfed85e4248ec648c1c6e" target="_top" xlink:title=" ">
<polygon fill="white" stroke="#666666" points="1124,-179.5 1024,-179.5 1024,-160.5 1124,-160.5 1124,-179.5"/>
<text text-anchor="middle" x="1074" y="-167.5" font-family="Helvetica,sans-Serif" font-size="10.00">IncChannelNumber</text>
</a>
</g>
</g>
<!-- Node26&#45;&gt;Node27 -->
<g id="edge31" class="edge">
<title>Node26&#45;&gt;Node27</title>
<path fill="none" stroke="#63b8ff" d="M988.42,-170C996.39,-170 1004.45,-170 1012.27,-170"/>
<polygon fill="#63b8ff" stroke="#63b8ff" points="1012,-173.5 1022,-170 1012,-166.5 1012,-173.5"/>
</g>
<!-- Node29 -->
<g id="node29" class="node">
<title>Node29</title>
<g id="a_node29"><a xlink:href="radio_8h.html#a5b9bcce29081b0c53837ecb90e0a6b33" target="_top" xlink:title=" ">
<polygon fill="white" stroke="#666666" points="803.5,-104.5 690.5,-104.5 690.5,-85.5 803.5,-85.5 803.5,-104.5"/>
<text text-anchor="middle" x="747" y="-92.5" font-family="Helvetica,sans-Serif" font-size="10.00">SendIntToAckPayload</text>
</a>
</g>
</g>
<!-- Node28&#45;&gt;Node29 -->
<g id="edge33" class="edge">
<title>Node28&#45;&gt;Node29</title>
<path fill="none" stroke="#63b8ff" d="M611.14,-80.84C631.75,-83.01 656.44,-85.6 679.02,-87.97"/>
<polygon fill="#63b8ff" stroke="#63b8ff" points="678.44,-91.43 688.75,-88.99 679.17,-84.47 678.44,-91.43"/>
</g>
<!-- Node29&#45;&gt;Node26 -->
<g id="edge34" class="edge">
<title>Node29&#45;&gt;Node26</title>
<path fill="none" stroke="#63b8ff" d="M770.24,-104.96C799.23,-117.94 850.13,-140.73 883.33,-155.59"/>
<polygon fill="#63b8ff" stroke="#63b8ff" points="881.49,-158.61 892.05,-159.5 884.35,-152.22 881.49,-158.61"/>
</g>
<!-- Node30&#45;&gt;Node26 -->
<g id="edge36" class="edge">
<title>Node30&#45;&gt;Node26</title>
<path fill="none" stroke="#63b8ff" d="M780.69,-217.09C789.87,-214.23 799.85,-211.06 809,-208 831.94,-200.34 857.46,-191.25 877.77,-183.89"/>
<polygon fill="#63b8ff" stroke="#63b8ff" points="878.85,-187.22 887.04,-180.51 876.45,-180.64 878.85,-187.22"/>
</g>
<!-- Node31&#45;&gt;Node26 -->
<g id="edge38" class="edge">
<title>Node31&#45;&gt;Node26</title>
<path fill="none" stroke="#63b8ff" d="M798.26,-183.3C809.28,-182.05 821.24,-180.69 833.15,-179.34"/>
<polygon fill="#63b8ff" stroke="#63b8ff" points="833.49,-182.83 843.03,-178.22 832.7,-175.87 833.49,-182.83"/>
</g>
<!-- Node34 -->
<g id="node34" class="node">
<title>Node34</title>
<g id="a_node34"><a xlink:href="radio_8h.html#a6feccc8c0583de3235616d42076f1371" target="_top" xlink:title=" ">
<polygon fill="white" stroke="#666666" points="599.5,-311.5 528.5,-311.5 528.5,-292.5 599.5,-292.5 599.5,-311.5"/>
<text text-anchor="middle" x="564" y="-299.5" font-family="Helvetica,sans-Serif" font-size="10.00">Decompress</text>
</a>
</g>
</g>
<!-- Node33&#45;&gt;Node34 -->
<g id="edge41" class="edge">
<title>Node33&#45;&gt;Node34</title>
<path fill="none" stroke="#63b8ff" d="M443.32,-302C466.26,-302 493.79,-302 516.65,-302"/>
<polygon fill="#63b8ff" stroke="#63b8ff" points="516.63,-305.5 526.63,-302 516.63,-298.5 516.63,-305.5"/>
</g>
<!-- Node35 -->
<g id="node35" class="node">
<title>Node35</title>
<g id="a_node35"><a xlink:href="radio_8h.html#a62ec0168b1eea5f5c14f663d9217574d" target="_top" xlink:title=" ">
<polygon fill="white" stroke="#666666" points="614.5,-274.5 513.5,-274.5 513.5,-255.5 614.5,-255.5 614.5,-274.5"/>
<text text-anchor="middle" x="564" y="-262.5" font-family="Helvetica,sans-Serif" font-size="10.00">HopToNextChannel</text>
</a>
</g>
</g>
<!-- Node33&#45;&gt;Node35 -->
<g id="edge42" class="edge">
<title>Node33&#45;&gt;Node35</title>
<path fill="none" stroke="#63b8ff" d="M441.12,-292.08C461.46,-287.56 485.76,-282.16 507.29,-277.38"/>
<polygon fill="#63b8ff" stroke="#63b8ff" points="507.78,-280.86 516.78,-275.27 506.26,-274.02 507.78,-280.86"/>
</g>
<!-- Node36 -->
<g id="node36" class="node">
<title>Node36</title>
<g id="a_node36"><a xlink:href="radio_8h.html#a6a495c5560f12cc3fd3df9454927d681" target="_top" xlink:title=" ">
<polygon fill="white" stroke="#666666" points="601,-385.5 527,-385.5 527,-366.5 601,-366.5 601,-385.5"/>
<text text-anchor="middle" x="564" y="-373.5" font-family="Helvetica,sans-Serif" font-size="10.00">MapToSBUS</text>
</a>
</g>
</g>
<!-- Node33&#45;&gt;Node36 -->
<g id="edge43" class="edge">
<title>Node33&#45;&gt;Node36</title>
<path fill="none" stroke="#63b8ff" d="M407.95,-311.91C423.14,-324.55 451.3,-346.17 479,-358 490.45,-362.89 503.36,-366.5 515.56,-369.16"/>
<polygon fill="#63b8ff" stroke="#63b8ff" points="514.53,-372.52 525.02,-371.03 515.89,-365.65 514.53,-372.52"/>
</g>
<!-- Node37 -->
<g id="node37" class="node">
<title>Node37</title>
<g id="a_node37"><a xlink:href="radio_8h.html#aa32bb7bf8c87f709d43192fcb0141b6e" target="_top" xlink:title=" ">
<polygon fill="white" stroke="#666666" points="619.5,-348.5 508.5,-348.5 508.5,-329.5 619.5,-329.5 619.5,-348.5"/>
<text text-anchor="middle" x="564" y="-336.5" font-family="Helvetica,sans-Serif" font-size="10.00">ReadMoreParameters</text>
</a>
</g>
</g>
<!-- Node33&#45;&gt;Node37 -->
<g id="edge44" class="edge">
<title>Node33&#45;&gt;Node37</title>
<path fill="none" stroke="#63b8ff" d="M439.29,-311.99C452.06,-314.93 466.09,-318.13 479,-321 487.3,-322.85 496.07,-324.76 504.69,-326.63"/>
<polygon fill="#63b8ff" stroke="#63b8ff" points="503.89,-330.03 514.4,-328.72 505.36,-323.19 503.89,-330.03"/>
</g>
<!-- Node38 -->
<g id="node38" class="node">
<title>Node38</title>
<g id="a_node38"><a xlink:href="ReceiverCode_2src_2main_8cpp.html#a6d87eba17154f7f4f2f3802ef8ee261f" target="_top" xlink:title=" ">
<polygon fill="white" stroke="#666666" points="766,-348.5 728,-348.5 728,-329.5 766,-329.5 766,-348.5"/>
<text text-anchor="middle" x="747" y="-336.5" font-family="Helvetica,sans-Serif" font-size="10.00">Look</text>
</a>
</g>
</g>
<!-- Node37&#45;&gt;Node38 -->
<g id="edge45" class="edge">
<title>Node37&#45;&gt;Node38</title>
<path fill="none" stroke="#63b8ff" d="M619.8,-339C651.59,-339 690.4,-339 716.51,-339"/>
<polygon fill="#63b8ff" stroke="#63b8ff" points="716.37,-342.5 726.37,-339 716.37,-335.5 716.37,-342.5"/>
</g>
<!-- Node40&#45;&gt;Node2 -->
<g id="edge48" class="edge">
<title>Node40&#45;&gt;Node2</title>
<path fill="none" stroke="#63b8ff" d="M288.97,-480.38C309.11,-474.77 335.49,-467.43 356.84,-461.48"/>
<polygon fill="#63b8ff" stroke="#63b8ff" points="357.64,-464.89 366.34,-458.84 355.76,-458.15 357.64,-464.89"/>
</g>
<!-- Node40&#45;&gt;Node16 -->
<g id="edge56" class="edge">
<title>Node40&#45;&gt;Node16</title>
<path fill="none" stroke="#63b8ff" d="M288.8,-494.52C297.24,-497.34 305.76,-501.59 312,-508 348.46,-545.47 312.48,-581.63 348,-620 348.97,-621.04 350,-622.03 351.08,-622.97"/>
<polygon fill="#63b8ff" stroke="#63b8ff" points="348.74,-625.61 358.99,-628.3 352.66,-619.81 348.74,-625.61"/>
</g>
<!-- Node40&#45;&gt;Node21 -->
<g id="edge55" class="edge">
<title>Node40&#45;&gt;Node21</title>
<path fill="none" stroke="#63b8ff" d="M288.83,-495.27C297.07,-498.09 305.49,-502.16 312,-508 339.53,-532.68 320.85,-557.9 348,-583 348.89,-583.82 349.82,-584.61 350.79,-585.36"/>
<polygon fill="#63b8ff" stroke="#63b8ff" points="348.6,-588.12 358.93,-590.43 352.29,-582.18 348.6,-588.12"/>
</g>
<!-- Node41 -->
<g id="node41" class="node">
<title>Node41</title>
<g id="a_node41"><a xlink:href="ReceiverCode_2src_2main_8cpp.html#a42318598726782ebb2e1857f167c8cda" target="_top" xlink:title=" ">
<polygon fill="white" stroke="#666666" points="422,-573.5 369,-573.5 369,-554.5 422,-554.5 422,-573.5"/>
<text text-anchor="middle" x="395.5" y="-561.5" font-family="Helvetica,sans-Serif" font-size="10.00">FailSafe</text>
</a>
</g>
</g>
<!-- Node40&#45;&gt;Node41 -->
<g id="edge49" class="edge">
<title>Node40&#45;&gt;Node41</title>
<path fill="none" stroke="#63b8ff" d="M288.89,-497.05C296.77,-499.85 305,-503.46 312,-508 331.52,-520.66 328.68,-533.04 348,-546 351.26,-548.19 354.83,-550.17 358.49,-551.94"/>
<polygon fill="#63b8ff" stroke="#63b8ff" points="356.92,-555.07 367.49,-555.8 359.68,-548.64 356.92,-555.07"/>
</g>
<!-- Node44 -->
<g id="node44" class="node">
<title>Node44</title>
<g id="a_node44"><a xlink:href="radio_8h.html#a62f1498f67d7e438905ae486bc27044f" target="_top" xlink:title=" ">
<polygon fill="white" stroke="#666666" points="426.5,-536.5 364.5,-536.5 364.5,-517.5 426.5,-517.5 426.5,-536.5"/>
<text text-anchor="middle" x="395.5" y="-524.5" font-family="Helvetica,sans-Serif" font-size="10.00">ProdRadio</text>
</a>
</g>
</g>
<!-- Node40&#45;&gt;Node44 -->
<g id="edge57" class="edge">
<title>Node40&#45;&gt;Node44</title>
<path fill="none" stroke="#63b8ff" d="M288.97,-497.62C307.96,-502.91 332.49,-509.74 353.12,-515.48"/>
<polygon fill="#63b8ff" stroke="#63b8ff" points="352.09,-518.83 362.66,-518.14 353.97,-512.08 352.09,-518.83"/>
</g>
<!-- Node46 -->
<g id="node46" class="node">
<title>Node46</title>
<g id="a_node46"><a xlink:href="radio_8h.html#a1208ef26dd460e6f5f56582f4fbfcf94" target="_top" xlink:title=" ">
<polygon fill="white" stroke="#666666" points="613,-499.5 515,-499.5 515,-480.5 613,-480.5 613,-499.5"/>
<text text-anchor="middle" x="564" y="-487.5" font-family="Helvetica,sans-Serif" font-size="10.00">TryToConnectNow</text>
</a>
</g>
</g>
<!-- Node40&#45;&gt;Node46 -->
<g id="edge61" class="edge">
<title>Node40&#45;&gt;Node46</title>
<path fill="none" stroke="#63b8ff" d="M288.92,-489.1C339.07,-489.27 438.99,-489.59 503.32,-489.8"/>
<polygon fill="#63b8ff" stroke="#63b8ff" points="502.98,-493.3 513,-489.84 503.01,-486.3 502.98,-493.3"/>
</g>
<!-- Node41&#45;&gt;Node3 -->
<g id="edge54" class="edge">
<title>Node41&#45;&gt;Node3</title>
<path fill="none" stroke="#63b8ff" d="M422.07,-572.26C429.16,-575.12 436.64,-578.71 443,-583 462.02,-595.83 458.19,-610.33 479,-620 551.83,-653.85 648.01,-650.66 702.82,-645.01"/>
<polygon fill="#63b8ff" stroke="#63b8ff" points="703.14,-648.49 712.69,-643.91 702.36,-641.54 703.14,-648.49"/>
</g>
<!-- Node41&#45;&gt;Node17 -->
<g id="edge52" class="edge">
<title>Node41&#45;&gt;Node17</title>
<path fill="none" stroke="#63b8ff" d="M422.02,-570.73C429.42,-573.6 437.09,-577.58 443,-583 468.79,-606.64 451.95,-630.81 479,-653 489.81,-661.87 503.73,-667.46 517.11,-670.99"/>
<polygon fill="#63b8ff" stroke="#63b8ff" points="516.15,-674.36 526.67,-673.16 517.7,-667.53 516.15,-674.36"/>
</g>
<!-- Node41&#45;&gt;Node36 -->
<g id="edge51" class="edge">
<title>Node41&#45;&gt;Node36</title>
<path fill="none" stroke="#63b8ff" d="M422.08,-557.94C429.48,-555.23 437.14,-551.39 443,-546 469.92,-521.24 458.78,-502.48 479,-472 498.57,-442.5 526.45,-412.41 544.63,-393.97"/>
<polygon fill="#63b8ff" stroke="#63b8ff" points="547.03,-396.52 551.63,-386.98 542.08,-391.57 547.03,-396.52"/>
</g>
<!-- Node42 -->
<g id="node42" class="node">
<title>Node42</title>
<g id="a_node42"><a xlink:href="ReceiverCode_2src_2main_8cpp.html#a7b232e8049c83655363495df07fc96d9" target="_top" xlink:title=" ">
<polygon fill="white" stroke="#666666" points="611.5,-610.5 516.5,-610.5 516.5,-591.5 611.5,-591.5 611.5,-610.5"/>
<text text-anchor="middle" x="564" y="-598.5" font-family="Helvetica,sans-Serif" font-size="10.00">LoadFailSafeData</text>
</a>
</g>
</g>
<!-- Node41&#45;&gt;Node42 -->
<g id="edge50" class="edge">
<title>Node41&#45;&gt;Node42</title>
<path fill="none" stroke="#63b8ff" d="M422.49,-570.09C438.72,-573.87 460.06,-578.79 479,-583 487.5,-584.89 496.48,-586.85 505.3,-588.76"/>
<polygon fill="#63b8ff" stroke="#63b8ff" points="504.33,-592.13 514.84,-590.81 505.8,-585.28 504.33,-592.13"/>
</g>
<!-- Node43 -->
<g id="node43" class="node">
<title>Node43</title>
<g id="a_node43"><a xlink:href="TransmitterCode_2src_2main_8cpp.html#a083c423be6ce1635de5961d0fc72ff06" target="_top" xlink:title=" ">
<polygon fill="white" stroke="#666666" points="613.5,-573.5 514.5,-573.5 514.5,-554.5 613.5,-554.5 613.5,-573.5"/>
<text text-anchor="middle" x="564" y="-561.5" font-family="Helvetica,sans-Serif" font-size="10.00">SetUKFrequencies</text>
</a>
</g>
</g>
<!-- Node41&#45;&gt;Node43 -->
<g id="edge53" class="edge">
<title>Node41&#45;&gt;Node43</title>
<path fill="none" stroke="#63b8ff" d="M422.15,-564C443.64,-564 475.16,-564 502.95,-564"/>
<polygon fill="#63b8ff" stroke="#63b8ff" points="502.67,-567.5 512.67,-564 502.67,-560.5 502.67,-567.5"/>
</g>
<!-- Node45 -->
<g id="node45" class="node">
<title>Node45</title>
<g id="a_node45"><a xlink:href="radio_8h.html#a3bb52983d9a2108589830301007bdce1" target="_top" xlink:title=" ">
<polygon fill="white" stroke="#666666" points="605,-536.5 523,-536.5 523,-517.5 605,-517.5 605,-536.5"/>
<text text-anchor="middle" x="564" y="-524.5" font-family="Helvetica,sans-Serif" font-size="10.00">ConfigureRadio</text>
</a>
</g>
</g>
<!-- Node44&#45;&gt;Node45 -->
<g id="edge58" class="edge">
<title>Node44&#45;&gt;Node45</title>
<path fill="none" stroke="#63b8ff" d="M426.65,-527C450.29,-527 483.73,-527 511.58,-527"/>
<polygon fill="#63b8ff" stroke="#63b8ff" points="511.22,-530.5 521.22,-527 511.22,-523.5 511.22,-530.5"/>
</g>
<!-- Node44&#45;&gt;Node46 -->
<g id="edge59" class="edge">
<title>Node44&#45;&gt;Node46</title>
<path fill="none" stroke="#63b8ff" d="M426.65,-520.3C448.96,-515.34 479.99,-508.45 506.81,-502.49"/>
<polygon fill="#63b8ff" stroke="#63b8ff" points="507.53,-505.91 516.53,-500.33 506.01,-499.08 507.53,-505.91"/>
</g>
<!-- Node46&#45;&gt;Node5 -->
<g id="edge60" class="edge">
<title>Node46&#45;&gt;Node5</title>
<path fill="none" stroke="#63b8ff" d="M577.6,-480.21C596.74,-464.54 632.64,-431.82 649,-395 706.94,-264.62 608.85,-196.65 685,-76 690.98,-66.52 700.27,-59.02 709.82,-53.27"/>
<polygon fill="#63b8ff" stroke="#63b8ff" points="711.27,-56.47 718.39,-48.63 707.93,-50.31 711.27,-56.47"/>
</g>
<!-- Node48&#45;&gt;Node23 -->
<g id="edge64" class="edge">
<title>Node48&#45;&gt;Node23</title>
<path fill="none" stroke="#63b8ff" d="M132.4,-273.14C148.2,-261.37 176.07,-241.57 202,-228 251.95,-201.87 312.97,-179.22 352.74,-165.61"/>
<polygon fill="#63b8ff" stroke="#63b8ff" points="353.83,-168.93 362.18,-162.41 351.58,-162.3 353.83,-168.93"/>
</g>
</g>
</svg>
