<?xml version="1.0" encoding="UTF-8" standalone="no"?>
<!DOCTYPE svg PUBLIC "-//W3C//DTD SVG 1.1//EN"
 "http://www.w3.org/Graphics/SVG/1.1/DTD/svg11.dtd">
<!-- Generated by graphviz version 7.0.5 (20221223.1930)
 -->
<!-- Title: KickTheDog Pages: 1 -->
<svg width="1560pt" height="570pt"
 viewBox="0.00 0.00 1560.00 569.50" xmlns="http://www.w3.org/2000/svg" xmlns:xlink="http://www.w3.org/1999/xlink">
<g id="graph0" class="graph" transform="scale(1 1) rotate(0) translate(4 565.5)">
<title>KickTheDog</title>
<!-- Node1 -->
<g id="node1" class="node">
<title>Node1</title>
<g id="a_node1"><a xlink:title=" ">
<polygon fill="#999999" stroke="#666666" points="1552,-170 1482,-170 1482,-151 1552,-151 1552,-170"/>
<text text-anchor="middle" x="1517" y="-158" font-family="Helvetica,sans-Serif" font-size="10.00">KickTheDog</text>
</a>
</g>
</g>
<!-- Node2 -->
<g id="node2" class="node">
<title>Node2</title>
<g id="a_node2"><a xlink:href="TransmitterCode_2src_2main_8cpp.html#a641d6dab68ec7b2a8a32492aac55bc1c" target="_top" xlink:title=" ">
<polygon fill="white" stroke="#666666" points="1446,-227 1341,-227 1341,-208 1446,-208 1446,-227"/>
<text text-anchor="middle" x="1393.5" y="-215" font-family="Helvetica,sans-Serif" font-size="10.00">GetBackupFilename</text>
</a>
</g>
</g>
<!-- Node1&#45;&gt;Node2 -->
<g id="edge1" class="edge">
<title>Node1&#45;&gt;Node2</title>
<path fill="none" stroke="#63b8ff" d="M1484.45,-175.3C1462.71,-185.5 1434.42,-198.77 1415.42,-207.69"/>
<polygon fill="#63b8ff" stroke="#63b8ff" points="1485.9,-178.49 1493.47,-171.07 1482.93,-172.15 1485.9,-178.49"/>
</g>
<!-- Node5 -->
<g id="node5" class="node">
<title>Node5</title>
<g id="a_node5"><a xlink:href="TransmitterCode_2src_2main_8cpp.html#a6506bf72e0dd9e9ce480156b47625bff" target="_top" xlink:title=" ">
<polygon fill="white" stroke="#666666" points="978.5,-300 892.5,-300 892.5,-281 978.5,-281 978.5,-300"/>
<text text-anchor="middle" x="935.5" y="-288" font-family="Helvetica,sans-Serif" font-size="10.00">GetConfirmation</text>
</a>
</g>
</g>
<!-- Node1&#45;&gt;Node5 -->
<g id="edge35" class="edge">
<title>Node1&#45;&gt;Node5</title>
<path fill="none" stroke="#63b8ff" d="M1504.21,-179.79C1492.05,-197.8 1471.32,-223.77 1446,-236.5 1364.35,-277.57 1085.47,-287.5 978.63,-289.82"/>
<polygon fill="#63b8ff" stroke="#63b8ff" points="1507.05,-181.84 1509.53,-171.53 1501.17,-178.04 1507.05,-181.84"/>
</g>
<!-- Node17 -->
<g id="node17" class="node">
<title>Node17</title>
<g id="a_node17"><a xlink:href="ModelExchange_8h.html#ab7c9edf843c732d7fe296564f39bc0dc" target="_top" xlink:title="RECEIVE A MODEL FILE.">
<polygon fill="white" stroke="#666666" points="832,-533 738,-533 738,-514 832,-514 832,-533"/>
<text text-anchor="middle" x="785" y="-521" font-family="Helvetica,sans-Serif" font-size="10.00">ReceiveModelFile</text>
</a>
</g>
</g>
<!-- Node1&#45;&gt;Node17 -->
<g id="edge39" class="edge">
<title>Node1&#45;&gt;Node17</title>
<path fill="none" stroke="#63b8ff" d="M1512.91,-181.56C1499.5,-264.15 1438.51,-561.5 1255.5,-561.5 1255.5,-561.5 1255.5,-561.5 1094,-561.5 1000.73,-561.5 977.36,-555.53 885,-542.5 867.67,-540.06 848.77,-536.62 832.18,-533.34"/>
<polygon fill="#63b8ff" stroke="#63b8ff" points="1516.33,-182.33 1514.41,-171.91 1509.42,-181.25 1516.33,-182.33"/>
</g>
<!-- Node20 -->
<g id="node20" class="node">
<title>Node20</title>
<g id="a_node20"><a xlink:href="TransmitterCode_2src_2main_8cpp.html#a5c7f22bae35d5d6df9d54fe79dbb8401" target="_top" xlink:title=" ">
<polygon fill="white" stroke="#666666" points="849,-124 721,-124 721,-105 849,-105 849,-124"/>
<text text-anchor="middle" x="785" y="-112" font-family="Helvetica,sans-Serif" font-size="10.00">ResetTransmitterSettings</text>
</a>
</g>
</g>
<!-- Node1&#45;&gt;Node20 -->
<g id="edge40" class="edge">
<title>Node1&#45;&gt;Node20</title>
<path fill="none" stroke="#63b8ff" d="M1470.57,-149.8C1418.81,-138.56 1331.56,-122.5 1255.5,-122.5 1255.5,-122.5 1255.5,-122.5 1094,-122.5 1009.35,-122.5 911.66,-119.44 849.4,-117.11"/>
<polygon fill="#63b8ff" stroke="#63b8ff" points="1469.68,-153.19 1480.2,-151.93 1471.19,-146.35 1469.68,-153.19"/>
</g>
<!-- Node23 -->
<g id="node23" class="node">
<title>Node23</title>
<g id="a_node23"><a xlink:href="TransmitterCode_2src_2main_8cpp.html#a558ea014e230b7caa54ce5a37ad29b22" target="_top" xlink:title=" ">
<polygon fill="white" stroke="#666666" points="986,-94 885,-94 885,-75 986,-75 986,-94"/>
<text text-anchor="middle" x="935.5" y="-82" font-family="Helvetica,sans-Serif" font-size="10.00">ManageTransmitter</text>
</a>
</g>
</g>
<!-- Node1&#45;&gt;Node23 -->
<g id="edge37" class="edge">
<title>Node1&#45;&gt;Node23</title>
<path fill="none" stroke="#63b8ff" d="M1498.59,-142.89C1485.4,-130.8 1466.16,-115.7 1446,-108.5 1286.09,-51.4 1079.88,-66.37 986.45,-77.49"/>
<polygon fill="#63b8ff" stroke="#63b8ff" points="1495.95,-145.21 1505.6,-149.59 1500.79,-140.15 1495.95,-145.21"/>
</g>
<!-- Node24 -->
<g id="node24" class="node">
<title>Node24</title>
<g id="a_node24"><a xlink:href="TransmitterCode_2src_2main_8cpp.html#a6f5b0f1e4ca75768c16c4dd93f92a8de" target="_top" xlink:title=" ">
<polygon fill="white" stroke="#666666" points="961.5,-246 909.5,-246 909.5,-227 961.5,-227 961.5,-246"/>
<text text-anchor="middle" x="935.5" y="-234" font-family="Helvetica,sans-Serif" font-size="10.00">MsgBox</text>
</a>
</g>
</g>
<!-- Node1&#45;&gt;Node24 -->
<g id="edge38" class="edge">
<title>Node1&#45;&gt;Node24</title>
<path fill="none" stroke="#63b8ff" d="M1470.34,-164.17C1382.92,-171.56 1186.01,-189.89 1022,-217.5 1001.61,-220.93 978.75,-226.08 961.8,-230.15"/>
<polygon fill="#63b8ff" stroke="#63b8ff" points="1470.51,-167.67 1480.18,-163.35 1469.92,-160.7 1470.51,-167.67"/>
</g>
<!-- Node26 -->
<g id="node26" class="node">
<title>Node26</title>
<g id="a_node26"><a xlink:href="ReceiverCode_2src_2main_8cpp.html#afe461d27b9c48d5921c00d521181f12f" target="_top" xlink:title=" ">
<polygon fill="white" stroke="#666666" points="1411,-56 1376,-56 1376,-37 1411,-37 1411,-56"/>
<text text-anchor="middle" x="1393.5" y="-44" font-family="Helvetica,sans-Serif" font-size="10.00">loop</text>
</a>
</g>
</g>
<!-- Node1&#45;&gt;Node26 -->
<g id="edge36" class="edge">
<title>Node1&#45;&gt;Node26</title>
<path fill="none" stroke="#63b8ff" d="M1504.57,-140.78C1492.22,-120.9 1470.95,-90.38 1446,-70.5 1435.66,-62.26 1422.04,-56.07 1411.4,-52.04"/>
<polygon fill="#63b8ff" stroke="#63b8ff" points="1501.54,-142.53 1509.69,-149.3 1507.54,-138.93 1501.54,-142.53"/>
</g>
<!-- Node27 -->
<g id="node27" class="node">
<title>Node27</title>
<g id="a_node27"><a xlink:href="ModelExchange_8h.html#a58c67a975068930341f0663e0a08c9d3" target="_top" xlink:title="SEND A MODEL FILE.">
<polygon fill="white" stroke="#666666" points="1434,-322 1353,-322 1353,-303 1434,-303 1434,-322"/>
<text text-anchor="middle" x="1393.5" y="-310" font-family="Helvetica,sans-Serif" font-size="10.00">SendModelFile</text>
</a>
</g>
</g>
<!-- Node1&#45;&gt;Node27 -->
<g id="edge41" class="edge">
<title>Node1&#45;&gt;Node27</title>
<path fill="none" stroke="#63b8ff" d="M1509.43,-180.86C1499.61,-208.48 1478.67,-257.86 1446,-288.5 1439.74,-294.37 1431.79,-299.02 1424.01,-302.61"/>
<polygon fill="#63b8ff" stroke="#63b8ff" points="1512.68,-182.19 1512.58,-171.6 1506.05,-179.94 1512.68,-182.19"/>
</g>
<!-- Node28 -->
<g id="node28" class="node">
<title>Node28</title>
<g id="a_node28"><a xlink:href="ReceiverCode_2src_2main_8cpp.html#a17699f358cf9f7c3155a9c5daf8ff13c" target="_top" xlink:title=" ">
<polygon fill="white" stroke="#666666" points="1414,-19 1373,-19 1373,0 1414,0 1414,-19"/>
<text text-anchor="middle" x="1393.5" y="-7" font-family="Helvetica,sans-Serif" font-size="10.00">setup</text>
</a>
</g>
</g>
<!-- Node1&#45;&gt;Node28 -->
<g id="edge43" class="edge">
<title>Node1&#45;&gt;Node28</title>
<path fill="none" stroke="#63b8ff" d="M1510.34,-139.67C1501.4,-110.57 1481.28,-57.91 1446,-27.5 1437.1,-19.83 1424.74,-15.37 1414.36,-12.81"/>
<polygon fill="#63b8ff" stroke="#63b8ff" points="1506.93,-140.49 1513.08,-149.11 1513.65,-138.54 1506.93,-140.49"/>
</g>
<!-- Node3 -->
<g id="node3" class="node">
<title>Node3</title>
<g id="a_node3"><a xlink:href="TransmitterCode_2src_2main_8cpp.html#a804fdbdd5eab4c596bbe8a23eecbe4d5" target="_top" xlink:title=" ">
<polygon fill="white" stroke="#666666" points="1305,-322 1204,-322 1204,-303 1305,-303 1305,-322"/>
<text text-anchor="middle" x="1254.5" y="-310" font-family="Helvetica,sans-Serif" font-size="10.00">ButtonWasPressed</text>
</a>
</g>
</g>
<!-- Node2&#45;&gt;Node3 -->
<g id="edge2" class="edge">
<title>Node2&#45;&gt;Node3</title>
<path fill="none" stroke="#63b8ff" d="M1368.84,-233.91C1340.28,-253.71 1293.18,-286.37 1269.71,-302.65"/>
<polygon fill="#63b8ff" stroke="#63b8ff" points="1370.63,-236.92 1376.85,-228.35 1366.64,-231.17 1370.63,-236.92"/>
</g>
<!-- Node18 -->
<g id="node18" class="node">
<title>Node18</title>
<g id="a_node18"><a xlink:href="TransmitterCode_2src_2main_8cpp.html#a9d94366336f1e5fd43edb9c24bec5821" target="_top" xlink:title=" ">
<polygon fill="white" stroke="#666666" points="819,-161 751,-161 751,-142 819,-142 819,-161"/>
<text text-anchor="middle" x="785" y="-149" font-family="Helvetica,sans-Serif" font-size="10.00">RenameFile</text>
</a>
</g>
</g>
<!-- Node2&#45;&gt;Node18 -->
<g id="edge34" class="edge">
<title>Node2&#45;&gt;Node18</title>
<path fill="none" stroke="#63b8ff" d="M1329.41,-210.63C1201.8,-196.75 916.9,-165.74 819.44,-155.14"/>
<polygon fill="#63b8ff" stroke="#63b8ff" points="1328.7,-214.08 1339.02,-211.68 1329.46,-207.12 1328.7,-214.08"/>
</g>
<!-- Node4 -->
<g id="node4" class="node">
<title>Node4</title>
<g id="a_node4"><a xlink:href="Utilities_8h.html#afb7c85cac4aa89fd998ed81c330374d2" target="_top" xlink:title=" ">
<polygon fill="white" stroke="#666666" points="1168,-246 1022,-246 1022,-227 1168,-227 1168,-246"/>
<text text-anchor="middle" x="1095" y="-234" font-family="Helvetica,sans-Serif" font-size="10.00">CheckForNextionButtonPress</text>
</a>
</g>
</g>
<!-- Node3&#45;&gt;Node4 -->
<g id="edge3" class="edge">
<title>Node3&#45;&gt;Node4</title>
<path fill="none" stroke="#63b8ff" d="M1222.56,-297.57C1191.21,-282.44 1143.6,-259.47 1116.6,-246.44"/>
<polygon fill="#63b8ff" stroke="#63b8ff" points="1221.02,-300.71 1231.55,-301.91 1224.06,-294.41 1221.02,-300.71"/>
</g>
<!-- Node3&#45;&gt;Node17 -->
<g id="edge33" class="edge">
<title>Node3&#45;&gt;Node17</title>
<path fill="none" stroke="#63b8ff" d="M1250.84,-333.75C1244.56,-373.91 1224.8,-460.44 1168,-499.5 1114.75,-536.11 921.91,-530.95 832.33,-526.35"/>
<polygon fill="#63b8ff" stroke="#63b8ff" points="1254.29,-334.34 1252.22,-323.95 1247.36,-333.36 1254.29,-334.34"/>
</g>
<!-- Node4&#45;&gt;Node2 -->
<g id="edge4" class="edge">
<title>Node4&#45;&gt;Node2</title>
<path fill="none" stroke="#63b8ff" d="M1179.43,-231.15C1231.17,-227.84 1296.03,-223.68 1340.51,-220.83"/>
<polygon fill="#63b8ff" stroke="#63b8ff" points="1179.53,-227.64 1169.78,-231.77 1179.98,-234.63 1179.53,-227.64"/>
</g>
<!-- Node4&#45;&gt;Node5 -->
<g id="edge5" class="edge">
<title>Node4&#45;&gt;Node5</title>
<path fill="none" stroke="#63b8ff" d="M1053.14,-250C1042.96,-253.39 1032.07,-257.05 1022,-260.5 1002.8,-267.07 981.24,-274.63 964.57,-280.53"/>
<polygon fill="#63b8ff" stroke="#63b8ff" points="1054.02,-253.39 1062.4,-246.91 1051.81,-246.75 1054.02,-253.39"/>
</g>
<!-- Node4&#45;&gt;Node23 -->
<g id="edge25" class="edge">
<title>Node4&#45;&gt;Node23</title>
<path fill="none" stroke="#63b8ff" d="M1075.65,-218.79C1042.28,-186.59 972.74,-119.48 946.67,-94.31"/>
<polygon fill="#63b8ff" stroke="#63b8ff" points="1072.95,-221.05 1082.58,-225.48 1077.81,-216.01 1072.95,-221.05"/>
</g>
<!-- Node4&#45;&gt;Node24 -->
<g id="edge27" class="edge">
<title>Node4&#45;&gt;Node24</title>
<path fill="none" stroke="#63b8ff" d="M1010.34,-236.5C992.58,-236.5 975.17,-236.5 961.71,-236.5"/>
<polygon fill="#63b8ff" stroke="#63b8ff" points="1010.19,-240 1020.19,-236.5 1010.19,-233 1010.19,-240"/>
</g>
<!-- Node5&#45;&gt;Node3 -->
<g id="edge6" class="edge">
<title>Node5&#45;&gt;Node3</title>
<path fill="none" stroke="#63b8ff" d="M990.43,-294.24C1050.14,-298.39 1145.59,-305.01 1203.62,-309.04"/>
<polygon fill="#63b8ff" stroke="#63b8ff" points="990.71,-290.75 980.5,-293.55 990.23,-297.74 990.71,-290.75"/>
</g>
<!-- Node6 -->
<g id="node6" class="node">
<title>Node6</title>
<g id="a_node6"><a xlink:href="TransmitterCode_2src_2main_8cpp.html#ac45477c637c975e13189e2988c8813b3" target="_top" xlink:title=" ">
<polygon fill="white" stroke="#666666" points="825,-235 745,-235 745,-216 825,-216 825,-235"/>
<text text-anchor="middle" x="785" y="-223" font-family="Helvetica,sans-Serif" font-size="10.00">DeleteModelID</text>
</a>
</g>
</g>
<!-- Node5&#45;&gt;Node6 -->
<g id="edge7" class="edge">
<title>Node5&#45;&gt;Node6</title>
<path fill="none" stroke="#63b8ff" d="M909.03,-275.05C892.36,-265.38 869.89,-253.17 849,-244.5 840.87,-241.13 831.94,-238.07 823.41,-235.43"/>
<polygon fill="#63b8ff" stroke="#63b8ff" points="906.89,-277.85 917.28,-279.91 910.44,-271.82 906.89,-277.85"/>
</g>
<!-- Node7 -->
<g id="node7" class="node">
<title>Node7</title>
<g id="a_node7"><a xlink:href="TransmitterCode_2src_2main_8cpp.html#a53d438145d004c3b053f245f494f4284" target="_top" xlink:title=" ">
<polygon fill="white" stroke="#666666" points="811,-420 759,-420 759,-401 811,-401 811,-420"/>
<text text-anchor="middle" x="785" y="-408" font-family="Helvetica,sans-Serif" font-size="10.00">DelLOG</text>
</a>
</g>
</g>
<!-- Node5&#45;&gt;Node7 -->
<g id="edge8" class="edge">
<title>Node5&#45;&gt;Node7</title>
<path fill="none" stroke="#63b8ff" d="M923.21,-310.03C908.86,-333.12 881.96,-371.1 849,-392.5 837.74,-399.81 823.48,-404.2 811.37,-406.82"/>
<polygon fill="#63b8ff" stroke="#63b8ff" points="926.12,-311.98 928.27,-301.6 920.12,-308.37 926.12,-311.98"/>
</g>
<!-- Node8 -->
<g id="node8" class="node">
<title>Node8</title>
<g id="a_node8"><a xlink:href="TransmitterCode_2src_2main_8cpp.html#a16c65917a148c7f6c17babf11e977b69" target="_top" xlink:title=" ">
<polygon fill="white" stroke="#666666" points="826,-383 744,-383 744,-364 826,-364 826,-383"/>
<text text-anchor="middle" x="785" y="-371" font-family="Helvetica,sans-Serif" font-size="10.00">EndBuddyView</text>
</a>
</g>
</g>
<!-- Node5&#45;&gt;Node8 -->
<g id="edge9" class="edge">
<title>Node5&#45;&gt;Node8</title>
<path fill="none" stroke="#63b8ff" d="M916.14,-307.72C899.69,-322.31 874.32,-342.82 849,-355.5 841.88,-359.06 833.94,-362.03 826.17,-364.45"/>
<polygon fill="#63b8ff" stroke="#63b8ff" points="918.13,-310.64 923.18,-301.33 913.42,-305.46 918.13,-310.64"/>
</g>
<!-- Node9 -->
<g id="node9" class="node">
<title>Node9</title>
<g id="a_node9"><a xlink:href="ModelMatch_8h.html#afdd42b1130d38073be1c2025af855879" target="_top" xlink:title=" ">
<polygon fill="white" stroke="#666666" points="819.5,-198 750.5,-198 750.5,-179 819.5,-179 819.5,-198"/>
<text text-anchor="middle" x="785" y="-186" font-family="Helvetica,sans-Serif" font-size="10.00">IDNotFound</text>
</a>
</g>
</g>
<!-- Node5&#45;&gt;Node9 -->
<g id="edge10" class="edge">
<title>Node5&#45;&gt;Node9</title>
<path fill="none" stroke="#63b8ff" d="M908.3,-274.31C900.39,-268.83 891.97,-262.34 885,-255.5 865.72,-236.57 871.18,-221.93 849,-206.5 840.41,-200.52 829.86,-196.52 819.86,-193.84"/>
<polygon fill="#63b8ff" stroke="#63b8ff" points="906.36,-277.22 916.63,-279.83 910.23,-271.39 906.36,-277.22"/>
</g>
<!-- Node16 -->
<g id="node16" class="node">
<title>Node16</title>
<g id="a_node16"><a xlink:href="TransmitterCode_2src_2main_8cpp.html#ae9f91b9da28f2e1e2fb126961f03c31c" target="_top" xlink:title=" ">
<polygon fill="white" stroke="#666666" points="825.5,-346 744.5,-346 744.5,-327 825.5,-327 825.5,-346"/>
<text text-anchor="middle" x="785" y="-334" font-family="Helvetica,sans-Serif" font-size="10.00">ModelViewEnd</text>
</a>
</g>
</g>
<!-- Node5&#45;&gt;Node16 -->
<g id="edge18" class="edge">
<title>Node5&#45;&gt;Node16</title>
<path fill="none" stroke="#63b8ff" d="M893.99,-304.12C879.8,-308.79 863.73,-313.99 849,-318.5 840.19,-321.2 830.65,-323.99 821.72,-326.55"/>
<polygon fill="#63b8ff" stroke="#63b8ff" points="895.08,-307.44 903.48,-300.97 892.88,-300.8 895.08,-307.44"/>
</g>
<!-- Node5&#45;&gt;Node17 -->
<g id="edge19" class="edge">
<title>Node5&#45;&gt;Node17</title>
<path fill="none" stroke="#63b8ff" d="M927.52,-310.92C915.16,-345.23 887.12,-415.7 849,-466.5 834.75,-485.49 813.5,-503.14 799.7,-513.62"/>
<polygon fill="#63b8ff" stroke="#63b8ff" points="930.7,-312.4 930.72,-301.8 924.1,-310.08 930.7,-312.4"/>
</g>
<!-- Node5&#45;&gt;Node18 -->
<g id="edge20" class="edge">
<title>Node5&#45;&gt;Node18</title>
<path fill="none" stroke="#63b8ff" d="M906.17,-274.51C898.56,-269.21 890.83,-262.77 885,-255.5 859.08,-223.17 879.98,-197.02 849,-169.5 840.84,-162.25 829.94,-157.9 819.5,-155.31"/>
<polygon fill="#63b8ff" stroke="#63b8ff" points="904.02,-277.29 914.32,-279.77 907.82,-271.41 904.02,-277.29"/>
</g>
<!-- Node19 -->
<g id="node19" class="node">
<title>Node19</title>
<g id="a_node19"><a xlink:href="TransmitterCode_2src_2main_8cpp.html#a75875d66db3193e4034c3768c175f8ef" target="_top" xlink:title=" ">
<polygon fill="white" stroke="#666666" points="818.5,-272 751.5,-272 751.5,-253 818.5,-253 818.5,-272"/>
<text text-anchor="middle" x="785" y="-260" font-family="Helvetica,sans-Serif" font-size="10.00">ResetClock</text>
</a>
</g>
</g>
<!-- Node5&#45;&gt;Node19 -->
<g id="edge21" class="edge">
<title>Node5&#45;&gt;Node19</title>
<path fill="none" stroke="#63b8ff" d="M881.07,-280.43C860.26,-276.5 837.08,-272.13 818.82,-268.69"/>
<polygon fill="#63b8ff" stroke="#63b8ff" points="880.38,-283.86 890.86,-282.27 881.68,-276.98 880.38,-283.86"/>
</g>
<!-- Node5&#45;&gt;Node20 -->
<g id="edge22" class="edge">
<title>Node5&#45;&gt;Node20</title>
<path fill="none" stroke="#63b8ff" d="M905.27,-274.66C897.77,-269.41 890.33,-262.97 885,-255.5 851.9,-209.14 889.41,-172.65 849,-132.5 845.77,-129.29 842.02,-126.65 837.97,-124.47"/>
<polygon fill="#63b8ff" stroke="#63b8ff" points="903.05,-277.39 913.36,-279.84 906.83,-271.5 903.05,-277.39"/>
</g>
<!-- Node21 -->
<g id="node21" class="node">
<title>Node21</title>
<g id="a_node21"><a xlink:href="TransmitterCode_2src_2main_8cpp.html#a3838aa0b33bb22d3b9934da05d2716d8" target="_top" xlink:title=" ">
<polygon fill="white" stroke="#666666" points="823,-309 747,-309 747,-290 823,-290 823,-309"/>
<text text-anchor="middle" x="785" y="-297" font-family="Helvetica,sans-Serif" font-size="10.00">StoreModelID</text>
</a>
</g>
</g>
<!-- Node5&#45;&gt;Node21 -->
<g id="edge23" class="edge">
<title>Node5&#45;&gt;Node21</title>
<path fill="none" stroke="#63b8ff" d="M881.03,-293.74C861.86,-294.9 840.69,-296.19 823.2,-297.25"/>
<polygon fill="#63b8ff" stroke="#63b8ff" points="881.06,-297.25 890.83,-293.15 880.64,-290.26 881.06,-297.25"/>
</g>
<!-- Node22 -->
<g id="node22" class="node">
<title>Node22</title>
<g id="a_node22"><a xlink:href="TransmitterCode_2src_2main_8cpp.html#a3c55ef7c23759a89a86f6519569c4f7a" target="_top" xlink:title=" ">
<polygon fill="white" stroke="#666666" points="834.5,-457 735.5,-457 735.5,-438 834.5,-438 834.5,-457"/>
<text text-anchor="middle" x="785" y="-445" font-family="Helvetica,sans-Serif" font-size="10.00">TXModuleViewEnd</text>
</a>
</g>
</g>
<!-- Node5&#45;&gt;Node22 -->
<g id="edge24" class="edge">
<title>Node5&#45;&gt;Node22</title>
<path fill="none" stroke="#63b8ff" d="M927.47,-310.89C915.93,-341.32 890.05,-398.37 849,-429.5 844.74,-432.73 839.92,-435.38 834.89,-437.56"/>
<polygon fill="#63b8ff" stroke="#63b8ff" points="930.68,-312.32 930.8,-301.72 924.09,-309.93 930.68,-312.32"/>
</g>
<!-- Node10 -->
<g id="node10" class="node">
<title>Node10</title>
<g id="a_node10"><a xlink:href="ModelMatch_8h.html#af8fe429ceb65bf9d257a2a0f1c63eccb" target="_top" xlink:title=" ">
<polygon fill="white" stroke="#666666" points="685,-198 583,-198 583,-179 685,-179 685,-198"/>
<text text-anchor="middle" x="634" y="-186" font-family="Helvetica,sans-Serif" font-size="10.00">CompareModelsIDs</text>
</a>
</g>
</g>
<!-- Node9&#45;&gt;Node10 -->
<g id="edge11" class="edge">
<title>Node9&#45;&gt;Node10</title>
<path fill="none" stroke="#63b8ff" d="M738.93,-188.5C722.03,-188.5 702.72,-188.5 685.37,-188.5"/>
<polygon fill="#63b8ff" stroke="#63b8ff" points="738.68,-192 748.68,-188.5 738.68,-185 738.68,-192"/>
</g>
<!-- Node11 -->
<g id="node11" class="node">
<title>Node11</title>
<g id="a_node11"><a xlink:href="ModelMatch_8h.html#a494cb4acb30856d1f53f08df1b80c41b" target="_top" xlink:title=" ">
<polygon fill="white" stroke="#666666" points="547,-198 428,-198 428,-179 547,-179 547,-198"/>
<text text-anchor="middle" x="487.5" y="-186" font-family="Helvetica,sans-Serif" font-size="10.00">GetModelsMacAddress</text>
</a>
</g>
</g>
<!-- Node10&#45;&gt;Node11 -->
<g id="edge12" class="edge">
<title>Node10&#45;&gt;Node11</title>
<path fill="none" stroke="#63b8ff" d="M571.42,-188.5C563.48,-188.5 555.37,-188.5 547.49,-188.5"/>
<polygon fill="#63b8ff" stroke="#63b8ff" points="571.35,-192 581.35,-188.5 571.35,-185 571.35,-192"/>
</g>
<!-- Node12 -->
<g id="node12" class="node">
<title>Node12</title>
<g id="a_node12"><a xlink:href="TransmitterCode_2src_2main_8cpp.html#a694f4f5a0147f4dc29b0bc1a8951547d" target="_top" xlink:title=" ">
<polygon fill="white" stroke="#666666" points="392,-198 298,-198 298,-179 392,-179 392,-198"/>
<text text-anchor="middle" x="345" y="-186" font-family="Helvetica,sans-Serif" font-size="10.00">ParseAckPayload</text>
</a>
</g>
</g>
<!-- Node11&#45;&gt;Node12 -->
<g id="edge13" class="edge">
<title>Node11&#45;&gt;Node12</title>
<path fill="none" stroke="#63b8ff" d="M416.22,-188.5C408.05,-188.5 399.87,-188.5 392.14,-188.5"/>
<polygon fill="#63b8ff" stroke="#63b8ff" points="416.22,-192 426.22,-188.5 416.22,-185 416.22,-192"/>
</g>
<!-- Node13 -->
<g id="node13" class="node">
<title>Node13</title>
<g id="a_node13"><a xlink:href="transceiver_8h.html#a1c11bb6771548de7d96723045b922620" target="_top" xlink:title=" ">
<polygon fill="white" stroke="#666666" points="262,-198 166,-198 166,-179 262,-179 262,-198"/>
<text text-anchor="middle" x="214" y="-186" font-family="Helvetica,sans-Serif" font-size="10.00">SuccessfulPacket</text>
</a>
</g>
</g>
<!-- Node12&#45;&gt;Node13 -->
<g id="edge14" class="edge">
<title>Node12&#45;&gt;Node13</title>
<path fill="none" stroke="#63b8ff" d="M286.47,-188.5C278.35,-188.5 270.08,-188.5 262.19,-188.5"/>
<polygon fill="#63b8ff" stroke="#63b8ff" points="286.28,-192 296.28,-188.5 286.28,-185 286.28,-192"/>
</g>
<!-- Node14 -->
<g id="node14" class="node">
<title>Node14</title>
<g id="a_node14"><a xlink:href="transceiver_8h.html#a049bfb836e7aa4a3a48a1a4bd225fafc" target="_top" xlink:title=" ">
<polygon fill="white" stroke="#666666" points="130,-198 71,-198 71,-179 130,-179 130,-198"/>
<text text-anchor="middle" x="100.5" y="-186" font-family="Helvetica,sans-Serif" font-size="10.00">SendData</text>
</a>
</g>
</g>
<!-- Node13&#45;&gt;Node14 -->
<g id="edge15" class="edge">
<title>Node13&#45;&gt;Node14</title>
<path fill="none" stroke="#63b8ff" d="M154.39,-188.5C146.07,-188.5 137.83,-188.5 130.43,-188.5"/>
<polygon fill="#63b8ff" stroke="#63b8ff" points="154.2,-192 164.2,-188.5 154.2,-185 154.2,-192"/>
</g>
<!-- Node14&#45;&gt;Node3 -->
<g id="edge16" class="edge">
<title>Node14&#45;&gt;Node3</title>
<path fill="none" stroke="#63b8ff" d="M107.26,-209.25C127.36,-276.71 201.12,-485.5 344,-485.5 936.5,-485.5 936.5,-485.5 936.5,-485.5 1073.81,-485.5 1208.18,-358.89 1244.15,-322.3"/>
<polygon fill="#63b8ff" stroke="#63b8ff" points="110.67,-208.47 104.54,-199.84 103.95,-210.41 110.67,-208.47"/>
</g>
<!-- Node15 -->
<g id="node15" class="node">
<title>Node15</title>
<g id="a_node15"><a xlink:href="TransmitterCode_2src_2main_8cpp.html#ad3cb30894c94eb016e98bdcaa899ac86" target="_top" xlink:title=" ">
<polygon fill="white" stroke="#666666" points="35,-123 0,-123 0,-104 35,-104 35,-123"/>
<text text-anchor="middle" x="17.5" y="-111" font-family="Helvetica,sans-Serif" font-size="10.00">loop</text>
</a>
</g>
</g>
<!-- Node14&#45;&gt;Node15 -->
<g id="edge17" class="edge">
<title>Node14&#45;&gt;Node15</title>
<path fill="none" stroke="#63b8ff" d="M80.76,-171.15C64.72,-156.3 42.19,-135.44 29.09,-123.31"/>
<polygon fill="#63b8ff" stroke="#63b8ff" points="78.08,-173.44 87.8,-177.67 82.84,-168.3 78.08,-173.44"/>
</g>
<!-- Node23&#45;&gt;Node15 -->
<g id="edge26" class="edge">
<title>Node23&#45;&gt;Node15</title>
<path fill="none" stroke="#63b8ff" d="M896.45,-71.09C881.79,-66.41 864.78,-61.57 849,-58.5 755.27,-40.29 730.49,-39.5 635,-39.5 635,-39.5 635,-39.5 213,-39.5 141.83,-39.5 65.01,-83.32 33.39,-103.52"/>
<polygon fill="#63b8ff" stroke="#63b8ff" points="895.11,-74.33 905.7,-74.13 897.3,-67.68 895.11,-74.33"/>
</g>
<!-- Node24&#45;&gt;Node6 -->
<g id="edge28" class="edge">
<title>Node24&#45;&gt;Node6</title>
<path fill="none" stroke="#63b8ff" d="M898.07,-233.8C876.01,-232.17 847.87,-230.08 825.31,-228.41"/>
<polygon fill="#63b8ff" stroke="#63b8ff" points="897.57,-237.27 907.8,-234.52 898.09,-230.29 897.57,-237.27"/>
</g>
<!-- Node24&#45;&gt;Node9 -->
<g id="edge29" class="edge">
<title>Node24&#45;&gt;Node9</title>
<path fill="none" stroke="#63b8ff" d="M898.65,-223.39C883.41,-217.96 865.41,-211.72 849,-206.5 839.57,-203.5 829.27,-200.46 819.79,-197.76"/>
<polygon fill="#63b8ff" stroke="#63b8ff" points="897.17,-226.58 907.77,-226.67 899.54,-219.99 897.17,-226.58"/>
</g>
<!-- Node24&#45;&gt;Node19 -->
<g id="edge30" class="edge">
<title>Node24&#45;&gt;Node19</title>
<path fill="none" stroke="#63b8ff" d="M898.08,-242.88C873.86,-247.12 842.32,-252.64 818.87,-256.74"/>
<polygon fill="#63b8ff" stroke="#63b8ff" points="898.57,-246.34 907.82,-241.17 897.36,-239.45 898.57,-246.34"/>
</g>
<!-- Node24&#45;&gt;Node21 -->
<g id="edge32" class="edge">
<title>Node24&#45;&gt;Node21</title>
<path fill="none" stroke="#63b8ff" d="M908.72,-251.86C892.09,-261.32 869.76,-273.18 849,-281.5 840.87,-284.76 831.93,-287.69 823.41,-290.19"/>
<polygon fill="#63b8ff" stroke="#63b8ff" points="910.05,-255.13 916.96,-247.1 906.55,-249.07 910.05,-255.13"/>
</g>
<!-- Node25 -->
<g id="node25" class="node">
<title>Node25</title>
<g id="a_node25"><a xlink:href="ModelExchange_8h.html#ac36bdea2efcd030a336293af16f5dc09" target="_top" xlink:title=" ">
<polygon fill="white" stroke="#666666" points="827.5,-87 742.5,-87 742.5,-68 827.5,-68 827.5,-87"/>
<text text-anchor="middle" x="785" y="-75" font-family="Helvetica,sans-Serif" font-size="10.00">ShowRemoteID</text>
</a>
</g>
</g>
<!-- Node24&#45;&gt;Node25 -->
<g id="edge31" class="edge">
<title>Node24&#45;&gt;Node25</title>
<path fill="none" stroke="#63b8ff" d="M927.55,-215.82C916.12,-184.95 890.38,-127.09 849,-95.5 842.76,-90.74 835.31,-87.23 827.75,-84.66"/>
<polygon fill="#63b8ff" stroke="#63b8ff" points="924.21,-216.87 930.85,-225.13 930.81,-214.54 924.21,-216.87"/>
</g>
<!-- Node27&#45;&gt;Node3 -->
<g id="edge42" class="edge">
<title>Node27&#45;&gt;Node3</title>
<path fill="none" stroke="#63b8ff" d="M1341.02,-312.5C1329.24,-312.5 1316.73,-312.5 1305.04,-312.5"/>
<polygon fill="#63b8ff" stroke="#63b8ff" points="1340.99,-316 1350.99,-312.5 1340.99,-309 1340.99,-316"/>
</g>
</g>
</svg>
