<?xml version="1.0" encoding="UTF-8" standalone="no"?>
<!DOCTYPE svg PUBLIC "-//W3C//DTD SVG 1.1//EN"
 "http://www.w3.org/Graphics/SVG/1.1/DTD/svg11.dtd">
<!-- Generated by graphviz version 7.0.5 (20221223.1930)
 -->
<!-- Title: BindModel Pages: 1 -->
<svg width="1168pt" height="679pt"
 viewBox="0.00 0.00 1168.00 679.00" xmlns="http://www.w3.org/2000/svg" xmlns:xlink="http://www.w3.org/1999/xlink">
<g id="graph0" class="graph" transform="scale(1 1) rotate(0) translate(4 675)">
<title>BindModel</title>
<!-- Node1 -->
<g id="node1" class="node">
<title>Node1</title>
<g id="a_node1"><a xlink:title=" ">
<polygon fill="#999999" stroke="#666666" points="62,-447 0,-447 0,-428 62,-428 62,-447"/>
<text text-anchor="middle" x="31" y="-435" font-family="Helvetica,sans-Serif" font-size="10.00">BindModel</text>
</a>
</g>
</g>
<!-- Node2 -->
<g id="node2" class="node">
<title>Node2</title>
<g id="a_node2"><a xlink:href="ReceiverCode_2src_2main_8cpp.html#a0cbfd712ab3bd8f654bc19400fd704bd" target="_top" xlink:title=" ">
<polygon fill="white" stroke="#666666" points="174,-549 98,-549 98,-530 174,-530 174,-549"/>
<text text-anchor="middle" x="136" y="-537" font-family="Helvetica,sans-Serif" font-size="10.00">AttachServos</text>
</a>
</g>
</g>
<!-- Node1&#45;&gt;Node2 -->
<g id="edge1" class="edge">
<title>Node1&#45;&gt;Node2</title>
<path fill="none" stroke="#63b8ff" d="M41.88,-447.28C59.14,-464.37 95.02,-499.91 116.86,-521.54"/>
<polygon fill="#63b8ff" stroke="#63b8ff" points="114.36,-523.98 123.93,-528.53 119.28,-519.01 114.36,-523.98"/>
</g>
<!-- Node5 -->
<g id="node5" class="node">
<title>Node5</title>
<g id="a_node5"><a xlink:href="ReceiverCode_2src_2main_8cpp.html#a06807a4f185694d37f774702ba74db0a" target="_top" xlink:title=" ">
<polygon fill="white" stroke="#666666" points="172,-447 100,-447 100,-428 172,-428 172,-447"/>
<text text-anchor="middle" x="136" y="-435" font-family="Helvetica,sans-Serif" font-size="10.00">ReceiveData</text>
</a>
</g>
</g>
<!-- Node1&#45;&gt;Node5 -->
<g id="edge4" class="edge">
<title>Node1&#45;&gt;Node5</title>
<path fill="none" stroke="#63b8ff" d="M62.35,-437.5C70.52,-437.5 79.54,-437.5 88.38,-437.5"/>
<polygon fill="#63b8ff" stroke="#63b8ff" points="88.28,-441 98.28,-437.5 88.28,-434 88.28,-441"/>
</g>
<!-- Node41 -->
<g id="node41" class="node">
<title>Node41</title>
<g id="a_node41"><a xlink:href="radio_8h.html#a6f54969e66375decc44723b141b78766" target="_top" xlink:title=" ">
<polygon fill="white" stroke="#666666" points="171.5,-410 100.5,-410 100.5,-391 171.5,-391 171.5,-410"/>
<text text-anchor="middle" x="136" y="-398" font-family="Helvetica,sans-Serif" font-size="10.00">SetNewPipe</text>
</a>
</g>
</g>
<!-- Node1&#45;&gt;Node41 -->
<g id="edge50" class="edge">
<title>Node1&#45;&gt;Node41</title>
<path fill="none" stroke="#63b8ff" d="M59.6,-427.58C71.03,-423.48 84.48,-418.65 96.83,-414.21"/>
<polygon fill="#63b8ff" stroke="#63b8ff" points="97.67,-417.63 105.9,-410.95 95.3,-411.04 97.67,-417.63"/>
</g>
<!-- Node3 -->
<g id="node3" class="node">
<title>Node3</title>
<g id="a_node3"><a xlink:href="classSBUS.html#a5c2fccbffff0bd17ed522529fd6b2d8f" target="_top" xlink:title=" ">
<polygon fill="white" stroke="#666666" points="301.5,-614 229.5,-614 229.5,-595 301.5,-595 301.5,-614"/>
<text text-anchor="middle" x="265.5" y="-602" font-family="Helvetica,sans-Serif" font-size="10.00">SBUS::begin</text>
</a>
</g>
</g>
<!-- Node2&#45;&gt;Node3 -->
<g id="edge2" class="edge">
<title>Node2&#45;&gt;Node3</title>
<path fill="none" stroke="#63b8ff" d="M156.36,-549.37C177.24,-560.01 210.72,-577.08 234.9,-589.41"/>
<polygon fill="#63b8ff" stroke="#63b8ff" points="233.11,-592.42 243.6,-593.85 236.29,-586.19 233.11,-592.42"/>
</g>
<!-- Node4 -->
<g id="node4" class="node">
<title>Node4</title>
<g id="a_node4"><a xlink:href="classSBUS.html#a58a6caab31090f4019d4f2439ab20fc2" target="_top" xlink:title=" ">
<polygon fill="white" stroke="#666666" points="471.5,-671 364.5,-671 364.5,-652 471.5,-652 471.5,-671"/>
<text text-anchor="middle" x="418" y="-659" font-family="Helvetica,sans-Serif" font-size="10.00">SBUS::setEndPoints</text>
</a>
</g>
</g>
<!-- Node3&#45;&gt;Node4 -->
<g id="edge3" class="edge">
<title>Node3&#45;&gt;Node4</title>
<path fill="none" stroke="#63b8ff" d="M292.72,-614.43C316.92,-623.6 353.11,-637.3 380.21,-647.57"/>
<polygon fill="#63b8ff" stroke="#63b8ff" points="378.83,-650.78 389.42,-651.05 381.31,-644.24 378.83,-650.78"/>
</g>
<!-- Node6 -->
<g id="node6" class="node">
<title>Node6</title>
<g id="a_node6"><a xlink:href="radio_8h.html#a6f74cdb7b32a3aa9e9342661bd44ad1a" target="_top" xlink:title=" ">
<polygon fill="white" stroke="#666666" points="462.5,-483 373.5,-483 373.5,-464 462.5,-464 462.5,-483"/>
<text text-anchor="middle" x="418" y="-471" font-family="Helvetica,sans-Serif" font-size="10.00">KeepSbusHappy</text>
</a>
</g>
</g>
<!-- Node5&#45;&gt;Node6 -->
<g id="edge5" class="edge">
<title>Node5&#45;&gt;Node6</title>
<path fill="none" stroke="#63b8ff" d="M162.21,-427.51C198.71,-414.66 267.74,-396.44 321,-418.5 341.91,-427.16 337.66,-442.75 357,-454.5 359.8,-456.2 362.77,-457.77 365.83,-459.2"/>
<polygon fill="#63b8ff" stroke="#63b8ff" points="364.48,-462.43 375.06,-463.02 367.16,-455.96 364.48,-462.43"/>
</g>
<!-- Node9 -->
<g id="node9" class="node">
<title>Node9</title>
<g id="a_node9"><a xlink:href="ReceiverCode_2src_2main_8cpp.html#a07ca94db0e305e9c01ec51e417576308" target="_top" xlink:title=" ">
<polygon fill="white" stroke="#666666" points="295,-336 236,-336 236,-317 295,-317 295,-336"/>
<text text-anchor="middle" x="265.5" y="-324" font-family="Helvetica,sans-Serif" font-size="10.00">ReadData</text>
</a>
</g>
</g>
<!-- Node5&#45;&gt;Node9 -->
<g id="edge8" class="edge">
<title>Node5&#45;&gt;Node9</title>
<path fill="none" stroke="#63b8ff" d="M159.21,-427.56C164.25,-424.9 169.46,-421.84 174,-418.5 189.86,-406.84 226.57,-367.86 248.05,-344.54"/>
<polygon fill="#63b8ff" stroke="#63b8ff" points="250.51,-347.04 254.69,-337.3 245.35,-342.31 250.51,-347.04"/>
</g>
<!-- Node24 -->
<g id="node24" class="node">
<title>Node24</title>
<g id="a_node24"><a xlink:href="ReceiverCode_2src_2main_8cpp.html#a6c490ef42e364f8bb1430c436e86c9c0" target="_top" xlink:title=" ">
<polygon fill="white" stroke="#666666" points="321,-112 210,-112 210,-93 321,-93 321,-112"/>
<text text-anchor="middle" x="265.5" y="-100" font-family="Helvetica,sans-Serif" font-size="10.00">ReadExtraParameters</text>
</a>
</g>
</g>
<!-- Node5&#45;&gt;Node24 -->
<g id="edge26" class="edge">
<title>Node5&#45;&gt;Node24</title>
<path fill="none" stroke="#63b8ff" d="M162.89,-427.72C167.05,-425.23 170.97,-422.18 174,-418.5 183.74,-406.64 241.01,-191.59 259.06,-123.2"/>
<polygon fill="#63b8ff" stroke="#63b8ff" points="262.4,-124.25 261.56,-113.68 255.63,-122.46 262.4,-124.25"/>
</g>
<!-- Node31 -->
<g id="node31" class="node">
<title>Node31</title>
<g id="a_node31"><a xlink:href="ReceiverCode_2src_2main_8cpp.html#a5d2350b2507883d3644251013370bc5b" target="_top" xlink:title=" ">
<polygon fill="white" stroke="#666666" points="317.5,-484 213.5,-484 213.5,-465 317.5,-465 317.5,-484"/>
<text text-anchor="middle" x="265.5" y="-472" font-family="Helvetica,sans-Serif" font-size="10.00">ReadTheSensorHub</text>
</a>
</g>
</g>
<!-- Node5&#45;&gt;Node31 -->
<g id="edge34" class="edge">
<title>Node5&#45;&gt;Node31</title>
<path fill="none" stroke="#63b8ff" d="M171.17,-447.42C186.03,-451.73 203.65,-456.84 219.56,-461.46"/>
<polygon fill="#63b8ff" stroke="#63b8ff" points="218.21,-464.71 228.78,-464.14 220.16,-457.99 218.21,-464.71"/>
</g>
<!-- Node32 -->
<g id="node32" class="node">
<title>Node32</title>
<g id="a_node32"><a xlink:href="radio_8h.html#aca314b55765a1c3af5397c0cb3ce47ff" target="_top" xlink:title=" ">
<polygon fill="white" stroke="#666666" points="297,-521 234,-521 234,-502 297,-502 297,-521"/>
<text text-anchor="middle" x="265.5" y="-509" font-family="Helvetica,sans-Serif" font-size="10.00">Reconnect</text>
</a>
</g>
</g>
<!-- Node5&#45;&gt;Node32 -->
<g id="edge35" class="edge">
<title>Node5&#45;&gt;Node32</title>
<path fill="none" stroke="#63b8ff" d="M147.65,-447.23C161.25,-459.23 185.93,-479.64 210,-492.5 214.13,-494.7 218.56,-496.74 223.05,-498.59"/>
<polygon fill="#63b8ff" stroke="#63b8ff" points="221.52,-501.75 232.11,-502.03 224,-495.2 221.52,-501.75"/>
</g>
<!-- Node40 -->
<g id="node40" class="node">
<title>Node40</title>
<g id="a_node40"><a xlink:href="ReceiverCode_2src_2main_8cpp.html#ad8b70060a07f5323c3e1011dd6b1dd6f" target="_top" xlink:title=" ">
<polygon fill="white" stroke="#666666" points="320.5,-447 210.5,-447 210.5,-428 320.5,-428 320.5,-447"/>
<text text-anchor="middle" x="265.5" y="-435" font-family="Helvetica,sans-Serif" font-size="10.00">SensorHubHasFailed</text>
</a>
</g>
</g>
<!-- Node5&#45;&gt;Node40 -->
<g id="edge49" class="edge">
<title>Node5&#45;&gt;Node40</title>
<path fill="none" stroke="#63b8ff" d="M172.18,-437.5C180.56,-437.5 189.78,-437.5 199.04,-437.5"/>
<polygon fill="#63b8ff" stroke="#63b8ff" points="198.8,-441 208.8,-437.5 198.8,-434 198.8,-441"/>
</g>
<!-- Node7 -->
<g id="node7" class="node">
<title>Node7</title>
<g id="a_node7"><a xlink:href="ReceiverCode_2src_2main_8cpp.html#a6f2443a0666140cf4d8b7352bb3b793c" target="_top" xlink:title=" ">
<polygon fill="white" stroke="#666666" points="635.5,-484 564.5,-484 564.5,-465 635.5,-465 635.5,-484"/>
<text text-anchor="middle" x="600" y="-472" font-family="Helvetica,sans-Serif" font-size="10.00">MoveServos</text>
</a>
</g>
</g>
<!-- Node6&#45;&gt;Node7 -->
<g id="edge6" class="edge">
<title>Node6&#45;&gt;Node7</title>
<path fill="none" stroke="#63b8ff" d="M462.57,-473.74C489.89,-473.89 525.05,-474.09 552.84,-474.24"/>
<polygon fill="#63b8ff" stroke="#63b8ff" points="552.72,-477.74 562.74,-474.3 552.76,-470.74 552.72,-477.74"/>
</g>
<!-- Node8 -->
<g id="node8" class="node">
<title>Node8</title>
<g id="a_node8"><a xlink:href="classSBUS.html#aeb87d0ab21224d4cc84848c93a788848" target="_top" xlink:title=" ">
<polygon fill="white" stroke="#666666" points="818,-484 748,-484 748,-465 818,-465 818,-484"/>
<text text-anchor="middle" x="783" y="-472" font-family="Helvetica,sans-Serif" font-size="10.00">SBUS::write</text>
</a>
</g>
</g>
<!-- Node7&#45;&gt;Node8 -->
<g id="edge7" class="edge">
<title>Node7&#45;&gt;Node8</title>
<path fill="none" stroke="#63b8ff" d="M635.9,-474.5C664.41,-474.5 704.94,-474.5 736.08,-474.5"/>
<polygon fill="#63b8ff" stroke="#63b8ff" points="736,-478 746,-474.5 736,-471 736,-478"/>
</g>
<!-- Node10 -->
<g id="node10" class="node">
<title>Node10</title>
<g id="a_node10"><a xlink:href="radio_8h.html#a664f409561bfcf119e0379dd991217e5" target="_top" xlink:title=" ">
<polygon fill="white" stroke="#666666" points="463,-206 373,-206 373,-187 463,-187 463,-206"/>
<text text-anchor="middle" x="418" y="-194" font-family="Helvetica,sans-Serif" font-size="10.00">LoadAckPayload</text>
</a>
</g>
</g>
<!-- Node9&#45;&gt;Node10 -->
<g id="edge9" class="edge">
<title>Node9&#45;&gt;Node10</title>
<path fill="none" stroke="#63b8ff" d="M277.81,-316.73C303.2,-294.8 364.98,-241.44 397.01,-213.77"/>
<polygon fill="#63b8ff" stroke="#63b8ff" points="399.13,-216.56 404.41,-207.37 394.56,-211.26 399.13,-216.56"/>
</g>
<!-- Node19 -->
<g id="node19" class="node">
<title>Node19</title>
<g id="a_node19"><a xlink:href="ReceiverCode_2src_2main_8cpp.html#abb1997c589abc6432f612eaedf985e38" target="_top" xlink:title=" ">
<polygon fill="white" stroke="#666666" points="465.5,-336 370.5,-336 370.5,-317 465.5,-317 465.5,-336"/>
<text text-anchor="middle" x="418" y="-324" font-family="Helvetica,sans-Serif" font-size="10.00">UseReceivedData</text>
</a>
</g>
</g>
<!-- Node9&#45;&gt;Node19 -->
<g id="edge21" class="edge">
<title>Node9&#45;&gt;Node19</title>
<path fill="none" stroke="#63b8ff" d="M295.16,-326.5C313.09,-326.5 336.84,-326.5 358.6,-326.5"/>
<polygon fill="#63b8ff" stroke="#63b8ff" points="358.58,-330 368.58,-326.5 358.58,-323 358.58,-330"/>
</g>
<!-- Node11 -->
<g id="node11" class="node">
<title>Node11</title>
<g id="a_node11"><a xlink:href="radio_8h.html#affa2dcc4341b8daecac77e6e0a354b2d" target="_top" xlink:title=" ">
<polygon fill="white" stroke="#666666" points="844,-112 722,-112 722,-93 844,-93 844,-112"/>
<text text-anchor="middle" x="783" y="-100" font-family="Helvetica,sans-Serif" font-size="10.00">SendDateToAckPayload</text>
</a>
</g>
</g>
<!-- Node10&#45;&gt;Node11 -->
<g id="edge10" class="edge">
<title>Node10&#45;&gt;Node11</title>
<path fill="none" stroke="#63b8ff" d="M436.11,-186.56C454.87,-176.07 486.16,-159.81 515,-150.5 579.54,-129.66 655.96,-117.08 710.47,-110.05"/>
<polygon fill="#63b8ff" stroke="#63b8ff" points="710.77,-113.55 720.25,-108.83 709.9,-106.6 710.77,-113.55"/>
</g>
<!-- Node14 -->
<g id="node14" class="node">
<title>Node14</title>
<g id="a_node14"><a xlink:href="radio_8h.html#ab6bb1ded4e272b24f150c28295f4d291" target="_top" xlink:title=" ">
<polygon fill="white" stroke="#666666" points="647,-225 553,-225 553,-206 647,-206 647,-225"/>
<text text-anchor="middle" x="600" y="-213" font-family="Helvetica,sans-Serif" font-size="10.00">SendMacAddress</text>
</a>
</g>
</g>
<!-- Node10&#45;&gt;Node14 -->
<g id="edge13" class="edge">
<title>Node10&#45;&gt;Node14</title>
<path fill="none" stroke="#63b8ff" d="M463.49,-201.2C486.97,-203.67 516.04,-206.74 541.24,-209.4"/>
<polygon fill="#63b8ff" stroke="#63b8ff" points="540.69,-212.86 551,-210.43 541.42,-205.9 540.69,-212.86"/>
</g>
<!-- Node16 -->
<g id="node16" class="node">
<title>Node16</title>
<g id="a_node16"><a xlink:href="radio_8h.html#a8162c1748e39496c4adf88c55d1c49b8" target="_top" xlink:title=" ">
<polygon fill="white" stroke="#666666" points="845,-187 721,-187 721,-168 845,-168 845,-187"/>
<text text-anchor="middle" x="783" y="-175" font-family="Helvetica,sans-Serif" font-size="10.00">SendTimeToAckPayload</text>
</a>
</g>
</g>
<!-- Node10&#45;&gt;Node16 -->
<g id="edge16" class="edge">
<title>Node10&#45;&gt;Node16</title>
<path fill="none" stroke="#63b8ff" d="M463.15,-194.19C524.31,-190.99 635.57,-185.16 709.15,-181.31"/>
<polygon fill="#63b8ff" stroke="#63b8ff" points="709.3,-184.81 719.11,-180.79 708.94,-177.82 709.3,-184.81"/>
</g>
<!-- Node17 -->
<g id="node17" class="node">
<title>Node17</title>
<g id="a_node17"><a xlink:href="radio_8h.html#a632401c7e72610ff0a0678358b6877ad" target="_top" xlink:title=" ">
<polygon fill="white" stroke="#666666" points="834,-149 732,-149 732,-130 834,-130 834,-149"/>
<text text-anchor="middle" x="783" y="-137" font-family="Helvetica,sans-Serif" font-size="10.00">SendToAckPayload</text>
</a>
</g>
</g>
<!-- Node10&#45;&gt;Node17 -->
<g id="edge18" class="edge">
<title>Node10&#45;&gt;Node17</title>
<path fill="none" stroke="#63b8ff" d="M463.41,-188.38C479.63,-185.48 498.13,-182.26 515,-179.5 585.39,-168 666.44,-156.03 720.61,-148.22"/>
<polygon fill="#63b8ff" stroke="#63b8ff" points="720.85,-151.73 730.25,-146.84 719.85,-144.8 720.85,-151.73"/>
</g>
<!-- Node18 -->
<g id="node18" class="node">
<title>Node18</title>
<g id="a_node18"><a xlink:href="radio_8h.html#af56956a6b17dbdfc9fceedeb5a13cb71" target="_top" xlink:title=" ">
<polygon fill="white" stroke="#666666" points="685,-262 515,-262 515,-243 685,-243 685,-262"/>
<text text-anchor="middle" x="600" y="-250" font-family="Helvetica,sans-Serif" font-size="10.00">SendVersionNumberToAckPayload</text>
</a>
</g>
</g>
<!-- Node10&#45;&gt;Node18 -->
<g id="edge20" class="edge">
<title>Node10&#45;&gt;Node18</title>
<path fill="none" stroke="#63b8ff" d="M441.95,-206.43C461.19,-214.49 489.54,-225.76 515,-233.5 522.49,-235.78 530.42,-237.92 538.31,-239.88"/>
<polygon fill="#63b8ff" stroke="#63b8ff" points="537.37,-243.25 547.91,-242.18 539,-236.45 537.37,-243.25"/>
</g>
<!-- Node12 -->
<g id="node12" class="node">
<title>Node12</title>
<g id="a_node12"><a xlink:href="radio_8h.html#ad21c5c00ff554736e4e21cee13773cd5" target="_top" xlink:title=" ">
<polygon fill="white" stroke="#666666" points="1024,-168 881,-168 881,-149 1024,-149 1024,-168"/>
<text text-anchor="middle" x="952.5" y="-156" font-family="Helvetica,sans-Serif" font-size="10.00">CheckWhetherItsTimeToHop</text>
</a>
</g>
</g>
<!-- Node11&#45;&gt;Node12 -->
<g id="edge11" class="edge">
<title>Node11&#45;&gt;Node12</title>
<path fill="none" stroke="#63b8ff" d="M818.94,-112.45C827.49,-114.98 836.6,-117.76 845,-120.5 868.15,-128.04 893.87,-137.19 914.23,-144.63"/>
<polygon fill="#63b8ff" stroke="#63b8ff" points="912.93,-147.88 923.52,-148.04 915.34,-141.31 912.93,-147.88"/>
</g>
<!-- Node13 -->
<g id="node13" class="node">
<title>Node13</title>
<g id="a_node13"><a xlink:href="radio_8h.html#ae913e02ff1fdfed85e4248ec648c1c6e" target="_top" xlink:title=" ">
<polygon fill="white" stroke="#666666" points="1160,-168 1060,-168 1060,-149 1160,-149 1160,-168"/>
<text text-anchor="middle" x="1110" y="-156" font-family="Helvetica,sans-Serif" font-size="10.00">IncChannelNumber</text>
</a>
</g>
</g>
<!-- Node12&#45;&gt;Node13 -->
<g id="edge12" class="edge">
<title>Node12&#45;&gt;Node13</title>
<path fill="none" stroke="#63b8ff" d="M1024.42,-158.5C1032.39,-158.5 1040.45,-158.5 1048.27,-158.5"/>
<polygon fill="#63b8ff" stroke="#63b8ff" points="1048,-162 1058,-158.5 1048,-155 1048,-162"/>
</g>
<!-- Node15 -->
<g id="node15" class="node">
<title>Node15</title>
<g id="a_node15"><a xlink:href="radio_8h.html#a5b9bcce29081b0c53837ecb90e0a6b33" target="_top" xlink:title=" ">
<polygon fill="white" stroke="#666666" points="839.5,-225 726.5,-225 726.5,-206 839.5,-206 839.5,-225"/>
<text text-anchor="middle" x="783" y="-213" font-family="Helvetica,sans-Serif" font-size="10.00">SendIntToAckPayload</text>
</a>
</g>
</g>
<!-- Node14&#45;&gt;Node15 -->
<g id="edge14" class="edge">
<title>Node14&#45;&gt;Node15</title>
<path fill="none" stroke="#63b8ff" d="M647.14,-215.5C667.75,-215.5 692.44,-215.5 715.02,-215.5"/>
<polygon fill="#63b8ff" stroke="#63b8ff" points="714.74,-219 724.74,-215.5 714.74,-212 714.74,-219"/>
</g>
<!-- Node15&#45;&gt;Node12 -->
<g id="edge15" class="edge">
<title>Node15&#45;&gt;Node12</title>
<path fill="none" stroke="#63b8ff" d="M814.75,-205.53C824.44,-202.36 835.18,-198.82 845,-195.5 867.53,-187.89 892.67,-179.17 912.86,-172.11"/>
<polygon fill="#63b8ff" stroke="#63b8ff" points="913.81,-175.48 922.09,-168.87 911.49,-168.88 913.81,-175.48"/>
</g>
<!-- Node16&#45;&gt;Node12 -->
<g id="edge17" class="edge">
<title>Node16&#45;&gt;Node12</title>
<path fill="none" stroke="#63b8ff" d="M845.42,-170.53C853.23,-169.65 861.31,-168.73 869.38,-167.82"/>
<polygon fill="#63b8ff" stroke="#63b8ff" points="869.69,-171.3 879.23,-166.7 868.9,-164.35 869.69,-171.3"/>
</g>
<!-- Node17&#45;&gt;Node12 -->
<g id="edge19" class="edge">
<title>Node17&#45;&gt;Node12</title>
<path fill="none" stroke="#63b8ff" d="M834.26,-145.2C845.28,-146.45 857.24,-147.81 869.15,-149.16"/>
<polygon fill="#63b8ff" stroke="#63b8ff" points="868.7,-152.63 879.03,-150.28 869.49,-145.67 868.7,-152.63"/>
</g>
<!-- Node20 -->
<g id="node20" class="node">
<title>Node20</title>
<g id="a_node20"><a xlink:href="radio_8h.html#a6feccc8c0583de3235616d42076f1371" target="_top" xlink:title=" ">
<polygon fill="white" stroke="#666666" points="635.5,-299 564.5,-299 564.5,-280 635.5,-280 635.5,-299"/>
<text text-anchor="middle" x="600" y="-287" font-family="Helvetica,sans-Serif" font-size="10.00">Decompress</text>
</a>
</g>
</g>
<!-- Node19&#45;&gt;Node20 -->
<g id="edge22" class="edge">
<title>Node19&#45;&gt;Node20</title>
<path fill="none" stroke="#63b8ff" d="M465.82,-316.88C492.71,-311.35 526.34,-304.44 553.07,-298.94"/>
<polygon fill="#63b8ff" stroke="#63b8ff" points="553.5,-302.43 562.59,-296.98 552.09,-295.57 553.5,-302.43"/>
</g>
<!-- Node21 -->
<g id="node21" class="node">
<title>Node21</title>
<g id="a_node21"><a xlink:href="RadioFunctions_8cpp.html#a52aa3e80bccf5e75346c93fdae63122d" target="_top" xlink:title=" ">
<polygon fill="white" stroke="#666666" points="650.5,-336 549.5,-336 549.5,-317 650.5,-317 650.5,-336"/>
<text text-anchor="middle" x="600" y="-324" font-family="Helvetica,sans-Serif" font-size="10.00">HopToNextChannel</text>
</a>
</g>
</g>
<!-- Node19&#45;&gt;Node21 -->
<g id="edge23" class="edge">
<title>Node19&#45;&gt;Node21</title>
<path fill="none" stroke="#63b8ff" d="M465.82,-326.5C487.84,-326.5 514.39,-326.5 537.96,-326.5"/>
<polygon fill="#63b8ff" stroke="#63b8ff" points="537.75,-330 547.75,-326.5 537.75,-323 537.75,-330"/>
</g>
<!-- Node23 -->
<g id="node23" class="node">
<title>Node23</title>
<g id="a_node23"><a xlink:href="ReceiverCode_2src_2main_8cpp.html#a6a495c5560f12cc3fd3df9454927d681" target="_top" xlink:title=" ">
<polygon fill="white" stroke="#666666" points="637,-373 563,-373 563,-354 637,-354 637,-373"/>
<text text-anchor="middle" x="600" y="-361" font-family="Helvetica,sans-Serif" font-size="10.00">MapToSBUS</text>
</a>
</g>
</g>
<!-- Node19&#45;&gt;Node23 -->
<g id="edge25" class="edge">
<title>Node19&#45;&gt;Node23</title>
<path fill="none" stroke="#63b8ff" d="M465.82,-336.12C492.26,-341.56 525.2,-348.33 551.71,-353.78"/>
<polygon fill="#63b8ff" stroke="#63b8ff" points="550.65,-357.14 561.15,-355.72 552.06,-350.28 550.65,-357.14"/>
</g>
<!-- Node22 -->
<g id="node22" class="node">
<title>Node22</title>
<g id="a_node22"><a xlink:href="radio_8h.html#a2863e7455e30e6fddc0fcf56f62d6564" target="_top" xlink:title=" ">
<polygon fill="white" stroke="#666666" points="838,-336 728,-336 728,-317 838,-317 838,-336"/>
<text text-anchor="middle" x="783" y="-324" font-family="Helvetica,sans-Serif" font-size="10.00">ShowHopDurationEtc</text>
</a>
</g>
</g>
<!-- Node21&#45;&gt;Node22 -->
<g id="edge24" class="edge">
<title>Node21&#45;&gt;Node22</title>
<path fill="none" stroke="#63b8ff" d="M650.94,-326.5C671.16,-326.5 694.79,-326.5 716.37,-326.5"/>
<polygon fill="#63b8ff" stroke="#63b8ff" points="716.27,-330 726.27,-326.5 716.27,-323 716.27,-330"/>
</g>
<!-- Node25 -->
<g id="node25" class="node">
<title>Node25</title>
<g id="a_node25"><a xlink:href="ReceiverCode_2src_2main_8cpp.html#a5ae8a2aa29e834880ccf370c7547961b" target="_top" xlink:title=" ">
<polygon fill="white" stroke="#666666" points="447.5,-130 388.5,-130 388.5,-111 447.5,-111 447.5,-130"/>
<text text-anchor="middle" x="418" y="-118" font-family="Helvetica,sans-Serif" font-size="10.00">MarkHere</text>
</a>
</g>
</g>
<!-- Node24&#45;&gt;Node25 -->
<g id="edge27" class="edge">
<title>Node24&#45;&gt;Node25</title>
<path fill="none" stroke="#63b8ff" d="M321.26,-109.05C339.7,-111.25 359.91,-113.67 376.99,-115.72"/>
<polygon fill="#63b8ff" stroke="#63b8ff" points="376.41,-119.17 386.76,-116.88 377.25,-112.22 376.41,-119.17"/>
</g>
<!-- Node27 -->
<g id="node27" class="node">
<title>Node27</title>
<g id="a_node27"><a xlink:href="ReceiverCode_2src_2main_8cpp.html#ad86a39e4cba19592c760833870f6f69c" target="_top" xlink:title=" ">
<polygon fill="white" stroke="#666666" points="454.5,-56 381.5,-56 381.5,-37 454.5,-37 454.5,-56"/>
<text text-anchor="middle" x="418" y="-44" font-family="Helvetica,sans-Serif" font-size="10.00">RebuildFlags</text>
</a>
</g>
</g>
<!-- Node24&#45;&gt;Node27 -->
<g id="edge29" class="edge">
<title>Node24&#45;&gt;Node27</title>
<path fill="none" stroke="#63b8ff" d="M288.19,-92.63C306.36,-84.54 333.1,-73.07 357,-64.5 361.43,-62.91 366.08,-61.34 370.75,-59.83"/>
<polygon fill="#63b8ff" stroke="#63b8ff" points="371.64,-63.23 380.14,-56.9 369.55,-56.54 371.64,-63.23"/>
</g>
<!-- Node28 -->
<g id="node28" class="node">
<title>Node28</title>
<g id="a_node28"><a xlink:href="ReceiverCode_2src_2main_8cpp.html#af2b1ba43295661243b7bb78004d470d8" target="_top" xlink:title=" ">
<polygon fill="white" stroke="#666666" points="476.5,-93 359.5,-93 359.5,-74 476.5,-74 476.5,-93"/>
<text text-anchor="middle" x="418" y="-81" font-family="Helvetica,sans-Serif" font-size="10.00">SendQnhToSensorHub</text>
</a>
</g>
</g>
<!-- Node24&#45;&gt;Node28 -->
<g id="edge30" class="edge">
<title>Node24&#45;&gt;Node28</title>
<path fill="none" stroke="#63b8ff" d="M321.26,-95.59C329.95,-94.49 339.03,-93.34 347.99,-92.21"/>
<polygon fill="#63b8ff" stroke="#63b8ff" points="348.26,-95.71 357.74,-90.98 347.38,-88.76 348.26,-95.71"/>
</g>
<!-- Node29 -->
<g id="node29" class="node">
<title>Node29</title>
<g id="a_node29"><a xlink:href="ReceiverCode_2src_2main_8cpp.html#a31a35307bbac88ceda244272f25d399a" target="_top" xlink:title=" ">
<polygon fill="white" stroke="#666666" points="470,-19 366,-19 366,0 470,0 470,-19"/>
<text text-anchor="middle" x="418" y="-7" font-family="Helvetica,sans-Serif" font-size="10.00">SetTestFrequencies</text>
</a>
</g>
</g>
<!-- Node24&#45;&gt;Node29 -->
<g id="edge32" class="edge">
<title>Node24&#45;&gt;Node29</title>
<path fill="none" stroke="#63b8ff" d="M275.84,-92.51C291.28,-76.55 323.72,-45.32 357,-27.5 359.65,-26.08 362.43,-24.76 365.27,-23.53"/>
<polygon fill="#63b8ff" stroke="#63b8ff" points="366.3,-26.88 374.36,-20.01 363.77,-20.35 366.3,-26.88"/>
</g>
<!-- Node30 -->
<g id="node30" class="node">
<title>Node30</title>
<g id="a_node30"><a xlink:href="ReceiverCode_2src_2main_8cpp.html#a2eabdb233653fa02f0b899e26b5e8ce7" target="_top" xlink:title=" ">
<polygon fill="white" stroke="#666666" points="649.5,-410 550.5,-410 550.5,-391 649.5,-391 649.5,-410"/>
<text text-anchor="middle" x="600" y="-398" font-family="Helvetica,sans-Serif" font-size="10.00">SetUKFrequencies</text>
</a>
</g>
</g>
<!-- Node24&#45;&gt;Node30 -->
<g id="edge33" class="edge">
<title>Node24&#45;&gt;Node30</title>
<path fill="none" stroke="#63b8ff" d="M267.02,-112.39C269.51,-149.24 283.41,-279.76 357,-344.5 407.07,-388.55 484.97,-399.82 538.79,-401.83"/>
<polygon fill="#63b8ff" stroke="#63b8ff" points="538.63,-405.33 548.72,-402.09 538.81,-398.33 538.63,-405.33"/>
</g>
<!-- Node26 -->
<g id="node26" class="node">
<title>Node26</title>
<g id="a_node26"><a xlink:href="ReceiverCode_2src_2main_8cpp.html#a3f80da71956ba53fcff126bfe2296e65" target="_top" xlink:title=" ">
<polygon fill="white" stroke="#666666" points="649.5,-73 550.5,-73 550.5,-54 649.5,-54 649.5,-73"/>
<text text-anchor="middle" x="600" y="-61" font-family="Helvetica,sans-Serif" font-size="10.00">SendToSensorHub</text>
</a>
</g>
</g>
<!-- Node25&#45;&gt;Node26 -->
<g id="edge28" class="edge">
<title>Node25&#45;&gt;Node26</title>
<path fill="none" stroke="#63b8ff" d="M447.81,-111.79C457.74,-108.68 468.9,-105.06 479,-101.5 495.19,-95.79 498.73,-92.98 515,-87.5 526.44,-83.65 538.88,-79.88 550.6,-76.5"/>
<polygon fill="#63b8ff" stroke="#63b8ff" points="551.43,-79.9 560.1,-73.81 549.52,-73.17 551.43,-79.9"/>
</g>
<!-- Node28&#45;&gt;Node26 -->
<g id="edge31" class="edge">
<title>Node28&#45;&gt;Node26</title>
<path fill="none" stroke="#63b8ff" d="M476.94,-77.06C496.8,-74.86 519.04,-72.38 539.05,-70.16"/>
<polygon fill="#63b8ff" stroke="#63b8ff" points="539.16,-73.67 548.71,-69.09 538.39,-66.71 539.16,-73.67"/>
</g>
<!-- Node32&#45;&gt;Node6 -->
<g id="edge41" class="edge">
<title>Node32&#45;&gt;Node6</title>
<path fill="none" stroke="#63b8ff" d="M297.32,-503.72C317.27,-498.68 343.72,-492 366.68,-486.21"/>
<polygon fill="#63b8ff" stroke="#63b8ff" points="367.32,-489.65 376.16,-483.81 365.61,-482.87 367.32,-489.65"/>
</g>
<!-- Node33 -->
<g id="node33" class="node">
<title>Node33</title>
<g id="a_node33"><a xlink:href="ReceiverCode_2src_2main_8cpp.html#a42318598726782ebb2e1857f167c8cda" target="_top" xlink:title=" ">
<polygon fill="white" stroke="#666666" points="444.5,-446 391.5,-446 391.5,-427 444.5,-427 444.5,-446"/>
<text text-anchor="middle" x="418" y="-434" font-family="Helvetica,sans-Serif" font-size="10.00">FailSafe</text>
</a>
</g>
</g>
<!-- Node32&#45;&gt;Node33 -->
<g id="edge36" class="edge">
<title>Node32&#45;&gt;Node33</title>
<path fill="none" stroke="#63b8ff" d="M297.39,-503.58C305.44,-500.77 313.85,-497.12 321,-492.5 340.54,-479.87 337.19,-466.7 357,-454.5 364.05,-450.16 372.21,-446.81 380.2,-444.24"/>
<polygon fill="#63b8ff" stroke="#63b8ff" points="381.12,-447.62 389.79,-441.53 379.22,-440.88 381.12,-447.62"/>
</g>
<!-- Node35 -->
<g id="node35" class="node">
<title>Node35</title>
<g id="a_node35"><a xlink:href="radio_8h.html#a62f1498f67d7e438905ae486bc27044f" target="_top" xlink:title=" ">
<polygon fill="white" stroke="#666666" points="631,-521 569,-521 569,-502 631,-502 631,-521"/>
<text text-anchor="middle" x="600" y="-509" font-family="Helvetica,sans-Serif" font-size="10.00">ProdRadio</text>
</a>
</g>
</g>
<!-- Node32&#45;&gt;Node35 -->
<g id="edge42" class="edge">
<title>Node32&#45;&gt;Node35</title>
<path fill="none" stroke="#63b8ff" d="M297.48,-511.5C357.56,-511.5 489.89,-511.5 557.49,-511.5"/>
<polygon fill="#63b8ff" stroke="#63b8ff" points="557.42,-515 567.42,-511.5 557.42,-508 557.42,-515"/>
</g>
<!-- Node36 -->
<g id="node36" class="node">
<title>Node36</title>
<g id="a_node36"><a xlink:href="radio_8h.html#a1208ef26dd460e6f5f56582f4fbfcf94" target="_top" xlink:title=" ">
<polygon fill="white" stroke="#666666" points="832,-577 734,-577 734,-558 832,-558 832,-577"/>
<text text-anchor="middle" x="783" y="-565" font-family="Helvetica,sans-Serif" font-size="10.00">TryToConnectNow</text>
</a>
</g>
</g>
<!-- Node32&#45;&gt;Node36 -->
<g id="edge48" class="edge">
<title>Node32&#45;&gt;Node36</title>
<path fill="none" stroke="#63b8ff" d="M279.22,-521.49C296.07,-534.24 327.15,-556.13 357,-568.5 423.53,-596.08 443.43,-596.45 515,-604.5 590.08,-612.95 610.7,-618.19 685,-604.5 708.41,-600.19 733.49,-590.48 752.27,-582.08"/>
<polygon fill="#63b8ff" stroke="#63b8ff" points="753.56,-585.35 761.18,-577.98 750.63,-578.99 753.56,-585.35"/>
</g>
<!-- Node37 -->
<g id="node37" class="node">
<title>Node37</title>
<g id="a_node37"><a xlink:href="radio_8h.html#adfacfc7d075937cec51b7bcd08d323ca" target="_top" xlink:title=" ">
<polygon fill="white" stroke="#666666" points="479,-559 357,-559 357,-540 479,-540 479,-559"/>
<text text-anchor="middle" x="418" y="-547" font-family="Helvetica,sans-Serif" font-size="10.00">TryTheOtherTransceiver</text>
</a>
</g>
</g>
<!-- Node32&#45;&gt;Node37 -->
<g id="edge44" class="edge">
<title>Node32&#45;&gt;Node37</title>
<path fill="none" stroke="#63b8ff" d="M297.32,-519.28C317.27,-524.32 343.72,-531 366.68,-536.79"/>
<polygon fill="#63b8ff" stroke="#63b8ff" points="365.61,-540.13 376.16,-539.19 367.32,-533.35 365.61,-540.13"/>
</g>
<!-- Node33&#45;&gt;Node7 -->
<g id="edge39" class="edge">
<title>Node33&#45;&gt;Node7</title>
<path fill="none" stroke="#63b8ff" d="M444.79,-441.94C473,-447.9 518.77,-457.56 553.13,-464.82"/>
<polygon fill="#63b8ff" stroke="#63b8ff" points="552.32,-468.22 562.83,-466.86 553.77,-461.37 552.32,-468.22"/>
</g>
<!-- Node33&#45;&gt;Node23 -->
<g id="edge38" class="edge">
<title>Node33&#45;&gt;Node23</title>
<path fill="none" stroke="#63b8ff" d="M432.94,-426.65C451.04,-414.32 483.97,-393.38 515,-381.5 526.62,-377.05 539.6,-373.59 551.8,-370.94"/>
<polygon fill="#63b8ff" stroke="#63b8ff" points="552.14,-374.45 561.25,-369.04 550.76,-367.58 552.14,-374.45"/>
</g>
<!-- Node33&#45;&gt;Node30 -->
<g id="edge40" class="edge">
<title>Node33&#45;&gt;Node30</title>
<path fill="none" stroke="#63b8ff" d="M444.79,-431.34C469.31,-426.44 507.1,-418.88 539.14,-412.47"/>
<polygon fill="#63b8ff" stroke="#63b8ff" points="539.59,-415.95 548.71,-410.56 538.22,-409.09 539.59,-415.95"/>
</g>
<!-- Node34 -->
<g id="node34" class="node">
<title>Node34</title>
<g id="a_node34"><a xlink:href="ReceiverCode_2src_2main_8cpp.html#a7b232e8049c83655363495df07fc96d9" target="_top" xlink:title=" ">
<polygon fill="white" stroke="#666666" points="647.5,-447 552.5,-447 552.5,-428 647.5,-428 647.5,-447"/>
<text text-anchor="middle" x="600" y="-435" font-family="Helvetica,sans-Serif" font-size="10.00">LoadFailSafeData</text>
</a>
</g>
</g>
<!-- Node33&#45;&gt;Node34 -->
<g id="edge37" class="edge">
<title>Node33&#45;&gt;Node34</title>
<path fill="none" stroke="#63b8ff" d="M444.79,-436.64C469.83,-436.78 508.72,-437 541.17,-437.18"/>
<polygon fill="#63b8ff" stroke="#63b8ff" points="540.82,-440.68 550.84,-437.23 540.86,-433.68 540.82,-440.68"/>
</g>
<!-- Node35&#45;&gt;Node36 -->
<g id="edge43" class="edge">
<title>Node35&#45;&gt;Node36</title>
<path fill="none" stroke="#63b8ff" d="M631.24,-516.75C647.36,-519.85 667.43,-524.22 685,-529.5 706.76,-536.05 730.52,-545.32 749.08,-553.07"/>
<polygon fill="#63b8ff" stroke="#63b8ff" points="747.66,-556.27 758.24,-556.95 750.4,-549.82 747.66,-556.27"/>
</g>
<!-- Node37&#45;&gt;Node35 -->
<g id="edge45" class="edge">
<title>Node37&#45;&gt;Node35</title>
<path fill="none" stroke="#63b8ff" d="M466.29,-539.52C494.64,-533.53 530.34,-525.99 557.57,-520.25"/>
<polygon fill="#63b8ff" stroke="#63b8ff" points="558.14,-523.7 567.2,-518.21 556.69,-516.85 558.14,-523.7"/>
</g>
<!-- Node38 -->
<g id="node38" class="node">
<title>Node38</title>
<g id="a_node38"><a xlink:href="radio_8h.html#a8b76f3c338025926421c7b308405bbfd" target="_top" xlink:title=" ">
<polygon fill="white" stroke="#666666" points="623.5,-558 576.5,-558 576.5,-539 623.5,-539 623.5,-558"/>
<text text-anchor="middle" x="600" y="-546" font-family="Helvetica,sans-Serif" font-size="10.00">Radio2</text>
</a>
</g>
</g>
<!-- Node37&#45;&gt;Node38 -->
<g id="edge46" class="edge">
<title>Node37&#45;&gt;Node38</title>
<path fill="none" stroke="#63b8ff" d="M479.44,-549.16C507.92,-549.01 540.85,-548.82 564.93,-548.69"/>
<polygon fill="#63b8ff" stroke="#63b8ff" points="564.82,-552.19 574.8,-548.63 564.78,-545.19 564.82,-552.19"/>
</g>
<!-- Node39 -->
<g id="node39" class="node">
<title>Node39</title>
<g id="a_node39"><a xlink:href="radio_8h.html#ac980be068a45a1406b0e244304741ac6" target="_top" xlink:title=" ">
<polygon fill="white" stroke="#666666" points="657,-595 543,-595 543,-576 657,-576 657,-595"/>
<text text-anchor="middle" x="600" y="-583" font-family="Helvetica,sans-Serif" font-size="10.00">SwapChipEnableLines</text>
</a>
</g>
</g>
<!-- Node37&#45;&gt;Node39 -->
<g id="edge47" class="edge">
<title>Node37&#45;&gt;Node39</title>
<path fill="none" stroke="#63b8ff" d="M468.66,-559.43C490.12,-563.72 515.43,-568.79 538.01,-573.3"/>
<polygon fill="#63b8ff" stroke="#63b8ff" points="537.21,-576.71 547.7,-575.24 538.58,-569.85 537.21,-576.71"/>
</g>
</g>
</svg>
