<?xml version="1.0" encoding="UTF-8" standalone="no"?>
<!DOCTYPE svg PUBLIC "-//W3C//DTD SVG 1.1//EN"
 "http://www.w3.org/Graphics/SVG/1.1/DTD/svg11.dtd">
<!-- Generated by graphviz version 7.0.5 (20221223.1930)
 -->
<!-- Title: ReadBindPlug Pages: 1 -->
<svg width="1180pt" height="741pt"
 viewBox="0.00 0.00 1180.00 741.00" xmlns="http://www.w3.org/2000/svg" xmlns:xlink="http://www.w3.org/1999/xlink">
<g id="graph0" class="graph" transform="scale(1 1) rotate(0) translate(4 737)">
<title>ReadBindPlug</title>
<!-- Node1 -->
<g id="node1" class="node">
<title>Node1</title>
<g id="a_node1"><a xlink:title=" ">
<polygon fill="#999999" stroke="#666666" points="78,-322 0,-322 0,-303 78,-303 78,-322"/>
<text text-anchor="middle" x="39" y="-310" font-family="Helvetica,sans-Serif" font-size="10.00">ReadBindPlug</text>
</a>
</g>
</g>
<!-- Node2 -->
<g id="node2" class="node">
<title>Node2</title>
<g id="a_node2"><a xlink:href="ReceiverCode_2src_2main_8cpp.html#aa0c6905579a33aef28d737d43676cbbd" target="_top" xlink:title=" ">
<polygon fill="white" stroke="#666666" points="181,-592 119,-592 119,-573 181,-573 181,-592"/>
<text text-anchor="middle" x="150" y="-580" font-family="Helvetica,sans-Serif" font-size="10.00">BindModel</text>
</a>
</g>
</g>
<!-- Node1&#45;&gt;Node2 -->
<g id="edge1" class="edge">
<title>Node1&#45;&gt;Node2</title>
<path fill="none" stroke="#63b8ff" d="M44.01,-322.43C59.93,-361.88 118.92,-508 140.78,-562.14"/>
<polygon fill="#63b8ff" stroke="#63b8ff" points="137.51,-563.4 144.5,-571.36 144.01,-560.78 137.51,-563.4"/>
</g>
<!-- Node7 -->
<g id="node7" class="node">
<title>Node7</title>
<g id="a_node7"><a xlink:href="ReceiverCode_2src_2main_8cpp.html#a06807a4f185694d37f774702ba74db0a" target="_top" xlink:title=" ">
<polygon fill="white" stroke="#666666" points="186,-322 114,-322 114,-303 186,-303 186,-322"/>
<text text-anchor="middle" x="150" y="-310" font-family="Helvetica,sans-Serif" font-size="10.00">ReceiveData</text>
</a>
</g>
</g>
<!-- Node1&#45;&gt;Node7 -->
<g id="edge6" class="edge">
<title>Node1&#45;&gt;Node7</title>
<path fill="none" stroke="#63b8ff" d="M78.43,-312.5C86.17,-312.5 94.39,-312.5 102.38,-312.5"/>
<polygon fill="#63b8ff" stroke="#63b8ff" points="102.32,-316 112.32,-312.5 102.32,-309 102.32,-316"/>
</g>
<!-- Node35 -->
<g id="node35" class="node">
<title>Node35</title>
<g id="a_node35"><a xlink:href="ReceiverCode_2src_2main_8cpp.html#a2eabdb233653fa02f0b899e26b5e8ce7" target="_top" xlink:title=" ">
<polygon fill="white" stroke="#666666" points="661.5,-190 562.5,-190 562.5,-171 661.5,-171 661.5,-190"/>
<text text-anchor="middle" x="612" y="-178" font-family="Helvetica,sans-Serif" font-size="10.00">SetUKFrequencies</text>
</a>
</g>
</g>
<!-- Node1&#45;&gt;Node35 -->
<g id="edge61" class="edge">
<title>Node1&#45;&gt;Node35</title>
<path fill="none" stroke="#63b8ff" d="M52.96,-302.65C81.81,-281.15 154.16,-229.62 222,-200.5 333.01,-152.85 370.57,-152.02 491,-161.5 510.6,-163.04 531.83,-165.98 550.9,-169.09"/>
<polygon fill="#63b8ff" stroke="#63b8ff" points="550.23,-172.53 560.67,-170.74 551.39,-165.62 550.23,-172.53"/>
</g>
<!-- Node3 -->
<g id="node3" class="node">
<title>Node3</title>
<g id="a_node3"><a xlink:href="ReceiverCode_2src_2main_8cpp.html#a0cbfd712ab3bd8f654bc19400fd704bd" target="_top" xlink:title=" ">
<polygon fill="white" stroke="#666666" points="315.5,-643 239.5,-643 239.5,-624 315.5,-624 315.5,-643"/>
<text text-anchor="middle" x="277.5" y="-631" font-family="Helvetica,sans-Serif" font-size="10.00">AttachServos</text>
</a>
</g>
</g>
<!-- Node2&#45;&gt;Node3 -->
<g id="edge2" class="edge">
<title>Node2&#45;&gt;Node3</title>
<path fill="none" stroke="#63b8ff" d="M175.5,-592.45C194.33,-600.11 220.59,-610.78 241.62,-619.32"/>
<polygon fill="#63b8ff" stroke="#63b8ff" points="240.08,-622.48 250.66,-623 242.72,-615.99 240.08,-622.48"/>
</g>
<!-- Node6 -->
<g id="node6" class="node">
<title>Node6</title>
<g id="a_node6"><a xlink:href="radio_8h.html#a6f54969e66375decc44723b141b78766" target="_top" xlink:title=" ">
<polygon fill="white" stroke="#666666" points="313,-592 242,-592 242,-573 313,-573 313,-592"/>
<text text-anchor="middle" x="277.5" y="-580" font-family="Helvetica,sans-Serif" font-size="10.00">SetNewPipe</text>
</a>
</g>
</g>
<!-- Node2&#45;&gt;Node6 -->
<g id="edge5" class="edge">
<title>Node2&#45;&gt;Node6</title>
<path fill="none" stroke="#63b8ff" d="M181.38,-582.5C195.97,-582.5 213.78,-582.5 230.03,-582.5"/>
<polygon fill="#63b8ff" stroke="#63b8ff" points="230,-586 240,-582.5 230,-579 230,-586"/>
</g>
<!-- Node4 -->
<g id="node4" class="node">
<title>Node4</title>
<g id="a_node4"><a xlink:href="classSBUS.html#a5c2fccbffff0bd17ed522529fd6b2d8f" target="_top" xlink:title=" ">
<polygon fill="white" stroke="#666666" points="466,-700 394,-700 394,-681 466,-681 466,-700"/>
<text text-anchor="middle" x="430" y="-688" font-family="Helvetica,sans-Serif" font-size="10.00">SBUS::begin</text>
</a>
</g>
</g>
<!-- Node3&#45;&gt;Node4 -->
<g id="edge3" class="edge">
<title>Node3&#45;&gt;Node4</title>
<path fill="none" stroke="#63b8ff" d="M304.72,-643.43C328.92,-652.6 365.11,-666.3 392.21,-676.57"/>
<polygon fill="#63b8ff" stroke="#63b8ff" points="390.83,-679.78 401.42,-680.05 393.31,-673.24 390.83,-679.78"/>
</g>
<!-- Node5 -->
<g id="node5" class="node">
<title>Node5</title>
<g id="a_node5"><a xlink:href="classSBUS.html#a58a6caab31090f4019d4f2439ab20fc2" target="_top" xlink:title=" ">
<polygon fill="white" stroke="#666666" points="665.5,-733 558.5,-733 558.5,-714 665.5,-714 665.5,-733"/>
<text text-anchor="middle" x="612" y="-721" font-family="Helvetica,sans-Serif" font-size="10.00">SBUS::setEndPoints</text>
</a>
</g>
</g>
<!-- Node4&#45;&gt;Node5 -->
<g id="edge4" class="edge">
<title>Node4&#45;&gt;Node5</title>
<path fill="none" stroke="#63b8ff" d="M466.13,-696.94C489.15,-701.16 519.92,-706.8 547.17,-711.8"/>
<polygon fill="#63b8ff" stroke="#63b8ff" points="546.25,-715.19 556.72,-713.55 547.52,-708.3 546.25,-715.19"/>
</g>
<!-- Node8 -->
<g id="node8" class="node">
<title>Node8</title>
<g id="a_node8"><a xlink:href="radio_8h.html#a6f74cdb7b32a3aa9e9342661bd44ad1a" target="_top" xlink:title=" ">
<polygon fill="white" stroke="#666666" points="474.5,-341 385.5,-341 385.5,-322 474.5,-322 474.5,-341"/>
<text text-anchor="middle" x="430" y="-329" font-family="Helvetica,sans-Serif" font-size="10.00">KeepSbusHappy</text>
</a>
</g>
</g>
<!-- Node7&#45;&gt;Node8 -->
<g id="edge7" class="edge">
<title>Node7&#45;&gt;Node8</title>
<path fill="none" stroke="#63b8ff" d="M186.49,-314.93C233.77,-318.16 317.92,-323.91 373.6,-327.71"/>
<polygon fill="#63b8ff" stroke="#63b8ff" points="373.3,-331.2 383.52,-328.39 373.78,-324.22 373.3,-331.2"/>
</g>
<!-- Node14 -->
<g id="node14" class="node">
<title>Node14</title>
<g id="a_node14"><a xlink:href="ReceiverCode_2src_2main_8cpp.html#a07ca94db0e305e9c01ec51e417576308" target="_top" xlink:title=" ">
<polygon fill="white" stroke="#666666" points="307,-526 248,-526 248,-507 307,-507 307,-526"/>
<text text-anchor="middle" x="277.5" y="-514" font-family="Helvetica,sans-Serif" font-size="10.00">ReadData</text>
</a>
</g>
</g>
<!-- Node7&#45;&gt;Node14 -->
<g id="edge13" class="edge">
<title>Node7&#45;&gt;Node14</title>
<path fill="none" stroke="#63b8ff" d="M157.05,-322.34C176.6,-354.12 238.29,-454.39 264.52,-497.02"/>
<polygon fill="#63b8ff" stroke="#63b8ff" points="261.49,-498.79 269.71,-505.47 267.46,-495.12 261.49,-498.79"/>
</g>
<!-- Node29 -->
<g id="node29" class="node">
<title>Node29</title>
<g id="a_node29"><a xlink:href="ReceiverCode_2src_2main_8cpp.html#a6c490ef42e364f8bb1430c436e86c9c0" target="_top" xlink:title=" ">
<polygon fill="white" stroke="#666666" points="333,-397 222,-397 222,-378 333,-378 333,-397"/>
<text text-anchor="middle" x="277.5" y="-385" font-family="Helvetica,sans-Serif" font-size="10.00">ReadExtraParameters</text>
</a>
</g>
</g>
<!-- Node7&#45;&gt;Node29 -->
<g id="edge31" class="edge">
<title>Node7&#45;&gt;Node29</title>
<path fill="none" stroke="#63b8ff" d="M167.67,-322.46C188.79,-335.08 225.43,-356.98 250.3,-371.84"/>
<polygon fill="#63b8ff" stroke="#63b8ff" points="248.49,-374.84 258.87,-376.96 252.08,-368.83 248.49,-374.84"/>
</g>
<!-- Node36 -->
<g id="node36" class="node">
<title>Node36</title>
<g id="a_node36"><a xlink:href="ReceiverCode_2src_2main_8cpp.html#a5d2350b2507883d3644251013370bc5b" target="_top" xlink:title=" ">
<polygon fill="white" stroke="#666666" points="329.5,-303 225.5,-303 225.5,-284 329.5,-284 329.5,-303"/>
<text text-anchor="middle" x="277.5" y="-291" font-family="Helvetica,sans-Serif" font-size="10.00">ReadTheSensorHub</text>
</a>
</g>
</g>
<!-- Node7&#45;&gt;Node36 -->
<g id="edge39" class="edge">
<title>Node7&#45;&gt;Node36</title>
<path fill="none" stroke="#63b8ff" d="M186.29,-307.16C194.94,-305.85 204.46,-304.41 213.97,-302.97"/>
<polygon fill="#63b8ff" stroke="#63b8ff" points="214.22,-306.47 223.58,-301.51 213.17,-299.55 214.22,-306.47"/>
</g>
<!-- Node37 -->
<g id="node37" class="node">
<title>Node37</title>
<g id="a_node37"><a xlink:href="radio_8h.html#aca314b55765a1c3af5397c0cb3ce47ff" target="_top" xlink:title=" ">
<polygon fill="white" stroke="#666666" points="309,-265 246,-265 246,-246 309,-246 309,-265"/>
<text text-anchor="middle" x="277.5" y="-253" font-family="Helvetica,sans-Serif" font-size="10.00">Reconnect</text>
</a>
</g>
</g>
<!-- Node7&#45;&gt;Node37 -->
<g id="edge40" class="edge">
<title>Node7&#45;&gt;Node37</title>
<path fill="none" stroke="#63b8ff" d="M168.49,-302.58C182.67,-294.73 203.31,-283.76 222,-275.5 226.69,-273.43 231.67,-271.39 236.64,-269.45"/>
<polygon fill="#63b8ff" stroke="#63b8ff" points="237.84,-272.74 245.96,-265.94 235.37,-266.19 237.84,-272.74"/>
</g>
<!-- Node48 -->
<g id="node48" class="node">
<title>Node48</title>
<g id="a_node48"><a xlink:href="ReceiverCode_2src_2main_8cpp.html#ad8b70060a07f5323c3e1011dd6b1dd6f" target="_top" xlink:title=" ">
<polygon fill="white" stroke="#666666" points="332.5,-228 222.5,-228 222.5,-209 332.5,-209 332.5,-228"/>
<text text-anchor="middle" x="277.5" y="-216" font-family="Helvetica,sans-Serif" font-size="10.00">SensorHubHasFailed</text>
</a>
</g>
</g>
<!-- Node7&#45;&gt;Node48 -->
<g id="edge60" class="edge">
<title>Node7&#45;&gt;Node48</title>
<path fill="none" stroke="#63b8ff" d="M157.93,-302.55C169.47,-286.66 194.15,-255.51 222,-237.5 224.52,-235.87 227.19,-234.37 229.95,-232.97"/>
<polygon fill="#63b8ff" stroke="#63b8ff" points="231.08,-236.3 238.79,-229.04 228.23,-229.91 231.08,-236.3"/>
</g>
<!-- Node9 -->
<g id="node9" class="node">
<title>Node9</title>
<g id="a_node9"><a xlink:href="ReceiverCode_2src_2main_8cpp.html#a6f2443a0666140cf4d8b7352bb3b793c" target="_top" xlink:title=" ">
<polygon fill="white" stroke="#666666" points="647.5,-340 576.5,-340 576.5,-321 647.5,-321 647.5,-340"/>
<text text-anchor="middle" x="612" y="-328" font-family="Helvetica,sans-Serif" font-size="10.00">MoveServos</text>
</a>
</g>
</g>
<!-- Node8&#45;&gt;Node9 -->
<g id="edge8" class="edge">
<title>Node8&#45;&gt;Node9</title>
<path fill="none" stroke="#63b8ff" d="M474.57,-331.26C501.89,-331.11 537.05,-330.91 564.84,-330.76"/>
<polygon fill="#63b8ff" stroke="#63b8ff" points="564.76,-334.26 574.74,-330.7 564.72,-327.26 564.76,-334.26"/>
</g>
<!-- Node10 -->
<g id="node10" class="node">
<title>Node10</title>
<g id="a_node10"><a xlink:href="ReceiverCode_2src_2main_8cpp.html#ae5188cdc179ab32d9a36de911e3a2d45" target="_top" xlink:title=" ">
<polygon fill="white" stroke="#666666" points="844,-340 746,-340 746,-321 844,-321 844,-340"/>
<text text-anchor="middle" x="795" y="-328" font-family="Helvetica,sans-Serif" font-size="10.00">CheckCrazyValues</text>
</a>
</g>
</g>
<!-- Node9&#45;&gt;Node10 -->
<g id="edge9" class="edge">
<title>Node9&#45;&gt;Node10</title>
<path fill="none" stroke="#63b8ff" d="M647.9,-330.5C672.28,-330.5 705.44,-330.5 734.01,-330.5"/>
<polygon fill="#63b8ff" stroke="#63b8ff" points="734.01,-334 744.01,-330.5 734.01,-327 734.01,-334"/>
</g>
<!-- Node11 -->
<g id="node11" class="node">
<title>Node11</title>
<g id="a_node11"><a xlink:href="ReceiverCode_2src_2main_8cpp.html#aadfccc52afc40455e31e965015c29b46" target="_top" xlink:title=" ">
<polygon fill="white" stroke="#666666" points="827.5,-266 762.5,-266 762.5,-247 827.5,-247 827.5,-266"/>
<text text-anchor="middle" x="795" y="-254" font-family="Helvetica,sans-Serif" font-size="10.00">TurnLedOff</text>
</a>
</g>
</g>
<!-- Node9&#45;&gt;Node11 -->
<g id="edge10" class="edge">
<title>Node9&#45;&gt;Node11</title>
<path fill="none" stroke="#63b8ff" d="M647.72,-327.69C663.51,-325.27 681.99,-320.8 697,-312.5 717.08,-301.4 713.45,-287.5 733,-275.5 738.69,-272.01 745.08,-269.1 751.53,-266.71"/>
<polygon fill="#63b8ff" stroke="#63b8ff" points="752.48,-270.08 760.87,-263.62 750.28,-263.44 752.48,-270.08"/>
</g>
<!-- Node12 -->
<g id="node12" class="node">
<title>Node12</title>
<g id="a_node12"><a xlink:href="ReceiverCode_2src_2main_8cpp.html#a852569e2aefff6371f3adad09fcd746f" target="_top" xlink:title=" ">
<polygon fill="white" stroke="#666666" points="827.5,-303 762.5,-303 762.5,-284 827.5,-284 827.5,-303"/>
<text text-anchor="middle" x="795" y="-291" font-family="Helvetica,sans-Serif" font-size="10.00">TurnLedOn</text>
</a>
</g>
</g>
<!-- Node9&#45;&gt;Node12 -->
<g id="edge11" class="edge">
<title>Node9&#45;&gt;Node12</title>
<path fill="none" stroke="#63b8ff" d="M647.9,-323.37C677.36,-317.34 719.65,-308.7 751.16,-302.26"/>
<polygon fill="#63b8ff" stroke="#63b8ff" points="751.66,-305.73 760.76,-300.3 750.26,-298.87 751.66,-305.73"/>
</g>
<!-- Node13 -->
<g id="node13" class="node">
<title>Node13</title>
<g id="a_node13"><a xlink:href="classSBUS.html#aeb87d0ab21224d4cc84848c93a788848" target="_top" xlink:title=" ">
<polygon fill="white" stroke="#666666" points="830,-377 760,-377 760,-358 830,-358 830,-377"/>
<text text-anchor="middle" x="795" y="-365" font-family="Helvetica,sans-Serif" font-size="10.00">SBUS::write</text>
</a>
</g>
</g>
<!-- Node9&#45;&gt;Node13 -->
<g id="edge12" class="edge">
<title>Node9&#45;&gt;Node13</title>
<path fill="none" stroke="#63b8ff" d="M647.9,-337.63C676.54,-343.49 717.3,-351.82 748.5,-358.2"/>
<polygon fill="#63b8ff" stroke="#63b8ff" points="747.53,-361.57 758.03,-360.15 748.94,-354.72 747.53,-361.57"/>
</g>
<!-- Node15 -->
<g id="node15" class="node">
<title>Node15</title>
<g id="a_node15"><a xlink:href="radio_8h.html#a664f409561bfcf119e0379dd991217e5" target="_top" xlink:title=" ">
<polygon fill="white" stroke="#666666" points="475,-581 385,-581 385,-562 475,-562 475,-581"/>
<text text-anchor="middle" x="430" y="-569" font-family="Helvetica,sans-Serif" font-size="10.00">LoadAckPayload</text>
</a>
</g>
</g>
<!-- Node14&#45;&gt;Node15 -->
<g id="edge14" class="edge">
<title>Node14&#45;&gt;Node15</title>
<path fill="none" stroke="#63b8ff" d="M305.75,-526.46C329.65,-535.19 364.64,-547.98 391.23,-557.7"/>
<polygon fill="#63b8ff" stroke="#63b8ff" points="389.68,-560.86 400.27,-561 392.08,-554.28 389.68,-560.86"/>
</g>
<!-- Node24 -->
<g id="node24" class="node">
<title>Node24</title>
<g id="a_node24"><a xlink:href="ReceiverCode_2src_2main_8cpp.html#abb1997c589abc6432f612eaedf985e38" target="_top" xlink:title=" ">
<polygon fill="white" stroke="#666666" points="477.5,-526 382.5,-526 382.5,-507 477.5,-507 477.5,-526"/>
<text text-anchor="middle" x="430" y="-514" font-family="Helvetica,sans-Serif" font-size="10.00">UseReceivedData</text>
</a>
</g>
</g>
<!-- Node14&#45;&gt;Node24 -->
<g id="edge26" class="edge">
<title>Node14&#45;&gt;Node24</title>
<path fill="none" stroke="#63b8ff" d="M307.16,-516.5C325.09,-516.5 348.84,-516.5 370.6,-516.5"/>
<polygon fill="#63b8ff" stroke="#63b8ff" points="370.58,-520 380.58,-516.5 370.58,-513 370.58,-520"/>
</g>
<!-- Node16 -->
<g id="node16" class="node">
<title>Node16</title>
<g id="a_node16"><a xlink:href="radio_8h.html#affa2dcc4341b8daecac77e6e0a354b2d" target="_top" xlink:title=" ">
<polygon fill="white" stroke="#666666" points="856,-619 734,-619 734,-600 856,-600 856,-619"/>
<text text-anchor="middle" x="795" y="-607" font-family="Helvetica,sans-Serif" font-size="10.00">SendDateToAckPayload</text>
</a>
</g>
</g>
<!-- Node15&#45;&gt;Node16 -->
<g id="edge15" class="edge">
<title>Node15&#45;&gt;Node16</title>
<path fill="none" stroke="#63b8ff" d="M475.26,-581.45C491.46,-584.78 509.99,-588.22 527,-590.5 592.76,-599.31 668.22,-604.21 722.1,-606.81"/>
<polygon fill="#63b8ff" stroke="#63b8ff" points="721.94,-610.31 732.09,-607.28 722.27,-603.31 721.94,-610.31"/>
</g>
<!-- Node19 -->
<g id="node19" class="node">
<title>Node19</title>
<g id="a_node19"><a xlink:href="radio_8h.html#ab6bb1ded4e272b24f150c28295f4d291" target="_top" xlink:title=" ">
<polygon fill="white" stroke="#666666" points="659,-581 565,-581 565,-562 659,-562 659,-581"/>
<text text-anchor="middle" x="612" y="-569" font-family="Helvetica,sans-Serif" font-size="10.00">SendMacAddress</text>
</a>
</g>
</g>
<!-- Node15&#45;&gt;Node19 -->
<g id="edge18" class="edge">
<title>Node15&#45;&gt;Node19</title>
<path fill="none" stroke="#63b8ff" d="M475.49,-571.5C498.97,-571.5 528.04,-571.5 553.24,-571.5"/>
<polygon fill="#63b8ff" stroke="#63b8ff" points="552.99,-575 562.99,-571.5 552.99,-568 552.99,-575"/>
</g>
<!-- Node21 -->
<g id="node21" class="node">
<title>Node21</title>
<g id="a_node21"><a xlink:href="radio_8h.html#a8162c1748e39496c4adf88c55d1c49b8" target="_top" xlink:title=" ">
<polygon fill="white" stroke="#666666" points="857,-694 733,-694 733,-675 857,-675 857,-694"/>
<text text-anchor="middle" x="795" y="-682" font-family="Helvetica,sans-Serif" font-size="10.00">SendTimeToAckPayload</text>
</a>
</g>
</g>
<!-- Node15&#45;&gt;Node21 -->
<g id="edge21" class="edge">
<title>Node15&#45;&gt;Node21</title>
<path fill="none" stroke="#63b8ff" d="M441.57,-581.29C458.32,-596.2 492.6,-624.36 527,-638.5 589.55,-664.21 666.06,-675.55 721.11,-680.55"/>
<polygon fill="#63b8ff" stroke="#63b8ff" points="720.76,-684.03 731.02,-681.4 721.35,-677.06 720.76,-684.03"/>
</g>
<!-- Node22 -->
<g id="node22" class="node">
<title>Node22</title>
<g id="a_node22"><a xlink:href="radio_8h.html#a632401c7e72610ff0a0678358b6877ad" target="_top" xlink:title=" ">
<polygon fill="white" stroke="#666666" points="846,-656 744,-656 744,-637 846,-637 846,-656"/>
<text text-anchor="middle" x="795" y="-644" font-family="Helvetica,sans-Serif" font-size="10.00">SendToAckPayload</text>
</a>
</g>
</g>
<!-- Node15&#45;&gt;Node22 -->
<g id="edge23" class="edge">
<title>Node15&#45;&gt;Node22</title>
<path fill="none" stroke="#63b8ff" d="M450.32,-581.34C469.34,-590.59 499.45,-604.1 527,-611.5 595.92,-630.02 677.57,-638.9 732.28,-643.05"/>
<polygon fill="#63b8ff" stroke="#63b8ff" points="731.79,-646.52 742.02,-643.76 732.3,-639.54 731.79,-646.52"/>
</g>
<!-- Node23 -->
<g id="node23" class="node">
<title>Node23</title>
<g id="a_node23"><a xlink:href="radio_8h.html#af56956a6b17dbdfc9fceedeb5a13cb71" target="_top" xlink:title=" ">
<polygon fill="white" stroke="#666666" points="697,-544 527,-544 527,-525 697,-525 697,-544"/>
<text text-anchor="middle" x="612" y="-532" font-family="Helvetica,sans-Serif" font-size="10.00">SendVersionNumberToAckPayload</text>
</a>
</g>
</g>
<!-- Node15&#45;&gt;Node23 -->
<g id="edge25" class="edge">
<title>Node15&#45;&gt;Node23</title>
<path fill="none" stroke="#63b8ff" d="M475.49,-562.35C498.43,-557.64 526.71,-551.83 551.49,-546.73"/>
<polygon fill="#63b8ff" stroke="#63b8ff" points="552.02,-550.2 561.11,-544.75 550.61,-543.34 552.02,-550.2"/>
</g>
<!-- Node17 -->
<g id="node17" class="node">
<title>Node17</title>
<g id="a_node17"><a xlink:href="radio_8h.html#ad21c5c00ff554736e4e21cee13773cd5" target="_top" xlink:title=" ">
<polygon fill="white" stroke="#666666" points="1036,-637 893,-637 893,-618 1036,-618 1036,-637"/>
<text text-anchor="middle" x="964.5" y="-625" font-family="Helvetica,sans-Serif" font-size="10.00">CheckWhetherItsTimeToHop</text>
</a>
</g>
</g>
<!-- Node16&#45;&gt;Node17 -->
<g id="edge16" class="edge">
<title>Node16&#45;&gt;Node17</title>
<path fill="none" stroke="#63b8ff" d="M856.47,-616C864.52,-616.86 872.89,-617.76 881.23,-618.66"/>
<polygon fill="#63b8ff" stroke="#63b8ff" points="880.75,-622.13 891.07,-619.72 881.5,-615.17 880.75,-622.13"/>
</g>
<!-- Node18 -->
<g id="node18" class="node">
<title>Node18</title>
<g id="a_node18"><a xlink:href="radio_8h.html#ae913e02ff1fdfed85e4248ec648c1c6e" target="_top" xlink:title=" ">
<polygon fill="white" stroke="#666666" points="1172,-637 1072,-637 1072,-618 1172,-618 1172,-637"/>
<text text-anchor="middle" x="1122" y="-625" font-family="Helvetica,sans-Serif" font-size="10.00">IncChannelNumber</text>
</a>
</g>
</g>
<!-- Node17&#45;&gt;Node18 -->
<g id="edge17" class="edge">
<title>Node17&#45;&gt;Node18</title>
<path fill="none" stroke="#63b8ff" d="M1036.42,-627.5C1044.39,-627.5 1052.45,-627.5 1060.27,-627.5"/>
<polygon fill="#63b8ff" stroke="#63b8ff" points="1060,-631 1070,-627.5 1060,-624 1060,-631"/>
</g>
<!-- Node20 -->
<g id="node20" class="node">
<title>Node20</title>
<g id="a_node20"><a xlink:href="radio_8h.html#a5b9bcce29081b0c53837ecb90e0a6b33" target="_top" xlink:title=" ">
<polygon fill="white" stroke="#666666" points="851.5,-581 738.5,-581 738.5,-562 851.5,-562 851.5,-581"/>
<text text-anchor="middle" x="795" y="-569" font-family="Helvetica,sans-Serif" font-size="10.00">SendIntToAckPayload</text>
</a>
</g>
</g>
<!-- Node19&#45;&gt;Node20 -->
<g id="edge19" class="edge">
<title>Node19&#45;&gt;Node20</title>
<path fill="none" stroke="#63b8ff" d="M659.14,-571.5C679.75,-571.5 704.44,-571.5 727.02,-571.5"/>
<polygon fill="#63b8ff" stroke="#63b8ff" points="726.74,-575 736.74,-571.5 726.74,-568 726.74,-575"/>
</g>
<!-- Node20&#45;&gt;Node17 -->
<g id="edge20" class="edge">
<title>Node20&#45;&gt;Node17</title>
<path fill="none" stroke="#63b8ff" d="M826.43,-581.41C836.2,-584.62 847.06,-588.19 857,-591.5 879.08,-598.85 903.7,-607.17 923.71,-613.95"/>
<polygon fill="#63b8ff" stroke="#63b8ff" points="922.57,-617.26 933.16,-617.16 924.82,-610.63 922.57,-617.26"/>
</g>
<!-- Node21&#45;&gt;Node17 -->
<g id="edge22" class="edge">
<title>Node21&#45;&gt;Node17</title>
<path fill="none" stroke="#63b8ff" d="M828.69,-674.59C837.87,-671.73 847.85,-668.56 857,-665.5 879.94,-657.84 905.46,-648.75 925.77,-641.39"/>
<polygon fill="#63b8ff" stroke="#63b8ff" points="926.85,-644.72 935.04,-638.01 924.45,-638.14 926.85,-644.72"/>
</g>
<!-- Node22&#45;&gt;Node17 -->
<g id="edge24" class="edge">
<title>Node22&#45;&gt;Node17</title>
<path fill="none" stroke="#63b8ff" d="M846.26,-640.8C857.28,-639.55 869.24,-638.19 881.15,-636.84"/>
<polygon fill="#63b8ff" stroke="#63b8ff" points="881.49,-640.33 891.03,-635.72 880.7,-633.37 881.49,-640.33"/>
</g>
<!-- Node25 -->
<g id="node25" class="node">
<title>Node25</title>
<g id="a_node25"><a xlink:href="radio_8h.html#a6feccc8c0583de3235616d42076f1371" target="_top" xlink:title=" ">
<polygon fill="white" stroke="#666666" points="647.5,-507 576.5,-507 576.5,-488 647.5,-488 647.5,-507"/>
<text text-anchor="middle" x="612" y="-495" font-family="Helvetica,sans-Serif" font-size="10.00">Decompress</text>
</a>
</g>
</g>
<!-- Node24&#45;&gt;Node25 -->
<g id="edge27" class="edge">
<title>Node24&#45;&gt;Node25</title>
<path fill="none" stroke="#63b8ff" d="M477.82,-511.56C504.59,-508.73 538.04,-505.2 564.71,-502.39"/>
<polygon fill="#63b8ff" stroke="#63b8ff" points="564.99,-505.88 574.56,-501.35 564.25,-498.92 564.99,-505.88"/>
</g>
<!-- Node26 -->
<g id="node26" class="node">
<title>Node26</title>
<g id="a_node26"><a xlink:href="RadioFunctions_8cpp.html#a52aa3e80bccf5e75346c93fdae63122d" target="_top" xlink:title=" ">
<polygon fill="white" stroke="#666666" points="662.5,-470 561.5,-470 561.5,-451 662.5,-451 662.5,-470"/>
<text text-anchor="middle" x="612" y="-458" font-family="Helvetica,sans-Serif" font-size="10.00">HopToNextChannel</text>
</a>
</g>
</g>
<!-- Node24&#45;&gt;Node26 -->
<g id="edge28" class="edge">
<title>Node24&#45;&gt;Node26</title>
<path fill="none" stroke="#63b8ff" d="M468.2,-506.57C475.84,-504.19 483.75,-501.47 491,-498.5 507.74,-491.65 510.03,-485.77 527,-479.5 534.34,-476.79 542.19,-474.39 550.03,-472.29"/>
<polygon fill="#63b8ff" stroke="#63b8ff" points="550.75,-475.72 559.6,-469.89 549.05,-468.93 550.75,-475.72"/>
</g>
<!-- Node28 -->
<g id="node28" class="node">
<title>Node28</title>
<g id="a_node28"><a xlink:href="ReceiverCode_2src_2main_8cpp.html#a6a495c5560f12cc3fd3df9454927d681" target="_top" xlink:title=" ">
<polygon fill="white" stroke="#666666" points="649,-396 575,-396 575,-377 649,-377 649,-396"/>
<text text-anchor="middle" x="612" y="-384" font-family="Helvetica,sans-Serif" font-size="10.00">MapToSBUS</text>
</a>
</g>
</g>
<!-- Node24&#45;&gt;Node28 -->
<g id="edge30" class="edge">
<title>Node24&#45;&gt;Node28</title>
<path fill="none" stroke="#63b8ff" d="M477.87,-507.18C482.66,-504.89 487.17,-502.04 491,-498.5 523.54,-468.4 493.44,-434.46 527,-405.5 537.16,-396.74 550.51,-391.78 563.57,-389.04"/>
<polygon fill="#63b8ff" stroke="#63b8ff" points="564.11,-392.5 573.4,-387.41 562.96,-385.6 564.11,-392.5"/>
</g>
<!-- Node27 -->
<g id="node27" class="node">
<title>Node27</title>
<g id="a_node27"><a xlink:href="radio_8h.html#a2863e7455e30e6fddc0fcf56f62d6564" target="_top" xlink:title=" ">
<polygon fill="white" stroke="#666666" points="850,-470 740,-470 740,-451 850,-451 850,-470"/>
<text text-anchor="middle" x="795" y="-458" font-family="Helvetica,sans-Serif" font-size="10.00">ShowHopDurationEtc</text>
</a>
</g>
</g>
<!-- Node26&#45;&gt;Node27 -->
<g id="edge29" class="edge">
<title>Node26&#45;&gt;Node27</title>
<path fill="none" stroke="#63b8ff" d="M662.94,-460.5C683.16,-460.5 706.79,-460.5 728.37,-460.5"/>
<polygon fill="#63b8ff" stroke="#63b8ff" points="728.27,-464 738.27,-460.5 728.27,-457 728.27,-464"/>
</g>
<!-- Node30 -->
<g id="node30" class="node">
<title>Node30</title>
<g id="a_node30"><a xlink:href="ReceiverCode_2src_2main_8cpp.html#a5ae8a2aa29e834880ccf370c7547961b" target="_top" xlink:title=" ">
<polygon fill="white" stroke="#666666" points="459.5,-415 400.5,-415 400.5,-396 459.5,-396 459.5,-415"/>
<text text-anchor="middle" x="430" y="-403" font-family="Helvetica,sans-Serif" font-size="10.00">MarkHere</text>
</a>
</g>
</g>
<!-- Node29&#45;&gt;Node30 -->
<g id="edge32" class="edge">
<title>Node29&#45;&gt;Node30</title>
<path fill="none" stroke="#63b8ff" d="M333.26,-394.05C351.7,-396.25 371.91,-398.67 388.99,-400.72"/>
<polygon fill="#63b8ff" stroke="#63b8ff" points="388.41,-404.17 398.76,-401.88 389.25,-397.22 388.41,-404.17"/>
</g>
<!-- Node32 -->
<g id="node32" class="node">
<title>Node32</title>
<g id="a_node32"><a xlink:href="ReceiverCode_2src_2main_8cpp.html#ad86a39e4cba19592c760833870f6f69c" target="_top" xlink:title=" ">
<polygon fill="white" stroke="#666666" points="466.5,-489 393.5,-489 393.5,-470 466.5,-470 466.5,-489"/>
<text text-anchor="middle" x="430" y="-477" font-family="Helvetica,sans-Serif" font-size="10.00">RebuildFlags</text>
</a>
</g>
</g>
<!-- Node29&#45;&gt;Node32 -->
<g id="edge34" class="edge">
<title>Node29&#45;&gt;Node32</title>
<path fill="none" stroke="#63b8ff" d="M287.62,-397.1C303,-412.75 335.66,-443.79 369,-461.5 373.21,-463.74 377.75,-465.74 382.36,-467.52"/>
<polygon fill="#63b8ff" stroke="#63b8ff" points="381.16,-470.8 391.75,-470.77 383.45,-464.19 381.16,-470.8"/>
</g>
<!-- Node33 -->
<g id="node33" class="node">
<title>Node33</title>
<g id="a_node33"><a xlink:href="ReceiverCode_2src_2main_8cpp.html#af2b1ba43295661243b7bb78004d470d8" target="_top" xlink:title=" ">
<polygon fill="white" stroke="#666666" points="488.5,-452 371.5,-452 371.5,-433 488.5,-433 488.5,-452"/>
<text text-anchor="middle" x="430" y="-440" font-family="Helvetica,sans-Serif" font-size="10.00">SendQnhToSensorHub</text>
</a>
</g>
</g>
<!-- Node29&#45;&gt;Node33 -->
<g id="edge35" class="edge">
<title>Node29&#45;&gt;Node33</title>
<path fill="none" stroke="#63b8ff" d="M300.95,-397.39C319.13,-405.22 345.47,-416.18 369,-424.5 373.5,-426.09 378.22,-427.66 382.95,-429.18"/>
<polygon fill="#63b8ff" stroke="#63b8ff" points="381.88,-432.51 392.47,-432.15 383.96,-425.83 381.88,-432.51"/>
</g>
<!-- Node34 -->
<g id="node34" class="node">
<title>Node34</title>
<g id="a_node34"><a xlink:href="ReceiverCode_2src_2main_8cpp.html#a31a35307bbac88ceda244272f25d399a" target="_top" xlink:title=" ">
<polygon fill="white" stroke="#666666" points="482,-378 378,-378 378,-359 482,-359 482,-378"/>
<text text-anchor="middle" x="430" y="-366" font-family="Helvetica,sans-Serif" font-size="10.00">SetTestFrequencies</text>
</a>
</g>
</g>
<!-- Node29&#45;&gt;Node34 -->
<g id="edge37" class="edge">
<title>Node29&#45;&gt;Node34</title>
<path fill="none" stroke="#63b8ff" d="M333.26,-380.59C343.99,-379.23 355.32,-377.8 366.28,-376.42"/>
<polygon fill="#63b8ff" stroke="#63b8ff" points="366.55,-379.91 376.04,-375.19 365.68,-372.97 366.55,-379.91"/>
</g>
<!-- Node29&#45;&gt;Node35 -->
<g id="edge38" class="edge">
<title>Node29&#45;&gt;Node35</title>
<path fill="none" stroke="#63b8ff" d="M286.51,-377.71C297.71,-363.75 318.32,-337.1 333,-312.5 351.95,-280.75 340.24,-260.74 369,-237.5 396.62,-215.18 488.67,-198.01 550.95,-188.59"/>
<polygon fill="#63b8ff" stroke="#63b8ff" points="551.33,-192.07 560.71,-187.14 550.3,-185.14 551.33,-192.07"/>
</g>
<!-- Node31 -->
<g id="node31" class="node">
<title>Node31</title>
<g id="a_node31"><a xlink:href="ReceiverCode_2src_2main_8cpp.html#a3f80da71956ba53fcff126bfe2296e65" target="_top" xlink:title=" ">
<polygon fill="white" stroke="#666666" points="661.5,-433 562.5,-433 562.5,-414 661.5,-414 661.5,-433"/>
<text text-anchor="middle" x="612" y="-421" font-family="Helvetica,sans-Serif" font-size="10.00">SendToSensorHub</text>
</a>
</g>
</g>
<!-- Node30&#45;&gt;Node31 -->
<g id="edge33" class="edge">
<title>Node30&#45;&gt;Node31</title>
<path fill="none" stroke="#63b8ff" d="M459.92,-408.39C484.33,-410.83 520.09,-414.41 550.69,-417.47"/>
<polygon fill="#63b8ff" stroke="#63b8ff" points="550.33,-420.95 560.63,-418.46 551.02,-413.98 550.33,-420.95"/>
</g>
<!-- Node33&#45;&gt;Node31 -->
<g id="edge36" class="edge">
<title>Node33&#45;&gt;Node31</title>
<path fill="none" stroke="#63b8ff" d="M488.94,-436.38C508.7,-434.3 530.83,-431.96 550.77,-429.86"/>
<polygon fill="#63b8ff" stroke="#63b8ff" points="551.14,-433.34 560.71,-428.81 550.4,-426.38 551.14,-433.34"/>
</g>
<!-- Node37&#45;&gt;Node8 -->
<g id="edge50" class="edge">
<title>Node37&#45;&gt;Node8</title>
<path fill="none" stroke="#63b8ff" d="M309.41,-264.57C317.37,-267.51 325.73,-271.15 333,-275.5 351.37,-286.49 350.79,-296.25 369,-307.5 374.95,-311.18 381.56,-314.49 388.16,-317.39"/>
<polygon fill="#63b8ff" stroke="#63b8ff" points="386.43,-320.47 397.01,-321.03 389.1,-313.99 386.43,-320.47"/>
</g>
<!-- Node38 -->
<g id="node38" class="node">
<title>Node38</title>
<g id="a_node38"><a xlink:href="ReceiverCode_2src_2main_8cpp.html#aa477cf7453bb57dab00e7b654f62cb13" target="_top" xlink:title=" ">
<polygon fill="white" stroke="#666666" points="639.5,-303 584.5,-303 584.5,-284 639.5,-284 639.5,-303"/>
<text text-anchor="middle" x="612" y="-291" font-family="Helvetica,sans-Serif" font-size="10.00">BlinkLed</text>
</a>
</g>
</g>
<!-- Node37&#45;&gt;Node38 -->
<g id="edge41" class="edge">
<title>Node37&#45;&gt;Node38</title>
<path fill="none" stroke="#63b8ff" d="M309.32,-263C326.74,-266.98 348.98,-271.62 369,-274.5 440.53,-284.77 524.81,-289.81 572.66,-292.01"/>
<polygon fill="#63b8ff" stroke="#63b8ff" points="572.36,-295.5 582.51,-292.45 572.67,-288.51 572.36,-295.5"/>
</g>
<!-- Node39 -->
<g id="node39" class="node">
<title>Node39</title>
<g id="a_node39"><a xlink:href="ReceiverCode_2src_2main_8cpp.html#a42318598726782ebb2e1857f167c8cda" target="_top" xlink:title=" ">
<polygon fill="white" stroke="#666666" points="456.5,-265 403.5,-265 403.5,-246 456.5,-246 456.5,-265"/>
<text text-anchor="middle" x="430" y="-253" font-family="Helvetica,sans-Serif" font-size="10.00">FailSafe</text>
</a>
</g>
</g>
<!-- Node37&#45;&gt;Node39 -->
<g id="edge44" class="edge">
<title>Node37&#45;&gt;Node39</title>
<path fill="none" stroke="#63b8ff" d="M309.32,-255.5C333.22,-255.5 366.45,-255.5 391.83,-255.5"/>
<polygon fill="#63b8ff" stroke="#63b8ff" points="391.71,-259 401.71,-255.5 391.71,-252 391.71,-259"/>
</g>
<!-- Node41 -->
<g id="node41" class="node">
<title>Node41</title>
<g id="a_node41"><a xlink:href="TransmitterCode_2src_2main_8cpp.html#ada95a00a341e4a80176eda743a94ab2e" target="_top" xlink:title=" ">
<polygon fill="white" stroke="#666666" points="465,-189 395,-189 395,-170 465,-170 465,-189"/>
<text text-anchor="middle" x="430" y="-177" font-family="Helvetica,sans-Serif" font-size="10.00">KickTheDog</text>
</a>
</g>
</g>
<!-- Node37&#45;&gt;Node41 -->
<g id="edge51" class="edge">
<title>Node37&#45;&gt;Node41</title>
<path fill="none" stroke="#63b8ff" d="M309.23,-247.94C317.27,-245.28 325.73,-241.84 333,-237.5 351.9,-226.22 350.46,-215.35 369,-203.5 374.63,-199.9 380.89,-196.68 387.18,-193.85"/>
<polygon fill="#63b8ff" stroke="#63b8ff" points="388.41,-197.13 396.3,-190.05 385.72,-190.67 388.41,-197.13"/>
</g>
<!-- Node42 -->
<g id="node42" class="node">
<title>Node42</title>
<g id="a_node42"><a xlink:href="radio_8h.html#a62f1498f67d7e438905ae486bc27044f" target="_top" xlink:title=" ">
<polygon fill="white" stroke="#666666" points="643,-113 581,-113 581,-94 643,-94 643,-113"/>
<text text-anchor="middle" x="612" y="-101" font-family="Helvetica,sans-Serif" font-size="10.00">ProdRadio</text>
</a>
</g>
</g>
<!-- Node37&#45;&gt;Node42 -->
<g id="edge52" class="edge">
<title>Node37&#45;&gt;Node42</title>
<path fill="none" stroke="#63b8ff" d="M309.26,-250.71C317.86,-248.05 326.6,-243.92 333,-237.5 369.32,-201.08 328.89,-159.71 369,-127.5 426.07,-81.66 516.85,-86.9 569.49,-95.06"/>
<polygon fill="#63b8ff" stroke="#63b8ff" points="568.82,-98.5 579.26,-96.69 569.97,-91.59 568.82,-98.5"/>
</g>
<!-- Node44 -->
<g id="node44" class="node">
<title>Node44</title>
<g id="a_node44"><a xlink:href="radio_8h.html#a1208ef26dd460e6f5f56582f4fbfcf94" target="_top" xlink:title=" ">
<polygon fill="white" stroke="#666666" points="844,-151 746,-151 746,-132 844,-132 844,-151"/>
<text text-anchor="middle" x="795" y="-139" font-family="Helvetica,sans-Serif" font-size="10.00">TryToConnectNow</text>
</a>
</g>
</g>
<!-- Node37&#45;&gt;Node44 -->
<g id="edge59" class="edge">
<title>Node37&#45;&gt;Node44</title>
<path fill="none" stroke="#63b8ff" d="M309.33,-250.01C317.74,-247.34 326.35,-243.37 333,-237.5 361.01,-212.75 337.9,-182.22 369,-161.5 427.15,-122.75 631.51,-130.36 734.18,-136.96"/>
<polygon fill="#63b8ff" stroke="#63b8ff" points="733.86,-140.45 744.07,-137.62 734.33,-133.46 733.86,-140.45"/>
</g>
<!-- Node45 -->
<g id="node45" class="node">
<title>Node45</title>
<g id="a_node45"><a xlink:href="radio_8h.html#adfacfc7d075937cec51b7bcd08d323ca" target="_top" xlink:title=" ">
<polygon fill="white" stroke="#666666" points="491,-37 369,-37 369,-18 491,-18 491,-37"/>
<text text-anchor="middle" x="430" y="-25" font-family="Helvetica,sans-Serif" font-size="10.00">TryTheOtherTransceiver</text>
</a>
</g>
</g>
<!-- Node37&#45;&gt;Node45 -->
<g id="edge55" class="edge">
<title>Node37&#45;&gt;Node45</title>
<path fill="none" stroke="#63b8ff" d="M309.29,-251.1C318,-248.46 326.78,-244.24 333,-237.5 378.91,-187.75 336.32,-148.78 369,-89.5 378.64,-72.02 394.5,-55.94 407.49,-44.54"/>
<polygon fill="#63b8ff" stroke="#63b8ff" points="409.37,-47.53 414.76,-38.41 404.86,-42.18 409.37,-47.53"/>
</g>
<!-- Node38&#45;&gt;Node11 -->
<g id="edge42" class="edge">
<title>Node38&#45;&gt;Node11</title>
<path fill="none" stroke="#63b8ff" d="M639.71,-288.04C669.04,-282.04 716.56,-272.33 751.12,-265.26"/>
<polygon fill="#63b8ff" stroke="#63b8ff" points="751.72,-268.71 760.82,-263.28 750.32,-261.86 751.72,-268.71"/>
</g>
<!-- Node38&#45;&gt;Node12 -->
<g id="edge43" class="edge">
<title>Node38&#45;&gt;Node12</title>
<path fill="none" stroke="#63b8ff" d="M639.71,-293.5C669.04,-293.5 716.56,-293.5 751.12,-293.5"/>
<polygon fill="#63b8ff" stroke="#63b8ff" points="750.79,-297 760.79,-293.5 750.79,-290 750.79,-297"/>
</g>
<!-- Node39&#45;&gt;Node9 -->
<g id="edge47" class="edge">
<title>Node39&#45;&gt;Node9</title>
<path fill="none" stroke="#63b8ff" d="M444.27,-265.29C462.15,-278.03 495.42,-300.12 527,-312.5 539.01,-317.21 552.5,-320.79 565.09,-323.47"/>
<polygon fill="#63b8ff" stroke="#63b8ff" points="564.37,-326.89 574.85,-325.39 565.72,-320.02 564.37,-326.89"/>
</g>
<!-- Node39&#45;&gt;Node11 -->
<g id="edge49" class="edge">
<title>Node39&#45;&gt;Node11</title>
<path fill="none" stroke="#63b8ff" d="M456.82,-255.57C518.52,-255.74 675.06,-256.17 751.16,-256.38"/>
<polygon fill="#63b8ff" stroke="#63b8ff" points="750.7,-259.88 760.71,-256.41 750.72,-252.88 750.7,-259.88"/>
</g>
<!-- Node39&#45;&gt;Node28 -->
<g id="edge46" class="edge">
<title>Node39&#45;&gt;Node28</title>
<path fill="none" stroke="#63b8ff" d="M441.24,-265.3C453.23,-276.79 473.64,-296.44 491,-313.5 507.14,-329.36 508.33,-336.72 527,-349.5 540.41,-358.68 556.47,-366.42 570.94,-372.41"/>
<polygon fill="#63b8ff" stroke="#63b8ff" points="569.63,-375.65 580.22,-376.08 572.21,-369.14 569.63,-375.65"/>
</g>
<!-- Node39&#45;&gt;Node35 -->
<g id="edge48" class="edge">
<title>Node39&#45;&gt;Node35</title>
<path fill="none" stroke="#63b8ff" d="M456.75,-247.42C467.72,-243.43 480.41,-238.05 491,-231.5 509.21,-220.25 507.96,-209.28 527,-199.5 534.49,-195.65 542.75,-192.58 551.08,-190.12"/>
<polygon fill="#63b8ff" stroke="#63b8ff" points="551.77,-193.56 560.55,-187.63 549.98,-186.79 551.77,-193.56"/>
</g>
<!-- Node40 -->
<g id="node40" class="node">
<title>Node40</title>
<g id="a_node40"><a xlink:href="ReceiverCode_2src_2main_8cpp.html#a7b232e8049c83655363495df07fc96d9" target="_top" xlink:title=" ">
<polygon fill="white" stroke="#666666" points="659.5,-227 564.5,-227 564.5,-208 659.5,-208 659.5,-227"/>
<text text-anchor="middle" x="612" y="-215" font-family="Helvetica,sans-Serif" font-size="10.00">LoadFailSafeData</text>
</a>
</g>
</g>
<!-- Node39&#45;&gt;Node40 -->
<g id="edge45" class="edge">
<title>Node39&#45;&gt;Node40</title>
<path fill="none" stroke="#63b8ff" d="M456.79,-250.06C481.83,-244.77 520.72,-236.56 553.17,-229.71"/>
<polygon fill="#63b8ff" stroke="#63b8ff" points="553.81,-233.15 562.87,-227.66 552.36,-226.3 553.81,-233.15"/>
</g>
<!-- Node43 -->
<g id="node43" class="node">
<title>Node43</title>
<g id="a_node43"><a xlink:href="radio_8h.html#a3bb52983d9a2108589830301007bdce1" target="_top" xlink:title=" ">
<polygon fill="white" stroke="#666666" points="836,-113 754,-113 754,-94 836,-94 836,-113"/>
<text text-anchor="middle" x="795" y="-101" font-family="Helvetica,sans-Serif" font-size="10.00">ConfigureRadio</text>
</a>
</g>
</g>
<!-- Node42&#45;&gt;Node43 -->
<g id="edge53" class="edge">
<title>Node42&#45;&gt;Node43</title>
<path fill="none" stroke="#63b8ff" d="M643.3,-103.5C670.27,-103.5 710.32,-103.5 742.35,-103.5"/>
<polygon fill="#63b8ff" stroke="#63b8ff" points="742.23,-107 752.23,-103.5 742.23,-100 742.23,-107"/>
</g>
<!-- Node42&#45;&gt;Node44 -->
<g id="edge54" class="edge">
<title>Node42&#45;&gt;Node44</title>
<path fill="none" stroke="#63b8ff" d="M643.3,-109.86C668.39,-115.13 704.79,-122.77 735.53,-129.23"/>
<polygon fill="#63b8ff" stroke="#63b8ff" points="734.58,-132.6 745.09,-131.23 736.02,-125.75 734.58,-132.6"/>
</g>
<!-- Node45&#45;&gt;Node42 -->
<g id="edge56" class="edge">
<title>Node45&#45;&gt;Node42</title>
<path fill="none" stroke="#63b8ff" d="M456.17,-37.38C466.93,-41.66 479.61,-46.75 491,-51.5 520.63,-63.84 554.12,-78.41 578.18,-88.98"/>
<polygon fill="#63b8ff" stroke="#63b8ff" points="576.57,-92.1 587.14,-92.92 579.4,-85.69 576.57,-92.1"/>
</g>
<!-- Node46 -->
<g id="node46" class="node">
<title>Node46</title>
<g id="a_node46"><a xlink:href="radio_8h.html#a8b76f3c338025926421c7b308405bbfd" target="_top" xlink:title=" ">
<polygon fill="white" stroke="#666666" points="635.5,-56 588.5,-56 588.5,-37 635.5,-37 635.5,-56"/>
<text text-anchor="middle" x="612" y="-44" font-family="Helvetica,sans-Serif" font-size="10.00">Radio2</text>
</a>
</g>
</g>
<!-- Node45&#45;&gt;Node46 -->
<g id="edge57" class="edge">
<title>Node45&#45;&gt;Node46</title>
<path fill="none" stroke="#63b8ff" d="M491.44,-33.88C519.92,-36.89 552.85,-40.36 576.93,-42.9"/>
<polygon fill="#63b8ff" stroke="#63b8ff" points="576.49,-46.38 586.8,-43.95 577.23,-39.42 576.49,-46.38"/>
</g>
<!-- Node47 -->
<g id="node47" class="node">
<title>Node47</title>
<g id="a_node47"><a xlink:href="radio_8h.html#ac980be068a45a1406b0e244304741ac6" target="_top" xlink:title=" ">
<polygon fill="white" stroke="#666666" points="669,-19 555,-19 555,0 669,0 669,-19"/>
<text text-anchor="middle" x="612" y="-7" font-family="Helvetica,sans-Serif" font-size="10.00">SwapChipEnableLines</text>
</a>
</g>
</g>
<!-- Node45&#45;&gt;Node47 -->
<g id="edge58" class="edge">
<title>Node45&#45;&gt;Node47</title>
<path fill="none" stroke="#63b8ff" d="M491.44,-21.46C508.19,-19.78 526.49,-17.95 543.61,-16.24"/>
<polygon fill="#63b8ff" stroke="#63b8ff" points="543.56,-19.76 553.17,-15.28 542.87,-12.8 543.56,-19.76"/>
</g>
</g>
</svg>
