<?xml version="1.0" encoding="UTF-8" standalone="no"?>
<!DOCTYPE svg PUBLIC "-//W3C//DTD SVG 1.1//EN"
 "http://www.w3.org/Graphics/SVG/1.1/DTD/svg11.dtd">
<!-- Generated by graphviz version 7.0.5 (20221223.1930)
 -->
<!-- Title: ReadData Pages: 1 -->
<svg width="877pt" height="437pt"
 viewBox="0.00 0.00 877.00 437.00" xmlns="http://www.w3.org/2000/svg" xmlns:xlink="http://www.w3.org/1999/xlink">
<g id="graph0" class="graph" transform="scale(1 1) rotate(0) translate(4 433)">
<title>ReadData</title>
<!-- Node1 -->
<g id="node1" class="node">
<title>Node1</title>
<g id="a_node1"><a xlink:title=" ">
<polygon fill="#999999" stroke="#666666" points="59,-242 0,-242 0,-223 59,-223 59,-242"/>
<text text-anchor="middle" x="29.5" y="-230" font-family="Helvetica,sans-Serif" font-size="10.00">ReadData</text>
</a>
</g>
</g>
<!-- Node2 -->
<g id="node2" class="node">
<title>Node2</title>
<g id="a_node2"><a xlink:href="radio_8h.html#a664f409561bfcf119e0379dd991217e5" target="_top" xlink:title=" ">
<polygon fill="white" stroke="#666666" points="187.5,-335 97.5,-335 97.5,-316 187.5,-316 187.5,-335"/>
<text text-anchor="middle" x="142.5" y="-323" font-family="Helvetica,sans-Serif" font-size="10.00">LoadAckPayload</text>
</a>
</g>
</g>
<!-- Node1&#45;&gt;Node2 -->
<g id="edge1" class="edge">
<title>Node1&#45;&gt;Node2</title>
<path fill="none" stroke="#63b8ff" d="M42.38,-242.45C61.16,-258.18 97.93,-289 121.02,-308.34"/>
<polygon fill="#63b8ff" stroke="#63b8ff" points="118.63,-310.91 128.55,-314.65 123.13,-305.54 118.63,-310.91"/>
</g>
<!-- Node11 -->
<g id="node11" class="node">
<title>Node11</title>
<g id="a_node11"><a xlink:href="ReceiverCode_2src_2main_8cpp.html#abb1997c589abc6432f612eaedf985e38" target="_top" xlink:title=" ">
<polygon fill="white" stroke="#666666" points="190,-186 95,-186 95,-167 190,-167 190,-186"/>
<text text-anchor="middle" x="142.5" y="-174" font-family="Helvetica,sans-Serif" font-size="10.00">UseReceivedData</text>
</a>
</g>
</g>
<!-- Node1&#45;&gt;Node11 -->
<g id="edge13" class="edge">
<title>Node1&#45;&gt;Node11</title>
<path fill="none" stroke="#63b8ff" d="M50.09,-222.62C67.1,-214.03 92.01,-201.47 111.53,-191.62"/>
<polygon fill="#63b8ff" stroke="#63b8ff" points="113.03,-194.78 120.38,-187.15 109.88,-188.53 113.03,-194.78"/>
</g>
<!-- Node3 -->
<g id="node3" class="node">
<title>Node3</title>
<g id="a_node3"><a xlink:href="radio_8h.html#affa2dcc4341b8daecac77e6e0a354b2d" target="_top" xlink:title=" ">
<polygon fill="white" stroke="#666666" points="554,-429 432,-429 432,-410 554,-410 554,-429"/>
<text text-anchor="middle" x="493" y="-417" font-family="Helvetica,sans-Serif" font-size="10.00">SendDateToAckPayload</text>
</a>
</g>
</g>
<!-- Node2&#45;&gt;Node3 -->
<g id="edge2" class="edge">
<title>Node2&#45;&gt;Node3</title>
<path fill="none" stroke="#63b8ff" d="M150.58,-335.26C163.43,-352.08 192.37,-386.1 226,-400.5 287.69,-426.91 364.79,-429.51 420.08,-426.79"/>
<polygon fill="#63b8ff" stroke="#63b8ff" points="420.24,-430.29 430.02,-426.22 419.84,-423.3 420.24,-430.29"/>
</g>
<!-- Node6 -->
<g id="node6" class="node">
<title>Node6</title>
<g id="a_node6"><a xlink:href="radio_8h.html#ab6bb1ded4e272b24f150c28295f4d291" target="_top" xlink:title=" ">
<polygon fill="white" stroke="#666666" points="358,-391 264,-391 264,-372 358,-372 358,-391"/>
<text text-anchor="middle" x="311" y="-379" font-family="Helvetica,sans-Serif" font-size="10.00">SendMacAddress</text>
</a>
</g>
</g>
<!-- Node2&#45;&gt;Node6 -->
<g id="edge5" class="edge">
<title>Node2&#45;&gt;Node6</title>
<path fill="none" stroke="#63b8ff" d="M162.02,-335.47C178.44,-343.95 203.26,-355.93 226,-363.5 234.46,-366.32 243.54,-368.8 252.51,-370.95"/>
<polygon fill="#63b8ff" stroke="#63b8ff" points="251.73,-374.36 262.26,-373.16 253.28,-367.53 251.73,-374.36"/>
</g>
<!-- Node8 -->
<g id="node8" class="node">
<title>Node8</title>
<g id="a_node8"><a xlink:href="radio_8h.html#a8162c1748e39496c4adf88c55d1c49b8" target="_top" xlink:title=" ">
<polygon fill="white" stroke="#666666" points="373,-354 249,-354 249,-335 373,-335 373,-354"/>
<text text-anchor="middle" x="311" y="-342" font-family="Helvetica,sans-Serif" font-size="10.00">SendTimeToAckPayload</text>
</a>
</g>
</g>
<!-- Node2&#45;&gt;Node8 -->
<g id="edge8" class="edge">
<title>Node2&#45;&gt;Node8</title>
<path fill="none" stroke="#63b8ff" d="M187.68,-330.54C203.01,-332.29 220.63,-334.3 237.63,-336.24"/>
<polygon fill="#63b8ff" stroke="#63b8ff" points="236.85,-339.68 247.18,-337.33 237.64,-332.72 236.85,-339.68"/>
</g>
<!-- Node9 -->
<g id="node9" class="node">
<title>Node9</title>
<g id="a_node9"><a xlink:href="radio_8h.html#a632401c7e72610ff0a0678358b6877ad" target="_top" xlink:title=" ">
<polygon fill="white" stroke="#666666" points="544,-316 442,-316 442,-297 544,-297 544,-316"/>
<text text-anchor="middle" x="493" y="-304" font-family="Helvetica,sans-Serif" font-size="10.00">SendToAckPayload</text>
</a>
</g>
</g>
<!-- Node2&#45;&gt;Node9 -->
<g id="edge10" class="edge">
<title>Node2&#45;&gt;Node9</title>
<path fill="none" stroke="#63b8ff" d="M187.99,-323.07C249.52,-319.72 360.86,-313.65 430.37,-309.86"/>
<polygon fill="#63b8ff" stroke="#63b8ff" points="430.27,-313.37 440.06,-309.33 429.89,-306.38 430.27,-313.37"/>
</g>
<!-- Node10 -->
<g id="node10" class="node">
<title>Node10</title>
<g id="a_node10"><a xlink:href="radio_8h.html#af56956a6b17dbdfc9fceedeb5a13cb71" target="_top" xlink:title=" ">
<polygon fill="white" stroke="#666666" points="396,-278 226,-278 226,-259 396,-259 396,-278"/>
<text text-anchor="middle" x="311" y="-266" font-family="Helvetica,sans-Serif" font-size="10.00">SendVersionNumberToAckPayload</text>
</a>
</g>
</g>
<!-- Node2&#45;&gt;Node10 -->
<g id="edge12" class="edge">
<title>Node2&#45;&gt;Node10</title>
<path fill="none" stroke="#63b8ff" d="M166.38,-315.62C182.81,-308.7 205.56,-299.49 226,-292.5 237.31,-288.63 249.62,-284.87 261.24,-281.52"/>
<polygon fill="#63b8ff" stroke="#63b8ff" points="261.99,-284.94 270.66,-278.85 260.08,-278.21 261.99,-284.94"/>
</g>
<!-- Node4 -->
<g id="node4" class="node">
<title>Node4</title>
<g id="a_node4"><a xlink:href="radio_8h.html#ad21c5c00ff554736e4e21cee13773cd5" target="_top" xlink:title=" ">
<polygon fill="white" stroke="#666666" points="733,-373 590,-373 590,-354 733,-354 733,-373"/>
<text text-anchor="middle" x="661.5" y="-361" font-family="Helvetica,sans-Serif" font-size="10.00">CheckWhetherItsTimeToHop</text>
</a>
</g>
</g>
<!-- Node3&#45;&gt;Node4 -->
<g id="edge3" class="edge">
<title>Node3&#45;&gt;Node4</title>
<path fill="none" stroke="#63b8ff" d="M528.36,-409.52C536.77,-406.99 545.73,-404.21 554,-401.5 577.14,-393.91 602.85,-384.75 623.22,-377.33"/>
<polygon fill="#63b8ff" stroke="#63b8ff" points="624.32,-380.65 632.51,-373.93 621.92,-374.08 624.32,-380.65"/>
</g>
<!-- Node5 -->
<g id="node5" class="node">
<title>Node5</title>
<g id="a_node5"><a xlink:href="radio_8h.html#ae913e02ff1fdfed85e4248ec648c1c6e" target="_top" xlink:title=" ">
<polygon fill="white" stroke="#666666" points="869,-373 769,-373 769,-354 869,-354 869,-373"/>
<text text-anchor="middle" x="819" y="-361" font-family="Helvetica,sans-Serif" font-size="10.00">IncChannelNumber</text>
</a>
</g>
</g>
<!-- Node4&#45;&gt;Node5 -->
<g id="edge4" class="edge">
<title>Node4&#45;&gt;Node5</title>
<path fill="none" stroke="#63b8ff" d="M733.42,-363.5C741.39,-363.5 749.45,-363.5 757.27,-363.5"/>
<polygon fill="#63b8ff" stroke="#63b8ff" points="757,-367 767,-363.5 757,-360 757,-367"/>
</g>
<!-- Node7 -->
<g id="node7" class="node">
<title>Node7</title>
<g id="a_node7"><a xlink:href="radio_8h.html#a5b9bcce29081b0c53837ecb90e0a6b33" target="_top" xlink:title=" ">
<polygon fill="white" stroke="#666666" points="549.5,-392 436.5,-392 436.5,-373 549.5,-373 549.5,-392"/>
<text text-anchor="middle" x="493" y="-380" font-family="Helvetica,sans-Serif" font-size="10.00">SendIntToAckPayload</text>
</a>
</g>
</g>
<!-- Node6&#45;&gt;Node7 -->
<g id="edge6" class="edge">
<title>Node6&#45;&gt;Node7</title>
<path fill="none" stroke="#63b8ff" d="M358.35,-381.76C378.58,-381.87 402.68,-382 424.82,-382.13"/>
<polygon fill="#63b8ff" stroke="#63b8ff" points="424.65,-385.63 434.67,-382.18 424.69,-378.63 424.65,-385.63"/>
</g>
<!-- Node7&#45;&gt;Node4 -->
<g id="edge7" class="edge">
<title>Node7&#45;&gt;Node4</title>
<path fill="none" stroke="#63b8ff" d="M549.91,-376.12C559.07,-375.07 568.74,-373.97 578.38,-372.87"/>
<polygon fill="#63b8ff" stroke="#63b8ff" points="578.62,-376.37 588.16,-371.76 577.83,-369.41 578.62,-376.37"/>
</g>
<!-- Node8&#45;&gt;Node4 -->
<g id="edge9" class="edge">
<title>Node8&#45;&gt;Node4</title>
<path fill="none" stroke="#63b8ff" d="M373.1,-347.83C429.98,-350.93 515.2,-355.58 578.08,-359.01"/>
<polygon fill="#63b8ff" stroke="#63b8ff" points="577.86,-362.5 588.03,-359.55 578.24,-355.51 577.86,-362.5"/>
</g>
<!-- Node9&#45;&gt;Node4 -->
<g id="edge11" class="edge">
<title>Node9&#45;&gt;Node4</title>
<path fill="none" stroke="#63b8ff" d="M523,-316.43C550.14,-325.72 590.89,-339.67 620.99,-349.97"/>
<polygon fill="#63b8ff" stroke="#63b8ff" points="619.52,-353.17 630.12,-353.1 621.79,-346.55 619.52,-353.17"/>
</g>
<!-- Node12 -->
<g id="node12" class="node">
<title>Node12</title>
<g id="a_node12"><a xlink:href="ReceiverCode_2src_2main_8cpp.html#a8081d48adef22adce1d0dd4b5d910ef6" target="_top" xlink:title=" ">
<polygon fill="white" stroke="#666666" points="363.5,-241 258.5,-241 258.5,-222 363.5,-222 363.5,-241"/>
<text text-anchor="middle" x="311" y="-229" font-family="Helvetica,sans-Serif" font-size="10.00">CopyDataToBeUsed</text>
</a>
</g>
</g>
<!-- Node11&#45;&gt;Node12 -->
<g id="edge14" class="edge">
<title>Node11&#45;&gt;Node12</title>
<path fill="none" stroke="#63b8ff" d="M162.38,-186.35C178.82,-194.58 203.47,-206.13 226,-213.5 232.7,-215.69 239.78,-217.69 246.89,-219.49"/>
<polygon fill="#63b8ff" stroke="#63b8ff" points="246,-222.87 256.54,-221.8 247.63,-216.06 246,-222.87"/>
</g>
<!-- Node13 -->
<g id="node13" class="node">
<title>Node13</title>
<g id="a_node13"><a xlink:href="radio_8h.html#a6feccc8c0583de3235616d42076f1371" target="_top" xlink:title=" ">
<polygon fill="white" stroke="#666666" points="346.5,-204 275.5,-204 275.5,-185 346.5,-185 346.5,-204"/>
<text text-anchor="middle" x="311" y="-192" font-family="Helvetica,sans-Serif" font-size="10.00">Decompress</text>
</a>
</g>
</g>
<!-- Node11&#45;&gt;Node13 -->
<g id="edge15" class="edge">
<title>Node11&#45;&gt;Node13</title>
<path fill="none" stroke="#63b8ff" d="M190.32,-181.56C213.36,-184.05 241.04,-187.04 263.97,-189.52"/>
<polygon fill="#63b8ff" stroke="#63b8ff" points="263.32,-192.97 273.64,-190.57 264.07,-186.01 263.32,-192.97"/>
</g>
<!-- Node14 -->
<g id="node14" class="node">
<title>Node14</title>
<g id="a_node14"><a xlink:href="transceiver_8h.html#a52aa3e80bccf5e75346c93fdae63122d" target="_top" xlink:title=" ">
<polygon fill="white" stroke="#666666" points="361.5,-167 260.5,-167 260.5,-148 361.5,-148 361.5,-167"/>
<text text-anchor="middle" x="311" y="-155" font-family="Helvetica,sans-Serif" font-size="10.00">HopToNextChannel</text>
</a>
</g>
</g>
<!-- Node11&#45;&gt;Node14 -->
<g id="edge16" class="edge">
<title>Node11&#45;&gt;Node14</title>
<path fill="none" stroke="#63b8ff" d="M190.32,-171.16C208.41,-169.09 229.35,-166.7 248.62,-164.5"/>
<polygon fill="#63b8ff" stroke="#63b8ff" points="249,-167.98 258.54,-163.37 248.2,-161.03 249,-167.98"/>
</g>
<!-- Node15 -->
<g id="node15" class="node">
<title>Node15</title>
<g id="a_node15"><a xlink:href="ReceiverCode_2src_2main_8cpp.html#a6a495c5560f12cc3fd3df9454927d681" target="_top" xlink:title=" ">
<polygon fill="white" stroke="#666666" points="348,-130 274,-130 274,-111 348,-111 348,-130"/>
<text text-anchor="middle" x="311" y="-118" font-family="Helvetica,sans-Serif" font-size="10.00">MapToSBUS</text>
</a>
</g>
</g>
<!-- Node11&#45;&gt;Node15 -->
<g id="edge17" class="edge">
<title>Node11&#45;&gt;Node15</title>
<path fill="none" stroke="#63b8ff" d="M162.73,-166.56C179.18,-158.37 203.66,-146.95 226,-139.5 237.61,-135.63 250.38,-132.29 262.38,-129.54"/>
<polygon fill="#63b8ff" stroke="#63b8ff" points="263.1,-132.97 272.12,-127.41 261.6,-126.13 263.1,-132.97"/>
</g>
<!-- Node16 -->
<g id="node16" class="node">
<title>Node16</title>
<g id="a_node16"><a xlink:href="ReceiverCode_2src_2main_8cpp.html#a6c490ef42e364f8bb1430c436e86c9c0" target="_top" xlink:title=" ">
<polygon fill="white" stroke="#666666" points="366.5,-93 255.5,-93 255.5,-74 366.5,-74 366.5,-93"/>
<text text-anchor="middle" x="311" y="-81" font-family="Helvetica,sans-Serif" font-size="10.00">ReadExtraParameters</text>
</a>
</g>
</g>
<!-- Node11&#45;&gt;Node16 -->
<g id="edge18" class="edge">
<title>Node11&#45;&gt;Node16</title>
<path fill="none" stroke="#63b8ff" d="M151.5,-166.61C165.06,-150.55 194.2,-118.92 226,-102.5 231.79,-99.51 238.04,-96.99 244.42,-94.86"/>
<polygon fill="#63b8ff" stroke="#63b8ff" points="245.21,-98.28 253.8,-92.07 243.21,-91.57 245.21,-98.28"/>
</g>
<!-- Node17 -->
<g id="node17" class="node">
<title>Node17</title>
<g id="a_node17"><a xlink:href="ReceiverCode_2src_2main_8cpp.html#a5ae8a2aa29e834880ccf370c7547961b" target="_top" xlink:title=" ">
<polygon fill="white" stroke="#666666" points="522.5,-167 463.5,-167 463.5,-148 522.5,-148 522.5,-167"/>
<text text-anchor="middle" x="493" y="-155" font-family="Helvetica,sans-Serif" font-size="10.00">MarkHere</text>
</a>
</g>
</g>
<!-- Node16&#45;&gt;Node17 -->
<g id="edge19" class="edge">
<title>Node16&#45;&gt;Node17</title>
<path fill="none" stroke="#63b8ff" d="M366.58,-91.03C376.75,-93.75 387,-97.46 396,-102.5 416.02,-113.72 412.38,-127.6 432,-139.5 438.22,-143.28 445.3,-146.31 452.35,-148.73"/>
<polygon fill="#63b8ff" stroke="#63b8ff" points="451.25,-152.05 461.83,-151.6 453.28,-145.35 451.25,-152.05"/>
</g>
<!-- Node19 -->
<g id="node19" class="node">
<title>Node19</title>
<g id="a_node19"><a xlink:href="ReceiverCode_2src_2main_8cpp.html#ad86a39e4cba19592c760833870f6f69c" target="_top" xlink:title=" ">
<polygon fill="white" stroke="#666666" points="529.5,-130 456.5,-130 456.5,-111 529.5,-111 529.5,-130"/>
<text text-anchor="middle" x="493" y="-118" font-family="Helvetica,sans-Serif" font-size="10.00">RebuildFlags</text>
</a>
</g>
</g>
<!-- Node16&#45;&gt;Node19 -->
<g id="edge21" class="edge">
<title>Node16&#45;&gt;Node19</title>
<path fill="none" stroke="#63b8ff" d="M360.24,-93.42C386.54,-98.82 418.97,-105.49 445.07,-110.85"/>
<polygon fill="#63b8ff" stroke="#63b8ff" points="444.22,-114.25 454.72,-112.84 445.63,-107.39 444.22,-114.25"/>
</g>
<!-- Node20 -->
<g id="node20" class="node">
<title>Node20</title>
<g id="a_node20"><a xlink:href="ReceiverCode_2src_2main_8cpp.html#af2b1ba43295661243b7bb78004d470d8" target="_top" xlink:title=" ">
<polygon fill="white" stroke="#666666" points="551.5,-93 434.5,-93 434.5,-74 551.5,-74 551.5,-93"/>
<text text-anchor="middle" x="493" y="-81" font-family="Helvetica,sans-Serif" font-size="10.00">SendQnhToSensorHub</text>
</a>
</g>
</g>
<!-- Node16&#45;&gt;Node20 -->
<g id="edge22" class="edge">
<title>Node16&#45;&gt;Node20</title>
<path fill="none" stroke="#63b8ff" d="M366.98,-83.5C384.62,-83.5 404.38,-83.5 422.9,-83.5"/>
<polygon fill="#63b8ff" stroke="#63b8ff" points="422.72,-87 432.72,-83.5 422.72,-80 422.72,-87"/>
</g>
<!-- Node21 -->
<g id="node21" class="node">
<title>Node21</title>
<g id="a_node21"><a xlink:href="radio_8h.html#a31a35307bbac88ceda244272f25d399a" target="_top" xlink:title=" ">
<polygon fill="white" stroke="#666666" points="545,-56 441,-56 441,-37 545,-37 545,-56"/>
<text text-anchor="middle" x="493" y="-44" font-family="Helvetica,sans-Serif" font-size="10.00">SetTestFrequencies</text>
</a>
</g>
</g>
<!-- Node16&#45;&gt;Node21 -->
<g id="edge24" class="edge">
<title>Node16&#45;&gt;Node21</title>
<path fill="none" stroke="#63b8ff" d="M360.24,-73.58C382.43,-69.02 408.98,-63.57 432.41,-58.75"/>
<polygon fill="#63b8ff" stroke="#63b8ff" points="433.06,-62.19 442.15,-56.75 431.65,-55.33 433.06,-62.19"/>
</g>
<!-- Node22 -->
<g id="node22" class="node">
<title>Node22</title>
<g id="a_node22"><a xlink:href="radio_8h.html#a2eabdb233653fa02f0b899e26b5e8ce7" target="_top" xlink:title=" ">
<polygon fill="white" stroke="#666666" points="542.5,-19 443.5,-19 443.5,0 542.5,0 542.5,-19"/>
<text text-anchor="middle" x="493" y="-7" font-family="Helvetica,sans-Serif" font-size="10.00">SetUKFrequencies</text>
</a>
</g>
</g>
<!-- Node16&#45;&gt;Node22 -->
<g id="edge25" class="edge">
<title>Node16&#45;&gt;Node22</title>
<path fill="none" stroke="#63b8ff" d="M331.64,-73.59C355.14,-61.94 395.87,-42.44 432,-28.5 436.96,-26.59 442.21,-24.71 447.45,-22.93"/>
<polygon fill="#63b8ff" stroke="#63b8ff" points="448.26,-26.35 456.67,-19.9 446.08,-19.7 448.26,-26.35"/>
</g>
<!-- Node18 -->
<g id="node18" class="node">
<title>Node18</title>
<g id="a_node18"><a xlink:href="ReceiverCode_2src_2main_8cpp.html#a3f80da71956ba53fcff126bfe2296e65" target="_top" xlink:title=" ">
<polygon fill="white" stroke="#666666" points="711,-130 612,-130 612,-111 711,-111 711,-130"/>
<text text-anchor="middle" x="661.5" y="-118" font-family="Helvetica,sans-Serif" font-size="10.00">SendToSensorHub</text>
</a>
</g>
</g>
<!-- Node17&#45;&gt;Node18 -->
<g id="edge20" class="edge">
<title>Node17&#45;&gt;Node18</title>
<path fill="none" stroke="#63b8ff" d="M522.62,-151.14C545.1,-146.15 577.08,-139.04 604.58,-132.93"/>
<polygon fill="#63b8ff" stroke="#63b8ff" points="605.18,-136.38 614.18,-130.79 603.66,-129.55 605.18,-136.38"/>
</g>
<!-- Node20&#45;&gt;Node18 -->
<g id="edge23" class="edge">
<title>Node20&#45;&gt;Node18</title>
<path fill="none" stroke="#63b8ff" d="M538.62,-93.42C558.96,-97.94 583.26,-103.34 604.79,-108.12"/>
<polygon fill="#63b8ff" stroke="#63b8ff" points="603.76,-111.48 614.28,-110.23 605.28,-104.64 603.76,-111.48"/>
</g>
</g>
</svg>
