<?xml version="1.0" encoding="UTF-8" standalone="no"?>
<!DOCTYPE svg PUBLIC "-//W3C//DTD SVG 1.1//EN"
 "http://www.w3.org/Graphics/SVG/1.1/DTD/svg11.dtd">
<!-- Generated by graphviz version 7.0.5 (20221223.1930)
 -->
<!-- Title: CheckDuplicate Pages: 1 -->
<svg width="1362pt" height="814pt"
 viewBox="0.00 0.00 1362.00 813.50" xmlns="http://www.w3.org/2000/svg" xmlns:xlink="http://www.w3.org/1999/xlink">
<g id="graph0" class="graph" transform="scale(1 1) rotate(0) translate(4 809.5)">
<title>CheckDuplicate</title>
<!-- Node1 -->
<g id="node1" class="node">
<title>Node1</title>
<g id="a_node1"><a xlink:title=" ">
<polygon fill="#999999" stroke="#666666" points="1354,-662 1269,-662 1269,-643 1354,-643 1354,-662"/>
<text text-anchor="middle" x="1311.5" y="-650" font-family="Helvetica,sans-Serif" font-size="10.00">CheckDuplicate</text>
</a>
</g>
</g>
<!-- Node2 -->
<g id="node2" class="node">
<title>Node2</title>
<g id="a_node2"><a xlink:href="SDcard_8h.html#a81f424711e329d4db746d65d6cbc7b1f" target="_top" xlink:title=" ">
<polygon fill="white" stroke="#666666" points="1233,-662 1117,-662 1117,-643 1233,-643 1233,-662"/>
<text text-anchor="middle" x="1175" y="-650" font-family="Helvetica,sans-Serif" font-size="10.00">CheckOutPutChannels</text>
</a>
</g>
</g>
<!-- Node1&#45;&gt;Node2 -->
<g id="edge1" class="edge">
<title>Node1&#45;&gt;Node2</title>
<path fill="none" stroke="#63b8ff" d="M1257.29,-652.5C1249.35,-652.5 1241.13,-652.5 1233.11,-652.5"/>
<polygon fill="#63b8ff" stroke="#63b8ff" points="1257.17,-656 1267.17,-652.5 1257.17,-649 1257.17,-656"/>
</g>
<!-- Node3 -->
<g id="node3" class="node">
<title>Node3</title>
<g id="a_node3"><a xlink:href="TransmitterCode_2src_2main_8cpp.html#a804fdbdd5eab4c596bbe8a23eecbe4d5" target="_top" xlink:title=" ">
<polygon fill="white" stroke="#666666" points="797.5,-587 696.5,-587 696.5,-568 797.5,-568 797.5,-587"/>
<text text-anchor="middle" x="747" y="-575" font-family="Helvetica,sans-Serif" font-size="10.00">ButtonWasPressed</text>
</a>
</g>
</g>
<!-- Node2&#45;&gt;Node3 -->
<g id="edge2" class="edge">
<title>Node2&#45;&gt;Node3</title>
<path fill="none" stroke="#63b8ff" d="M1105.63,-657.33C1036.94,-660.09 928.81,-658.66 840,-631.5 809.01,-622.02 777.4,-600.27 760.49,-587.45"/>
<polygon fill="#63b8ff" stroke="#63b8ff" points="1105.38,-660.85 1115.22,-656.9 1105.07,-653.85 1105.38,-660.85"/>
</g>
<!-- Node77 -->
<g id="node24" class="node">
<title>Node77</title>
<g id="a_node24"><a xlink:href="SDcard_8h.html#ac7a5ec6cf2ed7b50bd291f821e886302" target="_top" xlink:title=" ">
<polygon fill="white" stroke="#666666" points="1081,-472 998,-472 998,-453 1081,-453 1081,-472"/>
<text text-anchor="middle" x="1039.5" y="-460" font-family="Helvetica,sans-Serif" font-size="10.00">ReadOneModel</text>
</a>
</g>
</g>
<!-- Node2&#45;&gt;Node77 -->
<g id="edge32" class="edge">
<title>Node2&#45;&gt;Node77</title>
<path fill="none" stroke="#63b8ff" d="M1160.55,-633.36C1132.49,-593.42 1068.55,-502.42 1047.42,-472.35"/>
<polygon fill="#63b8ff" stroke="#63b8ff" points="1157.53,-635.14 1166.14,-641.31 1163.25,-631.12 1157.53,-635.14"/>
</g>
<!-- Node4 -->
<g id="node4" class="node">
<title>Node4</title>
<g id="a_node4"><a xlink:href="Utilities_8h.html#afb7c85cac4aa89fd998ed81c330374d2" target="_top" xlink:title=" ">
<polygon fill="white" stroke="#666666" points="654,-549 508,-549 508,-530 654,-530 654,-549"/>
<text text-anchor="middle" x="581" y="-537" font-family="Helvetica,sans-Serif" font-size="10.00">CheckForNextionButtonPress</text>
</a>
</g>
</g>
<!-- Node3&#45;&gt;Node4 -->
<g id="edge3" class="edge">
<title>Node3&#45;&gt;Node4</title>
<path fill="none" stroke="#63b8ff" d="M691.87,-564.96C670.18,-559.93 645.53,-554.22 625.09,-549.48"/>
<polygon fill="#63b8ff" stroke="#63b8ff" points="690.9,-568.33 701.44,-567.17 692.48,-561.51 690.9,-568.33"/>
</g>
<!-- Node11 -->
<g id="node11" class="node">
<title>Node11</title>
<g id="a_node11"><a xlink:href="ModelExchange_8h.html#ab7c9edf843c732d7fe296564f39bc0dc" target="_top" xlink:title="RECEIVE A MODEL FILE.">
<polygon fill="white" stroke="#666666" points="287,-795 193,-795 193,-776 287,-776 287,-795"/>
<text text-anchor="middle" x="240" y="-783" font-family="Helvetica,sans-Serif" font-size="10.00">ReceiveModelFile</text>
</a>
</g>
</g>
<!-- Node3&#45;&gt;Node11 -->
<g id="edge31" class="edge">
<title>Node3&#45;&gt;Node11</title>
<path fill="none" stroke="#63b8ff" d="M717.23,-592.4C649.11,-627.19 471.97,-714.81 316,-767.5 306.87,-770.59 296.94,-773.36 287.38,-775.75"/>
<polygon fill="#63b8ff" stroke="#63b8ff" points="718.56,-595.65 725.86,-587.98 715.36,-589.43 718.56,-595.65"/>
</g>
<!-- Node5 -->
<g id="node5" class="node">
<title>Node5</title>
<g id="a_node5"><a xlink:href="TransmitterCode_2src_2main_8cpp.html#a641d6dab68ec7b2a8a32492aac55bc1c" target="_top" xlink:title=" ">
<polygon fill="white" stroke="#666666" points="464.5,-511 359.5,-511 359.5,-492 464.5,-492 464.5,-511"/>
<text text-anchor="middle" x="412" y="-499" font-family="Helvetica,sans-Serif" font-size="10.00">GetBackupFilename</text>
</a>
</g>
</g>
<!-- Node4&#45;&gt;Node5 -->
<g id="edge4" class="edge">
<title>Node4&#45;&gt;Node5</title>
<path fill="none" stroke="#63b8ff" d="M525.19,-527.03C503.02,-521.98 477.79,-516.24 456.87,-511.48"/>
<polygon fill="#63b8ff" stroke="#63b8ff" points="524.12,-530.37 534.65,-529.18 525.67,-523.55 524.12,-530.37"/>
</g>
<!-- Node7 -->
<g id="node7" class="node">
<title>Node7</title>
<g id="a_node7"><a xlink:href="TransmitterCode_2src_2main_8cpp.html#a6506bf72e0dd9e9ce480156b47625bff" target="_top" xlink:title=" ">
<polygon fill="white" stroke="#666666" points="455,-548 369,-548 369,-529 455,-529 455,-548"/>
<text text-anchor="middle" x="412" y="-536" font-family="Helvetica,sans-Serif" font-size="10.00">GetConfirmation</text>
</a>
</g>
</g>
<!-- Node4&#45;&gt;Node7 -->
<g id="edge7" class="edge">
<title>Node4&#45;&gt;Node7</title>
<path fill="none" stroke="#63b8ff" d="M496.28,-539C481.98,-538.91 467.68,-538.83 455.07,-538.75"/>
<polygon fill="#63b8ff" stroke="#63b8ff" points="496.19,-542.5 506.21,-539.06 496.23,-535.5 496.19,-542.5"/>
</g>
<!-- Node17 -->
<g id="node17" class="node">
<title>Node17</title>
<g id="a_node17"><a xlink:href="TransmitterCode_2src_2main_8cpp.html#a558ea014e230b7caa54ce5a37ad29b22" target="_top" xlink:title=" ">
<polygon fill="white" stroke="#666666" points="462.5,-245 361.5,-245 361.5,-226 462.5,-226 462.5,-245"/>
<text text-anchor="middle" x="412" y="-233" font-family="Helvetica,sans-Serif" font-size="10.00">ManageTransmitter</text>
</a>
</g>
</g>
<!-- Node4&#45;&gt;Node17 -->
<g id="edge19" class="edge">
<title>Node4&#45;&gt;Node17</title>
<path fill="none" stroke="#63b8ff" d="M569.22,-519.87C536.99,-461.21 442.16,-288.58 418.43,-245.39"/>
<polygon fill="#63b8ff" stroke="#63b8ff" points="566.02,-521.32 573.9,-528.4 572.16,-517.95 566.02,-521.32"/>
</g>
<!-- Node19 -->
<g id="node19" class="node">
<title>Node19</title>
<g id="a_node19"><a xlink:href="TransmitterCode_2src_2main_8cpp.html#a6f5b0f1e4ca75768c16c4dd93f92a8de" target="_top" xlink:title=" ">
<polygon fill="white" stroke="#666666" points="438,-595 386,-595 386,-576 438,-576 438,-595"/>
<text text-anchor="middle" x="412" y="-583" font-family="Helvetica,sans-Serif" font-size="10.00">MsgBox</text>
</a>
</g>
</g>
<!-- Node4&#45;&gt;Node19 -->
<g id="edge21" class="edge">
<title>Node4&#45;&gt;Node19</title>
<path fill="none" stroke="#63b8ff" d="M532.86,-552.48C502.16,-560.94 463.32,-571.64 438.31,-578.53"/>
<polygon fill="#63b8ff" stroke="#63b8ff" points="533.59,-555.91 542.3,-549.88 531.73,-549.16 533.59,-555.91"/>
</g>
<!-- Node5&#45;&gt;Node3 -->
<g id="edge5" class="edge">
<title>Node5&#45;&gt;Node3</title>
<path fill="none" stroke="#63b8ff" d="M476.05,-495.52C526.31,-493.28 597.41,-495.88 654,-520.5 673.9,-529.16 671.77,-541.72 690,-553.5 698.53,-559.01 708.54,-563.76 717.72,-567.55"/>
<polygon fill="#63b8ff" stroke="#63b8ff" points="476.01,-492.01 466.21,-496.04 476.38,-499 476.01,-492.01"/>
</g>
<!-- Node6 -->
<g id="node6" class="node">
<title>Node6</title>
<g id="a_node6"><a xlink:href="TransmitterCode_2src_2main_8cpp.html#a9d94366336f1e5fd43edb9c24bec5821" target="_top" xlink:title=" ">
<polygon fill="white" stroke="#666666" points="274,-388 206,-388 206,-369 274,-369 274,-388"/>
<text text-anchor="middle" x="240" y="-376" font-family="Helvetica,sans-Serif" font-size="10.00">RenameFile</text>
</a>
</g>
</g>
<!-- Node5&#45;&gt;Node6 -->
<g id="edge6" class="edge">
<title>Node5&#45;&gt;Node6</title>
<path fill="none" stroke="#63b8ff" d="M364.14,-486.54C359.73,-483.96 355.58,-480.97 352,-477.5 323.7,-450.09 346.28,-421.7 316,-396.5 304.37,-386.82 288.39,-382.18 274.17,-380.01"/>
<polygon fill="#63b8ff" stroke="#63b8ff" points="362.22,-489.49 372.73,-490.85 365.36,-483.23 362.22,-489.49"/>
</g>
<!-- Node7&#45;&gt;Node3 -->
<g id="edge8" class="edge">
<title>Node7&#45;&gt;Node3</title>
<path fill="none" stroke="#63b8ff" d="M465.64,-550.83C479.37,-553.7 494.19,-556.5 508,-558.5 572.61,-567.84 647.81,-572.88 696.11,-575.37"/>
<polygon fill="#63b8ff" stroke="#63b8ff" points="466.41,-547.42 455.89,-548.74 464.93,-554.26 466.41,-547.42"/>
</g>
<!-- Node7&#45;&gt;Node6 -->
<g id="edge13" class="edge">
<title>Node7&#45;&gt;Node6</title>
<path fill="none" stroke="#63b8ff" d="M358.73,-525.11C356.3,-523.45 354.04,-521.59 352,-519.5 312.27,-478.69 357.26,-435.77 316,-396.5 304.94,-385.97 288.86,-381.25 274.42,-379.26"/>
<polygon fill="#63b8ff" stroke="#63b8ff" points="356.94,-528.12 367.39,-529.82 360.28,-521.97 356.94,-528.12"/>
</g>
<!-- Node8 -->
<g id="node8" class="node">
<title>Node8</title>
<g id="a_node8"><a xlink:href="TransmitterCode_2src_2main_8cpp.html#ac45477c637c975e13189e2988c8813b3" target="_top" xlink:title=" ">
<polygon fill="white" stroke="#666666" points="280,-610 200,-610 200,-591 280,-591 280,-610"/>
<text text-anchor="middle" x="240" y="-598" font-family="Helvetica,sans-Serif" font-size="10.00">DeleteModelID</text>
</a>
</g>
</g>
<!-- Node7&#45;&gt;Node8 -->
<g id="edge9" class="edge">
<title>Node7&#45;&gt;Node8</title>
<path fill="none" stroke="#63b8ff" d="M380.75,-553.31C357.97,-564.3 328.6,-578.12 316,-582.5 304.62,-586.46 291.97,-589.86 280.35,-592.6"/>
<polygon fill="#63b8ff" stroke="#63b8ff" points="382.15,-556.52 389.62,-549 379.09,-550.22 382.15,-556.52"/>
</g>
<!-- Node9 -->
<g id="node9" class="node">
<title>Node9</title>
<g id="a_node9"><a xlink:href="LogFiles_8h.html#a53d438145d004c3b053f245f494f4284" target="_top" xlink:title=" ">
<polygon fill="white" stroke="#666666" points="266,-499 214,-499 214,-480 266,-480 266,-499"/>
<text text-anchor="middle" x="240" y="-487" font-family="Helvetica,sans-Serif" font-size="10.00">DelLOG</text>
</a>
</g>
</g>
<!-- Node7&#45;&gt;Node9 -->
<g id="edge10" class="edge">
<title>Node7&#45;&gt;Node9</title>
<path fill="none" stroke="#63b8ff" d="M368.96,-525.02C363.26,-523.17 357.48,-521.3 352,-519.5 335.97,-514.25 332.21,-512.14 316,-507.5 299.65,-502.82 281.06,-498.36 266.48,-495.04"/>
<polygon fill="#63b8ff" stroke="#63b8ff" points="367.72,-528.3 378.31,-528.04 369.87,-521.63 367.72,-528.3"/>
</g>
<!-- Node10 -->
<g id="node10" class="node">
<title>Node10</title>
<g id="a_node10"><a xlink:href="TransmitterCode_2src_2main_8cpp.html#ae9f91b9da28f2e1e2fb126961f03c31c" target="_top" xlink:title=" ">
<polygon fill="white" stroke="#666666" points="280.5,-351 199.5,-351 199.5,-332 280.5,-332 280.5,-351"/>
<text text-anchor="middle" x="240" y="-339" font-family="Helvetica,sans-Serif" font-size="10.00">ModelViewEnd</text>
</a>
</g>
</g>
<!-- Node7&#45;&gt;Node10 -->
<g id="edge11" class="edge">
<title>Node7&#45;&gt;Node10</title>
<path fill="none" stroke="#63b8ff" d="M358.94,-525.53C356.42,-523.77 354.07,-521.77 352,-519.5 302.84,-465.69 367.17,-411.41 316,-359.5 306.79,-350.16 293.64,-345.33 280.91,-342.93"/>
<polygon fill="#63b8ff" stroke="#63b8ff" points="356.98,-528.44 367.43,-530.19 360.35,-522.31 356.98,-528.44"/>
</g>
<!-- Node7&#45;&gt;Node11 -->
<g id="edge12" class="edge">
<title>Node7&#45;&gt;Node11</title>
<path fill="none" stroke="#63b8ff" d="M367.33,-553.93C361.48,-557.6 356.09,-562.07 352,-567.5 297.63,-639.62 378,-701.83 316,-767.5 308.46,-775.48 298.06,-780.2 287.4,-782.92"/>
<polygon fill="#63b8ff" stroke="#63b8ff" points="368.98,-557.02 376.14,-549.21 365.67,-550.85 368.98,-557.02"/>
</g>
<!-- Node12 -->
<g id="node12" class="node">
<title>Node12</title>
<g id="a_node12"><a xlink:href="TransmitterCode_2src_2main_8cpp.html#a75875d66db3193e4034c3768c175f8ef" target="_top" xlink:title=" ">
<polygon fill="white" stroke="#666666" points="273.5,-573 206.5,-573 206.5,-554 273.5,-554 273.5,-573"/>
<text text-anchor="middle" x="240" y="-561" font-family="Helvetica,sans-Serif" font-size="10.00">ResetClock</text>
</a>
</g>
</g>
<!-- Node7&#45;&gt;Node12 -->
<g id="edge14" class="edge">
<title>Node7&#45;&gt;Node12</title>
<path fill="none" stroke="#63b8ff" d="M357.16,-546.42C329.81,-550.44 297.46,-555.2 273.86,-558.67"/>
<polygon fill="#63b8ff" stroke="#63b8ff" points="357.66,-549.88 367.04,-544.96 356.64,-542.96 357.66,-549.88"/>
</g>
<!-- Node13 -->
<g id="node13" class="node">
<title>Node13</title>
<g id="a_node13"><a xlink:href="TransmitterCode_2src_2main_8cpp.html#a5c7f22bae35d5d6df9d54fe79dbb8401" target="_top" xlink:title=" ">
<polygon fill="white" stroke="#666666" points="304,-462 176,-462 176,-443 304,-443 304,-462"/>
<text text-anchor="middle" x="240" y="-450" font-family="Helvetica,sans-Serif" font-size="10.00">ResetTransmitterSettings</text>
</a>
</g>
</g>
<!-- Node7&#45;&gt;Node13 -->
<g id="edge15" class="edge">
<title>Node7&#45;&gt;Node13</title>
<path fill="none" stroke="#63b8ff" d="M358.5,-523.62C356.24,-522.35 354.06,-520.98 352,-519.5 330.07,-503.7 338.51,-485.45 316,-470.5 311.09,-467.24 305.66,-464.57 300.02,-462.38"/>
<polygon fill="#63b8ff" stroke="#63b8ff" points="356.9,-526.74 367.43,-527.88 359.91,-520.42 356.9,-526.74"/>
</g>
<!-- Node14 -->
<g id="node14" class="node">
<title>Node14</title>
<g id="a_node14"><a xlink:href="TransmitterCode_2src_2main_8cpp.html#a3838aa0b33bb22d3b9934da05d2716d8" target="_top" xlink:title=" ">
<polygon fill="white" stroke="#666666" points="278,-536 202,-536 202,-517 278,-517 278,-536"/>
<text text-anchor="middle" x="240" y="-524" font-family="Helvetica,sans-Serif" font-size="10.00">StoreModelID</text>
</a>
</g>
</g>
<!-- Node7&#45;&gt;Node14 -->
<g id="edge16" class="edge">
<title>Node7&#45;&gt;Node14</title>
<path fill="none" stroke="#63b8ff" d="M357.1,-534.7C331.44,-532.88 301.4,-530.76 278.3,-529.13"/>
<polygon fill="#63b8ff" stroke="#63b8ff" points="356.81,-538.18 367.03,-535.4 357.3,-531.2 356.81,-538.18"/>
</g>
<!-- Node15 -->
<g id="node15" class="node">
<title>Node15</title>
<g id="a_node15"><a xlink:href="Trims_8h.html#a4032af894bb09f6ec94abf5bd8a83ff7" target="_top" xlink:title=" ">
<polygon fill="white" stroke="#666666" points="283,-647 197,-647 197,-628 283,-628 283,-647"/>
<text text-anchor="middle" x="240" y="-635" font-family="Helvetica,sans-Serif" font-size="10.00">TrimsToSubtrim</text>
</a>
</g>
</g>
<!-- Node7&#45;&gt;Node15 -->
<g id="edge17" class="edge">
<title>Node7&#45;&gt;Node15</title>
<path fill="none" stroke="#63b8ff" d="M373.51,-553.34C365.94,-557.3 358.36,-562.02 352,-567.5 330.7,-585.84 339.19,-603.62 316,-619.5 306.39,-626.08 294.65,-630.27 283.33,-632.93"/>
<polygon fill="#63b8ff" stroke="#63b8ff" points="374.85,-556.58 382.35,-549.09 371.82,-550.27 374.85,-556.58"/>
</g>
<!-- Node16 -->
<g id="node16" class="node">
<title>Node16</title>
<g id="a_node16"><a xlink:href="TransmitterCode_2src_2main_8cpp.html#a3c55ef7c23759a89a86f6519569c4f7a" target="_top" xlink:title=" ">
<polygon fill="white" stroke="#666666" points="289.5,-425 190.5,-425 190.5,-406 289.5,-406 289.5,-425"/>
<text text-anchor="middle" x="240" y="-413" font-family="Helvetica,sans-Serif" font-size="10.00">TXModuleViewEnd</text>
</a>
</g>
</g>
<!-- Node7&#45;&gt;Node16 -->
<g id="edge18" class="edge">
<title>Node7&#45;&gt;Node16</title>
<path fill="none" stroke="#63b8ff" d="M358.5,-524.51C356.19,-523.01 354.01,-521.34 352,-519.5 321.48,-491.47 347.56,-460.35 316,-433.5 308.55,-427.17 299.26,-422.98 289.77,-420.23"/>
<polygon fill="#63b8ff" stroke="#63b8ff" points="356.75,-527.54 367.23,-529.12 360.02,-521.35 356.75,-527.54"/>
</g>
<!-- Node18 -->
<g id="node18" class="node">
<title>Node18</title>
<g id="a_node18"><a xlink:href="TransmitterCode_2src_2main_8cpp.html#ad3cb30894c94eb016e98bdcaa899ac86" target="_top" xlink:title=" ">
<polygon fill="white" stroke="#666666" points="257.5,-170 222.5,-170 222.5,-151 257.5,-151 257.5,-170"/>
<text text-anchor="middle" x="240" y="-158" font-family="Helvetica,sans-Serif" font-size="10.00">loop</text>
</a>
</g>
</g>
<!-- Node17&#45;&gt;Node18 -->
<g id="edge20" class="edge">
<title>Node17&#45;&gt;Node18</title>
<path fill="none" stroke="#63b8ff" d="M366.35,-221.94C361.47,-220.22 356.6,-218.39 352,-216.5 317.65,-202.41 279.35,-181.97 257.92,-170.08"/>
<polygon fill="#63b8ff" stroke="#63b8ff" points="364.95,-225.16 375.54,-225.06 367.2,-218.53 364.95,-225.16"/>
</g>
<!-- Node19&#45;&gt;Node3 -->
<g id="edge22" class="edge">
<title>Node19&#45;&gt;Node3</title>
<path fill="none" stroke="#63b8ff" d="M449.55,-588.69C496.82,-592.28 581.67,-596.97 654,-591.5 667.69,-590.46 682.44,-588.57 696.02,-586.51"/>
<polygon fill="#63b8ff" stroke="#63b8ff" points="450.13,-585.22 439.88,-587.92 449.57,-592.2 450.13,-585.22"/>
</g>
<!-- Node19&#45;&gt;Node8 -->
<g id="edge23" class="edge">
<title>Node19&#45;&gt;Node8</title>
<path fill="none" stroke="#63b8ff" d="M374.35,-588.73C346.6,-591.18 308.56,-594.54 280.21,-597.04"/>
<polygon fill="#63b8ff" stroke="#63b8ff" points="374.39,-592.24 384.04,-587.88 373.77,-585.27 374.39,-592.24"/>
</g>
<!-- Node19&#45;&gt;Node12 -->
<g id="edge24" class="edge">
<title>Node19&#45;&gt;Node12</title>
<path fill="none" stroke="#63b8ff" d="M374.35,-580.76C344.5,-576.89 302.72,-571.49 273.93,-567.76"/>
<polygon fill="#63b8ff" stroke="#63b8ff" points="373.68,-584.2 384.05,-582.01 374.58,-577.26 373.68,-584.2"/>
</g>
<!-- Node19&#45;&gt;Node14 -->
<g id="edge26" class="edge">
<title>Node19&#45;&gt;Node14</title>
<path fill="none" stroke="#63b8ff" d="M379.49,-570.82C361.21,-562.67 337.6,-552.74 316,-545.5 303.9,-541.45 290.45,-537.78 278.32,-534.78"/>
<polygon fill="#63b8ff" stroke="#63b8ff" points="377.91,-573.95 388.47,-574.89 380.8,-567.58 377.91,-573.95"/>
</g>
<!-- Node19&#45;&gt;Node15 -->
<g id="edge27" class="edge">
<title>Node19&#45;&gt;Node15</title>
<path fill="none" stroke="#63b8ff" d="M375.15,-599.36C357.49,-605.93 335.79,-613.6 316,-619.5 305.48,-622.64 294,-625.61 283.26,-628.2"/>
<polygon fill="#63b8ff" stroke="#63b8ff" points="376.3,-602.67 384.43,-595.88 373.84,-596.12 376.3,-602.67"/>
</g>
<!-- Node20 -->
<g id="node20" class="node">
<title>Node20</title>
<g id="a_node20"><a xlink:href="ModelExchange_8h.html#ac36bdea2efcd030a336293af16f5dc09" target="_top" xlink:title=" ">
<polygon fill="white" stroke="#666666" points="282.5,-684 197.5,-684 197.5,-665 282.5,-665 282.5,-684"/>
<text text-anchor="middle" x="240" y="-672" font-family="Helvetica,sans-Serif" font-size="10.00">ShowRemoteID</text>
</a>
</g>
</g>
<!-- Node19&#45;&gt;Node20 -->
<g id="edge25" class="edge">
<title>Node19&#45;&gt;Node20</title>
<path fill="none" stroke="#63b8ff" d="M374.94,-596.63C366.95,-600.03 358.83,-604.29 352,-609.5 331.08,-625.46 338.06,-642.16 316,-656.5 306.12,-662.92 294.17,-667.06 282.74,-669.72"/>
<polygon fill="#63b8ff" stroke="#63b8ff" points="376.15,-599.91 384.23,-593.05 373.64,-593.38 376.15,-599.91"/>
</g>
<!-- Node21 -->
<g id="node21" class="node">
<title>Node21</title>
<g id="a_node21"><a xlink:href="TransmitterCode_2src_2main_8cpp.html#a6a61a2c5b0349843efa66a58c0b956be" target="_top" xlink:title=" ">
<polygon fill="white" stroke="#666666" points="292,-721 188,-721 188,-702 292,-702 292,-721"/>
<text text-anchor="middle" x="240" y="-709" font-family="Helvetica,sans-Serif" font-size="10.00">TXModuleViewStart</text>
</a>
</g>
</g>
<!-- Node19&#45;&gt;Node21 -->
<g id="edge28" class="edge">
<title>Node19&#45;&gt;Node21</title>
<path fill="none" stroke="#63b8ff" d="M374.84,-595.06C366.58,-598.56 358.36,-603.25 352,-609.5 323.01,-637.95 347.05,-667.31 316,-693.5 309.24,-699.2 300.99,-703.15 292.45,-705.89"/>
<polygon fill="#63b8ff" stroke="#63b8ff" points="375.97,-598.37 384.16,-591.64 373.56,-591.8 375.97,-598.37"/>
</g>
<!-- Node22 -->
<g id="node22" class="node">
<title>Node22</title>
<g id="a_node22"><a xlink:href="TransmitterCode_2src_2main_8cpp.html#a7d321cdde32c31b15ca1080fda6743c8" target="_top" xlink:title=" ">
<polygon fill="white" stroke="#666666" points="316,-758 164,-758 164,-739 316,-739 316,-758"/>
<text text-anchor="middle" x="240" y="-746" font-family="Helvetica,sans-Serif" font-size="10.00">WarnUserOfVersionsMismatch</text>
</a>
</g>
</g>
<!-- Node19&#45;&gt;Node22 -->
<g id="edge29" class="edge">
<title>Node19&#45;&gt;Node22</title>
<path fill="none" stroke="#63b8ff" d="M375.02,-594.26C366.53,-597.79 358.16,-602.71 352,-609.5 314.3,-651.05 356.72,-691.9 316,-730.5 312.6,-733.72 308.72,-736.4 304.57,-738.63"/>
<polygon fill="#63b8ff" stroke="#63b8ff" points="376.01,-597.62 384.27,-590.98 373.67,-591.02 376.01,-597.62"/>
</g>
<!-- Node23 -->
<g id="node23" class="node">
<title>Node23</title>
<g id="a_node23"><a xlink:href="TransmitterCode_2src_2main_8cpp.html#ad496cd10d726d7c5757d01a922c2aa25" target="_top" xlink:title=" ">
<polygon fill="#fff0f0" stroke="red" points="128,-758 0,-758 0,-739 128,-739 128,-758"/>
<text text-anchor="middle" x="64" y="-746" font-family="Helvetica,sans-Serif" font-size="10.00">CompareVersionNumbers</text>
</a>
</g>
</g>
<!-- Node22&#45;&gt;Node23 -->
<g id="edge30" class="edge">
<title>Node22&#45;&gt;Node23</title>
<path fill="none" stroke="#63b8ff" d="M152.34,-748.5C144.28,-748.5 136.22,-748.5 128.43,-748.5"/>
<polygon fill="#63b8ff" stroke="#63b8ff" points="152.18,-752 162.18,-748.5 152.18,-745 152.18,-752"/>
</g>
<!-- Node77&#45;&gt;Node3 -->
<g id="edge33" class="edge">
<title>Node77&#45;&gt;Node3</title>
<path fill="none" stroke="#63b8ff" d="M1028.49,-482.16C1016.13,-504.17 992.89,-538.93 962,-555.5 910.99,-582.87 843.3,-585.16 797.83,-582.71"/>
<polygon fill="#63b8ff" stroke="#63b8ff" points="1031.46,-484.04 1033.1,-473.57 1025.29,-480.73 1031.46,-484.04"/>
</g>
<!-- Node77&#45;&gt;Node10 -->
<g id="edge74" class="edge">
<title>Node77&#45;&gt;Node10</title>
<path fill="none" stroke="#63b8ff" d="M1020.56,-445.2C1006.01,-432.27 984.3,-415.34 962,-406.5 836.4,-356.72 413.22,-344.71 280.89,-342.14"/>
<polygon fill="#63b8ff" stroke="#63b8ff" points="1017.8,-447.42 1027.53,-451.61 1022.54,-442.27 1017.8,-447.42"/>
</g>
<!-- Node77&#45;&gt;Node11 -->
<g id="edge75" class="edge">
<title>Node77&#45;&gt;Node11</title>
<path fill="none" stroke="#63b8ff" d="M1032.4,-483.06C1009.05,-557.06 918.02,-805.5 748,-805.5 748,-805.5 748,-805.5 580,-805.5 475.2,-805.5 352.5,-795.86 287.28,-789.96"/>
<polygon fill="#63b8ff" stroke="#63b8ff" points="1035.64,-484.43 1035.23,-473.84 1028.95,-482.38 1035.64,-484.43"/>
</g>
<!-- Node78 -->
<g id="node25" class="node">
<title>Node78</title>
<g id="a_node25"><a xlink:href="TransmitterCode_2src_2main_8cpp.html#a6a25e5ab5c13c780c12cdd6fe0a85049" target="_top" xlink:title=" ">
<polygon fill="white" stroke="#666666" points="948.5,-509 853.5,-509 853.5,-490 948.5,-490 948.5,-509"/>
<text text-anchor="middle" x="901" y="-497" font-family="Helvetica,sans-Serif" font-size="10.00">CheckAllModelIds</text>
</a>
</g>
</g>
<!-- Node77&#45;&gt;Node78 -->
<g id="edge34" class="edge">
<title>Node77&#45;&gt;Node78</title>
<path fill="none" stroke="#63b8ff" d="M990.98,-475.38C973.83,-480.03 954.76,-485.2 938.68,-489.56"/>
<polygon fill="#63b8ff" stroke="#63b8ff" points="991.72,-478.81 1000.46,-472.81 989.89,-472.05 991.72,-478.81"/>
</g>
<!-- Node43 -->
<g id="node26" class="node">
<title>Node43</title>
<g id="a_node26"><a xlink:href="TransmitterCode_2src_2main_8cpp.html#a5c0f1fd26cdd6ecde365f521060158ba" target="_top" xlink:title=" ">
<polygon fill="white" stroke="#666666" points="949.5,-57 852.5,-57 852.5,-38 949.5,-38 949.5,-57"/>
<text text-anchor="middle" x="901" y="-45" font-family="Helvetica,sans-Serif" font-size="10.00">CheckModelName</text>
</a>
</g>
</g>
<!-- Node77&#45;&gt;Node43 -->
<g id="edge35" class="edge">
<title>Node77&#45;&gt;Node43</title>
<path fill="none" stroke="#63b8ff" d="M1036.76,-441.54C1031.64,-387.29 1013.56,-238.74 962,-127.5 949.01,-99.46 925.07,-71.74 911.7,-57.45"/>
<polygon fill="#63b8ff" stroke="#63b8ff" points="1033.25,-441.54 1037.62,-451.19 1040.22,-440.92 1033.25,-441.54"/>
</g>
<!-- Node30 -->
<g id="node28" class="node">
<title>Node30</title>
<g id="a_node28"><a xlink:href="ModelMatch_8h.html#af8fe429ceb65bf9d257a2a0f1c63eccb" target="_top" xlink:title=" ">
<polygon fill="white" stroke="#666666" points="798,-95 696,-95 696,-76 798,-76 798,-95"/>
<text text-anchor="middle" x="747" y="-83" font-family="Helvetica,sans-Serif" font-size="10.00">CompareModelsIDs</text>
</a>
</g>
</g>
<!-- Node77&#45;&gt;Node30 -->
<g id="edge38" class="edge">
<title>Node77&#45;&gt;Node30</title>
<path fill="none" stroke="#63b8ff" d="M1035.74,-441.29C1027.32,-379.72 1000.23,-202.68 962,-160.5 919.83,-113.97 847.14,-96.31 798.32,-89.6"/>
<polygon fill="#63b8ff" stroke="#63b8ff" points="1032.25,-441.64 1037.04,-451.09 1039.19,-440.71 1032.25,-441.64"/>
</g>
<!-- Node79 -->
<g id="node32" class="node">
<title>Node79</title>
<g id="a_node32"><a xlink:href="TransmitterCode_2src_2main_8cpp.html#a2d16d1f4802d4029bc8933a18d213beb" target="_top" xlink:title=" ">
<polygon fill="white" stroke="#666666" points="942,-283 860,-283 860,-264 942,-264 942,-283"/>
<text text-anchor="middle" x="901" y="-271" font-family="Helvetica,sans-Serif" font-size="10.00">GotoFrontView</text>
</a>
</g>
</g>
<!-- Node77&#45;&gt;Node79 -->
<g id="edge42" class="edge">
<title>Node77&#45;&gt;Node79</title>
<path fill="none" stroke="#63b8ff" d="M1024.75,-443.46C996.05,-403.73 930.68,-313.21 909.08,-283.3"/>
<polygon fill="#63b8ff" stroke="#63b8ff" points="1021.77,-445.32 1030.47,-451.38 1027.45,-441.22 1021.77,-445.32"/>
</g>
<!-- Node81 -->
<g id="node36" class="node">
<title>Node81</title>
<g id="a_node36"><a xlink:href="BuddyWireless_8h.html#ab0ba1642fb6c43525579b989c7b60dad" target="_top" xlink:title=" ">
<polygon fill="white" stroke="#666666" points="795,-132 699,-132 699,-113 795,-113 795,-132"/>
<text text-anchor="middle" x="747" y="-120" font-family="Helvetica,sans-Serif" font-size="10.00">LoadCorrectModel</text>
</a>
</g>
</g>
<!-- Node77&#45;&gt;Node81 -->
<g id="edge66" class="edge">
<title>Node77&#45;&gt;Node81</title>
<path fill="none" stroke="#63b8ff" d="M1035.28,-441.54C1028.21,-401.45 1008.17,-312.71 962,-254.5 911.55,-190.89 821.44,-150.03 775.93,-132.44"/>
<polygon fill="#63b8ff" stroke="#63b8ff" points="1031.8,-441.96 1036.88,-451.26 1038.7,-440.82 1031.8,-441.96"/>
</g>
<!-- Node75 -->
<g id="node45" class="node">
<title>Node75</title>
<g id="a_node45"><a xlink:href="SDcard_8h.html#a909acb7ed667a5cc9c4ec6191fc33e75" target="_top" xlink:title=" ">
<polygon fill="white" stroke="#666666" points="951,-546 851,-546 851,-527 951,-527 951,-546"/>
<text text-anchor="middle" x="901" y="-534" font-family="Helvetica,sans-Serif" font-size="10.00">LoadAllParameters</text>
</a>
</g>
</g>
<!-- Node77&#45;&gt;Node75 -->
<g id="edge63" class="edge">
<title>Node77&#45;&gt;Node75</title>
<path fill="none" stroke="#63b8ff" d="M1018.57,-479.54C1003.76,-491.5 982.63,-507.15 962,-517.5 955.07,-520.98 947.36,-523.99 939.85,-526.52"/>
<polygon fill="#63b8ff" stroke="#63b8ff" points="1020.68,-482.34 1026.15,-473.27 1016.21,-476.94 1020.68,-482.34"/>
</g>
<!-- Node86 -->
<g id="node46" class="node">
<title>Node86</title>
<g id="a_node46"><a xlink:href="TransmitterCode_2src_2main_8cpp.html#a3707639fbc6c8c053b888cd618869146" target="_top" xlink:title=" ">
<polygon fill="white" stroke="#666666" points="962,-435 840,-435 840,-416 962,-416 962,-435"/>
<text text-anchor="middle" x="901" y="-423" font-family="Helvetica,sans-Serif" font-size="10.00">LoadModelForRenaming</text>
</a>
</g>
</g>
<!-- Node77&#45;&gt;Node86 -->
<g id="edge67" class="edge">
<title>Node77&#45;&gt;Node86</title>
<path fill="none" stroke="#63b8ff" d="M990.98,-449.62C973.83,-444.97 954.76,-439.8 938.68,-435.44"/>
<polygon fill="#63b8ff" stroke="#63b8ff" points="989.89,-452.95 1000.46,-452.19 991.72,-446.19 989.89,-452.95"/>
</g>
<!-- Node87 -->
<g id="node47" class="node">
<title>Node87</title>
<g id="a_node47"><a xlink:href="TransmitterCode_2src_2main_8cpp.html#a6684199e9da3ca0bdb0e01260eec7e30" target="_top" xlink:title=" ">
<polygon fill="white" stroke="#666666" points="951.5,-622 850.5,-622 850.5,-603 951.5,-603 951.5,-622"/>
<text text-anchor="middle" x="901" y="-610" font-family="Helvetica,sans-Serif" font-size="10.00">LoadModelSelector</text>
</a>
</g>
</g>
<!-- Node77&#45;&gt;Node87 -->
<g id="edge69" class="edge">
<title>Node77&#45;&gt;Node87</title>
<path fill="none" stroke="#63b8ff" d="M1030.82,-483.21C1019.63,-510.77 996.36,-559.39 962,-588.5 954.98,-594.45 946.3,-599.05 937.75,-602.55"/>
<polygon fill="#63b8ff" stroke="#63b8ff" points="1034.08,-484.49 1034.44,-473.9 1027.55,-481.95 1034.08,-484.49"/>
</g>
<!-- Node88 -->
<g id="node50" class="node">
<title>Node88</title>
<g id="a_node50"><a xlink:href="TransmitterCode_2src_2main_8cpp.html#aa1f353c2c61131eeafa77c6e67608e45" target="_top" xlink:title=" ">
<polygon fill="white" stroke="#666666" points="955,-472 847,-472 847,-453 955,-453 955,-472"/>
<text text-anchor="middle" x="901" y="-460" font-family="Helvetica,sans-Serif" font-size="10.00">RestoreCurrentModel</text>
</a>
</g>
</g>
<!-- Node77&#45;&gt;Node88 -->
<g id="edge76" class="edge">
<title>Node77&#45;&gt;Node88</title>
<path fill="none" stroke="#63b8ff" d="M986.27,-462.5C976.05,-462.5 965.32,-462.5 955.07,-462.5"/>
<polygon fill="#63b8ff" stroke="#63b8ff" points="986.03,-466 996.03,-462.5 986.03,-459 986.03,-466"/>
</g>
<!-- Node43&#45;&gt;Node17 -->
<g id="edge37" class="edge">
<title>Node43&#45;&gt;Node17</title>
<path fill="none" stroke="#63b8ff" d="M840.83,-42.06C743.9,-34.47 557.1,-25.83 508,-66.5 455.2,-110.24 518.6,-166.21 472,-216.5 468.56,-220.21 464.4,-223.2 459.89,-225.6"/>
<polygon fill="#63b8ff" stroke="#63b8ff" points="840.43,-45.54 850.68,-42.85 841,-38.56 840.43,-45.54"/>
</g>
<!-- Node34 -->
<g id="node27" class="node">
<title>Node34</title>
<g id="a_node27"><a xlink:href="TransmitterCode_2src_2main_8cpp.html#ae267eaa80a4b3eb49ba10a97469eb7e9" target="_top" xlink:title=" ">
<polygon fill="white" stroke="#666666" points="781.5,-19 712.5,-19 712.5,0 781.5,0 781.5,-19"/>
<text text-anchor="middle" x="747" y="-7" font-family="Helvetica,sans-Serif" font-size="10.00">DoMFName</text>
</a>
</g>
</g>
<!-- Node43&#45;&gt;Node34 -->
<g id="edge36" class="edge">
<title>Node43&#45;&gt;Node34</title>
<path fill="none" stroke="#63b8ff" d="M849.14,-34.78C826.96,-29.24 801.55,-22.89 781.75,-17.94"/>
<polygon fill="#63b8ff" stroke="#63b8ff" points="848.05,-38.12 858.6,-37.15 849.74,-31.33 848.05,-38.12"/>
</g>
<!-- Node31 -->
<g id="node29" class="node">
<title>Node31</title>
<g id="a_node29"><a xlink:href="transceiver_8h.html#a494cb4acb30856d1f53f08df1b80c41b" target="_top" xlink:title=" ">
<polygon fill="white" stroke="#666666" points="640.5,-95 521.5,-95 521.5,-76 640.5,-76 640.5,-95"/>
<text text-anchor="middle" x="581" y="-83" font-family="Helvetica,sans-Serif" font-size="10.00">GetModelsMacAddress</text>
</a>
</g>
</g>
<!-- Node30&#45;&gt;Node31 -->
<g id="edge39" class="edge">
<title>Node30&#45;&gt;Node31</title>
<path fill="none" stroke="#63b8ff" d="M684.61,-85.5C670.24,-85.5 654.96,-85.5 640.71,-85.5"/>
<polygon fill="#63b8ff" stroke="#63b8ff" points="684.39,-89 694.39,-85.5 684.39,-82 684.39,-89"/>
</g>
<!-- Node25 -->
<g id="node30" class="node">
<title>Node25</title>
<g id="a_node30"><a xlink:href="transceiver_8h.html#a694f4f5a0147f4dc29b0bc1a8951547d" target="_top" xlink:title=" ">
<polygon fill="white" stroke="#666666" points="459,-95 365,-95 365,-76 459,-76 459,-95"/>
<text text-anchor="middle" x="412" y="-83" font-family="Helvetica,sans-Serif" font-size="10.00">ParseAckPayload</text>
</a>
</g>
</g>
<!-- Node31&#45;&gt;Node25 -->
<g id="edge40" class="edge">
<title>Node31&#45;&gt;Node25</title>
<path fill="none" stroke="#63b8ff" d="M510.01,-85.5C492.89,-85.5 474.99,-85.5 459.29,-85.5"/>
<polygon fill="#63b8ff" stroke="#63b8ff" points="509.61,-89 519.61,-85.5 509.61,-82 509.61,-89"/>
</g>
<!-- Node26 -->
<g id="node31" class="node">
<title>Node26</title>
<g id="a_node31"><a xlink:href="transceiver_8h.html#a1c11bb6771548de7d96723045b922620" target="_top" xlink:title=" ">
<polygon fill="#fff0f0" stroke="red" points="288,-95 192,-95 192,-76 288,-76 288,-95"/>
<text text-anchor="middle" x="240" y="-83" font-family="Helvetica,sans-Serif" font-size="10.00">SuccessfulPacket</text>
</a>
</g>
</g>
<!-- Node25&#45;&gt;Node26 -->
<g id="edge41" class="edge">
<title>Node25&#45;&gt;Node26</title>
<path fill="none" stroke="#63b8ff" d="M353.11,-85.5C331.99,-85.5 308.37,-85.5 288.28,-85.5"/>
<polygon fill="#63b8ff" stroke="#63b8ff" points="353.03,-89 363.03,-85.5 353.03,-82 353.03,-89"/>
</g>
<!-- Node79&#45;&gt;Node10 -->
<g id="edge54" class="edge">
<title>Node79&#45;&gt;Node10</title>
<path fill="none" stroke="#63b8ff" d="M848.26,-277.91C805.74,-281.6 743.94,-287.12 690,-292.5 538.82,-307.59 359.29,-327.9 280.92,-336.89"/>
<polygon fill="#63b8ff" stroke="#63b8ff" points="848.55,-281.4 858.21,-277.05 847.95,-274.43 848.55,-281.4"/>
</g>
<!-- Node79&#45;&gt;Node22 -->
<g id="edge62" class="edge">
<title>Node79&#45;&gt;Node22</title>
<path fill="none" stroke="#63b8ff" d="M880.89,-290.91C835.02,-332.97 720.19,-439.77 690,-482.5 668.43,-513.03 680.36,-532 654,-558.5 650.72,-561.8 355.98,-701.09 352,-703.5 334.9,-713.88 334.1,-721.99 316,-730.5 309.21,-733.69 301.81,-736.35 294.38,-738.55"/>
<polygon fill="#63b8ff" stroke="#63b8ff" points="882.97,-293.75 887.99,-284.42 878.25,-288.59 882.97,-293.75"/>
</g>
<!-- Node79&#45;&gt;Node30 -->
<g id="edge47" class="edge">
<title>Node79&#45;&gt;Node30</title>
<path fill="none" stroke="#63b8ff" d="M889.85,-253.68C867.93,-211.16 817.08,-114.16 804,-103.5 800.04,-100.27 795.49,-97.62 790.74,-95.44"/>
<polygon fill="#63b8ff" stroke="#63b8ff" points="886.61,-255.03 894.3,-262.33 892.84,-251.83 886.61,-255.03"/>
</g>
<!-- Node29 -->
<g id="node33" class="node">
<title>Node29</title>
<g id="a_node33"><a xlink:href="TransmitterCode_2src_2main_8cpp.html#a6ae37c6938b8c10b83d1bc74e8643bd9" target="_top" xlink:title=" ">
<polygon fill="white" stroke="#666666" points="637.5,-397 524.5,-397 524.5,-378 637.5,-378 637.5,-397"/>
<text text-anchor="middle" x="581" y="-385" font-family="Helvetica,sans-Serif" font-size="10.00">CheckPowerOffButton</text>
</a>
</g>
</g>
<!-- Node79&#45;&gt;Node29 -->
<g id="edge43" class="edge">
<title>Node79&#45;&gt;Node29</title>
<path fill="none" stroke="#63b8ff" d="M876.47,-289.68C857.59,-302.05 830.03,-318.74 804,-329.5 748.96,-352.24 682.49,-368.2 636.72,-377.55"/>
<polygon fill="#63b8ff" stroke="#63b8ff" points="878.36,-292.62 884.74,-284.16 874.48,-286.8 878.36,-292.62"/>
</g>
<!-- Node45 -->
<g id="node34" class="node">
<title>Node45</title>
<g id="a_node34"><a xlink:href="TransmitterCode_2src_2main_8cpp.html#a16c65917a148c7f6c17babf11e977b69" target="_top" xlink:title=" ">
<polygon fill="white" stroke="#666666" points="788,-208 706,-208 706,-189 788,-189 788,-208"/>
<text text-anchor="middle" x="747" y="-196" font-family="Helvetica,sans-Serif" font-size="10.00">EndBuddyView</text>
</a>
</g>
</g>
<!-- Node79&#45;&gt;Node45 -->
<g id="edge48" class="edge">
<title>Node79&#45;&gt;Node45</title>
<path fill="none" stroke="#63b8ff" d="M876.01,-257.19C857.07,-244.83 829.65,-228.06 804,-216.5 797.39,-213.52 790.14,-210.81 783.11,-208.45"/>
<polygon fill="#63b8ff" stroke="#63b8ff" points="874.06,-260.1 884.33,-262.7 877.93,-254.26 874.06,-260.1"/>
</g>
<!-- Node80 -->
<g id="node35" class="node">
<title>Node80</title>
<g id="a_node35"><a xlink:href="TransmitterCode_2src_2main_8cpp.html#a2149418bb038e4a09266523c3bde2fce" target="_top" xlink:title=" ">
<polygon fill="white" stroke="#666666" points="789.5,-321 704.5,-321 704.5,-302 789.5,-302 789.5,-321"/>
<text text-anchor="middle" x="747" y="-309" font-family="Helvetica,sans-Serif" font-size="10.00">EndModelSetup</text>
</a>
</g>
</g>
<!-- Node79&#45;&gt;Node80 -->
<g id="edge49" class="edge">
<title>Node79&#45;&gt;Node80</title>
<path fill="none" stroke="#63b8ff" d="M849,-286.25C829.1,-291.23 806.62,-296.84 787.93,-301.52"/>
<polygon fill="#63b8ff" stroke="#63b8ff" points="849.74,-289.67 858.6,-283.85 848.05,-282.88 849.74,-289.67"/>
</g>
<!-- Node79&#45;&gt;Node81 -->
<g id="edge50" class="edge">
<title>Node79&#45;&gt;Node81</title>
<path fill="none" stroke="#63b8ff" d="M876.37,-256.73C864.38,-247.36 850.23,-234.9 840,-221.5 817.56,-192.11 830.7,-172.08 804,-146.5 797.74,-140.5 789.74,-135.88 781.76,-132.37"/>
<polygon fill="#63b8ff" stroke="#63b8ff" points="874.1,-259.4 884.2,-262.62 878.31,-253.81 874.1,-259.4"/>
</g>
<!-- Node69 -->
<g id="node39" class="node">
<title>Node69</title>
<g id="a_node39"><a xlink:href="Pong_8h.html#a66133191d50f6b4d010d56e6b53a853b" target="_top" xlink:title=" ">
<polygon fill="white" stroke="#666666" points="610,-170 552,-170 552,-151 610,-151 610,-170"/>
<text text-anchor="middle" x="581" y="-158" font-family="Helvetica,sans-Serif" font-size="10.00">PlayPong</text>
</a>
</g>
</g>
<!-- Node79&#45;&gt;Node69 -->
<g id="edge55" class="edge">
<title>Node79&#45;&gt;Node69</title>
<path fill="none" stroke="#63b8ff" d="M878.84,-256.48C867.03,-246.65 852.27,-233.84 840,-221.5 822.66,-204.07 825.88,-190.72 804,-179.5 741.01,-147.2 654.63,-151.37 610.49,-156.38"/>
<polygon fill="#63b8ff" stroke="#63b8ff" points="876.46,-259.05 886.41,-262.68 880.9,-253.63 876.46,-259.05"/>
</g>
<!-- Node84 -->
<g id="node40" class="node">
<title>Node84</title>
<g id="a_node40"><a xlink:href="Utilities_8h.html#a74fec40a81ff0d28af09a67cd64e43bf" target="_top" xlink:title=" ">
<polygon fill="white" stroke="#666666" points="804,-245 690,-245 690,-226 804,-226 804,-245"/>
<text text-anchor="middle" x="747" y="-233" font-family="Helvetica,sans-Serif" font-size="10.00">SaveOrRestoreScreen</text>
</a>
</g>
</g>
<!-- Node79&#45;&gt;Node84 -->
<g id="edge57" class="edge">
<title>Node79&#45;&gt;Node84</title>
<path fill="none" stroke="#63b8ff" d="M849,-260.75C829.1,-255.77 806.62,-250.16 787.93,-245.48"/>
<polygon fill="#63b8ff" stroke="#63b8ff" points="848.05,-264.12 858.6,-263.15 849.74,-257.33 848.05,-264.12"/>
</g>
<!-- Node76 -->
<g id="node44" class="node">
<title>Node76</title>
<g id="a_node44"><a xlink:href="TransmitterCode_2src_2main_8cpp.html#a17699f358cf9f7c3155a9c5daf8ff13c" target="_top" xlink:title=" ">
<polygon fill="white" stroke="#666666" points="767.5,-511 726.5,-511 726.5,-492 767.5,-492 767.5,-511"/>
<text text-anchor="middle" x="747" y="-499" font-family="Helvetica,sans-Serif" font-size="10.00">setup</text>
</a>
</g>
</g>
<!-- Node79&#45;&gt;Node76 -->
<g id="edge61" class="edge">
<title>Node79&#45;&gt;Node76</title>
<path fill="none" stroke="#63b8ff" d="M890.96,-293.71C868.45,-343.87 811.22,-470.53 804,-477.5 794.03,-487.13 779.6,-493.18 767.89,-496.81"/>
<polygon fill="#63b8ff" stroke="#63b8ff" points="894.03,-295.41 894.92,-284.86 887.64,-292.55 894.03,-295.41"/>
</g>
<!-- Node29&#45;&gt;Node5 -->
<g id="edge44" class="edge">
<title>Node29&#45;&gt;Node5</title>
<path fill="none" stroke="#63b8ff" d="M555.98,-403.9C520.83,-427.89 456.43,-471.85 427.61,-491.52"/>
<polygon fill="#63b8ff" stroke="#63b8ff" points="557.94,-406.8 564.22,-398.27 553.99,-401.02 557.94,-406.8"/>
</g>
<!-- Node29&#45;&gt;Node7 -->
<g id="edge45" class="edge">
<title>Node29&#45;&gt;Node7</title>
<path fill="none" stroke="#63b8ff" d="M568.99,-407.13C551.89,-435.89 516.26,-489.33 472,-519.5 466.66,-523.14 460.59,-526.11 454.41,-528.54"/>
<polygon fill="#63b8ff" stroke="#63b8ff" points="571.88,-409.13 573.86,-398.72 565.82,-405.62 571.88,-409.13"/>
</g>
<!-- Node29&#45;&gt;Node17 -->
<g id="edge46" class="edge">
<title>Node29&#45;&gt;Node17</title>
<path fill="none" stroke="#63b8ff" d="M560.54,-369.79C525.16,-337.59 451.43,-270.48 423.78,-245.31"/>
<polygon fill="#63b8ff" stroke="#63b8ff" points="558.17,-372.37 567.92,-376.51 562.88,-367.19 558.17,-372.37"/>
</g>
<!-- Node82 -->
<g id="node37" class="node">
<title>Node82</title>
<g id="a_node37"><a xlink:href="BuddyWireless_8h.html#af63784896d400ae2d75d57852e143ca1" target="_top" xlink:title=" ">
<polygon fill="white" stroke="#666666" points="628.5,-132 533.5,-132 533.5,-113 628.5,-113 628.5,-132"/>
<text text-anchor="middle" x="581" y="-120" font-family="Helvetica,sans-Serif" font-size="10.00">GetSpecialPacket</text>
</a>
</g>
</g>
<!-- Node81&#45;&gt;Node82 -->
<g id="edge51" class="edge">
<title>Node81&#45;&gt;Node82</title>
<path fill="none" stroke="#63b8ff" d="M687.2,-122.5C668,-122.5 646.95,-122.5 628.76,-122.5"/>
<polygon fill="#63b8ff" stroke="#63b8ff" points="687.05,-126 697.05,-122.5 687.05,-119 687.05,-126"/>
</g>
<!-- Node83 -->
<g id="node38" class="node">
<title>Node83</title>
<g id="a_node38"><a xlink:href="TransmitterCode_2src_2main_8cpp.html#ad2c7ed441d88f2a2b2fca83ff61e714d" target="_top" xlink:title=" ">
<polygon fill="white" stroke="#666666" points="472,-132 352,-132 352,-113 472,-113 472,-132"/>
<text text-anchor="middle" x="412" y="-120" font-family="Helvetica,sans-Serif" font-size="10.00">DoWirelessBuddyListen</text>
</a>
</g>
</g>
<!-- Node82&#45;&gt;Node83 -->
<g id="edge52" class="edge">
<title>Node82&#45;&gt;Node83</title>
<path fill="none" stroke="#63b8ff" d="M521.7,-122.5C505.75,-122.5 488.44,-122.5 472.43,-122.5"/>
<polygon fill="#63b8ff" stroke="#63b8ff" points="521.52,-126 531.52,-122.5 521.52,-119 521.52,-126"/>
</g>
<!-- Node83&#45;&gt;Node18 -->
<g id="edge53" class="edge">
<title>Node83&#45;&gt;Node18</title>
<path fill="none" stroke="#63b8ff" d="M355.14,-134.99C321.23,-142.57 280.27,-151.72 257.8,-156.74"/>
<polygon fill="#63b8ff" stroke="#63b8ff" points="355.86,-138.41 364.86,-132.81 354.33,-131.58 355.86,-138.41"/>
</g>
<!-- Node69&#45;&gt;Node18 -->
<g id="edge56" class="edge">
<title>Node69&#45;&gt;Node18</title>
<path fill="none" stroke="#63b8ff" d="M540.53,-160.5C466.47,-160.5 309.47,-160.5 257.84,-160.5"/>
<polygon fill="#63b8ff" stroke="#63b8ff" points="540.17,-164 550.17,-160.5 540.17,-157 540.17,-164"/>
</g>
<!-- Node70 -->
<g id="node41" class="node">
<title>Node70</title>
<g id="a_node41"><a xlink:href="Utilities_8h.html#a35439e94d9f2791ba41697d5eafd3f86" target="_top" xlink:title=" ">
<polygon fill="white" stroke="#666666" points="627,-208 535,-208 535,-189 627,-189 627,-208"/>
<text text-anchor="middle" x="581" y="-196" font-family="Helvetica,sans-Serif" font-size="10.00">HideScreenAgain</text>
</a>
</g>
</g>
<!-- Node84&#45;&gt;Node70 -->
<g id="edge58" class="edge">
<title>Node84&#45;&gt;Node70</title>
<path fill="none" stroke="#63b8ff" d="M690.96,-223.08C669.84,-218.32 646.03,-212.95 626.07,-208.44"/>
<polygon fill="#63b8ff" stroke="#63b8ff" points="690.05,-226.46 700.57,-225.25 691.59,-219.64 690.05,-226.46"/>
</g>
<!-- Node85 -->
<g id="node43" class="node">
<title>Node85</title>
<g id="a_node43"><a xlink:href="Utilities_8h.html#a789aa2c47bd0fb1851c64e6b2e0c3f85" target="_top" xlink:title=" ">
<polygon fill="white" stroke="#666666" points="629.5,-245 532.5,-245 532.5,-226 629.5,-226 629.5,-245"/>
<text text-anchor="middle" x="581" y="-233" font-family="Helvetica,sans-Serif" font-size="10.00">ShowScreenAgain</text>
</a>
</g>
</g>
<!-- Node84&#45;&gt;Node85 -->
<g id="edge60" class="edge">
<title>Node84&#45;&gt;Node85</title>
<path fill="none" stroke="#63b8ff" d="M678.42,-235.5C662.11,-235.5 645.01,-235.5 629.81,-235.5"/>
<polygon fill="#63b8ff" stroke="#63b8ff" points="678.05,-239 688.05,-235.5 678.05,-232 678.05,-239"/>
</g>
<!-- Node71 -->
<g id="node42" class="node">
<title>Node71</title>
<g id="a_node42"><a xlink:href="Utilities_8h.html#adce05a2e4f5763c3b90c7126234d2cc8" target="_top" xlink:title=" ">
<polygon fill="#fff0f0" stroke="red" points="460.5,-208 363.5,-208 363.5,-189 460.5,-189 460.5,-208"/>
<text text-anchor="middle" x="412" y="-196" font-family="Helvetica,sans-Serif" font-size="10.00">CheckScreenTime</text>
</a>
</g>
</g>
<!-- Node70&#45;&gt;Node71 -->
<g id="edge59" class="edge">
<title>Node70&#45;&gt;Node71</title>
<path fill="none" stroke="#63b8ff" d="M523.47,-198.5C503.13,-198.5 480.39,-198.5 460.86,-198.5"/>
<polygon fill="#63b8ff" stroke="#63b8ff" points="523.29,-202 533.29,-198.5 523.29,-195 523.29,-202"/>
</g>
<!-- Node75&#45;&gt;Node3 -->
<g id="edge64" class="edge">
<title>Node75&#45;&gt;Node3</title>
<path fill="none" stroke="#63b8ff" d="M852.22,-549.39C830.51,-555.24 805.22,-562.07 784.98,-567.52"/>
<polygon fill="#63b8ff" stroke="#63b8ff" points="853,-552.8 861.74,-546.82 851.18,-546.04 853,-552.8"/>
</g>
<!-- Node75&#45;&gt;Node76 -->
<g id="edge65" class="edge">
<title>Node75&#45;&gt;Node76</title>
<path fill="none" stroke="#63b8ff" d="M845.89,-524.04C818.7,-517.78 787.43,-510.58 767.69,-506.03"/>
<polygon fill="#63b8ff" stroke="#63b8ff" points="844.84,-527.39 855.37,-526.22 846.41,-520.57 844.84,-527.39"/>
</g>
<!-- Node86&#45;&gt;Node6 -->
<g id="edge68" class="edge">
<title>Node86&#45;&gt;Node6</title>
<path fill="none" stroke="#63b8ff" d="M828.28,-422.91C749.62,-419.83 619.72,-413.99 508,-405.5 423.68,-399.09 324.71,-388.2 274.25,-382.4"/>
<polygon fill="#63b8ff" stroke="#63b8ff" points="827.86,-426.4 837.99,-423.29 828.13,-419.4 827.86,-426.4"/>
</g>
<!-- Node87&#45;&gt;Node3 -->
<g id="edge70" class="edge">
<title>Node87&#45;&gt;Node3</title>
<path fill="none" stroke="#63b8ff" d="M845.69,-600C827.82,-595.88 808.2,-591.36 791.26,-587.46"/>
<polygon fill="#63b8ff" stroke="#63b8ff" points="844.84,-603.39 855.37,-602.22 846.41,-596.57 844.84,-603.39"/>
</g>
<!-- Node52 -->
<g id="node48" class="node">
<title>Node52</title>
<g id="a_node48"><a xlink:href="TransmitterCode_2src_2main_8cpp.html#a446a94169d966af920710f7acddc5257" target="_top" xlink:title=" ">
<polygon fill="white" stroke="#666666" points="792.5,-739 701.5,-739 701.5,-720 792.5,-720 792.5,-739"/>
<text text-anchor="middle" x="747" y="-727" font-family="Helvetica,sans-Serif" font-size="10.00">GotoModelsView</text>
</a>
</g>
</g>
<!-- Node87&#45;&gt;Node52 -->
<g id="edge71" class="edge">
<title>Node87&#45;&gt;Node52</title>
<path fill="none" stroke="#63b8ff" d="M877.98,-629.45C845.79,-654.23 786.92,-699.54 760.93,-719.55"/>
<polygon fill="#63b8ff" stroke="#63b8ff" points="880.05,-632.27 885.84,-623.4 875.78,-626.72 880.05,-632.27"/>
</g>
<!-- Node52&#45;&gt;Node11 -->
<g id="edge73" class="edge">
<title>Node52&#45;&gt;Node11</title>
<path fill="none" stroke="#63b8ff" d="M691.97,-741.73C679.55,-744.25 666.35,-746.68 654,-748.5 521.71,-768.02 363.96,-778.69 287.35,-783.08"/>
<polygon fill="#63b8ff" stroke="#63b8ff" points="692.56,-745.18 701.64,-739.72 691.14,-738.33 692.56,-745.18"/>
</g>
<!-- Node38 -->
<g id="node49" class="node">
<title>Node38</title>
<g id="a_node49"><a xlink:href="TransmitterCode_2src_2main_8cpp.html#a7af8e147bab19bdc499ffef595d30aae" target="_top" xlink:title=" ">
<polygon fill="white" stroke="#666666" points="628.5,-739 533.5,-739 533.5,-720 628.5,-720 628.5,-739"/>
<text text-anchor="middle" x="581" y="-727" font-family="Helvetica,sans-Serif" font-size="10.00">EndRenameModel</text>
</a>
</g>
</g>
<!-- Node52&#45;&gt;Node38 -->
<g id="edge72" class="edge">
<title>Node52&#45;&gt;Node38</title>
<path fill="none" stroke="#63b8ff" d="M689.78,-729.5C669.9,-729.5 647.77,-729.5 628.76,-729.5"/>
<polygon fill="#63b8ff" stroke="#63b8ff" points="689.67,-733 699.67,-729.5 689.67,-726 689.67,-733"/>
</g>
<!-- Node88&#45;&gt;Node6 -->
<g id="edge77" class="edge">
<title>Node88&#45;&gt;Node6</title>
<path fill="none" stroke="#63b8ff" d="M846.3,-476.97C844.13,-478.06 842.02,-479.24 840,-480.5 819.99,-493 825.61,-510.04 804,-519.5 757.59,-539.82 737.92,-535.94 690,-519.5 670.83,-512.92 672.16,-500.5 654,-491.5 529.58,-429.86 483.5,-456.08 352,-411.5 335.58,-405.93 332.48,-401.87 316,-396.5 302.51,-392.1 287.33,-388.26 274.17,-385.27"/>
<polygon fill="#63b8ff" stroke="#63b8ff" points="847.66,-480.19 855.43,-472.99 844.86,-473.78 847.66,-480.19"/>
</g>
</g>
</svg>
