<?xml version="1.0" encoding="UTF-8" standalone="no"?>
<!DOCTYPE svg PUBLIC "-//W3C//DTD SVG 1.1//EN"
 "http://www.w3.org/Graphics/SVG/1.1/DTD/svg11.dtd">
<!-- Generated by graphviz version 7.0.5 (20221223.1930)
 -->
<!-- Title: loop Pages: 1 -->
<svg width="657pt" height="1376pt"
 viewBox="0.00 0.00 657.00 1376.00" xmlns="http://www.w3.org/2000/svg" xmlns:xlink="http://www.w3.org/1999/xlink">
<g id="graph0" class="graph" transform="scale(1 1) rotate(0) translate(4 1372)">
<title>loop</title>
<!-- Node1 -->
<g id="node1" class="node">
<title>Node1</title>
<g id="a_node1"><a xlink:title=" ">
<polygon fill="#999999" stroke="#666666" points="35,-731 0,-731 0,-712 35,-712 35,-731"/>
<text text-anchor="middle" x="17.5" y="-719" font-family="Helvetica,sans-Serif" font-size="10.00">loop</text>
</a>
</g>
</g>
<!-- Node2 -->
<g id="node2" class="node">
<title>Node2</title>
<g id="a_node2"><a xlink:href="TransmitterCode_2src_2main_8cpp.html#ae1b8cef371d26fca2b4f5a101be7a8ba" target="_top" xlink:title=" ">
<polygon fill="white" stroke="#666666" points="163,-1184 80,-1184 80,-1165 163,-1165 163,-1184"/>
<text text-anchor="middle" x="121.5" y="-1172" font-family="Helvetica,sans-Serif" font-size="10.00">CalibrateSticks</text>
</a>
</g>
</g>
<!-- Node1&#45;&gt;Node2 -->
<g id="edge1" class="edge">
<title>Node1&#45;&gt;Node2</title>
<path fill="none" stroke="#63b8ff" d="M18.34,-731.17C17.58,-788.87 16.37,-1087.69 71,-1156.5 71.25,-1156.81 71.5,-1157.11 71.75,-1157.41"/>
<polygon fill="#63b8ff" stroke="#63b8ff" points="69.41,-1160.01 79.34,-1163.72 73.89,-1154.63 69.41,-1160.01"/>
</g>
<!-- Node3 -->
<g id="node3" class="node">
<title>Node3</title>
<g id="a_node3"><a xlink:href="TransmitterCode_2src_2main_8cpp.html#a26ae4f6ca14f760bd5eb6e7588fe7c81" target="_top" xlink:title="GET NEW SERVO POSITIONS.">
<polygon fill="white" stroke="#666666" points="340,-1222 222,-1222 222,-1203 340,-1203 340,-1222"/>
<text text-anchor="middle" x="281" y="-1210" font-family="Helvetica,sans-Serif" font-size="10.00">GetNewChannelValues</text>
</a>
</g>
</g>
<!-- Node1&#45;&gt;Node3 -->
<g id="edge26" class="edge">
<title>Node1&#45;&gt;Node3</title>
<path fill="none" stroke="#63b8ff" d="M18.86,-731.43C21.35,-796.46 36.7,-1159.88 71,-1193.5 111.39,-1233.08 179.62,-1231.65 227.09,-1224.39"/>
<polygon fill="#63b8ff" stroke="#63b8ff" points="227.61,-1227.85 236.89,-1222.75 226.45,-1220.95 227.61,-1227.85"/>
</g>
<!-- Node15 -->
<g id="node13" class="node">
<title>Node15</title>
<g id="a_node13"><a xlink:href="TransmitterCode_2src_2main_8cpp.html#a0e7ca9043d8fa769e8a9290df885e594" target="_top" xlink:title="Get centre as 90 degrees.">
<polygon fill="white" stroke="#666666" points="164.5,-1147 78.5,-1147 78.5,-1128 164.5,-1128 164.5,-1147"/>
<text text-anchor="middle" x="121.5" y="-1135" font-family="Helvetica,sans-Serif" font-size="10.00">ChannelCentres</text>
</a>
</g>
</g>
<!-- Node1&#45;&gt;Node15 -->
<g id="edge13" class="edge">
<title>Node1&#45;&gt;Node15</title>
<path fill="none" stroke="#63b8ff" d="M18.89,-731.35C21.1,-784.08 33.42,-1033.01 71,-1098.5 76.17,-1107.5 84.3,-1115.19 92.5,-1121.3"/>
<polygon fill="#63b8ff" stroke="#63b8ff" points="90.48,-1124.16 100.72,-1126.88 94.41,-1118.37 90.48,-1124.16"/>
</g>
<!-- Node18 -->
<g id="node15" class="node">
<title>Node18</title>
<g id="a_node15"><a xlink:href="macros_8h.html#a78f22801971c106db61d728dd345e28e" target="_top" xlink:title=" ">
<polygon fill="white" stroke="#666666" points="160.5,-150 82.5,-150 82.5,-131 160.5,-131 160.5,-150"/>
<text text-anchor="middle" x="121.5" y="-138" font-family="Helvetica,sans-Serif" font-size="10.00">ExecuteMacro</text>
</a>
</g>
</g>
<!-- Node1&#45;&gt;Node18 -->
<g id="edge17" class="edge">
<title>Node1&#45;&gt;Node18</title>
<path fill="none" stroke="#63b8ff" d="M18.77,-711.55C20.3,-662.84 29.25,-444.89 71,-272.5 80.94,-231.45 99.97,-185.76 111.32,-160.34"/>
<polygon fill="#63b8ff" stroke="#63b8ff" points="114.36,-162.11 115.31,-151.56 107.99,-159.21 114.36,-162.11"/>
</g>
<!-- Node22 -->
<g id="node19" class="node">
<title>Node22</title>
<g id="a_node19"><a xlink:href="TransmitterCode_2src_2main_8cpp.html#ab584ae7dbc9b1af37538f91b00b8927f" target="_top" xlink:title=" ">
<polygon fill="white" stroke="#666666" points="166,-1028 77,-1028 77,-1009 166,-1009 166,-1028"/>
<text text-anchor="middle" x="121.5" y="-1016" font-family="Helvetica,sans-Serif" font-size="10.00">FixMotorChannel</text>
</a>
</g>
</g>
<!-- Node1&#45;&gt;Node22 -->
<g id="edge21" class="edge">
<title>Node1&#45;&gt;Node22</title>
<path fill="none" stroke="#63b8ff" d="M19.56,-731.18C23.28,-762.84 37.39,-865.7 71,-943.5 79.95,-964.21 94.58,-985.46 105.63,-1000.03"/>
<polygon fill="#63b8ff" stroke="#63b8ff" points="102.74,-1002.02 111.65,-1007.76 108.27,-997.72 102.74,-1002.02"/>
</g>
<!-- Node23 -->
<g id="node20" class="node">
<title>Node23</title>
<g id="a_node20"><a xlink:href="TransmitterCode_2src_2main_8cpp.html#aeebf5448bda34e667782e5de5e81f500" target="_top" xlink:title=" ">
<polygon fill="white" stroke="#666666" points="161.5,-300 81.5,-300 81.5,-281 161.5,-281 161.5,-300"/>
<text text-anchor="middle" x="121.5" y="-288" font-family="Helvetica,sans-Serif" font-size="10.00">GetBuddyData</text>
</a>
</g>
</g>
<!-- Node1&#45;&gt;Node23 -->
<g id="edge23" class="edge">
<title>Node1&#45;&gt;Node23</title>
<path fill="none" stroke="#63b8ff" d="M18.44,-711.51C18.49,-668.6 21.9,-496.14 71,-366.5 79.07,-345.2 93.82,-323.71 105.13,-309.05"/>
<polygon fill="#63b8ff" stroke="#63b8ff" points="107.84,-311.25 111.34,-301.25 102.37,-306.89 107.84,-311.25"/>
</g>
<!-- Node32 -->
<g id="node23" class="node">
<title>Node32</title>
<g id="a_node23"><a xlink:href="BuddyWireless_8h.html#a6b6be9f7d9ac75c161d1dc492961bebf" target="_top" xlink:title=" ">
<polygon fill="white" stroke="#666666" points="169,-750 74,-750 74,-731 169,-731 169,-750"/>
<text text-anchor="middle" x="121.5" y="-738" font-family="Helvetica,sans-Serif" font-size="10.00">GetSpecialPacket</text>
</a>
</g>
</g>
<!-- Node1&#45;&gt;Node32 -->
<g id="edge27" class="edge">
<title>Node1&#45;&gt;Node32</title>
<path fill="none" stroke="#63b8ff" d="M35.34,-724.64C42.99,-726.06 52.53,-727.84 62.44,-729.68"/>
<polygon fill="#63b8ff" stroke="#63b8ff" points="61.73,-733.11 72.21,-731.5 63.02,-726.23 61.73,-733.11"/>
</g>
<!-- Node37 -->
<g id="node29" class="node">
<title>Node37</title>
<g id="a_node29"><a xlink:href="TransmitterCode_2src_2main_8cpp.html#a558ea014e230b7caa54ce5a37ad29b22" target="_top" xlink:title=" ">
<polygon fill="white" stroke="#666666" points="172,-394 71,-394 71,-375 172,-375 172,-394"/>
<text text-anchor="middle" x="121.5" y="-382" font-family="Helvetica,sans-Serif" font-size="10.00">ManageTransmitter</text>
</a>
</g>
</g>
<!-- Node1&#45;&gt;Node37 -->
<g id="edge34" class="edge">
<title>Node1&#45;&gt;Node37</title>
<path fill="none" stroke="#63b8ff" d="M21.44,-711.78C35.37,-665.75 94.83,-469.3 114.3,-404.98"/>
<polygon fill="#63b8ff" stroke="#63b8ff" points="117.56,-406.3 117.11,-395.71 110.86,-404.27 117.56,-406.3"/>
</g>
<!-- Node266 -->
<g id="node42" class="node">
<title>Node266</title>
<g id="a_node42"><a xlink:href="Pong_8h.html#a66133191d50f6b4d010d56e6b53a853b" target="_top" xlink:title=" ">
<polygon fill="#fff0f0" stroke="red" points="150.5,-934 92.5,-934 92.5,-915 150.5,-915 150.5,-934"/>
<text text-anchor="middle" x="121.5" y="-922" font-family="Helvetica,sans-Serif" font-size="10.00">PlayPong</text>
</a>
</g>
</g>
<!-- Node1&#45;&gt;Node266 -->
<g id="edge53" class="edge">
<title>Node1&#45;&gt;Node266</title>
<path fill="none" stroke="#63b8ff" d="M23.42,-731.29C39.24,-762.78 89.02,-861.85 110.49,-904.57"/>
<polygon fill="#63b8ff" stroke="#63b8ff" points="107.33,-906.09 114.95,-913.45 113.59,-902.95 107.33,-906.09"/>
</g>
<!-- Node87 -->
<g id="node46" class="node">
<title>Node87</title>
<g id="a_node46"><a xlink:href="transceiver_8h.html#ae17dae8deffe2e33044f61fd3a8ebca2" target="_top" xlink:title=" ">
<polygon fill="#fff0f0" stroke="red" points="167,-637 76,-637 76,-618 167,-618 167,-637"/>
<text text-anchor="middle" x="121.5" y="-625" font-family="Helvetica,sans-Serif" font-size="10.00">ScanAllChannels</text>
</a>
</g>
</g>
<!-- Node1&#45;&gt;Node87 -->
<g id="edge60" class="edge">
<title>Node1&#45;&gt;Node87</title>
<path fill="none" stroke="#63b8ff" d="M26.96,-711.53C36.98,-699.95 54.41,-680.53 71,-665.5 79.28,-657.99 88.93,-650.37 97.5,-643.93"/>
<polygon fill="#63b8ff" stroke="#63b8ff" points="99.38,-646.89 105.36,-638.15 95.23,-641.26 99.38,-646.89"/>
</g>
<!-- Node269 -->
<g id="node47" class="node">
<title>Node269</title>
<g id="a_node47"><a xlink:href="transceiver_8h.html#ae5df0d6d4352a4039d996e773e8fc6bf" target="_top" xlink:title=" ">
<polygon fill="#fff0f0" stroke="red" points="167,-113 76,-113 76,-94 167,-94 167,-113"/>
<text text-anchor="middle" x="121.5" y="-101" font-family="Helvetica,sans-Serif" font-size="10.00">SendBindingPipe</text>
</a>
</g>
</g>
<!-- Node1&#45;&gt;Node269 -->
<g id="edge62" class="edge">
<title>Node1&#45;&gt;Node269</title>
<path fill="none" stroke="#63b8ff" d="M18.74,-711.54C20.65,-637.27 34.01,-171.58 71,-122.5 71.52,-121.81 72.07,-121.15 72.64,-120.51"/>
<polygon fill="#63b8ff" stroke="#63b8ff" points="74.58,-123.44 80.13,-114.42 70.16,-118.01 74.58,-123.44"/>
</g>
<!-- Node165 -->
<g id="node48" class="node">
<title>Node165</title>
<g id="a_node48"><a xlink:href="transceiver_8h.html#a049bfb836e7aa4a3a48a1a4bd225fafc" target="_top" xlink:title=" ">
<polygon fill="#fff0f0" stroke="red" points="151,-693 92,-693 92,-674 151,-674 151,-693"/>
<text text-anchor="middle" x="121.5" y="-681" font-family="Helvetica,sans-Serif" font-size="10.00">SendData</text>
</a>
</g>
</g>
<!-- Node1&#45;&gt;Node165 -->
<g id="edge63" class="edge">
<title>Node1&#45;&gt;Node165</title>
<path fill="none" stroke="#63b8ff" d="M35.34,-715.23C48.43,-710.35 67.08,-703.4 83.59,-697.25"/>
<polygon fill="#63b8ff" stroke="#63b8ff" points="84.48,-700.65 92.63,-693.88 82.03,-694.1 84.48,-700.65"/>
</g>
<!-- Node271 -->
<g id="node49" class="node">
<title>Node271</title>
<g id="a_node49"><a xlink:href="TransmitterCode_2src_2main_8cpp.html#aa13f35720398e2d1a7467e37b634b364" target="_top" xlink:title=" ">
<polygon fill="white" stroke="#666666" points="152,-76 91,-76 91,-57 152,-57 152,-76"/>
<text text-anchor="middle" x="121.5" y="-64" font-family="Helvetica,sans-Serif" font-size="10.00">SendPPM</text>
</a>
</g>
</g>
<!-- Node1&#45;&gt;Node271 -->
<g id="edge66" class="edge">
<title>Node1&#45;&gt;Node271</title>
<path fill="none" stroke="#63b8ff" d="M18.68,-711.9C20.21,-636.28 31.71,-137.91 71,-85.5 73.55,-82.1 76.8,-79.3 80.4,-77.01"/>
<polygon fill="#63b8ff" stroke="#63b8ff" points="81.75,-80.24 89.19,-72.7 78.67,-73.96 81.75,-80.24"/>
</g>
<!-- Node80 -->
<g id="node50" class="node">
<title>Node80</title>
<g id="a_node50"><a xlink:href="TransmitterCode_2src_2main_8cpp.html#ad770ee51a34d8c5026e65136884c16bf" target="_top" xlink:title=" ">
<polygon fill="#fff0f0" stroke="red" points="323,-1109 239,-1109 239,-1090 323,-1090 323,-1109"/>
<text text-anchor="middle" x="281" y="-1097" font-family="Helvetica,sans-Serif" font-size="10.00">ShowServoPos</text>
</a>
</g>
</g>
<!-- Node1&#45;&gt;Node80 -->
<g id="edge67" class="edge">
<title>Node1&#45;&gt;Node80</title>
<path fill="none" stroke="#63b8ff" d="M18.77,-731.24C20.29,-779.25 29.3,-990.3 71,-1037.5 110.12,-1081.79 179.26,-1095.12 227.25,-1098.77"/>
<polygon fill="#63b8ff" stroke="#63b8ff" points="226.95,-1102.26 237.15,-1099.4 227.39,-1095.28 226.95,-1102.26"/>
</g>
<!-- Node2&#45;&gt;Node3 -->
<g id="edge2" class="edge">
<title>Node2&#45;&gt;Node3</title>
<path fill="none" stroke="#63b8ff" d="M163.47,-1184.38C183.09,-1189.12 206.82,-1194.84 227.73,-1199.89"/>
<polygon fill="#63b8ff" stroke="#63b8ff" points="226.67,-1203.23 237.22,-1202.18 228.32,-1196.43 226.67,-1203.23"/>
</g>
<!-- Node4 -->
<g id="node4" class="node">
<title>Node4</title>
<g id="a_node4"><a xlink:href="TransmitterCode_2src_2main_8cpp.html#ac5728db610c441820a6f47295967cbab" target="_top" xlink:title=" ">
<polygon fill="white" stroke="#666666" points="502,-1109 422,-1109 422,-1090 502,-1090 502,-1109"/>
<text text-anchor="middle" x="462" y="-1097" font-family="Helvetica,sans-Serif" font-size="10.00">AnalogueReed</text>
</a>
</g>
</g>
<!-- Node3&#45;&gt;Node4 -->
<g id="edge3" class="edge">
<title>Node3&#45;&gt;Node4</title>
<path fill="none" stroke="#63b8ff" d="M340.41,-1202.82C345.29,-1200.59 349.91,-1197.85 354,-1194.5 382.9,-1170.8 361.29,-1142.43 390,-1118.5 396.06,-1113.45 403.34,-1109.73 410.89,-1106.99"/>
<polygon fill="#63b8ff" stroke="#63b8ff" points="411.64,-1110.42 420.2,-1104.18 409.62,-1103.72 411.64,-1110.42"/>
</g>
<!-- Node5 -->
<g id="node5" class="node">
<title>Node5</title>
<g id="a_node5"><a xlink:href="TransmitterCode_2src_2main_8cpp.html#ac77bd940a0faad7b997c9ddf40a7acc6" target="_top" xlink:title=" ">
<polygon fill="white" stroke="#666666" points="489,-1331 435,-1331 435,-1312 489,-1312 489,-1331"/>
<text text-anchor="middle" x="462" y="-1319" font-family="Helvetica,sans-Serif" font-size="10.00">DoMixes</text>
</a>
</g>
</g>
<!-- Node3&#45;&gt;Node5 -->
<g id="edge4" class="edge">
<title>Node3&#45;&gt;Node5</title>
<path fill="none" stroke="#63b8ff" d="M290.75,-1222.39C307.9,-1241.14 347.9,-1281.89 390,-1303.5 400.33,-1308.8 412.32,-1312.61 423.47,-1315.32"/>
<polygon fill="#63b8ff" stroke="#63b8ff" points="422.69,-1318.73 433.21,-1317.43 424.18,-1311.89 422.69,-1318.73"/>
</g>
<!-- Node7 -->
<g id="node7" class="node">
<title>Node7</title>
<g id="a_node7"><a xlink:href="Utilities_8h.html#acbd7adcd2b0e2095a89b4a98042b526e" target="_top" xlink:title=" ">
<polygon fill="white" stroke="#666666" points="508,-1257 416,-1257 416,-1238 508,-1238 508,-1257"/>
<text text-anchor="middle" x="462" y="-1245" font-family="Helvetica,sans-Serif" font-size="10.00">DoReverseSense</text>
</a>
</g>
</g>
<!-- Node3&#45;&gt;Node7 -->
<g id="edge6" class="edge">
<title>Node3&#45;&gt;Node7</title>
<path fill="none" stroke="#63b8ff" d="M332.82,-1222.44C355.1,-1226.79 381.34,-1231.92 404.26,-1236.41"/>
<polygon fill="#63b8ff" stroke="#63b8ff" points="403.58,-1239.84 414.07,-1238.32 404.93,-1232.97 403.58,-1239.84"/>
</g>
<!-- Node8 -->
<g id="node8" class="node">
<title>Node8</title>
<g id="a_node8"><a xlink:href="TransmitterCode_2src_2main_8cpp.html#a4be5821d4f80bdcdbee25adc69051d3e" target="_top" xlink:title=" ">
<polygon fill="white" stroke="#666666" points="506.5,-1220 417.5,-1220 417.5,-1201 506.5,-1201 506.5,-1220"/>
<text text-anchor="middle" x="462" y="-1208" font-family="Helvetica,sans-Serif" font-size="10.00">DoRouteOutputs</text>
</a>
</g>
</g>
<!-- Node3&#45;&gt;Node8 -->
<g id="edge7" class="edge">
<title>Node3&#45;&gt;Node8</title>
<path fill="none" stroke="#63b8ff" d="M340.12,-1211.85C361.22,-1211.61 384.99,-1211.35 405.83,-1211.12"/>
<polygon fill="#63b8ff" stroke="#63b8ff" points="405.6,-1214.62 415.56,-1211.01 405.52,-1207.62 405.6,-1214.62"/>
</g>
<!-- Node9 -->
<g id="node9" class="node">
<title>Node9</title>
<g id="a_node9"><a xlink:href="TransmitterCode_2src_2main_8cpp.html#a7a6560a77b8c4dd3925760790beafbd5" target="_top" xlink:title=" ">
<polygon fill="white" stroke="#666666" points="502.5,-1183 421.5,-1183 421.5,-1164 502.5,-1164 502.5,-1183"/>
<text text-anchor="middle" x="462" y="-1171" font-family="Helvetica,sans-Serif" font-size="10.00">DoSlowServos</text>
</a>
</g>
</g>
<!-- Node3&#45;&gt;Node9 -->
<g id="edge8" class="edge">
<title>Node3&#45;&gt;Node9</title>
<path fill="none" stroke="#63b8ff" d="M327.63,-1202.56C352.81,-1197.07 384.13,-1190.25 410.1,-1184.59"/>
<polygon fill="#63b8ff" stroke="#63b8ff" points="410.73,-1188.04 419.75,-1182.49 409.24,-1181.2 410.73,-1188.04"/>
</g>
<!-- Node10 -->
<g id="node10" class="node">
<title>Node10</title>
<g id="a_node10"><a xlink:href="TransmitterCode_2src_2main_8cpp.html#af9c038b48102eca9032f10fefd9d5736" target="_top" xlink:title=" ">
<polygon fill="#fff0f0" stroke="red" points="501,-1146 423,-1146 423,-1127 501,-1127 501,-1146"/>
<text text-anchor="middle" x="462" y="-1134" font-family="Helvetica,sans-Serif" font-size="10.00">GetCurveDots</text>
</a>
</g>
</g>
<!-- Node3&#45;&gt;Node10 -->
<g id="edge9" class="edge">
<title>Node3&#45;&gt;Node10</title>
<path fill="none" stroke="#63b8ff" d="M336.44,-1202.54C342.58,-1200.37 348.57,-1197.72 354,-1194.5 374.29,-1182.47 369.81,-1167.7 390,-1155.5 396.6,-1151.51 404.05,-1148.35 411.57,-1145.84"/>
<polygon fill="#63b8ff" stroke="#63b8ff" points="412.49,-1149.22 421.1,-1143.04 410.52,-1142.5 412.49,-1149.22"/>
</g>
<!-- Node13 -->
<g id="node11" class="node">
<title>Node13</title>
<g id="a_node11"><a xlink:href="TransmitterCode_2src_2main_8cpp.html#a248db02e07497e7a4149db17b4e5c2f3" target="_top" xlink:title=" ">
<polygon fill="white" stroke="#666666" points="500.5,-1294 423.5,-1294 423.5,-1275 500.5,-1275 500.5,-1294"/>
<text text-anchor="middle" x="462" y="-1282" font-family="Helvetica,sans-Serif" font-size="10.00">GetStickInput</text>
</a>
</g>
</g>
<!-- Node3&#45;&gt;Node13 -->
<g id="edge10" class="edge">
<title>Node3&#45;&gt;Node13</title>
<path fill="none" stroke="#63b8ff" d="M299.07,-1222.48C319.93,-1234.34 356.6,-1254.08 390,-1266.5 397.13,-1269.15 404.8,-1271.54 412.37,-1273.66"/>
<polygon fill="#63b8ff" stroke="#63b8ff" points="411.29,-1276.99 421.86,-1276.16 413.08,-1270.22 411.29,-1276.99"/>
</g>
<!-- Node14 -->
<g id="node12" class="node">
<title>Node14</title>
<g id="a_node12"><a xlink:href="Trims_8h.html#aacd8b022714bb89847239dd878ad9509" target="_top" xlink:title=" ">
<polygon fill="white" stroke="#666666" points="505,-1368 419,-1368 419,-1349 505,-1349 505,-1368"/>
<text text-anchor="middle" x="462" y="-1356" font-family="Helvetica,sans-Serif" font-size="10.00">GetTrimAmount</text>
</a>
</g>
</g>
<!-- Node3&#45;&gt;Node14 -->
<g id="edge12" class="edge">
<title>Node3&#45;&gt;Node14</title>
<path fill="none" stroke="#63b8ff" d="M287.33,-1222.3C300.99,-1246.44 339.72,-1309.04 390,-1340.5 395.52,-1343.96 401.68,-1346.75 408,-1349.01"/>
<polygon fill="#63b8ff" stroke="#63b8ff" points="406.66,-1352.26 417.25,-1351.88 408.74,-1345.57 406.66,-1352.26"/>
</g>
<!-- Node6 -->
<g id="node6" class="node">
<title>Node6</title>
<g id="a_node6"><a xlink:href="Utilities_8h.html#a0d8d8a0d67cb9b04481f1692abe75368" target="_top" xlink:title=" ">
<polygon fill="white" stroke="#666666" points="649,-1294 570,-1294 570,-1275 649,-1275 649,-1294"/>
<text text-anchor="middle" x="609.5" y="-1282" font-family="Helvetica,sans-Serif" font-size="10.00">IntoHigherRes</text>
</a>
</g>
</g>
<!-- Node5&#45;&gt;Node6 -->
<g id="edge5" class="edge">
<title>Node5&#45;&gt;Node6</title>
<path fill="none" stroke="#63b8ff" d="M489.3,-1314.84C502.69,-1311.45 519.21,-1307.26 534,-1303.5 542,-1301.46 550.49,-1299.3 558.76,-1297.2"/>
<polygon fill="#63b8ff" stroke="#63b8ff" points="559.54,-1300.61 568.37,-1294.75 557.81,-1293.83 559.54,-1300.61"/>
</g>
<!-- Node13&#45;&gt;Node6 -->
<g id="edge11" class="edge">
<title>Node13&#45;&gt;Node6</title>
<path fill="none" stroke="#63b8ff" d="M500.85,-1284.5C518.35,-1284.5 539.38,-1284.5 558.2,-1284.5"/>
<polygon fill="#63b8ff" stroke="#63b8ff" points="558.06,-1288 568.06,-1284.5 558.06,-1281 558.06,-1288"/>
</g>
<!-- Node15&#45;&gt;Node3 -->
<g id="edge16" class="edge">
<title>Node15&#45;&gt;Node3</title>
<path fill="none" stroke="#63b8ff" d="M154.7,-1147.45C160.69,-1149.96 166.72,-1152.97 172,-1156.5 191.34,-1169.43 187.91,-1182.77 208,-1194.5 210.35,-1195.87 212.8,-1197.14 215.31,-1198.31"/>
<polygon fill="#63b8ff" stroke="#63b8ff" points="213.99,-1201.55 224.57,-1202.04 216.6,-1195.05 213.99,-1201.55"/>
</g>
<!-- Node15&#45;&gt;Node4 -->
<g id="edge14" class="edge">
<title>Node15&#45;&gt;Node4</title>
<path fill="none" stroke="#63b8ff" d="M164.87,-1135.22C211.38,-1132.44 288.21,-1127.02 354,-1118.5 372.42,-1116.11 392.49,-1112.75 410.23,-1109.52"/>
<polygon fill="#63b8ff" stroke="#63b8ff" points="410.82,-1112.97 420.01,-1107.7 409.54,-1106.09 410.82,-1112.97"/>
</g>
<!-- Node16 -->
<g id="node14" class="node">
<title>Node16</title>
<g id="a_node14"><a xlink:href="TransmitterCode_2src_2main_8cpp.html#a128fe47088693b102796cd67a175ea08" target="_top" xlink:title=" ">
<polygon fill="#fff0f0" stroke="red" points="339.5,-1185 222.5,-1185 222.5,-1166 339.5,-1166 339.5,-1185"/>
<text text-anchor="middle" x="281" y="-1173" font-family="Helvetica,sans-Serif" font-size="10.00">CalibrateEdgeSwitches</text>
</a>
</g>
</g>
<!-- Node15&#45;&gt;Node16 -->
<g id="edge15" class="edge">
<title>Node15&#45;&gt;Node16</title>
<path fill="none" stroke="#63b8ff" d="M163.88,-1147.48C183.34,-1152.18 206.75,-1157.83 227.45,-1162.82"/>
<polygon fill="#63b8ff" stroke="#63b8ff" points="226.61,-1166.22 237.15,-1165.16 228.25,-1159.41 226.61,-1166.22"/>
</g>
<!-- Node19 -->
<g id="node16" class="node">
<title>Node19</title>
<g id="a_node16"><a xlink:href="macros_8h.html#a91fb686ba2d3111821721ab33b442918" target="_top" xlink:title=" ">
<polygon fill="white" stroke="#666666" points="311.5,-93 250.5,-93 250.5,-74 311.5,-74 311.5,-93"/>
<text text-anchor="middle" x="281" y="-81" font-family="Helvetica,sans-Serif" font-size="10.00">RunMacro</text>
</a>
</g>
</g>
<!-- Node18&#45;&gt;Node19 -->
<g id="edge18" class="edge">
<title>Node18&#45;&gt;Node19</title>
<path fill="none" stroke="#63b8ff" d="M150.59,-130.54C157.61,-127.98 165.1,-125.19 172,-122.5 188.15,-116.2 191.77,-113.58 208,-107.5 218.06,-103.73 229.01,-99.93 239.27,-96.5"/>
<polygon fill="#63b8ff" stroke="#63b8ff" points="240.22,-99.87 248.62,-93.42 238.02,-93.23 240.22,-99.87"/>
</g>
<!-- Node20 -->
<g id="node17" class="node">
<title>Node20</title>
<g id="a_node17"><a xlink:href="macros_8h.html#aff7f985af10a021196ae5c9bf188c445" target="_top" xlink:title=" ">
<polygon fill="white" stroke="#666666" points="313.5,-56 248.5,-56 248.5,-37 313.5,-37 313.5,-56"/>
<text text-anchor="middle" x="281" y="-44" font-family="Helvetica,sans-Serif" font-size="10.00">StartMacro</text>
</a>
</g>
</g>
<!-- Node18&#45;&gt;Node20 -->
<g id="edge19" class="edge">
<title>Node18&#45;&gt;Node20</title>
<path fill="none" stroke="#63b8ff" d="M158.63,-130.59C163.4,-128.38 168.01,-125.71 172,-122.5 195.33,-103.7 183.84,-83.22 208,-65.5 216.5,-59.27 226.88,-55.08 237.09,-52.26"/>
<polygon fill="#63b8ff" stroke="#63b8ff" points="237.59,-55.74 246.53,-50.06 236,-48.92 237.59,-55.74"/>
</g>
<!-- Node21 -->
<g id="node18" class="node">
<title>Node21</title>
<g id="a_node18"><a xlink:href="macros_8h.html#ae1e0755ae9441b2835ac027a98707caa" target="_top" xlink:title=" ">
<polygon fill="white" stroke="#666666" points="313,-19 249,-19 249,0 313,0 313,-19"/>
<text text-anchor="middle" x="281" y="-7" font-family="Helvetica,sans-Serif" font-size="10.00">StopMacro</text>
</a>
</g>
</g>
<!-- Node18&#45;&gt;Node21 -->
<g id="edge20" class="edge">
<title>Node18&#45;&gt;Node21</title>
<path fill="none" stroke="#63b8ff" d="M160.75,-130.53C164.87,-128.35 168.75,-125.71 172,-122.5 204.14,-90.79 174.26,-57.5 208,-27.5 216.22,-20.19 226.96,-15.76 237.63,-13.09"/>
<polygon fill="#63b8ff" stroke="#63b8ff" points="238,-16.59 247.13,-11.2 236.64,-9.72 238,-16.59"/>
</g>
<!-- Node22&#45;&gt;Node6 -->
<g id="edge22" class="edge">
<title>Node22&#45;&gt;Node6</title>
<path fill="none" stroke="#63b8ff" d="M166.48,-1025.2C272.51,-1041.35 533.55,-1081.14 534,-1081.5 590.76,-1127.92 604.28,-1221.68 607.49,-1263.52"/>
<polygon fill="#63b8ff" stroke="#63b8ff" points="604,-1263.67 608.11,-1273.43 610.98,-1263.23 604,-1263.67"/>
</g>
<!-- Node24 -->
<g id="node21" class="node">
<title>Node24</title>
<g id="a_node21"><a xlink:href="BuddyPPM_8h.html#a9c9e7f489bda19dbb591d5cdac3fa45b" target="_top" xlink:title=" ">
<polygon fill="white" stroke="#666666" points="534,-132 390,-132 390,-113 534,-113 534,-132"/>
<text text-anchor="middle" x="462" y="-120" font-family="Helvetica,sans-Serif" font-size="10.00">GetSlaveChannelValuesPPM</text>
</a>
</g>
</g>
<!-- Node23&#45;&gt;Node24 -->
<g id="edge24" class="edge">
<title>Node23&#45;&gt;Node24</title>
<path fill="none" stroke="#63b8ff" d="M124.97,-280.55C132.3,-253.41 156.64,-178.01 208,-145.5 258.69,-113.41 326.94,-108.93 379.78,-111.78"/>
<polygon fill="#63b8ff" stroke="#63b8ff" points="379.43,-115.26 389.63,-112.42 379.88,-108.28 379.43,-115.26"/>
</g>
<!-- Node25 -->
<g id="node22" class="node">
<title>Node25</title>
<g id="a_node22"><a xlink:href="Utilities_8h.html#aa490b4664b0a4498d53b30b82287d5df" target="_top" xlink:title=" ">
<polygon fill="#fff0f0" stroke="red" points="641,-226 578,-226 578,-207 641,-207 641,-226"/>
<text text-anchor="middle" x="609.5" y="-214" font-family="Helvetica,sans-Serif" font-size="10.00">PlaySound</text>
</a>
</g>
</g>
<!-- Node24&#45;&gt;Node25 -->
<g id="edge25" class="edge">
<title>Node24&#45;&gt;Node25</title>
<path fill="none" stroke="#63b8ff" d="M513.6,-132.48C520.7,-134.89 527.71,-137.85 534,-141.5 558.69,-155.81 580.87,-180.4 594.48,-197.51"/>
<polygon fill="#63b8ff" stroke="#63b8ff" points="591.67,-199.59 600.54,-205.38 597.22,-195.32 591.67,-199.59"/>
</g>
<!-- Node27 -->
<g id="node24" class="node">
<title>Node27</title>
<g id="a_node24"><a xlink:href="Utilities_8h.html#a3b1d8aa403e2724e55c71da3d9d13e7e" target="_top" xlink:title=" ">
<polygon fill="#fff0f0" stroke="red" points="500.5,-844 423.5,-844 423.5,-825 500.5,-825 500.5,-844"/>
<text text-anchor="middle" x="462" y="-832" font-family="Helvetica,sans-Serif" font-size="10.00">DelayWithDog</text>
</a>
</g>
</g>
<!-- Node32&#45;&gt;Node27 -->
<g id="edge28" class="edge">
<title>Node32&#45;&gt;Node27</title>
<path fill="none" stroke="#63b8ff" d="M129.93,-750.25C143.39,-767.06 173.59,-801.05 208,-815.5 274.45,-843.4 359.31,-843.4 411.91,-839.76"/>
<polygon fill="#63b8ff" stroke="#63b8ff" points="412.05,-843.26 421.75,-839 411.51,-836.28 412.05,-843.26"/>
</g>
<!-- Node33 -->
<g id="node25" class="node">
<title>Node33</title>
<g id="a_node25"><a xlink:href="transceiver_8h.html#a07c27b4e208198453c70876517926052" target="_top" xlink:title=" ">
<polygon fill="white" stroke="#666666" points="312,-693 250,-693 250,-674 312,-674 312,-693"/>
<text text-anchor="middle" x="281" y="-681" font-family="Helvetica,sans-Serif" font-size="10.00">FlushFifos</text>
</a>
</g>
</g>
<!-- Node32&#45;&gt;Node33 -->
<g id="edge29" class="edge">
<title>Node32&#45;&gt;Node33</title>
<path fill="none" stroke="#63b8ff" d="M147.45,-730.52C164.44,-723.81 187.49,-714.87 208,-707.5 218.02,-703.9 228.88,-700.18 239.06,-696.78"/>
<polygon fill="#63b8ff" stroke="#63b8ff" points="239.94,-700.18 248.33,-693.71 237.74,-693.53 239.94,-700.18"/>
</g>
<!-- Node34 -->
<g id="node26" class="node">
<title>Node34</title>
<g id="a_node26"><a xlink:href="radio_8h.html#a6e2d4126d864c50e7c23c988c2bfdd1a" target="_top" xlink:title=" ">
<polygon fill="white" stroke="#666666" points="485.5,-674 438.5,-674 438.5,-655 485.5,-655 485.5,-674"/>
<text text-anchor="middle" x="462" y="-662" font-family="Helvetica,sans-Serif" font-size="10.00">Radio1</text>
</a>
</g>
</g>
<!-- Node32&#45;&gt;Node34 -->
<g id="edge33" class="edge">
<title>Node32&#45;&gt;Node34</title>
<path fill="none" stroke="#63b8ff" d="M169.12,-735.33C216.24,-729.53 290.89,-718.75 354,-702.5 379.24,-696 406.96,-686.08 427.86,-678"/>
<polygon fill="#63b8ff" stroke="#63b8ff" points="428.97,-681.32 437,-674.41 426.41,-674.81 428.97,-681.32"/>
</g>
<!-- Node35 -->
<g id="node27" class="node">
<title>Node35</title>
<g id="a_node27"><a xlink:href="Utilities_8h.html#a6d87eba17154f7f4f2f3802ef8ee261f" target="_top" xlink:title=" ">
<polygon fill="white" stroke="#666666" points="300,-806 262,-806 262,-787 300,-787 300,-806"/>
<text text-anchor="middle" x="281" y="-794" font-family="Helvetica,sans-Serif" font-size="10.00">Look</text>
</a>
</g>
</g>
<!-- Node32&#45;&gt;Node35 -->
<g id="edge31" class="edge">
<title>Node32&#45;&gt;Node35</title>
<path fill="none" stroke="#63b8ff" d="M142.15,-750.4C159.23,-758.73 184.81,-770.51 208,-778.5 221.85,-783.27 237.6,-787.35 250.83,-790.42"/>
<polygon fill="#63b8ff" stroke="#63b8ff" points="249.7,-793.75 260.22,-792.51 251.22,-786.92 249.7,-793.75"/>
</g>
<!-- Node36 -->
<g id="node28" class="node">
<title>Node36</title>
<g id="a_node28"><a xlink:href="Utilities_8h.html#aea423a497d09a142f394356bc8438c41" target="_top" xlink:title=" ">
<polygon fill="white" stroke="#666666" points="303,-769 259,-769 259,-750 303,-750 303,-769"/>
<text text-anchor="middle" x="281" y="-757" font-family="Helvetica,sans-Serif" font-size="10.00">Look1</text>
</a>
</g>
</g>
<!-- Node32&#45;&gt;Node36 -->
<g id="edge32" class="edge">
<title>Node32&#45;&gt;Node36</title>
<path fill="none" stroke="#63b8ff" d="M169.33,-746.15C194.54,-749.19 225.01,-752.87 247.58,-755.59"/>
<polygon fill="#63b8ff" stroke="#63b8ff" points="247.07,-759.05 257.41,-756.78 247.91,-752.1 247.07,-759.05"/>
</g>
<!-- Node33&#45;&gt;Node34 -->
<g id="edge30" class="edge">
<title>Node33&#45;&gt;Node34</title>
<path fill="none" stroke="#63b8ff" d="M312.36,-680.28C344.08,-676.91 393.72,-671.64 426.8,-668.13"/>
<polygon fill="#63b8ff" stroke="#63b8ff" points="427.09,-671.62 436.67,-667.08 426.35,-664.66 427.09,-671.62"/>
</g>
<!-- Node38 -->
<g id="node30" class="node">
<title>Node38</title>
<g id="a_node30"><a xlink:href="Utilities_8h.html#afb7c85cac4aa89fd998ed81c330374d2" target="_top" xlink:title=" ">
<polygon fill="#fff0f0" stroke="red" points="354,-505 208,-505 208,-486 354,-486 354,-505"/>
<text text-anchor="middle" x="281" y="-493" font-family="Helvetica,sans-Serif" font-size="10.00">CheckForNextionButtonPress</text>
</a>
</g>
</g>
<!-- Node37&#45;&gt;Node38 -->
<g id="edge35" class="edge">
<title>Node37&#45;&gt;Node38</title>
<path fill="none" stroke="#63b8ff" d="M128.68,-394.4C141.18,-413.56 171.42,-455.76 208,-477.5 210.29,-478.86 212.68,-480.12 215.14,-481.28"/>
<polygon fill="#63b8ff" stroke="#63b8ff" points="213.57,-484.42 224.15,-484.98 216.22,-477.95 213.57,-484.42"/>
</g>
<!-- Node239 -->
<g id="node31" class="node">
<title>Node239</title>
<g id="a_node31"><a xlink:href="Trims_8h.html#add643409678258cabdb0aa1ae76d802a" target="_top" xlink:title=" ">
<polygon fill="#fff0f0" stroke="red" points="336.5,-468 225.5,-468 225.5,-449 336.5,-449 336.5,-468"/>
<text text-anchor="middle" x="281" y="-456" font-family="Helvetica,sans-Serif" font-size="10.00">CheckHardwareTrims</text>
</a>
</g>
</g>
<!-- Node37&#45;&gt;Node239 -->
<g id="edge36" class="edge">
<title>Node37&#45;&gt;Node239</title>
<path fill="none" stroke="#63b8ff" d="M134.77,-394.46C150.72,-406.95 179.88,-428.2 208,-440.5 211.83,-442.17 215.84,-443.71 219.92,-445.12"/>
<polygon fill="#63b8ff" stroke="#63b8ff" points="218.82,-448.44 229.41,-448.11 220.92,-441.77 218.82,-448.44"/>
</g>
<!-- Node244 -->
<g id="node32" class="node">
<title>Node244</title>
<g id="a_node32"><a xlink:href="TransmitterCode_2src_2main_8cpp.html#a5c0f1fd26cdd6ecde365f521060158ba" target="_top" xlink:title=" ">
<polygon fill="#fff0f0" stroke="red" points="329.5,-431 232.5,-431 232.5,-412 329.5,-412 329.5,-431"/>
<text text-anchor="middle" x="281" y="-419" font-family="Helvetica,sans-Serif" font-size="10.00">CheckModelName</text>
</a>
</g>
</g>
<!-- Node37&#45;&gt;Node244 -->
<g id="edge37" class="edge">
<title>Node37&#45;&gt;Node244</title>
<path fill="none" stroke="#63b8ff" d="M164.71,-394.42C183.77,-398.89 206.51,-404.24 226.74,-408.99"/>
<polygon fill="#63b8ff" stroke="#63b8ff" points="225.67,-412.33 236.2,-411.21 227.27,-405.52 225.67,-412.33"/>
</g>
<!-- Node246 -->
<g id="node33" class="node">
<title>Node246</title>
<g id="a_node33"><a xlink:href="TransmitterCode_2src_2main_8cpp.html#a6ae37c6938b8c10b83d1bc74e8643bd9" target="_top" xlink:title=" ">
<polygon fill="#fff0f0" stroke="red" points="337.5,-283 224.5,-283 224.5,-264 337.5,-264 337.5,-283"/>
<text text-anchor="middle" x="281" y="-271" font-family="Helvetica,sans-Serif" font-size="10.00">CheckPowerOffButton</text>
</a>
</g>
</g>
<!-- Node37&#45;&gt;Node246 -->
<g id="edge38" class="edge">
<title>Node37&#45;&gt;Node246</title>
<path fill="none" stroke="#63b8ff" d="M128.73,-374.75C141.32,-355.87 171.72,-314.25 208,-292.5 210.95,-290.73 214.07,-289.12 217.29,-287.66"/>
<polygon fill="#63b8ff" stroke="#63b8ff" points="218.41,-290.98 226.41,-284.04 215.83,-284.48 218.41,-290.98"/>
</g>
<!-- Node249 -->
<g id="node34" class="node">
<title>Node249</title>
<g id="a_node34"><a xlink:href="Utilities_8h.html#a2dca4e1c03e2abb86aa3c1843c55a1c2" target="_top" xlink:title=" ">
<polygon fill="#fff0f0" stroke="red" points="328.5,-394 233.5,-394 233.5,-375 328.5,-375 328.5,-394"/>
<text text-anchor="middle" x="281" y="-382" font-family="Helvetica,sans-Serif" font-size="10.00">CheckScanButton</text>
</a>
</g>
</g>
<!-- Node37&#45;&gt;Node249 -->
<g id="edge41" class="edge">
<title>Node37&#45;&gt;Node249</title>
<path fill="none" stroke="#63b8ff" d="M172.33,-384.5C188.15,-384.5 205.77,-384.5 222.11,-384.5"/>
<polygon fill="#63b8ff" stroke="#63b8ff" points="221.66,-388 231.66,-384.5 221.66,-381 221.66,-388"/>
</g>
<!-- Node250 -->
<g id="node35" class="node">
<title>Node250</title>
<g id="a_node35"><a xlink:href="TransmitterCode_2src_2main_8cpp.html#aa98d7fb495cbdc40cb17343ffafbfe15" target="_top" xlink:title=" ">
<polygon fill="#fff0f0" stroke="red" points="308.5,-207 253.5,-207 253.5,-188 308.5,-188 308.5,-207"/>
<text text-anchor="middle" x="281" y="-195" font-family="Helvetica,sans-Serif" font-size="10.00">GetBank</text>
</a>
</g>
</g>
<!-- Node37&#45;&gt;Node250 -->
<g id="edge42" class="edge">
<title>Node37&#45;&gt;Node250</title>
<path fill="none" stroke="#63b8ff" d="M129.87,-374.69C140.17,-360.72 159.03,-334.06 172,-309.5 191.73,-272.13 177.14,-250.37 208,-221.5 217.43,-212.68 230.19,-207.09 242.35,-203.56"/>
<polygon fill="#63b8ff" stroke="#63b8ff" points="242.91,-207.03 251.77,-201.22 241.22,-200.24 242.91,-207.03"/>
</g>
<!-- Node206 -->
<g id="node36" class="node">
<title>Node206</title>
<g id="a_node36"><a xlink:href="TransmitterCode_2src_2main_8cpp.html#ae87d527c1f50ca7eaffba270f9a6524a" target="_top" xlink:title=" ">
<polygon fill="#fff0f0" stroke="red" points="507.5,-169 416.5,-169 416.5,-150 507.5,-150 507.5,-169"/>
<text text-anchor="middle" x="462" y="-157" font-family="Helvetica,sans-Serif" font-size="10.00">ShowMotorTimer</text>
</a>
</g>
</g>
<!-- Node37&#45;&gt;Node206 -->
<g id="edge52" class="edge">
<title>Node37&#45;&gt;Node206</title>
<path fill="none" stroke="#63b8ff" d="M130.28,-374.9C141.06,-361.16 160.51,-334.78 172,-309.5 196.82,-254.92 161.75,-217.65 208,-179.5 236.98,-155.6 339.59,-154.66 404.9,-156.7"/>
<polygon fill="#63b8ff" stroke="#63b8ff" points="404.6,-160.2 414.72,-157.05 404.85,-153.2 404.6,-160.2"/>
</g>
<!-- Node263 -->
<g id="node37" class="node">
<title>Node263</title>
<g id="a_node37"><a xlink:href="TransmitterCode_2src_2main_8cpp.html#a1d43600764a34cbda9c2fa211a12ed2e" target="_top" xlink:title=" ">
<polygon fill="white" stroke="#666666" points="318,-357 244,-357 244,-338 318,-338 318,-357"/>
<text text-anchor="middle" x="281" y="-345" font-family="Helvetica,sans-Serif" font-size="10.00">GetStatistics</text>
</a>
</g>
</g>
<!-- Node37&#45;&gt;Node263 -->
<g id="edge46" class="edge">
<title>Node37&#45;&gt;Node263</title>
<path fill="none" stroke="#63b8ff" d="M164.71,-374.58C185.66,-369.66 211.04,-363.7 232.65,-358.62"/>
<polygon fill="#63b8ff" stroke="#63b8ff" points="233.16,-362.1 242.09,-356.41 231.56,-355.28 233.16,-362.1"/>
</g>
<!-- Node110 -->
<g id="node38" class="node">
<title>Node110</title>
<g id="a_node38"><a xlink:href="ReceiverCode_2src_2main_8cpp.html#ada95a00a341e4a80176eda743a94ab2e" target="_top" xlink:title=" ">
<polygon fill="white" stroke="#666666" points="316,-320 246,-320 246,-301 316,-301 316,-320"/>
<text text-anchor="middle" x="281" y="-308" font-family="Helvetica,sans-Serif" font-size="10.00">KickTheDog</text>
</a>
</g>
</g>
<!-- Node37&#45;&gt;Node110 -->
<g id="edge47" class="edge">
<title>Node37&#45;&gt;Node110</title>
<path fill="none" stroke="#63b8ff" d="M135.1,-374.57C151.17,-362.36 180.22,-341.73 208,-329.5 216.32,-325.84 225.5,-322.75 234.44,-320.21"/>
<polygon fill="#63b8ff" stroke="#63b8ff" points="235.32,-323.59 244.09,-317.65 233.53,-316.83 235.32,-323.59"/>
</g>
<!-- Node264 -->
<g id="node39" class="node">
<title>Node264</title>
<g id="a_node39"><a xlink:href="TransmitterCode_2src_2main_8cpp.html#aa144942814b12daf2b2a454c08d29cab" target="_top" xlink:title=" ">
<polygon fill="white" stroke="#666666" points="321,-579 241,-579 241,-560 321,-560 321,-579"/>
<text text-anchor="middle" x="281" y="-567" font-family="Helvetica,sans-Serif" font-size="10.00">ReadSwitches</text>
</a>
</g>
</g>
<!-- Node37&#45;&gt;Node264 -->
<g id="edge48" class="edge">
<title>Node37&#45;&gt;Node264</title>
<path fill="none" stroke="#63b8ff" d="M124.51,-394.2C131,-423.02 154.19,-508.75 208,-551.5 214.31,-556.51 221.83,-560.15 229.6,-562.78"/>
<polygon fill="#63b8ff" stroke="#63b8ff" points="228.61,-566.14 239.18,-565.47 230.5,-559.4 228.61,-566.14"/>
</g>
<!-- Node265 -->
<g id="node40" class="node">
<title>Node265</title>
<g id="a_node40"><a xlink:href="Utilities_8h.html#a483cced19b61975f76957f5696425fe9" target="_top" xlink:title=" ">
<polygon fill="#fff0f0" stroke="red" points="311.5,-542 250.5,-542 250.5,-523 311.5,-523 311.5,-542"/>
<text text-anchor="middle" x="281" y="-530" font-family="Helvetica,sans-Serif" font-size="10.00">ReadTime</text>
</a>
</g>
</g>
<!-- Node37&#45;&gt;Node265 -->
<g id="edge49" class="edge">
<title>Node37&#45;&gt;Node265</title>
<path fill="none" stroke="#63b8ff" d="M126.09,-394.47C135.45,-419 163.05,-482.62 208,-514.5 217.13,-520.97 228.34,-525.13 239.19,-527.79"/>
<polygon fill="#63b8ff" stroke="#63b8ff" points="238.26,-531.17 248.76,-529.75 239.67,-524.31 238.26,-531.17"/>
</g>
<!-- Node189 -->
<g id="node41" class="node">
<title>Node189</title>
<g id="a_node41"><a xlink:href="TransmitterCode_2src_2main_8cpp.html#a5d3a46c21927cf7a3031a1e68e0b7b48" target="_top" xlink:title="SHOW COMMS.">
<polygon fill="#fff0f0" stroke="red" points="499.5,-245 424.5,-245 424.5,-226 499.5,-226 499.5,-245"/>
<text text-anchor="middle" x="462" y="-233" font-family="Helvetica,sans-Serif" font-size="10.00">ShowComms</text>
</a>
</g>
</g>
<!-- Node37&#45;&gt;Node189 -->
<g id="edge50" class="edge">
<title>Node37&#45;&gt;Node189</title>
<path fill="none" stroke="#63b8ff" d="M128.89,-374.82C148.68,-344.88 207.61,-255.73 208,-255.5 271.14,-218.32 359.01,-221.01 412.84,-227.45"/>
<polygon fill="#63b8ff" stroke="#63b8ff" points="412.24,-230.9 422.61,-228.72 413.14,-223.96 412.24,-230.9"/>
</g>
<!-- Node246&#45;&gt;Node25 -->
<g id="edge40" class="edge">
<title>Node246&#45;&gt;Node25</title>
<path fill="none" stroke="#63b8ff" d="M337.9,-275.54C389.7,-275.97 468.42,-272.9 534,-254.5 551.49,-249.59 569.68,-240.41 583.71,-232.3"/>
<polygon fill="#63b8ff" stroke="#63b8ff" points="585.47,-235.32 592.24,-227.17 581.87,-229.32 585.47,-235.32"/>
</g>
<!-- Node246&#45;&gt;Node27 -->
<g id="edge39" class="edge">
<title>Node246&#45;&gt;Node27</title>
<path fill="none" stroke="#63b8ff" d="M337.67,-280.53C343.89,-283.39 349.57,-287.27 354,-292.5 410.37,-359.11 367.09,-599.3 390,-683.5 403.56,-733.35 432.68,-787.02 449.1,-815"/>
<polygon fill="#63b8ff" stroke="#63b8ff" points="446,-816.62 454.13,-823.42 452.01,-813.04 446,-816.62"/>
</g>
<!-- Node250&#45;&gt;Node25 -->
<g id="edge43" class="edge">
<title>Node250&#45;&gt;Node25</title>
<path fill="none" stroke="#63b8ff" d="M309,-199.07C365.9,-202.38 498.51,-210.1 566.56,-214.06"/>
<polygon fill="#63b8ff" stroke="#63b8ff" points="566,-217.53 576.19,-214.62 566.41,-210.54 566,-217.53"/>
</g>
<!-- Node250&#45;&gt;Node206 -->
<g id="edge44" class="edge">
<title>Node250&#45;&gt;Node206</title>
<path fill="none" stroke="#63b8ff" d="M308.8,-191.81C334.19,-186.42 373.1,-178.16 405.23,-171.34"/>
<polygon fill="#63b8ff" stroke="#63b8ff" points="405.74,-174.81 414.79,-169.31 404.28,-167.96 405.74,-174.81"/>
</g>
<!-- Node206&#45;&gt;Node25 -->
<g id="edge45" class="edge">
<title>Node206&#45;&gt;Node25</title>
<path fill="none" stroke="#63b8ff" d="M494.33,-169.41C506.77,-173.52 521.15,-178.49 534,-183.5 548.31,-189.08 563.89,-195.86 577.08,-201.82"/>
<polygon fill="#63b8ff" stroke="#63b8ff" points="575.59,-204.99 586.14,-205.97 578.5,-198.62 575.59,-204.99"/>
</g>
<!-- Node189&#45;&gt;Node25 -->
<g id="edge51" class="edge">
<title>Node189&#45;&gt;Node25</title>
<path fill="none" stroke="#63b8ff" d="M499.72,-230.71C520.03,-228.05 545.36,-224.74 566.47,-221.99"/>
<polygon fill="#63b8ff" stroke="#63b8ff" points="566.74,-225.48 576.2,-220.72 565.83,-218.54 566.74,-225.48"/>
</g>
<!-- Node266&#45;&gt;Node25 -->
<g id="edge59" class="edge">
<title>Node266&#45;&gt;Node25</title>
<path fill="none" stroke="#63b8ff" d="M150.8,-923.94C235.16,-921.65 482.33,-910.14 534,-853.5 576.55,-806.86 602.18,-342.89 607.47,-237.65"/>
<polygon fill="#63b8ff" stroke="#63b8ff" points="610.97,-237.85 607.97,-227.69 603.98,-237.5 610.97,-237.85"/>
</g>
<!-- Node266&#45;&gt;Node27 -->
<g id="edge54" class="edge">
<title>Node266&#45;&gt;Node27</title>
<path fill="none" stroke="#63b8ff" d="M150.83,-914.62C167.4,-908.99 188.78,-901.99 208,-896.5 278.34,-876.4 360.81,-856.94 411.99,-845.35"/>
<polygon fill="#63b8ff" stroke="#63b8ff" points="412.58,-848.8 421.57,-843.19 411.04,-841.97 412.58,-848.8"/>
</g>
<!-- Node74 -->
<g id="node43" class="node">
<title>Node74</title>
<g id="a_node43"><a xlink:href="Utilities_8h.html#acbef1d41e1bd646b60a6e8afd9c66880" target="_top" xlink:title=" ">
<polygon fill="#fff0f0" stroke="red" points="491,-1033 433,-1033 433,-1014 491,-1014 491,-1033"/>
<text text-anchor="middle" x="462" y="-1021" font-family="Helvetica,sans-Serif" font-size="10.00">DrawLine</text>
</a>
</g>
</g>
<!-- Node266&#45;&gt;Node74 -->
<g id="edge55" class="edge">
<title>Node266&#45;&gt;Node74</title>
<path fill="none" stroke="#63b8ff" d="M129.36,-934.34C142.35,-952.04 172.45,-988.9 208,-1004.5 278.16,-1035.29 369.79,-1033.01 421.31,-1028.39"/>
<polygon fill="#63b8ff" stroke="#63b8ff" points="421.48,-1031.89 431.09,-1027.42 420.79,-1024.92 421.48,-1031.89"/>
</g>
<!-- Node267 -->
<g id="node44" class="node">
<title>Node267</title>
<g id="a_node44"><a xlink:href="Pong_8h.html#abead2677dc553c693bcf9bf0c54c0c81" target="_top" xlink:title=" ">
<polygon fill="#fff0f0" stroke="red" points="309.5,-958 252.5,-958 252.5,-939 309.5,-939 309.5,-958"/>
<text text-anchor="middle" x="281" y="-946" font-family="Helvetica,sans-Serif" font-size="10.00">MoveBall</text>
</a>
</g>
</g>
<!-- Node266&#45;&gt;Node267 -->
<g id="edge56" class="edge">
<title>Node266&#45;&gt;Node267</title>
<path fill="none" stroke="#63b8ff" d="M150.66,-928.79C175.85,-932.63 213.03,-938.3 241.07,-942.57"/>
<polygon fill="#63b8ff" stroke="#63b8ff" points="240.18,-945.97 250.59,-944.02 241.23,-939.05 240.18,-945.97"/>
</g>
<!-- Node268 -->
<g id="node45" class="node">
<title>Node268</title>
<g id="a_node45"><a xlink:href="Pong_8h.html#ae1838e25c06509f78c0de9f0e556d428" target="_top" xlink:title=" ">
<polygon fill="white" stroke="#666666" points="319,-995 243,-995 243,-976 319,-976 319,-995"/>
<text text-anchor="middle" x="281" y="-983" font-family="Helvetica,sans-Serif" font-size="10.00">MovePaddles</text>
</a>
</g>
</g>
<!-- Node266&#45;&gt;Node268 -->
<g id="edge57" class="edge">
<title>Node266&#45;&gt;Node268</title>
<path fill="none" stroke="#63b8ff" d="M139.36,-934.38C156.25,-943.94 183.23,-958.31 208,-967.5 215.47,-970.27 223.54,-972.76 231.47,-974.93"/>
<polygon fill="#63b8ff" stroke="#63b8ff" points="230.5,-978.3 241.06,-977.41 232.26,-971.52 230.5,-978.3"/>
</g>
<!-- Node268&#45;&gt;Node74 -->
<g id="edge58" class="edge">
<title>Node268&#45;&gt;Node74</title>
<path fill="none" stroke="#63b8ff" d="M319.09,-993.37C349.05,-999.73 391.12,-1008.67 421.67,-1015.15"/>
<polygon fill="#63b8ff" stroke="#63b8ff" points="420.77,-1018.54 431.28,-1017.19 422.23,-1011.69 420.77,-1018.54"/>
</g>
<!-- Node87&#45;&gt;Node34 -->
<g id="edge61" class="edge">
<title>Node87&#45;&gt;Node34</title>
<path fill="none" stroke="#63b8ff" d="M167.45,-632.41C236.07,-639.91 365.45,-654.06 426.91,-660.77"/>
<polygon fill="#63b8ff" stroke="#63b8ff" points="426.44,-664.24 436.76,-661.85 427.2,-657.28 426.44,-664.24"/>
</g>
<!-- Node165&#45;&gt;Node33 -->
<g id="edge64" class="edge">
<title>Node165&#45;&gt;Node33</title>
<path fill="none" stroke="#63b8ff" d="M151.39,-683.5C175.79,-683.5 211.04,-683.5 238.46,-683.5"/>
<polygon fill="#63b8ff" stroke="#63b8ff" points="238.17,-687 248.17,-683.5 238.17,-680 238.17,-687"/>
</g>
<!-- Node165&#45;&gt;Node34 -->
<g id="edge65" class="edge">
<title>Node165&#45;&gt;Node34</title>
<path fill="none" stroke="#63b8ff" d="M151.16,-675.94C167.65,-671.98 188.84,-667.53 208,-665.5 285.92,-657.23 378.09,-660 426.82,-662.44"/>
<polygon fill="#63b8ff" stroke="#63b8ff" points="426.55,-665.93 436.72,-662.97 426.92,-658.94 426.55,-665.93"/>
</g>
<!-- Node80&#45;&gt;Node4 -->
<g id="edge68" class="edge">
<title>Node80&#45;&gt;Node4</title>
<path fill="none" stroke="#63b8ff" d="M323.07,-1099.5C348.99,-1099.5 382.66,-1099.5 410.25,-1099.5"/>
<polygon fill="#63b8ff" stroke="#63b8ff" points="410.15,-1103 420.15,-1099.5 410.15,-1096 410.15,-1103"/>
</g>
<!-- Node80&#45;&gt;Node74 -->
<g id="edge69" class="edge">
<title>Node80&#45;&gt;Node74</title>
<path fill="none" stroke="#63b8ff" d="M305.4,-1089.56C336.49,-1076.36 391.62,-1052.96 427.22,-1037.84"/>
<polygon fill="#63b8ff" stroke="#63b8ff" points="428.36,-1041.16 436.2,-1034.03 425.63,-1034.72 428.36,-1041.16"/>
</g>
</g>
</svg>
