<?xml version="1.0" encoding="UTF-8" standalone="no"?>
<!DOCTYPE svg PUBLIC "-//W3C//DTD SVG 1.1//EN"
 "http://www.w3.org/Graphics/SVG/1.1/DTD/svg11.dtd">
<!-- Generated by graphviz version 7.0.5 (20221223.1930)
 -->
<!-- Title: ShowMotor Pages: 1 -->
<svg width="1253pt" height="1042pt"
 viewBox="0.00 0.00 1253.00 1041.60" xmlns="http://www.w3.org/2000/svg" xmlns:xlink="http://www.w3.org/1999/xlink">
<g id="graph0" class="graph" transform="scale(1 1) rotate(0) translate(4 1037.6)">
<title>ShowMotor</title>
<!-- Node1 -->
<g id="node1" class="node">
<title>Node1</title>
<g id="a_node1"><a xlink:title=" ">
<polygon fill="#999999" stroke="#666666" points="66,-743.6 0,-743.6 0,-724.6 66,-724.6 66,-743.6"/>
<text text-anchor="middle" x="33" y="-731.6" font-family="Helvetica,sans-Serif" font-size="10.00">ShowMotor</text>
</a>
</g>
</g>
<!-- Node2 -->
<g id="node2" class="node">
<title>Node2</title>
<g id="a_node2"><a xlink:href="TransmitterCode_2src_2main_8cpp.html#afe513398f72d5e48f691830a1ef6eb42" target="_top" xlink:title=" ">
<polygon fill="white" stroke="#666666" points="160,-743.6 102,-743.6 102,-724.6 160,-724.6 160,-743.6"/>
<text text-anchor="middle" x="131" y="-731.6" font-family="Helvetica,sans-Serif" font-size="10.00">SendText</text>
</a>
</g>
</g>
<!-- Node1&#45;&gt;Node2 -->
<g id="edge1" class="edge">
<title>Node1&#45;&gt;Node2</title>
<path fill="none" stroke="#63b8ff" d="M66.23,-734.1C73.92,-734.1 82.21,-734.1 90.19,-734.1"/>
<polygon fill="#63b8ff" stroke="#63b8ff" points="90.04,-737.6 100.04,-734.1 90.04,-730.6 90.04,-737.6"/>
</g>
<!-- Node3 -->
<g id="node3" class="node">
<title>Node3</title>
<g id="a_node3"><a xlink:href="TransmitterCode_2src_2main_8cpp.html#a43937dd3d9c795271fd9c3eb3c6b6410" target="_top" xlink:title=" ">
<polygon fill="white" stroke="#666666" points="398,-846.6 315,-846.6 315,-827.6 398,-827.6 398,-846.6"/>
<text text-anchor="middle" x="356.5" y="-834.6" font-family="Helvetica,sans-Serif" font-size="10.00">GetReturnCode</text>
</a>
</g>
</g>
<!-- Node2&#45;&gt;Node3 -->
<g id="edge2" class="edge">
<title>Node2&#45;&gt;Node3</title>
<path fill="none" stroke="#63b8ff" d="M153.43,-743.98C192.88,-762.16 277.18,-801 323.45,-822.33"/>
<polygon fill="#63b8ff" stroke="#63b8ff" points="321.88,-825.46 332.43,-826.47 324.81,-819.1 321.88,-825.46"/>
</g>
<!-- Node4 -->
<g id="node4" class="node">
<title>Node4</title>
<g id="a_node4"><a xlink:href="TransmitterCode_2src_2main_8cpp.html#aecac2f0c289f02ef3c92b85be82eacac" target="_top" xlink:title=" ">
<polygon fill="white" stroke="#666666" points="279,-641.6 196,-641.6 196,-622.6 279,-622.6 279,-641.6"/>
<text text-anchor="middle" x="237.5" y="-629.6" font-family="Helvetica,sans-Serif" font-size="10.00">SendCommand</text>
</a>
</g>
</g>
<!-- Node2&#45;&gt;Node4 -->
<g id="edge3" class="edge">
<title>Node2&#45;&gt;Node4</title>
<path fill="none" stroke="#63b8ff" d="M142.02,-724.32C159.61,-707.15 196.27,-671.37 218.39,-649.77"/>
<polygon fill="#63b8ff" stroke="#63b8ff" points="220.56,-652.55 225.27,-643.06 215.67,-647.54 220.56,-652.55"/>
</g>
<!-- Node4&#45;&gt;Node3 -->
<g id="edge4" class="edge">
<title>Node4&#45;&gt;Node3</title>
<path fill="none" stroke="#63b8ff" d="M240.37,-641.89C246.38,-671.08 267.65,-758.88 315,-813.1 317.47,-815.93 320.36,-818.52 323.45,-820.86"/>
<polygon fill="#63b8ff" stroke="#63b8ff" points="321.47,-823.76 331.76,-826.31 325.31,-817.9 321.47,-823.76"/>
</g>
<!-- Node5 -->
<g id="node5" class="node">
<title>Node5</title>
<g id="a_node5"><a xlink:href="TransmitterCode_2src_2main_8cpp.html#a5f109790a6fe0b972a502f3cac4ed1e7" target="_top" xlink:title=" ">
<polygon fill="white" stroke="#666666" points="380.5,-641.6 332.5,-641.6 332.5,-622.6 380.5,-622.6 380.5,-641.6"/>
<text text-anchor="middle" x="356.5" y="-629.6" font-family="Helvetica,sans-Serif" font-size="10.00">InStrng</text>
</a>
</g>
</g>
<!-- Node4&#45;&gt;Node5 -->
<g id="edge5" class="edge">
<title>Node4&#45;&gt;Node5</title>
<path fill="none" stroke="#63b8ff" d="M279.42,-632.1C292.94,-632.1 307.84,-632.1 320.85,-632.1"/>
<polygon fill="#63b8ff" stroke="#63b8ff" points="320.65,-635.6 330.65,-632.1 320.65,-628.6 320.65,-635.6"/>
</g>
<!-- Node6 -->
<g id="node6" class="node">
<title>Node6</title>
<g id="a_node6"><a xlink:href="RadioFunctions_8cpp.html#a760609a682300dfe6bfaac737fd4d5eb" target="_top" xlink:title=" ">
<polygon fill="white" stroke="#666666" points="393.5,-678.6 319.5,-678.6 319.5,-659.6 393.5,-659.6 393.5,-678.6"/>
<text text-anchor="middle" x="356.5" y="-666.6" font-family="Helvetica,sans-Serif" font-size="10.00">Procrastinate</text>
</a>
</g>
</g>
<!-- Node4&#45;&gt;Node6 -->
<g id="edge6" class="edge">
<title>Node4&#45;&gt;Node6</title>
<path fill="none" stroke="#63b8ff" d="M269.85,-642.01C283.23,-646.25 299.04,-651.24 313.41,-655.79"/>
<polygon fill="#63b8ff" stroke="#63b8ff" points="312.03,-659.02 322.62,-658.7 314.14,-652.35 312.03,-659.02"/>
</g>
<!-- Node7 -->
<g id="node7" class="node">
<title>Node7</title>
<g id="a_node7"><a xlink:href="TransmitterCode_2src_2main_8cpp.html#ada95a00a341e4a80176eda743a94ab2e" target="_top" xlink:title=" ">
<polygon fill="white" stroke="#666666" points="504,-660.6 434,-660.6 434,-641.6 504,-641.6 504,-660.6"/>
<text text-anchor="middle" x="469" y="-648.6" font-family="Helvetica,sans-Serif" font-size="10.00">KickTheDog</text>
</a>
</g>
</g>
<!-- Node6&#45;&gt;Node7 -->
<g id="edge7" class="edge">
<title>Node6&#45;&gt;Node7</title>
<path fill="none" stroke="#63b8ff" d="M393.99,-663.16C403.11,-661.67 413,-660.06 422.49,-658.51"/>
<polygon fill="#63b8ff" stroke="#63b8ff" points="423,-661.98 432.3,-656.91 421.87,-655.07 423,-661.98"/>
</g>
<!-- Node8 -->
<g id="node8" class="node">
<title>Node8</title>
<g id="a_node8"><a xlink:href="RadioFunctions_8cpp.html#a049bfb836e7aa4a3a48a1a4bd225fafc" target="_top" xlink:title=" ">
<polygon fill="white" stroke="#666666" points="498.5,-697.6 439.5,-697.6 439.5,-678.6 498.5,-678.6 498.5,-697.6"/>
<text text-anchor="middle" x="469" y="-685.6" font-family="Helvetica,sans-Serif" font-size="10.00">SendData</text>
</a>
</g>
</g>
<!-- Node6&#45;&gt;Node8 -->
<g id="edge8" class="edge">
<title>Node6&#45;&gt;Node8</title>
<path fill="none" stroke="#63b8ff" d="M393.99,-675.37C404.91,-677.25 416.93,-679.32 428.06,-681.23"/>
<polygon fill="#63b8ff" stroke="#63b8ff" points="427.31,-684.65 437.75,-682.9 428.49,-677.75 427.31,-684.65"/>
</g>
<!-- Node9 -->
<g id="node9" class="node">
<title>Node9</title>
<g id="a_node9"><a xlink:href="RadioFunctions_8cpp.html#a5fbd3c8613a4163425c94965704ce5f8" target="_top" xlink:title=" ">
<polygon fill="white" stroke="#666666" points="625,-734.6 551,-734.6 551,-715.6 625,-715.6 625,-734.6"/>
<text text-anchor="middle" x="588" y="-722.6" font-family="Helvetica,sans-Serif" font-size="10.00">FailedPacket</text>
</a>
</g>
</g>
<!-- Node8&#45;&gt;Node9 -->
<g id="edge9" class="edge">
<title>Node8&#45;&gt;Node9</title>
<path fill="none" stroke="#63b8ff" d="M498.92,-697.25C512.75,-701.62 529.58,-706.94 544.8,-711.75"/>
<polygon fill="#63b8ff" stroke="#63b8ff" points="543.5,-715.02 554.09,-714.69 545.62,-708.34 543.5,-715.02"/>
</g>
<!-- Node32 -->
<g id="node25" class="node">
<title>Node32</title>
<g id="a_node25"><a xlink:href="RadioFunctions_8cpp.html#a07c27b4e208198453c70876517926052" target="_top" xlink:title=" ">
<polygon fill="white" stroke="#666666" points="619,-697.6 557,-697.6 557,-678.6 619,-678.6 619,-697.6"/>
<text text-anchor="middle" x="588" y="-685.6" font-family="Helvetica,sans-Serif" font-size="10.00">FlushFifos</text>
</a>
</g>
</g>
<!-- Node8&#45;&gt;Node32 -->
<g id="edge32" class="edge">
<title>Node8&#45;&gt;Node32</title>
<path fill="none" stroke="#63b8ff" d="M498.92,-688.1C512.94,-688.1 530.04,-688.1 545.43,-688.1"/>
<polygon fill="#63b8ff" stroke="#63b8ff" points="545.27,-691.6 555.27,-688.1 545.27,-684.6 545.27,-691.6"/>
</g>
<!-- Node33 -->
<g id="node26" class="node">
<title>Node33</title>
<g id="a_node26"><a xlink:href="TransmitterCode_2src_2main_8cpp.html#ac4ffb9b555ce8d38f615610dc89b5499" target="_top" xlink:title=" ">
<polygon fill="white" stroke="#666666" points="632.5,-771.6 543.5,-771.6 543.5,-752.6 632.5,-752.6 632.5,-771.6"/>
<text text-anchor="middle" x="588" y="-759.6" font-family="Helvetica,sans-Serif" font-size="10.00">LoadPacketData</text>
</a>
</g>
</g>
<!-- Node8&#45;&gt;Node33 -->
<g id="edge33" class="edge">
<title>Node8&#45;&gt;Node33</title>
<path fill="none" stroke="#63b8ff" d="M480.69,-698.09C493.86,-710 517.27,-729.93 540,-743.1 542.62,-744.62 545.39,-746.07 548.22,-747.45"/>
<polygon fill="#63b8ff" stroke="#63b8ff" points="546.62,-750.57 557.17,-751.48 549.49,-744.19 546.62,-750.57"/>
</g>
<!-- Node36 -->
<g id="node29" class="node">
<title>Node36</title>
<g id="a_node29"><a xlink:href="ReceiverCode_2src_2main_8cpp.html#a6a495c5560f12cc3fd3df9454927d681" target="_top" xlink:title=" ">
<polygon fill="white" stroke="#666666" points="625,-660.6 551,-660.6 551,-641.6 625,-641.6 625,-660.6"/>
<text text-anchor="middle" x="588" y="-648.6" font-family="Helvetica,sans-Serif" font-size="10.00">MapToSBUS</text>
</a>
</g>
</g>
<!-- Node8&#45;&gt;Node36 -->
<g id="edge38" class="edge">
<title>Node8&#45;&gt;Node36</title>
<path fill="none" stroke="#63b8ff" d="M498.92,-678.95C512.75,-674.58 529.58,-669.26 544.8,-664.44"/>
<polygon fill="#63b8ff" stroke="#63b8ff" points="545.62,-667.86 554.09,-661.51 543.5,-661.18 545.62,-667.86"/>
</g>
<!-- Node37 -->
<g id="node30" class="node">
<title>Node37</title>
<g id="a_node30"><a xlink:href="RadioFunctions_8cpp.html#a1c11bb6771548de7d96723045b922620" target="_top" xlink:title=" ">
<polygon fill="white" stroke="#666666" points="636,-623.6 540,-623.6 540,-604.6 636,-604.6 636,-623.6"/>
<text text-anchor="middle" x="588" y="-611.6" font-family="Helvetica,sans-Serif" font-size="10.00">SuccessfulPacket</text>
</a>
</g>
</g>
<!-- Node8&#45;&gt;Node37 -->
<g id="edge39" class="edge">
<title>Node8&#45;&gt;Node37</title>
<path fill="none" stroke="#63b8ff" d="M490.03,-678.17C494.78,-675.48 499.71,-672.39 504,-669.1 522.2,-655.13 520.84,-644.72 540,-632.1 541.61,-631.04 543.28,-630.03 545.01,-629.07"/>
<polygon fill="#63b8ff" stroke="#63b8ff" points="546.41,-632.28 553.86,-624.76 543.34,-625.99 546.41,-632.28"/>
</g>
<!-- Node10 -->
<g id="node10" class="node">
<title>Node10</title>
<g id="a_node10"><a xlink:href="TransmitterCode_2src_2main_8cpp.html#afd409fe008843b50c3e2ff697558d4d5" target="_top" xlink:title=" ">
<polygon fill="white" stroke="#666666" points="940,-885.6 848,-885.6 848,-866.6 940,-866.6 940,-885.6"/>
<text text-anchor="middle" x="894" y="-873.6" font-family="Helvetica,sans-Serif" font-size="10.00">LogThisLongGap</text>
</a>
</g>
</g>
<!-- Node9&#45;&gt;Node10 -->
<g id="edge10" class="edge">
<title>Node9&#45;&gt;Node10</title>
<path fill="none" stroke="#63b8ff" d="M625.28,-717.66C670.07,-710.7 746.17,-706.43 794,-745.1 834.99,-778.24 792.17,-821.39 830,-858.1 832.26,-860.29 834.76,-862.22 837.43,-863.91"/>
<polygon fill="#63b8ff" stroke="#63b8ff" points="835.84,-867.03 846.34,-868.41 838.99,-860.78 835.84,-867.03"/>
</g>
<!-- Node21 -->
<g id="node15" class="node">
<title>Node21</title>
<g id="a_node15"><a xlink:href="RadioFunctions_8cpp.html#afc091b5942e21a03f6dc8635d5e519ba" target="_top" xlink:title=" ">
<polygon fill="white" stroke="#666666" points="794,-697.6 672,-697.6 672,-678.6 794,-678.6 794,-697.6"/>
<text text-anchor="middle" x="733" y="-685.6" font-family="Helvetica,sans-Serif" font-size="10.00">RecordsPacketSuccess</text>
</a>
</g>
</g>
<!-- Node9&#45;&gt;Node21 -->
<g id="edge15" class="edge">
<title>Node9&#45;&gt;Node21</title>
<path fill="none" stroke="#63b8ff" d="M625.45,-715.67C642.74,-711.2 663.65,-705.79 682.35,-700.95"/>
<polygon fill="#63b8ff" stroke="#63b8ff" points="683.09,-704.37 691.89,-698.48 681.34,-697.59 683.09,-704.37"/>
</g>
<!-- Node22 -->
<g id="node16" class="node">
<title>Node22</title>
<g id="a_node16"><a xlink:href="TransmitterCode_2src_2main_8cpp.html#a7d34cec6e8edc20c8b50424e15dcc7c7" target="_top" xlink:title=" ">
<polygon fill="white" stroke="#666666" points="764.5,-884.6 701.5,-884.6 701.5,-865.6 764.5,-865.6 764.5,-884.6"/>
<text text-anchor="middle" x="733" y="-872.6" font-family="Helvetica,sans-Serif" font-size="10.00">RedLedOn</text>
</a>
</g>
</g>
<!-- Node9&#45;&gt;Node22 -->
<g id="edge16" class="edge">
<title>Node9&#45;&gt;Node22</title>
<path fill="none" stroke="#63b8ff" d="M625.04,-734.87C629.1,-737.09 632.88,-739.79 636,-743.1 672.43,-781.78 634.16,-819.8 672,-857.1 677.13,-862.16 683.63,-865.81 690.44,-868.43"/>
<polygon fill="#63b8ff" stroke="#63b8ff" points="689.22,-871.72 699.81,-871.33 691.29,-865.03 689.22,-871.72"/>
</g>
<!-- Node27 -->
<g id="node21" class="node">
<title>Node27</title>
<g id="a_node21"><a xlink:href="TransmitterCode_2src_2main_8cpp.html#a0a3d89dfcfab70c6cbc50401fff1afeb" target="_top" xlink:title=" ">
<polygon fill="white" stroke="#666666" points="787.5,-95.6 678.5,-95.6 678.5,-76.6 787.5,-76.6 787.5,-95.6"/>
<text text-anchor="middle" x="733" y="-83.6" font-family="Helvetica,sans-Serif" font-size="10.00">ReEnableScanButton</text>
</a>
</g>
</g>
<!-- Node9&#45;&gt;Node27 -->
<g id="edge26" class="edge">
<title>Node9&#45;&gt;Node27</title>
<path fill="none" stroke="#63b8ff" d="M625.36,-715.44C629.47,-712.99 633.19,-709.93 636,-706.1 695.49,-625.05 651,-353.42 672,-255.1 683.88,-199.48 709.35,-137.19 722.97,-106.07"/>
<polygon fill="#63b8ff" stroke="#63b8ff" points="726.08,-107.69 726.95,-97.13 719.69,-104.84 726.08,-107.69"/>
</g>
<!-- Node28 -->
<g id="node22" class="node">
<title>Node28</title>
<g id="a_node22"><a xlink:href="RadioFunctions_8cpp.html#ad0236abcfc887ad708d9504c4ab2a7c3" target="_top" xlink:title=" ">
<polygon fill="white" stroke="#666666" points="777,-773.6 689,-773.6 689,-754.6 777,-754.6 777,-773.6"/>
<text text-anchor="middle" x="733" y="-761.6" font-family="Helvetica,sans-Serif" font-size="10.00">TryToReconnect</text>
</a>
</g>
</g>
<!-- Node9&#45;&gt;Node28 -->
<g id="edge29" class="edge">
<title>Node9&#45;&gt;Node28</title>
<path fill="none" stroke="#63b8ff" d="M625.45,-735.04C643.44,-739.95 665.35,-745.92 684.62,-751.18"/>
<polygon fill="#63b8ff" stroke="#63b8ff" points="683.58,-754.52 694.15,-753.78 685.42,-747.77 683.58,-754.52"/>
</g>
<!-- Node11 -->
<g id="node11" class="node">
<title>Node11</title>
<g id="a_node11"><a xlink:href="TransmitterCode_2src_2main_8cpp.html#add8d8f400f1c1c4a5add52736cdf94ca" target="_top" xlink:title=" ">
<polygon fill="#fff0f0" stroke="red" points="1082.5,-866.6 1030.5,-866.6 1030.5,-847.6 1082.5,-847.6 1082.5,-866.6"/>
<text text-anchor="middle" x="1056.5" y="-854.6" font-family="Helvetica,sans-Serif" font-size="10.00">LogText</text>
</a>
</g>
</g>
<!-- Node10&#45;&gt;Node11 -->
<g id="edge11" class="edge">
<title>Node10&#45;&gt;Node11</title>
<path fill="none" stroke="#63b8ff" d="M940.14,-870.76C965.04,-867.81 995.57,-864.19 1018.96,-861.42"/>
<polygon fill="#63b8ff" stroke="#63b8ff" points="1019.12,-864.93 1028.64,-860.28 1018.3,-857.98 1019.12,-864.93"/>
</g>
<!-- Node16 -->
<g id="node14" class="node">
<title>Node16</title>
<g id="a_node14"><a xlink:href="TransmitterCode_2src_2main_8cpp.html#a590a9174319918d7e3d7baca323fcf26" target="_top" xlink:title=" ">
<polygon fill="white" stroke="#666666" points="1214.5,-585.6 1185.5,-585.6 1185.5,-566.6 1214.5,-566.6 1214.5,-585.6"/>
<text text-anchor="middle" x="1200" y="-573.6" font-family="Helvetica,sans-Serif" font-size="10.00">Str</text>
</a>
</g>
</g>
<!-- Node10&#45;&gt;Node16 -->
<g id="edge14" class="edge">
<title>Node10&#45;&gt;Node16</title>
<path fill="none" stroke="#63b8ff" d="M938.22,-866.18C945.01,-863.94 951.82,-861.26 958,-858.1 998.56,-837.34 1090,-766.25 1119,-731.1 1154.2,-688.43 1179.9,-627.74 1191.73,-596.47"/>
<polygon fill="#63b8ff" stroke="#63b8ff" points="1194.88,-598.03 1195.06,-587.44 1188.31,-595.61 1194.88,-598.03"/>
</g>
<!-- Node12 -->
<g id="node12" class="node">
<title>Node12</title>
<g id="a_node12"><a xlink:href="TransmitterCode_2src_2main_8cpp.html#a6f003363493fc53b69f9efc1f447a6a1" target="_top" xlink:title=" ">
<polygon fill="white" stroke="#666666" points="1237,-847.6 1163,-847.6 1163,-828.6 1237,-828.6 1237,-847.6"/>
<text text-anchor="middle" x="1200" y="-835.6" font-family="Helvetica,sans-Serif" font-size="10.00">CloseLogFile</text>
</a>
</g>
</g>
<!-- Node11&#45;&gt;Node12 -->
<g id="edge12" class="edge">
<title>Node11&#45;&gt;Node12</title>
<path fill="none" stroke="#63b8ff" d="M1082.8,-853.7C1101.84,-851.15 1128.5,-847.57 1151.48,-844.48"/>
<polygon fill="#63b8ff" stroke="#63b8ff" points="1151.81,-847.97 1161.26,-843.17 1150.88,-841.03 1151.81,-847.97"/>
</g>
<!-- Node13 -->
<g id="node13" class="node">
<title>Node13</title>
<g id="a_node13"><a xlink:href="TransmitterCode_2src_2main_8cpp.html#a99a51dbad5d686ca711e982f82cbcada" target="_top" xlink:title=" ">
<polygon fill="#fff0f0" stroke="red" points="1245,-884.6 1155,-884.6 1155,-865.6 1245,-865.6 1245,-884.6"/>
<text text-anchor="middle" x="1200" y="-872.6" font-family="Helvetica,sans-Serif" font-size="10.00">LogFilePreamble</text>
</a>
</g>
</g>
<!-- Node11&#45;&gt;Node13 -->
<g id="edge13" class="edge">
<title>Node11&#45;&gt;Node13</title>
<path fill="none" stroke="#63b8ff" d="M1082.8,-860.32C1099.63,-862.46 1122.42,-865.36 1143.36,-868.02"/>
<polygon fill="#63b8ff" stroke="#63b8ff" points="1142.89,-871.49 1153.25,-869.28 1143.77,-864.55 1142.89,-871.49"/>
</g>
<!-- Node22&#45;&gt;Node2 -->
<g id="edge24" class="edge">
<title>Node22&#45;&gt;Node2</title>
<path fill="none" stroke="#63b8ff" d="M701.34,-875.1C652.43,-875.1 553.69,-875.1 470,-875.1 355.5,-875.1 355.5,-875.1 355.5,-875.1 264.57,-875.1 180.47,-790.58 147.13,-752.42"/>
<polygon fill="#63b8ff" stroke="#63b8ff" points="149.91,-750.28 140.75,-744.94 144.58,-754.82 149.91,-750.28"/>
</g>
<!-- Node22&#45;&gt;Node4 -->
<g id="edge23" class="edge">
<title>Node22&#45;&gt;Node4</title>
<path fill="none" stroke="#63b8ff" d="M701.02,-868.94C628.3,-853.37 443.14,-807.19 315,-718.1 288.58,-699.73 265.12,-670.43 251.36,-651.23"/>
<polygon fill="#63b8ff" stroke="#63b8ff" points="254.37,-649.43 245.78,-643.22 248.62,-653.43 254.37,-649.43"/>
</g>
<!-- Node23 -->
<g id="node17" class="node">
<title>Node23</title>
<g id="a_node17"><a xlink:href="TransmitterCode_2src_2main_8cpp.html#a549a702bb9b539c6b3a4f20cce65adcc" target="_top" xlink:title=" ">
<polygon fill="white" stroke="#666666" points="943,-772.6 845,-772.6 845,-753.6 943,-753.6 943,-772.6"/>
<text text-anchor="middle" x="894" y="-760.6" font-family="Helvetica,sans-Serif" font-size="10.00">GetLEDBrightness</text>
</a>
</g>
</g>
<!-- Node22&#45;&gt;Node23 -->
<g id="edge17" class="edge">
<title>Node22&#45;&gt;Node23</title>
<path fill="none" stroke="#63b8ff" d="M764.99,-870.78C775.09,-868.15 785.8,-863.91 794,-857.1 820.9,-834.73 803.93,-810.43 830,-787.1 833.99,-783.53 838.56,-780.47 843.38,-777.85"/>
<polygon fill="#63b8ff" stroke="#63b8ff" points="844.6,-781.15 852.15,-773.72 841.61,-774.82 844.6,-781.15"/>
</g>
<!-- Node24 -->
<g id="node18" class="node">
<title>Node24</title>
<g id="a_node18"><a xlink:href="TransmitterCode_2src_2main_8cpp.html#a2d5ec5fd5ed62d5b7b071fabe2225405" target="_top" xlink:title=" ">
<polygon fill="white" stroke="#666666" points="942,-996.6 846,-996.6 846,-977.6 942,-977.6 942,-996.6"/>
<text text-anchor="middle" x="894" y="-984.6" font-family="Helvetica,sans-Serif" font-size="10.00">LogDisConnection</text>
</a>
</g>
</g>
<!-- Node22&#45;&gt;Node24 -->
<g id="edge18" class="edge">
<title>Node22&#45;&gt;Node24</title>
<path fill="none" stroke="#63b8ff" d="M741.28,-884.97C755.92,-904.1 790.88,-946.36 830,-969.1 832.32,-970.45 834.75,-971.7 837.25,-972.87"/>
<polygon fill="#63b8ff" stroke="#63b8ff" points="835.83,-976.07 846.41,-976.6 838.47,-969.58 835.83,-976.07"/>
</g>
<!-- Node25 -->
<g id="node19" class="node">
<title>Node25</title>
<g id="a_node19"><a xlink:href="TransmitterCode_2src_2main_8cpp.html#aa490b4664b0a4498d53b30b82287d5df" target="_top" xlink:title=" ">
<polygon fill="white" stroke="#666666" points="1088,-585.6 1025,-585.6 1025,-566.6 1088,-566.6 1088,-585.6"/>
<text text-anchor="middle" x="1056.5" y="-573.6" font-family="Helvetica,sans-Serif" font-size="10.00">PlaySound</text>
</a>
</g>
</g>
<!-- Node22&#45;&gt;Node25 -->
<g id="edge20" class="edge">
<title>Node22&#45;&gt;Node25</title>
<path fill="none" stroke="#63b8ff" d="M764.82,-868.98C774.58,-866.24 785.13,-862.4 794,-857.1 813.43,-845.5 810.6,-832.74 830,-821.1 880.99,-790.49 916.45,-824.65 958,-782.1 999.59,-739.52 966.88,-706.09 994,-653.1 1005.49,-630.65 1024.14,-608.52 1037.89,-593.79"/>
<polygon fill="#63b8ff" stroke="#63b8ff" points="1040.27,-596.37 1044.67,-586.73 1035.22,-591.52 1040.27,-596.37"/>
</g>
<!-- Node26 -->
<g id="node20" class="node">
<title>Node26</title>
<g id="a_node20"><a xlink:href="ReceiverCode_2src_2main_8cpp.html#a2eabdb233653fa02f0b899e26b5e8ce7" target="_top" xlink:title=" ">
<polygon fill="white" stroke="#666666" points="943.5,-1033.6 844.5,-1033.6 844.5,-1014.6 943.5,-1014.6 943.5,-1033.6"/>
<text text-anchor="middle" x="894" y="-1021.6" font-family="Helvetica,sans-Serif" font-size="10.00">SetUKFrequencies</text>
</a>
</g>
</g>
<!-- Node22&#45;&gt;Node26 -->
<g id="edge25" class="edge">
<title>Node22&#45;&gt;Node26</title>
<path fill="none" stroke="#63b8ff" d="M741.53,-884.73C753.03,-899.5 775.6,-928.73 794,-954.1 810.5,-976.85 807.15,-989.73 830,-1006.1 831.56,-1007.22 833.18,-1008.26 834.86,-1009.24"/>
<polygon fill="#63b8ff" stroke="#63b8ff" points="833.05,-1012.26 843.57,-1013.53 836.14,-1005.97 833.05,-1012.26"/>
</g>
<!-- Node24&#45;&gt;Node11 -->
<g id="edge19" class="edge">
<title>Node24&#45;&gt;Node11</title>
<path fill="none" stroke="#63b8ff" d="M941.42,-977.2C947.23,-975 952.91,-972.33 958,-969.1 996.07,-944.89 1027.65,-901.44 1043.83,-876.37"/>
<polygon fill="#63b8ff" stroke="#63b8ff" points="1046.64,-878.48 1048.99,-868.14 1040.71,-874.76 1046.64,-878.48"/>
</g>
<!-- Node25&#45;&gt;Node4 -->
<g id="edge21" class="edge">
<title>Node25&#45;&gt;Node4</title>
<path fill="none" stroke="#63b8ff" d="M1024.56,-575.19C922.44,-572.71 587.19,-568.72 315,-613.1 304.99,-614.73 294.37,-617.01 284.32,-619.43"/>
<polygon fill="#63b8ff" stroke="#63b8ff" points="283.61,-616 274.76,-621.82 285.31,-622.79 283.61,-616"/>
</g>
<!-- Node25&#45;&gt;Node16 -->
<g id="edge22" class="edge">
<title>Node25&#45;&gt;Node16</title>
<path fill="none" stroke="#63b8ff" d="M1088.2,-576.1C1113.81,-576.1 1149.86,-576.1 1173.8,-576.1"/>
<polygon fill="#63b8ff" stroke="#63b8ff" points="1173.59,-579.6 1183.59,-576.1 1173.59,-572.6 1173.59,-579.6"/>
</g>
<!-- Node27&#45;&gt;Node4 -->
<g id="edge27" class="edge">
<title>Node27&#45;&gt;Node4</title>
<path fill="none" stroke="#63b8ff" d="M717.53,-95.94C659.74,-135.85 442.55,-291.82 315,-466.1 280.43,-513.33 255.97,-578.67 244.99,-611.51"/>
<polygon fill="#63b8ff" stroke="#63b8ff" points="241.68,-610.37 241.92,-620.96 248.34,-612.53 241.68,-610.37"/>
</g>
<!-- Node27&#45;&gt;Node16 -->
<g id="edge28" class="edge">
<title>Node27&#45;&gt;Node16</title>
<path fill="none" stroke="#63b8ff" d="M746.07,-76.17C763.38,-62.64 796.85,-39.06 830,-30.1 955.01,3.7 1030.69,27.61 1119,-67.1 1186.6,-139.6 1197.11,-468.05 1198.72,-554.95"/>
<polygon fill="#63b8ff" stroke="#63b8ff" points="1195.22,-554.9 1198.88,-564.84 1202.21,-554.79 1195.22,-554.9"/>
</g>
<!-- Node29 -->
<g id="node23" class="node">
<title>Node29</title>
<g id="a_node23"><a xlink:href="RadioFunctions_8cpp.html#a52aa3e80bccf5e75346c93fdae63122d" target="_top" xlink:title=" ">
<polygon fill="white" stroke="#666666" points="944.5,-959.6 843.5,-959.6 843.5,-940.6 944.5,-940.6 944.5,-959.6"/>
<text text-anchor="middle" x="894" y="-947.6" font-family="Helvetica,sans-Serif" font-size="10.00">HopToNextChannel</text>
</a>
</g>
</g>
<!-- Node28&#45;&gt;Node29 -->
<g id="edge30" class="edge">
<title>Node28&#45;&gt;Node29</title>
<path fill="none" stroke="#63b8ff" d="M777.49,-771.89C783.67,-774.6 789.45,-778.23 794,-783.1 840.47,-832.92 782.83,-882.94 830,-932.1 831.18,-933.33 832.44,-934.48 833.76,-935.55"/>
<polygon fill="#63b8ff" stroke="#63b8ff" points="831.69,-938.38 842.02,-940.76 835.43,-932.46 831.69,-938.38"/>
</g>
<!-- Node30 -->
<g id="node24" class="node">
<title>Node30</title>
<g id="a_node24"><a xlink:href="RadioFunctions_8cpp.html#ad0e30213b21808d00110752679788a8c" target="_top" xlink:title=" ">
<polygon fill="#fff0f0" stroke="red" points="931,-922.6 857,-922.6 857,-903.6 931,-903.6 931,-922.6"/>
<text text-anchor="middle" x="894" y="-910.6" font-family="Helvetica,sans-Serif" font-size="10.00">TryOtherPipe</text>
</a>
</g>
</g>
<!-- Node28&#45;&gt;Node30 -->
<g id="edge31" class="edge">
<title>Node28&#45;&gt;Node30</title>
<path fill="none" stroke="#63b8ff" d="M777.49,-772.32C783.59,-774.97 789.35,-778.47 794,-783.1 831.05,-819.99 792.43,-858.74 830,-895.1 834.5,-899.45 839.97,-902.76 845.79,-905.28"/>
<polygon fill="#63b8ff" stroke="#63b8ff" points="844.48,-908.53 855.08,-908.51 846.78,-901.92 844.48,-908.53"/>
</g>
<!-- Node33&#45;&gt;Node4 -->
<g id="edge35" class="edge">
<title>Node33&#45;&gt;Node4</title>
<path fill="none" stroke="#63b8ff" d="M543.39,-755.01C488.23,-744.94 391.23,-723.56 315,-687.1 294.18,-677.14 273.07,-661.45 258.32,-649.37"/>
<polygon fill="#63b8ff" stroke="#63b8ff" points="260.67,-646.78 250.77,-643.03 256.17,-652.14 260.67,-646.78"/>
</g>
<!-- Node33&#45;&gt;Node26 -->
<g id="edge37" class="edge">
<title>Node33&#45;&gt;Node26</title>
<path fill="none" stroke="#63b8ff" d="M593.5,-771.94C604.47,-795.16 634.42,-854.38 672,-894.1 731.16,-956.62 752.4,-968.86 830,-1006.1 833.13,-1007.6 836.41,-1009 839.76,-1010.3"/>
<polygon fill="#63b8ff" stroke="#63b8ff" points="838.56,-1013.59 849.16,-1013.62 840.89,-1006.99 838.56,-1013.59"/>
</g>
<!-- Node34 -->
<g id="node27" class="node">
<title>Node34</title>
<g id="a_node27"><a xlink:href="TransmitterCode_2src_2main_8cpp.html#a5aa4888b924a4f1d95e9cedc3004f2b6" target="_top" xlink:title=" ">
<polygon fill="white" stroke="#666666" points="774.5,-847.6 691.5,-847.6 691.5,-828.6 774.5,-828.6 774.5,-847.6"/>
<text text-anchor="middle" x="733" y="-835.6" font-family="Helvetica,sans-Serif" font-size="10.00">MakeTwobytes</text>
</a>
</g>
</g>
<!-- Node33&#45;&gt;Node34 -->
<g id="edge34" class="edge">
<title>Node33&#45;&gt;Node34</title>
<path fill="none" stroke="#63b8ff" d="M611.75,-772.09C619.7,-776 628.51,-780.82 636,-786.1 653.98,-798.79 652.95,-809.09 672,-820.1 674.78,-821.71 677.72,-823.18 680.74,-824.54"/>
<polygon fill="#63b8ff" stroke="#63b8ff" points="679.23,-827.7 689.82,-828.12 681.8,-821.19 679.23,-827.7"/>
</g>
<!-- Node35 -->
<g id="node28" class="node">
<title>Node35</title>
<g id="a_node28"><a xlink:href="ReceiverCode_2src_2main_8cpp.html#a31a35307bbac88ceda244272f25d399a" target="_top" xlink:title=" ">
<polygon fill="white" stroke="#666666" points="785,-810.6 681,-810.6 681,-791.6 785,-791.6 785,-810.6"/>
<text text-anchor="middle" x="733" y="-798.6" font-family="Helvetica,sans-Serif" font-size="10.00">SetTestFrequencies</text>
</a>
</g>
</g>
<!-- Node33&#45;&gt;Node35 -->
<g id="edge36" class="edge">
<title>Node33&#45;&gt;Node35</title>
<path fill="none" stroke="#63b8ff" d="M625.45,-772.04C643.44,-776.95 665.35,-782.92 684.62,-788.18"/>
<polygon fill="#63b8ff" stroke="#63b8ff" points="683.58,-791.52 694.15,-790.78 685.42,-784.77 683.58,-791.52"/>
</g>
<!-- Node37&#45;&gt;Node21 -->
<g id="edge75" class="edge">
<title>Node37&#45;&gt;Node21</title>
<path fill="none" stroke="#63b8ff" d="M620.78,-624.1C626.06,-626.36 631.33,-629.02 636,-632.1 655.16,-644.72 652.47,-657.05 672,-669.1 674.75,-670.79 677.66,-672.35 680.66,-673.78"/>
<polygon fill="#63b8ff" stroke="#63b8ff" points="679.13,-676.93 689.71,-677.56 681.83,-670.47 679.13,-676.93"/>
</g>
<!-- Node38 -->
<g id="node31" class="node">
<title>Node38</title>
<g id="a_node31"><a xlink:href="TransmitterCode_2src_2main_8cpp.html#a953f1d5046e183549ed95b08f6d675e3" target="_top" xlink:title=" ">
<polygon fill="white" stroke="#666666" points="782,-660.6 684,-660.6 684,-641.6 782,-641.6 782,-660.6"/>
<text text-anchor="middle" x="733" y="-648.6" font-family="Helvetica,sans-Serif" font-size="10.00">CheckGapsLength</text>
</a>
</g>
</g>
<!-- Node37&#45;&gt;Node38 -->
<g id="edge40" class="edge">
<title>Node37&#45;&gt;Node38</title>
<path fill="none" stroke="#63b8ff" d="M627.32,-624.01C644.31,-628.41 664.52,-633.64 682.62,-638.32"/>
<polygon fill="#63b8ff" stroke="#63b8ff" points="681.55,-641.66 692.11,-640.78 683.3,-634.88 681.55,-641.66"/>
</g>
<!-- Node40 -->
<g id="node33" class="node">
<title>Node40</title>
<g id="a_node33"><a xlink:href="TransmitterCode_2src_2main_8cpp.html#a62e53eb9359c32b666e3386d62c57037" target="_top" xlink:title=" ">
<polygon fill="white" stroke="#666666" points="769,-623.6 697,-623.6 697,-604.6 769,-604.6 769,-623.6"/>
<text text-anchor="middle" x="733" y="-611.6" font-family="Helvetica,sans-Serif" font-size="10.00">GreenLedOn</text>
</a>
</g>
</g>
<!-- Node37&#45;&gt;Node40 -->
<g id="edge44" class="edge">
<title>Node37&#45;&gt;Node40</title>
<path fill="none" stroke="#63b8ff" d="M636.22,-614.1C652.06,-614.1 669.71,-614.1 685.5,-614.1"/>
<polygon fill="#63b8ff" stroke="#63b8ff" points="685.1,-617.6 695.1,-614.1 685.1,-610.6 685.1,-617.6"/>
</g>
<!-- Node52 -->
<g id="node38" class="node">
<title>Node52</title>
<g id="a_node38"><a xlink:href="TransmitterCode_2src_2main_8cpp.html#a793b7bcd77531c95fe72ed4356d421c8" target="_top" xlink:title=" ">
<polygon fill="white" stroke="#666666" points="1111.5,-452.6 1001.5,-452.6 1001.5,-433.6 1111.5,-433.6 1111.5,-452.6"/>
<text text-anchor="middle" x="1056.5" y="-440.6" font-family="Helvetica,sans-Serif" font-size="10.00">StartInactvityTimeout</text>
</a>
</g>
</g>
<!-- Node37&#45;&gt;Node52 -->
<g id="edge76" class="edge">
<title>Node37&#45;&gt;Node52</title>
<path fill="none" stroke="#63b8ff" d="M590.12,-604.19C596.13,-552.27 626.14,-311.81 672,-255.1 720.76,-194.8 754.31,-197.95 830,-181.1 885.53,-168.74 914.81,-144.07 958,-181.1 1037.55,-249.3 931.28,-330.16 994,-414.1 998.22,-419.75 1003.82,-424.34 1009.92,-428.06"/>
<polygon fill="#63b8ff" stroke="#63b8ff" points="1007.98,-430.99 1018.46,-432.51 1011.21,-424.78 1007.98,-430.99"/>
</g>
<!-- Node54 -->
<g id="node40" class="node">
<title>Node54</title>
<g id="a_node40"><a xlink:href="TransmitterCode_2src_2main_8cpp.html#a694f4f5a0147f4dc29b0bc1a8951547d" target="_top" xlink:title=" ">
<polygon fill="white" stroke="#666666" points="780,-283.6 686,-283.6 686,-264.6 780,-264.6 780,-283.6"/>
<text text-anchor="middle" x="733" y="-271.6" font-family="Helvetica,sans-Serif" font-size="10.00">ParseAckPayload</text>
</a>
</g>
</g>
<!-- Node37&#45;&gt;Node54 -->
<g id="edge60" class="edge">
<title>Node37&#45;&gt;Node54</title>
<path fill="none" stroke="#63b8ff" d="M593.13,-604.29C612.7,-557.76 696.37,-358.83 723.48,-294.35"/>
<polygon fill="#63b8ff" stroke="#63b8ff" points="726.62,-295.92 727.27,-285.34 720.17,-293.2 726.62,-295.92"/>
</g>
<!-- Node39 -->
<g id="node32" class="node">
<title>Node39</title>
<g id="a_node32"><a xlink:href="TransmitterCode_2src_2main_8cpp.html#a1fadc7cdd854f8b3628b622da5417d8b" target="_top" xlink:title=" ">
<polygon fill="white" stroke="#666666" points="929,-848.6 859,-848.6 859,-829.6 929,-829.6 929,-848.6"/>
<text text-anchor="middle" x="894" y="-836.6" font-family="Helvetica,sans-Serif" font-size="10.00">LogThisGap</text>
</a>
</g>
</g>
<!-- Node38&#45;&gt;Node39 -->
<g id="edge41" class="edge">
<title>Node38&#45;&gt;Node39</title>
<path fill="none" stroke="#63b8ff" d="M782.27,-660.78C786.58,-663.01 790.59,-665.74 794,-669.1 831.59,-706.05 801.47,-737.78 830,-782.1 840.21,-797.97 855.95,-812.21 869.15,-822.49"/>
<polygon fill="#63b8ff" stroke="#63b8ff" points="866.87,-825.16 876.97,-828.34 871.06,-819.55 866.87,-825.16"/>
</g>
<!-- Node39&#45;&gt;Node11 -->
<g id="edge42" class="edge">
<title>Node39&#45;&gt;Node11</title>
<path fill="none" stroke="#63b8ff" d="M929.43,-842.96C955.75,-845.91 991.95,-849.97 1018.81,-852.99"/>
<polygon fill="#63b8ff" stroke="#63b8ff" points="1018.23,-856.44 1028.56,-854.08 1019.01,-849.49 1018.23,-856.44"/>
</g>
<!-- Node39&#45;&gt;Node16 -->
<g id="edge43" class="edge">
<title>Node39&#45;&gt;Node16</title>
<path fill="none" stroke="#63b8ff" d="M929.39,-829.16C939.08,-825.54 949.33,-820.88 958,-815.1 977.35,-802.19 977.69,-793.69 994,-777.1 1061.64,-708.28 1144.21,-628.6 1180.45,-593.84"/>
<polygon fill="#63b8ff" stroke="#63b8ff" points="1182.74,-596.5 1187.54,-587.05 1177.89,-591.44 1182.74,-596.5"/>
</g>
<!-- Node40&#45;&gt;Node23 -->
<g id="edge46" class="edge">
<title>Node40&#45;&gt;Node23</title>
<path fill="none" stroke="#63b8ff" d="M769.4,-618.71C778.36,-621.37 787.32,-625.55 794,-632.1 831.33,-668.71 792.7,-707.46 830,-744.1 831.56,-745.63 833.24,-747.04 835.01,-748.33"/>
<polygon fill="#63b8ff" stroke="#63b8ff" points="832.8,-751.1 843.2,-753.15 836.35,-745.06 832.8,-751.1"/>
</g>
<!-- Node40&#45;&gt;Node25 -->
<g id="edge51" class="edge">
<title>Node40&#45;&gt;Node25</title>
<path fill="none" stroke="#63b8ff" d="M769.35,-610.71C813.53,-606.38 891.44,-598.44 958,-590.1 976.2,-587.82 996.26,-584.99 1013.43,-582.48"/>
<polygon fill="#63b8ff" stroke="#63b8ff" points="1013.92,-585.94 1023.3,-581.02 1012.9,-579.02 1013.92,-585.94"/>
</g>
<!-- Node41 -->
<g id="node34" class="node">
<title>Node41</title>
<g id="a_node34"><a xlink:href="TransmitterCode_2src_2main_8cpp.html#a82b1900a80d1622896601c57d6edaeda" target="_top" xlink:title=" ">
<polygon fill="white" stroke="#666666" points="943,-698.6 845,-698.6 845,-679.6 943,-679.6 943,-698.6"/>
<text text-anchor="middle" x="894" y="-686.6" font-family="Helvetica,sans-Serif" font-size="10.00">ClearSuccessRate</text>
</a>
</g>
</g>
<!-- Node40&#45;&gt;Node41 -->
<g id="edge45" class="edge">
<title>Node40&#45;&gt;Node41</title>
<path fill="none" stroke="#63b8ff" d="M769.27,-621.36C777.74,-623.98 786.5,-627.48 794,-632.1 813.81,-644.3 810.2,-657.89 830,-670.1 832.78,-671.81 835.73,-673.38 838.76,-674.82"/>
<polygon fill="#63b8ff" stroke="#63b8ff" points="837.37,-678.03 847.95,-678.61 840.05,-671.56 837.37,-678.03"/>
</g>
<!-- Node42 -->
<g id="node35" class="node">
<title>Node42</title>
<g id="a_node35"><a xlink:href="TransmitterCode_2src_2main_8cpp.html#aaa3e86084c43b049d52d7d62c58a00b9" target="_top" xlink:title=" ">
<polygon fill="#fff0f0" stroke="red" points="935,-735.6 853,-735.6 853,-716.6 935,-716.6 935,-735.6"/>
<text text-anchor="middle" x="894" y="-723.6" font-family="Helvetica,sans-Serif" font-size="10.00">LogConnection</text>
</a>
</g>
</g>
<!-- Node40&#45;&gt;Node42 -->
<g id="edge47" class="edge">
<title>Node40&#45;&gt;Node42</title>
<path fill="none" stroke="#63b8ff" d="M769.46,-619.52C778.21,-622.18 787.06,-626.16 794,-632.1 822.1,-656.13 801.91,-683.05 830,-707.1 833.66,-710.23 837.83,-712.85 842.23,-715.04"/>
<polygon fill="#63b8ff" stroke="#63b8ff" points="840.83,-718.25 851.41,-718.82 843.5,-711.77 840.83,-718.25"/>
</g>
<!-- Node44 -->
<g id="node36" class="node">
<title>Node44</title>
<g id="a_node36"><a xlink:href="TransmitterCode_2src_2main_8cpp.html#a2e38b32674344cfc06b09a71dfcaf3f1" target="_top" xlink:title=" ">
<polygon fill="white" stroke="#666666" points="1119,-509.6 994,-509.6 994,-490.6 1119,-490.6 1119,-509.6"/>
<text text-anchor="middle" x="1056.5" y="-497.6" font-family="Helvetica,sans-Serif" font-size="10.00">MakeBindButtonInvisible</text>
</a>
</g>
</g>
<!-- Node40&#45;&gt;Node44 -->
<g id="edge49" class="edge">
<title>Node40&#45;&gt;Node44</title>
<path fill="none" stroke="#63b8ff" d="M761.97,-604.18C819.45,-583.8 950.95,-537.17 1016.65,-513.87"/>
<polygon fill="#63b8ff" stroke="#63b8ff" points="1017.69,-517.22 1025.94,-510.58 1015.35,-510.62 1017.69,-517.22"/>
</g>
<!-- Node45 -->
<g id="node37" class="node">
<title>Node45</title>
<g id="a_node37"><a xlink:href="TransmitterCode_2src_2main_8cpp.html#a5d3a46c21927cf7a3031a1e68e0b7b48" target="_top" xlink:title="SHOW COMMS.">
<polygon fill="#fff0f0" stroke="red" points="931.5,-509.6 856.5,-509.6 856.5,-490.6 931.5,-490.6 931.5,-509.6"/>
<text text-anchor="middle" x="894" y="-497.6" font-family="Helvetica,sans-Serif" font-size="10.00">ShowComms</text>
</a>
</g>
</g>
<!-- Node40&#45;&gt;Node45 -->
<g id="edge52" class="edge">
<title>Node40&#45;&gt;Node45</title>
<path fill="none" stroke="#63b8ff" d="M743,-604.31C765.8,-584.25 826.59,-539.98 863.41,-515.93"/>
<polygon fill="#63b8ff" stroke="#63b8ff" points="864.86,-519.15 871.38,-510.81 861.08,-513.26 864.86,-519.15"/>
</g>
<!-- Node53 -->
<g id="node39" class="node">
<title>Node53</title>
<g id="a_node39"><a xlink:href="TransmitterCode_2src_2main_8cpp.html#a6da9a1fd0b003151f79eabc702ba80ff" target="_top" xlink:title=" ">
<polygon fill="white" stroke="#666666" points="937.5,-661.6 850.5,-661.6 850.5,-642.6 937.5,-642.6 937.5,-661.6"/>
<text text-anchor="middle" x="894" y="-649.6" font-family="Helvetica,sans-Serif" font-size="10.00">ZeroDataScreen</text>
</a>
</g>
</g>
<!-- Node40&#45;&gt;Node53 -->
<g id="edge59" class="edge">
<title>Node40&#45;&gt;Node53</title>
<path fill="none" stroke="#63b8ff" d="M769.29,-622.53C790.12,-627.51 816.9,-633.91 840.21,-639.48"/>
<polygon fill="#63b8ff" stroke="#63b8ff" points="839.32,-642.87 849.86,-641.79 840.95,-636.06 839.32,-642.87"/>
</g>
<!-- Node42&#45;&gt;Node11 -->
<g id="edge48" class="edge">
<title>Node42&#45;&gt;Node11</title>
<path fill="none" stroke="#63b8ff" d="M935.49,-733.9C943.32,-736.43 951.19,-739.75 958,-744.1 996.21,-768.52 1027.74,-812.36 1043.87,-837.65"/>
<polygon fill="#63b8ff" stroke="#63b8ff" points="1040.78,-839.3 1049.02,-845.96 1046.73,-835.62 1040.78,-839.3"/>
</g>
<!-- Node44&#45;&gt;Node4 -->
<g id="edge50" class="edge">
<title>Node44&#45;&gt;Node4</title>
<path fill="none" stroke="#63b8ff" d="M1014.01,-490.19C996.79,-486.55 976.54,-482.89 958,-481.1 901.37,-475.63 886.88,-480.2 830,-481.1 599.09,-484.75 517.8,-439.64 315,-550.1 287.45,-565.11 264.27,-593.72 250.87,-612.85"/>
<polygon fill="#63b8ff" stroke="#63b8ff" points="248,-610.86 245.32,-621.11 253.81,-614.77 248,-610.86"/>
</g>
<!-- Node45&#45;&gt;Node2 -->
<g id="edge57" class="edge">
<title>Node45&#45;&gt;Node2</title>
<path fill="none" stroke="#63b8ff" d="M856.23,-497.26C762.83,-491.3 510.05,-483.12 315,-550.1 258.4,-569.54 238.31,-570.78 196,-613.1 166.85,-642.26 147.81,-687.48 138.57,-713.59"/>
<polygon fill="#63b8ff" stroke="#63b8ff" points="135.28,-712.39 135.4,-722.99 141.91,-714.63 135.28,-712.39"/>
</g>
<!-- Node45&#45;&gt;Node4 -->
<g id="edge56" class="edge">
<title>Node45&#45;&gt;Node4</title>
<path fill="none" stroke="#63b8ff" d="M856.33,-505.32C837.67,-507.96 814.63,-511.22 794,-514.1 581.16,-543.81 515.59,-503 315,-580.1 293.85,-588.23 272.78,-603.19 258.12,-614.99"/>
<polygon fill="#63b8ff" stroke="#63b8ff" points="256.09,-612.12 250.64,-621.21 260.57,-617.51 256.09,-612.12"/>
</g>
<!-- Node45&#45;&gt;Node25 -->
<g id="edge55" class="edge">
<title>Node45&#45;&gt;Node25</title>
<path fill="none" stroke="#63b8ff" d="M923.22,-509.99C934.21,-514.06 946.81,-519.01 958,-524.1 982.46,-535.23 1009.34,-549.74 1028.67,-560.61"/>
<polygon fill="#63b8ff" stroke="#63b8ff" points="1026.83,-563.59 1037.25,-565.48 1030.28,-557.5 1026.83,-563.59"/>
</g>
<!-- Node45&#45;&gt;Node40 -->
<g id="edge53" class="edge">
<title>Node45&#45;&gt;Node40</title>
<path fill="none" stroke="#63b8ff" d="M883.89,-509.98C861.04,-530.06 800.48,-574.16 763.71,-598.2"/>
<polygon fill="#63b8ff" stroke="#63b8ff" points="762.26,-594.97 755.73,-603.31 766.04,-600.86 762.26,-594.97"/>
</g>
<!-- Node45&#45;&gt;Node44 -->
<g id="edge54" class="edge">
<title>Node45&#45;&gt;Node44</title>
<path fill="none" stroke="#63b8ff" d="M931.82,-500.1C946.85,-500.1 964.8,-500.1 982.29,-500.1"/>
<polygon fill="#63b8ff" stroke="#63b8ff" points="982.17,-503.6 992.17,-500.1 982.17,-496.6 982.17,-503.6"/>
</g>
<!-- Node45&#45;&gt;Node52 -->
<g id="edge58" class="edge">
<title>Node45&#45;&gt;Node52</title>
<path fill="none" stroke="#63b8ff" d="M922.96,-490.17C949,-480.92 988.05,-467.05 1017.03,-456.76"/>
<polygon fill="#63b8ff" stroke="#63b8ff" points="1017.92,-460.16 1026.17,-453.52 1015.57,-453.56 1017.92,-460.16"/>
</g>
<!-- Node55 -->
<g id="node41" class="node">
<title>Node55</title>
<g id="a_node41"><a xlink:href="TransmitterCode_2src_2main_8cpp.html#a75fa77e7bbb1cfe8fe6e1a216fbdc17e" target="_top" xlink:title=" ">
<polygon fill="white" stroke="#666666" points="926.5,-95.6 861.5,-95.6 861.5,-76.6 926.5,-76.6 926.5,-95.6"/>
<text text-anchor="middle" x="894" y="-83.6" font-family="Helvetica,sans-Serif" font-size="10.00">GetAltitude</text>
</a>
</g>
</g>
<!-- Node54&#45;&gt;Node55 -->
<g id="edge61" class="edge">
<title>Node54&#45;&gt;Node55</title>
<path fill="none" stroke="#63b8ff" d="M740.78,-264.25C755.88,-242.52 793.82,-189.16 830,-148.1 844.01,-132.2 861.24,-115.4 874.14,-103.31"/>
<polygon fill="#63b8ff" stroke="#63b8ff" points="876.22,-106.16 881.18,-96.79 871.46,-101.02 876.22,-106.16"/>
</g>
<!-- Node56 -->
<g id="node42" class="node">
<title>Node56</title>
<g id="a_node42"><a xlink:href="TransmitterCode_2src_2main_8cpp.html#ab5736b017daadeb2c1d7dc73489d31a6" target="_top" xlink:title=" ">
<polygon fill="white" stroke="#666666" points="1110,-95.6 1003,-95.6 1003,-76.6 1110,-76.6 1110,-95.6"/>
<text text-anchor="middle" x="1056.5" y="-83.6" font-family="Helvetica,sans-Serif" font-size="10.00">GetFromAckPayload</text>
</a>
</g>
</g>
<!-- Node54&#45;&gt;Node56 -->
<g id="edge64" class="edge">
<title>Node54&#45;&gt;Node56</title>
<path fill="none" stroke="#63b8ff" d="M742.03,-264.17C757.42,-245.7 792.83,-205.67 830,-181.1 887.74,-142.93 963.33,-114.86 1010.66,-99.5"/>
<polygon fill="#63b8ff" stroke="#63b8ff" points="1011.57,-102.89 1020.03,-96.51 1009.44,-96.22 1011.57,-102.89"/>
</g>
<!-- Node57 -->
<g id="node43" class="node">
<title>Node57</title>
<g id="a_node43"><a xlink:href="TransmitterCode_2src_2main_8cpp.html#a160b9119423c34869b16a4ebdc421d35" target="_top" xlink:title=" ">
<polygon fill="white" stroke="#666666" points="957.5,-357.6 830.5,-357.6 830.5,-338.6 957.5,-338.6 957.5,-357.6"/>
<text text-anchor="middle" x="894" y="-345.6" font-family="Helvetica,sans-Serif" font-size="10.00">GetDateFromAckPayload</text>
</a>
</g>
</g>
<!-- Node54&#45;&gt;Node57 -->
<g id="edge63" class="edge">
<title>Node54&#45;&gt;Node57</title>
<path fill="none" stroke="#63b8ff" d="M748.74,-283.97C767.13,-295.93 799.83,-316.11 830,-329.1 834.55,-331.06 839.37,-332.9 844.23,-334.6"/>
<polygon fill="#63b8ff" stroke="#63b8ff" points="842.83,-337.83 853.42,-337.64 845.02,-331.18 842.83,-337.83"/>
</g>
<!-- Node58 -->
<g id="node44" class="node">
<title>Node58</title>
<g id="a_node44"><a xlink:href="TransmitterCode_2src_2main_8cpp.html#a494cb4acb30856d1f53f08df1b80c41b" target="_top" xlink:title=" ">
<polygon fill="#fff0f0" stroke="red" points="953.5,-433.6 834.5,-433.6 834.5,-414.6 953.5,-414.6 953.5,-433.6"/>
<text text-anchor="middle" x="894" y="-421.6" font-family="Helvetica,sans-Serif" font-size="10.00">GetModelsMacAddress</text>
</a>
</g>
</g>
<!-- Node54&#45;&gt;Node58 -->
<g id="edge65" class="edge">
<title>Node54&#45;&gt;Node58</title>
<path fill="none" stroke="#63b8ff" d="M738.89,-283.77C751.12,-307.03 785.28,-366.68 830,-400.1 834.92,-403.78 840.47,-406.96 846.19,-409.69"/>
<polygon fill="#63b8ff" stroke="#63b8ff" points="844.6,-412.81 855.17,-413.53 847.36,-406.38 844.6,-412.81"/>
</g>
<!-- Node93 -->
<g id="node45" class="node">
<title>Node93</title>
<g id="a_node45"><a xlink:href="TransmitterCode_2src_2main_8cpp.html#a4f813935d8fe58355228cbbf25e12f96" target="_top" xlink:title=" ">
<polygon fill="#fff0f0" stroke="red" points="1113,-405.6 1000,-405.6 1000,-386.6 1113,-386.6 1113,-405.6"/>
<text text-anchor="middle" x="1056.5" y="-393.6" font-family="Helvetica,sans-Serif" font-size="10.00">GetRXVersionNumber</text>
</a>
</g>
</g>
<!-- Node54&#45;&gt;Node93 -->
<g id="edge67" class="edge">
<title>Node54&#45;&gt;Node93</title>
<path fill="none" stroke="#63b8ff" d="M740.84,-283.96C754.97,-303.42 789.43,-346.59 830,-366.1 879.55,-389.92 941.89,-396.71 988.45,-397.94"/>
<polygon fill="#63b8ff" stroke="#63b8ff" points="988.36,-401.44 998.42,-398.11 988.49,-394.44 988.36,-401.44"/>
</g>
<!-- Node95 -->
<g id="node46" class="node">
<title>Node95</title>
<g id="a_node46"><a xlink:href="TransmitterCode_2src_2main_8cpp.html#a19f6fc09d690832e74fd3c679207f07f" target="_top" xlink:title=" ">
<polygon fill="white" stroke="#666666" points="937.5,-58.6 850.5,-58.6 850.5,-39.6 937.5,-39.6 937.5,-58.6"/>
<text text-anchor="middle" x="894" y="-46.6" font-family="Helvetica,sans-Serif" font-size="10.00">GetTemperature</text>
</a>
</g>
</g>
<!-- Node54&#45;&gt;Node95 -->
<g id="edge69" class="edge">
<title>Node54&#45;&gt;Node95</title>
<path fill="none" stroke="#63b8ff" d="M735.62,-264.13C741.55,-230.83 765.27,-122.45 830,-67.1 832.99,-64.55 836.31,-62.35 839.84,-60.47"/>
<polygon fill="#63b8ff" stroke="#63b8ff" points="841.02,-63.77 848.77,-56.55 838.21,-57.36 841.02,-63.77"/>
</g>
<!-- Node96 -->
<g id="node47" class="node">
<title>Node96</title>
<g id="a_node47"><a xlink:href="TransmitterCode_2src_2main_8cpp.html#a86523345ecdd52f3d93dccd6fcf4370a" target="_top" xlink:title=" ">
<polygon fill="white" stroke="#666666" points="958,-320.6 830,-320.6 830,-301.6 958,-301.6 958,-320.6"/>
<text text-anchor="middle" x="894" y="-308.6" font-family="Helvetica,sans-Serif" font-size="10.00">GetTimeFromAckPayload</text>
</a>
</g>
</g>
<!-- Node54&#45;&gt;Node96 -->
<g id="edge71" class="edge">
<title>Node54&#45;&gt;Node96</title>
<path fill="none" stroke="#63b8ff" d="M776.61,-284.01C795.86,-288.49 818.81,-293.84 839.23,-298.59"/>
<polygon fill="#63b8ff" stroke="#63b8ff" points="838.27,-301.96 848.8,-300.81 839.85,-295.14 838.27,-301.96"/>
</g>
<!-- Node97 -->
<g id="node48" class="node">
<title>Node97</title>
<g id="a_node48"><a xlink:href="radio_8h.html#a62ec0168b1eea5f5c14f663d9217574d" target="_top" xlink:title=" ">
<polygon fill="#fff0f0" stroke="red" points="944.5,-283.6 843.5,-283.6 843.5,-264.6 944.5,-264.6 944.5,-283.6"/>
<text text-anchor="middle" x="894" y="-271.6" font-family="Helvetica,sans-Serif" font-size="10.00">HopToNextChannel</text>
</a>
</g>
</g>
<!-- Node54&#45;&gt;Node97 -->
<g id="edge72" class="edge">
<title>Node54&#45;&gt;Node97</title>
<path fill="none" stroke="#63b8ff" d="M780.42,-274.1C796.58,-274.1 814.97,-274.1 832.13,-274.1"/>
<polygon fill="#63b8ff" stroke="#63b8ff" points="831.68,-277.6 841.68,-274.1 831.68,-270.6 831.68,-277.6"/>
</g>
<!-- Node99 -->
<g id="node49" class="node">
<title>Node99</title>
<g id="a_node49"><a xlink:href="TransmitterCode_2src_2main_8cpp.html#a7a48851f0d38e4a0dd727a30d9515cf1" target="_top" xlink:title=" ">
<polygon fill="white" stroke="#666666" points="931.5,-246.6 856.5,-246.6 856.5,-227.6 931.5,-227.6 931.5,-246.6"/>
<text text-anchor="middle" x="894" y="-234.6" font-family="Helvetica,sans-Serif" font-size="10.00">ReadTheRTC</text>
</a>
</g>
</g>
<!-- Node54&#45;&gt;Node99 -->
<g id="edge73" class="edge">
<title>Node54&#45;&gt;Node99</title>
<path fill="none" stroke="#63b8ff" d="M776.61,-264.18C797.76,-259.26 823.39,-253.3 845.2,-248.22"/>
<polygon fill="#63b8ff" stroke="#63b8ff" points="845.8,-251.68 854.75,-246 844.21,-244.86 845.8,-251.68"/>
</g>
<!-- Node100 -->
<g id="node50" class="node">
<title>Node100</title>
<g id="a_node50"><a xlink:href="TransmitterCode_2src_2main_8cpp.html#abb1ea95b6b3f033883aa87682d3240ab" target="_top" xlink:title=" ">
<polygon fill="#fff0f0" stroke="red" points="956,-209.6 832,-209.6 832,-190.6 956,-190.6 956,-209.6"/>
<text text-anchor="middle" x="894" y="-197.6" font-family="Helvetica,sans-Serif" font-size="10.00">SynchRTCwithGPSTime</text>
</a>
</g>
</g>
<!-- Node54&#45;&gt;Node100 -->
<g id="edge74" class="edge">
<title>Node54&#45;&gt;Node100</title>
<path fill="none" stroke="#63b8ff" d="M748.36,-264.17C766.63,-251.92 799.47,-231.12 830,-218.1 833.78,-216.49 837.75,-214.97 841.77,-213.56"/>
<polygon fill="#63b8ff" stroke="#63b8ff" points="842.63,-216.96 851.05,-210.52 840.45,-210.31 842.63,-216.96"/>
</g>
<!-- Node55&#45;&gt;Node56 -->
<g id="edge62" class="edge">
<title>Node55&#45;&gt;Node56</title>
<path fill="none" stroke="#63b8ff" d="M926.71,-86.1C945.15,-86.1 969.06,-86.1 991.27,-86.1"/>
<polygon fill="#63b8ff" stroke="#63b8ff" points="991.17,-89.6 1001.17,-86.1 991.17,-82.6 991.17,-89.6"/>
</g>
<!-- Node58&#45;&gt;Node4 -->
<g id="edge66" class="edge">
<title>Node58&#45;&gt;Node4</title>
<path fill="none" stroke="#63b8ff" d="M834.4,-425.52C725.19,-430.52 486.16,-452.7 315,-550.1 287.87,-565.54 264.72,-593.8 251.2,-612.76"/>
<polygon fill="#63b8ff" stroke="#63b8ff" points="248.35,-610.73 245.58,-620.96 254.12,-614.7 248.35,-610.73"/>
</g>
<!-- Node93&#45;&gt;Node16 -->
<g id="edge68" class="edge">
<title>Node93&#45;&gt;Node16</title>
<path fill="none" stroke="#63b8ff" d="M1089.63,-406.04C1099.89,-410.37 1110.73,-416.29 1119,-424.1 1158.8,-461.68 1182.65,-523.51 1192.97,-555.5"/>
<polygon fill="#63b8ff" stroke="#63b8ff" points="1189.52,-556.21 1195.82,-564.74 1196.21,-554.15 1189.52,-556.21"/>
</g>
<!-- Node95&#45;&gt;Node56 -->
<g id="edge70" class="edge">
<title>Node95&#45;&gt;Node56</title>
<path fill="none" stroke="#63b8ff" d="M937.59,-58.92C957.02,-63.4 980.27,-68.76 1000.96,-73.53"/>
<polygon fill="#63b8ff" stroke="#63b8ff" points="1000.15,-76.93 1010.68,-75.77 1001.72,-70.11 1000.15,-76.93"/>
</g>
</g>
</svg>
