<?xml version="1.0" encoding="UTF-8" standalone="no"?>
<!DOCTYPE svg PUBLIC "-//W3C//DTD SVG 1.1//EN"
 "http://www.w3.org/Graphics/SVG/1.1/DTD/svg11.dtd">
<!-- Generated by graphviz version 7.0.5 (20221223.1930)
 -->
<!-- Title: SoundBank Pages: 1 -->
<svg width="552pt" height="101pt"
 viewBox="0.00 0.00 552.00 101.00" xmlns="http://www.w3.org/2000/svg" xmlns:xlink="http://www.w3.org/1999/xlink">
<g id="graph0" class="graph" transform="scale(1 1) rotate(0) translate(4 97)">
<title>SoundBank</title>
<!-- Node1 -->
<g id="node1" class="node">
<title>Node1</title>
<g id="a_node1"><a xlink:title=" ">
<polygon fill="#999999" stroke="#666666" points="67,-37 0,-37 0,-18 67,-18 67,-37"/>
<text text-anchor="middle" x="33.5" y="-25" font-family="Helvetica,sans-Serif" font-size="10.00">SoundBank</text>
</a>
</g>
</g>
<!-- Node2 -->
<g id="node2" class="node">
<title>Node2</title>
<g id="a_node2"><a xlink:href="TransmitterCode_2src_2main_8cpp.html#aa490b4664b0a4498d53b30b82287d5df" target="_top" xlink:title=" ">
<polygon fill="white" stroke="#666666" points="183,-56 120,-56 120,-37 183,-37 183,-56"/>
<text text-anchor="middle" x="151.5" y="-44" font-family="Helvetica,sans-Serif" font-size="10.00">PlaySound</text>
</a>
</g>
</g>
<!-- Node1&#45;&gt;Node2 -->
<g id="edge1" class="edge">
<title>Node1&#45;&gt;Node2</title>
<path fill="none" stroke="#63b8ff" d="M67.43,-32.89C80.3,-35 95.22,-37.45 108.83,-39.67"/>
<polygon fill="#63b8ff" stroke="#63b8ff" points="107.95,-43.08 118.38,-41.24 109.08,-36.17 107.95,-43.08"/>
</g>
<!-- Node9 -->
<g id="node9" class="node">
<title>Node9</title>
<g id="a_node9"><a xlink:href="TransmitterCode_2src_2main_8cpp.html#a49da3478d89a22069e29c7f00cb46a5f" target="_top" xlink:title=" ">
<polygon fill="white" stroke="#666666" points="200,-19 103,-19 103,0 200,0 200,-19"/>
<text text-anchor="middle" x="151.5" y="-7" font-family="Helvetica,sans-Serif" font-size="10.00">RestoreBrightness</text>
</a>
</g>
</g>
<!-- Node1&#45;&gt;Node9 -->
<g id="edge8" class="edge">
<title>Node1&#45;&gt;Node9</title>
<path fill="none" stroke="#63b8ff" d="M67.43,-22.39C74.98,-21.22 83.24,-19.94 91.52,-18.65"/>
<polygon fill="#63b8ff" stroke="#63b8ff" points="91.92,-22.13 101.27,-17.14 90.85,-15.21 91.92,-22.13"/>
</g>
<!-- Node3 -->
<g id="node3" class="node">
<title>Node3</title>
<g id="a_node3"><a xlink:href="TransmitterCode_2src_2main_8cpp.html#aecac2f0c289f02ef3c92b85be82eacac" target="_top" xlink:title=" ">
<polygon fill="white" stroke="#666666" points="319,-56 236,-56 236,-37 319,-37 319,-56"/>
<text text-anchor="middle" x="277.5" y="-44" font-family="Helvetica,sans-Serif" font-size="10.00">SendCommand</text>
</a>
</g>
</g>
<!-- Node2&#45;&gt;Node3 -->
<g id="edge2" class="edge">
<title>Node2&#45;&gt;Node3</title>
<path fill="none" stroke="#63b8ff" d="M183.47,-46.5C195.8,-46.5 210.33,-46.5 224.21,-46.5"/>
<polygon fill="#63b8ff" stroke="#63b8ff" points="224.12,-50 234.12,-46.5 224.12,-43 224.12,-50"/>
</g>
<!-- Node8 -->
<g id="node8" class="node">
<title>Node8</title>
<g id="a_node8"><a xlink:href="TransmitterCode_2src_2main_8cpp.html#a590a9174319918d7e3d7baca323fcf26" target="_top" xlink:title=" ">
<polygon fill="white" stroke="#666666" points="292,-19 263,-19 263,0 292,0 292,-19"/>
<text text-anchor="middle" x="277.5" y="-7" font-family="Helvetica,sans-Serif" font-size="10.00">Str</text>
</a>
</g>
</g>
<!-- Node2&#45;&gt;Node8 -->
<g id="edge7" class="edge">
<title>Node2&#45;&gt;Node8</title>
<path fill="none" stroke="#63b8ff" d="M183.47,-37.26C204.6,-30.95 232.21,-22.72 251.84,-16.86"/>
<polygon fill="#63b8ff" stroke="#63b8ff" points="252.61,-20.28 261.19,-14.07 250.61,-13.57 252.61,-20.28"/>
</g>
<!-- Node4 -->
<g id="node4" class="node">
<title>Node4</title>
<g id="a_node4"><a xlink:href="TransmitterCode_2src_2main_8cpp.html#a3b1d8aa403e2724e55c71da3d9d13e7e" target="_top" xlink:title=" ">
<polygon fill="white" stroke="#666666" points="435,-93 358,-93 358,-74 435,-74 435,-93"/>
<text text-anchor="middle" x="396.5" y="-81" font-family="Helvetica,sans-Serif" font-size="10.00">DelayWithDog</text>
</a>
</g>
</g>
<!-- Node3&#45;&gt;Node4 -->
<g id="edge3" class="edge">
<title>Node3&#45;&gt;Node4</title>
<path fill="none" stroke="#63b8ff" d="M309.85,-56.42C323.23,-60.65 339.04,-65.65 353.41,-70.19"/>
<polygon fill="#63b8ff" stroke="#63b8ff" points="352.03,-73.42 362.62,-73.1 354.14,-66.75 352.03,-73.42"/>
</g>
<!-- Node6 -->
<g id="node6" class="node">
<title>Node6</title>
<g id="a_node6"><a xlink:href="TransmitterCode_2src_2main_8cpp.html#a43937dd3d9c795271fd9c3eb3c6b6410" target="_top" xlink:title=" ">
<polygon fill="white" stroke="#666666" points="438,-56 355,-56 355,-37 438,-37 438,-56"/>
<text text-anchor="middle" x="396.5" y="-44" font-family="Helvetica,sans-Serif" font-size="10.00">GetReturnCode</text>
</a>
</g>
</g>
<!-- Node3&#45;&gt;Node6 -->
<g id="edge5" class="edge">
<title>Node3&#45;&gt;Node6</title>
<path fill="none" stroke="#63b8ff" d="M319.42,-46.5C327.21,-46.5 335.47,-46.5 343.55,-46.5"/>
<polygon fill="#63b8ff" stroke="#63b8ff" points="343.29,-50 353.29,-46.5 343.29,-43 343.29,-50"/>
</g>
<!-- Node7 -->
<g id="node7" class="node">
<title>Node7</title>
<g id="a_node7"><a xlink:href="TransmitterCode_2src_2main_8cpp.html#a5f109790a6fe0b972a502f3cac4ed1e7" target="_top" xlink:title=" ">
<polygon fill="white" stroke="#666666" points="420.5,-19 372.5,-19 372.5,0 420.5,0 420.5,-19"/>
<text text-anchor="middle" x="396.5" y="-7" font-family="Helvetica,sans-Serif" font-size="10.00">InStrng</text>
</a>
</g>
</g>
<!-- Node3&#45;&gt;Node7 -->
<g id="edge6" class="edge">
<title>Node3&#45;&gt;Node7</title>
<path fill="none" stroke="#63b8ff" d="M309.85,-36.58C325.8,-31.54 345.21,-25.4 361.52,-20.25"/>
<polygon fill="#63b8ff" stroke="#63b8ff" points="362.31,-23.67 370.79,-17.32 360.2,-16.99 362.31,-23.67"/>
</g>
<!-- Node5 -->
<g id="node5" class="node">
<title>Node5</title>
<g id="a_node5"><a xlink:href="ReceiverCode_2src_2main_8cpp.html#ada95a00a341e4a80176eda743a94ab2e" target="_top" xlink:title=" ">
<polygon fill="white" stroke="#666666" points="544,-93 474,-93 474,-74 544,-74 544,-93"/>
<text text-anchor="middle" x="509" y="-81" font-family="Helvetica,sans-Serif" font-size="10.00">KickTheDog</text>
</a>
</g>
</g>
<!-- Node4&#45;&gt;Node5 -->
<g id="edge4" class="edge">
<title>Node4&#45;&gt;Node5</title>
<path fill="none" stroke="#63b8ff" d="M435.22,-83.5C444.01,-83.5 453.46,-83.5 462.55,-83.5"/>
<polygon fill="#63b8ff" stroke="#63b8ff" points="462.28,-87 472.28,-83.5 462.28,-80 462.28,-87"/>
</g>
<!-- Node9&#45;&gt;Node3 -->
<g id="edge9" class="edge">
<title>Node9&#45;&gt;Node3</title>
<path fill="none" stroke="#63b8ff" d="M185.73,-19.42C200.05,-23.69 216.99,-28.74 232.34,-33.32"/>
<polygon fill="#63b8ff" stroke="#63b8ff" points="231.14,-36.62 241.73,-36.12 233.15,-29.91 231.14,-36.62"/>
</g>
<!-- Node9&#45;&gt;Node8 -->
<g id="edge10" class="edge">
<title>Node9&#45;&gt;Node8</title>
<path fill="none" stroke="#63b8ff" d="M200.44,-9.5C217.91,-9.5 236.94,-9.5 251.6,-9.5"/>
<polygon fill="#63b8ff" stroke="#63b8ff" points="251.24,-13 261.24,-9.5 251.24,-6 251.24,-13"/>
</g>
</g>
</svg>
