<?xml version="1.0" encoding="UTF-8" standalone="no"?>
<!DOCTYPE svg PUBLIC "-//W3C//DTD SVG 1.1//EN"
 "http://www.w3.org/Graphics/SVG/1.1/DTD/svg11.dtd">
<!-- Generated by graphviz version 7.0.5 (20221223.1930)
 -->
<!-- Title: OptionView2Start Pages: 1 -->
<svg width="1762pt" height="776pt"
 viewBox="0.00 0.00 1762.00 776.06" xmlns="http://www.w3.org/2000/svg" xmlns:xlink="http://www.w3.org/1999/xlink">
<g id="graph0" class="graph" transform="scale(1 1) rotate(0) translate(4 772.06)">
<title>OptionView2Start</title>
<!-- Node1 -->
<g id="node1" class="node">
<title>Node1</title>
<g id="a_node1"><a xlink:title=" ">
<polygon fill="#999999" stroke="#666666" points="93,-235 0,-235 0,-216 93,-216 93,-235"/>
<text text-anchor="middle" x="46.5" y="-223" font-family="Helvetica,sans-Serif" font-size="10.00">OptionView2Start</text>
</a>
</g>
</g>
<!-- Node2 -->
<g id="node2" class="node">
<title>Node2</title>
<g id="a_node2"><a xlink:href="TransmitterCode_2src_2main_8cpp.html#a01c7a0b0de94ec72fe070ea9f90dc2ec" target="_top" xlink:title=" ">
<polygon fill="white" stroke="#666666" points="304,-272 232,-272 232,-253 304,-253 304,-272"/>
<text text-anchor="middle" x="268" y="-260" font-family="Helvetica,sans-Serif" font-size="10.00">CheckRange</text>
</a>
</g>
</g>
<!-- Node1&#45;&gt;Node2 -->
<g id="edge1" class="edge">
<title>Node1&#45;&gt;Node2</title>
<path fill="none" stroke="#63b8ff" d="M86.72,-235.47C100.07,-238.65 115.13,-241.99 129,-244.5 159.24,-249.98 193.49,-254.46 220.3,-257.58"/>
<polygon fill="#63b8ff" stroke="#63b8ff" points="219.85,-261.05 230.18,-258.7 220.64,-254.09 219.85,-261.05"/>
</g>
<!-- Node3 -->
<g id="node3" class="node">
<title>Node3</title>
<g id="a_node3"><a xlink:href="Utilities_8h.html#a3b1d8aa403e2724e55c71da3d9d13e7e" target="_top" xlink:title=" ">
<polygon fill="white" stroke="#666666" points="601,-292 524,-292 524,-273 601,-273 601,-292"/>
<text text-anchor="middle" x="562.5" y="-280" font-family="Helvetica,sans-Serif" font-size="10.00">DelayWithDog</text>
</a>
</g>
</g>
<!-- Node1&#45;&gt;Node3 -->
<g id="edge2" class="edge">
<title>Node1&#45;&gt;Node3</title>
<path fill="none" stroke="#63b8ff" d="M63.9,-235.44C99.51,-256.04 187.15,-301.5 267,-301.5 267,-301.5 267,-301.5 367.5,-301.5 416.98,-301.5 473.23,-295.3 512.37,-289.99"/>
<polygon fill="#63b8ff" stroke="#63b8ff" points="512.77,-293.46 522.19,-288.62 511.8,-286.53 512.77,-293.46"/>
</g>
<!-- Node39 -->
<g id="node23" class="node">
<title>Node39</title>
<g id="a_node23"><a xlink:href="Nextion_8h.html#aecac2f0c289f02ef3c92b85be82eacac" target="_top" xlink:title=" ">
<polygon fill="white" stroke="#666666" points="1178,-392 1095,-392 1095,-373 1178,-373 1178,-392"/>
<text text-anchor="middle" x="1136.5" y="-380" font-family="Helvetica,sans-Serif" font-size="10.00">SendCommand</text>
</a>
</g>
</g>
<!-- Node1&#45;&gt;Node39 -->
<g id="edge71" class="edge">
<title>Node1&#45;&gt;Node39</title>
<path fill="none" stroke="#63b8ff" d="M50.12,-235.43C63.64,-284.14 130.17,-495.5 267,-495.5 267,-495.5 267,-495.5 673,-495.5 768.49,-495.5 793.7,-496.83 887,-476.5 959.79,-460.64 975.51,-447.38 1045,-420.5 1064.16,-413.09 1085.35,-404.23 1102.41,-396.93"/>
<polygon fill="#63b8ff" stroke="#63b8ff" points="1103.77,-400.15 1111.57,-392.98 1101,-393.72 1103.77,-400.15"/>
</g>
<!-- Node169 -->
<g id="node42" class="node">
<title>Node169</title>
<g id="a_node42"><a xlink:href="Nextion_8h.html#a6e4fac4e296c09388b8b56353402d67a" target="_top" xlink:title=" ">
<polygon fill="white" stroke="#666666" points="296.5,-235 239.5,-235 239.5,-216 296.5,-216 296.5,-235"/>
<text text-anchor="middle" x="268" y="-223" font-family="Helvetica,sans-Serif" font-size="10.00">GetValue</text>
</a>
</g>
</g>
<!-- Node1&#45;&gt;Node169 -->
<g id="edge56" class="edge">
<title>Node1&#45;&gt;Node169</title>
<path fill="none" stroke="#63b8ff" d="M84.54,-215.54C98.38,-212.29 114.31,-209.1 129,-207.5 158.6,-204.27 166.45,-203.81 196,-207.5 206.66,-208.83 218.01,-211.24 228.44,-213.88"/>
<polygon fill="#63b8ff" stroke="#63b8ff" points="227.29,-217.19 237.85,-216.39 229.1,-210.43 227.29,-217.19"/>
</g>
<!-- Node117 -->
<g id="node46" class="node">
<title>Node117</title>
<g id="a_node46"><a xlink:href="SDcard_8h.html#a92c5dada5e5ef70261391557464f2d19" target="_top" xlink:title=" ">
<polygon fill="white" stroke="#666666" points="1187,-58 1086,-58 1086,-39 1187,-39 1187,-58"/>
<text text-anchor="middle" x="1136.5" y="-46" font-family="Helvetica,sans-Serif" font-size="10.00">SaveAllParameters</text>
</a>
</g>
</g>
<!-- Node1&#45;&gt;Node117 -->
<g id="edge62" class="edge">
<title>Node1&#45;&gt;Node117</title>
<path fill="none" stroke="#63b8ff" d="M53.05,-215.68C74.92,-178.36 159.31,-47.5 267,-47.5 267,-47.5 267,-47.5 816,-47.5 906,-47.5 1010.27,-47.9 1074.56,-48.2"/>
<polygon fill="#63b8ff" stroke="#63b8ff" points="1074.16,-51.69 1084.18,-48.24 1074.2,-44.69 1074.16,-51.69"/>
</g>
<!-- Node72 -->
<g id="node48" class="node">
<title>Node72</title>
<g id="a_node48"><a xlink:href="Nextion_8h.html#a1e20efc1e419b252b50d36f9924503fc" target="_top" xlink:title=" ">
<polygon fill="white" stroke="#666666" points="1016,-169 952,-169 952,-150 1016,-150 1016,-169"/>
<text text-anchor="middle" x="984" y="-157" font-family="Helvetica,sans-Serif" font-size="10.00">SendValue</text>
</a>
</g>
</g>
<!-- Node1&#45;&gt;Node72 -->
<g id="edge72" class="edge">
<title>Node1&#45;&gt;Node72</title>
<path fill="none" stroke="#63b8ff" d="M58.99,-215.72C90.19,-190.19 180.02,-123.5 267,-123.5 267,-123.5 267,-123.5 673,-123.5 769.26,-123.5 881.21,-140.84 940.72,-151.45"/>
<polygon fill="#63b8ff" stroke="#63b8ff" points="939.94,-154.87 950.41,-153.2 941.19,-147.98 939.94,-154.87"/>
</g>
<!-- Node235 -->
<g id="node50" class="node">
<title>Node235</title>
<g id="a_node50"><a xlink:href="TransmitterCode_2src_2main_8cpp.html#a8c8edf1ff8b98d9cd27b45c4e20f22d9" target="_top" xlink:title=" ">
<polygon fill="white" stroke="#666666" points="196,-235 129,-235 129,-216 196,-216 196,-235"/>
<text text-anchor="middle" x="162.5" y="-223" font-family="Helvetica,sans-Serif" font-size="10.00">UpdateLED</text>
</a>
</g>
</g>
<!-- Node1&#45;&gt;Node235 -->
<g id="edge76" class="edge">
<title>Node1&#45;&gt;Node235</title>
<path fill="none" stroke="#63b8ff" d="M93.21,-225.5C101.2,-225.5 109.5,-225.5 117.45,-225.5"/>
<polygon fill="#63b8ff" stroke="#63b8ff" points="117.24,-229 127.24,-225.5 117.24,-222 117.24,-229"/>
</g>
<!-- Node4 -->
<g id="node4" class="node">
<title>Node4</title>
<g id="a_node4"><a xlink:href="Utilities_8h.html#ada95a00a341e4a80176eda743a94ab2e" target="_top" xlink:title=" ">
<polygon fill="white" stroke="#666666" points="707,-292 637,-292 637,-273 707,-273 707,-292"/>
<text text-anchor="middle" x="672" y="-280" font-family="Helvetica,sans-Serif" font-size="10.00">KickTheDog</text>
</a>
</g>
</g>
<!-- Node3&#45;&gt;Node4 -->
<g id="edge3" class="edge">
<title>Node3&#45;&gt;Node4</title>
<path fill="none" stroke="#63b8ff" d="M601.4,-282.5C609.12,-282.5 617.31,-282.5 625.27,-282.5"/>
<polygon fill="#63b8ff" stroke="#63b8ff" points="625.16,-286 635.16,-282.5 625.16,-279 625.16,-286"/>
</g>
<!-- Node5 -->
<g id="node5" class="node">
<title>Node5</title>
<g id="a_node5"><a xlink:href="transceiver_8h.html#a049bfb836e7aa4a3a48a1a4bd225fafc" target="_top" xlink:title=" ">
<polygon fill="white" stroke="#666666" points="701.5,-449 642.5,-449 642.5,-430 701.5,-430 701.5,-449"/>
<text text-anchor="middle" x="672" y="-437" font-family="Helvetica,sans-Serif" font-size="10.00">SendData</text>
</a>
</g>
</g>
<!-- Node3&#45;&gt;Node5 -->
<g id="edge4" class="edge">
<title>Node3&#45;&gt;Node5</title>
<path fill="none" stroke="#63b8ff" d="M570.22,-292.32C587.72,-317.87 634.9,-386.77 657.96,-420.45"/>
<polygon fill="#63b8ff" stroke="#63b8ff" points="654.89,-422.16 663.42,-428.43 660.66,-418.21 654.89,-422.16"/>
</g>
<!-- Node6 -->
<g id="node6" class="node">
<title>Node6</title>
<g id="a_node6"><a xlink:href="transceiver_8h.html#a1ddd5e8d5bd649dd98ce3710fbff651b" target="_top" xlink:title=" ">
<polygon fill="white" stroke="#666666" points="845.5,-430 784.5,-430 784.5,-411 845.5,-411 845.5,-430"/>
<text text-anchor="middle" x="815" y="-418" font-family="Helvetica,sans-Serif" font-size="10.00">Compress</text>
</a>
</g>
</g>
<!-- Node5&#45;&gt;Node6 -->
<g id="edge5" class="edge">
<title>Node5&#45;&gt;Node6</title>
<path fill="none" stroke="#63b8ff" d="M701.87,-435.61C722.32,-432.85 750.04,-429.12 772.81,-426.05"/>
<polygon fill="#63b8ff" stroke="#63b8ff" points="773.25,-429.52 782.69,-424.72 772.32,-422.59 773.25,-429.52"/>
</g>
<!-- Node7 -->
<g id="node7" class="node">
<title>Node7</title>
<g id="a_node7"><a xlink:href="transceiver_8h.html#a4144c213e5448a7e02d4172881f08219" target="_top" xlink:title=" ">
<polygon fill="white" stroke="#666666" points="887,-393 743,-393 743,-374 887,-374 887,-393"/>
<text text-anchor="middle" x="815" y="-381" font-family="Helvetica,sans-Serif" font-size="10.00">EncodeTheChangedChannels</text>
</a>
</g>
</g>
<!-- Node5&#45;&gt;Node7 -->
<g id="edge6" class="edge">
<title>Node5&#45;&gt;Node7</title>
<path fill="none" stroke="#63b8ff" d="M689.19,-429.6C703.07,-421.44 723.81,-410.03 743,-402.5 748.36,-400.4 754.03,-398.45 759.74,-396.66"/>
<polygon fill="#63b8ff" stroke="#63b8ff" points="760.64,-400.04 769.24,-393.85 758.66,-393.33 760.64,-400.04"/>
</g>
<!-- Node8 -->
<g id="node8" class="node">
<title>Node8</title>
<g id="a_node8"><a xlink:href="transceiver_8h.html#a5fbd3c8613a4163425c94965704ce5f8" target="_top" xlink:title=" ">
<polygon fill="white" stroke="#666666" points="852,-225 778,-225 778,-206 852,-206 852,-225"/>
<text text-anchor="middle" x="815" y="-213" font-family="Helvetica,sans-Serif" font-size="10.00">FailedPacket</text>
</a>
</g>
</g>
<!-- Node5&#45;&gt;Node8 -->
<g id="edge7" class="edge">
<title>Node5&#45;&gt;Node8</title>
<path fill="none" stroke="#63b8ff" d="M676.26,-429.8C684.85,-405.05 709.7,-338.1 743,-289.5 757.72,-268.01 778.8,-246.92 794.17,-232.79"/>
<polygon fill="#63b8ff" stroke="#63b8ff" points="796.25,-235.62 801.34,-226.33 791.56,-230.42 796.25,-235.62"/>
</g>
<!-- Node50 -->
<g id="node27" class="node">
<title>Node50</title>
<g id="a_node27"><a xlink:href="transceiver_8h.html#a07c27b4e208198453c70876517926052" target="_top" xlink:title=" ">
<polygon fill="white" stroke="#666666" points="846,-768 784,-768 784,-749 846,-749 846,-768"/>
<text text-anchor="middle" x="815" y="-756" font-family="Helvetica,sans-Serif" font-size="10.00">FlushFifos</text>
</a>
</g>
</g>
<!-- Node5&#45;&gt;Node50 -->
<g id="edge33" class="edge">
<title>Node5&#45;&gt;Node50</title>
<path fill="none" stroke="#63b8ff" d="M673.94,-449.46C678.6,-496.66 700.65,-697.3 743,-740.5 750.8,-748.45 761.57,-753.07 772.37,-755.7"/>
<polygon fill="#63b8ff" stroke="#63b8ff" points="771.55,-759.11 782.02,-757.51 772.83,-752.23 771.55,-759.11"/>
</g>
<!-- Node47 -->
<g id="node28" class="node">
<title>Node47</title>
<g id="a_node28"><a xlink:href="common_8h.html#a6e2d4126d864c50e7c23c988c2bfdd1a" target="_top" xlink:title=" ">
<polygon fill="white" stroke="#666666" points="1160,-636 1113,-636 1113,-617 1160,-617 1160,-636"/>
<text text-anchor="middle" x="1136.5" y="-624" font-family="Helvetica,sans-Serif" font-size="10.00">Radio1</text>
</a>
</g>
</g>
<!-- Node5&#45;&gt;Node47 -->
<g id="edge35" class="edge">
<title>Node5&#45;&gt;Node47</title>
<path fill="none" stroke="#63b8ff" d="M674.71,-449.2C679.91,-475.73 697.98,-550.18 743,-589.5 845.82,-679.3 909.22,-659.6 1045,-645.5 1063.94,-643.53 1084.76,-639.31 1101.65,-635.34"/>
<polygon fill="#63b8ff" stroke="#63b8ff" points="1102.29,-638.79 1111.17,-633.03 1100.63,-631.99 1102.29,-638.79"/>
</g>
<!-- Node51 -->
<g id="node29" class="node">
<title>Node51</title>
<g id="a_node29"><a xlink:href="transceiver_8h.html#a188ad446d11b2db284476c093de58b2f" target="_top" xlink:title=" ">
<polygon fill="white" stroke="#666666" points="874.5,-731 755.5,-731 755.5,-712 874.5,-712 874.5,-731"/>
<text text-anchor="middle" x="815" y="-719" font-family="Helvetica,sans-Serif" font-size="10.00">SendExtraParamemters</text>
</a>
</g>
</g>
<!-- Node5&#45;&gt;Node51 -->
<g id="edge36" class="edge">
<title>Node5&#45;&gt;Node51</title>
<path fill="none" stroke="#63b8ff" d="M672.6,-449.47C671.64,-487.29 673.36,-623.47 743,-697.5 746.26,-700.97 750.04,-703.93 754.12,-706.47"/>
<polygon fill="#63b8ff" stroke="#63b8ff" points="752.25,-709.44 762.74,-710.95 755.48,-703.23 752.25,-709.44"/>
</g>
<!-- Node54 -->
<g id="node31" class="node">
<title>Node54</title>
<g id="a_node31"><a xlink:href="BuddyWireless_8h.html#a41c327908c92572d0d3eebbb19160d86" target="_top" xlink:title=" ">
<polygon fill="white" stroke="#666666" points="866,-580 764,-580 764,-561 866,-561 866,-580"/>
<text text-anchor="middle" x="815" y="-568" font-family="Helvetica,sans-Serif" font-size="10.00">SendSpecialPacket</text>
</a>
</g>
</g>
<!-- Node5&#45;&gt;Node54 -->
<g id="edge38" class="edge">
<title>Node5&#45;&gt;Node54</title>
<path fill="none" stroke="#63b8ff" d="M683.6,-449.35C707.28,-471.35 764.76,-524.76 794.88,-552.74"/>
<polygon fill="#63b8ff" stroke="#63b8ff" points="792.46,-555.27 802.17,-559.51 797.23,-550.14 792.46,-555.27"/>
</g>
<!-- Node59 -->
<g id="node35" class="node">
<title>Node59</title>
<g id="a_node35"><a xlink:href="BuddyPPM_8h.html#a784a1eca0361b3991bca899167cc1cdb" target="_top" xlink:title=" ">
<polygon fill="white" stroke="#666666" points="852.5,-467 777.5,-467 777.5,-448 852.5,-448 852.5,-467"/>
<text text-anchor="middle" x="815" y="-455" font-family="Helvetica,sans-Serif" font-size="10.00">SendViaPPM</text>
</a>
</g>
</g>
<!-- Node5&#45;&gt;Node59 -->
<g id="edge46" class="edge">
<title>Node5&#45;&gt;Node59</title>
<path fill="none" stroke="#63b8ff" d="M701.87,-443.19C720.31,-445.54 744.67,-448.65 765.97,-451.37"/>
<polygon fill="#63b8ff" stroke="#63b8ff" points="765.25,-454.8 775.61,-452.6 766.13,-447.86 765.25,-454.8"/>
</g>
<!-- Node60 -->
<g id="node36" class="node">
<title>Node60</title>
<g id="a_node36"><a xlink:href="transceiver_8h.html#a1c11bb6771548de7d96723045b922620" target="_top" xlink:title=" ">
<polygon fill="white" stroke="#666666" points="863,-317 767,-317 767,-298 863,-298 863,-317"/>
<text text-anchor="middle" x="815" y="-305" font-family="Helvetica,sans-Serif" font-size="10.00">SuccessfulPacket</text>
</a>
</g>
</g>
<!-- Node5&#45;&gt;Node60 -->
<g id="edge47" class="edge">
<title>Node5&#45;&gt;Node60</title>
<path fill="none" stroke="#63b8ff" d="M681.68,-429.54C694.55,-414.95 719.69,-387.18 743,-365.5 758.63,-350.97 777.36,-335.75 791.66,-324.55"/>
<polygon fill="#63b8ff" stroke="#63b8ff" points="793.8,-327.32 799.56,-318.42 789.51,-321.79 793.8,-327.32"/>
</g>
<!-- Node9 -->
<g id="node9" class="node">
<title>Node9</title>
<g id="a_node9"><a xlink:href="transceiver_8h.html#afc091b5942e21a03f6dc8635d5e519ba" target="_top" xlink:title=" ">
<polygon fill="white" stroke="#666666" points="1045,-243 923,-243 923,-224 1045,-224 1045,-243"/>
<text text-anchor="middle" x="984" y="-231" font-family="Helvetica,sans-Serif" font-size="10.00">RecordsPacketSuccess</text>
</a>
</g>
</g>
<!-- Node8&#45;&gt;Node9 -->
<g id="edge8" class="edge">
<title>Node8&#45;&gt;Node9</title>
<path fill="none" stroke="#63b8ff" d="M852.24,-219.41C869.56,-221.27 890.93,-223.58 911.33,-225.78"/>
<polygon fill="#63b8ff" stroke="#63b8ff" points="910.71,-229.23 921.03,-226.82 911.46,-222.27 910.71,-229.23"/>
</g>
<!-- Node10 -->
<g id="node10" class="node">
<title>Node10</title>
<g id="a_node10"><a xlink:href="TransmitterCode_2src_2main_8cpp.html#a7d34cec6e8edc20c8b50424e15dcc7c7" target="_top" xlink:title=" ">
<polygon fill="#fff0f0" stroke="red" points="1015.5,-132 952.5,-132 952.5,-113 1015.5,-113 1015.5,-132"/>
<text text-anchor="middle" x="984" y="-120" font-family="Helvetica,sans-Serif" font-size="10.00">RedLedOn</text>
</a>
</g>
</g>
<!-- Node8&#45;&gt;Node10 -->
<g id="edge9" class="edge">
<title>Node8&#45;&gt;Node10</title>
<path fill="none" stroke="#63b8ff" d="M827.41,-205.62C846.17,-189.82 885.24,-158.81 923,-140.5 928.83,-137.67 935.2,-135.19 941.53,-133.04"/>
<polygon fill="#63b8ff" stroke="#63b8ff" points="942.13,-136.52 950.63,-130.19 940.04,-129.84 942.13,-136.52"/>
</g>
<!-- Node43 -->
<g id="node26" class="node">
<title>Node43</title>
<g id="a_node26"><a xlink:href="transceiver_8h.html#ad0236abcfc887ad708d9504c4ab2a7c3" target="_top" xlink:title=" ">
<polygon fill="#fff0f0" stroke="red" points="1028,-206 940,-206 940,-187 1028,-187 1028,-206"/>
<text text-anchor="middle" x="984" y="-194" font-family="Helvetica,sans-Serif" font-size="10.00">TryToReconnect</text>
</a>
</g>
</g>
<!-- Node8&#45;&gt;Node43 -->
<g id="edge32" class="edge">
<title>Node8&#45;&gt;Node43</title>
<path fill="none" stroke="#63b8ff" d="M852.24,-211.38C874.53,-208.84 903.53,-205.54 928.55,-202.69"/>
<polygon fill="#63b8ff" stroke="#63b8ff" points="928.68,-206.2 938.22,-201.59 927.89,-199.25 928.68,-206.2"/>
</g>
<!-- Node11 -->
<g id="node11" class="node">
<title>Node11</title>
<g id="a_node11"><a xlink:href="TransmitterCode_2src_2main_8cpp.html#afeaea883a32e6ebe461d419fab1b9f59" target="_top" xlink:title=" ">
<polygon fill="white" stroke="#666666" points="1192,-132 1081,-132 1081,-113 1192,-113 1192,-132"/>
<text text-anchor="middle" x="1136.5" y="-120" font-family="Helvetica,sans-Serif" font-size="10.00">ClearMostParameters</text>
</a>
</g>
</g>
<!-- Node10&#45;&gt;Node11 -->
<g id="edge10" class="edge">
<title>Node10&#45;&gt;Node11</title>
<path fill="none" stroke="#63b8ff" d="M1015.82,-122.5C1031.27,-122.5 1050.62,-122.5 1069.23,-122.5"/>
<polygon fill="#63b8ff" stroke="#63b8ff" points="1069.16,-126 1079.16,-122.5 1069.16,-119 1069.16,-126"/>
</g>
<!-- Node12 -->
<g id="node12" class="node">
<title>Node12</title>
<g id="a_node12"><a xlink:href="Utilities_8h.html#a549a702bb9b539c6b3a4f20cce65adcc" target="_top" xlink:title=" ">
<polygon fill="white" stroke="#666666" points="1185.5,-95 1087.5,-95 1087.5,-76 1185.5,-76 1185.5,-95"/>
<text text-anchor="middle" x="1136.5" y="-83" font-family="Helvetica,sans-Serif" font-size="10.00">GetLEDBrightness</text>
</a>
</g>
</g>
<!-- Node10&#45;&gt;Node12 -->
<g id="edge11" class="edge">
<title>Node10&#45;&gt;Node12</title>
<path fill="none" stroke="#63b8ff" d="M1015.82,-114.92C1035.39,-110.11 1061.2,-103.77 1083.85,-98.2"/>
<polygon fill="#63b8ff" stroke="#63b8ff" points="1084.66,-101.6 1093.54,-95.82 1082.99,-94.81 1084.66,-101.6"/>
</g>
<!-- Node22 -->
<g id="node22" class="node">
<title>Node22</title>
<g id="a_node22"><a xlink:href="TransmitterCode_2src_2main_8cpp.html#a2d5ec5fd5ed62d5b7b071fabe2225405" target="_top" xlink:title=" ">
<polygon fill="#fff0f0" stroke="red" points="1184.5,-169 1088.5,-169 1088.5,-150 1184.5,-150 1184.5,-169"/>
<text text-anchor="middle" x="1136.5" y="-157" font-family="Helvetica,sans-Serif" font-size="10.00">LogDisConnection</text>
</a>
</g>
</g>
<!-- Node10&#45;&gt;Node22 -->
<g id="edge27" class="edge">
<title>Node10&#45;&gt;Node22</title>
<path fill="none" stroke="#63b8ff" d="M1015.82,-130.08C1035.39,-134.89 1061.2,-141.23 1083.85,-146.8"/>
<polygon fill="#63b8ff" stroke="#63b8ff" points="1082.99,-150.19 1093.54,-149.18 1084.66,-143.4 1082.99,-150.19"/>
</g>
<!-- Node10&#45;&gt;Node39 -->
<g id="edge28" class="edge">
<title>Node10&#45;&gt;Node39</title>
<path fill="none" stroke="#63b8ff" d="M1015.84,-126.13C1026.17,-128.7 1037.06,-133.07 1045,-140.5 1062.01,-156.42 1111.03,-305.92 1128.89,-361.68"/>
<polygon fill="#63b8ff" stroke="#63b8ff" points="1125.55,-362.71 1131.92,-371.18 1132.22,-360.58 1125.55,-362.71"/>
</g>
<!-- Node13 -->
<g id="node13" class="node">
<title>Node13</title>
<g id="a_node13"><a xlink:href="SDcard_8h.html#aaf3d3b6d086a958ac8ebf1bb771adcee" target="_top" xlink:title=" ">
<polygon fill="white" stroke="#666666" points="1367,-133 1228,-133 1228,-114 1367,-114 1367,-133"/>
<text text-anchor="middle" x="1297.5" y="-121" font-family="Helvetica,sans-Serif" font-size="10.00">SaveTransmitterParameters</text>
</a>
</g>
</g>
<!-- Node12&#45;&gt;Node13 -->
<g id="edge12" class="edge">
<title>Node12&#45;&gt;Node13</title>
<path fill="none" stroke="#63b8ff" d="M1179.28,-95.48C1199.01,-100.2 1222.78,-105.88 1243.74,-110.89"/>
<polygon fill="#63b8ff" stroke="#63b8ff" points="1242.72,-114.24 1253.26,-113.16 1244.34,-107.44 1242.72,-114.24"/>
</g>
<!-- Node14 -->
<g id="node14" class="node">
<title>Node14</title>
<g id="a_node14"><a xlink:href="SDcard_8h.html#a6922974b734cfe3a511e074a2d6ac33c" target="_top" xlink:title=" ">
<polygon fill="white" stroke="#666666" points="1496.5,-133 1407.5,-133 1407.5,-114 1496.5,-114 1496.5,-133"/>
<text text-anchor="middle" x="1452" y="-121" font-family="Helvetica,sans-Serif" font-size="10.00">CloseModelsFile</text>
</a>
</g>
</g>
<!-- Node13&#45;&gt;Node14 -->
<g id="edge13" class="edge">
<title>Node13&#45;&gt;Node14</title>
<path fill="none" stroke="#63b8ff" d="M1367.17,-123.5C1376.73,-123.5 1386.45,-123.5 1395.72,-123.5"/>
<polygon fill="#63b8ff" stroke="#63b8ff" points="1395.67,-127 1405.67,-123.5 1395.67,-120 1395.67,-127"/>
</g>
<!-- Node15 -->
<g id="node15" class="node">
<title>Node15</title>
<g id="a_node15"><a xlink:href="SDcard_8h.html#ae7618f38a148877bc5681be58cba8354" target="_top" xlink:title=" ">
<polygon fill="white" stroke="#666666" points="1495.5,-19 1408.5,-19 1408.5,0 1495.5,0 1495.5,-19"/>
<text text-anchor="middle" x="1452" y="-7" font-family="Helvetica,sans-Serif" font-size="10.00">OpenModelsFile</text>
</a>
</g>
</g>
<!-- Node13&#45;&gt;Node15 -->
<g id="edge14" class="edge">
<title>Node13&#45;&gt;Node15</title>
<path fill="none" stroke="#63b8ff" d="M1345.7,-113.51C1353.14,-110.88 1360.5,-107.6 1367,-103.5 1397.86,-84.03 1424.15,-50.05 1438.74,-28.72"/>
<polygon fill="#63b8ff" stroke="#63b8ff" points="1441.48,-30.91 1444.09,-20.65 1435.65,-27.05 1441.48,-30.91"/>
</g>
<!-- Node16 -->
<g id="node16" class="node">
<title>Node16</title>
<g id="a_node16"><a xlink:href="SDcard_8h.html#a9ec95181a743e446cdec2e0fbf569f2c" target="_top" xlink:title=" ">
<polygon fill="white" stroke="#666666" points="1501,-247 1403,-247 1403,-228 1501,-228 1501,-247"/>
<text text-anchor="middle" x="1452" y="-235" font-family="Helvetica,sans-Serif" font-size="10.00">SaveCheckSum32</text>
</a>
</g>
</g>
<!-- Node13&#45;&gt;Node16 -->
<g id="edge16" class="edge">
<title>Node13&#45;&gt;Node16</title>
<path fill="none" stroke="#63b8ff" d="M1308.2,-133.34C1325.91,-150.93 1365.13,-188.29 1403,-213.5 1407.82,-216.71 1413.13,-219.77 1418.41,-222.58"/>
<polygon fill="#63b8ff" stroke="#63b8ff" points="1416.52,-225.55 1427.03,-226.93 1419.68,-219.3 1416.52,-225.55"/>
</g>
<!-- Node20 -->
<g id="node20" class="node">
<title>Node20</title>
<g id="a_node20"><a xlink:href="SDcard_8h.html#a512ed84f4270bd62e922cd7dd82fd427" target="_top" xlink:title=" ">
<polygon fill="white" stroke="#666666" points="1629,-208 1540,-208 1540,-189 1629,-189 1629,-208"/>
<text text-anchor="middle" x="1584.5" y="-196" font-family="Helvetica,sans-Serif" font-size="10.00">SDUpdate8BITS</text>
</a>
</g>
</g>
<!-- Node13&#45;&gt;Node20 -->
<g id="edge26" class="edge">
<title>Node13&#45;&gt;Node20</title>
<path fill="none" stroke="#63b8ff" d="M1322.66,-133.43C1343.63,-141.77 1374.95,-153.57 1403,-161.5 1444.53,-173.24 1492.41,-182.88 1528.42,-189.37"/>
<polygon fill="#63b8ff" stroke="#63b8ff" points="1527.72,-192.81 1538.18,-191.11 1528.94,-185.91 1527.72,-192.81"/>
</g>
<!-- Node21 -->
<g id="node21" class="node">
<title>Node21</title>
<g id="a_node21"><a xlink:href="SDcard_8h.html#a7bef1afdf8ed9f50caed67e53c144dfe" target="_top" xlink:title=" ">
<polygon fill="white" stroke="#666666" points="1632,-171 1537,-171 1537,-152 1632,-152 1632,-171"/>
<text text-anchor="middle" x="1584.5" y="-159" font-family="Helvetica,sans-Serif" font-size="10.00">SDUpdate16BITS</text>
</a>
</g>
</g>
<!-- Node13&#45;&gt;Node21 -->
<g id="edge23" class="edge">
<title>Node13&#45;&gt;Node21</title>
<path fill="none" stroke="#63b8ff" d="M1352.64,-133.46C1368.81,-136.27 1386.59,-139.18 1403,-141.5 1443.85,-147.28 1490.09,-152.37 1525.54,-155.97"/>
<polygon fill="#63b8ff" stroke="#63b8ff" points="1524.85,-159.42 1535.15,-156.94 1525.55,-152.46 1524.85,-159.42"/>
</g>
<!-- Node15&#45;&gt;Node3 -->
<g id="edge15" class="edge">
<title>Node15&#45;&gt;Node3</title>
<path fill="none" stroke="#63b8ff" d="M1408.02,-6.38C1315.5,-1.3 1092.15,2.15 923,-66.5 785.81,-122.18 639.74,-225.69 585.46,-265.91"/>
<polygon fill="#63b8ff" stroke="#63b8ff" points="583.55,-262.97 577.63,-271.75 587.74,-268.58 583.55,-262.97"/>
</g>
<!-- Node17 -->
<g id="node17" class="node">
<title>Node17</title>
<g id="a_node17"><a xlink:href="SDcard_8h.html#a82e989b70d0f68854ead6262993255cc" target="_top" xlink:title=" ">
<polygon fill="white" stroke="#666666" points="1632,-245 1537,-245 1537,-226 1632,-226 1632,-245"/>
<text text-anchor="middle" x="1584.5" y="-233" font-family="Helvetica,sans-Serif" font-size="10.00">SDUpdate32BITS</text>
</a>
</g>
</g>
<!-- Node16&#45;&gt;Node17 -->
<g id="edge17" class="edge">
<title>Node16&#45;&gt;Node17</title>
<path fill="none" stroke="#63b8ff" d="M1501.22,-236.76C1509.12,-236.64 1517.37,-236.51 1525.48,-236.39"/>
<polygon fill="#63b8ff" stroke="#63b8ff" points="1525.32,-239.89 1535.26,-236.24 1525.21,-232.89 1525.32,-239.89"/>
</g>
<!-- Node16&#45;&gt;Node20 -->
<g id="edge20" class="edge">
<title>Node16&#45;&gt;Node20</title>
<path fill="none" stroke="#63b8ff" d="M1486.27,-227.56C1502.37,-222.74 1521.93,-216.9 1539.28,-211.72"/>
<polygon fill="#63b8ff" stroke="#63b8ff" points="1540.26,-215.07 1548.84,-208.86 1538.26,-208.37 1540.26,-215.07"/>
</g>
<!-- Node18 -->
<g id="node18" class="node">
<title>Node18</title>
<g id="a_node18"><a xlink:href="SDcard_8h.html#addfb17077b6300576f07ef8c17f88581" target="_top" xlink:title=" ">
<polygon fill="white" stroke="#666666" points="1754,-226 1668,-226 1668,-207 1754,-207 1754,-226"/>
<text text-anchor="middle" x="1711" y="-214" font-family="Helvetica,sans-Serif" font-size="10.00">BuildCheckSum</text>
</a>
</g>
</g>
<!-- Node17&#45;&gt;Node18 -->
<g id="edge18" class="edge">
<title>Node17&#45;&gt;Node18</title>
<path fill="none" stroke="#63b8ff" d="M1632.21,-228.37C1640.09,-227.17 1648.33,-225.91 1656.36,-224.69"/>
<polygon fill="#63b8ff" stroke="#63b8ff" points="1656.69,-228.18 1666.04,-223.21 1655.63,-221.26 1656.69,-228.18"/>
</g>
<!-- Node19 -->
<g id="node19" class="node">
<title>Node19</title>
<g id="a_node19"><a xlink:href="SDcard_8h.html#aa5479d4f80459a9530b2e538f4048eb5" target="_top" xlink:title=" ">
<polygon fill="white" stroke="#666666" points="1743,-189 1679,-189 1679,-170 1743,-170 1743,-189"/>
<text text-anchor="middle" x="1711" y="-177" font-family="Helvetica,sans-Serif" font-size="10.00">ShortDelay</text>
</a>
</g>
</g>
<!-- Node17&#45;&gt;Node19 -->
<g id="edge19" class="edge">
<title>Node17&#45;&gt;Node19</title>
<path fill="none" stroke="#63b8ff" d="M1612.77,-225.55C1619.14,-223.06 1625.86,-220.3 1632,-217.5 1648.46,-210 1651.75,-206.45 1668,-198.5 1671.06,-197 1674.27,-195.47 1677.49,-193.97"/>
<polygon fill="#63b8ff" stroke="#63b8ff" points="1678.64,-197.29 1686.27,-189.94 1675.73,-190.93 1678.64,-197.29"/>
</g>
<!-- Node20&#45;&gt;Node18 -->
<g id="edge21" class="edge">
<title>Node20&#45;&gt;Node18</title>
<path fill="none" stroke="#63b8ff" d="M1629.39,-204.85C1638.16,-206.11 1647.45,-207.46 1656.49,-208.76"/>
<polygon fill="#63b8ff" stroke="#63b8ff" points="1655.86,-212.21 1666.26,-210.18 1656.86,-205.28 1655.86,-212.21"/>
</g>
<!-- Node20&#45;&gt;Node19 -->
<g id="edge22" class="edge">
<title>Node20&#45;&gt;Node19</title>
<path fill="none" stroke="#63b8ff" d="M1629.39,-191.8C1641.7,-189.92 1655.06,-187.88 1667.3,-186.02"/>
<polygon fill="#63b8ff" stroke="#63b8ff" points="1667.76,-189.49 1677.12,-184.52 1666.71,-182.57 1667.76,-189.49"/>
</g>
<!-- Node21&#45;&gt;Node18 -->
<g id="edge24" class="edge">
<title>Node21&#45;&gt;Node18</title>
<path fill="none" stroke="#63b8ff" d="M1612.77,-171.45C1619.14,-173.94 1625.86,-176.7 1632,-179.5 1648.46,-187 1651.67,-190.71 1668,-198.5 1670.42,-199.65 1672.93,-200.82 1675.46,-201.96"/>
<polygon fill="#63b8ff" stroke="#63b8ff" points="1673.92,-205.11 1684.48,-205.94 1676.74,-198.7 1673.92,-205.11"/>
</g>
<!-- Node21&#45;&gt;Node19 -->
<g id="edge25" class="edge">
<title>Node21&#45;&gt;Node19</title>
<path fill="none" stroke="#63b8ff" d="M1632.21,-168.25C1643.68,-169.91 1655.91,-171.68 1667.18,-173.31"/>
<polygon fill="#63b8ff" stroke="#63b8ff" points="1666.63,-176.77 1677.03,-174.73 1667.63,-169.84 1666.63,-176.77"/>
</g>
<!-- Node39&#45;&gt;Node3 -->
<g id="edge29" class="edge">
<title>Node39&#45;&gt;Node3</title>
<path fill="none" stroke="#63b8ff" d="M1108.15,-392.5C1066.5,-406.06 985.44,-425.85 923,-400.5 902.32,-392.11 906.47,-376.41 887,-365.5 874.49,-358.49 650.88,-305.07 637,-301.5 629.01,-299.45 620.54,-297.26 612.3,-295.13"/>
<polygon fill="#63b8ff" stroke="#63b8ff" points="613.29,-291.77 602.73,-292.66 611.54,-298.55 613.29,-291.77"/>
</g>
<!-- Node40 -->
<g id="node24" class="node">
<title>Node40</title>
<g id="a_node24"><a xlink:href="Nextion_8h.html#a43937dd3d9c795271fd9c3eb3c6b6410" target="_top" xlink:title=" ">
<polygon fill="white" stroke="#666666" points="1339,-336 1256,-336 1256,-317 1339,-317 1339,-336"/>
<text text-anchor="middle" x="1297.5" y="-324" font-family="Helvetica,sans-Serif" font-size="10.00">GetReturnCode</text>
</a>
</g>
</g>
<!-- Node39&#45;&gt;Node40 -->
<g id="edge30" class="edge">
<title>Node39&#45;&gt;Node40</title>
<path fill="none" stroke="#63b8ff" d="M1165.56,-372.62C1191.06,-363.64 1228.93,-350.3 1257.4,-340.27"/>
<polygon fill="#63b8ff" stroke="#63b8ff" points="1258.49,-343.6 1266.76,-336.98 1256.16,-337 1258.49,-343.6"/>
</g>
<!-- Node41 -->
<g id="node25" class="node">
<title>Node41</title>
<g id="a_node25"><a xlink:href="TransmitterCode_2src_2main_8cpp.html#a5f109790a6fe0b972a502f3cac4ed1e7" target="_top" xlink:title=" ">
<polygon fill="white" stroke="#666666" points="1321.5,-392 1273.5,-392 1273.5,-373 1321.5,-373 1321.5,-392"/>
<text text-anchor="middle" x="1297.5" y="-380" font-family="Helvetica,sans-Serif" font-size="10.00">InStrng</text>
</a>
</g>
</g>
<!-- Node39&#45;&gt;Node41 -->
<g id="edge31" class="edge">
<title>Node39&#45;&gt;Node41</title>
<path fill="none" stroke="#63b8ff" d="M1178.45,-382.5C1204.38,-382.5 1237.54,-382.5 1262.11,-382.5"/>
<polygon fill="#63b8ff" stroke="#63b8ff" points="1261.9,-386 1271.9,-382.5 1261.9,-379 1261.9,-386"/>
</g>
<!-- Node50&#45;&gt;Node47 -->
<g id="edge34" class="edge">
<title>Node50&#45;&gt;Node47</title>
<path fill="none" stroke="#63b8ff" d="M846.28,-763.41C892.22,-769.31 980.93,-774.6 1045,-740.5 1084.43,-719.51 1112.55,-673.16 1126.19,-646.48"/>
<polygon fill="#63b8ff" stroke="#63b8ff" points="1129.21,-648.26 1130.47,-637.74 1122.93,-645.18 1129.21,-648.26"/>
</g>
<!-- Node52 -->
<g id="node30" class="node">
<title>Node52</title>
<g id="a_node30"><a xlink:href="transceiver_8h.html#adac102739147db6397bbcbb371aec4fd" target="_top" xlink:title=" ">
<polygon fill="#fff0f0" stroke="red" points="1028.5,-731 939.5,-731 939.5,-712 1028.5,-712 1028.5,-731"/>
<text text-anchor="middle" x="984" y="-719" font-family="Helvetica,sans-Serif" font-size="10.00">LoadParameters</text>
</a>
</g>
</g>
<!-- Node51&#45;&gt;Node52 -->
<g id="edge37" class="edge">
<title>Node51&#45;&gt;Node52</title>
<path fill="none" stroke="#63b8ff" d="M874.88,-721.5C892.05,-721.5 910.74,-721.5 927.68,-721.5"/>
<polygon fill="#63b8ff" stroke="#63b8ff" points="927.57,-725 937.57,-721.5 927.57,-718 927.57,-725"/>
</g>
<!-- Node54&#45;&gt;Node47 -->
<g id="edge45" class="edge">
<title>Node54&#45;&gt;Node47</title>
<path fill="none" stroke="#63b8ff" d="M829.65,-580.45C849.19,-594 886.76,-617.59 923,-626.5 984.43,-641.6 1058.91,-636.47 1101.39,-631.44"/>
<polygon fill="#63b8ff" stroke="#63b8ff" points="1101.76,-634.92 1111.24,-630.19 1100.88,-627.98 1101.76,-634.92"/>
</g>
<!-- Node55 -->
<g id="node32" class="node">
<title>Node55</title>
<g id="a_node32"><a xlink:href="BuddyWireless_8h.html#ace84aff90c63bee9a876eda720fbf8bc" target="_top" xlink:title=" ">
<polygon fill="white" stroke="#666666" points="1029,-617 939,-617 939,-598 1029,-598 1029,-617"/>
<text text-anchor="middle" x="984" y="-605" font-family="Helvetica,sans-Serif" font-size="10.00">ChangeTXTarget</text>
</a>
</g>
</g>
<!-- Node54&#45;&gt;Node55 -->
<g id="edge39" class="edge">
<title>Node54&#45;&gt;Node55</title>
<path fill="none" stroke="#63b8ff" d="M860.75,-580.42C881.32,-584.97 905.92,-590.42 927.64,-595.24"/>
<polygon fill="#63b8ff" stroke="#63b8ff" points="926.7,-598.61 937.22,-597.36 928.22,-591.78 926.7,-598.61"/>
</g>
<!-- Node56 -->
<g id="node33" class="node">
<title>Node56</title>
<g id="a_node33"><a xlink:href="BuddyWireless_8h.html#af59c2527be7a67d6b09dd467f3123d55" target="_top" xlink:title=" ">
<polygon fill="#fff0f0" stroke="red" points="1019.5,-580 948.5,-580 948.5,-561 1019.5,-561 1019.5,-580"/>
<text text-anchor="middle" x="984" y="-568" font-family="Helvetica,sans-Serif" font-size="10.00">GetPupilAck</text>
</a>
</g>
</g>
<!-- Node54&#45;&gt;Node56 -->
<g id="edge41" class="edge">
<title>Node54&#45;&gt;Node56</title>
<path fill="none" stroke="#63b8ff" d="M866.11,-570.5C888.5,-570.5 914.73,-570.5 936.67,-570.5"/>
<polygon fill="#63b8ff" stroke="#63b8ff" points="936.52,-574 946.52,-570.5 936.52,-567 936.52,-574"/>
</g>
<!-- Node58 -->
<g id="node34" class="node">
<title>Node58</title>
<g id="a_node34"><a xlink:href="BuddyWireless_8h.html#a89fc05df708fec875356b62d21b2ce7b" target="_top" xlink:title=" ">
<polygon fill="#fff0f0" stroke="red" points="1022.5,-543 945.5,-543 945.5,-524 1022.5,-524 1022.5,-543"/>
<text text-anchor="middle" x="984" y="-531" font-family="Helvetica,sans-Serif" font-size="10.00">PupilDetected</text>
</a>
</g>
</g>
<!-- Node54&#45;&gt;Node58 -->
<g id="edge43" class="edge">
<title>Node54&#45;&gt;Node58</title>
<path fill="none" stroke="#63b8ff" d="M860.75,-560.58C883.42,-555.56 910.98,-549.46 934.19,-544.31"/>
<polygon fill="#63b8ff" stroke="#63b8ff" points="934.71,-547.78 943.72,-542.2 933.2,-540.95 934.71,-547.78"/>
</g>
<!-- Node55&#45;&gt;Node47 -->
<g id="edge40" class="edge">
<title>Node55&#45;&gt;Node47</title>
<path fill="none" stroke="#63b8ff" d="M1029.34,-613.1C1052.46,-616.02 1080.29,-619.53 1101.65,-622.23"/>
<polygon fill="#63b8ff" stroke="#63b8ff" points="1100.92,-625.66 1111.28,-623.44 1101.8,-618.72 1100.92,-625.66"/>
</g>
<!-- Node56&#45;&gt;Node47 -->
<g id="edge42" class="edge">
<title>Node56&#45;&gt;Node47</title>
<path fill="none" stroke="#63b8ff" d="M1018.17,-580.47C1026.94,-583.26 1036.37,-586.38 1045,-589.5 1064.11,-596.42 1085.15,-604.96 1102.13,-612.1"/>
<polygon fill="#63b8ff" stroke="#63b8ff" points="1100.67,-615.28 1111.25,-615.96 1103.4,-608.84 1100.67,-615.28"/>
</g>
<!-- Node58&#45;&gt;Node39 -->
<g id="edge44" class="edge">
<title>Node58&#45;&gt;Node39</title>
<path fill="none" stroke="#63b8ff" d="M994.87,-523.59C1019.86,-498.52 1085.87,-432.3 1117.76,-400.3"/>
<polygon fill="#63b8ff" stroke="#63b8ff" points="1120.14,-402.87 1124.72,-393.32 1115.18,-397.93 1120.14,-402.87"/>
</g>
<!-- Node60&#45;&gt;Node9 -->
<g id="edge54" class="edge">
<title>Node60&#45;&gt;Node9</title>
<path fill="none" stroke="#63b8ff" d="M833,-297.63C853.76,-285.84 890.17,-266.02 923,-252.5 927.61,-250.6 932.49,-248.77 937.39,-247.05"/>
<polygon fill="#63b8ff" stroke="#63b8ff" points="938.26,-250.45 946.63,-243.96 936.03,-243.82 938.26,-250.45"/>
</g>
<!-- Node60&#45;&gt;Node47 -->
<g id="edge53" class="edge">
<title>Node60&#45;&gt;Node47</title>
<path fill="none" stroke="#63b8ff" d="M828.84,-317.45C843.28,-328.75 867.28,-347.92 887,-365.5 903.66,-380.35 906.88,-385.07 923,-400.5 976.83,-452.03 994.24,-460.95 1045,-515.5 1073.77,-546.42 1104.21,-585.18 1121.43,-607.76"/>
<polygon fill="#63b8ff" stroke="#63b8ff" points="1118.42,-609.58 1127.25,-615.44 1124,-605.35 1118.42,-609.58"/>
</g>
<!-- Node61 -->
<g id="node37" class="node">
<title>Node61</title>
<g id="a_node37"><a xlink:href="transceiver_8h.html#a953f1d5046e183549ed95b08f6d675e3" target="_top" xlink:title=" ">
<polygon fill="#fff0f0" stroke="red" points="1033,-391 935,-391 935,-372 1033,-372 1033,-391"/>
<text text-anchor="middle" x="984" y="-379" font-family="Helvetica,sans-Serif" font-size="10.00">CheckGapsLength</text>
</a>
</g>
</g>
<!-- Node60&#45;&gt;Node61 -->
<g id="edge48" class="edge">
<title>Node60&#45;&gt;Node61</title>
<path fill="none" stroke="#63b8ff" d="M854.44,-317.39C865.35,-321.01 876.99,-325.68 887,-331.5 905.51,-342.25 904.31,-353.07 923,-363.5 925.49,-364.89 928.11,-366.19 930.79,-367.39"/>
<polygon fill="#63b8ff" stroke="#63b8ff" points="929.37,-370.59 939.96,-371.04 931.96,-364.09 929.37,-370.59"/>
</g>
<!-- Node63 -->
<g id="node38" class="node">
<title>Node63</title>
<g id="a_node38"><a xlink:href="TransmitterCode_2src_2main_8cpp.html#a62e53eb9359c32b666e3386d62c57037" target="_top" xlink:title=" ">
<polygon fill="#fff0f0" stroke="red" points="1020,-95 948,-95 948,-76 1020,-76 1020,-95"/>
<text text-anchor="middle" x="984" y="-83" font-family="Helvetica,sans-Serif" font-size="10.00">GreenLedOn</text>
</a>
</g>
</g>
<!-- Node60&#45;&gt;Node63 -->
<g id="edge49" class="edge">
<title>Node60&#45;&gt;Node63</title>
<path fill="none" stroke="#63b8ff" d="M829.04,-297.6C845.04,-284.77 871.89,-260.89 887,-234.5 916.99,-182.1 880.8,-146.69 923,-103.5 927.03,-99.38 931.96,-96.19 937.25,-93.73"/>
<polygon fill="#63b8ff" stroke="#63b8ff" points="938.15,-97.12 946.31,-90.36 935.71,-90.56 938.15,-97.12"/>
</g>
<!-- Node85 -->
<g id="node39" class="node">
<title>Node85</title>
<g id="a_node39"><a xlink:href="transceiver_8h.html#a694f4f5a0147f4dc29b0bc1a8951547d" target="_top" xlink:title=" ">
<polygon fill="#fff0f0" stroke="red" points="1031,-354 937,-354 937,-335 1031,-335 1031,-354"/>
<text text-anchor="middle" x="984" y="-342" font-family="Helvetica,sans-Serif" font-size="10.00">ParseAckPayload</text>
</a>
</g>
</g>
<!-- Node60&#45;&gt;Node85 -->
<g id="edge51" class="edge">
<title>Node60&#45;&gt;Node85</title>
<path fill="none" stroke="#63b8ff" d="M860.75,-317.42C881.16,-321.94 905.53,-327.34 927.12,-332.12"/>
<polygon fill="#63b8ff" stroke="#63b8ff" points="926.13,-335.48 936.65,-334.23 927.64,-328.65 926.13,-335.48"/>
</g>
<!-- Node234 -->
<g id="node40" class="node">
<title>Node234</title>
<g id="a_node40"><a xlink:href="transceiver_8h.html#a04937e814dba3f5e07cb34bb13130ff3" target="_top" xlink:title=" ">
<polygon fill="#fff0f0" stroke="red" points="1042.5,-317 925.5,-317 925.5,-298 1042.5,-298 1042.5,-317"/>
<text text-anchor="middle" x="984" y="-305" font-family="Helvetica,sans-Serif" font-size="10.00">ParseShortAckPayload</text>
</a>
</g>
</g>
<!-- Node60&#45;&gt;Node234 -->
<g id="edge52" class="edge">
<title>Node60&#45;&gt;Node234</title>
<path fill="none" stroke="#63b8ff" d="M863.41,-307.5C879.15,-307.5 897.01,-307.5 914.04,-307.5"/>
<polygon fill="#63b8ff" stroke="#63b8ff" points="913.56,-311 923.56,-307.5 913.56,-304 913.56,-311"/>
</g>
<!-- Node82 -->
<g id="node41" class="node">
<title>Node82</title>
<g id="a_node41"><a xlink:href="Utilities_8h.html#a793b7bcd77531c95fe72ed4356d421c8" target="_top" xlink:title=" ">
<polygon fill="white" stroke="#666666" points="1039,-280 929,-280 929,-261 1039,-261 1039,-280"/>
<text text-anchor="middle" x="984" y="-268" font-family="Helvetica,sans-Serif" font-size="10.00">StartInactvityTimeout</text>
</a>
</g>
</g>
<!-- Node60&#45;&gt;Node82 -->
<g id="edge55" class="edge">
<title>Node60&#45;&gt;Node82</title>
<path fill="none" stroke="#63b8ff" d="M860.75,-297.58C881.16,-293.06 905.53,-287.66 927.12,-282.88"/>
<polygon fill="#63b8ff" stroke="#63b8ff" points="927.64,-286.35 936.65,-280.77 926.13,-279.52 927.64,-286.35"/>
</g>
<!-- Node63&#45;&gt;Node12 -->
<g id="edge50" class="edge">
<title>Node63&#45;&gt;Node12</title>
<path fill="none" stroke="#63b8ff" d="M1020.29,-85.5C1036.76,-85.5 1056.84,-85.5 1075.59,-85.5"/>
<polygon fill="#63b8ff" stroke="#63b8ff" points="1075.53,-89 1085.53,-85.5 1075.53,-82 1075.53,-89"/>
</g>
<!-- Node169&#45;&gt;Node3 -->
<g id="edge57" class="edge">
<title>Node169&#45;&gt;Node3</title>
<path fill="none" stroke="#63b8ff" d="M296.84,-233.58C309.88,-237.21 325.67,-241.36 340,-244.5 398.9,-257.41 467.41,-268.58 512.46,-275.41"/>
<polygon fill="#63b8ff" stroke="#63b8ff" points="511.77,-278.84 522.18,-276.86 512.81,-271.92 511.77,-278.84"/>
</g>
<!-- Node170 -->
<g id="node43" class="node">
<title>Node170</title>
<g id="a_node43"><a xlink:href="Nextion_8h.html#aff6fa8906188d3249b01bf59de47df2f" target="_top" xlink:title=" ">
<polygon fill="white" stroke="#666666" points="393,-235 340,-235 340,-216 393,-216 393,-235"/>
<text text-anchor="middle" x="366.5" y="-223" font-family="Helvetica,sans-Serif" font-size="10.00">getvalue</text>
</a>
</g>
</g>
<!-- Node169&#45;&gt;Node170 -->
<g id="edge58" class="edge">
<title>Node169&#45;&gt;Node170</title>
<path fill="none" stroke="#63b8ff" d="M296.91,-225.5C306.7,-225.5 317.85,-225.5 328.28,-225.5"/>
<polygon fill="#63b8ff" stroke="#63b8ff" points="328.12,-229 338.12,-225.5 328.12,-222 328.12,-229"/>
</g>
<!-- Node171 -->
<g id="node44" class="node">
<title>Node171</title>
<g id="a_node44"><a xlink:href="Nextion_8h.html#ad7b8aa834c87265667a5687b1787a1cc" target="_top" xlink:title=" ">
<polygon fill="white" stroke="#666666" points="486.5,-198 430.5,-198 430.5,-179 486.5,-179 486.5,-198"/>
<text text-anchor="middle" x="458.5" y="-186" font-family="Helvetica,sans-Serif" font-size="10.00">EndSend</text>
</a>
</g>
</g>
<!-- Node170&#45;&gt;Node171 -->
<g id="edge59" class="edge">
<title>Node170&#45;&gt;Node171</title>
<path fill="none" stroke="#63b8ff" d="M391.62,-215.58C401.2,-211.64 412.41,-207.04 422.83,-202.75"/>
<polygon fill="#63b8ff" stroke="#63b8ff" points="424,-206.06 431.92,-199.02 421.34,-199.58 424,-206.06"/>
</g>
<!-- Node172 -->
<g id="node45" class="node">
<title>Node172</title>
<g id="a_node45"><a xlink:href="Nextion_8h.html#a6fe457db5d6bc71ccb447dee824abf6a" target="_top" xlink:title=" ">
<polygon fill="white" stroke="#666666" points="488,-235 429,-235 429,-216 488,-216 488,-235"/>
<text text-anchor="middle" x="458.5" y="-223" font-family="Helvetica,sans-Serif" font-size="10.00">GetTextIn</text>
</a>
</g>
</g>
<!-- Node170&#45;&gt;Node172 -->
<g id="edge61" class="edge">
<title>Node170&#45;&gt;Node172</title>
<path fill="none" stroke="#63b8ff" d="M393.05,-225.5C400.61,-225.5 409.07,-225.5 417.32,-225.5"/>
<polygon fill="#63b8ff" stroke="#63b8ff" points="417.2,-229 427.2,-225.5 417.2,-222 417.2,-229"/>
</g>
<!-- Node171&#45;&gt;Node3 -->
<g id="edge60" class="edge">
<title>Node171&#45;&gt;Node3</title>
<path fill="none" stroke="#63b8ff" d="M475.6,-198.39C479.76,-201.17 484.15,-204.31 488,-207.5 509.36,-225.19 531.29,-248.35 545.57,-264.22"/>
<polygon fill="#63b8ff" stroke="#63b8ff" points="542.77,-266.34 552.03,-271.5 548.01,-261.69 542.77,-266.34"/>
</g>
<!-- Node117&#45;&gt;Node13 -->
<g id="edge70" class="edge">
<title>Node117&#45;&gt;Node13</title>
<path fill="none" stroke="#63b8ff" d="M1175.51,-58.42C1181.25,-60.66 1186.93,-63.33 1192,-66.5 1211.45,-78.67 1208.34,-91.67 1228,-103.5 1231.61,-105.67 1235.47,-107.62 1239.45,-109.36"/>
<polygon fill="#63b8ff" stroke="#63b8ff" points="1238.17,-112.62 1248.76,-112.97 1240.7,-106.1 1238.17,-112.62"/>
</g>
<!-- Node117&#45;&gt;Node15 -->
<g id="edge63" class="edge">
<title>Node117&#45;&gt;Node15</title>
<path fill="none" stroke="#63b8ff" d="M1187.29,-43.9C1233.85,-39.4 1305.26,-32 1367,-23.5 1376.79,-22.15 1387.19,-20.55 1397.23,-18.93"/>
<polygon fill="#63b8ff" stroke="#63b8ff" points="1397.55,-22.42 1406.85,-17.34 1396.41,-15.51 1397.55,-22.42"/>
</g>
<!-- Node118 -->
<g id="node47" class="node">
<title>Node118</title>
<g id="a_node47"><a xlink:href="SDcard_8h.html#ab5210e90502030d9f8864752dd70dc20" target="_top" xlink:title=" ">
<polygon fill="white" stroke="#666666" points="1339,-95 1256,-95 1256,-76 1339,-76 1339,-95"/>
<text text-anchor="middle" x="1297.5" y="-83" font-family="Helvetica,sans-Serif" font-size="10.00">SaveOneModel</text>
</a>
</g>
</g>
<!-- Node117&#45;&gt;Node118 -->
<g id="edge64" class="edge">
<title>Node117&#45;&gt;Node118</title>
<path fill="none" stroke="#63b8ff" d="M1180.11,-58.42C1199.99,-63.04 1223.83,-68.59 1244.74,-73.46"/>
<polygon fill="#63b8ff" stroke="#63b8ff" points="1243.69,-76.8 1254.22,-75.66 1245.27,-69.99 1243.69,-76.8"/>
</g>
<!-- Node118&#45;&gt;Node14 -->
<g id="edge65" class="edge">
<title>Node118&#45;&gt;Node14</title>
<path fill="none" stroke="#63b8ff" d="M1338.57,-95.48C1357.32,-100.16 1379.87,-105.78 1399.84,-110.75"/>
<polygon fill="#63b8ff" stroke="#63b8ff" points="1398.92,-114.13 1409.47,-113.15 1400.61,-107.34 1398.92,-114.13"/>
</g>
<!-- Node118&#45;&gt;Node15 -->
<g id="edge66" class="edge">
<title>Node118&#45;&gt;Node15</title>
<path fill="none" stroke="#63b8ff" d="M1333.93,-75.52C1344.86,-71.81 1356.71,-67.11 1367,-61.5 1384.8,-51.8 1385.85,-44.31 1403,-33.5 1408,-30.35 1413.46,-27.29 1418.85,-24.47"/>
<polygon fill="#63b8ff" stroke="#63b8ff" points="1420.28,-27.67 1427.65,-20.05 1417.14,-21.41 1420.28,-27.67"/>
</g>
<!-- Node118&#45;&gt;Node16 -->
<g id="edge67" class="edge">
<title>Node118&#45;&gt;Node16</title>
<path fill="none" stroke="#63b8ff" d="M1339.16,-91.54C1348.93,-94.35 1358.88,-98.46 1367,-104.5 1406.5,-133.85 1432.01,-187.77 1443.65,-217.13"/>
<polygon fill="#63b8ff" stroke="#63b8ff" points="1440.32,-218.22 1447.14,-226.33 1446.87,-215.74 1440.32,-218.22"/>
</g>
<!-- Node118&#45;&gt;Node20 -->
<g id="edge69" class="edge">
<title>Node118&#45;&gt;Node20</title>
<path fill="none" stroke="#63b8ff" d="M1339.35,-78.32C1383.31,-72.92 1453.34,-71.3 1501,-104.5 1531.34,-125.63 1510.09,-154.15 1537,-179.5 1538.23,-180.66 1539.54,-181.75 1540.91,-182.78"/>
<polygon fill="#63b8ff" stroke="#63b8ff" points="1538.98,-185.7 1549.35,-187.91 1542.62,-179.72 1538.98,-185.7"/>
</g>
<!-- Node118&#45;&gt;Node21 -->
<g id="edge68" class="edge">
<title>Node118&#45;&gt;Node21</title>
<path fill="none" stroke="#63b8ff" d="M1326.77,-75.57C1367.26,-63.07 1443.26,-46.1 1501,-71.5 1533.53,-85.81 1558.84,-119.98 1572.43,-141.86"/>
<polygon fill="#63b8ff" stroke="#63b8ff" points="1569.41,-143.63 1577.52,-150.44 1575.43,-140.06 1569.41,-143.63"/>
</g>
<!-- Node72&#45;&gt;Node39 -->
<g id="edge74" class="edge">
<title>Node72&#45;&gt;Node39</title>
<path fill="none" stroke="#63b8ff" d="M1016.32,-162.64C1026.69,-165.17 1037.49,-169.63 1045,-177.5 1090.55,-225.22 1050.12,-263.2 1081,-321.5 1089.69,-337.9 1103.71,-353.45 1115.35,-364.75"/>
<polygon fill="#63b8ff" stroke="#63b8ff" points="1112.86,-367.21 1122.56,-371.47 1117.63,-362.09 1112.86,-367.21"/>
</g>
<!-- Node72&#45;&gt;Node40 -->
<g id="edge73" class="edge">
<title>Node72&#45;&gt;Node40</title>
<path fill="none" stroke="#63b8ff" d="M1016.21,-165.56C1025.89,-168.29 1036.3,-172.14 1045,-177.5 1064.81,-189.7 1062.4,-201.53 1081,-215.5 1138.55,-258.71 1215.38,-293.72 1260.04,-312.21"/>
<polygon fill="#63b8ff" stroke="#63b8ff" points="1258.69,-315.44 1269.27,-315.97 1261.34,-308.96 1258.69,-315.44"/>
</g>
<!-- Node30 -->
<g id="node49" class="node">
<title>Node30</title>
<g id="a_node49"><a xlink:href="Utilities_8h.html#a590a9174319918d7e3d7baca323fcf26" target="_top" xlink:title=" ">
<polygon fill="white" stroke="#666666" points="1151,-206 1122,-206 1122,-187 1151,-187 1151,-206"/>
<text text-anchor="middle" x="1136.5" y="-194" font-family="Helvetica,sans-Serif" font-size="10.00">Str</text>
</a>
</g>
</g>
<!-- Node72&#45;&gt;Node30 -->
<g id="edge75" class="edge">
<title>Node72&#45;&gt;Node30</title>
<path fill="none" stroke="#63b8ff" d="M1016.18,-167.17C1044.13,-174.04 1084.6,-183.99 1110.48,-190.35"/>
<polygon fill="#63b8ff" stroke="#63b8ff" points="1109.55,-193.73 1120.1,-192.71 1111.22,-186.93 1109.55,-193.73"/>
</g>
<!-- Node235&#45;&gt;Node2 -->
<g id="edge77" class="edge">
<title>Node235&#45;&gt;Node2</title>
<path fill="none" stroke="#63b8ff" d="M191.24,-235.42C202.72,-239.52 216.23,-244.35 228.64,-248.79"/>
<polygon fill="#63b8ff" stroke="#63b8ff" points="227.17,-251.98 237.76,-252.05 229.52,-245.39 227.17,-251.98"/>
</g>
<!-- Node235&#45;&gt;Node169 -->
<g id="edge78" class="edge">
<title>Node235&#45;&gt;Node169</title>
<path fill="none" stroke="#63b8ff" d="M196.25,-225.5C206.32,-225.5 217.5,-225.5 227.95,-225.5"/>
<polygon fill="#63b8ff" stroke="#63b8ff" points="227.82,-229 237.82,-225.5 227.82,-222 227.82,-229"/>
</g>
</g>
</svg>
