<?xml version="1.0" encoding="UTF-8" standalone="no"?>
<!DOCTYPE svg PUBLIC "-//W3C//DTD SVG 1.1//EN"
 "http://www.w3.org/Graphics/SVG/1.1/DTD/svg11.dtd">
<!-- Generated by graphviz version 7.0.5 (20221223.1930)
 -->
<!-- Title: Force_ReDisplay Pages: 1 -->
<svg width="1477pt" height="578pt"
 viewBox="0.00 0.00 1477.00 577.50" xmlns="http://www.w3.org/2000/svg" xmlns:xlink="http://www.w3.org/1999/xlink">
<g id="graph0" class="graph" transform="scale(1 1) rotate(0) translate(4 573.5)">
<title>Force_ReDisplay</title>
<!-- Node1 -->
<g id="node1" class="node">
<title>Node1</title>
<g id="a_node1"><a xlink:title=" ">
<polygon fill="#999999" stroke="#666666" points="1469,-115 1379,-115 1379,-96 1469,-96 1469,-115"/>
<text text-anchor="middle" x="1424" y="-103" font-family="Helvetica,sans-Serif" font-size="10.00">Force_ReDisplay</text>
</a>
</g>
</g>
<!-- Node2 -->
<g id="node2" class="node">
<title>Node2</title>
<g id="a_node2"><a xlink:href="TransmitterCode_2src_2main_8cpp.html#a804fdbdd5eab4c596bbe8a23eecbe4d5" target="_top" xlink:title=" ">
<polygon fill="white" stroke="#666666" points="1343,-340 1242,-340 1242,-321 1343,-321 1343,-340"/>
<text text-anchor="middle" x="1292.5" y="-328" font-family="Helvetica,sans-Serif" font-size="10.00">ButtonWasPressed</text>
</a>
</g>
</g>
<!-- Node1&#45;&gt;Node2 -->
<g id="edge1" class="edge">
<title>Node1&#45;&gt;Node2</title>
<path fill="none" stroke="#63b8ff" d="M1411.65,-125.22C1384.94,-171.62 1318.91,-286.35 1299.17,-320.66"/>
<polygon fill="#63b8ff" stroke="#63b8ff" points="1414.56,-127.18 1416.51,-116.77 1408.49,-123.69 1414.56,-127.18"/>
</g>
<!-- Node26 -->
<g id="node26" class="node">
<title>Node26</title>
<g id="a_node26"><a xlink:href="Trims_8h.html#a175b6111f05e020becf6f4fc8c3e474d" target="_top" xlink:title=" ">
<polygon fill="white" stroke="#666666" points="1335,-115 1250,-115 1250,-96 1335,-96 1335,-115"/>
<text text-anchor="middle" x="1292.5" y="-103" font-family="Helvetica,sans-Serif" font-size="10.00">DefineTrimsEnd</text>
</a>
</g>
</g>
<!-- Node1&#45;&gt;Node26 -->
<g id="edge35" class="edge">
<title>Node1&#45;&gt;Node26</title>
<path fill="none" stroke="#63b8ff" d="M1367.34,-105.5C1356.6,-105.5 1345.53,-105.5 1335.32,-105.5"/>
<polygon fill="#63b8ff" stroke="#63b8ff" points="1367.28,-109 1377.28,-105.5 1367.28,-102 1367.28,-109"/>
</g>
<!-- Node27 -->
<g id="node27" class="node">
<title>Node27</title>
<g id="a_node27"><a xlink:href="TransmitterCode_2src_2main_8cpp.html#acaf005c908c2b6706d7ab9579f456ca8" target="_top" xlink:title=" ">
<polygon fill="white" stroke="#666666" points="1331.5,-78 1253.5,-78 1253.5,-59 1331.5,-59 1331.5,-78"/>
<text text-anchor="middle" x="1292.5" y="-66" font-family="Helvetica,sans-Serif" font-size="10.00">DualRatesEnd</text>
</a>
</g>
</g>
<!-- Node1&#45;&gt;Node27 -->
<g id="edge36" class="edge">
<title>Node1&#45;&gt;Node27</title>
<path fill="none" stroke="#63b8ff" d="M1377.45,-92.49C1361.31,-87.87 1343.41,-82.76 1328.3,-78.44"/>
<polygon fill="#63b8ff" stroke="#63b8ff" points="1376.26,-95.79 1386.84,-95.17 1378.19,-89.06 1376.26,-95.79"/>
</g>
<!-- Node28 -->
<g id="node28" class="node">
<title>Node28</title>
<g id="a_node28"><a xlink:href="TransmitterCode_2src_2main_8cpp.html#a2d16d1f4802d4029bc8933a18d213beb" target="_top" xlink:title=" ">
<polygon fill="white" stroke="#666666" points="1333.5,-152 1251.5,-152 1251.5,-133 1333.5,-133 1333.5,-152"/>
<text text-anchor="middle" x="1292.5" y="-140" font-family="Helvetica,sans-Serif" font-size="10.00">GotoFrontView</text>
</a>
</g>
</g>
<!-- Node1&#45;&gt;Node28 -->
<g id="edge37" class="edge">
<title>Node1&#45;&gt;Node28</title>
<path fill="none" stroke="#63b8ff" d="M1377.45,-118.51C1361.31,-123.13 1343.41,-128.24 1328.3,-132.56"/>
<polygon fill="#63b8ff" stroke="#63b8ff" points="1378.19,-121.94 1386.84,-115.83 1376.26,-115.21 1378.19,-121.94"/>
</g>
<!-- Node36 -->
<g id="node36" class="node">
<title>Node36</title>
<g id="a_node36"><a xlink:href="TransmitterCode_2src_2main_8cpp.html#ac80d36db695cecb74d129643387feefd" target="_top" xlink:title=" ">
<polygon fill="white" stroke="#666666" points="1335,-41 1250,-41 1250,-22 1335,-22 1335,-41"/>
<text text-anchor="middle" x="1292.5" y="-29" font-family="Helvetica,sans-Serif" font-size="10.00">WriteNewCurve</text>
</a>
</g>
</g>
<!-- Node1&#45;&gt;Node36 -->
<g id="edge52" class="edge">
<title>Node1&#45;&gt;Node36</title>
<path fill="none" stroke="#63b8ff" d="M1402.11,-88.59C1386.51,-76.54 1364.3,-60.58 1343,-49.5 1337.24,-46.5 1330.87,-43.78 1324.67,-41.42"/>
<polygon fill="#63b8ff" stroke="#63b8ff" points="1399.69,-91.13 1409.71,-94.57 1404.02,-85.63 1399.69,-91.13"/>
</g>
<!-- Node3 -->
<g id="node3" class="node">
<title>Node3</title>
<g id="a_node3"><a xlink:href="Utilities_8h.html#afb7c85cac4aa89fd998ed81c330374d2" target="_top" xlink:title=" ">
<polygon fill="white" stroke="#666666" points="1206,-321 1060,-321 1060,-302 1206,-302 1206,-321"/>
<text text-anchor="middle" x="1133" y="-309" font-family="Helvetica,sans-Serif" font-size="10.00">CheckForNextionButtonPress</text>
</a>
</g>
</g>
<!-- Node2&#45;&gt;Node3 -->
<g id="edge2" class="edge">
<title>Node2&#45;&gt;Node3</title>
<path fill="none" stroke="#63b8ff" d="M1230.32,-323.12C1222.43,-322.17 1214.29,-321.19 1206.24,-320.21"/>
<polygon fill="#63b8ff" stroke="#63b8ff" points="1229.82,-326.58 1240.16,-324.31 1230.65,-319.63 1229.82,-326.58"/>
</g>
<!-- Node18 -->
<g id="node18" class="node">
<title>Node18</title>
<g id="a_node18"><a xlink:href="ModelExchange_8h.html#ab7c9edf843c732d7fe296564f39bc0dc" target="_top" xlink:title="RECEIVE A MODEL FILE.">
<polygon fill="white" stroke="#666666" points="833,-504 739,-504 739,-485 833,-485 833,-504"/>
<text text-anchor="middle" x="786" y="-492" font-family="Helvetica,sans-Serif" font-size="10.00">ReceiveModelFile</text>
</a>
</g>
</g>
<!-- Node2&#45;&gt;Node18 -->
<g id="edge34" class="edge">
<title>Node2&#45;&gt;Node18</title>
<path fill="none" stroke="#63b8ff" d="M1252.4,-344.15C1175.63,-370.78 999.65,-431.05 850,-476.5 841.18,-479.18 831.64,-481.96 822.71,-484.52"/>
<polygon fill="#63b8ff" stroke="#63b8ff" points="1253.26,-347.55 1261.56,-340.97 1250.96,-340.94 1253.26,-347.55"/>
</g>
<!-- Node4 -->
<g id="node4" class="node">
<title>Node4</title>
<g id="a_node4"><a xlink:href="TransmitterCode_2src_2main_8cpp.html#a641d6dab68ec7b2a8a32492aac55bc1c" target="_top" xlink:title=" ">
<polygon fill="white" stroke="#666666" points="1007.5,-245 902.5,-245 902.5,-226 1007.5,-226 1007.5,-245"/>
<text text-anchor="middle" x="955" y="-233" font-family="Helvetica,sans-Serif" font-size="10.00">GetBackupFilename</text>
</a>
</g>
</g>
<!-- Node3&#45;&gt;Node4 -->
<g id="edge3" class="edge">
<title>Node3&#45;&gt;Node4</title>
<path fill="none" stroke="#63b8ff" d="M1088.24,-298.02C1078.83,-294.81 1069.01,-291.23 1060,-287.5 1028.85,-274.6 994.09,-256.4 973.68,-245.31"/>
<polygon fill="#63b8ff" stroke="#63b8ff" points="1086.99,-301.29 1097.59,-301.12 1089.2,-294.65 1086.99,-301.29"/>
</g>
<!-- Node6 -->
<g id="node6" class="node">
<title>Node6</title>
<g id="a_node6"><a xlink:href="TransmitterCode_2src_2main_8cpp.html#a6506bf72e0dd9e9ce480156b47625bff" target="_top" xlink:title=" ">
<polygon fill="white" stroke="#666666" points="998,-320 912,-320 912,-301 998,-301 998,-320"/>
<text text-anchor="middle" x="955" y="-308" font-family="Helvetica,sans-Serif" font-size="10.00">GetConfirmation</text>
</a>
</g>
</g>
<!-- Node3&#45;&gt;Node6 -->
<g id="edge6" class="edge">
<title>Node3&#45;&gt;Node6</title>
<path fill="none" stroke="#63b8ff" d="M1048.32,-311.02C1030.98,-310.93 1013.42,-310.83 998.33,-310.74"/>
<polygon fill="#63b8ff" stroke="#63b8ff" points="1048.12,-314.52 1058.14,-311.08 1048.16,-307.52 1048.12,-314.52"/>
</g>
<!-- Node23 -->
<g id="node23" class="node">
<title>Node23</title>
<g id="a_node23"><a xlink:href="TransmitterCode_2src_2main_8cpp.html#a558ea014e230b7caa54ce5a37ad29b22" target="_top" xlink:title=" ">
<polygon fill="white" stroke="#666666" points="1005.5,-171 904.5,-171 904.5,-152 1005.5,-152 1005.5,-171"/>
<text text-anchor="middle" x="955" y="-159" font-family="Helvetica,sans-Serif" font-size="10.00">ManageTransmitter</text>
</a>
</g>
</g>
<!-- Node3&#45;&gt;Node23 -->
<g id="edge26" class="edge">
<title>Node3&#45;&gt;Node23</title>
<path fill="none" stroke="#63b8ff" d="M1110.07,-294.95C1095.5,-283.69 1076.16,-268.22 1060,-253.5 1043.04,-238.05 1040.95,-231.96 1024,-216.5 1005.72,-199.82 983.15,-182.08 969.16,-171.4"/>
<polygon fill="#63b8ff" stroke="#63b8ff" points="1107.6,-297.46 1117.66,-300.77 1111.85,-291.91 1107.6,-297.46"/>
</g>
<!-- Node24 -->
<g id="node24" class="node">
<title>Node24</title>
<g id="a_node24"><a xlink:href="TransmitterCode_2src_2main_8cpp.html#a6f5b0f1e4ca75768c16c4dd93f92a8de" target="_top" xlink:title=" ">
<polygon fill="white" stroke="#666666" points="981,-411 929,-411 929,-392 981,-392 981,-411"/>
<text text-anchor="middle" x="955" y="-399" font-family="Helvetica,sans-Serif" font-size="10.00">MsgBox</text>
</a>
</g>
</g>
<!-- Node3&#45;&gt;Node24 -->
<g id="edge28" class="edge">
<title>Node3&#45;&gt;Node24</title>
<path fill="none" stroke="#63b8ff" d="M1102.54,-326.56C1066.38,-345.06 1006.08,-375.89 975.33,-391.62"/>
<polygon fill="#63b8ff" stroke="#63b8ff" points="1103.83,-329.83 1111.14,-322.16 1100.65,-323.6 1103.83,-329.83"/>
</g>
<!-- Node4&#45;&gt;Node2 -->
<g id="edge4" class="edge">
<title>Node4&#45;&gt;Node2</title>
<path fill="none" stroke="#63b8ff" d="M1019.17,-246.87C1070.24,-256.85 1143.64,-272.96 1206,-293.5 1229.04,-301.09 1254.44,-312.49 1271.52,-320.63"/>
<polygon fill="#63b8ff" stroke="#63b8ff" points="1019.95,-243.46 1009.47,-245 1018.62,-250.33 1019.95,-243.46"/>
</g>
<!-- Node5 -->
<g id="node5" class="node">
<title>Node5</title>
<g id="a_node5"><a xlink:href="TransmitterCode_2src_2main_8cpp.html#a9d94366336f1e5fd43edb9c24bec5821" target="_top" xlink:title=" ">
<polygon fill="white" stroke="#666666" points="820,-208 752,-208 752,-189 820,-189 820,-208"/>
<text text-anchor="middle" x="786" y="-196" font-family="Helvetica,sans-Serif" font-size="10.00">RenameFile</text>
</a>
</g>
</g>
<!-- Node4&#45;&gt;Node5 -->
<g id="edge5" class="edge">
<title>Node4&#45;&gt;Node5</title>
<path fill="none" stroke="#63b8ff" d="M898.12,-223.12C872.38,-217.42 842.69,-210.84 820.48,-205.92"/>
<polygon fill="#63b8ff" stroke="#63b8ff" points="897.25,-226.51 907.77,-225.26 898.76,-219.68 897.25,-226.51"/>
</g>
<!-- Node6&#45;&gt;Node2 -->
<g id="edge7" class="edge">
<title>Node6&#45;&gt;Node2</title>
<path fill="none" stroke="#63b8ff" d="M1008.94,-322.69C1025.23,-325.9 1043.27,-328.91 1060,-330.5 1122.42,-336.45 1194.73,-335.15 1241.7,-333.22"/>
<polygon fill="#63b8ff" stroke="#63b8ff" points="1009.97,-319.33 999.47,-320.76 1008.57,-326.19 1009.97,-319.33"/>
</g>
<!-- Node6&#45;&gt;Node5 -->
<g id="edge21" class="edge">
<title>Node6&#45;&gt;Node5</title>
<path fill="none" stroke="#63b8ff" d="M932.71,-293.59C919.07,-282.52 901.13,-267.55 886,-253.5 869.19,-237.89 869.69,-228.27 850,-216.5 841.02,-211.13 830.35,-207.3 820.38,-204.59"/>
<polygon fill="#63b8ff" stroke="#63b8ff" points="930.23,-296.08 940.21,-299.62 934.62,-290.63 930.23,-296.08"/>
</g>
<!-- Node7 -->
<g id="node7" class="node">
<title>Node7</title>
<g id="a_node7"><a xlink:href="TransmitterCode_2src_2main_8cpp.html#ac45477c637c975e13189e2988c8813b3" target="_top" xlink:title=" ">
<polygon fill="white" stroke="#666666" points="826,-356 746,-356 746,-337 826,-337 826,-356"/>
<text text-anchor="middle" x="786" y="-344" font-family="Helvetica,sans-Serif" font-size="10.00">DeleteModelID</text>
</a>
</g>
</g>
<!-- Node6&#45;&gt;Node7 -->
<g id="edge8" class="edge">
<title>Node6&#45;&gt;Node7</title>
<path fill="none" stroke="#63b8ff" d="M900.71,-321.99C876.54,-327.2 848.46,-333.25 826.26,-338.04"/>
<polygon fill="#63b8ff" stroke="#63b8ff" points="901.34,-325.43 910.38,-319.9 899.87,-318.59 901.34,-325.43"/>
</g>
<!-- Node8 -->
<g id="node8" class="node">
<title>Node8</title>
<g id="a_node8"><a xlink:href="TransmitterCode_2src_2main_8cpp.html#a53d438145d004c3b053f245f494f4284" target="_top" xlink:title=" ">
<polygon fill="white" stroke="#666666" points="812,-282 760,-282 760,-263 812,-263 812,-282"/>
<text text-anchor="middle" x="786" y="-270" font-family="Helvetica,sans-Serif" font-size="10.00">DelLOG</text>
</a>
</g>
</g>
<!-- Node6&#45;&gt;Node8 -->
<g id="edge9" class="edge">
<title>Node6&#45;&gt;Node8</title>
<path fill="none" stroke="#63b8ff" d="M900.86,-298.41C871.3,-291.68 835.88,-283.62 812.48,-278.3"/>
<polygon fill="#63b8ff" stroke="#63b8ff" points="899.86,-301.77 910.38,-300.58 901.41,-294.94 899.86,-301.77"/>
</g>
<!-- Node9 -->
<g id="node9" class="node">
<title>Node9</title>
<g id="a_node9"><a xlink:href="TransmitterCode_2src_2main_8cpp.html#a16c65917a148c7f6c17babf11e977b69" target="_top" xlink:title=" ">
<polygon fill="white" stroke="#666666" points="827,-95 745,-95 745,-76 827,-76 827,-95"/>
<text text-anchor="middle" x="786" y="-83" font-family="Helvetica,sans-Serif" font-size="10.00">EndBuddyView</text>
</a>
</g>
</g>
<!-- Node6&#45;&gt;Node9 -->
<g id="edge10" class="edge">
<title>Node6&#45;&gt;Node9</title>
<path fill="none" stroke="#63b8ff" d="M928.12,-294.16C913.91,-284 896.99,-269.79 886,-253.5 857,-210.5 878.18,-186.04 850,-142.5 837.26,-122.81 816.04,-105.59 801.79,-95.37"/>
<polygon fill="#63b8ff" stroke="#63b8ff" points="925.94,-296.91 936.18,-299.66 929.9,-291.13 925.94,-296.91"/>
</g>
<!-- Node10 -->
<g id="node10" class="node">
<title>Node10</title>
<g id="a_node10"><a xlink:href="ModelMatch_8h.html#afdd42b1130d38073be1c2025af855879" target="_top" xlink:title=" ">
<polygon fill="white" stroke="#666666" points="820.5,-430 751.5,-430 751.5,-411 820.5,-411 820.5,-430"/>
<text text-anchor="middle" x="786" y="-418" font-family="Helvetica,sans-Serif" font-size="10.00">IDNotFound</text>
</a>
</g>
</g>
<!-- Node6&#45;&gt;Node10 -->
<g id="edge11" class="edge">
<title>Node6&#45;&gt;Node10</title>
<path fill="none" stroke="#63b8ff" d="M937.96,-328.98C918.95,-349.75 885.38,-383.11 850,-402.5 841.02,-407.42 830.57,-411.1 820.79,-413.82"/>
<polygon fill="#63b8ff" stroke="#63b8ff" points="940.55,-331.33 944.61,-321.54 935.33,-326.66 940.55,-331.33"/>
</g>
<!-- Node17 -->
<g id="node17" class="node">
<title>Node17</title>
<g id="a_node17"><a xlink:href="TransmitterCode_2src_2main_8cpp.html#ae9f91b9da28f2e1e2fb126961f03c31c" target="_top" xlink:title=" ">
<polygon fill="white" stroke="#666666" points="826.5,-171 745.5,-171 745.5,-152 826.5,-152 826.5,-171"/>
<text text-anchor="middle" x="786" y="-159" font-family="Helvetica,sans-Serif" font-size="10.00">ModelViewEnd</text>
</a>
</g>
</g>
<!-- Node6&#45;&gt;Node17 -->
<g id="edge19" class="edge">
<title>Node6&#45;&gt;Node17</title>
<path fill="none" stroke="#63b8ff" d="M929.75,-294.14C915.67,-283.74 898.33,-269.28 886,-253.5 863.49,-224.67 878.02,-203.01 850,-179.5 843.38,-173.94 835.13,-170.1 826.82,-167.44"/>
<polygon fill="#63b8ff" stroke="#63b8ff" points="927.48,-296.82 937.65,-299.78 931.55,-291.12 927.48,-296.82"/>
</g>
<!-- Node6&#45;&gt;Node18 -->
<g id="edge20" class="edge">
<title>Node6&#45;&gt;Node18</title>
<path fill="none" stroke="#63b8ff" d="M933.97,-328.03C919.13,-341.88 899.25,-362.35 886,-383.5 862.47,-421.06 882.73,-446.62 850,-476.5 845.21,-480.87 839.43,-484.19 833.34,-486.7"/>
<polygon fill="#63b8ff" stroke="#63b8ff" points="936.3,-330.64 941.34,-321.33 931.59,-325.47 936.3,-330.64"/>
</g>
<!-- Node19 -->
<g id="node19" class="node">
<title>Node19</title>
<g id="a_node19"><a xlink:href="TransmitterCode_2src_2main_8cpp.html#a75875d66db3193e4034c3768c175f8ef" target="_top" xlink:title=" ">
<polygon fill="white" stroke="#666666" points="819.5,-393 752.5,-393 752.5,-374 819.5,-374 819.5,-393"/>
<text text-anchor="middle" x="786" y="-381" font-family="Helvetica,sans-Serif" font-size="10.00">ResetClock</text>
</a>
</g>
</g>
<!-- Node6&#45;&gt;Node19 -->
<g id="edge22" class="edge">
<title>Node6&#45;&gt;Node19</title>
<path fill="none" stroke="#63b8ff" d="M928.06,-326.17C907.45,-338.13 877.59,-354.4 850,-365.5 840.4,-369.36 829.66,-372.75 819.81,-375.52"/>
<polygon fill="#63b8ff" stroke="#63b8ff" points="929.79,-329.21 936.63,-321.12 926.24,-323.18 929.79,-329.21"/>
</g>
<!-- Node20 -->
<g id="node20" class="node">
<title>Node20</title>
<g id="a_node20"><a xlink:href="TransmitterCode_2src_2main_8cpp.html#a5c7f22bae35d5d6df9d54fe79dbb8401" target="_top" xlink:title=" ">
<polygon fill="white" stroke="#666666" points="850,-245 722,-245 722,-226 850,-226 850,-245"/>
<text text-anchor="middle" x="786" y="-233" font-family="Helvetica,sans-Serif" font-size="10.00">ResetTransmitterSettings</text>
</a>
</g>
</g>
<!-- Node6&#45;&gt;Node20 -->
<g id="edge23" class="edge">
<title>Node6&#45;&gt;Node20</title>
<path fill="none" stroke="#63b8ff" d="M929.14,-294.81C908.54,-282.32 878.19,-265.08 850,-253.5 842.63,-250.47 834.59,-247.76 826.78,-245.41"/>
<polygon fill="#63b8ff" stroke="#63b8ff" points="927.04,-297.63 937.39,-299.89 930.71,-291.67 927.04,-297.63"/>
</g>
<!-- Node21 -->
<g id="node21" class="node">
<title>Node21</title>
<g id="a_node21"><a xlink:href="TransmitterCode_2src_2main_8cpp.html#a3838aa0b33bb22d3b9934da05d2716d8" target="_top" xlink:title=" ">
<polygon fill="white" stroke="#666666" points="824,-467 748,-467 748,-448 824,-448 824,-467"/>
<text text-anchor="middle" x="786" y="-455" font-family="Helvetica,sans-Serif" font-size="10.00">StoreModelID</text>
</a>
</g>
</g>
<!-- Node6&#45;&gt;Node21 -->
<g id="edge24" class="edge">
<title>Node6&#45;&gt;Node21</title>
<path fill="none" stroke="#63b8ff" d="M935.65,-328.37C921.38,-342.67 901.49,-363.57 886,-383.5 867.84,-406.86 873.75,-421.86 850,-439.5 842.51,-445.06 833.36,-448.91 824.37,-451.57"/>
<polygon fill="#63b8ff" stroke="#63b8ff" points="937.99,-330.97 942.63,-321.44 933.07,-326 937.99,-330.97"/>
</g>
<!-- Node22 -->
<g id="node22" class="node">
<title>Node22</title>
<g id="a_node22"><a xlink:href="TransmitterCode_2src_2main_8cpp.html#a3c55ef7c23759a89a86f6519569c4f7a" target="_top" xlink:title=" ">
<polygon fill="white" stroke="#666666" points="835.5,-319 736.5,-319 736.5,-300 835.5,-300 835.5,-319"/>
<text text-anchor="middle" x="786" y="-307" font-family="Helvetica,sans-Serif" font-size="10.00">TXModuleViewEnd</text>
</a>
</g>
</g>
<!-- Node6&#45;&gt;Node22 -->
<g id="edge25" class="edge">
<title>Node6&#45;&gt;Node22</title>
<path fill="none" stroke="#63b8ff" d="M900.37,-310.18C879.68,-310.05 856.17,-309.91 835.94,-309.79"/>
<polygon fill="#63b8ff" stroke="#63b8ff" points="900.32,-313.68 910.35,-310.24 900.37,-306.68 900.32,-313.68"/>
</g>
<!-- Node11 -->
<g id="node11" class="node">
<title>Node11</title>
<g id="a_node11"><a xlink:href="ModelMatch_8h.html#af8fe429ceb65bf9d257a2a0f1c63eccb" target="_top" xlink:title=" ">
<polygon fill="white" stroke="#666666" points="686,-301 584,-301 584,-282 686,-282 686,-301"/>
<text text-anchor="middle" x="635" y="-289" font-family="Helvetica,sans-Serif" font-size="10.00">CompareModelsIDs</text>
</a>
</g>
</g>
<!-- Node10&#45;&gt;Node11 -->
<g id="edge12" class="edge">
<title>Node10&#45;&gt;Node11</title>
<path fill="none" stroke="#63b8ff" d="M740.35,-411.6C733.89,-409.24 727.55,-406.26 722,-402.5 681.62,-375.17 651.84,-322.8 640.75,-301.19"/>
<polygon fill="#63b8ff" stroke="#63b8ff" points="739.2,-414.91 749.79,-414.57 741.3,-408.23 739.2,-414.91"/>
</g>
<!-- Node12 -->
<g id="node12" class="node">
<title>Node12</title>
<g id="a_node12"><a xlink:href="ModelMatch_8h.html#a494cb4acb30856d1f53f08df1b80c41b" target="_top" xlink:title=" ">
<polygon fill="white" stroke="#666666" points="547.5,-301 428.5,-301 428.5,-282 547.5,-282 547.5,-301"/>
<text text-anchor="middle" x="488" y="-289" font-family="Helvetica,sans-Serif" font-size="10.00">GetModelsMacAddress</text>
</a>
</g>
</g>
<!-- Node11&#45;&gt;Node12 -->
<g id="edge13" class="edge">
<title>Node11&#45;&gt;Node12</title>
<path fill="none" stroke="#63b8ff" d="M572.4,-291.5C564.29,-291.5 556,-291.5 547.94,-291.5"/>
<polygon fill="#63b8ff" stroke="#63b8ff" points="572.18,-295 582.18,-291.5 572.18,-288 572.18,-295"/>
</g>
<!-- Node13 -->
<g id="node13" class="node">
<title>Node13</title>
<g id="a_node13"><a xlink:href="TransmitterCode_2src_2main_8cpp.html#a694f4f5a0147f4dc29b0bc1a8951547d" target="_top" xlink:title=" ">
<polygon fill="white" stroke="#666666" points="392,-301 298,-301 298,-282 392,-282 392,-301"/>
<text text-anchor="middle" x="345" y="-289" font-family="Helvetica,sans-Serif" font-size="10.00">ParseAckPayload</text>
</a>
</g>
</g>
<!-- Node12&#45;&gt;Node13 -->
<g id="edge14" class="edge">
<title>Node12&#45;&gt;Node13</title>
<path fill="none" stroke="#63b8ff" d="M416.75,-291.5C408.46,-291.5 400.16,-291.5 392.31,-291.5"/>
<polygon fill="#63b8ff" stroke="#63b8ff" points="416.51,-295 426.51,-291.5 416.51,-288 416.51,-295"/>
</g>
<!-- Node14 -->
<g id="node14" class="node">
<title>Node14</title>
<g id="a_node14"><a xlink:href="transceiver_8h.html#a1c11bb6771548de7d96723045b922620" target="_top" xlink:title=" ">
<polygon fill="white" stroke="#666666" points="262,-301 166,-301 166,-282 262,-282 262,-301"/>
<text text-anchor="middle" x="214" y="-289" font-family="Helvetica,sans-Serif" font-size="10.00">SuccessfulPacket</text>
</a>
</g>
</g>
<!-- Node13&#45;&gt;Node14 -->
<g id="edge15" class="edge">
<title>Node13&#45;&gt;Node14</title>
<path fill="none" stroke="#63b8ff" d="M286.47,-291.5C278.35,-291.5 270.08,-291.5 262.19,-291.5"/>
<polygon fill="#63b8ff" stroke="#63b8ff" points="286.28,-295 296.28,-291.5 286.28,-288 286.28,-295"/>
</g>
<!-- Node15 -->
<g id="node15" class="node">
<title>Node15</title>
<g id="a_node15"><a xlink:href="transceiver_8h.html#a049bfb836e7aa4a3a48a1a4bd225fafc" target="_top" xlink:title=" ">
<polygon fill="white" stroke="#666666" points="130,-301 71,-301 71,-282 130,-282 130,-301"/>
<text text-anchor="middle" x="100.5" y="-289" font-family="Helvetica,sans-Serif" font-size="10.00">SendData</text>
</a>
</g>
</g>
<!-- Node14&#45;&gt;Node15 -->
<g id="edge16" class="edge">
<title>Node14&#45;&gt;Node15</title>
<path fill="none" stroke="#63b8ff" d="M154.39,-291.5C146.07,-291.5 137.83,-291.5 130.43,-291.5"/>
<polygon fill="#63b8ff" stroke="#63b8ff" points="154.2,-295 164.2,-291.5 154.2,-288 154.2,-295"/>
</g>
<!-- Node15&#45;&gt;Node2 -->
<g id="edge17" class="edge">
<title>Node15&#45;&gt;Node2</title>
<path fill="none" stroke="#63b8ff" d="M108.1,-312.16C130.11,-376.58 207.42,-569.5 344,-569.5 956,-569.5 956,-569.5 956,-569.5 1116.55,-569.5 1253.53,-385.7 1284.8,-340.47"/>
<polygon fill="#63b8ff" stroke="#63b8ff" points="111.48,-311.22 105.01,-302.83 104.83,-313.42 111.48,-311.22"/>
</g>
<!-- Node16 -->
<g id="node16" class="node">
<title>Node16</title>
<g id="a_node16"><a xlink:href="TransmitterCode_2src_2main_8cpp.html#ad3cb30894c94eb016e98bdcaa899ac86" target="_top" xlink:title=" ">
<polygon fill="white" stroke="#666666" points="35,-133 0,-133 0,-114 35,-114 35,-133"/>
<text text-anchor="middle" x="17.5" y="-121" font-family="Helvetica,sans-Serif" font-size="10.00">loop</text>
</a>
</g>
</g>
<!-- Node15&#45;&gt;Node16 -->
<g id="edge18" class="edge">
<title>Node15&#45;&gt;Node16</title>
<path fill="none" stroke="#63b8ff" d="M89.98,-271.76C72.58,-235.67 36.23,-160.27 23.24,-133.33"/>
<polygon fill="#63b8ff" stroke="#63b8ff" points="86.76,-273.14 94.26,-280.62 93.07,-270.1 86.76,-273.14"/>
</g>
<!-- Node23&#45;&gt;Node16 -->
<g id="edge27" class="edge">
<title>Node23&#45;&gt;Node16</title>
<path fill="none" stroke="#63b8ff" d="M893.51,-149.48C879.28,-146.92 864.14,-144.41 850,-142.5 755.38,-129.68 731.49,-123.5 636,-123.5 636,-123.5 636,-123.5 213,-123.5 147.32,-123.5 69.17,-123.5 35.41,-123.5"/>
<polygon fill="#63b8ff" stroke="#63b8ff" points="892.73,-152.89 903.2,-151.26 893.99,-146.01 892.73,-152.89"/>
</g>
<!-- Node24&#45;&gt;Node7 -->
<g id="edge29" class="edge">
<title>Node24&#45;&gt;Node7</title>
<path fill="none" stroke="#63b8ff" d="M918.09,-388.67C898.11,-381.63 872.75,-372.86 850,-365.5 840.54,-362.44 830.24,-359.26 820.75,-356.41"/>
<polygon fill="#63b8ff" stroke="#63b8ff" points="916.86,-391.95 927.45,-391.98 919.19,-385.35 916.86,-391.95"/>
</g>
<!-- Node24&#45;&gt;Node10 -->
<g id="edge30" class="edge">
<title>Node24&#45;&gt;Node10</title>
<path fill="none" stroke="#63b8ff" d="M917.41,-405.66C888.6,-408.94 848.74,-413.48 820.7,-416.67"/>
<polygon fill="#63b8ff" stroke="#63b8ff" points="917.59,-409.16 927.13,-404.56 916.8,-402.21 917.59,-409.16"/>
</g>
<!-- Node24&#45;&gt;Node19 -->
<g id="edge31" class="edge">
<title>Node24&#45;&gt;Node19</title>
<path fill="none" stroke="#63b8ff" d="M917.3,-397.54C888.18,-394.41 847.85,-390.06 819.8,-387.03"/>
<polygon fill="#63b8ff" stroke="#63b8ff" points="916.81,-401.01 927.13,-398.6 917.56,-394.05 916.81,-401.01"/>
</g>
<!-- Node24&#45;&gt;Node21 -->
<g id="edge33" class="edge">
<title>Node24&#45;&gt;Node21</title>
<path fill="none" stroke="#63b8ff" d="M917.79,-415.46C897.9,-422.94 872.72,-432.11 850,-439.5 841.45,-442.28 832.18,-445.06 823.45,-447.57"/>
<polygon fill="#63b8ff" stroke="#63b8ff" points="919.01,-418.74 927.12,-411.92 916.53,-412.19 919.01,-418.74"/>
</g>
<!-- Node25 -->
<g id="node25" class="node">
<title>Node25</title>
<g id="a_node25"><a xlink:href="ModelExchange_8h.html#ac36bdea2efcd030a336293af16f5dc09" target="_top" xlink:title=" ">
<polygon fill="white" stroke="#666666" points="828.5,-541 743.5,-541 743.5,-522 828.5,-522 828.5,-541"/>
<text text-anchor="middle" x="786" y="-529" font-family="Helvetica,sans-Serif" font-size="10.00">ShowRemoteID</text>
</a>
</g>
</g>
<!-- Node24&#45;&gt;Node25 -->
<g id="edge32" class="edge">
<title>Node24&#45;&gt;Node25</title>
<path fill="none" stroke="#63b8ff" d="M941.24,-420.75C923.65,-445.79 889.58,-489.21 850,-513.5 843.5,-517.49 836.09,-520.62 828.69,-523.07"/>
<polygon fill="#63b8ff" stroke="#63b8ff" points="944.13,-422.73 946.89,-412.5 938.35,-418.77 944.13,-422.73"/>
</g>
<!-- Node28&#45;&gt;Node9 -->
<g id="edge43" class="edge">
<title>Node28&#45;&gt;Node9</title>
<path fill="none" stroke="#63b8ff" d="M1239.74,-135.68C1228.61,-134.26 1216.92,-132.8 1206,-131.5 1067.21,-114.95 902.28,-97.49 827.48,-89.69"/>
<polygon fill="#63b8ff" stroke="#63b8ff" points="1239.2,-139.14 1249.57,-136.95 1240.1,-132.2 1239.2,-139.14"/>
</g>
<!-- Node28&#45;&gt;Node11 -->
<g id="edge42" class="edge">
<title>Node28&#45;&gt;Node11</title>
<path fill="none" stroke="#63b8ff" d="M1255.33,-128.48C1236.61,-121.41 1215.69,-113.84 1206,-111.5 1100.99,-86.16 810.98,-5.25 722,-66.5 646.91,-118.19 637.34,-245.01 636.16,-281.52"/>
<polygon fill="#63b8ff" stroke="#63b8ff" points="1253.99,-131.72 1264.58,-132.01 1256.48,-125.17 1253.99,-131.72"/>
</g>
<!-- Node28&#45;&gt;Node17 -->
<g id="edge50" class="edge">
<title>Node28&#45;&gt;Node17</title>
<path fill="none" stroke="#63b8ff" d="M1239.79,-139.38C1162.57,-135.42 1012.66,-130.46 886,-142.5 866.31,-144.37 844.72,-148.29 826.73,-152.09"/>
<polygon fill="#63b8ff" stroke="#63b8ff" points="1239.41,-142.86 1249.58,-139.89 1239.78,-135.87 1239.41,-142.86"/>
</g>
<!-- Node29 -->
<g id="node29" class="node">
<title>Node29</title>
<g id="a_node29"><a xlink:href="TransmitterCode_2src_2main_8cpp.html#a6ae37c6938b8c10b83d1bc74e8643bd9" target="_top" xlink:title=" ">
<polygon fill="white" stroke="#666666" points="1189.5,-171 1076.5,-171 1076.5,-152 1189.5,-152 1189.5,-171"/>
<text text-anchor="middle" x="1133" y="-159" font-family="Helvetica,sans-Serif" font-size="10.00">CheckPowerOffButton</text>
</a>
</g>
</g>
<!-- Node28&#45;&gt;Node29 -->
<g id="edge38" class="edge">
<title>Node28&#45;&gt;Node29</title>
<path fill="none" stroke="#63b8ff" d="M1240.01,-148.71C1223.95,-150.65 1206.16,-152.79 1189.82,-154.77"/>
<polygon fill="#63b8ff" stroke="#63b8ff" points="1240.34,-152.2 1249.85,-147.52 1239.5,-145.25 1240.34,-152.2"/>
</g>
<!-- Node30 -->
<g id="node30" class="node">
<title>Node30</title>
<g id="a_node30"><a xlink:href="TransmitterCode_2src_2main_8cpp.html#a2149418bb038e4a09266523c3bde2fce" target="_top" xlink:title=" ">
<polygon fill="white" stroke="#666666" points="1175.5,-208 1090.5,-208 1090.5,-189 1175.5,-189 1175.5,-208"/>
<text text-anchor="middle" x="1133" y="-196" font-family="Helvetica,sans-Serif" font-size="10.00">EndModelSetup</text>
</a>
</g>
</g>
<!-- Node28&#45;&gt;Node30 -->
<g id="edge44" class="edge">
<title>Node28&#45;&gt;Node30</title>
<path fill="none" stroke="#63b8ff" d="M1260.7,-157.16C1244.63,-164.47 1224.5,-173.1 1206,-179.5 1196.35,-182.84 1185.8,-185.93 1175.82,-188.6"/>
<polygon fill="#63b8ff" stroke="#63b8ff" points="1262.13,-160.36 1269.74,-152.99 1259.19,-154.01 1262.13,-160.36"/>
</g>
<!-- Node31 -->
<g id="node31" class="node">
<title>Node31</title>
<g id="a_node31"><a xlink:href="BuddyWireless_8h.html#ab0ba1642fb6c43525579b989c7b60dad" target="_top" xlink:title=" ">
<polygon fill="white" stroke="#666666" points="1181,-19 1085,-19 1085,0 1181,0 1181,-19"/>
<text text-anchor="middle" x="1133" y="-7" font-family="Helvetica,sans-Serif" font-size="10.00">LoadCorrectModel</text>
</a>
</g>
</g>
<!-- Node28&#45;&gt;Node31 -->
<g id="edge45" class="edge">
<title>Node28&#45;&gt;Node31</title>
<path fill="none" stroke="#63b8ff" d="M1245.33,-126.45C1244.16,-125.52 1243.05,-124.54 1242,-123.5 1211.32,-93.25 1237.34,-63.06 1206,-33.5 1199.1,-26.99 1190.38,-22.25 1181.42,-18.79"/>
<polygon fill="#63b8ff" stroke="#63b8ff" points="1243.44,-129.39 1253.76,-131.78 1247.18,-123.47 1243.44,-129.39"/>
</g>
<!-- Node35 -->
<g id="node35" class="node">
<title>Node35</title>
<g id="a_node35"><a xlink:href="TransmitterCode_2src_2main_8cpp.html#a17699f358cf9f7c3155a9c5daf8ff13c" target="_top" xlink:title=" ">
<polygon fill="white" stroke="#666666" points="1153.5,-245 1112.5,-245 1112.5,-226 1153.5,-226 1153.5,-245"/>
<text text-anchor="middle" x="1133" y="-233" font-family="Helvetica,sans-Serif" font-size="10.00">setup</text>
</a>
</g>
</g>
<!-- Node28&#45;&gt;Node35 -->
<g id="edge51" class="edge">
<title>Node28&#45;&gt;Node35</title>
<path fill="none" stroke="#63b8ff" d="M1275.68,-160.24C1259.7,-177.1 1233.5,-201.98 1206,-216.5 1189.54,-225.19 1168.81,-230.12 1153.83,-232.76"/>
<polygon fill="#63b8ff" stroke="#63b8ff" points="1277.82,-163.08 1282.03,-153.36 1272.68,-158.33 1277.82,-163.08"/>
</g>
<!-- Node29&#45;&gt;Node4 -->
<g id="edge39" class="edge">
<title>Node29&#45;&gt;Node4</title>
<path fill="none" stroke="#63b8ff" d="M1074.28,-174.56C1069.4,-176.08 1064.58,-177.72 1060,-179.5 1026.92,-192.31 991.05,-213.38 971.28,-225.7"/>
<polygon fill="#63b8ff" stroke="#63b8ff" points="1074.91,-178.02 1083.54,-171.87 1072.96,-171.3 1074.91,-178.02"/>
</g>
<!-- Node29&#45;&gt;Node6 -->
<g id="edge40" class="edge">
<title>Node29&#45;&gt;Node6</title>
<path fill="none" stroke="#63b8ff" d="M1065.94,-175.3C1063.86,-176.58 1061.88,-177.98 1060,-179.5 1031.6,-202.54 1046.51,-224.67 1024,-253.5 1008.83,-272.93 986.06,-290.34 971.12,-300.66"/>
<polygon fill="#63b8ff" stroke="#63b8ff" points="1067.47,-178.45 1074.81,-170.81 1064.31,-172.21 1067.47,-178.45"/>
</g>
<!-- Node29&#45;&gt;Node23 -->
<g id="edge41" class="edge">
<title>Node29&#45;&gt;Node23</title>
<path fill="none" stroke="#63b8ff" d="M1064.98,-161.5C1045.38,-161.5 1024.31,-161.5 1005.96,-161.5"/>
<polygon fill="#63b8ff" stroke="#63b8ff" points="1064.8,-165 1074.8,-161.5 1064.8,-158 1064.8,-165"/>
</g>
<!-- Node32 -->
<g id="node32" class="node">
<title>Node32</title>
<g id="a_node32"><a xlink:href="BuddyWireless_8h.html#abe67b2cf1cd907bd032ea0a712f1c4cb" target="_top" xlink:title=" ">
<polygon fill="white" stroke="#666666" points="1024,-19 886,-19 886,0 1024,0 1024,-19"/>
<text text-anchor="middle" x="955" y="-7" font-family="Helvetica,sans-Serif" font-size="10.00">CheckModelMatchesMaster</text>
</a>
</g>
</g>
<!-- Node31&#45;&gt;Node32 -->
<g id="edge46" class="edge">
<title>Node31&#45;&gt;Node32</title>
<path fill="none" stroke="#63b8ff" d="M1073.66,-9.5C1057.91,-9.5 1040.72,-9.5 1024.48,-9.5"/>
<polygon fill="#63b8ff" stroke="#63b8ff" points="1073.32,-13 1083.32,-9.5 1073.32,-6 1073.32,-13"/>
</g>
<!-- Node33 -->
<g id="node33" class="node">
<title>Node33</title>
<g id="a_node33"><a xlink:href="BuddyWireless_8h.html#af63784896d400ae2d75d57852e143ca1" target="_top" xlink:title=" ">
<polygon fill="white" stroke="#666666" points="833.5,-19 738.5,-19 738.5,0 833.5,0 833.5,-19"/>
<text text-anchor="middle" x="786" y="-7" font-family="Helvetica,sans-Serif" font-size="10.00">GetSpecialPacket</text>
</a>
</g>
</g>
<!-- Node32&#45;&gt;Node33 -->
<g id="edge47" class="edge">
<title>Node32&#45;&gt;Node33</title>
<path fill="none" stroke="#63b8ff" d="M874.44,-9.5C860.46,-9.5 846.33,-9.5 833.63,-9.5"/>
<polygon fill="#63b8ff" stroke="#63b8ff" points="874.08,-13 884.08,-9.5 874.08,-6 874.08,-13"/>
</g>
<!-- Node34 -->
<g id="node34" class="node">
<title>Node34</title>
<g id="a_node34"><a xlink:href="TransmitterCode_2src_2main_8cpp.html#ad2c7ed441d88f2a2b2fca83ff61e714d" target="_top" xlink:title=" ">
<polygon fill="white" stroke="#666666" points="548,-76 428,-76 428,-57 548,-57 548,-76"/>
<text text-anchor="middle" x="488" y="-64" font-family="Helvetica,sans-Serif" font-size="10.00">DoWirelessBuddyListen</text>
</a>
</g>
</g>
<!-- Node33&#45;&gt;Node34 -->
<g id="edge48" class="edge">
<title>Node33&#45;&gt;Node34</title>
<path fill="none" stroke="#63b8ff" d="M726.97,-20.68C672.87,-31.09 592.94,-46.48 540.91,-56.5"/>
<polygon fill="#63b8ff" stroke="#63b8ff" points="727.45,-24.15 736.61,-18.82 726.13,-17.27 727.45,-24.15"/>
</g>
<!-- Node34&#45;&gt;Node16 -->
<g id="edge49" class="edge">
<title>Node34&#45;&gt;Node16</title>
<path fill="none" stroke="#63b8ff" d="M416.35,-70.4C333.2,-75.77 191.21,-87.4 71,-109.5 58.94,-111.72 45.59,-115.29 35.37,-118.28"/>
<polygon fill="#63b8ff" stroke="#63b8ff" points="416.41,-73.9 426.17,-69.78 415.97,-66.92 416.41,-73.9"/>
</g>
</g>
</svg>
