<?xml version="1.0" encoding="UTF-8" standalone="no"?>
<!DOCTYPE svg PUBLIC "-//W3C//DTD SVG 1.1//EN"
 "http://www.w3.org/Graphics/SVG/1.1/DTD/svg11.dtd">
<!-- Generated by graphviz version 3.0.0 (20220413.0242)
 -->
<!-- Title: LogFilePreamble Pages: 1 -->
<svg width="1327pt" height="560pt"
 viewBox="0.00 0.00 1327.00 560.00" xmlns="http://www.w3.org/2000/svg" xmlns:xlink="http://www.w3.org/1999/xlink">
<g id="graph0" class="graph" transform="scale(1 1) rotate(0) translate(4 556)">
<title>LogFilePreamble</title>
<polygon fill="white" stroke="transparent" points="-4,4 -4,-556 1323,-556 1323,4 -4,4"/>
<!-- Node1 -->
<g id="node1" class="node">
<title>Node1</title>
<g id="a_node1"><a xlink:title=" ">
<polygon fill="#bfbfbf" stroke="black" points="1229,-285.5 1229,-304.5 1319,-304.5 1319,-285.5 1229,-285.5"/>
<text text-anchor="middle" x="1274" y="-292.5" font-family="Helvetica,sans-Serif" font-size="10.00">LogFilePreamble</text>
</a>
</g>
</g>
<!-- Node2 -->
<g id="node2" class="node">
<title>Node2</title>
<g id="a_node2"><a xlink:href="TransmitterCode_2src_2main_8cpp.html#add8d8f400f1c1c4a5add52736cdf94ca" target="_top" xlink:title=" ">
<polygon fill="white" stroke="black" points="1141,-285.5 1141,-304.5 1193,-304.5 1193,-285.5 1141,-285.5"/>
<text text-anchor="middle" x="1167" y="-292.5" font-family="Helvetica,sans-Serif" font-size="10.00">LogText</text>
</a>
</g>
</g>
<!-- Node1&#45;&gt;Node2 -->
<g id="edge1" class="edge">
<title>Node1&#45;&gt;Node2</title>
<path fill="none" stroke="midnightblue" d="M1218.67,-295C1209.7,-295 1200.8,-295 1193.02,-295"/>
<polygon fill="midnightblue" stroke="midnightblue" points="1218.77,-298.5 1228.77,-295 1218.77,-291.5 1218.77,-298.5"/>
</g>
<!-- Node3 -->
<g id="node3" class="node">
<title>Node3</title>
<g id="a_node3"><a xlink:href="TransmitterCode_2src_2main_8cpp.html#aaa3e86084c43b049d52d7d62c58a00b9" target="_top" xlink:title=" ">
<polygon fill="white" stroke="black" points="888.5,-380.5 888.5,-399.5 970.5,-399.5 970.5,-380.5 888.5,-380.5"/>
<text text-anchor="middle" x="929.5" y="-387.5" font-family="Helvetica,sans-Serif" font-size="10.00">LogConnection</text>
</a>
</g>
</g>
<!-- Node2&#45;&gt;Node3 -->
<g id="edge2" class="edge">
<title>Node2&#45;&gt;Node3</title>
<path fill="none" stroke="midnightblue" d="M1141.09,-309.6C1130.21,-315.69 1117.17,-322.59 1105,-328 1056.24,-349.7 997.34,-369.32 961.96,-380.44"/>
<polygon fill="midnightblue" stroke="midnightblue" points="1143.07,-312.51 1150.03,-304.52 1139.61,-306.42 1143.07,-312.51"/>
</g>
<!-- Node15 -->
<g id="node15" class="node">
<title>Node15</title>
<g id="a_node15"><a xlink:href="TransmitterCode_2src_2main_8cpp.html#a2d5ec5fd5ed62d5b7b071fabe2225405" target="_top" xlink:title=" ">
<polygon fill="white" stroke="black" points="740,-314.5 740,-333.5 836,-333.5 836,-314.5 740,-314.5"/>
<text text-anchor="middle" x="788" y="-321.5" font-family="Helvetica,sans-Serif" font-size="10.00">LogDisConnection</text>
</a>
</g>
</g>
<!-- Node2&#45;&gt;Node15 -->
<g id="edge22" class="edge">
<title>Node2&#45;&gt;Node15</title>
<path fill="none" stroke="midnightblue" d="M1130.77,-297.71C1062.66,-302.95 912.92,-314.47 836.25,-320.37"/>
<polygon fill="midnightblue" stroke="midnightblue" points="1131.27,-301.18 1140.97,-296.93 1130.73,-294.2 1131.27,-301.18"/>
</g>
<!-- Node16 -->
<g id="node16" class="node">
<title>Node16</title>
<g id="a_node16"><a xlink:href="TransmitterCode_2src_2main_8cpp.html#aac4334531357e4221222c7fc8c5cf817" target="_top" xlink:title=" ">
<polygon fill="white" stroke="black" points="1022,-456.5 1022,-475.5 1105,-475.5 1105,-456.5 1022,-456.5"/>
<text text-anchor="middle" x="1063.5" y="-463.5" font-family="Helvetica,sans-Serif" font-size="10.00">LogLowBattery</text>
</a>
</g>
</g>
<!-- Node2&#45;&gt;Node16 -->
<g id="edge24" class="edge">
<title>Node2&#45;&gt;Node16</title>
<path fill="none" stroke="midnightblue" d="M1162.08,-314.49C1155.16,-344.8 1138.22,-403.71 1105,-442 1099.97,-447.8 1093.17,-452.58 1086.58,-456.3"/>
<polygon fill="midnightblue" stroke="midnightblue" points="1165.51,-315.23 1164.2,-304.71 1158.66,-313.75 1165.51,-315.23"/>
</g>
<!-- Node17 -->
<g id="node17" class="node">
<title>Node17</title>
<g id="a_node17"><a xlink:href="TransmitterCode_2src_2main_8cpp.html#af7b3b351c80f0b43c13a4ccb440b2f2e" target="_top" xlink:title=" ">
<polygon fill="white" stroke="black" points="1030,-380.5 1030,-399.5 1097,-399.5 1097,-380.5 1030,-380.5"/>
<text text-anchor="middle" x="1063.5" y="-387.5" font-family="Helvetica,sans-Serif" font-size="10.00">LogMinGap</text>
</a>
</g>
</g>
<!-- Node2&#45;&gt;Node17 -->
<g id="edge25" class="edge">
<title>Node2&#45;&gt;Node17</title>
<path fill="none" stroke="midnightblue" d="M1153.38,-312.73C1141.91,-328.03 1123.94,-350.11 1105,-366 1098.49,-371.46 1090.58,-376.45 1083.49,-380.44"/>
<polygon fill="midnightblue" stroke="midnightblue" points="1156.25,-314.74 1159.34,-304.6 1150.6,-310.6 1156.25,-314.74"/>
</g>
<!-- Node18 -->
<g id="node18" class="node">
<title>Node18</title>
<g id="a_node18"><a xlink:href="TransmitterCode_2src_2main_8cpp.html#ac45afae9da9cc313054a4c41e1ce1757" target="_top" xlink:title=" ">
<polygon fill="white" stroke="black" points="900.5,-0.5 900.5,-19.5 958.5,-19.5 958.5,-0.5 900.5,-0.5"/>
<text text-anchor="middle" x="929.5" y="-7.5" font-family="Helvetica,sans-Serif" font-size="10.00">LogMotor</text>
</a>
</g>
</g>
<!-- Node2&#45;&gt;Node18 -->
<g id="edge27" class="edge">
<title>Node2&#45;&gt;Node18</title>
<path fill="none" stroke="midnightblue" d="M1166.61,-275.06C1166.84,-231.35 1161.13,-126.26 1105,-67 1066.1,-25.93 997.25,-14.41 958.69,-11.21"/>
<polygon fill="midnightblue" stroke="midnightblue" points="1163.11,-275.17 1166.44,-285.23 1170.11,-275.29 1163.11,-275.17"/>
</g>
<!-- Node20 -->
<g id="node20" class="node">
<title>Node20</title>
<g id="a_node20"><a xlink:href="TransmitterCode_2src_2main_8cpp.html#a32be1544c90acbd0fb13568c35213510" target="_top" xlink:title=" ">
<polygon fill="white" stroke="black" points="891.5,-114.5 891.5,-133.5 967.5,-133.5 967.5,-114.5 891.5,-114.5"/>
<text text-anchor="middle" x="929.5" y="-121.5" font-family="Helvetica,sans-Serif" font-size="10.00">LogNewBank</text>
</a>
</g>
</g>
<!-- Node2&#45;&gt;Node20 -->
<g id="edge30" class="edge">
<title>Node2&#45;&gt;Node20</title>
<path fill="none" stroke="midnightblue" d="M1164.33,-274.8C1160.38,-241.39 1147.36,-175.12 1105,-143 1065.54,-113.08 1005.87,-113.49 967.54,-117.78"/>
<polygon fill="midnightblue" stroke="midnightblue" points="1160.88,-275.55 1165.37,-285.14 1167.85,-274.84 1160.88,-275.55"/>
</g>
<!-- Node21 -->
<g id="node21" class="node">
<title>Node21</title>
<g id="a_node21"><a xlink:href="TransmitterCode_2src_2main_8cpp.html#a31e9d94f45a152e1cbc436284799ca37" target="_top" xlink:title=" ">
<polygon fill="white" stroke="black" points="360.5,-266.5 360.5,-285.5 434.5,-285.5 434.5,-266.5 360.5,-266.5"/>
<text text-anchor="middle" x="397.5" y="-273.5" font-family="Helvetica,sans-Serif" font-size="10.00">LogPowerOff</text>
</a>
</g>
</g>
<!-- Node2&#45;&gt;Node21 -->
<g id="edge32" class="edge">
<title>Node2&#45;&gt;Node21</title>
<path fill="none" stroke="midnightblue" d="M1130.92,-290.4C1084.97,-284.77 1001.85,-276 930.5,-276 930.5,-276 930.5,-276 654,-276 575.93,-276 484.44,-276 434.89,-276"/>
<polygon fill="midnightblue" stroke="midnightblue" points="1130.6,-293.88 1140.96,-291.65 1131.47,-286.94 1130.6,-293.88"/>
</g>
<!-- Node23 -->
<g id="node23" class="node">
<title>Node23</title>
<g id="a_node23"><a xlink:href="TransmitterCode_2src_2main_8cpp.html#a7d93a2500f52d72210903c46a85ce820" target="_top" xlink:title=" ">
<polygon fill="white" stroke="black" points="1026.5,-152.5 1026.5,-171.5 1100.5,-171.5 1100.5,-152.5 1026.5,-152.5"/>
<text text-anchor="middle" x="1063.5" y="-159.5" font-family="Helvetica,sans-Serif" font-size="10.00">LogPowerOn</text>
</a>
</g>
</g>
<!-- Node2&#45;&gt;Node23 -->
<g id="edge36" class="edge">
<title>Node2&#45;&gt;Node23</title>
<path fill="none" stroke="midnightblue" d="M1159.99,-275.77C1151.38,-250.99 1133.37,-207.91 1105,-181 1101.06,-177.26 1096.24,-174.14 1091.33,-171.59"/>
<polygon fill="midnightblue" stroke="midnightblue" points="1156.73,-277.06 1163.2,-285.46 1163.37,-274.86 1156.73,-277.06"/>
</g>
<!-- Node25 -->
<g id="node25" class="node">
<title>Node25</title>
<g id="a_node25"><a xlink:href="TransmitterCode_2src_2main_8cpp.html#a0ed2fd04eebb4fd11b61b6fddd5d2590" target="_top" xlink:title=" ">
<polygon fill="white" stroke="black" points="1033,-76.5 1033,-95.5 1094,-95.5 1094,-76.5 1033,-76.5"/>
<text text-anchor="middle" x="1063.5" y="-83.5" font-family="Helvetica,sans-Serif" font-size="10.00">LogSafety</text>
</a>
</g>
</g>
<!-- Node2&#45;&gt;Node25 -->
<g id="edge38" class="edge">
<title>Node2&#45;&gt;Node25</title>
<path fill="none" stroke="midnightblue" d="M1164.05,-275.18C1159.55,-238.79 1145.54,-160.42 1105,-110 1100.29,-104.14 1093.73,-99.39 1087.27,-95.71"/>
<polygon fill="midnightblue" stroke="midnightblue" points="1160.61,-275.89 1165.19,-285.44 1167.56,-275.11 1160.61,-275.89"/>
</g>
<!-- Node28 -->
<g id="node28" class="node">
<title>Node28</title>
<g id="a_node28"><a xlink:href="TransmitterCode_2src_2main_8cpp.html#a1fadc7cdd854f8b3628b622da5417d8b" target="_top" xlink:title=" ">
<polygon fill="white" stroke="black" points="1028.5,-532.5 1028.5,-551.5 1098.5,-551.5 1098.5,-532.5 1028.5,-532.5"/>
<text text-anchor="middle" x="1063.5" y="-539.5" font-family="Helvetica,sans-Serif" font-size="10.00">LogThisGap</text>
</a>
</g>
</g>
<!-- Node2&#45;&gt;Node28 -->
<g id="edge43" class="edge">
<title>Node2&#45;&gt;Node28</title>
<path fill="none" stroke="midnightblue" d="M1166.05,-314.72C1165.15,-357.61 1157.27,-460.54 1105,-523 1101.81,-526.81 1097.68,-529.91 1093.29,-532.4"/>
<polygon fill="midnightblue" stroke="midnightblue" points="1169.56,-314.55 1166.16,-304.51 1162.56,-314.48 1169.56,-314.55"/>
</g>
<!-- Node30 -->
<g id="node30" class="node">
<title>Node30</title>
<g id="a_node30"><a xlink:href="TransmitterCode_2src_2main_8cpp.html#afd409fe008843b50c3e2ff697558d4d5" target="_top" xlink:title=" ">
<polygon fill="white" stroke="black" points="609,-428.5 609,-447.5 701,-447.5 701,-428.5 609,-428.5"/>
<text text-anchor="middle" x="655" y="-435.5" font-family="Helvetica,sans-Serif" font-size="10.00">LogThisLongGap</text>
</a>
</g>
</g>
<!-- Node2&#45;&gt;Node30 -->
<g id="edge46" class="edge">
<title>Node2&#45;&gt;Node30</title>
<path fill="none" stroke="midnightblue" d="M1161.67,-314.84C1154.73,-341.36 1138.36,-387.52 1105,-409 976.1,-491.98 780.96,-464.78 696.9,-447.56"/>
<polygon fill="midnightblue" stroke="midnightblue" points="1165.15,-315.34 1164.09,-304.8 1158.35,-313.7 1165.15,-315.34"/>
</g>
<!-- Node31 -->
<g id="node31" class="node">
<title>Node31</title>
<g id="a_node31"><a xlink:href="TransmitterCode_2src_2main_8cpp.html#a83944fc0ecaab86d0bbb0802e99e5084" target="_top" xlink:title=" ">
<polygon fill="white" stroke="black" points="1024.5,-190.5 1024.5,-209.5 1102.5,-209.5 1102.5,-190.5 1024.5,-190.5"/>
<text text-anchor="middle" x="1063.5" y="-197.5" font-family="Helvetica,sans-Serif" font-size="10.00">LogThisModel</text>
</a>
</g>
</g>
<!-- Node2&#45;&gt;Node31 -->
<g id="edge48" class="edge">
<title>Node2&#45;&gt;Node31</title>
<path fill="none" stroke="midnightblue" d="M1153.38,-277.27C1141.91,-261.97 1123.94,-239.89 1105,-224 1098.49,-218.54 1090.58,-213.55 1083.49,-209.56"/>
<polygon fill="midnightblue" stroke="midnightblue" points="1150.6,-279.4 1159.34,-285.4 1156.25,-275.26 1150.6,-279.4"/>
</g>
<!-- Node33 -->
<g id="node33" class="node">
<title>Node33</title>
<g id="a_node33"><a xlink:href="TransmitterCode_2src_2main_8cpp.html#a900aa27c1353238593c276186d960912" target="_top" xlink:title=" ">
<polygon fill="white" stroke="black" points="1031,-494.5 1031,-513.5 1096,-513.5 1096,-494.5 1031,-494.5"/>
<text text-anchor="middle" x="1063.5" y="-501.5" font-family="Helvetica,sans-Serif" font-size="10.00">LogThisRX</text>
</a>
</g>
</g>
<!-- Node2&#45;&gt;Node33 -->
<g id="edge52" class="edge">
<title>Node2&#45;&gt;Node33</title>
<path fill="none" stroke="midnightblue" d="M1164.76,-314.72C1161.41,-352.27 1149.17,-434.79 1105,-485 1101.61,-488.85 1097.28,-491.98 1092.72,-494.5"/>
<polygon fill="midnightblue" stroke="midnightblue" points="1168.26,-314.83 1165.54,-304.59 1161.28,-314.29 1168.26,-314.83"/>
</g>
<!-- Node36 -->
<g id="node36" class="node">
<title>Node36</title>
<g id="a_node36"><a xlink:href="TransmitterCode_2src_2main_8cpp.html#afe8648b7a9a00742332cb5967fc1ad14" target="_top" xlink:title=" ">
<polygon fill="white" stroke="black" points="486.5,-228.5 486.5,-247.5 558.5,-247.5 558.5,-228.5 486.5,-228.5"/>
<text text-anchor="middle" x="522.5" y="-235.5" font-family="Helvetica,sans-Serif" font-size="10.00">LogUKRules</text>
</a>
</g>
</g>
<!-- Node2&#45;&gt;Node36 -->
<g id="edge56" class="edge">
<title>Node2&#45;&gt;Node36</title>
<path fill="none" stroke="midnightblue" d="M1143.03,-280.02C1131.95,-273.48 1118.23,-266.33 1105,-262 1030.6,-237.65 1008.79,-238 930.5,-238 930.5,-238 930.5,-238 787,-238 705.34,-238 609.45,-238 558.87,-238"/>
<polygon fill="midnightblue" stroke="midnightblue" points="1141.28,-283.05 1151.63,-285.3 1144.94,-277.09 1141.28,-283.05"/>
</g>
<!-- Node4 -->
<g id="node4" class="node">
<title>Node4</title>
<g id="a_node4"><a xlink:href="TransmitterCode_2src_2main_8cpp.html#a62e53eb9359c32b666e3386d62c57037" target="_top" xlink:title=" ">
<polygon fill="white" stroke="black" points="752,-380.5 752,-399.5 824,-399.5 824,-380.5 752,-380.5"/>
<text text-anchor="middle" x="788" y="-387.5" font-family="Helvetica,sans-Serif" font-size="10.00">GreenLedOn</text>
</a>
</g>
</g>
<!-- Node3&#45;&gt;Node4 -->
<g id="edge3" class="edge">
<title>Node3&#45;&gt;Node4</title>
<path fill="none" stroke="midnightblue" d="M878.13,-390C860.2,-390 840.42,-390 824.05,-390"/>
<polygon fill="midnightblue" stroke="midnightblue" points="878.15,-393.5 888.15,-390 878.15,-386.5 878.15,-393.5"/>
</g>
<!-- Node5 -->
<g id="node5" class="node">
<title>Node5</title>
<g id="a_node5"><a xlink:href="TransmitterCode_2src_2main_8cpp.html#a5d3a46c21927cf7a3031a1e68e0b7b48" target="_top" xlink:title="SHOW COMMS.">
<polygon fill="white" stroke="black" points="617.5,-380.5 617.5,-399.5 692.5,-399.5 692.5,-380.5 617.5,-380.5"/>
<text text-anchor="middle" x="655" y="-387.5" font-family="Helvetica,sans-Serif" font-size="10.00">ShowComms</text>
</a>
</g>
</g>
<!-- Node4&#45;&gt;Node5 -->
<g id="edge4" class="edge">
<title>Node4&#45;&gt;Node5</title>
<path fill="none" stroke="midnightblue" d="M741.66,-383.54C725.62,-383.06 707.79,-383.17 692.58,-383.87"/>
<polygon fill="midnightblue" stroke="midnightblue" points="741.77,-387.05 751.89,-383.94 742.04,-380.05 741.77,-387.05"/>
</g>
<!-- Node14 -->
<g id="node14" class="node">
<title>Node14</title>
<g id="a_node14"><a xlink:href="RadioFunctions_8cpp.html#a1c11bb6771548de7d96723045b922620" target="_top" xlink:title=" ">
<polygon fill="white" stroke="black" points="607,-494.5 607,-513.5 703,-513.5 703,-494.5 607,-494.5"/>
<text text-anchor="middle" x="655" y="-501.5" font-family="Helvetica,sans-Serif" font-size="10.00">SuccessfulPacket</text>
</a>
</g>
</g>
<!-- Node4&#45;&gt;Node14 -->
<g id="edge20" class="edge">
<title>Node4&#45;&gt;Node14</title>
<path fill="none" stroke="midnightblue" d="M768.02,-406.52C740.28,-430.66 689.55,-474.81 667.14,-494.31"/>
<polygon fill="midnightblue" stroke="midnightblue" points="770.59,-408.92 775.83,-399.72 765.99,-403.64 770.59,-408.92"/>
</g>
<!-- Node5&#45;&gt;Node4 -->
<g id="edge5" class="edge">
<title>Node5&#45;&gt;Node4</title>
<path fill="none" stroke="midnightblue" d="M702.91,-396.5C719.05,-396.94 736.85,-396.8 751.89,-396.06"/>
<polygon fill="midnightblue" stroke="midnightblue" points="702.7,-392.99 692.58,-396.13 702.44,-399.99 702.7,-392.99"/>
</g>
<!-- Node6 -->
<g id="node6" class="node">
<title>Node6</title>
<g id="a_node6"><a xlink:href="TransmitterCode_2src_2main_8cpp.html#a558ea014e230b7caa54ce5a37ad29b22" target="_top" xlink:title=" ">
<polygon fill="white" stroke="black" points="71,-266.5 71,-285.5 172,-285.5 172,-266.5 71,-266.5"/>
<text text-anchor="middle" x="121.5" y="-273.5" font-family="Helvetica,sans-Serif" font-size="10.00">ManageTransmitter</text>
</a>
</g>
</g>
<!-- Node5&#45;&gt;Node6 -->
<g id="edge6" class="edge">
<title>Node5&#45;&gt;Node6</title>
<path fill="none" stroke="midnightblue" d="M612.03,-377.67C568.72,-365.24 499.04,-346.07 438,-333 336.69,-311.31 309.72,-314.69 208,-295 193.37,-292.17 177.41,-288.72 163.29,-285.54"/>
<polygon fill="midnightblue" stroke="midnightblue" points="611.08,-381.04 621.66,-380.44 613.02,-374.31 611.08,-381.04"/>
</g>
<!-- Node8 -->
<g id="node8" class="node">
<title>Node8</title>
<g id="a_node8"><a xlink:href="TransmitterCode_2src_2main_8cpp.html#a7d34cec6e8edc20c8b50424e15dcc7c7" target="_top" xlink:title=" ">
<polygon fill="white" stroke="black" points="491,-380.5 491,-399.5 554,-399.5 554,-380.5 491,-380.5"/>
<text text-anchor="middle" x="522.5" y="-387.5" font-family="Helvetica,sans-Serif" font-size="10.00">RedLedOn</text>
</a>
</g>
</g>
<!-- Node5&#45;&gt;Node8 -->
<g id="edge8" class="edge">
<title>Node5&#45;&gt;Node8</title>
<path fill="none" stroke="midnightblue" d="M607.19,-390C589.57,-390 569.98,-390 554.19,-390"/>
<polygon fill="midnightblue" stroke="midnightblue" points="607.3,-393.5 617.3,-390 607.3,-386.5 607.3,-393.5"/>
</g>
<!-- Node7 -->
<g id="node7" class="node">
<title>Node7</title>
<g id="a_node7"><a xlink:href="TransmitterCode_2src_2main_8cpp.html#ad3cb30894c94eb016e98bdcaa899ac86" target="_top" xlink:title=" ">
<polygon fill="white" stroke="black" points="0,-323.5 0,-342.5 35,-342.5 35,-323.5 0,-323.5"/>
<text text-anchor="middle" x="17.5" y="-330.5" font-family="Helvetica,sans-Serif" font-size="10.00">loop</text>
</a>
</g>
</g>
<!-- Node6&#45;&gt;Node7 -->
<g id="edge7" class="edge">
<title>Node6&#45;&gt;Node7</title>
<path fill="none" stroke="midnightblue" d="M94.33,-290.63C75.71,-301.03 51.25,-314.7 35.21,-323.66"/>
<polygon fill="midnightblue" stroke="midnightblue" points="96.18,-293.6 103.2,-285.67 92.76,-287.49 96.18,-293.6"/>
</g>
<!-- Node9 -->
<g id="node9" class="node">
<title>Node9</title>
<g id="a_node9"><a xlink:href="TransmitterCode_2src_2main_8cpp.html#a804fdbdd5eab4c596bbe8a23eecbe4d5" target="_top" xlink:title=" ">
<polygon fill="white" stroke="black" points="214,-342.5 214,-361.5 315,-361.5 315,-342.5 214,-342.5"/>
<text text-anchor="middle" x="264.5" y="-349.5" font-family="Helvetica,sans-Serif" font-size="10.00">ButtonWasPressed</text>
</a>
</g>
</g>
<!-- Node8&#45;&gt;Node9 -->
<g id="edge9" class="edge">
<title>Node8&#45;&gt;Node9</title>
<path fill="none" stroke="midnightblue" d="M480.48,-386.29C447.12,-383.03 398.87,-377.75 357,-371 340.82,-368.39 323.17,-364.88 307.72,-361.59"/>
<polygon fill="midnightblue" stroke="midnightblue" points="480.48,-389.81 490.77,-387.28 481.15,-382.84 480.48,-389.81"/>
</g>
<!-- Node10 -->
<g id="node10" class="node">
<title>Node10</title>
<g id="a_node10"><a xlink:href="TransmitterCode_2src_2main_8cpp.html#ab7c9edf843c732d7fe296564f39bc0dc" target="_top" xlink:title="RECEIVE A MODEL FILE.">
<polygon fill="white" stroke="black" points="74.5,-361.5 74.5,-380.5 168.5,-380.5 168.5,-361.5 74.5,-361.5"/>
<text text-anchor="middle" x="121.5" y="-368.5" font-family="Helvetica,sans-Serif" font-size="10.00">ReceiveModelFile</text>
</a>
</g>
</g>
<!-- Node8&#45;&gt;Node10 -->
<g id="edge17" class="edge">
<title>Node8&#45;&gt;Node10</title>
<path fill="none" stroke="midnightblue" d="M480.6,-390.92C447.31,-391.44 399.1,-391.7 357,-390 291.5,-387.35 215.95,-380.56 168.71,-375.85"/>
<polygon fill="midnightblue" stroke="midnightblue" points="480.93,-394.41 490.86,-390.74 480.8,-387.41 480.93,-394.41"/>
</g>
<!-- Node11 -->
<g id="node11" class="node">
<title>Node11</title>
<g id="a_node11"><a xlink:href="RadioFunctions_8cpp.html#a5fbd3c8613a4163425c94965704ce5f8" target="_top" xlink:title=" ">
<polygon fill="white" stroke="black" points="360.5,-456.5 360.5,-475.5 434.5,-475.5 434.5,-456.5 360.5,-456.5"/>
<text text-anchor="middle" x="397.5" y="-463.5" font-family="Helvetica,sans-Serif" font-size="10.00">FailedPacket</text>
</a>
</g>
</g>
<!-- Node8&#45;&gt;Node11 -->
<g id="edge14" class="edge">
<title>Node8&#45;&gt;Node11</title>
<path fill="none" stroke="midnightblue" d="M497.56,-405C480.89,-415.43 458.13,-429.62 438,-442 430.21,-446.79 421.52,-452.08 414.29,-456.46"/>
<polygon fill="midnightblue" stroke="midnightblue" points="499.52,-407.91 506.14,-399.63 495.81,-401.97 499.52,-407.91"/>
</g>
<!-- Node13 -->
<g id="node13" class="node">
<title>Node13</title>
<g id="a_node13"><a xlink:href="TransmitterCode_2src_2main_8cpp.html#a58c67a975068930341f0663e0a08c9d3" target="_top" xlink:title="SEND A MODEL FILE.">
<polygon fill="white" stroke="black" points="357,-342.5 357,-361.5 438,-361.5 438,-342.5 357,-342.5"/>
<text text-anchor="middle" x="397.5" y="-349.5" font-family="Helvetica,sans-Serif" font-size="10.00">SendModelFile</text>
</a>
</g>
</g>
<!-- Node8&#45;&gt;Node13 -->
<g id="edge18" class="edge">
<title>Node8&#45;&gt;Node13</title>
<path fill="none" stroke="midnightblue" d="M481.16,-377.54C464.28,-372.32 444.96,-366.35 429.26,-361.5"/>
<polygon fill="midnightblue" stroke="midnightblue" points="480.19,-380.9 490.78,-380.51 482.26,-374.21 480.19,-380.9"/>
</g>
<!-- Node9&#45;&gt;Node6 -->
<g id="edge11" class="edge">
<title>Node9&#45;&gt;Node6</title>
<path fill="none" stroke="midnightblue" d="M229.77,-338.3C222.5,-335.1 214.92,-331.58 208,-328 182.23,-314.67 153.7,-296.6 136.97,-285.65"/>
<polygon fill="midnightblue" stroke="midnightblue" points="228.83,-341.7 239.4,-342.43 231.59,-335.27 228.83,-341.7"/>
</g>
<!-- Node9&#45;&gt;Node7 -->
<g id="edge10" class="edge">
<title>Node9&#45;&gt;Node7</title>
<path fill="none" stroke="midnightblue" d="M203.86,-347.37C148.4,-343.07 69.37,-336.94 35.25,-334.3"/>
<polygon fill="midnightblue" stroke="midnightblue" points="203.68,-350.87 213.92,-348.16 204.22,-343.89 203.68,-350.87"/>
</g>
<!-- Node9&#45;&gt;Node10 -->
<g id="edge12" class="edge">
<title>Node9&#45;&gt;Node10</title>
<path fill="none" stroke="midnightblue" d="M203.64,-353.39C185.66,-355.57 166.73,-358.49 151.68,-361.48"/>
<polygon fill="midnightblue" stroke="midnightblue" points="204.25,-356.84 213.79,-352.22 203.45,-349.88 204.25,-356.84"/>
</g>
<!-- Node10&#45;&gt;Node9 -->
<g id="edge13" class="edge">
<title>Node10&#45;&gt;Node9</title>
<path fill="none" stroke="midnightblue" d="M178.7,-370.05C197.73,-367.82 218.22,-364.72 234.28,-361.53"/>
<polygon fill="midnightblue" stroke="midnightblue" points="178.17,-366.59 168.61,-371.16 178.93,-373.55 178.17,-366.59"/>
</g>
<!-- Node12 -->
<g id="node12" class="node">
<title>Node12</title>
<g id="a_node12"><a xlink:href="RadioFunctions_8cpp.html#a049bfb836e7aa4a3a48a1a4bd225fafc" target="_top" xlink:title=" ">
<polygon fill="white" stroke="black" points="235,-456.5 235,-475.5 294,-475.5 294,-456.5 235,-456.5"/>
<text text-anchor="middle" x="264.5" y="-463.5" font-family="Helvetica,sans-Serif" font-size="10.00">SendData</text>
</a>
</g>
</g>
<!-- Node11&#45;&gt;Node12 -->
<g id="edge15" class="edge">
<title>Node11&#45;&gt;Node12</title>
<path fill="none" stroke="midnightblue" d="M350.23,-466C331.51,-466 310.48,-466 294.06,-466"/>
<polygon fill="midnightblue" stroke="midnightblue" points="350.36,-469.5 360.36,-466 350.36,-462.5 350.36,-469.5"/>
</g>
<!-- Node12&#45;&gt;Node7 -->
<g id="edge16" class="edge">
<title>Node12&#45;&gt;Node7</title>
<path fill="none" stroke="midnightblue" d="M224.99,-456.35C184.27,-444.93 119.35,-423.16 71,-390 51.7,-376.76 34.38,-355.18 25.27,-342.72"/>
<polygon fill="midnightblue" stroke="midnightblue" points="224.23,-459.77 234.8,-459.03 226.08,-453.02 224.23,-459.77"/>
</g>
<!-- Node13&#45;&gt;Node9 -->
<g id="edge19" class="edge">
<title>Node13&#45;&gt;Node9</title>
<path fill="none" stroke="midnightblue" d="M346.75,-352C336.43,-352 325.55,-352 315.23,-352"/>
<polygon fill="midnightblue" stroke="midnightblue" points="346.84,-355.5 356.84,-352 346.84,-348.5 346.84,-355.5"/>
</g>
<!-- Node14&#45;&gt;Node12 -->
<g id="edge21" class="edge">
<title>Node14&#45;&gt;Node12</title>
<path fill="none" stroke="midnightblue" d="M596.96,-502.73C536.99,-500.85 440.01,-496.22 357,-485 335.78,-482.13 312.11,-477.17 294.17,-473.04"/>
<polygon fill="midnightblue" stroke="midnightblue" points="596.89,-506.23 606.99,-503.03 597.1,-499.24 596.89,-506.23"/>
</g>
<!-- Node15&#45;&gt;Node8 -->
<g id="edge23" class="edge">
<title>Node15&#45;&gt;Node8</title>
<path fill="none" stroke="midnightblue" d="M738.98,-336.03C685.17,-349.51 599.55,-370.95 554.13,-382.33"/>
<polygon fill="midnightblue" stroke="midnightblue" points="740.12,-339.35 748.97,-333.53 738.42,-332.56 740.12,-339.35"/>
</g>
<!-- Node17&#45;&gt;Node3 -->
<g id="edge26" class="edge">
<title>Node17&#45;&gt;Node3</title>
<path fill="none" stroke="midnightblue" d="M1019.86,-390C1004.1,-390 986.31,-390 970.77,-390"/>
<polygon fill="midnightblue" stroke="midnightblue" points="1019.87,-393.5 1029.87,-390 1019.87,-386.5 1019.87,-393.5"/>
</g>
<!-- Node19 -->
<g id="node19" class="node">
<title>Node19</title>
<g id="a_node19"><a xlink:href="TransmitterCode_2src_2main_8cpp.html#aa98d7fb495cbdc40cb17343ffafbfe15" target="_top" xlink:title=" ">
<polygon fill="white" stroke="black" points="760.5,-76.5 760.5,-95.5 815.5,-95.5 815.5,-76.5 760.5,-76.5"/>
<text text-anchor="middle" x="788" y="-83.5" font-family="Helvetica,sans-Serif" font-size="10.00">GetBank</text>
</a>
</g>
</g>
<!-- Node18&#45;&gt;Node19 -->
<g id="edge28" class="edge">
<title>Node18&#45;&gt;Node19</title>
<path fill="none" stroke="midnightblue" d="M890.4,-21.53C884.46,-23.76 878.49,-26.26 873,-29 845.56,-42.7 816.62,-64.11 800.89,-76.42"/>
<polygon fill="midnightblue" stroke="midnightblue" points="891.98,-24.69 900.24,-18.06 889.65,-18.09 891.98,-24.69"/>
</g>
<!-- Node19&#45;&gt;Node6 -->
<g id="edge29" class="edge">
<title>Node19&#45;&gt;Node6</title>
<path fill="none" stroke="midnightblue" d="M750.42,-94.66C699.76,-105.87 605.23,-124 523.5,-124 523.5,-124 523.5,-124 396.5,-124 278.45,-124 163.66,-233.22 131.42,-266.49"/>
<polygon fill="midnightblue" stroke="midnightblue" points="751.26,-98.06 760.25,-92.45 749.73,-91.23 751.26,-98.06"/>
</g>
<!-- Node20&#45;&gt;Node19 -->
<g id="edge31" class="edge">
<title>Node20&#45;&gt;Node19</title>
<path fill="none" stroke="midnightblue" d="M883.37,-111.71C861.07,-105.63 834.93,-98.51 815.82,-93.31"/>
<polygon fill="midnightblue" stroke="midnightblue" points="882.73,-115.16 893.3,-114.41 884.57,-108.41 882.73,-115.16"/>
</g>
<!-- Node21&#45;&gt;Node9 -->
<g id="edge33" class="edge">
<title>Node21&#45;&gt;Node9</title>
<path fill="none" stroke="midnightblue" d="M371.24,-290.65C344.91,-305.93 304.43,-329.42 281.96,-342.45"/>
<polygon fill="midnightblue" stroke="midnightblue" points="373.02,-293.67 379.91,-285.63 369.5,-287.62 373.02,-293.67"/>
</g>
<!-- Node22 -->
<g id="node22" class="node">
<title>Node22</title>
<g id="a_node22"><a xlink:href="TransmitterCode_2src_2main_8cpp.html#a6ae37c6938b8c10b83d1bc74e8643bd9" target="_top" xlink:title=" ">
<polygon fill="white" stroke="black" points="208,-266.5 208,-285.5 321,-285.5 321,-266.5 208,-266.5"/>
<text text-anchor="middle" x="264.5" y="-273.5" font-family="Helvetica,sans-Serif" font-size="10.00">CheckPowerOffButton</text>
</a>
</g>
</g>
<!-- Node21&#45;&gt;Node22 -->
<g id="edge34" class="edge">
<title>Node21&#45;&gt;Node22</title>
<path fill="none" stroke="midnightblue" d="M350.08,-276C340.73,-276 330.81,-276 321.17,-276"/>
<polygon fill="midnightblue" stroke="midnightblue" points="350.36,-279.5 360.36,-276 350.36,-272.5 350.36,-279.5"/>
</g>
<!-- Node22&#45;&gt;Node6 -->
<g id="edge35" class="edge">
<title>Node22&#45;&gt;Node6</title>
<path fill="none" stroke="midnightblue" d="M197.52,-276C189.05,-276 180.49,-276 172.34,-276"/>
<polygon fill="midnightblue" stroke="midnightblue" points="197.77,-279.5 207.77,-276 197.77,-272.5 197.77,-279.5"/>
</g>
<!-- Node24 -->
<g id="node24" class="node">
<title>Node24</title>
<g id="a_node24"><a xlink:href="TransmitterCode_2src_2main_8cpp.html#a17699f358cf9f7c3155a9c5daf8ff13c" target="_top" xlink:title=" ">
<polygon fill="white" stroke="black" points="909,-152.5 909,-171.5 950,-171.5 950,-152.5 909,-152.5"/>
<text text-anchor="middle" x="929.5" y="-159.5" font-family="Helvetica,sans-Serif" font-size="10.00">setup</text>
</a>
</g>
</g>
<!-- Node23&#45;&gt;Node24 -->
<g id="edge37" class="edge">
<title>Node23&#45;&gt;Node24</title>
<path fill="none" stroke="midnightblue" d="M1016.31,-162C993.66,-162 967.58,-162 950.17,-162"/>
<polygon fill="midnightblue" stroke="midnightblue" points="1016.43,-165.5 1026.43,-162 1016.43,-158.5 1016.43,-165.5"/>
</g>
<!-- Node26 -->
<g id="node26" class="node">
<title>Node26</title>
<g id="a_node26"><a xlink:href="TransmitterCode_2src_2main_8cpp.html#ac015e93acba51fe284176b84c05e3450" target="_top" xlink:title=" ">
<polygon fill="white" stroke="black" points="884.5,-76.5 884.5,-95.5 974.5,-95.5 974.5,-76.5 884.5,-76.5"/>
<text text-anchor="middle" x="929.5" y="-83.5" font-family="Helvetica,sans-Serif" font-size="10.00">ShowSafetyIsOff</text>
</a>
</g>
</g>
<!-- Node25&#45;&gt;Node26 -->
<g id="edge39" class="edge">
<title>Node25&#45;&gt;Node26</title>
<path fill="none" stroke="midnightblue" d="M1022.76,-86C1007.56,-86 990.14,-86 974.56,-86"/>
<polygon fill="midnightblue" stroke="midnightblue" points="1022.88,-89.5 1032.88,-86 1022.88,-82.5 1022.88,-89.5"/>
</g>
<!-- Node27 -->
<g id="node27" class="node">
<title>Node27</title>
<g id="a_node27"><a xlink:href="TransmitterCode_2src_2main_8cpp.html#a624dab5b77d191ddae33fbe2ac2da4ae" target="_top" xlink:title=" ">
<polygon fill="white" stroke="black" points="884.5,-38.5 884.5,-57.5 974.5,-57.5 974.5,-38.5 884.5,-38.5"/>
<text text-anchor="middle" x="929.5" y="-45.5" font-family="Helvetica,sans-Serif" font-size="10.00">ShowSafetyIsOn</text>
</a>
</g>
</g>
<!-- Node25&#45;&gt;Node27 -->
<g id="edge41" class="edge">
<title>Node25&#45;&gt;Node27</title>
<path fill="none" stroke="midnightblue" d="M1023.07,-74.65C1004.16,-69.21 981.77,-62.76 963.74,-57.57"/>
<polygon fill="midnightblue" stroke="midnightblue" points="1022.3,-78.07 1032.88,-77.47 1024.24,-71.34 1022.3,-78.07"/>
</g>
<!-- Node26&#45;&gt;Node19 -->
<g id="edge40" class="edge">
<title>Node26&#45;&gt;Node19</title>
<path fill="none" stroke="midnightblue" d="M874.1,-86C854.1,-86 832.33,-86 815.81,-86"/>
<polygon fill="midnightblue" stroke="midnightblue" points="874.36,-89.5 884.36,-86 874.36,-82.5 874.36,-89.5"/>
</g>
<!-- Node27&#45;&gt;Node19 -->
<g id="edge42" class="edge">
<title>Node27&#45;&gt;Node19</title>
<path fill="none" stroke="midnightblue" d="M883.37,-60.29C861.07,-66.37 834.93,-73.49 815.82,-78.69"/>
<polygon fill="midnightblue" stroke="midnightblue" points="884.57,-63.59 893.3,-57.59 882.73,-56.84 884.57,-63.59"/>
</g>
<!-- Node29 -->
<g id="node29" class="node">
<title>Node29</title>
<g id="a_node29"><a xlink:href="TransmitterCode_2src_2main_8cpp.html#a953f1d5046e183549ed95b08f6d675e3" target="_top" xlink:title=" ">
<polygon fill="white" stroke="black" points="739,-532.5 739,-551.5 837,-551.5 837,-532.5 739,-532.5"/>
<text text-anchor="middle" x="788" y="-539.5" font-family="Helvetica,sans-Serif" font-size="10.00">CheckGapsLength</text>
</a>
</g>
</g>
<!-- Node28&#45;&gt;Node29 -->
<g id="edge44" class="edge">
<title>Node28&#45;&gt;Node29</title>
<path fill="none" stroke="midnightblue" d="M1018.32,-542C968.75,-542 888.59,-542 837.36,-542"/>
<polygon fill="midnightblue" stroke="midnightblue" points="1018.41,-545.5 1028.41,-542 1018.41,-538.5 1018.41,-545.5"/>
</g>
<!-- Node29&#45;&gt;Node14 -->
<g id="edge45" class="edge">
<title>Node29&#45;&gt;Node14</title>
<path fill="none" stroke="midnightblue" d="M744.29,-529.61C726.35,-524.41 705.8,-518.45 689.05,-513.59"/>
<polygon fill="midnightblue" stroke="midnightblue" points="743.36,-532.99 753.94,-532.41 745.31,-526.26 743.36,-532.99"/>
</g>
<!-- Node30&#45;&gt;Node11 -->
<g id="edge47" class="edge">
<title>Node30&#45;&gt;Node11</title>
<path fill="none" stroke="midnightblue" d="M598.67,-444.06C549.04,-449.5 477.64,-457.33 434.88,-462.01"/>
<polygon fill="midnightblue" stroke="midnightblue" points="599.35,-447.51 608.91,-442.94 598.59,-440.55 599.35,-447.51"/>
</g>
<!-- Node31&#45;&gt;Node24 -->
<g id="edge51" class="edge">
<title>Node31&#45;&gt;Node24</title>
<path fill="none" stroke="midnightblue" d="M1019.51,-187.62C996.19,-180.91 968.49,-172.94 950.25,-167.69"/>
<polygon fill="midnightblue" stroke="midnightblue" points="1018.61,-191.01 1029.19,-190.41 1020.55,-184.28 1018.61,-191.01"/>
</g>
<!-- Node32 -->
<g id="node32" class="node">
<title>Node32</title>
<g id="a_node32"><a xlink:href="TransmitterCode_2src_2main_8cpp.html#a984cb52354a84c45e9e41f396a1c5e92" target="_top" xlink:title=" ">
<polygon fill="white" stroke="black" points="474,-190.5 474,-209.5 571,-209.5 571,-190.5 474,-190.5"/>
<text text-anchor="middle" x="522.5" y="-197.5" font-family="Helvetica,sans-Serif" font-size="10.00">CheckModelName</text>
</a>
</g>
</g>
<!-- Node31&#45;&gt;Node32 -->
<g id="edge49" class="edge">
<title>Node31&#45;&gt;Node32</title>
<path fill="none" stroke="midnightblue" d="M1014.08,-200C911.43,-200 673,-200 571.08,-200"/>
<polygon fill="midnightblue" stroke="midnightblue" points="1014.17,-203.5 1024.17,-200 1014.17,-196.5 1014.17,-203.5"/>
</g>
<!-- Node32&#45;&gt;Node6 -->
<g id="edge50" class="edge">
<title>Node32&#45;&gt;Node6</title>
<path fill="none" stroke="midnightblue" d="M463.53,-203.09C399.95,-207.51 295.32,-217.84 208,-241 184.44,-247.25 158.71,-258.42 141.7,-266.46"/>
<polygon fill="midnightblue" stroke="midnightblue" points="464.01,-206.56 473.76,-202.4 463.55,-199.58 464.01,-206.56"/>
</g>
<!-- Node34 -->
<g id="node34" class="node">
<title>Node34</title>
<g id="a_node34"><a xlink:href="TransmitterCode_2src_2main_8cpp.html#a4f813935d8fe58355228cbbf25e12f96" target="_top" xlink:title=" ">
<polygon fill="white" stroke="black" points="873,-494.5 873,-513.5 986,-513.5 986,-494.5 873,-494.5"/>
<text text-anchor="middle" x="929.5" y="-501.5" font-family="Helvetica,sans-Serif" font-size="10.00">GetRXVersionNumber</text>
</a>
</g>
</g>
<!-- Node33&#45;&gt;Node34 -->
<g id="edge53" class="edge">
<title>Node33&#45;&gt;Node34</title>
<path fill="none" stroke="midnightblue" d="M1020.71,-504C1009.73,-504 997.7,-504 986.11,-504"/>
<polygon fill="midnightblue" stroke="midnightblue" points="1020.88,-507.5 1030.88,-504 1020.88,-500.5 1020.88,-507.5"/>
</g>
<!-- Node35 -->
<g id="node35" class="node">
<title>Node35</title>
<g id="a_node35"><a xlink:href="TransmitterCode_2src_2main_8cpp.html#a694f4f5a0147f4dc29b0bc1a8951547d" target="_top" xlink:title=" ">
<polygon fill="white" stroke="black" points="741,-494.5 741,-513.5 835,-513.5 835,-494.5 741,-494.5"/>
<text text-anchor="middle" x="788" y="-501.5" font-family="Helvetica,sans-Serif" font-size="10.00">ParseAckPayload</text>
</a>
</g>
</g>
<!-- Node34&#45;&gt;Node35 -->
<g id="edge54" class="edge">
<title>Node34&#45;&gt;Node35</title>
<path fill="none" stroke="midnightblue" d="M862.93,-504C853.62,-504 844.21,-504 835.37,-504"/>
<polygon fill="midnightblue" stroke="midnightblue" points="862.97,-507.5 872.97,-504 862.97,-500.5 862.97,-507.5"/>
</g>
<!-- Node35&#45;&gt;Node14 -->
<g id="edge55" class="edge">
<title>Node35&#45;&gt;Node14</title>
<path fill="none" stroke="midnightblue" d="M730.6,-504C721.43,-504 712.02,-504 703.1,-504"/>
<polygon fill="midnightblue" stroke="midnightblue" points="730.81,-507.5 740.81,-504 730.81,-500.5 730.81,-507.5"/>
</g>
<!-- Node36&#45;&gt;Node6 -->
<g id="edge57" class="edge">
<title>Node36&#45;&gt;Node6</title>
<path fill="none" stroke="midnightblue" d="M475.96,-238.51C414.75,-239.7 302.69,-243.7 208,-257 191.89,-259.26 174.31,-262.95 159.3,-266.48"/>
<polygon fill="midnightblue" stroke="midnightblue" points="476.12,-242.01 486.06,-238.33 476,-235.01 476.12,-242.01"/>
</g>
</g>
</svg>
