<?xml version="1.0" encoding="UTF-8" standalone="no"?>
<!DOCTYPE svg PUBLIC "-//W3C//DTD SVG 1.1//EN"
 "http://www.w3.org/Graphics/SVG/1.1/DTD/svg11.dtd">
<!-- Generated by graphviz version 7.0.4 (20221203.1631)
 -->
<!-- Title: MayBeAddZero Pages: 1 -->
<svg width="2045pt" height="768pt"
 viewBox="0.00 0.00 2045.00 767.82" xmlns="http://www.w3.org/2000/svg" xmlns:xlink="http://www.w3.org/1999/xlink">
<g id="graph0" class="graph" transform="scale(1 1) rotate(0) translate(4 763.82)">
<title>MayBeAddZero</title>
<!-- Node1 -->
<g id="node1" class="node">
<title>Node1</title>
<g id="a_node1"><a xlink:title=" ">
<polygon fill="#999999" stroke="#666666" points="2037,-213.5 1954,-213.5 1954,-194.5 2037,-194.5 2037,-213.5"/>
<text text-anchor="middle" x="1995.5" y="-201.5" font-family="Helvetica,sans-Serif" font-size="10.00">MayBeAddZero</text>
</a>
</g>
</g>
<!-- Node2 -->
<g id="node2" class="node">
<title>Node2</title>
<g id="a_node2"><a xlink:href="TransmitterCode_2src_2main_8cpp.html#a1a0a5d73007aba01755e5274d12e6e9b" target="_top" xlink:title=" ">
<polygon fill="white" stroke="#666666" points="1918,-250.5 1802,-250.5 1802,-231.5 1918,-231.5 1918,-250.5"/>
<text text-anchor="middle" x="1860" y="-238.5" font-family="Helvetica,sans-Serif" font-size="10.00">CreateTimeDateStamp</text>
</a>
</g>
</g>
<!-- Node1&#45;&gt;Node2 -->
<g id="edge1" class="edge">
<title>Node1&#45;&gt;Node2</title>
<path fill="none" stroke="#63b8ff" d="M1948.03,-216.88C1931.26,-221.53 1912.6,-226.7 1896.87,-231.06"/>
<polygon fill="#63b8ff" stroke="#63b8ff" points="1948.56,-220.36 1957.27,-214.32 1946.69,-213.62 1948.56,-220.36"/>
</g>
<!-- Node3 -->
<g id="node3" class="node">
<title>Node3</title>
<g id="a_node3"><a xlink:href="TransmitterCode_2src_2main_8cpp.html#a5d42b1fba153cc76dc96778cfb6f1a40" target="_top" xlink:title=" ">
<polygon fill="white" stroke="#666666" points="1907.5,-213.5 1812.5,-213.5 1812.5,-194.5 1907.5,-194.5 1907.5,-213.5"/>
<text text-anchor="middle" x="1860" y="-201.5" font-family="Helvetica,sans-Serif" font-size="10.00">CreateTimeStamp</text>
</a>
</g>
</g>
<!-- Node1&#45;&gt;Node3 -->
<g id="edge2" class="edge">
<title>Node1&#45;&gt;Node3</title>
<path fill="none" stroke="#63b8ff" d="M1942.48,-204C1930.98,-204 1918.87,-204 1907.6,-204"/>
<polygon fill="#63b8ff" stroke="#63b8ff" points="1942.21,-207.5 1952.21,-204 1942.21,-200.5 1942.21,-207.5"/>
</g>
<!-- Node119 -->
<g id="node50" class="node">
<title>Node119</title>
<g id="a_node50"><a xlink:href="TransmitterCode_2src_2main_8cpp.html#a483cced19b61975f76957f5696425fe9" target="_top" xlink:title=" ">
<polygon fill="white" stroke="#666666" points="1751.5,-33.5 1690.5,-33.5 1690.5,-14.5 1751.5,-14.5 1751.5,-33.5"/>
<text text-anchor="middle" x="1721" y="-21.5" font-family="Helvetica,sans-Serif" font-size="10.00">ReadTime</text>
</a>
</g>
</g>
<!-- Node1&#45;&gt;Node119 -->
<g id="edge77" class="edge">
<title>Node1&#45;&gt;Node119</title>
<path fill="none" stroke="#63b8ff" d="M1970.1,-187.88C1914.9,-151.42 1781.78,-63.49 1736.99,-33.9"/>
<polygon fill="#63b8ff" stroke="#63b8ff" points="1967.93,-190.64 1978.2,-193.23 1971.78,-184.8 1967.93,-190.64"/>
</g>
<!-- Node4 -->
<g id="node4" class="node">
<title>Node4</title>
<g id="a_node4"><a xlink:href="TransmitterCode_2src_2main_8cpp.html#a99a51dbad5d686ca711e982f82cbcada" target="_top" xlink:title=" ">
<polygon fill="white" stroke="#666666" points="1766,-225.5 1676,-225.5 1676,-206.5 1766,-206.5 1766,-225.5"/>
<text text-anchor="middle" x="1721" y="-213.5" font-family="Helvetica,sans-Serif" font-size="10.00">LogFilePreamble</text>
</a>
</g>
</g>
<!-- Node3&#45;&gt;Node4 -->
<g id="edge3" class="edge">
<title>Node3&#45;&gt;Node4</title>
<path fill="none" stroke="#63b8ff" d="M1800.84,-209.09C1789.25,-210.11 1777.27,-211.16 1766.24,-212.12"/>
<polygon fill="#63b8ff" stroke="#63b8ff" points="1801.07,-212.59 1810.73,-208.23 1800.46,-205.61 1801.07,-212.59"/>
</g>
<!-- Node5 -->
<g id="node5" class="node">
<title>Node5</title>
<g id="a_node5"><a xlink:href="TransmitterCode_2src_2main_8cpp.html#add8d8f400f1c1c4a5add52736cdf94ca" target="_top" xlink:title=" ">
<polygon fill="white" stroke="#666666" points="1640,-256.5 1588,-256.5 1588,-237.5 1640,-237.5 1640,-256.5"/>
<text text-anchor="middle" x="1614" y="-244.5" font-family="Helvetica,sans-Serif" font-size="10.00">LogText</text>
</a>
</g>
</g>
<!-- Node4&#45;&gt;Node5 -->
<g id="edge4" class="edge">
<title>Node4&#45;&gt;Node5</title>
<path fill="none" stroke="#63b8ff" d="M1675.44,-229.16C1663.47,-232.69 1650.94,-236.39 1640.41,-239.5"/>
<polygon fill="#63b8ff" stroke="#63b8ff" points="1676.15,-232.6 1684.75,-226.41 1674.17,-225.88 1676.15,-232.6"/>
</g>
<!-- Node6 -->
<g id="node6" class="node">
<title>Node6</title>
<g id="a_node6"><a xlink:href="TransmitterCode_2src_2main_8cpp.html#aaa3e86084c43b049d52d7d62c58a00b9" target="_top" xlink:title=" ">
<polygon fill="white" stroke="#666666" points="1417.5,-313.5 1335.5,-313.5 1335.5,-294.5 1417.5,-294.5 1417.5,-313.5"/>
<text text-anchor="middle" x="1376.5" y="-301.5" font-family="Helvetica,sans-Serif" font-size="10.00">LogConnection</text>
</a>
</g>
</g>
<!-- Node5&#45;&gt;Node6 -->
<g id="edge5" class="edge">
<title>Node5&#45;&gt;Node6</title>
<path fill="none" stroke="#63b8ff" d="M1576.74,-255.78C1533.79,-266.17 1462.46,-283.44 1417.81,-294.24"/>
<polygon fill="#63b8ff" stroke="#63b8ff" points="1577.43,-259.21 1586.33,-253.46 1575.78,-252.41 1577.43,-259.21"/>
</g>
<!-- Node159 -->
<g id="node31" class="node">
<title>Node159</title>
<g id="a_node31"><a xlink:href="TransmitterCode_2src_2main_8cpp.html#a2d5ec5fd5ed62d5b7b071fabe2225405" target="_top" xlink:title=" ">
<polygon fill="white" stroke="#666666" points="1283,-535.5 1187,-535.5 1187,-516.5 1283,-516.5 1283,-535.5"/>
<text text-anchor="middle" x="1235" y="-523.5" font-family="Helvetica,sans-Serif" font-size="10.00">LogDisConnection</text>
</a>
</g>
</g>
<!-- Node5&#45;&gt;Node159 -->
<g id="edge45" class="edge">
<title>Node5&#45;&gt;Node159</title>
<path fill="none" stroke="#63b8ff" d="M1613.94,-268.2C1614.65,-312.3 1609.56,-414.19 1552,-467 1477.98,-534.92 1351.83,-536.5 1283.44,-531.45"/>
<polygon fill="#63b8ff" stroke="#63b8ff" points="1617.44,-268.12 1613.64,-258.23 1610.44,-268.33 1617.44,-268.12"/>
</g>
<!-- Node160 -->
<g id="node32" class="node">
<title>Node160</title>
<g id="a_node32"><a xlink:href="TransmitterCode_2src_2main_8cpp.html#aac4334531357e4221222c7fc8c5cf817" target="_top" xlink:title=" ">
<polygon fill="white" stroke="#666666" points="1552,-387.5 1469,-387.5 1469,-368.5 1552,-368.5 1552,-387.5"/>
<text text-anchor="middle" x="1510.5" y="-375.5" font-family="Helvetica,sans-Serif" font-size="10.00">LogLowBattery</text>
</a>
</g>
</g>
<!-- Node5&#45;&gt;Node160 -->
<g id="edge47" class="edge">
<title>Node5&#45;&gt;Node160</title>
<path fill="none" stroke="#63b8ff" d="M1606.54,-267.53C1597.8,-292.37 1579.97,-334.1 1552,-360 1548.61,-363.14 1544.59,-365.79 1540.41,-368.02"/>
<polygon fill="#63b8ff" stroke="#63b8ff" points="1609.79,-268.86 1609.64,-258.26 1603.15,-266.64 1609.79,-268.86"/>
</g>
<!-- Node161 -->
<g id="node33" class="node">
<title>Node161</title>
<g id="a_node33"><a xlink:href="TransmitterCode_2src_2main_8cpp.html#af7b3b351c80f0b43c13a4ccb440b2f2e" target="_top" xlink:title=" ">
<polygon fill="white" stroke="#666666" points="1544,-313.5 1477,-313.5 1477,-294.5 1544,-294.5 1544,-313.5"/>
<text text-anchor="middle" x="1510.5" y="-301.5" font-family="Helvetica,sans-Serif" font-size="10.00">LogMinGap</text>
</a>
</g>
</g>
<!-- Node5&#45;&gt;Node161 -->
<g id="edge48" class="edge">
<title>Node5&#45;&gt;Node161</title>
<path fill="none" stroke="#63b8ff" d="M1585.39,-262.5C1567.41,-272.6 1544.49,-285.48 1528.98,-294.19"/>
<polygon fill="#63b8ff" stroke="#63b8ff" points="1586.99,-265.62 1594,-257.67 1583.57,-259.51 1586.99,-265.62"/>
</g>
<!-- Node162 -->
<g id="node34" class="node">
<title>Node162</title>
<g id="a_node34"><a xlink:href="TransmitterCode_2src_2main_8cpp.html#ac45afae9da9cc313054a4c41e1ce1757" target="_top" xlink:title=" ">
<polygon fill="white" stroke="#666666" points="788.5,-47.5 730.5,-47.5 730.5,-28.5 788.5,-28.5 788.5,-47.5"/>
<text text-anchor="middle" x="759.5" y="-35.5" font-family="Helvetica,sans-Serif" font-size="10.00">LogMotor</text>
</a>
</g>
</g>
<!-- Node5&#45;&gt;Node162 -->
<g id="edge50" class="edge">
<title>Node5&#45;&gt;Node162</title>
<path fill="none" stroke="#63b8ff" d="M1612.83,-226.05C1611.28,-187.07 1601.96,-103.61 1552,-62 1491.85,-11.9 1455.79,-38 1377.5,-38 1377.5,-38 1377.5,-38 979,-38 910.72,-38 830.43,-38 788.78,-38"/>
<polygon fill="#63b8ff" stroke="#63b8ff" points="1609.33,-226.01 1613.07,-235.92 1616.33,-225.84 1609.33,-226.01"/>
</g>
<!-- Node163 -->
<g id="node35" class="node">
<title>Node163</title>
<g id="a_node35"><a xlink:href="TransmitterCode_2src_2main_8cpp.html#a32be1544c90acbd0fb13568c35213510" target="_top" xlink:title=" ">
<polygon fill="white" stroke="#666666" points="1018,-142.5 942,-142.5 942,-123.5 1018,-123.5 1018,-142.5"/>
<text text-anchor="middle" x="980" y="-130.5" font-family="Helvetica,sans-Serif" font-size="10.00">LogNewBank</text>
</a>
</g>
</g>
<!-- Node5&#45;&gt;Node163 -->
<g id="edge52" class="edge">
<title>Node5&#45;&gt;Node163</title>
<path fill="none" stroke="#63b8ff" d="M1607.99,-226.33C1600.51,-200.35 1583.8,-156.56 1552,-135 1487.35,-91.16 1455.62,-114 1377.5,-114 1377.5,-114 1377.5,-114 1234,-114 1157.14,-114 1067.51,-122.83 1018.23,-128.45"/>
<polygon fill="#63b8ff" stroke="#63b8ff" points="1604.53,-226.94 1610.48,-235.71 1611.29,-225.15 1604.53,-226.94"/>
</g>
<!-- Node164 -->
<g id="node36" class="node">
<title>Node164</title>
<g id="a_node36"><a xlink:href="TransmitterCode_2src_2main_8cpp.html#a31e9d94f45a152e1cbc436284799ca37" target="_top" xlink:title=" ">
<polygon fill="white" stroke="#666666" points="554,-312.5 480,-312.5 480,-293.5 554,-293.5 554,-312.5"/>
<text text-anchor="middle" x="517" y="-300.5" font-family="Helvetica,sans-Serif" font-size="10.00">LogPowerOff</text>
</a>
</g>
</g>
<!-- Node5&#45;&gt;Node164 -->
<g id="edge54" class="edge">
<title>Node5&#45;&gt;Node164</title>
<path fill="none" stroke="#63b8ff" d="M1576.38,-242.21C1530.13,-236.58 1448.06,-228 1377.5,-228 1377.5,-228 1377.5,-228 979,-228 818.85,-228 631.43,-272.64 554.13,-293.04"/>
<polygon fill="#63b8ff" stroke="#63b8ff" points="1575.76,-245.66 1586.11,-243.42 1576.62,-238.71 1575.76,-245.66"/>
</g>
<!-- Node165 -->
<g id="node38" class="node">
<title>Node165</title>
<g id="a_node38"><a xlink:href="TransmitterCode_2src_2main_8cpp.html#a7d93a2500f52d72210903c46a85ce820" target="_top" xlink:title=" ">
<polygon fill="white" stroke="#666666" points="1547.5,-162.5 1473.5,-162.5 1473.5,-143.5 1547.5,-143.5 1547.5,-162.5"/>
<text text-anchor="middle" x="1510.5" y="-150.5" font-family="Helvetica,sans-Serif" font-size="10.00">LogPowerOn</text>
</a>
</g>
</g>
<!-- Node5&#45;&gt;Node165 -->
<g id="edge58" class="edge">
<title>Node5&#45;&gt;Node165</title>
<path fill="none" stroke="#63b8ff" d="M1601.01,-227.82C1589.93,-211.32 1572.15,-187.75 1552,-172 1547.47,-168.46 1542.18,-165.38 1536.94,-162.79"/>
<polygon fill="#63b8ff" stroke="#63b8ff" points="1597.8,-229.31 1606.19,-235.78 1603.67,-225.49 1597.8,-229.31"/>
</g>
<!-- Node166 -->
<g id="node40" class="node">
<title>Node166</title>
<g id="a_node40"><a xlink:href="TransmitterCode_2src_2main_8cpp.html#a0ed2fd04eebb4fd11b61b6fddd5d2590" target="_top" xlink:title=" ">
<polygon fill="white" stroke="#666666" points="687.5,-85.5 626.5,-85.5 626.5,-66.5 687.5,-66.5 687.5,-85.5"/>
<text text-anchor="middle" x="657" y="-73.5" font-family="Helvetica,sans-Serif" font-size="10.00">LogSafety</text>
</a>
</g>
</g>
<!-- Node5&#45;&gt;Node166 -->
<g id="edge60" class="edge">
<title>Node5&#45;&gt;Node166</title>
<path fill="none" stroke="#63b8ff" d="M1610.42,-226.03C1605.33,-194.25 1590.86,-134.37 1552,-104 1490.11,-55.63 1456.05,-76 1377.5,-76 1377.5,-76 1377.5,-76 864.5,-76 801.58,-76 727.88,-76 687.75,-76"/>
<polygon fill="#63b8ff" stroke="#63b8ff" points="1606.9,-226.16 1611.78,-235.57 1613.83,-225.18 1606.9,-226.16"/>
</g>
<!-- Node167 -->
<g id="node43" class="node">
<title>Node167</title>
<g id="a_node43"><a xlink:href="TransmitterCode_2src_2main_8cpp.html#a1fadc7cdd854f8b3628b622da5417d8b" target="_top" xlink:title=" ">
<polygon fill="white" stroke="#666666" points="1545.5,-350.5 1475.5,-350.5 1475.5,-331.5 1545.5,-331.5 1545.5,-350.5"/>
<text text-anchor="middle" x="1510.5" y="-338.5" font-family="Helvetica,sans-Serif" font-size="10.00">LogThisGap</text>
</a>
</g>
</g>
<!-- Node5&#45;&gt;Node167 -->
<g id="edge65" class="edge">
<title>Node5&#45;&gt;Node167</title>
<path fill="none" stroke="#63b8ff" d="M1601.32,-266.27C1590.34,-283.08 1572.53,-307.18 1552,-323 1547.98,-326.1 1543.34,-328.8 1538.66,-331.09"/>
<polygon fill="#63b8ff" stroke="#63b8ff" points="1604.06,-268.49 1606.44,-258.17 1598.14,-264.76 1604.06,-268.49"/>
</g>
<!-- Node169 -->
<g id="node45" class="node">
<title>Node169</title>
<g id="a_node45"><a xlink:href="TransmitterCode_2src_2main_8cpp.html#afd409fe008843b50c3e2ff697558d4d5" target="_top" xlink:title=" ">
<polygon fill="white" stroke="#666666" points="1148,-462.5 1056,-462.5 1056,-443.5 1148,-443.5 1148,-462.5"/>
<text text-anchor="middle" x="1102" y="-450.5" font-family="Helvetica,sans-Serif" font-size="10.00">LogThisLongGap</text>
</a>
</g>
</g>
<!-- Node5&#45;&gt;Node169 -->
<g id="edge68" class="edge">
<title>Node5&#45;&gt;Node169</title>
<path fill="none" stroke="#63b8ff" d="M1613.27,-268.36C1612.49,-308.39 1604.43,-394.24 1552,-434 1489.68,-481.27 1249.56,-466.15 1148.37,-457.37"/>
<polygon fill="#63b8ff" stroke="#63b8ff" points="1616.77,-268.41 1613.31,-258.4 1609.77,-268.38 1616.77,-268.41"/>
</g>
<!-- Node170 -->
<g id="node46" class="node">
<title>Node170</title>
<g id="a_node46"><a xlink:href="TransmitterCode_2src_2main_8cpp.html#a83944fc0ecaab86d0bbb0802e99e5084" target="_top" xlink:title=" ">
<polygon fill="white" stroke="#666666" points="1549.5,-199.5 1471.5,-199.5 1471.5,-180.5 1549.5,-180.5 1549.5,-199.5"/>
<text text-anchor="middle" x="1510.5" y="-187.5" font-family="Helvetica,sans-Serif" font-size="10.00">LogThisModel</text>
</a>
</g>
</g>
<!-- Node5&#45;&gt;Node170 -->
<g id="edge70" class="edge">
<title>Node5&#45;&gt;Node170</title>
<path fill="none" stroke="#63b8ff" d="M1585.39,-231.5C1567.41,-221.4 1544.49,-208.52 1528.98,-199.81"/>
<polygon fill="#63b8ff" stroke="#63b8ff" points="1583.57,-234.49 1594,-236.33 1586.99,-228.38 1583.57,-234.49"/>
</g>
<!-- Node171 -->
<g id="node47" class="node">
<title>Node171</title>
<g id="a_node47"><a xlink:href="TransmitterCode_2src_2main_8cpp.html#a900aa27c1353238593c276186d960912" target="_top" xlink:title=" ">
<polygon fill="white" stroke="#666666" points="1543,-424.5 1478,-424.5 1478,-405.5 1543,-405.5 1543,-424.5"/>
<text text-anchor="middle" x="1510.5" y="-412.5" font-family="Helvetica,sans-Serif" font-size="10.00">LogThisRX</text>
</a>
</g>
</g>
<!-- Node5&#45;&gt;Node171 -->
<g id="edge73" class="edge">
<title>Node5&#45;&gt;Node171</title>
<path fill="none" stroke="#63b8ff" d="M1609.65,-267.75C1603.54,-299.45 1587.74,-360.1 1552,-397 1548.9,-400.21 1545.12,-402.88 1541.13,-405.11"/>
<polygon fill="#63b8ff" stroke="#63b8ff" points="1613.03,-268.74 1611.34,-258.28 1606.14,-267.51 1613.03,-268.74"/>
</g>
<!-- Node7 -->
<g id="node7" class="node">
<title>Node7</title>
<g id="a_node7"><a xlink:href="TransmitterCode_2src_2main_8cpp.html#a62e53eb9359c32b666e3386d62c57037" target="_top" xlink:title=" ">
<polygon fill="white" stroke="#666666" points="1271,-335.5 1199,-335.5 1199,-316.5 1271,-316.5 1271,-335.5"/>
<text text-anchor="middle" x="1235" y="-323.5" font-family="Helvetica,sans-Serif" font-size="10.00">GreenLedOn</text>
</a>
</g>
</g>
<!-- Node6&#45;&gt;Node7 -->
<g id="edge6" class="edge">
<title>Node6&#45;&gt;Node7</title>
<path fill="none" stroke="#63b8ff" d="M1323.88,-312.14C1306.28,-314.92 1287.04,-317.95 1271.05,-320.47"/>
<polygon fill="#63b8ff" stroke="#63b8ff" points="1324.32,-315.61 1333.66,-310.6 1323.23,-308.7 1324.32,-315.61"/>
</g>
<!-- Node8 -->
<g id="node8" class="node">
<title>Node8</title>
<g id="a_node8"><a xlink:href="TransmitterCode_2src_2main_8cpp.html#a5d3a46c21927cf7a3031a1e68e0b7b48" target="_top" xlink:title="SHOW COMMS.">
<polygon fill="white" stroke="#666666" points="1139.5,-335.5 1064.5,-335.5 1064.5,-316.5 1139.5,-316.5 1139.5,-335.5"/>
<text text-anchor="middle" x="1102" y="-323.5" font-family="Helvetica,sans-Serif" font-size="10.00">ShowComms</text>
</a>
</g>
</g>
<!-- Node7&#45;&gt;Node8 -->
<g id="edge7" class="edge">
<title>Node7&#45;&gt;Node8</title>
<path fill="none" stroke="#63b8ff" d="M1187.5,-319.51C1171.86,-319.07 1154.64,-319.19 1139.85,-319.86"/>
<polygon fill="#63b8ff" stroke="#63b8ff" points="1186.91,-322.99 1197.04,-319.87 1187.18,-315.99 1186.91,-322.99"/>
</g>
<!-- Node23 -->
<g id="node30" class="node">
<title>Node23</title>
<g id="a_node30"><a xlink:href="RadioFunctions_8cpp.html#a1c11bb6771548de7d96723045b922620" target="_top" xlink:title=" ">
<polygon fill="white" stroke="#666666" points="1150,-391.5 1054,-391.5 1054,-372.5 1150,-372.5 1150,-391.5"/>
<text text-anchor="middle" x="1102" y="-379.5" font-family="Helvetica,sans-Serif" font-size="10.00">SuccessfulPacket</text>
</a>
</g>
</g>
<!-- Node7&#45;&gt;Node23 -->
<g id="edge43" class="edge">
<title>Node7&#45;&gt;Node23</title>
<path fill="none" stroke="#63b8ff" d="M1199.59,-340.27C1195.02,-342.18 1190.39,-344.13 1186,-346 1165.47,-354.73 1142.18,-364.85 1125.51,-372.13"/>
<polygon fill="#63b8ff" stroke="#63b8ff" points="1200.77,-343.57 1208.65,-336.48 1198.07,-337.11 1200.77,-343.57"/>
</g>
<!-- Node8&#45;&gt;Node7 -->
<g id="edge8" class="edge">
<title>Node8&#45;&gt;Node7</title>
<path fill="none" stroke="#63b8ff" d="M1150.99,-332.53C1166.73,-332.93 1183.92,-332.78 1198.55,-332.07"/>
<polygon fill="#63b8ff" stroke="#63b8ff" points="1151.48,-329.05 1141.36,-332.19 1151.23,-336.04 1151.48,-329.05"/>
</g>
<!-- Node9 -->
<g id="node9" class="node">
<title>Node9</title>
<g id="a_node9"><a xlink:href="TransmitterCode_2src_2main_8cpp.html#a558ea014e230b7caa54ce5a37ad29b22" target="_top" xlink:title=" ">
<polygon fill="white" stroke="#666666" points="265,-246.5 164,-246.5 164,-227.5 265,-227.5 265,-246.5"/>
<text text-anchor="middle" x="214.5" y="-234.5" font-family="Helvetica,sans-Serif" font-size="10.00">ManageTransmitter</text>
</a>
</g>
</g>
<!-- Node8&#45;&gt;Node9 -->
<g id="edge9" class="edge">
<title>Node8&#45;&gt;Node9</title>
<path fill="none" stroke="#63b8ff" d="M1052.81,-315.86C941.15,-292.95 655.77,-237.71 414,-219 363.93,-215.12 350.95,-213.8 301,-219 285.61,-220.6 268.91,-223.79 254.39,-227.04"/>
<polygon fill="#63b8ff" stroke="#63b8ff" points="1052.02,-319.27 1062.52,-317.86 1053.43,-312.42 1052.02,-319.27"/>
</g>
<!-- Node11 -->
<g id="node11" class="node">
<title>Node11</title>
<g id="a_node11"><a xlink:href="TransmitterCode_2src_2main_8cpp.html#a7d34cec6e8edc20c8b50424e15dcc7c7" target="_top" xlink:title=" ">
<polygon fill="white" stroke="#666666" points="1011.5,-594.5 948.5,-594.5 948.5,-575.5 1011.5,-575.5 1011.5,-594.5"/>
<text text-anchor="middle" x="980" y="-582.5" font-family="Helvetica,sans-Serif" font-size="10.00">RedLedOn</text>
</a>
</g>
</g>
<!-- Node8&#45;&gt;Node11 -->
<g id="edge11" class="edge">
<title>Node8&#45;&gt;Node11</title>
<path fill="none" stroke="#63b8ff" d="M1075.41,-342.41C1067.65,-348.41 1059.69,-355.78 1054,-364 1004.59,-435.46 986.68,-542.77 982.22,-575.31"/>
<polygon fill="#63b8ff" stroke="#63b8ff" points="1077.3,-345.35 1083.37,-336.67 1073.21,-339.67 1077.3,-345.35"/>
</g>
<!-- Node10 -->
<g id="node10" class="node">
<title>Node10</title>
<g id="a_node10"><a xlink:href="TransmitterCode_2src_2main_8cpp.html#ad3cb30894c94eb016e98bdcaa899ac86" target="_top" xlink:title=" ">
<polygon fill="white" stroke="#666666" points="81.5,-284.5 46.5,-284.5 46.5,-265.5 81.5,-265.5 81.5,-284.5"/>
<text text-anchor="middle" x="64" y="-272.5" font-family="Helvetica,sans-Serif" font-size="10.00">loop</text>
</a>
</g>
</g>
<!-- Node9&#45;&gt;Node10 -->
<g id="edge10" class="edge">
<title>Node9&#45;&gt;Node10</title>
<path fill="none" stroke="#63b8ff" d="M163.54,-249.78C135.25,-257.02 101.67,-265.62 81.91,-270.67"/>
<polygon fill="#63b8ff" stroke="#63b8ff" points="164.2,-253.23 173.02,-247.36 162.46,-246.45 164.2,-253.23"/>
</g>
<!-- Node12 -->
<g id="node12" class="node">
<title>Node12</title>
<g id="a_node12"><a xlink:href="TransmitterCode_2src_2main_8cpp.html#a804fdbdd5eab4c596bbe8a23eecbe4d5" target="_top" xlink:title=" ">
<polygon fill="white" stroke="#666666" points="408,-602.5 307,-602.5 307,-583.5 408,-583.5 408,-602.5"/>
<text text-anchor="middle" x="357.5" y="-590.5" font-family="Helvetica,sans-Serif" font-size="10.00">ButtonWasPressed</text>
</a>
</g>
</g>
<!-- Node11&#45;&gt;Node12 -->
<g id="edge12" class="edge">
<title>Node11&#45;&gt;Node12</title>
<path fill="none" stroke="#63b8ff" d="M957.48,-601.29C919.74,-628.21 838.21,-679 760.5,-679 760.5,-679 760.5,-679 656,-679 563.21,-679 537.48,-675.96 450,-645 420.55,-634.58 389.62,-614.88 372.32,-602.94"/>
<polygon fill="#63b8ff" stroke="#63b8ff" points="959.28,-604.32 965.3,-595.6 955.15,-598.66 959.28,-604.32"/>
</g>
<!-- Node15 -->
<g id="node15" class="node">
<title>Node15</title>
<g id="a_node15"><a xlink:href="TransmitterCode_2src_2main_8cpp.html#ab7c9edf843c732d7fe296564f39bc0dc" target="_top" xlink:title="RECEIVE A MODEL FILE.">
<polygon fill="white" stroke="#666666" points="261.5,-639.5 167.5,-639.5 167.5,-620.5 261.5,-620.5 261.5,-639.5"/>
<text text-anchor="middle" x="214.5" y="-627.5" font-family="Helvetica,sans-Serif" font-size="10.00">ReceiveModelFile</text>
</a>
</g>
</g>
<!-- Node11&#45;&gt;Node15 -->
<g id="edge40" class="edge">
<title>Node11&#45;&gt;Node15</title>
<path fill="none" stroke="#63b8ff" d="M975.39,-605.95C968.42,-639.43 949.76,-704.42 906,-736 853.12,-774.17 825.72,-755 760.5,-755 760.5,-755 760.5,-755 516,-755 396.21,-755 268.74,-669.28 228.46,-639.81"/>
<polygon fill="#63b8ff" stroke="#63b8ff" points="978.79,-606.76 977.23,-596.29 971.92,-605.45 978.79,-606.76"/>
</g>
<!-- Node16 -->
<g id="node16" class="node">
<title>Node16</title>
<g id="a_node16"><a xlink:href="RadioFunctions_8cpp.html#a5fbd3c8613a4163425c94965704ce5f8" target="_top" xlink:title=" ">
<polygon fill="white" stroke="#666666" points="902.5,-462.5 828.5,-462.5 828.5,-443.5 902.5,-443.5 902.5,-462.5"/>
<text text-anchor="middle" x="865.5" y="-450.5" font-family="Helvetica,sans-Serif" font-size="10.00">FailedPacket</text>
</a>
</g>
</g>
<!-- Node11&#45;&gt;Node16 -->
<g id="edge19" class="edge">
<title>Node11&#45;&gt;Node16</title>
<path fill="none" stroke="#63b8ff" d="M963.2,-566.47C938.95,-538 893.37,-484.53 874.75,-462.68"/>
<polygon fill="#63b8ff" stroke="#63b8ff" points="960.41,-568.59 969.56,-573.93 965.74,-564.05 960.41,-568.59"/>
</g>
<!-- Node101 -->
<g id="node29" class="node">
<title>Node101</title>
<g id="a_node29"><a xlink:href="TransmitterCode_2src_2main_8cpp.html#a58c67a975068930341f0663e0a08c9d3" target="_top" xlink:title="SEND A MODEL FILE.">
<polygon fill="white" stroke="#666666" points="906,-726.5 825,-726.5 825,-707.5 906,-707.5 906,-726.5"/>
<text text-anchor="middle" x="865.5" y="-714.5" font-family="Helvetica,sans-Serif" font-size="10.00">SendModelFile</text>
</a>
</g>
</g>
<!-- Node11&#45;&gt;Node101 -->
<g id="edge41" class="edge">
<title>Node11&#45;&gt;Node101</title>
<path fill="none" stroke="#63b8ff" d="M968.91,-605.03C956.48,-628.26 933.6,-666.71 906,-693 900.31,-698.42 893.18,-703.21 886.56,-707.06"/>
<polygon fill="#63b8ff" stroke="#63b8ff" points="971.93,-606.8 973.44,-596.32 965.72,-603.57 971.93,-606.8"/>
</g>
<!-- Node12&#45;&gt;Node9 -->
<g id="edge16" class="edge">
<title>Node12&#45;&gt;Node9</title>
<path fill="none" stroke="#63b8ff" d="M343.14,-573.56C330.96,-555.21 313.09,-526.62 301,-500 257.93,-405.13 226.44,-282.12 217.85,-246.85"/>
<polygon fill="#63b8ff" stroke="#63b8ff" points="340.22,-575.5 348.72,-581.83 346.03,-571.58 340.22,-575.5"/>
</g>
<!-- Node13 -->
<g id="node13" class="node">
<title>Node13</title>
<g id="a_node13"><a xlink:href="TransmitterCode_2src_2main_8cpp.html#a6506bf72e0dd9e9ce480156b47625bff" target="_top" xlink:title=" ">
<polygon fill="white" stroke="#666666" points="257.5,-602.5 171.5,-602.5 171.5,-583.5 257.5,-583.5 257.5,-602.5"/>
<text text-anchor="middle" x="214.5" y="-590.5" font-family="Helvetica,sans-Serif" font-size="10.00">GetConfirmation</text>
</a>
</g>
</g>
<!-- Node12&#45;&gt;Node13 -->
<g id="edge13" class="edge">
<title>Node12&#45;&gt;Node13</title>
<path fill="none" stroke="#63b8ff" d="M295.32,-586.3C282.65,-586.16 269.57,-586.31 257.76,-586.76"/>
<polygon fill="#63b8ff" stroke="#63b8ff" points="295.21,-589.8 305.28,-586.49 295.34,-582.8 295.21,-589.8"/>
</g>
<!-- Node12&#45;&gt;Node15 -->
<g id="edge17" class="edge">
<title>Node12&#45;&gt;Node15</title>
<path fill="none" stroke="#63b8ff" d="M295.87,-602.22C274.03,-607.69 250.89,-614.37 235.08,-620.02"/>
<polygon fill="#63b8ff" stroke="#63b8ff" points="296.43,-605.69 305.32,-599.92 294.77,-598.88 296.43,-605.69"/>
</g>
<!-- Node13&#45;&gt;Node12 -->
<g id="edge14" class="edge">
<title>Node13&#45;&gt;Node12</title>
<path fill="none" stroke="#63b8ff" d="M268.91,-599.57C281.34,-599.84 294.53,-599.81 306.79,-599.48"/>
<polygon fill="#63b8ff" stroke="#63b8ff" points="269.37,-596.08 259.27,-599.29 269.16,-603.08 269.37,-596.08"/>
</g>
<!-- Node14 -->
<g id="node14" class="node">
<title>Node14</title>
<g id="a_node14"><a xlink:href="TransmitterCode_2src_2main_8cpp.html#a5c7f22bae35d5d6df9d54fe79dbb8401" target="_top" xlink:title=" ">
<polygon fill="white" stroke="#666666" points="128,-602.5 0,-602.5 0,-583.5 128,-583.5 128,-602.5"/>
<text text-anchor="middle" x="64" y="-590.5" font-family="Helvetica,sans-Serif" font-size="10.00">ResetTransmitterSettings</text>
</a>
</g>
</g>
<!-- Node13&#45;&gt;Node14 -->
<g id="edge15" class="edge">
<title>Node13&#45;&gt;Node14</title>
<path fill="none" stroke="#63b8ff" d="M160.03,-593C149.75,-593 138.9,-593 128.34,-593"/>
<polygon fill="#63b8ff" stroke="#63b8ff" points="159.83,-596.5 169.83,-593 159.83,-589.5 159.83,-596.5"/>
</g>
<!-- Node15&#45;&gt;Node12 -->
<g id="edge18" class="edge">
<title>Node15&#45;&gt;Node12</title>
<path fill="none" stroke="#63b8ff" d="M272.94,-621.57C295.69,-615.97 320.31,-608.91 336.89,-602.99"/>
<polygon fill="#63b8ff" stroke="#63b8ff" points="272.35,-618.11 263.44,-623.84 273.98,-624.92 272.35,-618.11"/>
</g>
<!-- Node17 -->
<g id="node17" class="node">
<title>Node17</title>
<g id="a_node17"><a xlink:href="RadioFunctions_8cpp.html#a049bfb836e7aa4a3a48a1a4bd225fafc" target="_top" xlink:title=" ">
<polygon fill="white" stroke="#666666" points="789,-435.5 730,-435.5 730,-416.5 789,-416.5 789,-435.5"/>
<text text-anchor="middle" x="759.5" y="-423.5" font-family="Helvetica,sans-Serif" font-size="10.00">SendData</text>
</a>
</g>
</g>
<!-- Node16&#45;&gt;Node17 -->
<g id="edge20" class="edge">
<title>Node16&#45;&gt;Node17</title>
<path fill="none" stroke="#63b8ff" d="M817.2,-440.72C807.75,-438.27 798.09,-435.76 789.49,-433.53"/>
<polygon fill="#63b8ff" stroke="#63b8ff" points="816.1,-444.05 826.66,-443.18 817.86,-437.28 816.1,-444.05"/>
</g>
<!-- Node17&#45;&gt;Node10 -->
<g id="edge21" class="edge">
<title>Node17&#45;&gt;Node10</title>
<path fill="none" stroke="#63b8ff" d="M743.69,-407.75C716.24,-375.54 653.85,-309.69 584,-285 527.85,-265.15 509.2,-278.5 450,-285 433.71,-286.79 430.29,-291.21 414,-293 364.08,-298.48 351.19,-294.91 301,-293 218.67,-289.86 120.54,-280.6 81.86,-276.73"/>
<polygon fill="#63b8ff" stroke="#63b8ff" points="740.71,-409.64 749.81,-415.07 746.08,-405.15 740.71,-409.64"/>
</g>
<!-- Node18 -->
<g id="node18" class="node">
<title>Node18</title>
<g id="a_node18"><a xlink:href="RadioFunctions_8cpp.html#a760609a682300dfe6bfaac737fd4d5eb" target="_top" xlink:title=" ">
<polygon fill="#fff0f0" stroke="red" points="694,-480.5 620,-480.5 620,-461.5 694,-461.5 694,-480.5"/>
<text text-anchor="middle" x="657" y="-468.5" font-family="Helvetica,sans-Serif" font-size="10.00">Procrastinate</text>
</a>
</g>
</g>
<!-- Node17&#45;&gt;Node18 -->
<g id="edge22" class="edge">
<title>Node17&#45;&gt;Node18</title>
<path fill="none" stroke="#63b8ff" d="M725.84,-440.62C710.92,-447.3 693.63,-455.05 680.24,-461.04"/>
<polygon fill="#63b8ff" stroke="#63b8ff" points="727.12,-443.89 734.81,-436.61 724.26,-437.5 727.12,-443.89"/>
</g>
<!-- Node18&#45;&gt;Node12 -->
<g id="edge24" class="edge">
<title>Node18&#45;&gt;Node12</title>
<path fill="none" stroke="#63b8ff" d="M653.14,-491.66C647.18,-525.78 629.94,-593.01 584,-622 517.57,-663.92 418.16,-623.14 377.18,-602.91"/>
<polygon fill="#63b8ff" stroke="#63b8ff" points="656.53,-492.64 654.62,-482.22 649.61,-491.55 656.53,-492.64"/>
</g>
<!-- Node19 -->
<g id="node19" class="node">
<title>Node19</title>
<g id="a_node19"><a xlink:href="TransmitterCode_2src_2main_8cpp.html#a7b8f152779a09d867292d3a8e7f76d85" target="_top" xlink:title=" ">
<polygon fill="white" stroke="#666666" points="545,-536.5 489,-536.5 489,-517.5 545,-517.5 545,-536.5"/>
<text text-anchor="middle" x="517" y="-524.5" font-family="Helvetica,sans-Serif" font-size="10.00">BindNow</text>
</a>
</g>
</g>
<!-- Node18&#45;&gt;Node19 -->
<g id="edge23" class="edge">
<title>Node18&#45;&gt;Node19</title>
<path fill="none" stroke="#63b8ff" d="M629.7,-486.67C616.34,-494.16 599.66,-502.82 584,-509 571.63,-513.88 557.45,-517.94 545.41,-520.96"/>
<polygon fill="#63b8ff" stroke="#63b8ff" points="631.37,-489.74 638.3,-481.73 627.89,-483.67 631.37,-489.74"/>
</g>
<!-- Node20 -->
<g id="node20" class="node">
<title>Node20</title>
<g id="a_node20"><a xlink:href="TransmitterCode_2src_2main_8cpp.html#af8fe429ceb65bf9d257a2a0f1c63eccb" target="_top" xlink:title=" ">
<polygon fill="#fff0f0" stroke="red" points="568,-499.5 466,-499.5 466,-480.5 568,-480.5 568,-499.5"/>
<text text-anchor="middle" x="517" y="-487.5" font-family="Helvetica,sans-Serif" font-size="10.00">CompareModelsIDs</text>
</a>
</g>
</g>
<!-- Node18&#45;&gt;Node20 -->
<g id="edge25" class="edge">
<title>Node18&#45;&gt;Node20</title>
<path fill="none" stroke="#63b8ff" d="M608.65,-477.52C595.63,-479.31 581.46,-481.26 568.28,-483.08"/>
<polygon fill="#63b8ff" stroke="#63b8ff" points="608.81,-481.03 618.24,-476.2 607.86,-474.1 608.81,-481.03"/>
</g>
<!-- Node24 -->
<g id="node21" class="node">
<title>Node24</title>
<g id="a_node21"><a xlink:href="TransmitterCode_2src_2main_8cpp.html#aa61377ec59e711151913086167f2f48f" target="_top" xlink:title=" ">
<polygon fill="white" stroke="#666666" points="584,-349.5 450,-349.5 450,-330.5 584,-330.5 584,-349.5"/>
<text text-anchor="middle" x="517" y="-337.5" font-family="Helvetica,sans-Serif" font-size="10.00">DisplayCurveAndServoPos</text>
</a>
</g>
</g>
<!-- Node18&#45;&gt;Node24 -->
<g id="edge26" class="edge">
<title>Node18&#45;&gt;Node24</title>
<path fill="none" stroke="#63b8ff" d="M647.27,-450.89C635.94,-427.01 614.01,-387.47 584,-364 576.32,-357.99 566.99,-353.39 557.8,-349.91"/>
<polygon fill="#63b8ff" stroke="#63b8ff" points="644.01,-452.19 651.34,-459.84 650.38,-449.29 644.01,-452.19"/>
</g>
<!-- Node26 -->
<g id="node23" class="node">
<title>Node26</title>
<g id="a_node23"><a xlink:href="TransmitterCode_2src_2main_8cpp.html#ad7b8aa834c87265667a5687b1787a1cc" target="_top" xlink:title=" ">
<polygon fill="#fff0f0" stroke="red" points="545,-425.5 489,-425.5 489,-406.5 545,-406.5 545,-425.5"/>
<text text-anchor="middle" x="517" y="-413.5" font-family="Helvetica,sans-Serif" font-size="10.00">EndSend</text>
</a>
</g>
</g>
<!-- Node18&#45;&gt;Node26 -->
<g id="edge30" class="edge">
<title>Node18&#45;&gt;Node26</title>
<path fill="none" stroke="#63b8ff" d="M628.5,-455.76C615.3,-448.84 599.1,-440.89 584,-435 571.56,-430.15 557.37,-425.9 545.35,-422.66"/>
<polygon fill="#63b8ff" stroke="#63b8ff" points="626.56,-458.69 637.03,-460.33 629.86,-452.52 626.56,-458.69"/>
</g>
<!-- Node39 -->
<g id="node24" class="node">
<title>Node39</title>
<g id="a_node24"><a xlink:href="TransmitterCode_2src_2main_8cpp.html#a0e7666bd8d250935f34395e0f6dea7bf" target="_top" xlink:title=" ">
<polygon fill="white" stroke="#666666" points="396,-434.5 319,-434.5 319,-415.5 396,-415.5 396,-434.5"/>
<text text-anchor="middle" x="357.5" y="-422.5" font-family="Helvetica,sans-Serif" font-size="10.00">EndSlowView</text>
</a>
</g>
</g>
<!-- Node18&#45;&gt;Node39 -->
<g id="edge31" class="edge">
<title>Node18&#45;&gt;Node39</title>
<path fill="none" stroke="#63b8ff" d="M643.63,-451.58C631.06,-433.85 609.81,-408.79 584,-398 514.52,-368.94 423.19,-398.27 381.29,-415.04"/>
<polygon fill="#63b8ff" stroke="#63b8ff" points="640.65,-453.43 649.15,-459.76 646.46,-449.52 640.65,-453.43"/>
</g>
<!-- Node33 -->
<g id="node25" class="node">
<title>Node33</title>
<g id="a_node25"><a xlink:href="TransmitterCode_2src_2main_8cpp.html#a6e4fac4e296c09388b8b56353402d67a" target="_top" xlink:title=" ">
<polygon fill="#fff0f0" stroke="red" points="545.5,-462.5 488.5,-462.5 488.5,-443.5 545.5,-443.5 545.5,-462.5"/>
<text text-anchor="middle" x="517" y="-450.5" font-family="Helvetica,sans-Serif" font-size="10.00">GetValue</text>
</a>
</g>
</g>
<!-- Node18&#45;&gt;Node33 -->
<g id="edge32" class="edge">
<title>Node18&#45;&gt;Node33</title>
<path fill="none" stroke="#63b8ff" d="M608.47,-464.8C587.55,-462.07 563.69,-458.96 545.73,-456.62"/>
<polygon fill="#63b8ff" stroke="#63b8ff" points="607.87,-468.25 618.24,-466.07 608.78,-461.31 607.87,-468.25"/>
</g>
<!-- Node41 -->
<g id="node27" class="node">
<title>Node41</title>
<g id="a_node27"><a xlink:href="TransmitterCode_2src_2main_8cpp.html#a8ac4e6b41e9a80988a21774ad9f3b3ee" target="_top" xlink:title=" ">
<polygon fill="white" stroke="#666666" points="399,-490.5 316,-490.5 316,-471.5 399,-471.5 399,-490.5"/>
<text text-anchor="middle" x="357.5" y="-478.5" font-family="Helvetica,sans-Serif" font-size="10.00">ListenToBanks</text>
</a>
</g>
</g>
<!-- Node18&#45;&gt;Node41 -->
<g id="edge39" class="edge">
<title>Node18&#45;&gt;Node41</title>
<path fill="none" stroke="#63b8ff" d="M644.13,-490.39C631.71,-508.63 610.36,-534.77 584,-546 529.21,-569.35 506.74,-564.1 450,-546 415.84,-535.1 383.52,-506.29 368.04,-490.95"/>
<polygon fill="#63b8ff" stroke="#63b8ff" points="646.91,-492.54 649.41,-482.24 641.03,-488.73 646.91,-492.54"/>
</g>
<!-- Node46 -->
<g id="node28" class="node">
<title>Node46</title>
<g id="a_node28"><a xlink:href="TransmitterCode_2src_2main_8cpp.html#abdecfd433e1830c6497040b03450bed7" target="_top" xlink:title=" ">
<polygon fill="white" stroke="#666666" points="563,-612.5 471,-612.5 471,-593.5 563,-593.5 563,-612.5"/>
<text text-anchor="middle" x="517" y="-600.5" font-family="Helvetica,sans-Serif" font-size="10.00">GotoMacrosView</text>
</a>
</g>
</g>
<!-- Node18&#45;&gt;Node46 -->
<g id="edge38" class="edge">
<title>Node18&#45;&gt;Node46</title>
<path fill="none" stroke="#63b8ff" d="M647.31,-491.3C636.03,-515.4 614.16,-555.32 584,-579 576.33,-585.02 567.01,-589.63 557.82,-593.11"/>
<polygon fill="#63b8ff" stroke="#63b8ff" points="650.47,-492.81 651.37,-482.26 644.08,-489.95 650.47,-492.81"/>
</g>
<!-- Node24&#45;&gt;Node12 -->
<g id="edge27" class="edge">
<title>Node24&#45;&gt;Node12</title>
<path fill="none" stroke="#63b8ff" d="M491.85,-356.38C477.95,-366.87 461.11,-381.57 450,-398 423.07,-437.82 434.42,-456.48 414,-500 399.15,-531.66 376.58,-566.41 365.35,-583.04"/>
<polygon fill="#63b8ff" stroke="#63b8ff" points="493.62,-359.42 499.66,-350.71 489.51,-353.75 493.62,-359.42"/>
</g>
<!-- Node25 -->
<g id="node22" class="node">
<title>Node25</title>
<g id="a_node22"><a xlink:href="TransmitterCode_2src_2main_8cpp.html#aa98d7fb495cbdc40cb17343ffafbfe15" target="_top" xlink:title=" ">
<polygon fill="white" stroke="#666666" points="385,-141.5 330,-141.5 330,-122.5 385,-122.5 385,-141.5"/>
<text text-anchor="middle" x="357.5" y="-129.5" font-family="Helvetica,sans-Serif" font-size="10.00">GetBank</text>
</a>
</g>
</g>
<!-- Node24&#45;&gt;Node25 -->
<g id="edge28" class="edge">
<title>Node24&#45;&gt;Node25</title>
<path fill="none" stroke="#63b8ff" d="M452.35,-324.04C451.55,-323.39 450.76,-322.71 450,-322 414.53,-288.93 435.18,-262.62 414,-219 399.68,-189.51 377.47,-157.72 365.97,-141.99"/>
<polygon fill="#63b8ff" stroke="#63b8ff" points="450.18,-326.81 460.48,-329.28 453.97,-320.92 450.18,-326.81"/>
</g>
<!-- Node25&#45;&gt;Node9 -->
<g id="edge29" class="edge">
<title>Node25&#45;&gt;Node9</title>
<path fill="none" stroke="#63b8ff" d="M334.07,-148.7C304.4,-170.8 253.03,-209.05 228.83,-227.07"/>
<polygon fill="#63b8ff" stroke="#63b8ff" points="336.09,-151.56 342.02,-142.78 331.91,-145.95 336.09,-151.56"/>
</g>
<!-- Node33&#45;&gt;Node12 -->
<g id="edge33" class="edge">
<title>Node33&#45;&gt;Node12</title>
<path fill="none" stroke="#63b8ff" d="M477.37,-459.66C467.88,-462.46 458.12,-466.42 450,-472 406.15,-502.12 374.53,-560.04 363.14,-583.14"/>
<polygon fill="#63b8ff" stroke="#63b8ff" points="477.99,-463.12 486.81,-457.25 476.26,-456.34 477.99,-463.12"/>
</g>
<!-- Node33&#45;&gt;Node39 -->
<g id="edge36" class="edge">
<title>Node33&#45;&gt;Node39</title>
<path fill="none" stroke="#63b8ff" d="M477.09,-446.08C452.46,-441.7 420.78,-436.07 396.36,-431.73"/>
<polygon fill="#63b8ff" stroke="#63b8ff" points="476.26,-449.49 486.71,-447.79 477.48,-442.6 476.26,-449.49"/>
</g>
<!-- Node35 -->
<g id="node26" class="node">
<title>Node35</title>
<g id="a_node26"><a xlink:href="TransmitterCode_2src_2main_8cpp.html#a984cb52354a84c45e9e41f396a1c5e92" target="_top" xlink:title=" ">
<polygon fill="white" stroke="#666666" points="406,-246.5 309,-246.5 309,-227.5 406,-227.5 406,-246.5"/>
<text text-anchor="middle" x="357.5" y="-234.5" font-family="Helvetica,sans-Serif" font-size="10.00">CheckModelName</text>
</a>
</g>
</g>
<!-- Node33&#45;&gt;Node35 -->
<g id="edge34" class="edge">
<title>Node33&#45;&gt;Node35</title>
<path fill="none" stroke="#63b8ff" d="M476.97,-449.71C466.98,-447.07 457.07,-442.57 450,-435 394.6,-375.71 467.49,-317.02 414,-256 410.78,-252.32 406.81,-249.36 402.5,-246.97"/>
<polygon fill="#63b8ff" stroke="#63b8ff" points="476.17,-453.12 486.67,-451.67 477.56,-446.26 476.17,-453.12"/>
</g>
<!-- Node33&#45;&gt;Node41 -->
<g id="edge37" class="edge">
<title>Node33&#45;&gt;Node41</title>
<path fill="none" stroke="#63b8ff" d="M477.17,-459.9C453.52,-464.11 423.34,-469.47 399.33,-473.74"/>
<polygon fill="#63b8ff" stroke="#63b8ff" points="477.48,-463.4 486.71,-458.21 476.26,-456.51 477.48,-463.4"/>
</g>
<!-- Node35&#45;&gt;Node9 -->
<g id="edge35" class="edge">
<title>Node35&#45;&gt;Node9</title>
<path fill="none" stroke="#63b8ff" d="M297.32,-237C286.6,-237 275.52,-237 265.11,-237"/>
<polygon fill="#63b8ff" stroke="#63b8ff" points="297.25,-240.5 307.25,-237 297.25,-233.5 297.25,-240.5"/>
</g>
<!-- Node101&#45;&gt;Node12 -->
<g id="edge42" class="edge">
<title>Node101&#45;&gt;Node12</title>
<path fill="none" stroke="#63b8ff" d="M813.76,-725.78C732.51,-737.35 570.15,-750.12 450,-693 407.92,-672.99 376.2,-624.11 363.98,-602.99"/>
<polygon fill="#63b8ff" stroke="#63b8ff" points="813.8,-729.31 823.18,-724.38 812.77,-722.39 813.8,-729.31"/>
</g>
<!-- Node23&#45;&gt;Node17 -->
<g id="edge44" class="edge">
<title>Node23&#45;&gt;Node17</title>
<path fill="none" stroke="#63b8ff" d="M1042.28,-389.59C968.63,-399.11 845.25,-415.05 789.46,-422.26"/>
<polygon fill="#63b8ff" stroke="#63b8ff" points="1042.68,-393.06 1052.15,-388.31 1041.79,-386.12 1042.68,-393.06"/>
</g>
<!-- Node159&#45;&gt;Node11 -->
<g id="edge46" class="edge">
<title>Node159&#45;&gt;Node11</title>
<path fill="none" stroke="#63b8ff" d="M1180.18,-538.55C1128.95,-550.5 1053.64,-568.06 1011.83,-577.81"/>
<polygon fill="#63b8ff" stroke="#63b8ff" points="1180.95,-541.97 1189.89,-536.29 1179.36,-535.15 1180.95,-541.97"/>
</g>
<!-- Node161&#45;&gt;Node6 -->
<g id="edge49" class="edge">
<title>Node161&#45;&gt;Node6</title>
<path fill="none" stroke="#63b8ff" d="M1465.17,-304C1449.77,-304 1432.61,-304 1417.58,-304"/>
<polygon fill="#63b8ff" stroke="#63b8ff" points="1465.02,-307.5 1475.02,-304 1465.02,-300.5 1465.02,-307.5"/>
</g>
<!-- Node162&#45;&gt;Node25 -->
<g id="edge51" class="edge">
<title>Node162&#45;&gt;Node25</title>
<path fill="none" stroke="#63b8ff" d="M718.75,-33.13C658.37,-27.34 540.92,-22.48 450,-58 414.22,-71.97 381.65,-105.33 366.87,-122.07"/>
<polygon fill="#63b8ff" stroke="#63b8ff" points="718.24,-36.59 728.54,-34.13 718.95,-29.63 718.24,-36.59"/>
</g>
<!-- Node163&#45;&gt;Node25 -->
<g id="edge53" class="edge">
<title>Node163&#45;&gt;Node25</title>
<path fill="none" stroke="#63b8ff" d="M930.29,-139.32C886.07,-144.51 819.02,-151 760.5,-151 760.5,-151 760.5,-151 656,-151 555.85,-151 437.13,-140.14 385.13,-134.84"/>
<polygon fill="#63b8ff" stroke="#63b8ff" points="930.56,-142.81 940.07,-138.15 929.73,-135.86 930.56,-142.81"/>
</g>
<!-- Node164&#45;&gt;Node12 -->
<g id="edge55" class="edge">
<title>Node164&#45;&gt;Node12</title>
<path fill="none" stroke="#63b8ff" d="M468.99,-309.59C461.85,-312.42 455.16,-316.41 450,-322 395.28,-381.33 443.1,-424.71 414,-500 401.39,-532.62 377.81,-566.93 365.85,-583.26"/>
<polygon fill="#63b8ff" stroke="#63b8ff" points="469.72,-313.03 478.19,-306.67 467.6,-306.36 469.72,-313.03"/>
</g>
<!-- Node59 -->
<g id="node37" class="node">
<title>Node59</title>
<g id="a_node37"><a xlink:href="TransmitterCode_2src_2main_8cpp.html#a6ae37c6938b8c10b83d1bc74e8643bd9" target="_top" xlink:title=" ">
<polygon fill="white" stroke="#666666" points="414,-283.5 301,-283.5 301,-264.5 414,-264.5 414,-283.5"/>
<text text-anchor="middle" x="357.5" y="-271.5" font-family="Helvetica,sans-Serif" font-size="10.00">CheckPowerOffButton</text>
</a>
</g>
</g>
<!-- Node164&#45;&gt;Node59 -->
<g id="edge56" class="edge">
<title>Node164&#45;&gt;Node59</title>
<path fill="none" stroke="#63b8ff" d="M468.69,-294.29C451.06,-291.04 430.91,-287.33 412.71,-283.98"/>
<polygon fill="#63b8ff" stroke="#63b8ff" points="467.91,-297.7 478.38,-296.07 469.18,-290.82 467.91,-297.7"/>
</g>
<!-- Node59&#45;&gt;Node9 -->
<g id="edge57" class="edge">
<title>Node59&#45;&gt;Node9</title>
<path fill="none" stroke="#63b8ff" d="M307.67,-261.19C289.89,-256.52 270.08,-251.32 253.39,-246.94"/>
<polygon fill="#63b8ff" stroke="#63b8ff" points="306.69,-264.55 317.25,-263.7 308.47,-257.78 306.69,-264.55"/>
</g>
<!-- Node79 -->
<g id="node39" class="node">
<title>Node79</title>
<g id="a_node39"><a xlink:href="TransmitterCode_2src_2main_8cpp.html#a17699f358cf9f7c3155a9c5daf8ff13c" target="_top" xlink:title=" ">
<polygon fill="white" stroke="#666666" points="1397,-161.5 1356,-161.5 1356,-142.5 1397,-142.5 1397,-161.5"/>
<text text-anchor="middle" x="1376.5" y="-149.5" font-family="Helvetica,sans-Serif" font-size="10.00">setup</text>
</a>
</g>
</g>
<!-- Node165&#45;&gt;Node79 -->
<g id="edge59" class="edge">
<title>Node165&#45;&gt;Node79</title>
<path fill="none" stroke="#63b8ff" d="M1461.82,-152.64C1439.64,-152.47 1414.46,-152.28 1397.44,-152.15"/>
<polygon fill="#63b8ff" stroke="#63b8ff" points="1461.54,-156.14 1471.57,-152.71 1461.59,-149.14 1461.54,-156.14"/>
</g>
<!-- Node110 -->
<g id="node41" class="node">
<title>Node110</title>
<g id="a_node41"><a xlink:href="TransmitterCode_2src_2main_8cpp.html#ac015e93acba51fe284176b84c05e3450" target="_top" xlink:title=" ">
<polygon fill="white" stroke="#666666" points="562,-122.5 472,-122.5 472,-103.5 562,-103.5 562,-122.5"/>
<text text-anchor="middle" x="517" y="-110.5" font-family="Helvetica,sans-Serif" font-size="10.00">ShowSafetyIsOff</text>
</a>
</g>
</g>
<!-- Node166&#45;&gt;Node110 -->
<g id="edge61" class="edge">
<title>Node166&#45;&gt;Node110</title>
<path fill="none" stroke="#63b8ff" d="M615.05,-86.98C596.1,-92.06 573.75,-98.05 555.27,-103.01"/>
<polygon fill="#63b8ff" stroke="#63b8ff" points="615.84,-90.39 624.59,-84.42 614.03,-83.63 615.84,-90.39"/>
</g>
<!-- Node111 -->
<g id="node42" class="node">
<title>Node111</title>
<g id="a_node42"><a xlink:href="TransmitterCode_2src_2main_8cpp.html#a624dab5b77d191ddae33fbe2ac2da4ae" target="_top" xlink:title=" ">
<polygon fill="white" stroke="#666666" points="562,-85.5 472,-85.5 472,-66.5 562,-66.5 562,-85.5"/>
<text text-anchor="middle" x="517" y="-73.5" font-family="Helvetica,sans-Serif" font-size="10.00">ShowSafetyIsOn</text>
</a>
</g>
</g>
<!-- Node166&#45;&gt;Node111 -->
<g id="edge63" class="edge">
<title>Node166&#45;&gt;Node111</title>
<path fill="none" stroke="#63b8ff" d="M614.56,-76C598.07,-76 579.07,-76 562.3,-76"/>
<polygon fill="#63b8ff" stroke="#63b8ff" points="614.54,-79.5 624.54,-76 614.54,-72.5 614.54,-79.5"/>
</g>
<!-- Node110&#45;&gt;Node25 -->
<g id="edge62" class="edge">
<title>Node110&#45;&gt;Node25</title>
<path fill="none" stroke="#63b8ff" d="M460.28,-119.72C434.77,-122.8 405.73,-126.3 385.21,-128.78"/>
<polygon fill="#63b8ff" stroke="#63b8ff" points="460.7,-123.2 470.21,-118.52 459.86,-116.25 460.7,-123.2"/>
</g>
<!-- Node111&#45;&gt;Node25 -->
<g id="edge64" class="edge">
<title>Node111&#45;&gt;Node25</title>
<path fill="none" stroke="#63b8ff" d="M467.96,-89.19C461.89,-91.05 455.78,-93.01 450,-95 426.19,-103.22 399.55,-114.2 381.19,-122.06"/>
<polygon fill="#63b8ff" stroke="#63b8ff" points="468.75,-92.61 477.34,-86.41 466.75,-85.9 468.75,-92.61"/>
</g>
<!-- Node168 -->
<g id="node44" class="node">
<title>Node168</title>
<g id="a_node44"><a xlink:href="TransmitterCode_2src_2main_8cpp.html#a953f1d5046e183549ed95b08f6d675e3" target="_top" xlink:title=" ">
<polygon fill="white" stroke="#666666" points="1284,-373.5 1186,-373.5 1186,-354.5 1284,-354.5 1284,-373.5"/>
<text text-anchor="middle" x="1235" y="-361.5" font-family="Helvetica,sans-Serif" font-size="10.00">CheckGapsLength</text>
</a>
</g>
</g>
<!-- Node167&#45;&gt;Node168 -->
<g id="edge66" class="edge">
<title>Node167&#45;&gt;Node168</title>
<path fill="none" stroke="#63b8ff" d="M1463.78,-344.84C1414.06,-349.03 1334.94,-355.68 1284.26,-359.94"/>
<polygon fill="#63b8ff" stroke="#63b8ff" points="1463.96,-348.34 1473.63,-344.02 1463.37,-341.37 1463.96,-348.34"/>
</g>
<!-- Node168&#45;&gt;Node23 -->
<g id="edge67" class="edge">
<title>Node168&#45;&gt;Node23</title>
<path fill="none" stroke="#63b8ff" d="M1174.34,-372.2C1166.3,-373.3 1158.13,-374.42 1150.34,-375.5"/>
<polygon fill="#63b8ff" stroke="#63b8ff" points="1174.66,-375.69 1184.09,-370.86 1173.71,-368.75 1174.66,-375.69"/>
</g>
<!-- Node169&#45;&gt;Node16 -->
<g id="edge69" class="edge">
<title>Node169&#45;&gt;Node16</title>
<path fill="none" stroke="#63b8ff" d="M1044.1,-453C1000.05,-453 940.37,-453 902.65,-453"/>
<polygon fill="#63b8ff" stroke="#63b8ff" points="1043.99,-456.5 1053.99,-453 1043.99,-449.5 1043.99,-456.5"/>
</g>
<!-- Node170&#45;&gt;Node35 -->
<g id="edge71" class="edge">
<title>Node170&#45;&gt;Node35</title>
<path fill="none" stroke="#63b8ff" d="M1459.6,-189.87C1351.5,-189.6 1087.61,-189 866.5,-189 866.5,-189 866.5,-189 656,-189 561.31,-189 451.8,-212.99 395.76,-227.05"/>
<polygon fill="#63b8ff" stroke="#63b8ff" points="1459.57,-193.37 1469.57,-189.89 1459.58,-186.37 1459.57,-193.37"/>
</g>
<!-- Node170&#45;&gt;Node79 -->
<g id="edge72" class="edge">
<title>Node170&#45;&gt;Node79</title>
<path fill="none" stroke="#63b8ff" d="M1463.98,-176.9C1441.19,-170.34 1414.8,-162.74 1397.22,-157.68"/>
<polygon fill="#63b8ff" stroke="#63b8ff" points="1462.79,-180.19 1473.36,-179.6 1464.72,-173.47 1462.79,-180.19"/>
</g>
<!-- Node172 -->
<g id="node48" class="node">
<title>Node172</title>
<g id="a_node48"><a xlink:href="TransmitterCode_2src_2main_8cpp.html#a4f813935d8fe58355228cbbf25e12f96" target="_top" xlink:title=" ">
<polygon fill="white" stroke="#666666" points="1433,-415.5 1320,-415.5 1320,-396.5 1433,-396.5 1433,-415.5"/>
<text text-anchor="middle" x="1376.5" y="-403.5" font-family="Helvetica,sans-Serif" font-size="10.00">GetRXVersionNumber</text>
</a>
</g>
</g>
<!-- Node171&#45;&gt;Node172 -->
<g id="edge74" class="edge">
<title>Node171&#45;&gt;Node172</title>
<path fill="none" stroke="#63b8ff" d="M1466.15,-412.04C1455.68,-411.33 1444.34,-410.56 1433.38,-409.81"/>
<polygon fill="#63b8ff" stroke="#63b8ff" points="1465.82,-415.53 1476.04,-412.72 1466.3,-408.55 1465.82,-415.53"/>
</g>
<!-- Node22 -->
<g id="node49" class="node">
<title>Node22</title>
<g id="a_node49"><a xlink:href="TransmitterCode_2src_2main_8cpp.html#a694f4f5a0147f4dc29b0bc1a8951547d" target="_top" xlink:title=" ">
<polygon fill="white" stroke="#666666" points="1282,-410.5 1188,-410.5 1188,-391.5 1282,-391.5 1282,-410.5"/>
<text text-anchor="middle" x="1235" y="-398.5" font-family="Helvetica,sans-Serif" font-size="10.00">ParseAckPayload</text>
</a>
</g>
</g>
<!-- Node172&#45;&gt;Node22 -->
<g id="edge75" class="edge">
<title>Node172&#45;&gt;Node22</title>
<path fill="none" stroke="#63b8ff" d="M1308.08,-403.58C1299.28,-403.27 1290.44,-402.95 1282.11,-402.65"/>
<polygon fill="#63b8ff" stroke="#63b8ff" points="1307.93,-407.08 1318.05,-403.94 1308.18,-400.08 1307.93,-407.08"/>
</g>
<!-- Node22&#45;&gt;Node23 -->
<g id="edge76" class="edge">
<title>Node22&#45;&gt;Node23</title>
<path fill="none" stroke="#63b8ff" d="M1176.71,-392.69C1167.82,-391.4 1158.73,-390.08 1150.1,-388.83"/>
<polygon fill="#63b8ff" stroke="#63b8ff" points="1175.92,-396.11 1186.32,-394.08 1176.92,-389.18 1175.92,-396.11"/>
</g>
<!-- Node119&#45;&gt;Node9 -->
<g id="edge78" class="edge">
<title>Node119&#45;&gt;Node9</title>
<path fill="none" stroke="#63b8ff" d="M1678.95,-16.46C1637.02,-9.42 1569.95,0 1511.5,0 1511.5,0 1511.5,0 516,0 465.79,0 334.34,-83.35 301,-114 262.52,-149.38 231.76,-205.03 220.32,-227.31"/>
<polygon fill="#63b8ff" stroke="#63b8ff" points="1678.15,-19.87 1688.59,-18.12 1679.33,-12.97 1678.15,-19.87"/>
</g>
</g>
</svg>
