<?xml version="1.0" encoding="UTF-8" standalone="no"?>
<!DOCTYPE svg PUBLIC "-//W3C//DTD SVG 1.1//EN"
 "http://www.w3.org/Graphics/SVG/1.1/DTD/svg11.dtd">
<!-- Generated by graphviz version 7.0.4 (20221203.1631)
 -->
<!-- Title: ShowMotor Pages: 1 -->
<svg width="373pt" height="64pt"
 viewBox="0.00 0.00 373.00 64.00" xmlns="http://www.w3.org/2000/svg" xmlns:xlink="http://www.w3.org/1999/xlink">
<g id="graph0" class="graph" transform="scale(1 1) rotate(0) translate(4 60)">
<title>ShowMotor</title>
<!-- Node1 -->
<g id="node1" class="node">
<title>Node1</title>
<g id="a_node1"><a xlink:title=" ">
<polygon fill="#999999" stroke="#666666" points="365,-37 299,-37 299,-18 365,-18 365,-37"/>
<text text-anchor="middle" x="332" y="-25" font-family="Helvetica,sans-Serif" font-size="10.00">ShowMotor</text>
</a>
</g>
</g>
<!-- Node2 -->
<g id="node2" class="node">
<title>Node2</title>
<g id="a_node2"><a xlink:href="TransmitterCode_2src_2main_8cpp.html#aa98d7fb495cbdc40cb17343ffafbfe15" target="_top" xlink:title=" ">
<polygon fill="white" stroke="#666666" points="263,-56 208,-56 208,-37 263,-37 263,-56"/>
<text text-anchor="middle" x="235.5" y="-44" font-family="Helvetica,sans-Serif" font-size="10.00">GetBank</text>
</a>
</g>
</g>
<!-- Node1&#45;&gt;Node2 -->
<g id="edge1" class="edge">
<title>Node1&#45;&gt;Node2</title>
<path fill="none" stroke="#63b8ff" d="M287.62,-36.22C279.32,-37.89 270.86,-39.59 263.28,-41.12"/>
<polygon fill="#63b8ff" stroke="#63b8ff" points="288.15,-39.69 297.26,-34.28 286.77,-32.82 288.15,-39.69"/>
</g>
<!-- Node5 -->
<g id="node5" class="node">
<title>Node5</title>
<g id="a_node5"><a xlink:href="TransmitterCode_2src_2main_8cpp.html#a17699f358cf9f7c3155a9c5daf8ff13c" target="_top" xlink:title=" ">
<polygon fill="white" stroke="#666666" points="256,-19 215,-19 215,0 256,0 256,-19"/>
<text text-anchor="middle" x="235.5" y="-7" font-family="Helvetica,sans-Serif" font-size="10.00">setup</text>
</a>
</g>
</g>
<!-- Node1&#45;&gt;Node5 -->
<g id="edge4" class="edge">
<title>Node1&#45;&gt;Node5</title>
<path fill="none" stroke="#63b8ff" d="M287.53,-19.22C276.58,-17.13 265.35,-15 256.23,-13.26"/>
<polygon fill="#63b8ff" stroke="#63b8ff" points="286.78,-22.64 297.26,-21.07 288.09,-15.76 286.78,-22.64"/>
</g>
<!-- Node3 -->
<g id="node3" class="node">
<title>Node3</title>
<g id="a_node3"><a xlink:href="TransmitterCode_2src_2main_8cpp.html#a558ea014e230b7caa54ce5a37ad29b22" target="_top" xlink:title=" ">
<polygon fill="white" stroke="#666666" points="172,-56 71,-56 71,-37 172,-37 172,-56"/>
<text text-anchor="middle" x="121.5" y="-44" font-family="Helvetica,sans-Serif" font-size="10.00">ManageTransmitter</text>
</a>
</g>
</g>
<!-- Node2&#45;&gt;Node3 -->
<g id="edge2" class="edge">
<title>Node2&#45;&gt;Node3</title>
<path fill="none" stroke="#63b8ff" d="M196.41,-46.5C188.67,-46.5 180.42,-46.5 172.35,-46.5"/>
<polygon fill="#63b8ff" stroke="#63b8ff" points="196.16,-50 206.16,-46.5 196.16,-43 196.16,-50"/>
</g>
<!-- Node4 -->
<g id="node4" class="node">
<title>Node4</title>
<g id="a_node4"><a xlink:href="TransmitterCode_2src_2main_8cpp.html#ad3cb30894c94eb016e98bdcaa899ac86" target="_top" xlink:title=" ">
<polygon fill="white" stroke="#666666" points="35,-56 0,-56 0,-37 35,-37 35,-56"/>
<text text-anchor="middle" x="17.5" y="-44" font-family="Helvetica,sans-Serif" font-size="10.00">loop</text>
</a>
</g>
</g>
<!-- Node3&#45;&gt;Node4 -->
<g id="edge3" class="edge">
<title>Node3&#45;&gt;Node4</title>
<path fill="none" stroke="#63b8ff" d="M59.4,-46.5C50.6,-46.5 42.21,-46.5 35.35,-46.5"/>
<polygon fill="#63b8ff" stroke="#63b8ff" points="59.18,-50 69.18,-46.5 59.18,-43 59.18,-50"/>
</g>
</g>
</svg>
