<?xml version="1.0" encoding="UTF-8" standalone="no"?>
<!DOCTYPE svg PUBLIC "-//W3C//DTD SVG 1.1//EN"
 "http://www.w3.org/Graphics/SVG/1.1/DTD/svg11.dtd">
<!-- Generated by graphviz version 7.0.5 (20221223.1930)
 -->
<!-- Title: ParseAckPayload Pages: 1 -->
<svg width="1363pt" height="996pt"
 viewBox="0.00 0.00 1363.00 996.07" xmlns="http://www.w3.org/2000/svg" xmlns:xlink="http://www.w3.org/1999/xlink">
<g id="graph0" class="graph" transform="scale(1 1) rotate(0) translate(4 992.07)">
<title>ParseAckPayload</title>
<!-- Node1 -->
<g id="node1" class="node">
<title>Node1</title>
<g id="a_node1"><a xlink:title=" ">
<polygon fill="#999999" stroke="#666666" points="94,-245 0,-245 0,-226 94,-226 94,-245"/>
<text text-anchor="middle" x="47" y="-233" font-family="Helvetica,sans-Serif" font-size="10.00">ParseAckPayload</text>
</a>
</g>
</g>
<!-- Node2 -->
<g id="node2" class="node">
<title>Node2</title>
<g id="a_node2"><a xlink:href="TransmitterCode_2src_2main_8cpp.html#a75fa77e7bbb1cfe8fe6e1a216fbdc17e" target="_top" xlink:title=" ">
<polygon fill="white" stroke="#666666" points="226.5,-377 161.5,-377 161.5,-358 226.5,-358 226.5,-377"/>
<text text-anchor="middle" x="194" y="-365" font-family="Helvetica,sans-Serif" font-size="10.00">GetAltitude</text>
</a>
</g>
</g>
<!-- Node1&#45;&gt;Node2 -->
<g id="edge1" class="edge">
<title>Node1&#45;&gt;Node2</title>
<path fill="none" stroke="#63b8ff" d="M52.33,-245.45C62.5,-267.65 90.11,-321.46 130,-349.5 136.06,-353.76 143.1,-357.01 150.25,-359.5"/>
<polygon fill="#63b8ff" stroke="#63b8ff" points="149.02,-362.79 159.6,-362.29 151.02,-356.08 149.02,-362.79"/>
</g>
<!-- Node3 -->
<g id="node3" class="node">
<title>Node3</title>
<g id="a_node3"><a xlink:href="TransmitterCode_2src_2main_8cpp.html#ab5736b017daadeb2c1d7dc73489d31a6" target="_top" xlink:title=" ">
<polygon fill="white" stroke="#666666" points="406.5,-414 299.5,-414 299.5,-395 406.5,-395 406.5,-414"/>
<text text-anchor="middle" x="353" y="-402" font-family="Helvetica,sans-Serif" font-size="10.00">GetFromAckPayload</text>
</a>
</g>
</g>
<!-- Node1&#45;&gt;Node3 -->
<g id="edge4" class="edge">
<title>Node1&#45;&gt;Node3</title>
<path fill="none" stroke="#63b8ff" d="M67.55,-245.49C83.96,-253.65 108.16,-265.16 130,-273.5 185.56,-294.72 212.78,-273.88 258,-312.5 285.81,-336.25 266.25,-362.67 294,-386.5 294.94,-387.31 295.92,-388.08 296.92,-388.81"/>
<polygon fill="#63b8ff" stroke="#63b8ff" points="294.97,-391.72 305.36,-393.78 298.52,-385.69 294.97,-391.72"/>
</g>
<!-- Node4 -->
<g id="node4" class="node">
<title>Node4</title>
<g id="a_node4"><a xlink:href="TransmitterCode_2src_2main_8cpp.html#a160b9119423c34869b16a4ebdc421d35" target="_top" xlink:title=" ">
<polygon fill="white" stroke="#666666" points="257.5,-340 130.5,-340 130.5,-321 257.5,-321 257.5,-340"/>
<text text-anchor="middle" x="194" y="-328" font-family="Helvetica,sans-Serif" font-size="10.00">GetDateFromAckPayload</text>
</a>
</g>
</g>
<!-- Node1&#45;&gt;Node4 -->
<g id="edge3" class="edge">
<title>Node1&#45;&gt;Node4</title>
<path fill="none" stroke="#63b8ff" d="M57.22,-245.46C71.55,-260.45 100.58,-288.91 130,-306.5 136.2,-310.2 143.07,-313.52 149.92,-316.41"/>
<polygon fill="#63b8ff" stroke="#63b8ff" points="148.59,-319.65 159.18,-320.06 151.16,-313.14 148.59,-319.65"/>
</g>
<!-- Node5 -->
<g id="node5" class="node">
<title>Node5</title>
<g id="a_node5"><a xlink:href="TransmitterCode_2src_2main_8cpp.html#a494cb4acb30856d1f53f08df1b80c41b" target="_top" xlink:title=" ">
<polygon fill="white" stroke="#666666" points="253.5,-264 134.5,-264 134.5,-245 253.5,-245 253.5,-264"/>
<text text-anchor="middle" x="194" y="-252" font-family="Helvetica,sans-Serif" font-size="10.00">GetModelsMacAddress</text>
</a>
</g>
</g>
<!-- Node1&#45;&gt;Node5 -->
<g id="edge5" class="edge">
<title>Node1&#45;&gt;Node5</title>
<path fill="none" stroke="#63b8ff" d="M94.28,-241.56C103.39,-242.76 113.15,-244.04 122.84,-245.31"/>
<polygon fill="#63b8ff" stroke="#63b8ff" points="122.29,-248.76 132.66,-246.59 123.2,-241.82 122.29,-248.76"/>
</g>
<!-- Node51 -->
<g id="node39" class="node">
<title>Node51</title>
<g id="a_node39"><a xlink:href="TransmitterCode_2src_2main_8cpp.html#a4f813935d8fe58355228cbbf25e12f96" target="_top" xlink:title=" ">
<polygon fill="white" stroke="#666666" points="250.5,-227 137.5,-227 137.5,-208 250.5,-208 250.5,-227"/>
<text text-anchor="middle" x="194" y="-215" font-family="Helvetica,sans-Serif" font-size="10.00">GetRXVersionNumber</text>
</a>
</g>
</g>
<!-- Node1&#45;&gt;Node51 -->
<g id="edge58" class="edge">
<title>Node1&#45;&gt;Node51</title>
<path fill="none" stroke="#63b8ff" d="M94.28,-229.76C104.26,-228.52 115.01,-227.18 125.61,-225.87"/>
<polygon fill="#63b8ff" stroke="#63b8ff" points="126.02,-229.34 135.51,-224.64 125.16,-222.4 126.02,-229.34"/>
</g>
<!-- Node62 -->
<g id="node43" class="node">
<title>Node62</title>
<g id="a_node43"><a xlink:href="TransmitterCode_2src_2main_8cpp.html#a19f6fc09d690832e74fd3c679207f07f" target="_top" xlink:title=" ">
<polygon fill="white" stroke="#666666" points="237.5,-414 150.5,-414 150.5,-395 237.5,-395 237.5,-414"/>
<text text-anchor="middle" x="194" y="-402" font-family="Helvetica,sans-Serif" font-size="10.00">GetTemperature</text>
</a>
</g>
</g>
<!-- Node1&#45;&gt;Node62 -->
<g id="edge63" class="edge">
<title>Node1&#45;&gt;Node62</title>
<path fill="none" stroke="#63b8ff" d="M50.46,-245.34C57.71,-272.26 81.59,-347.69 130,-386.5 132.93,-388.85 136.15,-390.89 139.54,-392.67"/>
<polygon fill="#63b8ff" stroke="#63b8ff" points="138.13,-395.87 148.69,-396.63 140.91,-389.45 138.13,-395.87"/>
</g>
<!-- Node63 -->
<g id="node44" class="node">
<title>Node63</title>
<g id="a_node44"><a xlink:href="TransmitterCode_2src_2main_8cpp.html#a86523345ecdd52f3d93dccd6fcf4370a" target="_top" xlink:title=" ">
<polygon fill="white" stroke="#666666" points="258,-190 130,-190 130,-171 258,-171 258,-190"/>
<text text-anchor="middle" x="194" y="-178" font-family="Helvetica,sans-Serif" font-size="10.00">GetTimeFromAckPayload</text>
</a>
</g>
</g>
<!-- Node1&#45;&gt;Node63 -->
<g id="edge65" class="edge">
<title>Node1&#45;&gt;Node63</title>
<path fill="none" stroke="#63b8ff" d="M68.61,-225.62C85.03,-217.96 108.7,-207.35 130,-199.5 135.36,-197.52 141.02,-195.6 146.67,-193.77"/>
<polygon fill="#63b8ff" stroke="#63b8ff" points="147.49,-197.18 155.99,-190.86 145.4,-190.5 147.49,-197.18"/>
</g>
<!-- Node64 -->
<g id="node45" class="node">
<title>Node64</title>
<g id="a_node45"><a xlink:href="transceiver_8h.html#a52aa3e80bccf5e75346c93fdae63122d" target="_top" xlink:title=" ">
<polygon fill="white" stroke="#666666" points="244.5,-153 143.5,-153 143.5,-134 244.5,-134 244.5,-153"/>
<text text-anchor="middle" x="194" y="-141" font-family="Helvetica,sans-Serif" font-size="10.00">HopToNextChannel</text>
</a>
</g>
</g>
<!-- Node1&#45;&gt;Node64 -->
<g id="edge66" class="edge">
<title>Node1&#45;&gt;Node64</title>
<path fill="none" stroke="#63b8ff" d="M56.1,-225.99C69.79,-210.5 99.06,-179.81 130,-162.5 133.24,-160.69 136.67,-159.03 140.2,-157.51"/>
<polygon fill="#63b8ff" stroke="#63b8ff" points="141.45,-160.78 149.53,-153.93 138.94,-154.25 141.45,-160.78"/>
</g>
<!-- Node66 -->
<g id="node47" class="node">
<title>Node66</title>
<g id="a_node47"><a xlink:href="Utilities_8h.html#a7a48851f0d38e4a0dd727a30d9515cf1" target="_top" xlink:title=" ">
<polygon fill="white" stroke="#666666" points="231.5,-116 156.5,-116 156.5,-97 231.5,-97 231.5,-116"/>
<text text-anchor="middle" x="194" y="-104" font-family="Helvetica,sans-Serif" font-size="10.00">ReadTheRTC</text>
</a>
</g>
</g>
<!-- Node1&#45;&gt;Node66 -->
<g id="edge68" class="edge">
<title>Node1&#45;&gt;Node66</title>
<path fill="none" stroke="#63b8ff" d="M52.61,-225.62C63.17,-204.09 91.19,-152.72 130,-125.5 134.73,-122.18 140.05,-119.43 145.54,-117.16"/>
<polygon fill="#63b8ff" stroke="#63b8ff" points="146.55,-120.52 154.78,-113.85 144.19,-113.93 146.55,-120.52"/>
</g>
<!-- Node67 -->
<g id="node48" class="node">
<title>Node67</title>
<g id="a_node48"><a xlink:href="Utilities_8h.html#abb1ea95b6b3f033883aa87682d3240ab" target="_top" xlink:title=" ">
<polygon fill="white" stroke="#666666" points="256,-59 132,-59 132,-40 256,-40 256,-59"/>
<text text-anchor="middle" x="194" y="-47" font-family="Helvetica,sans-Serif" font-size="10.00">SynchRTCwithGPSTime</text>
</a>
</g>
</g>
<!-- Node1&#45;&gt;Node67 -->
<g id="edge69" class="edge">
<title>Node1&#45;&gt;Node67</title>
<path fill="none" stroke="#63b8ff" d="M51.4,-225.85C60.66,-200.69 88.41,-132.02 130,-88.5 138.89,-79.2 150.45,-71.21 161.24,-64.93"/>
<polygon fill="#63b8ff" stroke="#63b8ff" points="162.82,-68.05 169.91,-60.17 159.46,-61.92 162.82,-68.05"/>
</g>
<!-- Node2&#45;&gt;Node3 -->
<g id="edge2" class="edge">
<title>Node2&#45;&gt;Node3</title>
<path fill="none" stroke="#63b8ff" d="M226.77,-374.99C247.42,-379.85 274.86,-386.32 298.79,-391.96"/>
<polygon fill="#63b8ff" stroke="#63b8ff" points="297.84,-395.33 308.38,-394.22 299.45,-388.52 297.84,-395.33"/>
</g>
<!-- Node6 -->
<g id="node6" class="node">
<title>Node6</title>
<g id="a_node6"><a xlink:href="TransmitterCode_2src_2main_8cpp.html#af8fe429ceb65bf9d257a2a0f1c63eccb" target="_top" xlink:title=" ">
<polygon fill="white" stroke="#666666" points="404,-340 302,-340 302,-321 404,-321 404,-340"/>
<text text-anchor="middle" x="353" y="-328" font-family="Helvetica,sans-Serif" font-size="10.00">CompareModelsIDs</text>
</a>
</g>
</g>
<!-- Node5&#45;&gt;Node6 -->
<g id="edge6" class="edge">
<title>Node5&#45;&gt;Node6</title>
<path fill="none" stroke="#63b8ff" d="M223.58,-264.41C234.49,-268.45 246.96,-273.37 258,-278.5 281.58,-289.45 307.36,-303.89 325.94,-314.78"/>
<polygon fill="#63b8ff" stroke="#63b8ff" points="324.04,-317.72 334.42,-319.8 327.6,-311.69 324.04,-317.72"/>
</g>
<!-- Node50 -->
<g id="node38" class="node">
<title>Node50</title>
<g id="a_node38"><a xlink:href="TransmitterCode_2src_2main_8cpp.html#a74e337818041d26084558b2d3b2a62d2" target="_top" xlink:title=" ">
<polygon fill="white" stroke="#666666" points="412,-377 294,-377 294,-358 412,-358 412,-377"/>
<text text-anchor="middle" x="353" y="-365" font-family="Helvetica,sans-Serif" font-size="10.00">GetIntFromAckPayload</text>
</a>
</g>
</g>
<!-- Node5&#45;&gt;Node50 -->
<g id="edge57" class="edge">
<title>Node5&#45;&gt;Node50</title>
<path fill="none" stroke="#63b8ff" d="M234.5,-264.45C242.93,-267.9 251.3,-272.47 258,-278.5 284.3,-302.17 266.97,-326.67 294,-349.5 295.09,-350.42 296.22,-351.29 297.39,-352.12"/>
<polygon fill="#63b8ff" stroke="#63b8ff" points="295.28,-354.94 305.7,-356.87 298.76,-348.87 295.28,-354.94"/>
</g>
<!-- Node7 -->
<g id="node7" class="node">
<title>Node7</title>
<g id="a_node7"><a xlink:href="TransmitterCode_2src_2main_8cpp.html#a7b8f152779a09d867292d3a8e7f76d85" target="_top" xlink:title=" ">
<polygon fill="white" stroke="#666666" points="526.5,-653 470.5,-653 470.5,-634 526.5,-634 526.5,-653"/>
<text text-anchor="middle" x="498.5" y="-641" font-family="Helvetica,sans-Serif" font-size="10.00">BindNow</text>
</a>
</g>
</g>
<!-- Node6&#45;&gt;Node7 -->
<g id="edge7" class="edge">
<title>Node6&#45;&gt;Node7</title>
<path fill="none" stroke="#63b8ff" d="M401.04,-340.48C405.18,-342.87 408.95,-345.84 412,-349.5 488.34,-441.18 381.1,-516.72 448,-615.5 451.27,-620.33 455.67,-624.43 460.51,-627.86"/>
<polygon fill="#63b8ff" stroke="#63b8ff" points="458.48,-630.73 468.85,-632.91 462.1,-624.74 458.48,-630.73"/>
</g>
<!-- Node11 -->
<g id="node10" class="node">
<title>Node11</title>
<g id="a_node10"><a xlink:href="Utilities_8h.html#a3b1d8aa403e2724e55c71da3d9d13e7e" target="_top" xlink:title=" ">
<polygon fill="white" stroke="#666666" points="1249,-568 1172,-568 1172,-549 1249,-549 1249,-568"/>
<text text-anchor="middle" x="1210.5" y="-556" font-family="Helvetica,sans-Serif" font-size="10.00">DelayWithDog</text>
</a>
</g>
</g>
<!-- Node6&#45;&gt;Node11 -->
<g id="edge12" class="edge">
<title>Node6&#45;&gt;Node11</title>
<path fill="none" stroke="#63b8ff" d="M398.02,-340.41C403.1,-342.82 407.92,-345.8 412,-349.5 441.48,-376.24 422.15,-401.23 448,-431.5 517.44,-512.82 556.07,-539.5 663,-539.5 663,-539.5 663,-539.5 978,-539.5 1041.2,-539.5 1113.78,-546.62 1160.57,-552.14"/>
<polygon fill="#63b8ff" stroke="#63b8ff" points="1160.04,-555.6 1170.38,-553.33 1160.87,-548.66 1160.04,-555.6"/>
</g>
<!-- Node19 -->
<g id="node12" class="node">
<title>Node19</title>
<g id="a_node12"><a xlink:href="TransmitterCode_2src_2main_8cpp.html#a2d16d1f4802d4029bc8933a18d213beb" target="_top" xlink:title=" ">
<polygon fill="white" stroke="#666666" points="539.5,-360 457.5,-360 457.5,-341 539.5,-341 539.5,-360"/>
<text text-anchor="middle" x="498.5" y="-348" font-family="Helvetica,sans-Serif" font-size="10.00">GotoFrontView</text>
</a>
</g>
</g>
<!-- Node6&#45;&gt;Node19 -->
<g id="edge13" class="edge">
<title>Node6&#45;&gt;Node19</title>
<path fill="none" stroke="#63b8ff" d="M404.19,-337.5C417.7,-339.38 432.34,-341.42 445.93,-343.31"/>
<polygon fill="#63b8ff" stroke="#63b8ff" points="445.16,-346.74 455.54,-344.65 446.12,-339.81 445.16,-346.74"/>
</g>
<!-- Node30 -->
<g id="node20" class="node">
<title>Node30</title>
<g id="a_node20"><a xlink:href="Utilities_8h.html#aa490b4664b0a4498d53b30b82287d5df" target="_top" xlink:title=" ">
<polygon fill="white" stroke="#666666" points="871.5,-207 808.5,-207 808.5,-188 871.5,-188 871.5,-207"/>
<text text-anchor="middle" x="840" y="-195" font-family="Helvetica,sans-Serif" font-size="10.00">PlaySound</text>
</a>
</g>
</g>
<!-- Node6&#45;&gt;Node30 -->
<g id="edge32" class="edge">
<title>Node6&#45;&gt;Node30</title>
<path fill="none" stroke="#63b8ff" d="M363.88,-320.67C393.83,-291.67 487.61,-206.85 585,-180.5 657.78,-160.81 746.36,-174.91 797.36,-186.51"/>
<polygon fill="#63b8ff" stroke="#63b8ff" points="796.25,-189.85 806.79,-188.74 797.86,-183.03 796.25,-189.85"/>
</g>
<!-- Node33 -->
<g id="node22" class="node">
<title>Node33</title>
<g id="a_node22"><a xlink:href="TransmitterCode_2src_2main_8cpp.html#a9e1de754e1d2d483fb15957f70cf0488" target="_top" xlink:title=" ">
<polygon fill="white" stroke="#666666" points="743,-510 585,-510 585,-491 743,-491 743,-510"/>
<text text-anchor="middle" x="664" y="-498" font-family="Helvetica,sans-Serif" font-size="10.00">UpdateModelsNameEveryWhere</text>
</a>
</g>
</g>
<!-- Node6&#45;&gt;Node33 -->
<g id="edge56" class="edge">
<title>Node6&#45;&gt;Node33</title>
<path fill="none" stroke="#63b8ff" d="M390.67,-340.42C397.92,-342.96 405.35,-345.99 412,-349.5 497.75,-394.8 497.3,-441.09 585,-482.5 588.5,-484.15 592.16,-485.66 595.91,-487.03"/>
<polygon fill="#63b8ff" stroke="#63b8ff" points="594.59,-490.28 605.19,-490.08 596.78,-483.63 594.59,-490.28"/>
</g>
<!-- Node35 -->
<g id="node24" class="node">
<title>Node35</title>
<g id="a_node24"><a xlink:href="TransmitterCode_2src_2main_8cpp.html#ac7a5ec6cf2ed7b50bd291f821e886302" target="_top" xlink:title=" ">
<polygon fill="white" stroke="#666666" points="705.5,-774 622.5,-774 622.5,-755 705.5,-755 705.5,-774"/>
<text text-anchor="middle" x="664" y="-762" font-family="Helvetica,sans-Serif" font-size="10.00">ReadOneModel</text>
</a>
</g>
</g>
<!-- Node6&#45;&gt;Node35 -->
<g id="edge33" class="edge">
<title>Node6&#45;&gt;Node35</title>
<path fill="none" stroke="#63b8ff" d="M401.11,-340.42C405.24,-342.82 408.99,-345.81 412,-349.5 500.52,-458 366.51,-548.63 448,-662.5 486.45,-716.22 560.75,-742.63 611.11,-754.88"/>
<polygon fill="#63b8ff" stroke="#63b8ff" points="610.1,-758.24 620.63,-757.08 611.68,-751.42 610.1,-758.24"/>
</g>
<!-- Node47 -->
<g id="node35" class="node">
<title>Node47</title>
<g id="a_node35"><a xlink:href="TransmitterCode_2src_2main_8cpp.html#a49da3478d89a22069e29c7f00cb46a5f" target="_top" xlink:title=" ">
<polygon fill="white" stroke="#666666" points="888.5,-246 791.5,-246 791.5,-227 888.5,-227 888.5,-246"/>
<text text-anchor="middle" x="840" y="-234" font-family="Helvetica,sans-Serif" font-size="10.00">RestoreBrightness</text>
</a>
</g>
</g>
<!-- Node6&#45;&gt;Node47 -->
<g id="edge48" class="edge">
<title>Node6&#45;&gt;Node47</title>
<path fill="none" stroke="#63b8ff" d="M378.46,-320.58C420.09,-304.18 507.73,-271.7 585,-256.5 650.97,-243.52 728.15,-238.9 779.97,-237.29"/>
<polygon fill="#63b8ff" stroke="#63b8ff" points="779.86,-240.8 789.76,-237.02 779.67,-233.8 779.86,-240.8"/>
</g>
<!-- Node48 -->
<g id="node36" class="node">
<title>Node48</title>
<g id="a_node36"><a xlink:href="TransmitterCode_2src_2main_8cpp.html#a92c5dada5e5ef70261391557464f2d19" target="_top" xlink:title=" ">
<polygon fill="white" stroke="#666666" points="549,-606 448,-606 448,-587 549,-587 549,-606"/>
<text text-anchor="middle" x="498.5" y="-594" font-family="Helvetica,sans-Serif" font-size="10.00">SaveAllParameters</text>
</a>
</g>
</g>
<!-- Node6&#45;&gt;Node48 -->
<g id="edge51" class="edge">
<title>Node6&#45;&gt;Node48</title>
<path fill="none" stroke="#63b8ff" d="M400.61,-340.45C404.89,-342.85 408.81,-345.82 412,-349.5 472.32,-419.05 402.64,-473.38 448,-553.5 453.83,-563.79 463.08,-572.81 472.01,-579.9"/>
<polygon fill="#63b8ff" stroke="#63b8ff" points="469.71,-582.55 479.84,-585.66 473.86,-576.91 469.71,-582.55"/>
</g>
<!-- Node8 -->
<g id="node8" class="node">
<title>Node8</title>
<g id="a_node8"><a xlink:href="TransmitterCode_2src_2main_8cpp.html#ab5210e90502030d9f8864752dd70dc20" target="_top" xlink:title=" ">
<polygon fill="#fff0f0" stroke="red" points="705.5,-663 622.5,-663 622.5,-644 705.5,-644 705.5,-663"/>
<text text-anchor="middle" x="664" y="-651" font-family="Helvetica,sans-Serif" font-size="10.00">SaveOneModel</text>
</a>
</g>
</g>
<!-- Node7&#45;&gt;Node8 -->
<g id="edge8" class="edge">
<title>Node7&#45;&gt;Node8</title>
<path fill="none" stroke="#63b8ff" d="M526.87,-645.17C549.72,-646.57 582.94,-648.6 610.85,-650.31"/>
<polygon fill="#63b8ff" stroke="#63b8ff" points="610.33,-653.79 620.53,-650.9 610.76,-646.8 610.33,-653.79"/>
</g>
<!-- Node10 -->
<g id="node9" class="node">
<title>Node10</title>
<g id="a_node9"><a xlink:href="TransmitterCode_2src_2main_8cpp.html#ae7618f38a148877bc5681be58cba8354" target="_top" xlink:title=" ">
<polygon fill="white" stroke="#666666" points="883.5,-587 796.5,-587 796.5,-568 883.5,-568 883.5,-587"/>
<text text-anchor="middle" x="840" y="-575" font-family="Helvetica,sans-Serif" font-size="10.00">OpenModelsFile</text>
</a>
</g>
</g>
<!-- Node8&#45;&gt;Node10 -->
<g id="edge9" class="edge">
<title>Node8&#45;&gt;Node10</title>
<path fill="none" stroke="#63b8ff" d="M705.69,-644.67C718.15,-641.01 731.57,-636.05 743,-629.5 761.83,-618.71 760.21,-607.37 779,-596.5 782.12,-594.69 785.44,-593.04 788.84,-591.53"/>
<polygon fill="#63b8ff" stroke="#63b8ff" points="789.82,-594.9 797.82,-587.96 787.23,-588.4 789.82,-594.9"/>
</g>
<!-- Node10&#45;&gt;Node11 -->
<g id="edge10" class="edge">
<title>Node10&#45;&gt;Node11</title>
<path fill="none" stroke="#63b8ff" d="M883.99,-575.28C953.02,-571.72 1088.13,-564.76 1160.68,-561.02"/>
<polygon fill="#63b8ff" stroke="#63b8ff" points="1160.45,-564.53 1170.26,-560.52 1160.09,-557.54 1160.45,-564.53"/>
</g>
<!-- Node12 -->
<g id="node11" class="node">
<title>Node12</title>
<g id="a_node11"><a xlink:href="Utilities_8h.html#ada95a00a341e4a80176eda743a94ab2e" target="_top" xlink:title=" ">
<polygon fill="white" stroke="#666666" points="1355,-568 1285,-568 1285,-549 1355,-549 1355,-568"/>
<text text-anchor="middle" x="1320" y="-556" font-family="Helvetica,sans-Serif" font-size="10.00">KickTheDog</text>
</a>
</g>
</g>
<!-- Node11&#45;&gt;Node12 -->
<g id="edge11" class="edge">
<title>Node11&#45;&gt;Node12</title>
<path fill="none" stroke="#63b8ff" d="M1249.4,-558.5C1257.12,-558.5 1265.31,-558.5 1273.27,-558.5"/>
<polygon fill="#63b8ff" stroke="#63b8ff" points="1273.16,-562 1283.16,-558.5 1273.16,-555 1273.16,-562"/>
</g>
<!-- Node20 -->
<g id="node13" class="node">
<title>Node20</title>
<g id="a_node13"><a xlink:href="Utilities_8h.html#af0852678d8e89501acee8951f09d3b43" target="_top" xlink:title=" ">
<polygon fill="white" stroke="#666666" points="693,-284 635,-284 635,-265 693,-265 693,-284"/>
<text text-anchor="middle" x="664" y="-272" font-family="Helvetica,sans-Serif" font-size="10.00">ClearText</text>
</a>
</g>
</g>
<!-- Node19&#45;&gt;Node20 -->
<g id="edge14" class="edge">
<title>Node19&#45;&gt;Node20</title>
<path fill="none" stroke="#63b8ff" d="M513.43,-340.53C529.88,-329.12 558.38,-310.47 585,-298.5 597.29,-292.97 611.22,-288.24 623.87,-284.47"/>
<polygon fill="#63b8ff" stroke="#63b8ff" points="624.48,-287.94 633.13,-281.83 622.55,-281.21 624.48,-287.94"/>
</g>
<!-- Node21 -->
<g id="node14" class="node">
<title>Node21</title>
<g id="a_node14"><a xlink:href="transceiver_8h.html#a31fb6a46af68482e107cddee58dfb677" target="_top" xlink:title=" ">
<polygon fill="#fff0f0" stroke="red" points="698,-473 630,-473 630,-454 698,-454 698,-473"/>
<text text-anchor="middle" x="664" y="-461" font-family="Helvetica,sans-Serif" font-size="10.00">DoScanEnd</text>
</a>
</g>
</g>
<!-- Node19&#45;&gt;Node21 -->
<g id="edge15" class="edge">
<title>Node19&#45;&gt;Node21</title>
<path fill="none" stroke="#63b8ff" d="M505.4,-360.37C517.63,-379.91 547.72,-423.54 585,-445.5 595.15,-451.48 607.13,-455.47 618.61,-458.14"/>
<polygon fill="#63b8ff" stroke="#63b8ff" points="617.87,-461.56 628.36,-460.09 619.24,-454.69 617.87,-461.56"/>
</g>
<!-- Node23 -->
<g id="node15" class="node">
<title>Node23</title>
<g id="a_node15"><a xlink:href="TransmitterCode_2src_2main_8cpp.html#aa1e81e58421a34fdfd7bfb31925f5a90" target="_top" xlink:title=" ">
<polygon fill="white" stroke="#666666" points="709,-436 619,-436 619,-417 709,-417 709,-436"/>
<text text-anchor="middle" x="664" y="-424" font-family="Helvetica,sans-Serif" font-size="10.00">Force_ReDisplay</text>
</a>
</g>
</g>
<!-- Node19&#45;&gt;Node23 -->
<g id="edge16" class="edge">
<title>Node19&#45;&gt;Node23</title>
<path fill="none" stroke="#63b8ff" d="M513.43,-360.47C529.88,-371.88 558.38,-390.53 585,-402.5 593.82,-406.47 603.49,-410.02 612.92,-413.11"/>
<polygon fill="#63b8ff" stroke="#63b8ff" points="611.79,-416.42 622.37,-416.06 613.87,-409.74 611.79,-416.42"/>
</g>
<!-- Node24 -->
<g id="node16" class="node">
<title>Node24</title>
<g id="a_node16"><a xlink:href="Utilities_8h.html#aecac2f0c289f02ef3c92b85be82eacac" target="_top" xlink:title=" ">
<polygon fill="#fff0f0" stroke="red" points="1136,-340 1053,-340 1053,-321 1136,-321 1136,-340"/>
<text text-anchor="middle" x="1094.5" y="-328" font-family="Helvetica,sans-Serif" font-size="10.00">SendCommand</text>
</a>
</g>
</g>
<!-- Node19&#45;&gt;Node24 -->
<g id="edge17" class="edge">
<title>Node19&#45;&gt;Node24</title>
<path fill="none" stroke="#63b8ff" d="M539.86,-349.14C644.5,-345.62 924.5,-336.19 1041.25,-332.26"/>
<polygon fill="#63b8ff" stroke="#63b8ff" points="1041.3,-335.76 1051.18,-331.92 1041.07,-328.76 1041.3,-335.76"/>
</g>
<!-- Node27 -->
<g id="node17" class="node">
<title>Node27</title>
<g id="a_node17"><a xlink:href="Utilities_8h.html#afe513398f72d5e48f691830a1ef6eb42" target="_top" xlink:title=" ">
<polygon fill="#fff0f0" stroke="red" points="1006,-473 948,-473 948,-454 1006,-454 1006,-473"/>
<text text-anchor="middle" x="977" y="-461" font-family="Helvetica,sans-Serif" font-size="10.00">SendText</text>
</a>
</g>
</g>
<!-- Node19&#45;&gt;Node27 -->
<g id="edge19" class="edge">
<title>Node19&#45;&gt;Node27</title>
<path fill="none" stroke="#63b8ff" d="M539.97,-360.03C612.4,-377.1 768.96,-414.03 901,-445.5 912.53,-448.25 925.05,-451.25 936.5,-453.99"/>
<polygon fill="#63b8ff" stroke="#63b8ff" points="935.5,-457.35 946.04,-456.29 937.14,-450.55 935.5,-457.35"/>
</g>
<!-- Node28 -->
<g id="node18" class="node">
<title>Node28</title>
<g id="a_node18"><a xlink:href="TransmitterCode_2src_2main_8cpp.html#a86ff8d6a0763abc33c7e814f5c1d4b5c" target="_top" xlink:title=" ">
<polygon fill="white" stroke="#666666" points="1009,-321 945,-321 945,-302 1009,-302 1009,-321"/>
<text text-anchor="middle" x="977" y="-309" font-family="Helvetica,sans-Serif" font-size="10.00">ShowBank</text>
</a>
</g>
</g>
<!-- Node19&#45;&gt;Node28 -->
<g id="edge21" class="edge">
<title>Node19&#45;&gt;Node28</title>
<path fill="none" stroke="#63b8ff" d="M539.83,-343.06C554.07,-340.65 570.2,-338.18 585,-336.5 711.28,-322.16 861.52,-315.43 933.47,-312.85"/>
<polygon fill="#63b8ff" stroke="#63b8ff" points="933.35,-316.35 943.22,-312.51 933.11,-309.36 933.35,-316.35"/>
</g>
<!-- Node29 -->
<g id="node19" class="node">
<title>Node29</title>
<g id="a_node19"><a xlink:href="TransmitterCode_2src_2main_8cpp.html#ae87d527c1f50ca7eaffba270f9a6524a" target="_top" xlink:title=" ">
<polygon fill="#fff0f0" stroke="red" points="709.5,-208 618.5,-208 618.5,-189 709.5,-189 709.5,-208"/>
<text text-anchor="middle" x="664" y="-196" font-family="Helvetica,sans-Serif" font-size="10.00">ShowMotorTimer</text>
</a>
</g>
</g>
<!-- Node19&#45;&gt;Node29 -->
<g id="edge23" class="edge">
<title>Node19&#45;&gt;Node29</title>
<path fill="none" stroke="#63b8ff" d="M507.42,-340.59C521.89,-322.79 553.94,-284.64 585,-256.5 601.99,-241.11 622.9,-225.73 638.8,-214.67"/>
<polygon fill="#63b8ff" stroke="#63b8ff" points="640.45,-217.79 646.72,-209.25 636.49,-212.01 640.45,-217.79"/>
</g>
<!-- Node19&#45;&gt;Node33 -->
<g id="edge27" class="edge">
<title>Node19&#45;&gt;Node33</title>
<path fill="none" stroke="#63b8ff" d="M505.68,-360.49C524.33,-390.55 579.08,-478.35 585,-482.5 586.6,-483.62 588.27,-484.68 589.98,-485.67"/>
<polygon fill="#63b8ff" stroke="#63b8ff" points="588.35,-488.77 598.87,-490 591.41,-482.47 588.35,-488.77"/>
</g>
<!-- Node24&#45;&gt;Node11 -->
<g id="edge18" class="edge">
<title>Node24&#45;&gt;Node11</title>
<path fill="none" stroke="#63b8ff" d="M1100.4,-340.3C1117.68,-374.87 1176.04,-491.58 1199.56,-538.61"/>
<polygon fill="#63b8ff" stroke="#63b8ff" points="1196.34,-540.01 1203.94,-547.39 1202.6,-536.88 1196.34,-540.01"/>
</g>
<!-- Node27&#45;&gt;Node24 -->
<g id="edge20" class="edge">
<title>Node27&#45;&gt;Node24</title>
<path fill="none" stroke="#63b8ff" d="M986.68,-453.5C1006.01,-431.25 1052.82,-377.35 1077.56,-348.86"/>
<polygon fill="#63b8ff" stroke="#63b8ff" points="1080.13,-351.24 1084.04,-341.39 1074.84,-346.65 1080.13,-351.24"/>
</g>
<!-- Node28&#45;&gt;Node24 -->
<g id="edge22" class="edge">
<title>Node28&#45;&gt;Node24</title>
<path fill="none" stroke="#63b8ff" d="M1009.26,-316.64C1019.17,-318.27 1030.42,-320.12 1041.39,-321.93"/>
<polygon fill="#63b8ff" stroke="#63b8ff" points="1040.73,-325.37 1051.17,-323.54 1041.87,-318.46 1040.73,-325.37"/>
</g>
<!-- Node29&#45;&gt;Node30 -->
<g id="edge24" class="edge">
<title>Node29&#45;&gt;Node30</title>
<path fill="none" stroke="#63b8ff" d="M709.81,-198.24C736.53,-198.09 770.25,-197.9 796.55,-197.74"/>
<polygon fill="#63b8ff" stroke="#63b8ff" points="796.56,-201.24 806.54,-197.69 796.52,-194.24 796.56,-201.24"/>
</g>
<!-- Node30&#45;&gt;Node24 -->
<g id="edge25" class="edge">
<title>Node30&#45;&gt;Node24</title>
<path fill="none" stroke="#63b8ff" d="M871.77,-193.62C908.97,-190.49 972.15,-190.34 1017,-217.5 1052.32,-238.89 1075.01,-283.54 1085.89,-309.86"/>
<polygon fill="#63b8ff" stroke="#63b8ff" points="1082.61,-311.06 1089.51,-319.1 1089.13,-308.51 1082.61,-311.06"/>
</g>
<!-- Node31 -->
<g id="node21" class="node">
<title>Node31</title>
<g id="a_node21"><a xlink:href="Utilities_8h.html#a590a9174319918d7e3d7baca323fcf26" target="_top" xlink:title=" ">
<polygon fill="white" stroke="#666666" points="991.5,-245 962.5,-245 962.5,-226 991.5,-226 991.5,-245"/>
<text text-anchor="middle" x="977" y="-233" font-family="Helvetica,sans-Serif" font-size="10.00">Str</text>
</a>
</g>
</g>
<!-- Node30&#45;&gt;Node31 -->
<g id="edge26" class="edge">
<title>Node30&#45;&gt;Node31</title>
<path fill="none" stroke="#63b8ff" d="M871.97,-206.22C895.99,-212.98 928.84,-222.23 951.15,-228.51"/>
<polygon fill="#63b8ff" stroke="#63b8ff" points="950.02,-231.82 960.59,-231.16 951.92,-225.08 950.02,-231.82"/>
</g>
<!-- Node33&#45;&gt;Node27 -->
<g id="edge28" class="edge">
<title>Node33&#45;&gt;Node27</title>
<path fill="none" stroke="#63b8ff" d="M743.26,-497.91C789.4,-495.54 848.79,-491.04 901,-482.5 912.73,-480.58 925.32,-477.72 936.76,-474.79"/>
<polygon fill="#63b8ff" stroke="#63b8ff" points="937.52,-478.21 946.29,-472.27 935.72,-471.45 937.52,-478.21"/>
</g>
<!-- Node33&#45;&gt;Node31 -->
<g id="edge29" class="edge">
<title>Node33&#45;&gt;Node31</title>
<path fill="none" stroke="#63b8ff" d="M724.75,-490.59C731.12,-488.41 737.33,-485.75 743,-482.5 746.41,-480.55 905.65,-310.64 958.88,-253.79"/>
<polygon fill="#63b8ff" stroke="#63b8ff" points="961.42,-256.19 965.7,-246.5 956.31,-251.41 961.42,-256.19"/>
</g>
<!-- Node34 -->
<g id="node23" class="node">
<title>Node34</title>
<g id="a_node23"><a xlink:href="Trims_8h.html#ac78966debc2cdc13d8ca958ce3b20c78" target="_top" xlink:title=" ">
<polygon fill="#fff0f0" stroke="red" points="884.5,-473 795.5,-473 795.5,-454 884.5,-454 884.5,-473"/>
<text text-anchor="middle" x="840" y="-461" font-family="Helvetica,sans-Serif" font-size="10.00">UpdateTrimView</text>
</a>
</g>
</g>
<!-- Node33&#45;&gt;Node34 -->
<g id="edge30" class="edge">
<title>Node33&#45;&gt;Node34</title>
<path fill="none" stroke="#63b8ff" d="M711.63,-490.58C733.95,-485.84 760.82,-480.12 784.12,-475.17"/>
<polygon fill="#63b8ff" stroke="#63b8ff" points="784.7,-478.62 793.76,-473.12 783.25,-471.78 784.7,-478.62"/>
</g>
<!-- Node34&#45;&gt;Node27 -->
<g id="edge31" class="edge">
<title>Node34&#45;&gt;Node27</title>
<path fill="none" stroke="#63b8ff" d="M884.83,-463.5C901.43,-463.5 920.23,-463.5 936.42,-463.5"/>
<polygon fill="#63b8ff" stroke="#63b8ff" points="936.16,-467 946.16,-463.5 936.16,-460 936.16,-467"/>
</g>
<!-- Node35&#45;&gt;Node10 -->
<g id="edge41" class="edge">
<title>Node35&#45;&gt;Node10</title>
<path fill="none" stroke="#63b8ff" d="M674.83,-754.71C690.62,-738.6 722,-705.06 743,-672.5 763.26,-641.09 750.84,-621.08 779,-596.5 781.16,-594.61 783.51,-592.92 785.98,-591.38"/>
<polygon fill="#63b8ff" stroke="#63b8ff" points="787.35,-594.62 794.68,-586.96 784.18,-588.38 787.35,-594.62"/>
</g>
<!-- Node35&#45;&gt;Node11 -->
<g id="edge40" class="edge">
<title>Node35&#45;&gt;Node11</title>
<path fill="none" stroke="#63b8ff" d="M666.84,-774.16C673.95,-808.35 703.07,-923.95 779,-968.5 825.77,-995.94 852.48,-992.71 901,-968.5 1073.55,-882.4 1174.87,-648.74 1202.05,-578.64"/>
<polygon fill="#63b8ff" stroke="#63b8ff" points="1205.21,-580.19 1205.48,-569.6 1198.66,-577.7 1205.21,-580.19"/>
</g>
<!-- Node36 -->
<g id="node25" class="node">
<title>Node36</title>
<g id="a_node25"><a xlink:href="TransmitterCode_2src_2main_8cpp.html#a38063272143a3da8735678470d210d29" target="_top" xlink:title=" ">
<polygon fill="white" stroke="#666666" points="889,-959 791,-959 791,-940 889,-940 889,-959"/>
<text text-anchor="middle" x="840" y="-947" font-family="Helvetica,sans-Serif" font-size="10.00">CheckBanksInUse</text>
</a>
</g>
</g>
<!-- Node35&#45;&gt;Node36 -->
<g id="edge34" class="edge">
<title>Node35&#45;&gt;Node36</title>
<path fill="none" stroke="#63b8ff" d="M668.79,-774.11C680.54,-802.67 719.22,-887.76 779,-931.5 780.37,-932.5 781.8,-933.45 783.27,-934.35"/>
<polygon fill="#63b8ff" stroke="#63b8ff" points="781.65,-937.45 792.15,-938.84 784.81,-931.2 781.65,-937.45"/>
</g>
<!-- Node37 -->
<g id="node26" class="node">
<title>Node37</title>
<g id="a_node26"><a xlink:href="TransmitterCode_2src_2main_8cpp.html#a5467d21eeae42d1bfdb79914ef52d0ed" target="_top" xlink:title=" ">
<polygon fill="white" stroke="#666666" points="899.5,-922 780.5,-922 780.5,-903 899.5,-903 899.5,-922"/>
<text text-anchor="middle" x="840" y="-910" font-family="Helvetica,sans-Serif" font-size="10.00">CheckDualRatesValues</text>
</a>
</g>
</g>
<!-- Node35&#45;&gt;Node37 -->
<g id="edge35" class="edge">
<title>Node35&#45;&gt;Node37</title>
<path fill="none" stroke="#63b8ff" d="M670.82,-774.31C685.68,-798.5 727.48,-861.39 779,-894.5 780.97,-895.76 783.02,-896.94 785.15,-898.04"/>
<polygon fill="#63b8ff" stroke="#63b8ff" points="783.48,-901.13 794.04,-902 786.33,-894.74 783.48,-901.13"/>
</g>
<!-- Node38 -->
<g id="node27" class="node">
<title>Node38</title>
<g id="a_node27"><a xlink:href="Utilities_8h.html#a6bb930920ba3a8d45a737dde782ef65c" target="_top" xlink:title=" ">
<polygon fill="white" stroke="#666666" points="891,-885 789,-885 789,-866 891,-866 891,-885"/>
<text text-anchor="middle" x="840" y="-873" font-family="Helvetica,sans-Serif" font-size="10.00">CheckMacrosBuffer</text>
</a>
</g>
</g>
<!-- Node35&#45;&gt;Node38 -->
<g id="edge36" class="edge">
<title>Node35&#45;&gt;Node38</title>
<path fill="none" stroke="#63b8ff" d="M674.4,-774.43C692.77,-793.27 735.46,-834.39 779,-857.5 781.7,-858.93 784.53,-860.27 787.43,-861.51"/>
<polygon fill="#63b8ff" stroke="#63b8ff" points="786.11,-864.75 796.7,-865.06 788.61,-858.22 786.11,-864.75"/>
</g>
<!-- Node39 -->
<g id="node28" class="node">
<title>Node39</title>
<g id="a_node28"><a xlink:href="TransmitterCode_2src_2main_8cpp.html#a01c7a0b0de94ec72fe070ea9f90dc2ec" target="_top" xlink:title=" ">
<polygon fill="white" stroke="#666666" points="876,-848 804,-848 804,-829 876,-829 876,-848"/>
<text text-anchor="middle" x="840" y="-836" font-family="Helvetica,sans-Serif" font-size="10.00">CheckRange</text>
</a>
</g>
</g>
<!-- Node35&#45;&gt;Node39 -->
<g id="edge37" class="edge">
<title>Node35&#45;&gt;Node39</title>
<path fill="none" stroke="#63b8ff" d="M682.75,-774.36C704.83,-786.37 743.9,-806.72 779,-820.5 783.44,-822.24 788.12,-823.92 792.83,-825.5"/>
<polygon fill="#63b8ff" stroke="#63b8ff" points="791.74,-828.82 802.33,-828.53 793.87,-822.15 791.74,-828.82"/>
</g>
<!-- Node40 -->
<g id="node29" class="node">
<title>Node40</title>
<g id="a_node29"><a xlink:href="Trims_8h.html#a688c8f45b7061a1574dcb7eb28eec56b" target="_top" xlink:title=" ">
<polygon fill="white" stroke="#666666" points="901,-811 779,-811 779,-792 901,-792 901,-811"/>
<text text-anchor="middle" x="840" y="-799" font-family="Helvetica,sans-Serif" font-size="10.00">CheckSavedTrimValues</text>
</a>
</g>
</g>
<!-- Node35&#45;&gt;Node40 -->
<g id="edge38" class="edge">
<title>Node35&#45;&gt;Node40</title>
<path fill="none" stroke="#63b8ff" d="M705.8,-773.17C728.18,-777.94 756.32,-783.92 780.96,-789.16"/>
<polygon fill="#63b8ff" stroke="#63b8ff" points="780.01,-792.53 790.52,-791.19 781.46,-785.69 780.01,-792.53"/>
</g>
<!-- Node41 -->
<g id="node30" class="node">
<title>Node41</title>
<g id="a_node30"><a xlink:href="TransmitterCode_2src_2main_8cpp.html#af2028eceef03ca4c84aa7d71677c0647" target="_top" xlink:title=" ">
<polygon fill="white" stroke="#666666" points="884.5,-774 795.5,-774 795.5,-755 884.5,-755 884.5,-774"/>
<text text-anchor="middle" x="840" y="-762" font-family="Helvetica,sans-Serif" font-size="10.00">CheckStepSizes</text>
</a>
</g>
</g>
<!-- Node35&#45;&gt;Node41 -->
<g id="edge39" class="edge">
<title>Node35&#45;&gt;Node41</title>
<path fill="none" stroke="#63b8ff" d="M705.8,-764.5C729.05,-764.5 758.52,-764.5 783.82,-764.5"/>
<polygon fill="#63b8ff" stroke="#63b8ff" points="783.6,-768 793.6,-764.5 783.6,-761 783.6,-768"/>
</g>
<!-- Node42 -->
<g id="node31" class="node">
<title>Node42</title>
<g id="a_node31"><a xlink:href="TransmitterCode_2src_2main_8cpp.html#a3c809856d2abf6b6f804e2fbe68d06f5" target="_top" xlink:title=" ">
<polygon fill="#fff0f0" stroke="red" points="889,-737 791,-737 791,-718 889,-718 889,-737"/>
<text text-anchor="middle" x="840" y="-725" font-family="Helvetica,sans-Serif" font-size="10.00">ReadCheckSum32</text>
</a>
</g>
</g>
<!-- Node35&#45;&gt;Node42 -->
<g id="edge42" class="edge">
<title>Node35&#45;&gt;Node42</title>
<path fill="none" stroke="#63b8ff" d="M705.8,-755.83C728.18,-751.06 756.32,-745.08 780.96,-739.84"/>
<polygon fill="#63b8ff" stroke="#63b8ff" points="781.46,-743.31 790.52,-737.81 780.01,-736.47 781.46,-743.31"/>
</g>
<!-- Node44 -->
<g id="node32" class="node">
<title>Node44</title>
<g id="a_node32"><a xlink:href="TransmitterCode_2src_2main_8cpp.html#a9cf4a8c584c2b92d52de18627ca4434b" target="_top" xlink:title=" ">
<polygon fill="#fff0f0" stroke="red" points="1017,-718 937,-718 937,-699 1017,-699 1017,-718"/>
<text text-anchor="middle" x="977" y="-706" font-family="Helvetica,sans-Serif" font-size="10.00">SDRead8BITS</text>
</a>
</g>
</g>
<!-- Node35&#45;&gt;Node44 -->
<g id="edge45" class="edge">
<title>Node35&#45;&gt;Node44</title>
<path fill="none" stroke="#63b8ff" d="M680.04,-754.52C701.11,-741.2 741.11,-718.26 779,-709.5 827.68,-698.24 884.95,-699.51 925.15,-702.67"/>
<polygon fill="#63b8ff" stroke="#63b8ff" points="924.77,-706.15 935.03,-703.52 925.37,-699.17 924.77,-706.15"/>
</g>
<!-- Node45 -->
<g id="node33" class="node">
<title>Node45</title>
<g id="a_node33"><a xlink:href="TransmitterCode_2src_2main_8cpp.html#a6591bcf6ef0d17400e2562057d79885a" target="_top" xlink:title=" ">
<polygon fill="#fff0f0" stroke="red" points="883,-661 797,-661 797,-642 883,-642 883,-661"/>
<text text-anchor="middle" x="840" y="-649" font-family="Helvetica,sans-Serif" font-size="10.00">SDRead16BITS</text>
</a>
</g>
</g>
<!-- Node35&#45;&gt;Node45 -->
<g id="edge44" class="edge">
<title>Node35&#45;&gt;Node45</title>
<path fill="none" stroke="#63b8ff" d="M675.58,-754.54C694.88,-736.78 737.64,-699.27 779,-675.5 785.19,-671.94 792.01,-668.67 798.77,-665.76"/>
<polygon fill="#63b8ff" stroke="#63b8ff" points="799.89,-669.08 807.83,-662.07 797.25,-662.6 799.89,-669.08"/>
</g>
<!-- Node46 -->
<g id="node34" class="node">
<title>Node46</title>
<g id="a_node34"><a xlink:href="TransmitterCode_2src_2main_8cpp.html#abf59862cf6c4e3df5a76f0bfea8919ef" target="_top" xlink:title=" ">
<polygon fill="#fff0f0" stroke="red" points="893,-624 787,-624 787,-605 893,-605 893,-624"/>
<text text-anchor="middle" x="840" y="-612" font-family="Helvetica,sans-Serif" font-size="10.00">UpdateButtonLabels</text>
</a>
</g>
</g>
<!-- Node35&#45;&gt;Node46 -->
<g id="edge46" class="edge">
<title>Node35&#45;&gt;Node46</title>
<path fill="none" stroke="#63b8ff" d="M673.35,-754.61C698.52,-724.85 772.32,-637.88 779,-633.5 781.53,-631.84 784.2,-630.32 786.98,-628.93"/>
<polygon fill="#63b8ff" stroke="#63b8ff" points="788.15,-632.23 795.91,-625.02 785.35,-625.82 788.15,-632.23"/>
</g>
<!-- Node42&#45;&gt;Node44 -->
<g id="edge43" class="edge">
<title>Node42&#45;&gt;Node44</title>
<path fill="none" stroke="#63b8ff" d="M889.36,-720.69C901.17,-719.03 913.83,-717.25 925.73,-715.58"/>
<polygon fill="#63b8ff" stroke="#63b8ff" points="925.94,-719.08 935.35,-714.22 924.96,-712.15 925.94,-719.08"/>
</g>
<!-- Node46&#45;&gt;Node27 -->
<g id="edge47" class="edge">
<title>Node46&#45;&gt;Node27</title>
<path fill="none" stroke="#63b8ff" d="M887.39,-604.62C892.26,-602.43 896.92,-599.76 901,-596.5 938.14,-566.81 960.06,-513.43 969.85,-484.13"/>
<polygon fill="#63b8ff" stroke="#63b8ff" points="973.17,-485.23 972.85,-474.64 966.5,-483.11 973.17,-485.23"/>
</g>
<!-- Node47&#45;&gt;Node24 -->
<g id="edge49" class="edge">
<title>Node47&#45;&gt;Node24</title>
<path fill="none" stroke="#63b8ff" d="M876.57,-246.46C912.48,-256.87 969.31,-274.35 1017,-293.5 1033.15,-299.98 1050.65,-308.35 1064.84,-315.48"/>
<polygon fill="#63b8ff" stroke="#63b8ff" points="1063.11,-318.53 1073.61,-319.96 1066.3,-312.29 1063.11,-318.53"/>
</g>
<!-- Node47&#45;&gt;Node31 -->
<g id="edge50" class="edge">
<title>Node47&#45;&gt;Node31</title>
<path fill="none" stroke="#63b8ff" d="M888.98,-236.14C909.83,-235.99 933.41,-235.82 950.76,-235.69"/>
<polygon fill="#63b8ff" stroke="#63b8ff" points="950.67,-239.19 960.65,-235.61 950.62,-232.19 950.67,-239.19"/>
</g>
<!-- Node48&#45;&gt;Node8 -->
<g id="edge53" class="edge">
<title>Node48&#45;&gt;Node8</title>
<path fill="none" stroke="#63b8ff" d="M524.03,-606.49C541.03,-613.29 564.25,-622.31 585,-629.5 595.63,-633.18 607.17,-636.89 618.04,-640.25"/>
<polygon fill="#63b8ff" stroke="#63b8ff" points="617.01,-643.6 627.6,-643.17 619.06,-636.9 617.01,-643.6"/>
</g>
<!-- Node48&#45;&gt;Node10 -->
<g id="edge52" class="edge">
<title>Node48&#45;&gt;Node10</title>
<path fill="none" stroke="#63b8ff" d="M549.07,-599.32C598.37,-601.47 676.1,-603.06 743,-596.5 757.41,-595.09 772.86,-592.51 787.07,-589.7"/>
<polygon fill="#63b8ff" stroke="#63b8ff" points="787.58,-593.17 796.67,-587.72 786.17,-586.31 787.58,-593.17"/>
</g>
<!-- Node49 -->
<g id="node37" class="node">
<title>Node49</title>
<g id="a_node37"><a xlink:href="TransmitterCode_2src_2main_8cpp.html#aaf3d3b6d086a958ac8ebf1bb771adcee" target="_top" xlink:title=" ">
<polygon fill="#fff0f0" stroke="red" points="733.5,-587 594.5,-587 594.5,-568 733.5,-568 733.5,-587"/>
<text text-anchor="middle" x="664" y="-575" font-family="Helvetica,sans-Serif" font-size="10.00">SaveTransmitterParameters</text>
</a>
</g>
</g>
<!-- Node48&#45;&gt;Node49 -->
<g id="edge54" class="edge">
<title>Node48&#45;&gt;Node49</title>
<path fill="none" stroke="#63b8ff" d="M549.44,-590.7C560.01,-589.47 571.41,-588.14 582.78,-586.82"/>
<polygon fill="#63b8ff" stroke="#63b8ff" points="583.07,-590.31 592.59,-585.68 582.26,-583.36 583.07,-590.31"/>
</g>
<!-- Node49&#45;&gt;Node10 -->
<g id="edge55" class="edge">
<title>Node49&#45;&gt;Node10</title>
<path fill="none" stroke="#63b8ff" d="M733.77,-577.5C750.66,-577.5 768.52,-577.5 784.62,-577.5"/>
<polygon fill="#63b8ff" stroke="#63b8ff" points="784.49,-581 794.49,-577.5 784.49,-574 784.49,-581"/>
</g>
<!-- Node51&#45;&gt;Node31 -->
<g id="edge62" class="edge">
<title>Node51&#45;&gt;Node31</title>
<path fill="none" stroke="#63b8ff" d="M242.6,-207.51C248.03,-205.34 253.3,-202.7 258,-199.5 279.75,-184.69 272.58,-167.78 294,-152.5 371.62,-97.11 402.14,-84.5 497.5,-84.5 497.5,-84.5 497.5,-84.5 665,-84.5 786.29,-84.5 909.88,-178.59 956.56,-218.22"/>
<polygon fill="#63b8ff" stroke="#63b8ff" points="954.09,-220.71 963.94,-224.6 958.67,-215.42 954.09,-220.71"/>
</g>
<!-- Node52 -->
<g id="node40" class="node">
<title>Node52</title>
<g id="a_node40"><a xlink:href="TransmitterCode_2src_2main_8cpp.html#a900aa27c1353238593c276186d960912" target="_top" xlink:title=" ">
<polygon fill="white" stroke="#666666" points="385.5,-180 320.5,-180 320.5,-161 385.5,-161 385.5,-180"/>
<text text-anchor="middle" x="353" y="-168" font-family="Helvetica,sans-Serif" font-size="10.00">LogThisRX</text>
</a>
</g>
</g>
<!-- Node51&#45;&gt;Node52 -->
<g id="edge59" class="edge">
<title>Node51&#45;&gt;Node52</title>
<path fill="none" stroke="#63b8ff" d="M230.36,-207.54C239.38,-204.96 249.06,-202.16 258,-199.5 274.89,-194.48 293.44,-188.8 309.56,-183.8"/>
<polygon fill="#63b8ff" stroke="#63b8ff" points="310.33,-187.22 318.84,-180.91 308.25,-180.54 310.33,-187.22"/>
</g>
<!-- Node53 -->
<g id="node41" class="node">
<title>Node53</title>
<g id="a_node41"><a xlink:href="TransmitterCode_2src_2main_8cpp.html#add8d8f400f1c1c4a5add52736cdf94ca" target="_top" xlink:title=" ">
<polygon fill="#fff0f0" stroke="red" points="524.5,-132 472.5,-132 472.5,-113 524.5,-113 524.5,-132"/>
<text text-anchor="middle" x="498.5" y="-120" font-family="Helvetica,sans-Serif" font-size="10.00">LogText</text>
</a>
</g>
</g>
<!-- Node52&#45;&gt;Node53 -->
<g id="edge60" class="edge">
<title>Node52&#45;&gt;Node53</title>
<path fill="none" stroke="#63b8ff" d="M383.73,-160.55C406.27,-153.02 437.35,-142.62 461.32,-134.6"/>
<polygon fill="#63b8ff" stroke="#63b8ff" points="462.31,-137.96 470.69,-131.47 460.09,-131.32 462.31,-137.96"/>
</g>
<!-- Node54 -->
<g id="node42" class="node">
<title>Node54</title>
<g id="a_node42"><a xlink:href="TransmitterCode_2src_2main_8cpp.html#a6f003363493fc53b69f9efc1f447a6a1" target="_top" xlink:title=" ">
<polygon fill="white" stroke="#666666" points="701,-132 627,-132 627,-113 701,-113 701,-132"/>
<text text-anchor="middle" x="664" y="-120" font-family="Helvetica,sans-Serif" font-size="10.00">CloseLogFile</text>
</a>
</g>
</g>
<!-- Node53&#45;&gt;Node54 -->
<g id="edge61" class="edge">
<title>Node53&#45;&gt;Node54</title>
<path fill="none" stroke="#63b8ff" d="M524.69,-122.5C548.73,-122.5 585.57,-122.5 615.18,-122.5"/>
<polygon fill="#63b8ff" stroke="#63b8ff" points="615.04,-126 625.04,-122.5 615.04,-119 615.04,-126"/>
</g>
<!-- Node62&#45;&gt;Node3 -->
<g id="edge64" class="edge">
<title>Node62&#45;&gt;Node3</title>
<path fill="none" stroke="#63b8ff" d="M237.9,-404.5C253.24,-404.5 270.89,-404.5 287.65,-404.5"/>
<polygon fill="#63b8ff" stroke="#63b8ff" points="287.55,-408 297.55,-404.5 287.55,-401 287.55,-408"/>
</g>
<!-- Node65 -->
<g id="node46" class="node">
<title>Node65</title>
<g id="a_node46"><a xlink:href="radio_8h.html#a2863e7455e30e6fddc0fcf56f62d6564" target="_top" xlink:title=" ">
<polygon fill="white" stroke="#666666" points="408,-56 298,-56 298,-37 408,-37 408,-56"/>
<text text-anchor="middle" x="353" y="-44" font-family="Helvetica,sans-Serif" font-size="10.00">ShowHopDurationEtc</text>
</a>
</g>
</g>
<!-- Node64&#45;&gt;Node65 -->
<g id="edge67" class="edge">
<title>Node64&#45;&gt;Node65</title>
<path fill="none" stroke="#63b8ff" d="M243.48,-133.57C248.64,-131.39 253.6,-128.74 258,-125.5 281.52,-108.18 271.5,-89.14 294,-70.5 298.24,-66.99 303.06,-63.93 308.06,-61.29"/>
<polygon fill="#63b8ff" stroke="#63b8ff" points="309.54,-64.46 317.11,-57.05 306.57,-58.12 309.54,-64.46"/>
</g>
<!-- Node68 -->
<g id="node49" class="node">
<title>Node68</title>
<g id="a_node49"><a xlink:href="Utilities_8h.html#aab56bfb50b2e8997275de7ea611e5bb4" target="_top" xlink:title=" ">
<polygon fill="white" stroke="#666666" points="387,-19 319,-19 319,0 387,0 387,-19"/>
<text text-anchor="middle" x="353" y="-7" font-family="Helvetica,sans-Serif" font-size="10.00">SetTheRTC</text>
</a>
</g>
</g>
<!-- Node67&#45;&gt;Node68 -->
<g id="edge70" class="edge">
<title>Node67&#45;&gt;Node68</title>
<path fill="none" stroke="#63b8ff" d="M234.21,-39.51C256.54,-33.82 284.57,-26.68 307.69,-20.79"/>
<polygon fill="#63b8ff" stroke="#63b8ff" points="308.3,-24.25 317.13,-18.38 306.57,-17.46 308.3,-24.25"/>
</g>
<!-- Node69 -->
<g id="node50" class="node">
<title>Node69</title>
<g id="a_node50"><a xlink:href="Utilities_8h.html#aa55ce3dfb919da5cebf61d1f2d2a96b7" target="_top" xlink:title=" ">
<polygon fill="white" stroke="#666666" points="529,-19 468,-19 468,0 529,0 529,-19"/>
<text text-anchor="middle" x="498.5" y="-7" font-family="Helvetica,sans-Serif" font-size="10.00">decToBcd</text>
</a>
</g>
</g>
<!-- Node68&#45;&gt;Node69 -->
<g id="edge71" class="edge">
<title>Node68&#45;&gt;Node69</title>
<path fill="none" stroke="#63b8ff" d="M387.28,-9.5C407.92,-9.5 434.58,-9.5 456.51,-9.5"/>
<polygon fill="#63b8ff" stroke="#63b8ff" points="456.3,-13 466.3,-9.5 456.3,-6 456.3,-13"/>
</g>
</g>
</svg>
