<?xml version="1.0" encoding="UTF-8" standalone="no"?>
<!DOCTYPE svg PUBLIC "-//W3C//DTD SVG 1.1//EN"
 "http://www.w3.org/Graphics/SVG/1.1/DTD/svg11.dtd">
<!-- Generated by graphviz version 7.0.5 (20221223.1930)
 -->
<!-- Title: UpdateButtonLabels Pages: 1 -->
<svg width="1105pt" height="481pt"
 viewBox="0.00 0.00 1105.00 481.00" xmlns="http://www.w3.org/2000/svg" xmlns:xlink="http://www.w3.org/1999/xlink">
<g id="graph0" class="graph" transform="scale(1 1) rotate(0) translate(4 477)">
<title>UpdateButtonLabels</title>
<!-- Node1 -->
<g id="node1" class="node">
<title>Node1</title>
<g id="a_node1"><a xlink:title=" ">
<polygon fill="#999999" stroke="#666666" points="1097,-94 991,-94 991,-75 1097,-75 1097,-94"/>
<text text-anchor="middle" x="1044" y="-82" font-family="Helvetica,sans-Serif" font-size="10.00">UpdateButtonLabels</text>
</a>
</g>
</g>
<!-- Node2 -->
<g id="node2" class="node">
<title>Node2</title>
<g id="a_node2"><a xlink:href="TransmitterCode_2src_2main_8cpp.html#ab1bdf189a2e5d2c6252095abeb660e79" target="_top" xlink:title=" ">
<polygon fill="white" stroke="#666666" points="955,-283 857,-283 857,-264 955,-264 955,-283"/>
<text text-anchor="middle" x="906" y="-271" font-family="Helvetica,sans-Serif" font-size="10.00">BuddyChViewStart</text>
</a>
</g>
</g>
<!-- Node1&#45;&gt;Node2 -->
<g id="edge1" class="edge">
<title>Node1&#45;&gt;Node2</title>
<path fill="none" stroke="#63b8ff" d="M1037.72,-105.03C1027.57,-140.53 1002.08,-213.61 955,-255.5 951.41,-258.69 947.2,-261.34 942.79,-263.53"/>
<polygon fill="#63b8ff" stroke="#63b8ff" points="1041.03,-106.18 1040.28,-95.61 1034.28,-104.34 1041.03,-106.18"/>
</g>
<!-- Node3 -->
<g id="node3" class="node">
<title>Node3</title>
<g id="a_node3"><a xlink:href="TransmitterCode_2src_2main_8cpp.html#a804fdbdd5eab4c596bbe8a23eecbe4d5" target="_top" xlink:title=" ">
<polygon fill="white" stroke="#666666" points="668,-208 567,-208 567,-189 668,-189 668,-208"/>
<text text-anchor="middle" x="617.5" y="-196" font-family="Helvetica,sans-Serif" font-size="10.00">ButtonWasPressed</text>
</a>
</g>
</g>
<!-- Node1&#45;&gt;Node3 -->
<g id="edge2" class="edge">
<title>Node1&#45;&gt;Node3</title>
<path fill="none" stroke="#63b8ff" d="M979.23,-88.49C911.39,-94.32 801.83,-108.38 713,-141.5 681.58,-153.21 648.96,-175.55 631.46,-188.51"/>
<polygon fill="#63b8ff" stroke="#63b8ff" points="979.38,-91.99 989.06,-87.68 978.81,-85.01 979.38,-91.99"/>
</g>
<!-- Node16 -->
<g id="node16" class="node">
<title>Node16</title>
<g id="a_node16"><a xlink:href="TransmitterCode_2src_2main_8cpp.html#ac7a5ec6cf2ed7b50bd291f821e886302" target="_top" xlink:title=" ">
<polygon fill="white" stroke="#666666" points="947.5,-246 864.5,-246 864.5,-227 947.5,-227 947.5,-246"/>
<text text-anchor="middle" x="906" y="-234" font-family="Helvetica,sans-Serif" font-size="10.00">ReadOneModel</text>
</a>
</g>
</g>
<!-- Node1&#45;&gt;Node16 -->
<g id="edge19" class="edge">
<title>Node1&#45;&gt;Node16</title>
<path fill="none" stroke="#63b8ff" d="M1026.41,-103.04C997.32,-135.55 938.1,-201.74 915.78,-226.69"/>
<polygon fill="#63b8ff" stroke="#63b8ff" points="1029.01,-105.39 1033.07,-95.6 1023.79,-100.72 1029.01,-105.39"/>
</g>
<!-- Node33 -->
<g id="node33" class="node">
<title>Node33</title>
<g id="a_node33"><a xlink:href="TransmitterCode_2src_2main_8cpp.html#a618bc6ca4ab71bb4d5d7e00dc71f9e56" target="_top" xlink:title=" ">
<polygon fill="white" stroke="#666666" points="953.5,-56 858.5,-56 858.5,-37 953.5,-37 953.5,-56"/>
<text text-anchor="middle" x="906" y="-44" font-family="Helvetica,sans-Serif" font-size="10.00">StartReverseView</text>
</a>
</g>
</g>
<!-- Node1&#45;&gt;Node33 -->
<g id="edge45" class="edge">
<title>Node1&#45;&gt;Node33</title>
<path fill="none" stroke="#63b8ff" d="M996.33,-71.46C978.7,-66.53 958.94,-61.01 942.49,-56.42"/>
<polygon fill="#63b8ff" stroke="#63b8ff" points="995.24,-74.79 1005.81,-74.11 997.12,-68.05 995.24,-74.79"/>
</g>
<!-- Node34 -->
<g id="node34" class="node">
<title>Node34</title>
<g id="a_node34"><a xlink:href="TransmitterCode_2src_2main_8cpp.html#a1c607fceb33466e7f7e0dd010dd53d7e" target="_top" xlink:title=" ">
<polygon fill="white" stroke="#666666" points="946.5,-19 865.5,-19 865.5,0 946.5,0 946.5,-19"/>
<text text-anchor="middle" x="906" y="-7" font-family="Helvetica,sans-Serif" font-size="10.00">StartSlowView</text>
</a>
</g>
</g>
<!-- Node1&#45;&gt;Node34 -->
<g id="edge47" class="edge">
<title>Node1&#45;&gt;Node34</title>
<path fill="none" stroke="#63b8ff" d="M1020.57,-68.03C1003.25,-55.81 978.37,-39.28 955,-27.5 949.2,-24.58 942.8,-21.86 936.62,-19.46"/>
<polygon fill="#63b8ff" stroke="#63b8ff" points="1018.43,-70.8 1028.59,-73.79 1022.51,-65.12 1018.43,-70.8"/>
</g>
<!-- Node4 -->
<g id="node4" class="node">
<title>Node4</title>
<g id="a_node4"><a xlink:href="TransmitterCode_2src_2main_8cpp.html#afb7c85cac4aa89fd998ed81c330374d2" target="_top" xlink:title=" ">
<polygon fill="white" stroke="#666666" points="522,-252 376,-252 376,-233 522,-233 522,-252"/>
<text text-anchor="middle" x="449" y="-240" font-family="Helvetica,sans-Serif" font-size="10.00">CheckForNextionButtonPress</text>
</a>
</g>
</g>
<!-- Node3&#45;&gt;Node4 -->
<g id="edge3" class="edge">
<title>Node3&#45;&gt;Node4</title>
<path fill="none" stroke="#63b8ff" d="M567.75,-211.38C542.18,-218.14 511.34,-226.29 487.63,-232.56"/>
<polygon fill="#63b8ff" stroke="#63b8ff" points="568.48,-214.81 577.26,-208.87 566.69,-208.04 568.48,-214.81"/>
</g>
<!-- Node11 -->
<g id="node11" class="node">
<title>Node11</title>
<g id="a_node11"><a xlink:href="TransmitterCode_2src_2main_8cpp.html#ab7c9edf843c732d7fe296564f39bc0dc" target="_top" xlink:title="RECEIVE A MODEL FILE.">
<polygon fill="white" stroke="#666666" points="182,-129 88,-129 88,-110 182,-110 182,-129"/>
<text text-anchor="middle" x="135" y="-117" font-family="Helvetica,sans-Serif" font-size="10.00">ReceiveModelFile</text>
</a>
</g>
</g>
<!-- Node3&#45;&gt;Node11 -->
<g id="edge18" class="edge">
<title>Node3&#45;&gt;Node11</title>
<path fill="none" stroke="#63b8ff" d="M555.65,-188.78C480.33,-176.72 348.16,-155.41 235,-136.5 217.8,-133.63 198.93,-130.4 182.32,-127.54"/>
<polygon fill="#63b8ff" stroke="#63b8ff" points="554.87,-192.2 565.29,-190.33 555.97,-185.29 554.87,-192.2"/>
</g>
<!-- Node5 -->
<g id="node5" class="node">
<title>Node5</title>
<g id="a_node5"><a xlink:href="TransmitterCode_2src_2main_8cpp.html#a641d6dab68ec7b2a8a32492aac55bc1c" target="_top" xlink:title=" ">
<polygon fill="white" stroke="#666666" points="340,-290 235,-290 235,-271 340,-271 340,-290"/>
<text text-anchor="middle" x="287.5" y="-278" font-family="Helvetica,sans-Serif" font-size="10.00">GetBackupFilename</text>
</a>
</g>
</g>
<!-- Node4&#45;&gt;Node5 -->
<g id="edge4" class="edge">
<title>Node4&#45;&gt;Node5</title>
<path fill="none" stroke="#63b8ff" d="M395.07,-255.11C374.04,-260.12 350.2,-265.8 330.4,-270.52"/>
<polygon fill="#63b8ff" stroke="#63b8ff" points="395.7,-258.56 404.62,-252.83 394.08,-251.75 395.7,-258.56"/>
</g>
<!-- Node7 -->
<g id="node7" class="node">
<title>Node7</title>
<g id="a_node7"><a xlink:href="TransmitterCode_2src_2main_8cpp.html#a6506bf72e0dd9e9ce480156b47625bff" target="_top" xlink:title=" ">
<polygon fill="white" stroke="#666666" points="330.5,-216 244.5,-216 244.5,-197 330.5,-197 330.5,-216"/>
<text text-anchor="middle" x="287.5" y="-204" font-family="Helvetica,sans-Serif" font-size="10.00">GetConfirmation</text>
</a>
</g>
</g>
<!-- Node4&#45;&gt;Node7 -->
<g id="edge7" class="edge">
<title>Node4&#45;&gt;Node7</title>
<path fill="none" stroke="#63b8ff" d="M393,-230.09C372.69,-225.5 350.01,-220.38 330.99,-216.09"/>
<polygon fill="#63b8ff" stroke="#63b8ff" points="391.99,-233.45 402.52,-232.23 393.53,-226.62 391.99,-233.45"/>
</g>
<!-- Node14 -->
<g id="node14" class="node">
<title>Node14</title>
<g id="a_node14"><a xlink:href="TransmitterCode_2src_2main_8cpp.html#a558ea014e230b7caa54ce5a37ad29b22" target="_top" xlink:title=" ">
<polygon fill="white" stroke="#666666" points="338,-253 237,-253 237,-234 338,-234 338,-253"/>
<text text-anchor="middle" x="287.5" y="-241" font-family="Helvetica,sans-Serif" font-size="10.00">ManageTransmitter</text>
</a>
</g>
</g>
<!-- Node4&#45;&gt;Node14 -->
<g id="edge16" class="edge">
<title>Node4&#45;&gt;Node14</title>
<path fill="none" stroke="#63b8ff" d="M364.38,-243.02C355.43,-243.08 346.54,-243.14 338.17,-243.19"/>
<polygon fill="#63b8ff" stroke="#63b8ff" points="364.23,-246.53 374.2,-242.96 364.18,-239.53 364.23,-246.53"/>
</g>
<!-- Node5&#45;&gt;Node3 -->
<g id="edge5" class="edge">
<title>Node5&#45;&gt;Node3</title>
<path fill="none" stroke="#63b8ff" d="M351.76,-288.12C400.91,-291.12 469.33,-288.75 522,-261.5 544.14,-250.05 537.45,-232.61 558,-218.5 563.93,-214.43 570.76,-211.12 577.62,-208.45"/>
<polygon fill="#63b8ff" stroke="#63b8ff" points="352.07,-284.63 341.84,-287.41 351.57,-291.61 352.07,-284.63"/>
</g>
<!-- Node6 -->
<g id="node6" class="node">
<title>Node6</title>
<g id="a_node6"><a xlink:href="TransmitterCode_2src_2main_8cpp.html#a9d94366336f1e5fd43edb9c24bec5821" target="_top" xlink:title=" ">
<polygon fill="white" stroke="#666666" points="169,-390 101,-390 101,-371 169,-371 169,-390"/>
<text text-anchor="middle" x="135" y="-378" font-family="Helvetica,sans-Serif" font-size="10.00">RenameFile</text>
</a>
</g>
</g>
<!-- Node5&#45;&gt;Node6 -->
<g id="edge6" class="edge">
<title>Node5&#45;&gt;Node6</title>
<path fill="none" stroke="#63b8ff" d="M269.69,-298.35C253.06,-315.19 226.2,-340.21 199,-356.5 189.66,-362.09 178.79,-366.79 168.74,-370.5"/>
<polygon fill="#63b8ff" stroke="#63b8ff" points="271.92,-301.09 276.36,-291.47 266.89,-296.22 271.92,-301.09"/>
</g>
<!-- Node7&#45;&gt;Node3 -->
<g id="edge8" class="edge">
<title>Node7&#45;&gt;Node3</title>
<path fill="none" stroke="#63b8ff" d="M342.08,-205.19C404.3,-203.68 506.12,-201.19 566.68,-199.72"/>
<polygon fill="#63b8ff" stroke="#63b8ff" points="342.37,-201.69 332.45,-205.43 342.54,-208.68 342.37,-201.69"/>
</g>
<!-- Node7&#45;&gt;Node6 -->
<g id="edge13" class="edge">
<title>Node7&#45;&gt;Node6</title>
<path fill="none" stroke="#63b8ff" d="M238.3,-222.54C237.15,-223.47 236.04,-224.46 235,-225.5 202.21,-258.33 224.96,-285.04 199,-323.5 185.88,-342.94 164.75,-360.22 150.63,-370.52"/>
<polygon fill="#63b8ff" stroke="#63b8ff" points="240.13,-225.52 246.68,-217.2 236.37,-219.62 240.13,-225.52"/>
</g>
<!-- Node8 -->
<g id="node8" class="node">
<title>Node8</title>
<g id="a_node8"><a xlink:href="TransmitterCode_2src_2main_8cpp.html#a16c65917a148c7f6c17babf11e977b69" target="_top" xlink:title=" ">
<polygon fill="white" stroke="#666666" points="176,-240 94,-240 94,-221 176,-221 176,-240"/>
<text text-anchor="middle" x="135" y="-228" font-family="Helvetica,sans-Serif" font-size="10.00">EndBuddyView</text>
</a>
</g>
</g>
<!-- Node7&#45;&gt;Node8 -->
<g id="edge9" class="edge">
<title>Node7&#45;&gt;Node8</title>
<path fill="none" stroke="#63b8ff" d="M232.9,-215.05C214.31,-218.01 193.8,-221.28 176.45,-224.05"/>
<polygon fill="#63b8ff" stroke="#63b8ff" points="233.36,-218.52 242.68,-213.49 232.26,-211.61 233.36,-218.52"/>
</g>
<!-- Node9 -->
<g id="node9" class="node">
<title>Node9</title>
<g id="a_node9"><a xlink:href="TransmitterCode_2src_2main_8cpp.html#a339dccdc324b75d00fd035fb3fb129fd" target="_top" xlink:title=" ">
<polygon fill="white" stroke="#666666" points="176.5,-203 93.5,-203 93.5,-184 176.5,-184 176.5,-203"/>
<text text-anchor="middle" x="135" y="-191" font-family="Helvetica,sans-Serif" font-size="10.00">ModelUnmatch</text>
</a>
</g>
</g>
<!-- Node7&#45;&gt;Node9 -->
<g id="edge10" class="edge">
<title>Node7&#45;&gt;Node9</title>
<path fill="none" stroke="#63b8ff" d="M232.73,-201.86C214.37,-200.27 194.15,-198.52 176.97,-197.04"/>
<polygon fill="#63b8ff" stroke="#63b8ff" points="232.4,-205.34 242.67,-202.71 233.01,-198.37 232.4,-205.34"/>
</g>
<!-- Node10 -->
<g id="node10" class="node">
<title>Node10</title>
<g id="a_node10"><a xlink:href="TransmitterCode_2src_2main_8cpp.html#ae9f91b9da28f2e1e2fb126961f03c31c" target="_top" xlink:title=" ">
<polygon fill="white" stroke="#666666" points="175.5,-314 94.5,-314 94.5,-295 175.5,-295 175.5,-314"/>
<text text-anchor="middle" x="135" y="-302" font-family="Helvetica,sans-Serif" font-size="10.00">ModelViewEnd</text>
</a>
</g>
</g>
<!-- Node7&#45;&gt;Node10 -->
<g id="edge11" class="edge">
<title>Node7&#45;&gt;Node10</title>
<path fill="none" stroke="#63b8ff" d="M240.23,-221.66C238.4,-222.85 236.65,-224.13 235,-225.5 210.83,-245.67 223.91,-267.25 199,-286.5 192.25,-291.72 184.05,-295.42 175.82,-298.05"/>
<polygon fill="#63b8ff" stroke="#63b8ff" points="241.43,-224.99 248.55,-217.14 238.09,-218.84 241.43,-224.99"/>
</g>
<!-- Node7&#45;&gt;Node11 -->
<g id="edge12" class="edge">
<title>Node7&#45;&gt;Node11</title>
<path fill="none" stroke="#63b8ff" d="M252.06,-191.58C246.11,-188.32 240.18,-184.61 235,-180.5 215.47,-165.01 219.9,-151.08 199,-137.5 193.94,-134.22 188.28,-131.52 182.48,-129.31"/>
<polygon fill="#63b8ff" stroke="#63b8ff" points="250.11,-194.52 260.61,-195.92 253.28,-188.28 250.11,-194.52"/>
</g>
<!-- Node12 -->
<g id="node12" class="node">
<title>Node12</title>
<g id="a_node12"><a xlink:href="TransmitterCode_2src_2main_8cpp.html#a5c7f22bae35d5d6df9d54fe79dbb8401" target="_top" xlink:title=" ">
<polygon fill="white" stroke="#666666" points="199,-166 71,-166 71,-147 199,-147 199,-166"/>
<text text-anchor="middle" x="135" y="-154" font-family="Helvetica,sans-Serif" font-size="10.00">ResetTransmitterSettings</text>
</a>
</g>
</g>
<!-- Node7&#45;&gt;Node12 -->
<g id="edge14" class="edge">
<title>Node7&#45;&gt;Node12</title>
<path fill="none" stroke="#63b8ff" d="M248.74,-192.68C233.37,-187.17 215.39,-180.87 199,-175.5 189.66,-172.44 179.49,-169.29 170.1,-166.46"/>
<polygon fill="#63b8ff" stroke="#63b8ff" points="247.4,-195.92 257.99,-196.02 249.77,-189.33 247.4,-195.92"/>
</g>
<!-- Node13 -->
<g id="node13" class="node">
<title>Node13</title>
<g id="a_node13"><a xlink:href="TransmitterCode_2src_2main_8cpp.html#a3c55ef7c23759a89a86f6519569c4f7a" target="_top" xlink:title=" ">
<polygon fill="white" stroke="#666666" points="184.5,-277 85.5,-277 85.5,-258 184.5,-258 184.5,-277"/>
<text text-anchor="middle" x="135" y="-265" font-family="Helvetica,sans-Serif" font-size="10.00">TXModuleViewEnd</text>
</a>
</g>
</g>
<!-- Node7&#45;&gt;Node13 -->
<g id="edge15" class="edge">
<title>Node7&#45;&gt;Node13</title>
<path fill="none" stroke="#63b8ff" d="M245.23,-220.74C241.72,-222.24 238.27,-223.84 235,-225.5 217.86,-234.22 216.45,-241.43 199,-249.5 192.29,-252.6 184.92,-255.29 177.67,-257.57"/>
<polygon fill="#63b8ff" stroke="#63b8ff" points="246.39,-224.04 254.36,-217.06 243.78,-217.55 246.39,-224.04"/>
</g>
<!-- Node15 -->
<g id="node15" class="node">
<title>Node15</title>
<g id="a_node15"><a xlink:href="TransmitterCode_2src_2main_8cpp.html#ad3cb30894c94eb016e98bdcaa899ac86" target="_top" xlink:title=" ">
<polygon fill="white" stroke="#666666" points="35,-390 0,-390 0,-371 35,-371 35,-390"/>
<text text-anchor="middle" x="17.5" y="-378" font-family="Helvetica,sans-Serif" font-size="10.00">loop</text>
</a>
</g>
</g>
<!-- Node14&#45;&gt;Node15 -->
<g id="edge17" class="edge">
<title>Node14&#45;&gt;Node15</title>
<path fill="none" stroke="#63b8ff" d="M240.23,-258.66C238.4,-259.85 236.65,-261.13 235,-262.5 210.83,-282.67 223.74,-304.03 199,-323.5 152.26,-360.28 127.58,-344.19 71,-362.5 59.08,-366.36 45.73,-370.94 35.47,-374.51"/>
<polygon fill="#63b8ff" stroke="#63b8ff" points="241.43,-261.99 248.55,-254.14 238.09,-255.84 241.43,-261.99"/>
</g>
<!-- Node16&#45;&gt;Node3 -->
<g id="edge20" class="edge">
<title>Node16&#45;&gt;Node3</title>
<path fill="none" stroke="#63b8ff" d="M852.97,-224.4C842.43,-222.21 831.39,-220.12 821,-218.5 769.17,-210.41 709.33,-204.98 668.21,-201.84"/>
<polygon fill="#63b8ff" stroke="#63b8ff" points="852.17,-227.8 862.68,-226.47 853.63,-220.96 852.17,-227.8"/>
</g>
<!-- Node16&#45;&gt;Node10 -->
<g id="edge40" class="edge">
<title>Node16&#45;&gt;Node10</title>
<path fill="none" stroke="#63b8ff" d="M854.31,-248.93C843.37,-251.34 831.83,-253.68 821,-255.5 609.29,-291.01 554.48,-290.39 340,-299.5 283.01,-301.92 217.02,-303.27 175.89,-303.95"/>
<polygon fill="#63b8ff" stroke="#63b8ff" points="854.99,-252.37 863.97,-246.74 853.44,-245.54 854.99,-252.37"/>
</g>
<!-- Node16&#45;&gt;Node11 -->
<g id="edge41" class="edge">
<title>Node16&#45;&gt;Node11</title>
<path fill="none" stroke="#63b8ff" d="M893.2,-217.1C878.88,-195.28 852.67,-160.42 821,-141.5 703.82,-71.52 657.58,-87.16 522,-71.5 457.54,-64.06 440.57,-65.11 376,-71.5 303.69,-78.66 220.9,-97.67 173.89,-109.51"/>
<polygon fill="#63b8ff" stroke="#63b8ff" points="890.12,-218.79 898.43,-225.36 896.03,-215.04 890.12,-218.79"/>
</g>
<!-- Node17 -->
<g id="node17" class="node">
<title>Node17</title>
<g id="a_node17"><a xlink:href="TransmitterCode_2src_2main_8cpp.html#a984cb52354a84c45e9e41f396a1c5e92" target="_top" xlink:title=" ">
<polygon fill="white" stroke="#666666" points="815.5,-360 718.5,-360 718.5,-341 815.5,-341 815.5,-360"/>
<text text-anchor="middle" x="767" y="-348" font-family="Helvetica,sans-Serif" font-size="10.00">CheckModelName</text>
</a>
</g>
</g>
<!-- Node16&#45;&gt;Node17 -->
<g id="edge21" class="edge">
<title>Node16&#45;&gt;Node17</title>
<path fill="none" stroke="#63b8ff" d="M860.93,-252.29C859.56,-253.3 858.24,-254.37 857,-255.5 830.85,-279.34 846.56,-302.04 821,-326.5 814.87,-332.37 807.06,-336.97 799.32,-340.5"/>
<polygon fill="#63b8ff" stroke="#63b8ff" points="862.57,-255.39 869.36,-247.26 858.98,-249.38 862.57,-255.39"/>
</g>
<!-- Node19 -->
<g id="node19" class="node">
<title>Node19</title>
<g id="a_node19"><a xlink:href="TransmitterCode_2src_2main_8cpp.html#af8fe429ceb65bf9d257a2a0f1c63eccb" target="_top" xlink:title=" ">
<polygon fill="white" stroke="#666666" points="818,-453 716,-453 716,-434 818,-434 818,-453"/>
<text text-anchor="middle" x="767" y="-441" font-family="Helvetica,sans-Serif" font-size="10.00">CompareModelsIDs</text>
</a>
</g>
</g>
<!-- Node16&#45;&gt;Node19 -->
<g id="edge23" class="edge">
<title>Node16&#45;&gt;Node19</title>
<path fill="none" stroke="#63b8ff" d="M859.19,-253.2C858.42,-253.93 857.69,-254.7 857,-255.5 811.82,-307.64 859.82,-349.47 821,-406.5 813.04,-418.19 800.08,-427.33 788.97,-433.61"/>
<polygon fill="#63b8ff" stroke="#63b8ff" points="861.17,-256.09 867.2,-247.38 857.05,-250.42 861.17,-256.09"/>
</g>
<!-- Node25 -->
<g id="node25" class="node">
<title>Node25</title>
<g id="a_node25"><a xlink:href="TransmitterCode_2src_2main_8cpp.html#a909acb7ed667a5cc9c4ec6191fc33e75" target="_top" xlink:title=" ">
<polygon fill="white" stroke="#666666" points="817,-246 717,-246 717,-227 817,-227 817,-246"/>
<text text-anchor="middle" x="767" y="-234" font-family="Helvetica,sans-Serif" font-size="10.00">LoadAllParameters</text>
</a>
</g>
</g>
<!-- Node16&#45;&gt;Node25 -->
<g id="edge30" class="edge">
<title>Node16&#45;&gt;Node25</title>
<path fill="none" stroke="#63b8ff" d="M852.81,-236.5C841.07,-236.5 828.65,-236.5 817.05,-236.5"/>
<polygon fill="#63b8ff" stroke="#63b8ff" points="852.75,-240 862.75,-236.5 852.75,-233 852.75,-240"/>
</g>
<!-- Node27 -->
<g id="node27" class="node">
<title>Node27</title>
<g id="a_node27"><a xlink:href="TransmitterCode_2src_2main_8cpp.html#a3707639fbc6c8c053b888cd618869146" target="_top" xlink:title=" ">
<polygon fill="white" stroke="#666666" points="510,-382 388,-382 388,-363 510,-363 510,-382"/>
<text text-anchor="middle" x="449" y="-370" font-family="Helvetica,sans-Serif" font-size="10.00">LoadModelForRenaming</text>
</a>
</g>
</g>
<!-- Node16&#45;&gt;Node27 -->
<g id="edge33" class="edge">
<title>Node16&#45;&gt;Node27</title>
<path fill="none" stroke="#63b8ff" d="M864.63,-251.2C861.99,-252.55 859.43,-253.98 857,-255.5 838.6,-267.02 840.51,-278.98 821,-288.5 714.48,-340.46 672.52,-302.01 558,-332.5 527.86,-340.53 494.35,-353.62 472.77,-362.63"/>
<polygon fill="#63b8ff" stroke="#63b8ff" points="865.99,-254.42 873.61,-247.06 863.06,-248.06 865.99,-254.42"/>
</g>
<!-- Node28 -->
<g id="node28" class="node">
<title>Node28</title>
<g id="a_node28"><a xlink:href="TransmitterCode_2src_2main_8cpp.html#a6684199e9da3ca0bdb0e01260eec7e30" target="_top" xlink:title=" ">
<polygon fill="white" stroke="#666666" points="817.5,-170 716.5,-170 716.5,-151 817.5,-151 817.5,-170"/>
<text text-anchor="middle" x="767" y="-158" font-family="Helvetica,sans-Serif" font-size="10.00">LoadModelSelector</text>
</a>
</g>
</g>
<!-- Node16&#45;&gt;Node28 -->
<g id="edge35" class="edge">
<title>Node16&#45;&gt;Node28</title>
<path fill="none" stroke="#63b8ff" d="M880.73,-220.32C864.22,-209.59 841.68,-195.52 821,-184.5 811.64,-179.51 801.04,-174.58 791.8,-170.49"/>
<polygon fill="#63b8ff" stroke="#63b8ff" points="878.62,-223.12 888.9,-225.68 882.46,-217.27 878.62,-223.12"/>
</g>
<!-- Node31 -->
<g id="node31" class="node">
<title>Node31</title>
<g id="a_node31"><a xlink:href="TransmitterCode_2src_2main_8cpp.html#aa1f353c2c61131eeafa77c6e67608e45" target="_top" xlink:title=" ">
<polygon fill="white" stroke="#666666" points="821,-397 713,-397 713,-378 821,-378 821,-397"/>
<text text-anchor="middle" x="767" y="-385" font-family="Helvetica,sans-Serif" font-size="10.00">RestoreCurrentModel</text>
</a>
</g>
</g>
<!-- Node16&#45;&gt;Node31 -->
<g id="edge42" class="edge">
<title>Node16&#45;&gt;Node31</title>
<path fill="none" stroke="#63b8ff" d="M859.71,-252.87C858.76,-253.71 857.86,-254.58 857,-255.5 820.79,-294.38 858.16,-331.53 821,-369.5 817.81,-372.76 814,-375.44 809.91,-377.62"/>
<polygon fill="#63b8ff" stroke="#63b8ff" points="861.6,-255.82 867.9,-247.3 857.66,-250.03 861.6,-255.82"/>
</g>
<!-- Node18 -->
<g id="node18" class="node">
<title>Node18</title>
<g id="a_node18"><a xlink:href="TransmitterCode_2src_2main_8cpp.html#ae267eaa80a4b3eb49ba10a97469eb7e9" target="_top" xlink:title=" ">
<polygon fill="white" stroke="#666666" points="652,-360 583,-360 583,-341 652,-341 652,-360"/>
<text text-anchor="middle" x="617.5" y="-348" font-family="Helvetica,sans-Serif" font-size="10.00">DoMFName</text>
</a>
</g>
</g>
<!-- Node17&#45;&gt;Node18 -->
<g id="edge22" class="edge">
<title>Node17&#45;&gt;Node18</title>
<path fill="none" stroke="#63b8ff" d="M706.75,-350.5C688.18,-350.5 668.32,-350.5 652.15,-350.5"/>
<polygon fill="#63b8ff" stroke="#63b8ff" points="706.6,-354 716.6,-350.5 706.6,-347 706.6,-354"/>
</g>
<!-- Node20 -->
<g id="node20" class="node">
<title>Node20</title>
<g id="a_node20"><a xlink:href="TransmitterCode_2src_2main_8cpp.html#a494cb4acb30856d1f53f08df1b80c41b" target="_top" xlink:title=" ">
<polygon fill="white" stroke="#666666" points="677,-473 558,-473 558,-454 677,-454 677,-473"/>
<text text-anchor="middle" x="617.5" y="-461" font-family="Helvetica,sans-Serif" font-size="10.00">GetModelsMacAddress</text>
</a>
</g>
</g>
<!-- Node19&#45;&gt;Node20 -->
<g id="edge24" class="edge">
<title>Node19&#45;&gt;Node20</title>
<path fill="none" stroke="#63b8ff" d="M704.43,-451.85C695.44,-453.07 686.2,-454.32 677.26,-455.53"/>
<polygon fill="#63b8ff" stroke="#63b8ff" points="704.71,-455.34 714.15,-450.53 703.77,-448.41 704.71,-455.34"/>
</g>
<!-- Node21 -->
<g id="node21" class="node">
<title>Node21</title>
<g id="a_node21"><a xlink:href="TransmitterCode_2src_2main_8cpp.html#a694f4f5a0147f4dc29b0bc1a8951547d" target="_top" xlink:title=" ">
<polygon fill="white" stroke="#666666" points="496,-473 402,-473 402,-454 496,-454 496,-473"/>
<text text-anchor="middle" x="449" y="-461" font-family="Helvetica,sans-Serif" font-size="10.00">ParseAckPayload</text>
</a>
</g>
</g>
<!-- Node20&#45;&gt;Node21 -->
<g id="edge25" class="edge">
<title>Node20&#45;&gt;Node21</title>
<path fill="none" stroke="#63b8ff" d="M546.29,-463.5C529.44,-463.5 511.87,-463.5 496.42,-463.5"/>
<polygon fill="#63b8ff" stroke="#63b8ff" points="546.28,-467 556.28,-463.5 546.28,-460 546.28,-467"/>
</g>
<!-- Node22 -->
<g id="node22" class="node">
<title>Node22</title>
<g id="a_node22"><a xlink:href="TransmitterCode_2src_2main_8cpp.html#a1c11bb6771548de7d96723045b922620" target="_top" xlink:title=" ">
<polygon fill="white" stroke="#666666" points="335.5,-473 239.5,-473 239.5,-454 335.5,-454 335.5,-473"/>
<text text-anchor="middle" x="287.5" y="-461" font-family="Helvetica,sans-Serif" font-size="10.00">SuccessfulPacket</text>
</a>
</g>
</g>
<!-- Node21&#45;&gt;Node22 -->
<g id="edge26" class="edge">
<title>Node21&#45;&gt;Node22</title>
<path fill="none" stroke="#63b8ff" d="M390.39,-463.5C372.51,-463.5 353.02,-463.5 335.91,-463.5"/>
<polygon fill="#63b8ff" stroke="#63b8ff" points="390.35,-467 400.35,-463.5 390.35,-460 390.35,-467"/>
</g>
<!-- Node23 -->
<g id="node23" class="node">
<title>Node23</title>
<g id="a_node23"><a xlink:href="TransmitterCode_2src_2main_8cpp.html#a049bfb836e7aa4a3a48a1a4bd225fafc" target="_top" xlink:title=" ">
<polygon fill="white" stroke="#666666" points="164.5,-430 105.5,-430 105.5,-411 164.5,-411 164.5,-430"/>
<text text-anchor="middle" x="135" y="-418" font-family="Helvetica,sans-Serif" font-size="10.00">SendData</text>
</a>
</g>
</g>
<!-- Node22&#45;&gt;Node23 -->
<g id="edge27" class="edge">
<title>Node22&#45;&gt;Node23</title>
<path fill="none" stroke="#63b8ff" d="M240.63,-450.39C215.88,-443.32 186.11,-434.82 164.66,-428.69"/>
<polygon fill="#63b8ff" stroke="#63b8ff" points="239.56,-453.73 250.14,-453.11 241.48,-447 239.56,-453.73"/>
</g>
<!-- Node24 -->
<g id="node24" class="node">
<title>Node24</title>
<g id="a_node24"><a xlink:href="TransmitterCode_2src_2main_8cpp.html#a6cb98c5fc86abe29731051eabf9055de" target="_top" xlink:title=" ">
<polygon fill="white" stroke="#666666" points="193,-473 77,-473 77,-454 193,-454 193,-473"/>
<text text-anchor="middle" x="135" y="-461" font-family="Helvetica,sans-Serif" font-size="10.00">SendReconnectPacket</text>
</a>
</g>
</g>
<!-- Node22&#45;&gt;Node24 -->
<g id="edge29" class="edge">
<title>Node22&#45;&gt;Node24</title>
<path fill="none" stroke="#63b8ff" d="M228.1,-463.5C216.69,-463.5 204.73,-463.5 193.35,-463.5"/>
<polygon fill="#63b8ff" stroke="#63b8ff" points="227.78,-467 237.78,-463.5 227.78,-460 227.78,-467"/>
</g>
<!-- Node23&#45;&gt;Node15 -->
<g id="edge28" class="edge">
<title>Node23&#45;&gt;Node15</title>
<path fill="none" stroke="#63b8ff" d="M94.4,-407.47C86.63,-404.87 78.55,-402.12 71,-399.5 59.1,-395.36 45.74,-390.53 35.48,-386.77"/>
<polygon fill="#63b8ff" stroke="#63b8ff" points="93.06,-410.72 103.66,-410.56 95.28,-404.07 93.06,-410.72"/>
</g>
<!-- Node25&#45;&gt;Node3 -->
<g id="edge31" class="edge">
<title>Node25&#45;&gt;Node3</title>
<path fill="none" stroke="#63b8ff" d="M716.24,-223.68C697,-218.72 675.3,-213.13 657.25,-208.48"/>
<polygon fill="#63b8ff" stroke="#63b8ff" points="715.22,-227.03 725.78,-226.14 716.97,-220.25 715.22,-227.03"/>
</g>
<!-- Node26 -->
<g id="node26" class="node">
<title>Node26</title>
<g id="a_node26"><a xlink:href="TransmitterCode_2src_2main_8cpp.html#a17699f358cf9f7c3155a9c5daf8ff13c" target="_top" xlink:title=" ">
<polygon fill="white" stroke="#666666" points="638,-246 597,-246 597,-227 638,-227 638,-246"/>
<text text-anchor="middle" x="617.5" y="-234" font-family="Helvetica,sans-Serif" font-size="10.00">setup</text>
</a>
</g>
</g>
<!-- Node25&#45;&gt;Node26 -->
<g id="edge32" class="edge">
<title>Node25&#45;&gt;Node26</title>
<path fill="none" stroke="#63b8ff" d="M705.65,-236.5C681.61,-236.5 655.6,-236.5 638.32,-236.5"/>
<polygon fill="#63b8ff" stroke="#63b8ff" points="705.37,-240 715.37,-236.5 705.37,-233 705.37,-240"/>
</g>
<!-- Node27&#45;&gt;Node6 -->
<g id="edge34" class="edge">
<title>Node27&#45;&gt;Node6</title>
<path fill="none" stroke="#63b8ff" d="M376.44,-374.33C311.33,-376 218.14,-378.39 169.09,-379.65"/>
<polygon fill="#63b8ff" stroke="#63b8ff" points="376.42,-377.84 386.33,-374.08 376.24,-370.84 376.42,-377.84"/>
</g>
<!-- Node28&#45;&gt;Node3 -->
<g id="edge36" class="edge">
<title>Node28&#45;&gt;Node3</title>
<path fill="none" stroke="#63b8ff" d="M716.24,-173.32C697,-178.28 675.3,-183.87 657.25,-188.52"/>
<polygon fill="#63b8ff" stroke="#63b8ff" points="716.97,-176.75 725.78,-170.86 715.22,-169.97 716.97,-176.75"/>
</g>
<!-- Node29 -->
<g id="node29" class="node">
<title>Node29</title>
<g id="a_node29"><a xlink:href="TransmitterCode_2src_2main_8cpp.html#a446a94169d966af920710f7acddc5257" target="_top" xlink:title=" ">
<polygon fill="white" stroke="#666666" points="663,-138 572,-138 572,-119 663,-119 663,-138"/>
<text text-anchor="middle" x="617.5" y="-126" font-family="Helvetica,sans-Serif" font-size="10.00">GotoModelsView</text>
</a>
</g>
</g>
<!-- Node28&#45;&gt;Node29 -->
<g id="edge37" class="edge">
<title>Node28&#45;&gt;Node29</title>
<path fill="none" stroke="#63b8ff" d="M709.27,-148.19C694.05,-144.89 677.8,-141.37 663.32,-138.22"/>
<polygon fill="#63b8ff" stroke="#63b8ff" points="708.14,-151.53 718.66,-150.23 709.63,-144.69 708.14,-151.53"/>
</g>
<!-- Node29&#45;&gt;Node11 -->
<g id="edge39" class="edge">
<title>Node29&#45;&gt;Node11</title>
<path fill="none" stroke="#63b8ff" d="M560.25,-127.45C464.31,-125.65 270.86,-122.03 182.24,-120.37"/>
<polygon fill="#63b8ff" stroke="#63b8ff" points="560.15,-130.95 570.21,-127.63 560.28,-123.95 560.15,-130.95"/>
</g>
<!-- Node30 -->
<g id="node30" class="node">
<title>Node30</title>
<g id="a_node30"><a xlink:href="TransmitterCode_2src_2main_8cpp.html#a7af8e147bab19bdc499ffef595d30aae" target="_top" xlink:title=" ">
<polygon fill="white" stroke="#666666" points="496.5,-100 401.5,-100 401.5,-81 496.5,-81 496.5,-100"/>
<text text-anchor="middle" x="449" y="-88" font-family="Helvetica,sans-Serif" font-size="10.00">EndRenameModel</text>
</a>
</g>
</g>
<!-- Node29&#45;&gt;Node30 -->
<g id="edge38" class="edge">
<title>Node29&#45;&gt;Node30</title>
<path fill="none" stroke="#63b8ff" d="M561.55,-115.96C539.52,-110.93 514.5,-105.22 493.74,-100.48"/>
<polygon fill="#63b8ff" stroke="#63b8ff" points="560.75,-119.37 571.28,-118.18 562.31,-112.54 560.75,-119.37"/>
</g>
<!-- Node31&#45;&gt;Node6 -->
<g id="edge44" class="edge">
<title>Node31&#45;&gt;Node6</title>
<path fill="none" stroke="#63b8ff" d="M717.11,-399.87C704.16,-402.61 690.12,-405.11 677,-406.5 576.45,-417.11 300.05,-395.39 235,-390.5 213.12,-388.85 188.59,-386.38 169.41,-384.3"/>
<polygon fill="#63b8ff" stroke="#63b8ff" points="717.69,-403.32 726.69,-397.74 716.17,-396.49 717.69,-403.32"/>
</g>
<!-- Node32 -->
<g id="node32" class="node">
<title>Node32</title>
<g id="a_node32"><a xlink:href="TransmitterCode_2src_2main_8cpp.html#a7c7ce8ee172cc418366d3feb06e4fbd3" target="_top" xlink:title=" ">
<polygon fill="white" stroke="#666666" points="670.5,-397 564.5,-397 564.5,-378 670.5,-378 670.5,-397"/>
<text text-anchor="middle" x="617.5" y="-385" font-family="Helvetica,sans-Serif" font-size="10.00">GoBackFromModels</text>
</a>
</g>
</g>
<!-- Node31&#45;&gt;Node32 -->
<g id="edge43" class="edge">
<title>Node31&#45;&gt;Node32</title>
<path fill="none" stroke="#63b8ff" d="M701.33,-387.5C691.08,-387.5 680.6,-387.5 670.68,-387.5"/>
<polygon fill="#63b8ff" stroke="#63b8ff" points="701.24,-391 711.24,-387.5 701.24,-384 701.24,-391"/>
</g>
<!-- Node33&#45;&gt;Node3 -->
<g id="edge46" class="edge">
<title>Node33&#45;&gt;Node3</title>
<path fill="none" stroke="#63b8ff" d="M846.74,-39.87C805.66,-38.28 751.35,-42.75 713,-70.5 682.72,-92.41 699.42,-116.59 677,-146.5 664.29,-163.46 645.34,-179.06 632.49,-188.66"/>
<polygon fill="#63b8ff" stroke="#63b8ff" points="846.53,-43.36 856.7,-40.4 846.91,-36.37 846.53,-43.36"/>
</g>
</g>
</svg>
