<?xml version="1.0" encoding="UTF-8" standalone="no"?>
<!DOCTYPE svg PUBLIC "-//W3C//DTD SVG 1.1//EN"
 "http://www.w3.org/Graphics/SVG/1.1/DTD/svg11.dtd">
<!-- Generated by graphviz version 7.0.5 (20221223.1930)
 -->
<!-- Title: TransmitterCode/src/main.cpp Pages: 1 -->
<svg width="1244pt" height="203pt"
 viewBox="0.00 0.00 1243.61 203.00" xmlns="http://www.w3.org/2000/svg" xmlns:xlink="http://www.w3.org/1999/xlink">
<g id="graph0" class="graph" transform="scale(1 1) rotate(0) translate(4 199)">
<title>TransmitterCode/src/main.cpp</title>
<!-- Node1 -->
<g id="node1" class="node">
<title>Node1</title>
<g id="a_node1"><a xlink:title=" ">
<polygon fill="#999999" stroke="#666666" points="526.61,-195 421.61,-195 421.61,-165 526.61,-165 526.61,-195"/>
<text text-anchor="start" x="429.61" y="-183" font-family="Helvetica,sans-Serif" font-size="10.00">TransmitterCode/src</text>
<text text-anchor="middle" x="474.11" y="-172" font-family="Helvetica,sans-Serif" font-size="10.00">/main.cpp</text>
</a>
</g>
</g>
<!-- Node2 -->
<g id="node2" class="node">
<title>Node2</title>
<g id="a_node2"><a xlink:href="Definitions_8h.html" target="_top" xlink:title=" ">
<polygon fill="white" stroke="#666666" points="531.11,-129 417.11,-129 417.11,-110 531.11,-110 531.11,-129"/>
<text text-anchor="middle" x="474.11" y="-117" font-family="Helvetica,sans-Serif" font-size="10.00">Hardware/Definitions.h</text>
</a>
</g>
</g>
<!-- Node1&#45;&gt;Node2 -->
<g id="edge1" class="edge">
<title>Node1&#45;&gt;Node2</title>
<path fill="none" stroke="#63b8ff" d="M474.11,-164.54C474.11,-157.34 474.11,-148.53 474.11,-140.68"/>
<polygon fill="#63b8ff" stroke="#63b8ff" points="477.61,-140.69 474.11,-130.69 470.61,-140.69 477.61,-140.69"/>
</g>
<!-- Node3 -->
<g id="node3" class="node">
<title>Node3</title>
<g id="a_node3"><a xlink:title=" ">
<polygon fill="#e0e0e0" stroke="#999999" points="1013.61,-19 956.61,-19 956.61,0 1013.61,0 1013.61,-19"/>
<text text-anchor="middle" x="985.11" y="-7" font-family="Helvetica,sans-Serif" font-size="10.00">Arduino.h</text>
</a>
</g>
</g>
<!-- Node2&#45;&gt;Node3 -->
<g id="edge2" class="edge">
<title>Node2&#45;&gt;Node3</title>
<path fill="none" stroke="#63b8ff" d="M416.75,-119.17C279.83,-119.83 -50.51,-115.3 7.11,-55 40,-20.58 764.7,-12.32 944.85,-10.8"/>
<polygon fill="#63b8ff" stroke="#63b8ff" points="944.67,-14.3 954.64,-10.72 944.61,-7.3 944.67,-14.3"/>
</g>
<!-- Node4 -->
<g id="node4" class="node">
<title>Node4</title>
<g id="a_node4"><a xlink:title=" ">
<polygon fill="#e0e0e0" stroke="#999999" points="97.61,-74 16.61,-74 16.61,-55 97.61,-55 97.61,-74"/>
<text text-anchor="middle" x="57.11" y="-62" font-family="Helvetica,sans-Serif" font-size="10.00">Watchdog_t4.h</text>
</a>
</g>
</g>
<!-- Node2&#45;&gt;Node4 -->
<g id="edge3" class="edge">
<title>Node2&#45;&gt;Node4</title>
<path fill="none" stroke="#63b8ff" d="M416.62,-112.47C346.37,-104.9 223.6,-91.01 109.05,-74.37"/>
<polygon fill="#63b8ff" stroke="#63b8ff" points="109.89,-70.96 99.49,-72.97 108.88,-77.88 109.89,-70.96"/>
</g>
<!-- Node5 -->
<g id="node5" class="node">
<title>Node5</title>
<g id="a_node5"><a xlink:title=" ">
<polygon fill="#e0e0e0" stroke="#999999" points="180.61,-74 115.61,-74 115.61,-55 180.61,-55 180.61,-74"/>
<text text-anchor="middle" x="148.11" y="-62" font-family="Helvetica,sans-Serif" font-size="10.00">TeensyID.h</text>
</a>
</g>
</g>
<!-- Node2&#45;&gt;Node5 -->
<g id="edge4" class="edge">
<title>Node2&#45;&gt;Node5</title>
<path fill="none" stroke="#63b8ff" d="M416.87,-110.29C361.89,-102.24 276.22,-89.24 192.38,-74.34"/>
<polygon fill="#63b8ff" stroke="#63b8ff" points="193.05,-70.9 182.59,-72.59 191.82,-77.79 193.05,-70.9"/>
</g>
<!-- Node6 -->
<g id="node6" class="node">
<title>Node6</title>
<g id="a_node6"><a xlink:title=" ">
<polygon fill="#e0e0e0" stroke="#999999" points="283.11,-74 199.11,-74 199.11,-55 283.11,-55 283.11,-74"/>
<text text-anchor="middle" x="241.11" y="-62" font-family="Helvetica,sans-Serif" font-size="10.00">PulsePosition.h</text>
</a>
</g>
</g>
<!-- Node2&#45;&gt;Node6 -->
<g id="edge5" class="edge">
<title>Node2&#45;&gt;Node6</title>
<path fill="none" stroke="#63b8ff" d="M434.59,-109.51C395.14,-100.54 334.37,-86.71 291.48,-76.96"/>
<polygon fill="#63b8ff" stroke="#63b8ff" points="292.44,-73.59 281.92,-74.78 290.89,-80.41 292.44,-73.59"/>
</g>
<!-- Node7 -->
<g id="node7" class="node">
<title>Node7</title>
<g id="a_node7"><a xlink:title=" ">
<polygon fill="#e0e0e0" stroke="#999999" points="348.61,-74 301.61,-74 301.61,-55 348.61,-55 348.61,-74"/>
<text text-anchor="middle" x="325.11" y="-62" font-family="Helvetica,sans-Serif" font-size="10.00">RF24.h</text>
</a>
</g>
</g>
<!-- Node2&#45;&gt;Node7 -->
<g id="edge6" class="edge">
<title>Node2&#45;&gt;Node7</title>
<path fill="none" stroke="#63b8ff" d="M448.84,-109.51C424.32,-100.79 386.92,-87.49 359.66,-77.79"/>
<polygon fill="#63b8ff" stroke="#63b8ff" points="361.05,-74.57 350.46,-74.52 358.71,-81.16 361.05,-74.57"/>
</g>
<!-- Node8 -->
<g id="node8" class="node">
<title>Node8</title>
<g id="a_node8"><a xlink:title=" ">
<polygon fill="#e0e0e0" stroke="#999999" points="405.11,-74 367.11,-74 367.11,-55 405.11,-55 405.11,-74"/>
<text text-anchor="middle" x="386.11" y="-62" font-family="Helvetica,sans-Serif" font-size="10.00">SD.h</text>
</a>
</g>
</g>
<!-- Node2&#45;&gt;Node8 -->
<g id="edge7" class="edge">
<title>Node2&#45;&gt;Node8</title>
<path fill="none" stroke="#63b8ff" d="M459.18,-109.51C445.83,-101.47 426.01,-89.53 410.38,-80.11"/>
<polygon fill="#63b8ff" stroke="#63b8ff" points="412.49,-77.3 402.12,-75.14 408.88,-83.3 412.49,-77.3"/>
</g>
<!-- Node9 -->
<g id="node9" class="node">
<title>Node9</title>
<g id="a_node9"><a xlink:title=" ">
<polygon fill="#e0e0e0" stroke="#999999" points="464.61,-74 423.61,-74 423.61,-55 464.61,-55 464.61,-74"/>
<text text-anchor="middle" x="444.11" y="-62" font-family="Helvetica,sans-Serif" font-size="10.00">SPI.h</text>
</a>
</g>
</g>
<!-- Node2&#45;&gt;Node9 -->
<g id="edge8" class="edge">
<title>Node2&#45;&gt;Node9</title>
<path fill="none" stroke="#63b8ff" d="M469.16,-109.75C465.27,-102.88 459.72,-93.08 454.84,-84.45"/>
<polygon fill="#63b8ff" stroke="#63b8ff" points="457.89,-82.74 449.92,-75.76 451.8,-86.19 457.89,-82.74"/>
</g>
<!-- Node10 -->
<g id="node10" class="node">
<title>Node10</title>
<g id="a_node10"><a xlink:title=" ">
<polygon fill="#e0e0e0" stroke="#999999" points="527.11,-74 483.11,-74 483.11,-55 527.11,-55 527.11,-74"/>
<text text-anchor="middle" x="505.11" y="-62" font-family="Helvetica,sans-Serif" font-size="10.00">Wire.h</text>
</a>
</g>
</g>
<!-- Node2&#45;&gt;Node10 -->
<g id="edge9" class="edge">
<title>Node2&#45;&gt;Node10</title>
<path fill="none" stroke="#63b8ff" d="M479.23,-109.75C483.29,-102.81 489.11,-92.86 494.2,-84.16"/>
<polygon fill="#63b8ff" stroke="#63b8ff" points="497.09,-86.15 499.12,-75.75 491.05,-82.61 497.09,-86.15"/>
</g>
<!-- Node11 -->
<g id="node11" class="node">
<title>Node11</title>
<g id="a_node11"><a xlink:title=" ">
<polygon fill="#e0e0e0" stroke="#999999" points="641.11,-74 545.11,-74 545.11,-55 641.11,-55 641.11,-74"/>
<text text-anchor="middle" x="593.11" y="-62" font-family="Helvetica,sans-Serif" font-size="10.00">Adafruit_INA219.h</text>
</a>
</g>
</g>
<!-- Node2&#45;&gt;Node11 -->
<g id="edge10" class="edge">
<title>Node2&#45;&gt;Node11</title>
<path fill="none" stroke="#63b8ff" d="M494.3,-109.51C513.13,-101.12 541.48,-88.5 562.99,-78.92"/>
<polygon fill="#63b8ff" stroke="#63b8ff" points="564.13,-82.24 571.84,-74.97 561.28,-75.85 564.13,-82.24"/>
</g>
<!-- Node12 -->
<g id="node12" class="node">
<title>Node12</title>
<g id="a_node12"><a xlink:title=" ">
<polygon fill="#e0e0e0" stroke="#999999" points="737.11,-74 659.11,-74 659.11,-55 737.11,-55 737.11,-74"/>
<text text-anchor="middle" x="698.11" y="-62" font-family="Helvetica,sans-Serif" font-size="10.00">DS1307RTC.h</text>
</a>
</g>
</g>
<!-- Node2&#45;&gt;Node12 -->
<g id="edge11" class="edge">
<title>Node2&#45;&gt;Node12</title>
<path fill="none" stroke="#63b8ff" d="M512.11,-109.51C549.88,-100.57 607.96,-86.83 649.16,-77.08"/>
<polygon fill="#63b8ff" stroke="#63b8ff" points="649.9,-80.5 658.83,-74.79 648.29,-73.69 649.9,-80.5"/>
</g>
<!-- Node13 -->
<g id="node13" class="node">
<title>Node13</title>
<g id="a_node13"><a xlink:title=" ">
<polygon fill="#e0e0e0" stroke="#999999" points="846.61,-74 755.61,-74 755.61,-55 846.61,-55 846.61,-74"/>
<text text-anchor="middle" x="801.11" y="-62" font-family="Helvetica,sans-Serif" font-size="10.00">InterpolationLib.h</text>
</a>
</g>
</g>
<!-- Node2&#45;&gt;Node13 -->
<g id="edge12" class="edge">
<title>Node2&#45;&gt;Node13</title>
<path fill="none" stroke="#63b8ff" d="M529.58,-109.51C589.24,-99.84 683.63,-84.54 743.94,-74.77"/>
<polygon fill="#63b8ff" stroke="#63b8ff" points="744.35,-78.25 753.66,-73.19 743.23,-71.34 744.35,-78.25"/>
</g>
<!-- Node14 -->
<g id="node14" class="node">
<title>Node14</title>
<g id="a_node14"><a xlink:href="StructsEtc_8h.html" target="_top" xlink:title=" ">
<polygon fill="white" stroke="#666666" points="979.61,-74 864.61,-74 864.61,-55 979.61,-55 979.61,-74"/>
<text text-anchor="middle" x="922.11" y="-62" font-family="Helvetica,sans-Serif" font-size="10.00">Hardware/StructsEtc.h</text>
</a>
</g>
</g>
<!-- Node2&#45;&gt;Node14 -->
<g id="edge13" class="edge">
<title>Node2&#45;&gt;Node14</title>
<path fill="none" stroke="#63b8ff" d="M531.58,-111.97C603.93,-103.7 732.34,-88.9 853.09,-74.24"/>
<polygon fill="#63b8ff" stroke="#63b8ff" points="853.37,-77.73 862.87,-73.04 852.52,-70.78 853.37,-77.73"/>
</g>
<!-- Node15 -->
<g id="node15" class="node">
<title>Node15</title>
<g id="a_node15"><a xlink:href="Utilities_8h.html" target="_top" xlink:title=" ">
<polygon fill="white" stroke="#666666" points="1100.11,-74 998.11,-74 998.11,-55 1100.11,-55 1100.11,-74"/>
<text text-anchor="middle" x="1049.11" y="-62" font-family="Helvetica,sans-Serif" font-size="10.00">Hardware/Utilities.h</text>
</a>
</g>
</g>
<!-- Node2&#45;&gt;Node15 -->
<g id="edge15" class="edge">
<title>Node2&#45;&gt;Node15</title>
<path fill="none" stroke="#63b8ff" d="M531.37,-114.58C624.5,-107.97 814.86,-93.54 986.47,-74.24"/>
<polygon fill="#63b8ff" stroke="#63b8ff" points="986.7,-77.74 996.24,-73.13 985.91,-70.78 986.7,-77.74"/>
</g>
<!-- Node16 -->
<g id="node16" class="node">
<title>Node16</title>
<g id="a_node16"><a xlink:href="transceiver_8h.html" target="_top" xlink:title=" ">
<polygon fill="white" stroke="#666666" points="1235.61,-74 1118.61,-74 1118.61,-55 1235.61,-55 1235.61,-74"/>
<text text-anchor="middle" x="1177.11" y="-62" font-family="Helvetica,sans-Serif" font-size="10.00">Hardware/transceiver.h</text>
</a>
</g>
</g>
<!-- Node2&#45;&gt;Node16 -->
<g id="edge17" class="edge">
<title>Node2&#45;&gt;Node16</title>
<path fill="none" stroke="#63b8ff" d="M531.55,-115.52C641.15,-109.62 887.93,-95.22 1106.77,-74.17"/>
<polygon fill="#63b8ff" stroke="#63b8ff" points="1107.04,-77.66 1116.66,-73.21 1106.36,-70.7 1107.04,-77.66"/>
</g>
<!-- Node14&#45;&gt;Node3 -->
<g id="edge14" class="edge">
<title>Node14&#45;&gt;Node3</title>
<path fill="none" stroke="#63b8ff" d="M932.8,-54.51C941.81,-46.93 954.94,-35.88 965.79,-26.75"/>
<polygon fill="#63b8ff" stroke="#63b8ff" points="968.03,-29.45 973.42,-20.33 963.52,-24.09 968.03,-29.45"/>
</g>
<!-- Node15&#45;&gt;Node3 -->
<g id="edge16" class="edge">
<title>Node15&#45;&gt;Node3</title>
<path fill="none" stroke="#63b8ff" d="M1038.26,-54.51C1029.01,-46.85 1015.49,-35.66 1004.4,-26.47"/>
<polygon fill="#63b8ff" stroke="#63b8ff" points="1006.91,-24.01 996.97,-20.32 1002.44,-29.4 1006.91,-24.01"/>
</g>
<!-- Node16&#45;&gt;Node3 -->
<g id="edge18" class="edge">
<title>Node16&#45;&gt;Node3</title>
<path fill="none" stroke="#63b8ff" d="M1144.54,-54.51C1111.52,-45.4 1060.39,-31.28 1024.97,-21.5"/>
<polygon fill="#63b8ff" stroke="#63b8ff" points="1026.1,-18.18 1015.53,-18.9 1024.23,-24.93 1026.1,-18.18"/>
</g>
</g>
</svg>
