<?xml version="1.0" encoding="UTF-8" standalone="no"?>
<!DOCTYPE svg PUBLIC "-//W3C//DTD SVG 1.1//EN"
 "http://www.w3.org/Graphics/SVG/1.1/DTD/svg11.dtd">
<!-- Generated by graphviz version 7.0.5 (20221223.1930)
 -->
<!-- Title: GetBackupFilename Pages: 1 -->
<svg width="733pt" height="286pt"
 viewBox="0.00 0.00 733.00 286.00" xmlns="http://www.w3.org/2000/svg" xmlns:xlink="http://www.w3.org/1999/xlink">
<g id="graph0" class="graph" transform="scale(1 1) rotate(0) translate(4 282)">
<title>GetBackupFilename</title>
<!-- Node1 -->
<g id="node1" class="node">
<title>Node1</title>
<g id="a_node1"><a xlink:title=" ">
<polygon fill="#999999" stroke="#666666" points="725,-95 620,-95 620,-76 725,-76 725,-95"/>
<text text-anchor="middle" x="672.5" y="-83" font-family="Helvetica,sans-Serif" font-size="10.00">GetBackupFilename</text>
</a>
</g>
</g>
<!-- Node2 -->
<g id="node2" class="node">
<title>Node2</title>
<g id="a_node2"><a xlink:href="TransmitterCode_2src_2main_8cpp.html#a804fdbdd5eab4c596bbe8a23eecbe4d5" target="_top" xlink:title=" ">
<polygon fill="white" stroke="#666666" points="584,-95 483,-95 483,-76 584,-76 584,-95"/>
<text text-anchor="middle" x="533.5" y="-83" font-family="Helvetica,sans-Serif" font-size="10.00">ButtonWasPressed</text>
</a>
</g>
</g>
<!-- Node1&#45;&gt;Node2 -->
<g id="edge1" class="edge">
<title>Node1&#45;&gt;Node2</title>
<path fill="none" stroke="#63b8ff" d="M608.33,-85.5C600.2,-85.5 591.97,-85.5 584.1,-85.5"/>
<polygon fill="#63b8ff" stroke="#63b8ff" points="608.19,-89 618.19,-85.5 608.19,-82 608.19,-89"/>
</g>
<!-- Node9 -->
<g id="node9" class="node">
<title>Node9</title>
<g id="a_node9"><a xlink:href="TransmitterCode_2src_2main_8cpp.html#a9d94366336f1e5fd43edb9c24bec5821" target="_top" xlink:title=" ">
<polygon fill="white" stroke="#666666" points="98,-19 30,-19 30,0 98,0 98,-19"/>
<text text-anchor="middle" x="64" y="-7" font-family="Helvetica,sans-Serif" font-size="10.00">RenameFile</text>
</a>
</g>
</g>
<!-- Node1&#45;&gt;Node9 -->
<g id="edge16" class="edge">
<title>Node1&#45;&gt;Node9</title>
<path fill="none" stroke="#63b8ff" d="M618.69,-73.1C607.29,-70.69 595.28,-68.34 584,-66.5 401.72,-36.78 180.83,-18.26 98.25,-11.94"/>
<polygon fill="#63b8ff" stroke="#63b8ff" points="617.84,-76.5 628.35,-75.2 619.32,-69.66 617.84,-76.5"/>
</g>
<!-- Node3 -->
<g id="node3" class="node">
<title>Node3</title>
<g id="a_node3"><a xlink:href="TransmitterCode_2src_2main_8cpp.html#afb7c85cac4aa89fd998ed81c330374d2" target="_top" xlink:title=" ">
<polygon fill="white" stroke="#666666" points="447,-133 301,-133 301,-114 447,-114 447,-133"/>
<text text-anchor="middle" x="374" y="-121" font-family="Helvetica,sans-Serif" font-size="10.00">CheckForNextionButtonPress</text>
</a>
</g>
</g>
<!-- Node2&#45;&gt;Node3 -->
<g id="edge2" class="edge">
<title>Node2&#45;&gt;Node3</title>
<path fill="none" stroke="#63b8ff" d="M479.94,-98.18C459.25,-103.17 435.83,-108.82 416.38,-113.52"/>
<polygon fill="#63b8ff" stroke="#63b8ff" points="480.75,-101.59 489.65,-95.84 479.11,-94.78 480.75,-101.59"/>
</g>
<!-- Node8 -->
<g id="node8" class="node">
<title>Node8</title>
<g id="a_node8"><a xlink:href="TransmitterCode_2src_2main_8cpp.html#ab7c9edf843c732d7fe296564f39bc0dc" target="_top" xlink:title="RECEIVE A MODEL FILE.">
<polygon fill="white" stroke="#666666" points="111,-56 17,-56 17,-37 111,-37 111,-56"/>
<text text-anchor="middle" x="64" y="-44" font-family="Helvetica,sans-Serif" font-size="10.00">ReceiveModelFile</text>
</a>
</g>
</g>
<!-- Node2&#45;&gt;Node8 -->
<g id="edge15" class="edge">
<title>Node2&#45;&gt;Node8</title>
<path fill="none" stroke="#63b8ff" d="M471.51,-80.41C376.74,-72.51 196.2,-57.45 111.3,-50.36"/>
<polygon fill="#63b8ff" stroke="#63b8ff" points="471.15,-83.89 481.4,-81.24 471.73,-76.92 471.15,-83.89"/>
</g>
<!-- Node3&#45;&gt;Node1 -->
<g id="edge3" class="edge">
<title>Node3&#45;&gt;Node1</title>
<path fill="none" stroke="#63b8ff" d="M458.42,-117.58C496.79,-114.33 542.83,-109.69 584,-103.5 598.26,-101.36 613.71,-98.4 627.6,-95.49"/>
<polygon fill="#63b8ff" stroke="#63b8ff" points="458.48,-114.07 448.8,-118.38 459.06,-121.04 458.48,-114.07"/>
</g>
<!-- Node4 -->
<g id="node4" class="node">
<title>Node4</title>
<g id="a_node4"><a xlink:href="TransmitterCode_2src_2main_8cpp.html#a6506bf72e0dd9e9ce480156b47625bff" target="_top" xlink:title=" ">
<polygon fill="white" stroke="#666666" points="257.5,-130 171.5,-130 171.5,-111 257.5,-111 257.5,-130"/>
<text text-anchor="middle" x="214.5" y="-118" font-family="Helvetica,sans-Serif" font-size="10.00">GetConfirmation</text>
</a>
</g>
</g>
<!-- Node3&#45;&gt;Node4 -->
<g id="edge4" class="edge">
<title>Node3&#45;&gt;Node4</title>
<path fill="none" stroke="#63b8ff" d="M289.3,-121.91C278.36,-121.7 267.55,-121.49 257.72,-121.3"/>
<polygon fill="#63b8ff" stroke="#63b8ff" points="289.13,-125.4 299.19,-122.09 289.26,-118.4 289.13,-125.4"/>
</g>
<!-- Node12 -->
<g id="node12" class="node">
<title>Node12</title>
<g id="a_node12"><a xlink:href="TransmitterCode_2src_2main_8cpp.html#a558ea014e230b7caa54ce5a37ad29b22" target="_top" xlink:title=" ">
<polygon fill="white" stroke="#666666" points="265,-222 164,-222 164,-203 265,-203 265,-222"/>
<text text-anchor="middle" x="214.5" y="-210" font-family="Helvetica,sans-Serif" font-size="10.00">ManageTransmitter</text>
</a>
</g>
</g>
<!-- Node3&#45;&gt;Node12 -->
<g id="edge13" class="edge">
<title>Node3&#45;&gt;Node12</title>
<path fill="none" stroke="#63b8ff" d="M345.83,-138.85C313.48,-157.13 260.4,-187.13 233.04,-202.59"/>
<polygon fill="#63b8ff" stroke="#63b8ff" points="347.24,-142.08 354.23,-134.11 343.8,-135.98 347.24,-142.08"/>
</g>
<!-- Node4&#45;&gt;Node2 -->
<g id="edge5" class="edge">
<title>Node4&#45;&gt;Node2</title>
<path fill="none" stroke="#63b8ff" d="M269.17,-109.58C279.69,-107.69 290.67,-105.89 301,-104.5 363.35,-96.13 435.68,-90.91 482.67,-88.1"/>
<polygon fill="#63b8ff" stroke="#63b8ff" points="268.66,-106.12 259.47,-111.38 269.94,-113 268.66,-106.12"/>
</g>
<!-- Node5 -->
<g id="node5" class="node">
<title>Node5</title>
<g id="a_node5"><a xlink:href="TransmitterCode_2src_2main_8cpp.html#a16c65917a148c7f6c17babf11e977b69" target="_top" xlink:title=" ">
<polygon fill="white" stroke="#666666" points="105,-130 23,-130 23,-111 105,-111 105,-130"/>
<text text-anchor="middle" x="64" y="-118" font-family="Helvetica,sans-Serif" font-size="10.00">EndBuddyView</text>
</a>
</g>
</g>
<!-- Node4&#45;&gt;Node5 -->
<g id="edge6" class="edge">
<title>Node4&#45;&gt;Node5</title>
<path fill="none" stroke="#63b8ff" d="M159.85,-120.5C141.92,-120.5 122.23,-120.5 105.47,-120.5"/>
<polygon fill="#63b8ff" stroke="#63b8ff" points="159.83,-124 169.83,-120.5 159.83,-117 159.83,-124"/>
</g>
<!-- Node6 -->
<g id="node6" class="node">
<title>Node6</title>
<g id="a_node6"><a xlink:href="TransmitterCode_2src_2main_8cpp.html#a339dccdc324b75d00fd035fb3fb129fd" target="_top" xlink:title=" ">
<polygon fill="white" stroke="#666666" points="105.5,-93 22.5,-93 22.5,-74 105.5,-74 105.5,-93"/>
<text text-anchor="middle" x="64" y="-81" font-family="Helvetica,sans-Serif" font-size="10.00">ModelUnmatch</text>
</a>
</g>
</g>
<!-- Node4&#45;&gt;Node6 -->
<g id="edge7" class="edge">
<title>Node4&#45;&gt;Node6</title>
<path fill="none" stroke="#63b8ff" d="M162.6,-107.82C143.74,-103.12 122.65,-97.86 104.91,-93.44"/>
<polygon fill="#63b8ff" stroke="#63b8ff" points="161.69,-111.2 172.24,-110.22 163.38,-104.4 161.69,-111.2"/>
</g>
<!-- Node7 -->
<g id="node7" class="node">
<title>Node7</title>
<g id="a_node7"><a xlink:href="TransmitterCode_2src_2main_8cpp.html#ae9f91b9da28f2e1e2fb126961f03c31c" target="_top" xlink:title=" ">
<polygon fill="white" stroke="#666666" points="104.5,-241 23.5,-241 23.5,-222 104.5,-222 104.5,-241"/>
<text text-anchor="middle" x="64" y="-229" font-family="Helvetica,sans-Serif" font-size="10.00">ModelViewEnd</text>
</a>
</g>
</g>
<!-- Node4&#45;&gt;Node7 -->
<g id="edge8" class="edge">
<title>Node4&#45;&gt;Node7</title>
<path fill="none" stroke="#63b8ff" d="M200.91,-139.54C185.97,-160.66 159.12,-194.3 128,-213.5 120.93,-217.86 112.77,-221.2 104.72,-223.74"/>
<polygon fill="#63b8ff" stroke="#63b8ff" points="203.63,-141.76 206.4,-131.54 197.86,-137.8 203.63,-141.76"/>
</g>
<!-- Node4&#45;&gt;Node8 -->
<g id="edge9" class="edge">
<title>Node4&#45;&gt;Node8</title>
<path fill="none" stroke="#63b8ff" d="M192.28,-103.98C175.59,-91.66 151.34,-75.18 128,-64.5 121.28,-61.42 113.91,-58.75 106.65,-56.47"/>
<polygon fill="#63b8ff" stroke="#63b8ff" points="189.87,-106.55 199.96,-109.77 194.08,-100.96 189.87,-106.55"/>
</g>
<!-- Node4&#45;&gt;Node9 -->
<g id="edge10" class="edge">
<title>Node4&#45;&gt;Node9</title>
<path fill="none" stroke="#63b8ff" d="M200.91,-101.46C185.97,-80.34 159.12,-46.7 128,-27.5 119.09,-22 108.45,-18.13 98.47,-15.43"/>
<polygon fill="#63b8ff" stroke="#63b8ff" points="197.86,-103.2 206.4,-109.46 203.63,-99.24 197.86,-103.2"/>
</g>
<!-- Node10 -->
<g id="node10" class="node">
<title>Node10</title>
<g id="a_node10"><a xlink:href="TransmitterCode_2src_2main_8cpp.html#a5c7f22bae35d5d6df9d54fe79dbb8401" target="_top" xlink:title=" ">
<polygon fill="white" stroke="#666666" points="128,-204 0,-204 0,-185 128,-185 128,-204"/>
<text text-anchor="middle" x="64" y="-192" font-family="Helvetica,sans-Serif" font-size="10.00">ResetTransmitterSettings</text>
</a>
</g>
</g>
<!-- Node4&#45;&gt;Node10 -->
<g id="edge11" class="edge">
<title>Node4&#45;&gt;Node10</title>
<path fill="none" stroke="#63b8ff" d="M192.28,-137.02C175.59,-149.34 151.34,-165.82 128,-176.5 121.28,-179.58 113.91,-182.25 106.65,-184.53"/>
<polygon fill="#63b8ff" stroke="#63b8ff" points="194.08,-140.04 199.96,-131.23 189.87,-134.45 194.08,-140.04"/>
</g>
<!-- Node11 -->
<g id="node11" class="node">
<title>Node11</title>
<g id="a_node11"><a xlink:href="TransmitterCode_2src_2main_8cpp.html#a3c55ef7c23759a89a86f6519569c4f7a" target="_top" xlink:title=" ">
<polygon fill="white" stroke="#666666" points="113.5,-167 14.5,-167 14.5,-148 113.5,-148 113.5,-167"/>
<text text-anchor="middle" x="64" y="-155" font-family="Helvetica,sans-Serif" font-size="10.00">TXModuleViewEnd</text>
</a>
</g>
</g>
<!-- Node4&#45;&gt;Node11 -->
<g id="edge12" class="edge">
<title>Node4&#45;&gt;Node11</title>
<path fill="none" stroke="#63b8ff" d="M162.6,-133.18C143.74,-137.88 122.65,-143.14 104.91,-147.56"/>
<polygon fill="#63b8ff" stroke="#63b8ff" points="163.38,-136.6 172.24,-130.78 161.69,-129.8 163.38,-136.6"/>
</g>
<!-- Node13 -->
<g id="node13" class="node">
<title>Node13</title>
<g id="a_node13"><a xlink:href="TransmitterCode_2src_2main_8cpp.html#ad3cb30894c94eb016e98bdcaa899ac86" target="_top" xlink:title=" ">
<polygon fill="white" stroke="#666666" points="81.5,-278 46.5,-278 46.5,-259 81.5,-259 81.5,-278"/>
<text text-anchor="middle" x="64" y="-266" font-family="Helvetica,sans-Serif" font-size="10.00">loop</text>
</a>
</g>
</g>
<!-- Node12&#45;&gt;Node13 -->
<g id="edge14" class="edge">
<title>Node12&#45;&gt;Node13</title>
<path fill="none" stroke="#63b8ff" d="M183.47,-227.08C167.27,-234.64 146.79,-243.68 128,-250.5 112.6,-256.09 94.59,-261.09 81.78,-264.39"/>
<polygon fill="#63b8ff" stroke="#63b8ff" points="184.53,-230.46 192.07,-223.02 181.54,-224.13 184.53,-230.46"/>
</g>
</g>
</svg>
