<?xml version="1.0" encoding="UTF-8" standalone="no"?>
<!DOCTYPE svg PUBLIC "-//W3C//DTD SVG 1.1//EN"
 "http://www.w3.org/Graphics/SVG/1.1/DTD/svg11.dtd">
<!-- Generated by graphviz version 7.0.5 (20221223.1930)
 -->
<!-- Title: loop Pages: 1 -->
<svg width="739pt" height="1261pt"
 viewBox="0.00 0.00 739.00 1261.00" xmlns="http://www.w3.org/2000/svg" xmlns:xlink="http://www.w3.org/1999/xlink">
<g id="graph0" class="graph" transform="scale(1 1) rotate(0) translate(4 1257)">
<title>loop</title>
<!-- Node1 -->
<g id="node1" class="node">
<title>Node1</title>
<g id="a_node1"><a xlink:title=" ">
<polygon fill="#999999" stroke="#666666" points="35,-860 0,-860 0,-841 35,-841 35,-860"/>
<text text-anchor="middle" x="17.5" y="-848" font-family="Helvetica,sans-Serif" font-size="10.00">loop</text>
</a>
</g>
</g>
<!-- Node2 -->
<g id="node2" class="node">
<title>Node2</title>
<g id="a_node2"><a xlink:href="RadioFunctions_8cpp.html#a9a3e35cbf8abeae1ebdb4af8dff3571a" target="_top" xlink:title=" ">
<polygon fill="white" stroke="#666666" points="184,-1144 102,-1144 102,-1125 184,-1125 184,-1144"/>
<text text-anchor="middle" x="143" y="-1132" font-family="Helvetica,sans-Serif" font-size="10.00">BufferNewPipe</text>
</a>
</g>
</g>
<!-- Node1&#45;&gt;Node2 -->
<g id="edge1" class="edge">
<title>Node1&#45;&gt;Node2</title>
<path fill="none" stroke="#63b8ff" d="M19.07,-860.43C21.8,-904.06 34.81,-1078.32 71,-1116.5 76.47,-1122.27 83.5,-1126.3 91.01,-1129.09"/>
<polygon fill="#63b8ff" stroke="#63b8ff" points="89.79,-1132.38 100.38,-1131.83 91.76,-1125.66 89.79,-1132.38"/>
</g>
<!-- Node3 -->
<g id="node3" class="node">
<title>Node3</title>
<g id="a_node3"><a xlink:href="TransmitterCode_2src_2main_8cpp.html#ae1b8cef371d26fca2b4f5a101be7a8ba" target="_top" xlink:title=" ">
<polygon fill="white" stroke="#666666" points="184.5,-1107 101.5,-1107 101.5,-1088 184.5,-1088 184.5,-1107"/>
<text text-anchor="middle" x="143" y="-1095" font-family="Helvetica,sans-Serif" font-size="10.00">CalibrateSticks</text>
</a>
</g>
</g>
<!-- Node1&#45;&gt;Node3 -->
<g id="edge2" class="edge">
<title>Node1&#45;&gt;Node3</title>
<path fill="none" stroke="#63b8ff" d="M19.55,-860.3C23.87,-899.06 41.5,-1041.06 71,-1073.5 76.36,-1079.39 83.21,-1083.83 90.53,-1087.19"/>
<polygon fill="#63b8ff" stroke="#63b8ff" points="89.09,-1090.38 99.68,-1090.7 91.6,-1083.85 89.09,-1090.38"/>
</g>
<!-- Node4 -->
<g id="node4" class="node">
<title>Node4</title>
<g id="a_node4"><a xlink:href="TransmitterCode_2src_2main_8cpp.html#a26ae4f6ca14f760bd5eb6e7588fe7c81" target="_top" xlink:title="GET NEW SERVO POSITIONS.">
<polygon fill="white" stroke="#666666" points="383,-1106 265,-1106 265,-1087 383,-1087 383,-1106"/>
<text text-anchor="middle" x="324" y="-1094" font-family="Helvetica,sans-Serif" font-size="10.00">GetNewChannelValues</text>
</a>
</g>
</g>
<!-- Node1&#45;&gt;Node4 -->
<g id="edge22" class="edge">
<title>Node1&#45;&gt;Node4</title>
<path fill="none" stroke="#63b8ff" d="M17.99,-860.09C16.89,-891.18 17.91,-990.05 71,-1040.5 84.3,-1053.14 183.68,-1072.52 253.58,-1084.85"/>
<polygon fill="#63b8ff" stroke="#63b8ff" points="252.59,-1088.23 263.04,-1086.5 253.79,-1081.33 252.59,-1088.23"/>
</g>
<!-- Node7 -->
<g id="node7" class="node">
<title>Node7</title>
<g id="a_node7"><a xlink:href="TransmitterCode_2src_2main_8cpp.html#a0d8d8a0d67cb9b04481f1692abe75368" target="_top" xlink:title=" ">
<polygon fill="white" stroke="#666666" points="666,-1216 587,-1216 587,-1197 666,-1197 666,-1216"/>
<text text-anchor="middle" x="626.5" y="-1204" font-family="Helvetica,sans-Serif" font-size="10.00">IntoHigherRes</text>
</a>
</g>
</g>
<!-- Node1&#45;&gt;Node7 -->
<g id="edge26" class="edge">
<title>Node1&#45;&gt;Node7</title>
<path fill="none" stroke="#63b8ff" d="M22.44,-860.47C29.53,-876.99 46.03,-909.89 71,-926.5 139.07,-971.8 170.4,-950.77 251,-964.5 317.27,-975.79 498.48,-961.53 551,-1003.5 608.29,-1049.28 621.53,-1143.38 624.58,-1185.41"/>
<polygon fill="#63b8ff" stroke="#63b8ff" points="621.09,-1185.6 625.16,-1195.38 628.08,-1185.19 621.09,-1185.6"/>
</g>
<!-- Node15 -->
<g id="node13" class="node">
<title>Node15</title>
<g id="a_node13"><a xlink:href="TransmitterCode_2src_2main_8cpp.html#a0e7ca9043d8fa769e8a9290df885e594" target="_top" xlink:title="Get centre as 90 degrees.">
<polygon fill="white" stroke="#666666" points="186,-1031 100,-1031 100,-1012 186,-1012 186,-1031"/>
<text text-anchor="middle" x="143" y="-1019" font-family="Helvetica,sans-Serif" font-size="10.00">ChannelCentres</text>
</a>
</g>
</g>
<!-- Node1&#45;&gt;Node15 -->
<g id="edge13" class="edge">
<title>Node1&#45;&gt;Node15</title>
<path fill="none" stroke="#63b8ff" d="M19.14,-860.27C21.36,-886.33 31,-958.17 71,-997.5 76.3,-1002.71 82.77,-1006.79 89.62,-1009.98"/>
<polygon fill="#63b8ff" stroke="#63b8ff" points="87.85,-1013.05 98.44,-1013.5 90.44,-1006.54 87.85,-1013.05"/>
</g>
<!-- Node18 -->
<g id="node15" class="node">
<title>Node18</title>
<g id="a_node15"><a xlink:href="RadioFunctions_8cpp.html#a1ddd5e8d5bd649dd98ce3710fbff651b" target="_top" xlink:title=" ">
<polygon fill="white" stroke="#666666" points="173.5,-542 112.5,-542 112.5,-523 173.5,-523 173.5,-542"/>
<text text-anchor="middle" x="143" y="-530" font-family="Helvetica,sans-Serif" font-size="10.00">Compress</text>
</a>
</g>
</g>
<!-- Node1&#45;&gt;Node18 -->
<g id="edge17" class="edge">
<title>Node1&#45;&gt;Node18</title>
<path fill="none" stroke="#63b8ff" d="M18.85,-840.64C20.7,-793.94 30.86,-595.32 71,-551.5 78.82,-542.96 90.02,-538.09 101.22,-535.36"/>
<polygon fill="#63b8ff" stroke="#63b8ff" points="101.62,-538.84 110.8,-533.56 100.33,-531.96 101.62,-538.84"/>
</g>
<!-- Node19 -->
<g id="node16" class="node">
<title>Node19</title>
<g id="a_node16"><a xlink:href="RadioFunctions_8cpp.html#a78f22801971c106db61d728dd345e28e" target="_top" xlink:title=" ">
<polygon fill="white" stroke="#666666" points="182,-297 104,-297 104,-278 182,-278 182,-297"/>
<text text-anchor="middle" x="143" y="-285" font-family="Helvetica,sans-Serif" font-size="10.00">ExecuteMacro</text>
</a>
</g>
</g>
<!-- Node1&#45;&gt;Node19 -->
<g id="edge18" class="edge">
<title>Node1&#45;&gt;Node19</title>
<path fill="none" stroke="#63b8ff" d="M19.51,-840.5C23.77,-799.65 41.37,-641.57 71,-514.5 89.06,-437.04 120.14,-347.64 134.42,-308.11"/>
<polygon fill="#63b8ff" stroke="#63b8ff" points="137.7,-309.33 137.84,-298.73 131.12,-306.93 137.7,-309.33"/>
</g>
<!-- Node23 -->
<g id="node20" class="node">
<title>Node23</title>
<g id="a_node20"><a xlink:href="TransmitterCode_2src_2main_8cpp.html#a9c9e7f489bda19dbb591d5cdac3fa45b" target="_top" xlink:title=" ">
<polygon fill="white" stroke="#666666" points="215,-579 71,-579 71,-560 215,-560 215,-579"/>
<text text-anchor="middle" x="143" y="-567" font-family="Helvetica,sans-Serif" font-size="10.00">GetSlaveChannelValuesPPM</text>
</a>
</g>
</g>
<!-- Node1&#45;&gt;Node23 -->
<g id="edge23" class="edge">
<title>Node1&#45;&gt;Node23</title>
<path fill="none" stroke="#63b8ff" d="M19.11,-840.73C21.98,-797.8 35.53,-626.31 71,-588.5 71.85,-587.59 72.74,-586.73 73.66,-585.9"/>
<polygon fill="#63b8ff" stroke="#63b8ff" points="75.38,-588.98 81.54,-580.36 71.35,-583.25 75.38,-588.98"/>
</g>
<!-- Node124 -->
<g id="node23" class="node">
<title>Node124</title>
<g id="a_node23"><a xlink:href="TransmitterCode_2src_2main_8cpp.html#a558ea014e230b7caa54ce5a37ad29b22" target="_top" xlink:title=" ">
<polygon fill="white" stroke="#666666" points="193.5,-616 92.5,-616 92.5,-597 193.5,-597 193.5,-616"/>
<text text-anchor="middle" x="143" y="-604" font-family="Helvetica,sans-Serif" font-size="10.00">ManageTransmitter</text>
</a>
</g>
</g>
<!-- Node1&#45;&gt;Node124 -->
<g id="edge27" class="edge">
<title>Node1&#45;&gt;Node124</title>
<path fill="none" stroke="#63b8ff" d="M23.49,-840.63C41.96,-804.16 106.58,-676.47 131.81,-626.64"/>
<polygon fill="#63b8ff" stroke="#63b8ff" points="134.87,-628.34 136.26,-617.84 128.62,-625.18 134.87,-628.34"/>
</g>
<!-- Node239 -->
<g id="node36" class="node">
<title>Node239</title>
<g id="a_node36"><a xlink:href="RadioFunctions_8cpp.html#a3856ba0adae43d089f08c7b7f653b306" target="_top" xlink:title=" ">
<polygon fill="white" stroke="#666666" points="188.5,-917 97.5,-917 97.5,-898 188.5,-898 188.5,-917"/>
<text text-anchor="middle" x="143" y="-905" font-family="Helvetica,sans-Serif" font-size="10.00">ScanAllChannels</text>
</a>
</g>
</g>
<!-- Node1&#45;&gt;Node239 -->
<g id="edge50" class="edge">
<title>Node1&#45;&gt;Node239</title>
<path fill="none" stroke="#63b8ff" d="M35.41,-858.31C54.66,-867.19 86.52,-881.89 110.41,-892.92"/>
<polygon fill="#63b8ff" stroke="#63b8ff" points="108.82,-896.04 119.37,-897.05 111.76,-889.69 108.82,-896.04"/>
</g>
<!-- Node30 -->
<g id="node38" class="node">
<title>Node30</title>
<g id="a_node38"><a xlink:href="RadioFunctions_8cpp.html#a049bfb836e7aa4a3a48a1a4bd225fafc" target="_top" xlink:title=" ">
<polygon fill="white" stroke="#666666" points="172.5,-149 113.5,-149 113.5,-130 172.5,-130 172.5,-149"/>
<text text-anchor="middle" x="143" y="-137" font-family="Helvetica,sans-Serif" font-size="10.00">SendData</text>
</a>
</g>
</g>
<!-- Node1&#45;&gt;Node30 -->
<g id="edge53" class="edge">
<title>Node1&#45;&gt;Node30</title>
<path fill="none" stroke="#63b8ff" d="M18.83,-840.88C21.21,-774.42 36.55,-382.88 71,-269.5 83.89,-227.09 111.61,-182.85 128.35,-158.48"/>
<polygon fill="#63b8ff" stroke="#63b8ff" points="131.03,-160.75 133.9,-150.55 125.3,-156.73 131.03,-160.75"/>
</g>
<!-- Node240 -->
<g id="node44" class="node">
<title>Node240</title>
<g id="a_node44"><a xlink:href="TransmitterCode_2src_2main_8cpp.html#aa13f35720398e2d1a7467e37b634b364" target="_top" xlink:title=" ">
<polygon fill="white" stroke="#666666" points="173.5,-57 112.5,-57 112.5,-38 173.5,-38 173.5,-57"/>
<text text-anchor="middle" x="143" y="-45" font-family="Helvetica,sans-Serif" font-size="10.00">SendPPM</text>
</a>
</g>
</g>
<!-- Node1&#45;&gt;Node240 -->
<g id="edge59" class="edge">
<title>Node1&#45;&gt;Node240</title>
<path fill="none" stroke="#63b8ff" d="M18.8,-840.71C21.39,-758.89 40.4,-190.35 71,-121.5 81.34,-98.24 102.27,-77.89 118.74,-64.44"/>
<polygon fill="#63b8ff" stroke="#63b8ff" points="120.89,-67.2 126.61,-58.29 116.58,-61.69 120.89,-67.2"/>
</g>
<!-- Node149 -->
<g id="node46" class="node">
<title>Node149</title>
<g id="a_node46"><a xlink:href="TransmitterCode_2src_2main_8cpp.html#ad770ee51a34d8c5026e65136884c16bf" target="_top" xlink:title=" ">
<polygon fill="white" stroke="#666666" points="366,-860 282,-860 282,-841 366,-841 366,-860"/>
<text text-anchor="middle" x="324" y="-848" font-family="Helvetica,sans-Serif" font-size="10.00">ShowServoPos</text>
</a>
</g>
</g>
<!-- Node1&#45;&gt;Node149 -->
<g id="edge61" class="edge">
<title>Node1&#45;&gt;Node149</title>
<path fill="none" stroke="#63b8ff" d="M35.3,-850.5C79.48,-850.5 200.26,-850.5 270.49,-850.5"/>
<polygon fill="#63b8ff" stroke="#63b8ff" points="270.21,-854 280.21,-850.5 270.21,-847 270.21,-854"/>
</g>
<!-- Node3&#45;&gt;Node4 -->
<g id="edge3" class="edge">
<title>Node3&#45;&gt;Node4</title>
<path fill="none" stroke="#63b8ff" d="M184.62,-1097.27C204.92,-1097.16 230.06,-1097.02 253.32,-1096.89"/>
<polygon fill="#63b8ff" stroke="#63b8ff" points="253.06,-1100.39 263.04,-1096.83 253.02,-1093.39 253.06,-1100.39"/>
</g>
<!-- Node5 -->
<g id="node5" class="node">
<title>Node5</title>
<g id="a_node5"><a xlink:href="TransmitterCode_2src_2main_8cpp.html#ac5728db610c441820a6f47295967cbab" target="_top" xlink:title=" ">
<polygon fill="white" stroke="#666666" points="532,-1031 452,-1031 452,-1012 532,-1012 532,-1031"/>
<text text-anchor="middle" x="492" y="-1019" font-family="Helvetica,sans-Serif" font-size="10.00">AnalogueReed</text>
</a>
</g>
</g>
<!-- Node4&#45;&gt;Node5 -->
<g id="edge4" class="edge">
<title>Node4&#45;&gt;Node5</title>
<path fill="none" stroke="#63b8ff" d="M379.03,-1086.6C385.3,-1084.42 391.44,-1081.75 397,-1078.5 417.09,-1066.77 413.34,-1052.95 433,-1040.5 435.6,-1038.86 438.35,-1037.34 441.19,-1035.95"/>
<polygon fill="#63b8ff" stroke="#63b8ff" points="442.54,-1039.18 450.34,-1032.01 439.77,-1032.75 442.54,-1039.18"/>
</g>
<!-- Node6 -->
<g id="node6" class="node">
<title>Node6</title>
<g id="a_node6"><a xlink:href="TransmitterCode_2src_2main_8cpp.html#ac77bd940a0faad7b997c9ddf40a7acc6" target="_top" xlink:title=" ">
<polygon fill="white" stroke="#666666" points="519,-1253 465,-1253 465,-1234 519,-1234 519,-1253"/>
<text text-anchor="middle" x="492" y="-1241" font-family="Helvetica,sans-Serif" font-size="10.00">DoMixes</text>
</a>
</g>
</g>
<!-- Node4&#45;&gt;Node6 -->
<g id="edge5" class="edge">
<title>Node4&#45;&gt;Node6</title>
<path fill="none" stroke="#63b8ff" d="M330.42,-1106.22C344.27,-1130.17 383.4,-1192.48 433,-1225.5 439.29,-1229.69 446.61,-1232.95 453.89,-1235.46"/>
<polygon fill="#63b8ff" stroke="#63b8ff" points="452.73,-1238.77 463.31,-1238.3 454.75,-1232.06 452.73,-1238.77"/>
</g>
<!-- Node8 -->
<g id="node8" class="node">
<title>Node8</title>
<g id="a_node8"><a xlink:href="TransmitterCode_2src_2main_8cpp.html#acbd7adcd2b0e2095a89b4a98042b526e" target="_top" xlink:title=" ">
<polygon fill="white" stroke="#666666" points="538,-1179 446,-1179 446,-1160 538,-1160 538,-1179"/>
<text text-anchor="middle" x="492" y="-1167" font-family="Helvetica,sans-Serif" font-size="10.00">DoReverseSense</text>
</a>
</g>
</g>
<!-- Node4&#45;&gt;Node8 -->
<g id="edge7" class="edge">
<title>Node4&#45;&gt;Node8</title>
<path fill="none" stroke="#63b8ff" d="M342.16,-1106.39C363.11,-1118.2 399.86,-1138.03 433,-1151.5 436.84,-1153.06 440.87,-1154.57 444.94,-1156"/>
<polygon fill="#63b8ff" stroke="#63b8ff" points="443.67,-1159.26 454.26,-1159.12 445.89,-1152.62 443.67,-1159.26"/>
</g>
<!-- Node9 -->
<g id="node9" class="node">
<title>Node9</title>
<g id="a_node9"><a xlink:href="TransmitterCode_2src_2main_8cpp.html#a7a6560a77b8c4dd3925760790beafbd5" target="_top" xlink:title=" ">
<polygon fill="white" stroke="#666666" points="532.5,-1142 451.5,-1142 451.5,-1123 532.5,-1123 532.5,-1142"/>
<text text-anchor="middle" x="492" y="-1130" font-family="Helvetica,sans-Serif" font-size="10.00">DoSlowServos</text>
</a>
</g>
</g>
<!-- Node4&#45;&gt;Node9 -->
<g id="edge8" class="edge">
<title>Node4&#45;&gt;Node9</title>
<path fill="none" stroke="#63b8ff" d="M370.8,-1106.43C392.29,-1111.09 417.98,-1116.66 440.08,-1121.46"/>
<polygon fill="#63b8ff" stroke="#63b8ff" points="439.28,-1124.86 449.79,-1123.56 440.76,-1118.02 439.28,-1124.86"/>
</g>
<!-- Node10 -->
<g id="node10" class="node">
<title>Node10</title>
<g id="a_node10"><a xlink:href="TransmitterCode_2src_2main_8cpp.html#af9c038b48102eca9032f10fefd9d5736" target="_top" xlink:title=" ">
<polygon fill="#fff0f0" stroke="red" points="531,-1105 453,-1105 453,-1086 531,-1086 531,-1105"/>
<text text-anchor="middle" x="492" y="-1093" font-family="Helvetica,sans-Serif" font-size="10.00">GetCurveDots</text>
</a>
</g>
</g>
<!-- Node4&#45;&gt;Node10 -->
<g id="edge9" class="edge">
<title>Node4&#45;&gt;Node10</title>
<path fill="none" stroke="#63b8ff" d="M383.06,-1096.15C402.09,-1096.04 423.06,-1095.91 441.4,-1095.8"/>
<polygon fill="#63b8ff" stroke="#63b8ff" points="441.25,-1099.3 451.23,-1095.74 441.21,-1092.3 441.25,-1099.3"/>
</g>
<!-- Node13 -->
<g id="node11" class="node">
<title>Node13</title>
<g id="a_node11"><a xlink:href="TransmitterCode_2src_2main_8cpp.html#a248db02e07497e7a4149db17b4e5c2f3" target="_top" xlink:title=" ">
<polygon fill="white" stroke="#666666" points="530.5,-1216 453.5,-1216 453.5,-1197 530.5,-1197 530.5,-1216"/>
<text text-anchor="middle" x="492" y="-1204" font-family="Helvetica,sans-Serif" font-size="10.00">GetStickInput</text>
</a>
</g>
</g>
<!-- Node4&#45;&gt;Node13 -->
<g id="edge10" class="edge">
<title>Node4&#45;&gt;Node13</title>
<path fill="none" stroke="#63b8ff" d="M333.84,-1106.31C351.12,-1124.93 391.36,-1165.57 433,-1188.5 436.04,-1190.17 439.26,-1191.72 442.56,-1193.13"/>
<polygon fill="#63b8ff" stroke="#63b8ff" points="441.26,-1196.38 451.85,-1196.69 443.76,-1189.84 441.26,-1196.38"/>
</g>
<!-- Node14 -->
<g id="node12" class="node">
<title>Node14</title>
<g id="a_node12"><a xlink:href="TransmitterCode_2src_2main_8cpp.html#aacd8b022714bb89847239dd878ad9509" target="_top" xlink:title=" ">
<polygon fill="white" stroke="#666666" points="535,-1068 449,-1068 449,-1049 535,-1049 535,-1068"/>
<text text-anchor="middle" x="492" y="-1056" font-family="Helvetica,sans-Serif" font-size="10.00">GetTrimAmount</text>
</a>
</g>
</g>
<!-- Node4&#45;&gt;Node14 -->
<g id="edge12" class="edge">
<title>Node4&#45;&gt;Node14</title>
<path fill="none" stroke="#63b8ff" d="M368.61,-1086.52C389.73,-1081.68 415.28,-1075.83 437.56,-1070.73"/>
<polygon fill="#63b8ff" stroke="#63b8ff" points="438.09,-1074.2 447.06,-1068.56 436.53,-1067.38 438.09,-1074.2"/>
</g>
<!-- Node6&#45;&gt;Node7 -->
<g id="edge6" class="edge">
<title>Node6&#45;&gt;Node7</title>
<path fill="none" stroke="#63b8ff" d="M519.49,-1236.1C536.49,-1231.35 559.03,-1225.06 578.96,-1219.5"/>
<polygon fill="#63b8ff" stroke="#63b8ff" points="579.86,-1222.88 588.55,-1216.82 577.98,-1216.14 579.86,-1222.88"/>
</g>
<!-- Node13&#45;&gt;Node7 -->
<g id="edge11" class="edge">
<title>Node13&#45;&gt;Node7</title>
<path fill="none" stroke="#63b8ff" d="M530.97,-1206.5C544.73,-1206.5 560.49,-1206.5 575.15,-1206.5"/>
<polygon fill="#63b8ff" stroke="#63b8ff" points="575.09,-1210 585.09,-1206.5 575.09,-1203 575.09,-1210"/>
</g>
<!-- Node15&#45;&gt;Node4 -->
<g id="edge16" class="edge">
<title>Node15&#45;&gt;Node4</title>
<path fill="none" stroke="#63b8ff" d="M182.86,-1031.41C193.67,-1035.02 205.14,-1039.67 215,-1045.5 233.68,-1056.55 231.88,-1068.22 251,-1078.5 253.82,-1080.02 256.77,-1081.41 259.8,-1082.68"/>
<polygon fill="#63b8ff" stroke="#63b8ff" points="258.31,-1085.87 268.91,-1086.07 260.75,-1079.31 258.31,-1085.87"/>
</g>
<!-- Node15&#45;&gt;Node5 -->
<g id="edge14" class="edge">
<title>Node15&#45;&gt;Node5</title>
<path fill="none" stroke="#63b8ff" d="M186.2,-1021.5C250.23,-1021.5 371.71,-1021.5 440.39,-1021.5"/>
<polygon fill="#63b8ff" stroke="#63b8ff" points="440.24,-1025 450.24,-1021.5 440.24,-1018 440.24,-1025"/>
</g>
<!-- Node16 -->
<g id="node14" class="node">
<title>Node16</title>
<g id="a_node14"><a xlink:href="TransmitterCode_2src_2main_8cpp.html#a128fe47088693b102796cd67a175ea08" target="_top" xlink:title=" ">
<polygon fill="#fff0f0" stroke="red" points="382.5,-1069 265.5,-1069 265.5,-1050 382.5,-1050 382.5,-1069"/>
<text text-anchor="middle" x="324" y="-1057" font-family="Helvetica,sans-Serif" font-size="10.00">CalibrateEdgeSwitches</text>
</a>
</g>
</g>
<!-- Node15&#45;&gt;Node16 -->
<g id="edge15" class="edge">
<title>Node15&#45;&gt;Node16</title>
<path fill="none" stroke="#63b8ff" d="M186.42,-1030.51C209.93,-1035.5 239.49,-1041.77 265.09,-1047.21"/>
<polygon fill="#63b8ff" stroke="#63b8ff" points="264.18,-1050.59 274.68,-1049.24 265.63,-1043.74 264.18,-1050.59"/>
</g>
<!-- Node20 -->
<g id="node17" class="node">
<title>Node20</title>
<g id="a_node17"><a xlink:href="RadioFunctions_8cpp.html#a91fb686ba2d3111821721ab33b442918" target="_top" xlink:title=" ">
<polygon fill="white" stroke="#666666" points="354.5,-315 293.5,-315 293.5,-296 354.5,-296 354.5,-315"/>
<text text-anchor="middle" x="324" y="-303" font-family="Helvetica,sans-Serif" font-size="10.00">RunMacro</text>
</a>
</g>
</g>
<!-- Node19&#45;&gt;Node20 -->
<g id="edge19" class="edge">
<title>Node19&#45;&gt;Node20</title>
<path fill="none" stroke="#63b8ff" d="M182.4,-291.36C211.69,-294.31 251.97,-298.36 281.91,-301.37"/>
<polygon fill="#63b8ff" stroke="#63b8ff" points="281.43,-304.84 291.73,-302.36 282.13,-297.87 281.43,-304.84"/>
</g>
<!-- Node21 -->
<g id="node18" class="node">
<title>Node21</title>
<g id="a_node18"><a xlink:href="RadioFunctions_8cpp.html#aff7f985af10a021196ae5c9bf188c445" target="_top" xlink:title=" ">
<polygon fill="white" stroke="#666666" points="356.5,-278 291.5,-278 291.5,-259 356.5,-259 356.5,-278"/>
<text text-anchor="middle" x="324" y="-266" font-family="Helvetica,sans-Serif" font-size="10.00">StartMacro</text>
</a>
</g>
</g>
<!-- Node19&#45;&gt;Node21 -->
<g id="edge20" class="edge">
<title>Node19&#45;&gt;Node21</title>
<path fill="none" stroke="#63b8ff" d="M182.4,-283.42C211.06,-280.38 250.23,-276.22 279.95,-273.07"/>
<polygon fill="#63b8ff" stroke="#63b8ff" points="280.15,-276.57 289.73,-272.03 279.41,-269.61 280.15,-276.57"/>
</g>
<!-- Node22 -->
<g id="node19" class="node">
<title>Node22</title>
<g id="a_node19"><a xlink:href="RadioFunctions_8cpp.html#ae1e0755ae9441b2835ac027a98707caa" target="_top" xlink:title=" ">
<polygon fill="white" stroke="#666666" points="356,-241 292,-241 292,-222 356,-222 356,-241"/>
<text text-anchor="middle" x="324" y="-229" font-family="Helvetica,sans-Serif" font-size="10.00">StopMacro</text>
</a>
</g>
</g>
<!-- Node19&#45;&gt;Node22 -->
<g id="edge21" class="edge">
<title>Node19&#45;&gt;Node22</title>
<path fill="none" stroke="#63b8ff" d="M171.08,-277.51C192.6,-269.72 223.55,-258.86 251,-250.5 260.51,-247.6 270.81,-244.73 280.56,-242.14"/>
<polygon fill="#63b8ff" stroke="#63b8ff" points="281.42,-245.53 290.2,-239.61 279.64,-238.76 281.42,-245.53"/>
</g>
<!-- Node24 -->
<g id="node21" class="node">
<title>Node24</title>
<g id="a_node21"><a xlink:href="TransmitterCode_2src_2main_8cpp.html#aa490b4664b0a4498d53b30b82287d5df" target="_top" xlink:title=" ">
<polygon fill="#fff0f0" stroke="red" points="658,-635 595,-635 595,-616 658,-616 658,-635"/>
<text text-anchor="middle" x="626.5" y="-623" font-family="Helvetica,sans-Serif" font-size="10.00">PlaySound</text>
</a>
</g>
</g>
<!-- Node23&#45;&gt;Node24 -->
<g id="edge24" class="edge">
<title>Node23&#45;&gt;Node24</title>
<path fill="none" stroke="#63b8ff" d="M204.56,-559.66C208.4,-557.43 211.95,-554.74 215,-551.5 273.35,-489.59 185.43,-417.7 251,-363.5 301.01,-322.16 337.93,-336.64 397,-363.5 454.93,-389.84 572.47,-550.56 612.1,-606.4"/>
<polygon fill="#63b8ff" stroke="#63b8ff" points="609.07,-608.17 617.69,-614.32 614.78,-604.13 609.07,-608.17"/>
</g>
<!-- Node38 -->
<g id="node22" class="node">
<title>Node38</title>
<g id="a_node22"><a xlink:href="TransmitterCode_2src_2main_8cpp.html#a590a9174319918d7e3d7baca323fcf26" target="_top" xlink:title=" ">
<polygon fill="white" stroke="#666666" points="731,-673 702,-673 702,-654 731,-654 731,-673"/>
<text text-anchor="middle" x="716.5" y="-661" font-family="Helvetica,sans-Serif" font-size="10.00">Str</text>
</a>
</g>
</g>
<!-- Node24&#45;&gt;Node38 -->
<g id="edge25" class="edge">
<title>Node24&#45;&gt;Node38</title>
<path fill="none" stroke="#63b8ff" d="M650.62,-635.48C663.15,-640.89 678.61,-647.57 691.3,-653.05"/>
<polygon fill="#63b8ff" stroke="#63b8ff" points="689.63,-656.14 700.2,-656.89 692.41,-649.72 689.63,-656.14"/>
</g>
<!-- Node125 -->
<g id="node24" class="node">
<title>Node125</title>
<g id="a_node24"><a xlink:href="TransmitterCode_2src_2main_8cpp.html#afb7c85cac4aa89fd998ed81c330374d2" target="_top" xlink:title=" ">
<polygon fill="#fff0f0" stroke="red" points="397,-616 251,-616 251,-597 397,-597 397,-616"/>
<text text-anchor="middle" x="324" y="-604" font-family="Helvetica,sans-Serif" font-size="10.00">CheckForNextionButtonPress</text>
</a>
</g>
</g>
<!-- Node124&#45;&gt;Node125 -->
<g id="edge28" class="edge">
<title>Node124&#45;&gt;Node125</title>
<path fill="none" stroke="#63b8ff" d="M193.86,-606.5C208.01,-606.5 223.82,-606.5 239.39,-606.5"/>
<polygon fill="#63b8ff" stroke="#63b8ff" points="239.14,-610 249.14,-606.5 239.14,-603 239.14,-610"/>
</g>
<!-- Node215 -->
<g id="node25" class="node">
<title>Node215</title>
<g id="a_node25"><a xlink:href="TransmitterCode_2src_2main_8cpp.html#add643409678258cabdb0aa1ae76d802a" target="_top" xlink:title=" ">
<polygon fill="#fff0f0" stroke="red" points="379.5,-502 268.5,-502 268.5,-483 379.5,-483 379.5,-502"/>
<text text-anchor="middle" x="324" y="-490" font-family="Helvetica,sans-Serif" font-size="10.00">CheckHardwareTrims</text>
</a>
</g>
</g>
<!-- Node124&#45;&gt;Node215 -->
<g id="edge29" class="edge">
<title>Node124&#45;&gt;Node215</title>
<path fill="none" stroke="#63b8ff" d="M193.94,-599.67C201.53,-597.05 208.86,-593.44 215,-588.5 242.87,-566.07 223.97,-539.94 251,-516.5 255.31,-512.76 260.21,-509.61 265.4,-506.94"/>
<polygon fill="#63b8ff" stroke="#63b8ff" points="266.52,-510.27 274.23,-503 263.67,-503.87 266.52,-510.27"/>
</g>
<!-- Node220 -->
<g id="node26" class="node">
<title>Node220</title>
<g id="a_node26"><a xlink:href="TransmitterCode_2src_2main_8cpp.html#a6ae37c6938b8c10b83d1bc74e8643bd9" target="_top" xlink:title=" ">
<polygon fill="#fff0f0" stroke="red" points="548.5,-578 435.5,-578 435.5,-559 548.5,-559 548.5,-578"/>
<text text-anchor="middle" x="492" y="-566" font-family="Helvetica,sans-Serif" font-size="10.00">CheckPowerOffButton</text>
</a>
</g>
</g>
<!-- Node124&#45;&gt;Node220 -->
<g id="edge30" class="edge">
<title>Node124&#45;&gt;Node220</title>
<path fill="none" stroke="#63b8ff" d="M193.95,-597.21C211.89,-594.11 232.31,-590.85 251,-588.5 309.19,-581.19 375.65,-575.89 423.86,-572.59"/>
<polygon fill="#63b8ff" stroke="#63b8ff" points="423.84,-576.1 433.58,-571.93 423.37,-569.11 423.84,-576.1"/>
</g>
<!-- Node222 -->
<g id="node27" class="node">
<title>Node222</title>
<g id="a_node27"><a xlink:href="TransmitterCode_2src_2main_8cpp.html#a2dca4e1c03e2abb86aa3c1843c55a1c2" target="_top" xlink:title=" ">
<polygon fill="#fff0f0" stroke="red" points="371.5,-465 276.5,-465 276.5,-446 371.5,-446 371.5,-465"/>
<text text-anchor="middle" x="324" y="-453" font-family="Helvetica,sans-Serif" font-size="10.00">CheckScanButton</text>
</a>
</g>
</g>
<!-- Node124&#45;&gt;Node222 -->
<g id="edge33" class="edge">
<title>Node124&#45;&gt;Node222</title>
<path fill="none" stroke="#63b8ff" d="M193.92,-600.74C201.69,-598.01 209.08,-594.09 215,-588.5 253.64,-552.03 212.54,-511.16 251,-474.5 255.22,-470.48 260.19,-467.28 265.51,-464.75"/>
<polygon fill="#63b8ff" stroke="#63b8ff" points="266.6,-468.08 274.66,-461.19 264.07,-461.55 266.6,-468.08"/>
</g>
<!-- Node223 -->
<g id="node28" class="node">
<title>Node223</title>
<g id="a_node28"><a xlink:href="TransmitterCode_2src_2main_8cpp.html#aa98d7fb495cbdc40cb17343ffafbfe15" target="_top" xlink:title=" ">
<polygon fill="#fff0f0" stroke="red" points="351.5,-729 296.5,-729 296.5,-710 351.5,-710 351.5,-729"/>
<text text-anchor="middle" x="324" y="-717" font-family="Helvetica,sans-Serif" font-size="10.00">GetBank</text>
</a>
</g>
</g>
<!-- Node124&#45;&gt;Node223 -->
<g id="edge34" class="edge">
<title>Node124&#45;&gt;Node223</title>
<path fill="none" stroke="#63b8ff" d="M153.39,-616.46C170.96,-634.56 210.67,-673.06 251,-695.5 261.53,-701.36 273.74,-706.1 285.07,-709.77"/>
<polygon fill="#63b8ff" stroke="#63b8ff" points="283.98,-713.1 294.57,-712.64 286.01,-706.4 283.98,-713.1"/>
</g>
<!-- Node88 -->
<g id="node30" class="node">
<title>Node88</title>
<g id="a_node30"><a xlink:href="TransmitterCode_2src_2main_8cpp.html#ae87d527c1f50ca7eaffba270f9a6524a" target="_top" xlink:title=" ">
<polygon fill="white" stroke="#666666" points="537.5,-729 446.5,-729 446.5,-710 537.5,-710 537.5,-729"/>
<text text-anchor="middle" x="492" y="-717" font-family="Helvetica,sans-Serif" font-size="10.00">ShowMotorTimer</text>
</a>
</g>
</g>
<!-- Node124&#45;&gt;Node88 -->
<g id="edge49" class="edge">
<title>Node124&#45;&gt;Node88</title>
<path fill="none" stroke="#63b8ff" d="M148.2,-616.27C159.94,-642.14 195.88,-712.22 251,-738.5 309.57,-766.42 332.43,-744.96 397,-738.5 410.98,-737.1 425.95,-734.56 439.75,-731.78"/>
<polygon fill="#63b8ff" stroke="#63b8ff" points="440.47,-735.21 449.53,-729.73 439.03,-728.36 440.47,-735.21"/>
</g>
<!-- Node236 -->
<g id="node31" class="node">
<title>Node236</title>
<g id="a_node31"><a xlink:href="TransmitterCode_2src_2main_8cpp.html#a1d43600764a34cbda9c2fa211a12ed2e" target="_top" xlink:title=" ">
<polygon fill="white" stroke="#666666" points="361,-428 287,-428 287,-409 361,-409 361,-428"/>
<text text-anchor="middle" x="324" y="-416" font-family="Helvetica,sans-Serif" font-size="10.00">GetStatistics</text>
</a>
</g>
</g>
<!-- Node124&#45;&gt;Node236 -->
<g id="edge41" class="edge">
<title>Node124&#45;&gt;Node236</title>
<path fill="none" stroke="#63b8ff" d="M193.9,-601.22C201.76,-598.44 209.2,-594.39 215,-588.5 263.44,-539.37 202.8,-486.87 251,-437.5 257.61,-430.73 266.33,-426.27 275.42,-423.37"/>
<polygon fill="#63b8ff" stroke="#63b8ff" points="276.26,-426.76 285.09,-420.91 274.53,-419.98 276.26,-426.76"/>
</g>
<!-- Node29 -->
<g id="node32" class="node">
<title>Node29</title>
<g id="a_node32"><a xlink:href="TransmitterCode_2src_2main_8cpp.html#ada95a00a341e4a80176eda743a94ab2e" target="_top" xlink:title=" ">
<polygon fill="white" stroke="#666666" points="359,-391 289,-391 289,-372 359,-372 359,-391"/>
<text text-anchor="middle" x="324" y="-379" font-family="Helvetica,sans-Serif" font-size="10.00">KickTheDog</text>
</a>
</g>
</g>
<!-- Node124&#45;&gt;Node29 -->
<g id="edge42" class="edge">
<title>Node124&#45;&gt;Node29</title>
<path fill="none" stroke="#63b8ff" d="M193.76,-601.56C201.74,-598.76 209.24,-594.61 215,-588.5 273.35,-526.59 192.95,-462.69 251,-400.5 257.99,-393.02 267.54,-388.34 277.41,-385.46"/>
<polygon fill="#63b8ff" stroke="#63b8ff" points="278.11,-388.89 287.08,-383.25 276.55,-382.07 278.11,-388.89"/>
</g>
<!-- Node237 -->
<g id="node33" class="node">
<title>Node237</title>
<g id="a_node33"><a xlink:href="TransmitterCode_2src_2main_8cpp.html#aa144942814b12daf2b2a454c08d29cab" target="_top" xlink:title=" ">
<polygon fill="white" stroke="#666666" points="364,-653 284,-653 284,-634 364,-634 364,-653"/>
<text text-anchor="middle" x="324" y="-641" font-family="Helvetica,sans-Serif" font-size="10.00">ReadSwitches</text>
</a>
</g>
</g>
<!-- Node124&#45;&gt;Node237 -->
<g id="edge43" class="edge">
<title>Node124&#45;&gt;Node237</title>
<path fill="none" stroke="#63b8ff" d="M191.97,-616.42C216.84,-621.56 247.22,-627.84 272.46,-633.05"/>
<polygon fill="#63b8ff" stroke="#63b8ff" points="271.67,-636.46 282.17,-635.06 273.09,-629.61 271.67,-636.46"/>
</g>
<!-- Node238 -->
<g id="node34" class="node">
<title>Node238</title>
<g id="a_node34"><a xlink:href="TransmitterCode_2src_2main_8cpp.html#a483cced19b61975f76957f5696425fe9" target="_top" xlink:title=" ">
<polygon fill="#fff0f0" stroke="red" points="657,-545 596,-545 596,-526 657,-526 657,-545"/>
<text text-anchor="middle" x="626.5" y="-533" font-family="Helvetica,sans-Serif" font-size="10.00">ReadTime</text>
</a>
</g>
</g>
<!-- Node124&#45;&gt;Node238 -->
<g id="edge44" class="edge">
<title>Node124&#45;&gt;Node238</title>
<path fill="none" stroke="#63b8ff" d="M189.52,-596.51C198.09,-594.2 206.89,-591.51 215,-588.5 231.77,-582.27 233.84,-575.56 251,-570.5 368.24,-535.95 514.24,-533.21 584.27,-534.24"/>
<polygon fill="#63b8ff" stroke="#63b8ff" points="584.06,-537.73 594.13,-534.42 584.19,-530.74 584.06,-537.73"/>
</g>
<!-- Node68 -->
<g id="node35" class="node">
<title>Node68</title>
<g id="a_node35"><a xlink:href="TransmitterCode_2src_2main_8cpp.html#a5d3a46c21927cf7a3031a1e68e0b7b48" target="_top" xlink:title="SHOW COMMS.">
<polygon fill="#fff0f0" stroke="red" points="529.5,-615 454.5,-615 454.5,-596 529.5,-596 529.5,-615"/>
<text text-anchor="middle" x="492" y="-603" font-family="Helvetica,sans-Serif" font-size="10.00">ShowComms</text>
</a>
</g>
</g>
<!-- Node124&#45;&gt;Node68 -->
<g id="edge46" class="edge">
<title>Node124&#45;&gt;Node68</title>
<path fill="none" stroke="#63b8ff" d="M157.65,-616.45C177.19,-630 214.76,-653.59 251,-662.5 314.01,-677.99 336.53,-686.02 397,-662.5 417.23,-654.63 414.69,-641.16 433,-629.5 438.59,-625.94 444.81,-622.71 451.03,-619.86"/>
<polygon fill="#63b8ff" stroke="#63b8ff" points="452.18,-623.18 460,-616.03 449.43,-616.74 452.18,-623.18"/>
</g>
<!-- Node220&#45;&gt;Node24 -->
<g id="edge31" class="edge">
<title>Node220&#45;&gt;Node24</title>
<path fill="none" stroke="#63b8ff" d="M526.45,-578.48C534.57,-581.17 543.17,-584.24 551,-587.5 567.02,-594.16 584.33,-602.89 598.22,-610.3"/>
<polygon fill="#63b8ff" stroke="#63b8ff" points="596.31,-613.25 606.77,-614.93 599.65,-607.09 596.31,-613.25"/>
</g>
<!-- Node220&#45;&gt;Node38 -->
<g id="edge32" class="edge">
<title>Node220&#45;&gt;Node38</title>
<path fill="none" stroke="#63b8ff" d="M548.83,-572.26C584.42,-576.72 630.36,-586.41 666,-607.5 681.35,-616.59 694.5,-632.07 703.37,-644.45"/>
<polygon fill="#63b8ff" stroke="#63b8ff" points="700.43,-646.35 708.93,-652.67 706.22,-642.42 700.43,-646.35"/>
</g>
<!-- Node223&#45;&gt;Node24 -->
<g id="edge35" class="edge">
<title>Node223&#45;&gt;Node24</title>
<path fill="none" stroke="#63b8ff" d="M351.93,-711.08C404.52,-694.62 521.21,-658.12 583.84,-638.53"/>
<polygon fill="#63b8ff" stroke="#63b8ff" points="584.57,-641.97 593.07,-635.64 582.48,-635.29 584.57,-641.97"/>
</g>
<!-- Node70 -->
<g id="node29" class="node">
<title>Node70</title>
<g id="a_node29"><a xlink:href="TransmitterCode_2src_2main_8cpp.html#a1e20efc1e419b252b50d36f9924503fc" target="_top" xlink:title=" ">
<polygon fill="#fff0f0" stroke="red" points="658.5,-710 594.5,-710 594.5,-691 658.5,-691 658.5,-710"/>
<text text-anchor="middle" x="626.5" y="-698" font-family="Helvetica,sans-Serif" font-size="10.00">SendValue</text>
</a>
</g>
</g>
<!-- Node223&#45;&gt;Node70 -->
<g id="edge36" class="edge">
<title>Node223&#45;&gt;Node70</title>
<path fill="none" stroke="#63b8ff" d="M351.92,-713.78C373.68,-709.46 405.16,-703.88 433,-701.5 484.3,-697.12 543.57,-697.65 582.64,-698.77"/>
<polygon fill="#63b8ff" stroke="#63b8ff" points="582.47,-702.26 592.58,-699.08 582.69,-695.27 582.47,-702.26"/>
</g>
<!-- Node223&#45;&gt;Node88 -->
<g id="edge38" class="edge">
<title>Node223&#45;&gt;Node88</title>
<path fill="none" stroke="#63b8ff" d="M351.67,-719.5C374.06,-719.5 406.81,-719.5 434.94,-719.5"/>
<polygon fill="#63b8ff" stroke="#63b8ff" points="434.75,-723 444.75,-719.5 434.75,-716 434.75,-723"/>
</g>
<!-- Node70&#45;&gt;Node38 -->
<g id="edge37" class="edge">
<title>Node70&#45;&gt;Node38</title>
<path fill="none" stroke="#63b8ff" d="M651.08,-690.58C663.48,-685.37 678.65,-678.99 691.16,-673.74"/>
<polygon fill="#63b8ff" stroke="#63b8ff" points="692.48,-676.98 700.34,-669.87 689.77,-670.52 692.48,-676.98"/>
</g>
<!-- Node88&#45;&gt;Node24 -->
<g id="edge39" class="edge">
<title>Node88&#45;&gt;Node24</title>
<path fill="none" stroke="#63b8ff" d="M506.68,-709.79C529.29,-693.75 574.71,-661.53 602.38,-641.9"/>
<polygon fill="#63b8ff" stroke="#63b8ff" points="604.33,-644.81 610.46,-636.17 600.28,-639.1 604.33,-644.81"/>
</g>
<!-- Node88&#45;&gt;Node70 -->
<g id="edge40" class="edge">
<title>Node88&#45;&gt;Node70</title>
<path fill="none" stroke="#63b8ff" d="M537.86,-713.07C552.43,-710.98 568.55,-708.67 582.95,-706.6"/>
<polygon fill="#63b8ff" stroke="#63b8ff" points="583.17,-710.11 592.57,-705.22 582.17,-703.18 583.17,-710.11"/>
</g>
<!-- Node238&#45;&gt;Node38 -->
<g id="edge45" class="edge">
<title>Node238&#45;&gt;Node38</title>
<path fill="none" stroke="#63b8ff" d="M641.49,-545.38C649.37,-551.43 658.99,-559.68 666,-568.5 684.47,-591.75 699.15,-622.95 707.59,-643.14"/>
<polygon fill="#63b8ff" stroke="#63b8ff" points="704.26,-644.25 711.25,-652.21 710.76,-641.63 704.26,-644.25"/>
</g>
<!-- Node68&#45;&gt;Node24 -->
<g id="edge47" class="edge">
<title>Node68&#45;&gt;Node24</title>
<path fill="none" stroke="#63b8ff" d="M529.91,-611.07C546.62,-613.59 566.45,-616.59 583.7,-619.19"/>
<polygon fill="#63b8ff" stroke="#63b8ff" points="582.7,-622.58 593.11,-620.61 583.75,-615.66 582.7,-622.58"/>
</g>
<!-- Node68&#45;&gt;Node70 -->
<g id="edge48" class="edge">
<title>Node68&#45;&gt;Node70</title>
<path fill="none" stroke="#63b8ff" d="M506.68,-615.31C529.29,-631.52 574.71,-664.09 602.38,-683.92"/>
<polygon fill="#63b8ff" stroke="#63b8ff" points="600.3,-686.74 610.47,-689.72 604.38,-681.05 600.3,-686.74"/>
</g>
<!-- Node239&#45;&gt;Node38 -->
<g id="edge52" class="edge">
<title>Node239&#45;&gt;Node38</title>
<path fill="none" stroke="#63b8ff" d="M188.95,-909.14C309.19,-913.07 631.42,-920.48 666,-888.5 695.85,-860.9 709.51,-735.23 713.87,-684.67"/>
<polygon fill="#63b8ff" stroke="#63b8ff" points="717.35,-685.05 714.67,-674.79 710.37,-684.47 717.35,-685.05"/>
</g>
<!-- Node155 -->
<g id="node37" class="node">
<title>Node155</title>
<g id="a_node37"><a xlink:href="TransmitterCode_2src_2main_8cpp.html#acd617ff93ca893aa7d65aaf2898dfc3d" target="_top" xlink:title=" ">
<polygon fill="#fff0f0" stroke="red" points="365,-955 283,-955 283,-936 365,-936 365,-955"/>
<text text-anchor="middle" x="324" y="-943" font-family="Helvetica,sans-Serif" font-size="10.00">SendCharArray</text>
</a>
</g>
</g>
<!-- Node239&#45;&gt;Node155 -->
<g id="edge51" class="edge">
<title>Node239&#45;&gt;Node155</title>
<path fill="none" stroke="#63b8ff" d="M188.71,-916.99C213.78,-922.31 245.18,-928.98 271.31,-934.53"/>
<polygon fill="#63b8ff" stroke="#63b8ff" points="270.54,-937.94 281.05,-936.59 271.99,-931.09 270.54,-937.94"/>
</g>
<!-- Node31 -->
<g id="node39" class="node">
<title>Node31</title>
<g id="a_node39"><a xlink:href="RadioFunctions_8cpp.html#a5fbd3c8613a4163425c94965704ce5f8" target="_top" xlink:title=" ">
<polygon fill="#fff0f0" stroke="red" points="361,-93 287,-93 287,-74 361,-74 361,-93"/>
<text text-anchor="middle" x="324" y="-81" font-family="Helvetica,sans-Serif" font-size="10.00">FailedPacket</text>
</a>
</g>
</g>
<!-- Node30&#45;&gt;Node31 -->
<g id="edge54" class="edge">
<title>Node30&#45;&gt;Node31</title>
<path fill="none" stroke="#63b8ff" d="M171.08,-129.51C192.6,-121.72 223.55,-110.86 251,-102.5 258.91,-100.09 267.36,-97.7 275.58,-95.47"/>
<polygon fill="#63b8ff" stroke="#63b8ff" points="276.37,-98.89 285.13,-92.93 274.56,-92.12 276.37,-98.89"/>
</g>
<!-- Node55 -->
<g id="node40" class="node">
<title>Node55</title>
<g id="a_node40"><a xlink:href="RadioFunctions_8cpp.html#a07c27b4e208198453c70876517926052" target="_top" xlink:title=" ">
<polygon fill="white" stroke="#666666" points="355,-56 293,-56 293,-37 355,-37 355,-56"/>
<text text-anchor="middle" x="324" y="-44" font-family="Helvetica,sans-Serif" font-size="10.00">FlushFifos</text>
</a>
</g>
</g>
<!-- Node30&#45;&gt;Node55 -->
<g id="edge55" class="edge">
<title>Node30&#45;&gt;Node55</title>
<path fill="none" stroke="#63b8ff" d="M155.37,-129.61C174.07,-113.84 213.05,-82.98 251,-65.5 260.66,-61.05 271.54,-57.5 281.87,-54.73"/>
<polygon fill="#63b8ff" stroke="#63b8ff" points="282.44,-58.2 291.3,-52.39 280.75,-51.4 282.44,-58.2"/>
</g>
<!-- Node56 -->
<g id="node41" class="node">
<title>Node56</title>
<g id="a_node41"><a xlink:href="TransmitterCode_2src_2main_8cpp.html#ac4ffb9b555ce8d38f615610dc89b5499" target="_top" xlink:title=" ">
<polygon fill="#fff0f0" stroke="red" points="368.5,-204 279.5,-204 279.5,-185 368.5,-185 368.5,-204"/>
<text text-anchor="middle" x="324" y="-192" font-family="Helvetica,sans-Serif" font-size="10.00">LoadPacketData</text>
</a>
</g>
</g>
<!-- Node30&#45;&gt;Node56 -->
<g id="edge56" class="edge">
<title>Node30&#45;&gt;Node56</title>
<path fill="none" stroke="#63b8ff" d="M170.61,-149.43C192.13,-157.29 223.3,-168.27 251,-176.5 256.94,-178.27 263.2,-180.01 269.43,-181.66"/>
<polygon fill="#63b8ff" stroke="#63b8ff" points="268.55,-185.05 279.11,-184.17 270.3,-178.27 268.55,-185.05"/>
</g>
<!-- Node59 -->
<g id="node42" class="node">
<title>Node59</title>
<g id="a_node42"><a xlink:href="TransmitterCode_2src_2main_8cpp.html#a784a1eca0361b3991bca899167cc1cdb" target="_top" xlink:title=" ">
<polygon fill="white" stroke="#666666" points="361.5,-167 286.5,-167 286.5,-148 361.5,-148 361.5,-167"/>
<text text-anchor="middle" x="324" y="-155" font-family="Helvetica,sans-Serif" font-size="10.00">SendViaPPM</text>
</a>
</g>
</g>
<!-- Node30&#45;&gt;Node59 -->
<g id="edge57" class="edge">
<title>Node30&#45;&gt;Node59</title>
<path fill="none" stroke="#63b8ff" d="M172.76,-142.39C200.34,-145.17 242.5,-149.4 275.14,-152.69"/>
<polygon fill="#63b8ff" stroke="#63b8ff" points="274.44,-156.13 284.74,-153.65 275.14,-149.17 274.44,-156.13"/>
</g>
<!-- Node60 -->
<g id="node43" class="node">
<title>Node60</title>
<g id="a_node43"><a xlink:href="RadioFunctions_8cpp.html#a1c11bb6771548de7d96723045b922620" target="_top" xlink:title=" ">
<polygon fill="#fff0f0" stroke="red" points="372,-130 276,-130 276,-111 372,-111 372,-130"/>
<text text-anchor="middle" x="324" y="-118" font-family="Helvetica,sans-Serif" font-size="10.00">SuccessfulPacket</text>
</a>
</g>
</g>
<!-- Node30&#45;&gt;Node60 -->
<g id="edge58" class="edge">
<title>Node30&#45;&gt;Node60</title>
<path fill="none" stroke="#63b8ff" d="M172.76,-136.45C197.49,-133.82 233.94,-129.95 264.75,-126.68"/>
<polygon fill="#63b8ff" stroke="#63b8ff" points="264.73,-130.21 274.3,-125.67 263.99,-123.24 264.73,-130.21"/>
</g>
<!-- Node241 -->
<g id="node45" class="node">
<title>Node241</title>
<g id="a_node45"><a xlink:href="RadioFunctions_8cpp.html#a44db40e8ffa545be92871325c4dcdc55" target="_top" xlink:title=" ">
<polygon fill="white" stroke="#666666" points="343,-19 305,-19 305,0 343,0 343,-19"/>
<text text-anchor="middle" x="324" y="-7" font-family="Helvetica,sans-Serif" font-size="10.00">Look</text>
</a>
</g>
</g>
<!-- Node240&#45;&gt;Node241 -->
<g id="edge60" class="edge">
<title>Node240&#45;&gt;Node241</title>
<path fill="none" stroke="#63b8ff" d="M173.96,-41.14C207.29,-34.06 260.78,-22.71 293.8,-15.7"/>
<polygon fill="#63b8ff" stroke="#63b8ff" points="294.42,-19.14 303.48,-13.64 292.97,-12.3 294.42,-19.14"/>
</g>
<!-- Node149&#45;&gt;Node5 -->
<g id="edge62" class="edge">
<title>Node149&#45;&gt;Node5</title>
<path fill="none" stroke="#63b8ff" d="M334.64,-860.43C361.69,-888.29 438.57,-967.49 473.43,-1003.4"/>
<polygon fill="#63b8ff" stroke="#63b8ff" points="470.8,-1005.72 480.28,-1010.45 475.82,-1000.84 470.8,-1005.72"/>
</g>
<!-- Node149&#45;&gt;Node70 -->
<g id="edge70" class="edge">
<title>Node149&#45;&gt;Node70</title>
<path fill="none" stroke="#63b8ff" d="M366.44,-853C414.64,-853.89 494.75,-848.97 551,-812.5 585.16,-790.36 607.34,-746.44 618.02,-720.67"/>
<polygon fill="#63b8ff" stroke="#63b8ff" points="621.16,-722.25 621.56,-711.66 614.64,-719.69 621.16,-722.25"/>
</g>
<!-- Node138 -->
<g id="node47" class="node">
<title>Node138</title>
<g id="a_node47"><a xlink:href="TransmitterCode_2src_2main_8cpp.html#acf49567c45af927603ae83a7f46e6534" target="_top" xlink:title=" ">
<polygon fill="#fff0f0" stroke="red" points="529,-879 455,-879 455,-860 529,-860 529,-879"/>
<text text-anchor="middle" x="492" y="-867" font-family="Helvetica,sans-Serif" font-size="10.00">DisplayCurve</text>
</a>
</g>
</g>
<!-- Node149&#45;&gt;Node138 -->
<g id="edge63" class="edge">
<title>Node149&#45;&gt;Node138</title>
<path fill="none" stroke="#63b8ff" d="M366.46,-855.25C389.84,-857.92 419.14,-861.28 443.45,-864.06"/>
<polygon fill="#63b8ff" stroke="#63b8ff" points="442.74,-867.5 453.07,-865.16 443.54,-860.54 442.74,-867.5"/>
</g>
<!-- Node144 -->
<g id="node48" class="node">
<title>Node144</title>
<g id="a_node48"><a xlink:href="TransmitterCode_2src_2main_8cpp.html#acbef1d41e1bd646b60a6e8afd9c66880" target="_top" xlink:title=" ">
<polygon fill="#fff0f0" stroke="red" points="655.5,-879 597.5,-879 597.5,-860 655.5,-860 655.5,-879"/>
<text text-anchor="middle" x="626.5" y="-867" font-family="Helvetica,sans-Serif" font-size="10.00">DrawLine</text>
</a>
</g>
</g>
<!-- Node149&#45;&gt;Node144 -->
<g id="edge67" class="edge">
<title>Node149&#45;&gt;Node144</title>
<path fill="none" stroke="#63b8ff" d="M346.35,-860.44C367.73,-869.81 401.85,-883.18 433,-888.5 484.7,-897.33 498.96,-895.03 551,-888.5 562.62,-887.04 575.03,-884.35 586.32,-881.44"/>
<polygon fill="#63b8ff" stroke="#63b8ff" points="586.97,-884.89 595.7,-878.9 585.14,-878.14 586.97,-884.89"/>
</g>
<!-- Node150 -->
<g id="node49" class="node">
<title>Node150</title>
<g id="a_node49"><a xlink:href="TransmitterCode_2src_2main_8cpp.html#af1030157034999448f5ca611d6209385" target="_top" xlink:title=" ">
<polygon fill="white" stroke="#666666" points="551,-803 433,-803 433,-784 551,-784 551,-803"/>
<text text-anchor="middle" x="492" y="-791" font-family="Helvetica,sans-Serif" font-size="10.00">GetStickInputInputOnly</text>
</a>
</g>
</g>
<!-- Node149&#45;&gt;Node150 -->
<g id="edge68" class="edge">
<title>Node149&#45;&gt;Node150</title>
<path fill="none" stroke="#63b8ff" d="M353.91,-840.57C380.97,-831.28 421.6,-817.33 451.61,-807.03"/>
<polygon fill="#63b8ff" stroke="#63b8ff" points="452.39,-810.46 460.71,-803.9 450.11,-803.84 452.39,-810.46"/>
</g>
<!-- Node151 -->
<g id="node50" class="node">
<title>Node151</title>
<g id="a_node50"><a xlink:href="TransmitterCode_2src_2main_8cpp.html#a5cdbe11d62e0de7610ba323e60b97d33" target="_top" xlink:title=" ">
<polygon fill="white" stroke="#666666" points="530.5,-766 453.5,-766 453.5,-747 530.5,-747 530.5,-766"/>
<text text-anchor="middle" x="492" y="-754" font-family="Helvetica,sans-Serif" font-size="10.00">IntoLowerRes</text>
</a>
</g>
</g>
<!-- Node149&#45;&gt;Node151 -->
<g id="edge69" class="edge">
<title>Node149&#45;&gt;Node151</title>
<path fill="none" stroke="#63b8ff" d="M336.59,-840.73C355.63,-825.1 395.19,-794.32 433,-775.5 436.68,-773.67 440.57,-771.96 444.54,-770.37"/>
<polygon fill="#63b8ff" stroke="#63b8ff" points="445.5,-773.75 453.66,-766.99 443.06,-767.18 445.5,-773.75"/>
</g>
<!-- Node138&#45;&gt;Node70 -->
<g id="edge66" class="edge">
<title>Node138&#45;&gt;Node70</title>
<path fill="none" stroke="#63b8ff" d="M528.15,-859.57C536.32,-856.08 544.51,-851.48 551,-845.5 588.86,-810.63 610.53,-752.13 619.9,-721.17"/>
<polygon fill="#63b8ff" stroke="#63b8ff" points="623.17,-722.45 622.57,-711.87 616.45,-720.51 623.17,-722.45"/>
</g>
<!-- Node138&#45;&gt;Node144 -->
<g id="edge64" class="edge">
<title>Node138&#45;&gt;Node144</title>
<path fill="none" stroke="#63b8ff" d="M529.21,-869.5C546.81,-869.5 567.99,-869.5 586.01,-869.5"/>
<polygon fill="#63b8ff" stroke="#63b8ff" points="585.81,-873 595.81,-869.5 585.81,-866 585.81,-873"/>
</g>
<!-- Node144&#45;&gt;Node38 -->
<g id="edge65" class="edge">
<title>Node144&#45;&gt;Node38</title>
<path fill="none" stroke="#63b8ff" d="M631.74,-859.56C645.39,-827.61 688.34,-727.07 706.86,-683.72"/>
<polygon fill="#63b8ff" stroke="#63b8ff" points="709.99,-685.3 710.7,-674.73 703.56,-682.55 709.99,-685.3"/>
</g>
</g>
</svg>
