<?xml version="1.0" encoding="UTF-8" standalone="no"?>
<!DOCTYPE svg PUBLIC "-//W3C//DTD SVG 1.1//EN"
 "http://www.w3.org/Graphics/SVG/1.1/DTD/svg11.dtd">
<!-- Generated by graphviz version 7.0.5 (20221223.1930)
 -->
<!-- Title: ShowDualRateChannelsName Pages: 1 -->
<svg width="1242pt" height="1066pt"
 viewBox="0.00 0.00 1242.00 1065.59" xmlns="http://www.w3.org/2000/svg" xmlns:xlink="http://www.w3.org/1999/xlink">
<g id="graph0" class="graph" transform="scale(1 1) rotate(0) translate(4 1061.59)">
<title>ShowDualRateChannelsName</title>
<!-- Node1 -->
<g id="node1" class="node">
<title>Node1</title>
<g id="a_node1"><a xlink:title=" ">
<polygon fill="#999999" stroke="#666666" points="148,-915.09 0,-915.09 0,-896.09 148,-896.09 148,-915.09"/>
<text text-anchor="middle" x="74" y="-903.09" font-family="Helvetica,sans-Serif" font-size="10.00">ShowDualRateChannelsName</text>
</a>
</g>
</g>
<!-- Node2 -->
<g id="node2" class="node">
<title>Node2</title>
<g id="a_node2"><a xlink:href="Nextion_8h.html#afe513398f72d5e48f691830a1ef6eb42" target="_top" xlink:title=" ">
<polygon fill="white" stroke="#666666" points="242,-915.09 184,-915.09 184,-896.09 242,-896.09 242,-915.09"/>
<text text-anchor="middle" x="213" y="-903.09" font-family="Helvetica,sans-Serif" font-size="10.00">SendText</text>
</a>
</g>
</g>
<!-- Node1&#45;&gt;Node2 -->
<g id="edge1" class="edge">
<title>Node1&#45;&gt;Node2</title>
<path fill="none" stroke="#63b8ff" d="M148.31,-905.59C156.58,-905.59 164.75,-905.59 172.35,-905.59"/>
<polygon fill="#63b8ff" stroke="#63b8ff" points="172.22,-909.09 182.22,-905.59 172.22,-902.09 172.22,-909.09"/>
</g>
<!-- Node3 -->
<g id="node3" class="node">
<title>Node3</title>
<g id="a_node3"><a xlink:href="Nextion_8h.html#a43937dd3d9c795271fd9c3eb3c6b6410" target="_top" xlink:title=" ">
<polygon fill="white" stroke="#666666" points="480,-1029.09 397,-1029.09 397,-1010.09 480,-1010.09 480,-1029.09"/>
<text text-anchor="middle" x="438.5" y="-1017.09" font-family="Helvetica,sans-Serif" font-size="10.00">GetReturnCode</text>
</a>
</g>
</g>
<!-- Node2&#45;&gt;Node3 -->
<g id="edge2" class="edge">
<title>Node2&#45;&gt;Node3</title>
<path fill="none" stroke="#63b8ff" d="M233.44,-915.51C272.66,-935.51 361.44,-980.79 407.9,-1004.49"/>
<polygon fill="#63b8ff" stroke="#63b8ff" points="406.1,-1007.5 416.59,-1008.93 409.28,-1001.26 406.1,-1007.5"/>
</g>
<!-- Node4 -->
<g id="node4" class="node">
<title>Node4</title>
<g id="a_node4"><a xlink:href="Nextion_8h.html#aecac2f0c289f02ef3c92b85be82eacac" target="_top" xlink:title=" ">
<polygon fill="white" stroke="#666666" points="361,-915.09 278,-915.09 278,-896.09 361,-896.09 361,-915.09"/>
<text text-anchor="middle" x="319.5" y="-903.09" font-family="Helvetica,sans-Serif" font-size="10.00">SendCommand</text>
</a>
</g>
</g>
<!-- Node2&#45;&gt;Node4 -->
<g id="edge3" class="edge">
<title>Node2&#45;&gt;Node4</title>
<path fill="none" stroke="#63b8ff" d="M242.28,-905.59C249.76,-905.59 258.08,-905.59 266.39,-905.59"/>
<polygon fill="#63b8ff" stroke="#63b8ff" points="266.13,-909.09 276.13,-905.59 266.13,-902.09 266.13,-909.09"/>
</g>
<!-- Node4&#45;&gt;Node3 -->
<g id="edge71" class="edge">
<title>Node4&#45;&gt;Node3</title>
<path fill="none" stroke="#63b8ff" d="M327.19,-915.44C339.5,-933.06 367.22,-970.47 397,-995.59 400.49,-998.53 404.37,-1001.33 408.33,-1003.91"/>
<polygon fill="#63b8ff" stroke="#63b8ff" points="406.42,-1006.84 416.79,-1009.03 410.05,-1000.86 406.42,-1006.84"/>
</g>
<!-- Node5 -->
<g id="node5" class="node">
<title>Node5</title>
<g id="a_node5"><a xlink:href="Utilities_8h.html#a3b1d8aa403e2724e55c71da3d9d13e7e" target="_top" xlink:title=" ">
<polygon fill="white" stroke="#666666" points="477,-745.09 400,-745.09 400,-726.09 477,-726.09 477,-745.09"/>
<text text-anchor="middle" x="438.5" y="-733.09" font-family="Helvetica,sans-Serif" font-size="10.00">DelayWithDog</text>
</a>
</g>
</g>
<!-- Node4&#45;&gt;Node5 -->
<g id="edge4" class="edge">
<title>Node4&#45;&gt;Node5</title>
<path fill="none" stroke="#63b8ff" d="M327.13,-895.96C345.86,-868.74 399.48,-790.84 424.43,-754.58"/>
<polygon fill="#63b8ff" stroke="#63b8ff" points="427.01,-757 429.8,-746.78 421.24,-753.03 427.01,-757"/>
</g>
<!-- Node117 -->
<g id="node50" class="node">
<title>Node117</title>
<g id="a_node50"><a xlink:href="TransmitterCode_2src_2main_8cpp.html#a5f109790a6fe0b972a502f3cac4ed1e7" target="_top" xlink:title=" ">
<polygon fill="white" stroke="#666666" points="462.5,-953.09 414.5,-953.09 414.5,-934.09 462.5,-934.09 462.5,-953.09"/>
<text text-anchor="middle" x="438.5" y="-941.09" font-family="Helvetica,sans-Serif" font-size="10.00">InStrng</text>
</a>
</g>
</g>
<!-- Node4&#45;&gt;Node117 -->
<g id="edge72" class="edge">
<title>Node4&#45;&gt;Node117</title>
<path fill="none" stroke="#63b8ff" d="M351.24,-915.57C367.3,-920.79 387,-927.19 403.52,-932.55"/>
<polygon fill="#63b8ff" stroke="#63b8ff" points="402.33,-935.85 412.92,-935.61 404.49,-929.19 402.33,-935.85"/>
</g>
<!-- Node6 -->
<g id="node6" class="node">
<title>Node6</title>
<g id="a_node6"><a xlink:href="Utilities_8h.html#ada95a00a341e4a80176eda743a94ab2e" target="_top" xlink:title=" ">
<polygon fill="white" stroke="#666666" points="586,-708.09 516,-708.09 516,-689.09 586,-689.09 586,-708.09"/>
<text text-anchor="middle" x="551" y="-696.09" font-family="Helvetica,sans-Serif" font-size="10.00">KickTheDog</text>
</a>
</g>
</g>
<!-- Node5&#45;&gt;Node6 -->
<g id="edge5" class="edge">
<title>Node5&#45;&gt;Node6</title>
<path fill="none" stroke="#63b8ff" d="M469.11,-725.67C481.5,-721.53 496.09,-716.64 509.45,-712.17"/>
<polygon fill="#63b8ff" stroke="#63b8ff" points="510.5,-715.51 518.87,-709.01 508.28,-708.87 510.5,-715.51"/>
</g>
<!-- Node7 -->
<g id="node7" class="node">
<title>Node7</title>
<g id="a_node7"><a xlink:href="transceiver_8h.html#a049bfb836e7aa4a3a48a1a4bd225fafc" target="_top" xlink:title=" ">
<polygon fill="white" stroke="#666666" points="580.5,-745.09 521.5,-745.09 521.5,-726.09 580.5,-726.09 580.5,-745.09"/>
<text text-anchor="middle" x="551" y="-733.09" font-family="Helvetica,sans-Serif" font-size="10.00">SendData</text>
</a>
</g>
</g>
<!-- Node5&#45;&gt;Node7 -->
<g id="edge6" class="edge">
<title>Node5&#45;&gt;Node7</title>
<path fill="none" stroke="#63b8ff" d="M477.22,-735.59C487.78,-735.59 499.29,-735.59 509.98,-735.59"/>
<polygon fill="#63b8ff" stroke="#63b8ff" points="509.66,-739.09 519.66,-735.59 509.66,-732.09 509.66,-739.09"/>
</g>
<!-- Node8 -->
<g id="node8" class="node">
<title>Node8</title>
<g id="a_node8"><a xlink:href="transceiver_8h.html#a1ddd5e8d5bd649dd98ce3710fbff651b" target="_top" xlink:title=" ">
<polygon fill="white" stroke="#666666" points="724.5,-652.09 663.5,-652.09 663.5,-633.09 724.5,-633.09 724.5,-652.09"/>
<text text-anchor="middle" x="694" y="-640.09" font-family="Helvetica,sans-Serif" font-size="10.00">Compress</text>
</a>
</g>
</g>
<!-- Node7&#45;&gt;Node8 -->
<g id="edge7" class="edge">
<title>Node7&#45;&gt;Node8</title>
<path fill="none" stroke="#63b8ff" d="M573.59,-725.63C577.98,-723.05 582.35,-720.02 586,-716.59 607.56,-696.32 597.99,-677.87 622,-660.59 630.79,-654.26 641.59,-650.15 652.1,-647.48"/>
<polygon fill="#63b8ff" stroke="#63b8ff" points="652.73,-650.93 661.78,-645.43 651.28,-644.08 652.73,-650.93"/>
</g>
<!-- Node9 -->
<g id="node9" class="node">
<title>Node9</title>
<g id="a_node9"><a xlink:href="transceiver_8h.html#a4144c213e5448a7e02d4172881f08219" target="_top" xlink:title=" ">
<polygon fill="white" stroke="#666666" points="766,-615.09 622,-615.09 622,-596.09 766,-596.09 766,-615.09"/>
<text text-anchor="middle" x="694" y="-603.09" font-family="Helvetica,sans-Serif" font-size="10.00">EncodeTheChangedChannels</text>
</a>
</g>
</g>
<!-- Node7&#45;&gt;Node9 -->
<g id="edge8" class="edge">
<title>Node7&#45;&gt;Node9</title>
<path fill="none" stroke="#63b8ff" d="M574.85,-725.73C578.95,-723.2 582.9,-720.16 586,-716.59 615.07,-683.13 588.82,-652.98 622,-623.59 622.79,-622.89 623.61,-622.21 624.44,-621.57"/>
<polygon fill="#63b8ff" stroke="#63b8ff" points="626.18,-624.61 632.81,-616.35 622.48,-618.67 626.18,-624.61"/>
</g>
<!-- Node10 -->
<g id="node10" class="node">
<title>Node10</title>
<g id="a_node10"><a xlink:href="transceiver_8h.html#a5fbd3c8613a4163425c94965704ce5f8" target="_top" xlink:title=" ">
<polygon fill="white" stroke="#666666" points="731,-726.09 657,-726.09 657,-707.09 731,-707.09 731,-726.09"/>
<text text-anchor="middle" x="694" y="-714.09" font-family="Helvetica,sans-Serif" font-size="10.00">FailedPacket</text>
</a>
</g>
</g>
<!-- Node7&#45;&gt;Node10 -->
<g id="edge9" class="edge">
<title>Node7&#45;&gt;Node10</title>
<path fill="none" stroke="#63b8ff" d="M580.87,-731.7C599.45,-729.2 624.03,-725.88 645.45,-723"/>
<polygon fill="#63b8ff" stroke="#63b8ff" points="645.69,-726.5 655.13,-721.69 644.75,-719.56 645.69,-726.5"/>
</g>
<!-- Node46 -->
<g id="node20" class="node">
<title>Node46</title>
<g id="a_node20"><a xlink:href="common_8h.html#a6e2d4126d864c50e7c23c988c2bfdd1a" target="_top" xlink:title=" ">
<polygon fill="white" stroke="#666666" points="1202.5,-924.09 1155.5,-924.09 1155.5,-905.09 1202.5,-905.09 1202.5,-924.09"/>
<text text-anchor="middle" x="1179" y="-912.09" font-family="Helvetica,sans-Serif" font-size="10.00">Radio1</text>
</a>
</g>
</g>
<!-- Node7&#45;&gt;Node46 -->
<g id="edge26" class="edge">
<title>Node7&#45;&gt;Node46</title>
<path fill="none" stroke="#63b8ff" d="M569.15,-745.49C583.08,-753.27 603.4,-764.01 622,-771.59 767.56,-830.87 807.25,-838.57 960,-875.59 1024.38,-891.19 1100.85,-903.46 1143.97,-909.81"/>
<polygon fill="#63b8ff" stroke="#63b8ff" points="1143.32,-913.25 1153.72,-911.23 1144.32,-906.33 1143.32,-913.25"/>
</g>
<!-- Node49 -->
<g id="node22" class="node">
<title>Node49</title>
<g id="a_node22"><a xlink:href="transceiver_8h.html#a07c27b4e208198453c70876517926052" target="_top" xlink:title=" ">
<polygon fill="white" stroke="#666666" points="725,-877.09 663,-877.09 663,-858.09 725,-858.09 725,-877.09"/>
<text text-anchor="middle" x="694" y="-865.09" font-family="Helvetica,sans-Serif" font-size="10.00">FlushFifos</text>
</a>
</g>
</g>
<!-- Node7&#45;&gt;Node49 -->
<g id="edge24" class="edge">
<title>Node7&#45;&gt;Node49</title>
<path fill="none" stroke="#63b8ff" d="M555.77,-745.53C564.3,-766.68 587.07,-816.44 622,-843.59 630.6,-850.28 641.17,-855.16 651.5,-858.7"/>
<polygon fill="#63b8ff" stroke="#63b8ff" points="650.47,-862.04 661.06,-861.59 652.5,-855.34 650.47,-862.04"/>
</g>
<!-- Node50 -->
<g id="node23" class="node">
<title>Node50</title>
<g id="a_node23"><a xlink:href="transceiver_8h.html#a65249d0ac8676541d13ced58b1ce7624" target="_top" xlink:title=" ">
<polygon fill="white" stroke="#666666" points="753.5,-763.09 634.5,-763.09 634.5,-744.09 753.5,-744.09 753.5,-763.09"/>
<text text-anchor="middle" x="694" y="-751.09" font-family="Helvetica,sans-Serif" font-size="10.00">SendExtraParamemters</text>
</a>
</g>
</g>
<!-- Node7&#45;&gt;Node50 -->
<g id="edge27" class="edge">
<title>Node7&#45;&gt;Node50</title>
<path fill="none" stroke="#63b8ff" d="M580.87,-739.28C593.14,-740.84 608.02,-742.74 622.88,-744.64"/>
<polygon fill="#63b8ff" stroke="#63b8ff" points="622.33,-748.1 632.69,-745.89 623.21,-741.15 622.33,-748.1"/>
</g>
<!-- Node54 -->
<g id="node27" class="node">
<title>Node54</title>
<g id="a_node27"><a xlink:href="BuddyWireless_8h.html#a41c327908c92572d0d3eebbb19160d86" target="_top" xlink:title=" ">
<polygon fill="white" stroke="#666666" points="745,-953.09 643,-953.09 643,-934.09 745,-934.09 745,-953.09"/>
<text text-anchor="middle" x="694" y="-941.09" font-family="Helvetica,sans-Serif" font-size="10.00">SendSpecialPacket</text>
</a>
</g>
</g>
<!-- Node7&#45;&gt;Node54 -->
<g id="edge32" class="edge">
<title>Node7&#45;&gt;Node54</title>
<path fill="none" stroke="#63b8ff" d="M554.92,-745.54C562.7,-770.88 585.82,-839.09 622,-885.59 634.83,-902.08 653.17,-916.9 667.99,-927.44"/>
<polygon fill="#63b8ff" stroke="#63b8ff" points="665.66,-930.09 675.89,-932.86 669.62,-924.31 665.66,-930.09"/>
</g>
<!-- Node58 -->
<g id="node31" class="node">
<title>Node58</title>
<g id="a_node31"><a xlink:href="BuddyPPM_8h.html#a784a1eca0361b3991bca899167cc1cdb" target="_top" xlink:title=" ">
<polygon fill="white" stroke="#666666" points="731.5,-689.09 656.5,-689.09 656.5,-670.09 731.5,-670.09 731.5,-689.09"/>
<text text-anchor="middle" x="694" y="-677.09" font-family="Helvetica,sans-Serif" font-size="10.00">SendViaPPM</text>
</a>
</g>
</g>
<!-- Node7&#45;&gt;Node58 -->
<g id="edge40" class="edge">
<title>Node7&#45;&gt;Node58</title>
<path fill="none" stroke="#63b8ff" d="M569.55,-725.77C588.47,-715.22 616.62,-699.69 622,-697.59 629.41,-694.69 637.43,-692.14 645.33,-689.93"/>
<polygon fill="#63b8ff" stroke="#63b8ff" points="646.09,-693.35 654.87,-687.42 644.31,-686.58 646.09,-693.35"/>
</g>
<!-- Node59 -->
<g id="node32" class="node">
<title>Node59</title>
<g id="a_node32"><a xlink:href="transceiver_8h.html#a1c11bb6771548de7d96723045b922620" target="_top" xlink:title=" ">
<polygon fill="white" stroke="#666666" points="742,-437.09 646,-437.09 646,-418.09 742,-418.09 742,-437.09"/>
<text text-anchor="middle" x="694" y="-425.09" font-family="Helvetica,sans-Serif" font-size="10.00">SuccessfulPacket</text>
</a>
</g>
</g>
<!-- Node7&#45;&gt;Node59 -->
<g id="edge41" class="edge">
<title>Node7&#45;&gt;Node59</title>
<path fill="none" stroke="#63b8ff" d="M575.48,-725.75C579.43,-723.24 583.16,-720.21 586,-716.59 623.03,-669.44 601.72,-643.01 622,-586.59 640.5,-535.13 668.3,-477.01 683.03,-447.33"/>
<polygon fill="#63b8ff" stroke="#63b8ff" points="685.96,-449.28 687.31,-438.78 679.7,-446.15 685.96,-449.28"/>
</g>
<!-- Node11 -->
<g id="node11" class="node">
<title>Node11</title>
<g id="a_node11"><a xlink:href="transceiver_8h.html#afc091b5942e21a03f6dc8635d5e519ba" target="_top" xlink:title=" ">
<polygon fill="white" stroke="#666666" points="924,-569.09 802,-569.09 802,-550.09 924,-550.09 924,-569.09"/>
<text text-anchor="middle" x="863" y="-557.09" font-family="Helvetica,sans-Serif" font-size="10.00">RecordsPacketSuccess</text>
</a>
</g>
</g>
<!-- Node10&#45;&gt;Node11 -->
<g id="edge10" class="edge">
<title>Node10&#45;&gt;Node11</title>
<path fill="none" stroke="#63b8ff" d="M731.39,-714C743.75,-711.42 756.75,-706.57 766,-697.59 805.96,-658.81 762.63,-616.96 802,-577.59 802.61,-576.98 803.23,-576.4 803.87,-575.83"/>
<polygon fill="#63b8ff" stroke="#63b8ff" points="805.56,-578.92 811.84,-570.38 801.61,-573.14 805.56,-578.92"/>
</g>
<!-- Node12 -->
<g id="node12" class="node">
<title>Node12</title>
<g id="a_node12"><a xlink:href="TransmitterCode_2src_2main_8cpp.html#a7d34cec6e8edc20c8b50424e15dcc7c7" target="_top" xlink:title=" ">
<polygon fill="white" stroke="#666666" points="894.5,-797.09 831.5,-797.09 831.5,-778.09 894.5,-778.09 894.5,-797.09"/>
<text text-anchor="middle" x="863" y="-785.09" font-family="Helvetica,sans-Serif" font-size="10.00">RedLedOn</text>
</a>
</g>
</g>
<!-- Node10&#45;&gt;Node12 -->
<g id="edge11" class="edge">
<title>Node10&#45;&gt;Node12</title>
<path fill="none" stroke="#63b8ff" d="M731.32,-723.9C742.62,-726.68 755,-730.24 766,-734.59 773.08,-737.39 808.79,-757.38 834.59,-771.99"/>
<polygon fill="#63b8ff" stroke="#63b8ff" points="832.85,-775.03 843.28,-776.92 836.31,-768.94 832.85,-775.03"/>
</g>
<!-- Node42 -->
<g id="node18" class="node">
<title>Node42</title>
<g id="a_node18"><a xlink:href="transceiver_8h.html#ad0236abcfc887ad708d9504c4ab2a7c3" target="_top" xlink:title=" ">
<polygon fill="white" stroke="#666666" points="907,-606.09 819,-606.09 819,-587.09 907,-587.09 907,-606.09"/>
<text text-anchor="middle" x="863" y="-594.09" font-family="Helvetica,sans-Serif" font-size="10.00">TryToReconnect</text>
</a>
</g>
</g>
<!-- Node10&#45;&gt;Node42 -->
<g id="edge20" class="edge">
<title>Node10&#45;&gt;Node42</title>
<path fill="none" stroke="#63b8ff" d="M731.19,-710.93C742.85,-708.08 755.47,-703.85 766,-697.59 801.53,-676.48 832.39,-638.57 848.99,-615.68"/>
<polygon fill="#63b8ff" stroke="#63b8ff" points="851.81,-617.76 854.71,-607.57 846.09,-613.72 851.81,-617.76"/>
</g>
<!-- Node12&#45;&gt;Node2 -->
<g id="edge18" class="edge">
<title>Node12&#45;&gt;Node2</title>
<path fill="none" stroke="#63b8ff" d="M831.2,-788.25C775.49,-789.39 654.27,-791.59 552,-791.59 437.5,-791.59 437.5,-791.59 437.5,-791.59 353.17,-791.59 268.57,-856.78 232.34,-888.57"/>
<polygon fill="#63b8ff" stroke="#63b8ff" points="230.43,-885.58 225.32,-894.86 235.1,-890.79 230.43,-885.58"/>
</g>
<!-- Node12&#45;&gt;Node4 -->
<g id="edge17" class="edge">
<title>Node12&#45;&gt;Node4</title>
<path fill="none" stroke="#63b8ff" d="M856.08,-797.44C842.94,-818.25 809.05,-866.35 766,-885.59 697.09,-916.39 474.7,-911.87 372.61,-907.97"/>
<polygon fill="#63b8ff" stroke="#63b8ff" points="373,-904.48 362.87,-907.59 372.73,-911.48 373,-904.48"/>
</g>
<!-- Node13 -->
<g id="node13" class="node">
<title>Node13</title>
<g id="a_node13"><a xlink:href="TransmitterCode_2src_2main_8cpp.html#afeaea883a32e6ebe461d419fab1b9f59" target="_top" xlink:title=" ">
<polygon fill="white" stroke="#666666" points="1079.5,-867.09 968.5,-867.09 968.5,-848.09 1079.5,-848.09 1079.5,-867.09"/>
<text text-anchor="middle" x="1024" y="-855.09" font-family="Helvetica,sans-Serif" font-size="10.00">ClearMostParameters</text>
</a>
</g>
</g>
<!-- Node12&#45;&gt;Node13 -->
<g id="edge12" class="edge">
<title>Node12&#45;&gt;Node13</title>
<path fill="none" stroke="#63b8ff" d="M880.17,-797.44C898.88,-808.54 930.86,-826.59 960,-838.59 964.7,-840.53 969.67,-842.36 974.68,-844.08"/>
<polygon fill="#63b8ff" stroke="#63b8ff" points="973.57,-847.4 984.16,-847.16 975.73,-840.74 973.57,-847.4"/>
</g>
<!-- Node14 -->
<g id="node14" class="node">
<title>Node14</title>
<g id="a_node14"><a xlink:href="Utilities_8h.html#a549a702bb9b539c6b3a4f20cce65adcc" target="_top" xlink:title=" ">
<polygon fill="#fff0f0" stroke="red" points="1073,-680.09 975,-680.09 975,-661.09 1073,-661.09 1073,-680.09"/>
<text text-anchor="middle" x="1024" y="-668.09" font-family="Helvetica,sans-Serif" font-size="10.00">GetLEDBrightness</text>
</a>
</g>
</g>
<!-- Node12&#45;&gt;Node14 -->
<g id="edge13" class="edge">
<title>Node12&#45;&gt;Node14</title>
<path fill="none" stroke="#63b8ff" d="M888.25,-777.64C900.07,-771.91 913.89,-763.8 924,-753.59 947.24,-730.12 934.15,-709.14 960,-688.59 961.5,-687.4 963.08,-686.28 964.71,-685.24"/>
<polygon fill="#63b8ff" stroke="#63b8ff" points="966.03,-688.51 973.26,-680.76 962.78,-682.31 966.03,-688.51"/>
</g>
<!-- Node24 -->
<g id="node15" class="node">
<title>Node24</title>
<g id="a_node15"><a xlink:href="TransmitterCode_2src_2main_8cpp.html#a2d5ec5fd5ed62d5b7b071fabe2225405" target="_top" xlink:title=" ">
<polygon fill="#fff0f0" stroke="red" points="1072,-830.09 976,-830.09 976,-811.09 1072,-811.09 1072,-830.09"/>
<text text-anchor="middle" x="1024" y="-818.09" font-family="Helvetica,sans-Serif" font-size="10.00">LogDisConnection</text>
</a>
</g>
</g>
<!-- Node12&#45;&gt;Node24 -->
<g id="edge14" class="edge">
<title>Node12&#45;&gt;Node24</title>
<path fill="none" stroke="#63b8ff" d="M894.66,-793.95C914.44,-798.06 940.82,-803.53 964.52,-808.45"/>
<polygon fill="#63b8ff" stroke="#63b8ff" points="963.55,-811.83 974.06,-810.43 964.98,-804.97 963.55,-811.83"/>
</g>
<!-- Node40 -->
<g id="node16" class="node">
<title>Node40</title>
<g id="a_node16"><a xlink:href="Utilities_8h.html#aa490b4664b0a4498d53b30b82287d5df" target="_top" xlink:title=" ">
<polygon fill="#fff0f0" stroke="red" points="1210.5,-418.09 1147.5,-418.09 1147.5,-399.09 1210.5,-399.09 1210.5,-418.09"/>
<text text-anchor="middle" x="1179" y="-406.09" font-family="Helvetica,sans-Serif" font-size="10.00">PlaySound</text>
</a>
</g>
</g>
<!-- Node12&#45;&gt;Node40 -->
<g id="edge15" class="edge">
<title>Node12&#45;&gt;Node40</title>
<path fill="none" stroke="#63b8ff" d="M894.69,-794.06C942.24,-802.14 1033.85,-809.75 1088,-762.59 1139.43,-717.8 1167.98,-498.33 1175.78,-429.37"/>
<polygon fill="#63b8ff" stroke="#63b8ff" points="1179.22,-430.15 1176.83,-419.82 1172.26,-429.38 1179.22,-430.15"/>
</g>
<!-- Node41 -->
<g id="node17" class="node">
<title>Node41</title>
<g id="a_node17"><a xlink:href="TransmitterCode_2src_2main_8cpp.html#a083c423be6ce1635de5961d0fc72ff06" target="_top" xlink:title=" ">
<polygon fill="white" stroke="#666666" points="1073.5,-754.09 974.5,-754.09 974.5,-735.09 1073.5,-735.09 1073.5,-754.09"/>
<text text-anchor="middle" x="1024" y="-742.09" font-family="Helvetica,sans-Serif" font-size="10.00">SetUKFrequencies</text>
</a>
</g>
</g>
<!-- Node12&#45;&gt;Node41 -->
<g id="edge19" class="edge">
<title>Node12&#45;&gt;Node41</title>
<path fill="none" stroke="#63b8ff" d="M894.66,-779.3C917.56,-773.11 949.28,-764.53 975.46,-757.45"/>
<polygon fill="#63b8ff" stroke="#63b8ff" points="976.1,-760.9 984.84,-754.91 974.27,-754.14 976.1,-760.9"/>
</g>
<!-- Node40&#45;&gt;Node4 -->
<g id="edge16" class="edge">
<title>Node40&#45;&gt;Node4</title>
<path fill="none" stroke="#63b8ff" d="M1166.14,-418.55C1149.78,-431.62 1118.78,-454.04 1088,-463.59 920.95,-515.44 869.92,-484.59 695,-484.59 550,-484.59 550,-484.59 550,-484.59 365.91,-484.59 328.61,-798.76 321.87,-884.3"/>
<polygon fill="#63b8ff" stroke="#63b8ff" points="318.39,-883.86 321.16,-894.09 325.37,-884.37 318.39,-883.86"/>
</g>
<!-- Node43 -->
<g id="node19" class="node">
<title>Node43</title>
<g id="a_node19"><a xlink:href="transceiver_8h.html#a52aa3e80bccf5e75346c93fdae63122d" target="_top" xlink:title=" ">
<polygon fill="#fff0f0" stroke="red" points="1074.5,-569.09 973.5,-569.09 973.5,-550.09 1074.5,-550.09 1074.5,-569.09"/>
<text text-anchor="middle" x="1024" y="-557.09" font-family="Helvetica,sans-Serif" font-size="10.00">HopToNextChannel</text>
</a>
</g>
</g>
<!-- Node42&#45;&gt;Node43 -->
<g id="edge21" class="edge">
<title>Node42&#45;&gt;Node43</title>
<path fill="none" stroke="#63b8ff" d="M906.61,-586.67C925.86,-582.2 948.81,-576.85 969.23,-572.1"/>
<polygon fill="#63b8ff" stroke="#63b8ff" points="969.85,-575.55 978.8,-569.88 968.27,-568.73 969.85,-575.55"/>
</g>
<!-- Node47 -->
<g id="node21" class="node">
<title>Node47</title>
<g id="a_node21"><a xlink:href="transceiver_8h.html#ad0e30213b21808d00110752679788a8c" target="_top" xlink:title=" ">
<polygon fill="#fff0f0" stroke="red" points="1061,-606.09 987,-606.09 987,-587.09 1061,-587.09 1061,-606.09"/>
<text text-anchor="middle" x="1024" y="-594.09" font-family="Helvetica,sans-Serif" font-size="10.00">TryOtherPipe</text>
</a>
</g>
</g>
<!-- Node42&#45;&gt;Node47 -->
<g id="edge23" class="edge">
<title>Node42&#45;&gt;Node47</title>
<path fill="none" stroke="#63b8ff" d="M907.45,-596.59C928.49,-596.59 953.81,-596.59 975.38,-596.59"/>
<polygon fill="#63b8ff" stroke="#63b8ff" points="975.08,-600.09 985.08,-596.59 975.08,-593.09 975.08,-600.09"/>
</g>
<!-- Node43&#45;&gt;Node46 -->
<g id="edge22" class="edge">
<title>Node43&#45;&gt;Node46</title>
<path fill="none" stroke="#63b8ff" d="M1074.92,-568.37C1079.76,-570.76 1084.25,-573.78 1088,-577.59 1133.27,-623.65 1165.58,-826.87 1175.1,-893.42"/>
<polygon fill="#63b8ff" stroke="#63b8ff" points="1171.63,-893.9 1176.49,-903.32 1178.57,-892.93 1171.63,-893.9"/>
</g>
<!-- Node49&#45;&gt;Node46 -->
<g id="edge25" class="edge">
<title>Node49&#45;&gt;Node46</title>
<path fill="none" stroke="#63b8ff" d="M725.44,-873.78C774.54,-883.46 874.41,-901.86 960,-909.59 1024.65,-915.43 1100.5,-915.69 1143.54,-915.22"/>
<polygon fill="#63b8ff" stroke="#63b8ff" points="1143.56,-918.72 1153.52,-915.09 1143.47,-911.72 1143.56,-918.72"/>
</g>
<!-- Node51 -->
<g id="node24" class="node">
<title>Node51</title>
<g id="a_node24"><a xlink:href="transceiver_8h.html#adac102739147db6397bbcbb371aec4fd" target="_top" xlink:title=" ">
<polygon fill="white" stroke="#666666" points="907.5,-745.09 818.5,-745.09 818.5,-726.09 907.5,-726.09 907.5,-745.09"/>
<text text-anchor="middle" x="863" y="-733.09" font-family="Helvetica,sans-Serif" font-size="10.00">LoadParameters</text>
</a>
</g>
</g>
<!-- Node50&#45;&gt;Node51 -->
<g id="edge28" class="edge">
<title>Node50&#45;&gt;Node51</title>
<path fill="none" stroke="#63b8ff" d="M753.88,-747.24C771.05,-745.39 789.74,-743.38 806.68,-741.55"/>
<polygon fill="#63b8ff" stroke="#63b8ff" points="807.01,-745.04 816.58,-740.49 806.26,-738.08 807.01,-745.04"/>
</g>
<!-- Node51&#45;&gt;Node41 -->
<g id="edge31" class="edge">
<title>Node51&#45;&gt;Node41</title>
<path fill="none" stroke="#63b8ff" d="M907.87,-738.07C924.84,-739.03 944.54,-740.15 962.8,-741.18"/>
<polygon fill="#63b8ff" stroke="#63b8ff" points="962.55,-744.67 972.73,-741.74 962.94,-737.68 962.55,-744.67"/>
</g>
<!-- Node52 -->
<g id="node25" class="node">
<title>Node52</title>
<g id="a_node25"><a xlink:href="TransmitterCode_2src_2main_8cpp.html#a5aa4888b924a4f1d95e9cedc3004f2b6" target="_top" xlink:title=" ">
<polygon fill="white" stroke="#666666" points="1065.5,-717.09 982.5,-717.09 982.5,-698.09 1065.5,-698.09 1065.5,-717.09"/>
<text text-anchor="middle" x="1024" y="-705.09" font-family="Helvetica,sans-Serif" font-size="10.00">MakeTwobytes</text>
</a>
</g>
</g>
<!-- Node51&#45;&gt;Node52 -->
<g id="edge29" class="edge">
<title>Node51&#45;&gt;Node52</title>
<path fill="none" stroke="#63b8ff" d="M907.87,-727.86C927.32,-724.44 950.37,-720.38 970.71,-716.8"/>
<polygon fill="#63b8ff" stroke="#63b8ff" points="971.27,-720.25 980.51,-715.07 970.06,-713.36 971.27,-720.25"/>
</g>
<!-- Node53 -->
<g id="node26" class="node">
<title>Node53</title>
<g id="a_node26"><a xlink:href="TransmitterCode_2src_2main_8cpp.html#a60a8ba3819508aedbe1d59640b0a79b0" target="_top" xlink:title=" ">
<polygon fill="white" stroke="#666666" points="1076,-643.09 972,-643.09 972,-624.09 1076,-624.09 1076,-643.09"/>
<text text-anchor="middle" x="1024" y="-631.09" font-family="Helvetica,sans-Serif" font-size="10.00">SetTestFrequencies</text>
</a>
</g>
</g>
<!-- Node51&#45;&gt;Node53 -->
<g id="edge30" class="edge">
<title>Node51&#45;&gt;Node53</title>
<path fill="none" stroke="#63b8ff" d="M872.48,-725.73C888.06,-708.23 923.04,-671.71 960,-651.59 962.54,-650.21 965.19,-648.93 967.91,-647.73"/>
<polygon fill="#63b8ff" stroke="#63b8ff" points="969.16,-651 977.22,-644.12 966.63,-644.47 969.16,-651"/>
</g>
<!-- Node54&#45;&gt;Node46 -->
<g id="edge39" class="edge">
<title>Node54&#45;&gt;Node46</title>
<path fill="none" stroke="#63b8ff" d="M745.43,-950.01C820.7,-958.27 966.57,-969.15 1088,-947.59 1108.3,-943.99 1130.02,-936.14 1147.04,-929.01"/>
<polygon fill="#63b8ff" stroke="#63b8ff" points="1148.32,-932.27 1156.1,-925.08 1145.53,-925.85 1148.32,-932.27"/>
</g>
<!-- Node55 -->
<g id="node28" class="node">
<title>Node55</title>
<g id="a_node28"><a xlink:href="BuddyWireless_8h.html#af59c2527be7a67d6b09dd467f3123d55" target="_top" xlink:title=" ">
<polygon fill="white" stroke="#666666" points="898.5,-1019.09 827.5,-1019.09 827.5,-1000.09 898.5,-1000.09 898.5,-1019.09"/>
<text text-anchor="middle" x="863" y="-1007.09" font-family="Helvetica,sans-Serif" font-size="10.00">GetPupilAck</text>
</a>
</g>
</g>
<!-- Node54&#45;&gt;Node55 -->
<g id="edge33" class="edge">
<title>Node54&#45;&gt;Node55</title>
<path fill="none" stroke="#63b8ff" d="M727.51,-953.54C739.72,-957.54 753.63,-962.43 766,-967.59 782.51,-974.47 785.68,-978.26 802,-985.59 809.44,-988.93 817.5,-992.31 825.22,-995.44"/>
<polygon fill="#63b8ff" stroke="#63b8ff" points="823.82,-998.65 834.41,-999.1 826.41,-992.15 823.82,-998.65"/>
</g>
<!-- Node57 -->
<g id="node30" class="node">
<title>Node57</title>
<g id="a_node30"><a xlink:href="BuddyWireless_8h.html#a89fc05df708fec875356b62d21b2ce7b" target="_top" xlink:title=" ">
<polygon fill="white" stroke="#666666" points="901.5,-1056.09 824.5,-1056.09 824.5,-1037.09 901.5,-1037.09 901.5,-1056.09"/>
<text text-anchor="middle" x="863" y="-1044.09" font-family="Helvetica,sans-Serif" font-size="10.00">PupilDetected</text>
</a>
</g>
</g>
<!-- Node54&#45;&gt;Node57 -->
<g id="edge36" class="edge">
<title>Node54&#45;&gt;Node57</title>
<path fill="none" stroke="#63b8ff" d="M740.3,-953.53C749.44,-956.96 758.52,-961.52 766,-967.59 790.44,-987.43 777.22,-1009.18 802,-1028.59 805.51,-1031.34 809.44,-1033.67 813.56,-1035.65"/>
<polygon fill="#63b8ff" stroke="#63b8ff" points="812.07,-1038.82 822.66,-1039.3 814.68,-1032.33 812.07,-1038.82"/>
</g>
<!-- Node55&#45;&gt;Node46 -->
<g id="edge35" class="edge">
<title>Node55&#45;&gt;Node46</title>
<path fill="none" stroke="#63b8ff" d="M898.86,-1018.2C916.97,-1022.23 939.54,-1026.58 960,-1028.59 1016.62,-1034.14 1036.81,-1053.4 1088,-1028.59 1128.31,-1009.06 1156.01,-961.75 1169.19,-934.61"/>
<polygon fill="#63b8ff" stroke="#63b8ff" points="1172.28,-936.27 1173.31,-925.73 1165.93,-933.33 1172.28,-936.27"/>
</g>
<!-- Node56 -->
<g id="node29" class="node">
<title>Node56</title>
<g id="a_node29"><a xlink:href="transceiver_8h.html#a6feccc8c0583de3235616d42076f1371" target="_top" xlink:title=" ">
<polygon fill="white" stroke="#666666" points="1059.5,-1019.09 988.5,-1019.09 988.5,-1000.09 1059.5,-1000.09 1059.5,-1019.09"/>
<text text-anchor="middle" x="1024" y="-1007.09" font-family="Helvetica,sans-Serif" font-size="10.00">Decompress</text>
</a>
</g>
</g>
<!-- Node55&#45;&gt;Node56 -->
<g id="edge34" class="edge">
<title>Node55&#45;&gt;Node56</title>
<path fill="none" stroke="#63b8ff" d="M898.89,-1009.59C921.78,-1009.59 951.96,-1009.59 976.82,-1009.59"/>
<polygon fill="#63b8ff" stroke="#63b8ff" points="976.67,-1013.09 986.67,-1009.59 976.67,-1006.09 976.67,-1013.09"/>
</g>
<!-- Node57&#45;&gt;Node2 -->
<g id="edge38" class="edge">
<title>Node57&#45;&gt;Node2</title>
<path fill="none" stroke="#63b8ff" d="M824.32,-1048.79C765.98,-1052 650.28,-1057.59 552,-1057.59 437.5,-1057.59 437.5,-1057.59 437.5,-1057.59 343.86,-1057.59 260.41,-965.24 228.15,-924.5"/>
<polygon fill="#63b8ff" stroke="#63b8ff" points="231.05,-922.53 222.17,-916.76 225.51,-926.81 231.05,-922.53"/>
</g>
<!-- Node57&#45;&gt;Node4 -->
<g id="edge37" class="edge">
<title>Node57&#45;&gt;Node4</title>
<path fill="none" stroke="#63b8ff" d="M824.14,-1045.6C742.63,-1042.25 545.9,-1027.5 397,-962.59 378.67,-954.6 377.04,-947.54 361,-935.59 355.25,-931.3 349.02,-926.68 343.22,-922.38"/>
<polygon fill="#63b8ff" stroke="#63b8ff" points="345.35,-919.61 335.23,-916.47 341.19,-925.23 345.35,-919.61"/>
</g>
<!-- Node59&#45;&gt;Node11 -->
<g id="edge69" class="edge">
<title>Node59&#45;&gt;Node11</title>
<path fill="none" stroke="#63b8ff" d="M701.55,-437.33C716.66,-459.07 756.21,-511.9 802,-540.59 804.73,-542.3 807.64,-543.87 810.63,-545.31"/>
<polygon fill="#63b8ff" stroke="#63b8ff" points="809.09,-548.46 819.66,-549.12 811.81,-542.01 809.09,-548.46"/>
</g>
<!-- Node59&#45;&gt;Node46 -->
<g id="edge68" class="edge">
<title>Node59&#45;&gt;Node46</title>
<path fill="none" stroke="#63b8ff" d="M742.43,-435.14C836.12,-450.99 1040.02,-490.46 1088,-540.59 1137.78,-592.6 1167.54,-822.24 1175.7,-893.45"/>
<polygon fill="#63b8ff" stroke="#63b8ff" points="1172.21,-893.78 1176.8,-903.33 1179.17,-893 1172.21,-893.78"/>
</g>
<!-- Node60 -->
<g id="node33" class="node">
<title>Node60</title>
<g id="a_node33"><a xlink:href="transceiver_8h.html#a953f1d5046e183549ed95b08f6d675e3" target="_top" xlink:title=" ">
<polygon fill="white" stroke="#666666" points="912,-376.09 814,-376.09 814,-357.09 912,-357.09 912,-376.09"/>
<text text-anchor="middle" x="863" y="-364.09" font-family="Helvetica,sans-Serif" font-size="10.00">CheckGapsLength</text>
</a>
</g>
</g>
<!-- Node59&#45;&gt;Node60 -->
<g id="edge42" class="edge">
<title>Node59&#45;&gt;Node60</title>
<path fill="none" stroke="#63b8ff" d="M722.2,-417.65C749.98,-407.51 793.32,-391.68 824.38,-380.33"/>
<polygon fill="#63b8ff" stroke="#63b8ff" points="825.19,-383.76 833.39,-377.04 822.79,-377.18 825.19,-383.76"/>
</g>
<!-- Node62 -->
<g id="node35" class="node">
<title>Node62</title>
<g id="a_node35"><a xlink:href="TransmitterCode_2src_2main_8cpp.html#a62e53eb9359c32b666e3386d62c57037" target="_top" xlink:title=" ">
<polygon fill="white" stroke="#666666" points="899,-418.09 827,-418.09 827,-399.09 899,-399.09 899,-418.09"/>
<text text-anchor="middle" x="863" y="-406.09" font-family="Helvetica,sans-Serif" font-size="10.00">GreenLedOn</text>
</a>
</g>
</g>
<!-- Node59&#45;&gt;Node62 -->
<g id="edge44" class="edge">
<title>Node59&#45;&gt;Node62</title>
<path fill="none" stroke="#63b8ff" d="M742.41,-422.2C765.24,-419.6 792.52,-416.49 815.26,-413.91"/>
<polygon fill="#63b8ff" stroke="#63b8ff" points="815.65,-417.39 825.19,-412.78 814.86,-410.43 815.65,-417.39"/>
</g>
<!-- Node73 -->
<g id="node39" class="node">
<title>Node73</title>
<g id="a_node39"><a xlink:href="Utilities_8h.html#a793b7bcd77531c95fe72ed4356d421c8" target="_top" xlink:title=" ">
<polygon fill="white" stroke="#666666" points="1234,-176.09 1124,-176.09 1124,-157.09 1234,-157.09 1234,-176.09"/>
<text text-anchor="middle" x="1179" y="-164.09" font-family="Helvetica,sans-Serif" font-size="10.00">StartInactvityTimeout</text>
</a>
</g>
</g>
<!-- Node59&#45;&gt;Node73 -->
<g id="edge70" class="edge">
<title>Node59&#45;&gt;Node73</title>
<path fill="none" stroke="#63b8ff" d="M696.31,-417.79C702.07,-377.92 728.16,-225.51 802,-128.59 854.01,-60.32 878.17,-43.46 960,-17.59 1014.24,-0.44 1038.45,10.37 1088,-17.59 1113.4,-31.92 1151.67,-109.36 1168.95,-146.58"/>
<polygon fill="#63b8ff" stroke="#63b8ff" points="1165.63,-147.72 1172.98,-155.35 1171.99,-144.8 1165.63,-147.72"/>
</g>
<!-- Node75 -->
<g id="node41" class="node">
<title>Node75</title>
<g id="a_node41"><a xlink:href="transceiver_8h.html#a694f4f5a0147f4dc29b0bc1a8951547d" target="_top" xlink:title=" ">
<polygon fill="#fff0f0" stroke="red" points="910,-157.09 816,-157.09 816,-138.09 910,-138.09 910,-157.09"/>
<text text-anchor="middle" x="863" y="-145.09" font-family="Helvetica,sans-Serif" font-size="10.00">ParseAckPayload</text>
</a>
</g>
</g>
<!-- Node59&#45;&gt;Node75 -->
<g id="edge55" class="edge">
<title>Node59&#45;&gt;Node75</title>
<path fill="none" stroke="#63b8ff" d="M700.94,-417.62C725.29,-376.8 817.68,-221.9 850.41,-167.02"/>
<polygon fill="#63b8ff" stroke="#63b8ff" points="853.24,-169.12 855.35,-158.74 847.22,-165.53 853.24,-169.12"/>
</g>
<!-- Node225 -->
<g id="node49" class="node">
<title>Node225</title>
<g id="a_node49"><a xlink:href="transceiver_8h.html#a04937e814dba3f5e07cb34bb13130ff3" target="_top" xlink:title=" ">
<polygon fill="white" stroke="#666666" points="921.5,-532.09 804.5,-532.09 804.5,-513.09 921.5,-513.09 921.5,-532.09"/>
<text text-anchor="middle" x="863" y="-520.09" font-family="Helvetica,sans-Serif" font-size="10.00">ParseShortAckPayload</text>
</a>
</g>
</g>
<!-- Node59&#45;&gt;Node225 -->
<g id="edge66" class="edge">
<title>Node59&#45;&gt;Node225</title>
<path fill="none" stroke="#63b8ff" d="M712.56,-437.58C741.62,-454.11 799.96,-487.3 834.52,-506.96"/>
<polygon fill="#63b8ff" stroke="#63b8ff" points="832.69,-509.94 843.11,-511.85 836.15,-503.86 832.69,-509.94"/>
</g>
<!-- Node61 -->
<g id="node34" class="node">
<title>Node61</title>
<g id="a_node34"><a xlink:href="TransmitterCode_2src_2main_8cpp.html#a1fadc7cdd854f8b3628b622da5417d8b" target="_top" xlink:title=" ">
<polygon fill="#fff0f0" stroke="red" points="1059,-305.09 989,-305.09 989,-286.09 1059,-286.09 1059,-305.09"/>
<text text-anchor="middle" x="1024" y="-293.09" font-family="Helvetica,sans-Serif" font-size="10.00">LogThisGap</text>
</a>
</g>
</g>
<!-- Node60&#45;&gt;Node61 -->
<g id="edge43" class="edge">
<title>Node60&#45;&gt;Node61</title>
<path fill="none" stroke="#63b8ff" d="M882.89,-356.71C902.07,-346.82 932.77,-331.41 960,-319.59 967.82,-316.19 976.3,-312.78 984.42,-309.65"/>
<polygon fill="#63b8ff" stroke="#63b8ff" points="985.66,-312.92 993.76,-306.1 983.17,-306.38 985.66,-312.92"/>
</g>
<!-- Node62&#45;&gt;Node14 -->
<g id="edge46" class="edge">
<title>Node62&#45;&gt;Node14</title>
<path fill="none" stroke="#63b8ff" d="M871.83,-418.52C884.58,-435.17 909.84,-470.18 924,-503.59 950.42,-565.92 913.45,-602.44 960,-651.59 961.53,-653.21 963.2,-654.69 964.96,-656.04"/>
<polygon fill="#63b8ff" stroke="#63b8ff" points="962.86,-658.87 973.23,-661.06 966.49,-652.88 962.86,-658.87"/>
</g>
<!-- Node62&#45;&gt;Node40 -->
<g id="edge48" class="edge">
<title>Node62&#45;&gt;Node40</title>
<path fill="none" stroke="#63b8ff" d="M894.59,-398.7C904.33,-394.94 914.93,-390.19 924,-384.59 942.21,-373.34 939.99,-360.2 960,-352.59 1013.18,-332.37 1033.3,-336.96 1088,-352.59 1114.58,-360.18 1140.95,-378.14 1158.2,-391.69"/>
<polygon fill="#63b8ff" stroke="#63b8ff" points="1155.65,-394.13 1165.62,-397.71 1160.07,-388.69 1155.65,-394.13"/>
</g>
<!-- Node63 -->
<g id="node36" class="node">
<title>Node63</title>
<g id="a_node36"><a xlink:href="Utilities_8h.html#a82b1900a80d1622896601c57d6edaeda" target="_top" xlink:title=" ">
<polygon fill="white" stroke="#666666" points="1073,-381.09 975,-381.09 975,-362.09 1073,-362.09 1073,-381.09"/>
<text text-anchor="middle" x="1024" y="-369.09" font-family="Helvetica,sans-Serif" font-size="10.00">ClearSuccessRate</text>
</a>
</g>
</g>
<!-- Node62&#45;&gt;Node63 -->
<g id="edge45" class="edge">
<title>Node62&#45;&gt;Node63</title>
<path fill="none" stroke="#63b8ff" d="M899.29,-400.38C919.81,-395.6 946.09,-389.49 969.15,-384.12"/>
<polygon fill="#63b8ff" stroke="#63b8ff" points="969.75,-387.57 978.7,-381.9 968.16,-380.76 969.75,-387.57"/>
</g>
<!-- Node64 -->
<g id="node37" class="node">
<title>Node64</title>
<g id="a_node37"><a xlink:href="TransmitterCode_2src_2main_8cpp.html#aaa3e86084c43b049d52d7d62c58a00b9" target="_top" xlink:title=" ">
<polygon fill="#fff0f0" stroke="red" points="1065,-455.09 983,-455.09 983,-436.09 1065,-436.09 1065,-455.09"/>
<text text-anchor="middle" x="1024" y="-443.09" font-family="Helvetica,sans-Serif" font-size="10.00">LogConnection</text>
</a>
</g>
</g>
<!-- Node62&#45;&gt;Node64 -->
<g id="edge47" class="edge">
<title>Node62&#45;&gt;Node64</title>
<path fill="none" stroke="#63b8ff" d="M899.29,-416.8C920.61,-421.76 948.16,-428.17 971.85,-433.69"/>
<polygon fill="#63b8ff" stroke="#63b8ff" points="970.76,-437.03 981.29,-435.88 972.35,-430.21 970.76,-437.03"/>
</g>
<!-- Node66 -->
<g id="node38" class="node">
<title>Node66</title>
<g id="a_node38"><a xlink:href="TransmitterCode_2src_2main_8cpp.html#a5d3a46c21927cf7a3031a1e68e0b7b48" target="_top" xlink:title="SHOW COMMS.">
<polygon fill="#fff0f0" stroke="red" points="1061.5,-268.09 986.5,-268.09 986.5,-249.09 1061.5,-249.09 1061.5,-268.09"/>
<text text-anchor="middle" x="1024" y="-256.09" font-family="Helvetica,sans-Serif" font-size="10.00">ShowComms</text>
</a>
</g>
</g>
<!-- Node62&#45;&gt;Node66 -->
<g id="edge49" class="edge">
<title>Node62&#45;&gt;Node66</title>
<path fill="none" stroke="#63b8ff" d="M899.48,-400.18C908.44,-396.62 917.38,-391.61 924,-384.59 958.71,-347.78 923.45,-311.58 960,-276.59 964.47,-272.31 969.88,-269.04 975.63,-266.54"/>
<polygon fill="#63b8ff" stroke="#63b8ff" points="976.52,-269.93 984.8,-263.32 974.21,-263.33 976.52,-269.93"/>
</g>
<!-- Node74 -->
<g id="node40" class="node">
<title>Node74</title>
<g id="a_node40"><a xlink:href="TransmitterCode_2src_2main_8cpp.html#a6da9a1fd0b003151f79eabc702ba80ff" target="_top" xlink:title=" ">
<polygon fill="white" stroke="#666666" points="1067.5,-418.09 980.5,-418.09 980.5,-399.09 1067.5,-399.09 1067.5,-418.09"/>
<text text-anchor="middle" x="1024" y="-406.09" font-family="Helvetica,sans-Serif" font-size="10.00">ZeroDataScreen</text>
</a>
</g>
</g>
<!-- Node62&#45;&gt;Node74 -->
<g id="edge54" class="edge">
<title>Node62&#45;&gt;Node74</title>
<path fill="none" stroke="#63b8ff" d="M899.29,-408.59C919.71,-408.59 945.85,-408.59 968.84,-408.59"/>
<polygon fill="#63b8ff" stroke="#63b8ff" points="968.66,-412.09 978.66,-408.59 968.66,-405.09 968.66,-412.09"/>
</g>
<!-- Node66&#45;&gt;Node2 -->
<g id="edge52" class="edge">
<title>Node66&#45;&gt;Node2</title>
<path fill="none" stroke="#63b8ff" d="M986.11,-259.52C925.41,-260.96 800.64,-263.59 695,-263.59 437.5,-263.59 437.5,-263.59 437.5,-263.59 302.83,-263.59 230.65,-773.79 216.57,-884.54"/>
<polygon fill="#63b8ff" stroke="#63b8ff" points="213.12,-883.9 215.36,-894.26 220.07,-884.77 213.12,-883.9"/>
</g>
<!-- Node66&#45;&gt;Node4 -->
<g id="edge51" class="edge">
<title>Node66&#45;&gt;Node4</title>
<path fill="none" stroke="#63b8ff" d="M986.19,-267.2C913.05,-284.01 751.62,-319.59 695,-319.59 550,-319.59 550,-319.59 550,-319.59 454.46,-319.59 441.37,-385.98 397,-470.59 321.37,-614.79 318.57,-819.06 319.82,-884.53"/>
<polygon fill="#63b8ff" stroke="#63b8ff" points="316.31,-884.3 320.06,-894.21 323.31,-884.12 316.31,-884.3"/>
</g>
<!-- Node66&#45;&gt;Node40 -->
<g id="edge50" class="edge">
<title>Node66&#45;&gt;Node40</title>
<path fill="none" stroke="#63b8ff" d="M1061.94,-264.57C1071.03,-267.23 1080.35,-271.06 1088,-276.59 1128.52,-305.84 1156.58,-359.31 1169.65,-388.41"/>
<polygon fill="#63b8ff" stroke="#63b8ff" points="1166.42,-389.74 1173.6,-397.53 1172.84,-386.97 1166.42,-389.74"/>
</g>
<!-- Node66&#45;&gt;Node73 -->
<g id="edge53" class="edge">
<title>Node66&#45;&gt;Node73</title>
<path fill="none" stroke="#63b8ff" d="M1061.94,-250.06C1070.74,-247.33 1079.92,-243.87 1088,-239.59 1115.86,-224.83 1143.33,-200.79 1160.45,-184.36"/>
<polygon fill="#63b8ff" stroke="#63b8ff" points="1162.64,-187.11 1167.33,-177.61 1157.74,-182.12 1162.64,-187.11"/>
</g>
<!-- Node75&#45;&gt;Node43 -->
<g id="edge65" class="edge">
<title>Node75&#45;&gt;Node43</title>
<path fill="none" stroke="#63b8ff" d="M866.97,-157.49C882.77,-210.24 956.53,-456.17 960,-463.59 973.4,-492.21 994.36,-522.19 1008.38,-540.88"/>
<polygon fill="#63b8ff" stroke="#63b8ff" points="1005.41,-542.76 1014.26,-548.58 1010.97,-538.51 1005.41,-542.76"/>
</g>
<!-- Node76 -->
<g id="node42" class="node">
<title>Node76</title>
<g id="a_node42"><a xlink:href="transceiver_8h.html#a75fa77e7bbb1cfe8fe6e1a216fbdc17e" target="_top" xlink:title=" ">
<polygon fill="white" stroke="#666666" points="1056.5,-120.09 991.5,-120.09 991.5,-101.09 1056.5,-101.09 1056.5,-120.09"/>
<text text-anchor="middle" x="1024" y="-108.09" font-family="Helvetica,sans-Serif" font-size="10.00">GetAltitude</text>
</a>
</g>
</g>
<!-- Node75&#45;&gt;Node76 -->
<g id="edge56" class="edge">
<title>Node75&#45;&gt;Node76</title>
<path fill="none" stroke="#63b8ff" d="M906.61,-137.67C929.35,-132.38 957.27,-125.89 980.06,-120.58"/>
<polygon fill="#63b8ff" stroke="#63b8ff" points="980.7,-124.03 989.65,-118.35 979.12,-117.21 980.7,-124.03"/>
</g>
<!-- Node77 -->
<g id="node43" class="node">
<title>Node77</title>
<g id="a_node43"><a xlink:href="transceiver_8h.html#ab5736b017daadeb2c1d7dc73489d31a6" target="_top" xlink:title=" ">
<polygon fill="white" stroke="#666666" points="1232.5,-46.09 1125.5,-46.09 1125.5,-27.09 1232.5,-27.09 1232.5,-46.09"/>
<text text-anchor="middle" x="1179" y="-34.09" font-family="Helvetica,sans-Serif" font-size="10.00">GetFromAckPayload</text>
</a>
</g>
</g>
<!-- Node75&#45;&gt;Node77 -->
<g id="edge59" class="edge">
<title>Node75&#45;&gt;Node77</title>
<path fill="none" stroke="#63b8ff" d="M867.65,-137.63C877.68,-111.94 908.4,-43.63 960,-17.59 1018.94,12.15 1098.31,-7.24 1143.22,-22.76"/>
<polygon fill="#63b8ff" stroke="#63b8ff" points="1141.84,-25.99 1152.43,-26.08 1144.21,-19.4 1141.84,-25.99"/>
</g>
<!-- Node78 -->
<g id="node44" class="node">
<title>Node78</title>
<g id="a_node44"><a xlink:href="transceiver_8h.html#a160b9119423c34869b16a4ebdc421d35" target="_top" xlink:title=" ">
<polygon fill="white" stroke="#666666" points="1087.5,-194.09 960.5,-194.09 960.5,-175.09 1087.5,-175.09 1087.5,-194.09"/>
<text text-anchor="middle" x="1024" y="-182.09" font-family="Helvetica,sans-Serif" font-size="10.00">GetDateFromAckPayload</text>
</a>
</g>
</g>
<!-- Node75&#45;&gt;Node78 -->
<g id="edge58" class="edge">
<title>Node75&#45;&gt;Node78</title>
<path fill="none" stroke="#63b8ff" d="M906.61,-157.51C925.86,-161.98 948.81,-167.33 969.23,-172.08"/>
<polygon fill="#63b8ff" stroke="#63b8ff" points="968.27,-175.45 978.8,-174.3 969.85,-168.63 968.27,-175.45"/>
</g>
<!-- Node79 -->
<g id="node45" class="node">
<title>Node79</title>
<g id="a_node45"><a xlink:href="transceiver_8h.html#a494cb4acb30856d1f53f08df1b80c41b" target="_top" xlink:title=" ">
<polygon fill="#fff0f0" stroke="red" points="1083.5,-157.09 964.5,-157.09 964.5,-138.09 1083.5,-138.09 1083.5,-157.09"/>
<text text-anchor="middle" x="1024" y="-145.09" font-family="Helvetica,sans-Serif" font-size="10.00">GetModelsMacAddress</text>
</a>
</g>
</g>
<!-- Node75&#45;&gt;Node79 -->
<g id="edge60" class="edge">
<title>Node75&#45;&gt;Node79</title>
<path fill="none" stroke="#63b8ff" d="M910.42,-147.59C923.65,-147.59 938.38,-147.59 952.7,-147.59"/>
<polygon fill="#63b8ff" stroke="#63b8ff" points="952.55,-151.09 962.55,-147.59 952.55,-144.09 952.55,-151.09"/>
</g>
<!-- Node110 -->
<g id="node46" class="node">
<title>Node110</title>
<g id="a_node46"><a xlink:href="TransmitterCode_2src_2main_8cpp.html#a4f813935d8fe58355228cbbf25e12f96" target="_top" xlink:title=" ">
<polygon fill="#fff0f0" stroke="red" points="1080.5,-83.09 967.5,-83.09 967.5,-64.09 1080.5,-64.09 1080.5,-83.09"/>
<text text-anchor="middle" x="1024" y="-71.09" font-family="Helvetica,sans-Serif" font-size="10.00">GetRXVersionNumber</text>
</a>
</g>
</g>
<!-- Node75&#45;&gt;Node110 -->
<g id="edge61" class="edge">
<title>Node75&#45;&gt;Node110</title>
<path fill="none" stroke="#63b8ff" d="M878.36,-137.66C896.63,-125.41 929.47,-104.61 960,-91.59 963.78,-89.98 967.75,-88.46 971.77,-87.05"/>
<polygon fill="#63b8ff" stroke="#63b8ff" points="972.63,-90.45 981.05,-84.01 970.45,-83.8 972.63,-90.45"/>
</g>
<!-- Node222 -->
<g id="node47" class="node">
<title>Node222</title>
<g id="a_node47"><a xlink:href="transceiver_8h.html#a19f6fc09d690832e74fd3c679207f07f" target="_top" xlink:title=" ">
<polygon fill="white" stroke="#666666" points="1067.5,-46.09 980.5,-46.09 980.5,-27.09 1067.5,-27.09 1067.5,-46.09"/>
<text text-anchor="middle" x="1024" y="-34.09" font-family="Helvetica,sans-Serif" font-size="10.00">GetTemperature</text>
</a>
</g>
</g>
<!-- Node75&#45;&gt;Node222 -->
<g id="edge62" class="edge">
<title>Node75&#45;&gt;Node222</title>
<path fill="none" stroke="#63b8ff" d="M871.31,-137.83C885.99,-118.91 921.02,-77.11 960,-54.59 963.01,-52.85 966.19,-51.27 969.47,-49.84"/>
<polygon fill="#63b8ff" stroke="#63b8ff" points="970.65,-53.14 978.74,-46.29 968.15,-46.6 970.65,-53.14"/>
</g>
<!-- Node223 -->
<g id="node48" class="node">
<title>Node223</title>
<g id="a_node48"><a xlink:href="transceiver_8h.html#a86523345ecdd52f3d93dccd6fcf4370a" target="_top" xlink:title=" ">
<polygon fill="white" stroke="#666666" points="1088,-231.09 960,-231.09 960,-212.09 1088,-212.09 1088,-231.09"/>
<text text-anchor="middle" x="1024" y="-219.09" font-family="Helvetica,sans-Serif" font-size="10.00">GetTimeFromAckPayload</text>
</a>
</g>
</g>
<!-- Node75&#45;&gt;Node223 -->
<g id="edge64" class="edge">
<title>Node75&#45;&gt;Node223</title>
<path fill="none" stroke="#63b8ff" d="M878.74,-157.46C897.13,-169.42 929.83,-189.6 960,-202.59 964.55,-204.55 969.37,-206.39 974.23,-208.1"/>
<polygon fill="#63b8ff" stroke="#63b8ff" points="972.83,-211.32 983.42,-211.13 975.02,-204.67 972.83,-211.32"/>
</g>
<!-- Node76&#45;&gt;Node77 -->
<g id="edge57" class="edge">
<title>Node76&#45;&gt;Node77</title>
<path fill="none" stroke="#63b8ff" d="M1056.98,-102.66C1067.1,-99.7 1078.2,-95.98 1088,-91.59 1111.89,-80.9 1137.16,-65 1154.82,-53.04"/>
<polygon fill="#63b8ff" stroke="#63b8ff" points="1156.78,-55.94 1163.03,-47.38 1152.81,-50.18 1156.78,-55.94"/>
</g>
<!-- Node222&#45;&gt;Node77 -->
<g id="edge63" class="edge">
<title>Node222&#45;&gt;Node77</title>
<path fill="none" stroke="#63b8ff" d="M1067.62,-36.59C1081.99,-36.59 1098.36,-36.59 1114.02,-36.59"/>
<polygon fill="#63b8ff" stroke="#63b8ff" points="1113.74,-40.09 1123.74,-36.59 1113.74,-33.09 1113.74,-40.09"/>
</g>
<!-- Node225&#45;&gt;Node43 -->
<g id="edge67" class="edge">
<title>Node225&#45;&gt;Node43</title>
<path fill="none" stroke="#63b8ff" d="M906.61,-532.51C925.86,-536.98 948.81,-542.33 969.23,-547.08"/>
<polygon fill="#63b8ff" stroke="#63b8ff" points="968.27,-550.45 978.8,-549.3 969.85,-543.63 968.27,-550.45"/>
</g>
</g>
</svg>
