<?xml version="1.0" encoding="UTF-8" standalone="no"?>
<!DOCTYPE svg PUBLIC "-//W3C//DTD SVG 1.1//EN"
 "http://www.w3.org/Graphics/SVG/1.1/DTD/svg11.dtd">
<!-- Generated by graphviz version 7.0.4 (20221203.1631)
 -->
<!-- Title: CheckTXVolts Pages: 1 -->
<svg width="1012pt" height="1055pt"
 viewBox="0.00 0.00 1012.00 1054.55" xmlns="http://www.w3.org/2000/svg" xmlns:xlink="http://www.w3.org/1999/xlink">
<g id="graph0" class="graph" transform="scale(1 1) rotate(0) translate(4 1050.55)">
<title>CheckTXVolts</title>
<!-- Node1 -->
<g id="node1" class="node">
<title>Node1</title>
<g id="a_node1"><a xlink:title=" ">
<polygon fill="#999999" stroke="#666666" points="80,-488 0,-488 0,-469 80,-469 80,-488"/>
<text text-anchor="middle" x="40" y="-476" font-family="Helvetica,sans-Serif" font-size="10.00">CheckTXVolts</text>
</a>
</g>
</g>
<!-- Node2 -->
<g id="node2" class="node">
<title>Node2</title>
<g id="a_node2"><a xlink:href="TransmitterCode_2src_2main_8cpp.html#afe513398f72d5e48f691830a1ef6eb42" target="_top" xlink:title=" ">
<polygon fill="white" stroke="#666666" points="174,-488 116,-488 116,-469 174,-469 174,-488"/>
<text text-anchor="middle" x="145" y="-476" font-family="Helvetica,sans-Serif" font-size="10.00">SendText</text>
</a>
</g>
</g>
<!-- Node1&#45;&gt;Node2 -->
<g id="edge1" class="edge">
<title>Node1&#45;&gt;Node2</title>
<path fill="none" stroke="#63b8ff" d="M80.23,-478.5C88.18,-478.5 96.54,-478.5 104.49,-478.5"/>
<polygon fill="#63b8ff" stroke="#63b8ff" points="104.25,-482 114.25,-478.5 104.25,-475 104.25,-482"/>
</g>
<!-- Node28 -->
<g id="node23" class="node">
<title>Node28</title>
<g id="a_node23"><a xlink:href="TransmitterCode_2src_2main_8cpp.html#a590a9174319918d7e3d7baca323fcf26" target="_top" xlink:title=" ">
<polygon fill="white" stroke="#666666" points="969,-637 940,-637 940,-618 969,-618 969,-637"/>
<text text-anchor="middle" x="954.5" y="-625" font-family="Helvetica,sans-Serif" font-size="10.00">Str</text>
</a>
</g>
</g>
<!-- Node1&#45;&gt;Node28 -->
<g id="edge74" class="edge">
<title>Node1&#45;&gt;Node28</title>
<path fill="none" stroke="#63b8ff" d="M41.07,-468.67C42.06,-404.36 56.29,-46.5 250.5,-46.5 250.5,-46.5 250.5,-46.5 367,-46.5 591.6,-46.5 706.64,50.69 869,-104.5 942.91,-175.15 952.18,-517.55 953.33,-606.4"/>
<polygon fill="#63b8ff" stroke="#63b8ff" points="949.83,-606.33 953.44,-616.3 956.83,-606.26 949.83,-606.33"/>
</g>
<!-- Node41 -->
<g id="node48" class="node">
<title>Node41</title>
<g id="a_node48"><a xlink:href="TransmitterCode_2src_2main_8cpp.html#a1e20efc1e419b252b50d36f9924503fc" target="_top" xlink:title=" ">
<polygon fill="white" stroke="#666666" points="840,-937 776,-937 776,-918 840,-918 840,-937"/>
<text text-anchor="middle" x="808" y="-925" font-family="Helvetica,sans-Serif" font-size="10.00">SendValue</text>
</a>
</g>
</g>
<!-- Node1&#45;&gt;Node41 -->
<g id="edge73" class="edge">
<title>Node1&#45;&gt;Node41</title>
<path fill="none" stroke="#63b8ff" d="M46.32,-488.45C76.11,-542.98 228.44,-806.43 439,-900.5 548.15,-949.26 693.71,-941.28 764.6,-933.37"/>
<polygon fill="#63b8ff" stroke="#63b8ff" points="764.71,-936.88 774.23,-932.24 763.89,-929.93 764.71,-936.88"/>
</g>
<!-- Node3 -->
<g id="node3" class="node">
<title>Node3</title>
<g id="a_node3"><a xlink:href="TransmitterCode_2src_2main_8cpp.html#a43937dd3d9c795271fd9c3eb3c6b6410" target="_top" xlink:title=" ">
<polygon fill="white" stroke="#666666" points="996,-1032 913,-1032 913,-1013 996,-1013 996,-1032"/>
<text text-anchor="middle" x="954.5" y="-1020" font-family="Helvetica,sans-Serif" font-size="10.00">GetReturnCode</text>
</a>
</g>
</g>
<!-- Node2&#45;&gt;Node3 -->
<g id="edge2" class="edge">
<title>Node2&#45;&gt;Node3</title>
<path fill="none" stroke="#63b8ff" d="M148.13,-488.38C161.48,-547.48 239.54,-855.48 439,-966.5 608.19,-1060.67 676.03,-1052.38 869,-1036.5 879.56,-1035.63 890.78,-1034.16 901.48,-1032.49"/>
<polygon fill="#63b8ff" stroke="#63b8ff" points="902.05,-1035.95 911.34,-1030.87 900.91,-1029.04 902.05,-1035.95"/>
</g>
<!-- Node4 -->
<g id="node4" class="node">
<title>Node4</title>
<g id="a_node4"><a xlink:href="TransmitterCode_2src_2main_8cpp.html#aecac2f0c289f02ef3c92b85be82eacac" target="_top" xlink:title=" ">
<polygon fill="white" stroke="#666666" points="293,-488 210,-488 210,-469 293,-469 293,-488"/>
<text text-anchor="middle" x="251.5" y="-476" font-family="Helvetica,sans-Serif" font-size="10.00">SendCommand</text>
</a>
</g>
</g>
<!-- Node2&#45;&gt;Node4 -->
<g id="edge3" class="edge">
<title>Node2&#45;&gt;Node4</title>
<path fill="none" stroke="#63b8ff" d="M174.28,-478.5C181.76,-478.5 190.08,-478.5 198.39,-478.5"/>
<polygon fill="#63b8ff" stroke="#63b8ff" points="198.13,-482 208.13,-478.5 198.13,-475 198.13,-482"/>
</g>
<!-- Node4&#45;&gt;Node3 -->
<g id="edge4" class="edge">
<title>Node4&#45;&gt;Node3</title>
<path fill="none" stroke="#63b8ff" d="M252.23,-488.22C251.48,-531.38 253.33,-708.6 329,-822.5 457.14,-1015.37 775.89,-1028.02 901.47,-1025.07"/>
<polygon fill="#63b8ff" stroke="#63b8ff" points="901.24,-1028.58 911.14,-1024.79 901.05,-1021.58 901.24,-1028.58"/>
</g>
<!-- Node5 -->
<g id="node5" class="node">
<title>Node5</title>
<g id="a_node5"><a xlink:href="TransmitterCode_2src_2main_8cpp.html#a5f109790a6fe0b972a502f3cac4ed1e7" target="_top" xlink:title=" ">
<polygon fill="white" stroke="#666666" points="390,-393 342,-393 342,-374 390,-374 390,-393"/>
<text text-anchor="middle" x="366" y="-381" font-family="Helvetica,sans-Serif" font-size="10.00">InStrng</text>
</a>
</g>
</g>
<!-- Node4&#45;&gt;Node5 -->
<g id="edge5" class="edge">
<title>Node4&#45;&gt;Node5</title>
<path fill="none" stroke="#63b8ff" d="M261.95,-468.78C275.98,-454.6 303.4,-427.7 329,-407.5 332.32,-404.88 335.92,-402.25 339.52,-399.74"/>
<polygon fill="#63b8ff" stroke="#63b8ff" points="341.24,-402.81 347.59,-394.33 337.33,-397 341.24,-402.81"/>
</g>
<!-- Node6 -->
<g id="node6" class="node">
<title>Node6</title>
<g id="a_node6"><a xlink:href="RadioFunctions_8cpp.html#a760609a682300dfe6bfaac737fd4d5eb" target="_top" xlink:title=" ">
<polygon fill="white" stroke="#666666" points="403,-469 329,-469 329,-450 403,-450 403,-469"/>
<text text-anchor="middle" x="366" y="-457" font-family="Helvetica,sans-Serif" font-size="10.00">Procrastinate</text>
</a>
</g>
</g>
<!-- Node4&#45;&gt;Node6 -->
<g id="edge6" class="edge">
<title>Node4&#45;&gt;Node6</title>
<path fill="none" stroke="#63b8ff" d="M293.43,-471.59C301.29,-470.26 309.58,-468.86 317.62,-467.5"/>
<polygon fill="#63b8ff" stroke="#63b8ff" points="317.98,-470.99 327.26,-465.87 316.82,-464.09 317.98,-470.99"/>
</g>
<!-- Node7 -->
<g id="node7" class="node">
<title>Node7</title>
<g id="a_node7"><a xlink:href="RadioFunctions_8cpp.html#a1ddd5e8d5bd649dd98ce3710fbff651b" target="_top" xlink:title=" ">
<polygon fill="white" stroke="#666666" points="528.5,-469 467.5,-469 467.5,-450 528.5,-450 528.5,-469"/>
<text text-anchor="middle" x="498" y="-457" font-family="Helvetica,sans-Serif" font-size="10.00">Compress</text>
</a>
</g>
</g>
<!-- Node6&#45;&gt;Node7 -->
<g id="edge7" class="edge">
<title>Node6&#45;&gt;Node7</title>
<path fill="none" stroke="#63b8ff" d="M403.21,-459.5C419.57,-459.5 438.98,-459.5 455.88,-459.5"/>
<polygon fill="#63b8ff" stroke="#63b8ff" points="455.61,-463 465.61,-459.5 455.61,-456 455.61,-463"/>
</g>
<!-- Node8 -->
<g id="node8" class="node">
<title>Node8</title>
<g id="a_node8"><a xlink:href="TransmitterCode_2src_2main_8cpp.html#a26ae4f6ca14f760bd5eb6e7588fe7c81" target="_top" xlink:title="GET NEW SERVO POSITIONS.">
<polygon fill="white" stroke="#666666" points="557,-545 439,-545 439,-526 557,-526 557,-545"/>
<text text-anchor="middle" x="498" y="-533" font-family="Helvetica,sans-Serif" font-size="10.00">GetNewChannelValues</text>
</a>
</g>
</g>
<!-- Node6&#45;&gt;Node8 -->
<g id="edge8" class="edge">
<title>Node6&#45;&gt;Node8</title>
<path fill="none" stroke="#63b8ff" d="M384,-469.44C405.89,-482.24 444.21,-504.64 470.09,-519.77"/>
<polygon fill="#63b8ff" stroke="#63b8ff" points="468.29,-522.77 478.69,-524.8 471.83,-516.73 468.29,-522.77"/>
</g>
<!-- Node19 -->
<g id="node19" class="node">
<title>Node19</title>
<g id="a_node19"><a xlink:href="TransmitterCode_2src_2main_8cpp.html#ada95a00a341e4a80176eda743a94ab2e" target="_top" xlink:title=" ">
<polygon fill="white" stroke="#666666" points="533,-432 463,-432 463,-413 533,-413 533,-432"/>
<text text-anchor="middle" x="498" y="-420" font-family="Helvetica,sans-Serif" font-size="10.00">KickTheDog</text>
</a>
</g>
</g>
<!-- Node6&#45;&gt;Node19 -->
<g id="edge20" class="edge">
<title>Node6&#45;&gt;Node19</title>
<path fill="none" stroke="#63b8ff" d="M401.84,-449.58C417.11,-445.24 435.25,-440.08 451.57,-435.43"/>
<polygon fill="#63b8ff" stroke="#63b8ff" points="452.4,-438.83 461.06,-432.73 450.49,-432.1 452.4,-438.83"/>
</g>
<!-- Node20 -->
<g id="node20" class="node">
<title>Node20</title>
<g id="a_node20"><a xlink:href="RadioFunctions_8cpp.html#a049bfb836e7aa4a3a48a1a4bd225fafc" target="_top" xlink:title=" ">
<polygon fill="white" stroke="#666666" points="527.5,-263 468.5,-263 468.5,-244 527.5,-244 527.5,-263"/>
<text text-anchor="middle" x="498" y="-251" font-family="Helvetica,sans-Serif" font-size="10.00">SendData</text>
</a>
</g>
</g>
<!-- Node6&#45;&gt;Node20 -->
<g id="edge21" class="edge">
<title>Node6&#45;&gt;Node20</title>
<path fill="none" stroke="#63b8ff" d="M373.12,-449.82C380.28,-438.48 392.5,-419.13 403,-402.5 432.39,-355.94 466.92,-301.19 484.84,-272.79"/>
<polygon fill="#63b8ff" stroke="#63b8ff" points="487.66,-274.87 490.04,-264.54 481.74,-271.14 487.66,-274.87"/>
</g>
<!-- Node111 -->
<g id="node39" class="node">
<title>Node111</title>
<g id="a_node39"><a xlink:href="TransmitterCode_2src_2main_8cpp.html#ad770ee51a34d8c5026e65136884c16bf" target="_top" xlink:title=" ">
<polygon fill="white" stroke="#666666" points="540,-728 456,-728 456,-709 540,-709 540,-728"/>
<text text-anchor="middle" x="498" y="-716" font-family="Helvetica,sans-Serif" font-size="10.00">ShowServoPos</text>
</a>
</g>
</g>
<!-- Node6&#45;&gt;Node111 -->
<g id="edge47" class="edge">
<title>Node6&#45;&gt;Node111</title>
<path fill="none" stroke="#63b8ff" d="M371.94,-469.34C391.12,-507.56 460.94,-646.65 487.05,-698.68"/>
<polygon fill="#63b8ff" stroke="#63b8ff" points="483.76,-699.93 491.38,-707.3 490.02,-696.79 483.76,-699.93"/>
</g>
<!-- Node9 -->
<g id="node9" class="node">
<title>Node9</title>
<g id="a_node9"><a xlink:href="TransmitterCode_2src_2main_8cpp.html#ac77bd940a0faad7b997c9ddf40a7acc6" target="_top" xlink:title=" ">
<polygon fill="white" stroke="#666666" points="679,-581 625,-581 625,-562 679,-562 679,-581"/>
<text text-anchor="middle" x="652" y="-569" font-family="Helvetica,sans-Serif" font-size="10.00">DoMixes</text>
</a>
</g>
</g>
<!-- Node8&#45;&gt;Node9 -->
<g id="edge9" class="edge">
<title>Node8&#45;&gt;Node9</title>
<path fill="none" stroke="#63b8ff" d="M540.94,-545.43C563.83,-550.86 591.93,-557.51 614.01,-562.74"/>
<polygon fill="#63b8ff" stroke="#63b8ff" points="612.93,-566.08 623.47,-564.98 614.55,-559.27 612.93,-566.08"/>
</g>
<!-- Node11 -->
<g id="node11" class="node">
<title>Node11</title>
<g id="a_node11"><a xlink:href="TransmitterCode_2src_2main_8cpp.html#acbd7adcd2b0e2095a89b4a98042b526e" target="_top" xlink:title=" ">
<polygon fill="white" stroke="#666666" points="698,-470 606,-470 606,-451 698,-451 698,-470"/>
<text text-anchor="middle" x="652" y="-458" font-family="Helvetica,sans-Serif" font-size="10.00">DoReverseSense</text>
</a>
</g>
</g>
<!-- Node8&#45;&gt;Node11 -->
<g id="edge11" class="edge">
<title>Node8&#45;&gt;Node11</title>
<path fill="none" stroke="#63b8ff" d="M528.26,-525.6C537.76,-521.82 548.13,-517.05 557,-511.5 575.14,-500.14 574.44,-490.17 593,-479.5 595.98,-477.79 599.14,-476.2 602.38,-474.74"/>
<polygon fill="#63b8ff" stroke="#63b8ff" points="603.54,-478.05 611.5,-471.06 600.92,-471.56 603.54,-478.05"/>
</g>
<!-- Node12 -->
<g id="node12" class="node">
<title>Node12</title>
<g id="a_node12"><a xlink:href="TransmitterCode_2src_2main_8cpp.html#a7a6560a77b8c4dd3925760790beafbd5" target="_top" xlink:title=" ">
<polygon fill="white" stroke="#666666" points="692.5,-655 611.5,-655 611.5,-636 692.5,-636 692.5,-655"/>
<text text-anchor="middle" x="652" y="-643" font-family="Helvetica,sans-Serif" font-size="10.00">DoSlowServos</text>
</a>
</g>
</g>
<!-- Node8&#45;&gt;Node12 -->
<g id="edge12" class="edge">
<title>Node8&#45;&gt;Node12</title>
<path fill="none" stroke="#63b8ff" d="M506.4,-545.37C520.94,-564.1 555.15,-604.93 593,-627.5 595.46,-628.96 598.04,-630.32 600.71,-631.58"/>
<polygon fill="#63b8ff" stroke="#63b8ff" points="599.25,-634.76 609.83,-635.35 601.93,-628.29 599.25,-634.76"/>
</g>
<!-- Node14 -->
<g id="node14" class="node">
<title>Node14</title>
<g id="a_node14"><a xlink:href="TransmitterCode_2src_2main_8cpp.html#af9c038b48102eca9032f10fefd9d5736" target="_top" xlink:title=" ">
<polygon fill="white" stroke="#666666" points="691,-618 613,-618 613,-599 691,-599 691,-618"/>
<text text-anchor="middle" x="652" y="-606" font-family="Helvetica,sans-Serif" font-size="10.00">GetCurveDots</text>
</a>
</g>
</g>
<!-- Node8&#45;&gt;Node14 -->
<g id="edge14" class="edge">
<title>Node8&#45;&gt;Node14</title>
<path fill="none" stroke="#63b8ff" d="M513.42,-545.35C531.41,-557.3 563.41,-577.46 593,-590.5 596.38,-591.99 599.91,-593.41 603.51,-594.74"/>
<polygon fill="#63b8ff" stroke="#63b8ff" points="602.31,-598.03 612.9,-598.02 604.61,-591.42 602.31,-598.03"/>
</g>
<!-- Node17 -->
<g id="node17" class="node">
<title>Node17</title>
<g id="a_node17"><a xlink:href="TransmitterCode_2src_2main_8cpp.html#a248db02e07497e7a4149db17b4e5c2f3" target="_top" xlink:title=" ">
<polygon fill="white" stroke="#666666" points="690.5,-544 613.5,-544 613.5,-525 690.5,-525 690.5,-544"/>
<text text-anchor="middle" x="652" y="-532" font-family="Helvetica,sans-Serif" font-size="10.00">GetStickInput</text>
</a>
</g>
</g>
<!-- Node8&#45;&gt;Node17 -->
<g id="edge17" class="edge">
<title>Node8&#45;&gt;Node17</title>
<path fill="none" stroke="#63b8ff" d="M557.33,-535.12C571.98,-535.02 587.56,-534.92 601.72,-534.82"/>
<polygon fill="#63b8ff" stroke="#63b8ff" points="601.74,-538.32 611.72,-534.76 601.7,-531.32 601.74,-538.32"/>
</g>
<!-- Node18 -->
<g id="node18" class="node">
<title>Node18</title>
<g id="a_node18"><a xlink:href="TransmitterCode_2src_2main_8cpp.html#a07fabdf50e27daf4c4bd38d316a40e68" target="_top" xlink:title=" ">
<polygon fill="white" stroke="#666666" points="695,-507 609,-507 609,-488 695,-488 695,-507"/>
<text text-anchor="middle" x="652" y="-495" font-family="Helvetica,sans-Serif" font-size="10.00">GetTrimAmount</text>
</a>
</g>
</g>
<!-- Node8&#45;&gt;Node18 -->
<g id="edge19" class="edge">
<title>Node8&#45;&gt;Node18</title>
<path fill="none" stroke="#63b8ff" d="M538.94,-525.52C557.63,-520.84 580.1,-515.22 600.01,-510.25"/>
<polygon fill="#63b8ff" stroke="#63b8ff" points="600.75,-513.67 609.6,-507.85 599.05,-506.88 600.75,-513.67"/>
</g>
<!-- Node10 -->
<g id="node10" class="node">
<title>Node10</title>
<g id="a_node10"><a xlink:href="TransmitterCode_2src_2main_8cpp.html#a0d8d8a0d67cb9b04481f1692abe75368" target="_top" xlink:title=" ">
<polygon fill="white" stroke="#666666" points="847.5,-507 768.5,-507 768.5,-488 847.5,-488 847.5,-507"/>
<text text-anchor="middle" x="808" y="-495" font-family="Helvetica,sans-Serif" font-size="10.00">IntoHigherRes</text>
</a>
</g>
</g>
<!-- Node9&#45;&gt;Node10 -->
<g id="edge10" class="edge">
<title>Node9&#45;&gt;Node10</title>
<path fill="none" stroke="#63b8ff" d="M679.3,-566.3C689.67,-563.51 701.38,-559.4 711,-553.5 730.56,-541.51 727.47,-528.55 747,-516.5 750.36,-514.43 753.96,-512.56 757.67,-510.89"/>
<polygon fill="#63b8ff" stroke="#63b8ff" points="758.91,-514.16 766.91,-507.21 756.32,-507.66 758.91,-514.16"/>
</g>
<!-- Node13 -->
<g id="node13" class="node">
<title>Node13</title>
<g id="a_node13"><a xlink:href="RadioFunctions_8cpp.html#a44db40e8ffa545be92871325c4dcdc55" target="_top" xlink:title=" ">
<polygon fill="white" stroke="#666666" points="827,-692 789,-692 789,-673 827,-673 827,-692"/>
<text text-anchor="middle" x="808" y="-680" font-family="Helvetica,sans-Serif" font-size="10.00">Look</text>
</a>
</g>
</g>
<!-- Node12&#45;&gt;Node13 -->
<g id="edge13" class="edge">
<title>Node12&#45;&gt;Node13</title>
<path fill="none" stroke="#63b8ff" d="M692.66,-655.03C719.31,-661.43 753.84,-669.73 777.95,-675.52"/>
<polygon fill="#63b8ff" stroke="#63b8ff" points="776.85,-678.86 787.4,-677.79 778.49,-672.05 776.85,-678.86"/>
</g>
<!-- Node15 -->
<g id="node15" class="node">
<title>Node15</title>
<g id="a_node15"><a xlink:href="TransmitterCode_2src_2main_8cpp.html#afeabb54d48ef7e55693014e057d2943d" target="_top" xlink:title=" ">
<polygon fill="white" stroke="#666666" points="846.5,-581 769.5,-581 769.5,-562 846.5,-562 846.5,-581"/>
<text text-anchor="middle" x="808" y="-569" font-family="Helvetica,sans-Serif" font-size="10.00">CalculateRate</text>
</a>
</g>
</g>
<!-- Node14&#45;&gt;Node15 -->
<g id="edge15" class="edge">
<title>Node14&#45;&gt;Node15</title>
<path fill="none" stroke="#63b8ff" d="M691.46,-599.26C711.64,-594.41 736.58,-588.42 758.12,-583.24"/>
<polygon fill="#63b8ff" stroke="#63b8ff" points="758.65,-586.72 767.56,-580.98 757.01,-579.91 758.65,-586.72"/>
</g>
<!-- Node16 -->
<g id="node16" class="node">
<title>Node16</title>
<g id="a_node16"><a xlink:href="TransmitterCode_2src_2main_8cpp.html#a8f53f86499d740b350f7b6d791c90497" target="_top" xlink:title=" ">
<polygon fill="white" stroke="#666666" points="843.5,-544 772.5,-544 772.5,-525 843.5,-525 843.5,-544"/>
<text text-anchor="middle" x="808" y="-532" font-family="Helvetica,sans-Serif" font-size="10.00">UseFullRate</text>
</a>
</g>
</g>
<!-- Node14&#45;&gt;Node16 -->
<g id="edge16" class="edge">
<title>Node14&#45;&gt;Node16</title>
<path fill="none" stroke="#63b8ff" d="M691.31,-599.59C698.14,-597.18 704.98,-594.19 711,-590.5 730.56,-578.51 727.47,-565.55 747,-553.5 751.53,-550.71 756.5,-548.29 761.59,-546.2"/>
<polygon fill="#63b8ff" stroke="#63b8ff" points="762.47,-549.61 770.67,-542.9 760.08,-543.03 762.47,-549.61"/>
</g>
<!-- Node17&#45;&gt;Node10 -->
<g id="edge18" class="edge">
<title>Node17&#45;&gt;Node10</title>
<path fill="none" stroke="#63b8ff" d="M690.67,-525.45C710.69,-520.64 735.56,-514.66 757.16,-509.48"/>
<polygon fill="#63b8ff" stroke="#63b8ff" points="757.73,-512.94 766.64,-507.2 756.1,-506.13 757.73,-512.94"/>
</g>
<!-- Node21 -->
<g id="node21" class="node">
<title>Node21</title>
<g id="a_node21"><a xlink:href="RadioFunctions_8cpp.html#a5fbd3c8613a4163425c94965704ce5f8" target="_top" xlink:title=" ">
<polygon fill="white" stroke="#666666" points="689,-207 615,-207 615,-188 689,-188 689,-207"/>
<text text-anchor="middle" x="652" y="-195" font-family="Helvetica,sans-Serif" font-size="10.00">FailedPacket</text>
</a>
</g>
</g>
<!-- Node20&#45;&gt;Node21 -->
<g id="edge22" class="edge">
<title>Node20&#45;&gt;Node21</title>
<path fill="none" stroke="#63b8ff" d="M523.2,-243.53C542.1,-235.84 569.07,-225.12 593,-216.5 598.09,-214.67 603.46,-212.81 608.79,-211.01"/>
<polygon fill="#63b8ff" stroke="#63b8ff" points="609.76,-214.37 618.14,-207.9 607.55,-207.73 609.76,-214.37"/>
</g>
<!-- Node57 -->
<g id="node29" class="node">
<title>Node57</title>
<g id="a_node29"><a xlink:href="RadioFunctions_8cpp.html#a07c27b4e208198453c70876517926052" target="_top" xlink:title=" ">
<polygon fill="white" stroke="#666666" points="683,-281 621,-281 621,-262 683,-262 683,-281"/>
<text text-anchor="middle" x="652" y="-269" font-family="Helvetica,sans-Serif" font-size="10.00">FlushFifos</text>
</a>
</g>
</g>
<!-- Node20&#45;&gt;Node57 -->
<g id="edge34" class="edge">
<title>Node20&#45;&gt;Node57</title>
<path fill="none" stroke="#63b8ff" d="M527.95,-256.93C550.95,-259.65 583.44,-263.5 609.26,-266.56"/>
<polygon fill="#63b8ff" stroke="#63b8ff" points="608.75,-270.02 619.09,-267.72 609.58,-263.07 608.75,-270.02"/>
</g>
<!-- Node58 -->
<g id="node30" class="node">
<title>Node58</title>
<g id="a_node30"><a xlink:href="TransmitterCode_2src_2main_8cpp.html#ac4ffb9b555ce8d38f615610dc89b5499" target="_top" xlink:title=" ">
<polygon fill="white" stroke="#666666" points="696.5,-170 607.5,-170 607.5,-151 696.5,-151 696.5,-170"/>
<text text-anchor="middle" x="652" y="-158" font-family="Helvetica,sans-Serif" font-size="10.00">LoadPacketData</text>
</a>
</g>
</g>
<!-- Node20&#45;&gt;Node58 -->
<g id="edge35" class="edge">
<title>Node20&#45;&gt;Node58</title>
<path fill="none" stroke="#63b8ff" d="M509.13,-243.51C525.49,-227.88 559.31,-197.54 593,-179.5 596.27,-177.75 599.73,-176.12 603.27,-174.62"/>
<polygon fill="#63b8ff" stroke="#63b8ff" points="604.52,-177.89 612.58,-171.01 601.99,-171.36 604.52,-177.89"/>
</g>
<!-- Node61 -->
<g id="node33" class="node">
<title>Node61</title>
<g id="a_node33"><a xlink:href="ReceiverCode_2src_2main_8cpp.html#a6a495c5560f12cc3fd3df9454927d681" target="_top" xlink:title=" ">
<polygon fill="white" stroke="#666666" points="689,-318 615,-318 615,-299 689,-299 689,-318"/>
<text text-anchor="middle" x="652" y="-306" font-family="Helvetica,sans-Serif" font-size="10.00">MapToSBUS</text>
</a>
</g>
</g>
<!-- Node20&#45;&gt;Node61 -->
<g id="edge40" class="edge">
<title>Node20&#45;&gt;Node61</title>
<path fill="none" stroke="#63b8ff" d="M522.77,-263.42C541.67,-271.17 568.84,-282.01 593,-290.5 597.42,-292.05 602.05,-293.61 606.69,-295.12"/>
<polygon fill="#63b8ff" stroke="#63b8ff" points="605.4,-298.38 615.99,-298.09 607.52,-291.71 605.4,-298.38"/>
</g>
<!-- Node62 -->
<g id="node34" class="node">
<title>Node62</title>
<g id="a_node34"><a xlink:href="RadioFunctions_8cpp.html#a1c11bb6771548de7d96723045b922620" target="_top" xlink:title=" ">
<polygon fill="white" stroke="#666666" points="700,-244 604,-244 604,-225 700,-225 700,-244"/>
<text text-anchor="middle" x="652" y="-232" font-family="Helvetica,sans-Serif" font-size="10.00">SuccessfulPacket</text>
</a>
</g>
</g>
<!-- Node20&#45;&gt;Node62 -->
<g id="edge41" class="edge">
<title>Node20&#45;&gt;Node62</title>
<path fill="none" stroke="#63b8ff" d="M527.95,-249.88C546.14,-247.61 570.26,-244.59 592.32,-241.83"/>
<polygon fill="#63b8ff" stroke="#63b8ff" points="592.64,-245.32 602.13,-240.61 591.77,-238.38 592.64,-245.32"/>
</g>
<!-- Node22 -->
<g id="node22" class="node">
<title>Node22</title>
<g id="a_node22"><a xlink:href="TransmitterCode_2src_2main_8cpp.html#afd409fe008843b50c3e2ff697558d4d5" target="_top" xlink:title=" ">
<polygon fill="#fff0f0" stroke="red" points="854,-244 762,-244 762,-225 854,-225 854,-244"/>
<text text-anchor="middle" x="808" y="-232" font-family="Helvetica,sans-Serif" font-size="10.00">LogThisLongGap</text>
</a>
</g>
</g>
<!-- Node21&#45;&gt;Node22 -->
<g id="edge23" class="edge">
<title>Node21&#45;&gt;Node22</title>
<path fill="none" stroke="#63b8ff" d="M689.5,-206.27C708.96,-210.95 733.26,-216.78 754.69,-221.93"/>
<polygon fill="#63b8ff" stroke="#63b8ff" points="753.59,-225.27 764.13,-224.2 755.23,-218.46 753.59,-225.27"/>
</g>
<!-- Node33 -->
<g id="node24" class="node">
<title>Node33</title>
<g id="a_node24"><a xlink:href="RadioFunctions_8cpp.html#afc091b5942e21a03f6dc8635d5e519ba" target="_top" xlink:title=" ">
<polygon fill="white" stroke="#666666" points="869,-281 747,-281 747,-262 869,-262 869,-281"/>
<text text-anchor="middle" x="808" y="-269" font-family="Helvetica,sans-Serif" font-size="10.00">RecordsPacketSuccess</text>
</a>
</g>
</g>
<!-- Node21&#45;&gt;Node33 -->
<g id="edge25" class="edge">
<title>Node21&#45;&gt;Node33</title>
<path fill="none" stroke="#63b8ff" d="M689.48,-206.47C696.9,-209.1 704.44,-212.41 711,-216.5 730.47,-228.65 727.38,-241.6 747,-253.5 749.15,-254.81 751.41,-256.02 753.73,-257.16"/>
<polygon fill="#63b8ff" stroke="#63b8ff" points="752.24,-260.33 762.81,-261.02 754.98,-253.89 752.24,-260.33"/>
</g>
<!-- Node34 -->
<g id="node25" class="node">
<title>Node34</title>
<g id="a_node25"><a xlink:href="TransmitterCode_2src_2main_8cpp.html#a7d34cec6e8edc20c8b50424e15dcc7c7" target="_top" xlink:title=" ">
<polygon fill="#fff0f0" stroke="red" points="839.5,-19 776.5,-19 776.5,0 839.5,0 839.5,-19"/>
<text text-anchor="middle" x="808" y="-7" font-family="Helvetica,sans-Serif" font-size="10.00">RedLedOn</text>
</a>
</g>
</g>
<!-- Node21&#45;&gt;Node34 -->
<g id="edge26" class="edge">
<title>Node21&#45;&gt;Node34</title>
<path fill="none" stroke="#63b8ff" d="M689.4,-191.19C697.16,-188.55 704.85,-184.8 711,-179.5 738.99,-155.34 729.1,-136.85 747,-104.5 761.91,-77.55 781.25,-47.71 793.89,-28.79"/>
<polygon fill="#63b8ff" stroke="#63b8ff" points="796.78,-30.76 799.46,-20.51 790.97,-26.85 796.78,-30.76"/>
</g>
<!-- Node52 -->
<g id="node27" class="node">
<title>Node52</title>
<g id="a_node27"><a xlink:href="TransmitterCode_2src_2main_8cpp.html#a0a3d89dfcfab70c6cbc50401fff1afeb" target="_top" xlink:title=" ">
<polygon fill="white" stroke="#666666" points="862.5,-318 753.5,-318 753.5,-299 862.5,-299 862.5,-318"/>
<text text-anchor="middle" x="808" y="-306" font-family="Helvetica,sans-Serif" font-size="10.00">ReEnableScanButton</text>
</a>
</g>
</g>
<!-- Node21&#45;&gt;Node52 -->
<g id="edge30" class="edge">
<title>Node21&#45;&gt;Node52</title>
<path fill="none" stroke="#63b8ff" d="M689.4,-204.51C697.15,-207.28 704.85,-211.14 711,-216.5 738.56,-240.54 719.14,-266.81 747,-290.5 747.95,-291.31 748.94,-292.08 749.96,-292.82"/>
<polygon fill="#63b8ff" stroke="#63b8ff" points="748.1,-295.79 758.5,-297.81 751.63,-289.75 748.1,-295.79"/>
</g>
<!-- Node53 -->
<g id="node28" class="node">
<title>Node53</title>
<g id="a_node28"><a xlink:href="RadioFunctions_8cpp.html#ad0236abcfc887ad708d9504c4ab2a7c3" target="_top" xlink:title=" ">
<polygon fill="#fff0f0" stroke="red" points="852,-207 764,-207 764,-188 852,-188 852,-207"/>
<text text-anchor="middle" x="808" y="-195" font-family="Helvetica,sans-Serif" font-size="10.00">TryToReconnect</text>
</a>
</g>
</g>
<!-- Node21&#45;&gt;Node53 -->
<g id="edge33" class="edge">
<title>Node21&#45;&gt;Node53</title>
<path fill="none" stroke="#63b8ff" d="M689.5,-197.5C708.26,-197.5 731.5,-197.5 752.36,-197.5"/>
<polygon fill="#63b8ff" stroke="#63b8ff" points="752.14,-201 762.14,-197.5 752.14,-194 752.14,-201"/>
</g>
<!-- Node22&#45;&gt;Node28 -->
<g id="edge24" class="edge">
<title>Node22&#45;&gt;Node28</title>
<path fill="none" stroke="#63b8ff" d="M854.36,-243.06C859.85,-245.67 864.93,-249.07 869,-253.5 917.55,-306.33 944.25,-535.41 951.48,-606.43"/>
<polygon fill="#63b8ff" stroke="#63b8ff" points="947.98,-606.66 952.45,-616.26 954.95,-605.97 947.98,-606.66"/>
</g>
<!-- Node34&#45;&gt;Node2 -->
<g id="edge28" class="edge">
<title>Node34&#45;&gt;Node2</title>
<path fill="none" stroke="#63b8ff" d="M776.35,-12.47C734.32,-17.06 656.75,-27.42 593,-46.5 464.75,-84.88 421.3,-94.54 329,-191.5 246.01,-278.67 179.24,-408.8 155.41,-458.35"/>
<polygon fill="#63b8ff" stroke="#63b8ff" points="152.3,-456.75 151.17,-467.29 158.62,-459.76 152.3,-456.75"/>
</g>
<!-- Node34&#45;&gt;Node4 -->
<g id="edge27" class="edge">
<title>Node34&#45;&gt;Node4</title>
<path fill="none" stroke="#63b8ff" d="M781.21,-19.41C691.11,-54.49 392.42,-174.92 329,-253.5 278.28,-316.35 260.4,-414.64 254.79,-457.42"/>
<polygon fill="#63b8ff" stroke="#63b8ff" points="251.32,-456.97 253.6,-467.31 258.27,-457.8 251.32,-456.97"/>
</g>
<!-- Node38 -->
<g id="node26" class="node">
<title>Node38</title>
<g id="a_node26"><a xlink:href="ReceiverCode_2src_2main_8cpp.html#a2eabdb233653fa02f0b899e26b5e8ce7" target="_top" xlink:title=" ">
<polygon fill="white" stroke="#666666" points="1004,-57 905,-57 905,-38 1004,-38 1004,-57"/>
<text text-anchor="middle" x="954.5" y="-45" font-family="Helvetica,sans-Serif" font-size="10.00">SetUKFrequencies</text>
</a>
</g>
</g>
<!-- Node34&#45;&gt;Node38 -->
<g id="edge29" class="edge">
<title>Node34&#45;&gt;Node38</title>
<path fill="none" stroke="#63b8ff" d="M840,-17.65C858.85,-22.61 883.35,-29.05 904.75,-34.68"/>
<polygon fill="#63b8ff" stroke="#63b8ff" points="903.59,-37.99 914.15,-37.15 905.37,-31.22 903.59,-37.99"/>
</g>
<!-- Node52&#45;&gt;Node4 -->
<g id="edge31" class="edge">
<title>Node52&#45;&gt;Node4</title>
<path fill="none" stroke="#63b8ff" d="M761.26,-318.49C745.4,-321.7 727.47,-325.06 711,-327.5 542.23,-352.54 475.56,-278.16 329,-365.5 293.35,-386.74 270.67,-431.82 259.9,-458.17"/>
<polygon fill="#63b8ff" stroke="#63b8ff" points="256.68,-456.81 256.33,-467.4 263.21,-459.33 256.68,-456.81"/>
</g>
<!-- Node52&#45;&gt;Node28 -->
<g id="edge32" class="edge">
<title>Node52&#45;&gt;Node28</title>
<path fill="none" stroke="#63b8ff" d="M856.53,-318.44C861.14,-320.84 865.43,-323.81 869,-327.5 946.36,-407.39 953.97,-552.36 953.96,-606.43"/>
<polygon fill="#63b8ff" stroke="#63b8ff" points="950.47,-606.05 953.86,-616.08 957.47,-606.12 950.47,-606.05"/>
</g>
<!-- Node58&#45;&gt;Node4 -->
<g id="edge37" class="edge">
<title>Node58&#45;&gt;Node4</title>
<path fill="none" stroke="#63b8ff" d="M619.93,-170.47C611.2,-173.33 601.71,-176.49 593,-179.5 465.03,-223.71 412.71,-225.09 329,-331.5 296.95,-372.24 272.12,-428.45 260.22,-458.17"/>
<polygon fill="#63b8ff" stroke="#63b8ff" points="256.99,-456.84 256.61,-467.43 263.51,-459.39 256.99,-456.84"/>
</g>
<!-- Node58&#45;&gt;Node38 -->
<g id="edge39" class="edge">
<title>Node58&#45;&gt;Node38</title>
<path fill="none" stroke="#63b8ff" d="M682.26,-150.6C691.76,-146.82 702.13,-142.05 711,-136.5 729.14,-125.14 728.19,-114.73 747,-104.5 793.04,-79.47 850.96,-64.72 893.73,-56.53"/>
<polygon fill="#63b8ff" stroke="#63b8ff" points="894.13,-60.01 903.33,-54.76 892.86,-53.13 894.13,-60.01"/>
</g>
<!-- Node59 -->
<g id="node31" class="node">
<title>Node59</title>
<g id="a_node31"><a xlink:href="TransmitterCode_2src_2main_8cpp.html#a5aa4888b924a4f1d95e9cedc3004f2b6" target="_top" xlink:title=" ">
<polygon fill="white" stroke="#666666" points="849.5,-170 766.5,-170 766.5,-151 849.5,-151 849.5,-170"/>
<text text-anchor="middle" x="808" y="-158" font-family="Helvetica,sans-Serif" font-size="10.00">MakeTwobytes</text>
</a>
</g>
</g>
<!-- Node58&#45;&gt;Node59 -->
<g id="edge36" class="edge">
<title>Node58&#45;&gt;Node59</title>
<path fill="none" stroke="#63b8ff" d="M696.72,-160.5C714.76,-160.5 735.82,-160.5 754.67,-160.5"/>
<polygon fill="#63b8ff" stroke="#63b8ff" points="754.57,-164 764.57,-160.5 754.57,-157 754.57,-164"/>
</g>
<!-- Node60 -->
<g id="node32" class="node">
<title>Node60</title>
<g id="a_node32"><a xlink:href="ReceiverCode_2src_2main_8cpp.html#a31a35307bbac88ceda244272f25d399a" target="_top" xlink:title=" ">
<polygon fill="white" stroke="#666666" points="860,-133 756,-133 756,-114 860,-114 860,-133"/>
<text text-anchor="middle" x="808" y="-121" font-family="Helvetica,sans-Serif" font-size="10.00">SetTestFrequencies</text>
</a>
</g>
</g>
<!-- Node58&#45;&gt;Node60 -->
<g id="edge38" class="edge">
<title>Node58&#45;&gt;Node60</title>
<path fill="none" stroke="#63b8ff" d="M694.27,-150.58C712.83,-146.13 734.94,-140.81 754.65,-136.08"/>
<polygon fill="#63b8ff" stroke="#63b8ff" points="755.24,-139.54 764.15,-133.8 753.6,-132.73 755.24,-139.54"/>
</g>
<!-- Node62&#45;&gt;Node33 -->
<g id="edge45" class="edge">
<title>Node62&#45;&gt;Node33</title>
<path fill="none" stroke="#63b8ff" d="M694.27,-244.42C712.83,-248.87 734.94,-254.19 754.65,-258.92"/>
<polygon fill="#63b8ff" stroke="#63b8ff" points="753.6,-262.27 764.15,-261.2 755.24,-255.46 753.6,-262.27"/>
</g>
<!-- Node63 -->
<g id="node35" class="node">
<title>Node63</title>
<g id="a_node35"><a xlink:href="TransmitterCode_2src_2main_8cpp.html#a953f1d5046e183549ed95b08f6d675e3" target="_top" xlink:title=" ">
<polygon fill="#fff0f0" stroke="red" points="857,-355 759,-355 759,-336 857,-336 857,-355"/>
<text text-anchor="middle" x="808" y="-343" font-family="Helvetica,sans-Serif" font-size="10.00">CheckGapsLength</text>
</a>
</g>
</g>
<!-- Node62&#45;&gt;Node63 -->
<g id="edge42" class="edge">
<title>Node62&#45;&gt;Node63</title>
<path fill="none" stroke="#63b8ff" d="M696.59,-244.43C701.8,-246.83 706.77,-249.81 711,-253.5 738.56,-277.54 719.14,-303.81 747,-327.5 747.95,-328.31 748.94,-329.08 749.96,-329.82"/>
<polygon fill="#63b8ff" stroke="#63b8ff" points="748.1,-332.79 758.5,-334.81 751.63,-326.75 748.1,-332.79"/>
</g>
<!-- Node43 -->
<g id="node36" class="node">
<title>Node43</title>
<g id="a_node36"><a xlink:href="TransmitterCode_2src_2main_8cpp.html#a62e53eb9359c32b666e3386d62c57037" target="_top" xlink:title=" ">
<polygon fill="#fff0f0" stroke="red" points="844,-466 772,-466 772,-447 844,-447 844,-466"/>
<text text-anchor="middle" x="808" y="-454" font-family="Helvetica,sans-Serif" font-size="10.00">GreenLedOn</text>
</a>
</g>
</g>
<!-- Node62&#45;&gt;Node43 -->
<g id="edge43" class="edge">
<title>Node62&#45;&gt;Node43</title>
<path fill="none" stroke="#63b8ff" d="M699.26,-244.35C703.66,-246.76 707.7,-249.77 711,-253.5 766.43,-316.3 690.78,-376.4 747,-438.5 750.91,-442.82 755.82,-446.13 761.13,-448.64"/>
<polygon fill="#63b8ff" stroke="#63b8ff" points="759.68,-451.84 770.28,-452.06 762.13,-445.28 759.68,-451.84"/>
</g>
<!-- Node65 -->
<g id="node37" class="node">
<title>Node65</title>
<g id="a_node37"><a xlink:href="TransmitterCode_2src_2main_8cpp.html#a694f4f5a0147f4dc29b0bc1a8951547d" target="_top" xlink:title=" ">
<polygon fill="#fff0f0" stroke="red" points="855,-429 761,-429 761,-410 855,-410 855,-429"/>
<text text-anchor="middle" x="808" y="-417" font-family="Helvetica,sans-Serif" font-size="10.00">ParseAckPayload</text>
</a>
</g>
</g>
<!-- Node62&#45;&gt;Node65 -->
<g id="edge44" class="edge">
<title>Node62&#45;&gt;Node65</title>
<path fill="none" stroke="#63b8ff" d="M698.81,-244.35C703.35,-246.76 707.55,-249.77 711,-253.5 756.97,-303.2 700.41,-352.38 747,-401.5 748.19,-402.76 749.47,-403.93 750.82,-405.02"/>
<polygon fill="#63b8ff" stroke="#63b8ff" points="748.92,-407.96 759.25,-410.3 752.63,-402.03 748.92,-407.96"/>
</g>
<!-- Node51 -->
<g id="node38" class="node">
<title>Node51</title>
<g id="a_node38"><a xlink:href="TransmitterCode_2src_2main_8cpp.html#a793b7bcd77531c95fe72ed4356d421c8" target="_top" xlink:title=" ">
<polygon fill="white" stroke="#666666" points="863,-392 753,-392 753,-373 863,-373 863,-392"/>
<text text-anchor="middle" x="808" y="-380" font-family="Helvetica,sans-Serif" font-size="10.00">StartInactvityTimeout</text>
</a>
</g>
</g>
<!-- Node62&#45;&gt;Node51 -->
<g id="edge46" class="edge">
<title>Node62&#45;&gt;Node51</title>
<path fill="none" stroke="#63b8ff" d="M698.25,-244.47C702.95,-246.86 707.33,-249.82 711,-253.5 747.62,-290.23 709.92,-328.24 747,-364.5 747.63,-365.11 748.27,-365.71 748.94,-366.28"/>
<polygon fill="#63b8ff" stroke="#63b8ff" points="746.94,-369.15 757.19,-371.8 750.83,-363.33 746.94,-369.15"/>
</g>
<!-- Node112 -->
<g id="node40" class="node">
<title>Node112</title>
<g id="a_node40"><a xlink:href="TransmitterCode_2src_2main_8cpp.html#acf49567c45af927603ae83a7f46e6534" target="_top" xlink:title=" ">
<polygon fill="#fff0f0" stroke="red" points="689,-766 615,-766 615,-747 689,-747 689,-766"/>
<text text-anchor="middle" x="652" y="-754" font-family="Helvetica,sans-Serif" font-size="10.00">DisplayCurve</text>
</a>
</g>
</g>
<!-- Node111&#45;&gt;Node112 -->
<g id="edge48" class="edge">
<title>Node111&#45;&gt;Node112</title>
<path fill="none" stroke="#63b8ff" d="M538.94,-728.48C558.75,-733.44 582.83,-739.46 603.57,-744.64"/>
<polygon fill="#63b8ff" stroke="#63b8ff" points="602.69,-748.03 613.24,-747.06 604.39,-741.24 602.69,-748.03"/>
</g>
<!-- Node118 -->
<g id="node46" class="node">
<title>Node118</title>
<g id="a_node46"><a xlink:href="TransmitterCode_2src_2main_8cpp.html#acbef1d41e1bd646b60a6e8afd9c66880" target="_top" xlink:title=" ">
<polygon fill="white" stroke="#666666" points="837,-840 779,-840 779,-821 837,-821 837,-840"/>
<text text-anchor="middle" x="808" y="-828" font-family="Helvetica,sans-Serif" font-size="10.00">DrawLine</text>
</a>
</g>
</g>
<!-- Node111&#45;&gt;Node118 -->
<g id="edge69" class="edge">
<title>Node111&#45;&gt;Node118</title>
<path fill="none" stroke="#63b8ff" d="M512.33,-728.33C529.97,-740.92 562.39,-762.62 593,-775.5 651.46,-800.1 723.67,-815.87 767.49,-823.95"/>
<polygon fill="#63b8ff" stroke="#63b8ff" points="766.84,-827.39 777.3,-825.71 768.08,-820.5 766.84,-827.39"/>
</g>
<!-- Node111&#45;&gt;Node41 -->
<g id="edge72" class="edge">
<title>Node111&#45;&gt;Node41</title>
<path fill="none" stroke="#63b8ff" d="M507.95,-728.29C523.94,-745.44 558.95,-781.49 593,-806.5 653.73,-851.1 732.47,-891.73 775.5,-912.66"/>
<polygon fill="#63b8ff" stroke="#63b8ff" points="773.74,-915.7 784.27,-916.88 776.78,-909.39 773.74,-915.7"/>
</g>
<!-- Node122 -->
<g id="node49" class="node">
<title>Node122</title>
<g id="a_node49"><a xlink:href="TransmitterCode_2src_2main_8cpp.html#af1030157034999448f5ca611d6209385" target="_top" xlink:title=" ">
<polygon fill="white" stroke="#666666" points="711,-729 593,-729 593,-710 711,-710 711,-729"/>
<text text-anchor="middle" x="652" y="-717" font-family="Helvetica,sans-Serif" font-size="10.00">GetStickInputInputOnly</text>
</a>
</g>
</g>
<!-- Node111&#45;&gt;Node122 -->
<g id="edge70" class="edge">
<title>Node111&#45;&gt;Node122</title>
<path fill="none" stroke="#63b8ff" d="M540.13,-718.77C552.9,-718.85 567.34,-718.95 581.48,-719.04"/>
<polygon fill="#63b8ff" stroke="#63b8ff" points="581.18,-722.54 591.2,-719.11 581.22,-715.54 581.18,-722.54"/>
</g>
<!-- Node123 -->
<g id="node50" class="node">
<title>Node123</title>
<g id="a_node50"><a xlink:href="TransmitterCode_2src_2main_8cpp.html#a5cdbe11d62e0de7610ba323e60b97d33" target="_top" xlink:title=" ">
<polygon fill="white" stroke="#666666" points="690.5,-692 613.5,-692 613.5,-673 690.5,-673 690.5,-692"/>
<text text-anchor="middle" x="652" y="-680" font-family="Helvetica,sans-Serif" font-size="10.00">IntoLowerRes</text>
</a>
</g>
</g>
<!-- Node111&#45;&gt;Node123 -->
<g id="edge71" class="edge">
<title>Node111&#45;&gt;Node123</title>
<path fill="none" stroke="#63b8ff" d="M540.13,-708.76C559.26,-704.23 582.14,-698.81 602.14,-694.07"/>
<polygon fill="#63b8ff" stroke="#63b8ff" points="602.82,-697.51 611.75,-691.8 601.21,-690.7 602.82,-697.51"/>
</g>
<!-- Node112&#45;&gt;Node4 -->
<g id="edge64" class="edge">
<title>Node112&#45;&gt;Node4</title>
<path fill="none" stroke="#63b8ff" d="M614.56,-761.96C570.05,-766.76 493.9,-768.79 439,-737.5 340.51,-681.36 280.32,-549.52 260.13,-498.84"/>
<polygon fill="#63b8ff" stroke="#63b8ff" points="263.46,-497.77 256.59,-489.71 256.94,-500.3 263.46,-497.77"/>
</g>
<!-- Node113 -->
<g id="node41" class="node">
<title>Node113</title>
<g id="a_node41"><a xlink:href="TransmitterCode_2src_2main_8cpp.html#a1870ad872e2424cbf8222747d3a43617" target="_top" xlink:title=" ">
<polygon fill="white" stroke="#666666" points="859.5,-803 756.5,-803 756.5,-784 859.5,-784 859.5,-803"/>
<text text-anchor="middle" x="808" y="-791" font-family="Helvetica,sans-Serif" font-size="10.00">CheckInvisiblePoint</text>
</a>
</g>
</g>
<!-- Node112&#45;&gt;Node113 -->
<g id="edge49" class="edge">
<title>Node112&#45;&gt;Node113</title>
<path fill="none" stroke="#63b8ff" d="M689.5,-765.27C708.96,-769.95 733.26,-775.78 754.69,-780.93"/>
<polygon fill="#63b8ff" stroke="#63b8ff" points="753.59,-784.27 764.13,-783.2 755.23,-777.46 753.59,-784.27"/>
</g>
<!-- Node114 -->
<g id="node42" class="node">
<title>Node114</title>
<g id="a_node42"><a xlink:href="TransmitterCode_2src_2main_8cpp.html#a5aeea47b9d855ae9911bae1115d02de7" target="_top" xlink:title=" ">
<polygon fill="white" stroke="#666666" points="836,-877 780,-877 780,-858 836,-858 836,-877"/>
<text text-anchor="middle" x="808" y="-865" font-family="Helvetica,sans-Serif" font-size="10.00">ClearBox</text>
</a>
</g>
</g>
<!-- Node112&#45;&gt;Node114 -->
<g id="edge50" class="edge">
<title>Node112&#45;&gt;Node114</title>
<path fill="none" stroke="#63b8ff" d="M660.13,-766.22C674.47,-785.08 708.7,-826.76 747,-849.5 753.66,-853.45 761.26,-856.6 768.76,-859.08"/>
<polygon fill="#63b8ff" stroke="#63b8ff" points="767.52,-862.37 778.1,-861.84 769.5,-855.65 767.52,-862.37"/>
</g>
<!-- Node115 -->
<g id="node43" class="node">
<title>Node115</title>
<g id="a_node43"><a xlink:href="TransmitterCode_2src_2main_8cpp.html#a68b36025c7478c0710565b4fb059d9bc" target="_top" xlink:title=" ">
<polygon fill="white" stroke="#666666" points="850,-766 766,-766 766,-747 850,-747 850,-766"/>
<text text-anchor="middle" x="808" y="-754" font-family="Helvetica,sans-Serif" font-size="10.00">DegsToPercent</text>
</a>
</g>
</g>
<!-- Node112&#45;&gt;Node115 -->
<g id="edge53" class="edge">
<title>Node112&#45;&gt;Node115</title>
<path fill="none" stroke="#63b8ff" d="M689.5,-756.5C708.78,-756.5 732.81,-756.5 754.1,-756.5"/>
<polygon fill="#63b8ff" stroke="#63b8ff" points="754.09,-760 764.09,-756.5 754.09,-753 754.09,-760"/>
</g>
<!-- Node116 -->
<g id="node44" class="node">
<title>Node116</title>
<g id="a_node44"><a xlink:href="TransmitterCode_2src_2main_8cpp.html#a060d8c4636339f7e6760cf835307530e" target="_top" xlink:title=" ">
<polygon fill="white" stroke="#666666" points="836,-655 780,-655 780,-636 836,-636 836,-655"/>
<text text-anchor="middle" x="808" y="-643" font-family="Helvetica,sans-Serif" font-size="10.00">DrawBox</text>
</a>
</g>
</g>
<!-- Node112&#45;&gt;Node116 -->
<g id="edge54" class="edge">
<title>Node112&#45;&gt;Node116</title>
<path fill="none" stroke="#63b8ff" d="M689.38,-750.16C697.14,-747.52 704.84,-743.79 711,-738.5 738.75,-714.67 719.32,-688.41 747,-664.5 753.18,-659.16 760.87,-655.32 768.66,-652.56"/>
<polygon fill="#63b8ff" stroke="#63b8ff" points="769.54,-655.95 778.14,-649.75 767.56,-649.23 769.54,-655.95"/>
</g>
<!-- Node117 -->
<g id="node45" class="node">
<title>Node117</title>
<g id="a_node45"><a xlink:href="TransmitterCode_2src_2main_8cpp.html#ad0feb21fbea69455d1d206f142b563ac" target="_top" xlink:title=" ">
<polygon fill="white" stroke="#666666" points="835,-618 781,-618 781,-599 835,-599 835,-618"/>
<text text-anchor="middle" x="808" y="-606" font-family="Helvetica,sans-Serif" font-size="10.00">DrawDot</text>
</a>
</g>
</g>
<!-- Node112&#45;&gt;Node117 -->
<g id="edge57" class="edge">
<title>Node112&#45;&gt;Node117</title>
<path fill="none" stroke="#63b8ff" d="M689.34,-750.98C697.28,-748.31 705.07,-744.35 711,-738.5 747.9,-702.06 710.2,-664.05 747,-627.5 753.2,-621.34 761.38,-617.18 769.7,-614.36"/>
<polygon fill="#63b8ff" stroke="#63b8ff" points="770.38,-617.81 779.1,-611.78 768.53,-611.05 770.38,-617.81"/>
</g>
<!-- Node112&#45;&gt;Node118 -->
<g id="edge60" class="edge">
<title>Node112&#45;&gt;Node118</title>
<path fill="none" stroke="#63b8ff" d="M682.26,-766.4C691.76,-770.18 702.13,-774.95 711,-780.5 729.14,-791.86 728.31,-802.07 747,-812.5 753.36,-816.05 760.49,-818.97 767.56,-821.35"/>
<polygon fill="#63b8ff" stroke="#63b8ff" points="766.47,-824.68 777.05,-824.23 768.5,-817.98 766.47,-824.68"/>
</g>
<!-- Node119 -->
<g id="node47" class="node">
<title>Node119</title>
<g id="a_node47"><a xlink:href="TransmitterCode_2src_2main_8cpp.html#a4abc073f79b7ab2a2b4429990420cbf0" target="_top" xlink:title="Uses servo degrees to position dots.">
<polygon fill="white" stroke="#666666" points="852,-729 764,-729 764,-710 852,-710 852,-729"/>
<text text-anchor="middle" x="808" y="-717" font-family="Helvetica,sans-Serif" font-size="10.00">GetDotPositions</text>
</a>
</g>
</g>
<!-- Node112&#45;&gt;Node119 -->
<g id="edge63" class="edge">
<title>Node112&#45;&gt;Node119</title>
<path fill="none" stroke="#63b8ff" d="M689.5,-747.73C708.96,-743.05 733.26,-737.22 754.69,-732.07"/>
<polygon fill="#63b8ff" stroke="#63b8ff" points="755.23,-735.54 764.13,-729.8 753.59,-728.73 755.23,-735.54"/>
</g>
<!-- Node112&#45;&gt;Node41 -->
<g id="edge65" class="edge">
<title>Node112&#45;&gt;Node41</title>
<path fill="none" stroke="#63b8ff" d="M658.4,-766.17C671.47,-789 706.69,-847.25 747,-886.5 756.76,-896 768.96,-904.78 779.8,-911.76"/>
<polygon fill="#63b8ff" stroke="#63b8ff" points="777.64,-914.54 787.98,-916.83 781.33,-908.59 777.64,-914.54"/>
</g>
<!-- Node114&#45;&gt;Node4 -->
<g id="edge51" class="edge">
<title>Node114&#45;&gt;Node4</title>
<path fill="none" stroke="#63b8ff" d="M779.62,-869.5C695.55,-873.94 440.09,-874.47 329,-728.5 274.34,-656.68 258.44,-545.6 254.06,-499.58"/>
<polygon fill="#63b8ff" stroke="#63b8ff" points="257.56,-499.36 253.22,-489.69 250.58,-499.95 257.56,-499.36"/>
</g>
<!-- Node114&#45;&gt;Node28 -->
<g id="edge52" class="edge">
<title>Node114&#45;&gt;Node28</title>
<path fill="none" stroke="#63b8ff" d="M836.43,-864.63C847.71,-862.2 860.16,-857.72 869,-849.5 928.51,-794.14 946.47,-692.45 951.59,-648.57"/>
<polygon fill="#63b8ff" stroke="#63b8ff" points="955.07,-648.96 952.62,-638.65 948.1,-648.23 955.07,-648.96"/>
</g>
<!-- Node116&#45;&gt;Node4 -->
<g id="edge55" class="edge">
<title>Node116&#45;&gt;Node4</title>
<path fill="none" stroke="#63b8ff" d="M779.78,-643.51C768.13,-641.27 755.32,-636.69 747,-627.5 690.78,-565.4 775.64,-495.77 711,-442.5 670.53,-409.15 641.45,-422.43 593,-442.5 572.09,-451.16 577.91,-469.84 557,-478.5 474.01,-512.88 367.03,-501.62 304.48,-490.16"/>
<polygon fill="#63b8ff" stroke="#63b8ff" points="305.3,-486.75 294.82,-488.31 303.98,-493.63 305.3,-486.75"/>
</g>
<!-- Node116&#45;&gt;Node28 -->
<g id="edge56" class="edge">
<title>Node116&#45;&gt;Node28</title>
<path fill="none" stroke="#63b8ff" d="M836.18,-642.11C862.6,-638.82 902.4,-633.87 928.17,-630.66"/>
<polygon fill="#63b8ff" stroke="#63b8ff" points="928.58,-634.13 938.07,-629.42 927.71,-627.19 928.58,-634.13"/>
</g>
<!-- Node117&#45;&gt;Node4 -->
<g id="edge58" class="edge">
<title>Node117&#45;&gt;Node4</title>
<path fill="none" stroke="#63b8ff" d="M780.71,-606.67C768.82,-604.49 755.55,-599.92 747,-590.5 691.56,-529.46 774.03,-461.67 711,-408.5 618.59,-330.54 558.31,-384.97 439,-404.5 388.1,-412.83 376.76,-422.01 329,-441.5 313,-448.03 295.62,-456.33 281.48,-463.42"/>
<polygon fill="#63b8ff" stroke="#63b8ff" points="280.06,-460.21 272.73,-467.86 283.23,-466.46 280.06,-460.21"/>
</g>
<!-- Node117&#45;&gt;Node28 -->
<g id="edge59" class="edge">
<title>Node117&#45;&gt;Node28</title>
<path fill="none" stroke="#63b8ff" d="M835.17,-611.94C861.71,-615.43 902.48,-620.79 928.57,-624.22"/>
<polygon fill="#63b8ff" stroke="#63b8ff" points="927.87,-627.66 938.24,-625.49 928.78,-620.72 927.87,-627.66"/>
</g>
<!-- Node118&#45;&gt;Node4 -->
<g id="edge61" class="edge">
<title>Node118&#45;&gt;Node4</title>
<path fill="none" stroke="#63b8ff" d="M778.65,-830.52C714.74,-829.51 555.87,-821.02 439,-764.5 384.34,-738.07 365.58,-731.96 329,-683.5 285.11,-625.35 264.04,-539.28 256.24,-499.75"/>
<polygon fill="#63b8ff" stroke="#63b8ff" points="259.68,-499.12 254.4,-489.93 252.8,-500.4 259.68,-499.12"/>
</g>
<!-- Node118&#45;&gt;Node28 -->
<g id="edge62" class="edge">
<title>Node118&#45;&gt;Node28</title>
<path fill="none" stroke="#63b8ff" d="M837.4,-827.08C848.31,-824.54 860.23,-820.15 869,-812.5 919.94,-768.1 941.94,-686.7 949.8,-648.43"/>
<polygon fill="#63b8ff" stroke="#63b8ff" points="953.22,-649.19 951.66,-638.71 946.35,-647.87 953.22,-649.19"/>
</g>
<!-- Node41&#45;&gt;Node3 -->
<g id="edge66" class="edge">
<title>Node41&#45;&gt;Node3</title>
<path fill="none" stroke="#63b8ff" d="M824.19,-937.49C849.19,-953.92 899.21,-986.81 929.18,-1006.51"/>
<polygon fill="#63b8ff" stroke="#63b8ff" points="926.97,-1009.25 937.25,-1011.82 930.81,-1003.4 926.97,-1009.25"/>
</g>
<!-- Node41&#45;&gt;Node4 -->
<g id="edge67" class="edge">
<title>Node41&#45;&gt;Node4</title>
<path fill="none" stroke="#63b8ff" d="M775.5,-928.9C686.7,-930.89 433.97,-922.72 329,-773.5 267.12,-685.54 255.28,-551.27 253.02,-499.69"/>
<polygon fill="#63b8ff" stroke="#63b8ff" points="256.53,-499.83 252.69,-489.95 249.53,-500.07 256.53,-499.83"/>
</g>
<!-- Node41&#45;&gt;Node28 -->
<g id="edge68" class="edge">
<title>Node41&#45;&gt;Node28</title>
<path fill="none" stroke="#63b8ff" d="M829.98,-917.66C842.89,-910.63 858.86,-900.03 869,-886.5 925.66,-810.93 945.34,-695.66 951.26,-648.61"/>
<polygon fill="#63b8ff" stroke="#63b8ff" points="954.7,-649.31 952.38,-638.98 947.75,-648.5 954.7,-649.31"/>
</g>
</g>
</svg>
