<?xml version="1.0" encoding="UTF-8" standalone="no"?>
<!DOCTYPE svg PUBLIC "-//W3C//DTD SVG 1.1//EN"
 "http://www.w3.org/Graphics/SVG/1.1/DTD/svg11.dtd">
<!-- Generated by graphviz version 7.0.5 (20221223.1930)
 -->
<!-- Title: CheckTXVolts Pages: 1 -->
<svg width="1286pt" height="1186pt"
 viewBox="0.00 0.00 1286.00 1185.50" xmlns="http://www.w3.org/2000/svg" xmlns:xlink="http://www.w3.org/1999/xlink">
<g id="graph0" class="graph" transform="scale(1 1) rotate(0) translate(4 1181.5)">
<title>CheckTXVolts</title>
<!-- Node1 -->
<g id="node1" class="node">
<title>Node1</title>
<g id="a_node1"><a xlink:title=" ">
<polygon fill="#999999" stroke="#666666" points="80,-1073 0,-1073 0,-1054 80,-1054 80,-1073"/>
<text text-anchor="middle" x="40" y="-1061" font-family="Helvetica,sans-Serif" font-size="10.00">CheckTXVolts</text>
</a>
</g>
</g>
<!-- Node2 -->
<g id="node2" class="node">
<title>Node2</title>
<g id="a_node2"><a xlink:href="Nextion_8h.html#afe513398f72d5e48f691830a1ef6eb42" target="_top" xlink:title=" ">
<polygon fill="white" stroke="#666666" points="174,-903 116,-903 116,-884 174,-884 174,-903"/>
<text text-anchor="middle" x="145" y="-891" font-family="Helvetica,sans-Serif" font-size="10.00">SendText</text>
</a>
</g>
</g>
<!-- Node1&#45;&gt;Node2 -->
<g id="edge1" class="edge">
<title>Node1&#45;&gt;Node2</title>
<path fill="none" stroke="#63b8ff" d="M46.83,-1053.87C63.26,-1026.77 110.12,-949.41 132.21,-912.96"/>
<polygon fill="#63b8ff" stroke="#63b8ff" points="135,-915.11 137.19,-904.74 129.01,-911.48 135,-915.11"/>
</g>
<!-- Node69 -->
<g id="node43" class="node">
<title>Node69</title>
<g id="a_node43"><a xlink:href="Nextion_8h.html#a1e20efc1e419b252b50d36f9924503fc" target="_top" xlink:title=" ">
<polygon fill="white" stroke="#666666" points="1136,-1073 1072,-1073 1072,-1054 1136,-1054 1136,-1073"/>
<text text-anchor="middle" x="1104" y="-1061" font-family="Helvetica,sans-Serif" font-size="10.00">SendValue</text>
</a>
</g>
</g>
<!-- Node1&#45;&gt;Node69 -->
<g id="edge78" class="edge">
<title>Node1&#45;&gt;Node69</title>
<path fill="none" stroke="#63b8ff" d="M74.77,-1073.48C115.89,-1084.74 187.66,-1101.5 250.5,-1101.5 250.5,-1101.5 250.5,-1101.5 790,-1101.5 887.25,-1101.5 1000.26,-1083.2 1060.32,-1072"/>
<polygon fill="#63b8ff" stroke="#63b8ff" points="1060.95,-1075.44 1070.12,-1070.14 1059.65,-1068.56 1060.95,-1075.44"/>
</g>
<!-- Node3 -->
<g id="node3" class="node">
<title>Node3</title>
<g id="a_node3"><a xlink:href="Nextion_8h.html#a43937dd3d9c795271fd9c3eb3c6b6410" target="_top" xlink:title=" ">
<polygon fill="white" stroke="#666666" points="1278,-1149 1195,-1149 1195,-1130 1278,-1130 1278,-1149"/>
<text text-anchor="middle" x="1236.5" y="-1137" font-family="Helvetica,sans-Serif" font-size="10.00">GetReturnCode</text>
</a>
</g>
</g>
<!-- Node2&#45;&gt;Node3 -->
<g id="edge2" class="edge">
<title>Node2&#45;&gt;Node3</title>
<path fill="none" stroke="#63b8ff" d="M152.1,-903.45C162.29,-919.36 184.25,-950.65 210,-969.5 430.32,-1130.74 514.98,-1177.5 788,-1177.5 788,-1177.5 788,-1177.5 950.5,-1177.5 1032.46,-1177.5 1126.52,-1161.87 1183.45,-1150.66"/>
<polygon fill="#63b8ff" stroke="#63b8ff" points="1184.07,-1154.1 1193.18,-1148.71 1182.69,-1147.24 1184.07,-1154.1"/>
</g>
<!-- Node4 -->
<g id="node4" class="node">
<title>Node4</title>
<g id="a_node4"><a xlink:href="Nextion_8h.html#aecac2f0c289f02ef3c92b85be82eacac" target="_top" xlink:title=" ">
<polygon fill="white" stroke="#666666" points="293,-809 210,-809 210,-790 293,-790 293,-809"/>
<text text-anchor="middle" x="251.5" y="-797" font-family="Helvetica,sans-Serif" font-size="10.00">SendCommand</text>
</a>
</g>
</g>
<!-- Node2&#45;&gt;Node4 -->
<g id="edge3" class="edge">
<title>Node2&#45;&gt;Node4</title>
<path fill="none" stroke="#63b8ff" d="M156.79,-883.79C174.31,-868.03 209.19,-836.66 231.1,-816.95"/>
<polygon fill="#63b8ff" stroke="#63b8ff" points="233.39,-819.6 238.49,-810.31 228.71,-814.39 233.39,-819.6"/>
</g>
<!-- Node4&#45;&gt;Node3 -->
<g id="edge76" class="edge">
<title>Node4&#45;&gt;Node3</title>
<path fill="none" stroke="#63b8ff" d="M260.11,-809.31C304.3,-865.06 534.71,-1139.5 788,-1139.5 788,-1139.5 788,-1139.5 950.5,-1139.5 1031.97,-1139.5 1126.54,-1139.5 1183.66,-1139.5"/>
<polygon fill="#63b8ff" stroke="#63b8ff" points="1183.4,-1143 1193.4,-1139.5 1183.4,-1136 1183.4,-1143"/>
</g>
<!-- Node5 -->
<g id="node5" class="node">
<title>Node5</title>
<g id="a_node5"><a xlink:href="Utilities_8h.html#a3b1d8aa403e2724e55c71da3d9d13e7e" target="_top" xlink:title=" ">
<polygon fill="white" stroke="#666666" points="406,-454 329,-454 329,-435 406,-435 406,-454"/>
<text text-anchor="middle" x="367.5" y="-442" font-family="Helvetica,sans-Serif" font-size="10.00">DelayWithDog</text>
</a>
</g>
</g>
<!-- Node4&#45;&gt;Node5 -->
<g id="edge4" class="edge">
<title>Node4&#45;&gt;Node5</title>
<path fill="none" stroke="#63b8ff" d="M255.67,-789.63C271.07,-741.67 338.27,-532.4 359.82,-465.29"/>
<polygon fill="#63b8ff" stroke="#63b8ff" points="363.11,-466.52 362.83,-455.93 356.44,-464.38 363.11,-466.52"/>
</g>
<!-- Node117 -->
<g id="node50" class="node">
<title>Node117</title>
<g id="a_node50"><a xlink:href="TransmitterCode_2src_2main_8cpp.html#a5f109790a6fe0b972a502f3cac4ed1e7" target="_top" xlink:title=" ">
<polygon fill="white" stroke="#666666" points="391.5,-266 343.5,-266 343.5,-247 391.5,-247 391.5,-266"/>
<text text-anchor="middle" x="367.5" y="-254" font-family="Helvetica,sans-Serif" font-size="10.00">InStrng</text>
</a>
</g>
</g>
<!-- Node4&#45;&gt;Node117 -->
<g id="edge77" class="edge">
<title>Node4&#45;&gt;Node117</title>
<path fill="none" stroke="#63b8ff" d="M252.85,-789.84C255.28,-726.44 271.39,-369.61 329,-280.5 330.77,-277.76 332.98,-275.27 335.42,-273.03"/>
<polygon fill="#63b8ff" stroke="#63b8ff" points="337.28,-276.01 343.2,-267.22 333.09,-270.4 337.28,-276.01"/>
</g>
<!-- Node6 -->
<g id="node6" class="node">
<title>Node6</title>
<g id="a_node6"><a xlink:href="Utilities_8h.html#ada95a00a341e4a80176eda743a94ab2e" target="_top" xlink:title=" ">
<polygon fill="white" stroke="#666666" points="512,-417 442,-417 442,-398 512,-398 512,-417"/>
<text text-anchor="middle" x="477" y="-405" font-family="Helvetica,sans-Serif" font-size="10.00">KickTheDog</text>
</a>
</g>
</g>
<!-- Node5&#45;&gt;Node6 -->
<g id="edge5" class="edge">
<title>Node5&#45;&gt;Node6</title>
<path fill="none" stroke="#63b8ff" d="M397.31,-434.58C409.36,-430.44 423.56,-425.55 436.55,-421.08"/>
<polygon fill="#63b8ff" stroke="#63b8ff" points="437.36,-424.5 445.68,-417.94 435.09,-417.88 437.36,-424.5"/>
</g>
<!-- Node7 -->
<g id="node7" class="node">
<title>Node7</title>
<g id="a_node7"><a xlink:href="transceiver_8h.html#a049bfb836e7aa4a3a48a1a4bd225fafc" target="_top" xlink:title=" ">
<polygon fill="white" stroke="#666666" points="506.5,-454 447.5,-454 447.5,-435 506.5,-435 506.5,-454"/>
<text text-anchor="middle" x="477" y="-442" font-family="Helvetica,sans-Serif" font-size="10.00">SendData</text>
</a>
</g>
</g>
<!-- Node5&#45;&gt;Node7 -->
<g id="edge6" class="edge">
<title>Node5&#45;&gt;Node7</title>
<path fill="none" stroke="#63b8ff" d="M406.4,-444.5C415.94,-444.5 426.21,-444.5 435.86,-444.5"/>
<polygon fill="#63b8ff" stroke="#63b8ff" points="435.71,-448 445.71,-444.5 435.71,-441 435.71,-448"/>
</g>
<!-- Node8 -->
<g id="node8" class="node">
<title>Node8</title>
<g id="a_node8"><a xlink:href="transceiver_8h.html#a1ddd5e8d5bd649dd98ce3710fbff651b" target="_top" xlink:title=" ">
<polygon fill="white" stroke="#666666" points="650.5,-491 589.5,-491 589.5,-472 650.5,-472 650.5,-491"/>
<text text-anchor="middle" x="620" y="-479" font-family="Helvetica,sans-Serif" font-size="10.00">Compress</text>
</a>
</g>
</g>
<!-- Node7&#45;&gt;Node8 -->
<g id="edge7" class="edge">
<title>Node7&#45;&gt;Node8</title>
<path fill="none" stroke="#63b8ff" d="M506.87,-452.08C527.41,-457.47 555.3,-464.78 578.12,-470.77"/>
<polygon fill="#63b8ff" stroke="#63b8ff" points="577.17,-474.14 587.73,-473.29 578.95,-467.37 577.17,-474.14"/>
</g>
<!-- Node9 -->
<g id="node9" class="node">
<title>Node9</title>
<g id="a_node9"><a xlink:href="transceiver_8h.html#a4144c213e5448a7e02d4172881f08219" target="_top" xlink:title=" ">
<polygon fill="white" stroke="#666666" points="692,-454 548,-454 548,-435 692,-435 692,-454"/>
<text text-anchor="middle" x="620" y="-442" font-family="Helvetica,sans-Serif" font-size="10.00">EncodeTheChangedChannels</text>
</a>
</g>
</g>
<!-- Node7&#45;&gt;Node9 -->
<g id="edge8" class="edge">
<title>Node7&#45;&gt;Node9</title>
<path fill="none" stroke="#63b8ff" d="M506.87,-444.5C515.63,-444.5 525.72,-444.5 536.19,-444.5"/>
<polygon fill="#63b8ff" stroke="#63b8ff" points="536.13,-448 546.13,-444.5 536.13,-441 536.13,-448"/>
</g>
<!-- Node10 -->
<g id="node10" class="node">
<title>Node10</title>
<g id="a_node10"><a xlink:href="transceiver_8h.html#a5fbd3c8613a4163425c94965704ce5f8" target="_top" xlink:title=" ">
<polygon fill="white" stroke="#666666" points="657,-417 583,-417 583,-398 657,-398 657,-417"/>
<text text-anchor="middle" x="620" y="-405" font-family="Helvetica,sans-Serif" font-size="10.00">FailedPacket</text>
</a>
</g>
</g>
<!-- Node7&#45;&gt;Node10 -->
<g id="edge9" class="edge">
<title>Node7&#45;&gt;Node10</title>
<path fill="none" stroke="#63b8ff" d="M506.92,-436.53C519.52,-433.09 534.48,-429.05 548,-425.5 555.69,-423.48 563.86,-421.37 571.82,-419.34"/>
<polygon fill="#63b8ff" stroke="#63b8ff" points="572.55,-422.77 581.38,-416.91 570.83,-415.98 572.55,-422.77"/>
</g>
<!-- Node46 -->
<g id="node23" class="node">
<title>Node46</title>
<g id="a_node23"><a xlink:href="common_8h.html#a6e2d4126d864c50e7c23c988c2bfdd1a" target="_top" xlink:title=" ">
<polygon fill="white" stroke="#666666" points="1127.5,-171 1080.5,-171 1080.5,-152 1127.5,-152 1127.5,-171"/>
<text text-anchor="middle" x="1104" y="-159" font-family="Helvetica,sans-Serif" font-size="10.00">Radio1</text>
</a>
</g>
</g>
<!-- Node7&#45;&gt;Node46 -->
<g id="edge29" class="edge">
<title>Node7&#45;&gt;Node46</title>
<path fill="none" stroke="#63b8ff" d="M502.65,-434.55C506.28,-432.09 509.61,-429.1 512,-425.5 551.72,-365.71 495.84,-153.81 548,-104.5 623.1,-33.5 914.86,-64.1 1013,-96.5 1041.68,-105.97 1068.97,-128.2 1085.82,-144.02"/>
<polygon fill="#63b8ff" stroke="#63b8ff" points="1082.94,-146.1 1092.55,-150.55 1087.82,-141.07 1082.94,-146.1"/>
</g>
<!-- Node49 -->
<g id="node25" class="node">
<title>Node49</title>
<g id="a_node25"><a xlink:href="transceiver_8h.html#a07c27b4e208198453c70876517926052" target="_top" xlink:title=" ">
<polygon fill="white" stroke="#666666" points="651,-190 589,-190 589,-171 651,-171 651,-190"/>
<text text-anchor="middle" x="620" y="-178" font-family="Helvetica,sans-Serif" font-size="10.00">FlushFifos</text>
</a>
</g>
</g>
<!-- Node7&#45;&gt;Node49 -->
<g id="edge27" class="edge">
<title>Node7&#45;&gt;Node49</title>
<path fill="none" stroke="#63b8ff" d="M500.73,-434.54C504.84,-432.02 508.82,-429.01 512,-425.5 520.17,-416.49 586.68,-258.01 610.53,-200.85"/>
<polygon fill="#63b8ff" stroke="#63b8ff" points="613.74,-202.25 614.35,-191.67 607.28,-199.56 613.74,-202.25"/>
</g>
<!-- Node50 -->
<g id="node26" class="node">
<title>Node50</title>
<g id="a_node26"><a xlink:href="transceiver_8h.html#a65249d0ac8676541d13ced58b1ce7624" target="_top" xlink:title=" ">
<polygon fill="white" stroke="#666666" points="679.5,-380 560.5,-380 560.5,-361 679.5,-361 679.5,-380"/>
<text text-anchor="middle" x="620" y="-368" font-family="Helvetica,sans-Serif" font-size="10.00">SendExtraParamemters</text>
</a>
</g>
</g>
<!-- Node7&#45;&gt;Node50 -->
<g id="edge30" class="edge">
<title>Node7&#45;&gt;Node50</title>
<path fill="none" stroke="#63b8ff" d="M498.03,-434.58C502.78,-431.88 507.71,-428.79 512,-425.5 530.2,-411.54 528.13,-399.97 548,-388.5 550.46,-387.08 553.03,-385.77 555.67,-384.57"/>
<polygon fill="#63b8ff" stroke="#63b8ff" points="556.73,-387.91 564.73,-380.96 554.14,-381.41 556.73,-387.91"/>
</g>
<!-- Node54 -->
<g id="node30" class="node">
<title>Node54</title>
<g id="a_node30"><a xlink:href="BuddyWireless_8h.html#a41c327908c92572d0d3eebbb19160d86" target="_top" xlink:title=" ">
<polygon fill="white" stroke="#666666" points="671,-133 569,-133 569,-114 671,-114 671,-133"/>
<text text-anchor="middle" x="620" y="-121" font-family="Helvetica,sans-Serif" font-size="10.00">SendSpecialPacket</text>
</a>
</g>
</g>
<!-- Node7&#45;&gt;Node54 -->
<g id="edge35" class="edge">
<title>Node7&#45;&gt;Node54</title>
<path fill="none" stroke="#63b8ff" d="M502.57,-434.5C506.22,-432.05 509.56,-429.08 512,-425.5 578.7,-327.66 480.41,-258.73 548,-161.5 554.95,-151.5 565.4,-143.9 576.16,-138.23"/>
<polygon fill="#63b8ff" stroke="#63b8ff" points="577.54,-141.45 585.09,-134.02 574.56,-135.12 577.54,-141.45"/>
</g>
<!-- Node58 -->
<g id="node34" class="node">
<title>Node58</title>
<g id="a_node34"><a xlink:href="BuddyPPM_8h.html#a784a1eca0361b3991bca899167cc1cdb" target="_top" xlink:title=" ">
<polygon fill="white" stroke="#666666" points="657.5,-528 582.5,-528 582.5,-509 657.5,-509 657.5,-528"/>
<text text-anchor="middle" x="620" y="-516" font-family="Helvetica,sans-Serif" font-size="10.00">SendViaPPM</text>
</a>
</g>
</g>
<!-- Node7&#45;&gt;Node58 -->
<g id="edge43" class="edge">
<title>Node7&#45;&gt;Node58</title>
<path fill="none" stroke="#63b8ff" d="M487.54,-454.11C500.25,-466.39 523.95,-487.47 548,-499.5 555.3,-503.15 563.38,-506.16 571.4,-508.63"/>
<polygon fill="#63b8ff" stroke="#63b8ff" points="570.18,-511.92 580.75,-511.25 572.07,-505.18 570.18,-511.92"/>
</g>
<!-- Node59 -->
<g id="node35" class="node">
<title>Node59</title>
<g id="a_node35"><a xlink:href="transceiver_8h.html#a990aa54242f1573e74316dec4a612eef" target="_top" xlink:title=" ">
<polygon fill="white" stroke="#666666" points="995.5,-545 903.5,-545 903.5,-526 995.5,-526 995.5,-545"/>
<text text-anchor="middle" x="949.5" y="-533" font-family="Helvetica,sans-Serif" font-size="10.00">ShowPacketData</text>
</a>
</g>
</g>
<!-- Node7&#45;&gt;Node59 -->
<g id="edge44" class="edge">
<title>Node7&#45;&gt;Node59</title>
<path fill="none" stroke="#63b8ff" d="M481.93,-454.41C490.45,-474.38 512.76,-519.03 548,-536.5 664.68,-594.33 824.99,-567.01 902.65,-548.18"/>
<polygon fill="#63b8ff" stroke="#63b8ff" points="903.17,-551.65 912.02,-545.84 901.47,-544.86 903.17,-551.65"/>
</g>
<!-- Node60 -->
<g id="node36" class="node">
<title>Node60</title>
<g id="a_node36"><a xlink:href="transceiver_8h.html#a1c11bb6771548de7d96723045b922620" target="_top" xlink:title=" ">
<polygon fill="white" stroke="#666666" points="668,-641 572,-641 572,-622 668,-622 668,-641"/>
<text text-anchor="middle" x="620" y="-629" font-family="Helvetica,sans-Serif" font-size="10.00">SuccessfulPacket</text>
</a>
</g>
</g>
<!-- Node7&#45;&gt;Node60 -->
<g id="edge47" class="edge">
<title>Node7&#45;&gt;Node60</title>
<path fill="none" stroke="#63b8ff" d="M482.04,-454.38C491.44,-476.63 516.37,-531.71 548,-570.5 561.82,-587.44 580.72,-603.43 595.55,-614.78"/>
<polygon fill="#63b8ff" stroke="#63b8ff" points="593.28,-617.46 603.39,-620.63 597.47,-611.84 593.28,-617.46"/>
</g>
<!-- Node11 -->
<g id="node11" class="node">
<title>Node11</title>
<g id="a_node11"><a xlink:href="transceiver_8h.html#afc091b5942e21a03f6dc8635d5e519ba" target="_top" xlink:title=" ">
<polygon fill="white" stroke="#666666" points="850,-604 728,-604 728,-585 850,-585 850,-604"/>
<text text-anchor="middle" x="789" y="-592" font-family="Helvetica,sans-Serif" font-size="10.00">RecordsPacketSuccess</text>
</a>
</g>
</g>
<!-- Node10&#45;&gt;Node11 -->
<g id="edge10" class="edge">
<title>Node10&#45;&gt;Node11</title>
<path fill="none" stroke="#63b8ff" d="M657.43,-410.97C669.36,-413.54 682.09,-417.95 692,-425.5 705.34,-435.66 755.84,-531.93 777.75,-574.47"/>
<polygon fill="#63b8ff" stroke="#63b8ff" points="774.64,-576.06 782.32,-583.35 780.86,-572.86 774.64,-576.06"/>
</g>
<!-- Node12 -->
<g id="node12" class="node">
<title>Node12</title>
<g id="a_node12"><a xlink:href="TransmitterCode_2src_2main_8cpp.html#a7d34cec6e8edc20c8b50424e15dcc7c7" target="_top" xlink:title=" ">
<polygon fill="white" stroke="#666666" points="820.5,-367 757.5,-367 757.5,-348 820.5,-348 820.5,-367"/>
<text text-anchor="middle" x="789" y="-355" font-family="Helvetica,sans-Serif" font-size="10.00">RedLedOn</text>
</a>
</g>
</g>
<!-- Node10&#45;&gt;Node12 -->
<g id="edge11" class="edge">
<title>Node10&#45;&gt;Node12</title>
<path fill="none" stroke="#63b8ff" d="M657.22,-398.19C668.4,-395.21 680.74,-391.82 692,-388.5 710.46,-383.05 730.77,-376.57 747.94,-370.94"/>
<polygon fill="#63b8ff" stroke="#63b8ff" points="748.87,-374.32 757.27,-367.86 746.68,-367.67 748.87,-374.32"/>
</g>
<!-- Node42 -->
<g id="node19" class="node">
<title>Node42</title>
<g id="a_node19"><a xlink:href="transceiver_8h.html#ad0236abcfc887ad708d9504c4ab2a7c3" target="_top" xlink:title=" ">
<polygon fill="white" stroke="#666666" points="833,-471 745,-471 745,-452 833,-452 833,-471"/>
<text text-anchor="middle" x="789" y="-459" font-family="Helvetica,sans-Serif" font-size="10.00">TryToReconnect</text>
</a>
</g>
</g>
<!-- Node10&#45;&gt;Node42 -->
<g id="edge21" class="edge">
<title>Node10&#45;&gt;Node42</title>
<path fill="none" stroke="#63b8ff" d="M657.34,-415.89C668.53,-418.7 680.84,-422 692,-425.5 712.54,-431.93 735.09,-440.32 753.17,-447.38"/>
<polygon fill="#63b8ff" stroke="#63b8ff" points="751.8,-450.6 762.39,-451.02 754.37,-444.09 751.8,-450.6"/>
</g>
<!-- Node12&#45;&gt;Node2 -->
<g id="edge19" class="edge">
<title>Node12&#45;&gt;Node2</title>
<path fill="none" stroke="#63b8ff" d="M770.8,-347.5C715.33,-315.63 541.11,-218.5 478,-218.5 366.5,-218.5 366.5,-218.5 366.5,-218.5 225.39,-218.5 160.32,-758.28 148.14,-872.45"/>
<polygon fill="#63b8ff" stroke="#63b8ff" points="144.68,-871.88 147.12,-882.19 151.64,-872.61 144.68,-871.88"/>
</g>
<!-- Node12&#45;&gt;Node4 -->
<g id="edge18" class="edge">
<title>Node12&#45;&gt;Node4</title>
<path fill="none" stroke="#63b8ff" d="M757.04,-350.47C673.04,-333.43 439.77,-300.05 329,-425.5 281.71,-479.05 259.82,-707.64 254.08,-778.48"/>
<polygon fill="#63b8ff" stroke="#63b8ff" points="250.61,-778.04 253.32,-788.29 257.58,-778.59 250.61,-778.04"/>
</g>
<!-- Node13 -->
<g id="node13" class="node">
<title>Node13</title>
<g id="a_node13"><a xlink:href="TransmitterCode_2src_2main_8cpp.html#afeaea883a32e6ebe461d419fab1b9f59" target="_top" xlink:title=" ">
<polygon fill="white" stroke="#666666" points="1005,-395 894,-395 894,-376 1005,-376 1005,-395"/>
<text text-anchor="middle" x="949.5" y="-383" font-family="Helvetica,sans-Serif" font-size="10.00">ClearMostParameters</text>
</a>
</g>
</g>
<!-- Node12&#45;&gt;Node13 -->
<g id="edge12" class="edge">
<title>Node12&#45;&gt;Node13</title>
<path fill="none" stroke="#63b8ff" d="M820.94,-362.97C838.42,-366.05 860.99,-370.04 882.26,-373.8"/>
<polygon fill="#63b8ff" stroke="#63b8ff" points="881.63,-377.24 892.08,-375.53 882.85,-370.35 881.63,-377.24"/>
</g>
<!-- Node14 -->
<g id="node14" class="node">
<title>Node14</title>
<g id="a_node14"><a xlink:href="Utilities_8h.html#a549a702bb9b539c6b3a4f20cce65adcc" target="_top" xlink:title=" ">
<polygon fill="#fff0f0" stroke="red" points="998.5,-734 900.5,-734 900.5,-715 998.5,-715 998.5,-734"/>
<text text-anchor="middle" x="949.5" y="-722" font-family="Helvetica,sans-Serif" font-size="10.00">GetLEDBrightness</text>
</a>
</g>
</g>
<!-- Node12&#45;&gt;Node14 -->
<g id="edge13" class="edge">
<title>Node12&#45;&gt;Node14</title>
<path fill="none" stroke="#63b8ff" d="M799.12,-367.03C812.71,-381.86 837.95,-411.91 850,-442.5 893.25,-552.27 809.47,-615.71 886,-705.5 887.46,-707.22 889.07,-708.78 890.8,-710.2"/>
<polygon fill="#63b8ff" stroke="#63b8ff" points="888.69,-713.01 899.01,-715.42 892.45,-707.1 888.69,-713.01"/>
</g>
<!-- Node24 -->
<g id="node15" class="node">
<title>Node24</title>
<g id="a_node15"><a xlink:href="TransmitterCode_2src_2main_8cpp.html#a2d5ec5fd5ed62d5b7b071fabe2225405" target="_top" xlink:title=" ">
<polygon fill="#fff0f0" stroke="red" points="997.5,-358 901.5,-358 901.5,-339 997.5,-339 997.5,-358"/>
<text text-anchor="middle" x="949.5" y="-346" font-family="Helvetica,sans-Serif" font-size="10.00">LogDisConnection</text>
</a>
</g>
</g>
<!-- Node12&#45;&gt;Node24 -->
<g id="edge14" class="edge">
<title>Node12&#45;&gt;Node24</title>
<path fill="none" stroke="#63b8ff" d="M820.94,-355.74C840.52,-354.63 866.48,-353.16 889.86,-351.83"/>
<polygon fill="#63b8ff" stroke="#63b8ff" points="889.8,-355.34 899.58,-351.28 889.4,-348.35 889.8,-355.34"/>
</g>
<!-- Node40 -->
<g id="node16" class="node">
<title>Node40</title>
<g id="a_node16"><a xlink:href="Utilities_8h.html#aa490b4664b0a4498d53b30b82287d5df" target="_top" xlink:title=" ">
<polygon fill="white" stroke="#666666" points="1135.5,-828 1072.5,-828 1072.5,-809 1135.5,-809 1135.5,-828"/>
<text text-anchor="middle" x="1104" y="-816" font-family="Helvetica,sans-Serif" font-size="10.00">PlaySound</text>
</a>
</g>
</g>
<!-- Node12&#45;&gt;Node40 -->
<g id="edge15" class="edge">
<title>Node12&#45;&gt;Node40</title>
<path fill="none" stroke="#63b8ff" d="M798.45,-367.33C811.17,-382.54 835.28,-413.1 850,-442.5 873.22,-488.88 857.83,-509.96 886,-553.5 927.37,-617.43 964.67,-609.66 1013,-668.5 1048.04,-711.16 1078.7,-768.87 1093.53,-798.74"/>
<polygon fill="#63b8ff" stroke="#63b8ff" points="1090.21,-799.93 1097.75,-807.38 1096.5,-796.86 1090.21,-799.93"/>
</g>
<!-- Node41 -->
<g id="node18" class="node">
<title>Node41</title>
<g id="a_node18"><a xlink:href="TransmitterCode_2src_2main_8cpp.html#a083c423be6ce1635de5961d0fc72ff06" target="_top" xlink:title=" ">
<polygon fill="white" stroke="#666666" points="999,-321 900,-321 900,-302 999,-302 999,-321"/>
<text text-anchor="middle" x="949.5" y="-309" font-family="Helvetica,sans-Serif" font-size="10.00">SetUKFrequencies</text>
</a>
</g>
</g>
<!-- Node12&#45;&gt;Node41 -->
<g id="edge20" class="edge">
<title>Node12&#45;&gt;Node41</title>
<path fill="none" stroke="#63b8ff" d="M820.69,-348.52C839.53,-343.01 864.16,-335.83 886,-329.5 891.49,-327.91 897.24,-326.25 902.95,-324.6"/>
<polygon fill="#63b8ff" stroke="#63b8ff" points="903.69,-328.03 912.33,-321.9 901.75,-321.3 903.69,-328.03"/>
</g>
<!-- Node40&#45;&gt;Node4 -->
<g id="edge16" class="edge">
<title>Node40&#45;&gt;Node4</title>
<path fill="none" stroke="#63b8ff" d="M1072.38,-815.41C1016.39,-810.02 893.71,-799.5 790,-799.5 476,-799.5 476,-799.5 476,-799.5 417.28,-799.5 349.89,-799.5 304.59,-799.5"/>
<polygon fill="#63b8ff" stroke="#63b8ff" points="304.8,-796 294.8,-799.5 304.8,-803 304.8,-796"/>
</g>
<!-- Node32 -->
<g id="node17" class="node">
<title>Node32</title>
<g id="a_node17"><a xlink:href="Utilities_8h.html#a590a9174319918d7e3d7baca323fcf26" target="_top" xlink:title=" ">
<polygon fill="white" stroke="#666666" points="1251,-828 1222,-828 1222,-809 1251,-809 1251,-828"/>
<text text-anchor="middle" x="1236.5" y="-816" font-family="Helvetica,sans-Serif" font-size="10.00">Str</text>
</a>
</g>
</g>
<!-- Node40&#45;&gt;Node32 -->
<g id="edge17" class="edge">
<title>Node40&#45;&gt;Node32</title>
<path fill="none" stroke="#63b8ff" d="M1135.93,-818.5C1158.61,-818.5 1189.03,-818.5 1210.25,-818.5"/>
<polygon fill="#63b8ff" stroke="#63b8ff" points="1210.04,-822 1220.04,-818.5 1210.04,-815 1210.04,-822"/>
</g>
<!-- Node43 -->
<g id="node20" class="node">
<title>Node43</title>
<g id="a_node20"><a xlink:href="transceiver_8h.html#a52aa3e80bccf5e75346c93fdae63122d" target="_top" xlink:title=" ">
<polygon fill="white" stroke="#666666" points="1000,-508 899,-508 899,-489 1000,-489 1000,-508"/>
<text text-anchor="middle" x="949.5" y="-496" font-family="Helvetica,sans-Serif" font-size="10.00">HopToNextChannel</text>
</a>
</g>
</g>
<!-- Node42&#45;&gt;Node43 -->
<g id="edge22" class="edge">
<title>Node42&#45;&gt;Node43</title>
<path fill="none" stroke="#63b8ff" d="M832.48,-471.42C851.66,-475.89 874.55,-481.24 894.9,-485.99"/>
<polygon fill="#63b8ff" stroke="#63b8ff" points="893.9,-489.35 904.43,-488.21 895.49,-482.53 893.9,-489.35"/>
</g>
<!-- Node47 -->
<g id="node24" class="node">
<title>Node47</title>
<g id="a_node24"><a xlink:href="transceiver_8h.html#ad0e30213b21808d00110752679788a8c" target="_top" xlink:title=" ">
<polygon fill="#fff0f0" stroke="red" points="986.5,-471 912.5,-471 912.5,-452 986.5,-452 986.5,-471"/>
<text text-anchor="middle" x="949.5" y="-459" font-family="Helvetica,sans-Serif" font-size="10.00">TryOtherPipe</text>
</a>
</g>
</g>
<!-- Node42&#45;&gt;Node47 -->
<g id="edge26" class="edge">
<title>Node42&#45;&gt;Node47</title>
<path fill="none" stroke="#63b8ff" d="M833.31,-461.5C854.19,-461.5 879.3,-461.5 900.73,-461.5"/>
<polygon fill="#63b8ff" stroke="#63b8ff" points="900.7,-465 910.7,-461.5 900.7,-458 900.7,-465"/>
</g>
<!-- Node44 -->
<g id="node21" class="node">
<title>Node44</title>
<g id="a_node21"><a xlink:href="ReceiverCode_2src_2main_8cpp.html#a6d87eba17154f7f4f2f3802ef8ee261f" target="_top" xlink:title=" ">
<polygon fill="white" stroke="#666666" points="1123,-545 1085,-545 1085,-526 1123,-526 1123,-545"/>
<text text-anchor="middle" x="1104" y="-533" font-family="Helvetica,sans-Serif" font-size="10.00">Look</text>
</a>
</g>
</g>
<!-- Node43&#45;&gt;Node44 -->
<g id="edge23" class="edge">
<title>Node43&#45;&gt;Node44</title>
<path fill="none" stroke="#63b8ff" d="M991.37,-508.42C1017.33,-514.71 1050.33,-522.72 1073.69,-528.39"/>
<polygon fill="#63b8ff" stroke="#63b8ff" points="1072.62,-531.73 1083.16,-530.69 1074.27,-524.93 1072.62,-531.73"/>
</g>
<!-- Node45 -->
<g id="node22" class="node">
<title>Node45</title>
<g id="a_node22"><a xlink:href="ReceiverCode_2src_2main_8cpp.html#aea423a497d09a142f394356bc8438c41" target="_top" xlink:title=" ">
<polygon fill="white" stroke="#666666" points="1126,-508 1082,-508 1082,-489 1126,-489 1126,-508"/>
<text text-anchor="middle" x="1104" y="-496" font-family="Helvetica,sans-Serif" font-size="10.00">Look1</text>
</a>
</g>
</g>
<!-- Node43&#45;&gt;Node45 -->
<g id="edge24" class="edge">
<title>Node43&#45;&gt;Node45</title>
<path fill="none" stroke="#63b8ff" d="M1000.43,-498.5C1023.42,-498.5 1050.04,-498.5 1070.4,-498.5"/>
<polygon fill="#63b8ff" stroke="#63b8ff" points="1070.37,-502 1080.37,-498.5 1070.37,-495 1070.37,-502"/>
</g>
<!-- Node43&#45;&gt;Node46 -->
<g id="edge25" class="edge">
<title>Node43&#45;&gt;Node46</title>
<path fill="none" stroke="#63b8ff" d="M1000.3,-488.64C1004.99,-486.22 1009.35,-483.22 1013,-479.5 1096.12,-394.76 1103.67,-239.3 1103.51,-182.77"/>
<polygon fill="#63b8ff" stroke="#63b8ff" points="1107.01,-182.9 1103.38,-172.95 1100.01,-182.99 1107.01,-182.9"/>
</g>
<!-- Node49&#45;&gt;Node46 -->
<g id="edge28" class="edge">
<title>Node49&#45;&gt;Node46</title>
<path fill="none" stroke="#63b8ff" d="M651.1,-182.41C716.94,-186.16 878.58,-192.98 1013,-179.5 1031.81,-177.61 1052.51,-173.61 1069.31,-169.86"/>
<polygon fill="#63b8ff" stroke="#63b8ff" points="1069.82,-173.33 1078.78,-167.67 1068.25,-166.51 1069.82,-173.33"/>
</g>
<!-- Node51 -->
<g id="node27" class="node">
<title>Node51</title>
<g id="a_node27"><a xlink:href="transceiver_8h.html#adac102739147db6397bbcbb371aec4fd" target="_top" xlink:title=" ">
<polygon fill="white" stroke="#666666" points="833.5,-312 744.5,-312 744.5,-293 833.5,-293 833.5,-312"/>
<text text-anchor="middle" x="789" y="-300" font-family="Helvetica,sans-Serif" font-size="10.00">LoadParameters</text>
</a>
</g>
</g>
<!-- Node50&#45;&gt;Node51 -->
<g id="edge31" class="edge">
<title>Node50&#45;&gt;Node51</title>
<path fill="none" stroke="#63b8ff" d="M645.28,-360.61C673.73,-349.03 721.07,-329.75 753.36,-316.6"/>
<polygon fill="#63b8ff" stroke="#63b8ff" points="754.34,-319.98 762.29,-312.97 751.7,-313.5 754.34,-319.98"/>
</g>
<!-- Node51&#45;&gt;Node41 -->
<g id="edge34" class="edge">
<title>Node51&#45;&gt;Node41</title>
<path fill="none" stroke="#63b8ff" d="M833.73,-304.98C850.57,-305.94 870.11,-307.05 888.24,-308.08"/>
<polygon fill="#63b8ff" stroke="#63b8ff" points="887.92,-311.57 898.1,-308.64 888.32,-304.58 887.92,-311.57"/>
</g>
<!-- Node52 -->
<g id="node28" class="node">
<title>Node52</title>
<g id="a_node28"><a xlink:href="TransmitterCode_2src_2main_8cpp.html#a5aa4888b924a4f1d95e9cedc3004f2b6" target="_top" xlink:title=" ">
<polygon fill="white" stroke="#666666" points="991,-247 908,-247 908,-228 991,-228 991,-247"/>
<text text-anchor="middle" x="949.5" y="-235" font-family="Helvetica,sans-Serif" font-size="10.00">MakeTwobytes</text>
</a>
</g>
</g>
<!-- Node51&#45;&gt;Node52 -->
<g id="edge32" class="edge">
<title>Node51&#45;&gt;Node52</title>
<path fill="none" stroke="#63b8ff" d="M807.98,-292.52C826.96,-282.26 857.95,-266.31 886,-255.5 890.15,-253.9 894.5,-252.37 898.89,-250.92"/>
<polygon fill="#63b8ff" stroke="#63b8ff" points="899.87,-254.28 908.36,-247.95 897.77,-247.6 899.87,-254.28"/>
</g>
<!-- Node53 -->
<g id="node29" class="node">
<title>Node53</title>
<g id="a_node29"><a xlink:href="TransmitterCode_2src_2main_8cpp.html#a60a8ba3819508aedbe1d59640b0a79b0" target="_top" xlink:title=" ">
<polygon fill="white" stroke="#666666" points="1001.5,-284 897.5,-284 897.5,-265 1001.5,-265 1001.5,-284"/>
<text text-anchor="middle" x="949.5" y="-272" font-family="Helvetica,sans-Serif" font-size="10.00">SetTestFrequencies</text>
</a>
</g>
</g>
<!-- Node51&#45;&gt;Node53 -->
<g id="edge33" class="edge">
<title>Node51&#45;&gt;Node53</title>
<path fill="none" stroke="#63b8ff" d="M833.73,-294.77C849.82,-291.93 868.36,-288.66 885.79,-285.58"/>
<polygon fill="#63b8ff" stroke="#63b8ff" points="886.32,-289.04 895.56,-283.85 885.1,-282.15 886.32,-289.04"/>
</g>
<!-- Node54&#45;&gt;Node46 -->
<g id="edge42" class="edge">
<title>Node54&#45;&gt;Node46</title>
<path fill="none" stroke="#63b8ff" d="M666.85,-113.53C685.69,-109.92 707.8,-106.28 728,-104.5 854.52,-93.35 890.08,-93.55 1013,-125.5 1033.17,-130.74 1054.9,-139.34 1071.95,-146.82"/>
<polygon fill="#63b8ff" stroke="#63b8ff" points="1070.47,-150 1081.03,-150.91 1073.35,-143.61 1070.47,-150"/>
</g>
<!-- Node55 -->
<g id="node31" class="node">
<title>Node55</title>
<g id="a_node31"><a xlink:href="BuddyWireless_8h.html#af59c2527be7a67d6b09dd467f3123d55" target="_top" xlink:title=" ">
<polygon fill="white" stroke="#666666" points="824.5,-133 753.5,-133 753.5,-114 824.5,-114 824.5,-133"/>
<text text-anchor="middle" x="789" y="-121" font-family="Helvetica,sans-Serif" font-size="10.00">GetPupilAck</text>
</a>
</g>
</g>
<!-- Node54&#45;&gt;Node55 -->
<g id="edge36" class="edge">
<title>Node54&#45;&gt;Node55</title>
<path fill="none" stroke="#63b8ff" d="M671.11,-123.5C693.5,-123.5 719.73,-123.5 741.67,-123.5"/>
<polygon fill="#63b8ff" stroke="#63b8ff" points="741.52,-127 751.52,-123.5 741.52,-120 741.52,-127"/>
</g>
<!-- Node57 -->
<g id="node33" class="node">
<title>Node57</title>
<g id="a_node33"><a xlink:href="BuddyWireless_8h.html#a89fc05df708fec875356b62d21b2ce7b" target="_top" xlink:title=" ">
<polygon fill="white" stroke="#666666" points="827.5,-19 750.5,-19 750.5,0 827.5,0 827.5,-19"/>
<text text-anchor="middle" x="789" y="-7" font-family="Helvetica,sans-Serif" font-size="10.00">PupilDetected</text>
</a>
</g>
</g>
<!-- Node54&#45;&gt;Node57 -->
<g id="edge39" class="edge">
<title>Node54&#45;&gt;Node57</title>
<path fill="none" stroke="#63b8ff" d="M635.53,-113.58C664.4,-93.88 729.22,-49.63 764.33,-25.66"/>
<polygon fill="#63b8ff" stroke="#63b8ff" points="765.85,-28.86 772.14,-20.33 761.9,-23.08 765.85,-28.86"/>
</g>
<!-- Node55&#45;&gt;Node46 -->
<g id="edge38" class="edge">
<title>Node55&#45;&gt;Node46</title>
<path fill="none" stroke="#63b8ff" d="M824.92,-125.14C868.95,-127.52 946.88,-132.74 1013,-142.5 1031.74,-145.27 1052.44,-149.55 1069.25,-153.35"/>
<polygon fill="#63b8ff" stroke="#63b8ff" points="1068.2,-156.7 1078.73,-155.54 1069.77,-149.88 1068.2,-156.7"/>
</g>
<!-- Node56 -->
<g id="node32" class="node">
<title>Node56</title>
<g id="a_node32"><a xlink:href="transceiver_8h.html#a6feccc8c0583de3235616d42076f1371" target="_top" xlink:title=" ">
<polygon fill="white" stroke="#666666" points="985,-171 914,-171 914,-152 985,-152 985,-171"/>
<text text-anchor="middle" x="949.5" y="-159" font-family="Helvetica,sans-Serif" font-size="10.00">Decompress</text>
</a>
</g>
</g>
<!-- Node55&#45;&gt;Node56 -->
<g id="edge37" class="edge">
<title>Node55&#45;&gt;Node56</title>
<path fill="none" stroke="#63b8ff" d="M824.78,-131.84C847.62,-137.31 877.74,-144.54 902.55,-150.48"/>
<polygon fill="#63b8ff" stroke="#63b8ff" points="901.51,-153.83 912.05,-152.76 903.14,-147.03 901.51,-153.83"/>
</g>
<!-- Node57&#45;&gt;Node2 -->
<g id="edge41" class="edge">
<title>Node57&#45;&gt;Node2</title>
<path fill="none" stroke="#63b8ff" d="M750.3,-9.5C691.95,-9.5 576.22,-9.5 478,-9.5 366.5,-9.5 366.5,-9.5 366.5,-9.5 230.48,-9.5 252.75,-143.38 210,-272.5 171.85,-387.72 151.47,-776.64 146.96,-872.17"/>
<polygon fill="#63b8ff" stroke="#63b8ff" points="143.47,-871.99 146.5,-882.14 150.46,-872.31 143.47,-871.99"/>
</g>
<!-- Node57&#45;&gt;Node4 -->
<g id="edge40" class="edge">
<title>Node57&#45;&gt;Node4</title>
<path fill="none" stroke="#63b8ff" d="M750.21,-16.08C686.88,-27.34 564.6,-50.19 548,-61.5 453.97,-125.56 474.17,-183.41 406,-274.5 374.05,-317.19 351.51,-318.16 329,-366.5 260.7,-513.14 253.06,-713.69 252.45,-778.43"/>
<polygon fill="#63b8ff" stroke="#63b8ff" points="248.95,-778.29 252.41,-788.31 255.95,-778.32 248.95,-778.29"/>
</g>
<!-- Node59&#45;&gt;Node44 -->
<g id="edge45" class="edge">
<title>Node59&#45;&gt;Node44</title>
<path fill="none" stroke="#63b8ff" d="M995.84,-535.5C1020.88,-535.5 1051.27,-535.5 1073.29,-535.5"/>
<polygon fill="#63b8ff" stroke="#63b8ff" points="1073.05,-539 1083.05,-535.5 1073.05,-532 1073.05,-539"/>
</g>
<!-- Node59&#45;&gt;Node45 -->
<g id="edge46" class="edge">
<title>Node59&#45;&gt;Node45</title>
<path fill="none" stroke="#63b8ff" d="M991.37,-525.58C1016.27,-519.54 1047.65,-511.93 1070.79,-506.31"/>
<polygon fill="#63b8ff" stroke="#63b8ff" points="1071.38,-509.77 1080.28,-504.01 1069.73,-502.97 1071.38,-509.77"/>
</g>
<!-- Node60&#45;&gt;Node11 -->
<g id="edge74" class="edge">
<title>Node60&#45;&gt;Node11</title>
<path fill="none" stroke="#63b8ff" d="M665.75,-621.58C686.16,-617.06 710.53,-611.66 732.12,-606.88"/>
<polygon fill="#63b8ff" stroke="#63b8ff" points="732.64,-610.35 741.65,-604.77 731.13,-603.52 732.64,-610.35"/>
</g>
<!-- Node60&#45;&gt;Node46 -->
<g id="edge73" class="edge">
<title>Node60&#45;&gt;Node46</title>
<path fill="none" stroke="#63b8ff" d="M629.88,-621.6C644.41,-604.99 673.51,-570.04 692,-536.5 713.6,-497.32 692.95,-470.3 728,-442.5 828.17,-363.06 913.22,-483.43 1013,-403.5 1083.18,-347.28 1098.64,-230.57 1102.04,-182.69"/>
<polygon fill="#63b8ff" stroke="#63b8ff" points="1105.52,-183.06 1102.62,-172.87 1098.54,-182.65 1105.52,-183.06"/>
</g>
<!-- Node61 -->
<g id="node37" class="node">
<title>Node61</title>
<g id="a_node37"><a xlink:href="transceiver_8h.html#a953f1d5046e183549ed95b08f6d675e3" target="_top" xlink:title=" ">
<polygon fill="white" stroke="#666666" points="838,-641 740,-641 740,-622 838,-622 838,-641"/>
<text text-anchor="middle" x="789" y="-629" font-family="Helvetica,sans-Serif" font-size="10.00">CheckGapsLength</text>
</a>
</g>
</g>
<!-- Node60&#45;&gt;Node61 -->
<g id="edge48" class="edge">
<title>Node60&#45;&gt;Node61</title>
<path fill="none" stroke="#63b8ff" d="M668.41,-631.5C687.03,-631.5 708.62,-631.5 728.28,-631.5"/>
<polygon fill="#63b8ff" stroke="#63b8ff" points="728.09,-635 738.09,-631.5 728.09,-628 728.09,-635"/>
</g>
<!-- Node63 -->
<g id="node39" class="node">
<title>Node63</title>
<g id="a_node39"><a xlink:href="TransmitterCode_2src_2main_8cpp.html#a62e53eb9359c32b666e3386d62c57037" target="_top" xlink:title=" ">
<polygon fill="white" stroke="#666666" points="825,-883 753,-883 753,-864 825,-864 825,-883"/>
<text text-anchor="middle" x="789" y="-871" font-family="Helvetica,sans-Serif" font-size="10.00">GreenLedOn</text>
</a>
</g>
</g>
<!-- Node60&#45;&gt;Node63 -->
<g id="edge51" class="edge">
<title>Node60&#45;&gt;Node63</title>
<path fill="none" stroke="#63b8ff" d="M627.75,-641.29C652.82,-677.62 740.85,-805.17 774.64,-854.15"/>
<polygon fill="#63b8ff" stroke="#63b8ff" points="771.74,-856.1 780.3,-862.35 777.5,-852.13 771.74,-856.1"/>
</g>
<!-- Node73 -->
<g id="node44" class="node">
<title>Node73</title>
<g id="a_node44"><a xlink:href="Utilities_8h.html#a793b7bcd77531c95fe72ed4356d421c8" target="_top" xlink:title=" ">
<polygon fill="white" stroke="#666666" points="1159,-1016 1049,-1016 1049,-997 1159,-997 1159,-1016"/>
<text text-anchor="middle" x="1104" y="-1004" font-family="Helvetica,sans-Serif" font-size="10.00">StartInactvityTimeout</text>
</a>
</g>
</g>
<!-- Node60&#45;&gt;Node73 -->
<g id="edge75" class="edge">
<title>Node60&#45;&gt;Node73</title>
<path fill="none" stroke="#63b8ff" d="M622.15,-641.39C627.12,-679.5 650.11,-818.42 728,-892.5 769.66,-932.12 800.7,-905.92 850,-935.5 868.61,-946.67 866.53,-958.91 886,-968.5 933.35,-991.82 992.7,-1001.04 1037.36,-1004.59"/>
<polygon fill="#63b8ff" stroke="#63b8ff" points="1036.94,-1008.06 1047.16,-1005.28 1037.43,-1001.08 1036.94,-1008.06"/>
</g>
<!-- Node75 -->
<g id="node46" class="node">
<title>Node75</title>
<g id="a_node46"><a xlink:href="transceiver_8h.html#a694f4f5a0147f4dc29b0bc1a8951547d" target="_top" xlink:title=" ">
<polygon fill="#fff0f0" stroke="red" points="836,-678 742,-678 742,-659 836,-659 836,-678"/>
<text text-anchor="middle" x="789" y="-666" font-family="Helvetica,sans-Serif" font-size="10.00">ParseAckPayload</text>
</a>
</g>
</g>
<!-- Node60&#45;&gt;Node75 -->
<g id="edge67" class="edge">
<title>Node60&#45;&gt;Node75</title>
<path fill="none" stroke="#63b8ff" d="M665.75,-641.42C686.16,-645.94 710.53,-651.34 732.12,-656.12"/>
<polygon fill="#63b8ff" stroke="#63b8ff" points="731.13,-659.48 741.65,-658.23 732.64,-652.65 731.13,-659.48"/>
</g>
<!-- Node62 -->
<g id="node38" class="node">
<title>Node62</title>
<g id="a_node38"><a xlink:href="TransmitterCode_2src_2main_8cpp.html#a1fadc7cdd854f8b3628b622da5417d8b" target="_top" xlink:title=" ">
<polygon fill="#fff0f0" stroke="red" points="1139,-631 1069,-631 1069,-612 1139,-612 1139,-631"/>
<text text-anchor="middle" x="1104" y="-619" font-family="Helvetica,sans-Serif" font-size="10.00">LogThisGap</text>
</a>
</g>
</g>
<!-- Node61&#45;&gt;Node62 -->
<g id="edge49" class="edge">
<title>Node61&#45;&gt;Node62</title>
<path fill="none" stroke="#63b8ff" d="M838.22,-629.96C897.9,-628.05 998.79,-624.83 1057.28,-622.96"/>
<polygon fill="#63b8ff" stroke="#63b8ff" points="1057.35,-626.46 1067.23,-622.64 1057.12,-619.46 1057.35,-626.46"/>
</g>
<!-- Node62&#45;&gt;Node32 -->
<g id="edge50" class="edge">
<title>Node62&#45;&gt;Node32</title>
<path fill="none" stroke="#63b8ff" d="M1124.38,-631.41C1135.62,-637.91 1149.39,-647.28 1159,-658.5 1195.93,-701.64 1219.36,-765.67 1229.57,-798.09"/>
<polygon fill="#63b8ff" stroke="#63b8ff" points="1226.14,-798.86 1232.39,-807.42 1232.84,-796.83 1226.14,-798.86"/>
</g>
<!-- Node63&#45;&gt;Node14 -->
<g id="edge53" class="edge">
<title>Node63&#45;&gt;Node14</title>
<path fill="none" stroke="#63b8ff" d="M794.44,-863.56C805.88,-839.06 838.83,-775.42 886,-742.5 887.59,-741.39 889.25,-740.35 890.96,-739.37"/>
<polygon fill="#63b8ff" stroke="#63b8ff" points="892.36,-742.58 899.85,-735.09 889.32,-736.27 892.36,-742.58"/>
</g>
<!-- Node63&#45;&gt;Node40 -->
<g id="edge55" class="edge">
<title>Node63&#45;&gt;Node40</title>
<path fill="none" stroke="#63b8ff" d="M825.3,-867.3C883.39,-857.09 998.91,-836.79 1061.07,-825.87"/>
<polygon fill="#63b8ff" stroke="#63b8ff" points="1061.3,-829.38 1070.54,-824.2 1060.09,-822.49 1061.3,-829.38"/>
</g>
<!-- Node64 -->
<g id="node40" class="node">
<title>Node64</title>
<g id="a_node40"><a xlink:href="Utilities_8h.html#a82b1900a80d1622896601c57d6edaeda" target="_top" xlink:title=" ">
<polygon fill="white" stroke="#666666" points="998.5,-959 900.5,-959 900.5,-940 998.5,-940 998.5,-959"/>
<text text-anchor="middle" x="949.5" y="-947" font-family="Helvetica,sans-Serif" font-size="10.00">ClearSuccessRate</text>
</a>
</g>
</g>
<!-- Node63&#45;&gt;Node64 -->
<g id="edge52" class="edge">
<title>Node63&#45;&gt;Node64</title>
<path fill="none" stroke="#63b8ff" d="M821.31,-883.47C830.89,-887.18 841.21,-891.88 850,-897.5 868.54,-909.35 866.89,-920.59 886,-931.5 888.45,-932.9 891.01,-934.19 893.64,-935.39"/>
<polygon fill="#63b8ff" stroke="#63b8ff" points="892.06,-938.53 902.64,-939 894.66,-932.03 892.06,-938.53"/>
</g>
<!-- Node65 -->
<g id="node41" class="node">
<title>Node65</title>
<g id="a_node41"><a xlink:href="TransmitterCode_2src_2main_8cpp.html#aaa3e86084c43b049d52d7d62c58a00b9" target="_top" xlink:title=" ">
<polygon fill="#fff0f0" stroke="red" points="990.5,-922 908.5,-922 908.5,-903 990.5,-903 990.5,-922"/>
<text text-anchor="middle" x="949.5" y="-910" font-family="Helvetica,sans-Serif" font-size="10.00">LogConnection</text>
</a>
</g>
</g>
<!-- Node63&#45;&gt;Node65 -->
<g id="edge54" class="edge">
<title>Node63&#45;&gt;Node65</title>
<path fill="none" stroke="#63b8ff" d="M825.18,-882.16C846.36,-887.37 873.69,-894.09 897.24,-899.89"/>
<polygon fill="#63b8ff" stroke="#63b8ff" points="896.09,-903.21 906.64,-902.2 897.77,-896.41 896.09,-903.21"/>
</g>
<!-- Node67 -->
<g id="node42" class="node">
<title>Node67</title>
<g id="a_node42"><a xlink:href="TransmitterCode_2src_2main_8cpp.html#a5d3a46c21927cf7a3031a1e68e0b7b48" target="_top" xlink:title="SHOW COMMS.">
<polygon fill="#fff0f0" stroke="red" points="987,-1035 912,-1035 912,-1016 987,-1016 987,-1035"/>
<text text-anchor="middle" x="949.5" y="-1023" font-family="Helvetica,sans-Serif" font-size="10.00">ShowComms</text>
</a>
</g>
</g>
<!-- Node63&#45;&gt;Node67 -->
<g id="edge56" class="edge">
<title>Node63&#45;&gt;Node67</title>
<path fill="none" stroke="#63b8ff" d="M799.68,-883.34C816.86,-900.74 853.87,-937.98 886,-968.5 900.22,-982.01 916.62,-996.94 929.05,-1008.13"/>
<polygon fill="#63b8ff" stroke="#63b8ff" points="926.4,-1010.46 936.18,-1014.53 931.08,-1005.25 926.4,-1010.46"/>
</g>
<!-- Node74 -->
<g id="node45" class="node">
<title>Node74</title>
<g id="a_node45"><a xlink:href="TransmitterCode_2src_2main_8cpp.html#a6da9a1fd0b003151f79eabc702ba80ff" target="_top" xlink:title=" ">
<polygon fill="white" stroke="#666666" points="993,-885 906,-885 906,-866 993,-866 993,-885"/>
<text text-anchor="middle" x="949.5" y="-873" font-family="Helvetica,sans-Serif" font-size="10.00">ZeroDataScreen</text>
</a>
</g>
</g>
<!-- Node63&#45;&gt;Node74 -->
<g id="edge66" class="edge">
<title>Node63&#45;&gt;Node74</title>
<path fill="none" stroke="#63b8ff" d="M825.18,-873.94C845.46,-874.2 871.4,-874.53 894.24,-874.82"/>
<polygon fill="#63b8ff" stroke="#63b8ff" points="893.96,-878.31 904,-874.94 894.05,-871.31 893.96,-878.31"/>
</g>
<!-- Node67&#45;&gt;Node1 -->
<g id="edge57" class="edge">
<title>Node67&#45;&gt;Node1</title>
<path fill="none" stroke="#63b8ff" d="M911.57,-1029.6C819.83,-1039.43 574.1,-1063.5 368.5,-1063.5 250.5,-1063.5 250.5,-1063.5 250.5,-1063.5 196.31,-1063.5 134.23,-1063.5 91.81,-1063.5"/>
<polygon fill="#63b8ff" stroke="#63b8ff" points="91.9,-1060 81.9,-1063.5 91.9,-1067 91.9,-1060"/>
</g>
<!-- Node67&#45;&gt;Node2 -->
<g id="edge60" class="edge">
<title>Node67&#45;&gt;Node2</title>
<path fill="none" stroke="#63b8ff" d="M911.83,-1018.44C851.44,-1007.45 727.18,-987.5 621,-987.5 366.5,-987.5 366.5,-987.5 366.5,-987.5 288.19,-987.5 205.86,-936.71 167.74,-909.79"/>
<polygon fill="#63b8ff" stroke="#63b8ff" points="169.99,-907.11 159.84,-904.09 165.9,-912.78 169.99,-907.11"/>
</g>
<!-- Node67&#45;&gt;Node4 -->
<g id="edge59" class="edge">
<title>Node67&#45;&gt;Node4</title>
<path fill="none" stroke="#63b8ff" d="M922.4,-1015.59C910.98,-1010.9 897.57,-1004.93 886,-998.5 868.97,-989.03 867.56,-981.94 850,-973.5 750.63,-925.74 429.95,-843.54 303.98,-812.17"/>
<polygon fill="#63b8ff" stroke="#63b8ff" points="305.14,-808.85 294.59,-809.84 303.45,-815.64 305.14,-808.85"/>
</g>
<!-- Node67&#45;&gt;Node40 -->
<g id="edge58" class="edge">
<title>Node67&#45;&gt;Node40</title>
<path fill="none" stroke="#63b8ff" d="M963.5,-1015.53C976.91,-1004.85 997.93,-986.91 1013,-968.5 1047.97,-925.78 1078.65,-868.1 1093.51,-838.24"/>
<polygon fill="#63b8ff" stroke="#63b8ff" points="1096.48,-840.13 1097.74,-829.61 1090.19,-837.05 1096.48,-840.13"/>
</g>
<!-- Node67&#45;&gt;Node69 -->
<g id="edge61" class="edge">
<title>Node67&#45;&gt;Node69</title>
<path fill="none" stroke="#63b8ff" d="M987.42,-1034.7C1009.44,-1040.19 1037.48,-1047.17 1060.43,-1052.89"/>
<polygon fill="#63b8ff" stroke="#63b8ff" points="1059.56,-1056.28 1070.11,-1055.3 1061.25,-1049.49 1059.56,-1056.28"/>
</g>
<!-- Node67&#45;&gt;Node73 -->
<g id="edge65" class="edge">
<title>Node67&#45;&gt;Node73</title>
<path fill="none" stroke="#63b8ff" d="M987.42,-1020.9C1002.46,-1019.03 1020.31,-1016.8 1037.43,-1014.67"/>
<polygon fill="#63b8ff" stroke="#63b8ff" points="1037.54,-1018.18 1047.03,-1013.47 1036.68,-1011.24 1037.54,-1018.18"/>
</g>
<!-- Node69&#45;&gt;Node3 -->
<g id="edge62" class="edge">
<title>Node69&#45;&gt;Node3</title>
<path fill="none" stroke="#63b8ff" d="M1122.06,-1073.44C1144.14,-1086.29 1182.85,-1108.84 1208.83,-1123.97"/>
<polygon fill="#63b8ff" stroke="#63b8ff" points="1206.72,-1126.79 1217.13,-1128.8 1210.25,-1120.74 1206.72,-1126.79"/>
</g>
<!-- Node69&#45;&gt;Node4 -->
<g id="edge63" class="edge">
<title>Node69&#45;&gt;Node4</title>
<path fill="none" stroke="#63b8ff" d="M1071.71,-1063.32C1029.18,-1062.49 950.98,-1058.92 886,-1044.5 628.78,-987.41 568.96,-950.33 329,-841.5 311.79,-833.69 293.19,-823.53 278.64,-815.15"/>
<polygon fill="#63b8ff" stroke="#63b8ff" points="280.55,-812.21 270.15,-810.19 277.02,-818.25 280.55,-812.21"/>
</g>
<!-- Node69&#45;&gt;Node32 -->
<g id="edge64" class="edge">
<title>Node69&#45;&gt;Node32</title>
<path fill="none" stroke="#63b8ff" d="M1124.76,-1053.53C1136.13,-1046.93 1149.91,-1037.31 1159,-1025.5 1204.11,-966.86 1224.7,-878.91 1232.09,-839.23"/>
<polygon fill="#63b8ff" stroke="#63b8ff" points="1235.49,-840.09 1233.77,-829.63 1228.59,-838.87 1235.49,-840.09"/>
</g>
<!-- Node75&#45;&gt;Node43 -->
<g id="edge72" class="edge">
<title>Node75&#45;&gt;Node43</title>
<path fill="none" stroke="#63b8ff" d="M836.39,-659.2C841.44,-656.7 846.14,-653.52 850,-649.5 892.38,-605.29 843.05,-560.15 886,-516.5 887.02,-515.46 888.11,-514.48 889.23,-513.55"/>
<polygon fill="#63b8ff" stroke="#63b8ff" points="890.88,-516.65 897.41,-508.31 887.1,-510.76 890.88,-516.65"/>
</g>
<!-- Node76 -->
<g id="node47" class="node">
<title>Node76</title>
<g id="a_node47"><a xlink:href="transceiver_8h.html#a75fa77e7bbb1cfe8fe6e1a216fbdc17e" target="_top" xlink:title=" ">
<polygon fill="white" stroke="#666666" points="982,-697 917,-697 917,-678 982,-678 982,-697"/>
<text text-anchor="middle" x="949.5" y="-685" font-family="Helvetica,sans-Serif" font-size="10.00">GetAltitude</text>
</a>
</g>
</g>
<!-- Node75&#45;&gt;Node76 -->
<g id="edge68" class="edge">
<title>Node75&#45;&gt;Node76</title>
<path fill="none" stroke="#63b8ff" d="M836.27,-674.05C858.01,-676.65 883.78,-679.74 905.14,-682.3"/>
<polygon fill="#63b8ff" stroke="#63b8ff" points="904.66,-685.77 915,-683.48 905.49,-678.82 904.66,-685.77"/>
</g>
<!-- Node77 -->
<g id="node48" class="node">
<title>Node77</title>
<g id="a_node48"><a xlink:href="transceiver_8h.html#ab5736b017daadeb2c1d7dc73489d31a6" target="_top" xlink:title=" ">
<polygon fill="white" stroke="#666666" points="1157.5,-687 1050.5,-687 1050.5,-668 1157.5,-668 1157.5,-687"/>
<text text-anchor="middle" x="1104" y="-675" font-family="Helvetica,sans-Serif" font-size="10.00">GetFromAckPayload</text>
</a>
</g>
</g>
<!-- Node75&#45;&gt;Node77 -->
<g id="edge71" class="edge">
<title>Node75&#45;&gt;Node77</title>
<path fill="none" stroke="#63b8ff" d="M836.16,-667.16C881.28,-666.17 951.91,-665.45 1013,-668.5 1021.4,-668.92 1030.22,-669.56 1038.92,-670.3"/>
<polygon fill="#63b8ff" stroke="#63b8ff" points="1038.46,-673.77 1048.73,-671.2 1039.09,-666.8 1038.46,-673.77"/>
</g>
<!-- Node78 -->
<g id="node49" class="node">
<title>Node78</title>
<g id="a_node49"><a xlink:href="transceiver_8h.html#a160b9119423c34869b16a4ebdc421d35" target="_top" xlink:title=" ">
<polygon fill="white" stroke="#666666" points="1013,-771 886,-771 886,-752 1013,-752 1013,-771"/>
<text text-anchor="middle" x="949.5" y="-759" font-family="Helvetica,sans-Serif" font-size="10.00">GetDateFromAckPayload</text>
</a>
</g>
</g>
<!-- Node75&#45;&gt;Node78 -->
<g id="edge70" class="edge">
<title>Node75&#45;&gt;Node78</title>
<path fill="none" stroke="#63b8ff" d="M800.07,-678.3C816.67,-693.96 851.4,-724.66 886,-742.5 889.64,-744.38 893.5,-746.1 897.44,-747.68"/>
<polygon fill="#63b8ff" stroke="#63b8ff" points="895.96,-750.87 906.56,-751.01 898.36,-744.29 895.96,-750.87"/>
</g>
<!-- Node76&#45;&gt;Node77 -->
<g id="edge69" class="edge">
<title>Node76&#45;&gt;Node77</title>
<path fill="none" stroke="#63b8ff" d="M982.47,-685.4C998.82,-684.33 1019.34,-682.99 1038.78,-681.71"/>
<polygon fill="#63b8ff" stroke="#63b8ff" points="1038.8,-685.22 1048.55,-681.07 1038.35,-678.23 1038.8,-685.22"/>
</g>
</g>
</svg>
