<?xml version="1.0" encoding="UTF-8" standalone="no"?>
<!DOCTYPE svg PUBLIC "-//W3C//DTD SVG 1.1//EN"
 "http://www.w3.org/Graphics/SVG/1.1/DTD/svg11.dtd">
<!-- Generated by graphviz version 7.0.5 (20221223.1930)
 -->
<!-- Title: StartRenameModel Pages: 1 -->
<svg width="1213pt" height="1259pt"
 viewBox="0.00 0.00 1213.00 1259.22" xmlns="http://www.w3.org/2000/svg" xmlns:xlink="http://www.w3.org/1999/xlink">
<g id="graph0" class="graph" transform="scale(1 1) rotate(0) translate(4 1255.22)">
<title>StartRenameModel</title>
<!-- Node1 -->
<g id="node1" class="node">
<title>Node1</title>
<g id="a_node1"><a xlink:title=" ">
<polygon fill="#999999" stroke="#666666" points="100,-197.22 0,-197.22 0,-178.22 100,-178.22 100,-197.22"/>
<text text-anchor="middle" x="50" y="-185.22" font-family="Helvetica,sans-Serif" font-size="10.00">StartRenameModel</text>
</a>
</g>
</g>
<!-- Node2 -->
<g id="node2" class="node">
<title>Node2</title>
<g id="a_node2"><a xlink:href="Nextion_8h.html#aecac2f0c289f02ef3c92b85be82eacac" target="_top" xlink:title=" ">
<polygon fill="white" stroke="#666666" points="219,-385.22 136,-385.22 136,-366.22 219,-366.22 219,-385.22"/>
<text text-anchor="middle" x="177.5" y="-373.22" font-family="Helvetica,sans-Serif" font-size="10.00">SendCommand</text>
</a>
</g>
</g>
<!-- Node1&#45;&gt;Node2 -->
<g id="edge1" class="edge">
<title>Node1&#45;&gt;Node2</title>
<path fill="none" stroke="#63b8ff" d="M57.57,-197.56C77.44,-227.32 137.12,-316.73 163.6,-356.4"/>
<polygon fill="#63b8ff" stroke="#63b8ff" points="160.69,-358.34 169.15,-364.71 166.51,-354.45 160.69,-358.34"/>
</g>
<!-- Node39 -->
<g id="node15" class="node">
<title>Node39</title>
<g id="a_node15"><a xlink:href="Nextion_8h.html#afe513398f72d5e48f691830a1ef6eb42" target="_top" xlink:title=" ">
<polygon fill="white" stroke="#666666" points="1060,-180.22 1002,-180.22 1002,-161.22 1060,-161.22 1060,-180.22"/>
<text text-anchor="middle" x="1031" y="-168.22" font-family="Helvetica,sans-Serif" font-size="10.00">SendText</text>
</a>
</g>
</g>
<!-- Node1&#45;&gt;Node39 -->
<g id="edge73" class="edge">
<title>Node1&#45;&gt;Node39</title>
<path fill="none" stroke="#63b8ff" d="M56.9,-177.93C80.91,-139.45 175.58,-0.72 292.5,-0.72 292.5,-0.72 292.5,-0.72 547,-0.72 724.74,-0.72 784.18,10.79 940,-74.72 973.89,-93.32 1002.3,-129.27 1017.66,-151.51"/>
<polygon fill="#63b8ff" stroke="#63b8ff" points="1014.65,-153.29 1023.11,-159.66 1020.47,-149.4 1014.65,-153.29"/>
</g>
<!-- Node3 -->
<g id="node3" class="node">
<title>Node3</title>
<g id="a_node3"><a xlink:href="Utilities_8h.html#a3b1d8aa403e2724e55c71da3d9d13e7e" target="_top" xlink:title=" ">
<polygon fill="white" stroke="#666666" points="332,-762.22 255,-762.22 255,-743.22 332,-743.22 332,-762.22"/>
<text text-anchor="middle" x="293.5" y="-750.22" font-family="Helvetica,sans-Serif" font-size="10.00">DelayWithDog</text>
</a>
</g>
</g>
<!-- Node2&#45;&gt;Node3 -->
<g id="edge2" class="edge">
<title>Node2&#45;&gt;Node3</title>
<path fill="none" stroke="#63b8ff" d="M181.43,-385.42C196.46,-435.1 264.93,-661.53 286.18,-731.84"/>
<polygon fill="#63b8ff" stroke="#63b8ff" points="282.8,-732.73 289.04,-741.29 289.5,-730.7 282.8,-732.73"/>
</g>
<!-- Node40 -->
<g id="node16" class="node">
<title>Node40</title>
<g id="a_node16"><a xlink:href="Nextion_8h.html#a43937dd3d9c795271fd9c3eb3c6b6410" target="_top" xlink:title=" ">
<polygon fill="white" stroke="#666666" points="1205,-48.22 1122,-48.22 1122,-29.22 1205,-29.22 1205,-48.22"/>
<text text-anchor="middle" x="1163.5" y="-36.22" font-family="Helvetica,sans-Serif" font-size="10.00">GetReturnCode</text>
</a>
</g>
</g>
<!-- Node2&#45;&gt;Node40 -->
<g id="edge71" class="edge">
<title>Node2&#45;&gt;Node40</title>
<path fill="none" stroke="#63b8ff" d="M187.72,-385.61C201.05,-399.1 227.15,-422.62 255,-431.72 287.53,-442.35 300.26,-444.51 332,-431.72 516.25,-357.44 482.38,-221.76 654,-121.72 717.29,-84.82 740.14,-88.97 812,-74.72 916.65,-53.97 1041.39,-44.78 1110.28,-41.04"/>
<polygon fill="#63b8ff" stroke="#63b8ff" points="1110.34,-44.54 1120.14,-40.52 1109.97,-37.55 1110.34,-44.54"/>
</g>
<!-- Node117 -->
<g id="node50" class="node">
<title>Node117</title>
<g id="a_node50"><a xlink:href="TransmitterCode_2src_2main_8cpp.html#a5f109790a6fe0b972a502f3cac4ed1e7" target="_top" xlink:title=" ">
<polygon fill="white" stroke="#666666" points="317.5,-423.22 269.5,-423.22 269.5,-404.22 317.5,-404.22 317.5,-423.22"/>
<text text-anchor="middle" x="293.5" y="-411.22" font-family="Helvetica,sans-Serif" font-size="10.00">InStrng</text>
</a>
</g>
</g>
<!-- Node2&#45;&gt;Node117 -->
<g id="edge72" class="edge">
<title>Node2&#45;&gt;Node117</title>
<path fill="none" stroke="#63b8ff" d="M208.45,-385.7C223.89,-390.85 242.77,-397.14 258.73,-402.46"/>
<polygon fill="#63b8ff" stroke="#63b8ff" points="257.19,-405.64 267.79,-405.48 259.41,-399 257.19,-405.64"/>
</g>
<!-- Node4 -->
<g id="node4" class="node">
<title>Node4</title>
<g id="a_node4"><a xlink:href="Utilities_8h.html#ada95a00a341e4a80176eda743a94ab2e" target="_top" xlink:title=" ">
<polygon fill="white" stroke="#666666" points="438,-762.22 368,-762.22 368,-743.22 438,-743.22 438,-762.22"/>
<text text-anchor="middle" x="403" y="-750.22" font-family="Helvetica,sans-Serif" font-size="10.00">KickTheDog</text>
</a>
</g>
</g>
<!-- Node3&#45;&gt;Node4 -->
<g id="edge3" class="edge">
<title>Node3&#45;&gt;Node4</title>
<path fill="none" stroke="#63b8ff" d="M332.4,-752.72C340.12,-752.72 348.31,-752.72 356.27,-752.72"/>
<polygon fill="#63b8ff" stroke="#63b8ff" points="356.16,-756.22 366.16,-752.72 356.16,-749.22 356.16,-756.22"/>
</g>
<!-- Node5 -->
<g id="node5" class="node">
<title>Node5</title>
<g id="a_node5"><a xlink:href="transceiver_8h.html#a049bfb836e7aa4a3a48a1a4bd225fafc" target="_top" xlink:title=" ">
<polygon fill="white" stroke="#666666" points="432.5,-967.22 373.5,-967.22 373.5,-948.22 432.5,-948.22 432.5,-967.22"/>
<text text-anchor="middle" x="403" y="-955.22" font-family="Helvetica,sans-Serif" font-size="10.00">SendData</text>
</a>
</g>
</g>
<!-- Node3&#45;&gt;Node5 -->
<g id="edge4" class="edge">
<title>Node3&#45;&gt;Node5</title>
<path fill="none" stroke="#63b8ff" d="M299.68,-762.61C316.39,-794.47 369.05,-894.88 391.59,-937.87"/>
<polygon fill="#63b8ff" stroke="#63b8ff" points="388.42,-939.36 396.16,-946.59 394.62,-936.11 388.42,-939.36"/>
</g>
<!-- Node6 -->
<g id="node6" class="node">
<title>Node6</title>
<g id="a_node6"><a xlink:href="transceiver_8h.html#a1ddd5e8d5bd649dd98ce3710fbff651b" target="_top" xlink:title=" ">
<polygon fill="white" stroke="#666666" points="576.5,-912.22 515.5,-912.22 515.5,-893.22 576.5,-893.22 576.5,-912.22"/>
<text text-anchor="middle" x="546" y="-900.22" font-family="Helvetica,sans-Serif" font-size="10.00">Compress</text>
</a>
</g>
</g>
<!-- Node5&#45;&gt;Node6 -->
<g id="edge5" class="edge">
<title>Node5&#45;&gt;Node6</title>
<path fill="none" stroke="#63b8ff" d="M420.79,-947.79C434.68,-939.89 455.13,-929 474,-921.72 483.6,-918.01 494.2,-914.76 504.21,-912.04"/>
<polygon fill="#63b8ff" stroke="#63b8ff" points="504.92,-915.47 513.72,-909.57 503.16,-908.69 504.92,-915.47"/>
</g>
<!-- Node7 -->
<g id="node7" class="node">
<title>Node7</title>
<g id="a_node7"><a xlink:href="transceiver_8h.html#a4144c213e5448a7e02d4172881f08219" target="_top" xlink:title=" ">
<polygon fill="white" stroke="#666666" points="618,-875.22 474,-875.22 474,-856.22 618,-856.22 618,-875.22"/>
<text text-anchor="middle" x="546" y="-863.22" font-family="Helvetica,sans-Serif" font-size="10.00">EncodeTheChangedChannels</text>
</a>
</g>
</g>
<!-- Node5&#45;&gt;Node7 -->
<g id="edge6" class="edge">
<title>Node5&#45;&gt;Node7</title>
<path fill="none" stroke="#63b8ff" d="M410.48,-947.88C421.53,-931.89 445.63,-900.37 474,-883.72 476.31,-882.36 478.73,-881.11 481.21,-879.94"/>
<polygon fill="#63b8ff" stroke="#63b8ff" points="482.37,-883.25 490.32,-876.25 479.74,-876.76 482.37,-883.25"/>
</g>
<!-- Node8 -->
<g id="node8" class="node">
<title>Node8</title>
<g id="a_node8"><a xlink:href="transceiver_8h.html#a5fbd3c8613a4163425c94965704ce5f8" target="_top" xlink:title=" ">
<polygon fill="white" stroke="#666666" points="583,-1043.22 509,-1043.22 509,-1024.22 583,-1024.22 583,-1043.22"/>
<text text-anchor="middle" x="546" y="-1031.22" font-family="Helvetica,sans-Serif" font-size="10.00">FailedPacket</text>
</a>
</g>
</g>
<!-- Node5&#45;&gt;Node8 -->
<g id="edge7" class="edge">
<title>Node5&#45;&gt;Node8</title>
<path fill="none" stroke="#63b8ff" d="M422.11,-967.59C436.24,-975.28 456.35,-986.21 474,-995.72 487.98,-1003.26 503.54,-1011.59 516.52,-1018.53"/>
<polygon fill="#63b8ff" stroke="#63b8ff" points="514.49,-1021.41 524.96,-1023.04 517.79,-1015.24 514.49,-1021.41"/>
</g>
<!-- Node46 -->
<g id="node20" class="node">
<title>Node46</title>
<g id="a_node20"><a xlink:href="common_8h.html#a6e2d4126d864c50e7c23c988c2bfdd1a" target="_top" xlink:title=" ">
<polygon fill="white" stroke="#666666" points="1054.5,-1156.22 1007.5,-1156.22 1007.5,-1137.22 1054.5,-1137.22 1054.5,-1156.22"/>
<text text-anchor="middle" x="1031" y="-1144.22" font-family="Helvetica,sans-Serif" font-size="10.00">Radio1</text>
</a>
</g>
</g>
<!-- Node5&#45;&gt;Node46 -->
<g id="edge26" class="edge">
<title>Node5&#45;&gt;Node46</title>
<path fill="none" stroke="#63b8ff" d="M408.63,-967.68C418.12,-987 441.62,-1029.67 474,-1052.72 542.25,-1101.31 571.91,-1091.98 654,-1108.72 778.37,-1134.08 929.49,-1142.81 995.91,-1145.56"/>
<polygon fill="#63b8ff" stroke="#63b8ff" points="995.66,-1149.06 1005.79,-1145.95 995.93,-1142.06 995.66,-1149.06"/>
</g>
<!-- Node49 -->
<g id="node22" class="node">
<title>Node49</title>
<g id="a_node22"><a xlink:href="transceiver_8h.html#a07c27b4e208198453c70876517926052" target="_top" xlink:title=" ">
<polygon fill="white" stroke="#666666" points="577,-1175.22 515,-1175.22 515,-1156.22 577,-1156.22 577,-1175.22"/>
<text text-anchor="middle" x="546" y="-1163.22" font-family="Helvetica,sans-Serif" font-size="10.00">FlushFifos</text>
</a>
</g>
</g>
<!-- Node5&#45;&gt;Node49 -->
<g id="edge24" class="edge">
<title>Node5&#45;&gt;Node49</title>
<path fill="none" stroke="#63b8ff" d="M404.87,-967.7C408.05,-998.26 421.81,-1091.45 474,-1141.72 482.14,-1149.56 492.92,-1154.84 503.63,-1158.4"/>
<polygon fill="#63b8ff" stroke="#63b8ff" points="502.6,-1161.74 513.18,-1161.1 504.51,-1155.01 502.6,-1161.74"/>
</g>
<!-- Node50 -->
<g id="node23" class="node">
<title>Node50</title>
<g id="a_node23"><a xlink:href="transceiver_8h.html#a65249d0ac8676541d13ced58b1ce7624" target="_top" xlink:title=" ">
<polygon fill="white" stroke="#666666" points="605.5,-425.22 486.5,-425.22 486.5,-406.22 605.5,-406.22 605.5,-425.22"/>
<text text-anchor="middle" x="546" y="-413.22" font-family="Helvetica,sans-Serif" font-size="10.00">SendExtraParamemters</text>
</a>
</g>
</g>
<!-- Node5&#45;&gt;Node50 -->
<g id="edge27" class="edge">
<title>Node5&#45;&gt;Node50</title>
<path fill="none" stroke="#63b8ff" d="M406.57,-947.85C423.23,-883.78 516.12,-526.74 539.6,-436.46"/>
<polygon fill="#63b8ff" stroke="#63b8ff" points="542.98,-437.37 542.11,-426.81 536.21,-435.61 542.98,-437.37"/>
</g>
<!-- Node54 -->
<g id="node27" class="node">
<title>Node54</title>
<g id="a_node27"><a xlink:href="BuddyWireless_8h.html#a41c327908c92572d0d3eebbb19160d86" target="_top" xlink:title=" ">
<polygon fill="white" stroke="#666666" points="766,-1213.22 664,-1213.22 664,-1194.22 766,-1194.22 766,-1213.22"/>
<text text-anchor="middle" x="715" y="-1201.22" font-family="Helvetica,sans-Serif" font-size="10.00">SendSpecialPacket</text>
</a>
</g>
</g>
<!-- Node5&#45;&gt;Node54 -->
<g id="edge32" class="edge">
<title>Node5&#45;&gt;Node54</title>
<path fill="none" stroke="#63b8ff" d="M403.53,-967.52C402.41,-1003.42 403.83,-1128.51 474,-1184.72 525.82,-1226.23 605.73,-1223.54 658.93,-1215.52"/>
<polygon fill="#63b8ff" stroke="#63b8ff" points="659.38,-1218.99 668.69,-1213.93 658.26,-1212.08 659.38,-1218.99"/>
</g>
<!-- Node58 -->
<g id="node31" class="node">
<title>Node58</title>
<g id="a_node31"><a xlink:href="BuddyPPM_8h.html#a784a1eca0361b3991bca899167cc1cdb" target="_top" xlink:title=" ">
<polygon fill="white" stroke="#666666" points="583.5,-949.22 508.5,-949.22 508.5,-930.22 583.5,-930.22 583.5,-949.22"/>
<text text-anchor="middle" x="546" y="-937.22" font-family="Helvetica,sans-Serif" font-size="10.00">SendViaPPM</text>
</a>
</g>
</g>
<!-- Node5&#45;&gt;Node58 -->
<g id="edge40" class="edge">
<title>Node5&#45;&gt;Node58</title>
<path fill="none" stroke="#63b8ff" d="M432.87,-954.03C451.31,-951.68 475.67,-948.57 496.97,-945.85"/>
<polygon fill="#63b8ff" stroke="#63b8ff" points="497.13,-949.36 506.61,-944.62 496.25,-942.41 497.13,-949.36"/>
</g>
<!-- Node59 -->
<g id="node32" class="node">
<title>Node59</title>
<g id="a_node32"><a xlink:href="transceiver_8h.html#a1c11bb6771548de7d96723045b922620" target="_top" xlink:title=" ">
<polygon fill="white" stroke="#666666" points="594,-986.22 498,-986.22 498,-967.22 594,-967.22 594,-986.22"/>
<text text-anchor="middle" x="546" y="-974.22" font-family="Helvetica,sans-Serif" font-size="10.00">SuccessfulPacket</text>
</a>
</g>
</g>
<!-- Node5&#45;&gt;Node59 -->
<g id="edge41" class="edge">
<title>Node5&#45;&gt;Node59</title>
<path fill="none" stroke="#63b8ff" d="M432.87,-961.61C448.29,-963.69 467.83,-966.32 486.28,-968.81"/>
<polygon fill="#63b8ff" stroke="#63b8ff" points="485.69,-972.26 496.07,-970.13 486.63,-965.32 485.69,-972.26"/>
</g>
<!-- Node9 -->
<g id="node9" class="node">
<title>Node9</title>
<g id="a_node9"><a xlink:href="transceiver_8h.html#afc091b5942e21a03f6dc8635d5e519ba" target="_top" xlink:title=" ">
<polygon fill="white" stroke="#666666" points="776,-1062.22 654,-1062.22 654,-1043.22 776,-1043.22 776,-1062.22"/>
<text text-anchor="middle" x="715" y="-1050.22" font-family="Helvetica,sans-Serif" font-size="10.00">RecordsPacketSuccess</text>
</a>
</g>
</g>
<!-- Node8&#45;&gt;Node9 -->
<g id="edge8" class="edge">
<title>Node8&#45;&gt;Node9</title>
<path fill="none" stroke="#63b8ff" d="M583.24,-1037.84C600.56,-1039.81 621.93,-1042.24 642.33,-1044.56"/>
<polygon fill="#63b8ff" stroke="#63b8ff" points="641.7,-1048.02 652.03,-1045.67 642.49,-1041.06 641.7,-1048.02"/>
</g>
<!-- Node10 -->
<g id="node10" class="node">
<title>Node10</title>
<g id="a_node10"><a xlink:href="TransmitterCode_2src_2main_8cpp.html#a7d34cec6e8edc20c8b50424e15dcc7c7" target="_top" xlink:title=" ">
<polygon fill="white" stroke="#666666" points="746.5,-312.22 683.5,-312.22 683.5,-293.22 746.5,-293.22 746.5,-312.22"/>
<text text-anchor="middle" x="715" y="-300.22" font-family="Helvetica,sans-Serif" font-size="10.00">RedLedOn</text>
</a>
</g>
</g>
<!-- Node8&#45;&gt;Node10 -->
<g id="edge9" class="edge">
<title>Node8&#45;&gt;Node10</title>
<path fill="none" stroke="#63b8ff" d="M580.68,-1023.81C594.58,-1017.94 609.42,-1008.99 618,-995.72 681.49,-897.51 630.11,-585.19 654,-470.72 665.5,-415.61 690.92,-354.06 704.69,-323"/>
<polygon fill="#63b8ff" stroke="#63b8ff" points="707.81,-324.6 708.73,-314.05 701.43,-321.73 707.81,-324.6"/>
</g>
<!-- Node42 -->
<g id="node18" class="node">
<title>Node42</title>
<g id="a_node18"><a xlink:href="transceiver_8h.html#ad0236abcfc887ad708d9504c4ab2a7c3" target="_top" xlink:title=" ">
<polygon fill="white" stroke="#666666" points="759,-1099.22 671,-1099.22 671,-1080.22 759,-1080.22 759,-1099.22"/>
<text text-anchor="middle" x="715" y="-1087.22" font-family="Helvetica,sans-Serif" font-size="10.00">TryToReconnect</text>
</a>
</g>
</g>
<!-- Node8&#45;&gt;Node42 -->
<g id="edge20" class="edge">
<title>Node8&#45;&gt;Node42</title>
<path fill="none" stroke="#63b8ff" d="M573.7,-1043.62C595.27,-1051.51 626.46,-1062.7 654,-1071.72 658.78,-1073.28 663.79,-1074.87 668.79,-1076.42"/>
<polygon fill="#63b8ff" stroke="#63b8ff" points="667.61,-1079.72 678.19,-1079.29 669.65,-1073.02 667.61,-1079.72"/>
</g>
<!-- Node10&#45;&gt;Node2 -->
<g id="edge15" class="edge">
<title>Node10&#45;&gt;Node2</title>
<path fill="none" stroke="#63b8ff" d="M710.2,-312.43C699.8,-337.52 668.26,-404.61 618,-433.72 464.41,-522.66 333.35,-501.95 255,-465.72 223.79,-451.29 200.65,-417.15 188.39,-395.31"/>
<polygon fill="#63b8ff" stroke="#63b8ff" points="191.64,-393.96 183.84,-386.79 185.46,-397.26 191.64,-393.96"/>
</g>
<!-- Node11 -->
<g id="node11" class="node">
<title>Node11</title>
<g id="a_node11"><a xlink:href="TransmitterCode_2src_2main_8cpp.html#afeaea883a32e6ebe461d419fab1b9f59" target="_top" xlink:title=" ">
<polygon fill="white" stroke="#666666" points="931.5,-388.22 820.5,-388.22 820.5,-369.22 931.5,-369.22 931.5,-388.22"/>
<text text-anchor="middle" x="876" y="-376.22" font-family="Helvetica,sans-Serif" font-size="10.00">ClearMostParameters</text>
</a>
</g>
</g>
<!-- Node10&#45;&gt;Node11 -->
<g id="edge10" class="edge">
<title>Node10&#45;&gt;Node11</title>
<path fill="none" stroke="#63b8ff" d="M745.46,-312.61C755.43,-316.45 766.46,-321.25 776,-326.72 793.58,-336.8 794.33,-344.78 812,-354.72 818.5,-358.38 825.67,-361.7 832.78,-364.63"/>
<polygon fill="#63b8ff" stroke="#63b8ff" points="831.41,-367.86 842,-368.22 833.95,-361.33 831.41,-367.86"/>
</g>
<!-- Node12 -->
<g id="node12" class="node">
<title>Node12</title>
<g id="a_node12"><a xlink:href="Utilities_8h.html#a549a702bb9b539c6b3a4f20cce65adcc" target="_top" xlink:title=" ">
<polygon fill="#fff0f0" stroke="red" points="925,-425.22 827,-425.22 827,-406.22 925,-406.22 925,-425.22"/>
<text text-anchor="middle" x="876" y="-413.22" font-family="Helvetica,sans-Serif" font-size="10.00">GetLEDBrightness</text>
</a>
</g>
</g>
<!-- Node10&#45;&gt;Node12 -->
<g id="edge11" class="edge">
<title>Node10&#45;&gt;Node12</title>
<path fill="none" stroke="#63b8ff" d="M746.75,-310.29C756.95,-313.96 767.78,-319.24 776,-326.72 801.88,-350.26 785.12,-374.33 812,-396.72 813.68,-398.12 815.46,-399.41 817.31,-400.61"/>
<polygon fill="#63b8ff" stroke="#63b8ff" points="815.31,-403.51 825.78,-405.14 818.61,-397.34 815.31,-403.51"/>
</g>
<!-- Node22 -->
<g id="node13" class="node">
<title>Node22</title>
<g id="a_node13"><a xlink:href="TransmitterCode_2src_2main_8cpp.html#a2d5ec5fd5ed62d5b7b071fabe2225405" target="_top" xlink:title=" ">
<polygon fill="#fff0f0" stroke="red" points="924,-312.22 828,-312.22 828,-293.22 924,-293.22 924,-312.22"/>
<text text-anchor="middle" x="876" y="-300.22" font-family="Helvetica,sans-Serif" font-size="10.00">LogDisConnection</text>
</a>
</g>
</g>
<!-- Node10&#45;&gt;Node22 -->
<g id="edge12" class="edge">
<title>Node10&#45;&gt;Node22</title>
<path fill="none" stroke="#63b8ff" d="M746.66,-302.72C766.35,-302.72 792.58,-302.72 816.2,-302.72"/>
<polygon fill="#63b8ff" stroke="#63b8ff" points="816.02,-306.22 826.02,-302.72 816.02,-299.22 816.02,-306.22"/>
</g>
<!-- Node38 -->
<g id="node14" class="node">
<title>Node38</title>
<g id="a_node14"><a xlink:href="Utilities_8h.html#aa490b4664b0a4498d53b30b82287d5df" target="_top" xlink:title=" ">
<polygon fill="#fff0f0" stroke="red" points="1062.5,-406.22 999.5,-406.22 999.5,-387.22 1062.5,-387.22 1062.5,-406.22"/>
<text text-anchor="middle" x="1031" y="-394.22" font-family="Helvetica,sans-Serif" font-size="10.00">PlaySound</text>
</a>
</g>
</g>
<!-- Node10&#45;&gt;Node38 -->
<g id="edge13" class="edge">
<title>Node10&#45;&gt;Node38</title>
<path fill="none" stroke="#63b8ff" d="M746.83,-309.12C790.38,-318.49 872.19,-337.28 940,-359.72 959.6,-366.21 981,-374.93 998.02,-382.28"/>
<polygon fill="#63b8ff" stroke="#63b8ff" points="996.55,-385.46 1007.11,-386.27 999.36,-379.05 996.55,-385.46"/>
</g>
<!-- Node10&#45;&gt;Node39 -->
<g id="edge16" class="edge">
<title>Node10&#45;&gt;Node39</title>
<path fill="none" stroke="#63b8ff" d="M746.63,-296.51C799.64,-285.47 906.08,-261.98 940,-244.72 968.55,-230.19 996.23,-205.31 1013.18,-188.45"/>
<polygon fill="#63b8ff" stroke="#63b8ff" points="1015.45,-191.13 1019.95,-181.54 1010.45,-186.23 1015.45,-191.13"/>
</g>
<!-- Node41 -->
<g id="node17" class="node">
<title>Node41</title>
<g id="a_node17"><a xlink:href="TransmitterCode_2src_2main_8cpp.html#a083c423be6ce1635de5961d0fc72ff06" target="_top" xlink:title=" ">
<polygon fill="white" stroke="#666666" points="925.5,-236.22 826.5,-236.22 826.5,-217.22 925.5,-217.22 925.5,-236.22"/>
<text text-anchor="middle" x="876" y="-224.22" font-family="Helvetica,sans-Serif" font-size="10.00">SetUKFrequencies</text>
</a>
</g>
</g>
<!-- Node10&#45;&gt;Node41 -->
<g id="edge19" class="edge">
<title>Node10&#45;&gt;Node41</title>
<path fill="none" stroke="#63b8ff" d="M732.65,-292.82C751.53,-281.81 783.4,-263.84 812,-250.72 819.61,-247.23 827.88,-243.82 835.85,-240.71"/>
<polygon fill="#63b8ff" stroke="#63b8ff" points="836.92,-244.05 845.03,-237.22 834.44,-237.5 836.92,-244.05"/>
</g>
<!-- Node38&#45;&gt;Node2 -->
<g id="edge14" class="edge">
<title>Node38&#45;&gt;Node2</title>
<path fill="none" stroke="#63b8ff" d="M1028.19,-386.89C1019.9,-342.94 983.97,-165.15 940,-133.72 814.02,-43.67 328.59,-294.75 206.49,-360.44"/>
<polygon fill="#63b8ff" stroke="#63b8ff" points="204.92,-357.31 197.78,-365.15 208.25,-363.47 204.92,-357.31"/>
</g>
<!-- Node39&#45;&gt;Node2 -->
<g id="edge18" class="edge">
<title>Node39&#45;&gt;Node2</title>
<path fill="none" stroke="#63b8ff" d="M1018.71,-160.76C1002.51,-147.08 971.17,-122.79 940,-110.72 846.09,-74.37 816.7,-76.72 716,-76.72 402,-76.72 402,-76.72 402,-76.72 262.89,-76.72 199.94,-286.91 183.22,-354.83"/>
<polygon fill="#63b8ff" stroke="#63b8ff" points="179.88,-353.76 180.98,-364.3 186.69,-355.37 179.88,-353.76"/>
</g>
<!-- Node39&#45;&gt;Node40 -->
<g id="edge17" class="edge">
<title>Node39&#45;&gt;Node40</title>
<path fill="none" stroke="#63b8ff" d="M1041.81,-160.8C1063.74,-138.62 1116.99,-84.75 1144.85,-56.57"/>
<polygon fill="#63b8ff" stroke="#63b8ff" points="1147.33,-59.05 1151.87,-49.47 1142.35,-54.12 1147.33,-59.05"/>
</g>
<!-- Node43 -->
<g id="node19" class="node">
<title>Node43</title>
<g id="a_node19"><a xlink:href="transceiver_8h.html#a52aa3e80bccf5e75346c93fdae63122d" target="_top" xlink:title=" ">
<polygon fill="#fff0f0" stroke="red" points="926.5,-1023.22 825.5,-1023.22 825.5,-1004.22 926.5,-1004.22 926.5,-1023.22"/>
<text text-anchor="middle" x="876" y="-1011.22" font-family="Helvetica,sans-Serif" font-size="10.00">HopToNextChannel</text>
</a>
</g>
</g>
<!-- Node42&#45;&gt;Node43 -->
<g id="edge21" class="edge">
<title>Node42&#45;&gt;Node43</title>
<path fill="none" stroke="#63b8ff" d="M754.26,-1079.73C761.59,-1077.4 769.12,-1074.72 776,-1071.72 802.78,-1060.06 831.37,-1042.72 850.9,-1030.04"/>
<polygon fill="#63b8ff" stroke="#63b8ff" points="852.81,-1032.98 859.23,-1024.55 848.95,-1027.13 852.81,-1032.98"/>
</g>
<!-- Node47 -->
<g id="node21" class="node">
<title>Node47</title>
<g id="a_node21"><a xlink:href="transceiver_8h.html#ad0e30213b21808d00110752679788a8c" target="_top" xlink:title=" ">
<polygon fill="#fff0f0" stroke="red" points="913,-1099.22 839,-1099.22 839,-1080.22 913,-1080.22 913,-1099.22"/>
<text text-anchor="middle" x="876" y="-1087.22" font-family="Helvetica,sans-Serif" font-size="10.00">TryOtherPipe</text>
</a>
</g>
</g>
<!-- Node42&#45;&gt;Node47 -->
<g id="edge23" class="edge">
<title>Node42&#45;&gt;Node47</title>
<path fill="none" stroke="#63b8ff" d="M759.45,-1089.72C780.49,-1089.72 805.81,-1089.72 827.38,-1089.72"/>
<polygon fill="#63b8ff" stroke="#63b8ff" points="827.08,-1093.22 837.08,-1089.72 827.08,-1086.22 827.08,-1093.22"/>
</g>
<!-- Node43&#45;&gt;Node46 -->
<g id="edge22" class="edge">
<title>Node43&#45;&gt;Node46</title>
<path fill="none" stroke="#63b8ff" d="M912.63,-1023.65C922.03,-1027.22 931.82,-1031.85 940,-1037.72 974.24,-1062.28 1003.04,-1102.93 1018.29,-1127.04"/>
<polygon fill="#63b8ff" stroke="#63b8ff" points="1015.3,-1128.86 1023.52,-1135.54 1021.26,-1125.19 1015.3,-1128.86"/>
</g>
<!-- Node49&#45;&gt;Node46 -->
<g id="edge25" class="edge">
<title>Node49&#45;&gt;Node46</title>
<path fill="none" stroke="#63b8ff" d="M577.21,-1164.53C662.61,-1161.17 905.39,-1151.62 995.65,-1148.07"/>
<polygon fill="#63b8ff" stroke="#63b8ff" points="995.73,-1151.57 1005.59,-1147.68 995.46,-1144.58 995.73,-1151.57"/>
</g>
<!-- Node51 -->
<g id="node24" class="node">
<title>Node51</title>
<g id="a_node24"><a xlink:href="transceiver_8h.html#adac102739147db6397bbcbb371aec4fd" target="_top" xlink:title=" ">
<polygon fill="white" stroke="#666666" points="759.5,-217.22 670.5,-217.22 670.5,-198.22 759.5,-198.22 759.5,-217.22"/>
<text text-anchor="middle" x="715" y="-205.22" font-family="Helvetica,sans-Serif" font-size="10.00">LoadParameters</text>
</a>
</g>
</g>
<!-- Node50&#45;&gt;Node51 -->
<g id="edge28" class="edge">
<title>Node50&#45;&gt;Node51</title>
<path fill="none" stroke="#63b8ff" d="M554.83,-405.97C580.79,-373.63 664.36,-269.55 698.87,-226.56"/>
<polygon fill="#63b8ff" stroke="#63b8ff" points="701.51,-228.86 705.04,-218.87 696.05,-224.48 701.51,-228.86"/>
</g>
<!-- Node51&#45;&gt;Node41 -->
<g id="edge31" class="edge">
<title>Node51&#45;&gt;Node41</title>
<path fill="none" stroke="#63b8ff" d="M759.87,-212.96C776.92,-215 796.73,-217.37 815.06,-219.56"/>
<polygon fill="#63b8ff" stroke="#63b8ff" points="814.39,-223 824.74,-220.71 815.22,-216.05 814.39,-223"/>
</g>
<!-- Node52 -->
<g id="node25" class="node">
<title>Node52</title>
<g id="a_node25"><a xlink:href="TransmitterCode_2src_2main_8cpp.html#a5aa4888b924a4f1d95e9cedc3004f2b6" target="_top" xlink:title=" ">
<polygon fill="white" stroke="#666666" points="917.5,-162.22 834.5,-162.22 834.5,-143.22 917.5,-143.22 917.5,-162.22"/>
<text text-anchor="middle" x="876" y="-150.22" font-family="Helvetica,sans-Serif" font-size="10.00">MakeTwobytes</text>
</a>
</g>
</g>
<!-- Node51&#45;&gt;Node52 -->
<g id="edge29" class="edge">
<title>Node51&#45;&gt;Node52</title>
<path fill="none" stroke="#63b8ff" d="M739.85,-197.84C759.14,-190.02 787.1,-179.06 812,-170.72 817,-169.05 822.25,-167.39 827.49,-165.8"/>
<polygon fill="#63b8ff" stroke="#63b8ff" points="828.14,-169.26 836.73,-163.07 826.15,-162.55 828.14,-169.26"/>
</g>
<!-- Node53 -->
<g id="node26" class="node">
<title>Node53</title>
<g id="a_node26"><a xlink:href="TransmitterCode_2src_2main_8cpp.html#a60a8ba3819508aedbe1d59640b0a79b0" target="_top" xlink:title=" ">
<polygon fill="white" stroke="#666666" points="928,-199.22 824,-199.22 824,-180.22 928,-180.22 928,-199.22"/>
<text text-anchor="middle" x="876" y="-187.22" font-family="Helvetica,sans-Serif" font-size="10.00">SetTestFrequencies</text>
</a>
</g>
</g>
<!-- Node51&#45;&gt;Node53 -->
<g id="edge30" class="edge">
<title>Node51&#45;&gt;Node53</title>
<path fill="none" stroke="#63b8ff" d="M759.87,-202.75C776.08,-200.92 794.78,-198.8 812.34,-196.81"/>
<polygon fill="#63b8ff" stroke="#63b8ff" points="812.63,-200.3 822.17,-195.7 811.84,-193.35 812.63,-200.3"/>
</g>
<!-- Node54&#45;&gt;Node46 -->
<g id="edge39" class="edge">
<title>Node54&#45;&gt;Node46</title>
<path fill="none" stroke="#63b8ff" d="M766.41,-1201.84C812.2,-1199.3 881.34,-1193.4 940,-1179.72 959.41,-1175.19 980.36,-1167.68 997.16,-1160.96"/>
<polygon fill="#63b8ff" stroke="#63b8ff" points="998.21,-1164.31 1006.14,-1157.28 995.56,-1157.84 998.21,-1164.31"/>
</g>
<!-- Node55 -->
<g id="node28" class="node">
<title>Node55</title>
<g id="a_node28"><a xlink:href="BuddyWireless_8h.html#af59c2527be7a67d6b09dd467f3123d55" target="_top" xlink:title=" ">
<polygon fill="white" stroke="#666666" points="911.5,-1251.22 840.5,-1251.22 840.5,-1232.22 911.5,-1232.22 911.5,-1251.22"/>
<text text-anchor="middle" x="876" y="-1239.22" font-family="Helvetica,sans-Serif" font-size="10.00">GetPupilAck</text>
</a>
</g>
</g>
<!-- Node54&#45;&gt;Node55 -->
<g id="edge33" class="edge">
<title>Node54&#45;&gt;Node55</title>
<path fill="none" stroke="#63b8ff" d="M757.78,-1213.7C779.74,-1218.95 806.7,-1225.39 829.22,-1230.78"/>
<polygon fill="#63b8ff" stroke="#63b8ff" points="828.2,-1234.13 838.74,-1233.05 829.83,-1227.32 828.2,-1234.13"/>
</g>
<!-- Node57 -->
<g id="node30" class="node">
<title>Node57</title>
<g id="a_node30"><a xlink:href="BuddyWireless_8h.html#a89fc05df708fec875356b62d21b2ce7b" target="_top" xlink:title=" ">
<polygon fill="white" stroke="#666666" points="914.5,-649.22 837.5,-649.22 837.5,-630.22 914.5,-630.22 914.5,-649.22"/>
<text text-anchor="middle" x="876" y="-637.22" font-family="Helvetica,sans-Serif" font-size="10.00">PupilDetected</text>
</a>
</g>
</g>
<!-- Node54&#45;&gt;Node57 -->
<g id="edge36" class="edge">
<title>Node54&#45;&gt;Node57</title>
<path fill="none" stroke="#63b8ff" d="M724.65,-1193.75C738.34,-1177.32 764.6,-1142.96 776,-1108.72 807.77,-1013.33 748.31,-735.51 812,-657.72 815.92,-652.93 821.01,-649.37 826.61,-646.72"/>
<polygon fill="#63b8ff" stroke="#63b8ff" points="827.47,-650.13 835.66,-643.41 825.06,-643.56 827.47,-650.13"/>
</g>
<!-- Node55&#45;&gt;Node46 -->
<g id="edge35" class="edge">
<title>Node55&#45;&gt;Node46</title>
<path fill="none" stroke="#63b8ff" d="M908.61,-1231.81C918.92,-1228.02 930.23,-1223.26 940,-1217.72 966.83,-1202.5 994.16,-1179.69 1011.55,-1164.05"/>
<polygon fill="#63b8ff" stroke="#63b8ff" points="1013.55,-1166.96 1018.57,-1157.63 1008.83,-1161.8 1013.55,-1166.96"/>
</g>
<!-- Node56 -->
<g id="node29" class="node">
<title>Node56</title>
<g id="a_node29"><a xlink:href="transceiver_8h.html#a6feccc8c0583de3235616d42076f1371" target="_top" xlink:title=" ">
<polygon fill="white" stroke="#666666" points="1066.5,-1251.22 995.5,-1251.22 995.5,-1232.22 1066.5,-1232.22 1066.5,-1251.22"/>
<text text-anchor="middle" x="1031" y="-1239.22" font-family="Helvetica,sans-Serif" font-size="10.00">Decompress</text>
</a>
</g>
</g>
<!-- Node55&#45;&gt;Node56 -->
<g id="edge34" class="edge">
<title>Node55&#45;&gt;Node56</title>
<path fill="none" stroke="#63b8ff" d="M911.72,-1241.72C933.06,-1241.72 960.67,-1241.72 983.84,-1241.72"/>
<polygon fill="#63b8ff" stroke="#63b8ff" points="983.64,-1245.22 993.64,-1241.72 983.64,-1238.22 983.64,-1245.22"/>
</g>
<!-- Node57&#45;&gt;Node2 -->
<g id="edge37" class="edge">
<title>Node57&#45;&gt;Node2</title>
<path fill="none" stroke="#63b8ff" d="M838.71,-629.77C829.88,-627.08 820.53,-623.99 812,-620.72 591.86,-536.23 558.51,-460.24 332,-394.72 298.95,-385.16 260.53,-380.41 230.39,-378.05"/>
<polygon fill="#63b8ff" stroke="#63b8ff" points="231.01,-374.58 220.79,-377.36 230.51,-381.57 231.01,-374.58"/>
</g>
<!-- Node57&#45;&gt;Node39 -->
<g id="edge38" class="edge">
<title>Node57&#45;&gt;Node39</title>
<path fill="none" stroke="#63b8ff" d="M914.95,-635.55C924.36,-632.74 933.58,-628.15 940,-620.72 975.69,-579.41 965.09,-431.21 976,-377.72 990.07,-308.73 1012.91,-228.41 1023.82,-191.36"/>
<polygon fill="#63b8ff" stroke="#63b8ff" points="1027.11,-192.57 1026.6,-181.99 1020.4,-190.58 1027.11,-192.57"/>
</g>
<!-- Node59&#45;&gt;Node9 -->
<g id="edge69" class="edge">
<title>Node59&#45;&gt;Node9</title>
<path fill="none" stroke="#63b8ff" d="M566.13,-986.53C587.39,-997.32 622.83,-1014.93 654,-1028.72 661.46,-1032.02 669.53,-1035.38 677.25,-1038.5"/>
<polygon fill="#63b8ff" stroke="#63b8ff" points="675.85,-1041.71 686.43,-1042.17 678.44,-1035.21 675.85,-1041.71"/>
</g>
<!-- Node59&#45;&gt;Node46 -->
<g id="edge68" class="edge">
<title>Node59&#45;&gt;Node46</title>
<path fill="none" stroke="#63b8ff" d="M593.23,-986.65C690.29,-1007.69 908.92,-1056.09 940,-1071.72 968.78,-1086.19 996.4,-1111.47 1013.28,-1128.64"/>
<polygon fill="#63b8ff" stroke="#63b8ff" points="1010.58,-1130.88 1020.03,-1135.68 1015.64,-1126.04 1010.58,-1130.88"/>
</g>
<!-- Node60 -->
<g id="node33" class="node">
<title>Node60</title>
<g id="a_node33"><a xlink:href="transceiver_8h.html#a953f1d5046e183549ed95b08f6d675e3" target="_top" xlink:title=" ">
<polygon fill="white" stroke="#666666" points="764,-686.22 666,-686.22 666,-667.22 764,-667.22 764,-686.22"/>
<text text-anchor="middle" x="715" y="-674.22" font-family="Helvetica,sans-Serif" font-size="10.00">CheckGapsLength</text>
</a>
</g>
</g>
<!-- Node59&#45;&gt;Node60 -->
<g id="edge42" class="edge">
<title>Node59&#45;&gt;Node60</title>
<path fill="none" stroke="#63b8ff" d="M594.48,-972.87C603.37,-970.07 611.81,-965.63 618,-958.72 695.26,-872.49 582.61,-791.86 654,-700.72 656.46,-697.58 659.4,-694.84 662.63,-692.47"/>
<polygon fill="#63b8ff" stroke="#63b8ff" points="664.26,-695.57 671.07,-687.45 660.68,-689.55 664.26,-695.57"/>
</g>
<!-- Node62 -->
<g id="node35" class="node">
<title>Node62</title>
<g id="a_node35"><a xlink:href="TransmitterCode_2src_2main_8cpp.html#a62e53eb9359c32b666e3386d62c57037" target="_top" xlink:title=" ">
<polygon fill="white" stroke="#666666" points="751,-499.22 679,-499.22 679,-480.22 751,-480.22 751,-499.22"/>
<text text-anchor="middle" x="715" y="-487.22" font-family="Helvetica,sans-Serif" font-size="10.00">GreenLedOn</text>
</a>
</g>
</g>
<!-- Node59&#45;&gt;Node62 -->
<g id="edge44" class="edge">
<title>Node59&#45;&gt;Node62</title>
<path fill="none" stroke="#63b8ff" d="M594.22,-973.08C603.24,-970.28 611.79,-965.79 618,-958.72 662.46,-908.11 638.57,-723.29 654,-657.72 666.89,-602.92 691.73,-541.24 705.04,-510.08"/>
<polygon fill="#63b8ff" stroke="#63b8ff" points="708.17,-511.66 708.93,-501.1 701.75,-508.88 708.17,-511.66"/>
</g>
<!-- Node73 -->
<g id="node39" class="node">
<title>Node73</title>
<g id="a_node39"><a xlink:href="Utilities_8h.html#a793b7bcd77531c95fe72ed4356d421c8" target="_top" xlink:title=" ">
<polygon fill="white" stroke="#666666" points="1086,-612.22 976,-612.22 976,-593.22 1086,-593.22 1086,-612.22"/>
<text text-anchor="middle" x="1031" y="-600.22" font-family="Helvetica,sans-Serif" font-size="10.00">StartInactvityTimeout</text>
</a>
</g>
</g>
<!-- Node59&#45;&gt;Node73 -->
<g id="edge70" class="edge">
<title>Node59&#45;&gt;Node73</title>
<path fill="none" stroke="#63b8ff" d="M594.48,-970.89C602.96,-968.19 611.24,-964.31 618,-958.72 647.11,-934.65 631.81,-912.3 654,-881.72 710.51,-803.84 728.7,-781.88 812,-733.72 863.48,-703.95 889.18,-725.6 940,-694.72 971.67,-675.47 1000.08,-642.55 1016.16,-621.75"/>
<polygon fill="#63b8ff" stroke="#63b8ff" points="1018.9,-623.93 1022.12,-613.83 1013.31,-619.72 1018.9,-623.93"/>
</g>
<!-- Node75 -->
<g id="node41" class="node">
<title>Node75</title>
<g id="a_node41"><a xlink:href="transceiver_8h.html#a694f4f5a0147f4dc29b0bc1a8951547d" target="_top" xlink:title=" ">
<polygon fill="#fff0f0" stroke="red" points="762,-910.22 668,-910.22 668,-891.22 762,-891.22 762,-910.22"/>
<text text-anchor="middle" x="715" y="-898.22" font-family="Helvetica,sans-Serif" font-size="10.00">ParseAckPayload</text>
</a>
</g>
</g>
<!-- Node59&#45;&gt;Node75 -->
<g id="edge55" class="edge">
<title>Node59&#45;&gt;Node75</title>
<path fill="none" stroke="#63b8ff" d="M594.23,-966.83C602.3,-964.55 610.49,-961.86 618,-958.72 644.65,-947.58 672.65,-929.88 691.49,-916.95"/>
<polygon fill="#63b8ff" stroke="#63b8ff" points="693.26,-919.98 699.45,-911.38 689.25,-914.25 693.26,-919.98"/>
</g>
<!-- Node223 -->
<g id="node49" class="node">
<title>Node223</title>
<g id="a_node49"><a xlink:href="transceiver_8h.html#a04937e814dba3f5e07cb34bb13130ff3" target="_top" xlink:title=" ">
<polygon fill="white" stroke="#666666" points="773.5,-986.22 656.5,-986.22 656.5,-967.22 773.5,-967.22 773.5,-986.22"/>
<text text-anchor="middle" x="715" y="-974.22" font-family="Helvetica,sans-Serif" font-size="10.00">ParseShortAckPayload</text>
</a>
</g>
</g>
<!-- Node59&#45;&gt;Node223 -->
<g id="edge66" class="edge">
<title>Node59&#45;&gt;Node223</title>
<path fill="none" stroke="#63b8ff" d="M594.41,-976.72C610.15,-976.72 628.01,-976.72 645.04,-976.72"/>
<polygon fill="#63b8ff" stroke="#63b8ff" points="644.56,-980.22 654.56,-976.72 644.56,-973.22 644.56,-980.22"/>
</g>
<!-- Node61 -->
<g id="node34" class="node">
<title>Node61</title>
<g id="a_node34"><a xlink:href="TransmitterCode_2src_2main_8cpp.html#a1fadc7cdd854f8b3628b622da5417d8b" target="_top" xlink:title=" ">
<polygon fill="#fff0f0" stroke="red" points="911,-686.22 841,-686.22 841,-667.22 911,-667.22 911,-686.22"/>
<text text-anchor="middle" x="876" y="-674.22" font-family="Helvetica,sans-Serif" font-size="10.00">LogThisGap</text>
</a>
</g>
</g>
<!-- Node60&#45;&gt;Node61 -->
<g id="edge43" class="edge">
<title>Node60&#45;&gt;Node61</title>
<path fill="none" stroke="#63b8ff" d="M764.14,-676.72C784.86,-676.72 808.98,-676.72 829.41,-676.72"/>
<polygon fill="#63b8ff" stroke="#63b8ff" points="829.14,-680.22 839.14,-676.72 829.14,-673.22 829.14,-680.22"/>
</g>
<!-- Node62&#45;&gt;Node12 -->
<g id="edge46" class="edge">
<title>Node62&#45;&gt;Node12</title>
<path fill="none" stroke="#63b8ff" d="M730.36,-479.79C748.63,-467.54 781.47,-446.74 812,-433.72 815.78,-432.11 819.75,-430.59 823.77,-429.18"/>
<polygon fill="#63b8ff" stroke="#63b8ff" points="824.63,-432.58 833.05,-426.14 822.45,-425.93 824.63,-432.58"/>
</g>
<!-- Node62&#45;&gt;Node38 -->
<g id="edge48" class="edge">
<title>Node62&#45;&gt;Node38</title>
<path fill="none" stroke="#63b8ff" d="M741.35,-499.66C784.5,-514.91 873.96,-539.19 940,-507.72 979.58,-488.85 1007.41,-443.13 1020.85,-416.62"/>
<polygon fill="#63b8ff" stroke="#63b8ff" points="1023.84,-418.46 1025.05,-407.94 1017.54,-415.41 1023.84,-418.46"/>
</g>
<!-- Node63 -->
<g id="node36" class="node">
<title>Node63</title>
<g id="a_node36"><a xlink:href="Utilities_8h.html#a82b1900a80d1622896601c57d6edaeda" target="_top" xlink:title=" ">
<polygon fill="white" stroke="#666666" points="925,-499.22 827,-499.22 827,-480.22 925,-480.22 925,-499.22"/>
<text text-anchor="middle" x="876" y="-487.22" font-family="Helvetica,sans-Serif" font-size="10.00">ClearSuccessRate</text>
</a>
</g>
</g>
<!-- Node62&#45;&gt;Node63 -->
<g id="edge45" class="edge">
<title>Node62&#45;&gt;Node63</title>
<path fill="none" stroke="#63b8ff" d="M751.29,-489.72C770.05,-489.72 793.64,-489.72 815.18,-489.72"/>
<polygon fill="#63b8ff" stroke="#63b8ff" points="815.03,-493.22 825.03,-489.72 815.03,-486.22 815.03,-493.22"/>
</g>
<!-- Node64 -->
<g id="node37" class="node">
<title>Node64</title>
<g id="a_node37"><a xlink:href="TransmitterCode_2src_2main_8cpp.html#aaa3e86084c43b049d52d7d62c58a00b9" target="_top" xlink:title=" ">
<polygon fill="#fff0f0" stroke="red" points="917,-612.22 835,-612.22 835,-593.22 917,-593.22 917,-612.22"/>
<text text-anchor="middle" x="876" y="-600.22" font-family="Helvetica,sans-Serif" font-size="10.00">LogConnection</text>
</a>
</g>
</g>
<!-- Node62&#45;&gt;Node64 -->
<g id="edge47" class="edge">
<title>Node62&#45;&gt;Node64</title>
<path fill="none" stroke="#63b8ff" d="M751.42,-499.07C760.17,-502.61 769.03,-507.38 776,-513.72 801.88,-537.26 785.12,-561.33 812,-583.72 815.65,-586.76 819.79,-589.32 824.14,-591.46"/>
<polygon fill="#63b8ff" stroke="#63b8ff" points="822.62,-594.62 833.2,-595.19 825.28,-588.15 822.62,-594.62"/>
</g>
<!-- Node66 -->
<g id="node38" class="node">
<title>Node66</title>
<g id="a_node38"><a xlink:href="TransmitterCode_2src_2main_8cpp.html#a5d3a46c21927cf7a3031a1e68e0b7b48" target="_top" xlink:title="SHOW COMMS.">
<polygon fill="#fff0f0" stroke="red" points="913.5,-462.22 838.5,-462.22 838.5,-443.22 913.5,-443.22 913.5,-462.22"/>
<text text-anchor="middle" x="876" y="-450.22" font-family="Helvetica,sans-Serif" font-size="10.00">ShowComms</text>
</a>
</g>
</g>
<!-- Node62&#45;&gt;Node66 -->
<g id="edge49" class="edge">
<title>Node62&#45;&gt;Node66</title>
<path fill="none" stroke="#63b8ff" d="M751.29,-481.51C773.56,-476.32 802.62,-469.56 826.98,-463.89"/>
<polygon fill="#63b8ff" stroke="#63b8ff" points="827.73,-467.31 836.68,-461.64 826.15,-460.49 827.73,-467.31"/>
</g>
<!-- Node74 -->
<g id="node40" class="node">
<title>Node74</title>
<g id="a_node40"><a xlink:href="TransmitterCode_2src_2main_8cpp.html#a6da9a1fd0b003151f79eabc702ba80ff" target="_top" xlink:title=" ">
<polygon fill="white" stroke="#666666" points="919.5,-575.22 832.5,-575.22 832.5,-556.22 919.5,-556.22 919.5,-575.22"/>
<text text-anchor="middle" x="876" y="-563.22" font-family="Helvetica,sans-Serif" font-size="10.00">ZeroDataScreen</text>
</a>
</g>
</g>
<!-- Node62&#45;&gt;Node74 -->
<g id="edge54" class="edge">
<title>Node62&#45;&gt;Node74</title>
<path fill="none" stroke="#63b8ff" d="M745.46,-499.61C755.43,-503.45 766.46,-508.25 776,-513.72 793.58,-523.8 794.33,-531.78 812,-541.72 818.5,-545.38 825.67,-548.7 832.78,-551.63"/>
<polygon fill="#63b8ff" stroke="#63b8ff" points="831.41,-554.86 842,-555.22 833.95,-548.33 831.41,-554.86"/>
</g>
<!-- Node66&#45;&gt;Node2 -->
<g id="edge51" class="edge">
<title>Node66&#45;&gt;Node2</title>
<path fill="none" stroke="#63b8ff" d="M838.18,-443.57C788.47,-431.47 697.01,-410.13 618,-396.72 491.75,-375.29 459.82,-369.51 332,-361.72 297.84,-359.64 289.08,-358.63 255,-361.72 247.05,-362.44 238.69,-363.58 230.53,-364.9"/>
<polygon fill="#63b8ff" stroke="#63b8ff" points="229.95,-361.44 220.7,-366.6 231.15,-368.34 229.95,-361.44"/>
</g>
<!-- Node66&#45;&gt;Node38 -->
<g id="edge50" class="edge">
<title>Node66&#45;&gt;Node38</title>
<path fill="none" stroke="#63b8ff" d="M912.19,-442.77C921.3,-440.01 931.07,-436.89 940,-433.72 959.2,-426.9 980.28,-418.29 997.21,-411.1"/>
<polygon fill="#63b8ff" stroke="#63b8ff" points="998.47,-414.36 1006.28,-407.2 995.71,-407.93 998.47,-414.36"/>
</g>
<!-- Node66&#45;&gt;Node39 -->
<g id="edge52" class="edge">
<title>Node66&#45;&gt;Node39</title>
<path fill="none" stroke="#63b8ff" d="M913.76,-447.83C923.28,-445.02 932.84,-440.62 940,-433.72 976.1,-398.92 1012.89,-247.35 1025.47,-191.49"/>
<polygon fill="#63b8ff" stroke="#63b8ff" points="1028.82,-192.55 1027.57,-182.03 1021.98,-191.03 1028.82,-192.55"/>
</g>
<!-- Node66&#45;&gt;Node73 -->
<g id="edge53" class="edge">
<title>Node66&#45;&gt;Node73</title>
<path fill="none" stroke="#63b8ff" d="M913.94,-458.7C923.03,-461.36 932.35,-465.19 940,-470.72 980.52,-499.97 1008.58,-553.43 1021.65,-582.54"/>
<polygon fill="#63b8ff" stroke="#63b8ff" points="1018.42,-583.87 1025.6,-591.66 1024.84,-581.1 1018.42,-583.87"/>
</g>
<!-- Node75&#45;&gt;Node43 -->
<g id="edge65" class="edge">
<title>Node75&#45;&gt;Node43</title>
<path fill="none" stroke="#63b8ff" d="M726.05,-910.44C748.65,-932.26 802.3,-983.69 812,-989.72 818,-993.45 824.68,-996.75 831.38,-999.63"/>
<polygon fill="#63b8ff" stroke="#63b8ff" points="829.83,-1002.78 840.42,-1003.22 832.42,-996.27 829.83,-1002.78"/>
</g>
<!-- Node76 -->
<g id="node42" class="node">
<title>Node76</title>
<g id="a_node42"><a xlink:href="transceiver_8h.html#a75fa77e7bbb1cfe8fe6e1a216fbdc17e" target="_top" xlink:title=" ">
<polygon fill="white" stroke="#666666" points="908.5,-910.22 843.5,-910.22 843.5,-891.22 908.5,-891.22 908.5,-910.22"/>
<text text-anchor="middle" x="876" y="-898.22" font-family="Helvetica,sans-Serif" font-size="10.00">GetAltitude</text>
</a>
</g>
</g>
<!-- Node75&#45;&gt;Node76 -->
<g id="edge56" class="edge">
<title>Node75&#45;&gt;Node76</title>
<path fill="none" stroke="#63b8ff" d="M762.42,-900.72C784.38,-900.72 810.45,-900.72 831.96,-900.72"/>
<polygon fill="#63b8ff" stroke="#63b8ff" points="831.88,-904.22 841.88,-900.72 831.88,-897.22 831.88,-904.22"/>
</g>
<!-- Node77 -->
<g id="node43" class="node">
<title>Node77</title>
<g id="a_node43"><a xlink:href="transceiver_8h.html#ab5736b017daadeb2c1d7dc73489d31a6" target="_top" xlink:title=" ">
<polygon fill="white" stroke="#666666" points="1084.5,-910.22 977.5,-910.22 977.5,-891.22 1084.5,-891.22 1084.5,-910.22"/>
<text text-anchor="middle" x="1031" y="-898.22" font-family="Helvetica,sans-Serif" font-size="10.00">GetFromAckPayload</text>
</a>
</g>
</g>
<!-- Node75&#45;&gt;Node77 -->
<g id="edge59" class="edge">
<title>Node75&#45;&gt;Node77</title>
<path fill="none" stroke="#63b8ff" d="M728.07,-910.65C745.38,-924.18 778.85,-947.76 812,-956.72 866.92,-971.57 885.3,-972.35 940,-956.72 966.58,-949.13 992.95,-931.17 1010.2,-917.62"/>
<polygon fill="#63b8ff" stroke="#63b8ff" points="1012.07,-920.62 1017.62,-911.6 1007.65,-915.18 1012.07,-920.62"/>
</g>
<!-- Node78 -->
<g id="node44" class="node">
<title>Node78</title>
<g id="a_node44"><a xlink:href="transceiver_8h.html#a160b9119423c34869b16a4ebdc421d35" target="_top" xlink:title=" ">
<polygon fill="white" stroke="#666666" points="939.5,-836.22 812.5,-836.22 812.5,-817.22 939.5,-817.22 939.5,-836.22"/>
<text text-anchor="middle" x="876" y="-824.22" font-family="Helvetica,sans-Serif" font-size="10.00">GetDateFromAckPayload</text>
</a>
</g>
</g>
<!-- Node75&#45;&gt;Node78 -->
<g id="edge58" class="edge">
<title>Node75&#45;&gt;Node78</title>
<path fill="none" stroke="#63b8ff" d="M730.36,-890.79C748.63,-878.54 781.47,-857.74 812,-844.72 815.78,-843.11 819.75,-841.59 823.77,-840.18"/>
<polygon fill="#63b8ff" stroke="#63b8ff" points="824.63,-843.58 833.05,-837.14 822.45,-836.93 824.63,-843.58"/>
</g>
<!-- Node79 -->
<g id="node45" class="node">
<title>Node79</title>
<g id="a_node45"><a xlink:href="transceiver_8h.html#a494cb4acb30856d1f53f08df1b80c41b" target="_top" xlink:title=" ">
<polygon fill="#fff0f0" stroke="red" points="935.5,-799.22 816.5,-799.22 816.5,-780.22 935.5,-780.22 935.5,-799.22"/>
<text text-anchor="middle" x="876" y="-787.22" font-family="Helvetica,sans-Serif" font-size="10.00">GetModelsMacAddress</text>
</a>
</g>
</g>
<!-- Node75&#45;&gt;Node79 -->
<g id="edge60" class="edge">
<title>Node75&#45;&gt;Node79</title>
<path fill="none" stroke="#63b8ff" d="M723.31,-890.96C737.99,-872.04 773.02,-830.24 812,-807.72 814.33,-806.37 816.76,-805.13 819.26,-803.96"/>
<polygon fill="#63b8ff" stroke="#63b8ff" points="820.47,-807.25 828.42,-800.25 817.84,-800.76 820.47,-807.25"/>
</g>
<!-- Node110 -->
<g id="node46" class="node">
<title>Node110</title>
<g id="a_node46"><a xlink:href="TransmitterCode_2src_2main_8cpp.html#a4f813935d8fe58355228cbbf25e12f96" target="_top" xlink:title=" ">
<polygon fill="#fff0f0" stroke="red" points="932.5,-762.22 819.5,-762.22 819.5,-743.22 932.5,-743.22 932.5,-762.22"/>
<text text-anchor="middle" x="876" y="-750.22" font-family="Helvetica,sans-Serif" font-size="10.00">GetRXVersionNumber</text>
</a>
</g>
</g>
<!-- Node75&#45;&gt;Node110 -->
<g id="edge61" class="edge">
<title>Node75&#45;&gt;Node110</title>
<path fill="none" stroke="#63b8ff" d="M720.45,-890.84C731.93,-866.52 764.97,-803.34 812,-770.72 813.61,-769.6 815.28,-768.56 817.01,-767.58"/>
<polygon fill="#63b8ff" stroke="#63b8ff" points="818.47,-770.76 825.98,-763.28 815.45,-764.44 818.47,-770.76"/>
</g>
<!-- Node220 -->
<g id="node47" class="node">
<title>Node220</title>
<g id="a_node47"><a xlink:href="transceiver_8h.html#a19f6fc09d690832e74fd3c679207f07f" target="_top" xlink:title=" ">
<polygon fill="white" stroke="#666666" points="919.5,-873.22 832.5,-873.22 832.5,-854.22 919.5,-854.22 919.5,-873.22"/>
<text text-anchor="middle" x="876" y="-861.22" font-family="Helvetica,sans-Serif" font-size="10.00">GetTemperature</text>
</a>
</g>
</g>
<!-- Node75&#45;&gt;Node220 -->
<g id="edge62" class="edge">
<title>Node75&#45;&gt;Node220</title>
<path fill="none" stroke="#63b8ff" d="M758.61,-890.8C777.86,-886.32 800.81,-880.98 821.23,-876.23"/>
<polygon fill="#63b8ff" stroke="#63b8ff" points="821.85,-879.68 830.8,-874 820.27,-872.86 821.85,-879.68"/>
</g>
<!-- Node221 -->
<g id="node48" class="node">
<title>Node221</title>
<g id="a_node48"><a xlink:href="transceiver_8h.html#a86523345ecdd52f3d93dccd6fcf4370a" target="_top" xlink:title=" ">
<polygon fill="white" stroke="#666666" points="940,-947.22 812,-947.22 812,-928.22 940,-928.22 940,-947.22"/>
<text text-anchor="middle" x="876" y="-935.22" font-family="Helvetica,sans-Serif" font-size="10.00">GetTimeFromAckPayload</text>
</a>
</g>
</g>
<!-- Node75&#45;&gt;Node221 -->
<g id="edge64" class="edge">
<title>Node75&#45;&gt;Node221</title>
<path fill="none" stroke="#63b8ff" d="M758.61,-910.63C777.86,-915.11 800.81,-920.46 821.23,-925.21"/>
<polygon fill="#63b8ff" stroke="#63b8ff" points="820.27,-928.58 830.8,-927.43 821.85,-921.76 820.27,-928.58"/>
</g>
<!-- Node76&#45;&gt;Node77 -->
<g id="edge57" class="edge">
<title>Node76&#45;&gt;Node77</title>
<path fill="none" stroke="#63b8ff" d="M908.7,-900.72C925.24,-900.72 946.09,-900.72 965.81,-900.72"/>
<polygon fill="#63b8ff" stroke="#63b8ff" points="965.74,-904.22 975.74,-900.72 965.74,-897.22 965.74,-904.22"/>
</g>
<!-- Node220&#45;&gt;Node77 -->
<g id="edge63" class="edge">
<title>Node220&#45;&gt;Node77</title>
<path fill="none" stroke="#63b8ff" d="M918,-873.63C936.35,-878.07 958.2,-883.36 977.71,-888.07"/>
<polygon fill="#63b8ff" stroke="#63b8ff" points="976.87,-891.47 987.41,-890.42 978.52,-884.67 976.87,-891.47"/>
</g>
<!-- Node223&#45;&gt;Node43 -->
<g id="edge67" class="edge">
<title>Node223&#45;&gt;Node43</title>
<path fill="none" stroke="#63b8ff" d="M758.61,-986.63C777.86,-991.11 800.81,-996.46 821.23,-1001.21"/>
<polygon fill="#63b8ff" stroke="#63b8ff" points="820.27,-1004.58 830.8,-1003.43 821.85,-997.76 820.27,-1004.58"/>
</g>
</g>
</svg>
