<?xml version="1.0" encoding="UTF-8" standalone="no"?>
<!DOCTYPE svg PUBLIC "-//W3C//DTD SVG 1.1//EN"
 "http://www.w3.org/Graphics/SVG/1.1/DTD/svg11.dtd">
<!-- Generated by graphviz version 9.0.0 (20230911.1827)
 -->
<!-- Title: CalibrateSticks Pages: 1 -->
<svg width="509pt" height="323pt"
 viewBox="0.00 0.00 509.25 323.25" xmlns="http://www.w3.org/2000/svg" xmlns:xlink="http://www.w3.org/1999/xlink">
<g id="graph0" class="graph" transform="scale(1 1) rotate(0) translate(4 319.25)">
<title>CalibrateSticks</title>
<!-- Node1 -->
<g id="Node000001" class="node">
<title>Node1</title>
<g id="a_Node000001"><a xlink:title=" ">
<polygon fill="#999999" stroke="#666666" points="82,-185.25 0,-185.25 0,-166 82,-166 82,-185.25"/>
<text text-anchor="middle" x="41" y="-171.75" font-family="Helvetica,sans-Serif" font-size="10.00">CalibrateSticks</text>
</a>
</g>
</g>
<!-- Node2 -->
<g id="Node000002" class="node">
<title>Node2</title>
<g id="a_Node000002"><a xlink:href="TransmitterCode_2src_2main_8cpp.html#a26ae4f6ca14f760bd5eb6e7588fe7c81" target="_top" xlink:title="GET NEW SERVO POSITIONS.">
<polygon fill="white" stroke="#666666" points="235.25,-185.25 118,-185.25 118,-166 235.25,-166 235.25,-185.25"/>
<text text-anchor="middle" x="176.62" y="-171.75" font-family="Helvetica,sans-Serif" font-size="10.00">GetNewChannelValues</text>
</a>
</g>
</g>
<!-- Node1&#45;&gt;Node2 -->
<g id="edge1_Node000001_Node000002" class="edge">
<title>Node1&#45;&gt;Node2</title>
<g id="a_edge1_Node000001_Node000002"><a xlink:title=" ">
<path fill="none" stroke="#63b8ff" d="M82.45,-175.62C89.97,-175.62 98.02,-175.62 106.12,-175.62"/>
<polygon fill="#63b8ff" stroke="#63b8ff" points="106.05,-179.13 116.05,-175.63 106.05,-172.13 106.05,-179.13"/>
</a>
</g>
</g>
<!-- Node3 -->
<g id="Node000003" class="node">
<title>Node3</title>
<g id="a_Node000003"><a xlink:href="TransmitterCode_2src_2main_8cpp.html#ac5728db610c441820a6f47295967cbab" target="_top" xlink:title=" ">
<polygon fill="white" stroke="#666666" points="365.25,-315.25 286.25,-315.25 286.25,-296 365.25,-296 365.25,-315.25"/>
<text text-anchor="middle" x="325.75" y="-301.75" font-family="Helvetica,sans-Serif" font-size="10.00">AnalogueReed</text>
</a>
</g>
</g>
<!-- Node2&#45;&gt;Node3 -->
<g id="edge2_Node000002_Node000003" class="edge">
<title>Node2&#45;&gt;Node3</title>
<g id="a_edge2_Node000002_Node000003"><a xlink:title=" ">
<path fill="none" stroke="#63b8ff" d="M183.29,-185.58C196.13,-207.27 229.61,-259.17 271.25,-287.62 272.81,-288.69 274.43,-289.7 276.11,-290.65"/>
<polygon fill="#63b8ff" stroke="#63b8ff" points="274.22,-293.62 284.74,-294.84 277.28,-287.32 274.22,-293.62"/>
</a>
</g>
</g>
<!-- Node4 -->
<g id="Node000004" class="node">
<title>Node4</title>
<g id="a_Node000004"><a xlink:href="TransmitterCode_2src_2main_8cpp.html#ac77bd940a0faad7b997c9ddf40a7acc6" target="_top" xlink:title=" ">
<polygon fill="white" stroke="#666666" points="352.5,-278.25 299,-278.25 299,-259 352.5,-259 352.5,-278.25"/>
<text text-anchor="middle" x="325.75" y="-264.75" font-family="Helvetica,sans-Serif" font-size="10.00">DoMixes</text>
</a>
</g>
</g>
<!-- Node2&#45;&gt;Node4 -->
<g id="edge3_Node000002_Node000004" class="edge">
<title>Node2&#45;&gt;Node4</title>
<g id="a_edge3_Node000002_Node000004"><a xlink:title=" ">
<path fill="none" stroke="#63b8ff" d="M187.7,-185.73C203.97,-201.55 237.62,-232.25 271.25,-250.62 276.44,-253.46 282.15,-255.96 287.86,-258.12"/>
<polygon fill="#63b8ff" stroke="#63b8ff" points="286.65,-261.41 297.24,-261.37 288.94,-254.79 286.65,-261.41"/>
</a>
</g>
</g>
<!-- Node6 -->
<g id="Node000006" class="node">
<title>Node6</title>
<g id="a_Node000006"><a xlink:href="Utilities_8h.html#acbd7adcd2b0e2095a89b4a98042b526e" target="_top" xlink:title=" ">
<polygon fill="white" stroke="#666666" points="371.62,-241.25 279.88,-241.25 279.88,-222 371.62,-222 371.62,-241.25"/>
<text text-anchor="middle" x="325.75" y="-227.75" font-family="Helvetica,sans-Serif" font-size="10.00">DoReverseSense</text>
</a>
</g>
</g>
<!-- Node2&#45;&gt;Node6 -->
<g id="edge5_Node000002_Node000006" class="edge">
<title>Node2&#45;&gt;Node6</title>
<g id="a_edge5_Node000002_Node000006"><a xlink:title=" ">
<path fill="none" stroke="#63b8ff" d="M201.33,-185.71C220.16,-193.61 247.24,-204.72 271.25,-213.62 275.11,-215.05 279.14,-216.5 283.18,-217.92"/>
<polygon fill="#63b8ff" stroke="#63b8ff" points="281.77,-221.13 292.37,-221.08 284.05,-214.51 281.77,-221.13"/>
</a>
</g>
</g>
<!-- Node7 -->
<g id="Node000007" class="node">
<title>Node7</title>
<g id="a_Node000007"><a xlink:href="TransmitterCode_2src_2main_8cpp.html#a4be5821d4f80bdcdbee25adc69051d3e" target="_top" xlink:title=" ">
<polygon fill="white" stroke="#666666" points="369.75,-204.25 281.75,-204.25 281.75,-185 369.75,-185 369.75,-204.25"/>
<text text-anchor="middle" x="325.75" y="-190.75" font-family="Helvetica,sans-Serif" font-size="10.00">DoRouteOutputs</text>
</a>
</g>
</g>
<!-- Node2&#45;&gt;Node7 -->
<g id="edge6_Node000002_Node000007" class="edge">
<title>Node2&#45;&gt;Node7</title>
<g id="a_edge6_Node000002_Node000007"><a xlink:title=" ">
<path fill="none" stroke="#63b8ff" d="M235.35,-183.08C246.82,-184.56 258.83,-186.11 270.2,-187.58"/>
<polygon fill="#63b8ff" stroke="#63b8ff" points="269.43,-191.01 279.8,-188.82 270.33,-184.07 269.43,-191.01"/>
</a>
</g>
</g>
<!-- Node8 -->
<g id="Node000008" class="node">
<title>Node8</title>
<g id="a_Node000008"><a xlink:href="TransmitterCode_2src_2main_8cpp.html#a7a6560a77b8c4dd3925760790beafbd5" target="_top" xlink:title=" ">
<polygon fill="white" stroke="#666666" points="366,-167.25 285.5,-167.25 285.5,-148 366,-148 366,-167.25"/>
<text text-anchor="middle" x="325.75" y="-153.75" font-family="Helvetica,sans-Serif" font-size="10.00">DoSlowServos</text>
</a>
</g>
</g>
<!-- Node2&#45;&gt;Node8 -->
<g id="edge7_Node000002_Node000008" class="edge">
<title>Node2&#45;&gt;Node8</title>
<g id="a_edge7_Node000002_Node000008"><a xlink:title=" ">
<path fill="none" stroke="#63b8ff" d="M235.35,-168.56C248.17,-166.99 261.66,-165.34 274.17,-163.81"/>
<polygon fill="#63b8ff" stroke="#63b8ff" points="274.33,-167.32 283.83,-162.63 273.48,-160.37 274.33,-167.32"/>
</a>
</g>
</g>
<!-- Node9 -->
<g id="Node000009" class="node">
<title>Node9</title>
<g id="a_Node000009"><a xlink:href="TransmitterCode_2src_2main_8cpp.html#acd70b997cf150e55d943df5d6f1cff51" target="_top" xlink:title=" ">
<polygon fill="white" stroke="#666666" points="380.25,-93.25 271.25,-93.25 271.25,-74 380.25,-74 380.25,-93.25"/>
<text text-anchor="middle" x="325.75" y="-79.75" font-family="Helvetica,sans-Serif" font-size="10.00">DoTrimsAndSubtrims</text>
</a>
</g>
</g>
<!-- Node2&#45;&gt;Node9 -->
<g id="edge8_Node000002_Node000009" class="edge">
<title>Node2&#45;&gt;Node9</title>
<g id="a_edge8_Node000002_Node000009"><a xlink:title=" ">
<path fill="none" stroke="#63b8ff" d="M187.72,-165.67C204.03,-150.07 237.73,-119.79 271.25,-101.62 273.61,-100.34 276.08,-99.13 278.61,-97.99"/>
<polygon fill="#63b8ff" stroke="#63b8ff" points="279.86,-101.26 287.8,-94.24 277.22,-94.78 279.86,-101.26"/>
</a>
</g>
</g>
<!-- Node11 -->
<g id="Node000011" class="node">
<title>Node11</title>
<g id="a_Node000011"><a xlink:href="TransmitterCode_2src_2main_8cpp.html#af9c038b48102eca9032f10fefd9d5736" target="_top" xlink:title=" ">
<polygon fill="white" stroke="#666666" points="364.5,-56.25 287,-56.25 287,-37 364.5,-37 364.5,-56.25"/>
<text text-anchor="middle" x="325.75" y="-42.75" font-family="Helvetica,sans-Serif" font-size="10.00">GetCurveDots</text>
</a>
</g>
</g>
<!-- Node2&#45;&gt;Node11 -->
<g id="edge10_Node000002_Node000011" class="edge">
<title>Node2&#45;&gt;Node11</title>
<g id="a_edge10_Node000002_Node000011"><a xlink:title=" ">
<path fill="none" stroke="#63b8ff" d="M183.31,-165.76C196.2,-144.26 229.77,-92.84 271.25,-64.62 273.01,-63.43 274.86,-62.3 276.77,-61.25"/>
<polygon fill="#63b8ff" stroke="#63b8ff" points="277.78,-64.64 285.31,-57.18 274.78,-58.32 277.78,-64.64"/>
</a>
</g>
</g>
<!-- Node14 -->
<g id="Node000014" class="node">
<title>Node14</title>
<g id="a_Node000014"><a xlink:href="TransmitterCode_2src_2main_8cpp.html#a248db02e07497e7a4149db17b4e5c2f3" target="_top" xlink:title=" ">
<polygon fill="white" stroke="#666666" points="363.75,-130.25 287.75,-130.25 287.75,-111 363.75,-111 363.75,-130.25"/>
<text text-anchor="middle" x="325.75" y="-116.75" font-family="Helvetica,sans-Serif" font-size="10.00">GetStickInput</text>
</a>
</g>
</g>
<!-- Node2&#45;&gt;Node14 -->
<g id="edge13_Node000002_Node000014" class="edge">
<title>Node2&#45;&gt;Node14</title>
<g id="a_edge13_Node000002_Node000014"><a xlink:title=" ">
<path fill="none" stroke="#63b8ff" d="M202.13,-165.54C220.94,-157.89 247.61,-147.27 271.25,-138.62 275.11,-137.21 279.15,-135.78 283.19,-134.37"/>
<polygon fill="#63b8ff" stroke="#63b8ff" points="284.06,-137.77 292.39,-131.22 281.79,-131.15 284.06,-137.77"/>
</a>
</g>
</g>
<!-- Node5 -->
<g id="Node000005" class="node">
<title>Node5</title>
<g id="a_Node000005"><a xlink:href="Utilities_8h.html#a0d8d8a0d67cb9b04481f1692abe75368" target="_top" xlink:title=" ">
<polygon fill="white" stroke="#666666" points="497.88,-204.25 419.62,-204.25 419.62,-185 497.88,-185 497.88,-204.25"/>
<text text-anchor="middle" x="458.75" y="-190.75" font-family="Helvetica,sans-Serif" font-size="10.00">IntoHigherRes</text>
</a>
</g>
</g>
<!-- Node4&#45;&gt;Node5 -->
<g id="edge4_Node000004_Node000005" class="edge">
<title>Node4&#45;&gt;Node5</title>
<g id="a_edge4_Node000004_Node000005"><a xlink:title=" ">
<path fill="none" stroke="#63b8ff" d="M352.97,-261.54C361.87,-258.69 371.71,-255.02 380.25,-250.62 401.28,-239.81 422.9,-223.69 437.94,-211.52"/>
<polygon fill="#63b8ff" stroke="#63b8ff" points="439.75,-214.57 445.23,-205.5 435.29,-209.17 439.75,-214.57"/>
</a>
</g>
</g>
<!-- Node10 -->
<g id="Node000010" class="node">
<title>Node10</title>
<g id="a_Node000010"><a xlink:href="Trims_8h.html#aacd8b022714bb89847239dd878ad9509" target="_top" xlink:title=" ">
<polygon fill="white" stroke="#666666" points="501.25,-93.25 416.25,-93.25 416.25,-74 501.25,-74 501.25,-93.25"/>
<text text-anchor="middle" x="458.75" y="-79.75" font-family="Helvetica,sans-Serif" font-size="10.00">GetTrimAmount</text>
</a>
</g>
</g>
<!-- Node9&#45;&gt;Node10 -->
<g id="edge9_Node000009_Node000010" class="edge">
<title>Node9&#45;&gt;Node10</title>
<g id="a_edge9_Node000009_Node000010"><a xlink:title=" ">
<path fill="none" stroke="#63b8ff" d="M380.41,-83.62C388.39,-83.62 396.6,-83.62 404.57,-83.62"/>
<polygon fill="#63b8ff" stroke="#63b8ff" points="404.49,-87.13 414.49,-83.63 404.49,-80.13 404.49,-87.13"/>
</a>
</g>
</g>
<!-- Node12 -->
<g id="Node000012" class="node">
<title>Node12</title>
<g id="a_Node000012"><a xlink:href="TransmitterCode_2src_2main_8cpp.html#afeabb54d48ef7e55693014e057d2943d" target="_top" xlink:title=" ">
<polygon fill="white" stroke="#666666" points="497.12,-56.25 420.38,-56.25 420.38,-37 497.12,-37 497.12,-56.25"/>
<text text-anchor="middle" x="458.75" y="-42.75" font-family="Helvetica,sans-Serif" font-size="10.00">CalculateRate</text>
</a>
</g>
</g>
<!-- Node11&#45;&gt;Node12 -->
<g id="edge11_Node000011_Node000012" class="edge">
<title>Node11&#45;&gt;Node12</title>
<g id="a_edge11_Node000011_Node000012"><a xlink:title=" ">
<path fill="none" stroke="#63b8ff" d="M364.99,-46.62C378.7,-46.62 394.34,-46.62 408.83,-46.62"/>
<polygon fill="#63b8ff" stroke="#63b8ff" points="408.62,-50.13 418.62,-46.63 408.62,-43.13 408.62,-50.13"/>
</a>
</g>
</g>
<!-- Node13 -->
<g id="Node000013" class="node">
<title>Node13</title>
<g id="a_Node000013"><a xlink:href="TransmitterCode_2src_2main_8cpp.html#a8f53f86499d740b350f7b6d791c90497" target="_top" xlink:title=" ">
<polygon fill="white" stroke="#666666" points="493.75,-19.25 423.75,-19.25 423.75,0 493.75,0 493.75,-19.25"/>
<text text-anchor="middle" x="458.75" y="-5.75" font-family="Helvetica,sans-Serif" font-size="10.00">UseFullRate</text>
</a>
</g>
</g>
<!-- Node11&#45;&gt;Node13 -->
<g id="edge12_Node000011_Node000013" class="edge">
<title>Node11&#45;&gt;Node13</title>
<g id="a_edge12_Node000011_Node000013"><a xlink:title=" ">
<path fill="none" stroke="#63b8ff" d="M362.55,-36.51C377.93,-32.17 396.1,-27.04 412.41,-22.43"/>
<polygon fill="#63b8ff" stroke="#63b8ff" points="413.22,-25.84 421.9,-19.75 411.32,-19.1 413.22,-25.84"/>
</a>
</g>
</g>
<!-- Node14&#45;&gt;Node5 -->
<g id="edge14_Node000014_Node000005" class="edge">
<title>Node14&#45;&gt;Node5</title>
<g id="a_edge14_Node000014_Node000005"><a xlink:title=" ">
<path fill="none" stroke="#63b8ff" d="M361.63,-130.66C367.96,-132.96 374.41,-135.62 380.25,-138.62 401.28,-149.44 422.9,-165.56 437.94,-177.73"/>
<polygon fill="#63b8ff" stroke="#63b8ff" points="435.29,-180.08 445.23,-183.75 439.75,-174.68 435.29,-180.08"/>
</a>
</g>
</g>
</g>
</svg>
