<?xml version="1.0" encoding="UTF-8" standalone="no"?>
<!DOCTYPE svg PUBLIC "-//W3C//DTD SVG 1.1//EN"
 "http://www.w3.org/Graphics/SVG/1.1/DTD/svg11.dtd">
<!-- Generated by graphviz version 7.0.4 (20221203.1631)
 -->
<!-- Title: ThrottleDownTrim Pages: 1 -->
<svg width="1255pt" height="949pt"
 viewBox="0.00 0.00 1255.00 949.00" xmlns="http://www.w3.org/2000/svg" xmlns:xlink="http://www.w3.org/1999/xlink">
<g id="graph0" class="graph" transform="scale(1 1) rotate(0) translate(4 945)">
<title>ThrottleDownTrim</title>
<!-- Node1 -->
<g id="node1" class="node">
<title>Node1</title>
<g id="a_node1"><a xlink:title=" ">
<polygon fill="#999999" stroke="#666666" points="94,-564.5 0,-564.5 0,-545.5 94,-545.5 94,-564.5"/>
<text text-anchor="middle" x="47" y="-552.5" font-family="Helvetica,sans-Serif" font-size="10.00">ThrottleDownTrim</text>
</a>
</g>
</g>
<!-- Node2 -->
<g id="node2" class="node">
<title>Node2</title>
<g id="a_node2"><a xlink:href="TransmitterCode_2src_2main_8cpp.html#a17123a117a96a9416dec48d9345f8a5b" target="_top" xlink:title=" ">
<polygon fill="white" stroke="#666666" points="195,-564.5 130,-564.5 130,-545.5 195,-545.5 195,-564.5"/>
<text text-anchor="middle" x="162.5" y="-552.5" font-family="Helvetica,sans-Serif" font-size="10.00">MoveaTrim</text>
</a>
</g>
</g>
<!-- Node1&#45;&gt;Node2 -->
<g id="edge1" class="edge">
<title>Node1&#45;&gt;Node2</title>
<path fill="none" stroke="#63b8ff" d="M94.49,-555C102.38,-555 110.54,-555 118.34,-555"/>
<polygon fill="#63b8ff" stroke="#63b8ff" points="118.29,-558.5 128.29,-555 118.29,-551.5 118.29,-558.5"/>
</g>
<!-- Node3 -->
<g id="node3" class="node">
<title>Node3</title>
<g id="a_node3"><a xlink:href="TransmitterCode_2src_2main_8cpp.html#ae4be4bb0e33569d140264079d28227fd" target="_top" xlink:title=" ">
<polygon fill="white" stroke="#666666" points="284,-601.5 231,-601.5 231,-582.5 284,-582.5 284,-601.5"/>
<text text-anchor="middle" x="257.5" y="-589.5" font-family="Helvetica,sans-Serif" font-size="10.00">DecTrim</text>
</a>
</g>
</g>
<!-- Node2&#45;&gt;Node3 -->
<g id="edge2" class="edge">
<title>Node2&#45;&gt;Node3</title>
<path fill="none" stroke="#63b8ff" d="M188.42,-564.92C198.43,-568.9 210.15,-573.56 221.02,-577.88"/>
<polygon fill="#63b8ff" stroke="#63b8ff" points="219.52,-581.05 230.1,-581.5 222.1,-574.55 219.52,-581.05"/>
</g>
<!-- Node126 -->
<g id="node49" class="node">
<title>Node126</title>
<g id="a_node49"><a xlink:href="TransmitterCode_2src_2main_8cpp.html#a6e96b79e1edc864e742216a05c7c3622" target="_top" xlink:title=" ">
<polygon fill="white" stroke="#666666" points="282.5,-564.5 232.5,-564.5 232.5,-545.5 282.5,-545.5 282.5,-564.5"/>
<text text-anchor="middle" x="257.5" y="-552.5" font-family="Helvetica,sans-Serif" font-size="10.00">IncTrim</text>
</a>
</g>
</g>
<!-- Node2&#45;&gt;Node126 -->
<g id="edge69" class="edge">
<title>Node2&#45;&gt;Node126</title>
<path fill="none" stroke="#63b8ff" d="M195.25,-555C203.47,-555 212.38,-555 220.8,-555"/>
<polygon fill="#63b8ff" stroke="#63b8ff" points="220.72,-558.5 230.72,-555 220.72,-551.5 220.72,-558.5"/>
</g>
<!-- Node92 -->
<g id="node50" class="node">
<title>Node92</title>
<g id="a_node50"><a xlink:href="TransmitterCode_2src_2main_8cpp.html#a49da3478d89a22069e29c7f00cb46a5f" target="_top" xlink:title=" ">
<polygon fill="white" stroke="#666666" points="417,-415.5 320,-415.5 320,-396.5 417,-396.5 417,-415.5"/>
<text text-anchor="middle" x="368.5" y="-403.5" font-family="Helvetica,sans-Serif" font-size="10.00">RestoreBrightness</text>
</a>
</g>
</g>
<!-- Node2&#45;&gt;Node92 -->
<g id="edge72" class="edge">
<title>Node2&#45;&gt;Node92</title>
<path fill="none" stroke="#63b8ff" d="M176.89,-545.22C211.11,-520.23 302.09,-453.77 344.78,-422.59"/>
<polygon fill="#63b8ff" stroke="#63b8ff" points="346.83,-425.43 352.84,-416.71 342.7,-419.78 346.83,-425.43"/>
</g>
<!-- Node4 -->
<g id="node4" class="node">
<title>Node4</title>
<g id="a_node4"><a xlink:href="TransmitterCode_2src_2main_8cpp.html#aa490b4664b0a4498d53b30b82287d5df" target="_top" xlink:title=" ">
<polygon fill="white" stroke="#666666" points="400,-606.5 337,-606.5 337,-587.5 400,-587.5 400,-606.5"/>
<text text-anchor="middle" x="368.5" y="-594.5" font-family="Helvetica,sans-Serif" font-size="10.00">PlaySound</text>
</a>
</g>
</g>
<!-- Node3&#45;&gt;Node4 -->
<g id="edge3" class="edge">
<title>Node3&#45;&gt;Node4</title>
<path fill="none" stroke="#63b8ff" d="M284.33,-593.18C296.63,-593.75 311.64,-594.44 325.52,-595.07"/>
<polygon fill="#63b8ff" stroke="#63b8ff" points="325.16,-598.56 335.31,-595.52 325.48,-591.57 325.16,-598.56"/>
</g>
<!-- Node79 -->
<g id="node48" class="node">
<title>Node79</title>
<g id="a_node48"><a xlink:href="TransmitterCode_2src_2main_8cpp.html#ac78966debc2cdc13d8ca958ce3b20c78" target="_top" xlink:title=" ">
<polygon fill="white" stroke="#666666" points="413,-564.5 324,-564.5 324,-545.5 413,-545.5 413,-564.5"/>
<text text-anchor="middle" x="368.5" y="-552.5" font-family="Helvetica,sans-Serif" font-size="10.00">UpdateTrimView</text>
</a>
</g>
</g>
<!-- Node3&#45;&gt;Node79 -->
<g id="edge67" class="edge">
<title>Node3&#45;&gt;Node79</title>
<path fill="none" stroke="#63b8ff" d="M284.33,-583.23C297.27,-578.84 313.23,-573.42 327.7,-568.51"/>
<polygon fill="#63b8ff" stroke="#63b8ff" points="328.62,-571.89 336.96,-565.37 326.37,-565.27 328.62,-571.89"/>
</g>
<!-- Node5 -->
<g id="node5" class="node">
<title>Node5</title>
<g id="a_node5"><a xlink:href="TransmitterCode_2src_2main_8cpp.html#aecac2f0c289f02ef3c92b85be82eacac" target="_top" xlink:title=" ">
<polygon fill="white" stroke="#666666" points="536,-415.5 453,-415.5 453,-396.5 536,-396.5 536,-415.5"/>
<text text-anchor="middle" x="494.5" y="-403.5" font-family="Helvetica,sans-Serif" font-size="10.00">SendCommand</text>
</a>
</g>
</g>
<!-- Node4&#45;&gt;Node5 -->
<g id="edge4" class="edge">
<title>Node4&#45;&gt;Node5</title>
<path fill="none" stroke="#63b8ff" d="M398.23,-587.02C404.99,-583.67 411.75,-579.38 417,-574 458.88,-531.12 480.4,-461.22 488.95,-426.67"/>
<polygon fill="#63b8ff" stroke="#63b8ff" points="492.32,-427.67 491.19,-417.13 485.5,-426.07 492.32,-427.67"/>
</g>
<!-- Node28 -->
<g id="node23" class="node">
<title>Node28</title>
<g id="a_node23"><a xlink:href="TransmitterCode_2src_2main_8cpp.html#a590a9174319918d7e3d7baca323fcf26" target="_top" xlink:title=" ">
<polygon fill="white" stroke="#666666" points="1212,-296.5 1183,-296.5 1183,-277.5 1212,-277.5 1212,-296.5"/>
<text text-anchor="middle" x="1197.5" y="-284.5" font-family="Helvetica,sans-Serif" font-size="10.00">Str</text>
</a>
</g>
</g>
<!-- Node4&#45;&gt;Node28 -->
<g id="edge66" class="edge">
<title>Node4&#45;&gt;Node28</title>
<path fill="none" stroke="#63b8ff" d="M400.2,-600.58C433.62,-604.5 488.63,-611.02 536,-617 599.84,-625.05 1061.91,-717.4 1112,-677 1170.5,-629.82 1190.54,-382.46 1195.29,-308.14"/>
<polygon fill="#63b8ff" stroke="#63b8ff" points="1198.78,-308.41 1195.89,-298.21 1191.79,-307.98 1198.78,-308.41"/>
</g>
<!-- Node6 -->
<g id="node6" class="node">
<title>Node6</title>
<g id="a_node6"><a xlink:href="TransmitterCode_2src_2main_8cpp.html#a43937dd3d9c795271fd9c3eb3c6b6410" target="_top" xlink:title=" ">
<polygon fill="white" stroke="#666666" points="1239,-122.5 1156,-122.5 1156,-103.5 1239,-103.5 1239,-122.5"/>
<text text-anchor="middle" x="1197.5" y="-110.5" font-family="Helvetica,sans-Serif" font-size="10.00">GetReturnCode</text>
</a>
</g>
</g>
<!-- Node5&#45;&gt;Node6 -->
<g id="edge5" class="edge">
<title>Node5&#45;&gt;Node6</title>
<path fill="none" stroke="#63b8ff" d="M495.12,-396.11C494.19,-356.69 496.06,-209.09 572,-130 626.32,-73.43 661.57,-76 740,-76 740,-76 740,-76 896,-76 983.9,-76 1085.18,-91.79 1144.86,-102.74"/>
<polygon fill="#63b8ff" stroke="#63b8ff" points="1143.91,-106.12 1154.38,-104.51 1145.19,-99.24 1143.91,-106.12"/>
</g>
<!-- Node7 -->
<g id="node7" class="node">
<title>Node7</title>
<g id="a_node7"><a xlink:href="TransmitterCode_2src_2main_8cpp.html#a5f109790a6fe0b972a502f3cac4ed1e7" target="_top" xlink:title=" ">
<polygon fill="white" stroke="#666666" points="633,-491.5 585,-491.5 585,-472.5 633,-472.5 633,-491.5"/>
<text text-anchor="middle" x="609" y="-479.5" font-family="Helvetica,sans-Serif" font-size="10.00">InStrng</text>
</a>
</g>
</g>
<!-- Node5&#45;&gt;Node7 -->
<g id="edge6" class="edge">
<title>Node5&#45;&gt;Node7</title>
<path fill="none" stroke="#63b8ff" d="M509.86,-415.81C525.21,-426.3 550.29,-443.38 572,-458 575.82,-460.57 579.87,-463.28 583.82,-465.92"/>
<polygon fill="#63b8ff" stroke="#63b8ff" points="581.75,-468.75 592.01,-471.38 585.63,-462.92 581.75,-468.75"/>
</g>
<!-- Node8 -->
<g id="node8" class="node">
<title>Node8</title>
<g id="a_node8"><a xlink:href="RadioFunctions_8cpp.html#a760609a682300dfe6bfaac737fd4d5eb" target="_top" xlink:title=" ">
<polygon fill="white" stroke="#666666" points="646,-415.5 572,-415.5 572,-396.5 646,-396.5 646,-415.5"/>
<text text-anchor="middle" x="609" y="-403.5" font-family="Helvetica,sans-Serif" font-size="10.00">Procrastinate</text>
</a>
</g>
</g>
<!-- Node5&#45;&gt;Node8 -->
<g id="edge7" class="edge">
<title>Node5&#45;&gt;Node8</title>
<path fill="none" stroke="#63b8ff" d="M536.43,-406C544.2,-406 552.39,-406 560.34,-406"/>
<polygon fill="#63b8ff" stroke="#63b8ff" points="560.24,-409.5 570.24,-406 560.24,-402.5 560.24,-409.5"/>
</g>
<!-- Node9 -->
<g id="node9" class="node">
<title>Node9</title>
<g id="a_node9"><a xlink:href="RadioFunctions_8cpp.html#a1ddd5e8d5bd649dd98ce3710fbff651b" target="_top" xlink:title=" ">
<polygon fill="white" stroke="#666666" points="771.5,-415.5 710.5,-415.5 710.5,-396.5 771.5,-396.5 771.5,-415.5"/>
<text text-anchor="middle" x="741" y="-403.5" font-family="Helvetica,sans-Serif" font-size="10.00">Compress</text>
</a>
</g>
</g>
<!-- Node8&#45;&gt;Node9 -->
<g id="edge8" class="edge">
<title>Node8&#45;&gt;Node9</title>
<path fill="none" stroke="#63b8ff" d="M646.21,-406C662.57,-406 681.98,-406 698.88,-406"/>
<polygon fill="#63b8ff" stroke="#63b8ff" points="698.61,-409.5 708.61,-406 698.61,-402.5 698.61,-409.5"/>
</g>
<!-- Node10 -->
<g id="node10" class="node">
<title>Node10</title>
<g id="a_node10"><a xlink:href="TransmitterCode_2src_2main_8cpp.html#a26ae4f6ca14f760bd5eb6e7588fe7c81" target="_top" xlink:title="GET NEW SERVO POSITIONS.">
<polygon fill="white" stroke="#666666" points="800,-782.5 682,-782.5 682,-763.5 800,-763.5 800,-782.5"/>
<text text-anchor="middle" x="741" y="-770.5" font-family="Helvetica,sans-Serif" font-size="10.00">GetNewChannelValues</text>
</a>
</g>
</g>
<!-- Node8&#45;&gt;Node10 -->
<g id="edge9" class="edge">
<title>Node8&#45;&gt;Node10</title>
<path fill="none" stroke="#63b8ff" d="M617.22,-415.63C625.18,-426.61 637.92,-445.33 646,-463 693.43,-566.73 724.71,-700.67 735.66,-751.85"/>
<polygon fill="#63b8ff" stroke="#63b8ff" points="732.21,-752.46 737.69,-761.53 739.06,-751.02 732.21,-752.46"/>
</g>
<!-- Node19 -->
<g id="node19" class="node">
<title>Node19</title>
<g id="a_node19"><a xlink:href="TransmitterCode_2src_2main_8cpp.html#ada95a00a341e4a80176eda743a94ab2e" target="_top" xlink:title=" ">
<polygon fill="white" stroke="#666666" points="776,-378.5 706,-378.5 706,-359.5 776,-359.5 776,-378.5"/>
<text text-anchor="middle" x="741" y="-366.5" font-family="Helvetica,sans-Serif" font-size="10.00">KickTheDog</text>
</a>
</g>
</g>
<!-- Node8&#45;&gt;Node19 -->
<g id="edge19" class="edge">
<title>Node8&#45;&gt;Node19</title>
<path fill="none" stroke="#63b8ff" d="M644.84,-396.08C660.11,-391.74 678.25,-386.58 694.57,-381.93"/>
<polygon fill="#63b8ff" stroke="#63b8ff" points="695.4,-385.33 704.06,-379.23 693.49,-378.6 695.4,-385.33"/>
</g>
<!-- Node20 -->
<g id="node20" class="node">
<title>Node20</title>
<g id="a_node20"><a xlink:href="RadioFunctions_8cpp.html#a049bfb836e7aa4a3a48a1a4bd225fafc" target="_top" xlink:title=" ">
<polygon fill="white" stroke="#666666" points="770.5,-510.5 711.5,-510.5 711.5,-491.5 770.5,-491.5 770.5,-510.5"/>
<text text-anchor="middle" x="741" y="-498.5" font-family="Helvetica,sans-Serif" font-size="10.00">SendData</text>
</a>
</g>
</g>
<!-- Node8&#45;&gt;Node20 -->
<g id="edge20" class="edge">
<title>Node8&#45;&gt;Node20</title>
<path fill="none" stroke="#63b8ff" d="M623.42,-415.81C645.61,-432.02 690.17,-464.59 717.32,-484.42"/>
<polygon fill="#63b8ff" stroke="#63b8ff" points="715.09,-487.13 725.23,-490.21 719.22,-481.48 715.09,-487.13"/>
</g>
<!-- Node113 -->
<g id="node39" class="node">
<title>Node113</title>
<g id="a_node39"><a xlink:href="TransmitterCode_2src_2main_8cpp.html#ad770ee51a34d8c5026e65136884c16bf" target="_top" xlink:title=" ">
<polygon fill="white" stroke="#666666" points="783,-293.5 699,-293.5 699,-274.5 783,-274.5 783,-293.5"/>
<text text-anchor="middle" x="741" y="-281.5" font-family="Helvetica,sans-Serif" font-size="10.00">ShowServoPos</text>
</a>
</g>
</g>
<!-- Node8&#45;&gt;Node113 -->
<g id="edge47" class="edge">
<title>Node8&#45;&gt;Node113</title>
<path fill="none" stroke="#63b8ff" d="M620.64,-396.02C642.74,-375.27 693.88,-327.28 721.5,-301.36"/>
<polygon fill="#63b8ff" stroke="#63b8ff" points="723.58,-304.21 728.47,-294.82 718.79,-299.11 723.58,-304.21"/>
</g>
<!-- Node11 -->
<g id="node11" class="node">
<title>Node11</title>
<g id="a_node11"><a xlink:href="TransmitterCode_2src_2main_8cpp.html#ac77bd940a0faad7b997c9ddf40a7acc6" target="_top" xlink:title=" ">
<polygon fill="white" stroke="#666666" points="922,-837.5 868,-837.5 868,-818.5 922,-818.5 922,-837.5"/>
<text text-anchor="middle" x="895" y="-825.5" font-family="Helvetica,sans-Serif" font-size="10.00">DoMixes</text>
</a>
</g>
</g>
<!-- Node10&#45;&gt;Node11 -->
<g id="edge10" class="edge">
<title>Node10&#45;&gt;Node11</title>
<path fill="none" stroke="#63b8ff" d="M765.77,-782.92C784.67,-790.67 811.84,-801.51 836,-810 842.72,-812.36 849.94,-814.73 856.92,-816.94"/>
<polygon fill="#63b8ff" stroke="#63b8ff" points="855.56,-820.18 866.15,-819.81 857.63,-813.5 855.56,-820.18"/>
</g>
<!-- Node13 -->
<g id="node13" class="node">
<title>Node13</title>
<g id="a_node13"><a xlink:href="TransmitterCode_2src_2main_8cpp.html#acbd7adcd2b0e2095a89b4a98042b526e" target="_top" xlink:title=" ">
<polygon fill="white" stroke="#666666" points="941,-763.5 849,-763.5 849,-744.5 941,-744.5 941,-763.5"/>
<text text-anchor="middle" x="895" y="-751.5" font-family="Helvetica,sans-Serif" font-size="10.00">DoReverseSense</text>
</a>
</g>
</g>
<!-- Node10&#45;&gt;Node13 -->
<g id="edge12" class="edge">
<title>Node10&#45;&gt;Node13</title>
<path fill="none" stroke="#63b8ff" d="M800.33,-765.71C812.51,-764.19 825.34,-762.58 837.45,-761.07"/>
<polygon fill="#63b8ff" stroke="#63b8ff" points="837.82,-764.55 847.3,-759.84 836.95,-757.6 837.82,-764.55"/>
</g>
<!-- Node14 -->
<g id="node14" class="node">
<title>Node14</title>
<g id="a_node14"><a xlink:href="TransmitterCode_2src_2main_8cpp.html#af9c038b48102eca9032f10fefd9d5736" target="_top" xlink:title=" ">
<polygon fill="white" stroke="#666666" points="934,-874.5 856,-874.5 856,-855.5 934,-855.5 934,-874.5"/>
<text text-anchor="middle" x="895" y="-862.5" font-family="Helvetica,sans-Serif" font-size="10.00">GetCurveDots</text>
</a>
</g>
</g>
<!-- Node10&#45;&gt;Node14 -->
<g id="edge13" class="edge">
<title>Node10&#45;&gt;Node14</title>
<path fill="none" stroke="#63b8ff" d="M751.83,-782.79C768.04,-798.44 801.99,-829.12 836,-847 838.89,-848.52 841.92,-849.93 845.03,-851.24"/>
<polygon fill="#63b8ff" stroke="#63b8ff" points="843.75,-854.5 854.34,-854.78 846.24,-847.96 843.75,-854.5"/>
</g>
<!-- Node17 -->
<g id="node17" class="node">
<title>Node17</title>
<g id="a_node17"><a xlink:href="TransmitterCode_2src_2main_8cpp.html#a248db02e07497e7a4149db17b4e5c2f3" target="_top" xlink:title=" ">
<polygon fill="white" stroke="#666666" points="933.5,-800.5 856.5,-800.5 856.5,-781.5 933.5,-781.5 933.5,-800.5"/>
<text text-anchor="middle" x="895" y="-788.5" font-family="Helvetica,sans-Serif" font-size="10.00">GetStickInput</text>
</a>
</g>
</g>
<!-- Node10&#45;&gt;Node17 -->
<g id="edge16" class="edge">
<title>Node10&#45;&gt;Node17</title>
<path fill="none" stroke="#63b8ff" d="M800.33,-779.91C815.13,-781.66 830.87,-783.52 845.15,-785.21"/>
<polygon fill="#63b8ff" stroke="#63b8ff" points="844.39,-788.65 854.73,-786.35 845.21,-781.7 844.39,-788.65"/>
</g>
<!-- Node18 -->
<g id="node18" class="node">
<title>Node18</title>
<g id="a_node18"><a xlink:href="TransmitterCode_2src_2main_8cpp.html#a07fabdf50e27daf4c4bd38d316a40e68" target="_top" xlink:title=" ">
<polygon fill="white" stroke="#666666" points="938,-726.5 852,-726.5 852,-707.5 938,-707.5 938,-726.5"/>
<text text-anchor="middle" x="895" y="-714.5" font-family="Helvetica,sans-Serif" font-size="10.00">GetTrimAmount</text>
</a>
</g>
</g>
<!-- Node10&#45;&gt;Node18 -->
<g id="edge18" class="edge">
<title>Node10&#45;&gt;Node18</title>
<path fill="none" stroke="#63b8ff" d="M766.2,-763.03C785.1,-755.34 812.07,-744.62 836,-736 841.09,-734.17 846.46,-732.31 851.79,-730.51"/>
<polygon fill="#63b8ff" stroke="#63b8ff" points="852.76,-733.87 861.14,-727.4 850.55,-727.23 852.76,-733.87"/>
</g>
<!-- Node12 -->
<g id="node12" class="node">
<title>Node12</title>
<g id="a_node12"><a xlink:href="TransmitterCode_2src_2main_8cpp.html#a0d8d8a0d67cb9b04481f1692abe75368" target="_top" xlink:title=" ">
<polygon fill="white" stroke="#666666" points="1090.5,-800.5 1011.5,-800.5 1011.5,-781.5 1090.5,-781.5 1090.5,-800.5"/>
<text text-anchor="middle" x="1051" y="-788.5" font-family="Helvetica,sans-Serif" font-size="10.00">IntoHigherRes</text>
</a>
</g>
</g>
<!-- Node11&#45;&gt;Node12 -->
<g id="edge11" class="edge">
<title>Node11&#45;&gt;Node12</title>
<path fill="none" stroke="#63b8ff" d="M922.47,-821.64C943.75,-816.53 974.24,-809.2 1000.07,-803"/>
<polygon fill="#63b8ff" stroke="#63b8ff" points="1000.81,-806.42 1009.71,-800.68 999.17,-799.61 1000.81,-806.42"/>
</g>
<!-- Node15 -->
<g id="node15" class="node">
<title>Node15</title>
<g id="a_node15"><a xlink:href="TransmitterCode_2src_2main_8cpp.html#afeabb54d48ef7e55693014e057d2943d" target="_top" xlink:title=" ">
<polygon fill="white" stroke="#666666" points="1089.5,-837.5 1012.5,-837.5 1012.5,-818.5 1089.5,-818.5 1089.5,-837.5"/>
<text text-anchor="middle" x="1051" y="-825.5" font-family="Helvetica,sans-Serif" font-size="10.00">CalculateRate</text>
</a>
</g>
</g>
<!-- Node14&#45;&gt;Node15 -->
<g id="edge14" class="edge">
<title>Node14&#45;&gt;Node15</title>
<path fill="none" stroke="#63b8ff" d="M934.46,-855.76C954.64,-850.91 979.58,-844.92 1001.12,-839.74"/>
<polygon fill="#63b8ff" stroke="#63b8ff" points="1001.65,-843.22 1010.56,-837.48 1000.01,-836.41 1001.65,-843.22"/>
</g>
<!-- Node16 -->
<g id="node16" class="node">
<title>Node16</title>
<g id="a_node16"><a xlink:href="TransmitterCode_2src_2main_8cpp.html#a8f53f86499d740b350f7b6d791c90497" target="_top" xlink:title=" ">
<polygon fill="white" stroke="#666666" points="1086.5,-874.5 1015.5,-874.5 1015.5,-855.5 1086.5,-855.5 1086.5,-874.5"/>
<text text-anchor="middle" x="1051" y="-862.5" font-family="Helvetica,sans-Serif" font-size="10.00">UseFullRate</text>
</a>
</g>
</g>
<!-- Node14&#45;&gt;Node16 -->
<g id="edge15" class="edge">
<title>Node14&#45;&gt;Node16</title>
<path fill="none" stroke="#63b8ff" d="M934.46,-865C955.46,-865 981.6,-865 1003.71,-865"/>
<polygon fill="#63b8ff" stroke="#63b8ff" points="1003.67,-868.5 1013.67,-865 1003.67,-861.5 1003.67,-868.5"/>
</g>
<!-- Node17&#45;&gt;Node12 -->
<g id="edge17" class="edge">
<title>Node17&#45;&gt;Node12</title>
<path fill="none" stroke="#63b8ff" d="M933.67,-791C953.6,-791 978.33,-791 999.86,-791"/>
<polygon fill="#63b8ff" stroke="#63b8ff" points="999.59,-794.5 1009.59,-791 999.59,-787.5 999.59,-794.5"/>
</g>
<!-- Node21 -->
<g id="node21" class="node">
<title>Node21</title>
<g id="a_node21"><a xlink:href="RadioFunctions_8cpp.html#a5fbd3c8613a4163425c94965704ce5f8" target="_top" xlink:title=" ">
<polygon fill="white" stroke="#666666" points="932,-575.5 858,-575.5 858,-556.5 932,-556.5 932,-575.5"/>
<text text-anchor="middle" x="895" y="-563.5" font-family="Helvetica,sans-Serif" font-size="10.00">FailedPacket</text>
</a>
</g>
</g>
<!-- Node20&#45;&gt;Node21 -->
<g id="edge21" class="edge">
<title>Node20&#45;&gt;Node21</title>
<path fill="none" stroke="#63b8ff" d="M760.38,-510.94C779.08,-520.83 809.07,-536.06 836,-547 840.6,-548.87 845.45,-550.69 850.32,-552.41"/>
<polygon fill="#63b8ff" stroke="#63b8ff" points="848.87,-555.62 859.46,-555.54 851.13,-548.99 848.87,-555.62"/>
</g>
<!-- Node58 -->
<g id="node29" class="node">
<title>Node58</title>
<g id="a_node29"><a xlink:href="RadioFunctions_8cpp.html#a07c27b4e208198453c70876517926052" target="_top" xlink:title=" ">
<polygon fill="white" stroke="#666666" points="926,-501.5 864,-501.5 864,-482.5 926,-482.5 926,-501.5"/>
<text text-anchor="middle" x="895" y="-489.5" font-family="Helvetica,sans-Serif" font-size="10.00">FlushFifos</text>
</a>
</g>
</g>
<!-- Node20&#45;&gt;Node58 -->
<g id="edge33" class="edge">
<title>Node20&#45;&gt;Node58</title>
<path fill="none" stroke="#63b8ff" d="M770.95,-499.29C793.95,-497.92 826.44,-496 852.26,-494.47"/>
<polygon fill="#63b8ff" stroke="#63b8ff" points="852.31,-497.97 862.09,-493.89 851.9,-490.99 852.31,-497.97"/>
</g>
<!-- Node59 -->
<g id="node30" class="node">
<title>Node59</title>
<g id="a_node30"><a xlink:href="TransmitterCode_2src_2main_8cpp.html#ac4ffb9b555ce8d38f615610dc89b5499" target="_top" xlink:title=" ">
<polygon fill="white" stroke="#666666" points="939.5,-612.5 850.5,-612.5 850.5,-593.5 939.5,-593.5 939.5,-612.5"/>
<text text-anchor="middle" x="895" y="-600.5" font-family="Helvetica,sans-Serif" font-size="10.00">LoadPacketData</text>
</a>
</g>
</g>
<!-- Node20&#45;&gt;Node59 -->
<g id="edge34" class="edge">
<title>Node20&#45;&gt;Node59</title>
<path fill="none" stroke="#63b8ff" d="M758.35,-510.93C770.45,-518.66 787.03,-530.05 800,-542 818.33,-558.89 815.25,-571.19 836,-585 837.81,-586.21 839.71,-587.33 841.66,-588.39"/>
<polygon fill="#63b8ff" stroke="#63b8ff" points="839.89,-591.42 850.43,-592.44 842.83,-585.07 839.89,-591.42"/>
</g>
<!-- Node62 -->
<g id="node33" class="node">
<title>Node62</title>
<g id="a_node33"><a xlink:href="ReceiverCode_2src_2main_8cpp.html#a6a495c5560f12cc3fd3df9454927d681" target="_top" xlink:title=" ">
<polygon fill="white" stroke="#666666" points="932,-464.5 858,-464.5 858,-445.5 932,-445.5 932,-464.5"/>
<text text-anchor="middle" x="895" y="-452.5" font-family="Helvetica,sans-Serif" font-size="10.00">MapToSBUS</text>
</a>
</g>
</g>
<!-- Node20&#45;&gt;Node62 -->
<g id="edge39" class="edge">
<title>Node20&#45;&gt;Node62</title>
<path fill="none" stroke="#63b8ff" d="M770.95,-492.24C793.38,-485.45 824.84,-475.93 850.33,-468.22"/>
<polygon fill="#63b8ff" stroke="#63b8ff" points="851.2,-471.61 859.75,-465.36 849.17,-464.91 851.2,-471.61"/>
</g>
<!-- Node63 -->
<g id="node34" class="node">
<title>Node63</title>
<g id="a_node34"><a xlink:href="RadioFunctions_8cpp.html#a1c11bb6771548de7d96723045b922620" target="_top" xlink:title=" ">
<polygon fill="white" stroke="#666666" points="943,-538.5 847,-538.5 847,-519.5 943,-519.5 943,-538.5"/>
<text text-anchor="middle" x="895" y="-526.5" font-family="Helvetica,sans-Serif" font-size="10.00">SuccessfulPacket</text>
</a>
</g>
</g>
<!-- Node20&#45;&gt;Node63 -->
<g id="edge40" class="edge">
<title>Node20&#45;&gt;Node63</title>
<path fill="none" stroke="#63b8ff" d="M770.95,-506.33C789.14,-509.68 813.26,-514.13 835.32,-518.19"/>
<polygon fill="#63b8ff" stroke="#63b8ff" points="834.67,-521.63 845.14,-520 835.94,-514.75 834.67,-521.63"/>
</g>
<!-- Node22 -->
<g id="node22" class="node">
<title>Node22</title>
<g id="a_node22"><a xlink:href="TransmitterCode_2src_2main_8cpp.html#afd409fe008843b50c3e2ff697558d4d5" target="_top" xlink:title=" ">
<polygon fill="#fff0f0" stroke="red" points="1097,-556.5 1005,-556.5 1005,-537.5 1097,-537.5 1097,-556.5"/>
<text text-anchor="middle" x="1051" y="-544.5" font-family="Helvetica,sans-Serif" font-size="10.00">LogThisLongGap</text>
</a>
</g>
</g>
<!-- Node21&#45;&gt;Node22 -->
<g id="edge22" class="edge">
<title>Node21&#45;&gt;Node22</title>
<path fill="none" stroke="#63b8ff" d="M932.5,-561.5C950.65,-559.26 973,-556.5 993.32,-553.99"/>
<polygon fill="#63b8ff" stroke="#63b8ff" points="993.68,-557.48 1003.17,-552.78 992.82,-550.53 993.68,-557.48"/>
</g>
<!-- Node33 -->
<g id="node24" class="node">
<title>Node33</title>
<g id="a_node24"><a xlink:href="RadioFunctions_8cpp.html#afc091b5942e21a03f6dc8635d5e519ba" target="_top" xlink:title=" ">
<polygon fill="white" stroke="#666666" points="1112,-482.5 990,-482.5 990,-463.5 1112,-463.5 1112,-482.5"/>
<text text-anchor="middle" x="1051" y="-470.5" font-family="Helvetica,sans-Serif" font-size="10.00">RecordsPacketSuccess</text>
</a>
</g>
</g>
<!-- Node21&#45;&gt;Node33 -->
<g id="edge24" class="edge">
<title>Node21&#45;&gt;Node33</title>
<path fill="none" stroke="#63b8ff" d="M932.25,-558.33C939.93,-555.6 947.63,-551.92 954,-547 977.41,-528.91 966.36,-508.8 990,-491 991.33,-490 992.72,-489.05 994.15,-488.16"/>
<polygon fill="#63b8ff" stroke="#63b8ff" points="995.5,-491.4 1002.76,-483.68 992.27,-485.19 995.5,-491.4"/>
</g>
<!-- Node34 -->
<g id="node25" class="node">
<title>Node34</title>
<g id="a_node25"><a xlink:href="TransmitterCode_2src_2main_8cpp.html#a7d34cec6e8edc20c8b50424e15dcc7c7" target="_top" xlink:title=" ">
<polygon fill="#fff0f0" stroke="red" points="1082.5,-911.5 1019.5,-911.5 1019.5,-892.5 1082.5,-892.5 1082.5,-911.5"/>
<text text-anchor="middle" x="1051" y="-899.5" font-family="Helvetica,sans-Serif" font-size="10.00">RedLedOn</text>
</a>
</g>
</g>
<!-- Node21&#45;&gt;Node34 -->
<g id="edge25" class="edge">
<title>Node21&#45;&gt;Node34</title>
<path fill="none" stroke="#63b8ff" d="M932.32,-571.09C940.56,-573.92 948.49,-578.28 954,-585 1038.89,-688.48 903.82,-781.59 990,-884 994.85,-889.76 1001.46,-893.72 1008.52,-896.43"/>
<polygon fill="#63b8ff" stroke="#63b8ff" points="1007.02,-899.64 1017.6,-899.15 1009.02,-892.93 1007.02,-899.64"/>
</g>
<!-- Node53 -->
<g id="node27" class="node">
<title>Node53</title>
<g id="a_node27"><a xlink:href="TransmitterCode_2src_2main_8cpp.html#a0a3d89dfcfab70c6cbc50401fff1afeb" target="_top" xlink:title=" ">
<polygon fill="white" stroke="#666666" points="1105.5,-334.5 996.5,-334.5 996.5,-315.5 1105.5,-315.5 1105.5,-334.5"/>
<text text-anchor="middle" x="1051" y="-322.5" font-family="Helvetica,sans-Serif" font-size="10.00">ReEnableScanButton</text>
</a>
</g>
</g>
<!-- Node21&#45;&gt;Node53 -->
<g id="edge29" class="edge">
<title>Node21&#45;&gt;Node53</title>
<path fill="none" stroke="#63b8ff" d="M932.37,-560.59C940.51,-557.77 948.38,-553.48 954,-547 1014.32,-477.45 928.81,-411.79 990,-343 990.36,-342.59 990.73,-342.2 991.11,-341.81"/>
<polygon fill="#63b8ff" stroke="#63b8ff" points="993.12,-344.67 998.91,-335.8 988.85,-339.13 993.12,-344.67"/>
</g>
<!-- Node54 -->
<g id="node28" class="node">
<title>Node54</title>
<g id="a_node28"><a xlink:href="RadioFunctions_8cpp.html#ad0236abcfc887ad708d9504c4ab2a7c3" target="_top" xlink:title=" ">
<polygon fill="#fff0f0" stroke="red" points="1095,-519.5 1007,-519.5 1007,-500.5 1095,-500.5 1095,-519.5"/>
<text text-anchor="middle" x="1051" y="-507.5" font-family="Helvetica,sans-Serif" font-size="10.00">TryToReconnect</text>
</a>
</g>
</g>
<!-- Node21&#45;&gt;Node54 -->
<g id="edge32" class="edge">
<title>Node21&#45;&gt;Node54</title>
<path fill="none" stroke="#63b8ff" d="M929.48,-556.1C937.61,-553.41 946.2,-550.31 954,-547 970.66,-539.94 973.26,-534.85 990,-528 993.85,-526.42 997.89,-524.92 1001.97,-523.49"/>
<polygon fill="#63b8ff" stroke="#63b8ff" points="1002.96,-526.86 1011.36,-520.41 1000.77,-520.21 1002.96,-526.86"/>
</g>
<!-- Node22&#45;&gt;Node28 -->
<g id="edge23" class="edge">
<title>Node22&#45;&gt;Node28</title>
<path fill="none" stroke="#63b8ff" d="M1097.21,-537.85C1102.65,-535.33 1107.76,-532.11 1112,-528 1175.42,-466.49 1191.31,-354.72 1195.23,-308.2"/>
<polygon fill="#63b8ff" stroke="#63b8ff" points="1198.71,-308.64 1195.94,-298.42 1191.73,-308.14 1198.71,-308.64"/>
</g>
<!-- Node34&#45;&gt;Node4 -->
<g id="edge26" class="edge">
<title>Node34&#45;&gt;Node4</title>
<path fill="none" stroke="#63b8ff" d="M1019.12,-908.53C963.83,-919.63 844.14,-941 742,-941 608,-941 608,-941 608,-941 450,-941 388.34,-692.87 373.35,-618.08"/>
<polygon fill="#63b8ff" stroke="#63b8ff" points="376.82,-617.57 371.49,-608.41 369.94,-618.89 376.82,-617.57"/>
</g>
<!-- Node34&#45;&gt;Node5 -->
<g id="edge27" class="edge">
<title>Node34&#45;&gt;Node5</title>
<path fill="none" stroke="#63b8ff" d="M1019.03,-903.7C976.63,-905.07 898.65,-904.15 836,-884 760.1,-859.59 735.83,-850.81 682,-792 575.99,-676.18 518.05,-489.11 500.94,-426.88"/>
<polygon fill="#63b8ff" stroke="#63b8ff" points="504.35,-426.07 498.38,-417.32 497.59,-427.89 504.35,-426.07"/>
</g>
<!-- Node38 -->
<g id="node26" class="node">
<title>Node38</title>
<g id="a_node26"><a xlink:href="ReceiverCode_2src_2main_8cpp.html#a2eabdb233653fa02f0b899e26b5e8ce7" target="_top" xlink:title=" ">
<polygon fill="white" stroke="#666666" points="1247,-808.5 1148,-808.5 1148,-789.5 1247,-789.5 1247,-808.5"/>
<text text-anchor="middle" x="1197.5" y="-796.5" font-family="Helvetica,sans-Serif" font-size="10.00">SetUKFrequencies</text>
</a>
</g>
</g>
<!-- Node34&#45;&gt;Node38 -->
<g id="edge28" class="edge">
<title>Node34&#45;&gt;Node38</title>
<path fill="none" stroke="#63b8ff" d="M1082.83,-895.9C1092.59,-893.16 1103.14,-889.31 1112,-884 1140.88,-866.69 1167.01,-837.31 1182.33,-818.03"/>
<polygon fill="#63b8ff" stroke="#63b8ff" points="1185.04,-820.24 1188.38,-810.18 1179.5,-815.96 1185.04,-820.24"/>
</g>
<!-- Node53&#45;&gt;Node5 -->
<g id="edge30" class="edge">
<title>Node53&#45;&gt;Node5</title>
<path fill="none" stroke="#63b8ff" d="M1014.22,-334.92C1006.19,-337.38 997.75,-340.13 990,-343 973.58,-349.08 971.13,-355.37 954,-359 902.7,-369.89 888.05,-365.41 836,-359 819.63,-356.98 816.37,-352.02 800,-350 747.95,-343.59 733.89,-342.38 682,-350 628.04,-357.93 568.04,-378.1 531.02,-391.94"/>
<polygon fill="#63b8ff" stroke="#63b8ff" points="529.83,-388.65 521.72,-395.47 532.32,-395.19 529.83,-388.65"/>
</g>
<!-- Node53&#45;&gt;Node28 -->
<g id="edge31" class="edge">
<title>Node53&#45;&gt;Node28</title>
<path fill="none" stroke="#63b8ff" d="M1089.97,-315.02C1115.77,-308.23 1149.16,-299.45 1171.62,-293.54"/>
<polygon fill="#63b8ff" stroke="#63b8ff" points="1172.33,-296.98 1181.11,-291.05 1170.55,-290.21 1172.33,-296.98"/>
</g>
<!-- Node59&#45;&gt;Node5 -->
<g id="edge36" class="edge">
<title>Node59&#45;&gt;Node5</title>
<path fill="none" stroke="#63b8ff" d="M850.14,-597.14C784.7,-586.69 659.83,-560.03 572,-500 543.3,-480.38 519.79,-446.94 506.71,-425.68"/>
<polygon fill="#63b8ff" stroke="#63b8ff" points="509.74,-423.93 501.63,-417.12 503.72,-427.5 509.74,-423.93"/>
</g>
<!-- Node59&#45;&gt;Node38 -->
<g id="edge38" class="edge">
<title>Node59&#45;&gt;Node38</title>
<path fill="none" stroke="#63b8ff" d="M907.49,-612.87C924.83,-627.57 958.98,-655.77 990,-677 1051.19,-718.89 1127.18,-761.54 1167.76,-783.62"/>
<polygon fill="#63b8ff" stroke="#63b8ff" points="1165.97,-786.62 1176.43,-788.31 1169.3,-780.47 1165.97,-786.62"/>
</g>
<!-- Node60 -->
<g id="node31" class="node">
<title>Node60</title>
<g id="a_node31"><a xlink:href="TransmitterCode_2src_2main_8cpp.html#a5aa4888b924a4f1d95e9cedc3004f2b6" target="_top" xlink:title=" ">
<polygon fill="white" stroke="#666666" points="1092.5,-593.5 1009.5,-593.5 1009.5,-574.5 1092.5,-574.5 1092.5,-593.5"/>
<text text-anchor="middle" x="1051" y="-581.5" font-family="Helvetica,sans-Serif" font-size="10.00">MakeTwobytes</text>
</a>
</g>
</g>
<!-- Node59&#45;&gt;Node60 -->
<g id="edge35" class="edge">
<title>Node59&#45;&gt;Node60</title>
<path fill="none" stroke="#63b8ff" d="M939.72,-597.61C957.76,-595.38 978.82,-592.78 997.67,-590.46"/>
<polygon fill="#63b8ff" stroke="#63b8ff" points="998.08,-593.93 1007.58,-589.23 997.23,-586.98 998.08,-593.93"/>
</g>
<!-- Node61 -->
<g id="node32" class="node">
<title>Node61</title>
<g id="a_node32"><a xlink:href="ReceiverCode_2src_2main_8cpp.html#a31a35307bbac88ceda244272f25d399a" target="_top" xlink:title=" ">
<polygon fill="white" stroke="#666666" points="1103,-630.5 999,-630.5 999,-611.5 1103,-611.5 1103,-630.5"/>
<text text-anchor="middle" x="1051" y="-618.5" font-family="Helvetica,sans-Serif" font-size="10.00">SetTestFrequencies</text>
</a>
</g>
</g>
<!-- Node59&#45;&gt;Node61 -->
<g id="edge37" class="edge">
<title>Node59&#45;&gt;Node61</title>
<path fill="none" stroke="#63b8ff" d="M939.72,-608.11C954.46,-609.83 971.21,-611.79 987.14,-613.65"/>
<polygon fill="#63b8ff" stroke="#63b8ff" points="986.7,-617.12 997.04,-614.81 987.51,-610.17 986.7,-617.12"/>
</g>
<!-- Node63&#45;&gt;Node33 -->
<g id="edge45" class="edge">
<title>Node63&#45;&gt;Node33</title>
<path fill="none" stroke="#63b8ff" d="M929.48,-519.1C937.61,-516.41 946.2,-513.31 954,-510 970.66,-502.94 973.26,-497.85 990,-491 993.85,-489.42 997.89,-487.92 1001.97,-486.49"/>
<polygon fill="#63b8ff" stroke="#63b8ff" points="1002.96,-489.86 1011.36,-483.41 1000.77,-483.21 1002.96,-489.86"/>
</g>
<!-- Node64 -->
<g id="node35" class="node">
<title>Node64</title>
<g id="a_node35"><a xlink:href="TransmitterCode_2src_2main_8cpp.html#a953f1d5046e183549ed95b08f6d675e3" target="_top" xlink:title=" ">
<polygon fill="#fff0f0" stroke="red" points="1100,-408.5 1002,-408.5 1002,-389.5 1100,-389.5 1100,-408.5"/>
<text text-anchor="middle" x="1051" y="-396.5" font-family="Helvetica,sans-Serif" font-size="10.00">CheckGapsLength</text>
</a>
</g>
</g>
<!-- Node63&#45;&gt;Node64 -->
<g id="edge41" class="edge">
<title>Node63&#45;&gt;Node64</title>
<path fill="none" stroke="#63b8ff" d="M940.47,-519.12C945.42,-516.71 950.08,-513.72 954,-510 986.16,-479.5 957.46,-447.1 990,-417 990.77,-416.29 991.56,-415.61 992.38,-414.95"/>
<polygon fill="#63b8ff" stroke="#63b8ff" points="994.08,-418.02 1000.66,-409.71 990.34,-412.1 994.08,-418.02"/>
</g>
<!-- Node44 -->
<g id="node36" class="node">
<title>Node44</title>
<g id="a_node36"><a xlink:href="TransmitterCode_2src_2main_8cpp.html#a62e53eb9359c32b666e3386d62c57037" target="_top" xlink:title=" ">
<polygon fill="#fff0f0" stroke="red" points="1087,-667.5 1015,-667.5 1015,-648.5 1087,-648.5 1087,-667.5"/>
<text text-anchor="middle" x="1051" y="-655.5" font-family="Helvetica,sans-Serif" font-size="10.00">GreenLedOn</text>
</a>
</g>
</g>
<!-- Node63&#45;&gt;Node44 -->
<g id="edge42" class="edge">
<title>Node63&#45;&gt;Node44</title>
<path fill="none" stroke="#63b8ff" d="M942.19,-538.93C946.49,-541.11 950.53,-543.76 954,-547 986.39,-577.25 957.46,-609.9 990,-640 994.03,-643.73 998.8,-646.68 1003.87,-649.03"/>
<polygon fill="#63b8ff" stroke="#63b8ff" points="1002.53,-652.26 1013.12,-652.51 1004.99,-645.71 1002.53,-652.26"/>
</g>
<!-- Node66 -->
<g id="node37" class="node">
<title>Node66</title>
<g id="a_node37"><a xlink:href="TransmitterCode_2src_2main_8cpp.html#a694f4f5a0147f4dc29b0bc1a8951547d" target="_top" xlink:title=" ">
<polygon fill="#fff0f0" stroke="red" points="1098,-371.5 1004,-371.5 1004,-352.5 1098,-352.5 1098,-371.5"/>
<text text-anchor="middle" x="1051" y="-359.5" font-family="Helvetica,sans-Serif" font-size="10.00">ParseAckPayload</text>
</a>
</g>
</g>
<!-- Node63&#45;&gt;Node66 -->
<g id="edge44" class="edge">
<title>Node63&#45;&gt;Node66</title>
<path fill="none" stroke="#63b8ff" d="M941.69,-519.04C946.25,-516.65 950.49,-513.68 954,-510 995.4,-466.64 948.06,-422.84 990,-380 991.21,-378.76 992.51,-377.61 993.87,-376.53"/>
<polygon fill="#63b8ff" stroke="#63b8ff" points="995.68,-379.53 1002.37,-371.31 992.02,-373.56 995.68,-379.53"/>
</g>
<!-- Node52 -->
<g id="node38" class="node">
<title>Node52</title>
<g id="a_node38"><a xlink:href="TransmitterCode_2src_2main_8cpp.html#a793b7bcd77531c95fe72ed4356d421c8" target="_top" xlink:title=" ">
<polygon fill="white" stroke="#666666" points="1106,-445.5 996,-445.5 996,-426.5 1106,-426.5 1106,-445.5"/>
<text text-anchor="middle" x="1051" y="-433.5" font-family="Helvetica,sans-Serif" font-size="10.00">StartInactvityTimeout</text>
</a>
</g>
</g>
<!-- Node63&#45;&gt;Node52 -->
<g id="edge46" class="edge">
<title>Node63&#45;&gt;Node52</title>
<path fill="none" stroke="#63b8ff" d="M937.99,-519.1C943.7,-516.68 949.22,-513.69 954,-510 977.41,-491.91 966.36,-471.8 990,-454 991.33,-453 992.72,-452.05 994.15,-451.16"/>
<polygon fill="#63b8ff" stroke="#63b8ff" points="995.5,-454.4 1002.76,-446.68 992.27,-448.19 995.5,-454.4"/>
</g>
<!-- Node44&#45;&gt;Node4 -->
<g id="edge43" class="edge">
<title>Node44&#45;&gt;Node4</title>
<path fill="none" stroke="#63b8ff" d="M1014.93,-654.8C957.8,-649.88 841.07,-641 742,-641 608,-641 608,-641 608,-641 538.18,-641 458.74,-622.54 411.44,-609.53"/>
<polygon fill="#63b8ff" stroke="#63b8ff" points="412.45,-606.18 401.87,-606.85 410.56,-612.92 412.45,-606.18"/>
</g>
<!-- Node114 -->
<g id="node40" class="node">
<title>Node114</title>
<g id="a_node40"><a xlink:href="TransmitterCode_2src_2main_8cpp.html#acf49567c45af927603ae83a7f46e6534" target="_top" xlink:title=" ">
<polygon fill="#fff0f0" stroke="red" points="932,-199.5 858,-199.5 858,-180.5 932,-180.5 932,-199.5"/>
<text text-anchor="middle" x="895" y="-187.5" font-family="Helvetica,sans-Serif" font-size="10.00">DisplayCurve</text>
</a>
</g>
</g>
<!-- Node113&#45;&gt;Node114 -->
<g id="edge48" class="edge">
<title>Node113&#45;&gt;Node114</title>
<path fill="none" stroke="#63b8ff" d="M757.98,-274.12C784.39,-257.79 837.35,-225.03 868.83,-205.57"/>
<polygon fill="#63b8ff" stroke="#63b8ff" points="870.28,-208.78 876.95,-200.55 866.6,-202.83 870.28,-208.78"/>
</g>
<!-- Node120 -->
<g id="node44" class="node">
<title>Node120</title>
<g id="a_node44"><a xlink:href="TransmitterCode_2src_2main_8cpp.html#acbef1d41e1bd646b60a6e8afd9c66880" target="_top" xlink:title=" ">
<polygon fill="white" stroke="#666666" points="1080,-258.5 1022,-258.5 1022,-239.5 1080,-239.5 1080,-258.5"/>
<text text-anchor="middle" x="1051" y="-246.5" font-family="Helvetica,sans-Serif" font-size="10.00">DrawLine</text>
</a>
</g>
</g>
<!-- Node113&#45;&gt;Node120 -->
<g id="edge62" class="edge">
<title>Node113&#45;&gt;Node120</title>
<path fill="none" stroke="#63b8ff" d="M783.22,-279.32C842.72,-272.55 951.95,-260.14 1010.48,-253.49"/>
<polygon fill="#63b8ff" stroke="#63b8ff" points="1010.78,-256.98 1020.32,-252.37 1009.99,-250.02 1010.78,-256.98"/>
</g>
<!-- Node41 -->
<g id="node45" class="node">
<title>Node41</title>
<g id="a_node45"><a xlink:href="TransmitterCode_2src_2main_8cpp.html#a1e20efc1e419b252b50d36f9924503fc" target="_top" xlink:title=" ">
<polygon fill="white" stroke="#666666" points="1083,-141.5 1019,-141.5 1019,-122.5 1083,-122.5 1083,-141.5"/>
<text text-anchor="middle" x="1051" y="-129.5" font-family="Helvetica,sans-Serif" font-size="10.00">SendValue</text>
</a>
</g>
</g>
<!-- Node113&#45;&gt;Node41 -->
<g id="edge65" class="edge">
<title>Node113&#45;&gt;Node41</title>
<path fill="none" stroke="#63b8ff" d="M747.02,-274.18C759.02,-251.78 791.71,-196.87 836,-171 889.28,-139.88 961.73,-132.6 1007.17,-131.4"/>
<polygon fill="#63b8ff" stroke="#63b8ff" points="1007.22,-134.9 1017.16,-131.24 1007.1,-127.9 1007.22,-134.9"/>
</g>
<!-- Node124 -->
<g id="node46" class="node">
<title>Node124</title>
<g id="a_node46"><a xlink:href="TransmitterCode_2src_2main_8cpp.html#af1030157034999448f5ca611d6209385" target="_top" xlink:title=" ">
<polygon fill="white" stroke="#666666" points="954,-313.5 836,-313.5 836,-294.5 954,-294.5 954,-313.5"/>
<text text-anchor="middle" x="895" y="-301.5" font-family="Helvetica,sans-Serif" font-size="10.00">GetStickInputInputOnly</text>
</a>
</g>
</g>
<!-- Node113&#45;&gt;Node124 -->
<g id="edge63" class="edge">
<title>Node113&#45;&gt;Node124</title>
<path fill="none" stroke="#63b8ff" d="M783.13,-289.41C795.9,-291.09 810.34,-292.99 824.48,-294.85"/>
<polygon fill="#63b8ff" stroke="#63b8ff" points="823.84,-298.3 834.21,-296.13 824.76,-291.36 823.84,-298.3"/>
</g>
<!-- Node125 -->
<g id="node47" class="node">
<title>Node125</title>
<g id="a_node47"><a xlink:href="TransmitterCode_2src_2main_8cpp.html#a5cdbe11d62e0de7610ba323e60b97d33" target="_top" xlink:title=" ">
<polygon fill="white" stroke="#666666" points="933.5,-350.5 856.5,-350.5 856.5,-331.5 933.5,-331.5 933.5,-350.5"/>
<text text-anchor="middle" x="895" y="-338.5" font-family="Helvetica,sans-Serif" font-size="10.00">IntoLowerRes</text>
</a>
</g>
</g>
<!-- Node113&#45;&gt;Node125 -->
<g id="edge64" class="edge">
<title>Node113&#45;&gt;Node125</title>
<path fill="none" stroke="#63b8ff" d="M765.39,-293.97C784.31,-301.91 811.7,-313.12 836,-322 841.02,-323.84 846.32,-325.69 851.59,-327.47"/>
<polygon fill="#63b8ff" stroke="#63b8ff" points="850.23,-330.71 860.82,-330.55 852.44,-324.07 850.23,-330.71"/>
</g>
<!-- Node114&#45;&gt;Node5 -->
<g id="edge57" class="edge">
<title>Node114&#45;&gt;Node5</title>
<path fill="none" stroke="#63b8ff" d="M857.7,-181.35C793.29,-168.25 657.76,-151.07 572,-214 515.88,-255.18 500.88,-344.21 496.91,-384.92"/>
<polygon fill="#63b8ff" stroke="#63b8ff" points="493.43,-384.55 496.1,-394.81 500.41,-385.13 493.43,-384.55"/>
</g>
<!-- Node115 -->
<g id="node41" class="node">
<title>Node115</title>
<g id="a_node41"><a xlink:href="TransmitterCode_2src_2main_8cpp.html#a1870ad872e2424cbf8222747d3a43617" target="_top" xlink:title=" ">
<polygon fill="white" stroke="#666666" points="1102.5,-219.5 999.5,-219.5 999.5,-200.5 1102.5,-200.5 1102.5,-219.5"/>
<text text-anchor="middle" x="1051" y="-207.5" font-family="Helvetica,sans-Serif" font-size="10.00">CheckInvisiblePoint</text>
</a>
</g>
</g>
<!-- Node114&#45;&gt;Node115 -->
<g id="edge49" class="edge">
<title>Node114&#45;&gt;Node115</title>
<path fill="none" stroke="#63b8ff" d="M932.5,-194.74C949.07,-196.89 969.15,-199.5 987.99,-201.95"/>
<polygon fill="#63b8ff" stroke="#63b8ff" points="987.33,-205.39 997.7,-203.21 988.23,-198.45 987.33,-205.39"/>
</g>
<!-- Node116 -->
<g id="node42" class="node">
<title>Node116</title>
<g id="a_node42"><a xlink:href="TransmitterCode_2src_2main_8cpp.html#a5aeea47b9d855ae9911bae1115d02de7" target="_top" xlink:title=" ">
<polygon fill="white" stroke="#666666" points="1079,-296.5 1023,-296.5 1023,-277.5 1079,-277.5 1079,-296.5"/>
<text text-anchor="middle" x="1051" y="-284.5" font-family="Helvetica,sans-Serif" font-size="10.00">ClearBox</text>
</a>
</g>
</g>
<!-- Node114&#45;&gt;Node116 -->
<g id="edge50" class="edge">
<title>Node114&#45;&gt;Node116</title>
<path fill="none" stroke="#63b8ff" d="M905.53,-199.87C921.59,-215.99 955.64,-248.05 990,-267 996.78,-270.74 1004.38,-273.94 1011.84,-276.61"/>
<polygon fill="#63b8ff" stroke="#63b8ff" points="1010.51,-279.86 1021.1,-279.67 1012.7,-273.21 1010.51,-279.86"/>
</g>
<!-- Node117 -->
<g id="node43" class="node">
<title>Node117</title>
<g id="a_node43"><a xlink:href="TransmitterCode_2src_2main_8cpp.html#a68b36025c7478c0710565b4fb059d9bc" target="_top" xlink:title=" ">
<polygon fill="white" stroke="#666666" points="1093,-182.5 1009,-182.5 1009,-163.5 1093,-163.5 1093,-182.5"/>
<text text-anchor="middle" x="1051" y="-170.5" font-family="Helvetica,sans-Serif" font-size="10.00">DegsToPercent</text>
</a>
</g>
</g>
<!-- Node114&#45;&gt;Node117 -->
<g id="edge53" class="edge">
<title>Node114&#45;&gt;Node117</title>
<path fill="none" stroke="#63b8ff" d="M932.5,-185.97C951.87,-183.83 976.03,-181.17 997.4,-178.81"/>
<polygon fill="#63b8ff" stroke="#63b8ff" points="997.54,-182.31 1007.1,-177.74 996.77,-175.35 997.54,-182.31"/>
</g>
<!-- Node114&#45;&gt;Node120 -->
<g id="edge54" class="edge">
<title>Node114&#45;&gt;Node120</title>
<path fill="none" stroke="#63b8ff" d="M919.83,-200C938.76,-207.85 965.95,-218.94 990,-228 996.71,-230.53 1003.88,-233.13 1010.84,-235.6"/>
<polygon fill="#63b8ff" stroke="#63b8ff" points="1009.49,-238.83 1020.09,-238.84 1011.81,-232.23 1009.49,-238.83"/>
</g>
<!-- Node114&#45;&gt;Node41 -->
<g id="edge58" class="edge">
<title>Node114&#45;&gt;Node41</title>
<path fill="none" stroke="#63b8ff" d="M921.5,-180.12C940.38,-172.83 966.76,-162.71 990,-154 997.04,-151.36 1004.55,-148.58 1011.8,-145.92"/>
<polygon fill="#63b8ff" stroke="#63b8ff" points="1012.88,-149.24 1021.07,-142.51 1010.47,-142.67 1012.88,-149.24"/>
</g>
<!-- Node116&#45;&gt;Node5 -->
<g id="edge51" class="edge">
<title>Node116&#45;&gt;Node5</title>
<path fill="none" stroke="#63b8ff" d="M1022.51,-291.64C1011.62,-294.47 999.46,-298.95 990,-306 967.17,-323.01 976.02,-340.95 954,-359 896.55,-406.1 872.81,-409.26 800,-424 700.68,-444.1 672.66,-435.68 572,-424 561.96,-422.83 551.32,-420.83 541.27,-418.58"/>
<polygon fill="#63b8ff" stroke="#63b8ff" points="542.25,-415.22 531.71,-416.31 540.63,-422.03 542.25,-415.22"/>
</g>
<!-- Node116&#45;&gt;Node28 -->
<g id="edge52" class="edge">
<title>Node116&#45;&gt;Node28</title>
<path fill="none" stroke="#63b8ff" d="M1079.18,-287C1105.6,-287 1145.4,-287 1171.17,-287"/>
<polygon fill="#63b8ff" stroke="#63b8ff" points="1171.06,-290.5 1181.06,-287 1171.06,-283.5 1171.06,-290.5"/>
</g>
<!-- Node120&#45;&gt;Node5 -->
<g id="edge55" class="edge">
<title>Node120&#45;&gt;Node5</title>
<path fill="none" stroke="#63b8ff" d="M1021.65,-244.61C958.39,-235.99 801.86,-221.3 682,-265 609.81,-291.32 542.4,-355.82 512.18,-387.64"/>
<polygon fill="#63b8ff" stroke="#63b8ff" points="509.64,-385.23 505.38,-394.93 514.76,-390 509.64,-385.23"/>
</g>
<!-- Node120&#45;&gt;Node28 -->
<g id="edge56" class="edge">
<title>Node120&#45;&gt;Node28</title>
<path fill="none" stroke="#63b8ff" d="M1080.2,-256.42C1106.86,-263.43 1146.46,-273.84 1171.88,-280.53"/>
<polygon fill="#63b8ff" stroke="#63b8ff" points="1170.75,-283.85 1181.32,-283.01 1172.53,-277.08 1170.75,-283.85"/>
</g>
<!-- Node41&#45;&gt;Node5 -->
<g id="edge60" class="edge">
<title>Node41&#45;&gt;Node5</title>
<path fill="none" stroke="#63b8ff" d="M1018.57,-123.97C934.68,-104.59 703,-64.71 572,-177 508.72,-231.24 497.59,-339.38 495.77,-384.96"/>
<polygon fill="#63b8ff" stroke="#63b8ff" points="492.28,-384.69 495.51,-394.78 499.28,-384.88 492.28,-384.69"/>
</g>
<!-- Node41&#45;&gt;Node6 -->
<g id="edge59" class="edge">
<title>Node41&#45;&gt;Node6</title>
<path fill="none" stroke="#63b8ff" d="M1083.35,-127.88C1101.13,-125.54 1123.83,-122.55 1144.23,-119.87"/>
<polygon fill="#63b8ff" stroke="#63b8ff" points="1144.64,-123.35 1154.09,-118.58 1143.72,-116.41 1144.64,-123.35"/>
</g>
<!-- Node41&#45;&gt;Node28 -->
<g id="edge61" class="edge">
<title>Node41&#45;&gt;Node28</title>
<path fill="none" stroke="#63b8ff" d="M1083.3,-139.21C1093.19,-142.55 1103.71,-147.32 1112,-154 1150.2,-184.77 1176.34,-237.68 1188.58,-266.62"/>
<polygon fill="#63b8ff" stroke="#63b8ff" points="1185.26,-267.75 1192.27,-275.7 1191.74,-265.12 1185.26,-267.75"/>
</g>
<!-- Node79&#45;&gt;Node41 -->
<g id="edge68" class="edge">
<title>Node79&#45;&gt;Node41</title>
<path fill="none" stroke="#63b8ff" d="M373.19,-545.17C395.81,-485.09 516.66,-167 572,-79 584.91,-58.47 583.75,-38 608,-38 608,-38 608,-38 742,-38 848.96,-38 968.07,-90.5 1021.43,-117.03"/>
<polygon fill="#63b8ff" stroke="#63b8ff" points="1019.65,-120.05 1030.15,-121.44 1022.8,-113.8 1019.65,-120.05"/>
</g>
<!-- Node126&#45;&gt;Node4 -->
<g id="edge70" class="edge">
<title>Node126&#45;&gt;Node4</title>
<path fill="none" stroke="#63b8ff" d="M282.96,-564.43C297.14,-569.89 315.26,-576.87 331.09,-582.97"/>
<polygon fill="#63b8ff" stroke="#63b8ff" points="329.6,-586.15 340.19,-586.48 332.12,-579.61 329.6,-586.15"/>
</g>
<!-- Node126&#45;&gt;Node79 -->
<g id="edge71" class="edge">
<title>Node126&#45;&gt;Node79</title>
<path fill="none" stroke="#63b8ff" d="M282.96,-555C291.81,-555 302.2,-555 312.61,-555"/>
<polygon fill="#63b8ff" stroke="#63b8ff" points="312.32,-558.5 322.32,-555 312.32,-551.5 312.32,-558.5"/>
</g>
<!-- Node92&#45;&gt;Node5 -->
<g id="edge73" class="edge">
<title>Node92&#45;&gt;Node5</title>
<path fill="none" stroke="#63b8ff" d="M417.44,-406C425.23,-406 433.32,-406 441.2,-406"/>
<polygon fill="#63b8ff" stroke="#63b8ff" points="441.02,-409.5 451.02,-406 441.02,-402.5 441.02,-409.5"/>
</g>
<!-- Node92&#45;&gt;Node28 -->
<g id="edge74" class="edge">
<title>Node92&#45;&gt;Node28</title>
<path fill="none" stroke="#63b8ff" d="M370.36,-396.36C376.38,-334.88 417.94,0 608,0 608,0 608,0 896,0 1004.34,0 1036.54,-35.25 1112,-113 1155.94,-158.27 1180.89,-230.79 1191.06,-266.2"/>
<polygon fill="#63b8ff" stroke="#63b8ff" points="1187.63,-266.89 1193.65,-275.61 1194.38,-265.04 1187.63,-266.89"/>
</g>
</g>
</svg>
