<?xml version="1.0" encoding="UTF-8" standalone="no"?>
<!DOCTYPE svg PUBLIC "-//W3C//DTD SVG 1.1//EN"
 "http://www.w3.org/Graphics/SVG/1.1/DTD/svg11.dtd">
<!-- Generated by graphviz version 3.0.0 (20220413.0242)
 -->
<!-- Title: CloseLogFile Pages: 1 -->
<svg width="1264pt" height="750pt"
 viewBox="0.00 0.00 1264.00 750.00" xmlns="http://www.w3.org/2000/svg" xmlns:xlink="http://www.w3.org/1999/xlink">
<g id="graph0" class="graph" transform="scale(1 1) rotate(0) translate(4 746)">
<title>CloseLogFile</title>
<polygon fill="white" stroke="transparent" points="-4,4 -4,-746 1260,-746 1260,4 -4,4"/>
<!-- Node1 -->
<g id="node1" class="node">
<title>Node1</title>
<g id="a_node1"><a xlink:title=" ">
<polygon fill="#bfbfbf" stroke="black" points="1182,-190.5 1182,-209.5 1256,-209.5 1256,-190.5 1182,-190.5"/>
<text text-anchor="middle" x="1219" y="-197.5" font-family="Helvetica,sans-Serif" font-size="10.00">CloseLogFile</text>
</a>
</g>
</g>
<!-- Node2 -->
<g id="node2" class="node">
<title>Node2</title>
<g id="a_node2"><a xlink:href="TransmitterCode_2src_2main_8cpp.html#ad33b86f6d4eba7a21e57c1a5ba76281a" target="_top" xlink:title=" ">
<polygon fill="white" stroke="black" points="953.5,-190.5 953.5,-209.5 1035.5,-209.5 1035.5,-190.5 953.5,-190.5"/>
<text text-anchor="middle" x="994.5" y="-197.5" font-family="Helvetica,sans-Serif" font-size="10.00">DeleteLogFile1</text>
</a>
</g>
</g>
<!-- Node1&#45;&gt;Node2 -->
<g id="edge1" class="edge">
<title>Node1&#45;&gt;Node2</title>
<path fill="none" stroke="midnightblue" d="M1171.7,-200C1131.59,-200 1074.14,-200 1035.87,-200"/>
<polygon fill="midnightblue" stroke="midnightblue" points="1171.76,-203.5 1181.76,-200 1171.76,-196.5 1171.76,-203.5"/>
</g>
<!-- Node4 -->
<g id="node4" class="node">
<title>Node4</title>
<g id="a_node4"><a xlink:href="TransmitterCode_2src_2main_8cpp.html#add8d8f400f1c1c4a5add52736cdf94ca" target="_top" xlink:title=" ">
<polygon fill="white" stroke="black" points="1083,-456.5 1083,-475.5 1135,-475.5 1135,-456.5 1083,-456.5"/>
<text text-anchor="middle" x="1109" y="-463.5" font-family="Helvetica,sans-Serif" font-size="10.00">LogText</text>
</a>
</g>
</g>
<!-- Node1&#45;&gt;Node4 -->
<g id="edge3" class="edge">
<title>Node1&#45;&gt;Node4</title>
<path fill="none" stroke="midnightblue" d="M1210.16,-219.32C1188.71,-272.14 1129.63,-417.65 1113.89,-456.41"/>
<polygon fill="midnightblue" stroke="midnightblue" points="1213.51,-220.36 1214.03,-209.78 1207.02,-217.73 1213.51,-220.36"/>
</g>
<!-- Node39 -->
<g id="node39" class="node">
<title>Node39</title>
<g id="a_node39"><a xlink:href="TransmitterCode_2src_2main_8cpp.html#af5df157d4ece6b40a9ce7a60faeca569" target="_top" xlink:title=" ">
<polygon fill="white" stroke="black" points="1072,-114.5 1072,-133.5 1146,-133.5 1146,-114.5 1072,-114.5"/>
<text text-anchor="middle" x="1109" y="-121.5" font-family="Helvetica,sans-Serif" font-size="10.00">ShowLogFile</text>
</a>
</g>
</g>
<!-- Node1&#45;&gt;Node39 -->
<g id="edge59" class="edge">
<title>Node1&#45;&gt;Node39</title>
<path fill="none" stroke="midnightblue" d="M1196.03,-184.54C1174.31,-169.25 1141.77,-146.36 1123.57,-133.55"/>
<polygon fill="midnightblue" stroke="midnightblue" points="1194.13,-187.48 1204.32,-190.37 1198.16,-181.76 1194.13,-187.48"/>
</g>
<!-- Node3 -->
<g id="node3" class="node">
<title>Node3</title>
<g id="a_node3"><a xlink:href="TransmitterCode_2src_2main_8cpp.html#a53d438145d004c3b053f245f494f4284" target="_top" xlink:title=" ">
<polygon fill="white" stroke="black" points="834.5,-190.5 834.5,-209.5 886.5,-209.5 886.5,-190.5 834.5,-190.5"/>
<text text-anchor="middle" x="860.5" y="-197.5" font-family="Helvetica,sans-Serif" font-size="10.00">DelLOG</text>
</a>
</g>
</g>
<!-- Node2&#45;&gt;Node3 -->
<g id="edge2" class="edge">
<title>Node2&#45;&gt;Node3</title>
<path fill="none" stroke="midnightblue" d="M943,-200C923.72,-200 902.57,-200 886.64,-200"/>
<polygon fill="midnightblue" stroke="midnightblue" points="943.18,-203.5 953.18,-200 943.18,-196.5 943.18,-203.5"/>
</g>
<!-- Node5 -->
<g id="node5" class="node">
<title>Node5</title>
<g id="a_node5"><a xlink:href="TransmitterCode_2src_2main_8cpp.html#aaa3e86084c43b049d52d7d62c58a00b9" target="_top" xlink:title=" ">
<polygon fill="white" stroke="black" points="819.5,-418.5 819.5,-437.5 901.5,-437.5 901.5,-418.5 819.5,-418.5"/>
<text text-anchor="middle" x="860.5" y="-425.5" font-family="Helvetica,sans-Serif" font-size="10.00">LogConnection</text>
</a>
</g>
</g>
<!-- Node4&#45;&gt;Node5 -->
<g id="edge4" class="edge">
<title>Node4&#45;&gt;Node5</title>
<path fill="none" stroke="midnightblue" d="M1072.88,-458.77C1061.17,-456.46 1048.05,-454 1036,-452 990.14,-444.39 937.22,-437.36 901.79,-432.9"/>
<polygon fill="midnightblue" stroke="midnightblue" points="1072.25,-462.21 1082.74,-460.73 1073.62,-455.34 1072.25,-462.21"/>
</g>
<!-- Node17 -->
<g id="node17" class="node">
<title>Node17</title>
<g id="a_node17"><a xlink:href="TransmitterCode_2src_2main_8cpp.html#a2d5ec5fd5ed62d5b7b071fabe2225405" target="_top" xlink:title=" ">
<polygon fill="white" stroke="black" points="671,-228.5 671,-247.5 767,-247.5 767,-228.5 671,-228.5"/>
<text text-anchor="middle" x="719" y="-235.5" font-family="Helvetica,sans-Serif" font-size="10.00">LogDisConnection</text>
</a>
</g>
</g>
<!-- Node4&#45;&gt;Node17 -->
<g id="edge23" class="edge">
<title>Node4&#45;&gt;Node17</title>
<path fill="none" stroke="midnightblue" d="M1107.97,-446.15C1106.7,-403.3 1097.05,-302.28 1036,-256 995,-224.92 844.92,-229.68 767.26,-234.47"/>
<polygon fill="midnightblue" stroke="midnightblue" points="1104.47,-446.44 1108.14,-456.38 1111.47,-446.32 1104.47,-446.44"/>
</g>
<!-- Node18 -->
<g id="node18" class="node">
<title>Node18</title>
<g id="a_node18"><a xlink:href="TransmitterCode_2src_2main_8cpp.html#aac4334531357e4221222c7fc8c5cf817" target="_top" xlink:title=" ">
<polygon fill="white" stroke="black" points="953,-646.5 953,-665.5 1036,-665.5 1036,-646.5 953,-646.5"/>
<text text-anchor="middle" x="994.5" y="-653.5" font-family="Helvetica,sans-Serif" font-size="10.00">LogLowBattery</text>
</a>
</g>
</g>
<!-- Node4&#45;&gt;Node18 -->
<g id="edge25" class="edge">
<title>Node4&#45;&gt;Node18</title>
<path fill="none" stroke="midnightblue" d="M1103.7,-485.66C1095.53,-519.11 1075.01,-587.75 1036,-632 1030.81,-637.89 1023.82,-642.73 1017.11,-646.49"/>
<polygon fill="midnightblue" stroke="midnightblue" points="1107.14,-486.28 1106,-475.75 1100.33,-484.7 1107.14,-486.28"/>
</g>
<!-- Node19 -->
<g id="node19" class="node">
<title>Node19</title>
<g id="a_node19"><a xlink:href="TransmitterCode_2src_2main_8cpp.html#af7b3b351c80f0b43c13a4ccb440b2f2e" target="_top" xlink:title=" ">
<polygon fill="white" stroke="black" points="961,-380.5 961,-399.5 1028,-399.5 1028,-380.5 961,-380.5"/>
<text text-anchor="middle" x="994.5" y="-387.5" font-family="Helvetica,sans-Serif" font-size="10.00">LogMinGap</text>
</a>
</g>
</g>
<!-- Node4&#45;&gt;Node19 -->
<g id="edge26" class="edge">
<title>Node4&#45;&gt;Node19</title>
<path fill="none" stroke="midnightblue" d="M1087.39,-450.35C1073.18,-439.75 1053.73,-425.62 1036,-414 1028.48,-409.07 1019.95,-403.95 1012.66,-399.71"/>
<polygon fill="midnightblue" stroke="midnightblue" points="1085.4,-453.24 1095.5,-456.44 1089.6,-447.64 1085.4,-453.24"/>
</g>
<!-- Node20 -->
<g id="node20" class="node">
<title>Node20</title>
<g id="a_node20"><a xlink:href="TransmitterCode_2src_2main_8cpp.html#ac45afae9da9cc313054a4c41e1ce1757" target="_top" xlink:title=" ">
<polygon fill="white" stroke="black" points="831.5,-532.5 831.5,-551.5 889.5,-551.5 889.5,-532.5 831.5,-532.5"/>
<text text-anchor="middle" x="860.5" y="-539.5" font-family="Helvetica,sans-Serif" font-size="10.00">LogMotor</text>
</a>
</g>
</g>
<!-- Node4&#45;&gt;Node20 -->
<g id="edge28" class="edge">
<title>Node4&#45;&gt;Node20</title>
<path fill="none" stroke="midnightblue" d="M1081.3,-480.21C1067.97,-486.9 1051.42,-494.57 1036,-500 985.6,-517.76 924.41,-530.57 889.51,-537.1"/>
<polygon fill="midnightblue" stroke="midnightblue" points="1083.07,-483.24 1090.38,-475.57 1079.88,-477.01 1083.07,-483.24"/>
</g>
<!-- Node22 -->
<g id="node22" class="node">
<title>Node22</title>
<g id="a_node22"><a xlink:href="TransmitterCode_2src_2main_8cpp.html#a32be1544c90acbd0fb13568c35213510" target="_top" xlink:title=" ">
<polygon fill="white" stroke="black" points="822.5,-494.5 822.5,-513.5 898.5,-513.5 898.5,-494.5 822.5,-494.5"/>
<text text-anchor="middle" x="860.5" y="-501.5" font-family="Helvetica,sans-Serif" font-size="10.00">LogNewBank</text>
</a>
</g>
</g>
<!-- Node4&#45;&gt;Node22 -->
<g id="edge31" class="edge">
<title>Node4&#45;&gt;Node22</title>
<path fill="none" stroke="midnightblue" d="M1072.88,-473.23C1061.17,-475.54 1048.05,-478 1036,-480 988.79,-487.83 934.08,-495.06 898.69,-499.49"/>
<polygon fill="midnightblue" stroke="midnightblue" points="1073.62,-476.66 1082.74,-471.27 1072.25,-469.79 1073.62,-476.66"/>
</g>
<!-- Node23 -->
<g id="node23" class="node">
<title>Node23</title>
<g id="a_node23"><a xlink:href="TransmitterCode_2src_2main_8cpp.html#a31e9d94f45a152e1cbc436284799ca37" target="_top" xlink:title=" ">
<polygon fill="white" stroke="black" points="682,-266.5 682,-285.5 756,-285.5 756,-266.5 682,-266.5"/>
<text text-anchor="middle" x="719" y="-273.5" font-family="Helvetica,sans-Serif" font-size="10.00">LogPowerOff</text>
</a>
</g>
</g>
<!-- Node4&#45;&gt;Node23 -->
<g id="edge33" class="edge">
<title>Node4&#45;&gt;Node23</title>
<path fill="none" stroke="midnightblue" d="M1106.22,-446.05C1101.76,-409.16 1086.51,-330.76 1036,-295 951.23,-234.97 819.39,-253.22 756.19,-266.89"/>
<polygon fill="midnightblue" stroke="midnightblue" points="1102.75,-446.51 1107.29,-456.08 1109.71,-445.77 1102.75,-446.51"/>
</g>
<!-- Node25 -->
<g id="node25" class="node">
<title>Node25</title>
<g id="a_node25"><a xlink:href="TransmitterCode_2src_2main_8cpp.html#a7d93a2500f52d72210903c46a85ce820" target="_top" xlink:title=" ">
<polygon fill="white" stroke="black" points="957.5,-304.5 957.5,-323.5 1031.5,-323.5 1031.5,-304.5 957.5,-304.5"/>
<text text-anchor="middle" x="994.5" y="-311.5" font-family="Helvetica,sans-Serif" font-size="10.00">LogPowerOn</text>
</a>
</g>
</g>
<!-- Node4&#45;&gt;Node25 -->
<g id="edge37" class="edge">
<title>Node4&#45;&gt;Node25</title>
<path fill="none" stroke="midnightblue" d="M1101.96,-446.79C1092.21,-418.54 1070.54,-365.6 1036,-333 1032.05,-329.27 1027.23,-326.16 1022.31,-323.6"/>
<polygon fill="midnightblue" stroke="midnightblue" points="1098.65,-447.92 1105.12,-456.32 1105.3,-445.72 1098.65,-447.92"/>
</g>
<!-- Node27 -->
<g id="node27" class="node">
<title>Node27</title>
<g id="a_node27"><a xlink:href="TransmitterCode_2src_2main_8cpp.html#a0ed2fd04eebb4fd11b61b6fddd5d2590" target="_top" xlink:title=" ">
<polygon fill="white" stroke="black" points="964,-570.5 964,-589.5 1025,-589.5 1025,-570.5 964,-570.5"/>
<text text-anchor="middle" x="994.5" y="-577.5" font-family="Helvetica,sans-Serif" font-size="10.00">LogSafety</text>
</a>
</g>
</g>
<!-- Node4&#45;&gt;Node27 -->
<g id="edge39" class="edge">
<title>Node4&#45;&gt;Node27</title>
<path fill="none" stroke="midnightblue" d="M1096.42,-484.13C1083.39,-503.54 1060.79,-534.45 1036,-556 1029.71,-561.47 1022,-566.39 1015,-570.33"/>
<polygon fill="midnightblue" stroke="midnightblue" points="1099.45,-485.89 1102.01,-475.61 1093.59,-482.05 1099.45,-485.89"/>
</g>
<!-- Node30 -->
<g id="node30" class="node">
<title>Node30</title>
<g id="a_node30"><a xlink:href="TransmitterCode_2src_2main_8cpp.html#a1fadc7cdd854f8b3628b622da5417d8b" target="_top" xlink:title=" ">
<polygon fill="white" stroke="black" points="959.5,-684.5 959.5,-703.5 1029.5,-703.5 1029.5,-684.5 959.5,-684.5"/>
<text text-anchor="middle" x="994.5" y="-691.5" font-family="Helvetica,sans-Serif" font-size="10.00">LogThisGap</text>
</a>
</g>
</g>
<!-- Node4&#45;&gt;Node30 -->
<g id="edge44" class="edge">
<title>Node4&#45;&gt;Node30</title>
<path fill="none" stroke="midnightblue" d="M1106.28,-485.78C1101.79,-526.16 1086.3,-619.02 1036,-675 1032.57,-678.81 1028.22,-681.92 1023.65,-684.44"/>
<polygon fill="midnightblue" stroke="midnightblue" points="1109.78,-485.94 1107.29,-475.64 1102.82,-485.24 1109.78,-485.94"/>
</g>
<!-- Node32 -->
<g id="node32" class="node">
<title>Node32</title>
<g id="a_node32"><a xlink:href="TransmitterCode_2src_2main_8cpp.html#afd409fe008843b50c3e2ff697558d4d5" target="_top" xlink:title=" ">
<polygon fill="white" stroke="black" points="388.5,-551.5 388.5,-570.5 480.5,-570.5 480.5,-551.5 388.5,-551.5"/>
<text text-anchor="middle" x="434.5" y="-558.5" font-family="Helvetica,sans-Serif" font-size="10.00">LogThisLongGap</text>
</a>
</g>
</g>
<!-- Node4&#45;&gt;Node32 -->
<g id="edge47" class="edge">
<title>Node4&#45;&gt;Node32</title>
<path fill="none" stroke="midnightblue" d="M1102.62,-485.38C1093.61,-514.29 1072.75,-568.55 1036,-599 993.25,-634.42 971.86,-628.45 917,-637 742.44,-664.19 532.4,-596.5 460.81,-570.59"/>
<polygon fill="midnightblue" stroke="midnightblue" points="1106.02,-486.23 1105.5,-475.64 1099.31,-484.24 1106.02,-486.23"/>
</g>
<!-- Node33 -->
<g id="node33" class="node">
<title>Node33</title>
<g id="a_node33"><a xlink:href="TransmitterCode_2src_2main_8cpp.html#a83944fc0ecaab86d0bbb0802e99e5084" target="_top" xlink:title=" ">
<polygon fill="white" stroke="black" points="955.5,-342.5 955.5,-361.5 1033.5,-361.5 1033.5,-342.5 955.5,-342.5"/>
<text text-anchor="middle" x="994.5" y="-349.5" font-family="Helvetica,sans-Serif" font-size="10.00">LogThisModel</text>
</a>
</g>
</g>
<!-- Node4&#45;&gt;Node33 -->
<g id="edge49" class="edge">
<title>Node4&#45;&gt;Node33</title>
<path fill="none" stroke="midnightblue" d="M1097.79,-447.6C1085.45,-426.74 1062.94,-392.81 1036,-371 1031.53,-367.38 1026.26,-364.27 1021.03,-361.67"/>
<polygon fill="midnightblue" stroke="midnightblue" points="1094.85,-449.5 1102.87,-456.43 1100.92,-446.01 1094.85,-449.5"/>
</g>
<!-- Node35 -->
<g id="node35" class="node">
<title>Node35</title>
<g id="a_node35"><a xlink:href="TransmitterCode_2src_2main_8cpp.html#a900aa27c1353238593c276186d960912" target="_top" xlink:title=" ">
<polygon fill="white" stroke="black" points="962,-722.5 962,-741.5 1027,-741.5 1027,-722.5 962,-722.5"/>
<text text-anchor="middle" x="994.5" y="-729.5" font-family="Helvetica,sans-Serif" font-size="10.00">LogThisRX</text>
</a>
</g>
</g>
<!-- Node4&#45;&gt;Node35 -->
<g id="edge53" class="edge">
<title>Node4&#45;&gt;Node35</title>
<path fill="none" stroke="midnightblue" d="M1107.54,-485.88C1105.47,-531.46 1094.37,-644.8 1036,-713 1032.77,-716.78 1028.62,-719.85 1024.22,-722.34"/>
<polygon fill="midnightblue" stroke="midnightblue" points="1111.04,-485.94 1107.9,-475.82 1104.05,-485.69 1111.04,-485.94"/>
</g>
<!-- Node38 -->
<g id="node38" class="node">
<title>Node38</title>
<g id="a_node38"><a xlink:href="TransmitterCode_2src_2main_8cpp.html#afe8648b7a9a00742332cb5967fc1ad14" target="_top" xlink:title=" ">
<polygon fill="white" stroke="black" points="541.5,-456.5 541.5,-475.5 613.5,-475.5 613.5,-456.5 541.5,-456.5"/>
<text text-anchor="middle" x="577.5" y="-463.5" font-family="Helvetica,sans-Serif" font-size="10.00">LogUKRules</text>
</a>
</g>
</g>
<!-- Node4&#45;&gt;Node38 -->
<g id="edge57" class="edge">
<title>Node4&#45;&gt;Node38</title>
<path fill="none" stroke="midnightblue" d="M1072.73,-466C976.5,-466 710.18,-466 613.85,-466"/>
<polygon fill="midnightblue" stroke="midnightblue" points="1072.82,-469.5 1082.82,-466 1072.82,-462.5 1072.82,-469.5"/>
</g>
<!-- Node6 -->
<g id="node6" class="node">
<title>Node6</title>
<g id="a_node6"><a xlink:href="TransmitterCode_2src_2main_8cpp.html#a62e53eb9359c32b666e3386d62c57037" target="_top" xlink:title=" ">
<polygon fill="white" stroke="black" points="683,-418.5 683,-437.5 755,-437.5 755,-418.5 683,-418.5"/>
<text text-anchor="middle" x="719" y="-425.5" font-family="Helvetica,sans-Serif" font-size="10.00">GreenLedOn</text>
</a>
</g>
</g>
<!-- Node5&#45;&gt;Node6 -->
<g id="edge5" class="edge">
<title>Node5&#45;&gt;Node6</title>
<path fill="none" stroke="midnightblue" d="M809.13,-428C791.2,-428 771.42,-428 755.05,-428"/>
<polygon fill="midnightblue" stroke="midnightblue" points="809.15,-431.5 819.15,-428 809.15,-424.5 809.15,-431.5"/>
</g>
<!-- Node7 -->
<g id="node7" class="node">
<title>Node7</title>
<g id="a_node7"><a xlink:href="TransmitterCode_2src_2main_8cpp.html#a5d3a46c21927cf7a3031a1e68e0b7b48" target="_top" xlink:title="SHOW COMMS.">
<polygon fill="white" stroke="black" points="540,-418.5 540,-437.5 615,-437.5 615,-418.5 540,-418.5"/>
<text text-anchor="middle" x="577.5" y="-425.5" font-family="Helvetica,sans-Serif" font-size="10.00">ShowComms</text>
</a>
</g>
</g>
<!-- Node6&#45;&gt;Node7 -->
<g id="edge6" class="edge">
<title>Node6&#45;&gt;Node7</title>
<path fill="none" stroke="midnightblue" d="M672.76,-421.63C654.11,-421.03 632.79,-421.14 615.15,-421.98"/>
<polygon fill="midnightblue" stroke="midnightblue" points="672.66,-425.13 682.8,-422.05 672.95,-418.14 672.66,-425.13"/>
</g>
<!-- Node16 -->
<g id="node16" class="node">
<title>Node16</title>
<g id="a_node16"><a xlink:href="RadioFunctions_8cpp.html#a1c11bb6771548de7d96723045b922620" target="_top" xlink:title=" ">
<polygon fill="white" stroke="black" points="529.5,-684.5 529.5,-703.5 625.5,-703.5 625.5,-684.5 529.5,-684.5"/>
<text text-anchor="middle" x="577.5" y="-691.5" font-family="Helvetica,sans-Serif" font-size="10.00">SuccessfulPacket</text>
</a>
</g>
</g>
<!-- Node6&#45;&gt;Node16 -->
<g id="edge21" class="edge">
<title>Node6&#45;&gt;Node16</title>
<path fill="none" stroke="midnightblue" d="M708.21,-446.66C680.8,-498.93 603.94,-645.49 583.53,-684.41"/>
<polygon fill="midnightblue" stroke="midnightblue" points="711.32,-448.26 712.87,-437.78 705.13,-445.01 711.32,-448.26"/>
</g>
<!-- Node7&#45;&gt;Node6 -->
<g id="edge7" class="edge">
<title>Node7&#45;&gt;Node6</title>
<path fill="none" stroke="midnightblue" d="M625.29,-434.41C644.08,-434.98 665.36,-434.83 682.8,-433.95"/>
<polygon fill="midnightblue" stroke="midnightblue" points="625.28,-430.91 615.15,-434.02 625.01,-437.91 625.28,-430.91"/>
</g>
<!-- Node8 -->
<g id="node8" class="node">
<title>Node8</title>
<g id="a_node8"><a xlink:href="TransmitterCode_2src_2main_8cpp.html#a558ea014e230b7caa54ce5a37ad29b22" target="_top" xlink:title=" ">
<polygon fill="white" stroke="black" points="384,-418.5 384,-437.5 485,-437.5 485,-418.5 384,-418.5"/>
<text text-anchor="middle" x="434.5" y="-425.5" font-family="Helvetica,sans-Serif" font-size="10.00">ManageTransmitter</text>
</a>
</g>
</g>
<!-- Node7&#45;&gt;Node8 -->
<g id="edge8" class="edge">
<title>Node7&#45;&gt;Node8</title>
<path fill="none" stroke="midnightblue" d="M529.73,-428C515.46,-428 499.72,-428 485.26,-428"/>
<polygon fill="midnightblue" stroke="midnightblue" points="529.82,-431.5 539.82,-428 529.82,-424.5 529.82,-431.5"/>
</g>
<!-- Node10 -->
<g id="node10" class="node">
<title>Node10</title>
<g id="a_node10"><a xlink:href="TransmitterCode_2src_2main_8cpp.html#a7d34cec6e8edc20c8b50424e15dcc7c7" target="_top" xlink:title=" ">
<polygon fill="white" stroke="black" points="403,-323.5 403,-342.5 466,-342.5 466,-323.5 403,-323.5"/>
<text text-anchor="middle" x="434.5" y="-330.5" font-family="Helvetica,sans-Serif" font-size="10.00">RedLedOn</text>
</a>
</g>
</g>
<!-- Node7&#45;&gt;Node10 -->
<g id="edge10" class="edge">
<title>Node7&#45;&gt;Node10</title>
<path fill="none" stroke="midnightblue" d="M532.46,-414.77C528.49,-413.03 524.61,-411.11 521,-409 488.92,-390.28 458.09,-358.36 443.79,-342.51"/>
<polygon fill="midnightblue" stroke="midnightblue" points="531.22,-418.04 541.81,-418.5 533.82,-411.54 531.22,-418.04"/>
</g>
<!-- Node9 -->
<g id="node9" class="node">
<title>Node9</title>
<g id="a_node9"><a xlink:href="TransmitterCode_2src_2main_8cpp.html#ad3cb30894c94eb016e98bdcaa899ac86" target="_top" xlink:title=" ">
<polygon fill="white" stroke="black" points="29.5,-418.5 29.5,-437.5 64.5,-437.5 64.5,-418.5 29.5,-418.5"/>
<text text-anchor="middle" x="47" y="-425.5" font-family="Helvetica,sans-Serif" font-size="10.00">loop</text>
</a>
</g>
</g>
<!-- Node8&#45;&gt;Node9 -->
<g id="edge9" class="edge">
<title>Node8&#45;&gt;Node9</title>
<path fill="none" stroke="midnightblue" d="M373.82,-428C283.69,-428 117.75,-428 64.74,-428"/>
<polygon fill="midnightblue" stroke="midnightblue" points="373.89,-431.5 383.89,-428 373.89,-424.5 373.89,-431.5"/>
</g>
<!-- Node11 -->
<g id="node11" class="node">
<title>Node11</title>
<g id="a_node11"><a xlink:href="TransmitterCode_2src_2main_8cpp.html#a804fdbdd5eab4c596bbe8a23eecbe4d5" target="_top" xlink:title=" ">
<polygon fill="white" stroke="black" points="130,-285.5 130,-304.5 231,-304.5 231,-285.5 130,-285.5"/>
<text text-anchor="middle" x="180.5" y="-292.5" font-family="Helvetica,sans-Serif" font-size="10.00">ButtonWasPressed</text>
</a>
</g>
</g>
<!-- Node10&#45;&gt;Node11 -->
<g id="edge11" class="edge">
<title>Node10&#45;&gt;Node11</title>
<path fill="none" stroke="midnightblue" d="M392.69,-337.68C358.68,-340.47 309.15,-341.95 267,-333 241.42,-327.57 214.2,-313.94 197.52,-304.57"/>
<polygon fill="midnightblue" stroke="midnightblue" points="393.07,-341.16 402.72,-336.78 392.45,-334.19 393.07,-341.16"/>
</g>
<!-- Node12 -->
<g id="node12" class="node">
<title>Node12</title>
<g id="a_node12"><a xlink:href="TransmitterCode_2src_2main_8cpp.html#ab7c9edf843c732d7fe296564f39bc0dc" target="_top" xlink:title="RECEIVE A MODEL FILE.">
<polygon fill="white" stroke="black" points="0,-285.5 0,-304.5 94,-304.5 94,-285.5 0,-285.5"/>
<text text-anchor="middle" x="47" y="-292.5" font-family="Helvetica,sans-Serif" font-size="10.00">ReceiveModelFile</text>
</a>
</g>
</g>
<!-- Node10&#45;&gt;Node12 -->
<g id="edge18" class="edge">
<title>Node10&#45;&gt;Node12</title>
<path fill="none" stroke="midnightblue" d="M406.61,-318.9C390.11,-310.8 368.3,-301.05 348,-295 254.79,-267.23 226.63,-264.95 130,-276 113.74,-277.86 96.01,-281.73 81.21,-285.49"/>
<polygon fill="midnightblue" stroke="midnightblue" points="405.16,-322.09 415.67,-323.45 408.3,-315.83 405.16,-322.09"/>
</g>
<!-- Node13 -->
<g id="node13" class="node">
<title>Node13</title>
<g id="a_node13"><a xlink:href="RadioFunctions_8cpp.html#a5fbd3c8613a4163425c94965704ce5f8" target="_top" xlink:title=" ">
<polygon fill="white" stroke="black" points="270.5,-504.5 270.5,-523.5 344.5,-523.5 344.5,-504.5 270.5,-504.5"/>
<text text-anchor="middle" x="307.5" y="-511.5" font-family="Helvetica,sans-Serif" font-size="10.00">FailedPacket</text>
</a>
</g>
</g>
<!-- Node10&#45;&gt;Node13 -->
<g id="edge15" class="edge">
<title>Node10&#45;&gt;Node13</title>
<path fill="none" stroke="midnightblue" d="M420.89,-351.26C394.72,-389.15 335.31,-475.19 315.25,-504.22"/>
<polygon fill="midnightblue" stroke="midnightblue" points="423.98,-352.95 426.78,-342.73 418.22,-348.97 423.98,-352.95"/>
</g>
<!-- Node15 -->
<g id="node15" class="node">
<title>Node15</title>
<g id="a_node15"><a xlink:href="TransmitterCode_2src_2main_8cpp.html#a58c67a975068930341f0663e0a08c9d3" target="_top" xlink:title="SEND A MODEL FILE.">
<polygon fill="white" stroke="black" points="267,-304.5 267,-323.5 348,-323.5 348,-304.5 267,-304.5"/>
<text text-anchor="middle" x="307.5" y="-311.5" font-family="Helvetica,sans-Serif" font-size="10.00">SendModelFile</text>
</a>
</g>
</g>
<!-- Node10&#45;&gt;Node15 -->
<g id="edge19" class="edge">
<title>Node10&#45;&gt;Node15</title>
<path fill="none" stroke="midnightblue" d="M392.85,-326.82C378.53,-324.64 362.46,-322.2 348.21,-320.04"/>
<polygon fill="midnightblue" stroke="midnightblue" points="392.51,-330.31 402.92,-328.35 393.56,-323.39 392.51,-330.31"/>
</g>
<!-- Node11&#45;&gt;Node9 -->
<g id="edge12" class="edge">
<title>Node11&#45;&gt;Node9</title>
<path fill="none" stroke="midnightblue" d="M162.99,-311.7C135.23,-339.77 80.06,-395.57 57.73,-418.16"/>
<polygon fill="midnightblue" stroke="midnightblue" points="165.5,-314.14 170.04,-304.57 160.52,-309.22 165.5,-314.14"/>
</g>
<!-- Node11&#45;&gt;Node12 -->
<g id="edge13" class="edge">
<title>Node11&#45;&gt;Node12</title>
<path fill="none" stroke="midnightblue" d="M119.55,-288.27C111.08,-288.2 102.48,-288.29 94.32,-288.52"/>
<polygon fill="midnightblue" stroke="midnightblue" points="119.73,-291.78 129.79,-288.43 119.84,-284.78 119.73,-291.78"/>
</g>
<!-- Node12&#45;&gt;Node11 -->
<g id="edge14" class="edge">
<title>Node12&#45;&gt;Node11</title>
<path fill="none" stroke="midnightblue" d="M104.45,-301.69C112.88,-301.8 121.51,-301.76 129.79,-301.57"/>
<polygon fill="midnightblue" stroke="midnightblue" points="104.39,-298.19 94.32,-301.48 104.24,-305.19 104.39,-298.19"/>
</g>
<!-- Node14 -->
<g id="node14" class="node">
<title>Node14</title>
<g id="a_node14"><a xlink:href="RadioFunctions_8cpp.html#a049bfb836e7aa4a3a48a1a4bd225fafc" target="_top" xlink:title=" ">
<polygon fill="white" stroke="black" points="151,-504.5 151,-523.5 210,-523.5 210,-504.5 151,-504.5"/>
<text text-anchor="middle" x="180.5" y="-511.5" font-family="Helvetica,sans-Serif" font-size="10.00">SendData</text>
</a>
</g>
</g>
<!-- Node13&#45;&gt;Node14 -->
<g id="edge16" class="edge">
<title>Node13&#45;&gt;Node14</title>
<path fill="none" stroke="midnightblue" d="M260.14,-514C243.34,-514 224.86,-514 210.04,-514"/>
<polygon fill="midnightblue" stroke="midnightblue" points="260.34,-517.5 270.34,-514 260.34,-510.5 260.34,-517.5"/>
</g>
<!-- Node14&#45;&gt;Node9 -->
<g id="edge17" class="edge">
<title>Node14&#45;&gt;Node9</title>
<path fill="none" stroke="midnightblue" d="M156.46,-498.93C129.42,-481.25 85.39,-452.45 62.64,-437.57"/>
<polygon fill="midnightblue" stroke="midnightblue" points="154.64,-501.92 164.92,-504.47 158.47,-496.07 154.64,-501.92"/>
</g>
<!-- Node15&#45;&gt;Node11 -->
<g id="edge20" class="edge">
<title>Node15&#45;&gt;Node11</title>
<path fill="none" stroke="midnightblue" d="M256.9,-306.46C248.5,-305.18 239.76,-303.86 231.35,-302.58"/>
<polygon fill="midnightblue" stroke="midnightblue" points="256.54,-309.95 266.95,-307.99 257.59,-303.03 256.54,-309.95"/>
</g>
<!-- Node16&#45;&gt;Node14 -->
<g id="edge22" class="edge">
<title>Node16&#45;&gt;Node14</title>
<path fill="none" stroke="midnightblue" d="M544.85,-680.46C537.04,-677.08 528.7,-673.43 521,-670 399.55,-615.85 254.91,-548.39 202.09,-523.66"/>
<polygon fill="midnightblue" stroke="midnightblue" points="543.47,-683.68 554.04,-684.42 546.24,-677.25 543.47,-683.68"/>
</g>
<!-- Node17&#45;&gt;Node10 -->
<g id="edge24" class="edge">
<title>Node17&#45;&gt;Node10</title>
<path fill="none" stroke="midnightblue" d="M679.83,-250.84C622.37,-270.16 514.93,-306.29 463.86,-323.46"/>
<polygon fill="midnightblue" stroke="midnightblue" points="681.26,-254.05 689.62,-247.54 679.03,-247.41 681.26,-254.05"/>
</g>
<!-- Node19&#45;&gt;Node5 -->
<g id="edge27" class="edge">
<title>Node19&#45;&gt;Node5</title>
<path fill="none" stroke="midnightblue" d="M951.05,-402.22C932.79,-407.48 911.76,-413.53 894.67,-418.45"/>
<polygon fill="midnightblue" stroke="midnightblue" points="952.23,-405.52 960.87,-399.39 950.29,-398.8 952.23,-405.52"/>
</g>
<!-- Node21 -->
<g id="node21" class="node">
<title>Node21</title>
<g id="a_node21"><a xlink:href="TransmitterCode_2src_2main_8cpp.html#aa98d7fb495cbdc40cb17343ffafbfe15" target="_top" xlink:title=" ">
<polygon fill="white" stroke="black" points="691.5,-532.5 691.5,-551.5 746.5,-551.5 746.5,-532.5 691.5,-532.5"/>
<text text-anchor="middle" x="719" y="-539.5" font-family="Helvetica,sans-Serif" font-size="10.00">GetBank</text>
</a>
</g>
</g>
<!-- Node20&#45;&gt;Node21 -->
<g id="edge29" class="edge">
<title>Node20&#45;&gt;Node21</title>
<path fill="none" stroke="midnightblue" d="M821.23,-542C797.6,-542 767.88,-542 746.77,-542"/>
<polygon fill="midnightblue" stroke="midnightblue" points="821.27,-545.5 831.27,-542 821.27,-538.5 821.27,-545.5"/>
</g>
<!-- Node21&#45;&gt;Node8 -->
<g id="edge30" class="edge">
<title>Node21&#45;&gt;Node8</title>
<path fill="none" stroke="midnightblue" d="M681.31,-534.91C640.82,-526.3 574.32,-509.77 521,-485 492.69,-471.85 463.13,-450.04 447.26,-437.56"/>
<polygon fill="midnightblue" stroke="midnightblue" points="680.76,-538.38 691.27,-536.98 682.19,-531.52 680.76,-538.38"/>
</g>
<!-- Node22&#45;&gt;Node21 -->
<g id="edge32" class="edge">
<title>Node22&#45;&gt;Node21</title>
<path fill="none" stroke="midnightblue" d="M814.37,-516.29C792.07,-522.37 765.93,-529.49 746.82,-534.69"/>
<polygon fill="midnightblue" stroke="midnightblue" points="815.57,-519.59 824.3,-513.59 813.73,-512.84 815.57,-519.59"/>
</g>
<!-- Node23&#45;&gt;Node11 -->
<g id="edge34" class="edge">
<title>Node23&#45;&gt;Node11</title>
<path fill="none" stroke="midnightblue" d="M671.85,-277.63C571.65,-281.18 334.88,-289.57 231.38,-293.23"/>
<polygon fill="midnightblue" stroke="midnightblue" points="672.1,-281.13 681.97,-277.28 671.85,-274.13 672.1,-281.13"/>
</g>
<!-- Node24 -->
<g id="node24" class="node">
<title>Node24</title>
<g id="a_node24"><a xlink:href="TransmitterCode_2src_2main_8cpp.html#a6ae37c6938b8c10b83d1bc74e8643bd9" target="_top" xlink:title=" ">
<polygon fill="white" stroke="black" points="521,-342.5 521,-361.5 634,-361.5 634,-342.5 521,-342.5"/>
<text text-anchor="middle" x="577.5" y="-349.5" font-family="Helvetica,sans-Serif" font-size="10.00">CheckPowerOffButton</text>
</a>
</g>
</g>
<!-- Node23&#45;&gt;Node24 -->
<g id="edge35" class="edge">
<title>Node23&#45;&gt;Node24</title>
<path fill="none" stroke="midnightblue" d="M695.32,-291.3C678.71,-302.19 655.42,-316.81 634,-328 623.95,-333.25 612.5,-338.34 602.62,-342.47"/>
<polygon fill="midnightblue" stroke="midnightblue" points="697.4,-294.12 703.81,-285.68 693.54,-288.28 697.4,-294.12"/>
</g>
<!-- Node24&#45;&gt;Node8 -->
<g id="edge36" class="edge">
<title>Node24&#45;&gt;Node8</title>
<path fill="none" stroke="midnightblue" d="M534.48,-365.08C529.86,-366.91 525.28,-368.88 521,-371 493.17,-384.75 463.67,-406.14 447.63,-418.43"/>
<polygon fill="midnightblue" stroke="midnightblue" points="535.78,-368.34 543.94,-361.58 533.35,-361.77 535.78,-368.34"/>
</g>
<!-- Node26 -->
<g id="node26" class="node">
<title>Node26</title>
<g id="a_node26"><a xlink:href="TransmitterCode_2src_2main_8cpp.html#a17699f358cf9f7c3155a9c5daf8ff13c" target="_top" xlink:title=" ">
<polygon fill="white" stroke="black" points="840,-314.5 840,-333.5 881,-333.5 881,-314.5 840,-314.5"/>
<text text-anchor="middle" x="860.5" y="-321.5" font-family="Helvetica,sans-Serif" font-size="10.00">setup</text>
</a>
</g>
</g>
<!-- Node25&#45;&gt;Node26 -->
<g id="edge38" class="edge">
<title>Node25&#45;&gt;Node26</title>
<path fill="none" stroke="midnightblue" d="M947.31,-317.5C924.66,-319.22 898.58,-321.19 881.17,-322.51"/>
<polygon fill="midnightblue" stroke="midnightblue" points="947.72,-320.98 957.43,-316.73 947.19,-314 947.72,-320.98"/>
</g>
<!-- Node28 -->
<g id="node28" class="node">
<title>Node28</title>
<g id="a_node28"><a xlink:href="TransmitterCode_2src_2main_8cpp.html#ac015e93acba51fe284176b84c05e3450" target="_top" xlink:title=" ">
<polygon fill="white" stroke="black" points="815.5,-608.5 815.5,-627.5 905.5,-627.5 905.5,-608.5 815.5,-608.5"/>
<text text-anchor="middle" x="860.5" y="-615.5" font-family="Helvetica,sans-Serif" font-size="10.00">ShowSafetyIsOff</text>
</a>
</g>
</g>
<!-- Node27&#45;&gt;Node28 -->
<g id="edge40" class="edge">
<title>Node27&#45;&gt;Node28</title>
<path fill="none" stroke="midnightblue" d="M954.07,-591.35C935.16,-596.79 912.77,-603.24 894.74,-608.43"/>
<polygon fill="midnightblue" stroke="midnightblue" points="955.24,-594.66 963.88,-588.53 953.3,-587.93 955.24,-594.66"/>
</g>
<!-- Node29 -->
<g id="node29" class="node">
<title>Node29</title>
<g id="a_node29"><a xlink:href="TransmitterCode_2src_2main_8cpp.html#a624dab5b77d191ddae33fbe2ac2da4ae" target="_top" xlink:title=" ">
<polygon fill="white" stroke="black" points="815.5,-570.5 815.5,-589.5 905.5,-589.5 905.5,-570.5 815.5,-570.5"/>
<text text-anchor="middle" x="860.5" y="-577.5" font-family="Helvetica,sans-Serif" font-size="10.00">ShowSafetyIsOn</text>
</a>
</g>
</g>
<!-- Node27&#45;&gt;Node29 -->
<g id="edge42" class="edge">
<title>Node27&#45;&gt;Node29</title>
<path fill="none" stroke="midnightblue" d="M953.76,-580C938.56,-580 921.14,-580 905.56,-580"/>
<polygon fill="midnightblue" stroke="midnightblue" points="953.88,-583.5 963.88,-580 953.88,-576.5 953.88,-583.5"/>
</g>
<!-- Node28&#45;&gt;Node21 -->
<g id="edge41" class="edge">
<title>Node28&#45;&gt;Node21</title>
<path fill="none" stroke="midnightblue" d="M817.46,-604.95C812.85,-603.12 808.27,-601.13 804,-599 776.56,-585.3 747.62,-563.89 731.89,-551.58"/>
<polygon fill="midnightblue" stroke="midnightblue" points="816.32,-608.26 826.92,-608.47 818.76,-601.7 816.32,-608.26"/>
</g>
<!-- Node29&#45;&gt;Node21 -->
<g id="edge43" class="edge">
<title>Node29&#45;&gt;Node21</title>
<path fill="none" stroke="midnightblue" d="M814.37,-567.71C792.07,-561.63 765.93,-554.51 746.82,-549.31"/>
<polygon fill="midnightblue" stroke="midnightblue" points="813.73,-571.16 824.3,-570.41 815.57,-564.41 813.73,-571.16"/>
</g>
<!-- Node31 -->
<g id="node31" class="node">
<title>Node31</title>
<g id="a_node31"><a xlink:href="TransmitterCode_2src_2main_8cpp.html#a953f1d5046e183549ed95b08f6d675e3" target="_top" xlink:title=" ">
<polygon fill="white" stroke="black" points="670,-684.5 670,-703.5 768,-703.5 768,-684.5 670,-684.5"/>
<text text-anchor="middle" x="719" y="-691.5" font-family="Helvetica,sans-Serif" font-size="10.00">CheckGapsLength</text>
</a>
</g>
</g>
<!-- Node30&#45;&gt;Node31 -->
<g id="edge45" class="edge">
<title>Node30&#45;&gt;Node31</title>
<path fill="none" stroke="midnightblue" d="M949.32,-694C899.75,-694 819.59,-694 768.36,-694"/>
<polygon fill="midnightblue" stroke="midnightblue" points="949.41,-697.5 959.41,-694 949.41,-690.5 949.41,-697.5"/>
</g>
<!-- Node31&#45;&gt;Node16 -->
<g id="edge46" class="edge">
<title>Node31&#45;&gt;Node16</title>
<path fill="none" stroke="midnightblue" d="M659.72,-694C648.36,-694 636.59,-694 625.65,-694"/>
<polygon fill="midnightblue" stroke="midnightblue" points="659.99,-697.5 669.99,-694 659.99,-690.5 659.99,-697.5"/>
</g>
<!-- Node32&#45;&gt;Node13 -->
<g id="edge48" class="edge">
<title>Node32&#45;&gt;Node13</title>
<path fill="none" stroke="midnightblue" d="M398.62,-547.88C378.17,-540.2 352.8,-530.66 334.19,-523.66"/>
<polygon fill="midnightblue" stroke="midnightblue" points="397.61,-551.25 408.2,-551.49 400.08,-544.69 397.61,-551.25"/>
</g>
<!-- Node33&#45;&gt;Node26 -->
<g id="edge52" class="edge">
<title>Node33&#45;&gt;Node26</title>
<path fill="none" stroke="midnightblue" d="M945.39,-341.79C923.24,-337.1 898.19,-331.78 881.27,-328.19"/>
<polygon fill="midnightblue" stroke="midnightblue" points="944.81,-345.25 955.32,-343.9 946.26,-338.4 944.81,-345.25"/>
</g>
<!-- Node34 -->
<g id="node34" class="node">
<title>Node34</title>
<g id="a_node34"><a xlink:href="TransmitterCode_2src_2main_8cpp.html#a984cb52354a84c45e9e41f396a1c5e92" target="_top" xlink:title=" ">
<polygon fill="white" stroke="black" points="529,-380.5 529,-399.5 626,-399.5 626,-380.5 529,-380.5"/>
<text text-anchor="middle" x="577.5" y="-387.5" font-family="Helvetica,sans-Serif" font-size="10.00">CheckModelName</text>
</a>
</g>
</g>
<!-- Node33&#45;&gt;Node34 -->
<g id="edge50" class="edge">
<title>Node33&#45;&gt;Node34</title>
<path fill="none" stroke="midnightblue" d="M944.89,-356.45C864.71,-363.79 705.71,-378.35 626.16,-385.64"/>
<polygon fill="midnightblue" stroke="midnightblue" points="945.56,-359.9 955.2,-355.51 944.92,-352.93 945.56,-359.9"/>
</g>
<!-- Node34&#45;&gt;Node8 -->
<g id="edge51" class="edge">
<title>Node34&#45;&gt;Node8</title>
<path fill="none" stroke="midnightblue" d="M531.06,-402.25C511.63,-407.48 489.27,-413.51 471.07,-418.41"/>
<polygon fill="midnightblue" stroke="midnightblue" points="532.18,-405.57 540.92,-399.59 530.35,-398.81 532.18,-405.57"/>
</g>
<!-- Node36 -->
<g id="node36" class="node">
<title>Node36</title>
<g id="a_node36"><a xlink:href="TransmitterCode_2src_2main_8cpp.html#a4f813935d8fe58355228cbbf25e12f96" target="_top" xlink:title=" ">
<polygon fill="white" stroke="black" points="804,-722.5 804,-741.5 917,-741.5 917,-722.5 804,-722.5"/>
<text text-anchor="middle" x="860.5" y="-729.5" font-family="Helvetica,sans-Serif" font-size="10.00">GetRXVersionNumber</text>
</a>
</g>
</g>
<!-- Node35&#45;&gt;Node36 -->
<g id="edge54" class="edge">
<title>Node35&#45;&gt;Node36</title>
<path fill="none" stroke="midnightblue" d="M951.71,-732C940.73,-732 928.7,-732 917.11,-732"/>
<polygon fill="midnightblue" stroke="midnightblue" points="951.88,-735.5 961.88,-732 951.88,-728.5 951.88,-735.5"/>
</g>
<!-- Node37 -->
<g id="node37" class="node">
<title>Node37</title>
<g id="a_node37"><a xlink:href="TransmitterCode_2src_2main_8cpp.html#a694f4f5a0147f4dc29b0bc1a8951547d" target="_top" xlink:title=" ">
<polygon fill="white" stroke="black" points="672,-722.5 672,-741.5 766,-741.5 766,-722.5 672,-722.5"/>
<text text-anchor="middle" x="719" y="-729.5" font-family="Helvetica,sans-Serif" font-size="10.00">ParseAckPayload</text>
</a>
</g>
</g>
<!-- Node36&#45;&gt;Node37 -->
<g id="edge55" class="edge">
<title>Node36&#45;&gt;Node37</title>
<path fill="none" stroke="midnightblue" d="M793.93,-732C784.62,-732 775.21,-732 766.37,-732"/>
<polygon fill="midnightblue" stroke="midnightblue" points="793.97,-735.5 803.97,-732 793.97,-728.5 793.97,-735.5"/>
</g>
<!-- Node37&#45;&gt;Node16 -->
<g id="edge56" class="edge">
<title>Node37&#45;&gt;Node16</title>
<path fill="none" stroke="midnightblue" d="M673.04,-719.75C653.82,-714.52 631.7,-708.49 613.69,-703.59"/>
<polygon fill="midnightblue" stroke="midnightblue" points="672.23,-723.16 682.8,-722.41 674.07,-716.41 672.23,-723.16"/>
</g>
<!-- Node38&#45;&gt;Node8 -->
<g id="edge58" class="edge">
<title>Node38&#45;&gt;Node8</title>
<path fill="none" stroke="midnightblue" d="M531.61,-453.9C511.94,-448.6 489.18,-442.47 470.76,-437.5"/>
<polygon fill="midnightblue" stroke="midnightblue" points="530.72,-457.29 541.28,-456.51 532.54,-450.53 530.72,-457.29"/>
</g>
<!-- Node39&#45;&gt;Node2 -->
<g id="edge61" class="edge">
<title>Node39&#45;&gt;Node2</title>
<path fill="none" stroke="midnightblue" d="M1089.46,-140.64C1075.42,-152.75 1055.31,-169.05 1036,-181 1030.45,-184.43 1024.18,-187.66 1018.27,-190.44"/>
<polygon fill="midnightblue" stroke="midnightblue" points="1092.15,-142.95 1097.36,-133.72 1087.54,-137.68 1092.15,-142.95"/>
</g>
<!-- Node39&#45;&gt;Node11 -->
<g id="edge60" class="edge">
<title>Node39&#45;&gt;Node11</title>
<path fill="none" stroke="midnightblue" d="M1092.24,-107.12C1078.71,-93.79 1057.95,-76 1036,-67 963.82,-37.41 939.51,-48 861.5,-48 861.5,-48 861.5,-48 433.5,-48 295.36,-48 205.05,-239.65 185.5,-285.32"/>
<polygon fill="midnightblue" stroke="midnightblue" points="1089.83,-109.66 1099.33,-114.35 1094.83,-104.76 1089.83,-109.66"/>
</g>
<!-- Node40 -->
<g id="node40" class="node">
<title>Node40</title>
<g id="a_node40"><a xlink:href="TransmitterCode_2src_2main_8cpp.html#a01be76cc3bf8a963f987ae47916dc8d3" target="_top" xlink:title=" ">
<polygon fill="white" stroke="black" points="965.5,-76.5 965.5,-95.5 1023.5,-95.5 1023.5,-76.5 965.5,-76.5"/>
<text text-anchor="middle" x="994.5" y="-83.5" font-family="Helvetica,sans-Serif" font-size="10.00">DownLog</text>
</a>
</g>
</g>
<!-- Node39&#45;&gt;Node40 -->
<g id="edge62" class="edge">
<title>Node39&#45;&gt;Node40</title>
<path fill="none" stroke="midnightblue" d="M1070.03,-111.17C1054.93,-106.08 1037.87,-100.31 1023.88,-95.59"/>
<polygon fill="midnightblue" stroke="midnightblue" points="1069.02,-114.53 1079.61,-114.41 1071.26,-107.89 1069.02,-114.53"/>
</g>
<!-- Node41 -->
<g id="node41" class="node">
<title>Node41</title>
<g id="a_node41"><a xlink:href="TransmitterCode_2src_2main_8cpp.html#a6e27b8b3c5b752c6a208a768de54c277" target="_top" xlink:title=" ">
<polygon fill="white" stroke="black" points="965.5,-0.5 965.5,-19.5 1023.5,-19.5 1023.5,-0.5 965.5,-0.5"/>
<text text-anchor="middle" x="994.5" y="-7.5" font-family="Helvetica,sans-Serif" font-size="10.00">LogVIEW</text>
</a>
</g>
</g>
<!-- Node39&#45;&gt;Node41 -->
<g id="edge63" class="edge">
<title>Node39&#45;&gt;Node41</title>
<path fill="none" stroke="midnightblue" d="M1096.42,-105.87C1083.39,-86.46 1060.79,-55.55 1036,-34 1029.71,-28.53 1022,-23.61 1015,-19.67"/>
<polygon fill="midnightblue" stroke="midnightblue" points="1093.59,-107.95 1102.01,-114.39 1099.45,-104.11 1093.59,-107.95"/>
</g>
<!-- Node42 -->
<g id="node42" class="node">
<title>Node42</title>
<g id="a_node42"><a xlink:href="TransmitterCode_2src_2main_8cpp.html#a816b0ec602ed068bb08647d951681993" target="_top" xlink:title=" ">
<polygon fill="white" stroke="black" points="961,-152.5 961,-171.5 1028,-171.5 1028,-152.5 961,-152.5"/>
<text text-anchor="middle" x="994.5" y="-159.5" font-family="Helvetica,sans-Serif" font-size="10.00">RefreshLog</text>
</a>
</g>
</g>
<!-- Node39&#45;&gt;Node42 -->
<g id="edge64" class="edge">
<title>Node39&#45;&gt;Node42</title>
<path fill="none" stroke="midnightblue" d="M1070.03,-136.83C1054.93,-141.92 1037.87,-147.69 1023.88,-152.41"/>
<polygon fill="midnightblue" stroke="midnightblue" points="1071.26,-140.11 1079.61,-133.59 1069.02,-133.47 1071.26,-140.11"/>
</g>
<!-- Node43 -->
<g id="node43" class="node">
<title>Node43</title>
<g id="a_node43"><a xlink:href="TransmitterCode_2src_2main_8cpp.html#a2206c19b4fc075f4c9f1bb957ca89e1d" target="_top" xlink:title=" ">
<polygon fill="white" stroke="black" points="971.5,-114.5 971.5,-133.5 1017.5,-133.5 1017.5,-114.5 971.5,-114.5"/>
<text text-anchor="middle" x="994.5" y="-121.5" font-family="Helvetica,sans-Serif" font-size="10.00">UpLog</text>
</a>
</g>
</g>
<!-- Node39&#45;&gt;Node43 -->
<g id="edge65" class="edge">
<title>Node39&#45;&gt;Node43</title>
<path fill="none" stroke="midnightblue" d="M1061.47,-124C1046.26,-124 1030.08,-124 1017.55,-124"/>
<polygon fill="midnightblue" stroke="midnightblue" points="1061.79,-127.5 1071.79,-124 1061.79,-120.5 1061.79,-127.5"/>
</g>
</g>
</svg>
