<?xml version="1.0" encoding="UTF-8" standalone="no"?>
<!DOCTYPE svg PUBLIC "-//W3C//DTD SVG 1.1//EN"
 "http://www.w3.org/Graphics/SVG/1.1/DTD/svg11.dtd">
<!-- Generated by graphviz version 7.0.2 (20221119.0110)
 -->
<!-- Title: ChannelCentres Pages: 1 -->
<svg width="491pt" height="212pt"
 viewBox="0.00 0.00 491.00 212.00" xmlns="http://www.w3.org/2000/svg" xmlns:xlink="http://www.w3.org/1999/xlink">
<g id="graph0" class="graph" transform="scale(1 1) rotate(0) translate(4 208)">
<title>ChannelCentres</title>
<!-- Node1 -->
<g id="node1" class="node">
<title>Node1</title>
<g id="a_node1"><a xlink:title="Get centre as 90 degrees.">
<polygon fill="#999999" stroke="#666666" points="86,-129 0,-129 0,-110 86,-110 86,-129"/>
<text text-anchor="middle" x="43" y="-117" font-family="Helvetica,sans-Serif" font-size="10.00">ChannelCentres</text>
</a>
</g>
</g>
<!-- Node2 -->
<g id="node2" class="node">
<title>Node2</title>
<g id="a_node2"><a xlink:href="TransmitterCode_2src_2main_8cpp.html#a128fe47088693b102796cd67a175ea08" target="_top" xlink:title=" ">
<polygon fill="white" stroke="#666666" points="239.5,-176 122.5,-176 122.5,-157 239.5,-157 239.5,-176"/>
<text text-anchor="middle" x="181" y="-164" font-family="Helvetica,sans-Serif" font-size="10.00">CalibrateEdgeSwitches</text>
</a>
</g>
</g>
<!-- Node1&#45;&gt;Node2 -->
<g id="edge1" class="edge">
<title>Node1&#45;&gt;Node2</title>
<path fill="none" stroke="#63b8ff" d="M72.84,-129.47C92.5,-136.26 118.77,-145.34 140.38,-152.81"/>
<polygon fill="#63b8ff" stroke="#63b8ff" points="139.17,-156.09 149.77,-156.05 141.46,-149.48 139.17,-156.09"/>
</g>
<!-- Node4 -->
<g id="node4" class="node">
<title>Node4</title>
<g id="a_node4"><a xlink:href="TransmitterCode_2src_2main_8cpp.html#a26ae4f6ca14f760bd5eb6e7588fe7c81" target="_top" xlink:title="GET NEW SERVO POSITIONS.">
<polygon fill="white" stroke="#666666" points="240,-111 122,-111 122,-92 240,-92 240,-111"/>
<text text-anchor="middle" x="181" y="-99" font-family="Helvetica,sans-Serif" font-size="10.00">GetNewChannelValues</text>
</a>
</g>
</g>
<!-- Node1&#45;&gt;Node4 -->
<g id="edge3" class="edge">
<title>Node1&#45;&gt;Node4</title>
<path fill="none" stroke="#63b8ff" d="M86.29,-113.9C94.01,-112.88 102.24,-111.79 110.51,-110.7"/>
<polygon fill="#63b8ff" stroke="#63b8ff" points="110.8,-114.19 120.26,-109.41 109.88,-107.25 110.8,-114.19"/>
</g>
<!-- Node3 -->
<g id="node3" class="node">
<title>Node3</title>
<g id="a_node3"><a xlink:href="TransmitterCode_2src_2main_8cpp.html#a31322f63ce3e02c4ef9a0c1e0c7f1ff5" target="_top" xlink:title=" ">
<polygon fill="white" stroke="#666666" points="342,-204 302,-204 302,-185 342,-185 342,-204"/>
<text text-anchor="middle" x="322" y="-192" font-family="Helvetica,sans-Serif" font-size="10.00">swap</text>
</a>
</g>
</g>
<!-- Node2&#45;&gt;Node3 -->
<g id="edge2" class="edge">
<title>Node2&#45;&gt;Node3</title>
<path fill="none" stroke="#63b8ff" d="M231.4,-176.45C251.18,-180.44 273.34,-184.9 290.67,-188.39"/>
<polygon fill="#63b8ff" stroke="#63b8ff" points="289.83,-191.79 300.33,-190.34 291.21,-184.93 289.83,-191.79"/>
</g>
<!-- Node5 -->
<g id="node5" class="node">
<title>Node5</title>
<g id="a_node5"><a xlink:href="TransmitterCode_2src_2main_8cpp.html#ac77bd940a0faad7b997c9ddf40a7acc6" target="_top" xlink:title=" ">
<polygon fill="white" stroke="#666666" points="349,-167 295,-167 295,-148 349,-148 349,-167"/>
<text text-anchor="middle" x="322" y="-155" font-family="Helvetica,sans-Serif" font-size="10.00">DoMixes</text>
</a>
</g>
</g>
<!-- Node4&#45;&gt;Node5 -->
<g id="edge4" class="edge">
<title>Node4&#45;&gt;Node5</title>
<path fill="none" stroke="#63b8ff" d="M206.34,-111.37C225.31,-119.05 252.32,-129.98 276,-139.5 279.18,-140.78 282.48,-142.1 285.79,-143.43"/>
<polygon fill="#63b8ff" stroke="#63b8ff" points="284.25,-146.58 294.83,-147.05 286.85,-140.08 284.25,-146.58"/>
</g>
<!-- Node7 -->
<g id="node7" class="node">
<title>Node7</title>
<g id="a_node7"><a xlink:href="TransmitterCode_2src_2main_8cpp.html#acbd7adcd2b0e2095a89b4a98042b526e" target="_top" xlink:title=" ">
<polygon fill="white" stroke="#666666" points="368,-130 276,-130 276,-111 368,-111 368,-130"/>
<text text-anchor="middle" x="322" y="-118" font-family="Helvetica,sans-Serif" font-size="10.00">DoReverseSense</text>
</a>
</g>
</g>
<!-- Node4&#45;&gt;Node7 -->
<g id="edge6" class="edge">
<title>Node4&#45;&gt;Node7</title>
<path fill="none" stroke="#63b8ff" d="M240.14,-109.45C248.23,-110.55 256.53,-111.69 264.59,-112.79"/>
<polygon fill="#63b8ff" stroke="#63b8ff" points="263.89,-116.23 274.28,-114.11 264.84,-109.29 263.89,-116.23"/>
</g>
<!-- Node8 -->
<g id="node8" class="node">
<title>Node8</title>
<g id="a_node8"><a xlink:href="TransmitterCode_2src_2main_8cpp.html#af9c038b48102eca9032f10fefd9d5736" target="_top" xlink:title=" ">
<polygon fill="white" stroke="#666666" points="361,-56 283,-56 283,-37 361,-37 361,-56"/>
<text text-anchor="middle" x="322" y="-44" font-family="Helvetica,sans-Serif" font-size="10.00">GetCurveDots</text>
</a>
</g>
</g>
<!-- Node4&#45;&gt;Node8 -->
<g id="edge7" class="edge">
<title>Node4&#45;&gt;Node8</title>
<path fill="none" stroke="#63b8ff" d="M207.17,-91.54C229.02,-82.9 260.89,-70.28 285.36,-60.6"/>
<polygon fill="#63b8ff" stroke="#63b8ff" points="286.6,-63.88 294.61,-56.94 284.02,-57.37 286.6,-63.88"/>
</g>
<!-- Node11 -->
<g id="node11" class="node">
<title>Node11</title>
<g id="a_node11"><a xlink:href="TransmitterCode_2src_2main_8cpp.html#a248db02e07497e7a4149db17b4e5c2f3" target="_top" xlink:title=" ">
<polygon fill="white" stroke="#666666" points="360.5,-93 283.5,-93 283.5,-74 360.5,-74 360.5,-93"/>
<text text-anchor="middle" x="322" y="-81" font-family="Helvetica,sans-Serif" font-size="10.00">GetStickInput</text>
</a>
</g>
</g>
<!-- Node4&#45;&gt;Node11 -->
<g id="edge10" class="edge">
<title>Node4&#45;&gt;Node11</title>
<path fill="none" stroke="#63b8ff" d="M240.14,-93.97C250.74,-92.6 261.69,-91.18 271.99,-89.85"/>
<polygon fill="#63b8ff" stroke="#63b8ff" points="272.31,-93.33 281.78,-88.58 271.41,-86.39 272.31,-93.33"/>
</g>
<!-- Node12 -->
<g id="node12" class="node">
<title>Node12</title>
<g id="a_node12"><a xlink:href="TransmitterCode_2src_2main_8cpp.html#a07fabdf50e27daf4c4bd38d316a40e68" target="_top" xlink:title=" ">
<polygon fill="white" stroke="#666666" points="365,-19 279,-19 279,0 365,0 365,-19"/>
<text text-anchor="middle" x="322" y="-7" font-family="Helvetica,sans-Serif" font-size="10.00">GetTrimAmount</text>
</a>
</g>
</g>
<!-- Node4&#45;&gt;Node12 -->
<g id="edge12" class="edge">
<title>Node4&#45;&gt;Node12</title>
<path fill="none" stroke="#63b8ff" d="M192.61,-91.74C209.36,-76.7 243.37,-47.61 276,-28.5 278.59,-26.99 281.32,-25.53 284.1,-24.14"/>
<polygon fill="#63b8ff" stroke="#63b8ff" points="285.29,-27.45 292.89,-20.07 282.35,-21.09 285.29,-27.45"/>
</g>
<!-- Node6 -->
<g id="node6" class="node">
<title>Node6</title>
<g id="a_node6"><a xlink:href="TransmitterCode_2src_2main_8cpp.html#a0d8d8a0d67cb9b04481f1692abe75368" target="_top" xlink:title=" ">
<polygon fill="white" stroke="#666666" points="483,-130 404,-130 404,-111 483,-111 483,-130"/>
<text text-anchor="middle" x="443.5" y="-118" font-family="Helvetica,sans-Serif" font-size="10.00">IntoHigherRes</text>
</a>
</g>
</g>
<!-- Node5&#45;&gt;Node6 -->
<g id="edge5" class="edge">
<title>Node5&#45;&gt;Node6</title>
<path fill="none" stroke="#63b8ff" d="M349.22,-149.38C363.99,-144.81 382.8,-138.99 399.65,-133.77"/>
<polygon fill="#63b8ff" stroke="#63b8ff" points="400.41,-137.19 408.93,-130.89 398.34,-130.51 400.41,-137.19"/>
</g>
<!-- Node9 -->
<g id="node9" class="node">
<title>Node9</title>
<g id="a_node9"><a xlink:href="TransmitterCode_2src_2main_8cpp.html#afeabb54d48ef7e55693014e057d2943d" target="_top" xlink:title=" ">
<polygon fill="white" stroke="#666666" points="482,-56 405,-56 405,-37 482,-37 482,-56"/>
<text text-anchor="middle" x="443.5" y="-44" font-family="Helvetica,sans-Serif" font-size="10.00">CalculateRate</text>
</a>
</g>
</g>
<!-- Node8&#45;&gt;Node9 -->
<g id="edge8" class="edge">
<title>Node8&#45;&gt;Node9</title>
<path fill="none" stroke="#63b8ff" d="M361.47,-46.5C371.59,-46.5 382.65,-46.5 393.25,-46.5"/>
<polygon fill="#63b8ff" stroke="#63b8ff" points="393,-50 403,-46.5 393,-43 393,-50"/>
</g>
<!-- Node10 -->
<g id="node10" class="node">
<title>Node10</title>
<g id="a_node10"><a xlink:href="TransmitterCode_2src_2main_8cpp.html#a8f53f86499d740b350f7b6d791c90497" target="_top" xlink:title=" ">
<polygon fill="white" stroke="#666666" points="479,-19 408,-19 408,0 479,0 479,-19"/>
<text text-anchor="middle" x="443.5" y="-7" font-family="Helvetica,sans-Serif" font-size="10.00">UseFullRate</text>
</a>
</g>
</g>
<!-- Node8&#45;&gt;Node10 -->
<g id="edge9" class="edge">
<title>Node8&#45;&gt;Node10</title>
<path fill="none" stroke="#63b8ff" d="M355.02,-36.58C368.69,-32.35 384.83,-27.35 399.51,-22.81"/>
<polygon fill="#63b8ff" stroke="#63b8ff" points="400.42,-26.19 408.94,-19.89 398.35,-19.5 400.42,-26.19"/>
</g>
<!-- Node11&#45;&gt;Node6 -->
<g id="edge11" class="edge">
<title>Node11&#45;&gt;Node6</title>
<path fill="none" stroke="#63b8ff" d="M355.02,-93.42C368.69,-97.65 384.83,-102.65 399.51,-107.19"/>
<polygon fill="#63b8ff" stroke="#63b8ff" points="398.35,-110.5 408.94,-110.11 400.42,-103.81 398.35,-110.5"/>
</g>
</g>
</svg>
