<?xml version="1.0" encoding="UTF-8" standalone="no"?>
<!DOCTYPE svg PUBLIC "-//W3C//DTD SVG 1.1//EN"
 "http://www.w3.org/Graphics/SVG/1.1/DTD/svg11.dtd">
<!-- Generated by graphviz version 7.0.4 (20221203.1631)
 -->
<!-- Title: updateOneSwitchView Pages: 1 -->
<svg width="1170pt" height="1109pt"
 viewBox="0.00 0.00 1170.00 1108.50" xmlns="http://www.w3.org/2000/svg" xmlns:xlink="http://www.w3.org/1999/xlink">
<g id="graph0" class="graph" transform="scale(1 1) rotate(0) translate(4 1104.5)">
<title>updateOneSwitchView</title>
<!-- Node1 -->
<g id="node1" class="node">
<title>Node1</title>
<g id="a_node1"><a xlink:title=" ">
<polygon fill="#999999" stroke="#666666" points="116,-66.5 0,-66.5 0,-47.5 116,-47.5 116,-66.5"/>
<text text-anchor="middle" x="58" y="-54.5" font-family="Helvetica,sans-Serif" font-size="10.00">updateOneSwitchView</text>
</a>
</g>
</g>
<!-- Node2 -->
<g id="node2" class="node">
<title>Node2</title>
<g id="a_node2"><a xlink:href="TransmitterCode_2src_2main_8cpp.html#afe513398f72d5e48f691830a1ef6eb42" target="_top" xlink:title=" ">
<polygon fill="white" stroke="#666666" points="210,-217.5 152,-217.5 152,-198.5 210,-198.5 210,-217.5"/>
<text text-anchor="middle" x="181" y="-205.5" font-family="Helvetica,sans-Serif" font-size="10.00">SendText</text>
</a>
</g>
</g>
<!-- Node1&#45;&gt;Node2 -->
<g id="edge1" class="edge">
<title>Node1&#45;&gt;Node2</title>
<path fill="none" stroke="#63b8ff" d="M66.94,-66.91C86.86,-91.76 139.19,-157.07 165.07,-189.37"/>
<polygon fill="#63b8ff" stroke="#63b8ff" points="162.26,-191.46 171.24,-197.07 167.72,-187.08 162.26,-191.46"/>
</g>
<!-- Node39 -->
<g id="node47" class="node">
<title>Node39</title>
<g id="a_node47"><a xlink:href="TransmitterCode_2src_2main_8cpp.html#a1e20efc1e419b252b50d36f9924503fc" target="_top" xlink:title=" ">
<polygon fill="white" stroke="#666666" points="1025.5,-161.5 961.5,-161.5 961.5,-142.5 1025.5,-142.5 1025.5,-161.5"/>
<text text-anchor="middle" x="993.5" y="-149.5" font-family="Helvetica,sans-Serif" font-size="10.00">SendValue</text>
</a>
</g>
</g>
<!-- Node1&#45;&gt;Node39 -->
<g id="edge75" class="edge">
<title>Node1&#45;&gt;Node39</title>
<path fill="none" stroke="#63b8ff" d="M116.39,-49.55C162.32,-44.22 228.44,-38 286.5,-38 286.5,-38 286.5,-38 689,-38 799.09,-38 918.12,-104.54 968.16,-135.95"/>
<polygon fill="#63b8ff" stroke="#63b8ff" points="966.18,-138.84 976.49,-141.27 969.95,-132.94 966.18,-138.84"/>
</g>
<!-- Node3 -->
<g id="node3" class="node">
<title>Node3</title>
<g id="a_node3"><a xlink:href="TransmitterCode_2src_2main_8cpp.html#a43937dd3d9c795271fd9c3eb3c6b6410" target="_top" xlink:title=" ">
<polygon fill="white" stroke="#666666" points="1162,-85.5 1079,-85.5 1079,-66.5 1162,-66.5 1162,-85.5"/>
<text text-anchor="middle" x="1120.5" y="-73.5" font-family="Helvetica,sans-Serif" font-size="10.00">GetReturnCode</text>
</a>
</g>
</g>
<!-- Node2&#45;&gt;Node3 -->
<g id="edge2" class="edge">
<title>Node2&#45;&gt;Node3</title>
<path fill="none" stroke="#63b8ff" d="M190.36,-198.25C226.6,-157.12 375.4,0 533,0 533,0 533,0 846.5,0 937.06,0 1038.54,-39.3 1088.41,-61.37"/>
<polygon fill="#63b8ff" stroke="#63b8ff" points="1086.88,-64.52 1097.43,-65.44 1089.75,-58.14 1086.88,-64.52"/>
</g>
<!-- Node4 -->
<g id="node4" class="node">
<title>Node4</title>
<g id="a_node4"><a xlink:href="TransmitterCode_2src_2main_8cpp.html#aecac2f0c289f02ef3c92b85be82eacac" target="_top" xlink:title=" ">
<polygon fill="white" stroke="#666666" points="329,-331.5 246,-331.5 246,-312.5 329,-312.5 329,-331.5"/>
<text text-anchor="middle" x="287.5" y="-319.5" font-family="Helvetica,sans-Serif" font-size="10.00">SendCommand</text>
</a>
</g>
</g>
<!-- Node2&#45;&gt;Node4 -->
<g id="edge3" class="edge">
<title>Node2&#45;&gt;Node4</title>
<path fill="none" stroke="#63b8ff" d="M190.91,-217.72C208.42,-236.82 247.54,-279.5 269.93,-303.92"/>
<polygon fill="#63b8ff" stroke="#63b8ff" points="267.25,-306.18 276.59,-311.19 272.41,-301.45 267.25,-306.18"/>
</g>
<!-- Node4&#45;&gt;Node3 -->
<g id="edge4" class="edge">
<title>Node4&#45;&gt;Node3</title>
<path fill="none" stroke="#63b8ff" d="M289.2,-312.38C292.07,-280.26 305.78,-175.68 365,-122 422.36,-70.01 455.58,-76 533,-76 533,-76 533,-76 846.5,-76 923.49,-76 1012.7,-76 1067.62,-76"/>
<polygon fill="#63b8ff" stroke="#63b8ff" points="1067.28,-79.5 1077.28,-76 1067.28,-72.5 1067.28,-79.5"/>
</g>
<!-- Node5 -->
<g id="node5" class="node">
<title>Node5</title>
<g id="a_node5"><a xlink:href="TransmitterCode_2src_2main_8cpp.html#a5f109790a6fe0b972a502f3cac4ed1e7" target="_top" xlink:title=" ">
<polygon fill="white" stroke="#666666" points="426,-274.5 378,-274.5 378,-255.5 426,-255.5 426,-274.5"/>
<text text-anchor="middle" x="402" y="-262.5" font-family="Helvetica,sans-Serif" font-size="10.00">InStrng</text>
</a>
</g>
</g>
<!-- Node4&#45;&gt;Node5 -->
<g id="edge5" class="edge">
<title>Node4&#45;&gt;Node5</title>
<path fill="none" stroke="#63b8ff" d="M308.1,-312.07C325.6,-303.2 351.49,-290.09 371.49,-279.95"/>
<polygon fill="#63b8ff" stroke="#63b8ff" points="372.94,-283.14 380.28,-275.5 369.78,-276.9 372.94,-283.14"/>
</g>
<!-- Node6 -->
<g id="node6" class="node">
<title>Node6</title>
<g id="a_node6"><a xlink:href="RadioFunctions_8cpp.html#a760609a682300dfe6bfaac737fd4d5eb" target="_top" xlink:title=" ">
<polygon fill="white" stroke="#666666" points="439,-237.5 365,-237.5 365,-218.5 439,-218.5 439,-237.5"/>
<text text-anchor="middle" x="402" y="-225.5" font-family="Helvetica,sans-Serif" font-size="10.00">Procrastinate</text>
</a>
</g>
</g>
<!-- Node4&#45;&gt;Node6 -->
<g id="edge6" class="edge">
<title>Node4&#45;&gt;Node6</title>
<path fill="none" stroke="#63b8ff" d="M296.61,-312.12C309.74,-296.57 337.02,-266.1 365,-246 366.15,-245.17 367.34,-244.37 368.56,-243.58"/>
<polygon fill="#63b8ff" stroke="#63b8ff" points="370.05,-246.76 376.96,-238.74 366.55,-240.7 370.05,-246.76"/>
</g>
<!-- Node7 -->
<g id="node7" class="node">
<title>Node7</title>
<g id="a_node7"><a xlink:href="RadioFunctions_8cpp.html#a1ddd5e8d5bd649dd98ce3710fbff651b" target="_top" xlink:title=" ">
<polygon fill="white" stroke="#666666" points="564.5,-274.5 503.5,-274.5 503.5,-255.5 564.5,-255.5 564.5,-274.5"/>
<text text-anchor="middle" x="534" y="-262.5" font-family="Helvetica,sans-Serif" font-size="10.00">Compress</text>
</a>
</g>
</g>
<!-- Node6&#45;&gt;Node7 -->
<g id="edge7" class="edge">
<title>Node6&#45;&gt;Node7</title>
<path fill="none" stroke="#63b8ff" d="M437.84,-237.92C454.62,-242.69 474.85,-248.45 492.33,-253.42"/>
<polygon fill="#63b8ff" stroke="#63b8ff" points="491.33,-256.78 501.9,-256.15 493.24,-250.05 491.33,-256.78"/>
</g>
<!-- Node8 -->
<g id="node8" class="node">
<title>Node8</title>
<g id="a_node8"><a xlink:href="TransmitterCode_2src_2main_8cpp.html#a26ae4f6ca14f760bd5eb6e7588fe7c81" target="_top" xlink:title="GET NEW SERVO POSITIONS.">
<polygon fill="white" stroke="#666666" points="593,-539.5 475,-539.5 475,-520.5 593,-520.5 593,-539.5"/>
<text text-anchor="middle" x="534" y="-527.5" font-family="Helvetica,sans-Serif" font-size="10.00">GetNewChannelValues</text>
</a>
</g>
</g>
<!-- Node6&#45;&gt;Node8 -->
<g id="edge8" class="edge">
<title>Node6&#45;&gt;Node8</title>
<path fill="none" stroke="#63b8ff" d="M429.17,-237.92C432.82,-240.16 436.26,-242.83 439,-246 507.94,-325.66 526.65,-457.38 531.44,-508.65"/>
<polygon fill="#63b8ff" stroke="#63b8ff" points="527.95,-508.94 532.28,-518.62 534.93,-508.36 527.95,-508.94"/>
</g>
<!-- Node17 -->
<g id="node17" class="node">
<title>Node17</title>
<g id="a_node17"><a xlink:href="TransmitterCode_2src_2main_8cpp.html#ada95a00a341e4a80176eda743a94ab2e" target="_top" xlink:title=" ">
<polygon fill="white" stroke="#666666" points="569,-237.5 499,-237.5 499,-218.5 569,-218.5 569,-237.5"/>
<text text-anchor="middle" x="534" y="-225.5" font-family="Helvetica,sans-Serif" font-size="10.00">KickTheDog</text>
</a>
</g>
</g>
<!-- Node6&#45;&gt;Node17 -->
<g id="edge18" class="edge">
<title>Node6&#45;&gt;Node17</title>
<path fill="none" stroke="#63b8ff" d="M439.21,-228C454.21,-228 471.76,-228 487.6,-228"/>
<polygon fill="#63b8ff" stroke="#63b8ff" points="487.26,-231.5 497.26,-228 487.26,-224.5 487.26,-231.5"/>
</g>
<!-- Node18 -->
<g id="node18" class="node">
<title>Node18</title>
<g id="a_node18"><a xlink:href="RadioFunctions_8cpp.html#a049bfb836e7aa4a3a48a1a4bd225fafc" target="_top" xlink:title=" ">
<polygon fill="white" stroke="#666666" points="563.5,-781.5 504.5,-781.5 504.5,-762.5 563.5,-762.5 563.5,-781.5"/>
<text text-anchor="middle" x="534" y="-769.5" font-family="Helvetica,sans-Serif" font-size="10.00">SendData</text>
</a>
</g>
</g>
<!-- Node6&#45;&gt;Node18 -->
<g id="edge19" class="edge">
<title>Node6&#45;&gt;Node18</title>
<path fill="none" stroke="#63b8ff" d="M430.46,-237.93C433.76,-240.14 436.75,-242.8 439,-246 477.88,-301.28 462.5,-481.58 475,-548 489.28,-623.88 514.81,-712.08 526.65,-751.33"/>
<polygon fill="#63b8ff" stroke="#63b8ff" points="523.28,-752.29 529.54,-760.83 529.98,-750.25 523.28,-752.29"/>
</g>
<!-- Node111 -->
<g id="node37" class="node">
<title>Node111</title>
<g id="a_node37"><a xlink:href="TransmitterCode_2src_2main_8cpp.html#ad770ee51a34d8c5026e65136884c16bf" target="_top" xlink:title=" ">
<polygon fill="white" stroke="#666666" points="576,-200.5 492,-200.5 492,-181.5 576,-181.5 576,-200.5"/>
<text text-anchor="middle" x="534" y="-188.5" font-family="Helvetica,sans-Serif" font-size="10.00">ShowServoPos</text>
</a>
</g>
</g>
<!-- Node6&#45;&gt;Node111 -->
<g id="edge45" class="edge">
<title>Node6&#45;&gt;Node111</title>
<path fill="none" stroke="#63b8ff" d="M437.84,-218.08C452.99,-213.77 470.96,-208.66 487.17,-204.04"/>
<polygon fill="#63b8ff" stroke="#63b8ff" points="487.95,-207.46 496.61,-201.36 486.03,-200.73 487.95,-207.46"/>
</g>
<!-- Node9 -->
<g id="node9" class="node">
<title>Node9</title>
<g id="a_node9"><a xlink:href="TransmitterCode_2src_2main_8cpp.html#ac77bd940a0faad7b997c9ddf40a7acc6" target="_top" xlink:title=" ">
<polygon fill="white" stroke="#666666" points="715,-689.5 661,-689.5 661,-670.5 715,-670.5 715,-689.5"/>
<text text-anchor="middle" x="688" y="-677.5" font-family="Helvetica,sans-Serif" font-size="10.00">DoMixes</text>
</a>
</g>
</g>
<!-- Node8&#45;&gt;Node9 -->
<g id="edge9" class="edge">
<title>Node8&#45;&gt;Node9</title>
<path fill="none" stroke="#63b8ff" d="M539.36,-539.84C550.6,-564.1 582.94,-627.24 629,-661 635.13,-665.49 642.38,-668.96 649.63,-671.62"/>
<polygon fill="#63b8ff" stroke="#63b8ff" points="648.48,-674.93 659.07,-674.62 650.6,-668.26 648.48,-674.93"/>
</g>
<!-- Node11 -->
<g id="node11" class="node">
<title>Node11</title>
<g id="a_node11"><a xlink:href="TransmitterCode_2src_2main_8cpp.html#acbd7adcd2b0e2095a89b4a98042b526e" target="_top" xlink:title=" ">
<polygon fill="white" stroke="#666666" points="734,-502.5 642,-502.5 642,-483.5 734,-483.5 734,-502.5"/>
<text text-anchor="middle" x="688" y="-490.5" font-family="Helvetica,sans-Serif" font-size="10.00">DoReverseSense</text>
</a>
</g>
</g>
<!-- Node8&#45;&gt;Node11 -->
<g id="edge11" class="edge">
<title>Node8&#45;&gt;Node11</title>
<path fill="none" stroke="#63b8ff" d="M575.73,-520.08C593.96,-515.65 615.67,-510.36 635.06,-505.64"/>
<polygon fill="#63b8ff" stroke="#63b8ff" points="635.8,-509.07 644.68,-503.3 634.14,-502.27 635.8,-509.07"/>
</g>
<!-- Node12 -->
<g id="node12" class="node">
<title>Node12</title>
<g id="a_node12"><a xlink:href="TransmitterCode_2src_2main_8cpp.html#af9c038b48102eca9032f10fefd9d5736" target="_top" xlink:title=" ">
<polygon fill="white" stroke="#666666" points="727,-615.5 649,-615.5 649,-596.5 727,-596.5 727,-615.5"/>
<text text-anchor="middle" x="688" y="-603.5" font-family="Helvetica,sans-Serif" font-size="10.00">GetCurveDots</text>
</a>
</g>
</g>
<!-- Node8&#45;&gt;Node12 -->
<g id="edge12" class="edge">
<title>Node8&#45;&gt;Node12</title>
<path fill="none" stroke="#63b8ff" d="M554.87,-539.94C580.93,-552.96 626.88,-575.94 657.13,-591.07"/>
<polygon fill="#63b8ff" stroke="#63b8ff" points="655.26,-594.04 665.77,-595.39 658.39,-587.78 655.26,-594.04"/>
</g>
<!-- Node15 -->
<g id="node15" class="node">
<title>Node15</title>
<g id="a_node15"><a xlink:href="TransmitterCode_2src_2main_8cpp.html#a248db02e07497e7a4149db17b4e5c2f3" target="_top" xlink:title=" ">
<polygon fill="white" stroke="#666666" points="726.5,-652.5 649.5,-652.5 649.5,-633.5 726.5,-633.5 726.5,-652.5"/>
<text text-anchor="middle" x="688" y="-640.5" font-family="Helvetica,sans-Serif" font-size="10.00">GetStickInput</text>
</a>
</g>
</g>
<!-- Node8&#45;&gt;Node15 -->
<g id="edge15" class="edge">
<title>Node8&#45;&gt;Node15</title>
<path fill="none" stroke="#63b8ff" d="M542.16,-539.75C556.54,-558.66 590.85,-600.56 629,-624 631.97,-625.83 635.14,-627.5 638.41,-629.02"/>
<polygon fill="#63b8ff" stroke="#63b8ff" points="637.06,-632.25 647.64,-632.83 639.73,-625.78 637.06,-632.25"/>
</g>
<!-- Node16 -->
<g id="node16" class="node">
<title>Node16</title>
<g id="a_node16"><a xlink:href="TransmitterCode_2src_2main_8cpp.html#a07fabdf50e27daf4c4bd38d316a40e68" target="_top" xlink:title=" ">
<polygon fill="white" stroke="#666666" points="731,-539.5 645,-539.5 645,-520.5 731,-520.5 731,-539.5"/>
<text text-anchor="middle" x="688" y="-527.5" font-family="Helvetica,sans-Serif" font-size="10.00">GetTrimAmount</text>
</a>
</g>
</g>
<!-- Node8&#45;&gt;Node16 -->
<g id="edge17" class="edge">
<title>Node8&#45;&gt;Node16</title>
<path fill="none" stroke="#63b8ff" d="M593.33,-530C606.54,-530 620.51,-530 633.5,-530"/>
<polygon fill="#63b8ff" stroke="#63b8ff" points="633.12,-533.5 643.12,-530 633.12,-526.5 633.12,-533.5"/>
</g>
<!-- Node10 -->
<g id="node10" class="node">
<title>Node10</title>
<g id="a_node10"><a xlink:href="TransmitterCode_2src_2main_8cpp.html#a0d8d8a0d67cb9b04481f1692abe75368" target="_top" xlink:title=" ">
<polygon fill="white" stroke="#666666" points="885,-652.5 806,-652.5 806,-633.5 885,-633.5 885,-652.5"/>
<text text-anchor="middle" x="845.5" y="-640.5" font-family="Helvetica,sans-Serif" font-size="10.00">IntoHigherRes</text>
</a>
</g>
</g>
<!-- Node9&#45;&gt;Node10 -->
<g id="edge10" class="edge">
<title>Node9&#45;&gt;Node10</title>
<path fill="none" stroke="#63b8ff" d="M715.38,-673.72C737.06,-668.56 768.4,-661.11 794.77,-654.83"/>
<polygon fill="#63b8ff" stroke="#63b8ff" points="795.33,-658.3 804.25,-652.58 793.71,-651.49 795.33,-658.3"/>
</g>
<!-- Node13 -->
<g id="node13" class="node">
<title>Node13</title>
<g id="a_node13"><a xlink:href="TransmitterCode_2src_2main_8cpp.html#afeabb54d48ef7e55693014e057d2943d" target="_top" xlink:title=" ">
<polygon fill="white" stroke="#666666" points="884,-578.5 807,-578.5 807,-559.5 884,-559.5 884,-578.5"/>
<text text-anchor="middle" x="845.5" y="-566.5" font-family="Helvetica,sans-Serif" font-size="10.00">CalculateRate</text>
</a>
</g>
</g>
<!-- Node12&#45;&gt;Node13 -->
<g id="edge13" class="edge">
<title>Node12&#45;&gt;Node13</title>
<path fill="none" stroke="#63b8ff" d="M727.44,-596.85C747.96,-591.97 773.45,-585.91 795.4,-580.68"/>
<polygon fill="#63b8ff" stroke="#63b8ff" points="796.11,-584.11 805.03,-578.39 794.49,-577.3 796.11,-584.11"/>
</g>
<!-- Node14 -->
<g id="node14" class="node">
<title>Node14</title>
<g id="a_node14"><a xlink:href="TransmitterCode_2src_2main_8cpp.html#a8f53f86499d740b350f7b6d791c90497" target="_top" xlink:title=" ">
<polygon fill="white" stroke="#666666" points="881,-615.5 810,-615.5 810,-596.5 881,-596.5 881,-615.5"/>
<text text-anchor="middle" x="845.5" y="-603.5" font-family="Helvetica,sans-Serif" font-size="10.00">UseFullRate</text>
</a>
</g>
</g>
<!-- Node12&#45;&gt;Node14 -->
<g id="edge14" class="edge">
<title>Node12&#45;&gt;Node14</title>
<path fill="none" stroke="#63b8ff" d="M727.44,-606C748.88,-606 775.74,-606 798.32,-606"/>
<polygon fill="#63b8ff" stroke="#63b8ff" points="798.17,-609.5 808.17,-606 798.17,-602.5 798.17,-609.5"/>
</g>
<!-- Node15&#45;&gt;Node10 -->
<g id="edge16" class="edge">
<title>Node15&#45;&gt;Node10</title>
<path fill="none" stroke="#63b8ff" d="M726.64,-643C746.91,-643 772.18,-643 794.12,-643"/>
<polygon fill="#63b8ff" stroke="#63b8ff" points="794.07,-646.5 804.07,-643 794.07,-639.5 794.07,-646.5"/>
</g>
<!-- Node19 -->
<g id="node19" class="node">
<title>Node19</title>
<g id="a_node19"><a xlink:href="RadioFunctions_8cpp.html#a5fbd3c8613a4163425c94965704ce5f8" target="_top" xlink:title=" ">
<polygon fill="white" stroke="#666666" points="725,-800.5 651,-800.5 651,-781.5 725,-781.5 725,-800.5"/>
<text text-anchor="middle" x="688" y="-788.5" font-family="Helvetica,sans-Serif" font-size="10.00">FailedPacket</text>
</a>
</g>
</g>
<!-- Node18&#45;&gt;Node19 -->
<g id="edge20" class="edge">
<title>Node18&#45;&gt;Node19</title>
<path fill="none" stroke="#63b8ff" d="M563.95,-775.62C585.21,-778.28 614.59,-781.95 639.3,-785.04"/>
<polygon fill="#63b8ff" stroke="#63b8ff" points="638.78,-788.5 649.14,-786.27 639.65,-781.55 638.78,-788.5"/>
</g>
<!-- Node56 -->
<g id="node27" class="node">
<title>Node56</title>
<g id="a_node27"><a xlink:href="RadioFunctions_8cpp.html#a07c27b4e208198453c70876517926052" target="_top" xlink:title=" ">
<polygon fill="white" stroke="#666666" points="719,-763.5 657,-763.5 657,-744.5 719,-744.5 719,-763.5"/>
<text text-anchor="middle" x="688" y="-751.5" font-family="Helvetica,sans-Serif" font-size="10.00">FlushFifos</text>
</a>
</g>
</g>
<!-- Node18&#45;&gt;Node56 -->
<g id="edge32" class="edge">
<title>Node18&#45;&gt;Node56</title>
<path fill="none" stroke="#63b8ff" d="M563.95,-768.57C586.95,-765.85 619.44,-762 645.26,-758.94"/>
<polygon fill="#63b8ff" stroke="#63b8ff" points="645.58,-762.43 655.09,-757.78 644.75,-755.48 645.58,-762.43"/>
</g>
<!-- Node57 -->
<g id="node28" class="node">
<title>Node57</title>
<g id="a_node28"><a xlink:href="TransmitterCode_2src_2main_8cpp.html#ac4ffb9b555ce8d38f615610dc89b5499" target="_top" xlink:title=" ">
<polygon fill="white" stroke="#666666" points="732.5,-987.5 643.5,-987.5 643.5,-968.5 732.5,-968.5 732.5,-987.5"/>
<text text-anchor="middle" x="688" y="-975.5" font-family="Helvetica,sans-Serif" font-size="10.00">LoadPacketData</text>
</a>
</g>
</g>
<!-- Node18&#45;&gt;Node57 -->
<g id="edge33" class="edge">
<title>Node18&#45;&gt;Node57</title>
<path fill="none" stroke="#63b8ff" d="M542.33,-781.94C566.16,-814.23 641.68,-916.58 673.09,-959.15"/>
<polygon fill="#63b8ff" stroke="#63b8ff" points="670.09,-960.98 678.84,-966.95 675.72,-956.82 670.09,-960.98"/>
</g>
<!-- Node60 -->
<g id="node31" class="node">
<title>Node60</title>
<g id="a_node31"><a xlink:href="ReceiverCode_2src_2main_8cpp.html#a6a495c5560f12cc3fd3df9454927d681" target="_top" xlink:title=" ">
<polygon fill="white" stroke="#666666" points="725,-726.5 651,-726.5 651,-707.5 725,-707.5 725,-726.5"/>
<text text-anchor="middle" x="688" y="-714.5" font-family="Helvetica,sans-Serif" font-size="10.00">MapToSBUS</text>
</a>
</g>
</g>
<!-- Node18&#45;&gt;Node60 -->
<g id="edge38" class="edge">
<title>Node18&#45;&gt;Node60</title>
<path fill="none" stroke="#63b8ff" d="M558.77,-762.08C577.67,-754.33 604.84,-743.49 629,-735 633.42,-733.45 638.05,-731.89 642.69,-730.38"/>
<polygon fill="#63b8ff" stroke="#63b8ff" points="643.52,-733.79 651.99,-727.41 641.4,-727.12 643.52,-733.79"/>
</g>
<!-- Node61 -->
<g id="node32" class="node">
<title>Node61</title>
<g id="a_node32"><a xlink:href="RadioFunctions_8cpp.html#a1c11bb6771548de7d96723045b922620" target="_top" xlink:title=" ">
<polygon fill="white" stroke="#666666" points="736,-876.5 640,-876.5 640,-857.5 736,-857.5 736,-876.5"/>
<text text-anchor="middle" x="688" y="-864.5" font-family="Helvetica,sans-Serif" font-size="10.00">SuccessfulPacket</text>
</a>
</g>
</g>
<!-- Node18&#45;&gt;Node61 -->
<g id="edge39" class="edge">
<title>Node18&#45;&gt;Node61</title>
<path fill="none" stroke="#63b8ff" d="M550.98,-781.99C577.39,-798.49 630.35,-831.59 661.83,-851.27"/>
<polygon fill="#63b8ff" stroke="#63b8ff" points="659.62,-854.01 669.95,-856.34 663.33,-848.08 659.62,-854.01"/>
</g>
<!-- Node20 -->
<g id="node20" class="node">
<title>Node20</title>
<g id="a_node20"><a xlink:href="TransmitterCode_2src_2main_8cpp.html#afd409fe008843b50c3e2ff697558d4d5" target="_top" xlink:title=" ">
<polygon fill="#fff0f0" stroke="red" points="1039.5,-613.5 947.5,-613.5 947.5,-594.5 1039.5,-594.5 1039.5,-613.5"/>
<text text-anchor="middle" x="993.5" y="-601.5" font-family="Helvetica,sans-Serif" font-size="10.00">LogThisLongGap</text>
</a>
</g>
</g>
<!-- Node19&#45;&gt;Node20 -->
<g id="edge21" class="edge">
<title>Node19&#45;&gt;Node20</title>
<path fill="none" stroke="#63b8ff" d="M725.39,-781.89C732.82,-779.27 740.38,-776 747,-772 766.09,-760.45 763.82,-748.41 783,-737 833.01,-707.24 859.02,-729.43 908,-698 924.3,-687.54 958.31,-646.79 977.85,-622.51"/>
<polygon fill="#63b8ff" stroke="#63b8ff" points="980.34,-625.01 983.85,-615.01 974.87,-620.64 980.34,-625.01"/>
</g>
<!-- Node31 -->
<g id="node22" class="node">
<title>Node31</title>
<g id="a_node22"><a xlink:href="RadioFunctions_8cpp.html#afc091b5942e21a03f6dc8635d5e519ba" target="_top" xlink:title=" ">
<polygon fill="white" stroke="#666666" points="906.5,-802.5 784.5,-802.5 784.5,-783.5 906.5,-783.5 906.5,-802.5"/>
<text text-anchor="middle" x="845.5" y="-790.5" font-family="Helvetica,sans-Serif" font-size="10.00">RecordsPacketSuccess</text>
</a>
</g>
</g>
<!-- Node19&#45;&gt;Node31 -->
<g id="edge23" class="edge">
<title>Node19&#45;&gt;Node31</title>
<path fill="none" stroke="#63b8ff" d="M725.46,-791.47C739.68,-791.65 756.5,-791.87 772.95,-792.08"/>
<polygon fill="#63b8ff" stroke="#63b8ff" points="772.68,-795.58 782.72,-792.21 772.77,-788.58 772.68,-795.58"/>
</g>
<!-- Node32 -->
<g id="node23" class="node">
<title>Node32</title>
<g id="a_node23"><a xlink:href="TransmitterCode_2src_2main_8cpp.html#a7d34cec6e8edc20c8b50424e15dcc7c7" target="_top" xlink:title=" ">
<polygon fill="#fff0f0" stroke="red" points="877,-1100.5 814,-1100.5 814,-1081.5 877,-1081.5 877,-1100.5"/>
<text text-anchor="middle" x="845.5" y="-1088.5" font-family="Helvetica,sans-Serif" font-size="10.00">RedLedOn</text>
</a>
</g>
</g>
<!-- Node19&#45;&gt;Node32 -->
<g id="edge24" class="edge">
<title>Node19&#45;&gt;Node32</title>
<path fill="none" stroke="#63b8ff" d="M703.09,-800.83C716.57,-811.03 736.37,-828.23 747,-848 786.65,-921.78 742.59,-959.63 783,-1033 792.06,-1049.45 807.42,-1063.94 820.53,-1074.33"/>
<polygon fill="#63b8ff" stroke="#63b8ff" points="818.25,-1076.99 828.34,-1080.22 822.47,-1071.41 818.25,-1076.99"/>
</g>
<!-- Node51 -->
<g id="node25" class="node">
<title>Node51</title>
<g id="a_node25"><a xlink:href="TransmitterCode_2src_2main_8cpp.html#a0a3d89dfcfab70c6cbc50401fff1afeb" target="_top" xlink:title=" ">
<polygon fill="white" stroke="#666666" points="900,-765.5 791,-765.5 791,-746.5 900,-746.5 900,-765.5"/>
<text text-anchor="middle" x="845.5" y="-753.5" font-family="Helvetica,sans-Serif" font-size="10.00">ReEnableScanButton</text>
</a>
</g>
</g>
<!-- Node19&#45;&gt;Node51 -->
<g id="edge28" class="edge">
<title>Node19&#45;&gt;Node51</title>
<path fill="none" stroke="#63b8ff" d="M725.46,-782.79C744.4,-778.53 767.96,-773.23 789.11,-768.47"/>
<polygon fill="#63b8ff" stroke="#63b8ff" points="789.77,-771.91 798.76,-766.3 788.23,-765.08 789.77,-771.91"/>
</g>
<!-- Node52 -->
<g id="node26" class="node">
<title>Node52</title>
<g id="a_node26"><a xlink:href="RadioFunctions_8cpp.html#ad0236abcfc887ad708d9504c4ab2a7c3" target="_top" xlink:title=" ">
<polygon fill="#fff0f0" stroke="red" points="889.5,-689.5 801.5,-689.5 801.5,-670.5 889.5,-670.5 889.5,-689.5"/>
<text text-anchor="middle" x="845.5" y="-677.5" font-family="Helvetica,sans-Serif" font-size="10.00">TryToReconnect</text>
</a>
</g>
</g>
<!-- Node19&#45;&gt;Node52 -->
<g id="edge31" class="edge">
<title>Node19&#45;&gt;Node52</title>
<path fill="none" stroke="#63b8ff" d="M725.26,-783.83C733.03,-781.07 740.76,-777.26 747,-772 773.15,-749.96 757.47,-726.75 783,-704 787.01,-700.42 791.62,-697.35 796.47,-694.72"/>
<polygon fill="#63b8ff" stroke="#63b8ff" points="797.73,-697.99 805.28,-690.56 794.74,-691.66 797.73,-697.99"/>
</g>
<!-- Node26 -->
<g id="node21" class="node">
<title>Node26</title>
<g id="a_node21"><a xlink:href="TransmitterCode_2src_2main_8cpp.html#a590a9174319918d7e3d7baca323fcf26" target="_top" xlink:title=" ">
<polygon fill="white" stroke="#666666" points="1135,-498.5 1106,-498.5 1106,-479.5 1135,-479.5 1135,-498.5"/>
<text text-anchor="middle" x="1120.5" y="-486.5" font-family="Helvetica,sans-Serif" font-size="10.00">Str</text>
</a>
</g>
</g>
<!-- Node20&#45;&gt;Node26 -->
<g id="edge22" class="edge">
<title>Node20&#45;&gt;Node26</title>
<path fill="none" stroke="#63b8ff" d="M1005.16,-594.2C1026.37,-574.68 1074.14,-530.73 1100.73,-506.27"/>
<polygon fill="#63b8ff" stroke="#63b8ff" points="1102.77,-509.15 1107.76,-499.8 1098.03,-504 1102.77,-509.15"/>
</g>
<!-- Node32&#45;&gt;Node2 -->
<g id="edge26" class="edge">
<title>Node32&#45;&gt;Node2</title>
<path fill="none" stroke="#63b8ff" d="M813.76,-1089.35C758.15,-1086.51 637.15,-1081 535,-1081 401,-1081 401,-1081 401,-1081 219.53,-1081 187.08,-362.37 182.62,-229.12"/>
<polygon fill="#63b8ff" stroke="#63b8ff" points="186.12,-229.2 182.31,-219.32 179.13,-229.42 186.12,-229.2"/>
</g>
<!-- Node32&#45;&gt;Node4 -->
<g id="edge25" class="edge">
<title>Node32&#45;&gt;Node4</title>
<path fill="none" stroke="#63b8ff" d="M813.52,-1082.81C715.69,-1056.24 416.75,-969.45 365,-888 305.7,-794.67 291.66,-434.36 289.03,-343.1"/>
<polygon fill="#63b8ff" stroke="#63b8ff" points="292.53,-343.07 288.76,-333.17 285.53,-343.26 292.53,-343.07"/>
</g>
<!-- Node36 -->
<g id="node24" class="node">
<title>Node36</title>
<g id="a_node24"><a xlink:href="ReceiverCode_2src_2main_8cpp.html#a2eabdb233653fa02f0b899e26b5e8ce7" target="_top" xlink:title=" ">
<polygon fill="white" stroke="#666666" points="1043,-1081.5 944,-1081.5 944,-1062.5 1043,-1062.5 1043,-1081.5"/>
<text text-anchor="middle" x="993.5" y="-1069.5" font-family="Helvetica,sans-Serif" font-size="10.00">SetUKFrequencies</text>
</a>
</g>
</g>
<!-- Node32&#45;&gt;Node36 -->
<g id="edge27" class="edge">
<title>Node32&#45;&gt;Node36</title>
<path fill="none" stroke="#63b8ff" d="M877.46,-1086.97C893.48,-1084.89 913.6,-1082.27 932.51,-1079.81"/>
<polygon fill="#63b8ff" stroke="#63b8ff" points="932.8,-1083.3 942.27,-1078.54 931.9,-1076.36 932.8,-1083.3"/>
</g>
<!-- Node51&#45;&gt;Node4 -->
<g id="edge29" class="edge">
<title>Node51&#45;&gt;Node4</title>
<path fill="none" stroke="#63b8ff" d="M800.72,-765.93C794.56,-768.14 788.48,-770.81 783,-774 763.72,-785.24 767.68,-800.61 747,-809 634.72,-854.59 570.94,-864.03 475,-790 324.44,-673.83 295.1,-417.41 289.67,-342.77"/>
<polygon fill="#63b8ff" stroke="#63b8ff" points="293.19,-342.96 289.05,-333.21 286.21,-343.42 293.19,-342.96"/>
</g>
<!-- Node51&#45;&gt;Node26 -->
<g id="edge30" class="edge">
<title>Node51&#45;&gt;Node26</title>
<path fill="none" stroke="#63b8ff" d="M877.4,-746.09C887.47,-742.3 898.49,-737.54 908,-732 974.86,-693.01 992.87,-680.97 1043,-622 1073.49,-586.13 1098.35,-536.39 1110.81,-509.03"/>
<polygon fill="#63b8ff" stroke="#63b8ff" points="1113.89,-510.73 1114.76,-500.17 1107.5,-507.88 1113.89,-510.73"/>
</g>
<!-- Node57&#45;&gt;Node4 -->
<g id="edge35" class="edge">
<title>Node57&#45;&gt;Node4</title>
<path fill="none" stroke="#63b8ff" d="M643.16,-973.18C572.4,-962.9 434.02,-931.96 365,-843 302.9,-762.96 290.99,-431.03 288.91,-343.33"/>
<polygon fill="#63b8ff" stroke="#63b8ff" points="292.41,-343.26 288.69,-333.34 285.41,-343.41 292.41,-343.26"/>
</g>
<!-- Node57&#45;&gt;Node36 -->
<g id="edge37" class="edge">
<title>Node57&#45;&gt;Node36</title>
<path fill="none" stroke="#63b8ff" d="M702.57,-987.99C720.2,-1000.48 752.35,-1021.58 783,-1033 831.59,-1051.11 889.76,-1061.08 932.47,-1066.39"/>
<polygon fill="#63b8ff" stroke="#63b8ff" points="931.96,-1069.86 942.3,-1067.56 932.79,-1062.91 931.96,-1069.86"/>
</g>
<!-- Node58 -->
<g id="node29" class="node">
<title>Node58</title>
<g id="a_node29"><a xlink:href="TransmitterCode_2src_2main_8cpp.html#a5aa4888b924a4f1d95e9cedc3004f2b6" target="_top" xlink:title=" ">
<polygon fill="white" stroke="#666666" points="887,-1024.5 804,-1024.5 804,-1005.5 887,-1005.5 887,-1024.5"/>
<text text-anchor="middle" x="845.5" y="-1012.5" font-family="Helvetica,sans-Serif" font-size="10.00">MakeTwobytes</text>
</a>
</g>
</g>
<!-- Node57&#45;&gt;Node58 -->
<g id="edge34" class="edge">
<title>Node57&#45;&gt;Node58</title>
<path fill="none" stroke="#63b8ff" d="M730.67,-987.92C749.64,-992.43 772.28,-997.82 792.36,-1002.59"/>
<polygon fill="#63b8ff" stroke="#63b8ff" points="791.51,-1005.99 802.05,-1004.9 793.13,-999.18 791.51,-1005.99"/>
</g>
<!-- Node59 -->
<g id="node30" class="node">
<title>Node59</title>
<g id="a_node30"><a xlink:href="ReceiverCode_2src_2main_8cpp.html#a31a35307bbac88ceda244272f25d399a" target="_top" xlink:title=" ">
<polygon fill="white" stroke="#666666" points="897.5,-987.5 793.5,-987.5 793.5,-968.5 897.5,-968.5 897.5,-987.5"/>
<text text-anchor="middle" x="845.5" y="-975.5" font-family="Helvetica,sans-Serif" font-size="10.00">SetTestFrequencies</text>
</a>
</g>
</g>
<!-- Node57&#45;&gt;Node59 -->
<g id="edge36" class="edge">
<title>Node57&#45;&gt;Node59</title>
<path fill="none" stroke="#63b8ff" d="M732.73,-978C747.98,-978 765.41,-978 781.9,-978"/>
<polygon fill="#63b8ff" stroke="#63b8ff" points="781.61,-981.5 791.61,-978 781.61,-974.5 781.61,-981.5"/>
</g>
<!-- Node61&#45;&gt;Node31 -->
<g id="edge43" class="edge">
<title>Node61&#45;&gt;Node31</title>
<path fill="none" stroke="#63b8ff" d="M718.26,-857.1C727.76,-853.32 738.13,-848.55 747,-843 765.14,-831.64 764.27,-821.37 783,-811 785.51,-809.61 788.14,-808.32 790.84,-807.11"/>
<polygon fill="#63b8ff" stroke="#63b8ff" points="792.06,-810.4 800.09,-803.48 789.5,-803.88 792.06,-810.4"/>
</g>
<!-- Node62 -->
<g id="node33" class="node">
<title>Node62</title>
<g id="a_node33"><a xlink:href="TransmitterCode_2src_2main_8cpp.html#a953f1d5046e183549ed95b08f6d675e3" target="_top" xlink:title=" ">
<polygon fill="#fff0f0" stroke="red" points="894.5,-876.5 796.5,-876.5 796.5,-857.5 894.5,-857.5 894.5,-876.5"/>
<text text-anchor="middle" x="845.5" y="-864.5" font-family="Helvetica,sans-Serif" font-size="10.00">CheckGapsLength</text>
</a>
</g>
</g>
<!-- Node61&#45;&gt;Node62 -->
<g id="edge40" class="edge">
<title>Node61&#45;&gt;Node62</title>
<path fill="none" stroke="#63b8ff" d="M736.08,-867C751.4,-867 768.61,-867 784.73,-867"/>
<polygon fill="#63b8ff" stroke="#63b8ff" points="784.72,-870.5 794.72,-867 784.72,-863.5 784.72,-870.5"/>
</g>
<!-- Node42 -->
<g id="node34" class="node">
<title>Node42</title>
<g id="a_node34"><a xlink:href="TransmitterCode_2src_2main_8cpp.html#a62e53eb9359c32b666e3386d62c57037" target="_top" xlink:title=" ">
<polygon fill="#fff0f0" stroke="red" points="881.5,-839.5 809.5,-839.5 809.5,-820.5 881.5,-820.5 881.5,-839.5"/>
<text text-anchor="middle" x="845.5" y="-827.5" font-family="Helvetica,sans-Serif" font-size="10.00">GreenLedOn</text>
</a>
</g>
</g>
<!-- Node61&#45;&gt;Node42 -->
<g id="edge41" class="edge">
<title>Node61&#45;&gt;Node42</title>
<path fill="none" stroke="#63b8ff" d="M730.67,-857.08C751.41,-852.15 776.56,-846.17 797.93,-841.08"/>
<polygon fill="#63b8ff" stroke="#63b8ff" points="798.65,-844.51 807.57,-838.79 797.03,-837.7 798.65,-844.51"/>
</g>
<!-- Node64 -->
<g id="node35" class="node">
<title>Node64</title>
<g id="a_node35"><a xlink:href="TransmitterCode_2src_2main_8cpp.html#a694f4f5a0147f4dc29b0bc1a8951547d" target="_top" xlink:title=" ">
<polygon fill="#fff0f0" stroke="red" points="892.5,-950.5 798.5,-950.5 798.5,-931.5 892.5,-931.5 892.5,-950.5"/>
<text text-anchor="middle" x="845.5" y="-938.5" font-family="Helvetica,sans-Serif" font-size="10.00">ParseAckPayload</text>
</a>
</g>
</g>
<!-- Node61&#45;&gt;Node64 -->
<g id="edge42" class="edge">
<title>Node61&#45;&gt;Node64</title>
<path fill="none" stroke="#63b8ff" d="M703.42,-876.86C721.41,-888.81 753.41,-908.98 783,-922 787.37,-923.92 792,-925.74 796.67,-927.42"/>
<polygon fill="#63b8ff" stroke="#63b8ff" points="795.54,-930.73 806.14,-930.62 797.79,-924.1 795.54,-930.73"/>
</g>
<!-- Node50 -->
<g id="node36" class="node">
<title>Node50</title>
<g id="a_node36"><a xlink:href="TransmitterCode_2src_2main_8cpp.html#a793b7bcd77531c95fe72ed4356d421c8" target="_top" xlink:title=" ">
<polygon fill="white" stroke="#666666" points="900.5,-913.5 790.5,-913.5 790.5,-894.5 900.5,-894.5 900.5,-913.5"/>
<text text-anchor="middle" x="845.5" y="-901.5" font-family="Helvetica,sans-Serif" font-size="10.00">StartInactvityTimeout</text>
</a>
</g>
</g>
<!-- Node61&#45;&gt;Node50 -->
<g id="edge44" class="edge">
<title>Node61&#45;&gt;Node50</title>
<path fill="none" stroke="#63b8ff" d="M730.67,-876.92C749.41,-881.37 771.74,-886.69 791.64,-891.42"/>
<polygon fill="#63b8ff" stroke="#63b8ff" points="790.7,-894.8 801.24,-893.71 792.32,-887.99 790.7,-894.8"/>
</g>
<!-- Node112 -->
<g id="node38" class="node">
<title>Node112</title>
<g id="a_node38"><a xlink:href="TransmitterCode_2src_2main_8cpp.html#acf49567c45af927603ae83a7f46e6534" target="_top" xlink:title=" ">
<polygon fill="white" stroke="#666666" points="725,-312.5 651,-312.5 651,-293.5 725,-293.5 725,-312.5"/>
<text text-anchor="middle" x="688" y="-300.5" font-family="Helvetica,sans-Serif" font-size="10.00">DisplayCurve</text>
</a>
</g>
</g>
<!-- Node111&#45;&gt;Node112 -->
<g id="edge46" class="edge">
<title>Node111&#45;&gt;Node112</title>
<path fill="none" stroke="#63b8ff" d="M576.5,-199.25C582.46,-201.7 588.2,-204.88 593,-209 620.75,-232.83 601.63,-258.75 629,-283 632.36,-285.97 636.18,-288.51 640.22,-290.67"/>
<polygon fill="#63b8ff" stroke="#63b8ff" points="638.65,-293.81 649.21,-294.7 641.51,-287.42 638.65,-293.81"/>
</g>
<!-- Node118 -->
<g id="node44" class="node">
<title>Node118</title>
<g id="a_node44"><a xlink:href="TransmitterCode_2src_2main_8cpp.html#acbef1d41e1bd646b60a6e8afd9c66880" target="_top" xlink:title=" ">
<polygon fill="white" stroke="#666666" points="874.5,-535.5 816.5,-535.5 816.5,-516.5 874.5,-516.5 874.5,-535.5"/>
<text text-anchor="middle" x="845.5" y="-523.5" font-family="Helvetica,sans-Serif" font-size="10.00">DrawLine</text>
</a>
</g>
</g>
<!-- Node111&#45;&gt;Node118 -->
<g id="edge71" class="edge">
<title>Node111&#45;&gt;Node118</title>
<path fill="none" stroke="#63b8ff" d="M576.44,-198.42C582.56,-200.97 588.35,-204.4 593,-209 630.16,-245.79 603.81,-275.18 629,-321 641.88,-344.44 760.86,-491 783,-506 789.7,-510.54 797.5,-514.1 805.24,-516.89"/>
<polygon fill="#63b8ff" stroke="#63b8ff" points="804.02,-520.17 814.61,-519.86 806.14,-513.5 804.02,-520.17"/>
</g>
<!-- Node111&#45;&gt;Node39 -->
<g id="edge74" class="edge">
<title>Node111&#45;&gt;Node39</title>
<path fill="none" stroke="#63b8ff" d="M576.41,-187.47C662.94,-180.09 862.16,-163.11 949.8,-155.64"/>
<polygon fill="#63b8ff" stroke="#63b8ff" points="949.99,-159.14 959.65,-154.8 949.39,-152.16 949.99,-159.14"/>
</g>
<!-- Node122 -->
<g id="node49" class="node">
<title>Node122</title>
<g id="a_node49"><a xlink:href="TransmitterCode_2src_2main_8cpp.html#af1030157034999448f5ca611d6209385" target="_top" xlink:title=" ">
<polygon fill="white" stroke="#666666" points="747,-237.5 629,-237.5 629,-218.5 747,-218.5 747,-237.5"/>
<text text-anchor="middle" x="688" y="-225.5" font-family="Helvetica,sans-Serif" font-size="10.00">GetStickInputInputOnly</text>
</a>
</g>
</g>
<!-- Node111&#45;&gt;Node122 -->
<g id="edge72" class="edge">
<title>Node111&#45;&gt;Node122</title>
<path fill="none" stroke="#63b8ff" d="M575.73,-200.92C593.96,-205.35 615.67,-210.64 635.06,-215.36"/>
<polygon fill="#63b8ff" stroke="#63b8ff" points="634.14,-218.73 644.68,-217.7 635.8,-211.93 634.14,-218.73"/>
</g>
<!-- Node123 -->
<g id="node50" class="node">
<title>Node123</title>
<g id="a_node50"><a xlink:href="TransmitterCode_2src_2main_8cpp.html#a5cdbe11d62e0de7610ba323e60b97d33" target="_top" xlink:title=" ">
<polygon fill="white" stroke="#666666" points="726.5,-274.5 649.5,-274.5 649.5,-255.5 726.5,-255.5 726.5,-274.5"/>
<text text-anchor="middle" x="688" y="-262.5" font-family="Helvetica,sans-Serif" font-size="10.00">IntoLowerRes</text>
</a>
</g>
</g>
<!-- Node111&#45;&gt;Node123 -->
<g id="edge73" class="edge">
<title>Node111&#45;&gt;Node123</title>
<path fill="none" stroke="#63b8ff" d="M576.06,-200.91C581.96,-203.13 587.79,-205.8 593,-209 612.56,-220.99 609.53,-233.85 629,-246 632.1,-247.94 635.42,-249.69 638.84,-251.29"/>
<polygon fill="#63b8ff" stroke="#63b8ff" points="637.32,-254.45 647.9,-255.02 639.98,-247.97 637.32,-254.45"/>
</g>
<!-- Node112&#45;&gt;Node4 -->
<g id="edge63" class="edge">
<title>Node112&#45;&gt;Node4</title>
<path fill="none" stroke="#63b8ff" d="M650.64,-304.73C579.69,-308.12 422.55,-315.61 340.57,-319.52"/>
<polygon fill="#63b8ff" stroke="#63b8ff" points="340.61,-316.01 330.79,-319.98 340.94,-323 340.61,-316.01"/>
</g>
<!-- Node113 -->
<g id="node39" class="node">
<title>Node113</title>
<g id="a_node39"><a xlink:href="TransmitterCode_2src_2main_8cpp.html#a1870ad872e2424cbf8222747d3a43617" target="_top" xlink:title=" ">
<polygon fill="white" stroke="#666666" points="897,-386.5 794,-386.5 794,-367.5 897,-367.5 897,-386.5"/>
<text text-anchor="middle" x="845.5" y="-374.5" font-family="Helvetica,sans-Serif" font-size="10.00">CheckInvisiblePoint</text>
</a>
</g>
</g>
<!-- Node112&#45;&gt;Node113 -->
<g id="edge47" class="edge">
<title>Node112&#45;&gt;Node113</title>
<path fill="none" stroke="#63b8ff" d="M718.21,-312.98C727.71,-316.77 738.09,-321.52 747,-327 764.98,-338.07 764.52,-347.78 783,-358 786.23,-359.79 789.64,-361.43 793.15,-362.93"/>
<polygon fill="#63b8ff" stroke="#63b8ff" points="791.82,-366.17 802.41,-366.49 794.33,-359.63 791.82,-366.17"/>
</g>
<!-- Node114 -->
<g id="node40" class="node">
<title>Node114</title>
<g id="a_node40"><a xlink:href="TransmitterCode_2src_2main_8cpp.html#a5aeea47b9d855ae9911bae1115d02de7" target="_top" xlink:title=" ">
<polygon fill="white" stroke="#666666" points="873.5,-497.5 817.5,-497.5 817.5,-478.5 873.5,-478.5 873.5,-497.5"/>
<text text-anchor="middle" x="845.5" y="-485.5" font-family="Helvetica,sans-Serif" font-size="10.00">ClearBox</text>
</a>
</g>
</g>
<!-- Node112&#45;&gt;Node114 -->
<g id="edge48" class="edge">
<title>Node112&#45;&gt;Node114</title>
<path fill="none" stroke="#63b8ff" d="M694.85,-312.89C705.41,-330.78 728.3,-369.77 747,-403 763.38,-432.12 757.14,-447.85 783,-469 789.74,-474.51 798.07,-478.43 806.39,-481.21"/>
<polygon fill="#63b8ff" stroke="#63b8ff" points="805.18,-484.5 815.75,-483.84 807.08,-477.76 805.18,-484.5"/>
</g>
<!-- Node115 -->
<g id="node41" class="node">
<title>Node115</title>
<g id="a_node41"><a xlink:href="TransmitterCode_2src_2main_8cpp.html#a68b36025c7478c0710565b4fb059d9bc" target="_top" xlink:title=" ">
<polygon fill="white" stroke="#666666" points="887.5,-349.5 803.5,-349.5 803.5,-330.5 887.5,-330.5 887.5,-349.5"/>
<text text-anchor="middle" x="845.5" y="-337.5" font-family="Helvetica,sans-Serif" font-size="10.00">DegsToPercent</text>
</a>
</g>
</g>
<!-- Node112&#45;&gt;Node115 -->
<g id="edge51" class="edge">
<title>Node112&#45;&gt;Node115</title>
<path fill="none" stroke="#63b8ff" d="M725.46,-311.67C745.26,-316.39 770.09,-322.29 791.94,-327.49"/>
<polygon fill="#63b8ff" stroke="#63b8ff" points="791.05,-330.88 801.58,-329.79 792.67,-324.07 791.05,-330.88"/>
</g>
<!-- Node116 -->
<g id="node42" class="node">
<title>Node116</title>
<g id="a_node42"><a xlink:href="TransmitterCode_2src_2main_8cpp.html#a060d8c4636339f7e6760cf835307530e" target="_top" xlink:title=" ">
<polygon fill="white" stroke="#666666" points="873.5,-460.5 817.5,-460.5 817.5,-441.5 873.5,-441.5 873.5,-460.5"/>
<text text-anchor="middle" x="845.5" y="-448.5" font-family="Helvetica,sans-Serif" font-size="10.00">DrawBox</text>
</a>
</g>
</g>
<!-- Node112&#45;&gt;Node116 -->
<g id="edge52" class="edge">
<title>Node112&#45;&gt;Node116</title>
<path fill="none" stroke="#63b8ff" d="M699.73,-312.81C712.09,-324.47 732.56,-344.88 747,-365 766.71,-392.46 756.9,-410.52 783,-432 789.72,-437.53 798.04,-441.45 806.37,-444.24"/>
<polygon fill="#63b8ff" stroke="#63b8ff" points="805.16,-447.53 815.73,-446.87 807.05,-440.79 805.16,-447.53"/>
</g>
<!-- Node117 -->
<g id="node43" class="node">
<title>Node117</title>
<g id="a_node43"><a xlink:href="TransmitterCode_2src_2main_8cpp.html#ad0feb21fbea69455d1d206f142b563ac" target="_top" xlink:title=" ">
<polygon fill="white" stroke="#666666" points="872.5,-423.5 818.5,-423.5 818.5,-404.5 872.5,-404.5 872.5,-423.5"/>
<text text-anchor="middle" x="845.5" y="-411.5" font-family="Helvetica,sans-Serif" font-size="10.00">DrawDot</text>
</a>
</g>
</g>
<!-- Node112&#45;&gt;Node117 -->
<g id="edge55" class="edge">
<title>Node112&#45;&gt;Node117</title>
<path fill="none" stroke="#63b8ff" d="M724.1,-312.99C732.27,-316.48 740.47,-321.06 747,-327 772.3,-350.01 756.66,-373.19 783,-395 789.88,-400.7 798.46,-404.69 807.01,-407.49"/>
<polygon fill="#63b8ff" stroke="#63b8ff" points="806.06,-410.86 816.63,-410.12 807.91,-404.1 806.06,-410.86"/>
</g>
<!-- Node112&#45;&gt;Node118 -->
<g id="edge58" class="edge">
<title>Node112&#45;&gt;Node118</title>
<path fill="none" stroke="#63b8ff" d="M695.58,-312.88C707.09,-330.45 731.16,-368.54 747,-403 767.26,-447.06 748.34,-472.09 783,-506 789.19,-512.06 797.24,-516.28 805.47,-519.23"/>
<polygon fill="#63b8ff" stroke="#63b8ff" points="804.2,-522.5 814.78,-521.98 806.18,-515.79 804.2,-522.5"/>
</g>
<!-- Node119 -->
<g id="node45" class="node">
<title>Node119</title>
<g id="a_node45"><a xlink:href="TransmitterCode_2src_2main_8cpp.html#a4abc073f79b7ab2a2b4429990420cbf0" target="_top" xlink:title="Uses servo degrees to position dots.">
<polygon fill="white" stroke="#666666" points="889.5,-312.5 801.5,-312.5 801.5,-293.5 889.5,-293.5 889.5,-312.5"/>
<text text-anchor="middle" x="845.5" y="-300.5" font-family="Helvetica,sans-Serif" font-size="10.00">GetDotPositions</text>
</a>
</g>
</g>
<!-- Node112&#45;&gt;Node119 -->
<g id="edge61" class="edge">
<title>Node112&#45;&gt;Node119</title>
<path fill="none" stroke="#63b8ff" d="M725.46,-303C744.54,-303 768.31,-303 789.57,-303"/>
<polygon fill="#63b8ff" stroke="#63b8ff" points="789.57,-306.5 799.57,-303 789.57,-299.5 789.57,-306.5"/>
</g>
<!-- Node120 -->
<g id="node46" class="node">
<title>Node120</title>
<g id="a_node46"><a xlink:href="TransmitterCode_2src_2main_8cpp.html#a927484b01116cd14fd1ade706bc06d51" target="_top" xlink:title=" ">
<polygon fill="white" stroke="#666666" points="897.5,-236.5 793.5,-236.5 793.5,-217.5 897.5,-217.5 897.5,-236.5"/>
<text text-anchor="middle" x="845.5" y="-224.5" font-family="Helvetica,sans-Serif" font-size="10.00">MapWithExponential</text>
</a>
</g>
</g>
<!-- Node112&#45;&gt;Node120 -->
<g id="edge62" class="edge">
<title>Node112&#45;&gt;Node120</title>
<path fill="none" stroke="#63b8ff" d="M724.95,-293.08C732.48,-290.33 740.2,-286.98 747,-283 765.48,-272.19 764.74,-262.18 783,-251 789.03,-247.31 795.72,-244 802.41,-241.11"/>
<polygon fill="#63b8ff" stroke="#63b8ff" points="803.46,-244.46 811.42,-237.48 800.84,-237.97 803.46,-244.46"/>
</g>
<!-- Node112&#45;&gt;Node39 -->
<g id="edge64" class="edge">
<title>Node112&#45;&gt;Node39</title>
<path fill="none" stroke="#63b8ff" d="M725.21,-296.01C779.09,-285.18 877.33,-263.64 908,-245 939.08,-226.11 965.52,-192.38 980.18,-171.15"/>
<polygon fill="#63b8ff" stroke="#63b8ff" points="982.9,-173.37 985.55,-163.11 977.09,-169.48 982.9,-173.37"/>
</g>
<!-- Node121 -->
<g id="node48" class="node">
<title>Node121</title>
<g id="a_node48"><a xlink:href="TransmitterCode_2src_2main_8cpp.html#a3d20af2f1fee81198a0cef2d4500083a" target="_top" xlink:title=" ">
<polygon fill="white" stroke="#666666" points="908,-199.5 783,-199.5 783,-180.5 908,-180.5 908,-199.5"/>
<text text-anchor="middle" x="845.5" y="-187.5" font-family="Helvetica,sans-Serif" font-size="10.00">updateInterpolationTypes</text>
</a>
</g>
</g>
<!-- Node112&#45;&gt;Node121 -->
<g id="edge68" class="edge">
<title>Node112&#45;&gt;Node121</title>
<path fill="none" stroke="#63b8ff" d="M725.43,-295.34C733.19,-292.44 740.88,-288.46 747,-283 774.61,-258.41 754.82,-231.93 783,-208 783.95,-207.19 784.94,-206.42 785.96,-205.68"/>
<polygon fill="#63b8ff" stroke="#63b8ff" points="787.63,-208.75 794.5,-200.69 784.1,-202.71 787.63,-208.75"/>
</g>
<!-- Node114&#45;&gt;Node4 -->
<g id="edge49" class="edge">
<title>Node114&#45;&gt;Node4</title>
<path fill="none" stroke="#63b8ff" d="M817.1,-482.51C728.26,-464.49 449.01,-406.22 365,-369 346.01,-360.59 326.06,-348.2 311.3,-338.25"/>
<polygon fill="#63b8ff" stroke="#63b8ff" points="313.45,-335.48 303.23,-332.69 309.48,-341.25 313.45,-335.48"/>
</g>
<!-- Node114&#45;&gt;Node26 -->
<g id="edge50" class="edge">
<title>Node114&#45;&gt;Node26</title>
<path fill="none" stroke="#63b8ff" d="M873.93,-488.1C927.01,-488.29 1043.09,-488.72 1094.33,-488.91"/>
<polygon fill="#63b8ff" stroke="#63b8ff" points="1094.09,-492.41 1104.1,-488.94 1094.12,-485.41 1094.09,-492.41"/>
</g>
<!-- Node116&#45;&gt;Node4 -->
<g id="edge53" class="edge">
<title>Node116&#45;&gt;Node4</title>
<path fill="none" stroke="#63b8ff" d="M817.03,-445.67C743.38,-431.23 535.58,-389.43 365,-345 353.73,-342.06 341.61,-338.58 330.43,-335.22"/>
<polygon fill="#63b8ff" stroke="#63b8ff" points="331.65,-331.93 321.06,-332.37 329.61,-338.63 331.65,-331.93"/>
</g>
<!-- Node116&#45;&gt;Node26 -->
<g id="edge54" class="edge">
<title>Node116&#45;&gt;Node26</title>
<path fill="none" stroke="#63b8ff" d="M873.93,-454.82C927.01,-462.21 1043.09,-478.36 1094.33,-485.5"/>
<polygon fill="#63b8ff" stroke="#63b8ff" points="1093.73,-488.95 1104.12,-486.86 1094.69,-482.01 1093.73,-488.95"/>
</g>
<!-- Node117&#45;&gt;Node4 -->
<g id="edge56" class="edge">
<title>Node117&#45;&gt;Node4</title>
<path fill="none" stroke="#63b8ff" d="M818.15,-408.31C806.91,-405.27 793.9,-400.92 783,-395 764.69,-385.07 766.23,-373 747,-365 728.47,-357.29 456.78,-335.21 340.58,-326.05"/>
<polygon fill="#63b8ff" stroke="#63b8ff" points="340.93,-322.57 330.69,-325.28 340.38,-329.55 340.93,-322.57"/>
</g>
<!-- Node117&#45;&gt;Node26 -->
<g id="edge57" class="edge">
<title>Node117&#45;&gt;Node26</title>
<path fill="none" stroke="#63b8ff" d="M872.79,-419.55C910.69,-427.74 982.75,-444.06 1043,-462 1060.64,-467.25 1080.21,-474.18 1095.14,-479.7"/>
<polygon fill="#63b8ff" stroke="#63b8ff" points="1093.53,-482.84 1104.12,-483.07 1095.98,-476.28 1093.53,-482.84"/>
</g>
<!-- Node118&#45;&gt;Node4 -->
<g id="edge59" class="edge">
<title>Node118&#45;&gt;Node4</title>
<path fill="none" stroke="#63b8ff" d="M817.79,-535.91C754.6,-557.65 592.42,-603.34 475,-548 382.1,-504.21 319.73,-388.93 297.52,-342.15"/>
<polygon fill="#63b8ff" stroke="#63b8ff" points="300.75,-340.8 293.38,-333.2 294.4,-343.74 300.75,-340.8"/>
</g>
<!-- Node118&#45;&gt;Node26 -->
<g id="edge60" class="edge">
<title>Node118&#45;&gt;Node26</title>
<path fill="none" stroke="#63b8ff" d="M874.89,-523.26C913.16,-519.43 983.39,-511.93 1043,-503 1060.38,-500.39 1079.87,-496.82 1094.83,-493.93"/>
<polygon fill="#63b8ff" stroke="#63b8ff" points="1095.1,-497.45 1104.24,-492.09 1093.75,-490.58 1095.1,-497.45"/>
</g>
<!-- Node39&#45;&gt;Node3 -->
<g id="edge65" class="edge">
<title>Node39&#45;&gt;Node3</title>
<path fill="none" stroke="#63b8ff" d="M1010.84,-142.06C1031.9,-129.26 1068.74,-106.86 1093.62,-91.73"/>
<polygon fill="#63b8ff" stroke="#63b8ff" points="1095.13,-94.91 1101.86,-86.72 1091.5,-88.93 1095.13,-94.91"/>
</g>
<!-- Node39&#45;&gt;Node4 -->
<g id="edge66" class="edge">
<title>Node39&#45;&gt;Node4</title>
<path fill="none" stroke="#63b8ff" d="M961.2,-145.47C906.34,-134.6 789.1,-114 689,-114 533,-114 533,-114 533,-114 453.71,-114 424.69,-121.82 365,-174 325.21,-208.79 303.24,-269.33 293.93,-301.12"/>
<polygon fill="#63b8ff" stroke="#63b8ff" points="290.58,-300.11 291.28,-310.68 297.33,-301.98 290.58,-300.11"/>
</g>
<!-- Node39&#45;&gt;Node26 -->
<g id="edge67" class="edge">
<title>Node39&#45;&gt;Node26</title>
<path fill="none" stroke="#63b8ff" d="M998.11,-161.72C1015.18,-207.75 1088.05,-404.2 1111.91,-468.52"/>
<polygon fill="#63b8ff" stroke="#63b8ff" points="1108.59,-469.66 1115.35,-477.82 1115.16,-467.23 1108.59,-469.66"/>
</g>
<!-- Node121&#45;&gt;Node4 -->
<g id="edge69" class="edge">
<title>Node121&#45;&gt;Node4</title>
<path fill="none" stroke="#63b8ff" d="M788.69,-180.04C715.97,-168.71 585.13,-153.97 475,-172 424.1,-180.33 406.06,-177.78 365,-209 332.29,-233.87 308.79,-276.91 297.03,-302.08"/>
<polygon fill="#63b8ff" stroke="#63b8ff" points="293.98,-300.32 293.09,-310.88 300.37,-303.19 293.98,-300.32"/>
</g>
<!-- Node121&#45;&gt;Node39 -->
<g id="edge70" class="edge">
<title>Node121&#45;&gt;Node39</title>
<path fill="none" stroke="#63b8ff" d="M884.86,-180.02C904.96,-174.78 929.63,-168.36 950.27,-162.99"/>
<polygon fill="#63b8ff" stroke="#63b8ff" points="951.01,-166.41 959.81,-160.51 949.25,-159.64 951.01,-166.41"/>
</g>
</g>
</svg>
