<?xml version="1.0" encoding="UTF-8" standalone="no"?>
<!DOCTYPE svg PUBLIC "-//W3C//DTD SVG 1.1//EN"
 "http://www.w3.org/Graphics/SVG/1.1/DTD/svg11.dtd">
<!-- Generated by graphviz version 7.0.5 (20221223.1930)
 -->
<!-- Title: GetBuddyData Pages: 1 -->
<svg width="1487pt" height="983pt"
 viewBox="0.00 0.00 1487.00 983.00" xmlns="http://www.w3.org/2000/svg" xmlns:xlink="http://www.w3.org/1999/xlink">
<g id="graph0" class="graph" transform="scale(1 1) rotate(0) translate(4 979)">
<title>GetBuddyData</title>
<!-- Node1 -->
<g id="node1" class="node">
<title>Node1</title>
<g id="a_node1"><a xlink:title=" ">
<polygon fill="#999999" stroke="#666666" points="80,-270.5 0,-270.5 0,-251.5 80,-251.5 80,-270.5"/>
<text text-anchor="middle" x="40" y="-258.5" font-family="Helvetica,sans-Serif" font-size="10.00">GetBuddyData</text>
</a>
</g>
</g>
<!-- Node2 -->
<g id="node2" class="node">
<title>Node2</title>
<g id="a_node2"><a xlink:href="BuddyPPM_8h.html#a9c9e7f489bda19dbb591d5cdac3fa45b" target="_top" xlink:title=" ">
<polygon fill="white" stroke="#666666" points="268,-289.5 124,-289.5 124,-270.5 268,-270.5 268,-289.5"/>
<text text-anchor="middle" x="196" y="-277.5" font-family="Helvetica,sans-Serif" font-size="10.00">GetSlaveChannelValuesPPM</text>
</a>
</g>
</g>
<!-- Node1&#45;&gt;Node2 -->
<g id="edge1" class="edge">
<title>Node1&#45;&gt;Node2</title>
<path fill="none" stroke="#63b8ff" d="M80.26,-265.84C90.22,-267.07 101.3,-268.44 112.53,-269.82"/>
<polygon fill="#63b8ff" stroke="#63b8ff" points="111.92,-273.28 122.28,-271.03 112.78,-266.33 111.92,-273.28"/>
</g>
<!-- Node225 -->
<g id="node50" class="node">
<title>Node225</title>
<g id="a_node50"><a xlink:href="BuddyWireless_8h.html#a790b14444d8cdb4c3ae4e9884e3550d7" target="_top" xlink:title=" ">
<polygon fill="white" stroke="#666666" points="276,-252.5 116,-252.5 116,-233.5 276,-233.5 276,-252.5"/>
<text text-anchor="middle" x="196" y="-240.5" font-family="Helvetica,sans-Serif" font-size="10.00">GetSlaveChannelValuesWireless</text>
</a>
</g>
</g>
<!-- Node1&#45;&gt;Node225 -->
<g id="edge72" class="edge">
<title>Node1&#45;&gt;Node225</title>
<path fill="none" stroke="#63b8ff" d="M80.26,-256.41C87.82,-255.53 96.02,-254.57 104.45,-253.58"/>
<polygon fill="#63b8ff" stroke="#63b8ff" points="104.59,-257.09 114.12,-252.45 103.78,-250.14 104.59,-257.09"/>
</g>
<!-- Node3 -->
<g id="node3" class="node">
<title>Node3</title>
<g id="a_node3"><a xlink:href="Utilities_8h.html#aa490b4664b0a4498d53b30b82287d5df" target="_top" xlink:title=" ">
<polygon fill="white" stroke="#666666" points="375,-270.5 312,-270.5 312,-251.5 375,-251.5 375,-270.5"/>
<text text-anchor="middle" x="343.5" y="-258.5" font-family="Helvetica,sans-Serif" font-size="10.00">PlaySound</text>
</a>
</g>
</g>
<!-- Node2&#45;&gt;Node3 -->
<g id="edge2" class="edge">
<title>Node2&#45;&gt;Node3</title>
<path fill="none" stroke="#63b8ff" d="M268.47,-270.67C279.42,-269.24 290.41,-267.8 300.45,-266.49"/>
<polygon fill="#63b8ff" stroke="#63b8ff" points="300.77,-269.98 310.23,-265.21 299.86,-263.04 300.77,-269.98"/>
</g>
<!-- Node4 -->
<g id="node4" class="node">
<title>Node4</title>
<g id="a_node4"><a xlink:href="Nextion_8h.html#aecac2f0c289f02ef3c92b85be82eacac" target="_top" xlink:title=" ">
<polygon fill="white" stroke="#666666" points="494,-270.5 411,-270.5 411,-251.5 494,-251.5 494,-270.5"/>
<text text-anchor="middle" x="452.5" y="-258.5" font-family="Helvetica,sans-Serif" font-size="10.00">SendCommand</text>
</a>
</g>
</g>
<!-- Node3&#45;&gt;Node4 -->
<g id="edge3" class="edge">
<title>Node3&#45;&gt;Node4</title>
<path fill="none" stroke="#63b8ff" d="M375.45,-261C382.92,-261 391.1,-261 399.25,-261"/>
<polygon fill="#63b8ff" stroke="#63b8ff" points="399.15,-264.5 409.15,-261 399.15,-257.5 399.15,-264.5"/>
</g>
<!-- Node32 -->
<g id="node39" class="node">
<title>Node32</title>
<g id="a_node39"><a xlink:href="Utilities_8h.html#a590a9174319918d7e3d7baca323fcf26" target="_top" xlink:title=" ">
<polygon fill="white" stroke="#666666" points="1319.5,-965.5 1290.5,-965.5 1290.5,-946.5 1319.5,-946.5 1319.5,-965.5"/>
<text text-anchor="middle" x="1305" y="-953.5" font-family="Helvetica,sans-Serif" font-size="10.00">Str</text>
</a>
</g>
</g>
<!-- Node3&#45;&gt;Node32 -->
<g id="edge71" class="edge">
<title>Node3&#45;&gt;Node32</title>
<path fill="none" stroke="#63b8ff" d="M345.34,-270.82C352.9,-356.58 412.8,-975 567.5,-975 567.5,-975 567.5,-975 991,-975 1098.35,-975 1226.03,-963.73 1279.03,-958.55"/>
<polygon fill="#63b8ff" stroke="#63b8ff" points="1279.18,-962.05 1288.78,-957.58 1278.49,-955.08 1279.18,-962.05"/>
</g>
<!-- Node5 -->
<g id="node5" class="node">
<title>Node5</title>
<g id="a_node5"><a xlink:href="Utilities_8h.html#a3b1d8aa403e2724e55c71da3d9d13e7e" target="_top" xlink:title=" ">
<polygon fill="white" stroke="#666666" points="607,-384.5 530,-384.5 530,-365.5 607,-365.5 607,-384.5"/>
<text text-anchor="middle" x="568.5" y="-372.5" font-family="Helvetica,sans-Serif" font-size="10.00">DelayWithDog</text>
</a>
</g>
</g>
<!-- Node4&#45;&gt;Node5 -->
<g id="edge4" class="edge">
<title>Node4&#45;&gt;Node5</title>
<path fill="none" stroke="#63b8ff" d="M460.28,-270.75C472.73,-288.21 500.65,-325.37 530,-351 533.15,-353.75 536.65,-356.42 540.21,-358.91"/>
<polygon fill="#63b8ff" stroke="#63b8ff" points="538.01,-361.65 548.3,-364.2 541.84,-355.79 538.01,-361.65"/>
</g>
<!-- Node41 -->
<g id="node17" class="node">
<title>Node41</title>
<g id="a_node17"><a xlink:href="Nextion_8h.html#a43937dd3d9c795271fd9c3eb3c6b6410" target="_top" xlink:title=" ">
<polygon fill="white" stroke="#666666" points="1479,-121.5 1396,-121.5 1396,-102.5 1479,-102.5 1479,-121.5"/>
<text text-anchor="middle" x="1437.5" y="-109.5" font-family="Helvetica,sans-Serif" font-size="10.00">GetReturnCode</text>
</a>
</g>
</g>
<!-- Node4&#45;&gt;Node41 -->
<g id="edge69" class="edge">
<title>Node4&#45;&gt;Node41</title>
<path fill="none" stroke="#63b8ff" d="M454.27,-251.25C457.37,-218.64 471.7,-112.19 530,-54 579.26,-4.83 607.4,0 677,0 677,0 677,0 1151.5,0 1255.01,0 1365.94,-64.79 1413.12,-95.82"/>
<polygon fill="#63b8ff" stroke="#63b8ff" points="1410.93,-98.56 1421.19,-101.22 1414.82,-92.75 1410.93,-98.56"/>
</g>
<!-- Node119 -->
<g id="node49" class="node">
<title>Node119</title>
<g id="a_node49"><a xlink:href="TransmitterCode_2src_2main_8cpp.html#a5f109790a6fe0b972a502f3cac4ed1e7" target="_top" xlink:title=" ">
<polygon fill="white" stroke="#666666" points="592.5,-308.5 544.5,-308.5 544.5,-289.5 592.5,-289.5 592.5,-308.5"/>
<text text-anchor="middle" x="568.5" y="-296.5" font-family="Helvetica,sans-Serif" font-size="10.00">InStrng</text>
</a>
</g>
</g>
<!-- Node4&#45;&gt;Node119 -->
<g id="edge70" class="edge">
<title>Node4&#45;&gt;Node119</title>
<path fill="none" stroke="#63b8ff" d="M483.45,-270.98C498.89,-276.13 517.77,-282.42 533.73,-287.74"/>
<polygon fill="#63b8ff" stroke="#63b8ff" points="532.19,-290.92 542.79,-290.76 534.41,-284.28 532.19,-290.92"/>
</g>
<!-- Node6 -->
<g id="node6" class="node">
<title>Node6</title>
<g id="a_node6"><a xlink:href="Utilities_8h.html#ada95a00a341e4a80176eda743a94ab2e" target="_top" xlink:title=" ">
<polygon fill="white" stroke="#666666" points="713,-384.5 643,-384.5 643,-365.5 713,-365.5 713,-384.5"/>
<text text-anchor="middle" x="678" y="-372.5" font-family="Helvetica,sans-Serif" font-size="10.00">KickTheDog</text>
</a>
</g>
</g>
<!-- Node5&#45;&gt;Node6 -->
<g id="edge5" class="edge">
<title>Node5&#45;&gt;Node6</title>
<path fill="none" stroke="#63b8ff" d="M607.4,-375C615.12,-375 623.31,-375 631.27,-375"/>
<polygon fill="#63b8ff" stroke="#63b8ff" points="631.16,-378.5 641.16,-375 631.16,-371.5 631.16,-378.5"/>
</g>
<!-- Node7 -->
<g id="node7" class="node">
<title>Node7</title>
<g id="a_node7"><a xlink:href="transceiver_8h.html#a049bfb836e7aa4a3a48a1a4bd225fafc" target="_top" xlink:title=" ">
<polygon fill="white" stroke="#666666" points="707.5,-647.5 648.5,-647.5 648.5,-628.5 707.5,-628.5 707.5,-647.5"/>
<text text-anchor="middle" x="678" y="-635.5" font-family="Helvetica,sans-Serif" font-size="10.00">SendData</text>
</a>
</g>
</g>
<!-- Node5&#45;&gt;Node7 -->
<g id="edge6" class="edge">
<title>Node5&#45;&gt;Node7</title>
<path fill="none" stroke="#63b8ff" d="M573.58,-384.99C589.41,-423.72 646.94,-564.45 668.64,-617.54"/>
<polygon fill="#63b8ff" stroke="#63b8ff" points="665.32,-618.67 672.34,-626.6 671.8,-616.02 665.32,-618.67"/>
</g>
<!-- Node8 -->
<g id="node8" class="node">
<title>Node8</title>
<g id="a_node8"><a xlink:href="transceiver_8h.html#a1ddd5e8d5bd649dd98ce3710fbff651b" target="_top" xlink:title=" ">
<polygon fill="white" stroke="#666666" points="851.5,-758.5 790.5,-758.5 790.5,-739.5 851.5,-739.5 851.5,-758.5"/>
<text text-anchor="middle" x="821" y="-746.5" font-family="Helvetica,sans-Serif" font-size="10.00">Compress</text>
</a>
</g>
</g>
<!-- Node7&#45;&gt;Node8 -->
<g id="edge7" class="edge">
<title>Node7&#45;&gt;Node8</title>
<path fill="none" stroke="#63b8ff" d="M683.58,-647.9C692.99,-667.08 716.36,-709.29 749,-731 757.94,-736.95 768.71,-740.93 779.13,-743.6"/>
<polygon fill="#63b8ff" stroke="#63b8ff" points="778.2,-746.98 788.71,-745.68 779.69,-740.14 778.2,-746.98"/>
</g>
<!-- Node9 -->
<g id="node9" class="node">
<title>Node9</title>
<g id="a_node9"><a xlink:href="transceiver_8h.html#a4144c213e5448a7e02d4172881f08219" target="_top" xlink:title=" ">
<polygon fill="white" stroke="#666666" points="893,-721.5 749,-721.5 749,-702.5 893,-702.5 893,-721.5"/>
<text text-anchor="middle" x="821" y="-709.5" font-family="Helvetica,sans-Serif" font-size="10.00">EncodeTheChangedChannels</text>
</a>
</g>
</g>
<!-- Node7&#45;&gt;Node9 -->
<g id="edge8" class="edge">
<title>Node7&#45;&gt;Node9</title>
<path fill="none" stroke="#63b8ff" d="M688.48,-647.84C701.13,-660.4 724.75,-681.94 749,-694 752.09,-695.54 755.32,-696.95 758.63,-698.25"/>
<polygon fill="#63b8ff" stroke="#63b8ff" points="757.36,-701.51 767.95,-701.51 759.67,-694.9 757.36,-701.51"/>
</g>
<!-- Node10 -->
<g id="node10" class="node">
<title>Node10</title>
<g id="a_node10"><a xlink:href="transceiver_8h.html#a5fbd3c8613a4163425c94965704ce5f8" target="_top" xlink:title=" ">
<polygon fill="white" stroke="#666666" points="858,-610.5 784,-610.5 784,-591.5 858,-591.5 858,-610.5"/>
<text text-anchor="middle" x="821" y="-598.5" font-family="Helvetica,sans-Serif" font-size="10.00">FailedPacket</text>
</a>
</g>
</g>
<!-- Node7&#45;&gt;Node10 -->
<g id="edge9" class="edge">
<title>Node7&#45;&gt;Node10</title>
<path fill="none" stroke="#63b8ff" d="M707.87,-630.42C726.54,-625.53 751.26,-619.04 772.74,-613.4"/>
<polygon fill="#63b8ff" stroke="#63b8ff" points="773.38,-616.85 782.17,-610.93 771.61,-610.08 773.38,-616.85"/>
</g>
<!-- Node47 -->
<g id="node23" class="node">
<title>Node47</title>
<g id="a_node23"><a xlink:href="common_8h.html#a6e2d4126d864c50e7c23c988c2bfdd1a" target="_top" xlink:title=" ">
<polygon fill="white" stroke="#666666" points="1328.5,-646.5 1281.5,-646.5 1281.5,-627.5 1328.5,-627.5 1328.5,-646.5"/>
<text text-anchor="middle" x="1305" y="-634.5" font-family="Helvetica,sans-Serif" font-size="10.00">Radio1</text>
</a>
</g>
</g>
<!-- Node7&#45;&gt;Node47 -->
<g id="edge29" class="edge">
<title>Node7&#45;&gt;Node47</title>
<path fill="none" stroke="#63b8ff" d="M680.78,-647.84C685.96,-673.24 703.67,-740.92 749,-768 803.95,-800.82 829.12,-771.96 893,-768 1036.49,-759.09 1085.01,-791.5 1214,-728 1247.41,-711.55 1275.64,-677.65 1291.16,-656.18"/>
<polygon fill="#63b8ff" stroke="#63b8ff" points="1294.01,-658.22 1296.86,-648.02 1288.27,-654.22 1294.01,-658.22"/>
</g>
<!-- Node50 -->
<g id="node25" class="node">
<title>Node50</title>
<g id="a_node25"><a xlink:href="transceiver_8h.html#a07c27b4e208198453c70876517926052" target="_top" xlink:title=" ">
<polygon fill="white" stroke="#666666" points="852,-684.5 790,-684.5 790,-665.5 852,-665.5 852,-684.5"/>
<text text-anchor="middle" x="821" y="-672.5" font-family="Helvetica,sans-Serif" font-size="10.00">FlushFifos</text>
</a>
</g>
</g>
<!-- Node7&#45;&gt;Node50 -->
<g id="edge27" class="edge">
<title>Node7&#45;&gt;Node50</title>
<path fill="none" stroke="#63b8ff" d="M707.92,-645.97C720.52,-649.41 735.48,-653.45 749,-657 758.55,-659.51 768.83,-662.15 778.53,-664.61"/>
<polygon fill="#63b8ff" stroke="#63b8ff" points="777.55,-667.97 788.1,-667.03 779.26,-661.19 777.55,-667.97"/>
</g>
<!-- Node51 -->
<g id="node26" class="node">
<title>Node51</title>
<g id="a_node26"><a xlink:href="transceiver_8h.html#a65249d0ac8676541d13ced58b1ce7624" target="_top" xlink:title=" ">
<polygon fill="white" stroke="#666666" points="880.5,-845.5 761.5,-845.5 761.5,-826.5 880.5,-826.5 880.5,-845.5"/>
<text text-anchor="middle" x="821" y="-833.5" font-family="Helvetica,sans-Serif" font-size="10.00">SendExtraParamemters</text>
</a>
</g>
</g>
<!-- Node7&#45;&gt;Node51 -->
<g id="edge30" class="edge">
<title>Node7&#45;&gt;Node51</title>
<path fill="none" stroke="#63b8ff" d="M680.69,-647.83C685.91,-675.53 704.25,-755.27 749,-802 756.72,-810.06 766.73,-816.43 776.8,-821.38"/>
<polygon fill="#63b8ff" stroke="#63b8ff" points="775.27,-824.53 785.83,-825.41 778.12,-818.14 775.27,-824.53"/>
</g>
<!-- Node55 -->
<g id="node30" class="node">
<title>Node55</title>
<g id="a_node30"><a xlink:href="BuddyWireless_8h.html#a41c327908c92572d0d3eebbb19160d86" target="_top" xlink:title=" ">
<polygon fill="white" stroke="#666666" points="1041,-535.5 939,-535.5 939,-516.5 1041,-516.5 1041,-535.5"/>
<text text-anchor="middle" x="990" y="-523.5" font-family="Helvetica,sans-Serif" font-size="10.00">SendSpecialPacket</text>
</a>
</g>
</g>
<!-- Node7&#45;&gt;Node55 -->
<g id="edge35" class="edge">
<title>Node7&#45;&gt;Node55</title>
<path fill="none" stroke="#63b8ff" d="M683.18,-628.02C692.03,-608.35 714.69,-564.82 749,-546 803.87,-515.9 876.62,-514.16 927.59,-517.91"/>
<polygon fill="#63b8ff" stroke="#63b8ff" points="927,-521.37 937.25,-518.72 927.58,-514.4 927,-521.37"/>
</g>
<!-- Node59 -->
<g id="node34" class="node">
<title>Node59</title>
<g id="a_node34"><a xlink:href="BuddyPPM_8h.html#a784a1eca0361b3991bca899167cc1cdb" target="_top" xlink:title=" ">
<polygon fill="white" stroke="#666666" points="858.5,-573.5 783.5,-573.5 783.5,-554.5 858.5,-554.5 858.5,-573.5"/>
<text text-anchor="middle" x="821" y="-561.5" font-family="Helvetica,sans-Serif" font-size="10.00">SendViaPPM</text>
</a>
</g>
</g>
<!-- Node7&#45;&gt;Node59 -->
<g id="edge43" class="edge">
<title>Node7&#45;&gt;Node59</title>
<path fill="none" stroke="#63b8ff" d="M688.54,-628.39C701.25,-616.11 724.95,-595.03 749,-583 756.3,-579.35 764.38,-576.34 772.4,-573.87"/>
<polygon fill="#63b8ff" stroke="#63b8ff" points="773.07,-577.32 781.75,-571.25 771.18,-570.58 773.07,-577.32"/>
</g>
<!-- Node60 -->
<g id="node35" class="node">
<title>Node60</title>
<g id="a_node35"><a xlink:href="transceiver_8h.html#a990aa54242f1573e74316dec4a612eef" target="_top" xlink:title=" ">
<polygon fill="white" stroke="#666666" points="1196.5,-459.5 1104.5,-459.5 1104.5,-440.5 1196.5,-440.5 1196.5,-459.5"/>
<text text-anchor="middle" x="1150.5" y="-447.5" font-family="Helvetica,sans-Serif" font-size="10.00">ShowPacketData</text>
</a>
</g>
</g>
<!-- Node7&#45;&gt;Node60 -->
<g id="edge44" class="edge">
<title>Node7&#45;&gt;Node60</title>
<path fill="none" stroke="#63b8ff" d="M681.31,-628.13C687.53,-603.87 707.12,-541.19 749,-512 853.23,-439.36 1009.67,-438.35 1092.82,-444.06"/>
<polygon fill="#63b8ff" stroke="#63b8ff" points="1092.55,-447.55 1102.79,-444.81 1093.08,-440.57 1092.55,-447.55"/>
</g>
<!-- Node61 -->
<g id="node36" class="node">
<title>Node61</title>
<g id="a_node36"><a xlink:href="transceiver_8h.html#a1c11bb6771548de7d96723045b922620" target="_top" xlink:title=" ">
<polygon fill="white" stroke="#666666" points="869,-647.5 773,-647.5 773,-628.5 869,-628.5 869,-647.5"/>
<text text-anchor="middle" x="821" y="-635.5" font-family="Helvetica,sans-Serif" font-size="10.00">SuccessfulPacket</text>
</a>
</g>
</g>
<!-- Node7&#45;&gt;Node61 -->
<g id="edge47" class="edge">
<title>Node7&#45;&gt;Node61</title>
<path fill="none" stroke="#63b8ff" d="M707.87,-638C723.29,-638 742.83,-638 761.28,-638"/>
<polygon fill="#63b8ff" stroke="#63b8ff" points="761.06,-641.5 771.06,-638 761.06,-634.5 761.06,-641.5"/>
</g>
<!-- Node11 -->
<g id="node11" class="node">
<title>Node11</title>
<g id="a_node11"><a xlink:href="transceiver_8h.html#afc091b5942e21a03f6dc8635d5e519ba" target="_top" xlink:title=" ">
<polygon fill="white" stroke="#666666" points="1051,-610.5 929,-610.5 929,-591.5 1051,-591.5 1051,-610.5"/>
<text text-anchor="middle" x="990" y="-598.5" font-family="Helvetica,sans-Serif" font-size="10.00">RecordsPacketSuccess</text>
</a>
</g>
</g>
<!-- Node10&#45;&gt;Node11 -->
<g id="edge10" class="edge">
<title>Node10&#45;&gt;Node11</title>
<path fill="none" stroke="#63b8ff" d="M858.24,-601C875.48,-601 896.73,-601 917.05,-601"/>
<polygon fill="#63b8ff" stroke="#63b8ff" points="917.02,-604.5 927.02,-601 917.02,-597.5 917.02,-604.5"/>
</g>
<!-- Node12 -->
<g id="node12" class="node">
<title>Node12</title>
<g id="a_node12"><a xlink:href="TransmitterCode_2src_2main_8cpp.html#a7d34cec6e8edc20c8b50424e15dcc7c7" target="_top" xlink:title=" ">
<polygon fill="white" stroke="#666666" points="1021.5,-232.5 958.5,-232.5 958.5,-213.5 1021.5,-213.5 1021.5,-232.5"/>
<text text-anchor="middle" x="990" y="-220.5" font-family="Helvetica,sans-Serif" font-size="10.00">RedLedOn</text>
</a>
</g>
</g>
<!-- Node10&#45;&gt;Node12 -->
<g id="edge11" class="edge">
<title>Node10&#45;&gt;Node12</title>
<path fill="none" stroke="#63b8ff" d="M858.15,-599.19C870.63,-596.82 883.77,-592.12 893,-583 905.53,-570.62 966.27,-318.56 984.08,-243.76"/>
<polygon fill="#63b8ff" stroke="#63b8ff" points="987.38,-244.99 986.29,-234.45 980.57,-243.37 987.38,-244.99"/>
</g>
<!-- Node43 -->
<g id="node19" class="node">
<title>Node43</title>
<g id="a_node19"><a xlink:href="transceiver_8h.html#ad0236abcfc887ad708d9504c4ab2a7c3" target="_top" xlink:title=" ">
<polygon fill="white" stroke="#666666" points="1034,-573.5 946,-573.5 946,-554.5 1034,-554.5 1034,-573.5"/>
<text text-anchor="middle" x="990" y="-561.5" font-family="Helvetica,sans-Serif" font-size="10.00">TryToReconnect</text>
</a>
</g>
</g>
<!-- Node10&#45;&gt;Node43 -->
<g id="edge21" class="edge">
<title>Node10&#45;&gt;Node43</title>
<path fill="none" stroke="#63b8ff" d="M858.24,-592.97C880.53,-588.03 909.53,-581.61 934.55,-576.06"/>
<polygon fill="#63b8ff" stroke="#63b8ff" points="935.24,-579.49 944.25,-573.91 933.73,-572.66 935.24,-579.49"/>
</g>
<!-- Node12&#45;&gt;Node3 -->
<g id="edge15" class="edge">
<title>Node12&#45;&gt;Node3</title>
<path fill="none" stroke="#63b8ff" d="M958.35,-216.73C902.88,-205.93 782.02,-185 679,-185 567.5,-185 567.5,-185 567.5,-185 493.16,-185 411.97,-223.31 371.13,-245.53"/>
<polygon fill="#63b8ff" stroke="#63b8ff" points="369.54,-242.41 362.5,-250.33 372.95,-248.53 369.54,-242.41"/>
</g>
<!-- Node12&#45;&gt;Node4 -->
<g id="edge16" class="edge">
<title>Node12&#45;&gt;Node4</title>
<path fill="none" stroke="#63b8ff" d="M958.27,-223.24C884.28,-224.12 690.49,-228.2 530,-247 522.07,-247.93 513.72,-249.18 505.57,-250.54"/>
<polygon fill="#63b8ff" stroke="#63b8ff" points="504.98,-247.09 495.74,-252.28 506.19,-253.99 504.98,-247.09"/>
</g>
<!-- Node13 -->
<g id="node13" class="node">
<title>Node13</title>
<g id="a_node13"><a xlink:href="TransmitterCode_2src_2main_8cpp.html#afeaea883a32e6ebe461d419fab1b9f59" target="_top" xlink:title=" ">
<polygon fill="white" stroke="#666666" points="1206,-309.5 1095,-309.5 1095,-290.5 1206,-290.5 1206,-309.5"/>
<text text-anchor="middle" x="1150.5" y="-297.5" font-family="Helvetica,sans-Serif" font-size="10.00">ClearMostParameters</text>
</a>
</g>
</g>
<!-- Node12&#45;&gt;Node13 -->
<g id="edge12" class="edge">
<title>Node12&#45;&gt;Node13</title>
<path fill="none" stroke="#63b8ff" d="M1022,-232.85C1031.66,-236.58 1042.11,-241.32 1051,-247 1069.54,-258.85 1067.97,-269.95 1087,-281 1089.99,-282.74 1093.16,-284.33 1096.42,-285.79"/>
<polygon fill="#63b8ff" stroke="#63b8ff" points="1095.04,-289.01 1105.62,-289.44 1097.62,-282.5 1095.04,-289.01"/>
</g>
<!-- Node14 -->
<g id="node14" class="node">
<title>Node14</title>
<g id="a_node14"><a xlink:href="Utilities_8h.html#a549a702bb9b539c6b3a4f20cce65adcc" target="_top" xlink:title=" ">
<polygon fill="#fff0f0" stroke="red" points="1199.5,-196.5 1101.5,-196.5 1101.5,-177.5 1199.5,-177.5 1199.5,-196.5"/>
<text text-anchor="middle" x="1150.5" y="-184.5" font-family="Helvetica,sans-Serif" font-size="10.00">GetLEDBrightness</text>
</a>
</g>
</g>
<!-- Node12&#45;&gt;Node14 -->
<g id="edge13" class="edge">
<title>Node12&#45;&gt;Node14</title>
<path fill="none" stroke="#63b8ff" d="M1021.94,-215.97C1042.64,-211.27 1070.46,-204.95 1094.83,-199.42"/>
<polygon fill="#63b8ff" stroke="#63b8ff" points="1095.3,-202.9 1104.27,-197.27 1093.75,-196.07 1095.3,-202.9"/>
</g>
<!-- Node24 -->
<g id="node15" class="node">
<title>Node24</title>
<g id="a_node15"><a xlink:href="TransmitterCode_2src_2main_8cpp.html#a2d5ec5fd5ed62d5b7b071fabe2225405" target="_top" xlink:title=" ">
<polygon fill="#fff0f0" stroke="red" points="1198.5,-272.5 1102.5,-272.5 1102.5,-253.5 1198.5,-253.5 1198.5,-272.5"/>
<text text-anchor="middle" x="1150.5" y="-260.5" font-family="Helvetica,sans-Serif" font-size="10.00">LogDisConnection</text>
</a>
</g>
</g>
<!-- Node12&#45;&gt;Node24 -->
<g id="edge14" class="edge">
<title>Node12&#45;&gt;Node24</title>
<path fill="none" stroke="#63b8ff" d="M1021.94,-230.81C1043.83,-236.33 1073.68,-243.87 1099,-250.26"/>
<polygon fill="#63b8ff" stroke="#63b8ff" points="1097.89,-253.58 1108.44,-252.64 1099.6,-246.8 1097.89,-253.58"/>
</g>
<!-- Node40 -->
<g id="node16" class="node">
<title>Node40</title>
<g id="a_node16"><a xlink:href="Nextion_8h.html#afe513398f72d5e48f691830a1ef6eb42" target="_top" xlink:title=" ">
<polygon fill="white" stroke="#666666" points="1334,-234.5 1276,-234.5 1276,-215.5 1334,-215.5 1334,-234.5"/>
<text text-anchor="middle" x="1305" y="-222.5" font-family="Helvetica,sans-Serif" font-size="10.00">SendText</text>
</a>
</g>
</g>
<!-- Node12&#45;&gt;Node40 -->
<g id="edge17" class="edge">
<title>Node12&#45;&gt;Node40</title>
<path fill="none" stroke="#63b8ff" d="M1021.87,-223.2C1078.96,-223.56 1200.95,-224.34 1264.18,-224.75"/>
<polygon fill="#63b8ff" stroke="#63b8ff" points="1264.1,-228.25 1274.12,-224.81 1264.14,-221.25 1264.1,-228.25"/>
</g>
<!-- Node42 -->
<g id="node18" class="node">
<title>Node42</title>
<g id="a_node18"><a xlink:href="TransmitterCode_2src_2main_8cpp.html#a083c423be6ce1635de5961d0fc72ff06" target="_top" xlink:title=" ">
<polygon fill="white" stroke="#666666" points="1200,-835.5 1101,-835.5 1101,-816.5 1200,-816.5 1200,-835.5"/>
<text text-anchor="middle" x="1150.5" y="-823.5" font-family="Helvetica,sans-Serif" font-size="10.00">SetUKFrequencies</text>
</a>
</g>
</g>
<!-- Node12&#45;&gt;Node42 -->
<g id="edge20" class="edge">
<title>Node12&#45;&gt;Node42</title>
<path fill="none" stroke="#63b8ff" d="M993.13,-232.83C1000.99,-269.26 1029.12,-399.96 1051,-508 1067.63,-590.1 1060.99,-613.38 1087,-693 1100.66,-734.83 1124.29,-780.67 1138.25,-806.12"/>
<polygon fill="#63b8ff" stroke="#63b8ff" points="1135.09,-807.65 1143.01,-814.68 1141.21,-804.24 1135.09,-807.65"/>
</g>
<!-- Node40&#45;&gt;Node4 -->
<g id="edge19" class="edge">
<title>Node40&#45;&gt;Node4</title>
<path fill="none" stroke="#63b8ff" d="M1302.13,-215.23C1295.86,-185.47 1272.6,-95.56 1214,-57 1130.91,-2.32 1090.47,-38 991,-38 677,-38 677,-38 677,-38 562.87,-38 486.54,-185.53 462.02,-240.6"/>
<polygon fill="#63b8ff" stroke="#63b8ff" points="458.83,-239.17 458.07,-249.74 465.25,-241.95 458.83,-239.17"/>
</g>
<!-- Node40&#45;&gt;Node41 -->
<g id="edge18" class="edge">
<title>Node40&#45;&gt;Node41</title>
<path fill="none" stroke="#63b8ff" d="M1317.13,-215.37C1339.17,-196.28 1388.65,-153.44 1416.49,-129.33"/>
<polygon fill="#63b8ff" stroke="#63b8ff" points="1418.62,-132.11 1423.89,-122.92 1414.03,-126.82 1418.62,-132.11"/>
</g>
<!-- Node44 -->
<g id="node20" class="node">
<title>Node44</title>
<g id="a_node20"><a xlink:href="transceiver_8h.html#a52aa3e80bccf5e75346c93fdae63122d" target="_top" xlink:title=" ">
<polygon fill="white" stroke="#666666" points="1201,-496.5 1100,-496.5 1100,-477.5 1201,-477.5 1201,-496.5"/>
<text text-anchor="middle" x="1150.5" y="-484.5" font-family="Helvetica,sans-Serif" font-size="10.00">HopToNextChannel</text>
</a>
</g>
</g>
<!-- Node43&#45;&gt;Node44 -->
<g id="edge22" class="edge">
<title>Node43&#45;&gt;Node44</title>
<path fill="none" stroke="#63b8ff" d="M1032.3,-554.06C1038.81,-551.62 1045.28,-548.63 1051,-545 1070.91,-532.35 1067.02,-518.54 1087,-506 1089.61,-504.36 1092.37,-502.86 1095.22,-501.48"/>
<polygon fill="#63b8ff" stroke="#63b8ff" points="1096.58,-504.7 1104.43,-497.59 1093.86,-498.25 1096.58,-504.7"/>
</g>
<!-- Node48 -->
<g id="node24" class="node">
<title>Node48</title>
<g id="a_node24"><a xlink:href="transceiver_8h.html#ad0e30213b21808d00110752679788a8c" target="_top" xlink:title=" ">
<polygon fill="#fff0f0" stroke="red" points="1187.5,-609.5 1113.5,-609.5 1113.5,-590.5 1187.5,-590.5 1187.5,-609.5"/>
<text text-anchor="middle" x="1150.5" y="-597.5" font-family="Helvetica,sans-Serif" font-size="10.00">TryOtherPipe</text>
</a>
</g>
</g>
<!-- Node43&#45;&gt;Node48 -->
<g id="edge26" class="edge">
<title>Node43&#45;&gt;Node48</title>
<path fill="none" stroke="#63b8ff" d="M1034.31,-573.84C1055.29,-578.6 1080.53,-584.33 1102.03,-589.22"/>
<polygon fill="#63b8ff" stroke="#63b8ff" points="1101.21,-592.62 1111.74,-591.42 1102.76,-585.79 1101.21,-592.62"/>
</g>
<!-- Node45 -->
<g id="node21" class="node">
<title>Node45</title>
<g id="a_node21"><a xlink:href="ReceiverCode_2src_2main_8cpp.html#a6d87eba17154f7f4f2f3802ef8ee261f" target="_top" xlink:title=" ">
<polygon fill="white" stroke="#666666" points="1324,-496.5 1286,-496.5 1286,-477.5 1324,-477.5 1324,-496.5"/>
<text text-anchor="middle" x="1305" y="-484.5" font-family="Helvetica,sans-Serif" font-size="10.00">Look</text>
</a>
</g>
</g>
<!-- Node44&#45;&gt;Node45 -->
<g id="edge23" class="edge">
<title>Node44&#45;&gt;Node45</title>
<path fill="none" stroke="#63b8ff" d="M1201.43,-487C1225.54,-487 1253.65,-487 1274.34,-487"/>
<polygon fill="#63b8ff" stroke="#63b8ff" points="1274.06,-490.5 1284.06,-487 1274.06,-483.5 1274.06,-490.5"/>
</g>
<!-- Node46 -->
<g id="node22" class="node">
<title>Node46</title>
<g id="a_node22"><a xlink:href="ReceiverCode_2src_2main_8cpp.html#aea423a497d09a142f394356bc8438c41" target="_top" xlink:title=" ">
<polygon fill="white" stroke="#666666" points="1327,-459.5 1283,-459.5 1283,-440.5 1327,-440.5 1327,-459.5"/>
<text text-anchor="middle" x="1305" y="-447.5" font-family="Helvetica,sans-Serif" font-size="10.00">Look1</text>
</a>
</g>
</g>
<!-- Node44&#45;&gt;Node46 -->
<g id="edge24" class="edge">
<title>Node44&#45;&gt;Node46</title>
<path fill="none" stroke="#63b8ff" d="M1192.37,-477.08C1217.27,-471.04 1248.65,-463.43 1271.79,-457.81"/>
<polygon fill="#63b8ff" stroke="#63b8ff" points="1272.38,-461.27 1281.28,-455.51 1270.73,-454.47 1272.38,-461.27"/>
</g>
<!-- Node44&#45;&gt;Node47 -->
<g id="edge25" class="edge">
<title>Node44&#45;&gt;Node47</title>
<path fill="none" stroke="#63b8ff" d="M1197.28,-496.93C1203.21,-499.34 1208.97,-502.32 1214,-506 1234.9,-521.3 1273.56,-584.64 1292.68,-617.31"/>
<polygon fill="#63b8ff" stroke="#63b8ff" points="1289.56,-618.9 1297.61,-625.79 1295.61,-615.38 1289.56,-618.9"/>
</g>
<!-- Node50&#45;&gt;Node47 -->
<g id="edge28" class="edge">
<title>Node50&#45;&gt;Node47</title>
<path fill="none" stroke="#63b8ff" d="M852.27,-681.07C932.21,-696.6 1147.41,-734.86 1214,-711 1244.65,-700.02 1272.33,-673.6 1288.67,-655.49"/>
<polygon fill="#63b8ff" stroke="#63b8ff" points="1291.22,-657.89 1295.14,-648.05 1285.93,-653.3 1291.22,-657.89"/>
</g>
<!-- Node52 -->
<g id="node27" class="node">
<title>Node52</title>
<g id="a_node27"><a xlink:href="transceiver_8h.html#adac102739147db6397bbcbb371aec4fd" target="_top" xlink:title=" ">
<polygon fill="white" stroke="#666666" points="1034.5,-854.5 945.5,-854.5 945.5,-835.5 1034.5,-835.5 1034.5,-854.5"/>
<text text-anchor="middle" x="990" y="-842.5" font-family="Helvetica,sans-Serif" font-size="10.00">LoadParameters</text>
</a>
</g>
</g>
<!-- Node51&#45;&gt;Node52 -->
<g id="edge31" class="edge">
<title>Node51&#45;&gt;Node52</title>
<path fill="none" stroke="#63b8ff" d="M880.88,-839.17C898.05,-840.1 916.74,-841.11 933.68,-842.02"/>
<polygon fill="#63b8ff" stroke="#63b8ff" points="933.4,-845.51 943.57,-842.55 933.78,-838.52 933.4,-845.51"/>
</g>
<!-- Node52&#45;&gt;Node42 -->
<g id="edge34" class="edge">
<title>Node52&#45;&gt;Node42</title>
<path fill="none" stroke="#63b8ff" d="M1034.73,-839.76C1051.57,-837.74 1071.11,-835.4 1089.24,-833.22"/>
<polygon fill="#63b8ff" stroke="#63b8ff" points="1089.6,-836.71 1099.11,-832.04 1088.76,-829.76 1089.6,-836.71"/>
</g>
<!-- Node53 -->
<g id="node28" class="node">
<title>Node53</title>
<g id="a_node28"><a xlink:href="TransmitterCode_2src_2main_8cpp.html#a5aa4888b924a4f1d95e9cedc3004f2b6" target="_top" xlink:title=" ">
<polygon fill="white" stroke="#666666" points="1192,-909.5 1109,-909.5 1109,-890.5 1192,-890.5 1192,-909.5"/>
<text text-anchor="middle" x="1150.5" y="-897.5" font-family="Helvetica,sans-Serif" font-size="10.00">MakeTwobytes</text>
</a>
</g>
</g>
<!-- Node52&#45;&gt;Node53 -->
<g id="edge32" class="edge">
<title>Node52&#45;&gt;Node53</title>
<path fill="none" stroke="#63b8ff" d="M1014.85,-854.86C1034.15,-862.68 1062.11,-873.64 1087,-882 1091.83,-883.62 1096.89,-885.23 1101.96,-886.78"/>
<polygon fill="#63b8ff" stroke="#63b8ff" points="1100.95,-890.13 1111.53,-889.63 1102.94,-883.42 1100.95,-890.13"/>
</g>
<!-- Node54 -->
<g id="node29" class="node">
<title>Node54</title>
<g id="a_node29"><a xlink:href="TransmitterCode_2src_2main_8cpp.html#a60a8ba3819508aedbe1d59640b0a79b0" target="_top" xlink:title=" ">
<polygon fill="white" stroke="#666666" points="1202.5,-872.5 1098.5,-872.5 1098.5,-853.5 1202.5,-853.5 1202.5,-872.5"/>
<text text-anchor="middle" x="1150.5" y="-860.5" font-family="Helvetica,sans-Serif" font-size="10.00">SetTestFrequencies</text>
</a>
</g>
</g>
<!-- Node52&#45;&gt;Node54 -->
<g id="edge33" class="edge">
<title>Node52&#45;&gt;Node54</title>
<path fill="none" stroke="#63b8ff" d="M1034.73,-849.97C1050.82,-851.79 1069.36,-853.9 1086.79,-855.88"/>
<polygon fill="#63b8ff" stroke="#63b8ff" points="1086.21,-859.34 1096.54,-856.99 1087,-852.38 1086.21,-859.34"/>
</g>
<!-- Node55&#45;&gt;Node47 -->
<g id="edge42" class="edge">
<title>Node55&#45;&gt;Node47</title>
<path fill="none" stroke="#63b8ff" d="M1041.1,-534.09C1087.23,-542.58 1156.95,-558.06 1214,-582 1238.28,-592.19 1263.67,-608.28 1281.28,-620.43"/>
<polygon fill="#63b8ff" stroke="#63b8ff" points="1279.24,-623.28 1289.43,-626.19 1283.28,-617.56 1279.24,-623.28"/>
</g>
<!-- Node56 -->
<g id="node31" class="node">
<title>Node56</title>
<g id="a_node31"><a xlink:href="BuddyWireless_8h.html#af59c2527be7a67d6b09dd467f3123d55" target="_top" xlink:title=" ">
<polygon fill="white" stroke="#666666" points="1186,-533.5 1115,-533.5 1115,-514.5 1186,-514.5 1186,-533.5"/>
<text text-anchor="middle" x="1150.5" y="-521.5" font-family="Helvetica,sans-Serif" font-size="10.00">GetPupilAck</text>
</a>
</g>
</g>
<!-- Node55&#45;&gt;Node56 -->
<g id="edge36" class="edge">
<title>Node55&#45;&gt;Node56</title>
<path fill="none" stroke="#63b8ff" d="M1041.15,-525.37C1061.07,-525.12 1083.84,-524.83 1103.35,-524.58"/>
<polygon fill="#63b8ff" stroke="#63b8ff" points="1103.25,-528.08 1113.2,-524.46 1103.16,-521.08 1103.25,-528.08"/>
</g>
<!-- Node58 -->
<g id="node33" class="node">
<title>Node58</title>
<g id="a_node33"><a xlink:href="BuddyWireless_8h.html#a89fc05df708fec875356b62d21b2ce7b" target="_top" xlink:title=" ">
<polygon fill="white" stroke="#666666" points="1189,-383.5 1112,-383.5 1112,-364.5 1189,-364.5 1189,-383.5"/>
<text text-anchor="middle" x="1150.5" y="-371.5" font-family="Helvetica,sans-Serif" font-size="10.00">PupilDetected</text>
</a>
</g>
</g>
<!-- Node55&#45;&gt;Node58 -->
<g id="edge39" class="edge">
<title>Node55&#45;&gt;Node58</title>
<path fill="none" stroke="#63b8ff" d="M1001,-516.03C1018.36,-498.77 1055.26,-462.26 1087,-432 1101.49,-418.19 1118.1,-402.79 1130.56,-391.33"/>
<polygon fill="#63b8ff" stroke="#63b8ff" points="1132.69,-394.13 1137.69,-384.79 1127.95,-388.97 1132.69,-394.13"/>
</g>
<!-- Node56&#45;&gt;Node47 -->
<g id="edge38" class="edge">
<title>Node56&#45;&gt;Node47</title>
<path fill="none" stroke="#63b8ff" d="M1184.85,-533.91C1194.65,-537.57 1205.11,-542.26 1214,-548 1244.3,-567.56 1272.75,-598.63 1289.26,-618.4"/>
<polygon fill="#63b8ff" stroke="#63b8ff" points="1286.37,-620.4 1295.4,-625.93 1291.79,-615.97 1286.37,-620.4"/>
</g>
<!-- Node57 -->
<g id="node32" class="node">
<title>Node57</title>
<g id="a_node32"><a xlink:href="transceiver_8h.html#a6feccc8c0583de3235616d42076f1371" target="_top" xlink:title=" ">
<polygon fill="white" stroke="#666666" points="1340.5,-533.5 1269.5,-533.5 1269.5,-514.5 1340.5,-514.5 1340.5,-533.5"/>
<text text-anchor="middle" x="1305" y="-521.5" font-family="Helvetica,sans-Serif" font-size="10.00">Decompress</text>
</a>
</g>
</g>
<!-- Node56&#45;&gt;Node57 -->
<g id="edge37" class="edge">
<title>Node56&#45;&gt;Node57</title>
<path fill="none" stroke="#63b8ff" d="M1186.49,-524C1207.7,-524 1235.01,-524 1257.97,-524"/>
<polygon fill="#63b8ff" stroke="#63b8ff" points="1257.66,-527.5 1267.66,-524 1257.66,-520.5 1257.66,-527.5"/>
</g>
<!-- Node58&#45;&gt;Node4 -->
<g id="edge40" class="edge">
<title>Node58&#45;&gt;Node4</title>
<path fill="none" stroke="#63b8ff" d="M1115.68,-364.03C1106.36,-361.19 1096.26,-358.05 1087,-355 968.3,-315.93 946.97,-261 822,-261 677,-261 677,-261 677,-261 618.28,-261 550.89,-261 505.59,-261"/>
<polygon fill="#63b8ff" stroke="#63b8ff" points="505.8,-257.5 495.8,-261 505.8,-264.5 505.8,-257.5"/>
</g>
<!-- Node58&#45;&gt;Node40 -->
<g id="edge41" class="edge">
<title>Node58&#45;&gt;Node40</title>
<path fill="none" stroke="#63b8ff" d="M1189.44,-366.88C1198.04,-364.11 1206.76,-360.28 1214,-355 1253.76,-326 1281.98,-273.85 1295.31,-245.21"/>
<polygon fill="#63b8ff" stroke="#63b8ff" points="1298.45,-246.77 1299.35,-236.21 1292.06,-243.9 1298.45,-246.77"/>
</g>
<!-- Node60&#45;&gt;Node45 -->
<g id="edge45" class="edge">
<title>Node60&#45;&gt;Node45</title>
<path fill="none" stroke="#63b8ff" d="M1192.37,-459.92C1218.33,-466.21 1251.33,-474.22 1274.69,-479.89"/>
<polygon fill="#63b8ff" stroke="#63b8ff" points="1273.62,-483.23 1284.16,-482.19 1275.27,-476.43 1273.62,-483.23"/>
</g>
<!-- Node60&#45;&gt;Node46 -->
<g id="edge46" class="edge">
<title>Node60&#45;&gt;Node46</title>
<path fill="none" stroke="#63b8ff" d="M1196.84,-450C1220.84,-450 1249.76,-450 1271.51,-450"/>
<polygon fill="#63b8ff" stroke="#63b8ff" points="1271.26,-453.5 1281.26,-450 1271.26,-446.5 1271.26,-453.5"/>
</g>
<!-- Node61&#45;&gt;Node11 -->
<g id="edge67" class="edge">
<title>Node61&#45;&gt;Node11</title>
<path fill="none" stroke="#63b8ff" d="M866.75,-628.08C887.16,-623.56 911.53,-618.16 933.12,-613.38"/>
<polygon fill="#63b8ff" stroke="#63b8ff" points="933.64,-616.85 942.65,-611.27 932.13,-610.02 933.64,-616.85"/>
</g>
<!-- Node61&#45;&gt;Node47 -->
<g id="edge66" class="edge">
<title>Node61&#45;&gt;Node47</title>
<path fill="none" stroke="#63b8ff" d="M858.07,-647.94C908.72,-661.33 1004.03,-684.48 1087,-693 1143.15,-698.77 1159.73,-708.51 1214,-693 1240.58,-685.41 1266.95,-667.45 1284.2,-653.9"/>
<polygon fill="#63b8ff" stroke="#63b8ff" points="1286.07,-656.9 1291.62,-647.88 1281.65,-651.46 1286.07,-656.9"/>
</g>
<!-- Node62 -->
<g id="node37" class="node">
<title>Node62</title>
<g id="a_node37"><a xlink:href="transceiver_8h.html#a953f1d5046e183549ed95b08f6d675e3" target="_top" xlink:title=" ">
<polygon fill="white" stroke="#666666" points="1039,-919.5 941,-919.5 941,-900.5 1039,-900.5 1039,-919.5"/>
<text text-anchor="middle" x="990" y="-907.5" font-family="Helvetica,sans-Serif" font-size="10.00">CheckGapsLength</text>
</a>
</g>
</g>
<!-- Node61&#45;&gt;Node62 -->
<g id="edge48" class="edge">
<title>Node61&#45;&gt;Node62</title>
<path fill="none" stroke="#63b8ff" d="M869.34,-642.71C878.24,-645.63 886.71,-650.13 893,-657 956.02,-725.91 880.63,-784.12 929,-864 936.41,-876.24 948.4,-886.4 959.72,-894.03"/>
<polygon fill="#63b8ff" stroke="#63b8ff" points="957.74,-896.93 968.08,-899.27 961.46,-891 957.74,-896.93"/>
</g>
<!-- Node64 -->
<g id="node40" class="node">
<title>Node64</title>
<g id="a_node40"><a xlink:href="TransmitterCode_2src_2main_8cpp.html#a62e53eb9359c32b666e3386d62c57037" target="_top" xlink:title=" ">
<polygon fill="white" stroke="#666666" points="1026,-159.5 954,-159.5 954,-140.5 1026,-140.5 1026,-159.5"/>
<text text-anchor="middle" x="990" y="-147.5" font-family="Helvetica,sans-Serif" font-size="10.00">GreenLedOn</text>
</a>
</g>
</g>
<!-- Node61&#45;&gt;Node64 -->
<g id="edge51" class="edge">
<title>Node61&#45;&gt;Node64</title>
<path fill="none" stroke="#63b8ff" d="M869.39,-634.52C878.4,-631.7 886.91,-627.17 893,-620 953.09,-549.29 887.63,-287.06 929,-204 936.62,-188.71 950.59,-175.73 963.13,-166.34"/>
<polygon fill="#63b8ff" stroke="#63b8ff" points="964.92,-169.36 971.08,-160.74 960.89,-163.64 964.92,-169.36"/>
</g>
<!-- Node75 -->
<g id="node44" class="node">
<title>Node75</title>
<g id="a_node44"><a xlink:href="Utilities_8h.html#a793b7bcd77531c95fe72ed4356d421c8" target="_top" xlink:title=" ">
<polygon fill="white" stroke="#666666" points="1360,-384.5 1250,-384.5 1250,-365.5 1360,-365.5 1360,-384.5"/>
<text text-anchor="middle" x="1305" y="-372.5" font-family="Helvetica,sans-Serif" font-size="10.00">StartInactvityTimeout</text>
</a>
</g>
</g>
<!-- Node61&#45;&gt;Node75 -->
<g id="edge68" class="edge">
<title>Node61&#45;&gt;Node75</title>
<path fill="none" stroke="#63b8ff" d="M869.33,-633.07C878.03,-630.32 886.42,-626.18 893,-620 931.11,-584.21 894.65,-547.42 929,-508 980.19,-449.25 1013.87,-458.91 1087,-432 1138.96,-412.88 1200.11,-397.42 1244.23,-387.45"/>
<polygon fill="#63b8ff" stroke="#63b8ff" points="1244.87,-390.9 1253.87,-385.3 1243.35,-384.06 1244.87,-390.9"/>
</g>
<!-- Node77 -->
<g id="node46" class="node">
<title>Node77</title>
<g id="a_node46"><a xlink:href="transceiver_8h.html#a694f4f5a0147f4dc29b0bc1a8951547d" target="_top" xlink:title=" ">
<polygon fill="#fff0f0" stroke="red" points="1037,-647.5 943,-647.5 943,-628.5 1037,-628.5 1037,-647.5"/>
<text text-anchor="middle" x="990" y="-635.5" font-family="Helvetica,sans-Serif" font-size="10.00">ParseAckPayload</text>
</a>
</g>
</g>
<!-- Node61&#45;&gt;Node77 -->
<g id="edge62" class="edge">
<title>Node61&#45;&gt;Node77</title>
<path fill="none" stroke="#63b8ff" d="M869.41,-638C888.68,-638 911.14,-638 931.35,-638"/>
<polygon fill="#63b8ff" stroke="#63b8ff" points="931.11,-641.5 941.11,-638 931.11,-634.5 931.11,-641.5"/>
</g>
<!-- Node63 -->
<g id="node38" class="node">
<title>Node63</title>
<g id="a_node38"><a xlink:href="TransmitterCode_2src_2main_8cpp.html#a1fadc7cdd854f8b3628b622da5417d8b" target="_top" xlink:title=" ">
<polygon fill="#fff0f0" stroke="red" points="1185.5,-946.5 1115.5,-946.5 1115.5,-927.5 1185.5,-927.5 1185.5,-946.5"/>
<text text-anchor="middle" x="1150.5" y="-934.5" font-family="Helvetica,sans-Serif" font-size="10.00">LogThisGap</text>
</a>
</g>
</g>
<!-- Node62&#45;&gt;Node63 -->
<g id="edge49" class="edge">
<title>Node62&#45;&gt;Node63</title>
<path fill="none" stroke="#63b8ff" d="M1039.42,-918.25C1060.06,-921.76 1084.01,-925.84 1104.29,-929.3"/>
<polygon fill="#63b8ff" stroke="#63b8ff" points="1103.51,-932.72 1113.95,-930.94 1104.68,-925.81 1103.51,-932.72"/>
</g>
<!-- Node63&#45;&gt;Node32 -->
<g id="edge50" class="edge">
<title>Node63&#45;&gt;Node32</title>
<path fill="none" stroke="#63b8ff" d="M1185.72,-941.26C1213.95,-944.78 1253.35,-949.69 1278.77,-952.86"/>
<polygon fill="#63b8ff" stroke="#63b8ff" points="1278.15,-956.31 1288.51,-954.07 1279.02,-949.36 1278.15,-956.31"/>
</g>
<!-- Node64&#45;&gt;Node3 -->
<g id="edge55" class="edge">
<title>Node64&#45;&gt;Node3</title>
<path fill="none" stroke="#63b8ff" d="M953.53,-144.09C859.49,-130.18 598.24,-102.89 411,-193 388.33,-203.91 369.09,-225.92 357.22,-241.96"/>
<polygon fill="#63b8ff" stroke="#63b8ff" points="354.61,-239.59 351.7,-249.78 360.33,-243.63 354.61,-239.59"/>
</g>
<!-- Node64&#45;&gt;Node14 -->
<g id="edge53" class="edge">
<title>Node64&#45;&gt;Node14</title>
<path fill="none" stroke="#63b8ff" d="M1026.18,-158.21C1046.63,-162.99 1072.83,-169.1 1095.82,-174.47"/>
<polygon fill="#63b8ff" stroke="#63b8ff" points="1094.8,-177.82 1105.33,-176.69 1096.39,-171.01 1094.8,-177.82"/>
</g>
<!-- Node65 -->
<g id="node41" class="node">
<title>Node65</title>
<g id="a_node41"><a xlink:href="Utilities_8h.html#a82b1900a80d1622896601c57d6edaeda" target="_top" xlink:title=" ">
<polygon fill="white" stroke="#666666" points="1199.5,-122.5 1101.5,-122.5 1101.5,-103.5 1199.5,-103.5 1199.5,-122.5"/>
<text text-anchor="middle" x="1150.5" y="-110.5" font-family="Helvetica,sans-Serif" font-size="10.00">ClearSuccessRate</text>
</a>
</g>
</g>
<!-- Node64&#45;&gt;Node65 -->
<g id="edge52" class="edge">
<title>Node64&#45;&gt;Node65</title>
<path fill="none" stroke="#63b8ff" d="M1026.18,-141.79C1046.63,-137.01 1072.83,-130.9 1095.82,-125.53"/>
<polygon fill="#63b8ff" stroke="#63b8ff" points="1096.39,-128.99 1105.33,-123.31 1094.8,-122.18 1096.39,-128.99"/>
</g>
<!-- Node66 -->
<g id="node42" class="node">
<title>Node66</title>
<g id="a_node42"><a xlink:href="TransmitterCode_2src_2main_8cpp.html#aaa3e86084c43b049d52d7d62c58a00b9" target="_top" xlink:title=" ">
<polygon fill="#fff0f0" stroke="red" points="1191.5,-85.5 1109.5,-85.5 1109.5,-66.5 1191.5,-66.5 1191.5,-85.5"/>
<text text-anchor="middle" x="1150.5" y="-73.5" font-family="Helvetica,sans-Serif" font-size="10.00">LogConnection</text>
</a>
</g>
</g>
<!-- Node64&#45;&gt;Node66 -->
<g id="edge54" class="edge">
<title>Node64&#45;&gt;Node66</title>
<path fill="none" stroke="#63b8ff" d="M1005.37,-140.09C1023.64,-127.85 1056.49,-107.05 1087,-94 1090.75,-92.4 1094.69,-90.89 1098.68,-89.48"/>
<polygon fill="#63b8ff" stroke="#63b8ff" points="1099.47,-92.9 1107.87,-86.45 1097.28,-86.25 1099.47,-92.9"/>
</g>
<!-- Node68 -->
<g id="node43" class="node">
<title>Node68</title>
<g id="a_node43"><a xlink:href="TransmitterCode_2src_2main_8cpp.html#a5d3a46c21927cf7a3031a1e68e0b7b48" target="_top" xlink:title="SHOW COMMS.">
<polygon fill="#fff0f0" stroke="red" points="1188,-346.5 1113,-346.5 1113,-327.5 1188,-327.5 1188,-346.5"/>
<text text-anchor="middle" x="1150.5" y="-334.5" font-family="Helvetica,sans-Serif" font-size="10.00">ShowComms</text>
</a>
</g>
</g>
<!-- Node64&#45;&gt;Node68 -->
<g id="edge56" class="edge">
<title>Node64&#45;&gt;Node68</title>
<path fill="none" stroke="#63b8ff" d="M1005.9,-159.87C1019.48,-169.59 1039.17,-185.62 1051,-204 1079.76,-248.68 1049.23,-280.63 1087,-318 1091.33,-322.29 1096.6,-325.61 1102.22,-328.19"/>
<polygon fill="#63b8ff" stroke="#63b8ff" points="1100.58,-331.31 1111.18,-331.54 1103.04,-324.76 1100.58,-331.31"/>
</g>
<!-- Node76 -->
<g id="node45" class="node">
<title>Node76</title>
<g id="a_node45"><a xlink:href="TransmitterCode_2src_2main_8cpp.html#a6da9a1fd0b003151f79eabc702ba80ff" target="_top" xlink:title=" ">
<polygon fill="white" stroke="#666666" points="1194,-159.5 1107,-159.5 1107,-140.5 1194,-140.5 1194,-159.5"/>
<text text-anchor="middle" x="1150.5" y="-147.5" font-family="Helvetica,sans-Serif" font-size="10.00">ZeroDataScreen</text>
</a>
</g>
</g>
<!-- Node64&#45;&gt;Node76 -->
<g id="edge61" class="edge">
<title>Node64&#45;&gt;Node76</title>
<path fill="none" stroke="#63b8ff" d="M1026.18,-150C1046.46,-150 1072.4,-150 1095.24,-150"/>
<polygon fill="#63b8ff" stroke="#63b8ff" points="1095,-153.5 1105,-150 1095,-146.5 1095,-153.5"/>
</g>
<!-- Node68&#45;&gt;Node3 -->
<g id="edge57" class="edge">
<title>Node68&#45;&gt;Node3</title>
<path fill="none" stroke="#63b8ff" d="M1112.62,-344.09C996.5,-365.84 639.68,-428.04 530,-393 459.06,-370.34 392.07,-309.54 361.63,-279.01"/>
<polygon fill="#63b8ff" stroke="#63b8ff" points="364.27,-276.7 354.78,-272 359.27,-281.6 364.27,-276.7"/>
</g>
<!-- Node68&#45;&gt;Node4 -->
<g id="edge58" class="edge">
<title>Node68&#45;&gt;Node4</title>
<path fill="none" stroke="#63b8ff" d="M1112.66,-337C1052.05,-337 927.47,-337 822,-337 677,-337 677,-337 677,-337 611.06,-337 591.14,-341.67 530,-317 507.75,-308.02 486.04,-291.12 471.47,-278.22"/>
<polygon fill="#63b8ff" stroke="#63b8ff" points="474.23,-276 464.49,-271.83 469.5,-281.17 474.23,-276"/>
</g>
<!-- Node68&#45;&gt;Node40 -->
<g id="edge59" class="edge">
<title>Node68&#45;&gt;Node40</title>
<path fill="none" stroke="#63b8ff" d="M1188.2,-329.22C1197.03,-326.45 1206.16,-322.79 1214,-318 1245.96,-298.47 1274.47,-264.93 1290.46,-243.92"/>
<polygon fill="#63b8ff" stroke="#63b8ff" points="1293.23,-246.06 1296.36,-235.94 1287.6,-241.9 1293.23,-246.06"/>
</g>
<!-- Node68&#45;&gt;Node75 -->
<g id="edge60" class="edge">
<title>Node68&#45;&gt;Node75</title>
<path fill="none" stroke="#63b8ff" d="M1188.42,-346.2C1207.77,-351.02 1231.78,-357 1252.89,-362.26"/>
<polygon fill="#63b8ff" stroke="#63b8ff" points="1251.93,-365.63 1262.48,-364.65 1253.62,-358.84 1251.93,-365.63"/>
</g>
<!-- Node77&#45;&gt;Node44 -->
<g id="edge65" class="edge">
<title>Node77&#45;&gt;Node44</title>
<path fill="none" stroke="#63b8ff" d="M1037.21,-629.35C1042.29,-626.95 1047.05,-623.89 1051,-620 1088.84,-582.7 1049.23,-543.37 1087,-506 1088.04,-504.97 1089.14,-503.99 1090.28,-503.07"/>
<polygon fill="#63b8ff" stroke="#63b8ff" points="1092,-506.12 1098.54,-497.79 1088.23,-500.23 1092,-506.12"/>
</g>
<!-- Node78 -->
<g id="node47" class="node">
<title>Node78</title>
<g id="a_node47"><a xlink:href="transceiver_8h.html#a75fa77e7bbb1cfe8fe6e1a216fbdc17e" target="_top" xlink:title=" ">
<polygon fill="#fff0f0" stroke="red" points="1183,-683.5 1118,-683.5 1118,-664.5 1183,-664.5 1183,-683.5"/>
<text text-anchor="middle" x="1150.5" y="-671.5" font-family="Helvetica,sans-Serif" font-size="10.00">GetAltitude</text>
</a>
</g>
</g>
<!-- Node77&#45;&gt;Node78 -->
<g id="edge63" class="edge">
<title>Node77&#45;&gt;Node78</title>
<path fill="none" stroke="#63b8ff" d="M1034.73,-647.93C1057.12,-653.02 1084.29,-659.19 1106.57,-664.25"/>
<polygon fill="#63b8ff" stroke="#63b8ff" points="1105.72,-667.65 1116.25,-666.45 1107.27,-660.82 1105.72,-667.65"/>
</g>
<!-- Node80 -->
<g id="node48" class="node">
<title>Node80</title>
<g id="a_node48"><a xlink:href="transceiver_8h.html#a160b9119423c34869b16a4ebdc421d35" target="_top" xlink:title=" ">
<polygon fill="white" stroke="#666666" points="1214,-646.5 1087,-646.5 1087,-627.5 1214,-627.5 1214,-646.5"/>
<text text-anchor="middle" x="1150.5" y="-634.5" font-family="Helvetica,sans-Serif" font-size="10.00">GetDateFromAckPayload</text>
</a>
</g>
</g>
<!-- Node77&#45;&gt;Node80 -->
<g id="edge64" class="edge">
<title>Node77&#45;&gt;Node80</title>
<path fill="none" stroke="#63b8ff" d="M1037.27,-637.71C1049.21,-637.63 1062.37,-637.55 1075.35,-637.47"/>
<polygon fill="#63b8ff" stroke="#63b8ff" points="1075.18,-640.97 1085.16,-637.41 1075.14,-633.97 1075.18,-640.97"/>
</g>
<!-- Node225&#45;&gt;Node3 -->
<g id="edge73" class="edge">
<title>Node225&#45;&gt;Node3</title>
<path fill="none" stroke="#63b8ff" d="M276.14,-252.79C284.55,-253.83 292.84,-254.86 300.57,-255.81"/>
<polygon fill="#63b8ff" stroke="#63b8ff" points="299.94,-259.26 310.3,-257.02 300.8,-252.31 299.94,-259.26"/>
</g>
</g>
</svg>
