<?xml version="1.0" encoding="UTF-8" standalone="no"?>
<!DOCTYPE svg PUBLIC "-//W3C//DTD SVG 1.1//EN"
 "http://www.w3.org/Graphics/SVG/1.1/DTD/svg11.dtd">
<!-- Generated by graphviz version 7.0.5 (20221223.1930)
 -->
<!-- Title: TryOtherPipe Pages: 1 -->
<svg width="1590pt" height="426pt"
 viewBox="0.00 0.00 1590.00 425.50" xmlns="http://www.w3.org/2000/svg" xmlns:xlink="http://www.w3.org/1999/xlink">
<g id="graph0" class="graph" transform="scale(1 1) rotate(0) translate(4 421.5)">
<title>TryOtherPipe</title>
<!-- Node1 -->
<g id="node1" class="node">
<title>Node1</title>
<g id="a_node1"><a xlink:title=" ">
<polygon fill="#999999" stroke="#666666" points="1582,-47.5 1508,-47.5 1508,-28.5 1582,-28.5 1582,-47.5"/>
<text text-anchor="middle" x="1545" y="-35.5" font-family="Helvetica,sans-Serif" font-size="10.00">TryOtherPipe</text>
</a>
</g>
</g>
<!-- Node2 -->
<g id="node2" class="node">
<title>Node2</title>
<g id="a_node2"><a xlink:href="transceiver_8h.html#ad0236abcfc887ad708d9504c4ab2a7c3" target="_top" xlink:title=" ">
<polygon fill="white" stroke="#666666" points="1472,-47.5 1384,-47.5 1384,-28.5 1472,-28.5 1472,-47.5"/>
<text text-anchor="middle" x="1428" y="-35.5" font-family="Helvetica,sans-Serif" font-size="10.00">TryToReconnect</text>
</a>
</g>
</g>
<!-- Node1&#45;&gt;Node2 -->
<g id="edge1" class="edge">
<title>Node1&#45;&gt;Node2</title>
<path fill="none" stroke="#63b8ff" d="M1496.27,-38C1488.36,-38 1480.19,-38 1472.39,-38"/>
<polygon fill="#63b8ff" stroke="#63b8ff" points="1496.1,-41.5 1506.1,-38 1496.1,-34.5 1496.1,-41.5"/>
</g>
<!-- Node3 -->
<g id="node3" class="node">
<title>Node3</title>
<g id="a_node3"><a xlink:href="transceiver_8h.html#a5fbd3c8613a4163425c94965704ce5f8" target="_top" xlink:title=" ">
<polygon fill="white" stroke="#666666" points="1348,-47.5 1274,-47.5 1274,-28.5 1348,-28.5 1348,-47.5"/>
<text text-anchor="middle" x="1311" y="-35.5" font-family="Helvetica,sans-Serif" font-size="10.00">FailedPacket</text>
</a>
</g>
</g>
<!-- Node2&#45;&gt;Node3 -->
<g id="edge2" class="edge">
<title>Node2&#45;&gt;Node3</title>
<path fill="none" stroke="#63b8ff" d="M1372.22,-38C1364.14,-38 1355.99,-38 1348.41,-38"/>
<polygon fill="#63b8ff" stroke="#63b8ff" points="1372.01,-41.5 1382.01,-38 1372.01,-34.5 1372.01,-41.5"/>
</g>
<!-- Node4 -->
<g id="node4" class="node">
<title>Node4</title>
<g id="a_node4"><a xlink:href="transceiver_8h.html#a049bfb836e7aa4a3a48a1a4bd225fafc" target="_top" xlink:title=" ">
<polygon fill="white" stroke="#666666" points="1238,-47.5 1179,-47.5 1179,-28.5 1238,-28.5 1238,-47.5"/>
<text text-anchor="middle" x="1208.5" y="-35.5" font-family="Helvetica,sans-Serif" font-size="10.00">SendData</text>
</a>
</g>
</g>
<!-- Node3&#45;&gt;Node4 -->
<g id="edge3" class="edge">
<title>Node3&#45;&gt;Node4</title>
<path fill="none" stroke="#63b8ff" d="M1262.35,-38C1254.2,-38 1245.96,-38 1238.48,-38"/>
<polygon fill="#63b8ff" stroke="#63b8ff" points="1262.2,-41.5 1272.2,-38 1262.2,-34.5 1262.2,-41.5"/>
</g>
<!-- Node5 -->
<g id="node5" class="node">
<title>Node5</title>
<g id="a_node5"><a xlink:href="TransmitterCode_2src_2main_8cpp.html#a804fdbdd5eab4c596bbe8a23eecbe4d5" target="_top" xlink:title=" ">
<polygon fill="white" stroke="#666666" points="1143,-150.5 1042,-150.5 1042,-131.5 1143,-131.5 1143,-150.5"/>
<text text-anchor="middle" x="1092.5" y="-138.5" font-family="Helvetica,sans-Serif" font-size="10.00">ButtonWasPressed</text>
</a>
</g>
</g>
<!-- Node4&#45;&gt;Node5 -->
<g id="edge4" class="edge">
<title>Node4&#45;&gt;Node5</title>
<path fill="none" stroke="#63b8ff" d="M1188.23,-55.41C1164.2,-77.12 1123.93,-113.5 1104.57,-131"/>
<polygon fill="#63b8ff" stroke="#63b8ff" points="1190.37,-58.19 1195.45,-48.89 1185.68,-53 1190.37,-58.19"/>
</g>
<!-- Node24 -->
<g id="node24" class="node">
<title>Node24</title>
<g id="a_node24"><a xlink:href="TransmitterCode_2src_2main_8cpp.html#ad3cb30894c94eb016e98bdcaa899ac86" target="_top" xlink:title=" ">
<polygon fill="white" stroke="#666666" points="636.5,-47.5 601.5,-47.5 601.5,-28.5 636.5,-28.5 636.5,-47.5"/>
<text text-anchor="middle" x="619" y="-35.5" font-family="Helvetica,sans-Serif" font-size="10.00">loop</text>
</a>
</g>
</g>
<!-- Node4&#45;&gt;Node24 -->
<g id="edge33" class="edge">
<title>Node4&#45;&gt;Node24</title>
<path fill="none" stroke="#63b8ff" d="M1167.58,-38C1051.31,-38 716.16,-38 636.93,-38"/>
<polygon fill="#63b8ff" stroke="#63b8ff" points="1167.25,-41.5 1177.25,-38 1167.25,-34.5 1167.25,-41.5"/>
</g>
<!-- Node6 -->
<g id="node6" class="node">
<title>Node6</title>
<g id="a_node6"><a xlink:href="Utilities_8h.html#afb7c85cac4aa89fd998ed81c330374d2" target="_top" xlink:title=" ">
<polygon fill="white" stroke="#666666" points="1006,-150.5 860,-150.5 860,-131.5 1006,-131.5 1006,-150.5"/>
<text text-anchor="middle" x="933" y="-138.5" font-family="Helvetica,sans-Serif" font-size="10.00">CheckForNextionButtonPress</text>
</a>
</g>
</g>
<!-- Node5&#45;&gt;Node6 -->
<g id="edge5" class="edge">
<title>Node5&#45;&gt;Node6</title>
<path fill="none" stroke="#63b8ff" d="M1030.32,-141C1022.43,-141 1014.29,-141 1006.24,-141"/>
<polygon fill="#63b8ff" stroke="#63b8ff" points="1030.15,-144.5 1040.15,-141 1030.15,-137.5 1030.15,-144.5"/>
</g>
<!-- Node19 -->
<g id="node19" class="node">
<title>Node19</title>
<g id="a_node19"><a xlink:href="TransmitterCode_2src_2main_8cpp.html#ab7c9edf843c732d7fe296564f39bc0dc" target="_top" xlink:title="RECEIVE A MODEL FILE.">
<polygon fill="white" stroke="#666666" points="666,-417.5 572,-417.5 572,-398.5 666,-398.5 666,-417.5"/>
<text text-anchor="middle" x="619" y="-405.5" font-family="Helvetica,sans-Serif" font-size="10.00">ReceiveModelFile</text>
</a>
</g>
</g>
<!-- Node5&#45;&gt;Node19 -->
<g id="edge32" class="edge">
<title>Node5&#45;&gt;Node19</title>
<path fill="none" stroke="#63b8ff" d="M1069.25,-157.58C1009.64,-201.31 840.14,-321.17 683,-390 676.02,-393.06 668.38,-395.75 660.9,-398.05"/>
<polygon fill="#63b8ff" stroke="#63b8ff" points="1071.28,-160.43 1077.25,-151.67 1067.13,-154.79 1071.28,-160.43"/>
</g>
<!-- Node7 -->
<g id="node7" class="node">
<title>Node7</title>
<g id="a_node7"><a xlink:href="TransmitterCode_2src_2main_8cpp.html#a641d6dab68ec7b2a8a32492aac55bc1c" target="_top" xlink:title=" ">
<polygon fill="white" stroke="#666666" points="824,-85.5 719,-85.5 719,-66.5 824,-66.5 824,-85.5"/>
<text text-anchor="middle" x="771.5" y="-73.5" font-family="Helvetica,sans-Serif" font-size="10.00">GetBackupFilename</text>
</a>
</g>
</g>
<!-- Node6&#45;&gt;Node7 -->
<g id="edge6" class="edge">
<title>Node6&#45;&gt;Node7</title>
<path fill="none" stroke="#63b8ff" d="M899.35,-126.6C878.01,-117.31 849.48,-105.12 824,-95 816.29,-91.94 807.88,-88.77 800.12,-85.91"/>
<polygon fill="#63b8ff" stroke="#63b8ff" points="897.84,-129.76 908.41,-130.56 900.65,-123.34 897.84,-129.76"/>
</g>
<!-- Node9 -->
<g id="node9" class="node">
<title>Node9</title>
<g id="a_node9"><a xlink:href="TransmitterCode_2src_2main_8cpp.html#a6506bf72e0dd9e9ce480156b47625bff" target="_top" xlink:title=" ">
<polygon fill="white" stroke="#666666" points="814.5,-214.5 728.5,-214.5 728.5,-195.5 814.5,-195.5 814.5,-214.5"/>
<text text-anchor="middle" x="771.5" y="-202.5" font-family="Helvetica,sans-Serif" font-size="10.00">GetConfirmation</text>
</a>
</g>
</g>
<!-- Node6&#45;&gt;Node9 -->
<g id="edge9" class="edge">
<title>Node6&#45;&gt;Node9</title>
<path fill="none" stroke="#63b8ff" d="M896.58,-155.21C866.42,-167.31 823.86,-184.39 797.25,-195.07"/>
<polygon fill="#63b8ff" stroke="#63b8ff" points="897.7,-158.54 905.67,-151.56 895.09,-152.04 897.7,-158.54"/>
</g>
<!-- Node23 -->
<g id="node23" class="node">
<title>Node23</title>
<g id="a_node23"><a xlink:href="TransmitterCode_2src_2main_8cpp.html#a558ea014e230b7caa54ce5a37ad29b22" target="_top" xlink:title=" ">
<polygon fill="white" stroke="#666666" points="822,-122.5 721,-122.5 721,-103.5 822,-103.5 822,-122.5"/>
<text text-anchor="middle" x="771.5" y="-110.5" font-family="Helvetica,sans-Serif" font-size="10.00">ManageTransmitter</text>
</a>
</g>
</g>
<!-- Node6&#45;&gt;Node23 -->
<g id="edge26" class="edge">
<title>Node6&#45;&gt;Node23</title>
<path fill="none" stroke="#63b8ff" d="M864.2,-129.1C850.17,-126.63 835.63,-124.08 822.38,-121.76"/>
<polygon fill="#63b8ff" stroke="#63b8ff" points="863.37,-132.51 873.83,-130.79 864.58,-125.61 863.37,-132.51"/>
</g>
<!-- Node25 -->
<g id="node25" class="node">
<title>Node25</title>
<g id="a_node25"><a xlink:href="TransmitterCode_2src_2main_8cpp.html#a6f5b0f1e4ca75768c16c4dd93f92a8de" target="_top" xlink:title=" ">
<polygon fill="white" stroke="#666666" points="797.5,-159.5 745.5,-159.5 745.5,-140.5 797.5,-140.5 797.5,-159.5"/>
<text text-anchor="middle" x="771.5" y="-147.5" font-family="Helvetica,sans-Serif" font-size="10.00">MsgBox</text>
</a>
</g>
</g>
<!-- Node6&#45;&gt;Node25 -->
<g id="edge28" class="edge">
<title>Node6&#45;&gt;Node25</title>
<path fill="none" stroke="#63b8ff" d="M848.29,-145.72C829.95,-146.76 811.88,-147.78 797.99,-148.56"/>
<polygon fill="#63b8ff" stroke="#63b8ff" points="848.42,-149.22 858.21,-145.16 848.02,-142.23 848.42,-149.22"/>
</g>
<!-- Node7&#45;&gt;Node5 -->
<g id="edge7" class="edge">
<title>Node7&#45;&gt;Node5</title>
<path fill="none" stroke="#63b8ff" d="M833.87,-88.2C880.98,-97.6 947.63,-110.98 1006,-123 1018.48,-125.57 1031.98,-128.39 1044.48,-131.02"/>
<polygon fill="#63b8ff" stroke="#63b8ff" points="834.61,-84.78 824.11,-86.25 833.24,-91.64 834.61,-84.78"/>
</g>
<!-- Node8 -->
<g id="node8" class="node">
<title>Node8</title>
<g id="a_node8"><a xlink:href="TransmitterCode_2src_2main_8cpp.html#a9d94366336f1e5fd43edb9c24bec5821" target="_top" xlink:title=" ">
<polygon fill="white" stroke="#666666" points="653,-84.5 585,-84.5 585,-65.5 653,-65.5 653,-84.5"/>
<text text-anchor="middle" x="619" y="-72.5" font-family="Helvetica,sans-Serif" font-size="10.00">RenameFile</text>
</a>
</g>
</g>
<!-- Node7&#45;&gt;Node8 -->
<g id="edge8" class="edge">
<title>Node7&#45;&gt;Node8</title>
<path fill="none" stroke="#63b8ff" d="M707.36,-75.58C688.86,-75.46 669.35,-75.33 653.48,-75.22"/>
<polygon fill="#63b8ff" stroke="#63b8ff" points="707.17,-79.08 717.19,-75.65 707.22,-72.08 707.17,-79.08"/>
</g>
<!-- Node9&#45;&gt;Node5 -->
<g id="edge10" class="edge">
<title>Node9&#45;&gt;Node5</title>
<path fill="none" stroke="#63b8ff" d="M825.97,-195.14C873.36,-186.3 944.38,-172.78 1006,-160 1019.7,-157.16 1034.59,-153.91 1048.06,-150.9"/>
<polygon fill="#63b8ff" stroke="#63b8ff" points="825.43,-191.68 816.24,-196.95 826.71,-198.56 825.43,-191.68"/>
</g>
<!-- Node9&#45;&gt;Node8 -->
<g id="edge22" class="edge">
<title>Node9&#45;&gt;Node8</title>
<path fill="none" stroke="#63b8ff" d="M742.56,-189.28C734.24,-183.66 725.6,-176.77 719,-169 695.06,-140.82 711.09,-118.05 683,-94 674.67,-86.87 663.73,-82.41 653.3,-79.63"/>
<polygon fill="#63b8ff" stroke="#63b8ff" points="740.42,-192.08 750.75,-194.47 744.17,-186.16 740.42,-192.08"/>
</g>
<!-- Node10 -->
<g id="node10" class="node">
<title>Node10</title>
<g id="a_node10"><a xlink:href="TransmitterCode_2src_2main_8cpp.html#ac45477c637c975e13189e2988c8813b3" target="_top" xlink:title=" ">
<polygon fill="white" stroke="#666666" points="659,-121.5 579,-121.5 579,-102.5 659,-102.5 659,-121.5"/>
<text text-anchor="middle" x="619" y="-109.5" font-family="Helvetica,sans-Serif" font-size="10.00">DeleteModelID</text>
</a>
</g>
</g>
<!-- Node9&#45;&gt;Node10 -->
<g id="edge11" class="edge">
<title>Node9&#45;&gt;Node10</title>
<path fill="none" stroke="#63b8ff" d="M745.05,-188.72C736.5,-182.85 727.08,-175.96 719,-169 701.38,-153.81 702.8,-143.21 683,-131 675.8,-126.56 667.51,-123.1 659.34,-120.43"/>
<polygon fill="#63b8ff" stroke="#63b8ff" points="743.05,-191.59 753.31,-194.23 746.94,-185.77 743.05,-191.59"/>
</g>
<!-- Node11 -->
<g id="node11" class="node">
<title>Node11</title>
<g id="a_node11"><a xlink:href="TransmitterCode_2src_2main_8cpp.html#a53d438145d004c3b053f245f494f4284" target="_top" xlink:title=" ">
<polygon fill="white" stroke="#666666" points="645,-380.5 593,-380.5 593,-361.5 645,-361.5 645,-380.5"/>
<text text-anchor="middle" x="619" y="-368.5" font-family="Helvetica,sans-Serif" font-size="10.00">DelLOG</text>
</a>
</g>
</g>
<!-- Node9&#45;&gt;Node11 -->
<g id="edge12" class="edge">
<title>Node9&#45;&gt;Node11</title>
<path fill="none" stroke="#63b8ff" d="M728.48,-220.59C724.97,-223.03 721.73,-225.82 719,-229 681.65,-272.57 723.66,-312.51 683,-353 673.09,-362.87 658.15,-367.41 645.32,-369.47"/>
<polygon fill="#63b8ff" stroke="#63b8ff" points="730.02,-223.74 736.92,-215.7 726.51,-217.69 730.02,-223.74"/>
</g>
<!-- Node12 -->
<g id="node12" class="node">
<title>Node12</title>
<g id="a_node12"><a xlink:href="TransmitterCode_2src_2main_8cpp.html#a16c65917a148c7f6c17babf11e977b69" target="_top" xlink:title=" ">
<polygon fill="white" stroke="#666666" points="660,-343.5 578,-343.5 578,-324.5 660,-324.5 660,-343.5"/>
<text text-anchor="middle" x="619" y="-331.5" font-family="Helvetica,sans-Serif" font-size="10.00">EndBuddyView</text>
</a>
</g>
</g>
<!-- Node9&#45;&gt;Node12 -->
<g id="edge13" class="edge">
<title>Node9&#45;&gt;Node12</title>
<path fill="none" stroke="#63b8ff" d="M729.57,-220.44C725.71,-222.92 722.1,-225.77 719,-229 690.06,-259.23 714.23,-288.14 683,-316 676.63,-321.68 668.59,-325.58 660.4,-328.25"/>
<polygon fill="#63b8ff" stroke="#63b8ff" points="731.1,-223.59 738.16,-215.7 727.71,-217.46 731.1,-223.59"/>
</g>
<!-- Node13 -->
<g id="node13" class="node">
<title>Node13</title>
<g id="a_node13"><a xlink:href="ModelMatch_8h.html#afdd42b1130d38073be1c2025af855879" target="_top" xlink:title=" ">
<polygon fill="white" stroke="#666666" points="653.5,-195.5 584.5,-195.5 584.5,-176.5 653.5,-176.5 653.5,-195.5"/>
<text text-anchor="middle" x="619" y="-183.5" font-family="Helvetica,sans-Serif" font-size="10.00">IDNotFound</text>
</a>
</g>
</g>
<!-- Node9&#45;&gt;Node13 -->
<g id="edge14" class="edge">
<title>Node9&#45;&gt;Node13</title>
<path fill="none" stroke="#63b8ff" d="M716.83,-198.22C695.87,-195.58 672.47,-192.62 653.92,-190.28"/>
<polygon fill="#63b8ff" stroke="#63b8ff" points="716.32,-201.69 726.68,-199.47 717.19,-194.74 716.32,-201.69"/>
</g>
<!-- Node18 -->
<g id="node18" class="node">
<title>Node18</title>
<g id="a_node18"><a xlink:href="TransmitterCode_2src_2main_8cpp.html#ae9f91b9da28f2e1e2fb126961f03c31c" target="_top" xlink:title=" ">
<polygon fill="white" stroke="#666666" points="659.5,-306.5 578.5,-306.5 578.5,-287.5 659.5,-287.5 659.5,-306.5"/>
<text text-anchor="middle" x="619" y="-294.5" font-family="Helvetica,sans-Serif" font-size="10.00">ModelViewEnd</text>
</a>
</g>
</g>
<!-- Node9&#45;&gt;Node18 -->
<g id="edge20" class="edge">
<title>Node9&#45;&gt;Node18</title>
<path fill="none" stroke="#63b8ff" d="M732.58,-219.9C727.77,-222.57 723.11,-225.6 719,-229 697.91,-246.46 705.4,-263.26 683,-279 676.11,-283.84 667.94,-287.39 659.81,-289.98"/>
<polygon fill="#63b8ff" stroke="#63b8ff" points="733.79,-223.21 741.16,-215.6 730.65,-216.95 733.79,-223.21"/>
</g>
<!-- Node9&#45;&gt;Node19 -->
<g id="edge21" class="edge">
<title>Node9&#45;&gt;Node19</title>
<path fill="none" stroke="#63b8ff" d="M727.71,-220.82C724.46,-223.2 721.49,-225.91 719,-229 673.05,-286.14 733.31,-336.66 683,-390 678.39,-394.88 672.57,-398.47 666.32,-401.1"/>
<polygon fill="#63b8ff" stroke="#63b8ff" points="729.36,-223.91 736.13,-215.76 725.75,-217.91 729.36,-223.91"/>
</g>
<!-- Node20 -->
<g id="node20" class="node">
<title>Node20</title>
<g id="a_node20"><a xlink:href="TransmitterCode_2src_2main_8cpp.html#a5c7f22bae35d5d6df9d54fe79dbb8401" target="_top" xlink:title=" ">
<polygon fill="white" stroke="#666666" points="683,-269.5 555,-269.5 555,-250.5 683,-250.5 683,-269.5"/>
<text text-anchor="middle" x="619" y="-257.5" font-family="Helvetica,sans-Serif" font-size="10.00">ResetTransmitterSettings</text>
</a>
</g>
</g>
<!-- Node9&#45;&gt;Node20 -->
<g id="edge23" class="edge">
<title>Node9&#45;&gt;Node20</title>
<path fill="none" stroke="#63b8ff" d="M739.03,-219.4C722.54,-226.67 701.88,-235.34 683,-242 674.85,-244.88 665.98,-247.63 657.55,-250.08"/>
<polygon fill="#63b8ff" stroke="#63b8ff" points="740.12,-222.75 747.83,-215.48 737.27,-216.36 740.12,-222.75"/>
</g>
<!-- Node21 -->
<g id="node21" class="node">
<title>Node21</title>
<g id="a_node21"><a xlink:href="TransmitterCode_2src_2main_8cpp.html#a3838aa0b33bb22d3b9934da05d2716d8" target="_top" xlink:title=" ">
<polygon fill="white" stroke="#666666" points="657,-158.5 581,-158.5 581,-139.5 657,-139.5 657,-158.5"/>
<text text-anchor="middle" x="619" y="-146.5" font-family="Helvetica,sans-Serif" font-size="10.00">StoreModelID</text>
</a>
</g>
</g>
<!-- Node9&#45;&gt;Node21 -->
<g id="edge24" class="edge">
<title>Node9&#45;&gt;Node21</title>
<path fill="none" stroke="#63b8ff" d="M738.66,-190.56C722.2,-183.35 701.71,-174.75 683,-168 674.19,-164.82 664.56,-161.73 655.54,-158.99"/>
<polygon fill="#63b8ff" stroke="#63b8ff" points="736.88,-193.6 747.44,-194.45 739.71,-187.2 736.88,-193.6"/>
</g>
<!-- Node22 -->
<g id="node22" class="node">
<title>Node22</title>
<g id="a_node22"><a xlink:href="TransmitterCode_2src_2main_8cpp.html#a3c55ef7c23759a89a86f6519569c4f7a" target="_top" xlink:title=" ">
<polygon fill="white" stroke="#666666" points="668.5,-232.5 569.5,-232.5 569.5,-213.5 668.5,-213.5 668.5,-232.5"/>
<text text-anchor="middle" x="619" y="-220.5" font-family="Helvetica,sans-Serif" font-size="10.00">TXModuleViewEnd</text>
</a>
</g>
</g>
<!-- Node9&#45;&gt;Node22 -->
<g id="edge25" class="edge">
<title>Node9&#45;&gt;Node22</title>
<path fill="none" stroke="#63b8ff" d="M717.05,-211.39C701.36,-213.27 684.3,-215.31 668.91,-217.15"/>
<polygon fill="#63b8ff" stroke="#63b8ff" points="717.16,-214.9 726.67,-210.24 716.33,-207.95 717.16,-214.9"/>
</g>
<!-- Node14 -->
<g id="node14" class="node">
<title>Node14</title>
<g id="a_node14"><a xlink:href="ModelMatch_8h.html#af8fe429ceb65bf9d257a2a0f1c63eccb" target="_top" xlink:title=" ">
<polygon fill="white" stroke="#666666" points="519,-176.5 417,-176.5 417,-157.5 519,-157.5 519,-176.5"/>
<text text-anchor="middle" x="468" y="-164.5" font-family="Helvetica,sans-Serif" font-size="10.00">CompareModelsIDs</text>
</a>
</g>
</g>
<!-- Node13&#45;&gt;Node14 -->
<g id="edge15" class="edge">
<title>Node13&#45;&gt;Node14</title>
<path fill="none" stroke="#63b8ff" d="M572.93,-180.25C556.03,-178.1 536.72,-175.64 519.37,-173.42"/>
<polygon fill="#63b8ff" stroke="#63b8ff" points="572.33,-183.7 582.69,-181.5 573.21,-176.76 572.33,-183.7"/>
</g>
<!-- Node15 -->
<g id="node15" class="node">
<title>Node15</title>
<g id="a_node15"><a xlink:href="ModelMatch_8h.html#a494cb4acb30856d1f53f08df1b80c41b" target="_top" xlink:title=" ">
<polygon fill="white" stroke="#666666" points="381,-139.5 262,-139.5 262,-120.5 381,-120.5 381,-139.5"/>
<text text-anchor="middle" x="321.5" y="-127.5" font-family="Helvetica,sans-Serif" font-size="10.00">GetModelsMacAddress</text>
</a>
</g>
</g>
<!-- Node14&#45;&gt;Node15 -->
<g id="edge16" class="edge">
<title>Node14&#45;&gt;Node15</title>
<path fill="none" stroke="#63b8ff" d="M417.21,-154.25C398.93,-149.57 378.51,-144.34 361.33,-139.94"/>
<polygon fill="#63b8ff" stroke="#63b8ff" points="416.25,-157.62 426.81,-156.71 417.99,-150.84 416.25,-157.62"/>
</g>
<!-- Node16 -->
<g id="node16" class="node">
<title>Node16</title>
<g id="a_node16"><a xlink:href="TransmitterCode_2src_2main_8cpp.html#a694f4f5a0147f4dc29b0bc1a8951547d" target="_top" xlink:title=" ">
<polygon fill="white" stroke="#666666" points="226,-121.5 132,-121.5 132,-102.5 226,-102.5 226,-121.5"/>
<text text-anchor="middle" x="179" y="-109.5" font-family="Helvetica,sans-Serif" font-size="10.00">ParseAckPayload</text>
</a>
</g>
</g>
<!-- Node15&#45;&gt;Node16 -->
<g id="edge17" class="edge">
<title>Node15&#45;&gt;Node16</title>
<path fill="none" stroke="#63b8ff" d="M250.5,-121.03C242.23,-119.97 233.96,-118.91 226.14,-117.91"/>
<polygon fill="#63b8ff" stroke="#63b8ff" points="249.86,-124.48 260.23,-122.28 250.75,-117.54 249.86,-124.48"/>
</g>
<!-- Node17 -->
<g id="node17" class="node">
<title>Node17</title>
<g id="a_node17"><a xlink:href="transceiver_8h.html#a1c11bb6771548de7d96723045b922620" target="_top" xlink:title=" ">
<polygon fill="white" stroke="#666666" points="96,-28.5 0,-28.5 0,-9.5 96,-9.5 96,-28.5"/>
<text text-anchor="middle" x="48" y="-16.5" font-family="Helvetica,sans-Serif" font-size="10.00">SuccessfulPacket</text>
</a>
</g>
</g>
<!-- Node16&#45;&gt;Node17 -->
<g id="edge18" class="edge">
<title>Node16&#45;&gt;Node17</title>
<path fill="none" stroke="#63b8ff" d="M155.15,-95.52C128.34,-76.2 84.75,-44.78 62.71,-28.88"/>
<polygon fill="#63b8ff" stroke="#63b8ff" points="152.81,-98.15 162.97,-101.16 156.9,-92.48 152.81,-98.15"/>
</g>
<!-- Node17&#45;&gt;Node4 -->
<g id="edge19" class="edge">
<title>Node17&#45;&gt;Node4</title>
<path fill="none" stroke="#63b8ff" d="M107.27,-12.56C162.19,-7.05 246.83,0 320.5,0 934,0 934,0 934,0 1023.89,0 1128.82,-20.38 1178.54,-31.29"/>
<polygon fill="#63b8ff" stroke="#63b8ff" points="107.11,-9.06 97.52,-13.55 107.83,-16.02 107.11,-9.06"/>
</g>
<!-- Node23&#45;&gt;Node24 -->
<g id="edge27" class="edge">
<title>Node23&#45;&gt;Node24</title>
<path fill="none" stroke="#63b8ff" d="M724.69,-98.33C722.72,-97.29 720.82,-96.18 719,-95 699.47,-82.36 702.8,-69.21 683,-57 668.71,-48.18 650.06,-43.23 636.76,-40.61"/>
<polygon fill="#63b8ff" stroke="#63b8ff" points="722.91,-101.37 733.45,-102.4 725.85,-95.02 722.91,-101.37"/>
</g>
<!-- Node25&#45;&gt;Node10 -->
<g id="edge29" class="edge">
<title>Node25&#45;&gt;Node10</title>
<path fill="none" stroke="#63b8ff" d="M734.16,-140.82C711.58,-135.12 682.57,-127.8 659.44,-121.96"/>
<polygon fill="#63b8ff" stroke="#63b8ff" points="733.29,-144.21 743.84,-143.27 735,-137.43 733.29,-144.21"/>
</g>
<!-- Node25&#45;&gt;Node13 -->
<g id="edge30" class="edge">
<title>Node25&#45;&gt;Node13</title>
<path fill="none" stroke="#63b8ff" d="M734.31,-158.66C709.83,-164.51 677.71,-172.2 653.75,-177.93"/>
<polygon fill="#63b8ff" stroke="#63b8ff" points="734.93,-162.11 743.84,-156.38 733.3,-155.3 734.93,-162.11"/>
</g>
<!-- Node25&#45;&gt;Node21 -->
<g id="edge31" class="edge">
<title>Node25&#45;&gt;Node21</title>
<path fill="none" stroke="#63b8ff" d="M733.86,-149.76C710.67,-149.6 680.76,-149.4 657.42,-149.25"/>
<polygon fill="#63b8ff" stroke="#63b8ff" points="733.77,-153.26 743.8,-149.82 733.82,-146.26 733.77,-153.26"/>
</g>
</g>
</svg>
