<?xml version="1.0" encoding="UTF-8" standalone="no"?>
<!DOCTYPE svg PUBLIC "-//W3C//DTD SVG 1.1//EN"
 "http://www.w3.org/Graphics/SVG/1.1/DTD/svg11.dtd">
<!-- Generated by graphviz version 7.0.5 (20221223.1930)
 -->
<!-- Title: ShowMotor Pages: 1 -->
<svg width="1160pt" height="1180pt"
 viewBox="0.00 0.00 1160.00 1180.46" xmlns="http://www.w3.org/2000/svg" xmlns:xlink="http://www.w3.org/1999/xlink">
<g id="graph0" class="graph" transform="scale(1 1) rotate(0) translate(4 1176.46)">
<title>ShowMotor</title>
<!-- Node1 -->
<g id="node1" class="node">
<title>Node1</title>
<g id="a_node1"><a xlink:title=" ">
<polygon fill="#999999" stroke="#666666" points="66,-1035.5 0,-1035.5 0,-1016.5 66,-1016.5 66,-1035.5"/>
<text text-anchor="middle" x="33" y="-1023.5" font-family="Helvetica,sans-Serif" font-size="10.00">ShowMotor</text>
</a>
</g>
</g>
<!-- Node2 -->
<g id="node2" class="node">
<title>Node2</title>
<g id="a_node2"><a xlink:href="Nextion_8h.html#afe513398f72d5e48f691830a1ef6eb42" target="_top" xlink:title=" ">
<polygon fill="white" stroke="#666666" points="160,-1035.5 102,-1035.5 102,-1016.5 160,-1016.5 160,-1035.5"/>
<text text-anchor="middle" x="131" y="-1023.5" font-family="Helvetica,sans-Serif" font-size="10.00">SendText</text>
</a>
</g>
</g>
<!-- Node1&#45;&gt;Node2 -->
<g id="edge1" class="edge">
<title>Node1&#45;&gt;Node2</title>
<path fill="none" stroke="#63b8ff" d="M66.23,-1026C73.92,-1026 82.21,-1026 90.19,-1026"/>
<polygon fill="#63b8ff" stroke="#63b8ff" points="90.04,-1029.5 100.04,-1026 90.04,-1022.5 90.04,-1029.5"/>
</g>
<!-- Node3 -->
<g id="node3" class="node">
<title>Node3</title>
<g id="a_node3"><a xlink:href="Nextion_8h.html#a43937dd3d9c795271fd9c3eb3c6b6410" target="_top" xlink:title=" ">
<polygon fill="white" stroke="#666666" points="398,-1035.5 315,-1035.5 315,-1016.5 398,-1016.5 398,-1035.5"/>
<text text-anchor="middle" x="356.5" y="-1023.5" font-family="Helvetica,sans-Serif" font-size="10.00">GetReturnCode</text>
</a>
</g>
</g>
<!-- Node2&#45;&gt;Node3 -->
<g id="edge2" class="edge">
<title>Node2&#45;&gt;Node3</title>
<path fill="none" stroke="#63b8ff" d="M160.31,-1026C196.1,-1026 258.45,-1026 303.05,-1026"/>
<polygon fill="#63b8ff" stroke="#63b8ff" points="303.03,-1029.5 313.03,-1026 303.03,-1022.5 303.03,-1029.5"/>
</g>
<!-- Node4 -->
<g id="node4" class="node">
<title>Node4</title>
<g id="a_node4"><a xlink:href="Nextion_8h.html#aecac2f0c289f02ef3c92b85be82eacac" target="_top" xlink:title=" ">
<polygon fill="white" stroke="#666666" points="279,-940.5 196,-940.5 196,-921.5 279,-921.5 279,-940.5"/>
<text text-anchor="middle" x="237.5" y="-928.5" font-family="Helvetica,sans-Serif" font-size="10.00">SendCommand</text>
</a>
</g>
</g>
<!-- Node2&#45;&gt;Node4 -->
<g id="edge3" class="edge">
<title>Node2&#45;&gt;Node4</title>
<path fill="none" stroke="#63b8ff" d="M142.79,-1016.19C160.31,-1000.26 195.19,-968.55 217.1,-948.63"/>
<polygon fill="#63b8ff" stroke="#63b8ff" points="219.45,-951.23 224.49,-941.92 214.74,-946.05 219.45,-951.23"/>
</g>
<!-- Node4&#45;&gt;Node3 -->
<g id="edge70" class="edge">
<title>Node4&#45;&gt;Node3</title>
<path fill="none" stroke="#63b8ff" d="M247.81,-940.9C261.66,-955.31 288.87,-982.48 315,-1002 318.83,-1004.86 323.03,-1007.67 327.22,-1010.3"/>
<polygon fill="#63b8ff" stroke="#63b8ff" points="325.15,-1013.14 335.53,-1015.27 328.74,-1007.13 325.15,-1013.14"/>
</g>
<!-- Node5 -->
<g id="node5" class="node">
<title>Node5</title>
<g id="a_node5"><a xlink:href="Utilities_8h.html#a3b1d8aa403e2724e55c71da3d9d13e7e" target="_top" xlink:title=" ">
<polygon fill="white" stroke="#666666" points="395,-789.5 318,-789.5 318,-770.5 395,-770.5 395,-789.5"/>
<text text-anchor="middle" x="356.5" y="-777.5" font-family="Helvetica,sans-Serif" font-size="10.00">DelayWithDog</text>
</a>
</g>
</g>
<!-- Node4&#45;&gt;Node5 -->
<g id="edge4" class="edge">
<title>Node4&#45;&gt;Node5</title>
<path fill="none" stroke="#63b8ff" d="M246.18,-921.09C265.43,-896.24 316.04,-830.93 341.07,-798.63"/>
<polygon fill="#63b8ff" stroke="#63b8ff" points="343.66,-800.99 347.02,-790.94 338.13,-796.71 343.66,-800.99"/>
</g>
<!-- Node117 -->
<g id="node50" class="node">
<title>Node117</title>
<g id="a_node50"><a xlink:href="TransmitterCode_2src_2main_8cpp.html#a5f109790a6fe0b972a502f3cac4ed1e7" target="_top" xlink:title=" ">
<polygon fill="white" stroke="#666666" points="380.5,-921.5 332.5,-921.5 332.5,-902.5 380.5,-902.5 380.5,-921.5"/>
<text text-anchor="middle" x="356.5" y="-909.5" font-family="Helvetica,sans-Serif" font-size="10.00">InStrng</text>
</a>
</g>
</g>
<!-- Node4&#45;&gt;Node117 -->
<g id="edge71" class="edge">
<title>Node4&#45;&gt;Node117</title>
<path fill="none" stroke="#63b8ff" d="M279.42,-924.35C292.94,-922.16 307.84,-919.74 320.85,-917.63"/>
<polygon fill="#63b8ff" stroke="#63b8ff" points="321.36,-921.09 330.67,-916.03 320.24,-914.18 321.36,-921.09"/>
</g>
<!-- Node6 -->
<g id="node6" class="node">
<title>Node6</title>
<g id="a_node6"><a xlink:href="Utilities_8h.html#ada95a00a341e4a80176eda743a94ab2e" target="_top" xlink:title=" ">
<polygon fill="white" stroke="#666666" points="504,-789.5 434,-789.5 434,-770.5 504,-770.5 504,-789.5"/>
<text text-anchor="middle" x="469" y="-777.5" font-family="Helvetica,sans-Serif" font-size="10.00">KickTheDog</text>
</a>
</g>
</g>
<!-- Node5&#45;&gt;Node6 -->
<g id="edge5" class="edge">
<title>Node5&#45;&gt;Node6</title>
<path fill="none" stroke="#63b8ff" d="M395.22,-780C404.01,-780 413.46,-780 422.55,-780"/>
<polygon fill="#63b8ff" stroke="#63b8ff" points="422.28,-783.5 432.28,-780 422.28,-776.5 422.28,-783.5"/>
</g>
<!-- Node7 -->
<g id="node7" class="node">
<title>Node7</title>
<g id="a_node7"><a xlink:href="transceiver_8h.html#a049bfb836e7aa4a3a48a1a4bd225fafc" target="_top" xlink:title=" ">
<polygon fill="white" stroke="#666666" points="498.5,-677.5 439.5,-677.5 439.5,-658.5 498.5,-658.5 498.5,-677.5"/>
<text text-anchor="middle" x="469" y="-665.5" font-family="Helvetica,sans-Serif" font-size="10.00">SendData</text>
</a>
</g>
</g>
<!-- Node5&#45;&gt;Node7 -->
<g id="edge6" class="edge">
<title>Node5&#45;&gt;Node7</title>
<path fill="none" stroke="#63b8ff" d="M367.31,-770.06C386.03,-751.08 427.09,-709.46 450.59,-685.65"/>
<polygon fill="#63b8ff" stroke="#63b8ff" points="452.78,-688.41 457.31,-678.83 447.8,-683.49 452.78,-688.41"/>
</g>
<!-- Node8 -->
<g id="node8" class="node">
<title>Node8</title>
<g id="a_node8"><a xlink:href="transceiver_8h.html#a1ddd5e8d5bd649dd98ce3710fbff651b" target="_top" xlink:title=" ">
<polygon fill="white" stroke="#666666" points="642.5,-770.5 581.5,-770.5 581.5,-751.5 642.5,-751.5 642.5,-770.5"/>
<text text-anchor="middle" x="612" y="-758.5" font-family="Helvetica,sans-Serif" font-size="10.00">Compress</text>
</a>
</g>
</g>
<!-- Node7&#45;&gt;Node8 -->
<g id="edge7" class="edge">
<title>Node7&#45;&gt;Node8</title>
<path fill="none" stroke="#63b8ff" d="M476.5,-677.8C487.59,-693.73 511.74,-725.16 540,-742 549.18,-747.47 559.95,-751.39 570.28,-754.2"/>
<polygon fill="#63b8ff" stroke="#63b8ff" points="569.22,-757.54 579.76,-756.47 570.85,-750.73 569.22,-757.54"/>
</g>
<!-- Node9 -->
<g id="node9" class="node">
<title>Node9</title>
<g id="a_node9"><a xlink:href="transceiver_8h.html#a4144c213e5448a7e02d4172881f08219" target="_top" xlink:title=" ">
<polygon fill="white" stroke="#666666" points="684,-733.5 540,-733.5 540,-714.5 684,-714.5 684,-733.5"/>
<text text-anchor="middle" x="612" y="-721.5" font-family="Helvetica,sans-Serif" font-size="10.00">EncodeTheChangedChannels</text>
</a>
</g>
</g>
<!-- Node7&#45;&gt;Node9 -->
<g id="edge8" class="edge">
<title>Node7&#45;&gt;Node9</title>
<path fill="none" stroke="#63b8ff" d="M486.19,-677.9C500.07,-686.06 520.81,-697.47 540,-705 545.36,-707.1 551.03,-709.05 556.74,-710.84"/>
<polygon fill="#63b8ff" stroke="#63b8ff" points="555.66,-714.17 566.24,-713.65 557.64,-707.46 555.66,-714.17"/>
</g>
<!-- Node10 -->
<g id="node10" class="node">
<title>Node10</title>
<g id="a_node10"><a xlink:href="transceiver_8h.html#a5fbd3c8613a4163425c94965704ce5f8" target="_top" xlink:title=" ">
<polygon fill="white" stroke="#666666" points="649,-696.5 575,-696.5 575,-677.5 649,-677.5 649,-696.5"/>
<text text-anchor="middle" x="612" y="-684.5" font-family="Helvetica,sans-Serif" font-size="10.00">FailedPacket</text>
</a>
</g>
</g>
<!-- Node7&#45;&gt;Node10 -->
<g id="edge9" class="edge">
<title>Node7&#45;&gt;Node10</title>
<path fill="none" stroke="#63b8ff" d="M498.87,-671.89C517.45,-674.39 542.03,-677.71 563.45,-680.59"/>
<polygon fill="#63b8ff" stroke="#63b8ff" points="562.75,-684.03 573.13,-681.9 563.69,-677.09 562.75,-684.03"/>
</g>
<!-- Node46 -->
<g id="node20" class="node">
<title>Node46</title>
<g id="a_node20"><a xlink:href="common_8h.html#a6e2d4126d864c50e7c23c988c2bfdd1a" target="_top" xlink:title=" ">
<polygon fill="white" stroke="#666666" points="1120.5,-487.5 1073.5,-487.5 1073.5,-468.5 1120.5,-468.5 1120.5,-487.5"/>
<text text-anchor="middle" x="1097" y="-475.5" font-family="Helvetica,sans-Serif" font-size="10.00">Radio1</text>
</a>
</g>
</g>
<!-- Node7&#45;&gt;Node46 -->
<g id="edge26" class="edge">
<title>Node7&#45;&gt;Node46</title>
<path fill="none" stroke="#63b8ff" d="M471.88,-658.06C478.26,-625.59 500.92,-520.13 540,-441 639.36,-239.82 665.64,-138.45 878,-66 931.84,-47.63 961.69,-30.32 1006,-66 1021.7,-78.64 1076.99,-374.41 1092.14,-456.84"/>
<polygon fill="#63b8ff" stroke="#63b8ff" points="1088.69,-457.47 1093.94,-466.68 1095.58,-456.21 1088.69,-457.47"/>
</g>
<!-- Node49 -->
<g id="node22" class="node">
<title>Node49</title>
<g id="a_node22"><a xlink:href="transceiver_8h.html#a07c27b4e208198453c70876517926052" target="_top" xlink:title=" ">
<polygon fill="white" stroke="#666666" points="643,-469.5 581,-469.5 581,-450.5 643,-450.5 643,-469.5"/>
<text text-anchor="middle" x="612" y="-457.5" font-family="Helvetica,sans-Serif" font-size="10.00">FlushFifos</text>
</a>
</g>
</g>
<!-- Node7&#45;&gt;Node49 -->
<g id="edge24" class="edge">
<title>Node7&#45;&gt;Node49</title>
<path fill="none" stroke="#63b8ff" d="M474.11,-658.22C483.84,-635.61 509.73,-578.45 540,-536 555.6,-514.13 577.05,-492 592.28,-477.31"/>
<polygon fill="#63b8ff" stroke="#63b8ff" points="594.49,-480.04 599.34,-470.62 589.68,-474.96 594.49,-480.04"/>
</g>
<!-- Node50 -->
<g id="node23" class="node">
<title>Node50</title>
<g id="a_node23"><a xlink:href="transceiver_8h.html#a65249d0ac8676541d13ced58b1ce7624" target="_top" xlink:title=" ">
<polygon fill="white" stroke="#666666" points="671.5,-826.5 552.5,-826.5 552.5,-807.5 671.5,-807.5 671.5,-826.5"/>
<text text-anchor="middle" x="612" y="-814.5" font-family="Helvetica,sans-Serif" font-size="10.00">SendExtraParamemters</text>
</a>
</g>
</g>
<!-- Node7&#45;&gt;Node50 -->
<g id="edge27" class="edge">
<title>Node7&#45;&gt;Node50</title>
<path fill="none" stroke="#63b8ff" d="M474.07,-677.78C483.17,-698.67 506.99,-748.26 540,-779 550.13,-788.43 563.04,-796.25 575.07,-802.3"/>
<polygon fill="#63b8ff" stroke="#63b8ff" points="573.42,-805.39 583.95,-806.5 576.41,-799.06 573.42,-805.39"/>
</g>
<!-- Node54 -->
<g id="node27" class="node">
<title>Node54</title>
<g id="a_node27"><a xlink:href="BuddyWireless_8h.html#a41c327908c92572d0d3eebbb19160d86" target="_top" xlink:title=" ">
<polygon fill="white" stroke="#666666" points="663,-601.5 561,-601.5 561,-582.5 663,-582.5 663,-601.5"/>
<text text-anchor="middle" x="612" y="-589.5" font-family="Helvetica,sans-Serif" font-size="10.00">SendSpecialPacket</text>
</a>
</g>
</g>
<!-- Node7&#45;&gt;Node54 -->
<g id="edge32" class="edge">
<title>Node7&#45;&gt;Node54</title>
<path fill="none" stroke="#63b8ff" d="M488.11,-658.13C502.24,-650.44 522.35,-639.51 540,-630 553.98,-622.46 569.54,-614.13 582.52,-607.19"/>
<polygon fill="#63b8ff" stroke="#63b8ff" points="583.79,-610.48 590.96,-602.68 580.49,-604.31 583.79,-610.48"/>
</g>
<!-- Node58 -->
<g id="node31" class="node">
<title>Node58</title>
<g id="a_node31"><a xlink:href="BuddyPPM_8h.html#a784a1eca0361b3991bca899167cc1cdb" target="_top" xlink:title=" ">
<polygon fill="white" stroke="#666666" points="649.5,-564.5 574.5,-564.5 574.5,-545.5 649.5,-545.5 649.5,-564.5"/>
<text text-anchor="middle" x="612" y="-552.5" font-family="Helvetica,sans-Serif" font-size="10.00">SendViaPPM</text>
</a>
</g>
</g>
<!-- Node7&#45;&gt;Node58 -->
<g id="edge40" class="edge">
<title>Node7&#45;&gt;Node58</title>
<path fill="none" stroke="#63b8ff" d="M474.38,-658.19C483.59,-638.74 506.85,-595.29 540,-573 546.96,-568.32 555.06,-564.85 563.23,-562.29"/>
<polygon fill="#63b8ff" stroke="#63b8ff" points="564.12,-565.67 572.87,-559.71 562.31,-558.91 564.12,-565.67"/>
</g>
<!-- Node59 -->
<g id="node32" class="node">
<title>Node59</title>
<g id="a_node32"><a xlink:href="transceiver_8h.html#a1c11bb6771548de7d96723045b922620" target="_top" xlink:title=" ">
<polygon fill="white" stroke="#666666" points="660,-658.5 564,-658.5 564,-639.5 660,-639.5 660,-658.5"/>
<text text-anchor="middle" x="612" y="-646.5" font-family="Helvetica,sans-Serif" font-size="10.00">SuccessfulPacket</text>
</a>
</g>
</g>
<!-- Node7&#45;&gt;Node59 -->
<g id="edge41" class="edge">
<title>Node7&#45;&gt;Node59</title>
<path fill="none" stroke="#63b8ff" d="M498.87,-664.11C514.29,-662.03 533.83,-659.4 552.28,-656.91"/>
<polygon fill="#63b8ff" stroke="#63b8ff" points="552.63,-660.4 562.07,-655.59 551.69,-653.46 552.63,-660.4"/>
</g>
<!-- Node11 -->
<g id="node11" class="node">
<title>Node11</title>
<g id="a_node11"><a xlink:href="transceiver_8h.html#afc091b5942e21a03f6dc8635d5e519ba" target="_top" xlink:title=" ">
<polygon fill="white" stroke="#666666" points="842,-807.5 720,-807.5 720,-788.5 842,-788.5 842,-807.5"/>
<text text-anchor="middle" x="781" y="-795.5" font-family="Helvetica,sans-Serif" font-size="10.00">RecordsPacketSuccess</text>
</a>
</g>
</g>
<!-- Node10&#45;&gt;Node11 -->
<g id="edge10" class="edge">
<title>Node10&#45;&gt;Node11</title>
<path fill="none" stroke="#63b8ff" d="M649.34,-690.04C661.41,-692.56 674.24,-697.05 684,-705 712.37,-728.09 692.32,-755.09 720,-779 721.48,-780.28 723.04,-781.47 724.67,-782.58"/>
<polygon fill="#63b8ff" stroke="#63b8ff" points="722.85,-785.57 733.29,-787.37 726.25,-779.45 722.85,-785.57"/>
</g>
<!-- Node12 -->
<g id="node12" class="node">
<title>Node12</title>
<g id="a_node12"><a xlink:href="TransmitterCode_2src_2main_8cpp.html#a7d34cec6e8edc20c8b50424e15dcc7c7" target="_top" xlink:title=" ">
<polygon fill="white" stroke="#666666" points="812.5,-1098.5 749.5,-1098.5 749.5,-1079.5 812.5,-1079.5 812.5,-1098.5"/>
<text text-anchor="middle" x="781" y="-1086.5" font-family="Helvetica,sans-Serif" font-size="10.00">RedLedOn</text>
</a>
</g>
</g>
<!-- Node10&#45;&gt;Node12 -->
<g id="edge11" class="edge">
<title>Node10&#45;&gt;Node12</title>
<path fill="none" stroke="#63b8ff" d="M649.49,-688.07C662.16,-690.34 675.34,-695.17 684,-705 727.64,-754.56 696.9,-938.13 720,-1000 730.06,-1026.96 749.81,-1053.77 763.91,-1070.81"/>
<polygon fill="#63b8ff" stroke="#63b8ff" points="760.93,-1072.71 770.07,-1078.06 766.26,-1068.17 760.93,-1072.71"/>
</g>
<!-- Node42 -->
<g id="node18" class="node">
<title>Node42</title>
<g id="a_node18"><a xlink:href="transceiver_8h.html#ad0236abcfc887ad708d9504c4ab2a7c3" target="_top" xlink:title=" ">
<polygon fill="white" stroke="#666666" points="825,-696.5 737,-696.5 737,-677.5 825,-677.5 825,-696.5"/>
<text text-anchor="middle" x="781" y="-684.5" font-family="Helvetica,sans-Serif" font-size="10.00">TryToReconnect</text>
</a>
</g>
</g>
<!-- Node10&#45;&gt;Node42 -->
<g id="edge20" class="edge">
<title>Node10&#45;&gt;Node42</title>
<path fill="none" stroke="#63b8ff" d="M649.24,-687C671.53,-687 700.53,-687 725.55,-687"/>
<polygon fill="#63b8ff" stroke="#63b8ff" points="725.22,-690.5 735.22,-687 725.22,-683.5 725.22,-690.5"/>
</g>
<!-- Node12&#45;&gt;Node2 -->
<g id="edge18" class="edge">
<title>Node12&#45;&gt;Node2</title>
<path fill="none" stroke="#63b8ff" d="M749.22,-1091.15C693.53,-1094.84 572.35,-1102 470,-1102 355.5,-1102 355.5,-1102 355.5,-1102 283.81,-1102 261.58,-1106.96 196,-1078 177.87,-1070 160.64,-1055.45 148.63,-1043.77"/>
<polygon fill="#63b8ff" stroke="#63b8ff" points="151.45,-1041.64 141.94,-1036.99 146.47,-1046.56 151.45,-1041.64"/>
</g>
<!-- Node12&#45;&gt;Node4 -->
<g id="edge17" class="edge">
<title>Node12&#45;&gt;Node4</title>
<path fill="none" stroke="#63b8ff" d="M749.07,-1082.32C673.75,-1065.7 475.27,-1019.78 315,-964 299.8,-958.71 283.36,-951.79 269.64,-945.65"/>
<polygon fill="#63b8ff" stroke="#63b8ff" points="271.21,-942.52 260.66,-941.56 268.31,-948.89 271.21,-942.52"/>
</g>
<!-- Node13 -->
<g id="node13" class="node">
<title>Node13</title>
<g id="a_node13"><a xlink:href="TransmitterCode_2src_2main_8cpp.html#afeaea883a32e6ebe461d419fab1b9f59" target="_top" xlink:title=" ">
<polygon fill="white" stroke="#666666" points="997.5,-1107.5 886.5,-1107.5 886.5,-1088.5 997.5,-1088.5 997.5,-1107.5"/>
<text text-anchor="middle" x="942" y="-1095.5" font-family="Helvetica,sans-Serif" font-size="10.00">ClearMostParameters</text>
</a>
</g>
</g>
<!-- Node12&#45;&gt;Node13 -->
<g id="edge12" class="edge">
<title>Node12&#45;&gt;Node13</title>
<path fill="none" stroke="#63b8ff" d="M812.66,-1090.74C830.33,-1091.74 853.25,-1093.03 874.83,-1094.25"/>
<polygon fill="#63b8ff" stroke="#63b8ff" points="874.6,-1097.75 884.78,-1094.82 875,-1090.76 874.6,-1097.75"/>
</g>
<!-- Node14 -->
<g id="node14" class="node">
<title>Node14</title>
<g id="a_node14"><a xlink:href="Utilities_8h.html#a549a702bb9b539c6b3a4f20cce65adcc" target="_top" xlink:title=" ">
<polygon fill="#fff0f0" stroke="red" points="991,-920.5 893,-920.5 893,-901.5 991,-901.5 991,-920.5"/>
<text text-anchor="middle" x="942" y="-908.5" font-family="Helvetica,sans-Serif" font-size="10.00">GetLEDBrightness</text>
</a>
</g>
</g>
<!-- Node12&#45;&gt;Node14 -->
<g id="edge13" class="edge">
<title>Node12&#45;&gt;Node14</title>
<path fill="none" stroke="#63b8ff" d="M789.26,-1079.12C800.98,-1062.97 824.54,-1029.72 842,-1000 859.92,-969.5 850.71,-951.52 878,-929 879.51,-927.76 881.1,-926.6 882.75,-925.52"/>
<polygon fill="#63b8ff" stroke="#63b8ff" points="884.27,-928.67 891.46,-920.89 880.98,-922.49 884.27,-928.67"/>
</g>
<!-- Node24 -->
<g id="node15" class="node">
<title>Node24</title>
<g id="a_node15"><a xlink:href="TransmitterCode_2src_2main_8cpp.html#a2d5ec5fd5ed62d5b7b071fabe2225405" target="_top" xlink:title=" ">
<polygon fill="#fff0f0" stroke="red" points="990,-1144.5 894,-1144.5 894,-1125.5 990,-1125.5 990,-1144.5"/>
<text text-anchor="middle" x="942" y="-1132.5" font-family="Helvetica,sans-Serif" font-size="10.00">LogDisConnection</text>
</a>
</g>
</g>
<!-- Node12&#45;&gt;Node24 -->
<g id="edge14" class="edge">
<title>Node12&#45;&gt;Node24</title>
<path fill="none" stroke="#63b8ff" d="M812.68,-1098C831.52,-1103.51 856.15,-1110.69 878,-1117 883.53,-1118.6 889.33,-1120.26 895.08,-1121.91"/>
<polygon fill="#63b8ff" stroke="#63b8ff" points="893.97,-1125.23 904.55,-1124.62 895.89,-1118.5 893.97,-1125.23"/>
</g>
<!-- Node40 -->
<g id="node16" class="node">
<title>Node40</title>
<g id="a_node16"><a xlink:href="Utilities_8h.html#aa490b4664b0a4498d53b30b82287d5df" target="_top" xlink:title=" ">
<polygon fill="#fff0f0" stroke="red" points="1128.5,-976.5 1065.5,-976.5 1065.5,-957.5 1128.5,-957.5 1128.5,-976.5"/>
<text text-anchor="middle" x="1097" y="-964.5" font-family="Helvetica,sans-Serif" font-size="10.00">PlaySound</text>
</a>
</g>
</g>
<!-- Node12&#45;&gt;Node40 -->
<g id="edge15" class="edge">
<title>Node12&#45;&gt;Node40</title>
<path fill="none" stroke="#63b8ff" d="M792.11,-1098.96C808.49,-1114.31 842.59,-1143.14 878,-1154 932.39,-1170.68 957.83,-1184.27 1006,-1154 1065.18,-1116.8 1086.35,-1028.59 1093.13,-988.05"/>
<polygon fill="#63b8ff" stroke="#63b8ff" points="1096.59,-988.59 1094.63,-978.18 1089.67,-987.54 1096.59,-988.59"/>
</g>
<!-- Node41 -->
<g id="node17" class="node">
<title>Node41</title>
<g id="a_node17"><a xlink:href="TransmitterCode_2src_2main_8cpp.html#a083c423be6ce1635de5961d0fc72ff06" target="_top" xlink:title=" ">
<polygon fill="white" stroke="#666666" points="991.5,-1031.5 892.5,-1031.5 892.5,-1012.5 991.5,-1012.5 991.5,-1031.5"/>
<text text-anchor="middle" x="942" y="-1019.5" font-family="Helvetica,sans-Serif" font-size="10.00">SetUKFrequencies</text>
</a>
</g>
</g>
<!-- Node12&#45;&gt;Node41 -->
<g id="edge19" class="edge">
<title>Node12&#45;&gt;Node41</title>
<path fill="none" stroke="#63b8ff" d="M805.46,-1079.11C832.23,-1067.83 876.26,-1049.28 906.84,-1036.39"/>
<polygon fill="#63b8ff" stroke="#63b8ff" points="908.19,-1039.62 916.05,-1032.51 905.47,-1033.17 908.19,-1039.62"/>
</g>
<!-- Node40&#45;&gt;Node4 -->
<g id="edge16" class="edge">
<title>Node40&#45;&gt;Node4</title>
<path fill="none" stroke="#63b8ff" d="M1088.13,-976.9C1073.89,-993.92 1041.99,-1028.1 1006,-1041 952.45,-1060.19 934.68,-1045.84 878,-1041 762.91,-1031.17 421.88,-966.51 290.71,-941.17"/>
<polygon fill="#63b8ff" stroke="#63b8ff" points="291.39,-937.73 280.91,-939.27 290.06,-944.6 291.39,-937.73"/>
</g>
<!-- Node43 -->
<g id="node19" class="node">
<title>Node43</title>
<g id="a_node19"><a xlink:href="transceiver_8h.html#a52aa3e80bccf5e75346c93fdae63122d" target="_top" xlink:title=" ">
<polygon fill="#fff0f0" stroke="red" points="992.5,-468.5 891.5,-468.5 891.5,-449.5 992.5,-449.5 992.5,-468.5"/>
<text text-anchor="middle" x="942" y="-456.5" font-family="Helvetica,sans-Serif" font-size="10.00">HopToNextChannel</text>
</a>
</g>
</g>
<!-- Node42&#45;&gt;Node43 -->
<g id="edge21" class="edge">
<title>Node42&#45;&gt;Node43</title>
<path fill="none" stroke="#63b8ff" d="M790.03,-677.23C801.8,-662.8 824.25,-634.81 842,-610 875,-563.89 910.79,-507.55 928.96,-478.46"/>
<polygon fill="#63b8ff" stroke="#63b8ff" points="931.9,-480.35 934.21,-470.01 925.96,-476.65 931.9,-480.35"/>
</g>
<!-- Node47 -->
<g id="node21" class="node">
<title>Node47</title>
<g id="a_node21"><a xlink:href="transceiver_8h.html#ad0e30213b21808d00110752679788a8c" target="_top" xlink:title=" ">
<polygon fill="#fff0f0" stroke="red" points="979,-696.5 905,-696.5 905,-677.5 979,-677.5 979,-696.5"/>
<text text-anchor="middle" x="942" y="-684.5" font-family="Helvetica,sans-Serif" font-size="10.00">TryOtherPipe</text>
</a>
</g>
</g>
<!-- Node42&#45;&gt;Node47 -->
<g id="edge23" class="edge">
<title>Node42&#45;&gt;Node47</title>
<path fill="none" stroke="#63b8ff" d="M825.45,-687C846.49,-687 871.81,-687 893.38,-687"/>
<polygon fill="#63b8ff" stroke="#63b8ff" points="893.08,-690.5 903.08,-687 893.08,-683.5 893.08,-690.5"/>
</g>
<!-- Node43&#45;&gt;Node46 -->
<g id="edge22" class="edge">
<title>Node43&#45;&gt;Node46</title>
<path fill="none" stroke="#63b8ff" d="M992.67,-465.17C1015.29,-467.98 1041.48,-471.23 1061.83,-473.76"/>
<polygon fill="#63b8ff" stroke="#63b8ff" points="1061.22,-477.21 1071.57,-474.97 1062.08,-470.26 1061.22,-477.21"/>
</g>
<!-- Node49&#45;&gt;Node46 -->
<g id="edge25" class="edge">
<title>Node49&#45;&gt;Node46</title>
<path fill="none" stroke="#63b8ff" d="M643.46,-453.35C710.01,-439.94 873.09,-413.09 1006,-440 1027.89,-444.43 1051.07,-454.36 1068.42,-462.95"/>
<polygon fill="#63b8ff" stroke="#63b8ff" points="1066.57,-465.94 1077.07,-467.38 1069.76,-459.71 1066.57,-465.94"/>
</g>
<!-- Node51 -->
<g id="node24" class="node">
<title>Node51</title>
<g id="a_node24"><a xlink:href="transceiver_8h.html#adac102739147db6397bbcbb371aec4fd" target="_top" xlink:title=" ">
<polygon fill="white" stroke="#666666" points="825.5,-990.5 736.5,-990.5 736.5,-971.5 825.5,-971.5 825.5,-990.5"/>
<text text-anchor="middle" x="781" y="-978.5" font-family="Helvetica,sans-Serif" font-size="10.00">LoadParameters</text>
</a>
</g>
</g>
<!-- Node50&#45;&gt;Node51 -->
<g id="edge28" class="edge">
<title>Node50&#45;&gt;Node51</title>
<path fill="none" stroke="#63b8ff" d="M622.95,-826.77C650.26,-853.59 726.74,-928.7 761.9,-963.23"/>
<polygon fill="#63b8ff" stroke="#63b8ff" points="759.23,-965.51 768.81,-970.02 764.13,-960.51 759.23,-965.51"/>
</g>
<!-- Node51&#45;&gt;Node41 -->
<g id="edge31" class="edge">
<title>Node51&#45;&gt;Node41</title>
<path fill="none" stroke="#63b8ff" d="M820.49,-990.92C841.81,-996.42 868.56,-1003.32 891.44,-1009.22"/>
<polygon fill="#63b8ff" stroke="#63b8ff" points="890.29,-1012.54 900.85,-1011.65 892.04,-1005.76 890.29,-1012.54"/>
</g>
<!-- Node52 -->
<g id="node25" class="node">
<title>Node52</title>
<g id="a_node25"><a xlink:href="TransmitterCode_2src_2main_8cpp.html#a5aa4888b924a4f1d95e9cedc3004f2b6" target="_top" xlink:title=" ">
<polygon fill="white" stroke="#666666" points="983.5,-994.5 900.5,-994.5 900.5,-975.5 983.5,-975.5 983.5,-994.5"/>
<text text-anchor="middle" x="942" y="-982.5" font-family="Helvetica,sans-Serif" font-size="10.00">MakeTwobytes</text>
</a>
</g>
</g>
<!-- Node51&#45;&gt;Node52 -->
<g id="edge29" class="edge">
<title>Node51&#45;&gt;Node52</title>
<path fill="none" stroke="#63b8ff" d="M825.87,-982.1C845.32,-982.59 868.37,-983.17 888.71,-983.68"/>
<polygon fill="#63b8ff" stroke="#63b8ff" points="888.41,-987.18 898.49,-983.93 888.58,-980.18 888.41,-987.18"/>
</g>
<!-- Node53 -->
<g id="node26" class="node">
<title>Node53</title>
<g id="a_node26"><a xlink:href="TransmitterCode_2src_2main_8cpp.html#a60a8ba3819508aedbe1d59640b0a79b0" target="_top" xlink:title=" ">
<polygon fill="white" stroke="#666666" points="994,-957.5 890,-957.5 890,-938.5 994,-938.5 994,-957.5"/>
<text text-anchor="middle" x="942" y="-945.5" font-family="Helvetica,sans-Serif" font-size="10.00">SetTestFrequencies</text>
</a>
</g>
</g>
<!-- Node51&#45;&gt;Node53 -->
<g id="edge30" class="edge">
<title>Node51&#45;&gt;Node53</title>
<path fill="none" stroke="#63b8ff" d="M825.87,-971.9C843.23,-968.29 863.45,-964.1 882.06,-960.23"/>
<polygon fill="#63b8ff" stroke="#63b8ff" points="882.53,-963.71 891.61,-958.25 881.11,-956.86 882.53,-963.71"/>
</g>
<!-- Node54&#45;&gt;Node46 -->
<g id="edge39" class="edge">
<title>Node54&#45;&gt;Node46</title>
<path fill="none" stroke="#63b8ff" d="M663.49,-583.26C670.75,-580.68 677.84,-577.33 684,-573 706.99,-556.82 695.88,-535.44 720,-521 777.23,-486.73 980.21,-479.77 1061.74,-478.36"/>
<polygon fill="#63b8ff" stroke="#63b8ff" points="1061.62,-481.86 1071.56,-478.21 1061.51,-474.86 1061.62,-481.86"/>
</g>
<!-- Node55 -->
<g id="node28" class="node">
<title>Node55</title>
<g id="a_node28"><a xlink:href="BuddyWireless_8h.html#af59c2527be7a67d6b09dd467f3123d55" target="_top" xlink:title=" ">
<polygon fill="white" stroke="#666666" points="816.5,-601.5 745.5,-601.5 745.5,-582.5 816.5,-582.5 816.5,-601.5"/>
<text text-anchor="middle" x="781" y="-589.5" font-family="Helvetica,sans-Serif" font-size="10.00">GetPupilAck</text>
</a>
</g>
</g>
<!-- Node54&#45;&gt;Node55 -->
<g id="edge33" class="edge">
<title>Node54&#45;&gt;Node55</title>
<path fill="none" stroke="#63b8ff" d="M663.11,-592C685.5,-592 711.73,-592 733.67,-592"/>
<polygon fill="#63b8ff" stroke="#63b8ff" points="733.52,-595.5 743.52,-592 733.52,-588.5 733.52,-595.5"/>
</g>
<!-- Node57 -->
<g id="node30" class="node">
<title>Node57</title>
<g id="a_node30"><a xlink:href="BuddyWireless_8h.html#a89fc05df708fec875356b62d21b2ce7b" target="_top" xlink:title=" ">
<polygon fill="white" stroke="#666666" points="819.5,-47.5 742.5,-47.5 742.5,-28.5 819.5,-28.5 819.5,-47.5"/>
<text text-anchor="middle" x="781" y="-35.5" font-family="Helvetica,sans-Serif" font-size="10.00">PupilDetected</text>
</a>
</g>
</g>
<!-- Node54&#45;&gt;Node57 -->
<g id="edge36" class="edge">
<title>Node54&#45;&gt;Node57</title>
<path fill="none" stroke="#63b8ff" d="M663.3,-586.77C671.22,-583.81 678.57,-579.43 684,-573 739.44,-507.35 699.84,-271.53 720,-188 731.69,-139.59 756.02,-86.18 769.84,-57.99"/>
<polygon fill="#63b8ff" stroke="#63b8ff" points="772.89,-59.72 774.22,-49.21 766.62,-56.6 772.89,-59.72"/>
</g>
<!-- Node55&#45;&gt;Node46 -->
<g id="edge35" class="edge">
<title>Node55&#45;&gt;Node46</title>
<path fill="none" stroke="#63b8ff" d="M816.94,-590.41C862.37,-587.22 943.34,-577.65 1006,-549 1034.67,-535.89 1062.31,-511.83 1079.23,-495.38"/>
<polygon fill="#63b8ff" stroke="#63b8ff" points="1081.37,-498.18 1085.97,-488.64 1076.43,-493.23 1081.37,-498.18"/>
</g>
<!-- Node56 -->
<g id="node29" class="node">
<title>Node56</title>
<g id="a_node29"><a xlink:href="transceiver_8h.html#a6feccc8c0583de3235616d42076f1371" target="_top" xlink:title=" ">
<polygon fill="white" stroke="#666666" points="977.5,-620.5 906.5,-620.5 906.5,-601.5 977.5,-601.5 977.5,-620.5"/>
<text text-anchor="middle" x="942" y="-608.5" font-family="Helvetica,sans-Serif" font-size="10.00">Decompress</text>
</a>
</g>
</g>
<!-- Node55&#45;&gt;Node56 -->
<g id="edge34" class="edge">
<title>Node55&#45;&gt;Node56</title>
<path fill="none" stroke="#63b8ff" d="M816.89,-596.17C839.78,-598.9 869.96,-602.51 894.82,-605.48"/>
<polygon fill="#63b8ff" stroke="#63b8ff" points="894.34,-608.95 904.69,-606.66 895.17,-602 894.34,-608.95"/>
</g>
<!-- Node57&#45;&gt;Node2 -->
<g id="edge38" class="edge">
<title>Node57&#45;&gt;Node2</title>
<path fill="none" stroke="#63b8ff" d="M742,-30.31C683.74,-19.21 568.68,0 470,0 355.5,0 355.5,0 355.5,0 142.04,0 132.09,-858.57 131.94,-1004.91"/>
<polygon fill="#63b8ff" stroke="#63b8ff" points="128.44,-1004.66 131.95,-1014.66 135.44,-1004.66 128.44,-1004.66"/>
</g>
<!-- Node57&#45;&gt;Node4 -->
<g id="edge37" class="edge">
<title>Node57&#45;&gt;Node4</title>
<path fill="none" stroke="#63b8ff" d="M751.93,-47.92C702.56,-66.71 599.78,-111.96 540,-182 335.98,-421.03 258.07,-815.85 241.86,-910.26"/>
<polygon fill="#63b8ff" stroke="#63b8ff" points="238.45,-909.4 240.26,-919.84 245.36,-910.55 238.45,-909.4"/>
</g>
<!-- Node59&#45;&gt;Node11 -->
<g id="edge68" class="edge">
<title>Node59&#45;&gt;Node11</title>
<path fill="none" stroke="#63b8ff" d="M660.35,-654.65C669.04,-657.52 677.43,-661.76 684,-668 721.62,-703.7 683.2,-742.45 720,-779 721.05,-780.04 722.15,-781.02 723.3,-781.95"/>
<polygon fill="#63b8ff" stroke="#63b8ff" points="721.32,-784.84 731.63,-787.26 725.08,-778.93 721.32,-784.84"/>
</g>
<!-- Node59&#45;&gt;Node46 -->
<g id="edge67" class="edge">
<title>Node59&#45;&gt;Node46</title>
<path fill="none" stroke="#63b8ff" d="M634.82,-639.12C649.41,-632.02 668.67,-621.67 684,-610 702.26,-596.1 700.13,-584.47 720,-573 750.04,-555.67 975.27,-504.7 1062.05,-485.46"/>
<polygon fill="#63b8ff" stroke="#63b8ff" points="1062.62,-488.92 1071.63,-483.35 1061.11,-482.09 1062.62,-488.92"/>
</g>
<!-- Node60 -->
<g id="node33" class="node">
<title>Node60</title>
<g id="a_node33"><a xlink:href="transceiver_8h.html#a953f1d5046e183549ed95b08f6d675e3" target="_top" xlink:title=" ">
<polygon fill="white" stroke="#666666" points="830,-216.5 732,-216.5 732,-197.5 830,-197.5 830,-216.5"/>
<text text-anchor="middle" x="781" y="-204.5" font-family="Helvetica,sans-Serif" font-size="10.00">CheckGapsLength</text>
</a>
</g>
</g>
<!-- Node59&#45;&gt;Node60 -->
<g id="edge42" class="edge">
<title>Node59&#45;&gt;Node60</title>
<path fill="none" stroke="#63b8ff" d="M645,-639.11C659.27,-633.02 674.88,-623.7 684,-610 767.71,-484.24 657.6,-409.58 720,-272 728.55,-253.14 744.75,-236.11 758.16,-224.21"/>
<polygon fill="#63b8ff" stroke="#63b8ff" points="760.34,-226.95 765.72,-217.82 755.82,-221.61 760.34,-226.95"/>
</g>
<!-- Node62 -->
<g id="node35" class="node">
<title>Node62</title>
<g id="a_node35"><a xlink:href="TransmitterCode_2src_2main_8cpp.html#a62e53eb9359c32b666e3386d62c57037" target="_top" xlink:title=" ">
<polygon fill="white" stroke="#666666" points="817,-770.5 745,-770.5 745,-751.5 817,-751.5 817,-770.5"/>
<text text-anchor="middle" x="781" y="-758.5" font-family="Helvetica,sans-Serif" font-size="10.00">GreenLedOn</text>
</a>
</g>
</g>
<!-- Node59&#45;&gt;Node62 -->
<g id="edge44" class="edge">
<title>Node59&#45;&gt;Node62</title>
<path fill="none" stroke="#63b8ff" d="M660.27,-657.82C668.5,-660.41 676.73,-663.74 684,-668 703.79,-679.6 703.61,-688.95 720,-705 733.47,-718.19 749.04,-732.7 760.94,-743.65"/>
<polygon fill="#63b8ff" stroke="#63b8ff" points="758.38,-746.04 768.12,-750.22 763.1,-740.88 758.38,-746.04"/>
</g>
<!-- Node73 -->
<g id="node39" class="node">
<title>Node73</title>
<g id="a_node39"><a xlink:href="Utilities_8h.html#a793b7bcd77531c95fe72ed4356d421c8" target="_top" xlink:title=" ">
<polygon fill="white" stroke="#666666" points="1152,-770.5 1042,-770.5 1042,-751.5 1152,-751.5 1152,-770.5"/>
<text text-anchor="middle" x="1097" y="-758.5" font-family="Helvetica,sans-Serif" font-size="10.00">StartInactvityTimeout</text>
</a>
</g>
</g>
<!-- Node59&#45;&gt;Node73 -->
<g id="edge69" class="edge">
<title>Node59&#45;&gt;Node73</title>
<path fill="none" stroke="#63b8ff" d="M660.35,-640.55C736.9,-629.17 890.87,-615.89 1006,-668 1040.63,-683.68 1068.8,-719.26 1083.92,-741.58"/>
<polygon fill="#63b8ff" stroke="#63b8ff" points="1080.88,-743.33 1089.27,-749.79 1086.74,-739.5 1080.88,-743.33"/>
</g>
<!-- Node75 -->
<g id="node41" class="node">
<title>Node75</title>
<g id="a_node41"><a xlink:href="transceiver_8h.html#a694f4f5a0147f4dc29b0bc1a8951547d" target="_top" xlink:title=" ">
<polygon fill="#fff0f0" stroke="red" points="828,-300.5 734,-300.5 734,-281.5 828,-281.5 828,-300.5"/>
<text text-anchor="middle" x="781" y="-288.5" font-family="Helvetica,sans-Serif" font-size="10.00">ParseAckPayload</text>
</a>
</g>
</g>
<!-- Node59&#45;&gt;Node75 -->
<g id="edge55" class="edge">
<title>Node59&#45;&gt;Node75</title>
<path fill="none" stroke="#63b8ff" d="M642.12,-639.09C656.58,-632.82 673.21,-623.34 684,-610 703.48,-585.93 757.57,-378.82 774.71,-311.82"/>
<polygon fill="#63b8ff" stroke="#63b8ff" points="778.1,-312.72 777.18,-302.16 771.31,-310.99 778.1,-312.72"/>
</g>
<!-- Node61 -->
<g id="node34" class="node">
<title>Node61</title>
<g id="a_node34"><a xlink:href="TransmitterCode_2src_2main_8cpp.html#a1fadc7cdd854f8b3628b622da5417d8b" target="_top" xlink:title=" ">
<polygon fill="#fff0f0" stroke="red" points="977,-94.5 907,-94.5 907,-75.5 977,-75.5 977,-94.5"/>
<text text-anchor="middle" x="942" y="-82.5" font-family="Helvetica,sans-Serif" font-size="10.00">LogThisGap</text>
</a>
</g>
</g>
<!-- Node60&#45;&gt;Node61 -->
<g id="edge43" class="edge">
<title>Node60&#45;&gt;Node61</title>
<path fill="none" stroke="#63b8ff" d="M788.38,-197.02C802.15,-176.28 836.78,-128.38 878,-103 883.52,-99.6 889.71,-96.82 895.99,-94.56"/>
<polygon fill="#63b8ff" stroke="#63b8ff" points="896.64,-98.02 905.11,-91.67 894.52,-91.35 896.64,-98.02"/>
</g>
<!-- Node62&#45;&gt;Node14 -->
<g id="edge46" class="edge">
<title>Node62&#45;&gt;Node14</title>
<path fill="none" stroke="#63b8ff" d="M817.41,-765.6C826.37,-768.26 835.33,-772.44 842,-779 879.59,-815.95 840.44,-855.02 878,-892 879.59,-893.56 881.3,-895 883.11,-896.32"/>
<polygon fill="#63b8ff" stroke="#63b8ff" points="881.1,-899.2 891.5,-901.21 884.62,-893.15 881.1,-899.2"/>
</g>
<!-- Node62&#45;&gt;Node40 -->
<g id="edge48" class="edge">
<title>Node62&#45;&gt;Node40</title>
<path fill="none" stroke="#63b8ff" d="M817.22,-768.33C825.7,-770.95 834.47,-774.43 842,-779 861.62,-790.9 858.41,-804.06 878,-816 928.78,-846.95 956.74,-821.68 1006,-855 1041.99,-879.35 1070.68,-922.43 1085.33,-947.47"/>
<polygon fill="#63b8ff" stroke="#63b8ff" points="1082.17,-948.99 1090.15,-955.96 1088.26,-945.54 1082.17,-948.99"/>
</g>
<!-- Node63 -->
<g id="node36" class="node">
<title>Node63</title>
<g id="a_node36"><a xlink:href="Utilities_8h.html#a82b1900a80d1622896601c57d6edaeda" target="_top" xlink:title=" ">
<polygon fill="white" stroke="#666666" points="991,-770.5 893,-770.5 893,-751.5 991,-751.5 991,-770.5"/>
<text text-anchor="middle" x="942" y="-758.5" font-family="Helvetica,sans-Serif" font-size="10.00">ClearSuccessRate</text>
</a>
</g>
</g>
<!-- Node62&#45;&gt;Node63 -->
<g id="edge45" class="edge">
<title>Node62&#45;&gt;Node63</title>
<path fill="none" stroke="#63b8ff" d="M817.29,-761C836.05,-761 859.64,-761 881.18,-761"/>
<polygon fill="#63b8ff" stroke="#63b8ff" points="881.03,-764.5 891.03,-761 881.03,-757.5 881.03,-764.5"/>
</g>
<!-- Node64 -->
<g id="node37" class="node">
<title>Node64</title>
<g id="a_node37"><a xlink:href="TransmitterCode_2src_2main_8cpp.html#aaa3e86084c43b049d52d7d62c58a00b9" target="_top" xlink:title=" ">
<polygon fill="#fff0f0" stroke="red" points="983,-733.5 901,-733.5 901,-714.5 983,-714.5 983,-733.5"/>
<text text-anchor="middle" x="942" y="-721.5" font-family="Helvetica,sans-Serif" font-size="10.00">LogConnection</text>
</a>
</g>
</g>
<!-- Node62&#45;&gt;Node64 -->
<g id="edge47" class="edge">
<title>Node62&#45;&gt;Node64</title>
<path fill="none" stroke="#63b8ff" d="M817.29,-752.79C838.61,-747.83 866.16,-741.42 889.85,-735.9"/>
<polygon fill="#63b8ff" stroke="#63b8ff" points="890.35,-739.38 899.29,-733.71 888.76,-732.56 890.35,-739.38"/>
</g>
<!-- Node66 -->
<g id="node38" class="node">
<title>Node66</title>
<g id="a_node38"><a xlink:href="TransmitterCode_2src_2main_8cpp.html#a5d3a46c21927cf7a3031a1e68e0b7b48" target="_top" xlink:title="SHOW COMMS.">
<polygon fill="#fff0f0" stroke="red" points="979.5,-883.5 904.5,-883.5 904.5,-864.5 979.5,-864.5 979.5,-883.5"/>
<text text-anchor="middle" x="942" y="-871.5" font-family="Helvetica,sans-Serif" font-size="10.00">ShowComms</text>
</a>
</g>
</g>
<!-- Node62&#45;&gt;Node66 -->
<g id="edge49" class="edge">
<title>Node62&#45;&gt;Node66</title>
<path fill="none" stroke="#63b8ff" d="M817.37,-766.52C826.12,-769.19 834.99,-773.14 842,-779 869.14,-801.7 851.7,-826.33 878,-850 882.62,-854.16 888.04,-857.63 893.72,-860.51"/>
<polygon fill="#63b8ff" stroke="#63b8ff" points="892.18,-863.65 902.74,-864.48 895,-857.25 892.18,-863.65"/>
</g>
<!-- Node74 -->
<g id="node40" class="node">
<title>Node74</title>
<g id="a_node40"><a xlink:href="TransmitterCode_2src_2main_8cpp.html#a6da9a1fd0b003151f79eabc702ba80ff" target="_top" xlink:title=" ">
<polygon fill="white" stroke="#666666" points="985.5,-807.5 898.5,-807.5 898.5,-788.5 985.5,-788.5 985.5,-807.5"/>
<text text-anchor="middle" x="942" y="-795.5" font-family="Helvetica,sans-Serif" font-size="10.00">ZeroDataScreen</text>
</a>
</g>
</g>
<!-- Node62&#45;&gt;Node74 -->
<g id="edge54" class="edge">
<title>Node62&#45;&gt;Node74</title>
<path fill="none" stroke="#63b8ff" d="M817.29,-769.21C837.81,-773.99 864.09,-780.1 887.15,-785.47"/>
<polygon fill="#63b8ff" stroke="#63b8ff" points="886.16,-788.83 896.7,-787.69 887.75,-782.02 886.16,-788.83"/>
</g>
<!-- Node66&#45;&gt;Node2 -->
<g id="edge52" class="edge">
<title>Node66&#45;&gt;Node2</title>
<path fill="none" stroke="#63b8ff" d="M905.29,-884C896.37,-886.55 886.82,-889.33 878,-892 663.66,-956.76 619.25,-1010.59 398,-1045 361.55,-1050.67 351.88,-1045.77 315,-1045 262.08,-1043.89 248.5,-1046.79 196,-1040 188.03,-1038.97 179.58,-1037.44 171.52,-1035.77"/>
<polygon fill="#63b8ff" stroke="#63b8ff" points="172.48,-1032.39 161.97,-1033.67 170.98,-1039.23 172.48,-1032.39"/>
</g>
<!-- Node66&#45;&gt;Node4 -->
<g id="edge51" class="edge">
<title>Node66&#45;&gt;Node4</title>
<path fill="none" stroke="#63b8ff" d="M904.11,-874C843.4,-874 718.63,-874 613,-874 468,-874 468,-874 468,-874 399.48,-874 380.62,-873.26 315,-893 297.29,-898.33 278.68,-907.49 264.24,-915.48"/>
<polygon fill="#63b8ff" stroke="#63b8ff" points="262.81,-912.26 255.86,-920.26 266.28,-918.34 262.81,-912.26"/>
</g>
<!-- Node66&#45;&gt;Node40 -->
<g id="edge50" class="edge">
<title>Node66&#45;&gt;Node40</title>
<path fill="none" stroke="#63b8ff" d="M979.98,-881.79C988.79,-884.39 997.96,-887.75 1006,-892 1034.48,-907.06 1062.17,-932.2 1079.15,-949.17"/>
<polygon fill="#63b8ff" stroke="#63b8ff" points="1076.45,-951.42 1085.94,-956.13 1081.45,-946.53 1076.45,-951.42"/>
</g>
<!-- Node66&#45;&gt;Node73 -->
<g id="edge53" class="edge">
<title>Node66&#45;&gt;Node73</title>
<path fill="none" stroke="#63b8ff" d="M956.31,-864.17C982.53,-844.8 1041.13,-801.52 1073.48,-777.63"/>
<polygon fill="#63b8ff" stroke="#63b8ff" points="1075.43,-780.54 1081.39,-771.79 1071.27,-774.91 1075.43,-780.54"/>
</g>
<!-- Node75&#45;&gt;Node43 -->
<g id="edge65" class="edge">
<title>Node75&#45;&gt;Node43</title>
<path fill="none" stroke="#63b8ff" d="M789.88,-300.73C805.87,-320.3 843.52,-365.59 878,-401 891.85,-415.23 908.4,-430.4 921.06,-441.66"/>
<polygon fill="#63b8ff" stroke="#63b8ff" points="918.55,-444.1 928.36,-448.09 923.18,-438.85 918.55,-444.1"/>
</g>
<!-- Node76 -->
<g id="node42" class="node">
<title>Node76</title>
<g id="a_node42"><a xlink:href="transceiver_8h.html#a75fa77e7bbb1cfe8fe6e1a216fbdc17e" target="_top" xlink:title=" ">
<polygon fill="white" stroke="#666666" points="974.5,-131.5 909.5,-131.5 909.5,-112.5 974.5,-112.5 974.5,-131.5"/>
<text text-anchor="middle" x="942" y="-119.5" font-family="Helvetica,sans-Serif" font-size="10.00">GetAltitude</text>
</a>
</g>
</g>
<!-- Node75&#45;&gt;Node76 -->
<g id="edge56" class="edge">
<title>Node75&#45;&gt;Node76</title>
<path fill="none" stroke="#63b8ff" d="M792.86,-281.1C805.81,-268.87 827.51,-246.98 842,-225 863.23,-192.78 849.86,-172.4 878,-146 883.86,-140.5 891.11,-136.23 898.58,-132.91"/>
<polygon fill="#63b8ff" stroke="#63b8ff" points="899.67,-136.24 907.75,-129.39 897.16,-129.71 899.67,-136.24"/>
</g>
<!-- Node77 -->
<g id="node43" class="node">
<title>Node77</title>
<g id="a_node43"><a xlink:href="transceiver_8h.html#ab5736b017daadeb2c1d7dc73489d31a6" target="_top" xlink:title=" ">
<polygon fill="white" stroke="#666666" points="1150.5,-169.5 1043.5,-169.5 1043.5,-150.5 1150.5,-150.5 1150.5,-169.5"/>
<text text-anchor="middle" x="1097" y="-157.5" font-family="Helvetica,sans-Serif" font-size="10.00">GetFromAckPayload</text>
</a>
</g>
</g>
<!-- Node75&#45;&gt;Node77 -->
<g id="edge59" class="edge">
<title>Node75&#45;&gt;Node77</title>
<path fill="none" stroke="#63b8ff" d="M791.18,-281.36C803.15,-268.68 824.62,-245.59 842,-225 858.74,-205.16 855.18,-191.37 878,-179 925.11,-153.46 986.48,-150.29 1032.1,-152.6"/>
<polygon fill="#63b8ff" stroke="#63b8ff" points="1031.64,-156.08 1041.83,-153.2 1032.07,-149.09 1031.64,-156.08"/>
</g>
<!-- Node78 -->
<g id="node44" class="node">
<title>Node78</title>
<g id="a_node44"><a xlink:href="transceiver_8h.html#a160b9119423c34869b16a4ebdc421d35" target="_top" xlink:title=" ">
<polygon fill="white" stroke="#666666" points="1005.5,-392.5 878.5,-392.5 878.5,-373.5 1005.5,-373.5 1005.5,-392.5"/>
<text text-anchor="middle" x="942" y="-380.5" font-family="Helvetica,sans-Serif" font-size="10.00">GetDateFromAckPayload</text>
</a>
</g>
</g>
<!-- Node75&#45;&gt;Node78 -->
<g id="edge58" class="edge">
<title>Node75&#45;&gt;Node78</title>
<path fill="none" stroke="#63b8ff" d="M792.37,-300.92C809.1,-316.44 843.68,-346.5 878,-364 881.68,-365.87 885.57,-367.6 889.55,-369.18"/>
<polygon fill="#63b8ff" stroke="#63b8ff" points="888.15,-372.4 898.75,-372.5 890.53,-365.81 888.15,-372.4"/>
</g>
<!-- Node79 -->
<g id="node45" class="node">
<title>Node79</title>
<g id="a_node45"><a xlink:href="transceiver_8h.html#a494cb4acb30856d1f53f08df1b80c41b" target="_top" xlink:title=" ">
<polygon fill="#fff0f0" stroke="red" points="1001.5,-355.5 882.5,-355.5 882.5,-336.5 1001.5,-336.5 1001.5,-355.5"/>
<text text-anchor="middle" x="942" y="-343.5" font-family="Helvetica,sans-Serif" font-size="10.00">GetModelsMacAddress</text>
</a>
</g>
</g>
<!-- Node75&#45;&gt;Node79 -->
<g id="edge60" class="edge">
<title>Node75&#45;&gt;Node79</title>
<path fill="none" stroke="#63b8ff" d="M807.1,-300.93C826.38,-308.43 853.72,-318.8 878,-327 883.75,-328.94 889.83,-330.9 895.85,-332.78"/>
<polygon fill="#63b8ff" stroke="#63b8ff" points="894.5,-336.02 905.09,-335.61 896.56,-329.33 894.5,-336.02"/>
</g>
<!-- Node110 -->
<g id="node46" class="node">
<title>Node110</title>
<g id="a_node46"><a xlink:href="TransmitterCode_2src_2main_8cpp.html#a4f813935d8fe58355228cbbf25e12f96" target="_top" xlink:title=" ">
<polygon fill="#fff0f0" stroke="red" points="998.5,-318.5 885.5,-318.5 885.5,-299.5 998.5,-299.5 998.5,-318.5"/>
<text text-anchor="middle" x="942" y="-306.5" font-family="Helvetica,sans-Serif" font-size="10.00">GetRXVersionNumber</text>
</a>
</g>
</g>
<!-- Node75&#45;&gt;Node110 -->
<g id="edge61" class="edge">
<title>Node75&#45;&gt;Node110</title>
<path fill="none" stroke="#63b8ff" d="M828.42,-296.25C842.73,-297.87 858.78,-299.69 874.17,-301.43"/>
<polygon fill="#63b8ff" stroke="#63b8ff" points="873.4,-304.87 883.73,-302.52 874.19,-297.91 873.4,-304.87"/>
</g>
<!-- Node220 -->
<g id="node47" class="node">
<title>Node220</title>
<g id="a_node47"><a xlink:href="transceiver_8h.html#a19f6fc09d690832e74fd3c679207f07f" target="_top" xlink:title=" ">
<polygon fill="white" stroke="#666666" points="985.5,-207.5 898.5,-207.5 898.5,-188.5 985.5,-188.5 985.5,-207.5"/>
<text text-anchor="middle" x="942" y="-195.5" font-family="Helvetica,sans-Serif" font-size="10.00">GetTemperature</text>
</a>
</g>
</g>
<!-- Node75&#45;&gt;Node220 -->
<g id="edge62" class="edge">
<title>Node75&#45;&gt;Node220</title>
<path fill="none" stroke="#63b8ff" d="M791.74,-281.25C808.15,-265.35 842.94,-233.84 878,-216 881.04,-214.45 884.24,-213.02 887.51,-211.69"/>
<polygon fill="#63b8ff" stroke="#63b8ff" points="888.5,-215.06 896.7,-208.35 886.11,-208.48 888.5,-215.06"/>
</g>
<!-- Node221 -->
<g id="node48" class="node">
<title>Node221</title>
<g id="a_node48"><a xlink:href="transceiver_8h.html#a86523345ecdd52f3d93dccd6fcf4370a" target="_top" xlink:title=" ">
<polygon fill="white" stroke="#666666" points="1006,-281.5 878,-281.5 878,-262.5 1006,-262.5 1006,-281.5"/>
<text text-anchor="middle" x="942" y="-269.5" font-family="Helvetica,sans-Serif" font-size="10.00">GetTimeFromAckPayload</text>
</a>
</g>
</g>
<!-- Node75&#45;&gt;Node221 -->
<g id="edge64" class="edge">
<title>Node75&#45;&gt;Node221</title>
<path fill="none" stroke="#63b8ff" d="M828.42,-285.45C840.33,-284.03 853.44,-282.46 866.39,-280.92"/>
<polygon fill="#63b8ff" stroke="#63b8ff" points="866.66,-284.41 876.18,-279.75 865.83,-277.46 866.66,-284.41"/>
</g>
<!-- Node123 -->
<g id="node49" class="node">
<title>Node123</title>
<g id="a_node49"><a xlink:href="Utilities_8h.html#a7a48851f0d38e4a0dd727a30d9515cf1" target="_top" xlink:title=" ">
<polygon fill="white" stroke="#666666" points="979.5,-244.5 904.5,-244.5 904.5,-225.5 979.5,-225.5 979.5,-244.5"/>
<text text-anchor="middle" x="942" y="-232.5" font-family="Helvetica,sans-Serif" font-size="10.00">ReadTheRTC</text>
</a>
</g>
</g>
<!-- Node75&#45;&gt;Node123 -->
<g id="edge66" class="edge">
<title>Node75&#45;&gt;Node123</title>
<path fill="none" stroke="#63b8ff" d="M805.04,-281.14C824.34,-273.06 852.71,-261.59 878,-253 882.99,-251.3 888.23,-249.63 893.48,-248.03"/>
<polygon fill="#63b8ff" stroke="#63b8ff" points="894.12,-251.49 902.71,-245.29 892.13,-244.78 894.12,-251.49"/>
</g>
<!-- Node76&#45;&gt;Node77 -->
<g id="edge57" class="edge">
<title>Node76&#45;&gt;Node77</title>
<path fill="none" stroke="#63b8ff" d="M974.7,-129.87C994.94,-134.9 1021.63,-141.53 1044.82,-147.29"/>
<polygon fill="#63b8ff" stroke="#63b8ff" points="1043.86,-150.66 1054.41,-149.67 1045.55,-143.86 1043.86,-150.66"/>
</g>
<!-- Node220&#45;&gt;Node77 -->
<g id="edge63" class="edge">
<title>Node220&#45;&gt;Node77</title>
<path fill="none" stroke="#63b8ff" d="M983.2,-188.02C1002.01,-183.34 1024.64,-177.72 1044.67,-172.75"/>
<polygon fill="#63b8ff" stroke="#63b8ff" points="1045.47,-176.16 1054.34,-170.35 1043.79,-169.36 1045.47,-176.16"/>
</g>
</g>
</svg>
