<?xml version="1.0" encoding="UTF-8" standalone="no"?>
<!DOCTYPE svg PUBLIC "-//W3C//DTD SVG 1.1//EN"
 "http://www.w3.org/Graphics/SVG/1.1/DTD/svg11.dtd">
<!-- Generated by graphviz version 3.0.0 (20220413.0242)
 -->
<!-- Title: OpenModelsFile Pages: 1 -->
<svg width="1148pt" height="712pt"
 viewBox="0.00 0.00 1148.00 712.00" xmlns="http://www.w3.org/2000/svg" xmlns:xlink="http://www.w3.org/1999/xlink">
<g id="graph0" class="graph" transform="scale(1 1) rotate(0) translate(4 708)">
<title>OpenModelsFile</title>
<polygon fill="white" stroke="transparent" points="-4,4 -4,-708 1144,-708 1144,4 -4,4"/>
<!-- Node1 -->
<g id="node1" class="node">
<title>Node1</title>
<g id="a_node1"><a xlink:title=" ">
<polygon fill="#bfbfbf" stroke="black" points="1053,-437.5 1053,-456.5 1140,-456.5 1140,-437.5 1053,-437.5"/>
<text text-anchor="middle" x="1096.5" y="-444.5" font-family="Helvetica,sans-Serif" font-size="10.00">OpenModelsFile</text>
</a>
</g>
</g>
<!-- Node2 -->
<g id="node2" class="node">
<title>Node2</title>
<g id="a_node2"><a xlink:href="TransmitterCode_2src_2main_8cpp.html#a909acb7ed667a5cc9c4ec6191fc33e75" target="_top" xlink:title=" ">
<polygon fill="white" stroke="black" points="737,-684.5 737,-703.5 837,-703.5 837,-684.5 737,-684.5"/>
<text text-anchor="middle" x="787" y="-691.5" font-family="Helvetica,sans-Serif" font-size="10.00">LoadAllParameters</text>
</a>
</g>
</g>
<!-- Node1&#45;&gt;Node2 -->
<g id="edge1" class="edge">
<title>Node1&#45;&gt;Node2</title>
<path fill="none" stroke="midnightblue" d="M1090.23,-466.46C1080.69,-498.27 1057.67,-561.59 1017,-599 965.2,-646.64 886.16,-672.18 835.8,-684.41"/>
<polygon fill="midnightblue" stroke="midnightblue" points="1093.66,-467.19 1093.05,-456.62 1086.93,-465.27 1093.66,-467.19"/>
</g>
<!-- Node8 -->
<g id="node8" class="node">
<title>Node8</title>
<g id="a_node8"><a xlink:href="TransmitterCode_2src_2main_8cpp.html#a3d9d955a8c7cfea4cc99e78f3746bd26" target="_top" xlink:title=" ">
<polygon fill="white" stroke="black" points="906,-570.5 906,-589.5 989,-589.5 989,-570.5 906,-570.5"/>
<text text-anchor="middle" x="947.5" y="-577.5" font-family="Helvetica,sans-Serif" font-size="10.00">ReadOneModel</text>
</a>
</g>
</g>
<!-- Node1&#45;&gt;Node8 -->
<g id="edge9" class="edge">
<title>Node1&#45;&gt;Node8</title>
<path fill="none" stroke="midnightblue" d="M1077.44,-463.34C1046.54,-491.29 984.45,-547.48 959.37,-570.16"/>
<polygon fill="midnightblue" stroke="midnightblue" points="1079.86,-465.87 1084.93,-456.57 1075.16,-460.68 1079.86,-465.87"/>
</g>
<!-- Node15 -->
<g id="node15" class="node">
<title>Node15</title>
<g id="a_node15"><a xlink:href="TransmitterCode_2src_2main_8cpp.html#acbd0460ea44a7d07e4d77878411febb4" target="_top" xlink:title=" ">
<polygon fill="white" stroke="black" points="741,-494.5 741,-513.5 833,-513.5 833,-494.5 741,-494.5"/>
<text text-anchor="middle" x="787" y="-501.5" font-family="Helvetica,sans-Serif" font-size="10.00">SetDefaultValues</text>
</a>
</g>
</g>
<!-- Node1&#45;&gt;Node15 -->
<g id="edge51" class="edge">
<title>Node1&#45;&gt;Node15</title>
<path fill="none" stroke="midnightblue" d="M1042.87,-456.76C983.8,-467.71 888.96,-485.29 833.14,-495.63"/>
<polygon fill="midnightblue" stroke="midnightblue" points="1043.55,-460.19 1052.74,-454.93 1042.27,-453.31 1043.55,-460.19"/>
</g>
<!-- Node16 -->
<g id="node16" class="node">
<title>Node16</title>
<g id="a_node16"><a xlink:href="TransmitterCode_2src_2main_8cpp.html#a92c5dada5e5ef70261391557464f2d19" target="_top" xlink:title=" ">
<polygon fill="white" stroke="black" points="736.5,-152.5 736.5,-171.5 837.5,-171.5 837.5,-152.5 736.5,-152.5"/>
<text text-anchor="middle" x="787" y="-159.5" font-family="Helvetica,sans-Serif" font-size="10.00">SaveAllParameters</text>
</a>
</g>
</g>
<!-- Node1&#45;&gt;Node16 -->
<g id="edge23" class="edge">
<title>Node1&#45;&gt;Node16</title>
<path fill="none" stroke="midnightblue" d="M1082.42,-429.22C1067.53,-409.48 1042.03,-377.08 1017,-352 941.1,-275.94 837.36,-198.05 801.13,-171.51"/>
<polygon fill="midnightblue" stroke="midnightblue" points="1079.68,-431.41 1088.47,-437.33 1085.29,-427.22 1079.68,-431.41"/>
</g>
<!-- Node22 -->
<g id="node22" class="node">
<title>Node22</title>
<g id="a_node22"><a xlink:href="TransmitterCode_2src_2main_8cpp.html#a23e0cf21492258d84314ae4d1c4a9042" target="_top" xlink:title=" ">
<polygon fill="white" stroke="black" points="906,-361.5 906,-380.5 989,-380.5 989,-361.5 906,-361.5"/>
<text text-anchor="middle" x="947.5" y="-368.5" font-family="Helvetica,sans-Serif" font-size="10.00">SaveOneModel</text>
</a>
</g>
</g>
<!-- Node1&#45;&gt;Node22 -->
<g id="edge33" class="edge">
<title>Node1&#45;&gt;Node22</title>
<path fill="none" stroke="midnightblue" d="M1067.92,-432.74C1038.41,-417.48 992.4,-393.7 966.97,-380.55"/>
<polygon fill="midnightblue" stroke="midnightblue" points="1066.39,-435.89 1076.88,-437.37 1069.61,-429.67 1066.39,-435.89"/>
</g>
<!-- Node29 -->
<g id="node29" class="node">
<title>Node29</title>
<g id="a_node29"><a xlink:href="TransmitterCode_2src_2main_8cpp.html#aaf3d3b6d086a958ac8ebf1bb771adcee" target="_top" xlink:title=" ">
<polygon fill="white" stroke="black" points="878,-114.5 878,-133.5 1017,-133.5 1017,-114.5 878,-114.5"/>
<text text-anchor="middle" x="947.5" y="-121.5" font-family="Helvetica,sans-Serif" font-size="10.00">SaveTransmitterParameters</text>
</a>
</g>
</g>
<!-- Node1&#45;&gt;Node29 -->
<g id="edge44" class="edge">
<title>Node1&#45;&gt;Node29</title>
<path fill="none" stroke="midnightblue" d="M1090.52,-427.58C1079.97,-387.98 1053.33,-295.6 1017,-224 999,-188.53 970.24,-150.93 956.42,-133.68"/>
<polygon fill="midnightblue" stroke="midnightblue" points="1087.14,-428.5 1093.06,-437.29 1093.92,-426.73 1087.14,-428.5"/>
</g>
<!-- Node3 -->
<g id="node3" class="node">
<title>Node3</title>
<g id="a_node3"><a xlink:href="TransmitterCode_2src_2main_8cpp.html#a804fdbdd5eab4c596bbe8a23eecbe4d5" target="_top" xlink:title=" ">
<polygon fill="white" stroke="black" points="589,-456.5 589,-475.5 690,-475.5 690,-456.5 589,-456.5"/>
<text text-anchor="middle" x="639.5" y="-463.5" font-family="Helvetica,sans-Serif" font-size="10.00">ButtonWasPressed</text>
</a>
</g>
</g>
<!-- Node2&#45;&gt;Node3 -->
<g id="edge2" class="edge">
<title>Node2&#45;&gt;Node3</title>
<path fill="none" stroke="midnightblue" d="M775.62,-675.16C759.42,-646.07 726.79,-588.73 696,-542 679.82,-517.44 658.95,-489.85 647.99,-475.62"/>
<polygon fill="midnightblue" stroke="midnightblue" points="772.72,-677.15 780.63,-684.2 778.84,-673.76 772.72,-677.15"/>
</g>
<!-- Node7 -->
<g id="node7" class="node">
<title>Node7</title>
<g id="a_node7"><a xlink:href="TransmitterCode_2src_2main_8cpp.html#a17699f358cf9f7c3155a9c5daf8ff13c" target="_top" xlink:title=" ">
<polygon fill="white" stroke="black" points="619,-684.5 619,-703.5 660,-703.5 660,-684.5 619,-684.5"/>
<text text-anchor="middle" x="639.5" y="-691.5" font-family="Helvetica,sans-Serif" font-size="10.00">setup</text>
</a>
</g>
</g>
<!-- Node2&#45;&gt;Node7 -->
<g id="edge8" class="edge">
<title>Node2&#45;&gt;Node7</title>
<path fill="none" stroke="midnightblue" d="M726.73,-694C703,-694 677.3,-694 660.19,-694"/>
<polygon fill="midnightblue" stroke="midnightblue" points="726.74,-697.5 736.74,-694 726.74,-690.5 726.74,-697.5"/>
</g>
<!-- Node4 -->
<g id="node4" class="node">
<title>Node4</title>
<g id="a_node4"><a xlink:href="TransmitterCode_2src_2main_8cpp.html#ad3cb30894c94eb016e98bdcaa899ac86" target="_top" xlink:title=" ">
<polygon fill="white" stroke="black" points="0,-394.5 0,-413.5 35,-413.5 35,-394.5 0,-394.5"/>
<text text-anchor="middle" x="17.5" y="-401.5" font-family="Helvetica,sans-Serif" font-size="10.00">loop</text>
</a>
</g>
</g>
<!-- Node3&#45;&gt;Node4 -->
<g id="edge3" class="edge">
<title>Node3&#45;&gt;Node4</title>
<path fill="none" stroke="midnightblue" d="M578.66,-458.21C519.62,-451.2 426.75,-442 346,-442 346,-442 346,-442 213,-442 146.08,-442 68.57,-420.06 35.2,-409.53"/>
<polygon fill="midnightblue" stroke="midnightblue" points="578.57,-461.72 588.92,-459.44 579.41,-454.77 578.57,-461.72"/>
</g>
<!-- Node5 -->
<g id="node5" class="node">
<title>Node5</title>
<g id="a_node5"><a xlink:href="TransmitterCode_2src_2main_8cpp.html#a558ea014e230b7caa54ce5a37ad29b22" target="_top" xlink:title=" ">
<polygon fill="white" stroke="black" points="437,-394.5 437,-413.5 538,-413.5 538,-394.5 437,-394.5"/>
<text text-anchor="middle" x="487.5" y="-401.5" font-family="Helvetica,sans-Serif" font-size="10.00">ManageTransmitter</text>
</a>
</g>
</g>
<!-- Node3&#45;&gt;Node5 -->
<g id="edge4" class="edge">
<title>Node3&#45;&gt;Node5</title>
<path fill="none" stroke="midnightblue" d="M605.86,-452.4C588.4,-445.14 566.54,-436.06 547,-428 535.43,-423.23 522.57,-417.94 511.85,-413.55"/>
<polygon fill="midnightblue" stroke="midnightblue" points="605,-455.84 615.57,-456.45 607.69,-449.37 605,-455.84"/>
</g>
<!-- Node6 -->
<g id="node6" class="node">
<title>Node6</title>
<g id="a_node6"><a xlink:href="TransmitterCode_2src_2main_8cpp.html#ab7c9edf843c732d7fe296564f39bc0dc" target="_top" xlink:title="RECEIVE A MODEL FILE.">
<polygon fill="white" stroke="black" points="440.5,-470.5 440.5,-489.5 534.5,-489.5 534.5,-470.5 440.5,-470.5"/>
<text text-anchor="middle" x="487.5" y="-477.5" font-family="Helvetica,sans-Serif" font-size="10.00">ReceiveModelFile</text>
</a>
</g>
</g>
<!-- Node3&#45;&gt;Node6 -->
<g id="edge6" class="edge">
<title>Node3&#45;&gt;Node6</title>
<path fill="none" stroke="midnightblue" d="M578.78,-464.95C561.18,-466.3 542.41,-468.27 526.57,-470.48"/>
<polygon fill="midnightblue" stroke="midnightblue" points="579.24,-468.43 588.97,-464.23 578.75,-461.44 579.24,-468.43"/>
</g>
<!-- Node5&#45;&gt;Node4 -->
<g id="edge5" class="edge">
<title>Node5&#45;&gt;Node4</title>
<path fill="none" stroke="midnightblue" d="M426.8,-404C319.14,-404 97.83,-404 35.29,-404"/>
<polygon fill="midnightblue" stroke="midnightblue" points="426.86,-407.5 436.86,-404 426.86,-400.5 426.86,-407.5"/>
</g>
<!-- Node6&#45;&gt;Node3 -->
<g id="edge7" class="edge">
<title>Node6&#45;&gt;Node3</title>
<path fill="none" stroke="midnightblue" d="M544.78,-481.31C563.28,-479.96 583.42,-477.89 600.26,-475.54"/>
<polygon fill="midnightblue" stroke="midnightblue" points="544.44,-477.82 534.7,-481.97 544.9,-484.81 544.44,-477.82"/>
</g>
<!-- Node8&#45;&gt;Node2 -->
<g id="edge19" class="edge">
<title>Node8&#45;&gt;Node2</title>
<path fill="none" stroke="midnightblue" d="M928.65,-596.5C903.88,-619.19 860.08,-658.55 842,-670 833.16,-675.6 822.79,-680.55 813.52,-684.47"/>
<polygon fill="midnightblue" stroke="midnightblue" points="931.27,-598.85 936.26,-589.5 926.53,-593.69 931.27,-598.85"/>
</g>
<!-- Node8&#45;&gt;Node3 -->
<g id="edge10" class="edge">
<title>Node8&#45;&gt;Node3</title>
<path fill="none" stroke="midnightblue" d="M895.48,-583.44C850.34,-584.41 783.79,-580.65 732,-556 692.77,-537.32 660.21,-494.88 646.93,-475.71"/>
<polygon fill="midnightblue" stroke="midnightblue" points="895.73,-586.93 905.62,-583.13 895.52,-579.93 895.73,-586.93"/>
</g>
<!-- Node8&#45;&gt;Node6 -->
<g id="edge20" class="edge">
<title>Node8&#45;&gt;Node6</title>
<path fill="none" stroke="midnightblue" d="M895.85,-590.02C889.79,-591.53 883.73,-593.2 878,-595 861.47,-600.21 859,-606.6 842,-610 728.37,-632.73 684.35,-636.18 583,-580 541.64,-557.07 507.73,-509.79 494.48,-489.54"/>
<polygon fill="midnightblue" stroke="midnightblue" points="897.05,-593.33 905.98,-587.61 895.44,-586.52 897.05,-593.33"/>
</g>
<!-- Node9 -->
<g id="node9" class="node">
<title>Node9</title>
<g id="a_node9"><a xlink:href="TransmitterCode_2src_2main_8cpp.html#a984cb52354a84c45e9e41f396a1c5e92" target="_top" xlink:title=" ">
<polygon fill="white" stroke="black" points="591,-551.5 591,-570.5 688,-570.5 688,-551.5 591,-551.5"/>
<text text-anchor="middle" x="639.5" y="-558.5" font-family="Helvetica,sans-Serif" font-size="10.00">CheckModelName</text>
</a>
</g>
</g>
<!-- Node8&#45;&gt;Node9 -->
<g id="edge11" class="edge">
<title>Node8&#45;&gt;Node9</title>
<path fill="none" stroke="midnightblue" d="M895.78,-590.04C852.08,-597.1 787.47,-603.7 732,-594 706.55,-589.55 678.84,-578.63 660.66,-570.57"/>
<polygon fill="midnightblue" stroke="midnightblue" points="896.59,-593.46 905.87,-588.35 895.42,-586.55 896.59,-593.46"/>
</g>
<!-- Node10 -->
<g id="node10" class="node">
<title>Node10</title>
<g id="a_node10"><a xlink:href="TransmitterCode_2src_2main_8cpp.html#af8fe429ceb65bf9d257a2a0f1c63eccb" target="_top" xlink:title=" ">
<polygon fill="white" stroke="black" points="588.5,-356.5 588.5,-375.5 690.5,-375.5 690.5,-356.5 588.5,-356.5"/>
<text text-anchor="middle" x="639.5" y="-363.5" font-family="Helvetica,sans-Serif" font-size="10.00">CompareModelsIDs</text>
</a>
</g>
</g>
<!-- Node8&#45;&gt;Node10 -->
<g id="edge13" class="edge">
<title>Node8&#45;&gt;Node10</title>
<path fill="none" stroke="midnightblue" d="M897.37,-568.05C836.08,-552.98 738.47,-528.38 732,-523 703.27,-499.09 714.62,-479.41 696,-447 680.54,-420.1 659.01,-390.51 647.86,-375.65"/>
<polygon fill="midnightblue" stroke="midnightblue" points="896.7,-571.49 907.25,-570.47 898.37,-564.69 896.7,-571.49"/>
</g>
<!-- Node8&#45;&gt;Node15 -->
<g id="edge21" class="edge">
<title>Node8&#45;&gt;Node15</title>
<path fill="none" stroke="midnightblue" d="M918.76,-565.78C897.79,-555.14 868.23,-540.35 842,-528 831.6,-523.11 819.97,-517.9 810.17,-513.59"/>
<polygon fill="midnightblue" stroke="midnightblue" points="917.24,-568.94 927.74,-570.36 920.42,-562.7 917.24,-568.94"/>
</g>
<!-- Node9&#45;&gt;Node5 -->
<g id="edge12" class="edge">
<title>Node9&#45;&gt;Node5</title>
<path fill="none" stroke="midnightblue" d="M623.25,-543.74C605.32,-523.58 574.51,-489.39 547,-461 530.42,-443.89 510.41,-424.69 498.61,-413.51"/>
<polygon fill="midnightblue" stroke="midnightblue" points="620.84,-546.3 630.1,-551.46 626.08,-541.66 620.84,-546.3"/>
</g>
<!-- Node11 -->
<g id="node11" class="node">
<title>Node11</title>
<g id="a_node11"><a xlink:href="TransmitterCode_2src_2main_8cpp.html#a494cb4acb30856d1f53f08df1b80c41b" target="_top" xlink:title=" ">
<polygon fill="white" stroke="black" points="428,-356.5 428,-375.5 547,-375.5 547,-356.5 428,-356.5"/>
<text text-anchor="middle" x="487.5" y="-363.5" font-family="Helvetica,sans-Serif" font-size="10.00">GetModelsMacAddress</text>
</a>
</g>
</g>
<!-- Node10&#45;&gt;Node11 -->
<g id="edge14" class="edge">
<title>Node10&#45;&gt;Node11</title>
<path fill="none" stroke="midnightblue" d="M578.06,-366C567.82,-366 557.21,-366 547.03,-366"/>
<polygon fill="midnightblue" stroke="midnightblue" points="578.13,-369.5 588.13,-366 578.13,-362.5 578.13,-369.5"/>
</g>
<!-- Node12 -->
<g id="node12" class="node">
<title>Node12</title>
<g id="a_node12"><a xlink:href="TransmitterCode_2src_2main_8cpp.html#a694f4f5a0147f4dc29b0bc1a8951547d" target="_top" xlink:title=" ">
<polygon fill="white" stroke="black" points="298,-356.5 298,-375.5 392,-375.5 392,-356.5 298,-356.5"/>
<text text-anchor="middle" x="345" y="-363.5" font-family="Helvetica,sans-Serif" font-size="10.00">ParseAckPayload</text>
</a>
</g>
</g>
<!-- Node11&#45;&gt;Node12 -->
<g id="edge15" class="edge">
<title>Node11&#45;&gt;Node12</title>
<path fill="none" stroke="midnightblue" d="M417.63,-366C408.99,-366 400.32,-366 392.14,-366"/>
<polygon fill="midnightblue" stroke="midnightblue" points="417.73,-369.5 427.73,-366 417.73,-362.5 417.73,-369.5"/>
</g>
<!-- Node13 -->
<g id="node13" class="node">
<title>Node13</title>
<g id="a_node13"><a xlink:href="RadioFunctions_8cpp.html#a1c11bb6771548de7d96723045b922620" target="_top" xlink:title=" ">
<polygon fill="white" stroke="black" points="166,-356.5 166,-375.5 262,-375.5 262,-356.5 166,-356.5"/>
<text text-anchor="middle" x="214" y="-363.5" font-family="Helvetica,sans-Serif" font-size="10.00">SuccessfulPacket</text>
</a>
</g>
</g>
<!-- Node12&#45;&gt;Node13 -->
<g id="edge16" class="edge">
<title>Node12&#45;&gt;Node13</title>
<path fill="none" stroke="midnightblue" d="M287.59,-366C279.11,-366 270.45,-366 262.19,-366"/>
<polygon fill="midnightblue" stroke="midnightblue" points="287.79,-369.5 297.79,-366 287.79,-362.5 287.79,-369.5"/>
</g>
<!-- Node14 -->
<g id="node14" class="node">
<title>Node14</title>
<g id="a_node14"><a xlink:href="RadioFunctions_8cpp.html#a049bfb836e7aa4a3a48a1a4bd225fafc" target="_top" xlink:title=" ">
<polygon fill="white" stroke="black" points="71,-356.5 71,-375.5 130,-375.5 130,-356.5 71,-356.5"/>
<text text-anchor="middle" x="100.5" y="-363.5" font-family="Helvetica,sans-Serif" font-size="10.00">SendData</text>
</a>
</g>
</g>
<!-- Node13&#45;&gt;Node14 -->
<g id="edge17" class="edge">
<title>Node13&#45;&gt;Node14</title>
<path fill="none" stroke="midnightblue" d="M155.71,-366C146.82,-366 137.99,-366 130.11,-366"/>
<polygon fill="midnightblue" stroke="midnightblue" points="155.71,-369.5 165.71,-366 155.71,-362.5 155.71,-369.5"/>
</g>
<!-- Node14&#45;&gt;Node4 -->
<g id="edge18" class="edge">
<title>Node14&#45;&gt;Node4</title>
<path fill="none" stroke="midnightblue" d="M70.01,-379.84C58.25,-385.35 45.16,-391.49 35.12,-396.2"/>
<polygon fill="midnightblue" stroke="midnightblue" points="71.49,-383 79.06,-375.59 68.52,-376.67 71.49,-383"/>
</g>
<!-- Node15&#45;&gt;Node3 -->
<g id="edge22" class="edge">
<title>Node15&#45;&gt;Node3</title>
<path fill="none" stroke="midnightblue" d="M739.35,-491.82C719.15,-486.54 695.85,-480.46 676.95,-475.52"/>
<polygon fill="midnightblue" stroke="midnightblue" points="738.72,-495.27 749.28,-494.41 740.49,-488.5 738.72,-495.27"/>
</g>
<!-- Node16&#45;&gt;Node3 -->
<g id="edge24" class="edge">
<title>Node16&#45;&gt;Node3</title>
<path fill="none" stroke="midnightblue" d="M742.25,-176.62C738.38,-179.26 734.86,-182.36 732,-186 676.48,-256.69 730.16,-301.86 696,-385 684.34,-413.38 661.64,-441.9 649.19,-456.33"/>
<polygon fill="midnightblue" stroke="midnightblue" points="744.2,-179.54 751.15,-171.55 740.73,-173.46 744.2,-179.54"/>
</g>
<!-- Node16&#45;&gt;Node6 -->
<g id="edge31" class="edge">
<title>Node16&#45;&gt;Node6</title>
<path fill="none" stroke="midnightblue" d="M744.38,-176.28C739.83,-179.01 735.56,-182.23 732,-186 700.98,-218.81 725.16,-246.53 696,-281 658.43,-325.4 622.31,-304.14 583,-347 557.74,-374.54 568.73,-392.59 547,-423 533.65,-441.69 513.77,-459.55 500.97,-470.15"/>
<polygon fill="midnightblue" stroke="midnightblue" points="746.11,-179.32 753.36,-171.59 742.88,-173.11 746.11,-179.32"/>
</g>
<!-- Node16&#45;&gt;Node10 -->
<g id="edge27" class="edge">
<title>Node16&#45;&gt;Node10</title>
<path fill="none" stroke="midnightblue" d="M743.17,-176.44C739,-179.13 735.16,-182.29 732,-186 691.21,-233.96 730.73,-270.49 696,-323 686.52,-337.34 670.65,-348.92 658.3,-356.44"/>
<polygon fill="midnightblue" stroke="midnightblue" points="744.98,-179.44 752.06,-171.57 741.61,-173.3 744.98,-179.44"/>
</g>
<!-- Node17 -->
<g id="node17" class="node">
<title>Node17</title>
<g id="a_node17"><a xlink:href="TransmitterCode_2src_2main_8cpp.html#a6ae37c6938b8c10b83d1bc74e8643bd9" target="_top" xlink:title=" ">
<polygon fill="white" stroke="black" points="583,-100.5 583,-119.5 696,-119.5 696,-100.5 583,-100.5"/>
<text text-anchor="middle" x="639.5" y="-107.5" font-family="Helvetica,sans-Serif" font-size="10.00">CheckPowerOffButton</text>
</a>
</g>
</g>
<!-- Node16&#45;&gt;Node17 -->
<g id="edge25" class="edge">
<title>Node16&#45;&gt;Node17</title>
<path fill="none" stroke="midnightblue" d="M748.43,-148.96C742.91,-146.99 737.3,-144.96 732,-143 715.9,-137.04 712.12,-134.89 696,-129 687.3,-125.82 677.77,-122.5 669.1,-119.54"/>
<polygon fill="midnightblue" stroke="midnightblue" points="747.59,-152.37 758.19,-152.41 749.93,-145.78 747.59,-152.37"/>
</g>
<!-- Node18 -->
<g id="node18" class="node">
<title>Node18</title>
<g id="a_node18"><a xlink:href="TransmitterCode_2src_2main_8cpp.html#a16c65917a148c7f6c17babf11e977b69" target="_top" xlink:title=" ">
<polygon fill="white" stroke="black" points="598.5,-252.5 598.5,-271.5 680.5,-271.5 680.5,-252.5 598.5,-252.5"/>
<text text-anchor="middle" x="639.5" y="-259.5" font-family="Helvetica,sans-Serif" font-size="10.00">EndBuddyView</text>
</a>
</g>
</g>
<!-- Node16&#45;&gt;Node18 -->
<g id="edge28" class="edge">
<title>Node16&#45;&gt;Node18</title>
<path fill="none" stroke="midnightblue" d="M747.04,-175.93C741.67,-178.79 736.47,-182.13 732,-186 709.33,-205.6 719.51,-224.42 696,-243 691.13,-246.85 685.42,-249.95 679.56,-252.43"/>
<polygon fill="midnightblue" stroke="midnightblue" points="748.64,-179.05 756.14,-171.57 745.61,-172.73 748.64,-179.05"/>
</g>
<!-- Node19 -->
<g id="node19" class="node">
<title>Node19</title>
<g id="a_node19"><a xlink:href="TransmitterCode_2src_2main_8cpp.html#aa1ada50da7cf7f716d14bc9c1a7fdfe9" target="_top" xlink:title=" ">
<polygon fill="white" stroke="black" points="593,-214.5 593,-233.5 686,-233.5 686,-214.5 593,-214.5"/>
<text text-anchor="middle" x="639.5" y="-221.5" font-family="Helvetica,sans-Serif" font-size="10.00">OptionView2Start</text>
</a>
</g>
</g>
<!-- Node16&#45;&gt;Node19 -->
<g id="edge29" class="edge">
<title>Node16&#45;&gt;Node19</title>
<path fill="none" stroke="midnightblue" d="M753.94,-175.82C746.69,-179.07 739.04,-182.58 732,-186 715.72,-193.9 712.61,-197.83 696,-205 688.05,-208.43 679.26,-211.68 671.07,-214.49"/>
<polygon fill="midnightblue" stroke="midnightblue" points="755.78,-178.83 763.51,-171.59 752.95,-172.43 755.78,-178.83"/>
</g>
<!-- Node20 -->
<g id="node20" class="node">
<title>Node20</title>
<g id="a_node20"><a xlink:href="TransmitterCode_2src_2main_8cpp.html#ab71829b0aee177464a613b151545c08a" target="_top" xlink:title=" ">
<polygon fill="white" stroke="black" points="595,-176.5 595,-195.5 684,-195.5 684,-176.5 595,-176.5"/>
<text text-anchor="middle" x="639.5" y="-183.5" font-family="Helvetica,sans-Serif" font-size="10.00">OptionView3End</text>
</a>
</g>
</g>
<!-- Node16&#45;&gt;Node20 -->
<g id="edge30" class="edge">
<title>Node16&#45;&gt;Node20</title>
<path fill="none" stroke="midnightblue" d="M726.22,-171.86C712.11,-174.19 697.34,-176.62 684.1,-178.81"/>
<polygon fill="midnightblue" stroke="midnightblue" points="727.04,-175.27 736.33,-170.19 725.9,-168.37 727.04,-175.27"/>
</g>
<!-- Node21 -->
<g id="node21" class="node">
<title>Node21</title>
<g id="a_node21"><a xlink:href="TransmitterCode_2src_2main_8cpp.html#a35f886d783cd5aa95171f1ecba39ef0b" target="_top" xlink:title=" ">
<polygon fill="white" stroke="black" points="600.5,-138.5 600.5,-157.5 678.5,-157.5 678.5,-138.5 600.5,-138.5"/>
<text text-anchor="middle" x="639.5" y="-145.5" font-family="Helvetica,sans-Serif" font-size="10.00">SetupViewFM</text>
</a>
</g>
</g>
<!-- Node16&#45;&gt;Node21 -->
<g id="edge32" class="edge">
<title>Node16&#45;&gt;Node21</title>
<path fill="none" stroke="midnightblue" d="M726.03,-156.23C710.11,-154.7 693.35,-153.08 678.92,-151.7"/>
<polygon fill="midnightblue" stroke="midnightblue" points="726.04,-159.75 736.33,-157.22 726.72,-152.78 726.04,-159.75"/>
</g>
<!-- Node17&#45;&gt;Node5 -->
<g id="edge26" class="edge">
<title>Node17&#45;&gt;Node5</title>
<path fill="none" stroke="midnightblue" d="M586.21,-125.62C585.07,-126.67 583.99,-127.8 583,-129 509.83,-217.59 620.86,-296.99 547,-385 543.77,-388.84 539.76,-391.92 535.36,-394.37"/>
<polygon fill="midnightblue" stroke="midnightblue" points="588.47,-128.3 594.55,-119.63 584.39,-122.61 588.47,-128.3"/>
</g>
<!-- Node22&#45;&gt;Node3 -->
<g id="edge36" class="edge">
<title>Node22&#45;&gt;Node3</title>
<path fill="none" stroke="midnightblue" d="M929.84,-387.61C910.53,-405.7 876.89,-433.81 842,-447 792.7,-465.64 731.99,-468.96 690.17,-468.51"/>
<polygon fill="midnightblue" stroke="midnightblue" points="932.41,-390 937.19,-380.54 927.56,-384.95 932.41,-390"/>
</g>
<!-- Node22&#45;&gt;Node15 -->
<g id="edge43" class="edge">
<title>Node22&#45;&gt;Node15</title>
<path fill="none" stroke="midnightblue" d="M933.19,-388.68C914.82,-412.11 879.66,-453.54 842,-480 833.77,-485.78 823.93,-490.65 814.92,-494.46"/>
<polygon fill="midnightblue" stroke="midnightblue" points="936.04,-390.71 939.38,-380.66 930.5,-386.44 936.04,-390.71"/>
</g>
<!-- Node22&#45;&gt;Node16 -->
<g id="edge42" class="edge">
<title>Node22&#45;&gt;Node16</title>
<path fill="none" stroke="midnightblue" d="M935.2,-352.65C916.91,-323.4 879.1,-264.85 842,-219 827.77,-201.41 809.29,-182.66 798.05,-171.66"/>
<polygon fill="midnightblue" stroke="midnightblue" points="932.38,-354.74 940.63,-361.38 938.32,-351.04 932.38,-354.74"/>
</g>
<!-- Node23 -->
<g id="node23" class="node">
<title>Node23</title>
<g id="a_node23"><a xlink:href="TransmitterCode_2src_2main_8cpp.html#a7b8f152779a09d867292d3a8e7f76d85" target="_top" xlink:title=" ">
<polygon fill="white" stroke="black" points="759,-304.5 759,-323.5 815,-323.5 815,-304.5 759,-304.5"/>
<text text-anchor="middle" x="787" y="-311.5" font-family="Helvetica,sans-Serif" font-size="10.00">BindNow</text>
</a>
</g>
</g>
<!-- Node22&#45;&gt;Node23 -->
<g id="edge34" class="edge">
<title>Node22&#45;&gt;Node23</title>
<path fill="none" stroke="midnightblue" d="M910.9,-357.95C890.71,-350.58 864.96,-341.21 842,-333 833.3,-329.89 823.79,-326.53 815.21,-323.51"/>
<polygon fill="midnightblue" stroke="midnightblue" points="909.74,-361.25 920.33,-361.4 912.14,-354.68 909.74,-361.25"/>
</g>
<!-- Node24 -->
<g id="node24" class="node">
<title>Node24</title>
<g id="a_node24"><a xlink:href="TransmitterCode_2src_2main_8cpp.html#ad332e97e29352b9b7bf0ada90b4dcf06" target="_top" xlink:title=" ">
<polygon fill="white" stroke="black" points="740,-266.5 740,-285.5 834,-285.5 834,-266.5 740,-266.5"/>
<text text-anchor="middle" x="787" y="-273.5" font-family="Helvetica,sans-Serif" font-size="10.00">BuddyChViewEnd</text>
</a>
</g>
</g>
<!-- Node22&#45;&gt;Node24 -->
<g id="edge35" class="edge">
<title>Node22&#45;&gt;Node24</title>
<path fill="none" stroke="midnightblue" d="M927.87,-354.85C907.78,-338.08 874.32,-311.97 842,-295 835.14,-291.4 827.44,-288.22 820.06,-285.56"/>
<polygon fill="midnightblue" stroke="midnightblue" points="925.73,-357.62 935.62,-361.41 930.25,-352.28 925.73,-357.62"/>
</g>
<!-- Node25 -->
<g id="node25" class="node">
<title>Node25</title>
<g id="a_node25"><a xlink:href="TransmitterCode_2src_2main_8cpp.html#aba44d61ea51411cb5c601beb94b6fef4" target="_top" xlink:title=" ">
<polygon fill="white" stroke="black" points="732,-418.5 732,-437.5 842,-437.5 842,-418.5 732,-418.5"/>
<text text-anchor="middle" x="787" y="-425.5" font-family="Helvetica,sans-Serif" font-size="10.00">DoNewChannelName</text>
</a>
</g>
</g>
<!-- Node22&#45;&gt;Node25 -->
<g id="edge37" class="edge">
<title>Node22&#45;&gt;Node25</title>
<path fill="none" stroke="midnightblue" d="M910.9,-384.05C890.71,-391.42 864.96,-400.79 842,-409 833.3,-412.11 823.79,-415.47 815.21,-418.49"/>
<polygon fill="midnightblue" stroke="midnightblue" points="912.14,-387.32 920.33,-380.6 909.74,-380.75 912.14,-387.32"/>
</g>
<!-- Node26 -->
<g id="node26" class="node">
<title>Node26</title>
<g id="a_node26"><a xlink:href="TransmitterCode_2src_2main_8cpp.html#afd3dd964eafc30405e000b03579dd00c" target="_top" xlink:title=" ">
<polygon fill="white" stroke="black" points="741.5,-228.5 741.5,-247.5 832.5,-247.5 832.5,-228.5 741.5,-228.5"/>
<text text-anchor="middle" x="787" y="-235.5" font-family="Helvetica,sans-Serif" font-size="10.00">EndReverseView</text>
</a>
</g>
</g>
<!-- Node22&#45;&gt;Node26 -->
<g id="edge39" class="edge">
<title>Node22&#45;&gt;Node26</title>
<path fill="none" stroke="midnightblue" d="M934.22,-352.76C916.57,-327.83 881.73,-283.24 842,-257 836.28,-253.22 829.72,-250.1 823.19,-247.55"/>
<polygon fill="midnightblue" stroke="midnightblue" points="931.55,-355.04 940.12,-361.27 937.3,-351.06 931.55,-355.04"/>
</g>
<!-- Node27 -->
<g id="node27" class="node">
<title>Node27</title>
<g id="a_node27"><a xlink:href="TransmitterCode_2src_2main_8cpp.html#a40003084a0136ca08cf8ded75ff4aa4d" target="_top" xlink:title=" ">
<polygon fill="white" stroke="black" points="741,-380.5 741,-399.5 833,-399.5 833,-380.5 741,-380.5"/>
<text text-anchor="middle" x="787" y="-387.5" font-family="Helvetica,sans-Serif" font-size="10.00">EndSubTrimView</text>
</a>
</g>
</g>
<!-- Node22&#45;&gt;Node27 -->
<g id="edge40" class="edge">
<title>Node22&#45;&gt;Node27</title>
<path fill="none" stroke="midnightblue" d="M895.48,-377.12C875.42,-379.52 852.59,-382.26 833.14,-384.59"/>
<polygon fill="midnightblue" stroke="midnightblue" points="896.17,-380.56 905.68,-375.89 895.34,-373.61 896.17,-380.56"/>
</g>
<!-- Node28 -->
<g id="node28" class="node">
<title>Node28</title>
<g id="a_node28"><a xlink:href="TransmitterCode_2src_2main_8cpp.html#a488388f6430a0fc7bec57074ba750a2d" target="_top" xlink:title=" ">
<polygon fill="white" stroke="black" points="744,-342.5 744,-361.5 830,-361.5 830,-342.5 744,-342.5"/>
<text text-anchor="middle" x="787" y="-349.5" font-family="Helvetica,sans-Serif" font-size="10.00">ExitMacrosView</text>
</a>
</g>
</g>
<!-- Node22&#45;&gt;Node28 -->
<g id="edge41" class="edge">
<title>Node22&#45;&gt;Node28</title>
<path fill="none" stroke="midnightblue" d="M895.58,-364.9C874.43,-362.36 850.18,-359.45 830.06,-357.04"/>
<polygon fill="midnightblue" stroke="midnightblue" points="895.34,-368.39 905.68,-366.11 896.17,-361.44 895.34,-368.39"/>
</g>
<!-- Node25&#45;&gt;Node3 -->
<g id="edge38" class="edge">
<title>Node25&#45;&gt;Node3</title>
<path fill="none" stroke="midnightblue" d="M739.35,-440.18C719.15,-445.46 695.85,-451.54 676.95,-456.48"/>
<polygon fill="midnightblue" stroke="midnightblue" points="740.49,-443.5 749.28,-437.59 738.72,-436.73 740.49,-443.5"/>
</g>
<!-- Node29&#45;&gt;Node3 -->
<g id="edge45" class="edge">
<title>Node29&#45;&gt;Node3</title>
<path fill="none" stroke="midnightblue" d="M922.18,-138.78C901.37,-151.05 870.36,-168.47 842,-181 794.69,-201.9 766.33,-180.31 732,-219 681.89,-275.46 725.89,-315.68 696,-385 683.85,-413.18 661.35,-441.77 649.06,-456.27"/>
<polygon fill="midnightblue" stroke="midnightblue" points="924.18,-141.66 930.98,-133.53 920.6,-135.65 924.18,-141.66"/>
</g>
<!-- Node29&#45;&gt;Node16 -->
<g id="edge50" class="edge">
<title>Node29&#45;&gt;Node16</title>
<path fill="none" stroke="midnightblue" d="M896.58,-135.97C874.37,-141.29 848.58,-147.48 827.71,-152.48"/>
<polygon fill="midnightblue" stroke="midnightblue" points="897.6,-139.32 906.5,-133.59 895.96,-132.52 897.6,-139.32"/>
</g>
<!-- Node30 -->
<g id="node30" class="node">
<title>Node30</title>
<g id="a_node30"><a xlink:href="TransmitterCode_2src_2main_8cpp.html#a175b6111f05e020becf6f4fc8c3e474d" target="_top" xlink:title=" ">
<polygon fill="white" stroke="black" points="744.5,-76.5 744.5,-95.5 829.5,-95.5 829.5,-76.5 744.5,-76.5"/>
<text text-anchor="middle" x="787" y="-83.5" font-family="Helvetica,sans-Serif" font-size="10.00">DefineTrimsEnd</text>
</a>
</g>
</g>
<!-- Node29&#45;&gt;Node30 -->
<g id="edge46" class="edge">
<title>Node29&#45;&gt;Node30</title>
<path fill="none" stroke="midnightblue" d="M896.58,-112.03C874.37,-106.71 848.58,-100.52 827.71,-95.52"/>
<polygon fill="midnightblue" stroke="midnightblue" points="895.96,-115.48 906.5,-114.41 897.6,-108.68 895.96,-115.48"/>
</g>
<!-- Node31 -->
<g id="node31" class="node">
<title>Node31</title>
<g id="a_node31"><a xlink:href="TransmitterCode_2src_2main_8cpp.html#acb3300c8b0e64f0fb381f7b96158dfc1" target="_top" xlink:title=" ">
<polygon fill="white" stroke="black" points="760.5,-38.5 760.5,-57.5 813.5,-57.5 813.5,-38.5 760.5,-38.5"/>
<text text-anchor="middle" x="787" y="-45.5" font-family="Helvetica,sans-Serif" font-size="10.00">LogEND</text>
</a>
</g>
</g>
<!-- Node29&#45;&gt;Node31 -->
<g id="edge47" class="edge">
<title>Node29&#45;&gt;Node31</title>
<path fill="none" stroke="midnightblue" d="M922.16,-109.27C901.34,-97.02 870.32,-79.61 842,-67 832.92,-62.96 822.69,-59.17 813.6,-56.06"/>
<polygon fill="midnightblue" stroke="midnightblue" points="920.58,-112.4 930.97,-114.5 924.16,-106.38 920.58,-112.4"/>
</g>
<!-- Node32 -->
<g id="node32" class="node">
<title>Node32</title>
<g id="a_node32"><a xlink:href="TransmitterCode_2src_2main_8cpp.html#a835d7dda94eeefe66d661ef4dc4df1a4" target="_top" xlink:title=" ">
<polygon fill="white" stroke="black" points="751,-0.5 751,-19.5 823,-19.5 823,-0.5 751,-0.5"/>
<text text-anchor="middle" x="787" y="-7.5" font-family="Helvetica,sans-Serif" font-size="10.00">Options2End</text>
</a>
</g>
</g>
<!-- Node29&#45;&gt;Node32 -->
<g id="edge48" class="edge">
<title>Node29&#45;&gt;Node32</title>
<path fill="none" stroke="midnightblue" d="M931.58,-106.74C912.64,-85.77 878.06,-50.52 842,-29 835.77,-25.28 828.7,-22.14 821.78,-19.55"/>
<polygon fill="midnightblue" stroke="midnightblue" points="929.01,-109.11 938.27,-114.27 934.25,-104.47 929.01,-109.11"/>
</g>
<!-- Node33 -->
<g id="node33" class="node">
<title>Node33</title>
<g id="a_node33"><a xlink:href="TransmitterCode_2src_2main_8cpp.html#acd53633dca2d1d5f522b58f874a67df7" target="_top" xlink:title=" ">
<polygon fill="white" stroke="black" points="742.5,-114.5 742.5,-133.5 831.5,-133.5 831.5,-114.5 742.5,-114.5"/>
<text text-anchor="middle" x="787" y="-121.5" font-family="Helvetica,sans-Serif" font-size="10.00">OptionView4End</text>
</a>
</g>
</g>
<!-- Node29&#45;&gt;Node33 -->
<g id="edge49" class="edge">
<title>Node29&#45;&gt;Node33</title>
<path fill="none" stroke="midnightblue" d="M867.9,-124C855.38,-124 842.85,-124 831.54,-124"/>
<polygon fill="midnightblue" stroke="midnightblue" points="867.9,-127.5 877.9,-124 867.9,-120.5 867.9,-127.5"/>
</g>
</g>
</svg>
