<?xml version="1.0" encoding="UTF-8" standalone="no"?>
<!DOCTYPE svg PUBLIC "-//W3C//DTD SVG 1.1//EN"
 "http://www.w3.org/Graphics/SVG/1.1/DTD/svg11.dtd">
<!-- Generated by graphviz version 3.0.0 (20220413.0242)
 -->
<!-- Title: SDReadByte Pages: 1 -->
<svg width="676pt" height="142pt"
 viewBox="0.00 0.00 676.00 142.00" xmlns="http://www.w3.org/2000/svg" xmlns:xlink="http://www.w3.org/1999/xlink">
<g id="graph0" class="graph" transform="scale(1 1) rotate(0) translate(4 138)">
<title>SDReadByte</title>
<polygon fill="white" stroke="transparent" points="-4,4 -4,-138 672,-138 672,4 -4,4"/>
<!-- Node1 -->
<g id="node1" class="node">
<title>Node1</title>
<g id="a_node1"><a xlink:title=" ">
<polygon fill="#bfbfbf" stroke="black" points="596,-95.5 596,-114.5 668,-114.5 668,-95.5 596,-95.5"/>
<text text-anchor="middle" x="632" y="-102.5" font-family="Helvetica,sans-Serif" font-size="10.00">SDReadByte</text>
</a>
</g>
</g>
<!-- Node2 -->
<g id="node2" class="node">
<title>Node2</title>
<g id="a_node2"><a xlink:href="TransmitterCode_2src_2main_8cpp.html#a909acb7ed667a5cc9c4ec6191fc33e75" target="_top" xlink:title=" ">
<polygon fill="white" stroke="black" points="341,-114.5 341,-133.5 441,-133.5 441,-114.5 341,-114.5"/>
<text text-anchor="middle" x="391" y="-121.5" font-family="Helvetica,sans-Serif" font-size="10.00">LoadAllParameters</text>
</a>
</g>
</g>
<!-- Node1&#45;&gt;Node2 -->
<g id="edge1" class="edge">
<title>Node1&#45;&gt;Node2</title>
<path fill="none" stroke="midnightblue" d="M585.95,-108.58C544.69,-111.86 483.74,-116.71 441.22,-120.09"/>
<polygon fill="midnightblue" stroke="midnightblue" points="586.3,-112.06 595.99,-107.78 585.75,-105.09 586.3,-112.06"/>
</g>
<!-- Node8 -->
<g id="node8" class="node">
<title>Node8</title>
<g id="a_node8"><a xlink:href="TransmitterCode_2src_2main_8cpp.html#a3d9d955a8c7cfea4cc99e78f3746bd26" target="_top" xlink:title=" ">
<polygon fill="white" stroke="black" points="477,-76.5 477,-95.5 560,-95.5 560,-76.5 477,-76.5"/>
<text text-anchor="middle" x="518.5" y="-83.5" font-family="Helvetica,sans-Serif" font-size="10.00">ReadOneModel</text>
</a>
</g>
</g>
<!-- Node1&#45;&gt;Node8 -->
<g id="edge9" class="edge">
<title>Node1&#45;&gt;Node8</title>
<path fill="none" stroke="midnightblue" d="M585.71,-97.28C577.33,-95.86 568.63,-94.37 560.39,-92.97"/>
<polygon fill="midnightblue" stroke="midnightblue" points="585.27,-100.76 595.72,-98.99 586.45,-93.86 585.27,-100.76"/>
</g>
<!-- Node3 -->
<g id="node3" class="node">
<title>Node3</title>
<g id="a_node3"><a xlink:href="TransmitterCode_2src_2main_8cpp.html#a8e7ccbf842764fd85cc578be263f7202" target="_top" xlink:title=" ">
<polygon fill="white" stroke="black" points="204,-38.5 204,-57.5 305,-57.5 305,-38.5 204,-38.5"/>
<text text-anchor="middle" x="254.5" y="-45.5" font-family="Helvetica,sans-Serif" font-size="10.00">ButtonWasPressed</text>
</a>
</g>
</g>
<!-- Node2&#45;&gt;Node3 -->
<g id="edge2" class="edge">
<title>Node2&#45;&gt;Node3</title>
<path fill="none" stroke="midnightblue" d="M364.06,-109.35C337.03,-94.07 295.47,-70.58 272.4,-57.55"/>
<polygon fill="midnightblue" stroke="midnightblue" points="362.54,-112.5 372.97,-114.37 365.98,-106.41 362.54,-112.5"/>
</g>
<!-- Node7 -->
<g id="node7" class="node">
<title>Node7</title>
<g id="a_node7"><a xlink:href="TransmitterCode_2src_2main_8cpp.html#a4fc01d736fe50cf5b977f755b675f11d" target="_top" xlink:title=" ">
<polygon fill="white" stroke="black" points="234,-114.5 234,-133.5 275,-133.5 275,-114.5 234,-114.5"/>
<text text-anchor="middle" x="254.5" y="-121.5" font-family="Helvetica,sans-Serif" font-size="10.00">setup</text>
</a>
</g>
</g>
<!-- Node2&#45;&gt;Node7 -->
<g id="edge8" class="edge">
<title>Node2&#45;&gt;Node7</title>
<path fill="none" stroke="midnightblue" d="M330.44,-124C310.63,-124 289.92,-124 275.31,-124"/>
<polygon fill="midnightblue" stroke="midnightblue" points="330.68,-127.5 340.68,-124 330.68,-120.5 330.68,-127.5"/>
</g>
<!-- Node4 -->
<g id="node4" class="node">
<title>Node4</title>
<g id="a_node4"><a xlink:href="TransmitterCode_2src_2main_8cpp.html#a984cb52354a84c45e9e41f396a1c5e92" target="_top" xlink:title=" ">
<polygon fill="white" stroke="black" points="71,-76.5 71,-95.5 168,-95.5 168,-76.5 71,-76.5"/>
<text text-anchor="middle" x="119.5" y="-83.5" font-family="Helvetica,sans-Serif" font-size="10.00">CheckModelName</text>
</a>
</g>
</g>
<!-- Node3&#45;&gt;Node4 -->
<g id="edge3" class="edge">
<title>Node3&#45;&gt;Node4</title>
<path fill="none" stroke="midnightblue" d="M210.13,-60.39C191.92,-65.59 171.06,-71.55 154.05,-76.41"/>
<polygon fill="midnightblue" stroke="midnightblue" points="211.28,-63.7 219.94,-57.59 209.36,-56.97 211.28,-63.7"/>
</g>
<!-- Node5 -->
<g id="node5" class="node">
<title>Node5</title>
<g id="a_node5"><a xlink:href="TransmitterCode_2src_2main_8cpp.html#afe461d27b9c48d5921c00d521181f12f" target="_top" xlink:title=" ">
<polygon fill="white" stroke="black" points="0,-57.5 0,-76.5 35,-76.5 35,-57.5 0,-57.5"/>
<text text-anchor="middle" x="17.5" y="-64.5" font-family="Helvetica,sans-Serif" font-size="10.00">loop</text>
</a>
</g>
</g>
<!-- Node3&#45;&gt;Node5 -->
<g id="edge5" class="edge">
<title>Node3&#45;&gt;Node5</title>
<path fill="none" stroke="midnightblue" d="M193.69,-52.84C140.92,-57.1 67.51,-63.04 35.06,-65.66"/>
<polygon fill="midnightblue" stroke="midnightblue" points="194.26,-56.3 203.95,-52.01 193.7,-49.32 194.26,-56.3"/>
</g>
<!-- Node6 -->
<g id="node6" class="node">
<title>Node6</title>
<g id="a_node6"><a xlink:href="TransmitterCode_2src_2main_8cpp.html#ab7c9edf843c732d7fe296564f39bc0dc" target="_top" xlink:title="RECEIVE A MODEL FILE.">
<polygon fill="white" stroke="black" points="72.5,-0.5 72.5,-19.5 166.5,-19.5 166.5,-0.5 72.5,-0.5"/>
<text text-anchor="middle" x="119.5" y="-7.5" font-family="Helvetica,sans-Serif" font-size="10.00">ReceiveModelFile</text>
</a>
</g>
</g>
<!-- Node3&#45;&gt;Node6 -->
<g id="edge6" class="edge">
<title>Node3&#45;&gt;Node6</title>
<path fill="none" stroke="midnightblue" d="M226.97,-34.9C209.75,-28.76 186.85,-21.91 166.7,-16.74"/>
<polygon fill="midnightblue" stroke="midnightblue" points="225.79,-38.19 236.38,-38.41 228.24,-31.64 225.79,-38.19"/>
</g>
<!-- Node4&#45;&gt;Node5 -->
<g id="edge4" class="edge">
<title>Node4&#45;&gt;Node5</title>
<path fill="none" stroke="midnightblue" d="M60.9,-75.06C51.43,-73.26 42.34,-71.53 35.01,-70.14"/>
<polygon fill="midnightblue" stroke="midnightblue" points="60.37,-78.52 70.84,-76.95 61.67,-71.64 60.37,-78.52"/>
</g>
<!-- Node6&#45;&gt;Node3 -->
<g id="edge7" class="edge">
<title>Node6&#45;&gt;Node3</title>
<path fill="none" stroke="midnightblue" d="M146.99,-23.09C163.27,-28.89 184.65,-35.34 203.98,-40.4"/>
<polygon fill="midnightblue" stroke="midnightblue" points="148.17,-19.79 137.57,-19.58 145.72,-26.35 148.17,-19.79"/>
</g>
<!-- Node8&#45;&gt;Node2 -->
<g id="edge12" class="edge">
<title>Node8&#45;&gt;Node2</title>
<path fill="none" stroke="midnightblue" d="M476.1,-98.54C459.03,-103.7 439.56,-109.6 423.66,-114.41"/>
<polygon fill="midnightblue" stroke="midnightblue" points="477.27,-101.84 485.83,-95.59 475.25,-95.14 477.27,-101.84"/>
</g>
<!-- Node8&#45;&gt;Node3 -->
<g id="edge10" class="edge">
<title>Node8&#45;&gt;Node3</title>
<path fill="none" stroke="midnightblue" d="M466.76,-76.33C458.17,-74.8 449.34,-73.3 441,-72 395.12,-64.84 342.61,-58.19 305.2,-53.71"/>
<polygon fill="midnightblue" stroke="midnightblue" points="466.21,-79.79 476.67,-78.12 467.46,-72.9 466.21,-79.79"/>
</g>
<!-- Node8&#45;&gt;Node4 -->
<g id="edge11" class="edge">
<title>Node8&#45;&gt;Node4</title>
<path fill="none" stroke="midnightblue" d="M466.44,-86C389.1,-86 243.34,-86 168.11,-86"/>
<polygon fill="midnightblue" stroke="midnightblue" points="466.88,-89.5 476.88,-86 466.88,-82.5 466.88,-89.5"/>
</g>
<!-- Node8&#45;&gt;Node6 -->
<g id="edge13" class="edge">
<title>Node8&#45;&gt;Node6</title>
<path fill="none" stroke="midnightblue" d="M488.61,-72.19C474.51,-65.9 457.15,-58.8 441,-54 345.98,-25.75 229.64,-15.54 166.54,-11.92"/>
<polygon fill="midnightblue" stroke="midnightblue" points="487.24,-75.41 497.79,-76.38 490.15,-69.04 487.24,-75.41"/>
</g>
</g>
</svg>
