<?xml version="1.0" encoding="UTF-8" standalone="no"?>
<!DOCTYPE svg PUBLIC "-//W3C//DTD SVG 1.1//EN"
 "http://www.w3.org/Graphics/SVG/1.1/DTD/svg11.dtd">
<!-- Generated by graphviz version 3.0.0 (20220413.0242)
 -->
<!-- Title: DisplayCurveAndServoPos Pages: 1 -->
<svg width="599pt" height="142pt"
 viewBox="0.00 0.00 599.00 142.00" xmlns="http://www.w3.org/2000/svg" xmlns:xlink="http://www.w3.org/1999/xlink">
<g id="graph0" class="graph" transform="scale(1 1) rotate(0) translate(4 138)">
<title>DisplayCurveAndServoPos</title>
<polygon fill="white" stroke="transparent" points="-4,4 -4,-138 595,-138 595,4 -4,4"/>
<!-- Node1 -->
<g id="node1" class="node">
<title>Node1</title>
<g id="a_node1"><a xlink:title=" ">
<polygon fill="#bfbfbf" stroke="black" points="457,-19.5 457,-38.5 591,-38.5 591,-19.5 457,-19.5"/>
<text text-anchor="middle" x="524" y="-26.5" font-family="Helvetica,sans-Serif" font-size="10.00">DisplayCurveAndServoPos</text>
</a>
</g>
</g>
<!-- Node2 -->
<g id="node2" class="node">
<title>Node2</title>
<g id="a_node2"><a xlink:href="TransmitterCode_2src_2main_8cpp.html#a8e7ccbf842764fd85cc578be263f7202" target="_top" xlink:title=" ">
<polygon fill="white" stroke="black" points="204,-38.5 204,-57.5 305,-57.5 305,-38.5 204,-38.5"/>
<text text-anchor="middle" x="254.5" y="-45.5" font-family="Helvetica,sans-Serif" font-size="10.00">ButtonWasPressed</text>
</a>
</g>
</g>
<!-- Node1&#45;&gt;Node2 -->
<g id="edge1" class="edge">
<title>Node1&#45;&gt;Node2</title>
<path fill="none" stroke="midnightblue" d="M446.78,-34.41C401.38,-37.64 345.07,-41.64 305.34,-44.46"/>
<polygon fill="midnightblue" stroke="midnightblue" points="447.15,-37.9 456.88,-33.7 446.65,-30.91 447.15,-37.9"/>
</g>
<!-- Node6 -->
<g id="node6" class="node">
<title>Node6</title>
<g id="a_node6"><a xlink:href="TransmitterCode_2src_2main_8cpp.html#adf35f0ced7990f813a783d0ecd33bf64" target="_top" xlink:title=" ">
<polygon fill="white" stroke="black" points="341,-0.5 341,-19.5 421,-19.5 421,-0.5 341,-0.5"/>
<text text-anchor="middle" x="381" y="-7.5" font-family="Helvetica,sans-Serif" font-size="10.00">GetFlightMode</text>
</a>
</g>
</g>
<!-- Node1&#45;&gt;Node6 -->
<g id="edge7" class="edge">
<title>Node1&#45;&gt;Node6</title>
<path fill="none" stroke="midnightblue" d="M446.66,-18.71C437.85,-17.53 429.17,-16.36 421.16,-15.28"/>
<polygon fill="midnightblue" stroke="midnightblue" points="446.25,-22.19 456.63,-20.06 447.19,-15.25 446.25,-22.19"/>
</g>
<!-- Node3 -->
<g id="node3" class="node">
<title>Node3</title>
<g id="a_node3"><a xlink:href="TransmitterCode_2src_2main_8cpp.html#a984cb52354a84c45e9e41f396a1c5e92" target="_top" xlink:title=" ">
<polygon fill="white" stroke="black" points="71,-114.5 71,-133.5 168,-133.5 168,-114.5 71,-114.5"/>
<text text-anchor="middle" x="119.5" y="-121.5" font-family="Helvetica,sans-Serif" font-size="10.00">CheckModelName</text>
</a>
</g>
</g>
<!-- Node2&#45;&gt;Node3 -->
<g id="edge2" class="edge">
<title>Node2&#45;&gt;Node3</title>
<path fill="none" stroke="midnightblue" d="M229.86,-63.06C212.86,-73.73 189.27,-88.18 168,-100 159.12,-104.94 149.1,-110.06 140.56,-114.3"/>
<polygon fill="midnightblue" stroke="midnightblue" points="231.98,-65.86 238.58,-57.57 228.25,-59.94 231.98,-65.86"/>
</g>
<!-- Node4 -->
<g id="node4" class="node">
<title>Node4</title>
<g id="a_node4"><a xlink:href="TransmitterCode_2src_2main_8cpp.html#afe461d27b9c48d5921c00d521181f12f" target="_top" xlink:title=" ">
<polygon fill="white" stroke="black" points="0,-76.5 0,-95.5 35,-95.5 35,-76.5 0,-76.5"/>
<text text-anchor="middle" x="17.5" y="-83.5" font-family="Helvetica,sans-Serif" font-size="10.00">loop</text>
</a>
</g>
</g>
<!-- Node2&#45;&gt;Node4 -->
<g id="edge4" class="edge">
<title>Node2&#45;&gt;Node4</title>
<path fill="none" stroke="midnightblue" d="M203.97,-59.82C192.22,-62.4 179.7,-64.96 168,-67 120.06,-75.35 62.86,-81.6 35.17,-84.39"/>
<polygon fill="midnightblue" stroke="midnightblue" points="205.07,-63.16 214.06,-57.56 203.54,-56.33 205.07,-63.16"/>
</g>
<!-- Node5 -->
<g id="node5" class="node">
<title>Node5</title>
<g id="a_node5"><a xlink:href="TransmitterCode_2src_2main_8cpp.html#ab7c9edf843c732d7fe296564f39bc0dc" target="_top" xlink:title="RECEIVE A MODEL FILE.">
<polygon fill="white" stroke="black" points="72.5,-38.5 72.5,-57.5 166.5,-57.5 166.5,-38.5 72.5,-38.5"/>
<text text-anchor="middle" x="119.5" y="-45.5" font-family="Helvetica,sans-Serif" font-size="10.00">ReceiveModelFile</text>
</a>
</g>
</g>
<!-- Node2&#45;&gt;Node5 -->
<g id="edge5" class="edge">
<title>Node2&#45;&gt;Node5</title>
<path fill="none" stroke="midnightblue" d="M193.77,-41.28C184.63,-41.2 175.33,-41.28 166.54,-41.54"/>
<polygon fill="midnightblue" stroke="midnightblue" points="193.92,-44.78 203.98,-41.45 194.03,-37.78 193.92,-44.78"/>
</g>
<!-- Node3&#45;&gt;Node4 -->
<g id="edge3" class="edge">
<title>Node3&#45;&gt;Node4</title>
<path fill="none" stroke="midnightblue" d="M83.91,-110.86C67.44,-104.6 48.49,-97.4 35.24,-92.36"/>
<polygon fill="midnightblue" stroke="midnightblue" points="82.67,-114.13 93.27,-114.41 85.16,-107.59 82.67,-114.13"/>
</g>
<!-- Node5&#45;&gt;Node2 -->
<g id="edge6" class="edge">
<title>Node5&#45;&gt;Node2</title>
<path fill="none" stroke="midnightblue" d="M176.65,-54.68C185.72,-54.81 195.07,-54.76 203.98,-54.55"/>
<polygon fill="midnightblue" stroke="midnightblue" points="176.62,-51.18 166.54,-54.46 176.47,-58.17 176.62,-51.18"/>
</g>
<!-- Node7 -->
<g id="node7" class="node">
<title>Node7</title>
<g id="a_node7"><a xlink:href="TransmitterCode_2src_2main_8cpp.html#ab0af36f3442ad4f2d0b716c14c7d6085" target="_top" xlink:title=" ">
<polygon fill="white" stroke="black" points="214.5,-0.5 214.5,-19.5 294.5,-19.5 294.5,-0.5 214.5,-0.5"/>
<text text-anchor="middle" x="254.5" y="-7.5" font-family="Helvetica,sans-Serif" font-size="10.00">ReadSwitches</text>
</a>
</g>
</g>
<!-- Node6&#45;&gt;Node7 -->
<g id="edge8" class="edge">
<title>Node6&#45;&gt;Node7</title>
<path fill="none" stroke="midnightblue" d="M330.7,-10C318.79,-10 306.22,-10 294.84,-10"/>
<polygon fill="midnightblue" stroke="midnightblue" points="330.95,-13.5 340.95,-10 330.95,-6.5 330.95,-13.5"/>
</g>
<!-- Node8 -->
<g id="node8" class="node">
<title>Node8</title>
<g id="a_node8"><a xlink:href="RadioFunctions_8cpp.html#a3d7322e78f097d02d476f17a6306997c" target="_top" xlink:title=" ">
<polygon fill="white" stroke="black" points="90,-0.5 90,-19.5 149,-19.5 149,-0.5 90,-0.5"/>
<text text-anchor="middle" x="119.5" y="-7.5" font-family="Helvetica,sans-Serif" font-size="10.00">SendData</text>
</a>
</g>
</g>
<!-- Node7&#45;&gt;Node8 -->
<g id="edge9" class="edge">
<title>Node7&#45;&gt;Node8</title>
<path fill="none" stroke="midnightblue" d="M204.27,-10C185.76,-10 165.33,-10 149.28,-10"/>
<polygon fill="midnightblue" stroke="midnightblue" points="204.31,-13.5 214.31,-10 204.31,-6.5 204.31,-13.5"/>
</g>
<!-- Node8&#45;&gt;Node4 -->
<g id="edge10" class="edge">
<title>Node8&#45;&gt;Node4</title>
<path fill="none" stroke="midnightblue" d="M80.72,-23.27C77.32,-25 74.03,-26.91 71,-29 51.73,-42.29 34.4,-63.84 25.28,-76.29"/>
<polygon fill="midnightblue" stroke="midnightblue" points="82.19,-26.44 89.81,-19.08 79.27,-20.08 82.19,-26.44"/>
</g>
</g>
</svg>
