<?xml version="1.0" encoding="UTF-8" standalone="no"?>
<!DOCTYPE svg PUBLIC "-//W3C//DTD SVG 1.1//EN"
 "http://www.w3.org/Graphics/SVG/1.1/DTD/svg11.dtd">
<!-- Generated by graphviz version 7.0.5 (20221223.1930)
 -->
<!-- Title: LogText Pages: 1 -->
<svg width="1544pt" height="592pt"
 viewBox="0.00 0.00 1544.00 592.00" xmlns="http://www.w3.org/2000/svg" xmlns:xlink="http://www.w3.org/1999/xlink">
<g id="graph0" class="graph" transform="scale(1 1) rotate(0) translate(4 588)">
<title>LogText</title>
<!-- Node1 -->
<g id="node1" class="node">
<title>Node1</title>
<g id="a_node1"><a xlink:title=" ">
<polygon fill="#999999" stroke="#666666" points="1536,-302 1484,-302 1484,-283 1536,-283 1536,-302"/>
<text text-anchor="middle" x="1510" y="-290" font-family="Helvetica,sans-Serif" font-size="10.00">LogText</text>
</a>
</g>
</g>
<!-- Node2 -->
<g id="node2" class="node">
<title>Node2</title>
<g id="a_node2"><a xlink:href="TransmitterCode_2src_2main_8cpp.html#aaa3e86084c43b049d52d7d62c58a00b9" target="_top" xlink:title=" ">
<polygon fill="white" stroke="#666666" points="1274.5,-357 1192.5,-357 1192.5,-338 1274.5,-338 1274.5,-357"/>
<text text-anchor="middle" x="1233.5" y="-345" font-family="Helvetica,sans-Serif" font-size="10.00">LogConnection</text>
</a>
</g>
</g>
<!-- Node1&#45;&gt;Node2 -->
<g id="edge1" class="edge">
<title>Node1&#45;&gt;Node2</title>
<path fill="none" stroke="#63b8ff" d="M1487.45,-308.94C1476.29,-316.56 1462.07,-324.92 1448,-329.5 1389.99,-348.38 1318.69,-350.46 1274.93,-349.51"/>
<polygon fill="#63b8ff" stroke="#63b8ff" points="1489.43,-311.83 1495.53,-303.17 1485.36,-306.14 1489.43,-311.83"/>
</g>
<!-- Node25 -->
<g id="node23" class="node">
<title>Node25</title>
<g id="a_node23"><a xlink:href="TransmitterCode_2src_2main_8cpp.html#a2d5ec5fd5ed62d5b7b071fabe2225405" target="_top" xlink:title=" ">
<polygon fill="white" stroke="#666666" points="1281.5,-489 1185.5,-489 1185.5,-470 1281.5,-470 1281.5,-489"/>
<text text-anchor="middle" x="1233.5" y="-477" font-family="Helvetica,sans-Serif" font-size="10.00">LogDisConnection</text>
</a>
</g>
</g>
<!-- Node1&#45;&gt;Node25 -->
<g id="edge27" class="edge">
<title>Node1&#45;&gt;Node25</title>
<path fill="none" stroke="#63b8ff" d="M1506.51,-313.67C1500.01,-364.77 1480.75,-492.45 1448,-517.5 1387,-564.16 1287.64,-512.33 1249.8,-489.34"/>
<polygon fill="#63b8ff" stroke="#63b8ff" points="1509.95,-314.3 1507.7,-303.95 1503.01,-313.44 1509.95,-314.3"/>
</g>
<!-- Node29 -->
<g id="node27" class="node">
<title>Node29</title>
<g id="a_node27"><a xlink:href="TransmitterCode_2src_2main_8cpp.html#ad37c67d015818c94d8359a507e72bac0" target="_top" xlink:title=" ">
<polygon fill="white" stroke="#666666" points="1430,-508 1344,-508 1344,-489 1430,-489 1430,-508"/>
<text text-anchor="middle" x="1387" y="-496" font-family="Helvetica,sans-Serif" font-size="10.00">LogLongestGap</text>
</a>
</g>
</g>
<!-- Node1&#45;&gt;Node29 -->
<g id="edge35" class="edge">
<title>Node1&#45;&gt;Node29</title>
<path fill="none" stroke="#63b8ff" d="M1508.28,-313.62C1505.79,-352.26 1494.95,-434.59 1448,-480.5 1443.02,-485.37 1436.79,-488.92 1430.23,-491.52"/>
<polygon fill="#63b8ff" stroke="#63b8ff" points="1511.76,-313.98 1508.76,-303.82 1504.77,-313.63 1511.76,-313.98"/>
</g>
<!-- Node30 -->
<g id="node28" class="node">
<title>Node30</title>
<g id="a_node28"><a xlink:href="TransmitterCode_2src_2main_8cpp.html#aac4334531357e4221222c7fc8c5cf817" target="_top" xlink:title=" ">
<polygon fill="white" stroke="#666666" points="1428.5,-19 1345.5,-19 1345.5,0 1428.5,0 1428.5,-19"/>
<text text-anchor="middle" x="1387" y="-7" font-family="Helvetica,sans-Serif" font-size="10.00">LogLowBattery</text>
</a>
</g>
</g>
<!-- Node1&#45;&gt;Node30 -->
<g id="edge37" class="edge">
<title>Node1&#45;&gt;Node30</title>
<path fill="none" stroke="#63b8ff" d="M1506.57,-271.56C1499.8,-216.55 1479.18,-69.71 1448,-33.5 1442.73,-27.38 1435.68,-22.8 1428.26,-19.39"/>
<polygon fill="#63b8ff" stroke="#63b8ff" points="1503.05,-271.63 1507.72,-281.14 1510,-270.8 1503.05,-271.63"/>
</g>
<!-- Node31 -->
<g id="node29" class="node">
<title>Node31</title>
<g id="a_node29"><a xlink:href="TransmitterCode_2src_2main_8cpp.html#af7b3b351c80f0b43c13a4ccb440b2f2e" target="_top" xlink:title=" ">
<polygon fill="white" stroke="#666666" points="1420.5,-321 1353.5,-321 1353.5,-302 1420.5,-302 1420.5,-321"/>
<text text-anchor="middle" x="1387" y="-309" font-family="Helvetica,sans-Serif" font-size="10.00">LogMinGap</text>
</a>
</g>
</g>
<!-- Node1&#45;&gt;Node31 -->
<g id="edge38" class="edge">
<title>Node1&#45;&gt;Node31</title>
<path fill="none" stroke="#63b8ff" d="M1472.73,-298.2C1456.2,-300.79 1436.78,-303.84 1420.7,-306.37"/>
<polygon fill="#63b8ff" stroke="#63b8ff" points="1472.8,-301.73 1482.14,-296.72 1471.72,-294.81 1472.8,-301.73"/>
</g>
<!-- Node32 -->
<g id="node30" class="node">
<title>Node32</title>
<g id="a_node30"><a xlink:href="TransmitterCode_2src_2main_8cpp.html#ac45afae9da9cc313054a4c41e1ce1757" target="_top" xlink:title=" ">
<polygon fill="white" stroke="#666666" points="1262.5,-244 1204.5,-244 1204.5,-225 1262.5,-225 1262.5,-244"/>
<text text-anchor="middle" x="1233.5" y="-232" font-family="Helvetica,sans-Serif" font-size="10.00">LogMotor</text>
</a>
</g>
</g>
<!-- Node1&#45;&gt;Node32 -->
<g id="edge40" class="edge">
<title>Node1&#45;&gt;Node32</title>
<path fill="none" stroke="#63b8ff" d="M1492.68,-274.51C1481.36,-263.37 1465.26,-249.98 1448,-243.5 1385.32,-219.95 1304.89,-225.13 1262.9,-230.24"/>
<polygon fill="#63b8ff" stroke="#63b8ff" points="1490.16,-276.93 1499.62,-281.7 1495.2,-272.07 1490.16,-276.93"/>
</g>
<!-- Node34 -->
<g id="node32" class="node">
<title>Node34</title>
<g id="a_node32"><a xlink:href="TransmitterCode_2src_2main_8cpp.html#a32be1544c90acbd0fb13568c35213510" target="_top" xlink:title=" ">
<polygon fill="white" stroke="#666666" points="1271.5,-281 1195.5,-281 1195.5,-262 1271.5,-262 1271.5,-281"/>
<text text-anchor="middle" x="1233.5" y="-269" font-family="Helvetica,sans-Serif" font-size="10.00">LogNewBank</text>
</a>
</g>
</g>
<!-- Node1&#45;&gt;Node34 -->
<g id="edge43" class="edge">
<title>Node1&#45;&gt;Node34</title>
<path fill="none" stroke="#63b8ff" d="M1488.38,-276.08C1477.14,-268.19 1462.58,-259.58 1448,-255.5 1387.14,-238.49 1312.96,-251.12 1269.99,-261.54"/>
<polygon fill="#63b8ff" stroke="#63b8ff" points="1485.98,-278.66 1496.1,-281.8 1490.14,-273.04 1485.98,-278.66"/>
</g>
<!-- Node35 -->
<g id="node33" class="node">
<title>Node35</title>
<g id="a_node33"><a xlink:href="TransmitterCode_2src_2main_8cpp.html#a6b269c8bc84f79cedd5a789bdf697274" target="_top" xlink:title=" ">
<polygon fill="white" stroke="#666666" points="1448,-471 1326,-471 1326,-452 1448,-452 1448,-471"/>
<text text-anchor="middle" x="1387" y="-459" font-family="Helvetica,sans-Serif" font-size="10.00">LogOverallSuccessRate</text>
</a>
</g>
</g>
<!-- Node1&#45;&gt;Node35 -->
<g id="edge45" class="edge">
<title>Node1&#45;&gt;Node35</title>
<path fill="none" stroke="#63b8ff" d="M1506.33,-313.5C1501.08,-346.03 1486.37,-408.52 1448,-443.5 1444.46,-446.72 1440.37,-449.37 1436.02,-451.54"/>
<polygon fill="#63b8ff" stroke="#63b8ff" points="1509.77,-314.15 1507.74,-303.75 1502.84,-313.15 1509.77,-314.15"/>
</g>
<!-- Node36 -->
<g id="node34" class="node">
<title>Node36</title>
<g id="a_node34"><a xlink:href="TransmitterCode_2src_2main_8cpp.html#a31e9d94f45a152e1cbc436284799ca37" target="_top" xlink:title=" ">
<polygon fill="white" stroke="#666666" points="1424,-133 1350,-133 1350,-114 1424,-114 1424,-133"/>
<text text-anchor="middle" x="1387" y="-121" font-family="Helvetica,sans-Serif" font-size="10.00">LogPowerOff</text>
</a>
</g>
</g>
<!-- Node1&#45;&gt;Node36 -->
<g id="edge47" class="edge">
<title>Node1&#45;&gt;Node36</title>
<path fill="none" stroke="#63b8ff" d="M1506.33,-271.5C1501.08,-238.97 1486.37,-176.48 1448,-141.5 1441.41,-135.49 1432.89,-131.49 1424.34,-128.82"/>
<polygon fill="#63b8ff" stroke="#63b8ff" points="1502.84,-271.85 1507.74,-281.25 1509.77,-270.85 1502.84,-271.85"/>
</g>
<!-- Node38 -->
<g id="node36" class="node">
<title>Node38</title>
<g id="a_node36"><a xlink:href="TransmitterCode_2src_2main_8cpp.html#a7d93a2500f52d72210903c46a85ce820" target="_top" xlink:title=" ">
<polygon fill="white" stroke="#666666" points="1270.5,-94 1196.5,-94 1196.5,-75 1270.5,-75 1270.5,-94"/>
<text text-anchor="middle" x="1233.5" y="-82" font-family="Helvetica,sans-Serif" font-size="10.00">LogPowerOn</text>
</a>
</g>
</g>
<!-- Node1&#45;&gt;Node38 -->
<g id="edge50" class="edge">
<title>Node1&#45;&gt;Node38</title>
<path fill="none" stroke="#63b8ff" d="M1509.12,-271.27C1508.09,-231.45 1499.61,-145.83 1448,-104.5 1397.44,-64.01 1316.98,-69.32 1270.62,-76.88"/>
<polygon fill="#63b8ff" stroke="#63b8ff" points="1505.62,-271.21 1509.23,-281.17 1512.62,-271.14 1505.62,-271.21"/>
</g>
<!-- Node40 -->
<g id="node38" class="node">
<title>Node40</title>
<g id="a_node38"><a xlink:href="TransmitterCode_2src_2main_8cpp.html#a0ed2fd04eebb4fd11b61b6fddd5d2590" target="_top" xlink:title=" ">
<polygon fill="white" stroke="#666666" points="1417.5,-170 1356.5,-170 1356.5,-151 1417.5,-151 1417.5,-170"/>
<text text-anchor="middle" x="1387" y="-158" font-family="Helvetica,sans-Serif" font-size="10.00">LogSafety</text>
</a>
</g>
</g>
<!-- Node1&#45;&gt;Node40 -->
<g id="edge52" class="edge">
<title>Node1&#45;&gt;Node40</title>
<path fill="none" stroke="#63b8ff" d="M1502.21,-272.02C1493.28,-248.03 1475.46,-208.51 1448,-184.5 1439.47,-177.04 1428.33,-171.73 1417.97,-168.04"/>
<polygon fill="#63b8ff" stroke="#63b8ff" points="1498.84,-273.01 1505.46,-281.28 1505.44,-270.68 1498.84,-273.01"/>
</g>
<!-- Node43 -->
<g id="node41" class="node">
<title>Node43</title>
<g id="a_node41"><a xlink:href="TransmitterCode_2src_2main_8cpp.html#a1fadc7cdd854f8b3628b622da5417d8b" target="_top" xlink:title=" ">
<polygon fill="white" stroke="#666666" points="1422,-284 1352,-284 1352,-265 1422,-265 1422,-284"/>
<text text-anchor="middle" x="1387" y="-272" font-family="Helvetica,sans-Serif" font-size="10.00">LogThisGap</text>
</a>
</g>
</g>
<!-- Node1&#45;&gt;Node43 -->
<g id="edge58" class="edge">
<title>Node1&#45;&gt;Node43</title>
<path fill="none" stroke="#63b8ff" d="M1472.52,-287.07C1456.5,-284.69 1437.79,-281.91 1422.06,-279.57"/>
<polygon fill="#63b8ff" stroke="#63b8ff" points="1471.73,-290.49 1482.14,-288.5 1472.76,-283.57 1471.73,-290.49"/>
</g>
<!-- Node45 -->
<g id="node43" class="node">
<title>Node45</title>
<g id="a_node43"><a xlink:href="TransmitterCode_2src_2main_8cpp.html#a83944fc0ecaab86d0bbb0802e99e5084" target="_top" xlink:title=" ">
<polygon fill="white" stroke="#666666" points="1272.5,-57 1194.5,-57 1194.5,-38 1272.5,-38 1272.5,-57"/>
<text text-anchor="middle" x="1233.5" y="-45" font-family="Helvetica,sans-Serif" font-size="10.00">LogThisModel</text>
</a>
</g>
</g>
<!-- Node1&#45;&gt;Node45 -->
<g id="edge61" class="edge">
<title>Node1&#45;&gt;Node45</title>
<path fill="none" stroke="#63b8ff" d="M1506.29,-271.29C1499.36,-220.66 1479.3,-94.94 1448,-68.5 1399.21,-27.28 1319.97,-31.86 1272.98,-39.38"/>
<polygon fill="#63b8ff" stroke="#63b8ff" points="1502.82,-271.74 1507.6,-281.2 1509.76,-270.82 1502.82,-271.74"/>
</g>
<!-- Node48 -->
<g id="node46" class="node">
<title>Node48</title>
<g id="a_node46"><a xlink:href="TransmitterCode_2src_2main_8cpp.html#a900aa27c1353238593c276186d960912" target="_top" xlink:title=" ">
<polygon fill="white" stroke="#666666" points="1419.5,-397 1354.5,-397 1354.5,-378 1419.5,-378 1419.5,-397"/>
<text text-anchor="middle" x="1387" y="-385" font-family="Helvetica,sans-Serif" font-size="10.00">LogThisRX</text>
</a>
</g>
</g>
<!-- Node1&#45;&gt;Node48 -->
<g id="edge66" class="edge">
<title>Node1&#45;&gt;Node48</title>
<path fill="none" stroke="#63b8ff" d="M1496.51,-311.61C1485.39,-327.35 1467.84,-349.31 1448,-363.5 1439.6,-369.5 1429.49,-374.29 1419.99,-377.96"/>
<polygon fill="#63b8ff" stroke="#63b8ff" points="1499.26,-313.79 1502,-303.56 1493.47,-309.85 1499.26,-313.79"/>
</g>
<!-- Node50 -->
<g id="node49" class="node">
<title>Node50</title>
<g id="a_node49"><a xlink:href="TransmitterCode_2src_2main_8cpp.html#a8f37e3c97602121326a883fafbe8f3ff" target="_top" xlink:title=" ">
<polygon fill="white" stroke="#666666" points="1444,-434 1330,-434 1330,-415 1444,-415 1444,-434"/>
<text text-anchor="middle" x="1387" y="-422" font-family="Helvetica,sans-Serif" font-size="10.00">LogTotalGoodPackets</text>
</a>
</g>
</g>
<!-- Node1&#45;&gt;Node50 -->
<g id="edge70" class="edge">
<title>Node1&#45;&gt;Node50</title>
<path fill="none" stroke="#63b8ff" d="M1503.24,-313.43C1495.13,-339.06 1477.87,-382.08 1448,-406.5 1444.04,-409.74 1439.52,-412.39 1434.76,-414.57"/>
<polygon fill="#63b8ff" stroke="#63b8ff" points="1506.6,-314.43 1506.08,-303.85 1499.88,-312.44 1506.6,-314.43"/>
</g>
<!-- Node51 -->
<g id="node50" class="node">
<title>Node51</title>
<g id="a_node50"><a xlink:href="TransmitterCode_2src_2main_8cpp.html#a46663d24b572bf50ed661e9e0c3434b6" target="_top" xlink:title=" ">
<polygon fill="white" stroke="#666666" points="1442,-584 1332,-584 1332,-565 1442,-565 1442,-584"/>
<text text-anchor="middle" x="1387" y="-572" font-family="Helvetica,sans-Serif" font-size="10.00">LogTotalLostPackets</text>
</a>
</g>
</g>
<!-- Node1&#45;&gt;Node51 -->
<g id="edge72" class="edge">
<title>Node1&#45;&gt;Node51</title>
<path fill="none" stroke="#63b8ff" d="M1506.51,-313.71C1499.68,-368.78 1479.01,-514.51 1448,-550.5 1442.73,-556.62 1435.67,-561.2 1428.26,-564.61"/>
<polygon fill="#63b8ff" stroke="#63b8ff" points="1509.98,-314.17 1507.71,-303.82 1503.03,-313.33 1509.98,-314.17"/>
</g>
<!-- Node3 -->
<g id="node3" class="node">
<title>Node3</title>
<g id="a_node3"><a xlink:href="TransmitterCode_2src_2main_8cpp.html#a62e53eb9359c32b666e3386d62c57037" target="_top" xlink:title=" ">
<polygon fill="white" stroke="#666666" points="1128,-357 1056,-357 1056,-338 1128,-338 1128,-357"/>
<text text-anchor="middle" x="1092" y="-345" font-family="Helvetica,sans-Serif" font-size="10.00">GreenLedOn</text>
</a>
</g>
</g>
<!-- Node2&#45;&gt;Node3 -->
<g id="edge2" class="edge">
<title>Node2&#45;&gt;Node3</title>
<path fill="none" stroke="#63b8ff" d="M1180.88,-347.5C1163.28,-347.5 1144.04,-347.5 1128.05,-347.5"/>
<polygon fill="#63b8ff" stroke="#63b8ff" points="1180.64,-351 1190.64,-347.5 1180.64,-344 1180.64,-351"/>
</g>
<!-- Node4 -->
<g id="node4" class="node">
<title>Node4</title>
<g id="a_node4"><a xlink:href="transceiver_8h.html#a1c11bb6771548de7d96723045b922620" target="_top" xlink:title=" ">
<polygon fill="white" stroke="#666666" points="1007,-357 911,-357 911,-338 1007,-338 1007,-357"/>
<text text-anchor="middle" x="959" y="-345" font-family="Helvetica,sans-Serif" font-size="10.00">SuccessfulPacket</text>
</a>
</g>
</g>
<!-- Node3&#45;&gt;Node4 -->
<g id="edge3" class="edge">
<title>Node3&#45;&gt;Node4</title>
<path fill="none" stroke="#63b8ff" d="M1044.36,-347.5C1032.32,-347.5 1019.36,-347.5 1007.29,-347.5"/>
<polygon fill="#63b8ff" stroke="#63b8ff" points="1044.04,-351 1054.04,-347.5 1044.04,-344 1044.04,-351"/>
</g>
<!-- Node5 -->
<g id="node5" class="node">
<title>Node5</title>
<g id="a_node5"><a xlink:href="transceiver_8h.html#a049bfb836e7aa4a3a48a1a4bd225fafc" target="_top" xlink:title=" ">
<polygon fill="white" stroke="#666666" points="848,-371 789,-371 789,-352 848,-352 848,-371"/>
<text text-anchor="middle" x="818.5" y="-359" font-family="Helvetica,sans-Serif" font-size="10.00">SendData</text>
</a>
</g>
</g>
<!-- Node4&#45;&gt;Node5 -->
<g id="edge4" class="edge">
<title>Node4&#45;&gt;Node5</title>
<path fill="none" stroke="#63b8ff" d="M899.34,-353.43C881.73,-355.21 863.19,-357.08 848.41,-358.58"/>
<polygon fill="#63b8ff" stroke="#63b8ff" points="899.62,-356.92 909.22,-352.43 898.92,-349.95 899.62,-356.92"/>
</g>
<!-- Node6 -->
<g id="node6" class="node">
<title>Node6</title>
<g id="a_node6"><a xlink:href="TransmitterCode_2src_2main_8cpp.html#a804fdbdd5eab4c596bbe8a23eecbe4d5" target="_top" xlink:title=" ">
<polygon fill="white" stroke="#666666" points="726,-386 625,-386 625,-367 726,-367 726,-386"/>
<text text-anchor="middle" x="675.5" y="-374" font-family="Helvetica,sans-Serif" font-size="10.00">ButtonWasPressed</text>
</a>
</g>
</g>
<!-- Node5&#45;&gt;Node6 -->
<g id="edge5" class="edge">
<title>Node5&#45;&gt;Node6</title>
<path fill="none" stroke="#63b8ff" d="M777.57,-365.75C761.68,-367.44 743.22,-369.4 726.45,-371.19"/>
<polygon fill="#63b8ff" stroke="#63b8ff" points="777.55,-369.27 787.12,-364.73 776.81,-362.31 777.55,-369.27"/>
</g>
<!-- Node24 -->
<g id="node22" class="node">
<title>Node24</title>
<g id="a_node22"><a xlink:href="TransmitterCode_2src_2main_8cpp.html#ad3cb30894c94eb016e98bdcaa899ac86" target="_top" xlink:title=" ">
<polygon fill="white" stroke="#666666" points="219.5,-163 184.5,-163 184.5,-144 219.5,-144 219.5,-163"/>
<text text-anchor="middle" x="202" y="-151" font-family="Helvetica,sans-Serif" font-size="10.00">loop</text>
</a>
</g>
</g>
<!-- Node5&#45;&gt;Node24 -->
<g id="edge26" class="edge">
<title>Node5&#45;&gt;Node24</title>
<path fill="none" stroke="#63b8ff" d="M779.79,-347.73C690.84,-315.41 460.76,-232.82 266,-171.5 250.48,-166.61 232.64,-161.57 219.92,-158.07"/>
<polygon fill="#63b8ff" stroke="#63b8ff" points="778.4,-350.94 788.99,-351.07 780.79,-344.37 778.4,-350.94"/>
</g>
<!-- Node7 -->
<g id="node7" class="node">
<title>Node7</title>
<g id="a_node7"><a xlink:href="Utilities_8h.html#afb7c85cac4aa89fd998ed81c330374d2" target="_top" xlink:title=" ">
<polygon fill="white" stroke="#666666" points="589,-348 443,-348 443,-329 589,-329 589,-348"/>
<text text-anchor="middle" x="516" y="-336" font-family="Helvetica,sans-Serif" font-size="10.00">CheckForNextionButtonPress</text>
</a>
</g>
</g>
<!-- Node6&#45;&gt;Node7 -->
<g id="edge6" class="edge">
<title>Node6&#45;&gt;Node7</title>
<path fill="none" stroke="#63b8ff" d="M621.94,-363.82C601.25,-358.83 577.83,-353.18 558.38,-348.48"/>
<polygon fill="#63b8ff" stroke="#63b8ff" points="621.11,-367.22 631.65,-366.16 622.75,-360.41 621.11,-367.22"/>
</g>
<!-- Node19 -->
<g id="node17" class="node">
<title>Node19</title>
<g id="a_node17"><a xlink:href="TransmitterCode_2src_2main_8cpp.html#ab7c9edf843c732d7fe296564f39bc0dc" target="_top" xlink:title="RECEIVE A MODEL FILE.">
<polygon fill="white" stroke="#666666" points="249,-533 155,-533 155,-514 249,-514 249,-533"/>
<text text-anchor="middle" x="202" y="-521" font-family="Helvetica,sans-Serif" font-size="10.00">ReceiveModelFile</text>
</a>
</g>
</g>
<!-- Node6&#45;&gt;Node19 -->
<g id="edge25" class="edge">
<title>Node6&#45;&gt;Node19</title>
<path fill="none" stroke="#63b8ff" d="M630.07,-389.64C560.02,-410.5 419.77,-452.92 302,-492.5 285.88,-497.92 282.19,-500.27 266,-505.5 257.45,-508.26 248.18,-511.03 239.44,-513.55"/>
<polygon fill="#63b8ff" stroke="#63b8ff" points="630.66,-393.11 639.24,-386.91 628.66,-386.4 630.66,-393.11"/>
</g>
<!-- Node8 -->
<g id="node8" class="node">
<title>Node8</title>
<g id="a_node8"><a xlink:href="TransmitterCode_2src_2main_8cpp.html#a641d6dab68ec7b2a8a32492aac55bc1c" target="_top" xlink:title=" ">
<polygon fill="white" stroke="#666666" points="407,-310 302,-310 302,-291 407,-291 407,-310"/>
<text text-anchor="middle" x="354.5" y="-298" font-family="Helvetica,sans-Serif" font-size="10.00">GetBackupFilename</text>
</a>
</g>
</g>
<!-- Node7&#45;&gt;Node8 -->
<g id="edge7" class="edge">
<title>Node7&#45;&gt;Node8</title>
<path fill="none" stroke="#63b8ff" d="M462.07,-325.89C441.04,-320.88 417.2,-315.2 397.4,-310.48"/>
<polygon fill="#63b8ff" stroke="#63b8ff" points="461.08,-329.25 471.62,-328.17 462.7,-322.44 461.08,-329.25"/>
</g>
<!-- Node10 -->
<g id="node10" class="node">
<title>Node10</title>
<g id="a_node10"><a xlink:href="TransmitterCode_2src_2main_8cpp.html#a6506bf72e0dd9e9ce480156b47625bff" target="_top" xlink:title=" ">
<polygon fill="white" stroke="#666666" points="397.5,-367 311.5,-367 311.5,-348 397.5,-348 397.5,-367"/>
<text text-anchor="middle" x="354.5" y="-355" font-family="Helvetica,sans-Serif" font-size="10.00">GetConfirmation</text>
</a>
</g>
</g>
<!-- Node7&#45;&gt;Node10 -->
<g id="edge10" class="edge">
<title>Node7&#45;&gt;Node10</title>
<path fill="none" stroke="#63b8ff" d="M431.55,-348.44C419.89,-349.83 408.35,-351.2 397.9,-352.45"/>
<polygon fill="#63b8ff" stroke="#63b8ff" points="431.7,-351.95 441.21,-347.29 430.87,-345 431.7,-351.95"/>
</g>
<!-- Node23 -->
<g id="node21" class="node">
<title>Node23</title>
<g id="a_node21"><a xlink:href="TransmitterCode_2src_2main_8cpp.html#a558ea014e230b7caa54ce5a37ad29b22" target="_top" xlink:title=" ">
<polygon fill="white" stroke="#666666" points="405,-163 304,-163 304,-144 405,-144 405,-163"/>
<text text-anchor="middle" x="354.5" y="-151" font-family="Helvetica,sans-Serif" font-size="10.00">ManageTransmitter</text>
</a>
</g>
</g>
<!-- Node7&#45;&gt;Node23 -->
<g id="edge23" class="edge">
<title>Node7&#45;&gt;Node23</title>
<path fill="none" stroke="#63b8ff" d="M498.91,-319.83C465.52,-281.11 389.7,-193.17 364.12,-163.5"/>
<polygon fill="#63b8ff" stroke="#63b8ff" points="496.26,-322.12 505.44,-327.41 501.56,-317.55 496.26,-322.12"/>
</g>
<!-- Node8&#45;&gt;Node6 -->
<g id="edge8" class="edge">
<title>Node8&#45;&gt;Node6</title>
<path fill="none" stroke="#63b8ff" d="M418.59,-297.19C466.61,-296.65 533.64,-300.25 589,-319.5 618.83,-329.87 648.28,-353.15 663.62,-366.53"/>
<polygon fill="#63b8ff" stroke="#63b8ff" points="418.57,-293.69 408.63,-297.37 418.69,-300.68 418.57,-293.69"/>
</g>
<!-- Node9 -->
<g id="node9" class="node">
<title>Node9</title>
<g id="a_node9"><a xlink:href="TransmitterCode_2src_2main_8cpp.html#a9d94366336f1e5fd43edb9c24bec5821" target="_top" xlink:title=" ">
<polygon fill="white" stroke="#666666" points="236,-200 168,-200 168,-181 236,-181 236,-200"/>
<text text-anchor="middle" x="202" y="-188" font-family="Helvetica,sans-Serif" font-size="10.00">RenameFile</text>
</a>
</g>
</g>
<!-- Node8&#45;&gt;Node9 -->
<g id="edge9" class="edge">
<title>Node8&#45;&gt;Node9</title>
<path fill="none" stroke="#63b8ff" d="M326.94,-284.21C318.44,-278.29 309.33,-271.16 302,-263.5 281.8,-242.4 289.52,-225.82 266,-208.5 257.39,-202.16 246.61,-198.05 236.41,-195.38"/>
<polygon fill="#63b8ff" stroke="#63b8ff" points="324.98,-287.11 335.25,-289.72 328.85,-281.28 324.98,-287.11"/>
</g>
<!-- Node10&#45;&gt;Node6 -->
<g id="edge11" class="edge">
<title>Node10&#45;&gt;Node6</title>
<path fill="none" stroke="#63b8ff" d="M409.01,-360.69C469.16,-364.27 566.05,-370.04 624.66,-373.53"/>
<polygon fill="#63b8ff" stroke="#63b8ff" points="409.56,-357.21 399.37,-360.11 409.15,-364.2 409.56,-357.21"/>
</g>
<!-- Node10&#45;&gt;Node9 -->
<g id="edge19" class="edge">
<title>Node10&#45;&gt;Node9</title>
<path fill="none" stroke="#63b8ff" d="M325.98,-341.37C317.31,-335.16 308.34,-327.39 302,-318.5 272.13,-276.62 303.06,-244.18 266,-208.5 257.97,-200.77 246.85,-196.32 236.19,-193.77"/>
<polygon fill="#63b8ff" stroke="#63b8ff" points="323.98,-344.24 334.24,-346.87 327.86,-338.42 323.98,-344.24"/>
</g>
<!-- Node11 -->
<g id="node11" class="node">
<title>Node11</title>
<g id="a_node11"><a xlink:href="TransmitterCode_2src_2main_8cpp.html#ac45477c637c975e13189e2988c8813b3" target="_top" xlink:title=" ">
<polygon fill="white" stroke="#666666" points="242,-459 162,-459 162,-440 242,-440 242,-459"/>
<text text-anchor="middle" x="202" y="-447" font-family="Helvetica,sans-Serif" font-size="10.00">DeleteModelID</text>
</a>
</g>
</g>
<!-- Node10&#45;&gt;Node11 -->
<g id="edge12" class="edge">
<title>Node10&#45;&gt;Node11</title>
<path fill="none" stroke="#63b8ff" d="M336.9,-375.37C320.41,-392.13 293.65,-416.75 266,-431.5 258.67,-435.41 250.4,-438.55 242.32,-441.05"/>
<polygon fill="#63b8ff" stroke="#63b8ff" points="339.08,-378.15 343.49,-368.51 334.03,-373.3 339.08,-378.15"/>
</g>
<!-- Node12 -->
<g id="node12" class="node">
<title>Node12</title>
<g id="a_node12"><a xlink:href="TransmitterCode_2src_2main_8cpp.html#a53d438145d004c3b053f245f494f4284" target="_top" xlink:title=" ">
<polygon fill="white" stroke="#666666" points="228,-422 176,-422 176,-403 228,-403 228,-422"/>
<text text-anchor="middle" x="202" y="-410" font-family="Helvetica,sans-Serif" font-size="10.00">DelLOG</text>
</a>
</g>
</g>
<!-- Node10&#45;&gt;Node12 -->
<g id="edge13" class="edge">
<title>Node10&#45;&gt;Node12</title>
<path fill="none" stroke="#63b8ff" d="M322.03,-371.9C305.54,-379.17 284.88,-387.84 266,-394.5 253.77,-398.81 239.94,-402.86 228.36,-406.01"/>
<polygon fill="#63b8ff" stroke="#63b8ff" points="323.12,-375.25 330.83,-367.98 320.27,-368.86 323.12,-375.25"/>
</g>
<!-- Node13 -->
<g id="node13" class="node">
<title>Node13</title>
<g id="a_node13"><a xlink:href="TransmitterCode_2src_2main_8cpp.html#a16c65917a148c7f6c17babf11e977b69" target="_top" xlink:title=" ">
<polygon fill="white" stroke="#666666" points="243,-385 161,-385 161,-366 243,-366 243,-385"/>
<text text-anchor="middle" x="202" y="-373" font-family="Helvetica,sans-Serif" font-size="10.00">EndBuddyView</text>
</a>
</g>
</g>
<!-- Node10&#45;&gt;Node13 -->
<g id="edge14" class="edge">
<title>Node10&#45;&gt;Node13</title>
<path fill="none" stroke="#63b8ff" d="M299.9,-363.91C281.31,-366.13 260.8,-368.59 243.45,-370.66"/>
<polygon fill="#63b8ff" stroke="#63b8ff" points="300.16,-367.4 309.67,-362.74 299.33,-360.45 300.16,-367.4"/>
</g>
<!-- Node14 -->
<g id="node14" class="node">
<title>Node14</title>
<g id="a_node14"><a xlink:href="ModelMatch_8h.html#a299450b38ee67b7181809914167aff89" target="_top" xlink:title=" ">
<polygon fill="white" stroke="#666666" points="245,-348 159,-348 159,-329 245,-329 245,-348"/>
<text text-anchor="middle" x="202" y="-336" font-family="Helvetica,sans-Serif" font-size="10.00">ModelNotFound</text>
</a>
</g>
</g>
<!-- Node10&#45;&gt;Node14 -->
<g id="edge15" class="edge">
<title>Node10&#45;&gt;Node14</title>
<path fill="none" stroke="#63b8ff" d="M299.98,-350.74C282.01,-348.47 262.24,-345.98 245.27,-343.84"/>
<polygon fill="#63b8ff" stroke="#63b8ff" points="299.32,-354.19 309.68,-351.97 300.19,-347.24 299.32,-354.19"/>
</g>
<!-- Node18 -->
<g id="node16" class="node">
<title>Node18</title>
<g id="a_node16"><a xlink:href="TransmitterCode_2src_2main_8cpp.html#ae9f91b9da28f2e1e2fb126961f03c31c" target="_top" xlink:title=" ">
<polygon fill="white" stroke="#666666" points="242.5,-311 161.5,-311 161.5,-292 242.5,-292 242.5,-311"/>
<text text-anchor="middle" x="202" y="-299" font-family="Helvetica,sans-Serif" font-size="10.00">ModelViewEnd</text>
</a>
</g>
</g>
<!-- Node10&#45;&gt;Node18 -->
<g id="edge17" class="edge">
<title>Node10&#45;&gt;Node18</title>
<path fill="none" stroke="#63b8ff" d="M322.74,-342.96C306.14,-335.42 285.18,-326.37 266,-319.5 257.97,-316.62 249.24,-313.89 240.9,-311.46"/>
<polygon fill="#63b8ff" stroke="#63b8ff" points="321.02,-346.02 331.57,-347.03 323.95,-339.67 321.02,-346.02"/>
</g>
<!-- Node10&#45;&gt;Node19 -->
<g id="edge18" class="edge">
<title>Node10&#45;&gt;Node19</title>
<path fill="none" stroke="#63b8ff" d="M337.98,-376.38C327.14,-390.08 312.74,-409.31 302,-427.5 282.59,-460.38 295,-480.66 266,-505.5 261.16,-509.64 255.43,-512.84 249.42,-515.3"/>
<polygon fill="#63b8ff" stroke="#63b8ff" points="340.65,-378.65 344.19,-368.67 335.2,-374.26 340.65,-378.65"/>
</g>
<!-- Node20 -->
<g id="node18" class="node">
<title>Node20</title>
<g id="a_node18"><a xlink:href="TransmitterCode_2src_2main_8cpp.html#a5c7f22bae35d5d6df9d54fe79dbb8401" target="_top" xlink:title=" ">
<polygon fill="white" stroke="#666666" points="266,-274 138,-274 138,-255 266,-255 266,-274"/>
<text text-anchor="middle" x="202" y="-262" font-family="Helvetica,sans-Serif" font-size="10.00">ResetTransmitterSettings</text>
</a>
</g>
</g>
<!-- Node10&#45;&gt;Node20 -->
<g id="edge20" class="edge">
<title>Node10&#45;&gt;Node20</title>
<path fill="none" stroke="#63b8ff" d="M330.34,-341.02C321.28,-334.3 310.94,-326.29 302,-318.5 284.94,-303.63 285.5,-293.97 266,-282.5 260.61,-279.33 254.62,-276.69 248.55,-274.5"/>
<polygon fill="#63b8ff" stroke="#63b8ff" points="328.18,-343.77 338.32,-346.84 332.31,-338.12 328.18,-343.77"/>
</g>
<!-- Node21 -->
<g id="node19" class="node">
<title>Node21</title>
<g id="a_node19"><a xlink:href="TransmitterCode_2src_2main_8cpp.html#a3838aa0b33bb22d3b9934da05d2716d8" target="_top" xlink:title=" ">
<polygon fill="white" stroke="#666666" points="240,-237 164,-237 164,-218 240,-218 240,-237"/>
<text text-anchor="middle" x="202" y="-225" font-family="Helvetica,sans-Serif" font-size="10.00">StoreModelID</text>
</a>
</g>
</g>
<!-- Node10&#45;&gt;Node21 -->
<g id="edge21" class="edge">
<title>Node10&#45;&gt;Node21</title>
<path fill="none" stroke="#63b8ff" d="M327.08,-341.11C318.34,-334.8 309.06,-327.04 302,-318.5 278.96,-290.61 293.77,-268.68 266,-245.5 258.75,-239.45 249.58,-235.43 240.5,-232.76"/>
<polygon fill="#63b8ff" stroke="#63b8ff" points="325.08,-343.98 335.31,-346.72 329.02,-338.2 325.08,-343.98"/>
</g>
<!-- Node22 -->
<g id="node20" class="node">
<title>Node22</title>
<g id="a_node20"><a xlink:href="TransmitterCode_2src_2main_8cpp.html#a3c55ef7c23759a89a86f6519569c4f7a" target="_top" xlink:title=" ">
<polygon fill="white" stroke="#666666" points="251.5,-496 152.5,-496 152.5,-477 251.5,-477 251.5,-496"/>
<text text-anchor="middle" x="202" y="-484" font-family="Helvetica,sans-Serif" font-size="10.00">TXModuleViewEnd</text>
</a>
</g>
</g>
<!-- Node10&#45;&gt;Node22 -->
<g id="edge22" class="edge">
<title>Node10&#45;&gt;Node22</title>
<path fill="none" stroke="#63b8ff" d="M339.57,-376.44C317.36,-406.44 275.48,-462.15 266,-468.5 261.18,-471.73 255.78,-474.39 250.23,-476.57"/>
<polygon fill="#63b8ff" stroke="#63b8ff" points="342.25,-378.71 345.37,-368.58 336.62,-374.55 342.25,-378.71"/>
</g>
<!-- Node15 -->
<g id="node15" class="node">
<title>Node15</title>
<g id="a_node15"><a xlink:href="ModelMatch_8h.html#af8fe429ceb65bf9d257a2a0f1c63eccb" target="_top" xlink:title=" ">
<polygon fill="#fff0f0" stroke="red" points="102,-348 0,-348 0,-329 102,-329 102,-348"/>
<text text-anchor="middle" x="51" y="-336" font-family="Helvetica,sans-Serif" font-size="10.00">CompareModelsIDs</text>
</a>
</g>
</g>
<!-- Node14&#45;&gt;Node15 -->
<g id="edge16" class="edge">
<title>Node14&#45;&gt;Node15</title>
<path fill="none" stroke="#63b8ff" d="M147.25,-338.5C132.6,-338.5 116.78,-338.5 102.33,-338.5"/>
<polygon fill="#63b8ff" stroke="#63b8ff" points="147.19,-342 157.19,-338.5 147.19,-335 147.19,-342"/>
</g>
<!-- Node23&#45;&gt;Node24 -->
<g id="edge24" class="edge">
<title>Node23&#45;&gt;Node24</title>
<path fill="none" stroke="#63b8ff" d="M292.37,-153.5C266.17,-153.5 237.6,-153.5 219.99,-153.5"/>
<polygon fill="#63b8ff" stroke="#63b8ff" points="292.29,-157 302.29,-153.5 292.29,-150 292.29,-157"/>
</g>
<!-- Node26 -->
<g id="node24" class="node">
<title>Node26</title>
<g id="a_node24"><a xlink:href="TransmitterCode_2src_2main_8cpp.html#a7d34cec6e8edc20c8b50424e15dcc7c7" target="_top" xlink:title=" ">
<polygon fill="white" stroke="#666666" points="1123.5,-470 1060.5,-470 1060.5,-451 1123.5,-451 1123.5,-470"/>
<text text-anchor="middle" x="1092" y="-458" font-family="Helvetica,sans-Serif" font-size="10.00">RedLedOn</text>
</a>
</g>
</g>
<!-- Node25&#45;&gt;Node26 -->
<g id="edge28" class="edge">
<title>Node25&#45;&gt;Node26</title>
<path fill="none" stroke="#63b8ff" d="M1174.14,-471.55C1156.91,-469.2 1138.73,-466.73 1123.96,-464.72"/>
<polygon fill="#63b8ff" stroke="#63b8ff" points="1173.39,-474.98 1183.77,-472.86 1174.34,-468.05 1173.39,-474.98"/>
</g>
<!-- Node26&#45;&gt;Node6 -->
<g id="edge29" class="edge">
<title>Node26&#45;&gt;Node6</title>
<path fill="none" stroke="#63b8ff" d="M1049.01,-451.99C971.84,-436.35 807.85,-403.12 725.64,-386.46"/>
<polygon fill="#63b8ff" stroke="#63b8ff" points="1048.2,-455.4 1058.7,-453.95 1049.59,-448.54 1048.2,-455.4"/>
</g>
<!-- Node26&#45;&gt;Node19 -->
<g id="edge32" class="edge">
<title>Node26&#45;&gt;Node19</title>
<path fill="none" stroke="#63b8ff" d="M1049.38,-472.02C996.41,-485.65 901.9,-506.5 819.5,-506.5 819.5,-506.5 819.5,-506.5 515,-506.5 420.61,-506.5 310.4,-514.35 249.47,-519.38"/>
<polygon fill="#63b8ff" stroke="#63b8ff" points="1050.09,-475.45 1058.88,-469.54 1048.32,-468.68 1050.09,-475.45"/>
</g>
<!-- Node27 -->
<g id="node25" class="node">
<title>Node27</title>
<g id="a_node25"><a xlink:href="transceiver_8h.html#a5fbd3c8613a4163425c94965704ce5f8" target="_top" xlink:title=" ">
<polygon fill="white" stroke="#666666" points="996,-394 922,-394 922,-375 996,-375 996,-394"/>
<text text-anchor="middle" x="959" y="-382" font-family="Helvetica,sans-Serif" font-size="10.00">FailedPacket</text>
</a>
</g>
</g>
<!-- Node26&#45;&gt;Node27 -->
<g id="edge30" class="edge">
<title>Node26&#45;&gt;Node27</title>
<path fill="none" stroke="#63b8ff" d="M1066.26,-444.44C1049.7,-433.87 1027.29,-419.94 1007,-408.5 998.38,-403.64 988.67,-398.61 980.32,-394.42"/>
<polygon fill="#63b8ff" stroke="#63b8ff" points="1064.17,-447.26 1074.47,-449.71 1067.95,-441.37 1064.17,-447.26"/>
</g>
<!-- Node28 -->
<g id="node26" class="node">
<title>Node28</title>
<g id="a_node26"><a xlink:href="TransmitterCode_2src_2main_8cpp.html#a58c67a975068930341f0663e0a08c9d3" target="_top" xlink:title="SEND A MODEL FILE.">
<polygon fill="white" stroke="#666666" points="859,-470 778,-470 778,-451 859,-451 859,-470"/>
<text text-anchor="middle" x="818.5" y="-458" font-family="Helvetica,sans-Serif" font-size="10.00">SendModelFile</text>
</a>
</g>
</g>
<!-- Node26&#45;&gt;Node28 -->
<g id="edge33" class="edge">
<title>Node26&#45;&gt;Node28</title>
<path fill="none" stroke="#63b8ff" d="M1048.68,-460.5C996.84,-460.5 909.7,-460.5 859.12,-460.5"/>
<polygon fill="#63b8ff" stroke="#63b8ff" points="1048.61,-464 1058.61,-460.5 1048.61,-457 1048.61,-464"/>
</g>
<!-- Node27&#45;&gt;Node5 -->
<g id="edge31" class="edge">
<title>Node27&#45;&gt;Node5</title>
<path fill="none" stroke="#63b8ff" d="M910.46,-376.61C889.76,-373.17 866.19,-369.25 848.22,-366.27"/>
<polygon fill="#63b8ff" stroke="#63b8ff" points="909.68,-380.02 920.12,-378.21 910.83,-373.12 909.68,-380.02"/>
</g>
<!-- Node28&#45;&gt;Node6 -->
<g id="edge34" class="edge">
<title>Node28&#45;&gt;Node6</title>
<path fill="none" stroke="#63b8ff" d="M781.43,-446.18C774.85,-443.21 768.13,-439.93 762,-436.5 734.46,-421.1 704.86,-398.91 688.72,-386.28"/>
<polygon fill="#63b8ff" stroke="#63b8ff" points="779.6,-449.2 790.17,-449.97 782.39,-442.78 779.6,-449.2"/>
</g>
<!-- Node29&#45;&gt;Node25 -->
<g id="edge36" class="edge">
<title>Node29&#45;&gt;Node25</title>
<path fill="none" stroke="#63b8ff" d="M1332.63,-491.81C1316.06,-489.73 1297.93,-487.45 1281.81,-485.43"/>
<polygon fill="#63b8ff" stroke="#63b8ff" points="1331.94,-495.25 1342.3,-493.02 1332.81,-488.3 1331.94,-495.25"/>
</g>
<!-- Node31&#45;&gt;Node2 -->
<g id="edge39" class="edge">
<title>Node31&#45;&gt;Node2</title>
<path fill="none" stroke="#63b8ff" d="M1342.13,-321.92C1320.91,-326.97 1295.6,-332.98 1274.86,-337.91"/>
<polygon fill="#63b8ff" stroke="#63b8ff" points="1342.73,-325.38 1351.65,-319.66 1341.12,-318.57 1342.73,-325.38"/>
</g>
<!-- Node33 -->
<g id="node31" class="node">
<title>Node33</title>
<g id="a_node31"><a xlink:href="TransmitterCode_2src_2main_8cpp.html#aa98d7fb495cbdc40cb17343ffafbfe15" target="_top" xlink:title=" ">
<polygon fill="white" stroke="#666666" points="1119.5,-207 1064.5,-207 1064.5,-188 1119.5,-188 1119.5,-207"/>
<text text-anchor="middle" x="1092" y="-195" font-family="Helvetica,sans-Serif" font-size="10.00">GetBank</text>
</a>
</g>
</g>
<!-- Node32&#45;&gt;Node33 -->
<g id="edge41" class="edge">
<title>Node32&#45;&gt;Node33</title>
<path fill="none" stroke="#63b8ff" d="M1193.27,-224.1C1169.81,-217.87 1140.6,-210.12 1119.77,-204.6"/>
<polygon fill="#63b8ff" stroke="#63b8ff" points="1192.24,-227.44 1202.81,-226.62 1194.04,-220.68 1192.24,-227.44"/>
</g>
<!-- Node33&#45;&gt;Node23 -->
<g id="edge42" class="edge">
<title>Node33&#45;&gt;Node23</title>
<path fill="none" stroke="#63b8ff" d="M1052.58,-196.58C999.98,-195.4 902.59,-193.5 819.5,-193.5 819.5,-193.5 819.5,-193.5 674.5,-193.5 578.22,-193.5 466.85,-175.34 404.44,-163.49"/>
<polygon fill="#63b8ff" stroke="#63b8ff" points="1052.44,-200.08 1062.51,-196.8 1052.6,-193.08 1052.44,-200.08"/>
</g>
<!-- Node34&#45;&gt;Node33 -->
<g id="edge44" class="edge">
<title>Node34&#45;&gt;Node33</title>
<path fill="none" stroke="#63b8ff" d="M1188.57,-257.61C1184.6,-256.02 1180.69,-254.31 1177,-252.5 1150.22,-239.41 1121.74,-219.27 1105.78,-207.33"/>
<polygon fill="#63b8ff" stroke="#63b8ff" points="1187.07,-260.79 1197.67,-261.04 1189.54,-254.24 1187.07,-260.79"/>
</g>
<!-- Node35&#45;&gt;Node25 -->
<g id="edge46" class="edge">
<title>Node35&#45;&gt;Node25</title>
<path fill="none" stroke="#63b8ff" d="M1314.56,-469.99C1303.35,-471.32 1292.01,-472.67 1281.54,-473.91"/>
<polygon fill="#63b8ff" stroke="#63b8ff" points="1314.67,-473.5 1324.18,-468.84 1313.84,-466.55 1314.67,-473.5"/>
</g>
<!-- Node37 -->
<g id="node35" class="node">
<title>Node37</title>
<g id="a_node35"><a xlink:href="TransmitterCode_2src_2main_8cpp.html#a6ae37c6938b8c10b83d1bc74e8643bd9" target="_top" xlink:title=" ">
<polygon fill="white" stroke="#666666" points="875,-146 762,-146 762,-127 875,-127 875,-146"/>
<text text-anchor="middle" x="818.5" y="-134" font-family="Helvetica,sans-Serif" font-size="10.00">CheckPowerOffButton</text>
</a>
</g>
</g>
<!-- Node36&#45;&gt;Node37 -->
<g id="edge48" class="edge">
<title>Node36&#45;&gt;Node37</title>
<path fill="none" stroke="#63b8ff" d="M1338.3,-124.59C1234.07,-126.99 986.43,-132.67 875.23,-135.22"/>
<polygon fill="#63b8ff" stroke="#63b8ff" points="1338.27,-128.1 1348.19,-124.37 1338.11,-121.1 1338.27,-128.1"/>
</g>
<!-- Node37&#45;&gt;Node23 -->
<g id="edge49" class="edge">
<title>Node37&#45;&gt;Node23</title>
<path fill="none" stroke="#63b8ff" d="M750.45,-138.97C656.78,-142.41 488.89,-148.59 405.43,-151.66"/>
<polygon fill="#63b8ff" stroke="#63b8ff" points="750.39,-142.47 760.26,-138.61 750.14,-135.48 750.39,-142.47"/>
</g>
<!-- Node39 -->
<g id="node37" class="node">
<title>Node39</title>
<g id="a_node37"><a xlink:href="TransmitterCode_2src_2main_8cpp.html#a17699f358cf9f7c3155a9c5daf8ff13c" target="_top" xlink:title=" ">
<polygon fill="white" stroke="#666666" points="1112.5,-94 1071.5,-94 1071.5,-75 1112.5,-75 1112.5,-94"/>
<text text-anchor="middle" x="1092" y="-82" font-family="Helvetica,sans-Serif" font-size="10.00">setup</text>
</a>
</g>
</g>
<!-- Node38&#45;&gt;Node39 -->
<g id="edge51" class="edge">
<title>Node38&#45;&gt;Node39</title>
<path fill="none" stroke="#63b8ff" d="M1184.86,-84.5C1160.21,-84.5 1131.44,-84.5 1112.75,-84.5"/>
<polygon fill="#63b8ff" stroke="#63b8ff" points="1184.7,-88 1194.7,-84.5 1184.7,-81 1184.7,-88"/>
</g>
<!-- Node41 -->
<g id="node39" class="node">
<title>Node41</title>
<g id="a_node39"><a xlink:href="TransmitterCode_2src_2main_8cpp.html#ac015e93acba51fe284176b84c05e3450" target="_top" xlink:title=" ">
<polygon fill="white" stroke="#666666" points="1278.5,-207 1188.5,-207 1188.5,-188 1278.5,-188 1278.5,-207"/>
<text text-anchor="middle" x="1233.5" y="-195" font-family="Helvetica,sans-Serif" font-size="10.00">ShowSafetyIsOff</text>
</a>
</g>
</g>
<!-- Node40&#45;&gt;Node41 -->
<g id="edge53" class="edge">
<title>Node40&#45;&gt;Node41</title>
<path fill="none" stroke="#63b8ff" d="M1344.93,-170.53C1323.3,-175.81 1296.85,-182.27 1275.27,-187.54"/>
<polygon fill="#63b8ff" stroke="#63b8ff" points="1345.71,-173.94 1354.6,-168.17 1344.05,-167.14 1345.71,-173.94"/>
</g>
<!-- Node42 -->
<g id="node40" class="node">
<title>Node42</title>
<g id="a_node40"><a xlink:href="TransmitterCode_2src_2main_8cpp.html#a624dab5b77d191ddae33fbe2ac2da4ae" target="_top" xlink:title=" ">
<polygon fill="white" stroke="#666666" points="1278.5,-170 1188.5,-170 1188.5,-151 1278.5,-151 1278.5,-170"/>
<text text-anchor="middle" x="1233.5" y="-158" font-family="Helvetica,sans-Serif" font-size="10.00">ShowSafetyIsOn</text>
</a>
</g>
</g>
<!-- Node40&#45;&gt;Node42 -->
<g id="edge55" class="edge">
<title>Node40&#45;&gt;Node42</title>
<path fill="none" stroke="#63b8ff" d="M1344.59,-160.5C1324.17,-160.5 1299.52,-160.5 1278.73,-160.5"/>
<polygon fill="#63b8ff" stroke="#63b8ff" points="1344.55,-164 1354.55,-160.5 1344.55,-157 1344.55,-164"/>
</g>
<!-- Node41&#45;&gt;Node33 -->
<g id="edge54" class="edge">
<title>Node41&#45;&gt;Node33</title>
<path fill="none" stroke="#63b8ff" d="M1177,-197.5C1157.3,-197.5 1136.03,-197.5 1119.81,-197.5"/>
<polygon fill="#63b8ff" stroke="#63b8ff" points="1176.85,-201 1186.85,-197.5 1176.85,-194 1176.85,-201"/>
</g>
<!-- Node42&#45;&gt;Node33 -->
<g id="edge56" class="edge">
<title>Node42&#45;&gt;Node33</title>
<path fill="none" stroke="#63b8ff" d="M1184.18,-173.32C1162.63,-179.03 1138.07,-185.55 1119.87,-190.37"/>
<polygon fill="#63b8ff" stroke="#63b8ff" points="1184.89,-176.75 1193.65,-170.8 1183.09,-169.98 1184.89,-176.75"/>
</g>
<!-- Node42&#45;&gt;Node39 -->
<g id="edge57" class="edge">
<title>Node42&#45;&gt;Node39</title>
<path fill="none" stroke="#63b8ff" d="M1204.37,-145.17C1176.59,-130.04 1134.95,-107.35 1111.24,-94.44"/>
<polygon fill="#63b8ff" stroke="#63b8ff" points="1202.48,-148.13 1212.93,-149.84 1205.83,-141.98 1202.48,-148.13"/>
</g>
<!-- Node44 -->
<g id="node42" class="node">
<title>Node44</title>
<g id="a_node42"><a xlink:href="TransmitterCode_2src_2main_8cpp.html#a953f1d5046e183549ed95b08f6d675e3" target="_top" xlink:title=" ">
<polygon fill="white" stroke="#666666" points="1141,-320 1043,-320 1043,-301 1141,-301 1141,-320"/>
<text text-anchor="middle" x="1092" y="-308" font-family="Helvetica,sans-Serif" font-size="10.00">CheckGapsLength</text>
</a>
</g>
</g>
<!-- Node43&#45;&gt;Node44 -->
<g id="edge59" class="edge">
<title>Node43&#45;&gt;Node44</title>
<path fill="none" stroke="#63b8ff" d="M1340.64,-282.05C1324.66,-284.59 1306.55,-287.33 1290,-289.5 1239.36,-296.15 1181.18,-302.15 1141.25,-306.02"/>
<polygon fill="#63b8ff" stroke="#63b8ff" points="1341.03,-285.53 1350.35,-280.49 1339.92,-278.62 1341.03,-285.53"/>
</g>
<!-- Node44&#45;&gt;Node4 -->
<g id="edge60" class="edge">
<title>Node44&#45;&gt;Node4</title>
<path fill="none" stroke="#63b8ff" d="M1044.93,-323.51C1028.59,-328.13 1010.49,-333.24 995.2,-337.56"/>
<polygon fill="#63b8ff" stroke="#63b8ff" points="1045.77,-326.91 1054.44,-320.83 1043.86,-320.18 1045.77,-326.91"/>
</g>
<!-- Node45&#45;&gt;Node39 -->
<g id="edge65" class="edge">
<title>Node45&#45;&gt;Node39</title>
<path fill="none" stroke="#63b8ff" d="M1184.2,-60.31C1159.72,-66.8 1131.35,-74.33 1112.83,-79.24"/>
<polygon fill="#63b8ff" stroke="#63b8ff" points="1184.89,-63.75 1193.65,-57.8 1183.09,-56.98 1184.89,-63.75"/>
</g>
<!-- Node46 -->
<g id="node44" class="node">
<title>Node46</title>
<g id="a_node44"><a xlink:href="TransmitterCode_2src_2main_8cpp.html#a5c0f1fd26cdd6ecde365f521060158ba" target="_top" xlink:title=" ">
<polygon fill="white" stroke="#666666" points="1140.5,-57 1043.5,-57 1043.5,-38 1140.5,-38 1140.5,-57"/>
<text text-anchor="middle" x="1092" y="-45" font-family="Helvetica,sans-Serif" font-size="10.00">CheckModelName</text>
</a>
</g>
</g>
<!-- Node45&#45;&gt;Node46 -->
<g id="edge62" class="edge">
<title>Node45&#45;&gt;Node46</title>
<path fill="none" stroke="#63b8ff" d="M1182.85,-47.5C1169.18,-47.5 1154.38,-47.5 1140.82,-47.5"/>
<polygon fill="#63b8ff" stroke="#63b8ff" points="1182.5,-51 1192.5,-47.5 1182.5,-44 1182.5,-51"/>
</g>
<!-- Node46&#45;&gt;Node23 -->
<g id="edge64" class="edge">
<title>Node46&#45;&gt;Node23</title>
<path fill="none" stroke="#63b8ff" d="M1032.15,-47.16C977.16,-46.87 892.77,-46.5 819.5,-46.5 819.5,-46.5 819.5,-46.5 674.5,-46.5 553,-46.5 418.35,-117.14 372.12,-143.63"/>
<polygon fill="#63b8ff" stroke="#63b8ff" points="1031.89,-50.66 1041.91,-47.21 1031.93,-43.66 1031.89,-50.66"/>
</g>
<!-- Node47 -->
<g id="node45" class="node">
<title>Node47</title>
<g id="a_node45"><a xlink:href="TransmitterCode_2src_2main_8cpp.html#ae267eaa80a4b3eb49ba10a97469eb7e9" target="_top" xlink:title=" ">
<polygon fill="white" stroke="#666666" points="993.5,-94 924.5,-94 924.5,-75 993.5,-75 993.5,-94"/>
<text text-anchor="middle" x="959" y="-82" font-family="Helvetica,sans-Serif" font-size="10.00">DoMFName</text>
</a>
</g>
</g>
<!-- Node46&#45;&gt;Node47 -->
<g id="edge63" class="edge">
<title>Node46&#45;&gt;Node47</title>
<path fill="none" stroke="#63b8ff" d="M1045.13,-60.45C1028.26,-65.22 1009.47,-70.53 993.84,-74.94"/>
<polygon fill="#63b8ff" stroke="#63b8ff" points="1045.77,-63.91 1054.44,-57.83 1043.86,-57.18 1045.77,-63.91"/>
</g>
<!-- Node49 -->
<g id="node47" class="node">
<title>Node49</title>
<g id="a_node47"><a xlink:href="TransmitterCode_2src_2main_8cpp.html#a4f813935d8fe58355228cbbf25e12f96" target="_top" xlink:title=" ">
<polygon fill="white" stroke="#666666" points="1290,-396 1177,-396 1177,-377 1290,-377 1290,-396"/>
<text text-anchor="middle" x="1233.5" y="-384" font-family="Helvetica,sans-Serif" font-size="10.00">GetRXVersionNumber</text>
</a>
</g>
</g>
<!-- Node48&#45;&gt;Node49 -->
<g id="edge67" class="edge">
<title>Node48&#45;&gt;Node49</title>
<path fill="none" stroke="#63b8ff" d="M1342.86,-387.22C1326.54,-387.11 1307.73,-386.98 1290.4,-386.87"/>
<polygon fill="#63b8ff" stroke="#63b8ff" points="1342.7,-390.71 1352.73,-387.28 1342.75,-383.71 1342.7,-390.71"/>
</g>
<!-- Node17 -->
<g id="node48" class="node">
<title>Node17</title>
<g id="a_node48"><a xlink:href="TransmitterCode_2src_2main_8cpp.html#a694f4f5a0147f4dc29b0bc1a8951547d" target="_top" xlink:title=" ">
<polygon fill="white" stroke="#666666" points="1139,-395 1045,-395 1045,-376 1139,-376 1139,-395"/>
<text text-anchor="middle" x="1092" y="-383" font-family="Helvetica,sans-Serif" font-size="10.00">ParseAckPayload</text>
</a>
</g>
</g>
<!-- Node49&#45;&gt;Node17 -->
<g id="edge68" class="edge">
<title>Node49&#45;&gt;Node17</title>
<path fill="none" stroke="#63b8ff" d="M1165.08,-386.02C1156.28,-385.95 1147.44,-385.89 1139.11,-385.83"/>
<polygon fill="#63b8ff" stroke="#63b8ff" points="1165.03,-389.52 1175.05,-386.09 1165.08,-382.52 1165.03,-389.52"/>
</g>
<!-- Node17&#45;&gt;Node4 -->
<g id="edge69" class="edge">
<title>Node17&#45;&gt;Node4</title>
<path fill="none" stroke="#63b8ff" d="M1045.8,-372.39C1028.88,-367.48 1009.95,-361.99 994.19,-357.42"/>
<polygon fill="#63b8ff" stroke="#63b8ff" points="1044.55,-375.67 1055.13,-375.09 1046.5,-368.95 1044.55,-375.67"/>
</g>
<!-- Node50&#45;&gt;Node25 -->
<g id="edge71" class="edge">
<title>Node50&#45;&gt;Node25</title>
<path fill="none" stroke="#63b8ff" d="M1342.56,-437.87C1336.97,-439.7 1331.33,-441.61 1326,-443.5 1302.83,-451.72 1276.78,-462.08 1258.41,-469.57"/>
<polygon fill="#63b8ff" stroke="#63b8ff" points="1343.28,-441.31 1351.73,-434.92 1341.14,-434.65 1343.28,-441.31"/>
</g>
<!-- Node51&#45;&gt;Node25 -->
<g id="edge73" class="edge">
<title>Node51&#45;&gt;Node25</title>
<path fill="none" stroke="#63b8ff" d="M1345.99,-560.32C1339.16,-557.39 1332.26,-554.09 1326,-550.5 1294.25,-532.31 1261.4,-504.1 1245.06,-489.31"/>
<polygon fill="#63b8ff" stroke="#63b8ff" points="1344.56,-563.51 1355.15,-564.03 1347.2,-557.03 1344.56,-563.51"/>
</g>
</g>
</svg>
