<?xml version="1.0" encoding="UTF-8" standalone="no"?>
<!DOCTYPE svg PUBLIC "-//W3C//DTD SVG 1.1//EN"
 "http://www.w3.org/Graphics/SVG/1.1/DTD/svg11.dtd">
<!-- Generated by graphviz version 7.0.4 (20221203.1631)
 -->
<!-- Title: LogPowerOff Pages: 1 -->
<svg width="439pt" height="101pt"
 viewBox="0.00 0.00 439.00 101.00" xmlns="http://www.w3.org/2000/svg" xmlns:xlink="http://www.w3.org/1999/xlink">
<g id="graph0" class="graph" transform="scale(1 1) rotate(0) translate(4 97)">
<title>LogPowerOff</title>
<!-- Node1 -->
<g id="node1" class="node">
<title>Node1</title>
<g id="a_node1"><a xlink:title=" ">
<polygon fill="#999999" stroke="#666666" points="431,-37 357,-37 357,-18 431,-18 431,-37"/>
<text text-anchor="middle" x="394" y="-25" font-family="Helvetica,sans-Serif" font-size="10.00">LogPowerOff</text>
</a>
</g>
</g>
<!-- Node2 -->
<g id="node2" class="node">
<title>Node2</title>
<g id="a_node2"><a xlink:href="TransmitterCode_2src_2main_8cpp.html#a804fdbdd5eab4c596bbe8a23eecbe4d5" target="_top" xlink:title=" ">
<polygon fill="white" stroke="#666666" points="315,-56 214,-56 214,-37 315,-37 315,-56"/>
<text text-anchor="middle" x="264.5" y="-44" font-family="Helvetica,sans-Serif" font-size="10.00">ButtonWasPressed</text>
</a>
</g>
</g>
<!-- Node1&#45;&gt;Node2 -->
<g id="edge1" class="edge">
<title>Node1&#45;&gt;Node2</title>
<path fill="none" stroke="#63b8ff" d="M345.49,-34.58C335.58,-36.06 325.1,-37.62 315.11,-39.11"/>
<polygon fill="#63b8ff" stroke="#63b8ff" points="345.93,-38.05 355.31,-33.12 344.9,-31.13 345.93,-38.05"/>
</g>
<!-- Node7 -->
<g id="node7" class="node">
<title>Node7</title>
<g id="a_node7"><a xlink:href="TransmitterCode_2src_2main_8cpp.html#a6ae37c6938b8c10b83d1bc74e8643bd9" target="_top" xlink:title=" ">
<polygon fill="white" stroke="#666666" points="321,-19 208,-19 208,0 321,0 321,-19"/>
<text text-anchor="middle" x="264.5" y="-7" font-family="Helvetica,sans-Serif" font-size="10.00">CheckPowerOffButton</text>
</a>
</g>
</g>
<!-- Node1&#45;&gt;Node7 -->
<g id="edge8" class="edge">
<title>Node1&#45;&gt;Node7</title>
<path fill="none" stroke="#63b8ff" d="M345.55,-20.8C337.66,-19.69 329.41,-18.52 321.32,-17.38"/>
<polygon fill="#63b8ff" stroke="#63b8ff" points="344.91,-24.25 355.31,-22.18 345.89,-17.31 344.91,-24.25"/>
</g>
<!-- Node3 -->
<g id="node3" class="node">
<title>Node3</title>
<g id="a_node3"><a xlink:href="TransmitterCode_2src_2main_8cpp.html#a6506bf72e0dd9e9ce480156b47625bff" target="_top" xlink:title=" ">
<polygon fill="white" stroke="#666666" points="164.5,-93 78.5,-93 78.5,-74 164.5,-74 164.5,-93"/>
<text text-anchor="middle" x="121.5" y="-81" font-family="Helvetica,sans-Serif" font-size="10.00">GetConfirmation</text>
</a>
</g>
</g>
<!-- Node2&#45;&gt;Node3 -->
<g id="edge2" class="edge">
<title>Node2&#45;&gt;Node3</title>
<path fill="none" stroke="#63b8ff" d="M202.87,-55.72C181.03,-61.19 157.89,-67.87 142.08,-73.52"/>
<polygon fill="#63b8ff" stroke="#63b8ff" points="203.43,-59.19 212.32,-53.42 201.77,-52.38 203.43,-59.19"/>
</g>
<!-- Node4 -->
<g id="node4" class="node">
<title>Node4</title>
<g id="a_node4"><a xlink:href="TransmitterCode_2src_2main_8cpp.html#a558ea014e230b7caa54ce5a37ad29b22" target="_top" xlink:title=" ">
<polygon fill="white" stroke="#666666" points="172,-19 71,-19 71,0 172,0 172,-19"/>
<text text-anchor="middle" x="121.5" y="-7" font-family="Helvetica,sans-Serif" font-size="10.00">ManageTransmitter</text>
</a>
</g>
</g>
<!-- Node2&#45;&gt;Node4 -->
<g id="edge4" class="edge">
<title>Node2&#45;&gt;Node4</title>
<path fill="none" stroke="#63b8ff" d="M214.67,-33.69C196.89,-29.02 177.08,-23.82 160.39,-19.44"/>
<polygon fill="#63b8ff" stroke="#63b8ff" points="213.69,-37.05 224.25,-36.2 215.47,-30.28 213.69,-37.05"/>
</g>
<!-- Node6 -->
<g id="node6" class="node">
<title>Node6</title>
<g id="a_node6"><a xlink:href="TransmitterCode_2src_2main_8cpp.html#ab7c9edf843c732d7fe296564f39bc0dc" target="_top" xlink:title="RECEIVE A MODEL FILE.">
<polygon fill="white" stroke="#666666" points="168.5,-56 74.5,-56 74.5,-37 168.5,-37 168.5,-56"/>
<text text-anchor="middle" x="121.5" y="-44" font-family="Helvetica,sans-Serif" font-size="10.00">ReceiveModelFile</text>
</a>
</g>
</g>
<!-- Node2&#45;&gt;Node6 -->
<g id="edge6" class="edge">
<title>Node2&#45;&gt;Node6</title>
<path fill="none" stroke="#63b8ff" d="M202.29,-39.8C191.11,-39.68 179.6,-39.78 168.93,-40.11"/>
<polygon fill="#63b8ff" stroke="#63b8ff" points="202.21,-43.3 212.28,-39.99 202.34,-36.3 202.21,-43.3"/>
</g>
<!-- Node3&#45;&gt;Node2 -->
<g id="edge3" class="edge">
<title>Node3&#45;&gt;Node2</title>
<path fill="none" stroke="#63b8ff" d="M175.89,-76.06C199.72,-70.32 226.32,-62.76 243.89,-56.49"/>
<polygon fill="#63b8ff" stroke="#63b8ff" points="175.24,-72.62 166.3,-78.3 176.83,-79.43 175.24,-72.62"/>
</g>
<!-- Node5 -->
<g id="node5" class="node">
<title>Node5</title>
<g id="a_node5"><a xlink:href="TransmitterCode_2src_2main_8cpp.html#ad3cb30894c94eb016e98bdcaa899ac86" target="_top" xlink:title=" ">
<polygon fill="white" stroke="#666666" points="35,-19 0,-19 0,0 35,0 35,-19"/>
<text text-anchor="middle" x="17.5" y="-7" font-family="Helvetica,sans-Serif" font-size="10.00">loop</text>
</a>
</g>
</g>
<!-- Node4&#45;&gt;Node5 -->
<g id="edge5" class="edge">
<title>Node4&#45;&gt;Node5</title>
<path fill="none" stroke="#63b8ff" d="M59.4,-9.5C50.6,-9.5 42.21,-9.5 35.35,-9.5"/>
<polygon fill="#63b8ff" stroke="#63b8ff" points="59.18,-13 69.18,-9.5 59.18,-6 59.18,-13"/>
</g>
<!-- Node6&#45;&gt;Node2 -->
<g id="edge7" class="edge">
<title>Node6&#45;&gt;Node2</title>
<path fill="none" stroke="#63b8ff" d="M180.3,-53.15C191.42,-53.33 202.96,-53.27 213.79,-52.98"/>
<polygon fill="#63b8ff" stroke="#63b8ff" points="180.52,-49.66 170.44,-52.92 180.36,-56.65 180.52,-49.66"/>
</g>
<!-- Node7&#45;&gt;Node4 -->
<g id="edge9" class="edge">
<title>Node7&#45;&gt;Node4</title>
<path fill="none" stroke="#63b8ff" d="M196.4,-9.5C188.3,-9.5 180.13,-9.5 172.34,-9.5"/>
<polygon fill="#63b8ff" stroke="#63b8ff" points="196.26,-13 206.26,-9.5 196.26,-6 196.26,-13"/>
</g>
</g>
</svg>
