<?xml version="1.0" encoding="UTF-8" standalone="no"?>
<!DOCTYPE svg PUBLIC "-//W3C//DTD SVG 1.1//EN"
 "http://www.w3.org/Graphics/SVG/1.1/DTD/svg11.dtd">
<!-- Generated by graphviz version 7.0.5 (20221223.1930)
 -->
<!-- Title: GetLEDBrightness Pages: 1 -->
<svg width="985pt" height="439pt"
 viewBox="0.00 0.00 985.00 439.00" xmlns="http://www.w3.org/2000/svg" xmlns:xlink="http://www.w3.org/1999/xlink">
<g id="graph0" class="graph" transform="scale(1 1) rotate(0) translate(4 435)">
<title>GetLEDBrightness</title>
<!-- Node1 -->
<g id="node1" class="node">
<title>Node1</title>
<g id="a_node1"><a xlink:title=" ">
<polygon fill="#999999" stroke="#666666" points="977,-170 879,-170 879,-151 977,-151 977,-170"/>
<text text-anchor="middle" x="928" y="-158" font-family="Helvetica,sans-Serif" font-size="10.00">GetLEDBrightness</text>
</a>
</g>
</g>
<!-- Node2 -->
<g id="node2" class="node">
<title>Node2</title>
<g id="a_node2"><a xlink:href="TransmitterCode_2src_2main_8cpp.html#aa1f9aec467eb00917ad9ffdc0bd5b20d" target="_top" xlink:title=" ">
<polygon fill="white" stroke="#666666" points="839.5,-284 774.5,-284 774.5,-265 839.5,-265 839.5,-284"/>
<text text-anchor="middle" x="807" y="-272" font-family="Helvetica,sans-Serif" font-size="10.00">BlueLedOn</text>
</a>
</g>
</g>
<!-- Node1&#45;&gt;Node2 -->
<g id="edge1" class="edge">
<title>Node1&#45;&gt;Node2</title>
<path fill="none" stroke="#63b8ff" d="M908.77,-177.96C883.37,-202.29 838.21,-245.56 818.12,-264.81"/>
<polygon fill="#63b8ff" stroke="#63b8ff" points="910.96,-180.71 915.76,-171.27 906.12,-175.66 910.96,-180.71"/>
</g>
<!-- Node19 -->
<g id="node19" class="node">
<title>Node19</title>
<g id="a_node19"><a xlink:href="TransmitterCode_2src_2main_8cpp.html#a62e53eb9359c32b666e3386d62c57037" target="_top" xlink:title=" ">
<polygon fill="white" stroke="#666666" points="843,-38 771,-38 771,-19 843,-19 843,-38"/>
<text text-anchor="middle" x="807" y="-26" font-family="Helvetica,sans-Serif" font-size="10.00">GreenLedOn</text>
</a>
</g>
</g>
<!-- Node1&#45;&gt;Node19 -->
<g id="edge24" class="edge">
<title>Node1&#45;&gt;Node19</title>
<path fill="none" stroke="#63b8ff" d="M910.62,-142.34C885.05,-113.97 836.51,-60.13 816.72,-38.18"/>
<polygon fill="#63b8ff" stroke="#63b8ff" points="907.75,-144.37 917.04,-149.45 912.95,-139.68 907.75,-144.37"/>
</g>
<!-- Node24 -->
<g id="node24" class="node">
<title>Node24</title>
<g id="a_node24"><a xlink:href="TransmitterCode_2src_2main_8cpp.html#a7d34cec6e8edc20c8b50424e15dcc7c7" target="_top" xlink:title=" ">
<polygon fill="white" stroke="#666666" points="838.5,-170 775.5,-170 775.5,-151 838.5,-151 838.5,-170"/>
<text text-anchor="middle" x="807" y="-158" font-family="Helvetica,sans-Serif" font-size="10.00">RedLedOn</text>
</a>
</g>
</g>
<!-- Node1&#45;&gt;Node24 -->
<g id="edge33" class="edge">
<title>Node1&#45;&gt;Node24</title>
<path fill="none" stroke="#63b8ff" d="M867.18,-160.5C857.41,-160.5 847.65,-160.5 838.96,-160.5"/>
<polygon fill="#63b8ff" stroke="#63b8ff" points="867.08,-164 877.08,-160.5 867.08,-157 867.08,-164"/>
</g>
<!-- Node3 -->
<g id="node3" class="node">
<title>Node3</title>
<g id="a_node3"><a xlink:href="TransmitterCode_2src_2main_8cpp.html#a804fdbdd5eab4c596bbe8a23eecbe4d5" target="_top" xlink:title=" ">
<polygon fill="white" stroke="#666666" points="595.5,-303 494.5,-303 494.5,-284 595.5,-284 595.5,-303"/>
<text text-anchor="middle" x="545" y="-291" font-family="Helvetica,sans-Serif" font-size="10.00">ButtonWasPressed</text>
</a>
</g>
</g>
<!-- Node2&#45;&gt;Node3 -->
<g id="edge2" class="edge">
<title>Node2&#45;&gt;Node3</title>
<path fill="none" stroke="#63b8ff" d="M762.76,-277.66C716.83,-281.02 644.32,-286.31 595.98,-289.85"/>
<polygon fill="#63b8ff" stroke="#63b8ff" points="762.89,-281.16 772.61,-276.94 762.38,-274.18 762.89,-281.16"/>
</g>
<!-- Node11 -->
<g id="node11" class="node">
<title>Node11</title>
<g id="a_node11"><a xlink:href="TransmitterCode_2src_2main_8cpp.html#ab7c9edf843c732d7fe296564f39bc0dc" target="_top" xlink:title="RECEIVE A MODEL FILE.">
<polygon fill="white" stroke="#666666" points="111,-209 17,-209 17,-190 111,-190 111,-209"/>
<text text-anchor="middle" x="64" y="-197" font-family="Helvetica,sans-Serif" font-size="10.00">ReceiveModelFile</text>
</a>
</g>
</g>
<!-- Node2&#45;&gt;Node11 -->
<g id="edge19" class="edge">
<title>Node2&#45;&gt;Node11</title>
<path fill="none" stroke="#63b8ff" d="M781.77,-258.46C768.51,-250.49 751.46,-241.52 735,-236.5 654.24,-211.89 630.42,-217.5 546,-217.5 546,-217.5 546,-217.5 377,-217.5 282.59,-217.5 172.38,-209.18 111.47,-203.86"/>
<polygon fill="#63b8ff" stroke="#63b8ff" points="779.89,-261.42 790.23,-263.74 783.6,-255.48 779.89,-261.42"/>
</g>
<!-- Node16 -->
<g id="node16" class="node">
<title>Node16</title>
<g id="a_node16"><a xlink:href="TransmitterCode_2src_2main_8cpp.html#a58c67a975068930341f0663e0a08c9d3" target="_top" xlink:title="SEND A MODEL FILE.">
<polygon fill="white" stroke="#666666" points="727.5,-265 646.5,-265 646.5,-246 727.5,-246 727.5,-265"/>
<text text-anchor="middle" x="687" y="-253" font-family="Helvetica,sans-Serif" font-size="10.00">SendModelFile</text>
</a>
</g>
</g>
<!-- Node2&#45;&gt;Node16 -->
<g id="edge20" class="edge">
<title>Node2&#45;&gt;Node16</title>
<path fill="none" stroke="#63b8ff" d="M762.99,-267.57C751.55,-265.73 739.25,-263.75 727.98,-261.94"/>
<polygon fill="#63b8ff" stroke="#63b8ff" points="762.14,-270.98 772.57,-269.12 763.26,-264.07 762.14,-270.98"/>
</g>
<!-- Node17 -->
<g id="node17" class="node">
<title>Node17</title>
<g id="a_node17"><a xlink:href="TransmitterCode_2src_2main_8cpp.html#a17699f358cf9f7c3155a9c5daf8ff13c" target="_top" xlink:title=" ">
<polygon fill="white" stroke="#666666" points="707.5,-378 666.5,-378 666.5,-359 707.5,-359 707.5,-378"/>
<text text-anchor="middle" x="687" y="-366" font-family="Helvetica,sans-Serif" font-size="10.00">setup</text>
</a>
</g>
</g>
<!-- Node2&#45;&gt;Node17 -->
<g id="edge22" class="edge">
<title>Node2&#45;&gt;Node17</title>
<path fill="none" stroke="#63b8ff" d="M792.32,-293.47C779.25,-310.42 758.16,-334.9 735,-350.5 726.74,-356.06 716.51,-360.24 707.71,-363.16"/>
<polygon fill="#63b8ff" stroke="#63b8ff" points="794.94,-295.8 798.13,-285.7 789.34,-291.61 794.94,-295.8"/>
</g>
<!-- Node18 -->
<g id="node18" class="node">
<title>Node18</title>
<g id="a_node18"><a xlink:href="TransmitterCode_2src_2main_8cpp.html#a6fed69b1bb6d33fc82707a4e70bf3ef4" target="_top" xlink:title=" ">
<polygon fill="white" stroke="#666666" points="734,-341 640,-341 640,-322 734,-322 734,-341"/>
<text text-anchor="middle" x="687" y="-329" font-family="Helvetica,sans-Serif" font-size="10.00">StartTrimDefView</text>
</a>
</g>
</g>
<!-- Node2&#45;&gt;Node18 -->
<g id="edge23" class="edge">
<title>Node2&#45;&gt;Node18</title>
<path fill="none" stroke="#63b8ff" d="M775.36,-289.3C754.25,-299.5 726.77,-312.77 708.32,-321.69"/>
<polygon fill="#63b8ff" stroke="#63b8ff" points="776.6,-292.59 784.08,-285.09 773.56,-286.29 776.6,-292.59"/>
</g>
<!-- Node4 -->
<g id="node4" class="node">
<title>Node4</title>
<g id="a_node4"><a xlink:href="TransmitterCode_2src_2main_8cpp.html#afb7c85cac4aa89fd998ed81c330374d2" target="_top" xlink:title=" ">
<polygon fill="white" stroke="#666666" points="451,-341 305,-341 305,-322 451,-322 451,-341"/>
<text text-anchor="middle" x="378" y="-329" font-family="Helvetica,sans-Serif" font-size="10.00">CheckForNextionButtonPress</text>
</a>
</g>
</g>
<!-- Node3&#45;&gt;Node4 -->
<g id="edge3" class="edge">
<title>Node3&#45;&gt;Node4</title>
<path fill="none" stroke="#63b8ff" d="M489.54,-306.04C467.72,-311.07 442.92,-316.78 422.35,-321.52"/>
<polygon fill="#63b8ff" stroke="#63b8ff" points="490.21,-309.48 499.17,-303.82 488.64,-302.66 490.21,-309.48"/>
</g>
<!-- Node3&#45;&gt;Node11 -->
<g id="edge18" class="edge">
<title>Node3&#45;&gt;Node11</title>
<path fill="none" stroke="#63b8ff" d="M482.89,-287.51C407.11,-279.18 274.41,-261.62 164,-231.5 147.44,-226.98 144.27,-222.98 128,-217.5 119.7,-214.71 110.69,-211.97 102.15,-209.5"/>
<polygon fill="#63b8ff" stroke="#63b8ff" points="482.28,-290.97 492.6,-288.56 483.03,-284.01 482.28,-290.97"/>
</g>
<!-- Node5 -->
<g id="node5" class="node">
<title>Node5</title>
<g id="a_node5"><a xlink:href="TransmitterCode_2src_2main_8cpp.html#a641d6dab68ec7b2a8a32492aac55bc1c" target="_top" xlink:title=" ">
<polygon fill="white" stroke="#666666" points="269,-379 164,-379 164,-360 269,-360 269,-379"/>
<text text-anchor="middle" x="216.5" y="-367" font-family="Helvetica,sans-Serif" font-size="10.00">GetBackupFilename</text>
</a>
</g>
</g>
<!-- Node4&#45;&gt;Node5 -->
<g id="edge4" class="edge">
<title>Node4&#45;&gt;Node5</title>
<path fill="none" stroke="#63b8ff" d="M324.07,-344.11C303.04,-349.12 279.2,-354.8 259.4,-359.52"/>
<polygon fill="#63b8ff" stroke="#63b8ff" points="324.7,-347.56 333.62,-341.83 323.08,-340.75 324.7,-347.56"/>
</g>
<!-- Node7 -->
<g id="node7" class="node">
<title>Node7</title>
<g id="a_node7"><a xlink:href="TransmitterCode_2src_2main_8cpp.html#a6506bf72e0dd9e9ce480156b47625bff" target="_top" xlink:title=" ">
<polygon fill="white" stroke="#666666" points="259.5,-320 173.5,-320 173.5,-301 259.5,-301 259.5,-320"/>
<text text-anchor="middle" x="216.5" y="-308" font-family="Helvetica,sans-Serif" font-size="10.00">GetConfirmation</text>
</a>
</g>
</g>
<!-- Node4&#45;&gt;Node7 -->
<g id="edge7" class="edge">
<title>Node4&#45;&gt;Node7</title>
<path fill="none" stroke="#63b8ff" d="M293.55,-320.51C281.89,-318.98 270.35,-317.46 259.9,-316.08"/>
<polygon fill="#63b8ff" stroke="#63b8ff" points="292.84,-323.95 303.22,-321.79 293.76,-317.01 292.84,-323.95"/>
</g>
<!-- Node14 -->
<g id="node14" class="node">
<title>Node14</title>
<g id="a_node14"><a xlink:href="TransmitterCode_2src_2main_8cpp.html#a558ea014e230b7caa54ce5a37ad29b22" target="_top" xlink:title=" ">
<polygon fill="white" stroke="#666666" points="267,-37 166,-37 166,-18 267,-18 267,-37"/>
<text text-anchor="middle" x="216.5" y="-25" font-family="Helvetica,sans-Serif" font-size="10.00">ManageTransmitter</text>
</a>
</g>
</g>
<!-- Node4&#45;&gt;Node14 -->
<g id="edge16" class="edge">
<title>Node4&#45;&gt;Node14</title>
<path fill="none" stroke="#63b8ff" d="M366.7,-311.87C335.92,-253.21 245.35,-80.58 222.69,-37.39"/>
<polygon fill="#63b8ff" stroke="#63b8ff" points="363.43,-313.16 371.17,-320.39 369.62,-309.91 363.43,-313.16"/>
</g>
<!-- Node5&#45;&gt;Node3 -->
<g id="edge5" class="edge">
<title>Node5&#45;&gt;Node3</title>
<path fill="none" stroke="#63b8ff" d="M280.85,-372.21C328.72,-372.4 395.46,-368.63 451,-350.5 482.86,-340.1 515.12,-316.83 532,-303.46"/>
<polygon fill="#63b8ff" stroke="#63b8ff" points="280.96,-368.71 270.92,-372.1 280.88,-375.71 280.96,-368.71"/>
</g>
<!-- Node6 -->
<g id="node6" class="node">
<title>Node6</title>
<g id="a_node6"><a xlink:href="TransmitterCode_2src_2main_8cpp.html#a9d94366336f1e5fd43edb9c24bec5821" target="_top" xlink:title=" ">
<polygon fill="white" stroke="#666666" points="98,-431 30,-431 30,-412 98,-412 98,-431"/>
<text text-anchor="middle" x="64" y="-419" font-family="Helvetica,sans-Serif" font-size="10.00">RenameFile</text>
</a>
</g>
</g>
<!-- Node5&#45;&gt;Node6 -->
<g id="edge6" class="edge">
<title>Node5&#45;&gt;Node6</title>
<path fill="none" stroke="#63b8ff" d="M181.09,-383.72C165.08,-390.11 145.7,-397.55 128,-403.5 118.4,-406.73 107.87,-409.89 98.2,-412.63"/>
<polygon fill="#63b8ff" stroke="#63b8ff" points="182.21,-387.04 190.17,-380.05 179.59,-380.55 182.21,-387.04"/>
</g>
<!-- Node7&#45;&gt;Node3 -->
<g id="edge8" class="edge">
<title>Node7&#45;&gt;Node3</title>
<path fill="none" stroke="#63b8ff" d="M271.35,-307.7C333.21,-304.48 433.89,-299.23 494.06,-296.1"/>
<polygon fill="#63b8ff" stroke="#63b8ff" points="271.22,-304.2 261.41,-308.21 271.58,-311.19 271.22,-304.2"/>
</g>
<!-- Node7&#45;&gt;Node6 -->
<g id="edge13" class="edge">
<title>Node7&#45;&gt;Node6</title>
<path fill="none" stroke="#63b8ff" d="M191.93,-326.95C182.7,-333.96 172.34,-342.58 164,-351.5 144.8,-372.03 150.85,-387.13 128,-403.5 119.31,-409.73 108.51,-413.81 98.31,-416.48"/>
<polygon fill="#63b8ff" stroke="#63b8ff" points="193.8,-329.91 199.79,-321.17 189.66,-324.27 193.8,-329.91"/>
</g>
<!-- Node8 -->
<g id="node8" class="node">
<title>Node8</title>
<g id="a_node8"><a xlink:href="TransmitterCode_2src_2main_8cpp.html#a16c65917a148c7f6c17babf11e977b69" target="_top" xlink:title=" ">
<polygon fill="white" stroke="#666666" points="105,-394 23,-394 23,-375 105,-375 105,-394"/>
<text text-anchor="middle" x="64" y="-382" font-family="Helvetica,sans-Serif" font-size="10.00">EndBuddyView</text>
</a>
</g>
</g>
<!-- Node7&#45;&gt;Node8 -->
<g id="edge9" class="edge">
<title>Node7&#45;&gt;Node8</title>
<path fill="none" stroke="#63b8ff" d="M193.72,-326.99C176.61,-339.3 151.78,-355.77 128,-366.5 120.85,-369.73 112.97,-372.52 105.28,-374.88"/>
<polygon fill="#63b8ff" stroke="#63b8ff" points="195.63,-329.93 201.62,-321.19 191.49,-324.29 195.63,-329.93"/>
</g>
<!-- Node9 -->
<g id="node9" class="node">
<title>Node9</title>
<g id="a_node9"><a xlink:href="TransmitterCode_2src_2main_8cpp.html#a339dccdc324b75d00fd035fb3fb129fd" target="_top" xlink:title=" ">
<polygon fill="white" stroke="#666666" points="105.5,-357 22.5,-357 22.5,-338 105.5,-338 105.5,-357"/>
<text text-anchor="middle" x="64" y="-345" font-family="Helvetica,sans-Serif" font-size="10.00">ModelUnmatch</text>
</a>
</g>
</g>
<!-- Node7&#45;&gt;Node9 -->
<g id="edge10" class="edge">
<title>Node7&#45;&gt;Node9</title>
<path fill="none" stroke="#63b8ff" d="M164.19,-323.12C145,-327.83 123.51,-333.12 105.44,-337.56"/>
<polygon fill="#63b8ff" stroke="#63b8ff" points="164.82,-326.56 173.7,-320.78 163.15,-319.77 164.82,-326.56"/>
</g>
<!-- Node10 -->
<g id="node10" class="node">
<title>Node10</title>
<g id="a_node10"><a xlink:href="TransmitterCode_2src_2main_8cpp.html#ae9f91b9da28f2e1e2fb126961f03c31c" target="_top" xlink:title=" ">
<polygon fill="white" stroke="#666666" points="104.5,-320 23.5,-320 23.5,-301 104.5,-301 104.5,-320"/>
<text text-anchor="middle" x="64" y="-308" font-family="Helvetica,sans-Serif" font-size="10.00">ModelViewEnd</text>
</a>
</g>
</g>
<!-- Node7&#45;&gt;Node10 -->
<g id="edge11" class="edge">
<title>Node7&#45;&gt;Node10</title>
<path fill="none" stroke="#63b8ff" d="M161.8,-310.5C143.06,-310.5 122.36,-310.5 104.94,-310.5"/>
<polygon fill="#63b8ff" stroke="#63b8ff" points="161.66,-314 171.66,-310.5 161.66,-307 161.66,-314"/>
</g>
<!-- Node7&#45;&gt;Node11 -->
<g id="edge12" class="edge">
<title>Node7&#45;&gt;Node11</title>
<path fill="none" stroke="#63b8ff" d="M191.93,-294.05C182.7,-287.04 172.34,-278.42 164,-269.5 144.8,-248.97 150.85,-233.87 128,-217.5 123.01,-213.92 117.32,-211.05 111.45,-208.75"/>
<polygon fill="#63b8ff" stroke="#63b8ff" points="189.66,-296.73 199.79,-299.83 193.8,-291.09 189.66,-296.73"/>
</g>
<!-- Node12 -->
<g id="node12" class="node">
<title>Node12</title>
<g id="a_node12"><a xlink:href="TransmitterCode_2src_2main_8cpp.html#a5c7f22bae35d5d6df9d54fe79dbb8401" target="_top" xlink:title=" ">
<polygon fill="white" stroke="#666666" points="128,-283 0,-283 0,-264 128,-264 128,-283"/>
<text text-anchor="middle" x="64" y="-271" font-family="Helvetica,sans-Serif" font-size="10.00">ResetTransmitterSettings</text>
</a>
</g>
</g>
<!-- Node7&#45;&gt;Node12 -->
<g id="edge14" class="edge">
<title>Node7&#45;&gt;Node12</title>
<path fill="none" stroke="#63b8ff" d="M164.19,-297.88C145,-293.17 123.51,-287.88 105.44,-283.44"/>
<polygon fill="#63b8ff" stroke="#63b8ff" points="163.15,-301.23 173.7,-300.22 164.82,-294.44 163.15,-301.23"/>
</g>
<!-- Node13 -->
<g id="node13" class="node">
<title>Node13</title>
<g id="a_node13"><a xlink:href="TransmitterCode_2src_2main_8cpp.html#a3c55ef7c23759a89a86f6519569c4f7a" target="_top" xlink:title=" ">
<polygon fill="white" stroke="#666666" points="113.5,-246 14.5,-246 14.5,-227 113.5,-227 113.5,-246"/>
<text text-anchor="middle" x="64" y="-234" font-family="Helvetica,sans-Serif" font-size="10.00">TXModuleViewEnd</text>
</a>
</g>
</g>
<!-- Node7&#45;&gt;Node13 -->
<g id="edge15" class="edge">
<title>Node7&#45;&gt;Node13</title>
<path fill="none" stroke="#63b8ff" d="M193.72,-294.01C176.61,-281.7 151.78,-265.23 128,-254.5 121.16,-251.41 113.65,-248.72 106.29,-246.43"/>
<polygon fill="#63b8ff" stroke="#63b8ff" points="191.49,-296.71 201.62,-299.81 195.63,-291.07 191.49,-296.71"/>
</g>
<!-- Node15 -->
<g id="node15" class="node">
<title>Node15</title>
<g id="a_node15"><a xlink:href="TransmitterCode_2src_2main_8cpp.html#ad3cb30894c94eb016e98bdcaa899ac86" target="_top" xlink:title=" ">
<polygon fill="white" stroke="#666666" points="81.5,-56 46.5,-56 46.5,-37 81.5,-37 81.5,-56"/>
<text text-anchor="middle" x="64" y="-44" font-family="Helvetica,sans-Serif" font-size="10.00">loop</text>
</a>
</g>
</g>
<!-- Node14&#45;&gt;Node15 -->
<g id="edge17" class="edge">
<title>Node14&#45;&gt;Node15</title>
<path fill="none" stroke="#63b8ff" d="M154.72,-35.17C128.42,-38.49 99.68,-42.12 81.99,-44.36"/>
<polygon fill="#63b8ff" stroke="#63b8ff" points="154.82,-38.69 164.3,-33.96 153.94,-31.74 154.82,-38.69"/>
</g>
<!-- Node16&#45;&gt;Node3 -->
<g id="edge21" class="edge">
<title>Node16&#45;&gt;Node3</title>
<path fill="none" stroke="#63b8ff" d="M638.22,-268.47C620,-273.41 599.55,-278.97 582.54,-283.58"/>
<polygon fill="#63b8ff" stroke="#63b8ff" points="639.02,-271.88 647.76,-265.88 637.19,-265.12 639.02,-271.88"/>
</g>
<!-- Node20 -->
<g id="node20" class="node">
<title>Node20</title>
<g id="a_node20"><a xlink:href="TransmitterCode_2src_2main_8cpp.html#a5d3a46c21927cf7a3031a1e68e0b7b48" target="_top" xlink:title="SHOW COMMS.">
<polygon fill="white" stroke="#666666" points="724.5,-19 649.5,-19 649.5,0 724.5,0 724.5,-19"/>
<text text-anchor="middle" x="687" y="-7" font-family="Helvetica,sans-Serif" font-size="10.00">ShowComms</text>
</a>
</g>
</g>
<!-- Node19&#45;&gt;Node20 -->
<g id="edge25" class="edge">
<title>Node19&#45;&gt;Node20</title>
<path fill="none" stroke="#63b8ff" d="M768.6,-16.15C754.63,-13.33 738.78,-10.79 724.86,-9.13"/>
<polygon fill="#63b8ff" stroke="#63b8ff" points="767.82,-19.56 778.33,-18.24 769.29,-12.72 767.82,-19.56"/>
</g>
<!-- Node21 -->
<g id="node21" class="node">
<title>Node21</title>
<g id="a_node21"><a xlink:href="TransmitterCode_2src_2main_8cpp.html#a1c11bb6771548de7d96723045b922620" target="_top" xlink:title=" ">
<polygon fill="white" stroke="#666666" points="735,-56 639,-56 639,-37 735,-37 735,-56"/>
<text text-anchor="middle" x="687" y="-44" font-family="Helvetica,sans-Serif" font-size="10.00">SuccessfulPacket</text>
</a>
</g>
</g>
<!-- Node19&#45;&gt;Node21 -->
<g id="edge28" class="edge">
<title>Node19&#45;&gt;Node21</title>
<path fill="none" stroke="#63b8ff" d="M759.27,-35.63C751.35,-36.84 743.11,-38.09 735.17,-39.3"/>
<polygon fill="#63b8ff" stroke="#63b8ff" points="759.74,-39.1 769.1,-34.13 758.69,-32.18 759.74,-39.1"/>
</g>
<!-- Node20&#45;&gt;Node14 -->
<g id="edge27" class="edge">
<title>Node20&#45;&gt;Node14</title>
<path fill="none" stroke="#63b8ff" d="M637.83,-11.35C548.43,-14.79 357.75,-22.11 267.21,-25.59"/>
<polygon fill="#63b8ff" stroke="#63b8ff" points="637.87,-14.85 647.73,-10.97 637.6,-7.86 637.87,-14.85"/>
</g>
<!-- Node20&#45;&gt;Node19 -->
<g id="edge26" class="edge">
<title>Node20&#45;&gt;Node19</title>
<path fill="none" stroke="#63b8ff" d="M725.45,-21.86C739.9,-24.77 756.35,-27.39 770.6,-29.04"/>
<polygon fill="#63b8ff" stroke="#63b8ff" points="726.37,-18.48 715.85,-19.8 724.89,-25.32 726.37,-18.48"/>
</g>
<!-- Node22 -->
<g id="node22" class="node">
<title>Node22</title>
<g id="a_node22"><a xlink:href="TransmitterCode_2src_2main_8cpp.html#a049bfb836e7aa4a3a48a1a4bd225fafc" target="_top" xlink:title=" ">
<polygon fill="white" stroke="#666666" points="407.5,-75 348.5,-75 348.5,-56 407.5,-56 407.5,-75"/>
<text text-anchor="middle" x="378" y="-63" font-family="Helvetica,sans-Serif" font-size="10.00">SendData</text>
</a>
</g>
</g>
<!-- Node21&#45;&gt;Node22 -->
<g id="edge29" class="edge">
<title>Node21&#45;&gt;Node22</title>
<path fill="none" stroke="#63b8ff" d="M627.52,-43.83C587.81,-42.67 534.14,-42.38 487,-46.5 459.88,-48.87 429.36,-54.52 407.7,-59.05"/>
<polygon fill="#63b8ff" stroke="#63b8ff" points="627.24,-47.32 637.34,-44.15 627.46,-40.33 627.24,-47.32"/>
</g>
<!-- Node23 -->
<g id="node23" class="node">
<title>Node23</title>
<g id="a_node23"><a xlink:href="TransmitterCode_2src_2main_8cpp.html#a6cb98c5fc86abe29731051eabf9055de" target="_top" xlink:title=" ">
<polygon fill="white" stroke="#666666" points="603,-75 487,-75 487,-56 603,-56 603,-75"/>
<text text-anchor="middle" x="545" y="-63" font-family="Helvetica,sans-Serif" font-size="10.00">SendReconnectPacket</text>
</a>
</g>
</g>
<!-- Node21&#45;&gt;Node23 -->
<g id="edge31" class="edge">
<title>Node21&#45;&gt;Node23</title>
<path fill="none" stroke="#63b8ff" d="M627.4,-54.45C619.34,-55.55 611.07,-56.67 603.04,-57.76"/>
<polygon fill="#63b8ff" stroke="#63b8ff" points="627.66,-57.95 637.1,-53.14 626.72,-51.01 627.66,-57.95"/>
</g>
<!-- Node22&#45;&gt;Node15 -->
<g id="edge30" class="edge">
<title>Node22&#45;&gt;Node15</title>
<path fill="none" stroke="#63b8ff" d="M336.98,-63.06C268.11,-58.87 129.94,-50.45 81.91,-47.53"/>
<polygon fill="#63b8ff" stroke="#63b8ff" points="336.5,-66.54 346.7,-63.65 336.93,-59.55 336.5,-66.54"/>
</g>
<!-- Node23&#45;&gt;Node22 -->
<g id="edge32" class="edge">
<title>Node23&#45;&gt;Node22</title>
<path fill="none" stroke="#63b8ff" d="M475.33,-65.5C451.73,-65.5 426.57,-65.5 407.89,-65.5"/>
<polygon fill="#63b8ff" stroke="#63b8ff" points="475.24,-69 485.24,-65.5 475.24,-62 475.24,-69"/>
</g>
<!-- Node24&#45;&gt;Node3 -->
<g id="edge34" class="edge">
<title>Node24&#45;&gt;Node3</title>
<path fill="none" stroke="#63b8ff" d="M771.38,-174.78C737.19,-189.23 683.67,-212.76 639,-236.5 610.57,-251.61 578.89,-271.79 560.81,-283.64"/>
<polygon fill="#63b8ff" stroke="#63b8ff" points="772.51,-178.1 780.38,-171.01 769.8,-171.65 772.51,-178.1"/>
</g>
<!-- Node24&#45;&gt;Node11 -->
<g id="edge38" class="edge">
<title>Node24&#45;&gt;Node11</title>
<path fill="none" stroke="#63b8ff" d="M763.95,-155.53C712.6,-149.9 623.05,-141.5 546,-141.5 546,-141.5 546,-141.5 377,-141.5 273.15,-141.5 153.07,-172.95 96.97,-189.53"/>
<polygon fill="#63b8ff" stroke="#63b8ff" points="763.4,-158.99 773.73,-156.62 764.18,-152.04 763.4,-158.99"/>
</g>
<!-- Node24&#45;&gt;Node16 -->
<g id="edge39" class="edge">
<title>Node24&#45;&gt;Node16</title>
<path fill="none" stroke="#63b8ff" d="M784.89,-177.49C760.25,-197.33 720.33,-229.47 700.29,-245.6"/>
<polygon fill="#63b8ff" stroke="#63b8ff" points="787.04,-180.26 792.64,-171.26 782.65,-174.8 787.04,-180.26"/>
</g>
<!-- Node25 -->
<g id="node25" class="node">
<title>Node25</title>
<g id="a_node25"><a xlink:href="TransmitterCode_2src_2main_8cpp.html#a5fbd3c8613a4163425c94965704ce5f8" target="_top" xlink:title=" ">
<polygon fill="white" stroke="#666666" points="724,-113 650,-113 650,-94 724,-94 724,-113"/>
<text text-anchor="middle" x="687" y="-101" font-family="Helvetica,sans-Serif" font-size="10.00">FailedPacket</text>
</a>
</g>
</g>
<!-- Node24&#45;&gt;Node25 -->
<g id="edge35" class="edge">
<title>Node24&#45;&gt;Node25</title>
<path fill="none" stroke="#63b8ff" d="M775.36,-145.7C754.25,-135.5 726.77,-122.23 708.32,-113.31"/>
<polygon fill="#63b8ff" stroke="#63b8ff" points="773.56,-148.71 784.08,-149.91 776.6,-142.41 773.56,-148.71"/>
</g>
<!-- Node25&#45;&gt;Node22 -->
<g id="edge36" class="edge">
<title>Node25&#45;&gt;Node22</title>
<path fill="none" stroke="#63b8ff" d="M638.23,-99.58C597.85,-96.05 538.53,-90.38 487,-83.5 460.06,-79.9 429.52,-74.71 407.8,-70.82"/>
<polygon fill="#63b8ff" stroke="#63b8ff" points="637.83,-103.06 648.1,-100.43 638.43,-96.08 637.83,-103.06"/>
</g>
<!-- Node25&#45;&gt;Node23 -->
<g id="edge37" class="edge">
<title>Node25&#45;&gt;Node23</title>
<path fill="none" stroke="#63b8ff" d="M638.57,-90.63C620.33,-85.68 599.8,-80.1 582.72,-75.47"/>
<polygon fill="#63b8ff" stroke="#63b8ff" points="637.55,-93.98 648.12,-93.22 639.39,-87.22 637.55,-93.98"/>
</g>
</g>
</svg>
