<?xml version="1.0" encoding="UTF-8" standalone="no"?>
<!DOCTYPE svg PUBLIC "-//W3C//DTD SVG 1.1//EN"
 "http://www.w3.org/Graphics/SVG/1.1/DTD/svg11.dtd">
<!-- Generated by graphviz version 7.0.4 (20221203.1631)
 -->
<!-- Title: WordWrap Pages: 1 -->
<svg width="756pt" height="251pt"
 viewBox="0.00 0.00 756.00 251.00" xmlns="http://www.w3.org/2000/svg" xmlns:xlink="http://www.w3.org/1999/xlink">
<g id="graph0" class="graph" transform="scale(1 1) rotate(0) translate(4 247)">
<title>WordWrap</title>
<!-- Node1 -->
<g id="node1" class="node">
<title>Node1</title>
<g id="a_node1"><a xlink:title=" ">
<polygon fill="#999999" stroke="#666666" points="748,-150 686,-150 686,-131 748,-131 748,-150"/>
<text text-anchor="middle" x="717" y="-138" font-family="Helvetica,sans-Serif" font-size="10.00">WordWrap</text>
</a>
</g>
</g>
<!-- Node2 -->
<g id="node2" class="node">
<title>Node2</title>
<g id="a_node2"><a xlink:href="TransmitterCode_2src_2main_8cpp.html#abd6446fb403bd9b07d150a5e4fdd86e1" target="_top" xlink:title=" ">
<polygon fill="white" stroke="#666666" points="650,-150 576,-150 576,-131 650,-131 650,-150"/>
<text text-anchor="middle" x="613" y="-138" font-family="Helvetica,sans-Serif" font-size="10.00">ReadTextFile</text>
</a>
</g>
</g>
<!-- Node1&#45;&gt;Node2 -->
<g id="edge1" class="edge">
<title>Node1&#45;&gt;Node2</title>
<path fill="none" stroke="#63b8ff" d="M674.27,-140.5C666.27,-140.5 657.96,-140.5 650.15,-140.5"/>
<polygon fill="#63b8ff" stroke="#63b8ff" points="674.16,-144 684.16,-140.5 674.16,-137 674.16,-144"/>
</g>
<!-- Node3 -->
<g id="node3" class="node">
<title>Node3</title>
<g id="a_node3"><a xlink:href="TransmitterCode_2src_2main_8cpp.html#ab0a84052e41734eb43651d054ee2b4c5" target="_top" xlink:title=" ">
<polygon fill="white" stroke="#666666" points="540,-187 463,-187 463,-168 540,-168 540,-187"/>
<text text-anchor="middle" x="501.5" y="-175" font-family="Helvetica,sans-Serif" font-size="10.00">ScrollHelpFile</text>
</a>
</g>
</g>
<!-- Node2&#45;&gt;Node3 -->
<g id="edge2" class="edge">
<title>Node2&#45;&gt;Node3</title>
<path fill="none" stroke="#63b8ff" d="M571.91,-154.05C558.67,-158.52 544.21,-163.41 531.92,-167.56"/>
<polygon fill="#63b8ff" stroke="#63b8ff" points="572.87,-157.42 581.22,-150.9 570.63,-150.79 572.87,-157.42"/>
</g>
<!-- Node12 -->
<g id="node12" class="node">
<title>Node12</title>
<g id="a_node12"><a xlink:href="TransmitterCode_2src_2main_8cpp.html#af5df157d4ece6b40a9ce7a60faeca569" target="_top" xlink:title=" ">
<polygon fill="white" stroke="#666666" points="538.5,-131 464.5,-131 464.5,-112 538.5,-112 538.5,-131"/>
<text text-anchor="middle" x="501.5" y="-119" font-family="Helvetica,sans-Serif" font-size="10.00">ShowLogFile</text>
</a>
</g>
</g>
<!-- Node2&#45;&gt;Node12 -->
<g id="edge13" class="edge">
<title>Node2&#45;&gt;Node12</title>
<path fill="none" stroke="#63b8ff" d="M564.45,-132.25C555.85,-130.76 547.01,-129.22 538.8,-127.8"/>
<polygon fill="#63b8ff" stroke="#63b8ff" points="563.6,-135.65 574.05,-133.91 564.79,-128.76 563.6,-135.65"/>
</g>
<!-- Node4 -->
<g id="node4" class="node">
<title>Node4</title>
<g id="a_node4"><a xlink:href="TransmitterCode_2src_2main_8cpp.html#a01be76cc3bf8a963f987ae47916dc8d3" target="_top" xlink:title=" ">
<polygon fill="white" stroke="#666666" points="415,-169 357,-169 357,-150 415,-150 415,-169"/>
<text text-anchor="middle" x="386" y="-157" font-family="Helvetica,sans-Serif" font-size="10.00">DownLog</text>
</a>
</g>
</g>
<!-- Node3&#45;&gt;Node4 -->
<g id="edge3" class="edge">
<title>Node3&#45;&gt;Node4</title>
<path fill="none" stroke="#63b8ff" d="M451.54,-169.74C439.16,-167.77 426.27,-165.73 415.29,-163.99"/>
<polygon fill="#63b8ff" stroke="#63b8ff" points="450.79,-173.16 461.21,-171.27 451.88,-166.25 450.79,-173.16"/>
</g>
<!-- Node5 -->
<g id="node5" class="node">
<title>Node5</title>
<g id="a_node5"><a xlink:href="TransmitterCode_2src_2main_8cpp.html#a038111bf598c53ad7b9a62ca45259356" target="_top" xlink:title=" ">
<polygon fill="white" stroke="#666666" points="415.5,-243 356.5,-243 356.5,-224 415.5,-224 415.5,-243"/>
<text text-anchor="middle" x="386" y="-231" font-family="Helvetica,sans-Serif" font-size="10.00">SendHelp</text>
</a>
</g>
</g>
<!-- Node3&#45;&gt;Node5 -->
<g id="edge4" class="edge">
<title>Node3&#45;&gt;Node5</title>
<path fill="none" stroke="#63b8ff" d="M471.78,-192.81C458.28,-199.89 441.9,-208.3 427,-215.5 421.38,-218.22 415.25,-221.04 409.52,-223.62"/>
<polygon fill="#63b8ff" stroke="#63b8ff" points="473.36,-195.93 480.57,-188.17 470.09,-189.74 473.36,-195.93"/>
</g>
<!-- Node11 -->
<g id="node11" class="node">
<title>Node11</title>
<g id="a_node11"><a xlink:href="TransmitterCode_2src_2main_8cpp.html#a2206c19b4fc075f4c9f1bb957ca89e1d" target="_top" xlink:title=" ">
<polygon fill="white" stroke="#666666" points="409,-206 363,-206 363,-187 409,-187 409,-206"/>
<text text-anchor="middle" x="386" y="-194" font-family="Helvetica,sans-Serif" font-size="10.00">UpLog</text>
</a>
</g>
</g>
<!-- Node3&#45;&gt;Node11 -->
<g id="edge12" class="edge">
<title>Node3&#45;&gt;Node11</title>
<path fill="none" stroke="#63b8ff" d="M451.66,-185.68C436.95,-188.14 421.51,-190.72 409.41,-192.75"/>
<polygon fill="#63b8ff" stroke="#63b8ff" points="451.93,-189.18 461.21,-184.08 450.77,-182.28 451.93,-189.18"/>
</g>
<!-- Node6 -->
<g id="node6" class="node">
<title>Node6</title>
<g id="a_node6"><a xlink:href="TransmitterCode_2src_2main_8cpp.html#a804fdbdd5eab4c596bbe8a23eecbe4d5" target="_top" xlink:title=" ">
<polygon fill="white" stroke="#666666" points="309,-187 208,-187 208,-168 309,-168 309,-187"/>
<text text-anchor="middle" x="258.5" y="-175" font-family="Helvetica,sans-Serif" font-size="10.00">ButtonWasPressed</text>
</a>
</g>
</g>
<!-- Node5&#45;&gt;Node6 -->
<g id="edge5" class="edge">
<title>Node5&#45;&gt;Node6</title>
<path fill="none" stroke="#63b8ff" d="M352.56,-219.02C330.36,-209.12 301.5,-196.24 281.85,-187.47"/>
<polygon fill="#63b8ff" stroke="#63b8ff" points="350.91,-222.12 361.47,-223 353.76,-215.73 350.91,-222.12"/>
</g>
<!-- Node7 -->
<g id="node7" class="node">
<title>Node7</title>
<g id="a_node7"><a xlink:href="TransmitterCode_2src_2main_8cpp.html#a6506bf72e0dd9e9ce480156b47625bff" target="_top" xlink:title=" ">
<polygon fill="white" stroke="#666666" points="164.5,-224 78.5,-224 78.5,-205 164.5,-205 164.5,-224"/>
<text text-anchor="middle" x="121.5" y="-212" font-family="Helvetica,sans-Serif" font-size="10.00">GetConfirmation</text>
</a>
</g>
</g>
<!-- Node6&#45;&gt;Node7 -->
<g id="edge6" class="edge">
<title>Node6&#45;&gt;Node7</title>
<path fill="none" stroke="#63b8ff" d="M196.6,-187.47C176.54,-192.79 155.7,-199.13 141.25,-204.52"/>
<polygon fill="#63b8ff" stroke="#63b8ff" points="197.34,-190.89 206.15,-185.01 195.59,-184.12 197.34,-190.89"/>
</g>
<!-- Node8 -->
<g id="node8" class="node">
<title>Node8</title>
<g id="a_node8"><a xlink:href="TransmitterCode_2src_2main_8cpp.html#a558ea014e230b7caa54ce5a37ad29b22" target="_top" xlink:title=" ">
<polygon fill="white" stroke="#666666" points="172,-187 71,-187 71,-168 172,-168 172,-187"/>
<text text-anchor="middle" x="121.5" y="-175" font-family="Helvetica,sans-Serif" font-size="10.00">ManageTransmitter</text>
</a>
</g>
</g>
<!-- Node6&#45;&gt;Node8 -->
<g id="edge8" class="edge">
<title>Node6&#45;&gt;Node8</title>
<path fill="none" stroke="#63b8ff" d="M196.32,-177.5C188.24,-177.5 180.04,-177.5 172.18,-177.5"/>
<polygon fill="#63b8ff" stroke="#63b8ff" points="196.1,-181 206.1,-177.5 196.1,-174 196.1,-181"/>
</g>
<!-- Node10 -->
<g id="node10" class="node">
<title>Node10</title>
<g id="a_node10"><a xlink:href="TransmitterCode_2src_2main_8cpp.html#ab7c9edf843c732d7fe296564f39bc0dc" target="_top" xlink:title="RECEIVE A MODEL FILE.">
<polygon fill="white" stroke="#666666" points="168.5,-150 74.5,-150 74.5,-131 168.5,-131 168.5,-150"/>
<text text-anchor="middle" x="121.5" y="-138" font-family="Helvetica,sans-Serif" font-size="10.00">ReceiveModelFile</text>
</a>
</g>
</g>
<!-- Node6&#45;&gt;Node10 -->
<g id="edge10" class="edge">
<title>Node6&#45;&gt;Node10</title>
<path fill="none" stroke="#63b8ff" d="M228.12,-163.76C210.76,-157.91 188.4,-151.53 168.72,-146.72"/>
<polygon fill="#63b8ff" stroke="#63b8ff" points="226.71,-166.98 237.3,-167.01 229.04,-160.38 226.71,-166.98"/>
</g>
<!-- Node7&#45;&gt;Node6 -->
<g id="edge7" class="edge">
<title>Node7&#45;&gt;Node6</title>
<path fill="none" stroke="#63b8ff" d="M176.01,-206.45C198.2,-200.79 222.49,-193.54 238.73,-187.49"/>
<polygon fill="#63b8ff" stroke="#63b8ff" points="175.33,-203.02 166.46,-208.81 177.01,-209.81 175.33,-203.02"/>
</g>
<!-- Node9 -->
<g id="node9" class="node">
<title>Node9</title>
<g id="a_node9"><a xlink:href="TransmitterCode_2src_2main_8cpp.html#ad3cb30894c94eb016e98bdcaa899ac86" target="_top" xlink:title=" ">
<polygon fill="white" stroke="#666666" points="35,-187 0,-187 0,-168 35,-168 35,-187"/>
<text text-anchor="middle" x="17.5" y="-175" font-family="Helvetica,sans-Serif" font-size="10.00">loop</text>
</a>
</g>
</g>
<!-- Node8&#45;&gt;Node9 -->
<g id="edge9" class="edge">
<title>Node8&#45;&gt;Node9</title>
<path fill="none" stroke="#63b8ff" d="M59.4,-177.5C50.6,-177.5 42.21,-177.5 35.35,-177.5"/>
<polygon fill="#63b8ff" stroke="#63b8ff" points="59.18,-181 69.18,-177.5 59.18,-174 59.18,-181"/>
</g>
<!-- Node10&#45;&gt;Node6 -->
<g id="edge11" class="edge">
<title>Node10&#45;&gt;Node6</title>
<path fill="none" stroke="#63b8ff" d="M151.75,-154.19C168.06,-159.7 188.82,-165.67 207.61,-170.37"/>
<polygon fill="#63b8ff" stroke="#63b8ff" points="153.27,-151.02 142.68,-150.99 150.94,-157.62 153.27,-151.02"/>
</g>
<!-- Node12&#45;&gt;Node4 -->
<g id="edge17" class="edge">
<title>Node12&#45;&gt;Node4</title>
<path fill="none" stroke="#63b8ff" d="M459.82,-135.12C445.13,-140.04 428.87,-145.48 415.45,-149.98"/>
<polygon fill="#63b8ff" stroke="#63b8ff" points="460.87,-138.46 469.24,-131.96 458.65,-131.82 460.87,-138.46"/>
</g>
<!-- Node12&#45;&gt;Node6 -->
<g id="edge14" class="edge">
<title>Node12&#45;&gt;Node6</title>
<path fill="none" stroke="#63b8ff" d="M452.75,-124.29C421.65,-126.92 380.42,-131.95 345,-141.5 321.36,-147.87 295.65,-159.37 278.66,-167.66"/>
<polygon fill="#63b8ff" stroke="#63b8ff" points="452.94,-127.78 462.63,-123.51 452.39,-120.8 452.94,-127.78"/>
</g>
<!-- Node12&#45;&gt;Node11 -->
<g id="edge20" class="edge">
<title>Node12&#45;&gt;Node11</title>
<path fill="none" stroke="#63b8ff" d="M481.17,-138.55C466.86,-150.65 446.53,-166.76 427,-178.5 421.52,-181.8 415.33,-184.87 409.48,-187.51"/>
<polygon fill="#63b8ff" stroke="#63b8ff" points="483.2,-141.42 488.49,-132.25 478.63,-136.12 483.2,-141.42"/>
</g>
<!-- Node13 -->
<g id="node13" class="node">
<title>Node13</title>
<g id="a_node13"><a xlink:href="TransmitterCode_2src_2main_8cpp.html#ad33b86f6d4eba7a21e57c1a5ba76281a" target="_top" xlink:title=" ">
<polygon fill="white" stroke="#666666" points="427,-19 345,-19 345,0 427,0 427,-19"/>
<text text-anchor="middle" x="386" y="-7" font-family="Helvetica,sans-Serif" font-size="10.00">DeleteLogFile1</text>
</a>
</g>
</g>
<!-- Node12&#45;&gt;Node13 -->
<g id="edge15" class="edge">
<title>Node12&#45;&gt;Node13</title>
<path fill="none" stroke="#63b8ff" d="M489.29,-102.06C476.48,-81.29 453.79,-48.51 427,-27.5 423.04,-24.4 418.47,-21.7 413.86,-19.4"/>
<polygon fill="#63b8ff" stroke="#63b8ff" points="486.14,-103.62 494.28,-110.41 492.15,-100.03 486.14,-103.62"/>
</g>
<!-- Node15 -->
<g id="node15" class="node">
<title>Node15</title>
<g id="a_node15"><a xlink:href="TransmitterCode_2src_2main_8cpp.html#a6e27b8b3c5b752c6a208a768de54c277" target="_top" xlink:title=" ">
<polygon fill="white" stroke="#666666" points="415,-93 357,-93 357,-74 415,-74 415,-93"/>
<text text-anchor="middle" x="386" y="-81" font-family="Helvetica,sans-Serif" font-size="10.00">LogVIEW</text>
</a>
</g>
</g>
<!-- Node12&#45;&gt;Node15 -->
<g id="edge18" class="edge">
<title>Node12&#45;&gt;Node15</title>
<path fill="none" stroke="#63b8ff" d="M459.82,-107.88C445.13,-102.96 428.87,-97.52 415.45,-93.02"/>
<polygon fill="#63b8ff" stroke="#63b8ff" points="458.65,-111.18 469.24,-111.04 460.87,-104.54 458.65,-111.18"/>
</g>
<!-- Node16 -->
<g id="node16" class="node">
<title>Node16</title>
<g id="a_node16"><a xlink:href="TransmitterCode_2src_2main_8cpp.html#a816b0ec602ed068bb08647d951681993" target="_top" xlink:title=" ">
<polygon fill="white" stroke="#666666" points="419.5,-56 352.5,-56 352.5,-37 419.5,-37 419.5,-56"/>
<text text-anchor="middle" x="386" y="-44" font-family="Helvetica,sans-Serif" font-size="10.00">RefreshLog</text>
</a>
</g>
</g>
<!-- Node12&#45;&gt;Node16 -->
<g id="edge19" class="edge">
<title>Node12&#45;&gt;Node16</title>
<path fill="none" stroke="#63b8ff" d="M480.55,-104.49C466.21,-92.72 446.1,-77.14 427,-65.5 421.62,-62.22 415.58,-59.09 409.86,-56.35"/>
<polygon fill="#63b8ff" stroke="#63b8ff" points="477.99,-106.91 487.91,-110.62 482.47,-101.53 477.99,-106.91"/>
</g>
<!-- Node14 -->
<g id="node14" class="node">
<title>Node14</title>
<g id="a_node14"><a xlink:href="TransmitterCode_2src_2main_8cpp.html#a53d438145d004c3b053f245f494f4284" target="_top" xlink:title=" ">
<polygon fill="white" stroke="#666666" points="284.5,-19 232.5,-19 232.5,0 284.5,0 284.5,-19"/>
<text text-anchor="middle" x="258.5" y="-7" font-family="Helvetica,sans-Serif" font-size="10.00">DelLOG</text>
</a>
</g>
</g>
<!-- Node13&#45;&gt;Node14 -->
<g id="edge16" class="edge">
<title>Node13&#45;&gt;Node14</title>
<path fill="none" stroke="#63b8ff" d="M333.26,-9.5C316.55,-9.5 298.76,-9.5 284.84,-9.5"/>
<polygon fill="#63b8ff" stroke="#63b8ff" points="333.09,-13 343.09,-9.5 333.09,-6 333.09,-13"/>
</g>
</g>
</svg>
