<?xml version="1.0" encoding="UTF-8" standalone="no"?>
<!DOCTYPE svg PUBLIC "-//W3C//DTD SVG 1.1//EN"
 "http://www.w3.org/Graphics/SVG/1.1/DTD/svg11.dtd">
<!-- Generated by graphviz version 7.0.5 (20221223.1930)
 -->
<!-- Title: ShowFileErrorMsg Pages: 1 -->
<svg width="836pt" height="286pt"
 viewBox="0.00 0.00 836.00 286.00" xmlns="http://www.w3.org/2000/svg" xmlns:xlink="http://www.w3.org/1999/xlink">
<g id="graph0" class="graph" transform="scale(1 1) rotate(0) translate(4 282)">
<title>ShowFileErrorMsg</title>
<!-- Node1 -->
<g id="node1" class="node">
<title>Node1</title>
<g id="a_node1"><a xlink:title=" ">
<polygon fill="#999999" stroke="#666666" points="828,-186 732,-186 732,-167 828,-167 828,-186"/>
<text text-anchor="middle" x="780" y="-174" font-family="Helvetica,sans-Serif" font-size="10.00">ShowFileErrorMsg</text>
</a>
</g>
</g>
<!-- Node2 -->
<g id="node2" class="node">
<title>Node2</title>
<g id="a_node2"><a xlink:href="TransmitterCode_2src_2main_8cpp.html#a804fdbdd5eab4c596bbe8a23eecbe4d5" target="_top" xlink:title=" ">
<polygon fill="white" stroke="#666666" points="588,-167 487,-167 487,-148 588,-148 588,-167"/>
<text text-anchor="middle" x="537.5" y="-155" font-family="Helvetica,sans-Serif" font-size="10.00">ButtonWasPressed</text>
</a>
</g>
</g>
<!-- Node1&#45;&gt;Node2 -->
<g id="edge1" class="edge">
<title>Node1&#45;&gt;Node2</title>
<path fill="none" stroke="#63b8ff" d="M720.44,-171.87C679.9,-168.67 626.54,-164.46 588.1,-161.42"/>
<polygon fill="#63b8ff" stroke="#63b8ff" points="720.02,-175.35 730.26,-172.65 720.57,-168.37 720.02,-175.35"/>
</g>
<!-- Node15 -->
<g id="node15" class="node">
<title>Node15</title>
<g id="a_node15"><a xlink:href="TransmitterCode_2src_2main_8cpp.html#a587550ef1abb518e4562576aa2b7bbd7" target="_top" xlink:title=" ">
<polygon fill="white" stroke="#666666" points="696,-205 624,-205 624,-186 696,-186 696,-205"/>
<text text-anchor="middle" x="660" y="-193" font-family="Helvetica,sans-Serif" font-size="10.00">WriteBackup</text>
</a>
</g>
</g>
<!-- Node1&#45;&gt;Node15 -->
<g id="edge18" class="edge">
<title>Node1&#45;&gt;Node15</title>
<path fill="none" stroke="#63b8ff" d="M720.49,-185.92C712.24,-187.25 703.97,-188.58 696.33,-189.81"/>
<polygon fill="#63b8ff" stroke="#63b8ff" points="720.87,-189.4 730.19,-184.36 719.76,-182.49 720.87,-189.4"/>
</g>
<!-- Node3 -->
<g id="node3" class="node">
<title>Node3</title>
<g id="a_node3"><a xlink:href="TransmitterCode_2src_2main_8cpp.html#afb7c85cac4aa89fd998ed81c330374d2" target="_top" xlink:title=" ">
<polygon fill="white" stroke="#666666" points="451,-129 305,-129 305,-110 451,-110 451,-129"/>
<text text-anchor="middle" x="378" y="-117" font-family="Helvetica,sans-Serif" font-size="10.00">CheckForNextionButtonPress</text>
</a>
</g>
</g>
<!-- Node2&#45;&gt;Node3 -->
<g id="edge2" class="edge">
<title>Node2&#45;&gt;Node3</title>
<path fill="none" stroke="#63b8ff" d="M483.94,-144.82C463.25,-139.83 439.83,-134.18 420.38,-129.48"/>
<polygon fill="#63b8ff" stroke="#63b8ff" points="483.11,-148.22 493.65,-147.16 484.75,-141.41 483.11,-148.22"/>
</g>
<!-- Node10 -->
<g id="node10" class="node">
<title>Node10</title>
<g id="a_node10"><a xlink:href="TransmitterCode_2src_2main_8cpp.html#ab7c9edf843c732d7fe296564f39bc0dc" target="_top" xlink:title="RECEIVE A MODEL FILE.">
<polygon fill="white" stroke="#666666" points="111,-56 17,-56 17,-37 111,-37 111,-56"/>
<text text-anchor="middle" x="64" y="-44" font-family="Helvetica,sans-Serif" font-size="10.00">ReceiveModelFile</text>
</a>
</g>
</g>
<!-- Node2&#45;&gt;Node10 -->
<g id="edge17" class="edge">
<title>Node2&#45;&gt;Node10</title>
<path fill="none" stroke="#63b8ff" d="M516.57,-140.4C500.11,-127.26 475.53,-109.83 451,-100.5 334.31,-56.11 185.33,-47.66 111.21,-46.4"/>
<polygon fill="#63b8ff" stroke="#63b8ff" points="514.15,-142.94 524.1,-146.59 518.59,-137.54 514.15,-142.94"/>
</g>
<!-- Node4 -->
<g id="node4" class="node">
<title>Node4</title>
<g id="a_node4"><a xlink:href="TransmitterCode_2src_2main_8cpp.html#a641d6dab68ec7b2a8a32492aac55bc1c" target="_top" xlink:title=" ">
<polygon fill="white" stroke="#666666" points="269,-205 164,-205 164,-186 269,-186 269,-205"/>
<text text-anchor="middle" x="216.5" y="-193" font-family="Helvetica,sans-Serif" font-size="10.00">GetBackupFilename</text>
</a>
</g>
</g>
<!-- Node3&#45;&gt;Node4 -->
<g id="edge3" class="edge">
<title>Node3&#45;&gt;Node4</title>
<path fill="none" stroke="#63b8ff" d="M350.39,-134.81C328.83,-146.91 297.45,-163.81 269,-176.5 261.86,-179.68 254.01,-182.78 246.64,-185.51"/>
<polygon fill="#63b8ff" stroke="#63b8ff" points="351.84,-138.01 358.82,-130.04 348.39,-131.92 351.84,-138.01"/>
</g>
<!-- Node6 -->
<g id="node6" class="node">
<title>Node6</title>
<g id="a_node6"><a xlink:href="TransmitterCode_2src_2main_8cpp.html#a6506bf72e0dd9e9ce480156b47625bff" target="_top" xlink:title=" ">
<polygon fill="white" stroke="#666666" points="259.5,-167 173.5,-167 173.5,-148 259.5,-148 259.5,-167"/>
<text text-anchor="middle" x="216.5" y="-155" font-family="Helvetica,sans-Serif" font-size="10.00">GetConfirmation</text>
</a>
</g>
</g>
<!-- Node3&#45;&gt;Node6 -->
<g id="edge6" class="edge">
<title>Node3&#45;&gt;Node6</title>
<path fill="none" stroke="#63b8ff" d="M324.07,-132.11C303.04,-137.12 279.2,-142.8 259.4,-147.52"/>
<polygon fill="#63b8ff" stroke="#63b8ff" points="324.7,-135.56 333.62,-129.83 323.08,-128.75 324.7,-135.56"/>
</g>
<!-- Node13 -->
<g id="node13" class="node">
<title>Node13</title>
<g id="a_node13"><a xlink:href="TransmitterCode_2src_2main_8cpp.html#a558ea014e230b7caa54ce5a37ad29b22" target="_top" xlink:title=" ">
<polygon fill="white" stroke="#666666" points="267,-120 166,-120 166,-101 267,-101 267,-120"/>
<text text-anchor="middle" x="216.5" y="-108" font-family="Helvetica,sans-Serif" font-size="10.00">ManageTransmitter</text>
</a>
</g>
</g>
<!-- Node3&#45;&gt;Node13 -->
<g id="edge15" class="edge">
<title>Node3&#45;&gt;Node13</title>
<path fill="none" stroke="#63b8ff" d="M293.38,-114.78C284.43,-114.28 275.54,-113.78 267.17,-113.3"/>
<polygon fill="#63b8ff" stroke="#63b8ff" points="293.02,-118.27 303.21,-115.34 293.42,-111.28 293.02,-118.27"/>
</g>
<!-- Node4&#45;&gt;Node2 -->
<g id="edge4" class="edge">
<title>Node4&#45;&gt;Node2</title>
<path fill="none" stroke="#63b8ff" d="M280.32,-190.07C327.39,-185.75 393.34,-179.18 451,-171.5 462.63,-169.95 475.11,-168.05 486.84,-166.15"/>
<polygon fill="#63b8ff" stroke="#63b8ff" points="280.23,-186.56 270.59,-190.96 280.86,-193.54 280.23,-186.56"/>
</g>
<!-- Node5 -->
<g id="node5" class="node">
<title>Node5</title>
<g id="a_node5"><a xlink:href="TransmitterCode_2src_2main_8cpp.html#a9d94366336f1e5fd43edb9c24bec5821" target="_top" xlink:title=" ">
<polygon fill="white" stroke="#666666" points="98,-278 30,-278 30,-259 98,-259 98,-278"/>
<text text-anchor="middle" x="64" y="-266" font-family="Helvetica,sans-Serif" font-size="10.00">RenameFile</text>
</a>
</g>
</g>
<!-- Node4&#45;&gt;Node5 -->
<g id="edge5" class="edge">
<title>Node4&#45;&gt;Node5</title>
<path fill="none" stroke="#63b8ff" d="M193.38,-211.88C176.26,-223.93 151.56,-239.99 128,-250.5 118.65,-254.67 108.09,-258.14 98.32,-260.87"/>
<polygon fill="#63b8ff" stroke="#63b8ff" points="195.21,-214.87 201.29,-206.2 191.13,-209.19 195.21,-214.87"/>
</g>
<!-- Node6&#45;&gt;Node2 -->
<g id="edge7" class="edge">
<title>Node6&#45;&gt;Node2</title>
<path fill="none" stroke="#63b8ff" d="M271.01,-157.5C331.16,-157.5 428.05,-157.5 486.66,-157.5"/>
<polygon fill="#63b8ff" stroke="#63b8ff" points="271.37,-154 261.37,-157.5 271.37,-161 271.37,-154"/>
</g>
<!-- Node6&#45;&gt;Node5 -->
<g id="edge12" class="edge">
<title>Node6&#45;&gt;Node5</title>
<path fill="none" stroke="#63b8ff" d="M169.94,-172.84C167.84,-174.27 165.84,-175.82 164,-177.5 137.32,-201.93 155.77,-227.32 128,-250.5 119.62,-257.5 108.66,-261.78 98.24,-264.4"/>
<polygon fill="#63b8ff" stroke="#63b8ff" points="171.36,-176.06 178.37,-168.12 167.93,-169.96 171.36,-176.06"/>
</g>
<!-- Node7 -->
<g id="node7" class="node">
<title>Node7</title>
<g id="a_node7"><a xlink:href="TransmitterCode_2src_2main_8cpp.html#a16c65917a148c7f6c17babf11e977b69" target="_top" xlink:title=" ">
<polygon fill="white" stroke="#666666" points="105,-130 23,-130 23,-111 105,-111 105,-130"/>
<text text-anchor="middle" x="64" y="-118" font-family="Helvetica,sans-Serif" font-size="10.00">EndBuddyView</text>
</a>
</g>
</g>
<!-- Node6&#45;&gt;Node7 -->
<g id="edge8" class="edge">
<title>Node6&#45;&gt;Node7</title>
<path fill="none" stroke="#63b8ff" d="M164.19,-144.88C145,-140.17 123.51,-134.88 105.44,-130.44"/>
<polygon fill="#63b8ff" stroke="#63b8ff" points="163.15,-148.23 173.7,-147.22 164.82,-141.44 163.15,-148.23"/>
</g>
<!-- Node8 -->
<g id="node8" class="node">
<title>Node8</title>
<g id="a_node8"><a xlink:href="TransmitterCode_2src_2main_8cpp.html#a339dccdc324b75d00fd035fb3fb129fd" target="_top" xlink:title=" ">
<polygon fill="white" stroke="#666666" points="105.5,-93 22.5,-93 22.5,-74 105.5,-74 105.5,-93"/>
<text text-anchor="middle" x="64" y="-81" font-family="Helvetica,sans-Serif" font-size="10.00">ModelUnmatch</text>
</a>
</g>
</g>
<!-- Node6&#45;&gt;Node8 -->
<g id="edge9" class="edge">
<title>Node6&#45;&gt;Node8</title>
<path fill="none" stroke="#63b8ff" d="M186.74,-142.18C179.22,-137.94 171.21,-133.2 164,-128.5 147.25,-117.57 145.91,-110.4 128,-101.5 121.07,-98.06 113.38,-95.18 105.82,-92.8"/>
<polygon fill="#63b8ff" stroke="#63b8ff" points="184.79,-145.1 195.23,-146.87 188.17,-138.97 184.79,-145.1"/>
</g>
<!-- Node9 -->
<g id="node9" class="node">
<title>Node9</title>
<g id="a_node9"><a xlink:href="TransmitterCode_2src_2main_8cpp.html#ae9f91b9da28f2e1e2fb126961f03c31c" target="_top" xlink:title=" ">
<polygon fill="white" stroke="#666666" points="104.5,-241 23.5,-241 23.5,-222 104.5,-222 104.5,-241"/>
<text text-anchor="middle" x="64" y="-229" font-family="Helvetica,sans-Serif" font-size="10.00">ModelViewEnd</text>
</a>
</g>
</g>
<!-- Node6&#45;&gt;Node9 -->
<g id="edge10" class="edge">
<title>Node6&#45;&gt;Node9</title>
<path fill="none" stroke="#63b8ff" d="M173.26,-172.2C170.05,-173.83 166.92,-175.6 164,-177.5 145.05,-189.86 147.5,-202.03 128,-213.5 120.94,-217.65 112.87,-220.89 104.91,-223.41"/>
<polygon fill="#63b8ff" stroke="#63b8ff" points="174.67,-175.41 182.33,-168.09 171.78,-169.03 174.67,-175.41"/>
</g>
<!-- Node6&#45;&gt;Node10 -->
<g id="edge11" class="edge">
<title>Node6&#45;&gt;Node10</title>
<path fill="none" stroke="#63b8ff" d="M181.9,-142.11C175.5,-138.25 169.19,-133.69 164,-128.5 140.93,-105.42 153.61,-84.72 128,-64.5 123.09,-60.62 117.38,-57.58 111.44,-55.19"/>
<polygon fill="#63b8ff" stroke="#63b8ff" points="180.11,-145.12 190.55,-146.89 183.49,-138.99 180.11,-145.12"/>
</g>
<!-- Node11 -->
<g id="node11" class="node">
<title>Node11</title>
<g id="a_node11"><a xlink:href="TransmitterCode_2src_2main_8cpp.html#a5c7f22bae35d5d6df9d54fe79dbb8401" target="_top" xlink:title=" ">
<polygon fill="white" stroke="#666666" points="128,-204 0,-204 0,-185 128,-185 128,-204"/>
<text text-anchor="middle" x="64" y="-192" font-family="Helvetica,sans-Serif" font-size="10.00">ResetTransmitterSettings</text>
</a>
</g>
</g>
<!-- Node6&#45;&gt;Node11 -->
<g id="edge13" class="edge">
<title>Node6&#45;&gt;Node11</title>
<path fill="none" stroke="#63b8ff" d="M164.19,-170.12C145,-174.83 123.51,-180.12 105.44,-184.56"/>
<polygon fill="#63b8ff" stroke="#63b8ff" points="164.82,-173.56 173.7,-167.78 163.15,-166.77 164.82,-173.56"/>
</g>
<!-- Node12 -->
<g id="node12" class="node">
<title>Node12</title>
<g id="a_node12"><a xlink:href="TransmitterCode_2src_2main_8cpp.html#a3c55ef7c23759a89a86f6519569c4f7a" target="_top" xlink:title=" ">
<polygon fill="white" stroke="#666666" points="113.5,-167 14.5,-167 14.5,-148 113.5,-148 113.5,-167"/>
<text text-anchor="middle" x="64" y="-155" font-family="Helvetica,sans-Serif" font-size="10.00">TXModuleViewEnd</text>
</a>
</g>
</g>
<!-- Node6&#45;&gt;Node12 -->
<g id="edge14" class="edge">
<title>Node6&#45;&gt;Node12</title>
<path fill="none" stroke="#63b8ff" d="M162.05,-157.5C146.36,-157.5 129.3,-157.5 113.91,-157.5"/>
<polygon fill="#63b8ff" stroke="#63b8ff" points="161.66,-161 171.66,-157.5 161.66,-154 161.66,-161"/>
</g>
<!-- Node14 -->
<g id="node14" class="node">
<title>Node14</title>
<g id="a_node14"><a xlink:href="TransmitterCode_2src_2main_8cpp.html#ad3cb30894c94eb016e98bdcaa899ac86" target="_top" xlink:title=" ">
<polygon fill="white" stroke="#666666" points="81.5,-19 46.5,-19 46.5,0 81.5,0 81.5,-19"/>
<text text-anchor="middle" x="64" y="-7" font-family="Helvetica,sans-Serif" font-size="10.00">loop</text>
</a>
</g>
</g>
<!-- Node13&#45;&gt;Node14 -->
<g id="edge16" class="edge">
<title>Node13&#45;&gt;Node14</title>
<path fill="none" stroke="#63b8ff" d="M200.63,-91.88C184.61,-73.01 157.42,-44.29 128,-27.5 113.58,-19.27 95.11,-14.57 81.91,-12.05"/>
<polygon fill="#63b8ff" stroke="#63b8ff" points="197.91,-94.08 206.98,-99.56 203.3,-89.62 197.91,-94.08"/>
</g>
<!-- Node15&#45;&gt;Node2 -->
<g id="edge19" class="edge">
<title>Node15&#45;&gt;Node2</title>
<path fill="none" stroke="#63b8ff" d="M616.54,-182.11C601.2,-177.27 584.17,-171.9 569.95,-167.42"/>
<polygon fill="#63b8ff" stroke="#63b8ff" points="615.31,-185.39 625.9,-185.06 617.41,-178.72 615.31,-185.39"/>
</g>
<!-- Node15&#45;&gt;Node5 -->
<g id="edge20" class="edge">
<title>Node15&#45;&gt;Node5</title>
<path fill="none" stroke="#63b8ff" d="M612.36,-201.23C496.63,-215.45 198.46,-252.1 98.35,-264.4"/>
<polygon fill="#63b8ff" stroke="#63b8ff" points="612.62,-204.73 622.12,-200.03 611.77,-197.78 612.62,-204.73"/>
</g>
</g>
</svg>
