<?xml version="1.0" encoding="UTF-8" standalone="no"?>
<!DOCTYPE svg PUBLIC "-//W3C//DTD SVG 1.1//EN"
 "http://www.w3.org/Graphics/SVG/1.1/DTD/svg11.dtd">
<!-- Generated by graphviz version 7.0.5 (20221223.1930)
 -->
<!-- Title: ReadNewSwitchFunction Pages: 1 -->
<svg width="1075pt" height="397pt"
 viewBox="0.00 0.00 1075.00 396.77" xmlns="http://www.w3.org/2000/svg" xmlns:xlink="http://www.w3.org/1999/xlink">
<g id="graph0" class="graph" transform="scale(1 1) rotate(0) translate(4 392.77)">
<title>ReadNewSwitchFunction</title>
<!-- Node1 -->
<g id="node1" class="node">
<title>Node1</title>
<g id="a_node1"><a xlink:title=" ">
<polygon fill="#999999" stroke="#666666" points="127,-161.77 0,-161.77 0,-142.77 127,-142.77 127,-161.77"/>
<text text-anchor="middle" x="63.5" y="-149.77" font-family="Helvetica,sans-Serif" font-size="10.00">ReadNewSwitchFunction</text>
</a>
</g>
</g>
<!-- Node2 -->
<g id="node2" class="node">
<title>Node2</title>
<g id="a_node2"><a xlink:href="Utilities_8h.html#af0852678d8e89501acee8951f09d3b43" target="_top" xlink:title=" ">
<polygon fill="white" stroke="#666666" points="247,-388.77 189,-388.77 189,-369.77 247,-369.77 247,-388.77"/>
<text text-anchor="middle" x="218" y="-376.77" font-family="Helvetica,sans-Serif" font-size="10.00">ClearText</text>
</a>
</g>
</g>
<!-- Node1&#45;&gt;Node2 -->
<g id="edge1" class="edge">
<title>Node1&#45;&gt;Node2</title>
<path fill="none" stroke="#63b8ff" d="M66.72,-162.17C74.4,-194.3 102.74,-297 163,-355.27 167.47,-359.6 172.85,-363.22 178.46,-366.23"/>
<polygon fill="#63b8ff" stroke="#63b8ff" points="176.75,-369.29 187.29,-370.36 179.72,-362.95 176.75,-369.29"/>
</g>
<!-- Node3 -->
<g id="node3" class="node">
<title>Node3</title>
<g id="a_node3"><a xlink:href="Nextion_8h.html#a6e4fac4e296c09388b8b56353402d67a" target="_top" xlink:title=" ">
<polygon fill="white" stroke="#666666" points="550.5,-350.77 493.5,-350.77 493.5,-331.77 550.5,-331.77 550.5,-350.77"/>
<text text-anchor="middle" x="522" y="-338.77" font-family="Helvetica,sans-Serif" font-size="10.00">GetValue</text>
</a>
</g>
</g>
<!-- Node1&#45;&gt;Node3 -->
<g id="edge2" class="edge">
<title>Node1&#45;&gt;Node3</title>
<path fill="none" stroke="#63b8ff" d="M74.07,-162C104.78,-192.49 204.93,-286.26 309,-322.27 366.62,-342.21 438.02,-344.34 481.51,-343.33"/>
<polygon fill="#63b8ff" stroke="#63b8ff" points="481.61,-346.83 491.49,-343.03 481.39,-339.84 481.61,-346.83"/>
</g>
<!-- Node9 -->
<g id="node9" class="node">
<title>Node9</title>
<g id="a_node9"><a xlink:href="SDcard_8h.html#ab5210e90502030d9f8864752dd70dc20" target="_top" xlink:title=" ">
<polygon fill="white" stroke="#666666" points="259.5,-217.77 176.5,-217.77 176.5,-198.77 259.5,-198.77 259.5,-217.77"/>
<text text-anchor="middle" x="218" y="-205.77" font-family="Helvetica,sans-Serif" font-size="10.00">SaveOneModel</text>
</a>
</g>
</g>
<!-- Node1&#45;&gt;Node9 -->
<g id="edge9" class="edge">
<title>Node1&#45;&gt;Node9</title>
<path fill="none" stroke="#63b8ff" d="M91.41,-162.15C115.76,-171.1 151.88,-184.36 179.13,-194.37"/>
<polygon fill="#63b8ff" stroke="#63b8ff" points="177.83,-197.62 188.42,-197.78 180.24,-191.05 177.83,-197.62"/>
</g>
<!-- Node18 -->
<g id="node18" class="node">
<title>Node18</title>
<g id="a_node18"><a xlink:href="Nextion_8h.html#aecac2f0c289f02ef3c92b85be82eacac" target="_top" xlink:title=" ">
<polygon fill="white" stroke="#666666" points="842,-123.77 759,-123.77 759,-104.77 842,-104.77 842,-123.77"/>
<text text-anchor="middle" x="800.5" y="-111.77" font-family="Helvetica,sans-Serif" font-size="10.00">SendCommand</text>
</a>
</g>
</g>
<!-- Node1&#45;&gt;Node18 -->
<g id="edge24" class="edge">
<title>Node1&#45;&gt;Node18</title>
<path fill="none" stroke="#63b8ff" d="M111.88,-142.29C169.52,-131.03 269.95,-114.27 357,-114.27 357,-114.27 357,-114.27 523,-114.27 601.2,-114.27 691.85,-114.27 747.43,-114.27"/>
<polygon fill="#63b8ff" stroke="#63b8ff" points="747.23,-117.77 757.23,-114.27 747.23,-110.77 747.23,-117.77"/>
</g>
<!-- Node21 -->
<g id="node21" class="node">
<title>Node21</title>
<g id="a_node21"><a xlink:href="Nextion_8h.html#a1e20efc1e419b252b50d36f9924503fc" target="_top" xlink:title=" ">
<polygon fill="white" stroke="#666666" points="712,-28.77 648,-28.77 648,-9.77 712,-9.77 712,-28.77"/>
<text text-anchor="middle" x="680" y="-16.77" font-family="Helvetica,sans-Serif" font-size="10.00">SendValue</text>
</a>
</g>
</g>
<!-- Node1&#45;&gt;Node21 -->
<g id="edge28" class="edge">
<title>Node1&#45;&gt;Node21</title>
<path fill="none" stroke="#63b8ff" d="M71.29,-142.41C85.62,-122.48 121.09,-77.57 163,-57.27 323.12,20.29 544.36,0.58 636.29,-12.31"/>
<polygon fill="#63b8ff" stroke="#63b8ff" points="635.72,-15.77 646.11,-13.74 636.72,-8.84 635.72,-15.77"/>
</g>
<!-- Node23 -->
<g id="node23" class="node">
<title>Node23</title>
<g id="a_node23"><a xlink:href="TransmitterCode_2src_2main_8cpp.html#ad2376976bcbc43d81e55e5b58ce2818d" target="_top" xlink:title=" ">
<polygon fill="white" stroke="#666666" points="273,-85.77 163,-85.77 163,-66.77 273,-66.77 273,-85.77"/>
<text text-anchor="middle" x="218" y="-73.77" font-family="Helvetica,sans-Serif" font-size="10.00">UpdateSwitchesView</text>
</a>
</g>
</g>
<!-- Node1&#45;&gt;Node23 -->
<g id="edge32" class="edge">
<title>Node1&#45;&gt;Node23</title>
<path fill="none" stroke="#63b8ff" d="M82.47,-142.32C102.07,-131.57 134.47,-114.12 163,-100.27 169.54,-97.1 176.6,-93.84 183.39,-90.79"/>
<polygon fill="#63b8ff" stroke="#63b8ff" points="184.61,-94.08 192.33,-86.82 181.77,-87.68 184.61,-94.08"/>
</g>
<!-- Node4 -->
<g id="node4" class="node">
<title>Node4</title>
<g id="a_node4"><a xlink:href="Utilities_8h.html#a3b1d8aa403e2724e55c71da3d9d13e7e" target="_top" xlink:title=" ">
<polygon fill="white" stroke="#666666" points="958,-293.77 881,-293.77 881,-274.77 958,-274.77 958,-293.77"/>
<text text-anchor="middle" x="919.5" y="-281.77" font-family="Helvetica,sans-Serif" font-size="10.00">DelayWithDog</text>
</a>
</g>
</g>
<!-- Node3&#45;&gt;Node4 -->
<g id="edge3" class="edge">
<title>Node3&#45;&gt;Node4</title>
<path fill="none" stroke="#63b8ff" d="M550.62,-336.76C573.69,-333.03 607.47,-327.65 637,-323.27 718.33,-311.22 813.06,-298.33 869.28,-290.8"/>
<polygon fill="#63b8ff" stroke="#63b8ff" points="869.73,-294.28 879.18,-289.48 868.8,-287.34 869.73,-294.28"/>
</g>
<!-- Node6 -->
<g id="node6" class="node">
<title>Node6</title>
<g id="a_node6"><a xlink:href="Nextion_8h.html#aff6fa8906188d3249b01bf59de47df2f" target="_top" xlink:title=" ">
<polygon fill="white" stroke="#666666" points="706.5,-350.77 653.5,-350.77 653.5,-331.77 706.5,-331.77 706.5,-350.77"/>
<text text-anchor="middle" x="680" y="-338.77" font-family="Helvetica,sans-Serif" font-size="10.00">getvalue</text>
</a>
</g>
</g>
<!-- Node3&#45;&gt;Node6 -->
<g id="edge5" class="edge">
<title>Node3&#45;&gt;Node6</title>
<path fill="none" stroke="#63b8ff" d="M550.89,-341.27C576.27,-341.27 613.93,-341.27 641.86,-341.27"/>
<polygon fill="#63b8ff" stroke="#63b8ff" points="641.65,-344.77 651.65,-341.27 641.65,-337.77 641.65,-344.77"/>
</g>
<!-- Node5 -->
<g id="node5" class="node">
<title>Node5</title>
<g id="a_node5"><a xlink:href="Utilities_8h.html#ada95a00a341e4a80176eda743a94ab2e" target="_top" xlink:title=" ">
<polygon fill="white" stroke="#666666" points="1067,-293.77 997,-293.77 997,-274.77 1067,-274.77 1067,-293.77"/>
<text text-anchor="middle" x="1032" y="-281.77" font-family="Helvetica,sans-Serif" font-size="10.00">KickTheDog</text>
</a>
</g>
</g>
<!-- Node4&#45;&gt;Node5 -->
<g id="edge4" class="edge">
<title>Node4&#45;&gt;Node5</title>
<path fill="none" stroke="#63b8ff" d="M958.22,-284.27C967.01,-284.27 976.46,-284.27 985.55,-284.27"/>
<polygon fill="#63b8ff" stroke="#63b8ff" points="985.28,-287.77 995.28,-284.27 985.28,-280.77 985.28,-287.77"/>
</g>
<!-- Node7 -->
<g id="node7" class="node">
<title>Node7</title>
<g id="a_node7"><a xlink:href="Nextion_8h.html#ad7b8aa834c87265667a5687b1787a1cc" target="_top" xlink:title=" ">
<polygon fill="white" stroke="#666666" points="828.5,-387.77 772.5,-387.77 772.5,-368.77 828.5,-368.77 828.5,-387.77"/>
<text text-anchor="middle" x="800.5" y="-375.77" font-family="Helvetica,sans-Serif" font-size="10.00">EndSend</text>
</a>
</g>
</g>
<!-- Node6&#45;&gt;Node7 -->
<g id="edge6" class="edge">
<title>Node6&#45;&gt;Node7</title>
<path fill="none" stroke="#63b8ff" d="M706.71,-349.3C722.65,-354.28 743.4,-360.76 761.25,-366.33"/>
<polygon fill="#63b8ff" stroke="#63b8ff" points="760.15,-369.65 770.74,-369.29 762.24,-362.97 760.15,-369.65"/>
</g>
<!-- Node8 -->
<g id="node8" class="node">
<title>Node8</title>
<g id="a_node8"><a xlink:href="Nextion_8h.html#a6fe457db5d6bc71ccb447dee824abf6a" target="_top" xlink:title=" ">
<polygon fill="white" stroke="#666666" points="830,-350.77 771,-350.77 771,-331.77 830,-331.77 830,-350.77"/>
<text text-anchor="middle" x="800.5" y="-338.77" font-family="Helvetica,sans-Serif" font-size="10.00">GetTextIn</text>
</a>
</g>
</g>
<!-- Node6&#45;&gt;Node8 -->
<g id="edge8" class="edge">
<title>Node6&#45;&gt;Node8</title>
<path fill="none" stroke="#63b8ff" d="M706.71,-341.27C722.12,-341.27 742.05,-341.27 759.48,-341.27"/>
<polygon fill="#63b8ff" stroke="#63b8ff" points="758.99,-344.77 768.99,-341.27 758.99,-337.77 758.99,-344.77"/>
</g>
<!-- Node7&#45;&gt;Node4 -->
<g id="edge7" class="edge">
<title>Node7&#45;&gt;Node4</title>
<path fill="none" stroke="#63b8ff" d="M827.53,-368.39C832.51,-366.04 837.56,-363.31 842,-360.27 866.25,-343.68 889.51,-318.87 903.89,-302.15"/>
<polygon fill="#63b8ff" stroke="#63b8ff" points="906.18,-304.87 909.94,-294.96 900.83,-300.36 906.18,-304.87"/>
</g>
<!-- Node10 -->
<g id="node10" class="node">
<title>Node10</title>
<g id="a_node10"><a xlink:href="SDcard_8h.html#a6922974b734cfe3a511e074a2d6ac33c" target="_top" xlink:title=" ">
<polygon fill="white" stroke="#666666" points="402.5,-236.77 313.5,-236.77 313.5,-217.77 402.5,-217.77 402.5,-236.77"/>
<text text-anchor="middle" x="358" y="-224.77" font-family="Helvetica,sans-Serif" font-size="10.00">CloseModelsFile</text>
</a>
</g>
</g>
<!-- Node9&#45;&gt;Node10 -->
<g id="edge10" class="edge">
<title>Node9&#45;&gt;Node10</title>
<path fill="none" stroke="#63b8ff" d="M259.66,-213.87C272.96,-215.7 287.96,-217.77 302.13,-219.72"/>
<polygon fill="#63b8ff" stroke="#63b8ff" points="301.38,-223.15 311.77,-221.04 302.34,-216.21 301.38,-223.15"/>
</g>
<!-- Node11 -->
<g id="node11" class="node">
<title>Node11</title>
<g id="a_node11"><a xlink:href="SDcard_8h.html#ae7618f38a148877bc5681be58cba8354" target="_top" xlink:title=" ">
<polygon fill="white" stroke="#666666" points="401.5,-312.77 314.5,-312.77 314.5,-293.77 401.5,-293.77 401.5,-312.77"/>
<text text-anchor="middle" x="358" y="-300.77" font-family="Helvetica,sans-Serif" font-size="10.00">OpenModelsFile</text>
</a>
</g>
</g>
<!-- Node9&#45;&gt;Node11 -->
<g id="edge11" class="edge">
<title>Node9&#45;&gt;Node11</title>
<path fill="none" stroke="#63b8ff" d="M230.09,-218.25C246.55,-232.77 278.76,-260.07 309,-279.27 313.98,-282.44 319.44,-285.51 324.83,-288.33"/>
<polygon fill="#63b8ff" stroke="#63b8ff" points="323.12,-291.39 333.63,-292.75 326.26,-285.13 323.12,-291.39"/>
</g>
<!-- Node12 -->
<g id="node12" class="node">
<title>Node12</title>
<g id="a_node12"><a xlink:href="SDcard_8h.html#a9ec95181a743e446cdec2e0fbf569f2c" target="_top" xlink:title=" ">
<polygon fill="white" stroke="#666666" points="407,-199.77 309,-199.77 309,-180.77 407,-180.77 407,-199.77"/>
<text text-anchor="middle" x="358" y="-187.77" font-family="Helvetica,sans-Serif" font-size="10.00">SaveCheckSum32</text>
</a>
</g>
</g>
<!-- Node9&#45;&gt;Node12 -->
<g id="edge13" class="edge">
<title>Node9&#45;&gt;Node12</title>
<path fill="none" stroke="#63b8ff" d="M259.66,-202.97C271.59,-201.41 284.89,-199.68 297.72,-198"/>
<polygon fill="#63b8ff" stroke="#63b8ff" points="297.88,-201.51 307.34,-196.75 296.97,-194.57 297.88,-201.51"/>
</g>
<!-- Node16 -->
<g id="node16" class="node">
<title>Node16</title>
<g id="a_node16"><a xlink:href="SDcard_8h.html#a512ed84f4270bd62e922cd7dd82fd427" target="_top" xlink:title=" ">
<polygon fill="white" stroke="#666666" points="566.5,-236.77 477.5,-236.77 477.5,-217.77 566.5,-217.77 566.5,-236.77"/>
<text text-anchor="middle" x="522" y="-224.77" font-family="Helvetica,sans-Serif" font-size="10.00">SDUpdate8BITS</text>
</a>
</g>
</g>
<!-- Node9&#45;&gt;Node16 -->
<g id="edge23" class="edge">
<title>Node9&#45;&gt;Node16</title>
<path fill="none" stroke="#63b8ff" d="M236.59,-218.2C254.25,-227.56 282.57,-240.92 309,-246.27 364.02,-257.41 428.4,-248.64 471.66,-239.66"/>
<polygon fill="#63b8ff" stroke="#63b8ff" points="472.21,-243.12 481.24,-237.59 470.73,-236.28 472.21,-243.12"/>
</g>
<!-- Node17 -->
<g id="node17" class="node">
<title>Node17</title>
<g id="a_node17"><a xlink:href="SDcard_8h.html#a7bef1afdf8ed9f50caed67e53c144dfe" target="_top" xlink:title=" ">
<polygon fill="white" stroke="#666666" points="569.5,-162.77 474.5,-162.77 474.5,-143.77 569.5,-143.77 569.5,-162.77"/>
<text text-anchor="middle" x="522" y="-150.77" font-family="Helvetica,sans-Serif" font-size="10.00">SDUpdate16BITS</text>
</a>
</g>
</g>
<!-- Node9&#45;&gt;Node17 -->
<g id="edge20" class="edge">
<title>Node9&#45;&gt;Node17</title>
<path fill="none" stroke="#63b8ff" d="M238.82,-198.39C256.7,-189.95 283.96,-178.27 309,-172.27 360.03,-160.06 419.66,-155.55 462.66,-153.95"/>
<polygon fill="#63b8ff" stroke="#63b8ff" points="462.66,-157.46 472.54,-153.63 462.43,-150.46 462.66,-157.46"/>
</g>
<!-- Node11&#45;&gt;Node4 -->
<g id="edge12" class="edge">
<title>Node11&#45;&gt;Node4</title>
<path fill="none" stroke="#63b8ff" d="M401.97,-301.81C504.19,-298.34 761.3,-289.61 869.41,-285.94"/>
<polygon fill="#63b8ff" stroke="#63b8ff" points="869.23,-289.45 879.1,-285.61 868.99,-282.45 869.23,-289.45"/>
</g>
<!-- Node13 -->
<g id="node13" class="node">
<title>Node13</title>
<g id="a_node13"><a xlink:href="SDcard_8h.html#a82e989b70d0f68854ead6262993255cc" target="_top" xlink:title=" ">
<polygon fill="white" stroke="#666666" points="569.5,-199.77 474.5,-199.77 474.5,-180.77 569.5,-180.77 569.5,-199.77"/>
<text text-anchor="middle" x="522" y="-187.77" font-family="Helvetica,sans-Serif" font-size="10.00">SDUpdate32BITS</text>
</a>
</g>
</g>
<!-- Node12&#45;&gt;Node13 -->
<g id="edge14" class="edge">
<title>Node12&#45;&gt;Node13</title>
<path fill="none" stroke="#63b8ff" d="M407.17,-190.27C424.62,-190.27 444.51,-190.27 462.74,-190.27"/>
<polygon fill="#63b8ff" stroke="#63b8ff" points="462.62,-193.77 472.62,-190.27 462.62,-186.77 462.62,-193.77"/>
</g>
<!-- Node12&#45;&gt;Node16 -->
<g id="edge17" class="edge">
<title>Node12&#45;&gt;Node16</title>
<path fill="none" stroke="#63b8ff" d="M402.41,-200.19C422.12,-204.69 445.63,-210.06 466.51,-214.83"/>
<polygon fill="#63b8ff" stroke="#63b8ff" points="465.46,-218.18 475.99,-216.99 467.02,-211.35 465.46,-218.18"/>
</g>
<!-- Node14 -->
<g id="node14" class="node">
<title>Node14</title>
<g id="a_node14"><a xlink:href="SDcard_8h.html#addfb17077b6300576f07ef8c17f88581" target="_top" xlink:title=" ">
<polygon fill="white" stroke="#666666" points="723,-180.77 637,-180.77 637,-161.77 723,-161.77 723,-180.77"/>
<text text-anchor="middle" x="680" y="-168.77" font-family="Helvetica,sans-Serif" font-size="10.00">BuildCheckSum</text>
</a>
</g>
</g>
<!-- Node13&#45;&gt;Node14 -->
<g id="edge15" class="edge">
<title>Node13&#45;&gt;Node14</title>
<path fill="none" stroke="#63b8ff" d="M569.81,-184.57C587.34,-182.44 607.38,-179.99 625.48,-177.79"/>
<polygon fill="#63b8ff" stroke="#63b8ff" points="625.74,-181.29 635.24,-176.6 624.89,-174.34 625.74,-181.29"/>
</g>
<!-- Node15 -->
<g id="node15" class="node">
<title>Node15</title>
<g id="a_node15"><a xlink:href="SDcard_8h.html#aa5479d4f80459a9530b2e538f4048eb5" target="_top" xlink:title=" ">
<polygon fill="white" stroke="#666666" points="712,-217.77 648,-217.77 648,-198.77 712,-198.77 712,-217.77"/>
<text text-anchor="middle" x="680" y="-205.77" font-family="Helvetica,sans-Serif" font-size="10.00">ShortDelay</text>
</a>
</g>
</g>
<!-- Node13&#45;&gt;Node15 -->
<g id="edge16" class="edge">
<title>Node13&#45;&gt;Node15</title>
<path fill="none" stroke="#63b8ff" d="M569.81,-195.67C590.91,-198.11 615.66,-200.96 636.26,-203.34"/>
<polygon fill="#63b8ff" stroke="#63b8ff" points="635.7,-206.8 646.03,-204.47 636.5,-199.85 635.7,-206.8"/>
</g>
<!-- Node16&#45;&gt;Node14 -->
<g id="edge18" class="edge">
<title>Node16&#45;&gt;Node14</title>
<path fill="none" stroke="#63b8ff" d="M566.91,-219.23C578.19,-216.6 590.19,-213.29 601,-209.27 617.96,-202.96 620.75,-198.23 637,-190.27 640.06,-188.77 643.27,-187.25 646.49,-185.74"/>
<polygon fill="#63b8ff" stroke="#63b8ff" points="647.64,-189.06 655.27,-181.71 644.73,-182.7 647.64,-189.06"/>
</g>
<!-- Node16&#45;&gt;Node15 -->
<g id="edge19" class="edge">
<title>Node16&#45;&gt;Node15</title>
<path fill="none" stroke="#63b8ff" d="M566.87,-221.93C588.72,-219.27 615.01,-216.07 636.65,-213.43"/>
<polygon fill="#63b8ff" stroke="#63b8ff" points="636.8,-216.94 646.31,-212.25 635.96,-209.99 636.8,-216.94"/>
</g>
<!-- Node17&#45;&gt;Node14 -->
<g id="edge21" class="edge">
<title>Node17&#45;&gt;Node14</title>
<path fill="none" stroke="#63b8ff" d="M569.81,-158.67C587.34,-160.7 607.38,-163.01 625.48,-165.1"/>
<polygon fill="#63b8ff" stroke="#63b8ff" points="624.91,-168.55 635.24,-166.22 625.71,-161.6 624.91,-168.55"/>
</g>
<!-- Node17&#45;&gt;Node15 -->
<g id="edge22" class="edge">
<title>Node17&#45;&gt;Node15</title>
<path fill="none" stroke="#63b8ff" d="M569.71,-162.84C580.14,-165.47 591.05,-168.63 601,-172.27 617.8,-178.43 620.77,-182.75 637,-190.27 639.58,-191.47 642.26,-192.69 644.97,-193.89"/>
<polygon fill="#63b8ff" stroke="#63b8ff" points="643.39,-197.02 653.96,-197.82 646.2,-190.61 643.39,-197.02"/>
</g>
<!-- Node18&#45;&gt;Node4 -->
<g id="edge25" class="edge">
<title>Node18&#45;&gt;Node4</title>
<path fill="none" stroke="#63b8ff" d="M808.13,-123.9C826.86,-151.12 880.48,-229.02 905.43,-265.28"/>
<polygon fill="#63b8ff" stroke="#63b8ff" points="902.24,-266.83 910.8,-273.08 908.01,-262.86 902.24,-266.83"/>
</g>
<!-- Node19 -->
<g id="node19" class="node">
<title>Node19</title>
<g id="a_node19"><a xlink:href="Nextion_8h.html#a43937dd3d9c795271fd9c3eb3c6b6410" target="_top" xlink:title=" ">
<polygon fill="white" stroke="#666666" points="961,-85.77 878,-85.77 878,-66.77 961,-66.77 961,-85.77"/>
<text text-anchor="middle" x="919.5" y="-73.77" font-family="Helvetica,sans-Serif" font-size="10.00">GetReturnCode</text>
</a>
</g>
</g>
<!-- Node18&#45;&gt;Node19 -->
<g id="edge26" class="edge">
<title>Node18&#45;&gt;Node19</title>
<path fill="none" stroke="#63b8ff" d="M832.24,-104.29C845.94,-99.84 862.29,-94.53 877.06,-89.73"/>
<polygon fill="#63b8ff" stroke="#63b8ff" points="878.1,-93.08 886.53,-86.66 875.93,-86.42 878.1,-93.08"/>
</g>
<!-- Node20 -->
<g id="node20" class="node">
<title>Node20</title>
<g id="a_node20"><a xlink:href="TransmitterCode_2src_2main_8cpp.html#a5f109790a6fe0b972a502f3cac4ed1e7" target="_top" xlink:title=" ">
<polygon fill="white" stroke="#666666" points="943.5,-123.77 895.5,-123.77 895.5,-104.77 943.5,-104.77 943.5,-123.77"/>
<text text-anchor="middle" x="919.5" y="-111.77" font-family="Helvetica,sans-Serif" font-size="10.00">InStrng</text>
</a>
</g>
</g>
<!-- Node18&#45;&gt;Node20 -->
<g id="edge27" class="edge">
<title>Node18&#45;&gt;Node20</title>
<path fill="none" stroke="#63b8ff" d="M842.42,-114.27C855.94,-114.27 870.84,-114.27 883.85,-114.27"/>
<polygon fill="#63b8ff" stroke="#63b8ff" points="883.65,-117.77 893.65,-114.27 883.65,-110.77 883.65,-117.77"/>
</g>
<!-- Node21&#45;&gt;Node18 -->
<g id="edge30" class="edge">
<title>Node21&#45;&gt;Node18</title>
<path fill="none" stroke="#63b8ff" d="M693.24,-29.08C713.37,-45.22 753.72,-77.57 778.5,-97.43"/>
<polygon fill="#63b8ff" stroke="#63b8ff" points="775.98,-99.9 785.97,-103.43 780.36,-94.44 775.98,-99.9"/>
</g>
<!-- Node21&#45;&gt;Node19 -->
<g id="edge29" class="edge">
<title>Node21&#45;&gt;Node19</title>
<path fill="none" stroke="#63b8ff" d="M712.49,-13.55C745.64,-8.83 798.89,-4.98 842,-19.27 865.43,-27.04 887.51,-45.09 901.87,-58.81"/>
<polygon fill="#63b8ff" stroke="#63b8ff" points="899.13,-61.02 908.69,-65.6 904.07,-56.06 899.13,-61.02"/>
</g>
<!-- Node22 -->
<g id="node22" class="node">
<title>Node22</title>
<g id="a_node22"><a xlink:href="Utilities_8h.html#a590a9174319918d7e3d7baca323fcf26" target="_top" xlink:title=" ">
<polygon fill="white" stroke="#666666" points="815,-47.77 786,-47.77 786,-28.77 815,-28.77 815,-47.77"/>
<text text-anchor="middle" x="800.5" y="-35.77" font-family="Helvetica,sans-Serif" font-size="10.00">Str</text>
</a>
</g>
</g>
<!-- Node21&#45;&gt;Node22 -->
<g id="edge31" class="edge">
<title>Node21&#45;&gt;Node22</title>
<path fill="none" stroke="#63b8ff" d="M712.44,-24.31C731.83,-27.42 756.36,-31.35 774.43,-34.25"/>
<polygon fill="#63b8ff" stroke="#63b8ff" points="773.85,-37.7 784.28,-35.83 774.96,-30.79 773.85,-37.7"/>
</g>
<!-- Node24 -->
<g id="node24" class="node">
<title>Node24</title>
<g id="a_node24"><a xlink:href="TransmitterCode_2src_2main_8cpp.html#ab80517301562402fb80465f2e296bb46" target="_top" xlink:title=" ">
<polygon fill="white" stroke="#666666" points="396.5,-85.77 319.5,-85.77 319.5,-66.77 396.5,-66.77 396.5,-85.77"/>
<text text-anchor="middle" x="358" y="-73.77" font-family="Helvetica,sans-Serif" font-size="10.00">DoOneSwitch</text>
</a>
</g>
</g>
<!-- Node23&#45;&gt;Node24 -->
<g id="edge33" class="edge">
<title>Node23&#45;&gt;Node24</title>
<path fill="none" stroke="#63b8ff" d="M273.15,-76.27C284.58,-76.27 296.58,-76.27 307.82,-76.27"/>
<polygon fill="#63b8ff" stroke="#63b8ff" points="307.68,-79.77 317.68,-76.27 307.68,-72.77 307.68,-79.77"/>
</g>
<!-- Node25 -->
<g id="node25" class="node">
<title>Node25</title>
<g id="a_node25"><a xlink:href="Nextion_8h.html#afe513398f72d5e48f691830a1ef6eb42" target="_top" xlink:title=" ">
<polygon fill="white" stroke="#666666" points="709,-85.77 651,-85.77 651,-66.77 709,-66.77 709,-85.77"/>
<text text-anchor="middle" x="680" y="-73.77" font-family="Helvetica,sans-Serif" font-size="10.00">SendText</text>
</a>
</g>
</g>
<!-- Node24&#45;&gt;Node25 -->
<g id="edge34" class="edge">
<title>Node24&#45;&gt;Node25</title>
<path fill="none" stroke="#63b8ff" d="M396.96,-76.27C458.09,-76.27 577.72,-76.27 639.69,-76.27"/>
<polygon fill="#63b8ff" stroke="#63b8ff" points="639.41,-79.77 649.41,-76.27 639.41,-72.77 639.41,-79.77"/>
</g>
<!-- Node26 -->
<g id="node26" class="node">
<title>Node26</title>
<g id="a_node26"><a xlink:href="TransmitterCode_2src_2main_8cpp.html#a1c36cd11a28bf50b060a2bc332e0beac" target="_top" xlink:title=" ">
<polygon fill="white" stroke="#666666" points="601,-47.77 443,-47.77 443,-28.77 601,-28.77 601,-47.77"/>
<text text-anchor="middle" x="522" y="-35.77" font-family="Helvetica,sans-Serif" font-size="10.00">ShowSwitchNameWithReversed</text>
</a>
</g>
</g>
<!-- Node24&#45;&gt;Node26 -->
<g id="edge37" class="edge">
<title>Node24&#45;&gt;Node26</title>
<path fill="none" stroke="#63b8ff" d="M396.98,-67.36C417.96,-62.44 444.36,-56.25 467.4,-50.84"/>
<polygon fill="#63b8ff" stroke="#63b8ff" points="468,-54.3 476.93,-48.61 466.4,-47.49 468,-54.3"/>
</g>
<!-- Node25&#45;&gt;Node18 -->
<g id="edge36" class="edge">
<title>Node25&#45;&gt;Node18</title>
<path fill="none" stroke="#63b8ff" d="M709.38,-85.37C723.85,-90.01 741.72,-95.74 757.72,-100.87"/>
<polygon fill="#63b8ff" stroke="#63b8ff" points="756.4,-104.13 766.99,-103.85 758.54,-97.46 756.4,-104.13"/>
</g>
<!-- Node25&#45;&gt;Node19 -->
<g id="edge35" class="edge">
<title>Node25&#45;&gt;Node19</title>
<path fill="none" stroke="#63b8ff" d="M709.18,-76.27C747.77,-76.27 817.79,-76.27 866.16,-76.27"/>
<polygon fill="#63b8ff" stroke="#63b8ff" points="866.13,-79.77 876.13,-76.27 866.13,-72.77 866.13,-79.77"/>
</g>
<!-- Node26&#45;&gt;Node25 -->
<g id="edge38" class="edge">
<title>Node26&#45;&gt;Node25</title>
<path fill="none" stroke="#63b8ff" d="M563.99,-48.26C587.31,-53.94 616.38,-61.02 639.46,-66.64"/>
<polygon fill="#63b8ff" stroke="#63b8ff" points="638.57,-70.03 649.12,-68.99 640.23,-63.23 638.57,-70.03"/>
</g>
</g>
</svg>
