<?xml version="1.0" encoding="UTF-8" standalone="no"?>
<!DOCTYPE svg PUBLIC "-//W3C//DTD SVG 1.1//EN"
 "http://www.w3.org/Graphics/SVG/1.1/DTD/svg11.dtd">
<!-- Generated by graphviz version 7.0.5 (20221223.1930)
 -->
<!-- Title: LoadModelSelector Pages: 1 -->
<svg width="1341pt" height="853pt"
 viewBox="0.00 0.00 1341.00 853.00" xmlns="http://www.w3.org/2000/svg" xmlns:xlink="http://www.w3.org/1999/xlink">
<g id="graph0" class="graph" transform="scale(1 1) rotate(0) translate(4 849)">
<title>LoadModelSelector</title>
<!-- Node1 -->
<g id="node1" class="node">
<title>Node1</title>
<g id="a_node1"><a xlink:title=" ">
<polygon fill="#999999" stroke="#666666" points="101,-95 0,-95 0,-76 101,-76 101,-95"/>
<text text-anchor="middle" x="50.5" y="-83" font-family="Helvetica,sans-Serif" font-size="10.00">LoadModelSelector</text>
</a>
</g>
</g>
<!-- Node2 -->
<g id="node2" class="node">
<title>Node2</title>
<g id="a_node2"><a xlink:href="TransmitterCode_2src_2main_8cpp.html#ac7a5ec6cf2ed7b50bd291f821e886302" target="_top" xlink:title=" ">
<polygon fill="white" stroke="#666666" points="220,-602 137,-602 137,-583 220,-583 220,-602"/>
<text text-anchor="middle" x="178.5" y="-590" font-family="Helvetica,sans-Serif" font-size="10.00">ReadOneModel</text>
</a>
</g>
</g>
<!-- Node1&#45;&gt;Node2 -->
<g id="edge1" class="edge">
<title>Node1&#45;&gt;Node2</title>
<path fill="none" stroke="#63b8ff" d="M53.9,-95.18C69,-155.92 150.75,-484.87 172.29,-571.55"/>
<polygon fill="#63b8ff" stroke="#63b8ff" points="168.9,-572.39 174.71,-581.25 175.69,-570.71 168.9,-572.39"/>
</g>
<!-- Node37 -->
<g id="node25" class="node">
<title>Node37</title>
<g id="a_node25"><a xlink:href="Utilities_8h.html#a590a9174319918d7e3d7baca323fcf26" target="_top" xlink:title=" ">
<polygon fill="white" stroke="#666666" points="1187,-95 1158,-95 1158,-76 1187,-76 1187,-95"/>
<text text-anchor="middle" x="1172.5" y="-83" font-family="Helvetica,sans-Serif" font-size="10.00">Str</text>
</a>
</g>
</g>
<!-- Node1&#45;&gt;Node37 -->
<g id="edge75" class="edge">
<title>Node1&#45;&gt;Node37</title>
<path fill="none" stroke="#63b8ff" d="M94.29,-75.52C146.37,-64.26 237.13,-47.5 316,-47.5 316,-47.5 316,-47.5 900,-47.5 991.73,-47.5 1099.22,-69.04 1146.75,-79.68"/>
<polygon fill="#63b8ff" stroke="#63b8ff" points="1145.75,-83.04 1156.27,-81.86 1147.3,-76.22 1145.75,-83.04"/>
</g>
<!-- Node49 -->
<g id="node26" class="node">
<title>Node49</title>
<g id="a_node26"><a xlink:href="Nextion_8h.html#afe513398f72d5e48f691830a1ef6eb42" target="_top" xlink:title=" ">
<polygon fill="white" stroke="#666666" points="1074.5,-171 1016.5,-171 1016.5,-152 1074.5,-152 1074.5,-171"/>
<text text-anchor="middle" x="1045.5" y="-159" font-family="Helvetica,sans-Serif" font-size="10.00">SendText</text>
</a>
</g>
</g>
<!-- Node1&#45;&gt;Node49 -->
<g id="edge73" class="edge">
<title>Node1&#45;&gt;Node49</title>
<path fill="none" stroke="#63b8ff" d="M71.51,-95.44C114.91,-116.04 221.4,-161.5 316,-161.5 316,-161.5 316,-161.5 731,-161.5 829.53,-161.5 945.48,-161.5 1004.94,-161.5"/>
<polygon fill="#63b8ff" stroke="#63b8ff" points="1004.88,-165 1014.88,-161.5 1004.88,-158 1004.88,-165"/>
</g>
<!-- Node77 -->
<g id="node49" class="node">
<title>Node77</title>
<g id="a_node49"><a xlink:href="Nextion_8h.html#a1e20efc1e419b252b50d36f9924503fc" target="_top" xlink:title=" ">
<polygon fill="white" stroke="#666666" points="1077.5,-133 1013.5,-133 1013.5,-114 1077.5,-114 1077.5,-133"/>
<text text-anchor="middle" x="1045.5" y="-121" font-family="Helvetica,sans-Serif" font-size="10.00">SendValue</text>
</a>
</g>
</g>
<!-- Node1&#45;&gt;Node77 -->
<g id="edge74" class="edge">
<title>Node1&#45;&gt;Node77</title>
<path fill="none" stroke="#63b8ff" d="M101.22,-85.5C154.39,-85.5 241.15,-85.5 316,-85.5 316,-85.5 316,-85.5 731,-85.5 833.13,-85.5 859.05,-89.04 960,-104.5 973.93,-106.63 988.99,-109.75 1002.49,-112.85"/>
<polygon fill="#63b8ff" stroke="#63b8ff" points="1001.39,-116.19 1011.92,-115.08 1002.99,-109.37 1001.39,-116.19"/>
</g>
<!-- Node185 -->
<g id="node50" class="node">
<title>Node185</title>
<g id="a_node50"><a xlink:href="Nextion_8h.html#a2124579df12bdc81995d8d8dc4f47734" target="_top" xlink:title=" ">
<polygon fill="white" stroke="#666666" points="1086.5,-19 1004.5,-19 1004.5,0 1086.5,0 1086.5,-19"/>
<text text-anchor="middle" x="1045.5" y="-7" font-family="Helvetica,sans-Serif" font-size="10.00">SendOtherText</text>
</a>
</g>
</g>
<!-- Node1&#45;&gt;Node185 -->
<g id="edge70" class="edge">
<title>Node1&#45;&gt;Node185</title>
<path fill="none" stroke="#63b8ff" d="M63.98,-75.6C79.92,-63.51 108.83,-43.46 137,-33.5 212.68,-6.74 235.73,-9.5 316,-9.5 316,-9.5 316,-9.5 731,-9.5 823.29,-9.5 930.87,-9.5 992.99,-9.5"/>
<polygon fill="#63b8ff" stroke="#63b8ff" points="992.9,-13 1002.9,-9.5 992.9,-6 992.9,-13"/>
</g>
<!-- Node3 -->
<g id="node3" class="node">
<title>Node3</title>
<g id="a_node3"><a xlink:href="TransmitterCode_2src_2main_8cpp.html#a38063272143a3da8735678470d210d29" target="_top" xlink:title=" ">
<polygon fill="white" stroke="#666666" points="366,-433 268,-433 268,-414 366,-414 366,-433"/>
<text text-anchor="middle" x="317" y="-421" font-family="Helvetica,sans-Serif" font-size="10.00">CheckBanksInUse</text>
</a>
</g>
</g>
<!-- Node2&#45;&gt;Node3 -->
<g id="edge2" class="edge">
<title>Node2&#45;&gt;Node3</title>
<path fill="none" stroke="#63b8ff" d="M181.62,-582.7C187.92,-555.89 209.12,-480.72 256,-441.5 256.96,-440.7 257.95,-439.93 258.98,-439.2"/>
<polygon fill="#63b8ff" stroke="#63b8ff" points="260.64,-442.28 267.55,-434.24 257.14,-436.22 260.64,-442.28"/>
</g>
<!-- Node4 -->
<g id="node4" class="node">
<title>Node4</title>
<g id="a_node4"><a xlink:href="TransmitterCode_2src_2main_8cpp.html#a5467d21eeae42d1bfdb79914ef52d0ed" target="_top" xlink:title=" ">
<polygon fill="white" stroke="#666666" points="376.5,-845 257.5,-845 257.5,-826 376.5,-826 376.5,-845"/>
<text text-anchor="middle" x="317" y="-833" font-family="Helvetica,sans-Serif" font-size="10.00">CheckDualRatesValues</text>
</a>
</g>
</g>
<!-- Node2&#45;&gt;Node4 -->
<g id="edge3" class="edge">
<title>Node2&#45;&gt;Node4</title>
<path fill="none" stroke="#63b8ff" d="M179.8,-602.25C181.4,-636.9 191.55,-755.35 256,-817.5 256.63,-818.11 257.28,-818.7 257.95,-819.27"/>
<polygon fill="#63b8ff" stroke="#63b8ff" points="255.97,-822.15 266.24,-824.76 259.84,-816.32 255.97,-822.15"/>
</g>
<!-- Node5 -->
<g id="node5" class="node">
<title>Node5</title>
<g id="a_node5"><a xlink:href="Utilities_8h.html#a6bb930920ba3a8d45a737dde782ef65c" target="_top" xlink:title=" ">
<polygon fill="white" stroke="#666666" points="368,-808 266,-808 266,-789 368,-789 368,-808"/>
<text text-anchor="middle" x="317" y="-796" font-family="Helvetica,sans-Serif" font-size="10.00">CheckMacrosBuffer</text>
</a>
</g>
</g>
<!-- Node2&#45;&gt;Node5 -->
<g id="edge4" class="edge">
<title>Node2&#45;&gt;Node5</title>
<path fill="none" stroke="#63b8ff" d="M180.55,-602.36C184.39,-633.39 200.47,-730.01 256,-780.5 256.77,-781.2 257.58,-781.88 258.4,-782.53"/>
<polygon fill="#63b8ff" stroke="#63b8ff" points="256.38,-785.39 266.71,-787.73 260.09,-779.46 256.38,-785.39"/>
</g>
<!-- Node6 -->
<g id="node6" class="node">
<title>Node6</title>
<g id="a_node6"><a xlink:href="TransmitterCode_2src_2main_8cpp.html#a81f424711e329d4db746d65d6cbc7b1f" target="_top" xlink:title=" ">
<polygon fill="white" stroke="#666666" points="375,-584 259,-584 259,-565 375,-565 375,-584"/>
<text text-anchor="middle" x="317" y="-572" font-family="Helvetica,sans-Serif" font-size="10.00">CheckOutPutChannels</text>
</a>
</g>
</g>
<!-- Node2&#45;&gt;Node6 -->
<g id="edge5" class="edge">
<title>Node2&#45;&gt;Node6</title>
<path fill="none" stroke="#63b8ff" d="M220.45,-587.1C229,-585.97 238.22,-584.76 247.45,-583.54"/>
<polygon fill="#63b8ff" stroke="#63b8ff" points="247.72,-587.03 257.17,-582.26 246.8,-580.1 247.72,-587.03"/>
</g>
<!-- Node8 -->
<g id="node8" class="node">
<title>Node8</title>
<g id="a_node8"><a xlink:href="TransmitterCode_2src_2main_8cpp.html#a01c7a0b0de94ec72fe070ea9f90dc2ec" target="_top" xlink:title=" ">
<polygon fill="white" stroke="#666666" points="353,-771 281,-771 281,-752 353,-752 353,-771"/>
<text text-anchor="middle" x="317" y="-759" font-family="Helvetica,sans-Serif" font-size="10.00">CheckRange</text>
</a>
</g>
</g>
<!-- Node2&#45;&gt;Node8 -->
<g id="edge7" class="edge">
<title>Node2&#45;&gt;Node8</title>
<path fill="none" stroke="#63b8ff" d="M182.13,-602.44C189.44,-628.29 212.42,-698.27 256,-737.5 260.27,-741.34 265.23,-744.61 270.43,-747.37"/>
<polygon fill="#63b8ff" stroke="#63b8ff" points="268.71,-750.43 279.25,-751.46 271.65,-744.08 268.71,-750.43"/>
</g>
<!-- Node9 -->
<g id="node9" class="node">
<title>Node9</title>
<g id="a_node9"><a xlink:href="Trims_8h.html#a688c8f45b7061a1574dcb7eb28eec56b" target="_top" xlink:title=" ">
<polygon fill="white" stroke="#666666" points="378,-695 256,-695 256,-676 378,-676 378,-695"/>
<text text-anchor="middle" x="317" y="-683" font-family="Helvetica,sans-Serif" font-size="10.00">CheckSavedTrimValues</text>
</a>
</g>
</g>
<!-- Node2&#45;&gt;Node9 -->
<g id="edge8" class="edge">
<title>Node2&#45;&gt;Node9</title>
<path fill="none" stroke="#63b8ff" d="M186.85,-602.31C199.33,-618.29 226.21,-649.91 256,-667.5 258.29,-668.85 260.69,-670.11 263.16,-671.28"/>
<polygon fill="#63b8ff" stroke="#63b8ff" points="261.62,-674.43 272.19,-675.03 264.3,-667.96 261.62,-674.43"/>
</g>
<!-- Node10 -->
<g id="node10" class="node">
<title>Node10</title>
<g id="a_node10"><a xlink:href="TransmitterCode_2src_2main_8cpp.html#af2028eceef03ca4c84aa7d71677c0647" target="_top" xlink:title=" ">
<polygon fill="white" stroke="#666666" points="361.5,-658 272.5,-658 272.5,-639 361.5,-639 361.5,-658"/>
<text text-anchor="middle" x="317" y="-646" font-family="Helvetica,sans-Serif" font-size="10.00">CheckStepSizes</text>
</a>
</g>
</g>
<!-- Node2&#45;&gt;Node10 -->
<g id="edge9" class="edge">
<title>Node2&#45;&gt;Node10</title>
<path fill="none" stroke="#63b8ff" d="M197.34,-602.45C212.6,-610.69 235.31,-622.33 256,-630.5 260.04,-632.1 264.28,-633.63 268.55,-635.09"/>
<polygon fill="#63b8ff" stroke="#63b8ff" points="267.14,-638.31 277.73,-638.06 269.3,-631.65 267.14,-638.31"/>
</g>
<!-- Node11 -->
<g id="node11" class="node">
<title>Node11</title>
<g id="a_node11"><a xlink:href="Utilities_8h.html#a3b1d8aa403e2724e55c71da3d9d13e7e" target="_top" xlink:title=" ">
<polygon fill="white" stroke="#666666" points="495.5,-489 418.5,-489 418.5,-470 495.5,-470 495.5,-489"/>
<text text-anchor="middle" x="457" y="-477" font-family="Helvetica,sans-Serif" font-size="10.00">DelayWithDog</text>
</a>
</g>
</g>
<!-- Node2&#45;&gt;Node11 -->
<g id="edge10" class="edge">
<title>Node2&#45;&gt;Node11</title>
<path fill="none" stroke="#63b8ff" d="M189.54,-582.85C203.4,-570.03 229.7,-547.48 256,-534.5 304.7,-510.46 365.44,-495.66 407.12,-487.55"/>
<polygon fill="#63b8ff" stroke="#63b8ff" points="407.68,-491.01 416.86,-485.72 406.39,-484.13 407.68,-491.01"/>
</g>
<!-- Node22 -->
<g id="node42" class="node">
<title>Node22</title>
<g id="a_node42"><a xlink:href="TransmitterCode_2src_2main_8cpp.html#ae7618f38a148877bc5681be58cba8354" target="_top" xlink:title=" ">
<polygon fill="white" stroke="#666666" points="360.5,-470 273.5,-470 273.5,-451 360.5,-451 360.5,-470"/>
<text text-anchor="middle" x="317" y="-458" font-family="Helvetica,sans-Serif" font-size="10.00">OpenModelsFile</text>
</a>
</g>
</g>
<!-- Node2&#45;&gt;Node22 -->
<g id="edge55" class="edge">
<title>Node2&#45;&gt;Node22</title>
<path fill="none" stroke="#63b8ff" d="M184,-582.72C194.05,-561.87 220.27,-512.66 256,-484.5 260.56,-480.9 265.74,-477.78 271.09,-475.08"/>
<polygon fill="#63b8ff" stroke="#63b8ff" points="272.41,-478.33 280.1,-471.04 269.54,-471.94 272.41,-478.33"/>
</g>
<!-- Node180 -->
<g id="node43" class="node">
<title>Node180</title>
<g id="a_node43"><a xlink:href="TransmitterCode_2src_2main_8cpp.html#a3c809856d2abf6b6f804e2fbe68d06f5" target="_top" xlink:title=" ">
<polygon fill="white" stroke="#666666" points="366,-621 268,-621 268,-602 366,-602 366,-621"/>
<text text-anchor="middle" x="317" y="-609" font-family="Helvetica,sans-Serif" font-size="10.00">ReadCheckSum32</text>
</a>
</g>
</g>
<!-- Node2&#45;&gt;Node180 -->
<g id="edge57" class="edge">
<title>Node2&#45;&gt;Node180</title>
<path fill="none" stroke="#63b8ff" d="M220.45,-598.2C231.88,-599.79 244.52,-601.55 256.77,-603.26"/>
<polygon fill="#63b8ff" stroke="#63b8ff" points="255.98,-606.68 266.37,-604.59 256.95,-599.75 255.98,-606.68"/>
</g>
<!-- Node182 -->
<g id="node45" class="node">
<title>Node182</title>
<g id="a_node45"><a xlink:href="TransmitterCode_2src_2main_8cpp.html#a9cf4a8c584c2b92d52de18627ca4434b" target="_top" xlink:title=" ">
<polygon fill="white" stroke="#666666" points="497,-733 417,-733 417,-714 497,-714 497,-733"/>
<text text-anchor="middle" x="457" y="-721" font-family="Helvetica,sans-Serif" font-size="10.00">SDRead8BITS</text>
</a>
</g>
</g>
<!-- Node2&#45;&gt;Node182 -->
<g id="edge63" class="edge">
<title>Node2&#45;&gt;Node182</title>
<path fill="none" stroke="#63b8ff" d="M182.93,-602.46C191.33,-625.12 215.24,-680.45 256,-704.5 301.26,-731.21 362.53,-733.06 405.29,-730.06"/>
<polygon fill="#63b8ff" stroke="#63b8ff" points="405.37,-733.57 415.04,-729.25 404.79,-726.59 405.37,-733.57"/>
</g>
<!-- Node183 -->
<g id="node47" class="node">
<title>Node183</title>
<g id="a_node47"><a xlink:href="TransmitterCode_2src_2main_8cpp.html#a6591bcf6ef0d17400e2562057d79885a" target="_top" xlink:title=" ">
<polygon fill="white" stroke="#666666" points="500,-547 414,-547 414,-528 500,-528 500,-547"/>
<text text-anchor="middle" x="457" y="-535" font-family="Helvetica,sans-Serif" font-size="10.00">SDRead16BITS</text>
</a>
</g>
</g>
<!-- Node2&#45;&gt;Node183 -->
<g id="edge61" class="edge">
<title>Node2&#45;&gt;Node183</title>
<path fill="none" stroke="#63b8ff" d="M195.54,-582.62C210.57,-573.88 233.96,-561.6 256,-555.5 304.42,-542.09 361.71,-538.08 402.53,-537.13"/>
<polygon fill="#63b8ff" stroke="#63b8ff" points="402.4,-540.63 412.34,-536.96 402.28,-533.63 402.4,-540.63"/>
</g>
<!-- Node211 -->
<g id="node48" class="node">
<title>Node211</title>
<g id="a_node48"><a xlink:href="TransmitterCode_2src_2main_8cpp.html#abf59862cf6c4e3df5a76f0bfea8919ef" target="_top" xlink:title=" ">
<polygon fill="white" stroke="#666666" points="952,-133 846,-133 846,-114 952,-114 952,-133"/>
<text text-anchor="middle" x="899" y="-121" font-family="Helvetica,sans-Serif" font-size="10.00">UpdateButtonLabels</text>
</a>
</g>
</g>
<!-- Node2&#45;&gt;Node211 -->
<g id="edge64" class="edge">
<title>Node2&#45;&gt;Node211</title>
<path fill="none" stroke="#63b8ff" d="M181.23,-582.79C192.62,-522.27 262.46,-199.5 456,-199.5 456,-199.5 456,-199.5 580,-199.5 685.37,-199.5 805.12,-159.54 863.01,-137.57"/>
<polygon fill="#63b8ff" stroke="#63b8ff" points="864.25,-140.84 872.32,-133.98 861.73,-134.31 864.25,-140.84"/>
</g>
<!-- Node7 -->
<g id="node7" class="node">
<title>Node7</title>
<g id="a_node7"><a xlink:href="TransmitterCode_2src_2main_8cpp.html#ab8f0f0c550267dde95be7916109a462f" target="_top" xlink:title=" ">
<polygon fill="white" stroke="#666666" points="499.5,-584 414.5,-584 414.5,-565 499.5,-565 499.5,-584"/>
<text text-anchor="middle" x="457" y="-572" font-family="Helvetica,sans-Serif" font-size="10.00">CheckDuplicate</text>
</a>
</g>
</g>
<!-- Node6&#45;&gt;Node7 -->
<g id="edge6" class="edge">
<title>Node6&#45;&gt;Node7</title>
<path fill="none" stroke="#63b8ff" d="M375.33,-574.5C384.49,-574.5 393.94,-574.5 402.99,-574.5"/>
<polygon fill="#63b8ff" stroke="#63b8ff" points="402.7,-578 412.7,-574.5 402.7,-571 402.7,-578"/>
</g>
<!-- Node12 -->
<g id="node12" class="node">
<title>Node12</title>
<g id="a_node12"><a xlink:href="Utilities_8h.html#ada95a00a341e4a80176eda743a94ab2e" target="_top" xlink:title=" ">
<polygon fill="white" stroke="#666666" points="614,-489 544,-489 544,-470 614,-470 614,-489"/>
<text text-anchor="middle" x="579" y="-477" font-family="Helvetica,sans-Serif" font-size="10.00">KickTheDog</text>
</a>
</g>
</g>
<!-- Node11&#45;&gt;Node12 -->
<g id="edge11" class="edge">
<title>Node11&#45;&gt;Node12</title>
<path fill="none" stroke="#63b8ff" d="M495.97,-479.5C507.52,-479.5 520.34,-479.5 532.34,-479.5"/>
<polygon fill="#63b8ff" stroke="#63b8ff" points="532.02,-483 542.02,-479.5 532.02,-476 532.02,-483"/>
</g>
<!-- Node13 -->
<g id="node13" class="node">
<title>Node13</title>
<g id="a_node13"><a xlink:href="transceiver_8h.html#a049bfb836e7aa4a3a48a1a4bd225fafc" target="_top" xlink:title=" ">
<polygon fill="white" stroke="#666666" points="608.5,-413 549.5,-413 549.5,-394 608.5,-394 608.5,-413"/>
<text text-anchor="middle" x="579" y="-401" font-family="Helvetica,sans-Serif" font-size="10.00">SendData</text>
</a>
</g>
</g>
<!-- Node11&#45;&gt;Node13 -->
<g id="edge12" class="edge">
<title>Node11&#45;&gt;Node13</title>
<path fill="none" stroke="#63b8ff" d="M473.69,-469.56C493.81,-456.82 528.96,-434.56 552.84,-419.43"/>
<polygon fill="#63b8ff" stroke="#63b8ff" points="554.45,-422.56 561.03,-414.25 550.71,-416.64 554.45,-422.56"/>
</g>
<!-- Node14 -->
<g id="node14" class="node">
<title>Node14</title>
<g id="a_node14"><a xlink:href="transceiver_8h.html#a1ddd5e8d5bd649dd98ce3710fbff651b" target="_top" xlink:title=" ">
<polygon fill="white" stroke="#666666" points="760.5,-321 699.5,-321 699.5,-302 760.5,-302 760.5,-321"/>
<text text-anchor="middle" x="730" y="-309" font-family="Helvetica,sans-Serif" font-size="10.00">Compress</text>
</a>
</g>
</g>
<!-- Node13&#45;&gt;Node14 -->
<g id="edge13" class="edge">
<title>Node13&#45;&gt;Node14</title>
<path fill="none" stroke="#63b8ff" d="M587.49,-393.69C600.2,-377.73 627.59,-346.26 658,-329.5 667.14,-324.46 677.73,-320.8 687.88,-318.16"/>
<polygon fill="#63b8ff" stroke="#63b8ff" points="688.63,-321.58 697.59,-315.92 687.06,-314.75 688.63,-321.58"/>
</g>
<!-- Node15 -->
<g id="node15" class="node">
<title>Node15</title>
<g id="a_node15"><a xlink:href="transceiver_8h.html#a4144c213e5448a7e02d4172881f08219" target="_top" xlink:title=" ">
<polygon fill="white" stroke="#666666" points="802,-284 658,-284 658,-265 802,-265 802,-284"/>
<text text-anchor="middle" x="730" y="-272" font-family="Helvetica,sans-Serif" font-size="10.00">EncodeTheChangedChannels</text>
</a>
</g>
</g>
<!-- Node13&#45;&gt;Node15 -->
<g id="edge14" class="edge">
<title>Node13&#45;&gt;Node15</title>
<path fill="none" stroke="#63b8ff" d="M584,-393.73C593.42,-371.94 619.21,-319.23 658,-292.5 659.62,-291.38 661.3,-290.34 663.04,-289.36"/>
<polygon fill="#63b8ff" stroke="#63b8ff" points="664.53,-292.52 672.05,-285.06 661.51,-286.2 664.53,-292.52"/>
</g>
<!-- Node16 -->
<g id="node16" class="node">
<title>Node16</title>
<g id="a_node16"><a xlink:href="transceiver_8h.html#a5fbd3c8613a4163425c94965704ce5f8" target="_top" xlink:title=" ">
<polygon fill="white" stroke="#666666" points="767,-395 693,-395 693,-376 767,-376 767,-395"/>
<text text-anchor="middle" x="730" y="-383" font-family="Helvetica,sans-Serif" font-size="10.00">FailedPacket</text>
</a>
</g>
</g>
<!-- Node13&#45;&gt;Node16 -->
<g id="edge15" class="edge">
<title>Node13&#45;&gt;Node16</title>
<path fill="none" stroke="#63b8ff" d="M608.73,-400.03C629.3,-397.54 657.46,-394.14 681.36,-391.25"/>
<polygon fill="#63b8ff" stroke="#63b8ff" points="681.69,-394.74 691.2,-390.07 680.86,-387.79 681.69,-394.74"/>
</g>
<!-- Node58 -->
<g id="node29" class="node">
<title>Node58</title>
<g id="a_node29"><a xlink:href="transceiver_8h.html#a07c27b4e208198453c70876517926052" target="_top" xlink:title=" ">
<polygon fill="white" stroke="#666666" points="761,-601 699,-601 699,-582 761,-582 761,-601"/>
<text text-anchor="middle" x="730" y="-589" font-family="Helvetica,sans-Serif" font-size="10.00">FlushFifos</text>
</a>
</g>
</g>
<!-- Node13&#45;&gt;Node58 -->
<g id="edge32" class="edge">
<title>Node13&#45;&gt;Node58</title>
<path fill="none" stroke="#63b8ff" d="M587.61,-413.47C596.15,-424.75 610.36,-443.74 622,-460.5 638.67,-484.49 639.96,-492.52 658,-515.5 674.59,-536.63 695.88,-558.88 710.8,-573.8"/>
<polygon fill="#63b8ff" stroke="#63b8ff" points="708.12,-576.07 717.69,-580.61 713.04,-571.09 708.12,-576.07"/>
</g>
<!-- Node55 -->
<g id="node30" class="node">
<title>Node55</title>
<g id="a_node30"><a xlink:href="common_8h.html#a6e2d4126d864c50e7c23c988c2bfdd1a" target="_top" xlink:title=" ">
<polygon fill="white" stroke="#666666" points="1069,-619 1022,-619 1022,-600 1069,-600 1069,-619"/>
<text text-anchor="middle" x="1045.5" y="-607" font-family="Helvetica,sans-Serif" font-size="10.00">Radio1</text>
</a>
</g>
</g>
<!-- Node13&#45;&gt;Node55 -->
<g id="edge34" class="edge">
<title>Node13&#45;&gt;Node55</title>
<path fill="none" stroke="#63b8ff" d="M589.08,-413.21C598.64,-423.97 613.49,-442.23 622,-460.5 650.77,-522.25 608.13,-563.09 658,-609.5 756.74,-701.39 827.07,-662.4 960,-639.5 977.9,-636.42 997.04,-629.91 1012.56,-623.75"/>
<polygon fill="#63b8ff" stroke="#63b8ff" points="1013.86,-627 1021.76,-619.95 1011.19,-620.53 1013.86,-627"/>
</g>
<!-- Node59 -->
<g id="node31" class="node">
<title>Node59</title>
<g id="a_node31"><a xlink:href="transceiver_8h.html#a65249d0ac8676541d13ced58b1ce7624" target="_top" xlink:title=" ">
<polygon fill="white" stroke="#666666" points="789.5,-247 670.5,-247 670.5,-228 789.5,-228 789.5,-247"/>
<text text-anchor="middle" x="730" y="-235" font-family="Helvetica,sans-Serif" font-size="10.00">SendExtraParamemters</text>
</a>
</g>
</g>
<!-- Node13&#45;&gt;Node59 -->
<g id="edge35" class="edge">
<title>Node13&#45;&gt;Node59</title>
<path fill="none" stroke="#63b8ff" d="M582.19,-393.78C588.71,-367.22 610.54,-292.87 658,-255.5 659.15,-254.59 660.34,-253.73 661.57,-252.91"/>
<polygon fill="#63b8ff" stroke="#63b8ff" points="663.14,-256.04 670.22,-248.17 659.77,-249.91 663.14,-256.04"/>
</g>
<!-- Node63 -->
<g id="node33" class="node">
<title>Node63</title>
<g id="a_node33"><a xlink:href="BuddyWireless_8h.html#a41c327908c92572d0d3eebbb19160d86" target="_top" xlink:title=" ">
<polygon fill="white" stroke="#666666" points="781,-432 679,-432 679,-413 781,-413 781,-432"/>
<text text-anchor="middle" x="730" y="-420" font-family="Helvetica,sans-Serif" font-size="10.00">SendSpecialPacket</text>
</a>
</g>
</g>
<!-- Node13&#45;&gt;Node63 -->
<g id="edge38" class="edge">
<title>Node13&#45;&gt;Node63</title>
<path fill="none" stroke="#63b8ff" d="M608.73,-407.16C625.35,-409.28 646.93,-412.03 667.21,-414.62"/>
<polygon fill="#63b8ff" stroke="#63b8ff" points="666.77,-418.09 677.13,-415.89 667.66,-411.15 666.77,-418.09"/>
</g>
<!-- Node67 -->
<g id="node36" class="node">
<title>Node67</title>
<g id="a_node36"><a xlink:href="BuddyPPM_8h.html#a784a1eca0361b3991bca899167cc1cdb" target="_top" xlink:title=" ">
<polygon fill="white" stroke="#666666" points="767.5,-358 692.5,-358 692.5,-339 767.5,-339 767.5,-358"/>
<text text-anchor="middle" x="730" y="-346" font-family="Helvetica,sans-Serif" font-size="10.00">SendViaPPM</text>
</a>
</g>
</g>
<!-- Node13&#45;&gt;Node67 -->
<g id="edge45" class="edge">
<title>Node13&#45;&gt;Node67</title>
<path fill="none" stroke="#63b8ff" d="M598.16,-393.64C613.7,-385.51 636.85,-374.12 658,-366.5 665.4,-363.84 673.37,-361.41 681.2,-359.26"/>
<polygon fill="#63b8ff" stroke="#63b8ff" points="681.85,-362.71 690.64,-356.79 680.08,-355.93 681.85,-362.71"/>
</g>
<!-- Node68 -->
<g id="node37" class="node">
<title>Node68</title>
<g id="a_node37"><a xlink:href="transceiver_8h.html#a1c11bb6771548de7d96723045b922620" target="_top" xlink:title=" ">
<polygon fill="white" stroke="#666666" points="778,-507 682,-507 682,-488 778,-488 778,-507"/>
<text text-anchor="middle" x="730" y="-495" font-family="Helvetica,sans-Serif" font-size="10.00">SuccessfulPacket</text>
</a>
</g>
</g>
<!-- Node13&#45;&gt;Node68 -->
<g id="edge46" class="edge">
<title>Node13&#45;&gt;Node68</title>
<path fill="none" stroke="#63b8ff" d="M595.66,-413.38C621.44,-429.64 673.02,-462.18 703.92,-481.68"/>
<polygon fill="#63b8ff" stroke="#63b8ff" points="701.94,-484.57 712.27,-486.94 705.68,-478.65 701.94,-484.57"/>
</g>
<!-- Node17 -->
<g id="node17" class="node">
<title>Node17</title>
<g id="a_node17"><a xlink:href="transceiver_8h.html#afc091b5942e21a03f6dc8635d5e519ba" target="_top" xlink:title=" ">
<polygon fill="white" stroke="#666666" points="960,-357 838,-357 838,-338 960,-338 960,-357"/>
<text text-anchor="middle" x="899" y="-345" font-family="Helvetica,sans-Serif" font-size="10.00">RecordsPacketSuccess</text>
</a>
</g>
</g>
<!-- Node16&#45;&gt;Node17 -->
<g id="edge16" class="edge">
<title>Node16&#45;&gt;Node17</title>
<path fill="none" stroke="#63b8ff" d="M767.24,-377.25C789.36,-372.22 818.1,-365.68 842.99,-360.02"/>
<polygon fill="#63b8ff" stroke="#63b8ff" points="843.67,-363.45 852.64,-357.82 842.12,-356.63 843.67,-363.45"/>
</g>
<!-- Node18 -->
<g id="node18" class="node">
<title>Node18</title>
<g id="a_node18"><a xlink:href="TransmitterCode_2src_2main_8cpp.html#a7d34cec6e8edc20c8b50424e15dcc7c7" target="_top" xlink:title=" ">
<polygon fill="white" stroke="#666666" points="930.5,-320 867.5,-320 867.5,-301 930.5,-301 930.5,-320"/>
<text text-anchor="middle" x="899" y="-308" font-family="Helvetica,sans-Serif" font-size="10.00">RedLedOn</text>
</a>
</g>
</g>
<!-- Node16&#45;&gt;Node18 -->
<g id="edge17" class="edge">
<title>Node16&#45;&gt;Node18</title>
<path fill="none" stroke="#63b8ff" d="M767.2,-379.85C778.86,-377 791.47,-372.77 802,-366.5 821.99,-354.6 818.19,-340.7 838,-328.5 843.64,-325.03 849.98,-322.19 856.38,-319.88"/>
<polygon fill="#63b8ff" stroke="#63b8ff" points="857.18,-323.3 865.65,-316.93 855.06,-316.63 857.18,-323.3"/>
</g>
<!-- Node51 -->
<g id="node28" class="node">
<title>Node51</title>
<g id="a_node28"><a xlink:href="transceiver_8h.html#ad0236abcfc887ad708d9504c4ab2a7c3" target="_top" xlink:title=" ">
<polygon fill="#fff0f0" stroke="red" points="943,-246 855,-246 855,-227 943,-227 943,-246"/>
<text text-anchor="middle" x="899" y="-234" font-family="Helvetica,sans-Serif" font-size="10.00">TryToReconnect</text>
</a>
</g>
</g>
<!-- Node16&#45;&gt;Node51 -->
<g id="edge31" class="edge">
<title>Node16&#45;&gt;Node51</title>
<path fill="none" stroke="#63b8ff" d="M767.3,-382.81C779.64,-380.22 792.66,-375.38 802,-366.5 839.88,-330.45 800.67,-291.11 838,-254.5 839.97,-252.57 842.13,-250.85 844.43,-249.31"/>
<polygon fill="#63b8ff" stroke="#63b8ff" points="846,-252.44 853.2,-244.67 842.72,-246.26 846,-252.44"/>
</g>
<!-- Node19 -->
<g id="node19" class="node">
<title>Node19</title>
<g id="a_node19"><a xlink:href="Utilities_8h.html#a549a702bb9b539c6b3a4f20cce65adcc" target="_top" xlink:title=" ">
<polygon fill="#fff0f0" stroke="red" points="1094.5,-397 996.5,-397 996.5,-378 1094.5,-378 1094.5,-397"/>
<text text-anchor="middle" x="1045.5" y="-385" font-family="Helvetica,sans-Serif" font-size="10.00">GetLEDBrightness</text>
</a>
</g>
</g>
<!-- Node18&#45;&gt;Node19 -->
<g id="edge18" class="edge">
<title>Node18&#45;&gt;Node19</title>
<path fill="none" stroke="#63b8ff" d="M930.99,-316.34C940.76,-319.07 951.27,-322.97 960,-328.5 980.2,-341.3 976.34,-354.88 996,-368.5 998.08,-369.94 1000.29,-371.3 1002.57,-372.57"/>
<polygon fill="#63b8ff" stroke="#63b8ff" points="1001,-375.69 1011.52,-376.92 1004.06,-369.4 1001,-375.69"/>
</g>
<!-- Node29 -->
<g id="node20" class="node">
<title>Node29</title>
<g id="a_node20"><a xlink:href="TransmitterCode_2src_2main_8cpp.html#a2d5ec5fd5ed62d5b7b071fabe2225405" target="_top" xlink:title=" ">
<polygon fill="#fff0f0" stroke="red" points="1093.5,-284 997.5,-284 997.5,-265 1093.5,-265 1093.5,-284"/>
<text text-anchor="middle" x="1045.5" y="-272" font-family="Helvetica,sans-Serif" font-size="10.00">LogDisConnection</text>
</a>
</g>
</g>
<!-- Node18&#45;&gt;Node29 -->
<g id="edge19" class="edge">
<title>Node18&#45;&gt;Node29</title>
<path fill="none" stroke="#63b8ff" d="M931,-302.78C949.21,-298.24 972.67,-292.4 993.53,-287.2"/>
<polygon fill="#63b8ff" stroke="#63b8ff" points="994.15,-290.65 1003.01,-284.84 992.46,-283.86 994.15,-290.65"/>
</g>
<!-- Node45 -->
<g id="node21" class="node">
<title>Node45</title>
<g id="a_node21"><a xlink:href="Utilities_8h.html#aa490b4664b0a4498d53b30b82287d5df" target="_top" xlink:title=" ">
<polygon fill="white" stroke="#666666" points="1077,-360 1014,-360 1014,-341 1077,-341 1077,-360"/>
<text text-anchor="middle" x="1045.5" y="-348" font-family="Helvetica,sans-Serif" font-size="10.00">PlaySound</text>
</a>
</g>
</g>
<!-- Node18&#45;&gt;Node45 -->
<g id="edge20" class="edge">
<title>Node18&#45;&gt;Node45</title>
<path fill="none" stroke="#63b8ff" d="M931,-319.08C951.95,-324.88 979.86,-332.61 1002.76,-338.95"/>
<polygon fill="#63b8ff" stroke="#63b8ff" points="1001.52,-342.23 1012.09,-341.53 1003.39,-335.49 1001.52,-342.23"/>
</g>
<!-- Node46 -->
<g id="node22" class="node">
<title>Node46</title>
<g id="a_node22"><a xlink:href="Nextion_8h.html#aecac2f0c289f02ef3c92b85be82eacac" target="_top" xlink:title=" ">
<polygon fill="white" stroke="#666666" points="1214,-227 1131,-227 1131,-208 1214,-208 1214,-227"/>
<text text-anchor="middle" x="1172.5" y="-215" font-family="Helvetica,sans-Serif" font-size="10.00">SendCommand</text>
</a>
</g>
</g>
<!-- Node18&#45;&gt;Node46 -->
<g id="edge26" class="edge">
<title>Node18&#45;&gt;Node46</title>
<path fill="none" stroke="#63b8ff" d="M930.68,-313.8C970.53,-316.74 1041.32,-317.36 1095,-292.5 1121.65,-280.16 1144.52,-254.51 1158.15,-236.66"/>
<polygon fill="#63b8ff" stroke="#63b8ff" points="1160.91,-238.81 1164,-228.67 1155.26,-234.68 1160.91,-238.81"/>
</g>
<!-- Node18&#45;&gt;Node49 -->
<g id="edge27" class="edge">
<title>Node18&#45;&gt;Node49</title>
<path fill="none" stroke="#63b8ff" d="M930.75,-306.6C941.19,-303.89 952.18,-299.29 960,-291.5 997.05,-254.61 959.86,-217.28 996,-179.5 998.79,-176.59 1002.08,-174.14 1005.63,-172.09"/>
<polygon fill="#63b8ff" stroke="#63b8ff" points="1007.06,-175.29 1014.68,-167.93 1004.14,-168.93 1007.06,-175.29"/>
</g>
<!-- Node50 -->
<g id="node27" class="node">
<title>Node50</title>
<g id="a_node27"><a xlink:href="TransmitterCode_2src_2main_8cpp.html#a083c423be6ce1635de5961d0fc72ff06" target="_top" xlink:title=" ">
<polygon fill="white" stroke="#666666" points="1095,-208 996,-208 996,-189 1095,-189 1095,-208"/>
<text text-anchor="middle" x="1045.5" y="-196" font-family="Helvetica,sans-Serif" font-size="10.00">SetUKFrequencies</text>
</a>
</g>
</g>
<!-- Node18&#45;&gt;Node50 -->
<g id="edge30" class="edge">
<title>Node18&#45;&gt;Node50</title>
<path fill="none" stroke="#63b8ff" d="M930.97,-304.05C940.75,-301.16 951.26,-297.1 960,-291.5 968.26,-286.21 1006.64,-242.42 1028.73,-216.86"/>
<polygon fill="#63b8ff" stroke="#63b8ff" points="1031.18,-219.38 1035.06,-209.52 1025.88,-214.81 1031.18,-219.38"/>
</g>
<!-- Node45&#45;&gt;Node46 -->
<g id="edge21" class="edge">
<title>Node45&#45;&gt;Node46</title>
<path fill="none" stroke="#63b8ff" d="M1072.63,-340.5C1080.33,-336.81 1088.44,-332.13 1095,-326.5 1124.84,-300.9 1148.79,-261.21 1161.51,-237.45"/>
<polygon fill="#63b8ff" stroke="#63b8ff" points="1164.49,-239.31 1165.99,-228.82 1158.28,-236.08 1164.49,-239.31"/>
</g>
<!-- Node45&#45;&gt;Node37 -->
<g id="edge25" class="edge">
<title>Node45&#45;&gt;Node37</title>
<path fill="none" stroke="#63b8ff" d="M1056.61,-340.63C1067.34,-329.69 1084.21,-311.13 1095,-292.5 1099.92,-284 1146.04,-156.3 1164.2,-105.82"/>
<polygon fill="#63b8ff" stroke="#63b8ff" points="1167.4,-107.28 1167.48,-96.69 1160.81,-104.92 1167.4,-107.28"/>
</g>
<!-- Node46&#45;&gt;Node11 -->
<g id="edge22" class="edge">
<title>Node46&#45;&gt;Node11</title>
<path fill="none" stroke="#63b8ff" d="M1170.86,-227.3C1167.02,-283.26 1145.56,-562.09 1095,-628.5 1036.6,-705.2 996.4,-723.5 900,-723.5 729,-723.5 729,-723.5 729,-723.5 724.77,-723.5 538.21,-552.97 477.14,-497.04"/>
<polygon fill="#63b8ff" stroke="#63b8ff" points="479.62,-494.56 469.88,-490.39 474.89,-499.73 479.62,-494.56"/>
</g>
<!-- Node47 -->
<g id="node23" class="node">
<title>Node47</title>
<g id="a_node23"><a xlink:href="Nextion_8h.html#a43937dd3d9c795271fd9c3eb3c6b6410" target="_top" xlink:title=" ">
<polygon fill="white" stroke="#666666" points="1333,-152 1250,-152 1250,-133 1333,-133 1333,-152"/>
<text text-anchor="middle" x="1291.5" y="-140" font-family="Helvetica,sans-Serif" font-size="10.00">GetReturnCode</text>
</a>
</g>
</g>
<!-- Node46&#45;&gt;Node47 -->
<g id="edge23" class="edge">
<title>Node46&#45;&gt;Node47</title>
<path fill="none" stroke="#63b8ff" d="M1188.8,-207.7C1208.33,-195.17 1242.38,-173.35 1265.66,-158.43"/>
<polygon fill="#63b8ff" stroke="#63b8ff" points="1267.4,-161.47 1273.93,-153.12 1263.62,-155.57 1267.4,-161.47"/>
</g>
<!-- Node48 -->
<g id="node24" class="node">
<title>Node48</title>
<g id="a_node24"><a xlink:href="TransmitterCode_2src_2main_8cpp.html#a5f109790a6fe0b972a502f3cac4ed1e7" target="_top" xlink:title=" ">
<polygon fill="white" stroke="#666666" points="1315.5,-227 1267.5,-227 1267.5,-208 1315.5,-208 1315.5,-227"/>
<text text-anchor="middle" x="1291.5" y="-215" font-family="Helvetica,sans-Serif" font-size="10.00">InStrng</text>
</a>
</g>
</g>
<!-- Node46&#45;&gt;Node48 -->
<g id="edge24" class="edge">
<title>Node46&#45;&gt;Node48</title>
<path fill="none" stroke="#63b8ff" d="M1214.42,-217.5C1227.94,-217.5 1242.84,-217.5 1255.85,-217.5"/>
<polygon fill="#63b8ff" stroke="#63b8ff" points="1255.65,-221 1265.65,-217.5 1255.65,-214 1255.65,-221"/>
</g>
<!-- Node49&#45;&gt;Node46 -->
<g id="edge29" class="edge">
<title>Node49&#45;&gt;Node46</title>
<path fill="none" stroke="#63b8ff" d="M1074.91,-171.47C1081.56,-173.96 1088.57,-176.72 1095,-179.5 1111.05,-186.44 1128.55,-195.05 1142.76,-202.32"/>
<polygon fill="#63b8ff" stroke="#63b8ff" points="1141.06,-205.39 1151.55,-206.87 1144.28,-199.17 1141.06,-205.39"/>
</g>
<!-- Node49&#45;&gt;Node47 -->
<g id="edge28" class="edge">
<title>Node49&#45;&gt;Node47</title>
<path fill="none" stroke="#63b8ff" d="M1074.97,-159.28C1114.97,-156.17 1188.5,-150.44 1238.44,-146.55"/>
<polygon fill="#63b8ff" stroke="#63b8ff" points="1238.44,-150.06 1248.14,-145.8 1237.9,-143.09 1238.44,-150.06"/>
</g>
<!-- Node58&#45;&gt;Node55 -->
<g id="edge33" class="edge">
<title>Node58&#45;&gt;Node55</title>
<path fill="none" stroke="#63b8ff" d="M756.47,-601.41C777.86,-609.16 809.41,-619.32 838,-623.5 891.65,-631.35 905.96,-627.95 960,-623.5 976.77,-622.12 995.22,-619.22 1010.6,-616.42"/>
<polygon fill="#63b8ff" stroke="#63b8ff" points="1011.01,-619.91 1020.19,-614.61 1009.71,-613.03 1011.01,-619.91"/>
</g>
<!-- Node60 -->
<g id="node32" class="node">
<title>Node60</title>
<g id="a_node32"><a xlink:href="transceiver_8h.html#adac102739147db6397bbcbb371aec4fd" target="_top" xlink:title=" ">
<polygon fill="#fff0f0" stroke="red" points="943.5,-209 854.5,-209 854.5,-190 943.5,-190 943.5,-209"/>
<text text-anchor="middle" x="899" y="-197" font-family="Helvetica,sans-Serif" font-size="10.00">LoadParameters</text>
</a>
</g>
</g>
<!-- Node59&#45;&gt;Node60 -->
<g id="edge36" class="edge">
<title>Node59&#45;&gt;Node60</title>
<path fill="none" stroke="#63b8ff" d="M774.88,-227.52C795.79,-222.76 821.03,-217.01 843.19,-211.97"/>
<polygon fill="#63b8ff" stroke="#63b8ff" points="843.68,-215.45 852.65,-209.82 842.12,-208.63 843.68,-215.45"/>
</g>
<!-- Node60&#45;&gt;Node50 -->
<g id="edge37" class="edge">
<title>Node60&#45;&gt;Node50</title>
<path fill="none" stroke="#63b8ff" d="M943.75,-199.2C956.53,-199.11 970.73,-199.01 984.35,-198.92"/>
<polygon fill="#63b8ff" stroke="#63b8ff" points="984.11,-202.42 994.09,-198.85 984.06,-195.42 984.11,-202.42"/>
</g>
<!-- Node63&#45;&gt;Node55 -->
<g id="edge44" class="edge">
<title>Node63&#45;&gt;Node55</title>
<path fill="none" stroke="#63b8ff" d="M781.14,-413.45C830.87,-407.29 907.1,-405.79 960,-441.5 1011.32,-476.14 1032.97,-551.65 1040.75,-588.47"/>
<polygon fill="#63b8ff" stroke="#63b8ff" points="1037.31,-589.12 1042.66,-598.26 1044.19,-587.78 1037.31,-589.12"/>
</g>
<!-- Node64 -->
<g id="node34" class="node">
<title>Node64</title>
<g id="a_node34"><a xlink:href="BuddyWireless_8h.html#af59c2527be7a67d6b09dd467f3123d55" target="_top" xlink:title=" ">
<polygon fill="#fff0f0" stroke="red" points="934.5,-470 863.5,-470 863.5,-451 934.5,-451 934.5,-470"/>
<text text-anchor="middle" x="899" y="-458" font-family="Helvetica,sans-Serif" font-size="10.00">GetPupilAck</text>
</a>
</g>
</g>
<!-- Node63&#45;&gt;Node64 -->
<g id="edge39" class="edge">
<title>Node63&#45;&gt;Node64</title>
<path fill="none" stroke="#63b8ff" d="M774.88,-432.48C798.65,-437.89 828.01,-444.57 852.09,-450.05"/>
<polygon fill="#63b8ff" stroke="#63b8ff" points="851.09,-453.42 861.62,-452.22 852.65,-446.59 851.09,-453.42"/>
</g>
<!-- Node66 -->
<g id="node35" class="node">
<title>Node66</title>
<g id="a_node35"><a xlink:href="BuddyWireless_8h.html#a89fc05df708fec875356b62d21b2ce7b" target="_top" xlink:title=" ">
<polygon fill="white" stroke="#666666" points="937.5,-283 860.5,-283 860.5,-264 937.5,-264 937.5,-283"/>
<text text-anchor="middle" x="899" y="-271" font-family="Helvetica,sans-Serif" font-size="10.00">PupilDetected</text>
</a>
</g>
</g>
<!-- Node63&#45;&gt;Node66 -->
<g id="edge41" class="edge">
<title>Node63&#45;&gt;Node66</title>
<path fill="none" stroke="#63b8ff" d="M781.29,-415.84C788.92,-413.01 796.18,-409.04 802,-403.5 839.88,-367.45 800.67,-328.11 838,-291.5 841.41,-288.16 845.41,-285.43 849.7,-283.21"/>
<polygon fill="#63b8ff" stroke="#63b8ff" points="850.81,-286.54 858.7,-279.47 848.13,-280.08 850.81,-286.54"/>
</g>
<!-- Node64&#45;&gt;Node55 -->
<g id="edge40" class="edge">
<title>Node64&#45;&gt;Node55</title>
<path fill="none" stroke="#63b8ff" d="M934.97,-466.52C943.73,-469.19 952.7,-473.01 960,-478.5 998.79,-507.66 1024.69,-560.23 1036.73,-589.12"/>
<polygon fill="#63b8ff" stroke="#63b8ff" points="1033.39,-590.2 1040.36,-598.18 1039.89,-587.6 1033.39,-590.2"/>
</g>
<!-- Node66&#45;&gt;Node46 -->
<g id="edge42" class="edge">
<title>Node66&#45;&gt;Node46</title>
<path fill="none" stroke="#63b8ff" d="M937.75,-265.71C984.99,-255.97 1066.13,-239.23 1119.3,-228.27"/>
<polygon fill="#63b8ff" stroke="#63b8ff" points="1119.95,-231.71 1129.04,-226.26 1118.54,-224.85 1119.95,-231.71"/>
</g>
<!-- Node66&#45;&gt;Node49 -->
<g id="edge43" class="edge">
<title>Node66&#45;&gt;Node49</title>
<path fill="none" stroke="#63b8ff" d="M937.98,-266.6C945.89,-263.83 953.73,-259.94 960,-254.5 987.92,-230.26 968.68,-204.41 996,-179.5 998.91,-176.85 1002.24,-174.58 1005.77,-172.63"/>
<polygon fill="#63b8ff" stroke="#63b8ff" points="1007,-175.92 1014.66,-168.6 1004.11,-169.54 1007,-175.92"/>
</g>
<!-- Node68&#45;&gt;Node17 -->
<g id="edge53" class="edge">
<title>Node68&#45;&gt;Node17</title>
<path fill="none" stroke="#63b8ff" d="M747.13,-487.63C762.77,-477.41 786.37,-460.19 802,-440.5 824.99,-411.54 809.9,-389.53 838,-365.5 838.95,-364.69 839.94,-363.91 840.95,-363.17"/>
<polygon fill="#63b8ff" stroke="#63b8ff" points="842.63,-366.25 849.49,-358.17 839.09,-360.21 842.63,-366.25"/>
</g>
<!-- Node68&#45;&gt;Node55 -->
<g id="edge52" class="edge">
<title>Node68&#45;&gt;Node55</title>
<path fill="none" stroke="#63b8ff" d="M738.85,-507.49C754.98,-527.18 794.06,-570.75 838,-589.5 894.81,-613.74 968.16,-614.48 1010.41,-612.33"/>
<polygon fill="#63b8ff" stroke="#63b8ff" points="1010.43,-615.83 1020.2,-611.73 1010.01,-608.85 1010.43,-615.83"/>
</g>
<!-- Node69 -->
<g id="node38" class="node">
<title>Node69</title>
<g id="a_node38"><a xlink:href="TransmitterCode_2src_2main_8cpp.html#a953f1d5046e183549ed95b08f6d675e3" target="_top" xlink:title=" ">
<polygon fill="#fff0f0" stroke="red" points="948,-544 850,-544 850,-525 948,-525 948,-544"/>
<text text-anchor="middle" x="899" y="-532" font-family="Helvetica,sans-Serif" font-size="10.00">CheckGapsLength</text>
</a>
</g>
</g>
<!-- Node68&#45;&gt;Node69 -->
<g id="edge47" class="edge">
<title>Node68&#45;&gt;Node69</title>
<path fill="none" stroke="#63b8ff" d="M775.75,-507.42C796.16,-511.94 820.53,-517.34 842.12,-522.12"/>
<polygon fill="#63b8ff" stroke="#63b8ff" points="841.13,-525.48 851.65,-524.23 842.64,-518.65 841.13,-525.48"/>
</g>
<!-- Node71 -->
<g id="node39" class="node">
<title>Node71</title>
<g id="a_node39"><a xlink:href="TransmitterCode_2src_2main_8cpp.html#a62e53eb9359c32b666e3386d62c57037" target="_top" xlink:title=" ">
<polygon fill="#fff0f0" stroke="red" points="935,-394 863,-394 863,-375 935,-375 935,-394"/>
<text text-anchor="middle" x="899" y="-382" font-family="Helvetica,sans-Serif" font-size="10.00">GreenLedOn</text>
</a>
</g>
</g>
<!-- Node68&#45;&gt;Node71 -->
<g id="edge48" class="edge">
<title>Node68&#45;&gt;Node71</title>
<path fill="none" stroke="#63b8ff" d="M745.53,-487.67C774.27,-468.22 838.67,-424.65 873.88,-400.82"/>
<polygon fill="#63b8ff" stroke="#63b8ff" points="875.81,-403.74 882.13,-395.24 871.89,-397.94 875.81,-403.74"/>
</g>
<!-- Node84 -->
<g id="node40" class="node">
<title>Node84</title>
<g id="a_node40"><a xlink:href="TransmitterCode_2src_2main_8cpp.html#a694f4f5a0147f4dc29b0bc1a8951547d" target="_top" xlink:title=" ">
<polygon fill="#fff0f0" stroke="red" points="946,-507 852,-507 852,-488 946,-488 946,-507"/>
<text text-anchor="middle" x="899" y="-495" font-family="Helvetica,sans-Serif" font-size="10.00">ParseAckPayload</text>
</a>
</g>
</g>
<!-- Node68&#45;&gt;Node84 -->
<g id="edge51" class="edge">
<title>Node68&#45;&gt;Node84</title>
<path fill="none" stroke="#63b8ff" d="M778.41,-497.5C797.68,-497.5 820.14,-497.5 840.35,-497.5"/>
<polygon fill="#63b8ff" stroke="#63b8ff" points="840.11,-501 850.11,-497.5 840.11,-494 840.11,-501"/>
</g>
<!-- Node82 -->
<g id="node41" class="node">
<title>Node82</title>
<g id="a_node41"><a xlink:href="Utilities_8h.html#a793b7bcd77531c95fe72ed4356d421c8" target="_top" xlink:title=" ">
<polygon fill="white" stroke="#666666" points="954,-581 844,-581 844,-562 954,-562 954,-581"/>
<text text-anchor="middle" x="899" y="-569" font-family="Helvetica,sans-Serif" font-size="10.00">StartInactvityTimeout</text>
</a>
</g>
</g>
<!-- Node68&#45;&gt;Node82 -->
<g id="edge54" class="edge">
<title>Node68&#45;&gt;Node82</title>
<path fill="none" stroke="#63b8ff" d="M748,-507.37C768.76,-519.16 805.17,-538.98 838,-552.5 842.61,-554.4 847.49,-556.23 852.39,-557.95"/>
<polygon fill="#63b8ff" stroke="#63b8ff" points="851.03,-561.18 861.63,-561.04 853.26,-554.55 851.03,-561.18"/>
</g>
<!-- Node71&#45;&gt;Node19 -->
<g id="edge49" class="edge">
<title>Node71&#45;&gt;Node19</title>
<path fill="none" stroke="#63b8ff" d="M935.35,-385.23C950.22,-385.54 967.93,-385.91 984.72,-386.26"/>
<polygon fill="#63b8ff" stroke="#63b8ff" points="984.57,-389.76 994.64,-386.46 984.71,-382.76 984.57,-389.76"/>
</g>
<!-- Node71&#45;&gt;Node45 -->
<g id="edge50" class="edge">
<title>Node71&#45;&gt;Node45</title>
<path fill="none" stroke="#63b8ff" d="M935.35,-376.18C955.75,-371.38 981.51,-365.32 1002.88,-360.29"/>
<polygon fill="#63b8ff" stroke="#63b8ff" points="1003.52,-363.74 1012.45,-358.04 1001.91,-356.93 1003.52,-363.74"/>
</g>
<!-- Node22&#45;&gt;Node11 -->
<g id="edge56" class="edge">
<title>Node22&#45;&gt;Node11</title>
<path fill="none" stroke="#63b8ff" d="M360.91,-466.41C375.54,-468.42 392,-470.69 407.06,-472.76"/>
<polygon fill="#63b8ff" stroke="#63b8ff" points="406.37,-476.2 416.76,-474.1 407.33,-469.27 406.37,-476.2"/>
</g>
<!-- Node181 -->
<g id="node44" class="node">
<title>Node181</title>
<g id="a_node44"><a xlink:href="TransmitterCode_2src_2main_8cpp.html#aee9320d84f0e518a8cc937ac1f706cf4" target="_top" xlink:title=" ">
<polygon fill="white" stroke="#666666" points="500,-621 414,-621 414,-602 500,-602 500,-621"/>
<text text-anchor="middle" x="457" y="-609" font-family="Helvetica,sans-Serif" font-size="10.00">SDRead32BITS</text>
</a>
</g>
</g>
<!-- Node180&#45;&gt;Node181 -->
<g id="edge58" class="edge">
<title>Node180&#45;&gt;Node181</title>
<path fill="none" stroke="#63b8ff" d="M366.27,-611.5C377.93,-611.5 390.46,-611.5 402.35,-611.5"/>
<polygon fill="#63b8ff" stroke="#63b8ff" points="402,-615 412,-611.5 402,-608 402,-615"/>
</g>
<!-- Node180&#45;&gt;Node182 -->
<g id="edge59" class="edge">
<title>Node180&#45;&gt;Node182</title>
<path fill="none" stroke="#63b8ff" d="M360.08,-621.45C366.36,-623.87 372.55,-626.85 378,-630.5 406.93,-649.86 431.01,-682.96 444.44,-704.01"/>
<polygon fill="#63b8ff" stroke="#63b8ff" points="441.45,-705.82 449.67,-712.49 447.4,-702.14 441.45,-705.82"/>
</g>
<!-- Node25 -->
<g id="node46" class="node">
<title>Node25</title>
<g id="a_node46"><a xlink:href="TransmitterCode_2src_2main_8cpp.html#addfb17077b6300576f07ef8c17f88581" target="_top" xlink:title=" ">
<polygon fill="white" stroke="#666666" points="622,-771 536,-771 536,-752 622,-752 622,-771"/>
<text text-anchor="middle" x="579" y="-759" font-family="Helvetica,sans-Serif" font-size="10.00">BuildCheckSum</text>
</a>
</g>
</g>
<!-- Node182&#45;&gt;Node25 -->
<g id="edge60" class="edge">
<title>Node182&#45;&gt;Node25</title>
<path fill="none" stroke="#63b8ff" d="M489.53,-733.48C503.72,-737.98 520.68,-743.35 535.94,-748.18"/>
<polygon fill="#63b8ff" stroke="#63b8ff" points="534.65,-751.44 545.24,-751.13 536.76,-744.77 534.65,-751.44"/>
</g>
<!-- Node183&#45;&gt;Node25 -->
<g id="edge62" class="edge">
<title>Node183&#45;&gt;Node25</title>
<path fill="none" stroke="#63b8ff" d="M490.56,-547.47C494.13,-549.65 497.4,-552.29 500,-555.5 551.89,-619.58 487.86,-670.56 536,-737.5 538.04,-740.34 540.53,-742.89 543.27,-745.17"/>
<polygon fill="#63b8ff" stroke="#63b8ff" points="541.13,-747.95 551.36,-750.71 545.09,-742.17 541.13,-747.95"/>
</g>
<!-- Node211&#45;&gt;Node49 -->
<g id="edge65" class="edge">
<title>Node211&#45;&gt;Node49</title>
<path fill="none" stroke="#63b8ff" d="M937.97,-133.48C958.71,-138.94 984.36,-145.68 1005.29,-151.19"/>
<polygon fill="#63b8ff" stroke="#63b8ff" points="1004.35,-154.56 1014.91,-153.72 1006.13,-147.79 1004.35,-154.56"/>
</g>
<!-- Node211&#45;&gt;Node77 -->
<g id="edge66" class="edge">
<title>Node211&#45;&gt;Node77</title>
<path fill="none" stroke="#63b8ff" d="M952.17,-123.5C968.4,-123.5 986.1,-123.5 1001.63,-123.5"/>
<polygon fill="#63b8ff" stroke="#63b8ff" points="1001.5,-127 1011.5,-123.5 1001.5,-120 1001.5,-127"/>
</g>
<!-- Node77&#45;&gt;Node46 -->
<g id="edge68" class="edge">
<title>Node77&#45;&gt;Node46</title>
<path fill="none" stroke="#63b8ff" d="M1077.43,-133.46C1083.48,-136 1089.61,-139.01 1095,-142.5 1119.28,-158.21 1142.28,-182.51 1156.61,-199.16"/>
<polygon fill="#63b8ff" stroke="#63b8ff" points="1153.91,-201.38 1163.01,-206.8 1159.27,-196.89 1153.91,-201.38"/>
</g>
<!-- Node77&#45;&gt;Node47 -->
<g id="edge67" class="edge">
<title>Node77&#45;&gt;Node47</title>
<path fill="none" stroke="#63b8ff" d="M1077.9,-125.95C1118.53,-129.11 1189.88,-134.67 1238.62,-138.46"/>
<polygon fill="#63b8ff" stroke="#63b8ff" points="1238.13,-141.93 1248.38,-139.22 1238.68,-134.95 1238.13,-141.93"/>
</g>
<!-- Node77&#45;&gt;Node37 -->
<g id="edge69" class="edge">
<title>Node77&#45;&gt;Node37</title>
<path fill="none" stroke="#63b8ff" d="M1077.72,-114.01C1099.02,-107.53 1126.85,-99.07 1146.65,-93.06"/>
<polygon fill="#63b8ff" stroke="#63b8ff" points="1147.54,-96.44 1156.09,-90.19 1145.5,-89.75 1147.54,-96.44"/>
</g>
<!-- Node185&#45;&gt;Node46 -->
<g id="edge72" class="edge">
<title>Node185&#45;&gt;Node46</title>
<path fill="none" stroke="#63b8ff" d="M1052.36,-19.25C1071.67,-51.39 1133.55,-154.36 1159.68,-197.83"/>
<polygon fill="#63b8ff" stroke="#63b8ff" points="1156.58,-199.46 1164.73,-206.23 1162.58,-195.85 1156.58,-199.46"/>
</g>
<!-- Node185&#45;&gt;Node47 -->
<g id="edge71" class="edge">
<title>Node185&#45;&gt;Node47</title>
<path fill="none" stroke="#63b8ff" d="M1086.98,-17.81C1122.37,-26.31 1174.19,-41.81 1214,-66.5 1238.97,-81.98 1262.07,-107.04 1276.22,-124.12"/>
<polygon fill="#63b8ff" stroke="#63b8ff" points="1273.16,-125.91 1282.16,-131.5 1278.61,-121.51 1273.16,-125.91"/>
</g>
</g>
</svg>
