<?xml version="1.0" encoding="UTF-8" standalone="no"?>
<!DOCTYPE svg PUBLIC "-//W3C//DTD SVG 1.1//EN"
 "http://www.w3.org/Graphics/SVG/1.1/DTD/svg11.dtd">
<!-- Generated by graphviz version 7.0.5 (20221223.1930)
 -->
<!-- Title: GetText Pages: 1 -->
<svg width="1220pt" height="1075pt"
 viewBox="0.00 0.00 1220.00 1075.00" xmlns="http://www.w3.org/2000/svg" xmlns:xlink="http://www.w3.org/1999/xlink">
<g id="graph0" class="graph" transform="scale(1 1) rotate(0) translate(4 1071)">
<title>GetText</title>
<!-- Node1 -->
<g id="node1" class="node">
<title>Node1</title>
<g id="a_node1"><a xlink:title=" ">
<polygon fill="#999999" stroke="#666666" points="51,-1010 0,-1010 0,-991 51,-991 51,-1010"/>
<text text-anchor="middle" x="25.5" y="-998" font-family="Helvetica,sans-Serif" font-size="10.00">GetText</text>
</a>
</g>
</g>
<!-- Node2 -->
<g id="node2" class="node">
<title>Node2</title>
<g id="a_node2"><a xlink:href="TransmitterCode_2src_2main_8cpp.html#ad7b8aa834c87265667a5687b1787a1cc" target="_top" xlink:title=" ">
<polygon fill="white" stroke="#666666" points="144.5,-1029 88.5,-1029 88.5,-1010 144.5,-1010 144.5,-1029"/>
<text text-anchor="middle" x="116.5" y="-1017" font-family="Helvetica,sans-Serif" font-size="10.00">EndSend</text>
</a>
</g>
</g>
<!-- Node1&#45;&gt;Node2 -->
<g id="edge1" class="edge">
<title>Node1&#45;&gt;Node2</title>
<path fill="none" stroke="#63b8ff" d="M51.29,-1005.79C59.23,-1007.49 68.22,-1009.41 76.9,-1011.26"/>
<polygon fill="#63b8ff" stroke="#63b8ff" points="76.04,-1014.65 86.55,-1013.32 77.5,-1007.81 76.04,-1014.65"/>
</g>
<!-- Node104 -->
<g id="node50" class="node">
<title>Node104</title>
<g id="a_node50"><a xlink:href="TransmitterCode_2src_2main_8cpp.html#a6fe457db5d6bc71ccb447dee824abf6a" target="_top" xlink:title=" ">
<polygon fill="white" stroke="#666666" points="146,-992 87,-992 87,-973 146,-973 146,-992"/>
<text text-anchor="middle" x="116.5" y="-980" font-family="Helvetica,sans-Serif" font-size="10.00">GetTextIn</text>
</a>
</g>
</g>
<!-- Node1&#45;&gt;Node104 -->
<g id="edge77" class="edge">
<title>Node1&#45;&gt;Node104</title>
<path fill="none" stroke="#63b8ff" d="M51.29,-995.49C58.86,-993.96 67.38,-992.23 75.68,-990.55"/>
<polygon fill="#63b8ff" stroke="#63b8ff" points="76.16,-994.03 85.27,-988.61 74.77,-987.17 76.16,-994.03"/>
</g>
<!-- Node3 -->
<g id="node3" class="node">
<title>Node3</title>
<g id="a_node3"><a xlink:href="RadioFunctions_8cpp.html#a760609a682300dfe6bfaac737fd4d5eb" target="_top" xlink:title=" ">
<polygon fill="white" stroke="#666666" points="256,-1029 182,-1029 182,-1010 256,-1010 256,-1029"/>
<text text-anchor="middle" x="219" y="-1017" font-family="Helvetica,sans-Serif" font-size="10.00">Procrastinate</text>
</a>
</g>
</g>
<!-- Node2&#45;&gt;Node3 -->
<g id="edge2" class="edge">
<title>Node2&#45;&gt;Node3</title>
<path fill="none" stroke="#63b8ff" d="M144.96,-1019.5C152.8,-1019.5 161.58,-1019.5 170.26,-1019.5"/>
<polygon fill="#63b8ff" stroke="#63b8ff" points="170.01,-1023 180.01,-1019.5 170.01,-1016 170.01,-1023"/>
</g>
<!-- Node4 -->
<g id="node4" class="node">
<title>Node4</title>
<g id="a_node4"><a xlink:href="TransmitterCode_2src_2main_8cpp.html#ada95a00a341e4a80176eda743a94ab2e" target="_top" xlink:title=" ">
<polygon fill="white" stroke="#666666" points="362,-1067 292,-1067 292,-1048 362,-1048 362,-1067"/>
<text text-anchor="middle" x="327" y="-1055" font-family="Helvetica,sans-Serif" font-size="10.00">KickTheDog</text>
</a>
</g>
</g>
<!-- Node3&#45;&gt;Node4 -->
<g id="edge3" class="edge">
<title>Node3&#45;&gt;Node4</title>
<path fill="none" stroke="#63b8ff" d="M247.85,-1029.48C260.02,-1033.85 274.5,-1039.04 287.66,-1043.76"/>
<polygon fill="#63b8ff" stroke="#63b8ff" points="286.32,-1046.99 296.91,-1047.07 288.68,-1040.4 286.32,-1046.99"/>
</g>
<!-- Node5 -->
<g id="node5" class="node">
<title>Node5</title>
<g id="a_node5"><a xlink:href="RadioFunctions_8cpp.html#a049bfb836e7aa4a3a48a1a4bd225fafc" target="_top" xlink:title=" ">
<polygon fill="white" stroke="#666666" points="356.5,-691 297.5,-691 297.5,-672 356.5,-672 356.5,-691"/>
<text text-anchor="middle" x="327" y="-679" font-family="Helvetica,sans-Serif" font-size="10.00">SendData</text>
</a>
</g>
</g>
<!-- Node3&#45;&gt;Node5 -->
<g id="edge4" class="edge">
<title>Node3&#45;&gt;Node5</title>
<path fill="none" stroke="#63b8ff" d="M223.06,-1009.75C237.54,-963.58 299.33,-766.55 319.56,-702.04"/>
<polygon fill="#63b8ff" stroke="#63b8ff" points="322.82,-703.32 322.48,-692.73 316.14,-701.23 322.82,-703.32"/>
</g>
<!-- Node6 -->
<g id="node6" class="node">
<title>Node6</title>
<g id="a_node6"><a xlink:href="RadioFunctions_8cpp.html#a1ddd5e8d5bd649dd98ce3710fbff651b" target="_top" xlink:title=" ">
<polygon fill="white" stroke="#666666" points="476.5,-653 415.5,-653 415.5,-634 476.5,-634 476.5,-653"/>
<text text-anchor="middle" x="446" y="-641" font-family="Helvetica,sans-Serif" font-size="10.00">Compress</text>
</a>
</g>
</g>
<!-- Node5&#45;&gt;Node6 -->
<g id="edge5" class="edge">
<title>Node5&#45;&gt;Node6</title>
<path fill="none" stroke="#63b8ff" d="M356.92,-672.11C371.33,-667.43 388.98,-661.69 404.69,-656.59"/>
<polygon fill="#63b8ff" stroke="#63b8ff" points="405.32,-660.07 413.75,-653.65 403.16,-653.41 405.32,-660.07"/>
</g>
<!-- Node7 -->
<g id="node7" class="node">
<title>Node7</title>
<g id="a_node7"><a xlink:href="RadioFunctions_8cpp.html#a5fbd3c8613a4163425c94965704ce5f8" target="_top" xlink:title=" ">
<polygon fill="white" stroke="#666666" points="616,-653 542,-653 542,-634 616,-634 616,-653"/>
<text text-anchor="middle" x="579" y="-641" font-family="Helvetica,sans-Serif" font-size="10.00">FailedPacket</text>
</a>
</g>
</g>
<!-- Node5&#45;&gt;Node7 -->
<g id="edge6" class="edge">
<title>Node5&#45;&gt;Node7</title>
<path fill="none" stroke="#63b8ff" d="M356.92,-679.15C390.15,-676.22 446.24,-670.61 494,-662.5 505.95,-660.47 518.76,-657.82 530.68,-655.15"/>
<polygon fill="#63b8ff" stroke="#63b8ff" points="531.35,-658.58 540.31,-652.93 529.78,-651.76 531.35,-658.58"/>
</g>
<!-- Node35 -->
<g id="node25" class="node">
<title>Node35</title>
<g id="a_node25"><a xlink:href="RadioFunctions_8cpp.html#a07c27b4e208198453c70876517926052" target="_top" xlink:title=" ">
<polygon fill="white" stroke="#666666" points="477,-616 415,-616 415,-597 477,-597 477,-616"/>
<text text-anchor="middle" x="446" y="-604" font-family="Helvetica,sans-Serif" font-size="10.00">FlushFifos</text>
</a>
</g>
</g>
<!-- Node5&#45;&gt;Node35 -->
<g id="edge32" class="edge">
<title>Node5&#45;&gt;Node35</title>
<path fill="none" stroke="#63b8ff" d="M338.2,-671.74C351.24,-659.65 374.9,-639.02 398,-625.5 400.62,-623.97 403.38,-622.51 406.2,-621.12"/>
<polygon fill="#63b8ff" stroke="#63b8ff" points="407.48,-624.39 415.15,-617.08 404.6,-618.01 407.48,-624.39"/>
</g>
<!-- Node36 -->
<g id="node26" class="node">
<title>Node36</title>
<g id="a_node26"><a xlink:href="TransmitterCode_2src_2main_8cpp.html#ac4ffb9b555ce8d38f615610dc89b5499" target="_top" xlink:title=" ">
<polygon fill="white" stroke="#666666" points="769.5,-916 680.5,-916 680.5,-897 769.5,-897 769.5,-916"/>
<text text-anchor="middle" x="725" y="-904" font-family="Helvetica,sans-Serif" font-size="10.00">LoadPacketData</text>
</a>
</g>
</g>
<!-- Node5&#45;&gt;Node36 -->
<g id="edge33" class="edge">
<title>Node5&#45;&gt;Node36</title>
<path fill="none" stroke="#63b8ff" d="M338.38,-691.11C351.6,-703.08 375.45,-723.74 398,-738.5 499.3,-804.82 629.99,-865.31 690.51,-892.04"/>
<polygon fill="#63b8ff" stroke="#63b8ff" points="689.02,-895.21 699.58,-896.02 691.83,-888.8 689.02,-895.21"/>
</g>
<!-- Node39 -->
<g id="node29" class="node">
<title>Node39</title>
<g id="a_node29"><a xlink:href="TransmitterCode_2src_2main_8cpp.html#a784a1eca0361b3991bca899167cc1cdb" target="_top" xlink:title=" ">
<polygon fill="white" stroke="#666666" points="483.5,-729 408.5,-729 408.5,-710 483.5,-710 483.5,-729"/>
<text text-anchor="middle" x="446" y="-717" font-family="Helvetica,sans-Serif" font-size="10.00">SendViaPPM</text>
</a>
</g>
</g>
<!-- Node5&#45;&gt;Node39 -->
<g id="edge38" class="edge">
<title>Node5&#45;&gt;Node39</title>
<path fill="none" stroke="#63b8ff" d="M356.92,-690.89C370.97,-695.46 388.11,-701.02 403.52,-706.03"/>
<polygon fill="#63b8ff" stroke="#63b8ff" points="402.34,-709.32 412.93,-709.08 404.5,-702.67 402.34,-709.32"/>
</g>
<!-- Node40 -->
<g id="node30" class="node">
<title>Node40</title>
<g id="a_node30"><a xlink:href="RadioFunctions_8cpp.html#a1c11bb6771548de7d96723045b922620" target="_top" xlink:title=" ">
<polygon fill="white" stroke="#666666" points="494,-483 398,-483 398,-464 494,-464 494,-483"/>
<text text-anchor="middle" x="446" y="-471" font-family="Helvetica,sans-Serif" font-size="10.00">SuccessfulPacket</text>
</a>
</g>
</g>
<!-- Node5&#45;&gt;Node40 -->
<g id="edge39" class="edge">
<title>Node5&#45;&gt;Node40</title>
<path fill="none" stroke="#63b8ff" d="M333.49,-671.75C351.52,-639.68 409.24,-537.08 433.78,-493.44"/>
<polygon fill="#63b8ff" stroke="#63b8ff" points="436.8,-495.23 438.65,-484.79 430.69,-491.79 436.8,-495.23"/>
</g>
<!-- Node8 -->
<g id="node8" class="node">
<title>Node8</title>
<g id="a_node8"><a xlink:href="TransmitterCode_2src_2main_8cpp.html#afd409fe008843b50c3e2ff697558d4d5" target="_top" xlink:title=" ">
<polygon fill="white" stroke="#666666" points="932,-354 840,-354 840,-335 932,-335 932,-354"/>
<text text-anchor="middle" x="886" y="-342" font-family="Helvetica,sans-Serif" font-size="10.00">LogThisLongGap</text>
</a>
</g>
</g>
<!-- Node7&#45;&gt;Node8 -->
<g id="edge7" class="edge">
<title>Node7&#45;&gt;Node8</title>
<path fill="none" stroke="#63b8ff" d="M589.68,-633.61C600.02,-622.7 616.48,-604.32 628,-586.5 648.07,-555.45 636.11,-535.78 664,-511.5 706.93,-474.12 742.56,-509.29 786,-472.5 812.7,-449.89 800.8,-430.33 822,-402.5 833.74,-387.08 849.86,-372.33 862.86,-361.56"/>
<polygon fill="#63b8ff" stroke="#63b8ff" points="864.89,-364.42 870.48,-355.42 860.5,-358.96 864.89,-364.42"/>
</g>
<!-- Node19 -->
<g id="node11" class="node">
<title>Node19</title>
<g id="a_node11"><a xlink:href="RadioFunctions_8cpp.html#afc091b5942e21a03f6dc8635d5e519ba" target="_top" xlink:title=" ">
<polygon fill="white" stroke="#666666" points="786,-804 664,-804 664,-785 786,-785 786,-804"/>
<text text-anchor="middle" x="725" y="-792" font-family="Helvetica,sans-Serif" font-size="10.00">RecordsPacketSuccess</text>
</a>
</g>
</g>
<!-- Node7&#45;&gt;Node19 -->
<g id="edge10" class="edge">
<title>Node7&#45;&gt;Node19</title>
<path fill="none" stroke="#63b8ff" d="M588.42,-653.17C598.52,-665.02 615.63,-685.94 628,-705.5 646.91,-735.4 636.86,-753.8 664,-776.5 664.96,-777.3 665.95,-778.07 666.98,-778.8"/>
<polygon fill="#63b8ff" stroke="#63b8ff" points="665.14,-781.78 675.55,-783.76 668.64,-775.72 665.14,-781.78"/>
</g>
<!-- Node20 -->
<g id="node12" class="node">
<title>Node20</title>
<g id="a_node12"><a xlink:href="TransmitterCode_2src_2main_8cpp.html#a7d34cec6e8edc20c8b50424e15dcc7c7" target="_top" xlink:title=" ">
<polygon fill="white" stroke="#666666" points="756.5,-767 693.5,-767 693.5,-748 756.5,-748 756.5,-767"/>
<text text-anchor="middle" x="725" y="-755" font-family="Helvetica,sans-Serif" font-size="10.00">RedLedOn</text>
</a>
</g>
</g>
<!-- Node7&#45;&gt;Node20 -->
<g id="edge11" class="edge">
<title>Node7&#45;&gt;Node20</title>
<path fill="none" stroke="#63b8ff" d="M586.78,-653.22C599.82,-671.29 630.14,-710.32 664,-733.5 669.77,-737.45 676.29,-740.9 682.85,-743.86"/>
<polygon fill="#63b8ff" stroke="#63b8ff" points="681.12,-746.93 691.69,-747.53 683.8,-740.46 681.12,-746.93"/>
</g>
<!-- Node29 -->
<g id="node21" class="node">
<title>Node29</title>
<g id="a_node21"><a xlink:href="TransmitterCode_2src_2main_8cpp.html#a0a3d89dfcfab70c6cbc50401fff1afeb" target="_top" xlink:title=" ">
<polygon fill="white" stroke="#666666" points="940.5,-541 831.5,-541 831.5,-522 940.5,-522 940.5,-541"/>
<text text-anchor="middle" x="886" y="-529" font-family="Helvetica,sans-Serif" font-size="10.00">ReEnableScanButton</text>
</a>
</g>
</g>
<!-- Node7&#45;&gt;Node29 -->
<g id="edge26" class="edge">
<title>Node7&#45;&gt;Node29</title>
<path fill="none" stroke="#63b8ff" d="M604.17,-633.53C647.47,-615.81 741.31,-578.13 822,-550.5 827.67,-548.56 833.67,-546.61 839.62,-544.75"/>
<polygon fill="#63b8ff" stroke="#63b8ff" points="840.22,-548.23 848.75,-541.94 838.16,-541.53 840.22,-548.23"/>
</g>
<!-- Node30 -->
<g id="node22" class="node">
<title>Node30</title>
<g id="a_node22"><a xlink:href="RadioFunctions_8cpp.html#ad0236abcfc887ad708d9504c4ab2a7c3" target="_top" xlink:title=" ">
<polygon fill="white" stroke="#666666" points="769,-539 681,-539 681,-520 769,-520 769,-539"/>
<text text-anchor="middle" x="725" y="-527" font-family="Helvetica,sans-Serif" font-size="10.00">TryToReconnect</text>
</a>
</g>
</g>
<!-- Node7&#45;&gt;Node30 -->
<g id="edge29" class="edge">
<title>Node7&#45;&gt;Node30</title>
<path fill="none" stroke="#63b8ff" d="M592.53,-633.58C617.1,-614.13 671.89,-570.76 702.41,-546.59"/>
<polygon fill="#63b8ff" stroke="#63b8ff" points="704.54,-549.37 710.21,-540.42 700.2,-543.88 704.54,-549.37"/>
</g>
<!-- Node9 -->
<g id="node9" class="node">
<title>Node9</title>
<g id="a_node9"><a xlink:href="TransmitterCode_2src_2main_8cpp.html#add8d8f400f1c1c4a5add52736cdf94ca" target="_top" xlink:title=" ">
<polygon fill="#fff0f0" stroke="red" points="1065.5,-392 1013.5,-392 1013.5,-373 1065.5,-373 1065.5,-392"/>
<text text-anchor="middle" x="1039.5" y="-380" font-family="Helvetica,sans-Serif" font-size="10.00">LogText</text>
</a>
</g>
</g>
<!-- Node8&#45;&gt;Node9 -->
<g id="edge8" class="edge">
<title>Node8&#45;&gt;Node9</title>
<path fill="none" stroke="#63b8ff" d="M926.8,-354.48C950.2,-360.35 979.56,-367.72 1002.31,-373.42"/>
<polygon fill="#63b8ff" stroke="#63b8ff" points="1001.19,-376.75 1011.74,-375.79 1002.89,-369.96 1001.19,-376.75"/>
</g>
<!-- Node14 -->
<g id="node10" class="node">
<title>Node14</title>
<g id="a_node10"><a xlink:href="TransmitterCode_2src_2main_8cpp.html#a590a9174319918d7e3d7baca323fcf26" target="_top" xlink:title=" ">
<polygon fill="white" stroke="#666666" points="1054,-354 1025,-354 1025,-335 1054,-335 1054,-354"/>
<text text-anchor="middle" x="1039.5" y="-342" font-family="Helvetica,sans-Serif" font-size="10.00">Str</text>
</a>
</g>
</g>
<!-- Node8&#45;&gt;Node14 -->
<g id="edge9" class="edge">
<title>Node8&#45;&gt;Node14</title>
<path fill="none" stroke="#63b8ff" d="M932.45,-344.5C958.95,-344.5 991.37,-344.5 1013.34,-344.5"/>
<polygon fill="#63b8ff" stroke="#63b8ff" points="1013.14,-348 1023.14,-344.5 1013.14,-341 1013.14,-348"/>
</g>
<!-- Node21 -->
<g id="node13" class="node">
<title>Node21</title>
<g id="a_node13"><a xlink:href="TransmitterCode_2src_2main_8cpp.html#a549a702bb9b539c6b3a4f20cce65adcc" target="_top" xlink:title=" ">
<polygon fill="white" stroke="#666666" points="935,-728 837,-728 837,-709 935,-709 935,-728"/>
<text text-anchor="middle" x="886" y="-716" font-family="Helvetica,sans-Serif" font-size="10.00">GetLEDBrightness</text>
</a>
</g>
</g>
<!-- Node20&#45;&gt;Node21 -->
<g id="edge12" class="edge">
<title>Node20&#45;&gt;Node21</title>
<path fill="none" stroke="#63b8ff" d="M756.66,-749.98C778.43,-744.64 808.19,-737.34 833.57,-731.12"/>
<polygon fill="#63b8ff" stroke="#63b8ff" points="834.16,-734.57 843.03,-728.79 832.49,-727.78 834.16,-734.57"/>
</g>
<!-- Node22 -->
<g id="node14" class="node">
<title>Node22</title>
<g id="a_node14"><a xlink:href="TransmitterCode_2src_2main_8cpp.html#a2d5ec5fd5ed62d5b7b071fabe2225405" target="_top" xlink:title=" ">
<polygon fill="white" stroke="#666666" points="934,-765 838,-765 838,-746 934,-746 934,-765"/>
<text text-anchor="middle" x="886" y="-753" font-family="Helvetica,sans-Serif" font-size="10.00">LogDisConnection</text>
</a>
</g>
</g>
<!-- Node20&#45;&gt;Node22 -->
<g id="edge13" class="edge">
<title>Node20&#45;&gt;Node22</title>
<path fill="none" stroke="#63b8ff" d="M756.66,-757.11C776.35,-756.87 802.58,-756.54 826.2,-756.24"/>
<polygon fill="#63b8ff" stroke="#63b8ff" points="826.07,-759.74 836.02,-756.12 825.98,-752.74 826.07,-759.74"/>
</g>
<!-- Node23 -->
<g id="node15" class="node">
<title>Node23</title>
<g id="a_node15"><a xlink:href="TransmitterCode_2src_2main_8cpp.html#aa490b4664b0a4498d53b30b82287d5df" target="_top" xlink:title=" ">
<polygon fill="white" stroke="#666666" points="917.5,-615 854.5,-615 854.5,-596 917.5,-596 917.5,-615"/>
<text text-anchor="middle" x="886" y="-603" font-family="Helvetica,sans-Serif" font-size="10.00">PlaySound</text>
</a>
</g>
</g>
<!-- Node20&#45;&gt;Node23 -->
<g id="edge15" class="edge">
<title>Node20&#45;&gt;Node23</title>
<path fill="none" stroke="#63b8ff" d="M735.99,-747.52C753.33,-730.24 790.2,-693.69 822,-663.5 836.57,-649.66 853.32,-634.26 865.89,-622.81"/>
<polygon fill="#63b8ff" stroke="#63b8ff" points="868.04,-625.59 873.09,-616.27 863.33,-620.41 868.04,-625.59"/>
</g>
<!-- Node24 -->
<g id="node16" class="node">
<title>Node24</title>
<g id="a_node16"><a xlink:href="TransmitterCode_2src_2main_8cpp.html#aecac2f0c289f02ef3c92b85be82eacac" target="_top" xlink:title=" ">
<polygon fill="white" stroke="#666666" points="1081,-709 998,-709 998,-690 1081,-690 1081,-709"/>
<text text-anchor="middle" x="1039.5" y="-697" font-family="Helvetica,sans-Serif" font-size="10.00">SendCommand</text>
</a>
</g>
</g>
<!-- Node20&#45;&gt;Node24 -->
<g id="edge21" class="edge">
<title>Node20&#45;&gt;Node24</title>
<path fill="none" stroke="#63b8ff" d="M756.77,-764.27C766.53,-767.18 777.09,-771.17 786,-776.5 805.15,-787.95 801.32,-803.11 822,-811.5 874.71,-832.9 898.8,-836.3 950,-811.5 989.42,-792.41 1016.6,-746.29 1029.64,-719.57"/>
<polygon fill="#63b8ff" stroke="#63b8ff" points="1032.67,-721.35 1033.72,-710.81 1026.33,-718.39 1032.67,-721.35"/>
</g>
<!-- Node27 -->
<g id="node19" class="node">
<title>Node27</title>
<g id="a_node19"><a xlink:href="TransmitterCode_2src_2main_8cpp.html#afe513398f72d5e48f691830a1ef6eb42" target="_top" xlink:title=" ">
<polygon fill="white" stroke="#666666" points="915,-802 857,-802 857,-783 915,-783 915,-802"/>
<text text-anchor="middle" x="886" y="-790" font-family="Helvetica,sans-Serif" font-size="10.00">SendText</text>
</a>
</g>
</g>
<!-- Node20&#45;&gt;Node27 -->
<g id="edge22" class="edge">
<title>Node20&#45;&gt;Node27</title>
<path fill="none" stroke="#63b8ff" d="M756.66,-764.25C781.92,-769.81 817.94,-777.74 845.39,-783.78"/>
<polygon fill="#63b8ff" stroke="#63b8ff" points="844.58,-787.19 855.1,-785.92 846.08,-780.35 844.58,-787.19"/>
</g>
<!-- Node28 -->
<g id="node20" class="node">
<title>Node28</title>
<g id="a_node20"><a xlink:href="ReceiverCode_2src_2main_8cpp.html#a2eabdb233653fa02f0b899e26b5e8ce7" target="_top" xlink:title=" ">
<polygon fill="white" stroke="#666666" points="935.5,-878 836.5,-878 836.5,-859 935.5,-859 935.5,-878"/>
<text text-anchor="middle" x="886" y="-866" font-family="Helvetica,sans-Serif" font-size="10.00">SetUKFrequencies</text>
</a>
</g>
</g>
<!-- Node20&#45;&gt;Node28 -->
<g id="edge25" class="edge">
<title>Node20&#45;&gt;Node28</title>
<path fill="none" stroke="#63b8ff" d="M756.96,-762.44C767.06,-765.25 777.78,-769.64 786,-776.5 812.26,-798.41 796.38,-821.85 822,-844.5 826.06,-848.09 830.71,-851.17 835.61,-853.8"/>
<polygon fill="#63b8ff" stroke="#63b8ff" points="833.99,-856.9 844.53,-857.96 836.95,-850.56 833.99,-856.9"/>
</g>
<!-- Node22&#45;&gt;Node9 -->
<g id="edge14" class="edge">
<title>Node22&#45;&gt;Node9</title>
<path fill="none" stroke="#63b8ff" d="M934.48,-747.95C940.26,-745.39 945.65,-742 950,-737.5 997.38,-688.49 1027.52,-472.1 1036.03,-403.47"/>
<polygon fill="#63b8ff" stroke="#63b8ff" points="1039.45,-404.29 1037.18,-393.95 1032.5,-403.45 1039.45,-404.29"/>
</g>
<!-- Node23&#45;&gt;Node14 -->
<g id="edge20" class="edge">
<title>Node23&#45;&gt;Node14</title>
<path fill="none" stroke="#63b8ff" d="M917.97,-603.56C929.59,-601.24 941.92,-596.6 950,-587.5 1016.94,-512.09 921.7,-441.17 986,-363.5 992.84,-355.24 1003.58,-350.57 1013.57,-347.93"/>
<polygon fill="#63b8ff" stroke="#63b8ff" points="1014.09,-351.39 1023.19,-345.97 1012.69,-344.53 1014.09,-351.39"/>
</g>
<!-- Node23&#45;&gt;Node24 -->
<g id="edge16" class="edge">
<title>Node23&#45;&gt;Node24</title>
<path fill="none" stroke="#63b8ff" d="M917.97,-615.17C928.46,-618.99 940.03,-623.83 950,-629.5 976.25,-644.41 1002.98,-666.74 1020.08,-682.15"/>
<polygon fill="#63b8ff" stroke="#63b8ff" points="1017.25,-684.3 1026.99,-688.48 1021.98,-679.14 1017.25,-684.3"/>
</g>
<!-- Node24&#45;&gt;Node3 -->
<g id="edge19" class="edge">
<title>Node24&#45;&gt;Node3</title>
<path fill="none" stroke="#63b8ff" d="M1037.1,-709.33C1030.15,-756.79 997.68,-961.57 950,-1000.5 872.61,-1063.69 825.91,-1019.5 726,-1019.5 445,-1019.5 445,-1019.5 445,-1019.5 383.73,-1019.5 313.08,-1019.5 267.54,-1019.5"/>
<polygon fill="#63b8ff" stroke="#63b8ff" points="267.75,-1016 257.75,-1019.5 267.75,-1023 267.75,-1016"/>
</g>
<!-- Node25 -->
<g id="node17" class="node">
<title>Node25</title>
<g id="a_node17"><a xlink:href="TransmitterCode_2src_2main_8cpp.html#a43937dd3d9c795271fd9c3eb3c6b6410" target="_top" xlink:title=" ">
<polygon fill="white" stroke="#666666" points="1212,-764 1129,-764 1129,-745 1212,-745 1212,-764"/>
<text text-anchor="middle" x="1170.5" y="-752" font-family="Helvetica,sans-Serif" font-size="10.00">GetReturnCode</text>
</a>
</g>
</g>
<!-- Node24&#45;&gt;Node25 -->
<g id="edge17" class="edge">
<title>Node24&#45;&gt;Node25</title>
<path fill="none" stroke="#63b8ff" d="M1063.86,-709.46C1083.95,-718.03 1113.18,-730.49 1135.81,-740.13"/>
<polygon fill="#63b8ff" stroke="#63b8ff" points="1134.35,-743.32 1144.92,-744.02 1137.09,-736.88 1134.35,-743.32"/>
</g>
<!-- Node26 -->
<g id="node18" class="node">
<title>Node26</title>
<g id="a_node18"><a xlink:href="TransmitterCode_2src_2main_8cpp.html#a5f109790a6fe0b972a502f3cac4ed1e7" target="_top" xlink:title=" ">
<polygon fill="white" stroke="#666666" points="1194.5,-709 1146.5,-709 1146.5,-690 1194.5,-690 1194.5,-709"/>
<text text-anchor="middle" x="1170.5" y="-697" font-family="Helvetica,sans-Serif" font-size="10.00">InStrng</text>
</a>
</g>
</g>
<!-- Node24&#45;&gt;Node26 -->
<g id="edge18" class="edge">
<title>Node24&#45;&gt;Node26</title>
<path fill="none" stroke="#63b8ff" d="M1081.32,-699.5C1098.54,-699.5 1118.38,-699.5 1134.88,-699.5"/>
<polygon fill="#63b8ff" stroke="#63b8ff" points="1134.7,-703 1144.7,-699.5 1134.7,-696 1134.7,-703"/>
</g>
<!-- Node27&#45;&gt;Node24 -->
<g id="edge24" class="edge">
<title>Node27&#45;&gt;Node24</title>
<path fill="none" stroke="#63b8ff" d="M915.27,-787.13C926.5,-784.32 939.26,-780.24 950,-774.5 978.14,-759.47 1005.33,-734.33 1021.98,-717.34"/>
<polygon fill="#63b8ff" stroke="#63b8ff" points="1024.25,-720.04 1028.63,-710.39 1019.19,-715.2 1024.25,-720.04"/>
</g>
<!-- Node27&#45;&gt;Node25 -->
<g id="edge23" class="edge">
<title>Node27&#45;&gt;Node25</title>
<path fill="none" stroke="#63b8ff" d="M915.38,-788.68C962.6,-782.33 1057.99,-769.5 1117.52,-761.49"/>
<polygon fill="#63b8ff" stroke="#63b8ff" points="1117.98,-764.96 1127.43,-760.16 1117.05,-758.02 1117.98,-764.96"/>
</g>
<!-- Node29&#45;&gt;Node14 -->
<g id="edge28" class="edge">
<title>Node29&#45;&gt;Node14</title>
<path fill="none" stroke="#63b8ff" d="M939.44,-521.53C943.33,-519.35 946.93,-516.7 950,-513.5 997.43,-464 940.3,-414.61 986,-363.5 993.15,-355.5 1003.93,-350.87 1013.87,-348.18"/>
<polygon fill="#63b8ff" stroke="#63b8ff" points="1014.34,-351.66 1023.4,-346.16 1012.89,-344.82 1014.34,-351.66"/>
</g>
<!-- Node29&#45;&gt;Node24 -->
<g id="edge27" class="edge">
<title>Node29&#45;&gt;Node24</title>
<path fill="none" stroke="#63b8ff" d="M934.34,-541.49C939.94,-543.88 945.32,-546.84 950,-550.5 993.71,-584.69 1020.37,-646.96 1031.87,-679.1"/>
<polygon fill="#63b8ff" stroke="#63b8ff" points="1028.49,-680.05 1035.04,-688.38 1035.12,-677.79 1028.49,-680.05"/>
</g>
<!-- Node31 -->
<g id="node23" class="node">
<title>Node31</title>
<g id="a_node23"><a xlink:href="RadioFunctions_8cpp.html#a52aa3e80bccf5e75346c93fdae63122d" target="_top" xlink:title=" ">
<polygon fill="#fff0f0" stroke="red" points="936.5,-467 835.5,-467 835.5,-448 936.5,-448 936.5,-467"/>
<text text-anchor="middle" x="886" y="-455" font-family="Helvetica,sans-Serif" font-size="10.00">HopToNextChannel</text>
</a>
</g>
</g>
<!-- Node30&#45;&gt;Node31 -->
<g id="edge30" class="edge">
<title>Node30&#45;&gt;Node31</title>
<path fill="none" stroke="#63b8ff" d="M755.81,-519.59C765.72,-515.77 776.61,-511 786,-505.5 803.73,-495.13 803.83,-486.09 822,-476.5 825.49,-474.66 829.19,-472.97 832.97,-471.42"/>
<polygon fill="#63b8ff" stroke="#63b8ff" points="834.17,-474.71 842.34,-467.96 831.74,-468.14 834.17,-474.71"/>
</g>
<!-- Node33 -->
<g id="node24" class="node">
<title>Node33</title>
<g id="a_node24"><a xlink:href="RadioFunctions_8cpp.html#ad0e30213b21808d00110752679788a8c" target="_top" xlink:title=" ">
<polygon fill="#fff0f0" stroke="red" points="923,-504 849,-504 849,-485 923,-485 923,-504"/>
<text text-anchor="middle" x="886" y="-492" font-family="Helvetica,sans-Serif" font-size="10.00">TryOtherPipe</text>
</a>
</g>
</g>
<!-- Node30&#45;&gt;Node33 -->
<g id="edge31" class="edge">
<title>Node30&#45;&gt;Node33</title>
<path fill="none" stroke="#63b8ff" d="M769.45,-519.94C790.49,-515.3 815.81,-509.73 837.38,-504.98"/>
<polygon fill="#63b8ff" stroke="#63b8ff" points="838.11,-508.41 847.12,-502.84 836.6,-501.57 838.11,-508.41"/>
</g>
<!-- Node36&#45;&gt;Node24 -->
<g id="edge35" class="edge">
<title>Node36&#45;&gt;Node24</title>
<path fill="none" stroke="#63b8ff" d="M769.87,-914.82C818.42,-921.5 896.81,-924.49 950,-887.5 1007.19,-847.72 1028.46,-760.99 1035.45,-720.77"/>
<polygon fill="#63b8ff" stroke="#63b8ff" points="1038.9,-721.38 1037.02,-710.96 1031.99,-720.28 1038.9,-721.38"/>
</g>
<!-- Node36&#45;&gt;Node28 -->
<g id="edge37" class="edge">
<title>Node36&#45;&gt;Node28</title>
<path fill="none" stroke="#63b8ff" d="M767.78,-896.52C787.51,-891.8 811.28,-886.12 832.24,-881.11"/>
<polygon fill="#63b8ff" stroke="#63b8ff" points="832.84,-884.56 841.76,-878.84 831.22,-877.76 832.84,-884.56"/>
</g>
<!-- Node37 -->
<g id="node27" class="node">
<title>Node37</title>
<g id="a_node27"><a xlink:href="TransmitterCode_2src_2main_8cpp.html#a5aa4888b924a4f1d95e9cedc3004f2b6" target="_top" xlink:title=" ">
<polygon fill="white" stroke="#666666" points="927.5,-954 844.5,-954 844.5,-935 927.5,-935 927.5,-954"/>
<text text-anchor="middle" x="886" y="-942" font-family="Helvetica,sans-Serif" font-size="10.00">MakeTwobytes</text>
</a>
</g>
</g>
<!-- Node36&#45;&gt;Node37 -->
<g id="edge34" class="edge">
<title>Node36&#45;&gt;Node37</title>
<path fill="none" stroke="#63b8ff" d="M767.78,-916.48C787.74,-921.26 811.84,-927.02 832.98,-932.07"/>
<polygon fill="#63b8ff" stroke="#63b8ff" points="832.04,-935.44 842.58,-934.36 833.67,-928.63 832.04,-935.44"/>
</g>
<!-- Node38 -->
<g id="node28" class="node">
<title>Node38</title>
<g id="a_node28"><a xlink:href="ReceiverCode_2src_2main_8cpp.html#a31a35307bbac88ceda244272f25d399a" target="_top" xlink:title=" ">
<polygon fill="white" stroke="#666666" points="938,-991 834,-991 834,-972 938,-972 938,-991"/>
<text text-anchor="middle" x="886" y="-979" font-family="Helvetica,sans-Serif" font-size="10.00">SetTestFrequencies</text>
</a>
</g>
</g>
<!-- Node36&#45;&gt;Node38 -->
<g id="edge36" class="edge">
<title>Node36&#45;&gt;Node38</title>
<path fill="none" stroke="#63b8ff" d="M740.02,-916.4C758.19,-928.86 791.21,-950.22 822,-963.5 825.77,-965.13 829.74,-966.65 833.76,-968.07"/>
<polygon fill="#63b8ff" stroke="#63b8ff" points="832.44,-971.32 843.03,-971.12 834.62,-964.67 832.44,-971.32"/>
</g>
<!-- Node40&#45;&gt;Node19 -->
<g id="edge75" class="edge">
<title>Node40&#45;&gt;Node19</title>
<path fill="none" stroke="#63b8ff" d="M451.07,-483.47C466.11,-520.21 518.31,-646.8 530,-662.5 576.69,-725.23 595.31,-739.14 664,-776.5 666.64,-777.94 669.41,-779.27 672.25,-780.51"/>
<polygon fill="#63b8ff" stroke="#63b8ff" points="670.74,-783.68 681.33,-784.05 673.28,-777.16 670.74,-783.68"/>
</g>
<!-- Node41 -->
<g id="node31" class="node">
<title>Node41</title>
<g id="a_node31"><a xlink:href="TransmitterCode_2src_2main_8cpp.html#a953f1d5046e183549ed95b08f6d675e3" target="_top" xlink:title=" ">
<polygon fill="white" stroke="#666666" points="628,-331 530,-331 530,-312 628,-312 628,-331"/>
<text text-anchor="middle" x="579" y="-319" font-family="Helvetica,sans-Serif" font-size="10.00">CheckGapsLength</text>
</a>
</g>
</g>
<!-- Node40&#45;&gt;Node41 -->
<g id="edge40" class="edge">
<title>Node40&#45;&gt;Node41</title>
<path fill="none" stroke="#63b8ff" d="M453.53,-463.69C466.85,-443.98 498.54,-398.58 530,-364.5 538.45,-355.35 548.63,-346.02 557.43,-338.41"/>
<polygon fill="#63b8ff" stroke="#63b8ff" points="559.46,-341.28 564.83,-332.15 554.93,-335.94 559.46,-341.28"/>
</g>
<!-- Node43 -->
<g id="node33" class="node">
<title>Node43</title>
<g id="a_node33"><a xlink:href="TransmitterCode_2src_2main_8cpp.html#a62e53eb9359c32b666e3386d62c57037" target="_top" xlink:title=" ">
<polygon fill="white" stroke="#666666" points="615,-577 543,-577 543,-558 615,-558 615,-577"/>
<text text-anchor="middle" x="579" y="-565" font-family="Helvetica,sans-Serif" font-size="10.00">GreenLedOn</text>
</a>
</g>
</g>
<!-- Node40&#45;&gt;Node43 -->
<g id="edge44" class="edge">
<title>Node40&#45;&gt;Node43</title>
<path fill="none" stroke="#63b8ff" d="M460.53,-483.21C482.88,-499.25 527.79,-531.47 555.14,-551.1"/>
<polygon fill="#63b8ff" stroke="#63b8ff" points="552.96,-553.84 563.12,-556.82 557.04,-548.15 552.96,-553.84"/>
</g>
<!-- Node55 -->
<g id="node38" class="node">
<title>Node55</title>
<g id="a_node38"><a xlink:href="TransmitterCode_2src_2main_8cpp.html#a793b7bcd77531c95fe72ed4356d421c8" target="_top" xlink:title=" ">
<polygon fill="white" stroke="#666666" points="941,-578 831,-578 831,-559 941,-559 941,-578"/>
<text text-anchor="middle" x="886" y="-566" font-family="Helvetica,sans-Serif" font-size="10.00">StartInactvityTimeout</text>
</a>
</g>
</g>
<!-- Node40&#45;&gt;Node55 -->
<g id="edge76" class="edge">
<title>Node40&#45;&gt;Node55</title>
<path fill="none" stroke="#63b8ff" d="M460.38,-463.65C509.57,-428.69 682.93,-316.99 786,-398.5 840.45,-441.56 774.05,-500.3 822,-550.5 822.48,-551 822.97,-551.49 823.47,-551.96"/>
<polygon fill="#63b8ff" stroke="#63b8ff" points="821.17,-554.62 831.32,-557.65 825.28,-548.95 821.17,-554.62"/>
</g>
<!-- Node57 -->
<g id="node40" class="node">
<title>Node57</title>
<g id="a_node40"><a xlink:href="TransmitterCode_2src_2main_8cpp.html#a694f4f5a0147f4dc29b0bc1a8951547d" target="_top" xlink:title=" ">
<polygon fill="white" stroke="#666666" points="772,-204 678,-204 678,-185 772,-185 772,-204"/>
<text text-anchor="middle" x="725" y="-192" font-family="Helvetica,sans-Serif" font-size="10.00">ParseAckPayload</text>
</a>
</g>
</g>
<!-- Node40&#45;&gt;Node57 -->
<g id="edge60" class="edge">
<title>Node40&#45;&gt;Node57</title>
<path fill="none" stroke="#63b8ff" d="M449.47,-463.8C457.04,-435.67 482.39,-352.86 530,-302.5 573.49,-256.5 641,-225.08 683.83,-208.46"/>
<polygon fill="#63b8ff" stroke="#63b8ff" points="684.89,-211.8 693.01,-204.99 682.42,-205.25 684.89,-211.8"/>
</g>
<!-- Node42 -->
<g id="node32" class="node">
<title>Node42</title>
<g id="a_node32"><a xlink:href="TransmitterCode_2src_2main_8cpp.html#a1fadc7cdd854f8b3628b622da5417d8b" target="_top" xlink:title=" ">
<polygon fill="white" stroke="#666666" points="921,-317 851,-317 851,-298 921,-298 921,-317"/>
<text text-anchor="middle" x="886" y="-305" font-family="Helvetica,sans-Serif" font-size="10.00">LogThisGap</text>
</a>
</g>
</g>
<!-- Node41&#45;&gt;Node42 -->
<g id="edge41" class="edge">
<title>Node41&#45;&gt;Node42</title>
<path fill="none" stroke="#63b8ff" d="M628.33,-319.28C686.19,-316.63 782.39,-312.21 839.14,-309.61"/>
<polygon fill="#63b8ff" stroke="#63b8ff" points="839.28,-313.1 849.11,-309.15 838.96,-306.11 839.28,-313.1"/>
</g>
<!-- Node42&#45;&gt;Node9 -->
<g id="edge42" class="edge">
<title>Node42&#45;&gt;Node9</title>
<path fill="none" stroke="#63b8ff" d="M921.36,-313.86C931.05,-316.55 941.31,-320.31 950,-325.5 969.69,-337.27 966.83,-349.9 986,-362.5 991.14,-365.88 996.94,-368.81 1002.76,-371.31"/>
<polygon fill="#63b8ff" stroke="#63b8ff" points="1001.12,-374.42 1011.71,-374.79 1003.66,-367.9 1001.12,-374.42"/>
</g>
<!-- Node42&#45;&gt;Node14 -->
<g id="edge43" class="edge">
<title>Node42&#45;&gt;Node14</title>
<path fill="none" stroke="#63b8ff" d="M921.38,-315.9C949.44,-322.75 988.42,-332.27 1013.56,-338.41"/>
<polygon fill="#63b8ff" stroke="#63b8ff" points="1012.66,-341.79 1023.21,-340.76 1014.32,-334.99 1012.66,-341.79"/>
</g>
<!-- Node43&#45;&gt;Node21 -->
<g id="edge46" class="edge">
<title>Node43&#45;&gt;Node21</title>
<path fill="none" stroke="#63b8ff" d="M589.07,-577.33C599.18,-588.54 615.72,-607.62 628,-625.5 646.48,-652.4 636.96,-671.22 664,-689.5 711.39,-721.53 777.73,-726.24 825.34,-724.5"/>
<polygon fill="#63b8ff" stroke="#63b8ff" points="825.38,-728.01 835.2,-724.03 825.04,-721.01 825.38,-728.01"/>
</g>
<!-- Node43&#45;&gt;Node23 -->
<g id="edge51" class="edge">
<title>Node43&#45;&gt;Node23</title>
<path fill="none" stroke="#63b8ff" d="M615.29,-571.9C671.74,-578.93 782.15,-592.69 842.73,-600.23"/>
<polygon fill="#63b8ff" stroke="#63b8ff" points="842.29,-603.71 852.65,-601.47 843.15,-596.76 842.29,-603.71"/>
</g>
<!-- Node44 -->
<g id="node34" class="node">
<title>Node44</title>
<g id="a_node34"><a xlink:href="TransmitterCode_2src_2main_8cpp.html#a82b1900a80d1622896601c57d6edaeda" target="_top" xlink:title=" ">
<polygon fill="white" stroke="#666666" points="774,-426 676,-426 676,-407 774,-407 774,-426"/>
<text text-anchor="middle" x="725" y="-414" font-family="Helvetica,sans-Serif" font-size="10.00">ClearSuccessRate</text>
</a>
</g>
</g>
<!-- Node43&#45;&gt;Node44 -->
<g id="edge45" class="edge">
<title>Node43&#45;&gt;Node44</title>
<path fill="none" stroke="#63b8ff" d="M583.55,-557.55C592.81,-533.04 620.07,-469.27 664,-435.5 665.94,-434.01 667.99,-432.64 670.13,-431.37"/>
<polygon fill="#63b8ff" stroke="#63b8ff" points="671.2,-434.75 678.58,-427.15 668.07,-428.49 671.2,-434.75"/>
</g>
<!-- Node45 -->
<g id="node35" class="node">
<title>Node45</title>
<g id="a_node35"><a xlink:href="TransmitterCode_2src_2main_8cpp.html#aaa3e86084c43b049d52d7d62c58a00b9" target="_top" xlink:title=" ">
<polygon fill="#fff0f0" stroke="red" points="766,-350 684,-350 684,-331 766,-331 766,-350"/>
<text text-anchor="middle" x="725" y="-338" font-family="Helvetica,sans-Serif" font-size="10.00">LogConnection</text>
</a>
</g>
</g>
<!-- Node43&#45;&gt;Node45 -->
<g id="edge47" class="edge">
<title>Node43&#45;&gt;Node45</title>
<path fill="none" stroke="#63b8ff" d="M583.51,-557.7C593.45,-530.69 623.75,-453.49 664,-398.5 675.18,-383.22 690.58,-368.43 702.98,-357.6"/>
<polygon fill="#63b8ff" stroke="#63b8ff" points="705.24,-360.28 710.61,-351.14 700.72,-354.94 705.24,-360.28"/>
</g>
<!-- Node47 -->
<g id="node36" class="node">
<title>Node47</title>
<g id="a_node36"><a xlink:href="TransmitterCode_2src_2main_8cpp.html#a2e38b32674344cfc06b09a71dfcaf3f1" target="_top" xlink:title=" ">
<polygon fill="white" stroke="#666666" points="948.5,-691 823.5,-691 823.5,-672 948.5,-672 948.5,-691"/>
<text text-anchor="middle" x="886" y="-679" font-family="Helvetica,sans-Serif" font-size="10.00">MakeBindButtonInvisible</text>
</a>
</g>
</g>
<!-- Node43&#45;&gt;Node47 -->
<g id="edge49" class="edge">
<title>Node43&#45;&gt;Node47</title>
<path fill="none" stroke="#63b8ff" d="M588.03,-577.38C607.05,-600.68 654.02,-657.48 664,-662.5 709.41,-685.35 766.75,-689.69 811.65,-688.53"/>
<polygon fill="#63b8ff" stroke="#63b8ff" points="811.69,-692.03 821.56,-688.17 811.44,-685.03 811.69,-692.03"/>
</g>
<!-- Node48 -->
<g id="node37" class="node">
<title>Node48</title>
<g id="a_node37"><a xlink:href="TransmitterCode_2src_2main_8cpp.html#a5d3a46c21927cf7a3031a1e68e0b7b48" target="_top" xlink:title="SHOW COMMS.">
<polygon fill="#fff0f0" stroke="red" points="762.5,-653 687.5,-653 687.5,-634 762.5,-634 762.5,-653"/>
<text text-anchor="middle" x="725" y="-641" font-family="Helvetica,sans-Serif" font-size="10.00">ShowComms</text>
</a>
</g>
</g>
<!-- Node43&#45;&gt;Node48 -->
<g id="edge52" class="edge">
<title>Node43&#45;&gt;Node48</title>
<path fill="none" stroke="#63b8ff" d="M609.49,-577.49C637.42,-590.47 678.66,-612.45 703.28,-627.65"/>
<polygon fill="#63b8ff" stroke="#63b8ff" points="701.14,-630.44 711.45,-632.89 704.92,-624.55 701.14,-630.44"/>
</g>
<!-- Node56 -->
<g id="node39" class="node">
<title>Node56</title>
<g id="a_node39"><a xlink:href="TransmitterCode_2src_2main_8cpp.html#a6da9a1fd0b003151f79eabc702ba80ff" target="_top" xlink:title=" ">
<polygon fill="white" stroke="#666666" points="768.5,-463 681.5,-463 681.5,-444 768.5,-444 768.5,-463"/>
<text text-anchor="middle" x="725" y="-451" font-family="Helvetica,sans-Serif" font-size="10.00">ZeroDataScreen</text>
</a>
</g>
</g>
<!-- Node43&#45;&gt;Node56 -->
<g id="edge59" class="edge">
<title>Node43&#45;&gt;Node56</title>
<path fill="none" stroke="#63b8ff" d="M586.78,-557.78C599.82,-539.71 630.14,-500.68 664,-477.5 669.34,-473.85 675.32,-470.62 681.37,-467.82"/>
<polygon fill="#63b8ff" stroke="#63b8ff" points="682.32,-471.22 690.15,-464.09 679.58,-464.78 682.32,-471.22"/>
</g>
<!-- Node45&#45;&gt;Node9 -->
<g id="edge48" class="edge">
<title>Node45&#45;&gt;Node9</title>
<path fill="none" stroke="#63b8ff" d="M764.08,-350.45C781.61,-354.72 802.75,-359.42 822,-362.5 884.69,-372.53 958.45,-378.02 1001.68,-380.6"/>
<polygon fill="#63b8ff" stroke="#63b8ff" points="1001.34,-384.08 1011.52,-381.16 1001.74,-377.09 1001.34,-384.08"/>
</g>
<!-- Node47&#45;&gt;Node24 -->
<g id="edge50" class="edge">
<title>Node47&#45;&gt;Node24</title>
<path fill="none" stroke="#63b8ff" d="M948.62,-688.82C961.16,-690.31 974.24,-691.86 986.41,-693.31"/>
<polygon fill="#63b8ff" stroke="#63b8ff" points="985.91,-696.78 996.25,-694.48 986.73,-689.82 985.91,-696.78"/>
</g>
<!-- Node48&#45;&gt;Node23 -->
<g id="edge55" class="edge">
<title>Node48&#45;&gt;Node23</title>
<path fill="none" stroke="#63b8ff" d="M762.88,-634.69C786.9,-628.94 818.3,-621.44 843.25,-615.48"/>
<polygon fill="#63b8ff" stroke="#63b8ff" points="843.82,-618.94 852.73,-613.21 842.19,-612.13 843.82,-618.94"/>
</g>
<!-- Node48&#45;&gt;Node24 -->
<g id="edge56" class="edge">
<title>Node48&#45;&gt;Node24</title>
<path fill="none" stroke="#63b8ff" d="M762.62,-643.46C807.42,-644.16 885.3,-647.83 950,-663.5 970.23,-668.4 991.9,-677.15 1008.73,-684.8"/>
<polygon fill="#63b8ff" stroke="#63b8ff" points="1007.11,-687.9 1017.66,-688.97 1010.08,-681.56 1007.11,-687.9"/>
</g>
<!-- Node48&#45;&gt;Node27 -->
<g id="edge57" class="edge">
<title>Node48&#45;&gt;Node27</title>
<path fill="none" stroke="#63b8ff" d="M732.07,-653.42C749.14,-681 797.82,-757.66 822,-774.5 829,-779.37 837.29,-782.93 845.53,-785.54"/>
<polygon fill="#63b8ff" stroke="#63b8ff" points="844.57,-788.9 855.14,-788.13 846.4,-782.14 844.57,-788.9"/>
</g>
<!-- Node48&#45;&gt;Node43 -->
<g id="edge53" class="edge">
<title>Node48&#45;&gt;Node43</title>
<path fill="none" stroke="#63b8ff" d="M694.78,-633.63C666.86,-620.68 625.48,-598.63 600.78,-583.38"/>
<polygon fill="#63b8ff" stroke="#63b8ff" points="602.88,-580.57 592.57,-578.12 599.11,-586.47 602.88,-580.57"/>
</g>
<!-- Node48&#45;&gt;Node47 -->
<g id="edge54" class="edge">
<title>Node48&#45;&gt;Node47</title>
<path fill="none" stroke="#63b8ff" d="M762.88,-652.31C783.44,-657.23 809.4,-663.43 832.1,-668.86"/>
<polygon fill="#63b8ff" stroke="#63b8ff" points="831.26,-672.26 841.8,-671.18 832.89,-665.45 831.26,-672.26"/>
</g>
<!-- Node48&#45;&gt;Node55 -->
<g id="edge58" class="edge">
<title>Node48&#45;&gt;Node55</title>
<path fill="none" stroke="#63b8ff" d="M756.59,-633.61C766.33,-629.85 776.93,-625.1 786,-619.5 804.21,-608.25 803.31,-597.95 822,-587.5 825.24,-585.69 828.67,-584.03 832.2,-582.52"/>
<polygon fill="#63b8ff" stroke="#63b8ff" points="833.45,-585.79 841.53,-578.94 830.94,-579.25 833.45,-585.79"/>
</g>
<!-- Node57&#45;&gt;Node31 -->
<g id="edge72" class="edge">
<title>Node57&#45;&gt;Node31</title>
<path fill="none" stroke="#63b8ff" d="M731.33,-204.49C742.49,-225.64 768.68,-276.69 786,-321.5 805.76,-372.65 782.88,-401.08 822,-439.5 823.19,-440.67 824.45,-441.77 825.78,-442.79"/>
<polygon fill="#63b8ff" stroke="#63b8ff" points="823.57,-445.55 833.93,-447.8 827.24,-439.58 823.57,-445.55"/>
</g>
<!-- Node58 -->
<g id="node41" class="node">
<title>Node58</title>
<g id="a_node41"><a xlink:href="TransmitterCode_2src_2main_8cpp.html#a75fa77e7bbb1cfe8fe6e1a216fbdc17e" target="_top" xlink:title=" ">
<polygon fill="white" stroke="#666666" points="918.5,-19 853.5,-19 853.5,0 918.5,0 918.5,-19"/>
<text text-anchor="middle" x="886" y="-7" font-family="Helvetica,sans-Serif" font-size="10.00">GetAltitude</text>
</a>
</g>
</g>
<!-- Node57&#45;&gt;Node58 -->
<g id="edge61" class="edge">
<title>Node57&#45;&gt;Node58</title>
<path fill="none" stroke="#63b8ff" d="M728.7,-184.86C737.24,-156.23 766.42,-70.97 822,-27.5 827.95,-22.85 835.05,-19.4 842.31,-16.84"/>
<polygon fill="#63b8ff" stroke="#63b8ff" points="843.25,-20.21 851.86,-14.03 841.28,-13.49 843.25,-20.21"/>
</g>
<!-- Node59 -->
<g id="node42" class="node">
<title>Node59</title>
<g id="a_node42"><a xlink:href="TransmitterCode_2src_2main_8cpp.html#ab5736b017daadeb2c1d7dc73489d31a6" target="_top" xlink:title=" ">
<polygon fill="white" stroke="#666666" points="1093,-56 986,-56 986,-37 1093,-37 1093,-56"/>
<text text-anchor="middle" x="1039.5" y="-44" font-family="Helvetica,sans-Serif" font-size="10.00">GetFromAckPayload</text>
</a>
</g>
</g>
<!-- Node57&#45;&gt;Node59 -->
<g id="edge64" class="edge">
<title>Node57&#45;&gt;Node59</title>
<path fill="none" stroke="#63b8ff" d="M748.62,-204.41C791.4,-221.49 885.6,-251.14 950,-212.5 1003.34,-180.49 1026.3,-104.22 1034.56,-67.27"/>
<polygon fill="#63b8ff" stroke="#63b8ff" points="1037.91,-68.35 1036.51,-57.85 1031.05,-66.93 1037.91,-68.35"/>
</g>
<!-- Node60 -->
<g id="node43" class="node">
<title>Node60</title>
<g id="a_node43"><a xlink:href="TransmitterCode_2src_2main_8cpp.html#a160b9119423c34869b16a4ebdc421d35" target="_top" xlink:title=" ">
<polygon fill="white" stroke="#666666" points="949.5,-167 822.5,-167 822.5,-148 949.5,-148 949.5,-167"/>
<text text-anchor="middle" x="886" y="-155" font-family="Helvetica,sans-Serif" font-size="10.00">GetDateFromAckPayload</text>
</a>
</g>
</g>
<!-- Node57&#45;&gt;Node60 -->
<g id="edge63" class="edge">
<title>Node57&#45;&gt;Node60</title>
<path fill="none" stroke="#63b8ff" d="M768.61,-184.58C787.86,-180.11 810.81,-174.76 831.23,-170.01"/>
<polygon fill="#63b8ff" stroke="#63b8ff" points="831.85,-173.46 840.8,-167.79 830.27,-166.64 831.85,-173.46"/>
</g>
<!-- Node61 -->
<g id="node44" class="node">
<title>Node61</title>
<g id="a_node44"><a xlink:href="TransmitterCode_2src_2main_8cpp.html#a494cb4acb30856d1f53f08df1b80c41b" target="_top" xlink:title=" ">
<polygon fill="#fff0f0" stroke="red" points="945.5,-430 826.5,-430 826.5,-411 945.5,-411 945.5,-430"/>
<text text-anchor="middle" x="886" y="-418" font-family="Helvetica,sans-Serif" font-size="10.00">GetModelsMacAddress</text>
</a>
</g>
</g>
<!-- Node57&#45;&gt;Node61 -->
<g id="edge65" class="edge">
<title>Node57&#45;&gt;Node61</title>
<path fill="none" stroke="#63b8ff" d="M730.27,-204.24C742.29,-231.1 778.45,-307.86 822,-362.5 834.23,-377.84 850.59,-392.78 863.58,-403.65"/>
<polygon fill="#63b8ff" stroke="#63b8ff" points="861.2,-406.23 871.15,-409.84 865.62,-400.81 861.2,-406.23"/>
</g>
<!-- Node96 -->
<g id="node45" class="node">
<title>Node96</title>
<g id="a_node45"><a xlink:href="TransmitterCode_2src_2main_8cpp.html#a4f813935d8fe58355228cbbf25e12f96" target="_top" xlink:title=" ">
<polygon fill="#fff0f0" stroke="red" points="942.5,-280 829.5,-280 829.5,-261 942.5,-261 942.5,-280"/>
<text text-anchor="middle" x="886" y="-268" font-family="Helvetica,sans-Serif" font-size="10.00">GetRXVersionNumber</text>
</a>
</g>
</g>
<!-- Node57&#45;&gt;Node96 -->
<g id="edge67" class="edge">
<title>Node57&#45;&gt;Node96</title>
<path fill="none" stroke="#63b8ff" d="M742.65,-204.4C761.53,-215.41 793.4,-233.38 822,-246.5 829.61,-249.99 837.88,-253.4 845.85,-256.51"/>
<polygon fill="#63b8ff" stroke="#63b8ff" points="844.44,-259.72 855.03,-260 846.92,-253.17 844.44,-259.72"/>
</g>
<!-- Node98 -->
<g id="node46" class="node">
<title>Node98</title>
<g id="a_node46"><a xlink:href="TransmitterCode_2src_2main_8cpp.html#a19f6fc09d690832e74fd3c679207f07f" target="_top" xlink:title=" ">
<polygon fill="white" stroke="#666666" points="929.5,-56 842.5,-56 842.5,-37 929.5,-37 929.5,-56"/>
<text text-anchor="middle" x="886" y="-44" font-family="Helvetica,sans-Serif" font-size="10.00">GetTemperature</text>
</a>
</g>
</g>
<!-- Node57&#45;&gt;Node98 -->
<g id="edge69" class="edge">
<title>Node57&#45;&gt;Node98</title>
<path fill="none" stroke="#63b8ff" d="M730.45,-184.63C741.93,-160.3 774.97,-97.12 822,-64.5 825.04,-62.39 828.32,-60.53 831.73,-58.88"/>
<polygon fill="#63b8ff" stroke="#63b8ff" points="832.94,-62.17 840.87,-55.14 830.29,-55.7 832.94,-62.17"/>
</g>
<!-- Node99 -->
<g id="node47" class="node">
<title>Node99</title>
<g id="a_node47"><a xlink:href="TransmitterCode_2src_2main_8cpp.html#a86523345ecdd52f3d93dccd6fcf4370a" target="_top" xlink:title=" ">
<polygon fill="white" stroke="#666666" points="950,-130 822,-130 822,-111 950,-111 950,-130"/>
<text text-anchor="middle" x="886" y="-118" font-family="Helvetica,sans-Serif" font-size="10.00">GetTimeFromAckPayload</text>
</a>
</g>
</g>
<!-- Node57&#45;&gt;Node99 -->
<g id="edge71" class="edge">
<title>Node57&#45;&gt;Node99</title>
<path fill="none" stroke="#63b8ff" d="M740.36,-184.57C758.63,-172.32 791.47,-151.52 822,-138.5 825.78,-136.89 829.75,-135.37 833.77,-133.96"/>
<polygon fill="#63b8ff" stroke="#63b8ff" points="834.63,-137.36 843.05,-130.92 832.45,-130.71 834.63,-137.36"/>
</g>
<!-- Node100 -->
<g id="node48" class="node">
<title>Node100</title>
<g id="a_node48"><a xlink:href="TransmitterCode_2src_2main_8cpp.html#a7a48851f0d38e4a0dd727a30d9515cf1" target="_top" xlink:title=" ">
<polygon fill="white" stroke="#666666" points="923.5,-93 848.5,-93 848.5,-74 923.5,-74 923.5,-93"/>
<text text-anchor="middle" x="886" y="-81" font-family="Helvetica,sans-Serif" font-size="10.00">ReadTheRTC</text>
</a>
</g>
</g>
<!-- Node57&#45;&gt;Node100 -->
<g id="edge73" class="edge">
<title>Node57&#45;&gt;Node100</title>
<path fill="none" stroke="#63b8ff" d="M733.31,-184.74C747.99,-165.82 783.02,-124.02 822,-101.5 826.74,-98.76 831.92,-96.42 837.21,-94.42"/>
<polygon fill="#63b8ff" stroke="#63b8ff" points="838.3,-97.74 846.68,-91.25 836.09,-91.1 838.3,-97.74"/>
</g>
<!-- Node101 -->
<g id="node49" class="node">
<title>Node101</title>
<g id="a_node49"><a xlink:href="TransmitterCode_2src_2main_8cpp.html#abb1ea95b6b3f033883aa87682d3240ab" target="_top" xlink:title=" ">
<polygon fill="#fff0f0" stroke="red" points="948,-204 824,-204 824,-185 948,-185 948,-204"/>
<text text-anchor="middle" x="886" y="-192" font-family="Helvetica,sans-Serif" font-size="10.00">SynchRTCwithGPSTime</text>
</a>
</g>
</g>
<!-- Node57&#45;&gt;Node101 -->
<g id="edge74" class="edge">
<title>Node57&#45;&gt;Node101</title>
<path fill="none" stroke="#63b8ff" d="M772.42,-194.5C784.95,-194.5 798.82,-194.5 812.41,-194.5"/>
<polygon fill="#63b8ff" stroke="#63b8ff" points="812.22,-198 822.22,-194.5 812.22,-191 812.22,-198"/>
</g>
<!-- Node58&#45;&gt;Node59 -->
<g id="edge62" class="edge">
<title>Node58&#45;&gt;Node59</title>
<path fill="none" stroke="#63b8ff" d="M918.76,-17.26C938.36,-22.04 963.96,-28.3 986.46,-33.79"/>
<polygon fill="#63b8ff" stroke="#63b8ff" points="985.54,-37.17 996.09,-36.14 987.2,-30.37 985.54,-37.17"/>
</g>
<!-- Node61&#45;&gt;Node24 -->
<g id="edge66" class="edge">
<title>Node61&#45;&gt;Node24</title>
<path fill="none" stroke="#63b8ff" d="M936.69,-430.36C941.57,-432.77 946.14,-435.77 950,-439.5 1019.12,-506.23 1034.26,-628.99 1037.57,-678.24"/>
<polygon fill="#63b8ff" stroke="#63b8ff" points="1034.07,-678.28 1038.12,-688.07 1041.06,-677.89 1034.07,-678.28"/>
</g>
<!-- Node96&#45;&gt;Node14 -->
<g id="edge68" class="edge">
<title>Node96&#45;&gt;Node14</title>
<path fill="none" stroke="#63b8ff" d="M928.27,-280.45C935.64,-282.75 943.15,-285.43 950,-288.5 974,-299.25 999.12,-315.73 1016.45,-328.03"/>
<polygon fill="#63b8ff" stroke="#63b8ff" points="1014.3,-330.79 1024.45,-333.83 1018.4,-325.12 1014.3,-330.79"/>
</g>
<!-- Node98&#45;&gt;Node59 -->
<g id="edge70" class="edge">
<title>Node98&#45;&gt;Node59</title>
<path fill="none" stroke="#63b8ff" d="M929.6,-46.5C943.48,-46.5 959.21,-46.5 974.31,-46.5"/>
<polygon fill="#63b8ff" stroke="#63b8ff" points="974.18,-50 984.18,-46.5 974.18,-43 974.18,-50"/>
</g>
</g>
</svg>
