<?xml version="1.0" encoding="UTF-8" standalone="no"?>
<!DOCTYPE svg PUBLIC "-//W3C//DTD SVG 1.1//EN"
 "http://www.w3.org/Graphics/SVG/1.1/DTD/svg11.dtd">
<!-- Generated by graphviz version 7.0.5 (20221223.1930)
 -->
<!-- Title: GetTextIn Pages: 1 -->
<svg width="1068pt" height="1056pt"
 viewBox="0.00 0.00 1068.00 1056.45" xmlns="http://www.w3.org/2000/svg" xmlns:xlink="http://www.w3.org/1999/xlink">
<g id="graph0" class="graph" transform="scale(1 1) rotate(0) translate(4 1052.45)">
<title>GetTextIn</title>
<!-- Node1 -->
<g id="node1" class="node">
<title>Node1</title>
<g id="a_node1"><a xlink:title=" ">
<polygon fill="#999999" stroke="#666666" points="1060,-809 1001,-809 1001,-790 1060,-790 1060,-809"/>
<text text-anchor="middle" x="1030.5" y="-797" font-family="Helvetica,sans-Serif" font-size="10.00">GetTextIn</text>
</a>
</g>
</g>
<!-- Node2 -->
<g id="node2" class="node">
<title>Node2</title>
<g id="a_node2"><a xlink:href="TransmitterCode_2src_2main_8cpp.html#ac8919b32f9c38cc65c7b93cae664acfb" target="_top" xlink:title=" ">
<polygon fill="white" stroke="#666666" points="876,-809 795,-809 795,-790 876,-790 876,-809"/>
<text text-anchor="middle" x="835.5" y="-797" font-family="Helvetica,sans-Serif" font-size="10.00">GetOtherValue</text>
</a>
</g>
</g>
<!-- Node1&#45;&gt;Node2 -->
<g id="edge1" class="edge">
<title>Node1&#45;&gt;Node2</title>
<path fill="none" stroke="#63b8ff" d="M989.5,-799.5C956.34,-799.5 909.44,-799.5 876.33,-799.5"/>
<polygon fill="#63b8ff" stroke="#63b8ff" points="989.09,-803 999.09,-799.5 989.09,-796 989.09,-803"/>
</g>
<!-- Node13 -->
<g id="node13" class="node">
<title>Node13</title>
<g id="a_node13"><a xlink:href="TransmitterCode_2src_2main_8cpp.html#a8e271ca29dc3c90bcf0e465b41bd71ff" target="_top" xlink:title=" ">
<polygon fill="white" stroke="#666666" points="721,-923 670,-923 670,-904 721,-904 721,-923"/>
<text text-anchor="middle" x="695.5" y="-911" font-family="Helvetica,sans-Serif" font-size="10.00">GetText</text>
</a>
</g>
</g>
<!-- Node1&#45;&gt;Node13 -->
<g id="edge16" class="edge">
<title>Node1&#45;&gt;Node13</title>
<path fill="none" stroke="#63b8ff" d="M990.05,-813.01C920.72,-836.74 778.93,-885.28 721.49,-904.94"/>
<polygon fill="#63b8ff" stroke="#63b8ff" points="990.77,-816.46 999.1,-809.91 988.5,-809.84 990.77,-816.46"/>
</g>
<!-- Node16 -->
<g id="node16" class="node">
<title>Node16</title>
<g id="a_node16"><a xlink:href="TransmitterCode_2src_2main_8cpp.html#aff6fa8906188d3249b01bf59de47df2f" target="_top" xlink:title=" ">
<polygon fill="white" stroke="#666666" points="965,-621 912,-621 912,-602 965,-602 965,-621"/>
<text text-anchor="middle" x="938.5" y="-609" font-family="Helvetica,sans-Serif" font-size="10.00">getvalue</text>
</a>
</g>
</g>
<!-- Node1&#45;&gt;Node16 -->
<g id="edge22" class="edge">
<title>Node1&#45;&gt;Node16</title>
<path fill="none" stroke="#63b8ff" d="M1019.82,-779.28C1000.6,-739.13 958.26,-650.68 944.17,-621.25"/>
<polygon fill="#63b8ff" stroke="#63b8ff" points="1016.66,-780.78 1024.13,-788.29 1022.97,-777.76 1016.66,-780.78"/>
</g>
<!-- Node3 -->
<g id="node3" class="node">
<title>Node3</title>
<g id="a_node3"><a xlink:href="TransmitterCode_2src_2main_8cpp.html#a804fdbdd5eab4c596bbe8a23eecbe4d5" target="_top" xlink:title=" ">
<polygon fill="white" stroke="#666666" points="592,-772 491,-772 491,-753 592,-753 592,-772"/>
<text text-anchor="middle" x="541.5" y="-760" font-family="Helvetica,sans-Serif" font-size="10.00">ButtonWasPressed</text>
</a>
</g>
</g>
<!-- Node2&#45;&gt;Node3 -->
<g id="edge2" class="edge">
<title>Node2&#45;&gt;Node3</title>
<path fill="none" stroke="#63b8ff" d="M783.46,-795.73C742.42,-792.39 683.35,-786.9 632,-779.5 618.54,-777.56 604.02,-775.01 590.67,-772.47"/>
<polygon fill="#63b8ff" stroke="#63b8ff" points="783.04,-799.2 793.29,-796.51 783.6,-792.23 783.04,-799.2"/>
</g>
<!-- Node4 -->
<g id="node4" class="node">
<title>Node4</title>
<g id="a_node4"><a xlink:href="TransmitterCode_2src_2main_8cpp.html#afb7c85cac4aa89fd998ed81c330374d2" target="_top" xlink:title=" ">
<polygon fill="white" stroke="#666666" points="451,-807 305,-807 305,-788 451,-788 451,-807"/>
<text text-anchor="middle" x="378" y="-795" font-family="Helvetica,sans-Serif" font-size="10.00">CheckForNextionButtonPress</text>
</a>
</g>
</g>
<!-- Node3&#45;&gt;Node4 -->
<g id="edge3" class="edge">
<title>Node3&#45;&gt;Node4</title>
<path fill="none" stroke="#63b8ff" d="M483.61,-774.83C464.4,-778.99 443.22,-783.58 424.96,-787.54"/>
<polygon fill="#63b8ff" stroke="#63b8ff" points="484.14,-778.3 493.17,-772.76 482.66,-771.45 484.14,-778.3"/>
</g>
<!-- Node9 -->
<g id="node9" class="node">
<title>Node9</title>
<g id="a_node9"><a xlink:href="TransmitterCode_2src_2main_8cpp.html#ab7c9edf843c732d7fe296564f39bc0dc" target="_top" xlink:title="RECEIVE A MODEL FILE.">
<polygon fill="white" stroke="#666666" points="111,-855 17,-855 17,-836 111,-836 111,-855"/>
<text text-anchor="middle" x="64" y="-843" font-family="Helvetica,sans-Serif" font-size="10.00">ReceiveModelFile</text>
</a>
</g>
</g>
<!-- Node3&#45;&gt;Node9 -->
<g id="edge15" class="edge">
<title>Node3&#45;&gt;Node9</title>
<path fill="none" stroke="#63b8ff" d="M493.33,-777.01C491.15,-778.1 489.03,-779.26 487,-780.5 467.95,-792.12 471.34,-806.31 451,-815.5 391.51,-842.38 200.06,-845.74 111.16,-845.8"/>
<polygon fill="#63b8ff" stroke="#63b8ff" points="494.7,-780.23 502.44,-773 491.88,-773.82 494.7,-780.23"/>
</g>
<!-- Node5 -->
<g id="node5" class="node">
<title>Node5</title>
<g id="a_node5"><a xlink:href="TransmitterCode_2src_2main_8cpp.html#a641d6dab68ec7b2a8a32492aac55bc1c" target="_top" xlink:title=" ">
<polygon fill="white" stroke="#666666" points="269,-883 164,-883 164,-864 269,-864 269,-883"/>
<text text-anchor="middle" x="216.5" y="-871" font-family="Helvetica,sans-Serif" font-size="10.00">GetBackupFilename</text>
</a>
</g>
</g>
<!-- Node4&#45;&gt;Node5 -->
<g id="edge4" class="edge">
<title>Node4&#45;&gt;Node5</title>
<path fill="none" stroke="#63b8ff" d="M346.08,-812.23C314.34,-827.36 265.82,-850.47 238.36,-863.56"/>
<polygon fill="#63b8ff" stroke="#63b8ff" points="347.26,-815.55 354.78,-808.09 344.25,-809.23 347.26,-815.55"/>
</g>
<!-- Node7 -->
<g id="node7" class="node">
<title>Node7</title>
<g id="a_node7"><a xlink:href="TransmitterCode_2src_2main_8cpp.html#a6506bf72e0dd9e9ce480156b47625bff" target="_top" xlink:title=" ">
<polygon fill="white" stroke="#666666" points="259.5,-807 173.5,-807 173.5,-788 259.5,-788 259.5,-807"/>
<text text-anchor="middle" x="216.5" y="-795" font-family="Helvetica,sans-Serif" font-size="10.00">GetConfirmation</text>
</a>
</g>
</g>
<!-- Node4&#45;&gt;Node7 -->
<g id="edge7" class="edge">
<title>Node4&#45;&gt;Node7</title>
<path fill="none" stroke="#63b8ff" d="M293.55,-797.5C281.89,-797.5 270.35,-797.5 259.9,-797.5"/>
<polygon fill="#63b8ff" stroke="#63b8ff" points="293.2,-801 303.2,-797.5 293.2,-794 293.2,-801"/>
</g>
<!-- Node11 -->
<g id="node11" class="node">
<title>Node11</title>
<g id="a_node11"><a xlink:href="TransmitterCode_2src_2main_8cpp.html#a558ea014e230b7caa54ce5a37ad29b22" target="_top" xlink:title=" ">
<polygon fill="white" stroke="#666666" points="267,-761 166,-761 166,-742 267,-742 267,-761"/>
<text text-anchor="middle" x="216.5" y="-749" font-family="Helvetica,sans-Serif" font-size="10.00">ManageTransmitter</text>
</a>
</g>
</g>
<!-- Node4&#45;&gt;Node11 -->
<g id="edge13" class="edge">
<title>Node4&#45;&gt;Node11</title>
<path fill="none" stroke="#63b8ff" d="M331.58,-784.4C306.3,-777.11 275.33,-768.18 252.04,-761.46"/>
<polygon fill="#63b8ff" stroke="#63b8ff" points="330.36,-787.69 340.94,-787.1 332.3,-780.97 330.36,-787.69"/>
</g>
<!-- Node5&#45;&gt;Node3 -->
<g id="edge5" class="edge">
<title>Node5&#45;&gt;Node3</title>
<path fill="none" stroke="#63b8ff" d="M280.49,-882.37C330.87,-886.09 401.1,-883.36 451,-849.5 479.62,-830.08 460.71,-802.97 487,-780.5 490.8,-777.25 495.21,-774.58 499.83,-772.39"/>
<polygon fill="#63b8ff" stroke="#63b8ff" points="280.86,-878.89 270.6,-881.53 280.27,-885.87 280.86,-878.89"/>
</g>
<!-- Node6 -->
<g id="node6" class="node">
<title>Node6</title>
<g id="a_node6"><a xlink:href="TransmitterCode_2src_2main_8cpp.html#a9d94366336f1e5fd43edb9c24bec5821" target="_top" xlink:title=" ">
<polygon fill="white" stroke="#666666" points="98,-925 30,-925 30,-906 98,-906 98,-925"/>
<text text-anchor="middle" x="64" y="-913" font-family="Helvetica,sans-Serif" font-size="10.00">RenameFile</text>
</a>
</g>
</g>
<!-- Node5&#45;&gt;Node6 -->
<g id="edge6" class="edge">
<title>Node5&#45;&gt;Node6</title>
<path fill="none" stroke="#63b8ff" d="M168.99,-886.48C146.14,-892.86 119.12,-900.4 98.35,-906.19"/>
<polygon fill="#63b8ff" stroke="#63b8ff" points="169.68,-889.92 178.38,-883.86 167.8,-883.18 169.68,-889.92"/>
</g>
<!-- Node7&#45;&gt;Node3 -->
<g id="edge8" class="edge">
<title>Node7&#45;&gt;Node3</title>
<path fill="none" stroke="#63b8ff" d="M268.49,-785.12C280.41,-782.59 293.1,-780.19 305,-778.5 368.7,-769.47 442.84,-765.5 490.66,-763.78"/>
<polygon fill="#63b8ff" stroke="#63b8ff" points="267.85,-781.67 258.83,-787.24 269.35,-788.51 267.85,-781.67"/>
</g>
<!-- Node7&#45;&gt;Node6 -->
<g id="edge11" class="edge">
<title>Node7&#45;&gt;Node6</title>
<path fill="none" stroke="#63b8ff" d="M193.94,-814.4C161.98,-839.46 103.05,-885.67 77.43,-905.75"/>
<polygon fill="#63b8ff" stroke="#63b8ff" points="196.03,-817.22 201.74,-808.29 191.71,-811.71 196.03,-817.22"/>
</g>
<!-- Node8 -->
<g id="node8" class="node">
<title>Node8</title>
<g id="a_node8"><a xlink:href="TransmitterCode_2src_2main_8cpp.html#ae9f91b9da28f2e1e2fb126961f03c31c" target="_top" xlink:title=" ">
<polygon fill="white" stroke="#666666" points="104.5,-781 23.5,-781 23.5,-762 104.5,-762 104.5,-781"/>
<text text-anchor="middle" x="64" y="-769" font-family="Helvetica,sans-Serif" font-size="10.00">ModelViewEnd</text>
</a>
</g>
</g>
<!-- Node7&#45;&gt;Node8 -->
<g id="edge9" class="edge">
<title>Node7&#45;&gt;Node8</title>
<path fill="none" stroke="#63b8ff" d="M162.07,-788.27C143.25,-785.02 122.45,-781.42 104.94,-778.4"/>
<polygon fill="#63b8ff" stroke="#63b8ff" points="161.24,-791.68 171.69,-789.93 162.43,-784.78 161.24,-791.68"/>
</g>
<!-- Node7&#45;&gt;Node9 -->
<g id="edge10" class="edge">
<title>Node7&#45;&gt;Node9</title>
<path fill="none" stroke="#63b8ff" d="M175.15,-811.13C160.35,-816.06 143.44,-821.61 128,-826.5 118.52,-829.5 108.21,-832.65 98.73,-835.51"/>
<polygon fill="#63b8ff" stroke="#63b8ff" points="176.19,-814.47 184.56,-807.98 173.97,-807.83 176.19,-814.47"/>
</g>
<!-- Node10 -->
<g id="node10" class="node">
<title>Node10</title>
<g id="a_node10"><a xlink:href="TransmitterCode_2src_2main_8cpp.html#a5c7f22bae35d5d6df9d54fe79dbb8401" target="_top" xlink:title=" ">
<polygon fill="white" stroke="#666666" points="128,-818 0,-818 0,-799 128,-799 128,-818"/>
<text text-anchor="middle" x="64" y="-806" font-family="Helvetica,sans-Serif" font-size="10.00">ResetTransmitterSettings</text>
</a>
</g>
</g>
<!-- Node7&#45;&gt;Node10 -->
<g id="edge12" class="edge">
<title>Node7&#45;&gt;Node10</title>
<path fill="none" stroke="#63b8ff" d="M161.74,-801.43C150.93,-802.22 139.47,-803.06 128.36,-803.87"/>
<polygon fill="#63b8ff" stroke="#63b8ff" points="161.95,-804.92 171.67,-800.7 161.44,-797.94 161.95,-804.92"/>
</g>
<!-- Node12 -->
<g id="node12" class="node">
<title>Node12</title>
<g id="a_node12"><a xlink:href="TransmitterCode_2src_2main_8cpp.html#ad3cb30894c94eb016e98bdcaa899ac86" target="_top" xlink:title=" ">
<polygon fill="white" stroke="#666666" points="81.5,-744 46.5,-744 46.5,-725 81.5,-725 81.5,-744"/>
<text text-anchor="middle" x="64" y="-732" font-family="Helvetica,sans-Serif" font-size="10.00">loop</text>
</a>
</g>
</g>
<!-- Node11&#45;&gt;Node12 -->
<g id="edge14" class="edge">
<title>Node11&#45;&gt;Node12</title>
<path fill="none" stroke="#63b8ff" d="M154.37,-744.59C128.17,-741.64 99.6,-738.41 81.99,-736.42"/>
<polygon fill="#63b8ff" stroke="#63b8ff" points="153.97,-748.07 164.3,-745.72 154.76,-741.12 153.97,-748.07"/>
</g>
<!-- Node13&#45;&gt;Node3 -->
<g id="edge17" class="edge">
<title>Node13&#45;&gt;Node3</title>
<path fill="none" stroke="#63b8ff" d="M672.1,-896.71C659.18,-886.21 643.31,-871.8 632,-856.5 609.77,-826.45 623.94,-805.33 596,-780.5 592.34,-777.25 588.06,-774.58 583.56,-772.39"/>
<polygon fill="#63b8ff" stroke="#63b8ff" points="669.67,-899.25 679.69,-902.69 674,-893.75 669.67,-899.25"/>
</g>
<!-- Node13&#45;&gt;Node5 -->
<g id="edge19" class="edge">
<title>Node13&#45;&gt;Node5</title>
<path fill="none" stroke="#63b8ff" d="M658.3,-910.46C574.4,-903.43 366.38,-885.98 269.14,-877.83"/>
<polygon fill="#63b8ff" stroke="#63b8ff" points="657.76,-913.93 668.02,-911.28 658.35,-906.96 657.76,-913.93"/>
</g>
<!-- Node13&#45;&gt;Node6 -->
<g id="edge20" class="edge">
<title>Node13&#45;&gt;Node6</title>
<path fill="none" stroke="#63b8ff" d="M658.55,-913.94C639.89,-914.14 616.72,-914.38 596,-914.5 407.71,-915.63 181.86,-915.59 98.24,-915.53"/>
<polygon fill="#63b8ff" stroke="#63b8ff" points="658.33,-917.44 668.29,-913.82 658.25,-910.44 658.33,-917.44"/>
</g>
<!-- Node14 -->
<g id="node14" class="node">
<title>Node14</title>
<g id="a_node14"><a xlink:href="TransmitterCode_2src_2main_8cpp.html#a7af8e147bab19bdc499ffef595d30aae" target="_top" xlink:title=" ">
<polygon fill="white" stroke="#666666" points="425.5,-997 330.5,-997 330.5,-978 425.5,-978 425.5,-997"/>
<text text-anchor="middle" x="378" y="-985" font-family="Helvetica,sans-Serif" font-size="10.00">EndRenameModel</text>
</a>
</g>
</g>
<!-- Node13&#45;&gt;Node14 -->
<g id="edge18" class="edge">
<title>Node13&#45;&gt;Node14</title>
<path fill="none" stroke="#63b8ff" d="M669.41,-929.44C650.1,-940.89 622.36,-955.64 596,-963.5 538.98,-980.51 470.28,-985.69 425.67,-987.14"/>
<polygon fill="#63b8ff" stroke="#63b8ff" points="671.18,-932.46 677.9,-924.27 667.54,-926.47 671.18,-932.46"/>
</g>
<!-- Node15 -->
<g id="node15" class="node">
<title>Node15</title>
<g id="a_node15"><a xlink:href="TransmitterCode_2src_2main_8cpp.html#a2e0aa19fa93c1bacd9b4600025f33594" target="_top" xlink:title=" ">
<polygon fill="white" stroke="#666666" points="580,-883 503,-883 503,-864 580,-864 580,-883"/>
<text text-anchor="middle" x="541.5" y="-871" font-family="Helvetica,sans-Serif" font-size="10.00">RXSetup1End</text>
</a>
</g>
</g>
<!-- Node13&#45;&gt;Node15 -->
<g id="edge21" class="edge">
<title>Node13&#45;&gt;Node15</title>
<path fill="none" stroke="#63b8ff" d="M658.81,-904.11C635.23,-897.9 604.35,-889.78 580.34,-883.46"/>
<polygon fill="#63b8ff" stroke="#63b8ff" points="657.72,-907.44 668.28,-906.6 659.5,-900.67 657.72,-907.44"/>
</g>
<!-- Node17 -->
<g id="node17" class="node">
<title>Node17</title>
<g id="a_node17"><a xlink:href="TransmitterCode_2src_2main_8cpp.html#a6e4fac4e296c09388b8b56353402d67a" target="_top" xlink:title=" ">
<polygon fill="white" stroke="#666666" points="864,-470 807,-470 807,-451 864,-451 864,-470"/>
<text text-anchor="middle" x="835.5" y="-458" font-family="Helvetica,sans-Serif" font-size="10.00">GetValue</text>
</a>
</g>
</g>
<!-- Node16&#45;&gt;Node17 -->
<g id="edge23" class="edge">
<title>Node16&#45;&gt;Node17</title>
<path fill="none" stroke="#63b8ff" d="M924.62,-592.24C902.83,-559.66 859.46,-494.82 843.02,-470.25"/>
<polygon fill="#63b8ff" stroke="#63b8ff" points="921.56,-593.97 930.03,-600.33 927.38,-590.08 921.56,-593.97"/>
</g>
<!-- Node17&#45;&gt;Node3 -->
<g id="edge25" class="edge">
<title>Node17&#45;&gt;Node3</title>
<path fill="none" stroke="#63b8ff" d="M834.36,-481.68C832.86,-528.65 822.48,-642.22 759,-703.5 746.6,-715.47 647.85,-739.09 588.08,-752.53"/>
<polygon fill="#63b8ff" stroke="#63b8ff" points="837.86,-481.88 834.56,-471.81 830.86,-481.74 837.86,-481.88"/>
</g>
<!-- Node17&#45;&gt;Node15 -->
<g id="edge53" class="edge">
<title>Node17&#45;&gt;Node15</title>
<path fill="none" stroke="#63b8ff" d="M831.99,-481.52C822.45,-559.76 787.52,-830.96 759,-856.5 710.27,-900.14 628.15,-892.44 580.28,-882.94"/>
<polygon fill="#63b8ff" stroke="#63b8ff" points="835.44,-482.17 833.16,-471.82 828.49,-481.33 835.44,-482.17"/>
</g>
<!-- Node18 -->
<g id="node18" class="node">
<title>Node18</title>
<g id="a_node18"><a xlink:href="TransmitterCode_2src_2main_8cpp.html#ad332e97e29352b9b7bf0ada90b4dcf06" target="_top" xlink:title=" ">
<polygon fill="white" stroke="#666666" points="742.5,-584 648.5,-584 648.5,-565 742.5,-565 742.5,-584"/>
<text text-anchor="middle" x="695.5" y="-572" font-family="Helvetica,sans-Serif" font-size="10.00">BuddyChViewEnd</text>
</a>
</g>
</g>
<!-- Node17&#45;&gt;Node18 -->
<g id="edge24" class="edge">
<title>Node17&#45;&gt;Node18</title>
<path fill="none" stroke="#63b8ff" d="M822.5,-479.95C809.2,-500.08 786.02,-531.22 759,-550.5 750.77,-556.37 740.91,-561.03 731.49,-564.61"/>
<polygon fill="#63b8ff" stroke="#63b8ff" points="825.42,-481.88 827.86,-471.57 819.52,-478.11 825.42,-481.88"/>
</g>
<!-- Node19 -->
<g id="node19" class="node">
<title>Node19</title>
<g id="a_node19"><a xlink:href="TransmitterCode_2src_2main_8cpp.html#a984cb52354a84c45e9e41f396a1c5e92" target="_top" xlink:title=" ">
<polygon fill="white" stroke="#666666" points="744,-470 647,-470 647,-451 744,-451 744,-470"/>
<text text-anchor="middle" x="695.5" y="-458" font-family="Helvetica,sans-Serif" font-size="10.00">CheckModelName</text>
</a>
</g>
</g>
<!-- Node17&#45;&gt;Node19 -->
<g id="edge26" class="edge">
<title>Node17&#45;&gt;Node19</title>
<path fill="none" stroke="#63b8ff" d="M795.5,-460.5C779.56,-460.5 760.97,-460.5 744.23,-460.5"/>
<polygon fill="#63b8ff" stroke="#63b8ff" points="795.06,-464 805.06,-460.5 795.06,-457 795.06,-464"/>
</g>
<!-- Node21 -->
<g id="node21" class="node">
<title>Node21</title>
<g id="a_node21"><a xlink:href="TransmitterCode_2src_2main_8cpp.html#a2c41d703abb54fc0d1794f2ca957eb94" target="_top" xlink:title=" ">
<polygon fill="white" stroke="#666666" points="421.5,-527 334.5,-527 334.5,-508 421.5,-508 421.5,-527"/>
<text text-anchor="middle" x="378" y="-515" font-family="Helvetica,sans-Serif" font-size="10.00">EndBankNames</text>
</a>
</g>
</g>
<!-- Node17&#45;&gt;Node21 -->
<g id="edge28" class="edge">
<title>Node17&#45;&gt;Node21</title>
<path fill="none" stroke="#63b8ff" d="M810.37,-476.4C796.04,-485.03 777.17,-495.03 759,-500.5 641.07,-536.02 493.29,-528.81 421.74,-522.27"/>
<polygon fill="#63b8ff" stroke="#63b8ff" points="812,-479.51 818.64,-471.25 808.3,-473.57 812,-479.51"/>
</g>
<!-- Node22 -->
<g id="node22" class="node">
<title>Node22</title>
<g id="a_node22"><a xlink:href="TransmitterCode_2src_2main_8cpp.html#a16c65917a148c7f6c17babf11e977b69" target="_top" xlink:title=" ">
<polygon fill="white" stroke="#666666" points="736.5,-394 654.5,-394 654.5,-375 736.5,-375 736.5,-394"/>
<text text-anchor="middle" x="695.5" y="-382" font-family="Helvetica,sans-Serif" font-size="10.00">EndBuddyView</text>
</a>
</g>
</g>
<!-- Node17&#45;&gt;Node22 -->
<g id="edge29" class="edge">
<title>Node17&#45;&gt;Node22</title>
<path fill="none" stroke="#63b8ff" d="M813.23,-443.82C798.56,-432.84 778.29,-418.66 759,-408.5 748.82,-403.14 737.17,-398.33 726.7,-394.46"/>
<polygon fill="#63b8ff" stroke="#63b8ff" points="810.72,-446.31 820.79,-449.59 814.96,-440.74 810.72,-446.31"/>
</g>
<!-- Node23 -->
<g id="node23" class="node">
<title>Node23</title>
<g id="a_node23"><a xlink:href="TransmitterCode_2src_2main_8cpp.html#afd3dd964eafc30405e000b03579dd00c" target="_top" xlink:title=" ">
<polygon fill="white" stroke="#666666" points="741,-357 650,-357 650,-338 741,-338 741,-357"/>
<text text-anchor="middle" x="695.5" y="-345" font-family="Helvetica,sans-Serif" font-size="10.00">EndReverseView</text>
</a>
</g>
</g>
<!-- Node17&#45;&gt;Node23 -->
<g id="edge30" class="edge">
<title>Node17&#45;&gt;Node23</title>
<path fill="none" stroke="#63b8ff" d="M823.86,-440.76C811.2,-419.14 788.07,-384.96 759,-365.5 753.65,-361.92 747.59,-359.04 741.39,-356.73"/>
<polygon fill="#63b8ff" stroke="#63b8ff" points="820.8,-442.47 828.75,-449.46 826.9,-439.03 820.8,-442.47"/>
</g>
<!-- Node24 -->
<g id="node24" class="node">
<title>Node24</title>
<g id="a_node24"><a xlink:href="TransmitterCode_2src_2main_8cpp.html#a0e7666bd8d250935f34395e0f6dea7bf" target="_top" xlink:title=" ">
<polygon fill="white" stroke="#666666" points="416.5,-461 339.5,-461 339.5,-442 416.5,-442 416.5,-461"/>
<text text-anchor="middle" x="378" y="-449" font-family="Helvetica,sans-Serif" font-size="10.00">EndSlowView</text>
</a>
</g>
</g>
<!-- Node17&#45;&gt;Node24 -->
<g id="edge31" class="edge">
<title>Node17&#45;&gt;Node24</title>
<path fill="none" stroke="#63b8ff" d="M796.03,-448.87C784.26,-445.85 771.2,-443.01 759,-441.5 639.03,-426.64 607.76,-435.92 487,-441.5 463.68,-442.58 437.61,-444.96 416.93,-447.13"/>
<polygon fill="#63b8ff" stroke="#63b8ff" points="794.82,-452.17 805.38,-451.4 796.64,-445.42 794.82,-452.17"/>
</g>
<!-- Node25 -->
<g id="node25" class="node">
<title>Node25</title>
<g id="a_node25"><a xlink:href="TransmitterCode_2src_2main_8cpp.html#a488388f6430a0fc7bec57074ba750a2d" target="_top" xlink:title=" ">
<polygon fill="white" stroke="#666666" points="738.5,-320 652.5,-320 652.5,-301 738.5,-301 738.5,-320"/>
<text text-anchor="middle" x="695.5" y="-308" font-family="Helvetica,sans-Serif" font-size="10.00">ExitMacrosView</text>
</a>
</g>
</g>
<!-- Node17&#45;&gt;Node25 -->
<g id="edge32" class="edge">
<title>Node17&#45;&gt;Node25</title>
<path fill="none" stroke="#63b8ff" d="M828.27,-439.96C818.36,-410.82 796.24,-357.75 759,-328.5 753.14,-323.9 746.15,-320.47 738.99,-317.92"/>
<polygon fill="#63b8ff" stroke="#63b8ff" points="824.91,-440.96 831.31,-449.41 831.57,-438.82 824.91,-440.96"/>
</g>
<!-- Node26 -->
<g id="node26" class="node">
<title>Node26</title>
<g id="a_node26"><a xlink:href="TransmitterCode_2src_2main_8cpp.html#ae9f11f030b85ae36e21266f42e6c65f3" target="_top" xlink:title=" ">
<polygon fill="white" stroke="#666666" points="733,-658 658,-658 658,-639 733,-639 733,-658"/>
<text text-anchor="middle" x="695.5" y="-646" font-family="Helvetica,sans-Serif" font-size="10.00">FixCHNames</text>
</a>
</g>
</g>
<!-- Node17&#45;&gt;Node26 -->
<g id="edge33" class="edge">
<title>Node17&#45;&gt;Node26</title>
<path fill="none" stroke="#63b8ff" d="M831.02,-481.06C823.94,-516.55 804.48,-589.37 759,-629.5 751.77,-635.88 742.45,-640.11 733.23,-642.93"/>
<polygon fill="#63b8ff" stroke="#63b8ff" points="834.38,-482.13 832.76,-471.66 827.5,-480.86 834.38,-482.13"/>
</g>
<!-- Node27 -->
<g id="node27" class="node">
<title>Node27</title>
<g id="a_node27"><a xlink:href="TransmitterCode_2src_2main_8cpp.html#a8ac4e6b41e9a80988a21774ad9f3b3ee" target="_top" xlink:title=" ">
<polygon fill="white" stroke="#666666" points="737,-283 654,-283 654,-264 737,-264 737,-283"/>
<text text-anchor="middle" x="695.5" y="-271" font-family="Helvetica,sans-Serif" font-size="10.00">ListenToBanks</text>
</a>
</g>
</g>
<!-- Node17&#45;&gt;Node27 -->
<g id="edge35" class="edge">
<title>Node17&#45;&gt;Node27</title>
<path fill="none" stroke="#63b8ff" d="M831.08,-439.88C824.09,-404.27 804.78,-331.29 759,-291.5 752.86,-286.17 745.24,-282.41 737.44,-279.76"/>
<polygon fill="#63b8ff" stroke="#63b8ff" points="827.57,-440.09 832.8,-449.3 834.45,-438.84 827.57,-440.09"/>
</g>
<!-- Node28 -->
<g id="node28" class="node">
<title>Node28</title>
<g id="a_node28"><a xlink:href="TransmitterCode_2src_2main_8cpp.html#a824f2e559561add2deadb0d3033c8510" target="_top" xlink:title=" ">
<polygon fill="white" stroke="#666666" points="740.5,-998 650.5,-998 650.5,-979 740.5,-979 740.5,-998"/>
<text text-anchor="middle" x="695.5" y="-986" font-family="Helvetica,sans-Serif" font-size="10.00">LoadFileSelector</text>
</a>
</g>
</g>
<!-- Node17&#45;&gt;Node28 -->
<g id="edge36" class="edge">
<title>Node17&#45;&gt;Node28</title>
<path fill="none" stroke="#63b8ff" d="M831.97,-481.56C821.5,-567.91 781.02,-892.14 759,-932.5 748.12,-952.45 727.29,-968.88 712.68,-978.67"/>
<polygon fill="#63b8ff" stroke="#63b8ff" points="835.44,-482.07 833.16,-471.72 828.49,-481.23 835.44,-482.07"/>
</g>
<!-- Node30 -->
<g id="node30" class="node">
<title>Node30</title>
<g id="a_node30"><a xlink:href="TransmitterCode_2src_2main_8cpp.html#acb3300c8b0e64f0fb381f7b96158dfc1" target="_top" xlink:title=" ">
<polygon fill="white" stroke="#666666" points="722,-246 669,-246 669,-227 722,-227 722,-246"/>
<text text-anchor="middle" x="695.5" y="-234" font-family="Helvetica,sans-Serif" font-size="10.00">LogEND</text>
</a>
</g>
</g>
<!-- Node17&#45;&gt;Node30 -->
<g id="edge42" class="edge">
<title>Node17&#45;&gt;Node30</title>
<path fill="none" stroke="#63b8ff" d="M832.9,-439.24C828.62,-397.6 813.19,-304.98 759,-254.5 749.09,-245.26 734.73,-240.73 722.28,-238.52"/>
<polygon fill="#63b8ff" stroke="#63b8ff" points="829.41,-439.48 833.79,-449.13 836.38,-438.86 829.41,-439.48"/>
</g>
<!-- Node31 -->
<g id="node31" class="node">
<title>Node31</title>
<g id="a_node31"><a xlink:href="TransmitterCode_2src_2main_8cpp.html#a835d7dda94eeefe66d661ef4dc4df1a4" target="_top" xlink:title=" ">
<polygon fill="white" stroke="#666666" points="731.5,-209 659.5,-209 659.5,-190 731.5,-190 731.5,-209"/>
<text text-anchor="middle" x="695.5" y="-197" font-family="Helvetica,sans-Serif" font-size="10.00">Options2End</text>
</a>
</g>
</g>
<!-- Node17&#45;&gt;Node31 -->
<g id="edge43" class="edge">
<title>Node17&#45;&gt;Node31</title>
<path fill="none" stroke="#63b8ff" d="M834.3,-439.38C832.67,-392.55 822.04,-279.24 759,-217.5 751.66,-210.31 741.64,-205.96 731.77,-203.33"/>
<polygon fill="#63b8ff" stroke="#63b8ff" points="830.79,-439.3 834.52,-449.22 837.79,-439.14 830.79,-439.3"/>
</g>
<!-- Node32 -->
<g id="node32" class="node">
<title>Node32</title>
<g id="a_node32"><a xlink:href="TransmitterCode_2src_2main_8cpp.html#aa1ada50da7cf7f716d14bc9c1a7fdfe9" target="_top" xlink:title=" ">
<polygon fill="white" stroke="#666666" points="588,-171 495,-171 495,-152 588,-152 588,-171"/>
<text text-anchor="middle" x="541.5" y="-159" font-family="Helvetica,sans-Serif" font-size="10.00">OptionView2Start</text>
</a>
</g>
</g>
<!-- Node17&#45;&gt;Node32 -->
<g id="edge44" class="edge">
<title>Node17&#45;&gt;Node32</title>
<path fill="none" stroke="#63b8ff" d="M831.95,-439.6C824.28,-380.51 799.45,-214.39 759,-180.5 711.72,-140.88 636.52,-144.12 588.35,-151.63"/>
<polygon fill="#63b8ff" stroke="#63b8ff" points="828.44,-439.79 833.17,-449.28 835.39,-438.92 828.44,-439.79"/>
</g>
<!-- Node33 -->
<g id="node33" class="node">
<title>Node33</title>
<g id="a_node33"><a xlink:href="TransmitterCode_2src_2main_8cpp.html#ab71829b0aee177464a613b151545c08a" target="_top" xlink:title=" ">
<polygon fill="white" stroke="#666666" points="586,-114 497,-114 497,-95 586,-95 586,-114"/>
<text text-anchor="middle" x="541.5" y="-102" font-family="Helvetica,sans-Serif" font-size="10.00">OptionView3End</text>
</a>
</g>
</g>
<!-- Node17&#45;&gt;Node33 -->
<g id="edge45" class="edge">
<title>Node17&#45;&gt;Node33</title>
<path fill="none" stroke="#63b8ff" d="M833.38,-439.43C829.17,-369.53 811.8,-147.28 759,-104.5 704.82,-60.61 615.49,-80.33 570.39,-94.51"/>
<polygon fill="#63b8ff" stroke="#63b8ff" points="829.87,-439.34 833.93,-449.12 836.86,-438.94 829.87,-439.34"/>
</g>
<!-- Node34 -->
<g id="node34" class="node">
<title>Node34</title>
<g id="a_node34"><a xlink:href="TransmitterCode_2src_2main_8cpp.html#a58fe79634784085398cb1f382f6bf57d" target="_top" xlink:title=" ">
<polygon fill="white" stroke="#666666" points="596,-38 487,-38 487,-19 596,-19 596,-38"/>
<text text-anchor="middle" x="541.5" y="-26" font-family="Helvetica,sans-Serif" font-size="10.00">PopulateMacrosView</text>
</a>
</g>
</g>
<!-- Node17&#45;&gt;Node34 -->
<g id="edge46" class="edge">
<title>Node17&#45;&gt;Node34</title>
<path fill="none" stroke="#63b8ff" d="M833.37,-439.53C829,-366.83 810.84,-127.19 759,-74.5 736.73,-51.87 653,-39.29 596.44,-33.21"/>
<polygon fill="#63b8ff" stroke="#63b8ff" points="829.85,-439.45 833.92,-449.23 836.84,-439.05 829.85,-439.45"/>
</g>
<!-- Node36 -->
<g id="node36" class="node">
<title>Node36</title>
<g id="a_node36"><a xlink:href="TransmitterCode_2src_2main_8cpp.html#ac68cd3f907309c849f5cff2de41801d5" target="_top" xlink:title=" ">
<polygon fill="white" stroke="#666666" points="752.5,-847 638.5,-847 638.5,-828 752.5,-828 752.5,-847"/>
<text text-anchor="middle" x="695.5" y="-835" font-family="Helvetica,sans-Serif" font-size="10.00">ReadDualRatesValues</text>
</a>
</g>
</g>
<!-- Node17&#45;&gt;Node36 -->
<g id="edge48" class="edge">
<title>Node17&#45;&gt;Node36</title>
<path fill="none" stroke="#63b8ff" d="M833.68,-481.73C830.77,-535.3 817.63,-678.88 759,-779.5 747.15,-799.84 725.91,-817.29 711.52,-827.59"/>
<polygon fill="#63b8ff" stroke="#63b8ff" points="837.17,-482.05 834.14,-471.9 830.18,-481.72 837.17,-482.05"/>
</g>
<!-- Node39 -->
<g id="node39" class="node">
<title>Node39</title>
<g id="a_node39"><a xlink:href="TransmitterCode_2src_2main_8cpp.html#a2521ceba7d91302765db4720e3367127" target="_top" xlink:title=" ">
<polygon fill="white" stroke="#666666" points="759,-771 632,-771 632,-752 759,-752 759,-771"/>
<text text-anchor="middle" x="695.5" y="-759" font-family="Helvetica,sans-Serif" font-size="10.00">ReadNewSwitchFunction</text>
</a>
</g>
</g>
<!-- Node17&#45;&gt;Node39 -->
<g id="edge51" class="edge">
<title>Node17&#45;&gt;Node39</title>
<path fill="none" stroke="#63b8ff" d="M834.86,-481.67C834.56,-532.45 826.81,-662.51 759,-737.5 753.47,-743.62 746.19,-748.19 738.57,-751.6"/>
<polygon fill="#63b8ff" stroke="#63b8ff" points="838.36,-481.8 834.81,-471.81 831.36,-481.83 838.36,-481.8"/>
</g>
<!-- Node40 -->
<g id="node40" class="node">
<title>Node40</title>
<g id="a_node40"><a xlink:href="TransmitterCode_2src_2main_8cpp.html#a63daed42947b977db0cac434bcd44b5e" target="_top" xlink:title=" ">
<polygon fill="white" stroke="#666666" points="737.5,-621 653.5,-621 653.5,-602 737.5,-602 737.5,-621"/>
<text text-anchor="middle" x="695.5" y="-609" font-family="Helvetica,sans-Serif" font-size="10.00">SaveMixValues</text>
</a>
</g>
</g>
<!-- Node17&#45;&gt;Node40 -->
<g id="edge54" class="edge">
<title>Node17&#45;&gt;Node40</title>
<path fill="none" stroke="#63b8ff" d="M828.06,-481.39C818.01,-510.53 795.84,-563.12 759,-592.5 752.79,-597.45 745.31,-601.11 737.71,-603.82"/>
<polygon fill="#63b8ff" stroke="#63b8ff" points="831.38,-482.5 831.16,-471.91 824.73,-480.33 831.38,-482.5"/>
</g>
<!-- Node41 -->
<g id="node41" class="node">
<title>Node41</title>
<g id="a_node41"><a xlink:href="TransmitterCode_2src_2main_8cpp.html#a1a700b085b2f15c2ce4589f1be3ed492" target="_top" xlink:title=" ">
<polygon fill="white" stroke="#666666" points="586,-508 497,-508 497,-489 586,-489 586,-508"/>
<text text-anchor="middle" x="541.5" y="-496" font-family="Helvetica,sans-Serif" font-size="10.00">StartModelSetup</text>
</a>
</g>
</g>
<!-- Node17&#45;&gt;Node41 -->
<g id="edge61" class="edge">
<title>Node17&#45;&gt;Node41</title>
<path fill="none" stroke="#63b8ff" d="M795.89,-470.82C784.12,-473.66 771.09,-476.51 759,-478.5 699.59,-488.27 630.17,-493.63 586.27,-496.28"/>
<polygon fill="#63b8ff" stroke="#63b8ff" points="796.4,-474.3 805.26,-468.49 794.71,-467.51 796.4,-474.3"/>
</g>
<!-- Node42 -->
<g id="node42" class="node">
<title>Node42</title>
<g id="a_node42"><a xlink:href="TransmitterCode_2src_2main_8cpp.html#a4d8497742bcb615831e3b52c5d463cde" target="_top" xlink:title=" ">
<polygon fill="white" stroke="#666666" points="747,-19 644,-19 644,0 747,0 747,-19"/>
<text text-anchor="middle" x="695.5" y="-7" font-family="Helvetica,sans-Serif" font-size="10.00">ShowChannelName</text>
</a>
</g>
</g>
<!-- Node17&#45;&gt;Node42 -->
<g id="edge59" class="edge">
<title>Node17&#45;&gt;Node42</title>
<path fill="none" stroke="#63b8ff" d="M833.45,-439.14C829.23,-361.68 811.18,-96.78 759,-33.5 753.97,-27.4 747.2,-22.85 739.98,-19.45"/>
<polygon fill="#63b8ff" stroke="#63b8ff" points="829.95,-439.31 833.97,-449.11 836.94,-438.95 829.95,-439.31"/>
</g>
<!-- Node43 -->
<g id="node43" class="node">
<title>Node43</title>
<g id="a_node43"><a xlink:href="TransmitterCode_2src_2main_8cpp.html#a8c8edf1ff8b98d9cd27b45c4e20f22d9" target="_top" xlink:title=" ">
<polygon fill="white" stroke="#666666" points="729,-133 662,-133 662,-114 729,-114 729,-133"/>
<text text-anchor="middle" x="695.5" y="-121" font-family="Helvetica,sans-Serif" font-size="10.00">UpdateLED</text>
</a>
</g>
</g>
<!-- Node17&#45;&gt;Node43 -->
<g id="edge62" class="edge">
<title>Node17&#45;&gt;Node43</title>
<path fill="none" stroke="#63b8ff" d="M831.98,-439.38C824.07,-376.47 797.98,-191.91 759,-147.5 751.33,-138.76 740.12,-133.19 729.3,-129.64"/>
<polygon fill="#63b8ff" stroke="#63b8ff" points="828.47,-439.57 833.16,-449.07 835.42,-438.71 828.47,-439.57"/>
</g>
<!-- Node44 -->
<g id="node44" class="node">
<title>Node44</title>
<g id="a_node44"><a xlink:href="TransmitterCode_2src_2main_8cpp.html#ac80d36db695cecb74d129643387feefd" target="_top" xlink:title=" ">
<polygon fill="white" stroke="#666666" points="738,-695 653,-695 653,-676 738,-676 738,-695"/>
<text text-anchor="middle" x="695.5" y="-683" font-family="Helvetica,sans-Serif" font-size="10.00">WriteNewCurve</text>
</a>
</g>
</g>
<!-- Node17&#45;&gt;Node44 -->
<g id="edge65" class="edge">
<title>Node17&#45;&gt;Node44</title>
<path fill="none" stroke="#63b8ff" d="M832.84,-481.69C828.44,-523.21 812.82,-615.63 759,-666.5 753.23,-671.95 745.94,-675.85 738.4,-678.62"/>
<polygon fill="#63b8ff" stroke="#63b8ff" points="836.31,-482.12 833.75,-471.84 829.34,-481.47 836.31,-482.12"/>
</g>
<!-- Node20 -->
<g id="node20" class="node">
<title>Node20</title>
<g id="a_node20"><a xlink:href="TransmitterCode_2src_2main_8cpp.html#ae267eaa80a4b3eb49ba10a97469eb7e9" target="_top" xlink:title=" ">
<polygon fill="white" stroke="#666666" points="576,-470 507,-470 507,-451 576,-451 576,-470"/>
<text text-anchor="middle" x="541.5" y="-458" font-family="Helvetica,sans-Serif" font-size="10.00">DoMFName</text>
</a>
</g>
</g>
<!-- Node19&#45;&gt;Node20 -->
<g id="edge27" class="edge">
<title>Node19&#45;&gt;Node20</title>
<path fill="none" stroke="#63b8ff" d="M635.51,-460.5C615.34,-460.5 593.49,-460.5 576.04,-460.5"/>
<polygon fill="#63b8ff" stroke="#63b8ff" points="635.31,-464 645.31,-460.5 635.31,-457 635.31,-464"/>
</g>
<!-- Node26&#45;&gt;Node3 -->
<g id="edge34" class="edge">
<title>Node26&#45;&gt;Node3</title>
<path fill="none" stroke="#63b8ff" d="M646.95,-659.21C641.72,-661.25 636.63,-663.66 632,-666.5 594.13,-689.74 562.02,-733.28 548.87,-752.7"/>
<polygon fill="#63b8ff" stroke="#63b8ff" points="647.97,-662.56 656.31,-656.02 645.71,-655.94 647.97,-662.56"/>
</g>
<!-- Node28&#45;&gt;Node3 -->
<g id="edge37" class="edge">
<title>Node28&#45;&gt;Node3</title>
<path fill="none" stroke="#63b8ff" d="M669.88,-972.13C656.75,-962.17 641.41,-948.32 632,-932.5 596.52,-872.83 642.78,-831.8 596,-780.5 593.03,-777.24 589.45,-774.57 585.57,-772.39"/>
<polygon fill="#63b8ff" stroke="#63b8ff" points="667.55,-974.77 677.71,-977.79 671.65,-969.09 667.55,-974.77"/>
</g>
<!-- Node28&#45;&gt;Node6 -->
<g id="edge41" class="edge">
<title>Node28&#45;&gt;Node6</title>
<path fill="none" stroke="#63b8ff" d="M672.83,-1005.23C653.78,-1018.82 624.69,-1036.91 596,-1044.5 546.21,-1057.66 309.7,-1032.75 305,-1031.5 214.45,-1007.34 116.99,-948.82 80.2,-925.42"/>
<polygon fill="#63b8ff" stroke="#63b8ff" points="674.87,-1008.08 680.85,-999.33 670.72,-1002.44 674.87,-1008.08"/>
</g>
<!-- Node29 -->
<g id="node29" class="node">
<title>Node29</title>
<g id="a_node29"><a xlink:href="TransmitterCode_2src_2main_8cpp.html#a446a94169d966af920710f7acddc5257" target="_top" xlink:title=" ">
<polygon fill="white" stroke="#666666" points="587,-1035 496,-1035 496,-1016 587,-1016 587,-1035"/>
<text text-anchor="middle" x="541.5" y="-1023" font-family="Helvetica,sans-Serif" font-size="10.00">GotoModelsView</text>
</a>
</g>
</g>
<!-- Node28&#45;&gt;Node29 -->
<g id="edge38" class="edge">
<title>Node28&#45;&gt;Node29</title>
<path fill="none" stroke="#63b8ff" d="M642.67,-1001.12C623.3,-1005.83 601.59,-1011.12 583.35,-1015.56"/>
<polygon fill="#63b8ff" stroke="#63b8ff" points="643.41,-1004.54 652.3,-998.77 641.75,-997.74 643.41,-1004.54"/>
</g>
<!-- Node29&#45;&gt;Node9 -->
<g id="edge40" class="edge">
<title>Node29&#45;&gt;Node9</title>
<path fill="none" stroke="#63b8ff" d="M484.46,-1028.81C435.69,-1029.88 363.8,-1027.02 305,-1006.5 254.19,-988.77 120.03,-887.72 77.87,-855.42"/>
<polygon fill="#63b8ff" stroke="#63b8ff" points="484.32,-1032.32 494.21,-1028.53 484.12,-1025.32 484.32,-1032.32"/>
</g>
<!-- Node29&#45;&gt;Node14 -->
<g id="edge39" class="edge">
<title>Node29&#45;&gt;Node14</title>
<path fill="none" stroke="#63b8ff" d="M486.9,-1012.89C465.61,-1007.88 441.47,-1002.2 421.43,-997.48"/>
<polygon fill="#63b8ff" stroke="#63b8ff" points="486.06,-1016.29 496.59,-1015.17 487.66,-1009.47 486.06,-1016.29"/>
</g>
<!-- Node35 -->
<g id="node35" class="node">
<title>Node35</title>
<g id="a_node35"><a xlink:href="TransmitterCode_2src_2main_8cpp.html#abdecfd433e1830c6497040b03450bed7" target="_top" xlink:title=" ">
<polygon fill="white" stroke="#666666" points="424,-38 332,-38 332,-19 424,-19 424,-38"/>
<text text-anchor="middle" x="378" y="-26" font-family="Helvetica,sans-Serif" font-size="10.00">GotoMacrosView</text>
</a>
</g>
</g>
<!-- Node34&#45;&gt;Node35 -->
<g id="edge47" class="edge">
<title>Node34&#45;&gt;Node35</title>
<path fill="none" stroke="#63b8ff" d="M475.63,-28.5C458.48,-28.5 440.33,-28.5 424.45,-28.5"/>
<polygon fill="#63b8ff" stroke="#63b8ff" points="475.21,-32 485.21,-28.5 475.21,-25 475.21,-32"/>
</g>
<!-- Node37 -->
<g id="node37" class="node">
<title>Node37</title>
<g id="a_node37"><a xlink:href="TransmitterCode_2src_2main_8cpp.html#acaf005c908c2b6706d7ab9579f456ca8" target="_top" xlink:title=" ">
<polygon fill="white" stroke="#666666" points="580.5,-846 502.5,-846 502.5,-827 580.5,-827 580.5,-846"/>
<text text-anchor="middle" x="541.5" y="-834" font-family="Helvetica,sans-Serif" font-size="10.00">DualRatesEnd</text>
</a>
</g>
</g>
<!-- Node36&#45;&gt;Node37 -->
<g id="edge49" class="edge">
<title>Node36&#45;&gt;Node37</title>
<path fill="none" stroke="#63b8ff" d="M626.97,-837.06C611.19,-836.95 594.91,-836.84 580.91,-836.75"/>
<polygon fill="#63b8ff" stroke="#63b8ff" points="626.8,-840.55 636.82,-837.12 626.84,-833.55 626.8,-840.55"/>
</g>
<!-- Node38 -->
<g id="node38" class="node">
<title>Node38</title>
<g id="a_node38"><a xlink:href="TransmitterCode_2src_2main_8cpp.html#af110521855e780717b5248c3aacc799e" target="_top" xlink:title=" ">
<polygon fill="white" stroke="#666666" points="589,-809 494,-809 494,-790 589,-790 589,-809"/>
<text text-anchor="middle" x="541.5" y="-797" font-family="Helvetica,sans-Serif" font-size="10.00">DualRatesRefresh</text>
</a>
</g>
</g>
<!-- Node36&#45;&gt;Node38 -->
<g id="edge50" class="edge">
<title>Node36&#45;&gt;Node38</title>
<path fill="none" stroke="#63b8ff" d="M643.5,-824.75C623.6,-819.77 601.12,-814.16 582.43,-809.48"/>
<polygon fill="#63b8ff" stroke="#63b8ff" points="642.55,-828.12 653.1,-827.15 644.24,-821.33 642.55,-828.12"/>
</g>
<!-- Node39&#45;&gt;Node3 -->
<g id="edge52" class="edge">
<title>Node39&#45;&gt;Node3</title>
<path fill="none" stroke="#63b8ff" d="M620.53,-761.99C610.87,-762.05 601.18,-762.11 592.06,-762.17"/>
<polygon fill="#63b8ff" stroke="#63b8ff" points="620.31,-765.49 630.28,-761.92 620.26,-758.49 620.31,-765.49"/>
</g>
<!-- Node40&#45;&gt;Node3 -->
<g id="edge55" class="edge">
<title>Node40&#45;&gt;Node3</title>
<path fill="none" stroke="#63b8ff" d="M642.85,-623.13C639.02,-624.96 635.35,-627.06 632,-629.5 585.88,-663.09 556.23,-728.17 546.25,-752.77"/>
<polygon fill="#63b8ff" stroke="#63b8ff" points="643.88,-626.49 651.85,-619.51 641.27,-619.99 643.88,-626.49"/>
</g>
<!-- Node40&#45;&gt;Node41 -->
<g id="edge56" class="edge">
<title>Node40&#45;&gt;Node41</title>
<path fill="none" stroke="#63b8ff" d="M642.59,-598.06C638.91,-596.4 635.33,-594.56 632,-592.5 594.79,-569.56 562.58,-527.4 549.16,-508.33"/>
<polygon fill="#63b8ff" stroke="#63b8ff" points="641.18,-601.27 651.77,-601.69 643.76,-594.76 641.18,-601.27"/>
</g>
<!-- Node41&#45;&gt;Node21 -->
<g id="edge57" class="edge">
<title>Node41&#45;&gt;Node21</title>
<path fill="none" stroke="#63b8ff" d="M485.55,-504.96C464.76,-507.41 441.42,-510.16 421.9,-512.45"/>
<polygon fill="#63b8ff" stroke="#63b8ff" points="485.77,-508.46 495.29,-503.82 484.95,-501.51 485.77,-508.46"/>
</g>
<!-- Node41&#45;&gt;Node24 -->
<g id="edge58" class="edge">
<title>Node41&#45;&gt;Node24</title>
<path fill="none" stroke="#63b8ff" d="M495.51,-485.41C469.45,-477.82 437.17,-468.43 413.2,-461.45"/>
<polygon fill="#63b8ff" stroke="#63b8ff" points="494.22,-488.68 504.8,-488.11 496.17,-481.95 494.22,-488.68"/>
</g>
<!-- Node42&#45;&gt;Node34 -->
<g id="edge60" class="edge">
<title>Node42&#45;&gt;Node34</title>
<path fill="none" stroke="#63b8ff" d="M632.55,-17.24C620.53,-18.75 608.02,-20.31 596.28,-21.78"/>
<polygon fill="#63b8ff" stroke="#63b8ff" points="632.9,-20.73 642.38,-16.01 632.03,-13.78 632.9,-20.73"/>
</g>
<!-- Node43&#45;&gt;Node32 -->
<g id="edge63" class="edge">
<title>Node43&#45;&gt;Node32</title>
<path fill="none" stroke="#63b8ff" d="M650.4,-134.53C628.93,-139.89 603.32,-146.29 582.44,-151.52"/>
<polygon fill="#63b8ff" stroke="#63b8ff" points="651.2,-137.93 660.05,-132.11 649.5,-131.14 651.2,-137.93"/>
</g>
<!-- Node43&#45;&gt;Node33 -->
<g id="edge64" class="edge">
<title>Node43&#45;&gt;Node33</title>
<path fill="none" stroke="#63b8ff" d="M650.16,-117.96C630.08,-115.45 606.41,-112.49 586.38,-109.99"/>
<polygon fill="#63b8ff" stroke="#63b8ff" points="649.66,-121.42 660.02,-119.19 650.53,-114.48 649.66,-121.42"/>
</g>
</g>
</svg>
