<?xml version="1.0" encoding="UTF-8" standalone="no"?>
<!DOCTYPE svg PUBLIC "-//W3C//DTD SVG 1.1//EN"
 "http://www.w3.org/Graphics/SVG/1.1/DTD/svg11.dtd">
<!-- Generated by graphviz version 7.0.4 (20221203.1631)
 -->
<!-- Title: updateInterpolationTypes Pages: 1 -->
<svg width="1010pt" height="270pt"
 viewBox="0.00 0.00 1010.00 270.00" xmlns="http://www.w3.org/2000/svg" xmlns:xlink="http://www.w3.org/1999/xlink">
<g id="graph0" class="graph" transform="scale(1 1) rotate(0) translate(4 266)">
<title>updateInterpolationTypes</title>
<!-- Node1 -->
<g id="node1" class="node">
<title>Node1</title>
<g id="a_node1"><a xlink:title=" ">
<polygon fill="#999999" stroke="#666666" points="1002,-190 877,-190 877,-171 1002,-171 1002,-190"/>
<text text-anchor="middle" x="939.5" y="-178" font-family="Helvetica,sans-Serif" font-size="10.00">updateInterpolationTypes</text>
</a>
</g>
</g>
<!-- Node2 -->
<g id="node2" class="node">
<title>Node2</title>
<g id="a_node2"><a xlink:href="TransmitterCode_2src_2main_8cpp.html#a804fdbdd5eab4c596bbe8a23eecbe4d5" target="_top" xlink:title=" ">
<polygon fill="white" stroke="#666666" points="406,-225 305,-225 305,-206 406,-206 406,-225"/>
<text text-anchor="middle" x="355.5" y="-213" font-family="Helvetica,sans-Serif" font-size="10.00">ButtonWasPressed</text>
</a>
</g>
</g>
<!-- Node1&#45;&gt;Node2 -->
<g id="edge1" class="edge">
<title>Node1&#45;&gt;Node2</title>
<path fill="none" stroke="#63b8ff" d="M865.46,-192C792.42,-202.87 676.76,-218.41 576,-224.5 516.55,-228.09 501.47,-227.62 442,-224.5 430.37,-223.89 417.9,-222.82 406.16,-221.62"/>
<polygon fill="#63b8ff" stroke="#63b8ff" points="865.94,-195.46 875.31,-190.52 864.9,-188.54 865.94,-195.46"/>
</g>
<!-- Node9 -->
<g id="node9" class="node">
<title>Node9</title>
<g id="a_node9"><a xlink:href="TransmitterCode_2src_2main_8cpp.html#acf49567c45af927603ae83a7f46e6534" target="_top" xlink:title=" ">
<polygon fill="white" stroke="#666666" points="841,-133 767,-133 767,-114 841,-114 841,-133"/>
<text text-anchor="middle" x="804" y="-121" font-family="Helvetica,sans-Serif" font-size="10.00">DisplayCurve</text>
</a>
</g>
</g>
<!-- Node1&#45;&gt;Node9 -->
<g id="edge11" class="edge">
<title>Node1&#45;&gt;Node9</title>
<path fill="none" stroke="#63b8ff" d="M904.82,-166.12C880.8,-155.86 849.15,-142.35 827.99,-133.31"/>
<polygon fill="#63b8ff" stroke="#63b8ff" points="903.28,-169.27 913.85,-169.98 906.03,-162.83 903.28,-169.27"/>
</g>
<!-- Node3 -->
<g id="node3" class="node">
<title>Node3</title>
<g id="a_node3"><a xlink:href="TransmitterCode_2src_2main_8cpp.html#af5e795d110bef15cb41dfe853a74eae2" target="_top" xlink:title=" ">
<polygon fill="white" stroke="#666666" points="269,-188 164,-188 164,-169 269,-169 269,-188"/>
<text text-anchor="middle" x="216.5" y="-176" font-family="Helvetica,sans-Serif" font-size="10.00">GetBackupFilename</text>
</a>
</g>
</g>
<!-- Node2&#45;&gt;Node3 -->
<g id="edge2" class="edge">
<title>Node2&#45;&gt;Node3</title>
<path fill="none" stroke="#63b8ff" d="M325.01,-201.87C308.81,-196.48 288.24,-190.62 269.44,-185.96"/>
<polygon fill="#63b8ff" stroke="#63b8ff" points="323.43,-205.03 334.02,-205.01 325.73,-198.42 323.43,-205.03"/>
</g>
<!-- Node4 -->
<g id="node4" class="node">
<title>Node4</title>
<g id="a_node4"><a xlink:href="TransmitterCode_2src_2main_8cpp.html#a6506bf72e0dd9e9ce480156b47625bff" target="_top" xlink:title=" ">
<polygon fill="white" stroke="#666666" points="259.5,-262 173.5,-262 173.5,-243 259.5,-243 259.5,-262"/>
<text text-anchor="middle" x="216.5" y="-250" font-family="Helvetica,sans-Serif" font-size="10.00">GetConfirmation</text>
</a>
</g>
</g>
<!-- Node2&#45;&gt;Node4 -->
<g id="edge4" class="edge">
<title>Node2&#45;&gt;Node4</title>
<path fill="none" stroke="#63b8ff" d="M293.63,-225.23C272.94,-230.61 251.31,-237.08 236.42,-242.56"/>
<polygon fill="#63b8ff" stroke="#63b8ff" points="294.35,-228.66 303.18,-222.81 292.63,-221.87 294.35,-228.66"/>
</g>
<!-- Node6 -->
<g id="node6" class="node">
<title>Node6</title>
<g id="a_node6"><a xlink:href="TransmitterCode_2src_2main_8cpp.html#a558ea014e230b7caa54ce5a37ad29b22" target="_top" xlink:title=" ">
<polygon fill="white" stroke="#666666" points="267,-151 166,-151 166,-132 267,-132 267,-151"/>
<text text-anchor="middle" x="216.5" y="-139" font-family="Helvetica,sans-Serif" font-size="10.00">ManageTransmitter</text>
</a>
</g>
</g>
<!-- Node2&#45;&gt;Node6 -->
<g id="edge7" class="edge">
<title>Node2&#45;&gt;Node6</title>
<path fill="none" stroke="#63b8ff" d="M332.12,-199.17C315.32,-187.41 291.45,-171.69 269,-160.5 262.35,-157.18 254.97,-154.12 247.92,-151.47"/>
<polygon fill="#63b8ff" stroke="#63b8ff" points="329.72,-201.76 339.89,-204.7 333.77,-196.06 329.72,-201.76"/>
</g>
<!-- Node8 -->
<g id="node8" class="node">
<title>Node8</title>
<g id="a_node8"><a xlink:href="TransmitterCode_2src_2main_8cpp.html#ab7c9edf843c732d7fe296564f39bc0dc" target="_top" xlink:title="RECEIVE A MODEL FILE.">
<polygon fill="white" stroke="#666666" points="263.5,-225 169.5,-225 169.5,-206 263.5,-206 263.5,-225"/>
<text text-anchor="middle" x="216.5" y="-213" font-family="Helvetica,sans-Serif" font-size="10.00">ReceiveModelFile</text>
</a>
</g>
</g>
<!-- Node2&#45;&gt;Node8 -->
<g id="edge9" class="edge">
<title>Node2&#45;&gt;Node8</title>
<path fill="none" stroke="#63b8ff" d="M293.23,-208.78C283.38,-208.69 273.32,-208.79 263.89,-209.07"/>
<polygon fill="#63b8ff" stroke="#63b8ff" points="293.08,-212.28 303.14,-208.95 293.2,-205.28 293.08,-212.28"/>
</g>
<!-- Node3&#45;&gt;Node2 -->
<g id="edge3" class="edge">
<title>Node3&#45;&gt;Node2</title>
<path fill="none" stroke="#63b8ff" d="M247.21,-192.2C263.98,-197.77 285.38,-203.84 304.65,-208.56"/>
<polygon fill="#63b8ff" stroke="#63b8ff" points="248.44,-188.92 237.85,-188.94 246.14,-195.53 248.44,-188.92"/>
</g>
<!-- Node4&#45;&gt;Node2 -->
<g id="edge5" class="edge">
<title>Node4&#45;&gt;Node2</title>
<path fill="none" stroke="#63b8ff" d="M270.72,-244.73C293.52,-239.03 318.71,-231.64 335.45,-225.49"/>
<polygon fill="#63b8ff" stroke="#63b8ff" points="270.13,-241.27 261.23,-247.02 271.78,-248.07 270.13,-241.27"/>
</g>
<!-- Node5 -->
<g id="node5" class="node">
<title>Node5</title>
<g id="a_node5"><a xlink:href="TransmitterCode_2src_2main_8cpp.html#a5c7f22bae35d5d6df9d54fe79dbb8401" target="_top" xlink:title=" ">
<polygon fill="white" stroke="#666666" points="128,-262 0,-262 0,-243 128,-243 128,-262"/>
<text text-anchor="middle" x="64" y="-250" font-family="Helvetica,sans-Serif" font-size="10.00">ResetTransmitterSettings</text>
</a>
</g>
</g>
<!-- Node4&#45;&gt;Node5 -->
<g id="edge6" class="edge">
<title>Node4&#45;&gt;Node5</title>
<path fill="none" stroke="#63b8ff" d="M161.74,-252.5C150.93,-252.5 139.47,-252.5 128.36,-252.5"/>
<polygon fill="#63b8ff" stroke="#63b8ff" points="161.66,-256 171.66,-252.5 161.66,-249 161.66,-256"/>
</g>
<!-- Node7 -->
<g id="node7" class="node">
<title>Node7</title>
<g id="a_node7"><a xlink:href="TransmitterCode_2src_2main_8cpp.html#ad3cb30894c94eb016e98bdcaa899ac86" target="_top" xlink:title=" ">
<polygon fill="white" stroke="#666666" points="81.5,-132 46.5,-132 46.5,-113 81.5,-113 81.5,-132"/>
<text text-anchor="middle" x="64" y="-120" font-family="Helvetica,sans-Serif" font-size="10.00">loop</text>
</a>
</g>
</g>
<!-- Node6&#45;&gt;Node7 -->
<g id="edge8" class="edge">
<title>Node6&#45;&gt;Node7</title>
<path fill="none" stroke="#63b8ff" d="M154.72,-133.83C128.42,-130.51 99.68,-126.88 81.99,-124.64"/>
<polygon fill="#63b8ff" stroke="#63b8ff" points="153.94,-137.26 164.3,-135.04 154.82,-130.31 153.94,-137.26"/>
</g>
<!-- Node8&#45;&gt;Node2 -->
<g id="edge10" class="edge">
<title>Node8&#45;&gt;Node2</title>
<path fill="none" stroke="#63b8ff" d="M275.2,-222.17C284.99,-222.31 295.08,-222.26 304.65,-222.02"/>
<polygon fill="#63b8ff" stroke="#63b8ff" points="275.48,-218.68 265.41,-221.96 275.33,-225.68 275.48,-218.68"/>
</g>
<!-- Node9&#45;&gt;Node2 -->
<g id="edge12" class="edge">
<title>Node9&#45;&gt;Node2</title>
<path fill="none" stroke="#63b8ff" d="M776.08,-138.9C762.79,-146.09 746.35,-154.39 731,-160.5 664.35,-187.02 646.77,-193.79 576,-205.5 518.23,-215.06 450.82,-216.75 406.1,-216.57"/>
<polygon fill="#63b8ff" stroke="#63b8ff" points="777.59,-142.06 784.65,-134.16 774.21,-135.93 777.59,-142.06"/>
</g>
<!-- Node10 -->
<g id="node10" class="node">
<title>Node10</title>
<g id="a_node10"><a xlink:href="TransmitterCode_2src_2main_8cpp.html#ac7a913ec35d5e97835e753fd1ee77dd7" target="_top" xlink:title=" ">
<polygon fill="white" stroke="#666666" points="731,-114 612,-114 612,-95 731,-95 731,-114"/>
<text text-anchor="middle" x="671.5" y="-102" font-family="Helvetica,sans-Serif" font-size="10.00">MoveCurrentPointDown</text>
</a>
</g>
</g>
<!-- Node9&#45;&gt;Node10 -->
<g id="edge13" class="edge">
<title>Node9&#45;&gt;Node10</title>
<path fill="none" stroke="#63b8ff" d="M755.42,-116.57C747.54,-115.43 739.29,-114.22 731.17,-113.04"/>
<polygon fill="#63b8ff" stroke="#63b8ff" points="754.75,-120.01 765.15,-117.99 755.76,-113.09 754.75,-120.01"/>
</g>
<!-- Node12 -->
<g id="node12" class="node">
<title>Node12</title>
<g id="a_node12"><a xlink:href="TransmitterCode_2src_2main_8cpp.html#adff425c4aac140ddca211d4ef4d98a7e" target="_top" xlink:title=" ">
<polygon fill="white" stroke="#666666" points="725,-77 618,-77 618,-58 725,-58 725,-77"/>
<text text-anchor="middle" x="671.5" y="-65" font-family="Helvetica,sans-Serif" font-size="10.00">MoveCurrentPointUp</text>
</a>
</g>
</g>
<!-- Node9&#45;&gt;Node12 -->
<g id="edge15" class="edge">
<title>Node9&#45;&gt;Node12</title>
<path fill="none" stroke="#63b8ff" d="M775.72,-108.17C762.46,-101.06 746.15,-92.81 731,-86.5 723.11,-83.22 714.44,-80.13 706.25,-77.44"/>
<polygon fill="#63b8ff" stroke="#63b8ff" points="773.84,-111.13 784.29,-112.84 777.19,-104.98 773.84,-111.13"/>
</g>
<!-- Node14 -->
<g id="node14" class="node">
<title>Node14</title>
<g id="a_node14"><a xlink:href="TransmitterCode_2src_2main_8cpp.html#ac7ef59496adda1ac4c905b854056a8f7" target="_top" xlink:title=" ">
<polygon fill="white" stroke="#666666" points="705,-40 638,-40 638,-21 705,-21 705,-40"/>
<text text-anchor="middle" x="671.5" y="-28" font-family="Helvetica,sans-Serif" font-size="10.00">PointSelect</text>
</a>
</g>
</g>
<!-- Node9&#45;&gt;Node14 -->
<g id="edge17" class="edge">
<title>Node9&#45;&gt;Node14</title>
<path fill="none" stroke="#63b8ff" d="M789.15,-104.77C775.91,-88.1 754.54,-64.14 731,-49.5 723.2,-44.65 714.04,-40.91 705.31,-38.09"/>
<polygon fill="#63b8ff" stroke="#63b8ff" points="786.16,-106.63 795.03,-112.42 791.71,-102.36 786.16,-106.63"/>
</g>
<!-- Node15 -->
<g id="node15" class="node">
<title>Node15</title>
<g id="a_node15"><a xlink:href="TransmitterCode_2src_2main_8cpp.html#ad770ee51a34d8c5026e65136884c16bf" target="_top" xlink:title=" ">
<polygon fill="white" stroke="#666666" points="713.5,-151 629.5,-151 629.5,-132 713.5,-132 713.5,-151"/>
<text text-anchor="middle" x="671.5" y="-139" font-family="Helvetica,sans-Serif" font-size="10.00">ShowServoPos</text>
</a>
</g>
</g>
<!-- Node9&#45;&gt;Node15 -->
<g id="edge18" class="edge">
<title>Node9&#45;&gt;Node15</title>
<path fill="none" stroke="#63b8ff" d="M755.48,-130.05C741.79,-131.94 726.98,-133.99 713.72,-135.82"/>
<polygon fill="#63b8ff" stroke="#63b8ff" points="755.72,-133.55 765.15,-128.72 754.76,-126.62 755.72,-133.55"/>
</g>
<!-- Node11 -->
<g id="node11" class="node">
<title>Node11</title>
<g id="a_node11"><a xlink:href="TransmitterCode_2src_2main_8cpp.html#af954e15b63371f52276ced00c0458368" target="_top" xlink:title=" ">
<polygon fill="white" stroke="#666666" points="541,-56 477,-56 477,-37 541,-37 541,-56"/>
<text text-anchor="middle" x="509" y="-44" font-family="Helvetica,sans-Serif" font-size="10.00">PointDown</text>
</a>
</g>
</g>
<!-- Node10&#45;&gt;Node11 -->
<g id="edge14" class="edge">
<title>Node10&#45;&gt;Node11</title>
<path fill="none" stroke="#63b8ff" d="M624.83,-91.03C620.47,-89.57 616.14,-88.05 612,-86.5 595.6,-80.36 592.24,-77.05 576,-70.5 563.9,-65.62 550.39,-60.63 538.75,-56.47"/>
<polygon fill="#63b8ff" stroke="#63b8ff" points="623.59,-94.31 634.18,-94.05 625.74,-87.65 623.59,-94.31"/>
</g>
<!-- Node13 -->
<g id="node13" class="node">
<title>Node13</title>
<g id="a_node13"><a xlink:href="TransmitterCode_2src_2main_8cpp.html#a40c056b9758bef5cf5c986926ccf2313" target="_top" xlink:title=" ">
<polygon fill="white" stroke="#666666" points="535,-19 483,-19 483,0 535,0 535,-19"/>
<text text-anchor="middle" x="509" y="-7" font-family="Helvetica,sans-Serif" font-size="10.00">PointUp</text>
</a>
</g>
</g>
<!-- Node12&#45;&gt;Node13 -->
<g id="edge16" class="edge">
<title>Node12&#45;&gt;Node13</title>
<path fill="none" stroke="#63b8ff" d="M622.41,-53.78C618.85,-52.43 615.34,-51.01 612,-49.5 594.91,-41.79 593.22,-34.93 576,-27.5 563.02,-21.9 547.85,-17.62 535.33,-14.64"/>
<polygon fill="#63b8ff" stroke="#63b8ff" points="621.14,-57.04 631.73,-57.04 623.45,-50.43 621.14,-57.04"/>
</g>
<!-- Node15&#45;&gt;Node2 -->
<g id="edge19" class="edge">
<title>Node15&#45;&gt;Node2</title>
<path fill="none" stroke="#63b8ff" d="M638.28,-156.03C620.27,-163.66 597.23,-172.62 576,-178.5 518.83,-194.33 451.3,-204.48 406.39,-210.07"/>
<polygon fill="#63b8ff" stroke="#63b8ff" points="639.61,-159.27 647.4,-152.09 636.83,-152.84 639.61,-159.27"/>
</g>
<!-- Node15&#45;&gt;Node7 -->
<g id="edge25" class="edge">
<title>Node15&#45;&gt;Node7</title>
<path fill="none" stroke="#63b8ff" d="M623.33,-127.83C619.46,-126.46 615.65,-125.01 612,-123.5 595.28,-116.59 593.56,-108.85 576,-104.5 386.86,-57.65 146.39,-104.37 81.67,-118.65"/>
<polygon fill="#63b8ff" stroke="#63b8ff" points="622.21,-131.15 632.8,-131.02 624.44,-124.51 622.21,-131.15"/>
</g>
<!-- Node16 -->
<g id="node16" class="node">
<title>Node16</title>
<g id="a_node16"><a xlink:href="TransmitterCode_2src_2main_8cpp.html#aa61377ec59e711151913086167f2f48f" target="_top" xlink:title=" ">
<polygon fill="white" stroke="#666666" points="576,-169 442,-169 442,-150 576,-150 576,-169"/>
<text text-anchor="middle" x="509" y="-157" font-family="Helvetica,sans-Serif" font-size="10.00">DisplayCurveAndServoPos</text>
</a>
</g>
</g>
<!-- Node15&#45;&gt;Node16 -->
<g id="edge20" class="edge">
<title>Node15&#45;&gt;Node16</title>
<path fill="none" stroke="#63b8ff" d="M617.87,-147.4C604.62,-148.89 590.23,-150.5 576.41,-152.05"/>
<polygon fill="#63b8ff" stroke="#63b8ff" points="618.12,-150.9 627.66,-146.3 617.34,-143.94 618.12,-150.9"/>
</g>
<!-- Node18 -->
<g id="node18" class="node">
<title>Node18</title>
<g id="a_node18"><a xlink:href="TransmitterCode_2src_2main_8cpp.html#acaf005c908c2b6706d7ab9579f456ca8" target="_top" xlink:title=" ">
<polygon fill="white" stroke="#666666" points="548,-132 470,-132 470,-113 548,-113 548,-132"/>
<text text-anchor="middle" x="509" y="-120" font-family="Helvetica,sans-Serif" font-size="10.00">DualRatesEnd</text>
</a>
</g>
</g>
<!-- Node15&#45;&gt;Node18 -->
<g id="edge24" class="edge">
<title>Node15&#45;&gt;Node18</title>
<path fill="none" stroke="#63b8ff" d="M618,-135.29C595.32,-132.6 569.27,-129.52 548.44,-127.05"/>
<polygon fill="#63b8ff" stroke="#63b8ff" points="617.32,-138.73 627.66,-136.43 618.15,-131.78 617.32,-138.73"/>
</g>
<!-- Node16&#45;&gt;Node2 -->
<g id="edge21" class="edge">
<title>Node16&#45;&gt;Node2</title>
<path fill="none" stroke="#63b8ff" d="M469.66,-173.37C460.58,-176.68 450.95,-180.2 442,-183.5 422.07,-190.85 399.58,-199.27 382.67,-205.63"/>
<polygon fill="#63b8ff" stroke="#63b8ff" points="470.74,-176.71 478.94,-170 468.35,-170.13 470.74,-176.71"/>
</g>
<!-- Node17 -->
<g id="node17" class="node">
<title>Node17</title>
<g id="a_node17"><a xlink:href="TransmitterCode_2src_2main_8cpp.html#aa98d7fb495cbdc40cb17343ffafbfe15" target="_top" xlink:title=" ">
<polygon fill="white" stroke="#666666" points="383,-160 328,-160 328,-141 383,-141 383,-160"/>
<text text-anchor="middle" x="355.5" y="-148" font-family="Helvetica,sans-Serif" font-size="10.00">GetBank</text>
</a>
</g>
</g>
<!-- Node16&#45;&gt;Node17 -->
<g id="edge22" class="edge">
<title>Node16&#45;&gt;Node17</title>
<path fill="none" stroke="#63b8ff" d="M430.44,-154.89C413.5,-153.89 396.69,-152.89 383.38,-152.1"/>
<polygon fill="#63b8ff" stroke="#63b8ff" points="429.85,-158.36 440.04,-155.46 430.26,-151.38 429.85,-158.36"/>
</g>
<!-- Node17&#45;&gt;Node6 -->
<g id="edge23" class="edge">
<title>Node17&#45;&gt;Node6</title>
<path fill="none" stroke="#63b8ff" d="M316.69,-148.02C301.48,-147.02 283.72,-145.85 267.47,-144.78"/>
<polygon fill="#63b8ff" stroke="#63b8ff" points="316.04,-151.48 326.25,-148.64 316.5,-144.5 316.04,-151.48"/>
</g>
</g>
</svg>
