<?xml version="1.0" encoding="UTF-8" standalone="no"?>
<!DOCTYPE svg PUBLIC "-//W3C//DTD SVG 1.1//EN"
 "http://www.w3.org/Graphics/SVG/1.1/DTD/svg11.dtd">
<!-- Generated by graphviz version 7.0.4 (20221203.1631)
 -->
<!-- Title: CheckHardwareTrims Pages: 1 -->
<svg width="1436pt" height="989pt"
 viewBox="0.00 0.00 1436.00 988.52" xmlns="http://www.w3.org/2000/svg" xmlns:xlink="http://www.w3.org/1999/xlink">
<g id="graph0" class="graph" transform="scale(1 1) rotate(0) translate(4 984.52)">
<title>CheckHardwareTrims</title>
<!-- Node1 -->
<g id="node1" class="node">
<title>Node1</title>
<g id="a_node1"><a xlink:title=" ">
<polygon fill="#999999" stroke="#666666" points="111,-654.02 0,-654.02 0,-635.02 111,-635.02 111,-654.02"/>
<text text-anchor="middle" x="55.5" y="-642.02" font-family="Helvetica,sans-Serif" font-size="10.00">CheckHardwareTrims</text>
</a>
</g>
</g>
<!-- Node2 -->
<g id="node2" class="node">
<title>Node2</title>
<g id="a_node2"><a xlink:href="TransmitterCode_2src_2main_8cpp.html#a17123a117a96a9416dec48d9345f8a5b" target="_top" xlink:title=" ">
<polygon fill="white" stroke="#666666" points="212,-635.02 147,-635.02 147,-616.02 212,-616.02 212,-635.02"/>
<text text-anchor="middle" x="179.5" y="-623.02" font-family="Helvetica,sans-Serif" font-size="10.00">MoveaTrim</text>
</a>
</g>
</g>
<!-- Node1&#45;&gt;Node2 -->
<g id="edge1" class="edge">
<title>Node1&#45;&gt;Node2</title>
<path fill="none" stroke="#63b8ff" d="M111.43,-635.97C119.41,-634.73 127.53,-633.46 135.24,-632.26"/>
<polygon fill="#63b8ff" stroke="#63b8ff" points="135.71,-635.73 145.05,-630.73 134.63,-628.81 135.71,-635.73"/>
</g>
<!-- Node127 -->
<g id="node50" class="node">
<title>Node127</title>
<g id="a_node50"><a xlink:href="TransmitterCode_2src_2main_8cpp.html#a67037f3d9963a3107353a1badb1af3a6" target="_top" xlink:title=" ">
<polygon fill="white" stroke="#666666" points="346,-692.02 248,-692.02 248,-673.02 346,-673.02 346,-692.02"/>
<text text-anchor="middle" x="297" y="-680.02" font-family="Helvetica,sans-Serif" font-size="10.00">SetATrimDefinition</text>
</a>
</g>
</g>
<!-- Node1&#45;&gt;Node127 -->
<g id="edge74" class="edge">
<title>Node1&#45;&gt;Node127</title>
<path fill="none" stroke="#63b8ff" d="M111.45,-653.24C148.9,-659.19 198.47,-667.05 236.8,-673.13"/>
<polygon fill="#63b8ff" stroke="#63b8ff" points="235.88,-676.53 246.3,-674.64 236.97,-669.62 235.88,-676.53"/>
</g>
<!-- Node3 -->
<g id="node3" class="node">
<title>Node3</title>
<g id="a_node3"><a xlink:href="TransmitterCode_2src_2main_8cpp.html#ae4be4bb0e33569d140264079d28227fd" target="_top" xlink:title=" ">
<polygon fill="white" stroke="#666666" points="323.5,-579.02 270.5,-579.02 270.5,-560.02 323.5,-560.02 323.5,-579.02"/>
<text text-anchor="middle" x="297" y="-567.02" font-family="Helvetica,sans-Serif" font-size="10.00">DecTrim</text>
</a>
</g>
</g>
<!-- Node2&#45;&gt;Node3 -->
<g id="edge2" class="edge">
<title>Node2&#45;&gt;Node3</title>
<path fill="none" stroke="#63b8ff" d="M196.5,-615.59C209.95,-607.47 229.83,-595.98 248,-587.52 251.73,-585.79 255.68,-584.09 259.64,-582.48"/>
<polygon fill="#63b8ff" stroke="#63b8ff" points="260.58,-585.87 268.63,-578.98 258.04,-579.35 260.58,-585.87"/>
</g>
<!-- Node126 -->
<g id="node48" class="node">
<title>Node126</title>
<g id="a_node48"><a xlink:href="TransmitterCode_2src_2main_8cpp.html#a6e96b79e1edc864e742216a05c7c3622" target="_top" xlink:title=" ">
<polygon fill="white" stroke="#666666" points="322,-616.02 272,-616.02 272,-597.02 322,-597.02 322,-616.02"/>
<text text-anchor="middle" x="297" y="-604.02" font-family="Helvetica,sans-Serif" font-size="10.00">IncTrim</text>
</a>
</g>
</g>
<!-- Node2&#45;&gt;Node126 -->
<g id="edge68" class="edge">
<title>Node2&#45;&gt;Node126</title>
<path fill="none" stroke="#63b8ff" d="M212.37,-620.28C227.27,-617.83 245.06,-614.9 260.4,-612.38"/>
<polygon fill="#63b8ff" stroke="#63b8ff" points="260.77,-615.87 270.07,-610.79 259.63,-608.96 260.77,-615.87"/>
</g>
<!-- Node92 -->
<g id="node49" class="node">
<title>Node92</title>
<g id="a_node49"><a xlink:href="TransmitterCode_2src_2main_8cpp.html#a49da3478d89a22069e29c7f00cb46a5f" target="_top" xlink:title=" ">
<polygon fill="white" stroke="#666666" points="479,-654.02 382,-654.02 382,-635.02 479,-635.02 479,-654.02"/>
<text text-anchor="middle" x="430.5" y="-642.02" font-family="Helvetica,sans-Serif" font-size="10.00">RestoreBrightness</text>
</a>
</g>
</g>
<!-- Node2&#45;&gt;Node92 -->
<g id="edge71" class="edge">
<title>Node2&#45;&gt;Node92</title>
<path fill="none" stroke="#63b8ff" d="M212.29,-627.95C252.06,-630.98 320.96,-636.24 370.51,-640.02"/>
<polygon fill="#63b8ff" stroke="#63b8ff" points="369.96,-643.49 380.2,-640.76 370.5,-636.51 369.96,-643.49"/>
</g>
<!-- Node4 -->
<g id="node4" class="node">
<title>Node4</title>
<g id="a_node4"><a xlink:href="TransmitterCode_2src_2main_8cpp.html#aa490b4664b0a4498d53b30b82287d5df" target="_top" xlink:title=" ">
<polygon fill="white" stroke="#666666" points="462,-616.02 399,-616.02 399,-597.02 462,-597.02 462,-616.02"/>
<text text-anchor="middle" x="430.5" y="-604.02" font-family="Helvetica,sans-Serif" font-size="10.00">PlaySound</text>
</a>
</g>
</g>
<!-- Node3&#45;&gt;Node4 -->
<g id="edge3" class="edge">
<title>Node3&#45;&gt;Node4</title>
<path fill="none" stroke="#63b8ff" d="M323.98,-576.83C342.25,-581.98 367.09,-588.96 388.08,-594.87"/>
<polygon fill="#63b8ff" stroke="#63b8ff" points="386.93,-598.18 397.5,-597.52 388.82,-591.44 386.93,-598.18"/>
</g>
<!-- Node79 -->
<g id="node47" class="node">
<title>Node79</title>
<g id="a_node47"><a xlink:href="TransmitterCode_2src_2main_8cpp.html#ac78966debc2cdc13d8ca958ce3b20c78" target="_top" xlink:title=" ">
<polygon fill="white" stroke="#666666" points="475,-579.02 386,-579.02 386,-560.02 475,-560.02 475,-579.02"/>
<text text-anchor="middle" x="430.5" y="-567.02" font-family="Helvetica,sans-Serif" font-size="10.00">UpdateTrimView</text>
</a>
</g>
</g>
<!-- Node3&#45;&gt;Node79 -->
<g id="edge66" class="edge">
<title>Node3&#45;&gt;Node79</title>
<path fill="none" stroke="#63b8ff" d="M323.98,-569.52C338.41,-569.52 356.93,-569.52 374.42,-569.52"/>
<polygon fill="#63b8ff" stroke="#63b8ff" points="374.19,-573.02 384.19,-569.52 374.19,-566.02 374.19,-573.02"/>
</g>
<!-- Node5 -->
<g id="node5" class="node">
<title>Node5</title>
<g id="a_node5"><a xlink:href="TransmitterCode_2src_2main_8cpp.html#aecac2f0c289f02ef3c92b85be82eacac" target="_top" xlink:title=" ">
<polygon fill="white" stroke="#666666" points="598,-635.02 515,-635.02 515,-616.02 598,-616.02 598,-635.02"/>
<text text-anchor="middle" x="556.5" y="-623.02" font-family="Helvetica,sans-Serif" font-size="10.00">SendCommand</text>
</a>
</g>
</g>
<!-- Node4&#45;&gt;Node5 -->
<g id="edge4" class="edge">
<title>Node4&#45;&gt;Node5</title>
<path fill="none" stroke="#63b8ff" d="M462.47,-611.27C474.92,-613.18 489.63,-615.43 503.62,-617.58"/>
<polygon fill="#63b8ff" stroke="#63b8ff" points="502.73,-620.98 513.14,-619.03 503.79,-614.06 502.73,-620.98"/>
</g>
<!-- Node28 -->
<g id="node23" class="node">
<title>Node28</title>
<g id="a_node23"><a xlink:href="TransmitterCode_2src_2main_8cpp.html#a590a9174319918d7e3d7baca323fcf26" target="_top" xlink:title=" ">
<polygon fill="white" stroke="#666666" points="1274,-493.02 1245,-493.02 1245,-474.02 1274,-474.02 1274,-493.02"/>
<text text-anchor="middle" x="1259.5" y="-481.02" font-family="Helvetica,sans-Serif" font-size="10.00">Str</text>
</a>
</g>
</g>
<!-- Node4&#45;&gt;Node28 -->
<g id="edge65" class="edge">
<title>Node4&#45;&gt;Node28</title>
<path fill="none" stroke="#63b8ff" d="M462.22,-598.3C468.31,-595.61 474.28,-592.09 479,-587.52 507.61,-559.85 497.4,-541.23 515,-505.52 608.48,-315.87 576.35,-217.37 744,-88.52 799.9,-45.57 828.02,-59.03 898,-50.52 1019.91,-35.71 1082.26,18.11 1174,-63.52 1234.66,-117.5 1253.32,-384.93 1257.49,-462.44"/>
<polygon fill="#63b8ff" stroke="#63b8ff" points="1253.98,-462.23 1257.98,-472.04 1260.97,-461.87 1253.98,-462.23"/>
</g>
<!-- Node6 -->
<g id="node6" class="node">
<title>Node6</title>
<g id="a_node6"><a xlink:href="TransmitterCode_2src_2main_8cpp.html#a43937dd3d9c795271fd9c3eb3c6b6410" target="_top" xlink:title=" ">
<polygon fill="white" stroke="#666666" points="1428,-914.02 1345,-914.02 1345,-895.02 1428,-895.02 1428,-914.02"/>
<text text-anchor="middle" x="1386.5" y="-902.02" font-family="Helvetica,sans-Serif" font-size="10.00">GetReturnCode</text>
</a>
</g>
</g>
<!-- Node5&#45;&gt;Node6 -->
<g id="edge5" class="edge">
<title>Node5&#45;&gt;Node6</title>
<path fill="none" stroke="#63b8ff" d="M559.16,-635.39C569.42,-692.72 629.5,-980.52 802,-980.52 802,-980.52 802,-980.52 1114,-980.52 1204.1,-980.52 1305,-941.23 1354.59,-919.15"/>
<polygon fill="#63b8ff" stroke="#63b8ff" points="1355.89,-922.4 1363.55,-915.08 1353,-916.03 1355.89,-922.4"/>
</g>
<!-- Node7 -->
<g id="node7" class="node">
<title>Node7</title>
<g id="a_node7"><a xlink:href="TransmitterCode_2src_2main_8cpp.html#a5f109790a6fe0b972a502f3cac4ed1e7" target="_top" xlink:title=" ">
<polygon fill="white" stroke="#666666" points="695,-617.02 647,-617.02 647,-598.02 695,-598.02 695,-617.02"/>
<text text-anchor="middle" x="671" y="-605.02" font-family="Helvetica,sans-Serif" font-size="10.00">InStrng</text>
</a>
</g>
</g>
<!-- Node5&#45;&gt;Node7 -->
<g id="edge6" class="edge">
<title>Node5&#45;&gt;Node7</title>
<path fill="none" stroke="#63b8ff" d="M598.43,-618.97C610.59,-617.03 623.78,-614.92 635.49,-613.05"/>
<polygon fill="#63b8ff" stroke="#63b8ff" points="635.79,-616.54 645.11,-611.51 634.68,-609.63 635.79,-616.54"/>
</g>
<!-- Node8 -->
<g id="node8" class="node">
<title>Node8</title>
<g id="a_node8"><a xlink:href="RadioFunctions_8cpp.html#a760609a682300dfe6bfaac737fd4d5eb" target="_top" xlink:title=" ">
<polygon fill="white" stroke="#666666" points="708,-654.02 634,-654.02 634,-635.02 708,-635.02 708,-654.02"/>
<text text-anchor="middle" x="671" y="-642.02" font-family="Helvetica,sans-Serif" font-size="10.00">Procrastinate</text>
</a>
</g>
</g>
<!-- Node5&#45;&gt;Node8 -->
<g id="edge7" class="edge">
<title>Node5&#45;&gt;Node8</title>
<path fill="none" stroke="#63b8ff" d="M598.43,-632.44C606.29,-633.76 614.58,-635.16 622.62,-636.52"/>
<polygon fill="#63b8ff" stroke="#63b8ff" points="621.82,-639.94 632.26,-638.15 622.98,-633.03 621.82,-639.94"/>
</g>
<!-- Node9 -->
<g id="node9" class="node">
<title>Node9</title>
<g id="a_node9"><a xlink:href="RadioFunctions_8cpp.html#a1ddd5e8d5bd649dd98ce3710fbff651b" target="_top" xlink:title=" ">
<polygon fill="white" stroke="#666666" points="833.5,-654.02 772.5,-654.02 772.5,-635.02 833.5,-635.02 833.5,-654.02"/>
<text text-anchor="middle" x="803" y="-642.02" font-family="Helvetica,sans-Serif" font-size="10.00">Compress</text>
</a>
</g>
</g>
<!-- Node8&#45;&gt;Node9 -->
<g id="edge8" class="edge">
<title>Node8&#45;&gt;Node9</title>
<path fill="none" stroke="#63b8ff" d="M708.21,-644.52C724.57,-644.52 743.98,-644.52 760.88,-644.52"/>
<polygon fill="#63b8ff" stroke="#63b8ff" points="760.61,-648.02 770.61,-644.52 760.61,-641.02 760.61,-648.02"/>
</g>
<!-- Node10 -->
<g id="node10" class="node">
<title>Node10</title>
<g id="a_node10"><a xlink:href="TransmitterCode_2src_2main_8cpp.html#a26ae4f6ca14f760bd5eb6e7588fe7c81" target="_top" xlink:title="GET NEW SERVO POSITIONS.">
<polygon fill="white" stroke="#666666" points="862,-222.02 744,-222.02 744,-203.02 862,-203.02 862,-222.02"/>
<text text-anchor="middle" x="803" y="-210.02" font-family="Helvetica,sans-Serif" font-size="10.00">GetNewChannelValues</text>
</a>
</g>
</g>
<!-- Node8&#45;&gt;Node10 -->
<g id="edge9" class="edge">
<title>Node8&#45;&gt;Node10</title>
<path fill="none" stroke="#63b8ff" d="M697.86,-634.65C701.74,-632.18 705.32,-629.17 708,-625.52 760.65,-553.76 724.44,-515.35 744,-428.52 760.32,-356.06 784.64,-271.28 795.89,-233.06"/>
<polygon fill="#63b8ff" stroke="#63b8ff" points="799.14,-234.39 798.62,-223.81 792.43,-232.4 799.14,-234.39"/>
</g>
<!-- Node19 -->
<g id="node19" class="node">
<title>Node19</title>
<g id="a_node19"><a xlink:href="TransmitterCode_2src_2main_8cpp.html#ada95a00a341e4a80176eda743a94ab2e" target="_top" xlink:title=" ">
<polygon fill="white" stroke="#666666" points="838,-617.02 768,-617.02 768,-598.02 838,-598.02 838,-617.02"/>
<text text-anchor="middle" x="803" y="-605.02" font-family="Helvetica,sans-Serif" font-size="10.00">KickTheDog</text>
</a>
</g>
</g>
<!-- Node8&#45;&gt;Node19 -->
<g id="edge19" class="edge">
<title>Node8&#45;&gt;Node19</title>
<path fill="none" stroke="#63b8ff" d="M706.84,-634.61C722.11,-630.26 740.25,-625.1 756.57,-620.46"/>
<polygon fill="#63b8ff" stroke="#63b8ff" points="757.4,-623.86 766.06,-617.75 755.49,-617.12 757.4,-623.86"/>
</g>
<!-- Node20 -->
<g id="node20" class="node">
<title>Node20</title>
<g id="a_node20"><a xlink:href="RadioFunctions_8cpp.html#a049bfb836e7aa4a3a48a1a4bd225fafc" target="_top" xlink:title=" ">
<polygon fill="white" stroke="#666666" points="832.5,-691.02 773.5,-691.02 773.5,-672.02 832.5,-672.02 832.5,-691.02"/>
<text text-anchor="middle" x="803" y="-679.02" font-family="Helvetica,sans-Serif" font-size="10.00">SendData</text>
</a>
</g>
</g>
<!-- Node8&#45;&gt;Node20 -->
<g id="edge20" class="edge">
<title>Node8&#45;&gt;Node20</title>
<path fill="none" stroke="#63b8ff" d="M706.84,-654.44C723.95,-659.31 744.64,-665.2 762.35,-670.24"/>
<polygon fill="#63b8ff" stroke="#63b8ff" points="761.18,-673.55 771.76,-672.92 763.1,-666.81 761.18,-673.55"/>
</g>
<!-- Node113 -->
<g id="node40" class="node">
<title>Node113</title>
<g id="a_node40"><a xlink:href="TransmitterCode_2src_2main_8cpp.html#ad770ee51a34d8c5026e65136884c16bf" target="_top" xlink:title=" ">
<polygon fill="white" stroke="#666666" points="845,-457.02 761,-457.02 761,-438.02 845,-438.02 845,-457.02"/>
<text text-anchor="middle" x="803" y="-445.02" font-family="Helvetica,sans-Serif" font-size="10.00">ShowServoPos</text>
</a>
</g>
</g>
<!-- Node8&#45;&gt;Node113 -->
<g id="edge50" class="edge">
<title>Node8&#45;&gt;Node113</title>
<path fill="none" stroke="#63b8ff" d="M695.86,-634.55C700.22,-632.03 704.5,-629.02 708,-625.52 754.85,-578.68 783.86,-503.61 795.76,-467.8"/>
<polygon fill="#63b8ff" stroke="#63b8ff" points="798.96,-469.29 798.68,-458.7 792.29,-467.15 798.96,-469.29"/>
</g>
<!-- Node11 -->
<g id="node11" class="node">
<title>Node11</title>
<g id="a_node11"><a xlink:href="TransmitterCode_2src_2main_8cpp.html#ac77bd940a0faad7b997c9ddf40a7acc6" target="_top" xlink:title=" ">
<polygon fill="white" stroke="#666666" points="984,-167.02 930,-167.02 930,-148.02 984,-148.02 984,-167.02"/>
<text text-anchor="middle" x="957" y="-155.02" font-family="Helvetica,sans-Serif" font-size="10.00">DoMixes</text>
</a>
</g>
</g>
<!-- Node10&#45;&gt;Node11 -->
<g id="edge10" class="edge">
<title>Node10&#45;&gt;Node11</title>
<path fill="none" stroke="#63b8ff" d="M827.77,-202.6C846.67,-194.85 873.84,-184.01 898,-175.52 904.72,-173.16 911.94,-170.79 918.92,-168.58"/>
<polygon fill="#63b8ff" stroke="#63b8ff" points="919.63,-172.03 928.15,-165.72 917.56,-165.34 919.63,-172.03"/>
</g>
<!-- Node13 -->
<g id="node13" class="node">
<title>Node13</title>
<g id="a_node13"><a xlink:href="TransmitterCode_2src_2main_8cpp.html#acbd7adcd2b0e2095a89b4a98042b526e" target="_top" xlink:title=" ">
<polygon fill="white" stroke="#666666" points="1003,-241.02 911,-241.02 911,-222.02 1003,-222.02 1003,-241.02"/>
<text text-anchor="middle" x="957" y="-229.02" font-family="Helvetica,sans-Serif" font-size="10.00">DoReverseSense</text>
</a>
</g>
</g>
<!-- Node10&#45;&gt;Node13 -->
<g id="edge12" class="edge">
<title>Node10&#45;&gt;Node13</title>
<path fill="none" stroke="#63b8ff" d="M862.33,-219.82C874.51,-221.34 887.34,-222.94 899.45,-224.46"/>
<polygon fill="#63b8ff" stroke="#63b8ff" points="898.95,-227.92 909.3,-225.69 899.82,-220.97 898.95,-227.92"/>
</g>
<!-- Node14 -->
<g id="node14" class="node">
<title>Node14</title>
<g id="a_node14"><a xlink:href="TransmitterCode_2src_2main_8cpp.html#af9c038b48102eca9032f10fefd9d5736" target="_top" xlink:title=" ">
<polygon fill="white" stroke="#666666" points="996,-130.02 918,-130.02 918,-111.02 996,-111.02 996,-130.02"/>
<text text-anchor="middle" x="957" y="-118.02" font-family="Helvetica,sans-Serif" font-size="10.00">GetCurveDots</text>
</a>
</g>
</g>
<!-- Node10&#45;&gt;Node14 -->
<g id="edge13" class="edge">
<title>Node10&#45;&gt;Node14</title>
<path fill="none" stroke="#63b8ff" d="M813.83,-202.73C830.04,-187.09 863.99,-156.4 898,-138.52 900.89,-137.01 903.92,-135.59 907.03,-134.28"/>
<polygon fill="#63b8ff" stroke="#63b8ff" points="908.24,-137.57 916.34,-130.74 905.75,-131.02 908.24,-137.57"/>
</g>
<!-- Node17 -->
<g id="node17" class="node">
<title>Node17</title>
<g id="a_node17"><a xlink:href="TransmitterCode_2src_2main_8cpp.html#a248db02e07497e7a4149db17b4e5c2f3" target="_top" xlink:title=" ">
<polygon fill="white" stroke="#666666" points="995.5,-204.02 918.5,-204.02 918.5,-185.02 995.5,-185.02 995.5,-204.02"/>
<text text-anchor="middle" x="957" y="-192.02" font-family="Helvetica,sans-Serif" font-size="10.00">GetStickInput</text>
</a>
</g>
</g>
<!-- Node10&#45;&gt;Node17 -->
<g id="edge16" class="edge">
<title>Node10&#45;&gt;Node17</title>
<path fill="none" stroke="#63b8ff" d="M862.33,-205.62C877.13,-203.86 892.87,-202 907.15,-200.31"/>
<polygon fill="#63b8ff" stroke="#63b8ff" points="907.21,-203.83 916.73,-199.17 906.39,-196.88 907.21,-203.83"/>
</g>
<!-- Node18 -->
<g id="node18" class="node">
<title>Node18</title>
<g id="a_node18"><a xlink:href="TransmitterCode_2src_2main_8cpp.html#a07fabdf50e27daf4c4bd38d316a40e68" target="_top" xlink:title=" ">
<polygon fill="white" stroke="#666666" points="1000,-278.02 914,-278.02 914,-259.02 1000,-259.02 1000,-278.02"/>
<text text-anchor="middle" x="957" y="-266.02" font-family="Helvetica,sans-Serif" font-size="10.00">GetTrimAmount</text>
</a>
</g>
</g>
<!-- Node10&#45;&gt;Node18 -->
<g id="edge18" class="edge">
<title>Node10&#45;&gt;Node18</title>
<path fill="none" stroke="#63b8ff" d="M828.2,-222.5C847.1,-230.18 874.07,-240.91 898,-249.52 903.09,-251.36 908.46,-253.22 913.79,-255.02"/>
<polygon fill="#63b8ff" stroke="#63b8ff" points="912.55,-258.29 923.14,-258.12 914.76,-251.65 912.55,-258.29"/>
</g>
<!-- Node12 -->
<g id="node12" class="node">
<title>Node12</title>
<g id="a_node12"><a xlink:href="TransmitterCode_2src_2main_8cpp.html#a0d8d8a0d67cb9b04481f1692abe75368" target="_top" xlink:title=" ">
<polygon fill="white" stroke="#666666" points="1152.5,-203.02 1073.5,-203.02 1073.5,-184.02 1152.5,-184.02 1152.5,-203.02"/>
<text text-anchor="middle" x="1113" y="-191.02" font-family="Helvetica,sans-Serif" font-size="10.00">IntoHigherRes</text>
</a>
</g>
</g>
<!-- Node11&#45;&gt;Node12 -->
<g id="edge11" class="edge">
<title>Node11&#45;&gt;Node12</title>
<path fill="none" stroke="#63b8ff" d="M984.47,-163.71C1005.75,-168.69 1036.24,-175.81 1062.07,-181.85"/>
<polygon fill="#63b8ff" stroke="#63b8ff" points="1061.18,-185.24 1071.71,-184.11 1062.77,-178.42 1061.18,-185.24"/>
</g>
<!-- Node15 -->
<g id="node15" class="node">
<title>Node15</title>
<g id="a_node15"><a xlink:href="TransmitterCode_2src_2main_8cpp.html#afeabb54d48ef7e55693014e057d2943d" target="_top" xlink:title=" ">
<polygon fill="white" stroke="#666666" points="1151.5,-166.02 1074.5,-166.02 1074.5,-147.02 1151.5,-147.02 1151.5,-166.02"/>
<text text-anchor="middle" x="1113" y="-154.02" font-family="Helvetica,sans-Serif" font-size="10.00">CalculateRate</text>
</a>
</g>
</g>
<!-- Node14&#45;&gt;Node15 -->
<g id="edge14" class="edge">
<title>Node14&#45;&gt;Node15</title>
<path fill="none" stroke="#63b8ff" d="M996.46,-129.52C1016.55,-134.21 1041.35,-140.01 1062.82,-145.03"/>
<polygon fill="#63b8ff" stroke="#63b8ff" points="1062.02,-148.43 1072.55,-147.3 1063.61,-141.62 1062.02,-148.43"/>
</g>
<!-- Node16 -->
<g id="node16" class="node">
<title>Node16</title>
<g id="a_node16"><a xlink:href="TransmitterCode_2src_2main_8cpp.html#a8f53f86499d740b350f7b6d791c90497" target="_top" xlink:title=" ">
<polygon fill="white" stroke="#666666" points="1148.5,-129.02 1077.5,-129.02 1077.5,-110.02 1148.5,-110.02 1148.5,-129.02"/>
<text text-anchor="middle" x="1113" y="-117.02" font-family="Helvetica,sans-Serif" font-size="10.00">UseFullRate</text>
</a>
</g>
</g>
<!-- Node14&#45;&gt;Node16 -->
<g id="edge15" class="edge">
<title>Node14&#45;&gt;Node16</title>
<path fill="none" stroke="#63b8ff" d="M996.46,-120.27C1017.46,-120.14 1043.6,-119.97 1065.71,-119.82"/>
<polygon fill="#63b8ff" stroke="#63b8ff" points="1065.69,-123.33 1075.67,-119.76 1065.64,-116.33 1065.69,-123.33"/>
</g>
<!-- Node17&#45;&gt;Node12 -->
<g id="edge17" class="edge">
<title>Node17&#45;&gt;Node12</title>
<path fill="none" stroke="#63b8ff" d="M995.67,-194.28C1015.6,-194.15 1040.33,-193.99 1061.86,-193.85"/>
<polygon fill="#63b8ff" stroke="#63b8ff" points="1061.62,-197.35 1071.59,-193.79 1061.57,-190.35 1061.62,-197.35"/>
</g>
<!-- Node21 -->
<g id="node21" class="node">
<title>Node21</title>
<g id="a_node21"><a xlink:href="RadioFunctions_8cpp.html#a5fbd3c8613a4163425c94965704ce5f8" target="_top" xlink:title=" ">
<polygon fill="white" stroke="#666666" points="994,-691.02 920,-691.02 920,-672.02 994,-672.02 994,-691.02"/>
<text text-anchor="middle" x="957" y="-679.02" font-family="Helvetica,sans-Serif" font-size="10.00">FailedPacket</text>
</a>
</g>
</g>
<!-- Node20&#45;&gt;Node21 -->
<g id="edge21" class="edge">
<title>Node20&#45;&gt;Node21</title>
<path fill="none" stroke="#63b8ff" d="M832.95,-681.52C854.21,-681.52 883.59,-681.52 908.3,-681.52"/>
<polygon fill="#63b8ff" stroke="#63b8ff" points="908.13,-685.02 918.13,-681.52 908.13,-678.02 908.13,-685.02"/>
</g>
<!-- Node58 -->
<g id="node30" class="node">
<title>Node58</title>
<g id="a_node30"><a xlink:href="RadioFunctions_8cpp.html#a07c27b4e208198453c70876517926052" target="_top" xlink:title=" ">
<polygon fill="white" stroke="#666666" points="988,-654.02 926,-654.02 926,-635.02 988,-635.02 988,-654.02"/>
<text text-anchor="middle" x="957" y="-642.02" font-family="Helvetica,sans-Serif" font-size="10.00">FlushFifos</text>
</a>
</g>
</g>
<!-- Node20&#45;&gt;Node58 -->
<g id="edge36" class="edge">
<title>Node20&#45;&gt;Node58</title>
<path fill="none" stroke="#63b8ff" d="M832.95,-674.48C856.06,-668.85 888.74,-660.9 914.61,-654.6"/>
<polygon fill="#63b8ff" stroke="#63b8ff" points="915.24,-658.05 924.13,-652.28 913.58,-651.25 915.24,-658.05"/>
</g>
<!-- Node59 -->
<g id="node31" class="node">
<title>Node59</title>
<g id="a_node31"><a xlink:href="TransmitterCode_2src_2main_8cpp.html#ac4ffb9b555ce8d38f615610dc89b5499" target="_top" xlink:title=" ">
<polygon fill="white" stroke="#666666" points="1001.5,-767.02 912.5,-767.02 912.5,-748.02 1001.5,-748.02 1001.5,-767.02"/>
<text text-anchor="middle" x="957" y="-755.02" font-family="Helvetica,sans-Serif" font-size="10.00">LoadPacketData</text>
</a>
</g>
</g>
<!-- Node20&#45;&gt;Node59 -->
<g id="edge37" class="edge">
<title>Node20&#45;&gt;Node59</title>
<path fill="none" stroke="#63b8ff" d="M823.87,-691.46C849.93,-704.49 895.88,-727.46 926.13,-742.59"/>
<polygon fill="#63b8ff" stroke="#63b8ff" points="924.26,-745.57 934.77,-746.91 927.39,-739.31 924.26,-745.57"/>
</g>
<!-- Node62 -->
<g id="node34" class="node">
<title>Node62</title>
<g id="a_node34"><a xlink:href="ReceiverCode_2src_2main_8cpp.html#a6a495c5560f12cc3fd3df9454927d681" target="_top" xlink:title=" ">
<polygon fill="white" stroke="#666666" points="994,-617.02 920,-617.02 920,-598.02 994,-598.02 994,-617.02"/>
<text text-anchor="middle" x="957" y="-605.02" font-family="Helvetica,sans-Serif" font-size="10.00">MapToSBUS</text>
</a>
</g>
</g>
<!-- Node20&#45;&gt;Node62 -->
<g id="edge42" class="edge">
<title>Node20&#45;&gt;Node62</title>
<path fill="none" stroke="#63b8ff" d="M832.94,-675.03C842.63,-672.09 853.19,-668.02 862,-662.52 881.47,-650.38 878.44,-637.52 898,-625.52 901.38,-623.45 905.03,-621.6 908.78,-619.94"/>
<polygon fill="#63b8ff" stroke="#63b8ff" points="910.04,-623.21 918.11,-616.35 907.52,-616.68 910.04,-623.21"/>
</g>
<!-- Node63 -->
<g id="node35" class="node">
<title>Node63</title>
<g id="a_node35"><a xlink:href="RadioFunctions_8cpp.html#a1c11bb6771548de7d96723045b922620" target="_top" xlink:title=" ">
<polygon fill="white" stroke="#666666" points="1005,-541.02 909,-541.02 909,-522.02 1005,-522.02 1005,-541.02"/>
<text text-anchor="middle" x="957" y="-529.02" font-family="Helvetica,sans-Serif" font-size="10.00">SuccessfulPacket</text>
</a>
</g>
</g>
<!-- Node20&#45;&gt;Node63 -->
<g id="edge43" class="edge">
<title>Node20&#45;&gt;Node63</title>
<path fill="none" stroke="#63b8ff" d="M832.87,-676.88C842.99,-674.09 853.86,-669.63 862,-662.52 889.56,-638.48 876.65,-618.22 898,-588.52 908.64,-573.73 923.3,-559.36 935.22,-548.75"/>
<polygon fill="#63b8ff" stroke="#63b8ff" points="937.27,-551.6 942.54,-542.42 932.69,-546.31 937.27,-551.6"/>
</g>
<!-- Node22 -->
<g id="node22" class="node">
<title>Node22</title>
<g id="a_node22"><a xlink:href="TransmitterCode_2src_2main_8cpp.html#afd409fe008843b50c3e2ff697558d4d5" target="_top" xlink:title=" ">
<polygon fill="#fff0f0" stroke="red" points="1159,-688.02 1067,-688.02 1067,-669.02 1159,-669.02 1159,-688.02"/>
<text text-anchor="middle" x="1113" y="-676.02" font-family="Helvetica,sans-Serif" font-size="10.00">LogThisLongGap</text>
</a>
</g>
</g>
<!-- Node21&#45;&gt;Node22 -->
<g id="edge22" class="edge">
<title>Node21&#45;&gt;Node22</title>
<path fill="none" stroke="#63b8ff" d="M994.5,-680.81C1012.65,-680.46 1035,-680.02 1055.32,-679.63"/>
<polygon fill="#63b8ff" stroke="#63b8ff" points="1055.23,-683.13 1065.16,-679.44 1055.1,-676.13 1055.23,-683.13"/>
</g>
<!-- Node33 -->
<g id="node24" class="node">
<title>Node33</title>
<g id="a_node24"><a xlink:href="RadioFunctions_8cpp.html#afc091b5942e21a03f6dc8635d5e519ba" target="_top" xlink:title=" ">
<polygon fill="white" stroke="#666666" points="1174,-577.02 1052,-577.02 1052,-558.02 1174,-558.02 1174,-577.02"/>
<text text-anchor="middle" x="1113" y="-565.02" font-family="Helvetica,sans-Serif" font-size="10.00">RecordsPacketSuccess</text>
</a>
</g>
</g>
<!-- Node21&#45;&gt;Node33 -->
<g id="edge24" class="edge">
<title>Node21&#45;&gt;Node33</title>
<path fill="none" stroke="#63b8ff" d="M994.46,-674.58C1002.21,-671.81 1009.89,-667.93 1016,-662.52 1044.28,-637.47 1023.41,-610.22 1052,-585.52 1052.95,-584.71 1053.93,-583.93 1054.94,-583.18"/>
<polygon fill="#63b8ff" stroke="#63b8ff" points="1056.62,-586.25 1063.45,-578.16 1053.06,-580.23 1056.62,-586.25"/>
</g>
<!-- Node34 -->
<g id="node25" class="node">
<title>Node34</title>
<g id="a_node25"><a xlink:href="TransmitterCode_2src_2main_8cpp.html#a7d34cec6e8edc20c8b50424e15dcc7c7" target="_top" xlink:title=" ">
<polygon fill="#fff0f0" stroke="red" points="1144.5,-876.02 1081.5,-876.02 1081.5,-857.02 1144.5,-857.02 1144.5,-876.02"/>
<text text-anchor="middle" x="1113" y="-864.02" font-family="Helvetica,sans-Serif" font-size="10.00">RedLedOn</text>
</a>
</g>
</g>
<!-- Node21&#45;&gt;Node34 -->
<g id="edge25" class="edge">
<title>Node21&#45;&gt;Node34</title>
<path fill="none" stroke="#63b8ff" d="M971.33,-691.46C984.41,-701.86 1004.09,-719.33 1016,-738.52 1043.11,-782.24 1015.18,-812.6 1052,-848.52 1057.16,-853.56 1063.67,-857.19 1070.49,-859.81"/>
<polygon fill="#63b8ff" stroke="#63b8ff" points="1069.26,-863.1 1079.85,-862.71 1071.33,-856.41 1069.26,-863.1"/>
</g>
<!-- Node53 -->
<g id="node28" class="node">
<title>Node53</title>
<g id="a_node28"><a xlink:href="TransmitterCode_2src_2main_8cpp.html#a0a3d89dfcfab70c6cbc50401fff1afeb" target="_top" xlink:title=" ">
<polygon fill="white" stroke="#666666" points="1167.5,-614.02 1058.5,-614.02 1058.5,-595.02 1167.5,-595.02 1167.5,-614.02"/>
<text text-anchor="middle" x="1113" y="-602.02" font-family="Helvetica,sans-Serif" font-size="10.00">ReEnableScanButton</text>
</a>
</g>
</g>
<!-- Node21&#45;&gt;Node53 -->
<g id="edge32" class="edge">
<title>Node21&#45;&gt;Node53</title>
<path fill="none" stroke="#63b8ff" d="M994.3,-672.86C1001.81,-670.2 1009.43,-666.8 1016,-662.52 1036.04,-649.47 1031.8,-635.32 1052,-622.52 1053.97,-621.27 1056.04,-620.11 1058.17,-619.02"/>
<polygon fill="#63b8ff" stroke="#63b8ff" points="1059.35,-622.32 1067.08,-615.08 1056.52,-615.92 1059.35,-622.32"/>
</g>
<!-- Node54 -->
<g id="node29" class="node">
<title>Node54</title>
<g id="a_node29"><a xlink:href="RadioFunctions_8cpp.html#ad0236abcfc887ad708d9504c4ab2a7c3" target="_top" xlink:title=" ">
<polygon fill="#fff0f0" stroke="red" points="1157,-651.02 1069,-651.02 1069,-632.02 1157,-632.02 1157,-651.02"/>
<text text-anchor="middle" x="1113" y="-639.02" font-family="Helvetica,sans-Serif" font-size="10.00">TryToReconnect</text>
</a>
</g>
</g>
<!-- Node21&#45;&gt;Node54 -->
<g id="edge35" class="edge">
<title>Node21&#45;&gt;Node54</title>
<path fill="none" stroke="#63b8ff" d="M994.5,-672.04C1014.89,-666.75 1040.58,-660.08 1062.73,-654.32"/>
<polygon fill="#63b8ff" stroke="#63b8ff" points="1063.35,-657.78 1072.15,-651.87 1061.59,-651 1063.35,-657.78"/>
</g>
<!-- Node22&#45;&gt;Node28 -->
<g id="edge23" class="edge">
<title>Node22&#45;&gt;Node28</title>
<path fill="none" stroke="#63b8ff" d="M1159.41,-668.65C1164.69,-666.24 1169.71,-663.25 1174,-659.52 1222.54,-617.39 1245.53,-541.1 1254.19,-504.38"/>
<polygon fill="#63b8ff" stroke="#63b8ff" points="1257.61,-505.16 1256.35,-494.64 1250.77,-503.64 1257.61,-505.16"/>
</g>
<!-- Node34&#45;&gt;Node4 -->
<g id="edge26" class="edge">
<title>Node34&#45;&gt;Node4</title>
<path fill="none" stroke="#63b8ff" d="M1081.16,-864.32C1039.25,-860.87 962.16,-852.95 898,-837.52 827.48,-820.57 810.28,-812.99 744,-783.52 693.11,-760.9 682,-751.75 634,-723.52 563.74,-682.21 551.59,-662.59 479,-625.52 475.76,-623.87 472.33,-622.25 468.87,-620.71"/>
<polygon fill="#63b8ff" stroke="#63b8ff" points="470.48,-617.59 459.91,-616.92 467.75,-624.04 470.48,-617.59"/>
</g>
<!-- Node34&#45;&gt;Node5 -->
<g id="edge27" class="edge">
<title>Node34&#45;&gt;Node5</title>
<path fill="none" stroke="#63b8ff" d="M1081.22,-859.35C1002.67,-840.18 790,-782.88 634,-690.52 611.65,-677.29 589.39,-657.43 574.69,-643.15"/>
<polygon fill="#63b8ff" stroke="#63b8ff" points="577.22,-640.72 567.66,-636.15 572.28,-645.68 577.22,-640.72"/>
</g>
<!-- Node37 -->
<g id="node26" class="node">
<title>Node37</title>
<g id="a_node26"><a xlink:href="TransmitterCode_2src_2main_8cpp.html#afe513398f72d5e48f691830a1ef6eb42" target="_top" xlink:title=" ">
<polygon fill="white" stroke="#666666" points="1288.5,-914.02 1230.5,-914.02 1230.5,-895.02 1288.5,-895.02 1288.5,-914.02"/>
<text text-anchor="middle" x="1259.5" y="-902.02" font-family="Helvetica,sans-Serif" font-size="10.00">SendText</text>
</a>
</g>
</g>
<!-- Node34&#45;&gt;Node37 -->
<g id="edge28" class="edge">
<title>Node34&#45;&gt;Node37</title>
<path fill="none" stroke="#63b8ff" d="M1145,-874.68C1166.66,-880.37 1195.77,-888.03 1219.08,-894.16"/>
<polygon fill="#63b8ff" stroke="#63b8ff" points="1217.98,-897.49 1228.54,-896.65 1219.76,-890.72 1217.98,-897.49"/>
</g>
<!-- Node38 -->
<g id="node27" class="node">
<title>Node38</title>
<g id="a_node27"><a xlink:href="ReceiverCode_2src_2main_8cpp.html#a2eabdb233653fa02f0b899e26b5e8ce7" target="_top" xlink:title=" ">
<polygon fill="white" stroke="#666666" points="1309,-820.02 1210,-820.02 1210,-801.02 1309,-801.02 1309,-820.02"/>
<text text-anchor="middle" x="1259.5" y="-808.02" font-family="Helvetica,sans-Serif" font-size="10.00">SetUKFrequencies</text>
</a>
</g>
</g>
<!-- Node34&#45;&gt;Node38 -->
<g id="edge31" class="edge">
<title>Node34&#45;&gt;Node38</title>
<path fill="none" stroke="#63b8ff" d="M1144.78,-858.13C1154.24,-855.33 1164.63,-852.02 1174,-848.52 1192.25,-841.72 1212.13,-832.85 1228.03,-825.39"/>
<polygon fill="#63b8ff" stroke="#63b8ff" points="1229.43,-828.6 1236.96,-821.15 1226.42,-822.28 1229.43,-828.6"/>
</g>
<!-- Node37&#45;&gt;Node5 -->
<g id="edge30" class="edge">
<title>Node37&#45;&gt;Node5</title>
<path fill="none" stroke="#63b8ff" d="M1230.17,-903.8C1190.13,-902.35 1114.84,-898.06 1052,-885.52 856.61,-846.54 769.06,-870.01 634,-723.52 607.3,-694.56 626.15,-670.09 598,-642.52 597.82,-642.35 597.64,-642.18 597.46,-642.01"/>
<polygon fill="#63b8ff" stroke="#63b8ff" points="599.67,-639.28 589.5,-636.3 595.59,-644.97 599.67,-639.28"/>
</g>
<!-- Node37&#45;&gt;Node6 -->
<g id="edge29" class="edge">
<title>Node37&#45;&gt;Node6</title>
<path fill="none" stroke="#63b8ff" d="M1288.86,-904.52C1302.07,-904.52 1318.2,-904.52 1333.47,-904.52"/>
<polygon fill="#63b8ff" stroke="#63b8ff" points="1333.41,-908.02 1343.41,-904.52 1333.41,-901.02 1333.41,-908.02"/>
</g>
<!-- Node53&#45;&gt;Node5 -->
<g id="edge33" class="edge">
<title>Node53&#45;&gt;Node5</title>
<path fill="none" stroke="#63b8ff" d="M1062,-594.55C974.11,-578.83 786.77,-553.52 634,-588.52 615.83,-592.69 596.97,-601.75 582.51,-609.87"/>
<polygon fill="#63b8ff" stroke="#63b8ff" points="581.01,-606.69 574.15,-614.76 584.55,-612.73 581.01,-606.69"/>
</g>
<!-- Node53&#45;&gt;Node28 -->
<g id="edge34" class="edge">
<title>Node53&#45;&gt;Node28</title>
<path fill="none" stroke="#63b8ff" d="M1156.1,-594.61C1162.38,-592.18 1168.56,-589.19 1174,-585.52 1206.43,-563.67 1233.07,-525.84 1247.29,-502.9"/>
<polygon fill="#63b8ff" stroke="#63b8ff" points="1250.16,-504.92 1252.31,-494.54 1244.16,-501.32 1250.16,-504.92"/>
</g>
<!-- Node59&#45;&gt;Node5 -->
<g id="edge39" class="edge">
<title>Node59&#45;&gt;Node5</title>
<path fill="none" stroke="#63b8ff" d="M912.08,-747.55C849.2,-732.6 730.46,-701.89 634,-662.52 618,-655.99 600.62,-647.69 586.48,-640.61"/>
<polygon fill="#63b8ff" stroke="#63b8ff" points="588.23,-637.57 577.73,-636.16 585.06,-643.81 588.23,-637.57"/>
</g>
<!-- Node59&#45;&gt;Node38 -->
<g id="edge41" class="edge">
<title>Node59&#45;&gt;Node38</title>
<path fill="none" stroke="#63b8ff" d="M1001.68,-756.85C1045.79,-757.13 1115.55,-760.18 1174,-774.52 1193.25,-779.25 1213.73,-787.87 1229.71,-795.5"/>
<polygon fill="#63b8ff" stroke="#63b8ff" points="1228.1,-798.61 1238.62,-799.89 1231.19,-792.33 1228.1,-798.61"/>
</g>
<!-- Node60 -->
<g id="node32" class="node">
<title>Node60</title>
<g id="a_node32"><a xlink:href="TransmitterCode_2src_2main_8cpp.html#a5aa4888b924a4f1d95e9cedc3004f2b6" target="_top" xlink:title=" ">
<polygon fill="white" stroke="#666666" points="1154.5,-802.02 1071.5,-802.02 1071.5,-783.02 1154.5,-783.02 1154.5,-802.02"/>
<text text-anchor="middle" x="1113" y="-790.02" font-family="Helvetica,sans-Serif" font-size="10.00">MakeTwobytes</text>
</a>
</g>
</g>
<!-- Node59&#45;&gt;Node60 -->
<g id="edge38" class="edge">
<title>Node59&#45;&gt;Node60</title>
<path fill="none" stroke="#63b8ff" d="M1001.72,-767.46C1019.85,-771.58 1041.02,-776.39 1059.94,-780.69"/>
<polygon fill="#63b8ff" stroke="#63b8ff" points="1059.08,-784.09 1069.61,-782.89 1060.63,-777.26 1059.08,-784.09"/>
</g>
<!-- Node61 -->
<g id="node33" class="node">
<title>Node61</title>
<g id="a_node33"><a xlink:href="ReceiverCode_2src_2main_8cpp.html#a31a35307bbac88ceda244272f25d399a" target="_top" xlink:title=" ">
<polygon fill="white" stroke="#666666" points="1165,-839.02 1061,-839.02 1061,-820.02 1165,-820.02 1165,-839.02"/>
<text text-anchor="middle" x="1113" y="-827.02" font-family="Helvetica,sans-Serif" font-size="10.00">SetTestFrequencies</text>
</a>
</g>
</g>
<!-- Node59&#45;&gt;Node61 -->
<g id="edge40" class="edge">
<title>Node59&#45;&gt;Node61</title>
<path fill="none" stroke="#63b8ff" d="M986.86,-767.47C996.43,-771.29 1006.95,-776.06 1016,-781.52 1033.83,-792.3 1033.65,-801.67 1052,-811.52 1054.65,-812.95 1057.42,-814.27 1060.27,-815.51"/>
<polygon fill="#63b8ff" stroke="#63b8ff" points="1058.77,-818.68 1069.36,-819.02 1061.29,-812.15 1058.77,-818.68"/>
</g>
<!-- Node63&#45;&gt;Node33 -->
<g id="edge48" class="edge">
<title>Node63&#45;&gt;Node33</title>
<path fill="none" stroke="#63b8ff" d="M1000.49,-541.46C1018.34,-545.63 1039.31,-550.53 1058.22,-554.95"/>
<polygon fill="#63b8ff" stroke="#63b8ff" points="1057.37,-558.35 1067.91,-557.22 1058.97,-551.53 1057.37,-558.35"/>
</g>
<!-- Node64 -->
<g id="node36" class="node">
<title>Node64</title>
<g id="a_node36"><a xlink:href="TransmitterCode_2src_2main_8cpp.html#a953f1d5046e183549ed95b08f6d675e3" target="_top" xlink:title=" ">
<polygon fill="#fff0f0" stroke="red" points="1162,-466.02 1064,-466.02 1064,-447.02 1162,-447.02 1162,-466.02"/>
<text text-anchor="middle" x="1113" y="-454.02" font-family="Helvetica,sans-Serif" font-size="10.00">CheckGapsLength</text>
</a>
</g>
</g>
<!-- Node63&#45;&gt;Node64 -->
<g id="edge44" class="edge">
<title>Node63&#45;&gt;Node64</title>
<path fill="none" stroke="#63b8ff" d="M997.27,-521.62C1003.78,-519.15 1010.27,-516.15 1016,-512.52 1035.66,-500.08 1032.19,-486.72 1052,-474.52 1054.03,-473.28 1056.14,-472.11 1058.32,-471.02"/>
<polygon fill="#63b8ff" stroke="#63b8ff" points="1059.67,-474.25 1067.46,-467.07 1056.9,-467.83 1059.67,-474.25"/>
</g>
<!-- Node44 -->
<g id="node37" class="node">
<title>Node44</title>
<g id="a_node37"><a xlink:href="TransmitterCode_2src_2main_8cpp.html#a62e53eb9359c32b666e3386d62c57037" target="_top" xlink:title=" ">
<polygon fill="#fff0f0" stroke="red" points="1149,-429.02 1077,-429.02 1077,-410.02 1149,-410.02 1149,-429.02"/>
<text text-anchor="middle" x="1113" y="-417.02" font-family="Helvetica,sans-Serif" font-size="10.00">GreenLedOn</text>
</a>
</g>
</g>
<!-- Node63&#45;&gt;Node44 -->
<g id="edge45" class="edge">
<title>Node63&#45;&gt;Node44</title>
<path fill="none" stroke="#63b8ff" d="M1001.61,-521.61C1006.82,-519.21 1011.78,-516.23 1016,-512.52 1043.8,-488.15 1023.9,-461.55 1052,-437.52 1056.12,-434 1060.92,-431.16 1065.96,-428.89"/>
<polygon fill="#63b8ff" stroke="#63b8ff" points="1066.98,-432.24 1075.13,-425.47 1064.53,-425.68 1066.98,-432.24"/>
</g>
<!-- Node66 -->
<g id="node38" class="node">
<title>Node66</title>
<g id="a_node38"><a xlink:href="TransmitterCode_2src_2main_8cpp.html#a694f4f5a0147f4dc29b0bc1a8951547d" target="_top" xlink:title=" ">
<polygon fill="#fff0f0" stroke="red" points="1160,-540.02 1066,-540.02 1066,-521.02 1160,-521.02 1160,-540.02"/>
<text text-anchor="middle" x="1113" y="-528.02" font-family="Helvetica,sans-Serif" font-size="10.00">ParseAckPayload</text>
</a>
</g>
</g>
<!-- Node63&#45;&gt;Node66 -->
<g id="edge47" class="edge">
<title>Node63&#45;&gt;Node66</title>
<path fill="none" stroke="#63b8ff" d="M1005.46,-531.22C1020.89,-531.12 1038.19,-531 1054.29,-530.9"/>
<polygon fill="#63b8ff" stroke="#63b8ff" points="1054.26,-534.4 1064.24,-530.83 1054.22,-527.4 1054.26,-534.4"/>
</g>
<!-- Node52 -->
<g id="node39" class="node">
<title>Node52</title>
<g id="a_node39"><a xlink:href="TransmitterCode_2src_2main_8cpp.html#a793b7bcd77531c95fe72ed4356d421c8" target="_top" xlink:title=" ">
<polygon fill="white" stroke="#666666" points="1168,-503.02 1058,-503.02 1058,-484.02 1168,-484.02 1168,-503.02"/>
<text text-anchor="middle" x="1113" y="-491.02" font-family="Helvetica,sans-Serif" font-size="10.00">StartInactvityTimeout</text>
</a>
</g>
</g>
<!-- Node63&#45;&gt;Node52 -->
<g id="edge49" class="edge">
<title>Node63&#45;&gt;Node52</title>
<path fill="none" stroke="#63b8ff" d="M998.46,-521.54C1017.49,-516.85 1040.38,-511.2 1060.62,-506.2"/>
<polygon fill="#63b8ff" stroke="#63b8ff" points="1061.2,-509.66 1070.07,-503.87 1059.52,-502.87 1061.2,-509.66"/>
</g>
<!-- Node44&#45;&gt;Node4 -->
<g id="edge46" class="edge">
<title>Node44&#45;&gt;Node4</title>
<path fill="none" stroke="#63b8ff" d="M1076.6,-414.52C1009.92,-406.36 861.84,-394.33 744,-428.52 612.09,-466.8 602.05,-526.49 479,-587.52 475.74,-589.14 472.3,-590.73 468.83,-592.25"/>
<polygon fill="#63b8ff" stroke="#63b8ff" points="467.72,-588.93 459.85,-596.02 470.43,-595.38 467.72,-588.93"/>
</g>
<!-- Node114 -->
<g id="node41" class="node">
<title>Node114</title>
<g id="a_node41"><a xlink:href="TransmitterCode_2src_2main_8cpp.html#acf49567c45af927603ae83a7f46e6534" target="_top" xlink:title=" ">
<polygon fill="#fff0f0" stroke="red" points="994,-315.02 920,-315.02 920,-296.02 994,-296.02 994,-315.02"/>
<text text-anchor="middle" x="957" y="-303.02" font-family="Helvetica,sans-Serif" font-size="10.00">DisplayCurve</text>
</a>
</g>
</g>
<!-- Node113&#45;&gt;Node114 -->
<g id="edge51" class="edge">
<title>Node113&#45;&gt;Node114</title>
<path fill="none" stroke="#63b8ff" d="M814.45,-437.76C839.83,-414.05 905.02,-353.15 937.31,-322.99"/>
<polygon fill="#63b8ff" stroke="#63b8ff" points="939.46,-325.77 944.37,-316.39 934.68,-320.66 939.46,-325.77"/>
</g>
<!-- Node120 -->
<g id="node43" class="node">
<title>Node120</title>
<g id="a_node43"><a xlink:href="TransmitterCode_2src_2main_8cpp.html#acbef1d41e1bd646b60a6e8afd9c66880" target="_top" xlink:title=" ">
<polygon fill="white" stroke="#666666" points="1142,-372.02 1084,-372.02 1084,-353.02 1142,-353.02 1142,-372.02"/>
<text text-anchor="middle" x="1113" y="-360.02" font-family="Helvetica,sans-Serif" font-size="10.00">DrawLine</text>
</a>
</g>
</g>
<!-- Node113&#45;&gt;Node120 -->
<g id="edge61" class="edge">
<title>Node113&#45;&gt;Node120</title>
<path fill="none" stroke="#63b8ff" d="M839.93,-437.61C898.07,-421.56 1012.32,-390.03 1072.61,-373.4"/>
<polygon fill="#63b8ff" stroke="#63b8ff" points="1073.39,-376.81 1082.1,-370.78 1071.53,-370.06 1073.39,-376.81"/>
</g>
<!-- Node41 -->
<g id="node44" class="node">
<title>Node41</title>
<g id="a_node44"><a xlink:href="TransmitterCode_2src_2main_8cpp.html#a1e20efc1e419b252b50d36f9924503fc" target="_top" xlink:title=" ">
<polygon fill="white" stroke="#666666" points="1145,-92.02 1081,-92.02 1081,-73.02 1145,-73.02 1145,-92.02"/>
<text text-anchor="middle" x="1113" y="-80.02" font-family="Helvetica,sans-Serif" font-size="10.00">SendValue</text>
</a>
</g>
</g>
<!-- Node113&#45;&gt;Node41 -->
<g id="edge64" class="edge">
<title>Node113&#45;&gt;Node41</title>
<path fill="none" stroke="#63b8ff" d="M806.66,-437.59C821.78,-381.1 896.28,-102.96 898,-101.52 945.69,-61.6 1022.05,-65.62 1069.49,-73.28"/>
<polygon fill="#63b8ff" stroke="#63b8ff" points="1068.66,-76.69 1079.12,-74.97 1069.87,-69.8 1068.66,-76.69"/>
</g>
<!-- Node124 -->
<g id="node45" class="node">
<title>Node124</title>
<g id="a_node45"><a xlink:href="TransmitterCode_2src_2main_8cpp.html#af1030157034999448f5ca611d6209385" target="_top" xlink:title=" ">
<polygon fill="white" stroke="#666666" points="1016,-504.02 898,-504.02 898,-485.02 1016,-485.02 1016,-504.02"/>
<text text-anchor="middle" x="957" y="-492.02" font-family="Helvetica,sans-Serif" font-size="10.00">GetStickInputInputOnly</text>
</a>
</g>
</g>
<!-- Node113&#45;&gt;Node124 -->
<g id="edge62" class="edge">
<title>Node113&#45;&gt;Node124</title>
<path fill="none" stroke="#63b8ff" d="M836.24,-457.49C858.6,-464.41 888.65,-473.7 913.05,-481.24"/>
<polygon fill="#63b8ff" stroke="#63b8ff" points="911.78,-484.51 922.37,-484.12 913.85,-477.83 911.78,-484.51"/>
</g>
<!-- Node125 -->
<g id="node46" class="node">
<title>Node125</title>
<g id="a_node46"><a xlink:href="TransmitterCode_2src_2main_8cpp.html#a5cdbe11d62e0de7610ba323e60b97d33" target="_top" xlink:title=" ">
<polygon fill="white" stroke="#666666" points="995.5,-467.02 918.5,-467.02 918.5,-448.02 995.5,-448.02 995.5,-467.02"/>
<text text-anchor="middle" x="957" y="-455.02" font-family="Helvetica,sans-Serif" font-size="10.00">IntoLowerRes</text>
</a>
</g>
</g>
<!-- Node113&#45;&gt;Node125 -->
<g id="edge63" class="edge">
<title>Node113&#45;&gt;Node125</title>
<path fill="none" stroke="#63b8ff" d="M845.13,-450.23C864.17,-451.48 886.93,-452.98 906.86,-454.29"/>
<polygon fill="#63b8ff" stroke="#63b8ff" points="906.5,-457.78 916.71,-454.94 906.96,-450.79 906.5,-457.78"/>
</g>
<!-- Node114&#45;&gt;Node5 -->
<g id="edge56" class="edge">
<title>Node114&#45;&gt;Node5</title>
<path fill="none" stroke="#63b8ff" d="M919.64,-295.98C854.24,-281.19 715.94,-261.04 634,-329.52 591.13,-365.35 567.03,-542.43 559.83,-604.21"/>
<polygon fill="#63b8ff" stroke="#63b8ff" points="556.36,-603.72 558.71,-614.05 563.32,-604.51 556.36,-603.72"/>
</g>
<!-- Node115 -->
<g id="node42" class="node">
<title>Node115</title>
<g id="a_node42"><a xlink:href="TransmitterCode_2src_2main_8cpp.html#a1870ad872e2424cbf8222747d3a43617" target="_top" xlink:title=" ">
<polygon fill="white" stroke="#666666" points="1164.5,-315.02 1061.5,-315.02 1061.5,-296.02 1164.5,-296.02 1164.5,-315.02"/>
<text text-anchor="middle" x="1113" y="-303.02" font-family="Helvetica,sans-Serif" font-size="10.00">CheckInvisiblePoint</text>
</a>
</g>
</g>
<!-- Node114&#45;&gt;Node115 -->
<g id="edge52" class="edge">
<title>Node114&#45;&gt;Node115</title>
<path fill="none" stroke="#63b8ff" d="M994.5,-305.52C1011,-305.52 1030.96,-305.52 1049.72,-305.52"/>
<polygon fill="#63b8ff" stroke="#63b8ff" points="1049.69,-309.02 1059.69,-305.52 1049.69,-302.02 1049.69,-309.02"/>
</g>
<!-- Node114&#45;&gt;Node120 -->
<g id="edge53" class="edge">
<title>Node114&#45;&gt;Node120</title>
<path fill="none" stroke="#63b8ff" d="M984.82,-315.45C1009.7,-324.66 1046.96,-338.45 1074.72,-348.73"/>
<polygon fill="#63b8ff" stroke="#63b8ff" points="1073.21,-351.9 1083.81,-352.09 1075.64,-345.33 1073.21,-351.9"/>
</g>
<!-- Node114&#45;&gt;Node41 -->
<g id="edge57" class="edge">
<title>Node114&#45;&gt;Node41</title>
<path fill="none" stroke="#63b8ff" d="M994.3,-300.05C1002.43,-297.23 1010.32,-292.96 1016,-286.52 1071.69,-223.37 995.52,-162.97 1052,-100.52 1056.84,-95.18 1063.19,-91.39 1069.95,-88.72"/>
<polygon fill="#63b8ff" stroke="#63b8ff" points="1070.79,-92.12 1079.31,-85.82 1068.72,-85.44 1070.79,-92.12"/>
</g>
<!-- Node120&#45;&gt;Node5 -->
<g id="edge54" class="edge">
<title>Node120&#45;&gt;Node5</title>
<path fill="none" stroke="#63b8ff" d="M1083.84,-361.07C1018.96,-359.04 855.93,-361.5 744,-428.52 664.62,-476.05 597.25,-566.64 570.2,-606.22"/>
<polygon fill="#63b8ff" stroke="#63b8ff" points="567.45,-604.03 564.77,-614.28 573.26,-607.94 567.45,-604.03"/>
</g>
<!-- Node120&#45;&gt;Node28 -->
<g id="edge55" class="edge">
<title>Node120&#45;&gt;Node28</title>
<path fill="none" stroke="#63b8ff" d="M1131.73,-372.41C1144.04,-379.59 1160.57,-389.87 1174,-400.52 1199.52,-420.76 1225.81,-447.73 1242.14,-465.35"/>
<polygon fill="#63b8ff" stroke="#63b8ff" points="1239.37,-467.5 1248.7,-472.52 1244.53,-462.78 1239.37,-467.5"/>
</g>
<!-- Node41&#45;&gt;Node5 -->
<g id="edge59" class="edge">
<title>Node41&#45;&gt;Node5</title>
<path fill="none" stroke="#63b8ff" d="M1082.94,-72.54C1040.8,-59.71 960.9,-41.66 898,-64.52 880.81,-70.77 650.06,-262.64 634,-289.52 570.79,-395.31 559.77,-548.4 557.88,-604.18"/>
<polygon fill="#63b8ff" stroke="#63b8ff" points="554.38,-604.04 557.62,-614.13 561.38,-604.22 554.38,-604.04"/>
</g>
<!-- Node41&#45;&gt;Node6 -->
<g id="edge58" class="edge">
<title>Node41&#45;&gt;Node6</title>
<path fill="none" stroke="#63b8ff" d="M1145.47,-86.3C1155.61,-88.88 1166.23,-93.23 1174,-100.52 1299.83,-218.59 1264.03,-297.94 1309,-464.52 1351.72,-622.79 1376.06,-819.77 1383.24,-883.55"/>
<polygon fill="#63b8ff" stroke="#63b8ff" points="1379.73,-883.72 1384.31,-893.28 1386.69,-882.95 1379.73,-883.72"/>
</g>
<!-- Node41&#45;&gt;Node28 -->
<g id="edge60" class="edge">
<title>Node41&#45;&gt;Node28</title>
<path fill="none" stroke="#63b8ff" d="M1145.44,-85.55C1155.83,-88.06 1166.6,-92.55 1174,-100.52 1199.24,-127.71 1242.73,-386.08 1255.12,-462.4"/>
<polygon fill="#63b8ff" stroke="#63b8ff" points="1251.66,-462.93 1256.71,-472.24 1258.57,-461.81 1251.66,-462.93"/>
</g>
<!-- Node79&#45;&gt;Node41 -->
<g id="edge67" class="edge">
<title>Node79&#45;&gt;Node41</title>
<path fill="none" stroke="#63b8ff" d="M431.51,-559.58C431.79,-492.68 436.82,-108.69 515,-30.52 564.29,18.77 600.29,-6.52 670,-6.52 670,-6.52 670,-6.52 804,-6.52 906.23,-6.52 1022.15,-46.48 1078.15,-68.45"/>
<polygon fill="#63b8ff" stroke="#63b8ff" points="1076.54,-71.58 1087.12,-72.03 1079.13,-65.07 1076.54,-71.58"/>
</g>
<!-- Node126&#45;&gt;Node4 -->
<g id="edge69" class="edge">
<title>Node126&#45;&gt;Node4</title>
<path fill="none" stroke="#63b8ff" d="M322.43,-606.52C340.6,-606.52 365.86,-606.52 387.28,-606.52"/>
<polygon fill="#63b8ff" stroke="#63b8ff" points="387.2,-610.02 397.2,-606.52 387.2,-603.02 387.2,-610.02"/>
</g>
<!-- Node126&#45;&gt;Node79 -->
<g id="edge70" class="edge">
<title>Node126&#45;&gt;Node79</title>
<path fill="none" stroke="#63b8ff" d="M322.43,-599.65C339.41,-594.87 362.58,-588.35 383.02,-582.6"/>
<polygon fill="#63b8ff" stroke="#63b8ff" points="383.91,-585.99 392.59,-579.91 382.01,-579.25 383.91,-585.99"/>
</g>
<!-- Node92&#45;&gt;Node5 -->
<g id="edge72" class="edge">
<title>Node92&#45;&gt;Node5</title>
<path fill="none" stroke="#63b8ff" d="M479.44,-637.18C487.23,-635.99 495.32,-634.75 503.2,-633.54"/>
<polygon fill="#63b8ff" stroke="#63b8ff" points="503.69,-637 513.04,-632.03 502.63,-630.09 503.69,-637"/>
</g>
<!-- Node92&#45;&gt;Node28 -->
<g id="edge73" class="edge">
<title>Node92&#45;&gt;Node28</title>
<path fill="none" stroke="#63b8ff" d="M475.23,-654.51C616.82,-685.82 1060.22,-775.38 1174,-696.52 1238.58,-651.77 1253.81,-549.29 1257.4,-504.79"/>
<polygon fill="#63b8ff" stroke="#63b8ff" points="1260.88,-505.15 1258.05,-494.93 1253.9,-504.68 1260.88,-505.15"/>
</g>
<!-- Node127&#45;&gt;Node4 -->
<g id="edge75" class="edge">
<title>Node127&#45;&gt;Node4</title>
<path fill="none" stroke="#63b8ff" d="M310.55,-672.73C326.51,-660.59 355.23,-639.75 382,-625.52 385,-623.93 388.17,-622.39 391.38,-620.92"/>
<polygon fill="#63b8ff" stroke="#63b8ff" points="392.47,-624.26 400.27,-617.09 389.71,-617.83 392.47,-624.26"/>
</g>
<!-- Node127&#45;&gt;Node37 -->
<g id="edge76" class="edge">
<title>Node127&#45;&gt;Node37</title>
<path fill="none" stroke="#63b8ff" d="M301.86,-692.4C321.16,-739.89 411.92,-942.52 555.5,-942.52 555.5,-942.52 555.5,-942.52 958,-942.52 1052.21,-942.52 1161.73,-923.91 1218.99,-912.74"/>
<polygon fill="#63b8ff" stroke="#63b8ff" points="1219.45,-916.22 1228.58,-910.84 1218.09,-909.35 1219.45,-916.22"/>
</g>
</g>
</svg>
