<?xml version="1.0" encoding="UTF-8" standalone="no"?>
<!DOCTYPE svg PUBLIC "-//W3C//DTD SVG 1.1//EN"
 "http://www.w3.org/Graphics/SVG/1.1/DTD/svg11.dtd">
<!-- Generated by graphviz version 7.0.4 (20221203.1631)
 -->
<!-- Title: UpdateButtonLabels Pages: 1 -->
<svg width="1160pt" height="1109pt"
 viewBox="0.00 0.00 1160.00 1108.50" xmlns="http://www.w3.org/2000/svg" xmlns:xlink="http://www.w3.org/1999/xlink">
<g id="graph0" class="graph" transform="scale(1 1) rotate(0) translate(4 1104.5)">
<title>UpdateButtonLabels</title>
<!-- Node1 -->
<g id="node1" class="node">
<title>Node1</title>
<g id="a_node1"><a xlink:title=" ">
<polygon fill="#999999" stroke="#666666" points="106,-66.5 0,-66.5 0,-47.5 106,-47.5 106,-66.5"/>
<text text-anchor="middle" x="53" y="-54.5" font-family="Helvetica,sans-Serif" font-size="10.00">UpdateButtonLabels</text>
</a>
</g>
</g>
<!-- Node2 -->
<g id="node2" class="node">
<title>Node2</title>
<g id="a_node2"><a xlink:href="TransmitterCode_2src_2main_8cpp.html#afe513398f72d5e48f691830a1ef6eb42" target="_top" xlink:title=" ">
<polygon fill="white" stroke="#666666" points="200,-217.5 142,-217.5 142,-198.5 200,-198.5 200,-217.5"/>
<text text-anchor="middle" x="171" y="-205.5" font-family="Helvetica,sans-Serif" font-size="10.00">SendText</text>
</a>
</g>
</g>
<!-- Node1&#45;&gt;Node2 -->
<g id="edge1" class="edge">
<title>Node1&#45;&gt;Node2</title>
<path fill="none" stroke="#63b8ff" d="M61.61,-66.91C80.7,-91.76 130.88,-157.07 155.69,-189.37"/>
<polygon fill="#63b8ff" stroke="#63b8ff" points="152.72,-191.25 161.59,-197.05 158.27,-186.99 152.72,-191.25"/>
</g>
<!-- Node39 -->
<g id="node47" class="node">
<title>Node39</title>
<g id="a_node47"><a xlink:href="TransmitterCode_2src_2main_8cpp.html#a1e20efc1e419b252b50d36f9924503fc" target="_top" xlink:title=" ">
<polygon fill="white" stroke="#666666" points="1015.5,-161.5 951.5,-161.5 951.5,-142.5 1015.5,-142.5 1015.5,-161.5"/>
<text text-anchor="middle" x="983.5" y="-149.5" font-family="Helvetica,sans-Serif" font-size="10.00">SendValue</text>
</a>
</g>
</g>
<!-- Node1&#45;&gt;Node39 -->
<g id="edge75" class="edge">
<title>Node1&#45;&gt;Node39</title>
<path fill="none" stroke="#63b8ff" d="M106.49,-49.98C151.51,-44.57 218.15,-38 276.5,-38 276.5,-38 276.5,-38 679,-38 789.09,-38 908.12,-104.54 958.16,-135.95"/>
<polygon fill="#63b8ff" stroke="#63b8ff" points="956.18,-138.84 966.49,-141.27 959.95,-132.94 956.18,-138.84"/>
</g>
<!-- Node3 -->
<g id="node3" class="node">
<title>Node3</title>
<g id="a_node3"><a xlink:href="TransmitterCode_2src_2main_8cpp.html#a43937dd3d9c795271fd9c3eb3c6b6410" target="_top" xlink:title=" ">
<polygon fill="white" stroke="#666666" points="1152,-85.5 1069,-85.5 1069,-66.5 1152,-66.5 1152,-85.5"/>
<text text-anchor="middle" x="1110.5" y="-73.5" font-family="Helvetica,sans-Serif" font-size="10.00">GetReturnCode</text>
</a>
</g>
</g>
<!-- Node2&#45;&gt;Node3 -->
<g id="edge2" class="edge">
<title>Node2&#45;&gt;Node3</title>
<path fill="none" stroke="#63b8ff" d="M180.36,-198.25C216.6,-157.12 365.4,0 523,0 523,0 523,0 836.5,0 927.06,0 1028.54,-39.3 1078.41,-61.37"/>
<polygon fill="#63b8ff" stroke="#63b8ff" points="1076.88,-64.52 1087.43,-65.44 1079.75,-58.14 1076.88,-64.52"/>
</g>
<!-- Node4 -->
<g id="node4" class="node">
<title>Node4</title>
<g id="a_node4"><a xlink:href="TransmitterCode_2src_2main_8cpp.html#aecac2f0c289f02ef3c92b85be82eacac" target="_top" xlink:title=" ">
<polygon fill="white" stroke="#666666" points="319,-331.5 236,-331.5 236,-312.5 319,-312.5 319,-331.5"/>
<text text-anchor="middle" x="277.5" y="-319.5" font-family="Helvetica,sans-Serif" font-size="10.00">SendCommand</text>
</a>
</g>
</g>
<!-- Node2&#45;&gt;Node4 -->
<g id="edge3" class="edge">
<title>Node2&#45;&gt;Node4</title>
<path fill="none" stroke="#63b8ff" d="M180.91,-217.72C198.42,-236.82 237.54,-279.5 259.93,-303.92"/>
<polygon fill="#63b8ff" stroke="#63b8ff" points="257.25,-306.18 266.59,-311.19 262.41,-301.45 257.25,-306.18"/>
</g>
<!-- Node4&#45;&gt;Node3 -->
<g id="edge4" class="edge">
<title>Node4&#45;&gt;Node3</title>
<path fill="none" stroke="#63b8ff" d="M279.2,-312.38C282.07,-280.26 295.78,-175.68 355,-122 412.36,-70.01 445.58,-76 523,-76 523,-76 523,-76 836.5,-76 913.49,-76 1002.7,-76 1057.62,-76"/>
<polygon fill="#63b8ff" stroke="#63b8ff" points="1057.28,-79.5 1067.28,-76 1057.28,-72.5 1057.28,-79.5"/>
</g>
<!-- Node5 -->
<g id="node5" class="node">
<title>Node5</title>
<g id="a_node5"><a xlink:href="TransmitterCode_2src_2main_8cpp.html#a5f109790a6fe0b972a502f3cac4ed1e7" target="_top" xlink:title=" ">
<polygon fill="white" stroke="#666666" points="416,-274.5 368,-274.5 368,-255.5 416,-255.5 416,-274.5"/>
<text text-anchor="middle" x="392" y="-262.5" font-family="Helvetica,sans-Serif" font-size="10.00">InStrng</text>
</a>
</g>
</g>
<!-- Node4&#45;&gt;Node5 -->
<g id="edge5" class="edge">
<title>Node4&#45;&gt;Node5</title>
<path fill="none" stroke="#63b8ff" d="M298.1,-312.07C315.6,-303.2 341.49,-290.09 361.49,-279.95"/>
<polygon fill="#63b8ff" stroke="#63b8ff" points="362.94,-283.14 370.28,-275.5 359.78,-276.9 362.94,-283.14"/>
</g>
<!-- Node6 -->
<g id="node6" class="node">
<title>Node6</title>
<g id="a_node6"><a xlink:href="RadioFunctions_8cpp.html#a760609a682300dfe6bfaac737fd4d5eb" target="_top" xlink:title=" ">
<polygon fill="white" stroke="#666666" points="429,-237.5 355,-237.5 355,-218.5 429,-218.5 429,-237.5"/>
<text text-anchor="middle" x="392" y="-225.5" font-family="Helvetica,sans-Serif" font-size="10.00">Procrastinate</text>
</a>
</g>
</g>
<!-- Node4&#45;&gt;Node6 -->
<g id="edge6" class="edge">
<title>Node4&#45;&gt;Node6</title>
<path fill="none" stroke="#63b8ff" d="M286.61,-312.12C299.74,-296.57 327.02,-266.1 355,-246 356.15,-245.17 357.34,-244.37 358.56,-243.58"/>
<polygon fill="#63b8ff" stroke="#63b8ff" points="360.05,-246.76 366.96,-238.74 356.55,-240.7 360.05,-246.76"/>
</g>
<!-- Node7 -->
<g id="node7" class="node">
<title>Node7</title>
<g id="a_node7"><a xlink:href="RadioFunctions_8cpp.html#a1ddd5e8d5bd649dd98ce3710fbff651b" target="_top" xlink:title=" ">
<polygon fill="white" stroke="#666666" points="554.5,-274.5 493.5,-274.5 493.5,-255.5 554.5,-255.5 554.5,-274.5"/>
<text text-anchor="middle" x="524" y="-262.5" font-family="Helvetica,sans-Serif" font-size="10.00">Compress</text>
</a>
</g>
</g>
<!-- Node6&#45;&gt;Node7 -->
<g id="edge7" class="edge">
<title>Node6&#45;&gt;Node7</title>
<path fill="none" stroke="#63b8ff" d="M427.84,-237.92C444.62,-242.69 464.85,-248.45 482.33,-253.42"/>
<polygon fill="#63b8ff" stroke="#63b8ff" points="481.33,-256.78 491.9,-256.15 483.24,-250.05 481.33,-256.78"/>
</g>
<!-- Node8 -->
<g id="node8" class="node">
<title>Node8</title>
<g id="a_node8"><a xlink:href="TransmitterCode_2src_2main_8cpp.html#a26ae4f6ca14f760bd5eb6e7588fe7c81" target="_top" xlink:title="GET NEW SERVO POSITIONS.">
<polygon fill="white" stroke="#666666" points="583,-539.5 465,-539.5 465,-520.5 583,-520.5 583,-539.5"/>
<text text-anchor="middle" x="524" y="-527.5" font-family="Helvetica,sans-Serif" font-size="10.00">GetNewChannelValues</text>
</a>
</g>
</g>
<!-- Node6&#45;&gt;Node8 -->
<g id="edge8" class="edge">
<title>Node6&#45;&gt;Node8</title>
<path fill="none" stroke="#63b8ff" d="M419.17,-237.92C422.82,-240.16 426.26,-242.83 429,-246 497.94,-325.66 516.65,-457.38 521.44,-508.65"/>
<polygon fill="#63b8ff" stroke="#63b8ff" points="517.95,-508.94 522.28,-518.62 524.93,-508.36 517.95,-508.94"/>
</g>
<!-- Node17 -->
<g id="node17" class="node">
<title>Node17</title>
<g id="a_node17"><a xlink:href="TransmitterCode_2src_2main_8cpp.html#ada95a00a341e4a80176eda743a94ab2e" target="_top" xlink:title=" ">
<polygon fill="white" stroke="#666666" points="559,-237.5 489,-237.5 489,-218.5 559,-218.5 559,-237.5"/>
<text text-anchor="middle" x="524" y="-225.5" font-family="Helvetica,sans-Serif" font-size="10.00">KickTheDog</text>
</a>
</g>
</g>
<!-- Node6&#45;&gt;Node17 -->
<g id="edge18" class="edge">
<title>Node6&#45;&gt;Node17</title>
<path fill="none" stroke="#63b8ff" d="M429.21,-228C444.21,-228 461.76,-228 477.6,-228"/>
<polygon fill="#63b8ff" stroke="#63b8ff" points="477.26,-231.5 487.26,-228 477.26,-224.5 477.26,-231.5"/>
</g>
<!-- Node18 -->
<g id="node18" class="node">
<title>Node18</title>
<g id="a_node18"><a xlink:href="RadioFunctions_8cpp.html#a049bfb836e7aa4a3a48a1a4bd225fafc" target="_top" xlink:title=" ">
<polygon fill="white" stroke="#666666" points="553.5,-781.5 494.5,-781.5 494.5,-762.5 553.5,-762.5 553.5,-781.5"/>
<text text-anchor="middle" x="524" y="-769.5" font-family="Helvetica,sans-Serif" font-size="10.00">SendData</text>
</a>
</g>
</g>
<!-- Node6&#45;&gt;Node18 -->
<g id="edge19" class="edge">
<title>Node6&#45;&gt;Node18</title>
<path fill="none" stroke="#63b8ff" d="M420.46,-237.93C423.76,-240.14 426.75,-242.8 429,-246 467.88,-301.28 452.5,-481.58 465,-548 479.28,-623.88 504.81,-712.08 516.65,-751.33"/>
<polygon fill="#63b8ff" stroke="#63b8ff" points="513.28,-752.29 519.54,-760.83 519.98,-750.25 513.28,-752.29"/>
</g>
<!-- Node110 -->
<g id="node37" class="node">
<title>Node110</title>
<g id="a_node37"><a xlink:href="TransmitterCode_2src_2main_8cpp.html#ad770ee51a34d8c5026e65136884c16bf" target="_top" xlink:title=" ">
<polygon fill="white" stroke="#666666" points="566,-200.5 482,-200.5 482,-181.5 566,-181.5 566,-200.5"/>
<text text-anchor="middle" x="524" y="-188.5" font-family="Helvetica,sans-Serif" font-size="10.00">ShowServoPos</text>
</a>
</g>
</g>
<!-- Node6&#45;&gt;Node110 -->
<g id="edge45" class="edge">
<title>Node6&#45;&gt;Node110</title>
<path fill="none" stroke="#63b8ff" d="M427.84,-218.08C442.99,-213.77 460.96,-208.66 477.17,-204.04"/>
<polygon fill="#63b8ff" stroke="#63b8ff" points="477.95,-207.46 486.61,-201.36 476.03,-200.73 477.95,-207.46"/>
</g>
<!-- Node9 -->
<g id="node9" class="node">
<title>Node9</title>
<g id="a_node9"><a xlink:href="TransmitterCode_2src_2main_8cpp.html#ac77bd940a0faad7b997c9ddf40a7acc6" target="_top" xlink:title=" ">
<polygon fill="white" stroke="#666666" points="705,-689.5 651,-689.5 651,-670.5 705,-670.5 705,-689.5"/>
<text text-anchor="middle" x="678" y="-677.5" font-family="Helvetica,sans-Serif" font-size="10.00">DoMixes</text>
</a>
</g>
</g>
<!-- Node8&#45;&gt;Node9 -->
<g id="edge9" class="edge">
<title>Node8&#45;&gt;Node9</title>
<path fill="none" stroke="#63b8ff" d="M529.36,-539.84C540.6,-564.1 572.94,-627.24 619,-661 625.13,-665.49 632.38,-668.96 639.63,-671.62"/>
<polygon fill="#63b8ff" stroke="#63b8ff" points="638.48,-674.93 649.07,-674.62 640.6,-668.26 638.48,-674.93"/>
</g>
<!-- Node11 -->
<g id="node11" class="node">
<title>Node11</title>
<g id="a_node11"><a xlink:href="TransmitterCode_2src_2main_8cpp.html#acbd7adcd2b0e2095a89b4a98042b526e" target="_top" xlink:title=" ">
<polygon fill="white" stroke="#666666" points="724,-502.5 632,-502.5 632,-483.5 724,-483.5 724,-502.5"/>
<text text-anchor="middle" x="678" y="-490.5" font-family="Helvetica,sans-Serif" font-size="10.00">DoReverseSense</text>
</a>
</g>
</g>
<!-- Node8&#45;&gt;Node11 -->
<g id="edge11" class="edge">
<title>Node8&#45;&gt;Node11</title>
<path fill="none" stroke="#63b8ff" d="M565.73,-520.08C583.96,-515.65 605.67,-510.36 625.06,-505.64"/>
<polygon fill="#63b8ff" stroke="#63b8ff" points="625.8,-509.07 634.68,-503.3 624.14,-502.27 625.8,-509.07"/>
</g>
<!-- Node12 -->
<g id="node12" class="node">
<title>Node12</title>
<g id="a_node12"><a xlink:href="TransmitterCode_2src_2main_8cpp.html#af9c038b48102eca9032f10fefd9d5736" target="_top" xlink:title=" ">
<polygon fill="white" stroke="#666666" points="717,-615.5 639,-615.5 639,-596.5 717,-596.5 717,-615.5"/>
<text text-anchor="middle" x="678" y="-603.5" font-family="Helvetica,sans-Serif" font-size="10.00">GetCurveDots</text>
</a>
</g>
</g>
<!-- Node8&#45;&gt;Node12 -->
<g id="edge12" class="edge">
<title>Node8&#45;&gt;Node12</title>
<path fill="none" stroke="#63b8ff" d="M544.87,-539.94C570.93,-552.96 616.88,-575.94 647.13,-591.07"/>
<polygon fill="#63b8ff" stroke="#63b8ff" points="645.26,-594.04 655.77,-595.39 648.39,-587.78 645.26,-594.04"/>
</g>
<!-- Node15 -->
<g id="node15" class="node">
<title>Node15</title>
<g id="a_node15"><a xlink:href="TransmitterCode_2src_2main_8cpp.html#a248db02e07497e7a4149db17b4e5c2f3" target="_top" xlink:title=" ">
<polygon fill="white" stroke="#666666" points="716.5,-652.5 639.5,-652.5 639.5,-633.5 716.5,-633.5 716.5,-652.5"/>
<text text-anchor="middle" x="678" y="-640.5" font-family="Helvetica,sans-Serif" font-size="10.00">GetStickInput</text>
</a>
</g>
</g>
<!-- Node8&#45;&gt;Node15 -->
<g id="edge15" class="edge">
<title>Node8&#45;&gt;Node15</title>
<path fill="none" stroke="#63b8ff" d="M532.16,-539.75C546.54,-558.66 580.85,-600.56 619,-624 621.97,-625.83 625.14,-627.5 628.41,-629.02"/>
<polygon fill="#63b8ff" stroke="#63b8ff" points="627.06,-632.25 637.64,-632.83 629.73,-625.78 627.06,-632.25"/>
</g>
<!-- Node16 -->
<g id="node16" class="node">
<title>Node16</title>
<g id="a_node16"><a xlink:href="TransmitterCode_2src_2main_8cpp.html#a07fabdf50e27daf4c4bd38d316a40e68" target="_top" xlink:title=" ">
<polygon fill="white" stroke="#666666" points="721,-539.5 635,-539.5 635,-520.5 721,-520.5 721,-539.5"/>
<text text-anchor="middle" x="678" y="-527.5" font-family="Helvetica,sans-Serif" font-size="10.00">GetTrimAmount</text>
</a>
</g>
</g>
<!-- Node8&#45;&gt;Node16 -->
<g id="edge17" class="edge">
<title>Node8&#45;&gt;Node16</title>
<path fill="none" stroke="#63b8ff" d="M583.33,-530C596.54,-530 610.51,-530 623.5,-530"/>
<polygon fill="#63b8ff" stroke="#63b8ff" points="623.12,-533.5 633.12,-530 623.12,-526.5 623.12,-533.5"/>
</g>
<!-- Node10 -->
<g id="node10" class="node">
<title>Node10</title>
<g id="a_node10"><a xlink:href="TransmitterCode_2src_2main_8cpp.html#a0d8d8a0d67cb9b04481f1692abe75368" target="_top" xlink:title=" ">
<polygon fill="white" stroke="#666666" points="875,-652.5 796,-652.5 796,-633.5 875,-633.5 875,-652.5"/>
<text text-anchor="middle" x="835.5" y="-640.5" font-family="Helvetica,sans-Serif" font-size="10.00">IntoHigherRes</text>
</a>
</g>
</g>
<!-- Node9&#45;&gt;Node10 -->
<g id="edge10" class="edge">
<title>Node9&#45;&gt;Node10</title>
<path fill="none" stroke="#63b8ff" d="M705.38,-673.72C727.06,-668.56 758.4,-661.11 784.77,-654.83"/>
<polygon fill="#63b8ff" stroke="#63b8ff" points="785.33,-658.3 794.25,-652.58 783.71,-651.49 785.33,-658.3"/>
</g>
<!-- Node13 -->
<g id="node13" class="node">
<title>Node13</title>
<g id="a_node13"><a xlink:href="TransmitterCode_2src_2main_8cpp.html#afeabb54d48ef7e55693014e057d2943d" target="_top" xlink:title=" ">
<polygon fill="white" stroke="#666666" points="874,-578.5 797,-578.5 797,-559.5 874,-559.5 874,-578.5"/>
<text text-anchor="middle" x="835.5" y="-566.5" font-family="Helvetica,sans-Serif" font-size="10.00">CalculateRate</text>
</a>
</g>
</g>
<!-- Node12&#45;&gt;Node13 -->
<g id="edge13" class="edge">
<title>Node12&#45;&gt;Node13</title>
<path fill="none" stroke="#63b8ff" d="M717.44,-596.85C737.96,-591.97 763.45,-585.91 785.4,-580.68"/>
<polygon fill="#63b8ff" stroke="#63b8ff" points="786.11,-584.11 795.03,-578.39 784.49,-577.3 786.11,-584.11"/>
</g>
<!-- Node14 -->
<g id="node14" class="node">
<title>Node14</title>
<g id="a_node14"><a xlink:href="TransmitterCode_2src_2main_8cpp.html#a8f53f86499d740b350f7b6d791c90497" target="_top" xlink:title=" ">
<polygon fill="white" stroke="#666666" points="871,-615.5 800,-615.5 800,-596.5 871,-596.5 871,-615.5"/>
<text text-anchor="middle" x="835.5" y="-603.5" font-family="Helvetica,sans-Serif" font-size="10.00">UseFullRate</text>
</a>
</g>
</g>
<!-- Node12&#45;&gt;Node14 -->
<g id="edge14" class="edge">
<title>Node12&#45;&gt;Node14</title>
<path fill="none" stroke="#63b8ff" d="M717.44,-606C738.88,-606 765.74,-606 788.32,-606"/>
<polygon fill="#63b8ff" stroke="#63b8ff" points="788.17,-609.5 798.17,-606 788.17,-602.5 788.17,-609.5"/>
</g>
<!-- Node15&#45;&gt;Node10 -->
<g id="edge16" class="edge">
<title>Node15&#45;&gt;Node10</title>
<path fill="none" stroke="#63b8ff" d="M716.64,-643C736.91,-643 762.18,-643 784.12,-643"/>
<polygon fill="#63b8ff" stroke="#63b8ff" points="784.07,-646.5 794.07,-643 784.07,-639.5 784.07,-646.5"/>
</g>
<!-- Node19 -->
<g id="node19" class="node">
<title>Node19</title>
<g id="a_node19"><a xlink:href="RadioFunctions_8cpp.html#a5fbd3c8613a4163425c94965704ce5f8" target="_top" xlink:title=" ">
<polygon fill="white" stroke="#666666" points="715,-800.5 641,-800.5 641,-781.5 715,-781.5 715,-800.5"/>
<text text-anchor="middle" x="678" y="-788.5" font-family="Helvetica,sans-Serif" font-size="10.00">FailedPacket</text>
</a>
</g>
</g>
<!-- Node18&#45;&gt;Node19 -->
<g id="edge20" class="edge">
<title>Node18&#45;&gt;Node19</title>
<path fill="none" stroke="#63b8ff" d="M553.95,-775.62C575.21,-778.28 604.59,-781.95 629.3,-785.04"/>
<polygon fill="#63b8ff" stroke="#63b8ff" points="628.78,-788.5 639.14,-786.27 629.65,-781.55 628.78,-788.5"/>
</g>
<!-- Node56 -->
<g id="node27" class="node">
<title>Node56</title>
<g id="a_node27"><a xlink:href="RadioFunctions_8cpp.html#a07c27b4e208198453c70876517926052" target="_top" xlink:title=" ">
<polygon fill="white" stroke="#666666" points="709,-763.5 647,-763.5 647,-744.5 709,-744.5 709,-763.5"/>
<text text-anchor="middle" x="678" y="-751.5" font-family="Helvetica,sans-Serif" font-size="10.00">FlushFifos</text>
</a>
</g>
</g>
<!-- Node18&#45;&gt;Node56 -->
<g id="edge32" class="edge">
<title>Node18&#45;&gt;Node56</title>
<path fill="none" stroke="#63b8ff" d="M553.95,-768.57C576.95,-765.85 609.44,-762 635.26,-758.94"/>
<polygon fill="#63b8ff" stroke="#63b8ff" points="635.58,-762.43 645.09,-757.78 634.75,-755.48 635.58,-762.43"/>
</g>
<!-- Node57 -->
<g id="node28" class="node">
<title>Node57</title>
<g id="a_node28"><a xlink:href="TransmitterCode_2src_2main_8cpp.html#ac4ffb9b555ce8d38f615610dc89b5499" target="_top" xlink:title=" ">
<polygon fill="white" stroke="#666666" points="722.5,-987.5 633.5,-987.5 633.5,-968.5 722.5,-968.5 722.5,-987.5"/>
<text text-anchor="middle" x="678" y="-975.5" font-family="Helvetica,sans-Serif" font-size="10.00">LoadPacketData</text>
</a>
</g>
</g>
<!-- Node18&#45;&gt;Node57 -->
<g id="edge33" class="edge">
<title>Node18&#45;&gt;Node57</title>
<path fill="none" stroke="#63b8ff" d="M532.33,-781.94C556.16,-814.23 631.68,-916.58 663.09,-959.15"/>
<polygon fill="#63b8ff" stroke="#63b8ff" points="660.09,-960.98 668.84,-966.95 665.72,-956.82 660.09,-960.98"/>
</g>
<!-- Node60 -->
<g id="node31" class="node">
<title>Node60</title>
<g id="a_node31"><a xlink:href="ReceiverCode_2src_2main_8cpp.html#a6a495c5560f12cc3fd3df9454927d681" target="_top" xlink:title=" ">
<polygon fill="white" stroke="#666666" points="715,-726.5 641,-726.5 641,-707.5 715,-707.5 715,-726.5"/>
<text text-anchor="middle" x="678" y="-714.5" font-family="Helvetica,sans-Serif" font-size="10.00">MapToSBUS</text>
</a>
</g>
</g>
<!-- Node18&#45;&gt;Node60 -->
<g id="edge38" class="edge">
<title>Node18&#45;&gt;Node60</title>
<path fill="none" stroke="#63b8ff" d="M548.77,-762.08C567.67,-754.33 594.84,-743.49 619,-735 623.42,-733.45 628.05,-731.89 632.69,-730.38"/>
<polygon fill="#63b8ff" stroke="#63b8ff" points="633.52,-733.79 641.99,-727.41 631.4,-727.12 633.52,-733.79"/>
</g>
<!-- Node61 -->
<g id="node32" class="node">
<title>Node61</title>
<g id="a_node32"><a xlink:href="RadioFunctions_8cpp.html#a1c11bb6771548de7d96723045b922620" target="_top" xlink:title=" ">
<polygon fill="white" stroke="#666666" points="726,-876.5 630,-876.5 630,-857.5 726,-857.5 726,-876.5"/>
<text text-anchor="middle" x="678" y="-864.5" font-family="Helvetica,sans-Serif" font-size="10.00">SuccessfulPacket</text>
</a>
</g>
</g>
<!-- Node18&#45;&gt;Node61 -->
<g id="edge39" class="edge">
<title>Node18&#45;&gt;Node61</title>
<path fill="none" stroke="#63b8ff" d="M540.98,-781.99C567.39,-798.49 620.35,-831.59 651.83,-851.27"/>
<polygon fill="#63b8ff" stroke="#63b8ff" points="649.62,-854.01 659.95,-856.34 653.33,-848.08 649.62,-854.01"/>
</g>
<!-- Node20 -->
<g id="node20" class="node">
<title>Node20</title>
<g id="a_node20"><a xlink:href="TransmitterCode_2src_2main_8cpp.html#afd409fe008843b50c3e2ff697558d4d5" target="_top" xlink:title=" ">
<polygon fill="#fff0f0" stroke="red" points="1029.5,-613.5 937.5,-613.5 937.5,-594.5 1029.5,-594.5 1029.5,-613.5"/>
<text text-anchor="middle" x="983.5" y="-601.5" font-family="Helvetica,sans-Serif" font-size="10.00">LogThisLongGap</text>
</a>
</g>
</g>
<!-- Node19&#45;&gt;Node20 -->
<g id="edge21" class="edge">
<title>Node19&#45;&gt;Node20</title>
<path fill="none" stroke="#63b8ff" d="M715.39,-781.89C722.82,-779.27 730.38,-776 737,-772 756.09,-760.45 753.82,-748.41 773,-737 823.01,-707.24 849.02,-729.43 898,-698 914.3,-687.54 948.31,-646.79 967.85,-622.51"/>
<polygon fill="#63b8ff" stroke="#63b8ff" points="970.34,-625.01 973.85,-615.01 964.87,-620.64 970.34,-625.01"/>
</g>
<!-- Node31 -->
<g id="node22" class="node">
<title>Node31</title>
<g id="a_node22"><a xlink:href="RadioFunctions_8cpp.html#afc091b5942e21a03f6dc8635d5e519ba" target="_top" xlink:title=" ">
<polygon fill="white" stroke="#666666" points="896.5,-802.5 774.5,-802.5 774.5,-783.5 896.5,-783.5 896.5,-802.5"/>
<text text-anchor="middle" x="835.5" y="-790.5" font-family="Helvetica,sans-Serif" font-size="10.00">RecordsPacketSuccess</text>
</a>
</g>
</g>
<!-- Node19&#45;&gt;Node31 -->
<g id="edge23" class="edge">
<title>Node19&#45;&gt;Node31</title>
<path fill="none" stroke="#63b8ff" d="M715.46,-791.47C729.68,-791.65 746.5,-791.87 762.95,-792.08"/>
<polygon fill="#63b8ff" stroke="#63b8ff" points="762.68,-795.58 772.72,-792.21 762.77,-788.58 762.68,-795.58"/>
</g>
<!-- Node32 -->
<g id="node23" class="node">
<title>Node32</title>
<g id="a_node23"><a xlink:href="TransmitterCode_2src_2main_8cpp.html#a7d34cec6e8edc20c8b50424e15dcc7c7" target="_top" xlink:title=" ">
<polygon fill="#fff0f0" stroke="red" points="867,-1100.5 804,-1100.5 804,-1081.5 867,-1081.5 867,-1100.5"/>
<text text-anchor="middle" x="835.5" y="-1088.5" font-family="Helvetica,sans-Serif" font-size="10.00">RedLedOn</text>
</a>
</g>
</g>
<!-- Node19&#45;&gt;Node32 -->
<g id="edge24" class="edge">
<title>Node19&#45;&gt;Node32</title>
<path fill="none" stroke="#63b8ff" d="M693.09,-800.83C706.57,-811.03 726.37,-828.23 737,-848 776.65,-921.78 732.59,-959.63 773,-1033 782.06,-1049.45 797.42,-1063.94 810.53,-1074.33"/>
<polygon fill="#63b8ff" stroke="#63b8ff" points="808.25,-1076.99 818.34,-1080.22 812.47,-1071.41 808.25,-1076.99"/>
</g>
<!-- Node51 -->
<g id="node25" class="node">
<title>Node51</title>
<g id="a_node25"><a xlink:href="TransmitterCode_2src_2main_8cpp.html#a0a3d89dfcfab70c6cbc50401fff1afeb" target="_top" xlink:title=" ">
<polygon fill="white" stroke="#666666" points="890,-765.5 781,-765.5 781,-746.5 890,-746.5 890,-765.5"/>
<text text-anchor="middle" x="835.5" y="-753.5" font-family="Helvetica,sans-Serif" font-size="10.00">ReEnableScanButton</text>
</a>
</g>
</g>
<!-- Node19&#45;&gt;Node51 -->
<g id="edge28" class="edge">
<title>Node19&#45;&gt;Node51</title>
<path fill="none" stroke="#63b8ff" d="M715.46,-782.79C734.4,-778.53 757.96,-773.23 779.11,-768.47"/>
<polygon fill="#63b8ff" stroke="#63b8ff" points="779.77,-771.91 788.76,-766.3 778.23,-765.08 779.77,-771.91"/>
</g>
<!-- Node52 -->
<g id="node26" class="node">
<title>Node52</title>
<g id="a_node26"><a xlink:href="RadioFunctions_8cpp.html#ad0236abcfc887ad708d9504c4ab2a7c3" target="_top" xlink:title=" ">
<polygon fill="#fff0f0" stroke="red" points="879.5,-689.5 791.5,-689.5 791.5,-670.5 879.5,-670.5 879.5,-689.5"/>
<text text-anchor="middle" x="835.5" y="-677.5" font-family="Helvetica,sans-Serif" font-size="10.00">TryToReconnect</text>
</a>
</g>
</g>
<!-- Node19&#45;&gt;Node52 -->
<g id="edge31" class="edge">
<title>Node19&#45;&gt;Node52</title>
<path fill="none" stroke="#63b8ff" d="M715.26,-783.83C723.03,-781.07 730.76,-777.26 737,-772 763.15,-749.96 747.47,-726.75 773,-704 777.01,-700.42 781.62,-697.35 786.47,-694.72"/>
<polygon fill="#63b8ff" stroke="#63b8ff" points="787.73,-697.99 795.28,-690.56 784.74,-691.66 787.73,-697.99"/>
</g>
<!-- Node26 -->
<g id="node21" class="node">
<title>Node26</title>
<g id="a_node21"><a xlink:href="TransmitterCode_2src_2main_8cpp.html#a590a9174319918d7e3d7baca323fcf26" target="_top" xlink:title=" ">
<polygon fill="white" stroke="#666666" points="1125,-498.5 1096,-498.5 1096,-479.5 1125,-479.5 1125,-498.5"/>
<text text-anchor="middle" x="1110.5" y="-486.5" font-family="Helvetica,sans-Serif" font-size="10.00">Str</text>
</a>
</g>
</g>
<!-- Node20&#45;&gt;Node26 -->
<g id="edge22" class="edge">
<title>Node20&#45;&gt;Node26</title>
<path fill="none" stroke="#63b8ff" d="M995.16,-594.2C1016.37,-574.68 1064.14,-530.73 1090.73,-506.27"/>
<polygon fill="#63b8ff" stroke="#63b8ff" points="1092.77,-509.15 1097.76,-499.8 1088.03,-504 1092.77,-509.15"/>
</g>
<!-- Node32&#45;&gt;Node2 -->
<g id="edge26" class="edge">
<title>Node32&#45;&gt;Node2</title>
<path fill="none" stroke="#63b8ff" d="M803.76,-1089.35C748.15,-1086.51 627.15,-1081 525,-1081 391,-1081 391,-1081 391,-1081 209.53,-1081 177.08,-362.37 172.62,-229.12"/>
<polygon fill="#63b8ff" stroke="#63b8ff" points="176.12,-229.2 172.31,-219.32 169.13,-229.42 176.12,-229.2"/>
</g>
<!-- Node32&#45;&gt;Node4 -->
<g id="edge25" class="edge">
<title>Node32&#45;&gt;Node4</title>
<path fill="none" stroke="#63b8ff" d="M803.52,-1082.81C705.69,-1056.24 406.75,-969.45 355,-888 295.7,-794.67 281.66,-434.36 279.03,-343.1"/>
<polygon fill="#63b8ff" stroke="#63b8ff" points="282.53,-343.07 278.76,-333.17 275.53,-343.26 282.53,-343.07"/>
</g>
<!-- Node36 -->
<g id="node24" class="node">
<title>Node36</title>
<g id="a_node24"><a xlink:href="ReceiverCode_2src_2main_8cpp.html#a2eabdb233653fa02f0b899e26b5e8ce7" target="_top" xlink:title=" ">
<polygon fill="white" stroke="#666666" points="1033,-1081.5 934,-1081.5 934,-1062.5 1033,-1062.5 1033,-1081.5"/>
<text text-anchor="middle" x="983.5" y="-1069.5" font-family="Helvetica,sans-Serif" font-size="10.00">SetUKFrequencies</text>
</a>
</g>
</g>
<!-- Node32&#45;&gt;Node36 -->
<g id="edge27" class="edge">
<title>Node32&#45;&gt;Node36</title>
<path fill="none" stroke="#63b8ff" d="M867.46,-1086.97C883.48,-1084.89 903.6,-1082.27 922.51,-1079.81"/>
<polygon fill="#63b8ff" stroke="#63b8ff" points="922.8,-1083.3 932.27,-1078.54 921.9,-1076.36 922.8,-1083.3"/>
</g>
<!-- Node51&#45;&gt;Node4 -->
<g id="edge29" class="edge">
<title>Node51&#45;&gt;Node4</title>
<path fill="none" stroke="#63b8ff" d="M790.72,-765.93C784.56,-768.14 778.48,-770.81 773,-774 753.72,-785.24 757.68,-800.61 737,-809 624.72,-854.59 560.94,-864.03 465,-790 314.44,-673.83 285.1,-417.41 279.67,-342.77"/>
<polygon fill="#63b8ff" stroke="#63b8ff" points="283.19,-342.96 279.05,-333.21 276.21,-343.42 283.19,-342.96"/>
</g>
<!-- Node51&#45;&gt;Node26 -->
<g id="edge30" class="edge">
<title>Node51&#45;&gt;Node26</title>
<path fill="none" stroke="#63b8ff" d="M867.4,-746.09C877.47,-742.3 888.49,-737.54 898,-732 964.86,-693.01 982.87,-680.97 1033,-622 1063.49,-586.13 1088.35,-536.39 1100.81,-509.03"/>
<polygon fill="#63b8ff" stroke="#63b8ff" points="1103.89,-510.73 1104.76,-500.17 1097.5,-507.88 1103.89,-510.73"/>
</g>
<!-- Node57&#45;&gt;Node4 -->
<g id="edge35" class="edge">
<title>Node57&#45;&gt;Node4</title>
<path fill="none" stroke="#63b8ff" d="M633.16,-973.18C562.4,-962.9 424.02,-931.96 355,-843 292.9,-762.96 280.99,-431.03 278.91,-343.33"/>
<polygon fill="#63b8ff" stroke="#63b8ff" points="282.41,-343.26 278.69,-333.34 275.41,-343.41 282.41,-343.26"/>
</g>
<!-- Node57&#45;&gt;Node36 -->
<g id="edge37" class="edge">
<title>Node57&#45;&gt;Node36</title>
<path fill="none" stroke="#63b8ff" d="M692.57,-987.99C710.2,-1000.48 742.35,-1021.58 773,-1033 821.59,-1051.11 879.76,-1061.08 922.47,-1066.39"/>
<polygon fill="#63b8ff" stroke="#63b8ff" points="921.96,-1069.86 932.3,-1067.56 922.79,-1062.91 921.96,-1069.86"/>
</g>
<!-- Node58 -->
<g id="node29" class="node">
<title>Node58</title>
<g id="a_node29"><a xlink:href="TransmitterCode_2src_2main_8cpp.html#a5aa4888b924a4f1d95e9cedc3004f2b6" target="_top" xlink:title=" ">
<polygon fill="white" stroke="#666666" points="877,-1024.5 794,-1024.5 794,-1005.5 877,-1005.5 877,-1024.5"/>
<text text-anchor="middle" x="835.5" y="-1012.5" font-family="Helvetica,sans-Serif" font-size="10.00">MakeTwobytes</text>
</a>
</g>
</g>
<!-- Node57&#45;&gt;Node58 -->
<g id="edge34" class="edge">
<title>Node57&#45;&gt;Node58</title>
<path fill="none" stroke="#63b8ff" d="M720.67,-987.92C739.64,-992.43 762.28,-997.82 782.36,-1002.59"/>
<polygon fill="#63b8ff" stroke="#63b8ff" points="781.51,-1005.99 792.05,-1004.9 783.13,-999.18 781.51,-1005.99"/>
</g>
<!-- Node59 -->
<g id="node30" class="node">
<title>Node59</title>
<g id="a_node30"><a xlink:href="ReceiverCode_2src_2main_8cpp.html#a31a35307bbac88ceda244272f25d399a" target="_top" xlink:title=" ">
<polygon fill="white" stroke="#666666" points="887.5,-987.5 783.5,-987.5 783.5,-968.5 887.5,-968.5 887.5,-987.5"/>
<text text-anchor="middle" x="835.5" y="-975.5" font-family="Helvetica,sans-Serif" font-size="10.00">SetTestFrequencies</text>
</a>
</g>
</g>
<!-- Node57&#45;&gt;Node59 -->
<g id="edge36" class="edge">
<title>Node57&#45;&gt;Node59</title>
<path fill="none" stroke="#63b8ff" d="M722.73,-978C737.98,-978 755.41,-978 771.9,-978"/>
<polygon fill="#63b8ff" stroke="#63b8ff" points="771.61,-981.5 781.61,-978 771.61,-974.5 771.61,-981.5"/>
</g>
<!-- Node61&#45;&gt;Node31 -->
<g id="edge43" class="edge">
<title>Node61&#45;&gt;Node31</title>
<path fill="none" stroke="#63b8ff" d="M708.26,-857.1C717.76,-853.32 728.13,-848.55 737,-843 755.14,-831.64 754.27,-821.37 773,-811 775.51,-809.61 778.14,-808.32 780.84,-807.11"/>
<polygon fill="#63b8ff" stroke="#63b8ff" points="782.06,-810.4 790.09,-803.48 779.5,-803.88 782.06,-810.4"/>
</g>
<!-- Node62 -->
<g id="node33" class="node">
<title>Node62</title>
<g id="a_node33"><a xlink:href="TransmitterCode_2src_2main_8cpp.html#a953f1d5046e183549ed95b08f6d675e3" target="_top" xlink:title=" ">
<polygon fill="#fff0f0" stroke="red" points="884.5,-876.5 786.5,-876.5 786.5,-857.5 884.5,-857.5 884.5,-876.5"/>
<text text-anchor="middle" x="835.5" y="-864.5" font-family="Helvetica,sans-Serif" font-size="10.00">CheckGapsLength</text>
</a>
</g>
</g>
<!-- Node61&#45;&gt;Node62 -->
<g id="edge40" class="edge">
<title>Node61&#45;&gt;Node62</title>
<path fill="none" stroke="#63b8ff" d="M726.08,-867C741.4,-867 758.61,-867 774.73,-867"/>
<polygon fill="#63b8ff" stroke="#63b8ff" points="774.72,-870.5 784.72,-867 774.72,-863.5 774.72,-870.5"/>
</g>
<!-- Node42 -->
<g id="node34" class="node">
<title>Node42</title>
<g id="a_node34"><a xlink:href="TransmitterCode_2src_2main_8cpp.html#a62e53eb9359c32b666e3386d62c57037" target="_top" xlink:title=" ">
<polygon fill="#fff0f0" stroke="red" points="871.5,-839.5 799.5,-839.5 799.5,-820.5 871.5,-820.5 871.5,-839.5"/>
<text text-anchor="middle" x="835.5" y="-827.5" font-family="Helvetica,sans-Serif" font-size="10.00">GreenLedOn</text>
</a>
</g>
</g>
<!-- Node61&#45;&gt;Node42 -->
<g id="edge41" class="edge">
<title>Node61&#45;&gt;Node42</title>
<path fill="none" stroke="#63b8ff" d="M720.67,-857.08C741.41,-852.15 766.56,-846.17 787.93,-841.08"/>
<polygon fill="#63b8ff" stroke="#63b8ff" points="788.65,-844.51 797.57,-838.79 787.03,-837.7 788.65,-844.51"/>
</g>
<!-- Node64 -->
<g id="node35" class="node">
<title>Node64</title>
<g id="a_node35"><a xlink:href="TransmitterCode_2src_2main_8cpp.html#a694f4f5a0147f4dc29b0bc1a8951547d" target="_top" xlink:title=" ">
<polygon fill="#fff0f0" stroke="red" points="882.5,-950.5 788.5,-950.5 788.5,-931.5 882.5,-931.5 882.5,-950.5"/>
<text text-anchor="middle" x="835.5" y="-938.5" font-family="Helvetica,sans-Serif" font-size="10.00">ParseAckPayload</text>
</a>
</g>
</g>
<!-- Node61&#45;&gt;Node64 -->
<g id="edge42" class="edge">
<title>Node61&#45;&gt;Node64</title>
<path fill="none" stroke="#63b8ff" d="M693.42,-876.86C711.41,-888.81 743.41,-908.98 773,-922 777.37,-923.92 782,-925.74 786.67,-927.42"/>
<polygon fill="#63b8ff" stroke="#63b8ff" points="785.54,-930.73 796.14,-930.62 787.79,-924.1 785.54,-930.73"/>
</g>
<!-- Node50 -->
<g id="node36" class="node">
<title>Node50</title>
<g id="a_node36"><a xlink:href="TransmitterCode_2src_2main_8cpp.html#a793b7bcd77531c95fe72ed4356d421c8" target="_top" xlink:title=" ">
<polygon fill="white" stroke="#666666" points="890.5,-913.5 780.5,-913.5 780.5,-894.5 890.5,-894.5 890.5,-913.5"/>
<text text-anchor="middle" x="835.5" y="-901.5" font-family="Helvetica,sans-Serif" font-size="10.00">StartInactvityTimeout</text>
</a>
</g>
</g>
<!-- Node61&#45;&gt;Node50 -->
<g id="edge44" class="edge">
<title>Node61&#45;&gt;Node50</title>
<path fill="none" stroke="#63b8ff" d="M720.67,-876.92C739.41,-881.37 761.74,-886.69 781.64,-891.42"/>
<polygon fill="#63b8ff" stroke="#63b8ff" points="780.7,-894.8 791.24,-893.71 782.32,-887.99 780.7,-894.8"/>
</g>
<!-- Node111 -->
<g id="node38" class="node">
<title>Node111</title>
<g id="a_node38"><a xlink:href="TransmitterCode_2src_2main_8cpp.html#acf49567c45af927603ae83a7f46e6534" target="_top" xlink:title=" ">
<polygon fill="white" stroke="#666666" points="715,-312.5 641,-312.5 641,-293.5 715,-293.5 715,-312.5"/>
<text text-anchor="middle" x="678" y="-300.5" font-family="Helvetica,sans-Serif" font-size="10.00">DisplayCurve</text>
</a>
</g>
</g>
<!-- Node110&#45;&gt;Node111 -->
<g id="edge46" class="edge">
<title>Node110&#45;&gt;Node111</title>
<path fill="none" stroke="#63b8ff" d="M566.5,-199.25C572.46,-201.7 578.2,-204.88 583,-209 610.75,-232.83 591.63,-258.75 619,-283 622.36,-285.97 626.18,-288.51 630.22,-290.67"/>
<polygon fill="#63b8ff" stroke="#63b8ff" points="628.65,-293.81 639.21,-294.7 631.51,-287.42 628.65,-293.81"/>
</g>
<!-- Node117 -->
<g id="node44" class="node">
<title>Node117</title>
<g id="a_node44"><a xlink:href="TransmitterCode_2src_2main_8cpp.html#acbef1d41e1bd646b60a6e8afd9c66880" target="_top" xlink:title=" ">
<polygon fill="white" stroke="#666666" points="864.5,-535.5 806.5,-535.5 806.5,-516.5 864.5,-516.5 864.5,-535.5"/>
<text text-anchor="middle" x="835.5" y="-523.5" font-family="Helvetica,sans-Serif" font-size="10.00">DrawLine</text>
</a>
</g>
</g>
<!-- Node110&#45;&gt;Node117 -->
<g id="edge71" class="edge">
<title>Node110&#45;&gt;Node117</title>
<path fill="none" stroke="#63b8ff" d="M566.44,-198.42C572.56,-200.97 578.35,-204.4 583,-209 620.16,-245.79 593.81,-275.18 619,-321 631.88,-344.44 750.86,-491 773,-506 779.7,-510.54 787.5,-514.1 795.24,-516.89"/>
<polygon fill="#63b8ff" stroke="#63b8ff" points="794.02,-520.17 804.61,-519.86 796.14,-513.5 794.02,-520.17"/>
</g>
<!-- Node110&#45;&gt;Node39 -->
<g id="edge74" class="edge">
<title>Node110&#45;&gt;Node39</title>
<path fill="none" stroke="#63b8ff" d="M566.41,-187.47C652.94,-180.09 852.16,-163.11 939.8,-155.64"/>
<polygon fill="#63b8ff" stroke="#63b8ff" points="939.99,-159.14 949.65,-154.8 939.39,-152.16 939.99,-159.14"/>
</g>
<!-- Node121 -->
<g id="node49" class="node">
<title>Node121</title>
<g id="a_node49"><a xlink:href="TransmitterCode_2src_2main_8cpp.html#af1030157034999448f5ca611d6209385" target="_top" xlink:title=" ">
<polygon fill="white" stroke="#666666" points="737,-237.5 619,-237.5 619,-218.5 737,-218.5 737,-237.5"/>
<text text-anchor="middle" x="678" y="-225.5" font-family="Helvetica,sans-Serif" font-size="10.00">GetStickInputInputOnly</text>
</a>
</g>
</g>
<!-- Node110&#45;&gt;Node121 -->
<g id="edge72" class="edge">
<title>Node110&#45;&gt;Node121</title>
<path fill="none" stroke="#63b8ff" d="M565.73,-200.92C583.96,-205.35 605.67,-210.64 625.06,-215.36"/>
<polygon fill="#63b8ff" stroke="#63b8ff" points="624.14,-218.73 634.68,-217.7 625.8,-211.93 624.14,-218.73"/>
</g>
<!-- Node122 -->
<g id="node50" class="node">
<title>Node122</title>
<g id="a_node50"><a xlink:href="TransmitterCode_2src_2main_8cpp.html#a5cdbe11d62e0de7610ba323e60b97d33" target="_top" xlink:title=" ">
<polygon fill="white" stroke="#666666" points="716.5,-274.5 639.5,-274.5 639.5,-255.5 716.5,-255.5 716.5,-274.5"/>
<text text-anchor="middle" x="678" y="-262.5" font-family="Helvetica,sans-Serif" font-size="10.00">IntoLowerRes</text>
</a>
</g>
</g>
<!-- Node110&#45;&gt;Node122 -->
<g id="edge73" class="edge">
<title>Node110&#45;&gt;Node122</title>
<path fill="none" stroke="#63b8ff" d="M566.06,-200.91C571.96,-203.13 577.79,-205.8 583,-209 602.56,-220.99 599.53,-233.85 619,-246 622.1,-247.94 625.42,-249.69 628.84,-251.29"/>
<polygon fill="#63b8ff" stroke="#63b8ff" points="627.32,-254.45 637.9,-255.02 629.98,-247.97 627.32,-254.45"/>
</g>
<!-- Node111&#45;&gt;Node4 -->
<g id="edge63" class="edge">
<title>Node111&#45;&gt;Node4</title>
<path fill="none" stroke="#63b8ff" d="M640.64,-304.73C569.69,-308.12 412.55,-315.61 330.57,-319.52"/>
<polygon fill="#63b8ff" stroke="#63b8ff" points="330.61,-316.01 320.79,-319.98 330.94,-323 330.61,-316.01"/>
</g>
<!-- Node112 -->
<g id="node39" class="node">
<title>Node112</title>
<g id="a_node39"><a xlink:href="TransmitterCode_2src_2main_8cpp.html#a1870ad872e2424cbf8222747d3a43617" target="_top" xlink:title=" ">
<polygon fill="white" stroke="#666666" points="887,-386.5 784,-386.5 784,-367.5 887,-367.5 887,-386.5"/>
<text text-anchor="middle" x="835.5" y="-374.5" font-family="Helvetica,sans-Serif" font-size="10.00">CheckInvisiblePoint</text>
</a>
</g>
</g>
<!-- Node111&#45;&gt;Node112 -->
<g id="edge47" class="edge">
<title>Node111&#45;&gt;Node112</title>
<path fill="none" stroke="#63b8ff" d="M708.21,-312.98C717.71,-316.77 728.09,-321.52 737,-327 754.98,-338.07 754.52,-347.78 773,-358 776.23,-359.79 779.64,-361.43 783.15,-362.93"/>
<polygon fill="#63b8ff" stroke="#63b8ff" points="781.82,-366.17 792.41,-366.49 784.33,-359.63 781.82,-366.17"/>
</g>
<!-- Node113 -->
<g id="node40" class="node">
<title>Node113</title>
<g id="a_node40"><a xlink:href="TransmitterCode_2src_2main_8cpp.html#a5aeea47b9d855ae9911bae1115d02de7" target="_top" xlink:title=" ">
<polygon fill="white" stroke="#666666" points="863.5,-497.5 807.5,-497.5 807.5,-478.5 863.5,-478.5 863.5,-497.5"/>
<text text-anchor="middle" x="835.5" y="-485.5" font-family="Helvetica,sans-Serif" font-size="10.00">ClearBox</text>
</a>
</g>
</g>
<!-- Node111&#45;&gt;Node113 -->
<g id="edge48" class="edge">
<title>Node111&#45;&gt;Node113</title>
<path fill="none" stroke="#63b8ff" d="M684.85,-312.89C695.41,-330.78 718.3,-369.77 737,-403 753.38,-432.12 747.14,-447.85 773,-469 779.74,-474.51 788.07,-478.43 796.39,-481.21"/>
<polygon fill="#63b8ff" stroke="#63b8ff" points="795.18,-484.5 805.75,-483.84 797.08,-477.76 795.18,-484.5"/>
</g>
<!-- Node114 -->
<g id="node41" class="node">
<title>Node114</title>
<g id="a_node41"><a xlink:href="TransmitterCode_2src_2main_8cpp.html#a68b36025c7478c0710565b4fb059d9bc" target="_top" xlink:title=" ">
<polygon fill="white" stroke="#666666" points="877.5,-349.5 793.5,-349.5 793.5,-330.5 877.5,-330.5 877.5,-349.5"/>
<text text-anchor="middle" x="835.5" y="-337.5" font-family="Helvetica,sans-Serif" font-size="10.00">DegsToPercent</text>
</a>
</g>
</g>
<!-- Node111&#45;&gt;Node114 -->
<g id="edge51" class="edge">
<title>Node111&#45;&gt;Node114</title>
<path fill="none" stroke="#63b8ff" d="M715.46,-311.67C735.26,-316.39 760.09,-322.29 781.94,-327.49"/>
<polygon fill="#63b8ff" stroke="#63b8ff" points="781.05,-330.88 791.58,-329.79 782.67,-324.07 781.05,-330.88"/>
</g>
<!-- Node115 -->
<g id="node42" class="node">
<title>Node115</title>
<g id="a_node42"><a xlink:href="TransmitterCode_2src_2main_8cpp.html#a060d8c4636339f7e6760cf835307530e" target="_top" xlink:title=" ">
<polygon fill="white" stroke="#666666" points="863.5,-460.5 807.5,-460.5 807.5,-441.5 863.5,-441.5 863.5,-460.5"/>
<text text-anchor="middle" x="835.5" y="-448.5" font-family="Helvetica,sans-Serif" font-size="10.00">DrawBox</text>
</a>
</g>
</g>
<!-- Node111&#45;&gt;Node115 -->
<g id="edge52" class="edge">
<title>Node111&#45;&gt;Node115</title>
<path fill="none" stroke="#63b8ff" d="M689.73,-312.81C702.09,-324.47 722.56,-344.88 737,-365 756.71,-392.46 746.9,-410.52 773,-432 779.72,-437.53 788.04,-441.45 796.37,-444.24"/>
<polygon fill="#63b8ff" stroke="#63b8ff" points="795.16,-447.53 805.73,-446.87 797.05,-440.79 795.16,-447.53"/>
</g>
<!-- Node116 -->
<g id="node43" class="node">
<title>Node116</title>
<g id="a_node43"><a xlink:href="TransmitterCode_2src_2main_8cpp.html#ad0feb21fbea69455d1d206f142b563ac" target="_top" xlink:title=" ">
<polygon fill="white" stroke="#666666" points="862.5,-423.5 808.5,-423.5 808.5,-404.5 862.5,-404.5 862.5,-423.5"/>
<text text-anchor="middle" x="835.5" y="-411.5" font-family="Helvetica,sans-Serif" font-size="10.00">DrawDot</text>
</a>
</g>
</g>
<!-- Node111&#45;&gt;Node116 -->
<g id="edge55" class="edge">
<title>Node111&#45;&gt;Node116</title>
<path fill="none" stroke="#63b8ff" d="M714.1,-312.99C722.27,-316.48 730.47,-321.06 737,-327 762.3,-350.01 746.66,-373.19 773,-395 779.88,-400.7 788.46,-404.69 797.01,-407.49"/>
<polygon fill="#63b8ff" stroke="#63b8ff" points="796.06,-410.86 806.63,-410.12 797.91,-404.1 796.06,-410.86"/>
</g>
<!-- Node111&#45;&gt;Node117 -->
<g id="edge58" class="edge">
<title>Node111&#45;&gt;Node117</title>
<path fill="none" stroke="#63b8ff" d="M685.58,-312.88C697.09,-330.45 721.16,-368.54 737,-403 757.26,-447.06 738.34,-472.09 773,-506 779.19,-512.06 787.24,-516.28 795.47,-519.23"/>
<polygon fill="#63b8ff" stroke="#63b8ff" points="794.2,-522.5 804.78,-521.98 796.18,-515.79 794.2,-522.5"/>
</g>
<!-- Node118 -->
<g id="node45" class="node">
<title>Node118</title>
<g id="a_node45"><a xlink:href="TransmitterCode_2src_2main_8cpp.html#a4abc073f79b7ab2a2b4429990420cbf0" target="_top" xlink:title="Uses servo degrees to position dots.">
<polygon fill="white" stroke="#666666" points="879.5,-312.5 791.5,-312.5 791.5,-293.5 879.5,-293.5 879.5,-312.5"/>
<text text-anchor="middle" x="835.5" y="-300.5" font-family="Helvetica,sans-Serif" font-size="10.00">GetDotPositions</text>
</a>
</g>
</g>
<!-- Node111&#45;&gt;Node118 -->
<g id="edge61" class="edge">
<title>Node111&#45;&gt;Node118</title>
<path fill="none" stroke="#63b8ff" d="M715.46,-303C734.54,-303 758.31,-303 779.57,-303"/>
<polygon fill="#63b8ff" stroke="#63b8ff" points="779.57,-306.5 789.57,-303 779.57,-299.5 779.57,-306.5"/>
</g>
<!-- Node119 -->
<g id="node46" class="node">
<title>Node119</title>
<g id="a_node46"><a xlink:href="TransmitterCode_2src_2main_8cpp.html#a927484b01116cd14fd1ade706bc06d51" target="_top" xlink:title=" ">
<polygon fill="white" stroke="#666666" points="887.5,-236.5 783.5,-236.5 783.5,-217.5 887.5,-217.5 887.5,-236.5"/>
<text text-anchor="middle" x="835.5" y="-224.5" font-family="Helvetica,sans-Serif" font-size="10.00">MapWithExponential</text>
</a>
</g>
</g>
<!-- Node111&#45;&gt;Node119 -->
<g id="edge62" class="edge">
<title>Node111&#45;&gt;Node119</title>
<path fill="none" stroke="#63b8ff" d="M714.95,-293.08C722.48,-290.33 730.2,-286.98 737,-283 755.48,-272.19 754.74,-262.18 773,-251 779.03,-247.31 785.72,-244 792.41,-241.11"/>
<polygon fill="#63b8ff" stroke="#63b8ff" points="793.46,-244.46 801.42,-237.48 790.84,-237.97 793.46,-244.46"/>
</g>
<!-- Node111&#45;&gt;Node39 -->
<g id="edge64" class="edge">
<title>Node111&#45;&gt;Node39</title>
<path fill="none" stroke="#63b8ff" d="M715.21,-296.01C769.09,-285.18 867.33,-263.64 898,-245 929.08,-226.11 955.52,-192.38 970.18,-171.15"/>
<polygon fill="#63b8ff" stroke="#63b8ff" points="972.9,-173.37 975.55,-163.11 967.09,-169.48 972.9,-173.37"/>
</g>
<!-- Node120 -->
<g id="node48" class="node">
<title>Node120</title>
<g id="a_node48"><a xlink:href="TransmitterCode_2src_2main_8cpp.html#a3d20af2f1fee81198a0cef2d4500083a" target="_top" xlink:title=" ">
<polygon fill="white" stroke="#666666" points="898,-199.5 773,-199.5 773,-180.5 898,-180.5 898,-199.5"/>
<text text-anchor="middle" x="835.5" y="-187.5" font-family="Helvetica,sans-Serif" font-size="10.00">updateInterpolationTypes</text>
</a>
</g>
</g>
<!-- Node111&#45;&gt;Node120 -->
<g id="edge68" class="edge">
<title>Node111&#45;&gt;Node120</title>
<path fill="none" stroke="#63b8ff" d="M715.43,-295.34C723.19,-292.44 730.88,-288.46 737,-283 764.61,-258.41 744.82,-231.93 773,-208 773.95,-207.19 774.94,-206.42 775.96,-205.68"/>
<polygon fill="#63b8ff" stroke="#63b8ff" points="777.63,-208.75 784.5,-200.69 774.1,-202.71 777.63,-208.75"/>
</g>
<!-- Node113&#45;&gt;Node4 -->
<g id="edge49" class="edge">
<title>Node113&#45;&gt;Node4</title>
<path fill="none" stroke="#63b8ff" d="M807.1,-482.51C718.26,-464.49 439.01,-406.22 355,-369 336.01,-360.59 316.06,-348.2 301.3,-338.25"/>
<polygon fill="#63b8ff" stroke="#63b8ff" points="303.45,-335.48 293.23,-332.69 299.48,-341.25 303.45,-335.48"/>
</g>
<!-- Node113&#45;&gt;Node26 -->
<g id="edge50" class="edge">
<title>Node113&#45;&gt;Node26</title>
<path fill="none" stroke="#63b8ff" d="M863.93,-488.1C917.01,-488.29 1033.09,-488.72 1084.33,-488.91"/>
<polygon fill="#63b8ff" stroke="#63b8ff" points="1084.09,-492.41 1094.1,-488.94 1084.12,-485.41 1084.09,-492.41"/>
</g>
<!-- Node115&#45;&gt;Node4 -->
<g id="edge53" class="edge">
<title>Node115&#45;&gt;Node4</title>
<path fill="none" stroke="#63b8ff" d="M807.03,-445.67C733.38,-431.23 525.58,-389.43 355,-345 343.73,-342.06 331.61,-338.58 320.43,-335.22"/>
<polygon fill="#63b8ff" stroke="#63b8ff" points="321.65,-331.93 311.06,-332.37 319.61,-338.63 321.65,-331.93"/>
</g>
<!-- Node115&#45;&gt;Node26 -->
<g id="edge54" class="edge">
<title>Node115&#45;&gt;Node26</title>
<path fill="none" stroke="#63b8ff" d="M863.93,-454.82C917.01,-462.21 1033.09,-478.36 1084.33,-485.5"/>
<polygon fill="#63b8ff" stroke="#63b8ff" points="1083.73,-488.95 1094.12,-486.86 1084.69,-482.01 1083.73,-488.95"/>
</g>
<!-- Node116&#45;&gt;Node4 -->
<g id="edge56" class="edge">
<title>Node116&#45;&gt;Node4</title>
<path fill="none" stroke="#63b8ff" d="M808.15,-408.31C796.91,-405.27 783.9,-400.92 773,-395 754.69,-385.07 756.23,-373 737,-365 718.47,-357.29 446.78,-335.21 330.58,-326.05"/>
<polygon fill="#63b8ff" stroke="#63b8ff" points="330.93,-322.57 320.69,-325.28 330.38,-329.55 330.93,-322.57"/>
</g>
<!-- Node116&#45;&gt;Node26 -->
<g id="edge57" class="edge">
<title>Node116&#45;&gt;Node26</title>
<path fill="none" stroke="#63b8ff" d="M862.79,-419.55C900.69,-427.74 972.75,-444.06 1033,-462 1050.64,-467.25 1070.21,-474.18 1085.14,-479.7"/>
<polygon fill="#63b8ff" stroke="#63b8ff" points="1083.53,-482.84 1094.12,-483.07 1085.98,-476.28 1083.53,-482.84"/>
</g>
<!-- Node117&#45;&gt;Node4 -->
<g id="edge59" class="edge">
<title>Node117&#45;&gt;Node4</title>
<path fill="none" stroke="#63b8ff" d="M807.79,-535.91C744.6,-557.65 582.42,-603.34 465,-548 372.1,-504.21 309.73,-388.93 287.52,-342.15"/>
<polygon fill="#63b8ff" stroke="#63b8ff" points="290.75,-340.8 283.38,-333.2 284.4,-343.74 290.75,-340.8"/>
</g>
<!-- Node117&#45;&gt;Node26 -->
<g id="edge60" class="edge">
<title>Node117&#45;&gt;Node26</title>
<path fill="none" stroke="#63b8ff" d="M864.89,-523.26C903.16,-519.43 973.39,-511.93 1033,-503 1050.38,-500.39 1069.87,-496.82 1084.83,-493.93"/>
<polygon fill="#63b8ff" stroke="#63b8ff" points="1085.1,-497.45 1094.24,-492.09 1083.75,-490.58 1085.1,-497.45"/>
</g>
<!-- Node39&#45;&gt;Node3 -->
<g id="edge65" class="edge">
<title>Node39&#45;&gt;Node3</title>
<path fill="none" stroke="#63b8ff" d="M1000.84,-142.06C1021.9,-129.26 1058.74,-106.86 1083.62,-91.73"/>
<polygon fill="#63b8ff" stroke="#63b8ff" points="1085.13,-94.91 1091.86,-86.72 1081.5,-88.93 1085.13,-94.91"/>
</g>
<!-- Node39&#45;&gt;Node4 -->
<g id="edge66" class="edge">
<title>Node39&#45;&gt;Node4</title>
<path fill="none" stroke="#63b8ff" d="M951.2,-145.47C896.34,-134.6 779.1,-114 679,-114 523,-114 523,-114 523,-114 443.71,-114 414.69,-121.82 355,-174 315.21,-208.79 293.24,-269.33 283.93,-301.12"/>
<polygon fill="#63b8ff" stroke="#63b8ff" points="280.58,-300.11 281.28,-310.68 287.33,-301.98 280.58,-300.11"/>
</g>
<!-- Node39&#45;&gt;Node26 -->
<g id="edge67" class="edge">
<title>Node39&#45;&gt;Node26</title>
<path fill="none" stroke="#63b8ff" d="M988.11,-161.72C1005.18,-207.75 1078.05,-404.2 1101.91,-468.52"/>
<polygon fill="#63b8ff" stroke="#63b8ff" points="1098.59,-469.66 1105.35,-477.82 1105.16,-467.23 1098.59,-469.66"/>
</g>
<!-- Node120&#45;&gt;Node4 -->
<g id="edge69" class="edge">
<title>Node120&#45;&gt;Node4</title>
<path fill="none" stroke="#63b8ff" d="M778.69,-180.04C705.97,-168.71 575.13,-153.97 465,-172 414.1,-180.33 396.06,-177.78 355,-209 322.29,-233.87 298.79,-276.91 287.03,-302.08"/>
<polygon fill="#63b8ff" stroke="#63b8ff" points="283.98,-300.32 283.09,-310.88 290.37,-303.19 283.98,-300.32"/>
</g>
<!-- Node120&#45;&gt;Node39 -->
<g id="edge70" class="edge">
<title>Node120&#45;&gt;Node39</title>
<path fill="none" stroke="#63b8ff" d="M874.86,-180.02C894.96,-174.78 919.63,-168.36 940.27,-162.99"/>
<polygon fill="#63b8ff" stroke="#63b8ff" points="941.01,-166.41 949.81,-160.51 939.25,-159.64 941.01,-166.41"/>
</g>
</g>
</svg>
