<?xml version="1.0" encoding="UTF-8" standalone="no"?>
<!DOCTYPE svg PUBLIC "-//W3C//DTD SVG 1.1//EN"
 "http://www.w3.org/Graphics/SVG/1.1/DTD/svg11.dtd">
<!-- Generated by graphviz version 3.0.0 (20221109.1736)
 -->
<!-- Title: updateInterpolationTypes Pages: 1 -->
<svg width="913pt" height="232pt"
 viewBox="0.00 0.00 913.00 232.10" xmlns="http://www.w3.org/2000/svg" xmlns:xlink="http://www.w3.org/1999/xlink">
<g id="graph0" class="graph" transform="scale(1 1) rotate(0) translate(4 228.1)">
<title>updateInterpolationTypes</title>
<polygon fill="white" stroke="transparent" points="-4,4 -4,-228.1 909,-228.1 909,4 -4,4"/>
<!-- Node1 -->
<g id="node1" class="node">
<title>Node1</title>
<g id="a_node1"><a xlink:title=" ">
<polygon fill="#bfbfbf" stroke="black" points="780,-180.5 780,-199.5 905,-199.5 905,-180.5 780,-180.5"/>
<text text-anchor="middle" x="842.5" y="-187.5" font-family="Helvetica,sans-Serif" font-size="10.00">updateInterpolationTypes</text>
</a>
</g>
</g>
<!-- Node2 -->
<g id="node2" class="node">
<title>Node2</title>
<g id="a_node2"><a xlink:href="TransmitterCode_2src_2main_8cpp.html#a804fdbdd5eab4c596bbe8a23eecbe4d5" target="_top" xlink:title=" ">
<polygon fill="white" stroke="black" points="208,-190.5 208,-209.5 309,-209.5 309,-190.5 208,-190.5"/>
<text text-anchor="middle" x="258.5" y="-197.5" font-family="Helvetica,sans-Serif" font-size="10.00">ButtonWasPressed</text>
</a>
</g>
</g>
<!-- Node1&#45;&gt;Node2 -->
<g id="edge1" class="edge">
<title>Node1&#45;&gt;Node2</title>
<path fill="none" stroke="midnightblue" d="M771.55,-200.97C675.28,-214.48 496.62,-233.79 345,-218 329.01,-216.33 311.6,-212.96 296.69,-209.58"/>
<polygon fill="midnightblue" stroke="midnightblue" points="772.33,-204.4 781.74,-199.52 771.35,-197.47 772.33,-204.4"/>
</g>
<!-- Node6 -->
<g id="node6" class="node">
<title>Node6</title>
<g id="a_node6"><a xlink:href="TransmitterCode_2src_2main_8cpp.html#acf49567c45af927603ae83a7f46e6534" target="_top" xlink:title=" ">
<polygon fill="white" stroke="black" points="670,-114.5 670,-133.5 744,-133.5 744,-114.5 670,-114.5"/>
<text text-anchor="middle" x="707" y="-121.5" font-family="Helvetica,sans-Serif" font-size="10.00">DisplayCurve</text>
</a>
</g>
</g>
<!-- Node1&#45;&gt;Node6 -->
<g id="edge6" class="edge">
<title>Node1&#45;&gt;Node6</title>
<path fill="none" stroke="midnightblue" d="M812.82,-175.82C787.04,-163.08 749.89,-144.71 727.44,-133.61"/>
<polygon fill="midnightblue" stroke="midnightblue" points="811.57,-179.11 822.09,-180.4 814.67,-172.83 811.57,-179.11"/>
</g>
<!-- Node3 -->
<g id="node3" class="node">
<title>Node3</title>
<g id="a_node3"><a xlink:href="TransmitterCode_2src_2main_8cpp.html#a558ea014e230b7caa54ce5a37ad29b22" target="_top" xlink:title=" ">
<polygon fill="white" stroke="black" points="71,-152.5 71,-171.5 172,-171.5 172,-152.5 71,-152.5"/>
<text text-anchor="middle" x="121.5" y="-159.5" font-family="Helvetica,sans-Serif" font-size="10.00">ManageTransmitter</text>
</a>
</g>
</g>
<!-- Node2&#45;&gt;Node3 -->
<g id="edge2" class="edge">
<title>Node2&#45;&gt;Node3</title>
<path fill="none" stroke="midnightblue" d="M213.74,-187.68C195.19,-182.46 173.9,-176.47 156.56,-171.59"/>
<polygon fill="midnightblue" stroke="midnightblue" points="212.86,-191.07 223.43,-190.41 214.76,-184.33 212.86,-191.07"/>
</g>
<!-- Node5 -->
<g id="node5" class="node">
<title>Node5</title>
<g id="a_node5"><a xlink:href="TransmitterCode_2src_2main_8cpp.html#ab7c9edf843c732d7fe296564f39bc0dc" target="_top" xlink:title="RECEIVE A MODEL FILE.">
<polygon fill="white" stroke="black" points="74.5,-190.5 74.5,-209.5 168.5,-209.5 168.5,-190.5 74.5,-190.5"/>
<text text-anchor="middle" x="121.5" y="-197.5" font-family="Helvetica,sans-Serif" font-size="10.00">ReceiveModelFile</text>
</a>
</g>
</g>
<!-- Node2&#45;&gt;Node5 -->
<g id="edge4" class="edge">
<title>Node2&#45;&gt;Node5</title>
<path fill="none" stroke="midnightblue" d="M197.95,-193.29C188.2,-193.19 178.23,-193.28 168.86,-193.55"/>
<polygon fill="midnightblue" stroke="midnightblue" points="197.94,-196.79 208,-193.47 198.06,-189.79 197.94,-196.79"/>
</g>
<!-- Node4 -->
<g id="node4" class="node">
<title>Node4</title>
<g id="a_node4"><a xlink:href="TransmitterCode_2src_2main_8cpp.html#ad3cb30894c94eb016e98bdcaa899ac86" target="_top" xlink:title=" ">
<polygon fill="white" stroke="black" points="0,-114.5 0,-133.5 35,-133.5 35,-114.5 0,-114.5"/>
<text text-anchor="middle" x="17.5" y="-121.5" font-family="Helvetica,sans-Serif" font-size="10.00">loop</text>
</a>
</g>
</g>
<!-- Node3&#45;&gt;Node4 -->
<g id="edge3" class="edge">
<title>Node3&#45;&gt;Node4</title>
<path fill="none" stroke="midnightblue" d="M85.16,-148.83C68.24,-142.53 48.78,-135.28 35.27,-130.25"/>
<polygon fill="midnightblue" stroke="midnightblue" points="84.17,-152.2 94.76,-152.41 86.61,-145.64 84.17,-152.2"/>
</g>
<!-- Node5&#45;&gt;Node2 -->
<g id="edge5" class="edge">
<title>Node5&#45;&gt;Node2</title>
<path fill="none" stroke="midnightblue" d="M179.11,-206.67C188.71,-206.81 198.6,-206.76 208,-206.53"/>
<polygon fill="midnightblue" stroke="midnightblue" points="178.93,-203.17 168.86,-206.45 178.78,-210.16 178.93,-203.17"/>
</g>
<!-- Node6&#45;&gt;Node2 -->
<g id="edge7" class="edge">
<title>Node6&#45;&gt;Node2</title>
<path fill="none" stroke="midnightblue" d="M681.7,-138.6C668.05,-146.35 650.47,-155.57 634,-162 567.62,-187.91 549.66,-193.81 479,-203 419.94,-210.68 404.55,-204.04 345,-203 333.42,-202.8 320.95,-202.44 309.22,-202.04"/>
<polygon fill="midnightblue" stroke="midnightblue" points="683.57,-141.56 690.47,-133.52 680.07,-135.5 683.57,-141.56"/>
</g>
<!-- Node7 -->
<g id="node7" class="node">
<title>Node7</title>
<g id="a_node7"><a xlink:href="TransmitterCode_2src_2main_8cpp.html#ac7a913ec35d5e97835e753fd1ee77dd7" target="_top" xlink:title=" ">
<polygon fill="white" stroke="black" points="515,-95.5 515,-114.5 634,-114.5 634,-95.5 515,-95.5"/>
<text text-anchor="middle" x="574.5" y="-102.5" font-family="Helvetica,sans-Serif" font-size="10.00">MoveCurrentPointDown</text>
</a>
</g>
</g>
<!-- Node6&#45;&gt;Node7 -->
<g id="edge8" class="edge">
<title>Node6&#45;&gt;Node7</title>
<path fill="none" stroke="midnightblue" d="M659.86,-117.28C651.63,-116.08 642.96,-114.82 634.44,-113.58"/>
<polygon fill="midnightblue" stroke="midnightblue" points="659.59,-120.78 669.99,-118.76 660.6,-113.85 659.59,-120.78"/>
</g>
<!-- Node9 -->
<g id="node9" class="node">
<title>Node9</title>
<g id="a_node9"><a xlink:href="TransmitterCode_2src_2main_8cpp.html#adff425c4aac140ddca211d4ef4d98a7e" target="_top" xlink:title=" ">
<polygon fill="white" stroke="black" points="521,-57.5 521,-76.5 628,-76.5 628,-57.5 521,-57.5"/>
<text text-anchor="middle" x="574.5" y="-64.5" font-family="Helvetica,sans-Serif" font-size="10.00">MoveCurrentPointUp</text>
</a>
</g>
</g>
<!-- Node6&#45;&gt;Node9 -->
<g id="edge10" class="edge">
<title>Node6&#45;&gt;Node9</title>
<path fill="none" stroke="midnightblue" d="M681.02,-109.46C667.4,-101.88 650.08,-92.79 634,-86 625.84,-82.55 616.82,-79.34 608.35,-76.58"/>
<polygon fill="midnightblue" stroke="midnightblue" points="679.38,-112.55 689.8,-114.42 682.82,-106.45 679.38,-112.55"/>
</g>
<!-- Node11 -->
<g id="node11" class="node">
<title>Node11</title>
<g id="a_node11"><a xlink:href="TransmitterCode_2src_2main_8cpp.html#ac7ef59496adda1ac4c905b854056a8f7" target="_top" xlink:title=" ">
<polygon fill="white" stroke="black" points="541,-19.5 541,-38.5 608,-38.5 608,-19.5 541,-19.5"/>
<text text-anchor="middle" x="574.5" y="-26.5" font-family="Helvetica,sans-Serif" font-size="10.00">PointSelect</text>
</a>
</g>
</g>
<!-- Node6&#45;&gt;Node11 -->
<g id="edge12" class="edge">
<title>Node6&#45;&gt;Node11</title>
<path fill="none" stroke="midnightblue" d="M693.41,-106.26C680.36,-89.09 658.47,-63.45 634,-48 626.14,-43.04 616.87,-39.26 608.05,-36.42"/>
<polygon fill="midnightblue" stroke="midnightblue" points="690.64,-108.4 699.39,-114.37 696.27,-104.24 690.64,-108.4"/>
</g>
<!-- Node12 -->
<g id="node12" class="node">
<title>Node12</title>
<g id="a_node12"><a xlink:href="TransmitterCode_2src_2main_8cpp.html#ad770ee51a34d8c5026e65136884c16bf" target="_top" xlink:title=" ">
<polygon fill="white" stroke="black" points="532.5,-133.5 532.5,-152.5 616.5,-152.5 616.5,-133.5 532.5,-133.5"/>
<text text-anchor="middle" x="574.5" y="-140.5" font-family="Helvetica,sans-Serif" font-size="10.00">ShowServoPos</text>
</a>
</g>
</g>
<!-- Node6&#45;&gt;Node12 -->
<g id="edge13" class="edge">
<title>Node6&#45;&gt;Node12</title>
<path fill="none" stroke="midnightblue" d="M660.04,-130.69C646,-132.74 630.64,-134.97 616.92,-136.97"/>
<polygon fill="midnightblue" stroke="midnightblue" points="660.6,-134.15 669.99,-129.24 659.59,-127.22 660.6,-134.15"/>
</g>
<!-- Node8 -->
<g id="node8" class="node">
<title>Node8</title>
<g id="a_node8"><a xlink:href="TransmitterCode_2src_2main_8cpp.html#af954e15b63371f52276ced00c0458368" target="_top" xlink:title=" ">
<polygon fill="white" stroke="black" points="380,-38.5 380,-57.5 444,-57.5 444,-38.5 380,-38.5"/>
<text text-anchor="middle" x="412" y="-45.5" font-family="Helvetica,sans-Serif" font-size="10.00">PointDown</text>
</a>
</g>
</g>
<!-- Node7&#45;&gt;Node8 -->
<g id="edge9" class="edge">
<title>Node7&#45;&gt;Node8</title>
<path fill="none" stroke="midnightblue" d="M533.45,-92.33C527.25,-90.27 520.94,-88.12 515,-86 498.83,-80.24 495.07,-78.04 479,-72 466.1,-67.15 451.73,-61.9 439.7,-57.56"/>
<polygon fill="midnightblue" stroke="midnightblue" points="532.43,-95.68 543.03,-95.46 534.61,-89.02 532.43,-95.68"/>
</g>
<!-- Node10 -->
<g id="node10" class="node">
<title>Node10</title>
<g id="a_node10"><a xlink:href="TransmitterCode_2src_2main_8cpp.html#a40c056b9758bef5cf5c986926ccf2313" target="_top" xlink:title=" ">
<polygon fill="white" stroke="black" points="386,-0.5 386,-19.5 438,-19.5 438,-0.5 386,-0.5"/>
<text text-anchor="middle" x="412" y="-7.5" font-family="Helvetica,sans-Serif" font-size="10.00">PointUp</text>
</a>
</g>
</g>
<!-- Node9&#45;&gt;Node10 -->
<g id="edge11" class="edge">
<title>Node9&#45;&gt;Node10</title>
<path fill="none" stroke="midnightblue" d="M530.97,-54.14C525.54,-52.22 520.1,-50.16 515,-48 498.34,-40.96 495.78,-35.76 479,-29 465.84,-23.7 450.65,-19.22 438.17,-15.94"/>
<polygon fill="midnightblue" stroke="midnightblue" points="530.05,-57.52 540.65,-57.42 532.3,-50.89 530.05,-57.52"/>
</g>
<!-- Node12&#45;&gt;Node2 -->
<g id="edge14" class="edge">
<title>Node12&#45;&gt;Node2</title>
<path fill="none" stroke="midnightblue" d="M545.24,-156.93C526.83,-165.36 502.04,-175.5 479,-181 421.89,-194.63 354.35,-198.75 309.42,-199.86"/>
<polygon fill="midnightblue" stroke="midnightblue" points="546.93,-160 554.5,-152.59 543.96,-153.66 546.93,-160"/>
</g>
<!-- Node12&#45;&gt;Node4 -->
<g id="edge20" class="edge">
<title>Node12&#45;&gt;Node4</title>
<path fill="none" stroke="midnightblue" d="M530.97,-130.14C525.54,-128.22 520.1,-126.16 515,-124 498.34,-116.96 496.56,-109.35 479,-105 310.07,-63.16 95.78,-106.13 35.15,-120"/>
<polygon fill="midnightblue" stroke="midnightblue" points="530.05,-133.52 540.65,-133.42 532.3,-126.89 530.05,-133.52"/>
</g>
<!-- Node13 -->
<g id="node13" class="node">
<title>Node13</title>
<g id="a_node13"><a xlink:href="TransmitterCode_2src_2main_8cpp.html#aa61377ec59e711151913086167f2f48f" target="_top" xlink:title=" ">
<polygon fill="white" stroke="black" points="345,-152.5 345,-171.5 479,-171.5 479,-152.5 345,-152.5"/>
<text text-anchor="middle" x="412" y="-159.5" font-family="Helvetica,sans-Serif" font-size="10.00">DisplayCurveAndServoPos</text>
</a>
</g>
</g>
<!-- Node12&#45;&gt;Node13 -->
<g id="edge15" class="edge">
<title>Node12&#45;&gt;Node13</title>
<path fill="none" stroke="midnightblue" d="M522.01,-149.1C508.35,-150.71 493.42,-152.48 479.1,-154.17"/>
<polygon fill="midnightblue" stroke="midnightblue" points="522.65,-152.54 532.17,-147.89 521.83,-145.59 522.65,-152.54"/>
</g>
<!-- Node15 -->
<g id="node15" class="node">
<title>Node15</title>
<g id="a_node15"><a xlink:href="TransmitterCode_2src_2main_8cpp.html#acaf005c908c2b6706d7ab9579f456ca8" target="_top" xlink:title=" ">
<polygon fill="white" stroke="black" points="373,-114.5 373,-133.5 451,-133.5 451,-114.5 373,-114.5"/>
<text text-anchor="middle" x="412" y="-121.5" font-family="Helvetica,sans-Serif" font-size="10.00">DualRatesEnd</text>
</a>
</g>
</g>
<!-- Node12&#45;&gt;Node15 -->
<g id="edge19" class="edge">
<title>Node12&#45;&gt;Node15</title>
<path fill="none" stroke="midnightblue" d="M522.2,-136.93C499.15,-134.2 472.41,-131.03 451.17,-128.52"/>
<polygon fill="midnightblue" stroke="midnightblue" points="521.83,-140.41 532.17,-138.11 522.65,-133.46 521.83,-140.41"/>
</g>
<!-- Node13&#45;&gt;Node2 -->
<g id="edge16" class="edge">
<title>Node13&#45;&gt;Node2</title>
<path fill="none" stroke="midnightblue" d="M363,-174.04C341.83,-179.35 317.31,-185.5 297.45,-190.48"/>
<polygon fill="midnightblue" stroke="midnightblue" points="363.92,-177.42 372.77,-171.59 362.22,-170.63 363.92,-177.42"/>
</g>
<!-- Node14 -->
<g id="node14" class="node">
<title>Node14</title>
<g id="a_node14"><a xlink:href="TransmitterCode_2src_2main_8cpp.html#aa98d7fb495cbdc40cb17343ffafbfe15" target="_top" xlink:title=" ">
<polygon fill="white" stroke="black" points="231,-152.5 231,-171.5 286,-171.5 286,-152.5 231,-152.5"/>
<text text-anchor="middle" x="258.5" y="-159.5" font-family="Helvetica,sans-Serif" font-size="10.00">GetBank</text>
</a>
</g>
</g>
<!-- Node13&#45;&gt;Node14 -->
<g id="edge17" class="edge">
<title>Node13&#45;&gt;Node14</title>
<path fill="none" stroke="midnightblue" d="M334.73,-162C317.28,-162 299.85,-162 286.18,-162"/>
<polygon fill="midnightblue" stroke="midnightblue" points="334.99,-165.5 344.99,-162 334.99,-158.5 334.99,-165.5"/>
</g>
<!-- Node14&#45;&gt;Node3 -->
<g id="edge18" class="edge">
<title>Node14&#45;&gt;Node3</title>
<path fill="none" stroke="midnightblue" d="M220.45,-162C205.52,-162 188.07,-162 172.07,-162"/>
<polygon fill="midnightblue" stroke="midnightblue" points="220.83,-165.5 230.83,-162 220.83,-158.5 220.83,-165.5"/>
</g>
</g>
</svg>
