<?xml version="1.0" encoding="UTF-8" standalone="no"?>
<!DOCTYPE svg PUBLIC "-//W3C//DTD SVG 1.1//EN"
 "http://www.w3.org/Graphics/SVG/1.1/DTD/svg11.dtd">
<!-- Generated by graphviz version 7.0.5 (20221223.1930)
 -->
<!-- Title: UpdateButtonLabels Pages: 1 -->
<svg width="1843pt" height="663pt"
 viewBox="0.00 0.00 1843.00 663.43" xmlns="http://www.w3.org/2000/svg" xmlns:xlink="http://www.w3.org/1999/xlink">
<g id="graph0" class="graph" transform="scale(1 1) rotate(0) translate(4 659.43)">
<title>UpdateButtonLabels</title>
<!-- Node1 -->
<g id="node1" class="node">
<title>Node1</title>
<g id="a_node1"><a xlink:title=" ">
<polygon fill="#999999" stroke="#666666" points="1835,-513 1729,-513 1729,-494 1835,-494 1835,-513"/>
<text text-anchor="middle" x="1782" y="-501" font-family="Helvetica,sans-Serif" font-size="10.00">UpdateButtonLabels</text>
</a>
</g>
</g>
<!-- Node2 -->
<g id="node2" class="node">
<title>Node2</title>
<g id="a_node2"><a xlink:href="TransmitterCode_2src_2main_8cpp.html#ab1bdf189a2e5d2c6252095abeb660e79" target="_top" xlink:title=" ">
<polygon fill="white" stroke="#666666" points="1693,-589 1595,-589 1595,-570 1693,-570 1693,-589"/>
<text text-anchor="middle" x="1644" y="-577" font-family="Helvetica,sans-Serif" font-size="10.00">BuddyChViewStart</text>
</a>
</g>
</g>
<!-- Node1&#45;&gt;Node2 -->
<g id="edge1" class="edge">
<title>Node1&#45;&gt;Node2</title>
<path fill="none" stroke="#63b8ff" d="M1755.51,-519.2C1738.08,-529.78 1714.37,-543.86 1693,-555.5 1684.16,-560.31 1674.24,-565.34 1665.72,-569.54"/>
<polygon fill="#63b8ff" stroke="#63b8ff" points="1756.97,-522.41 1763.68,-514.22 1753.32,-516.44 1756.97,-522.41"/>
</g>
<!-- Node3 -->
<g id="node3" class="node">
<title>Node3</title>
<g id="a_node3"><a xlink:href="TransmitterCode_2src_2main_8cpp.html#a804fdbdd5eab4c596bbe8a23eecbe4d5" target="_top" xlink:title=" ">
<polygon fill="white" stroke="#666666" points="1403.5,-399 1302.5,-399 1302.5,-380 1403.5,-380 1403.5,-399"/>
<text text-anchor="middle" x="1353" y="-387" font-family="Helvetica,sans-Serif" font-size="10.00">ButtonWasPressed</text>
</a>
</g>
</g>
<!-- Node1&#45;&gt;Node3 -->
<g id="edge2" class="edge">
<title>Node1&#45;&gt;Node3</title>
<path fill="none" stroke="#63b8ff" d="M1732.1,-515.91C1694.37,-523.63 1641.01,-530.54 1595,-521.5 1530.45,-508.82 1515.42,-497.59 1458,-465.5 1422.08,-445.43 1384.07,-414.95 1365.53,-399.39"/>
<polygon fill="#63b8ff" stroke="#63b8ff" points="1732.76,-519.34 1741.8,-513.82 1731.29,-512.5 1732.76,-519.34"/>
</g>
<!-- Node30 -->
<g id="node30" class="node">
<title>Node30</title>
<g id="a_node30"><a xlink:href="TransmitterCode_2src_2main_8cpp.html#ac7a5ec6cf2ed7b50bd291f821e886302" target="_top" xlink:title=" ">
<polygon fill="white" stroke="#666666" points="1685.5,-304 1602.5,-304 1602.5,-285 1685.5,-285 1685.5,-304"/>
<text text-anchor="middle" x="1644" y="-292" font-family="Helvetica,sans-Serif" font-size="10.00">ReadOneModel</text>
</a>
</g>
</g>
<!-- Node1&#45;&gt;Node30 -->
<g id="edge40" class="edge">
<title>Node1&#45;&gt;Node30</title>
<path fill="none" stroke="#63b8ff" d="M1768.48,-484.26C1740.18,-440.77 1672.11,-336.15 1651.21,-304.04"/>
<polygon fill="#63b8ff" stroke="#63b8ff" points="1765.41,-485.96 1773.8,-492.43 1771.28,-482.14 1765.41,-485.96"/>
</g>
<!-- Node45 -->
<g id="node45" class="node">
<title>Node45</title>
<g id="a_node45"><a xlink:href="TransmitterCode_2src_2main_8cpp.html#a618bc6ca4ab71bb4d5d7e00dc71f9e56" target="_top" xlink:title=" ">
<polygon fill="white" stroke="#666666" points="1691.5,-513 1596.5,-513 1596.5,-494 1691.5,-494 1691.5,-513"/>
<text text-anchor="middle" x="1644" y="-501" font-family="Helvetica,sans-Serif" font-size="10.00">StartReverseView</text>
</a>
</g>
</g>
<!-- Node1&#45;&gt;Node45 -->
<g id="edge68" class="edge">
<title>Node1&#45;&gt;Node45</title>
<path fill="none" stroke="#63b8ff" d="M1717.56,-503.5C1708.93,-503.5 1700.2,-503.5 1691.93,-503.5"/>
<polygon fill="#63b8ff" stroke="#63b8ff" points="1717.29,-507 1727.29,-503.5 1717.29,-500 1717.29,-507"/>
</g>
<!-- Node46 -->
<g id="node46" class="node">
<title>Node46</title>
<g id="a_node46"><a xlink:href="TransmitterCode_2src_2main_8cpp.html#a1c607fceb33466e7f7e0dd010dd53d7e" target="_top" xlink:title=" ">
<polygon fill="white" stroke="#666666" points="1684.5,-267 1603.5,-267 1603.5,-248 1684.5,-248 1684.5,-267"/>
<text text-anchor="middle" x="1644" y="-255" font-family="Helvetica,sans-Serif" font-size="10.00">StartSlowView</text>
</a>
</g>
</g>
<!-- Node1&#45;&gt;Node46 -->
<g id="edge70" class="edge">
<title>Node1&#45;&gt;Node46</title>
<path fill="none" stroke="#63b8ff" d="M1778.64,-482.46C1772.59,-438.16 1752.54,-334.47 1693,-275.5 1689.71,-272.24 1685.78,-269.57 1681.6,-267.37"/>
<polygon fill="#63b8ff" stroke="#63b8ff" points="1775.15,-482.76 1779.86,-492.25 1782.1,-481.89 1775.15,-482.76"/>
</g>
<!-- Node4 -->
<g id="node4" class="node">
<title>Node4</title>
<g id="a_node4"><a xlink:href="Utilities_8h.html#afb7c85cac4aa89fd998ed81c330374d2" target="_top" xlink:title=" ">
<polygon fill="white" stroke="#666666" points="1248,-323 1102,-323 1102,-304 1248,-304 1248,-323"/>
<text text-anchor="middle" x="1175" y="-311" font-family="Helvetica,sans-Serif" font-size="10.00">CheckForNextionButtonPress</text>
</a>
</g>
</g>
<!-- Node3&#45;&gt;Node4 -->
<g id="edge3" class="edge">
<title>Node3&#45;&gt;Node4</title>
<path fill="none" stroke="#63b8ff" d="M1324.34,-374.32C1303.67,-363.31 1274.52,-348.49 1248,-337.5 1235.46,-332.31 1221.36,-327.41 1208.98,-323.41"/>
<polygon fill="#63b8ff" stroke="#63b8ff" points="1322.53,-377.32 1332.99,-378.98 1325.84,-371.16 1322.53,-377.32"/>
</g>
<!-- Node19 -->
<g id="node19" class="node">
<title>Node19</title>
<g id="a_node19"><a xlink:href="ModelExchange_8h.html#ab7c9edf843c732d7fe296564f39bc0dc" target="_top" xlink:title="RECEIVE A MODEL FILE.">
<polygon fill="white" stroke="#666666" points="896,-624 802,-624 802,-605 896,-605 896,-624"/>
<text text-anchor="middle" x="849" y="-612" font-family="Helvetica,sans-Serif" font-size="10.00">ReceiveModelFile</text>
</a>
</g>
</g>
<!-- Node3&#45;&gt;Node19 -->
<g id="edge39" class="edge">
<title>Node3&#45;&gt;Node19</title>
<path fill="none" stroke="#63b8ff" d="M1298.55,-403.97C1293.32,-406.64 1288.36,-409.79 1284,-413.5 1258.56,-435.16 1274,-458.52 1248,-479.5 1195.36,-521.98 1166.18,-501.11 1102,-522.5 1022.35,-549.04 1004,-560.08 925,-588.5 909.96,-593.91 893.15,-599.76 879.26,-604.53"/>
<polygon fill="#63b8ff" stroke="#63b8ff" points="1299.72,-407.28 1307.43,-400.01 1296.87,-400.88 1299.72,-407.28"/>
</g>
<!-- Node5 -->
<g id="node5" class="node">
<title>Node5</title>
<g id="a_node5"><a xlink:href="TransmitterCode_2src_2main_8cpp.html#a641d6dab68ec7b2a8a32492aac55bc1c" target="_top" xlink:title=" ">
<polygon fill="white" stroke="#666666" points="1066,-399 961,-399 961,-380 1066,-380 1066,-399"/>
<text text-anchor="middle" x="1013.5" y="-387" font-family="Helvetica,sans-Serif" font-size="10.00">GetBackupFilename</text>
</a>
</g>
</g>
<!-- Node4&#45;&gt;Node5 -->
<g id="edge4" class="edge">
<title>Node4&#45;&gt;Node5</title>
<path fill="none" stroke="#63b8ff" d="M1146.24,-328.95C1124.67,-340.69 1093.83,-356.93 1066,-369.5 1058.22,-373.01 1049.63,-376.5 1041.72,-379.56"/>
<polygon fill="#63b8ff" stroke="#63b8ff" points="1147.92,-332.02 1155,-324.14 1144.55,-325.88 1147.92,-332.02"/>
</g>
<!-- Node7 -->
<g id="node7" class="node">
<title>Node7</title>
<g id="a_node7"><a xlink:href="TransmitterCode_2src_2main_8cpp.html#a6506bf72e0dd9e9ce480156b47625bff" target="_top" xlink:title=" ">
<polygon fill="white" stroke="#666666" points="1056.5,-361 970.5,-361 970.5,-342 1056.5,-342 1056.5,-361"/>
<text text-anchor="middle" x="1013.5" y="-349" font-family="Helvetica,sans-Serif" font-size="10.00">GetConfirmation</text>
</a>
</g>
</g>
<!-- Node4&#45;&gt;Node7 -->
<g id="edge7" class="edge">
<title>Node4&#45;&gt;Node7</title>
<path fill="none" stroke="#63b8ff" d="M1121.07,-326.11C1100.04,-331.12 1076.2,-336.8 1056.4,-341.52"/>
<polygon fill="#63b8ff" stroke="#63b8ff" points="1121.7,-329.56 1130.62,-323.83 1120.08,-322.75 1121.7,-329.56"/>
</g>
<!-- Node24 -->
<g id="node24" class="node">
<title>Node24</title>
<g id="a_node24"><a xlink:href="TransmitterCode_2src_2main_8cpp.html#a558ea014e230b7caa54ce5a37ad29b22" target="_top" xlink:title=" ">
<polygon fill="white" stroke="#666666" points="1064,-62 963,-62 963,-43 1064,-43 1064,-62"/>
<text text-anchor="middle" x="1013.5" y="-50" font-family="Helvetica,sans-Serif" font-size="10.00">ManageTransmitter</text>
</a>
</g>
</g>
<!-- Node4&#45;&gt;Node24 -->
<g id="edge27" class="edge">
<title>Node4&#45;&gt;Node24</title>
<path fill="none" stroke="#63b8ff" d="M1162,-293.87C1130.13,-241.72 1044.16,-101.04 1020.56,-62.42"/>
<polygon fill="#63b8ff" stroke="#63b8ff" points="1158.95,-295.59 1167.15,-302.3 1164.92,-291.94 1158.95,-295.59"/>
</g>
<!-- Node25 -->
<g id="node25" class="node">
<title>Node25</title>
<g id="a_node25"><a xlink:href="TransmitterCode_2src_2main_8cpp.html#a6f5b0f1e4ca75768c16c4dd93f92a8de" target="_top" xlink:title=" ">
<polygon fill="white" stroke="#666666" points="1039.5,-323 987.5,-323 987.5,-304 1039.5,-304 1039.5,-323"/>
<text text-anchor="middle" x="1013.5" y="-311" font-family="Helvetica,sans-Serif" font-size="10.00">MsgBox</text>
</a>
</g>
</g>
<!-- Node4&#45;&gt;Node25 -->
<g id="edge29" class="edge">
<title>Node4&#45;&gt;Node25</title>
<path fill="none" stroke="#63b8ff" d="M1090.29,-313.5C1071.95,-313.5 1053.88,-313.5 1039.99,-313.5"/>
<polygon fill="#63b8ff" stroke="#63b8ff" points="1090.2,-317 1100.2,-313.5 1090.2,-310 1090.2,-317"/>
</g>
<!-- Node5&#45;&gt;Node3 -->
<g id="edge5" class="edge">
<title>Node5&#45;&gt;Node3</title>
<path fill="none" stroke="#63b8ff" d="M1077.76,-389.5C1142.76,-389.5 1242.61,-389.5 1302.2,-389.5"/>
<polygon fill="#63b8ff" stroke="#63b8ff" points="1077.96,-386 1067.96,-389.5 1077.96,-393 1077.96,-386"/>
</g>
<!-- Node6 -->
<g id="node6" class="node">
<title>Node6</title>
<g id="a_node6"><a xlink:href="TransmitterCode_2src_2main_8cpp.html#a9d94366336f1e5fd43edb9c24bec5821" target="_top" xlink:title=" ">
<polygon fill="white" stroke="#666666" points="883,-546 815,-546 815,-527 883,-527 883,-546"/>
<text text-anchor="middle" x="849" y="-534" font-family="Helvetica,sans-Serif" font-size="10.00">RenameFile</text>
</a>
</g>
</g>
<!-- Node5&#45;&gt;Node6 -->
<g id="edge6" class="edge">
<title>Node5&#45;&gt;Node6</title>
<path fill="none" stroke="#63b8ff" d="M970.78,-405.15C967.19,-407.58 963.84,-410.35 961,-413.5 928.24,-449.82 961.03,-484.42 925,-517.5 913.72,-527.86 897.62,-532.76 883.22,-535.01"/>
<polygon fill="#63b8ff" stroke="#63b8ff" points="972.44,-408.23 979.39,-400.24 968.97,-402.15 972.44,-408.23"/>
</g>
<!-- Node7&#45;&gt;Node3 -->
<g id="edge8" class="edge">
<title>Node7&#45;&gt;Node3</title>
<path fill="none" stroke="#63b8ff" d="M1067.87,-357.51C1132.21,-364.75 1239.5,-376.83 1302.2,-383.89"/>
<polygon fill="#63b8ff" stroke="#63b8ff" points="1068.59,-354.07 1058.27,-356.43 1067.81,-361.02 1068.59,-354.07"/>
</g>
<!-- Node7&#45;&gt;Node6 -->
<g id="edge22" class="edge">
<title>Node7&#45;&gt;Node6</title>
<path fill="none" stroke="#63b8ff" d="M963.62,-367.86C962.7,-368.7 961.83,-369.58 961,-370.5 916.21,-420.68 972.37,-469.75 925,-517.5 914.12,-528.47 897.88,-533.41 883.29,-535.54"/>
<polygon fill="#63b8ff" stroke="#63b8ff" points="965.38,-370.9 971.56,-362.29 961.36,-365.17 965.38,-370.9"/>
</g>
<!-- Node8 -->
<g id="node8" class="node">
<title>Node8</title>
<g id="a_node8"><a xlink:href="TransmitterCode_2src_2main_8cpp.html#ac45477c637c975e13189e2988c8813b3" target="_top" xlink:title=" ">
<polygon fill="white" stroke="#666666" points="889,-324 809,-324 809,-305 889,-305 889,-324"/>
<text text-anchor="middle" x="849" y="-312" font-family="Helvetica,sans-Serif" font-size="10.00">DeleteModelID</text>
</a>
</g>
</g>
<!-- Node7&#45;&gt;Node8 -->
<g id="edge9" class="edge">
<title>Node7&#45;&gt;Node8</title>
<path fill="none" stroke="#63b8ff" d="M959.02,-339.32C936.26,-334.14 910.2,-328.21 889.27,-323.44"/>
<polygon fill="#63b8ff" stroke="#63b8ff" points="958.23,-342.73 968.75,-341.54 959.78,-335.91 958.23,-342.73"/>
</g>
<!-- Node9 -->
<g id="node9" class="node">
<title>Node9</title>
<g id="a_node9"><a xlink:href="TransmitterCode_2src_2main_8cpp.html#a53d438145d004c3b053f245f494f4284" target="_top" xlink:title=" ">
<polygon fill="white" stroke="#666666" points="875,-398 823,-398 823,-379 875,-379 875,-398"/>
<text text-anchor="middle" x="849" y="-386" font-family="Helvetica,sans-Serif" font-size="10.00">DelLOG</text>
</a>
</g>
</g>
<!-- Node7&#45;&gt;Node9 -->
<g id="edge10" class="edge">
<title>Node7&#45;&gt;Node9</title>
<path fill="none" stroke="#63b8ff" d="M959.3,-363.61C931.09,-370.04 897.72,-377.63 875.35,-382.73"/>
<polygon fill="#63b8ff" stroke="#63b8ff" points="959.78,-367.09 968.75,-361.46 958.23,-360.27 959.78,-367.09"/>
</g>
<!-- Node10 -->
<g id="node10" class="node">
<title>Node10</title>
<g id="a_node10"><a xlink:href="TransmitterCode_2src_2main_8cpp.html#a16c65917a148c7f6c17babf11e977b69" target="_top" xlink:title=" ">
<polygon fill="white" stroke="#666666" points="890,-509 808,-509 808,-490 890,-490 890,-509"/>
<text text-anchor="middle" x="849" y="-497" font-family="Helvetica,sans-Serif" font-size="10.00">EndBuddyView</text>
</a>
</g>
</g>
<!-- Node7&#45;&gt;Node10 -->
<g id="edge11" class="edge">
<title>Node7&#45;&gt;Node10</title>
<path fill="none" stroke="#63b8ff" d="M964.19,-367.54C963.07,-368.47 962,-369.46 961,-370.5 925.31,-407.54 962.59,-445.39 925,-480.5 915.58,-489.3 902.67,-494.17 890.23,-496.83"/>
<polygon fill="#63b8ff" stroke="#63b8ff" points="965.86,-370.63 972.31,-362.23 962.03,-364.77 965.86,-370.63"/>
</g>
<!-- Node11 -->
<g id="node11" class="node">
<title>Node11</title>
<g id="a_node11"><a xlink:href="ModelMatch_8h.html#afdd42b1130d38073be1c2025af855879" target="_top" xlink:title=" ">
<polygon fill="white" stroke="#666666" points="883.5,-176 814.5,-176 814.5,-157 883.5,-157 883.5,-176"/>
<text text-anchor="middle" x="849" y="-164" font-family="Helvetica,sans-Serif" font-size="10.00">IDNotFound</text>
</a>
</g>
</g>
<!-- Node7&#45;&gt;Node11 -->
<g id="edge12" class="edge">
<title>Node7&#45;&gt;Node11</title>
<path fill="none" stroke="#63b8ff" d="M965.11,-335.51C963.64,-334.27 962.26,-332.94 961,-331.5 916.63,-280.94 972.67,-231.95 925,-184.5 914.18,-173.73 898.12,-168.98 883.64,-167.03"/>
<polygon fill="#63b8ff" stroke="#63b8ff" points="962.79,-338.17 973.06,-340.78 966.66,-332.34 962.79,-338.17"/>
</g>
<!-- Node18 -->
<g id="node18" class="node">
<title>Node18</title>
<g id="a_node18"><a xlink:href="TransmitterCode_2src_2main_8cpp.html#ae9f91b9da28f2e1e2fb126961f03c31c" target="_top" xlink:title=" ">
<polygon fill="white" stroke="#666666" points="889.5,-139 808.5,-139 808.5,-120 889.5,-120 889.5,-139"/>
<text text-anchor="middle" x="849" y="-127" font-family="Helvetica,sans-Serif" font-size="10.00">ModelViewEnd</text>
</a>
</g>
</g>
<!-- Node7&#45;&gt;Node18 -->
<g id="edge20" class="edge">
<title>Node7&#45;&gt;Node18</title>
<path fill="none" stroke="#63b8ff" d="M964.56,-335.18C963.29,-334.03 962.1,-332.81 961,-331.5 907.52,-267.6 982.66,-207.66 925,-147.5 915.83,-137.93 902.53,-133.07 889.68,-130.71"/>
<polygon fill="#63b8ff" stroke="#63b8ff" points="962.42,-337.96 972.64,-340.77 966.41,-332.2 962.42,-337.96"/>
</g>
<!-- Node7&#45;&gt;Node19 -->
<g id="edge21" class="edge">
<title>Node7&#45;&gt;Node19</title>
<path fill="none" stroke="#63b8ff" d="M963.18,-368.17C962.42,-368.92 961.69,-369.69 961,-370.5 906.98,-433.95 968.17,-483.23 925,-554.5 911.44,-576.89 886.3,-594.39 868.89,-604.57"/>
<polygon fill="#63b8ff" stroke="#63b8ff" points="965.17,-371.05 971.16,-362.31 961.03,-365.41 965.17,-371.05"/>
</g>
<!-- Node20 -->
<g id="node20" class="node">
<title>Node20</title>
<g id="a_node20"><a xlink:href="TransmitterCode_2src_2main_8cpp.html#a75875d66db3193e4034c3768c175f8ef" target="_top" xlink:title=" ">
<polygon fill="white" stroke="#666666" points="882.5,-287 815.5,-287 815.5,-268 882.5,-268 882.5,-287"/>
<text text-anchor="middle" x="849" y="-275" font-family="Helvetica,sans-Serif" font-size="10.00">ResetClock</text>
</a>
</g>
</g>
<!-- Node7&#45;&gt;Node20 -->
<g id="edge23" class="edge">
<title>Node7&#45;&gt;Node20</title>
<path fill="none" stroke="#63b8ff" d="M970.26,-336.8C967.05,-335.17 963.92,-333.4 961,-331.5 942.05,-319.14 944.74,-306.56 925,-295.5 912.15,-288.3 896.49,-283.97 882.82,-281.36"/>
<polygon fill="#63b8ff" stroke="#63b8ff" points="968.78,-339.97 979.33,-340.91 971.67,-333.59 968.78,-339.97"/>
</g>
<!-- Node21 -->
<g id="node21" class="node">
<title>Node21</title>
<g id="a_node21"><a xlink:href="TransmitterCode_2src_2main_8cpp.html#a5c7f22bae35d5d6df9d54fe79dbb8401" target="_top" xlink:title=" ">
<polygon fill="white" stroke="#666666" points="913,-472 785,-472 785,-453 913,-453 913,-472"/>
<text text-anchor="middle" x="849" y="-460" font-family="Helvetica,sans-Serif" font-size="10.00">ResetTransmitterSettings</text>
</a>
</g>
</g>
<!-- Node7&#45;&gt;Node21 -->
<g id="edge24" class="edge">
<title>Node7&#45;&gt;Node21</title>
<path fill="none" stroke="#63b8ff" d="M965.49,-366.93C963.92,-368.04 962.41,-369.23 961,-370.5 934.12,-394.71 953.12,-420.74 925,-443.5 920.41,-447.22 915.18,-450.22 909.66,-452.64"/>
<polygon fill="#63b8ff" stroke="#63b8ff" points="966.88,-370.17 973.79,-362.14 963.38,-364.1 966.88,-370.17"/>
</g>
<!-- Node22 -->
<g id="node22" class="node">
<title>Node22</title>
<g id="a_node22"><a xlink:href="TransmitterCode_2src_2main_8cpp.html#a3838aa0b33bb22d3b9934da05d2716d8" target="_top" xlink:title=" ">
<polygon fill="white" stroke="#666666" points="887,-361 811,-361 811,-342 887,-342 887,-361"/>
<text text-anchor="middle" x="849" y="-349" font-family="Helvetica,sans-Serif" font-size="10.00">StoreModelID</text>
</a>
</g>
</g>
<!-- Node7&#45;&gt;Node22 -->
<g id="edge25" class="edge">
<title>Node7&#45;&gt;Node22</title>
<path fill="none" stroke="#63b8ff" d="M959.04,-351.5C935.58,-351.5 908.6,-351.5 887.35,-351.5"/>
<polygon fill="#63b8ff" stroke="#63b8ff" points="958.72,-355 968.72,-351.5 958.72,-348 958.72,-355"/>
</g>
<!-- Node23 -->
<g id="node23" class="node">
<title>Node23</title>
<g id="a_node23"><a xlink:href="TransmitterCode_2src_2main_8cpp.html#a3c55ef7c23759a89a86f6519569c4f7a" target="_top" xlink:title=" ">
<polygon fill="white" stroke="#666666" points="898.5,-435 799.5,-435 799.5,-416 898.5,-416 898.5,-435"/>
<text text-anchor="middle" x="849" y="-423" font-family="Helvetica,sans-Serif" font-size="10.00">TXModuleViewEnd</text>
</a>
</g>
</g>
<!-- Node7&#45;&gt;Node23 -->
<g id="edge26" class="edge">
<title>Node7&#45;&gt;Node23</title>
<path fill="none" stroke="#63b8ff" d="M968.64,-366.15C965.99,-367.5 963.42,-368.95 961,-370.5 941.94,-382.7 944.67,-395.32 925,-406.5 916.94,-411.08 907.78,-414.57 898.69,-417.23"/>
<polygon fill="#63b8ff" stroke="#63b8ff" points="970.02,-369.36 977.69,-362.05 967.14,-362.98 970.02,-369.36"/>
</g>
<!-- Node12 -->
<g id="node12" class="node">
<title>Node12</title>
<g id="a_node12"><a xlink:href="ModelMatch_8h.html#af8fe429ceb65bf9d257a2a0f1c63eccb" target="_top" xlink:title=" ">
<polygon fill="white" stroke="#666666" points="724,-176 622,-176 622,-157 724,-157 724,-176"/>
<text text-anchor="middle" x="673" y="-164" font-family="Helvetica,sans-Serif" font-size="10.00">CompareModelsIDs</text>
</a>
</g>
</g>
<!-- Node11&#45;&gt;Node12 -->
<g id="edge13" class="edge">
<title>Node11&#45;&gt;Node12</title>
<path fill="none" stroke="#63b8ff" d="M802.73,-166.5C778.71,-166.5 749.11,-166.5 724.36,-166.5"/>
<polygon fill="#63b8ff" stroke="#63b8ff" points="802.52,-170 812.52,-166.5 802.52,-163 802.52,-170"/>
</g>
<!-- Node13 -->
<g id="node13" class="node">
<title>Node13</title>
<g id="a_node13"><a xlink:href="ModelMatch_8h.html#a494cb4acb30856d1f53f08df1b80c41b" target="_top" xlink:title=" ">
<polygon fill="white" stroke="#666666" points="573,-194 454,-194 454,-175 573,-175 573,-194"/>
<text text-anchor="middle" x="513.5" y="-182" font-family="Helvetica,sans-Serif" font-size="10.00">GetModelsMacAddress</text>
</a>
</g>
</g>
<!-- Node12&#45;&gt;Node13 -->
<g id="edge14" class="edge">
<title>Node12&#45;&gt;Node13</title>
<path fill="none" stroke="#63b8ff" d="M610.67,-173.51C598.4,-174.91 585.54,-176.38 573.35,-177.77"/>
<polygon fill="#63b8ff" stroke="#63b8ff" points="610.69,-177.03 620.23,-172.42 609.9,-170.07 610.69,-177.03"/>
</g>
<!-- Node14 -->
<g id="node14" class="node">
<title>Node14</title>
<g id="a_node14"><a xlink:href="TransmitterCode_2src_2main_8cpp.html#a694f4f5a0147f4dc29b0bc1a8951547d" target="_top" xlink:title=" ">
<polygon fill="white" stroke="#666666" points="405,-215 311,-215 311,-196 405,-196 405,-215"/>
<text text-anchor="middle" x="358" y="-203" font-family="Helvetica,sans-Serif" font-size="10.00">ParseAckPayload</text>
</a>
</g>
</g>
<!-- Node13&#45;&gt;Node14 -->
<g id="edge15" class="edge">
<title>Node13&#45;&gt;Node14</title>
<path fill="none" stroke="#63b8ff" d="M442.54,-194.07C429.85,-195.81 416.91,-197.58 405.12,-199.19"/>
<polygon fill="#63b8ff" stroke="#63b8ff" points="442.66,-197.59 452.09,-192.76 441.71,-190.65 442.66,-197.59"/>
</g>
<!-- Node15 -->
<g id="node15" class="node">
<title>Node15</title>
<g id="a_node15"><a xlink:href="transceiver_8h.html#a1c11bb6771548de7d96723045b922620" target="_top" xlink:title=" ">
<polygon fill="white" stroke="#666666" points="262,-215 166,-215 166,-196 262,-196 262,-215"/>
<text text-anchor="middle" x="214" y="-203" font-family="Helvetica,sans-Serif" font-size="10.00">SuccessfulPacket</text>
</a>
</g>
</g>
<!-- Node14&#45;&gt;Node15 -->
<g id="edge16" class="edge">
<title>Node14&#45;&gt;Node15</title>
<path fill="none" stroke="#63b8ff" d="M299.34,-205.5C286.95,-205.5 274.01,-205.5 262.09,-205.5"/>
<polygon fill="#63b8ff" stroke="#63b8ff" points="298.99,-209 308.99,-205.5 298.99,-202 298.99,-209"/>
</g>
<!-- Node16 -->
<g id="node16" class="node">
<title>Node16</title>
<g id="a_node16"><a xlink:href="transceiver_8h.html#a049bfb836e7aa4a3a48a1a4bd225fafc" target="_top" xlink:title=" ">
<polygon fill="white" stroke="#666666" points="130,-215 71,-215 71,-196 130,-196 130,-215"/>
<text text-anchor="middle" x="100.5" y="-203" font-family="Helvetica,sans-Serif" font-size="10.00">SendData</text>
</a>
</g>
</g>
<!-- Node15&#45;&gt;Node16 -->
<g id="edge17" class="edge">
<title>Node15&#45;&gt;Node16</title>
<path fill="none" stroke="#63b8ff" d="M154.39,-205.5C146.07,-205.5 137.83,-205.5 130.43,-205.5"/>
<polygon fill="#63b8ff" stroke="#63b8ff" points="154.2,-209 164.2,-205.5 154.2,-202 154.2,-209"/>
</g>
<!-- Node16&#45;&gt;Node3 -->
<g id="edge18" class="edge">
<title>Node16&#45;&gt;Node3</title>
<path fill="none" stroke="#63b8ff" d="M105.31,-226.59C120.8,-304.9 186.5,-574.5 357,-574.5 674,-574.5 674,-574.5 674,-574.5 785.91,-574.5 818.91,-590.13 925,-554.5 943,-548.46 943.99,-539.94 961,-531.5 1020.82,-501.79 1038.02,-498.67 1102,-479.5 1165.82,-460.38 1185.68,-469.06 1248,-445.5 1281.19,-432.96 1317.01,-411.79 1336.76,-399.39"/>
<polygon fill="#63b8ff" stroke="#63b8ff" points="108.77,-226.03 103.47,-216.86 101.89,-227.33 108.77,-226.03"/>
</g>
<!-- Node17 -->
<g id="node17" class="node">
<title>Node17</title>
<g id="a_node17"><a xlink:href="TransmitterCode_2src_2main_8cpp.html#ad3cb30894c94eb016e98bdcaa899ac86" target="_top" xlink:title=" ">
<polygon fill="white" stroke="#666666" points="35,-62 0,-62 0,-43 35,-43 35,-62"/>
<text text-anchor="middle" x="17.5" y="-50" font-family="Helvetica,sans-Serif" font-size="10.00">loop</text>
</a>
</g>
</g>
<!-- Node16&#45;&gt;Node17 -->
<g id="edge19" class="edge">
<title>Node16&#45;&gt;Node17</title>
<path fill="none" stroke="#63b8ff" d="M89.24,-186.13C71.81,-153.2 37.01,-87.46 23.77,-62.46"/>
<polygon fill="#63b8ff" stroke="#63b8ff" points="85.95,-187.39 93.72,-194.59 92.14,-184.12 85.95,-187.39"/>
</g>
<!-- Node24&#45;&gt;Node17 -->
<g id="edge28" class="edge">
<title>Node24&#45;&gt;Node17</title>
<path fill="none" stroke="#63b8ff" d="M951.3,-52.5C883.5,-52.5 770.94,-52.5 674,-52.5 674,-52.5 674,-52.5 213,-52.5 147.32,-52.5 69.17,-52.5 35.41,-52.5"/>
<polygon fill="#63b8ff" stroke="#63b8ff" points="951.09,-56 961.09,-52.5 951.09,-49 951.09,-56"/>
</g>
<!-- Node25&#45;&gt;Node8 -->
<g id="edge30" class="edge">
<title>Node25&#45;&gt;Node8</title>
<path fill="none" stroke="#63b8ff" d="M975.61,-313.73C949.91,-313.89 915.68,-314.1 889.44,-314.26"/>
<polygon fill="#63b8ff" stroke="#63b8ff" points="975.62,-317.23 985.6,-313.67 975.57,-310.23 975.62,-317.23"/>
</g>
<!-- Node25&#45;&gt;Node11 -->
<g id="edge31" class="edge">
<title>Node25&#45;&gt;Node11</title>
<path fill="none" stroke="#63b8ff" d="M977.03,-301.64C971.1,-298.43 965.44,-294.43 961,-289.5 928.01,-252.82 961.5,-217.69 925,-184.5 913.9,-174.41 898.16,-169.7 883.96,-167.6"/>
<polygon fill="#63b8ff" stroke="#63b8ff" points="975.2,-304.65 985.74,-305.7 978.15,-298.31 975.2,-304.65"/>
</g>
<!-- Node25&#45;&gt;Node20 -->
<g id="edge32" class="edge">
<title>Node25&#45;&gt;Node20</title>
<path fill="none" stroke="#63b8ff" d="M976.19,-305.46C948.21,-299.26 909.85,-290.76 882.79,-284.76"/>
<polygon fill="#63b8ff" stroke="#63b8ff" points="975.11,-308.8 985.63,-307.55 976.63,-301.97 975.11,-308.8"/>
</g>
<!-- Node25&#45;&gt;Node22 -->
<g id="edge34" class="edge">
<title>Node25&#45;&gt;Node22</title>
<path fill="none" stroke="#63b8ff" d="M976.03,-322.03C949.58,-328.21 913.92,-336.55 887.28,-342.78"/>
<polygon fill="#63b8ff" stroke="#63b8ff" points="976.7,-325.47 985.64,-319.78 975.1,-318.65 976.7,-325.47"/>
</g>
<!-- Node26 -->
<g id="node26" class="node">
<title>Node26</title>
<g id="a_node26"><a xlink:href="ModelExchange_8h.html#ac36bdea2efcd030a336293af16f5dc09" target="_top" xlink:title=" ">
<polygon fill="white" stroke="#666666" points="891.5,-213 806.5,-213 806.5,-194 891.5,-194 891.5,-213"/>
<text text-anchor="middle" x="849" y="-201" font-family="Helvetica,sans-Serif" font-size="10.00">ShowRemoteID</text>
</a>
</g>
</g>
<!-- Node25&#45;&gt;Node26 -->
<g id="edge33" class="edge">
<title>Node25&#45;&gt;Node26</title>
<path fill="none" stroke="#63b8ff" d="M976.87,-300.64C971.15,-297.57 965.6,-293.87 961,-289.5 936.21,-265.94 952.02,-242.46 925,-221.5 915.48,-214.11 903.38,-209.7 891.7,-207.07"/>
<polygon fill="#63b8ff" stroke="#63b8ff" points="975.29,-303.77 985.83,-304.88 978.28,-297.44 975.29,-303.77"/>
</g>
<!-- Node27 -->
<g id="node27" class="node">
<title>Node27</title>
<g id="a_node27"><a xlink:href="TransmitterCode_2src_2main_8cpp.html#a7d321cdde32c31b15ca1080fda6743c8" target="_top" xlink:title=" ">
<polygon fill="white" stroke="#666666" points="925,-250 773,-250 773,-231 925,-231 925,-250"/>
<text text-anchor="middle" x="849" y="-238" font-family="Helvetica,sans-Serif" font-size="10.00">WarnUserOfVersionsMismatch</text>
</a>
</g>
</g>
<!-- Node25&#45;&gt;Node27 -->
<g id="edge35" class="edge">
<title>Node25&#45;&gt;Node27</title>
<path fill="none" stroke="#63b8ff" d="M977.59,-298.83C971.9,-295.99 966.18,-292.85 961,-289.5 943.26,-278.04 943.79,-268.12 925,-258.5 918.68,-255.27 911.77,-252.6 904.77,-250.4"/>
<polygon fill="#63b8ff" stroke="#63b8ff" points="975.76,-301.83 986.3,-302.94 978.75,-295.51 975.76,-301.83"/>
</g>
<!-- Node28 -->
<g id="node28" class="node">
<title>Node28</title>
<g id="a_node28"><a xlink:href="TransmitterCode_2src_2main_8cpp.html#ad496cd10d726d7c5757d01a922c2aa25" target="_top" xlink:title=" ">
<polygon fill="white" stroke="#666666" points="737,-241 609,-241 609,-222 737,-222 737,-241"/>
<text text-anchor="middle" x="673" y="-229" font-family="Helvetica,sans-Serif" font-size="10.00">CompareVersionNumbers</text>
</a>
</g>
</g>
<!-- Node27&#45;&gt;Node28 -->
<g id="edge36" class="edge">
<title>Node27&#45;&gt;Node28</title>
<path fill="none" stroke="#63b8ff" d="M761.34,-236.02C753.28,-235.6 745.22,-235.18 737.43,-234.78"/>
<polygon fill="#63b8ff" stroke="#63b8ff" points="761.01,-239.51 771.18,-236.53 761.38,-232.51 761.01,-239.51"/>
</g>
<!-- Node29 -->
<g id="node29" class="node">
<title>Node29</title>
<g id="a_node29"><a xlink:href="TransmitterCode_2src_2main_8cpp.html#a4f813935d8fe58355228cbbf25e12f96" target="_top" xlink:title=" ">
<polygon fill="white" stroke="#666666" points="570,-236 457,-236 457,-217 570,-217 570,-236"/>
<text text-anchor="middle" x="513.5" y="-224" font-family="Helvetica,sans-Serif" font-size="10.00">GetRXVersionNumber</text>
</a>
</g>
</g>
<!-- Node28&#45;&gt;Node29 -->
<g id="edge37" class="edge">
<title>Node28&#45;&gt;Node29</title>
<path fill="none" stroke="#63b8ff" d="M597.38,-229.13C588.26,-228.84 579.07,-228.55 570.3,-228.27"/>
<polygon fill="#63b8ff" stroke="#63b8ff" points="597.23,-232.63 607.33,-229.45 597.45,-225.63 597.23,-232.63"/>
</g>
<!-- Node29&#45;&gt;Node14 -->
<g id="edge38" class="edge">
<title>Node29&#45;&gt;Node14</title>
<path fill="none" stroke="#63b8ff" d="M445.45,-217.33C431.97,-215.48 418.07,-213.58 405.47,-211.86"/>
<polygon fill="#63b8ff" stroke="#63b8ff" points="444.77,-220.77 455.15,-218.65 445.72,-213.83 444.77,-220.77"/>
</g>
<!-- Node30&#45;&gt;Node3 -->
<g id="edge41" class="edge">
<title>Node30&#45;&gt;Node3</title>
<path fill="none" stroke="#63b8ff" d="M1628.54,-312.9C1613.33,-330.76 1587.67,-356.94 1559,-369.5 1509.38,-391.25 1446.69,-394.26 1403.79,-393.09"/>
<polygon fill="#63b8ff" stroke="#63b8ff" points="1630.88,-315.56 1634.53,-305.61 1625.48,-311.11 1630.88,-315.56"/>
</g>
<!-- Node30&#45;&gt;Node11 -->
<g id="edge47" class="edge">
<title>Node30&#45;&gt;Node11</title>
<path fill="none" stroke="#63b8ff" d="M1600.28,-279.34C1598.43,-278.14 1596.66,-276.87 1595,-275.5 1572.15,-256.71 1584.25,-234.92 1559,-219.5 1480.88,-171.78 1445.54,-199.5 1354,-199.5 1354,-199.5 1354,-199.5 1174,-199.5 1067.7,-199.5 942.79,-181.7 883.94,-172.25"/>
<polygon fill="#63b8ff" stroke="#63b8ff" points="1598.19,-282.18 1608.65,-283.89 1601.54,-276.04 1598.19,-282.18"/>
</g>
<!-- Node30&#45;&gt;Node12 -->
<g id="edge46" class="edge">
<title>Node30&#45;&gt;Node12</title>
<path fill="none" stroke="#63b8ff" d="M1597.68,-278.15C1596.74,-277.31 1595.84,-276.43 1595,-275.5 1556.14,-232.7 1604.07,-186.7 1559,-150.5 1503.97,-106.3 995.55,-112.72 925,-110.5 857.48,-108.37 838.33,-93.3 773,-110.5 739.01,-119.45 704.42,-143.03 686.5,-156.56"/>
<polygon fill="#63b8ff" stroke="#63b8ff" points="1595.6,-280.97 1605.82,-283.77 1599.58,-275.21 1595.6,-280.97"/>
</g>
<!-- Node30&#45;&gt;Node18 -->
<g id="edge64" class="edge">
<title>Node30&#45;&gt;Node18</title>
<path fill="none" stroke="#63b8ff" d="M1598.29,-278.42C1597.14,-277.5 1596.04,-276.53 1595,-275.5 1564.95,-245.79 1592.53,-213.22 1559,-187.5 1486.13,-131.6 1445.84,-161.5 1354,-161.5 1354,-161.5 1354,-161.5 1174,-161.5 1071.13,-161.5 950.77,-145.33 889.78,-135.98"/>
<polygon fill="#63b8ff" stroke="#63b8ff" points="1596.32,-281.31 1606.63,-283.73 1600.07,-275.41 1596.32,-281.31"/>
</g>
<!-- Node30&#45;&gt;Node19 -->
<g id="edge65" class="edge">
<title>Node30&#45;&gt;Node19</title>
<path fill="none" stroke="#63b8ff" d="M1635.52,-314.7C1613.3,-371.42 1541.68,-532.18 1422,-596.5 1243.47,-692.45 986.25,-646.91 889.12,-624.45"/>
<polygon fill="#63b8ff" stroke="#63b8ff" points="1638.68,-316.25 1638.97,-305.66 1632.14,-313.75 1638.68,-316.25"/>
</g>
<!-- Node31 -->
<g id="node31" class="node">
<title>Node31</title>
<g id="a_node31"><a xlink:href="TransmitterCode_2src_2main_8cpp.html#a6a25e5ab5c13c780c12cdd6fe0a85049" target="_top" xlink:title=" ">
<polygon fill="white" stroke="#666666" points="1556,-248 1461,-248 1461,-229 1556,-229 1556,-248"/>
<text text-anchor="middle" x="1508.5" y="-236" font-family="Helvetica,sans-Serif" font-size="10.00">CheckAllModelIds</text>
</a>
</g>
</g>
<!-- Node30&#45;&gt;Node31 -->
<g id="edge42" class="edge">
<title>Node30&#45;&gt;Node31</title>
<path fill="none" stroke="#63b8ff" d="M1605.96,-280.31C1602.23,-278.74 1598.53,-277.12 1595,-275.5 1578.56,-267.94 1575.54,-263.83 1559,-256.5 1552.56,-253.65 1545.52,-250.88 1538.82,-248.41"/>
<polygon fill="#63b8ff" stroke="#63b8ff" points="1604.39,-283.45 1614.97,-283.98 1607.04,-276.97 1604.39,-283.45"/>
</g>
<!-- Node32 -->
<g id="node32" class="node">
<title>Node32</title>
<g id="a_node32"><a xlink:href="TransmitterCode_2src_2main_8cpp.html#a5c0f1fd26cdd6ecde365f521060158ba" target="_top" xlink:title=" ">
<polygon fill="white" stroke="#666666" points="1557,-95 1460,-95 1460,-76 1557,-76 1557,-95"/>
<text text-anchor="middle" x="1508.5" y="-83" font-family="Helvetica,sans-Serif" font-size="10.00">CheckModelName</text>
</a>
</g>
</g>
<!-- Node30&#45;&gt;Node32 -->
<g id="edge43" class="edge">
<title>Node30&#45;&gt;Node32</title>
<path fill="none" stroke="#63b8ff" d="M1597.17,-277.82C1596.41,-277.08 1595.69,-276.31 1595,-275.5 1546.15,-217.94 1605.67,-168.84 1559,-109.5 1554.28,-103.49 1547.67,-98.9 1540.82,-95.42"/>
<polygon fill="#63b8ff" stroke="#63b8ff" points="1595,-280.58 1605.14,-283.68 1599.15,-274.93 1595,-280.58"/>
</g>
<!-- Node34 -->
<g id="node34" class="node">
<title>Node34</title>
<g id="a_node34"><a xlink:href="TransmitterCode_2src_2main_8cpp.html#a909acb7ed667a5cc9c4ec6191fc33e75" target="_top" xlink:title=" ">
<polygon fill="white" stroke="#666666" points="1558.5,-285 1458.5,-285 1458.5,-266 1558.5,-266 1558.5,-285"/>
<text text-anchor="middle" x="1508.5" y="-273" font-family="Helvetica,sans-Serif" font-size="10.00">LoadAllParameters</text>
</a>
</g>
</g>
<!-- Node30&#45;&gt;Node34 -->
<g id="edge48" class="edge">
<title>Node30&#45;&gt;Node34</title>
<path fill="none" stroke="#63b8ff" d="M1591.03,-287.1C1580.49,-285.6 1569.42,-284.03 1558.97,-282.54"/>
<polygon fill="#63b8ff" stroke="#63b8ff" points="1590.33,-290.54 1600.72,-288.48 1591.31,-283.61 1590.33,-290.54"/>
</g>
<!-- Node36 -->
<g id="node36" class="node">
<title>Node36</title>
<g id="a_node36"><a xlink:href="BuddyWireless_8h.html#ab0ba1642fb6c43525579b989c7b60dad" target="_top" xlink:title=" ">
<polygon fill="white" stroke="#666666" points="1556.5,-39 1460.5,-39 1460.5,-20 1556.5,-20 1556.5,-39"/>
<text text-anchor="middle" x="1508.5" y="-27" font-family="Helvetica,sans-Serif" font-size="10.00">LoadCorrectModel</text>
</a>
</g>
</g>
<!-- Node30&#45;&gt;Node36 -->
<g id="edge51" class="edge">
<title>Node30&#45;&gt;Node36</title>
<path fill="none" stroke="#63b8ff" d="M1597.12,-277.86C1596.38,-277.11 1595.67,-276.32 1595,-275.5 1535.57,-202.34 1608.25,-146.87 1559,-66.5 1551.82,-54.79 1539.45,-45.54 1528.87,-39.22"/>
<polygon fill="#63b8ff" stroke="#63b8ff" points="1594.9,-280.57 1605,-283.79 1599.11,-274.98 1594.9,-280.57"/>
</g>
<!-- Node40 -->
<g id="node40" class="node">
<title>Node40</title>
<g id="a_node40"><a xlink:href="TransmitterCode_2src_2main_8cpp.html#a3707639fbc6c8c053b888cd618869146" target="_top" xlink:title=" ">
<polygon fill="white" stroke="#666666" points="1236,-437 1114,-437 1114,-418 1236,-418 1236,-437"/>
<text text-anchor="middle" x="1175" y="-425" font-family="Helvetica,sans-Serif" font-size="10.00">LoadModelForRenaming</text>
</a>
</g>
</g>
<!-- Node30&#45;&gt;Node40 -->
<g id="edge56" class="edge">
<title>Node30&#45;&gt;Node40</title>
<path fill="none" stroke="#63b8ff" d="M1590.82,-300.82C1519.79,-310.48 1389.43,-331.98 1284,-370.5 1249.35,-383.16 1211.91,-404.94 1191.48,-417.6"/>
<polygon fill="#63b8ff" stroke="#63b8ff" points="1591.17,-304.31 1600.62,-299.52 1590.24,-297.37 1591.17,-304.31"/>
</g>
<!-- Node41 -->
<g id="node41" class="node">
<title>Node41</title>
<g id="a_node41"><a xlink:href="TransmitterCode_2src_2main_8cpp.html#a6684199e9da3ca0bdb0e01260eec7e30" target="_top" xlink:title=" ">
<polygon fill="white" stroke="#666666" points="1559,-361 1458,-361 1458,-342 1559,-342 1559,-361"/>
<text text-anchor="middle" x="1508.5" y="-349" font-family="Helvetica,sans-Serif" font-size="10.00">LoadModelSelector</text>
</a>
</g>
</g>
<!-- Node30&#45;&gt;Node41 -->
<g id="edge58" class="edge">
<title>Node30&#45;&gt;Node41</title>
<path fill="none" stroke="#63b8ff" d="M1609.32,-308.88C1585.3,-319.14 1553.65,-332.65 1532.49,-341.69"/>
<polygon fill="#63b8ff" stroke="#63b8ff" points="1610.53,-312.17 1618.35,-305.02 1607.78,-305.73 1610.53,-312.17"/>
</g>
<!-- Node44 -->
<g id="node44" class="node">
<title>Node44</title>
<g id="a_node44"><a xlink:href="TransmitterCode_2src_2main_8cpp.html#aa1f353c2c61131eeafa77c6e67608e45" target="_top" xlink:title=" ">
<polygon fill="white" stroke="#666666" points="1229,-551 1121,-551 1121,-532 1229,-532 1229,-551"/>
<text text-anchor="middle" x="1175" y="-539" font-family="Helvetica,sans-Serif" font-size="10.00">RestoreCurrentModel</text>
</a>
</g>
</g>
<!-- Node30&#45;&gt;Node44 -->
<g id="edge66" class="edge">
<title>Node30&#45;&gt;Node44</title>
<path fill="none" stroke="#63b8ff" d="M1631.19,-314C1616.71,-336.45 1590.21,-373.1 1559,-395.5 1499.68,-438.09 1289.28,-506.24 1208.19,-531.58"/>
<polygon fill="#63b8ff" stroke="#63b8ff" points="1634.16,-315.86 1636.5,-305.53 1628.23,-312.15 1634.16,-315.86"/>
</g>
<!-- Node32&#45;&gt;Node24 -->
<g id="edge45" class="edge">
<title>Node32&#45;&gt;Node24</title>
<path fill="none" stroke="#63b8ff" d="M1458.75,-73.04C1446.8,-70.44 1434,-68.03 1422,-66.5 1293.84,-50.2 1141.31,-50.03 1064.29,-51.27"/>
<polygon fill="#63b8ff" stroke="#63b8ff" points="1457.88,-76.43 1468.41,-75.23 1459.43,-69.61 1457.88,-76.43"/>
</g>
<!-- Node33 -->
<g id="node33" class="node">
<title>Node33</title>
<g id="a_node33"><a xlink:href="TransmitterCode_2src_2main_8cpp.html#ae267eaa80a4b3eb49ba10a97469eb7e9" target="_top" xlink:title=" ">
<polygon fill="white" stroke="#666666" points="1387.5,-95 1318.5,-95 1318.5,-76 1387.5,-76 1387.5,-95"/>
<text text-anchor="middle" x="1353" y="-83" font-family="Helvetica,sans-Serif" font-size="10.00">DoMFName</text>
</a>
</g>
</g>
<!-- Node32&#45;&gt;Node33 -->
<g id="edge44" class="edge">
<title>Node32&#45;&gt;Node33</title>
<path fill="none" stroke="#63b8ff" d="M1448.53,-85.5C1427.89,-85.5 1405.42,-85.5 1387.58,-85.5"/>
<polygon fill="#63b8ff" stroke="#63b8ff" points="1448.26,-89 1458.26,-85.5 1448.26,-82 1448.26,-89"/>
</g>
<!-- Node34&#45;&gt;Node3 -->
<g id="edge49" class="edge">
<title>Node34&#45;&gt;Node3</title>
<path fill="none" stroke="#63b8ff" d="M1485,-292.21C1452.6,-316.27 1393.81,-359.94 1367.43,-379.52"/>
<polygon fill="#63b8ff" stroke="#63b8ff" points="1486.99,-295.09 1492.93,-286.32 1482.82,-289.47 1486.99,-295.09"/>
</g>
<!-- Node35 -->
<g id="node35" class="node">
<title>Node35</title>
<g id="a_node35"><a xlink:href="TransmitterCode_2src_2main_8cpp.html#a17699f358cf9f7c3155a9c5daf8ff13c" target="_top" xlink:title=" ">
<polygon fill="white" stroke="#666666" points="1373.5,-247 1332.5,-247 1332.5,-228 1373.5,-228 1373.5,-247"/>
<text text-anchor="middle" x="1353" y="-235" font-family="Helvetica,sans-Serif" font-size="10.00">setup</text>
</a>
</g>
</g>
<!-- Node34&#45;&gt;Node35 -->
<g id="edge50" class="edge">
<title>Node34&#45;&gt;Node35</title>
<path fill="none" stroke="#63b8ff" d="M1456.26,-262.81C1428.06,-255.83 1394.69,-247.57 1373.92,-242.43"/>
<polygon fill="#63b8ff" stroke="#63b8ff" points="1455.15,-266.15 1465.7,-265.15 1456.83,-259.35 1455.15,-266.15"/>
</g>
<!-- Node37 -->
<g id="node37" class="node">
<title>Node37</title>
<g id="a_node37"><a xlink:href="BuddyWireless_8h.html#abe67b2cf1cd907bd032ea0a712f1c4cb" target="_top" xlink:title=" ">
<polygon fill="white" stroke="#666666" points="1422,-19 1284,-19 1284,0 1422,0 1422,-19"/>
<text text-anchor="middle" x="1353" y="-7" font-family="Helvetica,sans-Serif" font-size="10.00">CheckModelMatchesMaster</text>
</a>
</g>
</g>
<!-- Node36&#45;&gt;Node37 -->
<g id="edge52" class="edge">
<title>Node36&#45;&gt;Node37</title>
<path fill="none" stroke="#63b8ff" d="M1448.97,-21.87C1440.25,-20.74 1431.21,-19.56 1422.31,-18.4"/>
<polygon fill="#63b8ff" stroke="#63b8ff" points="1448.32,-25.32 1458.69,-23.14 1449.23,-18.38 1448.32,-25.32"/>
</g>
<!-- Node38 -->
<g id="node38" class="node">
<title>Node38</title>
<g id="a_node38"><a xlink:href="BuddyWireless_8h.html#af63784896d400ae2d75d57852e143ca1" target="_top" xlink:title=" ">
<polygon fill="white" stroke="#666666" points="1222.5,-19 1127.5,-19 1127.5,0 1222.5,0 1222.5,-19"/>
<text text-anchor="middle" x="1175" y="-7" font-family="Helvetica,sans-Serif" font-size="10.00">GetSpecialPacket</text>
</a>
</g>
</g>
<!-- Node37&#45;&gt;Node38 -->
<g id="edge53" class="edge">
<title>Node37&#45;&gt;Node38</title>
<path fill="none" stroke="#63b8ff" d="M1272.59,-9.5C1255.56,-9.5 1238.08,-9.5 1222.76,-9.5"/>
<polygon fill="#63b8ff" stroke="#63b8ff" points="1272.19,-13 1282.19,-9.5 1272.19,-6 1272.19,-13"/>
</g>
<!-- Node39 -->
<g id="node39" class="node">
<title>Node39</title>
<g id="a_node39"><a xlink:href="TransmitterCode_2src_2main_8cpp.html#ad2c7ed441d88f2a2b2fca83ff61e714d" target="_top" xlink:title=" ">
<polygon fill="white" stroke="#666666" points="418,-21 298,-21 298,-2 418,-2 418,-21"/>
<text text-anchor="middle" x="358" y="-9" font-family="Helvetica,sans-Serif" font-size="10.00">DoWirelessBuddyListen</text>
</a>
</g>
</g>
<!-- Node38&#45;&gt;Node39 -->
<g id="edge54" class="edge">
<title>Node38&#45;&gt;Node39</title>
<path fill="none" stroke="#63b8ff" d="M1115.85,-9.79C1051,-10.08 943,-10.5 850,-10.5 850,-10.5 850,-10.5 672,-10.5 583.7,-10.5 481.38,-10.9 418.42,-11.2"/>
<polygon fill="#63b8ff" stroke="#63b8ff" points="1115.55,-13.29 1125.54,-9.74 1115.52,-6.29 1115.55,-13.29"/>
</g>
<!-- Node39&#45;&gt;Node17 -->
<g id="edge55" class="edge">
<title>Node39&#45;&gt;Node17</title>
<path fill="none" stroke="#63b8ff" d="M286.46,-14.88C228.3,-18.45 143.83,-25.45 71,-38.5 58.93,-40.66 45.58,-44.24 35.36,-47.24"/>
<polygon fill="#63b8ff" stroke="#63b8ff" points="286.44,-18.39 296.22,-14.3 286.03,-11.4 286.44,-18.39"/>
</g>
<!-- Node40&#45;&gt;Node6 -->
<g id="edge57" class="edge">
<title>Node40&#45;&gt;Node6</title>
<path fill="none" stroke="#63b8ff" d="M1132.81,-440.95C1122.71,-444.33 1111.95,-447.99 1102,-451.5 1022.83,-479.45 1005.15,-492.49 925,-517.5 911.54,-521.7 896.5,-525.65 883.45,-528.85"/>
<polygon fill="#63b8ff" stroke="#63b8ff" points="1133.62,-444.37 1142,-437.9 1131.41,-437.73 1133.62,-444.37"/>
</g>
<!-- Node41&#45;&gt;Node3 -->
<g id="edge59" class="edge">
<title>Node41&#45;&gt;Node3</title>
<path fill="none" stroke="#63b8ff" d="M1456,-364.25C1435.9,-369.23 1413.2,-374.84 1394.33,-379.52"/>
<polygon fill="#63b8ff" stroke="#63b8ff" points="1456.83,-367.65 1465.7,-361.85 1455.15,-360.85 1456.83,-367.65"/>
</g>
<!-- Node41&#45;&gt;Node11 -->
<g id="edge63" class="edge">
<title>Node41&#45;&gt;Node11</title>
<path fill="none" stroke="#63b8ff" d="M1452.41,-339C1322.65,-309.36 1005.41,-235.66 961,-213.5 942.62,-204.33 943.44,-193.56 925,-184.5 912.26,-178.24 897.21,-174.08 883.95,-171.35"/>
<polygon fill="#63b8ff" stroke="#63b8ff" points="1451.62,-342.41 1462.15,-341.22 1453.18,-335.59 1451.62,-342.41"/>
</g>
<!-- Node42 -->
<g id="node42" class="node">
<title>Node42</title>
<g id="a_node42"><a xlink:href="TransmitterCode_2src_2main_8cpp.html#a446a94169d966af920710f7acddc5257" target="_top" xlink:title=" ">
<polygon fill="white" stroke="#666666" points="1398.5,-588 1307.5,-588 1307.5,-569 1398.5,-569 1398.5,-588"/>
<text text-anchor="middle" x="1353" y="-576" font-family="Helvetica,sans-Serif" font-size="10.00">GotoModelsView</text>
</a>
</g>
</g>
<!-- Node41&#45;&gt;Node42 -->
<g id="edge60" class="edge">
<title>Node41&#45;&gt;Node42</title>
<path fill="none" stroke="#63b8ff" d="M1494.49,-370.73C1463.15,-417.09 1384.3,-533.7 1360.74,-568.53"/>
<polygon fill="#63b8ff" stroke="#63b8ff" points="1497.35,-372.75 1500.06,-362.51 1491.56,-368.83 1497.35,-372.75"/>
</g>
<!-- Node42&#45;&gt;Node19 -->
<g id="edge62" class="edge">
<title>Node42&#45;&gt;Node19</title>
<path fill="none" stroke="#63b8ff" d="M1296.11,-589.51C1280.58,-592.2 1263.68,-594.79 1248,-596.5 1121.3,-610.27 970.81,-613.54 896.41,-614.3"/>
<polygon fill="#63b8ff" stroke="#63b8ff" points="1296.41,-593.01 1305.64,-587.81 1295.18,-586.12 1296.41,-593.01"/>
</g>
<!-- Node43 -->
<g id="node43" class="node">
<title>Node43</title>
<g id="a_node43"><a xlink:href="TransmitterCode_2src_2main_8cpp.html#a7af8e147bab19bdc499ffef595d30aae" target="_top" xlink:title=" ">
<polygon fill="white" stroke="#666666" points="1222.5,-588 1127.5,-588 1127.5,-569 1222.5,-569 1222.5,-588"/>
<text text-anchor="middle" x="1175" y="-576" font-family="Helvetica,sans-Serif" font-size="10.00">EndRenameModel</text>
</a>
</g>
</g>
<!-- Node42&#45;&gt;Node43 -->
<g id="edge61" class="edge">
<title>Node42&#45;&gt;Node43</title>
<path fill="none" stroke="#63b8ff" d="M1295.91,-578.5C1272.4,-578.5 1245.37,-578.5 1222.94,-578.5"/>
<polygon fill="#63b8ff" stroke="#63b8ff" points="1295.62,-582 1305.62,-578.5 1295.62,-575 1295.62,-582"/>
</g>
<!-- Node44&#45;&gt;Node6 -->
<g id="edge67" class="edge">
<title>Node44&#45;&gt;Node6</title>
<path fill="none" stroke="#63b8ff" d="M1109.41,-540.5C1041.24,-539.45 936.46,-537.83 883.34,-537.01"/>
<polygon fill="#63b8ff" stroke="#63b8ff" points="1109.29,-544 1119.35,-540.66 1109.4,-537 1109.29,-544"/>
</g>
<!-- Node45&#45;&gt;Node3 -->
<g id="edge69" class="edge">
<title>Node45&#45;&gt;Node3</title>
<path fill="none" stroke="#63b8ff" d="M1607.51,-489.5C1548.33,-466.15 1430.87,-419.82 1379.29,-399.48"/>
<polygon fill="#63b8ff" stroke="#63b8ff" points="1605.86,-492.61 1616.45,-493.03 1608.43,-486.1 1605.86,-492.61"/>
</g>
</g>
</svg>
