<?xml version="1.0" encoding="UTF-8" standalone="no"?>
<!DOCTYPE svg PUBLIC "-//W3C//DTD SVG 1.1//EN"
 "http://www.w3.org/Graphics/SVG/1.1/DTD/svg11.dtd">
<!-- Generated by graphviz version 7.0.5 (20221223.1930)
 -->
<!-- Title: UpdateTrimView Pages: 1 -->
<svg width="885pt" height="1293pt"
 viewBox="0.00 0.00 885.00 1293.00" xmlns="http://www.w3.org/2000/svg" xmlns:xlink="http://www.w3.org/1999/xlink">
<g id="graph0" class="graph" transform="scale(1 1) rotate(0) translate(4 1289)">
<title>UpdateTrimView</title>
<!-- Node1 -->
<g id="node1" class="node">
<title>Node1</title>
<g id="a_node1"><a xlink:title=" ">
<polygon fill="#999999" stroke="#666666" points="877,-1081 788,-1081 788,-1062 877,-1062 877,-1081"/>
<text text-anchor="middle" x="832.5" y="-1069" font-family="Helvetica,sans-Serif" font-size="10.00">UpdateTrimView</text>
</a>
</g>
</g>
<!-- Node2 -->
<g id="node2" class="node">
<title>Node2</title>
<g id="a_node2"><a xlink:href="TransmitterCode_2src_2main_8cpp.html#ae4be4bb0e33569d140264079d28227fd" target="_top" xlink:title=" ">
<polygon fill="white" stroke="#666666" points="699.5,-1081 646.5,-1081 646.5,-1062 699.5,-1062 699.5,-1081"/>
<text text-anchor="middle" x="673" y="-1069" font-family="Helvetica,sans-Serif" font-size="10.00">DecTrim</text>
</a>
</g>
</g>
<!-- Node1&#45;&gt;Node2 -->
<g id="edge1" class="edge">
<title>Node1&#45;&gt;Node2</title>
<path fill="none" stroke="#63b8ff" d="M776.38,-1071.5C750.4,-1071.5 720.64,-1071.5 699.93,-1071.5"/>
<polygon fill="#63b8ff" stroke="#63b8ff" points="776.11,-1075 786.11,-1071.5 776.11,-1068 776.11,-1075"/>
</g>
<!-- Node15 -->
<g id="node14" class="node">
<title>Node15</title>
<g id="a_node14"><a xlink:href="TransmitterCode_2src_2main_8cpp.html#a6e96b79e1edc864e742216a05c7c3622" target="_top" xlink:title=" ">
<polygon fill="white" stroke="#666666" points="698,-1118 648,-1118 648,-1099 698,-1099 698,-1118"/>
<text text-anchor="middle" x="673" y="-1106" font-family="Helvetica,sans-Serif" font-size="10.00">IncTrim</text>
</a>
</g>
</g>
<!-- Node1&#45;&gt;Node15 -->
<g id="edge13" class="edge">
<title>Node1&#45;&gt;Node15</title>
<path fill="none" stroke="#63b8ff" d="M778.36,-1083.98C751.19,-1090.37 719.46,-1097.82 698.18,-1102.82"/>
<polygon fill="#63b8ff" stroke="#63b8ff" points="778.88,-1087.46 787.82,-1081.76 777.28,-1080.64 778.88,-1087.46"/>
</g>
<!-- Node16 -->
<g id="node15" class="node">
<title>Node16</title>
<g id="a_node15"><a xlink:href="TransmitterCode_2src_2main_8cpp.html#a9e1de754e1d2d483fb15957f70cf0488" target="_top" xlink:title=" ">
<polygon fill="white" stroke="#666666" points="752,-500 594,-500 594,-481 752,-481 752,-500"/>
<text text-anchor="middle" x="673" y="-488" font-family="Helvetica,sans-Serif" font-size="10.00">UpdateModelsNameEveryWhere</text>
</a>
</g>
</g>
<!-- Node1&#45;&gt;Node16 -->
<g id="edge15" class="edge">
<title>Node1&#45;&gt;Node16</title>
<path fill="none" stroke="#63b8ff" d="M825.89,-1050.79C800.27,-956.3 694.94,-567.73 676.7,-500.45"/>
<polygon fill="#63b8ff" stroke="#63b8ff" points="822.51,-1051.7 828.5,-1060.44 829.26,-1049.87 822.51,-1051.7"/>
</g>
<!-- Node3 -->
<g id="node3" class="node">
<title>Node3</title>
<g id="a_node3"><a xlink:href="TransmitterCode_2src_2main_8cpp.html#a17123a117a96a9416dec48d9345f8a5b" target="_top" xlink:title=" ">
<polygon fill="white" stroke="#666666" points="542,-1118 477,-1118 477,-1099 542,-1099 542,-1118"/>
<text text-anchor="middle" x="509.5" y="-1106" font-family="Helvetica,sans-Serif" font-size="10.00">MoveaTrim</text>
</a>
</g>
</g>
<!-- Node2&#45;&gt;Node3 -->
<g id="edge2" class="edge">
<title>Node2&#45;&gt;Node3</title>
<path fill="none" stroke="#63b8ff" d="M635.13,-1079.95C607.19,-1086.35 569.17,-1095.06 542.5,-1101.17"/>
<polygon fill="#63b8ff" stroke="#63b8ff" points="635.61,-1083.43 644.58,-1077.78 634.05,-1076.6 635.61,-1083.43"/>
</g>
<!-- Node4 -->
<g id="node4" class="node">
<title>Node4</title>
<g id="a_node4"><a xlink:href="TransmitterCode_2src_2main_8cpp.html#a71f72bed656884a7e88b70f73f8d81a4" target="_top" xlink:title=" ">
<polygon fill="white" stroke="#666666" points="413.5,-1211 330.5,-1211 330.5,-1192 413.5,-1192 413.5,-1211"/>
<text text-anchor="middle" x="372" y="-1199" font-family="Helvetica,sans-Serif" font-size="10.00">AileronLeftTrim</text>
</a>
</g>
</g>
<!-- Node3&#45;&gt;Node4 -->
<g id="edge3" class="edge">
<title>Node3&#45;&gt;Node4</title>
<path fill="none" stroke="#63b8ff" d="M491.88,-1126.71C476.04,-1143.16 450.83,-1167.1 425,-1182.5 419.14,-1186 412.53,-1189.01 406.04,-1191.55"/>
<polygon fill="#63b8ff" stroke="#63b8ff" points="494.32,-1129.22 498.63,-1119.54 489.23,-1124.42 494.32,-1129.22"/>
</g>
<!-- Node5 -->
<g id="node5" class="node">
<title>Node5</title>
<g id="a_node5"><a xlink:href="TransmitterCode_2src_2main_8cpp.html#ae734c00c145b79aa75e175155f8dd4a7" target="_top" xlink:title=" ">
<polygon fill="white" stroke="#666666" points="416.5,-1174 327.5,-1174 327.5,-1155 416.5,-1155 416.5,-1174"/>
<text text-anchor="middle" x="372" y="-1162" font-family="Helvetica,sans-Serif" font-size="10.00">AileronRightTrim</text>
</a>
</g>
</g>
<!-- Node3&#45;&gt;Node5 -->
<g id="edge4" class="edge">
<title>Node3&#45;&gt;Node5</title>
<path fill="none" stroke="#63b8ff" d="M476.92,-1123.09C461.38,-1130.11 442.32,-1138.51 425,-1145.5 417.34,-1148.59 408.95,-1151.75 401.2,-1154.59"/>
<polygon fill="#63b8ff" stroke="#63b8ff" points="478.01,-1126.44 485.67,-1119.11 475.11,-1120.07 478.01,-1126.44"/>
</g>
<!-- Node6 -->
<g id="node6" class="node">
<title>Node6</title>
<g id="a_node6"><a xlink:href="TransmitterCode_2src_2main_8cpp.html#add643409678258cabdb0aa1ae76d802a" target="_top" xlink:title=" ">
<polygon fill="white" stroke="#666666" points="265.5,-982 154.5,-982 154.5,-963 265.5,-963 265.5,-982"/>
<text text-anchor="middle" x="210" y="-970" font-family="Helvetica,sans-Serif" font-size="10.00">CheckHardwareTrims</text>
</a>
</g>
</g>
<!-- Node3&#45;&gt;Node6 -->
<g id="edge5" class="edge">
<title>Node3&#45;&gt;Node6</title>
<path fill="none" stroke="#63b8ff" d="M499.72,-1088.54C487.21,-1062.71 461.62,-1018.52 425,-997.5 376.34,-969.57 311.23,-965.79 265.66,-967.44"/>
<polygon fill="#63b8ff" stroke="#63b8ff" points="496.4,-1089.7 503.78,-1097.3 502.75,-1086.75 496.4,-1089.7"/>
</g>
<!-- Node9 -->
<g id="node8" class="node">
<title>Node9</title>
<g id="a_node8"><a xlink:href="TransmitterCode_2src_2main_8cpp.html#a84a0468d2a49718c86cfad2b845abd62" target="_top" xlink:title=" ">
<polygon fill="white" stroke="#666666" points="420,-1137 324,-1137 324,-1118 420,-1118 420,-1137"/>
<text text-anchor="middle" x="372" y="-1125" font-family="Helvetica,sans-Serif" font-size="10.00">ElevatorDownTrim</text>
</a>
</g>
</g>
<!-- Node3&#45;&gt;Node9 -->
<g id="edge7" class="edge">
<title>Node3&#45;&gt;Node9</title>
<path fill="none" stroke="#63b8ff" d="M465.59,-1114.52C451.16,-1116.54 434.99,-1118.81 420.24,-1120.88"/>
<polygon fill="#63b8ff" stroke="#63b8ff" points="465.82,-1118.02 475.23,-1113.16 464.84,-1111.09 465.82,-1118.02"/>
</g>
<!-- Node10 -->
<g id="node9" class="node">
<title>Node10</title>
<g id="a_node9"><a xlink:href="TransmitterCode_2src_2main_8cpp.html#a01241a41f1b1e25cbe93e068dd3d063b" target="_top" xlink:title=" ">
<polygon fill="white" stroke="#666666" points="414,-1100 330,-1100 330,-1081 414,-1081 414,-1100"/>
<text text-anchor="middle" x="372" y="-1088" font-family="Helvetica,sans-Serif" font-size="10.00">ElevatorUpTrim</text>
</a>
</g>
</g>
<!-- Node3&#45;&gt;Node10 -->
<g id="edge8" class="edge">
<title>Node3&#45;&gt;Node10</title>
<path fill="none" stroke="#63b8ff" d="M465.78,-1102.82C449.35,-1100.64 430.63,-1098.16 414.33,-1095.99"/>
<polygon fill="#63b8ff" stroke="#63b8ff" points="464.86,-1106.23 475.23,-1104.08 465.78,-1099.29 464.86,-1106.23"/>
</g>
<!-- Node11 -->
<g id="node10" class="node">
<title>Node11</title>
<g id="a_node10"><a xlink:href="TransmitterCode_2src_2main_8cpp.html#ae96314eac241d2716e7ebda1fc658ec4" target="_top" xlink:title=" ">
<polygon fill="white" stroke="#666666" points="414,-1063 330,-1063 330,-1044 414,-1044 414,-1063"/>
<text text-anchor="middle" x="372" y="-1051" font-family="Helvetica,sans-Serif" font-size="10.00">RudderLeftTrim</text>
</a>
</g>
</g>
<!-- Node3&#45;&gt;Node11 -->
<g id="edge9" class="edge">
<title>Node3&#45;&gt;Node11</title>
<path fill="none" stroke="#63b8ff" d="M477.29,-1093.93C461.71,-1086.84 442.5,-1078.39 425,-1071.5 417.98,-1068.73 410.34,-1065.96 403.13,-1063.45"/>
<polygon fill="#63b8ff" stroke="#63b8ff" points="475.5,-1096.96 486.05,-1097.94 478.42,-1090.59 475.5,-1096.96"/>
</g>
<!-- Node12 -->
<g id="node11" class="node">
<title>Node12</title>
<g id="a_node11"><a xlink:href="TransmitterCode_2src_2main_8cpp.html#a77a49849e3aa20dc1aadce0fe00de798" target="_top" xlink:title=" ">
<polygon fill="white" stroke="#666666" points="416.5,-1026 327.5,-1026 327.5,-1007 416.5,-1007 416.5,-1026"/>
<text text-anchor="middle" x="372" y="-1014" font-family="Helvetica,sans-Serif" font-size="10.00">RudderRightTrim</text>
</a>
</g>
</g>
<!-- Node3&#45;&gt;Node12 -->
<g id="edge10" class="edge">
<title>Node3&#45;&gt;Node12</title>
<path fill="none" stroke="#63b8ff" d="M491.94,-1090.19C476.14,-1073.67 450.96,-1049.68 425,-1034.5 419.72,-1031.41 413.83,-1028.74 407.97,-1026.48"/>
<polygon fill="#63b8ff" stroke="#63b8ff" points="489.29,-1092.47 498.67,-1097.4 494.4,-1087.7 489.29,-1092.47"/>
</g>
<!-- Node13 -->
<g id="node12" class="node">
<title>Node13</title>
<g id="a_node12"><a xlink:href="TransmitterCode_2src_2main_8cpp.html#a4f13231fd2e430935dbee50a83078018" target="_top" xlink:title=" ">
<polygon fill="white" stroke="#666666" points="419,-1285 325,-1285 325,-1266 419,-1266 419,-1285"/>
<text text-anchor="middle" x="372" y="-1273" font-family="Helvetica,sans-Serif" font-size="10.00">ThrottleDownTrim</text>
</a>
</g>
</g>
<!-- Node3&#45;&gt;Node13 -->
<g id="edge11" class="edge">
<title>Node3&#45;&gt;Node13</title>
<path fill="none" stroke="#63b8ff" d="M502.14,-1128.93C491.29,-1160.58 466.29,-1221.46 425,-1256.5 420.68,-1260.17 415.58,-1263.16 410.31,-1265.58"/>
<polygon fill="#63b8ff" stroke="#63b8ff" points="505.35,-1130.38 505.14,-1119.79 498.7,-1128.2 505.35,-1130.38"/>
</g>
<!-- Node14 -->
<g id="node13" class="node">
<title>Node14</title>
<g id="a_node13"><a xlink:href="TransmitterCode_2src_2main_8cpp.html#abe827a1e4c23eb79d1771da1e9393178" target="_top" xlink:title=" ">
<polygon fill="white" stroke="#666666" points="413,-1248 331,-1248 331,-1229 413,-1229 413,-1248"/>
<text text-anchor="middle" x="372" y="-1236" font-family="Helvetica,sans-Serif" font-size="10.00">ThrottleUpTrim</text>
</a>
</g>
</g>
<!-- Node3&#45;&gt;Node14 -->
<g id="edge12" class="edge">
<title>Node3&#45;&gt;Node14</title>
<path fill="none" stroke="#63b8ff" d="M498.33,-1128.29C484.73,-1152.9 458.43,-1194.71 425,-1219.5 420.14,-1223.11 414.52,-1226.09 408.81,-1228.54"/>
<polygon fill="#63b8ff" stroke="#63b8ff" points="501.32,-1130.11 502.94,-1119.64 495.14,-1126.81 501.32,-1130.11"/>
</g>
<!-- Node7 -->
<g id="node7" class="node">
<title>Node7</title>
<g id="a_node7"><a xlink:href="TransmitterCode_2src_2main_8cpp.html#a558ea014e230b7caa54ce5a37ad29b22" target="_top" xlink:title=" ">
<polygon fill="#fff0f0" stroke="red" points="101,-842 0,-842 0,-823 101,-823 101,-842"/>
<text text-anchor="middle" x="50.5" y="-830" font-family="Helvetica,sans-Serif" font-size="10.00">ManageTransmitter</text>
</a>
</g>
</g>
<!-- Node6&#45;&gt;Node7 -->
<g id="edge6" class="edge">
<title>Node6&#45;&gt;Node7</title>
<path fill="none" stroke="#63b8ff" d="M163.09,-958.27C153.96,-954.3 144.8,-949.41 137,-943.5 98.43,-914.26 68.16,-863.4 56.59,-842.21"/>
<polygon fill="#63b8ff" stroke="#63b8ff" points="161.72,-961.49 172.3,-961.96 164.32,-955 161.72,-961.49"/>
</g>
<!-- Node15&#45;&gt;Node3 -->
<g id="edge14" class="edge">
<title>Node15&#45;&gt;Node3</title>
<path fill="none" stroke="#63b8ff" d="M636.5,-1108.5C608.39,-1108.5 569.48,-1108.5 542.36,-1108.5"/>
<polygon fill="#63b8ff" stroke="#63b8ff" points="636.31,-1112 646.31,-1108.5 636.31,-1105 636.31,-1112"/>
</g>
<!-- Node17 -->
<g id="node16" class="node">
<title>Node17</title>
<g id="a_node16"><a xlink:href="TransmitterCode_2src_2main_8cpp.html#a804fdbdd5eab4c596bbe8a23eecbe4d5" target="_top" xlink:title=" ">
<polygon fill="white" stroke="#666666" points="422.5,-800 321.5,-800 321.5,-781 422.5,-781 422.5,-800"/>
<text text-anchor="middle" x="372" y="-788" font-family="Helvetica,sans-Serif" font-size="10.00">ButtonWasPressed</text>
</a>
</g>
</g>
<!-- Node16&#45;&gt;Node17 -->
<g id="edge16" class="edge">
<title>Node16&#45;&gt;Node17</title>
<path fill="none" stroke="#63b8ff" d="M665.48,-511.4C651.84,-551.97 616.6,-642 558,-694.5 523.14,-725.73 499.82,-709.36 461,-735.5 442.23,-748.14 444.08,-759.33 425,-771.5 419.41,-775.07 413.05,-778.09 406.75,-780.61"/>
<polygon fill="#63b8ff" stroke="#63b8ff" points="668.8,-512.52 668.56,-501.93 662.14,-510.36 668.8,-512.52"/>
</g>
<!-- Node28 -->
<g id="node19" class="node">
<title>Node28</title>
<g id="a_node19"><a xlink:href="TransmitterCode_2src_2main_8cpp.html#a984cb52354a84c45e9e41f396a1c5e92" target="_top" xlink:title=" ">
<polygon fill="white" stroke="#666666" points="558,-838 461,-838 461,-819 558,-819 558,-838"/>
<text text-anchor="middle" x="509.5" y="-826" font-family="Helvetica,sans-Serif" font-size="10.00">CheckModelName</text>
</a>
</g>
</g>
<!-- Node16&#45;&gt;Node28 -->
<g id="edge20" class="edge">
<title>Node16&#45;&gt;Node28</title>
<path fill="none" stroke="#63b8ff" d="M670.34,-511.54C664.84,-567.54 642.42,-721.88 558,-809.5 554.43,-813.21 550.03,-816.21 545.38,-818.64"/>
<polygon fill="#63b8ff" stroke="#63b8ff" points="673.81,-512.11 671.21,-501.83 666.83,-511.49 673.81,-512.11"/>
</g>
<!-- Node30 -->
<g id="node21" class="node">
<title>Node30</title>
<g id="a_node21"><a xlink:href="TransmitterCode_2src_2main_8cpp.html#af8fe429ceb65bf9d257a2a0f1c63eccb" target="_top" xlink:title=" ">
<polygon fill="white" stroke="#666666" points="423,-763 321,-763 321,-744 423,-744 423,-763"/>
<text text-anchor="middle" x="372" y="-751" font-family="Helvetica,sans-Serif" font-size="10.00">CompareModelsIDs</text>
</a>
</g>
</g>
<!-- Node16&#45;&gt;Node30 -->
<g id="edge22" class="edge">
<title>Node16&#45;&gt;Node30</title>
<path fill="none" stroke="#63b8ff" d="M663.04,-510.36C646.67,-544.71 608.85,-615.65 558,-658.5 521.8,-689 503.09,-680.83 461,-702.5 435.25,-715.76 406.38,-732.96 388.95,-743.61"/>
<polygon fill="#63b8ff" stroke="#63b8ff" points="666.08,-512.12 667.13,-501.58 659.74,-509.17 666.08,-512.12"/>
</g>
<!-- Node85 -->
<g id="node23" class="node">
<title>Node85</title>
<g id="a_node23"><a xlink:href="TransmitterCode_2src_2main_8cpp.html#a175b6111f05e020becf6f4fc8c3e474d" target="_top" xlink:title=" ">
<polygon fill="white" stroke="#666666" points="552,-574 467,-574 467,-555 552,-555 552,-574"/>
<text text-anchor="middle" x="509.5" y="-562" font-family="Helvetica,sans-Serif" font-size="10.00">DefineTrimsEnd</text>
</a>
</g>
</g>
<!-- Node16&#45;&gt;Node85 -->
<g id="edge24" class="edge">
<title>Node16&#45;&gt;Node85</title>
<path fill="none" stroke="#63b8ff" d="M642.34,-505.5C619.48,-516.9 586.99,-532.73 558,-545.5 551.01,-548.58 543.36,-551.73 536.27,-554.57"/>
<polygon fill="#63b8ff" stroke="#63b8ff" points="643.69,-508.74 651.07,-501.13 640.56,-502.48 643.69,-508.74"/>
</g>
<!-- Node89 -->
<g id="node24" class="node">
<title>Node89</title>
<g id="a_node24"><a xlink:href="TransmitterCode_2src_2main_8cpp.html#a6e3590b95598a6cced18d591c2e1879f" target="_top" xlink:title=" ">
<polygon fill="white" stroke="#666666" points="551,-537 468,-537 468,-518 551,-518 551,-537"/>
<text text-anchor="middle" x="509.5" y="-525" font-family="Helvetica,sans-Serif" font-size="10.00">DualRatesStart</text>
</a>
</g>
</g>
<!-- Node16&#45;&gt;Node89 -->
<g id="edge25" class="edge">
<title>Node16&#45;&gt;Node89</title>
<path fill="none" stroke="#63b8ff" d="M617.69,-502.94C596.03,-507.91 571.51,-513.52 551.4,-518.13"/>
<polygon fill="#63b8ff" stroke="#63b8ff" points="618.28,-506.4 627.25,-500.75 616.72,-499.57 618.28,-506.4"/>
</g>
<!-- Node22 -->
<g id="node25" class="node">
<title>Node22</title>
<g id="a_node25"><a xlink:href="TransmitterCode_2src_2main_8cpp.html#a16c65917a148c7f6c17babf11e977b69" target="_top" xlink:title=" ">
<polygon fill="white" stroke="#666666" points="550.5,-500 468.5,-500 468.5,-481 550.5,-481 550.5,-500"/>
<text text-anchor="middle" x="509.5" y="-488" font-family="Helvetica,sans-Serif" font-size="10.00">EndBuddyView</text>
</a>
</g>
</g>
<!-- Node16&#45;&gt;Node22 -->
<g id="edge26" class="edge">
<title>Node16&#45;&gt;Node22</title>
<path fill="none" stroke="#63b8ff" d="M582.19,-490.5C571.27,-490.5 560.58,-490.5 550.92,-490.5"/>
<polygon fill="#63b8ff" stroke="#63b8ff" points="582.1,-494 592.1,-490.5 582.1,-487 582.1,-494"/>
</g>
<!-- Node47 -->
<g id="node26" class="node">
<title>Node47</title>
<g id="a_node26"><a xlink:href="TransmitterCode_2src_2main_8cpp.html#afd3dd964eafc30405e000b03579dd00c" target="_top" xlink:title=" ">
<polygon fill="white" stroke="#666666" points="555,-463 464,-463 464,-444 555,-444 555,-463"/>
<text text-anchor="middle" x="509.5" y="-451" font-family="Helvetica,sans-Serif" font-size="10.00">EndReverseView</text>
</a>
</g>
</g>
<!-- Node16&#45;&gt;Node47 -->
<g id="edge27" class="edge">
<title>Node16&#45;&gt;Node47</title>
<path fill="none" stroke="#63b8ff" d="M617.51,-478.02C596.78,-473.27 573.46,-467.93 553.9,-463.44"/>
<polygon fill="#63b8ff" stroke="#63b8ff" points="616.72,-481.43 627.25,-480.25 618.28,-474.6 616.72,-481.43"/>
</g>
<!-- Node90 -->
<g id="node27" class="node">
<title>Node90</title>
<g id="a_node27"><a xlink:href="TransmitterCode_2src_2main_8cpp.html#a40003084a0136ca08cf8ded75ff4aa4d" target="_top" xlink:title=" ">
<polygon fill="white" stroke="#666666" points="555.5,-426 463.5,-426 463.5,-407 555.5,-407 555.5,-426"/>
<text text-anchor="middle" x="509.5" y="-414" font-family="Helvetica,sans-Serif" font-size="10.00">EndSubTrimView</text>
</a>
</g>
</g>
<!-- Node16&#45;&gt;Node90 -->
<g id="edge28" class="edge">
<title>Node16&#45;&gt;Node90</title>
<path fill="none" stroke="#63b8ff" d="M643.25,-475.44C620.41,-463.7 587.51,-447.31 558,-434.5 551.61,-431.73 544.64,-428.95 538.06,-426.44"/>
<polygon fill="#63b8ff" stroke="#63b8ff" points="641.46,-478.45 651.95,-479.94 644.68,-472.24 641.46,-478.45"/>
</g>
<!-- Node49 -->
<g id="node28" class="node">
<title>Node49</title>
<g id="a_node28"><a xlink:href="TransmitterCode_2src_2main_8cpp.html#a488388f6430a0fc7bec57074ba750a2d" target="_top" xlink:title=" ">
<polygon fill="white" stroke="#666666" points="552.5,-389 466.5,-389 466.5,-370 552.5,-370 552.5,-389"/>
<text text-anchor="middle" x="509.5" y="-377" font-family="Helvetica,sans-Serif" font-size="10.00">ExitMacrosView</text>
</a>
</g>
</g>
<!-- Node16&#45;&gt;Node49 -->
<g id="edge29" class="edge">
<title>Node16&#45;&gt;Node49</title>
<path fill="none" stroke="#63b8ff" d="M654.03,-472.69C632.65,-452.29 595.17,-418.94 558,-397.5 552.73,-394.46 546.85,-391.75 541.07,-389.41"/>
<polygon fill="#63b8ff" stroke="#63b8ff" points="651.45,-475.07 661.07,-479.51 656.32,-470.04 651.45,-475.07"/>
</g>
<!-- Node37 -->
<g id="node29" class="node">
<title>Node37</title>
<g id="a_node29"><a xlink:href="TransmitterCode_2src_2main_8cpp.html#aa98d7fb495cbdc40cb17343ffafbfe15" target="_top" xlink:title=" ">
<polygon fill="white" stroke="#666666" points="237.5,-935 182.5,-935 182.5,-916 237.5,-916 237.5,-935"/>
<text text-anchor="middle" x="210" y="-923" font-family="Helvetica,sans-Serif" font-size="10.00">GetBank</text>
</a>
</g>
</g>
<!-- Node16&#45;&gt;Node37 -->
<g id="edge30" class="edge">
<title>Node16&#45;&gt;Node37</title>
<path fill="none" stroke="#63b8ff" d="M669.7,-511.79C660.63,-591.23 624.6,-868.49 558,-920.5 461.84,-995.59 300.69,-955.02 237.53,-934.78"/>
<polygon fill="#63b8ff" stroke="#63b8ff" points="673.17,-512.26 670.79,-501.93 666.21,-511.49 673.17,-512.26"/>
</g>
<!-- Node92 -->
<g id="node30" class="node">
<title>Node92</title>
<g id="a_node30"><a xlink:href="TransmitterCode_2src_2main_8cpp.html#a2d16d1f4802d4029bc8933a18d213beb" target="_top" xlink:title=" ">
<polygon fill="white" stroke="#666666" points="550.5,-650 468.5,-650 468.5,-631 550.5,-631 550.5,-650"/>
<text text-anchor="middle" x="509.5" y="-638" font-family="Helvetica,sans-Serif" font-size="10.00">GotoFrontView</text>
</a>
</g>
</g>
<!-- Node16&#45;&gt;Node92 -->
<g id="edge32" class="edge">
<title>Node16&#45;&gt;Node92</title>
<path fill="none" stroke="#63b8ff" d="M658.4,-509.49C638.66,-536.05 599.8,-584.61 558,-616.5 550.8,-621.99 542.15,-626.8 534.22,-630.63"/>
<polygon fill="#63b8ff" stroke="#63b8ff" points="661.03,-511.83 664.11,-501.69 655.38,-507.7 661.03,-511.83"/>
</g>
<!-- Node95 -->
<g id="node35" class="node">
<title>Node95</title>
<g id="a_node35"><a xlink:href="TransmitterCode_2src_2main_8cpp.html#a17699f358cf9f7c3155a9c5daf8ff13c" target="_top" xlink:title=" ">
<polygon fill="white" stroke="#666666" points="392.5,-576 351.5,-576 351.5,-557 392.5,-557 392.5,-576"/>
<text text-anchor="middle" x="372" y="-564" font-family="Helvetica,sans-Serif" font-size="10.00">setup</text>
</a>
</g>
</g>
<!-- Node16&#45;&gt;Node95 -->
<g id="edge48" class="edge">
<title>Node16&#45;&gt;Node95</title>
<path fill="none" stroke="#63b8ff" d="M656.69,-508.86C636.69,-531.25 599.34,-567.9 558,-582.5 500.7,-602.74 427.48,-584.5 392.85,-573.47"/>
<polygon fill="#63b8ff" stroke="#63b8ff" points="659.26,-511.24 663.16,-501.39 653.97,-506.66 659.26,-511.24"/>
</g>
<!-- Node59 -->
<g id="node36" class="node">
<title>Node59</title>
<g id="a_node36"><a xlink:href="TransmitterCode_2src_2main_8cpp.html#abdecfd433e1830c6497040b03450bed7" target="_top" xlink:title=" ">
<polygon fill="white" stroke="#666666" points="555.5,-352 463.5,-352 463.5,-333 555.5,-333 555.5,-352"/>
<text text-anchor="middle" x="509.5" y="-340" font-family="Helvetica,sans-Serif" font-size="10.00">GotoMacrosView</text>
</a>
</g>
</g>
<!-- Node16&#45;&gt;Node59 -->
<g id="edge40" class="edge">
<title>Node16&#45;&gt;Node59</title>
<path fill="none" stroke="#63b8ff" d="M659.56,-471.08C640.72,-443.06 602.4,-391.3 558,-360.5 553.51,-357.38 548.41,-354.72 543.25,-352.47"/>
<polygon fill="#63b8ff" stroke="#63b8ff" points="656.55,-472.86 664.97,-479.29 662.4,-469.02 656.55,-472.86"/>
</g>
<!-- Node53 -->
<g id="node37" class="node">
<title>Node53</title>
<g id="a_node37"><a xlink:href="TransmitterCode_2src_2main_8cpp.html#a446a94169d966af920710f7acddc5257" target="_top" xlink:title=" ">
<polygon fill="white" stroke="#666666" points="555,-875 464,-875 464,-856 555,-856 555,-875"/>
<text text-anchor="middle" x="509.5" y="-863" font-family="Helvetica,sans-Serif" font-size="10.00">GotoModelsView</text>
</a>
</g>
</g>
<!-- Node16&#45;&gt;Node53 -->
<g id="edge41" class="edge">
<title>Node16&#45;&gt;Node53</title>
<path fill="none" stroke="#63b8ff" d="M671.26,-511.52C668.04,-571.75 650.74,-746.97 558,-846.5 554.49,-850.27 550.13,-853.31 545.49,-855.75"/>
<polygon fill="#63b8ff" stroke="#63b8ff" points="674.75,-511.86 671.7,-501.71 667.76,-511.54 674.75,-511.86"/>
</g>
<!-- Node55 -->
<g id="node39" class="node">
<title>Node55</title>
<g id="a_node39"><a xlink:href="TransmitterCode_2src_2main_8cpp.html#a835d7dda94eeefe66d661ef4dc4df1a4" target="_top" xlink:title=" ">
<polygon fill="white" stroke="#666666" points="545.5,-315 473.5,-315 473.5,-296 545.5,-296 545.5,-315"/>
<text text-anchor="middle" x="509.5" y="-303" font-family="Helvetica,sans-Serif" font-size="10.00">Options2End</text>
</a>
</g>
</g>
<!-- Node16&#45;&gt;Node55 -->
<g id="edge44" class="edge">
<title>Node16&#45;&gt;Node55</title>
<path fill="none" stroke="#63b8ff" d="M663.29,-470.42C647.29,-435.76 610.04,-364.47 558,-323.5 553.98,-320.34 549.35,-317.68 544.58,-315.47"/>
<polygon fill="#63b8ff" stroke="#63b8ff" points="659.98,-471.61 667.27,-479.3 666.37,-468.74 659.98,-471.61"/>
</g>
<!-- Node57 -->
<g id="node40" class="node">
<title>Node57</title>
<g id="a_node40"><a xlink:href="TransmitterCode_2src_2main_8cpp.html#ab71829b0aee177464a613b151545c08a" target="_top" xlink:title=" ">
<polygon fill="white" stroke="#666666" points="554,-278 465,-278 465,-259 554,-259 554,-278"/>
<text text-anchor="middle" x="509.5" y="-266" font-family="Helvetica,sans-Serif" font-size="10.00">OptionView3End</text>
</a>
</g>
</g>
<!-- Node16&#45;&gt;Node57 -->
<g id="edge45" class="edge">
<title>Node16&#45;&gt;Node57</title>
<path fill="none" stroke="#63b8ff" d="M665.84,-469.98C652.64,-429.34 617.86,-338.13 558,-286.5 554.26,-283.27 549.88,-280.6 545.33,-278.39"/>
<polygon fill="#63b8ff" stroke="#63b8ff" points="662.47,-470.92 668.79,-479.42 669.15,-468.83 662.47,-470.92"/>
</g>
<!-- Node42 -->
<g id="node41" class="node">
<title>Node42</title>
<g id="a_node41"><a xlink:href="TransmitterCode_2src_2main_8cpp.html#a2e0aa19fa93c1bacd9b4600025f33594" target="_top" xlink:title=" ">
<polygon fill="white" stroke="#666666" points="548,-241 471,-241 471,-222 548,-222 548,-241"/>
<text text-anchor="middle" x="509.5" y="-229" font-family="Helvetica,sans-Serif" font-size="10.00">RXSetup1End</text>
</a>
</g>
</g>
<!-- Node16&#45;&gt;Node42 -->
<g id="edge46" class="edge">
<title>Node16&#45;&gt;Node42</title>
<path fill="none" stroke="#63b8ff" d="M667.67,-469.46C657.1,-423.25 625.76,-312.07 558,-249.5 554.5,-246.27 550.37,-243.6 546.02,-241.4"/>
<polygon fill="#63b8ff" stroke="#63b8ff" points="664.24,-470.17 669.79,-479.19 671.08,-468.68 664.24,-470.17"/>
</g>
<!-- Node112 -->
<g id="node42" class="node">
<title>Node112</title>
<g id="a_node42"><a xlink:href="TransmitterCode_2src_2main_8cpp.html#a127743223a757b674107ccfc9d77f12f" target="_top" xlink:title=" ">
<polygon fill="white" stroke="#666666" points="550.5,-204 468.5,-204 468.5,-185 550.5,-185 550.5,-204"/>
<text text-anchor="middle" x="509.5" y="-192" font-family="Helvetica,sans-Serif" font-size="10.00">RXSetup1Start</text>
</a>
</g>
</g>
<!-- Node16&#45;&gt;Node112 -->
<g id="edge47" class="edge">
<title>Node16&#45;&gt;Node112</title>
<path fill="none" stroke="#63b8ff" d="M669.15,-469.39C661.18,-418.24 633.98,-286.46 558,-212.5 554.71,-209.3 550.8,-206.66 546.66,-204.48"/>
<polygon fill="#63b8ff" stroke="#63b8ff" points="665.66,-469.69 670.57,-479.08 672.59,-468.67 665.66,-469.69"/>
</g>
<!-- Node161 -->
<g id="node43" class="node">
<title>Node161</title>
<g id="a_node43"><a xlink:href="TransmitterCode_2src_2main_8cpp.html#a35f886d783cd5aa95171f1ecba39ef0b" target="_top" xlink:title=" ">
<polygon fill="white" stroke="#666666" points="548.5,-167 470.5,-167 470.5,-148 548.5,-148 548.5,-167"/>
<text text-anchor="middle" x="509.5" y="-155" font-family="Helvetica,sans-Serif" font-size="10.00">SetupViewFM</text>
</a>
</g>
</g>
<!-- Node16&#45;&gt;Node161 -->
<g id="edge49" class="edge">
<title>Node16&#45;&gt;Node161</title>
<path fill="none" stroke="#63b8ff" d="M670.35,-469.63C664.85,-414.12 642.44,-261.22 558,-175.5 554.78,-172.23 550.91,-169.55 546.79,-167.35"/>
<polygon fill="#63b8ff" stroke="#63b8ff" points="666.83,-469.6 671.21,-479.24 673.8,-468.97 666.83,-469.6"/>
</g>
<!-- Node154 -->
<g id="node44" class="node">
<title>Node154</title>
<g id="a_node44"><a xlink:href="TransmitterCode_2src_2main_8cpp.html#a0ae3d4fad1e79724448c269efc4da9ec" target="_top" xlink:title=" ">
<polygon fill="white" stroke="#666666" points="555.5,-130 463.5,-130 463.5,-111 555.5,-111 555.5,-130"/>
<text text-anchor="middle" x="509.5" y="-118" font-family="Helvetica,sans-Serif" font-size="10.00">StartBankNames</text>
</a>
</g>
</g>
<!-- Node16&#45;&gt;Node154 -->
<g id="edge50" class="edge">
<title>Node16&#45;&gt;Node154</title>
<path fill="none" stroke="#63b8ff" d="M671.25,-469.23C668,-409.07 650.64,-235.8 558,-138.5 554.84,-135.18 551,-132.46 546.89,-130.25"/>
<polygon fill="#63b8ff" stroke="#63b8ff" points="667.75,-469.22 671.7,-479.05 674.74,-468.91 667.75,-469.22"/>
</g>
<!-- Node65 -->
<g id="node45" class="node">
<title>Node65</title>
<g id="a_node45"><a xlink:href="TransmitterCode_2src_2main_8cpp.html#a1a700b085b2f15c2ce4589f1be3ed492" target="_top" xlink:title=" ">
<polygon fill="#fff0f0" stroke="red" points="554,-93 465,-93 465,-74 554,-74 554,-93"/>
<text text-anchor="middle" x="509.5" y="-81" font-family="Helvetica,sans-Serif" font-size="10.00">StartModelSetup</text>
</a>
</g>
</g>
<!-- Node16&#45;&gt;Node65 -->
<g id="edge51" class="edge">
<title>Node16&#45;&gt;Node65</title>
<path fill="none" stroke="#63b8ff" d="M672.03,-469.16C670.96,-404.87 659.08,-210.69 558,-101.5 555,-98.26 551.37,-95.61 547.45,-93.42"/>
<polygon fill="#63b8ff" stroke="#63b8ff" points="668.53,-469.05 672.11,-479.02 675.53,-468.99 668.53,-469.05"/>
</g>
<!-- Node141 -->
<g id="node46" class="node">
<title>Node141</title>
<g id="a_node46"><a xlink:href="TransmitterCode_2src_2main_8cpp.html#a618bc6ca4ab71bb4d5d7e00dc71f9e56" target="_top" xlink:title=" ">
<polygon fill="white" stroke="#666666" points="557,-801 462,-801 462,-782 557,-782 557,-801"/>
<text text-anchor="middle" x="509.5" y="-789" font-family="Helvetica,sans-Serif" font-size="10.00">StartReverseView</text>
</a>
</g>
</g>
<!-- Node16&#45;&gt;Node141 -->
<g id="edge52" class="edge">
<title>Node16&#45;&gt;Node141</title>
<path fill="none" stroke="#63b8ff" d="M669.22,-511.47C661.32,-562.89 634.21,-696.56 558,-772.5 554.35,-776.14 549.92,-779.1 545.24,-781.51"/>
<polygon fill="#63b8ff" stroke="#63b8ff" points="672.65,-512.15 670.61,-501.75 665.72,-511.15 672.65,-512.15"/>
</g>
<!-- Node142 -->
<g id="node47" class="node">
<title>Node142</title>
<g id="a_node47"><a xlink:href="TransmitterCode_2src_2main_8cpp.html#a1c607fceb33466e7f7e0dd010dd53d7e" target="_top" xlink:title=" ">
<polygon fill="white" stroke="#666666" points="550,-56 469,-56 469,-37 550,-37 550,-56"/>
<text text-anchor="middle" x="509.5" y="-44" font-family="Helvetica,sans-Serif" font-size="10.00">StartSlowView</text>
</a>
</g>
</g>
<!-- Node16&#45;&gt;Node142 -->
<g id="edge54" class="edge">
<title>Node16&#45;&gt;Node142</title>
<path fill="none" stroke="#63b8ff" d="M672.68,-469.42C673.7,-401.51 667.73,-185.88 558,-64.5 555.04,-61.23 551.43,-58.55 547.53,-56.35"/>
<polygon fill="#63b8ff" stroke="#63b8ff" points="669.19,-469.05 672.45,-479.13 676.18,-469.21 669.19,-469.05"/>
</g>
<!-- Node135 -->
<g id="node48" class="node">
<title>Node135</title>
<g id="a_node48"><a xlink:href="TransmitterCode_2src_2main_8cpp.html#a8f725b11214f53b84fe2c7a9a4eb15ac" target="_top" xlink:title=" ">
<polygon fill="white" stroke="#666666" points="557.5,-19 461.5,-19 461.5,0 557.5,0 557.5,-19"/>
<text text-anchor="middle" x="509.5" y="-7" font-family="Helvetica,sans-Serif" font-size="10.00">StartSubTrimView</text>
</a>
</g>
</g>
<!-- Node16&#45;&gt;Node135 -->
<g id="edge55" class="edge">
<title>Node16&#45;&gt;Node135</title>
<path fill="none" stroke="#63b8ff" d="M669.42,-469.37C659.08,-387.93 618.32,-95.58 558,-27.5 555.08,-24.2 551.48,-21.5 547.59,-19.3"/>
<polygon fill="#63b8ff" stroke="#63b8ff" points="665.92,-469.57 670.63,-479.06 672.86,-468.7 665.92,-469.57"/>
</g>
<!-- Node156 -->
<g id="node49" class="node">
<title>Node156</title>
<g id="a_node49"><a xlink:href="TransmitterCode_2src_2main_8cpp.html#a76b1f472f8c90038b85799f8d7b33e7f" target="_top" xlink:title=" ">
<polygon fill="white" stroke="#666666" points="549,-764 470,-764 470,-745 549,-745 549,-764"/>
<text text-anchor="middle" x="509.5" y="-752" font-family="Helvetica,sans-Serif" font-size="10.00">StartTrimView</text>
</a>
</g>
</g>
<!-- Node16&#45;&gt;Node156 -->
<g id="edge56" class="edge">
<title>Node16&#45;&gt;Node156</title>
<path fill="none" stroke="#63b8ff" d="M667.14,-510.95C655.52,-555.93 622.2,-664.72 558,-730.5 552.32,-736.32 544.93,-740.97 537.68,-744.58"/>
<polygon fill="#63b8ff" stroke="#63b8ff" points="670.47,-512.05 669.49,-501.51 663.68,-510.37 670.47,-512.05"/>
</g>
<!-- Node68 -->
<g id="node50" class="node">
<title>Node68</title>
<g id="a_node50"><a xlink:href="TransmitterCode_2src_2main_8cpp.html#ac80d36db695cecb74d129643387feefd" target="_top" xlink:title=" ">
<polygon fill="white" stroke="#666666" points="552,-912 467,-912 467,-893 552,-893 552,-912"/>
<text text-anchor="middle" x="509.5" y="-900" font-family="Helvetica,sans-Serif" font-size="10.00">WriteNewCurve</text>
</a>
</g>
</g>
<!-- Node16&#45;&gt;Node68 -->
<g id="edge58" class="edge">
<title>Node16&#45;&gt;Node68</title>
<path fill="none" stroke="#63b8ff" d="M672.02,-511.54C670.94,-575.81 659.1,-771.96 558,-883.5 554.66,-887.19 550.51,-890.17 546.06,-892.58"/>
<polygon fill="#63b8ff" stroke="#63b8ff" points="675.51,-511.75 672.1,-501.72 668.52,-511.69 675.51,-511.75"/>
</g>
<!-- Node18 -->
<g id="node17" class="node">
<title>Node18</title>
<g id="a_node17"><a xlink:href="TransmitterCode_2src_2main_8cpp.html#afb7c85cac4aa89fd998ed81c330374d2" target="_top" xlink:title=" ">
<polygon fill="#fff0f0" stroke="red" points="283,-805 137,-805 137,-786 283,-786 283,-805"/>
<text text-anchor="middle" x="210" y="-793" font-family="Helvetica,sans-Serif" font-size="10.00">CheckForNextionButtonPress</text>
</a>
</g>
</g>
<!-- Node17&#45;&gt;Node18 -->
<g id="edge17" class="edge">
<title>Node17&#45;&gt;Node18</title>
<path fill="none" stroke="#63b8ff" d="M310.01,-792.41C301.29,-792.68 292.24,-792.96 283.33,-793.24"/>
<polygon fill="#63b8ff" stroke="#63b8ff" points="309.85,-795.91 319.74,-792.1 309.63,-788.92 309.85,-795.91"/>
</g>
<!-- Node25 -->
<g id="node18" class="node">
<title>Node25</title>
<g id="a_node18"><a xlink:href="TransmitterCode_2src_2main_8cpp.html#ab7c9edf843c732d7fe296564f39bc0dc" target="_top" xlink:title="RECEIVE A MODEL FILE.">
<polygon fill="white" stroke="#666666" points="257,-879 163,-879 163,-860 257,-860 257,-879"/>
<text text-anchor="middle" x="210" y="-867" font-family="Helvetica,sans-Serif" font-size="10.00">ReceiveModelFile</text>
</a>
</g>
</g>
<!-- Node17&#45;&gt;Node25 -->
<g id="edge19" class="edge">
<title>Node17&#45;&gt;Node25</title>
<path fill="none" stroke="#63b8ff" d="M328.7,-804.42C325.39,-805.73 322.12,-807.09 319,-808.5 284.65,-823.99 246.79,-846.81 226.28,-859.7"/>
<polygon fill="#63b8ff" stroke="#63b8ff" points="329.74,-807.76 337.88,-800.98 327.28,-801.21 329.74,-807.76"/>
</g>
<!-- Node18&#45;&gt;Node7 -->
<g id="edge18" class="edge">
<title>Node18&#45;&gt;Node7</title>
<path fill="none" stroke="#63b8ff" d="M155.86,-807.98C135.65,-812.73 112.91,-818.07 93.82,-822.56"/>
<polygon fill="#63b8ff" stroke="#63b8ff" points="156.38,-811.46 165.32,-805.76 154.78,-804.64 156.38,-811.46"/>
</g>
<!-- Node29 -->
<g id="node20" class="node">
<title>Node29</title>
<g id="a_node20"><a xlink:href="TransmitterCode_2src_2main_8cpp.html#ae267eaa80a4b3eb49ba10a97469eb7e9" target="_top" xlink:title=" ">
<polygon fill="white" stroke="#666666" points="406.5,-837 337.5,-837 337.5,-818 406.5,-818 406.5,-837"/>
<text text-anchor="middle" x="372" y="-825" font-family="Helvetica,sans-Serif" font-size="10.00">DoMFName</text>
</a>
</g>
</g>
<!-- Node28&#45;&gt;Node29 -->
<g id="edge21" class="edge">
<title>Node28&#45;&gt;Node29</title>
<path fill="none" stroke="#63b8ff" d="M449.23,-828.06C434.68,-827.96 419.6,-827.84 406.74,-827.75"/>
<polygon fill="#63b8ff" stroke="#63b8ff" points="449.19,-831.56 459.21,-828.14 449.24,-824.56 449.19,-831.56"/>
</g>
<!-- Node31 -->
<g id="node22" class="node">
<title>Node31</title>
<g id="a_node22"><a xlink:href="TransmitterCode_2src_2main_8cpp.html#a494cb4acb30856d1f53f08df1b80c41b" target="_top" xlink:title=" ">
<polygon fill="#fff0f0" stroke="red" points="269.5,-763 150.5,-763 150.5,-744 269.5,-744 269.5,-763"/>
<text text-anchor="middle" x="210" y="-751" font-family="Helvetica,sans-Serif" font-size="10.00">GetModelsMacAddress</text>
</a>
</g>
</g>
<!-- Node30&#45;&gt;Node31 -->
<g id="edge23" class="edge">
<title>Node30&#45;&gt;Node31</title>
<path fill="none" stroke="#63b8ff" d="M309.6,-753.5C296.59,-753.5 282.88,-753.5 269.97,-753.5"/>
<polygon fill="#63b8ff" stroke="#63b8ff" points="309.3,-757 319.3,-753.5 309.3,-750 309.3,-757"/>
</g>
<!-- Node37&#45;&gt;Node7 -->
<g id="edge31" class="edge">
<title>Node37&#45;&gt;Node7</title>
<path fill="none" stroke="#63b8ff" d="M179.28,-910.54C166.17,-903.76 150.68,-895.49 137,-887.5 111.55,-872.63 82.92,-853.76 66.09,-842.43"/>
<polygon fill="#63b8ff" stroke="#63b8ff" points="177.35,-913.49 187.85,-914.94 180.54,-907.26 177.35,-913.49"/>
</g>
<!-- Node92&#45;&gt;Node30 -->
<g id="edge35" class="edge">
<title>Node92&#45;&gt;Node30</title>
<path fill="none" stroke="#63b8ff" d="M472,-656.01C468.05,-658.52 464.28,-661.35 461,-664.5 437.21,-687.4 449.19,-707.02 425,-729.5 418.74,-735.32 410.81,-739.94 403.05,-743.51"/>
<polygon fill="#63b8ff" stroke="#63b8ff" points="473.69,-659.07 480.72,-651.15 470.28,-652.96 473.69,-659.07"/>
</g>
<!-- Node74 -->
<g id="node31" class="node">
<title>Node74</title>
<g id="a_node31"><a xlink:href="TransmitterCode_2src_2main_8cpp.html#a6ae37c6938b8c10b83d1bc74e8643bd9" target="_top" xlink:title=" ">
<polygon fill="white" stroke="#666666" points="266.5,-726 153.5,-726 153.5,-707 266.5,-707 266.5,-726"/>
<text text-anchor="middle" x="210" y="-714" font-family="Helvetica,sans-Serif" font-size="10.00">CheckPowerOffButton</text>
</a>
</g>
</g>
<!-- Node92&#45;&gt;Node74 -->
<g id="edge33" class="edge">
<title>Node92&#45;&gt;Node74</title>
<path fill="none" stroke="#63b8ff" d="M476.25,-655.45C471.03,-658.25 465.77,-661.31 461,-664.5 443.45,-676.24 444.41,-687.19 425,-695.5 374.55,-717.09 311.48,-720.81 266.91,-720.06"/>
<polygon fill="#63b8ff" stroke="#63b8ff" points="477.45,-658.77 484.77,-651.11 474.27,-652.53 477.45,-658.77"/>
</g>
<!-- Node93 -->
<g id="node32" class="node">
<title>Node93</title>
<g id="a_node32"><a xlink:href="TransmitterCode_2src_2main_8cpp.html#a2149418bb038e4a09266523c3bde2fce" target="_top" xlink:title=" ">
<polygon fill="white" stroke="#666666" points="414.5,-650 329.5,-650 329.5,-631 414.5,-631 414.5,-650"/>
<text text-anchor="middle" x="372" y="-638" font-family="Helvetica,sans-Serif" font-size="10.00">EndModelSetup</text>
</a>
</g>
</g>
<!-- Node92&#45;&gt;Node93 -->
<g id="edge36" class="edge">
<title>Node92&#45;&gt;Node93</title>
<path fill="none" stroke="#63b8ff" d="M456.82,-640.5C442.92,-640.5 428.06,-640.5 414.78,-640.5"/>
<polygon fill="#63b8ff" stroke="#63b8ff" points="456.7,-644 466.7,-640.5 456.7,-637 456.7,-644"/>
</g>
<!-- Node94 -->
<g id="node33" class="node">
<title>Node94</title>
<g id="a_node33"><a xlink:href="TransmitterCode_2src_2main_8cpp.html#a7c7ce8ee172cc418366d3feb06e4fbd3" target="_top" xlink:title=" ">
<polygon fill="white" stroke="#666666" points="425,-613 319,-613 319,-594 425,-594 425,-613"/>
<text text-anchor="middle" x="372" y="-601" font-family="Helvetica,sans-Serif" font-size="10.00">GoBackFromModels</text>
</a>
</g>
</g>
<!-- Node92&#45;&gt;Node94 -->
<g id="edge37" class="edge">
<title>Node92&#45;&gt;Node94</title>
<path fill="none" stroke="#63b8ff" d="M461.33,-627.62C444.31,-622.97 425.37,-617.8 409.41,-613.44"/>
<polygon fill="#63b8ff" stroke="#63b8ff" points="460.16,-630.93 470.73,-630.19 462,-624.18 460.16,-630.93"/>
</g>
<!-- Node24 -->
<g id="node34" class="node">
<title>Node24</title>
<g id="a_node34"><a xlink:href="TransmitterCode_2src_2main_8cpp.html#ae9f91b9da28f2e1e2fb126961f03c31c" target="_top" xlink:title=" ">
<polygon fill="white" stroke="#666666" points="412.5,-687 331.5,-687 331.5,-668 412.5,-668 412.5,-687"/>
<text text-anchor="middle" x="372" y="-675" font-family="Helvetica,sans-Serif" font-size="10.00">ModelViewEnd</text>
</a>
</g>
</g>
<!-- Node92&#45;&gt;Node24 -->
<g id="edge38" class="edge">
<title>Node92&#45;&gt;Node24</title>
<path fill="none" stroke="#63b8ff" d="M461.33,-653.38C444.31,-658.03 425.37,-663.2 409.41,-667.56"/>
<polygon fill="#63b8ff" stroke="#63b8ff" points="462,-656.82 470.73,-650.81 460.16,-650.07 462,-656.82"/>
</g>
<!-- Node92&#45;&gt;Node95 -->
<g id="edge39" class="edge">
<title>Node92&#45;&gt;Node95</title>
<path fill="none" stroke="#63b8ff" d="M476.21,-625.61C470.99,-622.81 465.75,-619.73 461,-616.5 443.3,-604.46 443.47,-595.32 425,-584.5 414.94,-578.61 402.66,-574.24 392.56,-571.29"/>
<polygon fill="#63b8ff" stroke="#63b8ff" points="474.23,-628.53 484.73,-629.96 477.41,-622.3 474.23,-628.53"/>
</g>
<!-- Node74&#45;&gt;Node7 -->
<g id="edge34" class="edge">
<title>Node74&#45;&gt;Node7</title>
<path fill="none" stroke="#63b8ff" d="M143.68,-730.84C141.38,-731.97 139.14,-733.19 137,-734.5 99.25,-757.6 69.19,-802.77 57.17,-822.68"/>
<polygon fill="#63b8ff" stroke="#63b8ff" points="144.85,-734.15 152.7,-727.03 142.12,-727.7 144.85,-734.15"/>
</g>
<!-- Node53&#45;&gt;Node25 -->
<g id="edge43" class="edge">
<title>Node53&#45;&gt;Node25</title>
<path fill="none" stroke="#63b8ff" d="M456.86,-877.7C446.37,-879.7 435.38,-881.45 425,-882.5 367.41,-888.3 300.83,-882.26 257.42,-876.62"/>
<polygon fill="#63b8ff" stroke="#63b8ff" points="457.38,-881.16 466.5,-875.75 456,-874.3 457.38,-881.16"/>
</g>
<!-- Node41 -->
<g id="node38" class="node">
<title>Node41</title>
<g id="a_node38"><a xlink:href="TransmitterCode_2src_2main_8cpp.html#a7af8e147bab19bdc499ffef595d30aae" target="_top" xlink:title=" ">
<polygon fill="white" stroke="#666666" points="419.5,-874 324.5,-874 324.5,-855 419.5,-855 419.5,-874"/>
<text text-anchor="middle" x="372" y="-862" font-family="Helvetica,sans-Serif" font-size="10.00">EndRenameModel</text>
</a>
</g>
</g>
<!-- Node53&#45;&gt;Node41 -->
<g id="edge42" class="edge">
<title>Node53&#45;&gt;Node41</title>
<path fill="none" stroke="#63b8ff" d="M452.53,-865.09C441.57,-865.01 430.17,-864.92 419.55,-864.84"/>
<polygon fill="#63b8ff" stroke="#63b8ff" points="452.22,-868.58 462.24,-865.16 452.27,-861.58 452.22,-868.58"/>
</g>
<!-- Node141&#45;&gt;Node17 -->
<g id="edge53" class="edge">
<title>Node141&#45;&gt;Node17</title>
<path fill="none" stroke="#63b8ff" d="M450.45,-791.07C441.3,-791 431.91,-790.93 422.96,-790.87"/>
<polygon fill="#63b8ff" stroke="#63b8ff" points="450.33,-794.57 460.36,-791.14 450.38,-787.57 450.33,-794.57"/>
</g>
<!-- Node156&#45;&gt;Node17 -->
<g id="edge57" class="edge">
<title>Node156&#45;&gt;Node17</title>
<path fill="none" stroke="#63b8ff" d="M460.08,-767.36C443.69,-771.72 425.65,-776.51 410.26,-780.6"/>
<polygon fill="#63b8ff" stroke="#63b8ff" points="460.89,-770.77 469.65,-764.82 459.09,-764.01 460.89,-770.77"/>
</g>
</g>
</svg>
