<?xml version="1.0" encoding="UTF-8" standalone="no"?>
<!DOCTYPE svg PUBLIC "-//W3C//DTD SVG 1.1//EN"
 "http://www.w3.org/Graphics/SVG/1.1/DTD/svg11.dtd">
<!-- Generated by graphviz version 7.0.5 (20221223.1930)
 -->
<!-- Title: RXSetup1End Pages: 1 -->
<svg width="1473pt" height="802pt"
 viewBox="0.00 0.00 1473.00 801.50" xmlns="http://www.w3.org/2000/svg" xmlns:xlink="http://www.w3.org/1999/xlink">
<g id="graph0" class="graph" transform="scale(1 1) rotate(0) translate(4 797.5)">
<title>RXSetup1End</title>
<!-- Node1 -->
<g id="node1" class="node">
<title>Node1</title>
<g id="a_node1"><a xlink:title=" ">
<polygon fill="#999999" stroke="#666666" points="77,-448.5 0,-448.5 0,-429.5 77,-429.5 77,-448.5"/>
<text text-anchor="middle" x="38.5" y="-436.5" font-family="Helvetica,sans-Serif" font-size="10.00">RXSetup1End</text>
</a>
</g>
</g>
<!-- Node2 -->
<g id="node2" class="node">
<title>Node2</title>
<g id="a_node2"><a xlink:href="TransmitterCode_2src_2main_8cpp.html#a281e0b7f5a10148c72a3c00cadd1be11" target="_top" xlink:title=" ">
<polygon fill="white" stroke="#666666" points="234,-793.5 113,-793.5 113,-774.5 234,-774.5 234,-793.5"/>
<text text-anchor="middle" x="173.5" y="-781.5" font-family="Helvetica,sans-Serif" font-size="10.00">AddParameterstoQueue</text>
</a>
</g>
</g>
<!-- Node1&#45;&gt;Node2 -->
<g id="edge1" class="edge">
<title>Node1&#45;&gt;Node2</title>
<path fill="none" stroke="#63b8ff" d="M40.53,-448.84C45.78,-497.37 70.98,-710.74 113,-760 115.76,-763.24 119.03,-766.05 122.59,-768.48"/>
<polygon fill="#63b8ff" stroke="#63b8ff" points="120.79,-771.49 131.22,-773.34 124.22,-765.39 120.79,-771.49"/>
</g>
<!-- Node3 -->
<g id="node3" class="node">
<title>Node3</title>
<g id="a_node3"><a xlink:href="Nextion_8h.html#a8e271ca29dc3c90bcf0e465b41bd71ff" target="_top" xlink:title=" ">
<polygon fill="white" stroke="#666666" points="344.5,-514.5 293.5,-514.5 293.5,-495.5 344.5,-495.5 344.5,-514.5"/>
<text text-anchor="middle" x="319" y="-502.5" font-family="Helvetica,sans-Serif" font-size="10.00">GetText</text>
</a>
</g>
</g>
<!-- Node1&#45;&gt;Node3 -->
<g id="edge2" class="edge">
<title>Node1&#45;&gt;Node3</title>
<path fill="none" stroke="#63b8ff" d="M77.22,-448.96C88.69,-451.94 101.35,-455.16 113,-458 172.05,-472.4 240.98,-487.94 281.98,-497.06"/>
<polygon fill="#63b8ff" stroke="#63b8ff" points="281.02,-500.43 291.54,-499.18 282.54,-493.6 281.02,-500.43"/>
</g>
<!-- Node53 -->
<g id="node25" class="node">
<title>Node53</title>
<g id="a_node25"><a xlink:href="Nextion_8h.html#aecac2f0c289f02ef3c92b85be82eacac" target="_top" xlink:title=" ">
<polygon fill="white" stroke="#666666" points="1346,-278.5 1263,-278.5 1263,-259.5 1346,-259.5 1346,-278.5"/>
<text text-anchor="middle" x="1304.5" y="-266.5" font-family="Helvetica,sans-Serif" font-size="10.00">SendCommand</text>
</a>
</g>
</g>
<!-- Node1&#45;&gt;Node53 -->
<g id="edge63" class="edge">
<title>Node1&#45;&gt;Node53</title>
<path fill="none" stroke="#63b8ff" d="M42.76,-448.87C60.79,-501.41 153.57,-746 318,-746 318,-746 318,-746 1067,-746 1273.36,-746 1299.66,-383.21 1303.01,-290.41"/>
<polygon fill="#63b8ff" stroke="#63b8ff" points="1306.51,-290.58 1303.31,-280.48 1299.51,-290.37 1306.51,-290.58"/>
</g>
<!-- Node182 -->
<g id="node36" class="node">
<title>Node182</title>
<g id="a_node36"><a xlink:href="Nextion_8h.html#a6e4fac4e296c09388b8b56353402d67a" target="_top" xlink:title=" ">
<polygon fill="white" stroke="#666666" points="202,-448.5 145,-448.5 145,-429.5 202,-429.5 202,-448.5"/>
<text text-anchor="middle" x="173.5" y="-436.5" font-family="Helvetica,sans-Serif" font-size="10.00">GetValue</text>
</a>
</g>
</g>
<!-- Node1&#45;&gt;Node182 -->
<g id="edge43" class="edge">
<title>Node1&#45;&gt;Node182</title>
<path fill="none" stroke="#63b8ff" d="M77.26,-439C94.81,-439 115.68,-439 133.4,-439"/>
<polygon fill="#63b8ff" stroke="#63b8ff" points="133.29,-442.5 143.29,-439 133.29,-435.5 133.29,-442.5"/>
</g>
<!-- Node132 -->
<g id="node38" class="node">
<title>Node132</title>
<g id="a_node38"><a xlink:href="SDcard_8h.html#ab5210e90502030d9f8864752dd70dc20" target="_top" xlink:title=" ">
<polygon fill="white" stroke="#666666" points="215,-344.5 132,-344.5 132,-325.5 215,-325.5 215,-344.5"/>
<text text-anchor="middle" x="173.5" y="-332.5" font-family="Helvetica,sans-Serif" font-size="10.00">SaveOneModel</text>
</a>
</g>
</g>
<!-- Node1&#45;&gt;Node132 -->
<g id="edge48" class="edge">
<title>Node1&#45;&gt;Node132</title>
<path fill="none" stroke="#63b8ff" d="M52.25,-429.03C75.05,-411.2 123.02,-373.69 150.99,-351.82"/>
<polygon fill="#63b8ff" stroke="#63b8ff" points="153.07,-354.64 158.79,-345.72 148.75,-349.13 153.07,-354.64"/>
</g>
<!-- Node85 -->
<g id="node47" class="node">
<title>Node85</title>
<g id="a_node47"><a xlink:href="Nextion_8h.html#a1e20efc1e419b252b50d36f9924503fc" target="_top" xlink:title=" ">
<polygon fill="white" stroke="#666666" points="1227,-117.5 1163,-117.5 1163,-98.5 1227,-98.5 1227,-117.5"/>
<text text-anchor="middle" x="1195" y="-105.5" font-family="Helvetica,sans-Serif" font-size="10.00">SendValue</text>
</a>
</g>
</g>
<!-- Node1&#45;&gt;Node85 -->
<g id="edge64" class="edge">
<title>Node1&#45;&gt;Node85</title>
<path fill="none" stroke="#63b8ff" d="M39.73,-429.18C41.05,-390.57 50.19,-246.68 113,-153 176.31,-58.57 204.31,0 318,0 318,0 318,0 891,0 999.45,0 1117.71,-62.14 1168.5,-92.15"/>
<polygon fill="#63b8ff" stroke="#63b8ff" points="1166.62,-95.1 1176.99,-97.25 1170.22,-89.1 1166.62,-95.1"/>
</g>
<!-- Node128 -->
<g id="node49" class="node">
<title>Node128</title>
<g id="a_node49"><a xlink:href="TransmitterCode_2src_2main_8cpp.html#a9e1de754e1d2d483fb15957f70cf0488" target="_top" xlink:title=" ">
<polygon fill="white" stroke="#666666" points="969,-47.5 811,-47.5 811,-28.5 969,-28.5 969,-47.5"/>
<text text-anchor="middle" x="890" y="-35.5" font-family="Helvetica,sans-Serif" font-size="10.00">UpdateModelsNameEveryWhere</text>
</a>
</g>
</g>
<!-- Node1&#45;&gt;Node128 -->
<g id="edge68" class="edge">
<title>Node1&#45;&gt;Node128</title>
<path fill="none" stroke="#63b8ff" d="M42.74,-429.07C60.67,-376.18 152.98,-130 318,-130 318,-130 318,-130 579,-130 687.23,-130 706.63,-84.64 811,-56 817.77,-54.14 824.91,-52.32 832.01,-50.58"/>
<polygon fill="#63b8ff" stroke="#63b8ff" points="832.68,-54.02 841.59,-48.29 831.05,-47.21 832.68,-54.02"/>
</g>
<!-- Node4 -->
<g id="node4" class="node">
<title>Node4</title>
<g id="a_node4"><a xlink:href="Nextion_8h.html#ad7b8aa834c87265667a5687b1787a1cc" target="_top" xlink:title=" ">
<polygon fill="white" stroke="#666666" points="479.5,-477.5 423.5,-477.5 423.5,-458.5 479.5,-458.5 479.5,-477.5"/>
<text text-anchor="middle" x="451.5" y="-465.5" font-family="Helvetica,sans-Serif" font-size="10.00">EndSend</text>
</a>
</g>
</g>
<!-- Node3&#45;&gt;Node4 -->
<g id="edge3" class="edge">
<title>Node3&#45;&gt;Node4</title>
<path fill="none" stroke="#63b8ff" d="M344.85,-497.95C363.87,-492.56 390.44,-485.03 412.17,-478.87"/>
<polygon fill="#63b8ff" stroke="#63b8ff" points="412.91,-482.3 421.58,-476.2 411,-475.56 412.91,-482.3"/>
</g>
<!-- Node184 -->
<g id="node35" class="node">
<title>Node184</title>
<g id="a_node35"><a xlink:href="Nextion_8h.html#a6fe457db5d6bc71ccb447dee824abf6a" target="_top" xlink:title=" ">
<polygon fill="white" stroke="#666666" points="481,-514.5 422,-514.5 422,-495.5 481,-495.5 481,-514.5"/>
<text text-anchor="middle" x="451.5" y="-502.5" font-family="Helvetica,sans-Serif" font-size="10.00">GetTextIn</text>
</a>
</g>
</g>
<!-- Node3&#45;&gt;Node184 -->
<g id="edge42" class="edge">
<title>Node3&#45;&gt;Node184</title>
<path fill="none" stroke="#63b8ff" d="M344.85,-505C363.32,-505 388.91,-505 410.28,-505"/>
<polygon fill="#63b8ff" stroke="#63b8ff" points="410.13,-508.5 420.13,-505 410.13,-501.5 410.13,-508.5"/>
</g>
<!-- Node5 -->
<g id="node5" class="node">
<title>Node5</title>
<g id="a_node5"><a xlink:href="Utilities_8h.html#a3b1d8aa403e2724e55c71da3d9d13e7e" target="_top" xlink:title=" ">
<polygon fill="white" stroke="#666666" points="616.5,-439.5 539.5,-439.5 539.5,-420.5 616.5,-420.5 616.5,-439.5"/>
<text text-anchor="middle" x="578" y="-427.5" font-family="Helvetica,sans-Serif" font-size="10.00">DelayWithDog</text>
</a>
</g>
</g>
<!-- Node4&#45;&gt;Node5 -->
<g id="edge4" class="edge">
<title>Node4&#45;&gt;Node5</title>
<path fill="none" stroke="#63b8ff" d="M479.82,-459.66C495.59,-454.85 515.78,-448.69 533.66,-443.23"/>
<polygon fill="#63b8ff" stroke="#63b8ff" points="534.45,-446.65 543,-440.38 532.41,-439.95 534.45,-446.65"/>
</g>
<!-- Node6 -->
<g id="node6" class="node">
<title>Node6</title>
<g id="a_node6"><a xlink:href="TransmitterCode_2src_2main_8cpp.html#a26ae4f6ca14f760bd5eb6e7588fe7c81" target="_top" xlink:title="GET NEW SERVO POSITIONS.">
<polygon fill="white" stroke="#666666" points="775,-569.5 657,-569.5 657,-550.5 775,-550.5 775,-569.5"/>
<text text-anchor="middle" x="716" y="-557.5" font-family="Helvetica,sans-Serif" font-size="10.00">GetNewChannelValues</text>
</a>
</g>
</g>
<!-- Node5&#45;&gt;Node6 -->
<g id="edge5" class="edge">
<title>Node5&#45;&gt;Node6</title>
<path fill="none" stroke="#63b8ff" d="M589.22,-439.77C612.06,-461.6 667.51,-514.61 696.56,-542.37"/>
<polygon fill="#63b8ff" stroke="#63b8ff" points="693.92,-544.69 703.57,-549.07 698.75,-539.63 693.92,-544.69"/>
</g>
<!-- Node18 -->
<g id="node18" class="node">
<title>Node18</title>
<g id="a_node18"><a xlink:href="Utilities_8h.html#ada95a00a341e4a80176eda743a94ab2e" target="_top" xlink:title=" ">
<polygon fill="white" stroke="#666666" points="751,-458.5 681,-458.5 681,-439.5 751,-439.5 751,-458.5"/>
<text text-anchor="middle" x="716" y="-446.5" font-family="Helvetica,sans-Serif" font-size="10.00">KickTheDog</text>
</a>
</g>
</g>
<!-- Node5&#45;&gt;Node18 -->
<g id="edge18" class="edge">
<title>Node5&#45;&gt;Node18</title>
<path fill="none" stroke="#63b8ff" d="M616.88,-435.29C633.1,-437.56 652.19,-440.22 669.19,-442.6"/>
<polygon fill="#63b8ff" stroke="#63b8ff" points="668.69,-446.06 679.08,-443.98 669.66,-439.13 668.69,-446.06"/>
</g>
<!-- Node19 -->
<g id="node19" class="node">
<title>Node19</title>
<g id="a_node19"><a xlink:href="transceiver_8h.html#a049bfb836e7aa4a3a48a1a4bd225fafc" target="_top" xlink:title=" ">
<polygon fill="white" stroke="#666666" points="745.5,-250.5 686.5,-250.5 686.5,-231.5 745.5,-231.5 745.5,-250.5"/>
<text text-anchor="middle" x="716" y="-238.5" font-family="Helvetica,sans-Serif" font-size="10.00">SendData</text>
</a>
</g>
</g>
<!-- Node5&#45;&gt;Node19 -->
<g id="edge19" class="edge">
<title>Node5&#45;&gt;Node19</title>
<path fill="none" stroke="#63b8ff" d="M586.12,-420.1C607.74,-390.06 672.88,-299.53 701.39,-259.91"/>
<polygon fill="#63b8ff" stroke="#63b8ff" points="704.07,-262.19 707.07,-252.03 698.38,-258.1 704.07,-262.19"/>
</g>
<!-- Node7 -->
<g id="node7" class="node">
<title>Node7</title>
<g id="a_node7"><a xlink:href="TransmitterCode_2src_2main_8cpp.html#ac5728db610c441820a6f47295967cbab" target="_top" xlink:title=" ">
<polygon fill="white" stroke="#666666" points="930,-569.5 850,-569.5 850,-550.5 930,-550.5 930,-569.5"/>
<text text-anchor="middle" x="890" y="-557.5" font-family="Helvetica,sans-Serif" font-size="10.00">AnalogueReed</text>
</a>
</g>
</g>
<!-- Node6&#45;&gt;Node7 -->
<g id="edge6" class="edge">
<title>Node6&#45;&gt;Node7</title>
<path fill="none" stroke="#63b8ff" d="M775.23,-560C795.68,-560 818.48,-560 838.26,-560"/>
<polygon fill="#63b8ff" stroke="#63b8ff" points="838.01,-563.5 848.01,-560 838.01,-556.5 838.01,-563.5"/>
</g>
<!-- Node8 -->
<g id="node8" class="node">
<title>Node8</title>
<g id="a_node8"><a xlink:href="TransmitterCode_2src_2main_8cpp.html#ac77bd940a0faad7b997c9ddf40a7acc6" target="_top" xlink:title=" ">
<polygon fill="white" stroke="#666666" points="917,-643.5 863,-643.5 863,-624.5 917,-624.5 917,-643.5"/>
<text text-anchor="middle" x="890" y="-631.5" font-family="Helvetica,sans-Serif" font-size="10.00">DoMixes</text>
</a>
</g>
</g>
<!-- Node6&#45;&gt;Node8 -->
<g id="edge7" class="edge">
<title>Node6&#45;&gt;Node8</title>
<path fill="none" stroke="#63b8ff" d="M730.62,-569.98C748.3,-582.48 780.51,-603.75 811,-616 823.87,-621.17 838.55,-625.04 851.68,-627.85"/>
<polygon fill="#63b8ff" stroke="#63b8ff" points="850.76,-631.23 861.25,-629.75 852.13,-624.37 850.76,-631.23"/>
</g>
<!-- Node10 -->
<g id="node10" class="node">
<title>Node10</title>
<g id="a_node10"><a xlink:href="Utilities_8h.html#acbd7adcd2b0e2095a89b4a98042b526e" target="_top" xlink:title=" ">
<polygon fill="white" stroke="#666666" points="936,-495.5 844,-495.5 844,-476.5 936,-476.5 936,-495.5"/>
<text text-anchor="middle" x="890" y="-483.5" font-family="Helvetica,sans-Serif" font-size="10.00">DoReverseSense</text>
</a>
</g>
</g>
<!-- Node6&#45;&gt;Node10 -->
<g id="edge9" class="edge">
<title>Node6&#45;&gt;Node10</title>
<path fill="none" stroke="#63b8ff" d="M730.98,-550.06C748.78,-537.83 780.85,-517.19 811,-505 817.95,-502.19 825.41,-499.73 832.88,-497.58"/>
<polygon fill="#63b8ff" stroke="#63b8ff" points="833.53,-501.03 842.29,-495.06 831.72,-494.27 833.53,-501.03"/>
</g>
<!-- Node11 -->
<g id="node11" class="node">
<title>Node11</title>
<g id="a_node11"><a xlink:href="TransmitterCode_2src_2main_8cpp.html#a4be5821d4f80bdcdbee25adc69051d3e" target="_top" xlink:title=" ">
<polygon fill="white" stroke="#666666" points="934.5,-458.5 845.5,-458.5 845.5,-439.5 934.5,-439.5 934.5,-458.5"/>
<text text-anchor="middle" x="890" y="-446.5" font-family="Helvetica,sans-Serif" font-size="10.00">DoRouteOutputs</text>
</a>
</g>
</g>
<!-- Node6&#45;&gt;Node11 -->
<g id="edge10" class="edge">
<title>Node6&#45;&gt;Node11</title>
<path fill="none" stroke="#63b8ff" d="M724.05,-550.21C738.26,-531.25 772.27,-489.5 811,-468 818.2,-464 826.24,-460.83 834.34,-458.33"/>
<polygon fill="#63b8ff" stroke="#63b8ff" points="835.18,-461.73 843.9,-455.71 833.33,-454.98 835.18,-461.73"/>
</g>
<!-- Node12 -->
<g id="node12" class="node">
<title>Node12</title>
<g id="a_node12"><a xlink:href="TransmitterCode_2src_2main_8cpp.html#a7a6560a77b8c4dd3925760790beafbd5" target="_top" xlink:title=" ">
<polygon fill="white" stroke="#666666" points="930.5,-717.5 849.5,-717.5 849.5,-698.5 930.5,-698.5 930.5,-717.5"/>
<text text-anchor="middle" x="890" y="-705.5" font-family="Helvetica,sans-Serif" font-size="10.00">DoSlowServos</text>
</a>
</g>
</g>
<!-- Node6&#45;&gt;Node12 -->
<g id="edge11" class="edge">
<title>Node6&#45;&gt;Node12</title>
<path fill="none" stroke="#63b8ff" d="M721.04,-569.66C731.77,-594.06 763.42,-658.44 811,-690 819.07,-695.36 828.54,-699.13 838.03,-701.79"/>
<polygon fill="#63b8ff" stroke="#63b8ff" points="837.1,-705.16 847.64,-704.07 838.72,-698.35 837.1,-705.16"/>
</g>
<!-- Node13 -->
<g id="node13" class="node">
<title>Node13</title>
<g id="a_node13"><a xlink:href="TransmitterCode_2src_2main_8cpp.html#af9c038b48102eca9032f10fefd9d5736" target="_top" xlink:title=" ">
<polygon fill="white" stroke="#666666" points="929,-680.5 851,-680.5 851,-661.5 929,-661.5 929,-680.5"/>
<text text-anchor="middle" x="890" y="-668.5" font-family="Helvetica,sans-Serif" font-size="10.00">GetCurveDots</text>
</a>
</g>
</g>
<!-- Node6&#45;&gt;Node13 -->
<g id="edge12" class="edge">
<title>Node6&#45;&gt;Node13</title>
<path fill="none" stroke="#63b8ff" d="M724.01,-569.94C738.12,-589.18 771.99,-631.51 811,-653 819.76,-657.82 829.75,-661.36 839.59,-663.94"/>
<polygon fill="#63b8ff" stroke="#63b8ff" points="838.57,-667.3 849.1,-666.14 840.14,-660.48 838.57,-667.3"/>
</g>
<!-- Node16 -->
<g id="node16" class="node">
<title>Node16</title>
<g id="a_node16"><a xlink:href="TransmitterCode_2src_2main_8cpp.html#a248db02e07497e7a4149db17b4e5c2f3" target="_top" xlink:title=" ">
<polygon fill="white" stroke="#666666" points="928.5,-532.5 851.5,-532.5 851.5,-513.5 928.5,-513.5 928.5,-532.5"/>
<text text-anchor="middle" x="890" y="-520.5" font-family="Helvetica,sans-Serif" font-size="10.00">GetStickInput</text>
</a>
</g>
</g>
<!-- Node6&#45;&gt;Node16 -->
<g id="edge15" class="edge">
<title>Node6&#45;&gt;Node16</title>
<path fill="none" stroke="#63b8ff" d="M763.09,-550.08C786.89,-544.97 815.92,-538.72 840.11,-533.52"/>
<polygon fill="#63b8ff" stroke="#63b8ff" points="840.68,-536.98 849.72,-531.45 839.2,-530.13 840.68,-536.98"/>
</g>
<!-- Node17 -->
<g id="node17" class="node">
<title>Node17</title>
<g id="a_node17"><a xlink:href="Trims_8h.html#aacd8b022714bb89847239dd878ad9509" target="_top" xlink:title=" ">
<polygon fill="white" stroke="#666666" points="933,-606.5 847,-606.5 847,-587.5 933,-587.5 933,-606.5"/>
<text text-anchor="middle" x="890" y="-594.5" font-family="Helvetica,sans-Serif" font-size="10.00">GetTrimAmount</text>
</a>
</g>
</g>
<!-- Node6&#45;&gt;Node17 -->
<g id="edge17" class="edge">
<title>Node6&#45;&gt;Node17</title>
<path fill="none" stroke="#63b8ff" d="M763.09,-569.92C785.41,-574.72 812.34,-580.51 835.55,-585.5"/>
<polygon fill="#63b8ff" stroke="#63b8ff" points="834.62,-588.88 845.14,-587.56 836.1,-582.04 834.62,-588.88"/>
</g>
<!-- Node9 -->
<g id="node9" class="node">
<title>Node9</title>
<g id="a_node9"><a xlink:href="Utilities_8h.html#a0d8d8a0d67cb9b04481f1692abe75368" target="_top" xlink:title=" ">
<polygon fill="white" stroke="#666666" points="1105.5,-570.5 1026.5,-570.5 1026.5,-551.5 1105.5,-551.5 1105.5,-570.5"/>
<text text-anchor="middle" x="1066" y="-558.5" font-family="Helvetica,sans-Serif" font-size="10.00">IntoHigherRes</text>
</a>
</g>
</g>
<!-- Node8&#45;&gt;Node9 -->
<g id="edge8" class="edge">
<title>Node8&#45;&gt;Node9</title>
<path fill="none" stroke="#63b8ff" d="M917.22,-629.94C932.63,-627.06 952.31,-622.54 969,-616 994.95,-605.83 1022.33,-589.51 1041.18,-577.29"/>
<polygon fill="#63b8ff" stroke="#63b8ff" points="1043.04,-580.26 1049.45,-571.82 1039.18,-574.42 1043.04,-580.26"/>
</g>
<!-- Node14 -->
<g id="node14" class="node">
<title>Node14</title>
<g id="a_node14"><a xlink:href="TransmitterCode_2src_2main_8cpp.html#afeabb54d48ef7e55693014e057d2943d" target="_top" xlink:title=" ">
<polygon fill="white" stroke="#666666" points="1104.5,-699.5 1027.5,-699.5 1027.5,-680.5 1104.5,-680.5 1104.5,-699.5"/>
<text text-anchor="middle" x="1066" y="-687.5" font-family="Helvetica,sans-Serif" font-size="10.00">CalculateRate</text>
</a>
</g>
</g>
<!-- Node13&#45;&gt;Node14 -->
<g id="edge13" class="edge">
<title>Node13&#45;&gt;Node14</title>
<path fill="none" stroke="#63b8ff" d="M929.19,-675.17C954.66,-677.95 988.38,-681.63 1015.86,-684.63"/>
<polygon fill="#63b8ff" stroke="#63b8ff" points="1015.38,-688.1 1025.7,-685.71 1016.14,-681.14 1015.38,-688.1"/>
</g>
<!-- Node15 -->
<g id="node15" class="node">
<title>Node15</title>
<g id="a_node15"><a xlink:href="TransmitterCode_2src_2main_8cpp.html#a8f53f86499d740b350f7b6d791c90497" target="_top" xlink:title=" ">
<polygon fill="white" stroke="#666666" points="1101.5,-662.5 1030.5,-662.5 1030.5,-643.5 1101.5,-643.5 1101.5,-662.5"/>
<text text-anchor="middle" x="1066" y="-650.5" font-family="Helvetica,sans-Serif" font-size="10.00">UseFullRate</text>
</a>
</g>
</g>
<!-- Node13&#45;&gt;Node15 -->
<g id="edge14" class="edge">
<title>Node13&#45;&gt;Node15</title>
<path fill="none" stroke="#63b8ff" d="M929.19,-667.05C955.65,-664.31 991.03,-660.65 1019.04,-657.75"/>
<polygon fill="#63b8ff" stroke="#63b8ff" points="1019.06,-661.27 1028.65,-656.76 1018.34,-654.31 1019.06,-661.27"/>
</g>
<!-- Node16&#45;&gt;Node9 -->
<g id="edge16" class="edge">
<title>Node16&#45;&gt;Node9</title>
<path fill="none" stroke="#63b8ff" d="M928.76,-531.25C954.06,-536.77 987.64,-544.11 1015.13,-550.11"/>
<polygon fill="#63b8ff" stroke="#63b8ff" points="1014.12,-553.47 1024.63,-552.18 1015.61,-546.63 1014.12,-553.47"/>
</g>
<!-- Node20 -->
<g id="node20" class="node">
<title>Node20</title>
<g id="a_node20"><a xlink:href="transceiver_8h.html#a1ddd5e8d5bd649dd98ce3710fbff651b" target="_top" xlink:title=" ">
<polygon fill="white" stroke="#666666" points="920.5,-121.5 859.5,-121.5 859.5,-102.5 920.5,-102.5 920.5,-121.5"/>
<text text-anchor="middle" x="890" y="-109.5" font-family="Helvetica,sans-Serif" font-size="10.00">Compress</text>
</a>
</g>
</g>
<!-- Node19&#45;&gt;Node20 -->
<g id="edge20" class="edge">
<title>Node19&#45;&gt;Node20</title>
<path fill="none" stroke="#63b8ff" d="M722.34,-231.16C734.76,-209.25 767.88,-156.29 811,-130 822.08,-123.24 835.46,-119.02 847.99,-116.38"/>
<polygon fill="#63b8ff" stroke="#63b8ff" points="848.44,-119.86 857.67,-114.65 847.21,-112.97 848.44,-119.86"/>
</g>
<!-- Node21 -->
<g id="node21" class="node">
<title>Node21</title>
<g id="a_node21"><a xlink:href="transceiver_8h.html#a4144c213e5448a7e02d4172881f08219" target="_top" xlink:title=" ">
<polygon fill="white" stroke="#666666" points="962,-84.5 818,-84.5 818,-65.5 962,-65.5 962,-84.5"/>
<text text-anchor="middle" x="890" y="-72.5" font-family="Helvetica,sans-Serif" font-size="10.00">EncodeTheChangedChannels</text>
</a>
</g>
</g>
<!-- Node19&#45;&gt;Node21 -->
<g id="edge21" class="edge">
<title>Node19&#45;&gt;Node21</title>
<path fill="none" stroke="#63b8ff" d="M722.95,-231.19C742.56,-198.9 804.32,-97.73 811,-93 812.56,-91.9 814.18,-90.86 815.84,-89.88"/>
<polygon fill="#63b8ff" stroke="#63b8ff" points="817.04,-93.2 824.45,-85.63 813.94,-86.92 817.04,-93.2"/>
</g>
<!-- Node22 -->
<g id="node22" class="node">
<title>Node22</title>
<g id="a_node22"><a xlink:href="transceiver_8h.html#a5fbd3c8613a4163425c94965704ce5f8" target="_top" xlink:title=" ">
<polygon fill="#fff0f0" stroke="red" points="927,-382.5 853,-382.5 853,-363.5 927,-363.5 927,-382.5"/>
<text text-anchor="middle" x="890" y="-370.5" font-family="Helvetica,sans-Serif" font-size="10.00">FailedPacket</text>
</a>
</g>
</g>
<!-- Node19&#45;&gt;Node22 -->
<g id="edge22" class="edge">
<title>Node19&#45;&gt;Node22</title>
<path fill="none" stroke="#63b8ff" d="M722.08,-250.77C734.21,-273.07 767.15,-327.87 811,-355 820.11,-360.64 830.81,-364.51 841.32,-367.17"/>
<polygon fill="#63b8ff" stroke="#63b8ff" points="840.56,-370.59 851.07,-369.29 842.04,-363.75 840.56,-370.59"/>
</g>
<!-- Node64 -->
<g id="node29" class="node">
<title>Node64</title>
<g id="a_node29"><a xlink:href="transceiver_8h.html#a07c27b4e208198453c70876517926052" target="_top" xlink:title=" ">
<polygon fill="white" stroke="#666666" points="921,-195.5 859,-195.5 859,-176.5 921,-176.5 921,-195.5"/>
<text text-anchor="middle" x="890" y="-183.5" font-family="Helvetica,sans-Serif" font-size="10.00">FlushFifos</text>
</a>
</g>
</g>
<!-- Node19&#45;&gt;Node64 -->
<g id="edge32" class="edge">
<title>Node19&#45;&gt;Node64</title>
<path fill="none" stroke="#63b8ff" d="M739.46,-231.07C758.29,-223.01 786.04,-211.74 811,-204 822.77,-200.35 835.74,-197.07 847.67,-194.34"/>
<polygon fill="#63b8ff" stroke="#63b8ff" points="848.23,-197.8 857.24,-192.22 846.72,-190.96 848.23,-197.8"/>
</g>
<!-- Node61 -->
<g id="node30" class="node">
<title>Node61</title>
<g id="a_node30"><a xlink:href="common_8h.html#a6e2d4126d864c50e7c23c988c2bfdd1a" target="_top" xlink:title=" ">
<polygon fill="white" stroke="#666666" points="1089.5,-275.5 1042.5,-275.5 1042.5,-256.5 1089.5,-256.5 1089.5,-275.5"/>
<text text-anchor="middle" x="1066" y="-263.5" font-family="Helvetica,sans-Serif" font-size="10.00">Radio1</text>
</a>
</g>
</g>
<!-- Node19&#45;&gt;Node61 -->
<g id="edge34" class="edge">
<title>Node19&#45;&gt;Node61</title>
<path fill="none" stroke="#63b8ff" d="M735.81,-250.84C754.35,-259.95 783.78,-272.83 811,-278 888.73,-292.75 982.12,-280.96 1031.14,-272.57"/>
<polygon fill="#63b8ff" stroke="#63b8ff" points="1031.61,-276.04 1040.84,-270.84 1030.38,-269.15 1031.61,-276.04"/>
</g>
<!-- Node65 -->
<g id="node31" class="node">
<title>Node65</title>
<g id="a_node31"><a xlink:href="transceiver_8h.html#a188ad446d11b2db284476c093de58b2f" target="_top" xlink:title=" ">
<polygon fill="#fff0f0" stroke="red" points="949.5,-269.5 830.5,-269.5 830.5,-250.5 949.5,-250.5 949.5,-269.5"/>
<text text-anchor="middle" x="890" y="-257.5" font-family="Helvetica,sans-Serif" font-size="10.00">SendExtraParamemters</text>
</a>
</g>
</g>
<!-- Node19&#45;&gt;Node65 -->
<g id="edge35" class="edge">
<title>Node19&#45;&gt;Node65</title>
<path fill="none" stroke="#63b8ff" d="M745.79,-244.18C765.78,-246.39 793.33,-249.43 818.92,-252.26"/>
<polygon fill="#63b8ff" stroke="#63b8ff" points="818.29,-255.71 828.62,-253.33 819.06,-248.75 818.29,-255.71"/>
</g>
<!-- Node68 -->
<g id="node32" class="node">
<title>Node68</title>
<g id="a_node32"><a xlink:href="BuddyWireless_8h.html#a41c327908c92572d0d3eebbb19160d86" target="_top" xlink:title=" ">
<polygon fill="#fff0f0" stroke="red" points="941,-232.5 839,-232.5 839,-213.5 941,-213.5 941,-232.5"/>
<text text-anchor="middle" x="890" y="-220.5" font-family="Helvetica,sans-Serif" font-size="10.00">SendSpecialPacket</text>
</a>
</g>
</g>
<!-- Node19&#45;&gt;Node68 -->
<g id="edge36" class="edge">
<title>Node19&#45;&gt;Node68</title>
<path fill="none" stroke="#63b8ff" d="M745.79,-237.99C767.98,-235.67 799.47,-232.37 827.27,-229.46"/>
<polygon fill="#63b8ff" stroke="#63b8ff" points="827.43,-232.96 837.01,-228.44 826.7,-226 827.43,-232.96"/>
</g>
<!-- Node73 -->
<g id="node33" class="node">
<title>Node73</title>
<g id="a_node33"><a xlink:href="BuddyPPM_8h.html#a784a1eca0361b3991bca899167cc1cdb" target="_top" xlink:title=" ">
<polygon fill="white" stroke="#666666" points="927.5,-158.5 852.5,-158.5 852.5,-139.5 927.5,-139.5 927.5,-158.5"/>
<text text-anchor="middle" x="890" y="-146.5" font-family="Helvetica,sans-Serif" font-size="10.00">SendViaPPM</text>
</a>
</g>
</g>
<!-- Node19&#45;&gt;Node73 -->
<g id="edge38" class="edge">
<title>Node19&#45;&gt;Node73</title>
<path fill="none" stroke="#63b8ff" d="M726.43,-231.17C742.33,-215.19 776.16,-183.69 811,-167 820.39,-162.5 830.96,-159.09 841.22,-156.53"/>
<polygon fill="#63b8ff" stroke="#63b8ff" points="841.7,-160.01 850.68,-154.39 840.16,-153.18 841.7,-160.01"/>
</g>
<!-- Node74 -->
<g id="node34" class="node">
<title>Node74</title>
<g id="a_node34"><a xlink:href="transceiver_8h.html#a1c11bb6771548de7d96723045b922620" target="_top" xlink:title=" ">
<polygon fill="#fff0f0" stroke="red" points="938,-345.5 842,-345.5 842,-326.5 938,-326.5 938,-345.5"/>
<text text-anchor="middle" x="890" y="-333.5" font-family="Helvetica,sans-Serif" font-size="10.00">SuccessfulPacket</text>
</a>
</g>
</g>
<!-- Node19&#45;&gt;Node74 -->
<g id="edge39" class="edge">
<title>Node19&#45;&gt;Node74</title>
<path fill="none" stroke="#63b8ff" d="M727.44,-250.87C743.96,-266 777.68,-294.96 811,-312 818.89,-316.04 827.59,-319.53 836.22,-322.51"/>
<polygon fill="#63b8ff" stroke="#63b8ff" points="835.03,-325.81 845.62,-325.55 837.18,-319.15 835.03,-325.81"/>
</g>
<!-- Node23 -->
<g id="node23" class="node">
<title>Node23</title>
<g id="a_node23"><a xlink:href="transceiver_8h.html#afc091b5942e21a03f6dc8635d5e519ba" target="_top" xlink:title=" ">
<polygon fill="white" stroke="#666666" points="1127,-345.5 1005,-345.5 1005,-326.5 1127,-326.5 1127,-345.5"/>
<text text-anchor="middle" x="1066" y="-333.5" font-family="Helvetica,sans-Serif" font-size="10.00">RecordsPacketSuccess</text>
</a>
</g>
</g>
<!-- Node22&#45;&gt;Node23 -->
<g id="edge23" class="edge">
<title>Node22&#45;&gt;Node23</title>
<path fill="none" stroke="#63b8ff" d="M927.48,-365.24C950.5,-360.35 980.74,-353.92 1007,-348.33"/>
<polygon fill="#63b8ff" stroke="#63b8ff" points="1007.44,-351.82 1016.5,-346.31 1005.99,-344.97 1007.44,-351.82"/>
</g>
<!-- Node24 -->
<g id="node24" class="node">
<title>Node24</title>
<g id="a_node24"><a xlink:href="TransmitterCode_2src_2main_8cpp.html#a7d34cec6e8edc20c8b50424e15dcc7c7" target="_top" xlink:title=" ">
<polygon fill="#fff0f0" stroke="red" points="1097.5,-382.5 1034.5,-382.5 1034.5,-363.5 1097.5,-363.5 1097.5,-382.5"/>
<text text-anchor="middle" x="1066" y="-370.5" font-family="Helvetica,sans-Serif" font-size="10.00">RedLedOn</text>
</a>
</g>
</g>
<!-- Node22&#45;&gt;Node24 -->
<g id="edge24" class="edge">
<title>Node22&#45;&gt;Node24</title>
<path fill="none" stroke="#63b8ff" d="M927.48,-373C955.24,-373 993.51,-373 1022.63,-373"/>
<polygon fill="#63b8ff" stroke="#63b8ff" points="1022.58,-376.5 1032.58,-373 1022.58,-369.5 1022.58,-376.5"/>
</g>
<!-- Node24&#45;&gt;Node53 -->
<g id="edge25" class="edge">
<title>Node24&#45;&gt;Node53</title>
<path fill="none" stroke="#63b8ff" d="M1097.85,-364.79C1107.31,-361.99 1117.68,-358.64 1127,-355 1181.38,-333.76 1242,-302.44 1276.17,-284.04"/>
<polygon fill="#63b8ff" stroke="#63b8ff" points="1277.44,-287.34 1284.56,-279.49 1274.1,-281.18 1277.44,-287.34"/>
</g>
<!-- Node56 -->
<g id="node28" class="node">
<title>Node56</title>
<g id="a_node28"><a xlink:href="Nextion_8h.html#afe513398f72d5e48f691830a1ef6eb42" target="_top" xlink:title=" ">
<polygon fill="white" stroke="#666666" points="1224,-232.5 1166,-232.5 1166,-213.5 1224,-213.5 1224,-232.5"/>
<text text-anchor="middle" x="1195" y="-220.5" font-family="Helvetica,sans-Serif" font-size="10.00">SendText</text>
</a>
</g>
</g>
<!-- Node24&#45;&gt;Node56 -->
<g id="edge29" class="edge">
<title>Node24&#45;&gt;Node56</title>
<path fill="none" stroke="#63b8ff" d="M1097.7,-368.79C1107.89,-366.16 1118.74,-361.91 1127,-355 1136.39,-347.15 1168.87,-277.97 1184.9,-243.02"/>
<polygon fill="#63b8ff" stroke="#63b8ff" points="1187.88,-244.92 1188.85,-234.37 1181.51,-242.01 1187.88,-244.92"/>
</g>
<!-- Node53&#45;&gt;Node5 -->
<g id="edge26" class="edge">
<title>Node53&#45;&gt;Node5</title>
<path fill="none" stroke="#63b8ff" d="M1295.17,-278.76C1266.79,-310.84 1169.97,-411 1067,-411 889,-411 889,-411 889,-411 796.55,-411 688.89,-419.52 627.86,-425.15"/>
<polygon fill="#63b8ff" stroke="#63b8ff" points="627.79,-421.64 618.16,-426.06 628.44,-428.61 627.79,-421.64"/>
</g>
<!-- Node54 -->
<g id="node26" class="node">
<title>Node54</title>
<g id="a_node26"><a xlink:href="Nextion_8h.html#a43937dd3d9c795271fd9c3eb3c6b6410" target="_top" xlink:title=" ">
<polygon fill="white" stroke="#666666" points="1465,-232.5 1382,-232.5 1382,-213.5 1465,-213.5 1465,-232.5"/>
<text text-anchor="middle" x="1423.5" y="-220.5" font-family="Helvetica,sans-Serif" font-size="10.00">GetReturnCode</text>
</a>
</g>
</g>
<!-- Node53&#45;&gt;Node54 -->
<g id="edge27" class="edge">
<title>Node53&#45;&gt;Node54</title>
<path fill="none" stroke="#63b8ff" d="M1330.89,-259.02C1347.14,-252.63 1368.47,-244.24 1386.47,-237.17"/>
<polygon fill="#63b8ff" stroke="#63b8ff" points="1387.73,-240.43 1395.75,-233.52 1385.17,-233.92 1387.73,-240.43"/>
</g>
<!-- Node55 -->
<g id="node27" class="node">
<title>Node55</title>
<g id="a_node27"><a xlink:href="TransmitterCode_2src_2main_8cpp.html#a5f109790a6fe0b972a502f3cac4ed1e7" target="_top" xlink:title=" ">
<polygon fill="white" stroke="#666666" points="1447.5,-278.5 1399.5,-278.5 1399.5,-259.5 1447.5,-259.5 1447.5,-278.5"/>
<text text-anchor="middle" x="1423.5" y="-266.5" font-family="Helvetica,sans-Serif" font-size="10.00">InStrng</text>
</a>
</g>
</g>
<!-- Node53&#45;&gt;Node55 -->
<g id="edge28" class="edge">
<title>Node53&#45;&gt;Node55</title>
<path fill="none" stroke="#63b8ff" d="M1346.42,-269C1359.94,-269 1374.84,-269 1387.85,-269"/>
<polygon fill="#63b8ff" stroke="#63b8ff" points="1387.65,-272.5 1397.65,-269 1387.65,-265.5 1387.65,-272.5"/>
</g>
<!-- Node56&#45;&gt;Node53 -->
<g id="edge31" class="edge">
<title>Node56&#45;&gt;Node53</title>
<path fill="none" stroke="#63b8ff" d="M1219.33,-232.98C1234.12,-239.31 1253.49,-247.6 1269.92,-254.63"/>
<polygon fill="#63b8ff" stroke="#63b8ff" points="1268.26,-257.73 1278.83,-258.44 1271.01,-251.29 1268.26,-257.73"/>
</g>
<!-- Node56&#45;&gt;Node54 -->
<g id="edge30" class="edge">
<title>Node56&#45;&gt;Node54</title>
<path fill="none" stroke="#63b8ff" d="M1224.23,-223C1260.67,-223 1324.77,-223 1370.22,-223"/>
<polygon fill="#63b8ff" stroke="#63b8ff" points="1370.12,-226.5 1380.12,-223 1370.12,-219.5 1370.12,-226.5"/>
</g>
<!-- Node64&#45;&gt;Node61 -->
<g id="edge33" class="edge">
<title>Node64&#45;&gt;Node61</title>
<path fill="none" stroke="#63b8ff" d="M921.39,-190.48C936.14,-193.29 953.9,-197.61 969,-204 996.57,-215.66 1024.99,-235.11 1043.68,-249.12"/>
<polygon fill="#63b8ff" stroke="#63b8ff" points="1041.48,-251.85 1051.55,-255.15 1045.74,-246.29 1041.48,-251.85"/>
</g>
<!-- Node68&#45;&gt;Node61 -->
<g id="edge37" class="edge">
<title>Node68&#45;&gt;Node61</title>
<path fill="none" stroke="#63b8ff" d="M935.19,-232.97C946.24,-235.53 958.07,-238.32 969,-241 989.68,-246.08 1012.77,-252.08 1031.13,-256.93"/>
<polygon fill="#63b8ff" stroke="#63b8ff" points="1030.13,-260.29 1040.69,-259.47 1031.93,-253.52 1030.13,-260.29"/>
</g>
<!-- Node74&#45;&gt;Node23 -->
<g id="edge41" class="edge">
<title>Node74&#45;&gt;Node23</title>
<path fill="none" stroke="#63b8ff" d="M938.09,-336C955.09,-336 974.69,-336 993.32,-336"/>
<polygon fill="#63b8ff" stroke="#63b8ff" points="993.25,-339.5 1003.25,-336 993.25,-332.5 993.25,-339.5"/>
</g>
<!-- Node74&#45;&gt;Node61 -->
<g id="edge40" class="edge">
<title>Node74&#45;&gt;Node61</title>
<path fill="none" stroke="#63b8ff" d="M927.11,-326.11C940.42,-322.14 955.54,-317.26 969,-312 992.27,-302.9 1017.74,-290.58 1036.6,-280.98"/>
<polygon fill="#63b8ff" stroke="#63b8ff" points="1037.97,-284.21 1045.25,-276.52 1034.76,-277.99 1037.97,-284.21"/>
</g>
<!-- Node182&#45;&gt;Node5 -->
<g id="edge44" class="edge">
<title>Node182&#45;&gt;Node5</title>
<path fill="none" stroke="#63b8ff" d="M202.48,-438.37C270,-436.86 442.52,-433.01 527.78,-431.1"/>
<polygon fill="#63b8ff" stroke="#63b8ff" points="527.78,-434.6 537.7,-430.88 527.63,-427.6 527.78,-434.6"/>
</g>
<!-- Node183 -->
<g id="node37" class="node">
<title>Node183</title>
<g id="a_node37"><a xlink:href="Nextion_8h.html#aff6fa8906188d3249b01bf59de47df2f" target="_top" xlink:title=" ">
<polygon fill="white" stroke="#666666" points="345.5,-477.5 292.5,-477.5 292.5,-458.5 345.5,-458.5 345.5,-477.5"/>
<text text-anchor="middle" x="319" y="-465.5" font-family="Helvetica,sans-Serif" font-size="10.00">getvalue</text>
</a>
</g>
</g>
<!-- Node182&#45;&gt;Node183 -->
<g id="edge45" class="edge">
<title>Node182&#45;&gt;Node183</title>
<path fill="none" stroke="#63b8ff" d="M202.17,-444.59C224.67,-449.14 256.61,-455.59 281.25,-460.57"/>
<polygon fill="#63b8ff" stroke="#63b8ff" points="280.37,-463.97 290.86,-462.52 281.75,-457.1 280.37,-463.97"/>
</g>
<!-- Node183&#45;&gt;Node4 -->
<g id="edge46" class="edge">
<title>Node183&#45;&gt;Node4</title>
<path fill="none" stroke="#63b8ff" d="M345.78,-468C364.71,-468 390.74,-468 412.1,-468"/>
<polygon fill="#63b8ff" stroke="#63b8ff" points="411.91,-471.5 421.91,-468 411.91,-464.5 411.91,-471.5"/>
</g>
<!-- Node183&#45;&gt;Node184 -->
<g id="edge47" class="edge">
<title>Node183&#45;&gt;Node184</title>
<path fill="none" stroke="#63b8ff" d="M345.78,-475.31C364.29,-480.56 389.59,-487.73 410.69,-493.71"/>
<polygon fill="#63b8ff" stroke="#63b8ff" points="409.56,-497.03 420.13,-496.39 411.47,-490.3 409.56,-497.03"/>
</g>
<!-- Node28 -->
<g id="node39" class="node">
<title>Node28</title>
<g id="a_node39"><a xlink:href="SDcard_8h.html#a6922974b734cfe3a511e074a2d6ac33c" target="_top" xlink:title=" ">
<polygon fill="white" stroke="#666666" points="363.5,-287.5 274.5,-287.5 274.5,-268.5 363.5,-268.5 363.5,-287.5"/>
<text text-anchor="middle" x="319" y="-275.5" font-family="Helvetica,sans-Serif" font-size="10.00">CloseModelsFile</text>
</a>
</g>
</g>
<!-- Node132&#45;&gt;Node28 -->
<g id="edge49" class="edge">
<title>Node132&#45;&gt;Node28</title>
<path fill="none" stroke="#63b8ff" d="M199.5,-325.07C222.54,-315.92 256.99,-302.24 282.81,-291.98"/>
<polygon fill="#63b8ff" stroke="#63b8ff" points="283.88,-295.32 291.88,-288.37 281.3,-288.81 283.88,-295.32"/>
</g>
<!-- Node29 -->
<g id="node40" class="node">
<title>Node29</title>
<g id="a_node40"><a xlink:href="SDcard_8h.html#ae7618f38a148877bc5681be58cba8354" target="_top" xlink:title=" ">
<polygon fill="white" stroke="#666666" points="362.5,-401.5 275.5,-401.5 275.5,-382.5 362.5,-382.5 362.5,-401.5"/>
<text text-anchor="middle" x="319" y="-389.5" font-family="Helvetica,sans-Serif" font-size="10.00">OpenModelsFile</text>
</a>
</g>
</g>
<!-- Node132&#45;&gt;Node29 -->
<g id="edge50" class="edge">
<title>Node132&#45;&gt;Node29</title>
<path fill="none" stroke="#63b8ff" d="M199.5,-344.93C222.54,-354.08 256.99,-367.76 282.81,-378.02"/>
<polygon fill="#63b8ff" stroke="#63b8ff" points="281.3,-381.19 291.88,-381.63 283.88,-374.68 281.3,-381.19"/>
</g>
<!-- Node30 -->
<g id="node41" class="node">
<title>Node30</title>
<g id="a_node41"><a xlink:href="SDcard_8h.html#a9ec95181a743e446cdec2e0fbf569f2c" target="_top" xlink:title=" ">
<polygon fill="white" stroke="#666666" points="368,-250.5 270,-250.5 270,-231.5 368,-231.5 368,-250.5"/>
<text text-anchor="middle" x="319" y="-238.5" font-family="Helvetica,sans-Serif" font-size="10.00">SaveCheckSum32</text>
</a>
</g>
</g>
<!-- Node132&#45;&gt;Node30 -->
<g id="edge52" class="edge">
<title>Node132&#45;&gt;Node30</title>
<path fill="none" stroke="#63b8ff" d="M184.59,-325.16C201.21,-309.41 235.89,-278.32 270,-259 272.17,-257.77 274.44,-256.59 276.76,-255.47"/>
<polygon fill="#63b8ff" stroke="#63b8ff" points="277.99,-258.76 285.75,-251.54 275.18,-252.35 277.99,-258.76"/>
</g>
<!-- Node34 -->
<g id="node45" class="node">
<title>Node34</title>
<g id="a_node45"><a xlink:href="SDcard_8h.html#a512ed84f4270bd62e922cd7dd82fd427" target="_top" xlink:title=" ">
<polygon fill="white" stroke="#666666" points="496,-306.5 407,-306.5 407,-287.5 496,-287.5 496,-306.5"/>
<text text-anchor="middle" x="451.5" y="-294.5" font-family="Helvetica,sans-Serif" font-size="10.00">SDUpdate8BITS</text>
</a>
</g>
</g>
<!-- Node132&#45;&gt;Node34 -->
<g id="edge62" class="edge">
<title>Node132&#45;&gt;Node34</title>
<path fill="none" stroke="#63b8ff" d="M215.22,-329.39C263,-322.81 342.43,-311.88 395.61,-304.56"/>
<polygon fill="#63b8ff" stroke="#63b8ff" points="395.94,-308.04 405.37,-303.21 394.99,-301.11 395.94,-308.04"/>
</g>
<!-- Node35 -->
<g id="node46" class="node">
<title>Node35</title>
<g id="a_node46"><a xlink:href="SDcard_8h.html#a7bef1afdf8ed9f50caed67e53c144dfe" target="_top" xlink:title=" ">
<polygon fill="white" stroke="#666666" points="499,-343.5 404,-343.5 404,-324.5 499,-324.5 499,-343.5"/>
<text text-anchor="middle" x="451.5" y="-331.5" font-family="Helvetica,sans-Serif" font-size="10.00">SDUpdate16BITS</text>
</a>
</g>
</g>
<!-- Node132&#45;&gt;Node35 -->
<g id="edge59" class="edge">
<title>Node132&#45;&gt;Node35</title>
<path fill="none" stroke="#63b8ff" d="M215.22,-334.85C262.02,-334.68 339.19,-334.4 392.31,-334.21"/>
<polygon fill="#63b8ff" stroke="#63b8ff" points="392.1,-337.71 402.08,-334.18 392.07,-330.71 392.1,-337.71"/>
</g>
<!-- Node29&#45;&gt;Node5 -->
<g id="edge51" class="edge">
<title>Node29&#45;&gt;Node5</title>
<path fill="none" stroke="#63b8ff" d="M362.75,-397.19C399.07,-401.73 452.54,-408.72 499,-416 508.48,-417.48 518.58,-419.2 528.26,-420.91"/>
<polygon fill="#63b8ff" stroke="#63b8ff" points="527.42,-424.31 537.88,-422.63 528.65,-417.42 527.42,-424.31"/>
</g>
<!-- Node31 -->
<g id="node42" class="node">
<title>Node31</title>
<g id="a_node42"><a xlink:href="SDcard_8h.html#a82e989b70d0f68854ead6262993255cc" target="_top" xlink:title=" ">
<polygon fill="white" stroke="#666666" points="499,-269.5 404,-269.5 404,-250.5 499,-250.5 499,-269.5"/>
<text text-anchor="middle" x="451.5" y="-257.5" font-family="Helvetica,sans-Serif" font-size="10.00">SDUpdate32BITS</text>
</a>
</g>
</g>
<!-- Node30&#45;&gt;Node31 -->
<g id="edge53" class="edge">
<title>Node30&#45;&gt;Node31</title>
<path fill="none" stroke="#63b8ff" d="M368.22,-248.02C376.12,-249.17 384.37,-250.37 392.48,-251.55"/>
<polygon fill="#63b8ff" stroke="#63b8ff" points="391.88,-255 402.28,-252.98 392.89,-248.08 391.88,-255"/>
</g>
<!-- Node30&#45;&gt;Node34 -->
<g id="edge56" class="edge">
<title>Node30&#45;&gt;Node34</title>
<path fill="none" stroke="#63b8ff" d="M348.42,-250.98C354.92,-253.44 361.75,-256.19 368,-259 384.5,-266.41 387.61,-270.35 404,-278 407.5,-279.64 411.19,-281.28 414.89,-282.87"/>
<polygon fill="#63b8ff" stroke="#63b8ff" points="413.24,-285.97 423.81,-286.6 415.94,-279.51 413.24,-285.97"/>
</g>
<!-- Node32 -->
<g id="node43" class="node">
<title>Node32</title>
<g id="a_node43"><a xlink:href="SDcard_8h.html#addfb17077b6300576f07ef8c17f88581" target="_top" xlink:title=" ">
<polygon fill="white" stroke="#666666" points="621,-324.5 535,-324.5 535,-305.5 621,-305.5 621,-324.5"/>
<text text-anchor="middle" x="578" y="-312.5" font-family="Helvetica,sans-Serif" font-size="10.00">BuildCheckSum</text>
</a>
</g>
</g>
<!-- Node31&#45;&gt;Node32 -->
<g id="edge54" class="edge">
<title>Node31&#45;&gt;Node32</title>
<path fill="none" stroke="#63b8ff" d="M479.23,-269.85C485.75,-272.39 492.67,-275.2 499,-278 515.36,-285.24 518.85,-288.31 535,-296 538.08,-297.47 541.3,-298.97 544.53,-300.46"/>
<polygon fill="#63b8ff" stroke="#63b8ff" points="542.77,-303.5 553.32,-304.47 545.67,-297.14 542.77,-303.5"/>
</g>
<!-- Node33 -->
<g id="node44" class="node">
<title>Node33</title>
<g id="a_node44"><a xlink:href="SDcard_8h.html#aa5479d4f80459a9530b2e538f4048eb5" target="_top" xlink:title=" ">
<polygon fill="white" stroke="#666666" points="610,-287.5 546,-287.5 546,-268.5 610,-268.5 610,-287.5"/>
<text text-anchor="middle" x="578" y="-275.5" font-family="Helvetica,sans-Serif" font-size="10.00">ShortDelay</text>
</a>
</g>
</g>
<!-- Node31&#45;&gt;Node33 -->
<g id="edge55" class="edge">
<title>Node31&#45;&gt;Node33</title>
<path fill="none" stroke="#63b8ff" d="M499.21,-266.75C510.68,-268.41 522.91,-270.18 534.18,-271.81"/>
<polygon fill="#63b8ff" stroke="#63b8ff" points="533.63,-275.27 544.03,-273.23 534.63,-268.34 533.63,-275.27"/>
</g>
<!-- Node34&#45;&gt;Node32 -->
<g id="edge57" class="edge">
<title>Node34&#45;&gt;Node32</title>
<path fill="none" stroke="#63b8ff" d="M496.39,-303.35C505.16,-304.61 514.45,-305.96 523.49,-307.26"/>
<polygon fill="#63b8ff" stroke="#63b8ff" points="522.86,-310.71 533.26,-308.68 523.86,-303.78 522.86,-310.71"/>
</g>
<!-- Node34&#45;&gt;Node33 -->
<g id="edge58" class="edge">
<title>Node34&#45;&gt;Node33</title>
<path fill="none" stroke="#63b8ff" d="M496.39,-290.3C508.7,-288.42 522.06,-286.38 534.3,-284.52"/>
<polygon fill="#63b8ff" stroke="#63b8ff" points="534.76,-287.99 544.12,-283.02 533.71,-281.07 534.76,-287.99"/>
</g>
<!-- Node35&#45;&gt;Node32 -->
<g id="edge60" class="edge">
<title>Node35&#45;&gt;Node32</title>
<path fill="none" stroke="#63b8ff" d="M499.21,-326.87C507.09,-325.67 515.33,-324.41 523.36,-323.19"/>
<polygon fill="#63b8ff" stroke="#63b8ff" points="523.69,-326.68 533.04,-321.71 522.63,-319.76 523.69,-326.68"/>
</g>
<!-- Node35&#45;&gt;Node33 -->
<g id="edge61" class="edge">
<title>Node35&#45;&gt;Node33</title>
<path fill="none" stroke="#63b8ff" d="M477.79,-324.19C484.73,-321.36 492.2,-318.17 499,-315 515.39,-307.35 518.67,-303.79 535,-296 537.42,-294.85 539.93,-293.68 542.46,-292.54"/>
<polygon fill="#63b8ff" stroke="#63b8ff" points="543.74,-295.8 551.48,-288.56 540.92,-289.39 543.74,-295.8"/>
</g>
<!-- Node85&#45;&gt;Node53 -->
<g id="edge66" class="edge">
<title>Node85&#45;&gt;Node53</title>
<path fill="none" stroke="#63b8ff" d="M1202.4,-117.59C1219.69,-143.48 1267.56,-215.17 1290.68,-249.79"/>
<polygon fill="#63b8ff" stroke="#63b8ff" points="1287.69,-251.63 1296.15,-258 1293.51,-247.74 1287.69,-251.63"/>
</g>
<!-- Node85&#45;&gt;Node54 -->
<g id="edge65" class="edge">
<title>Node85&#45;&gt;Node54</title>
<path fill="none" stroke="#63b8ff" d="M1215.31,-117.8C1254.91,-137.91 1345.55,-183.93 1392.73,-207.88"/>
<polygon fill="#63b8ff" stroke="#63b8ff" points="1391.07,-210.97 1401.57,-212.37 1394.23,-204.72 1391.07,-210.97"/>
</g>
<!-- Node44 -->
<g id="node48" class="node">
<title>Node44</title>
<g id="a_node48"><a xlink:href="Utilities_8h.html#a590a9174319918d7e3d7baca323fcf26" target="_top" xlink:title=" ">
<polygon fill="white" stroke="#666666" points="1319,-108.5 1290,-108.5 1290,-89.5 1319,-89.5 1319,-108.5"/>
<text text-anchor="middle" x="1304.5" y="-96.5" font-family="Helvetica,sans-Serif" font-size="10.00">Str</text>
</a>
</g>
</g>
<!-- Node85&#45;&gt;Node44 -->
<g id="edge67" class="edge">
<title>Node85&#45;&gt;Node44</title>
<path fill="none" stroke="#63b8ff" d="M1227.38,-105.37C1243.62,-104.01 1263.17,-102.38 1278.39,-101.1"/>
<polygon fill="#63b8ff" stroke="#63b8ff" points="1278.34,-104.62 1288.01,-100.3 1277.75,-97.64 1278.34,-104.62"/>
</g>
<!-- Node128&#45;&gt;Node56 -->
<g id="edge69" class="edge">
<title>Node128&#45;&gt;Node56</title>
<path fill="none" stroke="#63b8ff" d="M955.29,-47.87C960.18,-50.08 964.83,-52.76 969,-56 996.61,-77.49 980.25,-101.27 1005,-126 1047.78,-168.74 1113.29,-196.53 1154.87,-210.98"/>
<polygon fill="#63b8ff" stroke="#63b8ff" points="1153.64,-214.26 1164.23,-214.13 1155.87,-207.62 1153.64,-214.26"/>
</g>
<!-- Node128&#45;&gt;Node44 -->
<g id="edge70" class="edge">
<title>Node128&#45;&gt;Node44</title>
<path fill="none" stroke="#63b8ff" d="M958.19,-47.94C1051.51,-61.74 1215.91,-86.05 1278.42,-95.29"/>
<polygon fill="#63b8ff" stroke="#63b8ff" points="1277.61,-98.71 1288.02,-96.71 1278.64,-91.78 1277.61,-98.71"/>
</g>
<!-- Node129 -->
<g id="node50" class="node">
<title>Node129</title>
<g id="a_node50"><a xlink:href="Trims_8h.html#ac78966debc2cdc13d8ca958ce3b20c78" target="_top" xlink:title=" ">
<polygon fill="white" stroke="#666666" points="1110.5,-117.5 1021.5,-117.5 1021.5,-98.5 1110.5,-98.5 1110.5,-117.5"/>
<text text-anchor="middle" x="1066" y="-105.5" font-family="Helvetica,sans-Serif" font-size="10.00">UpdateTrimView</text>
</a>
</g>
</g>
<!-- Node128&#45;&gt;Node129 -->
<g id="edge71" class="edge">
<title>Node128&#45;&gt;Node129</title>
<path fill="none" stroke="#63b8ff" d="M943.19,-47.98C951.93,-50.24 960.81,-52.9 969,-56 994.43,-65.62 1021.5,-80.78 1040.39,-92.26"/>
<polygon fill="#63b8ff" stroke="#63b8ff" points="1038.35,-95.11 1048.69,-97.4 1042.03,-89.16 1038.35,-95.11"/>
</g>
<!-- Node129&#45;&gt;Node56 -->
<g id="edge72" class="edge">
<title>Node129&#45;&gt;Node56</title>
<path fill="none" stroke="#63b8ff" d="M1082.68,-117.98C1095.17,-126.22 1112.86,-138.56 1127,-151 1146.11,-167.81 1165.68,-189.46 1178.7,-204.61"/>
<polygon fill="#63b8ff" stroke="#63b8ff" points="1175.78,-206.58 1184.91,-211.94 1181.12,-202.05 1175.78,-206.58"/>
</g>
<!-- Node129&#45;&gt;Node85 -->
<g id="edge73" class="edge">
<title>Node129&#45;&gt;Node85</title>
<path fill="none" stroke="#63b8ff" d="M1110.71,-108C1123.91,-108 1138.39,-108 1151.52,-108"/>
<polygon fill="#63b8ff" stroke="#63b8ff" points="1151.13,-111.5 1161.13,-108 1151.13,-104.5 1151.13,-111.5"/>
</g>
</g>
</svg>
