<?xml version="1.0" encoding="UTF-8" standalone="no"?>
<!DOCTYPE svg PUBLIC "-//W3C//DTD SVG 1.1//EN"
 "http://www.w3.org/Graphics/SVG/1.1/DTD/svg11.dtd">
<!-- Generated by graphviz version 7.0.4 (20221203.1631)
 -->
<!-- Title: DecFileInView Pages: 1 -->
<svg width="1526pt" height="931pt"
 viewBox="0.00 0.00 1526.00 931.00" xmlns="http://www.w3.org/2000/svg" xmlns:xlink="http://www.w3.org/1999/xlink">
<g id="graph0" class="graph" transform="scale(1 1) rotate(0) translate(4 927)">
<title>DecFileInView</title>
<!-- Node1 -->
<g id="node1" class="node">
<title>Node1</title>
<g id="a_node1"><a xlink:title=" ">
<polygon fill="#999999" stroke="#666666" points="80,-884 0,-884 0,-865 80,-865 80,-884"/>
<text text-anchor="middle" x="40" y="-872" font-family="Helvetica,sans-Serif" font-size="10.00">DecFileInView</text>
</a>
</g>
</g>
<!-- Node2 -->
<g id="node2" class="node">
<title>Node2</title>
<g id="a_node2"><a xlink:href="TransmitterCode_2src_2main_8cpp.html#a6922974b734cfe3a511e074a2d6ac33c" target="_top" xlink:title=" ">
<polygon fill="white" stroke="#666666" points="206.5,-903 117.5,-903 117.5,-884 206.5,-884 206.5,-903"/>
<text text-anchor="middle" x="162" y="-891" font-family="Helvetica,sans-Serif" font-size="10.00">CloseModelsFile</text>
</a>
</g>
</g>
<!-- Node1&#45;&gt;Node2 -->
<g id="edge1" class="edge">
<title>Node1&#45;&gt;Node2</title>
<path fill="none" stroke="#63b8ff" d="M80.29,-880.72C88.47,-882.02 97.23,-883.4 105.85,-884.77"/>
<polygon fill="#63b8ff" stroke="#63b8ff" points="105.13,-888.2 115.56,-886.3 106.23,-881.28 105.13,-888.2"/>
</g>
<!-- Node3 -->
<g id="node3" class="node">
<title>Node3</title>
<g id="a_node3"><a xlink:href="TransmitterCode_2src_2main_8cpp.html#aa337d6e5cf496fbca7cdc61818f8239a" target="_top" xlink:title="updates display in textbox">
<polygon fill="white" stroke="#666666" points="208,-866 116,-866 116,-847 208,-847 208,-866"/>
<text text-anchor="middle" x="162" y="-854" font-family="Helvetica,sans-Serif" font-size="10.00">ShowFileNumber</text>
</a>
</g>
</g>
<!-- Node1&#45;&gt;Node3 -->
<g id="edge2" class="edge">
<title>Node1&#45;&gt;Node3</title>
<path fill="none" stroke="#63b8ff" d="M80.29,-868.61C88.09,-867.44 96.43,-866.19 104.67,-864.95"/>
<polygon fill="#63b8ff" stroke="#63b8ff" points="104.92,-868.45 114.29,-863.51 103.88,-861.53 104.92,-868.45"/>
</g>
<!-- Node4 -->
<g id="node4" class="node">
<title>Node4</title>
<g id="a_node4"><a xlink:href="TransmitterCode_2src_2main_8cpp.html#afe513398f72d5e48f691830a1ef6eb42" target="_top" xlink:title=" ">
<polygon fill="white" stroke="#666666" points="302,-866 244,-866 244,-847 302,-847 302,-866"/>
<text text-anchor="middle" x="273" y="-854" font-family="Helvetica,sans-Serif" font-size="10.00">SendText</text>
</a>
</g>
</g>
<!-- Node3&#45;&gt;Node4 -->
<g id="edge3" class="edge">
<title>Node3&#45;&gt;Node4</title>
<path fill="none" stroke="#63b8ff" d="M208.28,-856.5C216.2,-856.5 224.39,-856.5 232.16,-856.5"/>
<polygon fill="#63b8ff" stroke="#63b8ff" points="232.01,-860 242.01,-856.5 232.01,-853 232.01,-860"/>
</g>
<!-- Node5 -->
<g id="node5" class="node">
<title>Node5</title>
<g id="a_node5"><a xlink:href="TransmitterCode_2src_2main_8cpp.html#a43937dd3d9c795271fd9c3eb3c6b6410" target="_top" xlink:title=" ">
<polygon fill="white" stroke="#666666" points="540,-847 457,-847 457,-828 540,-828 540,-847"/>
<text text-anchor="middle" x="498.5" y="-835" font-family="Helvetica,sans-Serif" font-size="10.00">GetReturnCode</text>
</a>
</g>
</g>
<!-- Node4&#45;&gt;Node5 -->
<g id="edge4" class="edge">
<title>Node4&#45;&gt;Node5</title>
<path fill="none" stroke="#63b8ff" d="M302.31,-854.09C338.18,-851.04 400.71,-845.73 445.33,-841.93"/>
<polygon fill="#63b8ff" stroke="#63b8ff" points="445.37,-845.44 455.04,-841.11 444.78,-838.47 445.37,-845.44"/>
</g>
<!-- Node6 -->
<g id="node6" class="node">
<title>Node6</title>
<g id="a_node6"><a xlink:href="TransmitterCode_2src_2main_8cpp.html#aecac2f0c289f02ef3c92b85be82eacac" target="_top" xlink:title=" ">
<polygon fill="white" stroke="#666666" points="421,-695 338,-695 338,-676 421,-676 421,-695"/>
<text text-anchor="middle" x="379.5" y="-683" font-family="Helvetica,sans-Serif" font-size="10.00">SendCommand</text>
</a>
</g>
</g>
<!-- Node4&#45;&gt;Node6 -->
<g id="edge5" class="edge">
<title>Node4&#45;&gt;Node6</title>
<path fill="none" stroke="#63b8ff" d="M280.07,-846.57C296.88,-819.06 344.27,-741.52 366.59,-704.99"/>
<polygon fill="#63b8ff" stroke="#63b8ff" points="369.4,-707.11 371.62,-696.75 363.42,-703.46 369.4,-707.11"/>
</g>
<!-- Node6&#45;&gt;Node5 -->
<g id="edge6" class="edge">
<title>Node6&#45;&gt;Node5</title>
<path fill="none" stroke="#63b8ff" d="M384.33,-695.26C393.74,-718.23 419.95,-776.59 457,-813.5 459.95,-816.44 463.34,-819.16 466.86,-821.64"/>
<polygon fill="#63b8ff" stroke="#63b8ff" points="464.72,-824.42 475.05,-826.78 468.44,-818.5 464.72,-824.42"/>
</g>
<!-- Node7 -->
<g id="node7" class="node">
<title>Node7</title>
<g id="a_node7"><a xlink:href="TransmitterCode_2src_2main_8cpp.html#a5f109790a6fe0b972a502f3cac4ed1e7" target="_top" xlink:title=" ">
<polygon fill="white" stroke="#666666" points="522.5,-695 474.5,-695 474.5,-676 522.5,-676 522.5,-695"/>
<text text-anchor="middle" x="498.5" y="-683" font-family="Helvetica,sans-Serif" font-size="10.00">InStrng</text>
</a>
</g>
</g>
<!-- Node6&#45;&gt;Node7 -->
<g id="edge7" class="edge">
<title>Node6&#45;&gt;Node7</title>
<path fill="none" stroke="#63b8ff" d="M421.42,-685.5C434.94,-685.5 449.84,-685.5 462.85,-685.5"/>
<polygon fill="#63b8ff" stroke="#63b8ff" points="462.65,-689 472.65,-685.5 462.65,-682 462.65,-689"/>
</g>
<!-- Node8 -->
<g id="node8" class="node">
<title>Node8</title>
<g id="a_node8"><a xlink:href="RadioFunctions_8cpp.html#a760609a682300dfe6bfaac737fd4d5eb" target="_top" xlink:title=" ">
<polygon fill="white" stroke="#666666" points="535.5,-657 461.5,-657 461.5,-638 535.5,-638 535.5,-657"/>
<text text-anchor="middle" x="498.5" y="-645" font-family="Helvetica,sans-Serif" font-size="10.00">Procrastinate</text>
</a>
</g>
</g>
<!-- Node6&#45;&gt;Node8 -->
<g id="edge8" class="edge">
<title>Node6&#45;&gt;Node8</title>
<path fill="none" stroke="#63b8ff" d="M411.24,-675.52C424.94,-671.07 441.29,-665.75 456.06,-660.96"/>
<polygon fill="#63b8ff" stroke="#63b8ff" points="457.1,-664.3 465.53,-657.88 454.93,-657.65 457.1,-664.3"/>
</g>
<!-- Node9 -->
<g id="node9" class="node">
<title>Node9</title>
<g id="a_node9"><a xlink:href="TransmitterCode_2src_2main_8cpp.html#ada95a00a341e4a80176eda743a94ab2e" target="_top" xlink:title=" ">
<polygon fill="white" stroke="#666666" points="646,-657 576,-657 576,-638 646,-638 646,-657"/>
<text text-anchor="middle" x="611" y="-645" font-family="Helvetica,sans-Serif" font-size="10.00">KickTheDog</text>
</a>
</g>
</g>
<!-- Node8&#45;&gt;Node9 -->
<g id="edge9" class="edge">
<title>Node8&#45;&gt;Node9</title>
<path fill="none" stroke="#63b8ff" d="M535.99,-647.5C545.11,-647.5 555,-647.5 564.49,-647.5"/>
<polygon fill="#63b8ff" stroke="#63b8ff" points="564.28,-651 574.28,-647.5 564.28,-644 564.28,-651"/>
</g>
<!-- Node10 -->
<g id="node10" class="node">
<title>Node10</title>
<g id="a_node10"><a xlink:href="RadioFunctions_8cpp.html#a049bfb836e7aa4a3a48a1a4bd225fafc" target="_top" xlink:title=" ">
<polygon fill="white" stroke="#666666" points="640.5,-620 581.5,-620 581.5,-601 640.5,-601 640.5,-620"/>
<text text-anchor="middle" x="611" y="-608" font-family="Helvetica,sans-Serif" font-size="10.00">SendData</text>
</a>
</g>
</g>
<!-- Node8&#45;&gt;Node10 -->
<g id="edge10" class="edge">
<title>Node8&#45;&gt;Node10</title>
<path fill="none" stroke="#63b8ff" d="M529.11,-637.58C541.82,-633.33 556.86,-628.29 570.5,-623.73"/>
<polygon fill="#63b8ff" stroke="#63b8ff" points="571.26,-627.16 579.64,-620.67 569.04,-620.52 571.26,-627.16"/>
</g>
<!-- Node11 -->
<g id="node11" class="node">
<title>Node11</title>
<g id="a_node11"><a xlink:href="RadioFunctions_8cpp.html#a5fbd3c8613a4163425c94965704ce5f8" target="_top" xlink:title=" ">
<polygon fill="white" stroke="#666666" points="763.5,-582 689.5,-582 689.5,-563 763.5,-563 763.5,-582"/>
<text text-anchor="middle" x="726.5" y="-570" font-family="Helvetica,sans-Serif" font-size="10.00">FailedPacket</text>
</a>
</g>
</g>
<!-- Node10&#45;&gt;Node11 -->
<g id="edge11" class="edge">
<title>Node10&#45;&gt;Node11</title>
<path fill="none" stroke="#63b8ff" d="M640.93,-600.81C654.33,-596.33 670.48,-590.92 685.06,-586.04"/>
<polygon fill="#63b8ff" stroke="#63b8ff" points="686.02,-589.41 694.39,-582.91 683.8,-582.77 686.02,-589.41"/>
</g>
<!-- Node48 -->
<g id="node32" class="node">
<title>Node48</title>
<g id="a_node32"><a xlink:href="RadioFunctions_8cpp.html#a07c27b4e208198453c70876517926052" target="_top" xlink:title=" ">
<polygon fill="white" stroke="#666666" points="757.5,-695 695.5,-695 695.5,-676 757.5,-676 757.5,-695"/>
<text text-anchor="middle" x="726.5" y="-683" font-family="Helvetica,sans-Serif" font-size="10.00">FlushFifos</text>
</a>
</g>
</g>
<!-- Node10&#45;&gt;Node48 -->
<g id="edge48" class="edge">
<title>Node10&#45;&gt;Node48</title>
<path fill="none" stroke="#63b8ff" d="M632.06,-620.38C636.81,-623.08 641.73,-626.18 646,-629.5 664.36,-643.78 662.83,-654.32 682,-667.5 683.39,-668.46 684.84,-669.37 686.32,-670.25"/>
<polygon fill="#63b8ff" stroke="#63b8ff" points="684.69,-673.35 695.18,-674.83 687.9,-667.13 684.69,-673.35"/>
</g>
<!-- Node49 -->
<g id="node33" class="node">
<title>Node49</title>
<g id="a_node33"><a xlink:href="TransmitterCode_2src_2main_8cpp.html#ac4ffb9b555ce8d38f615610dc89b5499" target="_top" xlink:title=" ">
<polygon fill="white" stroke="#666666" points="771,-545 682,-545 682,-526 771,-526 771,-545"/>
<text text-anchor="middle" x="726.5" y="-533" font-family="Helvetica,sans-Serif" font-size="10.00">LoadPacketData</text>
</a>
</g>
</g>
<!-- Node10&#45;&gt;Node49 -->
<g id="edge49" class="edge">
<title>Node10&#45;&gt;Node49</title>
<path fill="none" stroke="#63b8ff" d="M622.19,-600.58C635.21,-588.29 658.85,-567.31 682,-553.5 683.9,-552.37 685.87,-551.28 687.9,-550.23"/>
<polygon fill="#63b8ff" stroke="#63b8ff" points="689.3,-553.44 696.85,-546 686.31,-547.11 689.3,-553.44"/>
</g>
<!-- Node52 -->
<g id="node36" class="node">
<title>Node52</title>
<g id="a_node36"><a xlink:href="ReceiverCode_2src_2main_8cpp.html#a6a495c5560f12cc3fd3df9454927d681" target="_top" xlink:title=" ">
<polygon fill="white" stroke="#666666" points="763.5,-658 689.5,-658 689.5,-639 763.5,-639 763.5,-658"/>
<text text-anchor="middle" x="726.5" y="-646" font-family="Helvetica,sans-Serif" font-size="10.00">MapToSBUS</text>
</a>
</g>
</g>
<!-- Node10&#45;&gt;Node52 -->
<g id="edge54" class="edge">
<title>Node10&#45;&gt;Node52</title>
<path fill="none" stroke="#63b8ff" d="M640.93,-620.19C654.33,-624.67 670.48,-630.08 685.06,-634.96"/>
<polygon fill="#63b8ff" stroke="#63b8ff" points="683.8,-638.23 694.39,-638.09 686.02,-631.59 683.8,-638.23"/>
</g>
<!-- Node53 -->
<g id="node37" class="node">
<title>Node53</title>
<g id="a_node37"><a xlink:href="RadioFunctions_8cpp.html#a1c11bb6771548de7d96723045b922620" target="_top" xlink:title=" ">
<polygon fill="white" stroke="#666666" points="1050.5,-657 954.5,-657 954.5,-638 1050.5,-638 1050.5,-657"/>
<text text-anchor="middle" x="1002.5" y="-645" font-family="Helvetica,sans-Serif" font-size="10.00">SuccessfulPacket</text>
</a>
</g>
</g>
<!-- Node10&#45;&gt;Node53 -->
<g id="edge55" class="edge">
<title>Node10&#45;&gt;Node53</title>
<path fill="none" stroke="#63b8ff" d="M640.96,-613.25C704.67,-619.3 858.07,-633.87 942.8,-641.92"/>
<polygon fill="#63b8ff" stroke="#63b8ff" points="942.24,-645.39 952.53,-642.85 942.9,-638.42 942.24,-645.39"/>
</g>
<!-- Node12 -->
<g id="node12" class="node">
<title>Node12</title>
<g id="a_node12"><a xlink:href="TransmitterCode_2src_2main_8cpp.html#afd409fe008843b50c3e2ff697558d4d5" target="_top" xlink:title=" ">
<polygon fill="white" stroke="#666666" points="1357,-564 1265,-564 1265,-545 1357,-545 1357,-564"/>
<text text-anchor="middle" x="1311" y="-552" font-family="Helvetica,sans-Serif" font-size="10.00">LogThisLongGap</text>
</a>
</g>
</g>
<!-- Node11&#45;&gt;Node12 -->
<g id="edge12" class="edge">
<title>Node11&#45;&gt;Node12</title>
<path fill="none" stroke="#63b8ff" d="M763.62,-582.46C777.12,-585.71 792.65,-588.9 807,-590.5 915.66,-602.65 951.99,-632.34 1053,-590.5 1073.91,-581.84 1068.09,-563.16 1089,-554.5 1141.61,-532.71 1207.5,-536.18 1253.59,-542.95"/>
<polygon fill="#63b8ff" stroke="#63b8ff" points="1252.94,-546.4 1263.37,-544.5 1254.04,-539.48 1252.94,-546.4"/>
</g>
<!-- Node23 -->
<g id="node15" class="node">
<title>Node23</title>
<g id="a_node15"><a xlink:href="RadioFunctions_8cpp.html#afc091b5942e21a03f6dc8635d5e519ba" target="_top" xlink:title=" ">
<polygon fill="white" stroke="#666666" points="1211,-583 1089,-583 1089,-564 1211,-564 1211,-583"/>
<text text-anchor="middle" x="1150" y="-571" font-family="Helvetica,sans-Serif" font-size="10.00">RecordsPacketSuccess</text>
</a>
</g>
</g>
<!-- Node11&#45;&gt;Node23 -->
<g id="edge15" class="edge">
<title>Node11&#45;&gt;Node23</title>
<path fill="none" stroke="#63b8ff" d="M756.83,-562.55C799.27,-548.74 880.58,-524.43 952,-515.5 996.54,-509.93 1009.76,-503.45 1053,-515.5 1081.62,-523.47 1110.23,-542.55 1128.67,-556.65"/>
<polygon fill="#63b8ff" stroke="#63b8ff" points="1126.36,-559.29 1136.38,-562.75 1130.7,-553.8 1126.36,-559.29"/>
</g>
<!-- Node24 -->
<g id="node16" class="node">
<title>Node24</title>
<g id="a_node16"><a xlink:href="TransmitterCode_2src_2main_8cpp.html#a7d34cec6e8edc20c8b50424e15dcc7c7" target="_top" xlink:title=" ">
<polygon fill="white" stroke="#666666" points="893,-809 830,-809 830,-790 893,-790 893,-809"/>
<text text-anchor="middle" x="861.5" y="-797" font-family="Helvetica,sans-Serif" font-size="10.00">RedLedOn</text>
</a>
</g>
</g>
<!-- Node11&#45;&gt;Node24 -->
<g id="edge16" class="edge">
<title>Node11&#45;&gt;Node24</title>
<path fill="none" stroke="#63b8ff" d="M735.7,-582.42C744.84,-593.71 759.81,-612.86 771,-630.5 803.79,-682.19 835.77,-747.08 851.1,-779.35"/>
<polygon fill="#63b8ff" stroke="#63b8ff" points="847.89,-780.75 855.32,-788.3 854.22,-777.77 847.89,-780.75"/>
</g>
<!-- Node43 -->
<g id="node28" class="node">
<title>Node43</title>
<g id="a_node28"><a xlink:href="TransmitterCode_2src_2main_8cpp.html#a0a3d89dfcfab70c6cbc50401fff1afeb" target="_top" xlink:title=" ">
<polygon fill="white" stroke="#666666" points="916,-392 807,-392 807,-373 916,-373 916,-392"/>
<text text-anchor="middle" x="861.5" y="-380" font-family="Helvetica,sans-Serif" font-size="10.00">ReEnableScanButton</text>
</a>
</g>
</g>
<!-- Node11&#45;&gt;Node43 -->
<g id="edge42" class="edge">
<title>Node11&#45;&gt;Node43</title>
<path fill="none" stroke="#63b8ff" d="M759.14,-562.61C763.55,-560.17 767.69,-557.18 771,-553.5 806.53,-513.99 780.15,-485.35 807,-439.5 815.77,-424.53 829.12,-410.3 840.29,-399.8"/>
<polygon fill="#63b8ff" stroke="#63b8ff" points="842.46,-402.56 847.53,-393.25 837.76,-397.36 842.46,-402.56"/>
</g>
<!-- Node44 -->
<g id="node29" class="node">
<title>Node44</title>
<g id="a_node29"><a xlink:href="RadioFunctions_8cpp.html#ad0236abcfc887ad708d9504c4ab2a7c3" target="_top" xlink:title=" ">
<polygon fill="white" stroke="#666666" points="905.5,-581 817.5,-581 817.5,-562 905.5,-562 905.5,-581"/>
<text text-anchor="middle" x="861.5" y="-569" font-family="Helvetica,sans-Serif" font-size="10.00">TryToReconnect</text>
</a>
</g>
</g>
<!-- Node11&#45;&gt;Node44 -->
<g id="edge45" class="edge">
<title>Node11&#45;&gt;Node44</title>
<path fill="none" stroke="#63b8ff" d="M763.84,-572.23C776.83,-572.13 791.76,-572.02 805.95,-571.91"/>
<polygon fill="#63b8ff" stroke="#63b8ff" points="805.62,-575.41 815.6,-571.84 805.57,-568.41 805.62,-575.41"/>
</g>
<!-- Node13 -->
<g id="node13" class="node">
<title>Node13</title>
<g id="a_node13"><a xlink:href="TransmitterCode_2src_2main_8cpp.html#add8d8f400f1c1c4a5add52736cdf94ca" target="_top" xlink:title=" ">
<polygon fill="#fff0f0" stroke="red" points="1490.5,-704 1438.5,-704 1438.5,-685 1490.5,-685 1490.5,-704"/>
<text text-anchor="middle" x="1464.5" y="-692" font-family="Helvetica,sans-Serif" font-size="10.00">LogText</text>
</a>
</g>
</g>
<!-- Node12&#45;&gt;Node13 -->
<g id="edge13" class="edge">
<title>Node12&#45;&gt;Node13</title>
<path fill="none" stroke="#63b8ff" d="M1331.79,-564.35C1344.76,-571.29 1361.71,-581.32 1375,-592.5 1405.05,-617.78 1433.66,-653.64 1449.85,-675.41"/>
<polygon fill="#63b8ff" stroke="#63b8ff" points="1446.95,-677.37 1455.67,-683.38 1452.6,-673.24 1446.95,-677.37"/>
</g>
<!-- Node18 -->
<g id="node14" class="node">
<title>Node18</title>
<g id="a_node14"><a xlink:href="TransmitterCode_2src_2main_8cpp.html#a590a9174319918d7e3d7baca323fcf26" target="_top" xlink:title=" ">
<polygon fill="white" stroke="#666666" points="1479,-564 1450,-564 1450,-545 1479,-545 1479,-564"/>
<text text-anchor="middle" x="1464.5" y="-552" font-family="Helvetica,sans-Serif" font-size="10.00">Str</text>
</a>
</g>
</g>
<!-- Node12&#45;&gt;Node18 -->
<g id="edge14" class="edge">
<title>Node12&#45;&gt;Node18</title>
<path fill="none" stroke="#63b8ff" d="M1357.45,-554.5C1383.95,-554.5 1416.37,-554.5 1438.34,-554.5"/>
<polygon fill="#63b8ff" stroke="#63b8ff" points="1438.14,-558 1448.14,-554.5 1438.14,-551 1438.14,-558"/>
</g>
<!-- Node24&#45;&gt;Node4 -->
<g id="edge24" class="edge">
<title>Node24&#45;&gt;Node4</title>
<path fill="none" stroke="#63b8ff" d="M848.97,-809.22C815.04,-836.79 711.68,-913.5 612,-913.5 497.5,-913.5 497.5,-913.5 497.5,-913.5 425.81,-913.5 406.21,-911.55 338,-889.5 324.7,-885.2 310.82,-878.36 299.39,-872.03"/>
<polygon fill="#63b8ff" stroke="#63b8ff" points="301.4,-869.14 290.99,-867.19 297.91,-875.21 301.4,-869.14"/>
</g>
<!-- Node24&#45;&gt;Node6 -->
<g id="edge23" class="edge">
<title>Node24&#45;&gt;Node6</title>
<path fill="none" stroke="#63b8ff" d="M829.7,-799.34C760.56,-798.02 588.75,-789.32 457,-737.5 435.91,-729.21 414.83,-714.26 400.16,-702.51"/>
<polygon fill="#63b8ff" stroke="#63b8ff" points="402.61,-699.99 392.67,-696.32 398.15,-705.39 402.61,-699.99"/>
</g>
<!-- Node25 -->
<g id="node17" class="node">
<title>Node25</title>
<g id="a_node17"><a xlink:href="TransmitterCode_2src_2main_8cpp.html#a549a702bb9b539c6b3a4f20cce65adcc" target="_top" xlink:title=" ">
<polygon fill="white" stroke="#666666" points="1360,-825 1262,-825 1262,-806 1360,-806 1360,-825"/>
<text text-anchor="middle" x="1311" y="-813" font-family="Helvetica,sans-Serif" font-size="10.00">GetLEDBrightness</text>
</a>
</g>
</g>
<!-- Node24&#45;&gt;Node25 -->
<g id="edge17" class="edge">
<title>Node24&#45;&gt;Node25</title>
<path fill="none" stroke="#63b8ff" d="M893.26,-800.6C966.79,-803.23 1153.79,-809.91 1250.32,-813.37"/>
<polygon fill="#63b8ff" stroke="#63b8ff" points="1250,-816.86 1260.12,-813.72 1250.25,-809.86 1250,-816.86"/>
</g>
<!-- Node26 -->
<g id="node18" class="node">
<title>Node26</title>
<g id="a_node18"><a xlink:href="TransmitterCode_2src_2main_8cpp.html#a2d5ec5fd5ed62d5b7b071fabe2225405" target="_top" xlink:title=" ">
<polygon fill="white" stroke="#666666" points="1198,-923 1102,-923 1102,-904 1198,-904 1198,-923"/>
<text text-anchor="middle" x="1150" y="-911" font-family="Helvetica,sans-Serif" font-size="10.00">LogDisConnection</text>
</a>
</g>
</g>
<!-- Node24&#45;&gt;Node26 -->
<g id="edge18" class="edge">
<title>Node24&#45;&gt;Node26</title>
<path fill="none" stroke="#63b8ff" d="M887.42,-809.42C938.33,-829.67 1054.38,-875.85 1113.29,-899.29"/>
<polygon fill="#63b8ff" stroke="#63b8ff" points="1111.94,-902.52 1122.52,-902.96 1114.53,-896.02 1111.94,-902.52"/>
</g>
<!-- Node27 -->
<g id="node19" class="node">
<title>Node27</title>
<g id="a_node19"><a xlink:href="TransmitterCode_2src_2main_8cpp.html#aa490b4664b0a4498d53b30b82287d5df" target="_top" xlink:title=" ">
<polygon fill="white" stroke="#666666" points="1342.5,-677 1279.5,-677 1279.5,-658 1342.5,-658 1342.5,-677"/>
<text text-anchor="middle" x="1311" y="-665" font-family="Helvetica,sans-Serif" font-size="10.00">PlaySound</text>
</a>
</g>
</g>
<!-- Node24&#45;&gt;Node27 -->
<g id="edge20" class="edge">
<title>Node24&#45;&gt;Node27</title>
<path fill="none" stroke="#63b8ff" d="M893.39,-791.8C975.88,-771.21 1196.12,-715.98 1211,-709.5 1228.41,-701.92 1229.75,-694.43 1247,-686.5 1253.76,-683.4 1261.15,-680.64 1268.42,-678.26"/>
<polygon fill="#63b8ff" stroke="#63b8ff" points="1269.27,-681.66 1277.81,-675.38 1267.22,-674.97 1269.27,-681.66"/>
</g>
<!-- Node28 -->
<g id="node20" class="node">
<title>Node28</title>
<g id="a_node20"><a xlink:href="ReceiverCode_2src_2main_8cpp.html#a2eabdb233653fa02f0b899e26b5e8ce7" target="_top" xlink:title=" ">
<polygon fill="white" stroke="#666666" points="1052,-695 953,-695 953,-676 1052,-676 1052,-695"/>
<text text-anchor="middle" x="1002.5" y="-683" font-family="Helvetica,sans-Serif" font-size="10.00">SetUKFrequencies</text>
</a>
</g>
</g>
<!-- Node24&#45;&gt;Node28 -->
<g id="edge25" class="edge">
<title>Node24&#45;&gt;Node28</title>
<path fill="none" stroke="#63b8ff" d="M869.56,-789.67C883.43,-770.96 916.03,-729.95 952,-705.5 954.69,-703.67 957.58,-701.96 960.56,-700.38"/>
<polygon fill="#63b8ff" stroke="#63b8ff" points="961.97,-703.59 969.51,-696.14 958.97,-697.26 961.97,-703.59"/>
</g>
<!-- Node29 -->
<g id="node21" class="node">
<title>Node29</title>
<g id="a_node21"><a xlink:href="TransmitterCode_2src_2main_8cpp.html#a5d3a46c21927cf7a3031a1e68e0b7b48" target="_top" xlink:title="SHOW COMMS.">
<polygon fill="#fff0f0" stroke="red" points="1040,-733 965,-733 965,-714 1040,-714 1040,-733"/>
<text text-anchor="middle" x="1002.5" y="-721" font-family="Helvetica,sans-Serif" font-size="10.00">ShowComms</text>
</a>
</g>
</g>
<!-- Node24&#45;&gt;Node29 -->
<g id="edge26" class="edge">
<title>Node24&#45;&gt;Node29</title>
<path fill="none" stroke="#63b8ff" d="M887.9,-789.59C897,-785.65 907.19,-780.8 916,-775.5 933.37,-765.05 934.79,-758.2 952,-747.5 957.22,-744.25 962.95,-741.12 968.59,-738.25"/>
<polygon fill="#63b8ff" stroke="#63b8ff" points="969.73,-741.59 977.18,-734.07 966.66,-735.3 969.73,-741.59"/>
</g>
<!-- Node26&#45;&gt;Node13 -->
<g id="edge19" class="edge">
<title>Node26&#45;&gt;Node13</title>
<path fill="none" stroke="#63b8ff" d="M1198.27,-916.28C1247.25,-916.71 1323.67,-910.22 1375,-871.5 1427.49,-831.91 1450.96,-752.6 1459.46,-715.08"/>
<polygon fill="#63b8ff" stroke="#63b8ff" points="1462.83,-716.06 1461.48,-705.55 1455.98,-714.61 1462.83,-716.06"/>
</g>
<!-- Node27&#45;&gt;Node6 -->
<g id="edge21" class="edge">
<title>Node27&#45;&gt;Node6</title>
<path fill="none" stroke="#63b8ff" d="M1286.75,-657.57C1273.75,-651.1 1258,-641.6 1247,-629.5 1222.13,-602.14 1235.45,-582.24 1211,-554.5 1138.41,-472.14 1113.28,-420.5 1003.5,-420.5 610,-420.5 610,-420.5 610,-420.5 480.76,-420.5 408.02,-602.82 386.97,-665.01"/>
<polygon fill="#63b8ff" stroke="#63b8ff" points="383.71,-663.72 383.92,-674.32 390.36,-665.9 383.71,-663.72"/>
</g>
<!-- Node27&#45;&gt;Node18 -->
<g id="edge22" class="edge">
<title>Node27&#45;&gt;Node18</title>
<path fill="none" stroke="#63b8ff" d="M1330.14,-657.59C1343,-650.32 1360.48,-639.93 1375,-629.5 1400.35,-611.29 1427.44,-587.64 1444.88,-571.81"/>
<polygon fill="#63b8ff" stroke="#63b8ff" points="1446.93,-574.68 1451.94,-565.34 1442.2,-569.52 1446.93,-574.68"/>
</g>
<!-- Node29&#45;&gt;Node4 -->
<g id="edge40" class="edge">
<title>Node29&#45;&gt;Node4</title>
<path fill="none" stroke="#63b8ff" d="M967.95,-733.41C865.42,-763.65 561.86,-852.94 540,-856.5 487.75,-865 473.92,-860.39 421,-861.5 384.12,-862.27 374.86,-862.94 338,-861.5 330.14,-861.19 321.76,-860.68 313.73,-860.09"/>
<polygon fill="#63b8ff" stroke="#63b8ff" points="314.08,-856.6 303.84,-859.31 313.53,-863.58 314.08,-856.6"/>
</g>
<!-- Node29&#45;&gt;Node6 -->
<g id="edge39" class="edge">
<title>Node29&#45;&gt;Node6</title>
<path fill="none" stroke="#63b8ff" d="M964.72,-723.5C912.12,-723.5 812.41,-723.5 727.5,-723.5 610,-723.5 610,-723.5 610,-723.5 546.71,-723.5 474.9,-709.26 428.72,-698.21"/>
<polygon fill="#63b8ff" stroke="#63b8ff" points="429.57,-694.82 419.02,-695.84 427.91,-701.62 429.57,-694.82"/>
</g>
<!-- Node29&#45;&gt;Node27 -->
<g id="edge38" class="edge">
<title>Node29&#45;&gt;Node27</title>
<path fill="none" stroke="#63b8ff" d="M1040.47,-716.75C1097.91,-706.25 1208.21,-686.1 1268.37,-675.11"/>
<polygon fill="#63b8ff" stroke="#63b8ff" points="1268.65,-678.61 1277.86,-673.37 1267.39,-671.73 1268.65,-678.61"/>
</g>
<!-- Node34 -->
<g id="node22" class="node">
<title>Node34</title>
<g id="a_node22"><a xlink:href="TransmitterCode_2src_2main_8cpp.html#a62e53eb9359c32b666e3386d62c57037" target="_top" xlink:title=" ">
<polygon fill="white" stroke="#666666" points="1186,-771 1114,-771 1114,-752 1186,-752 1186,-771"/>
<text text-anchor="middle" x="1150" y="-759" font-family="Helvetica,sans-Serif" font-size="10.00">GreenLedOn</text>
</a>
</g>
</g>
<!-- Node29&#45;&gt;Node34 -->
<g id="edge27" class="edge">
<title>Node29&#45;&gt;Node34</title>
<path fill="none" stroke="#63b8ff" d="M1040.22,-727.14C1064.41,-732.29 1095.73,-740.58 1118.54,-747.93"/>
<polygon fill="#63b8ff" stroke="#63b8ff" points="1117.27,-751.2 1127.87,-751.08 1119.51,-744.57 1117.27,-751.2"/>
</g>
<!-- Node38 -->
<g id="node25" class="node">
<title>Node38</title>
<g id="a_node25"><a xlink:href="TransmitterCode_2src_2main_8cpp.html#a2e38b32674344cfc06b09a71dfcaf3f1" target="_top" xlink:title=" ">
<polygon fill="white" stroke="#666666" points="1373.5,-862 1248.5,-862 1248.5,-843 1373.5,-843 1373.5,-862"/>
<text text-anchor="middle" x="1311" y="-850" font-family="Helvetica,sans-Serif" font-size="10.00">MakeBindButtonInvisible</text>
</a>
</g>
</g>
<!-- Node29&#45;&gt;Node38 -->
<g id="edge37" class="edge">
<title>Node29&#45;&gt;Node38</title>
<path fill="none" stroke="#63b8ff" d="M1016.19,-733.5C1032.35,-745.85 1061.49,-766.91 1089,-780.5 1155.54,-813.36 1176.19,-812.3 1247,-834.5 1252.16,-836.12 1257.57,-837.75 1262.96,-839.35"/>
<polygon fill="#63b8ff" stroke="#63b8ff" points="1261.89,-842.68 1272.47,-842.11 1263.85,-835.96 1261.89,-842.68"/>
</g>
<!-- Node42 -->
<g id="node27" class="node">
<title>Node42</title>
<g id="a_node27"><a xlink:href="TransmitterCode_2src_2main_8cpp.html#a793b7bcd77531c95fe72ed4356d421c8" target="_top" xlink:title=" ">
<polygon fill="white" stroke="#666666" points="1205,-657 1095,-657 1095,-638 1205,-638 1205,-657"/>
<text text-anchor="middle" x="1150" y="-645" font-family="Helvetica,sans-Serif" font-size="10.00">StartInactvityTimeout</text>
</a>
</g>
</g>
<!-- Node29&#45;&gt;Node42 -->
<g id="edge41" class="edge">
<title>Node29&#45;&gt;Node42</title>
<path fill="none" stroke="#63b8ff" d="M1034.72,-713.57C1040.98,-711.02 1047.36,-707.99 1053,-704.5 1071.46,-693.08 1070.62,-683.05 1089,-671.5 1094.72,-667.9 1101.07,-664.67 1107.43,-661.83"/>
<polygon fill="#63b8ff" stroke="#63b8ff" points="1108.76,-665.07 1116.66,-658.01 1106.08,-658.6 1108.76,-665.07"/>
</g>
<!-- Node34&#45;&gt;Node25 -->
<g id="edge29" class="edge">
<title>Node34&#45;&gt;Node25</title>
<path fill="none" stroke="#63b8ff" d="M1175.67,-771.38C1194.95,-778.94 1222.49,-789.42 1247,-797.5 1252,-799.15 1257.26,-800.79 1262.51,-802.37"/>
<polygon fill="#63b8ff" stroke="#63b8ff" points="1261.17,-805.63 1271.75,-805.1 1263.15,-798.91 1261.17,-805.63"/>
</g>
<!-- Node34&#45;&gt;Node27 -->
<g id="edge34" class="edge">
<title>Node34&#45;&gt;Node27</title>
<path fill="none" stroke="#63b8ff" d="M1185.53,-751.59C1194.39,-748.04 1203.52,-743.41 1211,-737.5 1232.78,-720.31 1224.49,-702.72 1247,-686.5 1253.35,-681.92 1260.82,-678.43 1268.35,-675.78"/>
<polygon fill="#63b8ff" stroke="#63b8ff" points="1269.29,-679.15 1277.85,-672.9 1267.26,-672.45 1269.29,-679.15"/>
</g>
<!-- Node34&#45;&gt;Node29 -->
<g id="edge35" class="edge">
<title>Node34&#45;&gt;Node29</title>
<path fill="none" stroke="#63b8ff" d="M1113.53,-758.13C1089.09,-752.98 1056.96,-744.49 1033.74,-736.99"/>
<polygon fill="#63b8ff" stroke="#63b8ff" points="1035.15,-733.78 1024.56,-733.9 1032.91,-740.41 1035.15,-733.78"/>
</g>
<!-- Node35 -->
<g id="node23" class="node">
<title>Node35</title>
<g id="a_node23"><a xlink:href="TransmitterCode_2src_2main_8cpp.html#a82b1900a80d1622896601c57d6edaeda" target="_top" xlink:title=" ">
<polygon fill="white" stroke="#666666" points="1360,-751 1262,-751 1262,-732 1360,-732 1360,-751"/>
<text text-anchor="middle" x="1311" y="-739" font-family="Helvetica,sans-Serif" font-size="10.00">ClearSuccessRate</text>
</a>
</g>
</g>
<!-- Node34&#45;&gt;Node35 -->
<g id="edge28" class="edge">
<title>Node34&#45;&gt;Node35</title>
<path fill="none" stroke="#63b8ff" d="M1186.29,-757.06C1205.05,-754.7 1228.64,-751.73 1250.18,-749.03"/>
<polygon fill="#63b8ff" stroke="#63b8ff" points="1250.56,-752.5 1260.04,-747.78 1249.69,-745.56 1250.56,-752.5"/>
</g>
<!-- Node36 -->
<g id="node24" class="node">
<title>Node36</title>
<g id="a_node24"><a xlink:href="TransmitterCode_2src_2main_8cpp.html#aaa3e86084c43b049d52d7d62c58a00b9" target="_top" xlink:title=" ">
<polygon fill="#fff0f0" stroke="red" points="1352,-788 1270,-788 1270,-769 1352,-769 1352,-788"/>
<text text-anchor="middle" x="1311" y="-776" font-family="Helvetica,sans-Serif" font-size="10.00">LogConnection</text>
</a>
</g>
</g>
<!-- Node34&#45;&gt;Node36 -->
<g id="edge30" class="edge">
<title>Node34&#45;&gt;Node36</title>
<path fill="none" stroke="#63b8ff" d="M1186.29,-765.27C1207.52,-767.54 1234.91,-770.47 1258.52,-773"/>
<polygon fill="#63b8ff" stroke="#63b8ff" points="1257.95,-776.45 1268.26,-774.04 1258.69,-769.49 1257.95,-776.45"/>
</g>
<!-- Node34&#45;&gt;Node38 -->
<g id="edge32" class="edge">
<title>Node34&#45;&gt;Node38</title>
<path fill="none" stroke="#63b8ff" d="M1185.14,-771.38C1194.1,-774.95 1203.37,-779.59 1211,-785.5 1232.37,-802.04 1224.82,-819.07 1247,-834.5 1248.61,-835.62 1250.28,-836.66 1252,-837.65"/>
<polygon fill="#63b8ff" stroke="#63b8ff" points="1250.45,-840.78 1260.98,-841.95 1253.47,-834.47 1250.45,-840.78"/>
</g>
<!-- Node39 -->
<g id="node26" class="node">
<title>Node39</title>
<g id="a_node26"><a xlink:href="TransmitterCode_2src_2main_8cpp.html#a6da9a1fd0b003151f79eabc702ba80ff" target="_top" xlink:title=" ">
<polygon fill="white" stroke="#666666" points="1354.5,-714 1267.5,-714 1267.5,-695 1354.5,-695 1354.5,-714"/>
<text text-anchor="middle" x="1311" y="-702" font-family="Helvetica,sans-Serif" font-size="10.00">ZeroDataScreen</text>
</a>
</g>
</g>
<!-- Node34&#45;&gt;Node39 -->
<g id="edge36" class="edge">
<title>Node34&#45;&gt;Node39</title>
<path fill="none" stroke="#63b8ff" d="M1175.65,-751.62C1201.69,-741.2 1239.97,-725.95 1247,-723.5 1252.66,-721.53 1258.66,-719.57 1264.6,-717.69"/>
<polygon fill="#63b8ff" stroke="#63b8ff" points="1265.2,-721.17 1273.72,-714.88 1263.14,-714.48 1265.2,-721.17"/>
</g>
<!-- Node36&#45;&gt;Node13 -->
<g id="edge31" class="edge">
<title>Node36&#45;&gt;Node13</title>
<path fill="none" stroke="#63b8ff" d="M1352.48,-769.29C1360.15,-766.89 1367.97,-763.98 1375,-760.5 1401.09,-747.59 1427.37,-726.77 1444.44,-711.97"/>
<polygon fill="#63b8ff" stroke="#63b8ff" points="1446.62,-714.71 1451.77,-705.46 1441.97,-709.47 1446.62,-714.71"/>
</g>
<!-- Node38&#45;&gt;Node6 -->
<g id="edge33" class="edge">
<title>Node38&#45;&gt;Node6</title>
<path fill="none" stroke="#63b8ff" d="M1248.08,-851.48C1121.04,-848.47 822.18,-836.77 576,-791.5 522.66,-781.69 504.27,-791.08 457,-764.5 430.46,-749.58 407.3,-722.59 393.61,-704.36"/>
<polygon fill="#63b8ff" stroke="#63b8ff" points="396.61,-702.53 387.9,-696.49 390.94,-706.64 396.61,-702.53"/>
</g>
<!-- Node43&#45;&gt;Node6 -->
<g id="edge43" class="edge">
<title>Node43&#45;&gt;Node6</title>
<path fill="none" stroke="#63b8ff" d="M825.82,-372.53C749.59,-352.92 565.61,-318.44 457,-406.5 416.11,-439.65 390.89,-605.58 383.1,-664.61"/>
<polygon fill="#63b8ff" stroke="#63b8ff" points="379.66,-663.92 381.86,-674.28 386.6,-664.81 379.66,-663.92"/>
</g>
<!-- Node43&#45;&gt;Node18 -->
<g id="edge44" class="edge">
<title>Node43&#45;&gt;Node18</title>
<path fill="none" stroke="#63b8ff" d="M916.43,-378.7C986.12,-375.47 1110.46,-375.46 1211,-406.5 1304.94,-435.5 1401.12,-505.21 1442.49,-537.52"/>
<polygon fill="#63b8ff" stroke="#63b8ff" points="1440.15,-540.14 1450.17,-543.6 1444.49,-534.65 1440.15,-540.14"/>
</g>
<!-- Node45 -->
<g id="node30" class="node">
<title>Node45</title>
<g id="a_node30"><a xlink:href="RadioFunctions_8cpp.html#a52aa3e80bccf5e75346c93fdae63122d" target="_top" xlink:title=" ">
<polygon fill="white" stroke="#666666" points="1053,-581 952,-581 952,-562 1053,-562 1053,-581"/>
<text text-anchor="middle" x="1002.5" y="-569" font-family="Helvetica,sans-Serif" font-size="10.00">HopToNextChannel</text>
</a>
</g>
</g>
<!-- Node44&#45;&gt;Node45 -->
<g id="edge46" class="edge">
<title>Node44&#45;&gt;Node45</title>
<path fill="none" stroke="#63b8ff" d="M905.72,-571.5C916.83,-571.5 928.99,-571.5 940.81,-571.5"/>
<polygon fill="#63b8ff" stroke="#63b8ff" points="940.48,-575 950.48,-571.5 940.48,-568 940.48,-575"/>
</g>
<!-- Node46 -->
<g id="node31" class="node">
<title>Node46</title>
<g id="a_node31"><a xlink:href="RadioFunctions_8cpp.html#ad0e30213b21808d00110752679788a8c" target="_top" xlink:title=" ">
<polygon fill="#fff0f0" stroke="red" points="1039.5,-544 965.5,-544 965.5,-525 1039.5,-525 1039.5,-544"/>
<text text-anchor="middle" x="1002.5" y="-532" font-family="Helvetica,sans-Serif" font-size="10.00">TryOtherPipe</text>
</a>
</g>
</g>
<!-- Node44&#45;&gt;Node46 -->
<g id="edge47" class="edge">
<title>Node44&#45;&gt;Node46</title>
<path fill="none" stroke="#63b8ff" d="M899.75,-561.58C916.45,-557.14 936.35,-551.84 954.1,-547.12"/>
<polygon fill="#63b8ff" stroke="#63b8ff" points="954.88,-550.53 963.65,-544.58 953.08,-543.77 954.88,-550.53"/>
</g>
<!-- Node49&#45;&gt;Node6 -->
<g id="edge51" class="edge">
<title>Node49&#45;&gt;Node6</title>
<path fill="none" stroke="#63b8ff" d="M685.76,-545.44C631.99,-559.77 533.93,-589.03 457,-629.5 436.45,-640.31 415.31,-656.22 400.48,-668.32"/>
<polygon fill="#63b8ff" stroke="#63b8ff" points="398.31,-665.57 392.87,-674.66 402.8,-670.94 398.31,-665.57"/>
</g>
<!-- Node49&#45;&gt;Node28 -->
<g id="edge53" class="edge">
<title>Node49&#45;&gt;Node28</title>
<path fill="none" stroke="#63b8ff" d="M755.98,-545.32C761.17,-547.65 766.4,-550.38 771,-553.5 789.99,-566.37 788.61,-576.78 807,-590.5 865.32,-634.01 885.7,-636.52 952,-666.5 955.59,-668.12 959.36,-669.73 963.16,-671.29"/>
<polygon fill="#63b8ff" stroke="#63b8ff" points="961.78,-674.51 972.37,-674.95 964.37,-668.01 961.78,-674.51"/>
</g>
<!-- Node50 -->
<g id="node34" class="node">
<title>Node50</title>
<g id="a_node34"><a xlink:href="TransmitterCode_2src_2main_8cpp.html#a5aa4888b924a4f1d95e9cedc3004f2b6" target="_top" xlink:title=" ">
<polygon fill="white" stroke="#666666" points="903,-505 820,-505 820,-486 903,-486 903,-505"/>
<text text-anchor="middle" x="861.5" y="-493" font-family="Helvetica,sans-Serif" font-size="10.00">MakeTwobytes</text>
</a>
</g>
</g>
<!-- Node49&#45;&gt;Node50 -->
<g id="edge50" class="edge">
<title>Node49&#45;&gt;Node50</title>
<path fill="none" stroke="#63b8ff" d="M760.72,-525.51C777.67,-520.41 798.5,-514.15 816.74,-508.66"/>
<polygon fill="#63b8ff" stroke="#63b8ff" points="817.69,-512.03 826.26,-505.8 815.67,-505.33 817.69,-512.03"/>
</g>
<!-- Node51 -->
<g id="node35" class="node">
<title>Node51</title>
<g id="a_node35"><a xlink:href="ReceiverCode_2src_2main_8cpp.html#a31a35307bbac88ceda244272f25d399a" target="_top" xlink:title=" ">
<polygon fill="white" stroke="#666666" points="913.5,-468 809.5,-468 809.5,-449 913.5,-449 913.5,-468"/>
<text text-anchor="middle" x="861.5" y="-456" font-family="Helvetica,sans-Serif" font-size="10.00">SetTestFrequencies</text>
</a>
</g>
</g>
<!-- Node49&#45;&gt;Node51 -->
<g id="edge52" class="edge">
<title>Node49&#45;&gt;Node51</title>
<path fill="none" stroke="#63b8ff" d="M738.33,-525.7C752.98,-512.89 780.34,-490.43 807,-476.5 809.55,-475.17 812.21,-473.91 814.93,-472.72"/>
<polygon fill="#63b8ff" stroke="#63b8ff" points="816.19,-475.98 824.18,-469.03 813.6,-469.48 816.19,-475.98"/>
</g>
<!-- Node53&#45;&gt;Node23 -->
<g id="edge76" class="edge">
<title>Node53&#45;&gt;Node23</title>
<path fill="none" stroke="#63b8ff" d="M1027.1,-637.58C1035.53,-633.65 1044.94,-628.8 1053,-623.5 1070.65,-611.91 1070.56,-602.79 1089,-592.5 1092.2,-590.72 1095.58,-589.08 1099.06,-587.57"/>
<polygon fill="#63b8ff" stroke="#63b8ff" points="1100.18,-590.89 1108.22,-584 1097.63,-584.37 1100.18,-590.89"/>
</g>
<!-- Node53&#45;&gt;Node34 -->
<g id="edge60" class="edge">
<title>Node53&#45;&gt;Node34</title>
<path fill="none" stroke="#63b8ff" d="M1033.5,-657.43C1040.17,-660.23 1047.03,-663.59 1053,-667.5 1085.52,-688.78 1116.37,-722.18 1133.96,-742.91"/>
<polygon fill="#63b8ff" stroke="#63b8ff" points="1131.21,-745.08 1140.3,-750.54 1136.6,-740.61 1131.21,-745.08"/>
</g>
<!-- Node53&#45;&gt;Node42 -->
<g id="edge77" class="edge">
<title>Node53&#45;&gt;Node42</title>
<path fill="none" stroke="#63b8ff" d="M1050.74,-647.5C1061.15,-647.5 1072.35,-647.5 1083.34,-647.5"/>
<polygon fill="#63b8ff" stroke="#63b8ff" points="1083.16,-651 1093.16,-647.5 1083.16,-644 1083.16,-651"/>
</g>
<!-- Node54 -->
<g id="node38" class="node">
<title>Node54</title>
<g id="a_node38"><a xlink:href="TransmitterCode_2src_2main_8cpp.html#a953f1d5046e183549ed95b08f6d675e3" target="_top" xlink:title=" ">
<polygon fill="white" stroke="#666666" points="1199,-620 1101,-620 1101,-601 1199,-601 1199,-620"/>
<text text-anchor="middle" x="1150" y="-608" font-family="Helvetica,sans-Serif" font-size="10.00">CheckGapsLength</text>
</a>
</g>
</g>
<!-- Node53&#45;&gt;Node54 -->
<g id="edge56" class="edge">
<title>Node53&#45;&gt;Node54</title>
<path fill="none" stroke="#63b8ff" d="M1042.49,-637.58C1059.78,-633.19 1080.34,-627.96 1098.76,-623.28"/>
<polygon fill="#63b8ff" stroke="#63b8ff" points="1099.61,-626.67 1108.43,-620.82 1097.88,-619.89 1099.61,-626.67"/>
</g>
<!-- Node56 -->
<g id="node40" class="node">
<title>Node56</title>
<g id="a_node40"><a xlink:href="TransmitterCode_2src_2main_8cpp.html#a694f4f5a0147f4dc29b0bc1a8951547d" target="_top" xlink:title=" ">
<polygon fill="white" stroke="#666666" points="1197,-206 1103,-206 1103,-187 1197,-187 1197,-206"/>
<text text-anchor="middle" x="1150" y="-194" font-family="Helvetica,sans-Serif" font-size="10.00">ParseAckPayload</text>
</a>
</g>
</g>
<!-- Node53&#45;&gt;Node56 -->
<g id="edge61" class="edge">
<title>Node53&#45;&gt;Node56</title>
<path fill="none" stroke="#63b8ff" d="M1014.68,-637.72C1026.02,-627.18 1043.25,-609.36 1053,-590.5 1120.76,-459.4 1141.92,-278.83 1147.36,-217.7"/>
<polygon fill="#63b8ff" stroke="#63b8ff" points="1150.85,-218.01 1148.19,-207.75 1143.87,-217.43 1150.85,-218.01"/>
</g>
<!-- Node55 -->
<g id="node39" class="node">
<title>Node55</title>
<g id="a_node39"><a xlink:href="TransmitterCode_2src_2main_8cpp.html#a1fadc7cdd854f8b3628b622da5417d8b" target="_top" xlink:title=" ">
<polygon fill="white" stroke="#666666" points="1346,-620 1276,-620 1276,-601 1346,-601 1346,-620"/>
<text text-anchor="middle" x="1311" y="-608" font-family="Helvetica,sans-Serif" font-size="10.00">LogThisGap</text>
</a>
</g>
</g>
<!-- Node54&#45;&gt;Node55 -->
<g id="edge57" class="edge">
<title>Node54&#45;&gt;Node55</title>
<path fill="none" stroke="#63b8ff" d="M1199.14,-610.5C1219.86,-610.5 1243.98,-610.5 1264.41,-610.5"/>
<polygon fill="#63b8ff" stroke="#63b8ff" points="1264.14,-614 1274.14,-610.5 1264.14,-607 1264.14,-614"/>
</g>
<!-- Node55&#45;&gt;Node13 -->
<g id="edge58" class="edge">
<title>Node55&#45;&gt;Node13</title>
<path fill="none" stroke="#63b8ff" d="M1329.97,-620.47C1356.17,-634.99 1405.06,-662.1 1435.86,-679.17"/>
<polygon fill="#63b8ff" stroke="#63b8ff" points="1433.78,-682.03 1444.23,-683.81 1437.18,-675.9 1433.78,-682.03"/>
</g>
<!-- Node55&#45;&gt;Node18 -->
<g id="edge59" class="edge">
<title>Node55&#45;&gt;Node18</title>
<path fill="none" stroke="#63b8ff" d="M1338.74,-600.62C1367.13,-590.12 1411.62,-573.68 1439.1,-563.52"/>
<polygon fill="#63b8ff" stroke="#63b8ff" points="1440.14,-566.86 1448.31,-560.11 1437.72,-560.3 1440.14,-566.86"/>
</g>
<!-- Node57 -->
<g id="node41" class="node">
<title>Node57</title>
<g id="a_node41"><a xlink:href="TransmitterCode_2src_2main_8cpp.html#a75fa77e7bbb1cfe8fe6e1a216fbdc17e" target="_top" xlink:title=" ">
<polygon fill="white" stroke="#666666" points="1343.5,-19 1278.5,-19 1278.5,0 1343.5,0 1343.5,-19"/>
<text text-anchor="middle" x="1311" y="-7" font-family="Helvetica,sans-Serif" font-size="10.00">GetAltitude</text>
</a>
</g>
</g>
<!-- Node56&#45;&gt;Node57 -->
<g id="edge62" class="edge">
<title>Node56&#45;&gt;Node57</title>
<path fill="none" stroke="#63b8ff" d="M1154.22,-186.51C1163.76,-158.4 1194.56,-77.78 1247,-33.5 1253.08,-28.37 1260.37,-24.27 1267.8,-21.02"/>
<polygon fill="#63b8ff" stroke="#63b8ff" points="1268.81,-24.38 1276.88,-17.51 1266.29,-17.85 1268.81,-24.38"/>
</g>
<!-- Node58 -->
<g id="node42" class="node">
<title>Node58</title>
<g id="a_node42"><a xlink:href="TransmitterCode_2src_2main_8cpp.html#ab5736b017daadeb2c1d7dc73489d31a6" target="_top" xlink:title=" ">
<polygon fill="white" stroke="#666666" points="1518,-57 1411,-57 1411,-38 1518,-38 1518,-57"/>
<text text-anchor="middle" x="1464.5" y="-45" font-family="Helvetica,sans-Serif" font-size="10.00">GetFromAckPayload</text>
</a>
</g>
</g>
<!-- Node56&#45;&gt;Node58 -->
<g id="edge65" class="edge">
<title>Node56&#45;&gt;Node58</title>
<path fill="none" stroke="#63b8ff" d="M1154.79,-186.8C1165.15,-161.72 1196.59,-94.77 1247,-66.5 1293.17,-40.61 1353.75,-37.39 1399.09,-39.77"/>
<polygon fill="#63b8ff" stroke="#63b8ff" points="1398.85,-43.26 1409.05,-40.41 1399.29,-36.27 1398.85,-43.26"/>
</g>
<!-- Node59 -->
<g id="node43" class="node">
<title>Node59</title>
<g id="a_node43"><a xlink:href="TransmitterCode_2src_2main_8cpp.html#a160b9119423c34869b16a4ebdc421d35" target="_top" xlink:title=" ">
<polygon fill="white" stroke="#666666" points="1374.5,-206 1247.5,-206 1247.5,-187 1374.5,-187 1374.5,-206"/>
<text text-anchor="middle" x="1311" y="-194" font-family="Helvetica,sans-Serif" font-size="10.00">GetDateFromAckPayload</text>
</a>
</g>
</g>
<!-- Node56&#45;&gt;Node59 -->
<g id="edge64" class="edge">
<title>Node56&#45;&gt;Node59</title>
<path fill="none" stroke="#63b8ff" d="M1197.42,-196.5C1209.47,-196.5 1222.76,-196.5 1235.85,-196.5"/>
<polygon fill="#63b8ff" stroke="#63b8ff" points="1235.75,-200 1245.75,-196.5 1235.75,-193 1235.75,-200"/>
</g>
<!-- Node60 -->
<g id="node44" class="node">
<title>Node60</title>
<g id="a_node44"><a xlink:href="TransmitterCode_2src_2main_8cpp.html#a494cb4acb30856d1f53f08df1b80c41b" target="_top" xlink:title=" ">
<polygon fill="#fff0f0" stroke="red" points="1370.5,-354 1251.5,-354 1251.5,-335 1370.5,-335 1370.5,-354"/>
<text text-anchor="middle" x="1311" y="-342" font-family="Helvetica,sans-Serif" font-size="10.00">GetModelsMacAddress</text>
</a>
</g>
</g>
<!-- Node56&#45;&gt;Node60 -->
<g id="edge66" class="edge">
<title>Node56&#45;&gt;Node60</title>
<path fill="none" stroke="#63b8ff" d="M1155.5,-206.26C1167.1,-230.29 1200.39,-292.78 1247,-325.5 1249.21,-327.05 1251.55,-328.48 1253.97,-329.79"/>
<polygon fill="#63b8ff" stroke="#63b8ff" points="1252.39,-332.91 1262.94,-333.93 1255.32,-326.56 1252.39,-332.91"/>
</g>
<!-- Node91 -->
<g id="node45" class="node">
<title>Node91</title>
<g id="a_node45"><a xlink:href="TransmitterCode_2src_2main_8cpp.html#a4f813935d8fe58355228cbbf25e12f96" target="_top" xlink:title=" ">
<polygon fill="#fff0f0" stroke="red" points="1367.5,-280 1254.5,-280 1254.5,-261 1367.5,-261 1367.5,-280"/>
<text text-anchor="middle" x="1311" y="-268" font-family="Helvetica,sans-Serif" font-size="10.00">GetRXVersionNumber</text>
</a>
</g>
</g>
<!-- Node56&#45;&gt;Node91 -->
<g id="edge68" class="edge">
<title>Node56&#45;&gt;Node91</title>
<path fill="none" stroke="#63b8ff" d="M1165.74,-206.37C1184.13,-218.33 1216.83,-238.51 1247,-251.5 1251.55,-253.46 1256.37,-255.3 1261.23,-257.01"/>
<polygon fill="#63b8ff" stroke="#63b8ff" points="1259.83,-260.23 1270.42,-260.04 1262.02,-253.58 1259.83,-260.23"/>
</g>
<!-- Node93 -->
<g id="node46" class="node">
<title>Node93</title>
<g id="a_node46"><a xlink:href="TransmitterCode_2src_2main_8cpp.html#a19f6fc09d690832e74fd3c679207f07f" target="_top" xlink:title=" ">
<polygon fill="white" stroke="#666666" points="1354.5,-243 1267.5,-243 1267.5,-224 1354.5,-224 1354.5,-243"/>
<text text-anchor="middle" x="1311" y="-231" font-family="Helvetica,sans-Serif" font-size="10.00">GetTemperature</text>
</a>
</g>
</g>
<!-- Node56&#45;&gt;Node93 -->
<g id="edge70" class="edge">
<title>Node56&#45;&gt;Node93</title>
<path fill="none" stroke="#63b8ff" d="M1193.61,-206.42C1212.86,-210.89 1235.81,-216.24 1256.23,-220.99"/>
<polygon fill="#63b8ff" stroke="#63b8ff" points="1255.27,-224.36 1265.8,-223.21 1256.85,-217.54 1255.27,-224.36"/>
</g>
<!-- Node94 -->
<g id="node47" class="node">
<title>Node94</title>
<g id="a_node47"><a xlink:href="TransmitterCode_2src_2main_8cpp.html#a86523345ecdd52f3d93dccd6fcf4370a" target="_top" xlink:title=" ">
<polygon fill="white" stroke="#666666" points="1375,-169 1247,-169 1247,-150 1375,-150 1375,-169"/>
<text text-anchor="middle" x="1311" y="-157" font-family="Helvetica,sans-Serif" font-size="10.00">GetTimeFromAckPayload</text>
</a>
</g>
</g>
<!-- Node56&#45;&gt;Node94 -->
<g id="edge72" class="edge">
<title>Node56&#45;&gt;Node94</title>
<path fill="none" stroke="#63b8ff" d="M1193.61,-186.58C1212.86,-182.11 1235.81,-176.76 1256.23,-172.01"/>
<polygon fill="#63b8ff" stroke="#63b8ff" points="1256.85,-175.46 1265.8,-169.79 1255.27,-168.64 1256.85,-175.46"/>
</g>
<!-- Node95 -->
<g id="node48" class="node">
<title>Node95</title>
<g id="a_node48"><a xlink:href="radio_8h.html#a62ec0168b1eea5f5c14f663d9217574d" target="_top" xlink:title=" ">
<polygon fill="#fff0f0" stroke="red" points="1361.5,-132 1260.5,-132 1260.5,-113 1361.5,-113 1361.5,-132"/>
<text text-anchor="middle" x="1311" y="-120" font-family="Helvetica,sans-Serif" font-size="10.00">HopToNextChannel</text>
</a>
</g>
</g>
<!-- Node56&#45;&gt;Node95 -->
<g id="edge73" class="edge">
<title>Node56&#45;&gt;Node95</title>
<path fill="none" stroke="#63b8ff" d="M1165.36,-186.57C1183.63,-174.32 1216.47,-153.52 1247,-140.5 1250.78,-138.89 1254.75,-137.37 1258.77,-135.96"/>
<polygon fill="#63b8ff" stroke="#63b8ff" points="1259.63,-139.36 1268.05,-132.92 1257.45,-132.71 1259.63,-139.36"/>
</g>
<!-- Node97 -->
<g id="node49" class="node">
<title>Node97</title>
<g id="a_node49"><a xlink:href="TransmitterCode_2src_2main_8cpp.html#a7a48851f0d38e4a0dd727a30d9515cf1" target="_top" xlink:title=" ">
<polygon fill="white" stroke="#666666" points="1348.5,-95 1273.5,-95 1273.5,-76 1348.5,-76 1348.5,-95"/>
<text text-anchor="middle" x="1311" y="-83" font-family="Helvetica,sans-Serif" font-size="10.00">ReadTheRTC</text>
</a>
</g>
</g>
<!-- Node56&#45;&gt;Node97 -->
<g id="edge74" class="edge">
<title>Node56&#45;&gt;Node97</title>
<path fill="none" stroke="#63b8ff" d="M1158.31,-186.74C1172.99,-167.82 1208.02,-126.02 1247,-103.5 1251.74,-100.76 1256.92,-98.42 1262.21,-96.42"/>
<polygon fill="#63b8ff" stroke="#63b8ff" points="1263.3,-99.74 1271.68,-93.25 1261.09,-93.1 1263.3,-99.74"/>
</g>
<!-- Node98 -->
<g id="node50" class="node">
<title>Node98</title>
<g id="a_node50"><a xlink:href="TransmitterCode_2src_2main_8cpp.html#abb1ea95b6b3f033883aa87682d3240ab" target="_top" xlink:title=" ">
<polygon fill="#fff0f0" stroke="red" points="1373,-317 1249,-317 1249,-298 1373,-298 1373,-317"/>
<text text-anchor="middle" x="1311" y="-305" font-family="Helvetica,sans-Serif" font-size="10.00">SynchRTCwithGPSTime</text>
</a>
</g>
</g>
<!-- Node56&#45;&gt;Node98 -->
<g id="edge75" class="edge">
<title>Node56&#45;&gt;Node98</title>
<path fill="none" stroke="#63b8ff" d="M1158.59,-206.39C1173.5,-225.15 1208.53,-266.03 1247,-288.5 1250.01,-290.26 1253.2,-291.87 1256.48,-293.34"/>
<polygon fill="#63b8ff" stroke="#63b8ff" points="1255.17,-296.58 1265.76,-297.02 1257.75,-290.08 1255.17,-296.58"/>
</g>
<!-- Node57&#45;&gt;Node58 -->
<g id="edge63" class="edge">
<title>Node57&#45;&gt;Node58</title>
<path fill="none" stroke="#63b8ff" d="M1343.76,-17.47C1363.74,-22.48 1389.98,-29.06 1412.79,-34.78"/>
<polygon fill="#63b8ff" stroke="#63b8ff" points="1411.66,-38.11 1422.21,-37.14 1413.36,-31.32 1411.66,-38.11"/>
</g>
<!-- Node60&#45;&gt;Node6 -->
<g id="edge67" class="edge">
<title>Node60&#45;&gt;Node6</title>
<path fill="none" stroke="#63b8ff" d="M1251.24,-344.5C1189.54,-344.5 1089.7,-344.5 1003.5,-344.5 860.5,-344.5 860.5,-344.5 860.5,-344.5 676.26,-344.5 591.77,-313.88 457,-439.5 391.52,-500.54 381.67,-616.5 380.48,-664.2"/>
<polygon fill="#63b8ff" stroke="#63b8ff" points="376.99,-663.94 380.36,-673.99 383.99,-664.03 376.99,-663.94"/>
</g>
<!-- Node91&#45;&gt;Node18 -->
<g id="edge69" class="edge">
<title>Node91&#45;&gt;Node18</title>
<path fill="none" stroke="#63b8ff" d="M1363.54,-280.44C1367.73,-282.62 1371.63,-285.27 1375,-288.5 1446.13,-356.64 1460.1,-483.29 1462.84,-533.35"/>
<polygon fill="#63b8ff" stroke="#63b8ff" points="1459.33,-533.24 1463.26,-543.08 1466.33,-532.94 1459.33,-533.24"/>
</g>
<!-- Node93&#45;&gt;Node58 -->
<g id="edge71" class="edge">
<title>Node93&#45;&gt;Node58</title>
<path fill="none" stroke="#63b8ff" d="M1354.97,-225.55C1362.17,-222.87 1369.18,-219.29 1375,-214.5 1422.61,-175.35 1448,-103.73 1458.15,-68.38"/>
<polygon fill="#63b8ff" stroke="#63b8ff" points="1461.46,-69.53 1460.71,-58.96 1454.71,-67.69 1461.46,-69.53"/>
</g>
</g>
</svg>
