<?xml version="1.0" encoding="UTF-8" standalone="no"?>
<!DOCTYPE svg PUBLIC "-//W3C//DTD SVG 1.1//EN"
 "http://www.w3.org/Graphics/SVG/1.1/DTD/svg11.dtd">
<!-- Generated by graphviz version 3.0.0 (20220413.0242)
 -->
<!-- Title: ShowServoPos Pages: 1 -->
<svg width="704pt" height="431pt"
 viewBox="0.00 0.00 704.00 431.14" xmlns="http://www.w3.org/2000/svg" xmlns:xlink="http://www.w3.org/1999/xlink">
<g id="graph0" class="graph" transform="scale(1 1) rotate(0) translate(4 427.14)">
<title>ShowServoPos</title>
<polygon fill="white" stroke="transparent" points="-4,4 -4,-427.14 700,-427.14 700,4 -4,4"/>
<!-- Node1 -->
<g id="node1" class="node">
<title>Node1</title>
<g id="a_node1"><a xlink:title=" ">
<polygon fill="#bfbfbf" stroke="black" points="0,-133.5 0,-152.5 84,-152.5 84,-133.5 0,-133.5"/>
<text text-anchor="middle" x="42" y="-140.5" font-family="Helvetica,sans-Serif" font-size="10.00">ShowServoPos</text>
</a>
</g>
</g>
<!-- Node2 -->
<g id="node2" class="node">
<title>Node2</title>
<g id="a_node2"><a xlink:href="TransmitterCode_2src_2main_8cpp.html#acf49567c45af927603ae83a7f46e6534" target="_top" xlink:title=" ">
<polygon fill="white" stroke="black" points="121.5,-228.5 121.5,-247.5 195.5,-247.5 195.5,-228.5 121.5,-228.5"/>
<text text-anchor="middle" x="158.5" y="-235.5" font-family="Helvetica,sans-Serif" font-size="10.00">DisplayCurve</text>
</a>
</g>
</g>
<!-- Node1&#45;&gt;Node2 -->
<g id="edge1" class="edge">
<title>Node1&#45;&gt;Node2</title>
<path fill="none" stroke="midnightblue" d="M54.82,-152.81C74.55,-169.18 114.37,-202.21 138.21,-221.99"/>
<polygon fill="midnightblue" stroke="midnightblue" points="135.98,-224.69 145.91,-228.39 140.45,-219.31 135.98,-224.69"/>
</g>
<!-- Node13 -->
<g id="node13" class="node">
<title>Node13</title>
<g id="a_node13"><a xlink:href="TransmitterCode_2src_2main_8cpp.html#a1e20efc1e419b252b50d36f9924503fc" target="_top" xlink:title=" ">
<polygon fill="white" stroke="black" points="394,-342.5 394,-361.5 458,-361.5 458,-342.5 394,-342.5"/>
<text text-anchor="middle" x="426" y="-349.5" font-family="Helvetica,sans-Serif" font-size="10.00">SendValue</text>
</a>
</g>
</g>
<!-- Node1&#45;&gt;Node13 -->
<g id="edge30" class="edge">
<title>Node1&#45;&gt;Node13</title>
<path fill="none" stroke="midnightblue" d="M46.48,-152.57C61.35,-191.85 123.87,-341.03 233,-392 283.34,-415.51 304.44,-406.77 358,-392 375.02,-387.3 392.08,-377.02 404.73,-368.05"/>
<polygon fill="midnightblue" stroke="midnightblue" points="407.14,-370.62 413.09,-361.86 402.97,-365 407.14,-370.62"/>
</g>
<!-- Node15 -->
<g id="node15" class="node">
<title>Node15</title>
<g id="a_node15"><a xlink:href="TransmitterCode_2src_2main_8cpp.html#a93d9f055a2723479bb28f6c53fdb2643" target="_top" xlink:title=" ">
<polygon fill="white" stroke="black" points="403,-114.5 403,-133.5 449,-133.5 449,-114.5 403,-114.5"/>
<text text-anchor="middle" x="426" y="-121.5" font-family="Helvetica,sans-Serif" font-size="10.00">FillBox</text>
</a>
</g>
</g>
<!-- Node1&#45;&gt;Node15 -->
<g id="edge26" class="edge">
<title>Node1&#45;&gt;Node15</title>
<path fill="none" stroke="midnightblue" d="M84.1,-139.06C122.55,-135.55 181.61,-130.56 233,-128 289.16,-125.2 354.65,-124.35 392.81,-124.1"/>
<polygon fill="midnightblue" stroke="midnightblue" points="392.83,-127.6 402.81,-124.05 392.79,-120.6 392.83,-127.6"/>
</g>
<!-- Node16 -->
<g id="node16" class="node">
<title>Node16</title>
<g id="a_node16"><a xlink:href="TransmitterCode_2src_2main_8cpp.html#a5cdbe11d62e0de7610ba323e60b97d33" target="_top" xlink:title=" ">
<polygon fill="white" stroke="black" points="120,-0.5 120,-19.5 197,-19.5 197,-0.5 120,-0.5"/>
<text text-anchor="middle" x="158.5" y="-7.5" font-family="Helvetica,sans-Serif" font-size="10.00">IntoLowerRes</text>
</a>
</g>
</g>
<!-- Node1&#45;&gt;Node16 -->
<g id="edge29" class="edge">
<title>Node1&#45;&gt;Node16</title>
<path fill="none" stroke="midnightblue" d="M48.13,-133.32C59.19,-113.08 87,-65.53 120,-34 123.3,-30.85 127.06,-27.88 130.91,-25.17"/>
<polygon fill="midnightblue" stroke="midnightblue" points="132.84,-28.09 139.3,-19.69 129.02,-22.23 132.84,-28.09"/>
</g>
<!-- Node3 -->
<g id="node3" class="node">
<title>Node3</title>
<g id="a_node3"><a xlink:href="TransmitterCode_2src_2main_8cpp.html#a5aeea47b9d855ae9911bae1115d02de7" target="_top" xlink:title=" ">
<polygon fill="white" stroke="black" points="398,-228.5 398,-247.5 454,-247.5 454,-228.5 398,-228.5"/>
<text text-anchor="middle" x="426" y="-235.5" font-family="Helvetica,sans-Serif" font-size="10.00">ClearBox</text>
</a>
</g>
</g>
<!-- Node2&#45;&gt;Node3 -->
<g id="edge2" class="edge">
<title>Node2&#45;&gt;Node3</title>
<path fill="none" stroke="midnightblue" d="M167.82,-228.4C180.33,-214.77 205.5,-190.41 233,-181 285.56,-163.01 306.97,-159.05 358,-181 379.37,-190.19 375.93,-204.35 394,-219 395.54,-220.25 397.18,-221.48 398.86,-222.68"/>
<polygon fill="midnightblue" stroke="midnightblue" points="397.13,-225.73 407.4,-228.32 400.98,-219.89 397.13,-225.73"/>
</g>
<!-- Node4 -->
<g id="node4" class="node">
<title>Node4</title>
<g id="a_node4"><a xlink:href="TransmitterCode_2src_2main_8cpp.html#aecac2f0c289f02ef3c92b85be82eacac" target="_top" xlink:title=" ">
<polygon fill="white" stroke="black" points="494,-266.5 494,-285.5 577,-285.5 577,-266.5 494,-266.5"/>
<text text-anchor="middle" x="535.5" y="-273.5" font-family="Helvetica,sans-Serif" font-size="10.00">SendCommand</text>
</a>
</g>
</g>
<!-- Node2&#45;&gt;Node4 -->
<g id="edge18" class="edge">
<title>Node2&#45;&gt;Node4</title>
<path fill="none" stroke="midnightblue" d="M160.61,-247.51C164.48,-275.66 180.13,-358.65 233,-392 317.95,-445.58 372.37,-423.49 458,-371 488.69,-352.19 512.35,-316.48 524.78,-294.6"/>
<polygon fill="midnightblue" stroke="midnightblue" points="527.96,-296.09 529.69,-285.63 521.82,-292.73 527.96,-296.09"/>
</g>
<!-- Node7 -->
<g id="node7" class="node">
<title>Node7</title>
<g id="a_node7"><a xlink:href="TransmitterCode_2src_2main_8cpp.html#a68b36025c7478c0710565b4fb059d9bc" target="_top" xlink:title=" ">
<polygon fill="white" stroke="black" points="253.5,-304.5 253.5,-323.5 337.5,-323.5 337.5,-304.5 253.5,-304.5"/>
<text text-anchor="middle" x="295.5" y="-311.5" font-family="Helvetica,sans-Serif" font-size="10.00">DegsToPercent</text>
</a>
</g>
</g>
<!-- Node2&#45;&gt;Node7 -->
<g id="edge6" class="edge">
<title>Node2&#45;&gt;Node7</title>
<path fill="none" stroke="midnightblue" d="M171.39,-247.8C185.45,-259.05 209.88,-277.55 233,-290 240.32,-293.94 248.42,-297.57 256.29,-300.76"/>
<polygon fill="midnightblue" stroke="midnightblue" points="255.1,-304.05 265.68,-304.41 257.63,-297.53 255.1,-304.05"/>
</g>
<!-- Node8 -->
<g id="node8" class="node">
<title>Node8</title>
<g id="a_node8"><a xlink:href="TransmitterCode_2src_2main_8cpp.html#a060d8c4636339f7e6760cf835307530e" target="_top" xlink:title=" ">
<polygon fill="white" stroke="black" points="398,-190.5 398,-209.5 454,-209.5 454,-190.5 398,-190.5"/>
<text text-anchor="middle" x="426" y="-197.5" font-family="Helvetica,sans-Serif" font-size="10.00">DrawBox</text>
</a>
</g>
</g>
<!-- Node2&#45;&gt;Node8 -->
<g id="edge7" class="edge">
<title>Node2&#45;&gt;Node8</title>
<path fill="none" stroke="midnightblue" d="M165.07,-228.44C175.7,-211.26 200.72,-175.69 233,-162 284.15,-140.31 304.28,-147.83 358,-162 362.61,-163.22 382.87,-174.87 399.92,-184.95"/>
<polygon fill="midnightblue" stroke="midnightblue" points="398.55,-188.21 408.94,-190.32 402.13,-182.2 398.55,-188.21"/>
</g>
<!-- Node9 -->
<g id="node9" class="node">
<title>Node9</title>
<g id="a_node9"><a xlink:href="TransmitterCode_2src_2main_8cpp.html#ad0feb21fbea69455d1d206f142b563ac" target="_top" xlink:title=" ">
<polygon fill="white" stroke="black" points="399,-152.5 399,-171.5 453,-171.5 453,-152.5 399,-152.5"/>
<text text-anchor="middle" x="426" y="-159.5" font-family="Helvetica,sans-Serif" font-size="10.00">DrawDot</text>
</a>
</g>
</g>
<!-- Node2&#45;&gt;Node9 -->
<g id="edge10" class="edge">
<title>Node2&#45;&gt;Node9</title>
<path fill="none" stroke="midnightblue" d="M163.6,-228.27C172.66,-208.22 196.51,-162.67 233,-145 284.23,-120.19 352.14,-135.85 391.95,-149.16"/>
<polygon fill="midnightblue" stroke="midnightblue" points="390.84,-152.48 401.44,-152.46 393.15,-145.87 390.84,-152.48"/>
</g>
<!-- Node10 -->
<g id="node10" class="node">
<title>Node10</title>
<g id="a_node10"><a xlink:href="TransmitterCode_2src_2main_8cpp.html#acbef1d41e1bd646b60a6e8afd9c66880" target="_top" xlink:title=" ">
<polygon fill="white" stroke="black" points="397,-266.5 397,-285.5 455,-285.5 455,-266.5 397,-266.5"/>
<text text-anchor="middle" x="426" y="-273.5" font-family="Helvetica,sans-Serif" font-size="10.00">DrawLine</text>
</a>
</g>
</g>
<!-- Node2&#45;&gt;Node10 -->
<g id="edge13" class="edge">
<title>Node2&#45;&gt;Node10</title>
<path fill="none" stroke="midnightblue" d="M191.83,-247.51C204.56,-250.95 219.37,-254.58 233,-257 285.75,-266.37 347.55,-271.45 386.48,-273.94"/>
<polygon fill="midnightblue" stroke="midnightblue" points="386.64,-277.46 396.83,-274.58 387.07,-270.47 386.64,-277.46"/>
</g>
<!-- Node11 -->
<g id="node11" class="node">
<title>Node11</title>
<g id="a_node11"><a xlink:href="TransmitterCode_2src_2main_8cpp.html#a4abc073f79b7ab2a2b4429990420cbf0" target="_top" xlink:title="Uses servo degrees to position dots.">
<polygon fill="white" stroke="black" points="251.5,-228.5 251.5,-247.5 339.5,-247.5 339.5,-228.5 251.5,-228.5"/>
<text text-anchor="middle" x="295.5" y="-235.5" font-family="Helvetica,sans-Serif" font-size="10.00">GetDotPositions</text>
</a>
</g>
</g>
<!-- Node2&#45;&gt;Node11 -->
<g id="edge16" class="edge">
<title>Node2&#45;&gt;Node11</title>
<path fill="none" stroke="midnightblue" d="M195.68,-238C209.51,-238 225.6,-238 240.73,-238"/>
<polygon fill="midnightblue" stroke="midnightblue" points="241.01,-241.5 251.01,-238 241.01,-234.5 241.01,-241.5"/>
</g>
<!-- Node12 -->
<g id="node12" class="node">
<title>Node12</title>
<g id="a_node12"><a xlink:href="TransmitterCode_2src_2main_8cpp.html#a927484b01116cd14fd1ade706bc06d51" target="_top" xlink:title=" ">
<polygon fill="white" stroke="black" points="243.5,-190.5 243.5,-209.5 347.5,-209.5 347.5,-190.5 243.5,-190.5"/>
<text text-anchor="middle" x="295.5" y="-197.5" font-family="Helvetica,sans-Serif" font-size="10.00">MapWithExponential</text>
</a>
</g>
</g>
<!-- Node2&#45;&gt;Node12 -->
<g id="edge17" class="edge">
<title>Node2&#45;&gt;Node12</title>
<path fill="none" stroke="midnightblue" d="M193.57,-228.41C210.91,-223.53 232.2,-217.54 250.75,-212.32"/>
<polygon fill="midnightblue" stroke="midnightblue" points="251.77,-215.66 260.44,-209.59 249.87,-208.93 251.77,-215.66"/>
</g>
<!-- Node2&#45;&gt;Node13 -->
<g id="edge19" class="edge">
<title>Node2&#45;&gt;Node13</title>
<path fill="none" stroke="midnightblue" d="M161.38,-247.7C166.94,-273.42 185.96,-343.25 233,-371 283.53,-400.81 354.8,-380.93 394.77,-365.41"/>
<polygon fill="midnightblue" stroke="midnightblue" points="396.26,-368.58 404.23,-361.59 393.64,-362.09 396.26,-368.58"/>
</g>
<!-- Node14 -->
<g id="node14" class="node">
<title>Node14</title>
<g id="a_node14"><a xlink:href="TransmitterCode_2src_2main_8cpp.html#a3d20af2f1fee81198a0cef2d4500083a" target="_top" xlink:title=" ">
<polygon fill="white" stroke="black" points="233,-342.5 233,-361.5 358,-361.5 358,-342.5 233,-342.5"/>
<text text-anchor="middle" x="295.5" y="-349.5" font-family="Helvetica,sans-Serif" font-size="10.00">updateInterpolationTypes</text>
</a>
</g>
</g>
<!-- Node2&#45;&gt;Node14 -->
<g id="edge23" class="edge">
<title>Node2&#45;&gt;Node14</title>
<path fill="none" stroke="midnightblue" d="M164.34,-247.67C174.43,-266.84 199.58,-309.84 233,-333 235.89,-335 239,-336.8 242.23,-338.41"/>
<polygon fill="midnightblue" stroke="midnightblue" points="241,-341.69 251.56,-342.48 243.8,-335.28 241,-341.69"/>
</g>
<!-- Node3&#45;&gt;Node4 -->
<g id="edge3" class="edge">
<title>Node3&#45;&gt;Node4</title>
<path fill="none" stroke="midnightblue" d="M454.13,-247.59C467.37,-252.27 483.49,-257.97 497.81,-263.03"/>
<polygon fill="midnightblue" stroke="midnightblue" points="496.79,-266.38 507.38,-266.41 499.12,-259.78 496.79,-266.38"/>
</g>
<!-- Node6 -->
<g id="node6" class="node">
<title>Node6</title>
<g id="a_node6"><a xlink:href="TransmitterCode_2src_2main_8cpp.html#a590a9174319918d7e3d7baca323fcf26" target="_top" xlink:title=" ">
<polygon fill="white" stroke="black" points="521,-209.5 521,-228.5 550,-228.5 550,-209.5 521,-209.5"/>
<text text-anchor="middle" x="535.5" y="-216.5" font-family="Helvetica,sans-Serif" font-size="10.00">Str</text>
</a>
</g>
</g>
<!-- Node3&#45;&gt;Node6 -->
<g id="edge5" class="edge">
<title>Node3&#45;&gt;Node6</title>
<path fill="none" stroke="midnightblue" d="M454.13,-233.21C471.58,-230.12 494.03,-226.15 510.77,-223.19"/>
<polygon fill="midnightblue" stroke="midnightblue" points="511.6,-226.6 520.84,-221.41 510.38,-219.71 511.6,-226.6"/>
</g>
<!-- Node5 -->
<g id="node5" class="node">
<title>Node5</title>
<g id="a_node5"><a xlink:href="TransmitterCode_2src_2main_8cpp.html#a43937dd3d9c795271fd9c3eb3c6b6410" target="_top" xlink:title=" ">
<polygon fill="white" stroke="black" points="613,-294.5 613,-313.5 696,-313.5 696,-294.5 613,-294.5"/>
<text text-anchor="middle" x="654.5" y="-301.5" font-family="Helvetica,sans-Serif" font-size="10.00">GetReturnCode</text>
</a>
</g>
</g>
<!-- Node4&#45;&gt;Node5 -->
<g id="edge4" class="edge">
<title>Node4&#45;&gt;Node5</title>
<path fill="none" stroke="midnightblue" d="M576.44,-285.56C585.29,-287.68 594.77,-289.94 603.94,-292.14"/>
<polygon fill="midnightblue" stroke="midnightblue" points="603.2,-295.56 613.74,-294.49 604.83,-288.75 603.2,-295.56"/>
</g>
<!-- Node8&#45;&gt;Node4 -->
<g id="edge8" class="edge">
<title>Node8&#45;&gt;Node4</title>
<path fill="none" stroke="midnightblue" d="M443.27,-209.59C448.07,-212.52 453.3,-215.82 458,-219 477.49,-232.19 498.92,-248.3 514.12,-260.03"/>
<polygon fill="midnightblue" stroke="midnightblue" points="512.25,-263 522.29,-266.37 516.54,-257.47 512.25,-263"/>
</g>
<!-- Node8&#45;&gt;Node6 -->
<g id="edge9" class="edge">
<title>Node8&#45;&gt;Node6</title>
<path fill="none" stroke="midnightblue" d="M454.13,-204.79C471.58,-207.88 494.03,-211.85 510.77,-214.81"/>
<polygon fill="midnightblue" stroke="midnightblue" points="510.38,-218.29 520.84,-216.59 511.6,-211.4 510.38,-218.29"/>
</g>
<!-- Node9&#45;&gt;Node4 -->
<g id="edge11" class="edge">
<title>Node9&#45;&gt;Node4</title>
<path fill="none" stroke="midnightblue" d="M445.71,-171.56C450.03,-174.27 454.41,-177.45 458,-181 479.33,-202.04 474.92,-214.9 494,-238 500.27,-245.59 507.97,-253.17 514.98,-259.53"/>
<polygon fill="midnightblue" stroke="midnightblue" points="512.93,-262.4 522.75,-266.39 517.56,-257.15 512.93,-262.4"/>
</g>
<!-- Node9&#45;&gt;Node6 -->
<g id="edge12" class="edge">
<title>Node9&#45;&gt;Node6</title>
<path fill="none" stroke="midnightblue" d="M445.24,-171.67C463.67,-181.44 492.18,-196.56 512,-207.07"/>
<polygon fill="midnightblue" stroke="midnightblue" points="510.48,-210.22 520.95,-211.82 513.76,-204.04 510.48,-210.22"/>
</g>
<!-- Node10&#45;&gt;Node4 -->
<g id="edge14" class="edge">
<title>Node10&#45;&gt;Node4</title>
<path fill="none" stroke="midnightblue" d="M455.24,-276C464.02,-276 473.97,-276 483.79,-276"/>
<polygon fill="midnightblue" stroke="midnightblue" points="483.91,-279.5 493.91,-276 483.91,-272.5 483.91,-279.5"/>
</g>
<!-- Node10&#45;&gt;Node6 -->
<g id="edge15" class="edge">
<title>Node10&#45;&gt;Node6</title>
<path fill="none" stroke="midnightblue" d="M445.24,-266.33C463.67,-256.56 492.18,-241.44 512,-230.93"/>
<polygon fill="midnightblue" stroke="midnightblue" points="513.76,-233.96 520.95,-226.18 510.48,-227.78 513.76,-233.96"/>
</g>
<!-- Node13&#45;&gt;Node4 -->
<g id="edge21" class="edge">
<title>Node13&#45;&gt;Node4</title>
<path fill="none" stroke="midnightblue" d="M440.61,-342.37C458.79,-329.53 491.19,-306.62 512.76,-291.37"/>
<polygon fill="midnightblue" stroke="midnightblue" points="514.85,-294.18 521,-285.55 510.81,-288.46 514.85,-294.18"/>
</g>
<!-- Node13&#45;&gt;Node5 -->
<g id="edge20" class="edge">
<title>Node13&#45;&gt;Node5</title>
<path fill="none" stroke="midnightblue" d="M458.02,-345.43C495.34,-337.52 558.5,-324.13 602.91,-314.72"/>
<polygon fill="midnightblue" stroke="midnightblue" points="603.86,-318.1 612.92,-312.6 602.41,-311.25 603.86,-318.1"/>
</g>
<!-- Node13&#45;&gt;Node6 -->
<g id="edge22" class="edge">
<title>Node13&#45;&gt;Node6</title>
<path fill="none" stroke="midnightblue" d="M432.87,-342.36C443.86,-324.65 468.71,-286.09 494,-257 500.46,-249.57 508.2,-242.03 515.18,-235.64"/>
<polygon fill="midnightblue" stroke="midnightblue" points="517.77,-238.02 522.9,-228.75 513.11,-232.8 517.77,-238.02"/>
</g>
<!-- Node14&#45;&gt;Node4 -->
<g id="edge24" class="edge">
<title>Node14&#45;&gt;Node4</title>
<path fill="none" stroke="midnightblue" d="M327.81,-342.41C337.5,-339.42 348.2,-336.1 358,-333 405.43,-318.01 459.89,-300.36 495.62,-288.71"/>
<polygon fill="midnightblue" stroke="midnightblue" points="496.76,-292.02 505.18,-285.59 494.59,-285.37 496.76,-292.02"/>
</g>
<!-- Node14&#45;&gt;Node13 -->
<g id="edge25" class="edge">
<title>Node14&#45;&gt;Node13</title>
<path fill="none" stroke="midnightblue" d="M358.12,-352C366.81,-352 375.57,-352 383.76,-352"/>
<polygon fill="midnightblue" stroke="midnightblue" points="383.77,-355.5 393.77,-352 383.77,-348.5 383.77,-355.5"/>
</g>
<!-- Node15&#45;&gt;Node4 -->
<g id="edge27" class="edge">
<title>Node15&#45;&gt;Node4</title>
<path fill="none" stroke="midnightblue" d="M447.21,-133.7C451.17,-136.3 455.02,-139.4 458,-143 486.8,-177.78 468.89,-200.47 494,-238 499.32,-245.95 506.6,-253.44 513.51,-259.64"/>
<polygon fill="midnightblue" stroke="midnightblue" points="511.44,-262.47 521.33,-266.27 515.97,-257.13 511.44,-262.47"/>
</g>
<!-- Node15&#45;&gt;Node6 -->
<g id="edge28" class="edge">
<title>Node15&#45;&gt;Node6</title>
<path fill="none" stroke="midnightblue" d="M444.21,-133.57C448.83,-136.4 453.73,-139.65 458,-143 481.07,-161.12 504.55,-185.53 519.31,-201.74"/>
<polygon fill="midnightblue" stroke="midnightblue" points="516.89,-204.29 526.18,-209.4 522.1,-199.62 516.89,-204.29"/>
</g>
</g>
</svg>
