<?xml version="1.0" encoding="UTF-8" standalone="no"?>
<!DOCTYPE svg PUBLIC "-//W3C//DTD SVG 1.1//EN"
 "http://www.w3.org/Graphics/SVG/1.1/DTD/svg11.dtd">
<!-- Generated by graphviz version 7.0.5 (20221223.1930)
 -->
<!-- Title: WriteBackup Pages: 1 -->
<svg width="1425pt" height="427pt"
 viewBox="0.00 0.00 1425.00 426.50" xmlns="http://www.w3.org/2000/svg" xmlns:xlink="http://www.w3.org/1999/xlink">
<g id="graph0" class="graph" transform="scale(1 1) rotate(0) translate(4 422.5)">
<title>WriteBackup</title>
<!-- Node1 -->
<g id="node1" class="node">
<title>Node1</title>
<g id="a_node1"><a xlink:title=" ">
<polygon fill="#999999" stroke="#666666" points="1417,-62 1345,-62 1345,-43 1417,-43 1417,-62"/>
<text text-anchor="middle" x="1381" y="-50" font-family="Helvetica,sans-Serif" font-size="10.00">WriteBackup</text>
</a>
</g>
</g>
<!-- Node2 -->
<g id="node2" class="node">
<title>Node2</title>
<g id="a_node2"><a xlink:href="TransmitterCode_2src_2main_8cpp.html#a804fdbdd5eab4c596bbe8a23eecbe4d5" target="_top" xlink:title=" ">
<polygon fill="white" stroke="#666666" points="1309,-172 1208,-172 1208,-153 1309,-153 1309,-172"/>
<text text-anchor="middle" x="1258.5" y="-160" font-family="Helvetica,sans-Serif" font-size="10.00">ButtonWasPressed</text>
</a>
</g>
</g>
<!-- Node1&#45;&gt;Node2 -->
<g id="edge1" class="edge">
<title>Node1&#45;&gt;Node2</title>
<path fill="none" stroke="#63b8ff" d="M1360.81,-70.02C1335.22,-93.38 1290.77,-133.95 1270.34,-152.6"/>
<polygon fill="#63b8ff" stroke="#63b8ff" points="1363.16,-72.61 1368.19,-63.28 1358.44,-67.44 1363.16,-72.61"/>
</g>
<!-- Node5 -->
<g id="node5" class="node">
<title>Node5</title>
<g id="a_node5"><a xlink:href="TransmitterCode_2src_2main_8cpp.html#a9d94366336f1e5fd43edb9c24bec5821" target="_top" xlink:title=" ">
<polygon fill="white" stroke="#666666" points="819,-19 751,-19 751,0 819,0 819,-19"/>
<text text-anchor="middle" x="785" y="-7" font-family="Helvetica,sans-Serif" font-size="10.00">RenameFile</text>
</a>
</g>
</g>
<!-- Node1&#45;&gt;Node5 -->
<g id="edge32" class="edge">
<title>Node1&#45;&gt;Node5</title>
<path fill="none" stroke="#63b8ff" d="M1333.36,-49.12C1217.63,-40.75 919.46,-19.16 819.35,-11.91"/>
<polygon fill="#63b8ff" stroke="#63b8ff" points="1332.89,-52.6 1343.11,-49.83 1333.39,-45.62 1332.89,-52.6"/>
</g>
<!-- Node3 -->
<g id="node3" class="node">
<title>Node3</title>
<g id="a_node3"><a xlink:href="Utilities_8h.html#afb7c85cac4aa89fd998ed81c330374d2" target="_top" xlink:title=" ">
<polygon fill="white" stroke="#666666" points="1172,-229 1026,-229 1026,-210 1172,-210 1172,-229"/>
<text text-anchor="middle" x="1099" y="-217" font-family="Helvetica,sans-Serif" font-size="10.00">CheckForNextionButtonPress</text>
</a>
</g>
</g>
<!-- Node2&#45;&gt;Node3 -->
<g id="edge2" class="edge">
<title>Node2&#45;&gt;Node3</title>
<path fill="none" stroke="#63b8ff" d="M1221.96,-176.64C1206.65,-182.62 1188.51,-189.57 1172,-195.5 1158.61,-200.31 1143.7,-205.34 1130.94,-209.54"/>
<polygon fill="#63b8ff" stroke="#63b8ff" points="1223.11,-179.95 1231.14,-173.04 1220.55,-173.44 1223.11,-179.95"/>
</g>
<!-- Node18 -->
<g id="node18" class="node">
<title>Node18</title>
<g id="a_node18"><a xlink:href="TransmitterCode_2src_2main_8cpp.html#ab7c9edf843c732d7fe296564f39bc0dc" target="_top" xlink:title="RECEIVE A MODEL FILE.">
<polygon fill="white" stroke="#666666" points="832,-56 738,-56 738,-37 832,-37 832,-56"/>
<text text-anchor="middle" x="785" y="-44" font-family="Helvetica,sans-Serif" font-size="10.00">ReceiveModelFile</text>
</a>
</g>
</g>
<!-- Node2&#45;&gt;Node18 -->
<g id="edge31" class="edge">
<title>Node2&#45;&gt;Node18</title>
<path fill="none" stroke="#63b8ff" d="M1205.89,-149.8C1111.25,-126.52 911.86,-77.46 826.34,-56.43"/>
<polygon fill="#63b8ff" stroke="#63b8ff" points="1204.88,-153.16 1215.42,-152.15 1206.55,-146.36 1204.88,-153.16"/>
</g>
<!-- Node4 -->
<g id="node4" class="node">
<title>Node4</title>
<g id="a_node4"><a xlink:href="TransmitterCode_2src_2main_8cpp.html#a641d6dab68ec7b2a8a32492aac55bc1c" target="_top" xlink:title=" ">
<polygon fill="white" stroke="#666666" points="990,-153 885,-153 885,-134 990,-134 990,-153"/>
<text text-anchor="middle" x="937.5" y="-141" font-family="Helvetica,sans-Serif" font-size="10.00">GetBackupFilename</text>
</a>
</g>
</g>
<!-- Node3&#45;&gt;Node4 -->
<g id="edge3" class="edge">
<title>Node3&#45;&gt;Node4</title>
<path fill="none" stroke="#63b8ff" d="M1068.02,-204.43C1046.42,-193.66 1016.53,-178.93 990,-166.5 980.6,-162.1 970.16,-157.4 961.14,-153.4"/>
<polygon fill="#63b8ff" stroke="#63b8ff" points="1066.34,-207.5 1076.84,-208.84 1069.47,-201.24 1066.34,-207.5"/>
</g>
<!-- Node6 -->
<g id="node6" class="node">
<title>Node6</title>
<g id="a_node6"><a xlink:href="TransmitterCode_2src_2main_8cpp.html#a6506bf72e0dd9e9ce480156b47625bff" target="_top" xlink:title=" ">
<polygon fill="white" stroke="#666666" points="980.5,-195 894.5,-195 894.5,-176 980.5,-176 980.5,-195"/>
<text text-anchor="middle" x="937.5" y="-183" font-family="Helvetica,sans-Serif" font-size="10.00">GetConfirmation</text>
</a>
</g>
</g>
<!-- Node3&#45;&gt;Node6 -->
<g id="edge6" class="edge">
<title>Node3&#45;&gt;Node6</title>
<path fill="none" stroke="#63b8ff" d="M1040.41,-207.22C1020.7,-203.02 999.03,-198.4 980.76,-194.51"/>
<polygon fill="#63b8ff" stroke="#63b8ff" points="1039.45,-210.6 1049.96,-209.26 1040.91,-203.75 1039.45,-210.6"/>
</g>
<!-- Node22 -->
<g id="node22" class="node">
<title>Node22</title>
<g id="a_node22"><a xlink:href="TransmitterCode_2src_2main_8cpp.html#a558ea014e230b7caa54ce5a37ad29b22" target="_top" xlink:title=" ">
<polygon fill="white" stroke="#666666" points="684.5,-390 583.5,-390 583.5,-371 684.5,-371 684.5,-390"/>
<text text-anchor="middle" x="634" y="-378" font-family="Helvetica,sans-Serif" font-size="10.00">ManageTransmitter</text>
</a>
</g>
</g>
<!-- Node3&#45;&gt;Node22 -->
<g id="edge25" class="edge">
<title>Node3&#45;&gt;Node22</title>
<path fill="none" stroke="#63b8ff" d="M1079.71,-237.2C1059.21,-256.29 1024.33,-286.62 990,-306.5 931.79,-340.22 914.49,-346.15 849,-361.5 793.8,-374.44 728.71,-378.71 684.93,-380.05"/>
<polygon fill="#63b8ff" stroke="#63b8ff" points="1082.1,-239.75 1086.96,-230.33 1077.29,-234.66 1082.1,-239.75"/>
</g>
<!-- Node23 -->
<g id="node23" class="node">
<title>Node23</title>
<g id="a_node23"><a xlink:href="TransmitterCode_2src_2main_8cpp.html#a6f5b0f1e4ca75768c16c4dd93f92a8de" target="_top" xlink:title=" ">
<polygon fill="white" stroke="#666666" points="963.5,-297 911.5,-297 911.5,-278 963.5,-278 963.5,-297"/>
<text text-anchor="middle" x="937.5" y="-285" font-family="Helvetica,sans-Serif" font-size="10.00">MsgBox</text>
</a>
</g>
</g>
<!-- Node3&#45;&gt;Node23 -->
<g id="edge27" class="edge">
<title>Node3&#45;&gt;Node23</title>
<path fill="none" stroke="#63b8ff" d="M1064.55,-233.76C1033.72,-246.9 988.78,-266.06 961.72,-277.6"/>
<polygon fill="#63b8ff" stroke="#63b8ff" points="1065.59,-237.12 1073.42,-229.98 1062.84,-230.68 1065.59,-237.12"/>
</g>
<!-- Node4&#45;&gt;Node2 -->
<g id="edge4" class="edge">
<title>Node4&#45;&gt;Node2</title>
<path fill="none" stroke="#63b8ff" d="M1001.68,-147.26C1062.13,-150.86 1152.1,-156.22 1207.66,-159.53"/>
<polygon fill="#63b8ff" stroke="#63b8ff" points="1002.08,-143.78 991.88,-146.68 1001.66,-150.77 1002.08,-143.78"/>
</g>
<!-- Node4&#45;&gt;Node5 -->
<g id="edge5" class="edge">
<title>Node4&#45;&gt;Node5</title>
<path fill="none" stroke="#63b8ff" d="M926.72,-123.55C912.95,-97.56 885.42,-52.49 849,-27.5 840.28,-21.51 829.58,-17.5 819.49,-14.82"/>
<polygon fill="#63b8ff" stroke="#63b8ff" points="923.55,-125.05 931.22,-132.36 929.79,-121.87 923.55,-125.05"/>
</g>
<!-- Node6&#45;&gt;Node2 -->
<g id="edge7" class="edge">
<title>Node6&#45;&gt;Node2</title>
<path fill="none" stroke="#63b8ff" d="M992.01,-181.64C1052.16,-177.3 1149.05,-170.32 1207.66,-166.09"/>
<polygon fill="#63b8ff" stroke="#63b8ff" points="992.09,-178.13 982.37,-182.34 992.6,-185.11 992.09,-178.13"/>
</g>
<!-- Node6&#45;&gt;Node5 -->
<g id="edge21" class="edge">
<title>Node6&#45;&gt;Node5</title>
<path fill="none" stroke="#63b8ff" d="M893.98,-169.66C890.65,-167.28 887.58,-164.58 885,-161.5 845.34,-114.28 892.26,-71.45 849,-27.5 841.18,-19.56 830.11,-15.06 819.44,-12.53"/>
<polygon fill="#63b8ff" stroke="#63b8ff" points="892.18,-172.66 902.57,-174.73 895.74,-166.63 892.18,-172.66"/>
</g>
<!-- Node7 -->
<g id="node7" class="node">
<title>Node7</title>
<g id="a_node7"><a xlink:href="TransmitterCode_2src_2main_8cpp.html#ac45477c637c975e13189e2988c8813b3" target="_top" xlink:title=" ">
<polygon fill="white" stroke="#666666" points="825,-278 745,-278 745,-259 825,-259 825,-278"/>
<text text-anchor="middle" x="785" y="-266" font-family="Helvetica,sans-Serif" font-size="10.00">DeleteModelID</text>
</a>
</g>
</g>
<!-- Node6&#45;&gt;Node7 -->
<g id="edge8" class="edge">
<title>Node6&#45;&gt;Node7</title>
<path fill="none" stroke="#63b8ff" d="M917.64,-202.7C900.76,-217.27 874.77,-237.78 849,-250.5 841.66,-254.13 833.46,-257.14 825.47,-259.59"/>
<polygon fill="#63b8ff" stroke="#63b8ff" points="919.71,-205.54 924.88,-196.3 915.07,-200.29 919.71,-205.54"/>
</g>
<!-- Node8 -->
<g id="node8" class="node">
<title>Node8</title>
<g id="a_node8"><a xlink:href="TransmitterCode_2src_2main_8cpp.html#a53d438145d004c3b053f245f494f4284" target="_top" xlink:title=" ">
<polygon fill="white" stroke="#666666" points="811,-93 759,-93 759,-74 811,-74 811,-93"/>
<text text-anchor="middle" x="785" y="-81" font-family="Helvetica,sans-Serif" font-size="10.00">DelLOG</text>
</a>
</g>
</g>
<!-- Node6&#45;&gt;Node8 -->
<g id="edge9" class="edge">
<title>Node6&#45;&gt;Node8</title>
<path fill="none" stroke="#63b8ff" d="M897.48,-170.44C893.01,-167.83 888.73,-164.86 885,-161.5 861.89,-140.69 873.68,-120.43 849,-101.5 838.17,-93.19 823.65,-88.72 811.28,-86.31"/>
<polygon fill="#63b8ff" stroke="#63b8ff" points="895.57,-173.39 906.06,-174.87 898.78,-167.17 895.57,-173.39"/>
</g>
<!-- Node9 -->
<g id="node9" class="node">
<title>Node9</title>
<g id="a_node9"><a xlink:href="TransmitterCode_2src_2main_8cpp.html#a16c65917a148c7f6c17babf11e977b69" target="_top" xlink:title=" ">
<polygon fill="white" stroke="#666666" points="826,-241 744,-241 744,-222 826,-222 826,-241"/>
<text text-anchor="middle" x="785" y="-229" font-family="Helvetica,sans-Serif" font-size="10.00">EndBuddyView</text>
</a>
</g>
</g>
<!-- Node6&#45;&gt;Node9 -->
<g id="edge10" class="edge">
<title>Node6&#45;&gt;Node9</title>
<path fill="none" stroke="#63b8ff" d="M895.46,-198.93C880.83,-203.64 864.21,-208.9 849,-213.5 840.18,-216.17 830.64,-218.95 821.71,-221.51"/>
<polygon fill="#63b8ff" stroke="#63b8ff" points="896.32,-202.33 904.76,-195.92 894.17,-195.66 896.32,-202.33"/>
</g>
<!-- Node10 -->
<g id="node10" class="node">
<title>Node10</title>
<g id="a_node10"><a xlink:href="ModelMatch_8h.html#afdd42b1130d38073be1c2025af855879" target="_top" xlink:title=" ">
<polygon fill="white" stroke="#666666" points="819.5,-315 750.5,-315 750.5,-296 819.5,-296 819.5,-315"/>
<text text-anchor="middle" x="785" y="-303" font-family="Helvetica,sans-Serif" font-size="10.00">IDNotFound</text>
</a>
</g>
</g>
<!-- Node6&#45;&gt;Node10 -->
<g id="edge11" class="edge">
<title>Node6&#45;&gt;Node10</title>
<path fill="none" stroke="#63b8ff" d="M924.83,-205.03C910.04,-228.11 882.4,-266.09 849,-287.5 840.29,-293.09 829.81,-296.98 819.92,-299.67"/>
<polygon fill="#63b8ff" stroke="#63b8ff" points="927.77,-206.93 930.07,-196.59 921.82,-203.24 927.77,-206.93"/>
</g>
<!-- Node17 -->
<g id="node17" class="node">
<title>Node17</title>
<g id="a_node17"><a xlink:href="TransmitterCode_2src_2main_8cpp.html#ae9f91b9da28f2e1e2fb126961f03c31c" target="_top" xlink:title=" ">
<polygon fill="white" stroke="#666666" points="825.5,-204 744.5,-204 744.5,-185 825.5,-185 825.5,-204"/>
<text text-anchor="middle" x="785" y="-192" font-family="Helvetica,sans-Serif" font-size="10.00">ModelViewEnd</text>
</a>
</g>
</g>
<!-- Node6&#45;&gt;Node17 -->
<g id="edge19" class="edge">
<title>Node6&#45;&gt;Node17</title>
<path fill="none" stroke="#63b8ff" d="M882.8,-188.71C864.06,-189.83 843.36,-191.07 825.94,-192.11"/>
<polygon fill="#63b8ff" stroke="#63b8ff" points="882.89,-192.21 892.67,-188.12 882.47,-185.22 882.89,-192.21"/>
</g>
<!-- Node6&#45;&gt;Node18 -->
<g id="edge20" class="edge">
<title>Node6&#45;&gt;Node18</title>
<path fill="none" stroke="#63b8ff" d="M895.31,-170.09C891.53,-167.6 888,-164.75 885,-161.5 853.82,-127.7 882.74,-95.74 849,-64.5 844.24,-60.1 838.48,-56.76 832.4,-54.24"/>
<polygon fill="#63b8ff" stroke="#63b8ff" points="893.31,-172.98 903.75,-174.81 896.73,-166.87 893.31,-172.98"/>
</g>
<!-- Node19 -->
<g id="node19" class="node">
<title>Node19</title>
<g id="a_node19"><a xlink:href="TransmitterCode_2src_2main_8cpp.html#a5c7f22bae35d5d6df9d54fe79dbb8401" target="_top" xlink:title=" ">
<polygon fill="white" stroke="#666666" points="849,-167 721,-167 721,-148 849,-148 849,-167"/>
<text text-anchor="middle" x="785" y="-155" font-family="Helvetica,sans-Serif" font-size="10.00">ResetTransmitterSettings</text>
</a>
</g>
</g>
<!-- Node6&#45;&gt;Node19 -->
<g id="edge22" class="edge">
<title>Node6&#45;&gt;Node19</title>
<path fill="none" stroke="#63b8ff" d="M883.12,-175.57C868.98,-172.94 853.71,-170.1 839.56,-167.46"/>
<polygon fill="#63b8ff" stroke="#63b8ff" points="882.22,-178.96 892.69,-177.35 883.5,-172.08 882.22,-178.96"/>
</g>
<!-- Node20 -->
<g id="node20" class="node">
<title>Node20</title>
<g id="a_node20"><a xlink:href="TransmitterCode_2src_2main_8cpp.html#a3838aa0b33bb22d3b9934da05d2716d8" target="_top" xlink:title=" ">
<polygon fill="white" stroke="#666666" points="823,-352 747,-352 747,-333 823,-333 823,-352"/>
<text text-anchor="middle" x="785" y="-340" font-family="Helvetica,sans-Serif" font-size="10.00">StoreModelID</text>
</a>
</g>
</g>
<!-- Node6&#45;&gt;Node20 -->
<g id="edge23" class="edge">
<title>Node6&#45;&gt;Node20</title>
<path fill="none" stroke="#63b8ff" d="M924.65,-204.71C901.4,-242.36 851.79,-322.41 849,-324.5 841.54,-330.1 832.39,-333.96 823.41,-336.62"/>
<polygon fill="#63b8ff" stroke="#63b8ff" points="927.38,-206.95 929.66,-196.6 921.43,-203.27 927.38,-206.95"/>
</g>
<!-- Node21 -->
<g id="node21" class="node">
<title>Node21</title>
<g id="a_node21"><a xlink:href="TransmitterCode_2src_2main_8cpp.html#a3c55ef7c23759a89a86f6519569c4f7a" target="_top" xlink:title=" ">
<polygon fill="white" stroke="#666666" points="834.5,-130 735.5,-130 735.5,-111 834.5,-111 834.5,-130"/>
<text text-anchor="middle" x="785" y="-118" font-family="Helvetica,sans-Serif" font-size="10.00">TXModuleViewEnd</text>
</a>
</g>
</g>
<!-- Node6&#45;&gt;Node21 -->
<g id="edge24" class="edge">
<title>Node6&#45;&gt;Node21</title>
<path fill="none" stroke="#63b8ff" d="M903.28,-170.81C897.13,-167.87 890.82,-164.69 885,-161.5 868.36,-152.36 866.31,-146.3 849,-138.5 842.16,-135.42 834.65,-132.72 827.29,-130.43"/>
<polygon fill="#63b8ff" stroke="#63b8ff" points="901.44,-173.81 911.99,-174.87 904.4,-167.47 901.44,-173.81"/>
</g>
<!-- Node11 -->
<g id="node11" class="node">
<title>Node11</title>
<g id="a_node11"><a xlink:href="ModelMatch_8h.html#af8fe429ceb65bf9d257a2a0f1c63eccb" target="_top" xlink:title=" ">
<polygon fill="white" stroke="#666666" points="685,-315 583,-315 583,-296 685,-296 685,-315"/>
<text text-anchor="middle" x="634" y="-303" font-family="Helvetica,sans-Serif" font-size="10.00">CompareModelsIDs</text>
</a>
</g>
</g>
<!-- Node10&#45;&gt;Node11 -->
<g id="edge12" class="edge">
<title>Node10&#45;&gt;Node11</title>
<path fill="none" stroke="#63b8ff" d="M738.93,-305.5C722.03,-305.5 702.72,-305.5 685.37,-305.5"/>
<polygon fill="#63b8ff" stroke="#63b8ff" points="738.68,-309 748.68,-305.5 738.68,-302 738.68,-309"/>
</g>
<!-- Node12 -->
<g id="node12" class="node">
<title>Node12</title>
<g id="a_node12"><a xlink:href="ModelMatch_8h.html#a494cb4acb30856d1f53f08df1b80c41b" target="_top" xlink:title=" ">
<polygon fill="white" stroke="#666666" points="547,-315 428,-315 428,-296 547,-296 547,-315"/>
<text text-anchor="middle" x="487.5" y="-303" font-family="Helvetica,sans-Serif" font-size="10.00">GetModelsMacAddress</text>
</a>
</g>
</g>
<!-- Node11&#45;&gt;Node12 -->
<g id="edge13" class="edge">
<title>Node11&#45;&gt;Node12</title>
<path fill="none" stroke="#63b8ff" d="M571.42,-305.5C563.48,-305.5 555.37,-305.5 547.49,-305.5"/>
<polygon fill="#63b8ff" stroke="#63b8ff" points="571.35,-309 581.35,-305.5 571.35,-302 571.35,-309"/>
</g>
<!-- Node13 -->
<g id="node13" class="node">
<title>Node13</title>
<g id="a_node13"><a xlink:href="TransmitterCode_2src_2main_8cpp.html#a694f4f5a0147f4dc29b0bc1a8951547d" target="_top" xlink:title=" ">
<polygon fill="white" stroke="#666666" points="392,-315 298,-315 298,-296 392,-296 392,-315"/>
<text text-anchor="middle" x="345" y="-303" font-family="Helvetica,sans-Serif" font-size="10.00">ParseAckPayload</text>
</a>
</g>
</g>
<!-- Node12&#45;&gt;Node13 -->
<g id="edge14" class="edge">
<title>Node12&#45;&gt;Node13</title>
<path fill="none" stroke="#63b8ff" d="M416.22,-305.5C408.05,-305.5 399.87,-305.5 392.14,-305.5"/>
<polygon fill="#63b8ff" stroke="#63b8ff" points="416.22,-309 426.22,-305.5 416.22,-302 416.22,-309"/>
</g>
<!-- Node14 -->
<g id="node14" class="node">
<title>Node14</title>
<g id="a_node14"><a xlink:href="transceiver_8h.html#a1c11bb6771548de7d96723045b922620" target="_top" xlink:title=" ">
<polygon fill="white" stroke="#666666" points="262,-315 166,-315 166,-296 262,-296 262,-315"/>
<text text-anchor="middle" x="214" y="-303" font-family="Helvetica,sans-Serif" font-size="10.00">SuccessfulPacket</text>
</a>
</g>
</g>
<!-- Node13&#45;&gt;Node14 -->
<g id="edge15" class="edge">
<title>Node13&#45;&gt;Node14</title>
<path fill="none" stroke="#63b8ff" d="M286.47,-305.5C278.35,-305.5 270.08,-305.5 262.19,-305.5"/>
<polygon fill="#63b8ff" stroke="#63b8ff" points="286.28,-309 296.28,-305.5 286.28,-302 286.28,-309"/>
</g>
<!-- Node15 -->
<g id="node15" class="node">
<title>Node15</title>
<g id="a_node15"><a xlink:href="transceiver_8h.html#a049bfb836e7aa4a3a48a1a4bd225fafc" target="_top" xlink:title=" ">
<polygon fill="white" stroke="#666666" points="130,-353 71,-353 71,-334 130,-334 130,-353"/>
<text text-anchor="middle" x="100.5" y="-341" font-family="Helvetica,sans-Serif" font-size="10.00">SendData</text>
</a>
</g>
</g>
<!-- Node14&#45;&gt;Node15 -->
<g id="edge16" class="edge">
<title>Node14&#45;&gt;Node15</title>
<path fill="none" stroke="#63b8ff" d="M173.21,-319.06C159.01,-323.9 143.3,-329.25 130.21,-333.71"/>
<polygon fill="#63b8ff" stroke="#63b8ff" points="173.94,-322.51 182.27,-315.97 171.68,-315.89 173.94,-322.51"/>
</g>
<!-- Node15&#45;&gt;Node2 -->
<g id="edge17" class="edge">
<title>Node15&#45;&gt;Node2</title>
<path fill="none" stroke="#63b8ff" d="M140.91,-356.39C210.06,-377.83 358.13,-418.5 486.5,-418.5 938.5,-418.5 938.5,-418.5 938.5,-418.5 1098.98,-418.5 1224.73,-218.98 1252,-172.22"/>
<polygon fill="#63b8ff" stroke="#63b8ff" points="142.14,-353.11 131.55,-353.45 140.04,-359.79 142.14,-353.11"/>
</g>
<!-- Node16 -->
<g id="node16" class="node">
<title>Node16</title>
<g id="a_node16"><a xlink:href="TransmitterCode_2src_2main_8cpp.html#ad3cb30894c94eb016e98bdcaa899ac86" target="_top" xlink:title=" ">
<polygon fill="white" stroke="#666666" points="35,-372 0,-372 0,-353 35,-353 35,-372"/>
<text text-anchor="middle" x="17.5" y="-360" font-family="Helvetica,sans-Serif" font-size="10.00">loop</text>
</a>
</g>
</g>
<!-- Node15&#45;&gt;Node16 -->
<g id="edge18" class="edge">
<title>Node15&#45;&gt;Node16</title>
<path fill="none" stroke="#63b8ff" d="M59.63,-352.85C51.08,-354.86 42.5,-356.87 35.4,-358.54"/>
<polygon fill="#63b8ff" stroke="#63b8ff" points="60.3,-356.29 69.24,-350.6 58.71,-349.47 60.3,-356.29"/>
</g>
<!-- Node22&#45;&gt;Node16 -->
<g id="edge26" class="edge">
<title>Node22&#45;&gt;Node16</title>
<path fill="none" stroke="#63b8ff" d="M571.8,-378.71C435.5,-374.71 112.84,-365.26 35.42,-363"/>
<polygon fill="#63b8ff" stroke="#63b8ff" points="571.62,-382.2 581.72,-379 571.83,-375.21 571.62,-382.2"/>
</g>
<!-- Node23&#45;&gt;Node7 -->
<g id="edge28" class="edge">
<title>Node23&#45;&gt;Node7</title>
<path fill="none" stroke="#63b8ff" d="M900.16,-282.91C877.58,-280.06 848.57,-276.4 825.44,-273.48"/>
<polygon fill="#63b8ff" stroke="#63b8ff" points="899.45,-286.35 909.81,-284.13 900.33,-279.41 899.45,-286.35"/>
</g>
<!-- Node23&#45;&gt;Node10 -->
<g id="edge29" class="edge">
<title>Node23&#45;&gt;Node10</title>
<path fill="none" stroke="#63b8ff" d="M899.98,-291.87C875.54,-294.79 843.6,-298.61 819.75,-301.46"/>
<polygon fill="#63b8ff" stroke="#63b8ff" points="900.29,-295.36 909.81,-290.69 899.46,-288.4 900.29,-295.36"/>
</g>
<!-- Node23&#45;&gt;Node20 -->
<g id="edge30" class="edge">
<title>Node23&#45;&gt;Node20</title>
<path fill="none" stroke="#63b8ff" d="M905.03,-301.9C888.54,-309.17 867.88,-317.84 849,-324.5 840.74,-327.41 831.75,-330.2 823.22,-332.68"/>
<polygon fill="#63b8ff" stroke="#63b8ff" points="906.12,-305.25 913.83,-297.98 903.27,-298.86 906.12,-305.25"/>
</g>
</g>
</svg>
