<?xml version="1.0" encoding="UTF-8" standalone="no"?>
<!DOCTYPE svg PUBLIC "-//W3C//DTD SVG 1.1//EN"
 "http://www.w3.org/Graphics/SVG/1.1/DTD/svg11.dtd">
<!-- Generated by graphviz version 7.0.5 (20221223.1930)
 -->
<!-- Title: SetDefaultValues Pages: 1 -->
<svg width="1089pt" height="1155pt"
 viewBox="0.00 0.00 1089.00 1155.01" xmlns="http://www.w3.org/2000/svg" xmlns:xlink="http://www.w3.org/1999/xlink">
<g id="graph0" class="graph" transform="scale(1 1) rotate(0) translate(4 1151.01)">
<title>SetDefaultValues</title>
<!-- Node1 -->
<g id="node1" class="node">
<title>Node1</title>
<g id="a_node1"><a xlink:title=" ">
<polygon fill="#999999" stroke="#666666" points="92,-1127.01 0,-1127.01 0,-1108.01 92,-1108.01 92,-1127.01"/>
<text text-anchor="middle" x="46" y="-1115.01" font-family="Helvetica,sans-Serif" font-size="10.00">SetDefaultValues</text>
</a>
</g>
</g>
<!-- Node2 -->
<g id="node2" class="node">
<title>Node2</title>
<g id="a_node2"><a xlink:href="SDcard_8h.html#a6922974b734cfe3a511e074a2d6ac33c" target="_top" xlink:title=" ">
<polygon fill="white" stroke="#666666" points="217,-1146.01 128,-1146.01 128,-1127.01 217,-1127.01 217,-1146.01"/>
<text text-anchor="middle" x="172.5" y="-1134.01" font-family="Helvetica,sans-Serif" font-size="10.00">CloseModelsFile</text>
</a>
</g>
</g>
<!-- Node1&#45;&gt;Node2 -->
<g id="edge1" class="edge">
<title>Node1&#45;&gt;Node2</title>
<path fill="none" stroke="#63b8ff" d="M92.3,-1124.42C100.14,-1125.62 108.38,-1126.88 116.45,-1128.11"/>
<polygon fill="#63b8ff" stroke="#63b8ff" points="115.78,-1131.55 126.19,-1129.6 116.84,-1124.63 115.78,-1131.55"/>
</g>
<!-- Node3 -->
<g id="node3" class="node">
<title>Node3</title>
<g id="a_node3"><a xlink:href="SDcard_8h.html#ae7618f38a148877bc5681be58cba8354" target="_top" xlink:title=" ">
<polygon fill="white" stroke="#666666" points="216,-1109.01 129,-1109.01 129,-1090.01 216,-1090.01 216,-1109.01"/>
<text text-anchor="middle" x="172.5" y="-1097.01" font-family="Helvetica,sans-Serif" font-size="10.00">OpenModelsFile</text>
</a>
</g>
</g>
<!-- Node1&#45;&gt;Node3 -->
<g id="edge2" class="edge">
<title>Node1&#45;&gt;Node3</title>
<path fill="none" stroke="#63b8ff" d="M92.3,-1110.96C100.43,-1109.79 108.97,-1108.55 117.31,-1107.35"/>
<polygon fill="#63b8ff" stroke="#63b8ff" points="117.62,-1110.84 127.02,-1105.94 116.62,-1103.91 117.62,-1110.84"/>
</g>
<!-- Node4 -->
<g id="node4" class="node">
<title>Node4</title>
<g id="a_node4"><a xlink:href="Utilities_8h.html#a3b1d8aa403e2724e55c71da3d9d13e7e" target="_top" xlink:title=" ">
<polygon fill="white" stroke="#666666" points="330,-1109.01 253,-1109.01 253,-1090.01 330,-1090.01 330,-1109.01"/>
<text text-anchor="middle" x="291.5" y="-1097.01" font-family="Helvetica,sans-Serif" font-size="10.00">DelayWithDog</text>
</a>
</g>
</g>
<!-- Node3&#45;&gt;Node4 -->
<g id="edge3" class="edge">
<title>Node3&#45;&gt;Node4</title>
<path fill="none" stroke="#63b8ff" d="M216.4,-1099.51C224.47,-1099.51 232.96,-1099.51 241.21,-1099.51"/>
<polygon fill="#63b8ff" stroke="#63b8ff" points="241.11,-1103.01 251.11,-1099.51 241.11,-1096.01 241.11,-1103.01"/>
</g>
<!-- Node5 -->
<g id="node5" class="node">
<title>Node5</title>
<g id="a_node5"><a xlink:href="Utilities_8h.html#ada95a00a341e4a80176eda743a94ab2e" target="_top" xlink:title=" ">
<polygon fill="white" stroke="#666666" points="436,-1147.01 366,-1147.01 366,-1128.01 436,-1128.01 436,-1147.01"/>
<text text-anchor="middle" x="401" y="-1135.01" font-family="Helvetica,sans-Serif" font-size="10.00">KickTheDog</text>
</a>
</g>
</g>
<!-- Node4&#45;&gt;Node5 -->
<g id="edge4" class="edge">
<title>Node4&#45;&gt;Node5</title>
<path fill="none" stroke="#63b8ff" d="M320.74,-1109.5C333.09,-1113.86 347.77,-1119.05 361.12,-1123.77"/>
<polygon fill="#63b8ff" stroke="#63b8ff" points="359.92,-1127.06 370.52,-1127.09 362.26,-1120.46 359.92,-1127.06"/>
</g>
<!-- Node6 -->
<g id="node6" class="node">
<title>Node6</title>
<g id="a_node6"><a xlink:href="transceiver_8h.html#a049bfb836e7aa4a3a48a1a4bd225fafc" target="_top" xlink:title=" ">
<polygon fill="white" stroke="#666666" points="430.5,-674.01 371.5,-674.01 371.5,-655.01 430.5,-655.01 430.5,-674.01"/>
<text text-anchor="middle" x="401" y="-662.01" font-family="Helvetica,sans-Serif" font-size="10.00">SendData</text>
</a>
</g>
</g>
<!-- Node4&#45;&gt;Node6 -->
<g id="edge5" class="edge">
<title>Node4&#45;&gt;Node6</title>
<path fill="none" stroke="#63b8ff" d="M294.95,-1089.61C308.62,-1034.26 375.67,-762.95 394.86,-685.31"/>
<polygon fill="#63b8ff" stroke="#63b8ff" points="398.24,-686.23 397.24,-675.68 391.44,-684.55 398.24,-686.23"/>
</g>
<!-- Node7 -->
<g id="node7" class="node">
<title>Node7</title>
<g id="a_node7"><a xlink:href="transceiver_8h.html#a1ddd5e8d5bd649dd98ce3710fbff651b" target="_top" xlink:title=" ">
<polygon fill="white" stroke="#666666" points="574.5,-692.01 513.5,-692.01 513.5,-673.01 574.5,-673.01 574.5,-692.01"/>
<text text-anchor="middle" x="544" y="-680.01" font-family="Helvetica,sans-Serif" font-size="10.00">Compress</text>
</a>
</g>
</g>
<!-- Node6&#45;&gt;Node7 -->
<g id="edge6" class="edge">
<title>Node6&#45;&gt;Node7</title>
<path fill="none" stroke="#63b8ff" d="M430.87,-668.2C451.32,-670.81 479.04,-674.35 501.81,-677.25"/>
<polygon fill="#63b8ff" stroke="#63b8ff" points="501.33,-680.72 511.69,-678.51 502.22,-673.78 501.33,-680.72"/>
</g>
<!-- Node8 -->
<g id="node8" class="node">
<title>Node8</title>
<g id="a_node8"><a xlink:href="transceiver_8h.html#a4144c213e5448a7e02d4172881f08219" target="_top" xlink:title=" ">
<polygon fill="white" stroke="#666666" points="616,-655.01 472,-655.01 472,-636.01 616,-636.01 616,-655.01"/>
<text text-anchor="middle" x="544" y="-643.01" font-family="Helvetica,sans-Serif" font-size="10.00">EncodeTheChangedChannels</text>
</a>
</g>
</g>
<!-- Node6&#45;&gt;Node8 -->
<g id="edge7" class="edge">
<title>Node6&#45;&gt;Node8</title>
<path fill="none" stroke="#63b8ff" d="M430.87,-660.62C439.72,-659.43 449.94,-658.05 460.52,-656.63"/>
<polygon fill="#63b8ff" stroke="#63b8ff" points="460.7,-660.13 470.14,-655.33 459.77,-653.2 460.7,-660.13"/>
</g>
<!-- Node9 -->
<g id="node9" class="node">
<title>Node9</title>
<g id="a_node9"><a xlink:href="transceiver_8h.html#a5fbd3c8613a4163425c94965704ce5f8" target="_top" xlink:title=" ">
<polygon fill="white" stroke="#666666" points="581,-618.01 507,-618.01 507,-599.01 581,-599.01 581,-618.01"/>
<text text-anchor="middle" x="544" y="-606.01" font-family="Helvetica,sans-Serif" font-size="10.00">FailedPacket</text>
</a>
</g>
</g>
<!-- Node6&#45;&gt;Node9 -->
<g id="edge8" class="edge">
<title>Node6&#45;&gt;Node9</title>
<path fill="none" stroke="#63b8ff" d="M417.58,-654.58C431.42,-646.13 452.43,-634.17 472,-626.51 479.49,-623.58 487.6,-621 495.59,-618.78"/>
<polygon fill="#63b8ff" stroke="#63b8ff" points="496.45,-622.17 505.23,-616.26 494.67,-615.4 496.45,-622.17"/>
</g>
<!-- Node46 -->
<g id="node20" class="node">
<title>Node46</title>
<g id="a_node20"><a xlink:href="common_8h.html#a6e2d4126d864c50e7c23c988c2bfdd1a" target="_top" xlink:title=" ">
<polygon fill="white" stroke="#666666" points="1051,-580.01 1004,-580.01 1004,-561.01 1051,-561.01 1051,-580.01"/>
<text text-anchor="middle" x="1027.5" y="-568.01" font-family="Helvetica,sans-Serif" font-size="10.00">Radio1</text>
</a>
</g>
</g>
<!-- Node6&#45;&gt;Node46 -->
<g id="edge26" class="edge">
<title>Node6&#45;&gt;Node46</title>
<path fill="none" stroke="#63b8ff" d="M407.58,-654.65C417.81,-637.69 441.36,-603.45 472,-589.51 565.28,-547.06 886.63,-562.06 992.43,-568.33"/>
<polygon fill="#63b8ff" stroke="#63b8ff" points="991.97,-571.8 1002.16,-568.92 992.39,-564.82 991.97,-571.8"/>
</g>
<!-- Node49 -->
<g id="node22" class="node">
<title>Node49</title>
<g id="a_node22"><a xlink:href="transceiver_8h.html#a07c27b4e208198453c70876517926052" target="_top" xlink:title=" ">
<polygon fill="white" stroke="#666666" points="575,-208.01 513,-208.01 513,-189.01 575,-189.01 575,-208.01"/>
<text text-anchor="middle" x="544" y="-196.01" font-family="Helvetica,sans-Serif" font-size="10.00">FlushFifos</text>
</a>
</g>
</g>
<!-- Node6&#45;&gt;Node49 -->
<g id="edge24" class="edge">
<title>Node6&#45;&gt;Node49</title>
<path fill="none" stroke="#63b8ff" d="M404.7,-654.76C413.85,-621.84 444.61,-511.84 472,-421.51 494.7,-346.62 523.44,-258.18 536.27,-218.98"/>
<polygon fill="#63b8ff" stroke="#63b8ff" points="539.53,-220.29 539.32,-209.7 532.87,-218.11 539.53,-220.29"/>
</g>
<!-- Node50 -->
<g id="node23" class="node">
<title>Node50</title>
<g id="a_node23"><a xlink:href="transceiver_8h.html#a188ad446d11b2db284476c093de58b2f" target="_top" xlink:title=" ">
<polygon fill="white" stroke="#666666" points="603.5,-939.01 484.5,-939.01 484.5,-920.01 603.5,-920.01 603.5,-939.01"/>
<text text-anchor="middle" x="544" y="-927.01" font-family="Helvetica,sans-Serif" font-size="10.00">SendExtraParamemters</text>
</a>
</g>
</g>
<!-- Node6&#45;&gt;Node50 -->
<g id="edge27" class="edge">
<title>Node6&#45;&gt;Node50</title>
<path fill="none" stroke="#63b8ff" d="M407.19,-674.26C427.83,-713.05 504.39,-856.95 532.53,-909.84"/>
<polygon fill="#63b8ff" stroke="#63b8ff" points="529.27,-911.16 537.06,-918.34 535.45,-907.87 529.27,-911.16"/>
</g>
<!-- Node53 -->
<g id="node26" class="node">
<title>Node53</title>
<g id="a_node26"><a xlink:href="BuddyWireless_8h.html#a41c327908c92572d0d3eebbb19160d86" target="_top" xlink:title=" ">
<polygon fill="white" stroke="#666666" points="595,-769.01 493,-769.01 493,-750.01 595,-750.01 595,-769.01"/>
<text text-anchor="middle" x="544" y="-757.01" font-family="Helvetica,sans-Serif" font-size="10.00">SendSpecialPacket</text>
</a>
</g>
</g>
<!-- Node6&#45;&gt;Node53 -->
<g id="edge30" class="edge">
<title>Node6&#45;&gt;Node53</title>
<path fill="none" stroke="#63b8ff" d="M408.61,-674.05C419.85,-689.59 444.22,-720.35 472,-737.51 476.95,-740.57 482.36,-743.23 487.91,-745.55"/>
<polygon fill="#63b8ff" stroke="#63b8ff" points="486.68,-748.82 497.27,-749.04 489.13,-742.26 486.68,-748.82"/>
</g>
<!-- Node58 -->
<g id="node31" class="node">
<title>Node58</title>
<g id="a_node31"><a xlink:href="BuddyPPM_8h.html#a784a1eca0361b3991bca899167cc1cdb" target="_top" xlink:title=" ">
<polygon fill="white" stroke="#666666" points="581.5,-729.01 506.5,-729.01 506.5,-710.01 581.5,-710.01 581.5,-729.01"/>
<text text-anchor="middle" x="544" y="-717.01" font-family="Helvetica,sans-Serif" font-size="10.00">SendViaPPM</text>
</a>
</g>
</g>
<!-- Node6&#45;&gt;Node58 -->
<g id="edge40" class="edge">
<title>Node6&#45;&gt;Node58</title>
<path fill="none" stroke="#63b8ff" d="M418.79,-674.44C432.68,-682.34 453.13,-693.23 472,-700.51 479.36,-703.35 487.31,-705.93 495.14,-708.21"/>
<polygon fill="#63b8ff" stroke="#63b8ff" points="494.01,-711.52 504.58,-710.81 495.87,-704.78 494.01,-711.52"/>
</g>
<!-- Node59 -->
<g id="node32" class="node">
<title>Node59</title>
<g id="a_node32"><a xlink:href="transceiver_8h.html#a1c11bb6771548de7d96723045b922620" target="_top" xlink:title=" ">
<polygon fill="white" stroke="#666666" points="592,-450.01 496,-450.01 496,-431.01 592,-431.01 592,-450.01"/>
<text text-anchor="middle" x="544" y="-438.01" font-family="Helvetica,sans-Serif" font-size="10.00">SuccessfulPacket</text>
</a>
</g>
</g>
<!-- Node6&#45;&gt;Node59 -->
<g id="edge41" class="edge">
<title>Node6&#45;&gt;Node59</title>
<path fill="none" stroke="#63b8ff" d="M408.24,-654.6C429.85,-620.26 501.76,-506.03 530.74,-459.99"/>
<polygon fill="#63b8ff" stroke="#63b8ff" points="533.66,-461.92 536.03,-451.59 527.74,-458.19 533.66,-461.92"/>
</g>
<!-- Node10 -->
<g id="node10" class="node">
<title>Node10</title>
<g id="a_node10"><a xlink:href="transceiver_8h.html#afc091b5942e21a03f6dc8635d5e519ba" target="_top" xlink:title=" ">
<polygon fill="white" stroke="#666666" points="774,-542.01 652,-542.01 652,-523.01 774,-523.01 774,-542.01"/>
<text text-anchor="middle" x="713" y="-530.01" font-family="Helvetica,sans-Serif" font-size="10.00">RecordsPacketSuccess</text>
</a>
</g>
</g>
<!-- Node9&#45;&gt;Node10 -->
<g id="edge9" class="edge">
<title>Node9&#45;&gt;Node10</title>
<path fill="none" stroke="#63b8ff" d="M566.83,-598.58C595.71,-585.43 646.83,-562.17 680.05,-547.05"/>
<polygon fill="#63b8ff" stroke="#63b8ff" points="681.13,-550.4 688.78,-543.08 678.23,-544.03 681.13,-550.4"/>
</g>
<!-- Node11 -->
<g id="node11" class="node">
<title>Node11</title>
<g id="a_node11"><a xlink:href="TransmitterCode_2src_2main_8cpp.html#a7d34cec6e8edc20c8b50424e15dcc7c7" target="_top" xlink:title=" ">
<polygon fill="white" stroke="#666666" points="744.5,-921.01 681.5,-921.01 681.5,-902.01 744.5,-902.01 744.5,-921.01"/>
<text text-anchor="middle" x="713" y="-909.01" font-family="Helvetica,sans-Serif" font-size="10.00">RedLedOn</text>
</a>
</g>
</g>
<!-- Node9&#45;&gt;Node11 -->
<g id="edge10" class="edge">
<title>Node9&#45;&gt;Node11</title>
<path fill="none" stroke="#63b8ff" d="M581.42,-609.64C594.08,-611.92 607.28,-616.74 616,-626.51 695.43,-715.53 575.21,-801.21 652,-892.51 656.87,-898.3 663.49,-902.34 670.56,-905.17"/>
<polygon fill="#63b8ff" stroke="#63b8ff" points="669.05,-908.36 679.64,-908.04 671.16,-901.69 669.05,-908.36"/>
</g>
<!-- Node42 -->
<g id="node18" class="node">
<title>Node42</title>
<g id="a_node18"><a xlink:href="transceiver_8h.html#ad0236abcfc887ad708d9504c4ab2a7c3" target="_top" xlink:title=" ">
<polygon fill="white" stroke="#666666" points="757,-618.01 669,-618.01 669,-599.01 757,-599.01 757,-618.01"/>
<text text-anchor="middle" x="713" y="-606.01" font-family="Helvetica,sans-Serif" font-size="10.00">TryToReconnect</text>
</a>
</g>
</g>
<!-- Node9&#45;&gt;Node42 -->
<g id="edge20" class="edge">
<title>Node9&#45;&gt;Node42</title>
<path fill="none" stroke="#63b8ff" d="M581.24,-608.51C603.53,-608.51 632.53,-608.51 657.55,-608.51"/>
<polygon fill="#63b8ff" stroke="#63b8ff" points="657.22,-612.01 667.22,-608.51 657.22,-605.01 657.22,-612.01"/>
</g>
<!-- Node12 -->
<g id="node12" class="node">
<title>Node12</title>
<g id="a_node12"><a xlink:href="TransmitterCode_2src_2main_8cpp.html#afeaea883a32e6ebe461d419fab1b9f59" target="_top" xlink:title=" ">
<polygon fill="white" stroke="#666666" points="929.5,-1034.01 818.5,-1034.01 818.5,-1015.01 929.5,-1015.01 929.5,-1034.01"/>
<text text-anchor="middle" x="874" y="-1022.01" font-family="Helvetica,sans-Serif" font-size="10.00">ClearMostParameters</text>
</a>
</g>
</g>
<!-- Node11&#45;&gt;Node12 -->
<g id="edge11" class="edge">
<title>Node11&#45;&gt;Node12</title>
<path fill="none" stroke="#63b8ff" d="M721.26,-921.49C735.85,-940.83 770.73,-983.55 810,-1006.51 812.32,-1007.87 814.75,-1009.13 817.24,-1010.3"/>
<polygon fill="#63b8ff" stroke="#63b8ff" points="815.81,-1013.49 826.39,-1014.03 818.46,-1007.01 815.81,-1013.49"/>
</g>
<!-- Node13 -->
<g id="node13" class="node">
<title>Node13</title>
<g id="a_node13"><a xlink:href="Utilities_8h.html#a549a702bb9b539c6b3a4f20cce65adcc" target="_top" xlink:title=" ">
<polygon fill="#fff0f0" stroke="red" points="923,-731.01 825,-731.01 825,-712.01 923,-712.01 923,-731.01"/>
<text text-anchor="middle" x="874" y="-719.01" font-family="Helvetica,sans-Serif" font-size="10.00">GetLEDBrightness</text>
</a>
</g>
</g>
<!-- Node11&#45;&gt;Node13 -->
<g id="edge12" class="edge">
<title>Node11&#45;&gt;Node13</title>
<path fill="none" stroke="#63b8ff" d="M744.8,-906.84C755.01,-904.05 765.83,-899.6 774,-892.51 801.92,-868.27 791.82,-849.71 810,-817.51 825.55,-789.98 846.02,-759.71 859.34,-740.66"/>
<polygon fill="#63b8ff" stroke="#63b8ff" points="862.15,-742.75 865.05,-732.56 856.43,-738.72 862.15,-742.75"/>
</g>
<!-- Node21 -->
<g id="node14" class="node">
<title>Node21</title>
<g id="a_node14"><a xlink:href="TransmitterCode_2src_2main_8cpp.html#a2d5ec5fd5ed62d5b7b071fabe2225405" target="_top" xlink:title=" ">
<polygon fill="#fff0f0" stroke="red" points="922,-997.01 826,-997.01 826,-978.01 922,-978.01 922,-997.01"/>
<text text-anchor="middle" x="874" y="-985.01" font-family="Helvetica,sans-Serif" font-size="10.00">LogDisConnection</text>
</a>
</g>
</g>
<!-- Node11&#45;&gt;Node21 -->
<g id="edge13" class="edge">
<title>Node11&#45;&gt;Node21</title>
<path fill="none" stroke="#63b8ff" d="M730.65,-921.41C749.53,-932.42 781.4,-950.39 810,-963.51 817.61,-967 825.88,-970.41 833.85,-973.52"/>
<polygon fill="#63b8ff" stroke="#63b8ff" points="832.44,-976.73 843.03,-977.01 834.92,-970.18 832.44,-976.73"/>
</g>
<!-- Node37 -->
<g id="node15" class="node">
<title>Node37</title>
<g id="a_node15"><a xlink:href="Utilities_8h.html#aa490b4664b0a4498d53b30b82287d5df" target="_top" xlink:title=" ">
<polygon fill="#fff0f0" stroke="red" points="905.5,-845.01 842.5,-845.01 842.5,-826.01 905.5,-826.01 905.5,-845.01"/>
<text text-anchor="middle" x="874" y="-833.01" font-family="Helvetica,sans-Serif" font-size="10.00">PlaySound</text>
</a>
</g>
</g>
<!-- Node11&#45;&gt;Node37 -->
<g id="edge14" class="edge">
<title>Node11&#45;&gt;Node37</title>
<path fill="none" stroke="#63b8ff" d="M744.99,-903.09C754.46,-900.15 764.8,-896.56 774,-892.51 800.47,-880.87 828.9,-864 848.47,-851.63"/>
<polygon fill="#63b8ff" stroke="#63b8ff" points="850.3,-854.62 856.83,-846.27 846.52,-848.72 850.3,-854.62"/>
</g>
<!-- Node38 -->
<g id="node16" class="node">
<title>Node38</title>
<g id="a_node16"><a xlink:href="Nextion_8h.html#aecac2f0c289f02ef3c92b85be82eacac" target="_top" xlink:title=" ">
<polygon fill="#fff0f0" stroke="red" points="1069,-921.01 986,-921.01 986,-902.01 1069,-902.01 1069,-921.01"/>
<text text-anchor="middle" x="1027.5" y="-909.01" font-family="Helvetica,sans-Serif" font-size="10.00">SendCommand</text>
</a>
</g>
</g>
<!-- Node11&#45;&gt;Node38 -->
<g id="edge17" class="edge">
<title>Node11&#45;&gt;Node38</title>
<path fill="none" stroke="#63b8ff" d="M744.9,-919.22C763.61,-923.49 788.02,-928.36 810,-930.51 866.62,-936.06 881.43,-936.52 938,-930.51 951.05,-929.13 965.01,-926.62 977.89,-923.88"/>
<polygon fill="#63b8ff" stroke="#63b8ff" points="978.41,-927.35 987.41,-921.75 976.89,-920.51 978.41,-927.35"/>
</g>
<!-- Node41 -->
<g id="node17" class="node">
<title>Node41</title>
<g id="a_node17"><a xlink:href="Nextion_8h.html#afe513398f72d5e48f691830a1ef6eb42" target="_top" xlink:title=" ">
<polygon fill="#fff0f0" stroke="red" points="903,-921.01 845,-921.01 845,-902.01 903,-902.01 903,-921.01"/>
<text text-anchor="middle" x="874" y="-909.01" font-family="Helvetica,sans-Serif" font-size="10.00">SendText</text>
</a>
</g>
</g>
<!-- Node11&#45;&gt;Node41 -->
<g id="edge18" class="edge">
<title>Node11&#45;&gt;Node41</title>
<path fill="none" stroke="#63b8ff" d="M744.66,-911.51C769.92,-911.51 805.94,-911.51 833.39,-911.51"/>
<polygon fill="#63b8ff" stroke="#63b8ff" points="833.06,-915.01 843.06,-911.51 833.06,-908.01 833.06,-915.01"/>
</g>
<!-- Node37&#45;&gt;Node38 -->
<g id="edge15" class="edge">
<title>Node37&#45;&gt;Node38</title>
<path fill="none" stroke="#63b8ff" d="M904.28,-845.51C915.05,-849.48 927.24,-854.34 938,-859.51 960.43,-870.28 984.71,-884.77 1002.16,-895.71"/>
<polygon fill="#63b8ff" stroke="#63b8ff" points="999.98,-898.48 1010.3,-900.89 1003.73,-892.57 999.98,-898.48"/>
</g>
<!-- Node38&#45;&gt;Node4 -->
<g id="edge16" class="edge">
<title>Node38&#45;&gt;Node4</title>
<path fill="none" stroke="#63b8ff" d="M1024.74,-921.33C1018.79,-951.25 996.48,-1041.65 938,-1080.51 854.78,-1135.81 813.91,-1099.51 714,-1099.51 543,-1099.51 543,-1099.51 543,-1099.51 473,-1099.51 391.99,-1099.51 341.5,-1099.51"/>
<polygon fill="#63b8ff" stroke="#63b8ff" points="341.78,-1096.01 331.78,-1099.51 341.78,-1103.01 341.78,-1096.01"/>
</g>
<!-- Node41&#45;&gt;Node38 -->
<g id="edge19" class="edge">
<title>Node41&#45;&gt;Node38</title>
<path fill="none" stroke="#63b8ff" d="M903.5,-911.51C923.38,-911.51 950.51,-911.51 974.23,-911.51"/>
<polygon fill="#63b8ff" stroke="#63b8ff" points="974.04,-915.01 984.04,-911.51 974.04,-908.01 974.04,-915.01"/>
</g>
<!-- Node43 -->
<g id="node19" class="node">
<title>Node43</title>
<g id="a_node19"><a xlink:href="transceiver_8h.html#a52aa3e80bccf5e75346c93fdae63122d" target="_top" xlink:title=" ">
<polygon fill="#fff0f0" stroke="red" points="924.5,-542.01 823.5,-542.01 823.5,-523.01 924.5,-523.01 924.5,-542.01"/>
<text text-anchor="middle" x="874" y="-530.01" font-family="Helvetica,sans-Serif" font-size="10.00">HopToNextChannel</text>
</a>
</g>
</g>
<!-- Node42&#45;&gt;Node43 -->
<g id="edge21" class="edge">
<title>Node42&#45;&gt;Node43</title>
<path fill="none" stroke="#63b8ff" d="M734.79,-598.58C762.16,-585.49 810.53,-562.37 842.17,-547.25"/>
<polygon fill="#63b8ff" stroke="#63b8ff" points="843.33,-550.57 850.84,-543.1 840.31,-544.26 843.33,-550.57"/>
</g>
<!-- Node47 -->
<g id="node21" class="node">
<title>Node47</title>
<g id="a_node21"><a xlink:href="transceiver_8h.html#ad0e30213b21808d00110752679788a8c" target="_top" xlink:title=" ">
<polygon fill="#fff0f0" stroke="red" points="911,-618.01 837,-618.01 837,-599.01 911,-599.01 911,-618.01"/>
<text text-anchor="middle" x="874" y="-606.01" font-family="Helvetica,sans-Serif" font-size="10.00">TryOtherPipe</text>
</a>
</g>
</g>
<!-- Node42&#45;&gt;Node47 -->
<g id="edge23" class="edge">
<title>Node42&#45;&gt;Node47</title>
<path fill="none" stroke="#63b8ff" d="M757.45,-608.51C778.49,-608.51 803.81,-608.51 825.38,-608.51"/>
<polygon fill="#63b8ff" stroke="#63b8ff" points="825.08,-612.01 835.08,-608.51 825.08,-605.01 825.08,-612.01"/>
</g>
<!-- Node43&#45;&gt;Node46 -->
<g id="edge22" class="edge">
<title>Node43&#45;&gt;Node46</title>
<path fill="none" stroke="#63b8ff" d="M914.8,-542.5C939.1,-548.59 969.83,-556.3 992.9,-562.08"/>
<polygon fill="#63b8ff" stroke="#63b8ff" points="991.85,-565.43 1002.4,-564.47 993.55,-558.64 991.85,-565.43"/>
</g>
<!-- Node49&#45;&gt;Node46 -->
<g id="edge25" class="edge">
<title>Node49&#45;&gt;Node46</title>
<path fill="none" stroke="#63b8ff" d="M553.74,-188.67C598.99,-138.85 809.34,78.78 938,-30.51 1018.74,-99.1 1025.97,-458.05 1026.49,-549.36"/>
<polygon fill="#63b8ff" stroke="#63b8ff" points="1022.99,-549.32 1026.52,-559.31 1029.99,-549.3 1022.99,-549.32"/>
</g>
<!-- Node51 -->
<g id="node24" class="node">
<title>Node51</title>
<g id="a_node24"><a xlink:href="transceiver_8h.html#adac102739147db6397bbcbb371aec4fd" target="_top" xlink:title=" ">
<polygon fill="white" stroke="#666666" points="757.5,-1015.01 668.5,-1015.01 668.5,-996.01 757.5,-996.01 757.5,-1015.01"/>
<text text-anchor="middle" x="713" y="-1003.01" font-family="Helvetica,sans-Serif" font-size="10.00">LoadParameters</text>
</a>
</g>
</g>
<!-- Node50&#45;&gt;Node51 -->
<g id="edge28" class="edge">
<title>Node50&#45;&gt;Node51</title>
<path fill="none" stroke="#63b8ff" d="M566.83,-939.45C595.71,-952.59 646.83,-975.85 680.05,-990.97"/>
<polygon fill="#63b8ff" stroke="#63b8ff" points="678.23,-993.99 688.78,-994.95 681.13,-987.62 678.23,-993.99"/>
</g>
<!-- Node52 -->
<g id="node25" class="node">
<title>Node52</title>
<g id="a_node25"><a xlink:href="TransmitterCode_2src_2main_8cpp.html#a5aa4888b924a4f1d95e9cedc3004f2b6" target="_top" xlink:title=" ">
<polygon fill="white" stroke="#666666" points="915.5,-1071.01 832.5,-1071.01 832.5,-1052.01 915.5,-1052.01 915.5,-1071.01"/>
<text text-anchor="middle" x="874" y="-1059.01" font-family="Helvetica,sans-Serif" font-size="10.00">MakeTwobytes</text>
</a>
</g>
</g>
<!-- Node51&#45;&gt;Node52 -->
<g id="edge29" class="edge">
<title>Node51&#45;&gt;Node52</title>
<path fill="none" stroke="#63b8ff" d="M737.04,-1015.37C756.34,-1023.45 784.71,-1034.92 810,-1043.51 814.79,-1045.14 819.83,-1046.75 824.87,-1048.29"/>
<polygon fill="#63b8ff" stroke="#63b8ff" points="823.8,-1051.62 834.38,-1051.12 825.79,-1044.91 823.8,-1051.62"/>
</g>
<!-- Node53&#45;&gt;Node46 -->
<g id="edge39" class="edge">
<title>Node53&#45;&gt;Node46</title>
<path fill="none" stroke="#63b8ff" d="M570.4,-769.39C637.48,-793.68 822.14,-848.75 938,-768.51 998.59,-726.55 1018.27,-632.99 1024.17,-591.28"/>
<polygon fill="#63b8ff" stroke="#63b8ff" points="1027.61,-591.97 1025.4,-581.61 1020.67,-591.09 1027.61,-591.97"/>
</g>
<!-- Node54 -->
<g id="node27" class="node">
<title>Node54</title>
<g id="a_node27"><a xlink:href="BuddyWireless_8h.html#ace84aff90c63bee9a876eda720fbf8bc" target="_top" xlink:title=" ">
<polygon fill="white" stroke="#666666" points="758,-769.01 668,-769.01 668,-750.01 758,-750.01 758,-769.01"/>
<text text-anchor="middle" x="713" y="-757.01" font-family="Helvetica,sans-Serif" font-size="10.00">ChangeTXTarget</text>
</a>
</g>
</g>
<!-- Node53&#45;&gt;Node54 -->
<g id="edge31" class="edge">
<title>Node53&#45;&gt;Node54</title>
<path fill="none" stroke="#63b8ff" d="M595.11,-759.51C614.38,-759.51 636.5,-759.51 656.27,-759.51"/>
<polygon fill="#63b8ff" stroke="#63b8ff" points="656.09,-763.01 666.09,-759.51 656.09,-756.01 656.09,-763.01"/>
</g>
<!-- Node55 -->
<g id="node28" class="node">
<title>Node55</title>
<g id="a_node28"><a xlink:href="BuddyWireless_8h.html#af59c2527be7a67d6b09dd467f3123d55" target="_top" xlink:title=" ">
<polygon fill="white" stroke="#666666" points="748.5,-694.01 677.5,-694.01 677.5,-675.01 748.5,-675.01 748.5,-694.01"/>
<text text-anchor="middle" x="713" y="-682.01" font-family="Helvetica,sans-Serif" font-size="10.00">GetPupilAck</text>
</a>
</g>
</g>
<!-- Node53&#45;&gt;Node55 -->
<g id="edge33" class="edge">
<title>Node53&#45;&gt;Node55</title>
<path fill="none" stroke="#63b8ff" d="M582,-749.61C593.1,-746.22 605.2,-742.11 616,-737.51 640.98,-726.88 667.91,-711.65 686.88,-700.24"/>
<polygon fill="#63b8ff" stroke="#63b8ff" points="688.53,-703.33 695.24,-695.14 684.88,-697.36 688.53,-703.33"/>
</g>
<!-- Node57 -->
<g id="node30" class="node">
<title>Node57</title>
<g id="a_node30"><a xlink:href="BuddyWireless_8h.html#a89fc05df708fec875356b62d21b2ce7b" target="_top" xlink:title=" ">
<polygon fill="white" stroke="#666666" points="751.5,-883.01 674.5,-883.01 674.5,-864.01 751.5,-864.01 751.5,-883.01"/>
<text text-anchor="middle" x="713" y="-871.01" font-family="Helvetica,sans-Serif" font-size="10.00">PupilDetected</text>
</a>
</g>
</g>
<!-- Node53&#45;&gt;Node57 -->
<g id="edge36" class="edge">
<title>Node53&#45;&gt;Node57</title>
<path fill="none" stroke="#63b8ff" d="M559.53,-769.43C588.4,-789.14 653.22,-833.39 688.33,-857.35"/>
<polygon fill="#63b8ff" stroke="#63b8ff" points="685.9,-859.94 696.14,-862.68 689.85,-854.15 685.9,-859.94"/>
</g>
<!-- Node54&#45;&gt;Node46 -->
<g id="edge32" class="edge">
<title>Node54&#45;&gt;Node46</title>
<path fill="none" stroke="#63b8ff" d="M758.48,-767.29C806.86,-773.25 884.42,-775.28 938,-739.51 990.46,-704.48 1013.85,-628.03 1022.38,-591.18"/>
<polygon fill="#63b8ff" stroke="#63b8ff" points="1025.72,-592.31 1024.41,-581.8 1018.88,-590.83 1025.72,-592.31"/>
</g>
<!-- Node55&#45;&gt;Node46 -->
<g id="edge35" class="edge">
<title>Node55&#45;&gt;Node46</title>
<path fill="none" stroke="#63b8ff" d="M748.7,-676.91C802.66,-664.87 904,-641.24 938,-626.51 962.13,-616.06 987.24,-599.55 1004.52,-587.15"/>
<polygon fill="#63b8ff" stroke="#63b8ff" points="1006.51,-590.04 1012.5,-581.31 1002.37,-584.39 1006.51,-590.04"/>
</g>
<!-- Node56 -->
<g id="node29" class="node">
<title>Node56</title>
<g id="a_node29"><a xlink:href="transceiver_8h.html#a6feccc8c0583de3235616d42076f1371" target="_top" xlink:title=" ">
<polygon fill="white" stroke="#666666" points="909.5,-694.01 838.5,-694.01 838.5,-675.01 909.5,-675.01 909.5,-694.01"/>
<text text-anchor="middle" x="874" y="-682.01" font-family="Helvetica,sans-Serif" font-size="10.00">Decompress</text>
</a>
</g>
</g>
<!-- Node55&#45;&gt;Node56 -->
<g id="edge34" class="edge">
<title>Node55&#45;&gt;Node56</title>
<path fill="none" stroke="#63b8ff" d="M748.89,-684.51C771.78,-684.51 801.96,-684.51 826.82,-684.51"/>
<polygon fill="#63b8ff" stroke="#63b8ff" points="826.67,-688.01 836.67,-684.51 826.67,-681.01 826.67,-688.01"/>
</g>
<!-- Node57&#45;&gt;Node38 -->
<g id="edge37" class="edge">
<title>Node57&#45;&gt;Node38</title>
<path fill="none" stroke="#63b8ff" d="M751.8,-875.6C796.45,-878.36 872.9,-884.02 938,-893.51 949.88,-895.24 962.56,-897.55 974.51,-899.93"/>
<polygon fill="#63b8ff" stroke="#63b8ff" points="973.71,-903.34 984.21,-901.92 975.11,-896.48 973.71,-903.34"/>
</g>
<!-- Node57&#45;&gt;Node41 -->
<g id="edge38" class="edge">
<title>Node57&#45;&gt;Node41</title>
<path fill="none" stroke="#63b8ff" d="M751.68,-882.52C776.37,-888.42 808.58,-896.11 833.6,-902.1"/>
<polygon fill="#63b8ff" stroke="#63b8ff" points="832.53,-905.44 843.07,-904.36 834.16,-898.63 832.53,-905.44"/>
</g>
<!-- Node59&#45;&gt;Node10 -->
<g id="edge66" class="edge">
<title>Node59&#45;&gt;Node10</title>
<path fill="none" stroke="#63b8ff" d="M556.8,-450.29C575.79,-465.62 614.79,-495.41 652,-513.51 655.92,-515.42 660.08,-517.19 664.31,-518.83"/>
<polygon fill="#63b8ff" stroke="#63b8ff" points="662.83,-522.02 673.43,-522.1 665.19,-515.43 662.83,-522.02"/>
</g>
<!-- Node59&#45;&gt;Node46 -->
<g id="edge65" class="edge">
<title>Node59&#45;&gt;Node46</title>
<path fill="none" stroke="#63b8ff" d="M551.42,-430.61C566.26,-408.54 605.3,-355.19 652,-328.51 763.28,-264.92 834.57,-215.81 938,-291.51 1022.1,-353.06 1028.25,-495.06 1027.37,-549.1"/>
<polygon fill="#63b8ff" stroke="#63b8ff" points="1023.87,-548.97 1027.09,-559.07 1030.87,-549.17 1023.87,-548.97"/>
</g>
<!-- Node60 -->
<g id="node33" class="node">
<title>Node60</title>
<g id="a_node33"><a xlink:href="transceiver_8h.html#a953f1d5046e183549ed95b08f6d675e3" target="_top" xlink:title=" ">
<polygon fill="white" stroke="#666666" points="762,-357.01 664,-357.01 664,-338.01 762,-338.01 762,-357.01"/>
<text text-anchor="middle" x="713" y="-345.01" font-family="Helvetica,sans-Serif" font-size="10.00">CheckGapsLength</text>
</a>
</g>
</g>
<!-- Node59&#45;&gt;Node60 -->
<g id="edge42" class="edge">
<title>Node59&#45;&gt;Node60</title>
<path fill="none" stroke="#63b8ff" d="M562.87,-430.56C592,-414.34 649.92,-382.08 684.37,-362.9"/>
<polygon fill="#63b8ff" stroke="#63b8ff" points="685.9,-366.05 692.93,-358.13 682.49,-359.94 685.9,-366.05"/>
</g>
<!-- Node62 -->
<g id="node35" class="node">
<title>Node62</title>
<g id="a_node35"><a xlink:href="TransmitterCode_2src_2main_8cpp.html#a62e53eb9359c32b666e3386d62c57037" target="_top" xlink:title=" ">
<polygon fill="white" stroke="#666666" points="749,-468.01 677,-468.01 677,-449.01 749,-449.01 749,-468.01"/>
<text text-anchor="middle" x="713" y="-456.01" font-family="Helvetica,sans-Serif" font-size="10.00">GreenLedOn</text>
</a>
</g>
</g>
<!-- Node59&#45;&gt;Node62 -->
<g id="edge44" class="edge">
<title>Node59&#45;&gt;Node62</title>
<path fill="none" stroke="#63b8ff" d="M592.41,-445.62C615.24,-448.08 642.52,-451.02 665.26,-453.47"/>
<polygon fill="#63b8ff" stroke="#63b8ff" points="664.87,-456.95 675.19,-454.54 665.62,-449.99 664.87,-456.95"/>
</g>
<!-- Node84 -->
<g id="node41" class="node">
<title>Node84</title>
<g id="a_node41"><a xlink:href="transceiver_8h.html#a694f4f5a0147f4dc29b0bc1a8951547d" target="_top" xlink:title=" ">
<polygon fill="#fff0f0" stroke="red" points="760,-170.01 666,-170.01 666,-151.01 760,-151.01 760,-170.01"/>
<text text-anchor="middle" x="713" y="-158.01" font-family="Helvetica,sans-Serif" font-size="10.00">ParseAckPayload</text>
</a>
</g>
</g>
<!-- Node59&#45;&gt;Node84 -->
<g id="edge52" class="edge">
<title>Node59&#45;&gt;Node84</title>
<path fill="none" stroke="#63b8ff" d="M550.74,-430.61C566.65,-403.18 612.77,-323.89 652,-258.51 668.37,-231.23 687.63,-199.91 699.82,-180.17"/>
<polygon fill="#63b8ff" stroke="#63b8ff" points="702.73,-182.13 705.01,-171.78 696.77,-178.44 702.73,-182.13"/>
</g>
<!-- Node231 -->
<g id="node49" class="node">
<title>Node231</title>
<g id="a_node49"><a xlink:href="transceiver_8h.html#a04937e814dba3f5e07cb34bb13130ff3" target="_top" xlink:title=" ">
<polygon fill="white" stroke="#666666" points="771.5,-505.01 654.5,-505.01 654.5,-486.01 771.5,-486.01 771.5,-505.01"/>
<text text-anchor="middle" x="713" y="-493.01" font-family="Helvetica,sans-Serif" font-size="10.00">ParseShortAckPayload</text>
</a>
</g>
</g>
<!-- Node59&#45;&gt;Node231 -->
<g id="edge63" class="edge">
<title>Node59&#45;&gt;Node231</title>
<path fill="none" stroke="#63b8ff" d="M574.02,-450.43C595.52,-457.74 625.54,-467.87 652,-476.51 657.57,-478.33 663.44,-480.22 669.24,-482.07"/>
<polygon fill="#63b8ff" stroke="#63b8ff" points="668.17,-485.41 678.76,-485.1 670.29,-478.74 668.17,-485.41"/>
</g>
<!-- Node81 -->
<g id="node50" class="node">
<title>Node81</title>
<g id="a_node50"><a xlink:href="Utilities_8h.html#a793b7bcd77531c95fe72ed4356d421c8" target="_top" xlink:title=" ">
<polygon fill="white" stroke="#666666" points="768,-431.01 658,-431.01 658,-412.01 768,-412.01 768,-431.01"/>
<text text-anchor="middle" x="713" y="-419.01" font-family="Helvetica,sans-Serif" font-size="10.00">StartInactvityTimeout</text>
</a>
</g>
</g>
<!-- Node59&#45;&gt;Node81 -->
<g id="edge67" class="edge">
<title>Node59&#45;&gt;Node81</title>
<path fill="none" stroke="#63b8ff" d="M592.41,-435.12C609.18,-433.21 628.35,-431.03 646.37,-428.98"/>
<polygon fill="#63b8ff" stroke="#63b8ff" points="646.65,-432.47 656.19,-427.86 645.86,-425.51 646.65,-432.47"/>
</g>
<!-- Node61 -->
<g id="node34" class="node">
<title>Node61</title>
<g id="a_node34"><a xlink:href="TransmitterCode_2src_2main_8cpp.html#a1fadc7cdd854f8b3628b622da5417d8b" target="_top" xlink:title=" ">
<polygon fill="#fff0f0" stroke="red" points="909,-320.01 839,-320.01 839,-301.01 909,-301.01 909,-320.01"/>
<text text-anchor="middle" x="874" y="-308.01" font-family="Helvetica,sans-Serif" font-size="10.00">LogThisGap</text>
</a>
</g>
</g>
<!-- Node60&#45;&gt;Node61 -->
<g id="edge43" class="edge">
<title>Node60&#45;&gt;Node61</title>
<path fill="none" stroke="#63b8ff" d="M756.61,-337.6C778.46,-332.51 805.1,-326.31 827.37,-321.13"/>
<polygon fill="#63b8ff" stroke="#63b8ff" points="828.15,-324.54 837.1,-318.87 826.56,-317.72 828.15,-324.54"/>
</g>
<!-- Node62&#45;&gt;Node13 -->
<g id="edge46" class="edge">
<title>Node62&#45;&gt;Node13</title>
<path fill="none" stroke="#63b8ff" d="M749.46,-462.29C758.64,-464.93 767.7,-469.31 774,-476.51 840.96,-553.07 743.09,-625.91 810,-702.51 811.65,-704.4 813.48,-706.1 815.44,-707.64"/>
<polygon fill="#63b8ff" stroke="#63b8ff" points="813.16,-710.35 823.52,-712.58 816.81,-704.37 813.16,-710.35"/>
</g>
<!-- Node62&#45;&gt;Node37 -->
<g id="edge48" class="edge">
<title>Node62&#45;&gt;Node37</title>
<path fill="none" stroke="#63b8ff" d="M749.25,-462.11C758.54,-464.74 767.71,-469.16 774,-476.51 850.7,-566.16 768.62,-629.03 810,-739.51 821.02,-768.94 842.37,-798.54 857.13,-816.93"/>
<polygon fill="#63b8ff" stroke="#63b8ff" points="854.34,-819.04 863.4,-824.52 859.74,-814.58 854.34,-819.04"/>
</g>
<!-- Node63 -->
<g id="node36" class="node">
<title>Node63</title>
<g id="a_node36"><a xlink:href="Utilities_8h.html#a82b1900a80d1622896601c57d6edaeda" target="_top" xlink:title=" ">
<polygon fill="white" stroke="#666666" points="923,-468.01 825,-468.01 825,-449.01 923,-449.01 923,-468.01"/>
<text text-anchor="middle" x="874" y="-456.01" font-family="Helvetica,sans-Serif" font-size="10.00">ClearSuccessRate</text>
</a>
</g>
</g>
<!-- Node62&#45;&gt;Node63 -->
<g id="edge45" class="edge">
<title>Node62&#45;&gt;Node63</title>
<path fill="none" stroke="#63b8ff" d="M749.29,-458.51C768.05,-458.51 791.64,-458.51 813.18,-458.51"/>
<polygon fill="#63b8ff" stroke="#63b8ff" points="813.03,-462.01 823.03,-458.51 813.03,-455.01 813.03,-462.01"/>
</g>
<!-- Node64 -->
<g id="node37" class="node">
<title>Node64</title>
<g id="a_node37"><a xlink:href="TransmitterCode_2src_2main_8cpp.html#aaa3e86084c43b049d52d7d62c58a00b9" target="_top" xlink:title=" ">
<polygon fill="#fff0f0" stroke="red" points="915,-431.01 833,-431.01 833,-412.01 915,-412.01 915,-431.01"/>
<text text-anchor="middle" x="874" y="-419.01" font-family="Helvetica,sans-Serif" font-size="10.00">LogConnection</text>
</a>
</g>
</g>
<!-- Node62&#45;&gt;Node64 -->
<g id="edge47" class="edge">
<title>Node62&#45;&gt;Node64</title>
<path fill="none" stroke="#63b8ff" d="M749.29,-450.3C770.61,-445.34 798.16,-438.93 821.85,-433.42"/>
<polygon fill="#63b8ff" stroke="#63b8ff" points="822.35,-436.89 831.29,-431.22 820.76,-430.07 822.35,-436.89"/>
</g>
<!-- Node66 -->
<g id="node38" class="node">
<title>Node66</title>
<g id="a_node38"><a xlink:href="TransmitterCode_2src_2main_8cpp.html#a0689e46060ebded46afaba01b54fab8b" target="_top" xlink:title=" ">
<polygon fill="#fff0f0" stroke="red" points="935,-394.01 813,-394.01 813,-375.01 935,-375.01 935,-394.01"/>
<text text-anchor="middle" x="874" y="-382.01" font-family="Helvetica,sans-Serif" font-size="10.00">SendInitialSetupParams</text>
</a>
</g>
</g>
<!-- Node62&#45;&gt;Node66 -->
<g id="edge49" class="edge">
<title>Node62&#45;&gt;Node66</title>
<path fill="none" stroke="#63b8ff" d="M749.22,-450.53C757.7,-447.77 766.47,-444.16 774,-439.51 793.53,-427.46 790.31,-414.28 810,-402.51 812.18,-401.21 814.46,-399.99 816.81,-398.87"/>
<polygon fill="#63b8ff" stroke="#63b8ff" points="818.13,-402.11 826.01,-395.02 815.43,-395.65 818.13,-402.11"/>
</g>
<!-- Node68 -->
<g id="node39" class="node">
<title>Node68</title>
<g id="a_node39"><a xlink:href="TransmitterCode_2src_2main_8cpp.html#a5d3a46c21927cf7a3031a1e68e0b7b48" target="_top" xlink:title="SHOW COMMS.">
<polygon fill="#fff0f0" stroke="red" points="911.5,-357.01 836.5,-357.01 836.5,-338.01 911.5,-338.01 911.5,-357.01"/>
<text text-anchor="middle" x="874" y="-345.01" font-family="Helvetica,sans-Serif" font-size="10.00">ShowComms</text>
</a>
</g>
</g>
<!-- Node62&#45;&gt;Node68 -->
<g id="edge50" class="edge">
<title>Node62&#45;&gt;Node68</title>
<path fill="none" stroke="#63b8ff" d="M749.45,-452.43C758.21,-449.62 767.05,-445.51 774,-439.51 801.68,-415.61 781.98,-389.02 810,-365.51 814.51,-361.72 819.78,-358.73 825.31,-356.37"/>
<polygon fill="#63b8ff" stroke="#63b8ff" points="826.44,-359.68 834.71,-353.06 824.12,-353.08 826.44,-359.68"/>
</g>
<!-- Node83 -->
<g id="node40" class="node">
<title>Node83</title>
<g id="a_node40"><a xlink:href="TransmitterCode_2src_2main_8cpp.html#a6da9a1fd0b003151f79eabc702ba80ff" target="_top" xlink:title=" ">
<polygon fill="white" stroke="#666666" points="917.5,-505.01 830.5,-505.01 830.5,-486.01 917.5,-486.01 917.5,-505.01"/>
<text text-anchor="middle" x="874" y="-493.01" font-family="Helvetica,sans-Serif" font-size="10.00">ZeroDataScreen</text>
</a>
</g>
</g>
<!-- Node62&#45;&gt;Node83 -->
<g id="edge51" class="edge">
<title>Node62&#45;&gt;Node83</title>
<path fill="none" stroke="#63b8ff" d="M749.29,-466.72C769.81,-471.5 796.09,-477.61 819.15,-482.98"/>
<polygon fill="#63b8ff" stroke="#63b8ff" points="818.16,-486.34 828.7,-485.2 819.75,-479.53 818.16,-486.34"/>
</g>
<!-- Node84&#45;&gt;Node43 -->
<g id="edge62" class="edge">
<title>Node84&#45;&gt;Node43</title>
<path fill="none" stroke="#63b8ff" d="M718.04,-170.19C728.56,-195.69 757.13,-266.98 774,-328.51 796.15,-409.29 753.83,-451.37 810,-513.51 811.15,-514.78 812.38,-515.97 813.68,-517.08"/>
<polygon fill="#63b8ff" stroke="#63b8ff" points="811.57,-519.88 821.84,-522.48 815.43,-514.04 811.57,-519.88"/>
</g>
<!-- Node85 -->
<g id="node42" class="node">
<title>Node85</title>
<g id="a_node42"><a xlink:href="transceiver_8h.html#a75fa77e7bbb1cfe8fe6e1a216fbdc17e" target="_top" xlink:title=" ">
<polygon fill="white" stroke="#666666" points="906.5,-133.01 841.5,-133.01 841.5,-114.01 906.5,-114.01 906.5,-133.01"/>
<text text-anchor="middle" x="874" y="-121.01" font-family="Helvetica,sans-Serif" font-size="10.00">GetAltitude</text>
</a>
</g>
</g>
<!-- Node84&#45;&gt;Node85 -->
<g id="edge53" class="edge">
<title>Node84&#45;&gt;Node85</title>
<path fill="none" stroke="#63b8ff" d="M756.61,-150.6C779.35,-145.3 807.27,-138.81 830.06,-133.5"/>
<polygon fill="#63b8ff" stroke="#63b8ff" points="830.7,-136.95 839.65,-131.27 829.12,-130.13 830.7,-136.95"/>
</g>
<!-- Node86 -->
<g id="node43" class="node">
<title>Node86</title>
<g id="a_node43"><a xlink:href="transceiver_8h.html#ab5736b017daadeb2c1d7dc73489d31a6" target="_top" xlink:title=" ">
<polygon fill="white" stroke="#666666" points="1081,-59.01 974,-59.01 974,-40.01 1081,-40.01 1081,-59.01"/>
<text text-anchor="middle" x="1027.5" y="-47.01" font-family="Helvetica,sans-Serif" font-size="10.00">GetFromAckPayload</text>
</a>
</g>
</g>
<!-- Node84&#45;&gt;Node86 -->
<g id="edge56" class="edge">
<title>Node84&#45;&gt;Node86</title>
<path fill="none" stroke="#63b8ff" d="M717.65,-150.55C727.68,-124.86 758.4,-56.55 810,-30.51 868.54,-0.97 947.36,-20.29 991.96,-35.75"/>
<polygon fill="#63b8ff" stroke="#63b8ff" points="990.51,-38.94 1001.1,-39.05 992.88,-32.36 990.51,-38.94"/>
</g>
<!-- Node87 -->
<g id="node44" class="node">
<title>Node87</title>
<g id="a_node44"><a xlink:href="transceiver_8h.html#a160b9119423c34869b16a4ebdc421d35" target="_top" xlink:title=" ">
<polygon fill="white" stroke="#666666" points="937.5,-244.01 810.5,-244.01 810.5,-225.01 937.5,-225.01 937.5,-244.01"/>
<text text-anchor="middle" x="874" y="-232.01" font-family="Helvetica,sans-Serif" font-size="10.00">GetDateFromAckPayload</text>
</a>
</g>
</g>
<!-- Node84&#45;&gt;Node87 -->
<g id="edge55" class="edge">
<title>Node84&#45;&gt;Node87</title>
<path fill="none" stroke="#63b8ff" d="M728.74,-170.38C747.13,-182.35 779.83,-202.52 810,-215.51 814.55,-217.47 819.37,-219.31 824.23,-221.02"/>
<polygon fill="#63b8ff" stroke="#63b8ff" points="822.83,-224.24 833.42,-224.05 825.02,-217.59 822.83,-224.24"/>
</g>
<!-- Node88 -->
<g id="node45" class="node">
<title>Node88</title>
<g id="a_node45"><a xlink:href="transceiver_8h.html#a494cb4acb30856d1f53f08df1b80c41b" target="_top" xlink:title=" ">
<polygon fill="#fff0f0" stroke="red" points="933.5,-207.01 814.5,-207.01 814.5,-188.01 933.5,-188.01 933.5,-207.01"/>
<text text-anchor="middle" x="874" y="-195.01" font-family="Helvetica,sans-Serif" font-size="10.00">GetModelsMacAddress</text>
</a>
</g>
</g>
<!-- Node84&#45;&gt;Node88 -->
<g id="edge57" class="edge">
<title>Node84&#45;&gt;Node88</title>
<path fill="none" stroke="#63b8ff" d="M756.61,-170.43C775.86,-174.91 798.81,-180.25 819.23,-185"/>
<polygon fill="#63b8ff" stroke="#63b8ff" points="818.27,-188.37 828.8,-187.23 819.85,-181.55 818.27,-188.37"/>
</g>
<!-- Node119 -->
<g id="node46" class="node">
<title>Node119</title>
<g id="a_node46"><a xlink:href="transceiver_8h.html#a4f813935d8fe58355228cbbf25e12f96" target="_top" xlink:title=" ">
<polygon fill="#fff0f0" stroke="red" points="930.5,-170.01 817.5,-170.01 817.5,-151.01 930.5,-151.01 930.5,-170.01"/>
<text text-anchor="middle" x="874" y="-158.01" font-family="Helvetica,sans-Serif" font-size="10.00">GetRXVersionNumber</text>
</a>
</g>
</g>
<!-- Node84&#45;&gt;Node119 -->
<g id="edge58" class="edge">
<title>Node84&#45;&gt;Node119</title>
<path fill="none" stroke="#63b8ff" d="M760.42,-160.51C774.59,-160.51 790.46,-160.51 805.73,-160.51"/>
<polygon fill="#63b8ff" stroke="#63b8ff" points="805.72,-164.01 815.72,-160.51 805.72,-157.01 805.72,-164.01"/>
</g>
<!-- Node228 -->
<g id="node47" class="node">
<title>Node228</title>
<g id="a_node47"><a xlink:href="transceiver_8h.html#a19f6fc09d690832e74fd3c679207f07f" target="_top" xlink:title=" ">
<polygon fill="white" stroke="#666666" points="917.5,-59.01 830.5,-59.01 830.5,-40.01 917.5,-40.01 917.5,-59.01"/>
<text text-anchor="middle" x="874" y="-47.01" font-family="Helvetica,sans-Serif" font-size="10.00">GetTemperature</text>
</a>
</g>
</g>
<!-- Node84&#45;&gt;Node228 -->
<g id="edge59" class="edge">
<title>Node84&#45;&gt;Node228</title>
<path fill="none" stroke="#63b8ff" d="M721.31,-150.75C735.99,-131.83 771.02,-90.03 810,-67.51 813.01,-65.77 816.19,-64.2 819.47,-62.76"/>
<polygon fill="#63b8ff" stroke="#63b8ff" points="820.65,-66.06 828.74,-59.21 818.15,-59.52 820.65,-66.06"/>
</g>
<!-- Node229 -->
<g id="node48" class="node">
<title>Node229</title>
<g id="a_node48"><a xlink:href="transceiver_8h.html#a86523345ecdd52f3d93dccd6fcf4370a" target="_top" xlink:title=" ">
<polygon fill="white" stroke="#666666" points="938,-96.01 810,-96.01 810,-77.01 938,-77.01 938,-96.01"/>
<text text-anchor="middle" x="874" y="-84.01" font-family="Helvetica,sans-Serif" font-size="10.00">GetTimeFromAckPayload</text>
</a>
</g>
</g>
<!-- Node84&#45;&gt;Node229 -->
<g id="edge61" class="edge">
<title>Node84&#45;&gt;Node229</title>
<path fill="none" stroke="#63b8ff" d="M728.36,-150.59C746.63,-138.34 779.47,-117.53 810,-104.51 813.78,-102.9 817.75,-101.38 821.77,-99.97"/>
<polygon fill="#63b8ff" stroke="#63b8ff" points="822.63,-103.37 831.05,-96.94 820.45,-96.72 822.63,-103.37"/>
</g>
<!-- Node85&#45;&gt;Node86 -->
<g id="edge54" class="edge">
<title>Node85&#45;&gt;Node86</title>
<path fill="none" stroke="#63b8ff" d="M907,-115.63C917.12,-112.67 928.21,-108.93 938,-104.51 961.56,-93.86 986.41,-77.96 1003.75,-65.99"/>
<polygon fill="#63b8ff" stroke="#63b8ff" points="1005.63,-68.95 1011.79,-60.33 1001.6,-63.22 1005.63,-68.95"/>
</g>
<!-- Node228&#45;&gt;Node86 -->
<g id="edge60" class="edge">
<title>Node228&#45;&gt;Node86</title>
<path fill="none" stroke="#63b8ff" d="M917.6,-49.51C931.48,-49.51 947.21,-49.51 962.31,-49.51"/>
<polygon fill="#63b8ff" stroke="#63b8ff" points="962.18,-53.01 972.18,-49.51 962.18,-46.01 962.18,-53.01"/>
</g>
<!-- Node231&#45;&gt;Node43 -->
<g id="edge64" class="edge">
<title>Node231&#45;&gt;Node43</title>
<path fill="none" stroke="#63b8ff" d="M756.61,-505.43C775.86,-509.91 798.81,-515.25 819.23,-520"/>
<polygon fill="#63b8ff" stroke="#63b8ff" points="818.27,-523.37 828.8,-522.23 819.85,-516.55 818.27,-523.37"/>
</g>
</g>
</svg>
