<?xml version="1.0" encoding="UTF-8" standalone="no"?>
<!DOCTYPE svg PUBLIC "-//W3C//DTD SVG 1.1//EN"
 "http://www.w3.org/Graphics/SVG/1.1/DTD/svg11.dtd">
<!-- Generated by graphviz version 3.0.0 (20220413.0242)
 -->
<!-- Title: LoadAllParameters Pages: 1 -->
<svg width="840pt" height="332pt"
 viewBox="0.00 0.00 840.00 332.00" xmlns="http://www.w3.org/2000/svg" xmlns:xlink="http://www.w3.org/1999/xlink">
<g id="graph0" class="graph" transform="scale(1 1) rotate(0) translate(4 328)">
<title>LoadAllParameters</title>
<polygon fill="white" stroke="transparent" points="-4,4 -4,-328 836,-328 836,4 -4,4"/>
<!-- Node1 -->
<g id="node1" class="node">
<title>Node1</title>
<g id="a_node1"><a xlink:title=" ">
<polygon fill="#bfbfbf" stroke="black" points="0,-171.5 0,-190.5 100,-190.5 100,-171.5 0,-171.5"/>
<text text-anchor="middle" x="50" y="-178.5" font-family="Helvetica,sans-Serif" font-size="10.00">LoadAllParameters</text>
</a>
</g>
</g>
<!-- Node2 -->
<g id="node2" class="node">
<title>Node2</title>
<g id="a_node2"><a xlink:href="TransmitterCode_2src_2main_8cpp.html#a01c7a0b0de94ec72fe070ea9f90dc2ec" target="_top" xlink:title=" ">
<polygon fill="white" stroke="black" points="147,-266.5 147,-285.5 219,-285.5 219,-266.5 147,-266.5"/>
<text text-anchor="middle" x="183" y="-273.5" font-family="Helvetica,sans-Serif" font-size="10.00">CheckRange</text>
</a>
</g>
</g>
<!-- Node1&#45;&gt;Node2 -->
<g id="edge1" class="edge">
<title>Node1&#45;&gt;Node2</title>
<path fill="none" stroke="midnightblue" d="M59.6,-190.55C74.08,-206.17 104.82,-237.42 136,-257 138.94,-258.85 142.1,-260.58 145.32,-262.2"/>
<polygon fill="midnightblue" stroke="midnightblue" points="143.94,-265.41 154.49,-266.41 146.87,-259.06 143.94,-265.41"/>
</g>
<!-- Node3 -->
<g id="node3" class="node">
<title>Node3</title>
<g id="a_node3"><a xlink:href="TransmitterCode_2src_2main_8cpp.html#a1930cb00e0e68d2c871cec56cc458064" target="_top" xlink:title=" ">
<polygon fill="white" stroke="black" points="136,-228.5 136,-247.5 230,-247.5 230,-228.5 136,-228.5"/>
<text text-anchor="middle" x="183" y="-235.5" font-family="Helvetica,sans-Serif" font-size="10.00">CheckTrimValues</text>
</a>
</g>
</g>
<!-- Node1&#45;&gt;Node3 -->
<g id="edge2" class="edge">
<title>Node1&#45;&gt;Node3</title>
<path fill="none" stroke="midnightblue" d="M72.93,-190.54C94.18,-199.79 126.64,-213.91 150.62,-224.35"/>
<polygon fill="midnightblue" stroke="midnightblue" points="149.44,-227.65 160,-228.43 152.23,-221.23 149.44,-227.65"/>
</g>
<!-- Node5 -->
<g id="node5" class="node">
<title>Node5</title>
<g id="a_node5"><a xlink:href="TransmitterCode_2src_2main_8cpp.html#ae7618f38a148877bc5681be58cba8354" target="_top" xlink:title=" ">
<polygon fill="white" stroke="black" points="283.5,-266.5 283.5,-285.5 370.5,-285.5 370.5,-266.5 283.5,-266.5"/>
<text text-anchor="middle" x="327" y="-273.5" font-family="Helvetica,sans-Serif" font-size="10.00">OpenModelsFile</text>
</a>
</g>
</g>
<!-- Node1&#45;&gt;Node5 -->
<g id="edge4" class="edge">
<title>Node1&#45;&gt;Node5</title>
<path fill="none" stroke="midnightblue" d="M100.11,-183.54C137.73,-187.28 189.82,-196.48 230,-219 250.29,-230.37 246.28,-244.65 266,-257 269.34,-259.09 272.93,-260.97 276.64,-262.66"/>
<polygon fill="midnightblue" stroke="midnightblue" points="275.43,-265.94 286.01,-266.46 278.06,-259.46 275.43,-265.94"/>
</g>
<!-- Node6 -->
<g id="node6" class="node">
<title>Node6</title>
<g id="a_node6"><a xlink:href="TransmitterCode_2src_2main_8cpp.html#a3d9d955a8c7cfea4cc99e78f3746bd26" target="_top" xlink:title=" ">
<polygon fill="white" stroke="black" points="141.5,-152.5 141.5,-171.5 224.5,-171.5 224.5,-152.5 141.5,-152.5"/>
<text text-anchor="middle" x="183" y="-159.5" font-family="Helvetica,sans-Serif" font-size="10.00">ReadOneModel</text>
</a>
</g>
</g>
<!-- Node1&#45;&gt;Node6 -->
<g id="edge5" class="edge">
<title>Node1&#45;&gt;Node6</title>
<path fill="none" stroke="midnightblue" d="M100.15,-173.87C110.28,-172.4 120.97,-170.85 131.15,-169.37"/>
<polygon fill="midnightblue" stroke="midnightblue" points="131.74,-172.83 141.13,-167.93 130.73,-165.9 131.74,-172.83"/>
</g>
<!-- Node9 -->
<g id="node9" class="node">
<title>Node9</title>
<g id="a_node9"><a xlink:href="TransmitterCode_2src_2main_8cpp.html#a390e5cfbafdda998c93b9a352560d57d" target="_top" xlink:title=" ">
<polygon fill="white" stroke="black" points="284,-76.5 284,-95.5 370,-95.5 370,-76.5 284,-76.5"/>
<text text-anchor="middle" x="327" y="-83.5" font-family="Helvetica,sans-Serif" font-size="10.00">SDRead16BITS</text>
</a>
</g>
</g>
<!-- Node1&#45;&gt;Node9 -->
<g id="edge24" class="edge">
<title>Node1&#45;&gt;Node9</title>
<path fill="none" stroke="midnightblue" d="M70.62,-171.36C87.66,-163.2 113.12,-151.51 136,-143 184,-125.15 240.35,-108.81 279.15,-98.24"/>
<polygon fill="midnightblue" stroke="midnightblue" points="280.37,-101.54 289.11,-95.55 278.55,-94.78 280.37,-101.54"/>
</g>
<!-- Node10 -->
<g id="node10" class="node">
<title>Node10</title>
<g id="a_node10"><a xlink:href="TransmitterCode_2src_2main_8cpp.html#a9cf4a8c584c2b92d52de18627ca4434b" target="_top" xlink:title=" ">
<polygon fill="white" stroke="black" points="287,-38.5 287,-57.5 367,-57.5 367,-38.5 287,-38.5"/>
<text text-anchor="middle" x="327" y="-45.5" font-family="Helvetica,sans-Serif" font-size="10.00">SDRead8BITS</text>
</a>
</g>
</g>
<!-- Node1&#45;&gt;Node10 -->
<g id="edge25" class="edge">
<title>Node1&#45;&gt;Node10</title>
<path fill="none" stroke="midnightblue" d="M59.97,-171.05C74.5,-155.5 104.72,-125.4 136,-108 180.63,-83.17 236.98,-67.02 276.69,-57.8"/>
<polygon fill="midnightblue" stroke="midnightblue" points="277.68,-61.17 286.66,-55.55 276.13,-54.34 277.68,-61.17"/>
</g>
<!-- Node4 -->
<g id="node4" class="node">
<title>Node4</title>
<g id="a_node4"><a xlink:href="TransmitterCode_2src_2main_8cpp.html#a883e18dbafdf41d3451879db47ab113f" target="_top" xlink:title=" ">
<polygon fill="white" stroke="black" points="288,-304.5 288,-323.5 366,-323.5 366,-304.5 288,-304.5"/>
<text text-anchor="middle" x="327" y="-311.5" font-family="Helvetica,sans-Serif" font-size="10.00">ResetAllTrims</text>
</a>
</g>
</g>
<!-- Node3&#45;&gt;Node4 -->
<g id="edge3" class="edge">
<title>Node3&#45;&gt;Node4</title>
<path fill="none" stroke="midnightblue" d="M212.7,-247.66C218.66,-250.26 224.73,-253.38 230,-257 249.17,-270.18 246.28,-282.65 266,-295 269.85,-297.41 274.04,-299.55 278.35,-301.42"/>
<polygon fill="midnightblue" stroke="midnightblue" points="277.31,-304.77 287.9,-305.14 279.85,-298.25 277.31,-304.77"/>
</g>
<!-- Node6&#45;&gt;Node5 -->
<g id="edge8" class="edge">
<title>Node6&#45;&gt;Node5</title>
<path fill="none" stroke="midnightblue" d="M209.27,-171.67C216.59,-175.35 224.17,-180.11 230,-186 254.87,-211.16 239.03,-234.1 266,-257 268.54,-259.16 271.33,-261.07 274.26,-262.77"/>
<polygon fill="midnightblue" stroke="midnightblue" points="272.92,-266 283.44,-267.23 275.98,-259.71 272.92,-266"/>
</g>
<!-- Node7 -->
<g id="node7" class="node">
<title>Node7</title>
<g id="a_node7"><a xlink:href="TransmitterCode_2src_2main_8cpp.html#a6bb930920ba3a8d45a737dde782ef65c" target="_top" xlink:title=" ">
<polygon fill="white" stroke="black" points="276,-228.5 276,-247.5 378,-247.5 378,-228.5 276,-228.5"/>
<text text-anchor="middle" x="327" y="-235.5" font-family="Helvetica,sans-Serif" font-size="10.00">CheckMacrosBuffer</text>
</a>
</g>
</g>
<!-- Node6&#45;&gt;Node7 -->
<g id="edge6" class="edge">
<title>Node6&#45;&gt;Node7</title>
<path fill="none" stroke="midnightblue" d="M205.28,-171.65C213.3,-175.65 222.33,-180.62 230,-186 247.77,-198.46 247.21,-208.13 266,-219 269.67,-221.12 273.61,-223.04 277.65,-224.76"/>
<polygon fill="midnightblue" stroke="midnightblue" points="276.58,-228.1 287.17,-228.44 279.1,-221.57 276.58,-228.1"/>
</g>
<!-- Node8 -->
<g id="node8" class="node">
<title>Node8</title>
<g id="a_node8"><a xlink:href="TransmitterCode_2src_2main_8cpp.html#a688c8f45b7061a1574dcb7eb28eec56b" target="_top" xlink:title=" ">
<polygon fill="white" stroke="black" points="266,-190.5 266,-209.5 388,-209.5 388,-190.5 266,-190.5"/>
<text text-anchor="middle" x="327" y="-197.5" font-family="Helvetica,sans-Serif" font-size="10.00">CheckSavedTrimValues</text>
</a>
</g>
</g>
<!-- Node6&#45;&gt;Node8 -->
<g id="edge7" class="edge">
<title>Node6&#45;&gt;Node8</title>
<path fill="none" stroke="midnightblue" d="M219.83,-171.59C238.16,-176.49 260.68,-182.52 280.25,-187.76"/>
<polygon fill="midnightblue" stroke="midnightblue" points="279.61,-191.21 290.18,-190.41 281.42,-184.45 279.61,-191.21"/>
</g>
<!-- Node6&#45;&gt;Node9 -->
<g id="edge9" class="edge">
<title>Node6&#45;&gt;Node9</title>
<path fill="none" stroke="midnightblue" d="M197.42,-152.34C218.76,-137.04 258.77,-108.56 266,-105 270.54,-102.77 275.4,-100.72 280.32,-98.86"/>
<polygon fill="midnightblue" stroke="midnightblue" points="281.51,-102.16 289.78,-95.54 279.18,-95.55 281.51,-102.16"/>
</g>
<!-- Node6&#45;&gt;Node10 -->
<g id="edge10" class="edge">
<title>Node6&#45;&gt;Node10</title>
<path fill="none" stroke="midnightblue" d="M189.71,-152.37C201.52,-133.26 230.53,-90.38 266,-67 269.54,-64.67 273.39,-62.6 277.37,-60.78"/>
<polygon fill="midnightblue" stroke="midnightblue" points="278.85,-63.96 286.8,-56.96 276.22,-57.47 278.85,-63.96"/>
</g>
<!-- Node11 -->
<g id="node11" class="node">
<title>Node11</title>
<g id="a_node11"><a xlink:href="TransmitterCode_2src_2main_8cpp.html#a590a9174319918d7e3d7baca323fcf26" target="_top" xlink:title=" ">
<polygon fill="white" stroke="black" points="551,-152.5 551,-171.5 580,-171.5 580,-152.5 551,-152.5"/>
<text text-anchor="middle" x="565.5" y="-159.5" font-family="Helvetica,sans-Serif" font-size="10.00">Str</text>
</a>
</g>
</g>
<!-- Node6&#45;&gt;Node11 -->
<g id="edge11" class="edge">
<title>Node6&#45;&gt;Node11</title>
<path fill="none" stroke="midnightblue" d="M224.72,-162C304.12,-162 477.37,-162 540.71,-162"/>
<polygon fill="midnightblue" stroke="midnightblue" points="540.88,-165.5 550.88,-162 540.88,-158.5 540.88,-165.5"/>
</g>
<!-- Node12 -->
<g id="node12" class="node">
<title>Node12</title>
<g id="a_node12"><a xlink:href="TransmitterCode_2src_2main_8cpp.html#abf59862cf6c4e3df5a76f0bfea8919ef" target="_top" xlink:title=" ">
<polygon fill="white" stroke="black" points="274,-114.5 274,-133.5 380,-133.5 380,-114.5 274,-114.5"/>
<text text-anchor="middle" x="327" y="-121.5" font-family="Helvetica,sans-Serif" font-size="10.00">UpdateButtonLabels</text>
</a>
</g>
</g>
<!-- Node6&#45;&gt;Node12 -->
<g id="edge12" class="edge">
<title>Node6&#45;&gt;Node12</title>
<path fill="none" stroke="midnightblue" d="M219.83,-152.41C238.16,-147.51 260.68,-141.48 280.25,-136.24"/>
<polygon fill="midnightblue" stroke="midnightblue" points="281.42,-139.55 290.18,-133.59 279.61,-132.79 281.42,-139.55"/>
</g>
<!-- Node13 -->
<g id="node13" class="node">
<title>Node13</title>
<g id="a_node13"><a xlink:href="TransmitterCode_2src_2main_8cpp.html#afe513398f72d5e48f691830a1ef6eb42" target="_top" xlink:title=" ">
<polygon fill="white" stroke="black" points="427,-76.5 427,-95.5 485,-95.5 485,-76.5 427,-76.5"/>
<text text-anchor="middle" x="456" y="-83.5" font-family="Helvetica,sans-Serif" font-size="10.00">SendText</text>
</a>
</g>
</g>
<!-- Node12&#45;&gt;Node13 -->
<g id="edge13" class="edge">
<title>Node12&#45;&gt;Node13</title>
<path fill="none" stroke="midnightblue" d="M360.05,-114.41C377.41,-109.22 398.96,-102.77 417.15,-97.33"/>
<polygon fill="midnightblue" stroke="midnightblue" points="418.28,-100.64 426.85,-94.42 416.27,-93.94 418.28,-100.64"/>
</g>
<!-- Node19 -->
<g id="node19" class="node">
<title>Node19</title>
<g id="a_node19"><a xlink:href="TransmitterCode_2src_2main_8cpp.html#a1e20efc1e419b252b50d36f9924503fc" target="_top" xlink:title=" ">
<polygon fill="white" stroke="black" points="424,-114.5 424,-133.5 488,-133.5 488,-114.5 424,-114.5"/>
<text text-anchor="middle" x="456" y="-121.5" font-family="Helvetica,sans-Serif" font-size="10.00">SendValue</text>
</a>
</g>
</g>
<!-- Node12&#45;&gt;Node19 -->
<g id="edge20" class="edge">
<title>Node12&#45;&gt;Node19</title>
<path fill="none" stroke="midnightblue" d="M380.02,-124C391.34,-124 403.16,-124 413.98,-124"/>
<polygon fill="midnightblue" stroke="midnightblue" points="414,-127.5 424,-124 414,-120.5 414,-127.5"/>
</g>
<!-- Node14 -->
<g id="node14" class="node">
<title>Node14</title>
<g id="a_node14"><a xlink:href="TransmitterCode_2src_2main_8cpp.html#a43937dd3d9c795271fd9c3eb3c6b6410" target="_top" xlink:title=" ">
<polygon fill="white" stroke="black" points="643,-76.5 643,-95.5 726,-95.5 726,-76.5 643,-76.5"/>
<text text-anchor="middle" x="684.5" y="-83.5" font-family="Helvetica,sans-Serif" font-size="10.00">GetReturnCode</text>
</a>
</g>
</g>
<!-- Node13&#45;&gt;Node14 -->
<g id="edge14" class="edge">
<title>Node13&#45;&gt;Node14</title>
<path fill="none" stroke="midnightblue" d="M485.23,-86C521.97,-86 586.86,-86 632.37,-86"/>
<polygon fill="midnightblue" stroke="midnightblue" points="632.63,-89.5 642.63,-86 632.63,-82.5 632.63,-89.5"/>
</g>
<!-- Node15 -->
<g id="node15" class="node">
<title>Node15</title>
<g id="a_node15"><a xlink:href="TransmitterCode_2src_2main_8cpp.html#aecac2f0c289f02ef3c92b85be82eacac" target="_top" xlink:title=" ">
<polygon fill="white" stroke="black" points="524,-38.5 524,-57.5 607,-57.5 607,-38.5 524,-38.5"/>
<text text-anchor="middle" x="565.5" y="-45.5" font-family="Helvetica,sans-Serif" font-size="10.00">SendCommand</text>
</a>
</g>
</g>
<!-- Node13&#45;&gt;Node15 -->
<g id="edge15" class="edge">
<title>Node13&#45;&gt;Node15</title>
<path fill="none" stroke="midnightblue" d="M484.13,-76.41C497.37,-71.73 513.49,-66.03 527.81,-60.97"/>
<polygon fill="midnightblue" stroke="midnightblue" points="529.12,-64.22 537.38,-57.59 526.79,-57.62 529.12,-64.22"/>
</g>
<!-- Node15&#45;&gt;Node14 -->
<g id="edge16" class="edge">
<title>Node15&#45;&gt;Node14</title>
<path fill="none" stroke="midnightblue" d="M596.02,-57.59C610.71,-62.36 628.66,-68.19 644.47,-73.32"/>
<polygon fill="midnightblue" stroke="midnightblue" points="643.39,-76.65 653.99,-76.41 645.56,-70 643.39,-76.65"/>
</g>
<!-- Node16 -->
<g id="node16" class="node">
<title>Node16</title>
<g id="a_node16"><a xlink:href="TransmitterCode_2src_2main_8cpp.html#a5f109790a6fe0b972a502f3cac4ed1e7" target="_top" xlink:title=" ">
<polygon fill="white" stroke="black" points="660.5,-38.5 660.5,-57.5 708.5,-57.5 708.5,-38.5 660.5,-38.5"/>
<text text-anchor="middle" x="684.5" y="-45.5" font-family="Helvetica,sans-Serif" font-size="10.00">InStrng</text>
</a>
</g>
</g>
<!-- Node15&#45;&gt;Node16 -->
<g id="edge17" class="edge">
<title>Node15&#45;&gt;Node16</title>
<path fill="none" stroke="midnightblue" d="M607.09,-48C621.15,-48 636.74,-48 650.15,-48"/>
<polygon fill="midnightblue" stroke="midnightblue" points="650.37,-51.5 660.37,-48 650.37,-44.5 650.37,-51.5"/>
</g>
<!-- Node17 -->
<g id="node17" class="node">
<title>Node17</title>
<g id="a_node17"><a xlink:href="RadioFunctions_8cpp.html#a760609a682300dfe6bfaac737fd4d5eb" target="_top" xlink:title=" ">
<polygon fill="white" stroke="black" points="647.5,-0.5 647.5,-19.5 721.5,-19.5 721.5,-0.5 647.5,-0.5"/>
<text text-anchor="middle" x="684.5" y="-7.5" font-family="Helvetica,sans-Serif" font-size="10.00">Procrastinate</text>
</a>
</g>
</g>
<!-- Node15&#45;&gt;Node17 -->
<g id="edge18" class="edge">
<title>Node15&#45;&gt;Node17</title>
<path fill="none" stroke="midnightblue" d="M596.02,-38.41C610.71,-33.64 628.66,-27.81 644.47,-22.68"/>
<polygon fill="midnightblue" stroke="midnightblue" points="645.56,-26 653.99,-19.59 643.39,-19.35 645.56,-26"/>
</g>
<!-- Node18 -->
<g id="node18" class="node">
<title>Node18</title>
<g id="a_node18"><a xlink:href="TransmitterCode_2src_2main_8cpp.html#ada95a00a341e4a80176eda743a94ab2e" target="_top" xlink:title=" ">
<polygon fill="white" stroke="black" points="762,-0.5 762,-19.5 832,-19.5 832,-0.5 762,-0.5"/>
<text text-anchor="middle" x="797" y="-7.5" font-family="Helvetica,sans-Serif" font-size="10.00">KickTheDog</text>
</a>
</g>
</g>
<!-- Node17&#45;&gt;Node18 -->
<g id="edge19" class="edge">
<title>Node17&#45;&gt;Node18</title>
<path fill="none" stroke="midnightblue" d="M721.68,-10C731.31,-10 741.81,-10 751.81,-10"/>
<polygon fill="midnightblue" stroke="midnightblue" points="751.99,-13.5 761.99,-10 751.99,-6.5 751.99,-13.5"/>
</g>
<!-- Node19&#45;&gt;Node11 -->
<g id="edge23" class="edge">
<title>Node19&#45;&gt;Node11</title>
<path fill="none" stroke="midnightblue" d="M484.13,-133.59C501.74,-139.82 524.46,-147.85 541.25,-153.78"/>
<polygon fill="midnightblue" stroke="midnightblue" points="540.24,-157.14 550.84,-157.17 542.58,-150.54 540.24,-157.14"/>
</g>
<!-- Node19&#45;&gt;Node14 -->
<g id="edge21" class="edge">
<title>Node19&#45;&gt;Node14</title>
<path fill="none" stroke="midnightblue" d="M488.06,-119.24C518.42,-114.53 565.93,-107.04 607,-100 615.32,-98.57 624.14,-97.01 632.72,-95.46"/>
<polygon fill="midnightblue" stroke="midnightblue" points="633.43,-98.89 642.64,-93.65 632.17,-92 633.43,-98.89"/>
</g>
<!-- Node19&#45;&gt;Node15 -->
<g id="edge22" class="edge">
<title>Node19&#45;&gt;Node15</title>
<path fill="none" stroke="midnightblue" d="M473.27,-114.41C478.07,-111.48 483.3,-108.18 488,-105 507.49,-91.81 528.92,-75.7 544.12,-63.97"/>
<polygon fill="midnightblue" stroke="midnightblue" points="546.54,-66.53 552.29,-57.63 542.25,-61 546.54,-66.53"/>
</g>
</g>
</svg>
