<?xml version="1.0" encoding="UTF-8" standalone="no"?>
<!DOCTYPE svg PUBLIC "-//W3C//DTD SVG 1.1//EN"
 "http://www.w3.org/Graphics/SVG/1.1/DTD/svg11.dtd">
<!-- Generated by graphviz version 7.0.5 (20221223.1930)
 -->
<!-- Title: WordWrap Pages: 1 -->
<svg width="1741pt" height="493pt"
 viewBox="0.00 0.00 1741.00 492.50" xmlns="http://www.w3.org/2000/svg" xmlns:xlink="http://www.w3.org/1999/xlink">
<g id="graph0" class="graph" transform="scale(1 1) rotate(0) translate(4 488.5)">
<title>WordWrap</title>
<!-- Node1 -->
<g id="node1" class="node">
<title>Node1</title>
<g id="a_node1"><a xlink:title=" ">
<polygon fill="#999999" stroke="#666666" points="1733,-182 1671,-182 1671,-163 1733,-163 1733,-182"/>
<text text-anchor="middle" x="1702" y="-170" font-family="Helvetica,sans-Serif" font-size="10.00">WordWrap</text>
</a>
</g>
</g>
<!-- Node2 -->
<g id="node2" class="node">
<title>Node2</title>
<g id="a_node2"><a xlink:href="TransmitterCode_2src_2main_8cpp.html#abd6446fb403bd9b07d150a5e4fdd86e1" target="_top" xlink:title=" ">
<polygon fill="white" stroke="#666666" points="1635,-182 1561,-182 1561,-163 1635,-163 1635,-182"/>
<text text-anchor="middle" x="1598" y="-170" font-family="Helvetica,sans-Serif" font-size="10.00">ReadTextFile</text>
</a>
</g>
</g>
<!-- Node1&#45;&gt;Node2 -->
<g id="edge1" class="edge">
<title>Node1&#45;&gt;Node2</title>
<path fill="none" stroke="#63b8ff" d="M1659.27,-172.5C1651.27,-172.5 1642.96,-172.5 1635.15,-172.5"/>
<polygon fill="#63b8ff" stroke="#63b8ff" points="1659.16,-176 1669.16,-172.5 1659.16,-169 1659.16,-176"/>
</g>
<!-- Node3 -->
<g id="node3" class="node">
<title>Node3</title>
<g id="a_node3"><a xlink:href="TransmitterCode_2src_2main_8cpp.html#ab0a84052e41734eb43651d054ee2b4c5" target="_top" xlink:title=" ">
<polygon fill="white" stroke="#666666" points="1525,-219 1448,-219 1448,-200 1525,-200 1525,-219"/>
<text text-anchor="middle" x="1486.5" y="-207" font-family="Helvetica,sans-Serif" font-size="10.00">ScrollHelpFile</text>
</a>
</g>
</g>
<!-- Node2&#45;&gt;Node3 -->
<g id="edge2" class="edge">
<title>Node2&#45;&gt;Node3</title>
<path fill="none" stroke="#63b8ff" d="M1556.91,-186.05C1543.67,-190.52 1529.21,-195.41 1516.92,-199.56"/>
<polygon fill="#63b8ff" stroke="#63b8ff" points="1557.87,-189.42 1566.22,-182.9 1555.63,-182.79 1557.87,-189.42"/>
</g>
<!-- Node30 -->
<g id="node30" class="node">
<title>Node30</title>
<g id="a_node30"><a xlink:href="TransmitterCode_2src_2main_8cpp.html#af5df157d4ece6b40a9ce7a60faeca569" target="_top" xlink:title=" ">
<polygon fill="white" stroke="#666666" points="1523.5,-164 1449.5,-164 1449.5,-145 1523.5,-145 1523.5,-164"/>
<text text-anchor="middle" x="1486.5" y="-152" font-family="Helvetica,sans-Serif" font-size="10.00">ShowLogFile</text>
</a>
</g>
</g>
<!-- Node2&#45;&gt;Node30 -->
<g id="edge38" class="edge">
<title>Node2&#45;&gt;Node30</title>
<path fill="none" stroke="#63b8ff" d="M1549.45,-164.68C1540.85,-163.27 1532.01,-161.82 1523.8,-160.47"/>
<polygon fill="#63b8ff" stroke="#63b8ff" points="1548.61,-168.09 1559.04,-166.26 1549.74,-161.18 1548.61,-168.09"/>
</g>
<!-- Node4 -->
<g id="node4" class="node">
<title>Node4</title>
<g id="a_node4"><a xlink:href="TransmitterCode_2src_2main_8cpp.html#a01be76cc3bf8a963f987ae47916dc8d3" target="_top" xlink:title=" ">
<polygon fill="white" stroke="#666666" points="1407.5,-201 1349.5,-201 1349.5,-182 1407.5,-182 1407.5,-201"/>
<text text-anchor="middle" x="1378.5" y="-189" font-family="Helvetica,sans-Serif" font-size="10.00">DownLog</text>
</a>
</g>
</g>
<!-- Node3&#45;&gt;Node4 -->
<g id="edge3" class="edge">
<title>Node3&#45;&gt;Node4</title>
<path fill="none" stroke="#63b8ff" d="M1436.27,-201.14C1426.54,-199.49 1416.64,-197.81 1407.89,-196.32"/>
<polygon fill="#63b8ff" stroke="#63b8ff" points="1435.59,-204.58 1446.04,-202.8 1436.77,-197.67 1435.59,-204.58"/>
</g>
<!-- Node5 -->
<g id="node5" class="node">
<title>Node5</title>
<g id="a_node5"><a xlink:href="TransmitterCode_2src_2main_8cpp.html#a038111bf598c53ad7b9a62ca45259356" target="_top" xlink:title=" ">
<polygon fill="white" stroke="#666666" points="1408,-275 1349,-275 1349,-256 1408,-256 1408,-275"/>
<text text-anchor="middle" x="1378.5" y="-263" font-family="Helvetica,sans-Serif" font-size="10.00">SendHelp</text>
</a>
</g>
</g>
<!-- Node3&#45;&gt;Node5 -->
<g id="edge4" class="edge">
<title>Node3&#45;&gt;Node5</title>
<path fill="none" stroke="#63b8ff" d="M1457,-224.56C1438.3,-234.43 1414.39,-247.07 1398.11,-255.67"/>
<polygon fill="#63b8ff" stroke="#63b8ff" points="1458.49,-227.73 1465.7,-219.96 1455.22,-221.54 1458.49,-227.73"/>
</g>
<!-- Node29 -->
<g id="node29" class="node">
<title>Node29</title>
<g id="a_node29"><a xlink:href="TransmitterCode_2src_2main_8cpp.html#a2206c19b4fc075f4c9f1bb957ca89e1d" target="_top" xlink:title=" ">
<polygon fill="white" stroke="#666666" points="1401.5,-238 1355.5,-238 1355.5,-219 1401.5,-219 1401.5,-238"/>
<text text-anchor="middle" x="1378.5" y="-226" font-family="Helvetica,sans-Serif" font-size="10.00">UpLog</text>
</a>
</g>
</g>
<!-- Node3&#45;&gt;Node29 -->
<g id="edge37" class="edge">
<title>Node3&#45;&gt;Node29</title>
<path fill="none" stroke="#63b8ff" d="M1436.53,-218.28C1424.38,-220.46 1411.94,-222.68 1401.8,-224.5"/>
<polygon fill="#63b8ff" stroke="#63b8ff" points="1436.82,-221.78 1446.04,-216.57 1435.58,-214.89 1436.82,-221.78"/>
</g>
<!-- Node6 -->
<g id="node6" class="node">
<title>Node6</title>
<g id="a_node6"><a xlink:href="TransmitterCode_2src_2main_8cpp.html#a804fdbdd5eab4c596bbe8a23eecbe4d5" target="_top" xlink:title=" ">
<polygon fill="white" stroke="#666666" points="1309,-275 1208,-275 1208,-256 1309,-256 1309,-275"/>
<text text-anchor="middle" x="1258.5" y="-263" font-family="Helvetica,sans-Serif" font-size="10.00">ButtonWasPressed</text>
</a>
</g>
</g>
<!-- Node5&#45;&gt;Node6 -->
<g id="edge5" class="edge">
<title>Node5&#45;&gt;Node6</title>
<path fill="none" stroke="#63b8ff" d="M1337.24,-265.5C1328.23,-265.5 1318.57,-265.5 1309.23,-265.5"/>
<polygon fill="#63b8ff" stroke="#63b8ff" points="1337.12,-269 1347.12,-265.5 1337.12,-262 1337.12,-269"/>
</g>
<!-- Node7 -->
<g id="node7" class="node">
<title>Node7</title>
<g id="a_node7"><a xlink:href="Utilities_8h.html#afb7c85cac4aa89fd998ed81c330374d2" target="_top" xlink:title=" ">
<polygon fill="white" stroke="#666666" points="1172,-218 1026,-218 1026,-199 1172,-199 1172,-218"/>
<text text-anchor="middle" x="1099" y="-206" font-family="Helvetica,sans-Serif" font-size="10.00">CheckForNextionButtonPress</text>
</a>
</g>
</g>
<!-- Node6&#45;&gt;Node7 -->
<g id="edge6" class="edge">
<title>Node6&#45;&gt;Node7</title>
<path fill="none" stroke="#63b8ff" d="M1221.96,-251.36C1206.65,-245.38 1188.51,-238.43 1172,-232.5 1158.61,-227.69 1143.7,-222.66 1130.94,-218.46"/>
<polygon fill="#63b8ff" stroke="#63b8ff" points="1220.55,-254.56 1231.14,-254.96 1223.11,-248.05 1220.55,-254.56"/>
</g>
<!-- Node22 -->
<g id="node22" class="node">
<title>Node22</title>
<g id="a_node22"><a xlink:href="TransmitterCode_2src_2main_8cpp.html#ab7c9edf843c732d7fe296564f39bc0dc" target="_top" xlink:title="RECEIVE A MODEL FILE.">
<polygon fill="white" stroke="#666666" points="832,-456 738,-456 738,-437 832,-437 832,-456"/>
<text text-anchor="middle" x="785" y="-444" font-family="Helvetica,sans-Serif" font-size="10.00">ReceiveModelFile</text>
</a>
</g>
</g>
<!-- Node6&#45;&gt;Node22 -->
<g id="edge36" class="edge">
<title>Node6&#45;&gt;Node22</title>
<path fill="none" stroke="#63b8ff" d="M1225.05,-279.76C1156.46,-309.6 991.33,-379.91 849,-428.5 840.71,-431.33 831.71,-434.09 823.17,-436.56"/>
<polygon fill="#63b8ff" stroke="#63b8ff" points="1226.06,-283.13 1233.83,-275.93 1223.26,-276.72 1226.06,-283.13"/>
</g>
<!-- Node8 -->
<g id="node8" class="node">
<title>Node8</title>
<g id="a_node8"><a xlink:href="TransmitterCode_2src_2main_8cpp.html#a641d6dab68ec7b2a8a32492aac55bc1c" target="_top" xlink:title=" ">
<polygon fill="white" stroke="#666666" points="990,-256 885,-256 885,-237 990,-237 990,-256"/>
<text text-anchor="middle" x="937.5" y="-244" font-family="Helvetica,sans-Serif" font-size="10.00">GetBackupFilename</text>
</a>
</g>
</g>
<!-- Node7&#45;&gt;Node8 -->
<g id="edge7" class="edge">
<title>Node7&#45;&gt;Node8</title>
<path fill="none" stroke="#63b8ff" d="M1045.07,-221.11C1024.04,-226.12 1000.2,-231.8 980.4,-236.52"/>
<polygon fill="#63b8ff" stroke="#63b8ff" points="1045.7,-224.56 1054.62,-218.83 1044.08,-217.75 1045.7,-224.56"/>
</g>
<!-- Node10 -->
<g id="node10" class="node">
<title>Node10</title>
<g id="a_node10"><a xlink:href="TransmitterCode_2src_2main_8cpp.html#a6506bf72e0dd9e9ce480156b47625bff" target="_top" xlink:title=" ">
<polygon fill="white" stroke="#666666" points="980.5,-294 894.5,-294 894.5,-275 980.5,-275 980.5,-294"/>
<text text-anchor="middle" x="937.5" y="-282" font-family="Helvetica,sans-Serif" font-size="10.00">GetConfirmation</text>
</a>
</g>
</g>
<!-- Node7&#45;&gt;Node10 -->
<g id="edge10" class="edge">
<title>Node7&#45;&gt;Node10</title>
<path fill="none" stroke="#63b8ff" d="M1070.24,-223.95C1048.67,-235.69 1017.83,-251.93 990,-264.5 982.22,-268.01 973.63,-271.5 965.72,-274.56"/>
<polygon fill="#63b8ff" stroke="#63b8ff" points="1071.92,-227.02 1079,-219.14 1068.55,-220.88 1071.92,-227.02"/>
</g>
<!-- Node26 -->
<g id="node26" class="node">
<title>Node26</title>
<g id="a_node26"><a xlink:href="TransmitterCode_2src_2main_8cpp.html#a558ea014e230b7caa54ce5a37ad29b22" target="_top" xlink:title=" ">
<polygon fill="white" stroke="#666666" points="684.5,-67 583.5,-67 583.5,-48 684.5,-48 684.5,-67"/>
<text text-anchor="middle" x="634" y="-55" font-family="Helvetica,sans-Serif" font-size="10.00">ManageTransmitter</text>
</a>
</g>
</g>
<!-- Node7&#45;&gt;Node26 -->
<g id="edge29" class="edge">
<title>Node7&#45;&gt;Node26</title>
<path fill="none" stroke="#63b8ff" d="M1078.7,-191.56C1039.05,-158.02 944.11,-84.09 849,-57.5 794.43,-42.25 728.94,-45.17 684.9,-50.02"/>
<polygon fill="#63b8ff" stroke="#63b8ff" points="1076.13,-193.96 1086,-197.82 1080.69,-188.65 1076.13,-193.96"/>
</g>
<!-- Node27 -->
<g id="node27" class="node">
<title>Node27</title>
<g id="a_node27"><a xlink:href="TransmitterCode_2src_2main_8cpp.html#a6f5b0f1e4ca75768c16c4dd93f92a8de" target="_top" xlink:title=" ">
<polygon fill="white" stroke="#666666" points="963.5,-197 911.5,-197 911.5,-178 963.5,-178 963.5,-197"/>
<text text-anchor="middle" x="937.5" y="-185" font-family="Helvetica,sans-Serif" font-size="10.00">MsgBox</text>
</a>
</g>
</g>
<!-- Node7&#45;&gt;Node27 -->
<g id="edge31" class="edge">
<title>Node7&#45;&gt;Node27</title>
<path fill="none" stroke="#63b8ff" d="M1014.55,-197.51C996.12,-195.09 977.95,-192.69 963.99,-190.86"/>
<polygon fill="#63b8ff" stroke="#63b8ff" points="1013.84,-200.95 1024.22,-198.79 1014.76,-194.01 1013.84,-200.95"/>
</g>
<!-- Node8&#45;&gt;Node6 -->
<g id="edge8" class="edge">
<title>Node8&#45;&gt;Node6</title>
<path fill="none" stroke="#63b8ff" d="M1001.68,-250.26C1062.13,-253.86 1152.1,-259.22 1207.66,-262.53"/>
<polygon fill="#63b8ff" stroke="#63b8ff" points="1002.08,-246.78 991.88,-249.68 1001.66,-253.77 1002.08,-246.78"/>
</g>
<!-- Node9 -->
<g id="node9" class="node">
<title>Node9</title>
<g id="a_node9"><a xlink:href="TransmitterCode_2src_2main_8cpp.html#a9d94366336f1e5fd43edb9c24bec5821" target="_top" xlink:title=" ">
<polygon fill="white" stroke="#666666" points="819,-271 751,-271 751,-252 819,-252 819,-271"/>
<text text-anchor="middle" x="785" y="-259" font-family="Helvetica,sans-Serif" font-size="10.00">RenameFile</text>
</a>
</g>
</g>
<!-- Node8&#45;&gt;Node9 -->
<g id="edge9" class="edge">
<title>Node8&#45;&gt;Node9</title>
<path fill="none" stroke="#63b8ff" d="M873.36,-252.79C854.86,-254.64 835.35,-256.58 819.48,-258.16"/>
<polygon fill="#63b8ff" stroke="#63b8ff" points="873.6,-256.29 883.2,-251.81 872.9,-249.32 873.6,-256.29"/>
</g>
<!-- Node10&#45;&gt;Node6 -->
<g id="edge11" class="edge">
<title>Node10&#45;&gt;Node6</title>
<path fill="none" stroke="#63b8ff" d="M992.01,-281.31C1052.16,-277.73 1149.05,-271.96 1207.66,-268.47"/>
<polygon fill="#63b8ff" stroke="#63b8ff" points="992.15,-277.8 982.37,-281.89 992.56,-284.79 992.15,-277.8"/>
</g>
<!-- Node10&#45;&gt;Node9 -->
<g id="edge25" class="edge">
<title>Node10&#45;&gt;Node9</title>
<path fill="none" stroke="#63b8ff" d="M883.04,-276.33C861.84,-273.09 838.12,-269.46 819.44,-266.61"/>
<polygon fill="#63b8ff" stroke="#63b8ff" points="882.27,-279.75 892.68,-277.8 883.32,-272.83 882.27,-279.75"/>
</g>
<!-- Node11 -->
<g id="node11" class="node">
<title>Node11</title>
<g id="a_node11"><a xlink:href="TransmitterCode_2src_2main_8cpp.html#ac45477c637c975e13189e2988c8813b3" target="_top" xlink:title=" ">
<polygon fill="white" stroke="#666666" points="825,-197 745,-197 745,-178 825,-178 825,-197"/>
<text text-anchor="middle" x="785" y="-185" font-family="Helvetica,sans-Serif" font-size="10.00">DeleteModelID</text>
</a>
</g>
</g>
<!-- Node10&#45;&gt;Node11 -->
<g id="edge12" class="edge">
<title>Node10&#45;&gt;Node11</title>
<path fill="none" stroke="#63b8ff" d="M891.58,-269.24C889.26,-267.79 887.05,-266.21 885,-264.5 861.44,-244.79 873.44,-224.11 849,-205.5 842.12,-200.26 833.77,-196.55 825.44,-193.92"/>
<polygon fill="#63b8ff" stroke="#63b8ff" points="889.72,-272.22 900.19,-273.81 892.99,-266.03 889.72,-272.22"/>
</g>
<!-- Node12 -->
<g id="node12" class="node">
<title>Node12</title>
<g id="a_node12"><a xlink:href="TransmitterCode_2src_2main_8cpp.html#a53d438145d004c3b053f245f494f4284" target="_top" xlink:title=" ">
<polygon fill="white" stroke="#666666" points="811,-86 759,-86 759,-67 811,-67 811,-86"/>
<text text-anchor="middle" x="785" y="-74" font-family="Helvetica,sans-Serif" font-size="10.00">DelLOG</text>
</a>
</g>
</g>
<!-- Node10&#45;&gt;Node12 -->
<g id="edge13" class="edge">
<title>Node10&#45;&gt;Node12</title>
<path fill="none" stroke="#63b8ff" d="M888.59,-268.16C887.31,-267.02 886.11,-265.8 885,-264.5 834.98,-205.66 901.68,-150.98 849,-94.5 839.38,-84.19 824.3,-79.64 811.3,-77.69"/>
<polygon fill="#63b8ff" stroke="#63b8ff" points="886.47,-270.95 896.69,-273.73 890.43,-265.18 886.47,-270.95"/>
</g>
<!-- Node13 -->
<g id="node13" class="node">
<title>Node13</title>
<g id="a_node13"><a xlink:href="TransmitterCode_2src_2main_8cpp.html#a16c65917a148c7f6c17babf11e977b69" target="_top" xlink:title=" ">
<polygon fill="white" stroke="#666666" points="826,-382 744,-382 744,-363 826,-363 826,-382"/>
<text text-anchor="middle" x="785" y="-370" font-family="Helvetica,sans-Serif" font-size="10.00">EndBuddyView</text>
</a>
</g>
</g>
<!-- Node10&#45;&gt;Node13 -->
<g id="edge14" class="edge">
<title>Node10&#45;&gt;Node13</title>
<path fill="none" stroke="#63b8ff" d="M918.71,-302.31C902.02,-318.1 875.69,-340.72 849,-354.5 841.92,-358.15 834.01,-361.15 826.24,-363.59"/>
<polygon fill="#63b8ff" stroke="#63b8ff" points="921.1,-304.87 925.84,-295.4 916.23,-299.84 921.1,-304.87"/>
</g>
<!-- Node14 -->
<g id="node14" class="node">
<title>Node14</title>
<g id="a_node14"><a xlink:href="ModelMatch_8h.html#afdd42b1130d38073be1c2025af855879" target="_top" xlink:title=" ">
<polygon fill="white" stroke="#666666" points="819.5,-160 750.5,-160 750.5,-141 819.5,-141 819.5,-160"/>
<text text-anchor="middle" x="785" y="-148" font-family="Helvetica,sans-Serif" font-size="10.00">IDNotFound</text>
</a>
</g>
</g>
<!-- Node10&#45;&gt;Node14 -->
<g id="edge15" class="edge">
<title>Node10&#45;&gt;Node14</title>
<path fill="none" stroke="#63b8ff" d="M890,-268.83C888.22,-267.5 886.54,-266.06 885,-264.5 852.97,-232.09 882.49,-199.4 849,-168.5 841.06,-161.17 830.33,-156.8 819.99,-154.21"/>
<polygon fill="#63b8ff" stroke="#63b8ff" points="887.88,-271.64 898.24,-273.82 891.5,-265.65 887.88,-271.64"/>
</g>
<!-- Node21 -->
<g id="node21" class="node">
<title>Node21</title>
<g id="a_node21"><a xlink:href="TransmitterCode_2src_2main_8cpp.html#ae9f91b9da28f2e1e2fb126961f03c31c" target="_top" xlink:title=" ">
<polygon fill="white" stroke="#666666" points="825.5,-345 744.5,-345 744.5,-326 825.5,-326 825.5,-345"/>
<text text-anchor="middle" x="785" y="-333" font-family="Helvetica,sans-Serif" font-size="10.00">ModelViewEnd</text>
</a>
</g>
</g>
<!-- Node10&#45;&gt;Node21 -->
<g id="edge23" class="edge">
<title>Node10&#45;&gt;Node21</title>
<path fill="none" stroke="#63b8ff" d="M901.37,-298.5C885.49,-304.64 866.41,-311.74 849,-317.5 840.58,-320.29 831.44,-323.05 822.8,-325.54"/>
<polygon fill="#63b8ff" stroke="#63b8ff" points="902.35,-301.88 910.39,-294.99 899.8,-295.36 902.35,-301.88"/>
</g>
<!-- Node10&#45;&gt;Node22 -->
<g id="edge24" class="edge">
<title>Node10&#45;&gt;Node22</title>
<path fill="none" stroke="#63b8ff" d="M925.82,-303.79C905.07,-341.01 860.33,-419.86 849,-428.5 844.03,-432.29 838.28,-435.29 832.33,-437.65"/>
<polygon fill="#63b8ff" stroke="#63b8ff" points="928.68,-305.85 930.48,-295.41 922.56,-302.45 928.68,-305.85"/>
</g>
<!-- Node23 -->
<g id="node23" class="node">
<title>Node23</title>
<g id="a_node23"><a xlink:href="TransmitterCode_2src_2main_8cpp.html#a5c7f22bae35d5d6df9d54fe79dbb8401" target="_top" xlink:title=" ">
<polygon fill="white" stroke="#666666" points="849,-308 721,-308 721,-289 849,-289 849,-308"/>
<text text-anchor="middle" x="785" y="-296" font-family="Helvetica,sans-Serif" font-size="10.00">ResetTransmitterSettings</text>
</a>
</g>
</g>
<!-- Node10&#45;&gt;Node23 -->
<g id="edge26" class="edge">
<title>Node10&#45;&gt;Node23</title>
<path fill="none" stroke="#63b8ff" d="M882.74,-289.5C871.93,-290.51 860.47,-291.57 849.36,-292.61"/>
<polygon fill="#63b8ff" stroke="#63b8ff" points="883.04,-292.99 892.67,-288.58 882.39,-286.02 883.04,-292.99"/>
</g>
<!-- Node24 -->
<g id="node24" class="node">
<title>Node24</title>
<g id="a_node24"><a xlink:href="TransmitterCode_2src_2main_8cpp.html#a3838aa0b33bb22d3b9934da05d2716d8" target="_top" xlink:title=" ">
<polygon fill="white" stroke="#666666" points="823,-234 747,-234 747,-215 823,-215 823,-234"/>
<text text-anchor="middle" x="785" y="-222" font-family="Helvetica,sans-Serif" font-size="10.00">StoreModelID</text>
</a>
</g>
</g>
<!-- Node10&#45;&gt;Node24 -->
<g id="edge27" class="edge">
<title>Node10&#45;&gt;Node24</title>
<path fill="none" stroke="#63b8ff" d="M897.66,-270.28C893.34,-268.44 889.04,-266.5 885,-264.5 868.19,-256.18 866.17,-250.03 849,-242.5 840.87,-238.94 831.85,-235.87 823.23,-233.34"/>
<polygon fill="#63b8ff" stroke="#63b8ff" points="896.33,-273.51 906.91,-274.03 898.96,-267.03 896.33,-273.51"/>
</g>
<!-- Node25 -->
<g id="node25" class="node">
<title>Node25</title>
<g id="a_node25"><a xlink:href="TransmitterCode_2src_2main_8cpp.html#a3c55ef7c23759a89a86f6519569c4f7a" target="_top" xlink:title=" ">
<polygon fill="white" stroke="#666666" points="834.5,-419 735.5,-419 735.5,-400 834.5,-400 834.5,-419"/>
<text text-anchor="middle" x="785" y="-407" font-family="Helvetica,sans-Serif" font-size="10.00">TXModuleViewEnd</text>
</a>
</g>
</g>
<!-- Node10&#45;&gt;Node25 -->
<g id="edge28" class="edge">
<title>Node10&#45;&gt;Node25</title>
<path fill="none" stroke="#63b8ff" d="M925.48,-304.3C911.03,-328.45 883.42,-368.86 849,-391.5 844.06,-394.75 838.52,-397.42 832.84,-399.62"/>
<polygon fill="#63b8ff" stroke="#63b8ff" points="928.44,-306.19 930.42,-295.78 922.38,-302.68 928.44,-306.19"/>
</g>
<!-- Node15 -->
<g id="node15" class="node">
<title>Node15</title>
<g id="a_node15"><a xlink:href="ModelMatch_8h.html#af8fe429ceb65bf9d257a2a0f1c63eccb" target="_top" xlink:title=" ">
<polygon fill="white" stroke="#666666" points="685,-160 583,-160 583,-141 685,-141 685,-160"/>
<text text-anchor="middle" x="634" y="-148" font-family="Helvetica,sans-Serif" font-size="10.00">CompareModelsIDs</text>
</a>
</g>
</g>
<!-- Node14&#45;&gt;Node15 -->
<g id="edge16" class="edge">
<title>Node14&#45;&gt;Node15</title>
<path fill="none" stroke="#63b8ff" d="M738.93,-150.5C722.03,-150.5 702.72,-150.5 685.37,-150.5"/>
<polygon fill="#63b8ff" stroke="#63b8ff" points="738.68,-154 748.68,-150.5 738.68,-147 738.68,-154"/>
</g>
<!-- Node16 -->
<g id="node16" class="node">
<title>Node16</title>
<g id="a_node16"><a xlink:href="ModelMatch_8h.html#a494cb4acb30856d1f53f08df1b80c41b" target="_top" xlink:title=" ">
<polygon fill="white" stroke="#666666" points="547,-160 428,-160 428,-141 547,-141 547,-160"/>
<text text-anchor="middle" x="487.5" y="-148" font-family="Helvetica,sans-Serif" font-size="10.00">GetModelsMacAddress</text>
</a>
</g>
</g>
<!-- Node15&#45;&gt;Node16 -->
<g id="edge17" class="edge">
<title>Node15&#45;&gt;Node16</title>
<path fill="none" stroke="#63b8ff" d="M571.42,-150.5C563.48,-150.5 555.37,-150.5 547.49,-150.5"/>
<polygon fill="#63b8ff" stroke="#63b8ff" points="571.35,-154 581.35,-150.5 571.35,-147 571.35,-154"/>
</g>
<!-- Node17 -->
<g id="node17" class="node">
<title>Node17</title>
<g id="a_node17"><a xlink:href="TransmitterCode_2src_2main_8cpp.html#a694f4f5a0147f4dc29b0bc1a8951547d" target="_top" xlink:title=" ">
<polygon fill="white" stroke="#666666" points="392,-160 298,-160 298,-141 392,-141 392,-160"/>
<text text-anchor="middle" x="345" y="-148" font-family="Helvetica,sans-Serif" font-size="10.00">ParseAckPayload</text>
</a>
</g>
</g>
<!-- Node16&#45;&gt;Node17 -->
<g id="edge18" class="edge">
<title>Node16&#45;&gt;Node17</title>
<path fill="none" stroke="#63b8ff" d="M416.22,-150.5C408.05,-150.5 399.87,-150.5 392.14,-150.5"/>
<polygon fill="#63b8ff" stroke="#63b8ff" points="416.22,-154 426.22,-150.5 416.22,-147 416.22,-154"/>
</g>
<!-- Node18 -->
<g id="node18" class="node">
<title>Node18</title>
<g id="a_node18"><a xlink:href="transceiver_8h.html#a1c11bb6771548de7d96723045b922620" target="_top" xlink:title=" ">
<polygon fill="white" stroke="#666666" points="262,-160 166,-160 166,-141 262,-141 262,-160"/>
<text text-anchor="middle" x="214" y="-148" font-family="Helvetica,sans-Serif" font-size="10.00">SuccessfulPacket</text>
</a>
</g>
</g>
<!-- Node17&#45;&gt;Node18 -->
<g id="edge19" class="edge">
<title>Node17&#45;&gt;Node18</title>
<path fill="none" stroke="#63b8ff" d="M286.47,-150.5C278.35,-150.5 270.08,-150.5 262.19,-150.5"/>
<polygon fill="#63b8ff" stroke="#63b8ff" points="286.28,-154 296.28,-150.5 286.28,-147 286.28,-154"/>
</g>
<!-- Node19 -->
<g id="node19" class="node">
<title>Node19</title>
<g id="a_node19"><a xlink:href="transceiver_8h.html#a049bfb836e7aa4a3a48a1a4bd225fafc" target="_top" xlink:title=" ">
<polygon fill="white" stroke="#666666" points="130,-160 71,-160 71,-141 130,-141 130,-160"/>
<text text-anchor="middle" x="100.5" y="-148" font-family="Helvetica,sans-Serif" font-size="10.00">SendData</text>
</a>
</g>
</g>
<!-- Node18&#45;&gt;Node19 -->
<g id="edge20" class="edge">
<title>Node18&#45;&gt;Node19</title>
<path fill="none" stroke="#63b8ff" d="M154.39,-150.5C146.07,-150.5 137.83,-150.5 130.43,-150.5"/>
<polygon fill="#63b8ff" stroke="#63b8ff" points="154.2,-154 164.2,-150.5 154.2,-147 154.2,-154"/>
</g>
<!-- Node19&#45;&gt;Node6 -->
<g id="edge21" class="edge">
<title>Node19&#45;&gt;Node6</title>
<path fill="none" stroke="#63b8ff" d="M105.85,-171.44C122.41,-244.63 188.54,-484.5 344,-484.5 938.5,-484.5 938.5,-484.5 938.5,-484.5 1088.3,-484.5 1219.18,-318.32 1250.43,-275.48"/>
<polygon fill="#63b8ff" stroke="#63b8ff" points="109.34,-171 103.79,-161.97 102.5,-172.49 109.34,-171"/>
</g>
<!-- Node20 -->
<g id="node20" class="node">
<title>Node20</title>
<g id="a_node20"><a xlink:href="TransmitterCode_2src_2main_8cpp.html#ad3cb30894c94eb016e98bdcaa899ac86" target="_top" xlink:title=" ">
<polygon fill="white" stroke="#666666" points="35,-123 0,-123 0,-104 35,-104 35,-123"/>
<text text-anchor="middle" x="17.5" y="-111" font-family="Helvetica,sans-Serif" font-size="10.00">loop</text>
</a>
</g>
</g>
<!-- Node19&#45;&gt;Node20 -->
<g id="edge22" class="edge">
<title>Node19&#45;&gt;Node20</title>
<path fill="none" stroke="#63b8ff" d="M67.62,-135.94C56.62,-130.91 44.72,-125.47 35.38,-121.21"/>
<polygon fill="#63b8ff" stroke="#63b8ff" points="65.87,-138.98 76.42,-139.96 68.78,-132.62 65.87,-138.98"/>
</g>
<!-- Node26&#45;&gt;Node20 -->
<g id="edge30" class="edge">
<title>Node26&#45;&gt;Node20</title>
<path fill="none" stroke="#63b8ff" d="M574.15,-69.57C516.33,-80.37 425.48,-94.5 346,-94.5 346,-94.5 346,-94.5 213,-94.5 147.01,-94.5 69.02,-105.47 35.36,-110.74"/>
<polygon fill="#63b8ff" stroke="#63b8ff" points="574.6,-73.05 583.77,-67.75 573.29,-66.17 574.6,-73.05"/>
</g>
<!-- Node27&#45;&gt;Node11 -->
<g id="edge32" class="edge">
<title>Node27&#45;&gt;Node11</title>
<path fill="none" stroke="#63b8ff" d="M899.85,-187.5C877.32,-187.5 848.46,-187.5 825.44,-187.5"/>
<polygon fill="#63b8ff" stroke="#63b8ff" points="899.8,-191 909.8,-187.5 899.8,-184 899.8,-191"/>
</g>
<!-- Node27&#45;&gt;Node14 -->
<g id="edge33" class="edge">
<title>Node27&#45;&gt;Node14</title>
<path fill="none" stroke="#63b8ff" d="M900.31,-178.6C875.83,-172.58 843.71,-164.69 819.75,-158.8"/>
<polygon fill="#63b8ff" stroke="#63b8ff" points="899.29,-181.96 909.84,-180.95 900.96,-175.16 899.29,-181.96"/>
</g>
<!-- Node27&#45;&gt;Node24 -->
<g id="edge35" class="edge">
<title>Node27&#45;&gt;Node24</title>
<path fill="none" stroke="#63b8ff" d="M900.18,-196.43C876.94,-202.14 846.87,-209.54 823.42,-215.3"/>
<polygon fill="#63b8ff" stroke="#63b8ff" points="900.96,-199.84 909.84,-194.05 899.29,-193.04 900.96,-199.84"/>
</g>
<!-- Node28 -->
<g id="node28" class="node">
<title>Node28</title>
<g id="a_node28"><a xlink:href="TransmitterCode_2src_2main_8cpp.html#ac36bdea2efcd030a336293af16f5dc09" target="_top" xlink:title=" ">
<polygon fill="white" stroke="#666666" points="827.5,-123 742.5,-123 742.5,-104 827.5,-104 827.5,-123"/>
<text text-anchor="middle" x="785" y="-111" font-family="Helvetica,sans-Serif" font-size="10.00">ShowRemoteID</text>
</a>
</g>
</g>
<!-- Node27&#45;&gt;Node28 -->
<g id="edge34" class="edge">
<title>Node27&#45;&gt;Node28</title>
<path fill="none" stroke="#63b8ff" d="M914.72,-171.01C897.61,-158.7 872.78,-142.23 849,-131.5 842.16,-128.41 834.65,-125.72 827.29,-123.43"/>
<polygon fill="#63b8ff" stroke="#63b8ff" points="912.49,-173.71 922.62,-176.81 916.63,-168.07 912.49,-173.71"/>
</g>
<!-- Node30&#45;&gt;Node4 -->
<g id="edge42" class="edge">
<title>Node30&#45;&gt;Node4</title>
<path fill="none" stroke="#63b8ff" d="M1446.3,-168.18C1433.6,-172.62 1419.76,-177.45 1407.98,-181.56"/>
<polygon fill="#63b8ff" stroke="#63b8ff" points="1447.38,-171.51 1455.66,-164.91 1445.07,-164.91 1447.38,-171.51"/>
</g>
<!-- Node30&#45;&gt;Node6 -->
<g id="edge39" class="edge">
<title>Node30&#45;&gt;Node6</title>
<path fill="none" stroke="#63b8ff" d="M1468.75,-136.52C1454.98,-123.16 1434.19,-105.99 1412,-98.5 1383.79,-88.98 1370.4,-82.97 1345,-98.5 1286.09,-134.52 1266.11,-225.41 1260.99,-255.59"/>
<polygon fill="#63b8ff" stroke="#63b8ff" points="1466.15,-138.87 1475.66,-143.54 1471.13,-133.96 1466.15,-138.87"/>
</g>
<!-- Node30&#45;&gt;Node29 -->
<g id="edge45" class="edge">
<title>Node30&#45;&gt;Node29</title>
<path fill="none" stroke="#63b8ff" d="M1464.41,-171.28C1449.96,-182.53 1430.19,-197.43 1412,-209.5 1407.32,-212.61 1402.11,-215.77 1397.26,-218.6"/>
<polygon fill="#63b8ff" stroke="#63b8ff" points="1466.17,-174.35 1471.88,-165.42 1461.85,-168.84 1466.17,-174.35"/>
</g>
<!-- Node31 -->
<g id="node31" class="node">
<title>Node31</title>
<g id="a_node31"><a xlink:href="TransmitterCode_2src_2main_8cpp.html#ad33b86f6d4eba7a21e57c1a5ba76281a" target="_top" xlink:title=" ">
<polygon fill="white" stroke="#666666" points="1299.5,-19 1217.5,-19 1217.5,0 1299.5,0 1299.5,-19"/>
<text text-anchor="middle" x="1258.5" y="-7" font-family="Helvetica,sans-Serif" font-size="10.00">DeleteLogFile1</text>
</a>
</g>
</g>
<!-- Node30&#45;&gt;Node31 -->
<g id="edge40" class="edge">
<title>Node30&#45;&gt;Node31</title>
<path fill="none" stroke="#63b8ff" d="M1468.95,-136.24C1454.81,-121.35 1433.41,-100.4 1412,-85.5 1370.36,-56.52 1316.07,-32.26 1284.77,-19.4"/>
<polygon fill="#63b8ff" stroke="#63b8ff" points="1466.34,-138.58 1475.72,-143.52 1471.47,-133.81 1466.34,-138.58"/>
</g>
<!-- Node32 -->
<g id="node32" class="node">
<title>Node32</title>
<g id="a_node32"><a xlink:href="TransmitterCode_2src_2main_8cpp.html#a6e27b8b3c5b752c6a208a768de54c277" target="_top" xlink:title=" ">
<polygon fill="white" stroke="#666666" points="1407.5,-164 1349.5,-164 1349.5,-145 1407.5,-145 1407.5,-164"/>
<text text-anchor="middle" x="1378.5" y="-152" font-family="Helvetica,sans-Serif" font-size="10.00">LogVIEW</text>
</a>
</g>
</g>
<!-- Node30&#45;&gt;Node32 -->
<g id="edge43" class="edge">
<title>Node30&#45;&gt;Node32</title>
<path fill="none" stroke="#63b8ff" d="M1437.64,-154.5C1427.39,-154.5 1416.89,-154.5 1407.67,-154.5"/>
<polygon fill="#63b8ff" stroke="#63b8ff" points="1437.51,-158 1447.51,-154.5 1437.51,-151 1437.51,-158"/>
</g>
<!-- Node33 -->
<g id="node33" class="node">
<title>Node33</title>
<g id="a_node33"><a xlink:href="TransmitterCode_2src_2main_8cpp.html#a816b0ec602ed068bb08647d951681993" target="_top" xlink:title=" ">
<polygon fill="white" stroke="#666666" points="1412,-127 1345,-127 1345,-108 1412,-108 1412,-127"/>
<text text-anchor="middle" x="1378.5" y="-115" font-family="Helvetica,sans-Serif" font-size="10.00">RefreshLog</text>
</a>
</g>
</g>
<!-- Node30&#45;&gt;Node33 -->
<g id="edge44" class="edge">
<title>Node30&#45;&gt;Node33</title>
<path fill="none" stroke="#63b8ff" d="M1446.3,-140.82C1433.6,-136.38 1419.76,-131.55 1407.98,-127.44"/>
<polygon fill="#63b8ff" stroke="#63b8ff" points="1445.07,-144.09 1455.66,-144.09 1447.38,-137.49 1445.07,-144.09"/>
</g>
<!-- Node31&#45;&gt;Node12 -->
<g id="edge41" class="edge">
<title>Node31&#45;&gt;Node12</title>
<path fill="none" stroke="#63b8ff" d="M1205.92,-16.83C1105.29,-31.13 886.11,-62.28 811.48,-72.88"/>
<polygon fill="#63b8ff" stroke="#63b8ff" points="1206.39,-20.3 1215.8,-15.43 1205.41,-13.37 1206.39,-20.3"/>
</g>
</g>
</svg>
