<?xml version="1.0" encoding="UTF-8" standalone="no"?>
<!DOCTYPE svg PUBLIC "-//W3C//DTD SVG 1.1//EN"
 "http://www.w3.org/Graphics/SVG/1.1/DTD/svg11.dtd">
<!-- Generated by graphviz version 7.0.5 (20221223.1930)
 -->
<!-- Title: IntoLowerRes Pages: 1 -->
<svg width="999pt" height="279pt"
 viewBox="0.00 0.00 999.00 279.00" xmlns="http://www.w3.org/2000/svg" xmlns:xlink="http://www.w3.org/1999/xlink">
<g id="graph0" class="graph" transform="scale(1 1) rotate(0) translate(4 275)">
<title>IntoLowerRes</title>
<!-- Node1 -->
<g id="node1" class="node">
<title>Node1</title>
<g id="a_node1"><a xlink:title=" ">
<polygon fill="#999999" stroke="#666666" points="991,-76 914,-76 914,-57 991,-57 991,-76"/>
<text text-anchor="middle" x="952.5" y="-64" font-family="Helvetica,sans-Serif" font-size="10.00">IntoLowerRes</text>
</a>
</g>
</g>
<!-- Node2 -->
<g id="node2" class="node">
<title>Node2</title>
<g id="a_node2"><a xlink:href="TransmitterCode_2src_2main_8cpp.html#ad770ee51a34d8c5026e65136884c16bf" target="_top" xlink:title=" ">
<polygon fill="white" stroke="#666666" points="878,-76 794,-76 794,-57 878,-57 878,-76"/>
<text text-anchor="middle" x="836" y="-64" font-family="Helvetica,sans-Serif" font-size="10.00">ShowServoPos</text>
</a>
</g>
</g>
<!-- Node1&#45;&gt;Node2 -->
<g id="edge1" class="edge">
<title>Node1&#45;&gt;Node2</title>
<path fill="none" stroke="#63b8ff" d="M902.24,-66.5C894.26,-66.5 886.08,-66.5 878.32,-66.5"/>
<polygon fill="#63b8ff" stroke="#63b8ff" points="902.18,-70 912.18,-66.5 902.18,-63 902.18,-70"/>
</g>
<!-- Node3 -->
<g id="node3" class="node">
<title>Node3</title>
<g id="a_node3"><a xlink:href="TransmitterCode_2src_2main_8cpp.html#a804fdbdd5eab4c596bbe8a23eecbe4d5" target="_top" xlink:title=" ">
<polygon fill="white" stroke="#666666" points="588,-151 487,-151 487,-132 588,-132 588,-151"/>
<text text-anchor="middle" x="537.5" y="-139" font-family="Helvetica,sans-Serif" font-size="10.00">ButtonWasPressed</text>
</a>
</g>
</g>
<!-- Node2&#45;&gt;Node3 -->
<g id="edge2" class="edge">
<title>Node2&#45;&gt;Node3</title>
<path fill="none" stroke="#63b8ff" d="M808.7,-81.87C794.18,-89.73 775.58,-98.82 758,-104.5 701.37,-122.81 633.44,-132.48 588.3,-137.28"/>
<polygon fill="#63b8ff" stroke="#63b8ff" points="810.12,-85.09 817.15,-77.16 806.71,-78.97 810.12,-85.09"/>
</g>
<!-- Node13 -->
<g id="node13" class="node">
<title>Node13</title>
<g id="a_node13"><a xlink:href="TransmitterCode_2src_2main_8cpp.html#ad3cb30894c94eb016e98bdcaa899ac86" target="_top" xlink:title=" ">
<polygon fill="white" stroke="#666666" points="81.5,-84 46.5,-84 46.5,-65 81.5,-65 81.5,-84"/>
<text text-anchor="middle" x="64" y="-72" font-family="Helvetica,sans-Serif" font-size="10.00">loop</text>
</a>
</g>
</g>
<!-- Node2&#45;&gt;Node13 -->
<g id="edge22" class="edge">
<title>Node2&#45;&gt;Node13</title>
<path fill="none" stroke="#63b8ff" d="M782.51,-61.1C723.3,-55.48 624.09,-47.5 538.5,-47.5 538.5,-47.5 538.5,-47.5 377,-47.5 263.91,-47.5 128.62,-65.32 81.87,-72.01"/>
<polygon fill="#63b8ff" stroke="#63b8ff" points="782.01,-64.57 792.3,-62.04 782.68,-57.6 782.01,-64.57"/>
</g>
<!-- Node14 -->
<g id="node14" class="node">
<title>Node14</title>
<g id="a_node14"><a xlink:href="TransmitterCode_2src_2main_8cpp.html#aa61377ec59e711151913086167f2f48f" target="_top" xlink:title=" ">
<polygon fill="white" stroke="#666666" points="758,-95 624,-95 624,-76 758,-76 758,-95"/>
<text text-anchor="middle" x="691" y="-83" font-family="Helvetica,sans-Serif" font-size="10.00">DisplayCurveAndServoPos</text>
</a>
</g>
</g>
<!-- Node2&#45;&gt;Node14 -->
<g id="edge17" class="edge">
<title>Node2&#45;&gt;Node14</title>
<path fill="none" stroke="#63b8ff" d="M782.43,-73.49C774.58,-74.53 766.41,-75.61 758.32,-76.69"/>
<polygon fill="#63b8ff" stroke="#63b8ff" points="782.69,-76.98 792.14,-72.19 781.76,-70.04 782.69,-76.98"/>
</g>
<!-- Node16 -->
<g id="node16" class="node">
<title>Node16</title>
<g id="a_node16"><a xlink:href="TransmitterCode_2src_2main_8cpp.html#acaf005c908c2b6706d7ab9579f456ca8" target="_top" xlink:title=" ">
<polygon fill="white" stroke="#666666" points="730,-19 652,-19 652,0 730,0 730,-19"/>
<text text-anchor="middle" x="691" y="-7" font-family="Helvetica,sans-Serif" font-size="10.00">DualRatesEnd</text>
</a>
</g>
</g>
<!-- Node2&#45;&gt;Node16 -->
<g id="edge21" class="edge">
<title>Node2&#45;&gt;Node16</title>
<path fill="none" stroke="#63b8ff" d="M802.53,-52.11C788.86,-46.17 772.73,-39.33 758,-33.5 745.76,-28.65 732.1,-23.63 720.39,-19.43"/>
<polygon fill="#63b8ff" stroke="#63b8ff" points="800.95,-55.23 811.51,-56.03 803.75,-48.82 800.95,-55.23"/>
</g>
<!-- Node4 -->
<g id="node4" class="node">
<title>Node4</title>
<g id="a_node4"><a xlink:href="TransmitterCode_2src_2main_8cpp.html#afb7c85cac4aa89fd998ed81c330374d2" target="_top" xlink:title=" ">
<polygon fill="white" stroke="#666666" points="451,-132 305,-132 305,-113 451,-113 451,-132"/>
<text text-anchor="middle" x="378" y="-120" font-family="Helvetica,sans-Serif" font-size="10.00">CheckForNextionButtonPress</text>
</a>
</g>
</g>
<!-- Node3&#45;&gt;Node4 -->
<g id="edge3" class="edge">
<title>Node3&#45;&gt;Node4</title>
<path fill="none" stroke="#63b8ff" d="M475.32,-134.12C467.43,-133.17 459.29,-132.19 451.24,-131.21"/>
<polygon fill="#63b8ff" stroke="#63b8ff" points="474.82,-137.58 485.16,-135.31 475.65,-130.63 474.82,-137.58"/>
</g>
<!-- Node9 -->
<g id="node9" class="node">
<title>Node9</title>
<g id="a_node9"><a xlink:href="TransmitterCode_2src_2main_8cpp.html#ab7c9edf843c732d7fe296564f39bc0dc" target="_top" xlink:title="RECEIVE A MODEL FILE.">
<polygon fill="white" stroke="#666666" points="111,-271 17,-271 17,-252 111,-252 111,-271"/>
<text text-anchor="middle" x="64" y="-259" font-family="Helvetica,sans-Serif" font-size="10.00">ReceiveModelFile</text>
</a>
</g>
</g>
<!-- Node3&#45;&gt;Node9 -->
<g id="edge16" class="edge">
<title>Node3&#45;&gt;Node9</title>
<path fill="none" stroke="#63b8ff" d="M507.98,-156.43C491.66,-164.49 470.58,-174.07 451,-180.5 331.46,-219.77 184.66,-244.4 111.32,-255.17"/>
<polygon fill="#63b8ff" stroke="#63b8ff" points="509.26,-159.71 516.61,-152.09 506.11,-153.46 509.26,-159.71"/>
</g>
<!-- Node5 -->
<g id="node5" class="node">
<title>Node5</title>
<g id="a_node5"><a xlink:href="TransmitterCode_2src_2main_8cpp.html#a641d6dab68ec7b2a8a32492aac55bc1c" target="_top" xlink:title=" ">
<polygon fill="white" stroke="#666666" points="269,-132 164,-132 164,-113 269,-113 269,-132"/>
<text text-anchor="middle" x="216.5" y="-120" font-family="Helvetica,sans-Serif" font-size="10.00">GetBackupFilename</text>
</a>
</g>
</g>
<!-- Node4&#45;&gt;Node5 -->
<g id="edge4" class="edge">
<title>Node4&#45;&gt;Node5</title>
<path fill="none" stroke="#63b8ff" d="M293.4,-122.5C285.1,-122.5 276.86,-122.5 269.04,-122.5"/>
<polygon fill="#63b8ff" stroke="#63b8ff" points="293.2,-126 303.2,-122.5 293.2,-119 293.2,-126"/>
</g>
<!-- Node7 -->
<g id="node7" class="node">
<title>Node7</title>
<g id="a_node7"><a xlink:href="TransmitterCode_2src_2main_8cpp.html#a6506bf72e0dd9e9ce480156b47625bff" target="_top" xlink:title=" ">
<polygon fill="white" stroke="#666666" points="259.5,-197 173.5,-197 173.5,-178 259.5,-178 259.5,-197"/>
<text text-anchor="middle" x="216.5" y="-185" font-family="Helvetica,sans-Serif" font-size="10.00">GetConfirmation</text>
</a>
</g>
</g>
<!-- Node4&#45;&gt;Node7 -->
<g id="edge7" class="edge">
<title>Node4&#45;&gt;Node7</title>
<path fill="none" stroke="#63b8ff" d="M342.25,-136.66C311.94,-149.01 268.75,-166.62 241.95,-177.53"/>
<polygon fill="#63b8ff" stroke="#63b8ff" points="343.43,-139.96 351.37,-132.94 340.79,-133.48 343.43,-139.96"/>
</g>
<!-- Node12 -->
<g id="node12" class="node">
<title>Node12</title>
<g id="a_node12"><a xlink:href="TransmitterCode_2src_2main_8cpp.html#a558ea014e230b7caa54ce5a37ad29b22" target="_top" xlink:title=" ">
<polygon fill="white" stroke="#666666" points="267,-95 166,-95 166,-76 267,-76 267,-95"/>
<text text-anchor="middle" x="216.5" y="-83" font-family="Helvetica,sans-Serif" font-size="10.00">ManageTransmitter</text>
</a>
</g>
</g>
<!-- Node4&#45;&gt;Node12 -->
<g id="edge14" class="edge">
<title>Node4&#45;&gt;Node12</title>
<path fill="none" stroke="#63b8ff" d="M323.19,-110.02C302.72,-105.27 279.69,-99.93 260.36,-95.44"/>
<polygon fill="#63b8ff" stroke="#63b8ff" points="322.25,-113.39 332.78,-112.24 323.83,-106.57 322.25,-113.39"/>
</g>
<!-- Node5&#45;&gt;Node3 -->
<g id="edge5" class="edge">
<title>Node5&#45;&gt;Node3</title>
<path fill="none" stroke="#63b8ff" d="M265.55,-134.86C278.29,-137.61 292.09,-140.11 305,-141.5 367.34,-148.19 439.67,-146.73 486.66,-144.56"/>
<polygon fill="#63b8ff" stroke="#63b8ff" points="266.68,-131.53 256.16,-132.75 265.14,-138.36 266.68,-131.53"/>
</g>
<!-- Node6 -->
<g id="node6" class="node">
<title>Node6</title>
<g id="a_node6"><a xlink:href="TransmitterCode_2src_2main_8cpp.html#a9d94366336f1e5fd43edb9c24bec5821" target="_top" xlink:title=" ">
<polygon fill="white" stroke="#666666" points="98,-123 30,-123 30,-104 98,-104 98,-123"/>
<text text-anchor="middle" x="64" y="-111" font-family="Helvetica,sans-Serif" font-size="10.00">RenameFile</text>
</a>
</g>
</g>
<!-- Node5&#45;&gt;Node6 -->
<g id="edge6" class="edge">
<title>Node5&#45;&gt;Node6</title>
<path fill="none" stroke="#63b8ff" d="M152.36,-118.72C133.86,-117.62 114.35,-116.45 98.48,-115.5"/>
<polygon fill="#63b8ff" stroke="#63b8ff" points="152,-122.21 162.2,-119.31 152.42,-115.22 152,-122.21"/>
</g>
<!-- Node7&#45;&gt;Node3 -->
<g id="edge8" class="edge">
<title>Node7&#45;&gt;Node3</title>
<path fill="none" stroke="#63b8ff" d="M271.01,-181.51C318.42,-175.99 389.46,-167.2 451,-157.5 462.64,-155.67 475.12,-153.46 486.85,-151.29"/>
<polygon fill="#63b8ff" stroke="#63b8ff" points="270.82,-178.01 261.29,-182.63 271.63,-184.96 270.82,-178.01"/>
</g>
<!-- Node7&#45;&gt;Node6 -->
<g id="edge11" class="edge">
<title>Node7&#45;&gt;Node6</title>
<path fill="none" stroke="#63b8ff" d="M193.04,-171.01C175.9,-159.03 151.34,-143.12 128,-132.5 118.64,-128.24 108.08,-124.63 98.31,-121.73"/>
<polygon fill="#63b8ff" stroke="#63b8ff" points="190.79,-173.71 200.97,-176.66 194.86,-168.01 190.79,-173.71"/>
</g>
<!-- Node8 -->
<g id="node8" class="node">
<title>Node8</title>
<g id="a_node8"><a xlink:href="TransmitterCode_2src_2main_8cpp.html#ae9f91b9da28f2e1e2fb126961f03c31c" target="_top" xlink:title=" ">
<polygon fill="white" stroke="#666666" points="104.5,-160 23.5,-160 23.5,-141 104.5,-141 104.5,-160"/>
<text text-anchor="middle" x="64" y="-148" font-family="Helvetica,sans-Serif" font-size="10.00">ModelViewEnd</text>
</a>
</g>
</g>
<!-- Node7&#45;&gt;Node8 -->
<g id="edge9" class="edge">
<title>Node7&#45;&gt;Node8</title>
<path fill="none" stroke="#63b8ff" d="M164.1,-174.86C144.75,-170.11 123.06,-164.77 104.92,-160.31"/>
<polygon fill="#63b8ff" stroke="#63b8ff" points="163.15,-178.23 173.7,-177.22 164.82,-171.44 163.15,-178.23"/>
</g>
<!-- Node7&#45;&gt;Node9 -->
<g id="edge10" class="edge">
<title>Node7&#45;&gt;Node9</title>
<path fill="none" stroke="#63b8ff" d="M193.72,-203.99C176.61,-216.3 151.78,-232.77 128,-243.5 121.16,-246.59 113.65,-249.28 106.29,-251.57"/>
<polygon fill="#63b8ff" stroke="#63b8ff" points="195.63,-206.93 201.62,-198.19 191.49,-201.29 195.63,-206.93"/>
</g>
<!-- Node10 -->
<g id="node10" class="node">
<title>Node10</title>
<g id="a_node10"><a xlink:href="TransmitterCode_2src_2main_8cpp.html#a5c7f22bae35d5d6df9d54fe79dbb8401" target="_top" xlink:title=" ">
<polygon fill="white" stroke="#666666" points="128,-234 0,-234 0,-215 128,-215 128,-234"/>
<text text-anchor="middle" x="64" y="-222" font-family="Helvetica,sans-Serif" font-size="10.00">ResetTransmitterSettings</text>
</a>
</g>
</g>
<!-- Node7&#45;&gt;Node10 -->
<g id="edge12" class="edge">
<title>Node7&#45;&gt;Node10</title>
<path fill="none" stroke="#63b8ff" d="M164.19,-200.12C145,-204.83 123.51,-210.12 105.44,-214.56"/>
<polygon fill="#63b8ff" stroke="#63b8ff" points="164.82,-203.56 173.7,-197.78 163.15,-196.77 164.82,-203.56"/>
</g>
<!-- Node11 -->
<g id="node11" class="node">
<title>Node11</title>
<g id="a_node11"><a xlink:href="TransmitterCode_2src_2main_8cpp.html#a3c55ef7c23759a89a86f6519569c4f7a" target="_top" xlink:title=" ">
<polygon fill="white" stroke="#666666" points="113.5,-197 14.5,-197 14.5,-178 113.5,-178 113.5,-197"/>
<text text-anchor="middle" x="64" y="-185" font-family="Helvetica,sans-Serif" font-size="10.00">TXModuleViewEnd</text>
</a>
</g>
</g>
<!-- Node7&#45;&gt;Node11 -->
<g id="edge13" class="edge">
<title>Node7&#45;&gt;Node11</title>
<path fill="none" stroke="#63b8ff" d="M162.05,-187.5C146.36,-187.5 129.3,-187.5 113.91,-187.5"/>
<polygon fill="#63b8ff" stroke="#63b8ff" points="161.66,-191 171.66,-187.5 161.66,-184 161.66,-191"/>
</g>
<!-- Node12&#45;&gt;Node13 -->
<g id="edge15" class="edge">
<title>Node12&#45;&gt;Node13</title>
<path fill="none" stroke="#63b8ff" d="M154.37,-81.03C128.17,-79.12 99.6,-77.03 81.99,-75.74"/>
<polygon fill="#63b8ff" stroke="#63b8ff" points="154.07,-84.52 164.29,-81.76 154.58,-77.54 154.07,-84.52"/>
</g>
<!-- Node14&#45;&gt;Node3 -->
<g id="edge18" class="edge">
<title>Node14&#45;&gt;Node3</title>
<path fill="none" stroke="#63b8ff" d="M652.65,-99.3C625.63,-109.29 589.75,-122.56 565.48,-131.53"/>
<polygon fill="#63b8ff" stroke="#63b8ff" points="653.68,-102.66 661.84,-95.91 651.25,-96.09 653.68,-102.66"/>
</g>
<!-- Node15 -->
<g id="node15" class="node">
<title>Node15</title>
<g id="a_node15"><a xlink:href="TransmitterCode_2src_2main_8cpp.html#aa98d7fb495cbdc40cb17343ffafbfe15" target="_top" xlink:title=" ">
<polygon fill="white" stroke="#666666" points="405.5,-95 350.5,-95 350.5,-76 405.5,-76 405.5,-95"/>
<text text-anchor="middle" x="378" y="-83" font-family="Helvetica,sans-Serif" font-size="10.00">GetBank</text>
</a>
</g>
</g>
<!-- Node14&#45;&gt;Node15 -->
<g id="edge19" class="edge">
<title>Node14&#45;&gt;Node15</title>
<path fill="none" stroke="#63b8ff" d="M612.25,-85.5C544.89,-85.5 451.31,-85.5 405.88,-85.5"/>
<polygon fill="#63b8ff" stroke="#63b8ff" points="612.15,-89 622.15,-85.5 612.15,-82 612.15,-89"/>
</g>
<!-- Node15&#45;&gt;Node12 -->
<g id="edge20" class="edge">
<title>Node15&#45;&gt;Node12</title>
<path fill="none" stroke="#63b8ff" d="M339,-85.5C317.5,-85.5 290.37,-85.5 267.2,-85.5"/>
<polygon fill="#63b8ff" stroke="#63b8ff" points="338.79,-89 348.79,-85.5 338.79,-82 338.79,-89"/>
</g>
</g>
</svg>
