<?xml version="1.0" encoding="UTF-8" standalone="no"?>
<!DOCTYPE svg PUBLIC "-//W3C//DTD SVG 1.1//EN"
 "http://www.w3.org/Graphics/SVG/1.1/DTD/svg11.dtd">
<!-- Generated by graphviz version 7.0.2 (20221119.0110)
 -->
<!-- Title: ShowDualRateChannelsName Pages: 1 -->
<svg width="441pt" height="64pt"
 viewBox="0.00 0.00 441.00 64.00" xmlns="http://www.w3.org/2000/svg" xmlns:xlink="http://www.w3.org/1999/xlink">
<g id="graph0" class="graph" transform="scale(1 1) rotate(0) translate(4 60)">
<title>ShowDualRateChannelsName</title>
<!-- Node1 -->
<g id="node1" class="node">
<title>Node1</title>
<g id="a_node1"><a xlink:title=" ">
<polygon fill="#999999" stroke="#666666" points="433,-37 285,-37 285,-18 433,-18 433,-37"/>
<text text-anchor="middle" x="359" y="-25" font-family="Helvetica,sans-Serif" font-size="10.00">ShowDualRateChannelsName</text>
</a>
</g>
</g>
<!-- Node2 -->
<g id="node2" class="node">
<title>Node2</title>
<g id="a_node2"><a xlink:href="TransmitterCode_2src_2main_8cpp.html#a922416bc71ebe2b10fcd879f271e7c1c" target="_top" xlink:title=" ">
<polygon fill="white" stroke="#666666" points="249,-37 131,-37 131,-18 249,-18 249,-37"/>
<text text-anchor="middle" x="190" y="-25" font-family="Helvetica,sans-Serif" font-size="10.00">DisplayDualRateValues</text>
</a>
</g>
</g>
<!-- Node1&#45;&gt;Node2 -->
<g id="edge1" class="edge">
<title>Node1&#45;&gt;Node2</title>
<path fill="none" stroke="#63b8ff" d="M273.33,-27.5C265.23,-27.5 257.15,-27.5 249.39,-27.5"/>
<polygon fill="#63b8ff" stroke="#63b8ff" points="273.24,-31 283.24,-27.5 273.24,-24 273.24,-31"/>
</g>
<!-- Node3 -->
<g id="node3" class="node">
<title>Node3</title>
<g id="a_node3"><a xlink:href="TransmitterCode_2src_2main_8cpp.html#af110521855e780717b5248c3aacc799e" target="_top" xlink:title=" ">
<polygon fill="white" stroke="#666666" points="95,-56 0,-56 0,-37 95,-37 95,-56"/>
<text text-anchor="middle" x="47.5" y="-44" font-family="Helvetica,sans-Serif" font-size="10.00">DualRatesRefresh</text>
</a>
</g>
</g>
<!-- Node2&#45;&gt;Node3 -->
<g id="edge2" class="edge">
<title>Node2&#45;&gt;Node3</title>
<path fill="none" stroke="#63b8ff" d="M119.24,-36.93C111.14,-38.03 103.03,-39.13 95.35,-40.16"/>
<polygon fill="#63b8ff" stroke="#63b8ff" points="119.7,-40.4 129.14,-35.6 118.76,-33.47 119.7,-40.4"/>
</g>
<!-- Node4 -->
<g id="node4" class="node">
<title>Node4</title>
<g id="a_node4"><a xlink:href="TransmitterCode_2src_2main_8cpp.html#a6e3590b95598a6cced18d591c2e1879f" target="_top" xlink:title=" ">
<polygon fill="white" stroke="#666666" points="89,-19 6,-19 6,0 89,0 89,-19"/>
<text text-anchor="middle" x="47.5" y="-7" font-family="Helvetica,sans-Serif" font-size="10.00">DualRatesStart</text>
</a>
</g>
</g>
<!-- Node2&#45;&gt;Node4 -->
<g id="edge3" class="edge">
<title>Node2&#45;&gt;Node4</title>
<path fill="none" stroke="#63b8ff" d="M119.49,-18.59C109.17,-17.27 98.83,-15.95 89.36,-14.73"/>
<polygon fill="#63b8ff" stroke="#63b8ff" points="118.77,-22.03 129.13,-19.83 119.66,-15.09 118.77,-22.03"/>
</g>
</g>
</svg>
