<?xml version="1.0" encoding="UTF-8" standalone="no"?>
<!DOCTYPE svg PUBLIC "-//W3C//DTD SVG 1.1//EN"
 "http://www.w3.org/Graphics/SVG/1.1/DTD/svg11.dtd">
<!-- Generated by graphviz version 7.0.5 (20221223.1930)
 -->
<!-- Title: SendHelp Pages: 1 -->
<svg width="1394pt" height="1147pt"
 viewBox="0.00 0.00 1394.00 1146.50" xmlns="http://www.w3.org/2000/svg" xmlns:xlink="http://www.w3.org/1999/xlink">
<g id="graph0" class="graph" transform="scale(1 1) rotate(0) translate(4 1142.5)">
<title>SendHelp</title>
<!-- Node1 -->
<g id="node1" class="node">
<title>Node1</title>
<g id="a_node1"><a xlink:title=" ">
<polygon fill="#999999" stroke="#666666" points="59,-142 0,-142 0,-123 59,-123 59,-142"/>
<text text-anchor="middle" x="29.5" y="-130" font-family="Helvetica,sans-Serif" font-size="10.00">SendHelp</text>
</a>
</g>
</g>
<!-- Node2 -->
<g id="node2" class="node">
<title>Node2</title>
<g id="a_node2"><a xlink:href="TransmitterCode_2src_2main_8cpp.html#ab0a84052e41734eb43651d054ee2b4c5" target="_top" xlink:title=" ">
<polygon fill="white" stroke="#666666" points="172,-123 95,-123 95,-104 172,-104 172,-123"/>
<text text-anchor="middle" x="133.5" y="-111" font-family="Helvetica,sans-Serif" font-size="10.00">ScrollHelpFile</text>
</a>
</g>
</g>
<!-- Node1&#45;&gt;Node2 -->
<g id="edge1" class="edge">
<title>Node1&#45;&gt;Node2</title>
<path fill="none" stroke="#63b8ff" d="M59.46,-127.11C66.99,-125.7 75.31,-124.15 83.57,-122.61"/>
<polygon fill="#63b8ff" stroke="#63b8ff" points="84.02,-126.09 93.21,-120.82 82.74,-119.21 84.02,-126.09"/>
</g>
<!-- Node7 -->
<g id="node7" class="node">
<title>Node7</title>
<g id="a_node7"><a xlink:href="Nextion_8h.html#aecac2f0c289f02ef3c92b85be82eacac" target="_top" xlink:title=" ">
<polygon fill="white" stroke="#666666" points="401,-377 318,-377 318,-358 401,-358 401,-377"/>
<text text-anchor="middle" x="359.5" y="-365" font-family="Helvetica,sans-Serif" font-size="10.00">SendCommand</text>
</a>
</g>
</g>
<!-- Node1&#45;&gt;Node7 -->
<g id="edge73" class="edge">
<title>Node1&#45;&gt;Node7</title>
<path fill="none" stroke="#63b8ff" d="M44.18,-142.3C94.81,-178.58 272,-305.52 335.57,-351.07"/>
<polygon fill="#63b8ff" stroke="#63b8ff" points="333.37,-353.8 343.54,-356.78 337.44,-348.11 333.37,-353.8"/>
</g>
<!-- Node3 -->
<g id="node3" class="node">
<title>Node3</title>
<g id="a_node3"><a xlink:href="TransmitterCode_2src_2main_8cpp.html#abd6446fb403bd9b07d150a5e4fdd86e1" target="_top" xlink:title=" ">
<polygon fill="white" stroke="#666666" points="282,-86 208,-86 208,-67 282,-67 282,-86"/>
<text text-anchor="middle" x="245" y="-74" font-family="Helvetica,sans-Serif" font-size="10.00">ReadTextFile</text>
</a>
</g>
</g>
<!-- Node2&#45;&gt;Node3 -->
<g id="edge2" class="edge">
<title>Node2&#45;&gt;Node3</title>
<path fill="none" stroke="#63b8ff" d="M163.84,-103.58C176.12,-99.44 190.58,-94.55 203.82,-90.08"/>
<polygon fill="#63b8ff" stroke="#63b8ff" points="204.79,-93.44 213.14,-86.93 202.55,-86.81 204.79,-93.44"/>
</g>
<!-- Node5 -->
<g id="node5" class="node">
<title>Node5</title>
<g id="a_node5"><a xlink:href="Nextion_8h.html#a27dff58ae433cc3b32b7007757195c6d" target="_top" xlink:title=" ">
<polygon fill="white" stroke="#666666" points="276.5,-123 213.5,-123 213.5,-104 276.5,-104 276.5,-123"/>
<text text-anchor="middle" x="245" y="-111" font-family="Helvetica,sans-Serif" font-size="10.00">SendText1</text>
</a>
</g>
</g>
<!-- Node2&#45;&gt;Node5 -->
<g id="edge4" class="edge">
<title>Node2&#45;&gt;Node5</title>
<path fill="none" stroke="#63b8ff" d="M172.49,-113.5C181.98,-113.5 192.2,-113.5 201.88,-113.5"/>
<polygon fill="#63b8ff" stroke="#63b8ff" points="201.8,-117 211.8,-113.5 201.8,-110 201.8,-117"/>
</g>
<!-- Node4 -->
<g id="node4" class="node">
<title>Node4</title>
<g id="a_node4"><a xlink:href="TransmitterCode_2src_2main_8cpp.html#a6d6ab5dcee82c319640e3a0a0537ebf7" target="_top" xlink:title=" ">
<polygon fill="white" stroke="#666666" points="390.5,-19 328.5,-19 328.5,0 390.5,0 390.5,-19"/>
<text text-anchor="middle" x="359.5" y="-7" font-family="Helvetica,sans-Serif" font-size="10.00">WordWrap</text>
</a>
</g>
</g>
<!-- Node3&#45;&gt;Node4 -->
<g id="edge3" class="edge">
<title>Node3&#45;&gt;Node4</title>
<path fill="none" stroke="#63b8ff" d="M262.58,-66.58C277.16,-57.85 298.98,-44.81 318,-33.5 322.55,-30.79 327.39,-27.92 332.08,-25.14"/>
<polygon fill="#63b8ff" stroke="#63b8ff" points="333.82,-28.18 340.64,-20.07 330.25,-22.15 333.82,-28.18"/>
</g>
<!-- Node6 -->
<g id="node6" class="node">
<title>Node6</title>
<g id="a_node6"><a xlink:href="Nextion_8h.html#a43937dd3d9c795271fd9c3eb3c6b6410" target="_top" xlink:title=" ">
<polygon fill="white" stroke="#666666" points="1386,-769 1303,-769 1303,-750 1386,-750 1386,-769"/>
<text text-anchor="middle" x="1344.5" y="-757" font-family="Helvetica,sans-Serif" font-size="10.00">GetReturnCode</text>
</a>
</g>
</g>
<!-- Node5&#45;&gt;Node6 -->
<g id="edge5" class="edge">
<title>Node5&#45;&gt;Node6</title>
<path fill="none" stroke="#63b8ff" d="M265.92,-103.62C304.94,-85.21 394.6,-47.5 474.5,-47.5 474.5,-47.5 474.5,-47.5 1058.5,-47.5 1097.96,-47.5 1223.73,-110.88 1267,-179.5 1327.47,-275.41 1340.65,-645.16 1343.03,-738.17"/>
<polygon fill="#63b8ff" stroke="#63b8ff" points="1339.53,-738.19 1343.27,-748.1 1346.53,-738.02 1339.53,-738.19"/>
</g>
<!-- Node5&#45;&gt;Node7 -->
<g id="edge6" class="edge">
<title>Node5&#45;&gt;Node7</title>
<path fill="none" stroke="#63b8ff" d="M250.41,-123.46C267.11,-161.15 326.64,-295.58 349.49,-347.15"/>
<polygon fill="#63b8ff" stroke="#63b8ff" points="346.26,-348.5 353.51,-356.23 352.66,-345.67 346.26,-348.5"/>
</g>
<!-- Node7&#45;&gt;Node6 -->
<g id="edge71" class="edge">
<title>Node7&#45;&gt;Node6</title>
<path fill="none" stroke="#63b8ff" d="M361,-377.14C364.67,-445.41 388.52,-856.66 437,-970.5 475.88,-1061.78 484.79,-1138.5 584,-1138.5 584,-1138.5 584,-1138.5 1058.5,-1138.5 1239.41,-1138.5 1319.73,-859.25 1338.86,-780.15"/>
<polygon fill="#63b8ff" stroke="#63b8ff" points="1342.19,-781.26 1341.06,-770.72 1335.38,-779.66 1342.19,-781.26"/>
</g>
<!-- Node8 -->
<g id="node8" class="node">
<title>Node8</title>
<g id="a_node8"><a xlink:href="Utilities_8h.html#a3b1d8aa403e2724e55c71da3d9d13e7e" target="_top" xlink:title=" ">
<polygon fill="white" stroke="#666666" points="514,-639 437,-639 437,-620 514,-620 514,-639"/>
<text text-anchor="middle" x="475.5" y="-627" font-family="Helvetica,sans-Serif" font-size="10.00">DelayWithDog</text>
</a>
</g>
</g>
<!-- Node7&#45;&gt;Node8 -->
<g id="edge7" class="edge">
<title>Node7&#45;&gt;Node8</title>
<path fill="none" stroke="#63b8ff" d="M364.83,-377.45C381.62,-416.03 442.62,-556.23 465.63,-609.12"/>
<polygon fill="#63b8ff" stroke="#63b8ff" points="462.36,-610.38 469.56,-618.15 468.78,-607.59 462.36,-610.38"/>
</g>
<!-- Node120 -->
<g id="node50" class="node">
<title>Node120</title>
<g id="a_node50"><a xlink:href="TransmitterCode_2src_2main_8cpp.html#a5f109790a6fe0b972a502f3cac4ed1e7" target="_top" xlink:title=" ">
<polygon fill="white" stroke="#666666" points="499.5,-396 451.5,-396 451.5,-377 499.5,-377 499.5,-396"/>
<text text-anchor="middle" x="475.5" y="-384" font-family="Helvetica,sans-Serif" font-size="10.00">InStrng</text>
</a>
</g>
</g>
<!-- Node7&#45;&gt;Node120 -->
<g id="edge72" class="edge">
<title>Node7&#45;&gt;Node120</title>
<path fill="none" stroke="#63b8ff" d="M401.33,-374.31C414.02,-376.42 427.87,-378.73 440.07,-380.76"/>
<polygon fill="#63b8ff" stroke="#63b8ff" points="439.24,-384.17 449.68,-382.36 440.39,-377.27 439.24,-384.17"/>
</g>
<!-- Node9 -->
<g id="node9" class="node">
<title>Node9</title>
<g id="a_node9"><a xlink:href="Utilities_8h.html#ada95a00a341e4a80176eda743a94ab2e" target="_top" xlink:title=" ">
<polygon fill="white" stroke="#666666" points="620,-676 550,-676 550,-657 620,-657 620,-676"/>
<text text-anchor="middle" x="585" y="-664" font-family="Helvetica,sans-Serif" font-size="10.00">KickTheDog</text>
</a>
</g>
</g>
<!-- Node8&#45;&gt;Node9 -->
<g id="edge8" class="edge">
<title>Node8&#45;&gt;Node9</title>
<path fill="none" stroke="#63b8ff" d="M505.31,-639.42C517.36,-643.56 531.56,-648.45 544.55,-652.92"/>
<polygon fill="#63b8ff" stroke="#63b8ff" points="543.09,-656.12 553.68,-656.06 545.36,-649.5 543.09,-656.12"/>
</g>
<!-- Node10 -->
<g id="node10" class="node">
<title>Node10</title>
<g id="a_node10"><a xlink:href="transceiver_8h.html#a049bfb836e7aa4a3a48a1a4bd225fafc" target="_top" xlink:title=" ">
<polygon fill="white" stroke="#666666" points="614.5,-639 555.5,-639 555.5,-620 614.5,-620 614.5,-639"/>
<text text-anchor="middle" x="585" y="-627" font-family="Helvetica,sans-Serif" font-size="10.00">SendData</text>
</a>
</g>
</g>
<!-- Node8&#45;&gt;Node10 -->
<g id="edge9" class="edge">
<title>Node8&#45;&gt;Node10</title>
<path fill="none" stroke="#63b8ff" d="M514.4,-629.5C523.94,-629.5 534.21,-629.5 543.86,-629.5"/>
<polygon fill="#63b8ff" stroke="#63b8ff" points="543.71,-633 553.71,-629.5 543.71,-626 543.71,-633"/>
</g>
<!-- Node11 -->
<g id="node11" class="node">
<title>Node11</title>
<g id="a_node11"><a xlink:href="transceiver_8h.html#a1ddd5e8d5bd649dd98ce3710fbff651b" target="_top" xlink:title=" ">
<polygon fill="white" stroke="#666666" points="758.5,-583 697.5,-583 697.5,-564 758.5,-564 758.5,-583"/>
<text text-anchor="middle" x="728" y="-571" font-family="Helvetica,sans-Serif" font-size="10.00">Compress</text>
</a>
</g>
</g>
<!-- Node10&#45;&gt;Node11 -->
<g id="edge10" class="edge">
<title>Node10&#45;&gt;Node11</title>
<path fill="none" stroke="#63b8ff" d="M602.19,-619.6C616.07,-611.44 636.81,-600.03 656,-592.5 665.58,-588.74 676.17,-585.47 686.18,-582.74"/>
<polygon fill="#63b8ff" stroke="#63b8ff" points="686.89,-586.17 695.69,-580.28 685.14,-579.4 686.89,-586.17"/>
</g>
<!-- Node12 -->
<g id="node12" class="node">
<title>Node12</title>
<g id="a_node12"><a xlink:href="transceiver_8h.html#a4144c213e5448a7e02d4172881f08219" target="_top" xlink:title=" ">
<polygon fill="white" stroke="#666666" points="800,-546 656,-546 656,-527 800,-527 800,-546"/>
<text text-anchor="middle" x="728" y="-534" font-family="Helvetica,sans-Serif" font-size="10.00">EncodeTheChangedChannels</text>
</a>
</g>
</g>
<!-- Node10&#45;&gt;Node12 -->
<g id="edge11" class="edge">
<title>Node10&#45;&gt;Node12</title>
<path fill="none" stroke="#63b8ff" d="M592.5,-619.7C603.59,-603.77 627.74,-572.34 656,-555.5 658.97,-553.73 662.11,-552.12 665.35,-550.66"/>
<polygon fill="#63b8ff" stroke="#63b8ff" points="666.52,-553.96 674.54,-547.03 663.95,-547.45 666.52,-553.96"/>
</g>
<!-- Node13 -->
<g id="node13" class="node">
<title>Node13</title>
<g id="a_node13"><a xlink:href="transceiver_8h.html#a5fbd3c8613a4163425c94965704ce5f8" target="_top" xlink:title=" ">
<polygon fill="white" stroke="#666666" points="765,-452 691,-452 691,-433 765,-433 765,-452"/>
<text text-anchor="middle" x="728" y="-440" font-family="Helvetica,sans-Serif" font-size="10.00">FailedPacket</text>
</a>
</g>
</g>
<!-- Node10&#45;&gt;Node13 -->
<g id="edge12" class="edge">
<title>Node10&#45;&gt;Node13</title>
<path fill="none" stroke="#63b8ff" d="M591.41,-619.59C602.45,-599.67 628.87,-553.68 656,-518.5 672.41,-497.23 693.73,-475.01 708.71,-460.13"/>
<polygon fill="#63b8ff" stroke="#63b8ff" points="710.94,-462.84 715.63,-453.34 706.04,-457.84 710.94,-462.84"/>
</g>
<!-- Node49 -->
<g id="node23" class="node">
<title>Node49</title>
<g id="a_node23"><a xlink:href="common_8h.html#a6e2d4126d864c50e7c23c988c2bfdd1a" target="_top" xlink:title=" ">
<polygon fill="white" stroke="#666666" points="1235.5,-920 1188.5,-920 1188.5,-901 1235.5,-901 1235.5,-920"/>
<text text-anchor="middle" x="1212" y="-908" font-family="Helvetica,sans-Serif" font-size="10.00">Radio1</text>
</a>
</g>
</g>
<!-- Node10&#45;&gt;Node49 -->
<g id="edge30" class="edge">
<title>Node10&#45;&gt;Node49</title>
<path fill="none" stroke="#63b8ff" d="M610.62,-639.47C614.26,-641.92 617.59,-644.91 620,-648.5 694.3,-759.3 580.85,-836.27 656,-946.5 707.19,-1021.59 747.88,-1021.27 836,-1043.5 958.82,-1074.49 1009.12,-1102.88 1121,-1043.5 1166,-1019.61 1192.62,-962.06 1204.16,-931.07"/>
<polygon fill="#63b8ff" stroke="#63b8ff" points="1207.44,-932.3 1207.47,-921.71 1200.84,-929.97 1207.44,-932.3"/>
</g>
<!-- Node52 -->
<g id="node25" class="node">
<title>Node52</title>
<g id="a_node25"><a xlink:href="transceiver_8h.html#a07c27b4e208198453c70876517926052" target="_top" xlink:title=" ">
<polygon fill="white" stroke="#666666" points="759,-760 697,-760 697,-741 759,-741 759,-760"/>
<text text-anchor="middle" x="728" y="-748" font-family="Helvetica,sans-Serif" font-size="10.00">FlushFifos</text>
</a>
</g>
</g>
<!-- Node10&#45;&gt;Node52 -->
<g id="edge28" class="edge">
<title>Node10&#45;&gt;Node52</title>
<path fill="none" stroke="#63b8ff" d="M608.19,-639.43C612.43,-641.98 616.61,-645.01 620,-648.5 644.11,-673.31 630.99,-693.61 656,-717.5 664.55,-725.67 675.49,-732.1 686.21,-737.02"/>
<polygon fill="#63b8ff" stroke="#63b8ff" points="684.78,-740.22 695.36,-740.87 687.5,-733.77 684.78,-740.22"/>
</g>
<!-- Node53 -->
<g id="node26" class="node">
<title>Node53</title>
<g id="a_node26"><a xlink:href="transceiver_8h.html#a188ad446d11b2db284476c093de58b2f" target="_top" xlink:title=" ">
<polygon fill="white" stroke="#666666" points="787.5,-937 668.5,-937 668.5,-918 787.5,-918 787.5,-937"/>
<text text-anchor="middle" x="728" y="-925" font-family="Helvetica,sans-Serif" font-size="10.00">SendExtraParamemters</text>
</a>
</g>
</g>
<!-- Node10&#45;&gt;Node53 -->
<g id="edge31" class="edge">
<title>Node10&#45;&gt;Node53</title>
<path fill="none" stroke="#63b8ff" d="M609.43,-639.38C613.38,-641.89 617.13,-644.91 620,-648.5 655.07,-692.3 636.46,-716.91 656,-769.5 674.86,-820.27 702.32,-877.8 716.95,-907.45"/>
<polygon fill="#63b8ff" stroke="#63b8ff" points="713.79,-908.96 721.37,-916.35 720.06,-905.84 713.79,-908.96"/>
</g>
<!-- Node56 -->
<g id="node29" class="node">
<title>Node56</title>
<g id="a_node29"><a xlink:href="BuddyWireless_8h.html#a41c327908c92572d0d3eebbb19160d86" target="_top" xlink:title=" ">
<polygon fill="white" stroke="#666666" points="948,-920 846,-920 846,-901 948,-901 948,-920"/>
<text text-anchor="middle" x="897" y="-908" font-family="Helvetica,sans-Serif" font-size="10.00">SendSpecialPacket</text>
</a>
</g>
</g>
<!-- Node10&#45;&gt;Node56 -->
<g id="edge34" class="edge">
<title>Node10&#45;&gt;Node56</title>
<path fill="none" stroke="#63b8ff" d="M603.99,-639.37C618.04,-646.99 638.12,-657.69 656,-666.5 719.15,-697.63 755.44,-677.99 800,-732.5 844.49,-786.92 790.18,-833.19 836,-886.5 838.8,-889.75 842.1,-892.57 845.69,-895.01"/>
<polygon fill="#63b8ff" stroke="#63b8ff" points="843.97,-898.06 854.41,-899.88 847.39,-891.95 843.97,-898.06"/>
</g>
<!-- Node61 -->
<g id="node34" class="node">
<title>Node61</title>
<g id="a_node34"><a xlink:href="BuddyPPM_8h.html#a784a1eca0361b3991bca899167cc1cdb" target="_top" xlink:title=" ">
<polygon fill="white" stroke="#666666" points="765.5,-657 690.5,-657 690.5,-638 765.5,-638 765.5,-657"/>
<text text-anchor="middle" x="728" y="-645" font-family="Helvetica,sans-Serif" font-size="10.00">SendViaPPM</text>
</a>
</g>
</g>
<!-- Node10&#45;&gt;Node61 -->
<g id="edge44" class="edge">
<title>Node10&#45;&gt;Node61</title>
<path fill="none" stroke="#63b8ff" d="M614.87,-633.19C633.31,-635.54 657.67,-638.65 678.97,-641.37"/>
<polygon fill="#63b8ff" stroke="#63b8ff" points="678.25,-644.8 688.61,-642.6 679.13,-637.86 678.25,-644.8"/>
</g>
<!-- Node62 -->
<g id="node35" class="node">
<title>Node62</title>
<g id="a_node35"><a xlink:href="transceiver_8h.html#a1c11bb6771548de7d96723045b922620" target="_top" xlink:title=" ">
<polygon fill="white" stroke="#666666" points="776,-620 680,-620 680,-601 776,-601 776,-620"/>
<text text-anchor="middle" x="728" y="-608" font-family="Helvetica,sans-Serif" font-size="10.00">SuccessfulPacket</text>
</a>
</g>
</g>
<!-- Node10&#45;&gt;Node62 -->
<g id="edge45" class="edge">
<title>Node10&#45;&gt;Node62</title>
<path fill="none" stroke="#63b8ff" d="M614.87,-625.61C630.29,-623.53 649.83,-620.9 668.28,-618.41"/>
<polygon fill="#63b8ff" stroke="#63b8ff" points="668.63,-621.9 678.07,-617.09 667.69,-614.96 668.63,-621.9"/>
</g>
<!-- Node14 -->
<g id="node14" class="node">
<title>Node14</title>
<g id="a_node14"><a xlink:href="transceiver_8h.html#afc091b5942e21a03f6dc8635d5e519ba" target="_top" xlink:title=" ">
<polygon fill="white" stroke="#666666" points="958,-396 836,-396 836,-377 958,-377 958,-396"/>
<text text-anchor="middle" x="897" y="-384" font-family="Helvetica,sans-Serif" font-size="10.00">RecordsPacketSuccess</text>
</a>
</g>
</g>
<!-- Node13&#45;&gt;Node14 -->
<g id="edge13" class="edge">
<title>Node13&#45;&gt;Node14</title>
<path fill="none" stroke="#63b8ff" d="M757.09,-432.56C778.63,-424.99 809.13,-414.4 836,-405.5 841.56,-403.66 847.43,-401.75 853.22,-399.89"/>
<polygon fill="#63b8ff" stroke="#63b8ff" points="854.28,-403.23 862.75,-396.86 852.16,-396.56 854.28,-403.23"/>
</g>
<!-- Node15 -->
<g id="node15" class="node">
<title>Node15</title>
<g id="a_node15"><a xlink:href="TransmitterCode_2src_2main_8cpp.html#a7d34cec6e8edc20c8b50424e15dcc7c7" target="_top" xlink:title=" ">
<polygon fill="white" stroke="#666666" points="928.5,-245 865.5,-245 865.5,-226 928.5,-226 928.5,-245"/>
<text text-anchor="middle" x="897" y="-233" font-family="Helvetica,sans-Serif" font-size="10.00">RedLedOn</text>
</a>
</g>
</g>
<!-- Node13&#45;&gt;Node15 -->
<g id="edge14" class="edge">
<title>Node13&#45;&gt;Node15</title>
<path fill="none" stroke="#63b8ff" d="M737.05,-432.52C763.29,-400 846.56,-296.79 880.93,-254.18"/>
<polygon fill="#63b8ff" stroke="#63b8ff" points="883.52,-256.54 887.08,-246.56 878.07,-252.15 883.52,-256.54"/>
</g>
<!-- Node45 -->
<g id="node21" class="node">
<title>Node45</title>
<g id="a_node21"><a xlink:href="transceiver_8h.html#ad0236abcfc887ad708d9504c4ab2a7c3" target="_top" xlink:title=" ">
<polygon fill="white" stroke="#666666" points="941,-546 853,-546 853,-527 941,-527 941,-546"/>
<text text-anchor="middle" x="897" y="-534" font-family="Helvetica,sans-Serif" font-size="10.00">TryToReconnect</text>
</a>
</g>
</g>
<!-- Node13&#45;&gt;Node45 -->
<g id="edge24" class="edge">
<title>Node13&#45;&gt;Node45</title>
<path fill="none" stroke="#63b8ff" d="M746.56,-452.38C775.62,-468.74 833.96,-501.58 868.52,-521.03"/>
<polygon fill="#63b8ff" stroke="#63b8ff" points="866.68,-524.01 877.11,-525.87 870.11,-517.91 866.68,-524.01"/>
</g>
<!-- Node15&#45;&gt;Node7 -->
<g id="edge20" class="edge">
<title>Node15&#45;&gt;Node7</title>
<path fill="none" stroke="#63b8ff" d="M865.12,-240.03C790.39,-251.44 594.41,-284.1 437,-334.5 421.46,-339.48 404.75,-346.48 390.93,-352.75"/>
<polygon fill="#63b8ff" stroke="#63b8ff" points="389.51,-349.55 381.92,-356.94 392.46,-355.9 389.51,-349.55"/>
</g>
<!-- Node16 -->
<g id="node16" class="node">
<title>Node16</title>
<g id="a_node16"><a xlink:href="TransmitterCode_2src_2main_8cpp.html#afeaea883a32e6ebe461d419fab1b9f59" target="_top" xlink:title=" ">
<polygon fill="white" stroke="#666666" points="1113,-208 1002,-208 1002,-189 1113,-189 1113,-208"/>
<text text-anchor="middle" x="1057.5" y="-196" font-family="Helvetica,sans-Serif" font-size="10.00">ClearMostParameters</text>
</a>
</g>
</g>
<!-- Node15&#45;&gt;Node16 -->
<g id="edge15" class="edge">
<title>Node15&#45;&gt;Node16</title>
<path fill="none" stroke="#63b8ff" d="M928.94,-228.28C949.95,-223.37 978.3,-216.76 1002.93,-211"/>
<polygon fill="#63b8ff" stroke="#63b8ff" points="1003.53,-214.46 1012.48,-208.78 1001.94,-207.64 1003.53,-214.46"/>
</g>
<!-- Node17 -->
<g id="node17" class="node">
<title>Node17</title>
<g id="a_node17"><a xlink:href="Utilities_8h.html#a549a702bb9b539c6b3a4f20cce65adcc" target="_top" xlink:title=" ">
<polygon fill="#fff0f0" stroke="red" points="1106.5,-245 1008.5,-245 1008.5,-226 1106.5,-226 1106.5,-245"/>
<text text-anchor="middle" x="1057.5" y="-233" font-family="Helvetica,sans-Serif" font-size="10.00">GetLEDBrightness</text>
</a>
</g>
</g>
<!-- Node15&#45;&gt;Node17 -->
<g id="edge16" class="edge">
<title>Node15&#45;&gt;Node17</title>
<path fill="none" stroke="#63b8ff" d="M928.94,-235.5C948.2,-235.5 973.63,-235.5 996.71,-235.5"/>
<polygon fill="#63b8ff" stroke="#63b8ff" points="996.66,-239 1006.66,-235.5 996.66,-232 996.66,-239"/>
</g>
<!-- Node27 -->
<g id="node18" class="node">
<title>Node27</title>
<g id="a_node18"><a xlink:href="TransmitterCode_2src_2main_8cpp.html#a2d5ec5fd5ed62d5b7b071fabe2225405" target="_top" xlink:title=" ">
<polygon fill="#fff0f0" stroke="red" points="1105.5,-171 1009.5,-171 1009.5,-152 1105.5,-152 1105.5,-171"/>
<text text-anchor="middle" x="1057.5" y="-159" font-family="Helvetica,sans-Serif" font-size="10.00">LogDisConnection</text>
</a>
</g>
</g>
<!-- Node15&#45;&gt;Node27 -->
<g id="edge17" class="edge">
<title>Node15&#45;&gt;Node27</title>
<path fill="none" stroke="#63b8ff" d="M912.37,-225.59C930.64,-213.35 963.49,-192.55 994,-179.5 997.75,-177.9 1001.69,-176.39 1005.68,-174.98"/>
<polygon fill="#63b8ff" stroke="#63b8ff" points="1006.47,-178.4 1014.87,-171.95 1004.28,-171.75 1006.47,-178.4"/>
</g>
<!-- Node43 -->
<g id="node19" class="node">
<title>Node43</title>
<g id="a_node19"><a xlink:href="Utilities_8h.html#aa490b4664b0a4498d53b30b82287d5df" target="_top" xlink:title=" ">
<polygon fill="#fff0f0" stroke="red" points="1243.5,-208 1180.5,-208 1180.5,-189 1243.5,-189 1243.5,-208"/>
<text text-anchor="middle" x="1212" y="-196" font-family="Helvetica,sans-Serif" font-size="10.00">PlaySound</text>
</a>
</g>
</g>
<!-- Node15&#45;&gt;Node43 -->
<g id="edge18" class="edge">
<title>Node15&#45;&gt;Node43</title>
<path fill="none" stroke="#63b8ff" d="M904.2,-225.69C917.62,-205.48 951.63,-159.66 994,-142.5 1046.32,-121.31 1066.73,-126.99 1121,-142.5 1147.58,-150.09 1173.95,-168.05 1191.2,-181.6"/>
<polygon fill="#63b8ff" stroke="#63b8ff" points="1188.65,-184.04 1198.62,-187.62 1193.07,-178.6 1188.65,-184.04"/>
</g>
<!-- Node44 -->
<g id="node20" class="node">
<title>Node44</title>
<g id="a_node20"><a xlink:href="Nextion_8h.html#afe513398f72d5e48f691830a1ef6eb42" target="_top" xlink:title=" ">
<polygon fill="white" stroke="#666666" points="1241,-769 1183,-769 1183,-750 1241,-750 1241,-769"/>
<text text-anchor="middle" x="1212" y="-757" font-family="Helvetica,sans-Serif" font-size="10.00">SendText</text>
</a>
</g>
</g>
<!-- Node15&#45;&gt;Node44 -->
<g id="edge21" class="edge">
<title>Node15&#45;&gt;Node44</title>
<path fill="none" stroke="#63b8ff" d="M928.79,-244.51C984.19,-261.38 1097.13,-298.96 1121,-331.5 1167.76,-395.26 1128.71,-611.66 1157,-685.5 1165.12,-706.7 1180.97,-727.26 1193.41,-741.31"/>
<polygon fill="#63b8ff" stroke="#63b8ff" points="1190.61,-743.43 1199.95,-748.43 1195.76,-738.69 1190.61,-743.43"/>
</g>
<!-- Node43&#45;&gt;Node7 -->
<g id="edge19" class="edge">
<title>Node43&#45;&gt;Node7</title>
<path fill="none" stroke="#63b8ff" d="M1202.12,-188.61C1187.12,-172.56 1155.02,-141.08 1121,-125.5 1029.45,-83.57 998.69,-85.5 898,-85.5 584,-85.5 584,-85.5 584,-85.5 450.49,-85.5 384.12,-282.05 365.85,-346.97"/>
<polygon fill="#63b8ff" stroke="#63b8ff" points="362.55,-345.76 363.31,-356.33 369.3,-347.6 362.55,-345.76"/>
</g>
<!-- Node44&#45;&gt;Node6 -->
<g id="edge22" class="edge">
<title>Node44&#45;&gt;Node6</title>
<path fill="none" stroke="#63b8ff" d="M1241.32,-759.5C1256.01,-759.5 1274.44,-759.5 1291.58,-759.5"/>
<polygon fill="#63b8ff" stroke="#63b8ff" points="1291.09,-763 1301.09,-759.5 1291.09,-756 1291.09,-763"/>
</g>
<!-- Node44&#45;&gt;Node7 -->
<g id="edge23" class="edge">
<title>Node44&#45;&gt;Node7</title>
<path fill="none" stroke="#63b8ff" d="M1197.98,-769.28C1185.32,-779.56 1166.64,-796.94 1157,-816.5 1111.85,-908.13 1189.8,-967.99 1121,-1043.5 1052.1,-1119.12 1000.3,-1100.5 898,-1100.5 584,-1100.5 584,-1100.5 584,-1100.5 430.93,-1100.5 372.46,-508.24 362.2,-388.47"/>
<polygon fill="#63b8ff" stroke="#63b8ff" points="365.71,-388.49 361.39,-378.82 358.74,-389.07 365.71,-388.49"/>
</g>
<!-- Node46 -->
<g id="node22" class="node">
<title>Node46</title>
<g id="a_node22"><a xlink:href="transceiver_8h.html#a52aa3e80bccf5e75346c93fdae63122d" target="_top" xlink:title=" ">
<polygon fill="#fff0f0" stroke="red" points="1108,-620 1007,-620 1007,-601 1108,-601 1108,-620"/>
<text text-anchor="middle" x="1057.5" y="-608" font-family="Helvetica,sans-Serif" font-size="10.00">HopToNextChannel</text>
</a>
</g>
</g>
<!-- Node45&#45;&gt;Node46 -->
<g id="edge25" class="edge">
<title>Node45&#45;&gt;Node46</title>
<path fill="none" stroke="#63b8ff" d="M938.9,-546.45C945.53,-548.9 952.14,-551.89 958,-555.5 977.53,-567.55 974.32,-580.71 994,-592.5 996.16,-593.8 998.43,-595 1000.75,-596.13"/>
<polygon fill="#63b8ff" stroke="#63b8ff" points="999.3,-599.31 1009.87,-599.95 1002,-592.86 999.3,-599.31"/>
</g>
<!-- Node50 -->
<g id="node24" class="node">
<title>Node50</title>
<g id="a_node24"><a xlink:href="transceiver_8h.html#ad0e30213b21808d00110752679788a8c" target="_top" xlink:title=" ">
<polygon fill="#fff0f0" stroke="red" points="1094.5,-546 1020.5,-546 1020.5,-527 1094.5,-527 1094.5,-546"/>
<text text-anchor="middle" x="1057.5" y="-534" font-family="Helvetica,sans-Serif" font-size="10.00">TryOtherPipe</text>
</a>
</g>
</g>
<!-- Node45&#45;&gt;Node50 -->
<g id="edge27" class="edge">
<title>Node45&#45;&gt;Node50</title>
<path fill="none" stroke="#63b8ff" d="M941.31,-536.5C962.19,-536.5 987.3,-536.5 1008.73,-536.5"/>
<polygon fill="#63b8ff" stroke="#63b8ff" points="1008.7,-540 1018.7,-536.5 1008.7,-533 1008.7,-540"/>
</g>
<!-- Node46&#45;&gt;Node49 -->
<g id="edge26" class="edge">
<title>Node46&#45;&gt;Node49</title>
<path fill="none" stroke="#63b8ff" d="M1108.45,-619.78C1113.17,-622.3 1117.5,-625.48 1121,-629.5 1187.3,-705.47 1112.34,-763.1 1157,-853.5 1164.62,-868.93 1177.86,-883 1189.32,-893.31"/>
<polygon fill="#63b8ff" stroke="#63b8ff" points="1186.96,-895.9 1196.84,-899.73 1191.51,-890.57 1186.96,-895.9"/>
</g>
<!-- Node52&#45;&gt;Node49 -->
<g id="edge29" class="edge">
<title>Node52&#45;&gt;Node49</title>
<path fill="none" stroke="#63b8ff" d="M731.53,-760.45C740.07,-791.68 770.93,-888.11 836,-929.5 943.05,-997.58 996.31,-968.89 1121,-945.5 1142.01,-941.56 1164.43,-932.86 1181.63,-925.12"/>
<polygon fill="#63b8ff" stroke="#63b8ff" points="1182.65,-928.51 1190.24,-921.11 1179.69,-922.16 1182.65,-928.51"/>
</g>
<!-- Node54 -->
<g id="node27" class="node">
<title>Node54</title>
<g id="a_node27"><a xlink:href="transceiver_8h.html#adac102739147db6397bbcbb371aec4fd" target="_top" xlink:title=" ">
<polygon fill="white" stroke="#666666" points="941.5,-1034 852.5,-1034 852.5,-1015 941.5,-1015 941.5,-1034"/>
<text text-anchor="middle" x="897" y="-1022" font-family="Helvetica,sans-Serif" font-size="10.00">LoadParameters</text>
</a>
</g>
</g>
<!-- Node53&#45;&gt;Node54 -->
<g id="edge32" class="edge">
<title>Node53&#45;&gt;Node54</title>
<path fill="none" stroke="#63b8ff" d="M741.6,-937.45C761.04,-952.48 799.88,-981.25 836,-1000.5 842.65,-1004.04 849.95,-1007.38 857.09,-1010.38"/>
<polygon fill="#63b8ff" stroke="#63b8ff" points="855.36,-1013.45 865.94,-1013.94 857.97,-1006.96 855.36,-1013.45"/>
</g>
<!-- Node55 -->
<g id="node28" class="node">
<title>Node55</title>
<g id="a_node28"><a xlink:href="TransmitterCode_2src_2main_8cpp.html#a5aa4888b924a4f1d95e9cedc3004f2b6" target="_top" xlink:title=" ">
<polygon fill="white" stroke="#666666" points="1099,-1034 1016,-1034 1016,-1015 1099,-1015 1099,-1034"/>
<text text-anchor="middle" x="1057.5" y="-1022" font-family="Helvetica,sans-Serif" font-size="10.00">MakeTwobytes</text>
</a>
</g>
</g>
<!-- Node54&#45;&gt;Node55 -->
<g id="edge33" class="edge">
<title>Node54&#45;&gt;Node55</title>
<path fill="none" stroke="#63b8ff" d="M941.73,-1024.5C961.12,-1024.5 984.09,-1024.5 1004.37,-1024.5"/>
<polygon fill="#63b8ff" stroke="#63b8ff" points="1004.12,-1028 1014.12,-1024.5 1004.12,-1021 1004.12,-1028"/>
</g>
<!-- Node56&#45;&gt;Node49 -->
<g id="edge43" class="edge">
<title>Node56&#45;&gt;Node49</title>
<path fill="none" stroke="#63b8ff" d="M938.85,-920.41C955.8,-924.05 975.74,-927.71 994,-929.5 1050.18,-935.01 1064.86,-935.36 1121,-929.5 1139.84,-927.53 1160.55,-923.31 1177.34,-919.34"/>
<polygon fill="#63b8ff" stroke="#63b8ff" points="1177.92,-922.8 1186.8,-917.03 1176.26,-916 1177.92,-922.8"/>
</g>
<!-- Node57 -->
<g id="node30" class="node">
<title>Node57</title>
<g id="a_node30"><a xlink:href="BuddyWireless_8h.html#ace84aff90c63bee9a876eda720fbf8bc" target="_top" xlink:title=" ">
<polygon fill="white" stroke="#666666" points="1102.5,-920 1012.5,-920 1012.5,-901 1102.5,-901 1102.5,-920"/>
<text text-anchor="middle" x="1057.5" y="-908" font-family="Helvetica,sans-Serif" font-size="10.00">ChangeTXTarget</text>
</a>
</g>
</g>
<!-- Node56&#45;&gt;Node57 -->
<g id="edge35" class="edge">
<title>Node56&#45;&gt;Node57</title>
<path fill="none" stroke="#63b8ff" d="M948.15,-910.5C964.96,-910.5 983.81,-910.5 1001.01,-910.5"/>
<polygon fill="#63b8ff" stroke="#63b8ff" points="1000.52,-914 1010.52,-910.5 1000.52,-907 1000.52,-914"/>
</g>
<!-- Node58 -->
<g id="node31" class="node">
<title>Node58</title>
<g id="a_node31"><a xlink:href="BuddyWireless_8h.html#af59c2527be7a67d6b09dd467f3123d55" target="_top" xlink:title=" ">
<polygon fill="white" stroke="#666666" points="1093,-844 1022,-844 1022,-825 1093,-825 1093,-844"/>
<text text-anchor="middle" x="1057.5" y="-832" font-family="Helvetica,sans-Serif" font-size="10.00">GetPupilAck</text>
</a>
</g>
</g>
<!-- Node56&#45;&gt;Node58 -->
<g id="edge37" class="edge">
<title>Node56&#45;&gt;Node58</title>
<path fill="none" stroke="#63b8ff" d="M918.72,-900.56C946.01,-887.48 994.23,-864.36 1025.77,-849.23"/>
<polygon fill="#63b8ff" stroke="#63b8ff" points="1026.91,-852.57 1034.41,-845.09 1023.88,-846.26 1026.91,-852.57"/>
</g>
<!-- Node60 -->
<g id="node33" class="node">
<title>Node60</title>
<g id="a_node33"><a xlink:href="BuddyWireless_8h.html#a89fc05df708fec875356b62d21b2ce7b" target="_top" xlink:title=" ">
<polygon fill="white" stroke="#666666" points="1096,-807 1019,-807 1019,-788 1096,-788 1096,-807"/>
<text text-anchor="middle" x="1057.5" y="-795" font-family="Helvetica,sans-Serif" font-size="10.00">PupilDetected</text>
</a>
</g>
</g>
<!-- Node56&#45;&gt;Node60 -->
<g id="edge40" class="edge">
<title>Node56&#45;&gt;Node60</title>
<path fill="none" stroke="#63b8ff" d="M905.31,-900.69C920.01,-881.66 955.07,-839.57 994,-816.5 998.34,-813.93 1003.07,-811.67 1007.9,-809.71"/>
<polygon fill="#63b8ff" stroke="#63b8ff" points="1008.94,-813.05 1017.16,-806.36 1006.56,-806.47 1008.94,-813.05"/>
</g>
<!-- Node57&#45;&gt;Node49 -->
<g id="edge36" class="edge">
<title>Node57&#45;&gt;Node49</title>
<path fill="none" stroke="#63b8ff" d="M1102.61,-910.5C1126.21,-910.5 1154.84,-910.5 1176.75,-910.5"/>
<polygon fill="#63b8ff" stroke="#63b8ff" points="1176.64,-914 1186.64,-910.5 1176.64,-907 1176.64,-914"/>
</g>
<!-- Node58&#45;&gt;Node49 -->
<g id="edge39" class="edge">
<title>Node58&#45;&gt;Node49</title>
<path fill="none" stroke="#63b8ff" d="M1087.21,-844.45C1097.97,-848.45 1110.2,-853.34 1121,-858.5 1143.6,-869.29 1168.14,-883.66 1185.88,-894.56"/>
<polygon fill="#63b8ff" stroke="#63b8ff" points="1183.85,-897.42 1194.19,-899.72 1187.54,-891.47 1183.85,-897.42"/>
</g>
<!-- Node59 -->
<g id="node32" class="node">
<title>Node59</title>
<g id="a_node32"><a xlink:href="transceiver_8h.html#a6feccc8c0583de3235616d42076f1371" target="_top" xlink:title=" ">
<polygon fill="white" stroke="#666666" points="1247.5,-844 1176.5,-844 1176.5,-825 1247.5,-825 1247.5,-844"/>
<text text-anchor="middle" x="1212" y="-832" font-family="Helvetica,sans-Serif" font-size="10.00">Decompress</text>
</a>
</g>
</g>
<!-- Node58&#45;&gt;Node59 -->
<g id="edge38" class="edge">
<title>Node58&#45;&gt;Node59</title>
<path fill="none" stroke="#63b8ff" d="M1093.49,-834.5C1114.7,-834.5 1142.01,-834.5 1164.97,-834.5"/>
<polygon fill="#63b8ff" stroke="#63b8ff" points="1164.66,-838 1174.66,-834.5 1164.66,-831 1164.66,-838"/>
</g>
<!-- Node60&#45;&gt;Node7 -->
<g id="edge41" class="edge">
<title>Node60&#45;&gt;Node7</title>
<path fill="none" stroke="#63b8ff" d="M1018.68,-796.55C957.71,-795.1 833.91,-792.5 729,-792.5 584,-792.5 584,-792.5 584,-792.5 399.24,-792.5 366.87,-473.98 361.51,-388.43"/>
<polygon fill="#63b8ff" stroke="#63b8ff" points="365.02,-388.48 360.97,-378.69 358.03,-388.87 365.02,-388.48"/>
</g>
<!-- Node60&#45;&gt;Node44 -->
<g id="edge42" class="edge">
<title>Node60&#45;&gt;Node44</title>
<path fill="none" stroke="#63b8ff" d="M1096.2,-788.11C1119.24,-782.36 1148.66,-775.03 1171.94,-769.23"/>
<polygon fill="#63b8ff" stroke="#63b8ff" points="1172.5,-772.7 1181.36,-766.89 1170.81,-765.91 1172.5,-772.7"/>
</g>
<!-- Node62&#45;&gt;Node14 -->
<g id="edge69" class="edge">
<title>Node62&#45;&gt;Node14</title>
<path fill="none" stroke="#63b8ff" d="M776.21,-606.41C785.12,-603.62 793.63,-599.25 800,-592.5 858.08,-530.94 779.74,-468.73 836,-405.5 836.71,-404.7 837.46,-403.93 838.24,-403.19"/>
<polygon fill="#63b8ff" stroke="#63b8ff" points="840.28,-406.03 846.34,-397.34 836.19,-400.36 840.28,-406.03"/>
</g>
<!-- Node62&#45;&gt;Node49 -->
<g id="edge68" class="edge">
<title>Node62&#45;&gt;Node49</title>
<path fill="none" stroke="#63b8ff" d="M776.29,-617.91C784.7,-620.65 792.99,-624.38 800,-629.5 823.9,-646.94 817.79,-662.18 836,-685.5 899.09,-766.28 905.9,-801.11 994,-853.5 1024.89,-871.87 1124.01,-893.38 1176.94,-903.95"/>
<polygon fill="#63b8ff" stroke="#63b8ff" points="1176.13,-907.36 1186.62,-905.86 1177.49,-900.49 1176.13,-907.36"/>
</g>
<!-- Node63 -->
<g id="node36" class="node">
<title>Node63</title>
<g id="a_node36"><a xlink:href="transceiver_8h.html#a953f1d5046e183549ed95b08f6d675e3" target="_top" xlink:title=" ">
<polygon fill="white" stroke="#666666" points="946,-583 848,-583 848,-564 946,-564 946,-583"/>
<text text-anchor="middle" x="897" y="-571" font-family="Helvetica,sans-Serif" font-size="10.00">CheckGapsLength</text>
</a>
</g>
</g>
<!-- Node62&#45;&gt;Node63 -->
<g id="edge46" class="edge">
<title>Node62&#45;&gt;Node63</title>
<path fill="none" stroke="#63b8ff" d="M773.75,-600.58C794.16,-596.06 818.53,-590.66 840.12,-585.88"/>
<polygon fill="#63b8ff" stroke="#63b8ff" points="840.64,-589.35 849.65,-583.77 839.13,-582.52 840.64,-589.35"/>
</g>
<!-- Node65 -->
<g id="node38" class="node">
<title>Node65</title>
<g id="a_node38"><a xlink:href="TransmitterCode_2src_2main_8cpp.html#a62e53eb9359c32b666e3386d62c57037" target="_top" xlink:title=" ">
<polygon fill="white" stroke="#666666" points="933,-433 861,-433 861,-414 933,-414 933,-433"/>
<text text-anchor="middle" x="897" y="-421" font-family="Helvetica,sans-Serif" font-size="10.00">GreenLedOn</text>
</a>
</g>
</g>
<!-- Node62&#45;&gt;Node65 -->
<g id="edge48" class="edge">
<title>Node62&#45;&gt;Node65</title>
<path fill="none" stroke="#63b8ff" d="M776.28,-605.51C784.98,-602.77 793.39,-598.65 800,-592.5 837.07,-558.06 809.58,-527.65 836,-484.5 846.24,-467.78 861.86,-452.09 874.6,-440.81"/>
<polygon fill="#63b8ff" stroke="#63b8ff" points="876.77,-443.56 882.1,-434.41 872.22,-438.24 876.77,-443.56"/>
</g>
<!-- Node76 -->
<g id="node42" class="node">
<title>Node76</title>
<g id="a_node42"><a xlink:href="Utilities_8h.html#a793b7bcd77531c95fe72ed4356d421c8" target="_top" xlink:title=" ">
<polygon fill="white" stroke="#666666" points="1267,-434 1157,-434 1157,-415 1267,-415 1267,-434"/>
<text text-anchor="middle" x="1212" y="-422" font-family="Helvetica,sans-Serif" font-size="10.00">StartInactvityTimeout</text>
</a>
</g>
</g>
<!-- Node62&#45;&gt;Node76 -->
<g id="edge70" class="edge">
<title>Node62&#45;&gt;Node76</title>
<path fill="none" stroke="#63b8ff" d="M776.41,-604.58C784.9,-601.9 793.19,-598.04 800,-592.5 828.37,-569.41 806.38,-539.96 836,-518.5 939.53,-443.49 1000.57,-522.41 1121,-479.5 1146.47,-470.43 1172.5,-453.52 1189.97,-440.84"/>
<polygon fill="#63b8ff" stroke="#63b8ff" points="1191.6,-443.99 1197.52,-435.21 1187.41,-438.38 1191.6,-443.99"/>
</g>
<!-- Node78 -->
<g id="node44" class="node">
<title>Node78</title>
<g id="a_node44"><a xlink:href="transceiver_8h.html#a694f4f5a0147f4dc29b0bc1a8951547d" target="_top" xlink:title=" ">
<polygon fill="#fff0f0" stroke="red" points="944,-676 850,-676 850,-657 944,-657 944,-676"/>
<text text-anchor="middle" x="897" y="-664" font-family="Helvetica,sans-Serif" font-size="10.00">ParseAckPayload</text>
</a>
</g>
</g>
<!-- Node62&#45;&gt;Node78 -->
<g id="edge59" class="edge">
<title>Node62&#45;&gt;Node78</title>
<path fill="none" stroke="#63b8ff" d="M769.02,-620.41C779.19,-623.15 790.05,-626.26 800,-629.5 820.68,-636.23 843.4,-644.93 861.54,-652.2"/>
<polygon fill="#63b8ff" stroke="#63b8ff" points="860.2,-655.43 870.79,-655.94 862.83,-648.94 860.2,-655.43"/>
</g>
<!-- Node223 -->
<g id="node49" class="node">
<title>Node223</title>
<g id="a_node49"><a xlink:href="transceiver_8h.html#a04937e814dba3f5e07cb34bb13130ff3" target="_top" xlink:title=" ">
<polygon fill="white" stroke="#666666" points="955.5,-620 838.5,-620 838.5,-601 955.5,-601 955.5,-620"/>
<text text-anchor="middle" x="897" y="-608" font-family="Helvetica,sans-Serif" font-size="10.00">ParseShortAckPayload</text>
</a>
</g>
</g>
<!-- Node62&#45;&gt;Node223 -->
<g id="edge66" class="edge">
<title>Node62&#45;&gt;Node223</title>
<path fill="none" stroke="#63b8ff" d="M776.41,-610.5C792.15,-610.5 810.01,-610.5 827.04,-610.5"/>
<polygon fill="#63b8ff" stroke="#63b8ff" points="826.56,-614 836.56,-610.5 826.56,-607 826.56,-614"/>
</g>
<!-- Node64 -->
<g id="node37" class="node">
<title>Node64</title>
<g id="a_node37"><a xlink:href="TransmitterCode_2src_2main_8cpp.html#a1fadc7cdd854f8b3628b622da5417d8b" target="_top" xlink:title=" ">
<polygon fill="#fff0f0" stroke="red" points="1092.5,-583 1022.5,-583 1022.5,-564 1092.5,-564 1092.5,-583"/>
<text text-anchor="middle" x="1057.5" y="-571" font-family="Helvetica,sans-Serif" font-size="10.00">LogThisGap</text>
</a>
</g>
</g>
<!-- Node63&#45;&gt;Node64 -->
<g id="edge47" class="edge">
<title>Node63&#45;&gt;Node64</title>
<path fill="none" stroke="#63b8ff" d="M946.42,-573.5C966.96,-573.5 990.79,-573.5 1011.01,-573.5"/>
<polygon fill="#63b8ff" stroke="#63b8ff" points="1010.93,-577 1020.93,-573.5 1010.93,-570 1010.93,-577"/>
</g>
<!-- Node65&#45;&gt;Node17 -->
<g id="edge50" class="edge">
<title>Node65&#45;&gt;Node17</title>
<path fill="none" stroke="#63b8ff" d="M933.39,-419.29C942.46,-416.63 951.48,-412.35 958,-405.5 1004.07,-357.08 949.78,-309.61 994,-259.5 996.94,-256.16 1000.4,-253.29 1004.16,-250.81"/>
<polygon fill="#63b8ff" stroke="#63b8ff" points="1005.57,-254.03 1012.66,-246.16 1002.21,-247.89 1005.57,-254.03"/>
</g>
<!-- Node65&#45;&gt;Node43 -->
<g id="edge52" class="edge">
<title>Node65&#45;&gt;Node43</title>
<path fill="none" stroke="#63b8ff" d="M933.44,-418.06C942.19,-415.39 951.04,-411.42 958,-405.5 985.86,-381.81 969.42,-358.59 994,-331.5 994.47,-330.99 1127.89,-249.34 1185.26,-214.24"/>
<polygon fill="#63b8ff" stroke="#63b8ff" points="1186.74,-217.44 1193.44,-209.24 1183.08,-211.47 1186.74,-217.44"/>
</g>
<!-- Node66 -->
<g id="node39" class="node">
<title>Node66</title>
<g id="a_node39"><a xlink:href="Utilities_8h.html#a82b1900a80d1622896601c57d6edaeda" target="_top" xlink:title=" ">
<polygon fill="white" stroke="#666666" points="1106.5,-433 1008.5,-433 1008.5,-414 1106.5,-414 1106.5,-433"/>
<text text-anchor="middle" x="1057.5" y="-421" font-family="Helvetica,sans-Serif" font-size="10.00">ClearSuccessRate</text>
</a>
</g>
</g>
<!-- Node65&#45;&gt;Node66 -->
<g id="edge49" class="edge">
<title>Node65&#45;&gt;Node66</title>
<path fill="none" stroke="#63b8ff" d="M933.18,-423.5C951.88,-423.5 975.4,-423.5 996.86,-423.5"/>
<polygon fill="#63b8ff" stroke="#63b8ff" points="996.68,-427 1006.68,-423.5 996.68,-420 996.68,-427"/>
</g>
<!-- Node67 -->
<g id="node40" class="node">
<title>Node67</title>
<g id="a_node40"><a xlink:href="TransmitterCode_2src_2main_8cpp.html#aaa3e86084c43b049d52d7d62c58a00b9" target="_top" xlink:title=" ">
<polygon fill="#fff0f0" stroke="red" points="1098.5,-396 1016.5,-396 1016.5,-377 1098.5,-377 1098.5,-396"/>
<text text-anchor="middle" x="1057.5" y="-384" font-family="Helvetica,sans-Serif" font-size="10.00">LogConnection</text>
</a>
</g>
</g>
<!-- Node65&#45;&gt;Node67 -->
<g id="edge51" class="edge">
<title>Node65&#45;&gt;Node67</title>
<path fill="none" stroke="#63b8ff" d="M933.18,-415.29C954.26,-410.37 981.45,-404.02 1004.92,-398.54"/>
<polygon fill="#63b8ff" stroke="#63b8ff" points="1005.69,-401.95 1014.64,-396.27 1004.1,-395.14 1005.69,-401.95"/>
</g>
<!-- Node69 -->
<g id="node41" class="node">
<title>Node69</title>
<g id="a_node41"><a xlink:href="TransmitterCode_2src_2main_8cpp.html#a5d3a46c21927cf7a3031a1e68e0b7b48" target="_top" xlink:title="SHOW COMMS.">
<polygon fill="#fff0f0" stroke="red" points="1095,-359 1020,-359 1020,-340 1095,-340 1095,-359"/>
<text text-anchor="middle" x="1057.5" y="-347" font-family="Helvetica,sans-Serif" font-size="10.00">ShowComms</text>
</a>
</g>
</g>
<!-- Node65&#45;&gt;Node69 -->
<g id="edge53" class="edge">
<title>Node65&#45;&gt;Node69</title>
<path fill="none" stroke="#63b8ff" d="M933.22,-416.17C941.7,-413.55 950.47,-410.07 958,-405.5 977.62,-393.6 974.41,-380.44 994,-368.5 998.66,-365.66 1003.77,-363.22 1009.01,-361.13"/>
<polygon fill="#63b8ff" stroke="#63b8ff" points="1010.13,-364.44 1018.38,-357.8 1007.79,-357.84 1010.13,-364.44"/>
</g>
<!-- Node77 -->
<g id="node43" class="node">
<title>Node77</title>
<g id="a_node43"><a xlink:href="TransmitterCode_2src_2main_8cpp.html#a6da9a1fd0b003151f79eabc702ba80ff" target="_top" xlink:title=" ">
<polygon fill="white" stroke="#666666" points="1101,-470 1014,-470 1014,-451 1101,-451 1101,-470"/>
<text text-anchor="middle" x="1057.5" y="-458" font-family="Helvetica,sans-Serif" font-size="10.00">ZeroDataScreen</text>
</a>
</g>
</g>
<!-- Node65&#45;&gt;Node77 -->
<g id="edge58" class="edge">
<title>Node65&#45;&gt;Node77</title>
<path fill="none" stroke="#63b8ff" d="M933.18,-431.71C953.63,-436.49 979.83,-442.6 1002.82,-447.97"/>
<polygon fill="#63b8ff" stroke="#63b8ff" points="1001.8,-451.32 1012.33,-450.19 1003.39,-444.51 1001.8,-451.32"/>
</g>
<!-- Node69&#45;&gt;Node7 -->
<g id="edge55" class="edge">
<title>Node69&#45;&gt;Node7</title>
<path fill="none" stroke="#63b8ff" d="M1019.66,-349.31C959.05,-349.03 834.47,-348.5 729,-348.5 584,-348.5 584,-348.5 584,-348.5 525.07,-348.5 457.71,-355.14 412.48,-360.57"/>
<polygon fill="#63b8ff" stroke="#63b8ff" points="412.2,-357.08 402.7,-361.77 413.05,-364.02 412.2,-357.08"/>
</g>
<!-- Node69&#45;&gt;Node43 -->
<g id="edge54" class="edge">
<title>Node69&#45;&gt;Node43</title>
<path fill="none" stroke="#63b8ff" d="M1068.51,-339.59C1093.82,-314.52 1160.71,-248.3 1193.02,-216.3"/>
<polygon fill="#63b8ff" stroke="#63b8ff" points="1195.44,-218.84 1200.08,-209.31 1190.51,-213.86 1195.44,-218.84"/>
</g>
<!-- Node69&#45;&gt;Node44 -->
<g id="edge56" class="edge">
<title>Node69&#45;&gt;Node44</title>
<path fill="none" stroke="#63b8ff" d="M1095.34,-353.31C1105.02,-356.08 1114.54,-360.74 1121,-368.5 1166.37,-422.98 1131.25,-619.45 1157,-685.5 1165.25,-706.65 1181.08,-727.22 1193.48,-741.28"/>
<polygon fill="#63b8ff" stroke="#63b8ff" points="1190.67,-743.39 1200,-748.41 1195.83,-738.66 1190.67,-743.39"/>
</g>
<!-- Node69&#45;&gt;Node76 -->
<g id="edge57" class="edge">
<title>Node69&#45;&gt;Node76</title>
<path fill="none" stroke="#63b8ff" d="M1095.45,-358.98C1104,-361.65 1112.94,-364.85 1121,-368.5 1145.32,-379.53 1170.99,-396.05 1188.66,-408.29"/>
<polygon fill="#63b8ff" stroke="#63b8ff" points="1186.17,-410.82 1196.36,-413.72 1190.21,-405.1 1186.17,-410.82"/>
</g>
<!-- Node78&#45;&gt;Node46 -->
<g id="edge65" class="edge">
<title>Node78&#45;&gt;Node46</title>
<path fill="none" stroke="#63b8ff" d="M922.28,-656.58C941.58,-648.83 969.34,-637.99 994,-629.5 999.7,-627.54 1005.72,-625.57 1011.69,-623.69"/>
<polygon fill="#63b8ff" stroke="#63b8ff" points="1012.33,-627.16 1020.85,-620.86 1010.26,-620.47 1012.33,-627.16"/>
</g>
<!-- Node79 -->
<g id="node45" class="node">
<title>Node79</title>
<g id="a_node45"><a xlink:href="transceiver_8h.html#a75fa77e7bbb1cfe8fe6e1a216fbdc17e" target="_top" xlink:title=" ">
<polygon fill="white" stroke="#666666" points="1090,-657 1025,-657 1025,-638 1090,-638 1090,-657"/>
<text text-anchor="middle" x="1057.5" y="-645" font-family="Helvetica,sans-Serif" font-size="10.00">GetAltitude</text>
</a>
</g>
</g>
<!-- Node78&#45;&gt;Node79 -->
<g id="edge60" class="edge">
<title>Node78&#45;&gt;Node79</title>
<path fill="none" stroke="#63b8ff" d="M944.27,-660.95C966.01,-658.35 991.78,-655.26 1013.14,-652.7"/>
<polygon fill="#63b8ff" stroke="#63b8ff" points="1013.49,-656.18 1023,-651.52 1012.66,-649.23 1013.49,-656.18"/>
</g>
<!-- Node80 -->
<g id="node46" class="node">
<title>Node80</title>
<g id="a_node46"><a xlink:href="transceiver_8h.html#ab5736b017daadeb2c1d7dc73489d31a6" target="_top" xlink:title=" ">
<polygon fill="white" stroke="#666666" points="1265.5,-676 1158.5,-676 1158.5,-657 1265.5,-657 1265.5,-676"/>
<text text-anchor="middle" x="1212" y="-664" font-family="Helvetica,sans-Serif" font-size="10.00">GetFromAckPayload</text>
</a>
</g>
</g>
<!-- Node78&#45;&gt;Node80 -->
<g id="edge63" class="edge">
<title>Node78&#45;&gt;Node80</title>
<path fill="none" stroke="#63b8ff" d="M944.18,-666.5C997.78,-666.5 1086.5,-666.5 1146.79,-666.5"/>
<polygon fill="#63b8ff" stroke="#63b8ff" points="1146.56,-670 1156.56,-666.5 1146.56,-663 1146.56,-670"/>
</g>
<!-- Node81 -->
<g id="node47" class="node">
<title>Node81</title>
<g id="a_node47"><a xlink:href="transceiver_8h.html#a160b9119423c34869b16a4ebdc421d35" target="_top" xlink:title=" ">
<polygon fill="white" stroke="#666666" points="1121,-770 994,-770 994,-751 1121,-751 1121,-770"/>
<text text-anchor="middle" x="1057.5" y="-758" font-family="Helvetica,sans-Serif" font-size="10.00">GetDateFromAckPayload</text>
</a>
</g>
</g>
<!-- Node78&#45;&gt;Node81 -->
<g id="edge62" class="edge">
<title>Node78&#45;&gt;Node81</title>
<path fill="none" stroke="#63b8ff" d="M907.72,-676.38C924.09,-692.49 958.84,-724.42 994,-742.5 996.87,-743.98 999.88,-745.35 1002.96,-746.62"/>
<polygon fill="#63b8ff" stroke="#63b8ff" points="1001.6,-749.85 1012.2,-750.04 1004.03,-743.28 1001.6,-749.85"/>
</g>
<!-- Node82 -->
<g id="node48" class="node">
<title>Node82</title>
<g id="a_node48"><a xlink:href="transceiver_8h.html#a494cb4acb30856d1f53f08df1b80c41b" target="_top" xlink:title=" ">
<polygon fill="#fff0f0" stroke="red" points="1117,-733 998,-733 998,-714 1117,-714 1117,-733"/>
<text text-anchor="middle" x="1057.5" y="-721" font-family="Helvetica,sans-Serif" font-size="10.00">GetModelsMacAddress</text>
</a>
</g>
</g>
<!-- Node78&#45;&gt;Node82 -->
<g id="edge64" class="edge">
<title>Node78&#45;&gt;Node82</title>
<path fill="none" stroke="#63b8ff" d="M925.61,-676.43C951.21,-685.64 989.55,-699.43 1018.13,-709.7"/>
<polygon fill="#63b8ff" stroke="#63b8ff" points="1016.92,-712.99 1027.52,-713.08 1019.29,-706.4 1016.92,-712.99"/>
</g>
<!-- Node79&#45;&gt;Node80 -->
<g id="edge61" class="edge">
<title>Node79&#45;&gt;Node80</title>
<path fill="none" stroke="#63b8ff" d="M1090.47,-651.48C1106.82,-653.52 1127.34,-656.08 1146.78,-658.5"/>
<polygon fill="#63b8ff" stroke="#63b8ff" points="1146.21,-661.95 1156.56,-659.72 1147.07,-655.01 1146.21,-661.95"/>
</g>
<!-- Node223&#45;&gt;Node46 -->
<g id="edge67" class="edge">
<title>Node223&#45;&gt;Node46</title>
<path fill="none" stroke="#63b8ff" d="M955.67,-610.5C968.61,-610.5 982.38,-610.5 995.45,-610.5"/>
<polygon fill="#63b8ff" stroke="#63b8ff" points="995.21,-614 1005.21,-610.5 995.21,-607 995.21,-614"/>
</g>
</g>
</svg>
