<?xml version="1.0" encoding="UTF-8" standalone="no"?>
<!DOCTYPE svg PUBLIC "-//W3C//DTD SVG 1.1//EN"
 "http://www.w3.org/Graphics/SVG/1.1/DTD/svg11.dtd">
<!-- Generated by graphviz version 7.0.5 (20221223.1930)
 -->
<!-- Title: SetDefaultValues Pages: 1 -->
<svg width="1368pt" height="780pt"
 viewBox="0.00 0.00 1368.00 780.27" xmlns="http://www.w3.org/2000/svg" xmlns:xlink="http://www.w3.org/1999/xlink">
<g id="graph0" class="graph" transform="scale(1 1) rotate(0) translate(4 776.27)">
<title>SetDefaultValues</title>
<!-- Node1 -->
<g id="node1" class="node">
<title>Node1</title>
<g id="a_node1"><a xlink:title=" ">
<polygon fill="#999999" stroke="#666666" points="92,-414 0,-414 0,-395 92,-395 92,-414"/>
<text text-anchor="middle" x="46" y="-402" font-family="Helvetica,sans-Serif" font-size="10.00">SetDefaultValues</text>
</a>
</g>
</g>
<!-- Node2 -->
<g id="node2" class="node">
<title>Node2</title>
<g id="a_node2"><a xlink:href="SDcard_8h.html#a6922974b734cfe3a511e074a2d6ac33c" target="_top" xlink:title=" ">
<polygon fill="white" stroke="#666666" points="340.5,-451 251.5,-451 251.5,-432 340.5,-432 340.5,-451"/>
<text text-anchor="middle" x="296" y="-439" font-family="Helvetica,sans-Serif" font-size="10.00">CloseModelsFile</text>
</a>
</g>
</g>
<!-- Node1&#45;&gt;Node2 -->
<g id="edge1" class="edge">
<title>Node1&#45;&gt;Node2</title>
<path fill="none" stroke="#63b8ff" d="M92.37,-412.62C103.97,-414.62 116.44,-416.7 128,-418.5 165.38,-424.3 207.59,-430.11 240.22,-434.44"/>
<polygon fill="#63b8ff" stroke="#63b8ff" points="239.47,-437.87 249.84,-435.71 240.38,-430.93 239.47,-437.87"/>
</g>
<!-- Node3 -->
<g id="node3" class="node">
<title>Node3</title>
<g id="a_node3"><a xlink:href="SDcard_8h.html#ae7618f38a148877bc5681be58cba8354" target="_top" xlink:title=" ">
<polygon fill="white" stroke="#666666" points="339.5,-414 252.5,-414 252.5,-395 339.5,-395 339.5,-414"/>
<text text-anchor="middle" x="296" y="-402" font-family="Helvetica,sans-Serif" font-size="10.00">OpenModelsFile</text>
</a>
</g>
</g>
<!-- Node1&#45;&gt;Node3 -->
<g id="edge2" class="edge">
<title>Node1&#45;&gt;Node3</title>
<path fill="none" stroke="#63b8ff" d="M92.49,-404.5C134.33,-404.5 196.45,-404.5 240.84,-404.5"/>
<polygon fill="#63b8ff" stroke="#63b8ff" points="240.77,-408 250.77,-404.5 240.77,-401 240.77,-408"/>
</g>
<!-- Node109 -->
<g id="node44" class="node">
<title>Node109</title>
<g id="a_node44"><a xlink:href="SDcard_8h.html#ab5210e90502030d9f8864752dd70dc20" target="_top" xlink:title=" ">
<polygon fill="white" stroke="#666666" points="211,-376 128,-376 128,-357 211,-357 211,-376"/>
<text text-anchor="middle" x="169.5" y="-364" font-family="Helvetica,sans-Serif" font-size="10.00">SaveOneModel</text>
</a>
</g>
</g>
<!-- Node1&#45;&gt;Node109 -->
<g id="edge64" class="edge">
<title>Node1&#45;&gt;Node109</title>
<path fill="none" stroke="#63b8ff" d="M78.92,-394.52C93.29,-390.02 110.47,-384.65 125.91,-379.82"/>
<polygon fill="#63b8ff" stroke="#63b8ff" points="126.85,-383.19 135.35,-376.87 124.76,-376.51 126.85,-383.19"/>
</g>
<!-- Node4 -->
<g id="node4" class="node">
<title>Node4</title>
<g id="a_node4"><a xlink:href="Utilities_8h.html#a3b1d8aa403e2724e55c71da3d9d13e7e" target="_top" xlink:title=" ">
<polygon fill="white" stroke="#666666" points="467,-414 390,-414 390,-395 467,-395 467,-414"/>
<text text-anchor="middle" x="428.5" y="-402" font-family="Helvetica,sans-Serif" font-size="10.00">DelayWithDog</text>
</a>
</g>
</g>
<!-- Node3&#45;&gt;Node4 -->
<g id="edge3" class="edge">
<title>Node3&#45;&gt;Node4</title>
<path fill="none" stroke="#63b8ff" d="M339.73,-404.5C352.02,-404.5 365.53,-404.5 378.19,-404.5"/>
<polygon fill="#63b8ff" stroke="#63b8ff" points="378,-408 388,-404.5 378,-401 378,-408"/>
</g>
<!-- Node5 -->
<g id="node5" class="node">
<title>Node5</title>
<g id="a_node5"><a xlink:href="Utilities_8h.html#ada95a00a341e4a80176eda743a94ab2e" target="_top" xlink:title=" ">
<polygon fill="white" stroke="#666666" points="590,-414 520,-414 520,-395 590,-395 590,-414"/>
<text text-anchor="middle" x="555" y="-402" font-family="Helvetica,sans-Serif" font-size="10.00">KickTheDog</text>
</a>
</g>
</g>
<!-- Node4&#45;&gt;Node5 -->
<g id="edge4" class="edge">
<title>Node4&#45;&gt;Node5</title>
<path fill="none" stroke="#63b8ff" d="M467.19,-404.5C480.28,-404.5 495.08,-404.5 508.72,-404.5"/>
<polygon fill="#63b8ff" stroke="#63b8ff" points="508.31,-408 518.31,-404.5 508.31,-401 508.31,-408"/>
</g>
<!-- Node6 -->
<g id="node6" class="node">
<title>Node6</title>
<g id="a_node6"><a xlink:href="transceiver_8h.html#a049bfb836e7aa4a3a48a1a4bd225fafc" target="_top" xlink:title=" ">
<polygon fill="white" stroke="#666666" points="584.5,-377 525.5,-377 525.5,-358 584.5,-358 584.5,-377"/>
<text text-anchor="middle" x="555" y="-365" font-family="Helvetica,sans-Serif" font-size="10.00">SendData</text>
</a>
</g>
</g>
<!-- Node4&#45;&gt;Node6 -->
<g id="edge5" class="edge">
<title>Node4&#45;&gt;Node6</title>
<path fill="none" stroke="#63b8ff" d="M462.86,-394.58C478.66,-389.89 497.66,-384.24 514.2,-379.33"/>
<polygon fill="#63b8ff" stroke="#63b8ff" points="515.16,-382.69 523.75,-376.49 513.17,-375.98 515.16,-382.69"/>
</g>
<!-- Node7 -->
<g id="node7" class="node">
<title>Node7</title>
<g id="a_node7"><a xlink:href="transceiver_8h.html#a1ddd5e8d5bd649dd98ce3710fbff651b" target="_top" xlink:title=" ">
<polygon fill="white" stroke="#666666" points="736.5,-488 675.5,-488 675.5,-469 736.5,-469 736.5,-488"/>
<text text-anchor="middle" x="706" y="-476" font-family="Helvetica,sans-Serif" font-size="10.00">Compress</text>
</a>
</g>
</g>
<!-- Node6&#45;&gt;Node7 -->
<g id="edge6" class="edge">
<title>Node6&#45;&gt;Node7</title>
<path fill="none" stroke="#63b8ff" d="M584.81,-377.28C589.59,-379.77 594.21,-382.82 598,-386.5 624.22,-412 605.63,-437.41 634,-460.5 642.56,-467.47 653.49,-471.78 664.18,-474.44"/>
<polygon fill="#63b8ff" stroke="#63b8ff" points="663.16,-477.8 673.66,-476.35 664.55,-470.94 663.16,-477.8"/>
</g>
<!-- Node8 -->
<g id="node8" class="node">
<title>Node8</title>
<g id="a_node8"><a xlink:href="transceiver_8h.html#a4144c213e5448a7e02d4172881f08219" target="_top" xlink:title=" ">
<polygon fill="white" stroke="#666666" points="778,-451 634,-451 634,-432 778,-432 778,-451"/>
<text text-anchor="middle" x="706" y="-439" font-family="Helvetica,sans-Serif" font-size="10.00">EncodeTheChangedChannels</text>
</a>
</g>
</g>
<!-- Node6&#45;&gt;Node8 -->
<g id="edge7" class="edge">
<title>Node6&#45;&gt;Node8</title>
<path fill="none" stroke="#63b8ff" d="M582.15,-377.5C587.6,-380.07 593.15,-383.1 598,-386.5 616.78,-399.68 614.13,-412.03 634,-423.5 636.46,-424.92 639.03,-426.23 641.67,-427.43"/>
<polygon fill="#63b8ff" stroke="#63b8ff" points="640.14,-430.59 650.73,-431.04 642.73,-424.09 640.14,-430.59"/>
</g>
<!-- Node9 -->
<g id="node9" class="node">
<title>Node9</title>
<g id="a_node9"><a xlink:href="transceiver_8h.html#a5fbd3c8613a4163425c94965704ce5f8" target="_top" xlink:title=" ">
<polygon fill="white" stroke="#666666" points="743,-414 669,-414 669,-395 743,-395 743,-414"/>
<text text-anchor="middle" x="706" y="-402" font-family="Helvetica,sans-Serif" font-size="10.00">FailedPacket</text>
</a>
</g>
</g>
<!-- Node6&#45;&gt;Node9 -->
<g id="edge8" class="edge">
<title>Node6&#45;&gt;Node9</title>
<path fill="none" stroke="#63b8ff" d="M584.73,-374.63C605.39,-379.76 633.72,-386.8 657.69,-392.75"/>
<polygon fill="#63b8ff" stroke="#63b8ff" points="656.69,-396.11 667.24,-395.12 658.37,-389.32 656.69,-396.11"/>
</g>
<!-- Node46 -->
<g id="node20" class="node">
<title>Node46</title>
<g id="a_node20"><a xlink:href="common_8h.html#a6e2d4126d864c50e7c23c988c2bfdd1a" target="_top" xlink:title=" ">
<polygon fill="white" stroke="#666666" points="1209,-169 1162,-169 1162,-150 1209,-150 1209,-169"/>
<text text-anchor="middle" x="1185.5" y="-157" font-family="Helvetica,sans-Serif" font-size="10.00">Radio1</text>
</a>
</g>
</g>
<!-- Node6&#45;&gt;Node46 -->
<g id="edge26" class="edge">
<title>Node6&#45;&gt;Node46</title>
<path fill="none" stroke="#63b8ff" d="M584.83,-357.76C589.5,-355.47 594.08,-352.73 598,-349.5 619.97,-331.38 610.66,-312.82 634,-296.5 719.97,-236.38 1044.09,-181.44 1150.46,-164.7"/>
<polygon fill="#63b8ff" stroke="#63b8ff" points="1150.92,-168.17 1160.26,-163.17 1149.84,-161.25 1150.92,-168.17"/>
</g>
<!-- Node49 -->
<g id="node22" class="node">
<title>Node49</title>
<g id="a_node22"><a xlink:href="transceiver_8h.html#a07c27b4e208198453c70876517926052" target="_top" xlink:title=" ">
<polygon fill="white" stroke="#666666" points="737,-169 675,-169 675,-150 737,-150 737,-169"/>
<text text-anchor="middle" x="706" y="-157" font-family="Helvetica,sans-Serif" font-size="10.00">FlushFifos</text>
</a>
</g>
</g>
<!-- Node6&#45;&gt;Node49 -->
<g id="edge24" class="edge">
<title>Node6&#45;&gt;Node49</title>
<path fill="none" stroke="#63b8ff" d="M584.7,-359.59C589.72,-357.07 594.47,-353.78 598,-349.5 646.04,-291.26 583.7,-239.8 634,-183.5 641.74,-174.84 652.71,-169.3 663.72,-165.76"/>
<polygon fill="#63b8ff" stroke="#63b8ff" points="664.41,-169.2 673.16,-163.23 662.6,-162.44 664.41,-169.2"/>
</g>
<!-- Node50 -->
<g id="node23" class="node">
<title>Node50</title>
<g id="a_node23"><a xlink:href="transceiver_8h.html#a188ad446d11b2db284476c093de58b2f" target="_top" xlink:title=" ">
<polygon fill="white" stroke="#666666" points="765.5,-75 646.5,-75 646.5,-56 765.5,-56 765.5,-75"/>
<text text-anchor="middle" x="706" y="-63" font-family="Helvetica,sans-Serif" font-size="10.00">SendExtraParamemters</text>
</a>
</g>
</g>
<!-- Node6&#45;&gt;Node50 -->
<g id="edge27" class="edge">
<title>Node6&#45;&gt;Node50</title>
<path fill="none" stroke="#63b8ff" d="M584.93,-359.77C589.93,-357.24 594.61,-353.9 598,-349.5 664.39,-263.38 573.31,-197.73 634,-107.5 641.87,-95.8 654.18,-86.89 666.36,-80.35"/>
<polygon fill="#63b8ff" stroke="#63b8ff" points="667.66,-83.61 675.1,-76.07 664.58,-77.33 667.66,-83.61"/>
</g>
<!-- Node53 -->
<g id="node26" class="node">
<title>Node53</title>
<g id="a_node26"><a xlink:href="BuddyWireless_8h.html#a41c327908c92572d0d3eebbb19160d86" target="_top" xlink:title=" ">
<polygon fill="white" stroke="#666666" points="926,-131 824,-131 824,-112 926,-112 926,-131"/>
<text text-anchor="middle" x="875" y="-119" font-family="Helvetica,sans-Serif" font-size="10.00">SendSpecialPacket</text>
</a>
</g>
</g>
<!-- Node6&#45;&gt;Node53 -->
<g id="edge30" class="edge">
<title>Node6&#45;&gt;Node53</title>
<path fill="none" stroke="#63b8ff" d="M584.85,-359.7C589.86,-357.18 594.56,-353.86 598,-349.5 656.4,-275.52 564.37,-204.03 634,-140.5 685.02,-93.95 770.17,-99.58 824.14,-109.42"/>
<polygon fill="#63b8ff" stroke="#63b8ff" points="823.18,-112.8 833.67,-111.28 824.52,-105.93 823.18,-112.8"/>
</g>
<!-- Node58 -->
<g id="node31" class="node">
<title>Node58</title>
<g id="a_node31"><a xlink:href="BuddyPPM_8h.html#a784a1eca0361b3991bca899167cc1cdb" target="_top" xlink:title=" ">
<polygon fill="white" stroke="#666666" points="743.5,-525 668.5,-525 668.5,-506 743.5,-506 743.5,-525"/>
<text text-anchor="middle" x="706" y="-513" font-family="Helvetica,sans-Serif" font-size="10.00">SendViaPPM</text>
</a>
</g>
</g>
<!-- Node6&#45;&gt;Node58 -->
<g id="edge40" class="edge">
<title>Node6&#45;&gt;Node58</title>
<path fill="none" stroke="#63b8ff" d="M584.81,-376.63C589.71,-379.2 594.37,-382.44 598,-386.5 632.58,-425.15 596.15,-462.04 634,-497.5 640.39,-503.48 648.47,-507.55 656.88,-510.3"/>
<polygon fill="#63b8ff" stroke="#63b8ff" points="655.98,-513.68 666.54,-512.82 657.75,-506.91 655.98,-513.68"/>
</g>
<!-- Node59 -->
<g id="node32" class="node">
<title>Node59</title>
<g id="a_node32"><a xlink:href="transceiver_8h.html#a1c11bb6771548de7d96723045b922620" target="_top" xlink:title=" ">
<polygon fill="white" stroke="#666666" points="754,-377 658,-377 658,-358 754,-358 754,-377"/>
<text text-anchor="middle" x="706" y="-365" font-family="Helvetica,sans-Serif" font-size="10.00">SuccessfulPacket</text>
</a>
</g>
</g>
<!-- Node6&#45;&gt;Node59 -->
<g id="edge41" class="edge">
<title>Node6&#45;&gt;Node59</title>
<path fill="none" stroke="#63b8ff" d="M584.73,-367.5C602.14,-367.5 624.99,-367.5 646.1,-367.5"/>
<polygon fill="#63b8ff" stroke="#63b8ff" points="646.09,-371 656.09,-367.5 646.09,-364 646.09,-371"/>
</g>
<!-- Node10 -->
<g id="node10" class="node">
<title>Node10</title>
<g id="a_node10"><a xlink:href="transceiver_8h.html#afc091b5942e21a03f6dc8635d5e519ba" target="_top" xlink:title=" ">
<polygon fill="white" stroke="#666666" points="936,-508 814,-508 814,-489 936,-489 936,-508"/>
<text text-anchor="middle" x="875" y="-496" font-family="Helvetica,sans-Serif" font-size="10.00">RecordsPacketSuccess</text>
</a>
</g>
</g>
<!-- Node9&#45;&gt;Node10 -->
<g id="edge9" class="edge">
<title>Node9&#45;&gt;Node10</title>
<path fill="none" stroke="#63b8ff" d="M743.24,-408.81C755.16,-411.57 767.93,-416.09 778,-423.5 802.13,-441.26 790.14,-462.38 814,-480.5 815.33,-481.51 816.71,-482.46 818.14,-483.36"/>
<polygon fill="#63b8ff" stroke="#63b8ff" points="816.25,-486.32 826.74,-487.85 819.49,-480.12 816.25,-486.32"/>
</g>
<!-- Node11 -->
<g id="node11" class="node">
<title>Node11</title>
<g id="a_node11"><a xlink:href="TransmitterCode_2src_2main_8cpp.html#a7d34cec6e8edc20c8b50424e15dcc7c7" target="_top" xlink:title=" ">
<polygon fill="white" stroke="#666666" points="1064.5,-732 1001.5,-732 1001.5,-713 1064.5,-713 1064.5,-732"/>
<text text-anchor="middle" x="1033" y="-720" font-family="Helvetica,sans-Serif" font-size="10.00">RedLedOn</text>
</a>
</g>
</g>
<!-- Node9&#45;&gt;Node11 -->
<g id="edge10" class="edge">
<title>Node9&#45;&gt;Node11</title>
<path fill="none" stroke="#63b8ff" d="M743.14,-406.9C755.62,-409.45 768.77,-414.33 778,-423.5 820.84,-466.05 782.97,-502.7 814,-554.5 863.76,-637.56 888.23,-655.93 972,-704.5 977.73,-707.82 984.12,-710.58 990.54,-712.86"/>
<polygon fill="#63b8ff" stroke="#63b8ff" points="989.23,-716.11 999.82,-715.79 991.34,-709.44 989.23,-716.11"/>
</g>
<!-- Node42 -->
<g id="node18" class="node">
<title>Node42</title>
<g id="a_node18"><a xlink:href="transceiver_8h.html#ad0236abcfc887ad708d9504c4ab2a7c3" target="_top" xlink:title=" ">
<polygon fill="white" stroke="#666666" points="919,-545 831,-545 831,-526 919,-526 919,-545"/>
<text text-anchor="middle" x="875" y="-533" font-family="Helvetica,sans-Serif" font-size="10.00">TryToReconnect</text>
</a>
</g>
</g>
<!-- Node9&#45;&gt;Node42 -->
<g id="edge20" class="edge">
<title>Node9&#45;&gt;Node42</title>
<path fill="none" stroke="#63b8ff" d="M743.4,-407.55C755.61,-410.19 768.52,-414.96 778,-423.5 811.24,-453.44 781.21,-487.06 814,-517.5 816.02,-519.37 818.22,-521.05 820.56,-522.56"/>
<polygon fill="#63b8ff" stroke="#63b8ff" points="818.91,-525.65 829.41,-527.12 822.12,-519.42 818.91,-525.65"/>
</g>
<!-- Node12 -->
<g id="node12" class="node">
<title>Node12</title>
<g id="a_node12"><a xlink:href="TransmitterCode_2src_2main_8cpp.html#afeaea883a32e6ebe461d419fab1b9f59" target="_top" xlink:title=" ">
<polygon fill="white" stroke="#666666" points="1241,-732 1130,-732 1130,-713 1241,-713 1241,-732"/>
<text text-anchor="middle" x="1185.5" y="-720" font-family="Helvetica,sans-Serif" font-size="10.00">ClearMostParameters</text>
</a>
</g>
</g>
<!-- Node11&#45;&gt;Node12 -->
<g id="edge11" class="edge">
<title>Node11&#45;&gt;Node12</title>
<path fill="none" stroke="#63b8ff" d="M1064.82,-722.5C1080.27,-722.5 1099.62,-722.5 1118.23,-722.5"/>
<polygon fill="#63b8ff" stroke="#63b8ff" points="1118.16,-726 1128.16,-722.5 1118.16,-719 1118.16,-726"/>
</g>
<!-- Node13 -->
<g id="node13" class="node">
<title>Node13</title>
<g id="a_node13"><a xlink:href="Utilities_8h.html#a549a702bb9b539c6b3a4f20cce65adcc" target="_top" xlink:title=" ">
<polygon fill="#fff0f0" stroke="red" points="1234.5,-619 1136.5,-619 1136.5,-600 1234.5,-600 1234.5,-619"/>
<text text-anchor="middle" x="1185.5" y="-607" font-family="Helvetica,sans-Serif" font-size="10.00">GetLEDBrightness</text>
</a>
</g>
</g>
<!-- Node11&#45;&gt;Node13 -->
<g id="edge12" class="edge">
<title>Node11&#45;&gt;Node13</title>
<path fill="none" stroke="#63b8ff" d="M1064.7,-718.29C1074.9,-715.66 1085.74,-711.41 1094,-704.5 1121.14,-681.8 1104.31,-657.83 1130,-633.5 1133.5,-630.18 1137.54,-627.27 1141.81,-624.74"/>
<polygon fill="#63b8ff" stroke="#63b8ff" points="1143.38,-627.87 1150.66,-620.18 1140.17,-621.65 1143.38,-627.87"/>
</g>
<!-- Node21 -->
<g id="node14" class="node">
<title>Node21</title>
<g id="a_node14"><a xlink:href="TransmitterCode_2src_2main_8cpp.html#a2d5ec5fd5ed62d5b7b071fabe2225405" target="_top" xlink:title=" ">
<polygon fill="#fff0f0" stroke="red" points="1233.5,-695 1137.5,-695 1137.5,-676 1233.5,-676 1233.5,-695"/>
<text text-anchor="middle" x="1185.5" y="-683" font-family="Helvetica,sans-Serif" font-size="10.00">LogDisConnection</text>
</a>
</g>
</g>
<!-- Node11&#45;&gt;Node21 -->
<g id="edge13" class="edge">
<title>Node11&#45;&gt;Node21</title>
<path fill="none" stroke="#63b8ff" d="M1064.82,-714.92C1084.39,-710.11 1110.2,-703.77 1132.85,-698.2"/>
<polygon fill="#63b8ff" stroke="#63b8ff" points="1133.66,-701.6 1142.54,-695.82 1131.99,-694.81 1133.66,-701.6"/>
</g>
<!-- Node37 -->
<g id="node15" class="node">
<title>Node37</title>
<g id="a_node15"><a xlink:href="Utilities_8h.html#aa490b4664b0a4498d53b30b82287d5df" target="_top" xlink:title=" ">
<polygon fill="#fff0f0" stroke="red" points="1217,-582 1154,-582 1154,-563 1217,-563 1217,-582"/>
<text text-anchor="middle" x="1185.5" y="-570" font-family="Helvetica,sans-Serif" font-size="10.00">PlaySound</text>
</a>
</g>
</g>
<!-- Node11&#45;&gt;Node37 -->
<g id="edge14" class="edge">
<title>Node11&#45;&gt;Node37</title>
<path fill="none" stroke="#63b8ff" d="M1064.74,-719.16C1075.18,-716.63 1086.17,-712.2 1094,-704.5 1131.59,-667.55 1093.24,-629.27 1130,-591.5 1133.78,-587.62 1138.39,-584.53 1143.31,-582.07"/>
<polygon fill="#63b8ff" stroke="#63b8ff" points="1144.34,-585.43 1152.29,-578.43 1141.71,-578.95 1144.34,-585.43"/>
</g>
<!-- Node38 -->
<g id="node16" class="node">
<title>Node38</title>
<g id="a_node16"><a xlink:href="Nextion_8h.html#aecac2f0c289f02ef3c92b85be82eacac" target="_top" xlink:title=" ">
<polygon fill="#fff0f0" stroke="red" points="1360,-563 1277,-563 1277,-544 1360,-544 1360,-563"/>
<text text-anchor="middle" x="1318.5" y="-551" font-family="Helvetica,sans-Serif" font-size="10.00">SendCommand</text>
</a>
</g>
</g>
<!-- Node11&#45;&gt;Node38 -->
<g id="edge17" class="edge">
<title>Node11&#45;&gt;Node38</title>
<path fill="none" stroke="#63b8ff" d="M1064.86,-716.45C1074.63,-713.72 1085.17,-709.86 1094,-704.5 1113.62,-692.6 1110.66,-679.85 1130,-667.5 1174.07,-639.35 1196.61,-656.13 1241,-628.5 1265.65,-613.16 1288.68,-588.64 1302.9,-571.84"/>
<polygon fill="#63b8ff" stroke="#63b8ff" points="1305.23,-574.52 1308.89,-564.58 1299.83,-570.07 1305.23,-574.52"/>
</g>
<!-- Node41 -->
<g id="node17" class="node">
<title>Node41</title>
<g id="a_node17"><a xlink:href="Nextion_8h.html#afe513398f72d5e48f691830a1ef6eb42" target="_top" xlink:title=" ">
<polygon fill="#fff0f0" stroke="red" points="1214.5,-506 1156.5,-506 1156.5,-487 1214.5,-487 1214.5,-506"/>
<text text-anchor="middle" x="1185.5" y="-494" font-family="Helvetica,sans-Serif" font-size="10.00">SendText</text>
</a>
</g>
</g>
<!-- Node11&#45;&gt;Node41 -->
<g id="edge18" class="edge">
<title>Node11&#45;&gt;Node41</title>
<path fill="none" stroke="#63b8ff" d="M1064.74,-719.55C1075.31,-717.05 1086.38,-712.56 1094,-704.5 1141.11,-654.68 1097.44,-614.83 1130,-554.5 1138.47,-538.8 1152.26,-524.19 1163.85,-513.56"/>
<polygon fill="#63b8ff" stroke="#63b8ff" points="1165.82,-516.48 1171.02,-507.25 1161.2,-511.23 1165.82,-516.48"/>
</g>
<!-- Node37&#45;&gt;Node38 -->
<g id="edge15" class="edge">
<title>Node37&#45;&gt;Node38</title>
<path fill="none" stroke="#63b8ff" d="M1217.21,-568.05C1231.59,-565.96 1249.12,-563.42 1265.48,-561.05"/>
<polygon fill="#63b8ff" stroke="#63b8ff" points="1265.67,-564.55 1275.06,-559.66 1264.66,-557.63 1265.67,-564.55"/>
</g>
<!-- Node38&#45;&gt;Node4 -->
<g id="edge16" class="edge">
<title>Node38&#45;&gt;Node4</title>
<path fill="none" stroke="#63b8ff" d="M1316.89,-563.39C1314.33,-595.39 1301.58,-696.59 1241,-741.5 1166.78,-796.52 1126.39,-760.5 1034,-760.5 705,-760.5 705,-760.5 705,-760.5 534.36,-760.5 454.39,-501.53 434.55,-425.34"/>
<polygon fill="#63b8ff" stroke="#63b8ff" points="438,-424.7 432.16,-415.86 431.21,-426.41 438,-424.7"/>
</g>
<!-- Node41&#45;&gt;Node38 -->
<g id="edge19" class="edge">
<title>Node41&#45;&gt;Node38</title>
<path fill="none" stroke="#63b8ff" d="M1209.32,-506.43C1230.08,-515.46 1260.96,-528.9 1284.42,-539.11"/>
<polygon fill="#63b8ff" stroke="#63b8ff" points="1282.99,-542.3 1293.56,-543.08 1285.78,-535.88 1282.99,-542.3"/>
</g>
<!-- Node43 -->
<g id="node19" class="node">
<title>Node43</title>
<g id="a_node19"><a xlink:href="transceiver_8h.html#a52aa3e80bccf5e75346c93fdae63122d" target="_top" xlink:title=" ">
<polygon fill="#fff0f0" stroke="red" points="1083.5,-357 982.5,-357 982.5,-338 1083.5,-338 1083.5,-357"/>
<text text-anchor="middle" x="1033" y="-345" font-family="Helvetica,sans-Serif" font-size="10.00">HopToNextChannel</text>
</a>
</g>
</g>
<!-- Node42&#45;&gt;Node43 -->
<g id="edge21" class="edge">
<title>Node42&#45;&gt;Node43</title>
<path fill="none" stroke="#63b8ff" d="M919.46,-528.04C925.57,-525.48 931.34,-522.07 936,-517.5 973.33,-480.89 944.37,-449.89 972,-405.5 981.98,-389.47 997.35,-374.72 1010.04,-364.11"/>
<polygon fill="#63b8ff" stroke="#63b8ff" points="1011.91,-367.1 1017.51,-358.11 1007.52,-361.64 1011.91,-367.1"/>
</g>
<!-- Node47 -->
<g id="node21" class="node">
<title>Node47</title>
<g id="a_node21"><a xlink:href="transceiver_8h.html#ad0e30213b21808d00110752679788a8c" target="_top" xlink:title=" ">
<polygon fill="#fff0f0" stroke="red" points="1070,-695 996,-695 996,-676 1070,-676 1070,-695"/>
<text text-anchor="middle" x="1033" y="-683" font-family="Helvetica,sans-Serif" font-size="10.00">TryOtherPipe</text>
</a>
</g>
</g>
<!-- Node42&#45;&gt;Node47 -->
<g id="edge23" class="edge">
<title>Node42&#45;&gt;Node47</title>
<path fill="none" stroke="#63b8ff" d="M880.44,-545.49C891.88,-570.1 924.84,-634.07 972,-667.5 976.05,-670.37 980.57,-672.79 985.25,-674.83"/>
<polygon fill="#63b8ff" stroke="#63b8ff" points="983.66,-677.97 994.25,-678.18 986.1,-671.41 983.66,-677.97"/>
</g>
<!-- Node43&#45;&gt;Node46 -->
<g id="edge22" class="edge">
<title>Node43&#45;&gt;Node46</title>
<path fill="none" stroke="#63b8ff" d="M1080.77,-337.58C1085.52,-335.4 1090.05,-332.74 1094,-329.5 1142.81,-289.5 1168.84,-216.07 1179.15,-180.25"/>
<polygon fill="#63b8ff" stroke="#63b8ff" points="1182.49,-181.3 1181.75,-170.73 1175.74,-179.45 1182.49,-181.3"/>
</g>
<!-- Node49&#45;&gt;Node46 -->
<g id="edge25" class="edge">
<title>Node49&#45;&gt;Node46</title>
<path fill="none" stroke="#63b8ff" d="M737.23,-159.5C821.9,-159.5 1061.02,-159.5 1150.31,-159.5"/>
<polygon fill="#63b8ff" stroke="#63b8ff" points="1150.13,-163 1160.13,-159.5 1150.13,-156 1150.13,-163"/>
</g>
<!-- Node51 -->
<g id="node24" class="node">
<title>Node51</title>
<g id="a_node24"><a xlink:href="transceiver_8h.html#adac102739147db6397bbcbb371aec4fd" target="_top" xlink:title=" ">
<polygon fill="white" stroke="#666666" points="919.5,-38 830.5,-38 830.5,-19 919.5,-19 919.5,-38"/>
<text text-anchor="middle" x="875" y="-26" font-family="Helvetica,sans-Serif" font-size="10.00">LoadParameters</text>
</a>
</g>
</g>
<!-- Node50&#45;&gt;Node51 -->
<g id="edge28" class="edge">
<title>Node50&#45;&gt;Node51</title>
<path fill="none" stroke="#63b8ff" d="M751.75,-55.58C772.49,-50.99 797.31,-45.49 819.16,-40.65"/>
<polygon fill="#63b8ff" stroke="#63b8ff" points="819.8,-44.09 828.8,-38.51 818.28,-37.26 819.8,-44.09"/>
</g>
<!-- Node52 -->
<g id="node25" class="node">
<title>Node52</title>
<g id="a_node25"><a xlink:href="TransmitterCode_2src_2main_8cpp.html#a5aa4888b924a4f1d95e9cedc3004f2b6" target="_top" xlink:title=" ">
<polygon fill="white" stroke="#666666" points="1074.5,-19 991.5,-19 991.5,0 1074.5,0 1074.5,-19"/>
<text text-anchor="middle" x="1033" y="-7" font-family="Helvetica,sans-Serif" font-size="10.00">MakeTwobytes</text>
</a>
</g>
</g>
<!-- Node51&#45;&gt;Node52 -->
<g id="edge29" class="edge">
<title>Node51&#45;&gt;Node52</title>
<path fill="none" stroke="#63b8ff" d="M919.87,-23.16C938.47,-20.89 960.28,-18.23 979.71,-15.87"/>
<polygon fill="#63b8ff" stroke="#63b8ff" points="980.13,-19.34 989.63,-14.66 979.28,-12.4 980.13,-19.34"/>
</g>
<!-- Node53&#45;&gt;Node46 -->
<g id="edge39" class="edge">
<title>Node53&#45;&gt;Node46</title>
<path fill="none" stroke="#63b8ff" d="M926.3,-126.41C970.53,-130.87 1036.62,-137.91 1094,-145.5 1112.82,-147.99 1133.78,-151.21 1150.79,-153.93"/>
<polygon fill="#63b8ff" stroke="#63b8ff" points="1149.93,-157.33 1160.36,-155.47 1151.05,-150.42 1149.93,-157.33"/>
</g>
<!-- Node54 -->
<g id="node27" class="node">
<title>Node54</title>
<g id="a_node27"><a xlink:href="BuddyWireless_8h.html#ace84aff90c63bee9a876eda720fbf8bc" target="_top" xlink:title=" ">
<polygon fill="white" stroke="#666666" points="1078,-93 988,-93 988,-74 1078,-74 1078,-93"/>
<text text-anchor="middle" x="1033" y="-81" font-family="Helvetica,sans-Serif" font-size="10.00">ChangeTXTarget</text>
</a>
</g>
</g>
<!-- Node53&#45;&gt;Node54 -->
<g id="edge31" class="edge">
<title>Node53&#45;&gt;Node54</title>
<path fill="none" stroke="#63b8ff" d="M916.99,-111.52C936.26,-106.82 959.45,-101.17 979.95,-96.18"/>
<polygon fill="#63b8ff" stroke="#63b8ff" points="980.66,-99.61 989.55,-93.84 979,-92.81 980.66,-99.61"/>
</g>
<!-- Node55 -->
<g id="node28" class="node">
<title>Node55</title>
<g id="a_node28"><a xlink:href="BuddyWireless_8h.html#af59c2527be7a67d6b09dd467f3123d55" target="_top" xlink:title=" ">
<polygon fill="white" stroke="#666666" points="1068.5,-56 997.5,-56 997.5,-37 1068.5,-37 1068.5,-56"/>
<text text-anchor="middle" x="1033" y="-44" font-family="Helvetica,sans-Serif" font-size="10.00">GetPupilAck</text>
</a>
</g>
</g>
<!-- Node53&#45;&gt;Node55 -->
<g id="edge33" class="edge">
<title>Node53&#45;&gt;Node55</title>
<path fill="none" stroke="#63b8ff" d="M890.05,-111.66C908.25,-99.27 941.3,-77.98 972,-64.5 976.61,-62.48 981.51,-60.6 986.44,-58.88"/>
<polygon fill="#63b8ff" stroke="#63b8ff" points="987.35,-62.26 995.77,-55.84 985.18,-55.61 987.35,-62.26"/>
</g>
<!-- Node57 -->
<g id="node30" class="node">
<title>Node57</title>
<g id="a_node30"><a xlink:href="BuddyWireless_8h.html#a89fc05df708fec875356b62d21b2ce7b" target="_top" xlink:title=" ">
<polygon fill="white" stroke="#666666" points="1071.5,-283 994.5,-283 994.5,-264 1071.5,-264 1071.5,-283"/>
<text text-anchor="middle" x="1033" y="-271" font-family="Helvetica,sans-Serif" font-size="10.00">PupilDetected</text>
</a>
</g>
</g>
<!-- Node53&#45;&gt;Node57 -->
<g id="edge36" class="edge">
<title>Node53&#45;&gt;Node57</title>
<path fill="none" stroke="#63b8ff" d="M886.24,-131.47C912.25,-156.82 981.14,-223.94 1014.03,-255.99"/>
<polygon fill="#63b8ff" stroke="#63b8ff" points="1011.24,-258.16 1020.85,-262.63 1016.13,-253.15 1011.24,-258.16"/>
</g>
<!-- Node54&#45;&gt;Node46 -->
<g id="edge32" class="edge">
<title>Node54&#45;&gt;Node46</title>
<path fill="none" stroke="#63b8ff" d="M1061.23,-93.46C1071.63,-97.5 1083.5,-102.41 1094,-107.5 1116.63,-118.46 1141.32,-132.82 1159.18,-143.67"/>
<polygon fill="#63b8ff" stroke="#63b8ff" points="1157.2,-146.56 1167.56,-148.81 1160.87,-140.59 1157.2,-146.56"/>
</g>
<!-- Node55&#45;&gt;Node46 -->
<g id="edge35" class="edge">
<title>Node55&#45;&gt;Node46</title>
<path fill="none" stroke="#63b8ff" d="M1068.94,-53.68C1077.51,-56.31 1086.4,-59.83 1094,-64.5 1126.51,-84.46 1155.22,-118.96 1171.18,-140.44"/>
<polygon fill="#63b8ff" stroke="#63b8ff" points="1168.19,-142.27 1176.89,-148.32 1173.86,-138.17 1168.19,-142.27"/>
</g>
<!-- Node56 -->
<g id="node29" class="node">
<title>Node56</title>
<g id="a_node29"><a xlink:href="transceiver_8h.html#a6feccc8c0583de3235616d42076f1371" target="_top" xlink:title=" ">
<polygon fill="white" stroke="#666666" points="1221,-56 1150,-56 1150,-37 1221,-37 1221,-56"/>
<text text-anchor="middle" x="1185.5" y="-44" font-family="Helvetica,sans-Serif" font-size="10.00">Decompress</text>
</a>
</g>
</g>
<!-- Node55&#45;&gt;Node56 -->
<g id="edge34" class="edge">
<title>Node55&#45;&gt;Node56</title>
<path fill="none" stroke="#63b8ff" d="M1068.91,-46.5C1089.54,-46.5 1115.91,-46.5 1138.26,-46.5"/>
<polygon fill="#63b8ff" stroke="#63b8ff" points="1138.01,-50 1148.01,-46.5 1138.01,-43 1138.01,-50"/>
</g>
<!-- Node57&#45;&gt;Node38 -->
<g id="edge37" class="edge">
<title>Node57&#45;&gt;Node38</title>
<path fill="none" stroke="#63b8ff" d="M1071.93,-283.33C1079.43,-285.87 1087.11,-288.93 1094,-292.5 1166.9,-330.35 1188.27,-341.52 1241,-404.5 1274.78,-444.85 1299.03,-502.62 1310.34,-533.01"/>
<polygon fill="#63b8ff" stroke="#63b8ff" points="1306.95,-533.92 1313.64,-542.13 1313.54,-531.54 1306.95,-533.92"/>
</g>
<!-- Node57&#45;&gt;Node41 -->
<g id="edge38" class="edge">
<title>Node57&#45;&gt;Node41</title>
<path fill="none" stroke="#63b8ff" d="M1071.94,-279.14C1080.14,-281.96 1088.11,-286.19 1094,-292.5 1140.47,-342.32 1096.8,-382.01 1130,-441.5 1138.17,-456.13 1151.3,-469.56 1162.63,-479.48"/>
<polygon fill="#63b8ff" stroke="#63b8ff" points="1160.13,-481.95 1170.04,-485.67 1164.61,-476.58 1160.13,-481.95"/>
</g>
<!-- Node59&#45;&gt;Node10 -->
<g id="edge62" class="edge">
<title>Node59&#45;&gt;Node10</title>
<path fill="none" stroke="#63b8ff" d="M754.47,-373.55C763.05,-376.39 771.36,-380.52 778,-386.5 811.24,-416.44 781.21,-450.06 814,-480.5 814.77,-481.21 815.56,-481.9 816.38,-482.55"/>
<polygon fill="#63b8ff" stroke="#63b8ff" points="814.33,-485.4 824.65,-487.8 818.08,-479.49 814.33,-485.4"/>
</g>
<!-- Node59&#45;&gt;Node46 -->
<g id="edge61" class="edge">
<title>Node59&#45;&gt;Node46</title>
<path fill="none" stroke="#63b8ff" d="M718.42,-357.73C737.2,-342.12 776.28,-311.49 814,-293.5 931.04,-237.68 974.73,-262.38 1094,-211.5 1117.41,-201.51 1142.37,-186.84 1160.13,-175.62"/>
<polygon fill="#63b8ff" stroke="#63b8ff" points="1161.9,-178.64 1168.42,-170.29 1158.12,-172.75 1161.9,-178.64"/>
</g>
<!-- Node60 -->
<g id="node33" class="node">
<title>Node60</title>
<g id="a_node33"><a xlink:href="transceiver_8h.html#a953f1d5046e183549ed95b08f6d675e3" target="_top" xlink:title=" ">
<polygon fill="white" stroke="#666666" points="924,-471 826,-471 826,-452 924,-452 924,-471"/>
<text text-anchor="middle" x="875" y="-459" font-family="Helvetica,sans-Serif" font-size="10.00">CheckGapsLength</text>
</a>
</g>
</g>
<!-- Node59&#45;&gt;Node60 -->
<g id="edge42" class="edge">
<title>Node59&#45;&gt;Node60</title>
<path fill="none" stroke="#63b8ff" d="M754.33,-374.87C762.73,-377.61 771.01,-381.36 778,-386.5 802.13,-404.26 790.14,-425.38 814,-443.5 815.33,-444.51 816.71,-445.46 818.14,-446.36"/>
<polygon fill="#63b8ff" stroke="#63b8ff" points="816.25,-449.32 826.74,-450.85 819.49,-443.12 816.25,-449.32"/>
</g>
<!-- Node62 -->
<g id="node35" class="node">
<title>Node62</title>
<g id="a_node35"><a xlink:href="TransmitterCode_2src_2main_8cpp.html#a62e53eb9359c32b666e3386d62c57037" target="_top" xlink:title=" ">
<polygon fill="white" stroke="#666666" points="911,-434 839,-434 839,-415 911,-415 911,-434"/>
<text text-anchor="middle" x="875" y="-422" font-family="Helvetica,sans-Serif" font-size="10.00">GreenLedOn</text>
</a>
</g>
</g>
<!-- Node59&#45;&gt;Node62 -->
<g id="edge44" class="edge">
<title>Node59&#45;&gt;Node62</title>
<path fill="none" stroke="#63b8ff" d="M747.42,-377.45C757.47,-380.16 768.19,-383.26 778,-386.5 781.14,-387.54 812.6,-400.02 838.66,-410.4"/>
<polygon fill="#63b8ff" stroke="#63b8ff" points="837.04,-413.52 847.63,-413.97 839.63,-407.02 837.04,-413.52"/>
</g>
<!-- Node74 -->
<g id="node40" class="node">
<title>Node74</title>
<g id="a_node40"><a xlink:href="Utilities_8h.html#a793b7bcd77531c95fe72ed4356d421c8" target="_top" xlink:title=" ">
<polygon fill="white" stroke="#666666" points="1240.5,-432 1130.5,-432 1130.5,-413 1240.5,-413 1240.5,-432"/>
<text text-anchor="middle" x="1185.5" y="-420" font-family="Helvetica,sans-Serif" font-size="10.00">StartInactvityTimeout</text>
</a>
</g>
</g>
<!-- Node59&#45;&gt;Node74 -->
<g id="edge63" class="edge">
<title>Node59&#45;&gt;Node74</title>
<path fill="none" stroke="#63b8ff" d="M754.22,-370.79C827.28,-376.19 972.03,-388.09 1094,-405.5 1103.89,-406.91 1114.34,-408.65 1124.49,-410.46"/>
<polygon fill="#63b8ff" stroke="#63b8ff" points="1123.83,-413.9 1134.3,-412.26 1125.09,-407.01 1123.83,-413.9"/>
</g>
<!-- Node76 -->
<g id="node42" class="node">
<title>Node76</title>
<g id="a_node42"><a xlink:href="transceiver_8h.html#a694f4f5a0147f4dc29b0bc1a8951547d" target="_top" xlink:title=" ">
<polygon fill="#fff0f0" stroke="red" points="922,-358 828,-358 828,-339 922,-339 922,-358"/>
<text text-anchor="middle" x="875" y="-346" font-family="Helvetica,sans-Serif" font-size="10.00">ParseAckPayload</text>
</a>
</g>
</g>
<!-- Node59&#45;&gt;Node76 -->
<g id="edge57" class="edge">
<title>Node59&#45;&gt;Node76</title>
<path fill="none" stroke="#63b8ff" d="M754.41,-362.11C773.68,-359.91 796.14,-357.36 816.35,-355.06"/>
<polygon fill="#63b8ff" stroke="#63b8ff" points="816.58,-358.56 826.12,-353.95 815.79,-351.6 816.58,-358.56"/>
</g>
<!-- Node224 -->
<g id="node43" class="node">
<title>Node224</title>
<g id="a_node43"><a xlink:href="transceiver_8h.html#a04937e814dba3f5e07cb34bb13130ff3" target="_top" xlink:title=" ">
<polygon fill="white" stroke="#666666" points="933.5,-321 816.5,-321 816.5,-302 933.5,-302 933.5,-321"/>
<text text-anchor="middle" x="875" y="-309" font-family="Helvetica,sans-Serif" font-size="10.00">ParseShortAckPayload</text>
</a>
</g>
</g>
<!-- Node59&#45;&gt;Node224 -->
<g id="edge59" class="edge">
<title>Node59&#45;&gt;Node224</title>
<path fill="none" stroke="#63b8ff" d="M735.09,-357.56C756.63,-349.99 787.13,-339.4 814,-330.5 819.56,-328.66 825.43,-326.75 831.22,-324.89"/>
<polygon fill="#63b8ff" stroke="#63b8ff" points="832.28,-328.23 840.75,-321.86 830.16,-321.56 832.28,-328.23"/>
</g>
<!-- Node61 -->
<g id="node34" class="node">
<title>Node61</title>
<g id="a_node34"><a xlink:href="TransmitterCode_2src_2main_8cpp.html#a1fadc7cdd854f8b3628b622da5417d8b" target="_top" xlink:title=" ">
<polygon fill="#fff0f0" stroke="red" points="1068,-658 998,-658 998,-639 1068,-639 1068,-658"/>
<text text-anchor="middle" x="1033" y="-646" font-family="Helvetica,sans-Serif" font-size="10.00">LogThisGap</text>
</a>
</g>
</g>
<!-- Node60&#45;&gt;Node61 -->
<g id="edge43" class="edge">
<title>Node60&#45;&gt;Node61</title>
<path fill="none" stroke="#63b8ff" d="M923.93,-471.49C928.41,-473.88 932.56,-476.84 936,-480.5 981.19,-528.56 928.62,-574.8 972,-624.5 976.3,-629.43 981.75,-633.36 987.61,-636.48"/>
<polygon fill="#63b8ff" stroke="#63b8ff" points="985.79,-639.5 996.34,-640.41 988.66,-633.11 985.79,-639.5"/>
</g>
<!-- Node62&#45;&gt;Node13 -->
<g id="edge46" class="edge">
<title>Node62&#45;&gt;Node13</title>
<path fill="none" stroke="#63b8ff" d="M911.38,-429.38C920.44,-432.19 929.47,-436.6 936,-443.5 980.16,-490.16 923.72,-541.12 972,-583.5 1013.29,-619.74 1077.74,-622.8 1124.84,-618.91"/>
<polygon fill="#63b8ff" stroke="#63b8ff" points="1124.99,-622.41 1134.61,-617.97 1124.32,-615.45 1124.99,-622.41"/>
</g>
<!-- Node62&#45;&gt;Node37 -->
<g id="edge48" class="edge">
<title>Node62&#45;&gt;Node37</title>
<path fill="none" stroke="#63b8ff" d="M911.4,-429.76C920.36,-432.57 929.32,-436.89 936,-443.5 972.55,-479.7 931.74,-521.48 972,-553.5 1020.24,-591.86 1095.55,-588.38 1142.35,-581.25"/>
<polygon fill="#63b8ff" stroke="#63b8ff" points="1142.82,-584.72 1152.11,-579.62 1141.68,-577.81 1142.82,-584.72"/>
</g>
<!-- Node63 -->
<g id="node36" class="node">
<title>Node63</title>
<g id="a_node36"><a xlink:href="Utilities_8h.html#a82b1900a80d1622896601c57d6edaeda" target="_top" xlink:title=" ">
<polygon fill="white" stroke="#666666" points="1082,-507 984,-507 984,-488 1082,-488 1082,-507"/>
<text text-anchor="middle" x="1033" y="-495" font-family="Helvetica,sans-Serif" font-size="10.00">ClearSuccessRate</text>
</a>
</g>
</g>
<!-- Node62&#45;&gt;Node63 -->
<g id="edge45" class="edge">
<title>Node62&#45;&gt;Node63</title>
<path fill="none" stroke="#63b8ff" d="M911.49,-432.66C919.87,-435.4 928.53,-438.96 936,-443.5 955.34,-455.25 952.57,-467.9 972,-479.5 974.16,-480.79 976.42,-482 978.75,-483.12"/>
<polygon fill="#63b8ff" stroke="#63b8ff" points="977.28,-486.3 987.85,-486.95 979.99,-479.85 977.28,-486.3"/>
</g>
<!-- Node64 -->
<g id="node37" class="node">
<title>Node64</title>
<g id="a_node37"><a xlink:href="TransmitterCode_2src_2main_8cpp.html#aaa3e86084c43b049d52d7d62c58a00b9" target="_top" xlink:title=" ">
<polygon fill="#fff0f0" stroke="red" points="1074,-470 992,-470 992,-451 1074,-451 1074,-470"/>
<text text-anchor="middle" x="1033" y="-458" font-family="Helvetica,sans-Serif" font-size="10.00">LogConnection</text>
</a>
</g>
</g>
<!-- Node62&#45;&gt;Node64 -->
<g id="edge47" class="edge">
<title>Node62&#45;&gt;Node64</title>
<path fill="none" stroke="#63b8ff" d="M911.4,-432.67C931.78,-437.37 957.75,-443.37 980.38,-448.59"/>
<polygon fill="#63b8ff" stroke="#63b8ff" points="979.5,-451.98 990.04,-450.82 981.08,-445.16 979.5,-451.98"/>
</g>
<!-- Node66 -->
<g id="node38" class="node">
<title>Node66</title>
<g id="a_node38"><a xlink:href="TransmitterCode_2src_2main_8cpp.html#a0689e46060ebded46afaba01b54fab8b" target="_top" xlink:title=" ">
<polygon fill="white" stroke="#666666" points="1094,-320 972,-320 972,-301 1094,-301 1094,-320"/>
<text text-anchor="middle" x="1033" y="-308" font-family="Helvetica,sans-Serif" font-size="10.00">SendInitialSetupParams</text>
</a>
</g>
</g>
<!-- Node62&#45;&gt;Node66 -->
<g id="edge49" class="edge">
<title>Node62&#45;&gt;Node66</title>
<path fill="none" stroke="#63b8ff" d="M886.78,-414.58C898.92,-403.33 919.15,-384.38 936,-367.5 952.44,-351.04 952.28,-341.85 972,-329.5 974.73,-327.79 977.64,-326.22 980.63,-324.78"/>
<polygon fill="#63b8ff" stroke="#63b8ff" points="981.81,-328.08 989.67,-320.97 979.09,-321.63 981.81,-328.08"/>
</g>
<!-- Node67 -->
<g id="node39" class="node">
<title>Node67</title>
<g id="a_node39"><a xlink:href="TransmitterCode_2src_2main_8cpp.html#a5d3a46c21927cf7a3031a1e68e0b7b48" target="_top" xlink:title="SHOW COMMS.">
<polygon fill="#fff0f0" stroke="red" points="1070.5,-544 995.5,-544 995.5,-525 1070.5,-525 1070.5,-544"/>
<text text-anchor="middle" x="1033" y="-532" font-family="Helvetica,sans-Serif" font-size="10.00">ShowComms</text>
</a>
</g>
</g>
<!-- Node62&#45;&gt;Node67 -->
<g id="edge51" class="edge">
<title>Node62&#45;&gt;Node67</title>
<path fill="none" stroke="#63b8ff" d="M911.43,-430.61C920.18,-433.42 929.04,-437.52 936,-443.5 963.44,-467.07 944.38,-493.14 972,-516.5 975.69,-519.62 979.91,-522.2 984.36,-524.33"/>
<polygon fill="#63b8ff" stroke="#63b8ff" points="983.03,-527.57 993.61,-527.99 985.6,-521.06 983.03,-527.57"/>
</g>
<!-- Node75 -->
<g id="node41" class="node">
<title>Node75</title>
<g id="a_node41"><a xlink:href="TransmitterCode_2src_2main_8cpp.html#a6da9a1fd0b003151f79eabc702ba80ff" target="_top" xlink:title=" ">
<polygon fill="white" stroke="#666666" points="1076.5,-433 989.5,-433 989.5,-414 1076.5,-414 1076.5,-433"/>
<text text-anchor="middle" x="1033" y="-421" font-family="Helvetica,sans-Serif" font-size="10.00">ZeroDataScreen</text>
</a>
</g>
</g>
<!-- Node62&#45;&gt;Node75 -->
<g id="edge56" class="edge">
<title>Node62&#45;&gt;Node75</title>
<path fill="none" stroke="#63b8ff" d="M911.4,-424.27C931.07,-424.15 955.96,-423.99 978.01,-423.85"/>
<polygon fill="#63b8ff" stroke="#63b8ff" points="977.75,-427.35 987.73,-423.78 977.71,-420.35 977.75,-427.35"/>
</g>
<!-- Node66&#45;&gt;Node6 -->
<g id="edge50" class="edge">
<title>Node66&#45;&gt;Node6</title>
<path fill="none" stroke="#63b8ff" d="M985.34,-300.55C969.73,-297.67 952.19,-294.92 936,-293.5 881.99,-288.75 867.69,-285.95 814,-293.5 732.88,-304.9 641.5,-335.54 592.21,-353.62"/>
<polygon fill="#63b8ff" stroke="#63b8ff" points="591.06,-350.32 582.9,-357.08 593.49,-356.88 591.06,-350.32"/>
</g>
<!-- Node67&#45;&gt;Node37 -->
<g id="edge52" class="edge">
<title>Node67&#45;&gt;Node37</title>
<path fill="none" stroke="#63b8ff" d="M1070.82,-543.8C1092.55,-549.28 1120.14,-556.25 1142.7,-561.94"/>
<polygon fill="#63b8ff" stroke="#63b8ff" points="1141.62,-565.28 1152.18,-564.34 1143.34,-558.5 1141.62,-565.28"/>
</g>
<!-- Node67&#45;&gt;Node38 -->
<g id="edge53" class="edge">
<title>Node67&#45;&gt;Node38</title>
<path fill="none" stroke="#63b8ff" d="M1070.77,-536.96C1120.39,-540.29 1209.05,-546.23 1265.48,-550.01"/>
<polygon fill="#63b8ff" stroke="#63b8ff" points="1264.94,-553.49 1275.16,-550.66 1265.41,-546.5 1264.94,-553.49"/>
</g>
<!-- Node67&#45;&gt;Node41 -->
<g id="edge54" class="edge">
<title>Node67&#45;&gt;Node41</title>
<path fill="none" stroke="#63b8ff" d="M1070.82,-525.2C1093.3,-519.53 1122.04,-512.27 1144.99,-506.47"/>
<polygon fill="#63b8ff" stroke="#63b8ff" points="1145.77,-509.89 1154.61,-504.05 1144.06,-503.1 1145.77,-509.89"/>
</g>
<!-- Node67&#45;&gt;Node74 -->
<g id="edge55" class="edge">
<title>Node67&#45;&gt;Node74</title>
<path fill="none" stroke="#63b8ff" d="M1070.84,-526.75C1078.81,-524.18 1086.96,-520.83 1094,-516.5 1113.81,-504.3 1113.89,-495.28 1130,-478.5 1142.31,-465.68 1156.29,-451.32 1167.01,-440.35"/>
<polygon fill="#63b8ff" stroke="#63b8ff" points="1169.26,-443.05 1173.75,-433.46 1164.26,-438.16 1169.26,-443.05"/>
</g>
<!-- Node76&#45;&gt;Node43 -->
<g id="edge58" class="edge">
<title>Node76&#45;&gt;Node43</title>
<path fill="none" stroke="#63b8ff" d="M922.38,-348.2C937.56,-348.11 954.66,-348 970.76,-347.89"/>
<polygon fill="#63b8ff" stroke="#63b8ff" points="970.77,-351.39 980.75,-347.83 970.73,-344.39 970.77,-351.39"/>
</g>
<!-- Node224&#45;&gt;Node43 -->
<g id="edge60" class="edge">
<title>Node224&#45;&gt;Node43</title>
<path fill="none" stroke="#63b8ff" d="M919.04,-321.43C937.21,-325.63 958.57,-330.55 977.8,-334.99"/>
<polygon fill="#63b8ff" stroke="#63b8ff" points="976.82,-338.36 987.35,-337.2 978.4,-331.54 976.82,-338.36"/>
</g>
<!-- Node109&#45;&gt;Node2 -->
<g id="edge65" class="edge">
<title>Node109&#45;&gt;Node2</title>
<path fill="none" stroke="#63b8ff" d="M181.73,-376.48C196.06,-388.81 221.99,-409.85 247,-423.5 249.22,-424.71 251.54,-425.88 253.91,-426.99"/>
<polygon fill="#63b8ff" stroke="#63b8ff" points="252.5,-430.2 263.07,-430.93 255.27,-423.76 252.5,-430.2"/>
</g>
<!-- Node109&#45;&gt;Node3 -->
<g id="edge66" class="edge">
<title>Node109&#45;&gt;Node3</title>
<path fill="none" stroke="#63b8ff" d="M203.21,-376.48C218.08,-381.02 235.87,-386.45 251.82,-391.32"/>
<polygon fill="#63b8ff" stroke="#63b8ff" points="250.47,-394.57 261.06,-394.14 252.52,-387.87 250.47,-394.57"/>
</g>
<!-- Node15 -->
<g id="node45" class="node">
<title>Node15</title>
<g id="a_node45"><a xlink:href="SDcard_8h.html#a9ec95181a743e446cdec2e0fbf569f2c" target="_top" xlink:title=" ">
<polygon fill="white" stroke="#666666" points="345,-377 247,-377 247,-358 345,-358 345,-377"/>
<text text-anchor="middle" x="296" y="-365" font-family="Helvetica,sans-Serif" font-size="10.00">SaveCheckSum32</text>
</a>
</g>
</g>
<!-- Node109&#45;&gt;Node15 -->
<g id="edge67" class="edge">
<title>Node109&#45;&gt;Node15</title>
<path fill="none" stroke="#63b8ff" d="M211.27,-366.83C218.98,-366.89 227.19,-366.96 235.35,-367.02"/>
<polygon fill="#63b8ff" stroke="#63b8ff" points="235.23,-370.52 245.26,-367.1 235.29,-363.52 235.23,-370.52"/>
</g>
<!-- Node19 -->
<g id="node49" class="node">
<title>Node19</title>
<g id="a_node49"><a xlink:href="SDcard_8h.html#a512ed84f4270bd62e922cd7dd82fd427" target="_top" xlink:title=" ">
<polygon fill="white" stroke="#666666" points="473,-340 384,-340 384,-321 473,-321 473,-340"/>
<text text-anchor="middle" x="428.5" y="-328" font-family="Helvetica,sans-Serif" font-size="10.00">SDUpdate8BITS</text>
</a>
</g>
</g>
<!-- Node109&#45;&gt;Node19 -->
<g id="edge77" class="edge">
<title>Node109&#45;&gt;Node19</title>
<path fill="none" stroke="#63b8ff" d="M211.23,-356.55C222.74,-353.98 235.32,-351.41 247,-349.5 288.81,-342.68 336.49,-337.78 372.34,-334.67"/>
<polygon fill="#63b8ff" stroke="#63b8ff" points="372.37,-338.18 382.04,-333.85 371.78,-331.2 372.37,-338.18"/>
</g>
<!-- Node20 -->
<g id="node50" class="node">
<title>Node20</title>
<g id="a_node50"><a xlink:href="SDcard_8h.html#a7bef1afdf8ed9f50caed67e53c144dfe" target="_top" xlink:title=" ">
<polygon fill="white" stroke="#666666" points="476,-303 381,-303 381,-284 476,-284 476,-303"/>
<text text-anchor="middle" x="428.5" y="-291" font-family="Helvetica,sans-Serif" font-size="10.00">SDUpdate16BITS</text>
</a>
</g>
</g>
<!-- Node109&#45;&gt;Node20 -->
<g id="edge74" class="edge">
<title>Node109&#45;&gt;Node20</title>
<path fill="none" stroke="#63b8ff" d="M189.88,-356.56C205.08,-349.08 226.97,-339.04 247,-332.5 287.15,-319.39 333.78,-309.45 369.59,-302.88"/>
<polygon fill="#63b8ff" stroke="#63b8ff" points="370.09,-306.35 379.32,-301.14 368.86,-299.46 370.09,-306.35"/>
</g>
<!-- Node16 -->
<g id="node46" class="node">
<title>Node16</title>
<g id="a_node46"><a xlink:href="SDcard_8h.html#a82e989b70d0f68854ead6262993255cc" target="_top" xlink:title=" ">
<polygon fill="white" stroke="#666666" points="476,-377 381,-377 381,-358 476,-358 476,-377"/>
<text text-anchor="middle" x="428.5" y="-365" font-family="Helvetica,sans-Serif" font-size="10.00">SDUpdate32BITS</text>
</a>
</g>
</g>
<!-- Node15&#45;&gt;Node16 -->
<g id="edge68" class="edge">
<title>Node15&#45;&gt;Node16</title>
<path fill="none" stroke="#63b8ff" d="M345.22,-367.5C353.12,-367.5 361.37,-367.5 369.48,-367.5"/>
<polygon fill="#63b8ff" stroke="#63b8ff" points="369.26,-371 379.26,-367.5 369.26,-364 369.26,-371"/>
</g>
<!-- Node15&#45;&gt;Node19 -->
<g id="edge71" class="edge">
<title>Node15&#45;&gt;Node19</title>
<path fill="none" stroke="#63b8ff" d="M331.97,-357.58C347.18,-353.27 365.22,-348.16 381.5,-343.54"/>
<polygon fill="#63b8ff" stroke="#63b8ff" points="382.31,-346.95 390.98,-340.86 380.4,-340.22 382.31,-346.95"/>
</g>
<!-- Node17 -->
<g id="node47" class="node">
<title>Node17</title>
<g id="a_node47"><a xlink:href="SDcard_8h.html#addfb17077b6300576f07ef8c17f88581" target="_top" xlink:title=" ">
<polygon fill="white" stroke="#666666" points="598,-340 512,-340 512,-321 598,-321 598,-340"/>
<text text-anchor="middle" x="555" y="-328" font-family="Helvetica,sans-Serif" font-size="10.00">BuildCheckSum</text>
</a>
</g>
</g>
<!-- Node16&#45;&gt;Node17 -->
<g id="edge69" class="edge">
<title>Node16&#45;&gt;Node17</title>
<path fill="none" stroke="#63b8ff" d="M462.86,-357.58C477.24,-353.31 494.25,-348.26 509.67,-343.68"/>
<polygon fill="#63b8ff" stroke="#63b8ff" points="510.5,-347.08 519.09,-340.87 508.51,-340.37 510.5,-347.08"/>
</g>
<!-- Node18 -->
<g id="node48" class="node">
<title>Node18</title>
<g id="a_node48"><a xlink:href="SDcard_8h.html#aa5479d4f80459a9530b2e538f4048eb5" target="_top" xlink:title=" ">
<polygon fill="white" stroke="#666666" points="587,-303 523,-303 523,-284 587,-284 587,-303"/>
<text text-anchor="middle" x="555" y="-291" font-family="Helvetica,sans-Serif" font-size="10.00">ShortDelay</text>
</a>
</g>
</g>
<!-- Node16&#45;&gt;Node18 -->
<g id="edge70" class="edge">
<title>Node16&#45;&gt;Node18</title>
<path fill="none" stroke="#63b8ff" d="M460.45,-357.68C465.84,-355.37 471.23,-352.65 476,-349.5 495.14,-336.85 493.22,-325.68 512,-312.5 513.82,-311.22 515.74,-310 517.71,-308.84"/>
<polygon fill="#63b8ff" stroke="#63b8ff" points="519.29,-311.96 526.51,-304.2 516.03,-305.76 519.29,-311.96"/>
</g>
<!-- Node19&#45;&gt;Node17 -->
<g id="edge72" class="edge">
<title>Node19&#45;&gt;Node17</title>
<path fill="none" stroke="#63b8ff" d="M473.39,-330.5C482.16,-330.5 491.45,-330.5 500.49,-330.5"/>
<polygon fill="#63b8ff" stroke="#63b8ff" points="500.24,-334 510.24,-330.5 500.24,-327 500.24,-334"/>
</g>
<!-- Node19&#45;&gt;Node18 -->
<g id="edge73" class="edge">
<title>Node19&#45;&gt;Node18</title>
<path fill="none" stroke="#63b8ff" d="M462.86,-320.58C477.96,-316.1 495.97,-310.74 511.98,-305.99"/>
<polygon fill="#63b8ff" stroke="#63b8ff" points="512.65,-309.44 521.24,-303.24 510.65,-302.73 512.65,-309.44"/>
</g>
<!-- Node20&#45;&gt;Node17 -->
<g id="edge75" class="edge">
<title>Node20&#45;&gt;Node17</title>
<path fill="none" stroke="#63b8ff" d="M462.86,-303.42C477.24,-307.69 494.25,-312.74 509.67,-317.32"/>
<polygon fill="#63b8ff" stroke="#63b8ff" points="508.51,-320.63 519.09,-320.13 510.5,-313.92 508.51,-320.63"/>
</g>
<!-- Node20&#45;&gt;Node18 -->
<g id="edge76" class="edge">
<title>Node20&#45;&gt;Node18</title>
<path fill="none" stroke="#63b8ff" d="M476.21,-293.5C487.68,-293.5 499.91,-293.5 511.18,-293.5"/>
<polygon fill="#63b8ff" stroke="#63b8ff" points="511.01,-297 521.01,-293.5 511.01,-290 511.01,-297"/>
</g>
</g>
</svg>
