<?xml version="1.0" encoding="UTF-8" standalone="no"?>
<!DOCTYPE svg PUBLIC "-//W3C//DTD SVG 1.1//EN"
 "http://www.w3.org/Graphics/SVG/1.1/DTD/svg11.dtd">
<!-- Generated by graphviz version 9.0.0 (20230911.1827)
 -->
<!-- Title: StartRenameModel Pages: 1 -->
<svg width="1086pt" height="1198pt"
 viewBox="0.00 0.00 1086.25 1197.62" xmlns="http://www.w3.org/2000/svg" xmlns:xlink="http://www.w3.org/1999/xlink">
<g id="graph0" class="graph" transform="scale(1 1) rotate(0) translate(4 1193.62)">
<title>StartRenameModel</title>
<!-- Node1 -->
<g id="Node000001" class="node">
<title>Node1</title>
<g id="a_Node000001"><a xlink:title=" ">
<polygon fill="#999999" stroke="#666666" points="99.25,-47.62 0,-47.62 0,-28.38 99.25,-28.38 99.25,-47.62"/>
<text text-anchor="middle" x="49.62" y="-34.12" font-family="Helvetica,sans-Serif" font-size="10.00">StartRenameModel</text>
</a>
</g>
</g>
<!-- Node2 -->
<g id="Node000002" class="node">
<title>Node2</title>
<g id="a_Node000002"><a xlink:href="Nextion_8h.html#aecac2f0c289f02ef3c92b85be82eacac" target="_top" xlink:title=" ">
<polygon fill="white" stroke="#666666" points="218,-104.62 135.25,-104.62 135.25,-85.38 218,-85.38 218,-104.62"/>
<text text-anchor="middle" x="176.62" y="-91.12" font-family="Helvetica,sans-Serif" font-size="10.00">SendCommand</text>
</a>
</g>
</g>
<!-- Node1&#45;&gt;Node2 -->
<g id="edge1_Node000001_Node000002" class="edge">
<title>Node1&#45;&gt;Node2</title>
<g id="a_edge1_Node000001_Node000002"><a xlink:title=" ">
<path fill="none" stroke="#63b8ff" d="M72.68,-48.06C92.32,-57.01 121.29,-70.22 143.5,-80.35"/>
<polygon fill="#63b8ff" stroke="#63b8ff" points="141.86,-83.45 152.41,-84.41 144.76,-77.08 141.86,-83.45"/>
</a>
</g>
</g>
<!-- Node57 -->
<g id="Node000057" class="node">
<title>Node57</title>
<g id="a_Node000057"><a xlink:href="Nextion_8h.html#afe513398f72d5e48f691830a1ef6eb42" target="_top" xlink:title=" ">
<polygon fill="white" stroke="#666666" points="949.75,-104.62 892.5,-104.62 892.5,-85.38 949.75,-85.38 949.75,-104.62"/>
<text text-anchor="middle" x="921.12" y="-91.12" font-family="Helvetica,sans-Serif" font-size="10.00">SendText</text>
</a>
</g>
</g>
<!-- Node1&#45;&gt;Node57 -->
<g id="edge60_Node000001_Node000057" class="edge">
<title>Node1&#45;&gt;Node57</title>
<g id="a_edge60_Node000001_Node000057"><a xlink:title=" ">
<path fill="none" stroke="#63b8ff" d="M89.94,-27.92C137.36,-16.66 219.65,0 291.38,0 291.38,0 291.38,0 592.75,0 706.21,0 833.34,-53.28 890.03,-80.04"/>
<polygon fill="#63b8ff" stroke="#63b8ff" points="888.51,-83.19 899.04,-84.36 891.53,-76.88 888.51,-83.19"/>
</a>
</g>
</g>
<!-- Node3 -->
<g id="Node000003" class="node">
<title>Node3</title>
<g id="a_Node000003"><a xlink:href="Utilities_8h.html#a3b1d8aa403e2724e55c71da3d9d13e7e" target="_top" xlink:title=" ">
<polygon fill="white" stroke="#666666" points="330.75,-741.62 254,-741.62 254,-722.38 330.75,-722.38 330.75,-741.62"/>
<text text-anchor="middle" x="292.38" y="-728.12" font-family="Helvetica,sans-Serif" font-size="10.00">DelayWithDog</text>
</a>
</g>
</g>
<!-- Node2&#45;&gt;Node3 -->
<g id="edge2_Node000002_Node000003" class="edge">
<title>Node2&#45;&gt;Node3</title>
<g id="a_edge2_Node000002_Node000003"><a xlink:title=" ">
<path fill="none" stroke="#63b8ff" d="M179.41,-105.01C192.18,-176.5 269.56,-609.82 287.61,-710.92"/>
<polygon fill="#63b8ff" stroke="#63b8ff" points="284.12,-711.3 289.33,-720.53 291.01,-710.07 284.12,-711.3"/>
</a>
</g>
</g>
<!-- Node58 -->
<g id="Node000058" class="node">
<title>Node58</title>
<g id="a_Node000058"><a xlink:href="Nextion_8h.html#a43937dd3d9c795271fd9c3eb3c6b6410" target="_top" xlink:title=" ">
<polygon fill="white" stroke="#666666" points="1078.25,-66.62 995.5,-66.62 995.5,-47.38 1078.25,-47.38 1078.25,-66.62"/>
<text text-anchor="middle" x="1036.88" y="-53.12" font-family="Helvetica,sans-Serif" font-size="10.00">GetReturnCode</text>
</a>
</g>
</g>
<!-- Node2&#45;&gt;Node58 -->
<g id="edge58_Node000002_Node000058" class="edge">
<title>Node2&#45;&gt;Node58</title>
<g id="a_edge58_Node000002_Node000058"><a xlink:title=" ">
<path fill="none" stroke="#63b8ff" d="M193.63,-84.95C208.63,-76.05 231.98,-63.48 254,-57 327.09,-35.48 348.18,-38 424.38,-38 424.38,-38 424.38,-38 774.12,-38 846.98,-38 930.95,-45.41 983.72,-50.98"/>
<polygon fill="#63b8ff" stroke="#63b8ff" points="983.32,-54.46 993.63,-52.04 984.06,-47.5 983.32,-54.46"/>
</a>
</g>
</g>
<!-- Node144 -->
<g id="Node000144" class="node">
<title>Node144</title>
<g id="a_Node000144"><a xlink:href="TransmitterCode_2src_2main_8cpp.html#a5f109790a6fe0b972a502f3cac4ed1e7" target="_top" xlink:title=" ">
<polygon fill="white" stroke="#666666" points="316.12,-85.62 268.62,-85.62 268.62,-66.38 316.12,-66.38 316.12,-85.62"/>
<text text-anchor="middle" x="292.38" y="-72.12" font-family="Helvetica,sans-Serif" font-size="10.00">InStrng</text>
</a>
</g>
</g>
<!-- Node2&#45;&gt;Node144 -->
<g id="edge59_Node000002_Node000144" class="edge">
<title>Node2&#45;&gt;Node144</title>
<g id="a_edge59_Node000002_Node000144"><a xlink:title=" ">
<path fill="none" stroke="#63b8ff" d="M218.37,-88.19C231.12,-86.06 245.06,-83.74 257.3,-81.69"/>
<polygon fill="#63b8ff" stroke="#63b8ff" points="257.65,-85.18 266.94,-80.08 256.5,-78.28 257.65,-85.18"/>
</a>
</g>
</g>
<!-- Node4 -->
<g id="Node000004" class="node">
<title>Node4</title>
<g id="a_Node000004"><a xlink:href="TransmitterCode_2src_2main_8cpp.html#ab584ae7dbc9b1af37538f91b00b8927f" target="_top" xlink:title=" ">
<polygon fill="white" stroke="#666666" points="469.75,-813.62 381,-813.62 381,-794.38 469.75,-794.38 469.75,-813.62"/>
<text text-anchor="middle" x="425.38" y="-800.12" font-family="Helvetica,sans-Serif" font-size="10.00">FixMotorChannel</text>
</a>
</g>
</g>
<!-- Node3&#45;&gt;Node4 -->
<g id="edge3_Node000003_Node000004" class="edge">
<title>Node3&#45;&gt;Node4</title>
<g id="a_edge3_Node000003_Node000004"><a xlink:title=" ">
<path fill="none" stroke="#63b8ff" d="M311.59,-742.01C333.59,-754.1 370.82,-774.56 396.45,-788.65"/>
<polygon fill="#63b8ff" stroke="#63b8ff" points="394.54,-791.6 404.99,-793.34 397.91,-785.46 394.54,-791.6"/>
</a>
</g>
</g>
<!-- Node6 -->
<g id="Node000006" class="node">
<title>Node6</title>
<g id="a_Node000006"><a xlink:href="TransmitterCode_2src_2main_8cpp.html#a26ae4f6ca14f760bd5eb6e7588fe7c81" target="_top" xlink:title="GET NEW SERVO POSITIONS.">
<polygon fill="white" stroke="#666666" points="484,-1041.62 366.75,-1041.62 366.75,-1022.38 484,-1022.38 484,-1041.62"/>
<text text-anchor="middle" x="425.38" y="-1028.12" font-family="Helvetica,sans-Serif" font-size="10.00">GetNewChannelValues</text>
</a>
</g>
</g>
<!-- Node3&#45;&gt;Node6 -->
<g id="edge5_Node000003_Node000006" class="edge">
<title>Node3&#45;&gt;Node6</title>
<g id="a_edge5_Node000003_Node000006"><a xlink:title=" ">
<path fill="none" stroke="#63b8ff" d="M297.73,-741.98C316.38,-784.69 389.67,-952.53 415.39,-1011.43"/>
<polygon fill="#63b8ff" stroke="#63b8ff" points="412.18,-1012.83 419.39,-1020.59 418.6,-1010.03 412.18,-1012.83"/>
</a>
</g>
</g>
<!-- Node21 -->
<g id="Node000021" class="node">
<title>Node21</title>
<g id="a_Node000021"><a xlink:href="Utilities_8h.html#ada95a00a341e4a80176eda743a94ab2e" target="_top" xlink:title=" ">
<polygon fill="white" stroke="#666666" points="460,-741.62 390.75,-741.62 390.75,-722.38 460,-722.38 460,-741.62"/>
<text text-anchor="middle" x="425.38" y="-728.12" font-family="Helvetica,sans-Serif" font-size="10.00">KickTheDog</text>
</a>
</g>
</g>
<!-- Node3&#45;&gt;Node21 -->
<g id="edge20_Node000003_Node000021" class="edge">
<title>Node3&#45;&gt;Node21</title>
<g id="a_edge20_Node000003_Node000021"><a xlink:title=" ">
<path fill="none" stroke="#63b8ff" d="M330.91,-732C346,-732 363.53,-732 379.3,-732"/>
<polygon fill="#63b8ff" stroke="#63b8ff" points="378.9,-735.5 388.9,-732 378.9,-728.5 378.9,-735.5"/>
</a>
</g>
</g>
<!-- Node22 -->
<g id="Node000022" class="node">
<title>Node22</title>
<g id="a_Node000022"><a xlink:href="transceiver_8h.html#a049bfb836e7aa4a3a48a1a4bd225fafc" target="_top" xlink:title=" ">
<polygon fill="white" stroke="#666666" points="454.75,-686.62 396,-686.62 396,-667.38 454.75,-667.38 454.75,-686.62"/>
<text text-anchor="middle" x="425.38" y="-673.12" font-family="Helvetica,sans-Serif" font-size="10.00">SendData</text>
</a>
</g>
</g>
<!-- Node3&#45;&gt;Node22 -->
<g id="edge21_Node000003_Node000022" class="edge">
<title>Node3&#45;&gt;Node22</title>
<g id="a_edge21_Node000003_Node000022"><a xlink:title=" ">
<path fill="none" stroke="#63b8ff" d="M317.4,-721.91C337.72,-713.38 367.07,-701.06 389.89,-691.48"/>
<polygon fill="#63b8ff" stroke="#63b8ff" points="391.24,-694.71 399.1,-687.61 388.53,-688.25 391.24,-694.71"/>
</a>
</g>
</g>
<!-- Node5 -->
<g id="Node000005" class="node">
<title>Node5</title>
<g id="a_Node000005"><a xlink:href="Utilities_8h.html#a0d8d8a0d67cb9b04481f1692abe75368" target="_top" xlink:title=" ">
<polygon fill="white" stroke="#666666" points="812.25,-930.62 734,-930.62 734,-911.38 812.25,-911.38 812.25,-930.62"/>
<text text-anchor="middle" x="773.12" y="-917.12" font-family="Helvetica,sans-Serif" font-size="10.00">IntoHigherRes</text>
</a>
</g>
</g>
<!-- Node4&#45;&gt;Node5 -->
<g id="edge4_Node000004_Node000005" class="edge">
<title>Node4&#45;&gt;Node5</title>
<g id="a_edge4_Node000004_Node000005"><a xlink:title=" ">
<path fill="none" stroke="#63b8ff" d="M455.45,-814C505.33,-831.14 610.45,-867.15 699.5,-897 709.58,-900.38 720.45,-903.99 730.64,-907.36"/>
<polygon fill="#63b8ff" stroke="#63b8ff" points="729.33,-910.61 739.92,-910.42 731.53,-903.96 729.33,-910.61"/>
</a>
</g>
</g>
<!-- Node7 -->
<g id="Node000007" class="node">
<title>Node7</title>
<g id="a_Node000007"><a xlink:href="TransmitterCode_2src_2main_8cpp.html#af518bb2cfb3cfe18d491b2a5d6bf7dcc" target="_top" xlink:title=" ">
<polygon fill="white" stroke="#666666" points="642.88,-1189.62 540.62,-1189.62 540.62,-1170.38 642.88,-1170.38 642.88,-1189.62"/>
<text text-anchor="middle" x="591.75" y="-1176.12" font-family="Helvetica,sans-Serif" font-size="10.00">CalculateAllOutputs</text>
</a>
</g>
</g>
<!-- Node6&#45;&gt;Node7 -->
<g id="edge6_Node000006_Node000007" class="edge">
<title>Node6&#45;&gt;Node7</title>
<g id="a_edge6_Node000006_Node000007"><a xlink:title=" ">
<path fill="none" stroke="#63b8ff" d="M430.59,-1041.96C441.5,-1066.47 473.1,-1130.06 520,-1162 523.04,-1164.07 526.3,-1165.9 529.68,-1167.52"/>
<polygon fill="#63b8ff" stroke="#63b8ff" points="528.17,-1170.68 538.75,-1171.21 530.81,-1164.2 528.17,-1170.68"/>
</a>
</g>
</g>
<!-- Node11 -->
<g id="Node000011" class="node">
<title>Node11</title>
<g id="a_Node000011"><a xlink:href="TransmitterCode_2src_2main_8cpp.html#acd70b997cf150e55d943df5d6f1cff51" target="_top" xlink:title=" ">
<polygon fill="white" stroke="#666666" points="646.25,-1115.62 537.25,-1115.62 537.25,-1096.38 646.25,-1096.38 646.25,-1115.62"/>
<text text-anchor="middle" x="591.75" y="-1102.12" font-family="Helvetica,sans-Serif" font-size="10.00">DoTrimsAndSubtrims</text>
</a>
</g>
</g>
<!-- Node6&#45;&gt;Node11 -->
<g id="edge9_Node000006_Node000011" class="edge">
<title>Node6&#45;&gt;Node11</title>
<g id="a_edge9_Node000006_Node000011"><a xlink:title=" ">
<path fill="none" stroke="#63b8ff" d="M440.28,-1042.09C458,-1054.51 489.92,-1075.49 520,-1088 524.03,-1089.68 528.26,-1091.23 532.56,-1092.66"/>
<polygon fill="#63b8ff" stroke="#63b8ff" points="531.28,-1095.93 541.87,-1095.52 533.34,-1089.24 531.28,-1095.93"/>
</a>
</g>
</g>
<!-- Node13 -->
<g id="Node000013" class="node">
<title>Node13</title>
<g id="a_Node000013"><a xlink:href="TransmitterCode_2src_2main_8cpp.html#a15d8fbd5988e76a16e33e7f620804009" target="_top" xlink:title=" ">
<polygon fill="white" stroke="#666666" points="626.75,-967.62 556.75,-967.62 556.75,-948.38 626.75,-948.38 626.75,-967.62"/>
<text text-anchor="middle" x="591.75" y="-954.12" font-family="Helvetica,sans-Serif" font-size="10.00">GetAllInputs</text>
</a>
</g>
</g>
<!-- Node6&#45;&gt;Node13 -->
<g id="edge11_Node000006_Node000013" class="edge">
<title>Node6&#45;&gt;Node13</title>
<g id="a_edge11_Node000006_Node000013"><a xlink:title=" ">
<path fill="none" stroke="#63b8ff" d="M440.28,-1021.91C458,-1009.49 489.92,-988.51 520,-976 527.97,-972.68 536.72,-969.86 545.25,-967.5"/>
<polygon fill="#63b8ff" stroke="#63b8ff" points="546,-970.92 554.81,-965.03 544.25,-964.14 546,-970.92"/>
</a>
</g>
</g>
<!-- Node16 -->
<g id="Node000016" class="node">
<title>Node16</title>
<g id="a_Node000016"><a xlink:href="Mixes_8h.html#a5aa9208b1f2a522a0cdb348301fe0593" target="_top" xlink:title=" ">
<polygon fill="white" stroke="#666666" points="620.75,-1152.62 562.75,-1152.62 562.75,-1133.38 620.75,-1133.38 620.75,-1152.62"/>
<text text-anchor="middle" x="591.75" y="-1139.12" font-family="Helvetica,sans-Serif" font-size="10.00">MixInputs</text>
</a>
</g>
</g>
<!-- Node6&#45;&gt;Node16 -->
<g id="edge14_Node000006_Node000016" class="edge">
<title>Node6&#45;&gt;Node16</title>
<g id="a_edge14_Node000006_Node000016"><a xlink:title=" ">
<path fill="none" stroke="#63b8ff" d="M433.39,-1041.87C447.5,-1060.98 481.33,-1103.09 520,-1125 529.56,-1130.42 540.75,-1134.23 551.38,-1136.9"/>
<polygon fill="#63b8ff" stroke="#63b8ff" points="550.58,-1140.31 561.1,-1139.05 552.09,-1133.47 550.58,-1140.31"/>
</a>
</g>
</g>
<!-- Node17 -->
<g id="Node000017" class="node">
<title>Node17</title>
<g id="a_Node000017"><a xlink:href="Mixes_8h.html#a376c11f3a285138341edc0783f930ff3" target="_top" xlink:title=" ">
<polygon fill="white" stroke="#666666" points="624.5,-930.62 559,-930.62 559,-911.38 624.5,-911.38 624.5,-930.62"/>
<text text-anchor="middle" x="591.75" y="-917.12" font-family="Helvetica,sans-Serif" font-size="10.00">MixOutputs</text>
</a>
</g>
</g>
<!-- Node6&#45;&gt;Node17 -->
<g id="edge15_Node000006_Node000017" class="edge">
<title>Node6&#45;&gt;Node17</title>
<g id="a_edge15_Node000006_Node000017"><a xlink:title=" ">
<path fill="none" stroke="#63b8ff" d="M433.39,-1022.13C447.5,-1003.02 481.33,-960.91 520,-939 528.48,-934.19 538.25,-930.65 547.77,-928.05"/>
<polygon fill="#63b8ff" stroke="#63b8ff" points="548.37,-931.5 557.27,-925.75 546.72,-924.7 548.37,-931.5"/>
</a>
</g>
</g>
<!-- Node18 -->
<g id="Node000018" class="node">
<title>Node18</title>
<g id="a_Node000018"><a xlink:href="TransmitterCode_2src_2main_8cpp.html#a92bb36e29cd297189daefb3b79deaac3" target="_top" xlink:title=" ">
<polygon fill="white" stroke="#666666" points="633.88,-1078.62 549.62,-1078.62 549.62,-1059.38 633.88,-1059.38 633.88,-1078.62"/>
<text text-anchor="middle" x="591.75" y="-1065.12" font-family="Helvetica,sans-Serif" font-size="10.00">RerouteOutputs</text>
</a>
</g>
</g>
<!-- Node6&#45;&gt;Node18 -->
<g id="edge17_Node000006_Node000018" class="edge">
<title>Node6&#45;&gt;Node18</title>
<g id="a_edge17_Node000006_Node000018"><a xlink:title=" ">
<path fill="none" stroke="#63b8ff" d="M471.29,-1042.11C492.01,-1046.77 516.75,-1052.34 538.32,-1057.2"/>
<polygon fill="#63b8ff" stroke="#63b8ff" points="537.27,-1060.55 547.79,-1059.33 538.81,-1053.72 537.27,-1060.55"/>
</a>
</g>
</g>
<!-- Node19 -->
<g id="Node000019" class="node">
<title>Node19</title>
<g id="a_Node000019"><a xlink:href="Utilities_8h.html#a2d10590a11f1790e37c47f70f294f10d" target="_top" xlink:title=" ">
<polygon fill="white" stroke="#666666" points="630.5,-1041.62 553,-1041.62 553,-1022.38 630.5,-1022.38 630.5,-1041.62"/>
<text text-anchor="middle" x="591.75" y="-1028.12" font-family="Helvetica,sans-Serif" font-size="10.00">ServoReverse</text>
</a>
</g>
</g>
<!-- Node6&#45;&gt;Node19 -->
<g id="edge18_Node000006_Node000019" class="edge">
<title>Node6&#45;&gt;Node19</title>
<g id="a_edge18_Node000006_Node000019"><a xlink:title=" ">
<path fill="none" stroke="#63b8ff" d="M484.33,-1032C502.98,-1032 523.46,-1032 541.43,-1032"/>
<polygon fill="#63b8ff" stroke="#63b8ff" points="541.32,-1035.5 551.32,-1032 541.32,-1028.5 541.32,-1035.5"/>
</a>
</g>
</g>
<!-- Node20 -->
<g id="Node000020" class="node">
<title>Node20</title>
<g id="a_Node000020"><a xlink:href="TransmitterCode_2src_2main_8cpp.html#a73d05c890a6a5f7b493e6aefb497d869" target="_top" xlink:title=" ">
<polygon fill="white" stroke="#666666" points="634.25,-1004.62 549.25,-1004.62 549.25,-985.38 634.25,-985.38 634.25,-1004.62"/>
<text text-anchor="middle" x="591.75" y="-991.12" font-family="Helvetica,sans-Serif" font-size="10.00">SlowAnyServos</text>
</a>
</g>
</g>
<!-- Node6&#45;&gt;Node20 -->
<g id="edge19_Node000006_Node000020" class="edge">
<title>Node6&#45;&gt;Node20</title>
<g id="a_edge19_Node000006_Node000020"><a xlink:title=" ">
<path fill="none" stroke="#63b8ff" d="M471.29,-1021.89C491.84,-1017.26 516.33,-1011.75 537.77,-1006.93"/>
<polygon fill="#63b8ff" stroke="#63b8ff" points="538.53,-1010.34 547.52,-1004.73 536.99,-1003.51 538.53,-1010.34"/>
</a>
</g>
</g>
<!-- Node8 -->
<g id="Node000008" class="node">
<title>Node8</title>
<g id="a_Node000008"><a xlink:href="Rates_8h.html#af9c038b48102eca9032f10fefd9d5736" target="_top" xlink:title=" ">
<polygon fill="#fff0f0" stroke="red" points="811.88,-1189.62 734.38,-1189.62 734.38,-1170.38 811.88,-1170.38 811.88,-1189.62"/>
<text text-anchor="middle" x="773.12" y="-1176.12" font-family="Helvetica,sans-Serif" font-size="10.00">GetCurveDots</text>
</a>
</g>
</g>
<!-- Node7&#45;&gt;Node8 -->
<g id="edge7_Node000007_Node000008" class="edge">
<title>Node7&#45;&gt;Node8</title>
<g id="a_edge7_Node000007_Node000008"><a xlink:title=" ">
<path fill="none" stroke="#63b8ff" d="M643.19,-1180C668.06,-1180 697.94,-1180 722.68,-1180"/>
<polygon fill="#63b8ff" stroke="#63b8ff" points="722.49,-1183.5 732.49,-1180 722.49,-1176.5 722.49,-1183.5"/>
</a>
</g>
</g>
<!-- Node9 -->
<g id="Node000009" class="node">
<title>Node9</title>
<g id="a_Node000009"><a xlink:href="Rates_8h.html#afeabb54d48ef7e55693014e057d2943d" target="_top" xlink:title=" ">
<polygon fill="white" stroke="#666666" points="959.5,-1189.62 882.75,-1189.62 882.75,-1170.38 959.5,-1170.38 959.5,-1189.62"/>
<text text-anchor="middle" x="921.12" y="-1176.12" font-family="Helvetica,sans-Serif" font-size="10.00">CalculateRate</text>
</a>
</g>
</g>
<!-- Node8&#45;&gt;Node9 -->
<g id="edge8_Node000008_Node000009" class="edge">
<title>Node8&#45;&gt;Node9</title>
<g id="a_edge8_Node000008_Node000009"><a xlink:title=" ">
<path fill="none" stroke="#63b8ff" d="M812.1,-1180C830.1,-1180 851.82,-1180 871.05,-1180"/>
<polygon fill="#63b8ff" stroke="#63b8ff" points="870.82,-1183.5 880.82,-1180 870.82,-1176.5 870.82,-1183.5"/>
</a>
</g>
</g>
<!-- Node12 -->
<g id="Node000012" class="node">
<title>Node12</title>
<g id="a_Node000012"><a xlink:href="Trims_8h.html#aacd8b022714bb89847239dd878ad9509" target="_top" xlink:title=" ">
<polygon fill="white" stroke="#666666" points="815.62,-1115.62 730.62,-1115.62 730.62,-1096.38 815.62,-1096.38 815.62,-1115.62"/>
<text text-anchor="middle" x="773.12" y="-1102.12" font-family="Helvetica,sans-Serif" font-size="10.00">GetTrimAmount</text>
</a>
</g>
</g>
<!-- Node11&#45;&gt;Node12 -->
<g id="edge10_Node000011_Node000012" class="edge">
<title>Node11&#45;&gt;Node12</title>
<g id="a_edge10_Node000011_Node000012"><a xlink:title=" ">
<path fill="none" stroke="#63b8ff" d="M646.57,-1106C669.52,-1106 696.23,-1106 719.09,-1106"/>
<polygon fill="#63b8ff" stroke="#63b8ff" points="718.8,-1109.5 728.8,-1106 718.8,-1102.5 718.8,-1109.5"/>
</a>
</g>
</g>
<!-- Node14 -->
<g id="Node000014" class="node">
<title>Node14</title>
<g id="a_Node000014"><a xlink:href="TransmitterCode_2src_2main_8cpp.html#ac5728db610c441820a6f47295967cbab" target="_top" xlink:title=" ">
<polygon fill="white" stroke="#666666" points="812.62,-1004.62 733.62,-1004.62 733.62,-985.38 812.62,-985.38 812.62,-1004.62"/>
<text text-anchor="middle" x="773.12" y="-991.12" font-family="Helvetica,sans-Serif" font-size="10.00">AnalogueReed</text>
</a>
</g>
</g>
<!-- Node13&#45;&gt;Node14 -->
<g id="edge12_Node000013_Node000014" class="edge">
<title>Node13&#45;&gt;Node14</title>
<g id="a_edge12_Node000013_Node000014"><a xlink:title=" ">
<path fill="none" stroke="#63b8ff" d="M626.91,-965.05C653.86,-970.61 691.84,-978.44 722.2,-984.7"/>
<polygon fill="#63b8ff" stroke="#63b8ff" points="721.44,-988.12 731.94,-986.71 722.85,-981.26 721.44,-988.12"/>
</a>
</g>
</g>
<!-- Node15 -->
<g id="Node000015" class="node">
<title>Node15</title>
<g id="a_Node000015"><a xlink:href="TransmitterCode_2src_2main_8cpp.html#a787973ed0df098048a54e5110896eeb6" target="_top" xlink:title=" ">
<polygon fill="white" stroke="#666666" points="837.38,-967.62 708.88,-967.62 708.88,-948.38 837.38,-948.38 837.38,-967.62"/>
<text text-anchor="middle" x="773.12" y="-954.12" font-family="Helvetica,sans-Serif" font-size="10.00">ReadThreePositionSwitch</text>
</a>
</g>
</g>
<!-- Node13&#45;&gt;Node15 -->
<g id="edge13_Node000013_Node000015" class="edge">
<title>Node13&#45;&gt;Node15</title>
<g id="a_edge13_Node000013_Node000015"><a xlink:title=" ">
<path fill="none" stroke="#63b8ff" d="M626.91,-958C646.83,-958 672.77,-958 697.21,-958"/>
<polygon fill="#63b8ff" stroke="#63b8ff" points="697.17,-961.5 707.17,-958 697.17,-954.5 697.17,-961.5"/>
</a>
</g>
</g>
<!-- Node17&#45;&gt;Node5 -->
<g id="edge16_Node000017_Node000005" class="edge">
<title>Node17&#45;&gt;Node5</title>
<g id="a_edge16_Node000017_Node000005"><a xlink:title=" ">
<path fill="none" stroke="#63b8ff" d="M624.82,-921C651.89,-921 691.12,-921 722.28,-921"/>
<polygon fill="#63b8ff" stroke="#63b8ff" points="722.28,-924.5 732.28,-921 722.28,-917.5 722.28,-924.5"/>
</a>
</g>
</g>
<!-- Node23 -->
<g id="Node000023" class="node">
<title>Node23</title>
<g id="a_Node000023"><a xlink:href="transceiver_8h.html#a1ddd5e8d5bd649dd98ce3710fbff651b" target="_top" xlink:title=" ">
<polygon fill="white" stroke="#666666" points="621.88,-705.62 561.62,-705.62 561.62,-686.38 621.88,-686.38 621.88,-705.62"/>
<text text-anchor="middle" x="591.75" y="-692.12" font-family="Helvetica,sans-Serif" font-size="10.00">Compress</text>
</a>
</g>
</g>
<!-- Node22&#45;&gt;Node23 -->
<g id="edge22_Node000022_Node000023" class="edge">
<title>Node22&#45;&gt;Node23</title>
<g id="a_edge22_Node000022_Node000023"><a xlink:title=" ">
<path fill="none" stroke="#63b8ff" d="M455.01,-680.31C481.32,-683.35 520.59,-687.89 550.14,-691.31"/>
<polygon fill="#63b8ff" stroke="#63b8ff" points="549.5,-694.76 559.84,-692.43 550.3,-687.8 549.5,-694.76"/>
</a>
</g>
</g>
<!-- Node24 -->
<g id="Node000024" class="node">
<title>Node24</title>
<g id="a_Node000024"><a xlink:href="transceiver_8h.html#a4144c213e5448a7e02d4172881f08219" target="_top" xlink:title=" ">
<polygon fill="white" stroke="#666666" points="663.5,-668.62 520,-668.62 520,-649.38 663.5,-649.38 663.5,-668.62"/>
<text text-anchor="middle" x="591.75" y="-655.12" font-family="Helvetica,sans-Serif" font-size="10.00">EncodeTheChangedChannels</text>
</a>
</g>
</g>
<!-- Node22&#45;&gt;Node24 -->
<g id="edge23_Node000022_Node000024" class="edge">
<title>Node22&#45;&gt;Node24</title>
<g id="a_edge23_Node000022_Node000024"><a xlink:title=" ">
<path fill="none" stroke="#63b8ff" d="M455.01,-673.86C470,-672.22 489.21,-670.12 508.42,-668.02"/>
<polygon fill="#63b8ff" stroke="#63b8ff" points="508.64,-671.51 518.2,-666.94 507.88,-664.55 508.64,-671.51"/>
</a>
</g>
</g>
<!-- Node25 -->
<g id="Node000025" class="node">
<title>Node25</title>
<g id="a_Node000025"><a xlink:href="transceiver_8h.html#a5fbd3c8613a4163425c94965704ce5f8" target="_top" xlink:title=" ">
<polygon fill="white" stroke="#666666" points="628.25,-387.62 555.25,-387.62 555.25,-368.38 628.25,-368.38 628.25,-387.62"/>
<text text-anchor="middle" x="591.75" y="-374.12" font-family="Helvetica,sans-Serif" font-size="10.00">FailedPacket</text>
</a>
</g>
</g>
<!-- Node22&#45;&gt;Node25 -->
<g id="edge24_Node000022_Node000025" class="edge">
<title>Node22&#45;&gt;Node25</title>
<g id="a_edge24_Node000022_Node000025"><a xlink:title=" ">
<path fill="none" stroke="#63b8ff" d="M431.84,-667.05C455.34,-624.31 547.98,-455.8 579.88,-397.77"/>
<polygon fill="#63b8ff" stroke="#63b8ff" points="582.78,-399.76 584.53,-389.31 576.65,-396.39 582.78,-399.76"/>
</a>
</g>
</g>
<!-- Node69 -->
<g id="Node000069" class="node">
<title>Node69</title>
<g id="a_Node000069"><a xlink:href="transceiver_8h.html#a07c27b4e208198453c70876517926052" target="_top" xlink:title=" ">
<polygon fill="white" stroke="#666666" points="622.62,-826.62 560.88,-826.62 560.88,-807.38 622.62,-807.38 622.62,-826.62"/>
<text text-anchor="middle" x="591.75" y="-813.12" font-family="Helvetica,sans-Serif" font-size="10.00">FlushFifos</text>
</a>
</g>
</g>
<!-- Node22&#45;&gt;Node69 -->
<g id="edge30_Node000022_Node000069" class="edge">
<title>Node22&#45;&gt;Node69</title>
<g id="a_edge30_Node000022_Node000069"><a xlink:title=" ">
<path fill="none" stroke="#63b8ff" d="M448.5,-686.98C460.23,-693.15 474.2,-701.99 484,-713 508.85,-740.92 492.72,-763.45 520,-789 528.3,-796.77 539.02,-802.49 549.59,-806.64"/>
<polygon fill="#63b8ff" stroke="#63b8ff" points="548.43,-809.94 559.02,-809.94 550.73,-803.33 548.43,-809.94"/>
</a>
</g>
</g>
<!-- Node65 -->
<g id="Node000065" class="node">
<title>Node65</title>
<g id="a_Node000065"><a xlink:href="common_8h.html#a6e2d4126d864c50e7c23c988c2bfdd1a" target="_top" xlink:title=" ">
<polygon fill="white" stroke="#666666" points="944.12,-611.62 898.12,-611.62 898.12,-592.38 944.12,-592.38 944.12,-611.62"/>
<text text-anchor="middle" x="921.12" y="-598.12" font-family="Helvetica,sans-Serif" font-size="10.00">Radio1</text>
</a>
</g>
</g>
<!-- Node22&#45;&gt;Node65 -->
<g id="edge32_Node000022_Node000065" class="edge">
<title>Node22&#45;&gt;Node65</title>
<g id="a_edge32_Node000022_Node000065"><a xlink:title=" ">
<path fill="none" stroke="#63b8ff" d="M447.02,-666.88C465.63,-658.24 494,-646.24 520,-640 652.82,-608.13 816.46,-602.78 886.14,-602.03"/>
<polygon fill="#63b8ff" stroke="#63b8ff" points="886.16,-605.53 896.13,-601.95 886.1,-598.53 886.16,-605.53"/>
</a>
</g>
</g>
<!-- Node70 -->
<g id="Node000070" class="node">
<title>Node70</title>
<g id="a_Node000070"><a xlink:href="transceiver_8h.html#a2922deec8dd173415edd9ec1c3e406a8" target="_top" xlink:title=" ">
<polygon fill="white" stroke="#666666" points="651.12,-221.62 532.38,-221.62 532.38,-202.38 651.12,-202.38 651.12,-221.62"/>
<text text-anchor="middle" x="591.75" y="-208.12" font-family="Helvetica,sans-Serif" font-size="10.00">SendExtraParamemters</text>
</a>
</g>
</g>
<!-- Node22&#45;&gt;Node70 -->
<g id="edge33_Node000022_Node000070" class="edge">
<title>Node22&#45;&gt;Node70</title>
<g id="a_edge33_Node000022_Node000070"><a xlink:title=" ">
<path fill="none" stroke="#63b8ff" d="M428.71,-666.91C438.06,-627.08 474.52,-477.16 520,-359 537.97,-312.3 564.83,-260.05 579.75,-232.15"/>
<polygon fill="#63b8ff" stroke="#63b8ff" points="582.8,-233.88 584.47,-223.42 576.64,-230.55 582.8,-233.88"/>
</a>
</g>
</g>
<!-- Node74 -->
<g id="Node000074" class="node">
<title>Node74</title>
<g id="a_Node000074"><a xlink:href="BuddyWireless_8h.html#a41c327908c92572d0d3eebbb19160d86" target="_top" xlink:title=" ">
<polygon fill="white" stroke="#666666" points="642.5,-554.62 541,-554.62 541,-535.38 642.5,-535.38 642.5,-554.62"/>
<text text-anchor="middle" x="591.75" y="-541.12" font-family="Helvetica,sans-Serif" font-size="10.00">SendSpecialPacket</text>
</a>
</g>
</g>
<!-- Node22&#45;&gt;Node74 -->
<g id="edge38_Node000022_Node000074" class="edge">
<title>Node22&#45;&gt;Node74</title>
<g id="a_edge38_Node000022_Node000074"><a xlink:title=" ">
<path fill="none" stroke="#63b8ff" d="M438.73,-667.08C466.57,-644.72 534.51,-590.16 569.36,-562.18"/>
<polygon fill="#63b8ff" stroke="#63b8ff" points="571.47,-564.97 577.07,-555.98 567.08,-559.52 571.47,-564.97"/>
</a>
</g>
</g>
<!-- Node80 -->
<g id="Node000080" class="node">
<title>Node80</title>
<g id="a_Node000080"><a xlink:href="BuddyPPM_8h.html#a784a1eca0361b3991bca899167cc1cdb" target="_top" xlink:title=" ">
<polygon fill="white" stroke="#666666" points="629,-779.62 554.5,-779.62 554.5,-760.38 629,-760.38 629,-779.62"/>
<text text-anchor="middle" x="591.75" y="-766.12" font-family="Helvetica,sans-Serif" font-size="10.00">SendViaPPM</text>
</a>
</g>
</g>
<!-- Node22&#45;&gt;Node80 -->
<g id="edge49_Node000022_Node000080" class="edge">
<title>Node22&#45;&gt;Node80</title>
<g id="a_edge49_Node000022_Node000080"><a xlink:title=" ">
<path fill="none" stroke="#63b8ff" d="M445.13,-687.01C456.84,-693.66 471.92,-702.99 484,-713 502.16,-728.05 499.73,-739.93 520,-752 527.11,-756.24 535.2,-759.48 543.3,-761.97"/>
<polygon fill="#63b8ff" stroke="#63b8ff" points="542.24,-765.31 552.81,-764.52 544.06,-758.55 542.24,-765.31"/>
</a>
</g>
</g>
<!-- Node81 -->
<g id="Node000081" class="node">
<title>Node81</title>
<g id="a_Node000081"><a xlink:href="transceiver_8h.html#a1c11bb6771548de7d96723045b922620" target="_top" xlink:title=" ">
<polygon fill="white" stroke="#666666" points="639.5,-742.62 544,-742.62 544,-723.38 639.5,-723.38 639.5,-742.62"/>
<text text-anchor="middle" x="591.75" y="-729.12" font-family="Helvetica,sans-Serif" font-size="10.00">SuccessfulPacket</text>
</a>
</g>
</g>
<!-- Node22&#45;&gt;Node81 -->
<g id="edge50_Node000022_Node000081" class="edge">
<title>Node22&#45;&gt;Node81</title>
<g id="a_edge50_Node000022_Node000081"><a xlink:title=" ">
<path fill="none" stroke="#63b8ff" d="M448.76,-687.09C467.53,-695.31 495.17,-706.84 520,-715 525.15,-716.69 530.55,-718.32 535.98,-719.86"/>
<polygon fill="#63b8ff" stroke="#63b8ff" points="535.05,-723.23 545.62,-722.49 536.89,-716.48 535.05,-723.23"/>
</a>
</g>
</g>
<!-- Node26 -->
<g id="Node000026" class="node">
<title>Node26</title>
<g id="a_Node000026"><a xlink:href="transceiver_8h.html#afcf53d02052a623856b352f27547194c" target="_top" xlink:title=" ">
<polygon fill="white" stroke="#666666" points="820.5,-332.62 725.75,-332.62 725.75,-313.38 820.5,-313.38 820.5,-332.62"/>
<text text-anchor="middle" x="773.12" y="-319.12" font-family="Helvetica,sans-Serif" font-size="10.00">CheckDataRepeat</text>
</a>
</g>
</g>
<!-- Node25&#45;&gt;Node26 -->
<g id="edge25_Node000025_Node000026" class="edge">
<title>Node25&#45;&gt;Node26</title>
<g id="a_edge25_Node000025_Node000026"><a xlink:title=" ">
<path fill="none" stroke="#63b8ff" d="M619.73,-367.89C641.18,-360.03 672.04,-349.14 699.5,-341 705.34,-339.27 711.47,-337.57 717.6,-335.94"/>
<polygon fill="#63b8ff" stroke="#63b8ff" points="718.28,-339.38 727.09,-333.49 716.53,-332.61 718.28,-339.38"/>
</a>
</g>
</g>
<!-- Node27 -->
<g id="Node000027" class="node">
<title>Node27</title>
<g id="a_Node000027"><a xlink:href="transceiver_8h.html#a7154e4db2ead530e9d7c8061d09d37cb" target="_top" xlink:title=" ">
<polygon fill="#fff0f0" stroke="red" points="804,-295.62 742.25,-295.62 742.25,-276.38 804,-276.38 804,-295.62"/>
<text text-anchor="middle" x="773.12" y="-282.12" font-family="Helvetica,sans-Serif" font-size="10.00">CheckGap</text>
</a>
</g>
</g>
<!-- Node25&#45;&gt;Node27 -->
<g id="edge26_Node000025_Node000027" class="edge">
<title>Node25&#45;&gt;Node27</title>
<g id="a_edge26_Node000025_Node000027"><a xlink:title=" ">
<path fill="none" stroke="#63b8ff" d="M604.06,-368.05C622.67,-352.18 661.49,-321.18 699.5,-304 709.32,-299.56 720.41,-296.11 730.91,-293.47"/>
<polygon fill="#63b8ff" stroke="#63b8ff" points="731.55,-296.91 740.5,-291.25 729.97,-290.09 731.55,-296.91"/>
</a>
</g>
</g>
<!-- Node59 -->
<g id="Node000059" class="node">
<title>Node59</title>
<g id="a_Node000059"><a xlink:href="transceiver_8h.html#abf955fe3fa8f544096735e18385cd90d" target="_top" xlink:title=" ">
<polygon fill="white" stroke="#666666" points="832.12,-406.62 714.12,-406.62 714.12,-387.38 832.12,-387.38 832.12,-406.62"/>
<text text-anchor="middle" x="773.12" y="-393.12" font-family="Helvetica,sans-Serif" font-size="10.00">CheckInactivityTimeout</text>
</a>
</g>
</g>
<!-- Node25&#45;&gt;Node59 -->
<g id="edge27_Node000025_Node000059" class="edge">
<title>Node25&#45;&gt;Node59</title>
<g id="a_edge27_Node000025_Node000059"><a xlink:title=" ">
<path fill="none" stroke="#63b8ff" d="M628.62,-381.8C649.72,-384.03 677.13,-386.94 702.33,-389.61"/>
<polygon fill="#63b8ff" stroke="#63b8ff" points="701.9,-393.08 712.22,-390.65 702.64,-386.12 701.9,-393.08"/>
</a>
</g>
</g>
<!-- Node60 -->
<g id="Node000060" class="node">
<title>Node60</title>
<g id="a_Node000060"><a xlink:href="transceiver_8h.html#a18d9866d5425cd145044b1fddbfc00a0" target="_top" xlink:title=" ">
<polygon fill="#fff0f0" stroke="red" points="821.62,-369.62 724.62,-369.62 724.62,-350.38 821.62,-350.38 821.62,-369.62"/>
<text text-anchor="middle" x="773.12" y="-356.12" font-family="Helvetica,sans-Serif" font-size="10.00">CheckLostContact</text>
</a>
</g>
</g>
<!-- Node25&#45;&gt;Node60 -->
<g id="edge28_Node000025_Node000060" class="edge">
<title>Node25&#45;&gt;Node60</title>
<g id="a_edge28_Node000025_Node000060"><a xlink:title=" ">
<path fill="none" stroke="#63b8ff" d="M628.62,-374.4C652.79,-371.98 685.24,-368.72 713.17,-365.92"/>
<polygon fill="#63b8ff" stroke="#63b8ff" points="713.31,-369.42 722.91,-364.94 712.61,-362.45 713.31,-369.42"/>
</a>
</g>
</g>
<!-- Node68 -->
<g id="Node000068" class="node">
<title>Node68</title>
<g id="a_Node000068"><a xlink:href="transceiver_8h.html#afc091b5942e21a03f6dc8635d5e519ba" target="_top" xlink:title=" ">
<polygon fill="white" stroke="#666666" points="833.62,-480.62 712.62,-480.62 712.62,-461.38 833.62,-461.38 833.62,-480.62"/>
<text text-anchor="middle" x="773.12" y="-467.12" font-family="Helvetica,sans-Serif" font-size="10.00">RecordsPacketSuccess</text>
</a>
</g>
</g>
<!-- Node25&#45;&gt;Node68 -->
<g id="edge29_Node000025_Node000068" class="edge">
<title>Node25&#45;&gt;Node68</title>
<g id="a_edge29_Node000025_Node000068"><a xlink:title=" ">
<path fill="none" stroke="#63b8ff" d="M604.03,-388.1C622.6,-404.19 661.37,-435.62 699.5,-453 703.03,-454.61 706.73,-456.09 710.51,-457.45"/>
<polygon fill="#63b8ff" stroke="#63b8ff" points="709.27,-460.72 719.86,-460.49 711.43,-454.07 709.27,-460.72"/>
</a>
</g>
</g>
<!-- Node69&#45;&gt;Node65 -->
<g id="edge31_Node000069_Node000065" class="edge">
<title>Node69&#45;&gt;Node65</title>
<g id="a_edge31_Node000069_Node000065"><a xlink:title=" ">
<path fill="none" stroke="#63b8ff" d="M622.91,-821.85C635.68,-824.41 650.56,-828.06 663.5,-833 680.6,-839.53 681.78,-848.41 699.5,-853 762.85,-869.42 794.38,-892.25 846.75,-853 884.33,-824.83 909.09,-678.27 917.21,-623.06"/>
<polygon fill="#63b8ff" stroke="#63b8ff" points="920.64,-623.82 918.59,-613.42 913.71,-622.83 920.64,-623.82"/>
</a>
</g>
</g>
<!-- Node71 -->
<g id="Node000071" class="node">
<title>Node71</title>
<g id="a_Node000071"><a xlink:href="transceiver_8h.html#adac102739147db6397bbcbb371aec4fd" target="_top" xlink:title=" ">
<polygon fill="#fff0f0" stroke="red" points="817.12,-184.62 729.12,-184.62 729.12,-165.38 817.12,-165.38 817.12,-184.62"/>
<text text-anchor="middle" x="773.12" y="-171.12" font-family="Helvetica,sans-Serif" font-size="10.00">LoadParameters</text>
</a>
</g>
</g>
<!-- Node70&#45;&gt;Node71 -->
<g id="edge34_Node000070_Node000071" class="edge">
<title>Node70&#45;&gt;Node71</title>
<g id="a_edge34_Node000070_Node000071"><a xlink:title=" ">
<path fill="none" stroke="#63b8ff" d="M641.77,-201.89C665.23,-197.05 693.4,-191.24 717.54,-186.26"/>
<polygon fill="#63b8ff" stroke="#63b8ff" points="718.11,-189.72 727.19,-184.27 716.69,-182.86 718.11,-189.72"/>
</a>
</g>
</g>
<!-- Node73 -->
<g id="Node000073" class="node">
<title>Node73</title>
<g id="a_Node000073"><a xlink:href="transceiver_8h.html#a3cf130d144a13a07623d938ff62fa7ca" target="_top" xlink:title=" ">
<polygon fill="white" stroke="#666666" points="846.75,-147.62 699.5,-147.62 699.5,-128.38 846.75,-128.38 846.75,-147.62"/>
<text text-anchor="middle" x="773.12" y="-134.12" font-family="Helvetica,sans-Serif" font-size="10.00">LoadRawDataWithParameters</text>
</a>
</g>
</g>
<!-- Node70&#45;&gt;Node73 -->
<g id="edge35_Node000070_Node000073" class="edge">
<title>Node70&#45;&gt;Node73</title>
<g id="a_edge35_Node000070_Node000073"><a xlink:title=" ">
<path fill="none" stroke="#63b8ff" d="M608.82,-202C629.23,-189.67 665.85,-168.78 699.5,-156 703.94,-154.31 708.59,-152.74 713.31,-151.29"/>
<polygon fill="#63b8ff" stroke="#63b8ff" points="714.26,-154.65 722.9,-148.52 712.32,-147.93 714.26,-154.65"/>
</a>
</g>
</g>
<!-- Node63 -->
<g id="Node000063" class="node">
<title>Node63</title>
<g id="a_Node000063"><a xlink:href="ReceiverCode_2src_2main_8cpp.html#a6d87eba17154f7f4f2f3802ef8ee261f" target="_top" xlink:title=" ">
<polygon fill="white" stroke="#666666" points="792,-258.62 754.25,-258.62 754.25,-239.38 792,-239.38 792,-258.62"/>
<text text-anchor="middle" x="773.12" y="-245.12" font-family="Helvetica,sans-Serif" font-size="10.00">Look</text>
</a>
</g>
</g>
<!-- Node70&#45;&gt;Node63 -->
<g id="edge36_Node000070_Node000063" class="edge">
<title>Node70&#45;&gt;Node63</title>
<g id="a_edge36_Node000070_Node000063"><a xlink:title=" ">
<path fill="none" stroke="#63b8ff" d="M641.77,-222.11C674.11,-228.78 715.42,-237.3 742.77,-242.94"/>
<polygon fill="#63b8ff" stroke="#63b8ff" points="741.93,-246.35 752.44,-244.94 743.35,-239.49 741.93,-246.35"/>
</a>
</g>
</g>
<!-- Node64 -->
<g id="Node000064" class="node">
<title>Node64</title>
<g id="a_Node000064"><a xlink:href="ReceiverCode_2src_2main_8cpp.html#aea423a497d09a142f394356bc8438c41" target="_top" xlink:title=" ">
<polygon fill="white" stroke="#666666" points="794.62,-221.62 751.62,-221.62 751.62,-202.38 794.62,-202.38 794.62,-221.62"/>
<text text-anchor="middle" x="773.12" y="-208.12" font-family="Helvetica,sans-Serif" font-size="10.00">Look1</text>
</a>
</g>
</g>
<!-- Node70&#45;&gt;Node64 -->
<g id="edge37_Node000070_Node000064" class="edge">
<title>Node70&#45;&gt;Node64</title>
<g id="a_edge37_Node000070_Node000064"><a xlink:title=" ">
<path fill="none" stroke="#63b8ff" d="M651.48,-212C680.99,-212 715.58,-212 740.14,-212"/>
<polygon fill="#63b8ff" stroke="#63b8ff" points="739.82,-215.5 749.82,-212 739.82,-208.5 739.82,-215.5"/>
</a>
</g>
</g>
<!-- Node74&#45;&gt;Node65 -->
<g id="edge48_Node000074_Node000065" class="edge">
<title>Node74&#45;&gt;Node65</title>
<g id="a_edge48_Node000074_Node000065"><a xlink:title=" ">
<path fill="none" stroke="#63b8ff" d="M642.97,-554C660.82,-557.18 681.05,-560.77 699.5,-564 765.81,-575.61 843.39,-588.91 886.64,-596.29"/>
<polygon fill="#63b8ff" stroke="#63b8ff" points="885.95,-599.72 896.39,-597.96 887.12,-592.82 885.95,-599.72"/>
</a>
</g>
</g>
<!-- Node75 -->
<g id="Node000075" class="node">
<title>Node75</title>
<g id="a_Node000075"><a xlink:href="BuddyWireless_8h.html#a65c503df23c5a965282f5bf8946c76e5" target="_top" xlink:title=" ">
<polygon fill="white" stroke="#666666" points="817.88,-554.62 728.38,-554.62 728.38,-535.38 817.88,-535.38 817.88,-554.62"/>
<text text-anchor="middle" x="773.12" y="-541.12" font-family="Helvetica,sans-Serif" font-size="10.00">ChangeTXTarget</text>
</a>
</g>
</g>
<!-- Node74&#45;&gt;Node75 -->
<g id="edge39_Node000074_Node000075" class="edge">
<title>Node74&#45;&gt;Node75</title>
<g id="a_edge39_Node000074_Node000075"><a xlink:title=" ">
<path fill="none" stroke="#63b8ff" d="M642.72,-545C665.7,-545 693.05,-545 716.67,-545"/>
<polygon fill="#63b8ff" stroke="#63b8ff" points="716.41,-548.5 726.41,-545 716.41,-541.5 716.41,-548.5"/>
</a>
</g>
</g>
<!-- Node76 -->
<g id="Node000076" class="node">
<title>Node76</title>
<g id="a_Node000076"><a xlink:href="BuddyWireless_8h.html#af59c2527be7a67d6b09dd467f3123d55" target="_top" xlink:title=" ">
<polygon fill="#fff0f0" stroke="red" points="808.5,-517.62 737.75,-517.62 737.75,-498.38 808.5,-498.38 808.5,-517.62"/>
<text text-anchor="middle" x="773.12" y="-504.12" font-family="Helvetica,sans-Serif" font-size="10.00">GetPupilAck</text>
</a>
</g>
</g>
<!-- Node74&#45;&gt;Node76 -->
<g id="edge41_Node000074_Node000076" class="edge">
<title>Node74&#45;&gt;Node76</title>
<g id="a_edge41_Node000074_Node000076"><a xlink:title=" ">
<path fill="none" stroke="#63b8ff" d="M641.77,-534.89C668.15,-529.45 700.49,-522.78 726.36,-517.44"/>
<polygon fill="#63b8ff" stroke="#63b8ff" points="726.81,-520.92 735.9,-515.47 725.4,-514.07 726.81,-520.92"/>
</a>
</g>
</g>
<!-- Node79 -->
<g id="Node000079" class="node">
<title>Node79</title>
<g id="a_Node000079"><a xlink:href="BuddyWireless_8h.html#a89fc05df708fec875356b62d21b2ce7b" target="_top" xlink:title=" ">
<polygon fill="white" stroke="#666666" points="811.5,-443.62 734.75,-443.62 734.75,-424.38 811.5,-424.38 811.5,-443.62"/>
<text text-anchor="middle" x="773.12" y="-430.12" font-family="Helvetica,sans-Serif" font-size="10.00">PupilDetected</text>
</a>
</g>
</g>
<!-- Node74&#45;&gt;Node79 -->
<g id="edge43_Node000074_Node000079" class="edge">
<title>Node74&#45;&gt;Node79</title>
<g id="a_edge43_Node000074_Node000079"><a xlink:title=" ">
<path fill="none" stroke="#63b8ff" d="M601.06,-535.15C617.71,-516.07 657.2,-474.01 699.5,-452 706.87,-448.17 715.09,-445.12 723.27,-442.72"/>
<polygon fill="#63b8ff" stroke="#63b8ff" points="724.08,-446.13 732.86,-440.2 722.3,-439.35 724.08,-446.13"/>
</a>
</g>
</g>
<!-- Node75&#45;&gt;Node65 -->
<g id="edge40_Node000075_Node000065" class="edge">
<title>Node75&#45;&gt;Node65</title>
<g id="a_edge40_Node000075_Node000065"><a xlink:title=" ">
<path fill="none" stroke="#63b8ff" d="M806.92,-555.04C819.48,-559.09 833.88,-563.99 846.75,-569 860.78,-574.46 876.01,-581.17 888.94,-587.12"/>
<polygon fill="#63b8ff" stroke="#63b8ff" points="887.26,-590.2 897.81,-591.24 890.22,-583.85 887.26,-590.2"/>
</a>
</g>
</g>
<!-- Node76&#45;&gt;Node65 -->
<g id="edge42_Node000076_Node000065" class="edge">
<title>Node76&#45;&gt;Node65</title>
<g id="a_edge42_Node000076_Node000065"><a xlink:title=" ">
<path fill="none" stroke="#63b8ff" d="M808.89,-512.52C821.41,-515.18 835.27,-519.38 846.75,-526 871.45,-540.24 893.22,-565.22 906.5,-582.64"/>
<polygon fill="#63b8ff" stroke="#63b8ff" points="903.66,-584.68 912.4,-590.66 909.29,-580.53 903.66,-584.68"/>
</a>
</g>
</g>
<!-- Node79&#45;&gt;Node2 -->
<g id="edge44_Node000079_Node000002" class="edge">
<title>Node79&#45;&gt;Node2</title>
<g id="a_edge44_Node000079_Node000002"><a xlink:title=" ">
<path fill="none" stroke="#63b8ff" d="M734.34,-435.02C683.32,-434.96 590.64,-429.76 520,-397 369.05,-326.99 235.43,-168.71 192.23,-114.02"/>
<polygon fill="#63b8ff" stroke="#63b8ff" points="195.08,-111.97 186.16,-106.25 189.56,-116.28 195.08,-111.97"/>
</a>
</g>
</g>
<!-- Node79&#45;&gt;Node57 -->
<g id="edge45_Node000079_Node000057" class="edge">
<title>Node79&#45;&gt;Node57</title>
<g id="a_edge45_Node000079_Node000057"><a xlink:title=" ">
<path fill="none" stroke="#63b8ff" d="M811.65,-432.49C824.31,-430.14 837.56,-425.36 846.75,-416 889.27,-372.69 911.74,-180.38 918.16,-116.04"/>
<polygon fill="#63b8ff" stroke="#63b8ff" points="921.61,-116.76 919.09,-106.47 914.64,-116.09 921.61,-116.76"/>
</a>
</g>
</g>
<!-- Node57&#45;&gt;Node2 -->
<g id="edge47_Node000057_Node000002" class="edge">
<title>Node57&#45;&gt;Node2</title>
<g id="a_edge47_Node000057_Node000002"><a xlink:title=" ">
<path fill="none" stroke="#63b8ff" d="M892.26,-95C781.96,-95 374.83,-95 229.55,-95"/>
<polygon fill="#63b8ff" stroke="#63b8ff" points="229.85,-91.5 219.85,-95 229.85,-98.5 229.85,-91.5"/>
</a>
</g>
</g>
<!-- Node57&#45;&gt;Node58 -->
<g id="edge46_Node000057_Node000058" class="edge">
<title>Node57&#45;&gt;Node58</title>
<g id="a_edge46_Node000057_Node000058"><a xlink:title=" ">
<path fill="none" stroke="#63b8ff" d="M950.24,-85.61C963.8,-81.08 980.3,-75.56 995.2,-70.59"/>
<polygon fill="#63b8ff" stroke="#63b8ff" points="995.88,-74.05 1004.26,-67.56 993.66,-67.41 995.88,-74.05"/>
</a>
</g>
</g>
<!-- Node81&#45;&gt;Node68 -->
<g id="edge56_Node000081_Node000068" class="edge">
<title>Node81&#45;&gt;Node68</title>
<g id="a_edge56_Node000081_Node000068"><a xlink:title=" ">
<path fill="none" stroke="#63b8ff" d="M639.96,-729.03C648.83,-726.23 657.26,-721.83 663.5,-715 732.07,-639.88 630.7,-563.91 699.5,-489 700.65,-487.74 701.88,-486.57 703.17,-485.47"/>
<polygon fill="#63b8ff" stroke="#63b8ff" points="704.82,-488.58 711.2,-480.12 700.94,-482.75 704.82,-488.58"/>
</a>
</g>
</g>
<!-- Node81&#45;&gt;Node65 -->
<g id="edge55_Node000081_Node000065" class="edge">
<title>Node81&#45;&gt;Node65</title>
<g id="a_edge55_Node000081_Node000065"><a xlink:title=" ">
<path fill="none" stroke="#63b8ff" d="M639.65,-738.8C648.24,-741.49 656.64,-745.38 663.5,-751 692.11,-774.43 668.21,-806.31 699.5,-826 754.89,-860.85 793.76,-864.4 846.75,-826 912.64,-778.25 920.44,-669.54 920.64,-623.37"/>
<polygon fill="#63b8ff" stroke="#63b8ff" points="924.14,-623.36 920.54,-613.39 917.14,-623.43 924.14,-623.36"/>
</a>
</g>
</g>
<!-- Node82 -->
<g id="Node000082" class="node">
<title>Node82</title>
<g id="a_Node000082"><a xlink:href="transceiver_8h.html#a953f1d5046e183549ed95b08f6d675e3" target="_top" xlink:title=" ">
<polygon fill="#fff0f0" stroke="red" points="821.62,-668.62 724.62,-668.62 724.62,-649.38 821.62,-649.38 821.62,-668.62"/>
<text text-anchor="middle" x="773.12" y="-655.12" font-family="Helvetica,sans-Serif" font-size="10.00">CheckGapsLength</text>
</a>
</g>
</g>
<!-- Node81&#45;&gt;Node82 -->
<g id="edge51_Node000081_Node000082" class="edge">
<title>Node81&#45;&gt;Node82</title>
<g id="a_edge51_Node000081_Node000082"><a xlink:title=" ">
<path fill="none" stroke="#63b8ff" d="M639.9,-724.97C648.09,-722.48 656.29,-719.23 663.5,-715 683.56,-703.22 679.4,-688.71 699.5,-677 703.91,-674.43 708.68,-672.22 713.6,-670.33"/>
<polygon fill="#63b8ff" stroke="#63b8ff" points="714.7,-673.65 723.06,-667.15 712.47,-667.02 714.7,-673.65"/>
</a>
</g>
</g>
<!-- Node84 -->
<g id="Node000084" class="node">
<title>Node84</title>
<g id="a_Node000084"><a xlink:href="TransmitterCode_2src_2main_8cpp.html#a62e53eb9359c32b666e3386d62c57037" target="_top" xlink:title=" ">
<polygon fill="#fff0f0" stroke="red" points="808.88,-816.62 737.38,-816.62 737.38,-797.38 808.88,-797.38 808.88,-816.62"/>
<text text-anchor="middle" x="773.12" y="-803.12" font-family="Helvetica,sans-Serif" font-size="10.00">GreenLedOn</text>
</a>
</g>
</g>
<!-- Node81&#45;&gt;Node84 -->
<g id="edge52_Node000081_Node000084" class="edge">
<title>Node81&#45;&gt;Node84</title>
<g id="a_edge52_Node000081_Node000084"><a xlink:title=" ">
<path fill="none" stroke="#63b8ff" d="M639.9,-741.03C648.09,-743.52 656.29,-746.77 663.5,-751 683.56,-762.78 679.4,-777.29 699.5,-789 707.56,-793.7 716.81,-797.17 725.95,-799.75"/>
<polygon fill="#63b8ff" stroke="#63b8ff" points="724.94,-803.1 735.49,-802.1 726.62,-796.31 724.94,-803.1"/>
</a>
</g>
</g>
<!-- Node104 -->
<g id="Node000104" class="node">
<title>Node104</title>
<g id="a_Node000104"><a xlink:href="transceiver_8h.html#a694f4f5a0147f4dc29b0bc1a8951547d" target="_top" xlink:title=" ">
<polygon fill="#fff0f0" stroke="red" points="819.75,-779.62 726.5,-779.62 726.5,-760.38 819.75,-760.38 819.75,-779.62"/>
<text text-anchor="middle" x="773.12" y="-766.12" font-family="Helvetica,sans-Serif" font-size="10.00">ParseAckPayload</text>
</a>
</g>
</g>
<!-- Node81&#45;&gt;Node104 -->
<g id="edge53_Node000081_Node000104" class="edge">
<title>Node81&#45;&gt;Node104</title>
<g id="a_edge53_Node000081_Node000104"><a xlink:title=" ">
<path fill="none" stroke="#63b8ff" d="M639.88,-742.72C662.91,-747.47 690.81,-753.23 715.04,-758.22"/>
<polygon fill="#63b8ff" stroke="#63b8ff" points="714.26,-761.64 724.76,-760.23 715.67,-754.78 714.26,-761.64"/>
</a>
</g>
</g>
<!-- Node262 -->
<g id="Node000262" class="node">
<title>Node262</title>
<g id="a_Node000262"><a xlink:href="transceiver_8h.html#a04937e814dba3f5e07cb34bb13130ff3" target="_top" xlink:title=" ">
<polygon fill="#fff0f0" stroke="red" points="831.38,-742.62 714.88,-742.62 714.88,-723.38 831.38,-723.38 831.38,-742.62"/>
<text text-anchor="middle" x="773.12" y="-729.12" font-family="Helvetica,sans-Serif" font-size="10.00">ParseShortAckPayload</text>
</a>
</g>
</g>
<!-- Node81&#45;&gt;Node262 -->
<g id="edge54_Node000081_Node000262" class="edge">
<title>Node81&#45;&gt;Node262</title>
<g id="a_edge54_Node000081_Node000262"><a xlink:title=" ">
<path fill="none" stroke="#63b8ff" d="M639.88,-733C659.24,-733 682.04,-733 703.2,-733"/>
<polygon fill="#63b8ff" stroke="#63b8ff" points="702.92,-736.5 712.92,-733 702.92,-729.5 702.92,-736.5"/>
</a>
</g>
</g>
<!-- Node101 -->
<g id="Node000101" class="node">
<title>Node101</title>
<g id="a_Node000101"><a xlink:href="Utilities_8h.html#a793b7bcd77531c95fe72ed4356d421c8" target="_top" xlink:title=" ">
<polygon fill="white" stroke="#666666" points="827.62,-705.62 718.62,-705.62 718.62,-686.38 827.62,-686.38 827.62,-705.62"/>
<text text-anchor="middle" x="773.12" y="-692.12" font-family="Helvetica,sans-Serif" font-size="10.00">StartInactvityTimeout</text>
</a>
</g>
</g>
<!-- Node81&#45;&gt;Node101 -->
<g id="edge57_Node000081_Node000101" class="edge">
<title>Node81&#45;&gt;Node101</title>
<g id="a_edge57_Node000081_Node000101"><a xlink:title=" ">
<path fill="none" stroke="#63b8ff" d="M639.88,-723.28C661.91,-718.73 688.41,-713.27 711.88,-708.43"/>
<polygon fill="#63b8ff" stroke="#63b8ff" points="712.55,-711.86 721.64,-706.41 711.14,-705.01 712.55,-711.86"/>
</a>
</g>
</g>
</g>
</svg>
