<?xml version="1.0" encoding="UTF-8" standalone="no"?>
<!DOCTYPE svg PUBLIC "-//W3C//DTD SVG 1.1//EN"
 "http://www.w3.org/Graphics/SVG/1.1/DTD/svg11.dtd">
<!-- Generated by graphviz version 7.0.5 (20221223.1930)
 -->
<!-- Title: MakeLogFileName Pages: 1 -->
<svg width="1516pt" height="815pt"
 viewBox="0.00 0.00 1516.00 815.00" xmlns="http://www.w3.org/2000/svg" xmlns:xlink="http://www.w3.org/1999/xlink">
<g id="graph0" class="graph" transform="scale(1 1) rotate(0) translate(4 811)">
<title>MakeLogFileName</title>
<!-- Node1 -->
<g id="node1" class="node">
<title>Node1</title>
<g id="a_node1"><a xlink:title=" ">
<polygon fill="#999999" stroke="#666666" points="1508,-111 1409,-111 1409,-92 1508,-92 1508,-111"/>
<text text-anchor="middle" x="1458.5" y="-99" font-family="Helvetica,sans-Serif" font-size="10.00">MakeLogFileName</text>
</a>
</g>
</g>
<!-- Node2 -->
<g id="node2" class="node">
<title>Node2</title>
<g id="a_node2"><a xlink:href="TransmitterCode_2src_2main_8cpp.html#ac45f2f949ccfa372a8cbab3ef0b8caa8" target="_top" xlink:title=" ">
<polygon fill="white" stroke="#666666" points="1373,-336 1265,-336 1265,-317 1373,-317 1373,-336"/>
<text text-anchor="middle" x="1319" y="-324" font-family="Helvetica,sans-Serif" font-size="10.00">CheckLogFileIsOpen</text>
</a>
</g>
</g>
<!-- Node1&#45;&gt;Node2 -->
<g id="edge1" class="edge">
<title>Node1&#45;&gt;Node2</title>
<path fill="none" stroke="#63b8ff" d="M1445.45,-121.22C1417.09,-167.62 1346.98,-282.35 1326.02,-316.66"/>
<polygon fill="#63b8ff" stroke="#63b8ff" points="1448.4,-123.11 1450.63,-112.75 1442.42,-119.46 1448.4,-123.11"/>
</g>
<!-- Node56 -->
<g id="node45" class="node">
<title>Node56</title>
<g id="a_node45"><a xlink:href="TransmitterCode_2src_2main_8cpp.html#ad33b86f6d4eba7a21e57c1a5ba76281a" target="_top" xlink:title=" ">
<polygon fill="white" stroke="#666666" points="1225,-19 1143,-19 1143,0 1225,0 1225,-19"/>
<text text-anchor="middle" x="1184" y="-7" font-family="Helvetica,sans-Serif" font-size="10.00">DeleteLogFile1</text>
</a>
</g>
</g>
<!-- Node1&#45;&gt;Node56 -->
<g id="edge65" class="edge">
<title>Node1&#45;&gt;Node56</title>
<path fill="none" stroke="#63b8ff" d="M1417.27,-87.92C1361.83,-69.2 1263.27,-35.93 1214.3,-19.39"/>
<polygon fill="#63b8ff" stroke="#63b8ff" points="1416.05,-91.2 1426.64,-91.08 1418.29,-84.57 1416.05,-91.2"/>
</g>
<!-- Node57 -->
<g id="node46" class="node">
<title>Node57</title>
<g id="a_node46"><a xlink:href="TransmitterCode_2src_2main_8cpp.html#af5df157d4ece6b40a9ce7a60faeca569" target="_top" xlink:title=" ">
<polygon fill="white" stroke="#666666" points="1356,-111 1282,-111 1282,-92 1356,-92 1356,-111"/>
<text text-anchor="middle" x="1319" y="-99" font-family="Helvetica,sans-Serif" font-size="10.00">ShowLogFile</text>
</a>
</g>
</g>
<!-- Node1&#45;&gt;Node57 -->
<g id="edge67" class="edge">
<title>Node1&#45;&gt;Node57</title>
<path fill="none" stroke="#63b8ff" d="M1397.49,-101.5C1383.41,-101.5 1368.83,-101.5 1356.17,-101.5"/>
<polygon fill="#63b8ff" stroke="#63b8ff" points="1397.12,-105 1407.12,-101.5 1397.12,-98 1397.12,-105"/>
</g>
<!-- Node3 -->
<g id="node3" class="node">
<title>Node3</title>
<g id="a_node3"><a xlink:href="TransmitterCode_2src_2main_8cpp.html#a99a51dbad5d686ca711e982f82cbcada" target="_top" xlink:title=" ">
<polygon fill="white" stroke="#666666" points="1229,-412 1139,-412 1139,-393 1229,-393 1229,-412"/>
<text text-anchor="middle" x="1184" y="-400" font-family="Helvetica,sans-Serif" font-size="10.00">LogFilePreamble</text>
</a>
</g>
</g>
<!-- Node2&#45;&gt;Node3 -->
<g id="edge2" class="edge">
<title>Node2&#45;&gt;Node3</title>
<path fill="none" stroke="#63b8ff" d="M1290.83,-342.03C1264.35,-357.16 1224.9,-379.7 1202.39,-392.56"/>
<polygon fill="#63b8ff" stroke="#63b8ff" points="1292.35,-345.19 1299.3,-337.19 1288.88,-339.11 1292.35,-345.19"/>
</g>
<!-- Node4 -->
<g id="node4" class="node">
<title>Node4</title>
<g id="a_node4"><a xlink:href="TransmitterCode_2src_2main_8cpp.html#add8d8f400f1c1c4a5add52736cdf94ca" target="_top" xlink:title=" ">
<polygon fill="white" stroke="#666666" points="1103,-506 1051,-506 1051,-487 1103,-487 1103,-506"/>
<text text-anchor="middle" x="1077" y="-494" font-family="Helvetica,sans-Serif" font-size="10.00">LogText</text>
</a>
</g>
</g>
<!-- Node3&#45;&gt;Node4 -->
<g id="edge3" class="edge">
<title>Node3&#45;&gt;Node4</title>
<path fill="none" stroke="#63b8ff" d="M1163.63,-419.84C1141.67,-439.5 1106.61,-470.89 1088.94,-486.71"/>
<polygon fill="#63b8ff" stroke="#63b8ff" points="1165.91,-422.49 1171.03,-413.22 1161.25,-417.28 1165.91,-422.49"/>
</g>
<!-- Node5 -->
<g id="node5" class="node">
<title>Node5</title>
<g id="a_node5"><a xlink:href="TransmitterCode_2src_2main_8cpp.html#aaa3e86084c43b049d52d7d62c58a00b9" target="_top" xlink:title=" ">
<polygon fill="white" stroke="#666666" points="841.5,-676 759.5,-676 759.5,-657 841.5,-657 841.5,-676"/>
<text text-anchor="middle" x="800.5" y="-664" font-family="Helvetica,sans-Serif" font-size="10.00">LogConnection</text>
</a>
</g>
</g>
<!-- Node4&#45;&gt;Node5 -->
<g id="edge4" class="edge">
<title>Node4&#45;&gt;Node5</title>
<path fill="none" stroke="#63b8ff" d="M1070.99,-517.25C1063.46,-543.9 1046.61,-589.64 1015,-614.5 964.62,-654.11 888.41,-664.13 841.98,-666.33"/>
<polygon fill="#63b8ff" stroke="#63b8ff" points="1074.36,-518.22 1073.51,-507.66 1067.59,-516.44 1074.36,-518.22"/>
</g>
<!-- Node29 -->
<g id="node7" class="node">
<title>Node29</title>
<g id="a_node7"><a xlink:href="TransmitterCode_2src_2main_8cpp.html#a2d5ec5fd5ed62d5b7b071fabe2225405" target="_top" xlink:title=" ">
<polygon fill="white" stroke="#666666" points="848.5,-337 752.5,-337 752.5,-318 848.5,-318 848.5,-337"/>
<text text-anchor="middle" x="800.5" y="-325" font-family="Helvetica,sans-Serif" font-size="10.00">LogDisConnection</text>
</a>
</g>
</g>
<!-- Node4&#45;&gt;Node29 -->
<g id="edge6" class="edge">
<title>Node4&#45;&gt;Node29</title>
<path fill="none" stroke="#63b8ff" d="M1075.59,-475.17C1073.57,-437.86 1063.41,-361.49 1015,-327.5 960.1,-288.95 876.1,-304.91 831.6,-317.57"/>
<polygon fill="#63b8ff" stroke="#63b8ff" points="1072.09,-475.23 1075.95,-485.09 1079.08,-474.97 1072.09,-475.23"/>
</g>
<!-- Node33 -->
<g id="node23" class="node">
<title>Node33</title>
<g id="a_node23"><a xlink:href="TransmitterCode_2src_2main_8cpp.html#ad37c67d015818c94d8359a507e72bac0" target="_top" xlink:title=" ">
<polygon fill="white" stroke="#666666" points="997,-430 911,-430 911,-411 997,-411 997,-430"/>
<text text-anchor="middle" x="954" y="-418" font-family="Helvetica,sans-Serif" font-size="10.00">LogLongestGap</text>
</a>
</g>
</g>
<!-- Node4&#45;&gt;Node33 -->
<g id="edge30" class="edge">
<title>Node4&#45;&gt;Node33</title>
<path fill="none" stroke="#63b8ff" d="M1058.49,-478.86C1046.9,-467.91 1030.95,-454.13 1015,-444.5 1005.78,-438.93 995.04,-434.17 985.21,-430.38"/>
<polygon fill="#63b8ff" stroke="#63b8ff" points="1055.73,-481.06 1065.34,-485.52 1060.61,-476.04 1055.73,-481.06"/>
</g>
<!-- Node34 -->
<g id="node24" class="node">
<title>Node34</title>
<g id="a_node24"><a xlink:href="TransmitterCode_2src_2main_8cpp.html#aac4334531357e4221222c7fc8c5cf817" target="_top" xlink:title=" ">
<polygon fill="white" stroke="#666666" points="995.5,-243 912.5,-243 912.5,-224 995.5,-224 995.5,-243"/>
<text text-anchor="middle" x="954" y="-231" font-family="Helvetica,sans-Serif" font-size="10.00">LogLowBattery</text>
</a>
</g>
</g>
<!-- Node4&#45;&gt;Node34 -->
<g id="edge32" class="edge">
<title>Node4&#45;&gt;Node34</title>
<path fill="none" stroke="#63b8ff" d="M1073.4,-475.15C1066.49,-421.68 1046.02,-284.03 1015,-251.5 1009.82,-246.07 1003.08,-242.26 995.98,-239.59"/>
<polygon fill="#63b8ff" stroke="#63b8ff" points="1069.93,-475.56 1074.65,-485.04 1076.87,-474.69 1069.93,-475.56"/>
</g>
<!-- Node35 -->
<g id="node25" class="node">
<title>Node35</title>
<g id="a_node25"><a xlink:href="TransmitterCode_2src_2main_8cpp.html#af7b3b351c80f0b43c13a4ccb440b2f2e" target="_top" xlink:title=" ">
<polygon fill="white" stroke="#666666" points="987.5,-696 920.5,-696 920.5,-677 987.5,-677 987.5,-696"/>
<text text-anchor="middle" x="954" y="-684" font-family="Helvetica,sans-Serif" font-size="10.00">LogMinGap</text>
</a>
</g>
</g>
<!-- Node4&#45;&gt;Node35 -->
<g id="edge33" class="edge">
<title>Node4&#45;&gt;Node35</title>
<path fill="none" stroke="#63b8ff" d="M1073.82,-517.19C1069.13,-551.71 1055.03,-621.32 1015,-662.5 1007.65,-670.06 997.61,-675.31 987.84,-678.92"/>
<polygon fill="#63b8ff" stroke="#63b8ff" points="1077.24,-518.03 1074.97,-507.68 1070.29,-517.18 1077.24,-518.03"/>
</g>
<!-- Node36 -->
<g id="node26" class="node">
<title>Node36</title>
<g id="a_node26"><a xlink:href="TransmitterCode_2src_2main_8cpp.html#ac45afae9da9cc313054a4c41e1ce1757" target="_top" xlink:title=" ">
<polygon fill="white" stroke="#666666" points="829.5,-592 771.5,-592 771.5,-573 829.5,-573 829.5,-592"/>
<text text-anchor="middle" x="800.5" y="-580" font-family="Helvetica,sans-Serif" font-size="10.00">LogMotor</text>
</a>
</g>
</g>
<!-- Node4&#45;&gt;Node36 -->
<g id="edge35" class="edge">
<title>Node4&#45;&gt;Node36</title>
<path fill="none" stroke="#63b8ff" d="M1061.38,-514.84C1050.12,-527.59 1033.41,-543.81 1015,-552.5 953.74,-581.43 872.38,-584.45 829.96,-583.73"/>
<polygon fill="#63b8ff" stroke="#63b8ff" points="1063.81,-517.38 1067.58,-507.48 1058.46,-512.87 1063.81,-517.38"/>
</g>
<!-- Node38 -->
<g id="node28" class="node">
<title>Node38</title>
<g id="a_node28"><a xlink:href="TransmitterCode_2src_2main_8cpp.html#a32be1544c90acbd0fb13568c35213510" target="_top" xlink:title=" ">
<polygon fill="white" stroke="#666666" points="838.5,-629 762.5,-629 762.5,-610 838.5,-610 838.5,-629"/>
<text text-anchor="middle" x="800.5" y="-617" font-family="Helvetica,sans-Serif" font-size="10.00">LogNewBank</text>
</a>
</g>
</g>
<!-- Node4&#45;&gt;Node38 -->
<g id="edge38" class="edge">
<title>Node4&#45;&gt;Node38</title>
<path fill="none" stroke="#63b8ff" d="M1067.16,-516.67C1057.38,-536.49 1039.67,-565.96 1015,-581.5 960.69,-615.72 884.02,-621.21 838.86,-621.07"/>
<polygon fill="#63b8ff" stroke="#63b8ff" points="1070.31,-518.21 1071.36,-507.67 1063.96,-515.25 1070.31,-518.21"/>
</g>
<!-- Node39 -->
<g id="node29" class="node">
<title>Node39</title>
<g id="a_node29"><a xlink:href="TransmitterCode_2src_2main_8cpp.html#a6b269c8bc84f79cedd5a789bdf697274" target="_top" xlink:title=" ">
<polygon fill="white" stroke="#666666" points="1015,-280 893,-280 893,-261 1015,-261 1015,-280"/>
<text text-anchor="middle" x="954" y="-268" font-family="Helvetica,sans-Serif" font-size="10.00">LogOverallSuccessRate</text>
</a>
</g>
</g>
<!-- Node4&#45;&gt;Node39 -->
<g id="edge40" class="edge">
<title>Node4&#45;&gt;Node39</title>
<path fill="none" stroke="#63b8ff" d="M1075.42,-475.35C1073.19,-435.06 1062.79,-346.65 1015,-294.5 1009.39,-288.38 1002.01,-283.79 994.35,-280.36"/>
<polygon fill="#63b8ff" stroke="#63b8ff" points="1071.91,-475.28 1075.83,-485.13 1078.91,-474.99 1071.91,-475.28"/>
</g>
<!-- Node40 -->
<g id="node30" class="node">
<title>Node40</title>
<g id="a_node30"><a xlink:href="TransmitterCode_2src_2main_8cpp.html#a31e9d94f45a152e1cbc436284799ca37" target="_top" xlink:title=" ">
<polygon fill="white" stroke="#666666" points="991,-770 917,-770 917,-751 991,-751 991,-770"/>
<text text-anchor="middle" x="954" y="-758" font-family="Helvetica,sans-Serif" font-size="10.00">LogPowerOff</text>
</a>
</g>
</g>
<!-- Node4&#45;&gt;Node40 -->
<g id="edge42" class="edge">
<title>Node4&#45;&gt;Node40</title>
<path fill="none" stroke="#63b8ff" d="M1073.37,-517.83C1066.39,-571.22 1045.77,-708.74 1015,-741.5 1008.72,-748.19 1000.1,-752.54 991.35,-755.35"/>
<polygon fill="#63b8ff" stroke="#63b8ff" points="1076.84,-518.3 1074.63,-507.94 1069.9,-517.42 1076.84,-518.3"/>
</g>
<!-- Node42 -->
<g id="node32" class="node">
<title>Node42</title>
<g id="a_node32"><a xlink:href="TransmitterCode_2src_2main_8cpp.html#a7d93a2500f52d72210903c46a85ce820" target="_top" xlink:title=" ">
<polygon fill="white" stroke="#666666" points="837.5,-481 763.5,-481 763.5,-462 837.5,-462 837.5,-481"/>
<text text-anchor="middle" x="800.5" y="-469" font-family="Helvetica,sans-Serif" font-size="10.00">LogPowerOn</text>
</a>
</g>
</g>
<!-- Node4&#45;&gt;Node42 -->
<g id="edge45" class="edge">
<title>Node4&#45;&gt;Node42</title>
<path fill="none" stroke="#63b8ff" d="M1039.2,-493.15C986.57,-488.36 890.39,-479.6 837.95,-474.82"/>
<polygon fill="#63b8ff" stroke="#63b8ff" points="1038.88,-496.63 1049.16,-494.06 1039.52,-489.66 1038.88,-496.63"/>
</g>
<!-- Node44 -->
<g id="node34" class="node">
<title>Node44</title>
<g id="a_node34"><a xlink:href="TransmitterCode_2src_2main_8cpp.html#a0ed2fd04eebb4fd11b61b6fddd5d2590" target="_top" xlink:title=" ">
<polygon fill="white" stroke="#666666" points="984.5,-544 923.5,-544 923.5,-525 984.5,-525 984.5,-544"/>
<text text-anchor="middle" x="954" y="-532" font-family="Helvetica,sans-Serif" font-size="10.00">LogSafety</text>
</a>
</g>
</g>
<!-- Node4&#45;&gt;Node44 -->
<g id="edge47" class="edge">
<title>Node4&#45;&gt;Node44</title>
<path fill="none" stroke="#63b8ff" d="M1039.87,-507.85C1022.23,-513.39 1001.27,-519.97 984.6,-525.21"/>
<polygon fill="#63b8ff" stroke="#63b8ff" points="1040.7,-511.26 1049.19,-504.92 1038.6,-504.58 1040.7,-511.26"/>
</g>
<!-- Node47 -->
<g id="node37" class="node">
<title>Node47</title>
<g id="a_node37"><a xlink:href="TransmitterCode_2src_2main_8cpp.html#a1fadc7cdd854f8b3628b622da5417d8b" target="_top" xlink:title=" ">
<polygon fill="white" stroke="#666666" points="989,-807 919,-807 919,-788 989,-788 989,-807"/>
<text text-anchor="middle" x="954" y="-795" font-family="Helvetica,sans-Serif" font-size="10.00">LogThisGap</text>
</a>
</g>
</g>
<!-- Node4&#45;&gt;Node47 -->
<g id="edge53" class="edge">
<title>Node4&#45;&gt;Node47</title>
<path fill="none" stroke="#63b8ff" d="M1074.16,-517.48C1068.62,-576.09 1050.27,-739.77 1015,-778.5 1008.31,-785.85 998.79,-790.38 989.3,-793.16"/>
<polygon fill="#63b8ff" stroke="#63b8ff" points="1077.62,-518.15 1075.04,-507.88 1070.64,-517.52 1077.62,-518.15"/>
</g>
<!-- Node49 -->
<g id="node39" class="node">
<title>Node49</title>
<g id="a_node39"><a xlink:href="TransmitterCode_2src_2main_8cpp.html#a83944fc0ecaab86d0bbb0802e99e5084" target="_top" xlink:title=" ">
<polygon fill="white" stroke="#666666" points="839.5,-444 761.5,-444 761.5,-425 839.5,-425 839.5,-444"/>
<text text-anchor="middle" x="800.5" y="-432" font-family="Helvetica,sans-Serif" font-size="10.00">LogThisModel</text>
</a>
</g>
</g>
<!-- Node4&#45;&gt;Node49 -->
<g id="edge55" class="edge">
<title>Node4&#45;&gt;Node49</title>
<path fill="none" stroke="#63b8ff" d="M1039.97,-483.88C1031.81,-481.25 1023.15,-478.63 1015,-476.5 954.33,-460.65 882.57,-447.7 839.61,-440.55"/>
<polygon fill="#63b8ff" stroke="#63b8ff" points="1038.65,-487.13 1049.25,-486.95 1040.85,-480.48 1038.65,-487.13"/>
</g>
<!-- Node52 -->
<g id="node41" class="node">
<title>Node52</title>
<g id="a_node41"><a xlink:href="TransmitterCode_2src_2main_8cpp.html#a900aa27c1353238593c276186d960912" target="_top" xlink:title=" ">
<polygon fill="white" stroke="#666666" points="986.5,-733 921.5,-733 921.5,-714 986.5,-714 986.5,-733"/>
<text text-anchor="middle" x="954" y="-721" font-family="Helvetica,sans-Serif" font-size="10.00">LogThisRX</text>
</a>
</g>
</g>
<!-- Node4&#45;&gt;Node52 -->
<g id="edge59" class="edge">
<title>Node4&#45;&gt;Node52</title>
<path fill="none" stroke="#63b8ff" d="M1075.99,-517.74C1074.8,-559.37 1066.18,-652.21 1015,-704.5 1007.51,-712.15 996.96,-716.73 986.79,-719.47"/>
<polygon fill="#63b8ff" stroke="#63b8ff" points="1079.49,-517.91 1076.14,-507.86 1072.49,-517.81 1079.49,-517.91"/>
</g>
<!-- Node54 -->
<g id="node43" class="node">
<title>Node54</title>
<g id="a_node43"><a xlink:href="TransmitterCode_2src_2main_8cpp.html#a8f37e3c97602121326a883fafbe8f3ff" target="_top" xlink:title=" ">
<polygon fill="white" stroke="#666666" points="1011,-356 897,-356 897,-337 1011,-337 1011,-356"/>
<text text-anchor="middle" x="954" y="-344" font-family="Helvetica,sans-Serif" font-size="10.00">LogTotalGoodPackets</text>
</a>
</g>
</g>
<!-- Node4&#45;&gt;Node54 -->
<g id="edge61" class="edge">
<title>Node4&#45;&gt;Node54</title>
<path fill="none" stroke="#63b8ff" d="M1071.97,-475.65C1065.26,-446.56 1049.04,-394.03 1015,-364.5 1011.3,-361.29 1007.05,-358.66 1002.56,-356.49"/>
<polygon fill="#63b8ff" stroke="#63b8ff" points="1068.47,-476.02 1073.97,-485.07 1075.32,-474.56 1068.47,-476.02"/>
</g>
<!-- Node55 -->
<g id="node44" class="node">
<title>Node55</title>
<g id="a_node44"><a xlink:href="TransmitterCode_2src_2main_8cpp.html#a46663d24b572bf50ed661e9e0c3434b6" target="_top" xlink:title=" ">
<polygon fill="white" stroke="#666666" points="1009,-393 899,-393 899,-374 1009,-374 1009,-393"/>
<text text-anchor="middle" x="954" y="-381" font-family="Helvetica,sans-Serif" font-size="10.00">LogTotalLostPackets</text>
</a>
</g>
</g>
<!-- Node4&#45;&gt;Node55 -->
<g id="edge63" class="edge">
<title>Node4&#45;&gt;Node55</title>
<path fill="none" stroke="#63b8ff" d="M1067.92,-475.88C1058.42,-454.26 1040.62,-420.81 1015,-401.5 1010.74,-398.29 1005.92,-395.65 1000.9,-393.48"/>
<polygon fill="#63b8ff" stroke="#63b8ff" points="1064.69,-477.22 1071.76,-485.11 1071.15,-474.53 1064.69,-477.22"/>
</g>
<!-- Node6 -->
<g id="node6" class="node">
<title>Node6</title>
<g id="a_node6"><a xlink:href="TransmitterCode_2src_2main_8cpp.html#a62e53eb9359c32b666e3386d62c57037" target="_top" xlink:title=" ">
<polygon fill="#fff0f0" stroke="red" points="708,-676 636,-676 636,-657 708,-657 708,-676"/>
<text text-anchor="middle" x="672" y="-664" font-family="Helvetica,sans-Serif" font-size="10.00">GreenLedOn</text>
</a>
</g>
</g>
<!-- Node5&#45;&gt;Node6 -->
<g id="edge5" class="edge">
<title>Node5&#45;&gt;Node6</title>
<path fill="none" stroke="#63b8ff" d="M747.72,-666.5C734.46,-666.5 720.51,-666.5 708.3,-666.5"/>
<polygon fill="#63b8ff" stroke="#63b8ff" points="747.61,-670 757.61,-666.5 747.61,-663 747.61,-670"/>
</g>
<!-- Node30 -->
<g id="node8" class="node">
<title>Node30</title>
<g id="a_node8"><a xlink:href="TransmitterCode_2src_2main_8cpp.html#a7d34cec6e8edc20c8b50424e15dcc7c7" target="_top" xlink:title=" ">
<polygon fill="#fff0f0" stroke="red" points="703.5,-313 640.5,-313 640.5,-294 703.5,-294 703.5,-313"/>
<text text-anchor="middle" x="672" y="-301" font-family="Helvetica,sans-Serif" font-size="10.00">RedLedOn</text>
</a>
</g>
</g>
<!-- Node29&#45;&gt;Node30 -->
<g id="edge7" class="edge">
<title>Node29&#45;&gt;Node30</title>
<path fill="none" stroke="#63b8ff" d="M740.9,-316.38C728.1,-313.95 715.04,-311.48 703.84,-309.35"/>
<polygon fill="#63b8ff" stroke="#63b8ff" points="740.07,-319.79 750.55,-318.21 741.38,-312.91 740.07,-319.79"/>
</g>
<!-- Node9 -->
<g id="node9" class="node">
<title>Node9</title>
<g id="a_node9"><a xlink:href="TransmitterCode_2src_2main_8cpp.html#a804fdbdd5eab4c596bbe8a23eecbe4d5" target="_top" xlink:title=" ">
<polygon fill="white" stroke="#666666" points="594,-221 493,-221 493,-202 594,-202 594,-221"/>
<text text-anchor="middle" x="543.5" y="-209" font-family="Helvetica,sans-Serif" font-size="10.00">ButtonWasPressed</text>
</a>
</g>
</g>
<!-- Node30&#45;&gt;Node9 -->
<g id="edge8" class="edge">
<title>Node30&#45;&gt;Node9</title>
<path fill="none" stroke="#63b8ff" d="M648.24,-286.95C621.92,-267.81 579.47,-236.93 557.94,-221.27"/>
<polygon fill="#63b8ff" stroke="#63b8ff" points="646.09,-289.71 656.24,-292.76 650.21,-284.05 646.09,-289.71"/>
</g>
<!-- Node22 -->
<g id="node19" class="node">
<title>Node22</title>
<g id="a_node19"><a xlink:href="TransmitterCode_2src_2main_8cpp.html#ab7c9edf843c732d7fe296564f39bc0dc" target="_top" xlink:title="RECEIVE A MODEL FILE.">
<polygon fill="white" stroke="#666666" points="111,-310 17,-310 17,-291 111,-291 111,-310"/>
<text text-anchor="middle" x="64" y="-298" font-family="Helvetica,sans-Serif" font-size="10.00">ReceiveModelFile</text>
</a>
</g>
</g>
<!-- Node30&#45;&gt;Node22 -->
<g id="edge29" class="edge">
<title>Node30&#45;&gt;Node22</title>
<path fill="none" stroke="#63b8ff" d="M628.88,-303.29C519.22,-302.75 225.49,-301.29 111.31,-300.73"/>
<polygon fill="#63b8ff" stroke="#63b8ff" points="628.58,-306.79 638.6,-303.34 628.62,-299.79 628.58,-306.79"/>
</g>
<!-- Node10 -->
<g id="node10" class="node">
<title>Node10</title>
<g id="a_node10"><a xlink:href="Utilities_8h.html#afb7c85cac4aa89fd998ed81c330374d2" target="_top" xlink:title=" ">
<polygon fill="white" stroke="#666666" points="451,-237 305,-237 305,-218 451,-218 451,-237"/>
<text text-anchor="middle" x="378" y="-225" font-family="Helvetica,sans-Serif" font-size="10.00">CheckForNextionButtonPress</text>
</a>
</g>
</g>
<!-- Node9&#45;&gt;Node10 -->
<g id="edge9" class="edge">
<title>Node9&#45;&gt;Node10</title>
<path fill="none" stroke="#63b8ff" d="M481.27,-217.49C471.47,-218.45 461.24,-219.45 451.21,-220.43"/>
<polygon fill="#63b8ff" stroke="#63b8ff" points="481.44,-220.99 491.05,-216.53 480.76,-214.03 481.44,-220.99"/>
</g>
<!-- Node9&#45;&gt;Node22 -->
<g id="edge28" class="edge">
<title>Node9&#45;&gt;Node22</title>
<path fill="none" stroke="#63b8ff" d="M509.41,-225.75C492.26,-232.64 470.81,-240.47 451,-245.5 387.52,-261.62 199.47,-284.79 111.44,-295.15"/>
<polygon fill="#63b8ff" stroke="#63b8ff" points="510.67,-229.02 518.59,-221.98 508.01,-222.54 510.67,-229.02"/>
</g>
<!-- Node11 -->
<g id="node11" class="node">
<title>Node11</title>
<g id="a_node11"><a xlink:href="TransmitterCode_2src_2main_8cpp.html#a641d6dab68ec7b2a8a32492aac55bc1c" target="_top" xlink:title=" ">
<polygon fill="white" stroke="#666666" points="269,-161 164,-161 164,-142 269,-142 269,-161"/>
<text text-anchor="middle" x="216.5" y="-149" font-family="Helvetica,sans-Serif" font-size="10.00">GetBackupFilename</text>
</a>
</g>
</g>
<!-- Node10&#45;&gt;Node11 -->
<g id="edge10" class="edge">
<title>Node10&#45;&gt;Node11</title>
<path fill="none" stroke="#63b8ff" d="M350.39,-212.19C328.83,-200.09 297.45,-183.19 269,-170.5 261.86,-167.32 254.01,-164.22 246.64,-161.49"/>
<polygon fill="#63b8ff" stroke="#63b8ff" points="348.39,-215.08 358.82,-216.96 351.84,-208.99 348.39,-215.08"/>
</g>
<!-- Node13 -->
<g id="node13" class="node">
<title>Node13</title>
<g id="a_node13"><a xlink:href="TransmitterCode_2src_2main_8cpp.html#a6506bf72e0dd9e9ce480156b47625bff" target="_top" xlink:title=" ">
<polygon fill="#fff0f0" stroke="red" points="259.5,-199 173.5,-199 173.5,-180 259.5,-180 259.5,-199"/>
<text text-anchor="middle" x="216.5" y="-187" font-family="Helvetica,sans-Serif" font-size="10.00">GetConfirmation</text>
</a>
</g>
</g>
<!-- Node10&#45;&gt;Node13 -->
<g id="edge13" class="edge">
<title>Node10&#45;&gt;Node13</title>
<path fill="none" stroke="#63b8ff" d="M324.07,-214.89C303.04,-209.88 279.2,-204.2 259.4,-199.48"/>
<polygon fill="#63b8ff" stroke="#63b8ff" points="323.08,-218.25 333.62,-217.17 324.7,-211.44 323.08,-218.25"/>
</g>
<!-- Node26 -->
<g id="node21" class="node">
<title>Node26</title>
<g id="a_node21"><a xlink:href="TransmitterCode_2src_2main_8cpp.html#a558ea014e230b7caa54ce5a37ad29b22" target="_top" xlink:title=" ">
<polygon fill="#fff0f0" stroke="red" points="267,-481 166,-481 166,-462 267,-462 267,-481"/>
<text text-anchor="middle" x="216.5" y="-469" font-family="Helvetica,sans-Serif" font-size="10.00">ManageTransmitter</text>
</a>
</g>
</g>
<!-- Node10&#45;&gt;Node26 -->
<g id="edge23" class="edge">
<title>Node10&#45;&gt;Node26</title>
<path fill="none" stroke="#63b8ff" d="M364.35,-246.85C332.19,-296.05 248.11,-424.67 224.03,-461.51"/>
<polygon fill="#63b8ff" stroke="#63b8ff" points="367.18,-248.92 369.72,-238.63 361.32,-245.09 367.18,-248.92"/>
</g>
<!-- Node28 -->
<g id="node22" class="node">
<title>Node28</title>
<g id="a_node22"><a xlink:href="TransmitterCode_2src_2main_8cpp.html#a6f5b0f1e4ca75768c16c4dd93f92a8de" target="_top" xlink:title=" ">
<polygon fill="#fff0f0" stroke="red" points="242.5,-237 190.5,-237 190.5,-218 242.5,-218 242.5,-237"/>
<text text-anchor="middle" x="216.5" y="-225" font-family="Helvetica,sans-Serif" font-size="10.00">MsgBox</text>
</a>
</g>
</g>
<!-- Node10&#45;&gt;Node28 -->
<g id="edge24" class="edge">
<title>Node10&#45;&gt;Node28</title>
<path fill="none" stroke="#63b8ff" d="M293.29,-227.5C274.95,-227.5 256.88,-227.5 242.99,-227.5"/>
<polygon fill="#63b8ff" stroke="#63b8ff" points="293.2,-231 303.2,-227.5 293.2,-224 293.2,-231"/>
</g>
<!-- Node11&#45;&gt;Node9 -->
<g id="edge11" class="edge">
<title>Node11&#45;&gt;Node9</title>
<path fill="none" stroke="#63b8ff" d="M280.3,-161.99C327.36,-169.97 393.3,-181.45 451,-192.5 465.66,-195.31 481.6,-198.55 496.01,-201.56"/>
<polygon fill="#63b8ff" stroke="#63b8ff" points="280.99,-158.55 270.55,-160.33 279.83,-165.46 280.99,-158.55"/>
</g>
<!-- Node12 -->
<g id="node12" class="node">
<title>Node12</title>
<g id="a_node12"><a xlink:href="TransmitterCode_2src_2main_8cpp.html#a9d94366336f1e5fd43edb9c24bec5821" target="_top" xlink:title=" ">
<polygon fill="white" stroke="#666666" points="98,-88 30,-88 30,-69 98,-69 98,-88"/>
<text text-anchor="middle" x="64" y="-76" font-family="Helvetica,sans-Serif" font-size="10.00">RenameFile</text>
</a>
</g>
</g>
<!-- Node11&#45;&gt;Node12 -->
<g id="edge12" class="edge">
<title>Node11&#45;&gt;Node12</title>
<path fill="none" stroke="#63b8ff" d="M193.38,-135.12C176.26,-123.07 151.56,-107.01 128,-96.5 118.65,-92.33 108.09,-88.86 98.32,-86.13"/>
<polygon fill="#63b8ff" stroke="#63b8ff" points="191.13,-137.81 201.29,-140.8 195.21,-132.13 191.13,-137.81"/>
</g>
<!-- Node13&#45;&gt;Node9 -->
<g id="edge14" class="edge">
<title>Node13&#45;&gt;Node9</title>
<path fill="none" stroke="#63b8ff" d="M271.37,-193.15C332.96,-197.32 432.98,-204.09 492.79,-208.13"/>
<polygon fill="#63b8ff" stroke="#63b8ff" points="271.68,-189.66 261.47,-192.48 271.21,-196.64 271.68,-189.66"/>
</g>
<!-- Node13&#45;&gt;Node12 -->
<g id="edge21" class="edge">
<title>Node13&#45;&gt;Node12</title>
<path fill="none" stroke="#63b8ff" d="M169.94,-174.16C167.84,-172.73 165.84,-171.18 164,-169.5 137.32,-145.07 155.77,-119.68 128,-96.5 119.62,-89.5 108.66,-85.22 98.24,-82.6"/>
<polygon fill="#63b8ff" stroke="#63b8ff" points="167.93,-177.04 178.37,-178.88 171.36,-170.94 167.93,-177.04"/>
</g>
<!-- Node14 -->
<g id="node14" class="node">
<title>Node14</title>
<g id="a_node14"><a xlink:href="TransmitterCode_2src_2main_8cpp.html#ac45477c637c975e13189e2988c8813b3" target="_top" xlink:title=" ">
<polygon fill="white" stroke="#666666" points="104,-273 24,-273 24,-254 104,-254 104,-273"/>
<text text-anchor="middle" x="64" y="-261" font-family="Helvetica,sans-Serif" font-size="10.00">DeleteModelID</text>
</a>
</g>
</g>
<!-- Node13&#45;&gt;Node14 -->
<g id="edge15" class="edge">
<title>Node13&#45;&gt;Node14</title>
<path fill="none" stroke="#63b8ff" d="M171.64,-204.15C168.99,-205.5 166.42,-206.95 164,-208.5 144.94,-220.7 147.42,-232.88 128,-244.5 120.75,-248.84 112.42,-252.26 104.25,-254.93"/>
<polygon fill="#63b8ff" stroke="#63b8ff" points="173.02,-207.36 180.69,-200.05 170.14,-200.98 173.02,-207.36"/>
</g>
<!-- Node15 -->
<g id="node15" class="node">
<title>Node15</title>
<g id="a_node15"><a xlink:href="TransmitterCode_2src_2main_8cpp.html#a53d438145d004c3b053f245f494f4284" target="_top" xlink:title=" ">
<polygon fill="white" stroke="#666666" points="90,-46 38,-46 38,-27 90,-27 90,-46"/>
<text text-anchor="middle" x="64" y="-34" font-family="Helvetica,sans-Serif" font-size="10.00">DelLOG</text>
</a>
</g>
</g>
<!-- Node13&#45;&gt;Node15 -->
<g id="edge16" class="edge">
<title>Node13&#45;&gt;Node15</title>
<path fill="none" stroke="#63b8ff" d="M168.4,-173.51C166.84,-172.27 165.36,-170.94 164,-169.5 128.62,-132.15 163.75,-96.48 128,-59.5 118.05,-49.2 103.11,-43.49 90.28,-40.34"/>
<polygon fill="#63b8ff" stroke="#63b8ff" points="166.51,-176.46 176.84,-178.82 170.24,-170.53 166.51,-176.46"/>
</g>
<!-- Node16 -->
<g id="node16" class="node">
<title>Node16</title>
<g id="a_node16"><a xlink:href="TransmitterCode_2src_2main_8cpp.html#a16c65917a148c7f6c17babf11e977b69" target="_top" xlink:title=" ">
<polygon fill="white" stroke="#666666" points="105,-199 23,-199 23,-180 105,-180 105,-199"/>
<text text-anchor="middle" x="64" y="-187" font-family="Helvetica,sans-Serif" font-size="10.00">EndBuddyView</text>
</a>
</g>
</g>
<!-- Node13&#45;&gt;Node16 -->
<g id="edge17" class="edge">
<title>Node13&#45;&gt;Node16</title>
<path fill="none" stroke="#63b8ff" d="M161.9,-189.5C143.31,-189.5 122.8,-189.5 105.45,-189.5"/>
<polygon fill="#63b8ff" stroke="#63b8ff" points="161.66,-193 171.66,-189.5 161.66,-186 161.66,-193"/>
</g>
<!-- Node17 -->
<g id="node17" class="node">
<title>Node17</title>
<g id="a_node17"><a xlink:href="ModelMatch_8h.html#afdd42b1130d38073be1c2025af855879" target="_top" xlink:title=" ">
<polygon fill="#fff0f0" stroke="red" points="98.5,-236 29.5,-236 29.5,-217 98.5,-217 98.5,-236"/>
<text text-anchor="middle" x="64" y="-224" font-family="Helvetica,sans-Serif" font-size="10.00">IDNotFound</text>
</a>
</g>
</g>
<!-- Node13&#45;&gt;Node17 -->
<g id="edge18" class="edge">
<title>Node13&#45;&gt;Node17</title>
<path fill="none" stroke="#63b8ff" d="M164.19,-202.11C142.6,-207.42 118.08,-213.45 98.82,-218.19"/>
<polygon fill="#63b8ff" stroke="#63b8ff" points="164.82,-205.56 173.7,-199.78 163.15,-198.77 164.82,-205.56"/>
</g>
<!-- Node21 -->
<g id="node18" class="node">
<title>Node21</title>
<g id="a_node18"><a xlink:href="TransmitterCode_2src_2main_8cpp.html#ae9f91b9da28f2e1e2fb126961f03c31c" target="_top" xlink:title=" ">
<polygon fill="white" stroke="#666666" points="104.5,-162 23.5,-162 23.5,-143 104.5,-143 104.5,-162"/>
<text text-anchor="middle" x="64" y="-150" font-family="Helvetica,sans-Serif" font-size="10.00">ModelViewEnd</text>
</a>
</g>
</g>
<!-- Node13&#45;&gt;Node21 -->
<g id="edge19" class="edge">
<title>Node13&#45;&gt;Node21</title>
<path fill="none" stroke="#63b8ff" d="M164.1,-176.86C144.75,-172.11 123.06,-166.77 104.92,-162.31"/>
<polygon fill="#63b8ff" stroke="#63b8ff" points="163.15,-180.23 173.7,-179.22 164.82,-173.44 163.15,-180.23"/>
</g>
<!-- Node13&#45;&gt;Node22 -->
<g id="edge20" class="edge">
<title>Node13&#45;&gt;Node22</title>
<path fill="none" stroke="#63b8ff" d="M168.49,-204.93C166.92,-206.04 165.41,-207.23 164,-208.5 137.12,-232.71 155.6,-258.12 128,-281.5 123.12,-285.63 117.36,-288.87 111.34,-291.4"/>
<polygon fill="#63b8ff" stroke="#63b8ff" points="169.88,-208.17 176.79,-200.14 166.38,-202.1 169.88,-208.17"/>
</g>
<!-- Node23 -->
<g id="node20" class="node">
<title>Node23</title>
<g id="a_node20"><a xlink:href="TransmitterCode_2src_2main_8cpp.html#a5c7f22bae35d5d6df9d54fe79dbb8401" target="_top" xlink:title=" ">
<polygon fill="white" stroke="#666666" points="128,-125 0,-125 0,-106 128,-106 128,-125"/>
<text text-anchor="middle" x="64" y="-113" font-family="Helvetica,sans-Serif" font-size="10.00">ResetTransmitterSettings</text>
</a>
</g>
</g>
<!-- Node13&#45;&gt;Node23 -->
<g id="edge22" class="edge">
<title>Node13&#45;&gt;Node23</title>
<path fill="none" stroke="#63b8ff" d="M173.26,-174.8C170.05,-173.17 166.92,-171.4 164,-169.5 145.05,-157.14 147.5,-144.97 128,-133.5 122.61,-130.33 116.62,-127.69 110.55,-125.5"/>
<polygon fill="#63b8ff" stroke="#63b8ff" points="171.78,-177.97 182.33,-178.91 174.67,-171.59 171.78,-177.97"/>
</g>
<!-- Node28&#45;&gt;Node14 -->
<g id="edge25" class="edge">
<title>Node28&#45;&gt;Node14</title>
<path fill="none" stroke="#63b8ff" d="M179.16,-236.19C156.58,-241.59 127.57,-248.53 104.44,-254.07"/>
<polygon fill="#63b8ff" stroke="#63b8ff" points="179.93,-239.61 188.84,-233.88 178.3,-232.8 179.93,-239.61"/>
</g>
<!-- Node28&#45;&gt;Node17 -->
<g id="edge26" class="edge">
<title>Node28&#45;&gt;Node17</title>
<path fill="none" stroke="#63b8ff" d="M178.98,-227.26C154.54,-227.09 122.6,-226.88 98.75,-226.72"/>
<polygon fill="#63b8ff" stroke="#63b8ff" points="178.77,-230.76 188.8,-227.32 178.82,-223.76 178.77,-230.76"/>
</g>
<!-- Node28&#45;&gt;Node22 -->
<g id="edge27" class="edge">
<title>Node28&#45;&gt;Node22</title>
<path fill="none" stroke="#63b8ff" d="M180.63,-242.25C174.94,-245.08 169.21,-248.2 164,-251.5 146.41,-262.66 146.34,-271.63 128,-281.5 121.36,-285.07 113.96,-288.07 106.63,-290.54"/>
<polygon fill="#63b8ff" stroke="#63b8ff" points="181.8,-245.57 189.35,-238.13 178.81,-239.24 181.8,-245.57"/>
</g>
<!-- Node33&#45;&gt;Node29 -->
<g id="edge31" class="edge">
<title>Node33&#45;&gt;Node29</title>
<path fill="none" stroke="#63b8ff" d="M903.61,-406.53C899.95,-404.99 896.37,-403.31 893,-401.5 859.53,-383.5 826.39,-352.59 810.78,-337.04"/>
<polygon fill="#63b8ff" stroke="#63b8ff" points="902.03,-409.67 912.62,-409.96 904.53,-403.13 902.03,-409.67"/>
</g>
<!-- Node35&#45;&gt;Node5 -->
<g id="edge34" class="edge">
<title>Node35&#45;&gt;Node5</title>
<path fill="none" stroke="#63b8ff" d="M908.84,-680.67C887.68,-677.88 862.51,-674.55 841.86,-671.83"/>
<polygon fill="#63b8ff" stroke="#63b8ff" points="908.25,-684.12 918.63,-681.96 909.17,-677.18 908.25,-684.12"/>
</g>
<!-- Node37 -->
<g id="node27" class="node">
<title>Node37</title>
<g id="a_node27"><a xlink:href="TransmitterCode_2src_2main_8cpp.html#aa98d7fb495cbdc40cb17343ffafbfe15" target="_top" xlink:title=" ">
<polygon fill="white" stroke="#666666" points="699.5,-555 644.5,-555 644.5,-536 699.5,-536 699.5,-555"/>
<text text-anchor="middle" x="672" y="-543" font-family="Helvetica,sans-Serif" font-size="10.00">GetBank</text>
</a>
</g>
</g>
<!-- Node36&#45;&gt;Node37 -->
<g id="edge36" class="edge">
<title>Node36&#45;&gt;Node37</title>
<path fill="none" stroke="#63b8ff" d="M760.09,-570.97C740.57,-565.26 717.49,-558.51 699.99,-553.4"/>
<polygon fill="#63b8ff" stroke="#63b8ff" points="759.08,-574.32 769.66,-573.77 761.04,-567.6 759.08,-574.32"/>
</g>
<!-- Node37&#45;&gt;Node26 -->
<g id="edge37" class="edge">
<title>Node37&#45;&gt;Node26</title>
<path fill="none" stroke="#63b8ff" d="M633.1,-539.31C551.35,-525.98 358.5,-494.51 267.15,-479.6"/>
<polygon fill="#63b8ff" stroke="#63b8ff" points="632.4,-542.75 642.83,-540.9 633.53,-535.84 632.4,-542.75"/>
</g>
<!-- Node38&#45;&gt;Node37 -->
<g id="edge39" class="edge">
<title>Node38&#45;&gt;Node37</title>
<path fill="none" stroke="#63b8ff" d="M754.13,-605.38C750.64,-603.87 747.23,-602.24 744,-600.5 720.39,-587.77 696.46,-567.32 683.29,-555.27"/>
<polygon fill="#63b8ff" stroke="#63b8ff" points="752.71,-608.58 763.3,-609 755.28,-602.07 752.71,-608.58"/>
</g>
<!-- Node39&#45;&gt;Node29 -->
<g id="edge41" class="edge">
<title>Node39&#45;&gt;Node29</title>
<path fill="none" stroke="#63b8ff" d="M915.91,-284.46C888.62,-294.72 852.19,-308.43 827.84,-317.59"/>
<polygon fill="#63b8ff" stroke="#63b8ff" points="917.07,-287.76 925.19,-280.96 914.6,-281.21 917.07,-287.76"/>
</g>
<!-- Node41 -->
<g id="node31" class="node">
<title>Node41</title>
<g id="a_node31"><a xlink:href="TransmitterCode_2src_2main_8cpp.html#a6ae37c6938b8c10b83d1bc74e8643bd9" target="_top" xlink:title=" ">
<polygon fill="white" stroke="#666666" points="600,-685 487,-685 487,-666 600,-666 600,-685"/>
<text text-anchor="middle" x="543.5" y="-673" font-family="Helvetica,sans-Serif" font-size="10.00">CheckPowerOffButton</text>
</a>
</g>
</g>
<!-- Node40&#45;&gt;Node41 -->
<g id="edge43" class="edge">
<title>Node40&#45;&gt;Node41</title>
<path fill="none" stroke="#63b8ff" d="M905.34,-758.57C862.7,-756.16 798.66,-750.88 744,-739.5 679.72,-726.12 606.91,-699.79 569.55,-685.42"/>
<polygon fill="#63b8ff" stroke="#63b8ff" points="905.09,-762.06 915.27,-759.09 905.46,-755.07 905.09,-762.06"/>
</g>
<!-- Node41&#45;&gt;Node26 -->
<g id="edge44" class="edge">
<title>Node41&#45;&gt;Node26</title>
<path fill="none" stroke="#63b8ff" d="M512.68,-660.41C466.82,-636.79 376.76,-588.79 305,-540.5 276.43,-521.28 245.29,-495.43 228.96,-481.46"/>
<polygon fill="#63b8ff" stroke="#63b8ff" points="510.98,-663.47 521.47,-664.92 514.17,-657.24 510.98,-663.47"/>
</g>
<!-- Node43 -->
<g id="node33" class="node">
<title>Node43</title>
<g id="a_node33"><a xlink:href="TransmitterCode_2src_2main_8cpp.html#a17699f358cf9f7c3155a9c5daf8ff13c" target="_top" xlink:title=" ">
<polygon fill="white" stroke="#666666" points="692.5,-482 651.5,-482 651.5,-463 692.5,-463 692.5,-482"/>
<text text-anchor="middle" x="672" y="-470" font-family="Helvetica,sans-Serif" font-size="10.00">setup</text>
</a>
</g>
</g>
<!-- Node42&#45;&gt;Node43 -->
<g id="edge46" class="edge">
<title>Node42&#45;&gt;Node43</title>
<path fill="none" stroke="#63b8ff" d="M751.85,-471.88C731.37,-472.04 708.56,-472.22 692.77,-472.34"/>
<polygon fill="#63b8ff" stroke="#63b8ff" points="751.76,-475.38 761.74,-471.8 751.71,-468.38 751.76,-475.38"/>
</g>
<!-- Node45 -->
<g id="node35" class="node">
<title>Node45</title>
<g id="a_node35"><a xlink:href="TransmitterCode_2src_2main_8cpp.html#ac015e93acba51fe284176b84c05e3450" target="_top" xlink:title=" ">
<polygon fill="white" stroke="#666666" points="845.5,-555 755.5,-555 755.5,-536 845.5,-536 845.5,-555"/>
<text text-anchor="middle" x="800.5" y="-543" font-family="Helvetica,sans-Serif" font-size="10.00">ShowSafetyIsOff</text>
</a>
</g>
</g>
<!-- Node44&#45;&gt;Node45 -->
<g id="edge48" class="edge">
<title>Node44&#45;&gt;Node45</title>
<path fill="none" stroke="#63b8ff" d="M911.59,-537.51C891.17,-538.99 866.52,-540.78 845.73,-542.29"/>
<polygon fill="#63b8ff" stroke="#63b8ff" points="911.84,-541 921.56,-536.78 911.33,-534.02 911.84,-541"/>
</g>
<!-- Node46 -->
<g id="node36" class="node">
<title>Node46</title>
<g id="a_node36"><a xlink:href="TransmitterCode_2src_2main_8cpp.html#a624dab5b77d191ddae33fbe2ac2da4ae" target="_top" xlink:title=" ">
<polygon fill="white" stroke="#666666" points="845.5,-518 755.5,-518 755.5,-499 845.5,-499 845.5,-518"/>
<text text-anchor="middle" x="800.5" y="-506" font-family="Helvetica,sans-Serif" font-size="10.00">ShowSafetyIsOn</text>
</a>
</g>
</g>
<!-- Node44&#45;&gt;Node46 -->
<g id="edge50" class="edge">
<title>Node44&#45;&gt;Node46</title>
<path fill="none" stroke="#63b8ff" d="M911.88,-527.44C891.4,-523.93 866.62,-519.68 845.73,-516.09"/>
<polygon fill="#63b8ff" stroke="#63b8ff" points="911.13,-530.87 921.58,-529.11 912.31,-523.97 911.13,-530.87"/>
</g>
<!-- Node45&#45;&gt;Node37 -->
<g id="edge49" class="edge">
<title>Node45&#45;&gt;Node37</title>
<path fill="none" stroke="#63b8ff" d="M744.18,-545.5C728.74,-545.5 712.66,-545.5 699.7,-545.5"/>
<polygon fill="#63b8ff" stroke="#63b8ff" points="743.74,-549 753.74,-545.5 743.74,-542 743.74,-549"/>
</g>
<!-- Node46&#45;&gt;Node37 -->
<g id="edge51" class="edge">
<title>Node46&#45;&gt;Node37</title>
<path fill="none" stroke="#63b8ff" d="M754.8,-521.57C736.42,-526.95 715.74,-533 699.78,-537.67"/>
<polygon fill="#63b8ff" stroke="#63b8ff" points="755.53,-525.01 764.15,-518.84 753.57,-518.29 755.53,-525.01"/>
</g>
<!-- Node46&#45;&gt;Node43 -->
<g id="edge52" class="edge">
<title>Node46&#45;&gt;Node43</title>
<path fill="none" stroke="#63b8ff" d="M753.65,-495.45C732.75,-489.5 709.09,-482.77 692.83,-478.14"/>
<polygon fill="#63b8ff" stroke="#63b8ff" points="752.57,-498.78 763.14,-498.15 754.48,-492.05 752.57,-498.78"/>
</g>
<!-- Node48 -->
<g id="node38" class="node">
<title>Node48</title>
<g id="a_node38"><a xlink:href="TransmitterCode_2src_2main_8cpp.html#a953f1d5046e183549ed95b08f6d675e3" target="_top" xlink:title=" ">
<polygon fill="#fff0f0" stroke="red" points="849.5,-807 751.5,-807 751.5,-788 849.5,-788 849.5,-807"/>
<text text-anchor="middle" x="800.5" y="-795" font-family="Helvetica,sans-Serif" font-size="10.00">CheckGapsLength</text>
</a>
</g>
</g>
<!-- Node47&#45;&gt;Node48 -->
<g id="edge54" class="edge">
<title>Node47&#45;&gt;Node48</title>
<path fill="none" stroke="#63b8ff" d="M907.16,-797.5C889.03,-797.5 868.18,-797.5 849.81,-797.5"/>
<polygon fill="#63b8ff" stroke="#63b8ff" points="907.11,-801 917.11,-797.5 907.11,-794 907.11,-801"/>
</g>
<!-- Node49&#45;&gt;Node43 -->
<g id="edge58" class="edge">
<title>Node49&#45;&gt;Node43</title>
<path fill="none" stroke="#63b8ff" d="M755.49,-447.72C734.21,-454.11 709.73,-461.47 693,-466.49"/>
<polygon fill="#63b8ff" stroke="#63b8ff" points="756.24,-451.15 764.81,-444.92 754.23,-444.44 756.24,-451.15"/>
</g>
<!-- Node50 -->
<g id="node40" class="node">
<title>Node50</title>
<g id="a_node40"><a xlink:href="TransmitterCode_2src_2main_8cpp.html#a5c0f1fd26cdd6ecde365f521060158ba" target="_top" xlink:title=" ">
<polygon fill="#fff0f0" stroke="red" points="426.5,-462 329.5,-462 329.5,-443 426.5,-443 426.5,-462"/>
<text text-anchor="middle" x="378" y="-450" font-family="Helvetica,sans-Serif" font-size="10.00">CheckModelName</text>
</a>
</g>
</g>
<!-- Node49&#45;&gt;Node50 -->
<g id="edge56" class="edge">
<title>Node49&#45;&gt;Node50</title>
<path fill="none" stroke="#63b8ff" d="M749.62,-436.64C667.99,-440.13 506.94,-447.02 426.73,-450.46"/>
<polygon fill="#63b8ff" stroke="#63b8ff" points="749.72,-440.13 759.56,-436.21 749.42,-433.14 749.72,-440.13"/>
</g>
<!-- Node50&#45;&gt;Node26 -->
<g id="edge57" class="edge">
<title>Node50&#45;&gt;Node26</title>
<path fill="none" stroke="#63b8ff" d="M317.87,-459.54C301.22,-461.53 283.29,-463.66 267.26,-465.57"/>
<polygon fill="#63b8ff" stroke="#63b8ff" points="318.13,-463.04 327.64,-458.38 317.3,-456.09 318.13,-463.04"/>
</g>
<!-- Node53 -->
<g id="node42" class="node">
<title>Node53</title>
<g id="a_node42"><a xlink:href="TransmitterCode_2src_2main_8cpp.html#a4f813935d8fe58355228cbbf25e12f96" target="_top" xlink:title=" ">
<polygon fill="#fff0f0" stroke="red" points="857,-731 744,-731 744,-712 857,-712 857,-731"/>
<text text-anchor="middle" x="800.5" y="-719" font-family="Helvetica,sans-Serif" font-size="10.00">GetRXVersionNumber</text>
</a>
</g>
</g>
<!-- Node52&#45;&gt;Node53 -->
<g id="edge60" class="edge">
<title>Node52&#45;&gt;Node53</title>
<path fill="none" stroke="#63b8ff" d="M909.86,-722.93C893.54,-722.72 874.73,-722.47 857.4,-722.24"/>
<polygon fill="#63b8ff" stroke="#63b8ff" points="909.68,-726.43 919.73,-723.06 909.77,-719.43 909.68,-726.43"/>
</g>
<!-- Node54&#45;&gt;Node29 -->
<g id="edge62" class="edge">
<title>Node54&#45;&gt;Node29</title>
<path fill="none" stroke="#63b8ff" d="M885.31,-338.01C872.89,-336.45 860.18,-334.86 848.54,-333.4"/>
<polygon fill="#63b8ff" stroke="#63b8ff" points="884.73,-341.47 895.09,-339.24 885.6,-334.52 884.73,-341.47"/>
</g>
<!-- Node55&#45;&gt;Node29 -->
<g id="edge64" class="edge">
<title>Node55&#45;&gt;Node29</title>
<path fill="none" stroke="#63b8ff" d="M908.92,-369.97C903.53,-368.19 898.13,-366.35 893,-364.5 869.46,-356.03 843.01,-345.19 824.63,-337.43"/>
<polygon fill="#63b8ff" stroke="#63b8ff" points="907.8,-373.29 918.4,-373.04 909.96,-366.63 907.8,-373.29"/>
</g>
<!-- Node56&#45;&gt;Node15 -->
<g id="edge66" class="edge">
<title>Node56&#45;&gt;Node15</title>
<path fill="none" stroke="#63b8ff" d="M1131.51,-15.89C1085.35,-21.07 1015.76,-27.5 955,-27.5 955,-27.5 955,-27.5 377,-27.5 270.52,-27.5 143.68,-32.8 90.47,-35.27"/>
<polygon fill="#63b8ff" stroke="#63b8ff" points="1131.67,-19.4 1141.21,-14.78 1130.88,-12.44 1131.67,-19.4"/>
</g>
<!-- Node57&#45;&gt;Node9 -->
<g id="edge68" class="edge">
<title>Node57&#45;&gt;Node9</title>
<path fill="none" stroke="#63b8ff" d="M1302.03,-119.72C1285.6,-137.17 1258.31,-162.67 1229,-175.5 1166.99,-202.65 1145.7,-195.5 1078,-195.5 1078,-195.5 1078,-195.5 799.5,-195.5 728.08,-195.5 645.64,-201.83 594.28,-206.53"/>
<polygon fill="#63b8ff" stroke="#63b8ff" points="1304.41,-122.31 1308.57,-112.56 1299.24,-117.59 1304.41,-122.31"/>
</g>
<!-- Node57&#45;&gt;Node56 -->
<g id="edge69" class="edge">
<title>Node57&#45;&gt;Node56</title>
<path fill="none" stroke="#63b8ff" d="M1296.25,-84.71C1286.58,-77.13 1275.12,-67.99 1265,-59.5 1248.6,-45.74 1247.17,-38.83 1229,-27.5 1224.1,-24.44 1218.59,-21.71 1213.17,-19.36"/>
<polygon fill="#63b8ff" stroke="#63b8ff" points="1293.97,-87.37 1304.01,-90.75 1298.27,-81.85 1293.97,-87.37"/>
</g>
<!-- Node58 -->
<g id="node47" class="node">
<title>Node58</title>
<g id="a_node47"><a xlink:href="TransmitterCode_2src_2main_8cpp.html#a01be76cc3bf8a963f987ae47916dc8d3" target="_top" xlink:title=" ">
<polygon fill="white" stroke="#666666" points="1213,-93 1155,-93 1155,-74 1213,-74 1213,-93"/>
<text text-anchor="middle" x="1184" y="-81" font-family="Helvetica,sans-Serif" font-size="10.00">DownLog</text>
</a>
</g>
</g>
<!-- Node57&#45;&gt;Node58 -->
<g id="edge70" class="edge">
<title>Node57&#45;&gt;Node58</title>
<path fill="none" stroke="#63b8ff" d="M1270.41,-95.06C1251.28,-92.47 1229.88,-89.57 1213.29,-87.33"/>
<polygon fill="#63b8ff" stroke="#63b8ff" points="1269.78,-98.51 1280.16,-96.38 1270.72,-91.57 1269.78,-98.51"/>
</g>
<!-- Node59 -->
<g id="node48" class="node">
<title>Node59</title>
<g id="a_node48"><a xlink:href="TransmitterCode_2src_2main_8cpp.html#a6e27b8b3c5b752c6a208a768de54c277" target="_top" xlink:title=" ">
<polygon fill="white" stroke="#666666" points="1213,-56 1155,-56 1155,-37 1213,-37 1213,-56"/>
<text text-anchor="middle" x="1184" y="-44" font-family="Helvetica,sans-Serif" font-size="10.00">LogVIEW</text>
</a>
</g>
</g>
<!-- Node57&#45;&gt;Node59 -->
<g id="edge71" class="edge">
<title>Node57&#45;&gt;Node59</title>
<path fill="none" stroke="#63b8ff" d="M1283.91,-87.28C1267.35,-80.38 1247.15,-71.98 1229,-64.5 1222.59,-61.86 1215.65,-59.01 1209.22,-56.38"/>
<polygon fill="#63b8ff" stroke="#63b8ff" points="1282.24,-90.37 1292.82,-90.99 1284.94,-83.91 1282.24,-90.37"/>
</g>
<!-- Node60 -->
<g id="node49" class="node">
<title>Node60</title>
<g id="a_node49"><a xlink:href="TransmitterCode_2src_2main_8cpp.html#a816b0ec602ed068bb08647d951681993" target="_top" xlink:title=" ">
<polygon fill="white" stroke="#666666" points="1217.5,-167 1150.5,-167 1150.5,-148 1217.5,-148 1217.5,-167"/>
<text text-anchor="middle" x="1184" y="-155" font-family="Helvetica,sans-Serif" font-size="10.00">RefreshLog</text>
</a>
</g>
</g>
<!-- Node57&#45;&gt;Node60 -->
<g id="edge72" class="edge">
<title>Node57&#45;&gt;Node60</title>
<path fill="none" stroke="#63b8ff" d="M1283.94,-115.84C1260.38,-125.76 1229.61,-138.72 1208.68,-147.53"/>
<polygon fill="#63b8ff" stroke="#63b8ff" points="1285.28,-119.08 1293.13,-111.97 1282.56,-112.63 1285.28,-119.08"/>
</g>
<!-- Node61 -->
<g id="node50" class="node">
<title>Node61</title>
<g id="a_node50"><a xlink:href="TransmitterCode_2src_2main_8cpp.html#a2206c19b4fc075f4c9f1bb957ca89e1d" target="_top" xlink:title=" ">
<polygon fill="white" stroke="#666666" points="1207,-130 1161,-130 1161,-111 1207,-111 1207,-130"/>
<text text-anchor="middle" x="1184" y="-118" font-family="Helvetica,sans-Serif" font-size="10.00">UpLog</text>
</a>
</g>
</g>
<!-- Node57&#45;&gt;Node61 -->
<g id="edge73" class="edge">
<title>Node57&#45;&gt;Node61</title>
<path fill="none" stroke="#63b8ff" d="M1270.36,-108.31C1248.79,-111.39 1224.32,-114.88 1207.13,-117.34"/>
<polygon fill="#63b8ff" stroke="#63b8ff" points="1270.75,-111.79 1280.16,-106.91 1269.76,-104.86 1270.75,-111.79"/>
</g>
</g>
</svg>
