<?xml version="1.0" encoding="UTF-8" standalone="no"?>
<!DOCTYPE svg PUBLIC "-//W3C//DTD SVG 1.1//EN"
 "http://www.w3.org/Graphics/SVG/1.1/DTD/svg11.dtd">
<!-- Generated by graphviz version 7.0.4 (20221203.1631)
 -->
<!-- Title: ShowFileNumber Pages: 1 -->
<svg width="445pt" height="175pt"
 viewBox="0.00 0.00 445.00 175.00" xmlns="http://www.w3.org/2000/svg" xmlns:xlink="http://www.w3.org/1999/xlink">
<g id="graph0" class="graph" transform="scale(1 1) rotate(0) translate(4 171)">
<title>ShowFileNumber</title>
<!-- Node1 -->
<g id="node1" class="node">
<title>Node1</title>
<g id="a_node1"><a xlink:title="updates display in textbox">
<polygon fill="#999999" stroke="#666666" points="437,-74 345,-74 345,-55 437,-55 437,-74"/>
<text text-anchor="middle" x="391" y="-62" font-family="Helvetica,sans-Serif" font-size="10.00">ShowFileNumber</text>
</a>
</g>
</g>
<!-- Node2 -->
<g id="node2" class="node">
<title>Node2</title>
<g id="a_node2"><a xlink:href="TransmitterCode_2src_2main_8cpp.html#a804fdbdd5eab4c596bbe8a23eecbe4d5" target="_top" xlink:title=" ">
<polygon fill="white" stroke="#666666" points="309,-130 208,-130 208,-111 309,-111 309,-130"/>
<text text-anchor="middle" x="258.5" y="-118" font-family="Helvetica,sans-Serif" font-size="10.00">ButtonWasPressed</text>
</a>
</g>
</g>
<!-- Node1&#45;&gt;Node2 -->
<g id="edge1" class="edge">
<title>Node1&#45;&gt;Node2</title>
<path fill="none" stroke="#63b8ff" d="M358.92,-79.24C343.93,-86.21 325.63,-94.52 309,-101.5 301.7,-104.56 293.72,-107.71 286.34,-110.55"/>
<polygon fill="#63b8ff" stroke="#63b8ff" points="360.23,-82.49 367.81,-75.08 357.27,-76.15 360.23,-82.49"/>
</g>
<!-- Node7 -->
<g id="node7" class="node">
<title>Node7</title>
<g id="a_node7"><a xlink:href="TransmitterCode_2src_2main_8cpp.html#ae08bf94bb0a896d42684e76b643b3273" target="_top" xlink:title=" ">
<polygon fill="white" stroke="#666666" points="298.5,-93 218.5,-93 218.5,-74 298.5,-74 298.5,-93"/>
<text text-anchor="middle" x="258.5" y="-81" font-family="Helvetica,sans-Serif" font-size="10.00">DecFileInView</text>
</a>
</g>
</g>
<!-- Node1&#45;&gt;Node7 -->
<g id="edge8" class="edge">
<title>Node1&#45;&gt;Node7</title>
<path fill="none" stroke="#63b8ff" d="M333.59,-72.71C321.8,-74.43 309.61,-76.2 298.61,-77.81"/>
<polygon fill="#63b8ff" stroke="#63b8ff" points="333.83,-76.21 343.23,-71.31 332.83,-69.29 333.83,-76.21"/>
</g>
<!-- Node8 -->
<g id="node8" class="node">
<title>Node8</title>
<g id="a_node8"><a xlink:href="TransmitterCode_2src_2main_8cpp.html#a446a94169d966af920710f7acddc5257" target="_top" xlink:title=" ">
<polygon fill="white" stroke="#666666" points="304,-56 213,-56 213,-37 304,-37 304,-56"/>
<text text-anchor="middle" x="258.5" y="-44" font-family="Helvetica,sans-Serif" font-size="10.00">GotoModelsView</text>
</a>
</g>
</g>
<!-- Node1&#45;&gt;Node8 -->
<g id="edge9" class="edge">
<title>Node1&#45;&gt;Node8</title>
<path fill="none" stroke="#63b8ff" d="M333.44,-56.7C323.68,-55.35 313.65,-53.97 304.26,-52.67"/>
<polygon fill="#63b8ff" stroke="#63b8ff" points="332.84,-60.15 343.22,-58.05 333.8,-53.21 332.84,-60.15"/>
</g>
<!-- Node10 -->
<g id="node10" class="node">
<title>Node10</title>
<g id="a_node10"><a xlink:href="TransmitterCode_2src_2main_8cpp.html#a07a0fee58c18e94dc01a8167e07cbdc3" target="_top" xlink:title=" ">
<polygon fill="white" stroke="#666666" points="296.5,-19 220.5,-19 220.5,0 296.5,0 296.5,-19"/>
<text text-anchor="middle" x="258.5" y="-7" font-family="Helvetica,sans-Serif" font-size="10.00">IncFileInView</text>
</a>
</g>
</g>
<!-- Node1&#45;&gt;Node10 -->
<g id="edge11" class="edge">
<title>Node1&#45;&gt;Node10</title>
<path fill="none" stroke="#63b8ff" d="M359.28,-49.77C344.25,-42.74 325.81,-34.38 309,-27.5 302.31,-24.76 295.04,-22 288.18,-19.49"/>
<polygon fill="#63b8ff" stroke="#63b8ff" points="357.65,-52.87 368.19,-53.97 360.64,-46.54 357.65,-52.87"/>
</g>
<!-- Node3 -->
<g id="node3" class="node">
<title>Node3</title>
<g id="a_node3"><a xlink:href="TransmitterCode_2src_2main_8cpp.html#a6506bf72e0dd9e9ce480156b47625bff" target="_top" xlink:title=" ">
<polygon fill="white" stroke="#666666" points="164.5,-167 78.5,-167 78.5,-148 164.5,-148 164.5,-167"/>
<text text-anchor="middle" x="121.5" y="-155" font-family="Helvetica,sans-Serif" font-size="10.00">GetConfirmation</text>
</a>
</g>
</g>
<!-- Node2&#45;&gt;Node3 -->
<g id="edge2" class="edge">
<title>Node2&#45;&gt;Node3</title>
<path fill="none" stroke="#63b8ff" d="M196.6,-130.47C176.54,-135.79 155.7,-142.13 141.25,-147.52"/>
<polygon fill="#63b8ff" stroke="#63b8ff" points="197.34,-133.89 206.15,-128.01 195.59,-127.12 197.34,-133.89"/>
</g>
<!-- Node4 -->
<g id="node4" class="node">
<title>Node4</title>
<g id="a_node4"><a xlink:href="TransmitterCode_2src_2main_8cpp.html#a558ea014e230b7caa54ce5a37ad29b22" target="_top" xlink:title=" ">
<polygon fill="white" stroke="#666666" points="172,-130 71,-130 71,-111 172,-111 172,-130"/>
<text text-anchor="middle" x="121.5" y="-118" font-family="Helvetica,sans-Serif" font-size="10.00">ManageTransmitter</text>
</a>
</g>
</g>
<!-- Node2&#45;&gt;Node4 -->
<g id="edge4" class="edge">
<title>Node2&#45;&gt;Node4</title>
<path fill="none" stroke="#63b8ff" d="M196.32,-120.5C188.24,-120.5 180.04,-120.5 172.18,-120.5"/>
<polygon fill="#63b8ff" stroke="#63b8ff" points="196.1,-124 206.1,-120.5 196.1,-117 196.1,-124"/>
</g>
<!-- Node6 -->
<g id="node6" class="node">
<title>Node6</title>
<g id="a_node6"><a xlink:href="TransmitterCode_2src_2main_8cpp.html#ab7c9edf843c732d7fe296564f39bc0dc" target="_top" xlink:title="RECEIVE A MODEL FILE.">
<polygon fill="white" stroke="#666666" points="168.5,-93 74.5,-93 74.5,-74 168.5,-74 168.5,-93"/>
<text text-anchor="middle" x="121.5" y="-81" font-family="Helvetica,sans-Serif" font-size="10.00">ReceiveModelFile</text>
</a>
</g>
</g>
<!-- Node2&#45;&gt;Node6 -->
<g id="edge6" class="edge">
<title>Node2&#45;&gt;Node6</title>
<path fill="none" stroke="#63b8ff" d="M228.12,-106.76C210.76,-100.91 188.4,-94.53 168.72,-89.72"/>
<polygon fill="#63b8ff" stroke="#63b8ff" points="226.71,-109.98 237.3,-110.01 229.04,-103.38 226.71,-109.98"/>
</g>
<!-- Node3&#45;&gt;Node2 -->
<g id="edge3" class="edge">
<title>Node3&#45;&gt;Node2</title>
<path fill="none" stroke="#63b8ff" d="M176.01,-149.45C198.2,-143.79 222.49,-136.54 238.73,-130.49"/>
<polygon fill="#63b8ff" stroke="#63b8ff" points="175.33,-146.02 166.46,-151.81 177.01,-152.81 175.33,-146.02"/>
</g>
<!-- Node5 -->
<g id="node5" class="node">
<title>Node5</title>
<g id="a_node5"><a xlink:href="TransmitterCode_2src_2main_8cpp.html#ad3cb30894c94eb016e98bdcaa899ac86" target="_top" xlink:title=" ">
<polygon fill="white" stroke="#666666" points="35,-130 0,-130 0,-111 35,-111 35,-130"/>
<text text-anchor="middle" x="17.5" y="-118" font-family="Helvetica,sans-Serif" font-size="10.00">loop</text>
</a>
</g>
</g>
<!-- Node4&#45;&gt;Node5 -->
<g id="edge5" class="edge">
<title>Node4&#45;&gt;Node5</title>
<path fill="none" stroke="#63b8ff" d="M59.4,-120.5C50.6,-120.5 42.21,-120.5 35.35,-120.5"/>
<polygon fill="#63b8ff" stroke="#63b8ff" points="59.18,-124 69.18,-120.5 59.18,-117 59.18,-124"/>
</g>
<!-- Node6&#45;&gt;Node2 -->
<g id="edge7" class="edge">
<title>Node6&#45;&gt;Node2</title>
<path fill="none" stroke="#63b8ff" d="M151.75,-97.19C168.06,-102.7 188.82,-108.67 207.61,-113.37"/>
<polygon fill="#63b8ff" stroke="#63b8ff" points="153.27,-94.02 142.68,-93.99 150.94,-100.62 153.27,-94.02"/>
</g>
<!-- Node9 -->
<g id="node9" class="node">
<title>Node9</title>
<g id="a_node9"><a xlink:href="TransmitterCode_2src_2main_8cpp.html#a7af8e147bab19bdc499ffef595d30aae" target="_top" xlink:title=" ">
<polygon fill="white" stroke="#666666" points="169,-56 74,-56 74,-37 169,-37 169,-56"/>
<text text-anchor="middle" x="121.5" y="-44" font-family="Helvetica,sans-Serif" font-size="10.00">EndRenameModel</text>
</a>
</g>
</g>
<!-- Node8&#45;&gt;Node9 -->
<g id="edge10" class="edge">
<title>Node8&#45;&gt;Node9</title>
<path fill="none" stroke="#63b8ff" d="M201.17,-46.5C190.49,-46.5 179.44,-46.5 169.1,-46.5"/>
<polygon fill="#63b8ff" stroke="#63b8ff" points="201.03,-50 211.03,-46.5 201.03,-43 201.03,-50"/>
</g>
</g>
</svg>
