<?xml version="1.0" encoding="UTF-8" standalone="no"?>
<!DOCTYPE svg PUBLIC "-//W3C//DTD SVG 1.1//EN"
 "http://www.w3.org/Graphics/SVG/1.1/DTD/svg11.dtd">
<!-- Generated by graphviz version 7.0.5 (20221223.1930)
 -->
<!-- Title: ThrottleUpTrim Pages: 1 -->
<svg width="849pt" height="140pt"
 viewBox="0.00 0.00 849.00 140.00" xmlns="http://www.w3.org/2000/svg" xmlns:xlink="http://www.w3.org/1999/xlink">
<g id="graph0" class="graph" transform="scale(1 1) rotate(0) translate(4 136)">
<title>ThrottleUpTrim</title>
<!-- Node1 -->
<g id="node1" class="node">
<title>Node1</title>
<g id="a_node1"><a xlink:title=" ">
<polygon fill="#999999" stroke="#666666" points="82,-74 0,-74 0,-55 82,-55 82,-74"/>
<text text-anchor="middle" x="41" y="-62" font-family="Helvetica,sans-Serif" font-size="10.00">ThrottleUpTrim</text>
</a>
</g>
</g>
<!-- Node2 -->
<g id="node2" class="node">
<title>Node2</title>
<g id="a_node2"><a xlink:href="Trims_8h.html#a17123a117a96a9416dec48d9345f8a5b" target="_top" xlink:title=" ">
<polygon fill="white" stroke="#666666" points="183,-74 118,-74 118,-55 183,-55 183,-74"/>
<text text-anchor="middle" x="150.5" y="-62" font-family="Helvetica,sans-Serif" font-size="10.00">MoveaTrim</text>
</a>
</g>
</g>
<!-- Node1&#45;&gt;Node2 -->
<g id="edge1" class="edge">
<title>Node1&#45;&gt;Node2</title>
<path fill="none" stroke="#63b8ff" d="M82.33,-64.5C90.18,-64.5 98.43,-64.5 106.37,-64.5"/>
<polygon fill="#63b8ff" stroke="#63b8ff" points="106.16,-68 116.16,-64.5 106.16,-61 106.16,-68"/>
</g>
<!-- Node3 -->
<g id="node3" class="node">
<title>Node3</title>
<g id="a_node3"><a xlink:href="Trims_8h.html#ae4be4bb0e33569d140264079d28227fd" target="_top" xlink:title=" ">
<polygon fill="white" stroke="#666666" points="272,-93 219,-93 219,-74 272,-74 272,-93"/>
<text text-anchor="middle" x="245.5" y="-81" font-family="Helvetica,sans-Serif" font-size="10.00">DecTrim</text>
</a>
</g>
</g>
<!-- Node2&#45;&gt;Node3 -->
<g id="edge2" class="edge">
<title>Node2&#45;&gt;Node3</title>
<path fill="none" stroke="#63b8ff" d="M183.25,-70.99C191.11,-72.59 199.61,-74.33 207.7,-75.98"/>
<polygon fill="#63b8ff" stroke="#63b8ff" points="206.77,-79.36 217.27,-77.94 208.17,-72.51 206.77,-79.36"/>
</g>
<!-- Node14 -->
<g id="node14" class="node">
<title>Node14</title>
<g id="a_node14"><a xlink:href="Trims_8h.html#a6e96b79e1edc864e742216a05c7c3622" target="_top" xlink:title=" ">
<polygon fill="white" stroke="#666666" points="270.5,-56 220.5,-56 220.5,-37 270.5,-37 270.5,-56"/>
<text text-anchor="middle" x="245.5" y="-44" font-family="Helvetica,sans-Serif" font-size="10.00">IncTrim</text>
</a>
</g>
</g>
<!-- Node2&#45;&gt;Node14 -->
<g id="edge18" class="edge">
<title>Node2&#45;&gt;Node14</title>
<path fill="none" stroke="#63b8ff" d="M183.25,-58.36C191.57,-56.75 200.59,-55 209.09,-53.35"/>
<polygon fill="#63b8ff" stroke="#63b8ff" points="209.6,-56.82 218.75,-51.48 208.27,-49.95 209.6,-56.82"/>
</g>
<!-- Node4 -->
<g id="node4" class="node">
<title>Node4</title>
<g id="a_node4"><a xlink:href="Utilities_8h.html#aa490b4664b0a4498d53b30b82287d5df" target="_top" xlink:title=" ">
<polygon fill="white" stroke="#666666" points="384,-93 321,-93 321,-74 384,-74 384,-93"/>
<text text-anchor="middle" x="352.5" y="-81" font-family="Helvetica,sans-Serif" font-size="10.00">PlaySound</text>
</a>
</g>
</g>
<!-- Node3&#45;&gt;Node4 -->
<g id="edge3" class="edge">
<title>Node3&#45;&gt;Node4</title>
<path fill="none" stroke="#63b8ff" d="M272.46,-83.5C283.61,-83.5 296.94,-83.5 309.45,-83.5"/>
<polygon fill="#63b8ff" stroke="#63b8ff" points="309.1,-87 319.1,-83.5 309.1,-80 309.1,-87"/>
</g>
<!-- Node11 -->
<g id="node11" class="node">
<title>Node11</title>
<g id="a_node11"><a xlink:href="Trims_8h.html#ac78966debc2cdc13d8ca958ce3b20c78" target="_top" xlink:title=" ">
<polygon fill="white" stroke="#666666" points="397,-56 308,-56 308,-37 397,-37 397,-56"/>
<text text-anchor="middle" x="352.5" y="-44" font-family="Helvetica,sans-Serif" font-size="10.00">UpdateTrimView</text>
</a>
</g>
</g>
<!-- Node3&#45;&gt;Node11 -->
<g id="edge10" class="edge">
<title>Node3&#45;&gt;Node11</title>
<path fill="none" stroke="#63b8ff" d="M272.46,-74.35C284.51,-70.11 299.09,-64.97 312.43,-60.27"/>
<polygon fill="#63b8ff" stroke="#63b8ff" points="313.57,-63.58 321.84,-56.95 311.24,-56.98 313.57,-63.58"/>
</g>
<!-- Node5 -->
<g id="node5" class="node">
<title>Node5</title>
<g id="a_node5"><a xlink:href="Nextion_8h.html#aecac2f0c289f02ef3c92b85be82eacac" target="_top" xlink:title=" ">
<polygon fill="white" stroke="#666666" points="616,-94 533,-94 533,-75 616,-75 616,-94"/>
<text text-anchor="middle" x="574.5" y="-82" font-family="Helvetica,sans-Serif" font-size="10.00">SendCommand</text>
</a>
</g>
</g>
<!-- Node4&#45;&gt;Node5 -->
<g id="edge4" class="edge">
<title>Node4&#45;&gt;Node5</title>
<path fill="none" stroke="#63b8ff" d="M384.09,-83.64C419.56,-83.8 478.63,-84.07 521.38,-84.26"/>
<polygon fill="#63b8ff" stroke="#63b8ff" points="521.17,-87.76 531.19,-84.31 521.2,-80.76 521.17,-87.76"/>
</g>
<!-- Node10 -->
<g id="node10" class="node">
<title>Node10</title>
<g id="a_node10"><a xlink:href="Utilities_8h.html#a590a9174319918d7e3d7baca323fcf26" target="_top" xlink:title=" ">
<polygon fill="white" stroke="#666666" points="589,-132 560,-132 560,-113 589,-113 589,-132"/>
<text text-anchor="middle" x="574.5" y="-120" font-family="Helvetica,sans-Serif" font-size="10.00">Str</text>
</a>
</g>
</g>
<!-- Node4&#45;&gt;Node10 -->
<g id="edge9" class="edge">
<title>Node4&#45;&gt;Node10</title>
<path fill="none" stroke="#63b8ff" d="M384.44,-89.47C399.14,-92.27 416.96,-95.62 433,-98.5 473.31,-105.75 520.22,-113.65 548.35,-118.34"/>
<polygon fill="#63b8ff" stroke="#63b8ff" points="547.6,-121.76 558.03,-119.95 548.74,-114.86 547.6,-121.76"/>
</g>
<!-- Node6 -->
<g id="node6" class="node">
<title>Node6</title>
<g id="a_node6"><a xlink:href="Utilities_8h.html#a3b1d8aa403e2724e55c71da3d9d13e7e" target="_top" xlink:title=" ">
<polygon fill="white" stroke="#666666" points="732,-130 655,-130 655,-111 732,-111 732,-130"/>
<text text-anchor="middle" x="693.5" y="-118" font-family="Helvetica,sans-Serif" font-size="10.00">DelayWithDog</text>
</a>
</g>
</g>
<!-- Node5&#45;&gt;Node6 -->
<g id="edge5" class="edge">
<title>Node5&#45;&gt;Node6</title>
<path fill="none" stroke="#63b8ff" d="M607.78,-94.43C620.7,-98.41 635.76,-103.04 649.58,-107.29"/>
<polygon fill="#63b8ff" stroke="#63b8ff" points="648.29,-110.56 658.88,-110.15 650.35,-103.87 648.29,-110.56"/>
</g>
<!-- Node8 -->
<g id="node8" class="node">
<title>Node8</title>
<g id="a_node8"><a xlink:href="Nextion_8h.html#a43937dd3d9c795271fd9c3eb3c6b6410" target="_top" xlink:title=" ">
<polygon fill="white" stroke="#666666" points="735,-56 652,-56 652,-37 735,-37 735,-56"/>
<text text-anchor="middle" x="693.5" y="-44" font-family="Helvetica,sans-Serif" font-size="10.00">GetReturnCode</text>
</a>
</g>
</g>
<!-- Node5&#45;&gt;Node8 -->
<g id="edge7" class="edge">
<title>Node5&#45;&gt;Node8</title>
<path fill="none" stroke="#63b8ff" d="M606.24,-74.52C619.94,-70.07 636.29,-64.75 651.06,-59.96"/>
<polygon fill="#63b8ff" stroke="#63b8ff" points="652.1,-63.3 660.53,-56.88 649.93,-56.65 652.1,-63.3"/>
</g>
<!-- Node9 -->
<g id="node9" class="node">
<title>Node9</title>
<g id="a_node9"><a xlink:href="TransmitterCode_2src_2main_8cpp.html#a5f109790a6fe0b972a502f3cac4ed1e7" target="_top" xlink:title=" ">
<polygon fill="white" stroke="#666666" points="717.5,-93 669.5,-93 669.5,-74 717.5,-74 717.5,-93"/>
<text text-anchor="middle" x="693.5" y="-81" font-family="Helvetica,sans-Serif" font-size="10.00">InStrng</text>
</a>
</g>
</g>
<!-- Node5&#45;&gt;Node9 -->
<g id="edge8" class="edge">
<title>Node5&#45;&gt;Node9</title>
<path fill="none" stroke="#63b8ff" d="M616.42,-84.15C629.94,-84.03 644.84,-83.91 657.85,-83.8"/>
<polygon fill="#63b8ff" stroke="#63b8ff" points="657.68,-87.3 667.65,-83.71 657.62,-80.3 657.68,-87.3"/>
</g>
<!-- Node7 -->
<g id="node7" class="node">
<title>Node7</title>
<g id="a_node7"><a xlink:href="Utilities_8h.html#ada95a00a341e4a80176eda743a94ab2e" target="_top" xlink:title=" ">
<polygon fill="white" stroke="#666666" points="841,-130 771,-130 771,-111 841,-111 841,-130"/>
<text text-anchor="middle" x="806" y="-118" font-family="Helvetica,sans-Serif" font-size="10.00">KickTheDog</text>
</a>
</g>
</g>
<!-- Node6&#45;&gt;Node7 -->
<g id="edge6" class="edge">
<title>Node6&#45;&gt;Node7</title>
<path fill="none" stroke="#63b8ff" d="M732.22,-120.5C741.01,-120.5 750.46,-120.5 759.55,-120.5"/>
<polygon fill="#63b8ff" stroke="#63b8ff" points="759.28,-124 769.28,-120.5 759.28,-117 759.28,-124"/>
</g>
<!-- Node12 -->
<g id="node12" class="node">
<title>Node12</title>
<g id="a_node12"><a xlink:href="Nextion_8h.html#afe513398f72d5e48f691830a1ef6eb42" target="_top" xlink:title=" ">
<polygon fill="white" stroke="#666666" points="494,-19 436,-19 436,0 494,0 494,-19"/>
<text text-anchor="middle" x="465" y="-7" font-family="Helvetica,sans-Serif" font-size="10.00">SendText</text>
</a>
</g>
</g>
<!-- Node11&#45;&gt;Node12 -->
<g id="edge11" class="edge">
<title>Node11&#45;&gt;Node12</title>
<path fill="none" stroke="#63b8ff" d="M383.11,-36.58C396.03,-32.26 411.34,-27.13 425.15,-22.51"/>
<polygon fill="#63b8ff" stroke="#63b8ff" points="426.02,-25.91 434.4,-19.41 423.8,-19.27 426.02,-25.91"/>
</g>
<!-- Node13 -->
<g id="node13" class="node">
<title>Node13</title>
<g id="a_node13"><a xlink:href="Nextion_8h.html#a1e20efc1e419b252b50d36f9924503fc" target="_top" xlink:title=" ">
<polygon fill="white" stroke="#666666" points="497,-56 433,-56 433,-37 497,-37 497,-56"/>
<text text-anchor="middle" x="465" y="-44" font-family="Helvetica,sans-Serif" font-size="10.00">SendValue</text>
</a>
</g>
</g>
<!-- Node11&#45;&gt;Node13 -->
<g id="edge14" class="edge">
<title>Node11&#45;&gt;Node13</title>
<path fill="none" stroke="#63b8ff" d="M397.49,-46.5C405.32,-46.5 413.47,-46.5 421.27,-46.5"/>
<polygon fill="#63b8ff" stroke="#63b8ff" points="421.23,-50 431.23,-46.5 421.23,-43 421.23,-50"/>
</g>
<!-- Node12&#45;&gt;Node5 -->
<g id="edge13" class="edge">
<title>Node12&#45;&gt;Node5</title>
<path fill="none" stroke="#63b8ff" d="M483.92,-19.44C488.26,-21.97 492.84,-24.76 497,-27.5 516.17,-40.14 537.01,-55.81 552.09,-67.52"/>
<polygon fill="#63b8ff" stroke="#63b8ff" points="549.87,-70.22 559.9,-73.63 554.19,-64.71 549.87,-70.22"/>
</g>
<!-- Node12&#45;&gt;Node8 -->
<g id="edge12" class="edge">
<title>Node12&#45;&gt;Node8</title>
<path fill="none" stroke="#63b8ff" d="M494.23,-14.11C530.74,-20.08 595.05,-30.58 640.51,-38.01"/>
<polygon fill="#63b8ff" stroke="#63b8ff" points="639.7,-41.42 650.14,-39.58 640.83,-34.51 639.7,-41.42"/>
</g>
<!-- Node13&#45;&gt;Node5 -->
<g id="edge16" class="edge">
<title>Node13&#45;&gt;Node5</title>
<path fill="none" stroke="#63b8ff" d="M494.24,-56.48C506.59,-60.85 521.27,-66.04 534.62,-70.76"/>
<polygon fill="#63b8ff" stroke="#63b8ff" points="533.42,-74.05 544.02,-74.08 535.76,-67.45 533.42,-74.05"/>
</g>
<!-- Node13&#45;&gt;Node8 -->
<g id="edge15" class="edge">
<title>Node13&#45;&gt;Node8</title>
<path fill="none" stroke="#63b8ff" d="M497.49,-46.5C534.43,-46.5 596.2,-46.5 640.33,-46.5"/>
<polygon fill="#63b8ff" stroke="#63b8ff" points="640.19,-50 650.19,-46.5 640.19,-43 640.19,-50"/>
</g>
<!-- Node13&#45;&gt;Node10 -->
<g id="edge17" class="edge">
<title>Node13&#45;&gt;Node10</title>
<path fill="none" stroke="#63b8ff" d="M476.29,-56.45C488.95,-68.35 511.41,-88.43 533,-102.5 538.12,-105.84 543.89,-109 549.42,-111.78"/>
<polygon fill="#63b8ff" stroke="#63b8ff" points="547.66,-114.82 558.19,-115.96 550.67,-108.5 547.66,-114.82"/>
</g>
<!-- Node14&#45;&gt;Node4 -->
<g id="edge19" class="edge">
<title>Node14&#45;&gt;Node4</title>
<path fill="none" stroke="#63b8ff" d="M270.85,-55.08C283.19,-59.43 298.46,-64.81 312.39,-69.72"/>
<polygon fill="#63b8ff" stroke="#63b8ff" points="311.17,-73 321.76,-73.02 313.49,-66.4 311.17,-73"/>
</g>
<!-- Node14&#45;&gt;Node11 -->
<g id="edge20" class="edge">
<title>Node14&#45;&gt;Node11</title>
<path fill="none" stroke="#63b8ff" d="M270.85,-46.5C278.52,-46.5 287.33,-46.5 296.24,-46.5"/>
<polygon fill="#63b8ff" stroke="#63b8ff" points="295.99,-50 305.99,-46.5 295.99,-43 295.99,-50"/>
</g>
</g>
</svg>
