<?xml version="1.0" encoding="UTF-8" standalone="no"?>
<!DOCTYPE svg PUBLIC "-//W3C//DTD SVG 1.1//EN"
 "http://www.w3.org/Graphics/SVG/1.1/DTD/svg11.dtd">
<!-- Generated by graphviz version 7.0.5 (20221223.1930)
 -->
<!-- Title: ShowComms Pages: 1 -->
<svg width="1157pt" height="697pt"
 viewBox="0.00 0.00 1157.00 696.50" xmlns="http://www.w3.org/2000/svg" xmlns:xlink="http://www.w3.org/1999/xlink">
<g id="graph0" class="graph" transform="scale(1 1) rotate(0) translate(4 692.5)">
<title>ShowComms</title>
<!-- Node1 -->
<g id="node1" class="node">
<title>Node1</title>
<g id="a_node1"><a xlink:title="SHOW COMMS.">
<polygon fill="#999999" stroke="#666666" points="75,-471 0,-471 0,-452 75,-452 75,-471"/>
<text text-anchor="middle" x="37.5" y="-459" font-family="Helvetica,sans-Serif" font-size="10.00">ShowComms</text>
</a>
</g>
</g>
<!-- Node2 -->
<g id="node2" class="node">
<title>Node2</title>
<g id="a_node2"><a xlink:href="TransmitterCode_2src_2main_8cpp.html#a3014b0aec0f1343c2fd7b480bd5e0425" target="_top" xlink:title=" ">
<polygon fill="white" stroke="#666666" points="211,-661 131,-661 131,-642 211,-642 211,-661"/>
<text text-anchor="middle" x="171" y="-649" font-family="Helvetica,sans-Serif" font-size="10.00">CheckRXVolts</text>
</a>
</g>
</g>
<!-- Node1&#45;&gt;Node2 -->
<g id="edge1" class="edge">
<title>Node1&#45;&gt;Node2</title>
<path fill="none" stroke="#63b8ff" d="M40.1,-471.19C45.22,-499.23 63.71,-581.4 111,-627.5 114.57,-630.98 118.71,-633.98 123.12,-636.56"/>
<polygon fill="#63b8ff" stroke="#63b8ff" points="121.19,-639.51 131.7,-640.88 124.34,-633.26 121.19,-639.51"/>
</g>
<!-- Node3 -->
<g id="node3" class="node">
<title>Node3</title>
<g id="a_node3"><a xlink:href="Utilities_8h.html#afe513398f72d5e48f691830a1ef6eb42" target="_top" xlink:title=" ">
<polygon fill="white" stroke="#666666" points="345,-622 287,-622 287,-603 345,-603 345,-622"/>
<text text-anchor="middle" x="316" y="-610" font-family="Helvetica,sans-Serif" font-size="10.00">SendText</text>
</a>
</g>
</g>
<!-- Node1&#45;&gt;Node3 -->
<g id="edge62" class="edge">
<title>Node1&#45;&gt;Node3</title>
<path fill="none" stroke="#63b8ff" d="M40.53,-471.34C46.35,-496.78 65.68,-564.82 111,-594.5 160.31,-626.8 231.32,-624.81 275.23,-619.4"/>
<polygon fill="#63b8ff" stroke="#63b8ff" points="275.66,-622.87 285.09,-618.05 274.71,-615.94 275.66,-622.87"/>
</g>
<!-- Node5 -->
<g id="node5" class="node">
<title>Node5</title>
<g id="a_node5"><a xlink:href="Utilities_8h.html#aecac2f0c289f02ef3c92b85be82eacac" target="_top" xlink:title=" ">
<polygon fill="white" stroke="#666666" points="512,-495 429,-495 429,-476 512,-476 512,-495"/>
<text text-anchor="middle" x="470.5" y="-483" font-family="Helvetica,sans-Serif" font-size="10.00">SendCommand</text>
</a>
</g>
</g>
<!-- Node1&#45;&gt;Node5 -->
<g id="edge61" class="edge">
<title>Node1&#45;&gt;Node5</title>
<path fill="none" stroke="#63b8ff" d="M75.25,-463.55C151.91,-467.82 329.09,-477.68 417.45,-482.6"/>
<polygon fill="#63b8ff" stroke="#63b8ff" points="417.1,-486.09 427.28,-483.15 417.49,-479.1 417.1,-486.09"/>
</g>
<!-- Node9 -->
<g id="node9" class="node">
<title>Node9</title>
<g id="a_node9"><a xlink:href="Utilities_8h.html#a1e20efc1e419b252b50d36f9924503fc" target="_top" xlink:title=" ">
<polygon fill="white" stroke="#666666" points="348,-585 284,-585 284,-566 348,-566 348,-585"/>
<text text-anchor="middle" x="316" y="-573" font-family="Helvetica,sans-Serif" font-size="10.00">SendValue</text>
</a>
</g>
</g>
<!-- Node1&#45;&gt;Node9 -->
<g id="edge63" class="edge">
<title>Node1&#45;&gt;Node9</title>
<path fill="none" stroke="#63b8ff" d="M48.4,-471.42C61.59,-484.09 86.15,-505.9 111,-518.5 139.2,-532.8 221.59,-553.62 272.63,-565.74"/>
<polygon fill="#63b8ff" stroke="#63b8ff" points="271.62,-569.09 282.16,-567.98 273.23,-562.28 271.62,-569.09"/>
</g>
<!-- Node11 -->
<g id="node11" class="node">
<title>Node11</title>
<g id="a_node11"><a xlink:href="Utilities_8h.html#adce05a2e4f5763c3b90c7126234d2cc8" target="_top" xlink:title=" ">
<polygon fill="white" stroke="#666666" points="219.5,-433 122.5,-433 122.5,-414 219.5,-414 219.5,-433"/>
<text text-anchor="middle" x="171" y="-421" font-family="Helvetica,sans-Serif" font-size="10.00">CheckScreenTime</text>
</a>
</g>
</g>
<!-- Node1&#45;&gt;Node11 -->
<g id="edge14" class="edge">
<title>Node1&#45;&gt;Node11</title>
<path fill="none" stroke="#63b8ff" d="M73.05,-451.52C88.91,-446.93 107.91,-441.44 124.88,-436.54"/>
<polygon fill="#63b8ff" stroke="#63b8ff" points="125.59,-439.98 134.23,-433.84 123.65,-433.25 125.59,-439.98"/>
</g>
<!-- Node12 -->
<g id="node12" class="node">
<title>Node12</title>
<g id="a_node12"><a xlink:href="TransmitterCode_2src_2main_8cpp.html#a28ff2460f96b023cdb62a5c2b8f593f5" target="_top" xlink:title=" ">
<polygon fill="white" stroke="#666666" points="211,-585 131,-585 131,-566 211,-566 211,-585"/>
<text text-anchor="middle" x="171" y="-573" font-family="Helvetica,sans-Serif" font-size="10.00">CheckTXVolts</text>
</a>
</g>
</g>
<!-- Node1&#45;&gt;Node12 -->
<g id="edge16" class="edge">
<title>Node1&#45;&gt;Node12</title>
<path fill="none" stroke="#63b8ff" d="M44.03,-471.25C54.76,-489.38 80.09,-528.51 111,-551.5 115.88,-555.13 121.39,-558.31 127.03,-561.06"/>
<polygon fill="#63b8ff" stroke="#63b8ff" points="125.26,-564.11 135.83,-564.95 128.09,-557.71 125.26,-564.11"/>
</g>
<!-- Node13 -->
<g id="node13" class="node">
<title>Node13</title>
<g id="a_node13"><a xlink:href="TransmitterCode_2src_2main_8cpp.html#a62e53eb9359c32b666e3386d62c57037" target="_top" xlink:title=" ">
<polygon fill="white" stroke="#666666" points="207,-357 135,-357 135,-338 207,-338 207,-357"/>
<text text-anchor="middle" x="171" y="-345" font-family="Helvetica,sans-Serif" font-size="10.00">GreenLedOn</text>
</a>
</g>
</g>
<!-- Node1&#45;&gt;Node13 -->
<g id="edge20" class="edge">
<title>Node1&#45;&gt;Node13</title>
<path fill="none" stroke="#63b8ff" d="M41.66,-451.65C50.58,-431.25 77.51,-387.41 111,-362.5 115.1,-359.45 119.65,-356.72 124.35,-354.34"/>
<polygon fill="#63b8ff" stroke="#63b8ff" points="125.65,-357.59 133.37,-350.34 122.81,-351.19 125.65,-357.59"/>
</g>
<!-- Node36 -->
<g id="node36" class="node">
<title>Node36</title>
<g id="a_node36"><a xlink:href="Utilities_8h.html#aa490b4664b0a4498d53b30b82287d5df" target="_top" xlink:title=" ">
<polygon fill="white" stroke="#666666" points="347.5,-395 284.5,-395 284.5,-376 347.5,-376 347.5,-395"/>
<text text-anchor="middle" x="316" y="-383" font-family="Helvetica,sans-Serif" font-size="10.00">PlaySound</text>
</a>
</g>
</g>
<!-- Node1&#45;&gt;Node36 -->
<g id="edge60" class="edge">
<title>Node1&#45;&gt;Node36</title>
<path fill="none" stroke="#63b8ff" d="M47.22,-451.79C59.82,-438.49 84.53,-415.06 111,-404.5 163.85,-383.42 230.3,-381.26 272.72,-382.61"/>
<polygon fill="#63b8ff" stroke="#63b8ff" points="272.37,-386.1 282.51,-383.01 272.66,-379.11 272.37,-386.1"/>
</g>
<!-- Node38 -->
<g id="node38" class="node">
<title>Node38</title>
<g id="a_node38"><a xlink:href="Utilities_8h.html#a77e9a1ed6c347897af1e92db48c68b77" target="_top" xlink:title=" ">
<polygon fill="white" stroke="#666666" points="231,-509 111,-509 111,-490 231,-490 231,-509"/>
<text text-anchor="middle" x="171" y="-497" font-family="Helvetica,sans-Serif" font-size="10.00">ShowConnectionQuality</text>
</a>
</g>
</g>
<!-- Node1&#45;&gt;Node38 -->
<g id="edge64" class="edge">
<title>Node1&#45;&gt;Node38</title>
<path fill="none" stroke="#63b8ff" d="M73.05,-471.48C88.91,-476.07 107.91,-481.56 124.88,-486.46"/>
<polygon fill="#63b8ff" stroke="#63b8ff" points="123.65,-489.75 134.23,-489.16 125.59,-483.02 123.65,-489.75"/>
</g>
<!-- Node40 -->
<g id="node40" class="node">
<title>Node40</title>
<g id="a_node40"><a xlink:href="Utilities_8h.html#a793b7bcd77531c95fe72ed4356d421c8" target="_top" xlink:title=" ">
<polygon fill="white" stroke="#666666" points="226,-320 116,-320 116,-301 226,-301 226,-320"/>
<text text-anchor="middle" x="171" y="-308" font-family="Helvetica,sans-Serif" font-size="10.00">StartInactvityTimeout</text>
</a>
</g>
</g>
<!-- Node1&#45;&gt;Node40 -->
<g id="edge69" class="edge">
<title>Node1&#45;&gt;Node40</title>
<path fill="none" stroke="#63b8ff" d="M41.01,-451.82C47.86,-427.36 69.21,-362.56 111,-328.5 112.12,-327.59 113.29,-326.72 114.49,-325.9"/>
<polygon fill="#63b8ff" stroke="#63b8ff" points="115.98,-329.07 123.01,-321.14 112.58,-322.96 115.98,-329.07"/>
</g>
<!-- Node2&#45;&gt;Node3 -->
<g id="edge2" class="edge">
<title>Node2&#45;&gt;Node3</title>
<path fill="none" stroke="#63b8ff" d="M208.45,-641.56C229.08,-635.93 254.87,-628.9 275.91,-623.16"/>
<polygon fill="#63b8ff" stroke="#63b8ff" points="276.55,-626.62 285.27,-620.61 274.7,-619.86 276.55,-626.62"/>
</g>
<!-- Node2&#45;&gt;Node9 -->
<g id="edge9" class="edge">
<title>Node2&#45;&gt;Node9</title>
<path fill="none" stroke="#63b8ff" d="M186.71,-641.64C205.03,-629.6 237.51,-609.06 267,-594.5 270.25,-592.89 273.68,-591.32 277.14,-589.81"/>
<polygon fill="#63b8ff" stroke="#63b8ff" points="278.22,-593.15 286.1,-586.07 275.53,-586.69 278.22,-593.15"/>
</g>
<!-- Node10 -->
<g id="node10" class="node">
<title>Node10</title>
<g id="a_node10"><a xlink:href="Utilities_8h.html#a590a9174319918d7e3d7baca323fcf26" target="_top" xlink:title=" ">
<polygon fill="white" stroke="#666666" points="1149,-396 1120,-396 1120,-377 1149,-377 1149,-396"/>
<text text-anchor="middle" x="1134.5" y="-384" font-family="Helvetica,sans-Serif" font-size="10.00">Str</text>
</a>
</g>
</g>
<!-- Node2&#45;&gt;Node10 -->
<g id="edge13" class="edge">
<title>Node2&#45;&gt;Node10</title>
<path fill="none" stroke="#63b8ff" d="M211.27,-659.53C268.01,-670.41 376.34,-688.5 469.5,-688.5 469.5,-688.5 469.5,-688.5 896,-688.5 951.12,-688.5 1057.48,-610.78 1084,-573.5 1120.74,-521.85 1130.21,-444.71 1132.65,-407.74"/>
<polygon fill="#63b8ff" stroke="#63b8ff" points="1136.14,-408.13 1133.18,-397.96 1129.15,-407.76 1136.14,-408.13"/>
</g>
<!-- Node4 -->
<g id="node4" class="node">
<title>Node4</title>
<g id="a_node4"><a xlink:href="Utilities_8h.html#a43937dd3d9c795271fd9c3eb3c6b6410" target="_top" xlink:title=" ">
<polygon fill="white" stroke="#666666" points="666.5,-584 583.5,-584 583.5,-565 666.5,-565 666.5,-584"/>
<text text-anchor="middle" x="625" y="-572" font-family="Helvetica,sans-Serif" font-size="10.00">GetReturnCode</text>
</a>
</g>
</g>
<!-- Node3&#45;&gt;Node4 -->
<g id="edge3" class="edge">
<title>Node3&#45;&gt;Node4</title>
<path fill="none" stroke="#63b8ff" d="M345.23,-609.99C387.61,-606.1 470.17,-598.07 540,-588.5 550.33,-587.08 561.34,-585.39 571.87,-583.67"/>
<polygon fill="#63b8ff" stroke="#63b8ff" points="572.27,-587.15 581.56,-582.06 571.13,-580.25 572.27,-587.15"/>
</g>
<!-- Node3&#45;&gt;Node5 -->
<g id="edge4" class="edge">
<title>Node3&#45;&gt;Node5</title>
<path fill="none" stroke="#63b8ff" d="M345.44,-604.23C352.14,-601.64 359.05,-598.42 365,-594.5 402.93,-569.51 437.38,-528.42 455.69,-504.47"/>
<polygon fill="#63b8ff" stroke="#63b8ff" points="458.42,-506.67 461.61,-496.56 452.81,-502.47 458.42,-506.67"/>
</g>
<!-- Node5&#45;&gt;Node4 -->
<g id="edge7" class="edge">
<title>Node5&#45;&gt;Node4</title>
<path fill="none" stroke="#63b8ff" d="M488.4,-495.36C514.74,-510.73 565.8,-540.53 597.19,-558.85"/>
<polygon fill="#63b8ff" stroke="#63b8ff" points="595.31,-561.81 605.71,-563.83 598.84,-555.76 595.31,-561.81"/>
</g>
<!-- Node6 -->
<g id="node6" class="node">
<title>Node6</title>
<g id="a_node6"><a xlink:href="Utilities_8h.html#a3b1d8aa403e2724e55c71da3d9d13e7e" target="_top" xlink:title=" ">
<polygon fill="white" stroke="#666666" points="796,-358 719,-358 719,-339 796,-339 796,-358"/>
<text text-anchor="middle" x="757.5" y="-346" font-family="Helvetica,sans-Serif" font-size="10.00">DelayWithDog</text>
</a>
</g>
</g>
<!-- Node5&#45;&gt;Node6 -->
<g id="edge5" class="edge">
<title>Node5&#45;&gt;Node6</title>
<path fill="none" stroke="#63b8ff" d="M492,-475.65C541.38,-451.91 667.18,-391.44 725.7,-363.31"/>
<polygon fill="#63b8ff" stroke="#63b8ff" points="726.95,-366.59 734.44,-359.1 723.91,-360.28 726.95,-366.59"/>
</g>
<!-- Node8 -->
<g id="node8" class="node">
<title>Node8</title>
<g id="a_node8"><a xlink:href="TransmitterCode_2src_2main_8cpp.html#a5f109790a6fe0b972a502f3cac4ed1e7" target="_top" xlink:title=" ">
<polygon fill="white" stroke="#666666" points="649,-495 601,-495 601,-476 649,-476 649,-495"/>
<text text-anchor="middle" x="625" y="-483" font-family="Helvetica,sans-Serif" font-size="10.00">InStrng</text>
</a>
</g>
</g>
<!-- Node5&#45;&gt;Node8 -->
<g id="edge8" class="edge">
<title>Node5&#45;&gt;Node8</title>
<path fill="none" stroke="#63b8ff" d="M512.37,-485.5C536.41,-485.5 566.48,-485.5 589.35,-485.5"/>
<polygon fill="#63b8ff" stroke="#63b8ff" points="589.08,-489 599.08,-485.5 589.08,-482 589.08,-489"/>
</g>
<!-- Node7 -->
<g id="node7" class="node">
<title>Node7</title>
<g id="a_node7"><a xlink:href="Utilities_8h.html#ada95a00a341e4a80176eda743a94ab2e" target="_top" xlink:title=" ">
<polygon fill="white" stroke="#666666" points="930,-358 860,-358 860,-339 930,-339 930,-358"/>
<text text-anchor="middle" x="895" y="-346" font-family="Helvetica,sans-Serif" font-size="10.00">KickTheDog</text>
</a>
</g>
</g>
<!-- Node6&#45;&gt;Node7 -->
<g id="edge6" class="edge">
<title>Node6&#45;&gt;Node7</title>
<path fill="none" stroke="#63b8ff" d="M796.24,-348.5C812.4,-348.5 831.42,-348.5 848.36,-348.5"/>
<polygon fill="#63b8ff" stroke="#63b8ff" points="848.19,-352 858.19,-348.5 848.19,-345 848.19,-352"/>
</g>
<!-- Node9&#45;&gt;Node4 -->
<g id="edge10" class="edge">
<title>Node9&#45;&gt;Node4</title>
<path fill="none" stroke="#63b8ff" d="M348.41,-575.4C401.07,-575.23 507.66,-574.88 571.75,-574.67"/>
<polygon fill="#63b8ff" stroke="#63b8ff" points="571.69,-578.17 581.68,-574.64 571.67,-571.17 571.69,-578.17"/>
</g>
<!-- Node9&#45;&gt;Node5 -->
<g id="edge11" class="edge">
<title>Node9&#45;&gt;Node5</title>
<path fill="none" stroke="#63b8ff" d="M340.2,-565.51C348.32,-561.6 357.33,-556.78 365,-551.5 382.88,-539.19 383.03,-530.67 401,-518.5 411.27,-511.54 423.23,-505.25 434.25,-500.06"/>
<polygon fill="#63b8ff" stroke="#63b8ff" points="435.41,-503.38 443.07,-496.07 432.52,-497.01 435.41,-503.38"/>
</g>
<!-- Node9&#45;&gt;Node10 -->
<g id="edge12" class="edge">
<title>Node9&#45;&gt;Node10</title>
<path fill="none" stroke="#63b8ff" d="M348.18,-568.21C403.42,-555.94 522.28,-532.5 624,-532.5 624,-532.5 624,-532.5 896,-532.5 992.79,-532.5 1083.28,-443.42 1118.26,-404.42"/>
<polygon fill="#63b8ff" stroke="#63b8ff" points="1120.61,-407.04 1124.58,-397.22 1115.35,-402.43 1120.61,-407.04"/>
</g>
<!-- Node11&#45;&gt;Node5 -->
<g id="edge15" class="edge">
<title>Node11&#45;&gt;Node5</title>
<path fill="none" stroke="#63b8ff" d="M219.73,-426.43C259.12,-429.57 316.25,-435.76 365,-447.5 389.39,-453.37 415.94,-463.07 436.18,-471.2"/>
<polygon fill="#63b8ff" stroke="#63b8ff" points="434.74,-474.39 445.32,-474.95 437.39,-467.92 434.74,-474.39"/>
</g>
<!-- Node12&#45;&gt;Node3 -->
<g id="edge17" class="edge">
<title>Node12&#45;&gt;Node3</title>
<path fill="none" stroke="#63b8ff" d="M210.32,-585.42C230.47,-590.63 255.14,-597.01 275.46,-602.27"/>
<polygon fill="#63b8ff" stroke="#63b8ff" points="274.53,-605.65 285.09,-604.76 276.29,-598.87 274.53,-605.65"/>
</g>
<!-- Node12&#45;&gt;Node9 -->
<g id="edge18" class="edge">
<title>Node12&#45;&gt;Node9</title>
<path fill="none" stroke="#63b8ff" d="M211.45,-575.5C230.44,-575.5 253.22,-575.5 272.58,-575.5"/>
<polygon fill="#63b8ff" stroke="#63b8ff" points="272.31,-579 282.31,-575.5 272.31,-572 272.31,-579"/>
</g>
<!-- Node12&#45;&gt;Node10 -->
<g id="edge19" class="edge">
<title>Node12&#45;&gt;Node10</title>
<path fill="none" stroke="#63b8ff" d="M184.64,-585.45C202.06,-598.54 234.94,-621.12 267,-631.5 353,-659.34 379.1,-650.5 469.5,-650.5 469.5,-650.5 469.5,-650.5 896,-650.5 1026.91,-650.5 1104.05,-468.86 1126.56,-406.91"/>
<polygon fill="#63b8ff" stroke="#63b8ff" points="1129.8,-408.23 1129.83,-397.64 1123.2,-405.91 1129.8,-408.23"/>
</g>
<!-- Node13&#45;&gt;Node1 -->
<g id="edge58" class="edge">
<title>Node13&#45;&gt;Node1</title>
<path fill="none" stroke="#63b8ff" d="M157.32,-357.44C144.69,-363.21 125.2,-369.94 111,-380.5 87.74,-397.8 67.65,-424.23 54.55,-442.36"/>
<polygon fill="#63b8ff" stroke="#63b8ff" points="51.72,-440.32 48.73,-450.48 57.4,-444.39 51.72,-440.32"/>
</g>
<!-- Node13&#45;&gt;Node6 -->
<g id="edge22" class="edge">
<title>Node13&#45;&gt;Node6</title>
<path fill="none" stroke="#63b8ff" d="M207.25,-347.56C307.11,-347.73 592.14,-348.22 707.32,-348.42"/>
<polygon fill="#63b8ff" stroke="#63b8ff" points="707.05,-351.92 717.06,-348.43 707.07,-344.92 707.05,-351.92"/>
</g>
<!-- Node14 -->
<g id="node14" class="node">
<title>Node14</title>
<g id="a_node14"><a xlink:href="Utilities_8h.html#a82b1900a80d1622896601c57d6edaeda" target="_top" xlink:title=" ">
<polygon fill="white" stroke="#666666" points="365,-319 267,-319 267,-300 365,-300 365,-319"/>
<text text-anchor="middle" x="316" y="-307" font-family="Helvetica,sans-Serif" font-size="10.00">ClearSuccessRate</text>
</a>
</g>
</g>
<!-- Node13&#45;&gt;Node14 -->
<g id="edge21" class="edge">
<title>Node13&#45;&gt;Node14</title>
<path fill="none" stroke="#63b8ff" d="M207.35,-338.11C225.19,-333.37 247.1,-327.54 266.49,-322.39"/>
<polygon fill="#63b8ff" stroke="#63b8ff" points="267.33,-325.79 276.1,-319.84 265.53,-319.02 267.33,-325.79"/>
</g>
<!-- Node15 -->
<g id="node15" class="node">
<title>Node15</title>
<g id="a_node15"><a xlink:href="Utilities_8h.html#a549a702bb9b539c6b3a4f20cce65adcc" target="_top" xlink:title=" ">
<polygon fill="white" stroke="#666666" points="365,-245 267,-245 267,-226 365,-226 365,-245"/>
<text text-anchor="middle" x="316" y="-233" font-family="Helvetica,sans-Serif" font-size="10.00">GetLEDBrightness</text>
</a>
</g>
</g>
<!-- Node13&#45;&gt;Node15 -->
<g id="edge23" class="edge">
<title>Node13&#45;&gt;Node15</title>
<path fill="none" stroke="#63b8ff" d="M207.2,-341.24C215.7,-338.43 224.27,-334.37 231,-328.5 258.86,-304.19 239.72,-278.46 267,-253.5 267.78,-252.79 268.58,-252.11 269.41,-251.45"/>
<polygon fill="#63b8ff" stroke="#63b8ff" points="271.22,-254.45 277.85,-246.18 267.51,-248.51 271.22,-254.45"/>
</g>
<!-- Node25 -->
<g id="node25" class="node">
<title>Node25</title>
<g id="a_node25"><a xlink:href="TransmitterCode_2src_2main_8cpp.html#aaa3e86084c43b049d52d7d62c58a00b9" target="_top" xlink:title=" ">
<polygon fill="white" stroke="#666666" points="357,-131 275,-131 275,-112 357,-112 357,-131"/>
<text text-anchor="middle" x="316" y="-119" font-family="Helvetica,sans-Serif" font-size="10.00">LogConnection</text>
</a>
</g>
</g>
<!-- Node13&#45;&gt;Node25 -->
<g id="edge39" class="edge">
<title>Node13&#45;&gt;Node25</title>
<path fill="none" stroke="#63b8ff" d="M207.46,-341.95C216.06,-339.14 224.61,-334.89 231,-328.5 267.96,-291.52 247.15,-264.87 267,-216.5 277.97,-189.76 293.46,-160.23 303.84,-141.3"/>
<polygon fill="#63b8ff" stroke="#63b8ff" points="306.9,-143.01 308.7,-132.57 300.78,-139.61 306.9,-143.01"/>
</g>
<!-- Node13&#45;&gt;Node36 -->
<g id="edge55" class="edge">
<title>Node13&#45;&gt;Node36</title>
<path fill="none" stroke="#63b8ff" d="M207.35,-356.89C227.4,-362.22 252.6,-368.92 273.57,-374.49"/>
<polygon fill="#63b8ff" stroke="#63b8ff" points="272.39,-377.8 282.96,-376.98 274.19,-371.03 272.39,-377.8"/>
</g>
<!-- Node37 -->
<g id="node37" class="node">
<title>Node37</title>
<g id="a_node37"><a xlink:href="TransmitterCode_2src_2main_8cpp.html#a6da9a1fd0b003151f79eabc702ba80ff" target="_top" xlink:title=" ">
<polygon fill="white" stroke="#666666" points="359.5,-282 272.5,-282 272.5,-263 359.5,-263 359.5,-282"/>
<text text-anchor="middle" x="316" y="-270" font-family="Helvetica,sans-Serif" font-size="10.00">ZeroDataScreen</text>
</a>
</g>
</g>
<!-- Node13&#45;&gt;Node37 -->
<g id="edge59" class="edge">
<title>Node13&#45;&gt;Node37</title>
<path fill="none" stroke="#63b8ff" d="M207.3,-339.31C215.43,-336.57 223.81,-333.03 231,-328.5 250.69,-316.1 247.61,-303.36 267,-290.5 268.61,-289.43 270.28,-288.42 272.01,-287.46"/>
<polygon fill="#63b8ff" stroke="#63b8ff" points="273.43,-290.66 280.9,-283.14 270.37,-284.36 273.43,-290.66"/>
</g>
<!-- Node16 -->
<g id="node16" class="node">
<title>Node16</title>
<g id="a_node16"><a xlink:href="TransmitterCode_2src_2main_8cpp.html#aaf3d3b6d086a958ac8ebf1bb771adcee" target="_top" xlink:title=" ">
<polygon fill="white" stroke="#666666" points="540,-245 401,-245 401,-226 540,-226 540,-245"/>
<text text-anchor="middle" x="470.5" y="-233" font-family="Helvetica,sans-Serif" font-size="10.00">SaveTransmitterParameters</text>
</a>
</g>
</g>
<!-- Node15&#45;&gt;Node16 -->
<g id="edge24" class="edge">
<title>Node15&#45;&gt;Node16</title>
<path fill="none" stroke="#63b8ff" d="M365.25,-235.5C372.99,-235.5 381.18,-235.5 389.42,-235.5"/>
<polygon fill="#63b8ff" stroke="#63b8ff" points="389.15,-239 399.15,-235.5 389.15,-232 389.15,-239"/>
</g>
<!-- Node17 -->
<g id="node17" class="node">
<title>Node17</title>
<g id="a_node17"><a xlink:href="TransmitterCode_2src_2main_8cpp.html#a6922974b734cfe3a511e074a2d6ac33c" target="_top" xlink:title=" ">
<polygon fill="white" stroke="#666666" points="669.5,-320 580.5,-320 580.5,-301 669.5,-301 669.5,-320"/>
<text text-anchor="middle" x="625" y="-308" font-family="Helvetica,sans-Serif" font-size="10.00">CloseModelsFile</text>
</a>
</g>
</g>
<!-- Node16&#45;&gt;Node17 -->
<g id="edge25" class="edge">
<title>Node16&#45;&gt;Node17</title>
<path fill="none" stroke="#63b8ff" d="M488.57,-245.43C509.01,-257.14 544.45,-276.86 576,-291.5 579.52,-293.13 583.23,-294.76 586.95,-296.33"/>
<polygon fill="#63b8ff" stroke="#63b8ff" points="585.38,-299.47 595.96,-300.01 588.03,-292.99 585.38,-299.47"/>
</g>
<!-- Node18 -->
<g id="node18" class="node">
<title>Node18</title>
<g id="a_node18"><a xlink:href="TransmitterCode_2src_2main_8cpp.html#ae7618f38a148877bc5681be58cba8354" target="_top" xlink:title=" ">
<polygon fill="white" stroke="#666666" points="668.5,-283 581.5,-283 581.5,-264 668.5,-264 668.5,-283"/>
<text text-anchor="middle" x="625" y="-271" font-family="Helvetica,sans-Serif" font-size="10.00">OpenModelsFile</text>
</a>
</g>
</g>
<!-- Node16&#45;&gt;Node18 -->
<g id="edge26" class="edge">
<title>Node16&#45;&gt;Node18</title>
<path fill="none" stroke="#63b8ff" d="M511.57,-245.48C530.32,-250.16 552.87,-255.78 572.84,-260.75"/>
<polygon fill="#63b8ff" stroke="#63b8ff" points="571.92,-264.13 582.47,-263.15 573.61,-257.34 571.92,-264.13"/>
</g>
<!-- Node19 -->
<g id="node19" class="node">
<title>Node19</title>
<g id="a_node19"><a xlink:href="TransmitterCode_2src_2main_8cpp.html#a9ec95181a743e446cdec2e0fbf569f2c" target="_top" xlink:title=" ">
<polygon fill="white" stroke="#666666" points="674,-207 576,-207 576,-188 674,-188 674,-207"/>
<text text-anchor="middle" x="625" y="-195" font-family="Helvetica,sans-Serif" font-size="10.00">SaveCheckSum32</text>
</a>
</g>
</g>
<!-- Node16&#45;&gt;Node19 -->
<g id="edge28" class="edge">
<title>Node16&#45;&gt;Node19</title>
<path fill="none" stroke="#63b8ff" d="M511.57,-225.52C530.32,-220.84 552.87,-215.22 572.84,-210.25"/>
<polygon fill="#63b8ff" stroke="#63b8ff" points="573.61,-213.66 582.47,-207.85 571.92,-206.87 573.61,-213.66"/>
</g>
<!-- Node23 -->
<g id="node23" class="node">
<title>Node23</title>
<g id="a_node23"><a xlink:href="TransmitterCode_2src_2main_8cpp.html#a512ed84f4270bd62e922cd7dd82fd427" target="_top" xlink:title=" ">
<polygon fill="white" stroke="#666666" points="802,-171 713,-171 713,-152 802,-152 802,-171"/>
<text text-anchor="middle" x="757.5" y="-159" font-family="Helvetica,sans-Serif" font-size="10.00">SDUpdate8BITS</text>
</a>
</g>
</g>
<!-- Node16&#45;&gt;Node23 -->
<g id="edge38" class="edge">
<title>Node16&#45;&gt;Node23</title>
<path fill="none" stroke="#63b8ff" d="M485.22,-225.62C504.45,-212.35 541.02,-189.19 576,-178.5 616.74,-166.05 664.86,-162.01 701.16,-160.97"/>
<polygon fill="#63b8ff" stroke="#63b8ff" points="701.07,-164.47 711,-160.76 700.93,-157.48 701.07,-164.47"/>
</g>
<!-- Node24 -->
<g id="node24" class="node">
<title>Node24</title>
<g id="a_node24"><a xlink:href="TransmitterCode_2src_2main_8cpp.html#a7bef1afdf8ed9f50caed67e53c144dfe" target="_top" xlink:title=" ">
<polygon fill="white" stroke="#666666" points="805,-245 710,-245 710,-226 805,-226 805,-245"/>
<text text-anchor="middle" x="757.5" y="-233" font-family="Helvetica,sans-Serif" font-size="10.00">SDUpdate16BITS</text>
</a>
</g>
</g>
<!-- Node16&#45;&gt;Node24 -->
<g id="edge35" class="edge">
<title>Node16&#45;&gt;Node24</title>
<path fill="none" stroke="#63b8ff" d="M540.49,-235.5C588.68,-235.5 652.32,-235.5 698.02,-235.5"/>
<polygon fill="#63b8ff" stroke="#63b8ff" points="698.01,-239 708.01,-235.5 698.01,-232 698.01,-239"/>
</g>
<!-- Node18&#45;&gt;Node6 -->
<g id="edge27" class="edge">
<title>Node18&#45;&gt;Node6</title>
<path fill="none" stroke="#63b8ff" d="M655.94,-283.43C662.04,-285.81 668.32,-288.53 674,-291.5 695.98,-302.99 719.04,-319.34 735.17,-331.58"/>
<polygon fill="#63b8ff" stroke="#63b8ff" points="733,-334.33 743.06,-337.67 737.28,-328.79 733,-334.33"/>
</g>
<!-- Node20 -->
<g id="node20" class="node">
<title>Node20</title>
<g id="a_node20"><a xlink:href="TransmitterCode_2src_2main_8cpp.html#a82e989b70d0f68854ead6262993255cc" target="_top" xlink:title=" ">
<polygon fill="white" stroke="#666666" points="805,-208 710,-208 710,-189 805,-189 805,-208"/>
<text text-anchor="middle" x="757.5" y="-196" font-family="Helvetica,sans-Serif" font-size="10.00">SDUpdate32BITS</text>
</a>
</g>
</g>
<!-- Node19&#45;&gt;Node20 -->
<g id="edge29" class="edge">
<title>Node19&#45;&gt;Node20</title>
<path fill="none" stroke="#63b8ff" d="M674.22,-197.87C682.12,-197.93 690.37,-197.99 698.48,-198.06"/>
<polygon fill="#63b8ff" stroke="#63b8ff" points="698.24,-201.55 708.26,-198.13 698.29,-194.55 698.24,-201.55"/>
</g>
<!-- Node19&#45;&gt;Node23 -->
<g id="edge32" class="edge">
<title>Node19&#45;&gt;Node23</title>
<path fill="none" stroke="#63b8ff" d="M662.01,-187.57C676.7,-183.51 693.88,-178.77 709.54,-174.45"/>
<polygon fill="#63b8ff" stroke="#63b8ff" points="710.44,-177.84 719.15,-171.8 708.58,-171.09 710.44,-177.84"/>
</g>
<!-- Node21 -->
<g id="node21" class="node">
<title>Node21</title>
<g id="a_node21"><a xlink:href="TransmitterCode_2src_2main_8cpp.html#addfb17077b6300576f07ef8c17f88581" target="_top" xlink:title=" ">
<polygon fill="white" stroke="#666666" points="938,-198 852,-198 852,-179 938,-179 938,-198"/>
<text text-anchor="middle" x="895" y="-186" font-family="Helvetica,sans-Serif" font-size="10.00">BuildCheckSum</text>
</a>
</g>
</g>
<!-- Node20&#45;&gt;Node21 -->
<g id="edge30" class="edge">
<title>Node20&#45;&gt;Node21</title>
<path fill="none" stroke="#63b8ff" d="M805.13,-195.06C816.5,-194.22 828.75,-193.32 840.41,-192.45"/>
<polygon fill="#63b8ff" stroke="#63b8ff" points="840.6,-195.95 850.32,-191.72 840.09,-188.97 840.6,-195.95"/>
</g>
<!-- Node22 -->
<g id="node22" class="node">
<title>Node22</title>
<g id="a_node22"><a xlink:href="TransmitterCode_2src_2main_8cpp.html#aa5479d4f80459a9530b2e538f4048eb5" target="_top" xlink:title=" ">
<polygon fill="white" stroke="#666666" points="927,-235 863,-235 863,-216 927,-216 927,-235"/>
<text text-anchor="middle" x="895" y="-223" font-family="Helvetica,sans-Serif" font-size="10.00">ShortDelay</text>
</a>
</g>
</g>
<!-- Node20&#45;&gt;Node22 -->
<g id="edge31" class="edge">
<title>Node20&#45;&gt;Node22</title>
<path fill="none" stroke="#63b8ff" d="M805.13,-207.79C820.26,-210.81 836.95,-214.13 851.74,-217.08"/>
<polygon fill="#63b8ff" stroke="#63b8ff" points="850.65,-220.43 861.14,-218.95 852.02,-213.57 850.65,-220.43"/>
</g>
<!-- Node23&#45;&gt;Node21 -->
<g id="edge33" class="edge">
<title>Node23&#45;&gt;Node21</title>
<path fill="none" stroke="#63b8ff" d="M802.49,-170.27C814.56,-172.67 827.78,-175.31 840.33,-177.81"/>
<polygon fill="#63b8ff" stroke="#63b8ff" points="839.64,-181.24 850.13,-179.76 841,-174.37 839.64,-181.24"/>
</g>
<!-- Node23&#45;&gt;Node22 -->
<g id="edge34" class="edge">
<title>Node23&#45;&gt;Node22</title>
<path fill="none" stroke="#63b8ff" d="M787.59,-171.34C793.49,-173.73 799.55,-176.48 805,-179.5 822.49,-189.2 823.39,-197.02 841,-206.5 844.61,-208.44 848.46,-210.26 852.38,-211.94"/>
<polygon fill="#63b8ff" stroke="#63b8ff" points="850.78,-215.07 861.37,-215.5 853.36,-208.57 850.78,-215.07"/>
</g>
<!-- Node24&#45;&gt;Node21 -->
<g id="edge36" class="edge">
<title>Node24&#45;&gt;Node21</title>
<path fill="none" stroke="#63b8ff" d="M786.35,-225.63C802.33,-219.98 822.78,-212.8 841,-206.5 845.17,-205.06 849.53,-203.56 853.87,-202.08"/>
<polygon fill="#63b8ff" stroke="#63b8ff" points="854.78,-205.47 863.11,-198.93 852.52,-198.84 854.78,-205.47"/>
</g>
<!-- Node24&#45;&gt;Node22 -->
<g id="edge37" class="edge">
<title>Node24&#45;&gt;Node22</title>
<path fill="none" stroke="#63b8ff" d="M805.13,-232.06C820.11,-230.95 836.62,-229.73 851.31,-228.65"/>
<polygon fill="#63b8ff" stroke="#63b8ff" points="851.4,-232.15 861.12,-227.93 850.89,-225.17 851.4,-232.15"/>
</g>
<!-- Node26 -->
<g id="node26" class="node">
<title>Node26</title>
<g id="a_node26"><a xlink:href="TransmitterCode_2src_2main_8cpp.html#af7b3b351c80f0b43c13a4ccb440b2f2e" target="_top" xlink:title=" ">
<polygon fill="white" stroke="#666666" points="504,-131 437,-131 437,-112 504,-112 504,-131"/>
<text text-anchor="middle" x="470.5" y="-119" font-family="Helvetica,sans-Serif" font-size="10.00">LogMinGap</text>
</a>
</g>
</g>
<!-- Node25&#45;&gt;Node26 -->
<g id="edge40" class="edge">
<title>Node25&#45;&gt;Node26</title>
<path fill="none" stroke="#63b8ff" d="M357.47,-121.5C378.31,-121.5 403.78,-121.5 425.15,-121.5"/>
<polygon fill="#63b8ff" stroke="#63b8ff" points="425.04,-125 435.04,-121.5 425.04,-118 425.04,-125"/>
</g>
<!-- Node27 -->
<g id="node27" class="node">
<title>Node27</title>
<g id="a_node27"><a xlink:href="TransmitterCode_2src_2main_8cpp.html#add8d8f400f1c1c4a5add52736cdf94ca" target="_top" xlink:title=" ">
<polygon fill="white" stroke="#666666" points="651,-93 599,-93 599,-74 651,-74 651,-93"/>
<text text-anchor="middle" x="625" y="-81" font-family="Helvetica,sans-Serif" font-size="10.00">LogText</text>
</a>
</g>
</g>
<!-- Node25&#45;&gt;Node27 -->
<g id="edge54" class="edge">
<title>Node25&#45;&gt;Node27</title>
<path fill="none" stroke="#63b8ff" d="M355.68,-111.58C369.85,-108.26 386.08,-104.81 401,-102.5 466.25,-92.39 543.12,-87.33 587.45,-85.07"/>
<polygon fill="#63b8ff" stroke="#63b8ff" points="587.45,-88.57 597.27,-84.59 587.11,-81.58 587.45,-88.57"/>
</g>
<!-- Node26&#45;&gt;Node10 -->
<g id="edge53" class="edge">
<title>Node26&#45;&gt;Node10</title>
<path fill="none" stroke="#63b8ff" d="M504.4,-116.08C586.06,-104.37 801.99,-84.2 949,-169.5 1034.38,-219.04 1098.79,-323.27 1123.02,-366.77"/>
<polygon fill="#63b8ff" stroke="#63b8ff" points="1119.84,-368.24 1127.7,-375.35 1125.98,-364.89 1119.84,-368.24"/>
</g>
<!-- Node26&#45;&gt;Node27 -->
<g id="edge41" class="edge">
<title>Node26&#45;&gt;Node27</title>
<path fill="none" stroke="#63b8ff" d="M504.22,-113.35C528.81,-107.22 562.48,-98.83 587.86,-92.5"/>
<polygon fill="#63b8ff" stroke="#63b8ff" points="588.55,-95.94 597.41,-90.13 586.86,-89.15 588.55,-95.94"/>
</g>
<!-- Node28 -->
<g id="node28" class="node">
<title>Node28</title>
<g id="a_node28"><a xlink:href="TransmitterCode_2src_2main_8cpp.html#a6f003363493fc53b69f9efc1f447a6a1" target="_top" xlink:title=" ">
<polygon fill="white" stroke="#666666" points="794.5,-94 720.5,-94 720.5,-75 794.5,-75 794.5,-94"/>
<text text-anchor="middle" x="757.5" y="-82" font-family="Helvetica,sans-Serif" font-size="10.00">CloseLogFile</text>
</a>
</g>
</g>
<!-- Node27&#45;&gt;Node28 -->
<g id="edge42" class="edge">
<title>Node27&#45;&gt;Node28</title>
<path fill="none" stroke="#63b8ff" d="M651.47,-83.7C667.76,-83.82 689.41,-83.99 708.81,-84.13"/>
<polygon fill="#63b8ff" stroke="#63b8ff" points="708.69,-87.63 718.72,-84.21 708.74,-80.63 708.69,-87.63"/>
</g>
<!-- Node29 -->
<g id="node29" class="node">
<title>Node29</title>
<g id="a_node29"><a xlink:href="TransmitterCode_2src_2main_8cpp.html#a99a51dbad5d686ca711e982f82cbcada" target="_top" xlink:title=" ">
<polygon fill="white" stroke="#666666" points="802.5,-57 712.5,-57 712.5,-38 802.5,-38 802.5,-57"/>
<text text-anchor="middle" x="757.5" y="-45" font-family="Helvetica,sans-Serif" font-size="10.00">LogFilePreamble</text>
</a>
</g>
</g>
<!-- Node27&#45;&gt;Node29 -->
<g id="edge43" class="edge">
<title>Node27&#45;&gt;Node29</title>
<path fill="none" stroke="#63b8ff" d="M651.47,-76.47C668.04,-71.9 690.15,-65.8 709.8,-60.38"/>
<polygon fill="#63b8ff" stroke="#63b8ff" points="710.56,-63.8 719.27,-57.77 708.7,-57.06 710.56,-63.8"/>
</g>
<!-- Node35 -->
<g id="node35" class="node">
<title>Node35</title>
<g id="a_node35"><a xlink:href="TransmitterCode_2src_2main_8cpp.html#a99154e537ca6e0ce5d538fddf0c2aab3" target="_top" xlink:title=" ">
<polygon fill="white" stroke="#666666" points="936.5,-19 853.5,-19 853.5,0 936.5,0 936.5,-19"/>
<text text-anchor="middle" x="895" y="-7" font-family="Helvetica,sans-Serif" font-size="10.00">WriteToLogFile</text>
</a>
</g>
</g>
<!-- Node27&#45;&gt;Node35 -->
<g id="edge52" class="edge">
<title>Node27&#45;&gt;Node35</title>
<path fill="none" stroke="#63b8ff" d="M637.27,-73.53C652.56,-60.66 681.25,-38.71 710,-28.5 752.78,-13.3 804.43,-9.1 842.1,-8.38"/>
<polygon fill="#63b8ff" stroke="#63b8ff" points="841.84,-11.88 851.8,-8.27 841.77,-4.88 841.84,-11.88"/>
</g>
<!-- Node30 -->
<g id="node30" class="node">
<title>Node30</title>
<g id="a_node30"><a xlink:href="TransmitterCode_2src_2main_8cpp.html#ac45f2f949ccfa372a8cbab3ef0b8caa8" target="_top" xlink:title=" ">
<polygon fill="white" stroke="#666666" points="949,-56 841,-56 841,-37 949,-37 949,-56"/>
<text text-anchor="middle" x="895" y="-44" font-family="Helvetica,sans-Serif" font-size="10.00">CheckLogFileIsOpen</text>
</a>
</g>
</g>
<!-- Node29&#45;&gt;Node30 -->
<g id="edge44" class="edge">
<title>Node29&#45;&gt;Node30</title>
<path fill="none" stroke="#63b8ff" d="M802.87,-47.17C811.33,-47.11 820.35,-47.04 829.3,-46.98"/>
<polygon fill="#63b8ff" stroke="#63b8ff" points="829.07,-50.48 839.04,-46.91 829.02,-43.48 829.07,-50.48"/>
</g>
<!-- Node33 -->
<g id="node33" class="node">
<title>Node33</title>
<g id="a_node33"><a xlink:href="TransmitterCode_2src_2main_8cpp.html#a5d42b1fba153cc76dc96778cfb6f1a40" target="_top" xlink:title=" ">
<polygon fill="white" stroke="#666666" points="942.5,-94 847.5,-94 847.5,-75 942.5,-75 942.5,-94"/>
<text text-anchor="middle" x="895" y="-82" font-family="Helvetica,sans-Serif" font-size="10.00">CreateTimeStamp</text>
</a>
</g>
</g>
<!-- Node29&#45;&gt;Node33 -->
<g id="edge48" class="edge">
<title>Node29&#45;&gt;Node33</title>
<path fill="none" stroke="#63b8ff" d="M794.81,-57.42C810.76,-61.77 829.69,-66.94 846.72,-71.59"/>
<polygon fill="#63b8ff" stroke="#63b8ff" points="845.56,-74.9 856.13,-74.16 847.4,-68.15 845.56,-74.9"/>
</g>
<!-- Node29&#45;&gt;Node35 -->
<g id="edge51" class="edge">
<title>Node29&#45;&gt;Node35</title>
<path fill="none" stroke="#63b8ff" d="M794.1,-37.52C810.59,-32.89 830.4,-27.34 848.01,-22.4"/>
<polygon fill="#63b8ff" stroke="#63b8ff" points="848.5,-25.9 857.18,-19.83 846.61,-19.16 848.5,-25.9"/>
</g>
<!-- Node31 -->
<g id="node31" class="node">
<title>Node31</title>
<g id="a_node31"><a xlink:href="TransmitterCode_2src_2main_8cpp.html#a05c7b4e0b98f9b97eebf9617442de6a5" target="_top" xlink:title=" ">
<polygon fill="white" stroke="#666666" points="1084,-19 985,-19 985,0 1084,0 1084,-19"/>
<text text-anchor="middle" x="1034.5" y="-7" font-family="Helvetica,sans-Serif" font-size="10.00">MakeLogFileName</text>
</a>
</g>
</g>
<!-- Node30&#45;&gt;Node31 -->
<g id="edge45" class="edge">
<title>Node30&#45;&gt;Node31</title>
<path fill="none" stroke="#63b8ff" d="M932.85,-36.58C949.03,-32.23 968.24,-27.06 985.53,-22.41"/>
<polygon fill="#63b8ff" stroke="#63b8ff" points="986.34,-25.81 995.09,-19.84 984.52,-19.05 986.34,-25.81"/>
</g>
<!-- Node32 -->
<g id="node32" class="node">
<title>Node32</title>
<g id="a_node32"><a xlink:href="TransmitterCode_2src_2main_8cpp.html#ad2d22d4683c318454ab9a1dd15e1f647" target="_top" xlink:title=" ">
<polygon fill="white" stroke="#666666" points="1075,-56 994,-56 994,-37 1075,-37 1075,-56"/>
<text text-anchor="middle" x="1034.5" y="-44" font-family="Helvetica,sans-Serif" font-size="10.00">OpenLogFileW</text>
</a>
</g>
</g>
<!-- Node30&#45;&gt;Node32 -->
<g id="edge47" class="edge">
<title>Node30&#45;&gt;Node32</title>
<path fill="none" stroke="#63b8ff" d="M949.16,-46.5C960.04,-46.5 971.47,-46.5 982.27,-46.5"/>
<polygon fill="#63b8ff" stroke="#63b8ff" points="982.19,-50 992.19,-46.5 982.19,-43 982.19,-50"/>
</g>
<!-- Node31&#45;&gt;Node10 -->
<g id="edge46" class="edge">
<title>Node31&#45;&gt;Node10</title>
<path fill="none" stroke="#63b8ff" d="M1074.65,-19.46C1078.19,-21.63 1081.41,-24.28 1084,-27.5 1126.17,-80.05 1132.43,-295.99 1133.34,-365.11"/>
<polygon fill="#63b8ff" stroke="#63b8ff" points="1129.84,-365.09 1133.45,-375.05 1136.84,-365.01 1129.84,-365.09"/>
</g>
<!-- Node33&#45;&gt;Node10 -->
<g id="edge50" class="edge">
<title>Node33&#45;&gt;Node10</title>
<path fill="none" stroke="#63b8ff" d="M942.9,-74.92C985.31,-69.21 1046.65,-68.76 1084,-103.5 1122.28,-139.1 1131.06,-306.14 1132.98,-365.5"/>
<polygon fill="#63b8ff" stroke="#63b8ff" points="1129.48,-365.33 1133.26,-375.22 1136.47,-365.13 1129.48,-365.33"/>
</g>
<!-- Node34 -->
<g id="node34" class="node">
<title>Node34</title>
<g id="a_node34"><a xlink:href="Utilities_8h.html#ae310e7fc6397929ae886869c05cbc334" target="_top" xlink:title=" ">
<polygon fill="white" stroke="#666666" points="1076,-132 993,-132 993,-113 1076,-113 1076,-132"/>
<text text-anchor="middle" x="1034.5" y="-120" font-family="Helvetica,sans-Serif" font-size="10.00">MayBeAddZero</text>
</a>
</g>
</g>
<!-- Node33&#45;&gt;Node34 -->
<g id="edge49" class="edge">
<title>Node33&#45;&gt;Node34</title>
<path fill="none" stroke="#63b8ff" d="M932.13,-94.48C948.78,-99.09 968.77,-104.61 986.57,-109.53"/>
<polygon fill="#63b8ff" stroke="#63b8ff" points="985.58,-112.89 996.16,-112.18 987.45,-106.14 985.58,-112.89"/>
</g>
<!-- Node36&#45;&gt;Node5 -->
<g id="edge56" class="edge">
<title>Node36&#45;&gt;Node5</title>
<path fill="none" stroke="#63b8ff" d="M338.43,-395.28C346.88,-399.37 356.56,-404.37 365,-409.5 395.28,-427.91 427.99,-452.54 448.59,-468.7"/>
<polygon fill="#63b8ff" stroke="#63b8ff" points="446.21,-471.28 456.22,-474.75 450.56,-465.8 446.21,-471.28"/>
</g>
<!-- Node36&#45;&gt;Node10 -->
<g id="edge57" class="edge">
<title>Node36&#45;&gt;Node10</title>
<path fill="none" stroke="#63b8ff" d="M347.94,-385.67C403.31,-385.95 523,-386.5 624,-386.5 624,-386.5 624,-386.5 896,-386.5 973.31,-386.5 1064.77,-386.5 1108.19,-386.5"/>
<polygon fill="#63b8ff" stroke="#63b8ff" points="1108.07,-390 1118.07,-386.5 1108.07,-383 1108.07,-390"/>
</g>
<!-- Node38&#45;&gt;Node3 -->
<g id="edge67" class="edge">
<title>Node38&#45;&gt;Node3</title>
<path fill="none" stroke="#63b8ff" d="M182.09,-509.28C193.89,-520.76 213.98,-540.39 231,-557.5 247.18,-573.77 247.79,-581.95 267,-594.5 269.89,-596.39 273,-598.12 276.2,-599.69"/>
<polygon fill="#63b8ff" stroke="#63b8ff" points="274.63,-602.82 285.2,-603.6 277.42,-596.4 274.63,-602.82"/>
</g>
<!-- Node38&#45;&gt;Node5 -->
<g id="edge66" class="edge">
<title>Node38&#45;&gt;Node5</title>
<path fill="none" stroke="#63b8ff" d="M212.42,-509.41C229.19,-513.05 248.92,-516.71 267,-518.5 310.34,-522.79 321.95,-525.14 365,-518.5 388.85,-514.82 414.71,-506.69 434.74,-499.42"/>
<polygon fill="#63b8ff" stroke="#63b8ff" points="435.95,-502.7 444.09,-495.92 433.5,-496.15 435.95,-502.7"/>
</g>
<!-- Node38&#45;&gt;Node9 -->
<g id="edge68" class="edge">
<title>Node38&#45;&gt;Node9</title>
<path fill="none" stroke="#63b8ff" d="M200.96,-509.45C210.77,-513.29 221.62,-518.08 231,-523.5 248.55,-533.64 249.85,-540.69 267,-551.5 272,-554.65 277.46,-557.71 282.85,-560.53"/>
<polygon fill="#63b8ff" stroke="#63b8ff" points="281.14,-563.59 291.65,-564.95 284.28,-557.33 281.14,-563.59"/>
</g>
<!-- Node39 -->
<g id="node39" class="node">
<title>Node39</title>
<g id="a_node39"><a xlink:href="Utilities_8h.html#a9f5745d51ac7a3efbee333bcacd06c50" target="_top" xlink:title=" ">
<polygon fill="white" stroke="#666666" points="361.5,-509 270.5,-509 270.5,-490 361.5,-490 361.5,-509"/>
<text text-anchor="middle" x="316" y="-497" font-family="Helvetica,sans-Serif" font-size="10.00">GetSuccessRate</text>
</a>
</g>
</g>
<!-- Node38&#45;&gt;Node39 -->
<g id="edge65" class="edge">
<title>Node38&#45;&gt;Node39</title>
<path fill="none" stroke="#63b8ff" d="M231.4,-499.5C240.57,-499.5 250.02,-499.5 259.11,-499.5"/>
<polygon fill="#63b8ff" stroke="#63b8ff" points="258.88,-503 268.88,-499.5 258.88,-496 258.88,-503"/>
</g>
</g>
</svg>
