<?xml version="1.0" encoding="UTF-8" standalone="no"?>
<!DOCTYPE svg PUBLIC "-//W3C//DTD SVG 1.1//EN"
 "http://www.w3.org/Graphics/SVG/1.1/DTD/svg11.dtd">
<!-- Generated by graphviz version 7.0.5 (20221223.1930)
 -->
<!-- Title: MakeLogFileName Pages: 1 -->
<svg width="1504pt" height="689pt"
 viewBox="0.00 0.00 1504.00 689.00" xmlns="http://www.w3.org/2000/svg" xmlns:xlink="http://www.w3.org/1999/xlink">
<g id="graph0" class="graph" transform="scale(1 1) rotate(0) translate(4 685)">
<title>MakeLogFileName</title>
<!-- Node1 -->
<g id="node1" class="node">
<title>Node1</title>
<g id="a_node1"><a xlink:title=" ">
<polygon fill="#999999" stroke="#666666" points="1496,-137 1397,-137 1397,-118 1496,-118 1496,-137"/>
<text text-anchor="middle" x="1446.5" y="-125" font-family="Helvetica,sans-Serif" font-size="10.00">MakeLogFileName</text>
</a>
</g>
</g>
<!-- Node2 -->
<g id="node2" class="node">
<title>Node2</title>
<g id="a_node2"><a xlink:href="TransmitterCode_2src_2main_8cpp.html#ac45f2f949ccfa372a8cbab3ef0b8caa8" target="_top" xlink:title=" ">
<polygon fill="white" stroke="#666666" points="1361,-287 1253,-287 1253,-268 1361,-268 1361,-287"/>
<text text-anchor="middle" x="1307" y="-275" font-family="Helvetica,sans-Serif" font-size="10.00">CheckLogFileIsOpen</text>
</a>
</g>
</g>
<!-- Node1&#45;&gt;Node2 -->
<g id="edge1" class="edge">
<title>Node1&#45;&gt;Node2</title>
<path fill="none" stroke="#63b8ff" d="M1428.73,-145.8C1399.32,-177.88 1339.45,-243.19 1316.88,-267.82"/>
<polygon fill="#63b8ff" stroke="#63b8ff" points="1431.28,-148.19 1435.46,-138.46 1426.12,-143.46 1431.28,-148.19"/>
</g>
<!-- Node52 -->
<g id="node45" class="node">
<title>Node52</title>
<g id="a_node45"><a xlink:href="TransmitterCode_2src_2main_8cpp.html#ad33b86f6d4eba7a21e57c1a5ba76281a" target="_top" xlink:title=" ">
<polygon fill="white" stroke="#666666" points="1213,-43 1131,-43 1131,-24 1213,-24 1213,-43"/>
<text text-anchor="middle" x="1172" y="-31" font-family="Helvetica,sans-Serif" font-size="10.00">DeleteLogFile1</text>
</a>
</g>
</g>
<!-- Node1&#45;&gt;Node52 -->
<g id="edge61" class="edge">
<title>Node1&#45;&gt;Node52</title>
<path fill="none" stroke="#63b8ff" d="M1405.76,-113.79C1350.16,-94.61 1250.48,-60.23 1201.61,-43.37"/>
<polygon fill="#63b8ff" stroke="#63b8ff" points="1404.57,-117.08 1415.16,-117.04 1406.85,-110.47 1404.57,-117.08"/>
</g>
<!-- Node53 -->
<g id="node46" class="node">
<title>Node53</title>
<g id="a_node46"><a xlink:href="TransmitterCode_2src_2main_8cpp.html#af5df157d4ece6b40a9ce7a60faeca569" target="_top" xlink:title=" ">
<polygon fill="white" stroke="#666666" points="1344,-137 1270,-137 1270,-118 1344,-118 1344,-137"/>
<text text-anchor="middle" x="1307" y="-125" font-family="Helvetica,sans-Serif" font-size="10.00">ShowLogFile</text>
</a>
</g>
</g>
<!-- Node1&#45;&gt;Node53 -->
<g id="edge63" class="edge">
<title>Node1&#45;&gt;Node53</title>
<path fill="none" stroke="#63b8ff" d="M1385.49,-127.5C1371.41,-127.5 1356.83,-127.5 1344.17,-127.5"/>
<polygon fill="#63b8ff" stroke="#63b8ff" points="1385.12,-131 1395.12,-127.5 1385.12,-124 1385.12,-131"/>
</g>
<!-- Node3 -->
<g id="node3" class="node">
<title>Node3</title>
<g id="a_node3"><a xlink:href="TransmitterCode_2src_2main_8cpp.html#a99a51dbad5d686ca711e982f82cbcada" target="_top" xlink:title=" ">
<polygon fill="white" stroke="#666666" points="1217,-326 1127,-326 1127,-307 1217,-307 1217,-326"/>
<text text-anchor="middle" x="1172" y="-314" font-family="Helvetica,sans-Serif" font-size="10.00">LogFilePreamble</text>
</a>
</g>
</g>
<!-- Node2&#45;&gt;Node3 -->
<g id="edge2" class="edge">
<title>Node2&#45;&gt;Node3</title>
<path fill="none" stroke="#63b8ff" d="M1261.11,-290.66C1243.37,-295.86 1223.33,-301.74 1206.84,-306.58"/>
<polygon fill="#63b8ff" stroke="#63b8ff" points="1262.03,-294.04 1270.64,-287.87 1260.06,-287.32 1262.03,-294.04"/>
</g>
<!-- Node4 -->
<g id="node4" class="node">
<title>Node4</title>
<g id="a_node4"><a xlink:href="TransmitterCode_2src_2main_8cpp.html#add8d8f400f1c1c4a5add52736cdf94ca" target="_top" xlink:title=" ">
<polygon fill="white" stroke="#666666" points="1091,-382 1039,-382 1039,-363 1091,-363 1091,-382"/>
<text text-anchor="middle" x="1065" y="-370" font-family="Helvetica,sans-Serif" font-size="10.00">LogText</text>
</a>
</g>
</g>
<!-- Node3&#45;&gt;Node4 -->
<g id="edge3" class="edge">
<title>Node3&#45;&gt;Node4</title>
<path fill="none" stroke="#63b8ff" d="M1142.77,-331.56C1124.25,-341.43 1100.56,-354.07 1084.43,-362.67"/>
<polygon fill="#63b8ff" stroke="#63b8ff" points="1144.2,-334.76 1151.37,-326.97 1140.9,-328.58 1144.2,-334.76"/>
</g>
<!-- Node5 -->
<g id="node5" class="node">
<title>Node5</title>
<g id="a_node5"><a xlink:href="TransmitterCode_2src_2main_8cpp.html#aaa3e86084c43b049d52d7d62c58a00b9" target="_top" xlink:title=" ">
<polygon fill="white" stroke="#666666" points="829.5,-587 747.5,-587 747.5,-568 829.5,-568 829.5,-587"/>
<text text-anchor="middle" x="788.5" y="-575" font-family="Helvetica,sans-Serif" font-size="10.00">LogConnection</text>
</a>
</g>
</g>
<!-- Node4&#45;&gt;Node5 -->
<g id="edge4" class="edge">
<title>Node4&#45;&gt;Node5</title>
<path fill="none" stroke="#63b8ff" d="M1060.89,-393.57C1053.4,-441.1 1032.75,-554.23 1003,-576.5 948.99,-616.92 863.87,-600.37 819.17,-587.43"/>
<polygon fill="#63b8ff" stroke="#63b8ff" points="1064.34,-394.19 1062.39,-383.77 1057.42,-393.13 1064.34,-394.19"/>
</g>
<!-- Node24 -->
<g id="node7" class="node">
<title>Node24</title>
<g id="a_node7"><a xlink:href="TransmitterCode_2src_2main_8cpp.html#a2d5ec5fd5ed62d5b7b071fabe2225405" target="_top" xlink:title=" ">
<polygon fill="white" stroke="#666666" points="836.5,-198 740.5,-198 740.5,-179 836.5,-179 836.5,-198"/>
<text text-anchor="middle" x="788.5" y="-186" font-family="Helvetica,sans-Serif" font-size="10.00">LogDisConnection</text>
</a>
</g>
</g>
<!-- Node4&#45;&gt;Node24 -->
<g id="edge6" class="edge">
<title>Node4&#45;&gt;Node24</title>
<path fill="none" stroke="#63b8ff" d="M1060.28,-351.83C1053.88,-322.53 1037.97,-269.27 1003,-240.5 977.88,-219.84 891.52,-203.63 836.63,-195.11"/>
<polygon fill="#63b8ff" stroke="#63b8ff" points="1056.78,-352.18 1062.16,-361.3 1063.64,-350.81 1056.78,-352.18"/>
</g>
<!-- Node28 -->
<g id="node23" class="node">
<title>Node28</title>
<g id="a_node23"><a xlink:href="TransmitterCode_2src_2main_8cpp.html#ad37c67d015818c94d8359a507e72bac0" target="_top" xlink:title=" ">
<polygon fill="white" stroke="#666666" points="985,-193 899,-193 899,-174 985,-174 985,-193"/>
<text text-anchor="middle" x="942" y="-181" font-family="Helvetica,sans-Serif" font-size="10.00">LogLongestGap</text>
</a>
</g>
</g>
<!-- Node4&#45;&gt;Node28 -->
<g id="edge27" class="edge">
<title>Node4&#45;&gt;Node28</title>
<path fill="none" stroke="#63b8ff" d="M1061.72,-351.48C1056.91,-317.01 1042.68,-248.24 1003,-207.5 997.13,-201.47 989.55,-196.92 981.76,-193.49"/>
<polygon fill="#63b8ff" stroke="#63b8ff" points="1058.24,-351.89 1062.95,-361.38 1065.19,-351.03 1058.24,-351.89"/>
</g>
<!-- Node29 -->
<g id="node24" class="node">
<title>Node29</title>
<g id="a_node24"><a xlink:href="TransmitterCode_2src_2main_8cpp.html#aac4334531357e4221222c7fc8c5cf817" target="_top" xlink:title=" ">
<polygon fill="white" stroke="#666666" points="983.5,-494 900.5,-494 900.5,-475 983.5,-475 983.5,-494"/>
<text text-anchor="middle" x="942" y="-482" font-family="Helvetica,sans-Serif" font-size="10.00">LogLowBattery</text>
</a>
</g>
</g>
<!-- Node4&#45;&gt;Node29 -->
<g id="edge29" class="edge">
<title>Node4&#45;&gt;Node29</title>
<path fill="none" stroke="#63b8ff" d="M1055.75,-392.61C1046.11,-413.71 1028.19,-446.41 1003,-465.5 997.34,-469.79 990.69,-473.13 983.91,-475.72"/>
<polygon fill="#63b8ff" stroke="#63b8ff" points="1058.88,-394.2 1059.65,-383.63 1052.46,-391.41 1058.88,-394.2"/>
</g>
<!-- Node30 -->
<g id="node25" class="node">
<title>Node30</title>
<g id="a_node25"><a xlink:href="TransmitterCode_2src_2main_8cpp.html#af7b3b351c80f0b43c13a4ccb440b2f2e" target="_top" xlink:title=" ">
<polygon fill="white" stroke="#666666" points="975.5,-568 908.5,-568 908.5,-549 975.5,-549 975.5,-568"/>
<text text-anchor="middle" x="942" y="-556" font-family="Helvetica,sans-Serif" font-size="10.00">LogMinGap</text>
</a>
</g>
</g>
<!-- Node4&#45;&gt;Node30 -->
<g id="edge30" class="edge">
<title>Node4&#45;&gt;Node30</title>
<path fill="none" stroke="#63b8ff" d="M1062.18,-393.64C1058.03,-428.85 1044.7,-499.58 1003,-539.5 995.58,-546.6 985.52,-551.05 975.76,-553.84"/>
<polygon fill="#63b8ff" stroke="#63b8ff" points="1065.64,-394.21 1063.18,-383.9 1058.68,-393.49 1065.64,-394.21"/>
</g>
<!-- Node31 -->
<g id="node26" class="node">
<title>Node31</title>
<g id="a_node26"><a xlink:href="TransmitterCode_2src_2main_8cpp.html#ac45afae9da9cc313054a4c41e1ce1757" target="_top" xlink:title=" ">
<polygon fill="white" stroke="#666666" points="817.5,-345 759.5,-345 759.5,-326 817.5,-326 817.5,-345"/>
<text text-anchor="middle" x="788.5" y="-333" font-family="Helvetica,sans-Serif" font-size="10.00">LogMotor</text>
</a>
</g>
</g>
<!-- Node4&#45;&gt;Node31 -->
<g id="edge32" class="edge">
<title>Node4&#45;&gt;Node31</title>
<path fill="none" stroke="#63b8ff" d="M1027.27,-367.55C971.73,-360.06 867.57,-346.02 817.62,-339.29"/>
<polygon fill="#63b8ff" stroke="#63b8ff" points="1026.79,-371.02 1037.17,-368.88 1027.72,-364.08 1026.79,-371.02"/>
</g>
<!-- Node33 -->
<g id="node28" class="node">
<title>Node33</title>
<g id="a_node28"><a xlink:href="TransmitterCode_2src_2main_8cpp.html#a32be1544c90acbd0fb13568c35213510" target="_top" xlink:title=" ">
<polygon fill="white" stroke="#666666" points="826.5,-382 750.5,-382 750.5,-363 826.5,-363 826.5,-382"/>
<text text-anchor="middle" x="788.5" y="-370" font-family="Helvetica,sans-Serif" font-size="10.00">LogNewBank</text>
</a>
</g>
</g>
<!-- Node4&#45;&gt;Node33 -->
<g id="edge35" class="edge">
<title>Node4&#45;&gt;Node33</title>
<path fill="none" stroke="#63b8ff" d="M1027.27,-372.5C974.96,-372.5 879.54,-372.5 826.88,-372.5"/>
<polygon fill="#63b8ff" stroke="#63b8ff" points="1027.15,-376 1037.15,-372.5 1027.15,-369 1027.15,-376"/>
</g>
<!-- Node34 -->
<g id="node29" class="node">
<title>Node34</title>
<g id="a_node29"><a xlink:href="TransmitterCode_2src_2main_8cpp.html#a6b269c8bc84f79cedd5a789bdf697274" target="_top" xlink:title=" ">
<polygon fill="white" stroke="#666666" points="1003,-119 881,-119 881,-100 1003,-100 1003,-119"/>
<text text-anchor="middle" x="942" y="-107" font-family="Helvetica,sans-Serif" font-size="10.00">LogOverallSuccessRate</text>
</a>
</g>
</g>
<!-- Node4&#45;&gt;Node34 -->
<g id="edge37" class="edge">
<title>Node4&#45;&gt;Node34</title>
<path fill="none" stroke="#63b8ff" d="M1061.4,-351.15C1054.49,-297.68 1034.02,-160.03 1003,-127.5 999.92,-124.27 996.29,-121.62 992.36,-119.43"/>
<polygon fill="#63b8ff" stroke="#63b8ff" points="1057.93,-351.56 1062.65,-361.04 1064.87,-350.69 1057.93,-351.56"/>
</g>
<!-- Node35 -->
<g id="node30" class="node">
<title>Node35</title>
<g id="a_node30"><a xlink:href="TransmitterCode_2src_2main_8cpp.html#a31e9d94f45a152e1cbc436284799ca37" target="_top" xlink:title=" ">
<polygon fill="white" stroke="#666666" points="979,-420 905,-420 905,-401 979,-401 979,-420"/>
<text text-anchor="middle" x="942" y="-408" font-family="Helvetica,sans-Serif" font-size="10.00">LogPowerOff</text>
</a>
</g>
</g>
<!-- Node4&#45;&gt;Node35 -->
<g id="edge39" class="edge">
<title>Node4&#45;&gt;Node35</title>
<path fill="none" stroke="#63b8ff" d="M1028.04,-383.79C1011.13,-389.1 991.15,-395.38 974.8,-400.51"/>
<polygon fill="#63b8ff" stroke="#63b8ff" points="1028.7,-387.26 1037.19,-380.92 1026.6,-380.58 1028.7,-387.26"/>
</g>
<!-- Node37 -->
<g id="node32" class="node">
<title>Node37</title>
<g id="a_node32"><a xlink:href="TransmitterCode_2src_2main_8cpp.html#a7d93a2500f52d72210903c46a85ce820" target="_top" xlink:title=" ">
<polygon fill="white" stroke="#666666" points="979,-457 905,-457 905,-438 979,-438 979,-457"/>
<text text-anchor="middle" x="942" y="-445" font-family="Helvetica,sans-Serif" font-size="10.00">LogPowerOn</text>
</a>
</g>
</g>
<!-- Node4&#45;&gt;Node37 -->
<g id="edge42" class="edge">
<title>Node4&#45;&gt;Node37</title>
<path fill="none" stroke="#63b8ff" d="M1048.17,-390.72C1036.71,-402.92 1020.25,-418.51 1003,-428.5 995.72,-432.71 987.39,-436.11 979.3,-438.8"/>
<polygon fill="#63b8ff" stroke="#63b8ff" points="1050.76,-393.08 1054.88,-383.32 1045.57,-388.38 1050.76,-393.08"/>
</g>
<!-- Node39 -->
<g id="node34" class="node">
<title>Node39</title>
<g id="a_node34"><a xlink:href="TransmitterCode_2src_2main_8cpp.html#a0ed2fd04eebb4fd11b61b6fddd5d2590" target="_top" xlink:title=" ">
<polygon fill="white" stroke="#666666" points="972.5,-306 911.5,-306 911.5,-287 972.5,-287 972.5,-306"/>
<text text-anchor="middle" x="942" y="-294" font-family="Helvetica,sans-Serif" font-size="10.00">LogSafety</text>
</a>
</g>
</g>
<!-- Node4&#45;&gt;Node39 -->
<g id="edge44" class="edge">
<title>Node4&#45;&gt;Node39</title>
<path fill="none" stroke="#63b8ff" d="M1046.49,-354.86C1034.9,-343.91 1018.95,-330.13 1003,-320.5 993.68,-314.87 982.81,-310.07 972.9,-306.26"/>
<polygon fill="#63b8ff" stroke="#63b8ff" points="1043.73,-357.06 1053.34,-361.52 1048.61,-352.04 1043.73,-357.06"/>
</g>
<!-- Node42 -->
<g id="node37" class="node">
<title>Node42</title>
<g id="a_node37"><a xlink:href="TransmitterCode_2src_2main_8cpp.html#a1fadc7cdd854f8b3628b622da5417d8b" target="_top" xlink:title=" ">
<polygon fill="white" stroke="#666666" points="977,-681 907,-681 907,-662 977,-662 977,-681"/>
<text text-anchor="middle" x="942" y="-669" font-family="Helvetica,sans-Serif" font-size="10.00">LogThisGap</text>
</a>
</g>
</g>
<!-- Node4&#45;&gt;Node42 -->
<g id="edge49" class="edge">
<title>Node4&#45;&gt;Node42</title>
<path fill="none" stroke="#63b8ff" d="M1062.11,-393.7C1056.47,-452.21 1037.98,-614.14 1003,-652.5 996.3,-659.85 986.78,-664.37 977.3,-667.15"/>
<polygon fill="#63b8ff" stroke="#63b8ff" points="1065.58,-394.09 1063.03,-383.81 1058.62,-393.44 1065.58,-394.09"/>
</g>
<!-- Node44 -->
<g id="node39" class="node">
<title>Node44</title>
<g id="a_node39"><a xlink:href="TransmitterCode_2src_2main_8cpp.html#a83944fc0ecaab86d0bbb0802e99e5084" target="_top" xlink:title=" ">
<polygon fill="white" stroke="#666666" points="981,-531 903,-531 903,-512 981,-512 981,-531"/>
<text text-anchor="middle" x="942" y="-519" font-family="Helvetica,sans-Serif" font-size="10.00">LogThisModel</text>
</a>
</g>
</g>
<!-- Node4&#45;&gt;Node44 -->
<g id="edge51" class="edge">
<title>Node4&#45;&gt;Node44</title>
<path fill="none" stroke="#63b8ff" d="M1059.72,-393.35C1052.78,-422 1036.33,-473.31 1003,-502.5 996.84,-507.9 989.13,-511.77 981.32,-514.53"/>
<polygon fill="#63b8ff" stroke="#63b8ff" points="1063.11,-394.26 1061.88,-383.74 1056.28,-392.73 1063.11,-394.26"/>
</g>
<!-- Node47 -->
<g id="node41" class="node">
<title>Node47</title>
<g id="a_node41"><a xlink:href="TransmitterCode_2src_2main_8cpp.html#a900aa27c1353238593c276186d960912" target="_top" xlink:title=" ">
<polygon fill="white" stroke="#666666" points="974.5,-644 909.5,-644 909.5,-625 974.5,-625 974.5,-644"/>
<text text-anchor="middle" x="942" y="-632" font-family="Helvetica,sans-Serif" font-size="10.00">LogThisRX</text>
</a>
</g>
</g>
<!-- Node4&#45;&gt;Node47 -->
<g id="edge55" class="edge">
<title>Node4&#45;&gt;Node47</title>
<path fill="none" stroke="#63b8ff" d="M1064.61,-393.56C1064.77,-438.92 1058.84,-546.91 1003,-610.5 995.67,-618.85 985.04,-624.33 974.75,-627.91"/>
<polygon fill="#63b8ff" stroke="#63b8ff" points="1068.11,-393.51 1064.45,-383.57 1061.11,-393.62 1068.11,-393.51"/>
</g>
<!-- Node50 -->
<g id="node43" class="node">
<title>Node50</title>
<g id="a_node43"><a xlink:href="TransmitterCode_2src_2main_8cpp.html#a8f37e3c97602121326a883fafbe8f3ff" target="_top" xlink:title=" ">
<polygon fill="white" stroke="#666666" points="999,-269 885,-269 885,-250 999,-250 999,-269"/>
<text text-anchor="middle" x="942" y="-257" font-family="Helvetica,sans-Serif" font-size="10.00">LogTotalGoodPackets</text>
</a>
</g>
</g>
<!-- Node4&#45;&gt;Node50 -->
<g id="edge57" class="edge">
<title>Node4&#45;&gt;Node50</title>
<path fill="none" stroke="#63b8ff" d="M1055.92,-351.88C1046.42,-330.26 1028.62,-296.81 1003,-277.5 998.74,-274.29 993.92,-271.65 988.9,-269.48"/>
<polygon fill="#63b8ff" stroke="#63b8ff" points="1052.69,-353.22 1059.76,-361.11 1059.15,-350.53 1052.69,-353.22"/>
</g>
<!-- Node51 -->
<g id="node44" class="node">
<title>Node51</title>
<g id="a_node44"><a xlink:href="TransmitterCode_2src_2main_8cpp.html#a46663d24b572bf50ed661e9e0c3434b6" target="_top" xlink:title=" ">
<polygon fill="white" stroke="#666666" points="997,-156 887,-156 887,-137 997,-137 997,-156"/>
<text text-anchor="middle" x="942" y="-144" font-family="Helvetica,sans-Serif" font-size="10.00">LogTotalLostPackets</text>
</a>
</g>
</g>
<!-- Node4&#45;&gt;Node51 -->
<g id="edge59" class="edge">
<title>Node4&#45;&gt;Node51</title>
<path fill="none" stroke="#63b8ff" d="M1064.06,-351.19C1063,-309.44 1054.58,-216.4 1003,-164.5 999.78,-161.26 996,-158.6 991.94,-156.41"/>
<polygon fill="#63b8ff" stroke="#63b8ff" points="1060.56,-351.15 1064.18,-361.11 1067.56,-351.07 1060.56,-351.15"/>
</g>
<!-- Node6 -->
<g id="node6" class="node">
<title>Node6</title>
<g id="a_node6"><a xlink:href="TransmitterCode_2src_2main_8cpp.html#a62e53eb9359c32b666e3386d62c57037" target="_top" xlink:title=" ">
<polygon fill="#fff0f0" stroke="red" points="696,-587 624,-587 624,-568 696,-568 696,-587"/>
<text text-anchor="middle" x="660" y="-575" font-family="Helvetica,sans-Serif" font-size="10.00">GreenLedOn</text>
</a>
</g>
</g>
<!-- Node5&#45;&gt;Node6 -->
<g id="edge5" class="edge">
<title>Node5&#45;&gt;Node6</title>
<path fill="none" stroke="#63b8ff" d="M735.72,-577.5C722.46,-577.5 708.51,-577.5 696.3,-577.5"/>
<polygon fill="#63b8ff" stroke="#63b8ff" points="735.61,-581 745.61,-577.5 735.61,-574 735.61,-581"/>
</g>
<!-- Node25 -->
<g id="node8" class="node">
<title>Node25</title>
<g id="a_node8"><a xlink:href="TransmitterCode_2src_2main_8cpp.html#a7d34cec6e8edc20c8b50424e15dcc7c7" target="_top" xlink:title=" ">
<polygon fill="#fff0f0" stroke="red" points="691.5,-203 628.5,-203 628.5,-184 691.5,-184 691.5,-203"/>
<text text-anchor="middle" x="660" y="-191" font-family="Helvetica,sans-Serif" font-size="10.00">RedLedOn</text>
</a>
</g>
</g>
<!-- Node24&#45;&gt;Node25 -->
<g id="edge7" class="edge">
<title>Node24&#45;&gt;Node25</title>
<path fill="none" stroke="#63b8ff" d="M728.9,-190.82C716.1,-191.32 703.04,-191.84 691.84,-192.28"/>
<polygon fill="#63b8ff" stroke="#63b8ff" points="728.67,-194.33 738.52,-190.44 728.39,-187.33 728.67,-194.33"/>
</g>
<!-- Node9 -->
<g id="node9" class="node">
<title>Node9</title>
<g id="a_node9"><a xlink:href="TransmitterCode_2src_2main_8cpp.html#a804fdbdd5eab4c596bbe8a23eecbe4d5" target="_top" xlink:title=" ">
<polygon fill="white" stroke="#666666" points="588,-203 487,-203 487,-184 588,-184 588,-203"/>
<text text-anchor="middle" x="537.5" y="-191" font-family="Helvetica,sans-Serif" font-size="10.00">ButtonWasPressed</text>
</a>
</g>
</g>
<!-- Node25&#45;&gt;Node9 -->
<g id="edge8" class="edge">
<title>Node25&#45;&gt;Node9</title>
<path fill="none" stroke="#63b8ff" d="M616.99,-193.5C607.75,-193.5 597.87,-193.5 588.36,-193.5"/>
<polygon fill="#63b8ff" stroke="#63b8ff" points="616.77,-197 626.77,-193.5 616.77,-190 616.77,-197"/>
</g>
<!-- Node18 -->
<g id="node18" class="node">
<title>Node18</title>
<g id="a_node18"><a xlink:href="TransmitterCode_2src_2main_8cpp.html#ab7c9edf843c732d7fe296564f39bc0dc" target="_top" xlink:title="RECEIVE A MODEL FILE.">
<polygon fill="white" stroke="#666666" points="111,-315 17,-315 17,-296 111,-296 111,-315"/>
<text text-anchor="middle" x="64" y="-303" font-family="Helvetica,sans-Serif" font-size="10.00">ReceiveModelFile</text>
</a>
</g>
</g>
<!-- Node25&#45;&gt;Node18 -->
<g id="edge26" class="edge">
<title>Node25&#45;&gt;Node18</title>
<path fill="none" stroke="#63b8ff" d="M623.24,-207.51C582.21,-223.11 512.64,-248.15 451,-263.5 371.45,-283.31 350.48,-284.41 269,-293.5 215.05,-299.52 152.72,-302.63 111.3,-304.16"/>
<polygon fill="#63b8ff" stroke="#63b8ff" points="624.28,-210.86 632.36,-204.01 621.77,-204.32 624.28,-210.86"/>
</g>
<!-- Node10 -->
<g id="node10" class="node">
<title>Node10</title>
<g id="a_node10"><a xlink:href="Utilities_8h.html#afb7c85cac4aa89fd998ed81c330374d2" target="_top" xlink:title=" ">
<polygon fill="white" stroke="#666666" points="451,-203 305,-203 305,-184 451,-184 451,-203"/>
<text text-anchor="middle" x="378" y="-191" font-family="Helvetica,sans-Serif" font-size="10.00">CheckForNextionButtonPress</text>
</a>
</g>
</g>
<!-- Node9&#45;&gt;Node10 -->
<g id="edge9" class="edge">
<title>Node9&#45;&gt;Node10</title>
<path fill="none" stroke="#63b8ff" d="M475.32,-193.5C467.43,-193.5 459.29,-193.5 451.24,-193.5"/>
<polygon fill="#63b8ff" stroke="#63b8ff" points="475.15,-197 485.15,-193.5 475.15,-190 475.15,-197"/>
</g>
<!-- Node9&#45;&gt;Node18 -->
<g id="edge25" class="edge">
<title>Node9&#45;&gt;Node18</title>
<path fill="none" stroke="#63b8ff" d="M508.72,-208.69C492.33,-217.09 470.97,-227.08 451,-233.5 388.13,-253.71 199.32,-284.57 111.22,-298.38"/>
<polygon fill="#63b8ff" stroke="#63b8ff" points="510.12,-211.91 517.35,-204.16 506.87,-205.71 510.12,-211.91"/>
</g>
<!-- Node11 -->
<g id="node11" class="node">
<title>Node11</title>
<g id="a_node11"><a xlink:href="TransmitterCode_2src_2main_8cpp.html#a641d6dab68ec7b2a8a32492aac55bc1c" target="_top" xlink:title=" ">
<polygon fill="white" stroke="#666666" points="269,-241 164,-241 164,-222 269,-222 269,-241"/>
<text text-anchor="middle" x="216.5" y="-229" font-family="Helvetica,sans-Serif" font-size="10.00">GetBackupFilename</text>
</a>
</g>
</g>
<!-- Node10&#45;&gt;Node11 -->
<g id="edge10" class="edge">
<title>Node10&#45;&gt;Node11</title>
<path fill="none" stroke="#63b8ff" d="M324.07,-206.11C303.04,-211.12 279.2,-216.8 259.4,-221.52"/>
<polygon fill="#63b8ff" stroke="#63b8ff" points="324.7,-209.56 333.62,-203.83 323.08,-202.75 324.7,-209.56"/>
</g>
<!-- Node13 -->
<g id="node13" class="node">
<title>Node13</title>
<g id="a_node13"><a xlink:href="TransmitterCode_2src_2main_8cpp.html#a6506bf72e0dd9e9ce480156b47625bff" target="_top" xlink:title=" ">
<polygon fill="white" stroke="#666666" points="259.5,-167 173.5,-167 173.5,-148 259.5,-148 259.5,-167"/>
<text text-anchor="middle" x="216.5" y="-155" font-family="Helvetica,sans-Serif" font-size="10.00">GetConfirmation</text>
</a>
</g>
</g>
<!-- Node10&#45;&gt;Node13 -->
<g id="edge13" class="edge">
<title>Node10&#45;&gt;Node13</title>
<path fill="none" stroke="#63b8ff" d="M322,-181.09C301.69,-176.5 279.01,-171.38 259.99,-167.09"/>
<polygon fill="#63b8ff" stroke="#63b8ff" points="320.99,-184.45 331.52,-183.23 322.53,-177.62 320.99,-184.45"/>
</g>
<!-- Node22 -->
<g id="node22" class="node">
<title>Node22</title>
<g id="a_node22"><a xlink:href="TransmitterCode_2src_2main_8cpp.html#a558ea014e230b7caa54ce5a37ad29b22" target="_top" xlink:title=" ">
<polygon fill="#fff0f0" stroke="red" points="267,-388 166,-388 166,-369 267,-369 267,-388"/>
<text text-anchor="middle" x="216.5" y="-376" font-family="Helvetica,sans-Serif" font-size="10.00">ManageTransmitter</text>
</a>
</g>
</g>
<!-- Node10&#45;&gt;Node22 -->
<g id="edge24" class="edge">
<title>Node10&#45;&gt;Node22</title>
<path fill="none" stroke="#63b8ff" d="M360.91,-212.17C327.52,-250.89 251.7,-338.83 226.12,-368.5"/>
<polygon fill="#63b8ff" stroke="#63b8ff" points="363.56,-214.45 367.44,-204.59 358.26,-209.88 363.56,-214.45"/>
</g>
<!-- Node11&#45;&gt;Node9 -->
<g id="edge11" class="edge">
<title>Node11&#45;&gt;Node9</title>
<path fill="none" stroke="#63b8ff" d="M280.44,-228.2C327.58,-225.22 393.55,-219.98 451,-211.5 465.26,-209.4 480.71,-206.38 494.5,-203.41"/>
<polygon fill="#63b8ff" stroke="#63b8ff" points="280.46,-224.69 270.69,-228.79 280.89,-231.68 280.46,-224.69"/>
</g>
<!-- Node12 -->
<g id="node12" class="node">
<title>Node12</title>
<g id="a_node12"><a xlink:href="TransmitterCode_2src_2main_8cpp.html#a9d94366336f1e5fd43edb9c24bec5821" target="_top" xlink:title=" ">
<polygon fill="white" stroke="#666666" points="98,-278 30,-278 30,-259 98,-259 98,-278"/>
<text text-anchor="middle" x="64" y="-266" font-family="Helvetica,sans-Serif" font-size="10.00">RenameFile</text>
</a>
</g>
</g>
<!-- Node11&#45;&gt;Node12 -->
<g id="edge12" class="edge">
<title>Node11&#45;&gt;Node12</title>
<path fill="none" stroke="#63b8ff" d="M164.11,-244.13C142.36,-249.48 117.64,-255.56 98.32,-260.31"/>
<polygon fill="#63b8ff" stroke="#63b8ff" points="164.82,-247.56 173.7,-241.78 163.15,-240.77 164.82,-247.56"/>
</g>
<!-- Node13&#45;&gt;Node9 -->
<g id="edge14" class="edge">
<title>Node13&#45;&gt;Node9</title>
<path fill="none" stroke="#63b8ff" d="M271.13,-159.18C318.61,-161.2 389.7,-165.51 451,-174.5 466.35,-176.75 483.04,-180.23 497.56,-183.59"/>
<polygon fill="#63b8ff" stroke="#63b8ff" points="271.53,-155.69 261.4,-158.79 271.25,-162.69 271.53,-155.69"/>
</g>
<!-- Node13&#45;&gt;Node12 -->
<g id="edge20" class="edge">
<title>Node13&#45;&gt;Node12</title>
<path fill="none" stroke="#63b8ff" d="M198.85,-175.23C174.07,-201.59 130.15,-248.18 128,-249.5 119.05,-255.01 108.4,-259.01 98.42,-261.88"/>
<polygon fill="#63b8ff" stroke="#63b8ff" points="201.1,-177.95 205.4,-168.27 196,-173.16 201.1,-177.95"/>
</g>
<!-- Node14 -->
<g id="node14" class="node">
<title>Node14</title>
<g id="a_node14"><a xlink:href="TransmitterCode_2src_2main_8cpp.html#ac45477c637c975e13189e2988c8813b3" target="_top" xlink:title=" ">
<polygon fill="white" stroke="#666666" points="104,-130 24,-130 24,-111 104,-111 104,-130"/>
<text text-anchor="middle" x="64" y="-118" font-family="Helvetica,sans-Serif" font-size="10.00">DeleteModelID</text>
</a>
</g>
</g>
<!-- Node13&#45;&gt;Node14 -->
<g id="edge15" class="edge">
<title>Node13&#45;&gt;Node14</title>
<path fill="none" stroke="#63b8ff" d="M164,-144.84C144.5,-140.04 122.62,-134.67 104.4,-130.19"/>
<polygon fill="#63b8ff" stroke="#63b8ff" points="163.15,-148.23 173.7,-147.22 164.82,-141.44 163.15,-148.23"/>
</g>
<!-- Node15 -->
<g id="node15" class="node">
<title>Node15</title>
<g id="a_node15"><a xlink:href="TransmitterCode_2src_2main_8cpp.html#a53d438145d004c3b053f245f494f4284" target="_top" xlink:title=" ">
<polygon fill="white" stroke="#666666" points="90,-19 38,-19 38,0 90,0 90,-19"/>
<text text-anchor="middle" x="64" y="-7" font-family="Helvetica,sans-Serif" font-size="10.00">DelLOG</text>
</a>
</g>
</g>
<!-- Node13&#45;&gt;Node15 -->
<g id="edge16" class="edge">
<title>Node13&#45;&gt;Node15</title>
<path fill="none" stroke="#63b8ff" d="M207.27,-137.2C194.57,-108.45 167.46,-56.17 128,-27.5 117.05,-19.54 102.67,-15.09 90.41,-12.61"/>
<polygon fill="#63b8ff" stroke="#63b8ff" points="203.97,-138.4 211.1,-146.23 210.42,-135.66 203.97,-138.4"/>
</g>
<!-- Node16 -->
<g id="node16" class="node">
<title>Node16</title>
<g id="a_node16"><a xlink:href="TransmitterCode_2src_2main_8cpp.html#a16c65917a148c7f6c17babf11e977b69" target="_top" xlink:title=" ">
<polygon fill="white" stroke="#666666" points="105,-93 23,-93 23,-74 105,-74 105,-93"/>
<text text-anchor="middle" x="64" y="-81" font-family="Helvetica,sans-Serif" font-size="10.00">EndBuddyView</text>
</a>
</g>
</g>
<!-- Node13&#45;&gt;Node16 -->
<g id="edge17" class="edge">
<title>Node13&#45;&gt;Node16</title>
<path fill="none" stroke="#63b8ff" d="M193.72,-141.01C176.61,-128.7 151.78,-112.23 128,-101.5 120.85,-98.27 112.97,-95.48 105.28,-93.12"/>
<polygon fill="#63b8ff" stroke="#63b8ff" points="191.49,-143.71 201.62,-146.81 195.63,-138.07 191.49,-143.71"/>
</g>
<!-- Node17 -->
<g id="node17" class="node">
<title>Node17</title>
<g id="a_node17"><a xlink:href="TransmitterCode_2src_2main_8cpp.html#ae9f91b9da28f2e1e2fb126961f03c31c" target="_top" xlink:title=" ">
<polygon fill="white" stroke="#666666" points="104.5,-56 23.5,-56 23.5,-37 104.5,-37 104.5,-56"/>
<text text-anchor="middle" x="64" y="-44" font-family="Helvetica,sans-Serif" font-size="10.00">ModelViewEnd</text>
</a>
</g>
</g>
<!-- Node13&#45;&gt;Node17 -->
<g id="edge18" class="edge">
<title>Node13&#45;&gt;Node17</title>
<path fill="none" stroke="#63b8ff" d="M202.51,-138.47C187.13,-117.35 159.57,-83.73 128,-64.5 120.91,-60.18 112.74,-56.86 104.68,-54.32"/>
<polygon fill="#63b8ff" stroke="#63b8ff" points="199.55,-140.34 208.18,-146.48 205.26,-136.29 199.55,-140.34"/>
</g>
<!-- Node13&#45;&gt;Node18 -->
<g id="edge19" class="edge">
<title>Node13&#45;&gt;Node18</title>
<path fill="none" stroke="#63b8ff" d="M196.51,-175C186.08,-185.26 173.38,-198.86 164,-212.5 143.27,-242.63 155.84,-262.79 128,-286.5 123.13,-290.65 117.38,-293.89 111.36,-296.43"/>
<polygon fill="#63b8ff" stroke="#63b8ff" points="198.73,-177.73 203.53,-168.29 193.89,-172.67 198.73,-177.73"/>
</g>
<!-- Node19 -->
<g id="node19" class="node">
<title>Node19</title>
<g id="a_node19"><a xlink:href="TransmitterCode_2src_2main_8cpp.html#a5c7f22bae35d5d6df9d54fe79dbb8401" target="_top" xlink:title=" ">
<polygon fill="white" stroke="#666666" points="128,-241 0,-241 0,-222 128,-222 128,-241"/>
<text text-anchor="middle" x="64" y="-229" font-family="Helvetica,sans-Serif" font-size="10.00">ResetTransmitterSettings</text>
</a>
</g>
</g>
<!-- Node13&#45;&gt;Node19 -->
<g id="edge21" class="edge">
<title>Node13&#45;&gt;Node19</title>
<path fill="none" stroke="#63b8ff" d="M193.04,-173.99C175.9,-185.97 151.34,-201.88 128,-212.5 120.41,-215.95 112.02,-218.98 103.92,-221.55"/>
<polygon fill="#63b8ff" stroke="#63b8ff" points="194.86,-176.99 200.97,-168.34 190.79,-171.29 194.86,-176.99"/>
</g>
<!-- Node20 -->
<g id="node20" class="node">
<title>Node20</title>
<g id="a_node20"><a xlink:href="TransmitterCode_2src_2main_8cpp.html#a3838aa0b33bb22d3b9934da05d2716d8" target="_top" xlink:title=" ">
<polygon fill="white" stroke="#666666" points="102,-204 26,-204 26,-185 102,-185 102,-204"/>
<text text-anchor="middle" x="64" y="-192" font-family="Helvetica,sans-Serif" font-size="10.00">StoreModelID</text>
</a>
</g>
</g>
<!-- Node13&#45;&gt;Node20 -->
<g id="edge22" class="edge">
<title>Node13&#45;&gt;Node20</title>
<path fill="none" stroke="#63b8ff" d="M164.2,-170.11C143.91,-175.1 121.02,-180.73 102.34,-185.32"/>
<polygon fill="#63b8ff" stroke="#63b8ff" points="164.82,-173.56 173.7,-167.78 163.15,-166.77 164.82,-173.56"/>
</g>
<!-- Node21 -->
<g id="node21" class="node">
<title>Node21</title>
<g id="a_node21"><a xlink:href="TransmitterCode_2src_2main_8cpp.html#a3c55ef7c23759a89a86f6519569c4f7a" target="_top" xlink:title=" ">
<polygon fill="white" stroke="#666666" points="113.5,-167 14.5,-167 14.5,-148 113.5,-148 113.5,-167"/>
<text text-anchor="middle" x="64" y="-155" font-family="Helvetica,sans-Serif" font-size="10.00">TXModuleViewEnd</text>
</a>
</g>
</g>
<!-- Node13&#45;&gt;Node21 -->
<g id="edge23" class="edge">
<title>Node13&#45;&gt;Node21</title>
<path fill="none" stroke="#63b8ff" d="M162.05,-157.5C146.36,-157.5 129.3,-157.5 113.91,-157.5"/>
<polygon fill="#63b8ff" stroke="#63b8ff" points="161.66,-161 171.66,-157.5 161.66,-154 161.66,-161"/>
</g>
<!-- Node28&#45;&gt;Node24 -->
<g id="edge28" class="edge">
<title>Node28&#45;&gt;Node24</title>
<path fill="none" stroke="#63b8ff" d="M887.63,-185.26C871.06,-185.81 852.93,-186.41 836.81,-186.94"/>
<polygon fill="#63b8ff" stroke="#63b8ff" points="887.41,-188.77 897.29,-184.94 887.18,-181.77 887.41,-188.77"/>
</g>
<!-- Node30&#45;&gt;Node5 -->
<g id="edge31" class="edge">
<title>Node30&#45;&gt;Node5</title>
<path fill="none" stroke="#63b8ff" d="M896.84,-564.04C875.68,-566.69 850.51,-569.85 829.86,-572.44"/>
<polygon fill="#63b8ff" stroke="#63b8ff" points="897.14,-567.53 906.62,-562.81 896.27,-560.58 897.14,-567.53"/>
</g>
<!-- Node32 -->
<g id="node27" class="node">
<title>Node32</title>
<g id="a_node27"><a xlink:href="TransmitterCode_2src_2main_8cpp.html#aa98d7fb495cbdc40cb17343ffafbfe15" target="_top" xlink:title=" ">
<polygon fill="white" stroke="#666666" points="687.5,-345 632.5,-345 632.5,-326 687.5,-326 687.5,-345"/>
<text text-anchor="middle" x="660" y="-333" font-family="Helvetica,sans-Serif" font-size="10.00">GetBank</text>
</a>
</g>
</g>
<!-- Node31&#45;&gt;Node32 -->
<g id="edge33" class="edge">
<title>Node31&#45;&gt;Node32</title>
<path fill="none" stroke="#63b8ff" d="M747.82,-335.5C728.35,-335.5 705.41,-335.5 687.99,-335.5"/>
<polygon fill="#63b8ff" stroke="#63b8ff" points="747.6,-339 757.6,-335.5 747.6,-332 747.6,-339"/>
</g>
<!-- Node32&#45;&gt;Node22 -->
<g id="edge34" class="edge">
<title>Node32&#45;&gt;Node22</title>
<path fill="none" stroke="#63b8ff" d="M621.07,-339.19C541.36,-346.96 356.48,-364.96 267.33,-373.65"/>
<polygon fill="#63b8ff" stroke="#63b8ff" points="620.93,-342.72 630.54,-338.27 620.25,-335.76 620.93,-342.72"/>
</g>
<!-- Node33&#45;&gt;Node32 -->
<g id="edge36" class="edge">
<title>Node33&#45;&gt;Node32</title>
<path fill="none" stroke="#63b8ff" d="M742.8,-359.43C724.42,-354.05 703.74,-348 687.78,-343.33"/>
<polygon fill="#63b8ff" stroke="#63b8ff" points="741.57,-362.71 752.15,-362.16 743.53,-355.99 741.57,-362.71"/>
</g>
<!-- Node34&#45;&gt;Node24 -->
<g id="edge38" class="edge">
<title>Node34&#45;&gt;Node24</title>
<path fill="none" stroke="#63b8ff" d="M890.8,-123.33C887.44,-124.63 884.15,-126.02 881,-127.5 850.59,-141.8 818.75,-165.27 801.81,-178.54"/>
<polygon fill="#63b8ff" stroke="#63b8ff" points="891.96,-126.63 900.21,-119.98 889.62,-120.03 891.96,-126.63"/>
</g>
<!-- Node36 -->
<g id="node31" class="node">
<title>Node36</title>
<g id="a_node31"><a xlink:href="TransmitterCode_2src_2main_8cpp.html#a6ae37c6938b8c10b83d1bc74e8643bd9" target="_top" xlink:title=" ">
<polygon fill="white" stroke="#666666" points="434.5,-412 321.5,-412 321.5,-393 434.5,-393 434.5,-412"/>
<text text-anchor="middle" x="378" y="-400" font-family="Helvetica,sans-Serif" font-size="10.00">CheckPowerOffButton</text>
</a>
</g>
</g>
<!-- Node35&#45;&gt;Node36 -->
<g id="edge40" class="edge">
<title>Node35&#45;&gt;Node36</title>
<path fill="none" stroke="#63b8ff" d="M893.23,-409.82C789.66,-408.35 544.91,-404.86 434.61,-403.29"/>
<polygon fill="#63b8ff" stroke="#63b8ff" points="893,-413.32 903.05,-409.96 893.1,-406.32 893,-413.32"/>
</g>
<!-- Node36&#45;&gt;Node22 -->
<g id="edge41" class="edge">
<title>Node36&#45;&gt;Node22</title>
<path fill="none" stroke="#63b8ff" d="M309.94,-392.41C295.68,-390.26 280.88,-388.04 267.4,-386.01"/>
<polygon fill="#63b8ff" stroke="#63b8ff" points="309.31,-395.85 319.72,-393.88 310.35,-388.93 309.31,-395.85"/>
</g>
<!-- Node38 -->
<g id="node33" class="node">
<title>Node38</title>
<g id="a_node33"><a xlink:href="TransmitterCode_2src_2main_8cpp.html#a17699f358cf9f7c3155a9c5daf8ff13c" target="_top" xlink:title=" ">
<polygon fill="white" stroke="#666666" points="809,-475 768,-475 768,-456 809,-456 809,-475"/>
<text text-anchor="middle" x="788.5" y="-463" font-family="Helvetica,sans-Serif" font-size="10.00">setup</text>
</a>
</g>
</g>
<!-- Node37&#45;&gt;Node38 -->
<g id="edge43" class="edge">
<title>Node37&#45;&gt;Node38</title>
<path fill="none" stroke="#63b8ff" d="M893.38,-453.16C865.01,-456.53 830.5,-460.63 809.27,-463.15"/>
<polygon fill="#63b8ff" stroke="#63b8ff" points="893.69,-456.65 903.21,-451.99 892.87,-449.69 893.69,-456.65"/>
</g>
<!-- Node40 -->
<g id="node35" class="node">
<title>Node40</title>
<g id="a_node35"><a xlink:href="TransmitterCode_2src_2main_8cpp.html#ac015e93acba51fe284176b84c05e3450" target="_top" xlink:title=" ">
<polygon fill="white" stroke="#666666" points="833.5,-271 743.5,-271 743.5,-252 833.5,-252 833.5,-271"/>
<text text-anchor="middle" x="788.5" y="-259" font-family="Helvetica,sans-Serif" font-size="10.00">ShowSafetyIsOff</text>
</a>
</g>
</g>
<!-- Node39&#45;&gt;Node40 -->
<g id="edge45" class="edge">
<title>Node39&#45;&gt;Node40</title>
<path fill="none" stroke="#63b8ff" d="M899.99,-287.02C879.1,-282.2 853.73,-276.34 832.57,-271.45"/>
<polygon fill="#63b8ff" stroke="#63b8ff" points="899.06,-290.4 909.59,-289.24 900.64,-283.58 899.06,-290.4"/>
</g>
<!-- Node41 -->
<g id="node36" class="node">
<title>Node41</title>
<g id="a_node36"><a xlink:href="TransmitterCode_2src_2main_8cpp.html#a624dab5b77d191ddae33fbe2ac2da4ae" target="_top" xlink:title=" ">
<polygon fill="white" stroke="#666666" points="833.5,-308 743.5,-308 743.5,-289 833.5,-289 833.5,-308"/>
<text text-anchor="middle" x="788.5" y="-296" font-family="Helvetica,sans-Serif" font-size="10.00">ShowSafetyIsOn</text>
</a>
</g>
</g>
<!-- Node39&#45;&gt;Node41 -->
<g id="edge47" class="edge">
<title>Node39&#45;&gt;Node41</title>
<path fill="none" stroke="#63b8ff" d="M899.59,-297.05C879.17,-297.32 854.52,-297.64 833.73,-297.92"/>
<polygon fill="#63b8ff" stroke="#63b8ff" points="899.6,-300.55 909.56,-296.92 899.51,-293.55 899.6,-300.55"/>
</g>
<!-- Node40&#45;&gt;Node32 -->
<g id="edge46" class="edge">
<title>Node40&#45;&gt;Node32</title>
<path fill="none" stroke="#63b8ff" d="M739.93,-275.66C737.2,-276.86 734.54,-278.14 732,-279.5 707.91,-292.37 683.77,-313.62 670.77,-325.91"/>
<polygon fill="#63b8ff" stroke="#63b8ff" points="741.2,-278.92 749.21,-271.98 738.62,-272.42 741.2,-278.92"/>
</g>
<!-- Node41&#45;&gt;Node32 -->
<g id="edge48" class="edge">
<title>Node41&#45;&gt;Node32</title>
<path fill="none" stroke="#63b8ff" d="M742.8,-311.57C724.42,-316.95 703.74,-323 687.78,-327.67"/>
<polygon fill="#63b8ff" stroke="#63b8ff" points="743.53,-315.01 752.15,-308.84 741.57,-308.29 743.53,-315.01"/>
</g>
<!-- Node43 -->
<g id="node38" class="node">
<title>Node43</title>
<g id="a_node38"><a xlink:href="TransmitterCode_2src_2main_8cpp.html#a953f1d5046e183549ed95b08f6d675e3" target="_top" xlink:title=" ">
<polygon fill="#fff0f0" stroke="red" points="837.5,-681 739.5,-681 739.5,-662 837.5,-662 837.5,-681"/>
<text text-anchor="middle" x="788.5" y="-669" font-family="Helvetica,sans-Serif" font-size="10.00">CheckGapsLength</text>
</a>
</g>
</g>
<!-- Node42&#45;&gt;Node43 -->
<g id="edge50" class="edge">
<title>Node42&#45;&gt;Node43</title>
<path fill="none" stroke="#63b8ff" d="M895.16,-671.5C877.03,-671.5 856.18,-671.5 837.81,-671.5"/>
<polygon fill="#63b8ff" stroke="#63b8ff" points="895.11,-675 905.11,-671.5 895.11,-668 895.11,-675"/>
</g>
<!-- Node44&#45;&gt;Node38 -->
<g id="edge54" class="edge">
<title>Node44&#45;&gt;Node38</title>
<path fill="none" stroke="#63b8ff" d="M896.92,-507.97C891.53,-506.19 886.13,-504.35 881,-502.5 856.01,-493.51 827.74,-481.84 809.32,-474.03"/>
<polygon fill="#63b8ff" stroke="#63b8ff" points="895.8,-511.29 906.4,-511.04 897.96,-504.63 895.8,-511.29"/>
</g>
<!-- Node45 -->
<g id="node40" class="node">
<title>Node45</title>
<g id="a_node40"><a xlink:href="TransmitterCode_2src_2main_8cpp.html#a5c0f1fd26cdd6ecde365f521060158ba" target="_top" xlink:title=" ">
<polygon fill="#fff0f0" stroke="red" points="586,-503 489,-503 489,-484 586,-484 586,-503"/>
<text text-anchor="middle" x="537.5" y="-491" font-family="Helvetica,sans-Serif" font-size="10.00">CheckModelName</text>
</a>
</g>
</g>
<!-- Node44&#45;&gt;Node45 -->
<g id="edge52" class="edge">
<title>Node44&#45;&gt;Node45</title>
<path fill="none" stroke="#63b8ff" d="M891.35,-518.05C813.37,-512.62 663.18,-502.17 586.33,-496.83"/>
<polygon fill="#63b8ff" stroke="#63b8ff" points="891.04,-521.53 901.26,-518.74 891.53,-514.55 891.04,-521.53"/>
</g>
<!-- Node45&#45;&gt;Node22 -->
<g id="edge53" class="edge">
<title>Node45&#45;&gt;Node22</title>
<path fill="none" stroke="#63b8ff" d="M488.61,-480.55C441.31,-467.27 367.22,-445.1 305,-420.5 280.71,-410.9 253.76,-397.53 236.27,-388.47"/>
<polygon fill="#63b8ff" stroke="#63b8ff" points="487.42,-483.86 497.99,-483.17 489.3,-477.11 487.42,-483.86"/>
</g>
<!-- Node48 -->
<g id="node42" class="node">
<title>Node48</title>
<g id="a_node42"><a xlink:href="TransmitterCode_2src_2main_8cpp.html#a4f813935d8fe58355228cbbf25e12f96" target="_top" xlink:title=" ">
<polygon fill="#fff0f0" stroke="red" points="845,-644 732,-644 732,-625 845,-625 845,-644"/>
<text text-anchor="middle" x="788.5" y="-632" font-family="Helvetica,sans-Serif" font-size="10.00">GetRXVersionNumber</text>
</a>
</g>
</g>
<!-- Node47&#45;&gt;Node48 -->
<g id="edge56" class="edge">
<title>Node47&#45;&gt;Node48</title>
<path fill="none" stroke="#63b8ff" d="M897.86,-634.5C881.54,-634.5 862.73,-634.5 845.4,-634.5"/>
<polygon fill="#63b8ff" stroke="#63b8ff" points="897.73,-638 907.73,-634.5 897.73,-631 897.73,-638"/>
</g>
<!-- Node50&#45;&gt;Node24 -->
<g id="edge58" class="edge">
<title>Node50&#45;&gt;Node24</title>
<path fill="none" stroke="#63b8ff" d="M903.98,-245.32C896.32,-242.22 888.36,-238.85 881,-235.5 855,-223.65 825.76,-208.26 807.48,-198.37"/>
<polygon fill="#63b8ff" stroke="#63b8ff" points="902.5,-248.5 913.08,-248.95 905.09,-242 902.5,-248.5"/>
</g>
<!-- Node51&#45;&gt;Node24 -->
<g id="edge60" class="edge">
<title>Node51&#45;&gt;Node24</title>
<path fill="none" stroke="#63b8ff" d="M894.24,-159.46C872.07,-165.61 845.99,-172.84 825.41,-178.55"/>
<polygon fill="#63b8ff" stroke="#63b8ff" points="894.94,-162.9 903.64,-156.86 893.07,-156.16 894.94,-162.9"/>
</g>
<!-- Node52&#45;&gt;Node15 -->
<g id="edge62" class="edge">
<title>Node52&#45;&gt;Node15</title>
<path fill="none" stroke="#63b8ff" d="M1119.43,-30.66C1073.23,-28.36 1003.61,-25.5 943,-25.5 943,-25.5 943,-25.5 377,-25.5 270.42,-25.5 143.64,-16.07 90.46,-11.69"/>
<polygon fill="#63b8ff" stroke="#63b8ff" points="1118.98,-34.14 1129.14,-31.15 1119.33,-27.15 1118.98,-34.14"/>
</g>
<!-- Node53&#45;&gt;Node9 -->
<g id="edge64" class="edge">
<title>Node53&#45;&gt;Node9</title>
<path fill="none" stroke="#63b8ff" d="M1276.02,-112.66C1259.09,-104.89 1237.3,-95.89 1217,-90.5 1151.63,-73.14 1133.64,-71.5 1066,-71.5 1066,-71.5 1066,-71.5 787.5,-71.5 685.93,-71.5 582.64,-154.38 549.46,-183.52"/>
<polygon fill="#63b8ff" stroke="#63b8ff" points="1274.48,-115.8 1285.02,-116.9 1277.46,-109.47 1274.48,-115.8"/>
</g>
<!-- Node53&#45;&gt;Node52 -->
<g id="edge65" class="edge">
<title>Node53&#45;&gt;Node52</title>
<path fill="none" stroke="#63b8ff" d="M1285.25,-110.52C1263.45,-92.81 1230.51,-66.41 1217,-57.5 1209.3,-52.42 1200.43,-47.44 1192.68,-43.33"/>
<polygon fill="#63b8ff" stroke="#63b8ff" points="1282.95,-113.17 1292.92,-116.77 1287.38,-107.74 1282.95,-113.17"/>
</g>
<!-- Node54 -->
<g id="node47" class="node">
<title>Node54</title>
<g id="a_node47"><a xlink:href="TransmitterCode_2src_2main_8cpp.html#a01be76cc3bf8a963f987ae47916dc8d3" target="_top" xlink:title=" ">
<polygon fill="white" stroke="#666666" points="1201,-230 1143,-230 1143,-211 1201,-211 1201,-230"/>
<text text-anchor="middle" x="1172" y="-218" font-family="Helvetica,sans-Serif" font-size="10.00">DownLog</text>
</a>
</g>
</g>
<!-- Node53&#45;&gt;Node54 -->
<g id="edge66" class="edge">
<title>Node53&#45;&gt;Node54</title>
<path fill="none" stroke="#63b8ff" d="M1288.04,-145.1C1270.86,-161.26 1243.69,-185.12 1217,-201.5 1211.47,-204.9 1205.22,-207.99 1199.21,-210.64"/>
<polygon fill="#63b8ff" stroke="#63b8ff" points="1290.16,-147.91 1294.97,-138.47 1285.32,-142.86 1290.16,-147.91"/>
</g>
<!-- Node55 -->
<g id="node48" class="node">
<title>Node55</title>
<g id="a_node48"><a xlink:href="TransmitterCode_2src_2main_8cpp.html#a6e27b8b3c5b752c6a208a768de54c277" target="_top" xlink:title=" ">
<polygon fill="white" stroke="#666666" points="1201,-193 1143,-193 1143,-174 1201,-174 1201,-193"/>
<text text-anchor="middle" x="1172" y="-181" font-family="Helvetica,sans-Serif" font-size="10.00">LogVIEW</text>
</a>
</g>
</g>
<!-- Node53&#45;&gt;Node55 -->
<g id="edge67" class="edge">
<title>Node53&#45;&gt;Node55</title>
<path fill="none" stroke="#63b8ff" d="M1271.94,-141.84C1248.38,-151.76 1217.61,-164.72 1196.68,-173.53"/>
<polygon fill="#63b8ff" stroke="#63b8ff" points="1273.28,-145.08 1281.13,-137.97 1270.56,-138.63 1273.28,-145.08"/>
</g>
<!-- Node56 -->
<g id="node49" class="node">
<title>Node56</title>
<g id="a_node49"><a xlink:href="TransmitterCode_2src_2main_8cpp.html#a816b0ec602ed068bb08647d951681993" target="_top" xlink:title=" ">
<polygon fill="white" stroke="#666666" points="1205.5,-156 1138.5,-156 1138.5,-137 1205.5,-137 1205.5,-156"/>
<text text-anchor="middle" x="1172" y="-144" font-family="Helvetica,sans-Serif" font-size="10.00">RefreshLog</text>
</a>
</g>
</g>
<!-- Node53&#45;&gt;Node56 -->
<g id="edge68" class="edge">
<title>Node53&#45;&gt;Node56</title>
<path fill="none" stroke="#63b8ff" d="M1258.49,-134.29C1240.98,-136.79 1221.56,-139.56 1205.66,-141.83"/>
<polygon fill="#63b8ff" stroke="#63b8ff" points="1258.75,-137.79 1268.16,-132.91 1257.76,-130.86 1258.75,-137.79"/>
</g>
<!-- Node57 -->
<g id="node50" class="node">
<title>Node57</title>
<g id="a_node50"><a xlink:href="TransmitterCode_2src_2main_8cpp.html#a2206c19b4fc075f4c9f1bb957ca89e1d" target="_top" xlink:title=" ">
<polygon fill="white" stroke="#666666" points="1195,-119 1149,-119 1149,-100 1195,-100 1195,-119"/>
<text text-anchor="middle" x="1172" y="-107" font-family="Helvetica,sans-Serif" font-size="10.00">UpLog</text>
</a>
</g>
</g>
<!-- Node53&#45;&gt;Node57 -->
<g id="edge69" class="edge">
<title>Node53&#45;&gt;Node57</title>
<path fill="none" stroke="#63b8ff" d="M1258.36,-121.05C1236.79,-118.13 1212.32,-114.82 1195.13,-112.5"/>
<polygon fill="#63b8ff" stroke="#63b8ff" points="1257.78,-124.51 1268.16,-122.38 1258.72,-117.57 1257.78,-124.51"/>
</g>
</g>
</svg>
