<?xml version="1.0" encoding="UTF-8" standalone="no"?>
<!DOCTYPE svg PUBLIC "-//W3C//DTD SVG 1.1//EN"
 "http://www.w3.org/Graphics/SVG/1.1/DTD/svg11.dtd">
<!-- Generated by graphviz version 7.0.5 (20221223.1930)
 -->
<!-- Title: UpdateLED Pages: 1 -->
<svg width="1352pt" height="1155pt"
 viewBox="0.00 0.00 1352.00 1155.00" xmlns="http://www.w3.org/2000/svg" xmlns:xlink="http://www.w3.org/1999/xlink">
<g id="graph0" class="graph" transform="scale(1 1) rotate(0) translate(4 1151)">
<title>UpdateLED</title>
<!-- Node1 -->
<g id="node1" class="node">
<title>Node1</title>
<g id="a_node1"><a xlink:title=" ">
<polygon fill="#999999" stroke="#666666" points="67,-1109 0,-1109 0,-1090 67,-1090 67,-1109"/>
<text text-anchor="middle" x="33.5" y="-1097" font-family="Helvetica,sans-Serif" font-size="10.00">UpdateLED</text>
</a>
</g>
</g>
<!-- Node2 -->
<g id="node2" class="node">
<title>Node2</title>
<g id="a_node2"><a xlink:href="TransmitterCode_2src_2main_8cpp.html#a01c7a0b0de94ec72fe070ea9f90dc2ec" target="_top" xlink:title=" ">
<polygon fill="white" stroke="#666666" points="175,-1128 103,-1128 103,-1109 175,-1109 175,-1128"/>
<text text-anchor="middle" x="139" y="-1116" font-family="Helvetica,sans-Serif" font-size="10.00">CheckRange</text>
</a>
</g>
</g>
<!-- Node1&#45;&gt;Node2 -->
<g id="edge1" class="edge">
<title>Node1&#45;&gt;Node2</title>
<path fill="none" stroke="#63b8ff" d="M67.25,-1105.51C74.9,-1106.92 83.19,-1108.44 91.31,-1109.93"/>
<polygon fill="#63b8ff" stroke="#63b8ff" points="90.64,-1113.36 101.11,-1111.73 91.91,-1106.48 90.64,-1113.36"/>
</g>
<!-- Node3 -->
<g id="node3" class="node">
<title>Node3</title>
<g id="a_node3"><a xlink:href="Nextion_8h.html#a6e4fac4e296c09388b8b56353402d67a" target="_top" xlink:title=" ">
<polygon fill="white" stroke="#666666" points="167.5,-1091 110.5,-1091 110.5,-1072 167.5,-1072 167.5,-1091"/>
<text text-anchor="middle" x="139" y="-1079" font-family="Helvetica,sans-Serif" font-size="10.00">GetValue</text>
</a>
</g>
</g>
<!-- Node1&#45;&gt;Node3 -->
<g id="edge2" class="edge">
<title>Node1&#45;&gt;Node3</title>
<path fill="none" stroke="#63b8ff" d="M67.25,-1093.8C77.43,-1092.03 88.74,-1090.07 99.28,-1088.23"/>
<polygon fill="#63b8ff" stroke="#63b8ff" points="99.59,-1091.73 108.84,-1086.57 98.39,-1084.84 99.59,-1091.73"/>
</g>
<!-- Node4 -->
<g id="node4" class="node">
<title>Node4</title>
<g id="a_node4"><a xlink:href="Utilities_8h.html#a3b1d8aa403e2724e55c71da3d9d13e7e" target="_top" xlink:title=" ">
<polygon fill="white" stroke="#666666" points="472,-1109 395,-1109 395,-1090 472,-1090 472,-1109"/>
<text text-anchor="middle" x="433.5" y="-1097" font-family="Helvetica,sans-Serif" font-size="10.00">DelayWithDog</text>
</a>
</g>
</g>
<!-- Node3&#45;&gt;Node4 -->
<g id="edge3" class="edge">
<title>Node3&#45;&gt;Node4</title>
<path fill="none" stroke="#63b8ff" d="M167.78,-1079.38C209.49,-1076.67 290.68,-1073.26 359,-1081.5 368.56,-1082.65 378.68,-1084.62 388.24,-1086.85"/>
<polygon fill="#63b8ff" stroke="#63b8ff" points="387.13,-1090.18 397.68,-1089.18 388.81,-1083.38 387.13,-1090.18"/>
</g>
<!-- Node222 -->
<g id="node48" class="node">
<title>Node222</title>
<g id="a_node48"><a xlink:href="Nextion_8h.html#aff6fa8906188d3249b01bf59de47df2f" target="_top" xlink:title=" ">
<polygon fill="white" stroke="#666666" points="264,-1110 211,-1110 211,-1091 264,-1091 264,-1110"/>
<text text-anchor="middle" x="237.5" y="-1098" font-family="Helvetica,sans-Serif" font-size="10.00">getvalue</text>
</a>
</g>
</g>
<!-- Node3&#45;&gt;Node222 -->
<g id="edge67" class="edge">
<title>Node3&#45;&gt;Node222</title>
<path fill="none" stroke="#63b8ff" d="M167.91,-1087C177.8,-1088.94 189.09,-1091.17 199.62,-1093.24"/>
<polygon fill="#63b8ff" stroke="#63b8ff" points="198.66,-1096.62 209.15,-1095.11 200.01,-1089.75 198.66,-1096.62"/>
</g>
<!-- Node5 -->
<g id="node5" class="node">
<title>Node5</title>
<g id="a_node5"><a xlink:href="Utilities_8h.html#ada95a00a341e4a80176eda743a94ab2e" target="_top" xlink:title=" ">
<polygon fill="white" stroke="#666666" points="578,-1147 508,-1147 508,-1128 578,-1128 578,-1147"/>
<text text-anchor="middle" x="543" y="-1135" font-family="Helvetica,sans-Serif" font-size="10.00">KickTheDog</text>
</a>
</g>
</g>
<!-- Node4&#45;&gt;Node5 -->
<g id="edge4" class="edge">
<title>Node4&#45;&gt;Node5</title>
<path fill="none" stroke="#63b8ff" d="M462.74,-1109.48C475.09,-1113.85 489.77,-1119.04 503.12,-1123.76"/>
<polygon fill="#63b8ff" stroke="#63b8ff" points="501.92,-1127.05 512.52,-1127.08 504.26,-1120.45 501.92,-1127.05"/>
</g>
<!-- Node6 -->
<g id="node6" class="node">
<title>Node6</title>
<g id="a_node6"><a xlink:href="transceiver_8h.html#a049bfb836e7aa4a3a48a1a4bd225fafc" target="_top" xlink:title=" ">
<polygon fill="white" stroke="#666666" points="572.5,-302 513.5,-302 513.5,-283 572.5,-283 572.5,-302"/>
<text text-anchor="middle" x="543" y="-290" font-family="Helvetica,sans-Serif" font-size="10.00">SendData</text>
</a>
</g>
</g>
<!-- Node4&#45;&gt;Node6 -->
<g id="edge5" class="edge">
<title>Node4&#45;&gt;Node6</title>
<path fill="none" stroke="#63b8ff" d="M435.82,-1089.59C446.83,-1006.94 523.37,-432.36 539.16,-313.85"/>
<polygon fill="#63b8ff" stroke="#63b8ff" points="542.62,-314.37 540.47,-304 535.68,-313.45 542.62,-314.37"/>
</g>
<!-- Node7 -->
<g id="node7" class="node">
<title>Node7</title>
<g id="a_node7"><a xlink:href="transceiver_8h.html#a1ddd5e8d5bd649dd98ce3710fbff651b" target="_top" xlink:title=" ">
<polygon fill="white" stroke="#666666" points="716.5,-451 655.5,-451 655.5,-432 716.5,-432 716.5,-451"/>
<text text-anchor="middle" x="686" y="-439" font-family="Helvetica,sans-Serif" font-size="10.00">Compress</text>
</a>
</g>
</g>
<!-- Node6&#45;&gt;Node7 -->
<g id="edge6" class="edge">
<title>Node6&#45;&gt;Node7</title>
<path fill="none" stroke="#63b8ff" d="M546.41,-302.4C552.89,-326.77 572.99,-390.06 614,-422.5 622.69,-429.37 633.65,-433.77 644.35,-436.58"/>
<polygon fill="#63b8ff" stroke="#63b8ff" points="643.3,-439.93 653.81,-438.65 644.79,-433.09 643.3,-439.93"/>
</g>
<!-- Node8 -->
<g id="node8" class="node">
<title>Node8</title>
<g id="a_node8"><a xlink:href="transceiver_8h.html#a4144c213e5448a7e02d4172881f08219" target="_top" xlink:title=" ">
<polygon fill="white" stroke="#666666" points="758,-414 614,-414 614,-395 758,-395 758,-414"/>
<text text-anchor="middle" x="686" y="-402" font-family="Helvetica,sans-Serif" font-size="10.00">EncodeTheChangedChannels</text>
</a>
</g>
</g>
<!-- Node6&#45;&gt;Node8 -->
<g id="edge7" class="edge">
<title>Node6&#45;&gt;Node8</title>
<path fill="none" stroke="#63b8ff" d="M548.61,-302.36C558.06,-321.47 581.5,-363.57 614,-385.5 616.41,-387.12 618.95,-388.61 621.58,-389.97"/>
<polygon fill="#63b8ff" stroke="#63b8ff" points="620.13,-393.15 630.69,-393.99 622.96,-386.75 620.13,-393.15"/>
</g>
<!-- Node9 -->
<g id="node9" class="node">
<title>Node9</title>
<g id="a_node9"><a xlink:href="transceiver_8h.html#a5fbd3c8613a4163425c94965704ce5f8" target="_top" xlink:title=" ">
<polygon fill="white" stroke="#666666" points="723,-377 649,-377 649,-358 723,-358 723,-377"/>
<text text-anchor="middle" x="686" y="-365" font-family="Helvetica,sans-Serif" font-size="10.00">FailedPacket</text>
</a>
</g>
</g>
<!-- Node6&#45;&gt;Node9 -->
<g id="edge8" class="edge">
<title>Node6&#45;&gt;Node9</title>
<path fill="none" stroke="#63b8ff" d="M562.72,-302.46C586.77,-315.25 628.73,-337.57 656.68,-352.44"/>
<polygon fill="#63b8ff" stroke="#63b8ff" points="654.84,-355.42 665.31,-357.03 658.13,-349.24 654.84,-355.42"/>
</g>
<!-- Node49 -->
<g id="node21" class="node">
<title>Node49</title>
<g id="a_node21"><a xlink:href="common_8h.html#a6e2d4126d864c50e7c23c988c2bfdd1a" target="_top" xlink:title=" ">
<polygon fill="white" stroke="#666666" points="1193.5,-245 1146.5,-245 1146.5,-226 1193.5,-226 1193.5,-245"/>
<text text-anchor="middle" x="1170" y="-233" font-family="Helvetica,sans-Serif" font-size="10.00">Radio1</text>
</a>
</g>
</g>
<!-- Node6&#45;&gt;Node49 -->
<g id="edge27" class="edge">
<title>Node6&#45;&gt;Node49</title>
<path fill="none" stroke="#63b8ff" d="M572.84,-291.66C653.28,-289.05 886.83,-279.62 1079,-253.5 1097.73,-250.95 1118.43,-246.9 1135.25,-243.29"/>
<polygon fill="#63b8ff" stroke="#63b8ff" points="1135.71,-246.77 1144.72,-241.2 1134.2,-239.93 1135.71,-246.77"/>
</g>
<!-- Node52 -->
<g id="node23" class="node">
<title>Node52</title>
<g id="a_node23"><a xlink:href="transceiver_8h.html#a07c27b4e208198453c70876517926052" target="_top" xlink:title=" ">
<polygon fill="white" stroke="#666666" points="717,-245 655,-245 655,-226 717,-226 717,-245"/>
<text text-anchor="middle" x="686" y="-233" font-family="Helvetica,sans-Serif" font-size="10.00">FlushFifos</text>
</a>
</g>
</g>
<!-- Node6&#45;&gt;Node52 -->
<g id="edge25" class="edge">
<title>Node6&#45;&gt;Node52</title>
<path fill="none" stroke="#63b8ff" d="M563.35,-282.65C577.26,-275.74 596.55,-266.53 614,-259.5 623.56,-255.65 634,-251.88 643.86,-248.52"/>
<polygon fill="#63b8ff" stroke="#63b8ff" points="644.85,-251.87 653.23,-245.39 642.64,-245.23 644.85,-251.87"/>
</g>
<!-- Node53 -->
<g id="node24" class="node">
<title>Node53</title>
<g id="a_node24"><a xlink:href="transceiver_8h.html#a65249d0ac8676541d13ced58b1ce7624" target="_top" xlink:title=" ">
<polygon fill="white" stroke="#666666" points="745.5,-208 626.5,-208 626.5,-189 745.5,-189 745.5,-208"/>
<text text-anchor="middle" x="686" y="-196" font-family="Helvetica,sans-Serif" font-size="10.00">SendExtraParamemters</text>
</a>
</g>
</g>
<!-- Node6&#45;&gt;Node53 -->
<g id="edge28" class="edge">
<title>Node6&#45;&gt;Node53</title>
<path fill="none" stroke="#63b8ff" d="M550.23,-282.66C561.12,-266.31 585.18,-233.67 614,-216.5 616.3,-215.13 618.71,-213.86 621.19,-212.69"/>
<polygon fill="#63b8ff" stroke="#63b8ff" points="622.35,-215.99 630.28,-208.96 619.7,-209.51 622.35,-215.99"/>
</g>
<!-- Node57 -->
<g id="node28" class="node">
<title>Node57</title>
<g id="a_node28"><a xlink:href="BuddyWireless_8h.html#a41c327908c92572d0d3eebbb19160d86" target="_top" xlink:title=" ">
<polygon fill="white" stroke="#666666" points="906,-75 804,-75 804,-56 906,-56 906,-75"/>
<text text-anchor="middle" x="855" y="-63" font-family="Helvetica,sans-Serif" font-size="10.00">SendSpecialPacket</text>
</a>
</g>
</g>
<!-- Node6&#45;&gt;Node57 -->
<g id="edge33" class="edge">
<title>Node6&#45;&gt;Node57</title>
<path fill="none" stroke="#63b8ff" d="M545.73,-282.83C550.97,-256.34 569.15,-182.02 614,-142.5 664.01,-98.43 739.48,-79.55 792.4,-71.48"/>
<polygon fill="#63b8ff" stroke="#63b8ff" points="792.76,-74.96 802.17,-70.08 791.77,-68.03 792.76,-74.96"/>
</g>
<!-- Node61 -->
<g id="node32" class="node">
<title>Node61</title>
<g id="a_node32"><a xlink:href="BuddyPPM_8h.html#a784a1eca0361b3991bca899167cc1cdb" target="_top" xlink:title=" ">
<polygon fill="white" stroke="#666666" points="723.5,-171 648.5,-171 648.5,-152 723.5,-152 723.5,-171"/>
<text text-anchor="middle" x="686" y="-159" font-family="Helvetica,sans-Serif" font-size="10.00">SendViaPPM</text>
</a>
</g>
</g>
<!-- Node6&#45;&gt;Node61 -->
<g id="edge41" class="edge">
<title>Node6&#45;&gt;Node61</title>
<path fill="none" stroke="#63b8ff" d="M547.24,-282.56C554.99,-260.4 576.77,-206.78 614,-179.5 620.77,-174.54 628.77,-170.94 636.91,-168.33"/>
<polygon fill="#63b8ff" stroke="#63b8ff" points="637.79,-171.72 646.54,-165.74 635.98,-164.96 637.79,-171.72"/>
</g>
<!-- Node62 -->
<g id="node33" class="node">
<title>Node62</title>
<g id="a_node33"><a xlink:href="transceiver_8h.html#a1c11bb6771548de7d96723045b922620" target="_top" xlink:title=" ">
<polygon fill="white" stroke="#666666" points="734,-566 638,-566 638,-547 734,-547 734,-566"/>
<text text-anchor="middle" x="686" y="-554" font-family="Helvetica,sans-Serif" font-size="10.00">SuccessfulPacket</text>
</a>
</g>
</g>
<!-- Node6&#45;&gt;Node62 -->
<g id="edge42" class="edge">
<title>Node6&#45;&gt;Node62</title>
<path fill="none" stroke="#63b8ff" d="M547.19,-302.29C555.98,-328.62 581.98,-402.85 614,-459.5 630.35,-488.43 653.83,-518.9 669.25,-537.8"/>
<polygon fill="#63b8ff" stroke="#63b8ff" points="666.46,-539.92 675.53,-545.4 671.85,-535.46 666.46,-539.92"/>
</g>
<!-- Node10 -->
<g id="node10" class="node">
<title>Node10</title>
<g id="a_node10"><a xlink:href="transceiver_8h.html#afc091b5942e21a03f6dc8635d5e519ba" target="_top" xlink:title=" ">
<polygon fill="white" stroke="#666666" points="916,-529 794,-529 794,-510 916,-510 916,-529"/>
<text text-anchor="middle" x="855" y="-517" font-family="Helvetica,sans-Serif" font-size="10.00">RecordsPacketSuccess</text>
</a>
</g>
</g>
<!-- Node9&#45;&gt;Node10 -->
<g id="edge9" class="edge">
<title>Node9&#45;&gt;Node10</title>
<path fill="none" stroke="#63b8ff" d="M723.31,-369.6C735.65,-372.01 748.67,-376.67 758,-385.5 796.9,-422.31 756.19,-462.57 794,-500.5 795.04,-501.54 796.14,-502.53 797.29,-503.47"/>
<polygon fill="#63b8ff" stroke="#63b8ff" points="795.29,-506.34 805.6,-508.79 799.07,-500.45 795.29,-506.34"/>
</g>
<!-- Node11 -->
<g id="node11" class="node">
<title>Node11</title>
<g id="a_node11"><a xlink:href="TransmitterCode_2src_2main_8cpp.html#a7d34cec6e8edc20c8b50424e15dcc7c7" target="_top" xlink:title=" ">
<polygon fill="white" stroke="#666666" points="886.5,-415 823.5,-415 823.5,-396 886.5,-396 886.5,-415"/>
<text text-anchor="middle" x="855" y="-403" font-family="Helvetica,sans-Serif" font-size="10.00">RedLedOn</text>
</a>
</g>
</g>
<!-- Node9&#45;&gt;Node11 -->
<g id="edge10" class="edge">
<title>Node9&#45;&gt;Node11</title>
<path fill="none" stroke="#63b8ff" d="M723.24,-375.75C749.34,-381.69 784.64,-389.72 811.98,-395.94"/>
<polygon fill="#63b8ff" stroke="#63b8ff" points="811.16,-399.34 821.68,-398.15 812.71,-392.51 811.16,-399.34"/>
</g>
<!-- Node45 -->
<g id="node19" class="node">
<title>Node45</title>
<g id="a_node19"><a xlink:href="transceiver_8h.html#ad0236abcfc887ad708d9504c4ab2a7c3" target="_top" xlink:title=" ">
<polygon fill="white" stroke="#666666" points="899,-492 811,-492 811,-473 899,-473 899,-492"/>
<text text-anchor="middle" x="855" y="-480" font-family="Helvetica,sans-Serif" font-size="10.00">TryToReconnect</text>
</a>
</g>
</g>
<!-- Node9&#45;&gt;Node45 -->
<g id="edge21" class="edge">
<title>Node9&#45;&gt;Node45</title>
<path fill="none" stroke="#63b8ff" d="M723.19,-372.57C734.85,-375.25 747.47,-379.32 758,-385.5 778.07,-397.27 777.7,-406.9 794,-423.5 807.83,-437.59 823.79,-453.26 835.77,-464.9"/>
<polygon fill="#63b8ff" stroke="#63b8ff" points="833,-467.09 842.61,-471.53 837.87,-462.06 833,-467.09"/>
</g>
<!-- Node12 -->
<g id="node12" class="node">
<title>Node12</title>
<g id="a_node12"><a xlink:href="TransmitterCode_2src_2main_8cpp.html#afeaea883a32e6ebe461d419fab1b9f59" target="_top" xlink:title=" ">
<polygon fill="white" stroke="#666666" points="1071,-359 960,-359 960,-340 1071,-340 1071,-359"/>
<text text-anchor="middle" x="1015.5" y="-347" font-family="Helvetica,sans-Serif" font-size="10.00">ClearMostParameters</text>
</a>
</g>
</g>
<!-- Node11&#45;&gt;Node12 -->
<g id="edge11" class="edge">
<title>Node11&#45;&gt;Node12</title>
<path fill="none" stroke="#63b8ff" d="M879.05,-395.65C898.35,-387.58 926.72,-376.12 952,-367.5 956.76,-365.88 961.75,-364.28 966.75,-362.73"/>
<polygon fill="#63b8ff" stroke="#63b8ff" points="967.61,-366.13 976.18,-359.91 965.6,-359.43 967.61,-366.13"/>
</g>
<!-- Node13 -->
<g id="node13" class="node">
<title>Node13</title>
<g id="a_node13"><a xlink:href="Utilities_8h.html#a549a702bb9b539c6b3a4f20cce65adcc" target="_top" xlink:title=" ">
<polygon fill="#fff0f0" stroke="red" points="1064.5,-772 966.5,-772 966.5,-753 1064.5,-753 1064.5,-772"/>
<text text-anchor="middle" x="1015.5" y="-760" font-family="Helvetica,sans-Serif" font-size="10.00">GetLEDBrightness</text>
</a>
</g>
</g>
<!-- Node11&#45;&gt;Node13 -->
<g id="edge12" class="edge">
<title>Node11&#45;&gt;Node13</title>
<path fill="none" stroke="#63b8ff" d="M871.13,-415.5C885.28,-425.74 905.73,-443.04 916,-463.5 972.28,-575.64 871,-647.68 952,-743.5 953.46,-745.22 955.06,-746.79 956.79,-748.22"/>
<polygon fill="#63b8ff" stroke="#63b8ff" points="954.66,-751.02 964.97,-753.45 958.43,-745.12 954.66,-751.02"/>
</g>
<!-- Node23 -->
<g id="node14" class="node">
<title>Node23</title>
<g id="a_node14"><a xlink:href="TransmitterCode_2src_2main_8cpp.html#a2d5ec5fd5ed62d5b7b071fabe2225405" target="_top" xlink:title=" ">
<polygon fill="#fff0f0" stroke="red" points="1063.5,-396 967.5,-396 967.5,-377 1063.5,-377 1063.5,-396"/>
<text text-anchor="middle" x="1015.5" y="-384" font-family="Helvetica,sans-Serif" font-size="10.00">LogDisConnection</text>
</a>
</g>
</g>
<!-- Node11&#45;&gt;Node23 -->
<g id="edge13" class="edge">
<title>Node11&#45;&gt;Node23</title>
<path fill="none" stroke="#63b8ff" d="M886.94,-401.79C906.52,-399.44 932.48,-396.33 955.86,-393.53"/>
<polygon fill="#63b8ff" stroke="#63b8ff" points="956.08,-397.03 965.59,-392.36 955.25,-390.08 956.08,-397.03"/>
</g>
<!-- Node39 -->
<g id="node15" class="node">
<title>Node39</title>
<g id="a_node15"><a xlink:href="Utilities_8h.html#aa490b4664b0a4498d53b30b82287d5df" target="_top" xlink:title=" ">
<polygon fill="#fff0f0" stroke="red" points="1201.5,-790 1138.5,-790 1138.5,-771 1201.5,-771 1201.5,-790"/>
<text text-anchor="middle" x="1170" y="-778" font-family="Helvetica,sans-Serif" font-size="10.00">PlaySound</text>
</a>
</g>
</g>
<!-- Node11&#45;&gt;Node39 -->
<g id="edge14" class="edge">
<title>Node11&#45;&gt;Node39</title>
<path fill="none" stroke="#63b8ff" d="M870.23,-415.31C884.11,-425.65 904.73,-443.25 916,-463.5 952.72,-529.46 908.16,-568.04 952,-629.5 990.34,-683.24 1025.15,-668.33 1079,-706.5 1104.44,-724.53 1131.87,-747.67 1149.67,-763.24"/>
<polygon fill="#63b8ff" stroke="#63b8ff" points="1147.09,-765.63 1156.91,-769.62 1151.72,-760.38 1147.09,-765.63"/>
</g>
<!-- Node40 -->
<g id="node16" class="node">
<title>Node40</title>
<g id="a_node16"><a xlink:href="Nextion_8h.html#aecac2f0c289f02ef3c92b85be82eacac" target="_top" xlink:title=" ">
<polygon fill="#fff0f0" stroke="red" points="1344,-678 1261,-678 1261,-659 1344,-659 1344,-678"/>
<text text-anchor="middle" x="1302.5" y="-666" font-family="Helvetica,sans-Serif" font-size="10.00">SendCommand</text>
</a>
</g>
</g>
<!-- Node11&#45;&gt;Node40 -->
<g id="edge17" class="edge">
<title>Node11&#45;&gt;Node40</title>
<path fill="none" stroke="#63b8ff" d="M886.71,-412.14C931.15,-422.57 1015.06,-445.42 1079,-481.5 1165.29,-530.19 1250.11,-614.2 1284.95,-650.71"/>
<polygon fill="#63b8ff" stroke="#63b8ff" points="1282.25,-652.95 1291.66,-657.81 1287.34,-648.14 1282.25,-652.95"/>
</g>
<!-- Node43 -->
<g id="node17" class="node">
<title>Node43</title>
<g id="a_node17"><a xlink:href="Nextion_8h.html#afe513398f72d5e48f691830a1ef6eb42" target="_top" xlink:title=" ">
<polygon fill="#fff0f0" stroke="red" points="1199,-434 1141,-434 1141,-415 1199,-415 1199,-434"/>
<text text-anchor="middle" x="1170" y="-422" font-family="Helvetica,sans-Serif" font-size="10.00">SendText</text>
</a>
</g>
</g>
<!-- Node11&#45;&gt;Node43 -->
<g id="edge18" class="edge">
<title>Node11&#45;&gt;Node43</title>
<path fill="none" stroke="#63b8ff" d="M886.87,-407.37C943.96,-410.84 1065.95,-418.24 1129.18,-422.08"/>
<polygon fill="#63b8ff" stroke="#63b8ff" points="1128.93,-425.57 1139.12,-422.69 1129.35,-418.59 1128.93,-425.57"/>
</g>
<!-- Node44 -->
<g id="node18" class="node">
<title>Node44</title>
<g id="a_node18"><a xlink:href="TransmitterCode_2src_2main_8cpp.html#a083c423be6ce1635de5961d0fc72ff06" target="_top" xlink:title=" ">
<polygon fill="white" stroke="#666666" points="1065,-245 966,-245 966,-226 1065,-226 1065,-245"/>
<text text-anchor="middle" x="1015.5" y="-233" font-family="Helvetica,sans-Serif" font-size="10.00">SetUKFrequencies</text>
</a>
</g>
</g>
<!-- Node11&#45;&gt;Node44 -->
<g id="edge20" class="edge">
<title>Node11&#45;&gt;Node44</title>
<path fill="none" stroke="#63b8ff" d="M864.98,-395.87C890.57,-368.42 964.23,-289.41 997.65,-253.57"/>
<polygon fill="#63b8ff" stroke="#63b8ff" points="999.94,-256.25 1004.2,-246.55 994.82,-251.48 999.94,-256.25"/>
</g>
<!-- Node39&#45;&gt;Node40 -->
<g id="edge15" class="edge">
<title>Node39&#45;&gt;Node40</title>
<path fill="none" stroke="#63b8ff" d="M1182.58,-770.56C1204.89,-751.42 1254.04,-709.23 1281.66,-685.53"/>
<polygon fill="#63b8ff" stroke="#63b8ff" points="1283.67,-688.41 1288.98,-679.24 1279.11,-683.1 1283.67,-688.41"/>
</g>
<!-- Node40&#45;&gt;Node4 -->
<g id="edge16" class="edge">
<title>Node40&#45;&gt;Node4</title>
<path fill="none" stroke="#63b8ff" d="M1300.66,-678.4C1296.06,-730.25 1272.44,-970.25 1225,-1024.5 1160.17,-1098.63 1114.98,-1099.5 1016.5,-1099.5 685,-1099.5 685,-1099.5 685,-1099.5 615,-1099.5 533.99,-1099.5 483.5,-1099.5"/>
<polygon fill="#63b8ff" stroke="#63b8ff" points="483.78,-1096 473.78,-1099.5 483.78,-1103 483.78,-1096"/>
</g>
<!-- Node43&#45;&gt;Node40 -->
<g id="edge19" class="edge">
<title>Node43&#45;&gt;Node40</title>
<path fill="none" stroke="#63b8ff" d="M1199.26,-432.07C1208.49,-435.74 1218.12,-441.02 1225,-448.5 1278.59,-506.76 1294.95,-604.56 1299.69,-647.36"/>
<polygon fill="#63b8ff" stroke="#63b8ff" points="1296.2,-647.66 1300.66,-657.27 1303.17,-646.97 1296.2,-647.66"/>
</g>
<!-- Node46 -->
<g id="node20" class="node">
<title>Node46</title>
<g id="a_node20"><a xlink:href="transceiver_8h.html#a52aa3e80bccf5e75346c93fdae63122d" target="_top" xlink:title=" ">
<polygon fill="#fff0f0" stroke="red" points="1066,-584 965,-584 965,-565 1066,-565 1066,-584"/>
<text text-anchor="middle" x="1015.5" y="-572" font-family="Helvetica,sans-Serif" font-size="10.00">HopToNextChannel</text>
</a>
</g>
</g>
<!-- Node45&#45;&gt;Node46 -->
<g id="edge22" class="edge">
<title>Node45&#45;&gt;Node46</title>
<path fill="none" stroke="#63b8ff" d="M899.4,-491.5C905.3,-493.84 911.03,-496.79 916,-500.5 939.41,-517.98 928.62,-537.98 952,-555.5 953.91,-556.93 955.94,-558.26 958.04,-559.49"/>
<polygon fill="#63b8ff" stroke="#63b8ff" points="956.45,-562.61 966.96,-563.87 959.53,-556.32 956.45,-562.61"/>
</g>
<!-- Node50 -->
<g id="node22" class="node">
<title>Node50</title>
<g id="a_node22"><a xlink:href="transceiver_8h.html#ad0e30213b21808d00110752679788a8c" target="_top" xlink:title=" ">
<polygon fill="#fff0f0" stroke="red" points="1052.5,-510 978.5,-510 978.5,-491 1052.5,-491 1052.5,-510"/>
<text text-anchor="middle" x="1015.5" y="-498" font-family="Helvetica,sans-Serif" font-size="10.00">TryOtherPipe</text>
</a>
</g>
</g>
<!-- Node45&#45;&gt;Node50 -->
<g id="edge24" class="edge">
<title>Node45&#45;&gt;Node50</title>
<path fill="none" stroke="#63b8ff" d="M899.31,-487.42C920.29,-489.8 945.53,-492.67 967.03,-495.11"/>
<polygon fill="#63b8ff" stroke="#63b8ff" points="966.38,-498.56 976.71,-496.21 967.17,-491.6 966.38,-498.56"/>
</g>
<!-- Node46&#45;&gt;Node49 -->
<g id="edge23" class="edge">
<title>Node46&#45;&gt;Node49</title>
<path fill="none" stroke="#63b8ff" d="M1066.45,-564.79C1071.11,-562.34 1075.42,-559.3 1079,-555.5 1126.01,-505.6 1096.61,-471.55 1115,-405.5 1130.17,-351.01 1151.19,-287.73 1161.98,-255.94"/>
<polygon fill="#63b8ff" stroke="#63b8ff" points="1165.18,-257.42 1165.09,-246.82 1158.55,-255.15 1165.18,-257.42"/>
</g>
<!-- Node52&#45;&gt;Node49 -->
<g id="edge26" class="edge">
<title>Node52&#45;&gt;Node49</title>
<path fill="none" stroke="#63b8ff" d="M717.09,-230.93C782.89,-221.61 944.48,-202.46 1079,-216.5 1097.84,-218.47 1118.55,-222.69 1135.34,-226.66"/>
<polygon fill="#63b8ff" stroke="#63b8ff" points="1134.26,-230 1144.8,-228.97 1135.92,-223.2 1134.26,-230"/>
</g>
<!-- Node54 -->
<g id="node25" class="node">
<title>Node54</title>
<g id="a_node25"><a xlink:href="transceiver_8h.html#adac102739147db6397bbcbb371aec4fd" target="_top" xlink:title=" ">
<polygon fill="white" stroke="#666666" points="899.5,-169 810.5,-169 810.5,-150 899.5,-150 899.5,-169"/>
<text text-anchor="middle" x="855" y="-157" font-family="Helvetica,sans-Serif" font-size="10.00">LoadParameters</text>
</a>
</g>
</g>
<!-- Node53&#45;&gt;Node54 -->
<g id="edge29" class="edge">
<title>Node53&#45;&gt;Node54</title>
<path fill="none" stroke="#63b8ff" d="M729.57,-188.56C751.08,-183.53 777.41,-177.39 800.29,-172.04"/>
<polygon fill="#63b8ff" stroke="#63b8ff" points="800.8,-175.52 809.74,-169.84 799.21,-168.7 800.8,-175.52"/>
</g>
<!-- Node54&#45;&gt;Node44 -->
<g id="edge32" class="edge">
<title>Node54&#45;&gt;Node44</title>
<path fill="none" stroke="#63b8ff" d="M876.72,-169.44C904.01,-182.52 952.23,-205.64 983.77,-220.77"/>
<polygon fill="#63b8ff" stroke="#63b8ff" points="981.88,-223.74 992.41,-224.91 984.91,-217.43 981.88,-223.74"/>
</g>
<!-- Node55 -->
<g id="node26" class="node">
<title>Node55</title>
<g id="a_node26"><a xlink:href="TransmitterCode_2src_2main_8cpp.html#a5aa4888b924a4f1d95e9cedc3004f2b6" target="_top" xlink:title=" ">
<polygon fill="white" stroke="#666666" points="1057,-132 974,-132 974,-113 1057,-113 1057,-132"/>
<text text-anchor="middle" x="1015.5" y="-120" font-family="Helvetica,sans-Serif" font-size="10.00">MakeTwobytes</text>
</a>
</g>
</g>
<!-- Node54&#45;&gt;Node55 -->
<g id="edge30" class="edge">
<title>Node54&#45;&gt;Node55</title>
<path fill="none" stroke="#63b8ff" d="M898.48,-149.58C918.13,-145 941.66,-139.5 962.37,-134.67"/>
<polygon fill="#63b8ff" stroke="#63b8ff" points="963.13,-138.09 972.08,-132.4 961.54,-131.27 963.13,-138.09"/>
</g>
<!-- Node56 -->
<g id="node27" class="node">
<title>Node56</title>
<g id="a_node27"><a xlink:href="TransmitterCode_2src_2main_8cpp.html#a60a8ba3819508aedbe1d59640b0a79b0" target="_top" xlink:title=" ">
<polygon fill="white" stroke="#666666" points="1067.5,-169 963.5,-169 963.5,-150 1067.5,-150 1067.5,-169"/>
<text text-anchor="middle" x="1015.5" y="-157" font-family="Helvetica,sans-Serif" font-size="10.00">SetTestFrequencies</text>
</a>
</g>
</g>
<!-- Node54&#45;&gt;Node56 -->
<g id="edge31" class="edge">
<title>Node54&#45;&gt;Node56</title>
<path fill="none" stroke="#63b8ff" d="M899.73,-159.5C915.82,-159.5 934.36,-159.5 951.79,-159.5"/>
<polygon fill="#63b8ff" stroke="#63b8ff" points="951.53,-163 961.53,-159.5 951.53,-156 951.53,-163"/>
</g>
<!-- Node57&#45;&gt;Node49 -->
<g id="edge40" class="edge">
<title>Node57&#45;&gt;Node49</title>
<path fill="none" stroke="#63b8ff" d="M906.06,-63.21C954.07,-63.36 1026.78,-69.98 1079,-103.5 1121.24,-130.61 1148.74,-185.36 1161.23,-215.12"/>
<polygon fill="#63b8ff" stroke="#63b8ff" points="1157.87,-216.15 1164.84,-224.12 1164.36,-213.54 1157.87,-216.15"/>
</g>
<!-- Node58 -->
<g id="node29" class="node">
<title>Node58</title>
<g id="a_node29"><a xlink:href="BuddyWireless_8h.html#af59c2527be7a67d6b09dd467f3123d55" target="_top" xlink:title=" ">
<polygon fill="white" stroke="#666666" points="1051,-19 980,-19 980,0 1051,0 1051,-19"/>
<text text-anchor="middle" x="1015.5" y="-7" font-family="Helvetica,sans-Serif" font-size="10.00">GetPupilAck</text>
</a>
</g>
</g>
<!-- Node57&#45;&gt;Node58 -->
<g id="edge34" class="edge">
<title>Node57&#45;&gt;Node58</title>
<path fill="none" stroke="#63b8ff" d="M879.05,-55.65C898.35,-47.58 926.72,-36.12 952,-27.5 957.41,-25.66 963.11,-23.84 968.8,-22.11"/>
<polygon fill="#63b8ff" stroke="#63b8ff" points="969.56,-25.53 978.15,-19.34 967.57,-18.82 969.56,-25.53"/>
</g>
<!-- Node60 -->
<g id="node31" class="node">
<title>Node60</title>
<g id="a_node31"><a xlink:href="BuddyWireless_8h.html#a89fc05df708fec875356b62d21b2ce7b" target="_top" xlink:title=" ">
<polygon fill="white" stroke="#666666" points="1054,-56 977,-56 977,-37 1054,-37 1054,-56"/>
<text text-anchor="middle" x="1015.5" y="-44" font-family="Helvetica,sans-Serif" font-size="10.00">PupilDetected</text>
</a>
</g>
</g>
<!-- Node57&#45;&gt;Node60 -->
<g id="edge37" class="edge">
<title>Node57&#45;&gt;Node60</title>
<path fill="none" stroke="#63b8ff" d="M906.15,-59.49C925.08,-57.22 946.58,-54.64 965.4,-52.39"/>
<polygon fill="#63b8ff" stroke="#63b8ff" points="965.72,-55.87 975.23,-51.21 964.89,-48.92 965.72,-55.87"/>
</g>
<!-- Node58&#45;&gt;Node49 -->
<g id="edge36" class="edge">
<title>Node58&#45;&gt;Node49</title>
<path fill="none" stroke="#63b8ff" d="M1051.31,-13.84C1061.16,-16.48 1071.28,-20.71 1079,-27.5 1136.56,-78.13 1158.64,-172.18 1165.9,-214.23"/>
<polygon fill="#63b8ff" stroke="#63b8ff" points="1162.43,-214.69 1167.46,-224.01 1169.34,-213.58 1162.43,-214.69"/>
</g>
<!-- Node59 -->
<g id="node30" class="node">
<title>Node59</title>
<g id="a_node30"><a xlink:href="transceiver_8h.html#a6feccc8c0583de3235616d42076f1371" target="_top" xlink:title=" ">
<polygon fill="white" stroke="#666666" points="1205.5,-19 1134.5,-19 1134.5,0 1205.5,0 1205.5,-19"/>
<text text-anchor="middle" x="1170" y="-7" font-family="Helvetica,sans-Serif" font-size="10.00">Decompress</text>
</a>
</g>
</g>
<!-- Node58&#45;&gt;Node59 -->
<g id="edge35" class="edge">
<title>Node58&#45;&gt;Node59</title>
<path fill="none" stroke="#63b8ff" d="M1051.49,-9.5C1072.7,-9.5 1100.01,-9.5 1122.97,-9.5"/>
<polygon fill="#63b8ff" stroke="#63b8ff" points="1122.66,-13 1132.66,-9.5 1122.66,-6 1122.66,-13"/>
</g>
<!-- Node60&#45;&gt;Node40 -->
<g id="edge38" class="edge">
<title>Node60&#45;&gt;Node40</title>
<path fill="none" stroke="#63b8ff" d="M1054.21,-51.84C1062.73,-54.04 1071.47,-57.13 1079,-61.5 1160.87,-108.97 1182.85,-131.77 1225,-216.5 1300.43,-368.15 1303.32,-580.02 1302.14,-647.2"/>
<polygon fill="#63b8ff" stroke="#63b8ff" points="1298.65,-647.05 1301.91,-657.13 1305.64,-647.21 1298.65,-647.05"/>
</g>
<!-- Node60&#45;&gt;Node43 -->
<g id="edge39" class="edge">
<title>Node60&#45;&gt;Node43</title>
<path fill="none" stroke="#63b8ff" d="M1031.78,-56.38C1046.16,-66.49 1067.2,-83.52 1079,-103.5 1113.86,-162.53 1096.67,-187.44 1115,-253.5 1130.21,-308.3 1151.21,-371.96 1161.99,-403.93"/>
<polygon fill="#63b8ff" stroke="#63b8ff" points="1158.58,-404.77 1165.1,-413.12 1165.21,-402.52 1158.58,-404.77"/>
</g>
<!-- Node62&#45;&gt;Node10 -->
<g id="edge65" class="edge">
<title>Node62&#45;&gt;Node10</title>
<path fill="none" stroke="#63b8ff" d="M731.75,-546.58C752.16,-542.06 776.53,-536.66 798.12,-531.88"/>
<polygon fill="#63b8ff" stroke="#63b8ff" points="798.64,-535.35 807.65,-529.77 797.13,-528.52 798.64,-535.35"/>
</g>
<!-- Node62&#45;&gt;Node49 -->
<g id="edge64" class="edge">
<title>Node62&#45;&gt;Node49</title>
<path fill="none" stroke="#63b8ff" d="M695.06,-546.71C708.9,-529.64 737.66,-493.05 758,-459.5 776.75,-428.57 766.96,-410.53 794,-386.5 894.22,-297.42 956.85,-342.81 1079,-287.5 1101.95,-277.11 1126.63,-262.59 1144.33,-251.53"/>
<polygon fill="#63b8ff" stroke="#63b8ff" points="1146.03,-254.6 1152.61,-246.29 1142.29,-248.68 1146.03,-254.6"/>
</g>
<!-- Node63 -->
<g id="node34" class="node">
<title>Node63</title>
<g id="a_node34"><a xlink:href="TransmitterCode_2src_2main_8cpp.html#a953f1d5046e183549ed95b08f6d675e3" target="_top" xlink:title=" ">
<polygon fill="white" stroke="#666666" points="904,-566 806,-566 806,-547 904,-547 904,-566"/>
<text text-anchor="middle" x="855" y="-554" font-family="Helvetica,sans-Serif" font-size="10.00">CheckGapsLength</text>
</a>
</g>
</g>
<!-- Node62&#45;&gt;Node63 -->
<g id="edge43" class="edge">
<title>Node62&#45;&gt;Node63</title>
<path fill="none" stroke="#63b8ff" d="M734.41,-556.5C753.03,-556.5 774.62,-556.5 794.28,-556.5"/>
<polygon fill="#63b8ff" stroke="#63b8ff" points="794.09,-560 804.09,-556.5 794.09,-553 794.09,-560"/>
</g>
<!-- Node65 -->
<g id="node36" class="node">
<title>Node65</title>
<g id="a_node36"><a xlink:href="TransmitterCode_2src_2main_8cpp.html#a62e53eb9359c32b666e3386d62c57037" target="_top" xlink:title=" ">
<polygon fill="white" stroke="#666666" points="891,-922 819,-922 819,-903 891,-903 891,-922"/>
<text text-anchor="middle" x="855" y="-910" font-family="Helvetica,sans-Serif" font-size="10.00">GreenLedOn</text>
</a>
</g>
</g>
<!-- Node62&#45;&gt;Node65 -->
<g id="edge45" class="edge">
<title>Node62&#45;&gt;Node65</title>
<path fill="none" stroke="#63b8ff" d="M691.64,-566.39C714.3,-614.7 813.49,-826.15 844.62,-892.51"/>
<polygon fill="#63b8ff" stroke="#63b8ff" points="841.4,-893.88 848.82,-901.45 847.74,-890.91 841.4,-893.88"/>
</g>
<!-- Node76 -->
<g id="node40" class="node">
<title>Node76</title>
<g id="a_node40"><a xlink:href="Utilities_8h.html#a793b7bcd77531c95fe72ed4356d421c8" target="_top" xlink:title=" ">
<polygon fill="white" stroke="#666666" points="1225,-1016 1115,-1016 1115,-997 1225,-997 1225,-1016"/>
<text text-anchor="middle" x="1170" y="-1004" font-family="Helvetica,sans-Serif" font-size="10.00">StartInactvityTimeout</text>
</a>
</g>
</g>
<!-- Node62&#45;&gt;Node76 -->
<g id="edge66" class="edge">
<title>Node62&#45;&gt;Node76</title>
<path fill="none" stroke="#63b8ff" d="M687.47,-566.48C690.08,-612.48 706.09,-806.97 794,-930.5 843.76,-1000.42 870.17,-1015.63 952,-1041.5 1005.82,-1058.52 1023.52,-1051.91 1079,-1041.5 1100.01,-1037.56 1122.43,-1028.86 1139.63,-1021.12"/>
<polygon fill="#63b8ff" stroke="#63b8ff" points="1140.65,-1024.51 1148.24,-1017.11 1137.69,-1018.16 1140.65,-1024.51"/>
</g>
<!-- Node78 -->
<g id="node42" class="node">
<title>Node78</title>
<g id="a_node42"><a xlink:href="TransmitterCode_2src_2main_8cpp.html#a694f4f5a0147f4dc29b0bc1a8951547d" target="_top" xlink:title=" ">
<polygon fill="#fff0f0" stroke="red" points="902,-697 808,-697 808,-678 902,-678 902,-697"/>
<text text-anchor="middle" x="855" y="-685" font-family="Helvetica,sans-Serif" font-size="10.00">ParseAckPayload</text>
</a>
</g>
</g>
<!-- Node62&#45;&gt;Node78 -->
<g id="edge56" class="edge">
<title>Node62&#45;&gt;Node78</title>
<path fill="none" stroke="#63b8ff" d="M699.55,-566.35C727.84,-588.54 796.86,-642.68 832.27,-670.45"/>
<polygon fill="#63b8ff" stroke="#63b8ff" points="830.08,-673.19 840.11,-676.61 834.4,-667.68 830.08,-673.19"/>
</g>
<!-- Node64 -->
<g id="node35" class="node">
<title>Node64</title>
<g id="a_node35"><a xlink:href="TransmitterCode_2src_2main_8cpp.html#a1fadc7cdd854f8b3628b622da5417d8b" target="_top" xlink:title=" ">
<polygon fill="#fff0f0" stroke="red" points="1050.5,-547 980.5,-547 980.5,-528 1050.5,-528 1050.5,-547"/>
<text text-anchor="middle" x="1015.5" y="-535" font-family="Helvetica,sans-Serif" font-size="10.00">LogThisGap</text>
</a>
</g>
</g>
<!-- Node63&#45;&gt;Node64 -->
<g id="edge44" class="edge">
<title>Node63&#45;&gt;Node64</title>
<path fill="none" stroke="#63b8ff" d="M904.42,-550.7C925.06,-548.22 949.01,-545.35 969.29,-542.92"/>
<polygon fill="#63b8ff" stroke="#63b8ff" points="969.43,-546.43 978.94,-541.76 968.59,-539.48 969.43,-546.43"/>
</g>
<!-- Node65&#45;&gt;Node13 -->
<g id="edge47" class="edge">
<title>Node65&#45;&gt;Node13</title>
<path fill="none" stroke="#63b8ff" d="M860.25,-902.84C871.49,-878.43 904.43,-813.84 952,-780.5 953.59,-779.39 955.25,-778.34 956.96,-777.36"/>
<polygon fill="#63b8ff" stroke="#63b8ff" points="958.36,-780.57 965.84,-773.07 955.31,-774.27 958.36,-780.57"/>
</g>
<!-- Node65&#45;&gt;Node39 -->
<g id="edge49" class="edge">
<title>Node65&#45;&gt;Node39</title>
<path fill="none" stroke="#63b8ff" d="M891.22,-905.28C945.35,-893.86 1046.21,-871.21 1079,-854.5 1107.39,-840.03 1134.92,-815.35 1151.9,-798.5"/>
<polygon fill="#63b8ff" stroke="#63b8ff" points="1154.19,-801.16 1158.7,-791.58 1149.2,-796.25 1154.19,-801.16"/>
</g>
<!-- Node66 -->
<g id="node37" class="node">
<title>Node66</title>
<g id="a_node37"><a xlink:href="Utilities_8h.html#a82b1900a80d1622896601c57d6edaeda" target="_top" xlink:title=" ">
<polygon fill="white" stroke="#666666" points="1064.5,-1033 966.5,-1033 966.5,-1014 1064.5,-1014 1064.5,-1033"/>
<text text-anchor="middle" x="1015.5" y="-1021" font-family="Helvetica,sans-Serif" font-size="10.00">ClearSuccessRate</text>
</a>
</g>
</g>
<!-- Node65&#45;&gt;Node66 -->
<g id="edge46" class="edge">
<title>Node65&#45;&gt;Node66</title>
<path fill="none" stroke="#63b8ff" d="M863.59,-922.38C878.51,-941.13 913.55,-981.99 952,-1004.5 954.99,-1006.25 958.15,-1007.85 961.4,-1009.31"/>
<polygon fill="#63b8ff" stroke="#63b8ff" points="960.01,-1012.53 970.6,-1012.98 962.61,-1006.03 960.01,-1012.53"/>
</g>
<!-- Node67 -->
<g id="node38" class="node">
<title>Node67</title>
<g id="a_node38"><a xlink:href="TransmitterCode_2src_2main_8cpp.html#aaa3e86084c43b049d52d7d62c58a00b9" target="_top" xlink:title=" ">
<polygon fill="#fff0f0" stroke="red" points="1056.5,-996 974.5,-996 974.5,-977 1056.5,-977 1056.5,-996"/>
<text text-anchor="middle" x="1015.5" y="-984" font-family="Helvetica,sans-Serif" font-size="10.00">LogConnection</text>
</a>
</g>
</g>
<!-- Node65&#45;&gt;Node67 -->
<g id="edge48" class="edge">
<title>Node65&#45;&gt;Node67</title>
<path fill="none" stroke="#63b8ff" d="M870.75,-922.36C889.14,-934.31 921.85,-954.48 952,-967.5 956.57,-969.48 961.42,-971.33 966.31,-973.05"/>
<polygon fill="#63b8ff" stroke="#63b8ff" points="964.96,-976.29 975.55,-976.12 967.16,-969.65 964.96,-976.29"/>
</g>
<!-- Node69 -->
<g id="node39" class="node">
<title>Node69</title>
<g id="a_node39"><a xlink:href="TransmitterCode_2src_2main_8cpp.html#a5d3a46c21927cf7a3031a1e68e0b7b48" target="_top" xlink:title="SHOW COMMS.">
<polygon fill="#fff0f0" stroke="red" points="1053,-922 978,-922 978,-903 1053,-903 1053,-922"/>
<text text-anchor="middle" x="1015.5" y="-910" font-family="Helvetica,sans-Serif" font-size="10.00">ShowComms</text>
</a>
</g>
</g>
<!-- Node65&#45;&gt;Node69 -->
<g id="edge50" class="edge">
<title>Node65&#45;&gt;Node69</title>
<path fill="none" stroke="#63b8ff" d="M891.18,-912.5C913.28,-912.5 942.09,-912.5 966.3,-912.5"/>
<polygon fill="#63b8ff" stroke="#63b8ff" points="966.26,-916 976.26,-912.5 966.26,-909 966.26,-916"/>
</g>
<!-- Node77 -->
<g id="node41" class="node">
<title>Node77</title>
<g id="a_node41"><a xlink:href="TransmitterCode_2src_2main_8cpp.html#a6da9a1fd0b003151f79eabc702ba80ff" target="_top" xlink:title=" ">
<polygon fill="white" stroke="#666666" points="1059,-959 972,-959 972,-940 1059,-940 1059,-959"/>
<text text-anchor="middle" x="1015.5" y="-947" font-family="Helvetica,sans-Serif" font-size="10.00">ZeroDataScreen</text>
</a>
</g>
</g>
<!-- Node65&#45;&gt;Node77 -->
<g id="edge55" class="edge">
<title>Node65&#45;&gt;Node77</title>
<path fill="none" stroke="#63b8ff" d="M891.18,-920.71C911.63,-925.49 937.83,-931.6 960.82,-936.97"/>
<polygon fill="#63b8ff" stroke="#63b8ff" points="959.8,-940.32 970.33,-939.19 961.39,-933.51 959.8,-940.32"/>
</g>
<!-- Node69&#45;&gt;Node39 -->
<g id="edge51" class="edge">
<title>Node69&#45;&gt;Node39</title>
<path fill="none" stroke="#63b8ff" d="M1051.83,-902.5C1061.15,-898.94 1070.87,-894.32 1079,-888.5 1113.07,-864.1 1141.93,-823.85 1157.24,-799.98"/>
<polygon fill="#63b8ff" stroke="#63b8ff" points="1160.16,-801.91 1162.48,-791.57 1154.22,-798.2 1160.16,-801.91"/>
</g>
<!-- Node69&#45;&gt;Node40 -->
<g id="edge52" class="edge">
<title>Node69&#45;&gt;Node40</title>
<path fill="none" stroke="#63b8ff" d="M1046.21,-902.58C1090.08,-886.67 1172.61,-851.71 1225,-798.5 1257.47,-765.52 1281.57,-716.11 1293.38,-688.68"/>
<polygon fill="#63b8ff" stroke="#63b8ff" points="1296.47,-690.35 1297.1,-679.78 1290.01,-687.66 1296.47,-690.35"/>
</g>
<!-- Node69&#45;&gt;Node43 -->
<g id="edge53" class="edge">
<title>Node69&#45;&gt;Node43</title>
<path fill="none" stroke="#63b8ff" d="M1032.12,-902.58C1046.75,-892.38 1067.97,-875.13 1079,-854.5 1126.55,-765.58 1094.19,-729.16 1115,-630.5 1129.46,-561.92 1152.12,-481.95 1162.9,-445.06"/>
<polygon fill="#63b8ff" stroke="#63b8ff" points="1166.18,-446.32 1165.65,-435.73 1159.46,-444.34 1166.18,-446.32"/>
</g>
<!-- Node69&#45;&gt;Node76 -->
<g id="edge54" class="edge">
<title>Node69&#45;&gt;Node76</title>
<path fill="none" stroke="#63b8ff" d="M1053.21,-920.29C1061.94,-922.89 1071.03,-926.24 1079,-930.5 1107.57,-945.77 1135.24,-971.24 1152.18,-988.44"/>
<polygon fill="#63b8ff" stroke="#63b8ff" points="1149.51,-990.71 1158.97,-995.49 1154.56,-985.86 1149.51,-990.71"/>
</g>
<!-- Node78&#45;&gt;Node46 -->
<g id="edge63" class="edge">
<title>Node78&#45;&gt;Node46</title>
<path fill="none" stroke="#63b8ff" d="M863.26,-677.53C877.86,-658.2 912.76,-615.51 952,-592.5 954.3,-591.15 956.71,-589.9 959.19,-588.73"/>
<polygon fill="#63b8ff" stroke="#63b8ff" points="960.33,-592.05 968.25,-585.01 957.67,-585.57 960.33,-592.05"/>
</g>
<!-- Node79 -->
<g id="node43" class="node">
<title>Node79</title>
<g id="a_node43"><a xlink:href="TransmitterCode_2src_2main_8cpp.html#a75fa77e7bbb1cfe8fe6e1a216fbdc17e" target="_top" xlink:title=" ">
<polygon fill="white" stroke="#666666" points="1048,-621 983,-621 983,-602 1048,-602 1048,-621"/>
<text text-anchor="middle" x="1015.5" y="-609" font-family="Helvetica,sans-Serif" font-size="10.00">GetAltitude</text>
</a>
</g>
</g>
<!-- Node78&#45;&gt;Node79 -->
<g id="edge57" class="edge">
<title>Node78&#45;&gt;Node79</title>
<path fill="none" stroke="#63b8ff" d="M876.72,-677.56C904.01,-664.48 952.23,-641.36 983.77,-626.23"/>
<polygon fill="#63b8ff" stroke="#63b8ff" points="984.91,-629.57 992.41,-622.09 981.88,-623.26 984.91,-629.57"/>
</g>
<!-- Node80 -->
<g id="node44" class="node">
<title>Node80</title>
<g id="a_node44"><a xlink:href="TransmitterCode_2src_2main_8cpp.html#ab5736b017daadeb2c1d7dc73489d31a6" target="_top" xlink:title=" ">
<polygon fill="white" stroke="#666666" points="1223.5,-659 1116.5,-659 1116.5,-640 1223.5,-640 1223.5,-659"/>
<text text-anchor="middle" x="1170" y="-647" font-family="Helvetica,sans-Serif" font-size="10.00">GetFromAckPayload</text>
</a>
</g>
</g>
<!-- Node78&#45;&gt;Node80 -->
<g id="edge60" class="edge">
<title>Node78&#45;&gt;Node80</title>
<path fill="none" stroke="#63b8ff" d="M902.18,-681.89C955.78,-675.39 1044.5,-664.61 1104.79,-657.3"/>
<polygon fill="#63b8ff" stroke="#63b8ff" points="1105.07,-660.79 1114.58,-656.11 1104.23,-653.84 1105.07,-660.79"/>
</g>
<!-- Node81 -->
<g id="node45" class="node">
<title>Node81</title>
<g id="a_node45"><a xlink:href="TransmitterCode_2src_2main_8cpp.html#a160b9119423c34869b16a4ebdc421d35" target="_top" xlink:title=" ">
<polygon fill="white" stroke="#666666" points="1079,-846 952,-846 952,-827 1079,-827 1079,-846"/>
<text text-anchor="middle" x="1015.5" y="-834" font-family="Helvetica,sans-Serif" font-size="10.00">GetDateFromAckPayload</text>
</a>
</g>
</g>
<!-- Node78&#45;&gt;Node81 -->
<g id="edge59" class="edge">
<title>Node78&#45;&gt;Node81</title>
<path fill="none" stroke="#63b8ff" d="M860.49,-697.33C872.05,-721.53 905.25,-784.48 952,-817.5 954.19,-819.05 956.51,-820.47 958.91,-821.78"/>
<polygon fill="#63b8ff" stroke="#63b8ff" points="957.25,-824.86 967.79,-825.9 960.19,-818.51 957.25,-824.86"/>
</g>
<!-- Node82 -->
<g id="node46" class="node">
<title>Node82</title>
<g id="a_node46"><a xlink:href="ModelMatch_8h.html#a494cb4acb30856d1f53f08df1b80c41b" target="_top" xlink:title=" ">
<polygon fill="#fff0f0" stroke="red" points="1075,-809 956,-809 956,-790 1075,-790 1075,-809"/>
<text text-anchor="middle" x="1015.5" y="-797" font-family="Helvetica,sans-Serif" font-size="10.00">GetModelsMacAddress</text>
</a>
</g>
</g>
<!-- Node78&#45;&gt;Node82 -->
<g id="edge61" class="edge">
<title>Node78&#45;&gt;Node82</title>
<path fill="none" stroke="#63b8ff" d="M863.57,-697.49C878.44,-716.45 913.41,-757.77 952,-780.5 954.98,-782.26 958.14,-783.86 961.39,-785.33"/>
<polygon fill="#63b8ff" stroke="#63b8ff" points="960,-788.55 970.58,-789.01 962.6,-782.05 960,-788.55"/>
</g>
<!-- Node112 -->
<g id="node47" class="node">
<title>Node112</title>
<g id="a_node47"><a xlink:href="TransmitterCode_2src_2main_8cpp.html#a4f813935d8fe58355228cbbf25e12f96" target="_top" xlink:title=" ">
<polygon fill="#fff0f0" stroke="red" points="1072,-735 959,-735 959,-716 1072,-716 1072,-735"/>
<text text-anchor="middle" x="1015.5" y="-723" font-family="Helvetica,sans-Serif" font-size="10.00">GetRXVersionNumber</text>
</a>
</g>
</g>
<!-- Node78&#45;&gt;Node112 -->
<g id="edge62" class="edge">
<title>Node78&#45;&gt;Node112</title>
<path fill="none" stroke="#63b8ff" d="M897.64,-697.48C917.31,-702.2 941.01,-707.88 961.9,-712.89"/>
<polygon fill="#63b8ff" stroke="#63b8ff" points="960.85,-716.24 971.39,-715.16 962.48,-709.43 960.85,-716.24"/>
</g>
<!-- Node79&#45;&gt;Node80 -->
<g id="edge58" class="edge">
<title>Node79&#45;&gt;Node80</title>
<path fill="none" stroke="#63b8ff" d="M1048.47,-619.47C1068.58,-624.48 1094.99,-631.06 1117.96,-636.78"/>
<polygon fill="#63b8ff" stroke="#63b8ff" points="1116.9,-640.12 1127.45,-639.15 1118.59,-633.33 1116.9,-640.12"/>
</g>
<!-- Node168 -->
<g id="node49" class="node">
<title>Node168</title>
<g id="a_node49"><a xlink:href="Nextion_8h.html#ad7b8aa834c87265667a5687b1787a1cc" target="_top" xlink:title=" ">
<polygon fill="white" stroke="#666666" points="357.5,-1147 301.5,-1147 301.5,-1128 357.5,-1128 357.5,-1147"/>
<text text-anchor="middle" x="329.5" y="-1135" font-family="Helvetica,sans-Serif" font-size="10.00">EndSend</text>
</a>
</g>
</g>
<!-- Node222&#45;&gt;Node168 -->
<g id="edge68" class="edge">
<title>Node222&#45;&gt;Node168</title>
<path fill="none" stroke="#63b8ff" d="M262.62,-1110.42C272.2,-1114.36 283.41,-1118.96 293.83,-1123.25"/>
<polygon fill="#63b8ff" stroke="#63b8ff" points="292.34,-1126.42 302.92,-1126.98 295,-1119.94 292.34,-1126.42"/>
</g>
<!-- Node169 -->
<g id="node50" class="node">
<title>Node169</title>
<g id="a_node50"><a xlink:href="Nextion_8h.html#a6fe457db5d6bc71ccb447dee824abf6a" target="_top" xlink:title=" ">
<polygon fill="white" stroke="#666666" points="359,-1110 300,-1110 300,-1091 359,-1091 359,-1110"/>
<text text-anchor="middle" x="329.5" y="-1098" font-family="Helvetica,sans-Serif" font-size="10.00">GetTextIn</text>
</a>
</g>
</g>
<!-- Node222&#45;&gt;Node169 -->
<g id="edge70" class="edge">
<title>Node222&#45;&gt;Node169</title>
<path fill="none" stroke="#63b8ff" d="M264.05,-1100.5C271.61,-1100.5 280.07,-1100.5 288.32,-1100.5"/>
<polygon fill="#63b8ff" stroke="#63b8ff" points="288.2,-1104 298.2,-1100.5 288.2,-1097 288.2,-1104"/>
</g>
<!-- Node168&#45;&gt;Node4 -->
<g id="edge69" class="edge">
<title>Node168&#45;&gt;Node4</title>
<path fill="none" stroke="#63b8ff" d="M357.3,-1127.52C368.89,-1123.2 382.66,-1118.07 395.23,-1113.38"/>
<polygon fill="#63b8ff" stroke="#63b8ff" points="396.31,-1116.72 404.46,-1109.95 393.87,-1110.16 396.31,-1116.72"/>
</g>
</g>
</svg>
