<?xml version="1.0" encoding="UTF-8" standalone="no"?>
<!DOCTYPE svg PUBLIC "-//W3C//DTD SVG 1.1//EN"
 "http://www.w3.org/Graphics/SVG/1.1/DTD/svg11.dtd">
<!-- Generated by graphviz version 7.0.5 (20221223.1930)
 -->
<!-- Title: SDRead16BITS Pages: 1 -->
<svg width="1744pt" height="650pt"
 viewBox="0.00 0.00 1744.00 649.80" xmlns="http://www.w3.org/2000/svg" xmlns:xlink="http://www.w3.org/1999/xlink">
<g id="graph0" class="graph" transform="scale(1 1) rotate(0) translate(4 645.8)">
<title>SDRead16BITS</title>
<!-- Node1 -->
<g id="node1" class="node">
<title>Node1</title>
<g id="a_node1"><a xlink:title=" ">
<polygon fill="#999999" stroke="#666666" points="1736,-399 1650,-399 1650,-380 1736,-380 1736,-399"/>
<text text-anchor="middle" x="1693" y="-387" font-family="Helvetica,sans-Serif" font-size="10.00">SDRead16BITS</text>
</a>
</g>
</g>
<!-- Node2 -->
<g id="node2" class="node">
<title>Node2</title>
<g id="a_node2"><a xlink:href="TransmitterCode_2src_2main_8cpp.html#a909acb7ed667a5cc9c4ec6191fc33e75" target="_top" xlink:title=" ">
<polygon fill="white" stroke="#666666" points="1494.5,-607 1394.5,-607 1394.5,-588 1494.5,-588 1494.5,-607"/>
<text text-anchor="middle" x="1444.5" y="-595" font-family="Helvetica,sans-Serif" font-size="10.00">LoadAllParameters</text>
</a>
</g>
</g>
<!-- Node1&#45;&gt;Node2 -->
<g id="edge1" class="edge">
<title>Node1&#45;&gt;Node2</title>
<path fill="none" stroke="#63b8ff" d="M1675.95,-407.78C1644.16,-443.2 1569.74,-522.21 1495,-573.5 1487.2,-578.85 1478.03,-583.65 1469.72,-587.53"/>
<polygon fill="#63b8ff" stroke="#63b8ff" points="1678.39,-410.31 1682.42,-400.51 1673.16,-405.66 1678.39,-410.31"/>
</g>
<!-- Node30 -->
<g id="node30" class="node">
<title>Node30</title>
<g id="a_node30"><a xlink:href="TransmitterCode_2src_2main_8cpp.html#ac7a5ec6cf2ed7b50bd291f821e886302" target="_top" xlink:title=" ">
<polygon fill="white" stroke="#666666" points="1614,-380 1531,-380 1531,-361 1614,-361 1614,-380"/>
<text text-anchor="middle" x="1572.5" y="-368" font-family="Helvetica,sans-Serif" font-size="10.00">ReadOneModel</text>
</a>
</g>
</g>
<!-- Node1&#45;&gt;Node30 -->
<g id="edge40" class="edge">
<title>Node1&#45;&gt;Node30</title>
<path fill="none" stroke="#63b8ff" d="M1638.36,-380.9C1630.33,-379.61 1622.17,-378.3 1614.46,-377.07"/>
<polygon fill="#63b8ff" stroke="#63b8ff" points="1637.63,-384.33 1648.06,-382.45 1638.74,-377.42 1637.63,-384.33"/>
</g>
<!-- Node3 -->
<g id="node3" class="node">
<title>Node3</title>
<g id="a_node3"><a xlink:href="TransmitterCode_2src_2main_8cpp.html#a804fdbdd5eab4c596bbe8a23eecbe4d5" target="_top" xlink:title=" ">
<polygon fill="white" stroke="#666666" points="1339.5,-380 1238.5,-380 1238.5,-361 1339.5,-361 1339.5,-380"/>
<text text-anchor="middle" x="1289" y="-368" font-family="Helvetica,sans-Serif" font-size="10.00">ButtonWasPressed</text>
</a>
</g>
</g>
<!-- Node2&#45;&gt;Node3 -->
<g id="edge2" class="edge">
<title>Node2&#45;&gt;Node3</title>
<path fill="none" stroke="#63b8ff" d="M1430.49,-578.27C1399.15,-531.91 1320.3,-415.3 1296.74,-380.47"/>
<polygon fill="#63b8ff" stroke="#63b8ff" points="1427.56,-580.17 1436.06,-586.49 1433.35,-576.25 1427.56,-580.17"/>
</g>
<!-- Node29 -->
<g id="node29" class="node">
<title>Node29</title>
<g id="a_node29"><a xlink:href="TransmitterCode_2src_2main_8cpp.html#a17699f358cf9f7c3155a9c5daf8ff13c" target="_top" xlink:title=" ">
<polygon fill="white" stroke="#666666" points="1309.5,-607 1268.5,-607 1268.5,-588 1309.5,-588 1309.5,-607"/>
<text text-anchor="middle" x="1289" y="-595" font-family="Helvetica,sans-Serif" font-size="10.00">setup</text>
</a>
</g>
</g>
<!-- Node2&#45;&gt;Node29 -->
<g id="edge39" class="edge">
<title>Node2&#45;&gt;Node29</title>
<path fill="none" stroke="#63b8ff" d="M1382.79,-597.5C1356.87,-597.5 1328.4,-597.5 1309.92,-597.5"/>
<polygon fill="#63b8ff" stroke="#63b8ff" points="1382.57,-601 1392.57,-597.5 1382.57,-594 1382.57,-601"/>
</g>
<!-- Node4 -->
<g id="node4" class="node">
<title>Node4</title>
<g id="a_node4"><a xlink:href="Utilities_8h.html#afb7c85cac4aa89fd998ed81c330374d2" target="_top" xlink:title=" ">
<polygon fill="white" stroke="#666666" points="1184,-399 1038,-399 1038,-380 1184,-380 1184,-399"/>
<text text-anchor="middle" x="1111" y="-387" font-family="Helvetica,sans-Serif" font-size="10.00">CheckForNextionButtonPress</text>
</a>
</g>
</g>
<!-- Node3&#45;&gt;Node4 -->
<g id="edge3" class="edge">
<title>Node3&#45;&gt;Node4</title>
<path fill="none" stroke="#63b8ff" d="M1226.81,-377.11C1213.13,-378.58 1198.51,-380.16 1184.43,-381.68"/>
<polygon fill="#63b8ff" stroke="#63b8ff" points="1226.96,-380.61 1236.53,-376.06 1226.21,-373.65 1226.96,-380.61"/>
</g>
<!-- Node19 -->
<g id="node19" class="node">
<title>Node19</title>
<g id="a_node19"><a xlink:href="ModelExchange_8h.html#ab7c9edf843c732d7fe296564f39bc0dc" target="_top" xlink:title="RECEIVE A MODEL FILE.">
<polygon fill="white" stroke="#666666" points="844,-133 750,-133 750,-114 844,-114 844,-133"/>
<text text-anchor="middle" x="797" y="-121" font-family="Helvetica,sans-Serif" font-size="10.00">ReceiveModelFile</text>
</a>
</g>
</g>
<!-- Node3&#45;&gt;Node19 -->
<g id="edge38" class="edge">
<title>Node3&#45;&gt;Node19</title>
<path fill="none" stroke="#63b8ff" d="M1261.18,-355.08C1194.67,-317.15 1016.3,-217.34 861,-147.5 849.79,-142.46 837.18,-137.52 826.2,-133.44"/>
<polygon fill="#63b8ff" stroke="#63b8ff" points="1259.14,-357.94 1269.56,-359.87 1262.61,-351.87 1259.14,-357.94"/>
</g>
<!-- Node5 -->
<g id="node5" class="node">
<title>Node5</title>
<g id="a_node5"><a xlink:href="TransmitterCode_2src_2main_8cpp.html#a641d6dab68ec7b2a8a32492aac55bc1c" target="_top" xlink:title=" ">
<polygon fill="white" stroke="#666666" points="1002,-475 897,-475 897,-456 1002,-456 1002,-475"/>
<text text-anchor="middle" x="949.5" y="-463" font-family="Helvetica,sans-Serif" font-size="10.00">GetBackupFilename</text>
</a>
</g>
</g>
<!-- Node4&#45;&gt;Node5 -->
<g id="edge4" class="edge">
<title>Node4&#45;&gt;Node5</title>
<path fill="none" stroke="#63b8ff" d="M1082.24,-404.95C1060.67,-416.69 1029.83,-432.93 1002,-445.5 994.22,-449.01 985.63,-452.5 977.72,-455.56"/>
<polygon fill="#63b8ff" stroke="#63b8ff" points="1083.92,-408.02 1091,-400.14 1080.55,-401.88 1083.92,-408.02"/>
</g>
<!-- Node7 -->
<g id="node7" class="node">
<title>Node7</title>
<g id="a_node7"><a xlink:href="TransmitterCode_2src_2main_8cpp.html#a6506bf72e0dd9e9ce480156b47625bff" target="_top" xlink:title=" ">
<polygon fill="white" stroke="#666666" points="992.5,-436 906.5,-436 906.5,-417 992.5,-417 992.5,-436"/>
<text text-anchor="middle" x="949.5" y="-424" font-family="Helvetica,sans-Serif" font-size="10.00">GetConfirmation</text>
</a>
</g>
</g>
<!-- Node4&#45;&gt;Node7 -->
<g id="edge7" class="edge">
<title>Node4&#45;&gt;Node7</title>
<path fill="none" stroke="#63b8ff" d="M1056.1,-402C1035.45,-406.79 1012.22,-412.18 992.81,-416.69"/>
<polygon fill="#63b8ff" stroke="#63b8ff" points="1056.83,-405.43 1065.78,-399.76 1055.25,-398.61 1056.83,-405.43"/>
</g>
<!-- Node24 -->
<g id="node24" class="node">
<title>Node24</title>
<g id="a_node24"><a xlink:href="TransmitterCode_2src_2main_8cpp.html#a558ea014e230b7caa54ce5a37ad29b22" target="_top" xlink:title=" ">
<polygon fill="white" stroke="#666666" points="1000,-57 899,-57 899,-38 1000,-38 1000,-57"/>
<text text-anchor="middle" x="949.5" y="-45" font-family="Helvetica,sans-Serif" font-size="10.00">ManageTransmitter</text>
</a>
</g>
</g>
<!-- Node4&#45;&gt;Node24 -->
<g id="edge27" class="edge">
<title>Node4&#45;&gt;Node24</title>
<path fill="none" stroke="#63b8ff" d="M1100.71,-369.58C1070.7,-305.24 977.04,-104.4 955.12,-57.41"/>
<polygon fill="#63b8ff" stroke="#63b8ff" points="1097.36,-370.68 1104.76,-378.26 1103.7,-367.72 1097.36,-370.68"/>
</g>
<!-- Node25 -->
<g id="node25" class="node">
<title>Node25</title>
<g id="a_node25"><a xlink:href="TransmitterCode_2src_2main_8cpp.html#a6f5b0f1e4ca75768c16c4dd93f92a8de" target="_top" xlink:title=" ">
<polygon fill="white" stroke="#666666" points="975.5,-399 923.5,-399 923.5,-380 975.5,-380 975.5,-399"/>
<text text-anchor="middle" x="949.5" y="-387" font-family="Helvetica,sans-Serif" font-size="10.00">MsgBox</text>
</a>
</g>
</g>
<!-- Node4&#45;&gt;Node25 -->
<g id="edge29" class="edge">
<title>Node4&#45;&gt;Node25</title>
<path fill="none" stroke="#63b8ff" d="M1026.29,-389.5C1007.95,-389.5 989.88,-389.5 975.99,-389.5"/>
<polygon fill="#63b8ff" stroke="#63b8ff" points="1026.2,-393 1036.2,-389.5 1026.2,-386 1026.2,-393"/>
</g>
<!-- Node5&#45;&gt;Node3 -->
<g id="edge5" class="edge">
<title>Node5&#45;&gt;Node3</title>
<path fill="none" stroke="#63b8ff" d="M1013.84,-466.57C1062.74,-464.97 1130.8,-457.33 1184,-430.5 1204.2,-420.31 1200.86,-406.56 1220,-394.5 1229.21,-388.69 1240.02,-384.06 1250.27,-380.48"/>
<polygon fill="#63b8ff" stroke="#63b8ff" points="1013.9,-463.07 1003.98,-466.81 1014.07,-470.07 1013.9,-463.07"/>
</g>
<!-- Node6 -->
<g id="node6" class="node">
<title>Node6</title>
<g id="a_node6"><a xlink:href="TransmitterCode_2src_2main_8cpp.html#a9d94366336f1e5fd43edb9c24bec5821" target="_top" xlink:title=" ">
<polygon fill="white" stroke="#666666" points="831,-616 763,-616 763,-597 831,-597 831,-616"/>
<text text-anchor="middle" x="797" y="-604" font-family="Helvetica,sans-Serif" font-size="10.00">RenameFile</text>
</a>
</g>
</g>
<!-- Node5&#45;&gt;Node6 -->
<g id="edge6" class="edge">
<title>Node5&#45;&gt;Node6</title>
<path fill="none" stroke="#63b8ff" d="M931.44,-483.52C920.92,-495.07 907.49,-510.63 897,-525.5 878.41,-551.85 886.38,-568.6 861,-588.5 852.5,-595.17 841.63,-599.37 831.32,-602.01"/>
<polygon fill="#63b8ff" stroke="#63b8ff" points="933.88,-486.04 938.11,-476.32 928.75,-481.28 933.88,-486.04"/>
</g>
<!-- Node7&#45;&gt;Node3 -->
<g id="edge8" class="edge">
<title>Node7&#45;&gt;Node3</title>
<path fill="none" stroke="#63b8ff" d="M1004.05,-426.16C1051.76,-424.91 1123.23,-420.7 1184,-407.5 1200.62,-403.89 1203.98,-400.22 1220,-394.5 1232.97,-389.87 1247.35,-384.79 1259.53,-380.5"/>
<polygon fill="#63b8ff" stroke="#63b8ff" points="1004.18,-422.66 994.26,-426.38 1004.34,-429.65 1004.18,-422.66"/>
</g>
<!-- Node7&#45;&gt;Node6 -->
<g id="edge22" class="edge">
<title>Node7&#45;&gt;Node6</title>
<path fill="none" stroke="#63b8ff" d="M902.39,-442.38C900.44,-443.94 898.62,-445.64 897,-447.5 854.51,-496.26 906.08,-542.12 861,-588.5 853.23,-596.49 842.18,-601 831.49,-603.53"/>
<polygon fill="#63b8ff" stroke="#63b8ff" points="903.81,-445.63 910.36,-437.3 900.05,-439.73 903.81,-445.63"/>
</g>
<!-- Node8 -->
<g id="node8" class="node">
<title>Node8</title>
<g id="a_node8"><a xlink:href="TransmitterCode_2src_2main_8cpp.html#ac45477c637c975e13189e2988c8813b3" target="_top" xlink:title=" ">
<polygon fill="white" stroke="#666666" points="837,-394 757,-394 757,-375 837,-375 837,-394"/>
<text text-anchor="middle" x="797" y="-382" font-family="Helvetica,sans-Serif" font-size="10.00">DeleteModelID</text>
</a>
</g>
</g>
<!-- Node7&#45;&gt;Node8 -->
<g id="edge9" class="edge">
<title>Node7&#45;&gt;Node8</title>
<path fill="none" stroke="#63b8ff" d="M901.75,-413.45C879.79,-407.32 854.03,-400.14 833.67,-394.45"/>
<polygon fill="#63b8ff" stroke="#63b8ff" points="900.8,-416.82 911.38,-416.14 902.68,-410.08 900.8,-416.82"/>
</g>
<!-- Node9 -->
<g id="node9" class="node">
<title>Node9</title>
<g id="a_node9"><a xlink:href="TransmitterCode_2src_2main_8cpp.html#a53d438145d004c3b053f245f494f4284" target="_top" xlink:title=" ">
<polygon fill="white" stroke="#666666" points="823,-542 771,-542 771,-523 823,-523 823,-542"/>
<text text-anchor="middle" x="797" y="-530" font-family="Helvetica,sans-Serif" font-size="10.00">DelLOG</text>
</a>
</g>
</g>
<!-- Node7&#45;&gt;Node9 -->
<g id="edge10" class="edge">
<title>Node7&#45;&gt;Node9</title>
<path fill="none" stroke="#63b8ff" d="M904.42,-441.9C901.78,-443.59 899.28,-445.45 897,-447.5 871.87,-470.1 887.33,-493.3 861,-514.5 850.37,-523.06 835.86,-527.55 823.45,-529.91"/>
<polygon fill="#63b8ff" stroke="#63b8ff" points="905.95,-445.05 913.07,-437.21 902.61,-438.89 905.95,-445.05"/>
</g>
<!-- Node10 -->
<g id="node10" class="node">
<title>Node10</title>
<g id="a_node10"><a xlink:href="TransmitterCode_2src_2main_8cpp.html#a16c65917a148c7f6c17babf11e977b69" target="_top" xlink:title=" ">
<polygon fill="white" stroke="#666666" points="838,-505 756,-505 756,-486 838,-486 838,-505"/>
<text text-anchor="middle" x="797" y="-493" font-family="Helvetica,sans-Serif" font-size="10.00">EndBuddyView</text>
</a>
</g>
</g>
<!-- Node7&#45;&gt;Node10 -->
<g id="edge11" class="edge">
<title>Node7&#45;&gt;Node10</title>
<path fill="none" stroke="#63b8ff" d="M909.21,-441.03C905,-443.02 900.85,-445.19 897,-447.5 879.15,-458.23 879.41,-467.76 861,-477.5 853.96,-481.22 846.06,-484.26 838.3,-486.7"/>
<polygon fill="#63b8ff" stroke="#63b8ff" points="910.54,-444.27 918.29,-437.04 907.73,-437.86 910.54,-444.27"/>
</g>
<!-- Node11 -->
<g id="node11" class="node">
<title>Node11</title>
<g id="a_node11"><a xlink:href="ModelMatch_8h.html#afdd42b1130d38073be1c2025af855879" target="_top" xlink:title=" ">
<polygon fill="white" stroke="#666666" points="831.5,-283 762.5,-283 762.5,-264 831.5,-264 831.5,-283"/>
<text text-anchor="middle" x="797" y="-271" font-family="Helvetica,sans-Serif" font-size="10.00">IDNotFound</text>
</a>
</g>
</g>
<!-- Node7&#45;&gt;Node11 -->
<g id="edge12" class="edge">
<title>Node7&#45;&gt;Node11</title>
<path fill="none" stroke="#63b8ff" d="M899.74,-410.12C898.79,-409.29 897.87,-408.42 897,-407.5 859.84,-368.34 899.6,-329.24 861,-291.5 853.19,-283.87 842.38,-279.43 831.92,-276.86"/>
<polygon fill="#63b8ff" stroke="#63b8ff" points="897.76,-413 908.01,-415.67 901.66,-407.19 897.76,-413"/>
</g>
<!-- Node18 -->
<g id="node18" class="node">
<title>Node18</title>
<g id="a_node18"><a xlink:href="TransmitterCode_2src_2main_8cpp.html#ae9f91b9da28f2e1e2fb126961f03c31c" target="_top" xlink:title=" ">
<polygon fill="white" stroke="#666666" points="837.5,-209 756.5,-209 756.5,-190 837.5,-190 837.5,-209"/>
<text text-anchor="middle" x="797" y="-197" font-family="Helvetica,sans-Serif" font-size="10.00">ModelViewEnd</text>
</a>
</g>
</g>
<!-- Node7&#45;&gt;Node18 -->
<g id="edge20" class="edge">
<title>Node7&#45;&gt;Node18</title>
<path fill="none" stroke="#63b8ff" d="M899.17,-409.83C898.41,-409.09 897.69,-408.31 897,-407.5 841.48,-341.89 918.95,-280.98 861,-217.5 854.86,-210.78 846.41,-206.5 837.69,-203.8"/>
<polygon fill="#63b8ff" stroke="#63b8ff" points="897.01,-412.59 907.14,-415.7 901.16,-406.95 897.01,-412.59"/>
</g>
<!-- Node7&#45;&gt;Node19 -->
<g id="edge21" class="edge">
<title>Node7&#45;&gt;Node19</title>
<path fill="none" stroke="#63b8ff" d="M899.09,-409.82C898.36,-409.08 897.66,-408.31 897,-407.5 832.19,-328.54 909.64,-270.32 861,-180.5 849.97,-160.14 828.78,-143.31 814.03,-133.34"/>
<polygon fill="#63b8ff" stroke="#63b8ff" points="896.7,-412.4 906.79,-415.63 900.92,-406.81 896.7,-412.4"/>
</g>
<!-- Node20 -->
<g id="node20" class="node">
<title>Node20</title>
<g id="a_node20"><a xlink:href="TransmitterCode_2src_2main_8cpp.html#a75875d66db3193e4034c3768c175f8ef" target="_top" xlink:title=" ">
<polygon fill="white" stroke="#666666" points="830.5,-357 763.5,-357 763.5,-338 830.5,-338 830.5,-357"/>
<text text-anchor="middle" x="797" y="-345" font-family="Helvetica,sans-Serif" font-size="10.00">ResetClock</text>
</a>
</g>
</g>
<!-- Node7&#45;&gt;Node20 -->
<g id="edge23" class="edge">
<title>Node7&#45;&gt;Node20</title>
<path fill="none" stroke="#63b8ff" d="M903.89,-411.74C901.49,-410.43 899.18,-409.02 897,-407.5 876.82,-393.46 881.7,-378.77 861,-365.5 852,-359.73 841.11,-355.77 830.94,-353.07"/>
<polygon fill="#63b8ff" stroke="#63b8ff" points="902.14,-414.78 912.67,-415.92 905.15,-408.46 902.14,-414.78"/>
</g>
<!-- Node21 -->
<g id="node21" class="node">
<title>Node21</title>
<g id="a_node21"><a xlink:href="TransmitterCode_2src_2main_8cpp.html#a5c7f22bae35d5d6df9d54fe79dbb8401" target="_top" xlink:title=" ">
<polygon fill="white" stroke="#666666" points="861,-468 733,-468 733,-449 861,-449 861,-468"/>
<text text-anchor="middle" x="797" y="-456" font-family="Helvetica,sans-Serif" font-size="10.00">ResetTransmitterSettings</text>
</a>
</g>
</g>
<!-- Node7&#45;&gt;Node21 -->
<g id="edge24" class="edge">
<title>Node7&#45;&gt;Node21</title>
<path fill="none" stroke="#63b8ff" d="M895.14,-437.85C878.79,-441.32 860.92,-445.12 845.03,-448.5"/>
<polygon fill="#63b8ff" stroke="#63b8ff" points="895.64,-441.32 904.7,-435.81 894.19,-434.47 895.64,-441.32"/>
</g>
<!-- Node22 -->
<g id="node22" class="node">
<title>Node22</title>
<g id="a_node22"><a xlink:href="TransmitterCode_2src_2main_8cpp.html#a3838aa0b33bb22d3b9934da05d2716d8" target="_top" xlink:title=" ">
<polygon fill="white" stroke="#666666" points="835,-431 759,-431 759,-412 835,-412 835,-431"/>
<text text-anchor="middle" x="797" y="-419" font-family="Helvetica,sans-Serif" font-size="10.00">StoreModelID</text>
</a>
</g>
</g>
<!-- Node7&#45;&gt;Node22 -->
<g id="edge25" class="edge">
<title>Node7&#45;&gt;Node22</title>
<path fill="none" stroke="#63b8ff" d="M894.88,-424.72C875.2,-424.06 853.35,-423.34 835.4,-422.74"/>
<polygon fill="#63b8ff" stroke="#63b8ff" points="894.55,-428.21 904.66,-425.04 894.79,-421.21 894.55,-428.21"/>
</g>
<!-- Node23 -->
<g id="node23" class="node">
<title>Node23</title>
<g id="a_node23"><a xlink:href="TransmitterCode_2src_2main_8cpp.html#a3c55ef7c23759a89a86f6519569c4f7a" target="_top" xlink:title=" ">
<polygon fill="white" stroke="#666666" points="846.5,-579 747.5,-579 747.5,-560 846.5,-560 846.5,-579"/>
<text text-anchor="middle" x="797" y="-567" font-family="Helvetica,sans-Serif" font-size="10.00">TXModuleViewEnd</text>
</a>
</g>
</g>
<!-- Node7&#45;&gt;Node23 -->
<g id="edge26" class="edge">
<title>Node7&#45;&gt;Node23</title>
<path fill="none" stroke="#63b8ff" d="M903.35,-441.98C901.06,-443.64 898.92,-445.48 897,-447.5 863.36,-483.01 896.52,-517.88 861,-551.5 856.87,-555.41 851.95,-558.48 846.7,-560.89"/>
<polygon fill="#63b8ff" stroke="#63b8ff" points="904.64,-445.28 911.45,-437.16 901.06,-439.27 904.64,-445.28"/>
</g>
<!-- Node12 -->
<g id="node12" class="node">
<title>Node12</title>
<g id="a_node12"><a xlink:href="ModelMatch_8h.html#af8fe429ceb65bf9d257a2a0f1c63eccb" target="_top" xlink:title=" ">
<polygon fill="white" stroke="#666666" points="691.5,-283 589.5,-283 589.5,-264 691.5,-264 691.5,-283"/>
<text text-anchor="middle" x="640.5" y="-271" font-family="Helvetica,sans-Serif" font-size="10.00">CompareModelsIDs</text>
</a>
</g>
</g>
<!-- Node11&#45;&gt;Node12 -->
<g id="edge13" class="edge">
<title>Node11&#45;&gt;Node12</title>
<path fill="none" stroke="#63b8ff" d="M750.72,-273.5C732.22,-273.5 710.75,-273.5 691.76,-273.5"/>
<polygon fill="#63b8ff" stroke="#63b8ff" points="750.58,-277 760.58,-273.5 750.58,-270 750.58,-277"/>
</g>
<!-- Node13 -->
<g id="node13" class="node">
<title>Node13</title>
<g id="a_node13"><a xlink:href="ModelMatch_8h.html#a494cb4acb30856d1f53f08df1b80c41b" target="_top" xlink:title=" ">
<polygon fill="white" stroke="#666666" points="547.5,-283 428.5,-283 428.5,-264 547.5,-264 547.5,-283"/>
<text text-anchor="middle" x="488" y="-271" font-family="Helvetica,sans-Serif" font-size="10.00">GetModelsMacAddress</text>
</a>
</g>
</g>
<!-- Node12&#45;&gt;Node13 -->
<g id="edge14" class="edge">
<title>Node12&#45;&gt;Node13</title>
<path fill="none" stroke="#63b8ff" d="M577.89,-273.5C567.93,-273.5 557.65,-273.5 547.76,-273.5"/>
<polygon fill="#63b8ff" stroke="#63b8ff" points="577.87,-277 587.87,-273.5 577.87,-270 577.87,-277"/>
</g>
<!-- Node14 -->
<g id="node14" class="node">
<title>Node14</title>
<g id="a_node14"><a xlink:href="TransmitterCode_2src_2main_8cpp.html#a694f4f5a0147f4dc29b0bc1a8951547d" target="_top" xlink:title=" ">
<polygon fill="white" stroke="#666666" points="392,-245 298,-245 298,-226 392,-226 392,-245"/>
<text text-anchor="middle" x="345" y="-233" font-family="Helvetica,sans-Serif" font-size="10.00">ParseAckPayload</text>
</a>
</g>
</g>
<!-- Node13&#45;&gt;Node14 -->
<g id="edge15" class="edge">
<title>Node13&#45;&gt;Node14</title>
<path fill="none" stroke="#63b8ff" d="M438.87,-260.53C420.53,-255.59 399.93,-250.03 382.8,-245.42"/>
<polygon fill="#63b8ff" stroke="#63b8ff" points="437.93,-263.9 448.49,-263.12 439.75,-257.14 437.93,-263.9"/>
</g>
<!-- Node15 -->
<g id="node15" class="node">
<title>Node15</title>
<g id="a_node15"><a xlink:href="transceiver_8h.html#a1c11bb6771548de7d96723045b922620" target="_top" xlink:title=" ">
<polygon fill="white" stroke="#666666" points="262,-227 166,-227 166,-208 262,-208 262,-227"/>
<text text-anchor="middle" x="214" y="-215" font-family="Helvetica,sans-Serif" font-size="10.00">SuccessfulPacket</text>
</a>
</g>
</g>
<!-- Node14&#45;&gt;Node15 -->
<g id="edge16" class="edge">
<title>Node14&#45;&gt;Node15</title>
<path fill="none" stroke="#63b8ff" d="M286.47,-227.47C278.35,-226.34 270.08,-225.19 262.19,-224.08"/>
<polygon fill="#63b8ff" stroke="#63b8ff" points="285.91,-230.93 296.29,-228.84 286.87,-223.99 285.91,-230.93"/>
</g>
<!-- Node16 -->
<g id="node16" class="node">
<title>Node16</title>
<g id="a_node16"><a xlink:href="transceiver_8h.html#a049bfb836e7aa4a3a48a1a4bd225fafc" target="_top" xlink:title=" ">
<polygon fill="white" stroke="#666666" points="130,-171 71,-171 71,-152 130,-152 130,-171"/>
<text text-anchor="middle" x="100.5" y="-159" font-family="Helvetica,sans-Serif" font-size="10.00">SendData</text>
</a>
</g>
</g>
<!-- Node15&#45;&gt;Node16 -->
<g id="edge17" class="edge">
<title>Node15&#45;&gt;Node16</title>
<path fill="none" stroke="#63b8ff" d="M183.1,-202.48C163.53,-192.65 138.5,-180.08 121.36,-171.47"/>
<polygon fill="#63b8ff" stroke="#63b8ff" points="181.46,-205.58 191.97,-206.94 184.6,-199.32 181.46,-205.58"/>
</g>
<!-- Node16&#45;&gt;Node3 -->
<g id="edge18" class="edge">
<title>Node16&#45;&gt;Node3</title>
<path fill="none" stroke="#63b8ff" d="M141.69,-161.5C189.8,-161.5 272.78,-161.5 344,-161.5 641.5,-161.5 641.5,-161.5 641.5,-161.5 739.42,-161.5 768.59,-148.11 861,-180.5 879.15,-186.86 880.68,-194.33 897,-204.5 958.52,-242.85 971.97,-256.58 1038,-286.5 1110.98,-319.57 1201.01,-346.68 1250.67,-360.53"/>
<polygon fill="#63b8ff" stroke="#63b8ff" points="141.76,-158 131.76,-161.5 141.76,-165 141.76,-158"/>
</g>
<!-- Node17 -->
<g id="node17" class="node">
<title>Node17</title>
<g id="a_node17"><a xlink:href="TransmitterCode_2src_2main_8cpp.html#ad3cb30894c94eb016e98bdcaa899ac86" target="_top" xlink:title=" ">
<polygon fill="white" stroke="#666666" points="35,-57 0,-57 0,-38 35,-38 35,-57"/>
<text text-anchor="middle" x="17.5" y="-45" font-family="Helvetica,sans-Serif" font-size="10.00">loop</text>
</a>
</g>
</g>
<!-- Node16&#45;&gt;Node17 -->
<g id="edge19" class="edge">
<title>Node16&#45;&gt;Node17</title>
<path fill="none" stroke="#63b8ff" d="M85.94,-142.41C68.47,-117.83 38.76,-76.02 25.39,-57.19"/>
<polygon fill="#63b8ff" stroke="#63b8ff" points="83.07,-144.42 91.72,-150.55 88.78,-140.37 83.07,-144.42"/>
</g>
<!-- Node24&#45;&gt;Node17 -->
<g id="edge28" class="edge">
<title>Node24&#45;&gt;Node17</title>
<path fill="none" stroke="#63b8ff" d="M887.39,-47.5C825.43,-47.5 726.8,-47.5 641.5,-47.5 641.5,-47.5 641.5,-47.5 213,-47.5 147.32,-47.5 69.17,-47.5 35.41,-47.5"/>
<polygon fill="#63b8ff" stroke="#63b8ff" points="887,-51 897,-47.5 887,-44 887,-51"/>
</g>
<!-- Node25&#45;&gt;Node8 -->
<g id="edge33" class="edge">
<title>Node25&#45;&gt;Node8</title>
<path fill="none" stroke="#63b8ff" d="M911.85,-388.28C889.32,-387.53 860.46,-386.58 837.44,-385.81"/>
<polygon fill="#63b8ff" stroke="#63b8ff" points="911.69,-391.78 921.8,-388.61 911.92,-384.78 911.69,-391.78"/>
</g>
<!-- Node25&#45;&gt;Node11 -->
<g id="edge34" class="edge">
<title>Node25&#45;&gt;Node11</title>
<path fill="none" stroke="#63b8ff" d="M912.74,-376.77C907.03,-373.68 901.53,-369.95 897,-365.5 870.92,-339.85 889.02,-315.01 861,-291.5 852.81,-284.63 842.14,-280.37 831.92,-277.74"/>
<polygon fill="#63b8ff" stroke="#63b8ff" points="911.16,-379.9 921.7,-381.02 914.16,-373.57 911.16,-379.9"/>
</g>
<!-- Node25&#45;&gt;Node20 -->
<g id="edge35" class="edge">
<title>Node25&#45;&gt;Node20</title>
<path fill="none" stroke="#63b8ff" d="M912.53,-379.46C887.74,-372.54 855.03,-363.42 830.92,-356.69"/>
<polygon fill="#63b8ff" stroke="#63b8ff" points="911.28,-382.75 921.85,-382.06 913.16,-376 911.28,-382.75"/>
</g>
<!-- Node25&#45;&gt;Node22 -->
<g id="edge37" class="edge">
<title>Node25&#45;&gt;Node22</title>
<path fill="none" stroke="#63b8ff" d="M912.18,-397.22C888.94,-402.16 858.87,-408.56 835.42,-413.54"/>
<polygon fill="#63b8ff" stroke="#63b8ff" points="912.78,-400.67 921.83,-395.17 911.32,-393.83 912.78,-400.67"/>
</g>
<!-- Node26 -->
<g id="node26" class="node">
<title>Node26</title>
<g id="a_node26"><a xlink:href="TransmitterCode_2src_2main_8cpp.html#ad496cd10d726d7c5757d01a922c2aa25" target="_top" xlink:title=" ">
<polygon fill="white" stroke="#666666" points="861,-246 733,-246 733,-227 861,-227 861,-246"/>
<text text-anchor="middle" x="797" y="-234" font-family="Helvetica,sans-Serif" font-size="10.00">CompareVersionNumbers</text>
</a>
</g>
</g>
<!-- Node25&#45;&gt;Node26 -->
<g id="edge30" class="edge">
<title>Node25&#45;&gt;Node26</title>
<path fill="none" stroke="#63b8ff" d="M912.97,-377.7C907.04,-374.49 901.4,-370.47 897,-365.5 862.64,-326.65 898.31,-290.52 861,-254.5 857.64,-251.26 853.75,-248.6 849.57,-246.41"/>
<polygon fill="#63b8ff" stroke="#63b8ff" points="911.13,-380.71 921.67,-381.76 914.09,-374.37 911.13,-380.71"/>
</g>
<!-- Node28 -->
<g id="node28" class="node">
<title>Node28</title>
<g id="a_node28"><a xlink:href="ModelExchange_8h.html#ac36bdea2efcd030a336293af16f5dc09" target="_top" xlink:title=" ">
<polygon fill="white" stroke="#666666" points="839.5,-320 754.5,-320 754.5,-301 839.5,-301 839.5,-320"/>
<text text-anchor="middle" x="797" y="-308" font-family="Helvetica,sans-Serif" font-size="10.00">ShowRemoteID</text>
</a>
</g>
</g>
<!-- Node25&#45;&gt;Node28 -->
<g id="edge36" class="edge">
<title>Node25&#45;&gt;Node28</title>
<path fill="none" stroke="#63b8ff" d="M913.16,-375.13C907.56,-372.26 901.98,-369.03 897,-365.5 878.29,-352.21 880.69,-340.27 861,-328.5 854.56,-324.65 847.25,-321.59 839.95,-319.16"/>
<polygon fill="#63b8ff" stroke="#63b8ff" points="911.23,-378.09 921.77,-379.22 914.24,-371.77 911.23,-378.09"/>
</g>
<!-- Node27 -->
<g id="node27" class="node">
<title>Node27</title>
<g id="a_node27"><a xlink:href="TransmitterCode_2src_2main_8cpp.html#a4f813935d8fe58355228cbbf25e12f96" target="_top" xlink:title=" ">
<polygon fill="white" stroke="#666666" points="697,-245 584,-245 584,-226 697,-226 697,-245"/>
<text text-anchor="middle" x="640.5" y="-233" font-family="Helvetica,sans-Serif" font-size="10.00">GetRXVersionNumber</text>
</a>
</g>
</g>
<!-- Node26&#45;&gt;Node27 -->
<g id="edge31" class="edge">
<title>Node26&#45;&gt;Node27</title>
<path fill="none" stroke="#63b8ff" d="M721.24,-236.02C713.08,-235.96 704.89,-235.91 697.02,-235.86"/>
<polygon fill="#63b8ff" stroke="#63b8ff" points="721.18,-239.52 731.2,-236.08 721.22,-232.52 721.18,-239.52"/>
</g>
<!-- Node27&#45;&gt;Node14 -->
<g id="edge32" class="edge">
<title>Node27&#45;&gt;Node14</title>
<path fill="none" stroke="#63b8ff" d="M572.18,-235.5C517.01,-235.5 440.42,-235.5 392.04,-235.5"/>
<polygon fill="#63b8ff" stroke="#63b8ff" points="572.09,-239 582.09,-235.5 572.09,-232 572.09,-239"/>
</g>
<!-- Node30&#45;&gt;Node2 -->
<g id="edge48" class="edge">
<title>Node30&#45;&gt;Node2</title>
<path fill="none" stroke="#63b8ff" d="M1562.96,-390.75C1554.56,-410.87 1541.49,-442.66 1531,-470.5 1513.89,-515.88 1527.26,-537.29 1495,-573.5 1489.73,-579.42 1482.67,-584.02 1475.54,-587.54"/>
<polygon fill="#63b8ff" stroke="#63b8ff" points="1566.09,-392.34 1566.73,-381.77 1559.63,-389.64 1566.09,-392.34"/>
</g>
<!-- Node30&#45;&gt;Node3 -->
<g id="edge41" class="edge">
<title>Node30&#45;&gt;Node3</title>
<path fill="none" stroke="#63b8ff" d="M1519.06,-370.5C1467.66,-370.5 1389.9,-370.5 1339.52,-370.5"/>
<polygon fill="#63b8ff" stroke="#63b8ff" points="1519.05,-374 1529.05,-370.5 1519.05,-367 1519.05,-374"/>
</g>
<!-- Node30&#45;&gt;Node11 -->
<g id="edge47" class="edge">
<title>Node30&#45;&gt;Node11</title>
<path fill="none" stroke="#63b8ff" d="M1544.96,-355.03C1496.18,-328.12 1388.27,-275.5 1290,-275.5 1290,-275.5 1290,-275.5 1110,-275.5 1008.71,-275.5 888.92,-274.43 831.7,-273.86"/>
<polygon fill="#63b8ff" stroke="#63b8ff" points="1542.96,-357.93 1553.39,-359.77 1546.39,-351.82 1542.96,-357.93"/>
</g>
<!-- Node30&#45;&gt;Node12 -->
<g id="edge46" class="edge">
<title>Node30&#45;&gt;Node12</title>
<path fill="none" stroke="#63b8ff" d="M1565.33,-390.85C1555.37,-420.2 1532.94,-474.1 1495,-503.5 1394.77,-581.17 1341.3,-542.55 1220,-579.5 1203.87,-584.41 1200.48,-587.93 1184,-591.5 1042.92,-622.06 1005.15,-617.93 861,-625.5 804.19,-628.48 778,-660.3 733,-625.5 675.93,-581.37 647.84,-335.58 642.47,-283.29"/>
<polygon fill="#63b8ff" stroke="#63b8ff" points="1568.54,-392.28 1568.28,-381.69 1561.88,-390.14 1568.54,-392.28"/>
</g>
<!-- Node30&#45;&gt;Node18 -->
<g id="edge62" class="edge">
<title>Node30&#45;&gt;Node18</title>
<path fill="none" stroke="#63b8ff" d="M1567.67,-349.64C1560.24,-315.77 1540.43,-249.48 1495,-218.5 1419.4,-166.95 1381.5,-199.5 1290,-199.5 1290,-199.5 1290,-199.5 1110,-199.5 1012.23,-199.5 897.22,-199.5 837.89,-199.5"/>
<polygon fill="#63b8ff" stroke="#63b8ff" points="1564.16,-349.94 1569.57,-359.04 1571.02,-348.55 1564.16,-349.94"/>
</g>
<!-- Node30&#45;&gt;Node19 -->
<g id="edge63" class="edge">
<title>Node30&#45;&gt;Node19</title>
<path fill="none" stroke="#63b8ff" d="M1568.71,-349.67C1562.52,-311.56 1544.05,-230.42 1495,-185.5 1400.03,-98.54 984.36,-113.09 844.28,-120.66"/>
<polygon fill="#63b8ff" stroke="#63b8ff" points="1565.22,-349.95 1570.15,-359.33 1572.14,-348.92 1565.22,-349.95"/>
</g>
<!-- Node31 -->
<g id="node31" class="node">
<title>Node31</title>
<g id="a_node31"><a xlink:href="TransmitterCode_2src_2main_8cpp.html#a6a25e5ab5c13c780c12cdd6fe0a85049" target="_top" xlink:title=" ">
<polygon fill="white" stroke="#666666" points="1492,-494 1397,-494 1397,-475 1492,-475 1492,-494"/>
<text text-anchor="middle" x="1444.5" y="-482" font-family="Helvetica,sans-Serif" font-size="10.00">CheckAllModelIds</text>
</a>
</g>
</g>
<!-- Node30&#45;&gt;Node31 -->
<g id="edge42" class="edge">
<title>Node30&#45;&gt;Node31</title>
<path fill="none" stroke="#63b8ff" d="M1558.73,-389.8C1544.9,-409.56 1521.25,-440.17 1495,-460.5 1487.83,-466.05 1479.16,-470.79 1471.1,-474.55"/>
<polygon fill="#63b8ff" stroke="#63b8ff" points="1561.6,-391.81 1564.35,-381.57 1555.82,-387.86 1561.6,-391.81"/>
</g>
<!-- Node32 -->
<g id="node32" class="node">
<title>Node32</title>
<g id="a_node32"><a xlink:href="TransmitterCode_2src_2main_8cpp.html#a5c0f1fd26cdd6ecde365f521060158ba" target="_top" xlink:title=" ">
<polygon fill="white" stroke="#666666" points="1493,-95 1396,-95 1396,-76 1493,-76 1493,-95"/>
<text text-anchor="middle" x="1444.5" y="-83" font-family="Helvetica,sans-Serif" font-size="10.00">CheckModelName</text>
</a>
</g>
</g>
<!-- Node30&#45;&gt;Node32 -->
<g id="edge43" class="edge">
<title>Node30&#45;&gt;Node32</title>
<path fill="none" stroke="#63b8ff" d="M1570.9,-349.29C1568.45,-301.06 1556.18,-181.81 1495,-109.5 1489.94,-103.52 1483.04,-98.91 1476.01,-95.4"/>
<polygon fill="#63b8ff" stroke="#63b8ff" points="1567.4,-349.3 1571.29,-359.15 1574.39,-349.02 1567.4,-349.3"/>
</g>
<!-- Node34 -->
<g id="node34" class="node">
<title>Node34</title>
<g id="a_node34"><a xlink:href="BuddyWireless_8h.html#ab0ba1642fb6c43525579b989c7b60dad" target="_top" xlink:title=" ">
<polygon fill="white" stroke="#666666" points="1492.5,-39 1396.5,-39 1396.5,-20 1492.5,-20 1492.5,-39"/>
<text text-anchor="middle" x="1444.5" y="-27" font-family="Helvetica,sans-Serif" font-size="10.00">LoadCorrectModel</text>
</a>
</g>
</g>
<!-- Node30&#45;&gt;Node34 -->
<g id="edge49" class="edge">
<title>Node30&#45;&gt;Node34</title>
<path fill="none" stroke="#63b8ff" d="M1570.92,-349.2C1568.55,-296.72 1556.48,-158.77 1495,-66.5 1487.39,-55.07 1475.01,-45.82 1464.54,-39.43"/>
<polygon fill="#63b8ff" stroke="#63b8ff" points="1567.42,-349.24 1571.29,-359.11 1574.42,-348.99 1567.42,-349.24"/>
</g>
<!-- Node38 -->
<g id="node38" class="node">
<title>Node38</title>
<g id="a_node38"><a xlink:href="TransmitterCode_2src_2main_8cpp.html#a3707639fbc6c8c053b888cd618869146" target="_top" xlink:title=" ">
<polygon fill="white" stroke="#666666" points="1172,-582 1050,-582 1050,-563 1172,-563 1172,-582"/>
<text text-anchor="middle" x="1111" y="-570" font-family="Helvetica,sans-Serif" font-size="10.00">LoadModelForRenaming</text>
</a>
</g>
</g>
<!-- Node30&#45;&gt;Node38 -->
<g id="edge54" class="edge">
<title>Node30&#45;&gt;Node38</title>
<path fill="none" stroke="#63b8ff" d="M1544.05,-385.88C1481.75,-420.27 1324.17,-504.26 1184,-554.5 1175.63,-557.5 1166.54,-560.19 1157.73,-562.52"/>
<polygon fill="#63b8ff" stroke="#63b8ff" points="1545.51,-389.07 1552.56,-381.16 1542.12,-382.95 1545.51,-389.07"/>
</g>
<!-- Node39 -->
<g id="node39" class="node">
<title>Node39</title>
<g id="a_node39"><a xlink:href="TransmitterCode_2src_2main_8cpp.html#a6684199e9da3ca0bdb0e01260eec7e30" target="_top" xlink:title=" ">
<polygon fill="white" stroke="#666666" points="1495,-247 1394,-247 1394,-228 1495,-228 1495,-247"/>
<text text-anchor="middle" x="1444.5" y="-235" font-family="Helvetica,sans-Serif" font-size="10.00">LoadModelSelector</text>
</a>
</g>
</g>
<!-- Node30&#45;&gt;Node39 -->
<g id="edge56" class="edge">
<title>Node30&#45;&gt;Node39</title>
<path fill="none" stroke="#63b8ff" d="M1561.55,-350.51C1548.86,-326.71 1524.94,-286.98 1495,-261.5 1488.31,-255.81 1480.03,-251.1 1472.18,-247.42"/>
<polygon fill="#63b8ff" stroke="#63b8ff" points="1558.32,-351.88 1566.01,-359.16 1564.53,-348.67 1558.32,-351.88"/>
</g>
<!-- Node42 -->
<g id="node42" class="node">
<title>Node42</title>
<g id="a_node42"><a xlink:href="TransmitterCode_2src_2main_8cpp.html#aa1f353c2c61131eeafa77c6e67608e45" target="_top" xlink:title=" ">
<polygon fill="white" stroke="#666666" points="1165,-545 1057,-545 1057,-526 1165,-526 1165,-545"/>
<text text-anchor="middle" x="1111" y="-533" font-family="Helvetica,sans-Serif" font-size="10.00">RestoreCurrentModel</text>
</a>
</g>
</g>
<!-- Node30&#45;&gt;Node42 -->
<g id="edge64" class="edge">
<title>Node30&#45;&gt;Node42</title>
<path fill="none" stroke="#63b8ff" d="M1519.3,-380.11C1511.17,-381.59 1502.86,-383.09 1495,-384.5 1372.87,-406.33 1330.77,-376.61 1220,-432.5 1208.14,-438.48 1146.02,-500.93 1121.74,-525.58"/>
<polygon fill="#63b8ff" stroke="#63b8ff" points="1519.92,-383.56 1529.13,-378.32 1518.66,-376.67 1519.92,-383.56"/>
</g>
<!-- Node32&#45;&gt;Node24 -->
<g id="edge45" class="edge">
<title>Node32&#45;&gt;Node24</title>
<path fill="none" stroke="#63b8ff" d="M1394.39,-73.07C1382.55,-70.49 1369.88,-68.08 1358,-66.5 1229.88,-49.41 1077.34,-47.03 1000.3,-47.07"/>
<polygon fill="#63b8ff" stroke="#63b8ff" points="1393.44,-76.44 1403.97,-75.24 1394.99,-69.62 1393.44,-76.44"/>
</g>
<!-- Node33 -->
<g id="node33" class="node">
<title>Node33</title>
<g id="a_node33"><a xlink:href="TransmitterCode_2src_2main_8cpp.html#ae267eaa80a4b3eb49ba10a97469eb7e9" target="_top" xlink:title=" ">
<polygon fill="white" stroke="#666666" points="1323.5,-95 1254.5,-95 1254.5,-76 1323.5,-76 1323.5,-95"/>
<text text-anchor="middle" x="1289" y="-83" font-family="Helvetica,sans-Serif" font-size="10.00">DoMFName</text>
</a>
</g>
</g>
<!-- Node32&#45;&gt;Node33 -->
<g id="edge44" class="edge">
<title>Node32&#45;&gt;Node33</title>
<path fill="none" stroke="#63b8ff" d="M1384.53,-85.5C1363.89,-85.5 1341.42,-85.5 1323.58,-85.5"/>
<polygon fill="#63b8ff" stroke="#63b8ff" points="1384.26,-89 1394.26,-85.5 1384.26,-82 1384.26,-89"/>
</g>
<!-- Node35 -->
<g id="node35" class="node">
<title>Node35</title>
<g id="a_node35"><a xlink:href="BuddyWireless_8h.html#abe67b2cf1cd907bd032ea0a712f1c4cb" target="_top" xlink:title=" ">
<polygon fill="white" stroke="#666666" points="1358,-19 1220,-19 1220,0 1358,0 1358,-19"/>
<text text-anchor="middle" x="1289" y="-7" font-family="Helvetica,sans-Serif" font-size="10.00">CheckModelMatchesMaster</text>
</a>
</g>
</g>
<!-- Node34&#45;&gt;Node35 -->
<g id="edge50" class="edge">
<title>Node34&#45;&gt;Node35</title>
<path fill="none" stroke="#63b8ff" d="M1384.97,-21.87C1376.25,-20.74 1367.21,-19.56 1358.31,-18.4"/>
<polygon fill="#63b8ff" stroke="#63b8ff" points="1384.32,-25.32 1394.69,-23.14 1385.23,-18.38 1384.32,-25.32"/>
</g>
<!-- Node36 -->
<g id="node36" class="node">
<title>Node36</title>
<g id="a_node36"><a xlink:href="BuddyWireless_8h.html#af63784896d400ae2d75d57852e143ca1" target="_top" xlink:title=" ">
<polygon fill="white" stroke="#666666" points="1158.5,-19 1063.5,-19 1063.5,0 1158.5,0 1158.5,-19"/>
<text text-anchor="middle" x="1111" y="-7" font-family="Helvetica,sans-Serif" font-size="10.00">GetSpecialPacket</text>
</a>
</g>
</g>
<!-- Node35&#45;&gt;Node36 -->
<g id="edge51" class="edge">
<title>Node35&#45;&gt;Node36</title>
<path fill="none" stroke="#63b8ff" d="M1208.59,-9.5C1191.56,-9.5 1174.08,-9.5 1158.76,-9.5"/>
<polygon fill="#63b8ff" stroke="#63b8ff" points="1208.19,-13 1218.19,-9.5 1208.19,-6 1208.19,-13"/>
</g>
<!-- Node37 -->
<g id="node37" class="node">
<title>Node37</title>
<g id="a_node37"><a xlink:href="TransmitterCode_2src_2main_8cpp.html#ad2c7ed441d88f2a2b2fca83ff61e714d" target="_top" xlink:title=" ">
<polygon fill="white" stroke="#666666" points="548,-19 428,-19 428,0 548,0 548,-19"/>
<text text-anchor="middle" x="488" y="-7" font-family="Helvetica,sans-Serif" font-size="10.00">DoWirelessBuddyListen</text>
</a>
</g>
</g>
<!-- Node36&#45;&gt;Node37 -->
<g id="edge52" class="edge">
<title>Node36&#45;&gt;Node37</title>
<path fill="none" stroke="#63b8ff" d="M1051.78,-9.5C933.68,-9.5 667.13,-9.5 548.21,-9.5"/>
<polygon fill="#63b8ff" stroke="#63b8ff" points="1051.56,-13 1061.56,-9.5 1051.56,-6 1051.56,-13"/>
</g>
<!-- Node37&#45;&gt;Node17 -->
<g id="edge53" class="edge">
<title>Node37&#45;&gt;Node17</title>
<path fill="none" stroke="#63b8ff" d="M416.36,-9.23C333.22,-9.91 191.24,-14.21 71,-33.5 58.89,-35.44 45.54,-39.02 35.34,-42.08"/>
<polygon fill="#63b8ff" stroke="#63b8ff" points="416.2,-12.73 426.18,-9.16 416.16,-5.73 416.2,-12.73"/>
</g>
<!-- Node38&#45;&gt;Node6 -->
<g id="edge55" class="edge">
<title>Node38&#45;&gt;Node6</title>
<path fill="none" stroke="#63b8ff" d="M1038.44,-580.3C973.33,-587.39 880.14,-597.55 831.09,-602.89"/>
<polygon fill="#63b8ff" stroke="#63b8ff" points="1038.78,-583.78 1048.34,-579.22 1038.02,-576.82 1038.78,-583.78"/>
</g>
<!-- Node39&#45;&gt;Node3 -->
<g id="edge57" class="edge">
<title>Node39&#45;&gt;Node3</title>
<path fill="none" stroke="#63b8ff" d="M1423.65,-254.7C1391.02,-282.97 1327.11,-338.35 1301.25,-360.75"/>
<polygon fill="#63b8ff" stroke="#63b8ff" points="1425.55,-257.68 1430.82,-248.49 1420.97,-252.39 1425.55,-257.68"/>
</g>
<!-- Node39&#45;&gt;Node11 -->
<g id="edge61" class="edge">
<title>Node39&#45;&gt;Node11</title>
<path fill="none" stroke="#63b8ff" d="M1382.18,-238.66C1280.98,-240.92 1072.71,-247.01 897,-261.5 875.26,-263.29 850.94,-266.23 831.84,-268.75"/>
<polygon fill="#63b8ff" stroke="#63b8ff" points="1382.25,-242.16 1392.17,-238.44 1382.1,-235.16 1382.25,-242.16"/>
</g>
<!-- Node40 -->
<g id="node40" class="node">
<title>Node40</title>
<g id="a_node40"><a xlink:href="TransmitterCode_2src_2main_8cpp.html#a446a94169d966af920710f7acddc5257" target="_top" xlink:title=" ">
<polygon fill="white" stroke="#666666" points="1334.5,-171 1243.5,-171 1243.5,-152 1334.5,-152 1334.5,-171"/>
<text text-anchor="middle" x="1289" y="-159" font-family="Helvetica,sans-Serif" font-size="10.00">GotoModelsView</text>
</a>
</g>
</g>
<!-- Node39&#45;&gt;Node40 -->
<g id="edge58" class="edge">
<title>Node39&#45;&gt;Node40</title>
<path fill="none" stroke="#63b8ff" d="M1413.35,-222.57C1382.79,-207.44 1336.39,-184.47 1310.07,-171.44"/>
<polygon fill="#63b8ff" stroke="#63b8ff" points="1411.56,-225.59 1422.08,-226.89 1414.67,-219.32 1411.56,-225.59"/>
</g>
<!-- Node40&#45;&gt;Node19 -->
<g id="edge60" class="edge">
<title>Node40&#45;&gt;Node19</title>
<path fill="none" stroke="#63b8ff" d="M1232.12,-149.9C1216.6,-147.06 1199.7,-144.31 1184,-142.5 1061.86,-128.4 916.79,-124.75 844.21,-123.81"/>
<polygon fill="#63b8ff" stroke="#63b8ff" points="1231.18,-153.28 1241.66,-151.69 1232.48,-146.4 1231.18,-153.28"/>
</g>
<!-- Node41 -->
<g id="node41" class="node">
<title>Node41</title>
<g id="a_node41"><a xlink:href="TransmitterCode_2src_2main_8cpp.html#a7af8e147bab19bdc499ffef595d30aae" target="_top" xlink:title=" ">
<polygon fill="white" stroke="#666666" points="1158.5,-171 1063.5,-171 1063.5,-152 1158.5,-152 1158.5,-171"/>
<text text-anchor="middle" x="1111" y="-159" font-family="Helvetica,sans-Serif" font-size="10.00">EndRenameModel</text>
</a>
</g>
</g>
<!-- Node40&#45;&gt;Node41 -->
<g id="edge59" class="edge">
<title>Node40&#45;&gt;Node41</title>
<path fill="none" stroke="#63b8ff" d="M1231.91,-161.5C1208.4,-161.5 1181.37,-161.5 1158.94,-161.5"/>
<polygon fill="#63b8ff" stroke="#63b8ff" points="1231.62,-165 1241.62,-161.5 1231.62,-158 1231.62,-165"/>
</g>
<!-- Node42&#45;&gt;Node6 -->
<g id="edge65" class="edge">
<title>Node42&#45;&gt;Node6</title>
<path fill="none" stroke="#63b8ff" d="M1045.99,-547.64C1003.58,-555.95 946.78,-567.58 897,-579.5 875,-584.77 850.46,-591.45 831.32,-596.85"/>
<polygon fill="#63b8ff" stroke="#63b8ff" points="1046.64,-551.08 1055.79,-545.73 1045.31,-544.21 1046.64,-551.08"/>
</g>
</g>
</svg>
