<?xml version="1.0" encoding="UTF-8" standalone="no"?>
<!DOCTYPE svg PUBLIC "-//W3C//DTD SVG 1.1//EN"
 "http://www.w3.org/Graphics/SVG/1.1/DTD/svg11.dtd">
<!-- Generated by graphviz version 7.0.5 (20221223.1930)
 -->
<!-- Title: BuddyChViewStart Pages: 1 -->
<svg width="1210pt" height="1226pt"
 viewBox="0.00 0.00 1210.00 1226.34" xmlns="http://www.w3.org/2000/svg" xmlns:xlink="http://www.w3.org/1999/xlink">
<g id="graph0" class="graph" transform="scale(1 1) rotate(0) translate(4 1222.34)">
<title>BuddyChViewStart</title>
<!-- Node1 -->
<g id="node1" class="node">
<title>Node1</title>
<g id="a_node1"><a xlink:title=" ">
<polygon fill="#999999" stroke="#666666" points="98,-47.5 0,-47.5 0,-28.5 98,-28.5 98,-47.5"/>
<text text-anchor="middle" x="49" y="-35.5" font-family="Helvetica,sans-Serif" font-size="10.00">BuddyChViewStart</text>
</a>
</g>
</g>
<!-- Node2 -->
<g id="node2" class="node">
<title>Node2</title>
<g id="a_node2"><a xlink:href="Nextion_8h.html#aecac2f0c289f02ef3c92b85be82eacac" target="_top" xlink:title=" ">
<polygon fill="white" stroke="#666666" points="217,-331.5 134,-331.5 134,-312.5 217,-312.5 217,-331.5"/>
<text text-anchor="middle" x="175.5" y="-319.5" font-family="Helvetica,sans-Serif" font-size="10.00">SendCommand</text>
</a>
</g>
</g>
<!-- Node1&#45;&gt;Node2 -->
<g id="edge1" class="edge">
<title>Node1&#45;&gt;Node2</title>
<path fill="none" stroke="#63b8ff" d="M54.29,-47.78C72.17,-88.57 141.06,-245.71 165.68,-301.89"/>
<polygon fill="#63b8ff" stroke="#63b8ff" points="162.4,-303.13 169.62,-310.88 168.82,-300.32 162.4,-303.13"/>
</g>
<!-- Node69 -->
<g id="node43" class="node">
<title>Node69</title>
<g id="a_node43"><a xlink:href="Nextion_8h.html#a1e20efc1e419b252b50d36f9924503fc" target="_top" xlink:title=" ">
<polygon fill="white" stroke="#666666" points="1060,-161.5 996,-161.5 996,-142.5 1060,-142.5 1060,-161.5"/>
<text text-anchor="middle" x="1028" y="-149.5" font-family="Helvetica,sans-Serif" font-size="10.00">SendValue</text>
</a>
</g>
</g>
<!-- Node1&#45;&gt;Node69 -->
<g id="edge75" class="edge">
<title>Node1&#45;&gt;Node69</title>
<path fill="none" stroke="#63b8ff" d="M88.86,-28.02C136.16,-16.76 218.64,0 290.5,0 290.5,0 290.5,0 714,0 836.07,0 960.46,-94.71 1007.44,-134.61"/>
<polygon fill="#63b8ff" stroke="#63b8ff" points="1005.02,-137.15 1014.87,-141.04 1009.6,-131.85 1005.02,-137.15"/>
</g>
<!-- Node107 -->
<g id="node50" class="node">
<title>Node107</title>
<g id="a_node50"><a xlink:href="TransmitterCode_2src_2main_8cpp.html#abf59862cf6c4e3df5a76f0bfea8919ef" target="_top" xlink:title=" ">
<polygon fill="white" stroke="#666666" points="926.5,-161.5 820.5,-161.5 820.5,-142.5 926.5,-142.5 926.5,-161.5"/>
<text text-anchor="middle" x="873.5" y="-149.5" font-family="Helvetica,sans-Serif" font-size="10.00">UpdateButtonLabels</text>
</a>
</g>
</g>
<!-- Node1&#45;&gt;Node107 -->
<g id="edge76" class="edge">
<title>Node1&#45;&gt;Node107</title>
<path fill="none" stroke="#63b8ff" d="M98.37,-38C146.93,-38 223.9,-38 290.5,-38 290.5,-38 290.5,-38 545,-38 663.24,-38 792.82,-105.1 846.74,-136.34"/>
<polygon fill="#63b8ff" stroke="#63b8ff" points="844.8,-139.26 855.19,-141.31 848.35,-133.23 844.8,-139.26"/>
</g>
<!-- Node3 -->
<g id="node3" class="node">
<title>Node3</title>
<g id="a_node3"><a xlink:href="Utilities_8h.html#a3b1d8aa403e2724e55c71da3d9d13e7e" target="_top" xlink:title=" ">
<polygon fill="white" stroke="#666666" points="330,-744.5 253,-744.5 253,-725.5 330,-725.5 330,-744.5"/>
<text text-anchor="middle" x="291.5" y="-732.5" font-family="Helvetica,sans-Serif" font-size="10.00">DelayWithDog</text>
</a>
</g>
</g>
<!-- Node2&#45;&gt;Node3 -->
<g id="edge2" class="edge">
<title>Node2&#45;&gt;Node3</title>
<path fill="none" stroke="#63b8ff" d="M179.21,-331.8C193.9,-385.03 264.19,-639.69 284.81,-714.37"/>
<polygon fill="#63b8ff" stroke="#63b8ff" points="281.33,-714.94 287.37,-723.65 288.08,-713.08 281.33,-714.94"/>
</g>
<!-- Node40 -->
<g id="node17" class="node">
<title>Node40</title>
<g id="a_node17"><a xlink:href="Nextion_8h.html#a43937dd3d9c795271fd9c3eb3c6b6410" target="_top" xlink:title=" ">
<polygon fill="white" stroke="#666666" points="1202,-161.5 1119,-161.5 1119,-142.5 1202,-142.5 1202,-161.5"/>
<text text-anchor="middle" x="1160.5" y="-149.5" font-family="Helvetica,sans-Serif" font-size="10.00">GetReturnCode</text>
</a>
</g>
</g>
<!-- Node2&#45;&gt;Node40 -->
<g id="edge73" class="edge">
<title>Node2&#45;&gt;Node40</title>
<path fill="none" stroke="#63b8ff" d="M177.32,-312.02C180.52,-279.64 195.03,-176.48 253,-122 302.89,-75.12 331.54,-76 400,-76 400,-76 400,-76 874.5,-76 968.96,-76 1075.27,-115.46 1127.3,-137.51"/>
<polygon fill="#63b8ff" stroke="#63b8ff" points="1125.9,-140.72 1136.47,-141.46 1128.67,-134.29 1125.9,-140.72"/>
</g>
<!-- Node118 -->
<g id="node49" class="node">
<title>Node118</title>
<g id="a_node49"><a xlink:href="TransmitterCode_2src_2main_8cpp.html#a5f109790a6fe0b972a502f3cac4ed1e7" target="_top" xlink:title=" ">
<polygon fill="white" stroke="#666666" points="315.5,-539.5 267.5,-539.5 267.5,-520.5 315.5,-520.5 315.5,-539.5"/>
<text text-anchor="middle" x="291.5" y="-527.5" font-family="Helvetica,sans-Serif" font-size="10.00">InStrng</text>
</a>
</g>
</g>
<!-- Node2&#45;&gt;Node118 -->
<g id="edge74" class="edge">
<title>Node2&#45;&gt;Node118</title>
<path fill="none" stroke="#63b8ff" d="M178.41,-331.87C184.54,-361.34 206.1,-450.06 253,-506 255.26,-508.7 257.9,-511.19 260.72,-513.48"/>
<polygon fill="#63b8ff" stroke="#63b8ff" points="258.63,-516.28 268.82,-519.15 262.64,-510.55 258.63,-516.28"/>
</g>
<!-- Node4 -->
<g id="node4" class="node">
<title>Node4</title>
<g id="a_node4"><a xlink:href="Utilities_8h.html#ada95a00a341e4a80176eda743a94ab2e" target="_top" xlink:title=" ">
<polygon fill="white" stroke="#666666" points="436,-744.5 366,-744.5 366,-725.5 436,-725.5 436,-744.5"/>
<text text-anchor="middle" x="401" y="-732.5" font-family="Helvetica,sans-Serif" font-size="10.00">KickTheDog</text>
</a>
</g>
</g>
<!-- Node3&#45;&gt;Node4 -->
<g id="edge3" class="edge">
<title>Node3&#45;&gt;Node4</title>
<path fill="none" stroke="#63b8ff" d="M330.4,-735C338.12,-735 346.31,-735 354.27,-735"/>
<polygon fill="#63b8ff" stroke="#63b8ff" points="354.16,-738.5 364.16,-735 354.16,-731.5 354.16,-738.5"/>
</g>
<!-- Node5 -->
<g id="node5" class="node">
<title>Node5</title>
<g id="a_node5"><a xlink:href="transceiver_8h.html#a049bfb836e7aa4a3a48a1a4bd225fafc" target="_top" xlink:title=" ">
<polygon fill="white" stroke="#666666" points="430.5,-950.5 371.5,-950.5 371.5,-931.5 430.5,-931.5 430.5,-950.5"/>
<text text-anchor="middle" x="401" y="-938.5" font-family="Helvetica,sans-Serif" font-size="10.00">SendData</text>
</a>
</g>
</g>
<!-- Node3&#45;&gt;Node5 -->
<g id="edge4" class="edge">
<title>Node3&#45;&gt;Node5</title>
<path fill="none" stroke="#63b8ff" d="M297.68,-744.94C314.39,-776.95 367.05,-877.86 389.59,-921.06"/>
<polygon fill="#63b8ff" stroke="#63b8ff" points="386.44,-922.58 394.17,-929.82 392.64,-919.34 386.44,-922.58"/>
</g>
<!-- Node6 -->
<g id="node6" class="node">
<title>Node6</title>
<g id="a_node6"><a xlink:href="transceiver_8h.html#a1ddd5e8d5bd649dd98ce3710fbff651b" target="_top" xlink:title=" ">
<polygon fill="white" stroke="#666666" points="574.5,-876.5 513.5,-876.5 513.5,-857.5 574.5,-857.5 574.5,-876.5"/>
<text text-anchor="middle" x="544" y="-864.5" font-family="Helvetica,sans-Serif" font-size="10.00">Compress</text>
</a>
</g>
</g>
<!-- Node5&#45;&gt;Node6 -->
<g id="edge5" class="edge">
<title>Node5&#45;&gt;Node6</title>
<path fill="none" stroke="#63b8ff" d="M411.54,-931.39C424.25,-919.11 447.95,-898.03 472,-886 481.29,-881.36 491.84,-877.74 501.92,-874.98"/>
<polygon fill="#63b8ff" stroke="#63b8ff" points="502.69,-878.39 511.54,-872.57 500.99,-871.6 502.69,-878.39"/>
</g>
<!-- Node7 -->
<g id="node7" class="node">
<title>Node7</title>
<g id="a_node7"><a xlink:href="transceiver_8h.html#a4144c213e5448a7e02d4172881f08219" target="_top" xlink:title=" ">
<polygon fill="white" stroke="#666666" points="616,-839.5 472,-839.5 472,-820.5 616,-820.5 616,-839.5"/>
<text text-anchor="middle" x="544" y="-827.5" font-family="Helvetica,sans-Serif" font-size="10.00">EncodeTheChangedChannels</text>
</a>
</g>
</g>
<!-- Node5&#45;&gt;Node7 -->
<g id="edge6" class="edge">
<title>Node5&#45;&gt;Node7</title>
<path fill="none" stroke="#63b8ff" d="M406.64,-931.24C416.14,-912.34 439.67,-870.69 472,-849 474.41,-847.38 476.95,-845.9 479.59,-844.55"/>
<polygon fill="#63b8ff" stroke="#63b8ff" points="480.97,-847.77 488.71,-840.53 478.15,-841.36 480.97,-847.77"/>
</g>
<!-- Node8 -->
<g id="node8" class="node">
<title>Node8</title>
<g id="a_node8"><a xlink:href="transceiver_8h.html#a5fbd3c8613a4163425c94965704ce5f8" target="_top" xlink:title=" ">
<polygon fill="white" stroke="#666666" points="581,-988.5 507,-988.5 507,-969.5 581,-969.5 581,-988.5"/>
<text text-anchor="middle" x="544" y="-976.5" font-family="Helvetica,sans-Serif" font-size="10.00">FailedPacket</text>
</a>
</g>
</g>
<!-- Node5&#45;&gt;Node8 -->
<g id="edge7" class="edge">
<title>Node5&#45;&gt;Node8</title>
<path fill="none" stroke="#63b8ff" d="M430.94,-948.88C443.55,-952.31 458.5,-956.36 472,-960 479.62,-962.05 487.7,-964.22 495.58,-966.34"/>
<polygon fill="#63b8ff" stroke="#63b8ff" points="494.48,-969.66 505.05,-968.87 496.29,-962.9 494.48,-969.66"/>
</g>
<!-- Node46 -->
<g id="node23" class="node">
<title>Node46</title>
<g id="a_node23"><a xlink:href="common_8h.html#a6e2d4126d864c50e7c23c988c2bfdd1a" target="_top" xlink:title=" ">
<polygon fill="white" stroke="#666666" points="1051.5,-1121.5 1004.5,-1121.5 1004.5,-1102.5 1051.5,-1102.5 1051.5,-1121.5"/>
<text text-anchor="middle" x="1028" y="-1109.5" font-family="Helvetica,sans-Serif" font-size="10.00">Radio1</text>
</a>
</g>
</g>
<!-- Node5&#45;&gt;Node46 -->
<g id="edge29" class="edge">
<title>Node5&#45;&gt;Node46</title>
<path fill="none" stroke="#63b8ff" d="M407.03,-950.95C416.87,-969.36 440.48,-1008.71 472,-1029 559.26,-1085.17 885.64,-1105.33 992.73,-1110.52"/>
<polygon fill="#63b8ff" stroke="#63b8ff" points="992.44,-1114.01 1002.59,-1110.98 992.77,-1107.02 992.44,-1114.01"/>
</g>
<!-- Node49 -->
<g id="node25" class="node">
<title>Node49</title>
<g id="a_node25"><a xlink:href="transceiver_8h.html#a07c27b4e208198453c70876517926052" target="_top" xlink:title=" ">
<polygon fill="white" stroke="#666666" points="575,-1197.5 513,-1197.5 513,-1178.5 575,-1178.5 575,-1197.5"/>
<text text-anchor="middle" x="544" y="-1185.5" font-family="Helvetica,sans-Serif" font-size="10.00">FlushFifos</text>
</a>
</g>
</g>
<!-- Node5&#45;&gt;Node49 -->
<g id="edge27" class="edge">
<title>Node5&#45;&gt;Node49</title>
<path fill="none" stroke="#63b8ff" d="M402.97,-950.63C406.58,-981.98 421.72,-1082.61 472,-1145 481.49,-1156.77 495.13,-1166.12 507.93,-1173.05"/>
<polygon fill="#63b8ff" stroke="#63b8ff" points="506.05,-1176.03 516.56,-1177.41 509.21,-1169.78 506.05,-1176.03"/>
</g>
<!-- Node50 -->
<g id="node26" class="node">
<title>Node50</title>
<g id="a_node26"><a xlink:href="transceiver_8h.html#a65249d0ac8676541d13ced58b1ce7624" target="_top" xlink:title=" ">
<polygon fill="white" stroke="#666666" points="603.5,-671.5 484.5,-671.5 484.5,-652.5 603.5,-652.5 603.5,-671.5"/>
<text text-anchor="middle" x="544" y="-659.5" font-family="Helvetica,sans-Serif" font-size="10.00">SendExtraParamemters</text>
</a>
</g>
</g>
<!-- Node5&#45;&gt;Node50 -->
<g id="edge30" class="edge">
<title>Node5&#45;&gt;Node50</title>
<path fill="none" stroke="#63b8ff" d="M407.02,-931.07C427.49,-890.56 504.93,-737.33 532.87,-682.05"/>
<polygon fill="#63b8ff" stroke="#63b8ff" points="535.97,-683.67 537.36,-673.16 529.72,-680.51 535.97,-683.67"/>
</g>
<!-- Node54 -->
<g id="node30" class="node">
<title>Node54</title>
<g id="a_node30"><a xlink:href="BuddyWireless_8h.html#a41c327908c92572d0d3eebbb19160d86" target="_top" xlink:title=" ">
<polygon fill="white" stroke="#666666" points="764,-1140.5 662,-1140.5 662,-1121.5 764,-1121.5 764,-1140.5"/>
<text text-anchor="middle" x="713" y="-1128.5" font-family="Helvetica,sans-Serif" font-size="10.00">SendSpecialPacket</text>
</a>
</g>
</g>
<!-- Node5&#45;&gt;Node54 -->
<g id="edge35" class="edge">
<title>Node5&#45;&gt;Node54</title>
<path fill="none" stroke="#63b8ff" d="M402.81,-950.95C405.78,-980.45 418.9,-1067.82 472,-1107 523.17,-1144.76 598.08,-1146.16 650.56,-1141.06"/>
<polygon fill="#63b8ff" stroke="#63b8ff" points="650.67,-1144.57 660.23,-1140.01 649.91,-1137.61 650.67,-1144.57"/>
</g>
<!-- Node58 -->
<g id="node34" class="node">
<title>Node58</title>
<g id="a_node34"><a xlink:href="BuddyPPM_8h.html#a784a1eca0361b3991bca899167cc1cdb" target="_top" xlink:title=" ">
<polygon fill="white" stroke="#666666" points="581.5,-913.5 506.5,-913.5 506.5,-894.5 581.5,-894.5 581.5,-913.5"/>
<text text-anchor="middle" x="544" y="-901.5" font-family="Helvetica,sans-Serif" font-size="10.00">SendViaPPM</text>
</a>
</g>
</g>
<!-- Node5&#45;&gt;Node58 -->
<g id="edge43" class="edge">
<title>Node5&#45;&gt;Node58</title>
<path fill="none" stroke="#63b8ff" d="M430.87,-933.42C449.4,-928.56 473.9,-922.13 495.27,-916.53"/>
<polygon fill="#63b8ff" stroke="#63b8ff" points="495.86,-919.99 504.65,-914.06 494.09,-913.22 495.86,-919.99"/>
</g>
<!-- Node59 -->
<g id="node35" class="node">
<title>Node59</title>
<g id="a_node35"><a xlink:href="transceiver_8h.html#a990aa54242f1573e74316dec4a612eef" target="_top" xlink:title=" ">
<polygon fill="white" stroke="#666666" points="919.5,-951.5 827.5,-951.5 827.5,-932.5 919.5,-932.5 919.5,-951.5"/>
<text text-anchor="middle" x="873.5" y="-939.5" font-family="Helvetica,sans-Serif" font-size="10.00">ShowPacketData</text>
</a>
</g>
</g>
<!-- Node5&#45;&gt;Node59 -->
<g id="edge44" class="edge">
<title>Node5&#45;&gt;Node59</title>
<path fill="none" stroke="#63b8ff" d="M409.82,-950.59C421.61,-964.21 445.42,-988.55 472,-998 598.46,-1042.98 650.35,-1050.21 774,-998 795.14,-989.07 790.41,-972.94 810,-961 812.91,-959.23 816,-957.61 819.18,-956.14"/>
<polygon fill="#63b8ff" stroke="#63b8ff" points="820.23,-959.49 828.17,-952.47 817.59,-953.01 820.23,-959.49"/>
</g>
<!-- Node60 -->
<g id="node36" class="node">
<title>Node60</title>
<g id="a_node36"><a xlink:href="transceiver_8h.html#a1c11bb6771548de7d96723045b922620" target="_top" xlink:title=" ">
<polygon fill="white" stroke="#666666" points="592,-950.5 496,-950.5 496,-931.5 592,-931.5 592,-950.5"/>
<text text-anchor="middle" x="544" y="-938.5" font-family="Helvetica,sans-Serif" font-size="10.00">SuccessfulPacket</text>
</a>
</g>
</g>
<!-- Node5&#45;&gt;Node60 -->
<g id="edge47" class="edge">
<title>Node5&#45;&gt;Node60</title>
<path fill="none" stroke="#63b8ff" d="M430.87,-941C446.29,-941 465.83,-941 484.28,-941"/>
<polygon fill="#63b8ff" stroke="#63b8ff" points="484.06,-944.5 494.06,-941 484.06,-937.5 484.06,-944.5"/>
</g>
<!-- Node9 -->
<g id="node9" class="node">
<title>Node9</title>
<g id="a_node9"><a xlink:href="transceiver_8h.html#afc091b5942e21a03f6dc8635d5e519ba" target="_top" xlink:title=" ">
<polygon fill="white" stroke="#666666" points="774,-988.5 652,-988.5 652,-969.5 774,-969.5 774,-988.5"/>
<text text-anchor="middle" x="713" y="-976.5" font-family="Helvetica,sans-Serif" font-size="10.00">RecordsPacketSuccess</text>
</a>
</g>
</g>
<!-- Node8&#45;&gt;Node9 -->
<g id="edge8" class="edge">
<title>Node8&#45;&gt;Node9</title>
<path fill="none" stroke="#63b8ff" d="M581.24,-979C598.48,-979 619.73,-979 640.05,-979"/>
<polygon fill="#63b8ff" stroke="#63b8ff" points="640.02,-982.5 650.02,-979 640.02,-975.5 640.02,-982.5"/>
</g>
<!-- Node10 -->
<g id="node10" class="node">
<title>Node10</title>
<g id="a_node10"><a xlink:href="TransmitterCode_2src_2main_8cpp.html#a7d34cec6e8edc20c8b50424e15dcc7c7" target="_top" xlink:title=" ">
<polygon fill="white" stroke="#666666" points="744.5,-425.5 681.5,-425.5 681.5,-406.5 744.5,-406.5 744.5,-425.5"/>
<text text-anchor="middle" x="713" y="-413.5" font-family="Helvetica,sans-Serif" font-size="10.00">RedLedOn</text>
</a>
</g>
</g>
<!-- Node8&#45;&gt;Node10 -->
<g id="edge9" class="edge">
<title>Node8&#45;&gt;Node10</title>
<path fill="none" stroke="#63b8ff" d="M581.17,-977.46C593.96,-975.04 607.31,-970.03 616,-960 659.99,-909.27 639.96,-726.06 652,-660 667.27,-576.2 694.15,-478.28 706.05,-436.54"/>
<polygon fill="#63b8ff" stroke="#63b8ff" points="709.36,-437.7 708.75,-427.13 702.63,-435.77 709.36,-437.7"/>
</g>
<!-- Node42 -->
<g id="node19" class="node">
<title>Node42</title>
<g id="a_node19"><a xlink:href="transceiver_8h.html#ad0236abcfc887ad708d9504c4ab2a7c3" target="_top" xlink:title=" ">
<polygon fill="white" stroke="#666666" points="757,-1064.5 669,-1064.5 669,-1045.5 757,-1045.5 757,-1064.5"/>
<text text-anchor="middle" x="713" y="-1052.5" font-family="Helvetica,sans-Serif" font-size="10.00">TryToReconnect</text>
</a>
</g>
</g>
<!-- Node8&#45;&gt;Node42 -->
<g id="edge21" class="edge">
<title>Node8&#45;&gt;Node42</title>
<path fill="none" stroke="#63b8ff" d="M566.83,-988.94C595.71,-1002.08 646.83,-1025.34 680.05,-1040.46"/>
<polygon fill="#63b8ff" stroke="#63b8ff" points="678.23,-1043.48 688.78,-1044.43 681.13,-1037.11 678.23,-1043.48"/>
</g>
<!-- Node10&#45;&gt;Node2 -->
<g id="edge16" class="edge">
<title>Node10&#45;&gt;Node2</title>
<path fill="none" stroke="#63b8ff" d="M681.06,-410.57C592.67,-395.05 338.39,-350.42 228.32,-331.1"/>
<polygon fill="#63b8ff" stroke="#63b8ff" points="229.13,-327.69 218.68,-329.4 227.92,-334.58 229.13,-327.69"/>
</g>
<!-- Node11 -->
<g id="node11" class="node">
<title>Node11</title>
<g id="a_node11"><a xlink:href="TransmitterCode_2src_2main_8cpp.html#afeaea883a32e6ebe461d419fab1b9f59" target="_top" xlink:title=" ">
<polygon fill="white" stroke="#666666" points="929,-462.5 818,-462.5 818,-443.5 929,-443.5 929,-462.5"/>
<text text-anchor="middle" x="873.5" y="-450.5" font-family="Helvetica,sans-Serif" font-size="10.00">ClearMostParameters</text>
</a>
</g>
</g>
<!-- Node10&#45;&gt;Node11 -->
<g id="edge10" class="edge">
<title>Node10&#45;&gt;Node11</title>
<path fill="none" stroke="#63b8ff" d="M744.94,-423.22C765.95,-428.13 794.3,-434.74 818.93,-440.5"/>
<polygon fill="#63b8ff" stroke="#63b8ff" points="817.94,-443.86 828.48,-442.72 819.53,-437.04 817.94,-443.86"/>
</g>
<!-- Node12 -->
<g id="node12" class="node">
<title>Node12</title>
<g id="a_node12"><a xlink:href="Utilities_8h.html#a549a702bb9b539c6b3a4f20cce65adcc" target="_top" xlink:title=" ">
<polygon fill="#fff0f0" stroke="red" points="922.5,-538.5 824.5,-538.5 824.5,-519.5 922.5,-519.5 922.5,-538.5"/>
<text text-anchor="middle" x="873.5" y="-526.5" font-family="Helvetica,sans-Serif" font-size="10.00">GetLEDBrightness</text>
</a>
</g>
</g>
<!-- Node10&#45;&gt;Node12 -->
<g id="edge11" class="edge">
<title>Node10&#45;&gt;Node12</title>
<path fill="none" stroke="#63b8ff" d="M744.93,-423.83C755.03,-427.51 765.75,-432.73 774,-440 798.77,-461.84 785.08,-483.33 810,-505 814.11,-508.58 818.82,-511.65 823.76,-514.28"/>
<polygon fill="#63b8ff" stroke="#63b8ff" points="822.2,-517.42 832.75,-518.45 825.15,-511.07 822.2,-517.42"/>
</g>
<!-- Node22 -->
<g id="node13" class="node">
<title>Node22</title>
<g id="a_node13"><a xlink:href="TransmitterCode_2src_2main_8cpp.html#a2d5ec5fd5ed62d5b7b071fabe2225405" target="_top" xlink:title=" ">
<polygon fill="#fff0f0" stroke="red" points="921.5,-425.5 825.5,-425.5 825.5,-406.5 921.5,-406.5 921.5,-425.5"/>
<text text-anchor="middle" x="873.5" y="-413.5" font-family="Helvetica,sans-Serif" font-size="10.00">LogDisConnection</text>
</a>
</g>
</g>
<!-- Node10&#45;&gt;Node22 -->
<g id="edge12" class="edge">
<title>Node10&#45;&gt;Node22</title>
<path fill="none" stroke="#63b8ff" d="M744.94,-416C764.52,-416 790.48,-416 813.86,-416"/>
<polygon fill="#63b8ff" stroke="#63b8ff" points="813.58,-419.5 823.58,-416 813.58,-412.5 813.58,-419.5"/>
</g>
<!-- Node38 -->
<g id="node14" class="node">
<title>Node38</title>
<g id="a_node14"><a xlink:href="Utilities_8h.html#aa490b4664b0a4498d53b30b82287d5df" target="_top" xlink:title=" ">
<polygon fill="white" stroke="#666666" points="1059.5,-537.5 996.5,-537.5 996.5,-518.5 1059.5,-518.5 1059.5,-537.5"/>
<text text-anchor="middle" x="1028" y="-525.5" font-family="Helvetica,sans-Serif" font-size="10.00">PlaySound</text>
</a>
</g>
</g>
<!-- Node10&#45;&gt;Node38 -->
<g id="edge13" class="edge">
<title>Node10&#45;&gt;Node38</title>
<path fill="none" stroke="#63b8ff" d="M744.53,-425.97C754.28,-429.74 764.89,-434.47 774,-440 792.05,-450.96 791.31,-461.18 810,-471 840.26,-486.9 931.03,-507.79 985.11,-519.36"/>
<polygon fill="#63b8ff" stroke="#63b8ff" points="984.07,-522.71 994.58,-521.36 985.52,-515.87 984.07,-522.71"/>
</g>
<!-- Node39 -->
<g id="node16" class="node">
<title>Node39</title>
<g id="a_node16"><a xlink:href="Nextion_8h.html#afe513398f72d5e48f691830a1ef6eb42" target="_top" xlink:title=" ">
<polygon fill="white" stroke="#666666" points="1057,-293.5 999,-293.5 999,-274.5 1057,-274.5 1057,-293.5"/>
<text text-anchor="middle" x="1028" y="-281.5" font-family="Helvetica,sans-Serif" font-size="10.00">SendText</text>
</a>
</g>
</g>
<!-- Node10&#45;&gt;Node39 -->
<g id="edge17" class="edge">
<title>Node10&#45;&gt;Node39</title>
<path fill="none" stroke="#63b8ff" d="M744.91,-409.69C797.82,-398.6 903.32,-375.16 937,-358 965.39,-343.53 992.92,-318.85 1009.9,-302"/>
<polygon fill="#63b8ff" stroke="#63b8ff" points="1012.19,-304.66 1016.7,-295.08 1007.2,-299.75 1012.19,-304.66"/>
</g>
<!-- Node41 -->
<g id="node18" class="node">
<title>Node41</title>
<g id="a_node18"><a xlink:href="TransmitterCode_2src_2main_8cpp.html#a083c423be6ce1635de5961d0fc72ff06" target="_top" xlink:title=" ">
<polygon fill="white" stroke="#666666" points="923,-349.5 824,-349.5 824,-330.5 923,-330.5 923,-349.5"/>
<text text-anchor="middle" x="873.5" y="-337.5" font-family="Helvetica,sans-Serif" font-size="10.00">SetUKFrequencies</text>
</a>
</g>
</g>
<!-- Node10&#45;&gt;Node41 -->
<g id="edge20" class="edge">
<title>Node10&#45;&gt;Node41</title>
<path fill="none" stroke="#63b8ff" d="M730.66,-406.12C749.54,-395.12 781.42,-377.16 810,-364 817.55,-360.52 825.76,-357.12 833.67,-354.01"/>
<polygon fill="#63b8ff" stroke="#63b8ff" points="834.68,-357.37 842.76,-350.53 832.17,-350.84 834.68,-357.37"/>
</g>
<!-- Node38&#45;&gt;Node2 -->
<g id="edge14" class="edge">
<title>Node38&#45;&gt;Node2</title>
<path fill="none" stroke="#63b8ff" d="M1025.34,-518.22C1017.44,-472.76 982.07,-282.92 937,-247 898.11,-216 763.74,-228 714,-228 400,-228 400,-228 400,-228 320.79,-228 237.26,-278.79 198.57,-305.71"/>
<polygon fill="#63b8ff" stroke="#63b8ff" points="196.66,-302.77 190.54,-311.42 200.71,-308.47 196.66,-302.77"/>
</g>
<!-- Node30 -->
<g id="node15" class="node">
<title>Node30</title>
<g id="a_node15"><a xlink:href="Utilities_8h.html#a590a9174319918d7e3d7baca323fcf26" target="_top" xlink:title=" ">
<polygon fill="white" stroke="#666666" points="1175,-537.5 1146,-537.5 1146,-518.5 1175,-518.5 1175,-537.5"/>
<text text-anchor="middle" x="1160.5" y="-525.5" font-family="Helvetica,sans-Serif" font-size="10.00">Str</text>
</a>
</g>
</g>
<!-- Node38&#45;&gt;Node30 -->
<g id="edge15" class="edge">
<title>Node38&#45;&gt;Node30</title>
<path fill="none" stroke="#63b8ff" d="M1059.93,-528C1082.61,-528 1113.03,-528 1134.25,-528"/>
<polygon fill="#63b8ff" stroke="#63b8ff" points="1134.04,-531.5 1144.04,-528 1134.04,-524.5 1134.04,-531.5"/>
</g>
<!-- Node39&#45;&gt;Node2 -->
<g id="edge19" class="edge">
<title>Node39&#45;&gt;Node2</title>
<path fill="none" stroke="#63b8ff" d="M1017.91,-274C1002.83,-258.17 970.95,-227.72 937,-214 844.58,-176.64 813.68,-190 714,-190 400,-190 400,-190 400,-190 333.8,-190 309.15,-178.94 253,-214 219.35,-235.01 196.29,-276.81 184.85,-301.79"/>
<polygon fill="#63b8ff" stroke="#63b8ff" points="181.68,-300.3 180.89,-310.86 188.1,-303.1 181.68,-300.3"/>
</g>
<!-- Node39&#45;&gt;Node40 -->
<g id="edge18" class="edge">
<title>Node39&#45;&gt;Node40</title>
<path fill="none" stroke="#63b8ff" d="M1038.81,-274.08C1060.74,-251.9 1113.99,-198.03 1141.85,-169.85"/>
<polygon fill="#63b8ff" stroke="#63b8ff" points="1144.33,-172.33 1148.87,-162.75 1139.35,-167.4 1144.33,-172.33"/>
</g>
<!-- Node43 -->
<g id="node20" class="node">
<title>Node43</title>
<g id="a_node20"><a xlink:href="transceiver_8h.html#a52aa3e80bccf5e75346c93fdae63122d" target="_top" xlink:title=" ">
<polygon fill="white" stroke="#666666" points="924,-988.5 823,-988.5 823,-969.5 924,-969.5 924,-988.5"/>
<text text-anchor="middle" x="873.5" y="-976.5" font-family="Helvetica,sans-Serif" font-size="10.00">HopToNextChannel</text>
</a>
</g>
</g>
<!-- Node42&#45;&gt;Node43 -->
<g id="edge22" class="edge">
<title>Node42&#45;&gt;Node43</title>
<path fill="none" stroke="#63b8ff" d="M740.54,-1045.08C751.06,-1040.96 763.21,-1035.99 774,-1031 798.44,-1019.7 825.42,-1005.31 844.96,-994.54"/>
<polygon fill="#63b8ff" stroke="#63b8ff" points="846.63,-997.62 853.66,-989.7 843.22,-991.5 846.63,-997.62"/>
</g>
<!-- Node47 -->
<g id="node24" class="node">
<title>Node47</title>
<g id="a_node24"><a xlink:href="transceiver_8h.html#ad0e30213b21808d00110752679788a8c" target="_top" xlink:title=" ">
<polygon fill="#fff0f0" stroke="red" points="910.5,-1064.5 836.5,-1064.5 836.5,-1045.5 910.5,-1045.5 910.5,-1064.5"/>
<text text-anchor="middle" x="873.5" y="-1052.5" font-family="Helvetica,sans-Serif" font-size="10.00">TryOtherPipe</text>
</a>
</g>
</g>
<!-- Node42&#45;&gt;Node47 -->
<g id="edge26" class="edge">
<title>Node42&#45;&gt;Node47</title>
<path fill="none" stroke="#63b8ff" d="M757.31,-1055C778.19,-1055 803.3,-1055 824.73,-1055"/>
<polygon fill="#63b8ff" stroke="#63b8ff" points="824.7,-1058.5 834.7,-1055 824.7,-1051.5 824.7,-1058.5"/>
</g>
<!-- Node44 -->
<g id="node21" class="node">
<title>Node44</title>
<g id="a_node21"><a xlink:href="ReceiverCode_2src_2main_8cpp.html#a6d87eba17154f7f4f2f3802ef8ee261f" target="_top" xlink:title=" ">
<polygon fill="white" stroke="#666666" points="1047,-988.5 1009,-988.5 1009,-969.5 1047,-969.5 1047,-988.5"/>
<text text-anchor="middle" x="1028" y="-976.5" font-family="Helvetica,sans-Serif" font-size="10.00">Look</text>
</a>
</g>
</g>
<!-- Node43&#45;&gt;Node44 -->
<g id="edge23" class="edge">
<title>Node43&#45;&gt;Node44</title>
<path fill="none" stroke="#63b8ff" d="M924.43,-979C948.54,-979 976.65,-979 997.34,-979"/>
<polygon fill="#63b8ff" stroke="#63b8ff" points="997.06,-982.5 1007.06,-979 997.06,-975.5 997.06,-982.5"/>
</g>
<!-- Node45 -->
<g id="node22" class="node">
<title>Node45</title>
<g id="a_node22"><a xlink:href="ReceiverCode_2src_2main_8cpp.html#aea423a497d09a142f394356bc8438c41" target="_top" xlink:title=" ">
<polygon fill="white" stroke="#666666" points="1050,-951.5 1006,-951.5 1006,-932.5 1050,-932.5 1050,-951.5"/>
<text text-anchor="middle" x="1028" y="-939.5" font-family="Helvetica,sans-Serif" font-size="10.00">Look1</text>
</a>
</g>
</g>
<!-- Node43&#45;&gt;Node45 -->
<g id="edge24" class="edge">
<title>Node43&#45;&gt;Node45</title>
<path fill="none" stroke="#63b8ff" d="M915.37,-969.08C940.27,-963.04 971.65,-955.43 994.79,-949.81"/>
<polygon fill="#63b8ff" stroke="#63b8ff" points="995.38,-953.27 1004.28,-947.51 993.73,-946.47 995.38,-953.27"/>
</g>
<!-- Node43&#45;&gt;Node46 -->
<g id="edge25" class="edge">
<title>Node43&#45;&gt;Node46</title>
<path fill="none" stroke="#63b8ff" d="M909.84,-988.97C919.17,-992.54 928.89,-997.16 937,-1003 971.21,-1027.61 1000.01,-1068.24 1015.28,-1092.33"/>
<polygon fill="#63b8ff" stroke="#63b8ff" points="1012.29,-1094.15 1020.51,-1100.83 1018.25,-1090.48 1012.29,-1094.15"/>
</g>
<!-- Node49&#45;&gt;Node46 -->
<g id="edge28" class="edge">
<title>Node49&#45;&gt;Node46</title>
<path fill="none" stroke="#63b8ff" d="M575.32,-1195.66C643.31,-1211.24 811.77,-1240.88 937,-1188 958.14,-1179.07 955.63,-1166 973,-1151 982.22,-1143.03 993.01,-1135.02 1002.5,-1128.34"/>
<polygon fill="#63b8ff" stroke="#63b8ff" points="1004.31,-1131.34 1010.56,-1122.79 1000.34,-1125.58 1004.31,-1131.34"/>
</g>
<!-- Node51 -->
<g id="node27" class="node">
<title>Node51</title>
<g id="a_node27"><a xlink:href="transceiver_8h.html#adac102739147db6397bbcbb371aec4fd" target="_top" xlink:title=" ">
<polygon fill="white" stroke="#666666" points="757.5,-331.5 668.5,-331.5 668.5,-312.5 757.5,-312.5 757.5,-331.5"/>
<text text-anchor="middle" x="713" y="-319.5" font-family="Helvetica,sans-Serif" font-size="10.00">LoadParameters</text>
</a>
</g>
</g>
<!-- Node50&#45;&gt;Node51 -->
<g id="edge31" class="edge">
<title>Node50&#45;&gt;Node51</title>
<path fill="none" stroke="#63b8ff" d="M547.76,-652.39C558.2,-616.88 597.39,-490.36 652,-397 664.27,-376.02 682.02,-354.62 695.03,-340.08"/>
<polygon fill="#63b8ff" stroke="#63b8ff" points="697.25,-342.84 701.4,-333.09 692.08,-338.12 697.25,-342.84"/>
</g>
<!-- Node51&#45;&gt;Node41 -->
<g id="edge34" class="edge">
<title>Node51&#45;&gt;Node41</title>
<path fill="none" stroke="#63b8ff" d="M757.73,-326.97C774.57,-328.88 794.11,-331.1 812.24,-333.16"/>
<polygon fill="#63b8ff" stroke="#63b8ff" points="811.78,-336.63 822.11,-334.28 812.57,-329.67 811.78,-336.63"/>
</g>
<!-- Node52 -->
<g id="node28" class="node">
<title>Node52</title>
<g id="a_node28"><a xlink:href="TransmitterCode_2src_2main_8cpp.html#a5aa4888b924a4f1d95e9cedc3004f2b6" target="_top" xlink:title=" ">
<polygon fill="white" stroke="#666666" points="915,-312.5 832,-312.5 832,-293.5 915,-293.5 915,-312.5"/>
<text text-anchor="middle" x="873.5" y="-300.5" font-family="Helvetica,sans-Serif" font-size="10.00">MakeTwobytes</text>
</a>
</g>
</g>
<!-- Node51&#45;&gt;Node52 -->
<g id="edge32" class="edge">
<title>Node51&#45;&gt;Node52</title>
<path fill="none" stroke="#63b8ff" d="M757.73,-316.76C777.12,-314.43 800.09,-311.68 820.37,-309.25"/>
<polygon fill="#63b8ff" stroke="#63b8ff" points="820.62,-312.74 830.13,-308.08 819.79,-305.79 820.62,-312.74"/>
</g>
<!-- Node53 -->
<g id="node29" class="node">
<title>Node53</title>
<g id="a_node29"><a xlink:href="TransmitterCode_2src_2main_8cpp.html#a60a8ba3819508aedbe1d59640b0a79b0" target="_top" xlink:title=" ">
<polygon fill="white" stroke="#666666" points="925.5,-275.5 821.5,-275.5 821.5,-256.5 925.5,-256.5 925.5,-275.5"/>
<text text-anchor="middle" x="873.5" y="-263.5" font-family="Helvetica,sans-Serif" font-size="10.00">SetTestFrequencies</text>
</a>
</g>
</g>
<!-- Node51&#45;&gt;Node53 -->
<g id="edge33" class="edge">
<title>Node51&#45;&gt;Node53</title>
<path fill="none" stroke="#63b8ff" d="M737.05,-312.15C756.35,-304.08 784.72,-292.62 810,-284 814.76,-282.38 819.75,-280.78 824.75,-279.23"/>
<polygon fill="#63b8ff" stroke="#63b8ff" points="825.61,-282.63 834.18,-276.41 823.6,-275.93 825.61,-282.63"/>
</g>
<!-- Node54&#45;&gt;Node46 -->
<g id="edge42" class="edge">
<title>Node54&#45;&gt;Node46</title>
<path fill="none" stroke="#63b8ff" d="M764.29,-1127.95C828.53,-1124.05 937.97,-1117.4 993.11,-1114.06"/>
<polygon fill="#63b8ff" stroke="#63b8ff" points="993.05,-1117.57 1002.82,-1113.47 992.63,-1110.58 993.05,-1117.57"/>
</g>
<!-- Node55 -->
<g id="node31" class="node">
<title>Node55</title>
<g id="a_node31"><a xlink:href="BuddyWireless_8h.html#af59c2527be7a67d6b09dd467f3123d55" target="_top" xlink:title=" ">
<polygon fill="white" stroke="#666666" points="909,-1178.5 838,-1178.5 838,-1159.5 909,-1159.5 909,-1178.5"/>
<text text-anchor="middle" x="873.5" y="-1166.5" font-family="Helvetica,sans-Serif" font-size="10.00">GetPupilAck</text>
</a>
</g>
</g>
<!-- Node54&#45;&gt;Node55 -->
<g id="edge36" class="edge">
<title>Node54&#45;&gt;Node55</title>
<path fill="none" stroke="#63b8ff" d="M755.64,-1140.98C777.46,-1146.21 804.22,-1152.63 826.62,-1158"/>
<polygon fill="#63b8ff" stroke="#63b8ff" points="825.55,-1161.34 836.09,-1160.27 827.18,-1154.54 825.55,-1161.34"/>
</g>
<!-- Node57 -->
<g id="node33" class="node">
<title>Node57</title>
<g id="a_node33"><a xlink:href="BuddyWireless_8h.html#a89fc05df708fec875356b62d21b2ce7b" target="_top" xlink:title=" ">
<polygon fill="white" stroke="#666666" points="912,-612.5 835,-612.5 835,-593.5 912,-593.5 912,-612.5"/>
<text text-anchor="middle" x="873.5" y="-600.5" font-family="Helvetica,sans-Serif" font-size="10.00">PupilDetected</text>
</a>
</g>
</g>
<!-- Node54&#45;&gt;Node57 -->
<g id="edge39" class="edge">
<title>Node54&#45;&gt;Node57</title>
<path fill="none" stroke="#63b8ff" d="M729.59,-1121.14C743.86,-1111.16 764.21,-1094.32 774,-1074 854.15,-907.6 728.16,-825.57 810,-660 818.17,-643.47 833.35,-629.45 846.71,-619.45"/>
<polygon fill="#63b8ff" stroke="#63b8ff" points="848.6,-622.4 854.75,-613.77 844.56,-616.68 848.6,-622.4"/>
</g>
<!-- Node55&#45;&gt;Node46 -->
<g id="edge38" class="edge">
<title>Node55&#45;&gt;Node46</title>
<path fill="none" stroke="#63b8ff" d="M901.06,-1159.07C926.71,-1149.48 965.65,-1134.93 993.44,-1124.55"/>
<polygon fill="#63b8ff" stroke="#63b8ff" points="994.66,-1127.82 1002.8,-1121.04 992.21,-1121.27 994.66,-1127.82"/>
</g>
<!-- Node56 -->
<g id="node32" class="node">
<title>Node56</title>
<g id="a_node32"><a xlink:href="transceiver_8h.html#a6feccc8c0583de3235616d42076f1371" target="_top" xlink:title=" ">
<polygon fill="white" stroke="#666666" points="1063.5,-1178.5 992.5,-1178.5 992.5,-1159.5 1063.5,-1159.5 1063.5,-1178.5"/>
<text text-anchor="middle" x="1028" y="-1166.5" font-family="Helvetica,sans-Serif" font-size="10.00">Decompress</text>
</a>
</g>
</g>
<!-- Node55&#45;&gt;Node56 -->
<g id="edge37" class="edge">
<title>Node55&#45;&gt;Node56</title>
<path fill="none" stroke="#63b8ff" d="M909.49,-1169C930.7,-1169 958.01,-1169 980.97,-1169"/>
<polygon fill="#63b8ff" stroke="#63b8ff" points="980.66,-1172.5 990.66,-1169 980.66,-1165.5 980.66,-1172.5"/>
</g>
<!-- Node57&#45;&gt;Node2 -->
<g id="edge40" class="edge">
<title>Node57&#45;&gt;Node2</title>
<path fill="none" stroke="#63b8ff" d="M839.02,-593.08C829.61,-590.23 819.38,-587.05 810,-584 691.45,-545.42 669.67,-492 545,-492 400,-492 400,-492 400,-492 329.26,-492 308.18,-475.26 253,-431 222.18,-406.27 198.41,-365.97 186.02,-341.92"/>
<polygon fill="#63b8ff" stroke="#63b8ff" points="189.26,-340.59 181.68,-333.19 183,-343.71 189.26,-340.59"/>
</g>
<!-- Node57&#45;&gt;Node39 -->
<g id="edge41" class="edge">
<title>Node57&#45;&gt;Node39</title>
<path fill="none" stroke="#63b8ff" d="M912.45,-597.83C921.45,-595.01 930.36,-590.67 937,-584 957.42,-563.51 1006.08,-369.77 1021.92,-304.98"/>
<polygon fill="#63b8ff" stroke="#63b8ff" points="1025.31,-305.85 1024.28,-295.31 1018.51,-304.2 1025.31,-305.85"/>
</g>
<!-- Node59&#45;&gt;Node44 -->
<g id="edge45" class="edge">
<title>Node59&#45;&gt;Node44</title>
<path fill="none" stroke="#63b8ff" d="M915.37,-951.92C941.33,-958.21 974.33,-966.22 997.69,-971.89"/>
<polygon fill="#63b8ff" stroke="#63b8ff" points="996.62,-975.23 1007.16,-974.19 998.27,-968.43 996.62,-975.23"/>
</g>
<!-- Node59&#45;&gt;Node45 -->
<g id="edge46" class="edge">
<title>Node59&#45;&gt;Node45</title>
<path fill="none" stroke="#63b8ff" d="M919.84,-942C943.84,-942 972.76,-942 994.51,-942"/>
<polygon fill="#63b8ff" stroke="#63b8ff" points="994.26,-945.5 1004.26,-942 994.26,-938.5 994.26,-945.5"/>
</g>
<!-- Node60&#45;&gt;Node9 -->
<g id="edge71" class="edge">
<title>Node60&#45;&gt;Node9</title>
<path fill="none" stroke="#63b8ff" d="M588.88,-950.98C609.79,-955.74 635.03,-961.49 657.19,-966.53"/>
<polygon fill="#63b8ff" stroke="#63b8ff" points="656.12,-969.87 666.65,-968.68 657.68,-963.05 656.12,-969.87"/>
</g>
<!-- Node60&#45;&gt;Node46 -->
<g id="edge70" class="edge">
<title>Node60&#45;&gt;Node46</title>
<path fill="none" stroke="#63b8ff" d="M592.22,-935.84C640.34,-932.64 715.95,-933.45 774,-961 794.73,-970.84 790.42,-986.04 810,-998 860.38,-1028.79 885.08,-1008.88 937,-1037 965.18,-1052.26 992.76,-1077.14 1009.8,-1094.02"/>
<polygon fill="#63b8ff" stroke="#63b8ff" points="1007.13,-1096.29 1016.64,-1100.95 1012.11,-1091.38 1007.13,-1096.29"/>
</g>
<!-- Node61 -->
<g id="node37" class="node">
<title>Node61</title>
<g id="a_node37"><a xlink:href="transceiver_8h.html#a953f1d5046e183549ed95b08f6d675e3" target="_top" xlink:title=" ">
<polygon fill="white" stroke="#666666" points="762,-912.5 664,-912.5 664,-893.5 762,-893.5 762,-912.5"/>
<text text-anchor="middle" x="713" y="-900.5" font-family="Helvetica,sans-Serif" font-size="10.00">CheckGapsLength</text>
</a>
</g>
</g>
<!-- Node60&#45;&gt;Node61 -->
<g id="edge48" class="edge">
<title>Node60&#45;&gt;Node61</title>
<path fill="none" stroke="#63b8ff" d="M588.88,-931.02C609.79,-926.26 635.03,-920.51 657.19,-915.47"/>
<polygon fill="#63b8ff" stroke="#63b8ff" points="657.68,-918.95 666.65,-913.32 656.12,-912.13 657.68,-918.95"/>
</g>
<!-- Node63 -->
<g id="node39" class="node">
<title>Node63</title>
<g id="a_node39"><a xlink:href="TransmitterCode_2src_2main_8cpp.html#a62e53eb9359c32b666e3386d62c57037" target="_top" xlink:title=" ">
<polygon fill="white" stroke="#666666" points="749,-688.5 677,-688.5 677,-669.5 749,-669.5 749,-688.5"/>
<text text-anchor="middle" x="713" y="-676.5" font-family="Helvetica,sans-Serif" font-size="10.00">GreenLedOn</text>
</a>
</g>
</g>
<!-- Node60&#45;&gt;Node63 -->
<g id="edge51" class="edge">
<title>Node60&#45;&gt;Node63</title>
<path fill="none" stroke="#63b8ff" d="M592.31,-936.54C601.11,-933.76 609.55,-929.5 616,-923 663.1,-875.59 626.25,-838.67 652,-777 664.25,-747.66 684.5,-716.88 698.04,-697.81"/>
<polygon fill="#63b8ff" stroke="#63b8ff" points="700.69,-700.12 703.72,-689.97 695.02,-696.02 700.69,-700.12"/>
</g>
<!-- Node74 -->
<g id="node44" class="node">
<title>Node74</title>
<g id="a_node44"><a xlink:href="Utilities_8h.html#a793b7bcd77531c95fe72ed4356d421c8" target="_top" xlink:title=" ">
<polygon fill="white" stroke="#666666" points="1083,-688.5 973,-688.5 973,-669.5 1083,-669.5 1083,-688.5"/>
<text text-anchor="middle" x="1028" y="-676.5" font-family="Helvetica,sans-Serif" font-size="10.00">StartInactvityTimeout</text>
</a>
</g>
</g>
<!-- Node60&#45;&gt;Node74 -->
<g id="edge72" class="edge">
<title>Node60&#45;&gt;Node74</title>
<path fill="none" stroke="#63b8ff" d="M592.44,-935.11C600.92,-932.43 609.21,-928.56 616,-923 644.62,-899.58 623.57,-871.64 652,-848 752.89,-764.12 823.8,-837.34 937,-771 969.14,-752.16 997.59,-718.84 1013.52,-697.89"/>
<polygon fill="#63b8ff" stroke="#63b8ff" points="1016.27,-700.06 1019.4,-689.94 1010.64,-695.9 1016.27,-700.06"/>
</g>
<!-- Node76 -->
<g id="node46" class="node">
<title>Node76</title>
<g id="a_node46"><a xlink:href="transceiver_8h.html#a694f4f5a0147f4dc29b0bc1a8951547d" target="_top" xlink:title=" ">
<polygon fill="#fff0f0" stroke="red" points="760,-875.5 666,-875.5 666,-856.5 760,-856.5 760,-875.5"/>
<text text-anchor="middle" x="713" y="-863.5" font-family="Helvetica,sans-Serif" font-size="10.00">ParseAckPayload</text>
</a>
</g>
</g>
<!-- Node60&#45;&gt;Node76 -->
<g id="edge66" class="edge">
<title>Node60&#45;&gt;Node76</title>
<path fill="none" stroke="#63b8ff" d="M592.31,-932.99C600.53,-930.5 608.76,-927.25 616,-923 636.07,-911.23 632.28,-897.35 652,-885 654.73,-883.29 657.64,-881.72 660.63,-880.28"/>
<polygon fill="#63b8ff" stroke="#63b8ff" points="661.81,-883.58 669.67,-876.47 659.09,-877.13 661.81,-883.58"/>
</g>
<!-- Node62 -->
<g id="node38" class="node">
<title>Node62</title>
<g id="a_node38"><a xlink:href="TransmitterCode_2src_2main_8cpp.html#a1fadc7cdd854f8b3628b622da5417d8b" target="_top" xlink:title=" ">
<polygon fill="#fff0f0" stroke="red" points="1063,-875.5 993,-875.5 993,-856.5 1063,-856.5 1063,-875.5"/>
<text text-anchor="middle" x="1028" y="-863.5" font-family="Helvetica,sans-Serif" font-size="10.00">LogThisGap</text>
</a>
</g>
</g>
<!-- Node61&#45;&gt;Node62 -->
<g id="edge49" class="edge">
<title>Node61&#45;&gt;Node62</title>
<path fill="none" stroke="#63b8ff" d="M762.49,-900.87C807.79,-898.46 877.23,-893.69 937,-885 951.59,-882.88 967.36,-879.82 981.56,-876.77"/>
<polygon fill="#63b8ff" stroke="#63b8ff" points="982.08,-880.24 991.09,-874.67 980.57,-873.4 982.08,-880.24"/>
</g>
<!-- Node62&#45;&gt;Node30 -->
<g id="edge50" class="edge">
<title>Node62&#45;&gt;Node30</title>
<path fill="none" stroke="#63b8ff" d="M1032.76,-856.25C1050.63,-809.99 1126.98,-612.23 1151.73,-548.14"/>
<polygon fill="#63b8ff" stroke="#63b8ff" points="1154.84,-549.79 1155.17,-539.2 1148.31,-547.27 1154.84,-549.79"/>
</g>
<!-- Node63&#45;&gt;Node12 -->
<g id="edge53" class="edge">
<title>Node63&#45;&gt;Node12</title>
<path fill="none" stroke="#63b8ff" d="M718.25,-669.34C729.49,-644.93 762.43,-580.34 810,-547 811.59,-545.89 813.25,-544.84 814.96,-543.86"/>
<polygon fill="#63b8ff" stroke="#63b8ff" points="816.36,-547.07 823.84,-539.57 813.31,-540.77 816.36,-547.07"/>
</g>
<!-- Node63&#45;&gt;Node38 -->
<g id="edge55" class="edge">
<title>Node63&#45;&gt;Node38</title>
<path fill="none" stroke="#63b8ff" d="M749.45,-672.22C803.92,-661.39 905.21,-639.55 937,-621 969.36,-602.12 997.74,-568.39 1013.6,-547.16"/>
<polygon fill="#63b8ff" stroke="#63b8ff" points="1016.42,-549.23 1019.46,-539.08 1010.75,-545.12 1016.42,-549.23"/>
</g>
<!-- Node64 -->
<g id="node40" class="node">
<title>Node64</title>
<g id="a_node40"><a xlink:href="Utilities_8h.html#a82b1900a80d1622896601c57d6edaeda" target="_top" xlink:title=" ">
<polygon fill="white" stroke="#666666" points="922.5,-688.5 824.5,-688.5 824.5,-669.5 922.5,-669.5 922.5,-688.5"/>
<text text-anchor="middle" x="873.5" y="-676.5" font-family="Helvetica,sans-Serif" font-size="10.00">ClearSuccessRate</text>
</a>
</g>
</g>
<!-- Node63&#45;&gt;Node64 -->
<g id="edge52" class="edge">
<title>Node63&#45;&gt;Node64</title>
<path fill="none" stroke="#63b8ff" d="M749.18,-679C767.88,-679 791.4,-679 812.86,-679"/>
<polygon fill="#63b8ff" stroke="#63b8ff" points="812.68,-682.5 822.68,-679 812.68,-675.5 812.68,-682.5"/>
</g>
<!-- Node65 -->
<g id="node41" class="node">
<title>Node65</title>
<g id="a_node41"><a xlink:href="TransmitterCode_2src_2main_8cpp.html#aaa3e86084c43b049d52d7d62c58a00b9" target="_top" xlink:title=" ">
<polygon fill="#fff0f0" stroke="red" points="914.5,-762.5 832.5,-762.5 832.5,-743.5 914.5,-743.5 914.5,-762.5"/>
<text text-anchor="middle" x="873.5" y="-750.5" font-family="Helvetica,sans-Serif" font-size="10.00">LogConnection</text>
</a>
</g>
</g>
<!-- Node63&#45;&gt;Node65 -->
<g id="edge54" class="edge">
<title>Node63&#45;&gt;Node65</title>
<path fill="none" stroke="#63b8ff" d="M728.75,-688.86C747.14,-700.81 779.85,-720.98 810,-734 814.57,-735.98 819.42,-737.83 824.31,-739.55"/>
<polygon fill="#63b8ff" stroke="#63b8ff" points="822.96,-742.79 833.55,-742.62 825.16,-736.15 822.96,-742.79"/>
</g>
<!-- Node67 -->
<g id="node42" class="node">
<title>Node67</title>
<g id="a_node42"><a xlink:href="TransmitterCode_2src_2main_8cpp.html#a5d3a46c21927cf7a3031a1e68e0b7b48" target="_top" xlink:title="SHOW COMMS.">
<polygon fill="#fff0f0" stroke="red" points="911,-575.5 836,-575.5 836,-556.5 911,-556.5 911,-575.5"/>
<text text-anchor="middle" x="873.5" y="-563.5" font-family="Helvetica,sans-Serif" font-size="10.00">ShowComms</text>
</a>
</g>
</g>
<!-- Node63&#45;&gt;Node67 -->
<g id="edge56" class="edge">
<title>Node63&#45;&gt;Node67</title>
<path fill="none" stroke="#63b8ff" d="M721.26,-669.03C735.86,-649.7 770.76,-607.01 810,-584 814.63,-581.29 819.69,-578.96 824.86,-576.97"/>
<polygon fill="#63b8ff" stroke="#63b8ff" points="825.77,-580.36 834.11,-573.83 823.52,-573.73 825.77,-580.36"/>
</g>
<!-- Node75 -->
<g id="node45" class="node">
<title>Node75</title>
<g id="a_node45"><a xlink:href="TransmitterCode_2src_2main_8cpp.html#a6da9a1fd0b003151f79eabc702ba80ff" target="_top" xlink:title=" ">
<polygon fill="white" stroke="#666666" points="917,-725.5 830,-725.5 830,-706.5 917,-706.5 917,-725.5"/>
<text text-anchor="middle" x="873.5" y="-713.5" font-family="Helvetica,sans-Serif" font-size="10.00">ZeroDataScreen</text>
</a>
</g>
</g>
<!-- Node63&#45;&gt;Node75 -->
<g id="edge65" class="edge">
<title>Node63&#45;&gt;Node75</title>
<path fill="none" stroke="#63b8ff" d="M749.18,-687.21C769.63,-691.99 795.83,-698.1 818.82,-703.47"/>
<polygon fill="#63b8ff" stroke="#63b8ff" points="817.8,-706.82 828.33,-705.69 819.39,-700.01 817.8,-706.82"/>
</g>
<!-- Node67&#45;&gt;Node2 -->
<g id="edge58" class="edge">
<title>Node67&#45;&gt;Node2</title>
<path fill="none" stroke="#63b8ff" d="M835.7,-560.03C826.58,-557.22 817.33,-553.08 810,-547 783.38,-524.92 802.6,-497.45 774,-478 689.38,-420.46 647.34,-454 545,-454 400,-454 400,-454 400,-454 311.51,-454 227.28,-376.34 192.83,-340.15"/>
<polygon fill="#63b8ff" stroke="#63b8ff" points="195.58,-337.97 186.21,-333.03 190.45,-342.74 195.58,-337.97"/>
</g>
<!-- Node67&#45;&gt;Node38 -->
<g id="edge57" class="edge">
<title>Node67&#45;&gt;Node38</title>
<path fill="none" stroke="#63b8ff" d="M911.42,-556.8C933.69,-551.25 962.12,-544.17 985.22,-538.41"/>
<polygon fill="#63b8ff" stroke="#63b8ff" points="985.75,-541.89 994.61,-536.07 984.06,-535.09 985.75,-541.89"/>
</g>
<!-- Node67&#45;&gt;Node39 -->
<g id="edge59" class="edge">
<title>Node67&#45;&gt;Node39</title>
<path fill="none" stroke="#63b8ff" d="M911.3,-560.96C920.63,-558.14 929.99,-553.78 937,-547 1007.1,-479.29 1022.61,-354.74 1026.03,-305.16"/>
<polygon fill="#63b8ff" stroke="#63b8ff" points="1029.52,-305.46 1026.6,-295.27 1022.53,-305.06 1029.52,-305.46"/>
</g>
<!-- Node67&#45;&gt;Node69 -->
<g id="edge60" class="edge">
<title>Node67&#45;&gt;Node69</title>
<path fill="none" stroke="#63b8ff" d="M911.28,-562.14C920.95,-559.36 930.49,-554.71 937,-547 977.76,-498.73 955.15,-325.6 973,-265 983.14,-230.56 1002.66,-193.54 1015.25,-171.6"/>
<polygon fill="#63b8ff" stroke="#63b8ff" points="1018.16,-173.55 1020.19,-163.15 1012.12,-170.02 1018.16,-173.55"/>
</g>
<!-- Node67&#45;&gt;Node74 -->
<g id="edge64" class="edge">
<title>Node67&#45;&gt;Node74</title>
<path fill="none" stroke="#63b8ff" d="M911.23,-573.07C920.06,-575.7 929.19,-579.25 937,-584 969.51,-603.77 998,-638.33 1013.82,-659.87"/>
<polygon fill="#63b8ff" stroke="#63b8ff" points="1010.81,-661.68 1019.47,-667.78 1016.51,-657.61 1010.81,-661.68"/>
</g>
<!-- Node69&#45;&gt;Node2 -->
<g id="edge62" class="edge">
<title>Node69&#45;&gt;Node2</title>
<path fill="none" stroke="#63b8ff" d="M995.52,-144.36C978.32,-140.44 956.59,-135.89 937,-133 838.6,-118.48 813.47,-114 714,-114 400,-114 400,-114 400,-114 327.45,-114 305.8,-135.24 253,-185 217.45,-218.5 194.17,-272.28 183.41,-301.49"/>
<polygon fill="#63b8ff" stroke="#63b8ff" points="180.22,-300.03 180.19,-310.63 186.82,-302.37 180.22,-300.03"/>
</g>
<!-- Node69&#45;&gt;Node30 -->
<g id="edge63" class="edge">
<title>Node69&#45;&gt;Node30</title>
<path fill="none" stroke="#63b8ff" d="M1034.32,-161.74C1044.71,-181.02 1067.97,-225.59 1083,-265 1116.55,-352.94 1143.95,-462.11 1154.65,-507.11"/>
<polygon fill="#63b8ff" stroke="#63b8ff" points="1151.23,-507.85 1156.93,-516.79 1158.05,-506.25 1151.23,-507.85"/>
</g>
<!-- Node69&#45;&gt;Node40 -->
<g id="edge61" class="edge">
<title>Node69&#45;&gt;Node40</title>
<path fill="none" stroke="#63b8ff" d="M1060.26,-152C1074.34,-152 1091.34,-152 1107.27,-152"/>
<polygon fill="#63b8ff" stroke="#63b8ff" points="1107.1,-155.5 1117.1,-152 1107.1,-148.5 1107.1,-155.5"/>
</g>
<!-- Node76&#45;&gt;Node43 -->
<g id="edge69" class="edge">
<title>Node76&#45;&gt;Node43</title>
<path fill="none" stroke="#63b8ff" d="M759.73,-875.99C764.89,-878.38 769.8,-881.34 774,-885 802.16,-909.58 781.52,-936.8 810,-961 810.95,-961.8 811.93,-962.57 812.94,-963.31"/>
<polygon fill="#63b8ff" stroke="#63b8ff" points="810.99,-966.22 821.39,-968.27 814.53,-960.19 810.99,-966.22"/>
</g>
<!-- Node77 -->
<g id="node47" class="node">
<title>Node77</title>
<g id="a_node47"><a xlink:href="transceiver_8h.html#a75fa77e7bbb1cfe8fe6e1a216fbdc17e" target="_top" xlink:title=" ">
<polygon fill="#fff0f0" stroke="red" points="906,-875.5 841,-875.5 841,-856.5 906,-856.5 906,-875.5"/>
<text text-anchor="middle" x="873.5" y="-863.5" font-family="Helvetica,sans-Serif" font-size="10.00">GetAltitude</text>
</a>
</g>
</g>
<!-- Node76&#45;&gt;Node77 -->
<g id="edge67" class="edge">
<title>Node76&#45;&gt;Node77</title>
<path fill="none" stroke="#63b8ff" d="M760.27,-866C782.01,-866 807.78,-866 829.14,-866"/>
<polygon fill="#63b8ff" stroke="#63b8ff" points="828.99,-869.5 838.99,-866 828.99,-862.5 828.99,-869.5"/>
</g>
<!-- Node79 -->
<g id="node48" class="node">
<title>Node79</title>
<g id="a_node48"><a xlink:href="transceiver_8h.html#a160b9119423c34869b16a4ebdc421d35" target="_top" xlink:title=" ">
<polygon fill="white" stroke="#666666" points="937,-838.5 810,-838.5 810,-819.5 937,-819.5 937,-838.5"/>
<text text-anchor="middle" x="873.5" y="-826.5" font-family="Helvetica,sans-Serif" font-size="10.00">GetDateFromAckPayload</text>
</a>
</g>
</g>
<!-- Node76&#45;&gt;Node79 -->
<g id="edge68" class="edge">
<title>Node76&#45;&gt;Node79</title>
<path fill="none" stroke="#63b8ff" d="M756.48,-856.08C775.66,-851.61 798.55,-846.26 818.9,-841.51"/>
<polygon fill="#63b8ff" stroke="#63b8ff" points="819.49,-844.97 828.43,-839.29 817.9,-838.15 819.49,-844.97"/>
</g>
<!-- Node107&#45;&gt;Node39 -->
<g id="edge77" class="edge">
<title>Node107&#45;&gt;Node39</title>
<path fill="none" stroke="#63b8ff" d="M909.83,-162C919.15,-165.56 928.87,-170.18 937,-176 971.07,-200.4 999.93,-240.65 1015.24,-264.52"/>
<polygon fill="#63b8ff" stroke="#63b8ff" points="1012.22,-266.3 1020.48,-272.93 1018.16,-262.59 1012.22,-266.3"/>
</g>
<!-- Node107&#45;&gt;Node69 -->
<g id="edge78" class="edge">
<title>Node107&#45;&gt;Node69</title>
<path fill="none" stroke="#63b8ff" d="M926.98,-152C945.69,-152 966.52,-152 984.31,-152"/>
<polygon fill="#63b8ff" stroke="#63b8ff" points="984.28,-155.5 994.28,-152 984.28,-148.5 984.28,-155.5"/>
</g>
</g>
</svg>
