<?xml version="1.0" encoding="UTF-8" standalone="no"?>
<!DOCTYPE svg PUBLIC "-//W3C//DTD SVG 1.1//EN"
 "http://www.w3.org/Graphics/SVG/1.1/DTD/svg11.dtd">
<!-- Generated by graphviz version 7.0.5 (20221223.1930)
 -->
<!-- Title: ShowFileNumber Pages: 1 -->
<svg width="1267pt" height="919pt"
 viewBox="0.00 0.00 1267.00 919.48" xmlns="http://www.w3.org/2000/svg" xmlns:xlink="http://www.w3.org/1999/xlink">
<g id="graph0" class="graph" transform="scale(1 1) rotate(0) translate(4 915.48)">
<title>ShowFileNumber</title>
<!-- Node1 -->
<g id="node1" class="node">
<title>Node1</title>
<g id="a_node1"><a xlink:title="updates display in textbox">
<polygon fill="#999999" stroke="#666666" points="92,-827 0,-827 0,-808 92,-808 92,-827"/>
<text text-anchor="middle" x="46" y="-815" font-family="Helvetica,sans-Serif" font-size="10.00">ShowFileNumber</text>
</a>
</g>
</g>
<!-- Node2 -->
<g id="node2" class="node">
<title>Node2</title>
<g id="a_node2"><a xlink:href="TransmitterCode_2src_2main_8cpp.html#afe513398f72d5e48f691830a1ef6eb42" target="_top" xlink:title=" ">
<polygon fill="white" stroke="#666666" points="186,-827 128,-827 128,-808 186,-808 186,-827"/>
<text text-anchor="middle" x="157" y="-815" font-family="Helvetica,sans-Serif" font-size="10.00">SendText</text>
</a>
</g>
</g>
<!-- Node1&#45;&gt;Node2 -->
<g id="edge1" class="edge">
<title>Node1&#45;&gt;Node2</title>
<path fill="none" stroke="#63b8ff" d="M92.28,-817.5C100.2,-817.5 108.39,-817.5 116.16,-817.5"/>
<polygon fill="#63b8ff" stroke="#63b8ff" points="116.01,-821 126.01,-817.5 116.01,-814 116.01,-821"/>
</g>
<!-- Node3 -->
<g id="node3" class="node">
<title>Node3</title>
<g id="a_node3"><a xlink:href="TransmitterCode_2src_2main_8cpp.html#a43937dd3d9c795271fd9c3eb3c6b6410" target="_top" xlink:title=" ">
<polygon fill="white" stroke="#666666" points="424,-884 341,-884 341,-865 424,-865 424,-884"/>
<text text-anchor="middle" x="382.5" y="-872" font-family="Helvetica,sans-Serif" font-size="10.00">GetReturnCode</text>
</a>
</g>
</g>
<!-- Node2&#45;&gt;Node3 -->
<g id="edge2" class="edge">
<title>Node2&#45;&gt;Node3</title>
<path fill="none" stroke="#63b8ff" d="M186.31,-824.72C222.8,-834.03 286.87,-850.37 331.62,-861.78"/>
<polygon fill="#63b8ff" stroke="#63b8ff" points="330.53,-865.11 341.08,-864.19 332.26,-858.33 330.53,-865.11"/>
</g>
<!-- Node4 -->
<g id="node4" class="node">
<title>Node4</title>
<g id="a_node4"><a xlink:href="TransmitterCode_2src_2main_8cpp.html#aecac2f0c289f02ef3c92b85be82eacac" target="_top" xlink:title=" ">
<polygon fill="white" stroke="#666666" points="305,-770 222,-770 222,-751 305,-751 305,-770"/>
<text text-anchor="middle" x="263.5" y="-758" font-family="Helvetica,sans-Serif" font-size="10.00">SendCommand</text>
</a>
</g>
</g>
<!-- Node2&#45;&gt;Node4 -->
<g id="edge3" class="edge">
<title>Node2&#45;&gt;Node4</title>
<path fill="none" stroke="#63b8ff" d="M176.2,-807.57C192.31,-798.78 216.07,-785.83 234.58,-775.73"/>
<polygon fill="#63b8ff" stroke="#63b8ff" points="236.07,-778.9 243.18,-771.04 232.72,-772.76 236.07,-778.9"/>
</g>
<!-- Node4&#45;&gt;Node3 -->
<g id="edge4" class="edge">
<title>Node4&#45;&gt;Node3</title>
<path fill="none" stroke="#63b8ff" d="M271.19,-770.35C283.5,-787.97 311.22,-825.38 341,-850.5 344.49,-853.44 348.37,-856.24 352.33,-858.82"/>
<polygon fill="#63b8ff" stroke="#63b8ff" points="350.42,-861.75 360.79,-863.94 354.05,-855.77 350.42,-861.75"/>
</g>
<!-- Node5 -->
<g id="node5" class="node">
<title>Node5</title>
<g id="a_node5"><a xlink:href="TransmitterCode_2src_2main_8cpp.html#a5f109790a6fe0b972a502f3cac4ed1e7" target="_top" xlink:title=" ">
<polygon fill="white" stroke="#666666" points="406.5,-732 358.5,-732 358.5,-713 406.5,-713 406.5,-732"/>
<text text-anchor="middle" x="382.5" y="-720" font-family="Helvetica,sans-Serif" font-size="10.00">InStrng</text>
</a>
</g>
</g>
<!-- Node4&#45;&gt;Node5 -->
<g id="edge5" class="edge">
<title>Node4&#45;&gt;Node5</title>
<path fill="none" stroke="#63b8ff" d="M295.24,-750.52C311.3,-745.3 331,-738.9 347.52,-733.54"/>
<polygon fill="#63b8ff" stroke="#63b8ff" points="348.49,-736.9 356.92,-730.48 346.33,-730.24 348.49,-736.9"/>
</g>
<!-- Node6 -->
<g id="node6" class="node">
<title>Node6</title>
<g id="a_node6"><a xlink:href="TransmitterCode_2src_2main_8cpp.html#a760609a682300dfe6bfaac737fd4d5eb" target="_top" xlink:title=" ">
<polygon fill="white" stroke="#666666" points="419.5,-561 345.5,-561 345.5,-542 419.5,-542 419.5,-561"/>
<text text-anchor="middle" x="382.5" y="-549" font-family="Helvetica,sans-Serif" font-size="10.00">Procrastinate</text>
</a>
</g>
</g>
<!-- Node4&#45;&gt;Node6 -->
<g id="edge6" class="edge">
<title>Node4&#45;&gt;Node6</title>
<path fill="none" stroke="#63b8ff" d="M269.99,-750.7C288.11,-718.33 346.27,-614.43 370.62,-570.94"/>
<polygon fill="#63b8ff" stroke="#63b8ff" points="373.59,-572.79 375.42,-562.36 367.48,-569.38 373.59,-572.79"/>
</g>
<!-- Node7 -->
<g id="node7" class="node">
<title>Node7</title>
<g id="a_node7"><a xlink:href="ReceiverCode_2src_2main_8cpp.html#ada95a00a341e4a80176eda743a94ab2e" target="_top" xlink:title=" ">
<polygon fill="white" stroke="#666666" points="530,-580 460,-580 460,-561 530,-561 530,-580"/>
<text text-anchor="middle" x="495" y="-568" font-family="Helvetica,sans-Serif" font-size="10.00">KickTheDog</text>
</a>
</g>
</g>
<!-- Node6&#45;&gt;Node7 -->
<g id="edge7" class="edge">
<title>Node6&#45;&gt;Node7</title>
<path fill="none" stroke="#63b8ff" d="M419.99,-557.77C429.11,-559.34 439,-561.04 448.49,-562.67"/>
<polygon fill="#63b8ff" stroke="#63b8ff" points="447.86,-566.12 458.3,-564.36 449.04,-559.22 447.86,-566.12"/>
</g>
<!-- Node8 -->
<g id="node8" class="node">
<title>Node8</title>
<g id="a_node8"><a xlink:href="TransmitterCode_2src_2main_8cpp.html#a049bfb836e7aa4a3a48a1a4bd225fafc" target="_top" xlink:title=" ">
<polygon fill="white" stroke="#666666" points="524.5,-449 465.5,-449 465.5,-430 524.5,-430 524.5,-449"/>
<text text-anchor="middle" x="495" y="-437" font-family="Helvetica,sans-Serif" font-size="10.00">SendData</text>
</a>
</g>
</g>
<!-- Node6&#45;&gt;Node8 -->
<g id="edge8" class="edge">
<title>Node6&#45;&gt;Node8</title>
<path fill="none" stroke="#63b8ff" d="M393.31,-541.56C412.03,-522.58 453.09,-480.96 476.59,-457.15"/>
<polygon fill="#63b8ff" stroke="#63b8ff" points="478.78,-459.91 483.31,-450.33 473.8,-454.99 478.78,-459.91"/>
</g>
<!-- Node9 -->
<g id="node9" class="node">
<title>Node9</title>
<g id="a_node9"><a xlink:href="TransmitterCode_2src_2main_8cpp.html#a1ddd5e8d5bd649dd98ce3710fbff651b" target="_top" xlink:title=" ">
<polygon fill="white" stroke="#666666" points="644.5,-430 583.5,-430 583.5,-411 644.5,-411 644.5,-430"/>
<text text-anchor="middle" x="614" y="-418" font-family="Helvetica,sans-Serif" font-size="10.00">Compress</text>
</a>
</g>
</g>
<!-- Node8&#45;&gt;Node9 -->
<g id="edge9" class="edge">
<title>Node8&#45;&gt;Node9</title>
<path fill="none" stroke="#63b8ff" d="M524.92,-434.8C539.19,-432.49 556.64,-429.65 572.23,-427.12"/>
<polygon fill="#63b8ff" stroke="#63b8ff" points="572.39,-430.64 581.7,-425.58 571.26,-423.73 572.39,-430.64"/>
</g>
<!-- Node10 -->
<g id="node10" class="node">
<title>Node10</title>
<g id="a_node10"><a xlink:href="TransmitterCode_2src_2main_8cpp.html#a5fbd3c8613a4163425c94965704ce5f8" target="_top" xlink:title=" ">
<polygon fill="white" stroke="#666666" points="651,-504 577,-504 577,-485 651,-485 651,-504"/>
<text text-anchor="middle" x="614" y="-492" font-family="Helvetica,sans-Serif" font-size="10.00">FailedPacket</text>
</a>
</g>
</g>
<!-- Node8&#45;&gt;Node10 -->
<g id="edge10" class="edge">
<title>Node8&#45;&gt;Node10</title>
<path fill="none" stroke="#63b8ff" d="M514.2,-449.44C528.2,-456.94 548.11,-467.3 566,-475.5 569.55,-477.13 573.28,-478.76 577.02,-480.35"/>
<polygon fill="#63b8ff" stroke="#63b8ff" points="575.48,-483.5 586.05,-484.08 578.15,-477.03 575.48,-483.5"/>
</g>
<!-- Node35 -->
<g id="node26" class="node">
<title>Node35</title>
<g id="a_node26"><a xlink:href="TransmitterCode_2src_2main_8cpp.html#a07c27b4e208198453c70876517926052" target="_top" xlink:title=" ">
<polygon fill="white" stroke="#666666" points="645,-319 583,-319 583,-300 645,-300 645,-319"/>
<text text-anchor="middle" x="614" y="-307" font-family="Helvetica,sans-Serif" font-size="10.00">FlushFifos</text>
</a>
</g>
</g>
<!-- Node8&#45;&gt;Node35 -->
<g id="edge33" class="edge">
<title>Node8&#45;&gt;Node35</title>
<path fill="none" stroke="#63b8ff" d="M504.79,-429.73C524.27,-408.08 571.32,-355.81 596.48,-327.85"/>
<polygon fill="#63b8ff" stroke="#63b8ff" points="599,-330.28 603.09,-320.51 593.8,-325.6 599,-330.28"/>
</g>
<!-- Node34 -->
<g id="node27" class="node">
<title>Node34</title>
<g id="a_node27"><a xlink:href="radio_8h.html#a6e2d4126d864c50e7c23c988c2bfdd1a" target="_top" xlink:title=" ">
<polygon fill="white" stroke="#666666" points="782.5,-94 735.5,-94 735.5,-75 782.5,-75 782.5,-94"/>
<text text-anchor="middle" x="759" y="-82" font-family="Helvetica,sans-Serif" font-size="10.00">Radio1</text>
</a>
</g>
</g>
<!-- Node8&#45;&gt;Node34 -->
<g id="edge40" class="edge">
<title>Node8&#45;&gt;Node34</title>
<path fill="none" stroke="#63b8ff" d="M499.1,-429.62C513.61,-385.09 579.05,-201.18 698,-108.5 705.74,-102.47 715.19,-97.76 724.28,-94.17"/>
<polygon fill="#63b8ff" stroke="#63b8ff" points="725.38,-97.49 733.63,-90.84 723.04,-90.9 725.38,-97.49"/>
</g>
<!-- Node36 -->
<g id="node28" class="node">
<title>Node36</title>
<g id="a_node28"><a xlink:href="TransmitterCode_2src_2main_8cpp.html#ac4ffb9b555ce8d38f615610dc89b5499" target="_top" xlink:title=" ">
<polygon fill="white" stroke="#666666" points="658.5,-768 569.5,-768 569.5,-749 658.5,-749 658.5,-768"/>
<text text-anchor="middle" x="614" y="-756" font-family="Helvetica,sans-Serif" font-size="10.00">LoadPacketData</text>
</a>
</g>
</g>
<!-- Node8&#45;&gt;Node36 -->
<g id="edge35" class="edge">
<title>Node8&#45;&gt;Node36</title>
<path fill="none" stroke="#63b8ff" d="M499.63,-449.4C515.97,-493.96 582.92,-676.49 605.51,-738.09"/>
<polygon fill="#63b8ff" stroke="#63b8ff" points="602.16,-739.11 608.89,-747.3 608.73,-736.7 602.16,-739.11"/>
</g>
<!-- Node39 -->
<g id="node31" class="node">
<title>Node39</title>
<g id="a_node31"><a xlink:href="TransmitterCode_2src_2main_8cpp.html#a784a1eca0361b3991bca899167cc1cdb" target="_top" xlink:title=" ">
<polygon fill="white" stroke="#666666" points="651.5,-467 576.5,-467 576.5,-448 651.5,-448 651.5,-467"/>
<text text-anchor="middle" x="614" y="-455" font-family="Helvetica,sans-Serif" font-size="10.00">SendViaPPM</text>
</a>
</g>
</g>
<!-- Node8&#45;&gt;Node39 -->
<g id="edge41" class="edge">
<title>Node8&#45;&gt;Node39</title>
<path fill="none" stroke="#63b8ff" d="M524.92,-443.95C536.98,-445.8 551.3,-448.01 564.86,-450.09"/>
<polygon fill="#63b8ff" stroke="#63b8ff" points="564.09,-453.52 574.51,-451.58 565.16,-446.6 564.09,-453.52"/>
</g>
<!-- Node40 -->
<g id="node32" class="node">
<title>Node40</title>
<g id="a_node32"><a xlink:href="TransmitterCode_2src_2main_8cpp.html#a1c11bb6771548de7d96723045b922620" target="_top" xlink:title=" ">
<polygon fill="white" stroke="#666666" points="662,-393 566,-393 566,-374 662,-374 662,-393"/>
<text text-anchor="middle" x="614" y="-381" font-family="Helvetica,sans-Serif" font-size="10.00">SuccessfulPacket</text>
</a>
</g>
</g>
<!-- Node8&#45;&gt;Node40 -->
<g id="edge42" class="edge">
<title>Node8&#45;&gt;Node40</title>
<path fill="none" stroke="#63b8ff" d="M512.66,-429.65C526.64,-421.58 547.29,-410.12 566,-401.5 568.9,-400.16 571.93,-398.84 575,-397.56"/>
<polygon fill="#63b8ff" stroke="#63b8ff" points="576.03,-400.91 584.01,-393.94 573.42,-394.42 576.03,-400.91"/>
</g>
<!-- Node11 -->
<g id="node11" class="node">
<title>Node11</title>
<g id="a_node11"><a xlink:href="TransmitterCode_2src_2main_8cpp.html#afd409fe008843b50c3e2ff697558d4d5" target="_top" xlink:title=" ">
<polygon fill="white" stroke="#666666" points="966,-469 874,-469 874,-450 966,-450 966,-469"/>
<text text-anchor="middle" x="920" y="-457" font-family="Helvetica,sans-Serif" font-size="10.00">LogThisLongGap</text>
</a>
</g>
</g>
<!-- Node10&#45;&gt;Node11 -->
<g id="edge11" class="edge">
<title>Node10&#45;&gt;Node11</title>
<path fill="none" stroke="#63b8ff" d="M651.2,-486.1C665.68,-482.99 682.56,-479.7 698,-477.5 753.57,-469.58 817.53,-464.84 862.3,-462.23"/>
<polygon fill="#63b8ff" stroke="#63b8ff" points="862.23,-465.74 872.02,-461.68 861.84,-458.75 862.23,-465.74"/>
</g>
<!-- Node22 -->
<g id="node16" class="node">
<title>Node22</title>
<g id="a_node16"><a xlink:href="TransmitterCode_2src_2main_8cpp.html#afc091b5942e21a03f6dc8635d5e519ba" target="_top" xlink:title=" ">
<polygon fill="white" stroke="#666666" points="820,-430 698,-430 698,-411 820,-411 820,-430"/>
<text text-anchor="middle" x="759" y="-418" font-family="Helvetica,sans-Serif" font-size="10.00">RecordsPacketSuccess</text>
</a>
</g>
</g>
<!-- Node10&#45;&gt;Node22 -->
<g id="edge16" class="edge">
<title>Node10&#45;&gt;Node22</title>
<path fill="none" stroke="#63b8ff" d="M643.56,-484.69C649.83,-482.07 656.29,-478.98 662,-475.5 680.03,-464.51 679.95,-455.46 698,-444.5 703.98,-440.87 710.6,-437.58 717.21,-434.69"/>
<polygon fill="#63b8ff" stroke="#63b8ff" points="718.15,-438.09 726.07,-431.05 715.49,-431.61 718.15,-438.09"/>
</g>
<!-- Node23 -->
<g id="node17" class="node">
<title>Node23</title>
<g id="a_node17"><a xlink:href="TransmitterCode_2src_2main_8cpp.html#a7d34cec6e8edc20c8b50424e15dcc7c7" target="_top" xlink:title=" ">
<polygon fill="white" stroke="#666666" points="790.5,-844 727.5,-844 727.5,-825 790.5,-825 790.5,-844"/>
<text text-anchor="middle" x="759" y="-832" font-family="Helvetica,sans-Serif" font-size="10.00">RedLedOn</text>
</a>
</g>
</g>
<!-- Node10&#45;&gt;Node23 -->
<g id="edge17" class="edge">
<title>Node10&#45;&gt;Node23</title>
<path fill="none" stroke="#63b8ff" d="M616.07,-504.48C620.53,-542.49 640.13,-680.88 698,-776.5 707.66,-792.46 722.78,-807.03 735.42,-817.58"/>
<polygon fill="#63b8ff" stroke="#63b8ff" points="732.9,-820.05 742.9,-823.57 737.28,-814.59 732.9,-820.05"/>
</g>
<!-- Node28 -->
<g id="node22" class="node">
<title>Node28</title>
<g id="a_node22"><a xlink:href="TransmitterCode_2src_2main_8cpp.html#a0a3d89dfcfab70c6cbc50401fff1afeb" target="_top" xlink:title=" ">
<polygon fill="white" stroke="#666666" points="813.5,-694 704.5,-694 704.5,-675 813.5,-675 813.5,-694"/>
<text text-anchor="middle" x="759" y="-682" font-family="Helvetica,sans-Serif" font-size="10.00">ReEnableScanButton</text>
</a>
</g>
</g>
<!-- Node10&#45;&gt;Node28 -->
<g id="edge27" class="edge">
<title>Node10&#45;&gt;Node28</title>
<path fill="none" stroke="#63b8ff" d="M622.49,-504.45C645.22,-534.65 713.71,-625.66 743.69,-665.49"/>
<polygon fill="#63b8ff" stroke="#63b8ff" points="740.87,-667.56 749.68,-673.44 746.46,-663.35 740.87,-667.56"/>
</g>
<!-- Node29 -->
<g id="node23" class="node">
<title>Node29</title>
<g id="a_node23"><a xlink:href="TransmitterCode_2src_2main_8cpp.html#ad0236abcfc887ad708d9504c4ab2a7c3" target="_top" xlink:title=" ">
<polygon fill="white" stroke="#666666" points="803,-506 715,-506 715,-487 803,-487 803,-506"/>
<text text-anchor="middle" x="759" y="-494" font-family="Helvetica,sans-Serif" font-size="10.00">TryToReconnect</text>
</a>
</g>
</g>
<!-- Node10&#45;&gt;Node29 -->
<g id="edge30" class="edge">
<title>Node10&#45;&gt;Node29</title>
<path fill="none" stroke="#63b8ff" d="M651.45,-495.01C667.27,-495.23 686.13,-495.49 703.55,-495.74"/>
<polygon fill="#63b8ff" stroke="#63b8ff" points="703.18,-499.23 713.23,-495.87 703.28,-492.23 703.18,-499.23"/>
</g>
<!-- Node12 -->
<g id="node12" class="node">
<title>Node12</title>
<g id="a_node12"><a xlink:href="TransmitterCode_2src_2main_8cpp.html#add8d8f400f1c1c4a5add52736cdf94ca" target="_top" xlink:title=" ">
<polygon fill="#fff0f0" stroke="red" points="1102.5,-469 1050.5,-469 1050.5,-450 1102.5,-450 1102.5,-469"/>
<text text-anchor="middle" x="1076.5" y="-457" font-family="Helvetica,sans-Serif" font-size="10.00">LogText</text>
</a>
</g>
</g>
<!-- Node11&#45;&gt;Node12 -->
<g id="edge12" class="edge">
<title>Node11&#45;&gt;Node12</title>
<path fill="none" stroke="#63b8ff" d="M966.1,-459.5C989.25,-459.5 1017.08,-459.5 1038.88,-459.5"/>
<polygon fill="#63b8ff" stroke="#63b8ff" points="1038.79,-463 1048.79,-459.5 1038.79,-456 1038.79,-463"/>
</g>
<!-- Node17 -->
<g id="node15" class="node">
<title>Node17</title>
<g id="a_node15"><a xlink:href="TransmitterCode_2src_2main_8cpp.html#a590a9174319918d7e3d7baca323fcf26" target="_top" xlink:title=" ">
<polygon fill="white" stroke="#666666" points="1228.5,-507 1199.5,-507 1199.5,-488 1228.5,-488 1228.5,-507"/>
<text text-anchor="middle" x="1214" y="-495" font-family="Helvetica,sans-Serif" font-size="10.00">Str</text>
</a>
</g>
</g>
<!-- Node11&#45;&gt;Node17 -->
<g id="edge15" class="edge">
<title>Node11&#45;&gt;Node17</title>
<path fill="none" stroke="#63b8ff" d="M966.22,-468.48C983.06,-471.62 1002.36,-474.99 1020,-477.5 1080.22,-486.08 1151.52,-492.51 1188.3,-495.55"/>
<polygon fill="#63b8ff" stroke="#63b8ff" points="1187.63,-499.01 1197.88,-496.33 1188.19,-492.03 1187.63,-499.01"/>
</g>
<!-- Node13 -->
<g id="node13" class="node">
<title>Node13</title>
<g id="a_node13"><a xlink:href="TransmitterCode_2src_2main_8cpp.html#a6f003363493fc53b69f9efc1f447a6a1" target="_top" xlink:title=" ">
<polygon fill="white" stroke="#666666" points="1251,-432 1177,-432 1177,-413 1251,-413 1251,-432"/>
<text text-anchor="middle" x="1214" y="-420" font-family="Helvetica,sans-Serif" font-size="10.00">CloseLogFile</text>
</a>
</g>
</g>
<!-- Node12&#45;&gt;Node13 -->
<g id="edge13" class="edge">
<title>Node12&#45;&gt;Node13</title>
<path fill="none" stroke="#63b8ff" d="M1102.99,-452.54C1120.6,-447.73 1144.55,-441.19 1165.61,-435.44"/>
<polygon fill="#63b8ff" stroke="#63b8ff" points="1166.45,-438.84 1175.17,-432.83 1164.6,-432.09 1166.45,-438.84"/>
</g>
<!-- Node14 -->
<g id="node14" class="node">
<title>Node14</title>
<g id="a_node14"><a xlink:href="TransmitterCode_2src_2main_8cpp.html#a99a51dbad5d686ca711e982f82cbcada" target="_top" xlink:title=" ">
<polygon fill="#fff0f0" stroke="red" points="1259,-469 1169,-469 1169,-450 1259,-450 1259,-469"/>
<text text-anchor="middle" x="1214" y="-457" font-family="Helvetica,sans-Serif" font-size="10.00">LogFilePreamble</text>
</a>
</g>
</g>
<!-- Node12&#45;&gt;Node14 -->
<g id="edge14" class="edge">
<title>Node12&#45;&gt;Node14</title>
<path fill="none" stroke="#63b8ff" d="M1102.99,-459.5C1118.29,-459.5 1138.37,-459.5 1157.19,-459.5"/>
<polygon fill="#63b8ff" stroke="#63b8ff" points="1157.18,-463 1167.18,-459.5 1157.18,-456 1157.18,-463"/>
</g>
<!-- Node23&#45;&gt;Node2 -->
<g id="edge25" class="edge">
<title>Node23&#45;&gt;Node2</title>
<path fill="none" stroke="#63b8ff" d="M728.66,-844.48C660.54,-866.37 486.38,-915.01 341,-893.5 286.34,-885.41 272.31,-880.34 222,-857.5 207.46,-850.9 192.26,-841.52 180.32,-833.5"/>
<polygon fill="#63b8ff" stroke="#63b8ff" points="182.61,-830.83 172.39,-828.03 178.64,-836.59 182.61,-830.83"/>
</g>
<!-- Node23&#45;&gt;Node4 -->
<g id="edge24" class="edge">
<title>Node23&#45;&gt;Node4</title>
<path fill="none" stroke="#63b8ff" d="M727.07,-830.46C657.81,-821.32 485.01,-798.03 341,-774.5 333.12,-773.21 324.8,-771.77 316.66,-770.32"/>
<polygon fill="#63b8ff" stroke="#63b8ff" points="317.3,-766.88 306.83,-768.54 316.05,-773.77 317.3,-766.88"/>
</g>
<!-- Node24 -->
<g id="node18" class="node">
<title>Node24</title>
<g id="a_node18"><a xlink:href="TransmitterCode_2src_2main_8cpp.html#a549a702bb9b539c6b3a4f20cce65adcc" target="_top" xlink:title=" ">
<polygon fill="white" stroke="#666666" points="969,-769 871,-769 871,-750 969,-750 969,-769"/>
<text text-anchor="middle" x="920" y="-757" font-family="Helvetica,sans-Serif" font-size="10.00">GetLEDBrightness</text>
</a>
</g>
</g>
<!-- Node23&#45;&gt;Node24 -->
<g id="edge18" class="edge">
<title>Node23&#45;&gt;Node24</title>
<path fill="none" stroke="#63b8ff" d="M774.02,-824.6C792.19,-812.14 825.21,-790.78 856,-777.5 859.77,-775.87 863.74,-774.35 867.76,-772.93"/>
<polygon fill="#63b8ff" stroke="#63b8ff" points="868.62,-776.33 877.03,-769.88 866.44,-769.68 868.62,-776.33"/>
</g>
<!-- Node25 -->
<g id="node19" class="node">
<title>Node25</title>
<g id="a_node19"><a xlink:href="TransmitterCode_2src_2main_8cpp.html#a2d5ec5fd5ed62d5b7b071fabe2225405" target="_top" xlink:title=" ">
<polygon fill="white" stroke="#666666" points="968,-843 872,-843 872,-824 968,-824 968,-843"/>
<text text-anchor="middle" x="920" y="-831" font-family="Helvetica,sans-Serif" font-size="10.00">LogDisConnection</text>
</a>
</g>
</g>
<!-- Node23&#45;&gt;Node25 -->
<g id="edge19" class="edge">
<title>Node23&#45;&gt;Node25</title>
<path fill="none" stroke="#63b8ff" d="M790.66,-834.31C810.35,-834.18 836.58,-834.02 860.2,-833.87"/>
<polygon fill="#63b8ff" stroke="#63b8ff" points="860.05,-837.37 870.02,-833.81 860,-830.37 860.05,-837.37"/>
</g>
<!-- Node26 -->
<g id="node20" class="node">
<title>Node26</title>
<g id="a_node20"><a xlink:href="TransmitterCode_2src_2main_8cpp.html#aa490b4664b0a4498d53b30b82287d5df" target="_top" xlink:title=" ">
<polygon fill="white" stroke="#666666" points="1108,-769 1045,-769 1045,-750 1108,-750 1108,-769"/>
<text text-anchor="middle" x="1076.5" y="-757" font-family="Helvetica,sans-Serif" font-size="10.00">PlaySound</text>
</a>
</g>
</g>
<!-- Node23&#45;&gt;Node26 -->
<g id="edge21" class="edge">
<title>Node23&#45;&gt;Node26</title>
<path fill="none" stroke="#63b8ff" d="M787.12,-844.44C830.57,-858.69 917.61,-880.32 984,-852.5 1019.53,-837.61 1048.23,-801.46 1063.5,-778.87"/>
<polygon fill="#63b8ff" stroke="#63b8ff" points="1066.38,-780.86 1068.89,-770.56 1060.51,-777.05 1066.38,-780.86"/>
</g>
<!-- Node27 -->
<g id="node21" class="node">
<title>Node27</title>
<g id="a_node21"><a xlink:href="ReceiverCode_2src_2main_8cpp.html#a2eabdb233653fa02f0b899e26b5e8ce7" target="_top" xlink:title=" ">
<polygon fill="white" stroke="#666666" points="969.5,-806 870.5,-806 870.5,-787 969.5,-787 969.5,-806"/>
<text text-anchor="middle" x="920" y="-794" font-family="Helvetica,sans-Serif" font-size="10.00">SetUKFrequencies</text>
</a>
</g>
</g>
<!-- Node23&#45;&gt;Node27 -->
<g id="edge26" class="edge">
<title>Node23&#45;&gt;Node27</title>
<path fill="none" stroke="#63b8ff" d="M790.66,-827.17C812.02,-822.07 841.07,-815.13 866.13,-809.14"/>
<polygon fill="#63b8ff" stroke="#63b8ff" points="866.93,-812.54 875.84,-806.81 865.3,-805.73 866.93,-812.54"/>
</g>
<!-- Node25&#45;&gt;Node12 -->
<g id="edge20" class="edge">
<title>Node25&#45;&gt;Node12</title>
<path fill="none" stroke="#63b8ff" d="M968.48,-825.14C974.26,-822.49 979.65,-819.03 984,-814.5 1007.86,-789.65 1056.81,-552.93 1071.34,-480.47"/>
<polygon fill="#63b8ff" stroke="#63b8ff" points="1074.75,-481.25 1073.28,-470.76 1067.89,-479.88 1074.75,-481.25"/>
</g>
<!-- Node26&#45;&gt;Node4 -->
<g id="edge22" class="edge">
<title>Node26&#45;&gt;Node4</title>
<path fill="none" stroke="#63b8ff" d="M1070.72,-769.37C1059.25,-791.88 1027.86,-846.98 984,-872.5 896.78,-923.24 860.9,-909.5 760,-909.5 613,-909.5 613,-909.5 613,-909.5 545.4,-909.5 361.84,-813.53 291.99,-775.63"/>
<polygon fill="#63b8ff" stroke="#63b8ff" points="293.95,-772.71 283.49,-771 290.6,-778.86 293.95,-772.71"/>
</g>
<!-- Node26&#45;&gt;Node17 -->
<g id="edge23" class="edge">
<title>Node26&#45;&gt;Node17</title>
<path fill="none" stroke="#63b8ff" d="M1108.31,-751.44C1117.26,-747.82 1126.39,-742.69 1133,-735.5 1191.67,-671.69 1207.46,-563.42 1211.59,-518.25"/>
<polygon fill="#63b8ff" stroke="#63b8ff" points="1215.06,-518.81 1212.37,-508.56 1208.08,-518.25 1215.06,-518.81"/>
</g>
<!-- Node28&#45;&gt;Node4 -->
<g id="edge28" class="edge">
<title>Node28&#45;&gt;Node4</title>
<path fill="none" stroke="#63b8ff" d="M704.08,-677.15C622.71,-668.21 464.88,-659.27 341,-703.5 318.01,-711.71 296.13,-729.36 281.71,-742.86"/>
<polygon fill="#63b8ff" stroke="#63b8ff" points="279.56,-740.07 274.83,-749.56 284.44,-745.09 279.56,-740.07"/>
</g>
<!-- Node28&#45;&gt;Node17 -->
<g id="edge29" class="edge">
<title>Node28&#45;&gt;Node17</title>
<path fill="none" stroke="#63b8ff" d="M806.66,-694.45C822.27,-697.33 839.81,-700.08 856,-701.5 912.67,-706.48 930.84,-721.75 984,-701.5 1083.96,-663.43 1168.06,-559.48 1199.63,-516.5"/>
<polygon fill="#63b8ff" stroke="#63b8ff" points="1202.3,-518.78 1205.31,-508.63 1196.62,-514.69 1202.3,-518.78"/>
</g>
<!-- Node30 -->
<g id="node24" class="node">
<title>Node30</title>
<g id="a_node24"><a xlink:href="TransmitterCode_2src_2main_8cpp.html#a52aa3e80bccf5e75346c93fdae63122d" target="_top" xlink:title=" ">
<polygon fill="#fff0f0" stroke="red" points="970.5,-432 869.5,-432 869.5,-413 970.5,-413 970.5,-432"/>
<text text-anchor="middle" x="920" y="-420" font-family="Helvetica,sans-Serif" font-size="10.00">HopToNextChannel</text>
</a>
</g>
</g>
<!-- Node29&#45;&gt;Node30 -->
<g id="edge31" class="edge">
<title>Node29&#45;&gt;Node30</title>
<path fill="none" stroke="#63b8ff" d="M774.36,-486.57C792.63,-474.32 825.47,-453.52 856,-440.5 859.78,-438.89 863.75,-437.37 867.77,-435.96"/>
<polygon fill="#63b8ff" stroke="#63b8ff" points="868.63,-439.36 877.05,-432.92 866.45,-432.71 868.63,-439.36"/>
</g>
<!-- Node32 -->
<g id="node25" class="node">
<title>Node32</title>
<g id="a_node25"><a xlink:href="TransmitterCode_2src_2main_8cpp.html#ad0e30213b21808d00110752679788a8c" target="_top" xlink:title=" ">
<polygon fill="#fff0f0" stroke="red" points="957,-506 883,-506 883,-487 957,-487 957,-506"/>
<text text-anchor="middle" x="920" y="-494" font-family="Helvetica,sans-Serif" font-size="10.00">TryOtherPipe</text>
</a>
</g>
</g>
<!-- Node29&#45;&gt;Node32 -->
<g id="edge32" class="edge">
<title>Node29&#45;&gt;Node32</title>
<path fill="none" stroke="#63b8ff" d="M803.45,-496.5C824.49,-496.5 849.81,-496.5 871.38,-496.5"/>
<polygon fill="#63b8ff" stroke="#63b8ff" points="871.08,-500 881.08,-496.5 871.08,-493 871.08,-500"/>
</g>
<!-- Node35&#45;&gt;Node34 -->
<g id="edge34" class="edge">
<title>Node35&#45;&gt;Node34</title>
<path fill="none" stroke="#63b8ff" d="M620.18,-299.65C629.26,-282.17 648.38,-244.46 662,-211.5 680.51,-166.68 664.48,-143.54 698,-108.5 705.08,-101.1 714.74,-95.93 724.24,-92.33"/>
<polygon fill="#63b8ff" stroke="#63b8ff" points="725.28,-95.67 733.71,-89.26 723.12,-89.01 725.28,-95.67"/>
</g>
<!-- Node36&#45;&gt;Node4 -->
<g id="edge37" class="edge">
<title>Node36&#45;&gt;Node4</title>
<path fill="none" stroke="#63b8ff" d="M569.05,-758.75C504.73,-759.12 385.16,-759.81 316.54,-760.2"/>
<polygon fill="#63b8ff" stroke="#63b8ff" points="316.65,-756.7 306.67,-760.26 316.69,-763.7 316.65,-756.7"/>
</g>
<!-- Node36&#45;&gt;Node27 -->
<g id="edge39" class="edge">
<title>Node36&#45;&gt;Node27</title>
<path fill="none" stroke="#63b8ff" d="M656.19,-768.48C669.47,-771.42 684.3,-774.4 698,-776.5 752.12,-784.79 814.27,-790.04 858.85,-793.07"/>
<polygon fill="#63b8ff" stroke="#63b8ff" points="858.35,-796.54 868.56,-793.71 858.81,-789.56 858.35,-796.54"/>
</g>
<!-- Node37 -->
<g id="node29" class="node">
<title>Node37</title>
<g id="a_node29"><a xlink:href="TransmitterCode_2src_2main_8cpp.html#a5aa4888b924a4f1d95e9cedc3004f2b6" target="_top" xlink:title=" ">
<polygon fill="white" stroke="#666666" points="800.5,-731 717.5,-731 717.5,-712 800.5,-712 800.5,-731"/>
<text text-anchor="middle" x="759" y="-719" font-family="Helvetica,sans-Serif" font-size="10.00">MakeTwobytes</text>
</a>
</g>
</g>
<!-- Node36&#45;&gt;Node37 -->
<g id="edge36" class="edge">
<title>Node36&#45;&gt;Node37</title>
<path fill="none" stroke="#63b8ff" d="M653.32,-748.58C670.31,-744.19 690.52,-738.96 708.62,-734.28"/>
<polygon fill="#63b8ff" stroke="#63b8ff" points="709.3,-737.72 718.11,-731.82 707.55,-730.94 709.3,-737.72"/>
</g>
<!-- Node38 -->
<g id="node30" class="node">
<title>Node38</title>
<g id="a_node30"><a xlink:href="ReceiverCode_2src_2main_8cpp.html#a31a35307bbac88ceda244272f25d399a" target="_top" xlink:title=" ">
<polygon fill="white" stroke="#666666" points="811,-768 707,-768 707,-749 811,-749 811,-768"/>
<text text-anchor="middle" x="759" y="-756" font-family="Helvetica,sans-Serif" font-size="10.00">SetTestFrequencies</text>
</a>
</g>
</g>
<!-- Node36&#45;&gt;Node38 -->
<g id="edge38" class="edge">
<title>Node36&#45;&gt;Node38</title>
<path fill="none" stroke="#63b8ff" d="M658.68,-758.5C670.25,-758.5 682.98,-758.5 695.34,-758.5"/>
<polygon fill="#63b8ff" stroke="#63b8ff" points="695.04,-762 705.04,-758.5 695.04,-755 695.04,-762"/>
</g>
<!-- Node40&#45;&gt;Node22 -->
<g id="edge76" class="edge">
<title>Node40&#45;&gt;Node22</title>
<path fill="none" stroke="#63b8ff" d="M653.32,-393.42C670.31,-397.81 690.52,-403.04 708.62,-407.72"/>
<polygon fill="#63b8ff" stroke="#63b8ff" points="707.55,-411.06 718.11,-410.18 709.3,-404.28 707.55,-411.06"/>
</g>
<!-- Node40&#45;&gt;Node34 -->
<g id="edge75" class="edge">
<title>Node40&#45;&gt;Node34</title>
<path fill="none" stroke="#63b8ff" d="M626.29,-373.57C637.28,-363.22 653.52,-345.95 662,-327.5 703.17,-237.86 636.24,-185.41 698,-108.5 704.58,-100.3 714.39,-94.89 724.18,-91.32"/>
<polygon fill="#63b8ff" stroke="#63b8ff" points="725.04,-94.72 733.59,-88.47 723.01,-88.02 725.04,-94.72"/>
</g>
<!-- Node41 -->
<g id="node33" class="node">
<title>Node41</title>
<g id="a_node33"><a xlink:href="TransmitterCode_2src_2main_8cpp.html#a953f1d5046e183549ed95b08f6d675e3" target="_top" xlink:title=" ">
<polygon fill="white" stroke="#666666" points="808,-393 710,-393 710,-374 808,-374 808,-393"/>
<text text-anchor="middle" x="759" y="-381" font-family="Helvetica,sans-Serif" font-size="10.00">CheckGapsLength</text>
</a>
</g>
</g>
<!-- Node40&#45;&gt;Node41 -->
<g id="edge43" class="edge">
<title>Node40&#45;&gt;Node41</title>
<path fill="none" stroke="#63b8ff" d="M662.22,-383.5C673.81,-383.5 686.37,-383.5 698.45,-383.5"/>
<polygon fill="#63b8ff" stroke="#63b8ff" points="698.34,-387 708.34,-383.5 698.34,-380 698.34,-387"/>
</g>
<!-- Node43 -->
<g id="node35" class="node">
<title>Node43</title>
<g id="a_node35"><a xlink:href="TransmitterCode_2src_2main_8cpp.html#a62e53eb9359c32b666e3386d62c57037" target="_top" xlink:title=" ">
<polygon fill="white" stroke="#666666" points="795,-580 723,-580 723,-561 795,-561 795,-580"/>
<text text-anchor="middle" x="759" y="-568" font-family="Helvetica,sans-Serif" font-size="10.00">GreenLedOn</text>
</a>
</g>
</g>
<!-- Node40&#45;&gt;Node43 -->
<g id="edge47" class="edge">
<title>Node40&#45;&gt;Node43</title>
<path fill="none" stroke="#63b8ff" d="M651.03,-393.28C655.09,-395.49 658.88,-398.2 662,-401.5 698.19,-439.82 669.82,-469.96 698,-514.5 707.59,-529.66 722.26,-543.45 734.7,-553.56"/>
<polygon fill="#63b8ff" stroke="#63b8ff" points="732.41,-556.22 742.45,-559.6 736.71,-550.69 732.41,-556.22"/>
</g>
<!-- Node54 -->
<g id="node39" class="node">
<title>Node54</title>
<g id="a_node39"><a xlink:href="TransmitterCode_2src_2main_8cpp.html#a793b7bcd77531c95fe72ed4356d421c8" target="_top" xlink:title=" ">
<polygon fill="white" stroke="#666666" points="1131.5,-217 1021.5,-217 1021.5,-198 1131.5,-198 1131.5,-217"/>
<text text-anchor="middle" x="1076.5" y="-205" font-family="Helvetica,sans-Serif" font-size="10.00">StartInactvityTimeout</text>
</a>
</g>
</g>
<!-- Node40&#45;&gt;Node54 -->
<g id="edge77" class="edge">
<title>Node40&#45;&gt;Node54</title>
<path fill="none" stroke="#63b8ff" d="M625.33,-373.67C635.86,-363.13 652.04,-345.49 662,-327.5 687.13,-282.13 670.17,-260.26 698,-216.5 737.82,-153.88 766.64,-154.08 820,-102.5 836.27,-86.77 835.09,-75.16 856,-66.5 908.56,-44.73 934.01,-39.35 984,-66.5 1008.53,-79.82 1047.49,-151.97 1065.62,-187.58"/>
<polygon fill="#63b8ff" stroke="#63b8ff" points="1062.43,-189.03 1070.05,-196.39 1068.68,-185.89 1062.43,-189.03"/>
</g>
<!-- Node56 -->
<g id="node41" class="node">
<title>Node56</title>
<g id="a_node41"><a xlink:href="TransmitterCode_2src_2main_8cpp.html#a694f4f5a0147f4dc29b0bc1a8951547d" target="_top" xlink:title=" ">
<polygon fill="white" stroke="#666666" points="806,-245 712,-245 712,-226 806,-226 806,-245"/>
<text text-anchor="middle" x="759" y="-233" font-family="Helvetica,sans-Serif" font-size="10.00">ParseAckPayload</text>
</a>
</g>
</g>
<!-- Node40&#45;&gt;Node56 -->
<g id="edge61" class="edge">
<title>Node40&#45;&gt;Node56</title>
<path fill="none" stroke="#63b8ff" d="M624.38,-373.79C648.01,-349.34 710.24,-284.93 740.7,-253.4"/>
<polygon fill="#63b8ff" stroke="#63b8ff" points="742.91,-256.15 747.34,-246.53 737.88,-251.29 742.91,-256.15"/>
</g>
<!-- Node42 -->
<g id="node34" class="node">
<title>Node42</title>
<g id="a_node34"><a xlink:href="TransmitterCode_2src_2main_8cpp.html#a1fadc7cdd854f8b3628b622da5417d8b" target="_top" xlink:title=" ">
<polygon fill="white" stroke="#666666" points="955,-395 885,-395 885,-376 955,-376 955,-395"/>
<text text-anchor="middle" x="920" y="-383" font-family="Helvetica,sans-Serif" font-size="10.00">LogThisGap</text>
</a>
</g>
</g>
<!-- Node41&#45;&gt;Node42 -->
<g id="edge44" class="edge">
<title>Node41&#45;&gt;Node42</title>
<path fill="none" stroke="#63b8ff" d="M808.14,-384.11C828.86,-384.37 852.98,-384.67 873.41,-384.93"/>
<polygon fill="#63b8ff" stroke="#63b8ff" points="873.09,-388.42 883.14,-385.05 873.18,-381.42 873.09,-388.42"/>
</g>
<!-- Node42&#45;&gt;Node12 -->
<g id="edge45" class="edge">
<title>Node42&#45;&gt;Node12</title>
<path fill="none" stroke="#63b8ff" d="M955.32,-393.36C964.81,-396.05 974.98,-399.43 984,-403.5 1001.31,-411.3 1003.84,-416.54 1020,-426.5 1029.29,-432.23 1039.54,-438.37 1048.68,-443.79"/>
<polygon fill="#63b8ff" stroke="#63b8ff" points="1046.72,-446.69 1057.11,-448.76 1050.27,-440.66 1046.72,-446.69"/>
</g>
<!-- Node42&#45;&gt;Node17 -->
<g id="edge46" class="edge">
<title>Node42&#45;&gt;Node17</title>
<path fill="none" stroke="#63b8ff" d="M955.47,-388.67C999.3,-393.95 1076.13,-407.45 1133,-440.5 1152.84,-452.03 1150.23,-464.3 1169,-477.5 1174.98,-481.71 1181.99,-485.36 1188.63,-488.36"/>
<polygon fill="#63b8ff" stroke="#63b8ff" points="1187.24,-491.58 1197.82,-492.18 1189.93,-485.11 1187.24,-491.58"/>
</g>
<!-- Node43&#45;&gt;Node6 -->
<g id="edge53" class="edge">
<title>Node43&#45;&gt;Node6</title>
<path fill="none" stroke="#63b8ff" d="M722.51,-566.62C677.72,-561.94 598.26,-554.34 530,-551.5 497.06,-550.13 459.91,-550.15 431.26,-550.5"/>
<polygon fill="#63b8ff" stroke="#63b8ff" points="431.4,-547 421.45,-550.64 431.5,-554 431.4,-547"/>
</g>
<!-- Node43&#45;&gt;Node24 -->
<g id="edge49" class="edge">
<title>Node43&#45;&gt;Node24</title>
<path fill="none" stroke="#63b8ff" d="M766.16,-580.19C780.59,-602.59 818.22,-659.25 856,-701.5 869.24,-716.3 885.81,-731.45 898.64,-742.55"/>
<polygon fill="#63b8ff" stroke="#63b8ff" points="896.18,-745.05 906.06,-748.87 900.72,-739.73 896.18,-745.05"/>
</g>
<!-- Node43&#45;&gt;Node26 -->
<g id="edge52" class="edge">
<title>Node43&#45;&gt;Node26</title>
<path fill="none" stroke="#63b8ff" d="M790.53,-580.47C800.28,-584.24 810.89,-588.97 820,-594.5 838.05,-605.46 837.5,-615.32 856,-625.5 908.1,-654.19 933.3,-633.42 984,-664.5 1016.7,-684.54 1045.77,-719.02 1061.97,-740.47"/>
<polygon fill="#63b8ff" stroke="#63b8ff" points="1059.02,-742.37 1067.77,-748.35 1064.66,-738.22 1059.02,-742.37"/>
</g>
<!-- Node44 -->
<g id="node36" class="node">
<title>Node44</title>
<g id="a_node36"><a xlink:href="TransmitterCode_2src_2main_8cpp.html#a82b1900a80d1622896601c57d6edaeda" target="_top" xlink:title=" ">
<polygon fill="white" stroke="#666666" points="969,-580 871,-580 871,-561 969,-561 969,-580"/>
<text text-anchor="middle" x="920" y="-568" font-family="Helvetica,sans-Serif" font-size="10.00">ClearSuccessRate</text>
</a>
</g>
</g>
<!-- Node43&#45;&gt;Node44 -->
<g id="edge48" class="edge">
<title>Node43&#45;&gt;Node44</title>
<path fill="none" stroke="#63b8ff" d="M795.29,-570.5C814.05,-570.5 837.64,-570.5 859.18,-570.5"/>
<polygon fill="#63b8ff" stroke="#63b8ff" points="859.03,-574 869.03,-570.5 859.03,-567 859.03,-574"/>
</g>
<!-- Node45 -->
<g id="node37" class="node">
<title>Node45</title>
<g id="a_node37"><a xlink:href="TransmitterCode_2src_2main_8cpp.html#aaa3e86084c43b049d52d7d62c58a00b9" target="_top" xlink:title=" ">
<polygon fill="#fff0f0" stroke="red" points="961,-543 879,-543 879,-524 961,-524 961,-543"/>
<text text-anchor="middle" x="920" y="-531" font-family="Helvetica,sans-Serif" font-size="10.00">LogConnection</text>
</a>
</g>
</g>
<!-- Node43&#45;&gt;Node45 -->
<g id="edge50" class="edge">
<title>Node43&#45;&gt;Node45</title>
<path fill="none" stroke="#63b8ff" d="M795.29,-562.29C816.61,-557.33 844.16,-550.92 867.85,-545.4"/>
<polygon fill="#63b8ff" stroke="#63b8ff" points="868.35,-548.88 877.29,-543.21 866.76,-542.06 868.35,-548.88"/>
</g>
<!-- Node47 -->
<g id="node38" class="node">
<title>Node47</title>
<g id="a_node38"><a xlink:href="TransmitterCode_2src_2main_8cpp.html#a5d3a46c21927cf7a3031a1e68e0b7b48" target="_top" xlink:title="SHOW COMMS.">
<polygon fill="#fff0f0" stroke="red" points="957.5,-693 882.5,-693 882.5,-674 957.5,-674 957.5,-693"/>
<text text-anchor="middle" x="920" y="-681" font-family="Helvetica,sans-Serif" font-size="10.00">ShowComms</text>
</a>
</g>
</g>
<!-- Node43&#45;&gt;Node47 -->
<g id="edge54" class="edge">
<title>Node43&#45;&gt;Node47</title>
<path fill="none" stroke="#63b8ff" d="M795.29,-571.32C804.04,-574.54 812.93,-579.27 820,-585.5 844.77,-607.34 831.05,-628.86 856,-650.5 866.36,-659.48 880.43,-665.27 892.64,-669.77"/>
<polygon fill="#63b8ff" stroke="#63b8ff" points="891.16,-672.95 901.76,-673.07 893.55,-666.37 891.16,-672.95"/>
</g>
<!-- Node55 -->
<g id="node40" class="node">
<title>Node55</title>
<g id="a_node40"><a xlink:href="TransmitterCode_2src_2main_8cpp.html#a6da9a1fd0b003151f79eabc702ba80ff" target="_top" xlink:title=" ">
<polygon fill="white" stroke="#666666" points="963.5,-617 876.5,-617 876.5,-598 963.5,-598 963.5,-617"/>
<text text-anchor="middle" x="920" y="-605" font-family="Helvetica,sans-Serif" font-size="10.00">ZeroDataScreen</text>
</a>
</g>
</g>
<!-- Node43&#45;&gt;Node55 -->
<g id="edge60" class="edge">
<title>Node43&#45;&gt;Node55</title>
<path fill="none" stroke="#63b8ff" d="M795.29,-578.71C815.81,-583.49 842.09,-589.6 865.15,-594.97"/>
<polygon fill="#63b8ff" stroke="#63b8ff" points="864.16,-598.33 874.7,-597.19 865.75,-591.52 864.16,-598.33"/>
</g>
<!-- Node45&#45;&gt;Node12 -->
<g id="edge51" class="edge">
<title>Node45&#45;&gt;Node12</title>
<path fill="none" stroke="#63b8ff" d="M959.53,-523.54C967.75,-520.96 976.27,-517.92 984,-514.5 1008.34,-503.72 1034.16,-487.72 1052.15,-475.76"/>
<polygon fill="#63b8ff" stroke="#63b8ff" points="1053.95,-478.77 1060.27,-470.27 1050.02,-472.97 1053.95,-478.77"/>
</g>
<!-- Node47&#45;&gt;Node2 -->
<g id="edge58" class="edge">
<title>Node47&#45;&gt;Node2</title>
<path fill="none" stroke="#63b8ff" d="M892.76,-673.56C864.7,-662.96 823.69,-647.52 820,-646.5 730.71,-621.74 707.66,-608.5 615,-608.5 381.5,-608.5 381.5,-608.5 381.5,-608.5 271.61,-608.5 193.38,-744.96 167.4,-797.35"/>
<polygon fill="#63b8ff" stroke="#63b8ff" points="164.26,-795.81 163.07,-806.34 170.56,-798.85 164.26,-795.81"/>
</g>
<!-- Node47&#45;&gt;Node4 -->
<g id="edge57" class="edge">
<title>Node47&#45;&gt;Node4</title>
<path fill="none" stroke="#63b8ff" d="M882.21,-676.1C825.21,-665.3 712.03,-646.5 615,-646.5 494,-646.5 494,-646.5 494,-646.5 424.44,-646.5 401.6,-645.35 341,-679.5 313.99,-694.72 290.81,-722.65 277.25,-741.39"/>
<polygon fill="#63b8ff" stroke="#63b8ff" points="274.46,-739.28 271.61,-749.48 280.2,-743.28 274.46,-739.28"/>
</g>
<!-- Node47&#45;&gt;Node26 -->
<g id="edge56" class="edge">
<title>Node47&#45;&gt;Node26</title>
<path fill="none" stroke="#63b8ff" d="M941.2,-693.44C967.69,-706.46 1014.39,-729.44 1045.14,-744.57"/>
<polygon fill="#63b8ff" stroke="#63b8ff" points="1043.42,-747.62 1053.94,-748.89 1046.51,-741.34 1043.42,-747.62"/>
</g>
<!-- Node47&#45;&gt;Node43 -->
<g id="edge55" class="edge">
<title>Node47&#45;&gt;Node43</title>
<path fill="none" stroke="#63b8ff" d="M882.28,-683.08C872.99,-679.85 863.52,-675.02 856,-668.5 831.05,-646.86 844.77,-625.34 820,-603.5 810.18,-594.84 796.84,-589.09 785.24,-584.54"/>
<polygon fill="#63b8ff" stroke="#63b8ff" points="786.81,-581.4 776.22,-581.04 784.28,-587.92 786.81,-581.4"/>
</g>
<!-- Node47&#45;&gt;Node54 -->
<g id="edge59" class="edge">
<title>Node47&#45;&gt;Node54</title>
<path fill="none" stroke="#63b8ff" d="M936.9,-673.69C951.77,-663.58 973.25,-646.38 984,-625.5 1043.06,-510.82 986.35,-462.03 1020,-337.5 1030.99,-296.82 1052.21,-252.23 1064.99,-227.27"/>
<polygon fill="#63b8ff" stroke="#63b8ff" points="1067.98,-229.1 1069.5,-218.61 1061.77,-225.87 1067.98,-229.1"/>
</g>
<!-- Node56&#45;&gt;Node30 -->
<g id="edge72" class="edge">
<title>Node56&#45;&gt;Node30</title>
<path fill="none" stroke="#63b8ff" d="M764.42,-245.32C779.24,-277.8 827.75,-381.01 856,-403.5 857.74,-404.89 859.59,-406.17 861.5,-407.37"/>
<polygon fill="#63b8ff" stroke="#63b8ff" points="859.76,-410.41 870.25,-411.89 862.97,-404.19 859.76,-410.41"/>
</g>
<!-- Node57 -->
<g id="node42" class="node">
<title>Node57</title>
<g id="a_node42"><a xlink:href="TransmitterCode_2src_2main_8cpp.html#a75fa77e7bbb1cfe8fe6e1a216fbdc17e" target="_top" xlink:title=" ">
<polygon fill="white" stroke="#666666" points="952.5,-19 887.5,-19 887.5,0 952.5,0 952.5,-19"/>
<text text-anchor="middle" x="920" y="-7" font-family="Helvetica,sans-Serif" font-size="10.00">GetAltitude</text>
</a>
</g>
</g>
<!-- Node56&#45;&gt;Node57 -->
<g id="edge62" class="edge">
<title>Node56&#45;&gt;Node57</title>
<path fill="none" stroke="#63b8ff" d="M764.23,-225.68C776.16,-198.6 812.09,-121.25 856,-66.5 868.03,-51.5 884.14,-37 897.06,-26.37"/>
<polygon fill="#63b8ff" stroke="#63b8ff" points="899.01,-29.3 904.62,-20.32 894.63,-23.84 899.01,-29.3"/>
</g>
<!-- Node58 -->
<g id="node43" class="node">
<title>Node58</title>
<g id="a_node43"><a xlink:href="TransmitterCode_2src_2main_8cpp.html#ab5736b017daadeb2c1d7dc73489d31a6" target="_top" xlink:title=" ">
<polygon fill="white" stroke="#666666" points="1130,-95 1023,-95 1023,-76 1130,-76 1130,-95"/>
<text text-anchor="middle" x="1076.5" y="-83" font-family="Helvetica,sans-Serif" font-size="10.00">GetFromAckPayload</text>
</a>
</g>
</g>
<!-- Node56&#45;&gt;Node58 -->
<g id="edge65" class="edge">
<title>Node56&#45;&gt;Node58</title>
<path fill="none" stroke="#63b8ff" d="M767.26,-225.66C781.86,-206.59 816.75,-164.55 856,-142.5 882.9,-127.39 959.11,-109.42 1014.19,-97.76"/>
<polygon fill="#63b8ff" stroke="#63b8ff" points="1014.7,-101.22 1023.77,-95.75 1013.26,-94.37 1014.7,-101.22"/>
</g>
<!-- Node59 -->
<g id="node44" class="node">
<title>Node59</title>
<g id="a_node44"><a xlink:href="TransmitterCode_2src_2main_8cpp.html#a160b9119423c34869b16a4ebdc421d35" target="_top" xlink:title=" ">
<polygon fill="white" stroke="#666666" points="983.5,-319 856.5,-319 856.5,-300 983.5,-300 983.5,-319"/>
<text text-anchor="middle" x="920" y="-307" font-family="Helvetica,sans-Serif" font-size="10.00">GetDateFromAckPayload</text>
</a>
</g>
</g>
<!-- Node56&#45;&gt;Node59 -->
<g id="edge64" class="edge">
<title>Node56&#45;&gt;Node59</title>
<path fill="none" stroke="#63b8ff" d="M774.74,-245.37C793.13,-257.33 825.83,-277.51 856,-290.5 860.55,-292.46 865.37,-294.3 870.23,-296.01"/>
<polygon fill="#63b8ff" stroke="#63b8ff" points="868.83,-299.23 879.42,-299.04 871.02,-292.58 868.83,-299.23"/>
</g>
<!-- Node60 -->
<g id="node45" class="node">
<title>Node60</title>
<g id="a_node45"><a xlink:href="TransmitterCode_2src_2main_8cpp.html#a494cb4acb30856d1f53f08df1b80c41b" target="_top" xlink:title=" ">
<polygon fill="#fff0f0" stroke="red" points="979.5,-282 860.5,-282 860.5,-263 979.5,-263 979.5,-282"/>
<text text-anchor="middle" x="920" y="-270" font-family="Helvetica,sans-Serif" font-size="10.00">GetModelsMacAddress</text>
</a>
</g>
</g>
<!-- Node56&#45;&gt;Node60 -->
<g id="edge66" class="edge">
<title>Node56&#45;&gt;Node60</title>
<path fill="none" stroke="#63b8ff" d="M802.61,-245.42C821.86,-249.89 844.81,-255.24 865.23,-259.99"/>
<polygon fill="#63b8ff" stroke="#63b8ff" points="864.27,-263.36 874.8,-262.21 865.85,-256.54 864.27,-263.36"/>
</g>
<!-- Node97 -->
<g id="node46" class="node">
<title>Node97</title>
<g id="a_node46"><a xlink:href="TransmitterCode_2src_2main_8cpp.html#a4f813935d8fe58355228cbbf25e12f96" target="_top" xlink:title=" ">
<polygon fill="#fff0f0" stroke="red" points="1133,-366 1020,-366 1020,-347 1133,-347 1133,-366"/>
<text text-anchor="middle" x="1076.5" y="-354" font-family="Helvetica,sans-Serif" font-size="10.00">GetRXVersionNumber</text>
</a>
</g>
</g>
<!-- Node56&#45;&gt;Node97 -->
<g id="edge67" class="edge">
<title>Node56&#45;&gt;Node97</title>
<path fill="none" stroke="#63b8ff" d="M766.84,-245.36C780.96,-264.83 815.42,-308.01 856,-327.5 903.49,-350.31 963.05,-357.01 1008.15,-358.31"/>
<polygon fill="#63b8ff" stroke="#63b8ff" points="1007.99,-361.81 1018.06,-358.5 1008.13,-354.81 1007.99,-361.81"/>
</g>
<!-- Node99 -->
<g id="node47" class="node">
<title>Node99</title>
<g id="a_node47"><a xlink:href="TransmitterCode_2src_2main_8cpp.html#a19f6fc09d690832e74fd3c679207f07f" target="_top" xlink:title=" ">
<polygon fill="white" stroke="#666666" points="963.5,-95 876.5,-95 876.5,-76 963.5,-76 963.5,-95"/>
<text text-anchor="middle" x="920" y="-83" font-family="Helvetica,sans-Serif" font-size="10.00">GetTemperature</text>
</a>
</g>
</g>
<!-- Node56&#45;&gt;Node99 -->
<g id="edge69" class="edge">
<title>Node56&#45;&gt;Node99</title>
<path fill="none" stroke="#63b8ff" d="M764.89,-225.83C777.12,-202.57 811.28,-142.92 856,-109.5 860.92,-105.82 866.47,-102.64 872.19,-99.91"/>
<polygon fill="#63b8ff" stroke="#63b8ff" points="873.36,-103.22 881.17,-96.07 870.6,-96.79 873.36,-103.22"/>
</g>
<!-- Node100 -->
<g id="node48" class="node">
<title>Node100</title>
<g id="a_node48"><a xlink:href="TransmitterCode_2src_2main_8cpp.html#a86523345ecdd52f3d93dccd6fcf4370a" target="_top" xlink:title=" ">
<polygon fill="white" stroke="#666666" points="984,-245 856,-245 856,-226 984,-226 984,-245"/>
<text text-anchor="middle" x="920" y="-233" font-family="Helvetica,sans-Serif" font-size="10.00">GetTimeFromAckPayload</text>
</a>
</g>
</g>
<!-- Node56&#45;&gt;Node100 -->
<g id="edge71" class="edge">
<title>Node56&#45;&gt;Node100</title>
<path fill="none" stroke="#63b8ff" d="M806.42,-235.5C818.33,-235.5 831.44,-235.5 844.39,-235.5"/>
<polygon fill="#63b8ff" stroke="#63b8ff" points="844.17,-239 854.17,-235.5 844.17,-232 844.17,-239"/>
</g>
<!-- Node101 -->
<g id="node49" class="node">
<title>Node101</title>
<g id="a_node49"><a xlink:href="TransmitterCode_2src_2main_8cpp.html#a7a48851f0d38e4a0dd727a30d9515cf1" target="_top" xlink:title=" ">
<polygon fill="white" stroke="#666666" points="957.5,-208 882.5,-208 882.5,-189 957.5,-189 957.5,-208"/>
<text text-anchor="middle" x="920" y="-196" font-family="Helvetica,sans-Serif" font-size="10.00">ReadTheRTC</text>
</a>
</g>
</g>
<!-- Node56&#45;&gt;Node101 -->
<g id="edge73" class="edge">
<title>Node56&#45;&gt;Node101</title>
<path fill="none" stroke="#63b8ff" d="M802.61,-225.58C823.76,-220.66 849.39,-214.7 871.2,-209.62"/>
<polygon fill="#63b8ff" stroke="#63b8ff" points="871.8,-213.08 880.75,-207.4 870.21,-206.26 871.8,-213.08"/>
</g>
<!-- Node102 -->
<g id="node50" class="node">
<title>Node102</title>
<g id="a_node50"><a xlink:href="TransmitterCode_2src_2main_8cpp.html#abb1ea95b6b3f033883aa87682d3240ab" target="_top" xlink:title=" ">
<polygon fill="#fff0f0" stroke="red" points="982,-171 858,-171 858,-152 982,-152 982,-171"/>
<text text-anchor="middle" x="920" y="-159" font-family="Helvetica,sans-Serif" font-size="10.00">SynchRTCwithGPSTime</text>
</a>
</g>
</g>
<!-- Node56&#45;&gt;Node102 -->
<g id="edge74" class="edge">
<title>Node56&#45;&gt;Node102</title>
<path fill="none" stroke="#63b8ff" d="M774.36,-225.57C792.63,-213.32 825.47,-192.52 856,-179.5 859.78,-177.89 863.75,-176.37 867.77,-174.96"/>
<polygon fill="#63b8ff" stroke="#63b8ff" points="868.63,-178.36 877.05,-171.92 866.45,-171.71 868.63,-178.36"/>
</g>
<!-- Node57&#45;&gt;Node58 -->
<g id="edge63" class="edge">
<title>Node57&#45;&gt;Node58</title>
<path fill="none" stroke="#63b8ff" d="M949.93,-19.46C960.77,-23.47 973.09,-28.36 984,-33.5 1006.94,-44.31 1031.89,-58.68 1049.94,-69.57"/>
<polygon fill="#63b8ff" stroke="#63b8ff" points="1048.05,-72.52 1058.41,-74.74 1051.7,-66.54 1048.05,-72.52"/>
</g>
<!-- Node97&#45;&gt;Node17 -->
<g id="edge68" class="edge">
<title>Node97&#45;&gt;Node17</title>
<path fill="none" stroke="#63b8ff" d="M1094.85,-366.42C1106.82,-373.97 1122.42,-385.3 1133,-398.5 1157.12,-428.62 1141.7,-450.23 1169,-477.5 1174.45,-482.95 1181.66,-487.06 1188.66,-490.1"/>
<polygon fill="#63b8ff" stroke="#63b8ff" points="1187.19,-493.29 1197.79,-493.49 1189.63,-486.72 1187.19,-493.29"/>
</g>
<!-- Node99&#45;&gt;Node58 -->
<g id="edge70" class="edge">
<title>Node99&#45;&gt;Node58</title>
<path fill="none" stroke="#63b8ff" d="M963.63,-85.5C978.29,-85.5 995.05,-85.5 1011.06,-85.5"/>
<polygon fill="#63b8ff" stroke="#63b8ff" points="1011.02,-89 1021.02,-85.5 1011.02,-82 1011.02,-89"/>
</g>
</g>
</svg>
