<?xml version="1.0" encoding="UTF-8" standalone="no"?>
<!DOCTYPE svg PUBLIC "-//W3C//DTD SVG 1.1//EN"
 "http://www.w3.org/Graphics/SVG/1.1/DTD/svg11.dtd">
<!-- Generated by graphviz version 9.0.0 (20230911.1827)
 -->
<!-- Title: StartTrimDefView Pages: 1 -->
<svg width="1370pt" height="736pt"
 viewBox="0.00 0.00 1369.50 736.25" xmlns="http://www.w3.org/2000/svg" xmlns:xlink="http://www.w3.org/1999/xlink">
<g id="graph0" class="graph" transform="scale(1 1) rotate(0) translate(4 732.25)">
<title>StartTrimDefView</title>
<!-- Node1 -->
<g id="Node000001" class="node">
<title>Node1</title>
<g id="a_Node000001"><a xlink:title=" ">
<polygon fill="#999999" stroke="#666666" points="93.25,-204.25 0,-204.25 0,-185 93.25,-185 93.25,-204.25"/>
<text text-anchor="middle" x="46.62" y="-190.75" font-family="Helvetica,sans-Serif" font-size="10.00">StartTrimDefView</text>
</a>
</g>
</g>
<!-- Node2 -->
<g id="Node000002" class="node">
<title>Node2</title>
<g id="a_Node000002"><a xlink:href="TransmitterCode_2src_2main_8cpp.html#aa1f9aec467eb00917ad9ffdc0bd5b20d" target="_top" xlink:title=" ">
<polygon fill="white" stroke="#666666" points="203,-204.25 138.25,-204.25 138.25,-185 203,-185 203,-204.25"/>
<text text-anchor="middle" x="170.62" y="-190.75" font-family="Helvetica,sans-Serif" font-size="10.00">BlueLedOn</text>
</a>
</g>
</g>
<!-- Node1&#45;&gt;Node2 -->
<g id="edge1_Node000001_Node000002" class="edge">
<title>Node1&#45;&gt;Node2</title>
<g id="a_edge1_Node000001_Node000002"><a xlink:title=" ">
<path fill="none" stroke="#63b8ff" d="M93.75,-194.62C104.55,-194.62 116.02,-194.62 126.67,-194.62"/>
<polygon fill="#63b8ff" stroke="#63b8ff" points="126.34,-198.13 136.34,-194.63 126.34,-191.13 126.34,-198.13"/>
</a>
</g>
</g>
<!-- Node203 -->
<g id="Node000203" class="node">
<title>Node203</title>
<g id="a_Node000203"><a xlink:href="Trims_8h.html#a883e18dbafdf41d3451879db47ab113f" target="_top" xlink:title=" ">
<polygon fill="white" stroke="#666666" points="209.38,-167.25 131.88,-167.25 131.88,-148 209.38,-148 209.38,-167.25"/>
<text text-anchor="middle" x="170.62" y="-153.75" font-family="Helvetica,sans-Serif" font-size="10.00">ResetAllTrims</text>
</a>
</g>
</g>
<!-- Node1&#45;&gt;Node203 -->
<g id="edge57_Node000001_Node000203" class="edge">
<title>Node1&#45;&gt;Node203</title>
<g id="a_edge57_Node000001_Node000203"><a xlink:title=" ">
<path fill="none" stroke="#63b8ff" d="M80.96,-184.51C94.68,-180.35 110.77,-175.48 125.44,-171.02"/>
<polygon fill="#63b8ff" stroke="#63b8ff" points="126.33,-174.41 134.88,-168.16 124.29,-167.72 126.33,-174.41"/>
</a>
</g>
</g>
<!-- Node51 -->
<g id="Node000051" class="node">
<title>Node51</title>
<g id="a_Node000051"><a xlink:href="Nextion_8h.html#aecac2f0c289f02ef3c92b85be82eacac" target="_top" xlink:title=" ">
<polygon fill="white" stroke="#666666" points="212,-259.25 129.25,-259.25 129.25,-240 212,-240 212,-259.25"/>
<text text-anchor="middle" x="170.62" y="-245.75" font-family="Helvetica,sans-Serif" font-size="10.00">SendCommand</text>
</a>
</g>
</g>
<!-- Node1&#45;&gt;Node51 -->
<g id="edge58_Node000001_Node000051" class="edge">
<title>Node1&#45;&gt;Node51</title>
<g id="a_edge58_Node000001_Node000051"><a xlink:title=" ">
<path fill="none" stroke="#63b8ff" d="M70,-204.71C88.75,-213.16 115.76,-225.34 136.93,-234.88"/>
<polygon fill="#63b8ff" stroke="#63b8ff" points="135.46,-238.06 146.01,-238.98 138.33,-231.68 135.46,-238.06"/>
</a>
</g>
</g>
<!-- Node3 -->
<g id="Node000003" class="node">
<title>Node3</title>
<g id="a_Node000003"><a xlink:href="Utilities_8h.html#a549a702bb9b539c6b3a4f20cce65adcc" target="_top" xlink:title=" ">
<polygon fill="white" stroke="#666666" points="345,-204.25 248,-204.25 248,-185 345,-185 345,-204.25"/>
<text text-anchor="middle" x="296.5" y="-190.75" font-family="Helvetica,sans-Serif" font-size="10.00">GetLEDBrightness</text>
</a>
</g>
</g>
<!-- Node2&#45;&gt;Node3 -->
<g id="edge2_Node000002_Node000003" class="edge">
<title>Node2&#45;&gt;Node3</title>
<g id="a_edge2_Node000002_Node000003"><a xlink:title=" ">
<path fill="none" stroke="#63b8ff" d="M203.2,-194.62C213.31,-194.62 224.85,-194.62 236.27,-194.62"/>
<polygon fill="#63b8ff" stroke="#63b8ff" points="236.07,-198.13 246.07,-194.63 236.07,-191.13 236.07,-198.13"/>
</a>
</g>
</g>
<!-- Node4 -->
<g id="Node000004" class="node">
<title>Node4</title>
<g id="a_Node000004"><a xlink:href="SDcard_8h.html#aaf3d3b6d086a958ac8ebf1bb771adcee" target="_top" xlink:title=" ">
<polygon fill="white" stroke="#666666" points="519.25,-203.25 381,-203.25 381,-184 519.25,-184 519.25,-203.25"/>
<text text-anchor="middle" x="450.12" y="-189.75" font-family="Helvetica,sans-Serif" font-size="10.00">SaveTransmitterParameters</text>
</a>
</g>
</g>
<!-- Node3&#45;&gt;Node4 -->
<g id="edge3_Node000003_Node000004" class="edge">
<title>Node3&#45;&gt;Node4</title>
<g id="a_edge3_Node000003_Node000004"><a xlink:title=" ">
<path fill="none" stroke="#63b8ff" d="M345.48,-194.31C353.08,-194.26 361.12,-194.21 369.23,-194.15"/>
<polygon fill="#63b8ff" stroke="#63b8ff" points="369.2,-197.65 379.17,-194.09 369.15,-190.65 369.2,-197.65"/>
</a>
</g>
</g>
<!-- Node5 -->
<g id="Node000005" class="node">
<title>Node5</title>
<g id="a_Node000005"><a xlink:href="SDcard_8h.html#a6922974b734cfe3a511e074a2d6ac33c" target="_top" xlink:title=" ">
<polygon fill="white" stroke="#666666" points="647.75,-241.25 559.75,-241.25 559.75,-222 647.75,-222 647.75,-241.25"/>
<text text-anchor="middle" x="603.75" y="-227.75" font-family="Helvetica,sans-Serif" font-size="10.00">CloseModelsFile</text>
</a>
</g>
</g>
<!-- Node4&#45;&gt;Node5 -->
<g id="edge4_Node000004_Node000005" class="edge">
<title>Node4&#45;&gt;Node5</title>
<g id="a_edge4_Node000004_Node000005"><a xlink:title=" ">
<path fill="none" stroke="#63b8ff" d="M491.36,-203.71C509.85,-208.34 532,-213.89 551.66,-218.82"/>
<polygon fill="#63b8ff" stroke="#63b8ff" points="550.57,-222.16 561.12,-221.19 552.27,-215.37 550.57,-222.16"/>
</a>
</g>
</g>
<!-- Node6 -->
<g id="Node000006" class="node">
<title>Node6</title>
<g id="a_Node000006"><a xlink:href="SDcard_8h.html#ae7618f38a148877bc5681be58cba8354" target="_top" xlink:title=" ">
<polygon fill="white" stroke="#666666" points="647,-278.25 560.5,-278.25 560.5,-259 647,-259 647,-278.25"/>
<text text-anchor="middle" x="603.75" y="-264.75" font-family="Helvetica,sans-Serif" font-size="10.00">OpenModelsFile</text>
</a>
</g>
</g>
<!-- Node4&#45;&gt;Node6 -->
<g id="edge5_Node000004_Node000006" class="edge">
<title>Node4&#45;&gt;Node6</title>
<g id="a_edge5_Node000004_Node000006"><a xlink:title=" ">
<path fill="none" stroke="#63b8ff" d="M467.71,-203.64C487.95,-215.64 523.43,-235.97 555.25,-250.62 557.97,-251.88 560.81,-253.12 563.68,-254.32"/>
<polygon fill="#63b8ff" stroke="#63b8ff" points="562.11,-257.46 572.7,-257.94 564.72,-250.97 562.11,-257.46"/>
</a>
</g>
</g>
<!-- Node163 -->
<g id="Node000163" class="node">
<title>Node163</title>
<g id="a_Node000163"><a xlink:href="SDcard_8h.html#a9ec95181a743e446cdec2e0fbf569f2c" target="_top" xlink:title=" ">
<polygon fill="white" stroke="#666666" points="652.25,-127.25 555.25,-127.25 555.25,-108 652.25,-108 652.25,-127.25"/>
<text text-anchor="middle" x="603.75" y="-113.75" font-family="Helvetica,sans-Serif" font-size="10.00">SaveCheckSum32</text>
</a>
</g>
</g>
<!-- Node4&#45;&gt;Node163 -->
<g id="edge46_Node000004_Node000163" class="edge">
<title>Node4&#45;&gt;Node163</title>
<g id="a_edge46_Node000004_Node000163"><a xlink:title=" ">
<path fill="none" stroke="#63b8ff" d="M471.26,-183.53C497.35,-170.46 543.03,-147.56 573.09,-132.49"/>
<polygon fill="#63b8ff" stroke="#63b8ff" points="574.29,-135.81 581.66,-128.2 571.15,-129.55 574.29,-135.81"/>
</a>
</g>
</g>
<!-- Node166 -->
<g id="Node000166" class="node">
<title>Node166</title>
<g id="a_Node000166"><a xlink:href="SDcard_8h.html#a512ed84f4270bd62e922cd7dd82fd427" target="_top" xlink:title=" ">
<polygon fill="white" stroke="#666666" points="779.62,-164.25 690.88,-164.25 690.88,-145 779.62,-145 779.62,-164.25"/>
<text text-anchor="middle" x="735.25" y="-150.75" font-family="Helvetica,sans-Serif" font-size="10.00">SDUpdate8BITS</text>
</a>
</g>
</g>
<!-- Node4&#45;&gt;Node166 -->
<g id="edge56_Node000004_Node000166" class="edge">
<title>Node4&#45;&gt;Node166</title>
<g id="a_edge56_Node000004_Node000166"><a xlink:title=" ">
<path fill="none" stroke="#63b8ff" d="M519.66,-184.18C568.69,-177.43 633.82,-168.46 679.42,-162.18"/>
<polygon fill="#63b8ff" stroke="#63b8ff" points="679.64,-165.68 689.07,-160.85 678.69,-158.75 679.64,-165.68"/>
</a>
</g>
</g>
<!-- Node167 -->
<g id="Node000167" class="node">
<title>Node167</title>
<g id="a_Node000167"><a xlink:href="SDcard_8h.html#a7bef1afdf8ed9f50caed67e53c144dfe" target="_top" xlink:title=" ">
<polygon fill="white" stroke="#666666" points="782.25,-201.25 688.25,-201.25 688.25,-182 782.25,-182 782.25,-201.25"/>
<text text-anchor="middle" x="735.25" y="-187.75" font-family="Helvetica,sans-Serif" font-size="10.00">SDUpdate16BITS</text>
</a>
</g>
</g>
<!-- Node4&#45;&gt;Node167 -->
<g id="edge53_Node000004_Node000167" class="edge">
<title>Node4&#45;&gt;Node167</title>
<g id="a_edge53_Node000004_Node000167"><a xlink:title=" ">
<path fill="none" stroke="#63b8ff" d="M519.66,-193.14C567.69,-192.8 631.15,-192.35 676.59,-192.03"/>
<polygon fill="#63b8ff" stroke="#63b8ff" points="676.53,-195.53 686.5,-191.96 676.48,-188.53 676.53,-195.53"/>
</a>
</g>
</g>
<!-- Node7 -->
<g id="Node000007" class="node">
<title>Node7</title>
<g id="a_Node000007"><a xlink:href="Utilities_8h.html#a3b1d8aa403e2724e55c71da3d9d13e7e" target="_top" xlink:title=" ">
<polygon fill="white" stroke="#666666" points="773.62,-316.25 696.88,-316.25 696.88,-297 773.62,-297 773.62,-316.25"/>
<text text-anchor="middle" x="735.25" y="-302.75" font-family="Helvetica,sans-Serif" font-size="10.00">DelayWithDog</text>
</a>
</g>
</g>
<!-- Node6&#45;&gt;Node7 -->
<g id="edge6_Node000006_Node000007" class="edge">
<title>Node6&#45;&gt;Node7</title>
<g id="a_edge6_Node000006_Node000007"><a xlink:title=" ">
<path fill="none" stroke="#63b8ff" d="M639.11,-278.71C654.46,-283.21 672.74,-288.58 689.16,-293.39"/>
<polygon fill="#63b8ff" stroke="#63b8ff" points="688.14,-296.74 698.72,-296.2 690.11,-290.03 688.14,-296.74"/>
</a>
</g>
</g>
<!-- Node8 -->
<g id="Node000008" class="node">
<title>Node8</title>
<g id="a_Node000008"><a xlink:href="TransmitterCode_2src_2main_8cpp.html#ab584ae7dbc9b1af37538f91b00b8927f" target="_top" xlink:title=" ">
<polygon fill="white" stroke="#666666" points="921.25,-316.25 832.5,-316.25 832.5,-297 921.25,-297 921.25,-316.25"/>
<text text-anchor="middle" x="876.88" y="-302.75" font-family="Helvetica,sans-Serif" font-size="10.00">FixMotorChannel</text>
</a>
</g>
</g>
<!-- Node7&#45;&gt;Node8 -->
<g id="edge7_Node000007_Node000008" class="edge">
<title>Node7&#45;&gt;Node8</title>
<g id="a_edge7_Node000007_Node000008"><a xlink:title=" ">
<path fill="none" stroke="#63b8ff" d="M774.03,-306.62C788.46,-306.62 805.22,-306.62 820.92,-306.62"/>
<polygon fill="#63b8ff" stroke="#63b8ff" points="820.61,-310.13 830.61,-306.63 820.61,-303.13 820.61,-310.13"/>
</a>
</g>
</g>
<!-- Node10 -->
<g id="Node000010" class="node">
<title>Node10</title>
<g id="a_Node000010"><a xlink:href="TransmitterCode_2src_2main_8cpp.html#a26ae4f6ca14f760bd5eb6e7588fe7c81" target="_top" xlink:title="GET NEW SERVO POSITIONS.">
<polygon fill="white" stroke="#666666" points="935.5,-201.25 818.25,-201.25 818.25,-182 935.5,-182 935.5,-201.25"/>
<text text-anchor="middle" x="876.88" y="-187.75" font-family="Helvetica,sans-Serif" font-size="10.00">GetNewChannelValues</text>
</a>
</g>
</g>
<!-- Node7&#45;&gt;Node10 -->
<g id="edge9_Node000007_Node000010" class="edge">
<title>Node7&#45;&gt;Node10</title>
<g id="a_edge9_Node000007_Node000010"><a xlink:title=" ">
<path fill="none" stroke="#63b8ff" d="M748.15,-296.82C771.84,-277.31 825.14,-233.42 854.85,-208.94"/>
<polygon fill="#63b8ff" stroke="#63b8ff" points="856.94,-211.75 862.43,-202.7 852.49,-206.35 856.94,-211.75"/>
</a>
</g>
</g>
<!-- Node25 -->
<g id="Node000025" class="node">
<title>Node25</title>
<g id="a_Node000025"><a xlink:href="Utilities_8h.html#ada95a00a341e4a80176eda743a94ab2e" target="_top" xlink:title=" ">
<polygon fill="white" stroke="#666666" points="911.5,-503.25 842.25,-503.25 842.25,-484 911.5,-484 911.5,-503.25"/>
<text text-anchor="middle" x="876.88" y="-489.75" font-family="Helvetica,sans-Serif" font-size="10.00">KickTheDog</text>
</a>
</g>
</g>
<!-- Node7&#45;&gt;Node25 -->
<g id="edge23_Node000007_Node000025" class="edge">
<title>Node7&#45;&gt;Node25</title>
<g id="a_edge23_Node000007_Node000025"><a xlink:title=" ">
<path fill="none" stroke="#63b8ff" d="M738.21,-316.71C744.42,-345.84 766.35,-430.94 818.25,-475.62 822.11,-478.95 826.57,-481.66 831.28,-483.86"/>
<polygon fill="#63b8ff" stroke="#63b8ff" points="829.83,-487.05 840.41,-487.4 832.35,-480.53 829.83,-487.05"/>
</a>
</g>
</g>
<!-- Node26 -->
<g id="Node000026" class="node">
<title>Node26</title>
<g id="a_Node000026"><a xlink:href="transceiver_8h.html#a049bfb836e7aa4a3a48a1a4bd225fafc" target="_top" xlink:title=" ">
<polygon fill="white" stroke="#666666" points="906.25,-466.25 847.5,-466.25 847.5,-447 906.25,-447 906.25,-466.25"/>
<text text-anchor="middle" x="876.88" y="-452.75" font-family="Helvetica,sans-Serif" font-size="10.00">SendData</text>
</a>
</g>
</g>
<!-- Node7&#45;&gt;Node26 -->
<g id="edge24_Node000007_Node000026" class="edge">
<title>Node7&#45;&gt;Node26</title>
<g id="a_edge24_Node000007_Node000026"><a xlink:title=" ">
<path fill="none" stroke="#63b8ff" d="M745.41,-316.47C768.48,-341.25 829.24,-406.53 858.99,-438.48"/>
<polygon fill="#63b8ff" stroke="#63b8ff" points="856.09,-440.51 865.47,-445.44 861.21,-435.74 856.09,-440.51"/>
</a>
</g>
</g>
<!-- Node9 -->
<g id="Node000009" class="node">
<title>Node9</title>
<g id="a_Node000009"><a xlink:href="Utilities_8h.html#a0d8d8a0d67cb9b04481f1692abe75368" target="_top" xlink:title=" ">
<polygon fill="white" stroke="#666666" points="1254.38,-241.25 1176.12,-241.25 1176.12,-222 1254.38,-222 1254.38,-241.25"/>
<text text-anchor="middle" x="1215.25" y="-227.75" font-family="Helvetica,sans-Serif" font-size="10.00">IntoHigherRes</text>
</a>
</g>
</g>
<!-- Node8&#45;&gt;Node9 -->
<g id="edge8_Node000008_Node000009" class="edge">
<title>Node8&#45;&gt;Node9</title>
<g id="a_edge8_Node000008_Node000009"><a xlink:title=" ">
<path fill="none" stroke="#63b8ff" d="M921.32,-308.68C969.68,-309.7 1049.64,-307.62 1115,-287.62 1143.23,-278.99 1172.26,-261.4 1191.57,-248.23"/>
<polygon fill="#63b8ff" stroke="#63b8ff" points="1193.57,-251.1 1199.75,-242.5 1189.55,-245.37 1193.57,-251.1"/>
</a>
</g>
</g>
<!-- Node11 -->
<g id="Node000011" class="node">
<title>Node11</title>
<g id="a_Node000011"><a xlink:href="TransmitterCode_2src_2main_8cpp.html#af518bb2cfb3cfe18d491b2a5d6bf7dcc" target="_top" xlink:title=" ">
<polygon fill="white" stroke="#666666" points="1094.38,-130.25 992.12,-130.25 992.12,-111 1094.38,-111 1094.38,-130.25"/>
<text text-anchor="middle" x="1043.25" y="-116.75" font-family="Helvetica,sans-Serif" font-size="10.00">CalculateAllOutputs</text>
</a>
</g>
</g>
<!-- Node10&#45;&gt;Node11 -->
<g id="edge10_Node000010_Node000011" class="edge">
<title>Node10&#45;&gt;Node11</title>
<g id="a_edge10_Node000010_Node000011"><a xlink:title=" ">
<path fill="none" stroke="#63b8ff" d="M918.59,-181.56C924.46,-179.36 930.28,-176.73 935.5,-173.62 954.67,-162.21 952.03,-149.52 971.5,-138.62 974.65,-136.86 977.98,-135.27 981.4,-133.83"/>
<polygon fill="#63b8ff" stroke="#63b8ff" points="982.3,-137.22 990.47,-130.47 979.88,-130.66 982.3,-137.22"/>
</a>
</g>
</g>
<!-- Node15 -->
<g id="Node000015" class="node">
<title>Node15</title>
<g id="a_Node000015"><a xlink:href="TransmitterCode_2src_2main_8cpp.html#acd70b997cf150e55d943df5d6f1cff51" target="_top" xlink:title=" ">
<polygon fill="white" stroke="#666666" points="1097.75,-93.25 988.75,-93.25 988.75,-74 1097.75,-74 1097.75,-93.25"/>
<text text-anchor="middle" x="1043.25" y="-79.75" font-family="Helvetica,sans-Serif" font-size="10.00">DoTrimsAndSubtrims</text>
</a>
</g>
</g>
<!-- Node10&#45;&gt;Node15 -->
<g id="edge12_Node000010_Node000015" class="edge">
<title>Node10&#45;&gt;Node15</title>
<g id="a_edge12_Node000010_Node000015"><a xlink:title=" ">
<path fill="none" stroke="#63b8ff" d="M922.88,-181.61C927.43,-179.44 931.75,-176.82 935.5,-173.62 962.75,-150.44 943.64,-124.07 971.5,-101.62 973.62,-99.91 975.89,-98.36 978.26,-96.96"/>
<polygon fill="#63b8ff" stroke="#63b8ff" points="979.68,-100.16 987.13,-92.63 976.61,-93.87 979.68,-100.16"/>
</a>
</g>
</g>
<!-- Node17 -->
<g id="Node000017" class="node">
<title>Node17</title>
<g id="a_Node000017"><a xlink:href="TransmitterCode_2src_2main_8cpp.html#a15d8fbd5988e76a16e33e7f620804009" target="_top" xlink:title=" ">
<polygon fill="white" stroke="#666666" points="1078.25,-56.25 1008.25,-56.25 1008.25,-37 1078.25,-37 1078.25,-56.25"/>
<text text-anchor="middle" x="1043.25" y="-42.75" font-family="Helvetica,sans-Serif" font-size="10.00">GetAllInputs</text>
</a>
</g>
</g>
<!-- Node10&#45;&gt;Node17 -->
<g id="edge14_Node000010_Node000017" class="edge">
<title>Node10&#45;&gt;Node17</title>
<g id="a_edge14_Node000010_Node000017"><a xlink:title=" ">
<path fill="none" stroke="#63b8ff" d="M924.5,-181.54C928.53,-179.39 932.29,-176.79 935.5,-173.62 971.87,-137.84 934.19,-99.42 971.5,-64.62 978.56,-58.04 987.69,-53.78 997.02,-51.04"/>
<polygon fill="#63b8ff" stroke="#63b8ff" points="997.55,-54.52 1006.49,-48.83 995.96,-47.7 997.55,-54.52"/>
</a>
</g>
</g>
<!-- Node20 -->
<g id="Node000020" class="node">
<title>Node20</title>
<g id="a_Node000020"><a xlink:href="Mixes_8h.html#a5aa9208b1f2a522a0cdb348301fe0593" target="_top" xlink:title=" ">
<polygon fill="white" stroke="#666666" points="1072.25,-19.25 1014.25,-19.25 1014.25,0 1072.25,0 1072.25,-19.25"/>
<text text-anchor="middle" x="1043.25" y="-5.75" font-family="Helvetica,sans-Serif" font-size="10.00">MixInputs</text>
</a>
</g>
</g>
<!-- Node10&#45;&gt;Node20 -->
<g id="edge17_Node000010_Node000020" class="edge">
<title>Node10&#45;&gt;Node20</title>
<g id="a_edge17_Node000010_Node000020"><a xlink:title=" ">
<path fill="none" stroke="#63b8ff" d="M925.03,-181.64C928.91,-179.47 932.48,-176.83 935.5,-173.62 981.29,-124.95 924.42,-75.06 971.5,-27.62 979.8,-19.26 991.41,-14.6 1002.83,-12.05"/>
<polygon fill="#63b8ff" stroke="#63b8ff" points="1003.28,-15.52 1012.56,-10.4 1002.11,-8.62 1003.28,-15.52"/>
</a>
</g>
</g>
<!-- Node21 -->
<g id="Node000021" class="node">
<title>Node21</title>
<g id="a_Node000021"><a xlink:href="Mixes_8h.html#a376c11f3a285138341edc0783f930ff3" target="_top" xlink:title=" ">
<polygon fill="white" stroke="#666666" points="1076,-167.25 1010.5,-167.25 1010.5,-148 1076,-148 1076,-167.25"/>
<text text-anchor="middle" x="1043.25" y="-153.75" font-family="Helvetica,sans-Serif" font-size="10.00">MixOutputs</text>
</a>
</g>
</g>
<!-- Node10&#45;&gt;Node21 -->
<g id="edge18_Node000010_Node000021" class="edge">
<title>Node10&#45;&gt;Node21</title>
<g id="a_edge18_Node000010_Node000021"><a xlink:title=" ">
<path fill="none" stroke="#63b8ff" d="M926.75,-181.52C949.8,-176.75 977.05,-171.11 999.3,-166.51"/>
<polygon fill="#63b8ff" stroke="#63b8ff" points="999.86,-169.97 1008.94,-164.51 998.44,-163.11 999.86,-169.97"/>
</a>
</g>
</g>
<!-- Node22 -->
<g id="Node000022" class="node">
<title>Node22</title>
<g id="a_Node000022"><a xlink:href="TransmitterCode_2src_2main_8cpp.html#a92bb36e29cd297189daefb3b79deaac3" target="_top" xlink:title=" ">
<polygon fill="white" stroke="#666666" points="1085.38,-278.25 1001.12,-278.25 1001.12,-259 1085.38,-259 1085.38,-278.25"/>
<text text-anchor="middle" x="1043.25" y="-264.75" font-family="Helvetica,sans-Serif" font-size="10.00">RerouteOutputs</text>
</a>
</g>
</g>
<!-- Node10&#45;&gt;Node22 -->
<g id="edge20_Node000010_Node000022" class="edge">
<title>Node10&#45;&gt;Node22</title>
<g id="a_edge20_Node000010_Node000022"><a xlink:title=" ">
<path fill="none" stroke="#63b8ff" d="M890.78,-201.62C908.2,-214.66 940.61,-237.36 971.5,-250.62 977.39,-253.16 983.72,-255.39 990.08,-257.35"/>
<polygon fill="#63b8ff" stroke="#63b8ff" points="988.72,-260.6 999.29,-259.96 990.63,-253.86 988.72,-260.6"/>
</a>
</g>
</g>
<!-- Node23 -->
<g id="Node000023" class="node">
<title>Node23</title>
<g id="a_Node000023"><a xlink:href="Utilities_8h.html#a2d10590a11f1790e37c47f70f294f10d" target="_top" xlink:title=" ">
<polygon fill="white" stroke="#666666" points="1082,-241.25 1004.5,-241.25 1004.5,-222 1082,-222 1082,-241.25"/>
<text text-anchor="middle" x="1043.25" y="-227.75" font-family="Helvetica,sans-Serif" font-size="10.00">ServoReverse</text>
</a>
</g>
</g>
<!-- Node10&#45;&gt;Node23 -->
<g id="edge21_Node000010_Node000023" class="edge">
<title>Node10&#45;&gt;Node23</title>
<g id="a_edge21_Node000010_Node000023"><a xlink:title=" ">
<path fill="none" stroke="#63b8ff" d="M919.35,-201.72C941.75,-207.17 969.54,-213.93 993.02,-219.65"/>
<polygon fill="#63b8ff" stroke="#63b8ff" points="992.15,-223.04 1002.69,-222 993.81,-216.23 992.15,-223.04"/>
</a>
</g>
</g>
<!-- Node24 -->
<g id="Node000024" class="node">
<title>Node24</title>
<g id="a_Node000024"><a xlink:href="TransmitterCode_2src_2main_8cpp.html#a73d05c890a6a5f7b493e6aefb497d869" target="_top" xlink:title=" ">
<polygon fill="white" stroke="#666666" points="1085.75,-204.25 1000.75,-204.25 1000.75,-185 1085.75,-185 1085.75,-204.25"/>
<text text-anchor="middle" x="1043.25" y="-190.75" font-family="Helvetica,sans-Serif" font-size="10.00">SlowAnyServos</text>
</a>
</g>
</g>
<!-- Node10&#45;&gt;Node24 -->
<g id="edge22_Node000010_Node000024" class="edge">
<title>Node10&#45;&gt;Node24</title>
<g id="a_edge22_Node000010_Node000024"><a xlink:title=" ">
<path fill="none" stroke="#63b8ff" d="M935.83,-192.68C953.1,-193 971.94,-193.34 988.91,-193.65"/>
<polygon fill="#63b8ff" stroke="#63b8ff" points="988.73,-197.15 998.79,-193.83 988.86,-190.15 988.73,-197.15"/>
</a>
</g>
</g>
<!-- Node12 -->
<g id="Node000012" class="node">
<title>Node12</title>
<g id="a_Node000012"><a xlink:href="Rates_8h.html#af9c038b48102eca9032f10fefd9d5736" target="_top" xlink:title=" ">
<polygon fill="#fff0f0" stroke="red" points="1254,-130.25 1176.5,-130.25 1176.5,-111 1254,-111 1254,-130.25"/>
<text text-anchor="middle" x="1215.25" y="-116.75" font-family="Helvetica,sans-Serif" font-size="10.00">GetCurveDots</text>
</a>
</g>
</g>
<!-- Node11&#45;&gt;Node12 -->
<g id="edge11_Node000011_Node000012" class="edge">
<title>Node11&#45;&gt;Node12</title>
<g id="a_edge11_Node000011_Node000012"><a xlink:title=" ">
<path fill="none" stroke="#63b8ff" d="M1094.8,-120.62C1116.86,-120.62 1142.66,-120.62 1164.62,-120.62"/>
<polygon fill="#63b8ff" stroke="#63b8ff" points="1164.54,-124.13 1174.54,-120.63 1164.54,-117.13 1164.54,-124.13"/>
</a>
</g>
</g>
<!-- Node16 -->
<g id="Node000016" class="node">
<title>Node16</title>
<g id="a_Node000016"><a xlink:href="Trims_8h.html#aacd8b022714bb89847239dd878ad9509" target="_top" xlink:title=" ">
<polygon fill="white" stroke="#666666" points="1257.75,-93.25 1172.75,-93.25 1172.75,-74 1257.75,-74 1257.75,-93.25"/>
<text text-anchor="middle" x="1215.25" y="-79.75" font-family="Helvetica,sans-Serif" font-size="10.00">GetTrimAmount</text>
</a>
</g>
</g>
<!-- Node15&#45;&gt;Node16 -->
<g id="edge13_Node000015_Node000016" class="edge">
<title>Node15&#45;&gt;Node16</title>
<g id="a_edge13_Node000015_Node000016"><a xlink:title=" ">
<path fill="none" stroke="#63b8ff" d="M1098.04,-83.62C1118.12,-83.62 1140.91,-83.62 1160.95,-83.62"/>
<polygon fill="#63b8ff" stroke="#63b8ff" points="1160.88,-87.13 1170.88,-83.63 1160.88,-80.13 1160.88,-87.13"/>
</a>
</g>
</g>
<!-- Node18 -->
<g id="Node000018" class="node">
<title>Node18</title>
<g id="a_Node000018"><a xlink:href="TransmitterCode_2src_2main_8cpp.html#ac5728db610c441820a6f47295967cbab" target="_top" xlink:title=" ">
<polygon fill="white" stroke="#666666" points="1254.75,-19.25 1175.75,-19.25 1175.75,0 1254.75,0 1254.75,-19.25"/>
<text text-anchor="middle" x="1215.25" y="-5.75" font-family="Helvetica,sans-Serif" font-size="10.00">AnalogueReed</text>
</a>
</g>
</g>
<!-- Node17&#45;&gt;Node18 -->
<g id="edge15_Node000017_Node000018" class="edge">
<title>Node17&#45;&gt;Node18</title>
<g id="a_edge15_Node000017_Node000018"><a xlink:title=" ">
<path fill="none" stroke="#63b8ff" d="M1078.65,-39.14C1103.3,-33.77 1136.86,-26.47 1164.43,-20.47"/>
<polygon fill="#63b8ff" stroke="#63b8ff" points="1164.94,-23.94 1173.97,-18.39 1163.45,-17.1 1164.94,-23.94"/>
</a>
</g>
</g>
<!-- Node19 -->
<g id="Node000019" class="node">
<title>Node19</title>
<g id="a_Node000019"><a xlink:href="TransmitterCode_2src_2main_8cpp.html#a787973ed0df098048a54e5110896eeb6" target="_top" xlink:title=" ">
<polygon fill="white" stroke="#666666" points="1279.5,-56.25 1151,-56.25 1151,-37 1279.5,-37 1279.5,-56.25"/>
<text text-anchor="middle" x="1215.25" y="-42.75" font-family="Helvetica,sans-Serif" font-size="10.00">ReadThreePositionSwitch</text>
</a>
</g>
</g>
<!-- Node17&#45;&gt;Node19 -->
<g id="edge16_Node000017_Node000019" class="edge">
<title>Node17&#45;&gt;Node19</title>
<g id="a_edge16_Node000017_Node000019"><a xlink:title=" ">
<path fill="none" stroke="#63b8ff" d="M1078.65,-46.62C1096.17,-46.62 1118.19,-46.62 1139.37,-46.62"/>
<polygon fill="#63b8ff" stroke="#63b8ff" points="1139.16,-50.13 1149.16,-46.63 1139.16,-43.13 1139.16,-50.13"/>
</a>
</g>
</g>
<!-- Node21&#45;&gt;Node9 -->
<g id="edge19_Node000021_Node000009" class="edge">
<title>Node21&#45;&gt;Node9</title>
<g id="a_edge19_Node000021_Node000009"><a xlink:title=" ">
<path fill="none" stroke="#63b8ff" d="M1076.17,-163.85C1088.53,-166.75 1102.65,-170.67 1115,-175.62 1141.77,-186.36 1170.24,-203.03 1189.79,-215.4"/>
<polygon fill="#63b8ff" stroke="#63b8ff" points="1187.83,-218.3 1198.13,-220.77 1191.62,-212.41 1187.83,-218.3"/>
</a>
</g>
</g>
<!-- Node27 -->
<g id="Node000027" class="node">
<title>Node27</title>
<g id="a_Node000027"><a xlink:href="transceiver_8h.html#a1ddd5e8d5bd649dd98ce3710fbff651b" target="_top" xlink:title=" ">
<polygon fill="white" stroke="#666666" points="1073.38,-673.25 1013.12,-673.25 1013.12,-654 1073.38,-654 1073.38,-673.25"/>
<text text-anchor="middle" x="1043.25" y="-659.75" font-family="Helvetica,sans-Serif" font-size="10.00">Compress</text>
</a>
</g>
</g>
<!-- Node26&#45;&gt;Node27 -->
<g id="edge25_Node000026_Node000027" class="edge">
<title>Node26&#45;&gt;Node27</title>
<g id="a_edge25_Node000026_Node000027"><a xlink:title=" ">
<path fill="none" stroke="#63b8ff" d="M906.64,-459.52C917.07,-461.99 928.1,-466.48 935.5,-474.62 987.74,-532.1 917.74,-589.58 971.5,-645.62 979.46,-653.93 990.67,-658.6 1001.82,-661.18"/>
<polygon fill="#63b8ff" stroke="#63b8ff" points="1000.89,-664.57 1011.34,-662.86 1002.1,-657.68 1000.89,-664.57"/>
</a>
</g>
</g>
<!-- Node28 -->
<g id="Node000028" class="node">
<title>Node28</title>
<g id="a_Node000028"><a xlink:href="transceiver_8h.html#a4144c213e5448a7e02d4172881f08219" target="_top" xlink:title=" ">
<polygon fill="white" stroke="#666666" points="1115,-636.25 971.5,-636.25 971.5,-617 1115,-617 1115,-636.25"/>
<text text-anchor="middle" x="1043.25" y="-622.75" font-family="Helvetica,sans-Serif" font-size="10.00">EncodeTheChangedChannels</text>
</a>
</g>
</g>
<!-- Node26&#45;&gt;Node28 -->
<g id="edge26_Node000026_Node000028" class="edge">
<title>Node26&#45;&gt;Node28</title>
<g id="a_edge26_Node000026_Node000028"><a xlink:title=" ">
<path fill="none" stroke="#63b8ff" d="M906.71,-459.81C917.02,-462.32 927.95,-466.76 935.5,-474.62 978.22,-519.1 927.6,-565.31 971.5,-608.62 971.99,-609.11 972.5,-609.59 973.01,-610.05"/>
<polygon fill="#63b8ff" stroke="#63b8ff" points="970.74,-612.73 980.93,-615.64 974.78,-607.01 970.74,-612.73"/>
</a>
</g>
</g>
<!-- Node29 -->
<g id="Node000029" class="node">
<title>Node29</title>
<g id="a_Node000029"><a xlink:href="transceiver_8h.html#a5fbd3c8613a4163425c94965704ce5f8" target="_top" xlink:title=" ">
<polygon fill="white" stroke="#666666" points="1079.75,-599.25 1006.75,-599.25 1006.75,-580 1079.75,-580 1079.75,-599.25"/>
<text text-anchor="middle" x="1043.25" y="-585.75" font-family="Helvetica,sans-Serif" font-size="10.00">FailedPacket</text>
</a>
</g>
</g>
<!-- Node26&#45;&gt;Node29 -->
<g id="edge27_Node000026_Node000029" class="edge">
<title>Node26&#45;&gt;Node29</title>
<g id="a_edge27_Node000026_Node000029"><a xlink:title=" ">
<path fill="none" stroke="#63b8ff" d="M906.61,-460.69C916.67,-463.3 927.45,-467.59 935.5,-474.62 963.95,-499.48 945.54,-524.18 971.5,-551.62 980.52,-561.16 992.48,-568.83 1003.99,-574.7"/>
<polygon fill="#63b8ff" stroke="#63b8ff" points="1002.44,-577.84 1012.98,-578.95 1005.44,-571.51 1002.44,-577.84"/>
</a>
</g>
</g>
<!-- Node65 -->
<g id="Node000065" class="node">
<title>Node65</title>
<g id="a_Node000065"><a xlink:href="transceiver_8h.html#a07c27b4e208198453c70876517926052" target="_top" xlink:title=" ">
<polygon fill="white" stroke="#666666" points="1246.12,-504.25 1184.38,-504.25 1184.38,-485 1246.12,-485 1246.12,-504.25"/>
<text text-anchor="middle" x="1215.25" y="-490.75" font-family="Helvetica,sans-Serif" font-size="10.00">FlushFifos</text>
</a>
</g>
</g>
<!-- Node26&#45;&gt;Node65 -->
<g id="edge33_Node000026_Node000065" class="edge">
<title>Node26&#45;&gt;Node65</title>
<g id="a_edge33_Node000026_Node000065"><a xlink:title=" ">
<path fill="none" stroke="#63b8ff" d="M906.51,-461.28C925.02,-464.2 949.64,-467.91 971.5,-470.62 1041.97,-479.37 1124.27,-486.96 1172.67,-491.15"/>
<polygon fill="#63b8ff" stroke="#63b8ff" points="1172.15,-494.62 1182.41,-491.99 1172.75,-487.64 1172.15,-494.62"/>
</a>
</g>
</g>
<!-- Node61 -->
<g id="Node000061" class="node">
<title>Node61</title>
<g id="a_Node000061"><a xlink:href="common_8h.html#a6e2d4126d864c50e7c23c988c2bfdd1a" target="_top" xlink:title=" ">
<polygon fill="white" stroke="#666666" points="1361.5,-466.25 1315.5,-466.25 1315.5,-447 1361.5,-447 1361.5,-466.25"/>
<text text-anchor="middle" x="1338.5" y="-452.75" font-family="Helvetica,sans-Serif" font-size="10.00">Radio1</text>
</a>
</g>
</g>
<!-- Node26&#45;&gt;Node61 -->
<g id="edge35_Node000026_Node000061" class="edge">
<title>Node26&#45;&gt;Node61</title>
<g id="a_edge35_Node000026_Node000061"><a xlink:title=" ">
<path fill="none" stroke="#63b8ff" d="M906.63,-456.62C987.54,-456.62 1216.92,-456.62 1303.68,-456.62"/>
<polygon fill="#63b8ff" stroke="#63b8ff" points="1303.67,-460.13 1313.67,-456.63 1303.67,-453.13 1303.67,-460.13"/>
</a>
</g>
</g>
<!-- Node66 -->
<g id="Node000066" class="node">
<title>Node66</title>
<g id="a_Node000066"><a xlink:href="transceiver_8h.html#a5a043d48a3d1761777eb9e7c3faa8753" target="_top" xlink:title=" ">
<polygon fill="white" stroke="#666666" points="1102.62,-391.25 983.88,-391.25 983.88,-372 1102.62,-372 1102.62,-391.25"/>
<text text-anchor="middle" x="1043.25" y="-377.75" font-family="Helvetica,sans-Serif" font-size="10.00">SendExtraParamemters</text>
</a>
</g>
</g>
<!-- Node26&#45;&gt;Node66 -->
<g id="edge36_Node000026_Node000066" class="edge">
<title>Node26&#45;&gt;Node66</title>
<g id="a_edge36_Node000026_Node000066"><a xlink:title=" ">
<path fill="none" stroke="#63b8ff" d="M891.45,-446.56C909.06,-433.93 941.15,-412.38 971.5,-399.62 975.35,-398.01 979.38,-396.51 983.48,-395.12"/>
<polygon fill="#63b8ff" stroke="#63b8ff" points="984.46,-398.48 992.97,-392.17 982.39,-391.8 984.46,-398.48"/>
</a>
</g>
</g>
<!-- Node69 -->
<g id="Node000069" class="node">
<title>Node69</title>
<g id="a_Node000069"><a xlink:href="BuddyWireless_8h.html#a41c327908c92572d0d3eebbb19160d86" target="_top" xlink:title=" ">
<polygon fill="#fff0f0" stroke="red" points="1094,-428.25 992.5,-428.25 992.5,-409 1094,-409 1094,-428.25"/>
<text text-anchor="middle" x="1043.25" y="-414.75" font-family="Helvetica,sans-Serif" font-size="10.00">SendSpecialPacket</text>
</a>
</g>
</g>
<!-- Node26&#45;&gt;Node69 -->
<g id="edge38_Node000026_Node000069" class="edge">
<title>Node26&#45;&gt;Node69</title>
<g id="a_edge38_Node000026_Node000069"><a xlink:title=" ">
<path fill="none" stroke="#63b8ff" d="M906.51,-450.01C928.82,-444.85 960.46,-437.53 987.58,-431.26"/>
<polygon fill="#63b8ff" stroke="#63b8ff" points="988.07,-434.74 997.02,-429.08 986.49,-427.92 988.07,-434.74"/>
</a>
</g>
</g>
<!-- Node74 -->
<g id="Node000074" class="node">
<title>Node74</title>
<g id="a_Node000074"><a xlink:href="BuddyPPM_8h.html#a784a1eca0361b3991bca899167cc1cdb" target="_top" xlink:title=" ">
<polygon fill="white" stroke="#666666" points="1080.5,-354.25 1006,-354.25 1006,-335 1080.5,-335 1080.5,-354.25"/>
<text text-anchor="middle" x="1043.25" y="-340.75" font-family="Helvetica,sans-Serif" font-size="10.00">SendViaPPM</text>
</a>
</g>
</g>
<!-- Node26&#45;&gt;Node74 -->
<g id="edge42_Node000026_Node000074" class="edge">
<title>Node26&#45;&gt;Node74</title>
<g id="a_edge42_Node000026_Node000074"><a xlink:title=" ">
<path fill="none" stroke="#63b8ff" d="M884.86,-446.65C898.93,-427.33 932.68,-384.76 971.5,-362.62 978.62,-358.57 986.65,-355.41 994.68,-352.96"/>
<polygon fill="#63b8ff" stroke="#63b8ff" points="995.34,-356.41 1004.08,-350.43 993.52,-349.65 995.34,-356.41"/>
</a>
</g>
</g>
<!-- Node75 -->
<g id="Node000075" class="node">
<title>Node75</title>
<g id="a_Node000075"><a xlink:href="transceiver_8h.html#a1c11bb6771548de7d96723045b922620" target="_top" xlink:title=" ">
<polygon fill="#fff0f0" stroke="red" points="1091,-542.25 995.5,-542.25 995.5,-523 1091,-523 1091,-542.25"/>
<text text-anchor="middle" x="1043.25" y="-528.75" font-family="Helvetica,sans-Serif" font-size="10.00">SuccessfulPacket</text>
</a>
</g>
</g>
<!-- Node26&#45;&gt;Node75 -->
<g id="edge43_Node000026_Node000075" class="edge">
<title>Node26&#45;&gt;Node75</title>
<g id="a_edge43_Node000026_Node000075"><a xlink:title=" ">
<path fill="none" stroke="#63b8ff" d="M906.5,-462.8C916.11,-465.58 926.64,-469.43 935.5,-474.62 954.49,-485.75 952.65,-497.27 971.5,-508.62 977.85,-512.45 984.88,-515.76 991.98,-518.59"/>
<polygon fill="#63b8ff" stroke="#63b8ff" points="990.72,-521.86 1001.31,-522.02 993.13,-515.29 990.72,-521.86"/>
</a>
</g>
</g>
<!-- Node30 -->
<g id="Node000030" class="node">
<title>Node30</title>
<g id="a_Node000030"><a xlink:href="transceiver_8h.html#afcf53d02052a623856b352f27547194c" target="_top" xlink:title=" ">
<polygon fill="white" stroke="#666666" points="1262.62,-728.25 1167.88,-728.25 1167.88,-709 1262.62,-709 1262.62,-728.25"/>
<text text-anchor="middle" x="1215.25" y="-714.75" font-family="Helvetica,sans-Serif" font-size="10.00">CheckDataRepeat</text>
</a>
</g>
</g>
<!-- Node29&#45;&gt;Node30 -->
<g id="edge28_Node000029_Node000030" class="edge">
<title>Node29&#45;&gt;Node30</title>
<g id="a_edge28_Node000029_Node000030"><a xlink:title=" ">
<path fill="none" stroke="#63b8ff" d="M1080.12,-592.09C1092.39,-594.54 1105.42,-599.13 1115,-607.62 1148.17,-637.03 1118.25,-670.76 1151,-700.62 1152.99,-702.44 1155.16,-704.08 1157.44,-705.55"/>
<polygon fill="#63b8ff" stroke="#63b8ff" points="1155.57,-708.52 1166.06,-710.02 1158.8,-702.31 1155.57,-708.52"/>
</a>
</g>
</g>
<!-- Node31 -->
<g id="Node000031" class="node">
<title>Node31</title>
<g id="a_Node000031"><a xlink:href="transceiver_8h.html#a7154e4db2ead530e9d7c8061d09d37cb" target="_top" xlink:title=" ">
<polygon fill="#fff0f0" stroke="red" points="1246.12,-691.25 1184.38,-691.25 1184.38,-672 1246.12,-672 1246.12,-691.25"/>
<text text-anchor="middle" x="1215.25" y="-677.75" font-family="Helvetica,sans-Serif" font-size="10.00">CheckGap</text>
</a>
</g>
</g>
<!-- Node29&#45;&gt;Node31 -->
<g id="edge29_Node000029_Node000031" class="edge">
<title>Node29&#45;&gt;Node31</title>
<g id="a_edge29_Node000029_Node000031"><a xlink:title=" ">
<path fill="none" stroke="#63b8ff" d="M1079.95,-593.36C1091.93,-595.94 1104.82,-600.29 1115,-607.62 1139.01,-624.92 1127.24,-645.99 1151,-663.62 1157.48,-668.43 1165.21,-671.96 1172.99,-674.54"/>
<polygon fill="#63b8ff" stroke="#63b8ff" points="1171.89,-677.87 1182.46,-677.2 1173.78,-671.13 1171.89,-677.87"/>
</a>
</g>
</g>
<!-- Node55 -->
<g id="Node000055" class="node">
<title>Node55</title>
<g id="a_Node000055"><a xlink:href="transceiver_8h.html#abf955fe3fa8f544096735e18385cd90d" target="_top" xlink:title=" ">
<polygon fill="white" stroke="#666666" points="1274.25,-654.25 1156.25,-654.25 1156.25,-635 1274.25,-635 1274.25,-654.25"/>
<text text-anchor="middle" x="1215.25" y="-640.75" font-family="Helvetica,sans-Serif" font-size="10.00">CheckInactivityTimeout</text>
</a>
</g>
</g>
<!-- Node29&#45;&gt;Node55 -->
<g id="edge30_Node000029_Node000055" class="edge">
<title>Node29&#45;&gt;Node55</title>
<g id="a_edge30_Node000029_Node000055"><a xlink:title=" ">
<path fill="none" stroke="#63b8ff" d="M1080.03,-596.99C1091.39,-599.78 1103.88,-603.35 1115,-607.62 1131.88,-614.12 1134.21,-619.89 1151,-626.62 1154.88,-628.18 1158.95,-629.66 1163.07,-631.06"/>
<polygon fill="#63b8ff" stroke="#63b8ff" points="1161.98,-634.38 1172.57,-634.08 1164.1,-627.71 1161.98,-634.38"/>
</a>
</g>
</g>
<!-- Node56 -->
<g id="Node000056" class="node">
<title>Node56</title>
<g id="a_Node000056"><a xlink:href="transceiver_8h.html#a18d9866d5425cd145044b1fddbfc00a0" target="_top" xlink:title=" ">
<polygon fill="#fff0f0" stroke="red" points="1263.75,-617.25 1166.75,-617.25 1166.75,-598 1263.75,-598 1263.75,-617.25"/>
<text text-anchor="middle" x="1215.25" y="-603.75" font-family="Helvetica,sans-Serif" font-size="10.00">CheckLostContact</text>
</a>
</g>
</g>
<!-- Node29&#45;&gt;Node56 -->
<g id="edge31_Node000029_Node000056" class="edge">
<title>Node29&#45;&gt;Node56</title>
<g id="a_edge31_Node000029_Node000056"><a xlink:title=" ">
<path fill="none" stroke="#63b8ff" d="M1079.89,-593.4C1101.67,-595.7 1130.07,-598.71 1155.15,-601.37"/>
<polygon fill="#63b8ff" stroke="#63b8ff" points="1154.58,-604.83 1164.9,-602.4 1155.32,-597.87 1154.58,-604.83"/>
</a>
</g>
</g>
<!-- Node64 -->
<g id="Node000064" class="node">
<title>Node64</title>
<g id="a_Node000064"><a xlink:href="transceiver_8h.html#afc091b5942e21a03f6dc8635d5e519ba" target="_top" xlink:title=" ">
<polygon fill="white" stroke="#666666" points="1275.75,-580.25 1154.75,-580.25 1154.75,-561 1275.75,-561 1275.75,-580.25"/>
<text text-anchor="middle" x="1215.25" y="-566.75" font-family="Helvetica,sans-Serif" font-size="10.00">RecordsPacketSuccess</text>
</a>
</g>
</g>
<!-- Node29&#45;&gt;Node64 -->
<g id="edge32_Node000029_Node000064" class="edge">
<title>Node29&#45;&gt;Node64</title>
<g id="a_edge32_Node000029_Node000064"><a xlink:title=" ">
<path fill="none" stroke="#63b8ff" d="M1079.89,-585.64C1098.29,-583.58 1121.43,-581 1143.28,-578.56"/>
<polygon fill="#63b8ff" stroke="#63b8ff" points="1143.51,-582.05 1153.06,-577.46 1142.74,-575.1 1143.51,-582.05"/>
</a>
</g>
</g>
<!-- Node65&#45;&gt;Node61 -->
<g id="edge34_Node000065_Node000061" class="edge">
<title>Node65&#45;&gt;Node61</title>
<g id="a_edge34_Node000065_Node000061"><a xlink:title=" ">
<path fill="none" stroke="#63b8ff" d="M1246.53,-485.13C1264.11,-479.63 1286.27,-472.68 1304.32,-467.03"/>
<polygon fill="#63b8ff" stroke="#63b8ff" points="1305.28,-470.39 1313.77,-464.06 1303.18,-463.71 1305.28,-470.39"/>
</a>
</g>
</g>
<!-- Node67 -->
<g id="Node000067" class="node">
<title>Node67</title>
<g id="a_Node000067"><a xlink:href="transceiver_8h.html#adac102739147db6397bbcbb371aec4fd" target="_top" xlink:title=" ">
<polygon fill="#fff0f0" stroke="red" points="1259.25,-352.25 1171.25,-352.25 1171.25,-333 1259.25,-333 1259.25,-352.25"/>
<text text-anchor="middle" x="1215.25" y="-338.75" font-family="Helvetica,sans-Serif" font-size="10.00">LoadParameters</text>
</a>
</g>
</g>
<!-- Node66&#45;&gt;Node67 -->
<g id="edge37_Node000066_Node000067" class="edge">
<title>Node66&#45;&gt;Node67</title>
<g id="a_edge37_Node000066_Node000067"><a xlink:title=" ">
<path fill="none" stroke="#63b8ff" d="M1088.03,-371.58C1109.93,-366.56 1136.64,-360.43 1159.84,-355.11"/>
<polygon fill="#63b8ff" stroke="#63b8ff" points="1160.47,-358.55 1169.44,-352.91 1158.91,-351.73 1160.47,-358.55"/>
</a>
</g>
</g>
<!-- Node69&#45;&gt;Node61 -->
<g id="edge41_Node000069_Node000061" class="edge">
<title>Node69&#45;&gt;Node61</title>
<g id="a_edge41_Node000069_Node000061"><a xlink:title=" ">
<path fill="none" stroke="#63b8ff" d="M1090.78,-408.51C1109.41,-404.94 1131.12,-401.38 1151,-399.62 1207.89,-394.6 1226.64,-378 1279.5,-399.62 1298.22,-407.28 1314.15,-424.21 1324.55,-437.65"/>
<polygon fill="#63b8ff" stroke="#63b8ff" points="1321.49,-439.39 1330.21,-445.4 1327.14,-435.26 1321.49,-439.39"/>
</a>
</g>
</g>
<!-- Node70 -->
<g id="Node000070" class="node">
<title>Node70</title>
<g id="a_Node000070"><a xlink:href="BuddyWireless_8h.html#ace84aff90c63bee9a876eda720fbf8bc" target="_top" xlink:title=" ">
<polygon fill="white" stroke="#666666" points="1260,-428.25 1170.5,-428.25 1170.5,-409 1260,-409 1260,-428.25"/>
<text text-anchor="middle" x="1215.25" y="-414.75" font-family="Helvetica,sans-Serif" font-size="10.00">ChangeTXTarget</text>
</a>
</g>
</g>
<!-- Node69&#45;&gt;Node70 -->
<g id="edge39_Node000069_Node000070" class="edge">
<title>Node69&#45;&gt;Node70</title>
<g id="a_edge39_Node000069_Node000070"><a xlink:title=" ">
<path fill="none" stroke="#63b8ff" d="M1094.34,-418.62C1114.49,-418.62 1137.81,-418.62 1158.5,-418.62"/>
<polygon fill="#63b8ff" stroke="#63b8ff" points="1158.49,-422.13 1168.49,-418.63 1158.49,-415.13 1158.49,-422.13"/>
</a>
</g>
</g>
<!-- Node70&#45;&gt;Node61 -->
<g id="edge40_Node000070_Node000061" class="edge">
<title>Node70&#45;&gt;Node61</title>
<g id="a_edge40_Node000070_Node000061"><a xlink:title=" ">
<path fill="none" stroke="#63b8ff" d="M1248.42,-428.71C1265.69,-434.12 1286.94,-440.78 1304.35,-446.24"/>
<polygon fill="#63b8ff" stroke="#63b8ff" points="1303.12,-449.52 1313.71,-449.17 1305.22,-442.84 1303.12,-449.52"/>
</a>
</g>
</g>
<!-- Node75&#45;&gt;Node64 -->
<g id="edge45_Node000075_Node000064" class="edge">
<title>Node75&#45;&gt;Node64</title>
<g id="a_edge45_Node000075_Node000064"><a xlink:title=" ">
<path fill="none" stroke="#63b8ff" d="M1089.36,-542.71C1110.48,-547.43 1135.85,-553.1 1158.19,-558.09"/>
<polygon fill="#63b8ff" stroke="#63b8ff" points="1157.22,-561.46 1167.75,-560.23 1158.75,-554.63 1157.22,-561.46"/>
</a>
</g>
</g>
<!-- Node75&#45;&gt;Node61 -->
<g id="edge44_Node000075_Node000061" class="edge">
<title>Node75&#45;&gt;Node61</title>
<g id="a_edge44_Node000075_Node000061"><a xlink:title=" ">
<path fill="none" stroke="#63b8ff" d="M1091.24,-537.95C1140.47,-541.5 1218.94,-541.3 1279.5,-513.62 1297.89,-505.22 1313.86,-488.38 1324.36,-475.17"/>
<polygon fill="#63b8ff" stroke="#63b8ff" points="1326.86,-477.67 1330.08,-467.57 1321.27,-473.45 1326.86,-477.67"/>
</a>
</g>
</g>
<!-- Node164 -->
<g id="Node000164" class="node">
<title>Node164</title>
<g id="a_Node000164"><a xlink:href="SDcard_8h.html#a82e989b70d0f68854ead6262993255cc" target="_top" xlink:title=" ">
<polygon fill="white" stroke="#666666" points="782.25,-127.25 688.25,-127.25 688.25,-108 782.25,-108 782.25,-127.25"/>
<text text-anchor="middle" x="735.25" y="-113.75" font-family="Helvetica,sans-Serif" font-size="10.00">SDUpdate32BITS</text>
</a>
</g>
</g>
<!-- Node163&#45;&gt;Node164 -->
<g id="edge47_Node000163_Node000164" class="edge">
<title>Node163&#45;&gt;Node164</title>
<g id="a_edge47_Node000163_Node000164"><a xlink:title=" ">
<path fill="none" stroke="#63b8ff" d="M652.6,-117.62C660.35,-117.62 668.44,-117.62 676.39,-117.62"/>
<polygon fill="#63b8ff" stroke="#63b8ff" points="676.37,-121.13 686.37,-117.63 676.37,-114.13 676.37,-121.13"/>
</a>
</g>
</g>
<!-- Node163&#45;&gt;Node166 -->
<g id="edge50_Node000163_Node000166" class="edge">
<title>Node163&#45;&gt;Node166</title>
<g id="a_edge50_Node000163_Node000166"><a xlink:title=" ">
<path fill="none" stroke="#63b8ff" d="M640.14,-127.74C654.98,-131.98 672.44,-136.97 688.27,-141.49"/>
<polygon fill="#63b8ff" stroke="#63b8ff" points="686.87,-144.73 697.45,-144.11 688.8,-138 686.87,-144.73"/>
</a>
</g>
</g>
<!-- Node123 -->
<g id="Node000123" class="node">
<title>Node123</title>
<g id="a_Node000123"><a xlink:href="SDcard_8h.html#addfb17077b6300576f07ef8c17f88581" target="_top" xlink:title=" ">
<polygon fill="white" stroke="#666666" points="919.75,-164.25 834,-164.25 834,-145 919.75,-145 919.75,-164.25"/>
<text text-anchor="middle" x="876.88" y="-150.75" font-family="Helvetica,sans-Serif" font-size="10.00">BuildCheckSum</text>
</a>
</g>
</g>
<!-- Node164&#45;&gt;Node123 -->
<g id="edge48_Node000164_Node000123" class="edge">
<title>Node164&#45;&gt;Node123</title>
<g id="a_edge48_Node000164_Node000123"><a xlink:title=" ">
<path fill="none" stroke="#63b8ff" d="M774.4,-127.74C790.56,-132.02 809.6,-137.06 826.79,-141.62"/>
<polygon fill="#63b8ff" stroke="#63b8ff" points="825.74,-144.96 836.3,-144.14 827.54,-138.19 825.74,-144.96"/>
</a>
</g>
</g>
<!-- Node165 -->
<g id="Node000165" class="node">
<title>Node165</title>
<g id="a_Node000165"><a xlink:href="SDcard_8h.html#aa5479d4f80459a9530b2e538f4048eb5" target="_top" xlink:title=" ">
<polygon fill="white" stroke="#666666" points="908.5,-127.25 845.25,-127.25 845.25,-108 908.5,-108 908.5,-127.25"/>
<text text-anchor="middle" x="876.88" y="-113.75" font-family="Helvetica,sans-Serif" font-size="10.00">ShortDelay</text>
</a>
</g>
</g>
<!-- Node164&#45;&gt;Node165 -->
<g id="edge49_Node000164_Node000165" class="edge">
<title>Node164&#45;&gt;Node165</title>
<g id="a_edge49_Node000164_Node000165"><a xlink:title=" ">
<path fill="none" stroke="#63b8ff" d="M782.74,-117.62C799.21,-117.62 817.64,-117.62 833.73,-117.62"/>
<polygon fill="#63b8ff" stroke="#63b8ff" points="833.45,-121.13 843.45,-117.63 833.45,-114.13 833.45,-121.13"/>
</a>
</g>
</g>
<!-- Node166&#45;&gt;Node123 -->
<g id="edge51_Node000166_Node000123" class="edge">
<title>Node166&#45;&gt;Node123</title>
<g id="a_edge51_Node000166_Node000123"><a xlink:title=" ">
<path fill="none" stroke="#63b8ff" d="M780.05,-154.62C793.42,-154.62 808.27,-154.62 822.22,-154.62"/>
<polygon fill="#63b8ff" stroke="#63b8ff" points="822.15,-158.13 832.15,-154.63 822.15,-151.13 822.15,-158.13"/>
</a>
</g>
</g>
<!-- Node166&#45;&gt;Node165 -->
<g id="edge52_Node000166_Node000165" class="edge">
<title>Node166&#45;&gt;Node165</title>
<g id="a_edge52_Node000166_Node000165"><a xlink:title=" ">
<path fill="none" stroke="#63b8ff" d="M774.4,-144.51C792.81,-139.64 814.94,-133.77 833.84,-128.77"/>
<polygon fill="#63b8ff" stroke="#63b8ff" points="834.59,-132.19 843.36,-126.24 832.8,-125.42 834.59,-132.19"/>
</a>
</g>
</g>
<!-- Node167&#45;&gt;Node123 -->
<g id="edge54_Node000167_Node000123" class="edge">
<title>Node167&#45;&gt;Node123</title>
<g id="a_edge54_Node000167_Node000123"><a xlink:title=" ">
<path fill="none" stroke="#63b8ff" d="M774.4,-181.51C790.56,-177.23 809.6,-172.19 826.79,-167.63"/>
<polygon fill="#63b8ff" stroke="#63b8ff" points="827.54,-171.06 836.3,-165.11 825.74,-164.29 827.54,-171.06"/>
</a>
</g>
</g>
<!-- Node167&#45;&gt;Node165 -->
<g id="edge55_Node000167_Node000165" class="edge">
<title>Node167&#45;&gt;Node165</title>
<g id="a_edge55_Node000167_Node000165"><a xlink:title=" ">
<path fill="none" stroke="#63b8ff" d="M767.38,-181.61C772.55,-179.35 777.7,-176.69 782.25,-173.62 801.55,-160.63 798.51,-147.94 818.25,-135.62 823.18,-132.55 828.68,-129.96 834.27,-127.8"/>
<polygon fill="#63b8ff" stroke="#63b8ff" points="835.24,-131.16 843.57,-124.62 832.98,-124.54 835.24,-131.16"/>
</a>
</g>
</g>
<!-- Node51&#45;&gt;Node7 -->
<g id="edge59_Node000051_Node000007" class="edge">
<title>Node51&#45;&gt;Node7</title>
<g id="a_edge59_Node000051_Node000007"><a xlink:title=" ">
<path fill="none" stroke="#63b8ff" d="M186.95,-259.69C201.85,-268.88 225.47,-281.86 248,-287.62 403.68,-327.44 596.46,-318.58 685.26,-311.39"/>
<polygon fill="#63b8ff" stroke="#63b8ff" points="685.4,-314.89 695.07,-310.57 684.81,-307.92 685.4,-314.89"/>
</a>
</g>
</g>
<!-- Node52 -->
<g id="Node000052" class="node">
<title>Node52</title>
<g id="a_Node000052"><a xlink:href="Nextion_8h.html#a43937dd3d9c795271fd9c3eb3c6b6410" target="_top" xlink:title=" ">
<polygon fill="white" stroke="#666666" points="337.88,-278.25 255.12,-278.25 255.12,-259 337.88,-259 337.88,-278.25"/>
<text text-anchor="middle" x="296.5" y="-264.75" font-family="Helvetica,sans-Serif" font-size="10.00">GetReturnCode</text>
</a>
</g>
</g>
<!-- Node51&#45;&gt;Node52 -->
<g id="edge60_Node000051_Node000052" class="edge">
<title>Node51&#45;&gt;Node52</title>
<g id="a_edge60_Node000051_Node000052"><a xlink:title=" ">
<path fill="none" stroke="#63b8ff" d="M212.19,-255.85C222.24,-257.39 233.15,-259.06 243.66,-260.67"/>
<polygon fill="#63b8ff" stroke="#63b8ff" points="242.94,-264.1 253.35,-262.16 244,-257.18 242.94,-264.1"/>
</a>
</g>
</g>
<!-- Node53 -->
<g id="Node000053" class="node">
<title>Node53</title>
<g id="a_Node000053"><a xlink:href="TransmitterCode_2src_2main_8cpp.html#a5f109790a6fe0b972a502f3cac4ed1e7" target="_top" xlink:title=" ">
<polygon fill="white" stroke="#666666" points="320.25,-241.25 272.75,-241.25 272.75,-222 320.25,-222 320.25,-241.25"/>
<text text-anchor="middle" x="296.5" y="-227.75" font-family="Helvetica,sans-Serif" font-size="10.00">InStrng</text>
</a>
</g>
</g>
<!-- Node51&#45;&gt;Node53 -->
<g id="edge61_Node000051_Node000053" class="edge">
<title>Node51&#45;&gt;Node53</title>
<g id="a_edge61_Node000051_Node000053"><a xlink:title=" ">
<path fill="none" stroke="#63b8ff" d="M212.19,-243.73C228.16,-241.41 246.28,-238.78 261.54,-236.56"/>
<polygon fill="#63b8ff" stroke="#63b8ff" points="261.68,-240.08 271.07,-235.17 260.67,-233.15 261.68,-240.08"/>
</a>
</g>
</g>
</g>
</svg>
