<?xml version="1.0" encoding="UTF-8" standalone="no"?>
<!DOCTYPE svg PUBLIC "-//W3C//DTD SVG 1.1//EN"
 "http://www.w3.org/Graphics/SVG/1.1/DTD/svg11.dtd">
<!-- Generated by graphviz version 7.0.5 (20221223.1930)
 -->
<!-- Title: FixDeltaGMTSign Pages: 1 -->
<svg width="1446pt" height="458pt"
 viewBox="0.00 0.00 1446.00 458.44" xmlns="http://www.w3.org/2000/svg" xmlns:xlink="http://www.w3.org/1999/xlink">
<g id="graph0" class="graph" transform="scale(1 1) rotate(0) translate(4 454.44)">
<title>FixDeltaGMTSign</title>
<!-- Node1 -->
<g id="node1" class="node">
<title>Node1</title>
<g id="a_node1"><a xlink:title=" ">
<polygon fill="#999999" stroke="#666666" points="1438,-254.94 1345,-254.94 1345,-235.94 1438,-235.94 1438,-254.94"/>
<text text-anchor="middle" x="1391.5" y="-242.94" font-family="Helvetica,sans-Serif" font-size="10.00">FixDeltaGMTSign</text>
</a>
</g>
</g>
<!-- Node2 -->
<g id="node2" class="node">
<title>Node2</title>
<g id="a_node2"><a xlink:href="TransmitterCode_2src_2main_8cpp.html#a804fdbdd5eab4c596bbe8a23eecbe4d5" target="_top" xlink:title=" ">
<polygon fill="white" stroke="#666666" points="1309,-291.94 1208,-291.94 1208,-272.94 1309,-272.94 1309,-291.94"/>
<text text-anchor="middle" x="1258.5" y="-279.94" font-family="Helvetica,sans-Serif" font-size="10.00">ButtonWasPressed</text>
</a>
</g>
</g>
<!-- Node1&#45;&gt;Node2 -->
<g id="edge1" class="edge">
<title>Node1&#45;&gt;Node2</title>
<path fill="none" stroke="#63b8ff" d="M1344.43,-258.46C1328.09,-263.07 1309.99,-268.18 1294.7,-272.5"/>
<polygon fill="#63b8ff" stroke="#63b8ff" points="1345.27,-261.86 1353.94,-255.77 1343.36,-255.12 1345.27,-261.86"/>
</g>
<!-- Node25 -->
<g id="node25" class="node">
<title>Node25</title>
<g id="a_node25"><a xlink:href="Utilities_8h.html#a483cced19b61975f76957f5696425fe9" target="_top" xlink:title=" ">
<polygon fill="white" stroke="#666666" points="1129.5,-161.94 1068.5,-161.94 1068.5,-142.94 1129.5,-142.94 1129.5,-161.94"/>
<text text-anchor="middle" x="1099" y="-149.94" font-family="Helvetica,sans-Serif" font-size="10.00">ReadTime</text>
</a>
</g>
</g>
<!-- Node1&#45;&gt;Node25 -->
<g id="edge33" class="edge">
<title>Node1&#45;&gt;Node25</title>
<path fill="none" stroke="#63b8ff" d="M1348.55,-232.01C1289.17,-213 1182.04,-178.7 1129.99,-162.04"/>
<polygon fill="#63b8ff" stroke="#63b8ff" points="1347.38,-235.31 1357.97,-235.03 1349.51,-228.65 1347.38,-235.31"/>
</g>
<!-- Node3 -->
<g id="node3" class="node">
<title>Node3</title>
<g id="a_node3"><a xlink:href="Utilities_8h.html#afb7c85cac4aa89fd998ed81c330374d2" target="_top" xlink:title=" ">
<polygon fill="white" stroke="#666666" points="1172,-234.94 1026,-234.94 1026,-215.94 1172,-215.94 1172,-234.94"/>
<text text-anchor="middle" x="1099" y="-222.94" font-family="Helvetica,sans-Serif" font-size="10.00">CheckForNextionButtonPress</text>
</a>
</g>
</g>
<!-- Node2&#45;&gt;Node3 -->
<g id="edge2" class="edge">
<title>Node2&#45;&gt;Node3</title>
<path fill="none" stroke="#63b8ff" d="M1221.96,-268.3C1206.65,-262.32 1188.51,-255.37 1172,-249.44 1158.61,-244.63 1143.7,-239.61 1130.94,-235.41"/>
<polygon fill="#63b8ff" stroke="#63b8ff" points="1220.55,-271.51 1231.14,-271.91 1223.11,-264.99 1220.55,-271.51"/>
</g>
<!-- Node18 -->
<g id="node18" class="node">
<title>Node18</title>
<g id="a_node18"><a xlink:href="ModelExchange_8h.html#ab7c9edf843c732d7fe296564f39bc0dc" target="_top" xlink:title="RECEIVE A MODEL FILE.">
<polygon fill="white" stroke="#666666" points="832,-421.94 738,-421.94 738,-402.94 832,-402.94 832,-421.94"/>
<text text-anchor="middle" x="785" y="-409.94" font-family="Helvetica,sans-Serif" font-size="10.00">ReceiveModelFile</text>
</a>
</g>
</g>
<!-- Node2&#45;&gt;Node18 -->
<g id="edge32" class="edge">
<title>Node2&#45;&gt;Node18</title>
<path fill="none" stroke="#63b8ff" d="M1210.38,-295.43C1116.14,-321.42 906.26,-379.29 822.01,-402.51"/>
<polygon fill="#63b8ff" stroke="#63b8ff" points="1211.12,-298.86 1219.83,-292.83 1209.26,-292.11 1211.12,-298.86"/>
</g>
<!-- Node4 -->
<g id="node4" class="node">
<title>Node4</title>
<g id="a_node4"><a xlink:href="TransmitterCode_2src_2main_8cpp.html#a641d6dab68ec7b2a8a32492aac55bc1c" target="_top" xlink:title=" ">
<polygon fill="white" stroke="#666666" points="990,-310.94 885,-310.94 885,-291.94 990,-291.94 990,-310.94"/>
<text text-anchor="middle" x="937.5" y="-298.94" font-family="Helvetica,sans-Serif" font-size="10.00">GetBackupFilename</text>
</a>
</g>
</g>
<!-- Node3&#45;&gt;Node4 -->
<g id="edge3" class="edge">
<title>Node3&#45;&gt;Node4</title>
<path fill="none" stroke="#63b8ff" d="M1067.08,-240.17C1035.34,-255.3 986.82,-278.42 959.36,-291.5"/>
<polygon fill="#63b8ff" stroke="#63b8ff" points="1068.26,-243.49 1075.78,-236.03 1065.25,-237.17 1068.26,-243.49"/>
</g>
<!-- Node6 -->
<g id="node6" class="node">
<title>Node6</title>
<g id="a_node6"><a xlink:href="TransmitterCode_2src_2main_8cpp.html#a6506bf72e0dd9e9ce480156b47625bff" target="_top" xlink:title=" ">
<polygon fill="white" stroke="#666666" points="980.5,-254.94 894.5,-254.94 894.5,-235.94 980.5,-235.94 980.5,-254.94"/>
<text text-anchor="middle" x="937.5" y="-242.94" font-family="Helvetica,sans-Serif" font-size="10.00">GetConfirmation</text>
</a>
</g>
</g>
<!-- Node3&#45;&gt;Node6 -->
<g id="edge6" class="edge">
<title>Node3&#45;&gt;Node6</title>
<path fill="none" stroke="#63b8ff" d="M1014.55,-235.91C1002.89,-237.37 991.35,-238.82 980.9,-240.13"/>
<polygon fill="#63b8ff" stroke="#63b8ff" points="1014.73,-239.41 1024.22,-234.69 1013.86,-232.47 1014.73,-239.41"/>
</g>
<!-- Node22 -->
<g id="node22" class="node">
<title>Node22</title>
<g id="a_node22"><a xlink:href="TransmitterCode_2src_2main_8cpp.html#a558ea014e230b7caa54ce5a37ad29b22" target="_top" xlink:title=" ">
<polygon fill="white" stroke="#666666" points="988,-106.94 887,-106.94 887,-87.94 988,-87.94 988,-106.94"/>
<text text-anchor="middle" x="937.5" y="-94.94" font-family="Helvetica,sans-Serif" font-size="10.00">ManageTransmitter</text>
</a>
</g>
</g>
<!-- Node3&#45;&gt;Node22 -->
<g id="edge25" class="edge">
<title>Node3&#45;&gt;Node22</title>
<path fill="none" stroke="#63b8ff" d="M1072.69,-209.28C1058.04,-199.19 1039.84,-185.32 1026,-170.44 1006.11,-149.05 1013.01,-133.44 990,-115.44 985.9,-112.23 981.18,-109.57 976.3,-107.37"/>
<polygon fill="#63b8ff" stroke="#63b8ff" points="1070.64,-212.12 1080.9,-214.78 1074.54,-206.31 1070.64,-212.12"/>
</g>
<!-- Node23 -->
<g id="node23" class="node">
<title>Node23</title>
<g id="a_node23"><a xlink:href="TransmitterCode_2src_2main_8cpp.html#a6f5b0f1e4ca75768c16c4dd93f92a8de" target="_top" xlink:title=" ">
<polygon fill="white" stroke="#666666" points="963.5,-143.94 911.5,-143.94 911.5,-124.94 963.5,-124.94 963.5,-143.94"/>
<text text-anchor="middle" x="937.5" y="-131.94" font-family="Helvetica,sans-Serif" font-size="10.00">MsgBox</text>
</a>
</g>
</g>
<!-- Node3&#45;&gt;Node23 -->
<g id="edge27" class="edge">
<title>Node3&#45;&gt;Node23</title>
<path fill="none" stroke="#63b8ff" d="M1070.76,-209.9C1037.87,-191.14 983.52,-160.13 955.85,-144.34"/>
<polygon fill="#63b8ff" stroke="#63b8ff" points="1068.89,-212.86 1079.31,-214.78 1072.36,-206.78 1068.89,-212.86"/>
</g>
<!-- Node4&#45;&gt;Node2 -->
<g id="edge4" class="edge">
<title>Node4&#45;&gt;Node2</title>
<path fill="none" stroke="#63b8ff" d="M1001.68,-297.68C1062.13,-294.08 1152.1,-288.72 1207.66,-285.41"/>
<polygon fill="#63b8ff" stroke="#63b8ff" points="1001.66,-294.17 991.88,-298.26 1002.08,-301.16 1001.66,-294.17"/>
</g>
<!-- Node5 -->
<g id="node5" class="node">
<title>Node5</title>
<g id="a_node5"><a xlink:href="TransmitterCode_2src_2main_8cpp.html#a9d94366336f1e5fd43edb9c24bec5821" target="_top" xlink:title=" ">
<polygon fill="white" stroke="#666666" points="819,-384.94 751,-384.94 751,-365.94 819,-365.94 819,-384.94"/>
<text text-anchor="middle" x="785" y="-372.94" font-family="Helvetica,sans-Serif" font-size="10.00">RenameFile</text>
</a>
</g>
</g>
<!-- Node4&#45;&gt;Node5 -->
<g id="edge5" class="edge">
<title>Node4&#45;&gt;Node5</title>
<path fill="none" stroke="#63b8ff" d="M914.72,-317.93C897.61,-330.24 872.78,-346.72 849,-357.44 839.67,-361.65 829.11,-365.13 819.34,-367.86"/>
<polygon fill="#63b8ff" stroke="#63b8ff" points="916.63,-320.87 922.62,-312.13 912.49,-315.23 916.63,-320.87"/>
</g>
<!-- Node6&#45;&gt;Node2 -->
<g id="edge7" class="edge">
<title>Node6&#45;&gt;Node2</title>
<path fill="none" stroke="#63b8ff" d="M992.01,-251.65C1052.16,-258.63 1149.05,-269.86 1207.66,-276.66"/>
<polygon fill="#63b8ff" stroke="#63b8ff" points="992.7,-248.21 982.36,-250.53 991.89,-255.16 992.7,-248.21"/>
</g>
<!-- Node6&#45;&gt;Node5 -->
<g id="edge21" class="edge">
<title>Node6&#45;&gt;Node5</title>
<path fill="none" stroke="#63b8ff" d="M909.65,-261.55C901.02,-267.64 891.92,-275.13 885,-283.44 861.61,-311.56 877.02,-333.93 849,-357.44 840.63,-364.46 829.68,-368.75 819.26,-371.36"/>
<polygon fill="#63b8ff" stroke="#63b8ff" points="911.4,-264.6 917.79,-256.15 907.52,-258.77 911.4,-264.6"/>
</g>
<!-- Node7 -->
<g id="node7" class="node">
<title>Node7</title>
<g id="a_node7"><a xlink:href="TransmitterCode_2src_2main_8cpp.html#ac45477c637c975e13189e2988c8813b3" target="_top" xlink:title=" ">
<polygon fill="white" stroke="#666666" points="825,-125.94 745,-125.94 745,-106.94 825,-106.94 825,-125.94"/>
<text text-anchor="middle" x="785" y="-113.94" font-family="Helvetica,sans-Serif" font-size="10.00">DeleteModelID</text>
</a>
</g>
</g>
<!-- Node6&#45;&gt;Node7 -->
<g id="edge8" class="edge">
<title>Node6&#45;&gt;Node7</title>
<path fill="none" stroke="#63b8ff" d="M926.29,-225.99C912.21,-201.06 884.5,-158.25 849,-134.44 841.91,-129.69 833.57,-126.18 825.32,-123.59"/>
<polygon fill="#63b8ff" stroke="#63b8ff" points="923.03,-227.33 930.9,-234.43 929.17,-223.97 923.03,-227.33"/>
</g>
<!-- Node8 -->
<g id="node8" class="node">
<title>Node8</title>
<g id="a_node8"><a xlink:href="TransmitterCode_2src_2main_8cpp.html#a53d438145d004c3b053f245f494f4284" target="_top" xlink:title=" ">
<polygon fill="white" stroke="#666666" points="811,-347.94 759,-347.94 759,-328.94 811,-328.94 811,-347.94"/>
<text text-anchor="middle" x="785" y="-335.94" font-family="Helvetica,sans-Serif" font-size="10.00">DelLOG</text>
</a>
</g>
</g>
<!-- Node6&#45;&gt;Node8 -->
<g id="edge9" class="edge">
<title>Node6&#45;&gt;Node8</title>
<path fill="none" stroke="#63b8ff" d="M912.87,-261.64C903.89,-268.11 893.73,-275.82 885,-283.44 867.71,-298.53 868.69,-308.67 849,-320.44 837.58,-327.27 823.43,-331.62 811.45,-334.32"/>
<polygon fill="#63b8ff" stroke="#63b8ff" points="914.65,-264.67 920.79,-256.04 910.61,-258.95 914.65,-264.67"/>
</g>
<!-- Node9 -->
<g id="node9" class="node">
<title>Node9</title>
<g id="a_node9"><a xlink:href="TransmitterCode_2src_2main_8cpp.html#a16c65917a148c7f6c17babf11e977b69" target="_top" xlink:title=" ">
<polygon fill="white" stroke="#666666" points="826,-310.94 744,-310.94 744,-291.94 826,-291.94 826,-310.94"/>
<text text-anchor="middle" x="785" y="-298.94" font-family="Helvetica,sans-Serif" font-size="10.00">EndBuddyView</text>
</a>
</g>
</g>
<!-- Node6&#45;&gt;Node9 -->
<g id="edge10" class="edge">
<title>Node6&#45;&gt;Node9</title>
<path fill="none" stroke="#63b8ff" d="M905.74,-259.98C889.14,-267.52 868.18,-276.57 849,-283.44 840.97,-286.32 832.24,-289.06 823.9,-291.49"/>
<polygon fill="#63b8ff" stroke="#63b8ff" points="906.95,-263.28 914.57,-255.92 904.02,-256.92 906.95,-263.28"/>
</g>
<!-- Node10 -->
<g id="node10" class="node">
<title>Node10</title>
<g id="a_node10"><a xlink:href="ModelMatch_8h.html#afdd42b1130d38073be1c2025af855879" target="_top" xlink:title=" ">
<polygon fill="white" stroke="#666666" points="819.5,-88.94 750.5,-88.94 750.5,-69.94 819.5,-69.94 819.5,-88.94"/>
<text text-anchor="middle" x="785" y="-76.94" font-family="Helvetica,sans-Serif" font-size="10.00">IDNotFound</text>
</a>
</g>
</g>
<!-- Node6&#45;&gt;Node10 -->
<g id="edge11" class="edge">
<title>Node6&#45;&gt;Node10</title>
<path fill="none" stroke="#63b8ff" d="M925.32,-225.66C903.05,-186.38 854.79,-101.91 849,-97.44 840.63,-90.98 830.02,-86.83 819.91,-84.18"/>
<polygon fill="#63b8ff" stroke="#63b8ff" points="922.26,-227.35 930.23,-234.33 928.35,-223.9 922.26,-227.35"/>
</g>
<!-- Node17 -->
<g id="node17" class="node">
<title>Node17</title>
<g id="a_node17"><a xlink:href="TransmitterCode_2src_2main_8cpp.html#ae9f91b9da28f2e1e2fb126961f03c31c" target="_top" xlink:title=" ">
<polygon fill="white" stroke="#666666" points="825.5,-273.94 744.5,-273.94 744.5,-254.94 825.5,-254.94 825.5,-273.94"/>
<text text-anchor="middle" x="785" y="-261.94" font-family="Helvetica,sans-Serif" font-size="10.00">ModelViewEnd</text>
</a>
</g>
</g>
<!-- Node6&#45;&gt;Node17 -->
<g id="edge19" class="edge">
<title>Node6&#45;&gt;Node17</title>
<path fill="none" stroke="#63b8ff" d="M882.8,-252.22C864.06,-254.59 843.36,-257.2 825.94,-259.4"/>
<polygon fill="#63b8ff" stroke="#63b8ff" points="883.19,-255.7 892.68,-250.97 882.32,-248.75 883.19,-255.7"/>
</g>
<!-- Node6&#45;&gt;Node18 -->
<g id="edge20" class="edge">
<title>Node6&#45;&gt;Node18</title>
<path fill="none" stroke="#63b8ff" d="M908.11,-261.62C899.7,-267.57 891.12,-274.95 885,-283.44 854.68,-325.52 886.31,-358.42 849,-394.44 844.25,-399.02 838.42,-402.45 832.25,-405.02"/>
<polygon fill="#63b8ff" stroke="#63b8ff" points="910.02,-264.56 916.47,-256.16 906.19,-258.7 910.02,-264.56"/>
</g>
<!-- Node19 -->
<g id="node19" class="node">
<title>Node19</title>
<g id="a_node19"><a xlink:href="TransmitterCode_2src_2main_8cpp.html#a5c7f22bae35d5d6df9d54fe79dbb8401" target="_top" xlink:title=" ">
<polygon fill="white" stroke="#666666" points="849,-236.94 721,-236.94 721,-217.94 849,-217.94 849,-236.94"/>
<text text-anchor="middle" x="785" y="-224.94" font-family="Helvetica,sans-Serif" font-size="10.00">ResetTransmitterSettings</text>
</a>
</g>
</g>
<!-- Node6&#45;&gt;Node19 -->
<g id="edge22" class="edge">
<title>Node6&#45;&gt;Node19</title>
<path fill="none" stroke="#63b8ff" d="M883.09,-239.05C872.17,-237.75 860.59,-236.36 849.36,-235.02"/>
<polygon fill="#63b8ff" stroke="#63b8ff" points="882.33,-242.49 892.67,-240.2 883.16,-235.54 882.33,-242.49"/>
</g>
<!-- Node20 -->
<g id="node20" class="node">
<title>Node20</title>
<g id="a_node20"><a xlink:href="TransmitterCode_2src_2main_8cpp.html#a3838aa0b33bb22d3b9934da05d2716d8" target="_top" xlink:title=" ">
<polygon fill="white" stroke="#666666" points="823,-162.94 747,-162.94 747,-143.94 823,-143.94 823,-162.94"/>
<text text-anchor="middle" x="785" y="-150.94" font-family="Helvetica,sans-Serif" font-size="10.00">StoreModelID</text>
</a>
</g>
</g>
<!-- Node6&#45;&gt;Node20 -->
<g id="edge23" class="edge">
<title>Node6&#45;&gt;Node20</title>
<path fill="none" stroke="#63b8ff" d="M919.9,-227.57C903.41,-210.82 876.65,-186.2 849,-171.44 841.07,-167.21 832.04,-163.88 823.33,-161.29"/>
<polygon fill="#63b8ff" stroke="#63b8ff" points="917.03,-229.64 926.49,-234.43 922.08,-224.79 917.03,-229.64"/>
</g>
<!-- Node21 -->
<g id="node21" class="node">
<title>Node21</title>
<g id="a_node21"><a xlink:href="TransmitterCode_2src_2main_8cpp.html#a3c55ef7c23759a89a86f6519569c4f7a" target="_top" xlink:title=" ">
<polygon fill="white" stroke="#666666" points="834.5,-199.94 735.5,-199.94 735.5,-180.94 834.5,-180.94 834.5,-199.94"/>
<text text-anchor="middle" x="785" y="-187.94" font-family="Helvetica,sans-Serif" font-size="10.00">TXModuleViewEnd</text>
</a>
</g>
</g>
<!-- Node6&#45;&gt;Node21 -->
<g id="edge24" class="edge">
<title>Node6&#45;&gt;Node21</title>
<path fill="none" stroke="#63b8ff" d="M905.03,-231.04C888.54,-223.77 867.88,-215.1 849,-208.44 840.85,-205.57 831.98,-202.81 823.55,-200.36"/>
<polygon fill="#63b8ff" stroke="#63b8ff" points="903.27,-234.09 913.83,-234.96 906.12,-227.69 903.27,-234.09"/>
</g>
<!-- Node11 -->
<g id="node11" class="node">
<title>Node11</title>
<g id="a_node11"><a xlink:href="ModelMatch_8h.html#af8fe429ceb65bf9d257a2a0f1c63eccb" target="_top" xlink:title=" ">
<polygon fill="white" stroke="#666666" points="685,-88.94 583,-88.94 583,-69.94 685,-69.94 685,-88.94"/>
<text text-anchor="middle" x="634" y="-76.94" font-family="Helvetica,sans-Serif" font-size="10.00">CompareModelsIDs</text>
</a>
</g>
</g>
<!-- Node10&#45;&gt;Node11 -->
<g id="edge12" class="edge">
<title>Node10&#45;&gt;Node11</title>
<path fill="none" stroke="#63b8ff" d="M738.93,-79.44C722.03,-79.44 702.72,-79.44 685.37,-79.44"/>
<polygon fill="#63b8ff" stroke="#63b8ff" points="738.68,-82.94 748.68,-79.44 738.68,-75.94 738.68,-82.94"/>
</g>
<!-- Node12 -->
<g id="node12" class="node">
<title>Node12</title>
<g id="a_node12"><a xlink:href="ModelMatch_8h.html#a494cb4acb30856d1f53f08df1b80c41b" target="_top" xlink:title=" ">
<polygon fill="white" stroke="#666666" points="547,-88.94 428,-88.94 428,-69.94 547,-69.94 547,-88.94"/>
<text text-anchor="middle" x="487.5" y="-76.94" font-family="Helvetica,sans-Serif" font-size="10.00">GetModelsMacAddress</text>
</a>
</g>
</g>
<!-- Node11&#45;&gt;Node12 -->
<g id="edge13" class="edge">
<title>Node11&#45;&gt;Node12</title>
<path fill="none" stroke="#63b8ff" d="M571.42,-79.44C563.48,-79.44 555.37,-79.44 547.49,-79.44"/>
<polygon fill="#63b8ff" stroke="#63b8ff" points="571.35,-82.94 581.35,-79.44 571.35,-75.94 571.35,-82.94"/>
</g>
<!-- Node13 -->
<g id="node13" class="node">
<title>Node13</title>
<g id="a_node13"><a xlink:href="TransmitterCode_2src_2main_8cpp.html#a694f4f5a0147f4dc29b0bc1a8951547d" target="_top" xlink:title=" ">
<polygon fill="white" stroke="#666666" points="392,-88.94 298,-88.94 298,-69.94 392,-69.94 392,-88.94"/>
<text text-anchor="middle" x="345" y="-76.94" font-family="Helvetica,sans-Serif" font-size="10.00">ParseAckPayload</text>
</a>
</g>
</g>
<!-- Node12&#45;&gt;Node13 -->
<g id="edge14" class="edge">
<title>Node12&#45;&gt;Node13</title>
<path fill="none" stroke="#63b8ff" d="M416.22,-79.44C408.05,-79.44 399.87,-79.44 392.14,-79.44"/>
<polygon fill="#63b8ff" stroke="#63b8ff" points="416.22,-82.94 426.22,-79.44 416.22,-75.94 416.22,-82.94"/>
</g>
<!-- Node14 -->
<g id="node14" class="node">
<title>Node14</title>
<g id="a_node14"><a xlink:href="transceiver_8h.html#a1c11bb6771548de7d96723045b922620" target="_top" xlink:title=" ">
<polygon fill="white" stroke="#666666" points="262,-88.94 166,-88.94 166,-69.94 262,-69.94 262,-88.94"/>
<text text-anchor="middle" x="214" y="-76.94" font-family="Helvetica,sans-Serif" font-size="10.00">SuccessfulPacket</text>
</a>
</g>
</g>
<!-- Node13&#45;&gt;Node14 -->
<g id="edge15" class="edge">
<title>Node13&#45;&gt;Node14</title>
<path fill="none" stroke="#63b8ff" d="M286.47,-79.44C278.35,-79.44 270.08,-79.44 262.19,-79.44"/>
<polygon fill="#63b8ff" stroke="#63b8ff" points="286.28,-82.94 296.28,-79.44 286.28,-75.94 286.28,-82.94"/>
</g>
<!-- Node15 -->
<g id="node15" class="node">
<title>Node15</title>
<g id="a_node15"><a xlink:href="transceiver_8h.html#a049bfb836e7aa4a3a48a1a4bd225fafc" target="_top" xlink:title=" ">
<polygon fill="white" stroke="#666666" points="130,-88.94 71,-88.94 71,-69.94 130,-69.94 130,-88.94"/>
<text text-anchor="middle" x="100.5" y="-76.94" font-family="Helvetica,sans-Serif" font-size="10.00">SendData</text>
</a>
</g>
</g>
<!-- Node14&#45;&gt;Node15 -->
<g id="edge16" class="edge">
<title>Node14&#45;&gt;Node15</title>
<path fill="none" stroke="#63b8ff" d="M154.39,-79.44C146.07,-79.44 137.83,-79.44 130.43,-79.44"/>
<polygon fill="#63b8ff" stroke="#63b8ff" points="154.2,-82.94 164.2,-79.44 154.2,-75.94 154.2,-82.94"/>
</g>
<!-- Node15&#45;&gt;Node2 -->
<g id="edge17" class="edge">
<title>Node15&#45;&gt;Node2</title>
<path fill="none" stroke="#63b8ff" d="M104.7,-100.65C117.92,-179.38 175.62,-450.44 344,-450.44 938.5,-450.44 938.5,-450.44 938.5,-450.44 1075.27,-450.44 1210.96,-328.06 1247.77,-292.2"/>
<polygon fill="#63b8ff" stroke="#63b8ff" points="108.17,-100.18 103.14,-90.86 101.26,-101.29 108.17,-100.18"/>
</g>
<!-- Node16 -->
<g id="node16" class="node">
<title>Node16</title>
<g id="a_node16"><a xlink:href="TransmitterCode_2src_2main_8cpp.html#ad3cb30894c94eb016e98bdcaa899ac86" target="_top" xlink:title=" ">
<polygon fill="white" stroke="#666666" points="35,-50.94 0,-50.94 0,-31.94 35,-31.94 35,-50.94"/>
<text text-anchor="middle" x="17.5" y="-38.94" font-family="Helvetica,sans-Serif" font-size="10.00">loop</text>
</a>
</g>
</g>
<!-- Node15&#45;&gt;Node16 -->
<g id="edge18" class="edge">
<title>Node15&#45;&gt;Node16</title>
<path fill="none" stroke="#63b8ff" d="M67.95,-64.64C56.82,-59.42 44.73,-53.75 35.3,-49.32"/>
<polygon fill="#63b8ff" stroke="#63b8ff" points="66.31,-67.74 76.85,-68.82 69.28,-61.4 66.31,-67.74"/>
</g>
<!-- Node22&#45;&gt;Node16 -->
<g id="edge26" class="edge">
<title>Node22&#45;&gt;Node16</title>
<path fill="none" stroke="#63b8ff" d="M921.24,-79.23C905.24,-61.57 878.39,-35.71 849,-23.44 760.88,13.33 730.49,-4.44 635,-4.44 635,-4.44 635,-4.44 213,-4.44 146.32,-4.44 69,-25.69 35.47,-35.98"/>
<polygon fill="#63b8ff" stroke="#63b8ff" points="918.35,-81.24 927.57,-86.46 923.61,-76.63 918.35,-81.24"/>
</g>
<!-- Node23&#45;&gt;Node7 -->
<g id="edge28" class="edge">
<title>Node23&#45;&gt;Node7</title>
<path fill="none" stroke="#63b8ff" d="M900.16,-130.1C877.58,-127.4 848.57,-123.93 825.44,-121.16"/>
<polygon fill="#63b8ff" stroke="#63b8ff" points="899.46,-133.54 909.81,-131.25 900.29,-126.59 899.46,-133.54"/>
</g>
<!-- Node23&#45;&gt;Node10 -->
<g id="edge29" class="edge">
<title>Node23&#45;&gt;Node10</title>
<path fill="none" stroke="#63b8ff" d="M900.56,-121.76C895.3,-119.74 889.99,-117.6 885,-115.44 868.58,-108.34 865.67,-103.93 849,-97.44 839.67,-93.81 829.31,-90.55 819.73,-87.83"/>
<polygon fill="#63b8ff" stroke="#63b8ff" points="899.12,-124.96 909.72,-125.18 901.57,-118.4 899.12,-124.96"/>
</g>
<!-- Node23&#45;&gt;Node20 -->
<g id="edge31" class="edge">
<title>Node23&#45;&gt;Node20</title>
<path fill="none" stroke="#63b8ff" d="M900.18,-139.03C876.94,-141.96 846.87,-145.76 823.42,-148.72"/>
<polygon fill="#63b8ff" stroke="#63b8ff" points="900.33,-142.54 909.81,-137.81 899.45,-135.59 900.33,-142.54"/>
</g>
<!-- Node24 -->
<g id="node24" class="node">
<title>Node24</title>
<g id="a_node24"><a xlink:href="ModelExchange_8h.html#ac36bdea2efcd030a336293af16f5dc09" target="_top" xlink:title=" ">
<polygon fill="white" stroke="#666666" points="827.5,-51.94 742.5,-51.94 742.5,-32.94 827.5,-32.94 827.5,-51.94"/>
<text text-anchor="middle" x="785" y="-39.94" font-family="Helvetica,sans-Serif" font-size="10.00">ShowRemoteID</text>
</a>
</g>
</g>
<!-- Node23&#45;&gt;Node24 -->
<g id="edge30" class="edge">
<title>Node23&#45;&gt;Node24</title>
<path fill="none" stroke="#63b8ff" d="M900.44,-124.53C894.95,-122.09 889.59,-119.1 885,-115.44 862.14,-97.25 872.52,-77.77 849,-60.44 842.77,-55.86 835.41,-52.44 827.95,-49.89"/>
<polygon fill="#63b8ff" stroke="#63b8ff" points="899,-127.73 909.59,-128.03 901.5,-121.19 899,-127.73"/>
</g>
<!-- Node25&#45;&gt;Node22 -->
<g id="edge34" class="edge">
<title>Node25&#45;&gt;Node22</title>
<path fill="none" stroke="#63b8ff" d="M1058.41,-138.79C1030.19,-129.06 992.9,-116.2 967.44,-107.42"/>
<polygon fill="#63b8ff" stroke="#63b8ff" points="1057.09,-142.04 1067.68,-141.99 1059.37,-135.42 1057.09,-142.04"/>
</g>
</g>
</svg>
