<?xml version="1.0" encoding="UTF-8" standalone="no"?>
<!DOCTYPE svg PUBLIC "-//W3C//DTD SVG 1.1//EN"
 "http://www.w3.org/Graphics/SVG/1.1/DTD/svg11.dtd">
<!-- Generated by graphviz version 7.0.5 (20221223.1930)
 -->
<!-- Title: SendCharArray Pages: 1 -->
<svg width="1195pt" height="1267pt"
 viewBox="0.00 0.00 1195.00 1267.00" xmlns="http://www.w3.org/2000/svg" xmlns:xlink="http://www.w3.org/1999/xlink">
<g id="graph0" class="graph" transform="scale(1 1) rotate(0) translate(4 1263)">
<title>SendCharArray</title>
<!-- Node1 -->
<g id="node1" class="node">
<title>Node1</title>
<g id="a_node1"><a xlink:title=" ">
<polygon fill="#999999" stroke="#666666" points="82,-217 0,-217 0,-198 82,-198 82,-217"/>
<text text-anchor="middle" x="41" y="-205" font-family="Helvetica,sans-Serif" font-size="10.00">SendCharArray</text>
</a>
</g>
</g>
<!-- Node2 -->
<g id="node2" class="node">
<title>Node2</title>
<g id="a_node2"><a xlink:href="Nextion_8h.html#aecac2f0c289f02ef3c92b85be82eacac" target="_top" xlink:title=" ">
<polygon fill="white" stroke="#666666" points="201,-217 118,-217 118,-198 201,-198 201,-217"/>
<text text-anchor="middle" x="159.5" y="-205" font-family="Helvetica,sans-Serif" font-size="10.00">SendCommand</text>
</a>
</g>
</g>
<!-- Node1&#45;&gt;Node2 -->
<g id="edge1" class="edge">
<title>Node1&#45;&gt;Node2</title>
<path fill="none" stroke="#63b8ff" d="M82.42,-207.5C90.19,-207.5 98.43,-207.5 106.51,-207.5"/>
<polygon fill="#63b8ff" stroke="#63b8ff" points="106.24,-211 116.24,-207.5 106.24,-204 106.24,-211"/>
</g>
<!-- Node3 -->
<g id="node3" class="node">
<title>Node3</title>
<g id="a_node3"><a xlink:href="Utilities_8h.html#a3b1d8aa403e2724e55c71da3d9d13e7e" target="_top" xlink:title=" ">
<polygon fill="white" stroke="#666666" points="314,-527 237,-527 237,-508 314,-508 314,-527"/>
<text text-anchor="middle" x="275.5" y="-515" font-family="Helvetica,sans-Serif" font-size="10.00">DelayWithDog</text>
</a>
</g>
</g>
<!-- Node2&#45;&gt;Node3 -->
<g id="edge2" class="edge">
<title>Node2&#45;&gt;Node3</title>
<path fill="none" stroke="#63b8ff" d="M164.16,-217.46C180.24,-261.19 244.75,-436.61 266.95,-496.97"/>
<polygon fill="#63b8ff" stroke="#63b8ff" points="263.65,-498.13 270.38,-506.31 270.22,-495.71 263.65,-498.13"/>
</g>
<!-- Node40 -->
<g id="node16" class="node">
<title>Node40</title>
<g id="a_node16"><a xlink:href="Nextion_8h.html#a43937dd3d9c795271fd9c3eb3c6b6410" target="_top" xlink:title=" ">
<polygon fill="white" stroke="#666666" points="1187,-113 1104,-113 1104,-94 1187,-94 1187,-113"/>
<text text-anchor="middle" x="1145.5" y="-101" font-family="Helvetica,sans-Serif" font-size="10.00">GetReturnCode</text>
</a>
</g>
</g>
<!-- Node2&#45;&gt;Node40 -->
<g id="edge70" class="edge">
<title>Node2&#45;&gt;Node40</title>
<path fill="none" stroke="#63b8ff" d="M164.69,-197.71C174.31,-176.37 200.02,-125.35 237,-97.5 292.12,-55.98 314.99,-47.5 384,-47.5 384,-47.5 384,-47.5 859,-47.5 947.6,-47.5 1048.83,-73.79 1103.78,-90.35"/>
<polygon fill="#63b8ff" stroke="#63b8ff" points="1102.42,-93.59 1113.01,-93.17 1104.47,-86.9 1102.42,-93.59"/>
</g>
<!-- Node115 -->
<g id="node50" class="node">
<title>Node115</title>
<g id="a_node50"><a xlink:href="TransmitterCode_2src_2main_8cpp.html#a5f109790a6fe0b972a502f3cac4ed1e7" target="_top" xlink:title=" ">
<polygon fill="white" stroke="#666666" points="299.5,-19 251.5,-19 251.5,0 299.5,0 299.5,-19"/>
<text text-anchor="middle" x="275.5" y="-7" font-family="Helvetica,sans-Serif" font-size="10.00">InStrng</text>
</a>
</g>
</g>
<!-- Node2&#45;&gt;Node115 -->
<g id="edge71" class="edge">
<title>Node2&#45;&gt;Node115</title>
<path fill="none" stroke="#63b8ff" d="M162.66,-197.76C169.33,-169.51 191.94,-86.15 237,-33.5 239.41,-30.68 242.24,-28.08 245.24,-25.7"/>
<polygon fill="#63b8ff" stroke="#63b8ff" points="247.03,-28.72 253.27,-20.16 243.05,-22.96 247.03,-28.72"/>
</g>
<!-- Node4 -->
<g id="node4" class="node">
<title>Node4</title>
<g id="a_node4"><a xlink:href="Utilities_8h.html#ada95a00a341e4a80176eda743a94ab2e" target="_top" xlink:title=" ">
<polygon fill="white" stroke="#666666" points="420,-564 350,-564 350,-545 420,-545 420,-564"/>
<text text-anchor="middle" x="385" y="-552" font-family="Helvetica,sans-Serif" font-size="10.00">KickTheDog</text>
</a>
</g>
</g>
<!-- Node3&#45;&gt;Node4 -->
<g id="edge3" class="edge">
<title>Node3&#45;&gt;Node4</title>
<path fill="none" stroke="#63b8ff" d="M305.31,-527.42C317.36,-531.56 331.56,-536.45 344.55,-540.92"/>
<polygon fill="#63b8ff" stroke="#63b8ff" points="343.09,-544.12 353.68,-544.06 345.36,-537.5 343.09,-544.12"/>
</g>
<!-- Node5 -->
<g id="node5" class="node">
<title>Node5</title>
<g id="a_node5"><a xlink:href="transceiver_8h.html#a049bfb836e7aa4a3a48a1a4bd225fafc" target="_top" xlink:title=" ">
<polygon fill="white" stroke="#666666" points="414.5,-527 355.5,-527 355.5,-508 414.5,-508 414.5,-527"/>
<text text-anchor="middle" x="385" y="-515" font-family="Helvetica,sans-Serif" font-size="10.00">SendData</text>
</a>
</g>
</g>
<!-- Node3&#45;&gt;Node5 -->
<g id="edge4" class="edge">
<title>Node3&#45;&gt;Node5</title>
<path fill="none" stroke="#63b8ff" d="M314.4,-517.5C323.94,-517.5 334.21,-517.5 343.86,-517.5"/>
<polygon fill="#63b8ff" stroke="#63b8ff" points="343.71,-521 353.71,-517.5 343.71,-514 343.71,-521"/>
</g>
<!-- Node6 -->
<g id="node6" class="node">
<title>Node6</title>
<g id="a_node6"><a xlink:href="transceiver_8h.html#a1ddd5e8d5bd649dd98ce3710fbff651b" target="_top" xlink:title=" ">
<polygon fill="white" stroke="#666666" points="558.5,-471 497.5,-471 497.5,-452 558.5,-452 558.5,-471"/>
<text text-anchor="middle" x="528" y="-459" font-family="Helvetica,sans-Serif" font-size="10.00">Compress</text>
</a>
</g>
</g>
<!-- Node5&#45;&gt;Node6 -->
<g id="edge5" class="edge">
<title>Node5&#45;&gt;Node6</title>
<path fill="none" stroke="#63b8ff" d="M402.19,-507.6C416.07,-499.44 436.81,-488.03 456,-480.5 465.58,-476.74 476.17,-473.47 486.18,-470.74"/>
<polygon fill="#63b8ff" stroke="#63b8ff" points="486.89,-474.17 495.69,-468.28 485.14,-467.4 486.89,-474.17"/>
</g>
<!-- Node7 -->
<g id="node7" class="node">
<title>Node7</title>
<g id="a_node7"><a xlink:href="transceiver_8h.html#a4144c213e5448a7e02d4172881f08219" target="_top" xlink:title=" ">
<polygon fill="white" stroke="#666666" points="600,-434 456,-434 456,-415 600,-415 600,-434"/>
<text text-anchor="middle" x="528" y="-422" font-family="Helvetica,sans-Serif" font-size="10.00">EncodeTheChangedChannels</text>
</a>
</g>
</g>
<!-- Node5&#45;&gt;Node7 -->
<g id="edge6" class="edge">
<title>Node5&#45;&gt;Node7</title>
<path fill="none" stroke="#63b8ff" d="M392.5,-507.7C403.59,-491.77 427.74,-460.34 456,-443.5 458.97,-441.73 462.11,-440.12 465.35,-438.66"/>
<polygon fill="#63b8ff" stroke="#63b8ff" points="466.52,-441.96 474.54,-435.03 463.95,-435.45 466.52,-441.96"/>
</g>
<!-- Node8 -->
<g id="node8" class="node">
<title>Node8</title>
<g id="a_node8"><a xlink:href="transceiver_8h.html#a5fbd3c8613a4163425c94965704ce5f8" target="_top" xlink:title=" ">
<polygon fill="white" stroke="#666666" points="565,-584 491,-584 491,-565 565,-565 565,-584"/>
<text text-anchor="middle" x="528" y="-572" font-family="Helvetica,sans-Serif" font-size="10.00">FailedPacket</text>
</a>
</g>
</g>
<!-- Node5&#45;&gt;Node8 -->
<g id="edge7" class="edge">
<title>Node5&#45;&gt;Node8</title>
<path fill="none" stroke="#63b8ff" d="M405.35,-527.35C419.26,-534.26 438.55,-543.47 456,-550.5 465.02,-554.14 474.83,-557.7 484.19,-560.91"/>
<polygon fill="#63b8ff" stroke="#63b8ff" points="482.88,-564.16 493.47,-564.03 485.11,-557.53 482.88,-564.16"/>
</g>
<!-- Node45 -->
<g id="node19" class="node">
<title>Node45</title>
<g id="a_node19"><a xlink:href="common_8h.html#a6e2d4126d864c50e7c23c988c2bfdd1a" target="_top" xlink:title=" ">
<polygon fill="white" stroke="#666666" points="1036.5,-791 989.5,-791 989.5,-772 1036.5,-772 1036.5,-791"/>
<text text-anchor="middle" x="1013" y="-779" font-family="Helvetica,sans-Serif" font-size="10.00">Radio1</text>
</a>
</g>
</g>
<!-- Node5&#45;&gt;Node45 -->
<g id="edge25" class="edge">
<title>Node5&#45;&gt;Node45</title>
<path fill="none" stroke="#63b8ff" d="M410.62,-527.46C414.26,-529.92 417.59,-532.9 420,-536.5 457.6,-592.66 406.47,-792.52 456,-838.5 607.78,-979.42 724.66,-903.37 922,-840.5 949.04,-831.89 975.67,-812.73 992.86,-798.57"/>
<polygon fill="#63b8ff" stroke="#63b8ff" points="994.89,-801.44 1000.23,-792.29 990.35,-796.11 994.89,-801.44"/>
</g>
<!-- Node48 -->
<g id="node21" class="node">
<title>Node48</title>
<g id="a_node21"><a xlink:href="transceiver_8h.html#a07c27b4e208198453c70876517926052" target="_top" xlink:title=" ">
<polygon fill="white" stroke="#666666" points="559,-829 497,-829 497,-810 559,-810 559,-829"/>
<text text-anchor="middle" x="528" y="-817" font-family="Helvetica,sans-Serif" font-size="10.00">FlushFifos</text>
</a>
</g>
</g>
<!-- Node5&#45;&gt;Node48 -->
<g id="edge23" class="edge">
<title>Node5&#45;&gt;Node48</title>
<path fill="none" stroke="#63b8ff" d="M410.04,-527.4C413.84,-529.88 417.37,-532.89 420,-536.5 468.02,-602.46 424.2,-641.37 456,-716.5 469.68,-748.81 494.37,-781.36 510.73,-800.98"/>
<polygon fill="#63b8ff" stroke="#63b8ff" points="507.87,-803.03 517.02,-808.37 513.2,-798.49 507.87,-803.03"/>
</g>
<!-- Node49 -->
<g id="node22" class="node">
<title>Node49</title>
<g id="a_node22"><a xlink:href="transceiver_8h.html#a188ad446d11b2db284476c093de58b2f" target="_top" xlink:title=" ">
<polygon fill="white" stroke="#666666" points="587.5,-397 468.5,-397 468.5,-378 587.5,-378 587.5,-397"/>
<text text-anchor="middle" x="528" y="-385" font-family="Helvetica,sans-Serif" font-size="10.00">SendExtraParamemters</text>
</a>
</g>
</g>
<!-- Node5&#45;&gt;Node49 -->
<g id="edge26" class="edge">
<title>Node5&#45;&gt;Node49</title>
<path fill="none" stroke="#63b8ff" d="M389.32,-507.77C397.22,-486.07 419.31,-433.52 456,-406.5 458.05,-404.99 460.2,-403.61 462.44,-402.33"/>
<polygon fill="#63b8ff" stroke="#63b8ff" points="463.82,-405.55 471.32,-398.06 460.79,-399.24 463.82,-405.55"/>
</g>
<!-- Node52 -->
<g id="node25" class="node">
<title>Node52</title>
<g id="a_node25"><a xlink:href="BuddyWireless_8h.html#a41c327908c92572d0d3eebbb19160d86" target="_top" xlink:title=" ">
<polygon fill="white" stroke="#666666" points="748,-528 646,-528 646,-509 748,-509 748,-528"/>
<text text-anchor="middle" x="697" y="-516" font-family="Helvetica,sans-Serif" font-size="10.00">SendSpecialPacket</text>
</a>
</g>
</g>
<!-- Node5&#45;&gt;Node52 -->
<g id="edge29" class="edge">
<title>Node5&#45;&gt;Node52</title>
<path fill="none" stroke="#63b8ff" d="M414.89,-517.59C464.76,-517.75 568.05,-518.09 634.58,-518.3"/>
<polygon fill="#63b8ff" stroke="#63b8ff" points="634.22,-521.8 644.23,-518.33 634.24,-514.8 634.22,-521.8"/>
</g>
<!-- Node56 -->
<g id="node29" class="node">
<title>Node56</title>
<g id="a_node29"><a xlink:href="BuddyPPM_8h.html#a784a1eca0361b3991bca899167cc1cdb" target="_top" xlink:title=" ">
<polygon fill="white" stroke="#666666" points="565.5,-508 490.5,-508 490.5,-489 565.5,-489 565.5,-508"/>
<text text-anchor="middle" x="528" y="-496" font-family="Helvetica,sans-Serif" font-size="10.00">SendViaPPM</text>
</a>
</g>
</g>
<!-- Node5&#45;&gt;Node56 -->
<g id="edge37" class="edge">
<title>Node5&#45;&gt;Node56</title>
<path fill="none" stroke="#63b8ff" d="M414.87,-513.61C433.31,-511.12 457.67,-507.84 478.97,-504.97"/>
<polygon fill="#63b8ff" stroke="#63b8ff" points="479.17,-508.48 488.61,-503.67 478.23,-501.54 479.17,-508.48"/>
</g>
<!-- Node57 -->
<g id="node30" class="node">
<title>Node57</title>
<g id="a_node30"><a xlink:href="transceiver_8h.html#a1c11bb6771548de7d96723045b922620" target="_top" xlink:title=" ">
<polygon fill="white" stroke="#666666" points="576,-707 480,-707 480,-688 576,-688 576,-707"/>
<text text-anchor="middle" x="528" y="-695" font-family="Helvetica,sans-Serif" font-size="10.00">SuccessfulPacket</text>
</a>
</g>
</g>
<!-- Node5&#45;&gt;Node57 -->
<g id="edge38" class="edge">
<title>Node5&#45;&gt;Node57</title>
<path fill="none" stroke="#63b8ff" d="M407.61,-527.44C411.99,-530.02 416.37,-533.06 420,-536.5 441.75,-557.11 439.55,-568.46 456,-593.5 475.61,-623.36 499.11,-657.47 513.55,-678.24"/>
<polygon fill="#63b8ff" stroke="#63b8ff" points="510.57,-680.09 519.16,-686.3 516.32,-676.09 510.57,-680.09"/>
</g>
<!-- Node9 -->
<g id="node9" class="node">
<title>Node9</title>
<g id="a_node9"><a xlink:href="transceiver_8h.html#afc091b5942e21a03f6dc8635d5e519ba" target="_top" xlink:title=" ">
<polygon fill="white" stroke="#666666" points="758,-565 636,-565 636,-546 758,-546 758,-565"/>
<text text-anchor="middle" x="697" y="-553" font-family="Helvetica,sans-Serif" font-size="10.00">RecordsPacketSuccess</text>
</a>
</g>
</g>
<!-- Node8&#45;&gt;Node9 -->
<g id="edge8" class="edge">
<title>Node8&#45;&gt;Node9</title>
<path fill="none" stroke="#63b8ff" d="M565.24,-570.38C582.56,-568.41 603.93,-565.98 624.33,-563.65"/>
<polygon fill="#63b8ff" stroke="#63b8ff" points="624.49,-567.16 634.03,-562.55 623.7,-560.2 624.49,-567.16"/>
</g>
<!-- Node10 -->
<g id="node10" class="node">
<title>Node10</title>
<g id="a_node10"><a xlink:href="TransmitterCode_2src_2main_8cpp.html#a7d34cec6e8edc20c8b50424e15dcc7c7" target="_top" xlink:title=" ">
<polygon fill="white" stroke="#666666" points="728.5,-321 665.5,-321 665.5,-302 728.5,-302 728.5,-321"/>
<text text-anchor="middle" x="697" y="-309" font-family="Helvetica,sans-Serif" font-size="10.00">RedLedOn</text>
</a>
</g>
</g>
<!-- Node8&#45;&gt;Node10 -->
<g id="edge9" class="edge">
<title>Node8&#45;&gt;Node10</title>
<path fill="none" stroke="#63b8ff" d="M545.17,-564.67C560.86,-554.47 584.49,-537.27 600,-517.5 646.81,-457.83 677.44,-371.64 689.81,-332.39"/>
<polygon fill="#63b8ff" stroke="#63b8ff" points="693.15,-333.42 692.73,-322.83 686.46,-331.37 693.15,-333.42"/>
</g>
<!-- Node41 -->
<g id="node17" class="node">
<title>Node41</title>
<g id="a_node17"><a xlink:href="transceiver_8h.html#ad0236abcfc887ad708d9504c4ab2a7c3" target="_top" xlink:title=" ">
<polygon fill="white" stroke="#666666" points="741,-734 653,-734 653,-715 741,-715 741,-734"/>
<text text-anchor="middle" x="697" y="-722" font-family="Helvetica,sans-Serif" font-size="10.00">TryToReconnect</text>
</a>
</g>
</g>
<!-- Node8&#45;&gt;Node41 -->
<g id="edge19" class="edge">
<title>Node8&#45;&gt;Node41</title>
<path fill="none" stroke="#63b8ff" d="M539.96,-584.34C567.8,-609.35 641.55,-675.6 676.76,-707.22"/>
<polygon fill="#63b8ff" stroke="#63b8ff" points="674.32,-709.73 684.09,-713.81 678.99,-704.52 674.32,-709.73"/>
</g>
<!-- Node10&#45;&gt;Node2 -->
<g id="edge15" class="edge">
<title>Node10&#45;&gt;Node2</title>
<path fill="none" stroke="#63b8ff" d="M665.03,-311.38C589.71,-310.25 391.8,-302.16 237,-250.5 217.98,-244.15 198.29,-232.96 183.66,-223.59"/>
<polygon fill="#63b8ff" stroke="#63b8ff" points="185.93,-220.9 175.66,-218.31 182.07,-226.74 185.93,-220.9"/>
</g>
<!-- Node11 -->
<g id="node11" class="node">
<title>Node11</title>
<g id="a_node11"><a xlink:href="TransmitterCode_2src_2main_8cpp.html#afeaea883a32e6ebe461d419fab1b9f59" target="_top" xlink:title=" ">
<polygon fill="white" stroke="#666666" points="913.5,-322 802.5,-322 802.5,-303 913.5,-303 913.5,-322"/>
<text text-anchor="middle" x="858" y="-310" font-family="Helvetica,sans-Serif" font-size="10.00">ClearMostParameters</text>
</a>
</g>
</g>
<!-- Node10&#45;&gt;Node11 -->
<g id="edge10" class="edge">
<title>Node10&#45;&gt;Node11</title>
<path fill="none" stroke="#63b8ff" d="M728.66,-311.69C746.33,-311.8 769.25,-311.95 790.83,-312.08"/>
<polygon fill="#63b8ff" stroke="#63b8ff" points="790.76,-315.58 800.78,-312.15 790.8,-308.58 790.76,-315.58"/>
</g>
<!-- Node12 -->
<g id="node12" class="node">
<title>Node12</title>
<g id="a_node12"><a xlink:href="Utilities_8h.html#a549a702bb9b539c6b3a4f20cce65adcc" target="_top" xlink:title=" ">
<polygon fill="#fff0f0" stroke="red" points="907,-396 809,-396 809,-377 907,-377 907,-396"/>
<text text-anchor="middle" x="858" y="-384" font-family="Helvetica,sans-Serif" font-size="10.00">GetLEDBrightness</text>
</a>
</g>
</g>
<!-- Node10&#45;&gt;Node12 -->
<g id="edge11" class="edge">
<title>Node10&#45;&gt;Node12</title>
<path fill="none" stroke="#63b8ff" d="M728.95,-321.43C738.61,-325.16 749.07,-329.89 758,-335.5 776.38,-347.05 775.06,-357.9 794,-368.5 796.48,-369.89 799.07,-371.17 801.73,-372.36"/>
<polygon fill="#63b8ff" stroke="#63b8ff" points="800.24,-375.54 810.83,-375.96 802.82,-369.03 800.24,-375.54"/>
</g>
<!-- Node22 -->
<g id="node13" class="node">
<title>Node22</title>
<g id="a_node13"><a xlink:href="TransmitterCode_2src_2main_8cpp.html#a2d5ec5fd5ed62d5b7b071fabe2225405" target="_top" xlink:title=" ">
<polygon fill="#fff0f0" stroke="red" points="906,-359 810,-359 810,-340 906,-340 906,-359"/>
<text text-anchor="middle" x="858" y="-347" font-family="Helvetica,sans-Serif" font-size="10.00">LogDisConnection</text>
</a>
</g>
</g>
<!-- Node10&#45;&gt;Node22 -->
<g id="edge12" class="edge">
<title>Node10&#45;&gt;Node22</title>
<path fill="none" stroke="#63b8ff" d="M728.66,-318.83C750.02,-323.93 779.07,-330.87 804.13,-336.86"/>
<polygon fill="#63b8ff" stroke="#63b8ff" points="803.3,-340.27 813.84,-339.19 804.93,-333.46 803.3,-340.27"/>
</g>
<!-- Node38 -->
<g id="node14" class="node">
<title>Node38</title>
<g id="a_node14"><a xlink:href="Utilities_8h.html#aa490b4664b0a4498d53b30b82287d5df" target="_top" xlink:title=" ">
<polygon fill="#fff0f0" stroke="red" points="1044.5,-359 981.5,-359 981.5,-340 1044.5,-340 1044.5,-359"/>
<text text-anchor="middle" x="1013" y="-347" font-family="Helvetica,sans-Serif" font-size="10.00">PlaySound</text>
</a>
</g>
</g>
<!-- Node10&#45;&gt;Node38 -->
<g id="edge13" class="edge">
<title>Node10&#45;&gt;Node38</title>
<path fill="none" stroke="#63b8ff" d="M728.73,-302.59C772.52,-291.35 854.99,-275.64 922,-294.5 948.33,-301.91 974.56,-319.39 991.86,-332.67"/>
<polygon fill="#63b8ff" stroke="#63b8ff" points="989.3,-335.11 999.31,-338.59 993.65,-329.63 989.3,-335.11"/>
</g>
<!-- Node39 -->
<g id="node15" class="node">
<title>Node39</title>
<g id="a_node15"><a xlink:href="Nextion_8h.html#afe513398f72d5e48f691830a1ef6eb42" target="_top" xlink:title=" ">
<polygon fill="white" stroke="#666666" points="1042,-170 984,-170 984,-151 1042,-151 1042,-170"/>
<text text-anchor="middle" x="1013" y="-158" font-family="Helvetica,sans-Serif" font-size="10.00">SendText</text>
</a>
</g>
</g>
<!-- Node10&#45;&gt;Node39 -->
<g id="edge16" class="edge">
<title>Node10&#45;&gt;Node39</title>
<path fill="none" stroke="#63b8ff" d="M728.91,-303.45C738.38,-300.66 748.73,-297.28 758,-293.5 844.63,-258.2 940.96,-203.05 986.05,-176.22"/>
<polygon fill="#63b8ff" stroke="#63b8ff" points="987.8,-179.26 994.58,-171.12 984.2,-173.25 987.8,-179.26"/>
</g>
<!-- Node38&#45;&gt;Node2 -->
<g id="edge14" class="edge">
<title>Node38&#45;&gt;Node2</title>
<path fill="none" stroke="#63b8ff" d="M1002.19,-339.65C986.63,-324.63 954.68,-296.2 922,-281.5 829.39,-239.85 799.54,-236.5 698,-236.5 384,-236.5 384,-236.5 384,-236.5 324.97,-236.5 257.89,-226.43 212.76,-218.16"/>
<polygon fill="#63b8ff" stroke="#63b8ff" points="213.45,-214.72 202.97,-216.32 212.16,-221.6 213.45,-214.72"/>
</g>
<!-- Node39&#45;&gt;Node2 -->
<g id="edge18" class="edge">
<title>Node39&#45;&gt;Node2</title>
<path fill="none" stroke="#63b8ff" d="M1000.13,-150.5C983.75,-137.35 952.74,-114.71 922,-104.5 827.18,-73.01 797.91,-85.5 698,-85.5 384,-85.5 384,-85.5 384,-85.5 298.01,-85.5 213.66,-155.94 178.1,-189.77"/>
<polygon fill="#63b8ff" stroke="#63b8ff" points="175.95,-186.98 171.23,-196.46 180.84,-191.99 175.95,-186.98"/>
</g>
<!-- Node39&#45;&gt;Node40 -->
<g id="edge17" class="edge">
<title>Node39&#45;&gt;Node40</title>
<path fill="none" stroke="#63b8ff" d="M1036.73,-150.57C1057.41,-141.54 1088.18,-128.1 1111.55,-117.89"/>
<polygon fill="#63b8ff" stroke="#63b8ff" points="1112.88,-121.13 1120.64,-113.92 1110.08,-114.72 1112.88,-121.13"/>
</g>
<!-- Node42 -->
<g id="node18" class="node">
<title>Node42</title>
<g id="a_node18"><a xlink:href="transceiver_8h.html#a52aa3e80bccf5e75346c93fdae63122d" target="_top" xlink:title=" ">
<polygon fill="#fff0f0" stroke="red" points="908.5,-810 807.5,-810 807.5,-791 908.5,-791 908.5,-810"/>
<text text-anchor="middle" x="858" y="-798" font-family="Helvetica,sans-Serif" font-size="10.00">HopToNextChannel</text>
</a>
</g>
</g>
<!-- Node41&#45;&gt;Node42 -->
<g id="edge20" class="edge">
<title>Node41&#45;&gt;Node42</title>
<path fill="none" stroke="#63b8ff" d="M718.79,-734.44C746.16,-747.52 794.53,-770.64 826.17,-785.77"/>
<polygon fill="#63b8ff" stroke="#63b8ff" points="824.31,-788.75 834.84,-789.91 827.33,-782.44 824.31,-788.75"/>
</g>
<!-- Node46 -->
<g id="node20" class="node">
<title>Node46</title>
<g id="a_node20"><a xlink:href="transceiver_8h.html#ad0e30213b21808d00110752679788a8c" target="_top" xlink:title=" ">
<polygon fill="#fff0f0" stroke="red" points="895,-734 821,-734 821,-715 895,-715 895,-734"/>
<text text-anchor="middle" x="858" y="-722" font-family="Helvetica,sans-Serif" font-size="10.00">TryOtherPipe</text>
</a>
</g>
</g>
<!-- Node41&#45;&gt;Node46 -->
<g id="edge22" class="edge">
<title>Node41&#45;&gt;Node46</title>
<path fill="none" stroke="#63b8ff" d="M741.45,-724.5C762.49,-724.5 787.81,-724.5 809.38,-724.5"/>
<polygon fill="#63b8ff" stroke="#63b8ff" points="809.08,-728 819.08,-724.5 809.08,-721 809.08,-728"/>
</g>
<!-- Node42&#45;&gt;Node45 -->
<g id="edge21" class="edge">
<title>Node42&#45;&gt;Node45</title>
<path fill="none" stroke="#63b8ff" d="M908.67,-794.33C931.29,-791.52 957.48,-788.27 977.83,-785.74"/>
<polygon fill="#63b8ff" stroke="#63b8ff" points="978.08,-789.24 987.57,-784.53 977.22,-782.29 978.08,-789.24"/>
</g>
<!-- Node48&#45;&gt;Node45 -->
<g id="edge24" class="edge">
<title>Node48&#45;&gt;Node45</title>
<path fill="none" stroke="#63b8ff" d="M559.48,-823.57C626.09,-831.57 789.26,-846.37 922,-819.5 943.89,-815.07 967.07,-805.14 984.42,-796.55"/>
<polygon fill="#63b8ff" stroke="#63b8ff" points="985.76,-799.79 993.07,-792.12 982.57,-793.56 985.76,-799.79"/>
</g>
<!-- Node50 -->
<g id="node23" class="node">
<title>Node50</title>
<g id="a_node23"><a xlink:href="transceiver_8h.html#adac102739147db6397bbcbb371aec4fd" target="_top" xlink:title=" ">
<polygon fill="white" stroke="#666666" points="741.5,-284 652.5,-284 652.5,-265 741.5,-265 741.5,-284"/>
<text text-anchor="middle" x="697" y="-272" font-family="Helvetica,sans-Serif" font-size="10.00">LoadParameters</text>
</a>
</g>
</g>
<!-- Node49&#45;&gt;Node50 -->
<g id="edge27" class="edge">
<title>Node49&#45;&gt;Node50</title>
<path fill="none" stroke="#63b8ff" d="M537.44,-377.78C554.32,-358.9 594.22,-317.07 636,-293.5 639.19,-291.7 642.57,-290.05 646.04,-288.53"/>
<polygon fill="#63b8ff" stroke="#63b8ff" points="647.16,-291.85 655.19,-284.95 644.61,-285.33 647.16,-291.85"/>
</g>
<!-- Node51 -->
<g id="node24" class="node">
<title>Node51</title>
<g id="a_node24"><a xlink:href="TransmitterCode_2src_2main_8cpp.html#a5aa4888b924a4f1d95e9cedc3004f2b6" target="_top" xlink:title=" ">
<polygon fill="white" stroke="#666666" points="899.5,-133 816.5,-133 816.5,-114 899.5,-114 899.5,-133"/>
<text text-anchor="middle" x="858" y="-121" font-family="Helvetica,sans-Serif" font-size="10.00">MakeTwobytes</text>
</a>
</g>
</g>
<!-- Node50&#45;&gt;Node51 -->
<g id="edge28" class="edge">
<title>Node50&#45;&gt;Node51</title>
<path fill="none" stroke="#63b8ff" d="M702.22,-264.76C713.4,-240.15 746.22,-175.04 794,-141.5 797.62,-138.96 801.58,-136.78 805.71,-134.91"/>
<polygon fill="#63b8ff" stroke="#63b8ff" points="806.73,-138.26 814.8,-131.39 804.21,-131.74 806.73,-138.26"/>
</g>
<!-- Node52&#45;&gt;Node45 -->
<g id="edge36" class="edge">
<title>Node52&#45;&gt;Node45</title>
<path fill="none" stroke="#63b8ff" d="M732.96,-528.41C741.27,-531.08 750.04,-534.17 758,-537.5 774.69,-544.48 777.27,-549.61 794,-556.5 848.99,-579.15 876.82,-556.83 922,-595.5 974.38,-640.34 998.84,-722.69 1007.78,-760.95"/>
<polygon fill="#63b8ff" stroke="#63b8ff" points="1004.25,-761.23 1009.82,-770.25 1011.09,-759.73 1004.25,-761.23"/>
</g>
<!-- Node53 -->
<g id="node26" class="node">
<title>Node53</title>
<g id="a_node26"><a xlink:href="BuddyWireless_8h.html#af59c2527be7a67d6b09dd467f3123d55" target="_top" xlink:title=" ">
<polygon fill="white" stroke="#666666" points="893.5,-547 822.5,-547 822.5,-528 893.5,-528 893.5,-547"/>
<text text-anchor="middle" x="858" y="-535" font-family="Helvetica,sans-Serif" font-size="10.00">GetPupilAck</text>
</a>
</g>
</g>
<!-- Node52&#45;&gt;Node53 -->
<g id="edge30" class="edge">
<title>Node52&#45;&gt;Node53</title>
<path fill="none" stroke="#63b8ff" d="M748.31,-524.51C768.29,-526.9 791.14,-529.63 810.71,-531.97"/>
<polygon fill="#63b8ff" stroke="#63b8ff" points="810.26,-535.44 820.6,-533.15 811.09,-528.49 810.26,-535.44"/>
</g>
<!-- Node55 -->
<g id="node28" class="node">
<title>Node55</title>
<g id="a_node28"><a xlink:href="BuddyWireless_8h.html#a89fc05df708fec875356b62d21b2ce7b" target="_top" xlink:title=" ">
<polygon fill="white" stroke="#666666" points="896.5,-170 819.5,-170 819.5,-151 896.5,-151 896.5,-170"/>
<text text-anchor="middle" x="858" y="-158" font-family="Helvetica,sans-Serif" font-size="10.00">PupilDetected</text>
</a>
</g>
</g>
<!-- Node52&#45;&gt;Node55 -->
<g id="edge33" class="edge">
<title>Node52&#45;&gt;Node55</title>
<path fill="none" stroke="#63b8ff" d="M702.09,-508.62C715.14,-477.19 757.07,-376.71 794,-294.5 812.35,-253.65 834.9,-206.34 847.44,-180.28"/>
<polygon fill="#63b8ff" stroke="#63b8ff" points="850.45,-182.09 851.64,-171.56 844.15,-179.05 850.45,-182.09"/>
</g>
<!-- Node53&#45;&gt;Node45 -->
<g id="edge32" class="edge">
<title>Node53&#45;&gt;Node45</title>
<path fill="none" stroke="#63b8ff" d="M893.95,-545.17C903.99,-548.76 914.29,-553.98 922,-561.5 979.94,-618.04 1001.93,-717.11 1009.04,-760.33"/>
<polygon fill="#63b8ff" stroke="#63b8ff" points="1005.57,-760.77 1010.54,-770.13 1012.49,-759.72 1005.57,-760.77"/>
</g>
<!-- Node54 -->
<g id="node27" class="node">
<title>Node54</title>
<g id="a_node27"><a xlink:href="transceiver_8h.html#a6feccc8c0583de3235616d42076f1371" target="_top" xlink:title=" ">
<polygon fill="white" stroke="#666666" points="1048.5,-547 977.5,-547 977.5,-528 1048.5,-528 1048.5,-547"/>
<text text-anchor="middle" x="1013" y="-535" font-family="Helvetica,sans-Serif" font-size="10.00">Decompress</text>
</a>
</g>
</g>
<!-- Node53&#45;&gt;Node54 -->
<g id="edge31" class="edge">
<title>Node53&#45;&gt;Node54</title>
<path fill="none" stroke="#63b8ff" d="M893.72,-537.5C915.06,-537.5 942.67,-537.5 965.84,-537.5"/>
<polygon fill="#63b8ff" stroke="#63b8ff" points="965.64,-541 975.64,-537.5 965.64,-534 965.64,-541"/>
</g>
<!-- Node55&#45;&gt;Node2 -->
<g id="edge34" class="edge">
<title>Node55&#45;&gt;Node2</title>
<path fill="none" stroke="#63b8ff" d="M819.16,-164.12C758.15,-169.63 634.24,-179.5 529,-179.5 384,-179.5 384,-179.5 384,-179.5 324.82,-179.5 257.51,-189.28 212.36,-197.28"/>
<polygon fill="#63b8ff" stroke="#63b8ff" points="211.8,-193.83 202.58,-199.06 213.05,-200.72 211.8,-193.83"/>
</g>
<!-- Node55&#45;&gt;Node39 -->
<g id="edge35" class="edge">
<title>Node55&#45;&gt;Node39</title>
<path fill="none" stroke="#63b8ff" d="M896.82,-160.5C919.83,-160.5 949.18,-160.5 972.5,-160.5"/>
<polygon fill="#63b8ff" stroke="#63b8ff" points="972.22,-164 982.22,-160.5 972.22,-157 972.22,-164"/>
</g>
<!-- Node57&#45;&gt;Node9 -->
<g id="edge68" class="edge">
<title>Node57&#45;&gt;Node9</title>
<path fill="none" stroke="#63b8ff" d="M535.6,-687.56C550.82,-665.33 590.58,-611.07 636,-579.5 641.31,-575.81 647.27,-572.56 653.32,-569.75"/>
<polygon fill="#63b8ff" stroke="#63b8ff" points="654.27,-573.15 662.1,-566.01 651.53,-566.71 654.27,-573.15"/>
</g>
<!-- Node57&#45;&gt;Node45 -->
<g id="edge67" class="edge">
<title>Node57&#45;&gt;Node45</title>
<path fill="none" stroke="#63b8ff" d="M547.33,-707.44C568.16,-718.24 603.51,-735.09 636,-743.5 758.88,-775.32 910.76,-780.75 977.64,-781.5"/>
<polygon fill="#63b8ff" stroke="#63b8ff" points="977.57,-785 987.6,-781.58 977.63,-778 977.57,-785"/>
</g>
<!-- Node58 -->
<g id="node31" class="node">
<title>Node58</title>
<g id="a_node31"><a xlink:href="transceiver_8h.html#a953f1d5046e183549ed95b08f6d675e3" target="_top" xlink:title=" ">
<polygon fill="white" stroke="#666666" points="746,-1165 648,-1165 648,-1146 746,-1146 746,-1165"/>
<text text-anchor="middle" x="697" y="-1153" font-family="Helvetica,sans-Serif" font-size="10.00">CheckGapsLength</text>
</a>
</g>
</g>
<!-- Node57&#45;&gt;Node58 -->
<g id="edge39" class="edge">
<title>Node57&#45;&gt;Node58</title>
<path fill="none" stroke="#63b8ff" d="M537.95,-707.24C553.42,-724.67 584.94,-763.02 600,-801.5 639.79,-903.17 601.52,-940.91 636,-1044.5 647.36,-1078.64 668.84,-1114.66 682.78,-1136.1"/>
<polygon fill="#63b8ff" stroke="#63b8ff" points="679.83,-1137.98 688.28,-1144.38 685.66,-1134.11 679.83,-1137.98"/>
</g>
<!-- Node60 -->
<g id="node33" class="node">
<title>Node60</title>
<g id="a_node33"><a xlink:href="TransmitterCode_2src_2main_8cpp.html#a62e53eb9359c32b666e3386d62c57037" target="_top" xlink:title=" ">
<polygon fill="white" stroke="#666666" points="733,-641 661,-641 661,-622 733,-622 733,-641"/>
<text text-anchor="middle" x="697" y="-629" font-family="Helvetica,sans-Serif" font-size="10.00">GreenLedOn</text>
</a>
</g>
</g>
<!-- Node57&#45;&gt;Node60 -->
<g id="edge41" class="edge">
<title>Node57&#45;&gt;Node60</title>
<path fill="none" stroke="#63b8ff" d="M554,-687.62C582.16,-676.49 628.17,-658.31 660.15,-645.67"/>
<polygon fill="#63b8ff" stroke="#63b8ff" points="661.41,-648.94 669.42,-642 658.83,-642.43 661.41,-648.94"/>
</g>
<!-- Node71 -->
<g id="node37" class="node">
<title>Node71</title>
<g id="a_node37"><a xlink:href="Utilities_8h.html#a793b7bcd77531c95fe72ed4356d421c8" target="_top" xlink:title=" ">
<polygon fill="white" stroke="#666666" points="1068,-471 958,-471 958,-452 1068,-452 1068,-471"/>
<text text-anchor="middle" x="1013" y="-459" font-family="Helvetica,sans-Serif" font-size="10.00">StartInactvityTimeout</text>
</a>
</g>
</g>
<!-- Node57&#45;&gt;Node71 -->
<g id="edge69" class="edge">
<title>Node57&#45;&gt;Node71</title>
<path fill="none" stroke="#63b8ff" d="M539.05,-687.55C557.04,-670.23 596.56,-634.41 636,-613.5 686.29,-586.84 712.69,-608.96 758,-574.5 781.25,-556.81 770.32,-536.61 794,-519.5 838.63,-487.26 899.99,-472.94 946.24,-466.58"/>
<polygon fill="#63b8ff" stroke="#63b8ff" points="946.67,-470.05 956.15,-465.32 945.79,-463.11 946.67,-470.05"/>
</g>
<!-- Node73 -->
<g id="node39" class="node">
<title>Node73</title>
<g id="a_node39"><a xlink:href="transceiver_8h.html#a694f4f5a0147f4dc29b0bc1a8951547d" target="_top" xlink:title=" ">
<polygon fill="white" stroke="#666666" points="744,-1035 650,-1035 650,-1016 744,-1016 744,-1035"/>
<text text-anchor="middle" x="697" y="-1023" font-family="Helvetica,sans-Serif" font-size="10.00">ParseAckPayload</text>
</a>
</g>
</g>
<!-- Node57&#45;&gt;Node73 -->
<g id="edge52" class="edge">
<title>Node57&#45;&gt;Node73</title>
<path fill="none" stroke="#63b8ff" d="M536.74,-707.41C550.59,-725.44 580.01,-765.09 600,-801.5 639.48,-873.43 674.24,-964.93 688.77,-1005.07"/>
<polygon fill="#63b8ff" stroke="#63b8ff" points="685.44,-1006.14 692.1,-1014.38 692.03,-1003.78 685.44,-1006.14"/>
</g>
<!-- Node222 -->
<g id="node49" class="node">
<title>Node222</title>
<g id="a_node49"><a xlink:href="transceiver_8h.html#a04937e814dba3f5e07cb34bb13130ff3" target="_top" xlink:title=" ">
<polygon fill="white" stroke="#666666" points="755.5,-810 638.5,-810 638.5,-791 755.5,-791 755.5,-810"/>
<text text-anchor="middle" x="697" y="-798" font-family="Helvetica,sans-Serif" font-size="10.00">ParseShortAckPayload</text>
</a>
</g>
</g>
<!-- Node57&#45;&gt;Node222 -->
<g id="edge65" class="edge">
<title>Node57&#45;&gt;Node222</title>
<path fill="none" stroke="#63b8ff" d="M540.21,-707.3C559,-723.37 598.48,-755.6 636,-776.5 642.37,-780.05 649.37,-783.34 656.27,-786.28"/>
<polygon fill="#63b8ff" stroke="#63b8ff" points="654.94,-789.52 665.52,-790.02 657.57,-783.03 654.94,-789.52"/>
</g>
<!-- Node59 -->
<g id="node32" class="node">
<title>Node59</title>
<g id="a_node32"><a xlink:href="TransmitterCode_2src_2main_8cpp.html#a1fadc7cdd854f8b3628b622da5417d8b" target="_top" xlink:title=" ">
<polygon fill="#fff0f0" stroke="red" points="893,-1259 823,-1259 823,-1240 893,-1240 893,-1259"/>
<text text-anchor="middle" x="858" y="-1247" font-family="Helvetica,sans-Serif" font-size="10.00">LogThisGap</text>
</a>
</g>
</g>
<!-- Node58&#45;&gt;Node59 -->
<g id="edge40" class="edge">
<title>Node58&#45;&gt;Node59</title>
<path fill="none" stroke="#63b8ff" d="M709.44,-1165.42C726.78,-1180.08 761.18,-1207.7 794,-1225.5 800.77,-1229.17 808.23,-1232.55 815.57,-1235.53"/>
<polygon fill="#63b8ff" stroke="#63b8ff" points="814.15,-1238.73 824.74,-1239.06 816.67,-1232.2 814.15,-1238.73"/>
</g>
<!-- Node60&#45;&gt;Node12 -->
<g id="edge43" class="edge">
<title>Node60&#45;&gt;Node12</title>
<path fill="none" stroke="#63b8ff" d="M712.77,-621.54C726.65,-611.38 746.91,-594.31 758,-574.5 795.52,-507.49 742,-462.01 794,-405.5 795.54,-403.83 797.22,-402.3 799,-400.91"/>
<polygon fill="#63b8ff" stroke="#63b8ff" points="800.71,-403.97 807.42,-395.78 797.06,-397.99 800.71,-403.97"/>
</g>
<!-- Node60&#45;&gt;Node38 -->
<g id="edge45" class="edge">
<title>Node60&#45;&gt;Node38</title>
<path fill="none" stroke="#63b8ff" d="M709.83,-621.72C722.53,-610.9 742.91,-592.59 758,-574.5 776.72,-552.07 772.95,-539.76 794,-519.5 841.83,-473.46 870.03,-483.81 922,-442.5 950.87,-419.55 979.72,-387.8 996.7,-367.96"/>
<polygon fill="#63b8ff" stroke="#63b8ff" points="999.28,-370.33 1003.06,-360.43 993.94,-365.82 999.28,-370.33"/>
</g>
<!-- Node61 -->
<g id="node34" class="node">
<title>Node61</title>
<g id="a_node34"><a xlink:href="Utilities_8h.html#a82b1900a80d1622896601c57d6edaeda" target="_top" xlink:title=" ">
<polygon fill="white" stroke="#666666" points="907,-697 809,-697 809,-678 907,-678 907,-697"/>
<text text-anchor="middle" x="858" y="-685" font-family="Helvetica,sans-Serif" font-size="10.00">ClearSuccessRate</text>
</a>
</g>
</g>
<!-- Node60&#45;&gt;Node61 -->
<g id="edge42" class="edge">
<title>Node60&#45;&gt;Node61</title>
<path fill="none" stroke="#63b8ff" d="M721.04,-641.36C740.34,-649.44 768.71,-660.91 794,-669.5 798.79,-671.13 803.83,-672.74 808.87,-674.28"/>
<polygon fill="#63b8ff" stroke="#63b8ff" points="807.8,-677.61 818.38,-677.11 809.79,-670.9 807.8,-677.61"/>
</g>
<!-- Node62 -->
<g id="node35" class="node">
<title>Node62</title>
<g id="a_node35"><a xlink:href="TransmitterCode_2src_2main_8cpp.html#aaa3e86084c43b049d52d7d62c58a00b9" target="_top" xlink:title=" ">
<polygon fill="#fff0f0" stroke="red" points="899,-660 817,-660 817,-641 899,-641 899,-660"/>
<text text-anchor="middle" x="858" y="-648" font-family="Helvetica,sans-Serif" font-size="10.00">LogConnection</text>
</a>
</g>
</g>
<!-- Node60&#45;&gt;Node62 -->
<g id="edge44" class="edge">
<title>Node60&#45;&gt;Node62</title>
<path fill="none" stroke="#63b8ff" d="M733.29,-635.72C754.52,-638.25 781.91,-641.53 805.52,-644.35"/>
<polygon fill="#63b8ff" stroke="#63b8ff" points="804.92,-647.8 815.27,-645.51 805.75,-640.85 804.92,-647.8"/>
</g>
<!-- Node64 -->
<g id="node36" class="node">
<title>Node64</title>
<g id="a_node36"><a xlink:href="TransmitterCode_2src_2main_8cpp.html#a5d3a46c21927cf7a3031a1e68e0b7b48" target="_top" xlink:title="SHOW COMMS.">
<polygon fill="#fff0f0" stroke="red" points="895.5,-433 820.5,-433 820.5,-414 895.5,-414 895.5,-433"/>
<text text-anchor="middle" x="858" y="-421" font-family="Helvetica,sans-Serif" font-size="10.00">ShowComms</text>
</a>
</g>
</g>
<!-- Node60&#45;&gt;Node64 -->
<g id="edge46" class="edge">
<title>Node60&#45;&gt;Node64</title>
<path fill="none" stroke="#63b8ff" d="M711.03,-621.87C724.35,-611.46 744.9,-593.74 758,-574.5 782.01,-539.23 770.3,-520.98 794,-485.5 805.43,-468.39 822.16,-452.2 835.51,-440.66"/>
<polygon fill="#63b8ff" stroke="#63b8ff" points="837.53,-443.53 842.95,-434.42 833.04,-438.16 837.53,-443.53"/>
</g>
<!-- Node72 -->
<g id="node38" class="node">
<title>Node72</title>
<g id="a_node38"><a xlink:href="TransmitterCode_2src_2main_8cpp.html#a6da9a1fd0b003151f79eabc702ba80ff" target="_top" xlink:title=" ">
<polygon fill="white" stroke="#666666" points="901.5,-623 814.5,-623 814.5,-604 901.5,-604 901.5,-623"/>
<text text-anchor="middle" x="858" y="-611" font-family="Helvetica,sans-Serif" font-size="10.00">ZeroDataScreen</text>
</a>
</g>
</g>
<!-- Node60&#45;&gt;Node72 -->
<g id="edge51" class="edge">
<title>Node60&#45;&gt;Node72</title>
<path fill="none" stroke="#63b8ff" d="M733.29,-627.51C753.71,-625.19 779.85,-622.23 802.84,-619.63"/>
<polygon fill="#63b8ff" stroke="#63b8ff" points="803.13,-623.12 812.67,-618.52 802.34,-616.17 803.13,-623.12"/>
</g>
<!-- Node64&#45;&gt;Node2 -->
<g id="edge48" class="edge">
<title>Node64&#45;&gt;Node2</title>
<path fill="none" stroke="#63b8ff" d="M821.93,-413.52C749.74,-393.32 586.5,-349.5 529,-349.5 384,-349.5 384,-349.5 384,-349.5 292.88,-349.5 208.88,-264.38 175.6,-225.95"/>
<polygon fill="#63b8ff" stroke="#63b8ff" points="178.36,-223.79 169.23,-218.42 173.02,-228.31 178.36,-223.79"/>
</g>
<!-- Node64&#45;&gt;Node38 -->
<g id="edge47" class="edge">
<title>Node64&#45;&gt;Node38</title>
<path fill="none" stroke="#63b8ff" d="M895.92,-414.81C904.64,-412.25 913.79,-409.14 922,-405.5 946.41,-394.67 972.07,-378.12 989.72,-365.82"/>
<polygon fill="#63b8ff" stroke="#63b8ff" points="991.27,-369.01 997.4,-360.36 987.22,-363.3 991.27,-369.01"/>
</g>
<!-- Node64&#45;&gt;Node39 -->
<g id="edge49" class="edge">
<title>Node64&#45;&gt;Node39</title>
<path fill="none" stroke="#63b8ff" d="M895.97,-419.04C905.37,-416.37 914.83,-412.16 922,-405.5 939.32,-389.41 988.21,-236.74 1005.69,-180.86"/>
<polygon fill="#63b8ff" stroke="#63b8ff" points="1008.92,-182.25 1008.55,-171.66 1002.24,-180.17 1008.92,-182.25"/>
</g>
<!-- Node64&#45;&gt;Node71 -->
<g id="edge50" class="edge">
<title>Node64&#45;&gt;Node71</title>
<path fill="none" stroke="#63b8ff" d="M895.65,-432.6C915.13,-437.44 939.4,-443.47 960.72,-448.76"/>
<polygon fill="#63b8ff" stroke="#63b8ff" points="959.87,-452.16 970.42,-451.17 961.56,-445.37 959.87,-452.16"/>
</g>
<!-- Node73&#45;&gt;Node42 -->
<g id="edge62" class="edge">
<title>Node73&#45;&gt;Node42</title>
<path fill="none" stroke="#63b8ff" d="M705.04,-1015.54C729.51,-980.91 811.18,-865.34 843.58,-819.49"/>
<polygon fill="#63b8ff" stroke="#63b8ff" points="846.26,-821.77 849.17,-811.58 840.54,-817.73 846.26,-821.77"/>
</g>
<!-- Node74 -->
<g id="node40" class="node">
<title>Node74</title>
<g id="a_node40"><a xlink:href="transceiver_8h.html#a75fa77e7bbb1cfe8fe6e1a216fbdc17e" target="_top" xlink:title=" ">
<polygon fill="white" stroke="#666666" points="890.5,-1183 825.5,-1183 825.5,-1164 890.5,-1164 890.5,-1183"/>
<text text-anchor="middle" x="858" y="-1171" font-family="Helvetica,sans-Serif" font-size="10.00">GetAltitude</text>
</a>
</g>
</g>
<!-- Node73&#45;&gt;Node74 -->
<g id="edge53" class="edge">
<title>Node73&#45;&gt;Node74</title>
<path fill="none" stroke="#63b8ff" d="M702.45,-1035.37C713.93,-1059.7 746.97,-1122.88 794,-1155.5 800.08,-1159.72 807.14,-1162.96 814.29,-1165.44"/>
<polygon fill="#63b8ff" stroke="#63b8ff" points="813.06,-1168.72 823.64,-1168.22 815.06,-1162.02 813.06,-1168.72"/>
</g>
<!-- Node75 -->
<g id="node41" class="node">
<title>Node75</title>
<g id="a_node41"><a xlink:href="transceiver_8h.html#ab5736b017daadeb2c1d7dc73489d31a6" target="_top" xlink:title=" ">
<polygon fill="white" stroke="#666666" points="1066.5,-1183 959.5,-1183 959.5,-1164 1066.5,-1164 1066.5,-1183"/>
<text text-anchor="middle" x="1013" y="-1171" font-family="Helvetica,sans-Serif" font-size="10.00">GetFromAckPayload</text>
</a>
</g>
</g>
<!-- Node73&#45;&gt;Node75 -->
<g id="edge56" class="edge">
<title>Node73&#45;&gt;Node75</title>
<path fill="none" stroke="#63b8ff" d="M703.2,-1035.14C722.04,-1070.04 786.11,-1187.94 794,-1192.5 852.05,-1226.09 933.71,-1204.32 978.81,-1187.56"/>
<polygon fill="#63b8ff" stroke="#63b8ff" points="979.97,-1190.87 988.04,-1184 977.45,-1184.34 979.97,-1190.87"/>
</g>
<!-- Node76 -->
<g id="node42" class="node">
<title>Node76</title>
<g id="a_node42"><a xlink:href="transceiver_8h.html#a160b9119423c34869b16a4ebdc421d35" target="_top" xlink:title=" ">
<polygon fill="white" stroke="#666666" points="921.5,-1035 794.5,-1035 794.5,-1016 921.5,-1016 921.5,-1035"/>
<text text-anchor="middle" x="858" y="-1023" font-family="Helvetica,sans-Serif" font-size="10.00">GetDateFromAckPayload</text>
</a>
</g>
</g>
<!-- Node73&#45;&gt;Node76 -->
<g id="edge55" class="edge">
<title>Node73&#45;&gt;Node76</title>
<path fill="none" stroke="#63b8ff" d="M744.42,-1025.5C756.47,-1025.5 769.76,-1025.5 782.85,-1025.5"/>
<polygon fill="#63b8ff" stroke="#63b8ff" points="782.75,-1029 792.75,-1025.5 782.75,-1022 782.75,-1029"/>
</g>
<!-- Node77 -->
<g id="node43" class="node">
<title>Node77</title>
<g id="a_node43"><a xlink:href="transceiver_8h.html#a494cb4acb30856d1f53f08df1b80c41b" target="_top" xlink:title=" ">
<polygon fill="#fff0f0" stroke="red" points="917.5,-998 798.5,-998 798.5,-979 917.5,-979 917.5,-998"/>
<text text-anchor="middle" x="858" y="-986" font-family="Helvetica,sans-Serif" font-size="10.00">GetModelsMacAddress</text>
</a>
</g>
</g>
<!-- Node73&#45;&gt;Node77 -->
<g id="edge57" class="edge">
<title>Node73&#45;&gt;Node77</title>
<path fill="none" stroke="#63b8ff" d="M740.61,-1015.58C759.86,-1011.11 782.81,-1005.76 803.23,-1001.01"/>
<polygon fill="#63b8ff" stroke="#63b8ff" points="803.85,-1004.46 812.8,-998.79 802.27,-997.64 803.85,-1004.46"/>
</g>
<!-- Node108 -->
<g id="node44" class="node">
<title>Node108</title>
<g id="a_node44"><a xlink:href="TransmitterCode_2src_2main_8cpp.html#a4f813935d8fe58355228cbbf25e12f96" target="_top" xlink:title=" ">
<polygon fill="#fff0f0" stroke="red" points="914.5,-961 801.5,-961 801.5,-942 914.5,-942 914.5,-961"/>
<text text-anchor="middle" x="858" y="-949" font-family="Helvetica,sans-Serif" font-size="10.00">GetRXVersionNumber</text>
</a>
</g>
</g>
<!-- Node73&#45;&gt;Node108 -->
<g id="edge58" class="edge">
<title>Node73&#45;&gt;Node108</title>
<path fill="none" stroke="#63b8ff" d="M712.74,-1015.63C731.13,-1003.67 763.83,-983.49 794,-970.5 798.55,-968.54 803.37,-966.7 808.23,-964.99"/>
<polygon fill="#63b8ff" stroke="#63b8ff" points="809.02,-968.42 817.42,-961.96 806.83,-961.77 809.02,-968.42"/>
</g>
<!-- Node219 -->
<g id="node45" class="node">
<title>Node219</title>
<g id="a_node45"><a xlink:href="transceiver_8h.html#a19f6fc09d690832e74fd3c679207f07f" target="_top" xlink:title=" ">
<polygon fill="white" stroke="#666666" points="901.5,-1146 814.5,-1146 814.5,-1127 901.5,-1127 901.5,-1146"/>
<text text-anchor="middle" x="858" y="-1134" font-family="Helvetica,sans-Serif" font-size="10.00">GetTemperature</text>
</a>
</g>
</g>
<!-- Node73&#45;&gt;Node219 -->
<g id="edge59" class="edge">
<title>Node73&#45;&gt;Node219</title>
<path fill="none" stroke="#63b8ff" d="M705.31,-1035.26C719.99,-1054.18 755.02,-1095.98 794,-1118.5 797.01,-1120.24 800.19,-1121.81 803.47,-1123.25"/>
<polygon fill="#63b8ff" stroke="#63b8ff" points="802.15,-1126.49 812.74,-1126.8 804.65,-1119.95 802.15,-1126.49"/>
</g>
<!-- Node220 -->
<g id="node46" class="node">
<title>Node220</title>
<g id="a_node46"><a xlink:href="transceiver_8h.html#a86523345ecdd52f3d93dccd6fcf4370a" target="_top" xlink:title=" ">
<polygon fill="white" stroke="#666666" points="922,-924 794,-924 794,-905 922,-905 922,-924"/>
<text text-anchor="middle" x="858" y="-912" font-family="Helvetica,sans-Serif" font-size="10.00">GetTimeFromAckPayload</text>
</a>
</g>
</g>
<!-- Node73&#45;&gt;Node220 -->
<g id="edge61" class="edge">
<title>Node73&#45;&gt;Node220</title>
<path fill="none" stroke="#63b8ff" d="M705.59,-1015.61C720.5,-996.85 755.53,-955.97 794,-933.5 797.01,-931.74 800.2,-930.13 803.48,-928.66"/>
<polygon fill="#63b8ff" stroke="#63b8ff" points="804.75,-931.92 812.76,-924.98 802.17,-925.42 804.75,-931.92"/>
</g>
<!-- Node121 -->
<g id="node47" class="node">
<title>Node121</title>
<g id="a_node47"><a xlink:href="Utilities_8h.html#a7a48851f0d38e4a0dd727a30d9515cf1" target="_top" xlink:title=" ">
<polygon fill="white" stroke="#666666" points="895.5,-1109 820.5,-1109 820.5,-1090 895.5,-1090 895.5,-1109"/>
<text text-anchor="middle" x="858" y="-1097" font-family="Helvetica,sans-Serif" font-size="10.00">ReadTheRTC</text>
</a>
</g>
</g>
<!-- Node73&#45;&gt;Node121 -->
<g id="edge63" class="edge">
<title>Node73&#45;&gt;Node121</title>
<path fill="none" stroke="#63b8ff" d="M712.36,-1035.43C730.63,-1047.68 763.47,-1068.48 794,-1081.5 798.91,-1083.59 804.13,-1085.52 809.39,-1087.28"/>
<polygon fill="#63b8ff" stroke="#63b8ff" points="808.12,-1090.55 818.71,-1090.19 810.2,-1083.87 808.12,-1090.55"/>
</g>
<!-- Node221 -->
<g id="node48" class="node">
<title>Node221</title>
<g id="a_node48"><a xlink:href="Utilities_8h.html#abb1ea95b6b3f033883aa87682d3240ab" target="_top" xlink:title=" ">
<polygon fill="#fff0f0" stroke="red" points="920,-1072 796,-1072 796,-1053 920,-1053 920,-1072"/>
<text text-anchor="middle" x="858" y="-1060" font-family="Helvetica,sans-Serif" font-size="10.00">SynchRTCwithGPSTime</text>
</a>
</g>
</g>
<!-- Node73&#45;&gt;Node221 -->
<g id="edge64" class="edge">
<title>Node73&#45;&gt;Node221</title>
<path fill="none" stroke="#63b8ff" d="M740.61,-1035.42C759.86,-1039.89 782.81,-1045.24 803.23,-1049.99"/>
<polygon fill="#63b8ff" stroke="#63b8ff" points="802.27,-1053.36 812.8,-1052.21 803.85,-1046.54 802.27,-1053.36"/>
</g>
<!-- Node74&#45;&gt;Node75 -->
<g id="edge54" class="edge">
<title>Node74&#45;&gt;Node75</title>
<path fill="none" stroke="#63b8ff" d="M890.7,-1173.5C907.24,-1173.5 928.09,-1173.5 947.81,-1173.5"/>
<polygon fill="#63b8ff" stroke="#63b8ff" points="947.74,-1177 957.74,-1173.5 947.74,-1170 947.74,-1177"/>
</g>
<!-- Node219&#45;&gt;Node75 -->
<g id="edge60" class="edge">
<title>Node219&#45;&gt;Node75</title>
<path fill="none" stroke="#63b8ff" d="M900,-1146.42C918.35,-1150.85 940.2,-1156.14 959.71,-1160.86"/>
<polygon fill="#63b8ff" stroke="#63b8ff" points="958.87,-1164.25 969.41,-1163.2 960.52,-1157.45 958.87,-1164.25"/>
</g>
<!-- Node222&#45;&gt;Node42 -->
<g id="edge66" class="edge">
<title>Node222&#45;&gt;Node42</title>
<path fill="none" stroke="#63b8ff" d="M755.85,-800.5C768.83,-800.5 782.65,-800.5 795.76,-800.5"/>
<polygon fill="#63b8ff" stroke="#63b8ff" points="795.55,-804 805.55,-800.5 795.55,-797 795.55,-804"/>
</g>
</g>
</svg>
