<?xml version="1.0" encoding="UTF-8" standalone="no"?>
<!DOCTYPE svg PUBLIC "-//W3C//DTD SVG 1.1//EN"
 "http://www.w3.org/Graphics/SVG/1.1/DTD/svg11.dtd">
<!-- Generated by graphviz version 9.0.0 (20230911.1827)
 -->
<!-- Title: DecMinute Pages: 1 -->
<svg width="399pt" height="64pt"
 viewBox="0.00 0.00 399.00 64.25" xmlns="http://www.w3.org/2000/svg" xmlns:xlink="http://www.w3.org/1999/xlink">
<g id="graph0" class="graph" transform="scale(1 1) rotate(0) translate(4 60.25)">
<title>DecMinute</title>
<!-- Node1 -->
<g id="Node000001" class="node">
<title>Node1</title>
<g id="a_Node000001"><a xlink:title=" ">
<polygon fill="#999999" stroke="#666666" points="62.5,-37.25 0,-37.25 0,-18 62.5,-18 62.5,-37.25"/>
<text text-anchor="middle" x="31.25" y="-23.75" font-family="Helvetica,sans-Serif" font-size="10.00">DecMinute</text>
</a>
</g>
</g>
<!-- Node2 -->
<g id="Node000002" class="node">
<title>Node2</title>
<g id="a_Node000002"><a xlink:href="Utilities_8h.html#a9de4ea8e761b5f0e537f6f326f9ad429" target="_top" xlink:title=" ">
<polygon fill="white" stroke="#666666" points="184.25,-37.25 98.5,-37.25 98.5,-18 184.25,-18 184.25,-37.25"/>
<text text-anchor="middle" x="141.38" y="-23.75" font-family="Helvetica,sans-Serif" font-size="10.00">AdjustDateTime</text>
</a>
</g>
</g>
<!-- Node1&#45;&gt;Node2 -->
<g id="edge1_Node000001_Node000002" class="edge">
<title>Node1&#45;&gt;Node2</title>
<g id="a_edge1_Node000001_Node000002"><a xlink:title=" ">
<path fill="none" stroke="#63b8ff" d="M62.95,-27.62C70.41,-27.62 78.62,-27.62 86.81,-27.62"/>
<polygon fill="#63b8ff" stroke="#63b8ff" points="86.79,-31.13 96.79,-27.63 86.79,-24.13 86.79,-31.13"/>
</a>
</g>
</g>
<!-- Node3 -->
<g id="Node000003" class="node">
<title>Node3</title>
<g id="a_Node000003"><a xlink:href="Utilities_8h.html#a7a48851f0d38e4a0dd727a30d9515cf1" target="_top" xlink:title=" ">
<polygon fill="white" stroke="#666666" points="294.75,-56.25 220.25,-56.25 220.25,-37 294.75,-37 294.75,-56.25"/>
<text text-anchor="middle" x="257.5" y="-42.75" font-family="Helvetica,sans-Serif" font-size="10.00">ReadTheRTC</text>
</a>
</g>
</g>
<!-- Node2&#45;&gt;Node3 -->
<g id="edge2_Node000002_Node000003" class="edge">
<title>Node2&#45;&gt;Node3</title>
<g id="a_edge2_Node000002_Node000003"><a xlink:title=" ">
<path fill="none" stroke="#63b8ff" d="M184.55,-34.65C192.4,-35.95 200.66,-37.33 208.67,-38.66"/>
<polygon fill="#63b8ff" stroke="#63b8ff" points="207.83,-42.07 218.27,-40.26 208.98,-35.17 207.83,-42.07"/>
</a>
</g>
</g>
<!-- Node4 -->
<g id="Node000004" class="node">
<title>Node4</title>
<g id="a_Node000004"><a xlink:href="Utilities_8h.html#aab56bfb50b2e8997275de7ea611e5bb4" target="_top" xlink:title=" ">
<polygon fill="white" stroke="#666666" points="291,-19.25 224,-19.25 224,0 291,0 291,-19.25"/>
<text text-anchor="middle" x="257.5" y="-5.75" font-family="Helvetica,sans-Serif" font-size="10.00">SetTheRTC</text>
</a>
</g>
</g>
<!-- Node2&#45;&gt;Node4 -->
<g id="edge3_Node000002_Node000004" class="edge">
<title>Node2&#45;&gt;Node4</title>
<g id="a_edge3_Node000002_Node000004"><a xlink:title=" ">
<path fill="none" stroke="#63b8ff" d="M184.55,-20.97C193.65,-19.54 203.31,-18.01 212.48,-16.57"/>
<polygon fill="#63b8ff" stroke="#63b8ff" points="212.95,-20.04 222.28,-15.02 211.86,-13.12 212.95,-20.04"/>
</a>
</g>
</g>
<!-- Node5 -->
<g id="Node000005" class="node">
<title>Node5</title>
<g id="a_Node000005"><a xlink:href="Utilities_8h.html#aa55ce3dfb919da5cebf61d1f2d2a96b7" target="_top" xlink:title=" ">
<polygon fill="white" stroke="#666666" points="391,-19.25 330.75,-19.25 330.75,0 391,0 391,-19.25"/>
<text text-anchor="middle" x="360.88" y="-5.75" font-family="Helvetica,sans-Serif" font-size="10.00">decToBcd</text>
</a>
</g>
</g>
<!-- Node4&#45;&gt;Node5 -->
<g id="edge4_Node000004_Node000005" class="edge">
<title>Node4&#45;&gt;Node5</title>
<g id="a_edge4_Node000004_Node000005"><a xlink:title=" ">
<path fill="none" stroke="#63b8ff" d="M291.41,-9.62C300.28,-9.62 309.97,-9.62 319.2,-9.62"/>
<polygon fill="#63b8ff" stroke="#63b8ff" points="319.03,-13.13 329.03,-9.63 319.03,-6.13 319.03,-13.13"/>
</a>
</g>
</g>
</g>
</svg>
