<?xml version="1.0" encoding="UTF-8" standalone="no"?>
<!DOCTYPE svg PUBLIC "-//W3C//DTD SVG 1.1//EN"
 "http://www.w3.org/Graphics/SVG/1.1/DTD/svg11.dtd">
<!-- Generated by graphviz version 7.0.5 (20221223.1930)
 -->
<!-- Title: DrawDot Pages: 1 -->
<svg width="1886pt" height="655pt"
 viewBox="0.00 0.00 1886.00 654.70" xmlns="http://www.w3.org/2000/svg" xmlns:xlink="http://www.w3.org/1999/xlink">
<g id="graph0" class="graph" transform="scale(1 1) rotate(0) translate(4 650.7)">
<title>DrawDot</title>
<!-- Node1 -->
<g id="node1" class="node">
<title>Node1</title>
<g id="a_node1"><a xlink:title=" ">
<polygon fill="#999999" stroke="#666666" points="1878,-178 1824,-178 1824,-159 1878,-159 1878,-178"/>
<text text-anchor="middle" x="1851" y="-166" font-family="Helvetica,sans-Serif" font-size="10.00">DrawDot</text>
</a>
</g>
</g>
<!-- Node2 -->
<g id="node2" class="node">
<title>Node2</title>
<g id="a_node2"><a xlink:href="TransmitterCode_2src_2main_8cpp.html#acf49567c45af927603ae83a7f46e6534" target="_top" xlink:title=" ">
<polygon fill="white" stroke="#666666" points="1788,-216 1714,-216 1714,-197 1788,-197 1788,-216"/>
<text text-anchor="middle" x="1751" y="-204" font-family="Helvetica,sans-Serif" font-size="10.00">DisplayCurve</text>
</a>
</g>
</g>
<!-- Node1&#45;&gt;Node2 -->
<g id="edge1" class="edge">
<title>Node1&#45;&gt;Node2</title>
<path fill="none" stroke="#63b8ff" d="M1813.64,-182.6C1801.65,-187.25 1788.58,-192.31 1777.58,-196.58"/>
<polygon fill="#63b8ff" stroke="#63b8ff" points="1814.78,-185.91 1822.84,-179.03 1812.25,-179.38 1814.78,-185.91"/>
</g>
<!-- Node38 -->
<g id="node38" class="node">
<title>Node38</title>
<g id="a_node38"><a xlink:href="Pong_8h.html#abead2677dc553c693bcf9bf0c54c0c81" target="_top" xlink:title=" ">
<polygon fill="white" stroke="#666666" points="1779.5,-160 1722.5,-160 1722.5,-141 1779.5,-141 1779.5,-160"/>
<text text-anchor="middle" x="1751" y="-148" font-family="Helvetica,sans-Serif" font-size="10.00">MoveBall</text>
</a>
</g>
</g>
<!-- Node1&#45;&gt;Node38 -->
<g id="edge54" class="edge">
<title>Node1&#45;&gt;Node38</title>
<path fill="none" stroke="#63b8ff" d="M1812.71,-161.65C1801.75,-159.64 1789.96,-157.47 1779.71,-155.59"/>
<polygon fill="#63b8ff" stroke="#63b8ff" points="1811.78,-165.04 1822.25,-163.4 1813.05,-158.15 1811.78,-165.04"/>
</g>
<!-- Node3 -->
<g id="node3" class="node">
<title>Node3</title>
<g id="a_node3"><a xlink:href="TransmitterCode_2src_2main_8cpp.html#a804fdbdd5eab4c596bbe8a23eecbe4d5" target="_top" xlink:title=" ">
<polygon fill="white" stroke="#666666" points="1353,-358 1252,-358 1252,-339 1353,-339 1353,-358"/>
<text text-anchor="middle" x="1302.5" y="-346" font-family="Helvetica,sans-Serif" font-size="10.00">ButtonWasPressed</text>
</a>
</g>
</g>
<!-- Node2&#45;&gt;Node3 -->
<g id="edge2" class="edge">
<title>Node2&#45;&gt;Node3</title>
<path fill="none" stroke="#63b8ff" d="M1736.33,-225.26C1723.09,-242.26 1701.6,-266.96 1678,-282.5 1577.24,-348.86 1429.49,-354.11 1353.19,-351.68"/>
<polygon fill="#63b8ff" stroke="#63b8ff" points="1738.98,-227.56 1742.21,-217.48 1733.39,-223.34 1738.98,-227.56"/>
</g>
<!-- Node28 -->
<g id="node28" class="node">
<title>Node28</title>
<g id="a_node28"><a xlink:href="TransmitterCode_2src_2main_8cpp.html#ac7a913ec35d5e97835e753fd1ee77dd7" target="_top" xlink:title=" ">
<polygon fill="white" stroke="#666666" points="1678,-150 1559,-150 1559,-131 1678,-131 1678,-150"/>
<text text-anchor="middle" x="1618.5" y="-138" font-family="Helvetica,sans-Serif" font-size="10.00">MoveCurrentPointDown</text>
</a>
</g>
</g>
<!-- Node2&#45;&gt;Node28 -->
<g id="edge39" class="edge">
<title>Node2&#45;&gt;Node28</title>
<path fill="none" stroke="#63b8ff" d="M1720.49,-191.57C1695.63,-179 1660.75,-161.36 1639.17,-150.45"/>
<polygon fill="#63b8ff" stroke="#63b8ff" points="1718.61,-194.55 1729.11,-195.94 1721.77,-188.3 1718.61,-194.55"/>
</g>
<!-- Node30 -->
<g id="node30" class="node">
<title>Node30</title>
<g id="a_node30"><a xlink:href="TransmitterCode_2src_2main_8cpp.html#adff425c4aac140ddca211d4ef4d98a7e" target="_top" xlink:title=" ">
<polygon fill="white" stroke="#666666" points="1672,-113 1565,-113 1565,-94 1672,-94 1672,-113"/>
<text text-anchor="middle" x="1618.5" y="-101" font-family="Helvetica,sans-Serif" font-size="10.00">MoveCurrentPointUp</text>
</a>
</g>
</g>
<!-- Node2&#45;&gt;Node30 -->
<g id="edge41" class="edge">
<title>Node2&#45;&gt;Node30</title>
<path fill="none" stroke="#63b8ff" d="M1731.87,-188.72C1726.01,-182.76 1719.59,-175.97 1714,-169.5 1696.8,-149.59 1699.48,-137.69 1678,-122.5 1672.86,-118.86 1666.98,-115.89 1660.97,-113.47"/>
<polygon fill="#63b8ff" stroke="#63b8ff" points="1729.28,-191.08 1738.82,-195.68 1734.23,-186.13 1729.28,-191.08"/>
</g>
<!-- Node32 -->
<g id="node32" class="node">
<title>Node32</title>
<g id="a_node32"><a xlink:href="TransmitterCode_2src_2main_8cpp.html#ac7ef59496adda1ac4c905b854056a8f7" target="_top" xlink:title=" ">
<polygon fill="white" stroke="#666666" points="1652,-462 1585,-462 1585,-443 1652,-443 1652,-462"/>
<text text-anchor="middle" x="1618.5" y="-450" font-family="Helvetica,sans-Serif" font-size="10.00">PointSelect</text>
</a>
</g>
</g>
<!-- Node2&#45;&gt;Node32 -->
<g id="edge43" class="edge">
<title>Node2&#45;&gt;Node32</title>
<path fill="none" stroke="#63b8ff" d="M1748.89,-227.66C1745.54,-270.89 1732.04,-370.21 1678,-428.5 1671.13,-435.91 1661.65,-441.09 1652.31,-444.69"/>
<polygon fill="#63b8ff" stroke="#63b8ff" points="1752.37,-228.08 1749.53,-217.88 1745.39,-227.63 1752.37,-228.08"/>
</g>
<!-- Node33 -->
<g id="node33" class="node">
<title>Node33</title>
<g id="a_node33"><a xlink:href="TransmitterCode_2src_2main_8cpp.html#ad770ee51a34d8c5026e65136884c16bf" target="_top" xlink:title=" ">
<polygon fill="white" stroke="#666666" points="1660.5,-273 1576.5,-273 1576.5,-254 1660.5,-254 1660.5,-273"/>
<text text-anchor="middle" x="1618.5" y="-261" font-family="Helvetica,sans-Serif" font-size="10.00">ShowServoPos</text>
</a>
</g>
</g>
<!-- Node2&#45;&gt;Node33 -->
<g id="edge44" class="edge">
<title>Node2&#45;&gt;Node33</title>
<path fill="none" stroke="#63b8ff" d="M1716.75,-221.02C1693.32,-231.26 1662.56,-244.69 1641.97,-253.69"/>
<polygon fill="#63b8ff" stroke="#63b8ff" points="1718.12,-224.24 1725.88,-217.03 1715.32,-217.83 1718.12,-224.24"/>
</g>
<!-- Node4 -->
<g id="node4" class="node">
<title>Node4</title>
<g id="a_node4"><a xlink:href="Utilities_8h.html#afb7c85cac4aa89fd998ed81c330374d2" target="_top" xlink:title=" ">
<polygon fill="white" stroke="#666666" points="1216,-320 1070,-320 1070,-301 1216,-301 1216,-320"/>
<text text-anchor="middle" x="1143" y="-308" font-family="Helvetica,sans-Serif" font-size="10.00">CheckForNextionButtonPress</text>
</a>
</g>
</g>
<!-- Node3&#45;&gt;Node4 -->
<g id="edge3" class="edge">
<title>Node3&#45;&gt;Node4</title>
<path fill="none" stroke="#63b8ff" d="M1248.94,-335.82C1228.25,-330.83 1204.83,-325.18 1185.38,-320.48"/>
<polygon fill="#63b8ff" stroke="#63b8ff" points="1248.11,-339.22 1258.65,-338.16 1249.75,-332.41 1248.11,-339.22"/>
</g>
<!-- Node15 -->
<g id="node15" class="node">
<title>Node15</title>
<g id="a_node15"><a xlink:href="ModelExchange_8h.html#ab7c9edf843c732d7fe296564f39bc0dc" target="_top" xlink:title="RECEIVE A MODEL FILE.">
<polygon fill="white" stroke="#666666" points="864,-616 770,-616 770,-597 864,-597 864,-616"/>
<text text-anchor="middle" x="817" y="-604" font-family="Helvetica,sans-Serif" font-size="10.00">ReceiveModelFile</text>
</a>
</g>
</g>
<!-- Node3&#45;&gt;Node15 -->
<g id="edge38" class="edge">
<title>Node3&#45;&gt;Node15</title>
<path fill="none" stroke="#63b8ff" d="M1285.28,-366.78C1269,-384.39 1242.58,-411 1216,-429.5 1084.66,-520.89 1043.5,-534.16 893,-588.5 883.93,-591.77 874.03,-594.63 864.49,-597.04"/>
<polygon fill="#63b8ff" stroke="#63b8ff" points="1287.67,-369.36 1291.8,-359.6 1282.49,-364.65 1287.67,-369.36"/>
</g>
<!-- Node5 -->
<g id="node5" class="node">
<title>Node5</title>
<g id="a_node5"><a xlink:href="TransmitterCode_2src_2main_8cpp.html#a5c0f1fd26cdd6ecde365f521060158ba" target="_top" xlink:title=" ">
<polygon fill="white" stroke="#666666" points="1030,-171 933,-171 933,-152 1030,-152 1030,-171"/>
<text text-anchor="middle" x="981.5" y="-159" font-family="Helvetica,sans-Serif" font-size="10.00">CheckModelName</text>
</a>
</g>
</g>
<!-- Node4&#45;&gt;Node5 -->
<g id="edge4" class="edge">
<title>Node4&#45;&gt;Node5</title>
<path fill="none" stroke="#63b8ff" d="M1123.41,-293.14C1089.63,-261.57 1019.2,-195.79 992.8,-171.12"/>
<polygon fill="#63b8ff" stroke="#63b8ff" points="1120.73,-295.42 1130.43,-299.69 1125.51,-290.31 1120.73,-295.42"/>
</g>
<!-- Node7 -->
<g id="node7" class="node">
<title>Node7</title>
<g id="a_node7"><a xlink:href="TransmitterCode_2src_2main_8cpp.html#a558ea014e230b7caa54ce5a37ad29b22" target="_top" xlink:title=" ">
<polygon fill="white" stroke="#666666" points="867.5,-95 766.5,-95 766.5,-76 867.5,-76 867.5,-95"/>
<text text-anchor="middle" x="817" y="-83" font-family="Helvetica,sans-Serif" font-size="10.00">ManageTransmitter</text>
</a>
</g>
</g>
<!-- Node4&#45;&gt;Node7 -->
<g id="edge22" class="edge">
<title>Node4&#45;&gt;Node7</title>
<path fill="none" stroke="#63b8ff" d="M1134.62,-290.43C1120.6,-255.18 1086.76,-182.24 1034,-143.5 1007.71,-124.2 922.9,-105.25 867.7,-94.51"/>
<polygon fill="#63b8ff" stroke="#63b8ff" points="1131.22,-291.33 1138.06,-299.42 1137.75,-288.83 1131.22,-291.33"/>
</g>
<!-- Node9 -->
<g id="node9" class="node">
<title>Node9</title>
<g id="a_node9"><a xlink:href="TransmitterCode_2src_2main_8cpp.html#a641d6dab68ec7b2a8a32492aac55bc1c" target="_top" xlink:title=" ">
<polygon fill="white" stroke="#666666" points="1034,-463 929,-463 929,-444 1034,-444 1034,-463"/>
<text text-anchor="middle" x="981.5" y="-451" font-family="Helvetica,sans-Serif" font-size="10.00">GetBackupFilename</text>
</a>
</g>
</g>
<!-- Node4&#45;&gt;Node9 -->
<g id="edge8" class="edge">
<title>Node4&#45;&gt;Node9</title>
<path fill="none" stroke="#63b8ff" d="M1129.89,-330.1C1112.07,-357.39 1076.29,-406.74 1034,-435.5 1029.38,-438.64 1024.15,-441.29 1018.85,-443.51"/>
<polygon fill="#63b8ff" stroke="#63b8ff" points="1132.77,-332.08 1135.19,-321.77 1126.87,-328.32 1132.77,-332.08"/>
</g>
<!-- Node11 -->
<g id="node11" class="node">
<title>Node11</title>
<g id="a_node11"><a xlink:href="TransmitterCode_2src_2main_8cpp.html#a6506bf72e0dd9e9ce480156b47625bff" target="_top" xlink:title=" ">
<polygon fill="white" stroke="#666666" points="1024.5,-426 938.5,-426 938.5,-407 1024.5,-407 1024.5,-426"/>
<text text-anchor="middle" x="981.5" y="-414" font-family="Helvetica,sans-Serif" font-size="10.00">GetConfirmation</text>
</a>
</g>
</g>
<!-- Node4&#45;&gt;Node11 -->
<g id="edge11" class="edge">
<title>Node4&#45;&gt;Node11</title>
<path fill="none" stroke="#63b8ff" d="M1117.45,-326.82C1083.83,-349.16 1024.51,-388.58 997.12,-406.78"/>
<polygon fill="#63b8ff" stroke="#63b8ff" points="1119.34,-329.76 1125.73,-321.31 1115.47,-323.93 1119.34,-329.76"/>
</g>
<!-- Node20 -->
<g id="node20" class="node">
<title>Node20</title>
<g id="a_node20"><a xlink:href="TransmitterCode_2src_2main_8cpp.html#a6f5b0f1e4ca75768c16c4dd93f92a8de" target="_top" xlink:title=" ">
<polygon fill="white" stroke="#666666" points="1007.5,-320 955.5,-320 955.5,-301 1007.5,-301 1007.5,-320"/>
<text text-anchor="middle" x="981.5" y="-308" font-family="Helvetica,sans-Serif" font-size="10.00">MsgBox</text>
</a>
</g>
</g>
<!-- Node4&#45;&gt;Node20 -->
<g id="edge23" class="edge">
<title>Node4&#45;&gt;Node20</title>
<path fill="none" stroke="#63b8ff" d="M1058.29,-310.5C1039.95,-310.5 1021.88,-310.5 1007.99,-310.5"/>
<polygon fill="#63b8ff" stroke="#63b8ff" points="1058.2,-314 1068.2,-310.5 1058.2,-307 1058.2,-314"/>
</g>
<!-- Node6 -->
<g id="node6" class="node">
<title>Node6</title>
<g id="a_node6"><a xlink:href="TransmitterCode_2src_2main_8cpp.html#ae267eaa80a4b3eb49ba10a97469eb7e9" target="_top" xlink:title=" ">
<polygon fill="white" stroke="#666666" points="851.5,-132 782.5,-132 782.5,-113 851.5,-113 851.5,-132"/>
<text text-anchor="middle" x="817" y="-120" font-family="Helvetica,sans-Serif" font-size="10.00">DoMFName</text>
</a>
</g>
</g>
<!-- Node5&#45;&gt;Node6 -->
<g id="edge5" class="edge">
<title>Node5&#45;&gt;Node6</title>
<path fill="none" stroke="#63b8ff" d="M927.95,-148.89C903.02,-142.9 873.94,-135.93 851.96,-130.65"/>
<polygon fill="#63b8ff" stroke="#63b8ff" points="927.06,-152.27 937.6,-151.2 928.7,-145.47 927.06,-152.27"/>
</g>
<!-- Node5&#45;&gt;Node7 -->
<g id="edge6" class="edge">
<title>Node5&#45;&gt;Node7</title>
<path fill="none" stroke="#63b8ff" d="M945.33,-146.88C939.71,-144.04 934.07,-140.89 929,-137.5 910.95,-125.44 912.1,-114.81 893,-104.5 885.2,-100.29 876.44,-96.99 867.72,-94.4"/>
<polygon fill="#63b8ff" stroke="#63b8ff" points="943.41,-149.84 953.94,-150.96 946.41,-143.52 943.41,-149.84"/>
</g>
<!-- Node8 -->
<g id="node8" class="node">
<title>Node8</title>
<g id="a_node8"><a xlink:href="TransmitterCode_2src_2main_8cpp.html#ad3cb30894c94eb016e98bdcaa899ac86" target="_top" xlink:title=" ">
<polygon fill="white" stroke="#666666" points="35,-95 0,-95 0,-76 35,-76 35,-95"/>
<text text-anchor="middle" x="17.5" y="-83" font-family="Helvetica,sans-Serif" font-size="10.00">loop</text>
</a>
</g>
</g>
<!-- Node7&#45;&gt;Node8 -->
<g id="edge7" class="edge">
<title>Node7&#45;&gt;Node8</title>
<path fill="none" stroke="#63b8ff" d="M754.69,-85.5C688.34,-85.5 579.41,-85.5 485.5,-85.5 485.5,-85.5 485.5,-85.5 213,-85.5 147.32,-85.5 69.17,-85.5 35.41,-85.5"/>
<polygon fill="#63b8ff" stroke="#63b8ff" points="754.65,-89 764.65,-85.5 754.65,-82 754.65,-89"/>
</g>
<!-- Node9&#45;&gt;Node3 -->
<g id="edge9" class="edge">
<title>Node9&#45;&gt;Node3</title>
<path fill="none" stroke="#63b8ff" d="M1045.35,-442.49C1093.15,-433.02 1160,-417.42 1216,-395.5 1241.87,-385.38 1269.68,-368.93 1286.33,-358.42"/>
<polygon fill="#63b8ff" stroke="#63b8ff" points="1044.87,-439.02 1035.72,-444.36 1046.21,-445.89 1044.87,-439.02"/>
</g>
<!-- Node10 -->
<g id="node10" class="node">
<title>Node10</title>
<g id="a_node10"><a xlink:href="TransmitterCode_2src_2main_8cpp.html#a9d94366336f1e5fd43edb9c24bec5821" target="_top" xlink:title=" ">
<polygon fill="white" stroke="#666666" points="851,-579 783,-579 783,-560 851,-560 851,-579"/>
<text text-anchor="middle" x="817" y="-567" font-family="Helvetica,sans-Serif" font-size="10.00">RenameFile</text>
</a>
</g>
</g>
<!-- Node9&#45;&gt;Node10 -->
<g id="edge10" class="edge">
<title>Node9&#45;&gt;Node10</title>
<path fill="none" stroke="#63b8ff" d="M968.57,-472.83C953.69,-495.26 926.13,-531.7 893,-551.5 880.47,-558.99 865.02,-563.36 851.4,-565.92"/>
<polygon fill="#63b8ff" stroke="#63b8ff" points="971.38,-474.93 973.84,-464.62 965.49,-471.14 971.38,-474.93"/>
</g>
<!-- Node11&#45;&gt;Node3 -->
<g id="edge12" class="edge">
<title>Node11&#45;&gt;Node3</title>
<path fill="none" stroke="#63b8ff" d="M1035.73,-405.15C1096.93,-392.11 1196.45,-370.89 1254.77,-358.46"/>
<polygon fill="#63b8ff" stroke="#63b8ff" points="1035.3,-401.67 1026.24,-407.18 1036.75,-408.51 1035.3,-401.67"/>
</g>
<!-- Node11&#45;&gt;Node10 -->
<g id="edge17" class="edge">
<title>Node11&#45;&gt;Node10</title>
<path fill="none" stroke="#63b8ff" d="M931.74,-432.88C930.79,-433.71 929.87,-434.58 929,-435.5 891.84,-474.66 932.4,-514.6 893,-551.5 881.86,-561.94 865.77,-566.65 851.34,-568.66"/>
<polygon fill="#63b8ff" stroke="#63b8ff" points="933.66,-435.81 940.01,-427.33 929.76,-430 933.66,-435.81"/>
</g>
<!-- Node12 -->
<g id="node12" class="node">
<title>Node12</title>
<g id="a_node12"><a xlink:href="TransmitterCode_2src_2main_8cpp.html#ac45477c637c975e13189e2988c8813b3" target="_top" xlink:title=" ">
<polygon fill="white" stroke="#666666" points="857,-320 777,-320 777,-301 857,-301 857,-320"/>
<text text-anchor="middle" x="817" y="-308" font-family="Helvetica,sans-Serif" font-size="10.00">DeleteModelID</text>
</a>
</g>
</g>
<!-- Node11&#45;&gt;Node12 -->
<g id="edge13" class="edge">
<title>Node11&#45;&gt;Node12</title>
<path fill="none" stroke="#63b8ff" d="M966.64,-397.67C950.97,-377.74 923.62,-346.84 893,-329.5 882.13,-323.34 869.26,-319.15 857.28,-316.31"/>
<polygon fill="#63b8ff" stroke="#63b8ff" points="963.77,-399.68 972.62,-405.5 969.33,-395.43 963.77,-399.68"/>
</g>
<!-- Node13 -->
<g id="node13" class="node">
<title>Node13</title>
<g id="a_node13"><a xlink:href="LogFiles_8h.html#a53d438145d004c3b053f245f494f4284" target="_top" xlink:title=" ">
<polygon fill="white" stroke="#666666" points="843,-542 791,-542 791,-523 843,-523 843,-542"/>
<text text-anchor="middle" x="817" y="-530" font-family="Helvetica,sans-Serif" font-size="10.00">DelLOG</text>
</a>
</g>
</g>
<!-- Node11&#45;&gt;Node13 -->
<g id="edge14" class="edge">
<title>Node11&#45;&gt;Node13</title>
<path fill="none" stroke="#63b8ff" d="M932.94,-432.24C931.56,-433.26 930.24,-434.34 929,-435.5 900.72,-461.75 922.77,-489.96 893,-514.5 879.15,-525.91 859.25,-530.31 843.43,-531.91"/>
<polygon fill="#63b8ff" stroke="#63b8ff" points="934.64,-435.3 941.44,-427.17 931.06,-429.29 934.64,-435.3"/>
</g>
<!-- Node14 -->
<g id="node14" class="node">
<title>Node14</title>
<g id="a_node14"><a xlink:href="TransmitterCode_2src_2main_8cpp.html#ae9f91b9da28f2e1e2fb126961f03c31c" target="_top" xlink:title=" ">
<polygon fill="white" stroke="#666666" points="857.5,-505 776.5,-505 776.5,-486 857.5,-486 857.5,-505"/>
<text text-anchor="middle" x="817" y="-493" font-family="Helvetica,sans-Serif" font-size="10.00">ModelViewEnd</text>
</a>
</g>
</g>
<!-- Node11&#45;&gt;Node14 -->
<g id="edge15" class="edge">
<title>Node11&#45;&gt;Node14</title>
<path fill="none" stroke="#63b8ff" d="M935.89,-431.26C933.49,-432.57 931.18,-433.98 929,-435.5 908.82,-449.54 913.97,-464.67 893,-477.5 882.49,-483.93 869.85,-488.06 857.96,-490.72"/>
<polygon fill="#63b8ff" stroke="#63b8ff" points="937.15,-434.54 944.67,-427.08 934.14,-428.22 937.15,-434.54"/>
</g>
<!-- Node11&#45;&gt;Node15 -->
<g id="edge16" class="edge">
<title>Node11&#45;&gt;Node15</title>
<path fill="none" stroke="#63b8ff" d="M931.6,-432.85C930.69,-433.69 929.82,-434.57 929,-435.5 882.72,-487.82 942.29,-538.99 893,-588.5 885.35,-596.19 875.03,-600.81 864.5,-603.54"/>
<polygon fill="#63b8ff" stroke="#63b8ff" points="933.37,-435.89 939.53,-427.27 929.34,-430.16 933.37,-435.89"/>
</g>
<!-- Node16 -->
<g id="node16" class="node">
<title>Node16</title>
<g id="a_node16"><a xlink:href="TransmitterCode_2src_2main_8cpp.html#a75875d66db3193e4034c3768c175f8ef" target="_top" xlink:title=" ">
<polygon fill="white" stroke="#666666" points="850.5,-394 783.5,-394 783.5,-375 850.5,-375 850.5,-394"/>
<text text-anchor="middle" x="817" y="-382" font-family="Helvetica,sans-Serif" font-size="10.00">ResetClock</text>
</a>
</g>
</g>
<!-- Node11&#45;&gt;Node16 -->
<g id="edge18" class="edge">
<title>Node11&#45;&gt;Node16</title>
<path fill="none" stroke="#63b8ff" d="M927,-405.96C901.85,-401.01 872.66,-395.26 850.83,-390.96"/>
<polygon fill="#63b8ff" stroke="#63b8ff" points="926.26,-409.39 936.74,-407.88 927.61,-402.52 926.26,-409.39"/>
</g>
<!-- Node17 -->
<g id="node17" class="node">
<title>Node17</title>
<g id="a_node17"><a xlink:href="TransmitterCode_2src_2main_8cpp.html#a5c7f22bae35d5d6df9d54fe79dbb8401" target="_top" xlink:title=" ">
<polygon fill="white" stroke="#666666" points="881,-468 753,-468 753,-449 881,-449 881,-468"/>
<text text-anchor="middle" x="817" y="-456" font-family="Helvetica,sans-Serif" font-size="10.00">ResetTransmitterSettings</text>
</a>
</g>
</g>
<!-- Node11&#45;&gt;Node17 -->
<g id="edge19" class="edge">
<title>Node11&#45;&gt;Node17</title>
<path fill="none" stroke="#63b8ff" d="M934.38,-429.45C921.05,-433.11 906.47,-437.04 893,-440.5 882.5,-443.2 871.13,-445.99 860.5,-448.55"/>
<polygon fill="#63b8ff" stroke="#63b8ff" points="935.07,-432.89 943.77,-426.85 933.2,-426.14 935.07,-432.89"/>
</g>
<!-- Node18 -->
<g id="node18" class="node">
<title>Node18</title>
<g id="a_node18"><a xlink:href="TransmitterCode_2src_2main_8cpp.html#a3838aa0b33bb22d3b9934da05d2716d8" target="_top" xlink:title=" ">
<polygon fill="white" stroke="#666666" points="855,-357 779,-357 779,-338 855,-338 855,-357"/>
<text text-anchor="middle" x="817" y="-345" font-family="Helvetica,sans-Serif" font-size="10.00">StoreModelID</text>
</a>
</g>
</g>
<!-- Node11&#45;&gt;Node18 -->
<g id="edge20" class="edge">
<title>Node11&#45;&gt;Node18</title>
<path fill="none" stroke="#63b8ff" d="M956.73,-400.56C939.62,-389.68 915.65,-375.64 893,-366.5 881.04,-361.67 867.51,-357.8 855.26,-354.83"/>
<polygon fill="#63b8ff" stroke="#63b8ff" points="954.39,-403.21 964.68,-405.71 958.19,-397.34 954.39,-403.21"/>
</g>
<!-- Node19 -->
<g id="node19" class="node">
<title>Node19</title>
<g id="a_node19"><a xlink:href="TransmitterCode_2src_2main_8cpp.html#a3c55ef7c23759a89a86f6519569c4f7a" target="_top" xlink:title=" ">
<polygon fill="white" stroke="#666666" points="866.5,-431 767.5,-431 767.5,-412 866.5,-412 866.5,-431"/>
<text text-anchor="middle" x="817" y="-419" font-family="Helvetica,sans-Serif" font-size="10.00">TXModuleViewEnd</text>
</a>
</g>
</g>
<!-- Node11&#45;&gt;Node19 -->
<g id="edge21" class="edge">
<title>Node11&#45;&gt;Node19</title>
<path fill="none" stroke="#63b8ff" d="M926.86,-418.15C907.55,-418.74 885.87,-419.41 866.97,-419.99"/>
<polygon fill="#63b8ff" stroke="#63b8ff" points="926.83,-421.65 936.72,-417.85 926.61,-414.66 926.83,-421.65"/>
</g>
<!-- Node20&#45;&gt;Node3 -->
<g id="edge24" class="edge">
<title>Node20&#45;&gt;Node3</title>
<path fill="none" stroke="#63b8ff" d="M1018.81,-319.51C1034.47,-323.1 1053.05,-326.98 1070,-329.5 1132.22,-338.77 1204.58,-343.8 1251.61,-346.31"/>
<polygon fill="#63b8ff" stroke="#63b8ff" points="1020,-316.19 1009.46,-317.31 1018.4,-323.01 1020,-316.19"/>
</g>
<!-- Node20&#45;&gt;Node12 -->
<g id="edge25" class="edge">
<title>Node20&#45;&gt;Node12</title>
<path fill="none" stroke="#63b8ff" d="M943.61,-310.5C917.91,-310.5 883.68,-310.5 857.44,-310.5"/>
<polygon fill="#63b8ff" stroke="#63b8ff" points="943.6,-314 953.6,-310.5 943.6,-307 943.6,-314"/>
</g>
<!-- Node20&#45;&gt;Node16 -->
<g id="edge26" class="edge">
<title>Node20&#45;&gt;Node16</title>
<path fill="none" stroke="#63b8ff" d="M958.85,-327.28C941.81,-339.74 917,-356.28 893,-366.5 879.69,-372.16 864.27,-376.25 850.88,-379.09"/>
<polygon fill="#63b8ff" stroke="#63b8ff" points="960.8,-330.19 966.71,-321.4 956.61,-324.58 960.8,-330.19"/>
</g>
<!-- Node20&#45;&gt;Node18 -->
<g id="edge28" class="edge">
<title>Node20&#45;&gt;Node18</title>
<path fill="none" stroke="#63b8ff" d="M944.03,-318.8C917.58,-324.83 881.92,-332.95 855.28,-339.01"/>
<polygon fill="#63b8ff" stroke="#63b8ff" points="944.66,-322.25 953.63,-316.62 943.11,-315.42 944.66,-322.25"/>
</g>
<!-- Node21 -->
<g id="node21" class="node">
<title>Node21</title>
<g id="a_node21"><a xlink:href="ModelExchange_8h.html#ac36bdea2efcd030a336293af16f5dc09" target="_top" xlink:title=" ">
<polygon fill="white" stroke="#666666" points="859.5,-246 774.5,-246 774.5,-227 859.5,-227 859.5,-246"/>
<text text-anchor="middle" x="817" y="-234" font-family="Helvetica,sans-Serif" font-size="10.00">ShowRemoteID</text>
</a>
</g>
</g>
<!-- Node20&#45;&gt;Node21 -->
<g id="edge27" class="edge">
<title>Node20&#45;&gt;Node21</title>
<path fill="none" stroke="#63b8ff" d="M958.47,-293.91C941.39,-281.75 916.71,-265.66 893,-255.5 882.5,-251.01 870.71,-247.4 859.64,-244.59"/>
<polygon fill="#63b8ff" stroke="#63b8ff" points="956.21,-296.6 966.36,-299.65 960.33,-290.94 956.21,-296.6"/>
</g>
<!-- Node22 -->
<g id="node22" class="node">
<title>Node22</title>
<g id="a_node22"><a xlink:href="TransmitterCode_2src_2main_8cpp.html#a7d321cdde32c31b15ca1080fda6743c8" target="_top" xlink:title=" ">
<polygon fill="white" stroke="#666666" points="893,-283 741,-283 741,-264 893,-264 893,-283"/>
<text text-anchor="middle" x="817" y="-271" font-family="Helvetica,sans-Serif" font-size="10.00">WarnUserOfVersionsMismatch</text>
</a>
</g>
</g>
<!-- Node20&#45;&gt;Node22 -->
<g id="edge29" class="edge">
<title>Node20&#45;&gt;Node22</title>
<path fill="none" stroke="#63b8ff" d="M944.19,-302.23C919.85,-296.69 887.65,-289.36 861.87,-283.49"/>
<polygon fill="#63b8ff" stroke="#63b8ff" points="943.11,-305.58 953.63,-304.38 944.66,-298.75 943.11,-305.58"/>
</g>
<!-- Node23 -->
<g id="node23" class="node">
<title>Node23</title>
<g id="a_node23"><a xlink:href="TransmitterCode_2src_2main_8cpp.html#ad496cd10d726d7c5757d01a922c2aa25" target="_top" xlink:title=" ">
<polygon fill="white" stroke="#666666" points="705,-274 577,-274 577,-255 705,-255 705,-274"/>
<text text-anchor="middle" x="641" y="-262" font-family="Helvetica,sans-Serif" font-size="10.00">CompareVersionNumbers</text>
</a>
</g>
</g>
<!-- Node22&#45;&gt;Node23 -->
<g id="edge30" class="edge">
<title>Node22&#45;&gt;Node23</title>
<path fill="none" stroke="#63b8ff" d="M729.34,-269.02C721.28,-268.6 713.22,-268.18 705.43,-267.78"/>
<polygon fill="#63b8ff" stroke="#63b8ff" points="729.01,-272.51 739.18,-269.53 729.38,-265.51 729.01,-272.51"/>
</g>
<!-- Node24 -->
<g id="node24" class="node">
<title>Node24</title>
<g id="a_node24"><a xlink:href="transceiver_8h.html#a4f813935d8fe58355228cbbf25e12f96" target="_top" xlink:title=" ">
<polygon fill="white" stroke="#666666" points="541,-264 428,-264 428,-245 541,-245 541,-264"/>
<text text-anchor="middle" x="484.5" y="-252" font-family="Helvetica,sans-Serif" font-size="10.00">GetRXVersionNumber</text>
</a>
</g>
</g>
<!-- Node23&#45;&gt;Node24 -->
<g id="edge31" class="edge">
<title>Node23&#45;&gt;Node24</title>
<path fill="none" stroke="#63b8ff" d="M565.24,-259.66C557.08,-259.13 548.89,-258.6 541.02,-258.09"/>
<polygon fill="#63b8ff" stroke="#63b8ff" points="565,-263.15 575.2,-260.31 565.45,-256.17 565,-263.15"/>
</g>
<!-- Node25 -->
<g id="node25" class="node">
<title>Node25</title>
<g id="a_node25"><a xlink:href="transceiver_8h.html#a694f4f5a0147f4dc29b0bc1a8951547d" target="_top" xlink:title=" ">
<polygon fill="white" stroke="#666666" points="392,-264 298,-264 298,-245 392,-245 392,-264"/>
<text text-anchor="middle" x="345" y="-252" font-family="Helvetica,sans-Serif" font-size="10.00">ParseAckPayload</text>
</a>
</g>
</g>
<!-- Node24&#45;&gt;Node25 -->
<g id="edge32" class="edge">
<title>Node24&#45;&gt;Node25</title>
<path fill="none" stroke="#63b8ff" d="M416.17,-254.5C408.06,-254.5 399.93,-254.5 392.22,-254.5"/>
<polygon fill="#63b8ff" stroke="#63b8ff" points="416.06,-258 426.06,-254.5 416.06,-251 416.06,-258"/>
</g>
<!-- Node26 -->
<g id="node26" class="node">
<title>Node26</title>
<g id="a_node26"><a xlink:href="transceiver_8h.html#a1c11bb6771548de7d96723045b922620" target="_top" xlink:title=" ">
<polygon fill="white" stroke="#666666" points="262,-246 166,-246 166,-227 262,-227 262,-246"/>
<text text-anchor="middle" x="214" y="-234" font-family="Helvetica,sans-Serif" font-size="10.00">SuccessfulPacket</text>
</a>
</g>
</g>
<!-- Node25&#45;&gt;Node26 -->
<g id="edge33" class="edge">
<title>Node25&#45;&gt;Node26</title>
<path fill="none" stroke="#63b8ff" d="M286.47,-246.47C278.35,-245.34 270.08,-244.19 262.19,-243.08"/>
<polygon fill="#63b8ff" stroke="#63b8ff" points="285.91,-249.93 296.29,-247.84 286.87,-242.99 285.91,-249.93"/>
</g>
<!-- Node27 -->
<g id="node27" class="node">
<title>Node27</title>
<g id="a_node27"><a xlink:href="transceiver_8h.html#a049bfb836e7aa4a3a48a1a4bd225fafc" target="_top" xlink:title=" ">
<polygon fill="white" stroke="#666666" points="130,-189 71,-189 71,-170 130,-170 130,-189"/>
<text text-anchor="middle" x="100.5" y="-177" font-family="Helvetica,sans-Serif" font-size="10.00">SendData</text>
</a>
</g>
</g>
<!-- Node26&#45;&gt;Node27 -->
<g id="edge34" class="edge">
<title>Node26&#45;&gt;Node27</title>
<path fill="none" stroke="#63b8ff" d="M183.66,-221.52C177.81,-218.54 171.71,-215.42 166,-212.5 150.88,-204.77 133.77,-196.02 120.97,-189.47"/>
<polygon fill="#63b8ff" stroke="#63b8ff" points="181.94,-224.58 192.44,-226.01 185.13,-218.34 181.94,-224.58"/>
</g>
<!-- Node27&#45;&gt;Node3 -->
<g id="edge35" class="edge">
<title>Node27&#45;&gt;Node3</title>
<path fill="none" stroke="#63b8ff" d="M141.62,-174.42C189.65,-168.8 272.56,-160.5 344,-160.5 642,-160.5 642,-160.5 642,-160.5 903.77,-160.5 980.28,-178.67 1216,-292.5 1243.48,-305.77 1272.63,-326.49 1288.8,-338.66"/>
<polygon fill="#63b8ff" stroke="#63b8ff" points="141.2,-170.95 131.69,-175.61 142.03,-177.9 141.2,-170.95"/>
</g>
<!-- Node27&#45;&gt;Node8 -->
<g id="edge36" class="edge">
<title>Node27&#45;&gt;Node8</title>
<path fill="none" stroke="#63b8ff" d="M83.64,-161.1C66.65,-141.38 40.33,-110.83 26.94,-95.29"/>
<polygon fill="#63b8ff" stroke="#63b8ff" points="80.97,-163.36 90.15,-168.65 86.27,-158.79 80.97,-163.36"/>
</g>
<!-- Node27&#45;&gt;Node20 -->
<g id="edge37" class="edge">
<title>Node27&#45;&gt;Node20</title>
<path fill="none" stroke="#63b8ff" d="M141.62,-184.58C189.65,-190.2 272.56,-198.5 344,-198.5 642,-198.5 642,-198.5 642,-198.5 753.91,-198.5 791.99,-170.33 893,-218.5 932,-237.1 962.57,-281.15 974.76,-300.77"/>
<polygon fill="#63b8ff" stroke="#63b8ff" points="142.03,-181.1 131.69,-183.39 141.2,-188.05 142.03,-181.1"/>
</g>
<!-- Node29 -->
<g id="node29" class="node">
<title>Node29</title>
<g id="a_node29"><a xlink:href="TransmitterCode_2src_2main_8cpp.html#af954e15b63371f52276ced00c0458368" target="_top" xlink:title=" ">
<polygon fill="white" stroke="#666666" points="1488,-94 1424,-94 1424,-75 1488,-75 1488,-94"/>
<text text-anchor="middle" x="1456" y="-82" font-family="Helvetica,sans-Serif" font-size="10.00">PointDown</text>
</a>
</g>
</g>
<!-- Node28&#45;&gt;Node29 -->
<g id="edge40" class="edge">
<title>Node28&#45;&gt;Node29</title>
<path fill="none" stroke="#63b8ff" d="M1572.81,-127.12C1568.13,-125.61 1563.46,-124.05 1559,-122.5 1542.79,-116.86 1539.07,-114.54 1523,-108.5 1510.45,-103.78 1496.5,-98.68 1484.67,-94.41"/>
<polygon fill="#63b8ff" stroke="#63b8ff" points="1571.61,-130.41 1582.2,-130.08 1573.72,-123.73 1571.61,-130.41"/>
</g>
<!-- Node31 -->
<g id="node31" class="node">
<title>Node31</title>
<g id="a_node31"><a xlink:href="TransmitterCode_2src_2main_8cpp.html#a40c056b9758bef5cf5c986926ccf2313" target="_top" xlink:title=" ">
<polygon fill="white" stroke="#666666" points="1482,-57 1430,-57 1430,-38 1482,-38 1482,-57"/>
<text text-anchor="middle" x="1456" y="-45" font-family="Helvetica,sans-Serif" font-size="10.00">PointUp</text>
</a>
</g>
</g>
<!-- Node30&#45;&gt;Node31 -->
<g id="edge42" class="edge">
<title>Node30&#45;&gt;Node31</title>
<path fill="none" stroke="#63b8ff" d="M1584.35,-89.07C1566.38,-81.53 1543.68,-72.45 1523,-65.5 1509.72,-61.03 1494.66,-56.86 1482.28,-53.66"/>
<polygon fill="#63b8ff" stroke="#63b8ff" points="1582.9,-92.26 1593.47,-92.94 1585.63,-85.81 1582.9,-92.26"/>
</g>
<!-- Node33&#45;&gt;Node3 -->
<g id="edge45" class="edge">
<title>Node33&#45;&gt;Node3</title>
<path fill="none" stroke="#63b8ff" d="M1564.6,-267.63C1517.5,-272.45 1447.24,-282.47 1389,-302.5 1362.7,-311.55 1334.78,-328.04 1318.26,-338.62"/>
<polygon fill="#63b8ff" stroke="#63b8ff" points="1564.94,-271.11 1574.55,-266.66 1564.26,-264.15 1564.94,-271.11"/>
</g>
<!-- Node33&#45;&gt;Node8 -->
<g id="edge53" class="edge">
<title>Node33&#45;&gt;Node8</title>
<path fill="none" stroke="#63b8ff" d="M1597.42,-246.63C1534.78,-195.79 1335.65,-47.5 1144,-47.5 1144,-47.5 1144,-47.5 213,-47.5 146.25,-47.5 68.97,-69.32 35.45,-79.89"/>
<polygon fill="#63b8ff" stroke="#63b8ff" points="1594.85,-249.05 1604.8,-252.7 1599.3,-243.64 1594.85,-249.05"/>
</g>
<!-- Node34 -->
<g id="node34" class="node">
<title>Node34</title>
<g id="a_node34"><a xlink:href="TransmitterCode_2src_2main_8cpp.html#aa61377ec59e711151913086167f2f48f" target="_top" xlink:title=" ">
<polygon fill="white" stroke="#666666" points="1523,-254 1389,-254 1389,-235 1523,-235 1523,-254"/>
<text text-anchor="middle" x="1456" y="-242" font-family="Helvetica,sans-Serif" font-size="10.00">DisplayCurveAndServoPos</text>
</a>
</g>
</g>
<!-- Node33&#45;&gt;Node34 -->
<g id="edge46" class="edge">
<title>Node33&#45;&gt;Node34</title>
<path fill="none" stroke="#63b8ff" d="M1564.87,-257.27C1551.62,-255.7 1537.23,-254 1523.41,-252.36"/>
<polygon fill="#63b8ff" stroke="#63b8ff" points="1564.32,-260.73 1574.66,-258.43 1565.15,-253.78 1564.32,-260.73"/>
</g>
<!-- Node36 -->
<g id="node36" class="node">
<title>Node36</title>
<g id="a_node36"><a xlink:href="TransmitterCode_2src_2main_8cpp.html#ad2c7ed441d88f2a2b2fca83ff61e714d" target="_top" xlink:title=" ">
<polygon fill="white" stroke="#666666" points="701,-311 581,-311 581,-292 701,-292 701,-311"/>
<text text-anchor="middle" x="641" y="-299" font-family="Helvetica,sans-Serif" font-size="10.00">DoWirelessBuddyListen</text>
</a>
</g>
</g>
<!-- Node33&#45;&gt;Node36 -->
<g id="edge50" class="edge">
<title>Node33&#45;&gt;Node36</title>
<path fill="none" stroke="#63b8ff" d="M1598.72,-280.78C1580.33,-297.17 1551.04,-321.84 1523,-339.5 1262.79,-503.35 1194.85,-566.8 893,-625.5 826.69,-638.4 795.3,-665.69 741,-625.5 687.22,-585.7 650.84,-360.76 643.41,-311.17"/>
<polygon fill="#63b8ff" stroke="#63b8ff" points="1600.86,-283.57 1605.94,-274.27 1596.17,-278.37 1600.86,-283.57"/>
</g>
<!-- Node37 -->
<g id="node37" class="node">
<title>Node37</title>
<g id="a_node37"><a xlink:href="TransmitterCode_2src_2main_8cpp.html#acaf005c908c2b6706d7ab9579f456ca8" target="_top" xlink:title=" ">
<polygon fill="white" stroke="#666666" points="1495,-330 1417,-330 1417,-311 1495,-311 1495,-330"/>
<text text-anchor="middle" x="1456" y="-318" font-family="Helvetica,sans-Serif" font-size="10.00">DualRatesEnd</text>
</a>
</g>
</g>
<!-- Node33&#45;&gt;Node37 -->
<g id="edge52" class="edge">
<title>Node33&#45;&gt;Node37</title>
<path fill="none" stroke="#63b8ff" d="M1578.97,-277.18C1549.98,-287.48 1510.93,-301.35 1484.91,-310.59"/>
<polygon fill="#63b8ff" stroke="#63b8ff" points="1579.86,-280.58 1588.12,-273.94 1577.52,-273.98 1579.86,-280.58"/>
</g>
<!-- Node34&#45;&gt;Node3 -->
<g id="edge47" class="edge">
<title>Node34&#45;&gt;Node3</title>
<path fill="none" stroke="#63b8ff" d="M1408.81,-258.57C1401.96,-261.43 1395.14,-264.73 1389,-268.5 1356.6,-288.38 1325.91,-321.91 1311.72,-338.53"/>
<polygon fill="#63b8ff" stroke="#63b8ff" points="1410.04,-261.85 1418.12,-254.99 1407.53,-255.31 1410.04,-261.85"/>
</g>
<!-- Node35 -->
<g id="node35" class="node">
<title>Node35</title>
<g id="a_node35"><a xlink:href="TransmitterCode_2src_2main_8cpp.html#aa98d7fb495cbdc40cb17343ffafbfe15" target="_top" xlink:title=" ">
<polygon fill="white" stroke="#666666" points="1330,-174 1275,-174 1275,-155 1330,-155 1330,-174"/>
<text text-anchor="middle" x="1302.5" y="-162" font-family="Helvetica,sans-Serif" font-size="10.00">GetBank</text>
</a>
</g>
</g>
<!-- Node34&#45;&gt;Node35 -->
<g id="edge48" class="edge">
<title>Node34&#45;&gt;Node35</title>
<path fill="none" stroke="#63b8ff" d="M1426.06,-229.22C1395.47,-213.06 1348.12,-188.06 1322.14,-174.34"/>
<polygon fill="#63b8ff" stroke="#63b8ff" points="1424.3,-232.25 1434.78,-233.82 1427.57,-226.06 1424.3,-232.25"/>
</g>
<!-- Node35&#45;&gt;Node7 -->
<g id="edge49" class="edge">
<title>Node35&#45;&gt;Node7</title>
<path fill="none" stroke="#63b8ff" d="M1263.86,-154.39C1212.36,-140.95 1116.86,-117.38 1034,-104.5 977.46,-95.71 911.91,-90.66 867.99,-88.01"/>
<polygon fill="#63b8ff" stroke="#63b8ff" points="1262.74,-157.72 1273.3,-156.88 1264.52,-150.95 1262.74,-157.72"/>
</g>
<!-- Node36&#45;&gt;Node8 -->
<g id="edge51" class="edge">
<title>Node36&#45;&gt;Node8</title>
<path fill="none" stroke="#63b8ff" d="M569.46,-298.13C509.91,-295.57 422.4,-292.5 346,-292.5 346,-292.5 346,-292.5 213,-292.5 137.31,-292.5 120.36,-255.87 71,-198.5 43.07,-166.03 26.94,-116.19 21.06,-95.27"/>
<polygon fill="#63b8ff" stroke="#63b8ff" points="568.95,-301.61 579.1,-298.55 569.26,-294.62 568.95,-301.61"/>
</g>
<!-- Node39 -->
<g id="node39" class="node">
<title>Node39</title>
<g id="a_node39"><a xlink:href="Pong_8h.html#a66133191d50f6b4d010d56e6b53a853b" target="_top" xlink:title=" ">
<polygon fill="white" stroke="#666666" points="1172,-19 1114,-19 1114,0 1172,0 1172,-19"/>
<text text-anchor="middle" x="1143" y="-7" font-family="Helvetica,sans-Serif" font-size="10.00">PlayPong</text>
</a>
</g>
</g>
<!-- Node38&#45;&gt;Node39 -->
<g id="edge55" class="edge">
<title>Node38&#45;&gt;Node39</title>
<path fill="none" stroke="#63b8ff" d="M1734.05,-132.74C1720.36,-118.38 1699.49,-98.48 1678,-85.5 1615.17,-47.55 1594.92,-43.17 1523,-28.5 1394.22,-2.23 1235.99,-5.36 1172.42,-8.03"/>
<polygon fill="#63b8ff" stroke="#63b8ff" points="1731.19,-134.8 1740.56,-139.75 1736.32,-130.04 1731.19,-134.8"/>
</g>
<!-- Node39&#45;&gt;Node8 -->
<g id="edge56" class="edge">
<title>Node39&#45;&gt;Node8</title>
<path fill="none" stroke="#63b8ff" d="M1102.44,-9.5C1041.4,-9.5 920.57,-9.5 818,-9.5 818,-9.5 818,-9.5 213,-9.5 148.99,-9.5 127.95,-4.28 71,-33.5 51.37,-43.57 34.42,-63.58 25.41,-75.63"/>
<polygon fill="#63b8ff" stroke="#63b8ff" points="1102.32,-13 1112.32,-9.5 1102.32,-6 1102.32,-13"/>
</g>
</g>
</svg>
