<?xml version="1.0" encoding="UTF-8" standalone="no"?>
<!DOCTYPE svg PUBLIC "-//W3C//DTD SVG 1.1//EN"
 "http://www.w3.org/Graphics/SVG/1.1/DTD/svg11.dtd">
<!-- Generated by graphviz version 9.0.0 (20230911.1827)
 -->
<!-- Title: SetAudioVolume Pages: 1 -->
<svg width="955pt" height="970pt"
 viewBox="0.00 0.00 954.75 969.62" xmlns="http://www.w3.org/2000/svg" xmlns:xlink="http://www.w3.org/1999/xlink">
<g id="graph0" class="graph" transform="scale(1 1) rotate(0) translate(4 965.62)">
<title>SetAudioVolume</title>
<!-- Node1 -->
<g id="Node000001" class="node">
<title>Node1</title>
<g id="a_Node000001"><a xlink:title=" ">
<polygon fill="#999999" stroke="#666666" points="88.75,-552.62 0,-552.62 0,-533.38 88.75,-533.38 88.75,-552.62"/>
<text text-anchor="middle" x="44.38" y="-539.12" font-family="Helvetica,sans-Serif" font-size="10.00">SetAudioVolume</text>
</a>
</g>
</g>
<!-- Node2 -->
<g id="Node000002" class="node">
<title>Node2</title>
<g id="a_Node000002"><a xlink:href="Nextion_8h.html#aecac2f0c289f02ef3c92b85be82eacac" target="_top" xlink:title=" ">
<polygon fill="white" stroke="#666666" points="207.5,-571.62 124.75,-571.62 124.75,-552.38 207.5,-552.38 207.5,-571.62"/>
<text text-anchor="middle" x="166.12" y="-558.12" font-family="Helvetica,sans-Serif" font-size="10.00">SendCommand</text>
</a>
</g>
</g>
<!-- Node1&#45;&gt;Node2 -->
<g id="edge1_Node000001_Node000002" class="edge">
<title>Node1&#45;&gt;Node2</title>
<g id="a_edge1_Node000001_Node000002"><a xlink:title=" ">
<path fill="none" stroke="#63b8ff" d="M88.95,-549.91C96.86,-551.17 105.17,-552.49 113.29,-553.78"/>
<polygon fill="#63b8ff" stroke="#63b8ff" points="112.65,-557.22 123.08,-555.33 113.75,-550.3 112.65,-557.22"/>
</a>
</g>
</g>
<!-- Node48 -->
<g id="Node000048" class="node">
<title>Node48</title>
<g id="a_Node000048"><a xlink:href="Utilities_8h.html#a590a9174319918d7e3d7baca323fcf26" target="_top" xlink:title=" ">
<polygon fill="white" stroke="#666666" points="180.53,-534.62 151.72,-534.62 151.72,-515.38 180.53,-515.38 180.53,-534.62"/>
<text text-anchor="middle" x="166.12" y="-521.12" font-family="Helvetica,sans-Serif" font-size="10.00">Str</text>
</a>
</g>
</g>
<!-- Node1&#45;&gt;Node48 -->
<g id="edge58_Node000001_Node000048" class="edge">
<title>Node1&#45;&gt;Node48</title>
<g id="a_edge58_Node000001_Node000048"><a xlink:title=" ">
<path fill="none" stroke="#63b8ff" d="M88.95,-536.45C106.19,-533.86 125.38,-530.97 140.19,-528.75"/>
<polygon fill="#63b8ff" stroke="#63b8ff" points="140.59,-532.23 149.96,-527.28 139.55,-525.3 140.59,-532.23"/>
</a>
</g>
</g>
<!-- Node3 -->
<g id="Node000003" class="node">
<title>Node3</title>
<g id="a_Node000003"><a xlink:href="Utilities_8h.html#a3b1d8aa403e2724e55c71da3d9d13e7e" target="_top" xlink:title=" ">
<polygon fill="white" stroke="#666666" points="323.25,-645.62 246.5,-645.62 246.5,-626.38 323.25,-626.38 323.25,-645.62"/>
<text text-anchor="middle" x="284.88" y="-632.12" font-family="Helvetica,sans-Serif" font-size="10.00">DelayWithDog</text>
</a>
</g>
</g>
<!-- Node2&#45;&gt;Node3 -->
<g id="edge2_Node000002_Node000003" class="edge">
<title>Node2&#45;&gt;Node3</title>
<g id="a_edge2_Node000002_Node000003"><a xlink:title=" ">
<path fill="none" stroke="#63b8ff" d="M179.01,-571.96C193.58,-583.88 219.33,-603.97 243.5,-618 245.34,-619.07 247.26,-620.12 249.21,-621.14"/>
<polygon fill="#63b8ff" stroke="#63b8ff" points="247.23,-624.07 257.76,-625.3 250.3,-617.78 247.23,-624.07"/>
</a>
</g>
</g>
<!-- Node58 -->
<g id="Node000058" class="node">
<title>Node58</title>
<g id="a_Node000058"><a xlink:href="Nextion_8h.html#a43937dd3d9c795271fd9c3eb3c6b6410" target="_top" xlink:title=" ">
<polygon fill="white" stroke="#666666" points="326.25,-608.62 243.5,-608.62 243.5,-589.38 326.25,-589.38 326.25,-608.62"/>
<text text-anchor="middle" x="284.88" y="-595.12" font-family="Helvetica,sans-Serif" font-size="10.00">GetReturnCode</text>
</a>
</g>
</g>
<!-- Node2&#45;&gt;Node58 -->
<g id="edge56_Node000002_Node000058" class="edge">
<title>Node2&#45;&gt;Node58</title>
<g id="a_edge56_Node000002_Node000058"><a xlink:title=" ">
<path fill="none" stroke="#63b8ff" d="M199.03,-572.11C212.03,-576.23 227.25,-581.05 241.18,-585.47"/>
<polygon fill="#63b8ff" stroke="#63b8ff" points="239.98,-588.76 250.57,-588.44 242.09,-582.09 239.98,-588.76"/>
</a>
</g>
</g>
<!-- Node141 -->
<g id="Node000141" class="node">
<title>Node141</title>
<g id="a_Node000141"><a xlink:href="TransmitterCode_2src_2main_8cpp.html#a5f109790a6fe0b972a502f3cac4ed1e7" target="_top" xlink:title=" ">
<polygon fill="white" stroke="#666666" points="308.62,-571.62 261.12,-571.62 261.12,-552.38 308.62,-552.38 308.62,-571.62"/>
<text text-anchor="middle" x="284.88" y="-558.12" font-family="Helvetica,sans-Serif" font-size="10.00">InStrng</text>
</a>
</g>
</g>
<!-- Node2&#45;&gt;Node141 -->
<g id="edge57_Node000002_Node000141" class="edge">
<title>Node2&#45;&gt;Node141</title>
<g id="a_edge57_Node000002_Node000141"><a xlink:title=" ">
<path fill="none" stroke="#63b8ff" d="M207.96,-562C221.55,-562 236.54,-562 249.59,-562"/>
<polygon fill="#63b8ff" stroke="#63b8ff" points="249.41,-565.5 259.41,-562 249.41,-558.5 249.41,-565.5"/>
</a>
</g>
</g>
<!-- Node4 -->
<g id="Node000004" class="node">
<title>Node4</title>
<g id="a_Node000004"><a xlink:href="TransmitterCode_2src_2main_8cpp.html#ab584ae7dbc9b1af37538f91b00b8927f" target="_top" xlink:title=" ">
<polygon fill="white" stroke="#666666" points="465.25,-646.62 376.5,-646.62 376.5,-627.38 465.25,-627.38 465.25,-646.62"/>
<text text-anchor="middle" x="420.88" y="-633.12" font-family="Helvetica,sans-Serif" font-size="10.00">FixMotorChannel</text>
</a>
</g>
</g>
<!-- Node3&#45;&gt;Node4 -->
<g id="edge3_Node000003_Node000004" class="edge">
<title>Node3&#45;&gt;Node4</title>
<g id="a_edge3_Node000003_Node000004"><a xlink:title=" ">
<path fill="none" stroke="#63b8ff" d="M323.56,-636.28C336.38,-636.38 350.98,-636.49 364.88,-636.59"/>
<polygon fill="#63b8ff" stroke="#63b8ff" points="364.79,-640.09 374.81,-636.66 364.84,-633.09 364.79,-640.09"/>
</a>
</g>
</g>
<!-- Node6 -->
<g id="Node000006" class="node">
<title>Node6</title>
<g id="a_Node000006"><a xlink:href="TransmitterCode_2src_2main_8cpp.html#a26ae4f6ca14f760bd5eb6e7588fe7c81" target="_top" xlink:title="GET NEW SERVO POSITIONS.">
<polygon fill="white" stroke="#666666" points="479.5,-795.62 362.25,-795.62 362.25,-776.38 479.5,-776.38 479.5,-795.62"/>
<text text-anchor="middle" x="420.88" y="-782.12" font-family="Helvetica,sans-Serif" font-size="10.00">GetNewChannelValues</text>
</a>
</g>
</g>
<!-- Node3&#45;&gt;Node6 -->
<g id="edge5_Node000003_Node000006" class="edge">
<title>Node3&#45;&gt;Node6</title>
<g id="a_edge5_Node000003_Node000006"><a xlink:title=" ">
<path fill="none" stroke="#63b8ff" d="M294.67,-645.84C316.71,-670.52 374.62,-735.35 403.3,-767.45"/>
<polygon fill="#63b8ff" stroke="#63b8ff" points="400.59,-769.67 409.87,-774.8 405.81,-765.01 400.59,-769.67"/>
</a>
</g>
</g>
<!-- Node21 -->
<g id="Node000021" class="node">
<title>Node21</title>
<g id="a_Node000021"><a xlink:href="Utilities_8h.html#ada95a00a341e4a80176eda743a94ab2e" target="_top" xlink:title=" ">
<polygon fill="white" stroke="#666666" points="455.5,-609.62 386.25,-609.62 386.25,-590.38 455.5,-590.38 455.5,-609.62"/>
<text text-anchor="middle" x="420.88" y="-596.12" font-family="Helvetica,sans-Serif" font-size="10.00">KickTheDog</text>
</a>
</g>
</g>
<!-- Node3&#45;&gt;Node21 -->
<g id="edge21_Node000003_Node000021" class="edge">
<title>Node3&#45;&gt;Node21</title>
<g id="a_edge21_Node000003_Node000021"><a xlink:title=" ">
<path fill="none" stroke="#63b8ff" d="M323.56,-625.88C339.69,-621.54 358.64,-616.45 375.45,-611.94"/>
<polygon fill="#63b8ff" stroke="#63b8ff" points="375.92,-615.43 384.67,-609.46 374.1,-608.67 375.92,-615.43"/>
</a>
</g>
</g>
<!-- Node22 -->
<g id="Node000022" class="node">
<title>Node22</title>
<g id="a_Node000022"><a xlink:href="transceiver_8h.html#a049bfb836e7aa4a3a48a1a4bd225fafc" target="_top" xlink:title=" ">
<polygon fill="white" stroke="#666666" points="450.25,-439.62 391.5,-439.62 391.5,-420.38 450.25,-420.38 450.25,-439.62"/>
<text text-anchor="middle" x="420.88" y="-426.12" font-family="Helvetica,sans-Serif" font-size="10.00">SendData</text>
</a>
</g>
</g>
<!-- Node3&#45;&gt;Node22 -->
<g id="edge22_Node000003_Node000022" class="edge">
<title>Node3&#45;&gt;Node22</title>
<g id="a_edge22_Node000003_Node000022"><a xlink:title=" ">
<path fill="none" stroke="#63b8ff" d="M315.2,-625.88C319.21,-623.69 323.04,-621.08 326.25,-618 376.61,-569.74 403.99,-488.63 414.61,-450.71"/>
<polygon fill="#63b8ff" stroke="#63b8ff" points="417.87,-452.04 417.08,-441.47 411.11,-450.23 417.87,-452.04"/>
</a>
</g>
</g>
<!-- Node5 -->
<g id="Node000005" class="node">
<title>Node5</title>
<g id="a_Node000005"><a xlink:href="Utilities_8h.html#a0d8d8a0d67cb9b04481f1692abe75368" target="_top" xlink:title=" ">
<polygon fill="white" stroke="#666666" points="798.38,-740.62 720.12,-740.62 720.12,-721.38 798.38,-721.38 798.38,-740.62"/>
<text text-anchor="middle" x="759.25" y="-727.12" font-family="Helvetica,sans-Serif" font-size="10.00">IntoHigherRes</text>
</a>
</g>
</g>
<!-- Node4&#45;&gt;Node5 -->
<g id="edge4_Node000004_Node000005" class="edge">
<title>Node4&#45;&gt;Node5</title>
<g id="a_edge4_Node000004_Node000005"><a xlink:title=" ">
<path fill="none" stroke="#63b8ff" d="M465.37,-631.5C514.83,-627.22 596.78,-626.24 659,-656 679.99,-666.04 676.78,-679.54 695,-694 705.12,-702.03 717.16,-709.51 728.01,-715.62"/>
<polygon fill="#63b8ff" stroke="#63b8ff" points="726.16,-718.59 736.62,-720.3 729.5,-712.44 726.16,-718.59"/>
</a>
</g>
</g>
<!-- Node7 -->
<g id="Node000007" class="node">
<title>Node7</title>
<g id="a_Node000007"><a xlink:href="TransmitterCode_2src_2main_8cpp.html#af518bb2cfb3cfe18d491b2a5d6bf7dcc" target="_top" xlink:title=" ">
<polygon fill="white" stroke="#666666" points="638.38,-943.62 536.12,-943.62 536.12,-924.38 638.38,-924.38 638.38,-943.62"/>
<text text-anchor="middle" x="587.25" y="-930.12" font-family="Helvetica,sans-Serif" font-size="10.00">CalculateAllOutputs</text>
</a>
</g>
</g>
<!-- Node6&#45;&gt;Node7 -->
<g id="edge6_Node000006_Node000007" class="edge">
<title>Node6&#45;&gt;Node7</title>
<g id="a_edge6_Node000006_Node000007"><a xlink:title=" ">
<path fill="none" stroke="#63b8ff" d="M426.09,-795.96C437,-820.47 468.6,-884.06 515.5,-916 518.54,-918.07 521.8,-919.9 525.18,-921.52"/>
<polygon fill="#63b8ff" stroke="#63b8ff" points="523.67,-924.68 534.25,-925.21 526.31,-918.2 523.67,-924.68"/>
</a>
</g>
</g>
<!-- Node11 -->
<g id="Node000011" class="node">
<title>Node11</title>
<g id="a_Node000011"><a xlink:href="TransmitterCode_2src_2main_8cpp.html#acd70b997cf150e55d943df5d6f1cff51" target="_top" xlink:title=" ">
<polygon fill="white" stroke="#666666" points="641.75,-906.62 532.75,-906.62 532.75,-887.38 641.75,-887.38 641.75,-906.62"/>
<text text-anchor="middle" x="587.25" y="-893.12" font-family="Helvetica,sans-Serif" font-size="10.00">DoTrimsAndSubtrims</text>
</a>
</g>
</g>
<!-- Node6&#45;&gt;Node11 -->
<g id="edge10_Node000006_Node000011" class="edge">
<title>Node6&#45;&gt;Node11</title>
<g id="a_edge10_Node000006_Node000011"><a xlink:title=" ">
<path fill="none" stroke="#63b8ff" d="M428.89,-795.87C443,-814.98 476.83,-857.09 515.5,-879 517.96,-880.39 520.53,-881.68 523.17,-882.87"/>
<polygon fill="#63b8ff" stroke="#63b8ff" points="521.63,-886.03 532.22,-886.43 524.19,-879.51 521.63,-886.03"/>
</a>
</g>
</g>
<!-- Node13 -->
<g id="Node000013" class="node">
<title>Node13</title>
<g id="a_Node000013"><a xlink:href="TransmitterCode_2src_2main_8cpp.html#a15d8fbd5988e76a16e33e7f620804009" target="_top" xlink:title=" ">
<polygon fill="white" stroke="#666666" points="622.25,-832.62 552.25,-832.62 552.25,-813.38 622.25,-813.38 622.25,-832.62"/>
<text text-anchor="middle" x="587.25" y="-819.12" font-family="Helvetica,sans-Serif" font-size="10.00">GetAllInputs</text>
</a>
</g>
</g>
<!-- Node6&#45;&gt;Node13 -->
<g id="edge12_Node000006_Node000013" class="edge">
<title>Node6&#45;&gt;Node13</title>
<g id="a_edge12_Node000006_Node000013"><a xlink:title=" ">
<path fill="none" stroke="#63b8ff" d="M466.79,-796.11C489.72,-801.27 517.57,-807.54 540.6,-812.72"/>
<polygon fill="#63b8ff" stroke="#63b8ff" points="539.82,-816.14 550.34,-814.92 541.35,-809.31 539.82,-816.14"/>
</a>
</g>
</g>
<!-- Node16 -->
<g id="Node000016" class="node">
<title>Node16</title>
<g id="a_Node000016"><a xlink:href="Mixes_8h.html#a5aa9208b1f2a522a0cdb348301fe0593" target="_top" xlink:title=" ">
<polygon fill="white" stroke="#666666" points="616.25,-869.62 558.25,-869.62 558.25,-850.38 616.25,-850.38 616.25,-869.62"/>
<text text-anchor="middle" x="587.25" y="-856.12" font-family="Helvetica,sans-Serif" font-size="10.00">MixInputs</text>
</a>
</g>
</g>
<!-- Node6&#45;&gt;Node16 -->
<g id="edge15_Node000006_Node000016" class="edge">
<title>Node6&#45;&gt;Node16</title>
<g id="a_edge15_Node000006_Node000016"><a xlink:title=" ">
<path fill="none" stroke="#63b8ff" d="M435.78,-796.09C453.5,-808.51 485.42,-829.49 515.5,-842 525.38,-846.11 536.45,-849.47 546.83,-852.12"/>
<polygon fill="#63b8ff" stroke="#63b8ff" points="545.74,-855.46 556.28,-854.38 547.37,-848.65 545.74,-855.46"/>
</a>
</g>
</g>
<!-- Node17 -->
<g id="Node000017" class="node">
<title>Node17</title>
<g id="a_Node000017"><a xlink:href="Mixes_8h.html#a376c11f3a285138341edc0783f930ff3" target="_top" xlink:title=" ">
<polygon fill="white" stroke="#666666" points="620,-795.62 554.5,-795.62 554.5,-776.38 620,-776.38 620,-795.62"/>
<text text-anchor="middle" x="587.25" y="-782.12" font-family="Helvetica,sans-Serif" font-size="10.00">MixOutputs</text>
</a>
</g>
</g>
<!-- Node6&#45;&gt;Node17 -->
<g id="edge16_Node000006_Node000017" class="edge">
<title>Node6&#45;&gt;Node17</title>
<g id="a_edge16_Node000006_Node000017"><a xlink:title=" ">
<path fill="none" stroke="#63b8ff" d="M479.83,-786C500.49,-786 523.41,-786 542.66,-786"/>
<polygon fill="#63b8ff" stroke="#63b8ff" points="542.61,-789.5 552.61,-786 542.61,-782.5 542.61,-789.5"/>
</a>
</g>
</g>
<!-- Node18 -->
<g id="Node000018" class="node">
<title>Node18</title>
<g id="a_Node000018"><a xlink:href="TransmitterCode_2src_2main_8cpp.html#a92bb36e29cd297189daefb3b79deaac3" target="_top" xlink:title=" ">
<polygon fill="white" stroke="#666666" points="629.38,-758.62 545.12,-758.62 545.12,-739.38 629.38,-739.38 629.38,-758.62"/>
<text text-anchor="middle" x="587.25" y="-745.12" font-family="Helvetica,sans-Serif" font-size="10.00">RerouteOutputs</text>
</a>
</g>
</g>
<!-- Node6&#45;&gt;Node18 -->
<g id="edge18_Node000006_Node000018" class="edge">
<title>Node6&#45;&gt;Node18</title>
<g id="a_edge18_Node000006_Node000018"><a xlink:title=" ">
<path fill="none" stroke="#63b8ff" d="M466.79,-775.89C487.51,-771.23 512.25,-765.66 533.82,-760.8"/>
<polygon fill="#63b8ff" stroke="#63b8ff" points="534.31,-764.28 543.29,-758.67 532.77,-757.45 534.31,-764.28"/>
</a>
</g>
</g>
<!-- Node19 -->
<g id="Node000019" class="node">
<title>Node19</title>
<g id="a_Node000019"><a xlink:href="Utilities_8h.html#a2d10590a11f1790e37c47f70f294f10d" target="_top" xlink:title=" ">
<polygon fill="white" stroke="#666666" points="626,-721.62 548.5,-721.62 548.5,-702.38 626,-702.38 626,-721.62"/>
<text text-anchor="middle" x="587.25" y="-708.12" font-family="Helvetica,sans-Serif" font-size="10.00">ServoReverse</text>
</a>
</g>
</g>
<!-- Node6&#45;&gt;Node19 -->
<g id="edge19_Node000006_Node000019" class="edge">
<title>Node6&#45;&gt;Node19</title>
<g id="a_edge19_Node000006_Node000019"><a xlink:title=" ">
<path fill="none" stroke="#63b8ff" d="M435.78,-775.91C453.5,-763.49 485.42,-742.51 515.5,-730 522.34,-727.16 529.74,-724.67 537.1,-722.53"/>
<polygon fill="#63b8ff" stroke="#63b8ff" points="537.94,-725.93 546.68,-719.94 536.11,-719.17 537.94,-725.93"/>
</a>
</g>
</g>
<!-- Node20 -->
<g id="Node000020" class="node">
<title>Node20</title>
<g id="a_Node000020"><a xlink:href="TransmitterCode_2src_2main_8cpp.html#a73d05c890a6a5f7b493e6aefb497d869" target="_top" xlink:title=" ">
<polygon fill="white" stroke="#666666" points="629.75,-684.62 544.75,-684.62 544.75,-665.38 629.75,-665.38 629.75,-684.62"/>
<text text-anchor="middle" x="587.25" y="-671.12" font-family="Helvetica,sans-Serif" font-size="10.00">SlowAnyServos</text>
</a>
</g>
</g>
<!-- Node6&#45;&gt;Node20 -->
<g id="edge20_Node000006_Node000020" class="edge">
<title>Node6&#45;&gt;Node20</title>
<g id="a_edge20_Node000006_Node000020"><a xlink:title=" ">
<path fill="none" stroke="#63b8ff" d="M428.89,-776.13C443,-757.02 476.83,-714.91 515.5,-693 521.15,-689.8 527.38,-687.16 533.72,-684.98"/>
<polygon fill="#63b8ff" stroke="#63b8ff" points="534.41,-688.42 542.97,-682.18 532.38,-681.73 534.41,-688.42"/>
</a>
</g>
</g>
<!-- Node8 -->
<g id="Node000008" class="node">
<title>Node8</title>
<g id="a_Node000008"><a xlink:href="Rates_8h.html#af9c038b48102eca9032f10fefd9d5736" target="_top" xlink:title=" ">
<polygon fill="white" stroke="#666666" points="798,-943.62 720.5,-943.62 720.5,-924.38 798,-924.38 798,-943.62"/>
<text text-anchor="middle" x="759.25" y="-930.12" font-family="Helvetica,sans-Serif" font-size="10.00">GetCurveDots</text>
</a>
</g>
</g>
<!-- Node7&#45;&gt;Node8 -->
<g id="edge7_Node000007_Node000008" class="edge">
<title>Node7&#45;&gt;Node8</title>
<g id="a_edge7_Node000007_Node000008"><a xlink:title=" ">
<path fill="none" stroke="#63b8ff" d="M638.8,-934C660.86,-934 686.66,-934 708.62,-934"/>
<polygon fill="#63b8ff" stroke="#63b8ff" points="708.54,-937.5 718.54,-934 708.54,-930.5 708.54,-937.5"/>
</a>
</g>
</g>
<!-- Node9 -->
<g id="Node000009" class="node">
<title>Node9</title>
<g id="a_Node000009"><a xlink:href="Rates_8h.html#afeabb54d48ef7e55693014e057d2943d" target="_top" xlink:title=" ">
<polygon fill="white" stroke="#666666" points="941.5,-924.62 864.75,-924.62 864.75,-905.38 941.5,-905.38 941.5,-924.62"/>
<text text-anchor="middle" x="903.12" y="-911.12" font-family="Helvetica,sans-Serif" font-size="10.00">CalculateRate</text>
</a>
</g>
</g>
<!-- Node8&#45;&gt;Node9 -->
<g id="edge8_Node000008_Node000009" class="edge">
<title>Node8&#45;&gt;Node9</title>
<g id="a_edge8_Node000008_Node000009"><a xlink:title=" ">
<path fill="none" stroke="#63b8ff" d="M798.27,-928.91C815.18,-926.64 835.3,-923.95 853.31,-921.54"/>
<polygon fill="#63b8ff" stroke="#63b8ff" points="853.55,-925.04 862.99,-920.24 852.62,-918.1 853.55,-925.04"/>
</a>
</g>
</g>
<!-- Node10 -->
<g id="Node000010" class="node">
<title>Node10</title>
<g id="a_Node000010"><a xlink:href="Rates_8h.html#a8f53f86499d740b350f7b6d791c90497" target="_top" xlink:title=" ">
<polygon fill="white" stroke="#666666" points="938.12,-961.62 868.12,-961.62 868.12,-942.38 938.12,-942.38 938.12,-961.62"/>
<text text-anchor="middle" x="903.12" y="-948.12" font-family="Helvetica,sans-Serif" font-size="10.00">UseFullRate</text>
</a>
</g>
</g>
<!-- Node8&#45;&gt;Node10 -->
<g id="edge9_Node000008_Node000010" class="edge">
<title>Node8&#45;&gt;Node10</title>
<g id="a_edge9_Node000008_Node000010"><a xlink:title=" ">
<path fill="none" stroke="#63b8ff" d="M798.27,-938.82C816.21,-941.1 837.77,-943.84 856.58,-946.22"/>
<polygon fill="#63b8ff" stroke="#63b8ff" points="856.02,-949.68 866.38,-947.47 856.9,-942.73 856.02,-949.68"/>
</a>
</g>
</g>
<!-- Node12 -->
<g id="Node000012" class="node">
<title>Node12</title>
<g id="a_Node000012"><a xlink:href="Trims_8h.html#aacd8b022714bb89847239dd878ad9509" target="_top" xlink:title=" ">
<polygon fill="white" stroke="#666666" points="801.75,-906.62 716.75,-906.62 716.75,-887.38 801.75,-887.38 801.75,-906.62"/>
<text text-anchor="middle" x="759.25" y="-893.12" font-family="Helvetica,sans-Serif" font-size="10.00">GetTrimAmount</text>
</a>
</g>
</g>
<!-- Node11&#45;&gt;Node12 -->
<g id="edge11_Node000011_Node000012" class="edge">
<title>Node11&#45;&gt;Node12</title>
<g id="a_edge11_Node000011_Node000012"><a xlink:title=" ">
<path fill="none" stroke="#63b8ff" d="M642.04,-897C662.12,-897 684.91,-897 704.95,-897"/>
<polygon fill="#63b8ff" stroke="#63b8ff" points="704.88,-900.5 714.88,-897 704.88,-893.5 704.88,-900.5"/>
</a>
</g>
</g>
<!-- Node14 -->
<g id="Node000014" class="node">
<title>Node14</title>
<g id="a_Node000014"><a xlink:href="TransmitterCode_2src_2main_8cpp.html#ac5728db610c441820a6f47295967cbab" target="_top" xlink:title=" ">
<polygon fill="white" stroke="#666666" points="798.75,-851.62 719.75,-851.62 719.75,-832.38 798.75,-832.38 798.75,-851.62"/>
<text text-anchor="middle" x="759.25" y="-838.12" font-family="Helvetica,sans-Serif" font-size="10.00">AnalogueReed</text>
</a>
</g>
</g>
<!-- Node13&#45;&gt;Node14 -->
<g id="edge13_Node000013_Node000014" class="edge">
<title>Node13&#45;&gt;Node14</title>
<g id="a_edge13_Node000013_Node000014"><a xlink:title=" ">
<path fill="none" stroke="#63b8ff" d="M622.65,-826.84C647.19,-829.59 680.56,-833.32 708.06,-836.39"/>
<polygon fill="#63b8ff" stroke="#63b8ff" points="707.61,-839.86 717.94,-837.49 708.39,-832.91 707.61,-839.86"/>
</a>
</g>
</g>
<!-- Node15 -->
<g id="Node000015" class="node">
<title>Node15</title>
<g id="a_Node000015"><a xlink:href="TransmitterCode_2src_2main_8cpp.html#a787973ed0df098048a54e5110896eeb6" target="_top" xlink:title=" ">
<polygon fill="white" stroke="#666666" points="823.5,-814.62 695,-814.62 695,-795.38 823.5,-795.38 823.5,-814.62"/>
<text text-anchor="middle" x="759.25" y="-801.12" font-family="Helvetica,sans-Serif" font-size="10.00">ReadThreePositionSwitch</text>
</a>
</g>
</g>
<!-- Node13&#45;&gt;Node15 -->
<g id="edge14_Node000013_Node000015" class="edge">
<title>Node13&#45;&gt;Node15</title>
<g id="a_edge14_Node000013_Node000015"><a xlink:title=" ">
<path fill="none" stroke="#63b8ff" d="M622.65,-819.36C640.17,-817.5 662.19,-815.17 683.37,-812.93"/>
<polygon fill="#63b8ff" stroke="#63b8ff" points="683.59,-816.42 693.17,-811.89 682.85,-809.46 683.59,-816.42"/>
</a>
</g>
</g>
<!-- Node17&#45;&gt;Node5 -->
<g id="edge17_Node000017_Node000005" class="edge">
<title>Node17&#45;&gt;Node5</title>
<g id="a_edge17_Node000017_Node000005"><a xlink:title=" ">
<path fill="none" stroke="#63b8ff" d="M620.15,-778.66C632.38,-775.64 646.42,-771.93 659,-768 680.57,-761.26 704.3,-752.46 723.15,-745.14"/>
<polygon fill="#63b8ff" stroke="#63b8ff" points="724.19,-748.49 732.22,-741.58 721.63,-741.98 724.19,-748.49"/>
</a>
</g>
</g>
<!-- Node23 -->
<g id="Node000023" class="node">
<title>Node23</title>
<g id="a_Node000023"><a xlink:href="transceiver_8h.html#a1ddd5e8d5bd649dd98ce3710fbff651b" target="_top" xlink:title=" ">
<polygon fill="white" stroke="#666666" points="617.38,-458.62 557.12,-458.62 557.12,-439.38 617.38,-439.38 617.38,-458.62"/>
<text text-anchor="middle" x="587.25" y="-445.12" font-family="Helvetica,sans-Serif" font-size="10.00">Compress</text>
</a>
</g>
</g>
<!-- Node22&#45;&gt;Node23 -->
<g id="edge23_Node000022_Node000023" class="edge">
<title>Node22&#45;&gt;Node23</title>
<g id="a_edge23_Node000022_Node000023"><a xlink:title=" ">
<path fill="none" stroke="#63b8ff" d="M450.51,-433.31C476.82,-436.35 516.09,-440.89 545.64,-444.31"/>
<polygon fill="#63b8ff" stroke="#63b8ff" points="545,-447.76 555.34,-445.43 545.8,-440.8 545,-447.76"/>
</a>
</g>
</g>
<!-- Node24 -->
<g id="Node000024" class="node">
<title>Node24</title>
<g id="a_Node000024"><a xlink:href="transceiver_8h.html#a4144c213e5448a7e02d4172881f08219" target="_top" xlink:title=" ">
<polygon fill="white" stroke="#666666" points="659,-421.62 515.5,-421.62 515.5,-402.38 659,-402.38 659,-421.62"/>
<text text-anchor="middle" x="587.25" y="-408.12" font-family="Helvetica,sans-Serif" font-size="10.00">EncodeTheChangedChannels</text>
</a>
</g>
</g>
<!-- Node22&#45;&gt;Node24 -->
<g id="edge24_Node000022_Node000024" class="edge">
<title>Node22&#45;&gt;Node24</title>
<g id="a_edge24_Node000022_Node000024"><a xlink:title=" ">
<path fill="none" stroke="#63b8ff" d="M450.51,-426.86C465.5,-425.22 484.71,-423.12 503.92,-421.02"/>
<polygon fill="#63b8ff" stroke="#63b8ff" points="504.14,-424.51 513.7,-419.94 503.38,-417.55 504.14,-424.51"/>
</a>
</g>
</g>
<!-- Node25 -->
<g id="Node000025" class="node">
<title>Node25</title>
<g id="a_Node000025"><a xlink:href="transceiver_8h.html#a5fbd3c8613a4163425c94965704ce5f8" target="_top" xlink:title=" ">
<polygon fill="white" stroke="#666666" points="623.75,-188.62 550.75,-188.62 550.75,-169.38 623.75,-169.38 623.75,-188.62"/>
<text text-anchor="middle" x="587.25" y="-175.12" font-family="Helvetica,sans-Serif" font-size="10.00">FailedPacket</text>
</a>
</g>
</g>
<!-- Node22&#45;&gt;Node25 -->
<g id="edge25_Node000022_Node000025" class="edge">
<title>Node22&#45;&gt;Node25</title>
<g id="a_edge25_Node000022_Node000025"><a xlink:title=" ">
<path fill="none" stroke="#63b8ff" d="M425.75,-419.96C437.01,-391.51 471.7,-308.57 515.5,-249 530.08,-229.17 550.34,-209.74 565.44,-196.4"/>
<polygon fill="#63b8ff" stroke="#63b8ff" points="567.66,-199.11 572.94,-189.92 563.08,-193.81 567.66,-199.11"/>
</a>
</g>
</g>
<!-- Node69 -->
<g id="Node000069" class="node">
<title>Node69</title>
<g id="a_Node000069"><a xlink:href="transceiver_8h.html#a07c27b4e208198453c70876517926052" target="_top" xlink:title=" ">
<polygon fill="white" stroke="#666666" points="618.12,-132.62 556.38,-132.62 556.38,-113.38 618.12,-113.38 618.12,-132.62"/>
<text text-anchor="middle" x="587.25" y="-119.12" font-family="Helvetica,sans-Serif" font-size="10.00">FlushFifos</text>
</a>
</g>
</g>
<!-- Node22&#45;&gt;Node69 -->
<g id="edge34_Node000022_Node000069" class="edge">
<title>Node22&#45;&gt;Node69</title>
<g id="a_edge34_Node000022_Node000069"><a xlink:title=" ">
<path fill="none" stroke="#63b8ff" d="M422.71,-420.13C426.4,-382.02 444.4,-242.49 515.5,-160 523.59,-150.61 534.66,-143.27 545.65,-137.68"/>
<polygon fill="#63b8ff" stroke="#63b8ff" points="547.07,-140.88 554.67,-133.5 544.13,-134.53 547.07,-140.88"/>
</a>
</g>
</g>
<!-- Node65 -->
<g id="Node000065" class="node">
<title>Node65</title>
<g id="a_Node000065"><a xlink:href="common_8h.html#a6e2d4126d864c50e7c23c988c2bfdd1a" target="_top" xlink:title=" ">
<polygon fill="white" stroke="#666666" points="926.12,-496.62 880.12,-496.62 880.12,-477.38 926.12,-477.38 926.12,-496.62"/>
<text text-anchor="middle" x="903.12" y="-483.12" font-family="Helvetica,sans-Serif" font-size="10.00">Radio1</text>
</a>
</g>
</g>
<!-- Node22&#45;&gt;Node65 -->
<g id="edge36_Node000022_Node000065" class="edge">
<title>Node22&#45;&gt;Node65</title>
<g id="a_edge36_Node000022_Node000065"><a xlink:title=" ">
<path fill="none" stroke="#63b8ff" d="M431.74,-420.16C478.97,-374.21 685.42,-187.07 823.5,-282 885.12,-324.36 898.47,-422.18 901.35,-465.58"/>
<polygon fill="#63b8ff" stroke="#63b8ff" points="897.84,-465.65 901.86,-475.45 904.83,-465.29 897.84,-465.65"/>
</a>
</g>
</g>
<!-- Node70 -->
<g id="Node000070" class="node">
<title>Node70</title>
<g id="a_Node000070"><a xlink:href="transceiver_8h.html#a5a043d48a3d1761777eb9e7c3faa8753" target="_top" xlink:title=" ">
<polygon fill="white" stroke="#666666" points="646.62,-608.62 527.88,-608.62 527.88,-589.38 646.62,-589.38 646.62,-608.62"/>
<text text-anchor="middle" x="587.25" y="-595.12" font-family="Helvetica,sans-Serif" font-size="10.00">SendExtraParamemters</text>
</a>
</g>
</g>
<!-- Node22&#45;&gt;Node70 -->
<g id="edge37_Node000022_Node000070" class="edge">
<title>Node22&#45;&gt;Node70</title>
<g id="a_edge37_Node000022_Node000070"><a xlink:title=" ">
<path fill="none" stroke="#63b8ff" d="M425.06,-439.94C434.29,-467.09 463.75,-543.07 515.5,-581 516.84,-581.98 518.23,-582.91 519.66,-583.79"/>
<polygon fill="#63b8ff" stroke="#63b8ff" points="517.75,-586.74 528.24,-588.2 520.95,-580.52 517.75,-586.74"/>
</a>
</g>
</g>
<!-- Node73 -->
<g id="Node000073" class="node">
<title>Node73</title>
<g id="a_Node000073"><a xlink:href="BuddyWireless_8h.html#a41c327908c92572d0d3eebbb19160d86" target="_top" xlink:title=" ">
<polygon fill="white" stroke="#666666" points="638,-571.62 536.5,-571.62 536.5,-552.38 638,-552.38 638,-571.62"/>
<text text-anchor="middle" x="587.25" y="-558.12" font-family="Helvetica,sans-Serif" font-size="10.00">SendSpecialPacket</text>
</a>
</g>
</g>
<!-- Node22&#45;&gt;Node73 -->
<g id="edge39_Node000022_Node000073" class="edge">
<title>Node22&#45;&gt;Node73</title>
<g id="a_edge39_Node000022_Node000073"><a xlink:title=" ">
<path fill="none" stroke="#63b8ff" d="M434.23,-439.92C462.07,-462.28 530.01,-516.84 564.86,-544.82"/>
<polygon fill="#63b8ff" stroke="#63b8ff" points="562.58,-547.48 572.57,-551.02 566.97,-542.03 562.58,-547.48"/>
</a>
</g>
</g>
<!-- Node78 -->
<g id="Node000078" class="node">
<title>Node78</title>
<g id="a_Node000078"><a xlink:href="BuddyPPM_8h.html#a784a1eca0361b3991bca899167cc1cdb" target="_top" xlink:title=" ">
<polygon fill="white" stroke="#666666" points="624.5,-495.62 550,-495.62 550,-476.38 624.5,-476.38 624.5,-495.62"/>
<text text-anchor="middle" x="587.25" y="-482.12" font-family="Helvetica,sans-Serif" font-size="10.00">SendViaPPM</text>
</a>
</g>
</g>
<!-- Node22&#45;&gt;Node78 -->
<g id="edge47_Node000022_Node000078" class="edge">
<title>Node22&#45;&gt;Node78</title>
<g id="a_edge47_Node000022_Node000078"><a xlink:title=" ">
<path fill="none" stroke="#63b8ff" d="M444.26,-440.09C463.03,-448.31 490.67,-459.84 515.5,-468 522.95,-470.45 530.93,-472.76 538.75,-474.87"/>
<polygon fill="#63b8ff" stroke="#63b8ff" points="537.6,-478.18 548.16,-477.31 539.36,-471.41 537.6,-478.18"/>
</a>
</g>
</g>
<!-- Node79 -->
<g id="Node000079" class="node">
<title>Node79</title>
<g id="a_Node000079"><a xlink:href="transceiver_8h.html#a1c11bb6771548de7d96723045b922620" target="_top" xlink:title=" ">
<polygon fill="white" stroke="#666666" points="635,-384.62 539.5,-384.62 539.5,-365.38 635,-365.38 635,-384.62"/>
<text text-anchor="middle" x="587.25" y="-371.12" font-family="Helvetica,sans-Serif" font-size="10.00">SuccessfulPacket</text>
</a>
</g>
</g>
<!-- Node22&#45;&gt;Node79 -->
<g id="edge48_Node000022_Node000079" class="edge">
<title>Node22&#45;&gt;Node79</title>
<g id="a_edge48_Node000022_Node000079"><a xlink:title=" ">
<path fill="none" stroke="#63b8ff" d="M445.05,-419.89C463.81,-411.93 491.05,-400.9 515.5,-393 520.86,-391.27 526.5,-389.59 532.15,-388.01"/>
<polygon fill="#63b8ff" stroke="#63b8ff" points="532.77,-391.46 541.51,-385.47 530.95,-384.71 532.77,-391.46"/>
</a>
</g>
</g>
<!-- Node26 -->
<g id="Node000026" class="node">
<title>Node26</title>
<g id="a_Node000026"><a xlink:href="transceiver_8h.html#afcf53d02052a623856b352f27547194c" target="_top" xlink:title=" ">
<polygon fill="white" stroke="#666666" points="806.62,-197.62 711.88,-197.62 711.88,-178.38 806.62,-178.38 806.62,-197.62"/>
<text text-anchor="middle" x="759.25" y="-184.12" font-family="Helvetica,sans-Serif" font-size="10.00">CheckDataRepeat</text>
</a>
</g>
</g>
<!-- Node25&#45;&gt;Node26 -->
<g id="edge26_Node000025_Node000026" class="edge">
<title>Node25&#45;&gt;Node26</title>
<g id="a_edge26_Node000025_Node000026"><a xlink:title=" ">
<path fill="none" stroke="#63b8ff" d="M623.89,-180.89C646.01,-182.06 674.96,-183.59 700.31,-184.93"/>
<polygon fill="#63b8ff" stroke="#63b8ff" points="699.99,-188.42 710.16,-185.45 700.36,-181.43 699.99,-188.42"/>
</a>
</g>
</g>
<!-- Node27 -->
<g id="Node000027" class="node">
<title>Node27</title>
<g id="a_Node000027"><a xlink:href="transceiver_8h.html#a7154e4db2ead530e9d7c8061d09d37cb" target="_top" xlink:title=" ">
<polygon fill="white" stroke="#666666" points="790.12,-47.62 728.38,-47.62 728.38,-28.38 790.12,-28.38 790.12,-47.62"/>
<text text-anchor="middle" x="759.25" y="-34.12" font-family="Helvetica,sans-Serif" font-size="10.00">CheckGap</text>
</a>
</g>
</g>
<!-- Node25&#45;&gt;Node27 -->
<g id="edge27_Node000025_Node000027" class="edge">
<title>Node25&#45;&gt;Node27</title>
<g id="a_edge27_Node000025_Node000027"><a xlink:title=" ">
<path fill="none" stroke="#63b8ff" d="M617.77,-168.99C631.77,-163 647.84,-154.15 659,-142 687.02,-111.48 664.01,-83.5 695,-56 701.22,-50.48 709.03,-46.64 717.01,-43.98"/>
<polygon fill="#63b8ff" stroke="#63b8ff" points="717.68,-47.42 726.41,-41.42 715.85,-40.67 717.68,-47.42"/>
</a>
</g>
</g>
<!-- Node59 -->
<g id="Node000059" class="node">
<title>Node59</title>
<g id="a_Node000059"><a xlink:href="transceiver_8h.html#abf955fe3fa8f544096735e18385cd90d" target="_top" xlink:title=" ">
<polygon fill="white" stroke="#666666" points="818.25,-160.62 700.25,-160.62 700.25,-141.38 818.25,-141.38 818.25,-160.62"/>
<text text-anchor="middle" x="759.25" y="-147.12" font-family="Helvetica,sans-Serif" font-size="10.00">CheckInactivityTimeout</text>
</a>
</g>
</g>
<!-- Node25&#45;&gt;Node59 -->
<g id="edge30_Node000025_Node000059" class="edge">
<title>Node25&#45;&gt;Node59</title>
<g id="a_edge30_Node000025_Node000059"><a xlink:title=" ">
<path fill="none" stroke="#63b8ff" d="M623.89,-173.13C642.71,-170.03 666.48,-166.12 688.77,-162.44"/>
<polygon fill="#63b8ff" stroke="#63b8ff" points="689.12,-165.93 698.42,-160.85 687.98,-159.03 689.12,-165.93"/>
</a>
</g>
</g>
<!-- Node60 -->
<g id="Node000060" class="node">
<title>Node60</title>
<g id="a_Node000060"><a xlink:href="transceiver_8h.html#a18d9866d5425cd145044b1fddbfc00a0" target="_top" xlink:title=" ">
<polygon fill="white" stroke="#666666" points="807.75,-84.62 710.75,-84.62 710.75,-65.38 807.75,-65.38 807.75,-84.62"/>
<text text-anchor="middle" x="759.25" y="-71.12" font-family="Helvetica,sans-Serif" font-size="10.00">CheckLostContact</text>
</a>
</g>
</g>
<!-- Node25&#45;&gt;Node60 -->
<g id="edge31_Node000025_Node000060" class="edge">
<title>Node25&#45;&gt;Node60</title>
<g id="a_edge31_Node000025_Node000060"><a xlink:title=" ">
<path fill="none" stroke="#63b8ff" d="M609.02,-168.91C623.3,-161.79 642.57,-151.8 659,-142 685.88,-125.97 715.47,-105.62 735.29,-91.57"/>
<polygon fill="#63b8ff" stroke="#63b8ff" points="737.1,-94.58 743.2,-85.93 733.03,-88.89 737.1,-94.58"/>
</a>
</g>
</g>
<!-- Node68 -->
<g id="Node000068" class="node">
<title>Node68</title>
<g id="a_Node000068"><a xlink:href="transceiver_8h.html#afc091b5942e21a03f6dc8635d5e519ba" target="_top" xlink:title=" ">
<polygon fill="white" stroke="#666666" points="819.75,-234.62 698.75,-234.62 698.75,-215.38 819.75,-215.38 819.75,-234.62"/>
<text text-anchor="middle" x="759.25" y="-221.12" font-family="Helvetica,sans-Serif" font-size="10.00">RecordsPacketSuccess</text>
</a>
</g>
</g>
<!-- Node25&#45;&gt;Node68 -->
<g id="edge33_Node000025_Node000068" class="edge">
<title>Node25&#45;&gt;Node68</title>
<g id="a_edge33_Node000025_Node000068"><a xlink:title=" ">
<path fill="none" stroke="#63b8ff" d="M623.89,-188.64C648.87,-195.4 682.57,-204.52 709.97,-211.94"/>
<polygon fill="#63b8ff" stroke="#63b8ff" points="708.87,-215.26 719.43,-214.5 710.69,-208.51 708.87,-215.26"/>
</a>
</g>
</g>
<!-- Node28 -->
<g id="Node000028" class="node">
<title>Node28</title>
<g id="a_Node000028"><a xlink:href="TransmitterCode_2src_2main_8cpp.html#a7d34cec6e8edc20c8b50424e15dcc7c7" target="_top" xlink:title=" ">
<polygon fill="#fff0f0" stroke="red" points="934.38,-28.62 871.88,-28.62 871.88,-9.38 934.38,-9.38 934.38,-28.62"/>
<text text-anchor="middle" x="903.12" y="-15.12" font-family="Helvetica,sans-Serif" font-size="10.00">RedLedOn</text>
</a>
</g>
</g>
<!-- Node27&#45;&gt;Node28 -->
<g id="edge28_Node000027_Node000028" class="edge">
<title>Node27&#45;&gt;Node28</title>
<g id="a_edge28_Node000027_Node000028"><a xlink:title=" ">
<path fill="none" stroke="#63b8ff" d="M790.34,-33.97C810.7,-31.24 837.88,-27.6 860.34,-24.6"/>
<polygon fill="#63b8ff" stroke="#63b8ff" points="860.64,-28.09 870.09,-23.29 859.71,-21.15 860.64,-28.09"/>
</a>
</g>
</g>
<!-- Node28&#45;&gt;Node2 -->
<g id="edge29_Node000028_Node000002" class="edge">
<title>Node28&#45;&gt;Node2</title>
<g id="a_edge29_Node000028_Node000002"><a xlink:title=" ">
<path fill="none" stroke="#63b8ff" d="M871.42,-15.91C815.27,-10.52 692.25,0 588.25,0 419.88,0 419.88,0 419.88,0 160.33,0 386.65,-356.19 207.5,-544 207.13,-544.39 206.75,-544.77 206.36,-545.14"/>
<polygon fill="#63b8ff" stroke="#63b8ff" points="204.34,-542.28 198.34,-551.01 208.48,-547.93 204.34,-542.28"/>
</a>
</g>
</g>
<!-- Node61 -->
<g id="Node000061" class="node">
<title>Node61</title>
<g id="a_Node000061"><a xlink:href="transceiver_8h.html#ad0236abcfc887ad708d9504c4ab2a7c3" target="_top" xlink:title=" ">
<polygon fill="#fff0f0" stroke="red" points="946.75,-84.62 859.5,-84.62 859.5,-65.38 946.75,-65.38 946.75,-84.62"/>
<text text-anchor="middle" x="903.12" y="-71.12" font-family="Helvetica,sans-Serif" font-size="10.00">TryToReconnect</text>
</a>
</g>
</g>
<!-- Node60&#45;&gt;Node61 -->
<g id="edge32_Node000060_Node000061" class="edge">
<title>Node60&#45;&gt;Node61</title>
<g id="a_edge32_Node000060_Node000061"><a xlink:title=" ">
<path fill="none" stroke="#63b8ff" d="M807.89,-75C820.71,-75 834.68,-75 847.84,-75"/>
<polygon fill="#63b8ff" stroke="#63b8ff" points="847.63,-78.5 857.63,-75 847.63,-71.5 847.63,-78.5"/>
</a>
</g>
</g>
<!-- Node69&#45;&gt;Node65 -->
<g id="edge35_Node000069_Node000065" class="edge">
<title>Node69&#45;&gt;Node65</title>
<g id="a_edge35_Node000069_Node000065"><a xlink:title=" ">
<path fill="none" stroke="#63b8ff" d="M618.31,-113.72C667.4,-100.61 765.14,-83.29 823.5,-132 875.62,-175.51 895.67,-396.55 900.74,-466.05"/>
<polygon fill="#63b8ff" stroke="#63b8ff" points="897.22,-465.95 901.41,-475.68 904.2,-465.46 897.22,-465.95"/>
</a>
</g>
</g>
<!-- Node71 -->
<g id="Node000071" class="node">
<title>Node71</title>
<g id="a_Node000071"><a xlink:href="transceiver_8h.html#adac102739147db6397bbcbb371aec4fd" target="_top" xlink:title=" ">
<polygon fill="#fff0f0" stroke="red" points="803.25,-684.62 715.25,-684.62 715.25,-665.38 803.25,-665.38 803.25,-684.62"/>
<text text-anchor="middle" x="759.25" y="-671.12" font-family="Helvetica,sans-Serif" font-size="10.00">LoadParameters</text>
</a>
</g>
</g>
<!-- Node70&#45;&gt;Node71 -->
<g id="edge38_Node000070_Node000071" class="edge">
<title>Node70&#45;&gt;Node71</title>
<g id="a_edge38_Node000070_Node000071"><a xlink:title=" ">
<path fill="none" stroke="#63b8ff" d="M627.77,-609.08C638.32,-612.65 649.44,-617.25 659,-623 677.85,-634.35 675.87,-646.12 695,-657 697.98,-658.69 701.13,-660.24 704.37,-661.65"/>
<polygon fill="#63b8ff" stroke="#63b8ff" points="702.93,-664.84 713.52,-665.14 705.43,-658.3 702.93,-664.84"/>
</a>
</g>
</g>
<!-- Node73&#45;&gt;Node65 -->
<g id="edge46_Node000073_Node000065" class="edge">
<title>Node73&#45;&gt;Node65</title>
<g id="a_edge46_Node000073_Node000065"><a xlink:title=" ">
<path fill="none" stroke="#63b8ff" d="M634.78,-572.12C653.41,-575.69 675.12,-579.24 695,-581 751.89,-586.02 771.76,-605.18 823.5,-581 856.13,-565.75 879.99,-529.56 892.41,-506.8"/>
<polygon fill="#63b8ff" stroke="#63b8ff" points="895.37,-508.68 896.87,-498.19 889.16,-505.46 895.37,-508.68"/>
</a>
</g>
</g>
<!-- Node74 -->
<g id="Node000074" class="node">
<title>Node74</title>
<g id="a_Node000074"><a xlink:href="BuddyWireless_8h.html#ace84aff90c63bee9a876eda720fbf8bc" target="_top" xlink:title=" ">
<polygon fill="white" stroke="#666666" points="804,-571.62 714.5,-571.62 714.5,-552.38 804,-552.38 804,-571.62"/>
<text text-anchor="middle" x="759.25" y="-558.12" font-family="Helvetica,sans-Serif" font-size="10.00">ChangeTXTarget</text>
</a>
</g>
</g>
<!-- Node73&#45;&gt;Node74 -->
<g id="edge40_Node000073_Node000074" class="edge">
<title>Node73&#45;&gt;Node74</title>
<g id="a_edge40_Node000073_Node000074"><a xlink:title=" ">
<path fill="none" stroke="#63b8ff" d="M638.34,-562C658.49,-562 681.81,-562 702.5,-562"/>
<polygon fill="#63b8ff" stroke="#63b8ff" points="702.49,-565.5 712.49,-562 702.49,-558.5 702.49,-565.5"/>
</a>
</g>
</g>
<!-- Node75 -->
<g id="Node000075" class="node">
<title>Node75</title>
<g id="a_Node000075"><a xlink:href="BuddyWireless_8h.html#af59c2527be7a67d6b09dd467f3123d55" target="_top" xlink:title=" ">
<polygon fill="#fff0f0" stroke="red" points="794.62,-647.62 723.88,-647.62 723.88,-628.38 794.62,-628.38 794.62,-647.62"/>
<text text-anchor="middle" x="759.25" y="-634.12" font-family="Helvetica,sans-Serif" font-size="10.00">GetPupilAck</text>
</a>
</g>
</g>
<!-- Node73&#45;&gt;Node75 -->
<g id="edge42_Node000073_Node000075" class="edge">
<title>Node73&#45;&gt;Node75</title>
<g id="a_edge42_Node000073_Node000075"><a xlink:title=" ">
<path fill="none" stroke="#63b8ff" d="M638.19,-571.29C645.41,-573.59 652.56,-576.46 659,-580 678.28,-590.61 676.35,-602.31 695,-614 700.88,-617.68 707.41,-620.94 713.98,-623.78"/>
<polygon fill="#63b8ff" stroke="#63b8ff" points="712.26,-626.86 722.85,-627.33 714.87,-620.37 712.26,-626.86"/>
</a>
</g>
</g>
<!-- Node77 -->
<g id="Node000077" class="node">
<title>Node77</title>
<g id="a_Node000077"><a xlink:href="BuddyWireless_8h.html#a89fc05df708fec875356b62d21b2ce7b" target="_top" xlink:title=" ">
<polygon fill="#fff0f0" stroke="red" points="797.62,-534.62 720.88,-534.62 720.88,-515.38 797.62,-515.38 797.62,-534.62"/>
<text text-anchor="middle" x="759.25" y="-521.12" font-family="Helvetica,sans-Serif" font-size="10.00">PupilDetected</text>
</a>
</g>
</g>
<!-- Node73&#45;&gt;Node77 -->
<g id="edge44_Node000073_Node000077" class="edge">
<title>Node73&#45;&gt;Node77</title>
<g id="a_edge44_Node000073_Node000077"><a xlink:title=" ">
<path fill="none" stroke="#63b8ff" d="M634.7,-551.89C657.85,-546.85 685.84,-540.76 709.32,-535.65"/>
<polygon fill="#63b8ff" stroke="#63b8ff" points="709.94,-539.1 718.96,-533.55 708.45,-532.26 709.94,-539.1"/>
</a>
</g>
</g>
<!-- Node74&#45;&gt;Node65 -->
<g id="edge41_Node000074_Node000065" class="edge">
<title>Node74&#45;&gt;Node65</title>
<g id="a_edge41_Node000074_Node000065"><a xlink:title=" ">
<path fill="none" stroke="#63b8ff" d="M803.53,-551.88C810.37,-549.66 817.24,-547.04 823.5,-544 845.23,-533.44 867.26,-516.85 882.45,-504.28"/>
<polygon fill="#63b8ff" stroke="#63b8ff" points="884.44,-507.18 889.81,-498.05 879.92,-501.84 884.44,-507.18"/>
</a>
</g>
</g>
<!-- Node75&#45;&gt;Node65 -->
<g id="edge43_Node000075_Node000065" class="edge">
<title>Node75&#45;&gt;Node65</title>
<g id="a_edge43_Node000075_Node000065"><a xlink:title=" ">
<path fill="none" stroke="#63b8ff" d="M794.93,-629.42C804.88,-625.8 815.25,-620.8 823.5,-614 858.86,-584.84 882.87,-535.41 894.35,-507.59"/>
<polygon fill="#63b8ff" stroke="#63b8ff" points="897.51,-509.11 897.94,-498.53 891.01,-506.54 897.51,-509.11"/>
</a>
</g>
</g>
<!-- Node77&#45;&gt;Node2 -->
<g id="edge45_Node000077_Node000002" class="edge">
<title>Node77&#45;&gt;Node2</title>
<g id="a_edge45_Node000077_Node000002"><a xlink:title=" ">
<path fill="none" stroke="#63b8ff" d="M720.56,-523.64C635.16,-521.14 420.61,-518.15 243.5,-543 233.17,-544.45 222.2,-546.73 211.9,-549.21"/>
<polygon fill="#63b8ff" stroke="#63b8ff" points="211.35,-545.73 202.51,-551.58 213.06,-552.52 211.35,-545.73"/>
</a>
</g>
</g>
<!-- Node79&#45;&gt;Node68 -->
<g id="edge54_Node000079_Node000068" class="edge">
<title>Node79&#45;&gt;Node68</title>
<g id="a_edge54_Node000079_Node000068"><a xlink:title=" ">
<path fill="none" stroke="#63b8ff" d="M599.67,-364.93C628.22,-339.73 702.97,-273.78 738.69,-242.26"/>
<polygon fill="#63b8ff" stroke="#63b8ff" points="740.56,-245.27 745.75,-236.03 735.93,-240.02 740.56,-245.27"/>
</a>
</g>
</g>
<!-- Node79&#45;&gt;Node65 -->
<g id="edge53_Node000079_Node000065" class="edge">
<title>Node79&#45;&gt;Node65</title>
<g id="a_edge53_Node000079_Node000065"><a xlink:title=" ">
<path fill="none" stroke="#63b8ff" d="M635.45,-384.27C694.03,-396.15 790.27,-417 823.5,-432 845.13,-441.76 867.03,-457.69 882.2,-469.9"/>
<polygon fill="#63b8ff" stroke="#63b8ff" points="879.61,-472.3 889.55,-475.97 884.07,-466.9 879.61,-472.3"/>
</a>
</g>
</g>
<!-- Node80 -->
<g id="Node000080" class="node">
<title>Node80</title>
<g id="a_Node000080"><a xlink:href="transceiver_8h.html#a953f1d5046e183549ed95b08f6d675e3" target="_top" xlink:title=" ">
<polygon fill="#fff0f0" stroke="red" points="807.75,-384.62 710.75,-384.62 710.75,-365.38 807.75,-365.38 807.75,-384.62"/>
<text text-anchor="middle" x="759.25" y="-371.12" font-family="Helvetica,sans-Serif" font-size="10.00">CheckGapsLength</text>
</a>
</g>
</g>
<!-- Node79&#45;&gt;Node80 -->
<g id="edge49_Node000079_Node000080" class="edge">
<title>Node79&#45;&gt;Node80</title>
<g id="a_edge49_Node000079_Node000080"><a xlink:title=" ">
<path fill="none" stroke="#63b8ff" d="M635.15,-375C654.89,-375 678.08,-375 698.98,-375"/>
<polygon fill="#63b8ff" stroke="#63b8ff" points="698.8,-378.5 708.8,-375 698.8,-371.5 698.8,-378.5"/>
</a>
</g>
</g>
<!-- Node82 -->
<g id="Node000082" class="node">
<title>Node82</title>
<g id="a_Node000082"><a xlink:href="TransmitterCode_2src_2main_8cpp.html#a62e53eb9359c32b666e3386d62c57037" target="_top" xlink:title=" ">
<polygon fill="#fff0f0" stroke="red" points="795,-347.62 723.5,-347.62 723.5,-328.38 795,-328.38 795,-347.62"/>
<text text-anchor="middle" x="759.25" y="-334.12" font-family="Helvetica,sans-Serif" font-size="10.00">GreenLedOn</text>
</a>
</g>
</g>
<!-- Node79&#45;&gt;Node82 -->
<g id="edge50_Node000079_Node000082" class="edge">
<title>Node79&#45;&gt;Node82</title>
<g id="a_edge50_Node000079_Node000082"><a xlink:title=" ">
<path fill="none" stroke="#63b8ff" d="M634.7,-364.89C658.81,-359.64 688.15,-353.26 712.2,-348.02"/>
<polygon fill="#63b8ff" stroke="#63b8ff" points="712.67,-351.5 721.7,-345.95 711.19,-344.66 712.67,-351.5"/>
</a>
</g>
</g>
<!-- Node101 -->
<g id="Node000101" class="node">
<title>Node101</title>
<g id="a_Node000101"><a xlink:href="transceiver_8h.html#a694f4f5a0147f4dc29b0bc1a8951547d" target="_top" xlink:title=" ">
<polygon fill="#fff0f0" stroke="red" points="805.88,-310.62 712.62,-310.62 712.62,-291.38 805.88,-291.38 805.88,-310.62"/>
<text text-anchor="middle" x="759.25" y="-297.12" font-family="Helvetica,sans-Serif" font-size="10.00">ParseAckPayload</text>
</a>
</g>
</g>
<!-- Node79&#45;&gt;Node101 -->
<g id="edge51_Node000079_Node000101" class="edge">
<title>Node79&#45;&gt;Node101</title>
<g id="a_edge51_Node000079_Node000101"><a xlink:title=" ">
<path fill="none" stroke="#63b8ff" d="M604.75,-364.97C625.3,-352.81 661.77,-332.28 695,-319 698.89,-317.45 702.96,-315.97 707.08,-314.58"/>
<polygon fill="#63b8ff" stroke="#63b8ff" points="708.1,-317.92 716.58,-311.56 705.98,-311.25 708.1,-317.92"/>
</a>
</g>
</g>
<!-- Node259 -->
<g id="Node000259" class="node">
<title>Node259</title>
<g id="a_Node000259"><a xlink:href="transceiver_8h.html#a04937e814dba3f5e07cb34bb13130ff3" target="_top" xlink:title=" ">
<polygon fill="#fff0f0" stroke="red" points="817.5,-497.62 701,-497.62 701,-478.38 817.5,-478.38 817.5,-497.62"/>
<text text-anchor="middle" x="759.25" y="-484.12" font-family="Helvetica,sans-Serif" font-size="10.00">ParseShortAckPayload</text>
</a>
</g>
</g>
<!-- Node79&#45;&gt;Node259 -->
<g id="edge52_Node000079_Node000259" class="edge">
<title>Node79&#45;&gt;Node259</title>
<g id="a_edge52_Node000079_Node000259"><a xlink:title=" ">
<path fill="none" stroke="#63b8ff" d="M635.2,-380.74C643.78,-383.43 652.16,-387.34 659,-393 688.1,-417.08 666.24,-445.51 695,-470 695.93,-470.8 696.9,-471.56 697.9,-472.28"/>
<polygon fill="#63b8ff" stroke="#63b8ff" points="695.82,-475.12 706.21,-477.19 699.38,-469.09 695.82,-475.12"/>
</a>
</g>
</g>
<!-- Node98 -->
<g id="Node000098" class="node">
<title>Node98</title>
<g id="a_Node000098"><a xlink:href="Utilities_8h.html#a793b7bcd77531c95fe72ed4356d421c8" target="_top" xlink:title=" ">
<polygon fill="white" stroke="#666666" points="813.75,-460.62 704.75,-460.62 704.75,-441.38 813.75,-441.38 813.75,-460.62"/>
<text text-anchor="middle" x="759.25" y="-447.12" font-family="Helvetica,sans-Serif" font-size="10.00">StartInactvityTimeout</text>
</a>
</g>
</g>
<!-- Node79&#45;&gt;Node98 -->
<g id="edge55_Node000079_Node000098" class="edge">
<title>Node79&#45;&gt;Node98</title>
<g id="a_edge55_Node000079_Node000098"><a xlink:title=" ">
<path fill="none" stroke="#63b8ff" d="M635.21,-383.36C643.42,-385.82 651.67,-388.97 659,-393 678.28,-403.61 676.35,-415.31 695,-427 700.88,-430.68 707.41,-433.94 713.98,-436.78"/>
<polygon fill="#63b8ff" stroke="#63b8ff" points="712.26,-439.86 722.85,-440.33 714.87,-433.37 712.26,-439.86"/>
</a>
</g>
</g>
</g>
</svg>
