<?xml version="1.0" encoding="UTF-8" standalone="no"?>
<!DOCTYPE svg PUBLIC "-//W3C//DTD SVG 1.1//EN"
 "http://www.w3.org/Graphics/SVG/1.1/DTD/svg11.dtd">
<!-- Generated by graphviz version 9.0.0 (20230911.1827)
 -->
<!-- Title: FixDeltaGMTSign Pages: 1 -->
<svg width="440pt" height="101pt"
 viewBox="0.00 0.00 440.25 101.25" xmlns="http://www.w3.org/2000/svg" xmlns:xlink="http://www.w3.org/1999/xlink">
<g id="graph0" class="graph" transform="scale(1 1) rotate(0) translate(4 97.25)">
<title>FixDeltaGMTSign</title>
<!-- Node1 -->
<g id="Node000001" class="node">
<title>Node1</title>
<g id="a_Node000001"><a xlink:title=" ">
<polygon fill="#999999" stroke="#666666" points="432.25,-56.25 339.75,-56.25 339.75,-37 432.25,-37 432.25,-56.25"/>
<text text-anchor="middle" x="386" y="-42.75" font-family="Helvetica,sans-Serif" font-size="10.00">FixDeltaGMTSign</text>
</a>
</g>
</g>
<!-- Node2 -->
<g id="Node000002" class="node">
<title>Node2</title>
<g id="a_Node000002"><a xlink:href="Utilities_8h.html#a483cced19b61975f76957f5696425fe9" target="_top" xlink:title=" ">
<polygon fill="white" stroke="#666666" points="285,-93.25 224.75,-93.25 224.75,-74 285,-74 285,-93.25"/>
<text text-anchor="middle" x="254.88" y="-79.75" font-family="Helvetica,sans-Serif" font-size="10.00">ReadTime</text>
</a>
</g>
</g>
<!-- Node1&#45;&gt;Node2 -->
<g id="edge1_Node000001_Node000002" class="edge">
<title>Node1&#45;&gt;Node2</title>
<g id="a_edge1_Node000001_Node000002"><a xlink:title=" ">
<path fill="none" stroke="#63b8ff" d="M338.69,-59.89C320.95,-64.98 301.2,-70.64 285.44,-75.15"/>
<polygon fill="#63b8ff" stroke="#63b8ff" points="339.61,-63.27 348.26,-57.15 337.68,-56.54 339.61,-63.27"/>
</a>
</g>
</g>
<!-- Node5 -->
<g id="Node000005" class="node">
<title>Node5</title>
<g id="a_Node000005"><a xlink:href="MenuOptions_8h.html#a364f7decd2b91610050af5a7d73ee13e" target="_top" xlink:title=" ">
<polygon fill="white" stroke="#666666" points="301.5,-56.25 208.25,-56.25 208.25,-37 301.5,-37 301.5,-56.25"/>
<text text-anchor="middle" x="254.88" y="-42.75" font-family="Helvetica,sans-Serif" font-size="10.00">SystemPage1End</text>
</a>
</g>
</g>
<!-- Node1&#45;&gt;Node5 -->
<g id="edge4_Node000001_Node000005" class="edge">
<title>Node1&#45;&gt;Node5</title>
<g id="a_edge4_Node000001_Node000005"><a xlink:title=" ">
<path fill="none" stroke="#63b8ff" d="M328.1,-46.62C319.33,-46.62 310.36,-46.62 301.86,-46.62"/>
<polygon fill="#63b8ff" stroke="#63b8ff" points="327.96,-50.13 337.96,-46.63 327.96,-43.13 327.96,-50.13"/>
</a>
</g>
</g>
<!-- Node6 -->
<g id="Node000006" class="node">
<title>Node6</title>
<g id="a_Node000006"><a xlink:href="MenuOptions_8h.html#a494cc8c6f40645d6528b9001b8725d3b" target="_top" xlink:title=" ">
<polygon fill="white" stroke="#666666" points="303.75,-19.25 206,-19.25 206,0 303.75,0 303.75,-19.25"/>
<text text-anchor="middle" x="254.88" y="-5.75" font-family="Helvetica,sans-Serif" font-size="10.00">SystemPage1Start</text>
</a>
</g>
</g>
<!-- Node1&#45;&gt;Node6 -->
<g id="edge5_Node000001_Node000006" class="edge">
<title>Node1&#45;&gt;Node6</title>
<g id="a_edge5_Node000001_Node000006"><a xlink:title=" ">
<path fill="none" stroke="#63b8ff" d="M339.1,-33.47C323.32,-28.95 305.91,-23.96 291.12,-19.72"/>
<polygon fill="#63b8ff" stroke="#63b8ff" points="337.68,-36.71 348.26,-36.1 339.61,-29.98 337.68,-36.71"/>
</a>
</g>
</g>
<!-- Node3 -->
<g id="Node000003" class="node">
<title>Node3</title>
<g id="a_Node000003"><a xlink:href="TransmitterCode_2src_2main_8cpp.html#a558ea014e230b7caa54ce5a37ad29b22" target="_top" xlink:title=" ">
<polygon fill="white" stroke="#666666" points="170,-93.25 70,-93.25 70,-74 170,-74 170,-93.25"/>
<text text-anchor="middle" x="120" y="-79.75" font-family="Helvetica,sans-Serif" font-size="10.00">ManageTransmitter</text>
</a>
</g>
</g>
<!-- Node2&#45;&gt;Node3 -->
<g id="edge2_Node000002_Node000003" class="edge">
<title>Node2&#45;&gt;Node3</title>
<g id="a_edge2_Node000002_Node000003"><a xlink:title=" ">
<path fill="none" stroke="#63b8ff" d="M213.01,-83.62C199.49,-83.62 184.32,-83.62 170.24,-83.62"/>
<polygon fill="#63b8ff" stroke="#63b8ff" points="212.87,-87.13 222.87,-83.63 212.87,-80.13 212.87,-87.13"/>
</a>
</g>
</g>
<!-- Node4 -->
<g id="Node000004" class="node">
<title>Node4</title>
<g id="a_Node000004"><a xlink:href="TransmitterCode_2src_2main_8cpp.html#ad3cb30894c94eb016e98bdcaa899ac86" target="_top" xlink:title=" ">
<polygon fill="white" stroke="#666666" points="34,-93.25 0,-93.25 0,-74 34,-74 34,-93.25"/>
<text text-anchor="middle" x="17" y="-79.75" font-family="Helvetica,sans-Serif" font-size="10.00">loop</text>
</a>
</g>
</g>
<!-- Node3&#45;&gt;Node4 -->
<g id="edge3_Node000003_Node000004" class="edge">
<title>Node3&#45;&gt;Node4</title>
<g id="a_edge3_Node000003_Node000004"><a xlink:title=" ">
<path fill="none" stroke="#63b8ff" d="M58.33,-83.62C49.48,-83.62 41.06,-83.62 34.23,-83.62"/>
<polygon fill="#63b8ff" stroke="#63b8ff" points="58.17,-87.13 68.17,-83.63 58.17,-80.13 58.17,-87.13"/>
</a>
</g>
</g>
</g>
</svg>
