G04 PROTEUS GERBER X2 FILE*
%TF.GenerationSoftware,Labcenter,Proteus,8.13-SP0-Build31525*%
%TF.CreationDate,2022-02-01T17:21:53+00:00*%
%TF.FileFunction,Copper,L2,Bot*%
%TF.FilePolarity,Positive*%
%TF.Part,Single*%
%TF.SameCoordinates,{1f8d9942-98d1-49a5-8421-286161f785e5}*%
%FSLAX45Y45*%
%MOMM*%
G01*
%TA.AperFunction,Conductor*%
%ADD10C,1.016000*%
%TA.AperFunction,ViaPad*%
%ADD11C,1.016000*%
%TA.AperFunction,ComponentPad*%
%ADD12C,2.032000*%
%TA.AperFunction,ComponentPad*%
%ADD14C,2.286000*%
%TA.AperFunction,ComponentPad*%
%ADD15R,2.032000X2.032000*%
%TA.AperFunction,ComponentPad*%
%ADD16C,1.778000*%
%TA.AperFunction,Profile*%
%ADD17C,0.203200*%
%TD.AperFunction*%
D10*
X-12319000Y+762000D02*
X-11874500Y+1206500D01*
X-11874500Y+2603500D01*
X-12065000Y+2794000D01*
X-11557000Y+1524000D02*
X-11747500Y+1714500D01*
X-11747500Y+2984500D01*
X-11620500Y+3111500D01*
X-9779000Y+3111500D01*
X-9080500Y+2413000D01*
X-8763000Y+2413000D01*
X-11620500Y+635000D02*
X-12636500Y-381000D01*
X-13081000Y-381000D01*
X-11557000Y+1524000D02*
X-11366500Y+1333500D01*
X-11366500Y+762000D01*
X-11620500Y+635000D02*
X-11493500Y+762000D01*
X-11366500Y+762000D01*
X-12319000Y+1016000D02*
X-12319000Y+1524000D01*
X-12065000Y+1778000D01*
X-12319000Y+508000D02*
X-12509500Y+508000D01*
X-12636500Y+635000D01*
X-12636500Y+889000D01*
X-12509500Y+1016000D01*
X-12319000Y+1016000D01*
X-10287000Y+2667000D02*
X-10096500Y+2667000D01*
X-9969500Y+2540000D01*
X-9969500Y-571500D01*
X-10795000Y-1397000D01*
X-11049000Y-1397000D01*
X-12065000Y+2032000D02*
X-13271500Y+825500D01*
X-13271500Y-1841500D01*
X-13144500Y-1968500D01*
X-9207500Y-1968500D01*
X-9080500Y-1841500D01*
X-9080500Y+1016000D01*
X-8953500Y+1143000D01*
X-8763000Y+1143000D01*
X-9271000Y-1016000D02*
X-9271000Y+1778000D01*
X-9144000Y+1905000D01*
X-8763000Y+1905000D01*
X-11557000Y+2286000D02*
X-11049000Y+1778000D01*
X-11049000Y+1079500D01*
X-9525000Y-1016000D02*
X-9525000Y+2032000D01*
X-9398000Y+2159000D01*
X-8763000Y+2159000D01*
X-10287000Y+2413000D02*
X-10668000Y+2413000D01*
X-10795000Y+2286000D01*
X-10795000Y-889000D01*
X-11049000Y-1143000D01*
D11*
X-11620500Y+635000D03*
X-11049000Y+1079500D03*
D12*
X-12319000Y+508000D03*
X-12319000Y+762000D03*
X-12319000Y+1016000D03*
D14*
X-10287000Y+2667000D03*
X-10287000Y+2413000D03*
X-10287000Y+2159000D03*
X-10287000Y+1905000D03*
X-10287000Y+1651000D03*
X-10287000Y+1397000D03*
X-10287000Y+1143000D03*
X-10287000Y+889000D03*
X-10287000Y+635000D03*
X-10287000Y+381000D03*
X-10287000Y+127000D03*
X-10287000Y-127000D03*
X-10287000Y-381000D03*
X-8763000Y-381000D03*
X-8763000Y-127000D03*
X-8763000Y+127000D03*
X-8763000Y+381000D03*
X-8763000Y+635000D03*
X-8763000Y+889000D03*
X-8763000Y+1143000D03*
X-8763000Y+1397000D03*
X-8763000Y+1651000D03*
X-8763000Y+1905000D03*
X-8763000Y+2159000D03*
X-8763000Y+2413000D03*
X-8763000Y+2667000D03*
X-8763000Y+2921000D03*
X-10287000Y+2921000D03*
D12*
X-11557000Y+1524000D03*
X-11557000Y+1778000D03*
X-11557000Y+2032000D03*
X-11557000Y+2286000D03*
X-11557000Y+2540000D03*
X-11557000Y+2794000D03*
X-10033000Y-1016000D03*
X-9779000Y-1016000D03*
X-9525000Y-1016000D03*
X-9271000Y-1016000D03*
D15*
X-11049000Y-381000D03*
D12*
X-11049000Y-635000D03*
X-11049000Y-889000D03*
X-11049000Y-1143000D03*
X-11049000Y-1397000D03*
X-11049000Y-1651000D03*
X-13081000Y-1651000D03*
X-13081000Y-1397000D03*
X-13081000Y-1143000D03*
X-13081000Y-889000D03*
X-13081000Y-635000D03*
X-13081000Y-381000D03*
D16*
X-12065000Y+1524000D03*
X-12065000Y+1778000D03*
X-12065000Y+2032000D03*
X-12065000Y+2286000D03*
X-12065000Y+2540000D03*
X-12065000Y+2794000D03*
D17*
X-13716000Y-2413000D02*
X-8509000Y-2413000D01*
X-8509000Y+3302000D01*
X-13716000Y+3302000D01*
X-13716000Y-2413000D01*
M02*
