G04 PROTEUS GERBER X2 FILE*
%TF.GenerationSoftware,Labcenter,Proteus,8.13-SP0-Build31525*%
%TF.CreationDate,2022-02-01T17:21:53+00:00*%
%TF.FileFunction,Soldermask,Bot*%
%TF.FilePolarity,Negative*%
%TF.Part,Single*%
%TF.SameCoordinates,{1f8d9942-98d1-49a5-8421-286161f785e5}*%
%FSLAX45Y45*%
%MOMM*%
G01*
%TA.AperFunction,Material*%
%ADD71C,1.270000*%
%TA.AperFunction,Material*%
%ADD20C,2.286000*%
%TA.AperFunction,Material*%
%ADD22C,2.540000*%
%AMPPAD015*
4,1,36,
1.143000,1.016000,
1.143000,-1.016000,
1.140470,-1.041970,
1.133200,-1.065980,
1.121650,-1.087580,
1.106290,-1.106290,
1.087570,-1.121650,
1.065980,-1.133200,
1.041970,-1.140470,
1.016000,-1.143000,
-1.016000,-1.143000,
-1.041970,-1.140470,
-1.065980,-1.133200,
-1.087570,-1.121650,
-1.106290,-1.106290,
-1.121650,-1.087580,
-1.133200,-1.065980,
-1.140470,-1.041970,
-1.143000,-1.016000,
-1.143000,1.016000,
-1.140470,1.041970,
-1.133200,1.065980,
-1.121650,1.087580,
-1.106290,1.106290,
-1.087570,1.121650,
-1.065980,1.133200,
-1.041970,1.140470,
-1.016000,1.143000,
1.016000,1.143000,
1.041970,1.140470,
1.065980,1.133200,
1.087570,1.121650,
1.106290,1.106290,
1.121650,1.087580,
1.133200,1.065980,
1.140470,1.041970,
1.143000,1.016000,
0*%
%TA.AperFunction,Material*%
%ADD23PPAD015*%
%TA.AperFunction,Profile*%
%ADD17C,0.203200*%
%TD.AperFunction*%
D71*
X-11620500Y+635000D03*
X-11049000Y+1079500D03*
D20*
X-12319000Y+508000D03*
X-12319000Y+762000D03*
X-12319000Y+1016000D03*
D22*
X-10287000Y+2667000D03*
X-10287000Y+2413000D03*
X-10287000Y+2159000D03*
X-10287000Y+1905000D03*
X-10287000Y+1651000D03*
X-10287000Y+1397000D03*
X-10287000Y+1143000D03*
X-10287000Y+889000D03*
X-10287000Y+635000D03*
X-10287000Y+381000D03*
X-10287000Y+127000D03*
X-10287000Y-127000D03*
X-10287000Y-381000D03*
X-8763000Y-381000D03*
X-8763000Y-127000D03*
X-8763000Y+127000D03*
X-8763000Y+381000D03*
X-8763000Y+635000D03*
X-8763000Y+889000D03*
X-8763000Y+1143000D03*
X-8763000Y+1397000D03*
X-8763000Y+1651000D03*
X-8763000Y+1905000D03*
X-8763000Y+2159000D03*
X-8763000Y+2413000D03*
X-8763000Y+2667000D03*
X-8763000Y+2921000D03*
X-10287000Y+2921000D03*
D20*
X-11557000Y+1524000D03*
X-11557000Y+1778000D03*
X-11557000Y+2032000D03*
X-11557000Y+2286000D03*
X-11557000Y+2540000D03*
X-11557000Y+2794000D03*
X-10033000Y-1016000D03*
X-9779000Y-1016000D03*
X-9525000Y-1016000D03*
X-9271000Y-1016000D03*
D23*
X-11049000Y-381000D03*
D20*
X-11049000Y-635000D03*
X-11049000Y-889000D03*
X-11049000Y-1143000D03*
X-11049000Y-1397000D03*
X-11049000Y-1651000D03*
X-13081000Y-1651000D03*
X-13081000Y-1397000D03*
X-13081000Y-1143000D03*
X-13081000Y-889000D03*
X-13081000Y-635000D03*
X-13081000Y-381000D03*
X-12065000Y+1524000D03*
X-12065000Y+1778000D03*
X-12065000Y+2032000D03*
X-12065000Y+2286000D03*
X-12065000Y+2540000D03*
X-12065000Y+2794000D03*
D17*
X-13716000Y-2413000D02*
X-8509000Y-2413000D01*
X-8509000Y+3302000D01*
X-13716000Y+3302000D01*
X-13716000Y-2413000D01*
M02*
