G04 PROTEUS GERBER X2 FILE*
%TF.GenerationSoftware,Labcenter,Proteus,8.15-SP1-Build34318*%
%TF.CreationDate,2023-08-09T10:16:53+00:00*%
%TF.FileFunction,Soldermask,Top*%
%TF.FilePolarity,Negative*%
%TF.Part,Single*%
%TF.SameCoordinates,{0049c899-80f1-4e30-9ba5-08a3a9b55963}*%
%FSLAX45Y45*%
%MOMM*%
G01*
%TA.AperFunction,Material*%
%ADD37C,0.812800*%
%ADD38C,1.016000*%
%AMPPAD033*
4,1,36,
1.143000,-1.270000,
-1.143000,-1.270000,
-1.168970,-1.267470,
-1.192980,-1.260200,
-1.214580,-1.248650,
-1.233290,-1.233290,
-1.248650,-1.214570,
-1.260200,-1.192980,
-1.267470,-1.168970,
-1.270000,-1.143000,
-1.270000,1.143000,
-1.267470,1.168970,
-1.260200,1.192980,
-1.248650,1.214570,
-1.233290,1.233290,
-1.214580,1.248650,
-1.192980,1.260200,
-1.168970,1.267470,
-1.143000,1.270000,
1.143000,1.270000,
1.168970,1.267470,
1.192980,1.260200,
1.214580,1.248650,
1.233290,1.233290,
1.248650,1.214570,
1.260200,1.192980,
1.267470,1.168970,
1.270000,1.143000,
1.270000,-1.143000,
1.267470,-1.168970,
1.260200,-1.192980,
1.248650,-1.214570,
1.233290,-1.233290,
1.214580,-1.248650,
1.192980,-1.260200,
1.168970,-1.267470,
1.143000,-1.270000,
0*%
%TA.AperFunction,Material*%
%ADD39PPAD033*%
%ADD40C,2.540000*%
%TA.AperFunction,Material*%
%ADD41C,2.286000*%
%AMPPAD036*
4,1,36,
-0.089800,-1.436840,
-1.436840,-0.089800,
-1.453420,-0.069650,
-1.465250,-0.047530,
-1.472360,-0.024090,
-1.474730,0.000000,
-1.472350,0.024100,
-1.465250,0.047530,
-1.453420,0.069650,
-1.436840,0.089800,
-0.089800,1.436840,
-0.069650,1.453420,
-0.047530,1.465250,
-0.024100,1.472350,
0.000000,1.474730,
0.024090,1.472360,
0.047530,1.465250,
0.069650,1.453420,
0.089800,1.436840,
1.436840,0.089800,
1.453420,0.069650,
1.465250,0.047530,
1.472360,0.024090,
1.474730,0.000000,
1.472350,-0.024100,
1.465250,-0.047530,
1.453420,-0.069650,
1.436840,-0.089800,
0.089800,-1.436840,
0.069650,-1.453420,
0.047530,-1.465250,
0.024100,-1.472350,
0.000000,-1.474730,
-0.024090,-1.472360,
-0.047530,-1.465250,
-0.069650,-1.453420,
-0.089800,-1.436840,
0*%
%ADD42PPAD036*%
%AMPPAD037*
4,1,4,
0.709440,1.733190,
1.733190,0.709440,
-0.709440,-1.733190,
-1.733190,-0.709440,
0.709440,1.733190,
0*%
%TA.AperFunction,Material*%
%ADD43PPAD037*%
%AMPPAD038*
4,1,4,
6.115550,-1.302140,
1.302140,-6.115550,
-6.115550,1.302140,
-1.302140,6.115550,
6.115550,-1.302140,
0*%
%ADD44PPAD038*%
%AMPPAD039*
4,1,36,
-1.143000,-1.016000,
-1.143000,1.016000,
-1.140470,1.041970,
-1.133200,1.065980,
-1.121650,1.087580,
-1.106290,1.106290,
-1.087570,1.121650,
-1.065980,1.133200,
-1.041970,1.140470,
-1.016000,1.143000,
1.016000,1.143000,
1.041970,1.140470,
1.065980,1.133200,
1.087570,1.121650,
1.106290,1.106290,
1.121650,1.087580,
1.133200,1.065980,
1.140470,1.041970,
1.143000,1.016000,
1.143000,-1.016000,
1.140470,-1.041970,
1.133200,-1.065980,
1.121650,-1.087580,
1.106290,-1.106290,
1.087570,-1.121650,
1.065980,-1.133200,
1.041970,-1.140470,
1.016000,-1.143000,
-1.016000,-1.143000,
-1.041970,-1.140470,
-1.065980,-1.133200,
-1.087570,-1.121650,
-1.106290,-1.106290,
-1.121650,-1.087580,
-1.133200,-1.065980,
-1.140470,-1.041970,
-1.143000,-1.016000,
0*%
%TA.AperFunction,Material*%
%ADD45PPAD039*%
%AMPPAD040*
4,1,36,
0.952500,-1.079500,
-0.952500,-1.079500,
-0.978470,-1.076970,
-1.002480,-1.069700,
-1.024080,-1.058150,
-1.042790,-1.042790,
-1.058150,-1.024070,
-1.069700,-1.002480,
-1.076970,-0.978470,
-1.079500,-0.952500,
-1.079500,0.952500,
-1.076970,0.978470,
-1.069700,1.002480,
-1.058150,1.024070,
-1.042790,1.042790,
-1.024080,1.058150,
-1.002480,1.069700,
-0.978470,1.076970,
-0.952500,1.079500,
0.952500,1.079500,
0.978470,1.076970,
1.002480,1.069700,
1.024080,1.058150,
1.042790,1.042790,
1.058150,1.024070,
1.069700,1.002480,
1.076970,0.978470,
1.079500,0.952500,
1.079500,-0.952500,
1.076970,-0.978470,
1.069700,-1.002480,
1.058150,-1.024070,
1.042790,-1.042790,
1.024080,-1.058150,
1.002480,-1.069700,
0.978470,-1.076970,
0.952500,-1.079500,
0*%
%ADD46PPAD040*%
%AMPPAD041*
4,1,36,
-1.079500,-0.952500,
-1.079500,0.952500,
-1.076970,0.978470,
-1.069700,1.002480,
-1.058150,1.024080,
-1.042790,1.042790,
-1.024070,1.058150,
-1.002480,1.069700,
-0.978470,1.076970,
-0.952500,1.079500,
0.952500,1.079500,
0.978470,1.076970,
1.002480,1.069700,
1.024070,1.058150,
1.042790,1.042790,
1.058150,1.024080,
1.069700,1.002480,
1.076970,0.978470,
1.079500,0.952500,
1.079500,-0.952500,
1.076970,-0.978470,
1.069700,-1.002480,
1.058150,-1.024080,
1.042790,-1.042790,
1.024070,-1.058150,
1.002480,-1.069700,
0.978470,-1.076970,
0.952500,-1.079500,
-0.952500,-1.079500,
-0.978470,-1.076970,
-1.002480,-1.069700,
-1.024070,-1.058150,
-1.042790,-1.042790,
-1.058150,-1.024080,
-1.069700,-1.002480,
-1.076970,-0.978470,
-1.079500,-0.952500,
0*%
%ADD47PPAD041*%
%TA.AperFunction,Material*%
%ADD48C,4.064000*%
%AMPPAD043*
4,1,4,
1.130300,0.901700,
1.130300,-0.901700,
-1.130300,-0.901700,
-1.130300,0.901700,
1.130300,0.901700,
0*%
%ADD49PPAD043*%
%AMPPAD044*
4,1,4,
-0.901700,-0.571500,
-0.901700,0.571500,
0.901700,0.571500,
0.901700,-0.571500,
-0.901700,-0.571500,
0*%
%ADD50PPAD044*%
%AMPPAD045*
4,1,4,
-0.525000,-0.525000,
-0.525000,0.525000,
0.525000,0.525000,
0.525000,-0.525000,
-0.525000,-0.525000,
0*%
%ADD51PPAD045*%
%ADD52C,1.050000*%
%TA.AperFunction,Profile*%
%ADD27C,0.203200*%
%TD.AperFunction*%
D37*
X+488900Y+7940944D03*
X+1107440Y+7350760D03*
X-520788Y+6827593D03*
D38*
X+2150774Y+8226667D03*
X+3829288Y+6716923D03*
D37*
X+4653280Y+8806180D03*
X+1025140Y+8087440D03*
X+1426303Y+8085997D03*
D38*
X+6117799Y+3774628D03*
X+6242472Y+3962259D03*
X+4129470Y+2956157D03*
D37*
X+6622155Y+3153038D03*
D38*
X+6545292Y+5799583D03*
X+7155494Y+4307006D03*
X+7093434Y+4534194D03*
X+5102447Y+3550301D03*
X+5102193Y+3222891D03*
X+5101278Y+2216461D03*
X+5089913Y+1963714D03*
X+5451997Y+2207997D03*
D37*
X+3228123Y+986443D03*
D38*
X+4994807Y+2224698D03*
X+3785580Y+1768554D03*
X+1833543Y+983624D03*
X+1116228Y+957165D03*
D37*
X+3289806Y+7883004D03*
X+4381892Y+7244737D03*
X+1632405Y+3727653D03*
D39*
X+3175000Y+8509000D03*
D40*
X+3175000Y+8763000D03*
X+3429000Y+8509000D03*
X+3429000Y+8763000D03*
X+3683000Y+8509000D03*
X+3683000Y+8763000D03*
X+3937000Y+8509000D03*
X+3937000Y+8763000D03*
D41*
X+5466136Y+3514786D03*
X+5286531Y+3694391D03*
X+5106926Y+3873997D03*
X+4927321Y+4053602D03*
X+4747716Y+4233207D03*
X+4568110Y+4412812D03*
X+4388505Y+4592417D03*
X+4208900Y+4772022D03*
X+4029295Y+4951627D03*
X+3849690Y+5131232D03*
X+3670085Y+5310837D03*
X+3490480Y+5490443D03*
X+2412849Y+4412812D03*
X+2592454Y+4233207D03*
X+2772059Y+4053602D03*
X+2951664Y+3873997D03*
X+3131269Y+3694391D03*
X+3310875Y+3514786D03*
X+3490480Y+3335181D03*
X+3670085Y+3155576D03*
X+3849690Y+2975971D03*
X+4029295Y+2796366D03*
X+4208900Y+2616761D03*
X+3131269Y+5849653D03*
X+2951664Y+6029258D03*
X+2772059Y+6208863D03*
X+2592454Y+6388468D03*
X+2412849Y+6568073D03*
X+2233244Y+6747678D03*
X+2053639Y+6927284D03*
X+1874034Y+7106889D03*
X+1694428Y+7286494D03*
X+616798Y+6208863D03*
X+796403Y+6029258D03*
X+976008Y+5849653D03*
X+1155613Y+5670048D03*
X+1335218Y+5490443D03*
X+1514823Y+5310837D03*
X+1694428Y+5131232D03*
X+1874034Y+4951627D03*
X+2053639Y+4772022D03*
D42*
X+5825346Y+3155576D03*
D41*
X+5645741Y+3335181D03*
X+3310875Y+5670048D03*
X+2233244Y+4592417D03*
X+4388505Y+2437156D03*
X+4568110Y+2257550D03*
X+4747716Y+2077945D03*
D42*
X+3344423Y+2331314D03*
X+3164818Y+2510919D03*
X+2985213Y+2690524D03*
X+2805608Y+2870129D03*
X+2626003Y+3049734D03*
X+2446398Y+3229339D03*
X+2266793Y+3408945D03*
X+2087188Y+3588550D03*
D41*
X+3524029Y+2510919D03*
X+3344423Y+2690524D03*
X+3164818Y+2870129D03*
X+2985213Y+3049734D03*
X+2805608Y+3229339D03*
X+2626003Y+3408945D03*
X+2446398Y+3588550D03*
X+2266793Y+3768155D03*
X+3703634Y+2690524D03*
X+3524029Y+2870129D03*
X+3344423Y+3049734D03*
X+3164818Y+3229339D03*
X+2985213Y+3408945D03*
X+2805608Y+3588550D03*
X+2626003Y+3768155D03*
X+2446398Y+3947760D03*
D42*
X+1452189Y+4158186D03*
X+1272584Y+4337791D03*
X+1092979Y+4517396D03*
X+913374Y+4697002D03*
X+733769Y+4876607D03*
X+554164Y+5056212D03*
X+374558Y+5235817D03*
X+194953Y+5415422D03*
D41*
X+1631794Y+4337791D03*
X+1452189Y+4517396D03*
X+1272584Y+4697002D03*
X+1092979Y+4876607D03*
X+913374Y+5056212D03*
X+733769Y+5235817D03*
X+554164Y+5415422D03*
X+374558Y+5595027D03*
X+1811399Y+4517396D03*
X+1631794Y+4697002D03*
X+1452189Y+4876607D03*
X+1272584Y+5056212D03*
X+1092979Y+5235817D03*
X+913374Y+5415422D03*
X+733769Y+5595027D03*
X+554164Y+5774632D03*
D42*
X+2598221Y+7517745D03*
X+2777826Y+7338140D03*
X+2957431Y+7158535D03*
X+3137036Y+6978930D03*
X+3316641Y+6799325D03*
X+3496247Y+6619720D03*
X+3675852Y+6440115D03*
X+3855457Y+6260510D03*
D41*
X+2418616Y+7338140D03*
X+2598221Y+7158535D03*
X+2777826Y+6978930D03*
X+2957431Y+6799325D03*
X+3137036Y+6619720D03*
X+3316641Y+6440115D03*
X+3496247Y+6260510D03*
X+3675852Y+6080904D03*
X+2239011Y+7158535D03*
X+2418616Y+6978930D03*
X+2598221Y+6799325D03*
X+2777826Y+6619720D03*
X+2957431Y+6440115D03*
X+3137036Y+6260510D03*
X+3316641Y+6080904D03*
X+3496247Y+5901299D03*
D43*
X+1024012Y+7525341D03*
X+844407Y+7704946D03*
X+664802Y+7884551D03*
D44*
X+73660Y+6934200D03*
D45*
X+5163820Y+8371840D03*
X+5163820Y+8625840D03*
X+5163820Y+8879840D03*
X+6261100Y+8364220D03*
X+6261100Y+8618220D03*
X+6261100Y+8872220D03*
D41*
X-190518Y+3203108D03*
D46*
X-190517Y+3457107D03*
D41*
X-190518Y+3711108D03*
D42*
X+5771950Y+3801310D03*
D41*
X+5592345Y+3980915D03*
X+5412740Y+4160520D03*
X+5233135Y+4340125D03*
X+5544098Y+267434D03*
D47*
X+5798098Y+267434D03*
D41*
X+6052097Y+267434D03*
X+3461986Y+1355766D03*
X+3715986Y+1355766D03*
D47*
X+3969986Y+1355766D03*
X+4223986Y+1355766D03*
D41*
X+4477986Y+1355766D03*
X+4731986Y+1355766D03*
X+4985986Y+85766D03*
X+4731986Y+85767D03*
X+4477985Y+85766D03*
D47*
X+4223985Y+85766D03*
X+3969986Y+85766D03*
D41*
X+3715986Y+85766D03*
X+3461986Y+85766D03*
X+450937Y+109568D03*
X+704937Y+109568D03*
X+958937Y+109568D03*
X+1212937Y+109568D03*
X+1466936Y+109568D03*
X+1720937Y+109568D03*
D46*
X+6863476Y+5386010D03*
D41*
X+6609476Y+5386010D03*
X+6355476Y+5386010D03*
X+6101475Y+5386010D03*
X+5847475Y+5386010D03*
X+5466476Y+7799010D03*
X+5720475Y+7799010D03*
X+5974475Y+7799010D03*
X+6228476Y+7799011D03*
X+6482476Y+7799011D03*
X+6736476Y+7799010D03*
D46*
X+6990476Y+7799010D03*
D47*
X+7480300Y+3995420D03*
D41*
X+7480300Y+4249420D03*
X+7480300Y+4503420D03*
X+7480300Y+4757420D03*
X+7480300Y+5011420D03*
X+7513320Y+2405380D03*
X+7513320Y+2659380D03*
D40*
X+3990652Y+4469608D03*
X+4709072Y+3751188D03*
X+5610442Y+2886356D03*
X+4892022Y+3604776D03*
D48*
X+5560060Y+7119620D03*
X+7310060Y+7119620D03*
X+5598160Y+6276340D03*
X+7348160Y+6276340D03*
D49*
X+2228304Y+8756278D03*
X+2228304Y+8466278D03*
D50*
X+2837467Y+8473972D03*
X+2837467Y+8773972D03*
D51*
X+2740660Y+517620D03*
D52*
X+2740660Y+767620D03*
D41*
X-53340Y+2382520D03*
D47*
X+200660Y+2382520D03*
D41*
X+454660Y+2382520D03*
D27*
X-619760Y-63500D02*
X+7683500Y-63500D01*
X+7683500Y+9080500D01*
X-619760Y+9080500D01*
X-619760Y-63500D01*
M02*
