G04 PROTEUS GERBER X2 FILE*
%TF.GenerationSoftware,Labcenter,Proteus,8.15-SP1-Build34318*%
%TF.CreationDate,2023-08-09T10:16:53+00:00*%
%TF.FileFunction,AssemblyDrawing,Bot*%
%TF.FilePolarity,Positive*%
%TF.Part,Single*%
%TF.SameCoordinates,{0049c899-80f1-4e30-9ba5-08a3a9b55963}*%
%FSLAX45Y45*%
%MOMM*%
G01*
%TA.AperFunction,Profile*%
%ADD27C,0.203200*%
%TA.AperFunction,Material*%
%ADD31C,0.203200*%
%ADD99C,1.293160*%
%ADD100C,0.174220*%
%ADD101C,1.524000*%
%ADD102C,0.305990*%
%ADD76C,0.050000*%
%ADD103C,0.975360*%
%ADD104C,0.139680*%
%ADD105C,1.149470*%
%ADD85C,0.083670*%
%ADD94C,0.721360*%
%ADD81C,0.082770*%
%ADD106C,0.833360*%
%ADD98C,0.065100*%
%ADD95C,0.066220*%
%TD.AperFunction*%
D27*
X-619760Y-63500D02*
X+7683500Y-63500D01*
X+7683500Y+9080500D01*
X-619760Y+9080500D01*
X-619760Y-63500D01*
D31*
X+4689315Y+3569787D02*
X+3809250Y+4449852D01*
X+4012204Y+4652806D01*
X+4892269Y+3772741D01*
X+4689315Y+3569787D01*
D99*
X+4709072Y+3751188D02*
X+4709072Y+3751188D01*
D100*
X+3970269Y+4467149D02*
X+3973349Y+4414792D01*
X+4047264Y+4488707D01*
X+4102701Y+4433271D02*
X+4028785Y+4359355D01*
X+4185855Y+4350116D01*
X+4111940Y+4276201D01*
X+4272089Y+4214605D02*
X+4188935Y+4297759D01*
X+4195095Y+4193046D01*
X+4269010Y+4266961D01*
X+4312127Y+4199205D02*
X+4262850Y+4149928D01*
X+4264390Y+4123751D01*
X+4319826Y+4068314D01*
X+4346005Y+4066774D01*
X+4395282Y+4116051D01*
X+4393742Y+4142230D01*
X+4338305Y+4197666D01*
X+4312127Y+4199205D01*
X+4324447Y+4211525D02*
X+4333686Y+4054455D01*
X+4423000Y+4088332D02*
X+4373723Y+4039055D01*
X+4375263Y+4012878D01*
X+4430699Y+3957441D01*
X+4456878Y+3955901D01*
X+4506155Y+4005178D01*
X+4504615Y+4031357D01*
X+4449178Y+4086793D01*
X+4423000Y+4088332D01*
X+4435320Y+4100652D02*
X+4444559Y+3943582D01*
X+4524634Y+3912784D02*
X+4527714Y+3860427D01*
X+4601629Y+3934342D01*
D31*
X+4911779Y+3786177D02*
X+5791844Y+2906112D01*
X+5588890Y+2703158D01*
X+4708825Y+3583223D01*
X+4911779Y+3786177D01*
D99*
X+4892022Y+3604776D02*
X+4892022Y+3604776D01*
D100*
X+4996385Y+3473979D02*
X+4999465Y+3421622D01*
X+5073380Y+3495537D01*
X+5128817Y+3440101D02*
X+5054901Y+3366185D01*
X+5211971Y+3356946D01*
X+5138056Y+3283031D01*
X+5298205Y+3221435D02*
X+5215051Y+3304589D01*
X+5221211Y+3199876D01*
X+5295126Y+3273791D01*
X+5338243Y+3206035D02*
X+5288966Y+3156758D01*
X+5290506Y+3130581D01*
X+5345942Y+3075144D01*
X+5372121Y+3073604D01*
X+5421398Y+3122881D01*
X+5419858Y+3149060D01*
X+5364421Y+3204496D01*
X+5338243Y+3206035D01*
X+5350563Y+3218355D02*
X+5359802Y+3061285D01*
X+5449116Y+3095162D02*
X+5399839Y+3045885D01*
X+5401379Y+3019708D01*
X+5456815Y+2964271D01*
X+5482994Y+2962731D01*
X+5532271Y+3012008D01*
X+5530731Y+3038187D01*
X+5475294Y+3093623D01*
X+5449116Y+3095162D01*
X+5461436Y+3107482D02*
X+5470675Y+2950412D01*
X+5550750Y+2919614D02*
X+5553830Y+2867257D01*
X+5627745Y+2941172D01*
D31*
X+5369560Y+6839460D02*
X+7500560Y+6839460D01*
X+7500560Y+7399780D01*
X+5369560Y+7399780D01*
X+5369560Y+6839460D01*
D101*
X+7310060Y+7119620D02*
X+7310060Y+7119620D01*
D102*
X+7059049Y+7150219D02*
X+6990200Y+7211418D01*
X+6990200Y+7027821D01*
X+6852502Y+7027821D02*
X+6852502Y+7211418D01*
X+6645955Y+7027821D01*
X+6645955Y+7211418D01*
X+6370559Y+7211418D02*
X+6542682Y+7211418D01*
X+6542682Y+7150219D01*
X+6404984Y+7150219D01*
X+6370559Y+7119620D01*
X+6370559Y+7058420D01*
X+6404984Y+7027821D01*
X+6508257Y+7027821D01*
X+6542682Y+7058420D01*
X+6095163Y+7089020D02*
X+6301710Y+7089020D01*
X+6164012Y+7211418D01*
X+6164012Y+7027821D01*
X+6026314Y+7058420D02*
X+6026314Y+7180819D01*
X+5991890Y+7211418D01*
X+5854192Y+7211418D01*
X+5819767Y+7180819D01*
X+5819767Y+7058420D01*
X+5854192Y+7027821D01*
X+5991890Y+7027821D01*
X+6026314Y+7058420D01*
X+6026314Y+7027821D02*
X+5819767Y+7211418D01*
X+5544371Y+7180819D02*
X+5578796Y+7211418D01*
X+5682069Y+7211418D01*
X+5716494Y+7180819D01*
X+5716494Y+7058420D01*
X+5682069Y+7027821D01*
X+5578796Y+7027821D01*
X+5544371Y+7058420D01*
X+5544371Y+7089020D01*
X+5578796Y+7119620D01*
X+5716494Y+7119620D01*
D31*
X+5407660Y+5996180D02*
X+7538660Y+5996180D01*
X+7538660Y+6556500D01*
X+5407660Y+6556500D01*
X+5407660Y+5996180D01*
D101*
X+7348160Y+6276340D02*
X+7348160Y+6276340D01*
D102*
X+7097149Y+6306939D02*
X+7028300Y+6368138D01*
X+7028300Y+6184541D01*
X+6890602Y+6184541D02*
X+6890602Y+6368138D01*
X+6684055Y+6184541D01*
X+6684055Y+6368138D01*
X+6408659Y+6368138D02*
X+6580782Y+6368138D01*
X+6580782Y+6306939D01*
X+6443084Y+6306939D01*
X+6408659Y+6276340D01*
X+6408659Y+6215140D01*
X+6443084Y+6184541D01*
X+6546357Y+6184541D01*
X+6580782Y+6215140D01*
X+6133263Y+6245740D02*
X+6339810Y+6245740D01*
X+6202112Y+6368138D01*
X+6202112Y+6184541D01*
X+6064414Y+6215140D02*
X+6064414Y+6337539D01*
X+6029990Y+6368138D01*
X+5892292Y+6368138D01*
X+5857867Y+6337539D01*
X+5857867Y+6215140D01*
X+5892292Y+6184541D01*
X+6029990Y+6184541D01*
X+6064414Y+6215140D01*
X+6064414Y+6184541D02*
X+5857867Y+6368138D01*
X+5582471Y+6337539D02*
X+5616896Y+6368138D01*
X+5720169Y+6368138D01*
X+5754594Y+6337539D01*
X+5754594Y+6215140D01*
X+5720169Y+6184541D01*
X+5616896Y+6184541D01*
X+5582471Y+6215140D01*
X+5582471Y+6245740D01*
X+5616896Y+6276340D01*
X+5754594Y+6276340D01*
D76*
X+7138400Y+4811220D02*
X+7138400Y+3901220D01*
X+6628400Y+3901220D01*
X+6628400Y+4811220D01*
X+7138400Y+4811220D01*
X+6833400Y+4356220D02*
X+6933400Y+4356220D01*
X+6883400Y+4306220D02*
X+6883400Y+4406220D01*
D103*
X+6883400Y+4666220D02*
X+6883400Y+4666220D01*
D104*
X+6855464Y+4556654D02*
X+6841496Y+4540940D01*
X+6841496Y+4493798D01*
X+6855464Y+4478084D01*
X+6869432Y+4478084D01*
X+6883400Y+4493798D01*
X+6897369Y+4478084D01*
X+6911337Y+4478084D01*
X+6925305Y+4493798D01*
X+6925305Y+4540940D01*
X+6911337Y+4556654D01*
X+6883400Y+4525226D02*
X+6883400Y+4493798D01*
X+6855464Y+4430941D02*
X+6841496Y+4415227D01*
X+6841496Y+4368085D01*
X+6855464Y+4352371D01*
X+6869432Y+4352371D01*
X+6883400Y+4368085D01*
X+6897369Y+4352371D01*
X+6911337Y+4352371D01*
X+6925305Y+4368085D01*
X+6925305Y+4415227D01*
X+6911337Y+4430941D01*
X+6883400Y+4399513D02*
X+6883400Y+4368085D01*
X+6911337Y+4320942D02*
X+6855464Y+4320942D01*
X+6841496Y+4305228D01*
X+6841496Y+4242372D01*
X+6855464Y+4226658D01*
X+6911337Y+4226658D01*
X+6925305Y+4242372D01*
X+6925305Y+4305228D01*
X+6911337Y+4320942D01*
X+6925305Y+4320942D02*
X+6841496Y+4226658D01*
X+6841496Y+4195229D02*
X+6911337Y+4195229D01*
X+6925305Y+4179515D01*
X+6925305Y+4116659D01*
X+6911337Y+4100945D01*
X+6841496Y+4100945D01*
X+6925305Y+4069516D02*
X+6841496Y+4069516D01*
X+6841496Y+3975232D01*
X+6883400Y+4069516D02*
X+6883400Y+4006660D01*
D76*
X+386005Y+7675201D02*
X+753701Y+7307505D01*
X+506214Y+7060018D01*
X+138518Y+7427714D01*
X+386005Y+7675201D01*
X+410754Y+7332254D02*
X+481465Y+7402965D01*
X+481465Y+7332254D02*
X+410754Y+7402965D01*
D105*
X+343579Y+7470140D02*
X+343579Y+7470140D01*
D85*
X+580447Y+7366390D02*
X+620383Y+7406325D01*
X+570094Y+7403368D01*
X+605592Y+7367869D01*
X+536815Y+7370089D02*
X+503535Y+7336809D01*
X+509451Y+7330892D01*
X+572313Y+7334590D01*
X+490222Y+7323496D02*
X+519804Y+7293914D01*
X+519065Y+7281342D01*
X+492441Y+7254718D01*
X+479869Y+7253979D01*
X+450287Y+7283561D01*
X+472473Y+7234751D02*
X+436975Y+7270249D01*
X+397040Y+7230314D01*
X+454724Y+7252500D02*
X+428101Y+7225877D01*
D76*
X+3120960Y+389420D02*
X+3120960Y+859420D01*
X+3350960Y+859420D01*
X+3350960Y+389420D01*
X+3120960Y+389420D01*
X+3285960Y+624420D02*
X+3185960Y+624420D01*
X+3235960Y+674420D02*
X+3235960Y+574420D01*
D94*
X+3235960Y+474420D02*
X+3235960Y+474420D01*
D81*
X+3227683Y+816579D02*
X+3211127Y+797954D01*
X+3260794Y+797954D01*
X+3252516Y+760704D02*
X+3219405Y+760704D01*
X+3211127Y+751392D01*
X+3211127Y+714142D01*
X+3219405Y+704829D01*
X+3252516Y+704829D01*
X+3260794Y+714142D01*
X+3260794Y+751392D01*
X+3252516Y+760704D01*
X+3260794Y+760704D02*
X+3211127Y+704829D01*
X+3211127Y+686204D02*
X+3252516Y+686204D01*
X+3260794Y+676892D01*
X+3260794Y+639642D01*
X+3252516Y+630329D01*
X+3211127Y+630329D01*
X+3260794Y+611704D02*
X+3211127Y+611704D01*
X+3211127Y+555829D01*
X+3235960Y+611704D02*
X+3235960Y+574454D01*
D76*
X+63081Y+7294061D02*
X+395421Y+6961721D01*
X+232787Y+6799087D01*
X-99553Y+7131427D01*
X+63081Y+7294061D01*
X+112579Y+7011219D02*
X+183289Y+7081929D01*
X+183289Y+7011219D02*
X+112579Y+7081929D01*
D106*
X+41868Y+7152640D02*
X+41868Y+7152640D01*
D98*
X+95781Y+7089521D02*
X+96932Y+7069956D01*
X+124552Y+7097577D01*
X+140664Y+7072258D02*
X+122250Y+7053844D01*
X+122825Y+7044063D01*
X+143541Y+7023348D01*
X+153323Y+7022772D01*
X+171737Y+7041186D01*
X+171161Y+7050968D01*
X+150446Y+7071683D01*
X+140664Y+7072258D01*
X+145267Y+7076861D02*
X+148720Y+7018169D01*
X+182094Y+7030828D02*
X+163680Y+7012414D01*
X+164255Y+7002633D01*
X+184971Y+6981918D01*
X+194753Y+6981342D01*
X+213167Y+6999756D01*
X+212591Y+7009538D01*
X+191876Y+7030253D01*
X+182094Y+7030828D01*
X+186697Y+7035431D02*
X+190150Y+6976739D01*
X+228127Y+6994001D02*
X+200507Y+6966381D01*
X+259200Y+6962929D01*
X+231580Y+6935309D01*
X+269557Y+6952571D02*
X+241937Y+6924951D01*
X+273010Y+6893879D01*
X+255747Y+6938761D02*
X+276462Y+6918046D01*
D76*
X+5465380Y+8284300D02*
X+5465380Y+8754300D01*
X+5695380Y+8754300D01*
X+5695380Y+8284300D01*
X+5465380Y+8284300D01*
X+5630380Y+8519300D02*
X+5530380Y+8519300D01*
X+5580380Y+8569300D02*
X+5580380Y+8469300D01*
D94*
X+5580380Y+8369300D02*
X+5580380Y+8369300D01*
D95*
X+5567136Y+8722632D02*
X+5560514Y+8715182D01*
X+5560514Y+8692832D01*
X+5567136Y+8685382D01*
X+5573758Y+8685382D01*
X+5580380Y+8692832D01*
X+5587003Y+8685382D01*
X+5593625Y+8685382D01*
X+5600247Y+8692832D01*
X+5600247Y+8715182D01*
X+5593625Y+8722632D01*
X+5580380Y+8707732D02*
X+5580380Y+8692832D01*
X+5567136Y+8663033D02*
X+5560514Y+8655583D01*
X+5560514Y+8633233D01*
X+5567136Y+8625783D01*
X+5573758Y+8625783D01*
X+5580380Y+8633233D01*
X+5587003Y+8625783D01*
X+5593625Y+8625783D01*
X+5600247Y+8633233D01*
X+5600247Y+8655583D01*
X+5593625Y+8663033D01*
X+5580380Y+8648133D02*
X+5580380Y+8633233D01*
X+5593625Y+8610883D02*
X+5567136Y+8610883D01*
X+5560514Y+8603434D01*
X+5560514Y+8573634D01*
X+5567136Y+8566184D01*
X+5593625Y+8566184D01*
X+5600247Y+8573634D01*
X+5600247Y+8603434D01*
X+5593625Y+8610883D01*
X+5600247Y+8610883D02*
X+5560514Y+8566184D01*
X+5600247Y+8551284D02*
X+5560514Y+8551284D01*
X+5600247Y+8506585D01*
X+5560514Y+8506585D01*
X+5600247Y+8491685D02*
X+5560514Y+8491685D01*
X+5560514Y+8446986D01*
X+5580380Y+8491685D02*
X+5580380Y+8461886D01*
D76*
X+6585520Y+8472260D02*
X+6585520Y+8942260D01*
X+6815520Y+8942260D01*
X+6815520Y+8472260D01*
X+6585520Y+8472260D01*
X+6750520Y+8707260D02*
X+6650520Y+8707260D01*
X+6700520Y+8757260D02*
X+6700520Y+8657260D01*
D94*
X+6700520Y+8557260D02*
X+6700520Y+8557260D01*
D95*
X+6693898Y+8903142D02*
X+6680654Y+8888242D01*
X+6720387Y+8888242D01*
X+6713765Y+8858442D02*
X+6687276Y+8858442D01*
X+6680654Y+8850993D01*
X+6680654Y+8821193D01*
X+6687276Y+8813743D01*
X+6713765Y+8813743D01*
X+6720387Y+8821193D01*
X+6720387Y+8850993D01*
X+6713765Y+8858442D01*
X+6720387Y+8858442D02*
X+6680654Y+8813743D01*
X+6713765Y+8798843D02*
X+6687276Y+8798843D01*
X+6680654Y+8791394D01*
X+6680654Y+8761594D01*
X+6687276Y+8754144D01*
X+6713765Y+8754144D01*
X+6720387Y+8761594D01*
X+6720387Y+8791394D01*
X+6713765Y+8798843D01*
X+6720387Y+8798843D02*
X+6680654Y+8754144D01*
X+6720387Y+8739244D02*
X+6680654Y+8739244D01*
X+6720387Y+8694545D01*
X+6680654Y+8694545D01*
X+6720387Y+8679645D02*
X+6680654Y+8679645D01*
X+6680654Y+8634946D01*
X+6700520Y+8679645D02*
X+6700520Y+8649846D01*
D76*
X+4538280Y+8421180D02*
X+4538280Y+8891180D01*
X+4768280Y+8891180D01*
X+4768280Y+8421180D01*
X+4538280Y+8421180D01*
X+4703280Y+8656180D02*
X+4603280Y+8656180D01*
X+4653280Y+8706180D02*
X+4653280Y+8606180D01*
D94*
X+4653280Y+8506180D02*
X+4653280Y+8506180D01*
D95*
X+4646658Y+8852062D02*
X+4633414Y+8837162D01*
X+4673147Y+8837162D01*
X+4666525Y+8807362D02*
X+4640036Y+8807362D01*
X+4633414Y+8799913D01*
X+4633414Y+8770113D01*
X+4640036Y+8762663D01*
X+4666525Y+8762663D01*
X+4673147Y+8770113D01*
X+4673147Y+8799913D01*
X+4666525Y+8807362D01*
X+4673147Y+8807362D02*
X+4633414Y+8762663D01*
X+4666525Y+8747763D02*
X+4640036Y+8747763D01*
X+4633414Y+8740314D01*
X+4633414Y+8710514D01*
X+4640036Y+8703064D01*
X+4666525Y+8703064D01*
X+4673147Y+8710514D01*
X+4673147Y+8740314D01*
X+4666525Y+8747763D01*
X+4673147Y+8747763D02*
X+4633414Y+8703064D01*
X+4673147Y+8688164D02*
X+4633414Y+8688164D01*
X+4673147Y+8643465D01*
X+4633414Y+8643465D01*
X+4673147Y+8628565D02*
X+4633414Y+8628565D01*
X+4633414Y+8583866D01*
X+4653280Y+8628565D02*
X+4653280Y+8598766D01*
D76*
X+4911280Y+7985060D02*
X+4441280Y+7985060D01*
X+4441280Y+8215060D01*
X+4911280Y+8215060D01*
X+4911280Y+7985060D01*
X+4676280Y+8150060D02*
X+4676280Y+8050060D01*
X+4626280Y+8100060D02*
X+4726280Y+8100060D01*
D94*
X+4826280Y+8100060D02*
X+4826280Y+8100060D01*
D95*
X+4756044Y+8113304D02*
X+4748594Y+8119926D01*
X+4726244Y+8119926D01*
X+4718794Y+8113304D01*
X+4718794Y+8106682D01*
X+4726244Y+8100060D01*
X+4718794Y+8093437D01*
X+4718794Y+8086815D01*
X+4726244Y+8080193D01*
X+4748594Y+8080193D01*
X+4756044Y+8086815D01*
X+4741144Y+8100060D02*
X+4726244Y+8100060D01*
X+4696445Y+8113304D02*
X+4688995Y+8119926D01*
X+4666645Y+8119926D01*
X+4659195Y+8113304D01*
X+4659195Y+8106682D01*
X+4666645Y+8100060D01*
X+4659195Y+8093437D01*
X+4659195Y+8086815D01*
X+4666645Y+8080193D01*
X+4688995Y+8080193D01*
X+4696445Y+8086815D01*
X+4681545Y+8100060D02*
X+4666645Y+8100060D01*
X+4644295Y+8086815D02*
X+4644295Y+8113304D01*
X+4636846Y+8119926D01*
X+4607046Y+8119926D01*
X+4599596Y+8113304D01*
X+4599596Y+8086815D01*
X+4607046Y+8080193D01*
X+4636846Y+8080193D01*
X+4644295Y+8086815D01*
X+4644295Y+8080193D02*
X+4599596Y+8119926D01*
X+4584696Y+8080193D02*
X+4584696Y+8119926D01*
X+4539997Y+8080193D01*
X+4539997Y+8119926D01*
X+4525097Y+8080193D02*
X+4525097Y+8119926D01*
X+4480398Y+8119926D01*
X+4525097Y+8100060D02*
X+4495298Y+8100060D01*
M02*
