G04 PROTEUS GERBER X2 FILE*
%TF.GenerationSoftware,Labcenter,Proteus,8.15-SP1-Build34318*%
%TF.CreationDate,2024-05-26T10:12:06+00:00*%
%TF.FileFunction,AssemblyDrawing,Top*%
%TF.FilePolarity,Positive*%
%TF.Part,Single*%
%TF.SameCoordinates,{c1c5c1e2-d9f3-4829-891e-9e67f3fcbee4}*%
%FSLAX45Y45*%
%MOMM*%
G01*
%TA.AperFunction,Profile*%
%ADD23C,0.203200*%
%TA.AperFunction,Material*%
%ADD26C,0.203200*%
%ADD56C,0.914400*%
%ADD57C,0.812190*%
%ADD58C,0.762000*%
%ADD59C,0.462270*%
%ADD60C,0.685800*%
%ADD61C,0.474420*%
%ADD62C,0.050000*%
%ADD63C,1.303020*%
%ADD64C,0.382110*%
%ADD65C,0.812800*%
%ADD66C,0.194730*%
%ADD67C,0.904240*%
%ADD68C,0.113980*%
%ADD69C,0.721360*%
%ADD74C,0.110370*%
%ADD75C,0.711200*%
%ADD76C,0.128010*%
%ADD77C,0.080270*%
%ADD78C,0.508000*%
%TD.AperFunction*%
D23*
X-4859022Y-1330960D02*
X+902970Y-1330960D01*
X+902970Y+1882140D01*
X-4859022Y+1882140D01*
X-4859022Y-1330960D01*
D26*
X-2797810Y-774700D02*
X+778510Y-774700D01*
X+778510Y+1023620D01*
X-2797810Y+1023620D01*
X-2797810Y-774700D01*
D56*
X+133350Y+886460D02*
X+133350Y+886460D01*
D57*
X-1740621Y+276677D02*
X-1192393Y+276677D01*
X-1466507Y+276677D02*
X-1466507Y-210637D01*
X-826908Y+114239D02*
X-644165Y+276677D01*
X-644165Y-210637D01*
D26*
X-1529080Y+1022350D02*
X+523240Y+1022350D01*
X+523240Y+1804670D01*
X-1529080Y+1804670D01*
X-1529080Y+1022350D01*
D58*
X-1391920Y+1667510D02*
X-1391920Y+1667510D01*
D59*
X-1039366Y+1321054D02*
X-987360Y+1274826D01*
X-779335Y+1274826D01*
X-727328Y+1321054D01*
X-727328Y+1367282D01*
X-779335Y+1413510D01*
X-987360Y+1413510D01*
X-1039366Y+1459738D01*
X-1039366Y+1505966D01*
X-987360Y+1552194D01*
X-779335Y+1552194D01*
X-727328Y+1505966D01*
X-623315Y+1552194D02*
X-623315Y+1413510D01*
X-467296Y+1274826D01*
X-311277Y+1413510D01*
X-311277Y+1552194D01*
X-103252Y+1459738D02*
X+761Y+1552194D01*
X+761Y+1274826D01*
D26*
X-4769257Y-381973D02*
X-2945257Y-381973D01*
X-2945257Y+1741187D01*
X-4769257Y+1741187D01*
X-4769257Y-381973D01*
D60*
X-3416257Y+1614187D02*
X-3416257Y+1614187D01*
D61*
X-3714929Y-41512D02*
X-3999584Y-41512D01*
X-3857257Y+118606D01*
X-3999584Y+278725D01*
X-3714929Y+278725D01*
X-3999584Y+385471D02*
X-3714929Y+385471D01*
X-3714929Y+705708D01*
X-3904699Y+919199D02*
X-3999584Y+1025945D01*
X-3714929Y+1025945D01*
D62*
X-966150Y-425540D02*
X+693850Y-425540D01*
X+693850Y+674460D01*
X-966150Y+674460D01*
X-966150Y-425540D01*
X-136150Y+174460D02*
X-136150Y+74460D01*
X-86150Y+124460D02*
X-186150Y+124460D01*
D63*
X-766150Y+378460D02*
X-766150Y+378460D01*
D64*
X-346231Y+239096D02*
X-346231Y+48036D01*
X-303243Y+9824D01*
X-131290Y+9824D01*
X-88301Y+48036D01*
X-88301Y+239096D01*
X+40664Y+200884D02*
X+83652Y+239096D01*
X+212617Y+239096D01*
X+255606Y+200884D01*
X+255606Y+162672D01*
X+212617Y+124460D01*
X+255606Y+86248D01*
X+255606Y+48036D01*
X+212617Y+9824D01*
X+83652Y+9824D01*
X+40664Y+48036D01*
X+126641Y+124460D02*
X+212617Y+124460D01*
D26*
X-2886710Y-276860D02*
X-2485390Y-276860D01*
X-2485390Y+505460D01*
X-2886710Y+505460D01*
X-2886710Y-276860D01*
D65*
X-2622550Y-139700D02*
X-2622550Y-139700D01*
D66*
X-2744470Y+27941D02*
X-2647103Y+27941D01*
X-2627630Y+49848D01*
X-2627630Y+137477D01*
X-2647103Y+159385D01*
X-2744470Y+159385D01*
X-2705523Y+247014D02*
X-2744470Y+290829D01*
X-2627630Y+290829D01*
D62*
X-1451870Y-412180D02*
X-1451870Y+107820D01*
X-1801870Y+107820D01*
X-1801870Y-412180D01*
X-1451870Y-412180D01*
X-1676870Y-152180D02*
X-1576870Y-152180D01*
X-1626870Y-102180D02*
X-1626870Y-202180D01*
D67*
X-1626870Y-297180D02*
X-1626870Y-297180D01*
D68*
X-1604072Y-96472D02*
X-1592673Y-109296D01*
X-1592673Y-147767D01*
X-1615471Y-173414D01*
X-1638269Y-173414D01*
X-1661067Y-147767D01*
X-1661067Y-109296D01*
X-1649668Y-96472D01*
X-1626870Y-45177D02*
X-1638269Y-58001D01*
X-1649668Y-58001D01*
X-1661067Y-45177D01*
X-1661067Y-6706D01*
X-1649668Y+6118D01*
X-1638269Y+6118D01*
X-1626870Y-6706D01*
X-1626870Y-45177D01*
X-1615471Y-58001D01*
X-1604072Y-58001D01*
X-1592673Y-45177D01*
X-1592673Y-6706D01*
X-1604072Y+6118D01*
X-1615471Y+6118D01*
X-1626870Y-6706D01*
D62*
X-1796790Y+676340D02*
X-1796790Y+156340D01*
X-1446790Y+156340D01*
X-1446790Y+676340D01*
X-1796790Y+676340D01*
X-1571790Y+416340D02*
X-1671790Y+416340D01*
X-1621790Y+366340D02*
X-1621790Y+466340D01*
D67*
X-1621790Y+561340D02*
X-1621790Y+561340D01*
D68*
X-1598992Y+309336D02*
X-1587593Y+296512D01*
X-1587593Y+258041D01*
X-1610391Y+232394D01*
X-1633189Y+232394D01*
X-1655987Y+258041D01*
X-1655987Y+296512D01*
X-1644588Y+309336D01*
X-1610391Y+411926D02*
X-1610391Y+334984D01*
X-1655987Y+386279D01*
X-1587593Y+386279D01*
D62*
X-1360870Y+659040D02*
X-1360870Y+189040D01*
X-1130870Y+189040D01*
X-1130870Y+659040D01*
X-1360870Y+659040D01*
X-1195870Y+424040D02*
X-1295870Y+424040D01*
X-1245870Y+374040D02*
X-1245870Y+474040D01*
D69*
X-1245870Y+574040D02*
X-1245870Y+574040D01*
D74*
X-1223796Y+337422D02*
X-1212759Y+325006D01*
X-1212759Y+287756D01*
X-1234833Y+262923D01*
X-1256907Y+262923D01*
X-1278981Y+287756D01*
X-1278981Y+325006D01*
X-1267944Y+337422D01*
X-1267944Y+374672D02*
X-1278981Y+387089D01*
X-1278981Y+424339D01*
X-1267944Y+436755D01*
X-1256907Y+436755D01*
X-1245870Y+424339D01*
X-1234833Y+436755D01*
X-1223796Y+436755D01*
X-1212759Y+424339D01*
X-1212759Y+387089D01*
X-1223796Y+374672D01*
X-1245870Y+399505D02*
X-1245870Y+424339D01*
D62*
X-1125790Y-394880D02*
X-1125790Y+75120D01*
X-1355790Y+75120D01*
X-1355790Y-394880D01*
X-1125790Y-394880D01*
X-1290790Y-159880D02*
X-1190790Y-159880D01*
X-1240790Y-109880D02*
X-1240790Y-209880D01*
D69*
X-1240790Y-309880D02*
X-1240790Y-309880D01*
D74*
X-1218716Y-122930D02*
X-1207679Y-135346D01*
X-1207679Y-172596D01*
X-1229753Y-197429D01*
X-1251827Y-197429D01*
X-1273901Y-172596D01*
X-1273901Y-135346D01*
X-1262864Y-122930D01*
X-1273901Y-85680D02*
X-1273901Y-23597D01*
X-1262864Y-23597D01*
X-1207679Y-85680D01*
D26*
X-1473200Y-1151890D02*
X-533400Y-1151890D01*
X-533400Y-974090D01*
X-1473200Y-974090D01*
X-1473200Y-1151890D01*
D75*
X-1384300Y-1062990D02*
X-1384300Y-1062990D01*
D74*
X-1027881Y-1029920D02*
X-978275Y-1029920D01*
X-1003078Y-1029920D02*
X-1003078Y-1096061D01*
X-1027881Y-1096061D02*
X-978275Y-1096061D01*
X-916267Y-1051967D02*
X-891464Y-1029920D01*
X-891464Y-1096061D01*
D26*
X-2390140Y-1155700D02*
X-1691640Y-1155700D01*
X-1691640Y-952500D01*
X-2390140Y-952500D01*
X-2390140Y-1155700D01*
D75*
X-2301240Y-1054100D02*
X-2301240Y-1054100D01*
D76*
X-2151479Y-1079703D02*
X-2137078Y-1092504D01*
X-2079471Y-1092504D01*
X-2065070Y-1079703D01*
X-2065070Y-1066901D01*
X-2079471Y-1054100D01*
X-2137078Y-1054100D01*
X-2151479Y-1041298D01*
X-2151479Y-1028497D01*
X-2137078Y-1015695D01*
X-2079471Y-1015695D01*
X-2065070Y-1028497D01*
X-1949857Y-1079703D02*
X-1964258Y-1092504D01*
X-2007463Y-1092504D01*
X-2036266Y-1066901D01*
X-2036266Y-1041298D01*
X-2007463Y-1015695D01*
X-1964258Y-1015695D01*
X-1949857Y-1028497D01*
X-1892250Y-1041298D02*
X-1863447Y-1015695D01*
X-1863447Y-1092504D01*
D62*
X-2173670Y+95160D02*
X-2173670Y-374840D01*
X-1943670Y-374840D01*
X-1943670Y+95160D01*
X-2173670Y+95160D01*
X-2008670Y-139840D02*
X-2108670Y-139840D01*
X-2058670Y-189840D02*
X-2058670Y-89840D01*
D69*
X-2058670Y+10160D02*
X-2058670Y+10160D01*
D74*
X-2036596Y-226458D02*
X-2025559Y-238874D01*
X-2025559Y-276124D01*
X-2047633Y-300957D01*
X-2069707Y-300957D01*
X-2091781Y-276124D01*
X-2091781Y-238874D01*
X-2080744Y-226458D01*
X-2069707Y-176791D02*
X-2091781Y-151958D01*
X-2025559Y-151958D01*
D62*
X-1943670Y+199480D02*
X-1943670Y+669480D01*
X-2173670Y+669480D01*
X-2173670Y+199480D01*
X-1943670Y+199480D01*
X-2108670Y+434480D02*
X-2008670Y+434480D01*
X-2058670Y+484480D02*
X-2058670Y+384480D01*
D69*
X-2058670Y+284480D02*
X-2058670Y+284480D01*
D74*
X-2036596Y+471430D02*
X-2025559Y+459014D01*
X-2025559Y+421764D01*
X-2047633Y+396931D01*
X-2069707Y+396931D01*
X-2091781Y+421764D01*
X-2091781Y+459014D01*
X-2080744Y+471430D01*
X-2080744Y+508680D02*
X-2091781Y+521097D01*
X-2091781Y+558347D01*
X-2080744Y+570763D01*
X-2069707Y+570763D01*
X-2058670Y+558347D01*
X-2058670Y+521097D01*
X-2047633Y+508680D01*
X-2025559Y+508680D01*
X-2025559Y+570763D01*
D62*
X-408088Y-1131508D02*
X+51912Y-1131508D01*
X+51912Y-901508D01*
X-408088Y-901508D01*
X-408088Y-1131508D01*
X-178088Y-966508D02*
X-178088Y-1066508D01*
X-128088Y-1016508D02*
X-228088Y-1016508D01*
D69*
X-323088Y-1016508D02*
X-323088Y-1016508D01*
D77*
X-242742Y-1008481D02*
X-224679Y-992425D01*
X-224679Y-1040592D01*
X-188554Y-1032564D02*
X-188554Y-1000453D01*
X-179523Y-992425D01*
X-143398Y-992425D01*
X-134367Y-1000453D01*
X-134367Y-1032564D01*
X-143398Y-1040592D01*
X-179523Y-1040592D01*
X-188554Y-1032564D01*
X-188554Y-1040592D02*
X-134367Y-992425D01*
X-116304Y-1032564D02*
X-116304Y-1000453D01*
X-107273Y-992425D01*
X-71148Y-992425D01*
X-62117Y-1000453D01*
X-62117Y-1032564D01*
X-71148Y-1040592D01*
X-107273Y-1040592D01*
X-116304Y-1032564D01*
X-116304Y-1040592D02*
X-62117Y-992425D01*
X-44054Y-1040592D02*
X-44054Y-992425D01*
X+1102Y-992425D01*
X+10133Y-1000453D01*
X+10133Y-1008481D01*
X+1102Y-1016508D01*
X-44054Y-1016508D01*
X+1102Y-1016508D02*
X+10133Y-1024536D01*
X+10133Y-1040592D01*
D26*
X+123952Y-1115568D02*
X+626872Y-1115568D01*
X+626872Y-937768D01*
X+123952Y-937768D01*
X+123952Y-1115568D01*
D78*
X+563372Y-1026668D02*
X+563372Y-1026668D01*
D74*
X+182144Y-993598D02*
X+182144Y-1059739D01*
X+256553Y-1059739D01*
X+355765Y-1059739D02*
X+281356Y-1059739D01*
X+281356Y-993598D01*
X+355765Y-993598D01*
X+281356Y-1026668D02*
X+330962Y-1026668D01*
X+380568Y-1059739D02*
X+380568Y-993598D01*
X+430174Y-993598D01*
X+454977Y-1015645D01*
X+454977Y-1037692D01*
X+430174Y-1059739D01*
X+380568Y-1059739D01*
M02*
