G04 PROTEUS GERBER X2 FILE*
%TF.GenerationSoftware,Labcenter,Proteus,8.15-SP1-Build34318*%
%TF.CreationDate,2024-05-26T10:12:06+00:00*%
%TF.FileFunction,Copper,L2,Bot*%
%TF.FilePolarity,Positive*%
%TF.Part,Single*%
%TF.SameCoordinates,{c1c5c1e2-d9f3-4829-891e-9e67f3fcbee4}*%
%FSLAX45Y45*%
%MOMM*%
G01*
%TA.AperFunction,Conductor*%
%ADD11C,0.508000*%
%ADD10C,0.254000*%
%TA.AperFunction,ViaPad*%
%ADD12C,0.762000*%
%TA.AperFunction,ComponentPad*%
%ADD13C,2.286000*%
%TA.AperFunction,ComponentPad*%
%ADD14R,1.905000X1.905000*%
%ADD15C,1.778000*%
%TA.AperFunction,SMDPad,CuDef*%
%ADD16R,0.762000X2.540000*%
%ADD17R,2.540000X2.540000*%
%TA.AperFunction,ComponentPad*%
%ADD70R,2.032000X2.032000*%
%TA.AperFunction,SMDPad,CuDef*%
%ADD24R,2.438400X2.362200*%
%ADD25R,1.016000X1.524000*%
%TA.AperFunction,Profile*%
%ADD23C,0.203200*%
%TD.AperFunction*%
%TA.AperFunction,Conductor*%
G36*
X+842010Y-1270000D02*
X+615762Y-1270000D01*
X+647699Y-1238063D01*
X+647699Y-1174937D01*
X+603063Y-1130301D01*
X+539937Y-1130301D01*
X+527236Y-1143002D01*
X-519116Y-1143002D01*
X-492761Y-1116647D01*
X-492761Y-1009333D01*
X-549595Y-952499D01*
X+416191Y-952499D01*
X+578751Y-789939D01*
X+704476Y-789939D01*
X+793749Y-700666D01*
X+793749Y-574414D01*
X+704476Y-485141D01*
X+578751Y-485141D01*
X+30111Y+63499D01*
X-463737Y+63499D01*
X-476437Y+76199D01*
X-494399Y+76199D01*
X-658471Y+240271D01*
X-459741Y+240271D01*
X-459741Y+552689D01*
X-779779Y+552689D01*
X-779779Y+253999D01*
X-970281Y+253999D01*
X-970281Y+555229D01*
X-1290319Y+555229D01*
X-1290319Y+253999D01*
X-2208899Y+253999D01*
X-2386699Y+431799D01*
X-2482851Y+431799D01*
X-2482851Y+507999D01*
X-2762249Y+507999D01*
X-2762249Y-76201D01*
X-2794001Y-76201D01*
X-2794001Y+804286D01*
X-2723776Y+734061D01*
X-2597524Y+734061D01*
X-2533650Y+797935D01*
X-2469776Y+734061D01*
X-2343524Y+734061D01*
X-2279650Y+797935D01*
X-2215776Y+734061D01*
X-2089524Y+734061D01*
X-2025650Y+797935D01*
X-1961776Y+734061D01*
X-1835524Y+734061D01*
X-1771650Y+797935D01*
X-1707776Y+734061D01*
X-1581524Y+734061D01*
X-1517650Y+797935D01*
X-1453776Y+734061D01*
X-1327524Y+734061D01*
X-1263650Y+797935D01*
X-1199776Y+734061D01*
X-1073524Y+734061D01*
X-1009650Y+797935D01*
X-945776Y+734061D01*
X-819524Y+734061D01*
X-755650Y+797935D01*
X-691776Y+734061D01*
X-565524Y+734061D01*
X-501650Y+797935D01*
X-437776Y+734061D01*
X-311524Y+734061D01*
X-247650Y+797935D01*
X-183776Y+734061D01*
X-57524Y+734061D01*
X+6350Y+797935D01*
X+70224Y+734061D01*
X+196476Y+734061D01*
X+260350Y+797935D01*
X+324224Y+734061D01*
X+450476Y+734061D01*
X+514350Y+797935D01*
X+578224Y+734061D01*
X+704476Y+734061D01*
X+793749Y+823334D01*
X+793749Y+949586D01*
X+704476Y+1038859D01*
X+578224Y+1038859D01*
X+514350Y+974985D01*
X+450476Y+1038859D01*
X+448625Y+1038859D01*
X+515619Y+1105853D01*
X+515619Y+1213167D01*
X+442276Y+1286510D01*
X+515619Y+1359853D01*
X+515619Y+1467167D01*
X+448625Y+1534161D01*
X+519429Y+1534161D01*
X+519429Y+1800859D01*
X-1525269Y+1800859D01*
X-1525269Y+1534161D01*
X-1454465Y+1534161D01*
X-1511617Y+1477009D01*
X-1662060Y+1477009D01*
X-1718817Y+1420252D01*
X-1718817Y+1408569D01*
X-1920887Y+1206499D01*
X-2746896Y+1206499D01*
X-2784093Y+1169301D01*
X-2914158Y+1039236D01*
X-2914158Y+1164286D01*
X-3244356Y+1164286D01*
X-3244356Y+834088D01*
X-2920999Y+834088D01*
X-2920999Y-166001D01*
X-2883801Y-203199D01*
X-2762249Y-203199D01*
X-2762249Y-279399D01*
X-2482851Y-279399D01*
X-2482851Y-203199D01*
X-2424799Y-203199D01*
X-2349501Y-127901D01*
X-2349501Y-107763D01*
X-2336801Y-95063D01*
X-2336801Y-31937D01*
X-2381437Y+12699D01*
X-2444563Y+12699D01*
X-2482851Y-25589D01*
X-2482851Y+304801D01*
X-2439301Y+304801D01*
X-2261501Y+127001D01*
X-724801Y+127001D01*
X-584199Y-13601D01*
X-584199Y-31563D01*
X-548451Y-67311D01*
X-779779Y-67311D01*
X-779779Y-157481D01*
X-970281Y-157481D01*
X-970281Y-64771D01*
X-1036509Y-64771D01*
X-1003301Y-31563D01*
X-1003301Y+31563D01*
X-1047937Y+76199D01*
X-1111063Y+76199D01*
X-1155699Y+31563D01*
X-1155699Y+13601D01*
X-1193799Y-24499D01*
X-1193799Y-64771D01*
X-1290319Y-64771D01*
X-1290319Y-157482D01*
X-1830256Y-157482D01*
X-1873437Y-114301D01*
X-1936563Y-114301D01*
X-1981199Y-158937D01*
X-1981199Y-222063D01*
X-1936563Y-266699D01*
X-1918601Y-266699D01*
X-1900822Y-284478D01*
X-1874520Y-284478D01*
X-1290319Y-284479D01*
X-1290319Y-330202D01*
X-3217458Y-330202D01*
X-3251201Y-296459D01*
X-3251201Y+1418041D01*
X-3344459Y+1511299D01*
X-3450041Y+1511299D01*
X-3601056Y+1360284D01*
X-3601056Y-252714D01*
X-3759201Y-252714D01*
X-3759201Y+1149537D01*
X-3733801Y+1174937D01*
X-3733801Y+1238063D01*
X-3778437Y+1282699D01*
X-3841563Y+1282699D01*
X-3886199Y+1238063D01*
X-3886199Y+1174937D01*
X-3860799Y+1149537D01*
X-3860799Y-252714D01*
X-3880458Y-252714D01*
X-3880458Y+1028280D01*
X-3860801Y+1047937D01*
X-3860801Y+1111063D01*
X-3905437Y+1155699D01*
X-3968563Y+1155699D01*
X-4013199Y+1111063D01*
X-4013199Y+1047937D01*
X-3982056Y+1016794D01*
X-3982056Y-252714D01*
X-4007458Y-252714D01*
X-4007458Y+840798D01*
X-4051301Y+884641D01*
X-4051301Y+920563D01*
X-4095937Y+965199D01*
X-4159063Y+965199D01*
X-4203699Y+920563D01*
X-4203699Y+857437D01*
X-4159063Y+812801D01*
X-4123141Y+812801D01*
X-4109056Y+798716D01*
X-4109056Y-252714D01*
X-4388456Y-252714D01*
X-4388456Y-582912D01*
X-3862577Y-582912D01*
X-3862577Y-631765D01*
X-3817941Y-676401D01*
X-3754815Y-676401D01*
X-3728056Y-649642D01*
X-3728056Y-674837D01*
X-3698298Y-704595D01*
X-3567435Y-704595D01*
X-3586508Y-723668D01*
X-3586508Y-746493D01*
X-3643164Y-803149D01*
X-3684017Y-803149D01*
X-3684017Y-752349D01*
X-3861815Y-752349D01*
X-3861815Y-980947D01*
X-3684017Y-980947D01*
X-3684017Y-930147D01*
X-3590562Y-930147D01*
X-3491845Y-831430D01*
X-3478746Y-831430D01*
X-3434110Y-786794D01*
X-3434110Y-723668D01*
X-3453183Y-704595D01*
X-3045755Y-704595D01*
X-2836458Y-495298D01*
X-2733933Y-495298D01*
X-2813049Y-574414D01*
X-2813049Y-700666D01*
X-2739014Y-774701D01*
X-3384319Y-774701D01*
X-3643882Y-1034264D01*
X-3643882Y-1190204D01*
X-3576787Y-1257299D01*
X-2432599Y-1257299D01*
X-2356918Y-1181618D01*
X-2354897Y-1183639D01*
X-2247583Y-1183639D01*
X-2174240Y-1110296D01*
X-2100897Y-1183639D01*
X-2071001Y-1183639D01*
X-1984642Y-1269998D01*
X-1958340Y-1269998D01*
X+527237Y-1270000D01*
X-4798062Y-1270000D01*
X-4798062Y+834088D01*
X-4484158Y+834088D01*
X-4484158Y+1164286D01*
X-4798062Y+1164286D01*
X-4798062Y+1821180D01*
X+842010Y+1821180D01*
X+842010Y-1270000D01*
G37*
%TD.AperFunction*%
%LPC*%
G36*
X-2843531Y+1505713D02*
X-3021329Y+1505713D01*
X-3021329Y+1556513D01*
X-3263598Y+1556513D01*
X-3269308Y+1562223D01*
X-3287270Y+1562223D01*
X-3331906Y+1606859D01*
X-3331906Y+1669985D01*
X-3287270Y+1714621D01*
X-3224144Y+1714621D01*
X-3193034Y+1683511D01*
X-3021329Y+1683511D01*
X-3021329Y+1734311D01*
X-2843531Y+1734311D01*
X-2843531Y+1505713D01*
G37*
G36*
X-2528571Y+1505713D02*
X-2706369Y+1505713D01*
X-2706369Y+1734311D01*
X-2528571Y+1734311D01*
X-2528571Y+1505713D01*
G37*
G36*
X-4176775Y-752349D02*
X-3998977Y-752349D01*
X-3998977Y-980947D01*
X-4176775Y-980947D01*
X-4176775Y-752349D01*
G37*
G36*
X-4667250Y-648151D02*
X-4667250Y-621849D01*
X-4648651Y-603250D01*
X-4622349Y-603250D01*
X-4603750Y-621849D01*
X-4603750Y-648151D01*
X-4622349Y-666750D01*
X-4648651Y-666750D01*
X-4667250Y-648151D01*
G37*
G36*
X-1365250Y+431349D02*
X-1365250Y+457651D01*
X-1346651Y+476250D01*
X-1320349Y+476250D01*
X-1301750Y+457651D01*
X-1301750Y+431349D01*
X-1320349Y+412750D01*
X-1346651Y+412750D01*
X-1365250Y+431349D01*
G37*
G36*
X+704913Y-897704D02*
X+704913Y-871402D01*
X+723512Y-852803D01*
X+749814Y-852803D01*
X+768413Y-871402D01*
X+768413Y-897704D01*
X+749814Y-916303D01*
X+723512Y-916303D01*
X+704913Y-897704D01*
G37*
G36*
X-3933652Y-1069234D02*
X-3933652Y-1042932D01*
X-3915053Y-1024333D01*
X-3888751Y-1024333D01*
X-3870152Y-1042932D01*
X-3870152Y-1069234D01*
X-3888751Y-1087833D01*
X-3915053Y-1087833D01*
X-3933652Y-1069234D01*
G37*
%LPD*%
%TA.AperFunction,Conductor*%
G36*
X-1961776Y-789939D02*
X-1835524Y-789939D01*
X-1828795Y-783210D01*
X-1824688Y-787451D01*
X-1768352Y-843787D01*
X-1000897Y-843787D01*
X-1090561Y-933451D01*
X-1183957Y-933451D01*
X-1257300Y-1006794D01*
X-1330643Y-933451D01*
X-1437957Y-933451D01*
X-1513839Y-1009333D01*
X-1513839Y-1116647D01*
X-1487484Y-1143002D01*
X-1653541Y-1143002D01*
X-1653541Y-914401D01*
X-1932939Y-914401D01*
X-1932939Y-985205D01*
X-1993583Y-924561D01*
X-2100897Y-924561D01*
X-2174240Y-997904D01*
X-2247583Y-924561D01*
X-2354897Y-924561D01*
X-2430779Y-1000443D01*
X-2430779Y-1107757D01*
X-2428758Y-1109778D01*
X-2474681Y-1155701D01*
X-2720607Y-1155701D01*
X-2672750Y-1107844D01*
X-2672750Y-1000530D01*
X-2748632Y-924648D01*
X-2855946Y-924648D01*
X-2929289Y-997991D01*
X-3002632Y-924648D01*
X-3109946Y-924648D01*
X-3170590Y-985292D01*
X-3170590Y-914488D01*
X-3380426Y-914488D01*
X-3342237Y-876299D01*
X-2573569Y-876299D01*
X-2478493Y-781223D01*
X-2469776Y-789939D01*
X-2343524Y-789939D01*
X-2279650Y-726065D01*
X-2215776Y-789939D01*
X-2089524Y-789939D01*
X-2025650Y-726065D01*
X-1961776Y-789939D01*
G37*
%TD.AperFunction*%
%TA.AperFunction,Conductor*%
G36*
X-3449988Y-1155701D02*
X-3534705Y-1155701D01*
X-3542286Y-1148120D01*
X-3542286Y-1076348D01*
X-3449988Y-984050D01*
X-3449988Y-1155701D01*
G37*
%TD.AperFunction*%
D11*
X-3423257Y-417813D02*
X-3423257Y-508000D01*
X-3175000Y-508000D01*
X-1130300Y-220980D02*
X-1874520Y-220980D01*
X-1905000Y-190500D01*
X-1130300Y-220980D02*
X-637540Y-220980D01*
X-635000Y-223520D01*
X-619760Y-223520D01*
X-3429000Y+63500D02*
X-3429000Y+1333500D01*
X-3423257Y-417813D02*
X-3423257Y+57757D01*
X-3429000Y+63500D01*
X-1130300Y-220980D02*
X-1130300Y-50800D01*
X-1079500Y+0D01*
X-2622550Y+368300D02*
X-2413000Y+368300D01*
X-2235200Y+190500D01*
X-698500Y+190500D01*
X-508000Y+0D01*
X+641350Y-637540D02*
X+389890Y-889000D01*
X-956310Y-889000D01*
X-1130300Y-1062990D01*
X+641350Y-637540D02*
X+3810Y+0D01*
X-508000Y+0D01*
X+571500Y-1206500D02*
X-1958340Y-1206500D01*
X-2047240Y-1117600D01*
X-2047240Y-1054100D01*
X-2622550Y-139700D02*
X-2451100Y-139700D01*
X-2413000Y-101600D01*
X-2413000Y-63500D01*
D10*
X-628650Y-637540D02*
X-885190Y-381000D01*
X-3238500Y-381000D01*
X-3302000Y-317500D01*
X-3302000Y+1397000D01*
X-3365500Y+1460500D01*
X-3429000Y+1460500D01*
X-3550257Y+1339243D01*
X-3550257Y-417813D01*
X+387350Y+886460D02*
X+386080Y+887730D01*
X+386080Y+1159510D01*
X+133350Y+886460D02*
X+132080Y+887730D01*
X+132080Y+1159510D01*
X-120650Y+886460D02*
X-121920Y+887730D01*
X-121920Y+1159510D01*
X-374650Y+886460D02*
X-375920Y+887730D01*
X-375920Y+1159510D01*
X-628650Y+886460D02*
X-629920Y+887730D01*
X-629920Y+1159510D01*
X-882650Y+886460D02*
X-883920Y+887730D01*
X-883920Y+1159510D01*
X-1136650Y+886460D02*
X-1137920Y+887730D01*
X-1137920Y+1159510D01*
X-1390650Y+886460D02*
X-1391920Y+887730D01*
X-1391920Y+1159510D01*
D11*
X-4312257Y-417813D02*
X-4312257Y+662187D01*
X-4649257Y+999187D01*
X-3079257Y+999187D02*
X-3079257Y-190500D01*
X-2952257Y-317500D01*
X-2413000Y-317500D01*
X-2286000Y-190500D01*
X-2286000Y-63500D01*
X-2463800Y+114300D01*
X-2622550Y+114300D01*
X+386080Y+1667510D02*
X+641350Y+1412240D01*
X+641350Y+886460D01*
X-1130300Y+399020D02*
X-637540Y+399020D01*
X-635000Y+396480D01*
X-619760Y+396480D01*
X-1130300Y+399020D02*
X-1130300Y+419101D01*
X-1308101Y+419101D01*
X-1333500Y+444500D01*
X-4312257Y-417813D02*
X-4418313Y-417813D01*
X-4635500Y-635000D01*
D10*
X-4127500Y+889000D02*
X-4058257Y+819757D01*
X-4058257Y-417813D01*
X-3937000Y+1079500D02*
X-3931257Y+1073757D01*
X-3931257Y-417813D01*
X-3804257Y-417813D02*
X-3804257Y-317500D01*
X-3810000Y-311757D01*
X-3810000Y+1206500D01*
D11*
X-1391920Y+1413510D02*
X-1635759Y+1413510D01*
X-1655318Y+1393951D01*
X-1655318Y+1382268D01*
X-1894586Y+1143000D01*
X-2720594Y+1143000D01*
X-2857500Y+1006094D01*
X-2857500Y-139700D01*
X-2622550Y-139700D01*
X-2932430Y+1620012D02*
X-3237297Y+1620012D01*
X-3255707Y+1638422D01*
X+736663Y-884553D02*
X+762625Y-884553D01*
X+829332Y-817846D01*
X+829332Y+692995D01*
X+750167Y+772160D01*
X+641350Y+886460D01*
D10*
X-505460Y-792988D02*
X-1747311Y-792988D01*
X-1788459Y-751840D01*
X-1898650Y-637540D01*
X-2301240Y-1054100D02*
X-2453640Y-1206500D01*
X-3555746Y-1206500D01*
X-3593084Y-1169162D01*
X-3593084Y-1055306D01*
X-3363278Y-825500D01*
X-2594610Y-825500D01*
X-2406650Y-637540D01*
X-882650Y-637540D02*
X-1075690Y-444500D01*
X-2857500Y-444500D01*
X-3066796Y-653796D01*
X-3677257Y-653796D01*
X-3677257Y-417813D01*
X-3786378Y-600202D02*
X-3786378Y-487850D01*
X-3793296Y-480932D01*
X-3804257Y-417813D01*
D11*
X-3772916Y-866648D02*
X-3616863Y-866648D01*
X-3510309Y-760094D01*
X-3510309Y-755231D01*
X-3424682Y-577643D02*
X-3424682Y-483958D01*
X-3427708Y-480932D01*
X-3423257Y-417813D01*
X-4087876Y-866648D02*
X-3901902Y-1052622D01*
X-3901902Y-1056083D01*
D12*
X-3175000Y-508000D03*
X-1905000Y-190500D03*
X-3429000Y+1333500D03*
X-1079500Y+0D03*
X-508000Y+0D03*
X+571500Y-1206500D03*
X-2413000Y-63500D03*
X-4635500Y-635000D03*
X-1333500Y+444500D03*
X-4127500Y+889000D03*
X-3937000Y+1079500D03*
X-3810000Y+1206500D03*
X-3255707Y+1638422D03*
X+736663Y-884553D03*
X-505460Y-792988D03*
X-3786378Y-600202D03*
X-3510309Y-755231D03*
X-3424682Y-577643D03*
X-3901902Y-1056083D03*
D10*
X+842010Y-1270000D02*
X+615762Y-1270000D01*
X+647699Y-1238063D01*
X+647699Y-1174937D01*
X+603063Y-1130301D01*
X+539937Y-1130301D01*
X+527236Y-1143002D01*
X-519116Y-1143002D01*
X-492761Y-1116647D01*
X-492761Y-1009333D01*
X-549595Y-952499D01*
X+416191Y-952499D01*
X+578751Y-789939D01*
X+704476Y-789939D01*
X+793749Y-700666D01*
X+793749Y-574414D01*
X+704476Y-485141D01*
X+578751Y-485141D01*
X+30111Y+63499D01*
X-463737Y+63499D01*
X-476437Y+76199D01*
X-494399Y+76199D01*
X-658471Y+240271D01*
X-459741Y+240271D01*
X-459741Y+552689D01*
X-779779Y+552689D01*
X-779779Y+253999D01*
X-970281Y+253999D01*
X-970281Y+555229D01*
X-1290319Y+555229D01*
X-1290319Y+253999D01*
X-2208899Y+253999D01*
X-2386699Y+431799D01*
X-2482851Y+431799D01*
X-2482851Y+507999D01*
X-2762249Y+507999D01*
X-2762249Y-76201D01*
X-2794001Y-76201D01*
X-2794001Y+804286D01*
X-2723776Y+734061D01*
X-2597524Y+734061D01*
X-2533650Y+797935D01*
X-2469776Y+734061D01*
X-2343524Y+734061D01*
X-2279650Y+797935D01*
X-2215776Y+734061D01*
X-2089524Y+734061D01*
X-2025650Y+797935D01*
X-1961776Y+734061D01*
X-1835524Y+734061D01*
X-1771650Y+797935D01*
X-1707776Y+734061D01*
X-1581524Y+734061D01*
X-1517650Y+797935D01*
X-1453776Y+734061D01*
X-1327524Y+734061D01*
X-1263650Y+797935D01*
X-1199776Y+734061D01*
X-1073524Y+734061D01*
X-1009650Y+797935D01*
X-945776Y+734061D01*
X-819524Y+734061D01*
X-755650Y+797935D01*
X-691776Y+734061D01*
X-565524Y+734061D01*
X-501650Y+797935D01*
X-437776Y+734061D01*
X-311524Y+734061D01*
X-247650Y+797935D01*
X-183776Y+734061D01*
X-57524Y+734061D01*
X+6350Y+797935D01*
X+70224Y+734061D01*
X+196476Y+734061D01*
X+260350Y+797935D01*
X+324224Y+734061D01*
X+450476Y+734061D01*
X+514350Y+797935D01*
X+578224Y+734061D01*
X+704476Y+734061D01*
X+793749Y+823334D01*
X+793749Y+949586D01*
X+704476Y+1038859D01*
X+578224Y+1038859D01*
X+514350Y+974985D01*
X+450476Y+1038859D01*
X+448625Y+1038859D01*
X+515619Y+1105853D01*
X+515619Y+1213167D01*
X+442276Y+1286510D01*
X+515619Y+1359853D01*
X+515619Y+1467167D01*
X+448625Y+1534161D01*
X+519429Y+1534161D01*
X+519429Y+1800859D01*
X-1525269Y+1800859D01*
X-1525269Y+1534161D01*
X-1454465Y+1534161D01*
X-1511617Y+1477009D01*
X-1662060Y+1477009D01*
X-1718817Y+1420252D01*
X-1718817Y+1408569D01*
X-1920887Y+1206499D01*
X-2746896Y+1206499D01*
X-2784093Y+1169301D01*
X-2914158Y+1039236D01*
X-2914158Y+1164286D01*
X-3244356Y+1164286D01*
X-3244356Y+834088D01*
X-2920999Y+834088D01*
X-2920999Y-166001D01*
X-2883801Y-203199D01*
X-2762249Y-203199D01*
X-2762249Y-279399D01*
X-2482851Y-279399D01*
X-2482851Y-203199D01*
X-2424799Y-203199D01*
X-2349501Y-127901D01*
X-2349501Y-107763D01*
X-2336801Y-95063D01*
X-2336801Y-31937D01*
X-2381437Y+12699D01*
X-2444563Y+12699D01*
X-2482851Y-25589D01*
X-2482851Y+304801D01*
X-2439301Y+304801D01*
X-2261501Y+127001D01*
X-724801Y+127001D01*
X-584199Y-13601D01*
X-584199Y-31563D01*
X-548451Y-67311D01*
X-779779Y-67311D01*
X-779779Y-157481D01*
X-970281Y-157481D01*
X-970281Y-64771D01*
X-1036509Y-64771D01*
X-1003301Y-31563D01*
X-1003301Y+31563D01*
X-1047937Y+76199D01*
X-1111063Y+76199D01*
X-1155699Y+31563D01*
X-1155699Y+13601D01*
X-1193799Y-24499D01*
X-1193799Y-64771D01*
X-1290319Y-64771D01*
X-1290319Y-157482D01*
X-1830256Y-157482D01*
X-1873437Y-114301D01*
X-1936563Y-114301D01*
X-1981199Y-158937D01*
X-1981199Y-222063D01*
X-1936563Y-266699D01*
X-1918601Y-266699D01*
X-1900822Y-284478D01*
X-1874520Y-284478D01*
X-1290319Y-284479D01*
X-1290319Y-330202D01*
X-3217458Y-330202D01*
X-3251201Y-296459D01*
X-3251201Y+1418041D01*
X-3344459Y+1511299D01*
X-3450041Y+1511299D01*
X-3601056Y+1360284D01*
X-3601056Y-252714D01*
X-3759201Y-252714D01*
X-3759201Y+1149537D01*
X-3733801Y+1174937D01*
X-3733801Y+1238063D01*
X-3778437Y+1282699D01*
X-3841563Y+1282699D01*
X-3886199Y+1238063D01*
X-3886199Y+1174937D01*
X-3860799Y+1149537D01*
X-3860799Y-252714D01*
X-3880458Y-252714D01*
X-3880458Y+1028280D01*
X-3860801Y+1047937D01*
X-3860801Y+1111063D01*
X-3905437Y+1155699D01*
X-3968563Y+1155699D01*
X-4013199Y+1111063D01*
X-4013199Y+1047937D01*
X-3982056Y+1016794D01*
X-3982056Y-252714D01*
X-4007458Y-252714D01*
X-4007458Y+840798D01*
X-4051301Y+884641D01*
X-4051301Y+920563D01*
X-4095937Y+965199D01*
X-4159063Y+965199D01*
X-4203699Y+920563D01*
X-4203699Y+857437D01*
X-4159063Y+812801D01*
X-4123141Y+812801D01*
X-4109056Y+798716D01*
X-4109056Y-252714D01*
X-4388456Y-252714D01*
X-4388456Y-582912D01*
X-3862577Y-582912D01*
X-3862577Y-631765D01*
X-3817941Y-676401D01*
X-3754815Y-676401D01*
X-3728056Y-649642D01*
X-3728056Y-674837D01*
X-3698298Y-704595D01*
X-3567435Y-704595D01*
X-3586508Y-723668D01*
X-3586508Y-746493D01*
X-3643164Y-803149D01*
X-3684017Y-803149D01*
X-3684017Y-752349D01*
X-3861815Y-752349D01*
X-3861815Y-980947D01*
X-3684017Y-980947D01*
X-3684017Y-930147D01*
X-3590562Y-930147D01*
X-3491845Y-831430D01*
X-3478746Y-831430D01*
X-3434110Y-786794D01*
X-3434110Y-723668D01*
X-3453183Y-704595D01*
X-3045755Y-704595D01*
X-2836458Y-495298D01*
X-2733933Y-495298D01*
X-2813049Y-574414D01*
X-2813049Y-700666D01*
X-2739014Y-774701D01*
X-3384319Y-774701D01*
X-3643882Y-1034264D01*
X-3643882Y-1190204D01*
X-3576787Y-1257299D01*
X-2432599Y-1257299D01*
X-2356918Y-1181618D01*
X-2354897Y-1183639D01*
X-2247583Y-1183639D01*
X-2174240Y-1110296D01*
X-2100897Y-1183639D01*
X-2071001Y-1183639D01*
X-1984642Y-1269998D01*
X-1958340Y-1269998D01*
X+527237Y-1270000D01*
X-4798062Y-1270000D01*
X-4798062Y+834088D01*
X-4484158Y+834088D01*
X-4484158Y+1164286D01*
X-4798062Y+1164286D01*
X-4798062Y+1821180D01*
X+842010Y+1821180D01*
X+842010Y-1270000D01*
X-2843531Y+1505713D02*
X-3021329Y+1505713D01*
X-3021329Y+1556513D01*
X-3263598Y+1556513D01*
X-3269308Y+1562223D01*
X-3287270Y+1562223D01*
X-3331906Y+1606859D01*
X-3331906Y+1669985D01*
X-3287270Y+1714621D01*
X-3224144Y+1714621D01*
X-3193034Y+1683511D01*
X-3021329Y+1683511D01*
X-3021329Y+1734311D01*
X-2843531Y+1734311D01*
X-2843531Y+1505713D01*
X-2528571Y+1505713D02*
X-2706369Y+1505713D01*
X-2706369Y+1734311D01*
X-2528571Y+1734311D01*
X-2528571Y+1505713D01*
X-4176775Y-752349D02*
X-3998977Y-752349D01*
X-3998977Y-980947D01*
X-4176775Y-980947D01*
X-4176775Y-752349D01*
X-4667250Y-648151D02*
X-4667250Y-621849D01*
X-4648651Y-603250D01*
X-4622349Y-603250D01*
X-4603750Y-621849D01*
X-4603750Y-648151D01*
X-4622349Y-666750D01*
X-4648651Y-666750D01*
X-4667250Y-648151D01*
X-1365250Y+431349D02*
X-1365250Y+457651D01*
X-1346651Y+476250D01*
X-1320349Y+476250D01*
X-1301750Y+457651D01*
X-1301750Y+431349D01*
X-1320349Y+412750D01*
X-1346651Y+412750D01*
X-1365250Y+431349D01*
X+704913Y-897704D02*
X+704913Y-871402D01*
X+723512Y-852803D01*
X+749814Y-852803D01*
X+768413Y-871402D01*
X+768413Y-897704D01*
X+749814Y-916303D01*
X+723512Y-916303D01*
X+704913Y-897704D01*
X-3933652Y-1069234D02*
X-3933652Y-1042932D01*
X-3915053Y-1024333D01*
X-3888751Y-1024333D01*
X-3870152Y-1042932D01*
X-3870152Y-1069234D01*
X-3888751Y-1087833D01*
X-3915053Y-1087833D01*
X-3933652Y-1069234D01*
X-1961776Y-789939D02*
X-1835524Y-789939D01*
X-1828795Y-783210D01*
X-1824688Y-787451D01*
X-1768352Y-843787D01*
X-1000897Y-843787D01*
X-1090561Y-933451D01*
X-1183957Y-933451D01*
X-1257300Y-1006794D01*
X-1330643Y-933451D01*
X-1437957Y-933451D01*
X-1513839Y-1009333D01*
X-1513839Y-1116647D01*
X-1487484Y-1143002D01*
X-1653541Y-1143002D01*
X-1653541Y-914401D01*
X-1932939Y-914401D01*
X-1932939Y-985205D01*
X-1993583Y-924561D01*
X-2100897Y-924561D01*
X-2174240Y-997904D01*
X-2247583Y-924561D01*
X-2354897Y-924561D01*
X-2430779Y-1000443D01*
X-2430779Y-1107757D01*
X-2428758Y-1109778D01*
X-2474681Y-1155701D01*
X-2720607Y-1155701D01*
X-2672750Y-1107844D01*
X-2672750Y-1000530D01*
X-2748632Y-924648D01*
X-2855946Y-924648D01*
X-2929289Y-997991D01*
X-3002632Y-924648D01*
X-3109946Y-924648D01*
X-3170590Y-985292D01*
X-3170590Y-914488D01*
X-3380426Y-914488D01*
X-3342237Y-876299D01*
X-2573569Y-876299D01*
X-2478493Y-781223D01*
X-2469776Y-789939D01*
X-2343524Y-789939D01*
X-2279650Y-726065D01*
X-2215776Y-789939D01*
X-2089524Y-789939D01*
X-2025650Y-726065D01*
X-1961776Y-789939D01*
X-3449988Y-1155701D02*
X-3534705Y-1155701D01*
X-3542286Y-1148120D01*
X-3542286Y-1076348D01*
X-3449988Y-984050D01*
X-3449988Y-1155701D01*
X+641350Y+746761D02*
X+641350Y+886460D01*
X+641350Y+1026159D02*
X+641350Y+886460D01*
X+781049Y+886460D02*
X+641350Y+886460D01*
X-1391920Y+1788159D02*
X-1391920Y+1667510D01*
X-1512569Y+1667510D02*
X-1391920Y+1667510D01*
X-1137920Y+1788159D02*
X-1137920Y+1667510D01*
X-883920Y+1788159D02*
X-883920Y+1667510D01*
X-629920Y+1788159D02*
X-629920Y+1667510D01*
X-375920Y+1788159D02*
X-375920Y+1667510D01*
X-121920Y+1788159D02*
X-121920Y+1667510D01*
X+132080Y+1788159D02*
X+132080Y+1667510D01*
X+506729Y+1667510D02*
X+386080Y+1667510D01*
X+386080Y+1788159D02*
X+386080Y+1667510D01*
X-4312257Y-265414D02*
X-4312257Y-417813D01*
X-4375756Y-417813D02*
X-4312257Y-417813D01*
X-4312257Y-570212D02*
X-4312257Y-417813D01*
X-4649257Y+1151586D02*
X-4649257Y+999187D01*
X-4649257Y+846788D02*
X-4649257Y+999187D01*
X-4496858Y+999187D02*
X-4649257Y+999187D01*
X-3079257Y+1151586D02*
X-3079257Y+999187D01*
X-3231656Y+999187D02*
X-3079257Y+999187D01*
X-3079257Y+846788D02*
X-3079257Y+999187D01*
X-2495551Y+114300D02*
X-2622550Y+114300D01*
X-2749549Y+114300D02*
X-2622550Y+114300D01*
X-1501139Y-1062990D02*
X-1384300Y-1062990D01*
X-1384300Y-946151D02*
X-1384300Y-1062990D01*
X-1666241Y-1054100D02*
X-1793240Y-1054100D01*
X-1793240Y-927101D02*
X-1793240Y-1054100D01*
X-767079Y+396480D02*
X-619760Y+396480D01*
X-619760Y+252971D02*
X-619760Y+396480D01*
X-472441Y+396480D02*
X-619760Y+396480D01*
X-619760Y+539989D02*
X-619760Y+396480D01*
X-1277619Y+399020D02*
X-1130300Y+399020D01*
X-982981Y+399020D02*
X-1130300Y+399020D01*
X-1130300Y+542529D02*
X-1130300Y+399020D01*
X-3437288Y-1054187D02*
X-3310289Y-1054187D01*
X-3310289Y-927188D02*
X-3310289Y-1054187D01*
X-2617470Y+1721611D02*
X-2617470Y+1620012D01*
X-2693669Y+1620012D02*
X-2617470Y+1620012D01*
X-2617470Y+1518413D02*
X-2617470Y+1620012D01*
X-2541271Y+1620012D02*
X-2617470Y+1620012D01*
X-4087876Y-968247D02*
X-4087876Y-866648D01*
X-4011677Y-866648D02*
X-4087876Y-866648D01*
X-4087876Y-765049D02*
X-4087876Y-866648D01*
X-4164075Y-866648D02*
X-4087876Y-866648D01*
D13*
X+387350Y+886460D03*
X+133350Y+886460D03*
X-120650Y+886460D03*
X-374650Y+886460D03*
X-628650Y+886460D03*
X-882650Y+886460D03*
X-1136650Y+886460D03*
X-1390650Y+886460D03*
X-1644650Y+886460D03*
X-1898650Y+886460D03*
X-2152650Y+886460D03*
X-2406650Y+886460D03*
X-2660650Y+886460D03*
X-2660650Y-637540D03*
X-2406650Y-637540D03*
X-2152650Y-637540D03*
X-1898650Y-637540D03*
X-1644650Y-637540D03*
X-1390650Y-637540D03*
X-1136650Y-637540D03*
X-882650Y-637540D03*
X-628650Y-637540D03*
X-374650Y-637540D03*
X-120650Y-637540D03*
X+133350Y-637540D03*
X+387350Y-637540D03*
X+641350Y-637540D03*
X+641350Y+886460D03*
D14*
X-1391920Y+1667510D03*
X-1137920Y+1667510D03*
X-883920Y+1667510D03*
X-629920Y+1667510D03*
X-375920Y+1667510D03*
X-121920Y+1667510D03*
X+132080Y+1667510D03*
X+386080Y+1667510D03*
D15*
X-1391920Y+1413510D03*
X-1137920Y+1413510D03*
X-883920Y+1413510D03*
X-629920Y+1413510D03*
X-375920Y+1413510D03*
X-121920Y+1413510D03*
X+132080Y+1413510D03*
X+386080Y+1413510D03*
X-1391920Y+1159510D03*
X-1137920Y+1159510D03*
X-883920Y+1159510D03*
X-629920Y+1159510D03*
X-375920Y+1159510D03*
X-121920Y+1159510D03*
X+132080Y+1159510D03*
X+386080Y+1159510D03*
D16*
X-3423257Y-417813D03*
X-3550257Y-417813D03*
X-3677257Y-417813D03*
X-3804257Y-417813D03*
X-3931257Y-417813D03*
X-4058257Y-417813D03*
X-4185257Y-417813D03*
X-4312257Y-417813D03*
D17*
X-4649257Y+999187D03*
X-3079257Y+999187D03*
D70*
X-2622550Y-139700D03*
X-2622550Y+114300D03*
X-2622550Y+368300D03*
D15*
X-1384300Y-1062990D03*
X-1130300Y-1062990D03*
X-876300Y-1062990D03*
X-622300Y-1062990D03*
X-2301240Y-1054100D03*
X-2047240Y-1054100D03*
D70*
X-1793240Y-1054100D03*
D24*
X-619760Y-223520D03*
X-619760Y+396480D03*
X-1130300Y-220980D03*
X-1130300Y+399020D03*
D15*
X-2802289Y-1054187D03*
X-3056289Y-1054187D03*
D70*
X-3310289Y-1054187D03*
D25*
X-2932430Y+1620012D03*
X-2617470Y+1620012D03*
X-3772916Y-866648D03*
X-4087876Y-866648D03*
D23*
X-4859022Y-1330960D02*
X+902970Y-1330960D01*
X+902970Y+1882140D01*
X-4859022Y+1882140D01*
X-4859022Y-1330960D01*
M02*
