G04 PROTEUS GERBER X2 FILE*
%TF.GenerationSoftware,Labcenter,Proteus,8.15-SP1-Build34318*%
%TF.CreationDate,2024-05-26T10:12:06+00:00*%
%TF.FileFunction,Plated,1,2,PTH*%
%TF.FilePolarity,Positive*%
%TF.Part,Single*%
%TF.SameCoordinates,{c1c5c1e2-d9f3-4829-891e-9e67f3fcbee4}*%
%FSLAX45Y45*%
%MOMM*%
G01*
%TA.AperFunction,ViaDrill*%
%ADD84C,0.381000*%
%TA.AperFunction,ComponentDrill*%
%ADD85C,1.270000*%
%TA.AperFunction,ComponentDrill*%
%ADD86C,1.016000*%
%TD.AperFunction*%
D84*
X-3175000Y-508000D03*
X-1905000Y-190500D03*
X-3429000Y+1333500D03*
X-1079500Y+0D03*
X-508000Y+0D03*
X+571500Y-1206500D03*
X-2413000Y-63500D03*
X-4635500Y-635000D03*
X-1333500Y+444500D03*
X-4127500Y+889000D03*
X-3937000Y+1079500D03*
X-3810000Y+1206500D03*
X-3255707Y+1638422D03*
X+736663Y-884553D03*
X-505460Y-792988D03*
X-3786378Y-600202D03*
X-3510309Y-755231D03*
X-3424682Y-577643D03*
X-3901902Y-1056083D03*
D85*
X+387350Y+886460D03*
X+133350Y+886460D03*
X-120650Y+886460D03*
X-374650Y+886460D03*
X-628650Y+886460D03*
X-882650Y+886460D03*
X-1136650Y+886460D03*
X-1390650Y+886460D03*
X-1644650Y+886460D03*
X-1898650Y+886460D03*
X-2152650Y+886460D03*
X-2406650Y+886460D03*
X-2660650Y+886460D03*
X-2660650Y-637540D03*
X-2406650Y-637540D03*
X-2152650Y-637540D03*
X-1898650Y-637540D03*
X-1644650Y-637540D03*
X-1390650Y-637540D03*
X-1136650Y-637540D03*
X-882650Y-637540D03*
X-628650Y-637540D03*
X-374650Y-637540D03*
X-120650Y-637540D03*
X+133350Y-637540D03*
X+387350Y-637540D03*
X+641350Y-637540D03*
X+641350Y+886460D03*
D86*
X-1391920Y+1667510D03*
X-1137920Y+1667510D03*
X-883920Y+1667510D03*
X-629920Y+1667510D03*
X-375920Y+1667510D03*
X-121920Y+1667510D03*
X+132080Y+1667510D03*
X+386080Y+1667510D03*
X-1391920Y+1413510D03*
X-1137920Y+1413510D03*
X-883920Y+1413510D03*
X-629920Y+1413510D03*
X-375920Y+1413510D03*
X-121920Y+1413510D03*
X+132080Y+1413510D03*
X+386080Y+1413510D03*
X-1391920Y+1159510D03*
X-1137920Y+1159510D03*
X-883920Y+1159510D03*
X-629920Y+1159510D03*
X-375920Y+1159510D03*
X-121920Y+1159510D03*
X+132080Y+1159510D03*
X+386080Y+1159510D03*
X-2622550Y-139700D03*
X-2622550Y+114300D03*
X-2622550Y+368300D03*
X-1384300Y-1062990D03*
X-1130300Y-1062990D03*
X-876300Y-1062990D03*
X-622300Y-1062990D03*
X-2301240Y-1054100D03*
X-2047240Y-1054100D03*
X-1793240Y-1054100D03*
X-2802289Y-1054187D03*
X-3056289Y-1054187D03*
X-3310289Y-1054187D03*
M02*
