G04 PROTEUS GERBER X2 FILE*
%TF.GenerationSoftware,Labcenter,Proteus,8.15-SP1-Build34318*%
%TF.CreationDate,2024-05-26T10:12:06+00:00*%
%TF.FileFunction,Copper,L1,Top*%
%TF.FilePolarity,Positive*%
%TF.Part,Single*%
%TF.SameCoordinates,{c1c5c1e2-d9f3-4829-891e-9e67f3fcbee4}*%
%FSLAX45Y45*%
%MOMM*%
G01*
%TA.AperFunction,Conductor*%
%ADD10C,0.254000*%
%ADD11C,0.508000*%
%TA.AperFunction,ViaPad*%
%ADD12C,0.762000*%
%TA.AperFunction,ComponentPad*%
%ADD13C,2.286000*%
%TA.AperFunction,ComponentPad*%
%ADD14R,1.905000X1.905000*%
%ADD15C,1.778000*%
%TA.AperFunction,SMDPad,CuDef*%
%ADD16R,0.762000X2.540000*%
%ADD17R,2.540000X2.540000*%
%TA.AperFunction,SMDPad,CuDef*%
%ADD18R,3.454400X1.447800*%
%ADD19R,6.807200X10.490200*%
%TA.AperFunction,ComponentPad*%
%ADD70R,2.032000X2.032000*%
%TA.AperFunction,SMDPad,CuDef*%
%ADD71R,2.260600X1.803400*%
%ADD20R,1.803400X1.143000*%
%ADD21R,1.143000X1.803400*%
%ADD22R,1.270000X1.016000*%
%TA.AperFunction,Profile*%
%ADD23C,0.203200*%
%TD.AperFunction*%
D10*
X-2802289Y-1054187D02*
X-2637102Y-889000D01*
X-1896110Y-889000D01*
X-1644650Y-637540D01*
D11*
X-1240790Y-309880D02*
X-1079500Y-309880D01*
X-1079500Y+0D01*
X-766150Y+124460D02*
X-1079500Y+124460D01*
X-1079500Y+0D01*
X-1905000Y-190500D02*
X-1905000Y-444500D01*
X-3111500Y-444500D01*
X-3175000Y-508000D01*
X-766150Y+124460D02*
X+323850Y+124460D01*
X-3429000Y+1333500D02*
X-3416257Y+1346243D01*
X-3416257Y+1614187D01*
X-1240790Y-309880D02*
X-1447800Y-309880D01*
X-1460500Y-297180D01*
X-1626870Y-297180D01*
X-2622550Y+368300D02*
X-2406370Y+584480D01*
X-2058670Y+584480D01*
X-1621790Y+561340D02*
X-1841500Y+561340D01*
X-1864640Y+584480D01*
X-2058670Y+584480D01*
X-508000Y+0D02*
X-508000Y-129540D01*
X-766150Y-129540D01*
X-1621790Y+561340D02*
X-1409700Y+561340D01*
X-1397000Y+574040D01*
X-1245870Y+574040D01*
X-2413000Y-63500D02*
X-2376805Y-99695D01*
X-1803400Y-99695D01*
X-1803400Y-461645D01*
X+825500Y-461645D01*
X+825500Y-952500D01*
X+571500Y-1206500D01*
X-2622550Y-139700D02*
X-2580359Y-181891D01*
X-2058670Y-181891D01*
X-2058670Y-289840D01*
X-1391920Y+1413510D02*
X-1137920Y+1413510D01*
X-883920Y+1413510D01*
X-629920Y+1413510D01*
X-375920Y+1413510D01*
X-121920Y+1413510D01*
X+132080Y+1413510D01*
X+386080Y+1413510D01*
D10*
X-1898650Y+886460D02*
X-2218690Y+1206500D01*
X-3429000Y+1206500D01*
X-3543257Y+1320757D01*
X-3543257Y+1614187D01*
X-2152650Y+886460D02*
X-2409190Y+1143000D01*
X-3556000Y+1143000D01*
X-3670257Y+1257257D01*
X-3670257Y+1614187D01*
D11*
X-1240790Y+274040D02*
X-1079500Y+274040D01*
X-1079500Y+378460D01*
X-766150Y+378460D01*
X-1240790Y+274040D02*
X-1240790Y-9880D01*
X-1621790Y+271340D02*
X-1626870Y+271340D01*
X-2058670Y+271340D02*
X-1626870Y+271340D01*
X-1626870Y-7180D01*
X-2058670Y+271340D02*
X-2058670Y+10160D01*
X-4318000Y-571500D02*
X-4381500Y-635000D01*
X-4635500Y-635000D01*
X-2058670Y+284480D02*
X-2058670Y+271340D01*
X-2622550Y+114300D02*
X-2413000Y+114300D01*
X-2242820Y+284480D01*
X-2058670Y+284480D01*
X-3072257Y+197187D02*
X-2857500Y+197187D01*
X-2857500Y+95585D01*
X-2622550Y+95585D01*
X-2622550Y+114300D01*
X-1245870Y+274040D02*
X-1240790Y+274040D01*
X-4318000Y-571500D02*
X-4254500Y-508000D01*
X-4254500Y+190500D01*
X-1793240Y-1054100D02*
X-1393190Y-1054100D01*
X-1384300Y-1062990D01*
X-4635500Y-635000D02*
X-4642257Y-628243D01*
X-4642257Y+197187D01*
X-4254500Y+190500D02*
X-4254500Y+254000D01*
X-4305257Y+304757D01*
X-4305257Y+1614187D01*
X-1621790Y+271340D02*
X-1397000Y+271340D01*
X-1397000Y+381000D01*
X-1333500Y+444500D01*
X-1245870Y+274040D02*
X-1245870Y+406400D01*
X-1283970Y+444500D01*
X-1333500Y+444500D01*
D10*
X-4127500Y+1016000D02*
X-4127500Y+889000D01*
X-4124960Y+886460D01*
X-2660650Y+886460D01*
X-4127500Y+1016000D02*
X-4051257Y+1092243D01*
X-4051257Y+1614187D01*
X-3937000Y+1079500D02*
X-2599690Y+1079500D01*
X-2406650Y+886460D01*
X-3937000Y+1079500D02*
X-3937000Y+1270000D01*
X-3924257Y+1282743D01*
X-3924257Y+1614187D01*
X-3810000Y+1206500D02*
X-3797257Y+1219243D01*
X-3797257Y+1614187D01*
X-1136650Y-637540D02*
X-948690Y-825500D01*
X-859790Y-825500D01*
X-622300Y-1062990D01*
X-1390650Y-637540D02*
X-1139190Y-889000D01*
X-1050290Y-889000D01*
X-876300Y-1062990D01*
D11*
X-3255707Y+1638422D02*
X-3422139Y+1638422D01*
X-3429820Y+1630741D01*
X-3416257Y+1614187D01*
D10*
X-33088Y-1016508D02*
X+156197Y-1016508D01*
X+161077Y-1021388D01*
X+187452Y-1026668D01*
D11*
X+563372Y-1026668D02*
X+705487Y-884553D01*
X+736663Y-884553D01*
D10*
X-323088Y-1016508D02*
X-323088Y-975360D01*
X-505460Y-792988D01*
X-2660650Y-637540D02*
X-2854452Y-831342D01*
X-3555315Y-831342D01*
X-3786378Y-600279D01*
X-3786378Y-600202D01*
D11*
X-3510309Y-755231D02*
X-3424682Y-669604D01*
X-3424682Y-579628D01*
X-3424682Y-577643D01*
X-3901902Y-1056083D02*
X-3308393Y-1056083D01*
X-3302303Y-1056083D01*
X-3296158Y-1062228D01*
X-3310289Y-1054187D01*
X-1793240Y-1054100D02*
X-1965368Y-1226228D01*
X-3138248Y-1226228D01*
X-3308393Y-1056083D01*
X-3310289Y-1054187D01*
D12*
X-3175000Y-508000D03*
X-1905000Y-190500D03*
X-3429000Y+1333500D03*
X-1079500Y+0D03*
X-508000Y+0D03*
X+571500Y-1206500D03*
X-2413000Y-63500D03*
X-4635500Y-635000D03*
X-1333500Y+444500D03*
X-4127500Y+889000D03*
X-3937000Y+1079500D03*
X-3810000Y+1206500D03*
X-3255707Y+1638422D03*
X+736663Y-884553D03*
X-505460Y-792988D03*
X-3786378Y-600202D03*
X-3510309Y-755231D03*
X-3424682Y-577643D03*
X-3901902Y-1056083D03*
D13*
X+387350Y+886460D03*
X+133350Y+886460D03*
X-120650Y+886460D03*
X-374650Y+886460D03*
X-628650Y+886460D03*
X-882650Y+886460D03*
X-1136650Y+886460D03*
X-1390650Y+886460D03*
X-1644650Y+886460D03*
X-1898650Y+886460D03*
X-2152650Y+886460D03*
X-2406650Y+886460D03*
X-2660650Y+886460D03*
X-2660650Y-637540D03*
X-2406650Y-637540D03*
X-2152650Y-637540D03*
X-1898650Y-637540D03*
X-1644650Y-637540D03*
X-1390650Y-637540D03*
X-1136650Y-637540D03*
X-882650Y-637540D03*
X-628650Y-637540D03*
X-374650Y-637540D03*
X-120650Y-637540D03*
X+133350Y-637540D03*
X+387350Y-637540D03*
X+641350Y-637540D03*
X+641350Y+886460D03*
D14*
X-1391920Y+1667510D03*
X-1137920Y+1667510D03*
X-883920Y+1667510D03*
X-629920Y+1667510D03*
X-375920Y+1667510D03*
X-121920Y+1667510D03*
X+132080Y+1667510D03*
X+386080Y+1667510D03*
D15*
X-1391920Y+1413510D03*
X-1137920Y+1413510D03*
X-883920Y+1413510D03*
X-629920Y+1413510D03*
X-375920Y+1413510D03*
X-121920Y+1413510D03*
X+132080Y+1413510D03*
X+386080Y+1413510D03*
X-1391920Y+1159510D03*
X-1137920Y+1159510D03*
X-883920Y+1159510D03*
X-629920Y+1159510D03*
X-375920Y+1159510D03*
X-121920Y+1159510D03*
X+132080Y+1159510D03*
X+386080Y+1159510D03*
D16*
X-3416257Y+1614187D03*
X-3543257Y+1614187D03*
X-3670257Y+1614187D03*
X-3797257Y+1614187D03*
X-3924257Y+1614187D03*
X-4051257Y+1614187D03*
X-4178257Y+1614187D03*
X-4305257Y+1614187D03*
D17*
X-4642257Y+197187D03*
X-3072257Y+197187D03*
D18*
X-766150Y+378460D03*
X-766150Y+124460D03*
X-766150Y-129540D03*
D19*
X+323850Y+124460D03*
D70*
X-2622550Y-139700D03*
X-2622550Y+114300D03*
X-2622550Y+368300D03*
D71*
X-1626870Y-297180D03*
X-1626870Y-7180D03*
X-1621790Y+561340D03*
X-1621790Y+271340D03*
D20*
X-1245870Y+574040D03*
X-1245870Y+274040D03*
X-1240790Y-309880D03*
X-1240790Y-9880D03*
D15*
X-1384300Y-1062990D03*
X-1130300Y-1062990D03*
X-876300Y-1062990D03*
X-622300Y-1062990D03*
X-2301240Y-1054100D03*
X-2047240Y-1054100D03*
D70*
X-1793240Y-1054100D03*
D20*
X-2058670Y+10160D03*
X-2058670Y-289840D03*
X-2058670Y+284480D03*
X-2058670Y+584480D03*
D21*
X-323088Y-1016508D03*
X-33088Y-1016508D03*
D22*
X+187452Y-1026668D03*
X+563372Y-1026668D03*
D15*
X-2802289Y-1054187D03*
X-3056289Y-1054187D03*
D70*
X-3310289Y-1054187D03*
D23*
X-4859022Y-1330960D02*
X+902970Y-1330960D01*
X+902970Y+1882140D01*
X-4859022Y+1882140D01*
X-4859022Y-1330960D01*
M02*
